<svg width="28" height="29" viewBox="0 0 28 29" fill="none" xmlns="http://www.w3.org/2000/svg">
<path fill-rule="evenodd" clip-rule="evenodd" d="M0 4.5C0 2.29086 1.79086 0.5 4 0.5H24C26.2091 0.5 28 2.29086 28 4.5V17.5C28 19.7091 26.2091 21.5 24 21.5H15.5525C15.0002 21.5 14.5525 21.9477 14.5525 22.5V27.5417C14.5525 28.2952 13.7507 28.778 13.0847 28.4255L2.1288 22.6267C0.819151 21.9336 0 20.5732 0 19.0914L0 4.5Z" fill="#157C00" fill-opacity="0.9"/>
<path d="M11.5834 9.56836V8.625C12.472 8.53841 13.0918 8.39486 13.4427 8.19434C13.7936 7.98926 14.0557 7.50846 14.2289 6.75195H15.1996V16.5H13.8871V9.56836H11.5834Z" fill="white"/>
</svg>
