<svg width="192" height="76" viewBox="0 0 192 76" fill="none" xmlns="http://www.w3.org/2000/svg">
<rect x="54" y="26" width="72" height="8" rx="2" fill="#1F75CB"/>
<rect x="54" y="42" width="138" height="8" rx="2" fill="#999999"/>
<path fill-rule="evenodd" clip-rule="evenodd" d="M41.2929 32.7071C41.6834 33.0976 42.3166 33.0976 42.7071 32.7071L45.7071 29.7071C46.0976 29.3166 46.0976 28.6834 45.7071 28.2929C45.3166 27.9024 44.6834 27.9024 44.2929 28.2929L42 30.5858L39.7071 28.2929C39.3166 27.9024 38.6834 27.9024 38.2929 28.2929C37.9024 28.6834 37.9024 29.3166 38.2929 29.7071L41.2929 32.7071Z" fill="#1F75CB"/>
<circle cx="123" cy="56" r="16" fill="#7B58CF"/>
<circle cx="123" cy="56" r="18" stroke="#7B58CF" stroke-opacity="0.3" stroke-width="4"/>
<path d="M124.397 54.9775C125.259 55.2061 125.918 55.6133 126.375 56.1992C126.832 56.7793 127.061 57.5059 127.061 58.3789C127.061 59.5859 126.653 60.5352 125.839 61.2266C125.03 61.9121 123.908 62.2549 122.473 62.2549C121.869 62.2549 121.254 62.1992 120.627 62.0879C120 61.9766 119.385 61.8154 118.781 61.6045V59.8379C119.379 60.1484 119.968 60.3799 120.548 60.5322C121.128 60.6846 121.705 60.7607 122.279 60.7607C123.252 60.7607 123.999 60.541 124.521 60.1016C125.042 59.6621 125.303 59.0293 125.303 58.2031C125.303 57.4414 125.042 56.8379 124.521 56.3926C123.999 55.9414 123.293 55.7158 122.402 55.7158H121.049V54.2568H122.402C123.217 54.2568 123.853 54.0781 124.31 53.7207C124.767 53.3633 124.995 52.8652 124.995 52.2266C124.995 51.5527 124.781 51.0371 124.354 50.6797C123.932 50.3164 123.328 50.1348 122.543 50.1348C122.021 50.1348 121.482 50.1934 120.926 50.3105C120.369 50.4277 119.786 50.6035 119.177 50.8379V49.2031C119.886 49.0156 120.516 48.875 121.066 48.7812C121.623 48.6875 122.115 48.6406 122.543 48.6406C123.82 48.6406 124.84 48.9629 125.602 49.6074C126.369 50.2461 126.753 51.0957 126.753 52.1562C126.753 52.877 126.551 53.4775 126.146 53.958C125.748 54.4385 125.165 54.7783 124.397 54.9775Z" fill="white"/>
<circle cx="90" cy="20" r="16" fill="#7B58CF"/>
<circle cx="90" cy="20" r="18" stroke="#7B58CF" stroke-opacity="0.3" stroke-width="4"/>
<path d="M87.8555 24.5059H93.8848V26H85.9131V24.5059C87.0088 23.3516 87.9668 22.332 88.7871 21.4473C89.6074 20.5625 90.1729 19.9385 90.4834 19.5752C91.0693 18.8604 91.4648 18.2832 91.6699 17.8438C91.875 17.3984 91.9775 16.9443 91.9775 16.4814C91.9775 15.749 91.7607 15.1748 91.3271 14.7588C90.8994 14.3428 90.3105 14.1348 89.5605 14.1348C89.0273 14.1348 88.4678 14.2314 87.8818 14.4248C87.2959 14.6182 86.6748 14.9111 86.0186 15.3037V13.5107C86.6221 13.2236 87.2139 13.0068 87.7939 12.8604C88.3799 12.7139 88.957 12.6406 89.5254 12.6406C90.8086 12.6406 91.8398 12.9834 92.6191 13.6689C93.4043 14.3486 93.7969 15.2422 93.7969 16.3496C93.7969 16.9121 93.665 17.4746 93.4014 18.0371C93.1436 18.5996 92.7217 19.2207 92.1357 19.9004C91.8076 20.2812 91.3301 20.8086 90.7031 21.4824C90.082 22.1562 89.1328 23.1641 87.8555 24.5059Z" fill="white"/>
<circle cx="20" cy="30" r="16" fill="#7B58CF"/>
<circle cx="20" cy="30" r="18" stroke="#7B58CF" stroke-opacity="0.3" stroke-width="4"/>
<path d="M16.9502 34.5146H19.71V24.6006L16.4053 26.1914V24.4863L19.6924 22.9219H21.4678V34.5146H24.1924V36H16.9502V34.5146Z" fill="white"/>
</svg>
