<svg width="198" height="112" viewBox="0 0 198 112" fill="none" xmlns="http://www.w3.org/2000/svg">
<rect x="60" y="44" width="74" height="8" rx="2" fill="#1F75CB"/>
<rect x="60" y="60" width="138" height="8" rx="2" fill="#525252"/>
<circle cx="97" cy="92" r="16" fill="#7B58CF"/>
<circle cx="97" cy="92" r="18" stroke="#7B58CF" stroke-opacity="0.3" stroke-width="4"/>
<path d="M98.3975 90.9775C99.2588 91.2061 99.918 91.6133 100.375 92.1992C100.832 92.7793 101.061 93.5059 101.061 94.3789C101.061 95.5859 100.653 96.5352 99.8389 97.2266C99.0303 97.9121 97.9082 98.2549 96.4727 98.2549C95.8691 98.2549 95.2539 98.1992 94.627 98.0879C94 97.9766 93.3848 97.8154 92.7812 97.6045V95.8379C93.3789 96.1484 93.9678 96.3799 94.5479 96.5322C95.1279 96.6846 95.7051 96.7607 96.2793 96.7607C97.252 96.7607 97.999 96.541 98.5205 96.1016C99.042 95.6621 99.3027 95.0293 99.3027 94.2031C99.3027 93.4414 99.042 92.8379 98.5205 92.3926C97.999 91.9414 97.293 91.7158 96.4023 91.7158H95.0488V90.2568H96.4023C97.2168 90.2568 97.8525 90.0781 98.3096 89.7207C98.7666 89.3633 98.9951 88.8652 98.9951 88.2266C98.9951 87.5527 98.7812 87.0371 98.3535 86.6797C97.9316 86.3164 97.3281 86.1348 96.543 86.1348C96.0215 86.1348 95.4824 86.1934 94.9258 86.3105C94.3691 86.4277 93.7861 86.6035 93.1768 86.8379V85.2031C93.8857 85.0156 94.5156 84.875 95.0664 84.7812C95.623 84.6875 96.1152 84.6406 96.543 84.6406C97.8203 84.6406 98.8398 84.9629 99.6016 85.6074C100.369 86.2461 100.753 87.0957 100.753 88.1562C100.753 88.877 100.551 89.4775 100.146 89.958C99.748 90.4385 99.165 90.7783 98.3975 90.9775Z" fill="white"/>
<circle cx="97" cy="20" r="16" fill="#7B58CF"/>
<circle cx="97" cy="20" r="18" stroke="#7B58CF" stroke-opacity="0.3" stroke-width="4"/>
<path d="M94.8555 24.5059H100.885V26H92.9131V24.5059C94.0088 23.3516 94.9668 22.332 95.7871 21.4473C96.6074 20.5625 97.1729 19.9385 97.4834 19.5752C98.0693 18.8604 98.4648 18.2832 98.6699 17.8438C98.875 17.3984 98.9775 16.9443 98.9775 16.4814C98.9775 15.749 98.7607 15.1748 98.3271 14.7588C97.8994 14.3428 97.3105 14.1348 96.5605 14.1348C96.0273 14.1348 95.4678 14.2314 94.8818 14.4248C94.2959 14.6182 93.6748 14.9111 93.0186 15.3037V13.5107C93.6221 13.2236 94.2139 13.0068 94.7939 12.8604C95.3799 12.7139 95.957 12.6406 96.5254 12.6406C97.8086 12.6406 98.8398 12.9834 99.6191 13.6689C100.404 14.3486 100.797 15.2422 100.797 16.3496C100.797 16.9121 100.665 17.4746 100.401 18.0371C100.144 18.5996 99.7217 19.2207 99.1357 19.9004C98.8076 20.2812 98.3301 20.8086 97.7031 21.4824C97.082 22.1562 96.1328 23.1641 94.8555 24.5059Z" fill="white"/>
<circle cx="20" cy="48" r="16" fill="#7B58CF"/>
<circle cx="20" cy="48" r="18" stroke="#7B58CF" stroke-opacity="0.3" stroke-width="4"/>
<path d="M16.9502 52.5146H19.71V42.6006L16.4053 44.1914V42.4863L19.6924 40.9219H21.4678V52.5146H24.1924V54H16.9502V52.5146Z" fill="white"/>
<path fill-rule="evenodd" clip-rule="evenodd" d="M47.2929 50.7071C47.6834 51.0976 48.3166 51.0976 48.7071 50.7071L51.7071 47.7071C52.0976 47.3166 52.0976 46.6834 51.7071 46.2929C51.3166 45.9024 50.6834 45.9024 50.2929 46.2929L48 48.5858L45.7071 46.2929C45.3166 45.9024 44.6834 45.9024 44.2929 46.2929C43.9024 46.6834 43.9024 47.3166 44.2929 47.7071L47.2929 50.7071Z" fill="#1F75CB"/>
</svg>
