<svg width="192" height="96" fill="none" xmlns="http://www.w3.org/2000/svg"><g clip-path="url(#accordion-structure__a)"><rect x="54" y="52" width="138" height="8" rx="2" fill="#89888D"/><rect x="54" y="36" width="72" height="8" rx="2" fill="#1F75CB"/><path fill-rule="evenodd" clip-rule="evenodd" d="M41.293 42.707a1 1 0 0 0 1.414 0l3-3a1 1 0 0 0-1.414-1.414L42 40.586l-2.293-2.293a1 1 0 0 0-1.414 1.414l3 3Z" fill="#1F75CB"/><circle cx="123" cy="76" r="16" fill="#7B58CF"/><circle cx="123" cy="76" r="18" stroke="#7B58CF" stroke-opacity=".3" stroke-width="4"/><path d="M122.806 82.18c-1.212 0-2.172-.336-2.88-1.008-.708-.684-1.062-1.608-1.062-2.772h1.62c0 .72.21 1.29.63 1.71.42.42.99.63 1.71.63s1.29-.21 1.71-.63c.42-.42.63-.99.63-1.71v-.9c0-.72-.21-1.29-.63-1.71-.42-.42-.99-.63-1.71-.63h-1.422v-1.404l3.222-3.42h-5.4V68.86h7.236v1.512l-3.6 3.834v-.486c1.212 0 2.166.342 2.862 1.026.708.672 1.062 1.59 1.062 2.754v.9c0 1.164-.36 2.088-1.08 2.772-.708.672-1.674 1.008-2.898 1.008Z" fill="#fff"/><circle cx="90" cy="20" r="16" fill="#7B58CF"/><circle cx="90" cy="20" r="18" stroke="#7B58CF" stroke-opacity=".3" stroke-width="4"/><path d="M86.151 26v-1.494l4.374-4.68c.636-.672 1.087-1.272 1.35-1.8.264-.528.397-1.044.397-1.548 0-.72-.21-1.29-.63-1.71-.408-.432-.966-.648-1.674-.648-.733 0-1.315.222-1.746.666-.42.432-.63 1.02-.63 1.764h-1.62c.024-.792.204-1.476.54-2.052a3.41 3.41 0 0 1 1.385-1.35c.588-.312 1.278-.468 2.07-.468.817 0 1.519.156 2.106.468a3.325 3.325 0 0 1 1.369 1.332c.324.564.486 1.236.486 2.016 0 .624-.174 1.284-.522 1.98-.337.696-.919 1.476-1.747 2.34l-3.546 3.708h5.977V26h-7.94Z" fill="#fff"/><circle cx="20" cy="40" r="16" fill="#7B58CF"/><circle cx="20" cy="40" r="18" stroke="#7B58CF" stroke-opacity=".3" stroke-width="4"/><path d="M16.224 46v-1.476h3.564v-10.26l-3.564 2.664v-1.854l2.97-2.214h2.213v11.664h2.916V46h-8.1Z" fill="#fff"/></g><defs><clipPath id="accordion-structure__a"><path fill="#fff" d="M0 0h192v96H0z"/></clipPath></defs></svg>