<svg width="192" height="96" viewBox="0 0 192 96" fill="none" xmlns="http://www.w3.org/2000/svg">
<g clip-path="url(#clip0_882_12645)">
<rect x="54" y="52" width="138" height="8" rx="2" fill="#89888D"/>
<rect x="54" y="36" width="72" height="8" rx="2" fill="#1F75CB"/>
<path fill-rule="evenodd" clip-rule="evenodd" d="M41.2929 42.7071C41.6834 43.0976 42.3166 43.0976 42.7071 42.7071L45.7071 39.7071C46.0976 39.3166 46.0976 38.6834 45.7071 38.2929C45.3166 37.9024 44.6834 37.9024 44.2929 38.2929L42 40.5858L39.7071 38.2929C39.3166 37.9024 38.6834 37.9024 38.2929 38.2929C37.9024 38.6834 37.9024 39.3166 38.2929 39.7071L41.2929 42.7071Z" fill="#1F75CB"/>
<circle cx="123" cy="76" r="16" fill="#7B58CF"/>
<circle cx="123" cy="76" r="18" stroke="#7B58CF" stroke-opacity="0.3" stroke-width="4"/>
<path d="M122.806 82.18C121.594 82.18 120.634 81.844 119.926 81.172C119.218 80.488 118.864 79.564 118.864 78.4H120.484C120.484 79.12 120.694 79.69 121.114 80.11C121.534 80.53 122.104 80.74 122.824 80.74C123.544 80.74 124.114 80.53 124.534 80.11C124.954 79.69 125.164 79.12 125.164 78.4V77.5C125.164 76.78 124.954 76.21 124.534 75.79C124.114 75.37 123.544 75.16 122.824 75.16H121.402V73.756L124.624 70.336H119.224V68.86H126.46V70.372L122.86 74.206V73.72C124.072 73.72 125.026 74.062 125.722 74.746C126.43 75.418 126.784 76.336 126.784 77.5V78.4C126.784 79.564 126.424 80.488 125.704 81.172C124.996 81.844 124.03 82.18 122.806 82.18Z" fill="white"/>
<circle cx="90" cy="20" r="16" fill="#7B58CF"/>
<circle cx="90" cy="20" r="18" stroke="#7B58CF" stroke-opacity="0.3" stroke-width="4"/>
<path d="M86.1515 26V24.506L90.5255 19.826C91.1615 19.154 91.6115 18.554 91.8755 18.026C92.1395 17.498 92.2715 16.982 92.2715 16.478C92.2715 15.758 92.0615 15.188 91.6415 14.768C91.2335 14.336 90.6755 14.12 89.9675 14.12C89.2355 14.12 88.6535 14.342 88.2215 14.786C87.8015 15.218 87.5915 15.806 87.5915 16.55H85.9715C85.9955 15.758 86.1755 15.074 86.5115 14.498C86.8475 13.91 87.3095 13.46 87.8975 13.148C88.4855 12.836 89.1755 12.68 89.9675 12.68C90.7835 12.68 91.4855 12.836 92.0735 13.148C92.6615 13.46 93.1175 13.904 93.4415 14.48C93.7655 15.044 93.9275 15.716 93.9275 16.496C93.9275 17.12 93.7535 17.78 93.4055 18.476C93.0695 19.172 92.4875 19.952 91.6595 20.816L88.1135 24.524H94.0895V26H86.1515Z" fill="white"/>
<circle cx="20" cy="40" r="16" fill="#7B58CF"/>
<circle cx="20" cy="40" r="18" stroke="#7B58CF" stroke-opacity="0.3" stroke-width="4"/>
<path d="M16.2235 46V44.524H19.7875V34.264L16.2235 36.928V35.074L19.1935 32.86H21.4075V44.524H24.3235V46H16.2235Z" fill="white"/>
</g>
<defs>
<clipPath id="clip0_882_12645">
<rect width="192" height="96" fill="white"/>
</clipPath>
</defs>
</svg>
