<svg width="507" height="144" viewBox="0 0 507 144" fill="none" xmlns="http://www.w3.org/2000/svg">
<rect width="507" height="144" fill="#E5E5E5"/>
<g clip-path="url(#clip0_1231_76512)">
<rect width="507" height="144" fill="white"/>
<rect x="369.5" y="8.5" width="137" height="31" rx="3.5" fill="white"/>
<text fill="#1F75CB" xml:space="preserve" style="white-space: pre" font-family="Helvetica Neue" font-size="14" letter-spacing="0em"><tspan x="381" y="29.173">Add protected tag</tspan></text>
<rect x="369.5" y="8.5" width="137" height="31" rx="3.5" stroke="#1F75CB"/>
<text fill="#303030" xml:space="preserve" style="white-space: pre" font-family="Helvetica Neue" font-size="14" font-weight="bold" letter-spacing="0em"><tspan x="0" y="29.306">Protected tags</tspan></text>
<g filter="url(#filter0_i_1231_76512)">
<g filter="url(#filter1_i_1231_76512)">
<rect width="449" height="48" transform="translate(0 48)" fill="white"/>
<rect width="149.667" height="48" transform="translate(0 48)" fill="white"/>
<text fill="#303030" xml:space="preserve" style="white-space: pre" font-family="Helvetica Neue" font-size="14" font-weight="bold" letter-spacing="0em"><tspan x="16" y="77.306">Tag</tspan></text>
<rect width="149.667" height="48" transform="translate(149.667 48)" fill="white"/>
<text fill="#303030" xml:space="preserve" style="white-space: pre" font-family="Helvetica Neue" font-size="14" font-weight="bold" letter-spacing="0em"><tspan x="165.667" y="77.306">Last commit</tspan></text>
<rect width="149.667" height="48" transform="translate(299.333 48)" fill="white"/>
<text fill="#303030" xml:space="preserve" style="white-space: pre" font-family="Helvetica Neue" font-size="14" font-weight="bold" letter-spacing="0em"><tspan x="315.333" y="77.306">Allowed to create</tspan></text>
</g>
</g>
<g filter="url(#filter2_i_1231_76512)">
<rect width="449" height="48" transform="translate(0 96)" fill="white"/>
<text fill="#525252" xml:space="preserve" style="white-space: pre" font-family="Menlo" font-size="13" letter-spacing="0em"><tspan x="16" y="124.5">ux</tspan></text>
<text fill="#525252" xml:space="preserve" style="white-space: pre" font-family="Helvetica Neue" font-size="14" letter-spacing="0em"><tspan x="165.667" y="125.173">Dec 18, 2020</tspan></text>
<text fill="#525252" xml:space="preserve" style="white-space: pre" font-family="Helvetica Neue" font-size="14" letter-spacing="0em"><tspan x="315.333" y="125.173">Maintainers</tspan></text>
</g>
<line x1="586" y1="48.5" x2="431" y2="48.5" stroke="#DBDBDB"/>
<line x1="566" y1="95.5" x2="448" y2="95.5" stroke="#DBDBDB"/>
<line x1="566" y1="143.5" x2="448" y2="143.5" stroke="#DBDBDB"/>
<path fill-rule="evenodd" clip-rule="evenodd" d="M473.5 125.5V123.621L480.78 116.341L482.659 118.22L475.379 125.5H473.5ZM483.72 117.159L484.525 116.353C484.72 116.158 484.72 115.842 484.525 115.646L483.354 114.475C483.158 114.28 482.842 114.28 482.646 114.475L481.841 115.28L483.72 117.159ZM472 125.5V123L481.586 113.414C482.367 112.633 483.633 112.633 484.414 113.414L485.586 114.586C486.367 115.367 486.367 116.633 485.586 117.414L476 127H473.5H472V125.5Z" fill="#666666"/>
</g>
<defs>
<filter id="filter0_i_1231_76512" x="0" y="48" width="449" height="48" filterUnits="userSpaceOnUse" color-interpolation-filters="sRGB">
<feFlood flood-opacity="0" result="BackgroundImageFix"/>
<feBlend mode="normal" in="SourceGraphic" in2="BackgroundImageFix" result="shape"/>
<feColorMatrix in="SourceAlpha" type="matrix" values="0 0 0 0 0 0 0 0 0 0 0 0 0 0 0 0 0 0 127 0" result="hardAlpha"/>
<feOffset dy="1"/>
<feComposite in2="hardAlpha" operator="arithmetic" k2="-1" k3="1"/>
<feColorMatrix type="matrix" values="0 0 0 0 0.858824 0 0 0 0 0.858824 0 0 0 0 0.858824 0 0 0 1 0"/>
<feBlend mode="normal" in2="shape" result="effect1_innerShadow_1231_76512"/>
</filter>
<filter id="filter1_i_1231_76512" x="0" y="48" width="449" height="48" filterUnits="userSpaceOnUse" color-interpolation-filters="sRGB">
<feFlood flood-opacity="0" result="BackgroundImageFix"/>
<feBlend mode="normal" in="SourceGraphic" in2="BackgroundImageFix" result="shape"/>
<feColorMatrix in="SourceAlpha" type="matrix" values="0 0 0 0 0 0 0 0 0 0 0 0 0 0 0 0 0 0 127 0" result="hardAlpha"/>
<feOffset dy="-1"/>
<feComposite in2="hardAlpha" operator="arithmetic" k2="-1" k3="1"/>
<feColorMatrix type="matrix" values="0 0 0 0 0.858824 0 0 0 0 0.858824 0 0 0 0 0.858824 0 0 0 1 0"/>
<feBlend mode="normal" in2="shape" result="effect1_innerShadow_1231_76512"/>
</filter>
<filter id="filter2_i_1231_76512" x="0" y="96" width="449" height="48" filterUnits="userSpaceOnUse" color-interpolation-filters="sRGB">
<feFlood flood-opacity="0" result="BackgroundImageFix"/>
<feBlend mode="normal" in="SourceGraphic" in2="BackgroundImageFix" result="shape"/>
<feColorMatrix in="SourceAlpha" type="matrix" values="0 0 0 0 0 0 0 0 0 0 0 0 0 0 0 0 0 0 127 0" result="hardAlpha"/>
<feOffset dy="-1"/>
<feComposite in2="hardAlpha" operator="arithmetic" k2="-1" k3="1"/>
<feColorMatrix type="matrix" values="0 0 0 0 0.858824 0 0 0 0 0.858824 0 0 0 0 0.858824 0 0 0 1 0"/>
<feBlend mode="normal" in2="shape" result="effect1_innerShadow_1231_76512"/>
</filter>
<clipPath id="clip0_1231_76512">
<rect width="507" height="144" fill="white"/>
</clipPath>
</defs>
</svg>
