<svg width="321" height="368" viewBox="0 0 321 368" fill="none" xmlns="http://www.w3.org/2000/svg">
<line x1="1" y1="-1" x2="10" y2="-1" transform="matrix(1 4.53408e-09 -1.68562e-06 1 44 58)" stroke="#7B58CF" stroke-width="2" stroke-linecap="round"/>
<path d="M61 42H55V74H61" stroke="#7B58CF" stroke-width="2" stroke-linecap="round" stroke-linejoin="round"/>
<circle cx="20" cy="57" r="16" fill="#7B58CF"/>
<circle cx="20" cy="57" r="18" stroke="#7B58CF" stroke-opacity="0.3" stroke-width="4"/>
<path d="M19.9912 51.4424L18.1191 58.1572H21.8633L19.9912 51.4424ZM18.9189 49.8779H21.0723L25.0889 63H23.252L22.2852 59.5811H17.6885L16.7393 63H14.9023L18.9189 49.8779Z" fill="white"/>
<line x1="1" y1="-1" x2="10" y2="-1" transform="matrix(1 4.53408e-09 -1.68562e-06 1 44 349)" stroke="#7B58CF" stroke-width="2" stroke-linecap="round"/>
<path d="M61 333H55V365H61" stroke="#7B58CF" stroke-width="2" stroke-linecap="round" stroke-linejoin="round"/>
<circle cx="20" cy="348" r="16" fill="#7B58CF"/>
<circle cx="20" cy="348" r="18" stroke="#7B58CF" stroke-opacity="0.3" stroke-width="4"/>
<path d="M24.0078 353.534C23.5566 353.774 23.0938 353.953 22.6191 354.07C22.1445 354.193 21.6406 354.255 21.1074 354.255C19.4258 354.255 18.1191 353.66 17.1875 352.471C16.2617 351.281 15.7988 349.608 15.7988 347.452C15.7988 345.308 16.2646 343.638 17.1963 342.442C18.1338 341.241 19.4375 340.641 21.1074 340.641C21.6406 340.641 22.1445 340.702 22.6191 340.825C23.0938 340.942 23.5566 341.121 24.0078 341.361V343.181C23.5742 342.823 23.1084 342.551 22.6104 342.363C22.1123 342.176 21.6113 342.082 21.1074 342.082C19.9531 342.082 19.0889 342.527 18.5146 343.418C17.9404 344.309 17.6533 345.653 17.6533 347.452C17.6533 349.245 17.9404 350.587 18.5146 351.478C19.0889 352.368 19.9531 352.813 21.1074 352.813C21.623 352.813 22.127 352.72 22.6191 352.532C23.1172 352.345 23.5801 352.072 24.0078 351.715V353.534Z" fill="white"/>
<line x1="45" y1="204" x2="54" y2="204" stroke="#7B58CF" stroke-width="2" stroke-linecap="round"/>
<path d="M61 92H55V318H61" stroke="#7B58CF" stroke-width="2" stroke-linecap="round" stroke-linejoin="round"/>
<circle cx="20" cy="205" r="16" fill="#7B58CF"/>
<circle cx="20" cy="205" r="18" stroke="#7B58CF" stroke-opacity="0.3" stroke-width="4"/>
<path d="M17.8203 204.382V209.541H19.9209C20.9521 209.541 21.6875 209.362 22.127 209.005C22.5664 208.642 22.7861 208.047 22.7861 207.221C22.7861 206.131 22.5547 205.387 22.0918 204.988C21.6289 204.584 20.9053 204.382 19.9209 204.382H17.8203ZM17.8203 199.337V202.94H19.8857C20.7412 202.94 21.3594 202.776 21.7402 202.448C22.127 202.12 22.3203 201.707 22.3203 201.209C22.3203 200.547 22.1299 200.069 21.749 199.776C21.374 199.483 20.7529 199.337 19.8857 199.337H17.8203ZM16.0361 197.878H19.9209C21.2627 197.878 22.2969 198.168 23.0234 198.748C23.75 199.328 24.1133 200.148 24.1133 201.209C24.1133 201.777 23.9199 202.293 23.5332 202.756C23.1523 203.219 22.5781 203.509 21.8105 203.626C22.6719 203.755 23.3457 204.124 23.832 204.733C24.3242 205.337 24.5703 206.225 24.5703 207.396C24.5703 208.586 24.1807 209.485 23.4014 210.095C22.6221 210.698 21.4619 211 19.9209 211H16.0361V197.878Z" fill="white"/>
<g style="mix-blend-mode:multiply">
<rect x="69" y="42" width="248" height="32" rx="4" fill="#ECECEF"/>
<path fill-rule="evenodd" clip-rule="evenodd" d="M94.5 52.5H83.5V55H94.5V52.5ZM94.5 56.5H87.5V63.5H94.5V56.5ZM86 56.5H83.5V63.5H86V56.5ZM83.5 51H82V52.5V63.5V65H83.5H94.5H96V63.5V52.5V51H94.5H83.5Z" fill="#535158"/>
<path d="M73 47.5C73 46.6716 73.6716 46 74.5 46V46C75.3284 46 76 46.6716 76 47.5V68.5C76 69.3284 75.3284 70 74.5 70V70C73.6716 70 73 69.3284 73 68.5V47.5Z" fill="#1F75CB"/>
<rect x="110" y="54" width="89" height="8" rx="2" fill="#737278"/>
</g>
<rect x="81" y="82" width="224" height="1" fill="#ECECEF"/>
<g style="mix-blend-mode:multiply">
<g clip-path="url(#clip0_16653_30419)">
<path fill-rule="evenodd" clip-rule="evenodd" d="M82.5 103V101.5H87.1972L88.1972 103H82.5ZM81 103V101C81 100.448 81.4477 100 82 100H87.4648C87.7992 100 88.1114 100.167 88.2969 100.445L89.9635 102.945C89.9756 102.963 89.987 102.982 89.9977 103H96C96.5523 103 97 103.448 97 104V112C97 112.552 96.5523 113 96 113H82C81.4477 113 81 112.552 81 112V104.5V103.5V103ZM82.5 104.5V111.5H95.5V104.5H89.1315H82.5Z" fill="#737278"/>
</g>
<rect x="110" y="103" width="43" height="8" rx="2" fill="#A4A3A8"/>
<path fill-rule="evenodd" clip-rule="evenodd" d="M293.22 105.22C293.513 104.927 293.987 104.927 294.28 105.22L297 107.939L299.72 105.22C300.013 104.927 300.487 104.927 300.78 105.22C301.073 105.513 301.073 105.987 300.78 106.28L297.53 109.53C297.237 109.823 296.763 109.823 296.47 109.53L293.22 106.28C292.927 105.987 292.927 105.513 293.22 105.22Z" fill="#737278"/>
</g>
<g style="mix-blend-mode:multiply">
<g clip-path="url(#clip1_16653_30419)">
<path fill-rule="evenodd" clip-rule="evenodd" d="M82.5 135V133.5H87.1972L88.1972 135H82.5ZM81 135V133C81 132.448 81.4477 132 82 132H87.4648C87.7992 132 88.1114 132.167 88.2969 132.445L89.9635 134.945C89.9756 134.963 89.987 134.982 89.9977 135H96C96.5523 135 97 135.448 97 136V144C97 144.552 96.5523 145 96 145H82C81.4477 145 81 144.552 81 144V136.5V135.5V135ZM82.5 136.5V143.5H95.5V136.5H89.1315H82.5Z" fill="#737278"/>
</g>
<rect x="110" y="135" width="96" height="8" rx="2" fill="#A4A3A8"/>
<path fill-rule="evenodd" clip-rule="evenodd" d="M293.22 137.22C293.513 136.927 293.987 136.927 294.28 137.22L297 139.939L299.72 137.22C300.013 136.927 300.487 136.927 300.78 137.22C301.073 137.513 301.073 137.987 300.78 138.28L297.53 141.53C297.237 141.823 296.763 141.823 296.47 141.53L293.22 138.28C292.927 137.987 292.927 137.513 293.22 137.22Z" fill="#737278"/>
</g>
<g style="mix-blend-mode:multiply">
<g clip-path="url(#clip2_16653_30419)">
<path fill-rule="evenodd" clip-rule="evenodd" d="M82.5 167V165.5H87.1972L88.1972 167H82.5ZM81 167V165C81 164.448 81.4477 164 82 164H87.4648C87.7992 164 88.1114 164.167 88.2969 164.445L89.9635 166.945C89.9756 166.963 89.987 166.982 89.9977 167H96C96.5523 167 97 167.448 97 168V176C97 176.552 96.5523 177 96 177H82C81.4477 177 81 176.552 81 176V168.5V167.5V167ZM82.5 168.5V175.5H95.5V168.5H89.1315H82.5Z" fill="#737278"/>
</g>
<rect x="110" y="167" width="50" height="8" rx="2" fill="#A4A3A8"/>
<path fill-rule="evenodd" clip-rule="evenodd" d="M293.22 169.22C293.513 168.927 293.987 168.927 294.28 169.22L297 171.939L299.72 169.22C300.013 168.927 300.487 168.927 300.78 169.22C301.073 169.513 301.073 169.987 300.78 170.28L297.53 173.53C297.237 173.823 296.763 173.823 296.47 173.53L293.22 170.28C292.927 169.987 292.927 169.513 293.22 169.22Z" fill="#737278"/>
</g>
<g style="mix-blend-mode:multiply">
<g clip-path="url(#clip3_16653_30419)">
<path fill-rule="evenodd" clip-rule="evenodd" d="M82.5 199V197.5H87.1972L88.1972 199H82.5ZM81 199V197C81 196.448 81.4477 196 82 196H87.4648C87.7992 196 88.1114 196.167 88.2969 196.445L89.9635 198.945C89.9756 198.963 89.987 198.982 89.9977 199H96C96.5523 199 97 199.448 97 200V208C97 208.552 96.5523 209 96 209H82C81.4477 209 81 208.552 81 208V200.5V199.5V199ZM82.5 200.5V207.5H95.5V200.5H89.1315H82.5Z" fill="#737278"/>
</g>
<rect x="110" y="199" width="62" height="8" rx="2" fill="#A4A3A8"/>
<path fill-rule="evenodd" clip-rule="evenodd" d="M293.22 201.22C293.513 200.927 293.987 200.927 294.28 201.22L297 203.939L299.72 201.22C300.013 200.927 300.487 200.927 300.78 201.22C301.073 201.513 301.073 201.987 300.78 202.28L297.53 205.53C297.237 205.823 296.763 205.823 296.47 205.53L293.22 202.28C292.927 201.987 292.927 201.513 293.22 201.22Z" fill="#737278"/>
</g>
<g style="mix-blend-mode:multiply">
<g clip-path="url(#clip4_16653_30419)">
<path fill-rule="evenodd" clip-rule="evenodd" d="M82.5 231V229.5H87.1972L88.1972 231H82.5ZM81 231V229C81 228.448 81.4477 228 82 228H87.4648C87.7992 228 88.1114 228.167 88.2969 228.445L89.9635 230.945C89.9756 230.963 89.987 230.982 89.9977 231H96C96.5523 231 97 231.448 97 232V240C97 240.552 96.5523 241 96 241H82C81.4477 241 81 240.552 81 240V232.5V231.5V231ZM82.5 232.5V239.5H95.5V232.5H89.1315H82.5Z" fill="#737278"/>
</g>
<rect x="110" y="231" width="89" height="8" rx="2" fill="#A4A3A8"/>
<path fill-rule="evenodd" clip-rule="evenodd" d="M293.22 233.22C293.513 232.927 293.987 232.927 294.28 233.22L297 235.939L299.72 233.22C300.013 232.927 300.487 232.927 300.78 233.22C301.073 233.513 301.073 233.987 300.78 234.28L297.53 237.53C297.237 237.823 296.763 237.823 296.47 237.53L293.22 234.28C292.927 233.987 292.927 233.513 293.22 233.22Z" fill="#737278"/>
</g>
<g style="mix-blend-mode:multiply">
<g clip-path="url(#clip5_16653_30419)">
<path fill-rule="evenodd" clip-rule="evenodd" d="M82.5 263V261.5H87.1972L88.1972 263H82.5ZM81 263V261C81 260.448 81.4477 260 82 260H87.4648C87.7992 260 88.1114 260.167 88.2969 260.445L89.9635 262.945C89.9756 262.963 89.987 262.982 89.9977 263H96C96.5523 263 97 263.448 97 264V272C97 272.552 96.5523 273 96 273H82C81.4477 273 81 272.552 81 272V264.5V263.5V263ZM82.5 264.5V271.5H95.5V264.5H89.1315H82.5Z" fill="#737278"/>
</g>
<rect x="110" y="263" width="67" height="8" rx="2" fill="#A4A3A8"/>
<path fill-rule="evenodd" clip-rule="evenodd" d="M293.22 265.22C293.513 264.927 293.987 264.927 294.28 265.22L297 267.939L299.72 265.22C300.013 264.927 300.487 264.927 300.78 265.22C301.073 265.513 301.073 265.987 300.78 266.28L297.53 269.53C297.237 269.823 296.763 269.823 296.47 269.53L293.22 266.28C292.927 265.987 292.927 265.513 293.22 265.22Z" fill="#737278"/>
</g>
<g style="mix-blend-mode:multiply">
<g clip-path="url(#clip6_16653_30419)">
<path fill-rule="evenodd" clip-rule="evenodd" d="M82.5 295V293.5H87.1972L88.1972 295H82.5ZM81 295V293C81 292.448 81.4477 292 82 292H87.4648C87.7992 292 88.1114 292.167 88.2969 292.445L89.9635 294.945C89.9756 294.963 89.987 294.982 89.9977 295H96C96.5523 295 97 295.448 97 296V304C97 304.552 96.5523 305 96 305H82C81.4477 305 81 304.552 81 304V296.5V295.5V295ZM82.5 296.5V303.5H95.5V296.5H89.1315H82.5Z" fill="#737278"/>
</g>
<rect x="110" y="295" width="89" height="8" rx="2" fill="#A4A3A8"/>
<path fill-rule="evenodd" clip-rule="evenodd" d="M293.22 297.22C293.513 296.927 293.987 296.927 294.28 297.22L297 299.939L299.72 297.22C300.013 296.927 300.487 296.927 300.78 297.22C301.073 297.513 301.073 297.987 300.78 298.28L297.53 301.53C297.237 301.823 296.763 301.823 296.47 301.53L293.22 298.28C292.927 297.987 292.927 297.513 293.22 297.22Z" fill="#737278"/>
</g>
<rect x="81" y="323" width="224" height="1" fill="#ECECEF"/>
<g style="mix-blend-mode:multiply">
<path fill-rule="evenodd" clip-rule="evenodd" d="M88.0103 342.233L88.1341 341.5H89.8662L89.99 342.233C90.0538 342.611 90.3227 342.905 90.6648 343.019C91.3409 343.245 91.9565 343.605 92.4796 344.069C92.7497 344.308 93.1391 344.393 93.4975 344.26L94.1964 344L95.0624 345.5L94.4887 345.974C94.1942 346.218 94.0737 346.597 94.1453 346.95C94.2139 347.289 94.25 347.64 94.25 348C94.25 348.36 94.2139 348.711 94.1453 349.05C94.0737 349.403 94.1942 349.782 94.4887 350.026L95.0622 350.5L94.1962 352L93.4975 351.74C93.1391 351.607 92.7497 351.692 92.4795 351.931C91.9564 352.395 91.3409 352.755 90.6648 352.981C90.3227 353.095 90.0538 353.389 89.99 353.767L89.8662 354.5H88.1341L88.0103 353.767C87.9465 353.389 87.6776 353.095 87.3355 352.981C86.6593 352.755 86.0437 352.395 85.5206 351.931C85.2504 351.692 84.861 351.607 84.5026 351.74L83.804 352L82.938 350.5L83.5114 350.026C83.8059 349.782 83.9265 349.403 83.8548 349.05C83.7862 348.711 83.75 348.36 83.75 348C83.75 347.64 83.7862 347.289 83.8549 346.95C83.9265 346.597 83.8059 346.218 83.5114 345.974L82.938 345.5L83.8041 344L84.5027 344.26C84.8611 344.393 85.2504 344.308 85.5206 344.069C86.0437 343.605 86.6593 343.245 87.3355 343.019C87.6776 342.905 87.9465 342.611 88.0103 342.233ZM87.9228 340C87.3127 340 86.7918 340.44 86.6902 341.042L86.5796 341.697C85.9132 341.953 85.2981 342.312 84.7536 342.753L84.1292 342.52C83.5575 342.308 82.9157 342.539 82.6107 343.067L81.5333 344.933C81.2283 345.461 81.3492 346.133 81.8193 346.521L82.3321 346.945C82.278 347.289 82.25 347.642 82.25 348C82.25 348.358 82.278 348.711 82.3321 349.055L81.8193 349.479C81.3491 349.867 81.2282 350.539 81.5333 351.067L82.6106 352.933C82.9156 353.461 83.5574 353.692 84.1291 353.48L84.7535 353.247C85.2981 353.688 85.9132 354.047 86.5796 354.303L86.6902 354.958C86.7918 355.56 87.3127 356 87.9228 356H90.0775C90.6875 356 91.2085 355.56 91.31 354.958L91.4207 354.303C92.087 354.047 92.702 353.688 93.2466 353.247L93.871 353.48C94.4427 353.692 95.0846 353.461 95.3896 352.933L96.4669 351.067C96.7719 350.539 96.6511 349.867 96.1809 349.479L95.668 349.055C95.7221 348.711 95.75 348.358 95.75 348C95.75 347.642 95.7221 347.29 95.6681 346.946L96.1811 346.521C96.6512 346.133 96.7721 345.461 96.4671 344.933L95.3897 343.067C95.0847 342.539 94.4429 342.308 93.8712 342.52L93.2466 342.753C92.7021 342.312 92.0871 341.953 91.4207 341.697L91.31 341.042C91.2085 340.44 90.6875 340 90.0775 340H87.9228ZM86.75 348C86.75 346.757 87.7574 345.75 89 345.75C90.2427 345.75 91.25 346.757 91.25 348C91.25 349.243 90.2427 350.25 89 350.25C87.7574 350.25 86.75 349.243 86.75 348ZM89 344.25C86.929 344.25 85.25 345.929 85.25 348C85.25 350.071 86.929 351.75 89 351.75C91.0711 351.75 92.75 350.071 92.75 348C92.75 345.929 91.0711 344.25 89 344.25Z" fill="#737278"/>
<rect x="110" y="344" width="65" height="8" rx="2" fill="#A4A3A8"/>
</g>
<path d="M6.63281 15L9.72656 5.75781H9.8125L12.9141 15H15.1875L11.0938 3.35938H8.46094L4.35156 15H6.63281ZM6.70312 10.4297V12.1406H12.8281V10.4297H6.70312ZM19.5078 15.1641C20.9531 15.1641 21.6562 14.3203 22 13.6406H22.1094V15H24.1562V3.35938H22.0703V7.73438H21.9922C21.6562 7.07812 20.9844 6.21094 19.5 6.21094C17.4844 6.21094 15.9141 7.79688 15.9141 10.6797C15.9141 13.5156 17.4375 15.1641 19.5078 15.1641ZM20.0781 13.4531C18.7578 13.4531 18.0391 12.2969 18.0391 10.6719C18.0391 9.04688 18.7422 7.91406 20.0781 7.91406C21.3906 7.91406 22.1172 9 22.1172 10.6719C22.1172 12.3359 21.375 13.4531 20.0781 13.4531ZM26.2109 15H28.2969V9.74219C28.2969 8.67188 29.0078 7.96094 29.8906 7.96094C30.75 7.96094 31.3359 8.54688 31.3359 9.4375V15H33.3828V9.60938C33.3828 8.64062 33.9609 7.96094 34.9453 7.96094C35.7734 7.96094 36.4219 8.45312 36.4219 9.51562V15H38.5156V9.1875C38.5156 7.25 37.3828 6.21094 35.7812 6.21094C34.5156 6.21094 33.5391 6.84375 33.1562 7.8125H33.0703C32.75 6.82812 31.8984 6.21094 30.7188 6.21094C29.5547 6.21094 28.6641 6.82031 28.3047 7.8125H28.2031V6.32031H26.2109V15ZM40.5781 15H42.6562V6.32031H40.5781V15ZM41.6172 5.10156C42.2812 5.10156 42.8203 4.60156 42.8203 3.97656C42.8203 3.35156 42.2812 2.84375 41.6172 2.84375C40.9531 2.84375 40.4141 3.35156 40.4141 3.97656C40.4141 4.60156 40.9531 5.10156 41.6172 5.10156ZM46.7969 9.9375C46.7969 8.67969 47.5625 7.96875 48.6328 7.96875C49.6797 7.96875 50.3281 8.65625 50.3281 9.82031V15H52.4062V9.49219C52.4062 7.40625 51.1953 6.21094 49.4062 6.21094C48.0938 6.21094 47.2422 6.83594 46.8438 7.8125L46.7578 7.82031V6.32031H44.7109V15H46.7969V9.9375ZM59.9766 15L63.0703 5.75781H63.1562L66.2578 15H68.5312L64.4375 3.35938H61.8047L57.6953 15H59.9766ZM60.0469 10.4297V12.1406H66.1719V10.4297H60.0469ZM69.9141 15H72V9.94531C72 8.82031 72.8125 8.05469 73.9219 8.05469C74.2734 8.05469 74.7031 8.10938 74.8828 8.16406V6.26562C74.6953 6.23438 74.3828 6.21094 74.1484 6.21094C73.1484 6.21094 72.3359 6.77344 72.0156 7.78125H71.9297V6.32031H69.9141V15ZM79.7266 15.1797C81.75 15.1797 83.1641 14.1641 83.5156 12.6328L81.5703 12.4375C81.3047 13.1719 80.6406 13.5625 79.7578 13.5625C78.4297 13.5625 77.5547 12.6406 77.5547 11.0781V10.1172C77.5547 8.82812 78.3047 7.82812 79.6172 7.82812C80.9219 7.82812 81.6094 8.78906 81.6094 10.2422L82.5781 9.84375H76.4375V11.2344H83.6094V10.6016C83.6094 7.60938 81.7891 6.20312 79.6016 6.20312C77.1094 6.20312 75.4922 8.03906 75.4922 10.7109C75.4922 13.4219 77.1016 15.1797 79.7266 15.1797ZM87.7656 15.1797C89.125 15.1797 89.9297 14.5469 90.3125 13.8047H90.3906V15H92.3828V9.17188C92.3828 6.96094 90.5469 6.21094 88.8047 6.21094C86.9766 6.21094 85.5547 7.02344 85.1016 8.55469L87.0312 8.89844C87.2266 8.29688 87.8281 7.79688 88.8125 7.79688C89.7734 7.79688 90.3047 8.28125 90.3047 9.10156V9.14062C90.3047 9.73438 89.6875 9.76562 88.1562 9.92188C86.4531 10.1016 84.8516 10.6172 84.8516 12.5625C84.8516 14.2734 86.1016 15.1797 87.7656 15.1797ZM88.3047 13.6484C87.4609 13.6484 86.8594 13.2656 86.8594 12.5312C86.8594 11.7578 87.5391 11.4297 88.4453 11.2969C89.0078 11.2266 90.0469 11.0859 90.3125 10.8828V11.8828C90.3125 12.8438 89.5312 13.6484 88.3047 13.6484Z" fill="#535158"/>
<defs>
<clipPath id="clip0_16653_30419">
<rect width="16" height="16" fill="white" transform="translate(81 99)"/>
</clipPath>
<clipPath id="clip1_16653_30419">
<rect width="16" height="16" fill="white" transform="translate(81 131)"/>
</clipPath>
<clipPath id="clip2_16653_30419">
<rect width="16" height="16" fill="white" transform="translate(81 163)"/>
</clipPath>
<clipPath id="clip3_16653_30419">
<rect width="16" height="16" fill="white" transform="translate(81 195)"/>
</clipPath>
<clipPath id="clip4_16653_30419">
<rect width="16" height="16" fill="white" transform="translate(81 227)"/>
</clipPath>
<clipPath id="clip5_16653_30419">
<rect width="16" height="16" fill="white" transform="translate(81 259)"/>
</clipPath>
<clipPath id="clip6_16653_30419">
<rect width="16" height="16" fill="white" transform="translate(81 291)"/>
</clipPath>
</defs>
</svg>
