<svg width="317" height="331" viewBox="0 0 317 331" fill="none" xmlns="http://www.w3.org/2000/svg">
<line x1="1" y1="-1" x2="10" y2="-1" transform="matrix(1 4.53408e-09 -1.68562e-06 1 44 21)" stroke="#7B58CF" stroke-width="2" stroke-linecap="round"/>
<path d="M61 5H55V37H61" stroke="#7B58CF" stroke-width="2" stroke-linecap="round" stroke-linejoin="round"/>
<circle cx="20" cy="20" r="16" fill="#7B58CF"/>
<circle cx="20" cy="20" r="18" stroke="#7B58CF" stroke-opacity="0.3" stroke-width="4"/>
<path d="M19.9912 14.4424L18.1191 21.1572H21.8633L19.9912 14.4424ZM18.9189 12.8779H21.0723L25.0889 26H23.252L22.2852 22.5811H17.6885L16.7393 26H14.9023L18.9189 12.8779Z" fill="white"/>
<line x1="1" y1="-1" x2="10" y2="-1" transform="matrix(1 4.53408e-09 -1.68562e-06 1 44 312)" stroke="#7B58CF" stroke-width="2" stroke-linecap="round"/>
<path d="M61 296H55V328H61" stroke="#7B58CF" stroke-width="2" stroke-linecap="round" stroke-linejoin="round"/>
<circle cx="20" cy="311" r="16" fill="#7B58CF"/>
<circle cx="20" cy="311" r="18" stroke="#7B58CF" stroke-opacity="0.3" stroke-width="4"/>
<path d="M24.0078 316.534C23.5566 316.774 23.0938 316.953 22.6191 317.07C22.1445 317.193 21.6406 317.255 21.1074 317.255C19.4258 317.255 18.1191 316.66 17.1875 315.471C16.2617 314.281 15.7988 312.608 15.7988 310.452C15.7988 308.308 16.2646 306.638 17.1963 305.442C18.1338 304.241 19.4375 303.641 21.1074 303.641C21.6406 303.641 22.1445 303.702 22.6191 303.825C23.0938 303.942 23.5566 304.121 24.0078 304.361V306.181C23.5742 305.823 23.1084 305.551 22.6104 305.363C22.1123 305.176 21.6113 305.082 21.1074 305.082C19.9531 305.082 19.0889 305.527 18.5146 306.418C17.9404 307.309 17.6533 308.653 17.6533 310.452C17.6533 312.245 17.9404 313.587 18.5146 314.478C19.0889 315.368 19.9531 315.813 21.1074 315.813C21.623 315.813 22.127 315.72 22.6191 315.532C23.1172 315.345 23.5801 315.072 24.0078 314.715V316.534Z" fill="white"/>
<line x1="45" y1="167" x2="54" y2="167" stroke="#7B58CF" stroke-width="2" stroke-linecap="round"/>
<path d="M61 55H55V281H61" stroke="#7B58CF" stroke-width="2" stroke-linecap="round" stroke-linejoin="round"/>
<circle cx="20" cy="168" r="16" fill="#7B58CF"/>
<circle cx="20" cy="168" r="18" stroke="#7B58CF" stroke-opacity="0.3" stroke-width="4"/>
<path d="M17.8203 167.382V172.541H19.9209C20.9521 172.541 21.6875 172.362 22.127 172.005C22.5664 171.642 22.7861 171.047 22.7861 170.221C22.7861 169.131 22.5547 168.387 22.0918 167.988C21.6289 167.584 20.9053 167.382 19.9209 167.382H17.8203ZM17.8203 162.337V165.94H19.8857C20.7412 165.94 21.3594 165.776 21.7402 165.448C22.127 165.12 22.3203 164.707 22.3203 164.209C22.3203 163.547 22.1299 163.069 21.749 162.776C21.374 162.483 20.7529 162.337 19.8857 162.337H17.8203ZM16.0361 160.878H19.9209C21.2627 160.878 22.2969 161.168 23.0234 161.748C23.75 162.328 24.1133 163.148 24.1133 164.209C24.1133 164.777 23.9199 165.293 23.5332 165.756C23.1523 166.219 22.5781 166.509 21.8105 166.626C22.6719 166.755 23.3457 167.124 23.832 167.733C24.3242 168.337 24.5703 169.225 24.5703 170.396C24.5703 171.586 24.1807 172.485 23.4014 173.095C22.6221 173.698 21.4619 174 19.9209 174H16.0361V160.878Z" fill="white"/>
<g style="mix-blend-mode:multiply">
<rect x="69" y="5" width="248" height="32" rx="4" fill="#ECECEF"/>
<path fill-rule="evenodd" clip-rule="evenodd" d="M94.5 15.5L83.5 15.5V18L94.5 18V15.5ZM94.5 19.5H87.5V26.5H94.5V19.5ZM86 19.5H83.5V26.5H86V19.5ZM83.5 14H82V15.5V26.5V28H83.5H94.5H96V26.5V15.5V14H94.5L83.5 14Z" fill="#535158"/>
<path d="M73 10.5C73 9.67157 73.6716 9 74.5 9V9C75.3284 9 76 9.67157 76 10.5V31.5C76 32.3284 75.3284 33 74.5 33V33C73.6716 33 73 32.3284 73 31.5V10.5Z" fill="#1F75CB"/>
<rect x="110" y="17" width="89" height="8" rx="2" fill="#737278"/>
</g>
<rect x="81" y="45" width="224" height="1" fill="#ECECEF"/>
<g style="mix-blend-mode:multiply">
<g clip-path="url(#clip0_16653_30420)">
<path fill-rule="evenodd" clip-rule="evenodd" d="M82.5 66V64.5H87.1972L88.1972 66H82.5ZM81 66V64C81 63.4477 81.4477 63 82 63H87.4648C87.7992 63 88.1114 63.1671 88.2969 63.4453L89.9635 65.9453C89.9756 65.9634 89.987 65.9816 89.9977 66H96C96.5523 66 97 66.4477 97 67V75C97 75.5523 96.5523 76 96 76H82C81.4477 76 81 75.5523 81 75V67.5V66.5V66ZM82.5 67.5V74.5H95.5V67.5H89.1315H82.5Z" fill="#737278"/>
</g>
<rect x="110" y="66" width="43" height="8" rx="2" fill="#A4A3A8"/>
<path fill-rule="evenodd" clip-rule="evenodd" d="M293.22 68.2197C293.513 67.9268 293.987 67.9268 294.28 68.2197L297 70.9393L299.72 68.2197C300.013 67.9268 300.487 67.9268 300.78 68.2197C301.073 68.5126 301.073 68.9874 300.78 69.2803L297.53 72.5303C297.237 72.8232 296.763 72.8232 296.47 72.5303L293.22 69.2803C292.927 68.9874 292.927 68.5126 293.22 68.2197Z" fill="#737278"/>
</g>
<g style="mix-blend-mode:multiply">
<g clip-path="url(#clip1_16653_30420)">
<path fill-rule="evenodd" clip-rule="evenodd" d="M82.5 98V96.5H87.1972L88.1972 98H82.5ZM81 98V96C81 95.4477 81.4477 95 82 95H87.4648C87.7992 95 88.1114 95.1671 88.2969 95.4453L89.9635 97.9453C89.9756 97.9634 89.987 97.9816 89.9977 98H96C96.5523 98 97 98.4477 97 99V107C97 107.552 96.5523 108 96 108H82C81.4477 108 81 107.552 81 107V99.5V98.5V98ZM82.5 99.5V106.5H95.5V99.5H89.1315H82.5Z" fill="#737278"/>
</g>
<rect x="110" y="98" width="96" height="8" rx="2" fill="#A4A3A8"/>
<path fill-rule="evenodd" clip-rule="evenodd" d="M293.22 100.22C293.513 99.9268 293.987 99.9268 294.28 100.22L297 102.939L299.72 100.22C300.013 99.9268 300.487 99.9268 300.78 100.22C301.073 100.513 301.073 100.987 300.78 101.28L297.53 104.53C297.237 104.823 296.763 104.823 296.47 104.53L293.22 101.28C292.927 100.987 292.927 100.513 293.22 100.22Z" fill="#737278"/>
</g>
<g style="mix-blend-mode:multiply">
<g clip-path="url(#clip2_16653_30420)">
<path fill-rule="evenodd" clip-rule="evenodd" d="M82.5 130V128.5H87.1972L88.1972 130H82.5ZM81 130V128C81 127.448 81.4477 127 82 127H87.4648C87.7992 127 88.1114 127.167 88.2969 127.445L89.9635 129.945C89.9756 129.963 89.987 129.982 89.9977 130H96C96.5523 130 97 130.448 97 131V139C97 139.552 96.5523 140 96 140H82C81.4477 140 81 139.552 81 139V131.5V130.5V130ZM82.5 131.5V138.5H95.5V131.5H89.1315H82.5Z" fill="#737278"/>
</g>
<rect x="110" y="130" width="50" height="8" rx="2" fill="#A4A3A8"/>
<path fill-rule="evenodd" clip-rule="evenodd" d="M293.22 132.22C293.513 131.927 293.987 131.927 294.28 132.22L297 134.939L299.72 132.22C300.013 131.927 300.487 131.927 300.78 132.22C301.073 132.513 301.073 132.987 300.78 133.28L297.53 136.53C297.237 136.823 296.763 136.823 296.47 136.53L293.22 133.28C292.927 132.987 292.927 132.513 293.22 132.22Z" fill="#737278"/>
</g>
<g style="mix-blend-mode:multiply">
<g clip-path="url(#clip3_16653_30420)">
<path fill-rule="evenodd" clip-rule="evenodd" d="M82.5 162V160.5H87.1972L88.1972 162H82.5ZM81 162V160C81 159.448 81.4477 159 82 159H87.4648C87.7992 159 88.1114 159.167 88.2969 159.445L89.9635 161.945C89.9756 161.963 89.987 161.982 89.9977 162H96C96.5523 162 97 162.448 97 163V171C97 171.552 96.5523 172 96 172H82C81.4477 172 81 171.552 81 171V163.5V162.5V162ZM82.5 163.5V170.5H95.5V163.5H89.1315H82.5Z" fill="#737278"/>
</g>
<rect x="110" y="162" width="62" height="8" rx="2" fill="#A4A3A8"/>
<path fill-rule="evenodd" clip-rule="evenodd" d="M293.22 164.22C293.513 163.927 293.987 163.927 294.28 164.22L297 166.939L299.72 164.22C300.013 163.927 300.487 163.927 300.78 164.22C301.073 164.513 301.073 164.987 300.78 165.28L297.53 168.53C297.237 168.823 296.763 168.823 296.47 168.53L293.22 165.28C292.927 164.987 292.927 164.513 293.22 164.22Z" fill="#737278"/>
</g>
<g style="mix-blend-mode:multiply">
<g clip-path="url(#clip4_16653_30420)">
<path fill-rule="evenodd" clip-rule="evenodd" d="M82.5 194V192.5H87.1972L88.1972 194H82.5ZM81 194V192C81 191.448 81.4477 191 82 191H87.4648C87.7992 191 88.1114 191.167 88.2969 191.445L89.9635 193.945C89.9756 193.963 89.987 193.982 89.9977 194H96C96.5523 194 97 194.448 97 195V203C97 203.552 96.5523 204 96 204H82C81.4477 204 81 203.552 81 203V195.5V194.5V194ZM82.5 195.5V202.5H95.5V195.5H89.1315H82.5Z" fill="#737278"/>
</g>
<rect x="110" y="194" width="89" height="8" rx="2" fill="#A4A3A8"/>
<path fill-rule="evenodd" clip-rule="evenodd" d="M293.22 196.22C293.513 195.927 293.987 195.927 294.28 196.22L297 198.939L299.72 196.22C300.013 195.927 300.487 195.927 300.78 196.22C301.073 196.513 301.073 196.987 300.78 197.28L297.53 200.53C297.237 200.823 296.763 200.823 296.47 200.53L293.22 197.28C292.927 196.987 292.927 196.513 293.22 196.22Z" fill="#737278"/>
</g>
<g style="mix-blend-mode:multiply">
<g clip-path="url(#clip5_16653_30420)">
<path fill-rule="evenodd" clip-rule="evenodd" d="M82.5 226V224.5H87.1972L88.1972 226H82.5ZM81 226V224C81 223.448 81.4477 223 82 223H87.4648C87.7992 223 88.1114 223.167 88.2969 223.445L89.9635 225.945C89.9756 225.963 89.987 225.982 89.9977 226H96C96.5523 226 97 226.448 97 227V235C97 235.552 96.5523 236 96 236H82C81.4477 236 81 235.552 81 235V227.5V226.5V226ZM82.5 227.5V234.5H95.5V227.5H89.1315H82.5Z" fill="#737278"/>
</g>
<rect x="110" y="226" width="67" height="8" rx="2" fill="#A4A3A8"/>
<path fill-rule="evenodd" clip-rule="evenodd" d="M293.22 228.22C293.513 227.927 293.987 227.927 294.28 228.22L297 230.939L299.72 228.22C300.013 227.927 300.487 227.927 300.78 228.22C301.073 228.513 301.073 228.987 300.78 229.28L297.53 232.53C297.237 232.823 296.763 232.823 296.47 232.53L293.22 229.28C292.927 228.987 292.927 228.513 293.22 228.22Z" fill="#737278"/>
</g>
<g style="mix-blend-mode:multiply">
<g clip-path="url(#clip6_16653_30420)">
<path fill-rule="evenodd" clip-rule="evenodd" d="M82.5 258V256.5H87.1972L88.1972 258H82.5ZM81 258V256C81 255.448 81.4477 255 82 255H87.4648C87.7992 255 88.1114 255.167 88.2969 255.445L89.9635 257.945C89.9756 257.963 89.987 257.982 89.9977 258H96C96.5523 258 97 258.448 97 259V267C97 267.552 96.5523 268 96 268H82C81.4477 268 81 267.552 81 267V259.5V258.5V258ZM82.5 259.5V266.5H95.5V259.5H89.1315H82.5Z" fill="#737278"/>
</g>
<rect x="110" y="258" width="89" height="8" rx="2" fill="#A4A3A8"/>
<path fill-rule="evenodd" clip-rule="evenodd" d="M293.22 260.22C293.513 259.927 293.987 259.927 294.28 260.22L297 262.939L299.72 260.22C300.013 259.927 300.487 259.927 300.78 260.22C301.073 260.513 301.073 260.987 300.78 261.28L297.53 264.53C297.237 264.823 296.763 264.823 296.47 264.53L293.22 261.28C292.927 260.987 292.927 260.513 293.22 260.22Z" fill="#737278"/>
</g>
<rect x="81" y="286" width="224" height="1" fill="#ECECEF"/>
<g style="mix-blend-mode:multiply">
<path fill-rule="evenodd" clip-rule="evenodd" d="M88.0103 305.233L88.1341 304.5H89.8662L89.99 305.233C90.0538 305.611 90.3227 305.905 90.6648 306.019C91.3409 306.245 91.9565 306.605 92.4796 307.069C92.7497 307.308 93.1391 307.393 93.4975 307.26L94.1964 307L95.0624 308.5L94.4887 308.974C94.1942 309.218 94.0737 309.597 94.1453 309.95C94.2139 310.289 94.25 310.64 94.25 311C94.25 311.36 94.2139 311.711 94.1453 312.05C94.0737 312.403 94.1942 312.782 94.4887 313.026L95.0622 313.5L94.1962 315L93.4975 314.74C93.1391 314.607 92.7497 314.692 92.4795 314.931C91.9564 315.395 91.3409 315.755 90.6648 315.981C90.3227 316.095 90.0538 316.389 89.99 316.767L89.8662 317.5H88.1341L88.0103 316.767C87.9465 316.389 87.6776 316.095 87.3355 315.981C86.6593 315.755 86.0437 315.395 85.5206 314.931C85.2504 314.692 84.861 314.607 84.5026 314.74L83.804 315L82.938 313.5L83.5114 313.026C83.8059 312.782 83.9265 312.403 83.8548 312.05C83.7862 311.711 83.75 311.36 83.75 311C83.75 310.64 83.7862 310.289 83.8549 309.95C83.9265 309.597 83.8059 309.218 83.5114 308.974L82.938 308.5L83.8041 307L84.5027 307.26C84.8611 307.393 85.2504 307.308 85.5206 307.069C86.0437 306.605 86.6593 306.245 87.3355 306.019C87.6776 305.905 87.9465 305.611 88.0103 305.233ZM87.9228 303C87.3127 303 86.7918 303.44 86.6902 304.042L86.5796 304.697C85.9132 304.953 85.2981 305.312 84.7536 305.753L84.1292 305.52C83.5575 305.308 82.9157 305.539 82.6107 306.067L81.5333 307.933C81.2283 308.461 81.3492 309.133 81.8193 309.521L82.3321 309.945C82.278 310.289 82.25 310.642 82.25 311C82.25 311.358 82.278 311.711 82.3321 312.055L81.8193 312.479C81.3491 312.867 81.2282 313.539 81.5333 314.067L82.6106 315.933C82.9156 316.461 83.5574 316.692 84.1291 316.48L84.7535 316.247C85.2981 316.688 85.9132 317.047 86.5796 317.303L86.6902 317.958C86.7918 318.56 87.3127 319 87.9228 319H90.0775C90.6875 319 91.2085 318.56 91.31 317.958L91.4207 317.303C92.087 317.047 92.702 316.688 93.2466 316.247L93.871 316.48C94.4427 316.692 95.0846 316.461 95.3896 315.933L96.4669 314.067C96.7719 313.539 96.6511 312.867 96.1809 312.479L95.668 312.055C95.7221 311.711 95.75 311.358 95.75 311C95.75 310.642 95.7221 310.29 95.6681 309.946L96.1811 309.521C96.6512 309.133 96.7721 308.461 96.4671 307.933L95.3897 306.067C95.0847 305.539 94.4429 305.308 93.8712 305.52L93.2466 305.753C92.7021 305.312 92.0871 304.953 91.4207 304.697L91.31 304.042C91.2085 303.44 90.6875 303 90.0775 303H87.9228ZM86.75 311C86.75 309.757 87.7574 308.75 89 308.75C90.2427 308.75 91.25 309.757 91.25 311C91.25 312.243 90.2427 313.25 89 313.25C87.7574 313.25 86.75 312.243 86.75 311ZM89 307.25C86.929 307.25 85.25 308.929 85.25 311C85.25 313.071 86.929 314.75 89 314.75C91.0711 314.75 92.75 313.071 92.75 311C92.75 308.929 91.0711 307.25 89 307.25Z" fill="#737278"/>
<rect x="110" y="307" width="65" height="8" rx="2" fill="#A4A3A8"/>
</g>
<defs>
<clipPath id="clip0_16653_30420">
<rect width="16" height="16" fill="white" transform="translate(81 62)"/>
</clipPath>
<clipPath id="clip1_16653_30420">
<rect width="16" height="16" fill="white" transform="translate(81 94)"/>
</clipPath>
<clipPath id="clip2_16653_30420">
<rect width="16" height="16" fill="white" transform="translate(81 126)"/>
</clipPath>
<clipPath id="clip3_16653_30420">
<rect width="16" height="16" fill="white" transform="translate(81 158)"/>
</clipPath>
<clipPath id="clip4_16653_30420">
<rect width="16" height="16" fill="white" transform="translate(81 190)"/>
</clipPath>
<clipPath id="clip5_16653_30420">
<rect width="16" height="16" fill="white" transform="translate(81 222)"/>
</clipPath>
<clipPath id="clip6_16653_30420">
<rect width="16" height="16" fill="white" transform="translate(81 254)"/>
</clipPath>
</defs>
</svg>
