<svg xmlns="http://www.w3.org/2000/svg" width="172" height="32" fill="none"><rect width="171" height="31" x=".5" y=".5" fill="#fff" rx="3.5"/><rect width="171" height="31" x=".5" y=".5" stroke="#BFBFC3" rx="3.5"/><path fill="#303030" d="M16.491 21.178c-2.208 0-3.582-1.135-3.698-2.844h1.333c.103 1.155 1.169 1.682 2.365 1.682 1.381 0 2.434-.725 2.434-1.812 0-.984-.93-1.347-2.017-1.654l-1.23-.349c-1.64-.465-2.598-1.306-2.598-2.659 0-1.723 1.531-2.864 3.5-2.864 2.01 0 3.411 1.169 3.473 2.707H18.78c-.116-.991-1.032-1.559-2.242-1.559-1.32 0-2.194.697-2.194 1.654 0 1.067 1.196 1.443 1.941 1.648l1.019.28c1.093.301 2.884.916 2.884 2.817 0 1.668-1.346 2.953-3.698 2.953Zm8.162-.082c-1.545 0-2.59-.95-2.59-2.885v-4.854h1.23v4.751c0 1.176.663 1.88 1.73 1.88 1.093 0 1.92-.745 1.92-2.05v-4.58h1.238V21h-1.19v-1.852h.164c-.471 1.435-1.38 1.948-2.502 1.948ZM30.348 21v-7.643h1.196l.007 1.71h-.096c.308-1.238 1.244-1.846 2.235-1.846 1.108 0 1.812.752 2.017 1.86h-.164c.273-1.143 1.285-1.86 2.502-1.86 1.326 0 2.406.854 2.406 2.625V21h-1.237v-5.12c0-1.1-.718-1.538-1.538-1.538-1.032 0-1.661.704-1.661 1.668V21h-1.23v-5.243c0-.848-.637-1.415-1.498-1.415-.895 0-1.709.629-1.709 1.845V21h-1.23Zm12.263 0v-7.643h1.197l.007 1.71h-.096c.307-1.238 1.244-1.846 2.235-1.846 1.108 0 1.812.752 2.017 1.86h-.164c.273-1.143 1.285-1.86 2.502-1.86 1.326 0 2.406.854 2.406 2.625V21h-1.238v-5.12c0-1.1-.717-1.538-1.537-1.538-1.033 0-1.662.704-1.662 1.668V21h-1.23v-5.243c0-.848-.636-1.415-1.497-1.415-.896 0-1.71.629-1.71 1.845V21h-1.23Zm14.404.178c-1.45 0-2.605-.848-2.605-2.352 0-1.75 1.559-2.071 2.974-2.249 1.36-.17 1.962-.13 1.962-.697v-.041c0-.95-.54-1.497-1.6-1.497-1.1 0-1.695.588-1.934 1.12l-1.183-.389c.588-1.388 1.9-1.811 3.083-1.811 1.025 0 2.864.314 2.864 2.7V21h-1.21v-1.04h-.082c-.26.541-.977 1.218-2.27 1.218Zm.212-1.087c1.36 0 2.119-.916 2.119-1.853v-1.06c-.205.24-1.545.377-2.017.438-.895.116-1.681.404-1.681 1.272 0 .793.662 1.203 1.579 1.203Zm5.51.909v-7.643h1.189v1.176h.082c.28-.772 1.073-1.285 1.982-1.285.178 0 .479.014.622.02v1.238a4.646 4.646 0 0 0-.738-.069c-1.1 0-1.907.746-1.907 1.778V21h-1.23Zm5.495 0v-7.643h1.23V21h-1.23Zm.623-8.894c-.465 0-.855-.362-.855-.813 0-.451.39-.813.855-.813.471 0 .86.362.86.813 0 .451-.389.813-.86.813ZM71.404 21v-.916l4.285-5.51V14.5h-4.149v-1.142h5.735v.978l-4.163 5.448v.075h4.3V21h-6.009Zm10.964.164c-2.215 0-3.582-1.572-3.582-3.924 0-2.344 1.354-3.978 3.439-3.978 1.62 0 3.329.998 3.329 3.821v.513H79.62v-1.04h5.27l-.574.383c0-1.504-.71-2.584-2.091-2.584-1.381 0-2.195 1.142-2.195 2.386v.69c0 1.703.944 2.64 2.345 2.64.902 0 1.58-.397 1.866-1.177l1.19.329c-.356 1.155-1.497 1.941-3.063 1.941Zm11.997 0c-2.078 0-3.48-1.579-3.48-3.937 0-2.393 1.402-3.965 3.48-3.965 1.477 0 2.68.779 3.097 2.112l-1.183.335c-.225-.786-.909-1.347-1.914-1.347-1.524 0-2.228 1.34-2.228 2.865 0 1.503.704 2.837 2.228 2.837 1.026 0 1.723-.582 1.948-1.409l1.176.335c-.41 1.36-1.627 2.174-3.124 2.174Zm7.998 0c-2.078 0-3.48-1.579-3.48-3.937 0-2.393 1.402-3.965 3.48-3.965 2.085 0 3.493 1.572 3.493 3.965 0 2.358-1.408 3.937-3.493 3.937Zm0-1.1c1.545 0 2.249-1.334 2.249-2.837 0-1.518-.704-2.865-2.249-2.865-1.524 0-2.228 1.34-2.228 2.865 0 1.503.704 2.837 2.228 2.837Zm5.284.936v-7.643h1.197l.007 1.71h-.096c.307-1.238 1.244-1.846 2.235-1.846 1.108 0 1.812.752 2.017 1.86h-.164c.273-1.143 1.285-1.86 2.502-1.86 1.326 0 2.406.854 2.406 2.625V21h-1.237v-5.12c0-1.1-.718-1.538-1.538-1.538-1.033 0-1.662.704-1.662 1.668V21h-1.23v-5.243c0-.848-.636-1.415-1.497-1.415-.896 0-1.709.629-1.709 1.845V21h-1.231Zm12.264 0v-7.643h1.196l.007 1.71h-.095c.307-1.238 1.244-1.846 2.235-1.846 1.107 0 1.811.752 2.016 1.86h-.164c.274-1.143 1.286-1.86 2.502-1.86 1.327 0 2.407.854 2.407 2.625V21h-1.238v-5.12c0-1.1-.717-1.538-1.538-1.538-1.032 0-1.661.704-1.661 1.668V21h-1.23v-5.243c0-.848-.636-1.415-1.497-1.415-.896 0-1.709.629-1.709 1.845V21h-1.231Zm15.477.164c-2.215 0-3.582-1.572-3.582-3.924 0-2.344 1.353-3.978 3.438-3.978 1.62 0 3.329.998 3.329 3.821v.513h-5.933v-1.04h5.27l-.574.383c0-1.504-.711-2.584-2.092-2.584-1.381 0-2.194 1.142-2.194 2.386v.69c0 1.703.943 2.64 2.345 2.64.902 0 1.579-.397 1.866-1.177l1.189.329c-.355 1.155-1.497 1.941-3.062 1.941Zm6.179-4.744V21h-1.23v-7.643h1.183l.006 1.853h-.171c.465-1.408 1.354-1.948 2.509-1.948 1.545 0 2.591.95 2.591 2.884V21h-1.237v-4.751c0-1.176-.657-1.88-1.723-1.88-1.1 0-1.928.745-1.928 2.05Zm10.063-3.063v1.053h-3.951v-1.053h3.951Zm-2.803-1.818h1.231v7.479c0 .683.253.984.902.984.157 0 .424-.041.629-.082l.253 1.039a2.964 2.964 0 0 1-.916.137c-1.32 0-2.099-.732-2.099-1.983V11.54Zm6.836 9.625c-1.572 0-2.666-.697-2.939-2.017l1.169-.28c.218.841.84 1.217 1.756 1.217 1.067 0 1.75-.526 1.75-1.155 0-.527-.369-.875-1.121-1.053l-1.271-.3c-1.388-.329-2.051-1.012-2.051-2.086 0-1.312 1.203-2.228 2.83-2.228 1.572 0 2.4.765 2.748 1.839l-1.114.287c-.212-.547-.643-1.08-1.627-1.08-.909 0-1.593.471-1.593 1.107 0 .567.39.882 1.285 1.094l1.156.273c1.387.328 2.037 1.019 2.037 2.065 0 1.34-1.224 2.317-3.015 2.317Z"/></svg>