<svg xmlns="http://www.w3.org/2000/svg" width="301" height="32" fill="none"><rect width="300" height="31" x=".5" y=".5" fill="#fff" rx="3.5"/><rect width="300" height="31" x=".5" y=".5" stroke="#BFBFC3" rx="3.5"/><g clip-path="url(#a)"><g clip-path="url(#b)"><path fill="#737278" fill-rule="evenodd" d="M14.75 8.75a.75.75 0 0 0-1.5 0v.5h-.5a.75.75 0 0 0 0 1.5h.5v.5a.75.75 0 0 0 1.5 0v-.5h.5a.75.75 0 0 0 0-1.5h-.5v-.5Zm11.645 6.118-.014-.038-.55-1.44-.172.53-.337 1.036h-6.644l-.337-1.037-.171-.528-.551 1.445-.004.01-.004.01-.012.03a1.557 1.557 0 0 0 .512 1.78l.001.001.003.003.01.007.01.009.004.002 2.474 1.862.005.004 1.232.935.147.112.147-.112 1.233-.935.006-.004 2.49-1.873.006-.004.009-.006a1.558 1.558 0 0 0 .51-1.79l-.003-.009Zm.391 3-2.502 1.88-1.233.936-.748.569a.505.505 0 0 1-.61 0l-.75-.569-1.232-.935-2.485-1.87-.014-.011-.006-.005a3.058 3.058 0 0 1-1.006-3.52l.017-.042 1.214-3.181.068-.178.043-.114.173-.453.017-.045.118-.308a.425.425 0 0 1 .356-.27.43.43 0 0 1 .46.314l.099.305.004.012.193.595.06.181.746 2.296h4.464l.747-2.296.06-.18.193-.595.004-.013.099-.305a.433.433 0 0 1 .648-.248c.076.049.135.12.168.204l.116.305.019.048.171.45.045.117.068.177 1.214 3.181.016.044a3.057 3.057 0 0 1-1.007 3.518l-.007.006ZM15.5 19a.75.75 0 0 1 .75.75v1h1a.75.75 0 0 1 0 1.5h-1v1a.75.75 0 0 1-1.5 0v-1h-1a.75.75 0 0 1 0-1.5h1v-1a.75.75 0 0 1 .75-.75Z" clip-rule="evenodd"/></g></g><path fill="#303030" d="M36.491 21.178c-2.208 0-3.582-1.135-3.698-2.844h1.333c.102 1.155 1.169 1.682 2.365 1.682 1.381 0 2.434-.725 2.434-1.812 0-.984-.93-1.347-2.017-1.654l-1.23-.349c-1.64-.465-2.598-1.306-2.598-2.659 0-1.723 1.531-2.864 3.5-2.864 2.01 0 3.411 1.169 3.473 2.707H38.78c-.116-.991-1.032-1.559-2.242-1.559-1.32 0-2.194.697-2.194 1.654 0 1.067 1.196 1.443 1.941 1.648l1.019.28c1.093.301 2.885.916 2.885 2.817 0 1.668-1.347 2.953-3.699 2.953Zm8.162-.082c-1.545 0-2.59-.95-2.59-2.885v-4.854h1.23v4.751c0 1.176.663 1.88 1.73 1.88 1.093 0 1.92-.745 1.92-2.05v-4.58h1.238V21h-1.19v-1.852h.164c-.471 1.435-1.38 1.948-2.502 1.948ZM50.348 21v-7.643h1.196l.007 1.71h-.096c.308-1.238 1.244-1.846 2.235-1.846 1.108 0 1.812.752 2.017 1.86h-.164c.273-1.143 1.285-1.86 2.502-1.86 1.326 0 2.406.854 2.406 2.625V21h-1.237v-5.12c0-1.1-.718-1.538-1.538-1.538-1.032 0-1.661.704-1.661 1.668V21h-1.23v-5.243c0-.848-.637-1.415-1.498-1.415-.895 0-1.709.629-1.709 1.845V21h-1.23Zm12.263 0v-7.643h1.197l.007 1.71h-.096c.307-1.238 1.244-1.846 2.235-1.846 1.108 0 1.812.752 2.017 1.86h-.164c.273-1.143 1.285-1.86 2.502-1.86 1.326 0 2.406.854 2.406 2.625V21h-1.237v-5.12c0-1.1-.718-1.538-1.538-1.538-1.033 0-1.662.704-1.662 1.668V21h-1.23v-5.243c0-.848-.636-1.415-1.497-1.415-.896 0-1.71.629-1.71 1.845V21h-1.23Zm14.404.178c-1.45 0-2.605-.848-2.605-2.352 0-1.75 1.559-2.071 2.974-2.249 1.36-.17 1.962-.13 1.962-.697v-.041c0-.95-.54-1.497-1.6-1.497-1.1 0-1.695.588-1.934 1.12l-1.183-.389c.588-1.388 1.9-1.811 3.083-1.811 1.025 0 2.864.314 2.864 2.7V21h-1.21v-1.04h-.082c-.26.541-.977 1.218-2.27 1.218Zm.212-1.087c1.36 0 2.119-.916 2.119-1.853v-1.06c-.205.24-1.545.377-2.017.438-.895.116-1.681.404-1.681 1.272 0 .793.663 1.203 1.579 1.203Zm5.51.909v-7.643h1.189v1.176h.082c.28-.772 1.073-1.285 1.982-1.285.178 0 .479.014.622.02v1.238a4.646 4.646 0 0 0-.738-.069c-1.1 0-1.907.746-1.907 1.778V21h-1.23Zm5.495 0v-7.643h1.23V21h-1.23Zm.623-8.894c-.465 0-.855-.362-.855-.813 0-.451.39-.813.855-.813.471 0 .86.362.86.813 0 .451-.389.813-.86.813ZM91.404 21v-.916l4.285-5.51V14.5h-4.149v-1.142h5.735v.978l-4.163 5.448v.075h4.3V21h-6.009Zm10.964.164c-2.215 0-3.582-1.572-3.582-3.924 0-2.344 1.354-3.978 3.439-3.978 1.62 0 3.329.998 3.329 3.821v.513h-5.934v-1.04h5.271l-.575.383c0-1.504-.711-2.584-2.091-2.584-1.381 0-2.195 1.142-2.195 2.386v.69c0 1.703.944 2.64 2.345 2.64.902 0 1.579-.397 1.866-1.177l1.19.329c-.356 1.155-1.497 1.941-3.063 1.941Zm11.997 0c-2.078 0-3.479-1.579-3.479-3.937 0-2.393 1.401-3.965 3.479-3.965 1.477 0 2.68.779 3.097 2.112l-1.183.335c-.225-.786-.909-1.347-1.914-1.347-1.524 0-2.228 1.34-2.228 2.865 0 1.503.704 2.837 2.228 2.837 1.026 0 1.723-.582 1.948-1.409l1.176.335c-.41 1.36-1.627 2.174-3.124 2.174Zm7.998 0c-2.078 0-3.479-1.579-3.479-3.937 0-2.393 1.401-3.965 3.479-3.965 2.085 0 3.493 1.572 3.493 3.965 0 2.358-1.408 3.937-3.493 3.937Zm0-1.1c1.545 0 2.249-1.334 2.249-2.837 0-1.518-.704-2.865-2.249-2.865-1.524 0-2.228 1.34-2.228 2.865 0 1.503.704 2.837 2.228 2.837Zm5.284.936v-7.643h1.197l.007 1.71h-.096c.307-1.238 1.244-1.846 2.235-1.846 1.108 0 1.812.752 2.017 1.86h-.164c.273-1.143 1.285-1.86 2.502-1.86 1.326 0 2.406.854 2.406 2.625V21h-1.237v-5.12c0-1.1-.718-1.538-1.538-1.538-1.033 0-1.662.704-1.662 1.668V21h-1.23v-5.243c0-.848-.636-1.415-1.497-1.415-.896 0-1.709.629-1.709 1.845V21h-1.231Zm12.264 0v-7.643h1.196l.007 1.71h-.095c.307-1.238 1.244-1.846 2.235-1.846 1.107 0 1.811.752 2.016 1.86h-.164c.274-1.143 1.286-1.86 2.502-1.86 1.327 0 2.407.854 2.407 2.625V21h-1.238v-5.12c0-1.1-.717-1.538-1.538-1.538-1.032 0-1.661.704-1.661 1.668V21h-1.23v-5.243c0-.848-.636-1.415-1.497-1.415-.896 0-1.709.629-1.709 1.845V21h-1.231Zm15.477.164c-2.215 0-3.582-1.572-3.582-3.924 0-2.344 1.353-3.978 3.438-3.978 1.62 0 3.329.998 3.329 3.821v.513h-5.933v-1.04h5.27l-.574.383c0-1.504-.711-2.584-2.092-2.584-1.381 0-2.194 1.142-2.194 2.386v.69c0 1.703.943 2.64 2.345 2.64.902 0 1.579-.397 1.866-1.177l1.189.329c-.355 1.155-1.497 1.941-3.062 1.941Zm6.179-4.744V21h-1.23v-7.643h1.183l.006 1.853h-.171c.465-1.408 1.354-1.948 2.509-1.948 1.545 0 2.591.95 2.591 2.884V21h-1.237v-4.751c0-1.176-.657-1.88-1.723-1.88-1.1 0-1.928.745-1.928 2.05Zm10.063-3.063v1.053h-3.951v-1.053h3.951Zm-2.803-1.818h1.231v7.479c0 .683.253.984.902.984.157 0 .424-.041.629-.082l.253 1.039a2.964 2.964 0 0 1-.916.137c-1.32 0-2.099-.732-2.099-1.983V11.54Zm6.836 9.625c-1.572 0-2.666-.697-2.939-2.017l1.169-.28c.218.841.84 1.217 1.756 1.217 1.067 0 1.75-.526 1.75-1.155 0-.527-.369-.875-1.121-1.053l-1.271-.3c-1.388-.329-2.051-1.012-2.051-2.086 0-1.312 1.203-2.228 2.83-2.228 1.572 0 2.4.765 2.748 1.839l-1.114.287c-.212-.547-.643-1.08-1.627-1.08-.909 0-1.593.471-1.593 1.107 0 .567.39.882 1.285 1.094l1.156.273c1.387.328 2.037 1.019 2.037 2.065 0 1.34-1.224 2.317-3.015 2.317ZM186.116 21l-2.317-7.643h1.305l.93 3.336c.253.91.554 2.051.841 3.507h-.212c.274-1.394.561-2.536.827-3.507l.916-3.336h1.313l.902 3.336c.253.937.54 2.078.814 3.507h-.219a49.38 49.38 0 0 1 .847-3.507l.93-3.336h1.306L191.981 21h-1.223l-.991-3.459a71.977 71.977 0 0 1-.855-3.363h.274a71.07 71.07 0 0 1-.855 3.363L187.34 21h-1.224Zm9.741 0v-7.643h1.231V21h-1.231Zm.622-8.894c-.464 0-.854-.362-.854-.813 0-.451.39-.813.854-.813.472 0 .862.362.862.813 0 .451-.39.813-.862.813Zm5.777 1.251v1.053h-3.951v-1.053h3.951Zm-2.803-1.818h1.231v7.479c0 .683.253.984.902.984.157 0 .424-.041.629-.082l.253 1.039a2.964 2.964 0 0 1-.916.137c-1.32 0-2.099-.732-2.099-1.983V11.54Zm5.606 4.88V21h-1.231V10.815h1.231v4.395h-.212c.465-1.408 1.353-1.948 2.508-1.948 1.545 0 2.591.95 2.591 2.884V21h-1.237v-4.751c0-1.176-.656-1.88-1.723-1.88-1.1 0-1.927.745-1.927 2.05Zm15.305 4.718c-2.72 0-4.559-2.003-4.559-5.223 0-3.233 1.866-5.236 4.477-5.236 2.154 0 3.815 1.353 4.184 3.329h-1.34c-.417-1.306-1.395-2.126-2.837-2.126-1.791 0-3.22 1.415-3.22 4.033 0 2.598 1.422 4.02 3.295 4.02 1.723 0 2.906-1.163 2.906-2.995l.389.076h-3.028V15.88h3.91v1.114c0 2.53-1.75 4.143-4.177 4.143Zm6.132-.137v-7.643h1.231V21h-1.231Zm.622-8.894c-.465 0-.854-.362-.854-.813 0-.451.389-.813.854-.813.472 0 .861.362.861.813 0 .451-.389.813-.861.813Zm5.777 1.251v1.053h-3.952v-1.053h3.952Zm-2.803-1.818h1.23v7.479c0 .683.253.984.903.984a3.9 3.9 0 0 0 .629-.082l.252 1.039a2.954 2.954 0 0 1-.916.137c-1.319 0-2.098-.732-2.098-1.983V11.54ZM234.617 21V10.815h1.299v9.037h4.717V21h-6.016Zm9.905.178c-1.449 0-2.604-.848-2.604-2.352 0-1.75 1.559-2.071 2.974-2.249 1.36-.17 1.962-.13 1.962-.697v-.041c0-.95-.541-1.497-1.6-1.497-1.101 0-1.695.588-1.935 1.12l-1.182-.389c.588-1.388 1.9-1.811 3.083-1.811 1.025 0 2.864.314 2.864 2.7V21h-1.21v-1.04h-.082c-.26.541-.978 1.218-2.27 1.218Zm.212-1.087c1.361 0 2.12-.916 2.12-1.853v-1.06c-.206.24-1.545.377-2.017.438-.896.116-1.682.404-1.682 1.272 0 .793.663 1.203 1.579 1.203Zm9.058 1.073c-1.456 0-1.969-.923-2.222-1.347h-.136V21h-1.19V10.815h1.231v3.766h.095c.253-.403.725-1.32 2.215-1.32 1.907 0 3.24 1.518 3.24 3.938 0 2.434-1.326 3.965-3.233 3.965Zm-.185-1.1c1.429 0 2.167-1.272 2.167-2.878 0-1.586-.717-2.824-2.167-2.824-1.408 0-2.146 1.135-2.146 2.824 0 1.702.759 2.878 2.146 2.878Zm12.476.936h-2.461v-1.148h2.379c2.481 0 3.685-1.49 3.685-3.965 0-2.447-1.204-3.924-3.562-3.924h-2.557v-1.148h2.646c2.974 0 4.73 1.914 4.73 5.072 0 3.185-1.756 5.113-4.86 5.113Zm-1.88-10.185V21h-1.299V10.815h1.299Zm11.245 10.28c-1.545 0-2.591-.95-2.591-2.884v-4.854h1.231v4.751c0 1.176.663 1.88 1.729 1.88 1.094 0 1.921-.745 1.921-2.05v-4.58h1.238V21h-1.19v-1.852h.164c-.471 1.435-1.381 1.948-2.502 1.948Zm8.805.07c-2.078 0-3.48-1.58-3.48-3.938 0-2.393 1.402-3.965 3.48-3.965 2.085 0 3.493 1.572 3.493 3.965 0 2.358-1.408 3.937-3.493 3.937Zm0-1.101c1.545 0 2.249-1.334 2.249-2.837 0-1.518-.704-2.865-2.249-2.865-1.524 0-2.229 1.34-2.229 2.865 0 1.503.705 2.837 2.229 2.837Z"/><defs><clipPath id="a"><path fill="#fff" d="M8 8h20v16H8z"/></clipPath><clipPath id="b"><path fill="#fff" d="M12 8h16v16H12z"/></clipPath></defs></svg>