<svg width="296" height="194" fill="none" xmlns="http://www.w3.org/2000/svg"><g clip-path="url(#Desktop__a)"><path fill="#fff" d="M0 0h296v194H0z"/><g clip-path="url(#Desktop__b)"><mask id="Desktop__c" fill="#fff"><path d="M46 10h204v184H46V10Z"/></mask><rect x="62" y="14" width="49" height="10" rx="4" fill="#DCDCDE"/><rect x="62" y="28" width="81" height="5" rx="2.5" fill="#DCDCDE"/><rect x="182.5" y="14.5" width="24" height="9" rx="1.5" fill="#fff" stroke="#DCDCDE"/><rect x="209.5" y="14.5" width="24" height="9" rx="1.5" fill="#1F75CB" stroke="#0B5CAD"/><rect x="62" y="41" width="172" height="38" rx="4" fill="#DCDCDE"/><path fill="#FCF1EF" d="M62.5 85.5h171v25h-171z"/><path stroke="#AE1800" stroke-dasharray="4 4" d="M62.5 85.5h171v25h-171z"/><path d="M123.76 102v-.984h1.788v-6.792h-1.788v-.984h4.68v.984h-1.788v6.792h1.788V102h-4.68Zm7.039 0v-6.6h1.08v1.26h.228l-.228.252c0-.52.156-.92.468-1.2.312-.288.744-.432 1.296-.432.664 0 1.192.204 1.584.612.392.408.588.964.588 1.668V102h-1.08v-4.248c0-.504-.128-.888-.384-1.152-.248-.272-.588-.408-1.02-.408-.448 0-.804.14-1.068.42-.256.28-.384.676-.384 1.188v4.2h-1.08Zm7.772-3.48v-.96h3.84v.96h-3.84Zm6.619 5.64V95.4h1.08v1.26h.216l-.216.252c0-.504.164-.9.492-1.188.328-.296.764-.444 1.308-.444.44 0 .82.1 1.14.3.328.192.58.472.756.84.184.368.276.804.276 1.308v1.932c0 .504-.088.94-.264 1.308a1.962 1.962 0 0 1-.756.852c-.32.2-.704.3-1.152.3-.536 0-.972-.148-1.308-.444-.328-.296-.492-.692-.492-1.188l.216.252h-.24l.024 1.5v1.92h-1.08Zm2.52-2.976c.456 0 .812-.12 1.068-.36s.384-.628.384-1.164v-1.92c0-.544-.128-.932-.384-1.164-.256-.24-.612-.36-1.068-.36-.44 0-.792.14-1.056.42-.256.28-.384.668-.384 1.164v1.8c0 .496.128.884.384 1.164.264.28.616.42 1.056.42Zm6.595.936c-.68 0-1.22-.188-1.62-.564-.4-.384-.6-.884-.6-1.5 0-.408.092-.764.276-1.068.184-.304.44-.54.768-.708a2.349 2.349 0 0 1 1.128-.264h2.04V97.5c0-.432-.116-.752-.348-.96-.232-.216-.584-.324-1.056-.324-.416 0-.752.076-1.008.228-.256.152-.392.364-.408.636h-1.08c.04-.52.28-.948.72-1.284.448-.344 1.04-.516 1.776-.516.8 0 1.412.192 1.836.576.432.384.648.92.648 1.608V102h-1.068v-1.2h-.18l.168-.24c0 .32-.08.596-.24.828-.16.232-.388.412-.684.54-.296.128-.652.192-1.068.192Zm.264-.912c.528 0 .948-.128 1.26-.384.312-.256.468-.604.468-1.044v-.924h-1.92c-.352 0-.64.108-.864.324-.216.208-.324.488-.324.84 0 .368.12.66.36.876.248.208.588.312 1.02.312Zm5.84 2.952v-.984h1.86c.376 0 .672-.108.888-.324.216-.208.324-.492.324-.852v-.6l.024-1.08h-.216l.204-.3c0 .48-.16.856-.48 1.128-.32.264-.748.396-1.284.396-.68 0-1.216-.216-1.608-.648-.392-.432-.588-1.024-.588-1.776v-1.392c0-.752.196-1.348.588-1.788.392-.44.928-.66 1.608-.66.536 0 .964.14 1.284.42.32.28.48.66.48 1.14l-.204-.3h.204V95.4h1.068v6.6c0 .664-.208 1.188-.624 1.572-.408.392-.968.588-1.68.588h-1.848Zm1.644-3.516c.448 0 .8-.14 1.056-.42.256-.28.384-.668.384-1.164V97.8c0-.496-.128-.884-.384-1.164-.256-.28-.608-.42-1.056-.42-.456 0-.812.132-1.068.396-.248.264-.372.62-.372 1.068v1.5c0 .448.124.804.372 1.068.256.264.612.396 1.068.396Zm7.219 1.476c-.52 0-.976-.104-1.368-.312a2.296 2.296 0 0 1-.9-.912c-.216-.4-.324-.872-.324-1.416v-1.56c0-.552.108-1.024.324-1.416.216-.392.516-.692.9-.9.392-.216.848-.324 1.368-.324.52 0 .972.104 1.356.312.392.208.696.5.912.876.216.376.324.82.324 1.332v1.176h-4.128v.624c0 .488.14.876.42 1.164.28.28.652.42 1.116.42.4 0 .728-.076.984-.228.264-.16.424-.372.48-.636h1.08c-.072.552-.34.992-.804 1.32-.464.32-1.044.48-1.74.48Zm1.536-3.876V97.8c0-.52-.136-.92-.408-1.2-.264-.288-.64-.432-1.128-.432-.488 0-.868.144-1.14.432-.264.28-.396.68-.396 1.2v.336h3.156l-.084.108Z" fill="#AE1800"/><rect x="62" y="117" width="172" height="24" rx="4" fill="#DCDCDE"/><rect x="62" y="147" width="172" height="24" rx="4" fill="#DCDCDE"/><rect x="62" y="177" width="172" height="24" rx="4" fill="#DCDCDE"/></g><path d="M250 193H46v2h204v-2Z" fill="#BFBFC3" mask="url(#Desktop__c)"/><path fill="#ECECEF" stroke="#BFBFC3" d="M.5.5h45v193H.5z"/><rect x="4" y="28" width="25" height="2" rx="1" fill="#A4A3A8"/><rect x="4" y="34" width="25" height="2" rx="1" fill="#A4A3A8"/><rect x="4" y="40" width="14" height="2" rx="1" fill="#A4A3A8"/><rect x="4" y="46" width="25" height="2" rx="1" fill="#A4A3A8"/><rect x="4" y="52" width="25" height="2" rx="1" fill="#A4A3A8"/><rect x="4" y="58" width="14" height="2" rx="1" fill="#A4A3A8"/><rect x="4" y="64" width="25" height="2" rx="1" fill="#A4A3A8"/><rect x="4" y="70" width="25" height="2" rx="1" fill="#A4A3A8"/><rect x="4" y="76" width="14" height="2" rx="1" fill="#A4A3A8"/><g clip-path="url(#Desktop__d)"><path d="m11.867 7.197-.011-.028-1.089-2.84a.283.283 0 0 0-.237-.18.288.288 0 0 0-.307.209l-.735 2.25H6.512l-.735-2.25a.288.288 0 0 0-.544-.03L4.145 7.17l-.012.028a2.022 2.022 0 0 0 .671 2.337l.004.003.01.007 1.656 1.241.822.621.499.378a.337.337 0 0 0 .407 0l.499-.378.822-.62 1.668-1.25.004-.003a2.022 2.022 0 0 0 .672-2.336Z" fill="#737278"/></g><mask id="Desktop__e" fill="#fff"><path d="M46 0h250v10H46V0Z"/></mask><path d="M46 0h250v10H46V0Z" fill="#fff"/><path d="M296 0h1v-1h-1v1Zm0 10v1h1v-1h-1ZM46 1h250v-2H46v2Zm249-1v10h2V0h-2Zm1 9H46v2h250V9Z" fill="#BFBFC3" mask="url(#Desktop__e)"/><rect x="50" y="4" width="12" height="2" rx="1" fill="#A4A3A8"/><rect x="64" y="4" width="14" height="2" rx="1" fill="#A4A3A8"/><rect x="80" y="4" width="8" height="2" rx="1" fill="#A4A3A8"/><mask id="Desktop__f" fill="#fff"><path d="M250 10h46v184h-46V10Z"/></mask><path d="M296 194v1h1v-1h-1Zm-46 0h-1v1h1v-1Zm45-184v184h2V10h-2Zm1 183h-46v2h46v-2Zm-45 1V10h-2v184h2Z" fill="#BFBFC3" mask="url(#Desktop__f)"/><rect x="254" y="18" width="12" height="2" rx="1" fill="#BFBFC3"/><circle cx="256" cy="24" r="2" fill="#BFBFC3"/><rect x="260" y="23" width="18" height="2" rx="1" fill="#BFBFC3"/><rect x="254" y="38" width="12" height="2" rx="1" fill="#BFBFC3"/><rect x="254" y="42" width="18" height="2" rx="1" fill="#BFBFC3"/><rect x="254" y="56" width="12" height="2" rx="1" fill="#BFBFC3"/><rect x="254" y="60" width="18" height="2" rx="1" fill="#BFBFC3"/><rect x="254" y="74" width="12" height="2" rx="1" fill="#BFBFC3"/><rect x="254" y="78" width="12" height="2" rx="1" fill="#BFBFC3"/><rect x="268" y="78" width="12" height="2" rx="1" fill="#BFBFC3"/><rect x="282" y="78" width="6" height="2" rx="1" fill="#BFBFC3"/><rect x="254" y="82" width="9" height="2" rx="1" fill="#BFBFC3"/><rect x="265" y="82" width="6" height="2" rx="1" fill="#BFBFC3"/><rect x="254" y="96" width="12" height="2" rx="1" fill="#BFBFC3"/><circle cx="256" cy="102" r="2" fill="#BFBFC3"/></g><defs><clipPath id="Desktop__a"><path fill="#fff" d="M0 0h296v194H0z"/></clipPath><clipPath id="Desktop__b"><path d="M46 10h204v184H46V10Z" fill="#fff"/></clipPath><clipPath id="Desktop__d"><path fill="#fff" transform="translate(4 4)" d="M0 0h8v8H0z"/></clipPath></defs></svg>