<svg width="616" height="157" viewBox="0 0 616 157" fill="none" xmlns="http://www.w3.org/2000/svg">
<g clip-path="url(#clip0_145_0)">
<rect width="560" height="105" transform="translate(31 31)" fill="#E9F3FC"/>
<rect x="61" y="103" width="54" height="18" rx="3" fill="#1F75CB"/>
<rect x="120" y="104" width="52" height="16" rx="2" fill="white"/>
<rect x="120" y="104" width="52" height="16" rx="2" stroke="#A4A3A8" stroke-width="2"/>
<rect x="61" y="67" width="489" height="6" rx="2" fill="#89888D"/>
<rect x="61" y="87" width="485" height="6" rx="2" fill="#89888D"/>
<rect x="61" y="77" width="495" height="6" rx="2" fill="#89888D"/>
<rect x="61" y="49" width="78" height="8" rx="2" fill="#535158"/>
<path d="M576.95 46.2929C576.559 45.9024 575.926 45.9024 575.536 46.2929L574.121 47.7071L572.707 46.2929C572.317 45.9024 571.683 45.9024 571.293 46.2929C570.902 46.6834 570.902 47.3166 571.293 47.7071L572.707 49.1213L571.293 50.5355C570.902 50.9261 570.902 51.5592 571.293 51.9497C571.683 52.3403 572.317 52.3403 572.707 51.9497L574.121 50.5355L575.536 51.9497C575.926 52.3403 576.559 52.3403 576.95 51.9497C577.34 51.5592 577.34 50.9261 576.95 50.5355L575.536 49.1213L576.95 47.7071C577.34 47.3166 577.34 46.6834 576.95 46.2929Z" fill="#737278"/>
<circle cx="47" cy="53" r="6" fill="#1F75CB"/>
<circle cx="117" cy="137" r="16" fill="#7B58CF"/>
<circle cx="117" cy="137" r="18" stroke="#7B58CF" stroke-opacity="0.3" stroke-width="4"/>
<path d="M117.022 143.18C116.182 143.18 115.438 143.006 114.79 142.658C114.154 142.298 113.656 141.806 113.296 141.182C112.936 140.546 112.756 139.814 112.756 138.986C112.756 138.41 112.864 137.822 113.08 137.222C113.296 136.61 113.59 135.974 113.962 135.314L117.004 129.86H118.804L115.564 135.494L115.618 135.53C115.774 135.326 116.008 135.17 116.32 135.062C116.632 134.954 116.974 134.9 117.346 134.9C118.126 134.9 118.804 135.074 119.38 135.422C119.968 135.758 120.424 136.226 120.748 136.826C121.084 137.426 121.252 138.122 121.252 138.914C121.252 139.754 121.072 140.498 120.712 141.146C120.352 141.782 119.854 142.28 119.218 142.64C118.594 143 117.862 143.18 117.022 143.18ZM117.004 141.74C117.532 141.74 117.988 141.626 118.372 141.398C118.768 141.158 119.074 140.828 119.29 140.408C119.518 139.988 119.632 139.502 119.632 138.95C119.632 138.398 119.518 137.912 119.29 137.492C119.074 137.072 118.768 136.748 118.372 136.52C117.988 136.28 117.532 136.16 117.004 136.16C116.488 136.16 116.032 136.28 115.636 136.52C115.24 136.748 114.928 137.072 114.7 137.492C114.484 137.912 114.376 138.398 114.376 138.95C114.376 139.502 114.484 139.988 114.7 140.408C114.928 140.828 115.24 141.158 115.636 141.398C116.032 141.626 116.488 141.74 117.004 141.74Z" fill="white"/>
<circle cx="309" cy="80" r="16" fill="#7B58CF"/>
<circle cx="309" cy="80" r="18" stroke="#7B58CF" stroke-opacity="0.3" stroke-width="4"/>
<path d="M308.896 86.18C307.684 86.18 306.724 85.844 306.016 85.172C305.308 84.488 304.954 83.564 304.954 82.4H306.574C306.574 83.12 306.784 83.69 307.204 84.11C307.624 84.53 308.194 84.74 308.914 84.74C309.634 84.74 310.204 84.53 310.624 84.11C311.044 83.69 311.254 83.12 311.254 82.4V81.59C311.254 80.87 311.05 80.3 310.642 79.88C310.234 79.46 309.682 79.25 308.986 79.25H305.404V72.86H312.406V74.336H306.916L306.952 77.774H309.076C310.288 77.774 311.224 78.11 311.884 78.782C312.544 79.442 312.874 80.378 312.874 81.59V82.4C312.874 83.564 312.514 84.488 311.794 85.172C311.086 85.844 310.12 86.18 308.896 86.18Z" fill="white"/>
<circle cx="596" cy="49" r="16" fill="#7B58CF"/>
<circle cx="596" cy="49" r="18" stroke="#7B58CF" stroke-opacity="0.3" stroke-width="4"/>
<path d="M597.804 55V52.12H591.864V49.582L596.652 41.86H598.488L593.484 49.942V50.644H597.804V47.44H599.424V55H597.804Z" fill="white"/>
<circle cx="100" cy="33" r="16" fill="#7B58CF"/>
<circle cx="100" cy="33" r="18" stroke="#7B58CF" stroke-opacity="0.3" stroke-width="4"/>
<path d="M99.8055 39.18C98.5935 39.18 97.6335 38.844 96.9255 38.172C96.2175 37.488 95.8635 36.564 95.8635 35.4H97.4835C97.4835 36.12 97.6935 36.69 98.1135 37.11C98.5335 37.53 99.1035 37.74 99.8235 37.74C100.544 37.74 101.114 37.53 101.534 37.11C101.954 36.69 102.164 36.12 102.164 35.4V34.5C102.164 33.78 101.954 33.21 101.534 32.79C101.114 32.37 100.544 32.16 99.8235 32.16H98.4015V30.756L101.624 27.336H96.2235V25.86H103.46V27.372L99.8595 31.206V30.72C101.072 30.72 102.026 31.062 102.722 31.746C103.43 32.418 103.784 33.336 103.784 34.5V35.4C103.784 36.564 103.424 37.488 102.704 38.172C101.996 38.844 101.03 39.18 99.8055 39.18Z" fill="white"/>
<circle cx="47" cy="75" r="16" fill="#7B58CF"/>
<circle cx="47" cy="75" r="18" stroke="#7B58CF" stroke-opacity="0.3" stroke-width="4"/>
<path d="M43.1515 81V79.506L47.5255 74.826C48.1615 74.154 48.6115 73.554 48.8755 73.026C49.1395 72.498 49.2715 71.982 49.2715 71.478C49.2715 70.758 49.0615 70.188 48.6415 69.768C48.2335 69.336 47.6755 69.12 46.9675 69.12C46.2355 69.12 45.6535 69.342 45.2215 69.786C44.8015 70.218 44.5915 70.806 44.5915 71.55H42.9715C42.9955 70.758 43.1755 70.074 43.5115 69.498C43.8475 68.91 44.3095 68.46 44.8975 68.148C45.4855 67.836 46.1755 67.68 46.9675 67.68C47.7835 67.68 48.4855 67.836 49.0735 68.148C49.6615 68.46 50.1175 68.904 50.4415 69.48C50.7655 70.044 50.9275 70.716 50.9275 71.496C50.9275 72.12 50.7535 72.78 50.4055 73.476C50.0695 74.172 49.4875 74.952 48.6595 75.816L45.1135 79.524H51.0895V81H43.1515Z" fill="white"/>
<circle cx="20" cy="20" r="16" fill="#7B58CF"/>
<circle cx="20" cy="20" r="18" stroke="#7B58CF" stroke-opacity="0.3" stroke-width="4"/>
<path d="M16.2235 26V24.524H19.7875V14.264L16.2235 16.928V15.074L19.1935 12.86H21.4075V24.524H24.3235V26H16.2235Z" fill="white"/>
</g>
<defs>
<clipPath id="clip0_145_0">
<rect width="616" height="157" fill="white"/>
</clipPath>
</defs>
</svg>
