<svg width="632" height="160" fill="none" xmlns="http://www.w3.org/2000/svg"><path fill="#E9F3FC" d="M36 24h560v114H36z"/><rect x="126" y="97" width="43" height="16" rx="2" fill="#fff" stroke="#999" stroke-width="2"/><rect x="67" y="96" width="54" height="18" rx="3" fill="#1F75CB"/><rect x="66" y="76" width="485" height="6" rx="2" fill="#999"/><rect x="66" y="66" width="495" height="6" rx="2" fill="#999"/><rect x="66" y="56" width="489" height="6" rx="2" fill="#999"/><rect x="66" y="38" width="78" height="8" rx="2" fill="#666"/><path d="M581.95 39.293a1 1 0 00-1.414 0l-1.415 1.414-1.414-1.414a1 1 0 10-1.414 1.414l1.414 1.414-1.414 1.414a1 1 0 101.414 1.415l1.414-1.415 1.415 1.415a1 1 0 101.414-1.415l-1.414-1.414 1.414-1.414a1 1 0 000-1.414z" fill="#666"/><circle cx="52" cy="42" r="6" fill="#1F75CB"/><circle cx="121" cy="140" r="16" fill="#7B58CF"/><circle cx="121" cy="140" r="18" stroke="#7B58CF" stroke-opacity=".3" stroke-width="4"/><path d="M124.287 133.168v1.635a4.708 4.708 0 00-1.178-.492 4.739 4.739 0 00-1.3-.176c-1.125 0-1.978.425-2.558 1.274-.58.844-.87 2.089-.87 3.736.281-.586.671-1.035 1.169-1.345.498-.317 1.069-.475 1.714-.475 1.265 0 2.244.39 2.935 1.169.697.774 1.046 1.872 1.046 3.296 0 1.418-.357 2.517-1.072 3.296-.715.779-1.72 1.169-3.015 1.169-1.523 0-2.639-.545-3.348-1.635-.709-1.096-1.064-2.818-1.064-5.168 0-2.215.425-3.902 1.275-5.062.855-1.166 2.091-1.749 3.708-1.749.434 0 .868.047 1.301.14.434.088.853.217 1.257.387zm-3.164 5.546c-.756 0-1.351.272-1.784.817-.434.545-.651 1.298-.651 2.259 0 .961.217 1.714.651 2.259.433.545 1.028.817 1.784.817.785 0 1.377-.258 1.775-.773.399-.522.598-1.289.598-2.303 0-1.019-.199-1.787-.598-2.303-.398-.515-.99-.773-1.775-.773z" fill="#fff"/><circle cx="316" cy="69" r="16" fill="#7B58CF"/><circle cx="316" cy="69" r="18" stroke="#7B58CF" stroke-opacity=".3" stroke-width="4"/><path d="M312.396 61.878h6.645v1.494h-5.027v3.226c.252-.094.504-.162.756-.203a4.3 4.3 0 01.773-.07c1.359 0 2.437.402 3.234 1.204.797.803 1.196 1.89 1.196 3.261 0 1.383-.419 2.473-1.257 3.27-.832.796-1.972 1.195-3.419 1.195-.697 0-1.336-.047-1.916-.14a7.083 7.083 0 01-1.547-.423v-1.801a7.457 7.457 0 001.626.659 6.66 6.66 0 001.67.21c.978 0 1.731-.257 2.259-.773.533-.515.799-1.248.799-2.197 0-.938-.275-1.667-.826-2.188-.545-.522-1.306-.783-2.285-.783-.474 0-.937.056-1.389.167a5.386 5.386 0 00-1.292.484v-6.592z" fill="#fff"/><circle cx="612" cy="41" r="16" fill="#7B58CF"/><circle cx="612" cy="41" r="18" stroke="#7B58CF" stroke-opacity=".3" stroke-width="4"/><path d="M613.037 35.495l-4.14 6.935h4.14v-6.935zm-.29-1.617h2.057v8.552h1.749v1.441h-1.749V47h-1.767v-3.129h-5.563v-1.679l5.273-8.314z" fill="#fff"/><circle cx="102" cy="41" r="16" fill="#7B58CF"/><circle cx="102" cy="41" r="18" stroke="#7B58CF" stroke-opacity=".3" stroke-width="4"/><path d="M103.397 39.977c.862.23 1.521.636 1.978 1.222.457.58.686 1.307.686 2.18 0 1.207-.408 2.156-1.222 2.848-.809.685-1.931 1.028-3.366 1.028-.604 0-1.219-.056-1.846-.167a11.884 11.884 0 01-1.846-.483v-1.767a8.55 8.55 0 001.767.694 6.79 6.79 0 001.731.229c.973 0 1.72-.22 2.242-.66.521-.439.782-1.072.782-1.898 0-.762-.261-1.365-.782-1.81-.522-.452-1.228-.677-2.119-.677h-1.353v-1.46h1.353c.815 0 1.451-.178 1.908-.535.457-.358.685-.856.685-1.494 0-.674-.214-1.19-.641-1.547-.422-.364-1.026-.545-1.811-.545-.522 0-1.061.058-1.617.175a11.47 11.47 0 00-1.75.528v-1.635a21.86 21.86 0 011.89-.422 9.025 9.025 0 011.477-.14c1.277 0 2.297.322 3.059.966.767.64 1.151 1.489 1.151 2.55 0 .72-.202 1.32-.607 1.801-.398.48-.981.82-1.749 1.02z" fill="#fff"/><circle cx="52" cy="69" r="16" fill="#7B58CF"/><circle cx="52" cy="69" r="18" stroke="#7B58CF" stroke-opacity=".3" stroke-width="4"/><path d="M49.855 73.506h6.03V75h-7.972v-1.494a363.318 363.318 0 002.874-3.059 73.424 73.424 0 001.696-1.872c.586-.715.982-1.292 1.187-1.731.205-.446.307-.9.307-1.363 0-.732-.216-1.306-.65-1.722-.428-.416-1.017-.624-1.767-.624-.533 0-1.092.096-1.678.29a9.421 9.421 0 00-1.863.879V62.51a9.622 9.622 0 011.775-.65 7.12 7.12 0 011.731-.22c1.284 0 2.315.342 3.094 1.028.785.68 1.178 1.573 1.178 2.68 0 .563-.132 1.126-.396 1.688-.257.563-.68 1.184-1.265 1.863-.328.381-.806.909-1.433 1.582-.621.674-1.57 1.682-2.848 3.024z" fill="#fff"/><circle cx="20" cy="20" r="16" fill="#7B58CF"/><circle cx="20" cy="20" r="18" stroke="#7B58CF" stroke-opacity=".3" stroke-width="4"/><path d="M16.95 24.515h2.76V14.6l-3.305 1.59v-1.705l3.287-1.564h1.776v11.593h2.724V26H16.95v-1.485z" fill="#fff"/></svg>