<svg width="296" height="194" fill="none" xmlns="http://www.w3.org/2000/svg"><g clip-path="url(#Desktop__a)"><path fill="#fff" d="M0 0h296v194H0z"/><g clip-path="url(#Desktop__b)"><mask id="Desktop__c" fill="#fff"><path d="M46 36h204v158H46V36Z"/></mask><rect x="62" y="44" width="49" height="10" rx="4" fill="#DCDCDE"/><rect x="62" y="58" width="81" height="5" rx="2.5" fill="#DCDCDE"/><rect x="182.5" y="44.5" width="24" height="9" rx="1.5" fill="#fff" stroke="#DCDCDE"/><rect x="209.5" y="44.5" width="24" height="9" rx="1.5" fill="#1F75CB" stroke="#0B5CAD"/><rect x="62" y="71" width="172" height="38" rx="4" fill="#DCDCDE"/><rect x="62" y="115" width="172" height="24" rx="4" fill="#DCDCDE"/><rect x="62" y="145" width="172" height="24" rx="4" fill="#DCDCDE"/><rect x="62" y="175" width="172" height="24" rx="4" fill="#DCDCDE"/></g><path d="M250 193H46v2h204v-2Z" fill="#BFBFC3" mask="url(#Desktop__c)"/><path fill="#FCF1EF" d="M46.5 10.5h203v25h-203z"/><path stroke="#AE1800" stroke-dasharray="4 4" d="M46.5 10.5h203v25h-203z"/><path d="M129.648 27.12c-.528 0-.988-.1-1.38-.3a2.178 2.178 0 0 1-.9-.864c-.208-.384-.312-.836-.312-1.356v-3.96c0-.528.104-.98.312-1.356.216-.376.516-.664.9-.864.392-.2.852-.3 1.38-.3.528 0 .984.104 1.368.312.384.2.68.488.888.864.208.376.312.824.312 1.344h-1.08c0-.496-.132-.876-.396-1.14-.256-.272-.62-.408-1.092-.408-.472 0-.844.132-1.116.396-.264.264-.396.644-.396 1.14V24.6c0 .496.132.88.396 1.152.272.272.644.408 1.116.408.472 0 .836-.136 1.092-.408.264-.272.396-.656.396-1.152v-1.2h-1.776v-.984h2.856V24.6c0 .512-.104.96-.312 1.344a2.178 2.178 0 0 1-.888.876c-.384.2-.84.3-1.368.3Zm8.107-.12a2.13 2.13 0 0 1-1.008-.228 1.639 1.639 0 0 1-.672-.648 1.95 1.95 0 0 1-.24-.984v-5.916h-2.28v-.984h3.36v6.9c0 .272.076.488.228.648.152.152.356.228.612.228h2.04V27h-2.04Zm6.236.096c-.528 0-.988-.104-1.38-.312a2.216 2.216 0 0 1-.9-.9c-.208-.4-.312-.876-.312-1.428v-1.512c0-.56.104-1.036.312-1.428.216-.392.516-.692.9-.9.392-.208.852-.312 1.38-.312.536 0 .996.104 1.38.312.384.208.68.508.888.9.216.392.324.868.324 1.428v1.512c0 .552-.108 1.028-.324 1.428a2.124 2.124 0 0 1-.9.9c-.384.208-.84.312-1.368.312Zm0-.96c.472 0 .84-.132 1.104-.396.272-.264.408-.652.408-1.164v-1.752c0-.512-.136-.9-.408-1.164-.264-.264-.632-.396-1.104-.396-.464 0-.832.132-1.104.396-.272.264-.408.652-.408 1.164v1.752c0 .512.136.9.408 1.164.272.264.64.396 1.104.396Zm7.579.984c-.544 0-.98-.144-1.308-.432-.328-.296-.492-.696-.492-1.2l.216.252h-.216V27h-1.08v-8.76h1.08v1.92l-.024 1.5h.24l-.24.252c0-.496.168-.892.504-1.188.344-.296.784-.444 1.32-.444.664 0 1.192.22 1.584.66.392.44.588 1.04.588 1.8v1.932c0 .752-.196 1.348-.588 1.788-.392.44-.92.66-1.584.66Zm-.36-.936c.456 0 .812-.12 1.068-.36s.384-.628.384-1.164v-1.92c0-.544-.128-.932-.384-1.164-.256-.24-.612-.36-1.068-.36-.44 0-.792.14-1.056.42-.256.28-.384.668-.384 1.164v1.8c0 .496.128.884.384 1.164.264.28.616.42 1.056.42Zm6.595.936c-.68 0-1.22-.188-1.62-.564-.4-.384-.6-.884-.6-1.5 0-.408.092-.764.276-1.068.184-.304.44-.54.768-.708a2.349 2.349 0 0 1 1.128-.264h2.04V22.5c0-.432-.116-.752-.348-.96-.232-.216-.584-.324-1.056-.324-.416 0-.752.076-1.008.228-.256.152-.392.364-.408.636h-1.08c.04-.52.28-.948.72-1.284.448-.344 1.04-.516 1.776-.516.8 0 1.412.192 1.836.576.432.384.648.92.648 1.608V27h-1.068v-1.2h-.18l.168-.24c0 .32-.08.596-.24.828-.16.232-.388.412-.684.54-.296.128-.652.192-1.068.192Zm.264-.912c.528 0 .948-.128 1.26-.384.312-.256.468-.604.468-1.044v-.924h-1.92c-.352 0-.64.108-.864.324-.216.208-.324.488-.324.84 0 .368.12.66.36.876.248.208.588.312 1.02.312Zm8.468.792a2.13 2.13 0 0 1-1.008-.228 1.639 1.639 0 0 1-.672-.648 1.95 1.95 0 0 1-.24-.984v-5.916h-2.28v-.984h3.36v6.9c0 .272.076.488.228.648.152.152.356.228.612.228h2.04V27h-2.04Z" fill="#AE1800"/><path fill="#ECECEF" stroke="#BFBFC3" d="M.5.5h45v193H.5z"/><rect x="4" y="28" width="25" height="2" rx="1" fill="#A4A3A8"/><rect x="4" y="34" width="25" height="2" rx="1" fill="#A4A3A8"/><rect x="4" y="40" width="14" height="2" rx="1" fill="#A4A3A8"/><rect x="4" y="46" width="25" height="2" rx="1" fill="#A4A3A8"/><rect x="4" y="52" width="25" height="2" rx="1" fill="#A4A3A8"/><rect x="4" y="58" width="14" height="2" rx="1" fill="#A4A3A8"/><rect x="4" y="64" width="25" height="2" rx="1" fill="#A4A3A8"/><rect x="4" y="70" width="25" height="2" rx="1" fill="#A4A3A8"/><rect x="4" y="76" width="14" height="2" rx="1" fill="#A4A3A8"/><g clip-path="url(#Desktop__d)"><path d="m11.867 7.197-.011-.028-1.089-2.84a.283.283 0 0 0-.237-.18.288.288 0 0 0-.307.209l-.735 2.25H6.512l-.735-2.25a.288.288 0 0 0-.544-.03L4.145 7.17l-.012.028a2.022 2.022 0 0 0 .671 2.337l.004.003.01.007 1.656 1.241.822.621.499.378a.337.337 0 0 0 .407 0l.499-.378.822-.62 1.668-1.25.004-.003a2.022 2.022 0 0 0 .672-2.336Z" fill="#737278"/></g><mask id="Desktop__e" fill="#fff"><path d="M250 10h46v184h-46V10Z"/></mask><path d="M296 194v1h1v-1h-1Zm-46 0h-1v1h1v-1Zm45-184v184h2V10h-2Zm1 183h-46v2h46v-2Zm-45 1V10h-2v184h2Z" fill="#BFBFC3" mask="url(#Desktop__e)"/><rect x="254" y="18" width="12" height="2" rx="1" fill="#BFBFC3"/><circle cx="256" cy="24" r="2" fill="#BFBFC3"/><rect x="260" y="23" width="18" height="2" rx="1" fill="#BFBFC3"/><rect x="254" y="38" width="12" height="2" rx="1" fill="#BFBFC3"/><rect x="254" y="42" width="18" height="2" rx="1" fill="#BFBFC3"/><rect x="254" y="56" width="12" height="2" rx="1" fill="#BFBFC3"/><rect x="254" y="60" width="18" height="2" rx="1" fill="#BFBFC3"/><rect x="254" y="74" width="12" height="2" rx="1" fill="#BFBFC3"/><rect x="254" y="78" width="12" height="2" rx="1" fill="#BFBFC3"/><rect x="268" y="78" width="12" height="2" rx="1" fill="#BFBFC3"/><rect x="282" y="78" width="6" height="2" rx="1" fill="#BFBFC3"/><rect x="254" y="82" width="9" height="2" rx="1" fill="#BFBFC3"/><rect x="265" y="82" width="6" height="2" rx="1" fill="#BFBFC3"/><rect x="254" y="96" width="12" height="2" rx="1" fill="#BFBFC3"/><circle cx="256" cy="102" r="2" fill="#BFBFC3"/><mask id="Desktop__f" fill="#fff"><path d="M46 0h250v10H46V0Z"/></mask><path d="M46 0h250v10H46V0Z" fill="#fff"/><path d="M296 0h1v-1h-1v1Zm0 10v1h1v-1h-1ZM46 1h250v-2H46v2Zm249-1v10h2V0h-2Zm1 9H46v2h250V9Z" fill="#BFBFC3" mask="url(#Desktop__f)"/><rect x="50" y="4" width="12" height="2" rx="1" fill="#A4A3A8"/><rect x="64" y="4" width="14" height="2" rx="1" fill="#A4A3A8"/><rect x="80" y="4" width="8" height="2" rx="1" fill="#A4A3A8"/></g><defs><clipPath id="Desktop__a"><path fill="#fff" d="M0 0h296v194H0z"/></clipPath><clipPath id="Desktop__b"><path d="M46 36h204v158H46V36Z" fill="#fff"/></clipPath><clipPath id="Desktop__d"><path fill="#fff" transform="translate(4 4)" d="M0 0h8v8H0z"/></clipPath></defs></svg>