<svg width="616" height="157" fill="none" xmlns="http://www.w3.org/2000/svg"><g clip-path="url(#alert-structure__a)"><path fill="#E9F3FC" d="M31 31h560v105H31z"/><rect x="61" y="103" width="54" height="18" rx="3" fill="#1F75CB"/><rect x="120" y="104" width="52" height="16" rx="2" fill="#fff"/><rect x="120" y="104" width="52" height="16" rx="2" stroke="#A4A3A8" stroke-width="2"/><rect x="61" y="67" width="489" height="6" rx="2" fill="#89888D"/><rect x="61" y="87" width="485" height="6" rx="2" fill="#89888D"/><rect x="61" y="77" width="495" height="6" rx="2" fill="#89888D"/><rect x="61" y="49" width="78" height="8" rx="2" fill="#535158"/><path d="M576.95 46.293a1 1 0 0 0-1.414 0l-1.415 1.414-1.414-1.414a1 1 0 1 0-1.414 1.414l1.414 1.414-1.414 1.414a1 1 0 1 0 1.414 1.415l1.414-1.415 1.415 1.415a1 1 0 1 0 1.414-1.415l-1.414-1.414 1.414-1.414a1 1 0 0 0 0-1.414Z" fill="#737278"/><circle cx="47" cy="53" r="6" fill="#1F75CB"/><circle cx="117" cy="137" r="16" fill="#7B58CF"/><circle cx="117" cy="137" r="18" stroke="#7B58CF" stroke-opacity=".3" stroke-width="4"/><path d="M117.022 143.18c-.84 0-1.584-.174-2.232-.522a3.922 3.922 0 0 1-1.494-1.476c-.36-.636-.54-1.368-.54-2.196 0-.576.108-1.164.324-1.764.216-.612.51-1.248.882-1.908l3.042-5.454h1.8l-3.24 5.634.054.036c.156-.204.39-.36.702-.468a3.118 3.118 0 0 1 1.026-.162c.78 0 1.458.174 2.034.522a3.501 3.501 0 0 1 1.368 1.404c.336.6.504 1.296.504 2.088 0 .84-.18 1.584-.54 2.232a3.885 3.885 0 0 1-1.494 1.494c-.624.36-1.356.54-2.196.54Zm-.018-1.44c.528 0 .984-.114 1.368-.342.396-.24.702-.57.918-.99.228-.42.342-.906.342-1.458 0-.552-.114-1.038-.342-1.458a2.317 2.317 0 0 0-.918-.972c-.384-.24-.84-.36-1.368-.36-.516 0-.972.12-1.368.36a2.435 2.435 0 0 0-.936.972c-.216.42-.324.906-.324 1.458 0 .552.108 1.038.324 1.458.228.42.54.75.936.99.396.228.852.342 1.368.342Z" fill="#fff"/><circle cx="309" cy="80" r="16" fill="#7B58CF"/><circle cx="309" cy="80" r="18" stroke="#7B58CF" stroke-opacity=".3" stroke-width="4"/><path d="M308.896 86.18c-1.212 0-2.172-.336-2.88-1.008-.708-.684-1.062-1.608-1.062-2.772h1.62c0 .72.21 1.29.63 1.71.42.42.99.63 1.71.63s1.29-.21 1.71-.63c.42-.42.63-.99.63-1.71v-.81c0-.72-.204-1.29-.612-1.71-.408-.42-.96-.63-1.656-.63h-3.582v-6.39h7.002v1.476h-5.49l.036 3.438h2.124c1.212 0 2.148.336 2.808 1.008.66.66.99 1.596.99 2.808v.81c0 1.164-.36 2.088-1.08 2.772-.708.672-1.674 1.008-2.898 1.008Z" fill="#fff"/><circle cx="596" cy="49" r="16" fill="#7B58CF"/><circle cx="596" cy="49" r="18" stroke="#7B58CF" stroke-opacity=".3" stroke-width="4"/><path d="M597.804 55v-2.88h-5.94v-2.538l4.788-7.722h1.836l-5.004 8.082v.702h4.32V47.44h1.62V55h-1.62Z" fill="#fff"/><circle cx="100" cy="33" r="16" fill="#7B58CF"/><circle cx="100" cy="33" r="18" stroke="#7B58CF" stroke-opacity=".3" stroke-width="4"/><path d="M99.805 39.18c-1.212 0-2.172-.336-2.88-1.008-.707-.684-1.061-1.608-1.061-2.772h1.62c0 .72.21 1.29.63 1.71.42.42.99.63 1.71.63s1.29-.21 1.71-.63c.42-.42.63-.99.63-1.71v-.9c0-.72-.21-1.29-.63-1.71-.42-.42-.99-.63-1.71-.63h-1.422v-1.404l3.222-3.42h-5.4V25.86h7.236v1.512l-3.6 3.834v-.486c1.212 0 2.166.342 2.862 1.026.708.672 1.062 1.59 1.062 2.754v.9c0 1.164-.36 2.088-1.08 2.772-.708.672-1.674 1.008-2.898 1.008Z" fill="#fff"/><circle cx="47" cy="75" r="16" fill="#7B58CF"/><circle cx="47" cy="75" r="18" stroke="#7B58CF" stroke-opacity=".3" stroke-width="4"/><path d="M43.151 81v-1.494l4.374-4.68c.636-.672 1.087-1.272 1.35-1.8.264-.528.397-1.044.397-1.548 0-.72-.21-1.29-.63-1.71-.409-.432-.967-.648-1.675-.648-.731 0-1.313.222-1.745.666-.42.432-.63 1.02-.63 1.764h-1.62c.023-.792.203-1.476.54-2.052a3.41 3.41 0 0 1 1.386-1.35c.587-.312 1.277-.468 2.07-.468.815 0 1.517.156 2.105.468a3.325 3.325 0 0 1 1.368 1.332c.325.564.486 1.236.486 2.016 0 .624-.173 1.284-.521 1.98-.337.696-.919 1.476-1.746 2.34l-3.546 3.708h5.976V81h-7.94Z" fill="#fff"/><circle cx="20" cy="20" r="16" fill="#7B58CF"/><circle cx="20" cy="20" r="18" stroke="#7B58CF" stroke-opacity=".3" stroke-width="4"/><path d="M16.224 26v-1.476h3.564v-10.26l-3.564 2.664v-1.854l2.97-2.214h2.213v11.664h2.916V26h-8.1Z" fill="#fff"/></g><defs><clipPath id="alert-structure__a"><path fill="#fff" d="M0 0h616v157H0z"/></clipPath></defs></svg>