<svg width="632" height="160" viewBox="0 0 632 160" fill="none" xmlns="http://www.w3.org/2000/svg">
<rect width="632" height="160" fill="white"/>
<rect width="560" height="114" transform="translate(36 24)" fill="#E9F3FC"/>
<rect x="67" y="96" width="54" height="18" rx="3" fill="#1F75CB"/>
<rect x="126" y="97" width="43" height="16" rx="2" fill="white" stroke="#999999" stroke-width="2"/>
<rect x="66" y="38" width="78" height="8" rx="2" fill="#666666"/>
<rect x="66" y="56" width="489" height="6" rx="2" fill="#999999"/>
<rect x="66" y="66" width="495" height="6" rx="2" fill="#999999"/>
<rect x="66" y="76" width="485" height="6" rx="2" fill="#999999"/>
<path d="M581.95 39.2929C581.559 38.9024 580.926 38.9024 580.536 39.2929L579.121 40.7071L577.707 39.2929C577.317 38.9024 576.683 38.9024 576.293 39.2929C575.902 39.6834 575.902 40.3166 576.293 40.7071L577.707 42.1213L576.293 43.5355C575.902 43.9261 575.902 44.5592 576.293 44.9497C576.683 45.3403 577.317 45.3403 577.707 44.9497L579.121 43.5355L580.536 44.9497C580.926 45.3403 581.559 45.3403 581.95 44.9497C582.34 44.5592 582.34 43.9261 581.95 43.5355L580.536 42.1213L581.95 40.7071C582.34 40.3166 582.34 39.6834 581.95 39.2929Z" fill="#666666"/>
<circle cx="52" cy="42" r="6" fill="#1F75CB"/>
<rect x="12" y="12" width="608" height="136" stroke="white" stroke-width="24"/>
<circle cx="300" cy="69" r="16" fill="#7B58CF"/>
<circle cx="300" cy="69" r="18" stroke="#7B58CF" stroke-opacity="0.3" stroke-width="4"/>
<path d="M301.037 63.4951L296.897 70.4297H301.037V63.4951ZM300.747 61.8779H302.804V70.4297H304.553V71.8711H302.804V75H301.037V71.8711H295.474V70.1924L300.747 61.8779Z" fill="white"/>
<circle cx="42" cy="105" r="16" fill="#7B58CF"/>
<circle cx="42" cy="105" r="18" stroke="#7B58CF" stroke-opacity="0.3" stroke-width="4"/>
<path d="M38.3965 97.8779H45.041V99.3721H40.0137V102.598C40.2656 102.504 40.5176 102.437 40.7695 102.396C41.0273 102.349 41.2852 102.325 41.543 102.325C42.9023 102.325 43.9805 102.727 44.7773 103.529C45.5742 104.332 45.9727 105.419 45.9727 106.79C45.9727 108.173 45.5537 109.263 44.7158 110.06C43.8838 110.856 42.7441 111.255 41.2969 111.255C40.5996 111.255 39.9609 111.208 39.3809 111.114C38.8066 111.021 38.291 110.88 37.834 110.692V108.891C38.373 109.184 38.915 109.403 39.46 109.55C40.0049 109.69 40.5615 109.761 41.1299 109.761C42.1084 109.761 42.8613 109.503 43.3887 108.987C43.9219 108.472 44.1885 107.739 44.1885 106.79C44.1885 105.853 43.9131 105.123 43.3623 104.602C42.8174 104.08 42.0557 103.819 41.0771 103.819C40.6025 103.819 40.1396 103.875 39.6885 103.986C39.2373 104.092 38.8066 104.253 38.3965 104.47V97.8779Z" fill="white"/>
<circle cx="20" cy="42" r="16" fill="#7B58CF"/>
<circle cx="20" cy="42" r="18" stroke="#7B58CF" stroke-opacity="0.3" stroke-width="4"/>
<path d="M16.9502 46.5146H19.71V36.6006L16.4053 38.1914V36.4863L19.6924 34.9219H21.4678V46.5146H24.1924V48H16.9502V46.5146Z" fill="white"/>
<circle cx="170" cy="42" r="16" fill="#7B58CF"/>
<circle cx="170" cy="42" r="18" stroke="#7B58CF" stroke-opacity="0.3" stroke-width="4"/>
<path d="M167.855 46.5059H173.885V48H165.913V46.5059C167.009 45.3516 167.967 44.332 168.787 43.4473C169.607 42.5625 170.173 41.9385 170.483 41.5752C171.069 40.8604 171.465 40.2832 171.67 39.8438C171.875 39.3984 171.978 38.9443 171.978 38.4814C171.978 37.749 171.761 37.1748 171.327 36.7588C170.899 36.3428 170.311 36.1348 169.561 36.1348C169.027 36.1348 168.468 36.2314 167.882 36.4248C167.296 36.6182 166.675 36.9111 166.019 37.3037V35.5107C166.622 35.2236 167.214 35.0068 167.794 34.8604C168.38 34.7139 168.957 34.6406 169.525 34.6406C170.809 34.6406 171.84 34.9834 172.619 35.6689C173.404 36.3486 173.797 37.2422 173.797 38.3496C173.797 38.9121 173.665 39.4746 173.401 40.0371C173.144 40.5996 172.722 41.2207 172.136 41.9004C171.808 42.2812 171.33 42.8086 170.703 43.4824C170.082 44.1562 169.133 45.1641 167.855 46.5059Z" fill="white"/>
<circle cx="612" cy="40" r="16" fill="#7B58CF"/>
<circle cx="612" cy="40" r="18" stroke="#7B58CF" stroke-opacity="0.3" stroke-width="4"/>
<path d="M613.397 38.9775C614.259 39.2061 614.918 39.6133 615.375 40.1992C615.832 40.7793 616.061 41.5059 616.061 42.3789C616.061 43.5859 615.653 44.5352 614.839 45.2266C614.03 45.9121 612.908 46.2549 611.473 46.2549C610.869 46.2549 610.254 46.1992 609.627 46.0879C609 45.9766 608.385 45.8154 607.781 45.6045V43.8379C608.379 44.1484 608.968 44.3799 609.548 44.5322C610.128 44.6846 610.705 44.7607 611.279 44.7607C612.252 44.7607 612.999 44.541 613.521 44.1016C614.042 43.6621 614.303 43.0293 614.303 42.2031C614.303 41.4414 614.042 40.8379 613.521 40.3926C612.999 39.9414 612.293 39.7158 611.402 39.7158H610.049V38.2568H611.402C612.217 38.2568 612.853 38.0781 613.31 37.7207C613.767 37.3633 613.995 36.8652 613.995 36.2266C613.995 35.5527 613.781 35.0371 613.354 34.6797C612.932 34.3164 612.328 34.1348 611.543 34.1348C611.021 34.1348 610.482 34.1934 609.926 34.3105C609.369 34.4277 608.786 34.6035 608.177 34.8379V33.2031C608.886 33.0156 609.516 32.875 610.066 32.7812C610.623 32.6875 611.115 32.6406 611.543 32.6406C612.82 32.6406 613.84 32.9629 614.602 33.6074C615.369 34.2461 615.753 35.0957 615.753 36.1562C615.753 36.877 615.551 37.4775 615.146 37.958C614.748 38.4385 614.165 38.7783 613.397 38.9775Z" fill="white"/>
</svg>
