<svg width="416" height="128" viewBox="0 0 416 128" fill="none" xmlns="http://www.w3.org/2000/svg">
<path d="M4.004 63.524V60.458H3.052V63.524H0V64.476H3.052V67.542H4.004V64.476H7.056V63.524H4.004Z" fill="#737278"/>
<rect x="9.056" y="60" width="40" height="8" rx="2" fill="#89888D"/>
<rect x="0.5" y="24.5" width="23" height="23" rx="11.5" fill="#E9F3FC"/>
<rect x="0.5" y="24.5" width="23" height="23" rx="11.5" stroke="#BFBFC3"/>
<rect x="32.5" y="24.5" width="23" height="23" rx="11.5" fill="#E9F3FC"/>
<rect x="32.5" y="24.5" width="23" height="23" rx="11.5" stroke="#BFBFC3"/>
<rect x="64.5" y="24.5" width="23" height="23" rx="11.5" fill="#E9F3FC"/>
<rect x="64.5" y="24.5" width="23" height="23" rx="11.5" stroke="#BFBFC3"/>
<rect x="96.5" y="24.5" width="23" height="23" rx="11.5" fill="#E9F3FC"/>
<rect x="96.5" y="24.5" width="23" height="23" rx="11.5" stroke="#BFBFC3"/>
<rect x="128.5" y="24.5" width="23" height="23" rx="11.5" fill="#E9F3FC"/>
<rect x="128.5" y="24.5" width="23" height="23" rx="11.5" stroke="#BFBFC3"/>
<rect x="160.5" y="24.5" width="23" height="23" rx="11.5" fill="#E9F3FC"/>
<rect x="160.5" y="24.5" width="23" height="23" rx="11.5" stroke="#BFBFC3"/>
<path d="M232 95.44V96.56H239V95.44H232Z" fill="#737278"/>
<rect x="241" y="92" width="64" height="8" rx="2" fill="#89888D"/>
<rect x="232.5" y="56.5" width="23" height="23" rx="11.5" fill="#E9F3FC"/>
<rect x="232.5" y="56.5" width="23" height="23" rx="11.5" stroke="#BFBFC3"/>
<rect x="264.5" y="56.5" width="23" height="23" rx="11.5" fill="#E9F3FC"/>
<rect x="264.5" y="56.5" width="23" height="23" rx="11.5" stroke="#BFBFC3"/>
<rect x="296.5" y="56.5" width="23" height="23" rx="11.5" fill="#E9F3FC"/>
<rect x="296.5" y="56.5" width="23" height="23" rx="11.5" stroke="#BFBFC3"/>
<rect x="232.5" y="24.5" width="23" height="23" rx="11.5" fill="#E9F3FC"/>
<rect x="232.5" y="24.5" width="23" height="23" rx="11.5" stroke="#BFBFC3"/>
<rect x="264.5" y="24.5" width="23" height="23" rx="11.5" fill="#E9F3FC"/>
<rect x="264.5" y="24.5" width="23" height="23" rx="11.5" stroke="#BFBFC3"/>
<rect x="296.5" y="24.5" width="23" height="23" rx="11.5" fill="#E9F3FC"/>
<rect x="296.5" y="24.5" width="23" height="23" rx="11.5" stroke="#BFBFC3"/>
<rect x="328.5" y="24.5" width="23" height="23" rx="11.5" fill="#E9F3FC"/>
<rect x="328.5" y="24.5" width="23" height="23" rx="11.5" stroke="#BFBFC3"/>
<rect x="360.5" y="24.5" width="23" height="23" rx="11.5" fill="#E9F3FC"/>
<rect x="360.5" y="24.5" width="23" height="23" rx="11.5" stroke="#BFBFC3"/>
<rect x="392.5" y="24.5" width="23" height="23" rx="11.5" fill="#E9F3FC"/>
<rect x="392.5" y="24.5" width="23" height="23" rx="11.5" stroke="#BFBFC3"/>
</svg>
