<svg width="142" height="84" viewBox="0 0 142 84" fill="none" xmlns="http://www.w3.org/2000/svg">
<rect x="54" y="32" width="88" height="8" rx="2" fill="#525252"/>
<rect x="54" y="44" width="64" height="8" rx="2" fill="#868686"/>
<circle cx="30" cy="42" r="15.5" fill="#E9F3FC" stroke="#BFBFBF"/>
<circle cx="87" cy="64" r="16" fill="#7B58CF"/>
<circle cx="87" cy="64" r="18" stroke="#7B58CF" stroke-opacity="0.3" stroke-width="4"/>
<path d="M84.8555 68.5059H90.8848V70H82.9131V68.5059C84.0088 67.3516 84.9668 66.332 85.7871 65.4473C86.6074 64.5625 87.1729 63.9385 87.4834 63.5752C88.0693 62.8604 88.4648 62.2832 88.6699 61.8438C88.875 61.3984 88.9775 60.9443 88.9775 60.4814C88.9775 59.749 88.7607 59.1748 88.3271 58.7588C87.8994 58.3428 87.3105 58.1348 86.5605 58.1348C86.0273 58.1348 85.4678 58.2314 84.8818 58.4248C84.2959 58.6182 83.6748 58.9111 83.0186 59.3037V57.5107C83.6221 57.2236 84.2139 57.0068 84.7939 56.8604C85.3799 56.7139 85.957 56.6406 86.5254 56.6406C87.8086 56.6406 88.8398 56.9834 89.6191 57.6689C90.4043 58.3486 90.7969 59.2422 90.7969 60.3496C90.7969 60.9121 90.665 61.4746 90.4014 62.0371C90.1436 62.5996 89.7217 63.2207 89.1357 63.9004C88.8076 64.2812 88.3301 64.8086 87.7031 65.4824C87.082 66.1562 86.1328 67.1641 84.8555 68.5059Z" fill="white"/>
<circle cx="20" cy="20" r="16" fill="#7B58CF"/>
<circle cx="20" cy="20" r="18" stroke="#7B58CF" stroke-opacity="0.3" stroke-width="4"/>
<path d="M16.9502 24.5146H19.71V14.6006L16.4053 16.1914V14.4863L19.6924 12.9219H21.4678V24.5146H24.1924V26H16.9502V24.5146Z" fill="white"/>
</svg>
