<svg width="416" height="128" viewBox="0 0 416 128" fill="none" xmlns="http://www.w3.org/2000/svg">
<path d="M4.004 63.524V60.458H3.052V63.524H0V64.476H3.052V67.542H4.004V64.476H7.056V63.524H4.004Z" fill="#666666"/>
<rect x="9.056" y="60" width="40" height="8" rx="2" fill="#868686"/>
<circle cx="12" cy="36" r="11.5" fill="#E9F3FC" stroke="#BFBFBF"/>
<circle cx="44" cy="36" r="11.5" fill="#E9F3FC" stroke="#BFBFBF"/>
<circle cx="76" cy="36" r="11.5" fill="#E9F3FC" stroke="#BFBFBF"/>
<circle cx="108" cy="36" r="11.5" fill="#E9F3FC" stroke="#BFBFBF"/>
<circle cx="140" cy="36" r="11.5" fill="#E9F3FC" stroke="#BFBFBF"/>
<circle cx="172" cy="36" r="11.5" fill="#E9F3FC" stroke="#BFBFBF"/>
<path d="M232 95.44V96.56H239V95.44H232Z" fill="#666666"/>
<rect x="241" y="92" width="64" height="8" rx="2" fill="#868686"/>
<circle cx="244" cy="36" r="11.5" fill="#E9F3FC" stroke="#BFBFBF"/>
<circle cx="276" cy="36" r="11.5" fill="#E9F3FC" stroke="#BFBFBF"/>
<circle cx="308" cy="36" r="11.5" fill="#E9F3FC" stroke="#BFBFBF"/>
<circle cx="340" cy="36" r="11.5" fill="#E9F3FC" stroke="#BFBFBF"/>
<circle cx="372" cy="36" r="11.5" fill="#E9F3FC" stroke="#BFBFBF"/>
<circle cx="404" cy="36" r="11.5" fill="#E9F3FC" stroke="#BFBFBF"/>
<circle cx="244" cy="68" r="11.5" fill="#E9F3FC" stroke="#BFBFBF"/>
<circle cx="276" cy="68" r="11.5" fill="#E9F3FC" stroke="#BFBFBF"/>
<circle cx="308" cy="68" r="11.5" fill="#E9F3FC" stroke="#BFBFBF"/>
</svg>
