<svg width="154" height="88" viewBox="0 0 154 88" fill="none" xmlns="http://www.w3.org/2000/svg">
<g clip-path="url(#clip0_570_12480)">
<rect x="66" y="32" width="88" height="8" rx="2" fill="#535158"/>
<rect x="66" y="44" width="64" height="8" rx="2" fill="#89888D"/>
<rect x="26.5" y="26.5" width="31" height="31" rx="15.5" fill="#E9F3FC"/>
<rect x="26.5" y="26.5" width="31" height="31" rx="15.5" stroke="#BFBFC3"/>
<circle cx="98" cy="68" r="16" fill="#7B58CF"/>
<circle cx="98" cy="68" r="18" stroke="#7B58CF" stroke-opacity="0.3" stroke-width="4"/>
<path d="M94.1515 74V72.506L98.5255 67.826C99.1615 67.154 99.6115 66.554 99.8755 66.026C100.14 65.498 100.272 64.982 100.272 64.478C100.272 63.758 100.062 63.188 99.6415 62.768C99.2335 62.336 98.6755 62.12 97.9675 62.12C97.2355 62.12 96.6535 62.342 96.2215 62.786C95.8015 63.218 95.5915 63.806 95.5915 64.55H93.9715C93.9955 63.758 94.1755 63.074 94.5115 62.498C94.8475 61.91 95.3095 61.46 95.8975 61.148C96.4855 60.836 97.1755 60.68 97.9675 60.68C98.7835 60.68 99.4855 60.836 100.074 61.148C100.662 61.46 101.118 61.904 101.442 62.48C101.766 63.044 101.928 63.716 101.928 64.496C101.928 65.12 101.754 65.78 101.406 66.476C101.07 67.172 100.488 67.952 99.6595 68.816L96.1135 72.524H102.09V74H94.1515Z" fill="white"/>
<circle cx="20" cy="20" r="16" fill="#7B58CF"/>
<circle cx="20" cy="20" r="18" stroke="#7B58CF" stroke-opacity="0.3" stroke-width="4"/>
<path d="M16.2235 26V24.524H19.7875V14.264L16.2235 16.928V15.074L19.1935 12.86H21.4075V24.524H24.3235V26H16.2235Z" fill="white"/>
</g>
<defs>
<clipPath id="clip0_570_12480">
<rect width="154" height="88" fill="white"/>
</clipPath>
</defs>
</svg>
