<svg width="154" height="88" fill="none" xmlns="http://www.w3.org/2000/svg"><g clip-path="url(#avatar-structure__a)"><rect x="66" y="32" width="88" height="8" rx="2" fill="#535158"/><rect x="66" y="44" width="64" height="8" rx="2" fill="#89888D"/><rect x="26.5" y="26.5" width="31" height="31" rx="15.5" fill="#E9F3FC"/><rect x="26.5" y="26.5" width="31" height="31" rx="15.5" stroke="#BFBFC3"/><circle cx="98" cy="68" r="16" fill="#7B58CF"/><circle cx="98" cy="68" r="18" stroke="#7B58CF" stroke-opacity=".3" stroke-width="4"/><path d="M94.151 74v-1.494l4.374-4.68c.636-.672 1.087-1.272 1.35-1.8.265-.528.397-1.044.397-1.548 0-.72-.21-1.29-.63-1.71-.408-.432-.966-.648-1.674-.648-.733 0-1.315.222-1.746.666-.42.432-.63 1.02-.63 1.764h-1.62c.024-.792.204-1.476.54-2.052a3.41 3.41 0 0 1 1.385-1.35c.588-.312 1.278-.468 2.07-.468.817 0 1.519.156 2.107.468a3.325 3.325 0 0 1 1.368 1.332c.324.564.486 1.236.486 2.016 0 .624-.174 1.284-.522 1.98-.336.696-.918 1.476-1.747 2.34l-3.546 3.708h5.977V74h-7.939Z" fill="#fff"/><circle cx="20" cy="20" r="16" fill="#7B58CF"/><circle cx="20" cy="20" r="18" stroke="#7B58CF" stroke-opacity=".3" stroke-width="4"/><path d="M16.224 26v-1.476h3.564v-10.26l-3.564 2.664v-1.854l2.97-2.214h2.213v11.664h2.916V26h-8.1Z" fill="#fff"/></g><defs><clipPath id="avatar-structure__a"><path fill="#fff" d="M0 0h154v88H0z"/></clipPath></defs></svg>