<svg width="615" height="156" viewBox="0 0 615 156" fill="none" xmlns="http://www.w3.org/2000/svg">
<g clip-path="url(#clip0_579_12484)">
<rect x="30.5" y="30.5" width="559" height="103" rx="3.5" fill="#E9F3FC"/>
<rect x="132" y="102" width="54" height="18" rx="3" fill="#1F75CB"/>
<rect x="132" y="82" width="317" height="6" rx="2" fill="#89888D"/>
<rect x="132" y="72" width="324" height="6" rx="2" fill="#89888D"/>
<rect x="132" y="62" width="320" height="6" rx="2" fill="#89888D"/>
<rect x="132" y="44" width="78" height="8" rx="2" fill="#535158"/>
<path d="M575.95 45.2929C575.559 44.9024 574.926 44.9024 574.536 45.2929L573.121 46.7071L571.707 45.2929C571.317 44.9024 570.683 44.9024 570.293 45.2929C569.902 45.6834 569.902 46.3166 570.293 46.7071L571.707 48.1213L570.293 49.5355C569.902 49.9261 569.902 50.5592 570.293 50.9497C570.683 51.3403 571.317 51.3403 571.707 50.9497L573.121 49.5355L574.536 50.9497C574.926 51.3403 575.559 51.3403 575.95 50.9497C576.34 50.5592 576.34 49.9261 575.95 49.5355L574.536 48.1213L575.95 46.7071C576.34 46.3166 576.34 45.6834 575.95 45.2929Z" fill="#737278"/>
<rect x="45" y="44" width="72" height="72" rx="3" fill="#BFBFC3"/>
<rect x="30.5" y="30.5" width="559" height="103" rx="3.5" stroke="#9DC7F1"/>
<circle cx="159" cy="136" r="16" fill="#7B58CF"/>
<circle cx="159" cy="136" r="18" stroke="#7B58CF" stroke-opacity="0.3" stroke-width="4"/>
<path d="M159.022 142.18C158.182 142.18 157.438 142.006 156.79 141.658C156.154 141.298 155.656 140.806 155.296 140.182C154.936 139.546 154.756 138.814 154.756 137.986C154.756 137.41 154.864 136.822 155.08 136.222C155.296 135.61 155.59 134.974 155.962 134.314L159.004 128.86H160.804L157.564 134.494L157.618 134.53C157.774 134.326 158.008 134.17 158.32 134.062C158.632 133.954 158.974 133.9 159.346 133.9C160.126 133.9 160.804 134.074 161.38 134.422C161.968 134.758 162.424 135.226 162.748 135.826C163.084 136.426 163.252 137.122 163.252 137.914C163.252 138.754 163.072 139.498 162.712 140.146C162.352 140.782 161.854 141.28 161.218 141.64C160.594 142 159.862 142.18 159.022 142.18ZM159.004 140.74C159.532 140.74 159.988 140.626 160.372 140.398C160.768 140.158 161.074 139.828 161.29 139.408C161.518 138.988 161.632 138.502 161.632 137.95C161.632 137.398 161.518 136.912 161.29 136.492C161.074 136.072 160.768 135.748 160.372 135.52C159.988 135.28 159.532 135.16 159.004 135.16C158.488 135.16 158.032 135.28 157.636 135.52C157.24 135.748 156.928 136.072 156.7 136.492C156.484 136.912 156.376 137.398 156.376 137.95C156.376 138.502 156.484 138.988 156.7 139.408C156.928 139.828 157.24 140.158 157.636 140.398C158.032 140.626 158.488 140.74 159.004 140.74Z" fill="white"/>
<circle cx="595" cy="48" r="16" fill="#7B58CF"/>
<circle cx="595" cy="48" r="18" stroke="#7B58CF" stroke-opacity="0.3" stroke-width="4"/>
<path d="M594.896 54.18C593.684 54.18 592.724 53.844 592.016 53.172C591.308 52.488 590.954 51.564 590.954 50.4H592.574C592.574 51.12 592.784 51.69 593.204 52.11C593.624 52.53 594.194 52.74 594.914 52.74C595.634 52.74 596.204 52.53 596.624 52.11C597.044 51.69 597.254 51.12 597.254 50.4V49.59C597.254 48.87 597.05 48.3 596.642 47.88C596.234 47.46 595.682 47.25 594.986 47.25H591.404V40.86H598.406V42.336H592.916L592.952 45.774H595.076C596.288 45.774 597.224 46.11 597.884 46.782C598.544 47.442 598.874 48.378 598.874 49.59V50.4C598.874 51.564 598.514 52.488 597.794 53.172C597.086 53.844 596.12 54.18 594.896 54.18Z" fill="white"/>
<circle cx="294" cy="75" r="16" fill="#7B58CF"/>
<circle cx="294" cy="75" r="18" stroke="#7B58CF" stroke-opacity="0.3" stroke-width="4"/>
<path d="M295.804 81V78.12H289.864V75.582L294.652 67.86H296.488L291.484 75.942V76.644H295.804V73.44H297.424V81H295.804Z" fill="white"/>
<circle cx="171" cy="28" r="16" fill="#7B58CF"/>
<circle cx="171" cy="28" r="18" stroke="#7B58CF" stroke-opacity="0.3" stroke-width="4"/>
<path d="M170.806 34.18C169.594 34.18 168.634 33.844 167.926 33.172C167.218 32.488 166.864 31.564 166.864 30.4H168.484C168.484 31.12 168.694 31.69 169.114 32.11C169.534 32.53 170.104 32.74 170.824 32.74C171.544 32.74 172.114 32.53 172.534 32.11C172.954 31.69 173.164 31.12 173.164 30.4V29.5C173.164 28.78 172.954 28.21 172.534 27.79C172.114 27.37 171.544 27.16 170.824 27.16H169.402V25.756L172.624 22.336H167.224V20.86H174.46V22.372L170.86 26.206V25.72C172.072 25.72 173.026 26.062 173.722 26.746C174.43 27.418 174.784 28.336 174.784 29.5V30.4C174.784 31.564 174.424 32.488 173.704 33.172C172.996 33.844 172.03 34.18 170.806 34.18Z" fill="white"/>
<circle cx="29" cy="80" r="16" fill="#7B58CF"/>
<circle cx="29" cy="80" r="18" stroke="#7B58CF" stroke-opacity="0.3" stroke-width="4"/>
<path d="M25.1515 86V84.506L29.5255 79.826C30.1615 79.154 30.6115 78.554 30.8755 78.026C31.1395 77.498 31.2715 76.982 31.2715 76.478C31.2715 75.758 31.0615 75.188 30.6415 74.768C30.2335 74.336 29.6755 74.12 28.9675 74.12C28.2355 74.12 27.6535 74.342 27.2215 74.786C26.8015 75.218 26.5915 75.806 26.5915 76.55H24.9715C24.9955 75.758 25.1755 75.074 25.5115 74.498C25.8475 73.91 26.3095 73.46 26.8975 73.148C27.4855 72.836 28.1755 72.68 28.9675 72.68C29.7835 72.68 30.4855 72.836 31.0735 73.148C31.6615 73.46 32.1175 73.904 32.4415 74.48C32.7655 75.044 32.9275 75.716 32.9275 76.496C32.9275 77.12 32.7535 77.78 32.4055 78.476C32.0695 79.172 31.4875 79.952 30.6595 80.816L27.1135 84.524H33.0895V86H25.1515Z" fill="white"/>
<circle cx="20" cy="20" r="16" fill="#7B58CF"/>
<circle cx="20" cy="20" r="18" stroke="#7B58CF" stroke-opacity="0.3" stroke-width="4"/>
<path d="M16.2235 26V24.524H19.7875V14.264L16.2235 16.928V15.074L19.1935 12.86H21.4075V24.524H24.3235V26H16.2235Z" fill="white"/>
</g>
<defs>
<clipPath id="clip0_579_12484">
<rect width="615" height="156" fill="white"/>
</clipPath>
</defs>
</svg>
