<svg width="626" height="145" viewBox="0 0 626 145" fill="none" xmlns="http://www.w3.org/2000/svg">
<rect x="36.5" y="24.5" width="559" height="113" rx="3.5" fill="#E9F3FC"/>
<rect x="138" y="96" width="54" height="18" rx="3" fill="#1F75CB"/>
<rect x="138" y="76" width="317" height="6" rx="2" fill="#999999"/>
<rect x="138" y="66" width="324" height="6" rx="2" fill="#999999"/>
<rect x="138" y="56" width="320" height="6" rx="2" fill="#999999"/>
<rect x="138" y="38" width="78" height="8" rx="2" fill="#666666"/>
<path d="M581.95 39.2929C581.559 38.9024 580.926 38.9024 580.536 39.2929L579.121 40.7071L577.707 39.2929C577.317 38.9024 576.683 38.9024 576.293 39.2929C575.902 39.6834 575.902 40.3166 576.293 40.7071L577.707 42.1213L576.293 43.5355C575.902 43.9261 575.902 44.5592 576.293 44.9497C576.683 45.3403 577.317 45.3403 577.707 44.9497L579.121 43.5355L580.536 44.9497C580.926 45.3403 581.559 45.3403 581.95 44.9497C582.34 44.5592 582.34 43.9261 581.95 43.5355L580.536 42.1213L581.95 40.7071C582.34 40.3166 582.34 39.6834 581.95 39.2929Z" fill="#666666"/>
<rect x="51" y="38" width="72" height="72" rx="3" fill="#BFBFBF"/>
<rect x="36.5" y="24.5" width="559" height="113" rx="3.5" stroke="#9DC7F1"/>
<circle cx="165" cy="125" r="16" fill="#7B58CF"/>
<circle cx="165" cy="125" r="18" stroke="#7B58CF" stroke-opacity="0.3" stroke-width="4"/>
<path d="M168.287 118.168V119.803C167.918 119.586 167.525 119.422 167.109 119.311C166.693 119.193 166.26 119.135 165.809 119.135C164.684 119.135 163.831 119.56 163.251 120.409C162.671 121.253 162.381 122.498 162.381 124.145C162.662 123.559 163.052 123.11 163.55 122.8C164.048 122.483 164.619 122.325 165.264 122.325C166.529 122.325 167.508 122.715 168.199 123.494C168.896 124.268 169.245 125.366 169.245 126.79C169.245 128.208 168.888 129.307 168.173 130.086C167.458 130.865 166.453 131.255 165.158 131.255C163.635 131.255 162.519 130.71 161.81 129.62C161.101 128.524 160.746 126.802 160.746 124.452C160.746 122.237 161.171 120.55 162.021 119.39C162.876 118.224 164.112 117.641 165.729 117.641C166.163 117.641 166.597 117.688 167.03 117.781C167.464 117.869 167.883 117.998 168.287 118.168ZM165.123 123.714C164.367 123.714 163.772 123.986 163.339 124.531C162.905 125.076 162.688 125.829 162.688 126.79C162.688 127.751 162.905 128.504 163.339 129.049C163.772 129.594 164.367 129.866 165.123 129.866C165.908 129.866 166.5 129.608 166.898 129.093C167.297 128.571 167.496 127.804 167.496 126.79C167.496 125.771 167.297 125.003 166.898 124.487C166.5 123.972 165.908 123.714 165.123 123.714Z" fill="white"/>
<circle cx="606" cy="42" r="16" fill="#7B58CF"/>
<circle cx="606" cy="42" r="18" stroke="#7B58CF" stroke-opacity="0.3" stroke-width="4"/>
<path d="M602.396 34.8779H609.041V36.3721H604.014V39.5977C604.266 39.5039 604.518 39.4365 604.77 39.3955C605.027 39.3486 605.285 39.3252 605.543 39.3252C606.902 39.3252 607.98 39.7266 608.777 40.5293C609.574 41.332 609.973 42.4189 609.973 43.79C609.973 45.1729 609.554 46.2627 608.716 47.0596C607.884 47.8564 606.744 48.2549 605.297 48.2549C604.6 48.2549 603.961 48.208 603.381 48.1143C602.807 48.0205 602.291 47.8799 601.834 47.6924V45.8906C602.373 46.1836 602.915 46.4033 603.46 46.5498C604.005 46.6904 604.562 46.7607 605.13 46.7607C606.108 46.7607 606.861 46.5029 607.389 45.9873C607.922 45.4717 608.188 44.7393 608.188 43.79C608.188 42.8525 607.913 42.123 607.362 41.6016C606.817 41.0801 606.056 40.8193 605.077 40.8193C604.603 40.8193 604.14 40.875 603.688 40.9863C603.237 41.0918 602.807 41.2529 602.396 41.4697V34.8779Z" fill="white"/>
<circle cx="296" cy="69" r="16" fill="#7B58CF"/>
<circle cx="296" cy="69" r="18" stroke="#7B58CF" stroke-opacity="0.3" stroke-width="4"/>
<path d="M297.037 63.4951L292.897 70.4297H297.037V63.4951ZM296.747 61.8779H298.804V70.4297H300.553V71.8711H298.804V75H297.037V71.8711H291.474V70.1924L296.747 61.8779Z" fill="white"/>
<circle cx="177" cy="42" r="16" fill="#7B58CF"/>
<circle cx="177" cy="42" r="18" stroke="#7B58CF" stroke-opacity="0.3" stroke-width="4"/>
<path d="M178.397 40.9775C179.259 41.2061 179.918 41.6133 180.375 42.1992C180.832 42.7793 181.061 43.5059 181.061 44.3789C181.061 45.5859 180.653 46.5352 179.839 47.2266C179.03 47.9121 177.908 48.2549 176.473 48.2549C175.869 48.2549 175.254 48.1992 174.627 48.0879C174 47.9766 173.385 47.8154 172.781 47.6045V45.8379C173.379 46.1484 173.968 46.3799 174.548 46.5322C175.128 46.6846 175.705 46.7607 176.279 46.7607C177.252 46.7607 177.999 46.541 178.521 46.1016C179.042 45.6621 179.303 45.0293 179.303 44.2031C179.303 43.4414 179.042 42.8379 178.521 42.3926C177.999 41.9414 177.293 41.7158 176.402 41.7158H175.049V40.2568H176.402C177.217 40.2568 177.853 40.0781 178.31 39.7207C178.767 39.3633 178.995 38.8652 178.995 38.2266C178.995 37.5527 178.781 37.0371 178.354 36.6797C177.932 36.3164 177.328 36.1348 176.543 36.1348C176.021 36.1348 175.482 36.1934 174.926 36.3105C174.369 36.4277 173.786 36.6035 173.177 36.8379V35.2031C173.886 35.0156 174.516 34.875 175.066 34.7812C175.623 34.6875 176.115 34.6406 176.543 34.6406C177.82 34.6406 178.84 34.9629 179.602 35.6074C180.369 36.2461 180.753 37.0957 180.753 38.1562C180.753 38.877 180.551 39.4775 180.146 39.958C179.748 40.4385 179.165 40.7783 178.397 40.9775Z" fill="white"/>
<circle cx="87" cy="74" r="16" fill="#7B58CF"/>
<circle cx="87" cy="74" r="18" stroke="#7B58CF" stroke-opacity="0.3" stroke-width="4"/>
<path d="M84.8555 78.5059H90.8848V80H82.9131V78.5059C84.0088 77.3516 84.9668 76.332 85.7871 75.4473C86.6074 74.5625 87.1729 73.9385 87.4834 73.5752C88.0693 72.8604 88.4648 72.2832 88.6699 71.8438C88.875 71.3984 88.9775 70.9443 88.9775 70.4814C88.9775 69.749 88.7607 69.1748 88.3271 68.7588C87.8994 68.3428 87.3105 68.1348 86.5605 68.1348C86.0273 68.1348 85.4678 68.2314 84.8818 68.4248C84.2959 68.6182 83.6748 68.9111 83.0186 69.3037V67.5107C83.6221 67.2236 84.2139 67.0068 84.7939 66.8604C85.3799 66.7139 85.957 66.6406 86.5254 66.6406C87.8086 66.6406 88.8398 66.9834 89.6191 67.6689C90.4043 68.3486 90.7969 69.2422 90.7969 70.3496C90.7969 70.9121 90.665 71.4746 90.4014 72.0371C90.1436 72.5996 89.7217 73.2207 89.1357 73.9004C88.8076 74.2812 88.3301 74.8086 87.7031 75.4824C87.082 76.1562 86.1328 77.1641 84.8555 78.5059Z" fill="white"/>
<circle cx="20" cy="20" r="16" fill="#7B58CF"/>
<circle cx="20" cy="20" r="18" stroke="#7B58CF" stroke-opacity="0.3" stroke-width="4"/>
<path d="M16.9502 24.5146H19.71V14.6006L16.4053 16.1914V14.4863L19.6924 12.9219H21.4678V24.5146H24.1924V26H16.9502V24.5146Z" fill="white"/>
</svg>
