<svg width="632" height="160" viewBox="0 0 632 160" fill="none" xmlns="http://www.w3.org/2000/svg">
<rect x="36.5" y="24.5" width="559" height="113" rx="5.5" fill="#E9F3FC"/>
<rect x="138" y="96" width="54" height="18" rx="3" fill="#1F75CB"/>
<rect x="138" y="76" width="317" height="6" rx="2" fill="#999999"/>
<rect x="138" y="66" width="324" height="6" rx="2" fill="#999999"/>
<rect x="138" y="56" width="320" height="6" rx="2" fill="#999999"/>
<rect x="138" y="38" width="78" height="8" rx="2" fill="#666666"/>
<path d="M581.95 39.2929C581.559 38.9024 580.926 38.9024 580.536 39.2929L579.121 40.7071L577.707 39.2929C577.317 38.9024 576.683 38.9024 576.293 39.2929C575.902 39.6834 575.902 40.3166 576.293 40.7071L577.707 42.1213L576.293 43.5355C575.902 43.9261 575.902 44.5592 576.293 44.9497C576.683 45.3403 577.317 45.3403 577.707 44.9497L579.121 43.5355L580.536 44.9497C580.926 45.3403 581.559 45.3403 581.95 44.9497C582.34 44.5592 582.34 43.9261 581.95 43.5355L580.536 42.1213L581.95 40.7071C582.34 40.3166 582.34 39.6834 581.95 39.2929Z" fill="#666666"/>
<circle cx="409" cy="54" r="16" fill="#7B58CF"/>
<circle cx="409" cy="54" r="18" stroke="#7B58CF" stroke-opacity="0.3" stroke-width="4"/>
<path d="M410.037 48.4951L405.897 55.4297H410.037V48.4951ZM409.747 46.8779H411.804V55.4297H413.553V56.8711H411.804V60H410.037V56.8711H404.474V55.1924L409.747 46.8779Z" fill="white"/>
<rect x="51" y="38" width="72" height="72" rx="3" fill="#BFBFBF"/>
<rect x="36.5" y="24.5" width="559" height="113" rx="5.5" stroke="#9DC7F1"/>
<circle cx="216" cy="114" r="16" fill="#7B58CF"/>
<circle cx="216" cy="114" r="18" stroke="#7B58CF" stroke-opacity="0.3" stroke-width="4"/>
<path d="M219.287 107.168V108.803C218.918 108.586 218.525 108.422 218.109 108.311C217.693 108.193 217.26 108.135 216.809 108.135C215.684 108.135 214.831 108.56 214.251 109.409C213.671 110.253 213.381 111.498 213.381 113.145C213.662 112.559 214.052 112.11 214.55 111.8C215.048 111.483 215.619 111.325 216.264 111.325C217.529 111.325 218.508 111.715 219.199 112.494C219.896 113.268 220.245 114.366 220.245 115.79C220.245 117.208 219.888 118.307 219.173 119.086C218.458 119.865 217.453 120.255 216.158 120.255C214.635 120.255 213.519 119.71 212.81 118.62C212.101 117.524 211.746 115.802 211.746 113.452C211.746 111.237 212.171 109.55 213.021 108.39C213.876 107.224 215.112 106.641 216.729 106.641C217.163 106.641 217.597 106.688 218.03 106.781C218.464 106.869 218.883 106.998 219.287 107.168ZM216.123 112.714C215.367 112.714 214.772 112.986 214.339 113.531C213.905 114.076 213.688 114.829 213.688 115.79C213.688 116.751 213.905 117.504 214.339 118.049C214.772 118.594 215.367 118.866 216.123 118.866C216.908 118.866 217.5 118.608 217.898 118.093C218.297 117.571 218.496 116.804 218.496 115.79C218.496 114.771 218.297 114.003 217.898 113.487C217.5 112.972 216.908 112.714 216.123 112.714Z" fill="white"/>
<circle cx="220" cy="36" r="16" fill="#7B58CF"/>
<circle cx="220" cy="36" r="18" stroke="#7B58CF" stroke-opacity="0.3" stroke-width="4"/>
<path d="M221.397 34.9775C222.259 35.2061 222.918 35.6133 223.375 36.1992C223.832 36.7793 224.061 37.5059 224.061 38.3789C224.061 39.5859 223.653 40.5352 222.839 41.2266C222.03 41.9121 220.908 42.2549 219.473 42.2549C218.869 42.2549 218.254 42.1992 217.627 42.0879C217 41.9766 216.385 41.8154 215.781 41.6045V39.8379C216.379 40.1484 216.968 40.3799 217.548 40.5322C218.128 40.6846 218.705 40.7607 219.279 40.7607C220.252 40.7607 220.999 40.541 221.521 40.1016C222.042 39.6621 222.303 39.0293 222.303 38.2031C222.303 37.4414 222.042 36.8379 221.521 36.3926C220.999 35.9414 220.293 35.7158 219.402 35.7158H218.049V34.2568H219.402C220.217 34.2568 220.853 34.0781 221.31 33.7207C221.767 33.3633 221.995 32.8652 221.995 32.2266C221.995 31.5527 221.781 31.0371 221.354 30.6797C220.932 30.3164 220.328 30.1348 219.543 30.1348C219.021 30.1348 218.482 30.1934 217.926 30.3105C217.369 30.4277 216.786 30.6035 216.177 30.8379V29.2031C216.886 29.0156 217.516 28.875 218.066 28.7812C218.623 28.6875 219.115 28.6406 219.543 28.6406C220.82 28.6406 221.84 28.9629 222.602 29.6074C223.369 30.2461 223.753 31.0957 223.753 32.1562C223.753 32.877 223.551 33.4775 223.146 33.958C222.748 34.4385 222.165 34.7783 221.397 34.9775Z" fill="white"/>
<circle cx="102" cy="52" r="16" fill="#7B58CF"/>
<circle cx="102" cy="52" r="18" stroke="#7B58CF" stroke-opacity="0.3" stroke-width="4"/>
<path d="M99.8555 56.5059H105.885V58H97.9131V56.5059C99.0088 55.3516 99.9668 54.332 100.787 53.4473C101.607 52.5625 102.173 51.9385 102.483 51.5752C103.069 50.8604 103.465 50.2832 103.67 49.8438C103.875 49.3984 103.978 48.9443 103.978 48.4814C103.978 47.749 103.761 47.1748 103.327 46.7588C102.899 46.3428 102.311 46.1348 101.561 46.1348C101.027 46.1348 100.468 46.2314 99.8818 46.4248C99.2959 46.6182 98.6748 46.9111 98.0186 47.3037V45.5107C98.6221 45.2236 99.2139 45.0068 99.7939 44.8604C100.38 44.7139 100.957 44.6406 101.525 44.6406C102.809 44.6406 103.84 44.9834 104.619 45.6689C105.404 46.3486 105.797 47.2422 105.797 48.3496C105.797 48.9121 105.665 49.4746 105.401 50.0371C105.144 50.5996 104.722 51.2207 104.136 51.9004C103.808 52.2812 103.33 52.8086 102.703 53.4824C102.082 54.1562 101.133 55.1641 99.8555 56.5059Z" fill="white"/>
<circle cx="20" cy="20" r="16" fill="#7B58CF"/>
<circle cx="20" cy="20" r="18" stroke="#7B58CF" stroke-opacity="0.3" stroke-width="4"/>
<path d="M16.9502 24.5146H19.71V14.6006L16.4053 16.1914V14.4863L19.6924 12.9219H21.4678V24.5146H24.1924V26H16.9502V24.5146Z" fill="white"/>
<circle cx="603" cy="53" r="16" fill="#7B58CF"/>
<circle cx="603" cy="53" r="18" stroke="#7B58CF" stroke-opacity="0.3" stroke-width="4"/>
<path d="M599.396 45.8779H606.041V47.3721H601.014V50.5977C601.266 50.5039 601.518 50.4365 601.77 50.3955C602.027 50.3486 602.285 50.3252 602.543 50.3252C603.902 50.3252 604.98 50.7266 605.777 51.5293C606.574 52.332 606.973 53.4189 606.973 54.79C606.973 56.1729 606.554 57.2627 605.716 58.0596C604.884 58.8564 603.744 59.2549 602.297 59.2549C601.6 59.2549 600.961 59.208 600.381 59.1143C599.807 59.0205 599.291 58.8799 598.834 58.6924V56.8906C599.373 57.1836 599.915 57.4033 600.46 57.5498C601.005 57.6904 601.562 57.7607 602.13 57.7607C603.108 57.7607 603.861 57.5029 604.389 56.9873C604.922 56.4717 605.188 55.7393 605.188 54.79C605.188 53.8525 604.913 53.123 604.362 52.6016C603.817 52.0801 603.056 51.8193 602.077 51.8193C601.603 51.8193 601.14 51.875 600.688 51.9863C600.237 52.0918 599.807 52.2529 599.396 52.4697V45.8779Z" fill="white"/>
</svg>
