<svg width="198" height="89" viewBox="0 0 198 89" fill="none" xmlns="http://www.w3.org/2000/svg">
<rect width="198" height="89" fill="white"/>
<rect x="12" y="37" width="16" height="16" rx="4" fill="#E9F3FC"/>
<rect x="12.5" y="37.5" width="15" height="15" rx="3.5" stroke="#1F1E24" stroke-opacity="0.08"/>
<rect x="32" y="41" width="56" height="8" rx="2" fill="#535158"/>
<path fill-rule="evenodd" clip-rule="evenodd" d="M102.279 39.3036C102.663 39.4575 102.85 39.894 102.696 40.2785L98.6964 50.2785C98.5425 50.6631 98.106 50.8502 97.7215 50.6964C97.3369 50.5425 97.1498 50.106 97.3036 49.7215L101.304 39.7215C101.457 39.3369 101.894 39.1498 102.279 39.3036Z" fill="#BFBFC3"/>
<rect x="112" y="41" width="56" height="8" rx="2" fill="#A4A3A8"/>
<line x1="12" y1="68.5" x2="168" y2="68.5" stroke="#DCDCDE"/>
<circle cx="157" cy="27" r="16" fill="#7B58CF"/>
<circle cx="157" cy="27" r="18" stroke="#7B58CF" stroke-opacity="0.3" stroke-width="4"/>
<path d="M158.397 25.9775C159.259 26.2061 159.918 26.6133 160.375 27.1992C160.832 27.7793 161.061 28.5059 161.061 29.3789C161.061 30.5859 160.653 31.5352 159.839 32.2266C159.03 32.9121 157.908 33.2549 156.473 33.2549C155.869 33.2549 155.254 33.1992 154.627 33.0879C154 32.9766 153.385 32.8154 152.781 32.6045V30.8379C153.379 31.1484 153.968 31.3799 154.548 31.5322C155.128 31.6846 155.705 31.7607 156.279 31.7607C157.252 31.7607 157.999 31.541 158.521 31.1016C159.042 30.6621 159.303 30.0293 159.303 29.2031C159.303 28.4414 159.042 27.8379 158.521 27.3926C157.999 26.9414 157.293 26.7158 156.402 26.7158H155.049V25.2568H156.402C157.217 25.2568 157.853 25.0781 158.31 24.7207C158.767 24.3633 158.995 23.8652 158.995 23.2266C158.995 22.5527 158.781 22.0371 158.354 21.6797C157.932 21.3164 157.328 21.1348 156.543 21.1348C156.021 21.1348 155.482 21.1934 154.926 21.3105C154.369 21.4277 153.786 21.6035 153.177 21.8379V20.2031C153.886 20.0156 154.516 19.875 155.066 19.7812C155.623 19.6875 156.115 19.6406 156.543 19.6406C157.82 19.6406 158.84 19.9629 159.602 20.6074C160.369 21.2461 160.753 22.0957 160.753 23.1562C160.753 23.877 160.551 24.4775 160.146 24.958C159.748 25.4385 159.165 25.7783 158.397 25.9775Z" fill="white"/>
<circle cx="178" cy="69" r="16" fill="#7B58CF"/>
<circle cx="178" cy="69" r="18" stroke="#7B58CF" stroke-opacity="0.3" stroke-width="4"/>
<path d="M179.037 63.4951L174.897 70.4297H179.037V63.4951ZM178.747 61.8779H180.804V70.4297H182.553V71.8711H180.804V75H179.037V71.8711H173.474V70.1924L178.747 61.8779Z" fill="white"/>
<circle cx="79" cy="27" r="16" fill="#7B58CF"/>
<circle cx="79" cy="27" r="18" stroke="#7B58CF" stroke-opacity="0.3" stroke-width="4"/>
<path d="M76.8555 31.5059H82.8848V33H74.9131V31.5059C76.0088 30.3516 76.9668 29.332 77.7871 28.4473C78.6074 27.5625 79.1729 26.9385 79.4834 26.5752C80.0693 25.8604 80.4648 25.2832 80.6699 24.8438C80.875 24.3984 80.9775 23.9443 80.9775 23.4814C80.9775 22.749 80.7607 22.1748 80.3271 21.7588C79.8994 21.3428 79.3105 21.1348 78.5605 21.1348C78.0273 21.1348 77.4678 21.2314 76.8818 21.4248C76.2959 21.6182 75.6748 21.9111 75.0186 22.3037V20.5107C75.6221 20.2236 76.2139 20.0068 76.7939 19.8604C77.3799 19.7139 77.957 19.6406 78.5254 19.6406C79.8086 19.6406 80.8398 19.9834 81.6191 20.6689C82.4043 21.3486 82.7969 22.2422 82.7969 23.3496C82.7969 23.9121 82.665 24.4746 82.4014 25.0371C82.1436 25.5996 81.7217 26.2207 81.1357 26.9004C80.8076 27.2812 80.3301 27.8086 79.7031 28.4824C79.082 29.1562 78.1328 30.1641 76.8555 31.5059Z" fill="white"/>
<circle cx="20" cy="20" r="16" fill="#7B58CF"/>
<circle cx="20" cy="20" r="18" stroke="#7B58CF" stroke-opacity="0.3" stroke-width="4"/>
<path d="M16.9502 24.5146H19.71V14.6006L16.4053 16.1914V14.4863L19.6924 12.9219H21.4678V24.5146H24.1924V26H16.9502V24.5146Z" fill="white"/>
</svg>
