<svg width="204" height="87" viewBox="0 0 204 87" fill="none" xmlns="http://www.w3.org/2000/svg">
<rect width="204" height="87" fill="white"/>
<rect x="24.5" y="37.5" width="15" height="15" rx="3.5" fill="#E9F3FC" stroke="#BFBFBF"/>
<rect x="44" y="41" width="56" height="8" rx="2" fill="#868686"/>
<path fill-rule="evenodd" clip-rule="evenodd" d="M114.707 44.2929C115.098 44.6834 115.098 45.3166 114.707 45.7071L111.707 48.7071C111.317 49.0976 110.683 49.0976 110.293 48.7071C109.902 48.3166 109.902 47.6834 110.293 47.2929L112.586 45L110.293 42.7071C109.902 42.3166 109.902 41.6834 110.293 41.2929C110.683 40.9024 111.317 40.9024 111.707 41.2929L114.707 44.2929Z" fill="#666666"/>
<rect x="124" y="41" width="56" height="8" rx="2" fill="#525252"/>
<circle cx="112" cy="67" r="16" fill="#7B58CF"/>
<circle cx="112" cy="67" r="18" stroke="#7B58CF" stroke-opacity="0.3" stroke-width="4"/>
<path d="M113.397 65.9775C114.259 66.2061 114.918 66.6133 115.375 67.1992C115.832 67.7793 116.061 68.5059 116.061 69.3789C116.061 70.5859 115.653 71.5352 114.839 72.2266C114.03 72.9121 112.908 73.2549 111.473 73.2549C110.869 73.2549 110.254 73.1992 109.627 73.0879C109 72.9766 108.385 72.8154 107.781 72.6045V70.8379C108.379 71.1484 108.968 71.3799 109.548 71.5322C110.128 71.6846 110.705 71.7607 111.279 71.7607C112.252 71.7607 112.999 71.541 113.521 71.1016C114.042 70.6621 114.303 70.0293 114.303 69.2031C114.303 68.4414 114.042 67.8379 113.521 67.3926C112.999 66.9414 112.293 66.7158 111.402 66.7158H110.049V65.2568H111.402C112.217 65.2568 112.853 65.0781 113.31 64.7207C113.767 64.3633 113.995 63.8652 113.995 63.2266C113.995 62.5527 113.781 62.0371 113.354 61.6797C112.932 61.3164 112.328 61.1348 111.543 61.1348C111.021 61.1348 110.482 61.1934 109.926 61.3105C109.369 61.4277 108.786 61.6035 108.177 61.8379V60.2031C108.886 60.0156 109.516 59.875 110.066 59.7812C110.623 59.6875 111.115 59.6406 111.543 59.6406C112.82 59.6406 113.84 59.9629 114.602 60.6074C115.369 61.2461 115.753 62.0957 115.753 63.1562C115.753 63.877 115.551 64.4775 115.146 64.958C114.748 65.4385 114.165 65.7783 113.397 65.9775Z" fill="white"/>
<circle cx="72" cy="67" r="16" fill="#7B58CF"/>
<circle cx="72" cy="67" r="18" stroke="#7B58CF" stroke-opacity="0.3" stroke-width="4"/>
<path d="M69.8555 71.5059H75.8848V73H67.9131V71.5059C69.0088 70.3516 69.9668 69.332 70.7871 68.4473C71.6074 67.5625 72.1729 66.9385 72.4834 66.5752C73.0693 65.8604 73.4648 65.2832 73.6699 64.8438C73.875 64.3984 73.9775 63.9443 73.9775 63.4814C73.9775 62.749 73.7607 62.1748 73.3271 61.7588C72.8994 61.3428 72.3105 61.1348 71.5605 61.1348C71.0273 61.1348 70.4678 61.2314 69.8818 61.4248C69.2959 61.6182 68.6748 61.9111 68.0186 62.3037V60.5107C68.6221 60.2236 69.2139 60.0068 69.7939 59.8604C70.3799 59.7139 70.957 59.6406 71.5254 59.6406C72.8086 59.6406 73.8398 59.9834 74.6191 60.6689C75.4043 61.3486 75.7969 62.2422 75.7969 63.3496C75.7969 63.9121 75.665 64.4746 75.4014 65.0371C75.1436 65.5996 74.7217 66.2207 74.1357 66.9004C73.8076 67.2812 73.3301 67.8086 72.7031 68.4824C72.082 69.1562 71.1328 70.1641 69.8555 71.5059Z" fill="white"/>
<circle cx="32" cy="20" r="16" fill="#7B58CF"/>
<circle cx="32" cy="20" r="18" stroke="#7B58CF" stroke-opacity="0.3" stroke-width="4"/>
<path d="M28.9502 24.5146H31.71V14.6006L28.4053 16.1914V14.4863L31.6924 12.9219H33.4678V24.5146H36.1924V26H28.9502V24.5146Z" fill="white"/>
</svg>
