<svg width="200" height="85" viewBox="0 0 200 85" fill="none" xmlns="http://www.w3.org/2000/svg">
<rect width="200" height="85" fill="white"/>
<rect x="12.5" y="37.5" width="15" height="15" rx="3.5" fill="#E9F3FC"/>
<rect x="12.5" y="37.5" width="15" height="15" rx="3.5" stroke="#BFBFC3"/>
<rect x="32" y="41" width="78" height="8" rx="2" fill="#89888D"/>
<path d="M118 39.5H116.57L114 50.5H115.43L118 39.5Z" fill="#BFBFC3"/>
<rect x="122" y="41" width="78" height="8" rx="2" fill="#535158"/>
<circle cx="117" cy="23" r="16" fill="#7B58CF"/>
<circle cx="117" cy="23" r="18" stroke="#7B58CF" stroke-opacity="0.3" stroke-width="4"/>
<path d="M116.806 29.18C115.594 29.18 114.634 28.844 113.926 28.172C113.218 27.488 112.864 26.564 112.864 25.4H114.484C114.484 26.12 114.694 26.69 115.114 27.11C115.534 27.53 116.104 27.74 116.824 27.74C117.544 27.74 118.114 27.53 118.534 27.11C118.954 26.69 119.164 26.12 119.164 25.4V24.5C119.164 23.78 118.954 23.21 118.534 22.79C118.114 22.37 117.544 22.16 116.824 22.16H115.402V20.756L118.624 17.336H113.224V15.86H120.46V17.372L116.86 21.206V20.72C118.072 20.72 119.026 21.062 119.722 21.746C120.43 22.418 120.784 23.336 120.784 24.5V25.4C120.784 26.564 120.424 27.488 119.704 28.172C118.996 28.844 118.03 29.18 116.806 29.18Z" fill="white"/>
<circle cx="71" cy="65" r="16" fill="#7B58CF"/>
<circle cx="71" cy="65" r="18" stroke="#7B58CF" stroke-opacity="0.3" stroke-width="4"/>
<path d="M67.1515 71V69.506L71.5255 64.826C72.1615 64.154 72.6115 63.554 72.8755 63.026C73.1395 62.498 73.2715 61.982 73.2715 61.478C73.2715 60.758 73.0615 60.188 72.6415 59.768C72.2335 59.336 71.6755 59.12 70.9675 59.12C70.2355 59.12 69.6535 59.342 69.2215 59.786C68.8015 60.218 68.5915 60.806 68.5915 61.55H66.9715C66.9955 60.758 67.1755 60.074 67.5115 59.498C67.8475 58.91 68.3095 58.46 68.8975 58.148C69.4855 57.836 70.1755 57.68 70.9675 57.68C71.7835 57.68 72.4855 57.836 73.0735 58.148C73.6615 58.46 74.1175 58.904 74.4415 59.48C74.7655 60.044 74.9275 60.716 74.9275 61.496C74.9275 62.12 74.7535 62.78 74.4055 63.476C74.0695 64.172 73.4875 64.952 72.6595 65.816L69.1135 69.524H75.0895V71H67.1515Z" fill="white"/>
<circle cx="20" cy="21" r="16" fill="#7B58CF"/>
<circle cx="20" cy="21" r="18" stroke="#7B58CF" stroke-opacity="0.3" stroke-width="4"/>
<path d="M16.2235 27V25.524H19.7875V15.264L16.2235 17.928V16.074L19.1935 13.86H21.4075V25.524H24.3235V27H16.2235Z" fill="white"/>
</svg>
