<svg width="198" height="89" viewBox="0 0 198 89" fill="none" xmlns="http://www.w3.org/2000/svg">
<rect width="198" height="89" fill="white"/>
<rect x="12" y="37" width="16" height="16" rx="4" fill="#E9F3FC"/>
<rect x="12.5" y="37.5" width="15" height="15" rx="3.5" stroke="#1F1E24" stroke-opacity="0.08"/>
<rect x="32" y="41" width="56" height="8" rx="2" fill="#535158"/>
<path fill-rule="evenodd" clip-rule="evenodd" d="M102.279 39.3036C102.663 39.4575 102.85 39.894 102.696 40.2785L98.6964 50.2785C98.5425 50.6631 98.1061 50.8502 97.7215 50.6964C97.3369 50.5425 97.1498 50.106 97.3036 49.7215L101.304 39.7215C101.457 39.3369 101.894 39.1498 102.279 39.3036Z" fill="#BFBFC3"/>
<rect x="112" y="41" width="56" height="8" rx="2" fill="#A4A3A8"/>
<line x1="12" y1="68.5" x2="168" y2="68.5" stroke="#DCDCDE"/>
<circle cx="178" cy="69" r="16" fill="#7B58CF"/>
<circle cx="178" cy="69" r="18" stroke="#7B58CF" stroke-opacity="0.3" stroke-width="4"/>
<path d="M179.037 63.4951L174.897 70.4297H179.037V63.4951ZM178.747 61.8779H180.804V70.4297H182.553V71.8711H180.804V75H179.037V71.8711H173.474V70.1924L178.747 61.8779Z" fill="white"/>
<circle cx="102" cy="21" r="16" fill="#7B58CF"/>
<circle cx="102" cy="21" r="18" stroke="#7B58CF" stroke-opacity="0.3" stroke-width="4"/>
<path d="M103.397 19.9775C104.259 20.2061 104.918 20.6133 105.375 21.1992C105.832 21.7793 106.061 22.5059 106.061 23.3789C106.061 24.5859 105.653 25.5352 104.839 26.2266C104.03 26.9121 102.908 27.2549 101.473 27.2549C100.869 27.2549 100.254 27.1992 99.627 27.0879C99 26.9766 98.3848 26.8154 97.7812 26.6045V24.8379C98.3789 25.1484 98.9678 25.3799 99.5479 25.5322C100.128 25.6846 100.705 25.7607 101.279 25.7607C102.252 25.7607 102.999 25.541 103.521 25.1016C104.042 24.6621 104.303 24.0293 104.303 23.2031C104.303 22.4414 104.042 21.8379 103.521 21.3926C102.999 20.9414 102.293 20.7158 101.402 20.7158H100.049V19.2568H101.402C102.217 19.2568 102.853 19.0781 103.31 18.7207C103.767 18.3633 103.995 17.8652 103.995 17.2266C103.995 16.5527 103.781 16.0371 103.354 15.6797C102.932 15.3164 102.328 15.1348 101.543 15.1348C101.021 15.1348 100.482 15.1934 99.9258 15.3105C99.3691 15.4277 98.7861 15.6035 98.1768 15.8379V14.2031C98.8857 14.0156 99.5156 13.875 100.066 13.7812C100.623 13.6875 101.115 13.6406 101.543 13.6406C102.82 13.6406 103.84 13.9629 104.602 14.6074C105.369 15.2461 105.753 16.0957 105.753 17.1562C105.753 17.877 105.551 18.4775 105.146 18.958C104.748 19.4385 104.165 19.7783 103.397 19.9775Z" fill="white"/>
<circle cx="61" cy="59" r="16" fill="#7B58CF"/>
<circle cx="61" cy="59" r="18" stroke="#7B58CF" stroke-opacity="0.3" stroke-width="4"/>
<path d="M58.8555 63.5059H64.8848V65H56.9131V63.5059C58.0088 62.3516 58.9668 61.332 59.7871 60.4473C60.6074 59.5625 61.1729 58.9385 61.4834 58.5752C62.0693 57.8604 62.4648 57.2832 62.6699 56.8438C62.875 56.3984 62.9775 55.9443 62.9775 55.4814C62.9775 54.749 62.7607 54.1748 62.3271 53.7588C61.8994 53.3428 61.3105 53.1348 60.5605 53.1348C60.0273 53.1348 59.4678 53.2314 58.8818 53.4248C58.2959 53.6182 57.6748 53.9111 57.0186 54.3037V52.5107C57.6221 52.2236 58.2139 52.0068 58.7939 51.8604C59.3799 51.7139 59.957 51.6406 60.5254 51.6406C61.8086 51.6406 62.8398 51.9834 63.6191 52.6689C64.4043 53.3486 64.7969 54.2422 64.7969 55.3496C64.7969 55.9121 64.665 56.4746 64.4014 57.0371C64.1436 57.5996 63.7217 58.2207 63.1357 58.9004C62.8076 59.2812 62.3301 59.8086 61.7031 60.4824C61.082 61.1562 60.1328 62.1641 58.8555 63.5059Z" fill="white"/>
<circle cx="20" cy="20" r="16" fill="#7B58CF"/>
<circle cx="20" cy="20" r="18" stroke="#7B58CF" stroke-opacity="0.3" stroke-width="4"/>
<path d="M16.9502 24.5146H19.71V14.6006L16.4053 16.1914V14.4863L19.6924 12.9219H21.4678V24.5146H24.1924V26H16.9502V24.5146Z" fill="white"/>
</svg>
