<svg width="173" height="93" viewBox="0 0 173 93" fill="none" xmlns="http://www.w3.org/2000/svg"><path fill="#fff" d="M0 0h172v93H0z"/><rect x="12.5" y="37.5" width="15" height="15" rx="3.5" fill="#E9F3FC" stroke="#BFBFC3"/><rect x="32" y="41" width="72" height="8" rx="2" fill="#89888D"/><path d="M112.377 39.773h-1.565L108 50.227h1.564l2.813-10.454Z" fill="#BFBFC3"/><rect x="116.377" y="41" width="56" height="8" rx="2" fill="#535158"/><circle cx="110" cy="73" r="16" fill="#7B58CF"/><circle cx="110" cy="73" r="18" stroke="#7B58CF" stroke-opacity=".3" stroke-width="4"/><path d="M111.397 71.978c.862.228 1.521.635 1.978 1.221.457.58.686 1.307.686 2.18 0 1.207-.408 2.156-1.222 2.848-.809.685-1.931 1.028-3.366 1.028-.604 0-1.219-.056-1.846-.167a11.898 11.898 0 0 1-1.846-.483v-1.767a8.56 8.56 0 0 0 1.767.694c.58.153 1.157.229 1.731.229.973 0 1.72-.22 2.242-.66.521-.439.782-1.072.782-1.898 0-.762-.261-1.365-.782-1.81-.522-.452-1.228-.677-2.119-.677h-1.353v-1.46h1.353c.815 0 1.451-.178 1.908-.535.457-.358.685-.856.685-1.494 0-.674-.214-1.19-.641-1.547-.422-.364-1.026-.545-1.811-.545a7.84 7.84 0 0 0-1.617.175 11.45 11.45 0 0 0-1.749.528v-1.635a21.899 21.899 0 0 1 1.889-.422 9.025 9.025 0 0 1 1.477-.14c1.277 0 2.297.322 3.059.966.767.64 1.151 1.489 1.151 2.55 0 .72-.202 1.32-.607 1.801-.398.48-.981.82-1.749 1.02Z" fill="#fff"/><circle cx="60" cy="67" r="16" fill="#7B58CF"/><circle cx="60" cy="67" r="18" stroke="#7B58CF" stroke-opacity=".3" stroke-width="4"/><path d="M57.855 71.506h6.03V73h-7.972v-1.494a363.318 363.318 0 0 0 2.874-3.059 73.424 73.424 0 0 0 1.696-1.872c.586-.715.982-1.292 1.187-1.731.205-.446.307-.9.307-1.363 0-.732-.216-1.306-.65-1.722-.428-.416-1.017-.624-1.767-.624-.533 0-1.092.096-1.678.29a9.421 9.421 0 0 0-1.863.879V60.51a9.622 9.622 0 0 1 1.775-.65 7.12 7.12 0 0 1 1.731-.22c1.284 0 2.315.342 3.094 1.028.785.68 1.178 1.573 1.178 2.68 0 .563-.132 1.126-.396 1.688-.257.563-.68 1.184-1.265 1.863-.328.381-.806.909-1.433 1.582-.621.674-1.57 1.682-2.848 3.024Z" fill="#fff"/><circle cx="20" cy="20" r="16" fill="#7B58CF"/><circle cx="20" cy="20" r="18" stroke="#7B58CF" stroke-opacity=".3" stroke-width="4"/><path d="M16.95 24.515h2.76V14.6l-3.305 1.59v-1.705l3.287-1.564h1.776v11.593h2.724V26H16.95v-1.485Z" fill="#fff"/></svg>