<svg width="616" height="91" viewBox="0 0 616 91" fill="none" xmlns="http://www.w3.org/2000/svg">
<g clip-path="url(#clip0_443_4117)">
<rect width="560" height="43" transform="translate(31 31)" fill="#41419F"/>
<rect x="61" y="46" width="489" height="6" rx="2" fill="white"/>
<rect x="61" y="56" width="383" height="6" rx="2" fill="white"/>
<path d="M576.95 46.2929C576.559 45.9024 575.926 45.9024 575.536 46.2929L574.121 47.7071L572.707 46.2929C572.317 45.9024 571.683 45.9024 571.293 46.2929C570.902 46.6834 570.902 47.3166 571.293 47.7071L572.707 49.1213L571.293 50.5355C570.902 50.9261 570.902 51.5592 571.293 51.9497C571.683 52.3403 572.317 52.3403 572.707 51.9497L574.121 50.5355L575.536 51.9497C575.926 52.3403 576.559 52.3403 576.95 51.9497C577.34 51.5592 577.34 50.9261 576.95 50.5355L575.536 49.1213L576.95 47.7071C577.34 47.3166 577.34 46.6834 576.95 46.2929Z" fill="white"/>
<circle cx="47" cy="49" r="6" fill="white"/>
<circle cx="596" cy="49" r="16" fill="#7B58CF"/>
<circle cx="596" cy="49" r="18" stroke="#7B58CF" stroke-opacity="0.3" stroke-width="4"/>
<path d="M597.804 55V52.12H591.864V49.582L596.652 41.86H598.488L593.484 49.942V50.644H597.804V47.44H599.424V55H597.804Z" fill="white"/>
<circle cx="305" cy="55" r="16" fill="#7B58CF"/>
<circle cx="305" cy="55" r="18" stroke="#7B58CF" stroke-opacity="0.3" stroke-width="4"/>
<path d="M304.806 61.18C303.594 61.18 302.634 60.844 301.926 60.172C301.218 59.488 300.864 58.564 300.864 57.4H302.484C302.484 58.12 302.694 58.69 303.114 59.11C303.534 59.53 304.104 59.74 304.824 59.74C305.544 59.74 306.114 59.53 306.534 59.11C306.954 58.69 307.164 58.12 307.164 57.4V56.5C307.164 55.78 306.954 55.21 306.534 54.79C306.114 54.37 305.544 54.16 304.824 54.16H303.402V52.756L306.624 49.336H301.224V47.86H308.46V49.372L304.86 53.206V52.72C306.072 52.72 307.026 53.062 307.722 53.746C308.43 54.418 308.784 55.336 308.784 56.5V57.4C308.784 58.564 308.424 59.488 307.704 60.172C306.996 60.844 306.03 61.18 304.806 61.18Z" fill="white"/>
<circle cx="47" cy="71" r="16" fill="#7B58CF"/>
<circle cx="47" cy="71" r="18" stroke="#7B58CF" stroke-opacity="0.3" stroke-width="4"/>
<path d="M43.1515 77V75.506L47.5255 70.826C48.1615 70.154 48.6115 69.554 48.8755 69.026C49.1395 68.498 49.2715 67.982 49.2715 67.478C49.2715 66.758 49.0615 66.188 48.6415 65.768C48.2335 65.336 47.6755 65.12 46.9675 65.12C46.2355 65.12 45.6535 65.342 45.2215 65.786C44.8015 66.218 44.5915 66.806 44.5915 67.55H42.9715C42.9955 66.758 43.1755 66.074 43.5115 65.498C43.8475 64.91 44.3095 64.46 44.8975 64.148C45.4855 63.836 46.1755 63.68 46.9675 63.68C47.7835 63.68 48.4855 63.836 49.0735 64.148C49.6615 64.46 50.1175 64.904 50.4415 65.48C50.7655 66.044 50.9275 66.716 50.9275 67.496C50.9275 68.12 50.7535 68.78 50.4055 69.476C50.0695 70.172 49.4875 70.952 48.6595 71.816L45.1135 75.524H51.0895V77H43.1515Z" fill="white"/>
<circle cx="20" cy="20" r="16" fill="#7B58CF"/>
<circle cx="20" cy="20" r="18" stroke="#7B58CF" stroke-opacity="0.3" stroke-width="4"/>
<path d="M16.2235 26V24.524H19.7875V14.264L16.2235 16.928V15.074L19.1935 12.86H21.4075V24.524H24.3235V26H16.2235Z" fill="white"/>
</g>
<defs>
<clipPath id="clip0_443_4117">
<rect width="616" height="91" fill="white"/>
</clipPath>
</defs>
</svg>
