<svg width="632" height="91" fill="none" xmlns="http://www.w3.org/2000/svg"><path fill="#41419F" d="M36 24h560v43H36z"/><rect x="66" y="39" width="489" height="6" rx="2" fill="#fff"/><rect x="66" y="49" width="383" height="6" rx="2" fill="#fff"/><path d="M581.95 39.293a1 1 0 00-1.414 0l-1.415 1.414-1.414-1.414a1 1 0 10-1.414 1.414l1.414 1.414-1.414 1.414a1 1 0 101.414 1.415l1.414-1.415 1.415 1.415a1 1 0 101.414-1.415l-1.414-1.414 1.414-1.414a1 1 0 000-1.414z" fill="#fff"/><circle cx="52" cy="42" r="6" fill="#fff"/><circle cx="612" cy="42" r="16" fill="#7B58CF"/><circle cx="612" cy="42" r="18" stroke="#7B58CF" stroke-opacity=".3" stroke-width="4"/><path d="M613.037 36.495l-4.14 6.935h4.14v-6.935zm-.29-1.617h2.057v8.552h1.749v1.441h-1.749V48h-1.767v-3.129h-5.563v-1.679l5.273-8.314z" fill="#fff"/><circle cx="136" cy="48" r="16" fill="#7B58CF"/><circle cx="136" cy="48" r="18" stroke="#7B58CF" stroke-opacity=".3" stroke-width="4"/><path d="M137.397 46.977c.862.23 1.521.636 1.978 1.222.457.58.686 1.307.686 2.18 0 1.207-.408 2.156-1.222 2.848-.809.685-1.931 1.028-3.366 1.028-.604 0-1.219-.056-1.846-.167a11.898 11.898 0 01-1.846-.483v-1.767a8.56 8.56 0 001.767.694c.58.153 1.157.229 1.731.229.973 0 1.72-.22 2.242-.66.521-.439.782-1.072.782-1.898 0-.762-.261-1.365-.782-1.81-.522-.452-1.228-.677-2.119-.677h-1.353v-1.46h1.353c.815 0 1.451-.178 1.908-.535.457-.358.685-.856.685-1.494 0-.674-.214-1.19-.641-1.547-.422-.364-1.026-.545-1.811-.545a7.84 7.84 0 00-1.617.175 11.45 11.45 0 00-1.749.528v-1.635a21.899 21.899 0 011.889-.422 9.025 9.025 0 011.477-.14c1.277 0 2.297.322 3.059.966.767.64 1.151 1.489 1.151 2.55 0 .72-.202 1.32-.607 1.801-.398.48-.981.82-1.749 1.02z" fill="#fff"/><circle cx="52" cy="71" r="16" fill="#7B58CF"/><circle cx="52" cy="71" r="18" stroke="#7B58CF" stroke-opacity=".3" stroke-width="4"/><path d="M49.855 75.506h6.03V77h-7.972v-1.494a363.318 363.318 0 002.874-3.059 73.424 73.424 0 001.696-1.872c.586-.715.982-1.292 1.187-1.731.205-.446.307-.9.307-1.363 0-.732-.216-1.306-.65-1.722-.428-.416-1.017-.624-1.767-.624-.533 0-1.092.096-1.678.29a9.421 9.421 0 00-1.863.879V64.51a9.622 9.622 0 011.775-.65 7.12 7.12 0 011.731-.22c1.284 0 2.315.342 3.094 1.028.785.68 1.178 1.573 1.178 2.68 0 .563-.132 1.126-.396 1.688-.257.563-.68 1.184-1.265 1.863-.328.381-.806.909-1.433 1.582-.621.674-1.57 1.682-2.848 3.024z" fill="#fff"/><circle cx="20" cy="20" r="16" fill="#7B58CF"/><circle cx="20" cy="20" r="18" stroke="#7B58CF" stroke-opacity=".3" stroke-width="4"/><path d="M16.95 24.515h2.76V14.6l-3.305 1.59v-1.705l3.287-1.564h1.776v11.593h2.724V26H16.95v-1.485z" fill="#fff"/></svg>