<svg width="458" height="76" viewBox="0 0 458 76" fill="none" xmlns="http://www.w3.org/2000/svg">
<rect x="272.5" y="16.5" width="61" height="31" rx="3.5" fill="white"/>
<path fill-rule="evenodd" clip-rule="evenodd" d="M288 29L292.586 24.4142C292.851 24.149 293.211 24 293.586 24C294.367 24 295 24.6332 295 25.4142V29H297.991C299.312 29 300.27 30.2579 299.919 31.5314L298.67 36.0629C298.192 37.798 296.614 39 294.814 39H284V29H288ZM293 26.8284V31H297.991L296.742 35.5314C296.503 36.399 295.714 37 294.814 37H289L289 30.8284L293 26.8284ZM287 31H286V37H287V31Z" fill="#666666"/>
<rect x="308" y="28" width="14" height="8" rx="2" fill="#BFBFBF"/>
<rect x="272.5" y="16.5" width="61" height="31" rx="3.5" stroke="#BFBFBF"/>
<rect x="134.5" y="16.5" width="121" height="31" rx="3.5" fill="white"/>
<rect x="146" y="28" width="74" height="8" rx="2" fill="#BFBFBF"/>
<path fill-rule="evenodd" clip-rule="evenodd" d="M235.293 34.7071C235.683 35.0976 236.317 35.0976 236.707 34.7071L239.707 31.7071C240.098 31.3166 240.098 30.6834 239.707 30.2929C239.317 29.9024 238.683 29.9024 238.293 30.2929L236 32.5858L233.707 30.2929C233.317 29.9024 232.683 29.9024 232.293 30.2929C231.902 30.6834 231.902 31.3166 232.293 31.7071L235.293 34.7071Z" fill="#666666"/>
<rect x="134.5" y="16.5" width="121" height="31" rx="3.5" stroke="#BFBFBF"/>
<rect x="350.5" y="16.5" width="107" height="31" rx="3.5" fill="white"/>
<rect x="362" y="28" width="50" height="8" rx="2" fill="#BFBFBF"/>
<rect x="420" y="24" width="26" height="16" rx="8" fill="#BFBFBF"/>
<rect x="350.5" y="16.5" width="107" height="31" rx="3.5" stroke="#BFBFBF"/>
<rect x="4.5" y="16.5" width="113" height="31" rx="3.5" fill="#1F75CB"/>
<circle cx="20" cy="32" r="8" fill="white"/>
<rect x="36" y="28" width="74" height="8" rx="2" fill="white"/>
<rect x="4.5" y="16.5" width="113" height="31" rx="3.5" stroke="#1068BF"/>
<circle cx="292" cy="56" r="16" fill="#7B58CF"/>
<circle cx="292" cy="56" r="18" stroke="#7B58CF" stroke-opacity="0.3" stroke-width="4"/>
<path d="M293.037 50.4951L288.897 57.4297H293.037V50.4951ZM292.747 48.8779H294.804V57.4297H296.553V58.8711H294.804V62H293.037V58.8711H287.474V57.1924L292.747 48.8779Z" fill="white"/>
<circle cx="433" cy="56" r="16" fill="#7B58CF"/>
<circle cx="433" cy="56" r="18" stroke="#7B58CF" stroke-opacity="0.3" stroke-width="4"/>
<path d="M429.396 48.8779H436.041V50.3721H431.014V53.5977C431.266 53.5039 431.518 53.4365 431.77 53.3955C432.027 53.3486 432.285 53.3252 432.543 53.3252C433.902 53.3252 434.98 53.7266 435.777 54.5293C436.574 55.332 436.973 56.4189 436.973 57.79C436.973 59.1729 436.554 60.2627 435.716 61.0596C434.884 61.8564 433.744 62.2549 432.297 62.2549C431.6 62.2549 430.961 62.208 430.381 62.1143C429.807 62.0205 429.291 61.8799 428.834 61.6924V59.8906C429.373 60.1836 429.915 60.4033 430.46 60.5498C431.005 60.6904 431.562 60.7607 432.13 60.7607C433.108 60.7607 433.861 60.5029 434.389 59.9873C434.922 59.4717 435.188 58.7393 435.188 57.79C435.188 56.8525 434.913 56.123 434.362 55.6016C433.817 55.0801 433.056 54.8193 432.077 54.8193C431.603 54.8193 431.14 54.875 430.688 54.9863C430.237 55.0918 429.807 55.2529 429.396 55.4697V48.8779Z" fill="white"/>
<circle cx="236" cy="56" r="16" fill="#7B58CF"/>
<circle cx="236" cy="56" r="18" stroke="#7B58CF" stroke-opacity="0.3" stroke-width="4"/>
<path d="M237.397 54.9775C238.259 55.2061 238.918 55.6133 239.375 56.1992C239.832 56.7793 240.061 57.5059 240.061 58.3789C240.061 59.5859 239.653 60.5352 238.839 61.2266C238.03 61.9121 236.908 62.2549 235.473 62.2549C234.869 62.2549 234.254 62.1992 233.627 62.0879C233 61.9766 232.385 61.8154 231.781 61.6045V59.8379C232.379 60.1484 232.968 60.3799 233.548 60.5322C234.128 60.6846 234.705 60.7607 235.279 60.7607C236.252 60.7607 236.999 60.541 237.521 60.1016C238.042 59.6621 238.303 59.0293 238.303 58.2031C238.303 57.4414 238.042 56.8379 237.521 56.3926C236.999 55.9414 236.293 55.7158 235.402 55.7158H234.049V54.2568H235.402C236.217 54.2568 236.853 54.0781 237.31 53.7207C237.767 53.3633 237.995 52.8652 237.995 52.2266C237.995 51.5527 237.781 51.0371 237.354 50.6797C236.932 50.3164 236.328 50.1348 235.543 50.1348C235.021 50.1348 234.482 50.1934 233.926 50.3105C233.369 50.4277 232.786 50.6035 232.177 50.8379V49.2031C232.886 49.0156 233.516 48.875 234.066 48.7812C234.623 48.6875 235.115 48.6406 235.543 48.6406C236.82 48.6406 237.84 48.9629 238.602 49.6074C239.369 50.2461 239.753 51.0957 239.753 52.1562C239.753 52.877 239.551 53.4775 239.146 53.958C238.748 54.4385 238.165 54.7783 237.397 54.9775Z" fill="white"/>
<circle cx="85" cy="56" r="16" fill="#7B58CF"/>
<circle cx="85" cy="56" r="18" stroke="#7B58CF" stroke-opacity="0.3" stroke-width="4"/>
<path d="M82.8555 60.5059H88.8848V62H80.9131V60.5059C82.0088 59.3516 82.9668 58.332 83.7871 57.4473C84.6074 56.5625 85.1729 55.9385 85.4834 55.5752C86.0693 54.8604 86.4648 54.2832 86.6699 53.8438C86.875 53.3984 86.9775 52.9443 86.9775 52.4814C86.9775 51.749 86.7607 51.1748 86.3271 50.7588C85.8994 50.3428 85.3105 50.1348 84.5605 50.1348C84.0273 50.1348 83.4678 50.2314 82.8818 50.4248C82.2959 50.6182 81.6748 50.9111 81.0186 51.3037V49.5107C81.6221 49.2236 82.2139 49.0068 82.7939 48.8604C83.3799 48.7139 83.957 48.6406 84.5254 48.6406C85.8086 48.6406 86.8398 48.9834 87.6191 49.6689C88.4043 50.3486 88.7969 51.2422 88.7969 52.3496C88.7969 52.9121 88.665 53.4746 88.4014 54.0371C88.1436 54.5996 87.7217 55.2207 87.1357 55.9004C86.8076 56.2812 86.3301 56.8086 85.7031 57.4824C85.082 58.1562 84.1328 59.1641 82.8555 60.5059Z" fill="white"/>
<circle cx="20" cy="56" r="16" fill="#7B58CF"/>
<circle cx="20" cy="56" r="18" stroke="#7B58CF" stroke-opacity="0.3" stroke-width="4"/>
<path d="M16.9502 60.5146H19.71V50.6006L16.4053 52.1914V50.4863L19.6924 48.9219H21.4678V60.5146H24.1924V62H16.9502V60.5146Z" fill="white"/>
</svg>
