<svg width="458" height="76" viewBox="0 0 458 76" fill="none" xmlns="http://www.w3.org/2000/svg">
<rect x="350.5" y="16.5" width="107" height="31" rx="3.5" fill="white"/>
<rect x="362" y="28" width="50" height="8" rx="2" fill="#BFBFC3"/>
<rect x="420" y="24" width="26" height="16" rx="8" fill="#BFBFC3"/>
<rect x="350.5" y="16.5" width="107" height="31" rx="3.5" stroke="#BFBFC3"/>
<rect x="272.5" y="16.5" width="61" height="31" rx="3.5" fill="white"/>
<path fill-rule="evenodd" clip-rule="evenodd" d="M288 29L292.586 24.4142C292.851 24.149 293.211 24 293.586 24C294.367 24 295 24.6332 295 25.4142V29H297.991C299.312 29 300.27 30.2579 299.919 31.5314L298.67 36.0629C298.192 37.798 296.614 39 294.814 39H284V29H288ZM293 26.8284V31H297.991L296.742 35.5314C296.503 36.399 295.714 37 294.814 37H289L289 30.8284L293 26.8284ZM287 31H286V37H287V31Z" fill="#737278"/>
<rect x="308" y="28" width="14" height="8" rx="2" fill="#BFBFC3"/>
<rect x="272.5" y="16.5" width="61" height="31" rx="3.5" stroke="#BFBFC3"/>
<rect x="134.5" y="16.5" width="121" height="31" rx="3.5" fill="white"/>
<rect x="146" y="28" width="74" height="8" rx="2" fill="#BFBFC3"/>
<path fill-rule="evenodd" clip-rule="evenodd" d="M235.293 34.7071C235.683 35.0976 236.317 35.0976 236.707 34.7071L239.707 31.7071C240.098 31.3166 240.098 30.6834 239.707 30.2929C239.317 29.9024 238.683 29.9024 238.293 30.2929L236 32.5858L233.707 30.2929C233.317 29.9024 232.683 29.9024 232.293 30.2929C231.902 30.6834 231.902 31.3166 232.293 31.7071L235.293 34.7071Z" fill="#737278"/>
<rect x="134.5" y="16.5" width="121" height="31" rx="3.5" stroke="#BFBFC3"/>
<rect x="4.5" y="16.5" width="113" height="31" rx="3.5" fill="#1F75CB"/>
<circle cx="20" cy="32" r="8" fill="white"/>
<rect x="36" y="28" width="74" height="8" rx="2" fill="white"/>
<rect x="4.5" y="16.5" width="113" height="31" rx="3.5" stroke="#1068BF"/>
<circle cx="292" cy="56" r="16" fill="#7B58CF"/>
<circle cx="292" cy="56" r="18" stroke="#7B58CF" stroke-opacity="0.3" stroke-width="4"/>
<path d="M293.804 62V59.12H287.864V56.582L292.652 48.86H294.488L289.484 56.942V57.644H293.804V54.44H295.424V62H293.804Z" fill="white"/>
<circle cx="433" cy="56" r="16" fill="#7B58CF"/>
<circle cx="433" cy="56" r="18" stroke="#7B58CF" stroke-opacity="0.3" stroke-width="4"/>
<path d="M432.896 62.18C431.684 62.18 430.724 61.844 430.016 61.172C429.308 60.488 428.954 59.564 428.954 58.4H430.574C430.574 59.12 430.784 59.69 431.204 60.11C431.624 60.53 432.194 60.74 432.914 60.74C433.634 60.74 434.204 60.53 434.624 60.11C435.044 59.69 435.254 59.12 435.254 58.4V57.59C435.254 56.87 435.05 56.3 434.642 55.88C434.234 55.46 433.682 55.25 432.986 55.25H429.404V48.86H436.406V50.336H430.916L430.952 53.774H433.076C434.288 53.774 435.224 54.11 435.884 54.782C436.544 55.442 436.874 56.378 436.874 57.59V58.4C436.874 59.564 436.514 60.488 435.794 61.172C435.086 61.844 434.12 62.18 432.896 62.18Z" fill="white"/>
<circle cx="236" cy="56" r="16" fill="#7B58CF"/>
<circle cx="236" cy="56" r="18" stroke="#7B58CF" stroke-opacity="0.3" stroke-width="4"/>
<path d="M235.806 62.18C234.594 62.18 233.634 61.844 232.926 61.172C232.218 60.488 231.864 59.564 231.864 58.4H233.484C233.484 59.12 233.694 59.69 234.114 60.11C234.534 60.53 235.104 60.74 235.824 60.74C236.544 60.74 237.114 60.53 237.534 60.11C237.954 59.69 238.164 59.12 238.164 58.4V57.5C238.164 56.78 237.954 56.21 237.534 55.79C237.114 55.37 236.544 55.16 235.824 55.16H234.402V53.756L237.624 50.336H232.224V48.86H239.46V50.372L235.86 54.206V53.72C237.072 53.72 238.026 54.062 238.722 54.746C239.43 55.418 239.784 56.336 239.784 57.5V58.4C239.784 59.564 239.424 60.488 238.704 61.172C237.996 61.844 237.03 62.18 235.806 62.18Z" fill="white"/>
<circle cx="73" cy="52" r="16" fill="#7B58CF"/>
<circle cx="73" cy="52" r="18" stroke="#7B58CF" stroke-opacity="0.3" stroke-width="4"/>
<path d="M69.1515 58V56.506L73.5255 51.826C74.1615 51.154 74.6115 50.554 74.8755 50.026C75.1395 49.498 75.2715 48.982 75.2715 48.478C75.2715 47.758 75.0615 47.188 74.6415 46.768C74.2335 46.336 73.6755 46.12 72.9675 46.12C72.2355 46.12 71.6535 46.342 71.2215 46.786C70.8015 47.218 70.5915 47.806 70.5915 48.55H68.9715C68.9955 47.758 69.1755 47.074 69.5115 46.498C69.8475 45.91 70.3095 45.46 70.8975 45.148C71.4855 44.836 72.1755 44.68 72.9675 44.68C73.7835 44.68 74.4855 44.836 75.0735 45.148C75.6615 45.46 76.1175 45.904 76.4415 46.48C76.7655 47.044 76.9275 47.716 76.9275 48.496C76.9275 49.12 76.7535 49.78 76.4055 50.476C76.0695 51.172 75.4875 51.952 74.6595 52.816L71.1135 56.524H77.0895V58H69.1515Z" fill="white"/>
<circle cx="20" cy="56" r="16" fill="#7B58CF"/>
<circle cx="20" cy="56" r="18" stroke="#7B58CF" stroke-opacity="0.3" stroke-width="4"/>
<path d="M16.2235 62V60.524H19.7875V50.264L16.2235 52.928V51.074L19.1935 48.86H21.4075V60.524H24.3235V62H16.2235Z" fill="white"/>
</svg>
