<svg width="332" height="106" viewBox="0 0 332 106" fill="none" xmlns="http://www.w3.org/2000/svg">
<rect width="332" height="106" fill="#F0F0F0"/>
<rect x="16" y="16" width="300" height="73" fill="white"/>
<rect x="240" y="53" width="74" height="34" fill="#DDE9DE"/>
<rect x="26" y="61" width="54" height="18" rx="3" fill="#1F75CB"/>
<rect x="85" y="62" width="41" height="16" rx="2" fill="white" stroke="#999999" stroke-width="2"/>
<rect x="249" y="62" width="56" height="16" rx="2" fill="white" stroke="#DD2B0E" stroke-width="2"/>
<path d="M135 69C134.448 69 134 69.4477 134 70C134 70.5523 134.448 71 135 71L135 69ZM234.707 70.7071C235.098 70.3166 235.098 69.6834 234.707 69.2929L228.343 62.9289C227.953 62.5384 227.319 62.5384 226.929 62.9289C226.538 63.3195 226.538 63.9526 226.929 64.3432L232.586 70L226.929 75.6569C226.538 76.0474 226.538 76.6806 226.929 77.0711C227.319 77.4616 227.953 77.4616 228.343 77.0711L234.707 70.7071ZM135 71L234 71L234 69L135 69L135 71Z" fill="#FC6D26"/>
<path fill-rule="evenodd" clip-rule="evenodd" d="M300 40C304.418 40 308 36.4183 308 32C308 27.5817 304.418 24 300 24C295.582 24 292 27.5817 292 32C292 36.4183 295.582 40 300 40ZM303.707 30.7071C304.098 30.3166 304.098 29.6834 303.707 29.2929C303.317 28.9024 302.683 28.9024 302.293 29.2929L299 32.5858L297.707 31.2929C297.317 30.9024 296.683 30.9024 296.293 31.2929C295.902 31.6834 295.902 32.3166 296.293 32.7071L298.293 34.7071C298.683 35.0976 299.317 35.0976 299.707 34.7071L303.707 30.7071Z" fill="#108548"/>
</svg>
