<svg width="292" height="89" viewBox="0 0 292 89" fill="none" xmlns="http://www.w3.org/2000/svg">
<rect width="292" height="89" fill="white"/>
<path d="M33 31H96V56H33C31.8954 56 31 55.1046 31 54V33C31 31.8954 31.8954 31 33 31Z" fill="white"/>
<path d="M33 31H96V56H33C31.8954 56 31 55.1046 31 54V33C31 31.8954 31.8954 31 33 31Z" stroke="#A4A3A8" stroke-width="2"/>
<rect x="96" y="31" width="65" height="25" fill="white"/>
<rect x="96" y="31" width="65" height="25" stroke="#A4A3A8" stroke-width="2"/>
<rect x="162" y="32" width="63" height="23" fill="white"/>
<rect x="162" y="32" width="63" height="23" stroke="#A4A3A8" stroke-width="4"/>
<path d="M226 31H289C290.105 31 291 31.8954 291 33V54C291 55.1046 290.105 56 289 56H226V31Z" fill="white"/>
<path d="M226 31H289C290.105 31 291 31.8954 291 33V54C291 55.1046 290.105 56 289 56H226V31Z" stroke="#A4A3A8" stroke-width="2"/>
<circle cx="193" cy="69" r="16" fill="#7B58CF"/>
<circle cx="193" cy="69" r="18" stroke="#7B58CF" stroke-opacity="0.3" stroke-width="4"/>
<path d="M189.152 75V73.506L193.526 68.826C194.162 68.154 194.612 67.554 194.876 67.026C195.14 66.498 195.272 65.982 195.272 65.478C195.272 64.758 195.062 64.188 194.642 63.768C194.234 63.336 193.676 63.12 192.968 63.12C192.236 63.12 191.654 63.342 191.222 63.786C190.802 64.218 190.592 64.806 190.592 65.55H188.972C188.996 64.758 189.176 64.074 189.512 63.498C189.848 62.91 190.31 62.46 190.898 62.148C191.486 61.836 192.176 61.68 192.968 61.68C193.784 61.68 194.486 61.836 195.074 62.148C195.662 62.46 196.118 62.904 196.442 63.48C196.766 64.044 196.928 64.716 196.928 65.496C196.928 66.12 196.754 66.78 196.406 67.476C196.07 68.172 195.488 68.952 194.66 69.816L191.114 73.524H197.09V75H189.152Z" fill="white"/>
<circle cx="20" cy="20" r="16" fill="#7B58CF"/>
<circle cx="20" cy="20" r="18" stroke="#7B58CF" stroke-opacity="0.3" stroke-width="4"/>
<path d="M16.2235 26V24.524H19.7875V14.264L16.2235 16.928V15.074L19.1935 12.86H21.4075V24.524H24.3235V26H16.2235Z" fill="white"/>
</svg>
