<svg width="332" height="106" viewBox="0 0 332 106" fill="none" xmlns="http://www.w3.org/2000/svg">
<rect width="332" height="106" fill="#F0F0F0"/>
<rect x="16" y="16" width="300" height="73" fill="white"/>
<rect x="240" y="53" width="74" height="34" fill="#FCF1EF"/>
<path fill-rule="evenodd" clip-rule="evenodd" d="M300 40C304.418 40 308 36.4183 308 32C308 27.5817 304.418 24 300 24C295.582 24 292 27.5817 292 32C292 36.4183 295.582 40 300 40ZM296.293 28.2929C296.683 27.9024 297.317 27.9024 297.707 28.2929L300 30.5858L302.293 28.2929C302.683 27.9024 303.317 27.9024 303.707 28.2929C304.098 28.6834 304.098 29.3166 303.707 29.7071L301.414 32L303.707 34.2929C304.098 34.6834 304.098 35.3166 303.707 35.7071C303.317 36.0976 302.683 36.0976 302.293 35.7071L300 33.4142L297.707 35.7071C297.317 36.0976 296.683 36.0976 296.293 35.7071C295.902 35.3166 295.902 34.6834 296.293 34.2929L298.586 32L296.293 29.7071C295.902 29.3166 295.902 28.6834 296.293 28.2929Z" fill="#DD2B0E"/>
<rect x="26" y="61" width="54" height="18" rx="3" fill="#1F75CB"/>
<rect x="85" y="62" width="41" height="16" rx="2" fill="white" stroke="#999999" stroke-width="2"/>
<rect x="249" y="62" width="56" height="16" rx="2" fill="white" stroke="#999999" stroke-width="2"/>
<path d="M135 69C134.448 69 134 69.4477 134 70C134 70.5523 134.448 71 135 71L135 69ZM234.707 70.7071C235.098 70.3166 235.098 69.6834 234.707 69.2929L228.343 62.9289C227.953 62.5384 227.319 62.5384 226.929 62.9289C226.538 63.3195 226.538 63.9526 226.929 64.3432L232.586 70L226.929 75.6569C226.538 76.0474 226.538 76.6806 226.929 77.0711C227.319 77.4616 227.953 77.4616 228.343 77.0711L234.707 70.7071ZM135 71L234 71L234 69L135 69L135 71Z" fill="#FC6D26"/>
</svg>
