<svg width="332" height="106" viewBox="0 0 332 106" fill="none" xmlns="http://www.w3.org/2000/svg">
<rect width="332" height="106" fill="#F0F0F0"/>
<rect x="16" y="16" width="300" height="73" fill="white"/>
<rect x="18" y="53" width="179" height="34" fill="#FCF1EF"/>
<rect x="26" y="61" width="54" height="18" rx="3" fill="#1F75CB"/>
<rect x="85" y="62" width="41" height="16" rx="2" fill="white" stroke="#DD2B0E" stroke-width="2"/>
<rect x="132" y="62" width="56" height="16" rx="2" fill="white" stroke="#999999" stroke-width="2"/>
<path fill-rule="evenodd" clip-rule="evenodd" d="M300 40C304.418 40 308 36.4183 308 32C308 27.5817 304.418 24 300 24C295.582 24 292 27.5817 292 32C292 36.4183 295.582 40 300 40ZM296.293 28.2929C296.683 27.9024 297.317 27.9024 297.707 28.2929L300 30.5858L302.293 28.2929C302.683 27.9024 303.317 27.9024 303.707 28.2929C304.098 28.6834 304.098 29.3166 303.707 29.7071L301.414 32L303.707 34.2929C304.098 34.6834 304.098 35.3166 303.707 35.7071C303.317 36.0976 302.683 36.0976 302.293 35.7071L300 33.4142L297.707 35.7071C297.317 36.0976 296.683 36.0976 296.293 35.7071C295.902 35.3166 295.902 34.6834 296.293 34.2929L298.586 32L296.293 29.7071C295.902 29.3166 295.902 28.6834 296.293 28.2929Z" fill="#DD2B0E"/>
</svg>
