<svg width="332" height="128" viewBox="0 0 332 128" fill="none" xmlns="http://www.w3.org/2000/svg">
<rect width="332" height="128" fill="#F0F0F0"/>
<rect x="16" y="16" width="300" height="96" fill="white"/>
<rect x="18" y="76" width="74" height="34" fill="#FCF1EF"/>
<path fill-rule="evenodd" clip-rule="evenodd" d="M300 40C304.418 40 308 36.4183 308 32C308 27.5817 304.418 24 300 24C295.582 24 292 27.5817 292 32C292 36.4183 295.582 40 300 40ZM296.293 28.2929C296.683 27.9024 297.317 27.9024 297.707 28.2929L300 30.5858L302.293 28.2929C302.683 27.9024 303.317 27.9024 303.707 28.2929C304.098 28.6834 304.098 29.3166 303.707 29.7071L301.414 32L303.707 34.2929C304.098 34.6834 304.098 35.3166 303.707 35.7071C303.317 36.0976 302.683 36.0976 302.293 35.7071L300 33.4142L297.707 35.7071C297.317 36.0976 296.683 36.0976 296.293 35.7071C295.902 35.3166 295.902 34.6834 296.293 34.2929L298.586 32L296.293 29.7071C295.902 29.3166 295.902 28.6834 296.293 28.2929Z" fill="#DD2B0E"/>
<rect x="26" y="62" width="54" height="18" rx="3" fill="#1F75CB"/>
<rect x="85" y="63" width="41" height="16" rx="2" fill="white" stroke="#999999" stroke-width="2"/>
<rect x="27" y="85" width="56" height="16" rx="2" fill="white" stroke="#999999" stroke-width="2"/>
<path d="M135 70C134.448 70 134 70.4477 134 71C134 71.5523 134.448 72 135 72L135 70ZM99.2929 93.7929C98.9024 94.1834 98.9024 94.8166 99.2929 95.2071L105.657 101.571C106.047 101.962 106.681 101.962 107.071 101.571C107.462 101.181 107.462 100.547 107.071 100.157L101.414 94.5L107.071 88.8431C107.462 88.4526 107.462 87.8195 107.071 87.4289C106.681 87.0384 106.047 87.0384 105.657 87.4289L99.2929 93.7929ZM135 72L144.25 72L144.25 70L135 70L135 72ZM144.25 93.5L100 93.5L100 95.5L144.25 95.5L144.25 93.5ZM155 82.75C155 88.6871 150.187 93.5 144.25 93.5L144.25 95.5C151.292 95.5 157 89.7916 157 82.75L155 82.75ZM144.25 72C150.187 72 155 76.8129 155 82.75L157 82.75C157 75.7084 151.292 70 144.25 70L144.25 72Z" fill="#FC6D26"/>
</svg>
