<svg width="398" height="76" fill="none" xmlns="http://www.w3.org/2000/svg"><rect x="336.5" y="16.5" width="61" height="31" rx="3.5" fill="#fff"/><path fill-rule="evenodd" clip-rule="evenodd" d="M352 29l4.586-4.586a1.414 1.414 0 012.414 1V29h2.991a2 2 0 011.928 2.531l-1.249 4.532A4 4 0 01358.814 39H348V29h4zm5-2.172V31h4.991l-1.249 4.531A2 2 0 01358.814 37H353v-6.172l4-4zM351 31h-1v6h1v-6z" fill="#666"/><rect x="372" y="28" width="14" height="8" rx="2" fill="#BFBFBF"/><rect x="336.5" y="16.5" width="61" height="31" rx="3.5" stroke="#BFBFBF"/><rect x="166.5" y="16.5" width="145" height="31" rx="3.5" fill="#fff"/><rect x="178" y="28" width="98" height="8" rx="2" fill="#BFBFBF"/><path fill-rule="evenodd" clip-rule="evenodd" d="M291.293 34.707a1 1 0 001.414 0l3-3a1 1 0 10-1.414-1.414L292 32.586l-2.293-2.293a1 1 0 10-1.414 1.414l3 3z" fill="#666"/><rect x="166.5" y="16.5" width="145" height="31" rx="3.5" stroke="#BFBFBF"/><rect x="4.5" y="16.5" width="137" height="31" rx="3.5" fill="#1F75CB"/><circle cx="20" cy="32" r="8" fill="#fff"/><rect x="36" y="28" width="98" height="8" rx="2" fill="#fff"/><rect x="4.5" y="16.5" width="137" height="31" rx="3.5" stroke="#1068BF"/><circle cx="354" cy="56" r="16" fill="#7B58CF"/><circle cx="354" cy="56" r="18" stroke="#7B58CF" stroke-opacity=".3" stroke-width="4"/><path d="M355.037 50.495l-4.14 6.935h4.14v-6.935zm-.29-1.617h2.057v8.552h1.749v1.441h-1.749V62h-1.767v-3.129h-5.563v-1.679l5.273-8.314z" fill="#fff"/><circle cx="290" cy="56" r="16" fill="#7B58CF"/><circle cx="290" cy="56" r="18" stroke="#7B58CF" stroke-opacity=".3" stroke-width="4"/><path d="M291.397 54.977c.862.23 1.521.636 1.978 1.222.457.58.686 1.307.686 2.18 0 1.207-.408 2.156-1.222 2.848-.809.685-1.931 1.028-3.366 1.028-.604 0-1.219-.056-1.846-.167a11.898 11.898 0 01-1.846-.483v-1.767a8.56 8.56 0 001.767.694c.58.153 1.157.229 1.731.229.973 0 1.72-.22 2.242-.66.521-.439.782-1.072.782-1.898 0-.762-.261-1.365-.782-1.81-.522-.452-1.228-.677-2.119-.677h-1.353v-1.46h1.353c.815 0 1.451-.178 1.908-.535.457-.358.685-.856.685-1.494 0-.674-.214-1.19-.641-1.547-.422-.364-1.026-.545-1.811-.545a7.84 7.84 0 00-1.617.175 11.45 11.45 0 00-1.749.528v-1.635a21.899 21.899 0 011.889-.422 9.025 9.025 0 011.477-.14c1.277 0 2.297.322 3.059.966.767.64 1.151 1.489 1.151 2.55 0 .72-.202 1.32-.607 1.801-.398.48-.981.82-1.749 1.02z" fill="#fff"/><circle cx="85" cy="56" r="16" fill="#7B58CF"/><circle cx="85" cy="56" r="18" stroke="#7B58CF" stroke-opacity=".3" stroke-width="4"/><path d="M82.856 60.506h6.029V62h-7.972v-1.494a363.318 363.318 0 002.874-3.059 73.424 73.424 0 001.696-1.872c.586-.715.982-1.292 1.187-1.731.205-.446.308-.9.308-1.363 0-.732-.217-1.306-.65-1.722-.429-.416-1.017-.624-1.767-.624-.534 0-1.093.096-1.68.29a9.421 9.421 0 00-1.862.879V49.51a9.622 9.622 0 011.775-.65 7.12 7.12 0 011.731-.22c1.284 0 2.315.342 3.094 1.028.785.68 1.178 1.573 1.178 2.68 0 .563-.132 1.126-.396 1.688-.257.563-.68 1.184-1.265 1.863-.328.381-.806.909-1.433 1.582-.621.674-1.57 1.682-2.847 3.024z" fill="#fff"/><circle cx="20" cy="56" r="16" fill="#7B58CF"/><circle cx="20" cy="56" r="18" stroke="#7B58CF" stroke-opacity=".3" stroke-width="4"/><path d="M16.95 60.515h2.76V50.6l-3.305 1.59v-1.705l3.287-1.564h1.776v11.593h2.724V62H16.95v-1.485z" fill="#fff"/></svg>