<svg width="458" height="76" fill="none" xmlns="http://www.w3.org/2000/svg"><rect x="350.5" y="16.5" width="107" height="31" rx="3.5" fill="#fff"/><rect x="362" y="28" width="50" height="8" rx="2" fill="#BFBFC3"/><rect x="420" y="24" width="26" height="16" rx="8" fill="#BFBFC3"/><rect x="350.5" y="16.5" width="107" height="31" rx="3.5" stroke="#BFBFC3"/><rect x="272.5" y="16.5" width="61" height="31" rx="3.5" fill="#fff"/><path fill-rule="evenodd" clip-rule="evenodd" d="m288 29 4.586-4.586a1.414 1.414 0 0 1 2.414 1V29h2.991a2 2 0 0 1 1.928 2.531l-1.249 4.532A4 4 0 0 1 294.814 39H284V29h4Zm5-2.172V31h4.991l-1.249 4.531A2 2 0 0 1 294.814 37H289v-6.172l4-4ZM287 31h-1v6h1v-6Z" fill="#737278"/><rect x="308" y="28" width="14" height="8" rx="2" fill="#BFBFC3"/><rect x="272.5" y="16.5" width="61" height="31" rx="3.5" stroke="#BFBFC3"/><rect x="134.5" y="16.5" width="121" height="31" rx="3.5" fill="#fff"/><rect x="146" y="28" width="74" height="8" rx="2" fill="#BFBFC3"/><path fill-rule="evenodd" clip-rule="evenodd" d="M235.293 34.707a1 1 0 0 0 1.414 0l3-3a1 1 0 1 0-1.414-1.414L236 32.586l-2.293-2.293a1 1 0 1 0-1.414 1.414l3 3Z" fill="#737278"/><rect x="134.5" y="16.5" width="121" height="31" rx="3.5" stroke="#BFBFC3"/><rect x="4.5" y="16.5" width="113" height="31" rx="3.5" fill="#1F75CB"/><circle cx="20" cy="32" r="8" fill="#fff"/><rect x="36" y="28" width="74" height="8" rx="2" fill="#fff"/><rect x="4.5" y="16.5" width="113" height="31" rx="3.5" stroke="#1068BF"/><circle cx="292" cy="56" r="16" fill="#7B58CF"/><circle cx="292" cy="56" r="18" stroke="#7B58CF" stroke-opacity=".3" stroke-width="4"/><path d="M293.804 62v-2.88h-5.94v-2.538l4.788-7.722h1.836l-5.004 8.082v.702h4.32V54.44h1.62V62h-1.62Z" fill="#fff"/><circle cx="433" cy="56" r="16" fill="#7B58CF"/><circle cx="433" cy="56" r="18" stroke="#7B58CF" stroke-opacity=".3" stroke-width="4"/><path d="M432.896 62.18c-1.212 0-2.172-.336-2.88-1.008-.708-.684-1.062-1.608-1.062-2.772h1.62c0 .72.21 1.29.63 1.71.42.42.99.63 1.71.63s1.29-.21 1.71-.63c.42-.42.63-.99.63-1.71v-.81c0-.72-.204-1.29-.612-1.71-.408-.42-.96-.63-1.656-.63h-3.582v-6.39h7.002v1.476h-5.49l.036 3.438h2.124c1.212 0 2.148.336 2.808 1.008.66.66.99 1.596.99 2.808v.81c0 1.164-.36 2.088-1.08 2.772-.708.672-1.674 1.008-2.898 1.008Z" fill="#fff"/><circle cx="236" cy="56" r="16" fill="#7B58CF"/><circle cx="236" cy="56" r="18" stroke="#7B58CF" stroke-opacity=".3" stroke-width="4"/><path d="M235.806 62.18c-1.212 0-2.172-.336-2.88-1.008-.708-.684-1.062-1.608-1.062-2.772h1.62c0 .72.21 1.29.63 1.71.42.42.99.63 1.71.63s1.29-.21 1.71-.63c.42-.42.63-.99.63-1.71v-.9c0-.72-.21-1.29-.63-1.71-.42-.42-.99-.63-1.71-.63h-1.422v-1.404l3.222-3.42h-5.4V48.86h7.236v1.512l-3.6 3.834v-.486c1.212 0 2.166.342 2.862 1.026.708.672 1.062 1.59 1.062 2.754v.9c0 1.164-.36 2.088-1.08 2.772-.708.672-1.674 1.008-2.898 1.008Z" fill="#fff"/><circle cx="73" cy="52" r="16" fill="#7B58CF"/><circle cx="73" cy="52" r="18" stroke="#7B58CF" stroke-opacity=".3" stroke-width="4"/><path d="M69.151 58v-1.494l4.374-4.68c.636-.672 1.087-1.272 1.35-1.8.264-.528.397-1.044.397-1.548 0-.72-.21-1.29-.63-1.71-.408-.432-.966-.648-1.674-.648-.733 0-1.315.222-1.746.666-.42.432-.63 1.02-.63 1.764h-1.62c.024-.792.204-1.476.54-2.052a3.41 3.41 0 0 1 1.385-1.35c.588-.312 1.278-.468 2.07-.468.817 0 1.519.156 2.106.468a3.325 3.325 0 0 1 1.369 1.332c.324.564.486 1.236.486 2.016 0 .624-.174 1.284-.522 1.98-.337.696-.919 1.476-1.747 2.34l-3.546 3.708h5.977V58h-7.94Z" fill="#fff"/><circle cx="20" cy="56" r="16" fill="#7B58CF"/><circle cx="20" cy="56" r="18" stroke="#7B58CF" stroke-opacity=".3" stroke-width="4"/><path d="M16.224 62v-1.476h3.564v-10.26l-3.564 2.664v-1.854l2.97-2.214h2.213v11.664h2.916V62h-8.1Z" fill="#fff"/></svg>