<svg width="156" height="140" viewBox="0 0 156 140" fill="none" xmlns="http://www.w3.org/2000/svg">
<rect width="156" height="140" fill="white"/>
<rect x="60" y="96" width="96" height="8" rx="2" fill="#BFBFC3"/>
<rect x="60" y="84" width="77" height="8" rx="2" fill="#89888D"/>
<rect x="36.5" y="80.5" width="15" height="15" rx="3.5" fill="white"/>
<rect x="36.5" y="80.5" width="15" height="15" rx="3.5" stroke="#89888D"/>
<rect x="60" y="60" width="64" height="8" rx="2" fill="#89888D"/>
<rect x="36.5" y="56.5" width="15" height="15" rx="3.5" fill="white"/>
<rect x="36.5" y="56.5" width="15" height="15" rx="3.5" stroke="#89888D"/>
<rect x="60" y="36" width="88" height="8" rx="2" fill="#89888D"/>
<rect x="36.5" y="32.5" width="15" height="15" rx="3.5" fill="white"/>
<rect x="36.5" y="32.5" width="15" height="15" rx="3.5" stroke="#89888D"/>
<rect x="36" y="16" width="72" height="8" rx="2" fill="#535158"/>
<circle cx="108" cy="120" r="16" fill="#7B58CF"/>
<circle cx="108" cy="120" r="18" stroke="#7B58CF" stroke-opacity="0.3" stroke-width="4"/>
<path d="M109.804 126V123.12H103.864V120.582L108.652 112.86H110.488L105.484 120.942V121.644H109.804V118.44H111.424V126H109.804Z" fill="white"/>
<circle cx="92" cy="64" r="16" fill="#7B58CF"/>
<circle cx="92" cy="64" r="18" stroke="#7B58CF" stroke-opacity="0.3" stroke-width="4"/>
<path d="M91.8055 70.18C90.5935 70.18 89.6335 69.844 88.9255 69.172C88.2175 68.488 87.8635 67.564 87.8635 66.4H89.4835C89.4835 67.12 89.6935 67.69 90.1135 68.11C90.5335 68.53 91.1035 68.74 91.8235 68.74C92.5435 68.74 93.1135 68.53 93.5335 68.11C93.9535 67.69 94.1635 67.12 94.1635 66.4V65.5C94.1635 64.78 93.9535 64.21 93.5335 63.79C93.1135 63.37 92.5435 63.16 91.8235 63.16H90.4015V61.756L93.6235 58.336H88.2235V56.86H95.4595V58.372L91.8595 62.206V61.72C93.0715 61.72 94.0255 62.062 94.7215 62.746C95.4295 63.418 95.7835 64.336 95.7835 65.5V66.4C95.7835 67.564 95.4235 68.488 94.7035 69.172C93.9955 69.844 93.0295 70.18 91.8055 70.18Z" fill="white"/>
<circle cx="20" cy="64" r="16" fill="#7B58CF"/>
<circle cx="20" cy="64" r="18" stroke="#7B58CF" stroke-opacity="0.3" stroke-width="4"/>
<path d="M16.1515 70V68.506L20.5255 63.826C21.1615 63.154 21.6115 62.554 21.8755 62.026C22.1395 61.498 22.2715 60.982 22.2715 60.478C22.2715 59.758 22.0615 59.188 21.6415 58.768C21.2335 58.336 20.6755 58.12 19.9675 58.12C19.2355 58.12 18.6535 58.342 18.2215 58.786C17.8015 59.218 17.5915 59.806 17.5915 60.55H15.9715C15.9955 59.758 16.1755 59.074 16.5115 58.498C16.8475 57.91 17.3095 57.46 17.8975 57.148C18.4855 56.836 19.1755 56.68 19.9675 56.68C20.7835 56.68 21.4855 56.836 22.0735 57.148C22.6615 57.46 23.1175 57.904 23.4415 58.48C23.7655 59.044 23.9275 59.716 23.9275 60.496C23.9275 61.12 23.7535 61.78 23.4055 62.476C23.0695 63.172 22.4875 63.952 21.6595 64.816L18.1135 68.524H24.0895V70H16.1515Z" fill="white"/>
<circle cx="20" cy="20" r="16" fill="#7B58CF"/>
<circle cx="20" cy="20" r="18" stroke="#7B58CF" stroke-opacity="0.3" stroke-width="4"/>
<path d="M16.2235 26V24.524H19.7875V14.264L16.2235 16.928V15.074L19.1935 12.86H21.4075V24.524H24.3235V26H16.2235Z" fill="white"/>
</svg>
