<svg width="157" height="139" viewBox="0 0 157 139" fill="none" xmlns="http://www.w3.org/2000/svg">
<rect width="157" height="139" fill="white"/>
<path d="M37 36C37 33.7909 38.7909 32 41 32H49C51.2091 32 53 33.7909 53 36V44C53 46.2091 51.2091 48 49 48H41C38.7909 48 37 46.2091 37 44V36Z" fill="white"/>
<path d="M41 33H49V31H41V33ZM52 36V44H54V36H52ZM49 47H41V49H49V47ZM38 44V36H36V44H38ZM41 47C39.3431 47 38 45.6569 38 44H36C36 46.7614 38.2386 49 41 49V47ZM52 44C52 45.6569 50.6569 47 49 47V49C51.7614 49 54 46.7614 54 44H52ZM49 33C50.6569 33 52 34.3431 52 36H54C54 33.2386 51.7614 31 49 31V33ZM41 31C38.2386 31 36 33.2386 36 36H38C38 34.3431 39.3431 33 41 33V31Z" fill="#868686"/>
<rect x="61" y="36" width="88" height="8" rx="2" fill="#868686"/>
<path d="M37 84C37 81.7909 38.7909 80 41 80H49C51.2091 80 53 81.7909 53 84V92C53 94.2091 51.2091 96 49 96H41C38.7909 96 37 94.2091 37 92V84Z" fill="white"/>
<path d="M41 81H49V79H41V81ZM52 84V92H54V84H52ZM49 95H41V97H49V95ZM38 92V84H36V92H38ZM41 95C39.3431 95 38 93.6569 38 92H36C36 94.7614 38.2386 97 41 97V95ZM52 92C52 93.6569 50.6569 95 49 95V97C51.7614 97 54 94.7614 54 92H52ZM49 81C50.6569 81 52 82.3431 52 84H54C54 81.2386 51.7614 79 49 79V81ZM41 79C38.2386 79 36 81.2386 36 84H38C38 82.3431 39.3431 81 41 81V79Z" fill="#868686"/>
<rect x="61" y="84" width="77" height="8" rx="2" fill="#868686"/>
<path d="M37 60C37 57.7909 38.7909 56 41 56H49C51.2091 56 53 57.7909 53 60V68C53 70.2091 51.2091 72 49 72H41C38.7909 72 37 70.2091 37 68V60Z" fill="white"/>
<path d="M41 57H49V55H41V57ZM52 60V68H54V60H52ZM49 71H41V73H49V71ZM38 68V60H36V68H38ZM41 71C39.3431 71 38 69.6569 38 68H36C36 70.7614 38.2386 73 41 73V71ZM52 68C52 69.6569 50.6569 71 49 71V73C51.7614 73 54 70.7614 54 68H52ZM49 57C50.6569 57 52 58.3431 52 60H54C54 57.2386 51.7614 55 49 55V57ZM41 55C38.2386 55 36 57.2386 36 60H38C38 58.3431 39.3431 57 41 57V55Z" fill="#868686"/>
<rect x="61" y="60" width="64" height="8" rx="2" fill="#868686"/>
<rect x="61" y="96" width="96" height="8" rx="2" fill="#BFBFBF"/>
<rect x="37" y="16" width="72" height="8" rx="2" fill="#525252"/>
<circle cx="109" cy="119" r="16" fill="#7B58CF"/>
<circle cx="109" cy="119" r="18" stroke="#7B58CF" stroke-opacity="0.3" stroke-width="4"/>
<path d="M110.037 113.495L105.897 120.43H110.037V113.495ZM109.747 111.878H111.804V120.43H113.553V121.871H111.804V125H110.037V121.871H104.474V120.192L109.747 111.878Z" fill="white"/>
<circle cx="93" cy="64" r="16" fill="#7B58CF"/>
<circle cx="93" cy="64" r="18" stroke="#7B58CF" stroke-opacity="0.3" stroke-width="4"/>
<path d="M94.3975 62.9775C95.2588 63.2061 95.918 63.6133 96.375 64.1992C96.832 64.7793 97.0605 65.5059 97.0605 66.3789C97.0605 67.5859 96.6533 68.5352 95.8389 69.2266C95.0303 69.9121 93.9082 70.2549 92.4727 70.2549C91.8691 70.2549 91.2539 70.1992 90.627 70.0879C90 69.9766 89.3848 69.8154 88.7812 69.6045V67.8379C89.3789 68.1484 89.9678 68.3799 90.5479 68.5322C91.1279 68.6846 91.7051 68.7607 92.2793 68.7607C93.252 68.7607 93.999 68.541 94.5205 68.1016C95.042 67.6621 95.3027 67.0293 95.3027 66.2031C95.3027 65.4414 95.042 64.8379 94.5205 64.3926C93.999 63.9414 93.293 63.7158 92.4023 63.7158H91.0488V62.2568H92.4023C93.2168 62.2568 93.8525 62.0781 94.3096 61.7207C94.7666 61.3633 94.9951 60.8652 94.9951 60.2266C94.9951 59.5527 94.7812 59.0371 94.3535 58.6797C93.9316 58.3164 93.3281 58.1348 92.543 58.1348C92.0215 58.1348 91.4824 58.1934 90.9258 58.3105C90.3691 58.4277 89.7861 58.6035 89.1768 58.8379V57.2031C89.8857 57.0156 90.5156 56.875 91.0664 56.7812C91.623 56.6875 92.1152 56.6406 92.543 56.6406C93.8203 56.6406 94.8398 56.9629 95.6016 57.6074C96.3691 58.2461 96.7529 59.0957 96.7529 60.1562C96.7529 60.877 96.5508 61.4775 96.1465 61.958C95.748 62.4385 95.165 62.7783 94.3975 62.9775Z" fill="white"/>
<circle cx="26" cy="64" r="16" fill="#7B58CF"/>
<circle cx="26" cy="64" r="18" stroke="#7B58CF" stroke-opacity="0.3" stroke-width="4"/>
<path d="M23.8555 68.5059H29.8848V70H21.9131V68.5059C23.0088 67.3516 23.9668 66.332 24.7871 65.4473C25.6074 64.5625 26.1729 63.9385 26.4834 63.5752C27.0693 62.8604 27.4648 62.2832 27.6699 61.8438C27.875 61.3984 27.9775 60.9443 27.9775 60.4814C27.9775 59.749 27.7607 59.1748 27.3271 58.7588C26.8994 58.3428 26.3105 58.1348 25.5605 58.1348C25.0273 58.1348 24.4678 58.2314 23.8818 58.4248C23.2959 58.6182 22.6748 58.9111 22.0186 59.3037V57.5107C22.6221 57.2236 23.2139 57.0068 23.7939 56.8604C24.3799 56.7139 24.957 56.6406 25.5254 56.6406C26.8086 56.6406 27.8398 56.9834 28.6191 57.6689C29.4043 58.3486 29.7969 59.2422 29.7969 60.3496C29.7969 60.9121 29.665 61.4746 29.4014 62.0371C29.1436 62.5996 28.7217 63.2207 28.1357 63.9004C27.8076 64.2812 27.3301 64.8086 26.7031 65.4824C26.082 66.1562 25.1328 67.1641 23.8555 68.5059Z" fill="white"/>
<circle cx="20" cy="20" r="16" fill="#7B58CF"/>
<circle cx="20" cy="20" r="18" stroke="#7B58CF" stroke-opacity="0.3" stroke-width="4"/>
<path d="M16.9502 24.5146H19.71V14.6006L16.4053 16.1914V14.4863L19.6924 12.9219H21.4678V24.5146H24.1924V26H16.9502V24.5146Z" fill="white"/>
</svg>
