<svg width="980" height="184" viewBox="0 0 980 184" fill="none" xmlns="http://www.w3.org/2000/svg">
<path d="M49.2383 117.137C51.1729 117.137 52.6016 115.708 52.6016 113.76C52.6016 111.784 51.2275 110.342 49.3613 110.342C48.6709 110.342 48.001 110.581 47.584 110.916H47.5293L47.8848 107.908H52.1367V106.814H46.8457L46.2305 111.832L47.3926 111.969C47.8096 111.668 48.5273 111.449 49.1562 111.449C50.4551 111.449 51.3984 112.447 51.3984 113.773C51.3984 115.086 50.4893 116.043 49.2383 116.043C48.1924 116.043 47.3584 115.373 47.2695 114.457H46.0801C46.1484 116.009 47.4883 117.137 49.2383 117.137ZM57.8105 117.137C60.0596 117.137 61.3516 115.236 61.3516 111.914C61.3516 108.605 60.0391 106.678 57.8105 106.678C55.582 106.678 54.2695 108.605 54.2695 111.914C54.2695 115.236 55.5615 117.137 57.8105 117.137ZM57.8105 116.057C56.2998 116.057 55.4453 114.532 55.4453 111.914C55.4453 109.289 56.2998 107.758 57.8105 107.758C59.3213 107.758 60.1758 109.289 60.1758 111.914C60.1758 114.532 59.3213 116.057 57.8105 116.057Z" fill="#737278"/>
<path d="M130.402 106.814H129.199L126.656 108.51V109.768L129.131 108.113H129.199V117H130.402V106.814ZM136.008 117.137C138.257 117.137 139.549 115.236 139.549 111.914C139.549 108.605 138.236 106.678 136.008 106.678C133.779 106.678 132.467 108.605 132.467 111.914C132.467 115.236 133.759 117.137 136.008 117.137ZM136.008 116.057C134.497 116.057 133.643 114.532 133.643 111.914C133.643 109.289 134.497 107.758 136.008 107.758C137.519 107.758 138.373 109.289 138.373 111.914C138.373 114.532 137.519 116.057 136.008 116.057ZM144.758 117.137C147.007 117.137 148.299 115.236 148.299 111.914C148.299 108.605 146.986 106.678 144.758 106.678C142.529 106.678 141.217 108.605 141.217 111.914C141.217 115.236 142.509 117.137 144.758 117.137ZM144.758 116.057C143.247 116.057 142.393 114.532 142.393 111.914C142.393 109.289 143.247 107.758 144.758 107.758C146.269 107.758 147.123 109.289 147.123 111.914C147.123 114.532 146.269 116.057 144.758 116.057Z" fill="#737278"/>
<path d="M208.053 117H214.479V115.906H209.748V115.824L212.031 113.377C213.781 111.504 214.301 110.629 214.301 109.508C214.301 107.929 213.022 106.678 211.238 106.678C209.454 106.678 208.094 107.895 208.094 109.686H209.27C209.27 108.523 210.015 107.758 211.197 107.758C212.298 107.758 213.139 108.428 213.139 109.508C213.139 110.444 212.585 111.135 211.416 112.42L208.053 116.111V117ZM219.852 117.137C222.101 117.137 223.393 115.236 223.393 111.914C223.393 108.605 222.08 106.678 219.852 106.678C217.623 106.678 216.311 108.605 216.311 111.914C216.311 115.236 217.603 117.137 219.852 117.137ZM219.852 116.057C218.341 116.057 217.486 114.532 217.486 111.914C217.486 109.289 218.341 107.758 219.852 107.758C221.362 107.758 222.217 109.289 222.217 111.914C222.217 114.532 221.362 116.057 219.852 116.057ZM228.602 117.137C230.851 117.137 232.143 115.236 232.143 111.914C232.143 108.605 230.83 106.678 228.602 106.678C226.373 106.678 225.061 108.605 225.061 111.914C225.061 115.236 226.353 117.137 228.602 117.137ZM228.602 116.057C227.091 116.057 226.236 114.532 226.236 111.914C226.236 109.289 227.091 107.758 228.602 107.758C230.112 107.758 230.967 109.289 230.967 111.914C230.967 114.532 230.112 116.057 228.602 116.057Z" fill="#737278"/>
<path d="M292.498 117.137C294.467 117.137 295.93 115.899 295.93 114.238C295.93 112.946 295.171 112.003 293.893 111.791V111.709C294.918 111.395 295.561 110.554 295.561 109.398C295.561 107.963 294.419 106.678 292.539 106.678C290.775 106.678 289.312 107.765 289.258 109.357H290.447C290.488 108.353 291.452 107.758 292.512 107.758C293.64 107.758 294.357 108.435 294.357 109.467C294.357 110.54 293.523 111.23 292.32 111.23H291.5V112.324H292.32C293.858 112.324 294.727 113.11 294.727 114.238C294.727 115.312 293.783 116.043 292.471 116.043C291.295 116.043 290.358 115.441 290.283 114.457H289.039C289.107 116.057 290.522 117.137 292.498 117.137ZM301.289 117.137C303.538 117.137 304.83 115.236 304.83 111.914C304.83 108.605 303.518 106.678 301.289 106.678C299.061 106.678 297.748 108.605 297.748 111.914C297.748 115.236 299.04 117.137 301.289 117.137ZM301.289 116.057C299.778 116.057 298.924 114.532 298.924 111.914C298.924 109.289 299.778 107.758 301.289 107.758C302.8 107.758 303.654 109.289 303.654 111.914C303.654 114.532 302.8 116.057 301.289 116.057ZM310.039 117.137C312.288 117.137 313.58 115.236 313.58 111.914C313.58 108.605 312.268 106.678 310.039 106.678C307.811 106.678 306.498 108.605 306.498 111.914C306.498 115.236 307.79 117.137 310.039 117.137ZM310.039 116.057C308.528 116.057 307.674 114.532 307.674 111.914C307.674 109.289 308.528 107.758 310.039 107.758C311.55 107.758 312.404 109.289 312.404 111.914C312.404 114.532 311.55 116.057 310.039 116.057Z" fill="#737278"/>
<path d="M369.82 114.908H377.176V113.814H371.146V113.732L374.523 108.387H375.029V106.814H374.291L369.82 113.896V114.908ZM374.605 117H375.781V106.814H374.605V114.129V114.607V117ZM382.357 117.137C384.606 117.137 385.898 115.236 385.898 111.914C385.898 108.605 384.586 106.678 382.357 106.678C380.129 106.678 378.816 108.605 378.816 111.914C378.816 115.236 380.108 117.137 382.357 117.137ZM382.357 116.057C380.847 116.057 379.992 114.532 379.992 111.914C379.992 109.289 380.847 107.758 382.357 107.758C383.868 107.758 384.723 109.289 384.723 111.914C384.723 114.532 383.868 116.057 382.357 116.057ZM391.107 117.137C393.356 117.137 394.648 115.236 394.648 111.914C394.648 108.605 393.336 106.678 391.107 106.678C388.879 106.678 387.566 108.605 387.566 111.914C387.566 115.236 388.858 117.137 391.107 117.137ZM391.107 116.057C389.597 116.057 388.742 114.532 388.742 111.914C388.742 109.289 389.597 107.758 391.107 107.758C392.618 107.758 393.473 109.289 393.473 111.914C393.473 114.532 392.618 116.057 391.107 116.057Z" fill="#737278"/>
<path d="M454.238 117.137C456.173 117.137 457.602 115.708 457.602 113.76C457.602 111.784 456.228 110.342 454.361 110.342C453.671 110.342 453.001 110.581 452.584 110.916H452.529L452.885 107.908H457.137V106.814H451.846L451.23 111.832L452.393 111.969C452.81 111.668 453.527 111.449 454.156 111.449C455.455 111.449 456.398 112.447 456.398 113.773C456.398 115.086 455.489 116.043 454.238 116.043C453.192 116.043 452.358 115.373 452.27 114.457H451.08C451.148 116.009 452.488 117.137 454.238 117.137ZM462.811 117.137C465.06 117.137 466.352 115.236 466.352 111.914C466.352 108.605 465.039 106.678 462.811 106.678C460.582 106.678 459.27 108.605 459.27 111.914C459.27 115.236 460.562 117.137 462.811 117.137ZM462.811 116.057C461.3 116.057 460.445 114.532 460.445 111.914C460.445 109.289 461.3 107.758 462.811 107.758C464.321 107.758 465.176 109.289 465.176 111.914C465.176 114.532 464.321 116.057 462.811 116.057ZM471.561 117.137C473.81 117.137 475.102 115.236 475.102 111.914C475.102 108.605 473.789 106.678 471.561 106.678C469.332 106.678 468.02 108.605 468.02 111.914C468.02 115.236 469.312 117.137 471.561 117.137ZM471.561 116.057C470.05 116.057 469.195 114.532 469.195 111.914C469.195 109.289 470.05 107.758 471.561 107.758C473.071 107.758 473.926 109.289 473.926 111.914C473.926 114.532 473.071 116.057 471.561 116.057Z" fill="#737278"/>
<path d="M535.375 117.137C537.439 117.137 538.779 115.612 538.779 113.719C538.779 111.75 537.323 110.342 535.58 110.342C534.527 110.342 533.632 110.848 533.078 111.695H532.996C532.996 109.207 533.96 107.771 535.539 107.771C536.612 107.771 537.262 108.448 537.494 109.357H538.697C538.451 107.785 537.248 106.678 535.539 106.678C533.249 106.678 531.834 108.708 531.834 112.311C531.834 116.07 533.707 117.137 535.375 117.137ZM535.375 116.043C534.104 116.043 533.174 114.956 533.174 113.732C533.174 112.522 534.158 111.436 535.416 111.436C536.667 111.436 537.59 112.454 537.59 113.719C537.59 115.011 536.626 116.043 535.375 116.043ZM543.988 117.137C546.237 117.137 547.529 115.236 547.529 111.914C547.529 108.605 546.217 106.678 543.988 106.678C541.76 106.678 540.447 108.605 540.447 111.914C540.447 115.236 541.739 117.137 543.988 117.137ZM543.988 116.057C542.478 116.057 541.623 114.532 541.623 111.914C541.623 109.289 542.478 107.758 543.988 107.758C545.499 107.758 546.354 109.289 546.354 111.914C546.354 114.532 545.499 116.057 543.988 116.057ZM552.738 117.137C554.987 117.137 556.279 115.236 556.279 111.914C556.279 108.605 554.967 106.678 552.738 106.678C550.51 106.678 549.197 108.605 549.197 111.914C549.197 115.236 550.489 117.137 552.738 117.137ZM552.738 116.057C551.228 116.057 550.373 114.532 550.373 111.914C550.373 109.289 551.228 107.758 552.738 107.758C554.249 107.758 555.104 109.289 555.104 111.914C555.104 114.532 554.249 116.057 552.738 116.057Z" fill="#737278"/>
<path d="M613.367 117H614.666L619.205 107.977V106.814H612.67V107.908H617.92V107.99L613.367 117ZM624.031 117.137C626.28 117.137 627.572 115.236 627.572 111.914C627.572 108.605 626.26 106.678 624.031 106.678C621.803 106.678 620.49 108.605 620.49 111.914C620.49 115.236 621.782 117.137 624.031 117.137ZM624.031 116.057C622.521 116.057 621.666 114.532 621.666 111.914C621.666 109.289 622.521 107.758 624.031 107.758C625.542 107.758 626.396 109.289 626.396 111.914C626.396 114.532 625.542 116.057 624.031 116.057ZM632.781 117.137C635.03 117.137 636.322 115.236 636.322 111.914C636.322 108.605 635.01 106.678 632.781 106.678C630.553 106.678 629.24 108.605 629.24 111.914C629.24 115.236 630.532 117.137 632.781 117.137ZM632.781 116.057C631.271 116.057 630.416 114.532 630.416 111.914C630.416 109.289 631.271 107.758 632.781 107.758C634.292 107.758 635.146 109.289 635.146 111.914C635.146 114.532 634.292 116.057 632.781 116.057Z" fill="#737278"/>
<path d="M697.293 117.137C699.323 117.137 700.752 115.954 700.752 114.293C700.752 113.008 699.877 111.914 698.783 111.709V111.654C699.733 111.401 700.369 110.465 700.369 109.385C700.369 107.833 699.057 106.678 697.293 106.678C695.495 106.678 694.203 107.833 694.203 109.385C694.203 110.465 694.825 111.401 695.803 111.654V111.709C694.675 111.914 693.834 113.008 693.834 114.293C693.834 115.954 695.235 117.137 697.293 117.137ZM697.293 116.043C695.892 116.043 695.037 115.332 695.037 114.238C695.037 113.09 695.98 112.27 697.293 112.27C698.578 112.27 699.535 113.09 699.535 114.238C699.535 115.332 698.667 116.043 697.293 116.043ZM697.293 111.217C696.172 111.217 695.393 110.52 695.393 109.467C695.393 108.428 696.145 107.758 697.293 107.758C698.414 107.758 699.18 108.428 699.18 109.467C699.18 110.52 698.38 111.217 697.293 111.217ZM705.961 117.137C708.21 117.137 709.502 115.236 709.502 111.914C709.502 108.605 708.189 106.678 705.961 106.678C703.732 106.678 702.42 108.605 702.42 111.914C702.42 115.236 703.712 117.137 705.961 117.137ZM705.961 116.057C704.45 116.057 703.596 114.532 703.596 111.914C703.596 109.289 704.45 107.758 705.961 107.758C707.472 107.758 708.326 109.289 708.326 111.914C708.326 114.532 707.472 116.057 705.961 116.057ZM714.711 117.137C716.96 117.137 718.252 115.236 718.252 111.914C718.252 108.605 716.939 106.678 714.711 106.678C712.482 106.678 711.17 108.605 711.17 111.914C711.17 115.236 712.462 117.137 714.711 117.137ZM714.711 116.057C713.2 116.057 712.346 114.532 712.346 111.914C712.346 109.289 713.2 107.758 714.711 107.758C716.222 107.758 717.076 109.289 717.076 111.914C717.076 114.532 716.222 116.057 714.711 116.057Z" fill="#737278"/>
<path d="M778.238 106.678C776.174 106.657 774.841 108.209 774.834 110.082C774.841 112.051 776.29 113.459 778.047 113.459C779.093 113.459 779.988 112.946 780.549 112.105H780.631C780.624 114.614 779.653 116.043 778.088 116.043C777.008 116.043 776.352 115.366 776.133 114.43H774.916C775.155 116.043 776.372 117.137 778.088 117.137C780.371 117.137 781.779 115.113 781.779 111.49C781.779 107.751 779.913 106.698 778.238 106.678ZM778.238 107.771C779.517 107.771 780.446 108.865 780.453 110.055C780.446 111.271 779.455 112.365 778.197 112.365C776.946 112.365 776.03 111.354 776.037 110.082C776.03 108.804 776.987 107.771 778.238 107.771ZM786.988 117.137C789.237 117.137 790.529 115.236 790.529 111.914C790.529 108.605 789.217 106.678 786.988 106.678C784.76 106.678 783.447 108.605 783.447 111.914C783.447 115.236 784.739 117.137 786.988 117.137ZM786.988 116.057C785.478 116.057 784.623 114.532 784.623 111.914C784.623 109.289 785.478 107.758 786.988 107.758C788.499 107.758 789.354 109.289 789.354 111.914C789.354 114.532 788.499 116.057 786.988 116.057ZM795.738 117.137C797.987 117.137 799.279 115.236 799.279 111.914C799.279 108.605 797.967 106.678 795.738 106.678C793.51 106.678 792.197 108.605 792.197 111.914C792.197 115.236 793.489 117.137 795.738 117.137ZM795.738 116.057C794.228 116.057 793.373 114.532 793.373 111.914C793.373 109.289 794.228 107.758 795.738 107.758C797.249 107.758 798.104 109.289 798.104 111.914C798.104 114.532 797.249 116.057 795.738 116.057Z" fill="#737278"/>
<path d="M859.238 106.678C857.174 106.657 855.841 108.209 855.834 110.082C855.841 112.051 857.29 113.459 859.047 113.459C860.093 113.459 860.988 112.946 861.549 112.105H861.631C861.624 114.614 860.653 116.043 859.088 116.043C858.008 116.043 857.352 115.366 857.133 114.43H855.916C856.155 116.043 857.372 117.137 859.088 117.137C861.371 117.137 862.779 115.113 862.779 111.49C862.779 107.751 860.913 106.698 859.238 106.678ZM859.238 107.771C860.517 107.771 861.446 108.865 861.453 110.055C861.446 111.271 860.455 112.365 859.197 112.365C857.946 112.365 857.03 111.354 857.037 110.082C857.03 108.804 857.987 107.771 859.238 107.771ZM867.852 117.137C869.786 117.137 871.215 115.708 871.215 113.76C871.215 111.784 869.841 110.342 867.975 110.342C867.284 110.342 866.614 110.581 866.197 110.916H866.143L866.498 107.908H870.75V106.814H865.459L864.844 111.832L866.006 111.969C866.423 111.668 867.141 111.449 867.77 111.449C869.068 111.449 870.012 112.447 870.012 113.773C870.012 115.086 869.103 116.043 867.852 116.043C866.806 116.043 865.972 115.373 865.883 114.457H864.693C864.762 116.009 866.102 117.137 867.852 117.137ZM876.424 117.137C878.673 117.137 879.965 115.236 879.965 111.914C879.965 108.605 878.652 106.678 876.424 106.678C874.195 106.678 872.883 108.605 872.883 111.914C872.883 115.236 874.175 117.137 876.424 117.137ZM876.424 116.057C874.913 116.057 874.059 114.532 874.059 111.914C874.059 109.289 874.913 107.758 876.424 107.758C877.935 107.758 878.789 109.289 878.789 111.914C878.789 114.532 877.935 116.057 876.424 116.057Z" fill="#737278"/>
<rect x="45" y="128" width="80" height="40" fill="#E9F3FC"/>
<rect x="126" y="128" width="80" height="40" fill="#CBE2F9"/>
<rect x="207" y="128" width="80" height="40" fill="#9DC7F1"/>
<rect x="288" y="128" width="80" height="40" fill="#63A6E9"/>
<rect x="369" y="128" width="80" height="40" fill="#428FDC"/>
<rect x="450" y="128" width="80" height="40" fill="#1F75CB"/>
<rect x="531" y="128" width="80" height="40" fill="#1068BF"/>
<rect x="612" y="128" width="80" height="40" fill="#0B5CAD"/>
<rect x="693" y="128" width="80" height="40" fill="#064787"/>
<rect x="774" y="128" width="80" height="40" fill="#033464"/>
<rect x="855" y="128" width="80" height="40" fill="#002850"/>
<path d="M1.24609 153H4.92383C7.33691 153 8.32812 151.824 8.32812 150.293C8.32812 148.687 7.21387 147.812 6.27734 147.75V147.654C7.15234 147.415 7.93164 146.834 7.93164 145.521C7.93164 144.031 6.93359 142.814 4.81445 142.814H1.24609V153ZM2.47656 151.906V148.365H4.99219C6.31836 148.365 7.15234 149.261 7.15234 150.293C7.15234 151.188 6.53711 151.906 4.92383 151.906H2.47656ZM2.47656 147.299V143.908H4.81445C6.16113 143.908 6.75586 144.626 6.75586 145.521C6.75586 146.595 5.88086 147.299 4.77344 147.299H2.47656ZM11.8691 153.055C12.2041 153.055 12.5391 153 12.7441 152.945L12.5049 151.947C12.3887 151.981 12.2725 152.002 12.0059 152.002C11.4863 152.002 11.3633 151.749 11.3633 151.018V142.814H10.2012V151.332C10.2012 152.419 10.7549 153.055 11.8691 153.055ZM18.6367 149.883C18.6367 151.312 17.5361 151.968 16.668 151.961C15.6904 151.968 14.9863 151.25 14.9863 150.143V145.357H13.8242V150.211C13.8242 152.166 14.8496 153.103 16.2852 153.096C17.4404 153.103 18.1924 152.48 18.5547 151.701H18.6367V153H19.7988V145.357H18.6367V149.883ZM25.1582 153.164C26.7031 153.164 27.8379 152.385 28.1934 151.236L27.0586 150.908C26.7646 151.708 26.0742 152.111 25.1582 152.111C23.7295 152.111 22.7656 151.154 22.7656 149.418V148.748C22.7656 147.483 23.5996 146.314 25.0078 146.314C26.416 146.314 27.1406 147.422 27.1406 148.953L27.6807 148.57H22.4238V149.582H28.3164V149.076C28.3164 146.239 26.6006 145.262 25.0078 145.262C22.9365 145.262 21.5898 146.896 21.5898 149.24C21.5898 151.585 22.9502 153.164 25.1582 153.164Z" fill="#737278"/>
<circle cx="628" cy="168" r="12" fill="#7B58CF"/>
<circle cx="628" cy="168" r="14" stroke="#7B58CF" stroke-opacity="0.3" stroke-width="4"/>
<path d="M628.807 164.052L625.587 169.445H628.807V164.052ZM628.581 162.794H630.181V169.445H631.541V170.566H630.181V173H628.807V170.566H624.479V169.261L628.581 162.794Z" fill="white"/>
<circle cx="580" cy="168" r="12" fill="#7B58CF"/>
<circle cx="580" cy="168" r="14" stroke="#7B58CF" stroke-opacity="0.3" stroke-width="4"/>
<path d="M581.087 167.538C581.757 167.716 582.27 168.033 582.625 168.488C582.98 168.939 583.158 169.505 583.158 170.184C583.158 171.122 582.841 171.861 582.208 172.398C581.579 172.932 580.706 173.198 579.59 173.198C579.12 173.198 578.642 173.155 578.154 173.068C577.667 172.982 577.188 172.856 576.719 172.692V171.318C577.184 171.56 577.642 171.74 578.093 171.858C578.544 171.977 578.993 172.036 579.439 172.036C580.196 172.036 580.777 171.865 581.183 171.523C581.588 171.182 581.791 170.689 581.791 170.047C581.791 169.454 581.588 168.985 581.183 168.639C580.777 168.288 580.228 168.112 579.535 168.112H578.482V166.978H579.535C580.169 166.978 580.663 166.839 581.019 166.561C581.374 166.283 581.552 165.895 581.552 165.398C581.552 164.874 581.385 164.473 581.053 164.195C580.725 163.913 580.255 163.771 579.645 163.771C579.239 163.771 578.82 163.817 578.387 163.908C577.954 163.999 577.5 164.136 577.026 164.318V163.047C577.578 162.901 578.068 162.792 578.496 162.719C578.929 162.646 579.312 162.609 579.645 162.609C580.638 162.609 581.431 162.86 582.023 163.361C582.62 163.858 582.919 164.519 582.919 165.344C582.919 165.904 582.762 166.371 582.447 166.745C582.137 167.119 581.684 167.383 581.087 167.538Z" fill="white"/>
<circle cx="547" cy="168" r="12" fill="#7B58CF"/>
<circle cx="547" cy="168" r="14" stroke="#7B58CF" stroke-opacity="0.3" stroke-width="4"/>
<path d="M545.332 171.838H550.021V173H543.821V171.838C544.674 170.94 545.419 170.147 546.057 169.459C546.695 168.771 547.134 168.285 547.376 168.003C547.832 167.447 548.139 166.998 548.299 166.656C548.458 166.31 548.538 165.957 548.538 165.597C548.538 165.027 548.369 164.58 548.032 164.257C547.7 163.933 547.242 163.771 546.658 163.771C546.243 163.771 545.808 163.847 545.353 163.997C544.897 164.147 544.414 164.375 543.903 164.681V163.286C544.373 163.063 544.833 162.894 545.284 162.78C545.74 162.666 546.189 162.609 546.631 162.609C547.629 162.609 548.431 162.876 549.037 163.409C549.648 163.938 549.953 164.633 549.953 165.494C549.953 165.932 549.851 166.369 549.646 166.807C549.445 167.244 549.117 167.727 548.661 168.256C548.406 168.552 548.035 168.962 547.547 169.486C547.064 170.01 546.326 170.794 545.332 171.838Z" fill="white"/>
<circle cx="466" cy="168" r="12" fill="#7B58CF"/>
<circle cx="466" cy="168" r="14" stroke="#7B58CF" stroke-opacity="0.3" stroke-width="4"/>
<path d="M463.628 171.845H465.774V164.134L463.204 165.371V164.045L465.761 162.828H467.142V171.845H469.261V173H463.628V171.845Z" fill="white"/>
<rect x="658" y="33" width="69" height="30" rx="3" fill="#0B5CAD"/>
<path d="M673.457 53.1777C675.802 53.1777 677.135 51.8857 677.135 50.2383C677.135 48.3242 675.316 47.7295 674.264 47.4355L673.238 47.1484C672.486 46.9365 671.27 46.5537 671.27 45.4668C671.27 44.4893 672.165 43.7715 673.512 43.7715C674.749 43.7715 675.679 44.3594 675.795 45.3574H676.998C676.937 43.8262 675.521 42.6777 673.553 42.6777C671.604 42.6777 670.08 43.8125 670.08 45.5215C670.08 46.8955 671.071 47.7158 672.664 48.1738L673.908 48.5293C674.981 48.8369 675.945 49.1992 675.945 50.2109C675.945 51.332 674.865 52.0703 673.457 52.0703C672.24 52.0703 671.167 51.5303 671.064 50.375H669.793C669.916 52.043 671.27 53.1777 673.457 53.1777ZM683.82 49.8828C683.82 51.3115 682.72 51.9678 681.852 51.9609C680.874 51.9678 680.17 51.25 680.17 50.1426V45.3574H679.008V50.2109C679.008 52.166 680.033 53.1025 681.469 53.0957C682.624 53.1025 683.376 52.4805 683.738 51.7012H683.82V53H684.982V45.3574H683.82V49.8828ZM690.629 53.1641C692.543 53.1641 693.869 51.626 693.869 49.1992C693.869 46.793 692.543 45.2617 690.615 45.2617C689.118 45.2617 688.66 46.1777 688.4 46.5742H688.305V42.8145H687.143V53H688.264V51.8242H688.4C688.66 52.2412 689.159 53.1641 690.629 53.1641ZM690.479 52.1113C689.063 52.1113 688.291 50.915 688.291 49.1855C688.291 47.4697 689.043 46.3145 690.479 46.3145C691.962 46.3145 692.693 47.5723 692.693 49.1855C692.693 50.8125 691.941 52.1113 690.479 52.1113ZM695.66 53H696.822V48.2285C696.822 47.1074 697.643 46.3145 698.559 46.3145C699.447 46.3145 700.062 46.9023 700.062 47.7637V53H701.266V48.0234C701.266 47.0459 701.881 46.3145 702.947 46.3145C703.788 46.3145 704.506 46.7588 704.506 47.8867V53H705.682V47.8867C705.682 46.0957 704.711 45.2617 703.344 45.2617C702.257 45.2617 701.457 45.7676 701.061 46.5605H700.979C700.603 45.7402 699.939 45.2617 698.941 45.2617C697.943 45.2617 697.205 45.7402 696.891 46.5605H696.781V45.3574H695.66V53ZM707.842 53H709.004V45.3574H707.842V53ZM708.43 44.0859C708.888 44.0859 709.264 43.7305 709.264 43.293C709.264 42.8555 708.888 42.5 708.43 42.5C707.972 42.5 707.596 42.8555 707.596 43.293C707.596 43.7305 707.972 44.0859 708.43 44.0859ZM714.473 45.3574H710.521V46.3555H714.473V45.3574ZM711.67 43.5391V51.127C711.67 52.2959 712.518 53.0957 713.748 53.0957C714.069 53.0957 714.404 53.041 714.623 52.959L714.377 51.9062C714.172 51.9473 714.015 51.9609 713.857 51.9609C713.146 51.9609 712.832 51.6055 712.832 50.8125V43.5391H711.67Z" fill="white"/>
<rect x="655.5" y="30.5" width="74" height="35" rx="5.5" stroke="#1F75CB" stroke-width="3"/>
<rect x="656.5" y="31.5" width="72" height="33" rx="4.5" stroke="white"/>
<rect x="658" y="33" width="69" height="30" rx="3" stroke="#033464" stroke-width="2"/>
<path d="M658.654 13L661.689 4.42773H661.771L664.82 13H666.105L662.373 2.81445L661.102 2.81445L657.355 13H658.654ZM659.133 9.02148V10.1152L664.342 10.1152V9.02148L659.133 9.02148ZM670.631 13.1641C672.326 13.1641 673.44 12.125 673.639 10.7715L672.463 10.7715C672.251 11.6055 671.554 12.1113 670.631 12.1113C669.243 12.1113 668.348 10.9492 668.348 9.18555C668.348 7.44922 669.264 6.31445 670.631 6.31445C671.67 6.31445 672.285 6.95703 672.463 7.6543H673.639C673.44 6.21875 672.23 5.26172 670.617 5.26172C668.546 5.26172 667.172 6.89551 667.172 9.22656C667.172 11.5098 668.491 13.1641 670.631 13.1641ZM678.711 5.35742L674.76 5.35742V6.35547L678.711 6.35547V5.35742ZM675.908 3.53906V11.127C675.908 12.2959 676.756 13.0957 677.986 13.0957C678.308 13.0957 678.643 13.041 678.861 12.959L678.615 11.9063C678.41 11.9473 678.253 11.9609 678.096 11.9609C677.385 11.9609 677.07 11.6055 677.07 10.8125V3.53906H675.908ZM680.488 13H681.65V5.35742H680.488V13ZM681.076 4.08594C681.534 4.08594 681.91 3.73047 681.91 3.29297C681.91 2.85547 681.534 2.5 681.076 2.5C680.618 2.5 680.242 2.85547 680.242 3.29297C680.242 3.73047 680.618 4.08594 681.076 4.08594ZM690.045 5.35742H688.773L686.668 11.4551H686.586L684.48 5.35742H683.209L686.025 13H687.229L690.045 5.35742ZM694.529 13.1641C696.074 13.1641 697.209 12.3848 697.564 11.2363L696.43 10.9082C696.136 11.708 695.445 12.1113 694.529 12.1113C693.101 12.1113 692.137 11.1543 692.137 9.41797V8.74805C692.137 7.4834 692.971 6.31445 694.379 6.31445C695.787 6.31445 696.512 7.42188 696.512 8.95313L697.052 8.57031L691.795 8.57031V9.58203L697.688 9.58203V9.07617C697.688 6.23926 695.972 5.26172 694.379 5.26172C692.308 5.26172 690.961 6.89551 690.961 9.24023C690.961 11.585 692.321 13.1641 694.529 13.1641Z" fill="#737278"/>
<rect x="523" y="33" width="69" height="30" rx="3" fill="#1068BF"/>
<path d="M538.457 53.1777C540.802 53.1777 542.135 51.8857 542.135 50.2383C542.135 48.3242 540.316 47.7295 539.264 47.4355L538.238 47.1484C537.486 46.9365 536.27 46.5537 536.27 45.4668C536.27 44.4893 537.165 43.7715 538.512 43.7715C539.749 43.7715 540.679 44.3594 540.795 45.3574H541.998C541.937 43.8262 540.521 42.6777 538.553 42.6777C536.604 42.6777 535.08 43.8125 535.08 45.5215C535.08 46.8955 536.071 47.7158 537.664 48.1738L538.908 48.5293C539.981 48.8369 540.945 49.1992 540.945 50.2109C540.945 51.332 539.865 52.0703 538.457 52.0703C537.24 52.0703 536.167 51.5303 536.064 50.375H534.793C534.916 52.043 536.27 53.1777 538.457 53.1777ZM548.82 49.8828C548.82 51.3115 547.72 51.9678 546.852 51.9609C545.874 51.9678 545.17 51.25 545.17 50.1426V45.3574H544.008V50.2109C544.008 52.166 545.033 53.1025 546.469 53.0957C547.624 53.1025 548.376 52.4805 548.738 51.7012H548.82V53H549.982V45.3574H548.82V49.8828ZM555.629 53.1641C557.543 53.1641 558.869 51.626 558.869 49.1992C558.869 46.793 557.543 45.2617 555.615 45.2617C554.118 45.2617 553.66 46.1777 553.4 46.5742H553.305V42.8145H552.143V53H553.264V51.8242H553.4C553.66 52.2412 554.159 53.1641 555.629 53.1641ZM555.479 52.1113C554.063 52.1113 553.291 50.915 553.291 49.1855C553.291 47.4697 554.043 46.3145 555.479 46.3145C556.962 46.3145 557.693 47.5723 557.693 49.1855C557.693 50.8125 556.941 52.1113 555.479 52.1113ZM560.66 53H561.822V48.2285C561.822 47.1074 562.643 46.3145 563.559 46.3145C564.447 46.3145 565.062 46.9023 565.062 47.7637V53H566.266V48.0234C566.266 47.0459 566.881 46.3145 567.947 46.3145C568.788 46.3145 569.506 46.7588 569.506 47.8867V53H570.682V47.8867C570.682 46.0957 569.711 45.2617 568.344 45.2617C567.257 45.2617 566.457 45.7676 566.061 46.5605H565.979C565.603 45.7402 564.939 45.2617 563.941 45.2617C562.943 45.2617 562.205 45.7402 561.891 46.5605H561.781V45.3574H560.66V53ZM572.842 53H574.004V45.3574H572.842V53ZM573.43 44.0859C573.888 44.0859 574.264 43.7305 574.264 43.293C574.264 42.8555 573.888 42.5 573.43 42.5C572.972 42.5 572.596 42.8555 572.596 43.293C572.596 43.7305 572.972 44.0859 573.43 44.0859ZM579.473 45.3574H575.521V46.3555H579.473V45.3574ZM576.67 43.5391V51.127C576.67 52.2959 577.518 53.0957 578.748 53.0957C579.069 53.0957 579.404 53.041 579.623 52.959L579.377 51.9062C579.172 51.9473 579.015 51.9609 578.857 51.9609C578.146 51.9609 577.832 51.6055 577.832 50.8125V43.5391H576.67Z" fill="white"/>
<rect x="520.5" y="30.5" width="74" height="35" rx="5.5" stroke="#1F75CB" stroke-width="3"/>
<rect x="521.5" y="31.5" width="72" height="33" rx="4.5" stroke="white"/>
<rect x="523" y="33" width="69" height="30" rx="3" stroke="#064787" stroke-width="2"/>
<path d="M523.23 13H524.461V8.55664L528.877 8.55664V7.46289L524.461 7.46289V3.9082L529.342 3.9082V2.81445L523.23 2.81445V13ZM533.826 13.1641C535.897 13.1641 537.299 11.585 537.299 9.22656C537.299 6.83398 535.897 5.26172 533.826 5.26172C531.762 5.26172 530.367 6.83398 530.367 9.22656C530.367 11.585 531.762 13.1641 533.826 13.1641ZM533.826 12.1113C532.261 12.1113 531.543 10.751 531.543 9.22656C531.543 7.68848 532.261 6.31445 533.826 6.31445C535.405 6.31445 536.123 7.68848 536.123 9.22656C536.123 10.751 535.405 12.1113 533.826 12.1113ZM542.18 13.1641C543.875 13.1641 544.989 12.125 545.188 10.7715H544.012C543.8 11.6055 543.103 12.1113 542.18 12.1113C540.792 12.1113 539.896 10.9492 539.896 9.18555C539.896 7.44922 540.812 6.31445 542.18 6.31445C543.219 6.31445 543.834 6.95703 544.012 7.6543H545.188C544.989 6.21875 543.779 5.26172 542.166 5.26172C540.095 5.26172 538.721 6.89551 538.721 9.22656C538.721 11.5098 540.04 13.1641 542.18 13.1641ZM551.764 9.88281C551.764 11.3115 550.663 11.9678 549.795 11.9609C548.817 11.9678 548.113 11.25 548.113 10.1426V5.35742H546.951V10.2109C546.951 12.166 547.977 13.1025 549.412 13.0957C550.567 13.1025 551.319 12.4805 551.682 11.7012H551.764V13H552.926V5.35742L551.764 5.35742V9.88281ZM560.486 7.08008C560.124 5.99316 559.297 5.26172 557.779 5.26172C556.173 5.26172 554.977 6.17773 554.977 7.47656C554.977 8.52246 555.605 9.21973 557.014 9.55469L558.285 9.85547C559.051 10.04 559.42 10.4023 559.42 10.9355C559.42 11.585 558.716 12.125 557.629 12.125C556.665 12.125 556.063 11.7148 555.852 10.8945L554.744 11.168C555.018 12.4668 556.084 13.1641 557.643 13.1641C559.42 13.1641 560.623 12.1865 560.623 10.8672C560.623 9.80762 559.96 9.13086 558.6 8.80273L557.465 8.5293C556.562 8.31055 556.152 7.99609 556.152 7.4082C556.152 6.75879 556.85 6.27344 557.779 6.27344C558.812 6.27344 559.229 6.84766 559.434 7.36719L560.486 7.08008Z" fill="#737278"/>
<rect x="388" y="33" width="69" height="30" rx="3" fill="#1068BF"/>
<path d="M403.457 53.1777C405.802 53.1777 407.135 51.8857 407.135 50.2383C407.135 48.3242 405.316 47.7295 404.264 47.4355L403.238 47.1484C402.486 46.9365 401.27 46.5537 401.27 45.4668C401.27 44.4893 402.165 43.7715 403.512 43.7715C404.749 43.7715 405.679 44.3594 405.795 45.3574H406.998C406.937 43.8262 405.521 42.6777 403.553 42.6777C401.604 42.6777 400.08 43.8125 400.08 45.5215C400.08 46.8955 401.071 47.7158 402.664 48.1738L403.908 48.5293C404.981 48.8369 405.945 49.1992 405.945 50.2109C405.945 51.332 404.865 52.0703 403.457 52.0703C402.24 52.0703 401.167 51.5303 401.064 50.375H399.793C399.916 52.043 401.27 53.1777 403.457 53.1777ZM413.82 49.8828C413.82 51.3115 412.72 51.9678 411.852 51.9609C410.874 51.9678 410.17 51.25 410.17 50.1426V45.3574H409.008V50.2109C409.008 52.166 410.033 53.1025 411.469 53.0957C412.624 53.1025 413.376 52.4805 413.738 51.7012H413.82V53H414.982V45.3574H413.82V49.8828ZM420.629 53.1641C422.543 53.1641 423.869 51.626 423.869 49.1992C423.869 46.793 422.543 45.2617 420.615 45.2617C419.118 45.2617 418.66 46.1777 418.4 46.5742H418.305V42.8145H417.143V53H418.264V51.8242H418.4C418.66 52.2412 419.159 53.1641 420.629 53.1641ZM420.479 52.1113C419.063 52.1113 418.291 50.915 418.291 49.1855C418.291 47.4697 419.043 46.3145 420.479 46.3145C421.962 46.3145 422.693 47.5723 422.693 49.1855C422.693 50.8125 421.941 52.1113 420.479 52.1113ZM425.66 53H426.822V48.2285C426.822 47.1074 427.643 46.3145 428.559 46.3145C429.447 46.3145 430.062 46.9023 430.062 47.7637V53H431.266V48.0234C431.266 47.0459 431.881 46.3145 432.947 46.3145C433.788 46.3145 434.506 46.7588 434.506 47.8867V53H435.682V47.8867C435.682 46.0957 434.711 45.2617 433.344 45.2617C432.257 45.2617 431.457 45.7676 431.061 46.5605H430.979C430.603 45.7402 429.939 45.2617 428.941 45.2617C427.943 45.2617 427.205 45.7402 426.891 46.5605H426.781V45.3574H425.66V53ZM437.842 53H439.004V45.3574H437.842V53ZM438.43 44.0859C438.888 44.0859 439.264 43.7305 439.264 43.293C439.264 42.8555 438.888 42.5 438.43 42.5C437.972 42.5 437.596 42.8555 437.596 43.293C437.596 43.7305 437.972 44.0859 438.43 44.0859ZM444.473 45.3574H440.521V46.3555H444.473V45.3574ZM441.67 43.5391V51.127C441.67 52.2959 442.518 53.0957 443.748 53.0957C444.069 53.0957 444.404 53.041 444.623 52.959L444.377 51.9062C444.172 51.9473 444.015 51.9609 443.857 51.9609C443.146 51.9609 442.832 51.6055 442.832 50.8125V43.5391H441.67Z" fill="white"/>
<rect x="388" y="33" width="69" height="30" rx="3" stroke="#064787" stroke-width="2"/>
<path d="M388.23 13H389.461V8.44727L394.889 8.44727V13H396.119V2.81445H394.889V7.35352L389.461 7.35352V2.81445L388.23 2.81445V13ZM401.52 13.1641C403.591 13.1641 404.992 11.585 404.992 9.22656C404.992 6.83398 403.591 5.26172 401.52 5.26172C399.455 5.26172 398.061 6.83398 398.061 9.22656C398.061 11.585 399.455 13.1641 401.52 13.1641ZM401.52 12.1113C399.954 12.1113 399.236 10.751 399.236 9.22656C399.236 7.68848 399.954 6.31445 401.52 6.31445C403.099 6.31445 403.816 7.68848 403.816 9.22656C403.816 10.751 403.099 12.1113 401.52 12.1113ZM412.744 5.35742L411.473 5.35742L409.367 11.4551H409.285L407.18 5.35742L405.908 5.35742L408.725 13H409.928L412.744 5.35742ZM417.229 13.1641C418.773 13.1641 419.908 12.3848 420.264 11.2363L419.129 10.9082C418.835 11.708 418.145 12.1113 417.229 12.1113C415.8 12.1113 414.836 11.1543 414.836 9.41797V8.74805C414.836 7.4834 415.67 6.31445 417.078 6.31445C418.486 6.31445 419.211 7.42188 419.211 8.95313L419.751 8.57031L414.494 8.57031V9.58203L420.387 9.58203V9.07617C420.387 6.23926 418.671 5.26172 417.078 5.26172C415.007 5.26172 413.66 6.89551 413.66 9.24023C413.66 11.585 415.021 13.1641 417.229 13.1641ZM422.15 13H423.312V8.17383C423.312 7.13477 424.133 6.38281 425.24 6.38281C425.562 6.38281 425.883 6.4375 425.965 6.45117V5.26172C425.828 5.25488 425.521 5.24805 425.35 5.24805C424.434 5.24805 423.634 5.76074 423.354 6.51953H423.271V5.35742L422.15 5.35742V13Z" fill="#737278"/>
<rect x="252.5" y="32.5" width="70" height="31" rx="3.5" fill="#1F75CB"/>
<path d="M268.457 53.1777C270.802 53.1777 272.135 51.8857 272.135 50.2383C272.135 48.3242 270.316 47.7295 269.264 47.4355L268.238 47.1484C267.486 46.9365 266.27 46.5537 266.27 45.4668C266.27 44.4893 267.165 43.7715 268.512 43.7715C269.749 43.7715 270.679 44.3594 270.795 45.3574H271.998C271.937 43.8262 270.521 42.6777 268.553 42.6777C266.604 42.6777 265.08 43.8125 265.08 45.5215C265.08 46.8955 266.071 47.7158 267.664 48.1738L268.908 48.5293C269.981 48.8369 270.945 49.1992 270.945 50.2109C270.945 51.332 269.865 52.0703 268.457 52.0703C267.24 52.0703 266.167 51.5303 266.064 50.375H264.793C264.916 52.043 266.27 53.1777 268.457 53.1777ZM278.82 49.8828C278.82 51.3115 277.72 51.9678 276.852 51.9609C275.874 51.9678 275.17 51.25 275.17 50.1426V45.3574H274.008V50.2109C274.008 52.166 275.033 53.1025 276.469 53.0957C277.624 53.1025 278.376 52.4805 278.738 51.7012H278.82V53H279.982V45.3574H278.82V49.8828ZM285.629 53.1641C287.543 53.1641 288.869 51.626 288.869 49.1992C288.869 46.793 287.543 45.2617 285.615 45.2617C284.118 45.2617 283.66 46.1777 283.4 46.5742H283.305V42.8145H282.143V53H283.264V51.8242H283.4C283.66 52.2412 284.159 53.1641 285.629 53.1641ZM285.479 52.1113C284.063 52.1113 283.291 50.915 283.291 49.1855C283.291 47.4697 284.043 46.3145 285.479 46.3145C286.962 46.3145 287.693 47.5723 287.693 49.1855C287.693 50.8125 286.941 52.1113 285.479 52.1113ZM290.66 53H291.822V48.2285C291.822 47.1074 292.643 46.3145 293.559 46.3145C294.447 46.3145 295.062 46.9023 295.062 47.7637V53H296.266V48.0234C296.266 47.0459 296.881 46.3145 297.947 46.3145C298.788 46.3145 299.506 46.7588 299.506 47.8867V53H300.682V47.8867C300.682 46.0957 299.711 45.2617 298.344 45.2617C297.257 45.2617 296.457 45.7676 296.061 46.5605H295.979C295.603 45.7402 294.939 45.2617 293.941 45.2617C292.943 45.2617 292.205 45.7402 291.891 46.5605H291.781V45.3574H290.66V53ZM302.842 53H304.004V45.3574H302.842V53ZM303.43 44.0859C303.888 44.0859 304.264 43.7305 304.264 43.293C304.264 42.8555 303.888 42.5 303.43 42.5C302.972 42.5 302.596 42.8555 302.596 43.293C302.596 43.7305 302.972 44.0859 303.43 44.0859ZM309.473 45.3574H305.521V46.3555H309.473V45.3574ZM306.67 43.5391V51.127C306.67 52.2959 307.518 53.0957 308.748 53.0957C309.069 53.0957 309.404 53.041 309.623 52.959L309.377 51.9062C309.172 51.9473 309.015 51.9609 308.857 51.9609C308.146 51.9609 307.832 51.6055 307.832 50.8125V43.5391H306.67Z" fill="white"/>
<rect x="252.5" y="32.5" width="70" height="31" rx="3.5" stroke="#1068BF"/>
<path d="M253.23 13H254.461V3.9082L256.635 3.9082C258.282 3.9082 258.918 4.71484 258.918 5.94531C258.918 7.16211 258.282 7.91406 256.648 7.91406L253.914 7.91406V9.02148H256.689C259.062 9.02148 260.135 7.74316 260.135 5.94531C260.135 4.14063 259.062 2.81445 256.676 2.81445L253.23 2.81445V13ZM259.096 13H260.531L258.029 8.41992L256.635 8.41992L259.096 13ZM265.152 13.1641C266.697 13.1641 267.832 12.3848 268.188 11.2363L267.053 10.9082C266.759 11.708 266.068 12.1113 265.152 12.1113C263.724 12.1113 262.76 11.1543 262.76 9.41797V8.74805C262.76 7.4834 263.594 6.31445 265.002 6.31445C266.41 6.31445 267.135 7.42188 267.135 8.95313L267.675 8.57031H262.418V9.58203H268.311V9.07617C268.311 6.23926 266.595 5.26172 265.002 5.26172C262.931 5.26172 261.584 6.89551 261.584 9.24023C261.584 11.585 262.944 13.1641 265.152 13.1641ZM275.475 7.08008C275.112 5.99316 274.285 5.26172 272.768 5.26172C271.161 5.26172 269.965 6.17773 269.965 7.47656C269.965 8.52246 270.594 9.21973 272.002 9.55469L273.273 9.85547C274.039 10.04 274.408 10.4023 274.408 10.9355C274.408 11.585 273.704 12.125 272.617 12.125C271.653 12.125 271.052 11.7148 270.84 10.8945L269.732 11.168C270.006 12.4668 271.072 13.1641 272.631 13.1641C274.408 13.1641 275.611 12.1865 275.611 10.8672C275.611 9.80762 274.948 9.13086 273.588 8.80273L272.453 8.5293C271.551 8.31055 271.141 7.99609 271.141 7.4082C271.141 6.75879 271.838 6.27344 272.768 6.27344C273.8 6.27344 274.217 6.84766 274.422 7.36719L275.475 7.08008ZM280.697 5.35742L276.746 5.35742V6.35547L280.697 6.35547V5.35742ZM277.895 3.53906V11.127C277.895 12.2959 278.742 13.0957 279.973 13.0957C280.294 13.0957 280.629 13.041 280.848 12.959L280.602 11.9063C280.396 11.9473 280.239 11.9609 280.082 11.9609C279.371 11.9609 279.057 11.6055 279.057 10.8125V3.53906L277.895 3.53906Z" fill="#737278"/>
<circle cx="728" cy="32" r="12" fill="#7B58CF"/>
<circle cx="728" cy="32" r="14" stroke="#7B58CF" stroke-opacity="0.3" stroke-width="4"/>
<path d="M728.807 28.0518L725.587 33.4453H728.807V28.0518ZM728.581 26.7939H730.181V33.4453H731.541V34.5664H730.181V37H728.807V34.5664H724.479V33.2607L728.581 26.7939Z" fill="white"/>
<circle cx="593" cy="32" r="12" fill="#7B58CF"/>
<circle cx="593" cy="32" r="14" stroke="#7B58CF" stroke-opacity="0.3" stroke-width="4"/>
<path d="M594.087 31.5381C594.757 31.7158 595.27 32.0326 595.625 32.4883C595.98 32.9395 596.158 33.5046 596.158 34.1836C596.158 35.1224 595.841 35.8607 595.208 36.3984C594.579 36.9316 593.706 37.1982 592.59 37.1982C592.12 37.1982 591.642 37.1549 591.154 37.0684C590.667 36.9818 590.188 36.8564 589.719 36.6924V35.3184C590.184 35.5599 590.642 35.7399 591.093 35.8584C591.544 35.9769 591.993 36.0361 592.439 36.0361C593.196 36.0361 593.777 35.8652 594.183 35.5234C594.588 35.1816 594.791 34.6895 594.791 34.0469C594.791 33.4544 594.588 32.985 594.183 32.6387C593.777 32.2878 593.228 32.1123 592.535 32.1123H591.482V30.9775H592.535C593.169 30.9775 593.663 30.8385 594.019 30.5605C594.374 30.2826 594.552 29.8952 594.552 29.3984C594.552 28.8743 594.385 28.4733 594.053 28.1953C593.725 27.9128 593.255 27.7715 592.645 27.7715C592.239 27.7715 591.82 27.8171 591.387 27.9082C590.954 27.9993 590.5 28.1361 590.026 28.3184V27.0469C590.578 26.901 591.068 26.7917 591.496 26.7188C591.929 26.6458 592.312 26.6094 592.645 26.6094C593.638 26.6094 594.431 26.86 595.023 27.3613C595.62 27.8581 595.919 28.5189 595.919 29.3438C595.919 29.9043 595.762 30.3714 595.447 30.7451C595.137 31.1188 594.684 31.3831 594.087 31.5381Z" fill="white"/>
<circle cx="458" cy="32" r="12" fill="#7B58CF"/>
<circle cx="458" cy="32" r="14" stroke="#7B58CF" stroke-opacity="0.3" stroke-width="4"/>
<path d="M456.332 35.8379H461.021V37H454.821V35.8379C455.674 34.9401 456.419 34.1471 457.057 33.459C457.695 32.7708 458.134 32.2855 458.376 32.0029C458.832 31.4469 459.139 30.998 459.299 30.6562C459.458 30.3099 459.538 29.9567 459.538 29.5967C459.538 29.027 459.369 28.5804 459.032 28.2568C458.7 27.9333 458.242 27.7715 457.658 27.7715C457.243 27.7715 456.808 27.8467 456.353 27.9971C455.897 28.1475 455.414 28.3753 454.903 28.6807V27.2861C455.373 27.0628 455.833 26.8942 456.284 26.7803C456.74 26.6663 457.189 26.6094 457.631 26.6094C458.629 26.6094 459.431 26.876 460.037 27.4092C460.648 27.9378 460.953 28.6328 460.953 29.4941C460.953 29.9316 460.851 30.3691 460.646 30.8066C460.445 31.2441 460.117 31.7272 459.661 32.2559C459.406 32.5521 459.035 32.9622 458.547 33.4863C458.064 34.0104 457.326 34.7943 456.332 35.8379Z" fill="white"/>
<circle cx="323" cy="32" r="12" fill="#7B58CF"/>
<circle cx="323" cy="32" r="14" stroke="#7B58CF" stroke-opacity="0.3" stroke-width="4"/>
<path d="M320.628 35.8447H322.774V28.1338L320.204 29.3711V28.0449L322.761 26.8281H324.142V35.8447H326.261V37H320.628V35.8447Z" fill="white"/>
<g filter="url(#filter0_d_16816_29719)">
<path fill-rule="evenodd" clip-rule="evenodd" d="M418.821 68.4501C418.971 68.5855 419.075 68.6828 419.395 68.9874C419.709 69.2857 419.861 69.4267 420 69.5446C420.058 69.5934 420.107 69.7238 420.127 69.9178C420.143 70.0773 420.137 70.2553 420.118 70.4268C420.111 70.4861 420.105 70.5289 420.101 70.5493C420.059 70.778 420.233 70.9894 420.466 70.9917C420.675 70.9939 420.837 70.9965 421.263 71.0041C421.37 71.006 421.37 71.006 421.477 71.0078C422.638 71.0278 423.23 71.0223 423.656 70.9688C424.11 70.9117 424.578 70.3626 424.983 69.6737C425.326 70.2833 425.802 70.8786 426.282 70.956C426.435 70.9804 426.619 70.9879 426.833 70.983C426.993 70.9793 427.162 70.9688 427.332 70.9536C427.461 70.9421 427.563 70.9306 427.624 70.9226C427.85 70.8933 427.998 70.671 427.937 70.4514C427.924 70.4039 427.903 70.3169 427.882 70.2073C427.858 70.0802 427.84 69.9561 427.832 69.8431C427.827 69.7714 427.826 69.7065 427.829 69.6504C427.835 69.5526 427.837 69.4979 427.839 69.3713C427.84 69.3242 427.84 69.3242 427.842 69.283C427.847 69.1482 427.865 69.0201 427.924 68.7408C427.949 68.6196 428.071 68.3876 428.263 68.1006C428.321 68.0151 428.383 67.9258 428.45 67.8336C428.578 67.6588 428.714 67.4822 428.851 67.3132C428.933 67.212 428.997 67.1363 429.032 67.0951C429.328 66.6707 429.644 65.976 429.76 65.5698C429.872 65.1794 429.961 64.4604 430.016 63.7537C430.046 63.3528 430.057 63.0297 430.057 62.5228C430.057 62.4338 430.057 62.4338 430.057 62.3604C430.057 62.2402 430.057 62.1947 430.057 62.1385C430.056 61.9849 430.051 61.8327 430.037 61.4444C430.005 60.6308 429.559 60.1047 428.902 60.0033C428.343 59.917 427.662 60.3812 427.662 60.3812C427.662 60.3812 427.511 59.8584 427.409 59.697C427.242 59.4377 426.814 59.1072 426.487 59.0428C426.151 58.9775 425.752 58.9847 425.385 59.0495C425.065 59.1069 424.745 59.3933 424.56 59.7023C424.428 59.9227 424.552 59.6906 424.42 59.4626C424.237 59.1486 423.811 58.8674 423.405 58.7844C423.061 58.7132 422.667 58.7403 422.307 58.8473C421.844 58.9857 421.77 59.338 421.752 59.2371C421.69 58.8989 421.685 58.9211 421.646 58.6798C421.504 57.7846 421.344 57.1651 421.102 56.6246C421.116 56.6556 421.013 56.4224 420.976 56.342C420.912 56.2027 420.847 56.0767 420.776 55.9555C420.558 55.5818 420.307 55.3021 419.993 55.1431C419.447 54.8668 418.63 55.0013 418.242 55.4538C417.857 55.9034 417.793 56.6553 417.89 57.5856C417.927 57.9468 418.057 58.6063 418.174 59.0937C418.216 59.2629 418.252 59.4172 418.319 59.7023C418.331 59.7507 418.331 59.7507 418.342 59.7992C418.394 60.015 418.439 60.1924 418.494 60.3872C418.488 60.3669 418.591 60.7313 418.612 60.8119C418.62 60.8388 418.62 60.8388 418.627 60.8659C418.668 61.0197 418.708 61.1855 418.77 61.4622C418.804 61.6143 418.837 61.7769 418.87 61.9492C418.959 62.4191 418.959 62.3213 418.874 62.221C418.815 62.1518 418.759 62.089 418.705 62.031C418.606 61.9233 418.514 61.8342 418.427 61.7632C417.792 61.2441 417.404 61.0148 416.87 60.9644C415.995 60.8803 415.164 61.4987 415.039 62.3332C414.962 62.8449 414.987 63.0805 415.224 63.5327C415.354 63.777 415.574 64.0721 415.985 64.58C416.01 64.6111 416.01 64.6111 416.036 64.6421C416.54 65.264 416.595 65.333 416.715 65.5068C417.04 65.9775 417.829 67.329 417.973 67.5104L418.821 68.4501Z" fill="black"/>
<path fill-rule="evenodd" clip-rule="evenodd" d="M416.618 64.1695C416.593 64.1388 416.593 64.1388 416.568 64.1082C416.191 63.642 415.984 63.365 415.887 63.1823C415.734 62.8904 415.726 62.8112 415.781 62.4444C415.845 62.012 416.312 61.6643 416.799 61.711C417.136 61.7428 417.43 61.9163 417.952 62.344C418.009 62.3902 418.077 62.4564 418.155 62.5407C418.201 62.5905 418.25 62.6459 418.303 62.7079C418.383 62.8009 418.65 63.1284 418.611 63.0808C418.669 63.1507 418.711 63.2048 418.758 63.2712C418.852 63.4055 418.905 63.4801 418.977 63.5757C418.943 63.5309 419.192 63.8742 419.244 63.9244C419.523 64.1903 419.926 63.9663 419.901 63.6119C419.897 63.5528 419.883 63.4888 419.854 63.3773C419.739 62.558 419.699 62.2951 419.607 61.8099C419.573 61.6296 419.538 61.4589 419.502 61.2977C419.437 61.0121 419.395 60.8376 419.352 60.6734C419.344 60.6443 419.344 60.6443 419.336 60.6156C419.313 60.5308 419.209 60.1609 419.216 60.1857C419.165 60.001 419.121 59.832 419.072 59.6244C419.06 59.5771 419.06 59.5771 419.049 59.5295C418.983 59.246 418.945 59.0877 418.903 58.9162C418.793 58.4605 418.669 57.829 418.636 57.5085C418.56 56.7843 418.612 56.1743 418.812 55.9416C418.967 55.7601 419.408 55.6876 419.654 55.8123C419.815 55.8938 419.976 56.0736 420.129 56.3341C420.186 56.4326 420.24 56.5383 420.296 56.6576C420.329 56.7299 420.429 56.956 420.418 56.931C420.628 57.4009 420.772 57.9619 420.905 58.7977C420.945 59.0454 420.994 59.326 421.056 59.6692C421.075 59.771 421.075 59.771 421.093 59.8724C421.395 61.5077 421.373 61.3838 421.377 61.5142C421.393 61.99 422.095 62.0011 422.126 61.5261C422.136 61.3754 422.132 61.2409 422.115 60.8546C422.112 60.8 422.112 60.8 422.11 60.7455C422.095 60.3896 422.096 60.1849 422.117 60.0685C422.155 59.8562 422.346 59.6185 422.521 59.566C422.768 59.4928 423.038 59.4743 423.254 59.519C423.461 59.5613 423.703 59.7207 423.772 59.8396C423.855 59.9836 423.927 60.203 423.982 60.4749C424.026 60.6944 424.057 60.9298 424.078 61.1811C424.085 61.2593 424.089 61.3197 424.096 61.4197C424.099 61.4615 424.099 61.4615 424.102 61.496C424.103 61.5134 424.103 61.5134 424.107 61.5407C424.11 61.5599 424.11 61.5599 424.124 61.6085C424.132 61.7463 424.132 61.7463 424.685 61.7974C424.851 61.5976 424.851 61.5976 424.846 61.5625C424.873 61.4442 424.89 61.3123 424.913 61.0644C424.928 60.9033 424.936 60.8241 424.945 60.7419C424.982 60.4018 425.028 60.1857 425.085 60.0907C425.156 59.9725 425.405 59.8079 425.517 59.7879C425.797 59.7383 426.105 59.7327 426.343 59.7789C426.451 59.8001 426.714 60.003 426.776 60.1001C426.904 60.3016 427.028 60.9515 427.098 61.5962C427.087 61.6385 427.087 61.6385 427.259 61.8838C427.849 61.8165 427.849 61.8165 427.832 61.7099C427.848 61.6719 427.86 61.628 427.878 61.5598C427.92 61.4001 427.948 61.3073 427.99 61.2034C428.019 61.1315 428.049 61.0701 428.08 61.0211C428.201 60.8312 428.513 60.7022 428.787 60.7445C429.081 60.7899 429.269 61.0111 429.287 61.4734C429.302 61.8539 429.306 62.0001 429.307 62.1437C429.307 62.1966 429.307 62.2392 429.307 62.3588C429.307 62.4327 429.307 62.4327 429.307 62.5227C429.307 63.0117 429.296 63.3163 429.268 63.6967C429.217 64.35 429.132 65.0396 429.039 65.3638C428.945 65.6944 428.663 66.3147 428.439 66.6373C428.424 66.6526 428.356 66.7338 428.269 66.841C428.124 67.0194 427.98 67.206 427.844 67.3923C427.771 67.492 427.703 67.5892 427.64 67.6832C427.397 68.0469 427.24 68.3439 427.19 68.5874C427.123 68.9039 427.099 69.0717 427.092 69.2536C427.091 69.3052 427.091 69.3052 427.089 69.3551C427.087 69.4732 427.085 69.5208 427.08 69.6072C427.075 69.6978 427.077 69.7943 427.084 69.8963C427.094 70.0423 427.084 70.2418 427.084 70.2418C427.084 70.2418 426.957 70.2299 426.816 70.2332C426.644 70.2372 426.5 70.2313 426.401 70.2154C426.258 70.1924 425.872 69.709 425.674 69.3324C425.372 68.756 424.638 68.7839 424.337 69.293C424.066 69.7548 423.677 70.2102 423.562 70.2247C423.187 70.2718 422.607 70.2771 421.49 70.2579C421.383 70.2561 421.383 70.2561 421.277 70.2542C420.848 70.2465 420.864 70.3189 420.873 70.2418C420.898 70.0215 420.895 70.0627 420.873 69.8425C420.836 69.4731 420.722 69.172 420.484 68.9719C420.362 68.8676 420.215 68.7312 419.919 68.4508C419.582 68.1305 419.477 68.0315 419.346 67.9171L418.545 67.0264C418.457 66.9139 417.685 65.5924 417.333 65.081C417.195 64.8824 417.144 64.8179 416.618 64.1695ZM426.127 64.1732V67.6322C426.127 68.1322 426.877 68.1322 426.877 67.6322V64.1732C426.877 63.6732 426.127 63.6732 426.127 64.1732ZM424.095 64.1727L424.111 67.6457C424.113 68.1457 424.863 68.1422 424.861 67.6422L424.845 64.1692C424.843 63.6692 424.093 63.6727 424.095 64.1727ZM422.886 67.6262L422.865 64.2002C422.862 63.7003 422.112 63.7049 422.115 64.2048L422.136 67.6308C422.139 68.1308 422.889 68.1262 422.886 67.6262Z" fill="white"/>
</g>
<defs>
<filter id="filter0_d_16816_29719" x="413" y="54" width="19.0572" height="20.0185" filterUnits="userSpaceOnUse" color-interpolation-filters="sRGB">
<feFlood flood-opacity="0" result="BackgroundImageFix"/>
<feColorMatrix in="SourceAlpha" type="matrix" values="0 0 0 0 0 0 0 0 0 0 0 0 0 0 0 0 0 0 127 0" result="hardAlpha"/>
<feOffset dy="1"/>
<feGaussianBlur stdDeviation="1"/>
<feColorMatrix type="matrix" values="0 0 0 0 0 0 0 0 0 0 0 0 0 0 0 0 0 0 0.298656 0"/>
<feBlend mode="normal" in2="BackgroundImageFix" result="effect1_dropShadow_16816_29719"/>
<feBlend mode="normal" in="SourceGraphic" in2="effect1_dropShadow_16816_29719" result="shape"/>
</filter>
</defs>
</svg>
