<svg width="980" height="184" viewBox="0 0 980 184" fill="none" xmlns="http://www.w3.org/2000/svg">
<path d="M49.2383 117.137C51.1729 117.137 52.6016 115.708 52.6016 113.76C52.6016 111.784 51.2275 110.342 49.3613 110.342C48.6709 110.342 48.001 110.581 47.584 110.916H47.5293L47.8848 107.908H52.1367V106.814H46.8457L46.2305 111.832L47.3926 111.969C47.8096 111.668 48.5273 111.449 49.1562 111.449C50.4551 111.449 51.3984 112.447 51.3984 113.773C51.3984 115.086 50.4893 116.043 49.2383 116.043C48.1924 116.043 47.3584 115.373 47.2695 114.457H46.0801C46.1484 116.009 47.4883 117.137 49.2383 117.137ZM57.8105 117.137C60.0596 117.137 61.3516 115.236 61.3516 111.914C61.3516 108.605 60.0391 106.678 57.8105 106.678C55.582 106.678 54.2695 108.605 54.2695 111.914C54.2695 115.236 55.5615 117.137 57.8105 117.137ZM57.8105 116.057C56.2998 116.057 55.4453 114.532 55.4453 111.914C55.4453 109.289 56.2998 107.758 57.8105 107.758C59.3213 107.758 60.1758 109.289 60.1758 111.914C60.1758 114.532 59.3213 116.057 57.8105 116.057Z" fill="#737278"/>
<path d="M130.402 106.814H129.199L126.656 108.51V109.768L129.131 108.113H129.199V117H130.402V106.814ZM136.008 117.137C138.257 117.137 139.549 115.236 139.549 111.914C139.549 108.605 138.236 106.678 136.008 106.678C133.779 106.678 132.467 108.605 132.467 111.914C132.467 115.236 133.759 117.137 136.008 117.137ZM136.008 116.057C134.497 116.057 133.643 114.532 133.643 111.914C133.643 109.289 134.497 107.758 136.008 107.758C137.519 107.758 138.373 109.289 138.373 111.914C138.373 114.532 137.519 116.057 136.008 116.057ZM144.758 117.137C147.007 117.137 148.299 115.236 148.299 111.914C148.299 108.605 146.986 106.678 144.758 106.678C142.529 106.678 141.217 108.605 141.217 111.914C141.217 115.236 142.509 117.137 144.758 117.137ZM144.758 116.057C143.247 116.057 142.393 114.532 142.393 111.914C142.393 109.289 143.247 107.758 144.758 107.758C146.269 107.758 147.123 109.289 147.123 111.914C147.123 114.532 146.269 116.057 144.758 116.057Z" fill="#737278"/>
<path d="M208.053 117H214.479V115.906H209.748V115.824L212.031 113.377C213.781 111.504 214.301 110.629 214.301 109.508C214.301 107.929 213.022 106.678 211.238 106.678C209.454 106.678 208.094 107.895 208.094 109.686H209.27C209.27 108.523 210.015 107.758 211.197 107.758C212.298 107.758 213.139 108.428 213.139 109.508C213.139 110.444 212.585 111.135 211.416 112.42L208.053 116.111V117ZM219.852 117.137C222.101 117.137 223.393 115.236 223.393 111.914C223.393 108.605 222.08 106.678 219.852 106.678C217.623 106.678 216.311 108.605 216.311 111.914C216.311 115.236 217.603 117.137 219.852 117.137ZM219.852 116.057C218.341 116.057 217.486 114.532 217.486 111.914C217.486 109.289 218.341 107.758 219.852 107.758C221.362 107.758 222.217 109.289 222.217 111.914C222.217 114.532 221.362 116.057 219.852 116.057ZM228.602 117.137C230.851 117.137 232.143 115.236 232.143 111.914C232.143 108.605 230.83 106.678 228.602 106.678C226.373 106.678 225.061 108.605 225.061 111.914C225.061 115.236 226.353 117.137 228.602 117.137ZM228.602 116.057C227.091 116.057 226.236 114.532 226.236 111.914C226.236 109.289 227.091 107.758 228.602 107.758C230.112 107.758 230.967 109.289 230.967 111.914C230.967 114.532 230.112 116.057 228.602 116.057Z" fill="#737278"/>
<path d="M292.498 117.137C294.467 117.137 295.93 115.899 295.93 114.238C295.93 112.946 295.171 112.003 293.893 111.791V111.709C294.918 111.395 295.561 110.554 295.561 109.398C295.561 107.963 294.419 106.678 292.539 106.678C290.775 106.678 289.312 107.765 289.258 109.357H290.447C290.488 108.353 291.452 107.758 292.512 107.758C293.64 107.758 294.357 108.435 294.357 109.467C294.357 110.54 293.523 111.23 292.32 111.23H291.5V112.324H292.32C293.858 112.324 294.727 113.11 294.727 114.238C294.727 115.312 293.783 116.043 292.471 116.043C291.295 116.043 290.358 115.441 290.283 114.457H289.039C289.107 116.057 290.522 117.137 292.498 117.137ZM301.289 117.137C303.538 117.137 304.83 115.236 304.83 111.914C304.83 108.605 303.518 106.678 301.289 106.678C299.061 106.678 297.748 108.605 297.748 111.914C297.748 115.236 299.04 117.137 301.289 117.137ZM301.289 116.057C299.778 116.057 298.924 114.532 298.924 111.914C298.924 109.289 299.778 107.758 301.289 107.758C302.8 107.758 303.654 109.289 303.654 111.914C303.654 114.532 302.8 116.057 301.289 116.057ZM310.039 117.137C312.288 117.137 313.58 115.236 313.58 111.914C313.58 108.605 312.268 106.678 310.039 106.678C307.811 106.678 306.498 108.605 306.498 111.914C306.498 115.236 307.79 117.137 310.039 117.137ZM310.039 116.057C308.528 116.057 307.674 114.532 307.674 111.914C307.674 109.289 308.528 107.758 310.039 107.758C311.55 107.758 312.404 109.289 312.404 111.914C312.404 114.532 311.55 116.057 310.039 116.057Z" fill="#737278"/>
<path d="M369.82 114.908H377.176V113.814H371.146V113.732L374.523 108.387H375.029V106.814H374.291L369.82 113.896V114.908ZM374.605 117H375.781V106.814H374.605V114.129V114.607V117ZM382.357 117.137C384.606 117.137 385.898 115.236 385.898 111.914C385.898 108.605 384.586 106.678 382.357 106.678C380.129 106.678 378.816 108.605 378.816 111.914C378.816 115.236 380.108 117.137 382.357 117.137ZM382.357 116.057C380.847 116.057 379.992 114.532 379.992 111.914C379.992 109.289 380.847 107.758 382.357 107.758C383.868 107.758 384.723 109.289 384.723 111.914C384.723 114.532 383.868 116.057 382.357 116.057ZM391.107 117.137C393.356 117.137 394.648 115.236 394.648 111.914C394.648 108.605 393.336 106.678 391.107 106.678C388.879 106.678 387.566 108.605 387.566 111.914C387.566 115.236 388.858 117.137 391.107 117.137ZM391.107 116.057C389.597 116.057 388.742 114.532 388.742 111.914C388.742 109.289 389.597 107.758 391.107 107.758C392.618 107.758 393.473 109.289 393.473 111.914C393.473 114.532 392.618 116.057 391.107 116.057Z" fill="#737278"/>
<path d="M454.238 117.137C456.173 117.137 457.602 115.708 457.602 113.76C457.602 111.784 456.228 110.342 454.361 110.342C453.671 110.342 453.001 110.581 452.584 110.916H452.529L452.885 107.908H457.137V106.814H451.846L451.23 111.832L452.393 111.969C452.81 111.668 453.527 111.449 454.156 111.449C455.455 111.449 456.398 112.447 456.398 113.773C456.398 115.086 455.489 116.043 454.238 116.043C453.192 116.043 452.358 115.373 452.27 114.457H451.08C451.148 116.009 452.488 117.137 454.238 117.137ZM462.811 117.137C465.06 117.137 466.352 115.236 466.352 111.914C466.352 108.605 465.039 106.678 462.811 106.678C460.582 106.678 459.27 108.605 459.27 111.914C459.27 115.236 460.562 117.137 462.811 117.137ZM462.811 116.057C461.3 116.057 460.445 114.532 460.445 111.914C460.445 109.289 461.3 107.758 462.811 107.758C464.321 107.758 465.176 109.289 465.176 111.914C465.176 114.532 464.321 116.057 462.811 116.057ZM471.561 117.137C473.81 117.137 475.102 115.236 475.102 111.914C475.102 108.605 473.789 106.678 471.561 106.678C469.332 106.678 468.02 108.605 468.02 111.914C468.02 115.236 469.312 117.137 471.561 117.137ZM471.561 116.057C470.05 116.057 469.195 114.532 469.195 111.914C469.195 109.289 470.05 107.758 471.561 107.758C473.071 107.758 473.926 109.289 473.926 111.914C473.926 114.532 473.071 116.057 471.561 116.057Z" fill="#737278"/>
<path d="M535.375 117.137C537.439 117.137 538.779 115.612 538.779 113.719C538.779 111.75 537.323 110.342 535.58 110.342C534.527 110.342 533.632 110.848 533.078 111.695H532.996C532.996 109.207 533.96 107.771 535.539 107.771C536.612 107.771 537.262 108.448 537.494 109.357H538.697C538.451 107.785 537.248 106.678 535.539 106.678C533.249 106.678 531.834 108.708 531.834 112.311C531.834 116.07 533.707 117.137 535.375 117.137ZM535.375 116.043C534.104 116.043 533.174 114.956 533.174 113.732C533.174 112.522 534.158 111.436 535.416 111.436C536.667 111.436 537.59 112.454 537.59 113.719C537.59 115.011 536.626 116.043 535.375 116.043ZM543.988 117.137C546.237 117.137 547.529 115.236 547.529 111.914C547.529 108.605 546.217 106.678 543.988 106.678C541.76 106.678 540.447 108.605 540.447 111.914C540.447 115.236 541.739 117.137 543.988 117.137ZM543.988 116.057C542.478 116.057 541.623 114.532 541.623 111.914C541.623 109.289 542.478 107.758 543.988 107.758C545.499 107.758 546.354 109.289 546.354 111.914C546.354 114.532 545.499 116.057 543.988 116.057ZM552.738 117.137C554.987 117.137 556.279 115.236 556.279 111.914C556.279 108.605 554.967 106.678 552.738 106.678C550.51 106.678 549.197 108.605 549.197 111.914C549.197 115.236 550.489 117.137 552.738 117.137ZM552.738 116.057C551.228 116.057 550.373 114.532 550.373 111.914C550.373 109.289 551.228 107.758 552.738 107.758C554.249 107.758 555.104 109.289 555.104 111.914C555.104 114.532 554.249 116.057 552.738 116.057Z" fill="#737278"/>
<path d="M613.367 117H614.666L619.205 107.977V106.814H612.67V107.908H617.92V107.99L613.367 117ZM624.031 117.137C626.28 117.137 627.572 115.236 627.572 111.914C627.572 108.605 626.26 106.678 624.031 106.678C621.803 106.678 620.49 108.605 620.49 111.914C620.49 115.236 621.782 117.137 624.031 117.137ZM624.031 116.057C622.521 116.057 621.666 114.532 621.666 111.914C621.666 109.289 622.521 107.758 624.031 107.758C625.542 107.758 626.396 109.289 626.396 111.914C626.396 114.532 625.542 116.057 624.031 116.057ZM632.781 117.137C635.03 117.137 636.322 115.236 636.322 111.914C636.322 108.605 635.01 106.678 632.781 106.678C630.553 106.678 629.24 108.605 629.24 111.914C629.24 115.236 630.532 117.137 632.781 117.137ZM632.781 116.057C631.271 116.057 630.416 114.532 630.416 111.914C630.416 109.289 631.271 107.758 632.781 107.758C634.292 107.758 635.146 109.289 635.146 111.914C635.146 114.532 634.292 116.057 632.781 116.057Z" fill="#737278"/>
<path d="M697.293 117.137C699.323 117.137 700.752 115.954 700.752 114.293C700.752 113.008 699.877 111.914 698.783 111.709V111.654C699.733 111.401 700.369 110.465 700.369 109.385C700.369 107.833 699.057 106.678 697.293 106.678C695.495 106.678 694.203 107.833 694.203 109.385C694.203 110.465 694.825 111.401 695.803 111.654V111.709C694.675 111.914 693.834 113.008 693.834 114.293C693.834 115.954 695.235 117.137 697.293 117.137ZM697.293 116.043C695.892 116.043 695.037 115.332 695.037 114.238C695.037 113.09 695.98 112.27 697.293 112.27C698.578 112.27 699.535 113.09 699.535 114.238C699.535 115.332 698.667 116.043 697.293 116.043ZM697.293 111.217C696.172 111.217 695.393 110.52 695.393 109.467C695.393 108.428 696.145 107.758 697.293 107.758C698.414 107.758 699.18 108.428 699.18 109.467C699.18 110.52 698.38 111.217 697.293 111.217ZM705.961 117.137C708.21 117.137 709.502 115.236 709.502 111.914C709.502 108.605 708.189 106.678 705.961 106.678C703.732 106.678 702.42 108.605 702.42 111.914C702.42 115.236 703.712 117.137 705.961 117.137ZM705.961 116.057C704.45 116.057 703.596 114.532 703.596 111.914C703.596 109.289 704.45 107.758 705.961 107.758C707.472 107.758 708.326 109.289 708.326 111.914C708.326 114.532 707.472 116.057 705.961 116.057ZM714.711 117.137C716.96 117.137 718.252 115.236 718.252 111.914C718.252 108.605 716.939 106.678 714.711 106.678C712.482 106.678 711.17 108.605 711.17 111.914C711.17 115.236 712.462 117.137 714.711 117.137ZM714.711 116.057C713.2 116.057 712.346 114.532 712.346 111.914C712.346 109.289 713.2 107.758 714.711 107.758C716.222 107.758 717.076 109.289 717.076 111.914C717.076 114.532 716.222 116.057 714.711 116.057Z" fill="#737278"/>
<path d="M778.238 106.678C776.174 106.657 774.841 108.209 774.834 110.082C774.841 112.051 776.29 113.459 778.047 113.459C779.093 113.459 779.988 112.946 780.549 112.105H780.631C780.624 114.614 779.653 116.043 778.088 116.043C777.008 116.043 776.352 115.366 776.133 114.43H774.916C775.155 116.043 776.372 117.137 778.088 117.137C780.371 117.137 781.779 115.113 781.779 111.49C781.779 107.751 779.913 106.698 778.238 106.678ZM778.238 107.771C779.517 107.771 780.446 108.865 780.453 110.055C780.446 111.271 779.455 112.365 778.197 112.365C776.946 112.365 776.03 111.354 776.037 110.082C776.03 108.804 776.987 107.771 778.238 107.771ZM786.988 117.137C789.237 117.137 790.529 115.236 790.529 111.914C790.529 108.605 789.217 106.678 786.988 106.678C784.76 106.678 783.447 108.605 783.447 111.914C783.447 115.236 784.739 117.137 786.988 117.137ZM786.988 116.057C785.478 116.057 784.623 114.532 784.623 111.914C784.623 109.289 785.478 107.758 786.988 107.758C788.499 107.758 789.354 109.289 789.354 111.914C789.354 114.532 788.499 116.057 786.988 116.057ZM795.738 117.137C797.987 117.137 799.279 115.236 799.279 111.914C799.279 108.605 797.967 106.678 795.738 106.678C793.51 106.678 792.197 108.605 792.197 111.914C792.197 115.236 793.489 117.137 795.738 117.137ZM795.738 116.057C794.228 116.057 793.373 114.532 793.373 111.914C793.373 109.289 794.228 107.758 795.738 107.758C797.249 107.758 798.104 109.289 798.104 111.914C798.104 114.532 797.249 116.057 795.738 116.057Z" fill="#737278"/>
<path d="M859.238 106.678C857.174 106.657 855.841 108.209 855.834 110.082C855.841 112.051 857.29 113.459 859.047 113.459C860.093 113.459 860.988 112.946 861.549 112.105H861.631C861.624 114.614 860.653 116.043 859.088 116.043C858.008 116.043 857.352 115.366 857.133 114.43H855.916C856.155 116.043 857.372 117.137 859.088 117.137C861.371 117.137 862.779 115.113 862.779 111.49C862.779 107.751 860.913 106.698 859.238 106.678ZM859.238 107.771C860.517 107.771 861.446 108.865 861.453 110.055C861.446 111.271 860.455 112.365 859.197 112.365C857.946 112.365 857.03 111.354 857.037 110.082C857.03 108.804 857.987 107.771 859.238 107.771ZM867.852 117.137C869.786 117.137 871.215 115.708 871.215 113.76C871.215 111.784 869.841 110.342 867.975 110.342C867.284 110.342 866.614 110.581 866.197 110.916H866.143L866.498 107.908H870.75V106.814H865.459L864.844 111.832L866.006 111.969C866.423 111.668 867.141 111.449 867.77 111.449C869.068 111.449 870.012 112.447 870.012 113.773C870.012 115.086 869.103 116.043 867.852 116.043C866.806 116.043 865.972 115.373 865.883 114.457H864.693C864.762 116.009 866.102 117.137 867.852 117.137ZM876.424 117.137C878.673 117.137 879.965 115.236 879.965 111.914C879.965 108.605 878.652 106.678 876.424 106.678C874.195 106.678 872.883 108.605 872.883 111.914C872.883 115.236 874.175 117.137 876.424 117.137ZM876.424 116.057C874.913 116.057 874.059 114.532 874.059 111.914C874.059 109.289 874.913 107.758 876.424 107.758C877.935 107.758 878.789 109.289 878.789 111.914C878.789 114.532 877.935 116.057 876.424 116.057Z" fill="#737278"/>
<rect x="45" y="128" width="80" height="40" fill="#E9F3FC"/>
<rect x="126" y="128" width="80" height="40" fill="#CBE2F9"/>
<rect x="207" y="128" width="80" height="40" fill="#9DC7F1"/>
<rect x="288" y="128" width="80" height="40" fill="#63A6E9"/>
<rect x="369" y="128" width="80" height="40" fill="#428FDC"/>
<rect x="450" y="128" width="80" height="40" fill="#1F75CB"/>
<rect x="531" y="128" width="80" height="40" fill="#1068BF"/>
<rect x="612" y="128" width="80" height="40" fill="#0B5CAD"/>
<rect x="693" y="128" width="80" height="40" fill="#064787"/>
<rect x="774" y="128" width="80" height="40" fill="#033464"/>
<rect x="855" y="128" width="80" height="40" fill="#002850"/>
<path d="M1.24609 153H4.92383C7.33691 153 8.32812 151.824 8.32812 150.293C8.32812 148.687 7.21387 147.812 6.27734 147.75V147.654C7.15234 147.415 7.93164 146.834 7.93164 145.521C7.93164 144.031 6.93359 142.814 4.81445 142.814H1.24609V153ZM2.47656 151.906V148.365H4.99219C6.31836 148.365 7.15234 149.261 7.15234 150.293C7.15234 151.188 6.53711 151.906 4.92383 151.906H2.47656ZM2.47656 147.299V143.908H4.81445C6.16113 143.908 6.75586 144.626 6.75586 145.521C6.75586 146.595 5.88086 147.299 4.77344 147.299H2.47656ZM11.8691 153.055C12.2041 153.055 12.5391 153 12.7441 152.945L12.5049 151.947C12.3887 151.981 12.2725 152.002 12.0059 152.002C11.4863 152.002 11.3633 151.749 11.3633 151.018V142.814H10.2012V151.332C10.2012 152.419 10.7549 153.055 11.8691 153.055ZM18.6367 149.883C18.6367 151.312 17.5361 151.968 16.668 151.961C15.6904 151.968 14.9863 151.25 14.9863 150.143V145.357H13.8242V150.211C13.8242 152.166 14.8496 153.103 16.2852 153.096C17.4404 153.103 18.1924 152.48 18.5547 151.701H18.6367V153H19.7988V145.357H18.6367V149.883ZM25.1582 153.164C26.7031 153.164 27.8379 152.385 28.1934 151.236L27.0586 150.908C26.7646 151.708 26.0742 152.111 25.1582 152.111C23.7295 152.111 22.7656 151.154 22.7656 149.418V148.748C22.7656 147.483 23.5996 146.314 25.0078 146.314C26.416 146.314 27.1406 147.422 27.1406 148.953L27.6807 148.57H22.4238V149.582H28.3164V149.076C28.3164 146.239 26.6006 145.262 25.0078 145.262C22.9365 145.262 21.5898 146.896 21.5898 149.24C21.5898 151.585 22.9502 153.164 25.1582 153.164Z" fill="#737278"/>
<circle cx="628" cy="168" r="12" fill="#7B58CF"/>
<circle cx="628" cy="168" r="14" stroke="#7B58CF" stroke-opacity="0.3" stroke-width="4"/>
<path d="M628.807 164.052L625.587 169.445H628.807V164.052ZM628.581 162.794H630.181V169.445H631.541V170.566H630.181V173H628.807V170.566H624.479V169.261L628.581 162.794Z" fill="white"/>
<circle cx="580" cy="168" r="12" fill="#7B58CF"/>
<circle cx="580" cy="168" r="14" stroke="#7B58CF" stroke-opacity="0.3" stroke-width="4"/>
<path d="M581.087 167.538C581.757 167.716 582.27 168.033 582.625 168.488C582.98 168.939 583.158 169.505 583.158 170.184C583.158 171.122 582.841 171.861 582.208 172.398C581.579 172.932 580.706 173.198 579.59 173.198C579.12 173.198 578.642 173.155 578.154 173.068C577.667 172.982 577.188 172.856 576.719 172.692V171.318C577.184 171.56 577.642 171.74 578.093 171.858C578.544 171.977 578.993 172.036 579.439 172.036C580.196 172.036 580.777 171.865 581.183 171.523C581.588 171.182 581.791 170.689 581.791 170.047C581.791 169.454 581.588 168.985 581.183 168.639C580.777 168.288 580.228 168.112 579.535 168.112H578.482V166.978H579.535C580.169 166.978 580.663 166.839 581.019 166.561C581.374 166.283 581.552 165.895 581.552 165.398C581.552 164.874 581.385 164.473 581.053 164.195C580.725 163.913 580.255 163.771 579.645 163.771C579.239 163.771 578.82 163.817 578.387 163.908C577.954 163.999 577.5 164.136 577.026 164.318V163.047C577.578 162.901 578.068 162.792 578.496 162.719C578.929 162.646 579.312 162.609 579.645 162.609C580.638 162.609 581.431 162.86 582.023 163.361C582.62 163.858 582.919 164.519 582.919 165.344C582.919 165.904 582.762 166.371 582.447 166.745C582.137 167.119 581.684 167.383 581.087 167.538Z" fill="white"/>
<circle cx="547" cy="168" r="12" fill="#7B58CF"/>
<circle cx="547" cy="168" r="14" stroke="#7B58CF" stroke-opacity="0.3" stroke-width="4"/>
<path d="M545.332 171.838H550.021V173H543.821V171.838C544.674 170.94 545.419 170.147 546.057 169.459C546.695 168.771 547.134 168.285 547.376 168.003C547.832 167.447 548.139 166.998 548.299 166.656C548.458 166.31 548.538 165.957 548.538 165.597C548.538 165.027 548.369 164.58 548.032 164.257C547.7 163.933 547.242 163.771 546.658 163.771C546.243 163.771 545.808 163.847 545.353 163.997C544.897 164.147 544.414 164.375 543.903 164.681V163.286C544.373 163.063 544.833 162.894 545.284 162.78C545.74 162.666 546.189 162.609 546.631 162.609C547.629 162.609 548.431 162.876 549.037 163.409C549.648 163.938 549.953 164.633 549.953 165.494C549.953 165.932 549.851 166.369 549.646 166.807C549.445 167.244 549.117 167.727 548.661 168.256C548.406 168.552 548.035 168.962 547.547 169.486C547.064 170.01 546.326 170.794 545.332 171.838Z" fill="white"/>
<circle cx="466" cy="168" r="12" fill="#7B58CF"/>
<circle cx="466" cy="168" r="14" stroke="#7B58CF" stroke-opacity="0.3" stroke-width="4"/>
<path d="M463.628 171.845H465.774V164.134L463.204 165.371V164.045L465.761 162.828H467.142V171.845H469.261V173H463.628V171.845Z" fill="white"/>
<rect x="739" y="33" width="158" height="30" rx="3" fill="#0B5CAD"/>
<path d="M755.332 53.1367C757.376 53.1367 759.051 51.9062 759.42 49.8145H758.189C757.896 51.2295 756.679 51.9883 755.332 51.9883C753.479 51.9883 752.023 50.5527 752.023 47.9141C752.023 45.2617 753.479 43.8262 755.332 43.8262C756.679 43.8262 757.896 44.585 758.189 46H759.42C759.051 43.915 757.376 42.6777 755.332 42.6777C752.728 42.6777 750.834 44.6875 750.834 47.9141C750.834 51.1338 752.728 53.1367 755.332 53.1367ZM761.266 53H762.428V48.1738C762.428 47.1348 763.248 46.3828 764.355 46.3828C764.677 46.3828 764.998 46.4375 765.08 46.4512V45.2617C764.943 45.2549 764.636 45.248 764.465 45.248C763.549 45.248 762.749 45.7607 762.469 46.5195H762.387V45.3574H761.266V53ZM769.441 53.1641C770.986 53.1641 772.121 52.3848 772.477 51.2363L771.342 50.9082C771.048 51.708 770.357 52.1113 769.441 52.1113C768.013 52.1113 767.049 51.1543 767.049 49.418V48.748C767.049 47.4834 767.883 46.3145 769.291 46.3145C770.699 46.3145 771.424 47.4219 771.424 48.9531L771.964 48.5703H766.707V49.582H772.6V49.0762C772.6 46.2393 770.884 45.2617 769.291 45.2617C767.22 45.2617 765.873 46.8955 765.873 49.2402C765.873 51.585 767.233 53.1641 769.441 53.1641ZM776.605 53.1777C777.938 53.1777 778.636 52.46 778.875 51.9609H778.957V53H780.105V47.9688C780.105 45.542 778.253 45.2617 777.275 45.2617C776.127 45.2617 774.814 45.665 774.213 47.0527L775.334 47.4492C775.587 46.8955 776.202 46.3008 777.316 46.3008C778.396 46.3008 778.943 46.8682 778.943 47.8457V47.8867C778.943 48.4541 778.355 48.4062 776.961 48.584C775.546 48.7686 773.994 49.083 773.994 50.8262C773.994 52.3232 775.149 53.1777 776.605 53.1777ZM776.783 52.125C775.847 52.125 775.17 51.708 775.17 50.8945C775.17 49.999 775.99 49.7188 776.906 49.5957C777.398 49.541 778.745 49.3975 778.943 49.1582V50.2383C778.943 51.1885 778.178 52.125 776.783 52.125ZM785.574 45.3574H781.623V46.3555H785.574V45.3574ZM782.771 43.5391V51.127C782.771 52.2959 783.619 53.0957 784.85 53.0957C785.171 53.0957 785.506 53.041 785.725 52.959L785.479 51.9062C785.273 51.9473 785.116 51.9609 784.959 51.9609C784.248 51.9609 783.934 51.6055 783.934 50.8125V43.5391H782.771ZM790.469 53.1641C792.014 53.1641 793.148 52.3848 793.504 51.2363L792.369 50.9082C792.075 51.708 791.385 52.1113 790.469 52.1113C789.04 52.1113 788.076 51.1543 788.076 49.418V48.748C788.076 47.4834 788.91 46.3145 790.318 46.3145C791.727 46.3145 792.451 47.4219 792.451 48.9531L792.991 48.5703H787.734V49.582H793.627V49.0762C793.627 46.2393 791.911 45.2617 790.318 45.2617C788.247 45.2617 786.9 46.8955 786.9 49.2402C786.9 51.585 788.261 53.1641 790.469 53.1641ZM800.49 48.4062C800.49 47.0732 801.324 46.3145 802.452 46.3145C803.539 46.3145 804.209 47.0322 804.209 48.2285V53H805.371V48.1465C805.371 46.1982 804.325 45.2617 802.787 45.2617C801.632 45.2617 800.914 45.7812 800.559 46.5605H800.449V45.3574H799.328V53H800.49V48.4062ZM810.73 53.1641C812.275 53.1641 813.41 52.3848 813.766 51.2363L812.631 50.9082C812.337 51.708 811.646 52.1113 810.73 52.1113C809.302 52.1113 808.338 51.1543 808.338 49.418V48.748C808.338 47.4834 809.172 46.3145 810.58 46.3145C811.988 46.3145 812.713 47.4219 812.713 48.9531L813.253 48.5703H807.996V49.582H813.889V49.0762C813.889 46.2393 812.173 45.2617 810.58 45.2617C808.509 45.2617 807.162 46.8955 807.162 49.2402C807.162 51.585 808.522 53.1641 810.73 53.1641ZM817.115 53H818.264L819.945 47.1348H820.055L821.736 53H822.885L825.209 45.3574H823.979L822.324 51.1953H822.242L820.643 45.3574H819.385L817.758 51.209H817.676L816.021 45.3574H814.791L817.115 53ZM833.904 53.1641C835.449 53.1641 836.584 52.3848 836.939 51.2363L835.805 50.9082C835.511 51.708 834.82 52.1113 833.904 52.1113C832.476 52.1113 831.512 51.1543 831.512 49.418V48.748C831.512 47.4834 832.346 46.3145 833.754 46.3145C835.162 46.3145 835.887 47.4219 835.887 48.9531L836.427 48.5703H831.17V49.582H837.062V49.0762C837.062 46.2393 835.347 45.2617 833.754 45.2617C831.683 45.2617 830.336 46.8955 830.336 49.2402C830.336 51.585 831.696 53.1641 833.904 53.1641ZM839.387 45.3574H838.033L840.453 49.1855L838.033 53H839.387L841.205 50.0332L843.037 53H844.391L841.93 49.1855L844.391 45.3574H843.037L841.205 48.4883L839.387 45.3574ZM848.314 53.1777C849.647 53.1777 850.345 52.46 850.584 51.9609H850.666V53H851.814V47.9688C851.814 45.542 849.962 45.2617 848.984 45.2617C847.836 45.2617 846.523 45.665 845.922 47.0527L847.043 47.4492C847.296 46.8955 847.911 46.3008 849.025 46.3008C850.105 46.3008 850.652 46.8682 850.652 47.8457V47.8867C850.652 48.4541 850.064 48.4062 848.67 48.584C847.255 48.7686 845.703 49.083 845.703 50.8262C845.703 52.3232 846.858 53.1777 848.314 53.1777ZM848.492 52.125C847.556 52.125 846.879 51.708 846.879 50.8945C846.879 49.999 847.699 49.7188 848.615 49.5957C849.107 49.541 850.454 49.3975 850.652 49.1582V50.2383C850.652 51.1885 849.887 52.125 848.492 52.125ZM853.975 53H855.137V48.2285C855.137 47.1074 855.957 46.3145 856.873 46.3145C857.762 46.3145 858.377 46.9023 858.377 47.7637V53H859.58V48.0234C859.58 47.0459 860.195 46.3145 861.262 46.3145C862.103 46.3145 862.82 46.7588 862.82 47.8867V53H863.996V47.8867C863.996 46.0957 863.025 45.2617 861.658 45.2617C860.571 45.2617 859.771 45.7676 859.375 46.5605H859.293C858.917 45.7402 858.254 45.2617 857.256 45.2617C856.258 45.2617 855.52 45.7402 855.205 46.5605H855.096V45.3574H853.975V53ZM866.156 55.8574H867.318V51.8242H867.414C867.674 52.2412 868.173 53.1641 869.643 53.1641C871.557 53.1641 872.883 51.626 872.883 49.1992C872.883 46.793 871.557 45.2617 869.629 45.2617C868.132 45.2617 867.674 46.1777 867.414 46.5742H867.277V45.3574H866.156V55.8574ZM869.492 52.1113C868.077 52.1113 867.305 50.915 867.305 49.1855C867.305 47.4697 868.057 46.3145 869.492 46.3145C870.976 46.3145 871.707 47.5723 871.707 49.1855C871.707 50.8125 870.955 52.1113 869.492 52.1113ZM876.342 53.0547C876.677 53.0547 877.012 53 877.217 52.9453L876.978 51.9473C876.861 51.9814 876.745 52.002 876.479 52.002C875.959 52.002 875.836 51.749 875.836 51.0176V42.8145H874.674V51.332C874.674 52.4189 875.228 53.0547 876.342 53.0547ZM881.496 53.1641C883.041 53.1641 884.176 52.3848 884.531 51.2363L883.396 50.9082C883.103 51.708 882.412 52.1113 881.496 52.1113C880.067 52.1113 879.104 51.1543 879.104 49.418V48.748C879.104 47.4834 879.938 46.3145 881.346 46.3145C882.754 46.3145 883.479 47.4219 883.479 48.9531L884.019 48.5703H878.762V49.582H884.654V49.0762C884.654 46.2393 882.938 45.2617 881.346 45.2617C879.274 45.2617 877.928 46.8955 877.928 49.2402C877.928 51.585 879.288 53.1641 881.496 53.1641Z" fill="white"/>
<rect x="736.5" y="30.5" width="163" height="35" rx="5.5" stroke="#1F75CB" stroke-width="3"/>
<rect x="737.5" y="31.5" width="161" height="33" rx="4.5" stroke="white"/>
<rect x="739" y="33" width="158" height="30" rx="3" stroke="#033464" stroke-width="2"/>
<path d="M739.654 13L742.689 4.42773H742.771L745.82 13H747.105L743.373 2.81445L742.102 2.81445L738.355 13H739.654ZM740.133 9.02148V10.1152L745.342 10.1152V9.02148L740.133 9.02148ZM751.631 13.1641C753.326 13.1641 754.44 12.125 754.639 10.7715L753.463 10.7715C753.251 11.6055 752.554 12.1113 751.631 12.1113C750.243 12.1113 749.348 10.9492 749.348 9.18555C749.348 7.44922 750.264 6.31445 751.631 6.31445C752.67 6.31445 753.285 6.95703 753.463 7.6543H754.639C754.44 6.21875 753.23 5.26172 751.617 5.26172C749.546 5.26172 748.172 6.89551 748.172 9.22656C748.172 11.5098 749.491 13.1641 751.631 13.1641ZM759.711 5.35742L755.76 5.35742V6.35547L759.711 6.35547V5.35742ZM756.908 3.53906V11.127C756.908 12.2959 757.756 13.0957 758.986 13.0957C759.308 13.0957 759.643 13.041 759.861 12.959L759.615 11.9063C759.41 11.9473 759.253 11.9609 759.096 11.9609C758.385 11.9609 758.07 11.6055 758.07 10.8125V3.53906H756.908ZM761.488 13H762.65V5.35742H761.488V13ZM762.076 4.08594C762.534 4.08594 762.91 3.73047 762.91 3.29297C762.91 2.85547 762.534 2.5 762.076 2.5C761.618 2.5 761.242 2.85547 761.242 3.29297C761.242 3.73047 761.618 4.08594 762.076 4.08594ZM771.045 5.35742H769.773L767.668 11.4551H767.586L765.48 5.35742H764.209L767.025 13H768.229L771.045 5.35742ZM775.529 13.1641C777.074 13.1641 778.209 12.3848 778.564 11.2363L777.43 10.9082C777.136 11.708 776.445 12.1113 775.529 12.1113C774.101 12.1113 773.137 11.1543 773.137 9.41797V8.74805C773.137 7.4834 773.971 6.31445 775.379 6.31445C776.787 6.31445 777.512 7.42188 777.512 8.95313L778.052 8.57031L772.795 8.57031V9.58203L778.688 9.58203V9.07617C778.688 6.23926 776.972 5.26172 775.379 5.26172C773.308 5.26172 771.961 6.89551 771.961 9.24023C771.961 11.585 773.321 13.1641 775.529 13.1641Z" fill="#737278"/>
<rect x="515" y="33" width="158" height="30" rx="3" fill="#1068BF"/>
<path d="M531.332 53.1367C533.376 53.1367 535.051 51.9062 535.42 49.8145H534.189C533.896 51.2295 532.679 51.9883 531.332 51.9883C529.479 51.9883 528.023 50.5527 528.023 47.9141C528.023 45.2617 529.479 43.8262 531.332 43.8262C532.679 43.8262 533.896 44.585 534.189 46H535.42C535.051 43.915 533.376 42.6777 531.332 42.6777C528.728 42.6777 526.834 44.6875 526.834 47.9141C526.834 51.1338 528.728 53.1367 531.332 53.1367ZM537.266 53H538.428V48.1738C538.428 47.1348 539.248 46.3828 540.355 46.3828C540.677 46.3828 540.998 46.4375 541.08 46.4512V45.2617C540.943 45.2549 540.636 45.248 540.465 45.248C539.549 45.248 538.749 45.7607 538.469 46.5195H538.387V45.3574H537.266V53ZM545.441 53.1641C546.986 53.1641 548.121 52.3848 548.477 51.2363L547.342 50.9082C547.048 51.708 546.357 52.1113 545.441 52.1113C544.013 52.1113 543.049 51.1543 543.049 49.418V48.748C543.049 47.4834 543.883 46.3145 545.291 46.3145C546.699 46.3145 547.424 47.4219 547.424 48.9531L547.964 48.5703H542.707V49.582H548.6V49.0762C548.6 46.2393 546.884 45.2617 545.291 45.2617C543.22 45.2617 541.873 46.8955 541.873 49.2402C541.873 51.585 543.233 53.1641 545.441 53.1641ZM552.605 53.1777C553.938 53.1777 554.636 52.46 554.875 51.9609H554.957V53H556.105V47.9688C556.105 45.542 554.253 45.2617 553.275 45.2617C552.127 45.2617 550.814 45.665 550.213 47.0527L551.334 47.4492C551.587 46.8955 552.202 46.3008 553.316 46.3008C554.396 46.3008 554.943 46.8682 554.943 47.8457V47.8867C554.943 48.4541 554.355 48.4062 552.961 48.584C551.546 48.7686 549.994 49.083 549.994 50.8262C549.994 52.3232 551.149 53.1777 552.605 53.1777ZM552.783 52.125C551.847 52.125 551.17 51.708 551.17 50.8945C551.17 49.999 551.99 49.7188 552.906 49.5957C553.398 49.541 554.745 49.3975 554.943 49.1582V50.2383C554.943 51.1885 554.178 52.125 552.783 52.125ZM561.574 45.3574H557.623V46.3555H561.574V45.3574ZM558.771 43.5391V51.127C558.771 52.2959 559.619 53.0957 560.85 53.0957C561.171 53.0957 561.506 53.041 561.725 52.959L561.479 51.9062C561.273 51.9473 561.116 51.9609 560.959 51.9609C560.248 51.9609 559.934 51.6055 559.934 50.8125V43.5391H558.771ZM566.469 53.1641C568.014 53.1641 569.148 52.3848 569.504 51.2363L568.369 50.9082C568.075 51.708 567.385 52.1113 566.469 52.1113C565.04 52.1113 564.076 51.1543 564.076 49.418V48.748C564.076 47.4834 564.91 46.3145 566.318 46.3145C567.727 46.3145 568.451 47.4219 568.451 48.9531L568.991 48.5703H563.734V49.582H569.627V49.0762C569.627 46.2393 567.911 45.2617 566.318 45.2617C564.247 45.2617 562.9 46.8955 562.9 49.2402C562.9 51.585 564.261 53.1641 566.469 53.1641ZM576.49 48.4062C576.49 47.0732 577.324 46.3145 578.452 46.3145C579.539 46.3145 580.209 47.0322 580.209 48.2285V53H581.371V48.1465C581.371 46.1982 580.325 45.2617 578.787 45.2617C577.632 45.2617 576.914 45.7812 576.559 46.5605H576.449V45.3574H575.328V53H576.49V48.4062ZM586.73 53.1641C588.275 53.1641 589.41 52.3848 589.766 51.2363L588.631 50.9082C588.337 51.708 587.646 52.1113 586.73 52.1113C585.302 52.1113 584.338 51.1543 584.338 49.418V48.748C584.338 47.4834 585.172 46.3145 586.58 46.3145C587.988 46.3145 588.713 47.4219 588.713 48.9531L589.253 48.5703H583.996V49.582H589.889V49.0762C589.889 46.2393 588.173 45.2617 586.58 45.2617C584.509 45.2617 583.162 46.8955 583.162 49.2402C583.162 51.585 584.522 53.1641 586.73 53.1641ZM593.115 53H594.264L595.945 47.1348H596.055L597.736 53H598.885L601.209 45.3574H599.979L598.324 51.1953H598.242L596.643 45.3574H595.385L593.758 51.209H593.676L592.021 45.3574H590.791L593.115 53ZM609.904 53.1641C611.449 53.1641 612.584 52.3848 612.939 51.2363L611.805 50.9082C611.511 51.708 610.82 52.1113 609.904 52.1113C608.476 52.1113 607.512 51.1543 607.512 49.418V48.748C607.512 47.4834 608.346 46.3145 609.754 46.3145C611.162 46.3145 611.887 47.4219 611.887 48.9531L612.427 48.5703H607.17V49.582H613.062V49.0762C613.062 46.2393 611.347 45.2617 609.754 45.2617C607.683 45.2617 606.336 46.8955 606.336 49.2402C606.336 51.585 607.696 53.1641 609.904 53.1641ZM615.387 45.3574H614.033L616.453 49.1855L614.033 53H615.387L617.205 50.0332L619.037 53H620.391L617.93 49.1855L620.391 45.3574H619.037L617.205 48.4883L615.387 45.3574ZM624.314 53.1777C625.647 53.1777 626.345 52.46 626.584 51.9609H626.666V53H627.814V47.9688C627.814 45.542 625.962 45.2617 624.984 45.2617C623.836 45.2617 622.523 45.665 621.922 47.0527L623.043 47.4492C623.296 46.8955 623.911 46.3008 625.025 46.3008C626.105 46.3008 626.652 46.8682 626.652 47.8457V47.8867C626.652 48.4541 626.064 48.4062 624.67 48.584C623.255 48.7686 621.703 49.083 621.703 50.8262C621.703 52.3232 622.858 53.1777 624.314 53.1777ZM624.492 52.125C623.556 52.125 622.879 51.708 622.879 50.8945C622.879 49.999 623.699 49.7188 624.615 49.5957C625.107 49.541 626.454 49.3975 626.652 49.1582V50.2383C626.652 51.1885 625.887 52.125 624.492 52.125ZM629.975 53H631.137V48.2285C631.137 47.1074 631.957 46.3145 632.873 46.3145C633.762 46.3145 634.377 46.9023 634.377 47.7637V53H635.58V48.0234C635.58 47.0459 636.195 46.3145 637.262 46.3145C638.103 46.3145 638.82 46.7588 638.82 47.8867V53H639.996V47.8867C639.996 46.0957 639.025 45.2617 637.658 45.2617C636.571 45.2617 635.771 45.7676 635.375 46.5605H635.293C634.917 45.7402 634.254 45.2617 633.256 45.2617C632.258 45.2617 631.52 45.7402 631.205 46.5605H631.096V45.3574H629.975V53ZM642.156 55.8574H643.318V51.8242H643.414C643.674 52.2412 644.173 53.1641 645.643 53.1641C647.557 53.1641 648.883 51.626 648.883 49.1992C648.883 46.793 647.557 45.2617 645.629 45.2617C644.132 45.2617 643.674 46.1777 643.414 46.5742H643.277V45.3574H642.156V55.8574ZM645.492 52.1113C644.077 52.1113 643.305 50.915 643.305 49.1855C643.305 47.4697 644.057 46.3145 645.492 46.3145C646.976 46.3145 647.707 47.5723 647.707 49.1855C647.707 50.8125 646.955 52.1113 645.492 52.1113ZM652.342 53.0547C652.677 53.0547 653.012 53 653.217 52.9453L652.978 51.9473C652.861 51.9814 652.745 52.002 652.479 52.002C651.959 52.002 651.836 51.749 651.836 51.0176V42.8145H650.674V51.332C650.674 52.4189 651.228 53.0547 652.342 53.0547ZM657.496 53.1641C659.041 53.1641 660.176 52.3848 660.531 51.2363L659.396 50.9082C659.103 51.708 658.412 52.1113 657.496 52.1113C656.067 52.1113 655.104 51.1543 655.104 49.418V48.748C655.104 47.4834 655.938 46.3145 657.346 46.3145C658.754 46.3145 659.479 47.4219 659.479 48.9531L660.019 48.5703H654.762V49.582H660.654V49.0762C660.654 46.2393 658.938 45.2617 657.346 45.2617C655.274 45.2617 653.928 46.8955 653.928 49.2402C653.928 51.585 655.288 53.1641 657.496 53.1641Z" fill="white"/>
<rect x="512.5" y="30.5" width="163" height="35" rx="5.5" stroke="#1F75CB" stroke-width="3"/>
<rect x="513.5" y="31.5" width="161" height="33" rx="4.5" stroke="white"/>
<rect x="515" y="33" width="158" height="30" rx="3" stroke="#064787" stroke-width="2"/>
<path d="M515.23 13H516.461V8.55664L520.877 8.55664V7.46289L516.461 7.46289V3.9082L521.342 3.9082V2.81445L515.23 2.81445V13ZM525.826 13.1641C527.897 13.1641 529.299 11.585 529.299 9.22656C529.299 6.83398 527.897 5.26172 525.826 5.26172C523.762 5.26172 522.367 6.83398 522.367 9.22656C522.367 11.585 523.762 13.1641 525.826 13.1641ZM525.826 12.1113C524.261 12.1113 523.543 10.751 523.543 9.22656C523.543 7.68848 524.261 6.31445 525.826 6.31445C527.405 6.31445 528.123 7.68848 528.123 9.22656C528.123 10.751 527.405 12.1113 525.826 12.1113ZM534.18 13.1641C535.875 13.1641 536.989 12.125 537.188 10.7715H536.012C535.8 11.6055 535.103 12.1113 534.18 12.1113C532.792 12.1113 531.896 10.9492 531.896 9.18555C531.896 7.44922 532.812 6.31445 534.18 6.31445C535.219 6.31445 535.834 6.95703 536.012 7.6543H537.188C536.989 6.21875 535.779 5.26172 534.166 5.26172C532.095 5.26172 530.721 6.89551 530.721 9.22656C530.721 11.5098 532.04 13.1641 534.18 13.1641ZM543.764 9.88281C543.764 11.3115 542.663 11.9678 541.795 11.9609C540.817 11.9678 540.113 11.25 540.113 10.1426V5.35742H538.951V10.2109C538.951 12.166 539.977 13.1025 541.412 13.0957C542.567 13.1025 543.319 12.4805 543.682 11.7012H543.764V13H544.926V5.35742L543.764 5.35742V9.88281ZM552.486 7.08008C552.124 5.99316 551.297 5.26172 549.779 5.26172C548.173 5.26172 546.977 6.17773 546.977 7.47656C546.977 8.52246 547.605 9.21973 549.014 9.55469L550.285 9.85547C551.051 10.04 551.42 10.4023 551.42 10.9355C551.42 11.585 550.716 12.125 549.629 12.125C548.665 12.125 548.063 11.7148 547.852 10.8945L546.744 11.168C547.018 12.4668 548.084 13.1641 549.643 13.1641C551.42 13.1641 552.623 12.1865 552.623 10.8672C552.623 9.80762 551.96 9.13086 550.6 8.80273L549.465 8.5293C548.562 8.31055 548.152 7.99609 548.152 7.4082C548.152 6.75879 548.85 6.27344 549.779 6.27344C550.812 6.27344 551.229 6.84766 551.434 7.36719L552.486 7.08008Z" fill="#737278"/>
<rect x="291" y="33" width="158" height="30" rx="3" fill="#1068BF"/>
<path d="M307.332 53.1367C309.376 53.1367 311.051 51.9062 311.42 49.8145H310.189C309.896 51.2295 308.679 51.9883 307.332 51.9883C305.479 51.9883 304.023 50.5527 304.023 47.9141C304.023 45.2617 305.479 43.8262 307.332 43.8262C308.679 43.8262 309.896 44.585 310.189 46H311.42C311.051 43.915 309.376 42.6777 307.332 42.6777C304.728 42.6777 302.834 44.6875 302.834 47.9141C302.834 51.1338 304.728 53.1367 307.332 53.1367ZM313.266 53H314.428V48.1738C314.428 47.1348 315.248 46.3828 316.355 46.3828C316.677 46.3828 316.998 46.4375 317.08 46.4512V45.2617C316.943 45.2549 316.636 45.248 316.465 45.248C315.549 45.248 314.749 45.7607 314.469 46.5195H314.387V45.3574H313.266V53ZM321.441 53.1641C322.986 53.1641 324.121 52.3848 324.477 51.2363L323.342 50.9082C323.048 51.708 322.357 52.1113 321.441 52.1113C320.013 52.1113 319.049 51.1543 319.049 49.418V48.748C319.049 47.4834 319.883 46.3145 321.291 46.3145C322.699 46.3145 323.424 47.4219 323.424 48.9531L323.964 48.5703H318.707V49.582H324.6V49.0762C324.6 46.2393 322.884 45.2617 321.291 45.2617C319.22 45.2617 317.873 46.8955 317.873 49.2402C317.873 51.585 319.233 53.1641 321.441 53.1641ZM328.605 53.1777C329.938 53.1777 330.636 52.46 330.875 51.9609H330.957V53H332.105V47.9688C332.105 45.542 330.253 45.2617 329.275 45.2617C328.127 45.2617 326.814 45.665 326.213 47.0527L327.334 47.4492C327.587 46.8955 328.202 46.3008 329.316 46.3008C330.396 46.3008 330.943 46.8682 330.943 47.8457V47.8867C330.943 48.4541 330.355 48.4062 328.961 48.584C327.546 48.7686 325.994 49.083 325.994 50.8262C325.994 52.3232 327.149 53.1777 328.605 53.1777ZM328.783 52.125C327.847 52.125 327.17 51.708 327.17 50.8945C327.17 49.999 327.99 49.7188 328.906 49.5957C329.398 49.541 330.745 49.3975 330.943 49.1582V50.2383C330.943 51.1885 330.178 52.125 328.783 52.125ZM337.574 45.3574H333.623V46.3555H337.574V45.3574ZM334.771 43.5391V51.127C334.771 52.2959 335.619 53.0957 336.85 53.0957C337.171 53.0957 337.506 53.041 337.725 52.959L337.479 51.9062C337.273 51.9473 337.116 51.9609 336.959 51.9609C336.248 51.9609 335.934 51.6055 335.934 50.8125V43.5391H334.771ZM342.469 53.1641C344.014 53.1641 345.148 52.3848 345.504 51.2363L344.369 50.9082C344.075 51.708 343.385 52.1113 342.469 52.1113C341.04 52.1113 340.076 51.1543 340.076 49.418V48.748C340.076 47.4834 340.91 46.3145 342.318 46.3145C343.727 46.3145 344.451 47.4219 344.451 48.9531L344.991 48.5703H339.734V49.582H345.627V49.0762C345.627 46.2393 343.911 45.2617 342.318 45.2617C340.247 45.2617 338.9 46.8955 338.9 49.2402C338.9 51.585 340.261 53.1641 342.469 53.1641ZM352.49 48.4062C352.49 47.0732 353.324 46.3145 354.452 46.3145C355.539 46.3145 356.209 47.0322 356.209 48.2285V53H357.371V48.1465C357.371 46.1982 356.325 45.2617 354.787 45.2617C353.632 45.2617 352.914 45.7812 352.559 46.5605H352.449V45.3574H351.328V53H352.49V48.4062ZM362.73 53.1641C364.275 53.1641 365.41 52.3848 365.766 51.2363L364.631 50.9082C364.337 51.708 363.646 52.1113 362.73 52.1113C361.302 52.1113 360.338 51.1543 360.338 49.418V48.748C360.338 47.4834 361.172 46.3145 362.58 46.3145C363.988 46.3145 364.713 47.4219 364.713 48.9531L365.253 48.5703H359.996V49.582H365.889V49.0762C365.889 46.2393 364.173 45.2617 362.58 45.2617C360.509 45.2617 359.162 46.8955 359.162 49.2402C359.162 51.585 360.522 53.1641 362.73 53.1641ZM369.115 53H370.264L371.945 47.1348H372.055L373.736 53H374.885L377.209 45.3574H375.979L374.324 51.1953H374.242L372.643 45.3574H371.385L369.758 51.209H369.676L368.021 45.3574H366.791L369.115 53ZM385.904 53.1641C387.449 53.1641 388.584 52.3848 388.939 51.2363L387.805 50.9082C387.511 51.708 386.82 52.1113 385.904 52.1113C384.476 52.1113 383.512 51.1543 383.512 49.418V48.748C383.512 47.4834 384.346 46.3145 385.754 46.3145C387.162 46.3145 387.887 47.4219 387.887 48.9531L388.427 48.5703H383.17V49.582H389.062V49.0762C389.062 46.2393 387.347 45.2617 385.754 45.2617C383.683 45.2617 382.336 46.8955 382.336 49.2402C382.336 51.585 383.696 53.1641 385.904 53.1641ZM391.387 45.3574H390.033L392.453 49.1855L390.033 53H391.387L393.205 50.0332L395.037 53H396.391L393.93 49.1855L396.391 45.3574H395.037L393.205 48.4883L391.387 45.3574ZM400.314 53.1777C401.647 53.1777 402.345 52.46 402.584 51.9609H402.666V53H403.814V47.9688C403.814 45.542 401.962 45.2617 400.984 45.2617C399.836 45.2617 398.523 45.665 397.922 47.0527L399.043 47.4492C399.296 46.8955 399.911 46.3008 401.025 46.3008C402.105 46.3008 402.652 46.8682 402.652 47.8457V47.8867C402.652 48.4541 402.064 48.4062 400.67 48.584C399.255 48.7686 397.703 49.083 397.703 50.8262C397.703 52.3232 398.858 53.1777 400.314 53.1777ZM400.492 52.125C399.556 52.125 398.879 51.708 398.879 50.8945C398.879 49.999 399.699 49.7188 400.615 49.5957C401.107 49.541 402.454 49.3975 402.652 49.1582V50.2383C402.652 51.1885 401.887 52.125 400.492 52.125ZM405.975 53H407.137V48.2285C407.137 47.1074 407.957 46.3145 408.873 46.3145C409.762 46.3145 410.377 46.9023 410.377 47.7637V53H411.58V48.0234C411.58 47.0459 412.195 46.3145 413.262 46.3145C414.103 46.3145 414.82 46.7588 414.82 47.8867V53H415.996V47.8867C415.996 46.0957 415.025 45.2617 413.658 45.2617C412.571 45.2617 411.771 45.7676 411.375 46.5605H411.293C410.917 45.7402 410.254 45.2617 409.256 45.2617C408.258 45.2617 407.52 45.7402 407.205 46.5605H407.096V45.3574H405.975V53ZM418.156 55.8574H419.318V51.8242H419.414C419.674 52.2412 420.173 53.1641 421.643 53.1641C423.557 53.1641 424.883 51.626 424.883 49.1992C424.883 46.793 423.557 45.2617 421.629 45.2617C420.132 45.2617 419.674 46.1777 419.414 46.5742H419.277V45.3574H418.156V55.8574ZM421.492 52.1113C420.077 52.1113 419.305 50.915 419.305 49.1855C419.305 47.4697 420.057 46.3145 421.492 46.3145C422.976 46.3145 423.707 47.5723 423.707 49.1855C423.707 50.8125 422.955 52.1113 421.492 52.1113ZM428.342 53.0547C428.677 53.0547 429.012 53 429.217 52.9453L428.978 51.9473C428.861 51.9814 428.745 52.002 428.479 52.002C427.959 52.002 427.836 51.749 427.836 51.0176V42.8145H426.674V51.332C426.674 52.4189 427.228 53.0547 428.342 53.0547ZM433.496 53.1641C435.041 53.1641 436.176 52.3848 436.531 51.2363L435.396 50.9082C435.103 51.708 434.412 52.1113 433.496 52.1113C432.067 52.1113 431.104 51.1543 431.104 49.418V48.748C431.104 47.4834 431.938 46.3145 433.346 46.3145C434.754 46.3145 435.479 47.4219 435.479 48.9531L436.019 48.5703H430.762V49.582H436.654V49.0762C436.654 46.2393 434.938 45.2617 433.346 45.2617C431.274 45.2617 429.928 46.8955 429.928 49.2402C429.928 51.585 431.288 53.1641 433.496 53.1641Z" fill="white"/>
<rect x="291" y="33" width="158" height="30" rx="3" stroke="#064787" stroke-width="2"/>
<path d="M291.23 13H292.461V8.44727L297.889 8.44727V13H299.119V2.81445H297.889V7.35352L292.461 7.35352V2.81445L291.23 2.81445V13ZM304.52 13.1641C306.591 13.1641 307.992 11.585 307.992 9.22656C307.992 6.83398 306.591 5.26172 304.52 5.26172C302.455 5.26172 301.061 6.83398 301.061 9.22656C301.061 11.585 302.455 13.1641 304.52 13.1641ZM304.52 12.1113C302.954 12.1113 302.236 10.751 302.236 9.22656C302.236 7.68848 302.954 6.31445 304.52 6.31445C306.099 6.31445 306.816 7.68848 306.816 9.22656C306.816 10.751 306.099 12.1113 304.52 12.1113ZM315.744 5.35742L314.473 5.35742L312.367 11.4551H312.285L310.18 5.35742L308.908 5.35742L311.725 13H312.928L315.744 5.35742ZM320.229 13.1641C321.773 13.1641 322.908 12.3848 323.264 11.2363L322.129 10.9082C321.835 11.708 321.145 12.1113 320.229 12.1113C318.8 12.1113 317.836 11.1543 317.836 9.41797V8.74805C317.836 7.4834 318.67 6.31445 320.078 6.31445C321.486 6.31445 322.211 7.42188 322.211 8.95313L322.751 8.57031L317.494 8.57031V9.58203L323.387 9.58203V9.07617C323.387 6.23926 321.671 5.26172 320.078 5.26172C318.007 5.26172 316.66 6.89551 316.66 9.24023C316.66 11.585 318.021 13.1641 320.229 13.1641ZM325.15 13H326.312V8.17383C326.312 7.13477 327.133 6.38281 328.24 6.38281C328.562 6.38281 328.883 6.4375 328.965 6.45117V5.26172C328.828 5.25488 328.521 5.24805 328.35 5.24805C327.434 5.24805 326.634 5.76074 326.354 6.51953H326.271V5.35742L325.15 5.35742V13Z" fill="#737278"/>
<rect x="66.5" y="32.5" width="159" height="31" rx="3.5" fill="#1F75CB"/>
<path d="M83.332 53.1367C85.376 53.1367 87.0508 51.9062 87.4199 49.8145H86.1895C85.8955 51.2295 84.6787 51.9883 83.332 51.9883C81.4795 51.9883 80.0234 50.5527 80.0234 47.9141C80.0234 45.2617 81.4795 43.8262 83.332 43.8262C84.6787 43.8262 85.8955 44.585 86.1895 46H87.4199C87.0508 43.915 85.376 42.6777 83.332 42.6777C80.7275 42.6777 78.834 44.6875 78.834 47.9141C78.834 51.1338 80.7275 53.1367 83.332 53.1367ZM89.2656 53H90.4277V48.1738C90.4277 47.1348 91.248 46.3828 92.3555 46.3828C92.6768 46.3828 92.998 46.4375 93.0801 46.4512V45.2617C92.9434 45.2549 92.6357 45.248 92.4648 45.248C91.5488 45.248 90.749 45.7607 90.4688 46.5195H90.3867V45.3574H89.2656V53ZM97.4414 53.1641C98.9863 53.1641 100.121 52.3848 100.477 51.2363L99.3418 50.9082C99.0479 51.708 98.3574 52.1113 97.4414 52.1113C96.0127 52.1113 95.0488 51.1543 95.0488 49.418V48.748C95.0488 47.4834 95.8828 46.3145 97.291 46.3145C98.6992 46.3145 99.4238 47.4219 99.4238 48.9531L99.9639 48.5703H94.707V49.582H100.6V49.0762C100.6 46.2393 98.8838 45.2617 97.291 45.2617C95.2197 45.2617 93.873 46.8955 93.873 49.2402C93.873 51.585 95.2334 53.1641 97.4414 53.1641ZM104.605 53.1777C105.938 53.1777 106.636 52.46 106.875 51.9609H106.957V53H108.105V47.9688C108.105 45.542 106.253 45.2617 105.275 45.2617C104.127 45.2617 102.814 45.665 102.213 47.0527L103.334 47.4492C103.587 46.8955 104.202 46.3008 105.316 46.3008C106.396 46.3008 106.943 46.8682 106.943 47.8457V47.8867C106.943 48.4541 106.355 48.4062 104.961 48.584C103.546 48.7686 101.994 49.083 101.994 50.8262C101.994 52.3232 103.149 53.1777 104.605 53.1777ZM104.783 52.125C103.847 52.125 103.17 51.708 103.17 50.8945C103.17 49.999 103.99 49.7188 104.906 49.5957C105.398 49.541 106.745 49.3975 106.943 49.1582V50.2383C106.943 51.1885 106.178 52.125 104.783 52.125ZM113.574 45.3574H109.623V46.3555H113.574V45.3574ZM110.771 43.5391V51.127C110.771 52.2959 111.619 53.0957 112.85 53.0957C113.171 53.0957 113.506 53.041 113.725 52.959L113.479 51.9062C113.273 51.9473 113.116 51.9609 112.959 51.9609C112.248 51.9609 111.934 51.6055 111.934 50.8125V43.5391H110.771ZM118.469 53.1641C120.014 53.1641 121.148 52.3848 121.504 51.2363L120.369 50.9082C120.075 51.708 119.385 52.1113 118.469 52.1113C117.04 52.1113 116.076 51.1543 116.076 49.418V48.748C116.076 47.4834 116.91 46.3145 118.318 46.3145C119.727 46.3145 120.451 47.4219 120.451 48.9531L120.991 48.5703H115.734V49.582H121.627V49.0762C121.627 46.2393 119.911 45.2617 118.318 45.2617C116.247 45.2617 114.9 46.8955 114.9 49.2402C114.9 51.585 116.261 53.1641 118.469 53.1641ZM128.49 48.4062C128.49 47.0732 129.324 46.3145 130.452 46.3145C131.539 46.3145 132.209 47.0322 132.209 48.2285V53H133.371V48.1465C133.371 46.1982 132.325 45.2617 130.787 45.2617C129.632 45.2617 128.914 45.7812 128.559 46.5605H128.449V45.3574H127.328V53H128.49V48.4062ZM138.73 53.1641C140.275 53.1641 141.41 52.3848 141.766 51.2363L140.631 50.9082C140.337 51.708 139.646 52.1113 138.73 52.1113C137.302 52.1113 136.338 51.1543 136.338 49.418V48.748C136.338 47.4834 137.172 46.3145 138.58 46.3145C139.988 46.3145 140.713 47.4219 140.713 48.9531L141.253 48.5703H135.996V49.582H141.889V49.0762C141.889 46.2393 140.173 45.2617 138.58 45.2617C136.509 45.2617 135.162 46.8955 135.162 49.2402C135.162 51.585 136.522 53.1641 138.73 53.1641ZM145.115 53H146.264L147.945 47.1348H148.055L149.736 53H150.885L153.209 45.3574H151.979L150.324 51.1953H150.242L148.643 45.3574H147.385L145.758 51.209H145.676L144.021 45.3574H142.791L145.115 53ZM161.904 53.1641C163.449 53.1641 164.584 52.3848 164.939 51.2363L163.805 50.9082C163.511 51.708 162.82 52.1113 161.904 52.1113C160.476 52.1113 159.512 51.1543 159.512 49.418V48.748C159.512 47.4834 160.346 46.3145 161.754 46.3145C163.162 46.3145 163.887 47.4219 163.887 48.9531L164.427 48.5703H159.17V49.582H165.062V49.0762C165.062 46.2393 163.347 45.2617 161.754 45.2617C159.683 45.2617 158.336 46.8955 158.336 49.2402C158.336 51.585 159.696 53.1641 161.904 53.1641ZM167.387 45.3574H166.033L168.453 49.1855L166.033 53H167.387L169.205 50.0332L171.037 53H172.391L169.93 49.1855L172.391 45.3574H171.037L169.205 48.4883L167.387 45.3574ZM176.314 53.1777C177.647 53.1777 178.345 52.46 178.584 51.9609H178.666V53H179.814V47.9688C179.814 45.542 177.962 45.2617 176.984 45.2617C175.836 45.2617 174.523 45.665 173.922 47.0527L175.043 47.4492C175.296 46.8955 175.911 46.3008 177.025 46.3008C178.105 46.3008 178.652 46.8682 178.652 47.8457V47.8867C178.652 48.4541 178.064 48.4062 176.67 48.584C175.255 48.7686 173.703 49.083 173.703 50.8262C173.703 52.3232 174.858 53.1777 176.314 53.1777ZM176.492 52.125C175.556 52.125 174.879 51.708 174.879 50.8945C174.879 49.999 175.699 49.7188 176.615 49.5957C177.107 49.541 178.454 49.3975 178.652 49.1582V50.2383C178.652 51.1885 177.887 52.125 176.492 52.125ZM181.975 53H183.137V48.2285C183.137 47.1074 183.957 46.3145 184.873 46.3145C185.762 46.3145 186.377 46.9023 186.377 47.7637V53H187.58V48.0234C187.58 47.0459 188.195 46.3145 189.262 46.3145C190.103 46.3145 190.82 46.7588 190.82 47.8867V53H191.996V47.8867C191.996 46.0957 191.025 45.2617 189.658 45.2617C188.571 45.2617 187.771 45.7676 187.375 46.5605H187.293C186.917 45.7402 186.254 45.2617 185.256 45.2617C184.258 45.2617 183.52 45.7402 183.205 46.5605H183.096V45.3574H181.975V53ZM194.156 55.8574H195.318V51.8242H195.414C195.674 52.2412 196.173 53.1641 197.643 53.1641C199.557 53.1641 200.883 51.626 200.883 49.1992C200.883 46.793 199.557 45.2617 197.629 45.2617C196.132 45.2617 195.674 46.1777 195.414 46.5742H195.277V45.3574H194.156V55.8574ZM197.492 52.1113C196.077 52.1113 195.305 50.915 195.305 49.1855C195.305 47.4697 196.057 46.3145 197.492 46.3145C198.976 46.3145 199.707 47.5723 199.707 49.1855C199.707 50.8125 198.955 52.1113 197.492 52.1113ZM204.342 53.0547C204.677 53.0547 205.012 53 205.217 52.9453L204.978 51.9473C204.861 51.9814 204.745 52.002 204.479 52.002C203.959 52.002 203.836 51.749 203.836 51.0176V42.8145H202.674V51.332C202.674 52.4189 203.228 53.0547 204.342 53.0547ZM209.496 53.1641C211.041 53.1641 212.176 52.3848 212.531 51.2363L211.396 50.9082C211.103 51.708 210.412 52.1113 209.496 52.1113C208.067 52.1113 207.104 51.1543 207.104 49.418V48.748C207.104 47.4834 207.938 46.3145 209.346 46.3145C210.754 46.3145 211.479 47.4219 211.479 48.9531L212.019 48.5703H206.762V49.582H212.654V49.0762C212.654 46.2393 210.938 45.2617 209.346 45.2617C207.274 45.2617 205.928 46.8955 205.928 49.2402C205.928 51.585 207.288 53.1641 209.496 53.1641Z" fill="white"/>
<rect x="66.5" y="32.5" width="159" height="31" rx="3.5" stroke="#1068BF"/>
<path d="M67.2305 13H68.4609V3.9082L70.6348 3.9082C72.2822 3.9082 72.918 4.71484 72.918 5.94531C72.918 7.16211 72.2822 7.91406 70.6484 7.91406L67.9141 7.91406V9.02148H70.6895C73.0615 9.02148 74.1348 7.74316 74.1348 5.94531C74.1348 4.14063 73.0615 2.81445 70.6758 2.81445L67.2305 2.81445V13ZM73.0957 13H74.5312L72.0293 8.41992L70.6348 8.41992L73.0957 13ZM79.1523 13.1641C80.6973 13.1641 81.832 12.3848 82.1875 11.2363L81.0527 10.9082C80.7588 11.708 80.0684 12.1113 79.1523 12.1113C77.7236 12.1113 76.7598 11.1543 76.7598 9.41797V8.74805C76.7598 7.4834 77.5938 6.31445 79.002 6.31445C80.4102 6.31445 81.1348 7.42188 81.1348 8.95313L81.6748 8.57031H76.418V9.58203H82.3105V9.07617C82.3105 6.23926 80.5947 5.26172 79.002 5.26172C76.9307 5.26172 75.584 6.89551 75.584 9.24023C75.584 11.585 76.9443 13.1641 79.1523 13.1641ZM89.4746 7.08008C89.1123 5.99316 88.2852 5.26172 86.7676 5.26172C85.1611 5.26172 83.9648 6.17773 83.9648 7.47656C83.9648 8.52246 84.5938 9.21973 86.002 9.55469L87.2734 9.85547C88.0391 10.04 88.4082 10.4023 88.4082 10.9355C88.4082 11.585 87.7041 12.125 86.6172 12.125C85.6533 12.125 85.0518 11.7148 84.8398 10.8945L83.7324 11.168C84.0059 12.4668 85.0723 13.1641 86.6309 13.1641C88.4082 13.1641 89.6113 12.1865 89.6113 10.8672C89.6113 9.80762 88.9482 9.13086 87.5879 8.80273L86.4531 8.5293C85.5508 8.31055 85.1406 7.99609 85.1406 7.4082C85.1406 6.75879 85.8379 6.27344 86.7676 6.27344C87.7998 6.27344 88.2168 6.84766 88.4219 7.36719L89.4746 7.08008ZM94.6973 5.35742L90.7461 5.35742V6.35547L94.6973 6.35547V5.35742ZM91.8945 3.53906V11.127C91.8945 12.2959 92.7422 13.0957 93.9727 13.0957C94.2939 13.0957 94.6289 13.041 94.8477 12.959L94.6016 11.9063C94.3965 11.9473 94.2393 11.9609 94.082 11.9609C93.3711 11.9609 93.0566 11.6055 93.0566 10.8125V3.53906L91.8945 3.53906Z" fill="#737278"/>
<circle cx="898" cy="32" r="12" fill="#7B58CF"/>
<circle cx="898" cy="32" r="14" stroke="#7B58CF" stroke-opacity="0.3" stroke-width="4"/>
<path d="M898.807 28.0518L895.587 33.4453H898.807V28.0518ZM898.581 26.7939H900.181V33.4453H901.541V34.5664H900.181V37H898.807V34.5664H894.479V33.2607L898.581 26.7939Z" fill="white"/>
<circle cx="674" cy="32" r="12" fill="#7B58CF"/>
<circle cx="674" cy="32" r="14" stroke="#7B58CF" stroke-opacity="0.3" stroke-width="4"/>
<path d="M675.087 31.5381C675.757 31.7158 676.27 32.0326 676.625 32.4883C676.98 32.9395 677.158 33.5046 677.158 34.1836C677.158 35.1224 676.841 35.8607 676.208 36.3984C675.579 36.9316 674.706 37.1982 673.59 37.1982C673.12 37.1982 672.642 37.1549 672.154 37.0684C671.667 36.9818 671.188 36.8564 670.719 36.6924V35.3184C671.184 35.5599 671.642 35.7399 672.093 35.8584C672.544 35.9769 672.993 36.0361 673.439 36.0361C674.196 36.0361 674.777 35.8652 675.183 35.5234C675.588 35.1816 675.791 34.6895 675.791 34.0469C675.791 33.4544 675.588 32.985 675.183 32.6387C674.777 32.2878 674.228 32.1123 673.535 32.1123H672.482V30.9775H673.535C674.169 30.9775 674.663 30.8385 675.019 30.5605C675.374 30.2826 675.552 29.8952 675.552 29.3984C675.552 28.8743 675.385 28.4733 675.053 28.1953C674.725 27.9128 674.255 27.7715 673.645 27.7715C673.239 27.7715 672.82 27.8171 672.387 27.9082C671.954 27.9993 671.5 28.1361 671.026 28.3184V27.0469C671.578 26.901 672.068 26.7917 672.496 26.7188C672.929 26.6458 673.312 26.6094 673.645 26.6094C674.638 26.6094 675.431 26.86 676.023 27.3613C676.62 27.8581 676.919 28.5189 676.919 29.3438C676.919 29.9043 676.762 30.3714 676.447 30.7451C676.137 31.1188 675.684 31.3831 675.087 31.5381Z" fill="white"/>
<circle cx="450" cy="32" r="12" fill="#7B58CF"/>
<circle cx="450" cy="32" r="14" stroke="#7B58CF" stroke-opacity="0.3" stroke-width="4"/>
<path d="M448.332 35.8379H453.021V37H446.821V35.8379C447.674 34.9401 448.419 34.1471 449.057 33.459C449.695 32.7708 450.134 32.2855 450.376 32.0029C450.832 31.4469 451.139 30.998 451.299 30.6562C451.458 30.3099 451.538 29.9567 451.538 29.5967C451.538 29.027 451.369 28.5804 451.032 28.2568C450.7 27.9333 450.242 27.7715 449.658 27.7715C449.243 27.7715 448.808 27.8467 448.353 27.9971C447.897 28.1475 447.414 28.3753 446.903 28.6807V27.2861C447.373 27.0628 447.833 26.8942 448.284 26.7803C448.74 26.6663 449.189 26.6094 449.631 26.6094C450.629 26.6094 451.431 26.876 452.037 27.4092C452.648 27.9378 452.953 28.6328 452.953 29.4941C452.953 29.9316 452.851 30.3691 452.646 30.8066C452.445 31.2441 452.117 31.7272 451.661 32.2559C451.406 32.5521 451.035 32.9622 450.547 33.4863C450.064 34.0104 449.326 34.7943 448.332 35.8379Z" fill="white"/>
<circle cx="226" cy="32" r="12" fill="#7B58CF"/>
<circle cx="226" cy="32" r="14" stroke="#7B58CF" stroke-opacity="0.3" stroke-width="4"/>
<path d="M223.628 35.8447H225.774V28.1338L223.204 29.3711V28.0449L225.761 26.8281H227.142V35.8447H229.261V37H223.628V35.8447Z" fill="white"/>
<g filter="url(#filter0_d_16816_29719)">
<path fill-rule="evenodd" clip-rule="evenodd" d="M367.821 68.4501C367.971 68.5855 368.075 68.6828 368.395 68.9874C368.709 69.2857 368.861 69.4267 369 69.5446C369.058 69.5934 369.107 69.7238 369.127 69.9178C369.143 70.0773 369.137 70.2553 369.118 70.4268C369.111 70.4861 369.105 70.5289 369.101 70.5493C369.059 70.778 369.233 70.9894 369.466 70.9917C369.675 70.9939 369.837 70.9965 370.263 71.0041C370.37 71.006 370.37 71.006 370.477 71.0078C371.638 71.0278 372.23 71.0223 372.656 70.9688C373.11 70.9117 373.578 70.3626 373.983 69.6737C374.326 70.2833 374.802 70.8786 375.282 70.956C375.435 70.9804 375.619 70.9879 375.833 70.983C375.993 70.9793 376.162 70.9688 376.332 70.9536C376.461 70.9421 376.563 70.9306 376.624 70.9226C376.85 70.8933 376.998 70.671 376.937 70.4514C376.924 70.4039 376.903 70.3169 376.882 70.2073C376.858 70.0802 376.84 69.9561 376.832 69.8431C376.827 69.7714 376.826 69.7065 376.829 69.6504C376.835 69.5526 376.837 69.4979 376.839 69.3713C376.84 69.3242 376.84 69.3242 376.842 69.283C376.847 69.1482 376.865 69.0201 376.924 68.7408C376.949 68.6196 377.071 68.3876 377.263 68.1006C377.321 68.0151 377.383 67.9258 377.45 67.8336C377.578 67.6588 377.714 67.4822 377.851 67.3132C377.933 67.212 377.997 67.1363 378.032 67.0951C378.328 66.6707 378.644 65.976 378.76 65.5698C378.872 65.1794 378.961 64.4604 379.016 63.7537C379.046 63.3528 379.057 63.0297 379.057 62.5228C379.057 62.4338 379.057 62.4338 379.057 62.3604C379.057 62.2402 379.057 62.1947 379.057 62.1385C379.056 61.9849 379.051 61.8327 379.037 61.4444C379.005 60.6308 378.559 60.1047 377.902 60.0033C377.343 59.917 376.662 60.3812 376.662 60.3812C376.662 60.3812 376.511 59.8584 376.409 59.697C376.242 59.4377 375.814 59.1072 375.487 59.0428C375.151 58.9775 374.752 58.9847 374.385 59.0495C374.065 59.1069 373.745 59.3933 373.56 59.7023C373.428 59.9227 373.552 59.6906 373.42 59.4626C373.237 59.1486 372.811 58.8674 372.405 58.7844C372.061 58.7132 371.667 58.7403 371.307 58.8473C370.844 58.9857 370.77 59.338 370.752 59.2371C370.69 58.8989 370.685 58.9211 370.646 58.6798C370.504 57.7846 370.344 57.1651 370.102 56.6246C370.116 56.6556 370.013 56.4224 369.976 56.342C369.912 56.2027 369.847 56.0767 369.776 55.9555C369.558 55.5818 369.307 55.3021 368.993 55.1431C368.447 54.8668 367.63 55.0013 367.242 55.4538C366.857 55.9034 366.793 56.6553 366.89 57.5856C366.927 57.9468 367.057 58.6063 367.174 59.0937C367.216 59.2629 367.252 59.4172 367.319 59.7023C367.331 59.7507 367.331 59.7507 367.342 59.7992C367.394 60.015 367.439 60.1924 367.494 60.3872C367.488 60.3669 367.591 60.7313 367.612 60.8119C367.62 60.8388 367.62 60.8388 367.627 60.8659C367.668 61.0197 367.708 61.1855 367.77 61.4622C367.804 61.6143 367.837 61.7769 367.87 61.9492C367.959 62.4191 367.959 62.3213 367.874 62.221C367.815 62.1518 367.759 62.089 367.705 62.031C367.606 61.9233 367.514 61.8342 367.427 61.7632C366.792 61.2441 366.404 61.0148 365.87 60.9644C364.995 60.8803 364.164 61.4987 364.039 62.3332C363.962 62.8449 363.987 63.0805 364.224 63.5327C364.354 63.777 364.574 64.0721 364.985 64.58C365.01 64.6111 365.01 64.6111 365.036 64.6421C365.54 65.264 365.595 65.333 365.715 65.5068C366.04 65.9775 366.829 67.329 366.973 67.5104L367.821 68.4501Z" fill="black"/>
<path fill-rule="evenodd" clip-rule="evenodd" d="M365.618 64.1695C365.593 64.1388 365.593 64.1388 365.568 64.1082C365.191 63.642 364.984 63.365 364.887 63.1823C364.734 62.8904 364.726 62.8112 364.781 62.4444C364.845 62.012 365.312 61.6643 365.799 61.711C366.136 61.7428 366.43 61.9163 366.952 62.344C367.009 62.3902 367.077 62.4564 367.155 62.5407C367.201 62.5905 367.25 62.6459 367.303 62.7079C367.383 62.8009 367.65 63.1284 367.611 63.0808C367.669 63.1507 367.711 63.2048 367.758 63.2712C367.852 63.4055 367.905 63.4801 367.977 63.5757C367.943 63.5309 368.192 63.8742 368.244 63.9244C368.523 64.1903 368.926 63.9663 368.901 63.6119C368.897 63.5528 368.883 63.4888 368.854 63.3773C368.739 62.558 368.699 62.2951 368.607 61.8099C368.573 61.6296 368.538 61.4589 368.502 61.2977C368.437 61.0121 368.395 60.8376 368.352 60.6734C368.344 60.6443 368.344 60.6443 368.336 60.6156C368.313 60.5308 368.209 60.1609 368.216 60.1857C368.165 60.001 368.121 59.832 368.072 59.6244C368.06 59.5771 368.06 59.5771 368.049 59.5295C367.983 59.246 367.945 59.0877 367.903 58.9162C367.793 58.4605 367.669 57.829 367.636 57.5085C367.56 56.7843 367.612 56.1743 367.812 55.9416C367.967 55.7601 368.408 55.6876 368.654 55.8123C368.815 55.8938 368.976 56.0736 369.129 56.3341C369.186 56.4326 369.24 56.5383 369.296 56.6576C369.329 56.7299 369.429 56.956 369.418 56.931C369.628 57.4009 369.772 57.9619 369.905 58.7977C369.945 59.0454 369.994 59.326 370.056 59.6692C370.075 59.771 370.075 59.771 370.093 59.8724C370.395 61.5077 370.373 61.3838 370.377 61.5142C370.393 61.99 371.095 62.0011 371.126 61.5261C371.136 61.3754 371.132 61.2409 371.115 60.8546C371.112 60.8 371.112 60.8 371.11 60.7455C371.095 60.3896 371.096 60.1849 371.117 60.0685C371.155 59.8562 371.346 59.6185 371.521 59.566C371.768 59.4928 372.038 59.4743 372.254 59.519C372.461 59.5613 372.703 59.7207 372.772 59.8396C372.855 59.9836 372.927 60.203 372.982 60.4749C373.026 60.6944 373.057 60.9298 373.078 61.1811C373.085 61.2593 373.089 61.3197 373.096 61.4197C373.099 61.4615 373.099 61.4615 373.102 61.496C373.103 61.5134 373.103 61.5134 373.107 61.5407C373.11 61.5599 373.11 61.5599 373.124 61.6085C373.132 61.7463 373.132 61.7463 373.685 61.7974C373.851 61.5976 373.851 61.5976 373.846 61.5625C373.873 61.4442 373.89 61.3123 373.913 61.0644C373.928 60.9033 373.936 60.8241 373.945 60.7419C373.982 60.4018 374.028 60.1857 374.085 60.0907C374.156 59.9725 374.405 59.8079 374.517 59.7879C374.797 59.7383 375.105 59.7327 375.343 59.7789C375.451 59.8001 375.714 60.003 375.776 60.1001C375.904 60.3016 376.028 60.9515 376.098 61.5962C376.087 61.6385 376.087 61.6385 376.259 61.8838C376.849 61.8165 376.849 61.8165 376.832 61.7099C376.848 61.6719 376.86 61.628 376.878 61.5598C376.92 61.4001 376.948 61.3073 376.99 61.2034C377.019 61.1315 377.049 61.0701 377.08 61.0211C377.201 60.8312 377.513 60.7022 377.787 60.7445C378.081 60.7899 378.269 61.0111 378.287 61.4734C378.302 61.8539 378.306 62.0001 378.307 62.1437C378.307 62.1966 378.307 62.2392 378.307 62.3588C378.307 62.4327 378.307 62.4327 378.307 62.5227C378.307 63.0117 378.296 63.3163 378.268 63.6967C378.217 64.35 378.132 65.0396 378.039 65.3638C377.945 65.6944 377.663 66.3147 377.439 66.6373C377.424 66.6526 377.356 66.7338 377.269 66.841C377.124 67.0194 376.98 67.206 376.844 67.3923C376.771 67.492 376.703 67.5892 376.64 67.6832C376.397 68.0469 376.24 68.3439 376.19 68.5874C376.123 68.9039 376.099 69.0717 376.092 69.2536C376.091 69.3052 376.091 69.3052 376.089 69.3551C376.087 69.4732 376.085 69.5208 376.08 69.6072C376.075 69.6978 376.077 69.7943 376.084 69.8963C376.094 70.0423 376.084 70.2418 376.084 70.2418C376.084 70.2418 375.957 70.2299 375.816 70.2332C375.644 70.2372 375.5 70.2313 375.401 70.2154C375.258 70.1924 374.872 69.709 374.674 69.3324C374.372 68.756 373.638 68.7839 373.337 69.293C373.066 69.7548 372.677 70.2102 372.562 70.2247C372.187 70.2718 371.607 70.2771 370.49 70.2579C370.383 70.2561 370.383 70.2561 370.277 70.2542C369.848 70.2465 369.864 70.3189 369.873 70.2418C369.898 70.0215 369.895 70.0627 369.873 69.8425C369.836 69.4731 369.722 69.172 369.484 68.9719C369.362 68.8676 369.215 68.7312 368.919 68.4508C368.582 68.1305 368.477 68.0315 368.346 67.9171L367.545 67.0264C367.457 66.9139 366.685 65.5924 366.333 65.081C366.195 64.8824 366.144 64.8179 365.618 64.1695ZM375.127 64.1732V67.6322C375.127 68.1322 375.877 68.1322 375.877 67.6322V64.1732C375.877 63.6732 375.127 63.6732 375.127 64.1732ZM373.095 64.1727L373.111 67.6457C373.113 68.1457 373.863 68.1422 373.861 67.6422L373.845 64.1692C373.843 63.6692 373.093 63.6727 373.095 64.1727ZM371.886 67.6262L371.865 64.2002C371.862 63.7003 371.112 63.7049 371.115 64.2048L371.136 67.6308C371.139 68.1308 371.889 68.1262 371.886 67.6262Z" fill="white"/>
</g>
<defs>
<filter id="filter0_d_16816_29719" x="362" y="54" width="19.0572" height="20.0185" filterUnits="userSpaceOnUse" color-interpolation-filters="sRGB">
<feFlood flood-opacity="0" result="BackgroundImageFix"/>
<feColorMatrix in="SourceAlpha" type="matrix" values="0 0 0 0 0 0 0 0 0 0 0 0 0 0 0 0 0 0 127 0" result="hardAlpha"/>
<feOffset dy="1"/>
<feGaussianBlur stdDeviation="1"/>
<feColorMatrix type="matrix" values="0 0 0 0 0 0 0 0 0 0 0 0 0 0 0 0 0 0 0.298656 0"/>
<feBlend mode="normal" in2="BackgroundImageFix" result="effect1_dropShadow_16816_29719"/>
<feBlend mode="normal" in="SourceGraphic" in2="effect1_dropShadow_16816_29719" result="shape"/>
</filter>
</defs>
</svg>
