<svg width="430" height="48" fill="none" xmlns="http://www.w3.org/2000/svg"><path fill="#fff" d="M0 0h430v48H0z"/><path d="M19.742 28v-3.574l-3.21-5.156h1.288l1.729 2.818c.387.633.662 1.119.984 1.992h-.445c.322-.89.603-1.389.973-1.992l1.722-2.819h1.283l-3.21 5.157V28h-1.114Zm7.307.14c-1.781 0-2.983-1.353-2.983-3.374 0-2.051 1.202-3.399 2.983-3.399 1.787 0 2.994 1.348 2.994 3.399 0 2.021-1.207 3.375-2.994 3.375Zm0-.943c1.324 0 1.928-1.142 1.928-2.431 0-1.301-.604-2.455-1.928-2.455-1.307 0-1.91 1.148-1.91 2.455 0 1.289.603 2.431 1.91 2.431Zm6.75.885c-1.324 0-2.22-.814-2.22-2.473v-4.16h1.054v4.072c0 1.008.568 1.612 1.482 1.612.938 0 1.647-.639 1.647-1.758v-3.926h1.06V28h-1.02v-1.588h.141c-.404 1.23-1.183 1.67-2.144 1.67Zm10.922.059c-1.781 0-2.983-1.354-2.983-3.375 0-2.051 1.202-3.399 2.983-3.399 1.265 0 2.297.668 2.654 1.81l-1.014.288c-.193-.674-.779-1.154-1.64-1.154-1.307 0-1.91 1.148-1.91 2.455 0 1.289.603 2.431 1.91 2.431.879 0 1.476-.498 1.67-1.207l1.007.287c-.351 1.166-1.394 1.864-2.677 1.864Zm6.14.011c-1.242 0-2.232-.726-2.232-2.015 0-1.5 1.336-1.776 2.549-1.928 1.166-.146 1.681-.111 1.681-.598v-.035c0-.814-.462-1.283-1.37-1.283-.944 0-1.454.504-1.659.96l-1.014-.333c.504-1.19 1.63-1.553 2.643-1.553.879 0 2.455.27 2.455 2.315V28h-1.037v-.89h-.07c-.223.462-.838 1.042-1.946 1.042Zm.182-.931c1.166 0 1.816-.785 1.816-1.588v-.908c-.175.205-1.324.322-1.728.375-.768.1-1.441.345-1.441 1.09 0 .68.568 1.03 1.353 1.03Zm5.777-3.147V28h-1.054v-6.55h1.013l.006 1.587h-.146c.398-1.207 1.16-1.67 2.15-1.67 1.324 0 2.22.815 2.22 2.473V28h-1.06v-4.072c0-1.008-.562-1.612-1.476-1.612-.944 0-1.653.64-1.653 1.758Zm11.256 4.078c-1.242 0-2.232-.726-2.232-2.015 0-1.5 1.336-1.776 2.549-1.928 1.166-.146 1.681-.111 1.681-.598v-.035c0-.814-.463-1.283-1.37-1.283-.944 0-1.454.504-1.66.96l-1.013-.333c.504-1.19 1.63-1.553 2.643-1.553.879 0 2.455.27 2.455 2.315V28h-1.037v-.89h-.07c-.223.462-.838 1.042-1.946 1.042Zm.182-.931c1.166 0 1.816-.785 1.816-1.588v-.908c-.176.205-1.324.322-1.728.375-.768.1-1.442.345-1.442 1.09 0 .68.569 1.03 1.354 1.03Zm6.193.826c-.984 0-1.47-.55-1.47-1.5V19.27h1.054v7.013c0 .604.106.82.545.82.229 0 .322-.017.422-.046l.21.89c-.187.053-.48.1-.76.1Zm4.06.094c-1.347 0-2.284-.598-2.519-1.729l1.002-.24c.188.72.72 1.043 1.506 1.043.914 0 1.5-.451 1.5-.99 0-.452-.316-.75-.96-.903l-1.09-.258c-1.19-.28-1.759-.867-1.759-1.787 0-1.125 1.032-1.91 2.426-1.91 1.348 0 2.057.656 2.356 1.576l-.955.246c-.182-.468-.551-.925-1.395-.925-.78 0-1.365.404-1.365.949 0 .486.334.756 1.101.937l.99.235c1.19.281 1.747.873 1.747 1.77 0 1.148-1.05 1.986-2.584 1.986Zm6.78 0c-1.781 0-2.982-1.354-2.982-3.375 0-2.051 1.2-3.399 2.982-3.399 1.787 0 2.994 1.348 2.994 3.399 0 2.021-1.207 3.375-2.994 3.375Zm0-.944c1.324 0 1.928-1.142 1.928-2.431 0-1.301-.604-2.455-1.928-2.455-1.307 0-1.91 1.148-1.91 2.455 0 1.289.603 2.431 1.91 2.431Zm10.57.944c-1.78 0-2.982-1.354-2.982-3.375 0-2.051 1.201-3.399 2.982-3.399 1.266 0 2.297.668 2.655 1.81l-1.014.288c-.193-.674-.78-1.154-1.64-1.154-1.307 0-1.91 1.148-1.91 2.455 0 1.289.603 2.431 1.91 2.431.878 0 1.476-.498 1.67-1.207l1.007.287c-.352 1.166-1.395 1.864-2.678 1.864Zm4.19-.141v-6.55h1.019v1.007h.071c.24-.662.92-1.102 1.699-1.102.152 0 .41.012.533.018v1.06a3.989 3.989 0 0 0-.633-.058c-.943 0-1.635.639-1.635 1.523V28h-1.054Zm7.078.14c-1.899 0-3.07-1.347-3.07-3.363 0-2.01 1.16-3.41 2.947-3.41 1.389 0 2.853.856 2.853 3.276v.439h-5.086v-.89h4.518l-.492.328c0-1.29-.61-2.215-1.793-2.215-1.184 0-1.881.978-1.881 2.045v.591c0 1.46.809 2.262 2.01 2.262.773 0 1.353-.34 1.599-1.008l1.02.282c-.305.99-1.283 1.664-2.625 1.664Zm6.193.012c-1.242 0-2.232-.726-2.232-2.015 0-1.5 1.336-1.776 2.549-1.928 1.166-.146 1.681-.111 1.681-.598v-.035c0-.814-.463-1.283-1.371-1.283-.943 0-1.453.504-1.658.96l-1.014-.333c.504-1.19 1.629-1.553 2.643-1.553.879 0 2.455.27 2.455 2.315V28h-1.037v-.89h-.07c-.223.462-.838 1.042-1.946 1.042Zm.182-.931c1.166 0 1.816-.785 1.816-1.588v-.908c-.175.205-1.324.322-1.728.375-.768.1-1.442.345-1.442 1.09 0 .68.569 1.03 1.354 1.03Zm7.301-5.772v.903h-3.387v-.903h3.387Zm-2.403-1.558h1.055v6.41c0 .586.217.844.773.844.135 0 .364-.036.54-.07l.216.89a2.531 2.531 0 0 1-.785.117c-1.131 0-1.799-.627-1.799-1.7v-6.491Zm6.387 8.25c-1.898 0-3.07-1.348-3.07-3.364 0-2.01 1.16-3.41 2.947-3.41 1.389 0 2.854.856 2.854 3.276v.439h-5.086v-.89h4.517l-.492.328c0-1.29-.609-2.215-1.793-2.215s-1.881.978-1.881 2.045v.591c0 1.46.809 2.262 2.01 2.262.773 0 1.353-.34 1.6-1.008l1.019.282c-.305.99-1.283 1.664-2.625 1.664Zm9.451.011c-1.242 0-2.232-.726-2.232-2.015 0-1.5 1.336-1.776 2.549-1.928 1.166-.146 1.681-.111 1.681-.598v-.035c0-.814-.463-1.283-1.371-1.283-.943 0-1.453.504-1.658.96l-1.014-.333c.504-1.19 1.629-1.553 2.643-1.553.879 0 2.455.27 2.455 2.315V28h-1.037v-.89h-.07c-.223.462-.838 1.042-1.946 1.042Zm.182-.931c1.166 0 1.816-.785 1.816-1.588v-.908c-.176.205-1.324.322-1.728.375-.768.1-1.442.345-1.442 1.09 0 .68.569 1.03 1.354 1.03Zm8.098 3.228v-9h1.019v1.049h.117c.217-.346.621-1.13 1.899-1.13 1.634 0 2.777 1.3 2.777 3.374 0 2.086-1.137 3.399-2.771 3.399-1.249 0-1.688-.791-1.905-1.155h-.082v3.463h-1.054Zm2.882-3.252c1.225 0 1.858-1.09 1.858-2.466 0-1.36-.615-2.42-1.858-2.42-1.207 0-1.84.972-1.84 2.42 0 1.458.651 2.466 1.84 2.466Zm4.465.803v-6.55h1.02v1.007h.07c.24-.662.92-1.102 1.699-1.102.153 0 .41.012.533.018v1.06a3.971 3.971 0 0 0-.632-.058c-.944 0-1.635.639-1.635 1.523V28h-1.055Zm6.99.14c-1.781 0-2.982-1.353-2.982-3.374 0-2.051 1.201-3.399 2.982-3.399 1.788 0 2.995 1.348 2.995 3.399 0 2.021-1.207 3.375-2.995 3.375Zm0-.943c1.325 0 1.928-1.142 1.928-2.431 0-1.301-.603-2.455-1.928-2.455-1.306 0-1.91 1.148-1.91 2.455 0 1.289.604 2.431 1.91 2.431Zm4.524-5.748h1.06v7.02c.006 1.248-.65 1.98-1.921 1.98h-.211v-.972h.193c.609 0 .879-.358.879-1.008v-7.02Zm.533-1.072c-.398 0-.732-.31-.732-.697 0-.387.334-.698.732-.698.404 0 .738.311.738.698 0 .386-.334.697-.738.697Zm5.133 7.764c-1.899 0-3.07-1.348-3.07-3.364 0-2.01 1.16-3.41 2.947-3.41 1.388 0 2.853.856 2.853 3.276v.439h-5.086v-.89h4.518l-.492.328c0-1.29-.61-2.215-1.793-2.215-1.184 0-1.881.978-1.881 2.045v.591c0 1.46.809 2.262 2.01 2.262.773 0 1.353-.34 1.599-1.008l1.02.282c-.305.99-1.283 1.664-2.625 1.664Zm6.908 0c-1.781 0-2.982-1.354-2.982-3.375 0-2.051 1.201-3.399 2.982-3.399 1.266 0 2.297.668 2.654 1.81l-1.013.288c-.194-.674-.78-1.154-1.641-1.154-1.307 0-1.91 1.148-1.91 2.455 0 1.289.603 2.431 1.91 2.431.879 0 1.477-.498 1.67-1.207l1.008.287c-.352 1.166-1.395 1.864-2.678 1.864Zm6.768-6.692v.903h-3.387v-.903h3.387Zm-2.403-1.558h1.055v6.41c0 .586.217.844.773.844.135 0 .364-.036.54-.07l.216.89a2.531 2.531 0 0 1-.785.117c-1.131 0-1.799-.627-1.799-1.7v-6.491Zm10.172 1.558v.903h-3.855v-.903h3.855ZM185.926 28v-7.424c0-1.137.908-1.717 1.863-1.717.498 0 .826.106.984.176l-.293.902c-.111-.035-.275-.1-.568-.1-.65 0-.932.34-.932.974V28h-1.054Zm3.961 0v-6.55h1.019v1.007h.071c.24-.662.919-1.102 1.699-1.102.152 0 .41.012.533.018v1.06a3.989 3.989 0 0 0-.633-.058c-.943 0-1.635.639-1.635 1.523V28h-1.054Zm6.99.14c-1.781 0-2.982-1.353-2.982-3.374 0-2.051 1.201-3.399 2.982-3.399 1.787 0 2.994 1.348 2.994 3.399 0 2.021-1.207 3.375-2.994 3.375Zm0-.943c1.324 0 1.928-1.142 1.928-2.431 0-1.301-.604-2.455-1.928-2.455-1.307 0-1.91 1.148-1.91 2.455 0 1.289.603 2.431 1.91 2.431Zm4.529.803v-6.55h1.026l.006 1.464h-.083c.264-1.06 1.067-1.582 1.916-1.582.95 0 1.553.645 1.729 1.594h-.141c.235-.979 1.102-1.594 2.145-1.594 1.137 0 2.062.732 2.062 2.25V28h-1.06v-4.389c0-.943-.615-1.318-1.318-1.318-.885 0-1.424.604-1.424 1.43V28h-1.055v-4.494c0-.727-.545-1.213-1.283-1.213-.768 0-1.465.539-1.465 1.582V28h-1.055Zm16.465-6.55v.902h-3.387v-.903h3.387Zm-2.402-1.56h1.054v6.41c0 .587.217.845.774.845.135 0 .363-.036.539-.07l.217.89a2.54 2.54 0 0 1-.785.117c-1.131 0-1.799-.627-1.799-1.7v-6.491Zm4.804 4.184V28h-1.054v-8.73h1.054v3.767h-.181c.398-1.207 1.16-1.67 2.15-1.67 1.324 0 2.221.815 2.221 2.473V28h-1.061v-4.072c0-1.008-.562-1.612-1.476-1.612-.944 0-1.653.64-1.653 1.758Zm8.801 4.067c-1.898 0-3.07-1.348-3.07-3.364 0-2.01 1.16-3.41 2.947-3.41 1.389 0 2.854.856 2.854 3.276v.439h-5.086v-.89h4.517l-.492.328c0-1.29-.609-2.215-1.793-2.215-1.183 0-1.881.978-1.881 2.045v.591c0 1.46.809 2.262 2.01 2.262.774 0 1.354-.34 1.6-1.008l1.019.282c-.304.99-1.283 1.664-2.625 1.664Zm10.283 0c-1.781 0-2.982-1.354-2.982-3.375 0-2.051 1.201-3.399 2.982-3.399 1.266 0 2.297.668 2.655 1.81l-1.014.288c-.193-.674-.779-1.154-1.641-1.154-1.306 0-1.91 1.148-1.91 2.455 0 1.289.604 2.431 1.91 2.431.879 0 1.477-.498 1.67-1.207l1.008.287c-.351 1.166-1.394 1.864-2.678 1.864Zm6.856 0c-1.781 0-2.983-1.354-2.983-3.375 0-2.051 1.202-3.399 2.983-3.399 1.787 0 2.994 1.348 2.994 3.399 0 2.021-1.207 3.375-2.994 3.375Zm0-.944c1.324 0 1.928-1.142 1.928-2.431 0-1.301-.604-2.455-1.928-2.455-1.307 0-1.91 1.148-1.91 2.455 0 1.289.603 2.431 1.91 2.431Zm4.529.803v-6.55h1.026l.005 1.464h-.082c.264-1.06 1.067-1.582 1.916-1.582.95 0 1.553.645 1.729 1.594h-.141c.235-.979 1.102-1.594 2.145-1.594 1.137 0 2.062.732 2.062 2.25V28h-1.06v-4.389c0-.943-.615-1.318-1.319-1.318-.884 0-1.423.604-1.423 1.43V28h-1.055v-4.494c0-.727-.545-1.213-1.283-1.213-.768 0-1.465.539-1.465 1.582V28h-1.055Zm10.512 0v-6.55h1.025l.006 1.464h-.082c.264-1.06 1.067-1.582 1.916-1.582.949 0 1.553.645 1.729 1.594h-.141c.234-.979 1.102-1.594 2.145-1.594 1.136 0 2.062.732 2.062 2.25V28h-1.06v-4.389c0-.943-.616-1.318-1.319-1.318-.885 0-1.424.604-1.424 1.43V28h-1.054v-4.494c0-.727-.545-1.213-1.284-1.213-.767 0-1.464.539-1.464 1.582V28h-1.055Zm12.346.152c-1.243 0-2.233-.726-2.233-2.015 0-1.5 1.336-1.776 2.549-1.928 1.166-.146 1.682-.111 1.682-.598v-.035c0-.814-.463-1.283-1.371-1.283-.944 0-1.454.504-1.659.96l-1.013-.333c.504-1.19 1.629-1.553 2.642-1.553.879 0 2.455.27 2.455 2.315V28h-1.037v-.89h-.07c-.223.462-.838 1.042-1.945 1.042Zm.181-.931c1.166 0 1.817-.785 1.817-1.588v-.908c-.176.205-1.325.322-1.729.375-.767.1-1.441.345-1.441 1.09 0 .68.568 1.03 1.353 1.03Zm5.778-3.147V28h-1.055v-6.55h1.014l.005 1.587h-.146c.398-1.207 1.16-1.67 2.15-1.67 1.325 0 2.221.815 2.221 2.473V28h-1.06v-4.072c0-1.008-.563-1.612-1.477-1.612-.943 0-1.652.64-1.652 1.758Zm8.502 4.067c-1.635 0-2.772-1.313-2.772-3.399 0-2.074 1.143-3.375 2.777-3.375 1.278 0 1.682.785 1.899 1.131h.082v-3.229h1.055V28h-1.02v-1.014h-.117c-.217.364-.656 1.155-1.904 1.155Zm.158-.944c1.189 0 1.84-1.008 1.84-2.466 0-1.448-.633-2.42-1.84-2.42-1.242 0-1.858 1.06-1.858 2.42 0 1.376.633 2.466 1.858 2.466Zm9.58.85c-.985 0-1.471-.55-1.471-1.5V19.27h1.055v7.013c0 .604.105.82.545.82.228 0 .322-.017.422-.046l.211.89c-.188.053-.481.1-.762.1Zm1.834-.047v-6.55h1.055V28h-1.055Zm.533-7.623c-.398 0-.732-.31-.732-.697 0-.387.334-.698.732-.698.404 0 .738.311.738.698 0 .386-.334.697-.738.697Zm3.428 3.697V28h-1.055v-6.55h1.014l.006 1.587h-.147c.399-1.207 1.16-1.67 2.15-1.67 1.325 0 2.221.815 2.221 2.473V28h-1.06v-4.072c0-1.008-.563-1.612-1.477-1.612-.943 0-1.652.64-1.652 1.758Zm8.801 4.067c-1.899 0-3.071-1.348-3.071-3.364 0-2.01 1.16-3.41 2.947-3.41 1.389 0 2.854.856 2.854 3.276v.439h-5.086v-.89h4.518l-.493.328c0-1.29-.609-2.215-1.793-2.215-1.183 0-1.88.978-1.88 2.045v.591c0 1.46.808 2.262 2.009 2.262.774 0 1.354-.34 1.6-1.008l1.02.282c-.305.99-1.284 1.664-2.625 1.664Zm5.039-.065a.79.79 0 0 1-.786-.79.79.79 0 0 1 1.577 0c0 .439-.358.79-.791.79Z" fill="#28272D"/><path d="M326.393 28.152c-1.893 0-3.071-.972-3.17-2.437h1.142c.088.99 1.002 1.441 2.028 1.441 1.183 0 2.086-.62 2.086-1.552 0-.844-.797-1.155-1.729-1.418l-1.055-.3c-1.406-.398-2.226-1.118-2.226-2.279 0-1.476 1.312-2.455 3-2.455 1.722 0 2.924 1.002 2.976 2.32h-1.09c-.099-.849-.884-1.335-1.921-1.335-1.131 0-1.881.597-1.881 1.418 0 .914 1.025 1.236 1.664 1.412l.873.24c.937.258 2.472.785 2.472 2.414 0 1.43-1.154 2.531-3.169 2.531Zm5.83-4.078V28h-1.055v-8.73h1.055v3.767h-.182c.398-1.207 1.16-1.67 2.15-1.67 1.325 0 2.221.815 2.221 2.473V28h-1.06v-4.072c0-1.008-.563-1.612-1.477-1.612-.943 0-1.652.64-1.652 1.758Zm8.713 4.067c-1.782 0-2.983-1.354-2.983-3.375 0-2.051 1.201-3.399 2.983-3.399 1.787 0 2.994 1.348 2.994 3.399 0 2.021-1.207 3.375-2.994 3.375Zm0-.944c1.324 0 1.927-1.142 1.927-2.431 0-1.301-.603-2.455-1.927-2.455-1.307 0-1.911 1.148-1.911 2.455 0 1.289.604 2.431 1.911 2.431Zm5.777.803-1.986-6.55h1.119l.797 2.859c.216.779.474 1.757.72 3.005h-.181c.234-1.195.48-2.173.709-3.005l.785-2.86h1.125l.773 2.86a39.9 39.9 0 0 1 .697 3.005h-.187c.246-1.212.498-2.185.727-3.005l.796-2.86h1.12L351.74 28h-1.049l-.849-2.965a62.965 62.965 0 0 1-.733-2.883h.235a61.095 61.095 0 0 1-.733 2.883L347.762 28h-1.049Zm14.391.14c-1.782 0-2.983-1.353-2.983-3.374 0-2.051 1.201-3.399 2.983-3.399 1.265 0 2.296.668 2.654 1.81l-1.014.288c-.193-.674-.779-1.154-1.64-1.154-1.307 0-1.911 1.148-1.911 2.455 0 1.289.604 2.431 1.911 2.431.878 0 1.476-.498 1.669-1.207l1.008.287c-.351 1.166-1.394 1.864-2.677 1.864Zm6.855 0c-1.781 0-2.982-1.353-2.982-3.374 0-2.051 1.201-3.399 2.982-3.399 1.787 0 2.994 1.348 2.994 3.399 0 2.021-1.207 3.375-2.994 3.375Zm0-.943c1.324 0 1.928-1.142 1.928-2.431 0-1.301-.604-2.455-1.928-2.455-1.307 0-1.91 1.148-1.91 2.455 0 1.289.603 2.431 1.91 2.431Zm4.529.803v-6.55h1.026l.006 1.464h-.082c.263-1.06 1.066-1.582 1.916-1.582.949 0 1.552.645 1.728 1.594h-.141c.235-.979 1.102-1.594 2.145-1.594 1.137 0 2.062.732 2.062 2.25V28h-1.06v-4.389c0-.943-.615-1.318-1.318-1.318-.885 0-1.424.604-1.424 1.43V28h-1.055v-4.494c0-.727-.545-1.213-1.283-1.213-.768 0-1.465.539-1.465 1.582V28h-1.055ZM383 28v-6.55h1.025l.006 1.464h-.082c.264-1.06 1.067-1.582 1.916-1.582.949 0 1.553.645 1.729 1.594h-.141c.235-.979 1.102-1.594 2.145-1.594 1.136 0 2.062.732 2.062 2.25V28h-1.06v-4.389c0-.943-.616-1.318-1.319-1.318-.885 0-1.424.604-1.424 1.43V28h-1.054v-4.494c0-.727-.545-1.213-1.283-1.213-.768 0-1.465.539-1.465 1.582V28H383Zm12.346.152c-1.242 0-2.233-.726-2.233-2.015 0-1.5 1.336-1.776 2.549-1.928 1.166-.146 1.682-.111 1.682-.598v-.035c0-.814-.463-1.283-1.371-1.283-.944 0-1.453.504-1.659.96l-1.013-.333c.504-1.19 1.629-1.553 2.642-1.553.879 0 2.455.27 2.455 2.315V28h-1.037v-.89h-.07c-.223.462-.838 1.042-1.945 1.042Zm.181-.931c1.166 0 1.817-.785 1.817-1.588v-.908c-.176.205-1.324.322-1.729.375-.767.1-1.441.345-1.441 1.09 0 .68.568 1.03 1.353 1.03Zm5.778-3.147V28h-1.055v-6.55h1.014l.006 1.587h-.147c.398-1.207 1.16-1.67 2.15-1.67 1.325 0 2.221.815 2.221 2.473V28h-1.06v-4.072c0-1.008-.563-1.612-1.477-1.612-.943 0-1.652.64-1.652 1.758Zm8.502 4.067c-1.635 0-2.772-1.313-2.772-3.399 0-2.074 1.143-3.375 2.777-3.375 1.278 0 1.682.785 1.899 1.131h.082v-3.229h1.055V28h-1.02v-1.014h-.117c-.217.364-.656 1.155-1.904 1.155Zm.158-.944c1.189 0 1.84-1.008 1.84-2.466 0-1.448-.633-2.42-1.84-2.42-1.242 0-1.858 1.06-1.858 2.42 0 1.376.633 2.466 1.858 2.466Z" fill="#0B5CAD"/></svg>