<svg width="430" height="48" viewBox="0 0 430 48" fill="none" xmlns="http://www.w3.org/2000/svg">
<rect width="430" height="48" fill="white"/>
<path d="M19.7422 28V24.4258L16.5312 19.2695H17.8203L19.5488 22.0879C19.9355 22.7207 20.2109 23.207 20.5332 24.0801H20.0879C20.4102 23.1895 20.6914 22.6914 21.0605 22.0879L22.7832 19.2695H24.0664L20.8555 24.4258V28H19.7422ZM27.0488 28.1406C25.2676 28.1406 24.0664 26.7871 24.0664 24.7656C24.0664 22.7148 25.2676 21.3672 27.0488 21.3672C28.8359 21.3672 30.043 22.7148 30.043 24.7656C30.043 26.7871 28.8359 28.1406 27.0488 28.1406ZM27.0488 27.1973C28.373 27.1973 28.9766 26.0547 28.9766 24.7656C28.9766 23.4648 28.373 22.3105 27.0488 22.3105C25.7422 22.3105 25.1387 23.459 25.1387 24.7656C25.1387 26.0547 25.7422 27.1973 27.0488 27.1973ZM33.7988 28.082C32.4746 28.082 31.5781 27.2676 31.5781 25.6094V21.4492H32.6328V25.5215C32.6328 26.5293 33.2012 27.1328 34.1152 27.1328C35.0527 27.1328 35.7617 26.4941 35.7617 25.375V21.4492H36.8223V28H35.8027V26.4121H35.9434C35.5391 27.6426 34.7598 28.082 33.7988 28.082ZM44.7207 28.1406C42.9395 28.1406 41.7383 26.7871 41.7383 24.7656C41.7383 22.7148 42.9395 21.3672 44.7207 21.3672C45.9863 21.3672 47.0176 22.0352 47.375 23.1777L46.3613 23.4648C46.168 22.791 45.582 22.3105 44.7207 22.3105C43.4141 22.3105 42.8105 23.459 42.8105 24.7656C42.8105 26.0547 43.4141 27.1973 44.7207 27.1973C45.5996 27.1973 46.1973 26.6992 46.3906 25.9902L47.3984 26.2773C47.0469 27.4434 46.0039 28.1406 44.7207 28.1406ZM50.8613 28.1523C49.6191 28.1523 48.6289 27.4258 48.6289 26.1367C48.6289 24.6367 49.9648 24.3613 51.1777 24.209C52.3438 24.0625 52.8594 24.0977 52.8594 23.6113V23.5762C52.8594 22.7617 52.3965 22.293 51.4883 22.293C50.5449 22.293 50.0352 22.7969 49.8301 23.2539L48.8164 22.9199C49.3203 21.7305 50.4453 21.3672 51.459 21.3672C52.3379 21.3672 53.9141 21.6367 53.9141 23.6816V28H52.877V27.1094H52.8066C52.584 27.5723 51.9688 28.1523 50.8613 28.1523ZM51.043 27.2207C52.209 27.2207 52.8594 26.4355 52.8594 25.6328V24.7246C52.6836 24.9297 51.5352 25.0469 51.1309 25.0996C50.3633 25.1992 49.6895 25.4453 49.6895 26.1895C49.6895 26.8691 50.2578 27.2207 51.043 27.2207ZM56.8203 24.0742V28H55.7656V21.4492H56.7793L56.7852 23.0371H56.6387C57.0371 21.8301 57.7988 21.3672 58.7891 21.3672C60.1133 21.3672 61.0098 22.1816 61.0098 23.8398V28H59.9492V23.9277C59.9492 22.9199 59.3867 22.3164 58.4727 22.3164C57.5293 22.3164 56.8203 22.9551 56.8203 24.0742ZM68.0762 28.1523C66.834 28.1523 65.8438 27.4258 65.8438 26.1367C65.8438 24.6367 67.1797 24.3613 68.3926 24.209C69.5586 24.0625 70.0742 24.0977 70.0742 23.6113V23.5762C70.0742 22.7617 69.6113 22.293 68.7031 22.293C67.7598 22.293 67.25 22.7969 67.0449 23.2539L66.0312 22.9199C66.5352 21.7305 67.6602 21.3672 68.6738 21.3672C69.5527 21.3672 71.1289 21.6367 71.1289 23.6816V28H70.0918V27.1094H70.0215C69.7988 27.5723 69.1836 28.1523 68.0762 28.1523ZM68.2578 27.2207C69.4238 27.2207 70.0742 26.4355 70.0742 25.6328V24.7246C69.8984 24.9297 68.75 25.0469 68.3457 25.0996C67.5781 25.1992 66.9043 25.4453 66.9043 26.1895C66.9043 26.8691 67.4727 27.2207 68.2578 27.2207ZM74.4512 28.0469C73.4668 28.0469 72.9805 27.4961 72.9805 26.5469V19.2695H74.0352V26.2832C74.0352 26.8867 74.1406 27.1035 74.5801 27.1035C74.8086 27.1035 74.9023 27.0859 75.002 27.0566L75.2129 27.9473C75.0254 28 74.7324 28.0469 74.4512 28.0469ZM78.5117 28.1406C77.1641 28.1406 76.2266 27.543 75.9922 26.4121L76.9941 26.1719C77.1816 26.8926 77.7148 27.2148 78.5 27.2148C79.4141 27.2148 80 26.7637 80 26.2246C80 25.7734 79.6836 25.4746 79.0391 25.3223L77.9492 25.0645C76.7598 24.7832 76.1914 24.1973 76.1914 23.2773C76.1914 22.1523 77.2227 21.3672 78.6172 21.3672C79.9648 21.3672 80.6738 22.0234 80.9727 22.9434L80.0176 23.1895C79.8359 22.7207 79.4668 22.2637 78.623 22.2637C77.8438 22.2637 77.2578 22.668 77.2578 23.2129C77.2578 23.6992 77.5918 23.9688 78.3594 24.1504L79.3496 24.3848C80.5391 24.666 81.0957 25.2578 81.0957 26.1543C81.0957 27.3027 80.0469 28.1406 78.5117 28.1406ZM85.291 28.1406C83.5098 28.1406 82.3086 26.7871 82.3086 24.7656C82.3086 22.7148 83.5098 21.3672 85.291 21.3672C87.0781 21.3672 88.2852 22.7148 88.2852 24.7656C88.2852 26.7871 87.0781 28.1406 85.291 28.1406ZM85.291 27.1973C86.6152 27.1973 87.2188 26.0547 87.2188 24.7656C87.2188 23.4648 86.6152 22.3105 85.291 22.3105C83.9844 22.3105 83.3809 23.459 83.3809 24.7656C83.3809 26.0547 83.9844 27.1973 85.291 27.1973ZM95.8613 28.1406C94.0801 28.1406 92.8789 26.7871 92.8789 24.7656C92.8789 22.7148 94.0801 21.3672 95.8613 21.3672C97.127 21.3672 98.1582 22.0352 98.5156 23.1777L97.502 23.4648C97.3086 22.791 96.7227 22.3105 95.8613 22.3105C94.5547 22.3105 93.9512 23.459 93.9512 24.7656C93.9512 26.0547 94.5547 27.1973 95.8613 27.1973C96.7402 27.1973 97.3379 26.6992 97.5312 25.9902L98.5391 26.2773C98.1875 27.4434 97.1445 28.1406 95.8613 28.1406ZM100.051 28V21.4492H101.07V22.457H101.141C101.381 21.7949 102.061 21.3555 102.84 21.3555C102.992 21.3555 103.25 21.3672 103.373 21.373V22.4336C103.309 22.4219 103.021 22.375 102.74 22.375C101.797 22.375 101.105 23.0137 101.105 23.8984V28H100.051ZM107.129 28.1406C105.23 28.1406 104.059 26.793 104.059 24.7773C104.059 22.7676 105.219 21.3672 107.006 21.3672C108.395 21.3672 109.859 22.2227 109.859 24.6426V25.082H104.773V24.1914H109.291L108.799 24.5195C108.799 23.2305 108.189 22.3047 107.006 22.3047C105.822 22.3047 105.125 23.2832 105.125 24.3496V24.9414C105.125 26.4004 105.934 27.2031 107.135 27.2031C107.908 27.2031 108.488 26.8633 108.734 26.1953L109.754 26.4766C109.449 27.4668 108.471 28.1406 107.129 28.1406ZM113.322 28.1523C112.08 28.1523 111.09 27.4258 111.09 26.1367C111.09 24.6367 112.426 24.3613 113.639 24.209C114.805 24.0625 115.32 24.0977 115.32 23.6113V23.5762C115.32 22.7617 114.857 22.293 113.949 22.293C113.006 22.293 112.496 22.7969 112.291 23.2539L111.277 22.9199C111.781 21.7305 112.906 21.3672 113.92 21.3672C114.799 21.3672 116.375 21.6367 116.375 23.6816V28H115.338V27.1094H115.268C115.045 27.5723 114.43 28.1523 113.322 28.1523ZM113.504 27.2207C114.67 27.2207 115.32 26.4355 115.32 25.6328V24.7246C115.145 24.9297 113.996 25.0469 113.592 25.0996C112.824 25.1992 112.15 25.4453 112.15 26.1895C112.15 26.8691 112.719 27.2207 113.504 27.2207ZM120.805 21.4492V22.3516H117.418V21.4492H120.805ZM118.402 19.8906H119.457V26.3008C119.457 26.8867 119.674 27.1445 120.23 27.1445C120.365 27.1445 120.594 27.1094 120.77 27.0742L120.986 27.9648C120.77 28.041 120.471 28.082 120.201 28.082C119.07 28.082 118.402 27.4551 118.402 26.3828V19.8906ZM124.789 28.1406C122.891 28.1406 121.719 26.793 121.719 24.7773C121.719 22.7676 122.879 21.3672 124.666 21.3672C126.055 21.3672 127.52 22.2227 127.52 24.6426V25.082H122.434V24.1914H126.951L126.459 24.5195C126.459 23.2305 125.85 22.3047 124.666 22.3047C123.482 22.3047 122.785 23.2832 122.785 24.3496V24.9414C122.785 26.4004 123.594 27.2031 124.795 27.2031C125.568 27.2031 126.148 26.8633 126.395 26.1953L127.414 26.4766C127.109 27.4668 126.131 28.1406 124.789 28.1406ZM134.24 28.1523C132.998 28.1523 132.008 27.4258 132.008 26.1367C132.008 24.6367 133.344 24.3613 134.557 24.209C135.723 24.0625 136.238 24.0977 136.238 23.6113V23.5762C136.238 22.7617 135.775 22.293 134.867 22.293C133.924 22.293 133.414 22.7969 133.209 23.2539L132.195 22.9199C132.699 21.7305 133.824 21.3672 134.838 21.3672C135.717 21.3672 137.293 21.6367 137.293 23.6816V28H136.256V27.1094H136.186C135.963 27.5723 135.348 28.1523 134.24 28.1523ZM134.422 27.2207C135.588 27.2207 136.238 26.4355 136.238 25.6328V24.7246C136.062 24.9297 134.914 25.0469 134.51 25.0996C133.742 25.1992 133.068 25.4453 133.068 26.1895C133.068 26.8691 133.637 27.2207 134.422 27.2207ZM142.52 30.4492V21.4492H143.539V22.498H143.656C143.873 22.1523 144.277 21.3672 145.555 21.3672C147.189 21.3672 148.332 22.668 148.332 24.7422C148.332 26.8281 147.195 28.1406 145.561 28.1406C144.312 28.1406 143.873 27.3496 143.656 26.9863H143.574V30.4492H142.52ZM145.402 27.1973C146.627 27.1973 147.26 26.1074 147.26 24.7305C147.26 23.3711 146.645 22.3105 145.402 22.3105C144.195 22.3105 143.562 23.2832 143.562 24.7305C143.562 26.1895 144.213 27.1973 145.402 27.1973ZM149.867 28V21.4492H150.887V22.457H150.957C151.197 21.7949 151.877 21.3555 152.656 21.3555C152.809 21.3555 153.066 21.3672 153.189 21.373V22.4336C153.125 22.4219 152.838 22.375 152.557 22.375C151.613 22.375 150.922 23.0137 150.922 23.8984V28H149.867ZM156.857 28.1406C155.076 28.1406 153.875 26.7871 153.875 24.7656C153.875 22.7148 155.076 21.3672 156.857 21.3672C158.645 21.3672 159.852 22.7148 159.852 24.7656C159.852 26.7871 158.645 28.1406 156.857 28.1406ZM156.857 27.1973C158.182 27.1973 158.785 26.0547 158.785 24.7656C158.785 23.4648 158.182 22.3105 156.857 22.3105C155.551 22.3105 154.947 23.459 154.947 24.7656C154.947 26.0547 155.551 27.1973 156.857 27.1973ZM161.381 21.4492H162.441V28.4688C162.447 29.7168 161.791 30.4492 160.52 30.4492H160.309V29.4766H160.502C161.111 29.4766 161.381 29.1191 161.381 28.4688V21.4492ZM161.914 20.377C161.516 20.377 161.182 20.0664 161.182 19.6797C161.182 19.293 161.516 18.9824 161.914 18.9824C162.318 18.9824 162.652 19.293 162.652 19.6797C162.652 20.0664 162.318 20.377 161.914 20.377ZM167.047 28.1406C165.148 28.1406 163.977 26.793 163.977 24.7773C163.977 22.7676 165.137 21.3672 166.924 21.3672C168.312 21.3672 169.777 22.2227 169.777 24.6426V25.082H164.691V24.1914H169.209L168.717 24.5195C168.717 23.2305 168.107 22.3047 166.924 22.3047C165.74 22.3047 165.043 23.2832 165.043 24.3496V24.9414C165.043 26.4004 165.852 27.2031 167.053 27.2031C167.826 27.2031 168.406 26.8633 168.652 26.1953L169.672 26.4766C169.367 27.4668 168.389 28.1406 167.047 28.1406ZM173.955 28.1406C172.174 28.1406 170.973 26.7871 170.973 24.7656C170.973 22.7148 172.174 21.3672 173.955 21.3672C175.221 21.3672 176.252 22.0352 176.609 23.1777L175.596 23.4648C175.402 22.791 174.816 22.3105 173.955 22.3105C172.648 22.3105 172.045 23.459 172.045 24.7656C172.045 26.0547 172.648 27.1973 173.955 27.1973C174.834 27.1973 175.432 26.6992 175.625 25.9902L176.633 26.2773C176.281 27.4434 175.238 28.1406 173.955 28.1406ZM180.723 21.4492V22.3516H177.336V21.4492H180.723ZM178.32 19.8906H179.375V26.3008C179.375 26.8867 179.592 27.1445 180.148 27.1445C180.283 27.1445 180.512 27.1094 180.688 27.0742L180.904 27.9648C180.688 28.041 180.389 28.082 180.119 28.082C178.988 28.082 178.32 27.4551 178.32 26.3828V19.8906ZM188.492 21.4492V22.3516H184.637V21.4492H188.492ZM185.926 28V20.5762C185.926 19.4395 186.834 18.8594 187.789 18.8594C188.287 18.8594 188.615 18.9648 188.773 19.0352L188.48 19.9375C188.369 19.9023 188.205 19.8379 187.912 19.8379C187.262 19.8379 186.98 20.1777 186.98 20.8105V28H185.926ZM189.887 28V21.4492H190.906V22.457H190.977C191.217 21.7949 191.896 21.3555 192.676 21.3555C192.828 21.3555 193.086 21.3672 193.209 21.373V22.4336C193.145 22.4219 192.857 22.375 192.576 22.375C191.633 22.375 190.941 23.0137 190.941 23.8984V28H189.887ZM196.877 28.1406C195.096 28.1406 193.895 26.7871 193.895 24.7656C193.895 22.7148 195.096 21.3672 196.877 21.3672C198.664 21.3672 199.871 22.7148 199.871 24.7656C199.871 26.7871 198.664 28.1406 196.877 28.1406ZM196.877 27.1973C198.201 27.1973 198.805 26.0547 198.805 24.7656C198.805 23.4648 198.201 22.3105 196.877 22.3105C195.57 22.3105 194.967 23.459 194.967 24.7656C194.967 26.0547 195.57 27.1973 196.877 27.1973ZM201.406 28V21.4492H202.432L202.438 22.9141H202.355C202.619 21.8535 203.422 21.332 204.271 21.332C205.221 21.332 205.824 21.9766 206 22.9258H205.859C206.094 21.9473 206.961 21.332 208.004 21.332C209.141 21.332 210.066 22.0645 210.066 23.582V28H209.006V23.6113C209.006 22.668 208.391 22.293 207.688 22.293C206.803 22.293 206.264 22.8965 206.264 23.7227V28H205.209V23.5059C205.209 22.7793 204.664 22.293 203.926 22.293C203.158 22.293 202.461 22.832 202.461 23.875V28H201.406ZM217.871 21.4492V22.3516H214.484V21.4492H217.871ZM215.469 19.8906H216.523V26.3008C216.523 26.8867 216.74 27.1445 217.297 27.1445C217.432 27.1445 217.66 27.1094 217.836 27.0742L218.053 27.9648C217.836 28.041 217.537 28.082 217.268 28.082C216.137 28.082 215.469 27.4551 215.469 26.3828V19.8906ZM220.273 24.0742V28H219.219V19.2695H220.273V23.0371H220.092C220.49 21.8301 221.252 21.3672 222.242 21.3672C223.566 21.3672 224.463 22.1816 224.463 23.8398V28H223.402V23.9277C223.402 22.9199 222.84 22.3164 221.926 22.3164C220.982 22.3164 220.273 22.9551 220.273 24.0742ZM229.074 28.1406C227.176 28.1406 226.004 26.793 226.004 24.7773C226.004 22.7676 227.164 21.3672 228.951 21.3672C230.34 21.3672 231.805 22.2227 231.805 24.6426V25.082H226.719V24.1914H231.236L230.744 24.5195C230.744 23.2305 230.135 22.3047 228.951 22.3047C227.768 22.3047 227.07 23.2832 227.07 24.3496V24.9414C227.07 26.4004 227.879 27.2031 229.08 27.2031C229.854 27.2031 230.434 26.8633 230.68 26.1953L231.699 26.4766C231.395 27.4668 230.416 28.1406 229.074 28.1406ZM239.357 28.1406C237.576 28.1406 236.375 26.7871 236.375 24.7656C236.375 22.7148 237.576 21.3672 239.357 21.3672C240.623 21.3672 241.654 22.0352 242.012 23.1777L240.998 23.4648C240.805 22.791 240.219 22.3105 239.357 22.3105C238.051 22.3105 237.447 23.459 237.447 24.7656C237.447 26.0547 238.051 27.1973 239.357 27.1973C240.236 27.1973 240.834 26.6992 241.027 25.9902L242.035 26.2773C241.684 27.4434 240.641 28.1406 239.357 28.1406ZM246.213 28.1406C244.432 28.1406 243.23 26.7871 243.23 24.7656C243.23 22.7148 244.432 21.3672 246.213 21.3672C248 21.3672 249.207 22.7148 249.207 24.7656C249.207 26.7871 248 28.1406 246.213 28.1406ZM246.213 27.1973C247.537 27.1973 248.141 26.0547 248.141 24.7656C248.141 23.4648 247.537 22.3105 246.213 22.3105C244.906 22.3105 244.303 23.459 244.303 24.7656C244.303 26.0547 244.906 27.1973 246.213 27.1973ZM250.742 28V21.4492H251.768L251.773 22.9141H251.691C251.955 21.8535 252.758 21.332 253.607 21.332C254.557 21.332 255.16 21.9766 255.336 22.9258H255.195C255.43 21.9473 256.297 21.332 257.34 21.332C258.477 21.332 259.402 22.0645 259.402 23.582V28H258.342V23.6113C258.342 22.668 257.727 22.293 257.023 22.293C256.139 22.293 255.6 22.8965 255.6 23.7227V28H254.545V23.5059C254.545 22.7793 254 22.293 253.262 22.293C252.494 22.293 251.797 22.832 251.797 23.875V28H250.742ZM261.254 28V21.4492H262.279L262.285 22.9141H262.203C262.467 21.8535 263.27 21.332 264.119 21.332C265.068 21.332 265.672 21.9766 265.848 22.9258H265.707C265.941 21.9473 266.809 21.332 267.852 21.332C268.988 21.332 269.914 22.0645 269.914 23.582V28H268.854V23.6113C268.854 22.668 268.238 22.293 267.535 22.293C266.65 22.293 266.111 22.8965 266.111 23.7227V28H265.057V23.5059C265.057 22.7793 264.512 22.293 263.773 22.293C263.006 22.293 262.309 22.832 262.309 23.875V28H261.254ZM273.6 28.1523C272.357 28.1523 271.367 27.4258 271.367 26.1367C271.367 24.6367 272.703 24.3613 273.916 24.209C275.082 24.0625 275.598 24.0977 275.598 23.6113V23.5762C275.598 22.7617 275.135 22.293 274.227 22.293C273.283 22.293 272.773 22.7969 272.568 23.2539L271.555 22.9199C272.059 21.7305 273.184 21.3672 274.197 21.3672C275.076 21.3672 276.652 21.6367 276.652 23.6816V28H275.615V27.1094H275.545C275.322 27.5723 274.707 28.1523 273.6 28.1523ZM273.781 27.2207C274.947 27.2207 275.598 26.4355 275.598 25.6328V24.7246C275.422 24.9297 274.273 25.0469 273.869 25.0996C273.102 25.1992 272.428 25.4453 272.428 26.1895C272.428 26.8691 272.996 27.2207 273.781 27.2207ZM279.559 24.0742V28H278.504V21.4492H279.518L279.523 23.0371H279.377C279.775 21.8301 280.537 21.3672 281.527 21.3672C282.852 21.3672 283.748 22.1816 283.748 23.8398V28H282.688V23.9277C282.688 22.9199 282.125 22.3164 281.211 22.3164C280.268 22.3164 279.559 22.9551 279.559 24.0742ZM288.061 28.1406C286.426 28.1406 285.289 26.8281 285.289 24.7422C285.289 22.668 286.432 21.3672 288.066 21.3672C289.344 21.3672 289.748 22.1523 289.965 22.498H290.047V19.2695H291.102V28H290.082V26.9863H289.965C289.748 27.3496 289.309 28.1406 288.061 28.1406ZM288.219 27.1973C289.408 27.1973 290.059 26.1895 290.059 24.7305C290.059 23.2832 289.426 22.3105 288.219 22.3105C286.977 22.3105 286.361 23.3711 286.361 24.7305C286.361 26.1074 286.994 27.1973 288.219 27.1973ZM297.799 28.0469C296.814 28.0469 296.328 27.4961 296.328 26.5469V19.2695H297.383V26.2832C297.383 26.8867 297.488 27.1035 297.928 27.1035C298.156 27.1035 298.25 27.0859 298.35 27.0566L298.561 27.9473C298.373 28 298.08 28.0469 297.799 28.0469ZM299.633 28V21.4492H300.688V28H299.633ZM300.166 20.377C299.768 20.377 299.434 20.0664 299.434 19.6797C299.434 19.293 299.768 18.9824 300.166 18.9824C300.57 18.9824 300.904 19.293 300.904 19.6797C300.904 20.0664 300.57 20.377 300.166 20.377ZM303.594 24.0742V28H302.539V21.4492H303.553L303.559 23.0371H303.412C303.811 21.8301 304.572 21.3672 305.562 21.3672C306.887 21.3672 307.783 22.1816 307.783 23.8398V28H306.723V23.9277C306.723 22.9199 306.16 22.3164 305.246 22.3164C304.303 22.3164 303.594 22.9551 303.594 24.0742ZM312.395 28.1406C310.496 28.1406 309.324 26.793 309.324 24.7773C309.324 22.7676 310.484 21.3672 312.271 21.3672C313.66 21.3672 315.125 22.2227 315.125 24.6426V25.082H310.039V24.1914H314.557L314.064 24.5195C314.064 23.2305 313.455 22.3047 312.271 22.3047C311.088 22.3047 310.391 23.2832 310.391 24.3496V24.9414C310.391 26.4004 311.199 27.2031 312.4 27.2031C313.174 27.2031 313.754 26.8633 314 26.1953L315.02 26.4766C314.715 27.4668 313.736 28.1406 312.395 28.1406ZM317.434 28.0762C317 28.0762 316.648 27.7188 316.648 27.2852C316.648 26.8516 317.006 26.5 317.434 26.5C317.867 26.5 318.225 26.8516 318.225 27.2852C318.225 27.7246 317.867 28.0762 317.434 28.0762Z" fill="#28272D"/>
<path d="M326.393 28.1523C324.5 28.1523 323.322 27.1797 323.223 25.7148H324.365C324.453 26.7051 325.367 27.1562 326.393 27.1562C327.576 27.1562 328.479 26.5352 328.479 25.6035C328.479 24.7598 327.682 24.4492 326.75 24.1855L325.695 23.8867C324.289 23.4883 323.469 22.7676 323.469 21.6074C323.469 20.1309 324.781 19.1523 326.469 19.1523C328.191 19.1523 329.393 20.1543 329.445 21.4727H328.355C328.256 20.623 327.471 20.1367 326.434 20.1367C325.303 20.1367 324.553 20.7344 324.553 21.5547C324.553 22.4688 325.578 22.791 326.217 22.9668L327.09 23.207C328.027 23.4648 329.562 23.9922 329.562 25.6211C329.562 27.0508 328.408 28.1523 326.393 28.1523ZM332.223 24.0742V28H331.168V19.2695H332.223V23.0371H332.041C332.439 21.8301 333.201 21.3672 334.191 21.3672C335.516 21.3672 336.412 22.1816 336.412 23.8398V28H335.352V23.9277C335.352 22.9199 334.789 22.3164 333.875 22.3164C332.932 22.3164 332.223 22.9551 332.223 24.0742ZM340.936 28.1406C339.154 28.1406 337.953 26.7871 337.953 24.7656C337.953 22.7148 339.154 21.3672 340.936 21.3672C342.723 21.3672 343.93 22.7148 343.93 24.7656C343.93 26.7871 342.723 28.1406 340.936 28.1406ZM340.936 27.1973C342.26 27.1973 342.863 26.0547 342.863 24.7656C342.863 23.4648 342.26 22.3105 340.936 22.3105C339.629 22.3105 339.025 23.459 339.025 24.7656C339.025 26.0547 339.629 27.1973 340.936 27.1973ZM346.713 28L344.727 21.4492H345.846L346.643 24.3086C346.859 25.0879 347.117 26.0664 347.363 27.3145H347.182C347.416 26.1191 347.662 25.1406 347.891 24.3086L348.676 21.4492H349.801L350.574 24.3086C350.791 25.1113 351.037 26.0898 351.271 27.3145H351.084C351.33 26.1016 351.582 25.1289 351.811 24.3086L352.607 21.4492H353.727L351.74 28H350.691L349.842 25.0352C349.584 24.1387 349.35 23.1719 349.109 22.1523H349.344C349.109 23.1602 348.863 24.1562 348.611 25.0352L347.762 28H346.713ZM361.104 28.1406C359.322 28.1406 358.121 26.7871 358.121 24.7656C358.121 22.7148 359.322 21.3672 361.104 21.3672C362.369 21.3672 363.4 22.0352 363.758 23.1777L362.744 23.4648C362.551 22.791 361.965 22.3105 361.104 22.3105C359.797 22.3105 359.193 23.459 359.193 24.7656C359.193 26.0547 359.797 27.1973 361.104 27.1973C361.982 27.1973 362.58 26.6992 362.773 25.9902L363.781 26.2773C363.43 27.4434 362.387 28.1406 361.104 28.1406ZM367.959 28.1406C366.178 28.1406 364.977 26.7871 364.977 24.7656C364.977 22.7148 366.178 21.3672 367.959 21.3672C369.746 21.3672 370.953 22.7148 370.953 24.7656C370.953 26.7871 369.746 28.1406 367.959 28.1406ZM367.959 27.1973C369.283 27.1973 369.887 26.0547 369.887 24.7656C369.887 23.4648 369.283 22.3105 367.959 22.3105C366.652 22.3105 366.049 23.459 366.049 24.7656C366.049 26.0547 366.652 27.1973 367.959 27.1973ZM372.488 28V21.4492H373.514L373.52 22.9141H373.438C373.701 21.8535 374.504 21.332 375.354 21.332C376.303 21.332 376.906 21.9766 377.082 22.9258H376.941C377.176 21.9473 378.043 21.332 379.086 21.332C380.223 21.332 381.148 22.0645 381.148 23.582V28H380.088V23.6113C380.088 22.668 379.473 22.293 378.77 22.293C377.885 22.293 377.346 22.8965 377.346 23.7227V28H376.291V23.5059C376.291 22.7793 375.746 22.293 375.008 22.293C374.24 22.293 373.543 22.832 373.543 23.875V28H372.488ZM383 28V21.4492H384.025L384.031 22.9141H383.949C384.213 21.8535 385.016 21.332 385.865 21.332C386.814 21.332 387.418 21.9766 387.594 22.9258H387.453C387.688 21.9473 388.555 21.332 389.598 21.332C390.734 21.332 391.66 22.0645 391.66 23.582V28H390.6V23.6113C390.6 22.668 389.984 22.293 389.281 22.293C388.396 22.293 387.857 22.8965 387.857 23.7227V28H386.803V23.5059C386.803 22.7793 386.258 22.293 385.52 22.293C384.752 22.293 384.055 22.832 384.055 23.875V28H383ZM395.346 28.1523C394.104 28.1523 393.113 27.4258 393.113 26.1367C393.113 24.6367 394.449 24.3613 395.662 24.209C396.828 24.0625 397.344 24.0977 397.344 23.6113V23.5762C397.344 22.7617 396.881 22.293 395.973 22.293C395.029 22.293 394.52 22.7969 394.314 23.2539L393.301 22.9199C393.805 21.7305 394.93 21.3672 395.943 21.3672C396.822 21.3672 398.398 21.6367 398.398 23.6816V28H397.361V27.1094H397.291C397.068 27.5723 396.453 28.1523 395.346 28.1523ZM395.527 27.2207C396.693 27.2207 397.344 26.4355 397.344 25.6328V24.7246C397.168 24.9297 396.02 25.0469 395.615 25.0996C394.848 25.1992 394.174 25.4453 394.174 26.1895C394.174 26.8691 394.742 27.2207 395.527 27.2207ZM401.305 24.0742V28H400.25V21.4492H401.264L401.27 23.0371H401.123C401.521 21.8301 402.283 21.3672 403.273 21.3672C404.598 21.3672 405.494 22.1816 405.494 23.8398V28H404.434V23.9277C404.434 22.9199 403.871 22.3164 402.957 22.3164C402.014 22.3164 401.305 22.9551 401.305 24.0742ZM409.807 28.1406C408.172 28.1406 407.035 26.8281 407.035 24.7422C407.035 22.668 408.178 21.3672 409.812 21.3672C411.09 21.3672 411.494 22.1523 411.711 22.498H411.793V19.2695H412.848V28H411.828V26.9863H411.711C411.494 27.3496 411.055 28.1406 409.807 28.1406ZM409.965 27.1973C411.154 27.1973 411.805 26.1895 411.805 24.7305C411.805 23.2832 411.172 22.3105 409.965 22.3105C408.723 22.3105 408.107 23.3711 408.107 24.7305C408.107 26.1074 408.74 27.1973 409.965 27.1973Z" fill="#0B5CAD"/>
</svg>
