<svg width="518" height="311" fill="none" xmlns="http://www.w3.org/2000/svg"><path fill="#fff" d="M0 0h518v311H0z"/><path d="M28.102 284v-4.17l-3.747-6.016h1.504l2.017 3.289c.451.738.772 1.305 1.148 2.324h-.52c.377-1.039.705-1.62 1.136-2.324l2.01-3.289h1.497L29.4 279.83V284h-1.298Zm8.524.164c-2.078 0-3.48-1.579-3.48-3.937 0-2.393 1.402-3.965 3.48-3.965 2.085 0 3.493 1.572 3.493 3.965 0 2.358-1.408 3.937-3.493 3.937Zm0-1.101c1.545 0 2.249-1.333 2.249-2.836 0-1.518-.704-2.865-2.249-2.865-1.524 0-2.228 1.34-2.228 2.865 0 1.503.704 2.836 2.228 2.836Zm7.875 1.033c-1.545 0-2.59-.95-2.59-2.885v-4.854h1.23v4.751c0 1.176.663 1.88 1.73 1.88 1.093 0 1.92-.745 1.92-2.05v-4.581h1.237V284h-1.19v-1.853h.165c-.472 1.436-1.38 1.949-2.502 1.949Zm12.742.068c-2.078 0-3.48-1.579-3.48-3.937 0-2.393 1.402-3.965 3.48-3.965 1.477 0 2.68.779 3.097 2.112l-1.183.335c-.225-.786-.909-1.347-1.914-1.347-1.524 0-2.228 1.34-2.228 2.865 0 1.503.704 2.836 2.228 2.836 1.026 0 1.723-.581 1.948-1.408l1.176.335c-.41 1.361-1.627 2.174-3.124 2.174Zm7.164.014c-1.449 0-2.604-.848-2.604-2.352 0-1.75 1.558-2.071 2.973-2.249 1.36-.171 1.962-.13 1.962-.697v-.041c0-.95-.54-1.497-1.6-1.497-1.1 0-1.695.588-1.934 1.121l-1.182-.39c.587-1.387 1.9-1.811 3.083-1.811 1.025 0 2.864.314 2.864 2.7V284h-1.21v-1.039h-.082c-.26.54-.978 1.217-2.27 1.217Zm.212-1.087c1.36 0 2.12-.916 2.12-1.853v-1.059c-.206.239-1.546.376-2.017.437-.896.116-1.682.404-1.682 1.272 0 .793.663 1.203 1.58 1.203Zm6.74-3.671V284h-1.23v-7.643h1.182l.007 1.853h-.17c.464-1.408 1.353-1.948 2.508-1.948 1.545 0 2.591.95 2.591 2.884V284H75.01v-4.751c0-1.176-.657-1.88-1.723-1.88-1.1 0-1.928.745-1.928 2.051Zm13.132 4.758c-1.449 0-2.604-.848-2.604-2.352 0-1.75 1.558-2.071 2.973-2.249 1.36-.171 1.962-.13 1.962-.697v-.041c0-.95-.54-1.497-1.6-1.497-1.1 0-1.695.588-1.934 1.121l-1.182-.39c.587-1.387 1.9-1.811 3.083-1.811 1.025 0 2.864.314 2.864 2.7V284h-1.21v-1.039h-.082c-.26.54-.978 1.217-2.27 1.217Zm.212-1.087c1.36 0 2.12-.916 2.12-1.853v-1.059c-.206.239-1.546.376-2.017.437-.896.116-1.682.404-1.682 1.272 0 .793.663 1.203 1.58 1.203Zm7.226.964c-1.149 0-1.716-.643-1.716-1.75v-8.491h1.23v8.183c0 .704.123.957.636.957.267 0 .376-.02.492-.055l.246 1.039c-.218.062-.56.117-.888.117Zm4.737.109c-1.572 0-2.666-.697-2.94-2.017l1.17-.28c.218.841.84 1.217 1.756 1.217 1.067 0 1.75-.526 1.75-1.155 0-.527-.369-.875-1.12-1.053l-1.272-.301c-1.388-.328-2.051-1.012-2.051-2.085 0-1.312 1.203-2.228 2.83-2.228 1.572 0 2.4.765 2.748 1.839l-1.114.287c-.212-.547-.643-1.08-1.627-1.08-.91 0-1.593.471-1.593 1.107 0 .567.39.882 1.285 1.094l1.156.273c1.387.328 2.037 1.019 2.037 2.065 0 1.34-1.224 2.317-3.015 2.317Zm7.909 0c-2.078 0-3.479-1.579-3.479-3.937 0-2.393 1.401-3.965 3.479-3.965 2.085 0 3.493 1.572 3.493 3.965 0 2.358-1.408 3.937-3.493 3.937Zm0-1.101c1.545 0 2.249-1.333 2.249-2.836 0-1.518-.704-2.865-2.249-2.865-1.524 0-2.228 1.34-2.228 2.865 0 1.503.704 2.836 2.228 2.836Zm12.332 1.101c-2.078 0-3.479-1.579-3.479-3.937 0-2.393 1.401-3.965 3.479-3.965 1.477 0 2.68.779 3.097 2.112l-1.183.335c-.225-.786-.909-1.347-1.914-1.347-1.524 0-2.228 1.34-2.228 2.865 0 1.503.704 2.836 2.228 2.836 1.026 0 1.723-.581 1.948-1.408l1.176.335c-.41 1.361-1.627 2.174-3.124 2.174Zm4.888-.164v-7.643h1.189v1.176h.082c.281-.772 1.074-1.285 1.983-1.285.178 0 .478.014.622.021v1.237a4.619 4.619 0 0 0-.738-.068c-1.101 0-1.908.745-1.908 1.777V284h-1.23Zm8.258.164c-2.215 0-3.582-1.572-3.582-3.924 0-2.344 1.353-3.978 3.438-3.978 1.62 0 3.329.998 3.329 3.821v.513h-5.933v-1.039h5.27l-.574.382c0-1.503-.711-2.584-2.092-2.584-1.381 0-2.194 1.142-2.194 2.386v.691c0 1.702.943 2.638 2.345 2.638.902 0 1.579-.396 1.866-1.175l1.189.328c-.355 1.155-1.497 1.941-3.062 1.941Zm7.225.014c-1.449 0-2.604-.848-2.604-2.352 0-1.75 1.558-2.071 2.973-2.249 1.361-.171 1.962-.13 1.962-.697v-.041c0-.95-.54-1.497-1.599-1.497-1.101 0-1.696.588-1.935 1.121l-1.182-.39c.587-1.387 1.9-1.811 3.083-1.811 1.025 0 2.864.314 2.864 2.7V284h-1.21v-1.039h-.082c-.26.54-.978 1.217-2.27 1.217Zm.212-1.087c1.361 0 2.119-.916 2.119-1.853v-1.059c-.205.239-1.545.376-2.016.437-.896.116-1.682.404-1.682 1.272 0 .793.663 1.203 1.579 1.203Zm8.518-6.734v1.053h-3.951v-1.053h3.951Zm-2.803-1.818h1.231v7.479c0 .683.252.984.902.984.157 0 .424-.041.629-.082l.253 1.039a2.96 2.96 0 0 1-.916.137c-1.32 0-2.099-.732-2.099-1.983v-7.574Zm7.451 9.625c-2.215 0-3.582-1.572-3.582-3.924 0-2.344 1.354-3.978 3.439-3.978 1.62 0 3.329.998 3.329 3.821v.513h-5.934v-1.039h5.271l-.575.382c0-1.503-.71-2.584-2.091-2.584-1.381 0-2.195 1.142-2.195 2.386v.691c0 1.702.944 2.638 2.345 2.638.902 0 1.579-.396 1.866-1.175l1.19.328c-.356 1.155-1.497 1.941-3.063 1.941Zm11.027.014c-1.45 0-2.605-.848-2.605-2.352 0-1.75 1.559-2.071 2.974-2.249 1.36-.171 1.962-.13 1.962-.697v-.041c0-.95-.54-1.497-1.6-1.497-1.101 0-1.695.588-1.935 1.121l-1.182-.39c.588-1.387 1.9-1.811 3.083-1.811 1.025 0 2.864.314 2.864 2.7V284h-1.21v-1.039h-.082c-.26.54-.977 1.217-2.269 1.217Zm.212-1.087c1.36 0 2.119-.916 2.119-1.853v-1.059c-.205.239-1.545.376-2.017.437-.895.116-1.682.404-1.682 1.272 0 .793.664 1.203 1.58 1.203Zm9.447 3.766v-10.5h1.189v1.224h.137c.253-.403.725-1.319 2.215-1.319 1.907 0 3.24 1.517 3.24 3.937 0 2.434-1.326 3.965-3.233 3.965-1.456 0-1.969-.923-2.222-1.347h-.096v4.04h-1.23Zm3.363-3.794c1.429 0 2.167-1.271 2.167-2.877 0-1.586-.718-2.824-2.167-2.824-1.408 0-2.146 1.135-2.146 2.824 0 1.702.758 2.877 2.146 2.877Zm5.209.937v-7.643h1.19v1.176h.082c.28-.772 1.073-1.285 1.982-1.285.178 0 .478.014.622.021v1.237a4.619 4.619 0 0 0-.738-.068c-1.101 0-1.907.745-1.907 1.777V284h-1.231Zm8.155.164c-2.078 0-3.479-1.579-3.479-3.937 0-2.393 1.401-3.965 3.479-3.965 2.085 0 3.493 1.572 3.493 3.965 0 2.358-1.408 3.937-3.493 3.937Zm0-1.101c1.545 0 2.249-1.333 2.249-2.836 0-1.518-.704-2.865-2.249-2.865-1.524 0-2.228 1.34-2.228 2.865 0 1.503.704 2.836 2.228 2.836Zm5.278-6.706h1.237v8.19c.007 1.456-.759 2.31-2.242 2.31h-.246v-1.134h.225c.711 0 1.026-.417 1.026-1.176v-8.19Zm.622-1.251c-.465 0-.855-.362-.855-.813 0-.451.39-.814.855-.814.471 0 .861.363.861.814 0 .451-.39.813-.861.813Zm5.988 9.058c-2.215 0-3.582-1.572-3.582-3.924 0-2.344 1.354-3.978 3.438-3.978 1.621 0 3.33.998 3.33 3.821v.513h-5.934v-1.039h5.27l-.574.382c0-1.503-.711-2.584-2.092-2.584-1.38 0-2.194 1.142-2.194 2.386v.691c0 1.702.943 2.638 2.345 2.638.902 0 1.579-.396 1.866-1.175l1.19.328c-.356 1.155-1.498 1.941-3.063 1.941Zm8.06 0c-2.079 0-3.48-1.579-3.48-3.937 0-2.393 1.401-3.965 3.48-3.965 1.476 0 2.679.779 3.096 2.112l-1.182.335c-.226-.786-.91-1.347-1.914-1.347-1.525 0-2.229 1.34-2.229 2.865 0 1.503.704 2.836 2.229 2.836 1.025 0 1.722-.581 1.948-1.408l1.176.335c-.411 1.361-1.627 2.174-3.124 2.174Zm7.895-7.807v1.053h-3.951v-1.053h3.951Zm-2.803-1.818h1.231v7.479c0 .683.253.984.902.984.157 0 .424-.041.629-.082l.253 1.039a2.96 2.96 0 0 1-.916.137c-1.319 0-2.099-.732-2.099-1.983v-7.574Zm11.868 1.818v1.053h-4.498v-1.053h4.498ZM221.982 284v-8.661c0-1.326 1.06-2.003 2.174-2.003.581 0 .964.123 1.149.205l-.342 1.053c-.13-.041-.321-.116-.663-.116-.759 0-1.087.396-1.087 1.134V284h-1.231Zm4.622 0v-7.643h1.189v1.176h.082c.28-.772 1.073-1.285 1.982-1.285.178 0 .479.014.622.021v1.237a4.619 4.619 0 0 0-.738-.068c-1.1 0-1.907.745-1.907 1.777V284h-1.23Zm8.155.164c-2.078 0-3.48-1.579-3.48-3.937 0-2.393 1.402-3.965 3.48-3.965 2.085 0 3.493 1.572 3.493 3.965 0 2.358-1.408 3.937-3.493 3.937Zm0-1.101c1.545 0 2.249-1.333 2.249-2.836 0-1.518-.704-2.865-2.249-2.865-1.525 0-2.229 1.34-2.229 2.865 0 1.503.704 2.836 2.229 2.836Zm5.284.937v-7.643h1.196l.007 1.709h-.096c.308-1.237 1.245-1.845 2.236-1.845 1.107 0 1.811.752 2.016 1.859h-.164c.274-1.142 1.285-1.859 2.502-1.859 1.326 0 2.406.854 2.406 2.625V284h-1.237v-5.12c0-1.101-.718-1.538-1.538-1.538-1.032 0-1.661.704-1.661 1.668V284h-1.231v-5.243c0-.848-.635-1.415-1.497-1.415-.895 0-1.709.629-1.709 1.846V284h-1.23Zm19.209-7.643v1.053h-3.951v-1.053h3.951Zm-2.803-1.818h1.231v7.479c0 .683.253.984.902.984.157 0 .424-.041.629-.082l.253 1.039a2.96 2.96 0 0 1-.916.137c-1.319 0-2.099-.732-2.099-1.983v-7.574Zm5.606 4.881V284h-1.231v-10.186h1.231v4.396h-.212c.465-1.408 1.353-1.948 2.509-1.948 1.544 0 2.59.95 2.59 2.884V284h-1.237v-4.751c0-1.176-.656-1.88-1.723-1.88-1.1 0-1.927.745-1.927 2.051Zm10.267 4.744c-2.215 0-3.582-1.572-3.582-3.924 0-2.344 1.354-3.978 3.439-3.978 1.62 0 3.329.998 3.329 3.821v.513h-5.934v-1.039h5.271l-.574.382c0-1.503-.711-2.584-2.092-2.584-1.381 0-2.195 1.142-2.195 2.386v.691c0 1.702.944 2.638 2.345 2.638.902 0 1.579-.396 1.866-1.175l1.19.328c-.356 1.155-1.497 1.941-3.063 1.941Zm11.997 0c-2.078 0-3.479-1.579-3.479-3.937 0-2.393 1.401-3.965 3.479-3.965 1.477 0 2.68.779 3.097 2.112l-1.183.335c-.225-.786-.909-1.347-1.914-1.347-1.524 0-2.228 1.34-2.228 2.865 0 1.503.704 2.836 2.228 2.836 1.026 0 1.723-.581 1.949-1.408l1.175.335c-.41 1.361-1.627 2.174-3.124 2.174Zm7.998 0c-2.078 0-3.479-1.579-3.479-3.937 0-2.393 1.401-3.965 3.479-3.965 2.085 0 3.494 1.572 3.494 3.965 0 2.358-1.409 3.937-3.494 3.937Zm0-1.101c1.545 0 2.249-1.333 2.249-2.836 0-1.518-.704-2.865-2.249-2.865-1.524 0-2.228 1.34-2.228 2.865 0 1.503.704 2.836 2.228 2.836Zm5.285.937v-7.643h1.196l.007 1.709h-.096c.308-1.237 1.244-1.845 2.235-1.845 1.108 0 1.812.752 2.017 1.859h-.164c.273-1.142 1.285-1.859 2.502-1.859 1.326 0 2.406.854 2.406 2.625V284h-1.237v-5.12c0-1.101-.718-1.538-1.538-1.538-1.033 0-1.661.704-1.661 1.668V284h-1.231v-5.243c0-.848-.636-1.415-1.497-1.415-.895 0-1.709.629-1.709 1.846V284h-1.23Zm12.263 0v-7.643h1.197l.006 1.709h-.095c.307-1.237 1.244-1.845 2.235-1.845 1.107 0 1.812.752 2.017 1.859h-.164c.273-1.142 1.285-1.859 2.501-1.859 1.327 0 2.407.854 2.407 2.625V284h-1.238v-5.12c0-1.101-.717-1.538-1.538-1.538-1.032 0-1.661.704-1.661 1.668V284h-1.23v-5.243c0-.848-.636-1.415-1.497-1.415-.896 0-1.709.629-1.709 1.846V284h-1.231Zm14.404.178c-1.45 0-2.605-.848-2.605-2.352 0-1.75 1.559-2.071 2.974-2.249 1.36-.171 1.962-.13 1.962-.697v-.041c0-.95-.54-1.497-1.6-1.497-1.101 0-1.695.588-1.935 1.121l-1.182-.39c.588-1.387 1.9-1.811 3.083-1.811 1.025 0 2.864.314 2.864 2.7V284h-1.21v-1.039h-.082c-.26.54-.977 1.217-2.269 1.217Zm.211-1.087c1.361 0 2.12-.916 2.12-1.853v-1.059c-.205.239-1.545.376-2.017.437-.895.116-1.682.404-1.682 1.272 0 .793.663 1.203 1.579 1.203Zm6.741-3.671V284h-1.231v-7.643h1.183l.007 1.853h-.171c.465-1.408 1.353-1.948 2.509-1.948 1.544 0 2.59.95 2.59 2.884V284h-1.237v-4.751c0-1.176-.656-1.88-1.723-1.88-1.1 0-1.927.745-1.927 2.051Zm9.919 4.744c-1.908 0-3.234-1.531-3.234-3.965 0-2.42 1.333-3.937 3.24-3.937 1.491 0 1.962.916 2.215 1.319h.096v-3.767h1.231V284h-1.19v-1.183h-.137c-.253.424-.765 1.347-2.221 1.347Zm.184-1.101c1.388 0 2.147-1.175 2.147-2.877 0-1.689-.739-2.824-2.147-2.824-1.449 0-2.167 1.238-2.167 2.824 0 1.606.739 2.877 2.167 2.877Zm11.177.992c-1.148 0-1.716-.643-1.716-1.75v-8.491h1.231v8.183c0 .704.123.957.635.957.267 0 .376-.02.493-.055l.246 1.039a3.53 3.53 0 0 1-.889.117Zm2.14-.055v-7.643h1.23V284h-1.23Zm.622-8.894c-.465 0-.855-.362-.855-.813 0-.451.39-.814.855-.814.471 0 .861.363.861.814 0 .451-.39.813-.861.813Zm3.999 4.314V284h-1.231v-7.643h1.183l.007 1.853h-.171c.465-1.408 1.353-1.948 2.509-1.948 1.545 0 2.59.95 2.59 2.884V284h-1.237v-4.751c0-1.176-.656-1.88-1.723-1.88-1.1 0-1.927.745-1.927 2.051Zm10.267 4.744c-2.215 0-3.582-1.572-3.582-3.924 0-2.344 1.354-3.978 3.439-3.978 1.62 0 3.329.998 3.329 3.821v.513h-5.934v-1.039h5.271l-.574.382c0-1.503-.711-2.584-2.092-2.584-1.381 0-2.195 1.142-2.195 2.386v.691c0 1.702.944 2.638 2.345 2.638.902 0 1.579-.396 1.866-1.175l1.19.328c-.356 1.155-1.497 1.941-3.063 1.941Zm5.879-.075a.92.92 0 1 1 .923-.923.923.923 0 0 1-.923.923Z" fill="#28272D"/><path d="M385.86 284.178c-2.208 0-3.582-1.135-3.698-2.844h1.333c.103 1.155 1.169 1.682 2.365 1.682 1.381 0 2.434-.725 2.434-1.812 0-.984-.93-1.347-2.017-1.654l-1.23-.349c-1.641-.465-2.598-1.305-2.598-2.659 0-1.723 1.531-2.864 3.5-2.864 2.01 0 3.411 1.169 3.473 2.707h-1.272c-.116-.991-1.032-1.559-2.242-1.559-1.319 0-2.194.697-2.194 1.654 0 1.067 1.196 1.443 1.941 1.648l1.019.28c1.094.301 2.885.916 2.885 2.817 0 1.668-1.347 2.953-3.699 2.953Zm6.802-4.758V284h-1.23v-10.186h1.23v4.396h-.212c.465-1.408 1.354-1.948 2.509-1.948 1.545 0 2.591.95 2.591 2.884V284h-1.238v-4.751c0-1.176-.656-1.88-1.722-1.88-1.101 0-1.928.745-1.928 2.051Zm10.165 4.744c-2.078 0-3.479-1.579-3.479-3.937 0-2.393 1.401-3.965 3.479-3.965 2.085 0 3.493 1.572 3.493 3.965 0 2.358-1.408 3.937-3.493 3.937Zm0-1.101c1.545 0 2.249-1.333 2.249-2.836 0-1.518-.704-2.865-2.249-2.865-1.524 0-2.228 1.34-2.228 2.865 0 1.503.704 2.836 2.228 2.836Zm6.74.937-2.317-7.643h1.306l.929 3.336c.253.91.554 2.051.841 3.507h-.212a48.12 48.12 0 0 1 .827-3.507l.916-3.336h1.313l.902 3.336c.253.937.54 2.078.814 3.507h-.219c.287-1.415.581-2.55.848-3.507l.929-3.336h1.306L415.433 284h-1.224l-.991-3.459a73.433 73.433 0 0 1-.855-3.363h.274a70.869 70.869 0 0 1-.855 3.363l-.991 3.459h-1.224Zm16.789.164c-2.078 0-3.479-1.579-3.479-3.937 0-2.393 1.401-3.965 3.479-3.965 1.477 0 2.68.779 3.097 2.112l-1.182.335c-.226-.786-.91-1.347-1.915-1.347-1.524 0-2.228 1.34-2.228 2.865 0 1.503.704 2.836 2.228 2.836 1.026 0 1.723-.581 1.949-1.408l1.175.335c-.41 1.361-1.626 2.174-3.124 2.174Zm7.998 0c-2.078 0-3.479-1.579-3.479-3.937 0-2.393 1.401-3.965 3.479-3.965 2.085 0 3.494 1.572 3.494 3.965 0 2.358-1.409 3.937-3.494 3.937Zm0-1.101c1.545 0 2.25-1.333 2.25-2.836 0-1.518-.705-2.865-2.25-2.865-1.524 0-2.228 1.34-2.228 2.865 0 1.503.704 2.836 2.228 2.836Zm5.285.937v-7.643h1.196l.007 1.709h-.096c.308-1.237 1.244-1.845 2.235-1.845 1.108 0 1.812.752 2.017 1.859h-.164c.273-1.142 1.285-1.859 2.502-1.859 1.326 0 2.406.854 2.406 2.625V284h-1.237v-5.12c0-1.101-.718-1.538-1.538-1.538-1.032 0-1.661.704-1.661 1.668V284h-1.231v-5.243c0-.848-.636-1.415-1.497-1.415-.895 0-1.709.629-1.709 1.846V284h-1.23Zm12.263 0v-7.643h1.197l.006 1.709h-.095c.307-1.237 1.244-1.845 2.235-1.845 1.108 0 1.812.752 2.017 1.859h-.164c.273-1.142 1.285-1.859 2.502-1.859 1.326 0 2.406.854 2.406 2.625V284h-1.237v-5.12c0-1.101-.718-1.538-1.539-1.538-1.032 0-1.661.704-1.661 1.668V284h-1.23v-5.243c0-.848-.636-1.415-1.497-1.415-.896 0-1.709.629-1.709 1.846V284h-1.231Zm14.404.178c-1.45 0-2.605-.848-2.605-2.352 0-1.75 1.559-2.071 2.974-2.249 1.36-.171 1.962-.13 1.962-.697v-.041c0-.95-.54-1.497-1.6-1.497-1.1 0-1.695.588-1.934 1.121l-1.183-.39c.588-1.387 1.9-1.811 3.083-1.811 1.025 0 2.864.314 2.864 2.7V284h-1.21v-1.039h-.082c-.26.54-.977 1.217-2.269 1.217Zm.212-1.087c1.36 0 2.119-.916 2.119-1.853v-1.059c-.205.239-1.545.376-2.017.437-.895.116-1.682.404-1.682 1.272 0 .793.664 1.203 1.58 1.203Zm6.74-3.671V284h-1.231v-7.643h1.183l.007 1.853h-.171c.465-1.408 1.353-1.948 2.509-1.948 1.545 0 2.591.95 2.591 2.884V284h-1.238v-4.751c0-1.176-.656-1.88-1.722-1.88-1.101 0-1.928.745-1.928 2.051Zm9.919 4.744c-1.907 0-3.234-1.531-3.234-3.965 0-2.42 1.333-3.937 3.241-3.937 1.49 0 1.962.916 2.214 1.319h.096v-3.767h1.231V284h-1.19v-1.183h-.137c-.252.424-.765 1.347-2.221 1.347Zm.184-1.101c1.388 0 2.147-1.175 2.147-2.877 0-1.689-.738-2.824-2.147-2.824-1.449 0-2.167 1.238-2.167 2.824 0 1.606.739 2.877 2.167 2.877Z" fill="#0B5CAD"/><rect x="24.5" y="24.5" width="469" height="222" rx="3.5" stroke="#DCDCDE"/><g clip-path="url(#create-project__a)"><path d="M285.191 56.191h11.427c.657 0 1.19.533 1.19 1.191v60.236c0 .316-.125.618-.349.841a1.185 1.185 0 0 1-.841.349H285.19V56.192l.001-.001Z" fill="#F0F0F0" stroke="#DBDBDB" stroke-width="2.382"/><path d="m241.052 67.272-.043-9.172a2.38 2.38 0 0 1 2.006-2.363l39.346-6.297a2.383 2.383 0 0 1 2.759 2.353v72.078a2.372 2.372 0 0 1-.832 1.808 2.378 2.378 0 0 1-1.914.546l-39.07-6.03a2.381 2.381 0 0 1-2.02-2.344l-.041-9.097" stroke="#DBDBDB" stroke-width="2.382"/><path d="M242 109c11.598 0 21-9.402 21-21s-9.402-21-21-21-21 9.402-21 21 9.402 21 21 21Z" stroke="#6E49CB" stroke-width="2.382"/><path d="M242 105c9.389 0 17-7.611 17-17s-7.611-17-17-17-17 7.611-17 17 7.611 17 17 17Z" fill="#6E49CB"/><path d="M242 105c9.389 0 17-7.611 17-17s-7.611-17-17-17-17 7.611-17 17 7.611 17 17 17Z" fill="#fff" fill-opacity=".9"/><path d="M241.313 96V81.366M234 88.305h15" stroke="#6E49CB" stroke-width="2.382" stroke-linecap="round"/></g><path d="M181.143 162.193c-3.516 0-6.082-2.548-6.082-6.732 0-4.192 2.584-6.741 6.082-6.741 2.926 0 5.176 1.749 5.589 4.623h-2.443c-.299-1.565-1.52-2.461-3.111-2.461-2.224 0-3.683 1.705-3.683 4.579 0 2.9 1.468 4.57 3.674 4.57 1.591 0 2.812-.896 3.129-2.461h2.443c-.378 2.646-2.522 4.623-5.598 4.623Zm7.246-.193v-9.606h2.259v1.617h.079c.352-1.125 1.196-1.732 2.347-1.732.281 0 .589.027.8.053v2.109a5.844 5.844 0 0 0-1.081-.105c-1.178 0-2.066.817-2.066 2.136V162h-2.338Zm10.701.211c-2.9 0-4.693-1.995-4.693-4.975 0-2.944 1.828-5.001 4.57-5.001 2.54 0 4.5 1.714 4.5 4.913v.677h-8.068v-1.564h6.908l-1.072.43c0-1.59-.809-2.636-2.241-2.636-1.442 0-2.294 1.081-2.294 2.549v1.054c0 1.732.94 2.734 2.434 2.734 1.029 0 1.767-.466 2.048-1.275l2.153.273c-.422 1.678-2.039 2.821-4.245 2.821Zm8.899-.026c-1.872 0-3.26-.985-3.26-2.892 0-2.171 1.793-2.733 3.7-2.927 1.705-.184 2.373-.22 2.373-.87v-.053c0-.87-.598-1.415-1.67-1.415-1.09 0-1.767.563-1.934 1.257l-2.188-.255c.378-1.784 1.951-2.786 4.139-2.786 2.119 0 3.982.958 3.982 3.278V162h-2.259v-1.336h-.061c-.449.853-1.328 1.521-2.822 1.521Zm.607-1.706c1.38 0 2.223-.887 2.223-1.959v-1.082c-.298.22-1.371.361-2.074.466-.993.141-1.749.51-1.749 1.354 0 .791.651 1.221 1.6 1.221Zm11.342-8.085v1.836h-5.713v-1.836h5.713Zm-4.236-2.417h2.338v9.272c0 .677.255.949.958.949.237 0 .659-.035.879-.07l.219 1.828a8.064 8.064 0 0 1-1.494.132c-1.907 0-2.9-.888-2.9-2.584v-9.527Zm9.795 12.234c-2.9 0-4.693-1.995-4.693-4.975 0-2.944 1.828-5.001 4.57-5.001 2.54 0 4.5 1.714 4.5 4.913v.677h-8.068v-1.564h6.908l-1.072.43c0-1.59-.809-2.636-2.241-2.636-1.442 0-2.294 1.081-2.294 2.549v1.054c0 1.732.94 2.734 2.434 2.734 1.029 0 1.767-.466 2.048-1.275l2.154.273c-.422 1.678-2.039 2.821-4.246 2.821Zm15.276-.026c-1.494 0-2.364-.818-2.803-1.688h-.097V162h-2.294v-13.096h2.338v4.992h.061c.449-.826 1.275-1.652 2.804-1.652 2.303 0 4.017 1.846 4.017 4.966 0 3.102-1.67 4.975-4.026 4.975Zm-.624-1.925c1.433 0 2.268-1.213 2.268-3.059 0-1.837-.826-3.041-2.268-3.041-1.45 0-2.303 1.204-2.303 3.041s.862 3.059 2.303 3.059Zm9.031 1.784c-1.925 0-2.777-.782-2.777-2.47v-10.67h2.338v10.354c0 .677.193.923.782.923.22 0 .369-.018.483-.044l.238 1.784a4.75 4.75 0 0 1-1.064.123Zm4.962.141c-1.872 0-3.261-.985-3.261-2.892 0-2.171 1.793-2.733 3.7-2.927 1.705-.184 2.373-.22 2.373-.87v-.053c0-.87-.597-1.415-1.67-1.415-1.09 0-1.766.563-1.933 1.257l-2.189-.255c.378-1.784 1.951-2.786 4.14-2.786 2.118 0 3.981.958 3.981 3.278V162h-2.258v-1.336h-.062c-.448.853-1.327 1.521-2.821 1.521Zm.606-1.706c1.38 0 2.224-.887 2.224-1.959v-1.082c-.299.22-1.371.361-2.074.466-.994.141-1.749.51-1.749 1.354 0 .791.65 1.221 1.599 1.221Zm8.908-4.016V162h-2.338v-9.606h2.25l.018 2.408h-.273c.554-1.67 1.626-2.558 3.243-2.558 1.996 0 3.34 1.327 3.34 3.692V162h-2.338v-5.695c0-1.31-.703-2.057-1.872-2.057-1.177 0-2.03.756-2.03 2.215Zm10.411 2.575v-2.804h.316l3.49-3.84h2.759l-4.306 4.754h-.492l-1.767 1.89ZM271.931 162v-13.096h2.338V162h-2.338Zm6.135 0-3.155-4.333 1.573-1.644 4.368 5.977h-2.786Zm7.884 3.674v-13.28h2.294v1.494h.097c.439-.818 1.283-1.644 2.812-1.644 2.303 0 4.017 1.846 4.017 4.966 0 3.102-1.67 4.975-4.026 4.975-1.494 0-2.346-.818-2.786-1.67h-.07v5.159h-2.338Zm4.57-5.414c1.433 0 2.268-1.213 2.268-3.059 0-1.837-.826-3.041-2.268-3.041-1.45 0-2.302 1.204-2.302 3.041s.861 3.059 2.302 3.059Zm6.254 1.74v-9.606h2.259v1.617h.079c.351-1.125 1.195-1.732 2.347-1.732.281 0 .588.027.799.053v2.109a5.834 5.834 0 0 0-1.081-.105c-1.177 0-2.065.817-2.065 2.136V162h-2.338Zm10.683.211c-2.839 0-4.676-2.004-4.676-4.983 0-2.989 1.837-4.993 4.676-4.993 2.83 0 4.676 2.004 4.676 4.993 0 2.979-1.846 4.983-4.676 4.983Zm0-1.907c1.486 0 2.303-1.283 2.303-3.076 0-1.802-.817-3.085-2.303-3.085-1.485 0-2.302 1.274-2.302 3.085 0 1.793.817 3.076 2.302 3.076Zm6.289-7.91h2.338v10.309c.009 1.978-1.169 2.971-3.252 2.971h-.659v-1.89h.43c.818 0 1.143-.387 1.143-1.204v-10.186Zm1.169-1.38c-.738 0-1.345-.572-1.345-1.284 0-.711.607-1.283 1.345-1.283.747 0 1.353.572 1.353 1.283 0 .712-.606 1.284-1.353 1.284Zm7.475 11.197c-2.9 0-4.693-1.995-4.693-4.975 0-2.944 1.828-5.001 4.57-5.001 2.54 0 4.5 1.714 4.5 4.913v.677h-8.068v-1.564h6.908l-1.072.43c0-1.59-.809-2.636-2.241-2.636-1.442 0-2.294 1.081-2.294 2.549v1.054c0 1.732.94 2.734 2.434 2.734 1.028 0 1.767-.466 2.048-1.275l2.153.273c-.422 1.678-2.039 2.821-4.245 2.821Zm10.191 0c-2.83 0-4.658-2.013-4.658-4.983 0-2.98 1.828-4.993 4.658-4.993 2.268 0 3.929 1.301 4.254 3.296l-2.223.273c-.211-1.002-.906-1.67-2.013-1.67-1.494 0-2.303 1.274-2.303 3.094 0 1.801.809 3.076 2.303 3.076 1.116 0 1.802-.668 2.021-1.714l2.233.272c-.317 2.013-1.978 3.349-4.272 3.349Zm10.605-9.817v1.836h-5.713v-1.836h5.713Zm-4.237-2.417h2.338v9.272c0 .677.255.949.958.949.237 0 .659-.035.879-.07l.22 1.828c-.44.088-.993.132-1.494.132-1.908 0-2.901-.888-2.901-2.584v-9.527Z" fill="#5943B6"/><path d="M62.132 198.137c-2.611 0-4.519-1.996-4.519-5.223 0-3.233 1.907-5.236 4.519-5.236 2.064 0 3.746 1.244 4.108 3.343h-1.299c-.287-1.395-1.483-2.14-2.81-2.14-1.831 0-3.253 1.422-3.253 4.033 0 2.605 1.429 4.02 3.254 4.02 1.333 0 2.522-.752 2.81-2.14h1.298c-.355 2.071-2.023 3.343-4.108 3.343Zm5.954-.137v-7.643h1.19v1.176h.081c.28-.772 1.074-1.285 1.983-1.285.178 0 .478.014.622.021v1.237a4.624 4.624 0 0 0-.738-.068c-1.101 0-1.908.745-1.908 1.777V198h-1.23Zm8.258.164c-2.215 0-3.582-1.572-3.582-3.924 0-2.344 1.353-3.978 3.438-3.978 1.62 0 3.33.998 3.33 3.821v.513h-5.934v-1.039h5.27l-.574.382c0-1.503-.71-2.584-2.092-2.584-1.38 0-2.194 1.142-2.194 2.386v.691c0 1.702.943 2.638 2.345 2.638.902 0 1.579-.396 1.866-1.175l1.19.328c-.356 1.155-1.498 1.941-3.063 1.941Zm7.225.014c-1.449 0-2.604-.848-2.604-2.352 0-1.75 1.558-2.071 2.974-2.249 1.36-.171 1.961-.13 1.961-.697v-.041c0-.95-.54-1.497-1.6-1.497-1.1 0-1.694.588-1.934 1.121l-1.182-.39c.588-1.387 1.9-1.811 3.083-1.811 1.025 0 2.864.314 2.864 2.7V198h-1.21v-1.039h-.082c-.26.54-.978 1.217-2.27 1.217Zm.212-1.087c1.36 0 2.12-.916 2.12-1.853v-1.059c-.206.239-1.545.376-2.017.437-.896.116-1.682.404-1.682 1.272 0 .793.663 1.203 1.58 1.203Zm8.518-6.734v1.053h-3.951v-1.053h3.95Zm-2.803-1.818h1.23v7.479c0 .683.254.984.903.984.157 0 .424-.041.629-.082l.253 1.039a2.958 2.958 0 0 1-.916.137c-1.32 0-2.099-.732-2.099-1.983v-7.574Zm7.451 9.625c-2.215 0-3.582-1.572-3.582-3.924 0-2.344 1.354-3.978 3.439-3.978 1.62 0 3.329.998 3.329 3.821v.513h-5.934v-1.039h5.27l-.573.382c0-1.503-.711-2.584-2.092-2.584-1.381 0-2.195 1.142-2.195 2.386v.691c0 1.702.944 2.638 2.345 2.638.902 0 1.58-.396 1.866-1.175l1.19.328c-.356 1.155-1.497 1.941-3.063 1.941Zm11.027.014c-1.45 0-2.605-.848-2.605-2.352 0-1.75 1.559-2.071 2.974-2.249 1.36-.171 1.962-.13 1.962-.697v-.041c0-.95-.54-1.497-1.6-1.497-1.101 0-1.695.588-1.934 1.121l-1.183-.39c.588-1.387 1.9-1.811 3.083-1.811 1.025 0 2.864.314 2.864 2.7V198h-1.21v-1.039h-.082c-.26.54-.977 1.217-2.269 1.217Zm.212-1.087c1.36 0 2.119-.916 2.119-1.853v-1.059c-.205.239-1.545.376-2.017.437-.895.116-1.682.404-1.682 1.272 0 .793.664 1.203 1.58 1.203Zm12.995 1.073c-1.456 0-1.969-.923-2.222-1.347h-.137V198h-1.189v-10.186h1.23v3.767h.096c.253-.403.725-1.319 2.215-1.319 1.907 0 3.24 1.517 3.24 3.937 0 2.434-1.326 3.965-3.233 3.965Zm-.185-1.101c1.429 0 2.167-1.271 2.167-2.877 0-1.586-.718-2.824-2.167-2.824-1.408 0-2.146 1.135-2.146 2.824 0 1.702.758 2.877 2.146 2.877Zm6.925.992c-1.149 0-1.716-.643-1.716-1.75v-8.491h1.231v8.183c0 .704.123.957.635.957.267 0 .376-.02.492-.055l.247 1.039a3.53 3.53 0 0 1-.889.117Zm4.279.123c-1.449 0-2.604-.848-2.604-2.352 0-1.75 1.558-2.071 2.973-2.249 1.361-.171 1.962-.13 1.962-.697v-.041c0-.95-.54-1.497-1.599-1.497-1.101 0-1.696.588-1.935 1.121l-1.183-.39c.588-1.387 1.901-1.811 3.083-1.811 1.026 0 2.865.314 2.865 2.7V198h-1.21v-1.039h-.082c-.26.54-.978 1.217-2.27 1.217Zm.212-1.087c1.36 0 2.119-.916 2.119-1.853v-1.059c-.205.239-1.545.376-2.016.437-.896.116-1.682.404-1.682 1.272 0 .793.663 1.203 1.579 1.203Zm6.74-3.671V198h-1.23v-7.643h1.182l.007 1.853h-.171c.465-1.408 1.354-1.948 2.509-1.948 1.545 0 2.591.95 2.591 2.884V198h-1.237v-4.751c0-1.176-.657-1.88-1.723-1.88-1.101 0-1.928.745-1.928 2.051Zm8.21 1.832v-1.524h.226l3.267-3.371h1.525l-3.534 3.63h-.137l-1.347 1.265ZM146.207 198v-10.186h1.231V198h-1.231Zm4.833 0-2.926-3.739.875-.868 3.63 4.607h-1.579Zm6.788 2.857v-10.5h1.19v1.224h.136c.253-.403.725-1.319 2.215-1.319 1.907 0 3.24 1.517 3.24 3.937 0 2.434-1.326 3.965-3.233 3.965-1.456 0-1.969-.923-2.222-1.347h-.095v4.04h-1.231Zm3.363-3.794c1.429 0 2.167-1.271 2.167-2.877 0-1.586-.717-2.824-2.167-2.824-1.408 0-2.146 1.135-2.146 2.824 0 1.702.759 2.877 2.146 2.877Zm5.209.937v-7.643h1.19v1.176h.082c.28-.772 1.073-1.285 1.982-1.285.178 0 .479.014.622.021v1.237a4.619 4.619 0 0 0-.738-.068c-1.1 0-1.907.745-1.907 1.777V198H166.4Zm8.156.164c-2.078 0-3.48-1.579-3.48-3.937 0-2.393 1.402-3.965 3.48-3.965 2.085 0 3.493 1.572 3.493 3.965 0 2.358-1.408 3.937-3.493 3.937Zm0-1.101c1.545 0 2.249-1.333 2.249-2.836 0-1.518-.704-2.865-2.249-2.865-1.525 0-2.229 1.34-2.229 2.865 0 1.503.704 2.836 2.229 2.836Zm5.277-6.706h1.237v8.19c.007 1.456-.758 2.31-2.242 2.31h-.246v-1.134h.226c.711 0 1.025-.417 1.025-1.176v-8.19Zm.622-1.251c-.465 0-.854-.362-.854-.813 0-.451.389-.814.854-.814.472 0 .861.363.861.814 0 .451-.389.813-.861.813Zm5.988 9.058c-2.214 0-3.582-1.572-3.582-3.924 0-2.344 1.354-3.978 3.439-3.978 1.62 0 3.329.998 3.329 3.821v.513h-5.934v-1.039h5.271l-.574.382c0-1.503-.711-2.584-2.092-2.584-1.381 0-2.195 1.142-2.195 2.386v.691c0 1.702.944 2.638 2.345 2.638.903 0 1.579-.396 1.866-1.175l1.19.328c-.356 1.155-1.497 1.941-3.063 1.941Zm8.06 0c-2.078 0-3.48-1.579-3.48-3.937 0-2.393 1.402-3.965 3.48-3.965 1.476 0 2.68.779 3.097 2.112l-1.183.335c-.226-.786-.909-1.347-1.914-1.347-1.524 0-2.229 1.34-2.229 2.865 0 1.503.705 2.836 2.229 2.836 1.025 0 1.723-.581 1.948-1.408l1.176.335c-.41 1.361-1.627 2.174-3.124 2.174Zm7.895-7.807v1.053h-3.951v-1.053h3.951Zm-2.802-1.818h1.23v7.479c0 .683.253.984.903.984.157 0 .423-.041.628-.082l.253 1.039a2.956 2.956 0 0 1-.916.137c-1.319 0-2.098-.732-2.098-1.983v-7.574Zm11.32 1.818v1.053h-3.951v-1.053h3.951Zm-2.803-1.818h1.231v7.479c0 .683.253.984.902.984.157 0 .424-.041.629-.082l.253 1.039a2.96 2.96 0 0 1-.916.137c-1.319 0-2.099-.732-2.099-1.983v-7.574Zm7.349 9.625c-2.078 0-3.48-1.579-3.48-3.937 0-2.393 1.402-3.965 3.48-3.965 2.085 0 3.493 1.572 3.493 3.965 0 2.358-1.408 3.937-3.493 3.937Zm0-1.101c1.545 0 2.249-1.333 2.249-2.836 0-1.518-.704-2.865-2.249-2.865-1.524 0-2.229 1.34-2.229 2.865 0 1.503.705 2.836 2.229 2.836Zm11.819 1.101c-1.572 0-2.666-.697-2.939-2.017l1.169-.28c.218.841.841 1.217 1.757 1.217 1.066 0 1.75-.526 1.75-1.155 0-.527-.37-.875-1.122-1.053l-1.271-.301c-1.388-.328-2.051-1.012-2.051-2.085 0-1.312 1.203-2.228 2.83-2.228 1.573 0 2.4.765 2.748 1.839l-1.114.287c-.212-.547-.642-1.08-1.627-1.08-.909 0-1.593.471-1.593 1.107 0 .567.39.882 1.286 1.094l1.155.273c1.387.328 2.037 1.019 2.037 2.065 0 1.34-1.224 2.317-3.015 2.317Zm7.807-7.807v1.053h-3.951v-1.053h3.951Zm-2.803-1.818h1.231v7.479c0 .683.253.984.902.984.157 0 .424-.041.629-.082l.253 1.039a2.96 2.96 0 0 1-.916.137c-1.32 0-2.099-.732-2.099-1.983v-7.574Zm7.349 9.625c-2.078 0-3.48-1.579-3.48-3.937 0-2.393 1.402-3.965 3.48-3.965 2.085 0 3.493 1.572 3.493 3.965 0 2.358-1.408 3.937-3.493 3.937Zm0-1.101c1.545 0 2.249-1.333 2.249-2.836 0-1.518-.704-2.865-2.249-2.865-1.525 0-2.229 1.34-2.229 2.865 0 1.503.704 2.836 2.229 2.836Zm5.284.937v-7.643h1.189v1.176h.082c.281-.772 1.074-1.285 1.983-1.285.178 0 .478.014.622.021v1.237a4.619 4.619 0 0 0-.738-.068c-1.101 0-1.908.745-1.908 1.777V198h-1.23Zm8.258.164c-2.215 0-3.582-1.572-3.582-3.924 0-2.344 1.353-3.978 3.438-3.978 1.62 0 3.329.998 3.329 3.821v.513h-5.933v-1.039h5.27l-.574.382c0-1.503-.711-2.584-2.092-2.584-1.381 0-2.194 1.142-2.194 2.386v.691c0 1.702.943 2.638 2.345 2.638.902 0 1.579-.396 1.866-1.175l1.189.328c-.355 1.155-1.497 1.941-3.062 1.941Zm8.763 2.605.315-1.067.13.034c.752.199 1.292.035 1.668-1.059l.219-.636-2.919-7.684h1.346l1.627 4.533c.342.95.547 1.886.814 2.761h-.451c.259-.875.471-1.818.813-2.761l1.641-4.533h1.339l-3.356 8.785c-.465 1.216-1.203 1.77-2.283 1.77-.438 0-.773-.082-.903-.143Zm10.835-2.605c-2.078 0-3.479-1.579-3.479-3.937 0-2.393 1.401-3.965 3.479-3.965 2.085 0 3.494 1.572 3.494 3.965 0 2.358-1.409 3.937-3.494 3.937Zm0-1.101c1.545 0 2.249-1.333 2.249-2.836 0-1.518-.704-2.865-2.249-2.865-1.524 0-2.228 1.34-2.228 2.865 0 1.503.704 2.836 2.228 2.836Zm7.875 1.033c-1.545 0-2.59-.95-2.59-2.885v-4.854h1.23v4.751c0 1.176.663 1.88 1.73 1.88 1.093 0 1.92-.745 1.92-2.05v-4.581h1.238V198h-1.19v-1.853h.164c-.471 1.436-1.38 1.949-2.502 1.949Zm5.695-.096v-7.643h1.189v1.176h.082c.281-.772 1.073-1.285 1.983-1.285.177 0 .478.014.622.021v1.237a4.622 4.622 0 0 0-.739-.068c-1.1 0-1.907.745-1.907 1.777V198h-1.23Zm9.761 0v-8.661c0-1.326 1.06-2.003 2.174-2.003.246 0 .465.02.643.055l-.185 1.114a1.385 1.385 0 0 0-.314-.027c-.759 0-1.087.396-1.087 1.134V198h-1.231Zm-1.49-6.59v-1.053h6.057v1.053h-6.057Zm5.647 6.59v-7.643h1.23V198h-1.23Zm.622-8.894c-.465 0-.855-.362-.855-.813 0-.451.39-.814.855-.814.471 0 .861.363.861.814 0 .451-.39.813-.861.813Zm4.484 8.949c-1.148 0-1.716-.643-1.716-1.75v-8.491h1.231v8.183c0 .704.123.957.636.957.266 0 .376-.02.492-.055l.246 1.039a3.53 3.53 0 0 1-.889.117Zm5.148.109c-2.215 0-3.582-1.572-3.582-3.924 0-2.344 1.353-3.978 3.438-3.978 1.62 0 3.329.998 3.329 3.821v.513h-5.933v-1.039h5.27l-.574.382c0-1.503-.711-2.584-2.092-2.584-1.381 0-2.194 1.142-2.194 2.386v.691c0 1.702.943 2.638 2.344 2.638.903 0 1.58-.396 1.867-1.175l1.189.328c-.355 1.155-1.497 1.941-3.062 1.941Zm7.546 0c-1.572 0-2.666-.697-2.939-2.017l1.169-.28c.219.841.841 1.217 1.757 1.217 1.066 0 1.75-.526 1.75-1.155 0-.527-.369-.875-1.121-1.053l-1.272-.301c-1.387-.328-2.051-1.012-2.051-2.085 0-1.312 1.204-2.228 2.831-2.228 1.572 0 2.399.765 2.748 1.839l-1.115.287c-.212-.547-.642-1.08-1.627-1.08-.909 0-1.592.471-1.592 1.107 0 .567.389.882 1.285 1.094l1.155.273c1.388.328 2.037 1.019 2.037 2.065 0 1.34-1.223 2.317-3.015 2.317Zm4.594 2.29.602-3.876h1.408l-1.066 3.876h-.944Zm8.176.403v-10.5h1.189v1.224h.137c.253-.403.725-1.319 2.215-1.319 1.907 0 3.24 1.517 3.24 3.937 0 2.434-1.326 3.965-3.233 3.965-1.456 0-1.969-.923-2.222-1.347h-.096v4.04h-1.23Zm3.363-3.794c1.429 0 2.167-1.271 2.167-2.877 0-1.586-.717-2.824-2.167-2.824-1.408 0-2.146 1.135-2.146 2.824 0 1.702.759 2.877 2.146 2.877Zm6.925.992c-1.148 0-1.716-.643-1.716-1.75v-8.491h1.231v8.183c0 .704.123.957.636.957.266 0 .375-.02.492-.055l.246 1.039a3.53 3.53 0 0 1-.889.117Zm4.279.123c-1.449 0-2.604-.848-2.604-2.352 0-1.75 1.559-2.071 2.974-2.249 1.36-.171 1.961-.13 1.961-.697v-.041c0-.95-.54-1.497-1.599-1.497-1.101 0-1.695.588-1.935 1.121l-1.182-.39c.588-1.387 1.9-1.811 3.083-1.811 1.025 0 2.864.314 2.864 2.7V198h-1.21v-1.039h-.082c-.26.54-.978 1.217-2.27 1.217Zm.212-1.087c1.361 0 2.119-.916 2.119-1.853v-1.059c-.205.239-1.544.376-2.016.437-.896.116-1.682.404-1.682 1.272 0 .793.663 1.203 1.579 1.203Zm6.741-3.671V198h-1.231v-7.643h1.183l.007 1.853h-.171c.464-1.408 1.353-1.948 2.508-1.948 1.545 0 2.591.95 2.591 2.884V198h-1.237v-4.751c0-1.176-.656-1.88-1.723-1.88-1.1 0-1.927.745-1.927 2.051Zm10.869 7.349.314-1.067.13.034c.752.199 1.292.035 1.668-1.059l.219-.636-2.919-7.684h1.346l1.627 4.533c.342.95.547 1.886.814 2.761h-.451c.26-.875.471-1.818.813-2.761l1.641-4.533h1.34l-3.357 8.785c-.465 1.216-1.203 1.77-2.283 1.77-.437 0-.772-.082-.902-.143Zm10.835-2.605c-2.078 0-3.48-1.579-3.48-3.937 0-2.393 1.402-3.965 3.48-3.965 2.085 0 3.493 1.572 3.493 3.965 0 2.358-1.408 3.937-3.493 3.937Zm0-1.101c1.545 0 2.249-1.333 2.249-2.836 0-1.518-.704-2.865-2.249-2.865-1.525 0-2.229 1.34-2.229 2.865 0 1.503.704 2.836 2.229 2.836Zm7.875 1.033c-1.545 0-2.591-.95-2.591-2.885v-4.854h1.23v4.751c0 1.176.663 1.88 1.73 1.88 1.094 0 1.921-.745 1.921-2.05v-4.581h1.237V198h-1.189v-1.853h.164c-.472 1.436-1.381 1.949-2.502 1.949Zm5.694-.096v-7.643h1.189v1.176h.082c.281-.772 1.074-1.285 1.983-1.285.178 0 .478.014.622.021v1.237a4.619 4.619 0 0 0-.738-.068c-1.101 0-1.908.745-1.908 1.777V198h-1.23Zm10.931 0-2.318-7.643h1.306l.93 3.336c.253.91.553 2.051.84 3.507h-.211c.273-1.394.56-2.536.827-3.507l.916-3.336h1.312l.903 3.336c.252.937.54 2.078.813 3.507h-.219c.287-1.415.581-2.55.848-3.507l.93-3.336h1.305L404.421 198h-1.224l-.991-3.459a72.192 72.192 0 0 1-.854-3.363h.273a70.908 70.908 0 0 1-.854 3.363l-.992 3.459h-1.223Zm12.591.164c-2.078 0-3.479-1.579-3.479-3.937 0-2.393 1.401-3.965 3.479-3.965 2.085 0 3.494 1.572 3.494 3.965 0 2.358-1.409 3.937-3.494 3.937Zm0-1.101c1.545 0 2.249-1.333 2.249-2.836 0-1.518-.704-2.865-2.249-2.865-1.524 0-2.228 1.34-2.228 2.865 0 1.503.704 2.836 2.228 2.836Zm5.285.937v-7.643h1.189v1.176h.082c.28-.772 1.073-1.285 1.983-1.285.177 0 .478.014.622.021v1.237a4.65 4.65 0 0 0-.739-.068c-1.1 0-1.907.745-1.907 1.777V198h-1.23Zm6.651-2.748v-1.524h.226l3.267-3.371h1.525l-3.535 3.63h-.136l-1.347 1.265ZM421.928 198v-10.186h1.23V198h-1.23Zm4.833 0-2.926-3.739.875-.868 3.63 4.607h-1.579Zm2.645 2.454.602-3.876h1.408l-1.066 3.876h-.944Zm10.316-2.276c-1.45 0-2.605-.848-2.605-2.352 0-1.75 1.559-2.071 2.974-2.249 1.36-.171 1.962-.13 1.962-.697v-.041c0-.95-.54-1.497-1.6-1.497-1.1 0-1.695.588-1.934 1.121l-1.183-.39c.588-1.387 1.9-1.811 3.083-1.811 1.025 0 2.864.314 2.864 2.7V198h-1.21v-1.039h-.082c-.26.54-.977 1.217-2.269 1.217Zm.212-1.087c1.36 0 2.119-.916 2.119-1.853v-1.059c-.205.239-1.545.376-2.017.437-.895.116-1.682.404-1.682 1.272 0 .793.664 1.203 1.58 1.203Zm6.74-3.671V198h-1.231v-7.643h1.183l.007 1.853h-.171c.465-1.408 1.353-1.948 2.509-1.948 1.545 0 2.591.95 2.591 2.884V198h-1.238v-4.751c0-1.176-.656-1.88-1.722-1.88-1.101 0-1.928.745-1.928 2.051Zm9.919 4.744c-1.907 0-3.234-1.531-3.234-3.965 0-2.42 1.333-3.937 3.241-3.937 1.49 0 1.962.916 2.214 1.319h.096v-3.767h1.231V198h-1.19v-1.183h-.137c-.252.424-.765 1.347-2.221 1.347Zm.184-1.101c1.388 0 2.147-1.175 2.147-2.877 0-1.689-.738-2.824-2.147-2.824-1.449 0-2.167 1.238-2.167 2.824 0 1.606.739 2.877 2.167 2.877Zm-330.011 21.101c-2.078 0-3.48-1.579-3.48-3.937 0-2.393 1.402-3.965 3.48-3.965 1.476 0 2.679.779 3.096 2.112l-1.182.335c-.226-.786-.909-1.347-1.914-1.347-1.525 0-2.229 1.34-2.229 2.865 0 1.503.704 2.836 2.229 2.836 1.025 0 1.722-.581 1.948-1.408l1.176.335c-.411 1.361-1.627 2.174-3.124 2.174Zm7.998 0c-2.078 0-3.48-1.579-3.48-3.937 0-2.393 1.402-3.965 3.48-3.965 2.085 0 3.493 1.572 3.493 3.965 0 2.358-1.408 3.937-3.493 3.937Zm0-1.101c1.545 0 2.249-1.333 2.249-2.836 0-1.518-.704-2.865-2.249-2.865-1.525 0-2.229 1.34-2.229 2.865 0 1.503.704 2.836 2.229 2.836Zm7 .992c-1.149 0-1.716-.643-1.716-1.75v-8.491h1.23v8.183c0 .704.123.957.636.957.267 0 .376-.02.492-.055l.246 1.039c-.218.062-.56.117-.888.117Zm3.855 0c-1.148 0-1.716-.643-1.716-1.75v-8.491h1.231v8.183c0 .704.123.957.636.957.266 0 .376-.02.492-.055l.246 1.039a3.53 3.53 0 0 1-.889.117Zm4.279.123c-1.449 0-2.604-.848-2.604-2.352 0-1.75 1.559-2.071 2.974-2.249 1.36-.171 1.961-.13 1.961-.697v-.041c0-.95-.54-1.497-1.599-1.497-1.101 0-1.695.588-1.935 1.121l-1.182-.39c.588-1.387 1.9-1.811 3.083-1.811 1.025 0 2.864.314 2.864 2.7V218h-1.21v-1.039h-.082c-.26.54-.978 1.217-2.27 1.217Zm.212-1.087c1.361 0 2.119-.916 2.119-1.853v-1.059c-.205.239-1.544.376-2.016.437-.896.116-1.682.404-1.682 1.272 0 .793.663 1.203 1.579 1.203Zm9.058 1.073c-1.456 0-1.969-.923-2.222-1.347h-.136V218h-1.19v-10.186h1.231v3.767h.095c.253-.403.725-1.319 2.215-1.319 1.907 0 3.24 1.517 3.24 3.937 0 2.434-1.326 3.965-3.233 3.965Zm-.185-1.101c1.429 0 2.167-1.271 2.167-2.877 0-1.586-.717-2.824-2.167-2.824-1.408 0-2.146 1.135-2.146 2.824 0 1.702.759 2.877 2.146 2.877Zm8.32 1.101c-2.078 0-3.48-1.579-3.48-3.937 0-2.393 1.402-3.965 3.48-3.965 2.085 0 3.493 1.572 3.493 3.965 0 2.358-1.408 3.937-3.493 3.937Zm0-1.101c1.545 0 2.249-1.333 2.249-2.836 0-1.518-.704-2.865-2.249-2.865-1.525 0-2.229 1.34-2.229 2.865 0 1.503.704 2.836 2.229 2.836Zm5.284.937v-7.643h1.189v1.176h.082c.281-.772 1.074-1.285 1.983-1.285.178 0 .478.014.622.021v1.237a4.619 4.619 0 0 0-.738-.068c-1.101 0-1.908.745-1.908 1.777V218h-1.23Zm7.417.178c-1.449 0-2.605-.848-2.605-2.352 0-1.75 1.559-2.071 2.974-2.249 1.36-.171 1.962-.13 1.962-.697v-.041c0-.95-.54-1.497-1.6-1.497-1.1 0-1.695.588-1.934 1.121l-1.183-.39c.588-1.387 1.901-1.811 3.083-1.811 1.026 0 2.864.314 2.864 2.7V218h-1.21v-1.039h-.082c-.259.54-.977 1.217-2.269 1.217Zm.212-1.087c1.36 0 2.119-.916 2.119-1.853v-1.059c-.205.239-1.545.376-2.017.437-.895.116-1.681.404-1.681 1.272 0 .793.663 1.203 1.579 1.203Zm8.517-6.734v1.053h-3.951v-1.053h3.951Zm-2.802-1.818h1.23v7.479c0 .683.253.984.902.984.158 0 .424-.041.629-.082l.253 1.039a2.956 2.956 0 0 1-.916.137c-1.319 0-2.098-.732-2.098-1.983v-7.574Zm7.451 9.625c-2.215 0-3.582-1.572-3.582-3.924 0-2.344 1.353-3.978 3.438-3.978 1.62 0 3.329.998 3.329 3.821v.513h-5.933v-1.039h5.27l-.574.382c0-1.503-.711-2.584-2.092-2.584-1.381 0-2.194 1.142-2.194 2.386v.691c0 1.702.943 2.638 2.345 2.638.902 0 1.579-.396 1.866-1.175l1.189.328c-.355 1.155-1.497 1.941-3.062 1.941Zm11.997 0c-2.078 0-3.48-1.579-3.48-3.937 0-2.393 1.402-3.965 3.48-3.965 2.085 0 3.493 1.572 3.493 3.965 0 2.358-1.408 3.937-3.493 3.937Zm0-1.101c1.545 0 2.249-1.333 2.249-2.836 0-1.518-.704-2.865-2.249-2.865-1.525 0-2.229 1.34-2.229 2.865 0 1.503.704 2.836 2.229 2.836Zm6.515-3.643V218h-1.231v-7.643h1.183l.007 1.853h-.171c.464-1.408 1.353-1.948 2.508-1.948 1.545 0 2.591.95 2.591 2.884V218h-1.237v-4.751c0-1.176-.656-1.88-1.723-1.88-1.1 0-1.927.745-1.927 2.051Zm14.102 4.744c-2.078 0-3.479-1.579-3.479-3.937 0-2.393 1.401-3.965 3.479-3.965 1.477 0 2.68.779 3.097 2.112l-1.183.335c-.225-.786-.909-1.347-1.914-1.347-1.524 0-2.228 1.34-2.228 2.865 0 1.503.704 2.836 2.228 2.836 1.025 0 1.723-.581 1.948-1.408l1.176.335c-.41 1.361-1.627 2.174-3.124 2.174Zm7.998 0c-2.078 0-3.479-1.579-3.479-3.937 0-2.393 1.401-3.965 3.479-3.965 2.085 0 3.493 1.572 3.493 3.965 0 2.358-1.408 3.937-3.493 3.937Zm0-1.101c1.545 0 2.249-1.333 2.249-2.836 0-1.518-.704-2.865-2.249-2.865-1.524 0-2.228 1.34-2.228 2.865 0 1.503.704 2.836 2.228 2.836Zm8.149 1.101c-1.908 0-3.234-1.531-3.234-3.965 0-2.42 1.333-3.937 3.24-3.937 1.491 0 1.962.916 2.215 1.319h.096v-3.767h1.23V218h-1.189v-1.183h-.137c-.253.424-.765 1.347-2.221 1.347Zm.184-1.101c1.388 0 2.147-1.175 2.147-2.877 0-1.689-.739-2.824-2.147-2.824-1.449 0-2.167 1.238-2.167 2.824 0 1.606.738 2.877 2.167 2.877Zm8.736 1.101c-2.214 0-3.582-1.572-3.582-3.924 0-2.344 1.354-3.978 3.439-3.978 1.62 0 3.329.998 3.329 3.821v.513h-5.934v-1.039h5.271l-.574.382c0-1.503-.711-2.584-2.092-2.584-1.381 0-2.194 1.142-2.194 2.386v.691c0 1.702.943 2.638 2.344 2.638.903 0 1.579-.396 1.867-1.175l1.189.328c-.355 1.155-1.497 1.941-3.063 1.941Zm4.745 2.29.601-3.876h1.408l-1.066 3.876h-.943Zm10.315-2.276c-1.449 0-2.604-.848-2.604-2.352 0-1.75 1.558-2.071 2.973-2.249 1.361-.171 1.962-.13 1.962-.697v-.041c0-.95-.54-1.497-1.6-1.497-1.1 0-1.695.588-1.934 1.121l-1.183-.39c.588-1.387 1.901-1.811 3.083-1.811 1.026 0 2.865.314 2.865 2.7V218h-1.21v-1.039h-.082c-.26.54-.978 1.217-2.27 1.217Zm.212-1.087c1.36 0 2.119-.916 2.119-1.853v-1.059c-.205.239-1.545.376-2.016.437-.896.116-1.682.404-1.682 1.272 0 .793.663 1.203 1.579 1.203Zm5.51.909v-7.643h1.196l.007 1.709h-.096c.308-1.237 1.244-1.845 2.236-1.845 1.107 0 1.811.752 2.016 1.859h-.164c.273-1.142 1.285-1.859 2.502-1.859 1.326 0 2.406.854 2.406 2.625V218h-1.237v-5.12c0-1.101-.718-1.538-1.538-1.538-1.032 0-1.661.704-1.661 1.668V218h-1.231v-5.243c0-.848-.635-1.415-1.497-1.415-.895 0-1.709.629-1.709 1.846V218h-1.23Zm15.374.164c-2.078 0-3.48-1.579-3.48-3.937 0-2.393 1.402-3.965 3.48-3.965 2.085 0 3.493 1.572 3.493 3.965 0 2.358-1.408 3.937-3.493 3.937Zm0-1.101c1.545 0 2.249-1.333 2.249-2.836 0-1.518-.704-2.865-2.249-2.865-1.525 0-2.229 1.34-2.229 2.865 0 1.503.704 2.836 2.229 2.836Zm6.514-3.643V218h-1.23v-7.643h1.183l.006 1.853h-.171c.465-1.408 1.354-1.948 2.509-1.948 1.545 0 2.591.95 2.591 2.884V218h-1.237v-4.751c0-1.176-.656-1.88-1.723-1.88-1.1 0-1.928.745-1.928 2.051Zm10.152 7.601c-1.696 0-2.673-.717-3.145-1.558l.998-.643c.322.445.8 1.128 2.147 1.128 1.217 0 2.098-.56 2.098-1.818v-1.531h-.116c-.26.437-.745 1.278-2.221 1.278-1.833 0-3.227-1.333-3.227-3.732 0-2.366 1.347-3.883 3.254-3.883 1.476 0 1.969.909 2.228 1.319h.117v-1.224h1.196v7.841c0 1.976-1.47 2.823-3.329 2.823Zm-.034-4.238c1.387 0 2.146-.998 2.146-2.666 0-1.62-.738-2.755-2.146-2.755-1.456 0-2.181 1.231-2.181 2.755 0 1.572.745 2.666 2.181 2.666Zm12.571 1.381c-2.078 0-3.48-1.579-3.48-3.937 0-2.393 1.402-3.965 3.48-3.965 2.085 0 3.493 1.572 3.493 3.965 0 2.358-1.408 3.937-3.493 3.937Zm0-1.101c1.545 0 2.249-1.333 2.249-2.836 0-1.518-.704-2.865-2.249-2.865-1.525 0-2.229 1.34-2.229 2.865 0 1.503.704 2.836 2.229 2.836Zm8.292-6.706v1.053h-3.951v-1.053h3.951Zm-2.803-1.818h1.231v7.479c0 .683.253.984.902.984.157 0 .424-.041.629-.082l.253 1.039a2.96 2.96 0 0 1-.916.137c-1.32 0-2.099-.732-2.099-1.983v-7.574Zm5.606 4.881V218h-1.231v-10.186h1.231v4.396h-.212c.465-1.408 1.353-1.948 2.508-1.948 1.545 0 2.591.95 2.591 2.884V218h-1.237v-4.751c0-1.176-.656-1.88-1.723-1.88-1.1 0-1.927.745-1.927 2.051Zm10.267 4.744c-2.215 0-3.582-1.572-3.582-3.924 0-2.344 1.354-3.978 3.439-3.978 1.62 0 3.329.998 3.329 3.821v.513h-5.934v-1.039h5.271l-.575.382c0-1.503-.711-2.584-2.091-2.584-1.381 0-2.195 1.142-2.195 2.386v.691c0 1.702.944 2.638 2.345 2.638.902 0 1.579-.396 1.866-1.175l1.19.328c-.356 1.155-1.497 1.941-3.063 1.941Zm4.949-.164v-7.643h1.19v1.176h.082c.28-.772 1.073-1.285 1.982-1.285.178 0 .479.014.622.021v1.237a4.619 4.619 0 0 0-.738-.068c-1.1 0-1.907.745-1.907 1.777V218h-1.231Zm12.223-7.643v1.053h-3.951v-1.053h3.951Zm-2.803-1.818h1.231v7.479c0 .683.253.984.902.984.157 0 .424-.041.629-.082l.253 1.039a2.96 2.96 0 0 1-.916.137c-1.319 0-2.099-.732-2.099-1.983v-7.574Zm5.606 4.881V218h-1.231v-10.186h1.231v4.396h-.212c.465-1.408 1.353-1.948 2.509-1.948 1.545 0 2.59.95 2.59 2.884V218h-1.237v-4.751c0-1.176-.656-1.88-1.722-1.88-1.101 0-1.928.745-1.928 2.051Zm7.054 4.58v-7.643h1.231V218h-1.231Zm.623-8.894c-.465 0-.855-.362-.855-.813 0-.451.39-.814.855-.814.471 0 .861.363.861.814 0 .451-.39.813-.861.813Zm3.999 4.314V218h-1.231v-7.643h1.183l.007 1.853h-.171c.465-1.408 1.353-1.948 2.508-1.948 1.545 0 2.591.95 2.591 2.884V218h-1.237v-4.751c0-1.176-.656-1.88-1.723-1.88-1.1 0-1.927.745-1.927 2.051Zm10.151 7.601c-1.695 0-2.673-.717-3.145-1.558l.998-.643c.322.445.8 1.128 2.147 1.128 1.217 0 2.099-.56 2.099-1.818v-1.531h-.117c-.259.437-.745 1.278-2.221 1.278-1.832 0-3.227-1.333-3.227-3.732 0-2.366 1.347-3.883 3.254-3.883 1.477 0 1.969.909 2.229 1.319h.116v-1.224h1.196v7.841c0 1.976-1.47 2.823-3.329 2.823Zm-.034-4.238c1.387 0 2.146-.998 2.146-2.666 0-1.62-.738-2.755-2.146-2.755-1.456 0-2.181 1.231-2.181 2.755 0 1.572.745 2.666 2.181 2.666Zm8.121 1.381c-1.572 0-2.666-.697-2.94-2.017l1.169-.28c.219.841.841 1.217 1.757 1.217 1.067 0 1.75-.526 1.75-1.155 0-.527-.369-.875-1.121-1.053l-1.271-.301c-1.388-.328-2.051-1.012-2.051-2.085 0-1.312 1.203-2.228 2.83-2.228 1.572 0 2.399.765 2.748 1.839l-1.114.287c-.212-.547-.643-1.08-1.627-1.08-.909 0-1.593.471-1.593 1.107 0 .567.39.882 1.285 1.094l1.155.273c1.388.328 2.038 1.019 2.038 2.065 0 1.34-1.224 2.317-3.015 2.317Zm5.728-.075a.92.92 0 1 1 .923-.923.923.923 0 0 1-.923.923Z" fill="#28272D"/><defs><clipPath id="create-project__a"><path fill="#fff" transform="translate(219 48)" d="M0 0h80v80H0z"/></clipPath></defs></svg>