<svg width="378" height="176" fill="none" xmlns="http://www.w3.org/2000/svg"><path fill="#fff" d="M0 0h378v176H0z"/><rect x="209" y="57" width="138" height="118" rx="2" fill="#fff" stroke="#A4A3A8" stroke-width="2"/><rect x="209" y="29" width="138" height="22" rx="2" fill="#fff"/><rect x="209" y="29" width="138" height="22" rx="2" stroke="#A4A3A8" stroke-width="2"/><circle cx="336" cy="40" r="6" fill="#666"/><path d="M338.95 37.293a1 1 0 0 0-1.414 0l-1.415 1.414-1.414-1.414a1 1 0 1 0-1.414 1.414l1.414 1.414-1.414 1.414a1 1 0 1 0 1.414 1.415l1.414-1.415 1.415 1.415a1 1 0 1 0 1.414-1.415l-1.414-1.414 1.414-1.414a1 1 0 0 0 0-1.414Z" fill="#fff"/><rect x="216" y="36" width="78" height="8" rx="2" fill="#89888D"/><rect x="208" y="16" width="46" height="8" rx="2" fill="#535158"/><rect x="37" y="29" width="138" height="22" rx="2" fill="#fff"/><rect x="37" y="29" width="138" height="22" rx="2" stroke="#A4A3A8" stroke-width="2"/><mask id="date-picker-structure__a" fill="#fff"><rect x="158" y="37" width="10" height="8" rx="1"/></mask><rect x="158" y="37" width="10" height="8" rx="1" stroke="#737278" stroke-width="4" mask="url(#date-picker-structure__a)"/><rect x="160" y="35" width="2" height="4" rx="1" fill="#737278"/><rect x="164" y="35" width="2" height="4" rx="1" fill="#737278"/><rect x="44" y="36" width="78" height="8" rx="2" fill="#89888D"/><rect x="36" y="16" width="46" height="8" rx="2" fill="#535158"/><circle cx="278" cy="116" r="16" fill="#7B58CF"/><circle cx="278" cy="116" r="18" stroke="#7B58CF" stroke-opacity=".3" stroke-width="4"/><path d="M277.896 122.18c-1.212 0-2.172-.336-2.88-1.008-.708-.684-1.062-1.608-1.062-2.772h1.62c0 .72.21 1.29.63 1.71.42.42.99.63 1.71.63s1.29-.21 1.71-.63c.42-.42.63-.99.63-1.71v-.81c0-.72-.204-1.29-.612-1.71-.408-.42-.96-.63-1.656-.63h-3.582v-6.39h7.002v1.476h-5.49l.036 3.438h2.124c1.212 0 2.148.336 2.808 1.008.66.66.99 1.596.99 2.808v.81c0 1.164-.36 2.088-1.08 2.772-.708.672-1.674 1.008-2.898 1.008Z" fill="#fff"/><circle cx="358" cy="40" r="16" fill="#7B58CF"/><circle cx="358" cy="40" r="18" stroke="#7B58CF" stroke-opacity=".3" stroke-width="4"/><path d="M359.804 46v-2.88h-5.94v-2.538l4.788-7.722h1.836l-5.004 8.082v.702h4.32V38.44h1.62V46h-1.62Z" fill="#fff"/><circle cx="163" cy="61" r="16" fill="#7B58CF"/><circle cx="163" cy="61" r="18" stroke="#7B58CF" stroke-opacity=".3" stroke-width="4"/><path d="M162.806 67.18c-1.212 0-2.172-.336-2.88-1.008-.708-.684-1.062-1.608-1.062-2.772h1.62c0 .72.21 1.29.63 1.71.42.42.99.63 1.71.63s1.29-.21 1.71-.63c.42-.42.63-.99.63-1.71v-.9c0-.72-.21-1.29-.63-1.71-.42-.42-.99-.63-1.71-.63h-1.422v-1.404l3.222-3.42h-5.4V53.86h7.236v1.512l-3.6 3.834v-.486c1.212 0 2.166.342 2.862 1.026.708.672 1.062 1.59 1.062 2.754v.9c0 1.164-.36 2.088-1.08 2.772-.708.672-1.674 1.008-2.898 1.008Z" fill="#fff"/><circle cx="79" cy="68" r="16" fill="#7B58CF"/><circle cx="79" cy="68" r="18" stroke="#7B58CF" stroke-opacity=".3" stroke-width="4"/><path d="M75.151 74v-1.494l4.374-4.68c.636-.672 1.087-1.272 1.35-1.8.264-.528.397-1.044.397-1.548 0-.72-.21-1.29-.63-1.71-.408-.432-.966-.648-1.674-.648-.733 0-1.315.222-1.746.666-.42.432-.63 1.02-.63 1.764h-1.62c.024-.792.204-1.476.54-2.052a3.41 3.41 0 0 1 1.385-1.35c.588-.312 1.278-.468 2.07-.468.817 0 1.519.156 2.106.468a3.325 3.325 0 0 1 1.369 1.332c.324.564.486 1.236.486 2.016 0 .624-.174 1.284-.522 1.98-.337.696-.919 1.476-1.747 2.34l-3.546 3.708h5.977V74h-7.94Z" fill="#fff"/><circle cx="20" cy="20" r="16" fill="#7B58CF"/><circle cx="20" cy="20" r="18" stroke="#7B58CF" stroke-opacity=".3" stroke-width="4"/><path d="M16.224 26v-1.476h3.564v-10.26l-3.564 2.664v-1.854l2.97-2.214h2.213v11.664h2.916V26h-8.1Z" fill="#fff"/></svg>