<svg width="345" height="176" viewBox="0 0 345 176" fill="none" xmlns="http://www.w3.org/2000/svg">
<rect width="345" height="176" fill="white"/>
<rect x="26" y="29" width="138" height="22" rx="2" fill="white" stroke="#999999" stroke-width="2"/>
<rect x="198" y="29" width="138" height="22" rx="2" fill="white" stroke="#999999" stroke-width="2"/>
<circle cx="325" cy="40" r="6" fill="#666666"/>
<path d="M327.95 37.2929C327.559 36.9024 326.926 36.9024 326.536 37.2929L325.121 38.7071L323.707 37.2929C323.317 36.9024 322.683 36.9024 322.293 37.2929C321.902 37.6834 321.902 38.3166 322.293 38.7071L323.707 40.1213L322.293 41.5355C321.902 41.9261 321.902 42.5592 322.293 42.9497C322.683 43.3403 323.317 43.3403 323.707 42.9497L325.121 41.5355L326.536 42.9497C326.926 43.3403 327.559 43.3403 327.95 42.9497C328.34 42.5592 328.34 41.9261 327.95 41.5355L326.536 40.1213L327.95 38.7071C328.34 38.3166 328.34 37.6834 327.95 37.2929Z" fill="white"/>
<rect x="198" y="57" width="138" height="118" rx="2" fill="white" stroke="#999999" stroke-width="2"/>
<rect x="25" y="16" width="46" height="8" rx="2" fill="#666666"/>
<rect x="33" y="36" width="70" height="8" rx="2" fill="#BFBFBF"/>
<rect x="205" y="36" width="70" height="8" rx="2" fill="#BFBFBF"/>
<rect x="197" y="16" width="46" height="8" rx="2" fill="#666666"/>
<circle cx="20" cy="20" r="16" fill="#7B58CF"/>
<circle cx="20" cy="20" r="18" stroke="#7B58CF" stroke-opacity="0.3" stroke-width="4"/>
<path d="M16.9502 24.5146H19.71V14.6006L16.4053 16.1914V14.4863L19.6924 12.9219H21.4678V24.5146H24.1924V26H16.9502V24.5146Z" fill="white"/>
<circle cx="68" cy="62" r="16" fill="#7B58CF"/>
<circle cx="68" cy="62" r="18" stroke="#7B58CF" stroke-opacity="0.3" stroke-width="4"/>
<path d="M65.8555 66.5059H71.8848V68H63.9131V66.5059C65.0088 65.3516 65.9668 64.332 66.7871 63.4473C67.6074 62.5625 68.1729 61.9385 68.4834 61.5752C69.0693 60.8604 69.4648 60.2832 69.6699 59.8438C69.875 59.3984 69.9775 58.9443 69.9775 58.4814C69.9775 57.749 69.7607 57.1748 69.3271 56.7588C68.8994 56.3428 68.3105 56.1348 67.5605 56.1348C67.0273 56.1348 66.4678 56.2314 65.8818 56.4248C65.2959 56.6182 64.6748 56.9111 64.0186 57.3037V55.5107C64.6221 55.2236 65.2139 55.0068 65.7939 54.8604C66.3799 54.7139 66.957 54.6406 67.5254 54.6406C68.8086 54.6406 69.8398 54.9834 70.6191 55.6689C71.4043 56.3486 71.7969 57.2422 71.7969 58.3496C71.7969 58.9121 71.665 59.4746 71.4014 60.0371C71.1436 60.5996 70.7217 61.2207 70.1357 61.9004C69.8076 62.2812 69.3301 62.8086 68.7031 63.4824C68.082 64.1562 67.1328 65.1641 65.8555 66.5059Z" fill="white"/>
<circle cx="152" cy="62" r="16" fill="#7B58CF"/>
<circle cx="152" cy="62" r="18" stroke="#7B58CF" stroke-opacity="0.3" stroke-width="4"/>
<path d="M153.397 60.9775C154.259 61.2061 154.918 61.6133 155.375 62.1992C155.832 62.7793 156.061 63.5059 156.061 64.3789C156.061 65.5859 155.653 66.5352 154.839 67.2266C154.03 67.9121 152.908 68.2549 151.473 68.2549C150.869 68.2549 150.254 68.1992 149.627 68.0879C149 67.9766 148.385 67.8154 147.781 67.6045V65.8379C148.379 66.1484 148.968 66.3799 149.548 66.5322C150.128 66.6846 150.705 66.7607 151.279 66.7607C152.252 66.7607 152.999 66.541 153.521 66.1016C154.042 65.6621 154.303 65.0293 154.303 64.2031C154.303 63.4414 154.042 62.8379 153.521 62.3926C152.999 61.9414 152.293 61.7158 151.402 61.7158H150.049V60.2568H151.402C152.217 60.2568 152.853 60.0781 153.31 59.7207C153.767 59.3633 153.995 58.8652 153.995 58.2266C153.995 57.5527 153.781 57.0371 153.354 56.6797C152.932 56.3164 152.328 56.1348 151.543 56.1348C151.021 56.1348 150.482 56.1934 149.926 56.3105C149.369 56.4277 148.786 56.6035 148.177 56.8379V55.2031C148.886 55.0156 149.516 54.875 150.066 54.7812C150.623 54.6875 151.115 54.6406 151.543 54.6406C152.82 54.6406 153.84 54.9629 154.602 55.6074C155.369 56.2461 155.753 57.0957 155.753 58.1562C155.753 58.877 155.551 59.4775 155.146 59.958C154.748 60.4385 154.165 60.7783 153.397 60.9775Z" fill="white"/>
<circle cx="325" cy="62" r="16" fill="#7B58CF"/>
<circle cx="325" cy="62" r="18" stroke="#7B58CF" stroke-opacity="0.3" stroke-width="4"/>
<path d="M326.037 56.4951L321.897 63.4297H326.037V56.4951ZM325.747 54.8779H327.804V63.4297H329.553V64.8711H327.804V68H326.037V64.8711H320.474V63.1924L325.747 54.8779Z" fill="white"/>
<circle cx="267" cy="116" r="16" fill="#7B58CF"/>
<circle cx="267" cy="116" r="18" stroke="#7B58CF" stroke-opacity="0.3" stroke-width="4"/>
<path d="M263.396 108.878H270.041V110.372H265.014V113.598C265.266 113.504 265.518 113.437 265.77 113.396C266.027 113.349 266.285 113.325 266.543 113.325C267.902 113.325 268.98 113.727 269.777 114.529C270.574 115.332 270.973 116.419 270.973 117.79C270.973 119.173 270.554 120.263 269.716 121.06C268.884 121.856 267.744 122.255 266.297 122.255C265.6 122.255 264.961 122.208 264.381 122.114C263.807 122.021 263.291 121.88 262.834 121.692V119.891C263.373 120.184 263.915 120.403 264.46 120.55C265.005 120.69 265.562 120.761 266.13 120.761C267.108 120.761 267.861 120.503 268.389 119.987C268.922 119.472 269.188 118.739 269.188 117.79C269.188 116.853 268.913 116.123 268.362 115.602C267.817 115.08 267.056 114.819 266.077 114.819C265.603 114.819 265.14 114.875 264.688 114.986C264.237 115.092 263.807 115.253 263.396 115.47V108.878Z" fill="white"/>
<mask id="path-25-inside-1" fill="white">
<rect x="147" y="37" width="10" height="8" rx="1"/>
</mask>
<rect x="147" y="37" width="10" height="8" rx="1" stroke="#666666" stroke-width="4" mask="url(#path-25-inside-1)"/>
<rect x="149" y="35" width="2" height="4" rx="1" fill="#666666"/>
<rect x="153" y="35" width="2" height="4" rx="1" fill="#666666"/>
</svg>
