<svg width="378" height="176" viewBox="0 0 378 176" fill="none" xmlns="http://www.w3.org/2000/svg">
<rect width="378" height="176" fill="white"/>
<rect x="209" y="57" width="138" height="118" rx="2" fill="white" stroke="#A4A3A8" stroke-width="2"/>
<rect x="209" y="29" width="138" height="22" rx="2" fill="white"/>
<rect x="209" y="29" width="138" height="22" rx="2" stroke="#A4A3A8" stroke-width="2"/>
<circle cx="336" cy="40" r="6" fill="#666666"/>
<path d="M338.95 37.2929C338.559 36.9024 337.926 36.9024 337.536 37.2929L336.121 38.7071L334.707 37.2929C334.317 36.9024 333.683 36.9024 333.293 37.2929C332.902 37.6834 332.902 38.3166 333.293 38.7071L334.707 40.1213L333.293 41.5355C332.902 41.9261 332.902 42.5592 333.293 42.9497C333.683 43.3403 334.317 43.3403 334.707 42.9497L336.121 41.5355L337.536 42.9497C337.926 43.3403 338.559 43.3403 338.95 42.9497C339.34 42.5592 339.34 41.9261 338.95 41.5355L337.536 40.1213L338.95 38.7071C339.34 38.3166 339.34 37.6834 338.95 37.2929Z" fill="white"/>
<rect x="216" y="36" width="78" height="8" rx="2" fill="#89888D"/>
<rect x="208" y="16" width="46" height="8" rx="2" fill="#535158"/>
<rect x="37" y="29" width="138" height="22" rx="2" fill="white"/>
<rect x="37" y="29" width="138" height="22" rx="2" stroke="#A4A3A8" stroke-width="2"/>
<mask id="path-8-inside-1_671_12582" fill="white">
<rect x="158" y="37" width="10" height="8" rx="1"/>
</mask>
<rect x="158" y="37" width="10" height="8" rx="1" stroke="#737278" stroke-width="4" mask="url(#path-8-inside-1_671_12582)"/>
<rect x="160" y="35" width="2" height="4" rx="1" fill="#737278"/>
<rect x="164" y="35" width="2" height="4" rx="1" fill="#737278"/>
<rect x="44" y="36" width="78" height="8" rx="2" fill="#89888D"/>
<rect x="36" y="16" width="46" height="8" rx="2" fill="#535158"/>
<circle cx="278" cy="116" r="16" fill="#7B58CF"/>
<circle cx="278" cy="116" r="18" stroke="#7B58CF" stroke-opacity="0.3" stroke-width="4"/>
<path d="M277.896 122.18C276.684 122.18 275.724 121.844 275.016 121.172C274.308 120.488 273.954 119.564 273.954 118.4H275.574C275.574 119.12 275.784 119.69 276.204 120.11C276.624 120.53 277.194 120.74 277.914 120.74C278.634 120.74 279.204 120.53 279.624 120.11C280.044 119.69 280.254 119.12 280.254 118.4V117.59C280.254 116.87 280.05 116.3 279.642 115.88C279.234 115.46 278.682 115.25 277.986 115.25H274.404V108.86H281.406V110.336H275.916L275.952 113.774H278.076C279.288 113.774 280.224 114.11 280.884 114.782C281.544 115.442 281.874 116.378 281.874 117.59V118.4C281.874 119.564 281.514 120.488 280.794 121.172C280.086 121.844 279.12 122.18 277.896 122.18Z" fill="white"/>
<circle cx="358" cy="40" r="16" fill="#7B58CF"/>
<circle cx="358" cy="40" r="18" stroke="#7B58CF" stroke-opacity="0.3" stroke-width="4"/>
<path d="M359.804 46V43.12H353.864V40.582L358.652 32.86H360.488L355.484 40.942V41.644H359.804V38.44H361.424V46H359.804Z" fill="white"/>
<circle cx="163" cy="61" r="16" fill="#7B58CF"/>
<circle cx="163" cy="61" r="18" stroke="#7B58CF" stroke-opacity="0.3" stroke-width="4"/>
<path d="M162.806 67.18C161.594 67.18 160.634 66.844 159.926 66.172C159.218 65.488 158.864 64.564 158.864 63.4H160.484C160.484 64.12 160.694 64.69 161.114 65.11C161.534 65.53 162.104 65.74 162.824 65.74C163.544 65.74 164.114 65.53 164.534 65.11C164.954 64.69 165.164 64.12 165.164 63.4V62.5C165.164 61.78 164.954 61.21 164.534 60.79C164.114 60.37 163.544 60.16 162.824 60.16H161.402V58.756L164.624 55.336H159.224V53.86H166.46V55.372L162.86 59.206V58.72C164.072 58.72 165.026 59.062 165.722 59.746C166.43 60.418 166.784 61.336 166.784 62.5V63.4C166.784 64.564 166.424 65.488 165.704 66.172C164.996 66.844 164.03 67.18 162.806 67.18Z" fill="white"/>
<circle cx="79" cy="68" r="16" fill="#7B58CF"/>
<circle cx="79" cy="68" r="18" stroke="#7B58CF" stroke-opacity="0.3" stroke-width="4"/>
<path d="M75.1515 74V72.506L79.5255 67.826C80.1615 67.154 80.6115 66.554 80.8755 66.026C81.1395 65.498 81.2715 64.982 81.2715 64.478C81.2715 63.758 81.0615 63.188 80.6415 62.768C80.2335 62.336 79.6755 62.12 78.9675 62.12C78.2355 62.12 77.6535 62.342 77.2215 62.786C76.8015 63.218 76.5915 63.806 76.5915 64.55H74.9715C74.9955 63.758 75.1755 63.074 75.5115 62.498C75.8475 61.91 76.3095 61.46 76.8975 61.148C77.4855 60.836 78.1755 60.68 78.9675 60.68C79.7835 60.68 80.4855 60.836 81.0735 61.148C81.6615 61.46 82.1175 61.904 82.4415 62.48C82.7655 63.044 82.9275 63.716 82.9275 64.496C82.9275 65.12 82.7535 65.78 82.4055 66.476C82.0695 67.172 81.4875 67.952 80.6595 68.816L77.1135 72.524H83.0895V74H75.1515Z" fill="white"/>
<circle cx="20" cy="20" r="16" fill="#7B58CF"/>
<circle cx="20" cy="20" r="18" stroke="#7B58CF" stroke-opacity="0.3" stroke-width="4"/>
<path d="M16.2235 26V24.524H19.7875V14.264L16.2235 16.928V15.074L19.1935 12.86H21.4075V24.524H24.3235V26H16.2235Z" fill="white"/>
</svg>
