<svg width="803" height="112" viewBox="0 0 803 112" fill="none" xmlns="http://www.w3.org/2000/svg"><rect width="336" height="112" rx="4" fill="#FBFAFD"/><rect x="16" y="16" width="292" height="28" rx="4" fill="#ECECEF"/><rect x="23.5" y="21.5" width="17" height="17" rx="2.5" fill="#E9F3FC" stroke="#BFBFC3"/><path d="M51.092 35v-5.502h-2.24V28.35h2.24v-1.61c0-.607.191-1.083.574-1.428.383-.355.91-.532 1.582-.532h2.254v1.148h-2.254c-.29 0-.513.07-.672.21-.15.13-.224.331-.224.602v1.61h3.15v1.148h-3.15V35h-1.26Zm9.585.14c-.607 0-1.14-.121-1.596-.364a2.679 2.679 0 0 1-1.05-1.064c-.252-.467-.378-1.017-.378-1.652v-1.82c0-.644.126-1.195.378-1.652a2.586 2.586 0 0 1 1.05-1.05c.457-.252.989-.378 1.596-.378.606 0 1.134.121 1.582.364.457.243.812.583 1.064 1.022.252.439.378.957.378 1.554v1.372h-4.816v.728c0 .57.163 1.022.49 1.358.326.327.76.49 1.302.49.466 0 .849-.089 1.148-.266.308-.187.494-.434.56-.742h1.26c-.084.644-.397 1.157-.938 1.54-.542.373-1.218.56-2.03.56Zm1.792-4.522V30.1c0-.607-.16-1.073-.476-1.4-.308-.336-.747-.504-1.316-.504-.57 0-1.013.168-1.33.504-.308.327-.462.793-.462 1.4v.392h3.682l-.098.126Zm6.602 4.522c-.607 0-1.139-.121-1.596-.364a2.679 2.679 0 0 1-1.05-1.064c-.252-.467-.378-1.017-.378-1.652v-1.82c0-.644.126-1.195.378-1.652a2.586 2.586 0 0 1 1.05-1.05c.457-.252.99-.378 1.596-.378.607 0 1.134.121 1.582.364.457.243.812.583 1.064 1.022.252.439.378.957.378 1.554v1.372H67.28v.728c0 .57.163 1.022.49 1.358.327.327.76.49 1.302.49.467 0 .85-.089 1.148-.266.308-.187.495-.434.56-.742h1.26c-.084.644-.397 1.157-.938 1.54-.541.373-1.218.56-2.03.56Zm1.792-4.522V30.1c0-.607-.159-1.073-.476-1.4-.308-.336-.747-.504-1.316-.504-.57 0-1.013.168-1.33.504-.308.327-.462.793-.462 1.4v.392h3.682l-.098.126Zm6.155 4.522c-.766 0-1.382-.257-1.848-.77-.458-.513-.686-1.209-.686-2.086V30.03c0-.887.228-1.587.686-2.1.457-.513 1.073-.77 1.848-.77.634 0 1.148.173 1.54.518.392.345.588.807.588 1.386l-.28-.294h.28l-.028-1.75v-2.24h1.26V35h-1.26v-1.47h-.252l.252-.294c0 .588-.192 1.055-.574 1.4-.383.336-.892.504-1.526.504Zm.42-1.092c.522 0 .933-.163 1.232-.49.298-.327.448-.78.448-1.358v-2.1c0-.579-.15-1.031-.448-1.358-.299-.327-.71-.49-1.232-.49-.532 0-.948.14-1.246.42-.299.27-.448.723-.448 1.358v2.24c0 .625.149 1.078.448 1.358.298.28.714.42 1.246.42Zm8.87 1.092c-.635 0-1.143-.168-1.526-.504-.382-.345-.574-.812-.574-1.4l.252.294h-.252V35h-1.26V24.78h1.26v2.24l-.028 1.75h.28l-.28.294c0-.579.196-1.04.588-1.386.401-.345.915-.518 1.54-.518.775 0 1.39.257 1.848.77.457.513.686 1.213.686 2.1v2.254c0 .877-.228 1.573-.686 2.086-.457.513-1.073.77-1.848.77Zm-.42-1.092c.532 0 .947-.14 1.246-.42.299-.28.448-.733.448-1.358v-2.24c0-.635-.15-1.087-.448-1.358-.299-.28-.714-.42-1.246-.42-.513 0-.924.163-1.232.49-.299.327-.448.78-.448 1.358v2.1c0 .579.15 1.031.448 1.358.308.327.719.49 1.232.49Zm7.695 1.092c-.794 0-1.424-.22-1.89-.658-.467-.448-.7-1.031-.7-1.75 0-.476.107-.891.322-1.246a2.19 2.19 0 0 1 .896-.826 2.74 2.74 0 0 1 1.316-.308h2.38v-.602c0-.504-.136-.877-.406-1.12-.271-.252-.682-.378-1.232-.378-.486 0-.878.089-1.176.266-.299.177-.458.425-.476.742h-1.26c.046-.607.326-1.106.84-1.498.522-.401 1.213-.602 2.072-.602.933 0 1.647.224 2.142.672.504.448.756 1.073.756 1.876V35H95.92v-1.4h-.21l.196-.28c0 .373-.094.695-.28.966-.187.27-.453.48-.798.63-.346.15-.761.224-1.246.224Zm.308-1.064c.616 0 1.106-.15 1.47-.448.364-.299.546-.705.546-1.218v-1.078h-2.24c-.411 0-.747.126-1.008.378-.252.243-.378.57-.378.98 0 .43.14.77.42 1.022.289.243.686.364 1.19.364Zm8.87 1.064c-.616 0-1.157-.117-1.624-.35a2.617 2.617 0 0 1-1.078-1.008c-.252-.448-.378-.975-.378-1.582v-2.1c0-.616.126-1.143.378-1.582a2.617 2.617 0 0 1 1.078-1.008c.467-.233 1.008-.35 1.624-.35.887 0 1.601.238 2.142.714.551.476.84 1.125.868 1.946h-1.26c-.028-.495-.196-.873-.504-1.134-.308-.27-.723-.406-1.246-.406-.55 0-.994.159-1.33.476-.326.308-.49.751-.49 1.33V32.2c0 .579.164 1.027.49 1.344.336.317.78.476 1.33.476.523 0 .938-.135 1.246-.406.308-.27.476-.649.504-1.134h1.26c-.028.821-.317 1.47-.868 1.946-.541.476-1.255.714-2.142.714Zm5.441-.14V24.78h1.26v5.698h1.47l2.156-3.178h1.442l-2.478 3.668L114.67 35h-1.47l-2.24-3.43h-1.498V35h-1.26Zm11.236.14c-.345 0-.625-.103-.84-.308-.205-.205-.308-.471-.308-.798 0-.345.103-.625.308-.84.215-.215.495-.322.84-.322.346 0 .621.107.826.322.215.215.322.495.322.84 0 .327-.107.593-.322.798-.205.205-.48.308-.826.308Zm5.385-.14v-1.148h2.73v-5.404h-2.45V27.3h3.71v6.552h2.59V35h-6.58Zm3.22-9.086c-.308 0-.551-.08-.728-.238-.178-.159-.266-.373-.266-.644 0-.28.088-.5.266-.658.177-.168.42-.252.728-.252s.55.084.728.252c.177.159.266.378.266.658 0 .27-.089.485-.266.644-.178.159-.42.238-.728.238ZM133.315 35v-7.7h1.26v1.47h.266l-.266.294c0-.607.182-1.073.546-1.4.364-.336.868-.504 1.512-.504.775 0 1.391.238 1.848.714.458.476.686 1.125.686 1.946V35h-1.26v-4.956c0-.588-.149-1.036-.448-1.344-.289-.317-.686-.476-1.19-.476-.522 0-.938.163-1.246.49-.298.327-.448.789-.448 1.386V35h-1.26Zm10.117 0v-5.502h-2.24V28.35h2.24v-1.61c0-.607.191-1.083.574-1.428.383-.355.91-.532 1.582-.532h2.254v1.148h-2.254c-.289 0-.513.07-.672.21-.149.13-.224.331-.224.602v1.61h3.15v1.148h-3.15V35h-1.26Zm9.584.112c-.616 0-1.152-.121-1.61-.364a2.586 2.586 0 0 1-1.05-1.05c-.242-.467-.364-1.022-.364-1.666v-1.764c0-.653.122-1.209.364-1.666a2.586 2.586 0 0 1 1.05-1.05c.458-.243.994-.364 1.61-.364.626 0 1.162.121 1.61.364.448.243.794.593 1.036 1.05.252.457.378 1.013.378 1.666v1.764c0 .644-.126 1.2-.378 1.666a2.471 2.471 0 0 1-1.05 1.05c-.448.243-.98.364-1.596.364Zm0-1.12c.551 0 .98-.154 1.288-.462.318-.308.476-.76.476-1.358v-2.044c0-.597-.158-1.05-.476-1.358-.308-.308-.737-.462-1.288-.462-.541 0-.97.154-1.288.462-.317.308-.476.76-.476 1.358v2.044c0 .597.159 1.05.476 1.358.318.308.747.462 1.288.462Zm8.395 1.148c-.345 0-.625-.103-.84-.308-.205-.205-.308-.471-.308-.798 0-.345.103-.625.308-.84.215-.215.495-.322.84-.322s.621.107.826.322c.215.215.322.495.322.84 0 .327-.107.593-.322.798-.205.205-.481.308-.826.308Zm8.842 0c-.634 0-1.143-.168-1.526-.504-.382-.345-.574-.812-.574-1.4l.252.294h-.252V35h-1.26V24.78h1.26v2.24l-.028 1.75h.28l-.28.294c0-.579.196-1.04.588-1.386.402-.345.915-.518 1.54-.518.775 0 1.391.257 1.848.77.458.513.686 1.213.686 2.1v2.254c0 .877-.228 1.573-.686 2.086-.457.513-1.073.77-1.848.77Zm-.42-1.092c.532 0 .948-.14 1.246-.42.299-.28.448-.733.448-1.358v-2.24c0-.635-.149-1.087-.448-1.358-.298-.28-.714-.42-1.246-.42-.513 0-.924.163-1.232.49-.298.327-.448.78-.448 1.358v2.1c0 .579.15 1.031.448 1.358.308.327.719.49 1.232.49Zm7.695 1.092c-.793 0-1.423-.22-1.89-.658-.467-.448-.7-1.031-.7-1.75 0-.476.107-.891.322-1.246a2.19 2.19 0 0 1 .896-.826 2.74 2.74 0 0 1 1.316-.308h2.38v-.602c0-.504-.135-.877-.406-1.12-.271-.252-.681-.378-1.232-.378-.485 0-.877.089-1.176.266-.299.177-.457.425-.476.742h-1.26c.047-.607.327-1.106.84-1.498.523-.401 1.213-.602 2.072-.602.933 0 1.647.224 2.142.672.504.448.756 1.073.756 1.876V35h-1.246v-1.4h-.21l.196-.28c0 .373-.093.695-.28.966-.187.27-.453.48-.798.63-.345.15-.761.224-1.246.224Zm.308-1.064c.616 0 1.106-.15 1.47-.448.364-.299.546-.705.546-1.218v-1.078h-2.24c-.411 0-.747.126-1.008.378-.252.243-.378.57-.378.98 0 .43.14.77.42 1.022.289.243.686.364 1.19.364Zm8.871 1.064c-.616 0-1.158-.117-1.624-.35a2.605 2.605 0 0 1-1.078-1.008c-.252-.448-.378-.975-.378-1.582v-2.1c0-.616.126-1.143.378-1.582a2.6 2.6 0 0 1 1.078-1.008c.466-.233 1.008-.35 1.624-.35.886 0 1.6.238 2.142.714.55.476.84 1.125.868 1.946h-1.26c-.028-.495-.196-.873-.504-1.134-.308-.27-.724-.406-1.246-.406-.551 0-.994.159-1.33.476-.327.308-.49.751-.49 1.33V32.2c0 .579.163 1.027.49 1.344.336.317.779.476 1.33.476.522 0 .938-.135 1.246-.406.308-.27.476-.649.504-1.134h1.26c-.028.821-.318 1.47-.868 1.946-.542.476-1.256.714-2.142.714Zm5.44-.14V24.78h1.26v5.698h1.47l2.156-3.178h1.442l-2.478 3.668L198.615 35h-1.47l-2.24-3.43h-1.498V35h-1.26Zm9.291 2.52v-1.148h2.17c.438 0 .784-.126 1.036-.378.252-.243.378-.574.378-.994v-.7l.028-1.26h-.252l.238-.35c0 .56-.187.999-.56 1.316-.374.308-.873.462-1.498.462-.794 0-1.419-.252-1.876-.756-.458-.504-.686-1.195-.686-2.072v-1.624c0-.877.228-1.573.686-2.086.457-.513 1.082-.77 1.876-.77.625 0 1.124.163 1.498.49.373.327.56.77.56 1.33l-.238-.35h.238V27.3h1.246V35c0 .775-.243 1.386-.728 1.834-.476.457-1.13.686-1.96.686h-2.156Zm1.918-4.102c.522 0 .933-.163 1.232-.49.298-.327.448-.78.448-1.358V30.1c0-.579-.15-1.031-.448-1.358-.299-.327-.71-.49-1.232-.49-.532 0-.948.154-1.246.462-.29.308-.434.723-.434 1.246v1.75c0 .523.144.938.434 1.246.298.308.714.462 1.246.462Zm5.79 1.582v-7.7h1.26v1.47h.266l-.266.336c0-.597.182-1.069.546-1.414.373-.355.887-.532 1.54-.532.803 0 1.419.243 1.848.728.439.476.658 1.157.658 2.044v.658h-1.26v-.658c0-.57-.14-.99-.42-1.26-.28-.28-.686-.42-1.218-.42-.551 0-.971.159-1.26.476-.289.317-.434.775-.434 1.372V35h-1.26Zm11.027.112c-.616 0-1.153-.121-1.61-.364a2.586 2.586 0 0 1-1.05-1.05c-.243-.467-.364-1.022-.364-1.666v-1.764c0-.653.121-1.209.364-1.666a2.586 2.586 0 0 1 1.05-1.05c.457-.243.994-.364 1.61-.364.625 0 1.162.121 1.61.364a2.5 2.5 0 0 1 1.036 1.05c.252.457.378 1.013.378 1.666v1.764c0 .644-.126 1.2-.378 1.666a2.482 2.482 0 0 1-1.05 1.05c-.448.243-.98.364-1.596.364Zm0-1.12c.55 0 .98-.154 1.288-.462.317-.308.476-.76.476-1.358v-2.044c0-.597-.159-1.05-.476-1.358-.308-.308-.738-.462-1.288-.462-.542 0-.971.154-1.288.462-.318.308-.476.76-.476 1.358v2.044c0 .597.158 1.05.476 1.358.317.308.746.462 1.288.462Zm8.38 1.148c-.886 0-1.596-.261-2.128-.784-.532-.532-.798-1.25-.798-2.156v-4.9h1.26v4.9c0 .56.15 1.008.448 1.344.299.327.705.49 1.218.49.523 0 .934-.163 1.232-.49.308-.336.462-.784.462-1.344v-4.9h1.26v4.9c0 .905-.27 1.624-.812 2.156-.541.523-1.255.784-2.142.784Zm5.497-.14v-7.7h1.26v1.47h.266l-.266.294c0-.607.182-1.073.546-1.4.364-.336.868-.504 1.512-.504.774 0 1.39.238 1.848.714.457.476.686 1.125.686 1.946V35h-1.26v-4.956c0-.588-.15-1.036-.448-1.344-.29-.317-.686-.476-1.19-.476-.523 0-.938.163-1.246.49-.299.327-.448.789-.448 1.386V35h-1.26Zm10.858.14c-.765 0-1.381-.257-1.848-.77-.457-.513-.686-1.209-.686-2.086V30.03c0-.887.229-1.587.686-2.1.458-.513 1.074-.77 1.848-.77.635 0 1.148.173 1.54.518.392.345.588.807.588 1.386l-.28-.294h.28l-.028-1.75v-2.24h1.26V35h-1.26v-1.47h-.252l.252-.294c0 .588-.191 1.055-.574 1.4-.382.336-.891.504-1.526.504Zm.42-1.092c.523 0 .934-.163 1.232-.49.299-.327.448-.78.448-1.358v-2.1c0-.579-.149-1.031-.448-1.358-.298-.327-.709-.49-1.232-.49-.532 0-.947.14-1.246.42-.298.27-.448.723-.448 1.358v2.24c0 .625.15 1.078.448 1.358.299.28.714.42 1.246.42Zm8.423 1.092c-.346 0-.626-.103-.84-.308-.206-.205-.308-.471-.308-.798 0-.345.102-.625.308-.84.214-.215.494-.322.84-.322.345 0 .62.107.826.322.214.215.322.495.322.84 0 .327-.108.593-.322.798-.206.205-.481.308-.826.308Zm8.506 0c-.616 0-1.157-.117-1.624-.35a2.617 2.617 0 0 1-1.078-1.008c-.252-.448-.378-.975-.378-1.582v-2.1c0-.616.126-1.143.378-1.582a2.617 2.617 0 0 1 1.078-1.008c.467-.233 1.008-.35 1.624-.35.887 0 1.601.238 2.142.714.551.476.84 1.125.868 1.946h-1.26c-.028-.495-.196-.873-.504-1.134-.308-.27-.723-.406-1.246-.406-.55 0-.994.159-1.33.476-.326.308-.49.751-.49 1.33V32.2c0 .579.164 1.027.49 1.344.336.317.78.476 1.33.476.523 0 .938-.135 1.246-.406.308-.27.476-.649.504-1.134h1.26c-.028.821-.317 1.47-.868 1.946-.541.476-1.255.714-2.142.714Zm8.283-.028c-.616 0-1.153-.121-1.61-.364a2.586 2.586 0 0 1-1.05-1.05c-.243-.467-.364-1.022-.364-1.666v-1.764c0-.653.121-1.209.364-1.666a2.586 2.586 0 0 1 1.05-1.05c.457-.243.994-.364 1.61-.364.625 0 1.162.121 1.61.364a2.5 2.5 0 0 1 1.036 1.05c.252.457.378 1.013.378 1.666v1.764c0 .644-.126 1.2-.378 1.666a2.482 2.482 0 0 1-1.05 1.05c-.448.243-.98.364-1.596.364Zm0-1.12c.551 0 .98-.154 1.288-.462.317-.308.476-.76.476-1.358v-2.044c0-.597-.159-1.05-.476-1.358-.308-.308-.737-.462-1.288-.462-.541 0-.971.154-1.288.462-.317.308-.476.76-.476 1.358v2.044c0 .597.159 1.05.476 1.358.317.308.747.462 1.288.462ZM280.054 35c-.448 0-.84-.089-1.176-.266a1.914 1.914 0 0 1-.784-.756c-.186-.327-.28-.71-.28-1.148v-6.902h-2.66V24.78h3.92v8.05c0 .317.089.57.266.756.178.177.416.266.714.266h2.38V35h-2.38Zm7.275.112c-.616 0-1.153-.121-1.61-.364a2.586 2.586 0 0 1-1.05-1.05c-.243-.467-.364-1.022-.364-1.666v-1.764c0-.653.121-1.209.364-1.666a2.586 2.586 0 0 1 1.05-1.05c.457-.243.994-.364 1.61-.364.625 0 1.162.121 1.61.364a2.5 2.5 0 0 1 1.036 1.05c.252.457.378 1.013.378 1.666v1.764c0 .644-.126 1.2-.378 1.666a2.482 2.482 0 0 1-1.05 1.05c-.448.243-.98.364-1.596.364Zm0-1.12c.551 0 .98-.154 1.288-.462.317-.308.476-.76.476-1.358v-2.044c0-.597-.159-1.05-.476-1.358-.308-.308-.737-.462-1.288-.462-.541 0-.971.154-1.288.462-.317.308-.476.76-.476 1.358v2.044c0 .597.159 1.05.476 1.358.317.308.747.462 1.288.462ZM293.091 35v-7.7h1.26v1.47h.266l-.266.336c0-.597.182-1.069.546-1.414.374-.355.887-.532 1.54-.532.803 0 1.419.243 1.848.728.439.476.658 1.157.658 2.044v.658h-1.26v-.658c0-.57-.14-.99-.42-1.26-.28-.28-.686-.42-1.218-.42-.55 0-.97.159-1.26.476-.289.317-.434.775-.434 1.372V35h-1.26Z" fill="#333238"/><path stroke="#7B58CF" stroke-width="2" stroke-linecap="round" d="M49 63h107M49 63V49m107 14V49"/><rect x="73" y="72" width="59" height="24" rx="12" fill="#7B58CF"/><path d="M84.592 88.14c-1.781 0-2.983-1.353-2.983-3.374 0-2.051 1.202-3.399 2.983-3.399 1.265 0 2.297.668 2.654 1.81l-1.014.288c-.193-.674-.779-1.154-1.64-1.154-1.307 0-1.91 1.148-1.91 2.455 0 1.289.603 2.431 1.91 2.431.879 0 1.476-.498 1.67-1.207l1.007.287c-.351 1.166-1.394 1.864-2.677 1.864Zm6.855 0c-1.781 0-2.982-1.353-2.982-3.374 0-2.051 1.201-3.399 2.982-3.399 1.787 0 2.994 1.348 2.994 3.399 0 2.021-1.207 3.375-2.994 3.375Zm0-.943c1.325 0 1.928-1.142 1.928-2.431 0-1.301-.603-2.456-1.928-2.456-1.306 0-1.91 1.149-1.91 2.456 0 1.289.604 2.431 1.91 2.431Zm5.584-3.123V88h-1.054v-6.55h1.013l.006 1.587h-.146c.398-1.207 1.16-1.67 2.15-1.67 1.324 0 2.221.815 2.221 2.473V88h-1.061v-4.072c0-1.008-.562-1.612-1.476-1.612-.944 0-1.653.64-1.653 1.758Zm8.625-2.625v.903h-3.386v-.903h3.386Zm-2.402-1.558h1.055v6.41c0 .586.216.843.773.843.135 0 .363-.035.539-.07l.217.89a2.54 2.54 0 0 1-.785.118c-1.131 0-1.799-.627-1.799-1.7v-6.491Zm6.387 8.25c-1.899 0-3.071-1.348-3.071-3.364 0-2.01 1.16-3.41 2.948-3.41 1.388 0 2.853.856 2.853 3.276v.439h-5.086v-.89h4.518l-.492.328c0-1.29-.61-2.215-1.793-2.215-1.184 0-1.881.978-1.881 2.045v.591c0 1.46.808 2.262 2.009 2.262.774 0 1.354-.34 1.6-1.008l1.02.282c-.305.99-1.284 1.664-2.625 1.664Zm3.427-.141 2.584-3.768-.006.809-2.443-3.592h1.231l.814 1.272c.422.656.697 1.218 1.025 1.746h-.55c.334-.528.562-1.09.99-1.746l.832-1.272h1.207l-2.455 3.639v-.78l2.56 3.692h-1.224l-.961-1.47c-.416-.64-.68-1.178-1.002-1.688h.557c-.323.51-.545 1.049-.967 1.687L114.287 88h-1.219Zm9.909-6.55v.902h-3.387v-.903h3.387Zm-2.403-1.56h1.055v6.41c0 .587.217.844.773.844.135 0 .364-.035.539-.07l.217.89a2.536 2.536 0 0 1-.785.118c-1.131 0-1.799-.627-1.799-1.7v-6.491Z" fill="#fff"/><path stroke="#7B58CF" stroke-width="2" stroke-linecap="round" d="M166 63h83m-83 0V49m83 14V49"/><rect x="176.5" y="72" width="62" height="24" rx="12" fill="#7B58CF"/><path d="M188.18 88.14c-1.899 0-3.071-1.347-3.071-3.363 0-2.01 1.161-3.41 2.948-3.41 1.388 0 2.853.856 2.853 3.276v.439h-5.086v-.89h4.518l-.492.328c0-1.29-.61-2.215-1.793-2.215-1.184 0-1.881.978-1.881 2.045v.591c0 1.46.808 2.262 2.01 2.262.773 0 1.353-.34 1.599-1.008l1.02.282c-.305.99-1.284 1.664-2.625 1.664Zm5.713-.093c-.985 0-1.471-.55-1.471-1.5v-7.278h1.055v7.014c0 .604.105.82.544.82.229 0 .323-.017.422-.046l.211.89c-.187.053-.48.1-.761.1Zm4.412.094c-1.899 0-3.071-1.348-3.071-3.364 0-2.01 1.161-3.41 2.948-3.41 1.388 0 2.853.856 2.853 3.276v.439h-5.086v-.89h4.518l-.492.328c0-1.29-.61-2.215-1.793-2.215-1.184 0-1.881.978-1.881 2.045v.591c0 1.46.808 2.262 2.01 2.262.773 0 1.353-.34 1.599-1.008l1.02.282c-.305.99-1.284 1.664-2.625 1.664Zm4.242-.141v-6.55h1.025l.006 1.464h-.082c.264-1.06 1.066-1.582 1.916-1.582.949 0 1.553.645 1.729 1.594H207c.234-.979 1.102-1.594 2.145-1.594 1.136 0 2.062.733 2.062 2.25V88h-1.061v-4.389c0-.943-.615-1.318-1.318-1.318-.885 0-1.424.603-1.424 1.43V88h-1.054v-4.494c0-.727-.545-1.213-1.284-1.213-.767 0-1.464.539-1.464 1.582V88h-1.055Zm13.265.14c-1.898 0-3.07-1.347-3.07-3.363 0-2.01 1.16-3.41 2.947-3.41 1.389 0 2.854.856 2.854 3.276v.439h-5.086v-.89h4.518l-.493.328c0-1.29-.609-2.215-1.793-2.215-1.183 0-1.88.978-1.88 2.045v.591c0 1.46.808 2.262 2.009 2.262.774 0 1.354-.34 1.6-1.008l1.02.282c-.305.99-1.284 1.664-2.626 1.664Zm5.297-4.066V88h-1.054v-6.55h1.013l.006 1.587h-.146c.398-1.207 1.16-1.67 2.15-1.67 1.324 0 2.221.815 2.221 2.473V88h-1.061v-4.072c0-1.008-.562-1.612-1.476-1.612-.944 0-1.653.64-1.653 1.758Zm8.625-2.625v.903h-3.386v-.903h3.386Zm-2.402-1.558h1.055v6.41c0 .586.217.843.773.843.135 0 .363-.035.539-.07l.217.89a2.54 2.54 0 0 1-.785.118c-1.131 0-1.799-.627-1.799-1.7v-6.491Z" fill="#fff"/><path stroke="#7B58CF" stroke-width="2" stroke-linecap="round" d="M259 63h48m-48 0V49m48 14V49"/><rect x="245.5" y="72" width="75" height="24" rx="12" fill="#7B58CF"/><path d="M254.426 90.45v-9h1.019v1.048h.117c.217-.346.622-1.13 1.899-1.13 1.635 0 2.777 1.3 2.777 3.374 0 2.086-1.136 3.399-2.771 3.399-1.248 0-1.688-.791-1.905-1.155h-.082v3.463h-1.054Zm2.883-3.253c1.224 0 1.857-1.09 1.857-2.466 0-1.36-.615-2.42-1.857-2.42-1.207 0-1.84.972-1.84 2.42 0 1.459.65 2.466 1.84 2.466Zm4.464.803v-6.55h1.02v1.007h.07c.241-.662.92-1.101 1.699-1.101.153 0 .411.011.534.017v1.06a4.003 4.003 0 0 0-.633-.058c-.943 0-1.635.639-1.635 1.523V88h-1.055Zm6.991.14c-1.782 0-2.983-1.353-2.983-3.374 0-2.051 1.201-3.399 2.983-3.399 1.787 0 2.994 1.348 2.994 3.399 0 2.021-1.207 3.375-2.994 3.375Zm0-.943c1.324 0 1.927-1.142 1.927-2.431 0-1.301-.603-2.456-1.927-2.456-1.307 0-1.91 1.149-1.91 2.456 0 1.289.603 2.431 1.91 2.431Zm4.529 3.252v-9h1.019v1.049h.118c.216-.346.621-1.13 1.898-1.13 1.635 0 2.777 1.3 2.777 3.374 0 2.086-1.136 3.399-2.771 3.399-1.248 0-1.688-.791-1.904-1.155h-.082v3.463h-1.055Zm2.883-3.252c1.224 0 1.857-1.09 1.857-2.466 0-1.36-.615-2.42-1.857-2.42-1.207 0-1.84.972-1.84 2.42 0 1.459.65 2.466 1.84 2.466Zm7.219.944c-1.899 0-3.071-1.348-3.071-3.364 0-2.01 1.16-3.41 2.947-3.41 1.389 0 2.854.856 2.854 3.276v.439h-5.086v-.89h4.518l-.493.328c0-1.29-.609-2.215-1.793-2.215-1.183 0-1.88.978-1.88 2.045v.591c0 1.46.808 2.262 2.009 2.262.774 0 1.354-.34 1.6-1.008l1.02.282c-.305.99-1.284 1.664-2.625 1.664Zm4.242-.141v-6.55h1.019v1.007h.071c.24-.662.919-1.101 1.699-1.101.152 0 .41.011.533.017v1.06a3.989 3.989 0 0 0-.633-.058c-.943 0-1.635.639-1.635 1.523V88h-1.054Zm7.289-6.55v.902h-3.387v-.903h3.387Zm-2.403-1.56h1.055v6.41c0 .587.217.844.774.844.134 0 .363-.035.539-.07l.216.89a2.531 2.531 0 0 1-.785.118c-1.131 0-1.799-.627-1.799-1.7v-6.491Zm3.75 8.11v-6.55h1.055V88h-1.055Zm.534-7.623c-.399 0-.733-.31-.733-.697 0-.387.334-.698.733-.698.404 0 .738.311.738.698 0 .386-.334.697-.738.697Zm5.127 7.764c-1.899 0-3.071-1.348-3.071-3.364 0-2.01 1.16-3.41 2.948-3.41 1.388 0 2.853.856 2.853 3.276v.439h-5.086v-.89h4.518l-.492.328c0-1.29-.61-2.215-1.793-2.215-1.184 0-1.881.978-1.881 2.045v.591c0 1.46.808 2.262 2.009 2.262.774 0 1.354-.34 1.6-1.008l1.02.282c-.305.99-1.284 1.664-2.625 1.664Zm6.468 0c-1.347 0-2.285-.598-2.519-1.729l1.002-.24c.187.72.72 1.043 1.506 1.043.914 0 1.5-.451 1.5-.99 0-.452-.317-.75-.961-.903l-1.09-.258c-1.19-.28-1.758-.867-1.758-1.787 0-1.125 1.031-1.91 2.426-1.91 1.347 0 2.056.656 2.355 1.576l-.955.246c-.181-.468-.551-.925-1.394-.925-.78 0-1.366.404-1.366.949 0 .486.334.756 1.102.937l.99.235c1.19.281 1.746.873 1.746 1.77 0 1.148-1.048 1.986-2.584 1.986Z" fill="#fff"/><rect x="344" width="459" height="112" rx="4" fill="#FBFAFD"/><rect x="360" y="16" width="427" height="28" rx="4" fill="#ECECEF"/><rect x="368" y="22" width="16" height="16" rx="2" fill="#1F75CB"/><path d="M395.954 35.14c-.794 0-1.424-.22-1.89-.658-.467-.448-.7-1.031-.7-1.75 0-.476.107-.891.322-1.246.214-.355.513-.63.896-.826a2.738 2.738 0 0 1 1.316-.308h2.38v-.602c0-.504-.136-.877-.406-1.12-.271-.252-.682-.378-1.232-.378-.486 0-.878.089-1.176.266-.299.177-.458.425-.476.742h-1.26c.046-.607.326-1.106.84-1.498.522-.401 1.213-.602 2.072-.602.933 0 1.647.224 2.142.672.504.448.756 1.073.756 1.876V35h-1.246v-1.4h-.21l.196-.28c0 .373-.094.695-.28.966-.187.27-.453.48-.798.63-.346.15-.761.224-1.246.224Zm.308-1.064c.616 0 1.106-.15 1.47-.448.364-.299.546-.705.546-1.218v-1.078h-2.24c-.411 0-.747.126-1.008.378-.252.243-.378.57-.378.98 0 .43.14.77.42 1.022.289.243.686.364 1.19.364Zm8.87 1.064c-.616 0-1.157-.117-1.624-.35a2.617 2.617 0 0 1-1.078-1.008c-.252-.448-.378-.975-.378-1.582v-2.1c0-.616.126-1.143.378-1.582a2.617 2.617 0 0 1 1.078-1.008c.467-.233 1.008-.35 1.624-.35.887 0 1.601.238 2.142.714.551.476.84 1.125.868 1.946h-1.26c-.028-.495-.196-.873-.504-1.134-.308-.27-.723-.406-1.246-.406-.55 0-.994.159-1.33.476-.326.308-.49.751-.49 1.33V32.2c0 .579.164 1.027.49 1.344.336.317.78.476 1.33.476.523 0 .938-.135 1.246-.406.308-.27.476-.649.504-1.134h1.26c-.028.821-.317 1.47-.868 1.946-.541.476-1.255.714-2.142.714Zm9.053-.14c-.635 0-1.143-.182-1.526-.546-.383-.373-.574-.868-.574-1.484v-4.522h-2.212V27.3h2.212v-2.17h1.26v2.17h3.15v1.148h-3.15v4.522c0 .261.075.476.224.644a.834.834 0 0 0 .616.238h2.24V35h-2.24Zm4.614 0v-1.148h2.73v-5.404h-2.45V27.3h3.71v6.552h2.59V35h-6.58Zm3.22-9.086c-.308 0-.55-.08-.728-.238-.177-.159-.266-.373-.266-.644 0-.28.089-.5.266-.658.178-.168.42-.252.728-.252s.551.084.728.252c.178.159.266.378.266.658 0 .27-.088.485-.266.644-.177.159-.42.238-.728.238Zm8.185 9.198c-.616 0-1.153-.121-1.61-.364a2.586 2.586 0 0 1-1.05-1.05c-.243-.467-.364-1.022-.364-1.666v-1.764c0-.653.121-1.209.364-1.666a2.586 2.586 0 0 1 1.05-1.05c.457-.243.994-.364 1.61-.364.625 0 1.162.121 1.61.364a2.5 2.5 0 0 1 1.036 1.05c.252.457.378 1.013.378 1.666v1.764c0 .644-.126 1.2-.378 1.666a2.482 2.482 0 0 1-1.05 1.05c-.448.243-.98.364-1.596.364Zm0-1.12c.551 0 .98-.154 1.288-.462.317-.308.476-.76.476-1.358v-2.044c0-.597-.159-1.05-.476-1.358-.308-.308-.737-.462-1.288-.462-.541 0-.971.154-1.288.462-.317.308-.476.76-.476 1.358v2.044c0 .597.159 1.05.476 1.358.317.308.747.462 1.288.462ZM435.686 35v-7.7h1.26v1.47h.266l-.266.294c0-.607.182-1.073.546-1.4.364-.336.868-.504 1.512-.504.775 0 1.391.238 1.848.714.458.476.686 1.125.686 1.946V35h-1.26v-4.956c0-.588-.149-1.036-.448-1.344-.289-.317-.686-.476-1.19-.476-.522 0-.938.163-1.246.49-.298.327-.448.789-.448 1.386V35h-1.26Zm11.307.14c-.345 0-.625-.103-.84-.308-.205-.205-.308-.471-.308-.798 0-.345.103-.625.308-.84.215-.215.495-.322.84-.322s.621.107.826.322c.215.215.322.495.322.84 0 .327-.107.593-.322.798-.205.205-.481.308-.826.308Zm8.507 0c-.616 0-1.158-.117-1.624-.35a2.605 2.605 0 0 1-1.078-1.008c-.252-.448-.378-.975-.378-1.582v-2.1c0-.616.126-1.143.378-1.582a2.6 2.6 0 0 1 1.078-1.008c.466-.233 1.008-.35 1.624-.35.886 0 1.6.238 2.142.714.55.476.84 1.125.868 1.946h-1.26c-.028-.495-.196-.873-.504-1.134-.308-.27-.724-.406-1.246-.406-.551 0-.994.159-1.33.476-.327.308-.49.751-.49 1.33V32.2c0 .579.163 1.027.49 1.344.336.317.779.476 1.33.476.522 0 .938-.135 1.246-.406.308-.27.476-.649.504-1.134h1.26c-.028.821-.318 1.47-.868 1.946-.542.476-1.256.714-2.142.714Zm8.282-.028c-.616 0-1.153-.121-1.61-.364a2.586 2.586 0 0 1-1.05-1.05c-.243-.467-.364-1.022-.364-1.666v-1.764c0-.653.121-1.209.364-1.666a2.586 2.586 0 0 1 1.05-1.05c.457-.243.994-.364 1.61-.364.625 0 1.162.121 1.61.364a2.5 2.5 0 0 1 1.036 1.05c.252.457.378 1.013.378 1.666v1.764c0 .644-.126 1.2-.378 1.666a2.482 2.482 0 0 1-1.05 1.05c-.448.243-.98.364-1.596.364Zm0-1.12c.551 0 .98-.154 1.288-.462.317-.308.476-.76.476-1.358v-2.044c0-.597-.159-1.05-.476-1.358-.308-.308-.737-.462-1.288-.462-.541 0-.971.154-1.288.462-.317.308-.476.76-.476 1.358v2.044c0 .597.159 1.05.476 1.358.317.308.747.462 1.288.462ZM469.265 35v-7.7h1.26v1.47h.266l-.266.294c0-.607.182-1.073.546-1.4.364-.336.868-.504 1.512-.504.774 0 1.39.238 1.848.714.457.476.686 1.125.686 1.946V35h-1.26v-4.956c0-.588-.15-1.036-.448-1.344-.29-.317-.686-.476-1.19-.476-.523 0-.938.163-1.246.49-.299.327-.448.789-.448 1.386V35h-1.26Zm10.116 0v-5.502h-2.24V28.35h2.24v-1.61c0-.607.191-1.083.574-1.428.383-.355.91-.532 1.582-.532h2.254v1.148h-2.254c-.289 0-.513.07-.672.21-.149.13-.224.331-.224.602v1.61h3.15v1.148h-3.15V35h-1.26Zm6.575 0v-1.148h2.73v-5.404h-2.45V27.3h3.71v6.552h2.59V35h-6.58Zm3.22-9.086c-.308 0-.551-.08-.728-.238-.178-.159-.266-.373-.266-.644 0-.28.088-.5.266-.658.177-.168.42-.252.728-.252s.55.084.728.252c.177.159.266.378.266.658 0 .27-.089.485-.266.644-.178.159-.42.238-.728.238ZM494.728 35v-7.7h1.26v1.47h.266l-.266.336c0-.597.182-1.069.546-1.414.373-.355.887-.532 1.54-.532.803 0 1.419.243 1.848.728.439.476.658 1.157.658 2.044v.658h-1.26v-.658c0-.57-.14-.99-.42-1.26-.28-.28-.686-.42-1.218-.42-.551 0-.971.159-1.26.476-.289.317-.434.775-.434 1.372V35h-1.26Zm7.667 0v-7.7h1.092v1.022h.28l-.266.238c0-.41.116-.747.35-1.008.242-.261.56-.392.952-.392.448 0 .802.168 1.064.504.261.336.392.775.392 1.316l-.378-.728h.588l-.322.308c.009-.43.135-.77.378-1.022.242-.252.564-.378.966-.378.494 0 .886.187 1.176.56.298.364.448.84.448 1.428V35h-1.176v-5.866c0-.308-.075-.55-.224-.728a.747.747 0 0 0-.616-.28.746.746 0 0 0-.602.266c-.15.177-.224.42-.224.728V35h-1.036v-5.866c0-.308-.075-.55-.224-.728a.732.732 0 0 0-.602-.28c-.262 0-.467.089-.616.266-.15.177-.224.42-.224.728V35h-1.176Zm11.754.14c-.345 0-.625-.103-.84-.308-.205-.205-.308-.471-.308-.798 0-.345.103-.625.308-.84.215-.215.495-.322.84-.322.346 0 .621.107.826.322.215.215.322.495.322.84 0 .327-.107.593-.322.798-.205.205-.48.308-.826.308Zm8.843 0c-.635 0-1.144-.168-1.526-.504-.383-.345-.574-.812-.574-1.4l.252.294h-.252V35h-1.26V24.78h1.26v2.24l-.028 1.75h.28l-.28.294c0-.579.196-1.04.588-1.386.401-.345.914-.518 1.54-.518.774 0 1.39.257 1.848.77.457.513.686 1.213.686 2.1v2.254c0 .877-.229 1.573-.686 2.086-.458.513-1.074.77-1.848.77Zm-.42-1.092c.532 0 .947-.14 1.246-.42.298-.28.448-.733.448-1.358v-2.24c0-.635-.15-1.087-.448-1.358-.299-.28-.714-.42-1.246-.42-.514 0-.924.163-1.232.49-.299.327-.448.78-.448 1.358v2.1c0 .579.149 1.031.448 1.358.308.327.718.49 1.232.49Zm7.694 1.092c-.793 0-1.423-.22-1.89-.658-.466-.448-.7-1.031-.7-1.75 0-.476.108-.891.322-1.246.215-.355.514-.63.896-.826a2.743 2.743 0 0 1 1.316-.308h2.38v-.602c0-.504-.135-.877-.406-1.12-.27-.252-.681-.378-1.232-.378-.485 0-.877.089-1.176.266-.298.177-.457.425-.476.742h-1.26c.047-.607.327-1.106.84-1.498.523-.401 1.214-.602 2.072-.602.934 0 1.648.224 2.142.672.504.448.756 1.073.756 1.876V35h-1.246v-1.4h-.21l.196-.28c0 .373-.093.695-.28.966-.186.27-.452.48-.798.63-.345.15-.76.224-1.246.224Zm.308-1.064c.616 0 1.106-.15 1.47-.448.364-.299.546-.705.546-1.218v-1.078h-2.24c-.41 0-.746.126-1.008.378-.252.243-.378.57-.378.98 0 .43.14.77.42 1.022.29.243.686.364 1.19.364Zm8.871 1.064c-.616 0-1.158-.117-1.624-.35a2.605 2.605 0 0 1-1.078-1.008c-.252-.448-.378-.975-.378-1.582v-2.1c0-.616.126-1.143.378-1.582a2.6 2.6 0 0 1 1.078-1.008c.466-.233 1.008-.35 1.624-.35.886 0 1.6.238 2.142.714.55.476.84 1.125.868 1.946h-1.26c-.028-.495-.196-.873-.504-1.134-.308-.27-.724-.406-1.246-.406-.551 0-.994.159-1.33.476-.327.308-.49.751-.49 1.33V32.2c0 .579.163 1.027.49 1.344.336.317.779.476 1.33.476.522 0 .938-.135 1.246-.406.308-.27.476-.649.504-1.134h1.26c-.028.821-.318 1.47-.868 1.946-.542.476-1.256.714-2.142.714Zm5.44-.14V24.78h1.26v5.698h1.47l2.156-3.178h1.442l-2.478 3.668L551.353 35h-1.47l-2.24-3.43h-1.498V35h-1.26Zm9.291 2.52v-1.148h2.17c.439 0 .784-.126 1.036-.378.252-.243.378-.574.378-.994v-.7l.028-1.26h-.252l.238-.35c0 .56-.187.999-.56 1.316-.373.308-.873.462-1.498.462-.793 0-1.419-.252-1.876-.756-.457-.504-.686-1.195-.686-2.072v-1.624c0-.877.229-1.573.686-2.086.457-.513 1.083-.77 1.876-.77.625 0 1.125.163 1.498.49.373.327.56.77.56 1.33l-.238-.35h.238V27.3h1.246V35c0 .775-.243 1.386-.728 1.834-.476.457-1.129.686-1.96.686h-2.156Zm1.918-4.102c.523 0 .933-.163 1.232-.49.299-.327.448-.78.448-1.358V30.1c0-.579-.149-1.031-.448-1.358-.299-.327-.709-.49-1.232-.49-.532 0-.947.154-1.246.462-.289.308-.434.723-.434 1.246v1.75c0 .523.145.938.434 1.246.299.308.714.462 1.246.462Zm5.79 1.582v-7.7h1.26v1.47h.266l-.266.336c0-.597.182-1.069.546-1.414.374-.355.887-.532 1.54-.532.803 0 1.419.243 1.848.728.439.476.658 1.157.658 2.044v.658h-1.26v-.658c0-.57-.14-.99-.42-1.26-.28-.28-.686-.42-1.218-.42-.55 0-.97.159-1.26.476-.289.317-.434.775-.434 1.372V35h-1.26Zm11.027.112c-.616 0-1.153-.121-1.61-.364a2.586 2.586 0 0 1-1.05-1.05c-.243-.467-.364-1.022-.364-1.666v-1.764c0-.653.121-1.209.364-1.666a2.586 2.586 0 0 1 1.05-1.05c.457-.243.994-.364 1.61-.364.625 0 1.162.121 1.61.364a2.5 2.5 0 0 1 1.036 1.05c.252.457.378 1.013.378 1.666v1.764c0 .644-.126 1.2-.378 1.666a2.482 2.482 0 0 1-1.05 1.05c-.448.243-.98.364-1.596.364Zm0-1.12c.551 0 .98-.154 1.288-.462.317-.308.476-.76.476-1.358v-2.044c0-.597-.159-1.05-.476-1.358-.308-.308-.737-.462-1.288-.462-.541 0-.971.154-1.288.462-.317.308-.476.76-.476 1.358v2.044c0 .597.159 1.05.476 1.358.317.308.747.462 1.288.462Zm8.38 1.148c-.886 0-1.596-.261-2.128-.784-.532-.532-.798-1.25-.798-2.156v-4.9h1.26v4.9c0 .56.15 1.008.448 1.344.299.327.705.49 1.218.49.523 0 .934-.163 1.232-.49.308-.336.462-.784.462-1.344v-4.9h1.26v4.9c0 .905-.27 1.624-.812 2.156-.541.523-1.255.784-2.142.784Zm5.497-.14v-7.7h1.26v1.47h.266l-.266.294c0-.607.182-1.073.546-1.4.364-.336.868-.504 1.512-.504.775 0 1.391.238 1.848.714.457.476.686 1.125.686 1.946V35h-1.26v-4.956c0-.588-.149-1.036-.448-1.344-.289-.317-.686-.476-1.19-.476-.523 0-.938.163-1.246.49-.299.327-.448.789-.448 1.386V35h-1.26Zm10.859.14c-.766 0-1.382-.257-1.848-.77-.458-.513-.686-1.209-.686-2.086V30.03c0-.887.228-1.587.686-2.1.457-.513 1.073-.77 1.848-.77.634 0 1.148.173 1.54.518.392.345.588.807.588 1.386l-.28-.294h.28l-.028-1.75v-2.24h1.26V35h-1.26v-1.47h-.252l.252-.294c0 .588-.192 1.055-.574 1.4-.383.336-.892.504-1.526.504Zm.42-1.092c.522 0 .933-.163 1.232-.49.298-.327.448-.78.448-1.358v-2.1c0-.579-.15-1.031-.448-1.358-.299-.327-.71-.49-1.232-.49-.532 0-.948.14-1.246.42-.299.27-.448.723-.448 1.358v2.24c0 .625.149 1.078.448 1.358.298.28.714.42 1.246.42Zm8.422 1.092c-.345 0-.625-.103-.84-.308-.205-.205-.308-.471-.308-.798 0-.345.103-.625.308-.84.215-.215.495-.322.84-.322s.621.107.826.322c.215.215.322.495.322.84 0 .327-.107.593-.322.798-.205.205-.481.308-.826.308Zm8.507 0c-.616 0-1.158-.117-1.624-.35a2.605 2.605 0 0 1-1.078-1.008c-.252-.448-.378-.975-.378-1.582v-2.1c0-.616.126-1.143.378-1.582a2.6 2.6 0 0 1 1.078-1.008c.466-.233 1.008-.35 1.624-.35.886 0 1.6.238 2.142.714.55.476.84 1.125.868 1.946h-1.26c-.028-.495-.196-.873-.504-1.134-.308-.27-.724-.406-1.246-.406-.551 0-.994.159-1.33.476-.327.308-.49.751-.49 1.33V32.2c0 .579.163 1.027.49 1.344.336.317.779.476 1.33.476.522 0 .938-.135 1.246-.406.308-.27.476-.649.504-1.134h1.26c-.028.821-.318 1.47-.868 1.946-.542.476-1.256.714-2.142.714Zm8.282-.028c-.616 0-1.153-.121-1.61-.364a2.586 2.586 0 0 1-1.05-1.05c-.243-.467-.364-1.022-.364-1.666v-1.764c0-.653.121-1.209.364-1.666a2.586 2.586 0 0 1 1.05-1.05c.457-.243.994-.364 1.61-.364.625 0 1.162.121 1.61.364a2.5 2.5 0 0 1 1.036 1.05c.252.457.378 1.013.378 1.666v1.764c0 .644-.126 1.2-.378 1.666a2.482 2.482 0 0 1-1.05 1.05c-.448.243-.98.364-1.596.364Zm0-1.12c.551 0 .98-.154 1.288-.462.317-.308.476-.76.476-1.358v-2.044c0-.597-.159-1.05-.476-1.358-.308-.308-.737-.462-1.288-.462-.541 0-.971.154-1.288.462-.317.308-.476.76-.476 1.358v2.044c0 .597.159 1.05.476 1.358.317.308.747.462 1.288.462ZM632.793 35c-.448 0-.84-.089-1.176-.266a1.908 1.908 0 0 1-.784-.756c-.187-.327-.28-.71-.28-1.148v-6.902h-2.66V24.78h3.92v8.05c0 .317.088.57.266.756.177.177.415.266.714.266h2.38V35h-2.38Zm7.274.112c-.616 0-1.152-.121-1.61-.364a2.586 2.586 0 0 1-1.05-1.05c-.242-.467-.364-1.022-.364-1.666v-1.764c0-.653.122-1.209.364-1.666a2.586 2.586 0 0 1 1.05-1.05c.458-.243.994-.364 1.61-.364.626 0 1.162.121 1.61.364.448.243.794.593 1.036 1.05.252.457.378 1.013.378 1.666v1.764c0 .644-.126 1.2-.378 1.666a2.471 2.471 0 0 1-1.05 1.05c-.448.243-.98.364-1.596.364Zm0-1.12c.551 0 .98-.154 1.288-.462.318-.308.476-.76.476-1.358v-2.044c0-.597-.158-1.05-.476-1.358-.308-.308-.737-.462-1.288-.462-.541 0-.97.154-1.288.462-.317.308-.476.76-.476 1.358v2.044c0 .597.159 1.05.476 1.358.318.308.747.462 1.288.462ZM645.83 35v-7.7h1.26v1.47h.266l-.266.336c0-.597.182-1.069.546-1.414.373-.355.886-.532 1.54-.532.802 0 1.418.243 1.848.728.438.476.658 1.157.658 2.044v.658h-1.26v-.658c0-.57-.14-.99-.42-1.26-.28-.28-.686-.42-1.218-.42-.551 0-.971.159-1.26.476-.29.317-.434.775-.434 1.372V35h-1.26Zm11.026.14c-.345 0-.625-.103-.84-.308-.205-.205-.308-.471-.308-.798 0-.345.103-.625.308-.84.215-.215.495-.322.84-.322.346 0 .621.107.826.322.215.215.322.495.322.84 0 .327-.107.593-.322.798-.205.205-.48.308-.826.308Zm8.087-.028c-.57 0-1.06-.084-1.47-.252a2.067 2.067 0 0 1-.924-.756c-.206-.336-.308-.742-.308-1.218h1.26c0 .355.126.635.378.84.252.196.606.294 1.064.294h.616c.466 0 .826-.103 1.078-.308.261-.205.392-.495.392-.868 0-.336-.075-.597-.224-.784-.15-.187-.378-.299-.686-.336l-2.128-.308c-.523-.075-.929-.29-1.218-.644-.29-.364-.434-.84-.434-1.428 0-.672.228-1.2.686-1.582.466-.383 1.106-.574 1.918-.574h.616c.746 0 1.353.187 1.82.56.476.364.732.845.77 1.442h-1.274c-.019-.27-.15-.495-.392-.672-.234-.177-.542-.266-.924-.266h-.616c-.43 0-.766.098-1.008.294-.243.196-.364.462-.364.798 0 .261.06.471.182.63.13.159.317.257.56.294l1.988.28c.653.093 1.143.331 1.47.714.326.383.49.91.49 1.582 0 .719-.238 1.279-.714 1.68-.467.392-1.13.588-1.988.588h-.616Zm9.472-.112c-.634 0-1.143-.182-1.526-.546-.382-.373-.574-.868-.574-1.484v-4.522h-2.212V27.3h2.212v-2.17h1.26v2.17h3.15v1.148h-3.15v4.522c0 .261.075.476.224.644a.834.834 0 0 0 .616.238h2.24V35h-2.24Zm4.993 0v-7.7h1.26v1.47h.266l-.266.336c0-.597.182-1.069.546-1.414.373-.355.887-.532 1.54-.532.803 0 1.419.243 1.848.728.439.476.658 1.157.658 2.044v.658H684v-.658c0-.57-.14-.99-.42-1.26-.28-.28-.686-.42-1.218-.42-.551 0-.971.159-1.26.476-.289.317-.434.775-.434 1.372V35h-1.26Zm11.026.112c-.616 0-1.152-.121-1.61-.364a2.586 2.586 0 0 1-1.05-1.05c-.242-.467-.364-1.022-.364-1.666v-1.764c0-.653.122-1.209.364-1.666a2.586 2.586 0 0 1 1.05-1.05c.458-.243.994-.364 1.61-.364.626 0 1.162.121 1.61.364.448.243.794.593 1.036 1.05.252.457.378 1.013.378 1.666v1.764c0 .644-.126 1.2-.378 1.666a2.471 2.471 0 0 1-1.05 1.05c-.448.243-.98.364-1.596.364Zm0-1.12c.551 0 .98-.154 1.288-.462.318-.308.476-.76.476-1.358v-2.044c0-.597-.158-1.05-.476-1.358-.308-.308-.737-.462-1.288-.462-.541 0-.97.154-1.288.462-.317.308-.476.76-.476 1.358v2.044c0 .597.159 1.05.476 1.358.318.308.747.462 1.288.462ZM695.917 35v-7.7h1.26v1.47h.266l-.266.294c0-.607.182-1.073.546-1.4.364-.336.868-.504 1.512-.504.775 0 1.391.238 1.848.714.457.476.686 1.125.686 1.946V35h-1.26v-4.956c0-.588-.149-1.036-.448-1.344-.289-.317-.686-.476-1.19-.476-.523 0-.938.163-1.246.49-.299.327-.448.789-.448 1.386V35h-1.26Zm9.36 2.52v-1.148h2.17c.439 0 .784-.126 1.036-.378.252-.243.378-.574.378-.994v-.7l.028-1.26h-.252l.238-.35c0 .56-.186.999-.56 1.316-.373.308-.872.462-1.498.462-.793 0-1.418-.252-1.876-.756-.457-.504-.686-1.195-.686-2.072v-1.624c0-.877.229-1.573.686-2.086.458-.513 1.083-.77 1.876-.77.626 0 1.125.163 1.498.49.374.327.56.77.56 1.33l-.238-.35h.238V27.3h1.246V35c0 .775-.242 1.386-.728 1.834-.476.457-1.129.686-1.96.686h-2.156Zm1.918-4.102c.523 0 .934-.163 1.232-.49.299-.327.448-.78.448-1.358V30.1c0-.579-.149-1.031-.448-1.358-.298-.327-.709-.49-1.232-.49-.532 0-.947.154-1.246.462-.289.308-.434.723-.434 1.246v1.75c0 .523.145.938.434 1.246.299.308.714.462 1.246.462Zm8.423 1.722c-.345 0-.625-.103-.84-.308-.205-.205-.308-.471-.308-.798 0-.345.103-.625.308-.84.215-.215.495-.322.84-.322s.621.107.826.322c.215.215.322.495.322.84 0 .327-.107.593-.322.798-.205.205-.481.308-.826.308Zm7.947 0c-.766 0-1.382-.257-1.848-.77-.458-.513-.686-1.209-.686-2.086V30.03c0-.887.228-1.587.686-2.1.457-.513 1.073-.77 1.848-.77.634 0 1.148.173 1.54.518.392.345.588.807.588 1.386l-.28-.294h.28l-.028-1.75v-2.24h1.26V35h-1.26v-1.47h-.252l.252-.294c0 .588-.192 1.055-.574 1.4-.383.336-.892.504-1.526.504Zm.42-1.092c.522 0 .933-.163 1.232-.49.298-.327.448-.78.448-1.358v-2.1c0-.579-.15-1.031-.448-1.358-.299-.327-.71-.49-1.232-.49-.532 0-.948.14-1.246.42-.299.27-.448.723-.448 1.358v2.24c0 .625.149 1.078.448 1.358.298.28.714.42 1.246.42Zm8.422 1.092c-.607 0-1.139-.121-1.596-.364a2.679 2.679 0 0 1-1.05-1.064c-.252-.467-.378-1.017-.378-1.652v-1.82c0-.644.126-1.195.378-1.652a2.586 2.586 0 0 1 1.05-1.05c.457-.252.989-.378 1.596-.378.607 0 1.134.121 1.582.364.457.243.812.583 1.064 1.022.252.439.378.957.378 1.554v1.372h-4.816v.728c0 .57.163 1.022.49 1.358.327.327.761.49 1.302.49.467 0 .849-.089 1.148-.266.308-.187.495-.434.56-.742h1.26c-.084.644-.397 1.157-.938 1.54-.541.373-1.218.56-2.03.56Zm1.792-4.522V30.1c0-.607-.159-1.073-.476-1.4-.308-.336-.747-.504-1.316-.504-.569 0-1.013.168-1.33.504-.308.327-.462.793-.462 1.4v.392h3.682l-.098.126ZM739.612 35v-5.502h-2.24V28.35h2.24v-1.61c0-.607.191-1.083.574-1.428.382-.355.91-.532 1.582-.532h2.254v1.148h-2.254c-.29 0-.514.07-.672.21-.15.13-.224.331-.224.602v1.61h3.15v1.148h-3.15V35h-1.26Zm8.912.14c-.793 0-1.423-.22-1.89-.658-.467-.448-.7-1.031-.7-1.75 0-.476.107-.891.322-1.246a2.19 2.19 0 0 1 .896-.826 2.74 2.74 0 0 1 1.316-.308h2.38v-.602c0-.504-.135-.877-.406-1.12-.271-.252-.681-.378-1.232-.378-.485 0-.877.089-1.176.266-.299.177-.457.425-.476.742h-1.26c.047-.607.327-1.106.84-1.498.523-.401 1.213-.602 2.072-.602.933 0 1.647.224 2.142.672.504.448.756 1.073.756 1.876V35h-1.246v-1.4h-.21l.196-.28c0 .373-.093.695-.28.966-.187.27-.453.48-.798.63-.345.15-.761.224-1.246.224Zm.308-1.064c.616 0 1.106-.15 1.47-.448.364-.299.546-.705.546-1.218v-1.078h-2.24c-.411 0-.747.126-1.008.378-.252.243-.378.57-.378.98 0 .43.14.77.42 1.022.289.243.686.364 1.19.364Zm8.745 1.064c-.887 0-1.596-.261-2.128-.784-.532-.532-.798-1.25-.798-2.156v-4.9h1.26v4.9c0 .56.149 1.008.448 1.344.298.327.704.49 1.218.49.522 0 .933-.163 1.232-.49.308-.336.462-.784.462-1.344v-4.9h1.26v4.9c0 .905-.271 1.624-.812 2.156-.542.523-1.256.784-2.142.784Zm9.528-.14c-.448 0-.84-.089-1.176-.266a1.914 1.914 0 0 1-.784-.756c-.187-.327-.28-.71-.28-1.148v-6.902h-2.66V24.78h3.92v8.05c0 .317.089.57.266.756.177.177.415.266.714.266h2.38V35h-2.38Zm8.045 0c-.635 0-1.144-.182-1.526-.546-.383-.373-.574-.868-.574-1.484v-4.522h-2.212V27.3h2.212v-2.17h1.26v2.17h3.15v1.148h-3.15v4.522c0 .261.074.476.224.644a.832.832 0 0 0 .616.238h2.24V35h-2.24Z" fill="#333238"/><path stroke="#7B58CF" stroke-width="2" stroke-linecap="round" d="M393 63h115m-115 0V49m115 14V49"/><rect x="421" y="72" width="59" height="24" rx="12" fill="#7B58CF"/><path d="M432.592 88.14c-1.781 0-2.983-1.353-2.983-3.374 0-2.051 1.202-3.399 2.983-3.399 1.265 0 2.297.668 2.654 1.81l-1.014.288c-.193-.674-.779-1.154-1.64-1.154-1.307 0-1.91 1.148-1.91 2.455 0 1.289.603 2.431 1.91 2.431.879 0 1.476-.498 1.67-1.207l1.008.287c-.352 1.166-1.395 1.864-2.678 1.864Zm6.855 0c-1.781 0-2.982-1.353-2.982-3.374 0-2.051 1.201-3.399 2.982-3.399 1.787 0 2.994 1.348 2.994 3.399 0 2.021-1.207 3.375-2.994 3.375Zm0-.943c1.324 0 1.928-1.142 1.928-2.431 0-1.301-.604-2.456-1.928-2.456-1.306 0-1.91 1.149-1.91 2.456 0 1.289.604 2.431 1.91 2.431Zm5.584-3.123V88h-1.054v-6.55h1.013l.006 1.587h-.146c.398-1.207 1.16-1.67 2.15-1.67 1.324 0 2.221.815 2.221 2.473V88h-1.061v-4.072c0-1.008-.562-1.612-1.476-1.612-.944 0-1.653.64-1.653 1.758Zm8.625-2.625v.903h-3.386v-.903h3.386Zm-2.402-1.558h1.055v6.41c0 .586.216.843.773.843.135 0 .363-.035.539-.07l.217.89a2.54 2.54 0 0 1-.785.118c-1.131 0-1.799-.627-1.799-1.7v-6.491Zm6.387 8.25c-1.899 0-3.071-1.348-3.071-3.364 0-2.01 1.16-3.41 2.948-3.41 1.388 0 2.853.856 2.853 3.276v.439h-5.086v-.89h4.518l-.492.328c0-1.29-.61-2.215-1.793-2.215-1.184 0-1.881.978-1.881 2.045v.591c0 1.46.808 2.262 2.009 2.262.774 0 1.354-.34 1.6-1.008l1.02.282c-.305.99-1.284 1.664-2.625 1.664Zm3.427-.141 2.584-3.768-.006.809-2.443-3.592h1.231l.814 1.272c.422.656.697 1.218 1.025 1.746h-.55c.334-.528.562-1.09.99-1.746l.832-1.272h1.207l-2.455 3.639v-.78l2.56 3.692h-1.224l-.961-1.47c-.416-.64-.68-1.178-1.002-1.688h.557c-.323.51-.545 1.049-.967 1.687L462.287 88h-1.219Zm9.909-6.55v.902h-3.387v-.903h3.387Zm-2.403-1.56h1.055v6.41c0 .587.217.844.773.844.135 0 .364-.035.539-.07l.217.89a2.536 2.536 0 0 1-.785.118c-1.131 0-1.799-.627-1.799-1.7v-6.491Z" fill="#fff"/><path stroke="#7B58CF" stroke-width="2" stroke-linecap="round" d="M518 63h83m-83 0V49m83 14V49"/><rect x="528.5" y="72" width="62" height="24" rx="12" fill="#7B58CF"/><path d="M540.18 88.14c-1.899 0-3.071-1.347-3.071-3.363 0-2.01 1.161-3.41 2.948-3.41 1.388 0 2.853.856 2.853 3.276v.439h-5.086v-.89h4.518l-.492.328c0-1.29-.61-2.215-1.793-2.215-1.184 0-1.881.978-1.881 2.045v.591c0 1.46.808 2.262 2.01 2.262.773 0 1.353-.34 1.599-1.008l1.02.282c-.305.99-1.284 1.664-2.625 1.664Zm5.713-.093c-.985 0-1.471-.55-1.471-1.5v-7.278h1.055v7.014c0 .604.105.82.544.82.229 0 .323-.017.422-.046l.211.89c-.187.053-.48.1-.761.1Zm4.412.094c-1.899 0-3.071-1.348-3.071-3.364 0-2.01 1.161-3.41 2.948-3.41 1.388 0 2.853.856 2.853 3.276v.439h-5.086v-.89h4.518l-.492.328c0-1.29-.61-2.215-1.793-2.215-1.184 0-1.881.978-1.881 2.045v.591c0 1.46.808 2.262 2.01 2.262.773 0 1.353-.34 1.599-1.008l1.02.282c-.305.99-1.284 1.664-2.625 1.664Zm4.242-.141v-6.55h1.025l.006 1.464h-.082c.264-1.06 1.066-1.582 1.916-1.582.949 0 1.553.645 1.729 1.594H559c.234-.979 1.102-1.594 2.145-1.594 1.136 0 2.062.733 2.062 2.25V88h-1.061v-4.389c0-.943-.615-1.318-1.318-1.318-.885 0-1.424.603-1.424 1.43V88h-1.054v-4.494c0-.727-.545-1.213-1.284-1.213-.767 0-1.464.539-1.464 1.582V88h-1.055Zm13.265.14c-1.898 0-3.07-1.347-3.07-3.363 0-2.01 1.16-3.41 2.947-3.41 1.389 0 2.854.856 2.854 3.276v.439h-5.086v-.89h4.518l-.493.328c0-1.29-.609-2.215-1.793-2.215-1.183 0-1.88.978-1.88 2.045v.591c0 1.46.808 2.262 2.009 2.262.774 0 1.354-.34 1.6-1.008l1.02.282c-.305.99-1.284 1.664-2.626 1.664Zm5.297-4.066V88h-1.054v-6.55h1.013l.006 1.587h-.146c.398-1.207 1.16-1.67 2.15-1.67 1.324 0 2.221.815 2.221 2.473V88h-1.061v-4.072c0-1.008-.562-1.612-1.476-1.612-.944 0-1.653.64-1.653 1.758Zm8.625-2.625v.903h-3.386v-.903h3.386Zm-2.402-1.558h1.055v6.41c0 .586.217.843.773.843.135 0 .363-.035.539-.07l.217.89a2.54 2.54 0 0 1-.785.118c-1.131 0-1.799-.627-1.799-1.7v-6.491Z" fill="#fff"/><path stroke="#7B58CF" stroke-width="2" stroke-linecap="round" d="M611 63h175m-175 0V49m175 14V49"/><rect x="661" y="72" width="75" height="24" rx="12" fill="#7B58CF"/><path d="M669.926 90.45v-9h1.019v1.048h.117c.217-.346.622-1.13 1.899-1.13 1.635 0 2.777 1.3 2.777 3.374 0 2.086-1.136 3.399-2.771 3.399-1.248 0-1.688-.791-1.905-1.155h-.082v3.463h-1.054Zm2.883-3.253c1.224 0 1.857-1.09 1.857-2.466 0-1.36-.615-2.42-1.857-2.42-1.207 0-1.84.972-1.84 2.42 0 1.459.65 2.466 1.84 2.466Zm4.464.803v-6.55h1.02v1.007h.07c.241-.662.92-1.101 1.699-1.101.153 0 .411.011.534.017v1.06a4.003 4.003 0 0 0-.633-.058c-.943 0-1.635.639-1.635 1.523V88h-1.055Zm6.991.14c-1.782 0-2.983-1.353-2.983-3.374 0-2.051 1.201-3.399 2.983-3.399 1.787 0 2.994 1.348 2.994 3.399 0 2.021-1.207 3.375-2.994 3.375Zm0-.943c1.324 0 1.927-1.142 1.927-2.431 0-1.301-.603-2.456-1.927-2.456-1.307 0-1.91 1.149-1.91 2.456 0 1.289.603 2.431 1.91 2.431Zm4.529 3.252v-9h1.019v1.049h.118c.216-.346.621-1.13 1.898-1.13 1.635 0 2.777 1.3 2.777 3.374 0 2.086-1.136 3.399-2.771 3.399-1.248 0-1.688-.791-1.904-1.155h-.082v3.463h-1.055Zm2.883-3.252c1.224 0 1.857-1.09 1.857-2.466 0-1.36-.615-2.42-1.857-2.42-1.207 0-1.84.972-1.84 2.42 0 1.459.65 2.466 1.84 2.466Zm7.219.944c-1.899 0-3.071-1.348-3.071-3.364 0-2.01 1.16-3.41 2.947-3.41 1.389 0 2.854.856 2.854 3.276v.439h-5.086v-.89h4.518l-.493.328c0-1.29-.609-2.215-1.793-2.215-1.183 0-1.88.978-1.88 2.045v.591c0 1.46.808 2.262 2.009 2.262.774 0 1.354-.34 1.6-1.008l1.02.282c-.305.99-1.284 1.664-2.625 1.664Zm4.242-.141v-6.55h1.019v1.007h.071c.24-.662.919-1.101 1.699-1.101.152 0 .41.011.533.017v1.06a3.989 3.989 0 0 0-.633-.058c-.943 0-1.635.639-1.635 1.523V88h-1.054Zm7.289-6.55v.902h-3.387v-.903h3.387Zm-2.403-1.56h1.055v6.41c0 .587.217.844.774.844.134 0 .363-.035.539-.07l.216.89a2.531 2.531 0 0 1-.785.118c-1.131 0-1.799-.627-1.799-1.7v-6.491Zm3.75 8.11v-6.55h1.055V88h-1.055Zm.534-7.623c-.399 0-.733-.31-.733-.697 0-.387.334-.698.733-.698.404 0 .738.311.738.698 0 .386-.334.697-.738.697Zm5.127 7.764c-1.899 0-3.071-1.348-3.071-3.364 0-2.01 1.16-3.41 2.948-3.41 1.388 0 2.853.856 2.853 3.276v.439h-5.086v-.89h4.518l-.492.328c0-1.29-.61-2.215-1.793-2.215-1.184 0-1.881.978-1.881 2.045v.591c0 1.46.808 2.262 2.009 2.262.774 0 1.354-.34 1.6-1.008l1.02.282c-.305.99-1.284 1.664-2.625 1.664Zm6.468 0c-1.347 0-2.285-.598-2.519-1.729l1.002-.24c.187.72.72 1.043 1.506 1.043.914 0 1.5-.451 1.5-.99 0-.452-.317-.75-.961-.903l-1.09-.258c-1.19-.28-1.758-.867-1.758-1.787 0-1.125 1.031-1.91 2.426-1.91 1.347 0 2.056.656 2.355 1.576l-.955.246c-.181-.468-.551-.925-1.394-.925-.78 0-1.366.404-1.366.949 0 .486.334.756 1.102.937l.99.235c1.19.281 1.746.873 1.746 1.77 0 1.148-1.048 1.986-2.584 1.986Z" fill="#fff"/></svg>