<svg width="359" height="56" viewBox="0 0 359 56" fill="none" xmlns="http://www.w3.org/2000/svg"><rect width="359" height="56" rx="4" fill="#FBFAFD"/><rect x="16" y="16" width="52" height="24" rx="4" fill="#E1D8F9"/><path d="M25.944 34.16v-.984h1.86c.376 0 .672-.108.888-.324.216-.208.324-.492.324-.852v-.6l.024-1.08h-.216l.204-.3c0 .48-.16.856-.48 1.128-.32.264-.748.396-1.284.396-.68 0-1.216-.216-1.608-.648-.392-.432-.588-1.024-.588-1.776v-1.392c0-.752.196-1.348.588-1.788.392-.44.928-.66 1.608-.66.536 0 .964.14 1.284.42.32.28.48.66.48 1.14l-.204-.3h.204V25.4h1.068V32c0 .664-.208 1.188-.624 1.572-.408.392-.968.588-1.68.588h-1.848Zm1.644-3.516c.448 0 .8-.14 1.056-.42.256-.28.384-.668.384-1.164V27.8c0-.496-.128-.884-.384-1.164-.256-.28-.608-.42-1.056-.42-.456 0-.812.132-1.068.396-.248.264-.372.62-.372 1.068v1.5c0 .448.124.804.372 1.068.256.264.612.396 1.068.396ZM32.55 32v-6.6h1.08v1.26h.228l-.228.288c0-.512.156-.916.468-1.212.32-.304.76-.456 1.32-.456.688 0 1.216.208 1.584.624.376.408.564.992.564 1.752v.564h-1.08v-.564c0-.488-.12-.848-.36-1.08-.24-.24-.588-.36-1.044-.36-.472 0-.832.136-1.08.408-.248.272-.372.664-.372 1.176V32h-1.08Zm9.451.096c-.528 0-.988-.104-1.38-.312a2.216 2.216 0 0 1-.9-.9c-.208-.4-.312-.876-.312-1.428v-1.512c0-.56.104-1.036.312-1.428.216-.392.516-.692.9-.9.392-.208.852-.312 1.38-.312.536 0 .996.104 1.38.312.384.208.68.508.888.9.216.392.324.868.324 1.428v1.512c0 .552-.108 1.028-.324 1.428a2.124 2.124 0 0 1-.9.9c-.384.208-.84.312-1.368.312Zm0-.96c.472 0 .84-.132 1.104-.396.272-.264.408-.652.408-1.164v-1.752c0-.512-.136-.9-.408-1.164-.264-.264-.632-.396-1.104-.396-.464 0-.832.132-1.104.396-.272.264-.408.652-.408 1.164v1.752c0 .512.136.9.408 1.164.272.264.64.396 1.104.396Zm7.184.984c-.76 0-1.368-.224-1.824-.672-.456-.456-.684-1.072-.684-1.848v-4.2h1.08v4.2c0 .48.128.864.384 1.152.256.28.604.42 1.044.42.448 0 .8-.14 1.056-.42.264-.288.396-.672.396-1.152v-4.2h1.08v4.2c0 .776-.232 1.392-.696 1.848-.464.448-1.076.672-1.836.672Zm4.711 2.04V25.4h1.08v1.26h.216l-.216.252c0-.504.164-.9.492-1.188.328-.296.764-.444 1.308-.444.44 0 .82.1 1.14.3.328.192.58.472.756.84.184.368.276.804.276 1.308v1.932c0 .504-.088.94-.264 1.308a1.962 1.962 0 0 1-.756.852c-.32.2-.704.3-1.152.3-.536 0-.972-.148-1.308-.444-.328-.296-.492-.692-.492-1.188l.216.252h-.24l.024 1.5v1.92h-1.08Zm2.52-2.976c.456 0 .812-.12 1.068-.36s.384-.628.384-1.164v-1.92c0-.544-.128-.932-.384-1.164-.256-.24-.612-.36-1.068-.36-.44 0-.792.14-1.056.42-.256.28-.384.668-.384 1.164v1.8c0 .496.128.884.384 1.164.264.28.616.42 1.056.42Z" fill="#333238"/><rect x="76" y="16" width="81" height="24" rx="4" fill="#E1D8F9"/><path d="M87.817 32.12c-.528 0-.992-.1-1.392-.3-.392-.2-.7-.488-.924-.864-.216-.384-.324-.836-.324-1.356v-1.8c0-.528.108-.98.324-1.356.224-.376.532-.664.924-.864.4-.2.864-.3 1.392-.3.76 0 1.372.204 1.836.612.472.408.72.964.744 1.668h-1.08c-.024-.424-.168-.748-.432-.972-.264-.232-.62-.348-1.068-.348-.472 0-.852.136-1.14.408-.28.264-.42.644-.42 1.14V29.6c0 .496.14.88.42 1.152.288.272.668.408 1.14.408.448 0 .804-.116 1.068-.348.264-.232.408-.556.432-.972h1.08c-.024.704-.272 1.26-.744 1.668-.464.408-1.076.612-1.836.612Zm7.1-.024c-.529 0-.989-.104-1.38-.312a2.216 2.216 0 0 1-.9-.9c-.209-.4-.313-.876-.313-1.428v-1.512c0-.56.104-1.036.312-1.428.216-.392.516-.692.9-.9.392-.208.852-.312 1.38-.312.536 0 .996.104 1.38.312.384.208.68.508.888.9.216.392.324.868.324 1.428v1.512c0 .552-.108 1.028-.324 1.428a2.124 2.124 0 0 1-.9.9c-.384.208-.84.312-1.368.312Zm0-.96c.471 0 .84-.132 1.103-.396.272-.264.408-.652.408-1.164v-1.752c0-.512-.136-.9-.408-1.164-.264-.264-.632-.396-1.104-.396-.464 0-.832.132-1.104.396-.272.264-.408.652-.408 1.164v1.752c0 .512.136.9.408 1.164.272.264.64.396 1.104.396Zm4.315.864v-6.6h.936v.876h.24l-.228.204c0-.352.1-.64.3-.864.208-.224.48-.336.816-.336.384 0 .688.144.912.432.224.288.336.664.336 1.128l-.324-.624h.504l-.276.264c.008-.368.116-.66.324-.876.208-.216.484-.324.828-.324.424 0 .76.16 1.008.48.256.312.384.72.384 1.224V32h-1.008v-5.028c0-.264-.064-.472-.192-.624a.64.64 0 0 0-.528-.24.64.64 0 0 0-.516.228c-.128.152-.192.36-.192.624V32h-.888v-5.028c0-.264-.064-.472-.192-.624a.627.627 0 0 0-.516-.24c-.224 0-.4.076-.528.228-.128.152-.192.36-.192.624V32h-1.008Zm7.579 2.16V25.4h1.08v1.26h.216l-.216.252c0-.504.164-.9.492-1.188.328-.296.764-.444 1.308-.444.44 0 .82.1 1.14.3.328.192.58.472.756.84.184.368.276.804.276 1.308v1.932c0 .504-.088.94-.264 1.308a1.962 1.962 0 0 1-.756.852c-.32.2-.704.3-1.152.3-.536 0-.972-.148-1.308-.444-.328-.296-.492-.692-.492-1.188l.216.252h-.24l.024 1.5v1.92h-1.08Zm2.52-2.976c.456 0 .812-.12 1.068-.36s.384-.628.384-1.164v-1.92c0-.544-.128-.932-.384-1.164-.256-.24-.612-.36-1.068-.36-.44 0-.792.14-1.056.42-.256.28-.384.668-.384 1.164v1.8c0 .496.128.884.384 1.164.264.28.616.42 1.056.42Zm7.171.912c-.528 0-.988-.104-1.38-.312a2.216 2.216 0 0 1-.9-.9c-.208-.4-.312-.876-.312-1.428v-1.512c0-.56.104-1.036.312-1.428.216-.392.516-.692.9-.9.392-.208.852-.312 1.38-.312.536 0 .996.104 1.38.312.384.208.68.508.888.9.216.392.324.868.324 1.428v1.512c0 .552-.108 1.028-.324 1.428a2.124 2.124 0 0 1-.9.9c-.384.208-.84.312-1.368.312Zm0-.96c.472 0 .84-.132 1.104-.396.272-.264.408-.652.408-1.164v-1.752c0-.512-.136-.9-.408-1.164-.264-.264-.632-.396-1.104-.396-.464 0-.832.132-1.104.396-.272.264-.408.652-.408 1.164v1.752c0 .512.136.9.408 1.164.272.264.64.396 1.104.396Zm4.7.864v-6.6h1.08v1.26h.228l-.228.252c0-.52.156-.92.468-1.2.312-.288.744-.432 1.296-.432.664 0 1.192.204 1.584.612.392.408.588.964.588 1.668V32h-1.08v-4.248c0-.504-.128-.888-.384-1.152-.248-.272-.588-.408-1.02-.408-.448 0-.804.14-1.068.42-.256.28-.384.676-.384 1.188V32h-1.08Zm9.691.12c-.52 0-.976-.104-1.368-.312a2.296 2.296 0 0 1-.9-.912c-.216-.4-.324-.872-.324-1.416v-1.56c0-.552.108-1.024.324-1.416.216-.392.516-.692.9-.9.392-.216.848-.324 1.368-.324.52 0 .972.104 1.356.312.392.208.696.5.912.876.216.376.324.82.324 1.332v1.176h-4.128v.624c0 .488.14.876.42 1.164.28.28.652.42 1.116.42.4 0 .728-.076.984-.228.264-.16.424-.372.48-.636h1.08c-.072.552-.34.992-.804 1.32-.464.32-1.044.48-1.74.48Zm1.536-3.876V27.8c0-.52-.136-.92-.408-1.2-.264-.288-.64-.432-1.128-.432-.488 0-.868.144-1.14.432-.264.28-.396.68-.396 1.2v.336h3.156l-.084.108ZM135.592 32v-6.6h1.08v1.26h.228l-.228.252c0-.52.156-.92.468-1.2.312-.288.744-.432 1.296-.432.664 0 1.192.204 1.584.612.392.408.588.964.588 1.668V32h-1.08v-4.248c0-.504-.128-.888-.384-1.152-.248-.272-.588-.408-1.02-.408-.448 0-.804.14-1.068.42-.256.28-.384.676-.384 1.188V32h-1.08Zm10.352 0c-.544 0-.98-.156-1.308-.468-.328-.32-.492-.744-.492-1.272v-3.876h-1.896V25.4h1.896v-1.86h1.08v1.86h2.7v.984h-2.7v3.876a.8.8 0 0 0 .192.552.714.714 0 0 0 .528.204h1.92V32h-1.92Z" fill="#333238"/><rect x="165" y="16" width="132" height="24" rx="4" fill="#E1D8F9"/><path d="m176.33 32-2.244-6.6h1.164l1.44 4.44c.088.264.164.52.228.768.064.24.112.428.144.564.04-.136.088-.324.144-.564.056-.248.124-.504.204-.768l1.44-4.44h1.14l-2.244 6.6h-1.416Zm7.327.12c-.68 0-1.22-.188-1.62-.564-.4-.384-.6-.884-.6-1.5 0-.408.092-.764.276-1.068.184-.304.44-.54.768-.708a2.349 2.349 0 0 1 1.128-.264h2.04V27.5c0-.432-.116-.752-.348-.96-.232-.216-.584-.324-1.056-.324-.416 0-.752.076-1.008.228-.256.152-.392.364-.408.636h-1.08c.04-.52.28-.948.72-1.284.448-.344 1.04-.516 1.776-.516.8 0 1.412.192 1.836.576.432.384.648.92.648 1.608V32h-1.068v-1.2h-.18l.168-.24c0 .32-.08.596-.24.828-.16.232-.388.412-.684.54-.296.128-.652.192-1.068.192Zm.264-.912c.528 0 .948-.128 1.26-.384.312-.256.468-.604.468-1.044v-.924h-1.92c-.352 0-.64.108-.864.324-.216.208-.324.488-.324.84 0 .368.12.66.36.876.248.208.588.312 1.02.312Zm5.251.792v-6.6h1.08v1.26h.228l-.228.288c0-.512.156-.916.468-1.212.32-.304.76-.456 1.32-.456.688 0 1.216.208 1.584.624.376.408.564.992.564 1.752v.564h-1.08v-.564c0-.488-.12-.848-.36-1.08-.24-.24-.588-.36-1.044-.36-.472 0-.832.136-1.08.408-.248.272-.372.664-.372 1.176V32h-1.08Zm6.871 0v-.984h2.34v-4.632h-2.1V25.4h3.18v5.616h2.22V32h-5.64Zm2.76-7.788c-.264 0-.472-.068-.624-.204a.704.704 0 0 1-.228-.552c0-.24.076-.428.228-.564.152-.144.36-.216.624-.216s.472.072.624.216c.152.136.228.324.228.564a.704.704 0 0 1-.228.552c-.152.136-.36.204-.624.204Zm6.44 7.908c-.68 0-1.22-.188-1.62-.564-.4-.384-.6-.884-.6-1.5 0-.408.092-.764.276-1.068.184-.304.44-.54.768-.708a2.349 2.349 0 0 1 1.128-.264h2.04V27.5c0-.432-.116-.752-.348-.96-.232-.216-.584-.324-1.056-.324-.416 0-.752.076-1.008.228-.256.152-.392.364-.408.636h-1.08c.04-.52.28-.948.72-1.284.448-.344 1.04-.516 1.776-.516.8 0 1.412.192 1.836.576.432.384.648.92.648 1.608V32h-1.068v-1.2h-.18l.168-.24c0 .32-.08.596-.24.828-.16.232-.388.412-.684.54-.296.128-.652.192-1.068.192Zm.264-.912c.528 0 .948-.128 1.26-.384.312-.256.468-.604.468-1.044v-.924h-1.92c-.352 0-.64.108-.864.324-.216.208-.324.488-.324.84 0 .368.12.66.36.876.248.208.588.312 1.02.312Zm5.011.792v-6.6h1.08v1.26h.228l-.228.252c0-.52.156-.92.468-1.2.312-.288.744-.432 1.296-.432.664 0 1.192.204 1.584.612.392.408.588.964.588 1.668V32h-1.08v-4.248c0-.504-.128-.888-.384-1.152-.248-.272-.588-.408-1.02-.408-.448 0-.804.14-1.068.42-.256.28-.384.676-.384 1.188V32h-1.08Zm10.351 0c-.544 0-.98-.156-1.308-.468-.328-.32-.492-.744-.492-1.272v-3.876h-1.896V25.4h1.896v-1.86h1.08v1.86h2.7v.984h-2.7v3.876a.8.8 0 0 0 .192.552.714.714 0 0 0 .528.204h1.92V32h-1.92Zm3.836 1.32 4.26-11.28h1.14l-4.26 11.28h-1.14Zm9.991-1.2c-.528 0-.992-.1-1.392-.3-.392-.2-.7-.488-.924-.864-.216-.384-.324-.836-.324-1.356v-1.8c0-.528.108-.98.324-1.356.224-.376.532-.664.924-.864.4-.2.864-.3 1.392-.3.76 0 1.372.204 1.836.612.472.408.72.964.744 1.668h-1.08c-.024-.424-.168-.748-.432-.972-.264-.232-.62-.348-1.068-.348-.472 0-.852.136-1.14.408-.28.264-.42.644-.42 1.14V29.6c0 .496.14.88.42 1.152.288.272.668.408 1.14.408.448 0 .804-.116 1.068-.348.264-.232.408-.556.432-.972h1.08c-.024.704-.272 1.26-.744 1.668-.464.408-1.076.612-1.836.612Zm6.523 0c-.68 0-1.22-.188-1.62-.564-.4-.384-.6-.884-.6-1.5 0-.408.092-.764.276-1.068.184-.304.44-.54.768-.708a2.349 2.349 0 0 1 1.128-.264h2.04V27.5c0-.432-.116-.752-.348-.96-.232-.216-.584-.324-1.056-.324-.416 0-.752.076-1.008.228-.256.152-.392.364-.408.636h-1.08c.04-.52.28-.948.72-1.284.448-.344 1.04-.516 1.776-.516.8 0 1.412.192 1.836.576.432.384.648.92.648 1.608V32h-1.068v-1.2h-.18l.168-.24c0 .32-.08.596-.24.828-.16.232-.388.412-.684.54-.296.128-.652.192-1.068.192Zm.264-.912c.528 0 .948-.128 1.26-.384.312-.256.468-.604.468-1.044v-.924h-1.92c-.352 0-.64.108-.864.324-.216.208-.324.488-.324.84 0 .368.12.66.36.876.248.208.588.312 1.02.312Zm8.168.792c-.544 0-.98-.156-1.308-.468-.328-.32-.492-.744-.492-1.272v-3.876h-1.896V25.4h1.896v-1.86h1.08v1.86h2.7v.984h-2.7v3.876a.8.8 0 0 0 .192.552.714.714 0 0 0 .528.204h1.92V32h-1.92Zm6.535.12c-.52 0-.976-.104-1.368-.312a2.296 2.296 0 0 1-.9-.912c-.216-.4-.324-.872-.324-1.416v-1.56c0-.552.108-1.024.324-1.416.216-.392.516-.692.9-.9.392-.216.848-.324 1.368-.324.52 0 .972.104 1.356.312.392.208.696.5.912.876.216.376.324.82.324 1.332v1.176h-4.128v.624c0 .488.14.876.42 1.164.28.28.652.42 1.116.42.4 0 .728-.076.984-.228.264-.16.424-.372.48-.636h1.08c-.072.552-.34.992-.804 1.32-.464.32-1.044.48-1.74.48Zm1.536-3.876V27.8c0-.52-.136-.92-.408-1.2-.264-.288-.64-.432-1.128-.432-.488 0-.868.144-1.14.432-.264.28-.396.68-.396 1.2v.336h3.156l-.084.108Zm3.991 5.916v-.984h1.86c.376 0 .672-.108.888-.324.216-.208.324-.492.324-.852v-.6l.024-1.08h-.216l.204-.3c0 .48-.16.856-.48 1.128-.32.264-.748.396-1.284.396-.68 0-1.216-.216-1.608-.648-.392-.432-.588-1.024-.588-1.776v-1.392c0-.752.196-1.348.588-1.788.392-.44.928-.66 1.608-.66.536 0 .964.14 1.284.42.32.28.48.66.48 1.14l-.204-.3h.204V25.4h1.068V32c0 .664-.208 1.188-.624 1.572-.408.392-.968.588-1.68.588h-1.848Zm1.644-3.516c.448 0 .8-.14 1.056-.42.256-.28.384-.668.384-1.164V27.8c0-.496-.128-.884-.384-1.164-.256-.28-.608-.42-1.056-.42-.456 0-.812.132-1.068.396-.248.264-.372.62-.372 1.068v1.5c0 .448.124.804.372 1.068.256.264.612.396 1.068.396Zm7.22 1.452c-.528 0-.988-.104-1.38-.312a2.216 2.216 0 0 1-.9-.9c-.208-.4-.312-.876-.312-1.428v-1.512c0-.56.104-1.036.312-1.428.216-.392.516-.692.9-.9.392-.208.852-.312 1.38-.312.536 0 .996.104 1.38.312.384.208.68.508.888.9.216.392.324.868.324 1.428v1.512c0 .552-.108 1.028-.324 1.428a2.124 2.124 0 0 1-.9.9c-.384.208-.84.312-1.368.312Zm0-.96c.472 0 .84-.132 1.104-.396.272-.264.408-.652.408-1.164v-1.752c0-.512-.136-.9-.408-1.164-.264-.264-.632-.396-1.104-.396-.464 0-.832.132-1.104.396-.272.264-.408.652-.408 1.164v1.752c0 .512.136.9.408 1.164.272.264.64.396 1.104.396Zm4.939.864v-6.6h1.08v1.26h.228l-.228.288c0-.512.156-.916.468-1.212.32-.304.76-.456 1.32-.456.688 0 1.216.208 1.584.624.376.408.564.992.564 1.752v.564h-1.08v-.564c0-.488-.12-.848-.36-1.08-.24-.24-.588-.36-1.044-.36-.472 0-.832.136-1.08.408-.248.272-.372.664-.372 1.176V32h-1.08Zm7.987 2.16.972-2.568-2.46-6.192h1.164l1.56 4.08c.064.16.124.328.18.504.056.176.096.328.12.456a3.93 3.93 0 0 1 .12-.456c.056-.176.112-.344.168-.504l1.452-4.08h1.14l-3.288 8.76h-1.128Z" fill="#333238"/><rect x="305" y="16" width="38" height="24" rx="4" fill="#ECECEF"/><path d="M316.807 32.12c-.296 0-.536-.088-.72-.264a.925.925 0 0 1-.264-.684c0-.296.088-.536.264-.72.184-.184.424-.276.72-.276s.532.092.708.276c.184.184.276.424.276.72 0 .28-.092.508-.276.684-.176.176-.412.264-.708.264Zm7.195 0c-.296 0-.536-.088-.72-.264a.925.925 0 0 1-.264-.684c0-.296.088-.536.264-.72.184-.184.424-.276.72-.276s.532.092.708.276c.184.184.276.424.276.72 0 .28-.092.508-.276.684-.176.176-.412.264-.708.264Zm7.196 0c-.296 0-.536-.088-.72-.264a.925.925 0 0 1-.264-.684c0-.296.088-.536.264-.72.184-.184.424-.276.72-.276s.532.092.708.276c.184.184.276.424.276.72 0 .28-.092.508-.276.684-.176.176-.412.264-.708.264Z" fill="#333238"/></svg>