<svg width="430" height="112" viewBox="0 0 430 112" fill="none" xmlns="http://www.w3.org/2000/svg"><rect width="224" height="112" rx="4" fill="#FBFAFD"/><rect x="16" y="16" width="192" height="28" rx="4" fill="#ECECEF"/><rect x="24" y="22" width="16" height="16" rx="2" fill="#434248"/><path d="M53.42 35c-.635 0-1.144-.182-1.527-.546-.382-.373-.574-.868-.574-1.484v-4.522h-2.212V27.3h2.212v-2.17h1.26v2.17h3.15v1.148h-3.15v4.522c0 .261.075.476.224.644a.833.833 0 0 0 .616.238h2.24V35h-2.24Zm7.624.14c-.607 0-1.139-.121-1.596-.364a2.679 2.679 0 0 1-1.05-1.064c-.252-.467-.378-1.017-.378-1.652v-1.82c0-.644.126-1.195.378-1.652a2.586 2.586 0 0 1 1.05-1.05c.457-.252.99-.378 1.596-.378.606 0 1.134.121 1.582.364.457.243.812.583 1.064 1.022.252.439.378.957.378 1.554v1.372h-4.816v.728c0 .57.163 1.022.49 1.358.326.327.76.49 1.302.49.466 0 .85-.089 1.148-.266.308-.187.494-.434.56-.742h1.26c-.084.644-.397 1.157-.938 1.54-.542.373-1.218.56-2.03.56Zm1.792-4.522V30.1c0-.607-.159-1.073-.476-1.4-.308-.336-.747-.504-1.316-.504-.57 0-1.013.168-1.33.504-.308.327-.462.793-.462 1.4v.392h3.682l-.098.126ZM65.938 35l2.73-3.962-2.562-3.738h1.484l1.526 2.38c.066.103.126.215.182.336.066.121.117.22.154.294a4.55 4.55 0 0 1 .126-.294 5.33 5.33 0 0 1 .196-.336L71.3 27.3h1.484l-2.562 3.752L72.938 35h-1.484l-1.652-2.52a3.89 3.89 0 0 1-.196-.35 3.044 3.044 0 0 0-.154-.336 5.617 5.617 0 0 1-.168.336c-.065.13-.135.247-.21.35L67.422 35h-1.484Zm12.665 0c-.635 0-1.143-.182-1.526-.546-.383-.373-.574-.868-.574-1.484v-4.522H74.29V27.3h2.212v-2.17h1.26v2.17h3.15v1.148h-3.15v4.522c0 .261.075.476.224.644a.833.833 0 0 0 .616.238h2.24V35h-2.24Zm7.624.14c-.345 0-.625-.103-.84-.308-.205-.205-.308-.471-.308-.798 0-.345.103-.625.308-.84.215-.215.495-.322.84-.322.346 0 .621.107.826.322.215.215.322.495.322.84 0 .327-.107.593-.322.798-.205.205-.48.308-.826.308Zm8.507 0c-.616 0-1.157-.117-1.624-.35a2.61 2.61 0 0 1-1.078-1.008c-.252-.448-.378-.975-.378-1.582v-2.1c0-.616.126-1.143.378-1.582a2.61 2.61 0 0 1 1.078-1.008c.466-.233 1.008-.35 1.624-.35.887 0 1.6.238 2.142.714.55.476.84 1.125.868 1.946h-1.26c-.028-.495-.196-.873-.504-1.134-.308-.27-.724-.406-1.246-.406-.55 0-.994.159-1.33.476-.327.308-.49.751-.49 1.33V32.2c0 .579.163 1.027.49 1.344.336.317.78.476 1.33.476.523 0 .938-.135 1.246-.406.308-.27.476-.649.504-1.134h1.26c-.028.821-.317 1.47-.868 1.946-.541.476-1.255.714-2.142.714Zm8.282-.028c-.616 0-1.152-.121-1.61-.364a2.586 2.586 0 0 1-1.05-1.05c-.242-.467-.364-1.022-.364-1.666v-1.764c0-.653.122-1.209.364-1.666a2.586 2.586 0 0 1 1.05-1.05c.458-.243.994-.364 1.61-.364.626 0 1.162.121 1.61.364.448.243.794.593 1.036 1.05.252.457.378 1.013.378 1.666v1.764c0 .644-.126 1.2-.378 1.666a2.471 2.471 0 0 1-1.05 1.05c-.448.243-.98.364-1.596.364Zm0-1.12c.551 0 .98-.154 1.288-.462.318-.308.476-.76.476-1.358v-2.044c0-.597-.158-1.05-.476-1.358-.308-.308-.737-.462-1.288-.462-.541 0-.97.154-1.288.462-.317.308-.476.76-.476 1.358v2.044c0 .597.159 1.05.476 1.358.318.308.747.462 1.288.462ZM112.531 35c-.448 0-.84-.089-1.176-.266a1.914 1.914 0 0 1-.784-.756c-.187-.327-.28-.71-.28-1.148v-6.902h-2.66V24.78h3.92v8.05c0 .317.089.57.266.756.177.177.415.266.714.266h2.38V35h-2.38Zm7.274.112c-.616 0-1.152-.121-1.61-.364a2.586 2.586 0 0 1-1.05-1.05c-.242-.467-.364-1.022-.364-1.666v-1.764c0-.653.122-1.209.364-1.666a2.586 2.586 0 0 1 1.05-1.05c.458-.243.994-.364 1.61-.364.626 0 1.162.121 1.61.364.448.243.794.593 1.036 1.05.252.457.378 1.013.378 1.666v1.764c0 .644-.126 1.2-.378 1.666a2.471 2.471 0 0 1-1.05 1.05c-.448.243-.98.364-1.596.364Zm0-1.12c.551 0 .98-.154 1.288-.462.318-.308.476-.76.476-1.358v-2.044c0-.597-.158-1.05-.476-1.358-.308-.308-.737-.462-1.288-.462-.541 0-.97.154-1.288.462-.317.308-.476.76-.476 1.358v2.044c0 .597.159 1.05.476 1.358.318.308.747.462 1.288.462ZM125.568 35v-7.7h1.26v1.47h.266l-.266.336c0-.597.182-1.069.546-1.414.373-.355.887-.532 1.54-.532.803 0 1.419.243 1.848.728.439.476.658 1.157.658 2.044v.658h-1.26v-.658c0-.57-.14-.99-.42-1.26-.28-.28-.686-.42-1.218-.42-.551 0-.971.159-1.26.476-.289.317-.434.775-.434 1.372V35h-1.26Zm11.027.14c-.346 0-.626-.103-.84-.308-.206-.205-.308-.471-.308-.798 0-.345.102-.625.308-.84.214-.215.494-.322.84-.322.345 0 .62.107.826.322.214.215.322.495.322.84 0 .327-.108.593-.322.798-.206.205-.481.308-.826.308Zm7.946 0c-.765 0-1.381-.257-1.848-.77-.457-.513-.686-1.209-.686-2.086V30.03c0-.887.229-1.587.686-2.1.457-.513 1.073-.77 1.848-.77.635 0 1.148.173 1.54.518.392.345.588.807.588 1.386l-.28-.294h.28l-.028-1.75v-2.24h1.26V35h-1.26v-1.47h-.252l.252-.294c0 .588-.191 1.055-.574 1.4-.383.336-.891.504-1.526.504Zm.42-1.092c.523 0 .933-.163 1.232-.49.299-.327.448-.78.448-1.358v-2.1c0-.579-.149-1.031-.448-1.358-.299-.327-.709-.49-1.232-.49-.532 0-.947.14-1.246.42-.299.27-.448.723-.448 1.358v2.24c0 .625.149 1.078.448 1.358.299.28.714.42 1.246.42Zm8.423 1.092c-.607 0-1.139-.121-1.596-.364a2.679 2.679 0 0 1-1.05-1.064c-.252-.467-.378-1.017-.378-1.652v-1.82c0-.644.126-1.195.378-1.652a2.586 2.586 0 0 1 1.05-1.05c.457-.252.989-.378 1.596-.378.606 0 1.134.121 1.582.364.457.243.812.583 1.064 1.022.252.439.378.957.378 1.554v1.372h-4.816v.728c0 .57.163 1.022.49 1.358.326.327.76.49 1.302.49.466 0 .849-.089 1.148-.266.308-.187.494-.434.56-.742h1.26c-.084.644-.397 1.157-.938 1.54-.542.373-1.218.56-2.03.56Zm1.792-4.522V30.1c0-.607-.159-1.073-.476-1.4-.308-.336-.747-.504-1.316-.504-.57 0-1.013.168-1.33.504-.308.327-.462.793-.462 1.4v.392h3.682l-.098.126ZM160.588 35v-5.502h-2.24V28.35h2.24v-1.61c0-.607.191-1.083.574-1.428.383-.355.91-.532 1.582-.532h2.254v1.148h-2.254c-.289 0-.513.07-.672.21-.149.13-.224.331-.224.602v1.61h3.15v1.148h-3.15V35h-1.26Zm8.913.14c-.794 0-1.424-.22-1.89-.658-.467-.448-.7-1.031-.7-1.75 0-.476.107-.891.322-1.246.214-.355.513-.63.896-.826a2.738 2.738 0 0 1 1.316-.308h2.38v-.602c0-.504-.136-.877-.406-1.12-.271-.252-.682-.378-1.232-.378-.486 0-.878.089-1.176.266-.299.177-.458.425-.476.742h-1.26c.046-.607.326-1.106.84-1.498.522-.401 1.213-.602 2.072-.602.933 0 1.647.224 2.142.672.504.448.756 1.073.756 1.876V35h-1.246v-1.4h-.21l.196-.28c0 .373-.094.695-.28.966-.187.27-.453.48-.798.63-.346.15-.761.224-1.246.224Zm.308-1.064c.616 0 1.106-.15 1.47-.448.364-.299.546-.705.546-1.218v-1.078h-2.24c-.411 0-.747.126-1.008.378-.252.243-.378.57-.378.98 0 .43.14.77.42 1.022.289.243.686.364 1.19.364Zm8.744 1.064c-.886 0-1.596-.261-2.128-.784-.532-.532-.798-1.25-.798-2.156v-4.9h1.26v4.9c0 .56.15 1.008.448 1.344.299.327.705.49 1.218.49.523 0 .934-.163 1.232-.49.308-.336.462-.784.462-1.344v-4.9h1.26v4.9c0 .905-.27 1.624-.812 2.156-.541.523-1.255.784-2.142.784Zm9.529-.14c-.448 0-.84-.089-1.176-.266a1.908 1.908 0 0 1-.784-.756c-.187-.327-.28-.71-.28-1.148v-6.902h-2.66V24.78h3.92v8.05c0 .317.088.57.266.756.177.177.415.266.714.266h2.38V35h-2.38Zm8.044 0c-.634 0-1.143-.182-1.526-.546-.382-.373-.574-.868-.574-1.484v-4.522h-2.212V27.3h2.212v-2.17h1.26v2.17h3.15v1.148h-3.15v4.522c0 .261.075.476.224.644a.834.834 0 0 0 .616.238h2.24V35h-2.24Z" fill="#333238"/><path stroke="#7B58CF" stroke-width="2" stroke-linecap="round" d="M47 63h35m-35 0V49m35 14V49"/><rect x="38.5" y="72" width="52" height="24" rx="12" fill="#7B58CF"/><path d="M50.092 88.14c-1.782 0-2.983-1.353-2.983-3.374 0-2.051 1.201-3.399 2.983-3.399 1.787 0 2.994 1.348 2.994 3.399 0 2.021-1.207 3.375-2.994 3.375Zm0-.943c1.324 0 1.928-1.142 1.928-2.431 0-1.301-.604-2.456-1.928-2.456-1.307 0-1.91 1.149-1.91 2.456 0 1.289.603 2.431 1.91 2.431Zm7.57.944c-1.248 0-1.687-.791-1.904-1.155h-.117V88h-1.02v-8.73h1.055v3.228h.082c.217-.346.62-1.13 1.898-1.13 1.635 0 2.778 1.3 2.778 3.374 0 2.086-1.137 3.399-2.772 3.399Zm-.158-.944c1.224 0 1.857-1.09 1.857-2.466 0-1.36-.615-2.42-1.857-2.42-1.207 0-1.84.972-1.84 2.42 0 1.459.65 2.466 1.84 2.466Zm4.459-5.748h1.06v7.02c.006 1.248-.65 1.98-1.921 1.98h-.211v-.972h.193c.61 0 .879-.358.879-1.008v-7.02Zm.533-1.072c-.398 0-.732-.31-.732-.697 0-.387.334-.698.732-.698.404 0 .738.311.738.698 0 .386-.334.697-.738.697Zm5.133 7.764c-1.898 0-3.07-1.348-3.07-3.364 0-2.01 1.16-3.41 2.947-3.41 1.388 0 2.853.856 2.853 3.276v.439h-5.086v-.89h4.518l-.492.328c0-1.29-.61-2.215-1.793-2.215-1.184 0-1.881.978-1.881 2.045v.591c0 1.46.809 2.262 2.01 2.262.773 0 1.353-.34 1.6-1.008l1.019.282c-.305.99-1.283 1.664-2.625 1.664Zm6.908 0c-1.781 0-2.982-1.354-2.982-3.375 0-2.051 1.2-3.399 2.982-3.399 1.266 0 2.297.668 2.654 1.81l-1.013.288c-.194-.674-.78-1.154-1.64-1.154-1.307 0-1.911 1.148-1.911 2.455 0 1.289.604 2.431 1.91 2.431.879 0 1.477-.498 1.67-1.207l1.008.287c-.352 1.166-1.395 1.864-2.678 1.864Zm6.768-6.692v.903h-3.387v-.903h3.387Zm-2.403-1.558h1.055v6.41c0 .586.217.843.774.843.134 0 .363-.035.538-.07l.217.89a2.538 2.538 0 0 1-.785.118c-1.13 0-1.799-.627-1.799-1.7v-6.491Z" fill="#fff"/><path stroke="#7B58CF" stroke-width="2" stroke-linecap="round" d="M92 63h115M92 63V49m115 14V49"/><rect x="118" y="72" width="63" height="24" rx="12" fill="#7B58CF"/><path d="M126.926 88v-6.55h1.025l.006 1.464h-.082c.264-1.06 1.066-1.582 1.916-1.582.949 0 1.553.645 1.729 1.594h-.141c.234-.979 1.101-1.594 2.144-1.594 1.137 0 2.063.733 2.063 2.25V88h-1.061v-4.389c0-.943-.615-1.318-1.318-1.318-.885 0-1.424.603-1.424 1.43V88h-1.054v-4.494c0-.727-.545-1.213-1.284-1.213-.767 0-1.465.539-1.465 1.582V88h-1.054Zm13.178.14c-1.782 0-2.983-1.353-2.983-3.374 0-2.051 1.201-3.399 2.983-3.399 1.787 0 2.994 1.348 2.994 3.399 0 2.021-1.207 3.375-2.994 3.375Zm0-.943c1.324 0 1.927-1.142 1.927-2.431 0-1.301-.603-2.456-1.927-2.456-1.307 0-1.911 1.149-1.911 2.456 0 1.289.604 2.431 1.911 2.431Zm6.984.944c-1.635 0-2.772-1.313-2.772-3.399 0-2.074 1.143-3.375 2.778-3.375 1.277 0 1.681.785 1.898 1.131h.082v-3.229h1.055V88h-1.02v-1.014h-.117c-.217.364-.656 1.155-1.904 1.155Zm.158-.944c1.19 0 1.84-1.008 1.84-2.466 0-1.448-.633-2.42-1.84-2.42-1.242 0-1.857 1.06-1.857 2.42 0 1.376.632 2.466 1.857 2.466Zm4.734.803v-6.55h1.055V88h-1.055Zm.534-7.623c-.399 0-.733-.31-.733-.697 0-.387.334-.698.733-.698.404 0 .738.311.738.698 0 .386-.334.697-.738.697ZM155.355 88v-7.424c0-1.136.909-1.717 1.864-1.717.211 0 .398.018.551.047l-.159.955a1.215 1.215 0 0 0-.269-.023c-.651 0-.932.34-.932.973V88h-1.055Zm-1.277-5.648v-.903h5.192v.903h-5.192Zm4.84 5.648v-6.55h1.055V88h-1.055Zm.533-7.623c-.398 0-.732-.31-.732-.697 0-.387.334-.698.732-.698.404 0 .738.311.738.698 0 .386-.334.697-.738.697Zm5.127 7.764c-1.898 0-3.07-1.348-3.07-3.364 0-2.01 1.16-3.41 2.947-3.41 1.389 0 2.854.856 2.854 3.276v.439h-5.086v-.89h4.517l-.492.328c0-1.29-.609-2.215-1.793-2.215s-1.881.978-1.881 2.045v.591c0 1.46.809 2.262 2.01 2.262.773 0 1.354-.34 1.6-1.008l1.019.282c-.305.99-1.283 1.664-2.625 1.664ZM168.82 88v-6.55h1.02v1.007h.07c.24-.662.92-1.101 1.699-1.101.153 0 .411.011.534.017v1.06a4.003 4.003 0 0 0-.633-.058c-.944 0-1.635.639-1.635 1.523V88h-1.055Z" fill="#fff"/><rect x="232" width="198" height="112" rx="4" fill="#FBFAFD"/><rect x="248" y="16" width="166" height="28" rx="4" fill="#ECECEF"/><rect x="256" y="22" width="16" height="16" rx="2" fill="#1068BF"/><path d="M281.231 35v-1.148h2.73v-5.404h-2.45V27.3h3.71v6.552h2.59V35h-6.58Zm3.22-9.086c-.308 0-.551-.08-.728-.238-.177-.159-.266-.373-.266-.644 0-.28.089-.5.266-.658.177-.168.42-.252.728-.252s.551.084.728.252c.177.159.266.378.266.658 0 .27-.089.485-.266.644-.177.159-.42.238-.728.238Zm8.297 9.226c-.616 0-1.158-.117-1.624-.35a2.605 2.605 0 0 1-1.078-1.008c-.252-.448-.378-.975-.378-1.582v-2.1c0-.616.126-1.143.378-1.582a2.6 2.6 0 0 1 1.078-1.008c.466-.233 1.008-.35 1.624-.35.886 0 1.6.238 2.142.714.55.476.84 1.125.868 1.946h-1.26c-.028-.495-.196-.873-.504-1.134-.308-.27-.724-.406-1.246-.406-.551 0-.994.159-1.33.476-.327.308-.49.751-.49 1.33V32.2c0 .579.163 1.027.49 1.344.336.317.779.476 1.33.476.522 0 .938-.135 1.246-.406.308-.27.476-.649.504-1.134h1.26c-.028.821-.318 1.47-.868 1.946-.542.476-1.256.714-2.142.714Zm8.282-.028c-.616 0-1.153-.121-1.61-.364a2.586 2.586 0 0 1-1.05-1.05c-.243-.467-.364-1.022-.364-1.666v-1.764c0-.653.121-1.209.364-1.666a2.586 2.586 0 0 1 1.05-1.05c.457-.243.994-.364 1.61-.364.625 0 1.162.121 1.61.364a2.5 2.5 0 0 1 1.036 1.05c.252.457.378 1.013.378 1.666v1.764c0 .644-.126 1.2-.378 1.666a2.482 2.482 0 0 1-1.05 1.05c-.448.243-.98.364-1.596.364Zm0-1.12c.551 0 .98-.154 1.288-.462.317-.308.476-.76.476-1.358v-2.044c0-.597-.159-1.05-.476-1.358-.308-.308-.737-.462-1.288-.462-.541 0-.971.154-1.288.462-.317.308-.476.76-.476 1.358v2.044c0 .597.159 1.05.476 1.358.317.308.747.462 1.288.462ZM306.513 35v-7.7h1.26v1.47h.266l-.266.294c0-.607.182-1.073.546-1.4.364-.336.868-.504 1.512-.504.774 0 1.39.238 1.848.714.457.476.686 1.125.686 1.946V35h-1.26v-4.956c0-.588-.15-1.036-.448-1.344-.29-.317-.686-.476-1.19-.476-.523 0-.938.163-1.246.49-.299.327-.448.789-.448 1.386V35h-1.26Zm11.306.14c-.345 0-.625-.103-.84-.308-.205-.205-.308-.471-.308-.798 0-.345.103-.625.308-.84.215-.215.495-.322.84-.322s.621.107.826.322c.215.215.322.495.322.84 0 .327-.107.593-.322.798-.205.205-.481.308-.826.308Zm8.507 0c-.616 0-1.158-.117-1.624-.35a2.605 2.605 0 0 1-1.078-1.008c-.252-.448-.378-.975-.378-1.582v-2.1c0-.616.126-1.143.378-1.582a2.6 2.6 0 0 1 1.078-1.008c.466-.233 1.008-.35 1.624-.35.886 0 1.6.238 2.142.714.55.476.84 1.125.868 1.946h-1.26c-.028-.495-.196-.873-.504-1.134-.308-.27-.724-.406-1.246-.406-.551 0-.994.159-1.33.476-.327.308-.49.751-.49 1.33V32.2c0 .579.163 1.027.49 1.344.336.317.779.476 1.33.476.522 0 .938-.135 1.246-.406.308-.27.476-.649.504-1.134h1.26c-.028.821-.318 1.47-.868 1.946-.542.476-1.256.714-2.142.714Zm8.282-.028c-.616 0-1.152-.121-1.61-.364a2.586 2.586 0 0 1-1.05-1.05c-.242-.467-.364-1.022-.364-1.666v-1.764c0-.653.122-1.209.364-1.666a2.586 2.586 0 0 1 1.05-1.05c.458-.243.994-.364 1.61-.364.626 0 1.162.121 1.61.364.448.243.794.593 1.036 1.05.252.457.378 1.013.378 1.666v1.764c0 .644-.126 1.2-.378 1.666a2.471 2.471 0 0 1-1.05 1.05c-.448.243-.98.364-1.596.364Zm0-1.12c.551 0 .98-.154 1.288-.462.318-.308.476-.76.476-1.358v-2.044c0-.597-.158-1.05-.476-1.358-.308-.308-.737-.462-1.288-.462-.541 0-.97.154-1.288.462-.317.308-.476.76-.476 1.358v2.044c0 .597.159 1.05.476 1.358.318.308.747.462 1.288.462ZM344.123 35c-.448 0-.84-.089-1.176-.266a1.908 1.908 0 0 1-.784-.756c-.187-.327-.28-.71-.28-1.148v-6.902h-2.66V24.78h3.92v8.05c0 .317.088.57.266.756.177.177.415.266.714.266h2.38V35h-2.38Zm7.274.112c-.616 0-1.152-.121-1.61-.364a2.586 2.586 0 0 1-1.05-1.05c-.242-.467-.364-1.022-.364-1.666v-1.764c0-.653.122-1.209.364-1.666a2.586 2.586 0 0 1 1.05-1.05c.458-.243.994-.364 1.61-.364.626 0 1.162.121 1.61.364.448.243.794.593 1.036 1.05.252.457.378 1.013.378 1.666v1.764c0 .644-.126 1.2-.378 1.666a2.471 2.471 0 0 1-1.05 1.05c-.448.243-.98.364-1.596.364Zm0-1.12c.551 0 .98-.154 1.288-.462.318-.308.476-.76.476-1.358v-2.044c0-.597-.158-1.05-.476-1.358-.308-.308-.737-.462-1.288-.462-.541 0-.97.154-1.288.462-.317.308-.476.76-.476 1.358v2.044c0 .597.159 1.05.476 1.358.318.308.747.462 1.288.462ZM357.16 35v-7.7h1.26v1.47h.266l-.266.336c0-.597.182-1.069.546-1.414.373-.355.886-.532 1.54-.532.802 0 1.418.243 1.848.728.438.476.658 1.157.658 2.044v.658h-1.26v-.658c0-.57-.14-.99-.42-1.26-.28-.28-.686-.42-1.218-.42-.551 0-.971.159-1.26.476-.29.317-.434.775-.434 1.372V35h-1.26Zm11.026.14c-.345 0-.625-.103-.84-.308-.205-.205-.308-.471-.308-.798 0-.345.103-.625.308-.84.215-.215.495-.322.84-.322.346 0 .621.107.826.322.215.215.322.495.322.84 0 .327-.107.593-.322.798-.205.205-.48.308-.826.308Zm9.515-.14c-.448 0-.84-.089-1.176-.266a1.914 1.914 0 0 1-.784-.756c-.187-.327-.28-.71-.28-1.148v-6.902h-2.66V24.78h3.92v8.05c0 .317.089.57.266.756.177.177.415.266.714.266h2.38V35h-2.38Zm4.264 0v-1.148h2.73v-5.404h-2.45V27.3h3.71v6.552h2.59V35h-6.58Zm3.22-9.086c-.308 0-.55-.08-.728-.238-.177-.159-.266-.373-.266-.644 0-.28.089-.5.266-.658.178-.168.42-.252.728-.252s.551.084.728.252c.178.159.266.378.266.658 0 .27-.088.485-.266.644-.177.159-.42.238-.728.238ZM390.458 35v-7.7h1.26v1.47h.266l-.266.294c0-.607.182-1.073.546-1.4.364-.336.868-.504 1.512-.504.775 0 1.391.238 1.848.714.457.476.686 1.125.686 1.946V35h-1.26v-4.956c0-.588-.149-1.036-.448-1.344-.289-.317-.686-.476-1.19-.476-.523 0-.938.163-1.246.49-.299.327-.448.789-.448 1.386V35h-1.26Zm8.464 0V24.78h1.26v5.698h1.47l2.156-3.178h1.442l-2.478 3.668L405.39 35h-1.47l-2.24-3.43h-1.498V35h-1.26Z" fill="#333238"/><path stroke="#7B58CF" stroke-width="2" stroke-linecap="round" d="M282 63h32m-32 0V49m32 14V49"/><rect x="272" y="72" width="52" height="24" rx="12" fill="#7B58CF"/><path d="M283.592 88.14c-1.781 0-2.983-1.353-2.983-3.374 0-2.051 1.202-3.399 2.983-3.399 1.787 0 2.994 1.348 2.994 3.399 0 2.021-1.207 3.375-2.994 3.375Zm0-.943c1.324 0 1.928-1.142 1.928-2.431 0-1.301-.604-2.456-1.928-2.456-1.307 0-1.91 1.149-1.91 2.456 0 1.289.603 2.431 1.91 2.431Zm7.57.944c-1.248 0-1.687-.791-1.904-1.155h-.117V88h-1.02v-8.73h1.055v3.228h.082c.217-.346.621-1.13 1.898-1.13 1.635 0 2.778 1.3 2.778 3.374 0 2.086-1.137 3.399-2.772 3.399Zm-.158-.944c1.225 0 1.857-1.09 1.857-2.466 0-1.36-.615-2.42-1.857-2.42-1.207 0-1.84.972-1.84 2.42 0 1.459.65 2.466 1.84 2.466Zm4.459-5.748h1.06v7.02c.006 1.248-.65 1.98-1.921 1.98h-.211v-.972h.193c.609 0 .879-.358.879-1.008v-7.02Zm.533-1.072c-.398 0-.732-.31-.732-.697 0-.387.334-.698.732-.698.404 0 .738.311.738.698 0 .386-.334.697-.738.697Zm5.133 7.764c-1.899 0-3.07-1.348-3.07-3.364 0-2.01 1.16-3.41 2.947-3.41 1.389 0 2.853.856 2.853 3.276v.439h-5.086v-.89h4.518l-.492.328c0-1.29-.61-2.215-1.793-2.215-1.184 0-1.881.978-1.881 2.045v.591c0 1.46.809 2.262 2.01 2.262.773 0 1.353-.34 1.599-1.008l1.02.282c-.305.99-1.283 1.664-2.625 1.664Zm6.908 0c-1.781 0-2.982-1.354-2.982-3.375 0-2.051 1.201-3.399 2.982-3.399 1.266 0 2.297.668 2.654 1.81l-1.013.288c-.194-.674-.78-1.154-1.641-1.154-1.307 0-1.91 1.148-1.91 2.455 0 1.289.603 2.431 1.91 2.431.879 0 1.477-.498 1.67-1.207l1.008.287c-.352 1.166-1.395 1.864-2.678 1.864Zm6.768-6.692v.903h-3.387v-.903h3.387Zm-2.403-1.558h1.055v6.41c0 .586.217.843.773.843.135 0 .364-.035.54-.07l.216.89a2.531 2.531 0 0 1-.785.118c-1.131 0-1.799-.627-1.799-1.7v-6.491Z" fill="#fff"/><path stroke="#7B58CF" stroke-width="2" stroke-linecap="round" d="M324 63h89m-89 0V49m89 14V49"/><rect x="337" y="72" width="63" height="24" rx="12" fill="#7B58CF"/><path d="M345.926 88v-6.55h1.025l.006 1.464h-.082c.264-1.06 1.066-1.582 1.916-1.582.949 0 1.553.645 1.729 1.594h-.141c.234-.979 1.101-1.594 2.144-1.594 1.137 0 2.063.733 2.063 2.25V88h-1.061v-4.389c0-.943-.615-1.318-1.318-1.318-.885 0-1.424.603-1.424 1.43V88h-1.054v-4.494c0-.727-.545-1.213-1.284-1.213-.767 0-1.465.539-1.465 1.582V88h-1.054Zm13.178.14c-1.782 0-2.983-1.353-2.983-3.374 0-2.051 1.201-3.399 2.983-3.399 1.787 0 2.994 1.348 2.994 3.399 0 2.021-1.207 3.375-2.994 3.375Zm0-.943c1.324 0 1.927-1.142 1.927-2.431 0-1.301-.603-2.456-1.927-2.456-1.307 0-1.911 1.149-1.911 2.456 0 1.289.604 2.431 1.911 2.431Zm6.984.944c-1.635 0-2.772-1.313-2.772-3.399 0-2.074 1.143-3.375 2.778-3.375 1.277 0 1.681.785 1.898 1.131h.082v-3.229h1.055V88h-1.02v-1.014h-.117c-.217.364-.656 1.155-1.904 1.155Zm.158-.944c1.19 0 1.84-1.008 1.84-2.466 0-1.448-.633-2.42-1.84-2.42-1.242 0-1.857 1.06-1.857 2.42 0 1.376.632 2.466 1.857 2.466Zm4.734.803v-6.55h1.055V88h-1.055Zm.534-7.623c-.399 0-.733-.31-.733-.697 0-.387.334-.698.733-.698.404 0 .738.311.738.698 0 .386-.334.697-.738.697ZM374.355 88v-7.424c0-1.136.909-1.717 1.864-1.717.211 0 .398.018.551.047l-.159.955a1.215 1.215 0 0 0-.269-.023c-.651 0-.932.34-.932.973V88h-1.055Zm-1.277-5.648v-.903h5.192v.903h-5.192Zm4.84 5.648v-6.55h1.055V88h-1.055Zm.533-7.623c-.398 0-.732-.31-.732-.697 0-.387.334-.698.732-.698.404 0 .738.311.738.698 0 .386-.334.697-.738.697Zm5.127 7.764c-1.898 0-3.07-1.348-3.07-3.364 0-2.01 1.16-3.41 2.947-3.41 1.389 0 2.854.856 2.854 3.276v.439h-5.086v-.89h4.517l-.492.328c0-1.29-.609-2.215-1.793-2.215s-1.881.978-1.881 2.045v.591c0 1.46.809 2.262 2.01 2.262.773 0 1.354-.34 1.6-1.008l1.019.282c-.305.99-1.283 1.664-2.625 1.664ZM387.82 88v-6.55h1.02v1.007h.07c.24-.662.92-1.101 1.699-1.101.153 0 .411.011.534.017v1.06a4.003 4.003 0 0 0-.633-.058c-.944 0-1.635.639-1.635 1.523V88h-1.055Z" fill="#fff"/></svg>