<svg width="282" height="116" viewBox="0 0 282 116" fill="none" xmlns="http://www.w3.org/2000/svg"><rect width="282" height="116" rx="4" fill="#FBFAFD"/><rect x="20" y="76" width="135" height="24" rx="12" fill="#7B58CF"/><path d="M31.592 92.14c-1.781 0-2.983-1.353-2.983-3.374 0-2.051 1.201-3.399 2.983-3.399 1.265 0 2.297.668 2.654 1.81l-1.014.288c-.193-.674-.779-1.154-1.64-1.154-1.307 0-1.91 1.148-1.91 2.455 0 1.289.603 2.431 1.91 2.431.879 0 1.476-.498 1.67-1.207l1.008.287c-.352 1.166-1.395 1.864-2.678 1.864Zm6.855 0c-1.781 0-2.982-1.353-2.982-3.374 0-2.051 1.201-3.399 2.982-3.399 1.787 0 2.994 1.348 2.994 3.399 0 2.021-1.207 3.375-2.994 3.375Zm0-.943c1.325 0 1.928-1.142 1.928-2.431 0-1.301-.603-2.456-1.928-2.456-1.306 0-1.91 1.149-1.91 2.456 0 1.289.604 2.431 1.91 2.431Zm5.584-3.123V92h-1.054v-6.55h1.013l.006 1.587h-.146c.398-1.207 1.16-1.67 2.15-1.67 1.324 0 2.22.815 2.22 2.473V92h-1.06v-4.072c0-1.008-.562-1.612-1.476-1.612-.944 0-1.653.64-1.653 1.758Zm8.274 4.067c-1.348 0-2.285-.598-2.52-1.729l1.002-.24c.188.72.72 1.043 1.506 1.043.914 0 1.5-.451 1.5-.99 0-.452-.316-.75-.961-.903l-1.09-.258c-1.19-.28-1.758-.867-1.758-1.787 0-1.125 1.032-1.91 2.426-1.91 1.348 0 2.057.656 2.356 1.576l-.956.246c-.181-.468-.55-.925-1.394-.925-.78 0-1.365.404-1.365.949 0 .486.334.756 1.101.937l.99.235c1.19.281 1.747.873 1.747 1.77 0 1.148-1.05 1.986-2.584 1.986Zm6.691-6.692v.903H55.61v-.903h3.387Zm-2.402-1.558h1.054v6.41c0 .586.217.843.774.843.135 0 .363-.035.539-.07l.217.89a2.538 2.538 0 0 1-.785.118c-1.131 0-1.8-.627-1.8-1.7v-6.491Zm5.642 8.261c-1.242 0-2.232-.726-2.232-2.015 0-1.5 1.336-1.776 2.549-1.928 1.166-.147 1.681-.111 1.681-.598v-.035c0-.814-.462-1.283-1.37-1.283-.944 0-1.454.504-1.659.96l-1.014-.333c.504-1.19 1.63-1.553 2.643-1.553.879 0 2.455.27 2.455 2.315V92h-1.037v-.89h-.07c-.223.462-.838 1.042-1.946 1.042Zm.182-.931c1.166 0 1.816-.785 1.816-1.588v-.908c-.175.205-1.324.322-1.728.375-.768.1-1.441.345-1.441 1.09 0 .68.568 1.03 1.353 1.03Zm5.777-3.147V92h-1.054v-6.55h1.013l.006 1.587h-.146c.398-1.207 1.16-1.67 2.15-1.67 1.324 0 2.22.815 2.22 2.473V92h-1.06v-4.072c0-1.008-.562-1.612-1.476-1.612-.944 0-1.653.64-1.653 1.758Zm8.625-2.625v.903h-3.386v-.903h3.386Zm-2.402-1.558h1.055v6.41c0 .586.216.843.773.843.135 0 .363-.035.54-.07l.216.89a2.539 2.539 0 0 1-.785.118c-1.131 0-1.799-.627-1.799-1.7v-6.491Zm9.703 1.558v.903h-3.387v-.903h3.387Zm-2.402-1.558h1.054v6.41c0 .586.217.843.774.843.135 0 .363-.035.539-.07l.217.89a2.538 2.538 0 0 1-.785.118c-1.131 0-1.8-.627-1.8-1.7v-6.491Zm6.299 8.25c-1.782 0-2.983-1.354-2.983-3.375 0-2.051 1.201-3.399 2.983-3.399 1.787 0 2.994 1.348 2.994 3.399 0 2.021-1.207 3.375-2.994 3.375Zm0-.944c1.324 0 1.927-1.142 1.927-2.431 0-1.301-.603-2.456-1.927-2.456-1.307 0-1.91 1.149-1.91 2.456 0 1.289.603 2.431 1.91 2.431Zm5.52-1.553v-1.306h.193l2.8-2.889h1.307l-3.03 3.112h-.117l-1.154 1.083ZM92.546 92v-8.73h1.055V92h-1.055Zm4.142 0-2.507-3.205.75-.744L98.043 92h-1.354Zm4.928.14c-1.898 0-3.07-1.347-3.07-3.363 0-2.01 1.16-3.41 2.947-3.41 1.389 0 2.854.856 2.854 3.276v.439h-5.086v-.89h4.517l-.492.328c0-1.29-.609-2.215-1.793-2.215-1.183 0-1.88.978-1.88 2.045v.591c0 1.46.808 2.262 2.009 2.262.773 0 1.354-.34 1.6-1.008l1.019.282c-.304.99-1.283 1.664-2.625 1.664Zm5.297-4.066V92h-1.055v-6.55h1.014l.006 1.587h-.147c.399-1.207 1.161-1.67 2.151-1.67 1.324 0 2.221.815 2.221 2.473V92h-1.061v-4.072c0-1.008-.563-1.612-1.477-1.612-.943 0-1.652.64-1.652 1.758Zm10.477 0V92h-1.055v-6.55h1.014l.005 1.587h-.146c.398-1.207 1.16-1.67 2.15-1.67 1.325 0 2.221.815 2.221 2.473V92h-1.06v-4.072c0-1.008-.563-1.612-1.477-1.612-.943 0-1.652.64-1.652 1.758Zm7.88 4.078c-1.242 0-2.232-.726-2.232-2.015 0-1.5 1.336-1.776 2.549-1.928 1.166-.147 1.682-.111 1.682-.598v-.035c0-.814-.463-1.283-1.372-1.283-.943 0-1.453.504-1.658.96l-1.013-.333c.503-1.19 1.628-1.553 2.642-1.553.879 0 2.455.27 2.455 2.315V92h-1.037v-.89h-.07c-.223.462-.838 1.042-1.946 1.042Zm.182-.931c1.166 0 1.817-.785 1.817-1.588v-.908c-.176.205-1.325.322-1.729.375-.768.1-1.441.345-1.441 1.09 0 .68.568 1.03 1.353 1.03Zm4.723.779v-6.55h1.025l.006 1.464h-.082c.264-1.06 1.066-1.582 1.916-1.582.949 0 1.553.645 1.729 1.594h-.141c.234-.979 1.101-1.594 2.144-1.594 1.137 0 2.063.733 2.063 2.25V92h-1.061v-4.389c0-.943-.615-1.318-1.318-1.318-.885 0-1.424.603-1.424 1.43V92h-1.054v-4.494c0-.727-.545-1.213-1.284-1.213-.767 0-1.465.539-1.465 1.582V92h-1.054Zm13.265.14c-1.898 0-3.07-1.347-3.07-3.363 0-2.01 1.16-3.41 2.947-3.41 1.389 0 2.854.856 2.854 3.276v.439h-5.086v-.89h4.518l-.493.328c0-1.29-.609-2.215-1.793-2.215-1.183 0-1.88.978-1.88 2.045v.591c0 1.46.808 2.262 2.009 2.262.774 0 1.354-.34 1.6-1.008l1.019.282c-.304.99-1.283 1.664-2.625 1.664Z" fill="#fff"/><rect x="193" y="76" width="47" height="24" rx="12" fill="#7B58CF"/><path d="m203.818 92-2.502-6.55h1.155l1.394 3.884c.293.809.475 1.617.703 2.367h-.386c.228-.75.404-1.558.697-2.367l1.394-3.885h1.155L204.926 92h-1.108Zm6.633.152c-1.242 0-2.232-.726-2.232-2.015 0-1.5 1.336-1.776 2.549-1.928 1.166-.147 1.681-.111 1.681-.598v-.035c0-.814-.463-1.283-1.371-1.283-.943 0-1.453.504-1.658.96l-1.014-.333c.504-1.19 1.629-1.553 2.643-1.553.879 0 2.455.27 2.455 2.315V92h-1.037v-.89h-.071c-.222.462-.837 1.042-1.945 1.042Zm.182-.931c1.166 0 1.816-.785 1.816-1.588v-.908c-.176.205-1.324.322-1.728.375-.768.1-1.442.345-1.442 1.09 0 .68.569 1.03 1.354 1.03Zm6.193.826c-.984 0-1.471-.55-1.471-1.5v-7.278h1.055v7.014c0 .604.106.82.545.82.229 0 .322-.017.422-.046l.211.89c-.188.053-.481.1-.762.1Zm4.055.035c-1.324 0-2.221-.814-2.221-2.473v-4.16h1.055v4.073c0 1.007.568 1.61 1.482 1.61.938 0 1.647-.638 1.647-1.757v-3.926h1.06V92h-1.019v-1.588h.14c-.404 1.23-1.183 1.67-2.144 1.67Zm7.635.059c-1.899 0-3.071-1.348-3.071-3.364 0-2.01 1.16-3.41 2.948-3.41 1.388 0 2.853.856 2.853 3.276v.439h-5.086v-.89h4.518l-.492.328c0-1.29-.61-2.215-1.793-2.215-1.184 0-1.881.978-1.881 2.045v.591c0 1.46.808 2.262 2.009 2.262.774 0 1.354-.34 1.6-1.008l1.02.282c-.305.99-1.284 1.664-2.625 1.664Z" fill="#fff"/><path stroke="#7B58CF" stroke-width="2" stroke-linecap="round" d="M18 67h139M18 67V53m139 14V53m11 14h97m-97 0V53m97 14V53"/><path d="M20.459 35.14c-.616 0-1.158-.117-1.625-.35a2.61 2.61 0 0 1-1.078-1.008c-.252-.448-.378-.975-.378-1.582v-2.1c0-.616.127-1.143.378-1.582a2.61 2.61 0 0 1 1.078-1.008c.467-.233 1.009-.35 1.625-.35.886 0 1.6.238 2.142.714.55.476.84 1.125.867 1.946h-1.26c-.027-.495-.195-.873-.503-1.134-.308-.27-.724-.406-1.246-.406-.551 0-.994.159-1.33.476-.327.308-.49.751-.49 1.33V32.2c0 .579.163 1.027.49 1.344.335.317.779.476 1.33.476.522 0 .938-.135 1.245-.406.308-.27.476-.649.505-1.134h1.26c-.029.821-.318 1.47-.869 1.946-.54.476-1.255.714-2.142.714Zm8.282-.028c-.616 0-1.153-.121-1.61-.364a2.586 2.586 0 0 1-1.05-1.05c-.243-.467-.364-1.022-.364-1.666v-1.764c0-.653.121-1.209.364-1.666a2.586 2.586 0 0 1 1.05-1.05c.457-.243.994-.364 1.61-.364.625 0 1.162.121 1.61.364.448.243.793.593 1.036 1.05.252.457.378 1.013.378 1.666v1.764c0 .644-.126 1.2-.378 1.666a2.479 2.479 0 0 1-1.05 1.05c-.448.243-.98.364-1.596.364Zm0-1.12c.55 0 .98-.154 1.288-.462.317-.308.476-.76.476-1.358v-2.044c0-.597-.159-1.05-.476-1.358-.308-.308-.737-.462-1.288-.462-.541 0-.97.154-1.288.462-.317.308-.476.76-.476 1.358v2.044c0 .597.159 1.05.476 1.358.317.308.747.462 1.288.462ZM38.255 35c-.448 0-.84-.089-1.175-.266a1.912 1.912 0 0 1-.785-.756c-.186-.327-.28-.71-.28-1.148v-6.902h-2.66V24.78h3.92v8.05c0 .317.09.57.267.756.177.177.415.266.713.266h2.38V35h-2.38Zm7.275.112c-.616 0-1.153-.121-1.61-.364a2.586 2.586 0 0 1-1.05-1.05c-.243-.467-.364-1.022-.364-1.666v-1.764c0-.653.121-1.209.364-1.666a2.586 2.586 0 0 1 1.05-1.05c.457-.243.994-.364 1.61-.364.625 0 1.162.121 1.61.364.448.243.793.593 1.036 1.05.252.457.378 1.013.378 1.666v1.764c0 .644-.126 1.2-.378 1.666a2.479 2.479 0 0 1-1.05 1.05c-.448.243-.98.364-1.596.364Zm0-1.12c.55 0 .98-.154 1.288-.462.317-.308.476-.76.476-1.358v-2.044c0-.597-.159-1.05-.476-1.358-.308-.308-.737-.462-1.288-.462-.541 0-.97.154-1.288.462-.317.308-.476.76-.476 1.358v2.044c0 .597.159 1.05.476 1.358.317.308.747.462 1.288.462ZM51.293 35v-7.7h1.26v1.47h.266l-.266.336c0-.597.182-1.069.546-1.414.373-.355.886-.532 1.54-.532.802 0 1.418.243 1.848.728.438.476.658 1.157.658 2.044v.658h-1.26v-.658c0-.57-.14-.99-.42-1.26-.28-.28-.686-.42-1.218-.42-.551 0-.971.159-1.26.476-.29.317-.434.775-.434 1.372V35h-1.26Zm11.026.14c-.345 0-.625-.103-.84-.308-.205-.205-.308-.471-.308-.798 0-.345.103-.625.308-.84.215-.215.495-.322.84-.322s.62.107.826.322c.215.215.322.495.322.84 0 .327-.107.593-.322.798-.205.205-.48.308-.826.308Zm5.483 2.38V27.3h1.26v1.47h.252l-.252.294c0-.588.191-1.05.574-1.386.382-.345.891-.518 1.526-.518.513 0 .956.117 1.33.35.382.224.676.55.882.98.214.43.322.938.322 1.526v2.254c0 .588-.103 1.097-.308 1.526-.206.43-.5.76-.882.994-.374.233-.822.35-1.344.35-.626 0-1.134-.173-1.526-.518-.383-.345-.574-.807-.574-1.386l.252.294h-.28l.028 1.75v2.24h-1.26Zm2.94-3.472c.532 0 .947-.14 1.246-.42.298-.28.448-.733.448-1.358v-2.24c0-.635-.15-1.087-.448-1.358-.299-.28-.714-.42-1.246-.42-.514 0-.924.163-1.232.49-.299.327-.448.78-.448 1.358v2.1c0 .579.149 1.031.448 1.358.308.327.718.49 1.232.49Zm8.352 1.092c-.886 0-1.596-.261-2.128-.784-.532-.532-.798-1.25-.798-2.156v-4.9h1.26v4.9c0 .56.15 1.008.448 1.344.299.327.705.49 1.218.49.523 0 .934-.163 1.232-.49.308-.336.462-.784.462-1.344v-4.9h1.26v4.9c0 .905-.27 1.624-.812 2.156-.541.523-1.255.784-2.142.784Zm5.777-.14v-7.7h1.26v1.47h.266l-.266.336c0-.597.182-1.069.546-1.414.373-.355.886-.532 1.54-.532.802 0 1.418.243 1.848.728.438.476.658 1.157.658 2.044v.658h-1.26v-.658c0-.57-.14-.99-.42-1.26-.28-.28-.686-.42-1.218-.42-.55 0-.97.159-1.26.476-.29.317-.434.775-.434 1.372V35h-1.26Zm8.114 2.52V27.3h1.26v1.47h.252l-.252.294c0-.588.192-1.05.574-1.386.383-.345.892-.518 1.526-.518.514 0 .957.117 1.33.35.383.224.677.55.882.98.215.43.322.938.322 1.526v2.254c0 .588-.102 1.097-.308 1.526-.205.43-.5.76-.882.994-.373.233-.821.35-1.344.35-.625 0-1.134-.173-1.526-.518-.382-.345-.574-.807-.574-1.386l.252.294h-.28l.028 1.75v2.24h-1.26Zm2.94-3.472c.532 0 .948-.14 1.246-.42.299-.28.448-.733.448-1.358v-2.24c0-.635-.15-1.087-.448-1.358-.298-.28-.714-.42-1.246-.42-.513 0-.924.163-1.232.49-.298.327-.448.78-.448 1.358v2.1c0 .579.15 1.031.448 1.358.308.327.719.49 1.232.49Zm9.487.952c-.448 0-.84-.089-1.176-.266a1.908 1.908 0 0 1-.784-.756c-.187-.327-.28-.71-.28-1.148v-6.902h-2.66V24.78h3.92v8.05c0 .317.088.57.266.756.177.177.415.266.714.266h2.38V35h-2.38Zm7.274.14c-.606 0-1.138-.121-1.596-.364a2.679 2.679 0 0 1-1.05-1.064c-.252-.467-.378-1.017-.378-1.652v-1.82c0-.644.126-1.195.378-1.652a2.586 2.586 0 0 1 1.05-1.05c.458-.252.99-.378 1.596-.378.607 0 1.134.121 1.582.364.458.243.812.583 1.064 1.022.252.439.378.957.378 1.554v1.372h-4.816v.728c0 .57.164 1.022.49 1.358.327.327.761.49 1.302.49.467 0 .85-.089 1.148-.266.308-.187.495-.434.56-.742h1.26c-.084.644-.396 1.157-.938 1.54-.541.373-1.218.56-2.03.56Zm1.792-4.522V30.1c0-.607-.158-1.073-.476-1.4-.308-.336-.746-.504-1.316-.504-.569 0-1.012.168-1.33.504-.308.327-.462.793-.462 1.4v.392h3.682l-.098.126Zm6.603 4.522c-.345 0-.625-.103-.84-.308-.205-.205-.308-.471-.308-.798 0-.345.103-.625.308-.84.215-.215.495-.322.84-.322s.621.107.826.322c.215.215.322.495.322.84 0 .327-.107.593-.322.798-.205.205-.481.308-.826.308Zm5.454-.14v-1.148h2.772v-7.98l-2.772 2.072v-1.442l2.31-1.722h1.722v9.072h2.268V35h-6.3Zm11.335.14c-.625 0-1.171-.121-1.638-.364a2.68 2.68 0 0 1-1.064-1.05c-.252-.457-.378-.99-.378-1.596v-4.48c0-.616.126-1.148.378-1.596a2.588 2.588 0 0 1 1.064-1.036c.467-.252 1.013-.378 1.638-.378.635 0 1.181.126 1.638.378a2.59 2.59 0 0 1 1.064 1.036c.252.448.378.98.378 1.596v4.48c0 .607-.126 1.139-.378 1.596a2.653 2.653 0 0 1-1.078 1.05c-.457.243-.999.364-1.624.364Zm0-1.078c.56 0 1.008-.177 1.344-.532.345-.364.518-.83.518-1.4v-4.48c0-.57-.173-1.031-.518-1.386-.336-.364-.784-.546-1.344-.546s-1.013.182-1.358.546c-.336.355-.504.817-.504 1.386v4.48c0 .57.168 1.036.504 1.4.345.355.798.532 1.358.532Zm0-3.402c-.252 0-.457-.07-.616-.21-.149-.14-.224-.34-.224-.602 0-.252.075-.443.224-.574.159-.14.364-.21.616-.21s.453.07.602.21c.159.13.238.322.238.574 0 .261-.079.462-.238.602-.149.14-.35.21-.602.21Zm8.394 4.48c-.625 0-1.171-.121-1.638-.364a2.68 2.68 0 0 1-1.064-1.05c-.252-.457-.378-.99-.378-1.596v-4.48c0-.616.126-1.148.378-1.596a2.588 2.588 0 0 1 1.064-1.036c.467-.252 1.013-.378 1.638-.378.635 0 1.181.126 1.638.378.458.243.812.588 1.064 1.036.252.448.378.98.378 1.596v4.48c0 .607-.126 1.139-.378 1.596a2.653 2.653 0 0 1-1.078 1.05c-.457.243-.998.364-1.624.364Zm0-1.078c.56 0 1.008-.177 1.344-.532.346-.364.518-.83.518-1.4v-4.48c0-.57-.172-1.031-.518-1.386-.336-.364-.784-.546-1.344-.546s-1.012.182-1.358.546c-.336.355-.504.817-.504 1.386v4.48c0 .57.168 1.036.504 1.4.346.355.798.532 1.358.532Zm0-3.402c-.252 0-.457-.07-.616-.21-.149-.14-.224-.34-.224-.602 0-.252.075-.443.224-.574.159-.14.364-.21.616-.21s.453.07.602.21c.159.13.238.322.238.574 0 .261-.079.462-.238.602-.149.14-.35.21-.602.21Zm8.395-1.428c-.383 0-.672-.093-.868-.28-.196-.187-.294-.439-.294-.756s.098-.57.294-.756c.196-.187.485-.28.868-.28s.672.093.868.28c.196.187.294.439.294.756s-.098.57-.294.756c-.196.187-.485.28-.868.28Zm0 5.908c-.383 0-.672-.093-.868-.28-.196-.187-.294-.439-.294-.756s.098-.57.294-.756c.196-.187.485-.28.868-.28s.672.093.868.28c.196.187.294.439.294.756s-.098.57-.294.756c-.196.187-.485.28-.868.28Z" fill="#333238"/><rect x="167" y="16" width="99" height="28" rx="4" fill="#ECECEF"/><rect x="174.5" y="21.5" width="17" height="17" rx="2.5" fill="#E1D8F9" stroke="#FBFAFD"/><path d="m200.281 35 .546-2.94h-1.218v-.91h1.372l.476-2.52h-1.358v-.91h1.512l.546-2.94h.98l-.546 2.94h2.24l.546-2.94h.98l-.546 2.94h1.218v.91h-1.372l-.476 2.52h1.358v.91h-1.512l-.546 2.94h-.98l.546-2.94h-2.24l-.546 2.94h-.98Zm1.68-3.85h2.24l.476-2.52h-2.24l-.476 2.52Zm9.753 3.99c-.607 0-1.139-.121-1.596-.364a2.679 2.679 0 0 1-1.05-1.064c-.252-.467-.378-1.017-.378-1.652v-1.82c0-.644.126-1.195.378-1.652a2.586 2.586 0 0 1 1.05-1.05c.457-.252.989-.378 1.596-.378.606 0 1.134.121 1.582.364.457.243.812.583 1.064 1.022.252.439.378.957.378 1.554v1.372h-4.816v.728c0 .57.163 1.022.49 1.358.326.327.76.49 1.302.49.466 0 .849-.089 1.148-.266.308-.187.494-.434.56-.742h1.26c-.084.644-.397 1.157-.938 1.54-.542.373-1.218.56-2.03.56Zm1.792-4.522V30.1c0-.607-.159-1.073-.476-1.4-.308-.336-.747-.504-1.316-.504-.57 0-1.013.168-1.33.504-.308.327-.462.793-.462 1.4v.392h3.682l-.098.126ZM217.168 35v-1.148h2.772v-7.98l-2.772 2.072v-1.442l2.31-1.722h1.722v9.072h2.268V35h-6.3Zm10.887.14c-.766 0-1.382-.257-1.848-.77-.458-.513-.686-1.209-.686-2.086V30.03c0-.887.228-1.587.686-2.1.457-.513 1.073-.77 1.848-.77.634 0 1.148.173 1.54.518.392.345.588.807.588 1.386l-.28-.294h.28l-.028-1.75v-2.24h1.26V35h-1.26v-1.47h-.252l.252-.294c0 .588-.192 1.055-.574 1.4-.383.336-.892.504-1.526.504Zm.42-1.092c.522 0 .933-.163 1.232-.49.298-.327.448-.78.448-1.358v-2.1c0-.579-.15-1.031-.448-1.358-.299-.327-.71-.49-1.232-.49-.532 0-.948.14-1.246.42-.299.27-.448.723-.448 1.358v2.24c0 .625.149 1.078.448 1.358.298.28.714.42 1.246.42Zm8.422 1.092c-.644 0-1.213-.126-1.708-.378a2.884 2.884 0 0 1-1.162-1.05c-.27-.457-.406-.98-.406-1.568 0-.43.084-.821.252-1.176.168-.355.402-.649.7-.882a2.294 2.294 0 0 1 1.078-.462v-.042a2.166 2.166 0 0 1-1.274-.798 2.33 2.33 0 0 1-.476-1.442c0-.532.126-.999.378-1.4a2.53 2.53 0 0 1 1.05-.952c.458-.233.98-.35 1.568-.35.598 0 1.12.117 1.568.35a2.53 2.53 0 0 1 1.05.952c.252.401.378.868.378 1.4 0 .541-.158 1.022-.476 1.442-.317.41-.742.677-1.274.798v.042a2.2 2.2 0 0 1 1.064.462c.308.233.546.527.714.882.168.355.252.747.252 1.176 0 .588-.14 1.11-.42 1.568-.27.448-.653.798-1.148 1.05-.485.252-1.054.378-1.708.378Zm0-1.134c.598 0 1.083-.173 1.456-.518.374-.355.56-.812.56-1.372 0-.57-.186-1.027-.56-1.372-.373-.355-.858-.532-1.456-.532-.597 0-1.082.177-1.456.532-.373.345-.56.803-.56 1.372 0 .56.187 1.017.56 1.372.374.345.859.518 1.456.518Zm0-4.914c.523 0 .943-.154 1.26-.462.318-.308.476-.71.476-1.204 0-.495-.158-.896-.476-1.204-.317-.308-.737-.462-1.26-.462-.513 0-.933.154-1.26.462-.317.308-.476.71-.476 1.204 0 .495.159.896.476 1.204.327.308.747.462 1.26.462ZM244.102 35v-5.502h-2.24V28.35h2.24v-1.61c0-.607.191-1.083.574-1.428.382-.355.91-.532 1.582-.532h2.254v1.148h-2.254c-.29 0-.514.07-.672.21-.15.13-.224.331-.224.602v1.61h3.15v1.148h-3.15V35h-1.26Zm8.114 0 2.52-4.382-.042-.028a.858.858 0 0 1-.308.252c-.13.075-.284.135-.462.182a2.78 2.78 0 0 1-.574.056c-.588 0-1.106-.13-1.554-.392a2.888 2.888 0 0 1-1.036-1.106c-.252-.467-.378-1.008-.378-1.624 0-.663.14-1.241.42-1.736.28-.495.668-.882 1.162-1.162.495-.28 1.064-.42 1.708-.42.663 0 1.242.14 1.736.42.495.27.882.653 1.162 1.148.28.485.42 1.05.42 1.694 0 .448-.084.91-.252 1.386a9.654 9.654 0 0 1-.686 1.47L253.686 35h-1.47Zm1.47-4.9c.607 0 1.097-.2 1.47-.602.383-.401.574-.924.574-1.568 0-.43-.088-.807-.266-1.134a1.802 1.802 0 0 0-.714-.756c-.298-.187-.653-.28-1.064-.28a2.01 2.01 0 0 0-1.064.28 1.9 1.9 0 0 0-.728.756 2.446 2.446 0 0 0-.252 1.134c0 .43.084.807.252 1.134.178.327.42.583.728.77.308.177.663.266 1.064.266Z" fill="#333238"/></svg>