<svg width="836" height="112" viewBox="0 0 836 112" fill="none" xmlns="http://www.w3.org/2000/svg"><rect width="836" height="112" rx="4" fill="#FBFAFD"/><rect x="16" y="16" width="52" height="24" rx="4" fill="#E1D8F9"/><path d="M25.944 34.16v-.984h1.86c.376 0 .672-.108.888-.324.216-.208.324-.492.324-.852v-.6l.024-1.08h-.216l.204-.3c0 .48-.16.856-.48 1.128-.32.264-.748.396-1.284.396-.68 0-1.216-.216-1.608-.648-.392-.432-.588-1.024-.588-1.776v-1.392c0-.752.196-1.348.588-1.788.392-.44.928-.66 1.608-.66.536 0 .964.14 1.284.42.32.28.48.66.48 1.14l-.204-.3h.204V25.4h1.068V32c0 .664-.208 1.188-.624 1.572-.408.392-.968.588-1.68.588h-1.848Zm1.644-3.516c.448 0 .8-.14 1.056-.42.256-.28.384-.668.384-1.164V27.8c0-.496-.128-.884-.384-1.164-.256-.28-.608-.42-1.056-.42-.456 0-.812.132-1.068.396-.248.264-.372.62-.372 1.068v1.5c0 .448.124.804.372 1.068.256.264.612.396 1.068.396ZM32.55 32v-6.6h1.08v1.26h.228l-.228.288c0-.512.156-.916.468-1.212.32-.304.76-.456 1.32-.456.688 0 1.216.208 1.584.624.376.408.564.992.564 1.752v.564h-1.08v-.564c0-.488-.12-.848-.36-1.08-.24-.24-.588-.36-1.044-.36-.472 0-.832.136-1.08.408-.248.272-.372.664-.372 1.176V32h-1.08Zm9.451.096c-.528 0-.988-.104-1.38-.312a2.216 2.216 0 0 1-.9-.9c-.208-.4-.312-.876-.312-1.428v-1.512c0-.56.104-1.036.312-1.428.216-.392.516-.692.9-.9.392-.208.852-.312 1.38-.312.536 0 .996.104 1.38.312.384.208.68.508.888.9.216.392.324.868.324 1.428v1.512c0 .552-.108 1.028-.324 1.428a2.124 2.124 0 0 1-.9.9c-.384.208-.84.312-1.368.312Zm0-.96c.472 0 .84-.132 1.104-.396.272-.264.408-.652.408-1.164v-1.752c0-.512-.136-.9-.408-1.164-.264-.264-.632-.396-1.104-.396-.464 0-.832.132-1.104.396-.272.264-.408.652-.408 1.164v1.752c0 .512.136.9.408 1.164.272.264.64.396 1.104.396Zm7.184.984c-.76 0-1.368-.224-1.824-.672-.456-.456-.684-1.072-.684-1.848v-4.2h1.08v4.2c0 .48.128.864.384 1.152.256.28.604.42 1.044.42.448 0 .8-.14 1.056-.42.264-.288.396-.672.396-1.152v-4.2h1.08v4.2c0 .776-.232 1.392-.696 1.848-.464.448-1.076.672-1.836.672Zm4.711 2.04V25.4h1.08v1.26h.216l-.216.252c0-.504.164-.9.492-1.188.328-.296.764-.444 1.308-.444.44 0 .82.1 1.14.3.328.192.58.472.756.84.184.368.276.804.276 1.308v1.932c0 .504-.088.94-.264 1.308a1.962 1.962 0 0 1-.756.852c-.32.2-.704.3-1.152.3-.536 0-.972-.148-1.308-.444-.328-.296-.492-.692-.492-1.188l.216.252h-.24l.024 1.5v1.92h-1.08Zm2.52-2.976c.456 0 .812-.12 1.068-.36s.384-.628.384-1.164v-1.92c0-.544-.128-.932-.384-1.164-.256-.24-.612-.36-1.068-.36-.44 0-.792.14-1.056.42-.256.28-.384.668-.384 1.164v1.8c0 .496.128.884.384 1.164.264.28.616.42 1.056.42Z" fill="#333238"/><rect x="76" y="16" width="81" height="24" rx="4" fill="#E1D8F9"/><path d="M87.817 32.12c-.528 0-.992-.1-1.392-.3-.392-.2-.7-.488-.924-.864-.216-.384-.324-.836-.324-1.356v-1.8c0-.528.108-.98.324-1.356.224-.376.532-.664.924-.864.4-.2.864-.3 1.392-.3.76 0 1.372.204 1.836.612.472.408.72.964.744 1.668h-1.08c-.024-.424-.168-.748-.432-.972-.264-.232-.62-.348-1.068-.348-.472 0-.852.136-1.14.408-.28.264-.42.644-.42 1.14V29.6c0 .496.14.88.42 1.152.288.272.668.408 1.14.408.448 0 .804-.116 1.068-.348.264-.232.408-.556.432-.972h1.08c-.024.704-.272 1.26-.744 1.668-.464.408-1.076.612-1.836.612Zm7.1-.024c-.529 0-.989-.104-1.38-.312a2.216 2.216 0 0 1-.9-.9c-.209-.4-.313-.876-.313-1.428v-1.512c0-.56.104-1.036.312-1.428.216-.392.516-.692.9-.9.392-.208.852-.312 1.38-.312.536 0 .996.104 1.38.312.384.208.68.508.888.9.216.392.324.868.324 1.428v1.512c0 .552-.108 1.028-.324 1.428a2.124 2.124 0 0 1-.9.9c-.384.208-.84.312-1.368.312Zm0-.96c.471 0 .84-.132 1.103-.396.272-.264.408-.652.408-1.164v-1.752c0-.512-.136-.9-.408-1.164-.264-.264-.632-.396-1.104-.396-.464 0-.832.132-1.104.396-.272.264-.408.652-.408 1.164v1.752c0 .512.136.9.408 1.164.272.264.64.396 1.104.396Zm4.315.864v-6.6h.936v.876h.24l-.228.204c0-.352.1-.64.3-.864.208-.224.48-.336.816-.336.384 0 .688.144.912.432.224.288.336.664.336 1.128l-.324-.624h.504l-.276.264c.008-.368.116-.66.324-.876.208-.216.484-.324.828-.324.424 0 .76.16 1.008.48.256.312.384.72.384 1.224V32h-1.008v-5.028c0-.264-.064-.472-.192-.624a.64.64 0 0 0-.528-.24.64.64 0 0 0-.516.228c-.128.152-.192.36-.192.624V32h-.888v-5.028c0-.264-.064-.472-.192-.624a.627.627 0 0 0-.516-.24c-.224 0-.4.076-.528.228-.128.152-.192.36-.192.624V32h-1.008Zm7.579 2.16V25.4h1.08v1.26h.216l-.216.252c0-.504.164-.9.492-1.188.328-.296.764-.444 1.308-.444.44 0 .82.1 1.14.3.328.192.58.472.756.84.184.368.276.804.276 1.308v1.932c0 .504-.088.94-.264 1.308a1.962 1.962 0 0 1-.756.852c-.32.2-.704.3-1.152.3-.536 0-.972-.148-1.308-.444-.328-.296-.492-.692-.492-1.188l.216.252h-.24l.024 1.5v1.92h-1.08Zm2.52-2.976c.456 0 .812-.12 1.068-.36s.384-.628.384-1.164v-1.92c0-.544-.128-.932-.384-1.164-.256-.24-.612-.36-1.068-.36-.44 0-.792.14-1.056.42-.256.28-.384.668-.384 1.164v1.8c0 .496.128.884.384 1.164.264.28.616.42 1.056.42Zm7.171.912c-.528 0-.988-.104-1.38-.312a2.216 2.216 0 0 1-.9-.9c-.208-.4-.312-.876-.312-1.428v-1.512c0-.56.104-1.036.312-1.428.216-.392.516-.692.9-.9.392-.208.852-.312 1.38-.312.536 0 .996.104 1.38.312.384.208.68.508.888.9.216.392.324.868.324 1.428v1.512c0 .552-.108 1.028-.324 1.428a2.124 2.124 0 0 1-.9.9c-.384.208-.84.312-1.368.312Zm0-.96c.472 0 .84-.132 1.104-.396.272-.264.408-.652.408-1.164v-1.752c0-.512-.136-.9-.408-1.164-.264-.264-.632-.396-1.104-.396-.464 0-.832.132-1.104.396-.272.264-.408.652-.408 1.164v1.752c0 .512.136.9.408 1.164.272.264.64.396 1.104.396Zm4.7.864v-6.6h1.08v1.26h.228l-.228.252c0-.52.156-.92.468-1.2.312-.288.744-.432 1.296-.432.664 0 1.192.204 1.584.612.392.408.588.964.588 1.668V32h-1.08v-4.248c0-.504-.128-.888-.384-1.152-.248-.272-.588-.408-1.02-.408-.448 0-.804.14-1.068.42-.256.28-.384.676-.384 1.188V32h-1.08Zm9.691.12c-.52 0-.976-.104-1.368-.312a2.296 2.296 0 0 1-.9-.912c-.216-.4-.324-.872-.324-1.416v-1.56c0-.552.108-1.024.324-1.416.216-.392.516-.692.9-.9.392-.216.848-.324 1.368-.324.52 0 .972.104 1.356.312.392.208.696.5.912.876.216.376.324.82.324 1.332v1.176h-4.128v.624c0 .488.14.876.42 1.164.28.28.652.42 1.116.42.4 0 .728-.076.984-.228.264-.16.424-.372.48-.636h1.08c-.072.552-.34.992-.804 1.32-.464.32-1.044.48-1.74.48Zm1.536-3.876V27.8c0-.52-.136-.92-.408-1.2-.264-.288-.64-.432-1.128-.432-.488 0-.868.144-1.14.432-.264.28-.396.68-.396 1.2v.336h3.156l-.084.108ZM135.592 32v-6.6h1.08v1.26h.228l-.228.252c0-.52.156-.92.468-1.2.312-.288.744-.432 1.296-.432.664 0 1.192.204 1.584.612.392.408.588.964.588 1.668V32h-1.08v-4.248c0-.504-.128-.888-.384-1.152-.248-.272-.588-.408-1.02-.408-.448 0-.804.14-1.068.42-.256.28-.384.676-.384 1.188V32h-1.08Zm10.352 0c-.544 0-.98-.156-1.308-.468-.328-.32-.492-.744-.492-1.272v-3.876h-1.896V25.4h1.896v-1.86h1.08v1.86h2.7v.984h-2.7v3.876a.8.8 0 0 0 .192.552.714.714 0 0 0 .528.204h1.92V32h-1.92Z" fill="#333238"/><rect x="165" y="16" width="132" height="24" rx="4" fill="#E1D8F9"/><path d="m176.33 32-2.244-6.6h1.164l1.44 4.44c.088.264.164.52.228.768.064.24.112.428.144.564.04-.136.088-.324.144-.564.056-.248.124-.504.204-.768l1.44-4.44h1.14l-2.244 6.6h-1.416Zm7.327.12c-.68 0-1.22-.188-1.62-.564-.4-.384-.6-.884-.6-1.5 0-.408.092-.764.276-1.068.184-.304.44-.54.768-.708a2.349 2.349 0 0 1 1.128-.264h2.04V27.5c0-.432-.116-.752-.348-.96-.232-.216-.584-.324-1.056-.324-.416 0-.752.076-1.008.228-.256.152-.392.364-.408.636h-1.08c.04-.52.28-.948.72-1.284.448-.344 1.04-.516 1.776-.516.8 0 1.412.192 1.836.576.432.384.648.92.648 1.608V32h-1.068v-1.2h-.18l.168-.24c0 .32-.08.596-.24.828-.16.232-.388.412-.684.54-.296.128-.652.192-1.068.192Zm.264-.912c.528 0 .948-.128 1.26-.384.312-.256.468-.604.468-1.044v-.924h-1.92c-.352 0-.64.108-.864.324-.216.208-.324.488-.324.84 0 .368.12.66.36.876.248.208.588.312 1.02.312Zm5.251.792v-6.6h1.08v1.26h.228l-.228.288c0-.512.156-.916.468-1.212.32-.304.76-.456 1.32-.456.688 0 1.216.208 1.584.624.376.408.564.992.564 1.752v.564h-1.08v-.564c0-.488-.12-.848-.36-1.08-.24-.24-.588-.36-1.044-.36-.472 0-.832.136-1.08.408-.248.272-.372.664-.372 1.176V32h-1.08Zm6.871 0v-.984h2.34v-4.632h-2.1V25.4h3.18v5.616h2.22V32h-5.64Zm2.76-7.788c-.264 0-.472-.068-.624-.204a.704.704 0 0 1-.228-.552c0-.24.076-.428.228-.564.152-.144.36-.216.624-.216s.472.072.624.216c.152.136.228.324.228.564a.704.704 0 0 1-.228.552c-.152.136-.36.204-.624.204Zm6.44 7.908c-.68 0-1.22-.188-1.62-.564-.4-.384-.6-.884-.6-1.5 0-.408.092-.764.276-1.068.184-.304.44-.54.768-.708a2.349 2.349 0 0 1 1.128-.264h2.04V27.5c0-.432-.116-.752-.348-.96-.232-.216-.584-.324-1.056-.324-.416 0-.752.076-1.008.228-.256.152-.392.364-.408.636h-1.08c.04-.52.28-.948.72-1.284.448-.344 1.04-.516 1.776-.516.8 0 1.412.192 1.836.576.432.384.648.92.648 1.608V32h-1.068v-1.2h-.18l.168-.24c0 .32-.08.596-.24.828-.16.232-.388.412-.684.54-.296.128-.652.192-1.068.192Zm.264-.912c.528 0 .948-.128 1.26-.384.312-.256.468-.604.468-1.044v-.924h-1.92c-.352 0-.64.108-.864.324-.216.208-.324.488-.324.84 0 .368.12.66.36.876.248.208.588.312 1.02.312Zm5.011.792v-6.6h1.08v1.26h.228l-.228.252c0-.52.156-.92.468-1.2.312-.288.744-.432 1.296-.432.664 0 1.192.204 1.584.612.392.408.588.964.588 1.668V32h-1.08v-4.248c0-.504-.128-.888-.384-1.152-.248-.272-.588-.408-1.02-.408-.448 0-.804.14-1.068.42-.256.28-.384.676-.384 1.188V32h-1.08Zm10.351 0c-.544 0-.98-.156-1.308-.468-.328-.32-.492-.744-.492-1.272v-3.876h-1.896V25.4h1.896v-1.86h1.08v1.86h2.7v.984h-2.7v3.876a.8.8 0 0 0 .192.552.714.714 0 0 0 .528.204h1.92V32h-1.92Zm3.836 1.32 4.26-11.28h1.14l-4.26 11.28h-1.14Zm9.991-1.2c-.528 0-.992-.1-1.392-.3-.392-.2-.7-.488-.924-.864-.216-.384-.324-.836-.324-1.356v-1.8c0-.528.108-.98.324-1.356.224-.376.532-.664.924-.864.4-.2.864-.3 1.392-.3.76 0 1.372.204 1.836.612.472.408.72.964.744 1.668h-1.08c-.024-.424-.168-.748-.432-.972-.264-.232-.62-.348-1.068-.348-.472 0-.852.136-1.14.408-.28.264-.42.644-.42 1.14V29.6c0 .496.14.88.42 1.152.288.272.668.408 1.14.408.448 0 .804-.116 1.068-.348.264-.232.408-.556.432-.972h1.08c-.024.704-.272 1.26-.744 1.668-.464.408-1.076.612-1.836.612Zm6.523 0c-.68 0-1.22-.188-1.62-.564-.4-.384-.6-.884-.6-1.5 0-.408.092-.764.276-1.068.184-.304.44-.54.768-.708a2.349 2.349 0 0 1 1.128-.264h2.04V27.5c0-.432-.116-.752-.348-.96-.232-.216-.584-.324-1.056-.324-.416 0-.752.076-1.008.228-.256.152-.392.364-.408.636h-1.08c.04-.52.28-.948.72-1.284.448-.344 1.04-.516 1.776-.516.8 0 1.412.192 1.836.576.432.384.648.92.648 1.608V32h-1.068v-1.2h-.18l.168-.24c0 .32-.08.596-.24.828-.16.232-.388.412-.684.54-.296.128-.652.192-1.068.192Zm.264-.912c.528 0 .948-.128 1.26-.384.312-.256.468-.604.468-1.044v-.924h-1.92c-.352 0-.64.108-.864.324-.216.208-.324.488-.324.84 0 .368.12.66.36.876.248.208.588.312 1.02.312Zm8.168.792c-.544 0-.98-.156-1.308-.468-.328-.32-.492-.744-.492-1.272v-3.876h-1.896V25.4h1.896v-1.86h1.08v1.86h2.7v.984h-2.7v3.876a.8.8 0 0 0 .192.552.714.714 0 0 0 .528.204h1.92V32h-1.92Zm6.535.12c-.52 0-.976-.104-1.368-.312a2.296 2.296 0 0 1-.9-.912c-.216-.4-.324-.872-.324-1.416v-1.56c0-.552.108-1.024.324-1.416.216-.392.516-.692.9-.9.392-.216.848-.324 1.368-.324.52 0 .972.104 1.356.312.392.208.696.5.912.876.216.376.324.82.324 1.332v1.176h-4.128v.624c0 .488.14.876.42 1.164.28.28.652.42 1.116.42.4 0 .728-.076.984-.228.264-.16.424-.372.48-.636h1.08c-.072.552-.34.992-.804 1.32-.464.32-1.044.48-1.74.48Zm1.536-3.876V27.8c0-.52-.136-.92-.408-1.2-.264-.288-.64-.432-1.128-.432-.488 0-.868.144-1.14.432-.264.28-.396.68-.396 1.2v.336h3.156l-.084.108Zm3.991 5.916v-.984h1.86c.376 0 .672-.108.888-.324.216-.208.324-.492.324-.852v-.6l.024-1.08h-.216l.204-.3c0 .48-.16.856-.48 1.128-.32.264-.748.396-1.284.396-.68 0-1.216-.216-1.608-.648-.392-.432-.588-1.024-.588-1.776v-1.392c0-.752.196-1.348.588-1.788.392-.44.928-.66 1.608-.66.536 0 .964.14 1.284.42.32.28.48.66.48 1.14l-.204-.3h.204V25.4h1.068V32c0 .664-.208 1.188-.624 1.572-.408.392-.968.588-1.68.588h-1.848Zm1.644-3.516c.448 0 .8-.14 1.056-.42.256-.28.384-.668.384-1.164V27.8c0-.496-.128-.884-.384-1.164-.256-.28-.608-.42-1.056-.42-.456 0-.812.132-1.068.396-.248.264-.372.62-.372 1.068v1.5c0 .448.124.804.372 1.068.256.264.612.396 1.068.396Zm7.22 1.452c-.528 0-.988-.104-1.38-.312a2.216 2.216 0 0 1-.9-.9c-.208-.4-.312-.876-.312-1.428v-1.512c0-.56.104-1.036.312-1.428.216-.392.516-.692.9-.9.392-.208.852-.312 1.38-.312.536 0 .996.104 1.38.312.384.208.68.508.888.9.216.392.324.868.324 1.428v1.512c0 .552-.108 1.028-.324 1.428a2.124 2.124 0 0 1-.9.9c-.384.208-.84.312-1.368.312Zm0-.96c.472 0 .84-.132 1.104-.396.272-.264.408-.652.408-1.164v-1.752c0-.512-.136-.9-.408-1.164-.264-.264-.632-.396-1.104-.396-.464 0-.832.132-1.104.396-.272.264-.408.652-.408 1.164v1.752c0 .512.136.9.408 1.164.272.264.64.396 1.104.396Zm4.939.864v-6.6h1.08v1.26h.228l-.228.288c0-.512.156-.916.468-1.212.32-.304.76-.456 1.32-.456.688 0 1.216.208 1.584.624.376.408.564.992.564 1.752v.564h-1.08v-.564c0-.488-.12-.848-.36-1.08-.24-.24-.588-.36-1.044-.36-.472 0-.832.136-1.08.408-.248.272-.372.664-.372 1.176V32h-1.08Zm7.987 2.16.972-2.568-2.46-6.192h1.164l1.56 4.08c.064.16.124.328.18.504.056.176.096.328.12.456a3.93 3.93 0 0 1 .12-.456c.056-.176.112-.344.168-.504l1.452-4.08h1.14l-3.288 8.76h-1.128Z" fill="#333238"/><rect x="305" y="16" width="67" height="24" rx="4" fill="#C3E6CD"/><path d="M316.916 32.12c-.52 0-.976-.104-1.368-.312a2.296 2.296 0 0 1-.9-.912c-.216-.4-.324-.872-.324-1.416v-1.56c0-.552.108-1.024.324-1.416.216-.392.516-.692.9-.9.392-.216.848-.324 1.368-.324.52 0 .972.104 1.356.312.392.208.696.5.912.876.216.376.324.82.324 1.332v1.176h-4.128v.624c0 .488.14.876.42 1.164.28.28.652.42 1.116.42.4 0 .728-.076.984-.228.264-.16.424-.372.48-.636h1.08c-.072.552-.34.992-.804 1.32-.464.32-1.044.48-1.74.48Zm1.536-3.876V27.8c0-.52-.136-.92-.408-1.2-.264-.288-.64-.432-1.128-.432-.488 0-.868.144-1.14.432-.264.28-.396.68-.396 1.2v.336h3.156l-.084.108Zm6.62 3.756a2.13 2.13 0 0 1-1.008-.228 1.639 1.639 0 0 1-.672-.648 1.95 1.95 0 0 1-.24-.984v-5.916h-2.28v-.984h3.36v6.9c0 .272.076.488.228.648.152.152.356.228.612.228h2.04V32h-2.04Zm6.235.12c-.52 0-.976-.104-1.368-.312a2.296 2.296 0 0 1-.9-.912c-.216-.4-.324-.872-.324-1.416v-1.56c0-.552.108-1.024.324-1.416.216-.392.516-.692.9-.9.392-.216.848-.324 1.368-.324.52 0 .972.104 1.356.312.392.208.696.5.912.876.216.376.324.82.324 1.332v1.176h-4.128v.624c0 .488.14.876.42 1.164.28.28.652.42 1.116.42.4 0 .728-.076.984-.228.264-.16.424-.372.48-.636h1.08c-.072.552-.34.992-.804 1.32-.464.32-1.044.48-1.74.48Zm1.536-3.876V27.8c0-.52-.136-.92-.408-1.2-.264-.288-.64-.432-1.128-.432-.488 0-.868.144-1.14.432-.264.28-.396.68-.396 1.2v.336h3.156l-.084.108ZM335.622 32v-6.6h.936v.876h.24l-.228.204c0-.352.1-.64.3-.864.208-.224.48-.336.816-.336.384 0 .688.144.912.432.224.288.336.664.336 1.128l-.324-.624h.504l-.276.264c.008-.368.116-.66.324-.876.208-.216.484-.324.828-.324.424 0 .76.16 1.008.48.256.312.384.72.384 1.224V32h-1.008v-5.028c0-.264-.064-.472-.192-.624a.64.64 0 0 0-.528-.24.64.64 0 0 0-.516.228c-.128.152-.192.36-.192.624V32h-.888v-5.028c0-.264-.064-.472-.192-.624a.627.627 0 0 0-.516-.24c-.224 0-.4.076-.528.228-.128.152-.192.36-.192.624V32h-1.008Zm10.076.12c-.52 0-.976-.104-1.368-.312a2.296 2.296 0 0 1-.9-.912c-.216-.4-.324-.872-.324-1.416v-1.56c0-.552.108-1.024.324-1.416.216-.392.516-.692.9-.9.392-.216.848-.324 1.368-.324.52 0 .972.104 1.356.312.392.208.696.5.912.876.216.376.324.82.324 1.332v1.176h-4.128v.624c0 .488.14.876.42 1.164.28.28.652.42 1.116.42.4 0 .728-.076.984-.228.264-.16.424-.372.48-.636h1.08c-.072.552-.34.992-.804 1.32-.464.32-1.044.48-1.74.48Zm1.536-3.876V27.8c0-.52-.136-.92-.408-1.2-.264-.288-.64-.432-1.128-.432-.488 0-.868.144-1.14.432-.264.28-.396.68-.396 1.2v.336h3.156l-.084.108ZM350.397 32v-6.6h1.08v1.26h.228l-.228.252c0-.52.156-.92.468-1.2.312-.288.744-.432 1.296-.432.664 0 1.192.204 1.584.612.392.408.588.964.588 1.668V32h-1.08v-4.248c0-.504-.128-.888-.384-1.152-.248-.272-.588-.408-1.02-.408-.448 0-.804.14-1.068.42-.256.28-.384.676-.384 1.188V32h-1.08Zm10.351 0c-.544 0-.98-.156-1.308-.468-.328-.32-.492-.744-.492-1.272v-3.876h-1.896V25.4h1.896v-1.86h1.08v1.86h2.7v.984h-2.7v3.876a.8.8 0 0 0 .192.552.714.714 0 0 0 .528.204h1.92V32h-1.92Z" fill="#333238"/><rect x="380" y="16" width="74" height="24" rx="4" fill="#C3E6CD"/><path d="M389.323 34.16V25.4h1.08v1.26h.216l-.216.252c0-.504.164-.9.492-1.188.328-.296.764-.444 1.308-.444.44 0 .82.1 1.14.3.328.192.58.472.756.84.184.368.276.804.276 1.308v1.932c0 .504-.088.94-.264 1.308a1.962 1.962 0 0 1-.756.852c-.32.2-.704.3-1.152.3-.536 0-.972-.148-1.308-.444-.328-.296-.492-.692-.492-1.188l.216.252h-.24l.024 1.5v1.92h-1.08Zm2.52-2.976c.456 0 .812-.12 1.068-.36s.384-.628.384-1.164v-1.92c0-.544-.128-.932-.384-1.164-.256-.24-.612-.36-1.068-.36-.44 0-.792.14-1.056.42-.256.28-.384.668-.384 1.164v1.8c0 .496.128.884.384 1.164.264.28.616.42 1.056.42Zm7.171.912c-.528 0-.988-.104-1.38-.312a2.216 2.216 0 0 1-.9-.9c-.208-.4-.312-.876-.312-1.428v-1.512c0-.56.104-1.036.312-1.428.216-.392.516-.692.9-.9.392-.208.852-.312 1.38-.312.536 0 .996.104 1.38.312.384.208.68.508.888.9.216.392.324.868.324 1.428v1.512c0 .552-.108 1.028-.324 1.428a2.124 2.124 0 0 1-.9.9c-.384.208-.84.312-1.368.312Zm0-.96c.472 0 .84-.132 1.104-.396.272-.264.408-.652.408-1.164v-1.752c0-.512-.136-.9-.408-1.164-.264-.264-.632-.396-1.104-.396-.464 0-.832.132-1.104.396-.272.264-.408.652-.408 1.164v1.752c0 .512.136.9.408 1.164.272.264.64.396 1.104.396Zm6.931.96c-.488 0-.908-.072-1.26-.216a1.778 1.778 0 0 1-.792-.648c-.176-.288-.264-.636-.264-1.044h1.08c0 .304.108.544.324.72.216.168.52.252.912.252h.528c.4 0 .708-.088.924-.264.224-.176.336-.424.336-.744 0-.288-.064-.512-.192-.672-.128-.16-.324-.256-.588-.288l-1.824-.264c-.448-.064-.796-.248-1.044-.552-.248-.312-.372-.72-.372-1.224 0-.576.196-1.028.588-1.356.4-.328.948-.492 1.644-.492h.528c.64 0 1.16.16 1.56.48.408.312.628.724.66 1.236h-1.092a.757.757 0 0 0-.336-.576c-.2-.152-.464-.228-.792-.228h-.528c-.368 0-.656.084-.864.252a.833.833 0 0 0-.312.684c0 .224.052.404.156.54a.74.74 0 0 0 .48.252l1.704.24c.56.08.98.284 1.26.612s.42.78.42 1.356c0 .616-.204 1.096-.612 1.44-.4.336-.968.504-1.704.504h-.528Zm4.88-.096v-.984h2.34v-4.632h-2.1V25.4h3.18v5.616h2.22V32h-5.64Zm2.76-7.788c-.264 0-.472-.068-.624-.204a.704.704 0 0 1-.228-.552c0-.24.076-.428.228-.564.152-.144.36-.216.624-.216s.472.072.624.216c.152.136.228.324.228.564a.704.704 0 0 1-.228.552c-.152.136-.36.204-.624.204ZM421.26 32c-.544 0-.98-.156-1.308-.468-.328-.32-.492-.744-.492-1.272v-3.876h-1.896V25.4h1.896v-1.86h1.08v1.86h2.7v.984h-2.7v3.876a.8.8 0 0 0 .192.552.714.714 0 0 0 .528.204h1.92V32h-1.92Zm3.955 0v-.984h2.34v-4.632h-2.1V25.4h3.18v5.616h2.22V32h-5.64Zm2.76-7.788c-.264 0-.472-.068-.624-.204a.704.704 0 0 1-.228-.552c0-.24.076-.428.228-.564.152-.144.36-.216.624-.216s.472.072.624.216c.152.136.228.324.228.564a.704.704 0 0 1-.228.552c-.152.136-.36.204-.624.204Zm7.016 7.884c-.528 0-.988-.104-1.38-.312a2.216 2.216 0 0 1-.9-.9c-.208-.4-.312-.876-.312-1.428v-1.512c0-.56.104-1.036.312-1.428.216-.392.516-.692.9-.9.392-.208.852-.312 1.38-.312.536 0 .996.104 1.38.312.384.208.68.508.888.9.216.392.324.868.324 1.428v1.512c0 .552-.108 1.028-.324 1.428a2.124 2.124 0 0 1-.9.9c-.384.208-.84.312-1.368.312Zm0-.96c.472 0 .84-.132 1.104-.396.272-.264.408-.652.408-1.164v-1.752c0-.512-.136-.9-.408-1.164-.264-.264-.632-.396-1.104-.396-.464 0-.832.132-1.104.396-.272.264-.408.652-.408 1.164v1.752c0 .512.136.9.408 1.164.272.264.64.396 1.104.396Zm4.699.864v-6.6h1.08v1.26h.228l-.228.252c0-.52.156-.92.468-1.2.312-.288.744-.432 1.296-.432.664 0 1.192.204 1.584.612.392.408.588.964.588 1.668V32h-1.08v-4.248c0-.504-.128-.888-.384-1.152-.248-.272-.588-.408-1.02-.408-.448 0-.804.14-1.068.42-.256.28-.384.676-.384 1.188V32h-1.08Z" fill="#333238"/><rect x="462" y="16" width="103" height="24" rx="4" fill="#C3E6CD"/><path d="M471.672 32v-6.6h1.08v1.26h.228l-.228.288c0-.512.156-.916.468-1.212.32-.304.76-.456 1.32-.456.688 0 1.216.208 1.584.624.376.408.564.992.564 1.752v.564h-1.08v-.564c0-.488-.12-.848-.36-1.08-.24-.24-.588-.36-1.044-.36-.472 0-.832.136-1.08.408-.248.272-.372.664-.372 1.176V32h-1.08Zm9.451.12c-.52 0-.976-.104-1.368-.312a2.296 2.296 0 0 1-.9-.912c-.216-.4-.324-.872-.324-1.416v-1.56c0-.552.108-1.024.324-1.416.216-.392.516-.692.9-.9.392-.216.848-.324 1.368-.324.52 0 .972.104 1.356.312.392.208.696.5.912.876.216.376.324.82.324 1.332v1.176h-4.128v.624c0 .488.14.876.42 1.164.28.28.652.42 1.116.42.4 0 .728-.076.984-.228.264-.16.424-.372.48-.636h1.08c-.072.552-.34.992-.804 1.32-.464.32-1.044.48-1.74.48Zm1.536-3.876V27.8c0-.52-.136-.92-.408-1.2-.264-.288-.64-.432-1.128-.432-.488 0-.868.144-1.14.432-.264.28-.396.68-.396 1.2v.336h3.156l-.084.108Zm6.62 3.756a2.13 2.13 0 0 1-1.008-.228 1.639 1.639 0 0 1-.672-.648 1.95 1.95 0 0 1-.24-.984v-5.916h-2.28v-.984h3.36v6.9c0 .272.076.488.228.648.152.152.356.228.612.228h2.04V32h-2.04Zm5.659.12c-.68 0-1.22-.188-1.62-.564-.4-.384-.6-.884-.6-1.5 0-.408.092-.764.276-1.068.184-.304.44-.54.768-.708a2.349 2.349 0 0 1 1.128-.264h2.04V27.5c0-.432-.116-.752-.348-.96-.232-.216-.584-.324-1.056-.324-.416 0-.752.076-1.008.228-.256.152-.392.364-.408.636h-1.08c.04-.52.28-.948.72-1.284.448-.344 1.04-.516 1.776-.516.8 0 1.412.192 1.836.576.432.384.648.92.648 1.608V32h-1.068v-1.2h-.18l.168-.24c0 .32-.08.596-.24.828-.16.232-.388.412-.684.54-.296.128-.652.192-1.068.192Zm.264-.912c.528 0 .948-.128 1.26-.384.312-.256.468-.604.468-1.044v-.924h-1.92c-.352 0-.64.108-.864.324-.216.208-.324.488-.324.84 0 .368.12.66.36.876.248.208.588.312 1.02.312Zm8.167.792c-.544 0-.98-.156-1.308-.468-.328-.32-.492-.744-.492-1.272v-3.876h-1.896V25.4h1.896v-1.86h1.08v1.86h2.7v.984h-2.7v3.876a.8.8 0 0 0 .192.552.714.714 0 0 0 .528.204h1.92V32h-1.92Zm3.956 0v-.984h2.34v-4.632h-2.1V25.4h3.18v5.616h2.22V32h-5.64Zm2.76-7.788c-.264 0-.472-.068-.624-.204a.704.704 0 0 1-.228-.552c0-.24.076-.428.228-.564.152-.144.36-.216.624-.216s.472.072.624.216c.152.136.228.324.228.564a.704.704 0 0 1-.228.552c-.152.136-.36.204-.624.204Zm7.015 7.884c-.528 0-.988-.104-1.38-.312a2.216 2.216 0 0 1-.9-.9c-.208-.4-.312-.876-.312-1.428v-1.512c0-.56.104-1.036.312-1.428.216-.392.516-.692.9-.9.392-.208.852-.312 1.38-.312.536 0 .996.104 1.38.312.384.208.68.508.888.9.216.392.324.868.324 1.428v1.512c0 .552-.108 1.028-.324 1.428a2.124 2.124 0 0 1-.9.9c-.384.208-.84.312-1.368.312Zm0-.96c.472 0 .84-.132 1.104-.396.272-.264.408-.652.408-1.164v-1.752c0-.512-.136-.9-.408-1.164-.264-.264-.632-.396-1.104-.396-.464 0-.832.132-1.104.396-.272.264-.408.652-.408 1.164v1.752c0 .512.136.9.408 1.164.272.264.64.396 1.104.396Zm4.699.864v-6.6h1.08v1.26h.228l-.228.252c0-.52.156-.92.468-1.2.312-.288.744-.432 1.296-.432.664 0 1.192.204 1.584.612.392.408.588.964.588 1.668V32h-1.08v-4.248c0-.504-.128-.888-.384-1.152-.248-.272-.588-.408-1.02-.408-.448 0-.804.14-1.068.42-.256.28-.384.676-.384 1.188V32h-1.08Zm9.428.096c-.488 0-.908-.072-1.26-.216a1.778 1.778 0 0 1-.792-.648c-.176-.288-.264-.636-.264-1.044h1.08c0 .304.108.544.324.72.216.168.52.252.912.252h.528c.4 0 .708-.088.924-.264.224-.176.336-.424.336-.744 0-.288-.064-.512-.192-.672-.128-.16-.324-.256-.588-.288l-1.824-.264c-.448-.064-.796-.248-1.044-.552-.248-.312-.372-.72-.372-1.224 0-.576.196-1.028.588-1.356.4-.328.948-.492 1.644-.492h.528c.64 0 1.16.16 1.56.48.408.312.628.724.66 1.236h-1.092a.757.757 0 0 0-.336-.576c-.2-.152-.464-.228-.792-.228h-.528c-.368 0-.656.084-.864.252a.833.833 0 0 0-.312.684c0 .224.052.404.156.54a.74.74 0 0 0 .48.252l1.704.24c.56.08.98.284 1.26.612s.42.78.42 1.356c0 .616-.204 1.096-.612 1.44-.4.336-.968.504-1.704.504h-.528ZM536.19 32v-8.76h1.08v3.42h.228l-.228.252c0-.52.156-.92.468-1.2.312-.288.744-.432 1.296-.432.664 0 1.192.204 1.584.612.392.408.588.964.588 1.668V32h-1.08v-4.26c0-.496-.128-.876-.384-1.14-.248-.272-.588-.408-1.02-.408-.448 0-.804.14-1.068.42-.256.28-.384.676-.384 1.188V32h-1.08Zm7.111 0v-.984h2.34v-4.632h-2.1V25.4h3.18v5.616h2.22V32h-5.64Zm2.76-7.788c-.264 0-.472-.068-.624-.204a.704.704 0 0 1-.228-.552c0-.24.076-.428.228-.564.152-.144.36-.216.624-.216s.472.072.624.216c.152.136.228.324.228.564a.704.704 0 0 1-.228.552c-.152.136-.36.204-.624.204Zm4.52 9.948V25.4h1.08v1.26h.216l-.216.252c0-.504.164-.9.492-1.188.328-.296.764-.444 1.308-.444.44 0 .82.1 1.14.3.328.192.58.472.756.84.184.368.276.804.276 1.308v1.932c0 .504-.088.94-.264 1.308a1.962 1.962 0 0 1-.756.852c-.32.2-.704.3-1.152.3-.536 0-.972-.148-1.308-.444-.328-.296-.492-.692-.492-1.188l.216.252h-.24l.024 1.5v1.92h-1.08Zm2.52-2.976c.456 0 .812-.12 1.068-.36s.384-.628.384-1.164v-1.92c0-.544-.128-.932-.384-1.164-.256-.24-.612-.36-1.068-.36-.44 0-.792.14-1.056.42-.256.28-.384.668-.384 1.164v1.8c0 .496.128.884.384 1.164.264.28.616.42 1.056.42Z" fill="#333238"/><rect x="573" y="16" width="74" height="24" rx="4" fill="#F5D9A8"/><path d="M582.323 34.16V25.4h1.08v1.26h.216l-.216.252c0-.504.164-.9.492-1.188.328-.296.764-.444 1.308-.444.44 0 .82.1 1.14.3.328.192.58.472.756.84.184.368.276.804.276 1.308v1.932c0 .504-.088.94-.264 1.308a1.962 1.962 0 0 1-.756.852c-.32.2-.704.3-1.152.3-.536 0-.972-.148-1.308-.444-.328-.296-.492-.692-.492-1.188l.216.252h-.24l.024 1.5v1.92h-1.08Zm2.52-2.976c.456 0 .812-.12 1.068-.36s.384-.628.384-1.164v-1.92c0-.544-.128-.932-.384-1.164-.256-.24-.612-.36-1.068-.36-.44 0-.792.14-1.056.42-.256.28-.384.668-.384 1.164v1.8c0 .496.128.884.384 1.164.264.28.616.42 1.056.42Zm4.915.816v-6.6h1.08v1.26h.228l-.228.288c0-.512.156-.916.468-1.212.32-.304.76-.456 1.32-.456.688 0 1.216.208 1.584.624.376.408.564.992.564 1.752v.564h-1.08v-.564c0-.488-.12-.848-.36-1.08-.24-.24-.588-.36-1.044-.36-.472 0-.832.136-1.08.408-.248.272-.372.664-.372 1.176V32h-1.08Zm9.451.096c-.528 0-.988-.104-1.38-.312a2.216 2.216 0 0 1-.9-.9c-.208-.4-.312-.876-.312-1.428v-1.512c0-.56.104-1.036.312-1.428.216-.392.516-.692.9-.9.392-.208.852-.312 1.38-.312.536 0 .996.104 1.38.312.384.208.68.508.888.9.216.392.324.868.324 1.428v1.512c0 .552-.108 1.028-.324 1.428a2.124 2.124 0 0 1-.9.9c-.384.208-.84.312-1.368.312Zm0-.96c.472 0 .84-.132 1.104-.396.272-.264.408-.652.408-1.164v-1.752c0-.512-.136-.9-.408-1.164-.264-.264-.632-.396-1.104-.396-.464 0-.832.132-1.104.396-.272.264-.408.652-.408 1.164v1.752c0 .512.136.9.408 1.164.272.264.64.396 1.104.396Zm4.7 3.024V25.4h1.08v1.26h.216l-.216.252c0-.504.164-.9.492-1.188.328-.296.764-.444 1.308-.444.44 0 .82.1 1.14.3.328.192.58.472.756.84.184.368.276.804.276 1.308v1.932c0 .504-.088.94-.264 1.308a1.962 1.962 0 0 1-.756.852c-.32.2-.704.3-1.152.3-.536 0-.972-.148-1.308-.444-.328-.296-.492-.692-.492-1.188l.216.252h-.24l.024 1.5v1.92h-1.08Zm2.52-2.976c.456 0 .812-.12 1.068-.36s.384-.628.384-1.164v-1.92c0-.544-.128-.932-.384-1.164-.256-.24-.612-.36-1.068-.36-.44 0-.792.14-1.056.42-.256.28-.384.668-.384 1.164v1.8c0 .496.128.884.384 1.164.264.28.616.42 1.056.42Zm7.171.936c-.52 0-.976-.104-1.368-.312a2.296 2.296 0 0 1-.9-.912c-.216-.4-.324-.872-.324-1.416v-1.56c0-.552.108-1.024.324-1.416.216-.392.516-.692.9-.9.392-.216.848-.324 1.368-.324.52 0 .972.104 1.356.312.392.208.696.5.912.876.216.376.324.82.324 1.332v1.176h-4.128v.624c0 .488.14.876.42 1.164.28.28.652.42 1.116.42.4 0 .728-.076.984-.228.264-.16.424-.372.48-.636h1.08c-.072.552-.34.992-.804 1.32-.464.32-1.044.48-1.74.48Zm1.536-3.876V27.8c0-.52-.136-.92-.408-1.2-.264-.288-.64-.432-1.128-.432-.488 0-.868.144-1.14.432-.264.28-.396.68-.396 1.2v.336h3.156l-.084.108ZM618.539 32v-6.6h1.08v1.26h.228l-.228.288c0-.512.156-.916.468-1.212.32-.304.76-.456 1.32-.456.688 0 1.216.208 1.584.624.376.408.564.992.564 1.752v.564h-1.08v-.564c0-.488-.12-.848-.36-1.08-.24-.24-.588-.36-1.044-.36-.472 0-.832.136-1.08.408-.248.272-.372.664-.372 1.176V32h-1.08Zm10.112 0c-.544 0-.98-.156-1.308-.468-.328-.32-.492-.744-.492-1.272v-3.876h-1.896V25.4h1.896v-1.86h1.08v1.86h2.7v.984h-2.7v3.876a.8.8 0 0 0 .192.552.714.714 0 0 0 .528.204h1.92V32h-1.92Zm5.071 2.16.972-2.568-2.46-6.192h1.164l1.56 4.08c.064.16.124.328.18.504.056.176.096.328.12.456a3.93 3.93 0 0 1 .12-.456c.056-.176.112-.344.168-.504l1.452-4.08h1.14l-3.288 8.76h-1.128Z" fill="#333238"/><rect x="655" y="16" width="45" height="24" rx="4" fill="#F5D9A8"/><path d="M667.369 32c-.544 0-.98-.156-1.308-.468-.328-.32-.492-.744-.492-1.272v-3.876h-1.896V25.4h1.896v-1.86h1.08v1.86h2.7v.984h-2.7v3.876a.8.8 0 0 0 .192.552.714.714 0 0 0 .528.204h1.92V32h-1.92Zm5.072 2.16.972-2.568-2.46-6.192h1.164l1.56 4.08c.064.16.124.328.18.504.056.176.096.328.12.456a3.93 3.93 0 0 1 .12-.456c.056-.176.112-.344.168-.504l1.452-4.08h1.14l-3.288 8.76h-1.128Zm6.163 0V25.4h1.08v1.26h.216l-.216.252c0-.504.164-.9.492-1.188.328-.296.764-.444 1.308-.444.44 0 .82.1 1.14.3.328.192.58.472.756.84.184.368.276.804.276 1.308v1.932c0 .504-.088.94-.264 1.308a1.962 1.962 0 0 1-.756.852c-.32.2-.704.3-1.152.3-.536 0-.972-.148-1.308-.444-.328-.296-.492-.692-.492-1.188l.216.252h-.24l.024 1.5v1.92h-1.08Zm2.52-2.976c.456 0 .812-.12 1.068-.36s.384-.628.384-1.164v-1.92c0-.544-.128-.932-.384-1.164-.256-.24-.612-.36-1.068-.36-.44 0-.792.14-1.056.42-.256.28-.384.668-.384 1.164v1.8c0 .496.128.884.384 1.164.264.28.616.42 1.056.42Zm7.171.936c-.52 0-.976-.104-1.368-.312a2.296 2.296 0 0 1-.9-.912c-.216-.4-.324-.872-.324-1.416v-1.56c0-.552.108-1.024.324-1.416.216-.392.516-.692.9-.9.392-.216.848-.324 1.368-.324.52 0 .972.104 1.356.312.392.208.696.5.912.876.216.376.324.82.324 1.332v1.176h-4.128v.624c0 .488.14.876.42 1.164.28.28.652.42 1.116.42.4 0 .728-.076.984-.228.264-.16.424-.372.48-.636h1.08c-.072.552-.34.992-.804 1.32-.464.32-1.044.48-1.74.48Zm1.536-3.876V27.8c0-.52-.136-.92-.408-1.2-.264-.288-.64-.432-1.128-.432-.488 0-.868.144-1.14.432-.264.28-.396.68-.396 1.2v.336h3.156l-.084.108Z" fill="#333238"/><rect x="708" y="16" width="52" height="24" rx="4" fill="#F5D9A8"/><path d="M719.348 32.096c-.488 0-.908-.072-1.26-.216a1.778 1.778 0 0 1-.792-.648c-.176-.288-.264-.636-.264-1.044h1.08c0 .304.108.544.324.72.216.168.52.252.912.252h.528c.4 0 .708-.088.924-.264.224-.176.336-.424.336-.744 0-.288-.064-.512-.192-.672-.128-.16-.324-.256-.588-.288l-1.824-.264c-.448-.064-.796-.248-1.044-.552-.248-.312-.372-.72-.372-1.224 0-.576.196-1.028.588-1.356.4-.328.948-.492 1.644-.492h.528c.64 0 1.16.16 1.56.48.408.312.628.724.66 1.236h-1.092a.757.757 0 0 0-.336-.576c-.2-.152-.464-.228-.792-.228h-.528c-.368 0-.656.084-.864.252a.833.833 0 0 0-.312.684c0 .224.052.404.156.54a.74.74 0 0 0 .48.252l1.704.24c.56.08.98.284 1.26.612s.42.78.42 1.356c0 .616-.204 1.096-.612 1.44-.4.336-.968.504-1.704.504h-.528Zm7.555.024c-.528 0-.992-.1-1.392-.3-.392-.2-.7-.488-.924-.864-.216-.384-.324-.836-.324-1.356v-1.8c0-.528.108-.98.324-1.356.224-.376.532-.664.924-.864.4-.2.864-.3 1.392-.3.76 0 1.372.204 1.836.612.472.408.72.964.744 1.668h-1.08c-.024-.424-.168-.748-.432-.972-.264-.232-.62-.348-1.068-.348-.472 0-.852.136-1.14.408-.28.264-.42.644-.42 1.14V29.6c0 .496.14.88.42 1.152.288.272.668.408 1.14.408.448 0 .804-.116 1.068-.348.264-.232.408-.556.432-.972h1.08c-.024.704-.272 1.26-.744 1.668-.464.408-1.076.612-1.836.612Zm6.523 0c-.68 0-1.22-.188-1.62-.564-.4-.384-.6-.884-.6-1.5 0-.408.092-.764.276-1.068.184-.304.44-.54.768-.708a2.349 2.349 0 0 1 1.128-.264h2.04V27.5c0-.432-.116-.752-.348-.96-.232-.216-.584-.324-1.056-.324-.416 0-.752.076-1.008.228-.256.152-.392.364-.408.636h-1.08c.04-.52.28-.948.72-1.284.448-.344 1.04-.516 1.776-.516.8 0 1.412.192 1.836.576.432.384.648.92.648 1.608V32h-1.068v-1.2h-.18l.168-.24c0 .32-.08.596-.24.828-.16.232-.388.412-.684.54-.296.128-.652.192-1.068.192Zm.264-.912c.528 0 .948-.128 1.26-.384.312-.256.468-.604.468-1.044v-.924h-1.92c-.352 0-.64.108-.864.324-.216.208-.324.488-.324.84 0 .368.12.66.36.876.248.208.588.312 1.02.312Zm8.468.792a2.13 2.13 0 0 1-1.008-.228 1.639 1.639 0 0 1-.672-.648 1.95 1.95 0 0 1-.24-.984v-5.916h-2.28v-.984h3.36v6.9c0 .272.076.488.228.648.152.152.356.228.612.228h2.04V32h-2.04Zm6.235.12c-.52 0-.976-.104-1.368-.312a2.296 2.296 0 0 1-.9-.912c-.216-.4-.324-.872-.324-1.416v-1.56c0-.552.108-1.024.324-1.416.216-.392.516-.692.9-.9.392-.216.848-.324 1.368-.324.52 0 .972.104 1.356.312.392.208.696.5.912.876.216.376.324.82.324 1.332v1.176h-4.128v.624c0 .488.14.876.42 1.164.28.28.652.42 1.116.42.4 0 .728-.076.984-.228.264-.16.424-.372.48-.636h1.08c-.072.552-.34.992-.804 1.32-.464.32-1.044.48-1.74.48Zm1.536-3.876V27.8c0-.52-.136-.92-.408-1.2-.264-.288-.64-.432-1.128-.432-.488 0-.868.144-1.14.432-.264.28-.396.68-.396 1.2v.336h3.156l-.084.108Z" fill="#333238"/><rect x="768" y="16" width="52" height="24" rx="4" fill="#F5D9A8"/><path d="M779.348 32.096c-.488 0-.908-.072-1.26-.216a1.778 1.778 0 0 1-.792-.648c-.176-.288-.264-.636-.264-1.044h1.08c0 .304.108.544.324.72.216.168.52.252.912.252h.528c.4 0 .708-.088.924-.264.224-.176.336-.424.336-.744 0-.288-.064-.512-.192-.672-.128-.16-.324-.256-.588-.288l-1.824-.264c-.448-.064-.796-.248-1.044-.552-.248-.312-.372-.72-.372-1.224 0-.576.196-1.028.588-1.356.4-.328.948-.492 1.644-.492h.528c.64 0 1.16.16 1.56.48.408.312.628.724.66 1.236h-1.092a.757.757 0 0 0-.336-.576c-.2-.152-.464-.228-.792-.228h-.528c-.368 0-.656.084-.864.252a.833.833 0 0 0-.312.684c0 .224.052.404.156.54a.74.74 0 0 0 .48.252l1.704.24c.56.08.98.284 1.26.612s.42.78.42 1.356c0 .616-.204 1.096-.612 1.44-.4.336-.968.504-1.704.504h-.528Zm8.119-.096c-.544 0-.98-.156-1.308-.468-.328-.32-.492-.744-.492-1.272v-3.876h-1.896V25.4h1.896v-1.86h1.08v1.86h2.7v.984h-2.7v3.876a.8.8 0 0 0 .192.552.714.714 0 0 0 .528.204h1.92V32h-1.92Zm5.959.12c-.68 0-1.22-.188-1.62-.564-.4-.384-.6-.884-.6-1.5 0-.408.092-.764.276-1.068.184-.304.44-.54.768-.708a2.349 2.349 0 0 1 1.128-.264h2.04V27.5c0-.432-.116-.752-.348-.96-.232-.216-.584-.324-1.056-.324-.416 0-.752.076-1.008.228-.256.152-.392.364-.408.636h-1.08c.04-.52.28-.948.72-1.284.448-.344 1.04-.516 1.776-.516.8 0 1.412.192 1.836.576.432.384.648.92.648 1.608V32h-1.068v-1.2h-.18l.168-.24c0 .32-.08.596-.24.828-.16.232-.388.412-.684.54-.296.128-.652.192-1.068.192Zm.264-.912c.528 0 .948-.128 1.26-.384.312-.256.468-.604.468-1.044v-.924h-1.92c-.352 0-.64.108-.864.324-.216.208-.324.488-.324.84 0 .368.12.66.36.876.248.208.588.312 1.02.312Zm8.168.792c-.544 0-.98-.156-1.308-.468-.328-.32-.492-.744-.492-1.272v-3.876h-1.896V25.4h1.896v-1.86h1.08v1.86h2.7v.984h-2.7v3.876a.8.8 0 0 0 .192.552.714.714 0 0 0 .528.204h1.92V32h-1.92Zm6.535.12c-.52 0-.976-.104-1.368-.312a2.296 2.296 0 0 1-.9-.912c-.216-.4-.324-.872-.324-1.416v-1.56c0-.552.108-1.024.324-1.416.216-.392.516-.692.9-.9.392-.216.848-.324 1.368-.324.52 0 .972.104 1.356.312.392.208.696.5.912.876.216.376.324.82.324 1.332v1.176h-4.128v.624c0 .488.14.876.42 1.164.28.28.652.42 1.116.42.4 0 .728-.076.984-.228.264-.16.424-.372.48-.636h1.08c-.072.552-.34.992-.804 1.32-.464.32-1.044.48-1.74.48Zm1.536-3.876V27.8c0-.52-.136-.92-.408-1.2-.264-.288-.64-.432-1.128-.432-.488 0-.868.144-1.14.432-.264.28-.396.68-.396 1.2v.336h3.156l-.084.108Z" fill="#333238"/><path stroke="#7B58CF" stroke-width="2" stroke-linecap="round" d="M17 63h280M17 63V49m280 14V49"/><rect x="127.333" y="72" width="59" height="24" rx="12" fill="#7B58CF"/><path d="M138.925 88.14c-1.781 0-2.982-1.353-2.982-3.374 0-2.051 1.201-3.399 2.982-3.399 1.266 0 2.297.668 2.654 1.81l-1.013.288c-.194-.674-.78-1.154-1.641-1.154-1.307 0-1.91 1.148-1.91 2.455 0 1.289.603 2.431 1.91 2.431.879 0 1.477-.498 1.67-1.207l1.008.287c-.352 1.166-1.395 1.864-2.678 1.864Zm6.856 0c-1.782 0-2.983-1.353-2.983-3.374 0-2.051 1.201-3.399 2.983-3.399 1.787 0 2.994 1.348 2.994 3.399 0 2.021-1.207 3.375-2.994 3.375Zm0-.943c1.324 0 1.927-1.142 1.927-2.431 0-1.301-.603-2.456-1.927-2.456-1.307 0-1.911 1.149-1.911 2.456 0 1.289.604 2.431 1.911 2.431Zm5.584-3.123V88h-1.055v-6.55h1.014l.005 1.587h-.146c.398-1.207 1.16-1.67 2.15-1.67 1.325 0 2.221.815 2.221 2.473V88h-1.061v-4.072c0-1.008-.562-1.612-1.476-1.612-.943 0-1.652.64-1.652 1.758Zm8.625-2.625v.903h-3.387v-.903h3.387Zm-2.403-1.558h1.055v6.41c0 .586.217.843.773.843.135 0 .364-.035.539-.07l.217.89a2.536 2.536 0 0 1-.785.118c-1.131 0-1.799-.627-1.799-1.7v-6.491Zm6.387 8.25c-1.898 0-3.07-1.348-3.07-3.364 0-2.01 1.16-3.41 2.947-3.41 1.389 0 2.853.856 2.853 3.276v.439h-5.086v-.89h4.518l-.492.328c0-1.29-.609-2.215-1.793-2.215s-1.881.978-1.881 2.045v.591c0 1.46.809 2.262 2.01 2.262.773 0 1.353-.34 1.599-1.008l1.02.282c-.305.99-1.283 1.664-2.625 1.664Zm3.428-.141 2.584-3.768-.006.809-2.444-3.592h1.231l.814 1.272c.422.656.698 1.218 1.026 1.746h-.551c.334-.528.562-1.09.99-1.746l.832-1.272h1.207l-2.455 3.639v-.78L173.191 88h-1.225l-.961-1.47c-.416-.64-.679-1.178-1.002-1.688h.557c-.322.51-.545 1.049-.967 1.687L168.62 88h-1.218Zm9.908-6.55v.902h-3.387v-.903h3.387Zm-2.402-1.56h1.054v6.41c0 .587.217.844.774.844.134 0 .363-.035.539-.07l.217.89a2.543 2.543 0 0 1-.786.118c-1.13 0-1.798-.627-1.798-1.7v-6.491Z" fill="#fff"/><path stroke="#7B58CF" stroke-width="2" stroke-linecap="round" d="M306.667 63h258m-258 0V49m258 14V49"/><rect x="409.75" y="72" width="52" height="24" rx="12" fill="#7B58CF"/><path d="M421.342 88.14c-1.781 0-2.983-1.353-2.983-3.374 0-2.051 1.202-3.399 2.983-3.399 1.787 0 2.994 1.348 2.994 3.399 0 2.021-1.207 3.375-2.994 3.375Zm0-.943c1.324 0 1.928-1.142 1.928-2.431 0-1.301-.604-2.456-1.928-2.456-1.307 0-1.91 1.149-1.91 2.456 0 1.289.603 2.431 1.91 2.431Zm7.57.944c-1.248 0-1.687-.791-1.904-1.155h-.117V88h-1.02v-8.73h1.055v3.228h.082c.217-.346.621-1.13 1.898-1.13 1.635 0 2.778 1.3 2.778 3.374 0 2.086-1.137 3.399-2.772 3.399Zm-.158-.944c1.225 0 1.857-1.09 1.857-2.466 0-1.36-.615-2.42-1.857-2.42-1.207 0-1.84.972-1.84 2.42 0 1.459.65 2.466 1.84 2.466Zm4.459-5.748h1.06v7.02c.006 1.248-.65 1.98-1.921 1.98h-.211v-.972h.193c.609 0 .879-.358.879-1.008v-7.02Zm.533-1.072c-.398 0-.732-.31-.732-.697 0-.387.334-.698.732-.698.404 0 .738.311.738.698 0 .386-.334.697-.738.697Zm5.133 7.764c-1.899 0-3.07-1.348-3.07-3.364 0-2.01 1.16-3.41 2.947-3.41 1.389 0 2.853.856 2.853 3.276v.439h-5.086v-.89h4.518l-.492.328c0-1.29-.61-2.215-1.793-2.215-1.184 0-1.881.978-1.881 2.045v.591c0 1.46.809 2.262 2.01 2.262.773 0 1.353-.34 1.599-1.008l1.02.282c-.305.99-1.283 1.664-2.625 1.664Zm6.908 0c-1.781 0-2.982-1.354-2.982-3.375 0-2.051 1.201-3.399 2.982-3.399 1.266 0 2.297.668 2.654 1.81l-1.013.288c-.194-.674-.78-1.154-1.641-1.154-1.307 0-1.91 1.148-1.91 2.455 0 1.289.603 2.431 1.91 2.431.879 0 1.477-.498 1.67-1.207l1.008.287c-.352 1.166-1.395 1.864-2.678 1.864Zm6.768-6.692v.903h-3.387v-.903h3.387Zm-2.403-1.558h1.055v6.41c0 .586.217.843.773.843.135 0 .364-.035.54-.07l.216.89a2.531 2.531 0 0 1-.785.118c-1.131 0-1.799-.627-1.799-1.7v-6.491Z" fill="#fff"/><path stroke="#7B58CF" stroke-width="2" stroke-linecap="round" d="M574.833 63h244m-244 0V49m244 14V49"/><rect x="665.417" y="72" width="63" height="24" rx="12" fill="#7B58CF"/><path d="M674.342 88v-6.55h1.026l.006 1.464h-.082c.263-1.06 1.066-1.582 1.916-1.582.949 0 1.552.645 1.728 1.594h-.14c.234-.979 1.101-1.594 2.144-1.594 1.137 0 2.063.733 2.063 2.25V88h-1.061v-4.389c0-.943-.615-1.318-1.318-1.318-.885 0-1.424.603-1.424 1.43V88h-1.055v-4.494c0-.727-.545-1.213-1.283-1.213-.768 0-1.465.539-1.465 1.582V88h-1.055Zm13.178.14c-1.781 0-2.982-1.353-2.982-3.374 0-2.051 1.201-3.399 2.982-3.399 1.787 0 2.994 1.348 2.994 3.399 0 2.021-1.207 3.375-2.994 3.375Zm0-.943c1.324 0 1.928-1.142 1.928-2.431 0-1.301-.604-2.456-1.928-2.456-1.306 0-1.91 1.149-1.91 2.456 0 1.289.604 2.431 1.91 2.431Zm6.985.944c-1.635 0-2.772-1.313-2.772-3.399 0-2.074 1.143-3.375 2.777-3.375 1.278 0 1.682.785 1.899 1.131h.082v-3.229h1.055V88h-1.02v-1.014h-.117c-.217.364-.656 1.155-1.904 1.155Zm.158-.944c1.189 0 1.84-1.008 1.84-2.466 0-1.448-.633-2.42-1.84-2.42-1.242 0-1.858 1.06-1.858 2.42 0 1.376.633 2.466 1.858 2.466Zm4.734.803v-6.55h1.055V88h-1.055Zm.533-7.623c-.398 0-.732-.31-.732-.697 0-.387.334-.698.732-.698.405 0 .739.311.739.698 0 .386-.334.697-.739.697ZM702.772 88v-7.424c0-1.136.908-1.717 1.863-1.717.211 0 .399.018.551.047l-.158.955a1.219 1.219 0 0 0-.27-.023c-.65 0-.931.34-.931.973V88h-1.055Zm-1.277-5.648v-.903h5.191v.903h-5.191Zm4.84 5.648v-6.55h1.054V88h-1.054Zm.533-7.623c-.399 0-.733-.31-.733-.697 0-.387.334-.698.733-.698.404 0 .738.311.738.698 0 .386-.334.697-.738.697Zm5.127 7.764c-1.899 0-3.071-1.348-3.071-3.364 0-2.01 1.161-3.41 2.948-3.41 1.388 0 2.853.856 2.853 3.276v.439h-5.086v-.89h4.518l-.492.328c0-1.29-.61-2.215-1.793-2.215-1.184 0-1.881.978-1.881 2.045v.591c0 1.46.808 2.262 2.01 2.262.773 0 1.353-.34 1.599-1.008l1.02.282c-.305.99-1.283 1.664-2.625 1.664Zm4.242-.141v-6.55h1.02v1.007h.07c.24-.662.92-1.101 1.699-1.101.152 0 .41.011.533.017v1.06a3.975 3.975 0 0 0-.633-.058c-.943 0-1.634.639-1.634 1.523V88h-1.055Z" fill="#fff"/></svg>