<svg width="745" height="112" viewBox="0 0 745 112" fill="none" xmlns="http://www.w3.org/2000/svg"><rect width="337" height="112" rx="4" fill="#FBFAFD"/><rect x="16" y="16" width="294" height="28" rx="4" fill="#ECECEF"/><path d="M28.242 35.14c-.765 0-1.381-.257-1.848-.77-.457-.513-.686-1.209-.686-2.086V30.03c0-.887.229-1.587.686-2.1.458-.513 1.074-.77 1.848-.77.635 0 1.148.173 1.54.518.392.345.588.807.588 1.386l-.28-.294h.28l-.028-1.75v-2.24h1.26V35h-1.26v-1.47h-.252l.252-.294c0 .588-.191 1.055-.574 1.4-.382.336-.891.504-1.526.504Zm.42-1.092c.523 0 .934-.163 1.232-.49.299-.327.448-.78.448-1.358v-2.1c0-.579-.15-1.031-.448-1.358-.298-.327-.71-.49-1.232-.49-.532 0-.947.14-1.246.42-.298.27-.448.723-.448 1.358v2.24c0 .625.15 1.078.448 1.358.299.28.714.42 1.246.42Zm5.79.952v-7.7h1.26v1.47h.267l-.266.336c0-.597.182-1.069.546-1.414.373-.355.886-.532 1.54-.532.802 0 1.418.243 1.848.728.438.476.658 1.157.658 2.044v.658h-1.26v-.658c0-.57-.14-.99-.42-1.26-.28-.28-.686-.42-1.218-.42-.55 0-.97.159-1.26.476-.29.317-.434.775-.434 1.372V35h-1.26Zm11.027.112c-.616 0-1.152-.121-1.61-.364a2.586 2.586 0 0 1-1.05-1.05c-.242-.467-.364-1.022-.364-1.666v-1.764c0-.653.122-1.209.364-1.666a2.586 2.586 0 0 1 1.05-1.05c.458-.243.994-.364 1.61-.364.626 0 1.162.121 1.61.364.448.243.794.593 1.036 1.05.252.457.378 1.013.378 1.666v1.764c0 .644-.126 1.2-.378 1.666a2.479 2.479 0 0 1-1.05 1.05c-.448.243-.98.364-1.596.364Zm0-1.12c.551 0 .98-.154 1.288-.462.318-.308.476-.76.476-1.358v-2.044c0-.597-.158-1.05-.476-1.358-.308-.308-.737-.462-1.288-.462-.541 0-.97.154-1.288.462-.317.308-.476.76-.476 1.358v2.044c0 .597.159 1.05.476 1.358.318.308.747.462 1.288.462Zm5.483 3.528V27.3h1.26v1.47h.252l-.252.294c0-.588.191-1.05.574-1.386.383-.345.891-.518 1.526-.518.513 0 .956.117 1.33.35a2.2 2.2 0 0 1 .882.98c.215.43.322.938.322 1.526v2.254c0 .588-.103 1.097-.308 1.526-.206.43-.5.76-.882.994-.373.233-.822.35-1.344.35-.626 0-1.134-.173-1.526-.518-.383-.345-.574-.807-.574-1.386l.252.294h-.28l.028 1.75v2.24h-1.26Zm2.94-3.472c.532 0 .947-.14 1.246-.42.298-.28.448-.733.448-1.358v-2.24c0-.635-.15-1.087-.448-1.358-.299-.28-.714-.42-1.246-.42-.514 0-.924.163-1.232.49-.299.327-.448.78-.448 1.358v2.1c0 .579.15 1.031.448 1.358.308.327.718.49 1.232.49Zm7.918 1.092c-.765 0-1.381-.257-1.848-.77-.457-.513-.686-1.209-.686-2.086V30.03c0-.887.229-1.587.686-2.1.458-.513 1.074-.77 1.848-.77.635 0 1.148.173 1.54.518.392.345.588.807.588 1.386l-.28-.294h.28l-.028-1.75v-2.24h1.26V35h-1.26v-1.47h-.252l.252-.294c0 .588-.191 1.055-.574 1.4-.382.336-.891.504-1.526.504Zm.42-1.092c.523 0 .934-.163 1.232-.49.299-.327.448-.78.448-1.358v-2.1c0-.579-.149-1.031-.448-1.358-.298-.327-.709-.49-1.232-.49-.532 0-.947.14-1.246.42-.298.27-.448.723-.448 1.358v2.24c0 .625.15 1.078.448 1.358.299.28.714.42 1.246.42Zm8.423 1.064c-.616 0-1.153-.121-1.61-.364a2.586 2.586 0 0 1-1.05-1.05c-.243-.467-.364-1.022-.364-1.666v-1.764c0-.653.121-1.209.364-1.666a2.586 2.586 0 0 1 1.05-1.05c.457-.243.994-.364 1.61-.364.625 0 1.162.121 1.61.364.448.243.793.593 1.036 1.05.252.457.378 1.013.378 1.666v1.764c0 .644-.126 1.2-.378 1.666a2.479 2.479 0 0 1-1.05 1.05c-.448.243-.98.364-1.596.364Zm0-1.12c.55 0 .98-.154 1.288-.462.317-.308.476-.76.476-1.358v-2.044c0-.597-.159-1.05-.476-1.358-.308-.308-.737-.462-1.288-.462-.541 0-.97.154-1.288.462-.317.308-.476.76-.476 1.358v2.044c0 .597.159 1.05.476 1.358.317.308.747.462 1.288.462ZM76.55 35l-1.26-7.7h1.092l.784 5.432c.028.205.056.434.084.686.028.243.047.443.056.602.02-.159.038-.36.056-.602.028-.252.061-.48.098-.686l.966-5.432h1.26l.966 5.432c.038.205.07.434.098.686.038.243.061.443.07.602.02-.159.042-.36.07-.602.028-.252.056-.48.084-.686l.812-5.432h1.036L81.507 35h-1.386l-.882-5.32a63.188 63.188 0 0 1-.112-.826 31.213 31.213 0 0 0-.07-.686 17.5 17.5 0 0 1-.112.966l-.084.546-.924 5.32h-1.386Zm7.989 0v-7.7h1.26v1.47h.266l-.266.294c0-.607.182-1.073.546-1.4.364-.336.868-.504 1.512-.504.775 0 1.39.238 1.848.714.457.476.686 1.125.686 1.946V35h-1.26v-4.956c0-.588-.15-1.036-.448-1.344-.29-.317-.686-.476-1.19-.476-.523 0-.938.163-1.246.49-.299.327-.448.789-.448 1.386V35h-1.26Zm11.306.14c-.345 0-.625-.103-.84-.308-.205-.205-.308-.471-.308-.798 0-.345.103-.625.309-.84.214-.215.494-.322.84-.322.345 0 .62.107.826.322.214.215.322.495.322.84 0 .327-.108.593-.323.798-.205.205-.48.308-.825.308Zm5.385-.14v-1.148h2.73v-5.404h-2.45V27.3h3.71v6.552h2.59V35h-6.58Zm3.22-9.086c-.308 0-.551-.08-.728-.238-.177-.159-.266-.373-.266-.644 0-.28.089-.5.266-.658.177-.168.42-.252.728-.252s.551.084.728.252c.177.159.266.378.266.658 0 .27-.089.485-.266.644-.177.159-.42.238-.728.238Zm8.297 9.226c-.616 0-1.158-.117-1.624-.35a2.605 2.605 0 0 1-1.078-1.008c-.252-.448-.378-.975-.378-1.582v-2.1c0-.616.126-1.143.378-1.582a2.6 2.6 0 0 1 1.078-1.008c.466-.233 1.008-.35 1.624-.35.886 0 1.6.238 2.142.714.55.476.84 1.125.868 1.946h-1.26c-.028-.495-.196-.873-.504-1.134-.308-.27-.724-.406-1.246-.406-.551 0-.994.159-1.33.476-.327.308-.49.751-.49 1.33V32.2c0 .579.163 1.027.49 1.344.336.317.779.476 1.33.476.522 0 .938-.135 1.246-.406.308-.27.476-.649.504-1.134h1.26c-.028.821-.318 1.47-.868 1.946-.542.476-1.256.714-2.142.714Zm8.282-.028c-.616 0-1.153-.121-1.61-.364a2.586 2.586 0 0 1-1.05-1.05c-.243-.467-.364-1.022-.364-1.666v-1.764c0-.653.121-1.209.364-1.666a2.586 2.586 0 0 1 1.05-1.05c.457-.243.994-.364 1.61-.364.625 0 1.162.121 1.61.364a2.5 2.5 0 0 1 1.036 1.05c.252.457.378 1.013.378 1.666v1.764c0 .644-.126 1.2-.378 1.666a2.482 2.482 0 0 1-1.05 1.05c-.448.243-.98.364-1.596.364Zm0-1.12c.551 0 .98-.154 1.288-.462.317-.308.476-.76.476-1.358v-2.044c0-.597-.159-1.05-.476-1.358-.308-.308-.737-.462-1.288-.462-.541 0-.971.154-1.288.462-.317.308-.476.76-.476 1.358v2.044c0 .597.159 1.05.476 1.358.317.308.747.462 1.288.462ZM126.513 35v-7.7h1.26v1.47h.266l-.266.294c0-.607.182-1.073.546-1.4.364-.336.868-.504 1.512-.504.774 0 1.39.238 1.848.714.457.476.686 1.125.686 1.946V35h-1.26v-4.956c0-.588-.15-1.036-.448-1.344-.29-.317-.686-.476-1.19-.476-.523 0-.938.163-1.246.49-.299.327-.448.789-.448 1.386V35h-1.26Zm11.306.14c-.345 0-.625-.103-.84-.308-.205-.205-.308-.471-.308-.798 0-.345.103-.625.308-.84.215-.215.495-.322.84-.322s.621.107.826.322c.215.215.322.495.322.84 0 .327-.107.593-.322.798-.205.205-.481.308-.826.308Zm5.763-.14v-7.7h1.26v1.47h.266l-.266.336c0-.597.182-1.069.546-1.414.373-.355.886-.532 1.54-.532.802 0 1.418.243 1.848.728.438.476.658 1.157.658 2.044v.658h-1.26v-.658c0-.57-.14-.99-.42-1.26-.28-.28-.686-.42-1.218-.42-.551 0-.971.159-1.26.476-.29.317-.434.775-.434 1.372V35h-1.26Zm8.016 0v-1.148h2.73v-5.404h-2.45V27.3h3.71v6.552h2.59V35h-6.58Zm3.22-9.086c-.308 0-.55-.08-.728-.238-.177-.159-.266-.373-.266-.644 0-.28.089-.5.266-.658.178-.168.42-.252.728-.252s.551.084.728.252c.178.159.266.378.266.658 0 .27-.088.485-.266.644-.177.159-.42.238-.728.238Zm6.239 11.606v-1.148h2.17c.438 0 .784-.126 1.036-.378.252-.243.378-.574.378-.994v-.7l.028-1.26h-.252l.238-.35c0 .56-.187.999-.56 1.316-.374.308-.873.462-1.498.462-.794 0-1.419-.252-1.876-.756-.458-.504-.686-1.195-.686-2.072v-1.624c0-.877.228-1.573.686-2.086.457-.513 1.082-.77 1.876-.77.625 0 1.124.163 1.498.49.373.327.56.77.56 1.33l-.238-.35h.238V27.3h1.246V35c0 .775-.243 1.386-.728 1.834-.476.457-1.13.686-1.96.686h-2.156Zm1.918-4.102c.522 0 .933-.163 1.232-.49.298-.327.448-.78.448-1.358V30.1c0-.579-.15-1.031-.448-1.358-.299-.327-.71-.49-1.232-.49-.532 0-.948.154-1.246.462-.29.308-.434.723-.434 1.246v1.75c0 .523.144.938.434 1.246.298.308.714.462 1.246.462Zm5.51 1.582V24.78h1.26v3.99h.266l-.266.294c0-.607.182-1.073.546-1.4.364-.336.868-.504 1.512-.504.775 0 1.391.238 1.848.714.458.476.686 1.125.686 1.946V35h-1.26v-4.97c0-.579-.149-1.022-.448-1.33-.289-.317-.686-.476-1.19-.476-.522 0-.938.163-1.246.49-.298.327-.448.789-.448 1.386V35h-1.26Zm12.077 0c-.635 0-1.144-.182-1.526-.546-.383-.373-.574-.868-.574-1.484v-4.522h-2.212V27.3h2.212v-2.17h1.26v2.17h3.15v1.148h-3.15v4.522c0 .261.074.476.224.644a.832.832 0 0 0 .616.238h2.24V35h-2.24Zm7.624.14c-.345 0-.625-.103-.84-.308-.205-.205-.308-.471-.308-.798 0-.345.103-.625.308-.84.215-.215.495-.322.84-.322.346 0 .621.107.826.322.215.215.322.495.322.84 0 .327-.107.593-.322.798-.205.205-.48.308-.826.308Zm9.165-.14c-.635 0-1.143-.182-1.526-.546-.383-.373-.574-.868-.574-1.484v-4.522h-2.212V27.3h2.212v-2.17h1.26v2.17h3.15v1.148h-3.15v4.522c0 .261.075.476.224.644a.834.834 0 0 0 .616.238h2.24V35h-2.24Zm7.624.112c-.616 0-1.152-.121-1.61-.364a2.586 2.586 0 0 1-1.05-1.05c-.242-.467-.364-1.022-.364-1.666v-1.764c0-.653.122-1.209.364-1.666a2.586 2.586 0 0 1 1.05-1.05c.458-.243.994-.364 1.61-.364.626 0 1.162.121 1.61.364.448.243.794.593 1.036 1.05.252.457.378 1.013.378 1.666v1.764c0 .644-.126 1.2-.378 1.666a2.471 2.471 0 0 1-1.05 1.05c-.448.243-.98.364-1.596.364Zm0-1.12c.551 0 .98-.154 1.288-.462.318-.308.476-.76.476-1.358v-2.044c0-.597-.158-1.05-.476-1.358-.308-.308-.737-.462-1.288-.462-.541 0-.97.154-1.288.462-.317.308-.476.76-.476 1.358v2.044c0 .597.159 1.05.476 1.358.318.308.747.462 1.288.462Zm6.155-3.052v-1.12h4.48v1.12h-4.48Zm10.634 4.2c-.606 0-1.138-.121-1.596-.364a2.679 2.679 0 0 1-1.05-1.064c-.252-.467-.378-1.017-.378-1.652v-1.82c0-.644.126-1.195.378-1.652a2.586 2.586 0 0 1 1.05-1.05c.458-.252.99-.378 1.596-.378.607 0 1.134.121 1.582.364.458.243.812.583 1.064 1.022.252.439.378.957.378 1.554v1.372h-4.816v.728c0 .57.164 1.022.49 1.358.327.327.761.49 1.302.49.467 0 .85-.089 1.148-.266.308-.187.495-.434.56-.742h1.26c-.084.644-.396 1.157-.938 1.54-.541.373-1.218.56-2.03.56Zm1.792-4.522V30.1c0-.607-.158-1.073-.476-1.4-.308-.336-.746-.504-1.316-.504-.569 0-1.012.168-1.33.504-.308.327-.462.793-.462 1.4v.392h3.682l-.098.126Zm6.155 4.522c-.765 0-1.381-.257-1.848-.77-.457-.513-.686-1.209-.686-2.086V30.03c0-.887.229-1.587.686-2.1.457-.513 1.073-.77 1.848-.77.635 0 1.148.173 1.54.518.392.345.588.807.588 1.386l-.28-.294h.28l-.028-1.75v-2.24h1.26V35h-1.26v-1.47h-.252l.252-.294c0 .588-.191 1.055-.574 1.4-.383.336-.891.504-1.526.504Zm.42-1.092c.523 0 .933-.163 1.232-.49.299-.327.448-.78.448-1.358v-2.1c0-.579-.149-1.031-.448-1.358-.299-.327-.709-.49-1.232-.49-.532 0-.947.14-1.246.42-.299.27-.448.723-.448 1.358v2.24c0 .625.149 1.078.448 1.358.299.28.714.42 1.246.42Zm6.477 3.472v-1.148h2.17c.438 0 .784-.126 1.036-.378.252-.243.378-.574.378-.994v-.7l.028-1.26h-.252l.238-.35c0 .56-.187.999-.56 1.316-.374.308-.873.462-1.498.462-.794 0-1.419-.252-1.876-.756-.458-.504-.686-1.195-.686-2.072v-1.624c0-.877.228-1.573.686-2.086.457-.513 1.082-.77 1.876-.77.625 0 1.124.163 1.498.49.373.327.56.77.56 1.33l-.238-.35h.238V27.3h1.246V35c0 .775-.243 1.386-.728 1.834-.476.457-1.13.686-1.96.686h-2.156Zm1.918-4.102c.522 0 .933-.163 1.232-.49.298-.327.448-.78.448-1.358V30.1c0-.579-.15-1.031-.448-1.358-.299-.327-.71-.49-1.232-.49-.532 0-.948.154-1.246.462-.29.308-.434.723-.434 1.246v1.75c0 .523.144.938.434 1.246.298.308.714.462 1.246.462Zm8.422 1.722c-.607 0-1.139-.121-1.596-.364a2.679 2.679 0 0 1-1.05-1.064c-.252-.467-.378-1.017-.378-1.652v-1.82c0-.644.126-1.195.378-1.652a2.586 2.586 0 0 1 1.05-1.05c.457-.252.989-.378 1.596-.378.607 0 1.134.121 1.582.364.457.243.812.583 1.064 1.022.252.439.378.957.378 1.554v1.372h-4.816v.728c0 .57.163 1.022.49 1.358.327.327.761.49 1.302.49.467 0 .849-.089 1.148-.266.308-.187.495-.434.56-.742h1.26c-.084.644-.397 1.157-.938 1.54-.541.373-1.218.56-2.03.56Zm1.792-4.522V30.1c0-.607-.159-1.073-.476-1.4-.308-.336-.747-.504-1.316-.504-.569 0-1.013.168-1.33.504-.308.327-.462.793-.462 1.4v.392h3.682l-.098.126Zm6.603 4.522c-.346 0-.626-.103-.84-.308-.206-.205-.308-.471-.308-.798 0-.345.102-.625.308-.84.214-.215.494-.322.84-.322.345 0 .62.107.826.322.214.215.322.495.322.84 0 .327-.108.593-.322.798-.206.205-.481.308-.826.308Zm8.086-.028c-.569 0-1.059-.084-1.47-.252a2.077 2.077 0 0 1-.924-.756c-.205-.336-.308-.742-.308-1.218h1.26c0 .355.126.635.378.84.252.196.607.294 1.064.294h.616c.467 0 .826-.103 1.078-.308.261-.205.392-.495.392-.868 0-.336-.075-.597-.224-.784-.149-.187-.378-.299-.686-.336l-2.128-.308c-.523-.075-.929-.29-1.218-.644-.289-.364-.434-.84-.434-1.428 0-.672.229-1.2.686-1.582.467-.383 1.106-.574 1.918-.574h.616c.747 0 1.353.187 1.82.56.476.364.733.845.77 1.442h-1.274c-.019-.27-.149-.495-.392-.672-.233-.177-.541-.266-.924-.266h-.616c-.429 0-.765.098-1.008.294-.243.196-.364.462-.364.798 0 .261.061.471.182.63.131.159.317.257.56.294l1.988.28c.653.093 1.143.331 1.47.714.327.383.49.91.49 1.582 0 .719-.238 1.279-.714 1.68-.467.392-1.129.588-1.988.588h-.616Zm5.791 2.408V27.3h1.26v1.47h.252l-.252.294c0-.588.191-1.05.574-1.386.382-.345.891-.518 1.526-.518.513 0 .956.117 1.33.35.382.224.676.55.882.98.214.43.322.938.322 1.526v2.254c0 .588-.103 1.097-.308 1.526-.206.43-.5.76-.882.994-.374.233-.822.35-1.344.35-.626 0-1.134-.173-1.526-.518-.383-.345-.574-.807-.574-1.386l.252.294h-.28l.028 1.75v2.24h-1.26Zm2.94-3.472c.532 0 .947-.14 1.246-.42.298-.28.448-.733.448-1.358v-2.24c0-.635-.15-1.087-.448-1.358-.299-.28-.714-.42-1.246-.42-.514 0-.924.163-1.232.49-.299.327-.448.78-.448 1.358v2.1c0 .579.149 1.031.448 1.358.308.327.718.49 1.232.49Zm7.694 1.092c-.793 0-1.423-.22-1.89-.658-.466-.448-.7-1.031-.7-1.75 0-.476.108-.891.322-1.246.215-.355.514-.63.896-.826a2.743 2.743 0 0 1 1.316-.308h2.38v-.602c0-.504-.135-.877-.406-1.12-.27-.252-.681-.378-1.232-.378-.485 0-.877.089-1.176.266-.298.177-.457.425-.476.742h-1.26c.047-.607.327-1.106.84-1.498.523-.401 1.214-.602 2.072-.602.934 0 1.648.224 2.142.672.504.448.756 1.073.756 1.876V35h-1.246v-1.4h-.21l.196-.28c0 .373-.093.695-.28.966-.186.27-.452.48-.798.63-.345.15-.76.224-1.246.224Zm.308-1.064c.616 0 1.106-.15 1.47-.448.364-.299.546-.705.546-1.218v-1.078h-2.24c-.41 0-.746.126-1.008.378-.252.243-.378.57-.378.98 0 .43.14.77.42 1.022.29.243.686.364 1.19.364Zm8.871 1.064c-.616 0-1.158-.117-1.624-.35a2.605 2.605 0 0 1-1.078-1.008c-.252-.448-.378-.975-.378-1.582v-2.1c0-.616.126-1.143.378-1.582a2.6 2.6 0 0 1 1.078-1.008c.466-.233 1.008-.35 1.624-.35.886 0 1.6.238 2.142.714.55.476.84 1.125.868 1.946h-1.26c-.028-.495-.196-.873-.504-1.134-.308-.27-.724-.406-1.246-.406-.551 0-.994.159-1.33.476-.327.308-.49.751-.49 1.33V32.2c0 .579.163 1.027.49 1.344.336.317.779.476 1.33.476.522 0 .938-.135 1.246-.406.308-.27.476-.649.504-1.134h1.26c-.028.821-.318 1.47-.868 1.946-.542.476-1.256.714-2.142.714Zm8.282 0c-.606 0-1.138-.121-1.596-.364a2.679 2.679 0 0 1-1.05-1.064c-.252-.467-.378-1.017-.378-1.652v-1.82c0-.644.126-1.195.378-1.652a2.586 2.586 0 0 1 1.05-1.05c.458-.252.99-.378 1.596-.378.607 0 1.134.121 1.582.364.458.243.812.583 1.064 1.022.252.439.378.957.378 1.554v1.372h-4.816v.728c0 .57.164 1.022.49 1.358.327.327.761.49 1.302.49.467 0 .85-.089 1.148-.266.308-.187.495-.434.56-.742h1.26c-.084.644-.396 1.157-.938 1.54-.541.373-1.218.56-2.03.56Zm1.792-4.522V30.1c0-.607-.158-1.073-.476-1.4-.308-.336-.746-.504-1.316-.504-.569 0-1.012.168-1.33.504-.308.327-.462.793-.462 1.4v.392h3.682l-.098.126Z" fill="#333238"/><path stroke="#7B58CF" stroke-width="2" stroke-linecap="round" d="M17 63h75m-75 0V49m75 14V49"/><rect x="25" y="72" width="59" height="24" rx="12" fill="#7B58CF"/><path d="M36.592 88.14c-1.782 0-2.983-1.353-2.983-3.374 0-2.051 1.201-3.399 2.983-3.399 1.265 0 2.297.668 2.654 1.81l-1.014.288c-.193-.674-.779-1.154-1.64-1.154-1.307 0-1.91 1.148-1.91 2.455 0 1.289.603 2.431 1.91 2.431.879 0 1.476-.498 1.67-1.207l1.008.287c-.352 1.166-1.395 1.864-2.678 1.864Zm6.855 0c-1.781 0-2.982-1.353-2.982-3.374 0-2.051 1.201-3.399 2.982-3.399 1.787 0 2.994 1.348 2.994 3.399 0 2.021-1.207 3.375-2.994 3.375Zm0-.943c1.325 0 1.928-1.142 1.928-2.431 0-1.301-.603-2.456-1.928-2.456-1.306 0-1.91 1.149-1.91 2.456 0 1.289.604 2.431 1.91 2.431Zm5.584-3.123V88h-1.054v-6.55h1.013l.006 1.587h-.146c.398-1.207 1.16-1.67 2.15-1.67 1.324 0 2.22.815 2.22 2.473V88h-1.06v-4.072c0-1.008-.562-1.612-1.476-1.612-.944 0-1.653.64-1.653 1.758Zm8.625-2.625v.903H54.27v-.903h3.386Zm-2.402-1.558h1.055v6.41c0 .586.216.843.773.843.135 0 .363-.035.54-.07l.216.89a2.538 2.538 0 0 1-.785.118c-1.131 0-1.8-.627-1.8-1.7v-6.491Zm6.387 8.25c-1.899 0-3.07-1.348-3.07-3.364 0-2.01 1.16-3.41 2.947-3.41 1.388 0 2.853.856 2.853 3.276v.439h-5.086v-.89h4.518l-.492.328c0-1.29-.61-2.215-1.793-2.215-1.184 0-1.881.978-1.881 2.045v.591c0 1.46.808 2.262 2.01 2.262.773 0 1.353-.34 1.6-1.008l1.019.282c-.305.99-1.284 1.664-2.625 1.664ZM65.068 88l2.584-3.768-.005.809-2.444-3.592h1.23l.815 1.272c.422.656.697 1.218 1.025 1.746h-.55c.334-.528.562-1.09.99-1.746l.832-1.272h1.207l-2.455 3.639v-.78L70.857 88h-1.224l-.961-1.47c-.416-.64-.68-1.178-1.002-1.688h.557c-.323.51-.545 1.049-.967 1.687L66.287 88h-1.219Zm9.909-6.55v.902H71.59v-.903h3.387Zm-2.403-1.56h1.055v6.41c0 .587.217.844.773.844.135 0 .364-.035.54-.07l.216.89a2.538 2.538 0 0 1-.785.118c-1.13 0-1.799-.627-1.799-1.7v-6.491Z" fill="#fff"/><path stroke="#7B58CF" stroke-width="2" stroke-linecap="round" d="M102 63h148m-148 0V49m148 14V49"/><rect x="150" y="72" width="52" height="24" rx="12" fill="#7B58CF"/><path d="M161.592 88.14c-1.781 0-2.983-1.353-2.983-3.374 0-2.051 1.202-3.399 2.983-3.399 1.787 0 2.994 1.348 2.994 3.399 0 2.021-1.207 3.375-2.994 3.375Zm0-.943c1.324 0 1.928-1.142 1.928-2.431 0-1.301-.604-2.456-1.928-2.456-1.307 0-1.91 1.149-1.91 2.456 0 1.289.603 2.431 1.91 2.431Zm7.57.944c-1.248 0-1.687-.791-1.904-1.155h-.117V88h-1.02v-8.73h1.055v3.228h.082c.217-.346.621-1.13 1.898-1.13 1.635 0 2.778 1.3 2.778 3.374 0 2.086-1.137 3.399-2.772 3.399Zm-.158-.944c1.225 0 1.857-1.09 1.857-2.466 0-1.36-.615-2.42-1.857-2.42-1.207 0-1.84.972-1.84 2.42 0 1.459.65 2.466 1.84 2.466Zm4.459-5.748h1.06v7.02c.006 1.248-.65 1.98-1.921 1.98h-.211v-.972h.193c.609 0 .879-.358.879-1.008v-7.02Zm.533-1.072c-.398 0-.732-.31-.732-.697 0-.387.334-.698.732-.698.404 0 .738.311.738.698 0 .386-.334.697-.738.697Zm5.133 7.764c-1.899 0-3.07-1.348-3.07-3.364 0-2.01 1.16-3.41 2.947-3.41 1.389 0 2.853.856 2.853 3.276v.439h-5.086v-.89h4.518l-.492.328c0-1.29-.61-2.215-1.793-2.215-1.184 0-1.881.978-1.881 2.045v.591c0 1.46.809 2.262 2.01 2.262.773 0 1.353-.34 1.599-1.008l1.02.282c-.305.99-1.283 1.664-2.625 1.664Zm6.908 0c-1.781 0-2.982-1.354-2.982-3.375 0-2.051 1.201-3.399 2.982-3.399 1.266 0 2.297.668 2.654 1.81l-1.013.288c-.194-.674-.78-1.154-1.641-1.154-1.307 0-1.91 1.148-1.91 2.455 0 1.289.603 2.431 1.91 2.431.879 0 1.477-.498 1.67-1.207l1.008.287c-.352 1.166-1.395 1.864-2.678 1.864Zm6.768-6.692v.903h-3.387v-.903h3.387Zm-2.403-1.558h1.055v6.41c0 .586.217.843.773.843.135 0 .364-.035.54-.07l.216.89a2.531 2.531 0 0 1-.785.118c-1.131 0-1.799-.627-1.799-1.7v-6.491Z" fill="#fff"/><path stroke="#7B58CF" stroke-width="2" stroke-linecap="round" d="M260 63h48m-48 0V49m48 14V49"/><rect x="252.5" y="72" width="63" height="24" rx="12" fill="#7B58CF"/><path d="M261.426 88v-6.55h1.025l.006 1.464h-.082c.264-1.06 1.066-1.582 1.916-1.582.949 0 1.553.645 1.729 1.594h-.141c.234-.979 1.101-1.594 2.144-1.594 1.137 0 2.063.733 2.063 2.25V88h-1.061v-4.389c0-.943-.615-1.318-1.318-1.318-.885 0-1.424.603-1.424 1.43V88h-1.054v-4.494c0-.727-.545-1.213-1.284-1.213-.767 0-1.465.539-1.465 1.582V88h-1.054Zm13.178.14c-1.782 0-2.983-1.353-2.983-3.374 0-2.051 1.201-3.399 2.983-3.399 1.787 0 2.994 1.348 2.994 3.399 0 2.021-1.207 3.375-2.994 3.375Zm0-.943c1.324 0 1.927-1.142 1.927-2.431 0-1.301-.603-2.456-1.927-2.456-1.307 0-1.911 1.149-1.911 2.456 0 1.289.604 2.431 1.911 2.431Zm6.984.944c-1.635 0-2.772-1.313-2.772-3.399 0-2.074 1.143-3.375 2.778-3.375 1.277 0 1.681.785 1.898 1.131h.082v-3.229h1.055V88h-1.02v-1.014h-.117c-.217.364-.656 1.155-1.904 1.155Zm.158-.944c1.19 0 1.84-1.008 1.84-2.466 0-1.448-.633-2.42-1.84-2.42-1.242 0-1.857 1.06-1.857 2.42 0 1.376.632 2.466 1.857 2.466Zm4.734.803v-6.55h1.055V88h-1.055Zm.534-7.623c-.399 0-.733-.31-.733-.697 0-.387.334-.698.733-.698.404 0 .738.311.738.698 0 .386-.334.697-.738.697ZM289.855 88v-7.424c0-1.136.909-1.717 1.864-1.717.211 0 .398.018.551.047l-.159.955a1.215 1.215 0 0 0-.269-.023c-.651 0-.932.34-.932.973V88h-1.055Zm-1.277-5.648v-.903h5.192v.903h-5.192Zm4.84 5.648v-6.55h1.055V88h-1.055Zm.533-7.623c-.398 0-.732-.31-.732-.697 0-.387.334-.698.732-.698.404 0 .738.311.738.698 0 .386-.334.697-.738.697Zm5.127 7.764c-1.898 0-3.07-1.348-3.07-3.364 0-2.01 1.16-3.41 2.947-3.41 1.389 0 2.854.856 2.854 3.276v.439h-5.086v-.89h4.517l-.492.328c0-1.29-.609-2.215-1.793-2.215s-1.881.978-1.881 2.045v.591c0 1.46.809 2.262 2.01 2.262.773 0 1.354-.34 1.6-1.008l1.019.282c-.305.99-1.283 1.664-2.625 1.664ZM303.32 88v-6.55h1.02v1.007h.07c.24-.662.92-1.101 1.699-1.101.153 0 .411.011.534.017v1.06a4.003 4.003 0 0 0-.633-.058c-.944 0-1.635.639-1.635 1.523V88h-1.055Z" fill="#fff"/><rect x="345" width="400" height="112" rx="4" fill="#FBFAFD"/><rect x="361" y="16" width="368" height="28" rx="4" fill="#ECECEF"/><rect x="368.5" y="21.5" width="17" height="17" rx="2.5" fill="#E1D8F9" stroke="#fff"/><path d="M396.835 35.14c-.794 0-1.424-.22-1.89-.658-.467-.448-.7-1.031-.7-1.75 0-.476.107-.891.322-1.246.214-.355.513-.63.896-.826a2.738 2.738 0 0 1 1.316-.308h2.38v-.602c0-.504-.136-.877-.406-1.12-.271-.252-.682-.378-1.232-.378-.486 0-.878.089-1.176.266-.299.177-.458.425-.476.742h-1.26c.046-.607.326-1.106.84-1.498.522-.401 1.213-.602 2.072-.602.933 0 1.647.224 2.142.672.504.448.756 1.073.756 1.876V35h-1.246v-1.4h-.21l.196-.28c0 .373-.094.695-.28.966-.187.27-.453.48-.798.63-.346.15-.761.224-1.246.224Zm.308-1.064c.616 0 1.106-.15 1.47-.448.364-.299.546-.705.546-1.218v-1.078h-2.24c-.411 0-.747.126-1.008.378-.252.243-.378.57-.378.98 0 .43.14.77.42 1.022.289.243.686.364 1.19.364Zm7.932.924-2.618-7.7h1.358l1.68 5.18a22.128 22.128 0 0 1 .434 1.554c.047-.159.103-.378.168-.658.066-.29.145-.588.238-.896l1.68-5.18h1.33l-2.618 7.7h-1.652Zm8.549.14c-.794 0-1.424-.22-1.89-.658-.467-.448-.7-1.031-.7-1.75 0-.476.107-.891.322-1.246.214-.355.513-.63.896-.826a2.738 2.738 0 0 1 1.316-.308h2.38v-.602c0-.504-.136-.877-.406-1.12-.271-.252-.682-.378-1.232-.378-.486 0-.878.089-1.176.266-.299.177-.458.425-.476.742h-1.26c.046-.607.326-1.106.84-1.498.522-.401 1.213-.602 2.072-.602.933 0 1.647.224 2.142.672.504.448.756 1.073.756 1.876V35h-1.246v-1.4h-.21l.196-.28c0 .373-.094.695-.28.966-.187.27-.453.48-.798.63-.346.15-.761.224-1.246.224Zm.308-1.064c.616 0 1.106-.15 1.47-.448.364-.299.546-.705.546-1.218v-1.078h-2.24c-.411 0-.747.126-1.008.378-.252.243-.378.57-.378.98 0 .43.14.77.42 1.022.289.243.686.364 1.19.364Zm9.528.924c-.634 0-1.143-.182-1.526-.546-.382-.373-.574-.868-.574-1.484v-4.522h-2.212V27.3h2.212v-2.17h1.26v2.17h3.15v1.148h-3.15v4.522c0 .261.075.476.224.644a.834.834 0 0 0 .616.238h2.24V35h-2.24Zm6.953.14c-.794 0-1.424-.22-1.89-.658-.467-.448-.7-1.031-.7-1.75 0-.476.107-.891.322-1.246.214-.355.513-.63.896-.826a2.738 2.738 0 0 1 1.316-.308h2.38v-.602c0-.504-.136-.877-.406-1.12-.271-.252-.682-.378-1.232-.378-.486 0-.878.089-1.176.266-.299.177-.458.425-.476.742h-1.26c.046-.607.326-1.106.84-1.498.522-.401 1.213-.602 2.072-.602.933 0 1.647.224 2.142.672.504.448.756 1.073.756 1.876V35h-1.246v-1.4h-.21l.196-.28c0 .373-.094.695-.28.966-.187.27-.453.48-.798.63-.346.15-.761.224-1.246.224Zm.308-1.064c.616 0 1.106-.15 1.47-.448.364-.299.546-.705.546-1.218v-1.078h-2.24c-.411 0-.747.126-1.008.378-.252.243-.378.57-.378.98 0 .43.14.77.42 1.022.289.243.686.364 1.19.364Zm6.126.924v-7.7h1.26v1.47h.266l-.266.336c0-.597.182-1.069.546-1.414.374-.355.887-.532 1.54-.532.803 0 1.419.243 1.848.728.439.476.658 1.157.658 2.044v.658h-1.26v-.658c0-.57-.14-.99-.42-1.26-.28-.28-.686-.42-1.218-.42-.55 0-.97.159-1.26.476-.289.317-.434.775-.434 1.372V35h-1.26Zm11.027.14c-.346 0-.626-.103-.84-.308-.206-.205-.308-.471-.308-.798 0-.345.102-.625.308-.84.214-.215.494-.322.84-.322.345 0 .62.107.826.322.214.215.322.495.322.84 0 .327-.108.593-.322.798-.206.205-.481.308-.826.308Zm7.204-.14v-5.502h-2.24V28.35h2.24v-1.61c0-.607.192-1.083.574-1.428.383-.355.91-.532 1.582-.532h2.254v1.148h-2.254c-.289 0-.513.07-.672.21-.149.13-.224.331-.224.602v1.61h3.15v1.148h-3.15V35h-1.26Zm8.913.14c-.793 0-1.423-.22-1.89-.658-.467-.448-.7-1.031-.7-1.75 0-.476.107-.891.322-1.246a2.19 2.19 0 0 1 .896-.826 2.74 2.74 0 0 1 1.316-.308h2.38v-.602c0-.504-.135-.877-.406-1.12-.271-.252-.681-.378-1.232-.378-.485 0-.877.089-1.176.266-.299.177-.457.425-.476.742h-1.26c.047-.607.327-1.106.84-1.498.523-.401 1.213-.602 2.072-.602.933 0 1.647.224 2.142.672.504.448.756 1.073.756 1.876V35h-1.246v-1.4h-.21l.196-.28c0 .373-.093.695-.28.966-.187.27-.453.48-.798.63-.345.15-.761.224-1.246.224Zm.308-1.064c.616 0 1.106-.15 1.47-.448.364-.299.546-.705.546-1.218v-1.078h-2.24c-.411 0-.747.126-1.008.378-.252.243-.378.57-.378.98 0 .43.14.77.42 1.022.289.243.686.364 1.19.364Zm9.878.924c-.448 0-.84-.089-1.176-.266a1.914 1.914 0 0 1-.784-.756c-.186-.327-.28-.71-.28-1.148v-6.902h-2.66V24.78h3.92v8.05c0 .317.089.57.266.756.178.177.416.266.714.266h2.38V35h-2.38Zm8.395 0c-.448 0-.84-.089-1.176-.266a1.914 1.914 0 0 1-.784-.756c-.187-.327-.28-.71-.28-1.148v-6.902h-2.66V24.78h3.92v8.05c0 .317.089.57.266.756.177.177.415.266.714.266h2.38V35h-2.38Zm7.722.14c-.634 0-1.143-.168-1.526-.504-.382-.345-.574-.812-.574-1.4l.252.294h-.252V35h-1.26V24.78h1.26v2.24l-.028 1.75h.28l-.28.294c0-.579.196-1.04.588-1.386.402-.345.915-.518 1.54-.518.775 0 1.391.257 1.848.77.458.513.686 1.213.686 2.1v2.254c0 .877-.228 1.573-.686 2.086-.457.513-1.073.77-1.848.77Zm-.42-1.092c.532 0 .948-.14 1.246-.42.299-.28.448-.733.448-1.358v-2.24c0-.635-.149-1.087-.448-1.358-.298-.28-.714-.42-1.246-.42-.513 0-.924.163-1.232.49-.298.327-.448.78-.448 1.358v2.1c0 .579.15 1.031.448 1.358.308.327.719.49 1.232.49Zm7.695 1.092c-.793 0-1.423-.22-1.89-.658-.467-.448-.7-1.031-.7-1.75 0-.476.107-.891.322-1.246a2.19 2.19 0 0 1 .896-.826 2.74 2.74 0 0 1 1.316-.308h2.38v-.602c0-.504-.135-.877-.406-1.12-.271-.252-.681-.378-1.232-.378-.485 0-.877.089-1.176.266-.299.177-.457.425-.476.742h-1.26c.047-.607.327-1.106.84-1.498.523-.401 1.213-.602 2.072-.602.933 0 1.647.224 2.142.672.504.448.756 1.073.756 1.876V35h-1.246v-1.4h-.21l.196-.28c0 .373-.093.695-.28.966-.187.27-.453.48-.798.63-.345.15-.761.224-1.246.224Zm.308-1.064c.616 0 1.106-.15 1.47-.448.364-.299.546-.705.546-1.218v-1.078h-2.24c-.411 0-.747.126-1.008.378-.252.243-.378.57-.378.98 0 .43.14.77.42 1.022.289.243.686.364 1.19.364Zm8.871 1.064c-.616 0-1.158-.117-1.624-.35a2.605 2.605 0 0 1-1.078-1.008c-.252-.448-.378-.975-.378-1.582v-2.1c0-.616.126-1.143.378-1.582a2.6 2.6 0 0 1 1.078-1.008c.466-.233 1.008-.35 1.624-.35.886 0 1.6.238 2.142.714.55.476.84 1.125.868 1.946h-1.26c-.028-.495-.196-.873-.504-1.134-.308-.27-.724-.406-1.246-.406-.551 0-.994.159-1.33.476-.327.308-.49.751-.49 1.33V32.2c0 .579.163 1.027.49 1.344.336.317.779.476 1.33.476.522 0 .938-.135 1.246-.406.308-.27.476-.649.504-1.134h1.26c-.028.821-.318 1.47-.868 1.946-.542.476-1.256.714-2.142.714Zm5.44-.14V24.78h1.26v5.698h1.47l2.156-3.178h1.442l-2.478 3.668L518.656 35h-1.47l-2.24-3.43h-1.498V35h-1.26Zm11.237.14c-.346 0-.626-.103-.84-.308-.206-.205-.308-.471-.308-.798 0-.345.102-.625.308-.84.214-.215.494-.322.84-.322.345 0 .62.107.826.322.214.215.322.495.322.84 0 .327-.108.593-.322.798-.206.205-.481.308-.826.308Zm8.842 0c-.635 0-1.143-.168-1.526-.504-.383-.345-.574-.812-.574-1.4l.252.294h-.252V35h-1.26V24.78h1.26v2.24l-.028 1.75h.28l-.28.294c0-.579.196-1.04.588-1.386.401-.345.915-.518 1.54-.518.775 0 1.391.257 1.848.77.457.513.686 1.213.686 2.1v2.254c0 .877-.229 1.573-.686 2.086-.457.513-1.073.77-1.848.77Zm-.42-1.092c.532 0 .947-.14 1.246-.42.299-.28.448-.733.448-1.358v-2.24c0-.635-.149-1.087-.448-1.358-.299-.28-.714-.42-1.246-.42-.513 0-.924.163-1.232.49-.299.327-.448.78-.448 1.358v2.1c0 .579.149 1.031.448 1.358.308.327.719.49 1.232.49Zm7.695 1.092c-.794 0-1.424-.22-1.89-.658-.467-.448-.7-1.031-.7-1.75 0-.476.107-.891.322-1.246.214-.355.513-.63.896-.826a2.738 2.738 0 0 1 1.316-.308h2.38v-.602c0-.504-.136-.877-.406-1.12-.271-.252-.682-.378-1.232-.378-.486 0-.878.089-1.176.266-.299.177-.458.425-.476.742h-1.26c.046-.607.326-1.106.84-1.498.522-.401 1.213-.602 2.072-.602.933 0 1.647.224 2.142.672.504.448.756 1.073.756 1.876V35h-1.246v-1.4h-.21l.196-.28c0 .373-.094.695-.28.966-.187.27-.453.48-.798.63-.346.15-.761.224-1.246.224Zm.308-1.064c.616 0 1.106-.15 1.47-.448.364-.299.546-.705.546-1.218v-1.078h-2.24c-.411 0-.747.126-1.008.378-.252.243-.378.57-.378.98 0 .43.14.77.42 1.022.289.243.686.364 1.19.364Zm8.87 1.064c-.616 0-1.157-.117-1.624-.35a2.617 2.617 0 0 1-1.078-1.008c-.252-.448-.378-.975-.378-1.582v-2.1c0-.616.126-1.143.378-1.582a2.617 2.617 0 0 1 1.078-1.008c.467-.233 1.008-.35 1.624-.35.887 0 1.601.238 2.142.714.551.476.84 1.125.868 1.946h-1.26c-.028-.495-.196-.873-.504-1.134-.308-.27-.723-.406-1.246-.406-.55 0-.994.159-1.33.476-.326.308-.49.751-.49 1.33V32.2c0 .579.164 1.027.49 1.344.336.317.78.476 1.33.476.523 0 .938-.135 1.246-.406.308-.27.476-.649.504-1.134h1.26c-.028.821-.317 1.47-.868 1.946-.541.476-1.255.714-2.142.714Zm5.441-.14V24.78h1.26v5.698h1.47l2.156-3.178h1.442l-2.478 3.668L560.629 35h-1.47l-2.24-3.43h-1.498V35h-1.26Zm9.29 2.52v-1.148h2.17c.439 0 .784-.126 1.036-.378.252-.243.378-.574.378-.994v-.7l.028-1.26h-.252l.238-.35c0 .56-.186.999-.56 1.316-.373.308-.872.462-1.498.462-.793 0-1.418-.252-1.876-.756-.457-.504-.686-1.195-.686-2.072v-1.624c0-.877.229-1.573.686-2.086.458-.513 1.083-.77 1.876-.77.626 0 1.125.163 1.498.49.374.327.56.77.56 1.33l-.238-.35h.238V27.3h1.246V35c0 .775-.242 1.386-.728 1.834-.476.457-1.129.686-1.96.686h-2.156Zm1.918-4.102c.523 0 .934-.163 1.232-.49.299-.327.448-.78.448-1.358V30.1c0-.579-.149-1.031-.448-1.358-.298-.327-.709-.49-1.232-.49-.532 0-.947.154-1.246.462-.289.308-.434.723-.434 1.246v1.75c0 .523.145.938.434 1.246.299.308.714.462 1.246.462ZM571.16 35v-7.7h1.26v1.47h.266l-.266.336c0-.597.182-1.069.546-1.414.373-.355.886-.532 1.54-.532.802 0 1.418.243 1.848.728.438.476.658 1.157.658 2.044v.658h-1.26v-.658c0-.57-.14-.99-.42-1.26-.28-.28-.686-.42-1.218-.42-.551 0-.971.159-1.26.476-.29.317-.434.775-.434 1.372V35h-1.26Zm11.026.112c-.616 0-1.152-.121-1.61-.364a2.586 2.586 0 0 1-1.05-1.05c-.242-.467-.364-1.022-.364-1.666v-1.764c0-.653.122-1.209.364-1.666a2.586 2.586 0 0 1 1.05-1.05c.458-.243.994-.364 1.61-.364.626 0 1.162.121 1.61.364.448.243.794.593 1.036 1.05.252.457.378 1.013.378 1.666v1.764c0 .644-.126 1.2-.378 1.666a2.471 2.471 0 0 1-1.05 1.05c-.448.243-.98.364-1.596.364Zm0-1.12c.551 0 .98-.154 1.288-.462.318-.308.476-.76.476-1.358v-2.044c0-.597-.158-1.05-.476-1.358-.308-.308-.737-.462-1.288-.462-.541 0-.97.154-1.288.462-.317.308-.476.76-.476 1.358v2.044c0 .597.159 1.05.476 1.358.318.308.747.462 1.288.462Zm8.381 1.148c-.887 0-1.596-.261-2.128-.784-.532-.532-.798-1.25-.798-2.156v-4.9h1.26v4.9c0 .56.149 1.008.448 1.344.299.327.705.49 1.218.49.523 0 .933-.163 1.232-.49.308-.336.462-.784.462-1.344v-4.9h1.26v4.9c0 .905-.271 1.624-.812 2.156-.541.523-1.255.784-2.142.784Zm5.496-.14v-7.7h1.26v1.47h.266l-.266.294c0-.607.182-1.073.546-1.4.364-.336.868-.504 1.512-.504.775 0 1.391.238 1.848.714.458.476.686 1.125.686 1.946V35h-1.26v-4.956c0-.588-.149-1.036-.448-1.344-.289-.317-.686-.476-1.19-.476-.522 0-.938.163-1.246.49-.298.327-.448.789-.448 1.386V35h-1.26Zm10.859.14c-.765 0-1.381-.257-1.848-.77-.457-.513-.686-1.209-.686-2.086V30.03c0-.887.229-1.587.686-2.1.457-.513 1.073-.77 1.848-.77.635 0 1.148.173 1.54.518.392.345.588.807.588 1.386l-.28-.294h.28l-.028-1.75v-2.24h1.26V35h-1.26v-1.47h-.252l.252-.294c0 .588-.191 1.055-.574 1.4-.383.336-.891.504-1.526.504Zm.42-1.092c.523 0 .933-.163 1.232-.49.299-.327.448-.78.448-1.358v-2.1c0-.579-.149-1.031-.448-1.358-.299-.327-.709-.49-1.232-.49-.532 0-.947.14-1.246.42-.299.27-.448.723-.448 1.358v2.24c0 .625.149 1.078.448 1.358.299.28.714.42 1.246.42Zm8.422 1.092c-.345 0-.625-.103-.84-.308-.205-.205-.308-.471-.308-.798 0-.345.103-.625.308-.84.215-.215.495-.322.84-.322.346 0 .621.107.826.322.215.215.322.495.322.84 0 .327-.107.593-.322.798-.205.205-.48.308-.826.308Zm8.507 0c-.616 0-1.157-.117-1.624-.35a2.61 2.61 0 0 1-1.078-1.008c-.252-.448-.378-.975-.378-1.582v-2.1c0-.616.126-1.143.378-1.582a2.61 2.61 0 0 1 1.078-1.008c.467-.233 1.008-.35 1.624-.35.887 0 1.601.238 2.142.714.551.476.84 1.125.868 1.946h-1.26c-.028-.495-.196-.873-.504-1.134-.308-.27-.723-.406-1.246-.406-.551 0-.994.159-1.33.476-.327.308-.49.751-.49 1.33V32.2c0 .579.163 1.027.49 1.344.336.317.779.476 1.33.476.523 0 .938-.135 1.246-.406.308-.27.476-.649.504-1.134h1.26c-.028.821-.317 1.47-.868 1.946-.541.476-1.255.714-2.142.714Zm8.283-.028c-.616 0-1.153-.121-1.61-.364a2.586 2.586 0 0 1-1.05-1.05c-.243-.467-.364-1.022-.364-1.666v-1.764c0-.653.121-1.209.364-1.666a2.586 2.586 0 0 1 1.05-1.05c.457-.243.994-.364 1.61-.364.625 0 1.162.121 1.61.364a2.5 2.5 0 0 1 1.036 1.05c.252.457.378 1.013.378 1.666v1.764c0 .644-.126 1.2-.378 1.666a2.482 2.482 0 0 1-1.05 1.05c-.448.243-.98.364-1.596.364Zm0-1.12c.55 0 .98-.154 1.288-.462.317-.308.476-.76.476-1.358v-2.044c0-.597-.159-1.05-.476-1.358-.308-.308-.738-.462-1.288-.462-.542 0-.971.154-1.288.462-.318.308-.476.76-.476 1.358v2.044c0 .597.158 1.05.476 1.358.317.308.746.462 1.288.462ZM642.068 35c-.448 0-.84-.089-1.176-.266a1.914 1.914 0 0 1-.784-.756c-.187-.327-.28-.71-.28-1.148v-6.902h-2.66V24.78h3.92v8.05c0 .317.089.57.266.756.177.177.415.266.714.266h2.38V35h-2.38Zm7.275.112c-.616 0-1.153-.121-1.61-.364a2.586 2.586 0 0 1-1.05-1.05c-.243-.467-.364-1.022-.364-1.666v-1.764c0-.653.121-1.209.364-1.666a2.586 2.586 0 0 1 1.05-1.05c.457-.243.994-.364 1.61-.364.625 0 1.162.121 1.61.364a2.5 2.5 0 0 1 1.036 1.05c.252.457.378 1.013.378 1.666v1.764c0 .644-.126 1.2-.378 1.666a2.482 2.482 0 0 1-1.05 1.05c-.448.243-.98.364-1.596.364Zm0-1.12c.55 0 .98-.154 1.288-.462.317-.308.476-.76.476-1.358v-2.044c0-.597-.159-1.05-.476-1.358-.308-.308-.738-.462-1.288-.462-.542 0-.971.154-1.288.462-.318.308-.476.76-.476 1.358v2.044c0 .597.158 1.05.476 1.358.317.308.746.462 1.288.462ZM655.105 35v-7.7h1.26v1.47h.266l-.266.336c0-.597.182-1.069.546-1.414.373-.355.887-.532 1.54-.532.803 0 1.419.243 1.848.728.439.476.658 1.157.658 2.044v.658h-1.26v-.658c0-.57-.14-.99-.42-1.26-.28-.28-.686-.42-1.218-.42-.551 0-.971.159-1.26.476-.289.317-.434.775-.434 1.372V35h-1.26Zm11.027.14c-.346 0-.626-.103-.84-.308-.206-.205-.308-.471-.308-.798 0-.345.102-.625.308-.84.214-.215.494-.322.84-.322.345 0 .62.107.826.322.214.215.322.495.322.84 0 .327-.108.593-.322.798-.206.205-.481.308-.826.308Zm5.482 2.38V27.3h1.26v1.47h.252l-.252.294c0-.588.192-1.05.574-1.386.383-.345.892-.518 1.526-.518.514 0 .957.117 1.33.35.383.224.677.55.882.98.215.43.322.938.322 1.526v2.254c0 .588-.102 1.097-.308 1.526-.205.43-.499.76-.882.994-.373.233-.821.35-1.344.35-.625 0-1.134-.173-1.526-.518-.382-.345-.574-.807-.574-1.386l.252.294h-.28l.028 1.75v2.24h-1.26Zm2.94-3.472c.532 0 .948-.14 1.246-.42.299-.28.448-.733.448-1.358v-2.24c0-.635-.149-1.087-.448-1.358-.298-.28-.714-.42-1.246-.42-.513 0-.924.163-1.232.49-.298.327-.448.78-.448 1.358v2.1c0 .579.15 1.031.448 1.358.308.327.719.49 1.232.49Zm8.353 1.092c-.887 0-1.596-.261-2.128-.784-.532-.532-.798-1.25-.798-2.156v-4.9h1.26v4.9c0 .56.149 1.008.448 1.344.298.327.704.49 1.218.49.522 0 .933-.163 1.232-.49.308-.336.462-.784.462-1.344v-4.9h1.26v4.9c0 .905-.271 1.624-.812 2.156-.542.523-1.256.784-2.142.784Zm5.776-.14v-7.7h1.26v1.47h.266l-.266.336c0-.597.182-1.069.546-1.414.374-.355.887-.532 1.54-.532.803 0 1.419.243 1.848.728.439.476.658 1.157.658 2.044v.658h-1.26v-.658c0-.57-.14-.99-.42-1.26-.28-.28-.686-.42-1.218-.42-.55 0-.97.159-1.26.476-.289.317-.434.775-.434 1.372V35h-1.26Zm8.115 2.52V27.3h1.26v1.47h.252l-.252.294c0-.588.191-1.05.574-1.386.382-.345.891-.518 1.526-.518.513 0 .956.117 1.33.35.382.224.676.55.882.98.214.43.322.938.322 1.526v2.254c0 .588-.103 1.097-.308 1.526-.206.43-.5.76-.882.994-.374.233-.822.35-1.344.35-.626 0-1.134-.173-1.526-.518-.383-.345-.574-.807-.574-1.386l.252.294h-.28l.028 1.75v2.24h-1.26Zm2.94-3.472c.532 0 .947-.14 1.246-.42.298-.28.448-.733.448-1.358v-2.24c0-.635-.15-1.087-.448-1.358-.299-.28-.714-.42-1.246-.42-.514 0-.924.163-1.232.49-.299.327-.448.78-.448 1.358v2.1c0 .579.149 1.031.448 1.358.308.327.718.49 1.232.49Zm9.486.952c-.448 0-.84-.089-1.176-.266a1.914 1.914 0 0 1-.784-.756c-.186-.327-.28-.71-.28-1.148v-6.902h-2.66V24.78h3.92v8.05c0 .317.089.57.266.756.178.177.416.266.714.266h2.38V35h-2.38Zm7.275.14c-.607 0-1.139-.121-1.596-.364a2.679 2.679 0 0 1-1.05-1.064c-.252-.467-.378-1.017-.378-1.652v-1.82c0-.644.126-1.195.378-1.652a2.586 2.586 0 0 1 1.05-1.05c.457-.252.989-.378 1.596-.378.606 0 1.134.121 1.582.364.457.243.812.583 1.064 1.022.252.439.378.957.378 1.554v1.372h-4.816v.728c0 .57.163 1.022.49 1.358.326.327.76.49 1.302.49.466 0 .849-.089 1.148-.266.308-.187.494-.434.56-.742h1.26c-.084.644-.397 1.157-.938 1.54-.542.373-1.218.56-2.03.56Zm1.792-4.522V30.1c0-.607-.159-1.073-.476-1.4-.308-.336-.747-.504-1.316-.504-.57 0-1.013.168-1.33.504-.308.327-.462.793-.462 1.4v.392h3.682l-.098.126Z" fill="#333238"/><path stroke="#7B58CF" stroke-width="2" stroke-linecap="round" d="M394 63h124m-124 0V49m124 14V49"/><rect x="426.5" y="72" width="59" height="24" rx="12" fill="#7B58CF"/><path d="M438.092 88.14c-1.781 0-2.983-1.353-2.983-3.374 0-2.051 1.202-3.399 2.983-3.399 1.265 0 2.297.668 2.654 1.81l-1.014.288c-.193-.674-.779-1.154-1.64-1.154-1.307 0-1.91 1.148-1.91 2.455 0 1.289.603 2.431 1.91 2.431.879 0 1.476-.498 1.67-1.207l1.008.287c-.352 1.166-1.395 1.864-2.678 1.864Zm6.855 0c-1.781 0-2.982-1.353-2.982-3.374 0-2.051 1.201-3.399 2.982-3.399 1.787 0 2.994 1.348 2.994 3.399 0 2.021-1.207 3.375-2.994 3.375Zm0-.943c1.324 0 1.928-1.142 1.928-2.431 0-1.301-.604-2.456-1.928-2.456-1.306 0-1.91 1.149-1.91 2.456 0 1.289.604 2.431 1.91 2.431Zm5.584-3.123V88h-1.054v-6.55h1.013l.006 1.587h-.146c.398-1.207 1.16-1.67 2.15-1.67 1.324 0 2.221.815 2.221 2.473V88h-1.061v-4.072c0-1.008-.562-1.612-1.476-1.612-.944 0-1.653.64-1.653 1.758Zm8.625-2.625v.903h-3.386v-.903h3.386Zm-2.402-1.558h1.055v6.41c0 .586.216.843.773.843.135 0 .363-.035.539-.07l.217.89a2.54 2.54 0 0 1-.785.118c-1.131 0-1.799-.627-1.799-1.7v-6.491Zm6.387 8.25c-1.899 0-3.071-1.348-3.071-3.364 0-2.01 1.16-3.41 2.948-3.41 1.388 0 2.853.856 2.853 3.276v.439h-5.086v-.89h4.518l-.492.328c0-1.29-.61-2.215-1.793-2.215-1.184 0-1.881.978-1.881 2.045v.591c0 1.46.808 2.262 2.009 2.262.774 0 1.354-.34 1.6-1.008l1.02.282c-.305.99-1.284 1.664-2.625 1.664Zm3.427-.141 2.584-3.768-.006.809-2.443-3.592h1.231l.814 1.272c.422.656.697 1.218 1.025 1.746h-.55c.334-.528.562-1.09.99-1.746l.832-1.272h1.207l-2.455 3.639v-.78l2.56 3.692h-1.224l-.961-1.47c-.416-.64-.68-1.178-1.002-1.688h.557c-.323.51-.545 1.049-.967 1.687L467.787 88h-1.219Zm9.909-6.55v.902h-3.387v-.903h3.387Zm-2.403-1.56h1.055v6.41c0 .587.217.844.773.844.135 0 .364-.035.539-.07l.217.89a2.536 2.536 0 0 1-.785.118c-1.131 0-1.799-.627-1.799-1.7v-6.491Z" fill="#fff"/><path stroke="#7B58CF" stroke-width="2" stroke-linecap="round" d="M528 63h83m-83 0V49m83 14V49"/><rect x="543.5" y="72" width="52" height="24" rx="12" fill="#7B58CF"/><path d="M555.092 88.14c-1.781 0-2.983-1.353-2.983-3.374 0-2.051 1.202-3.399 2.983-3.399 1.787 0 2.994 1.348 2.994 3.399 0 2.021-1.207 3.375-2.994 3.375Zm0-.943c1.324 0 1.928-1.142 1.928-2.431 0-1.301-.604-2.456-1.928-2.456-1.307 0-1.91 1.149-1.91 2.456 0 1.289.603 2.431 1.91 2.431Zm7.57.944c-1.248 0-1.687-.791-1.904-1.155h-.117V88h-1.02v-8.73h1.055v3.228h.082c.217-.346.621-1.13 1.898-1.13 1.635 0 2.778 1.3 2.778 3.374 0 2.086-1.137 3.399-2.772 3.399Zm-.158-.944c1.225 0 1.857-1.09 1.857-2.466 0-1.36-.615-2.42-1.857-2.42-1.207 0-1.84.972-1.84 2.42 0 1.459.65 2.466 1.84 2.466Zm4.459-5.748h1.06v7.02c.006 1.248-.65 1.98-1.921 1.98h-.211v-.972h.193c.609 0 .879-.358.879-1.008v-7.02Zm.533-1.072c-.398 0-.732-.31-.732-.697 0-.387.334-.698.732-.698.404 0 .738.311.738.698 0 .386-.334.697-.738.697Zm5.133 7.764c-1.899 0-3.07-1.348-3.07-3.364 0-2.01 1.16-3.41 2.947-3.41 1.389 0 2.853.856 2.853 3.276v.439h-5.086v-.89h4.518l-.492.328c0-1.29-.61-2.215-1.793-2.215-1.184 0-1.881.978-1.881 2.045v.591c0 1.46.809 2.262 2.01 2.262.773 0 1.353-.34 1.599-1.008l1.02.282c-.305.99-1.283 1.664-2.625 1.664Zm6.908 0c-1.781 0-2.982-1.354-2.982-3.375 0-2.051 1.201-3.399 2.982-3.399 1.266 0 2.297.668 2.654 1.81l-1.013.288c-.194-.674-.78-1.154-1.641-1.154-1.307 0-1.91 1.148-1.91 2.455 0 1.289.603 2.431 1.91 2.431.879 0 1.477-.498 1.67-1.207l1.008.287c-.352 1.166-1.395 1.864-2.678 1.864Zm6.768-6.692v.903h-3.387v-.903h3.387Zm-2.403-1.558h1.055v6.41c0 .586.217.843.773.843.135 0 .364-.035.54-.07l.216.89a2.531 2.531 0 0 1-.785.118c-1.131 0-1.799-.627-1.799-1.7v-6.491Z" fill="#fff"/><path stroke="#7B58CF" stroke-width="2" stroke-linecap="round" d="M621 63h107m-107 0V49m107 14V49"/><rect x="643" y="72" width="63" height="24" rx="12" fill="#7B58CF"/><path d="M651.926 88v-6.55h1.025l.006 1.464h-.082c.264-1.06 1.066-1.582 1.916-1.582.949 0 1.553.645 1.729 1.594h-.141c.234-.979 1.101-1.594 2.144-1.594 1.137 0 2.063.733 2.063 2.25V88h-1.061v-4.389c0-.943-.615-1.318-1.318-1.318-.885 0-1.424.603-1.424 1.43V88h-1.054v-4.494c0-.727-.545-1.213-1.284-1.213-.767 0-1.465.539-1.465 1.582V88h-1.054Zm13.178.14c-1.782 0-2.983-1.353-2.983-3.374 0-2.051 1.201-3.399 2.983-3.399 1.787 0 2.994 1.348 2.994 3.399 0 2.021-1.207 3.375-2.994 3.375Zm0-.943c1.324 0 1.927-1.142 1.927-2.431 0-1.301-.603-2.456-1.927-2.456-1.307 0-1.911 1.149-1.911 2.456 0 1.289.604 2.431 1.911 2.431Zm6.984.944c-1.635 0-2.772-1.313-2.772-3.399 0-2.074 1.143-3.375 2.778-3.375 1.277 0 1.681.785 1.898 1.131h.082v-3.229h1.055V88h-1.02v-1.014h-.117c-.217.364-.656 1.155-1.904 1.155Zm.158-.944c1.19 0 1.84-1.008 1.84-2.466 0-1.448-.633-2.42-1.84-2.42-1.242 0-1.857 1.06-1.857 2.42 0 1.376.632 2.466 1.857 2.466Zm4.734.803v-6.55h1.055V88h-1.055Zm.534-7.623c-.399 0-.733-.31-.733-.697 0-.387.334-.698.733-.698.404 0 .738.311.738.698 0 .386-.334.697-.738.697ZM680.355 88v-7.424c0-1.136.909-1.717 1.864-1.717.211 0 .398.018.551.047l-.159.955a1.215 1.215 0 0 0-.269-.023c-.651 0-.932.34-.932.973V88h-1.055Zm-1.277-5.648v-.903h5.192v.903h-5.192Zm4.84 5.648v-6.55h1.055V88h-1.055Zm.533-7.623c-.398 0-.732-.31-.732-.697 0-.387.334-.698.732-.698.404 0 .738.311.738.698 0 .386-.334.697-.738.697Zm5.127 7.764c-1.898 0-3.07-1.348-3.07-3.364 0-2.01 1.16-3.41 2.947-3.41 1.389 0 2.854.856 2.854 3.276v.439h-5.086v-.89h4.517l-.492.328c0-1.29-.609-2.215-1.793-2.215s-1.881.978-1.881 2.045v.591c0 1.46.809 2.262 2.01 2.262.773 0 1.354-.34 1.6-1.008l1.019.282c-.305.99-1.283 1.664-2.625 1.664ZM693.82 88v-6.55h1.02v1.007h.07c.24-.662.92-1.101 1.699-1.101.153 0 .411.011.534.017v1.06a4.003 4.003 0 0 0-.633-.058c-.944 0-1.635.639-1.635 1.523V88h-1.055Z" fill="#fff"/></svg>