<svg width="251" height="108" viewBox="0 0 251 108" fill="none" xmlns="http://www.w3.org/2000/svg"><rect width="251" height="108" rx="4" fill="#FBFAFD"/><rect x="64" y="68" width="48" height="24" rx="12" fill="#7B58CF"/><path d="M73.98 80.074V84h-1.054v-6.55h1.013l.006 1.587H73.8c.398-1.207 1.16-1.67 2.15-1.67 1.324 0 2.22.815 2.22 2.473V84h-1.06v-4.072c0-1.008-.562-1.612-1.476-1.612-.944 0-1.652.64-1.652 1.758Zm7.881 4.078c-1.242 0-2.232-.726-2.232-2.015 0-1.5 1.336-1.776 2.549-1.928 1.166-.147 1.681-.111 1.681-.598v-.035c0-.814-.462-1.283-1.37-1.283-.944 0-1.454.504-1.659.96l-1.014-.333c.504-1.19 1.63-1.553 2.643-1.553.879 0 2.455.27 2.455 2.315V84h-1.037v-.89h-.07c-.223.462-.838 1.042-1.946 1.042Zm.182-.931c1.166 0 1.816-.785 1.816-1.588v-.908c-.175.205-1.324.322-1.728.375-.768.1-1.442.345-1.442 1.09 0 .68.569 1.03 1.354 1.03Zm4.723.779v-6.55h1.025l.006 1.464h-.082c.263-1.06 1.066-1.582 1.916-1.582.95 0 1.553.645 1.728 1.594h-.14c.234-.979 1.101-1.594 2.144-1.594 1.137 0 2.063.733 2.063 2.25V84h-1.06v-4.389c0-.943-.616-1.318-1.32-1.318-.884 0-1.423.603-1.423 1.43V84h-1.055v-4.494c0-.727-.545-1.213-1.283-1.213-.767 0-1.465.539-1.465 1.582V84h-1.054Zm13.265.14c-1.898 0-3.07-1.347-3.07-3.363 0-2.01 1.16-3.41 2.947-3.41 1.389 0 2.854.856 2.854 3.276v.439h-5.086v-.89h4.517l-.492.328c0-1.29-.609-2.215-1.793-2.215-1.183 0-1.88.978-1.88 2.045v.591c0 1.46.808 2.262 2.009 2.262.774 0 1.354-.34 1.6-1.008l1.019.282c-.304.99-1.283 1.664-2.625 1.664Z" fill="#fff"/><rect x="182" y="68" width="47" height="24" rx="12" fill="#7B58CF"/><path d="m192.818 84-2.502-6.55h1.155l1.394 3.884c.293.809.475 1.617.703 2.367h-.386c.228-.75.404-1.558.697-2.367l1.394-3.885h1.155L193.926 84h-1.108Zm6.633.152c-1.242 0-2.232-.726-2.232-2.015 0-1.5 1.336-1.776 2.549-1.928 1.166-.147 1.681-.111 1.681-.598v-.035c0-.814-.463-1.283-1.371-1.283-.943 0-1.453.504-1.658.96l-1.014-.333c.504-1.19 1.629-1.553 2.643-1.553.879 0 2.455.27 2.455 2.315V84h-1.037v-.89h-.071c-.222.462-.837 1.042-1.945 1.042Zm.182-.931c1.166 0 1.816-.785 1.816-1.588v-.908c-.176.205-1.324.322-1.728.375-.768.1-1.442.345-1.442 1.09 0 .68.569 1.03 1.354 1.03Zm6.193.826c-.984 0-1.471-.55-1.471-1.5v-7.278h1.055v7.014c0 .604.106.82.545.82.229 0 .322-.017.422-.046l.211.89c-.188.053-.481.1-.762.1Zm4.055.035c-1.324 0-2.221-.814-2.221-2.473v-4.16h1.055v4.073c0 1.007.568 1.61 1.482 1.61.938 0 1.647-.638 1.647-1.757v-3.926h1.06V84h-1.019v-1.588h.14c-.404 1.23-1.183 1.67-2.144 1.67Zm7.635.059c-1.899 0-3.071-1.348-3.071-3.364 0-2.01 1.16-3.41 2.948-3.41 1.388 0 2.853.856 2.853 3.276v.439h-5.086v-.89h4.518l-.492.328c0-1.29-.61-2.215-1.793-2.215-1.184 0-1.881.978-1.881 2.045v.591c0 1.46.808 2.262 2.009 2.262.774 0 1.354-.34 1.6-1.008l1.02.282c-.305.99-1.284 1.664-2.625 1.664Z" fill="#fff"/><path stroke="#7B58CF" stroke-width="2" stroke-linecap="round" d="M18 59h139M18 59V45m139 14V45m19 14h58m-58 0V45m58 14V45"/><path d="M20.201 31.14c-.765 0-1.381-.257-1.848-.77-.457-.513-.686-1.209-.686-2.086V26.03c0-.887.229-1.587.686-2.1.458-.513 1.074-.77 1.848-.77.635 0 1.148.173 1.54.518.392.345.588.807.588 1.386l-.28-.294h.28l-.028-1.75v-2.24h1.26V31h-1.26v-1.47h-.252l.252-.294c0 .588-.191 1.055-.574 1.4-.382.336-.891.504-1.526.504Zm.42-1.092c.523 0 .934-.163 1.232-.49.299-.327.448-.78.448-1.358v-2.1c0-.579-.15-1.031-.448-1.358-.298-.327-.71-.49-1.232-.49-.532 0-.947.14-1.246.42-.298.27-.448.723-.448 1.358v2.24c0 .625.15 1.078.448 1.358.299.28.714.42 1.246.42Zm8.423 1.092c-.607 0-1.139-.121-1.596-.364a2.679 2.679 0 0 1-1.05-1.064c-.252-.467-.378-1.017-.378-1.652v-1.82c0-.644.126-1.195.378-1.652a2.586 2.586 0 0 1 1.05-1.05c.457-.252.99-.378 1.596-.378.606 0 1.134.121 1.582.364.457.243.812.583 1.064 1.022.252.439.378.957.378 1.554v1.372h-4.816v.728c0 .57.163 1.022.49 1.358.326.327.76.49 1.302.49.466 0 .85-.089 1.148-.266.308-.187.494-.434.56-.742h1.26c-.084.644-.397 1.157-.938 1.54-.542.373-1.218.56-2.03.56Zm1.792-4.522V26.1c0-.607-.159-1.073-.476-1.4-.308-.336-.747-.504-1.316-.504-.57 0-1.013.168-1.33.504-.308.327-.462.793-.462 1.4v.392h3.682l-.098.126Zm6.294 4.494c-.57 0-1.06-.084-1.47-.252a2.073 2.073 0 0 1-.924-.756c-.205-.336-.308-.742-.308-1.218h1.26c0 .355.126.635.378.84.252.196.607.294 1.064.294h.616c.467 0 .826-.103 1.078-.308.262-.205.392-.495.392-.868 0-.336-.074-.597-.224-.784-.15-.187-.378-.299-.686-.336l-2.128-.308c-.522-.075-.928-.29-1.218-.644-.29-.364-.434-.84-.434-1.428 0-.672.229-1.2.686-1.582.467-.383 1.106-.574 1.918-.574h.616c.747 0 1.354.187 1.82.56.476.364.733.845.77 1.442h-1.274c-.018-.27-.15-.495-.392-.672-.233-.177-.541-.266-.924-.266h-.616c-.43 0-.765.098-1.008.294-.242.196-.364.462-.364.798 0 .261.06.471.182.63.13.159.318.257.56.294l1.988.28c.654.093 1.144.331 1.47.714.327.383.49.91.49 1.582 0 .719-.238 1.279-.714 1.68-.466.392-1.13.588-1.988.588h-.616ZM42.823 31v-1.148h2.73v-5.404h-2.45V23.3h3.71v6.552h2.59V31h-6.58Zm3.22-9.086c-.308 0-.55-.08-.728-.238-.177-.159-.266-.373-.266-.644 0-.28.089-.5.266-.658.177-.168.42-.252.728-.252s.55.084.728.252c.177.159.266.378.266.658 0 .27-.089.485-.266.644-.178.159-.42.238-.728.238ZM52.28 33.52v-1.148h2.17c.439 0 .784-.126 1.036-.378.252-.243.378-.574.378-.994v-.7l.028-1.26h-.252l.238-.35c0 .56-.186.999-.56 1.316-.373.308-.872.462-1.498.462-.793 0-1.418-.252-1.876-.756-.457-.504-.686-1.195-.686-2.072v-1.624c0-.877.229-1.573.686-2.086.458-.513 1.083-.77 1.876-.77.626 0 1.125.163 1.498.49.374.327.56.77.56 1.33l-.238-.35h.238V23.3h1.246V31c0 .775-.242 1.386-.728 1.834-.476.457-1.129.686-1.96.686H52.28Zm1.918-4.102c.523 0 .934-.163 1.232-.49.299-.327.448-.78.448-1.358V26.1c0-.579-.149-1.031-.448-1.358-.298-.327-.709-.49-1.232-.49-.532 0-.947.154-1.246.462-.289.308-.434.723-.434 1.246v1.75c0 .523.145.938.434 1.246.299.308.714.462 1.246.462ZM59.71 31v-7.7h1.26v1.47h.267l-.266.294c0-.607.182-1.073.546-1.4.364-.336.868-.504 1.512-.504.775 0 1.39.238 1.848.714.457.476.686 1.125.686 1.946V31h-1.26v-4.956c0-.588-.15-1.036-.448-1.344-.29-.317-.686-.476-1.19-.476-.523 0-.938.163-1.246.49-.299.327-.448.789-.448 1.386V31h-1.26Zm11.307.14c-.345 0-.625-.103-.84-.308-.205-.205-.308-.471-.308-.798 0-.345.103-.625.308-.84.215-.215.495-.322.84-.322.346 0 .621.107.826.322.215.215.322.495.322.84 0 .327-.107.593-.322.798-.205.205-.48.308-.826.308Zm9.165-.14c-.635 0-1.143-.182-1.526-.546-.383-.373-.574-.868-.574-1.484v-4.522H75.87V23.3h2.212v-2.17h1.26v2.17h3.15v1.148h-3.15v4.522c0 .261.075.476.224.644a.833.833 0 0 0 .616.238h2.24V31h-2.24Zm7.624.112c-.616 0-1.152-.121-1.61-.364a2.586 2.586 0 0 1-1.05-1.05c-.242-.467-.364-1.022-.364-1.666v-1.764c0-.653.122-1.209.364-1.666a2.586 2.586 0 0 1 1.05-1.05c.458-.243.995-.364 1.61-.364.626 0 1.162.121 1.61.364.448.243.794.593 1.036 1.05.253.457.379 1.013.379 1.666v1.764c0 .644-.126 1.2-.379 1.666a2.479 2.479 0 0 1-1.05 1.05c-.447.243-.98.364-1.596.364Zm0-1.12c.551 0 .98-.154 1.288-.462.318-.308.477-.76.477-1.358v-2.044c0-.597-.16-1.05-.476-1.358-.308-.308-.738-.462-1.288-.462-.542 0-.971.154-1.288.462-.318.308-.477.76-.477 1.358v2.044c0 .597.16 1.05.477 1.358.317.308.746.462 1.287.462ZM93.358 31V20.78h1.26v5.698h1.47l2.156-3.178h1.442l-2.478 3.668L99.826 31h-1.47l-2.24-3.43h-1.498V31h-1.26Zm11.237.14c-.607 0-1.139-.121-1.596-.364a2.679 2.679 0 0 1-1.05-1.064c-.252-.467-.378-1.017-.378-1.652v-1.82c0-.644.126-1.195.378-1.652a2.586 2.586 0 0 1 1.05-1.05c.457-.252.989-.378 1.596-.378.606 0 1.134.121 1.582.364.457.243.812.583 1.064 1.022.252.439.378.957.378 1.554v1.372h-4.816v.728c0 .57.163 1.022.49 1.358.326.327.76.49 1.302.49.466 0 .849-.089 1.148-.266.308-.187.494-.434.56-.742h1.26c-.084.644-.397 1.157-.938 1.54-.542.373-1.218.56-2.03.56Zm1.792-4.522V26.1c0-.607-.159-1.073-.476-1.4-.308-.336-.747-.504-1.316-.504-.57 0-1.013.168-1.33.504-.308.327-.462.793-.462 1.4v.392h3.682l-.098.126Zm3.69 4.382v-7.7h1.26v1.47h.266l-.266.294c0-.607.182-1.073.546-1.4.364-.336.868-.504 1.512-.504.775 0 1.391.238 1.848.714.457.476.686 1.125.686 1.946V31h-1.26v-4.956c0-.588-.149-1.036-.448-1.344-.289-.317-.686-.476-1.19-.476-.523 0-.938.163-1.246.49-.299.327-.448.789-.448 1.386V31h-1.26Zm11.307.14c-.346 0-.626-.103-.84-.308-.206-.205-.308-.471-.308-.798 0-.345.102-.625.308-.84.214-.215.494-.322.84-.322.345 0 .62.107.826.322.214.215.322.495.322.84 0 .327-.108.593-.322.798-.206.205-.481.308-.826.308Zm5.482-.14v-7.7h1.26v1.47h.266l-.266.294c0-.607.182-1.073.546-1.4.364-.336.868-.504 1.512-.504.775 0 1.391.238 1.848.714.457.476.686 1.125.686 1.946V31h-1.26v-4.956c0-.588-.149-1.036-.448-1.344-.289-.317-.686-.476-1.19-.476-.523 0-.938.163-1.246.49-.299.327-.448.789-.448 1.386V31h-1.26Zm10.635.14c-.794 0-1.424-.22-1.89-.658-.467-.448-.7-1.031-.7-1.75 0-.476.107-.891.322-1.246.214-.355.513-.63.896-.826a2.738 2.738 0 0 1 1.316-.308h2.38v-.602c0-.504-.136-.877-.406-1.12-.271-.252-.682-.378-1.232-.378-.486 0-.878.089-1.176.266-.299.177-.458.425-.476.742h-1.26c.046-.607.326-1.106.84-1.498.522-.401 1.213-.602 2.072-.602.933 0 1.647.224 2.142.672.504.448.756 1.073.756 1.876V31h-1.246v-1.4h-.21l.196-.28c0 .373-.094.695-.28.966-.187.27-.453.48-.798.63-.346.15-.761.224-1.246.224Zm.308-1.064c.616 0 1.106-.15 1.47-.448.364-.299.546-.705.546-1.218v-1.078h-2.24c-.411 0-.747.126-1.008.378-.252.243-.378.57-.378.98 0 .43.14.77.42 1.022.289.243.686.364 1.19.364Zm5.398.924v-7.7h1.092v1.022h.28l-.266.238c0-.41.117-.747.35-1.008.243-.261.56-.392.952-.392.448 0 .803.168 1.064.504.262.336.392.775.392 1.316l-.378-.728h.588l-.322.308c.01-.43.136-.77.378-1.022.243-.252.565-.378.966-.378.495 0 .887.187 1.176.56.299.364.448.84.448 1.428V31h-1.176v-5.866c0-.308-.074-.55-.224-.728a.744.744 0 0 0-.616-.28.748.748 0 0 0-.602.266c-.149.177-.224.42-.224.728V31h-1.036v-5.866c0-.308-.074-.55-.224-.728a.73.73 0 0 0-.602-.28c-.261 0-.466.089-.616.266-.149.177-.224.42-.224.728V31h-1.176Zm11.755.14c-.607 0-1.139-.121-1.596-.364a2.679 2.679 0 0 1-1.05-1.064c-.252-.467-.378-1.017-.378-1.652v-1.82c0-.644.126-1.195.378-1.652a2.586 2.586 0 0 1 1.05-1.05c.457-.252.989-.378 1.596-.378.606 0 1.134.121 1.582.364.457.243.812.583 1.064 1.022.252.439.378.957.378 1.554v1.372h-4.816v.728c0 .57.163 1.022.49 1.358.326.327.76.49 1.302.49.466 0 .849-.089 1.148-.266.308-.187.494-.434.56-.742h1.26c-.084.644-.397 1.157-.938 1.54-.542.373-1.218.56-2.03.56Zm1.792-4.522V26.1c0-.607-.159-1.073-.476-1.4-.308-.336-.747-.504-1.316-.504-.57 0-1.013.168-1.33.504-.308.327-.462.793-.462 1.4v.392h3.682l-.098.126Zm6.602-1.386c-.382 0-.672-.093-.868-.28-.196-.187-.294-.439-.294-.756s.098-.57.294-.756c.196-.187.486-.28.868-.28.383 0 .672.093.868.28.196.187.294.439.294.756s-.098.57-.294.756c-.196.187-.485.28-.868.28Zm0 5.908c-.382 0-.672-.093-.868-.28-.196-.187-.294-.439-.294-.756s.098-.57.294-.756c.196-.187.486-.28.868-.28.383 0 .672.093.868.28.196.187.294.439.294.756s-.098.57-.294.756c-.196.187-.485.28-.868.28Zm13.925-.14.546-2.94h-1.218v-.91h1.372l.476-2.52h-1.358v-.91h1.512l.546-2.94h.98l-.546 2.94h2.24l.546-2.94h.98l-.546 2.94h1.218v.91h-1.372l-.476 2.52h1.358v.91h-1.512l-.546 2.94h-.98l.546-2.94h-2.24l-.546 2.94h-.98Zm1.68-3.85h2.24l.476-2.52h-2.24l-.476 2.52Zm9.081 3.99c-.794 0-1.424-.22-1.89-.658-.467-.448-.7-1.031-.7-1.75 0-.476.107-.891.322-1.246.214-.355.513-.63.896-.826a2.738 2.738 0 0 1 1.316-.308h2.38v-.602c0-.504-.136-.877-.406-1.12-.271-.252-.682-.378-1.232-.378-.486 0-.878.089-1.176.266-.299.177-.458.425-.476.742h-1.26c.046-.607.326-1.106.84-1.498.522-.401 1.213-.602 2.072-.602.933 0 1.647.224 2.142.672.504.448.756 1.073.756 1.876V31h-1.246v-1.4h-.21l.196-.28c0 .373-.094.695-.28.966-.187.27-.453.48-.798.63-.346.15-.761.224-1.246.224Zm.308-1.064c.616 0 1.106-.15 1.47-.448.364-.299.546-.705.546-1.218v-1.078h-2.24c-.411 0-.747.126-1.008.378-.252.243-.378.57-.378.98 0 .43.14.77.42 1.022.289.243.686.364 1.19.364Zm9.206 1.064c-.634 0-1.143-.168-1.526-.504-.382-.345-.574-.812-.574-1.4l.252.294h-.252V31h-1.26V20.78h1.26v2.24l-.028 1.75h.28l-.28.294c0-.579.196-1.04.588-1.386.402-.345.915-.518 1.54-.518.775 0 1.391.257 1.848.77.458.513.686 1.213.686 2.1v2.254c0 .877-.228 1.573-.686 2.086-.457.513-1.073.77-1.848.77Zm-.42-1.092c.532 0 .948-.14 1.246-.42.299-.28.448-.733.448-1.358v-2.24c0-.635-.149-1.087-.448-1.358-.298-.28-.714-.42-1.246-.42-.513 0-.924.163-1.232.49-.298.327-.448.78-.448 1.358v2.1c0 .579.15 1.031.448 1.358.308.327.719.49 1.232.49Zm8.479 1.092c-.616 0-1.158-.117-1.624-.35a2.605 2.605 0 0 1-1.078-1.008c-.252-.448-.378-.975-.378-1.582v-2.1c0-.616.126-1.143.378-1.582a2.6 2.6 0 0 1 1.078-1.008c.466-.233 1.008-.35 1.624-.35.886 0 1.6.238 2.142.714.55.476.84 1.125.868 1.946h-1.26c-.028-.495-.196-.873-.504-1.134-.308-.27-.724-.406-1.246-.406-.551 0-.994.159-1.33.476-.327.308-.49.751-.49 1.33V28.2c0 .579.163 1.027.49 1.344.336.317.779.476 1.33.476.522 0 .938-.135 1.246-.406.308-.27.476-.649.504-1.134h1.26c-.028.821-.318 1.47-.868 1.946-.542.476-1.256.714-2.142.714Zm7.834 0c-.765 0-1.381-.257-1.848-.77-.457-.513-.686-1.209-.686-2.086V26.03c0-.887.229-1.587.686-2.1.458-.513 1.074-.77 1.848-.77.635 0 1.148.173 1.54.518.392.345.588.807.588 1.386l-.28-.294h.28l-.028-1.75v-2.24h1.26V31h-1.26v-1.47h-.252l.252-.294c0 .588-.191 1.055-.574 1.4-.382.336-.891.504-1.526.504Zm.42-1.092c.523 0 .934-.163 1.232-.49.299-.327.448-.78.448-1.358v-2.1c0-.579-.149-1.031-.448-1.358-.298-.327-.709-.49-1.232-.49-.532 0-.947.14-1.246.42-.298.27-.448.723-.448 1.358v2.24c0 .625.15 1.078.448 1.358.299.28.714.42 1.246.42Zm8.423 1.092c-.607 0-1.139-.121-1.596-.364a2.679 2.679 0 0 1-1.05-1.064c-.252-.467-.378-1.017-.378-1.652v-1.82c0-.644.126-1.195.378-1.652a2.586 2.586 0 0 1 1.05-1.05c.457-.252.989-.378 1.596-.378.606 0 1.134.121 1.582.364.457.243.812.583 1.064 1.022.252.439.378.957.378 1.554v1.372H220.5v.728c0 .57.163 1.022.49 1.358.326.327.76.49 1.302.49.466 0 .849-.089 1.148-.266.308-.187.494-.434.56-.742h1.26c-.084.644-.397 1.157-.938 1.54-.542.373-1.218.56-2.03.56Zm1.792-4.522V26.1c0-.607-.159-1.073-.476-1.4-.308-.336-.747-.504-1.316-.504-.57 0-1.013.168-1.33.504-.308.327-.462.793-.462 1.4v.392h3.682l-.098.126ZM229.496 31v-5.502h-2.24V24.35h2.24v-1.61c0-.607.192-1.083.574-1.428.383-.355.91-.532 1.582-.532h2.254v1.148h-2.254c-.289 0-.513.07-.672.21-.149.13-.224.331-.224.602v1.61h3.15v1.148h-3.15V31h-1.26Z" fill="#333238"/></svg>