<svg width="325" height="56" viewBox="0 0 325 56" fill="none" xmlns="http://www.w3.org/2000/svg"><rect width="325" height="56" rx="4" fill="#FBFAFD"/><rect x="16" y="16" width="38" height="24" rx="4" fill="#ECECEF"/><path d="M27.807 32.12c-.296 0-.536-.088-.72-.264a.925.925 0 0 1-.264-.684c0-.296.088-.536.264-.72.184-.184.424-.276.72-.276s.532.092.708.276c.184.184.276.424.276.72 0 .28-.092.508-.276.684-.176.176-.412.264-.708.264Zm7.195 0c-.296 0-.536-.088-.72-.264a.925.925 0 0 1-.264-.684c0-.296.088-.536.264-.72.184-.184.424-.276.72-.276s.532.092.708.276c.184.184.276.424.276.72 0 .28-.092.508-.276.684-.176.176-.412.264-.708.264Zm7.196 0c-.296 0-.536-.088-.72-.264a.925.925 0 0 1-.264-.684c0-.296.088-.536.264-.72.184-.184.424-.276.72-.276s.532.092.708.276c.184.184.276.424.276.72 0 .28-.092.508-.276.684-.176.176-.412.264-.708.264Z" fill="#333238"/><rect x="62" y="16" width="74" height="24" rx="4" fill="#F5D9A8"/><path d="M71.323 34.16V25.4h1.08v1.26h.216l-.216.252c0-.504.164-.9.492-1.188.328-.296.764-.444 1.308-.444.44 0 .82.1 1.14.3.328.192.58.472.756.84.184.368.276.804.276 1.308v1.932c0 .504-.088.94-.264 1.308a1.962 1.962 0 0 1-.756.852c-.32.2-.704.3-1.152.3-.536 0-.972-.148-1.308-.444-.328-.296-.492-.692-.492-1.188l.216.252h-.24l.024 1.5v1.92h-1.08Zm2.52-2.976c.456 0 .812-.12 1.068-.36s.384-.628.384-1.164v-1.92c0-.544-.128-.932-.384-1.164-.256-.24-.612-.36-1.068-.36-.44 0-.792.14-1.056.42-.256.28-.384.668-.384 1.164v1.8c0 .496.128.884.384 1.164.264.28.616.42 1.056.42Zm4.915.816v-6.6h1.08v1.26h.228l-.228.288c0-.512.156-.916.468-1.212.32-.304.76-.456 1.32-.456.688 0 1.216.208 1.584.624.376.408.564.992.564 1.752v.564h-1.08v-.564c0-.488-.12-.848-.36-1.08-.24-.24-.588-.36-1.044-.36-.472 0-.832.136-1.08.408-.248.272-.372.664-.372 1.176V32h-1.08Zm9.451.096c-.528 0-.988-.104-1.38-.312a2.216 2.216 0 0 1-.9-.9c-.208-.4-.312-.876-.312-1.428v-1.512c0-.56.104-1.036.312-1.428.216-.392.516-.692.9-.9.392-.208.852-.312 1.38-.312.536 0 .996.104 1.38.312.384.208.68.508.888.9.216.392.324.868.324 1.428v1.512c0 .552-.108 1.028-.324 1.428a2.124 2.124 0 0 1-.9.9c-.384.208-.84.312-1.368.312Zm0-.96c.472 0 .84-.132 1.104-.396.272-.264.408-.652.408-1.164v-1.752c0-.512-.136-.9-.408-1.164-.264-.264-.632-.396-1.104-.396-.464 0-.832.132-1.104.396-.272.264-.408.652-.408 1.164v1.752c0 .512.136.9.408 1.164.272.264.64.396 1.104.396Zm4.7 3.024V25.4h1.08v1.26h.216l-.216.252c0-.504.164-.9.492-1.188.328-.296.764-.444 1.308-.444.44 0 .82.1 1.14.3.328.192.58.472.756.84.184.368.276.804.276 1.308v1.932c0 .504-.088.94-.264 1.308a1.962 1.962 0 0 1-.756.852c-.32.2-.704.3-1.152.3-.536 0-.972-.148-1.308-.444-.328-.296-.492-.692-.492-1.188l.216.252h-.24l.024 1.5v1.92h-1.08Zm2.52-2.976c.456 0 .812-.12 1.068-.36s.384-.628.384-1.164v-1.92c0-.544-.128-.932-.384-1.164-.256-.24-.612-.36-1.068-.36-.44 0-.792.14-1.056.42-.256.28-.384.668-.384 1.164v1.8c0 .496.128.884.384 1.164.264.28.616.42 1.056.42Zm7.171.936c-.52 0-.976-.104-1.368-.312a2.296 2.296 0 0 1-.9-.912c-.216-.4-.324-.872-.324-1.416v-1.56c0-.552.108-1.024.324-1.416.216-.392.516-.692.9-.9.392-.216.848-.324 1.368-.324.52 0 .972.104 1.356.312.392.208.696.5.912.876.216.376.324.82.324 1.332v1.176h-4.128v.624c0 .488.14.876.42 1.164.28.28.652.42 1.116.42.4 0 .728-.076.984-.228.264-.16.424-.372.48-.636h1.08c-.072.552-.34.992-.804 1.32-.464.32-1.044.48-1.74.48Zm1.536-3.876V27.8c0-.52-.136-.92-.408-1.2-.264-.288-.64-.432-1.128-.432-.488 0-.868.144-1.14.432-.264.28-.396.68-.396 1.2v.336h3.156l-.084.108ZM107.539 32v-6.6h1.08v1.26h.228l-.228.288c0-.512.156-.916.468-1.212.32-.304.76-.456 1.32-.456.688 0 1.216.208 1.584.624.376.408.564.992.564 1.752v.564h-1.08v-.564c0-.488-.12-.848-.36-1.08-.24-.24-.588-.36-1.044-.36-.472 0-.832.136-1.08.408-.248.272-.372.664-.372 1.176V32h-1.08Zm10.112 0c-.544 0-.98-.156-1.308-.468-.328-.32-.492-.744-.492-1.272v-3.876h-1.896V25.4h1.896v-1.86h1.08v1.86h2.7v.984h-2.7v3.876a.8.8 0 0 0 .192.552.714.714 0 0 0 .528.204h1.92V32h-1.92Zm5.071 2.16.972-2.568-2.46-6.192h1.164l1.56 4.08c.064.16.124.328.18.504.056.176.096.328.12.456a3.93 3.93 0 0 1 .12-.456c.056-.176.112-.344.168-.504l1.452-4.08h1.14l-3.288 8.76h-1.128Z" fill="#333238"/><rect x="144" y="16" width="45" height="24" rx="4" fill="#F5D9A8"/><path d="M156.369 32c-.544 0-.98-.156-1.308-.468-.328-.32-.492-.744-.492-1.272v-3.876h-1.896V25.4h1.896v-1.86h1.08v1.86h2.7v.984h-2.7v3.876a.8.8 0 0 0 .192.552.714.714 0 0 0 .528.204h1.92V32h-1.92Zm5.072 2.16.972-2.568-2.46-6.192h1.164l1.56 4.08c.064.16.124.328.18.504.056.176.096.328.12.456a3.93 3.93 0 0 1 .12-.456c.056-.176.112-.344.168-.504l1.452-4.08h1.14l-3.288 8.76h-1.128Zm6.163 0V25.4h1.08v1.26h.216l-.216.252c0-.504.164-.9.492-1.188.328-.296.764-.444 1.308-.444.44 0 .82.1 1.14.3.328.192.58.472.756.84.184.368.276.804.276 1.308v1.932c0 .504-.088.94-.264 1.308a1.962 1.962 0 0 1-.756.852c-.32.2-.704.3-1.152.3-.536 0-.972-.148-1.308-.444-.328-.296-.492-.692-.492-1.188l.216.252h-.24l.024 1.5v1.92h-1.08Zm2.52-2.976c.456 0 .812-.12 1.068-.36s.384-.628.384-1.164v-1.92c0-.544-.128-.932-.384-1.164-.256-.24-.612-.36-1.068-.36-.44 0-.792.14-1.056.42-.256.28-.384.668-.384 1.164v1.8c0 .496.128.884.384 1.164.264.28.616.42 1.056.42Zm7.171.936c-.52 0-.976-.104-1.368-.312a2.296 2.296 0 0 1-.9-.912c-.216-.4-.324-.872-.324-1.416v-1.56c0-.552.108-1.024.324-1.416.216-.392.516-.692.9-.9.392-.216.848-.324 1.368-.324.52 0 .972.104 1.356.312.392.208.696.5.912.876.216.376.324.82.324 1.332v1.176h-4.128v.624c0 .488.14.876.42 1.164.28.28.652.42 1.116.42.4 0 .728-.076.984-.228.264-.16.424-.372.48-.636h1.08c-.072.552-.34.992-.804 1.32-.464.32-1.044.48-1.74.48Zm1.536-3.876V27.8c0-.52-.136-.92-.408-1.2-.264-.288-.64-.432-1.128-.432-.488 0-.868.144-1.14.432-.264.28-.396.68-.396 1.2v.336h3.156l-.084.108Z" fill="#333238"/><rect x="197" y="16" width="52" height="24" rx="4" fill="#F5D9A8"/><path d="M208.348 32.096c-.488 0-.908-.072-1.26-.216a1.778 1.778 0 0 1-.792-.648c-.176-.288-.264-.636-.264-1.044h1.08c0 .304.108.544.324.72.216.168.52.252.912.252h.528c.4 0 .708-.088.924-.264.224-.176.336-.424.336-.744 0-.288-.064-.512-.192-.672-.128-.16-.324-.256-.588-.288l-1.824-.264c-.448-.064-.796-.248-1.044-.552-.248-.312-.372-.72-.372-1.224 0-.576.196-1.028.588-1.356.4-.328.948-.492 1.644-.492h.528c.64 0 1.16.16 1.56.48.408.312.628.724.66 1.236h-1.092a.757.757 0 0 0-.336-.576c-.2-.152-.464-.228-.792-.228h-.528c-.368 0-.656.084-.864.252a.833.833 0 0 0-.312.684c0 .224.052.404.156.54a.74.74 0 0 0 .48.252l1.704.24c.56.08.98.284 1.26.612s.42.78.42 1.356c0 .616-.204 1.096-.612 1.44-.4.336-.968.504-1.704.504h-.528Zm7.555.024c-.528 0-.992-.1-1.392-.3-.392-.2-.7-.488-.924-.864-.216-.384-.324-.836-.324-1.356v-1.8c0-.528.108-.98.324-1.356.224-.376.532-.664.924-.864.4-.2.864-.3 1.392-.3.76 0 1.372.204 1.836.612.472.408.72.964.744 1.668h-1.08c-.024-.424-.168-.748-.432-.972-.264-.232-.62-.348-1.068-.348-.472 0-.852.136-1.14.408-.28.264-.42.644-.42 1.14V29.6c0 .496.14.88.42 1.152.288.272.668.408 1.14.408.448 0 .804-.116 1.068-.348.264-.232.408-.556.432-.972h1.08c-.024.704-.272 1.26-.744 1.668-.464.408-1.076.612-1.836.612Zm6.523 0c-.68 0-1.22-.188-1.62-.564-.4-.384-.6-.884-.6-1.5 0-.408.092-.764.276-1.068.184-.304.44-.54.768-.708a2.349 2.349 0 0 1 1.128-.264h2.04V27.5c0-.432-.116-.752-.348-.96-.232-.216-.584-.324-1.056-.324-.416 0-.752.076-1.008.228-.256.152-.392.364-.408.636h-1.08c.04-.52.28-.948.72-1.284.448-.344 1.04-.516 1.776-.516.8 0 1.412.192 1.836.576.432.384.648.92.648 1.608V32h-1.068v-1.2h-.18l.168-.24c0 .32-.08.596-.24.828-.16.232-.388.412-.684.54-.296.128-.652.192-1.068.192Zm.264-.912c.528 0 .948-.128 1.26-.384.312-.256.468-.604.468-1.044v-.924h-1.92c-.352 0-.64.108-.864.324-.216.208-.324.488-.324.84 0 .368.12.66.36.876.248.208.588.312 1.02.312Zm8.468.792a2.13 2.13 0 0 1-1.008-.228 1.639 1.639 0 0 1-.672-.648 1.95 1.95 0 0 1-.24-.984v-5.916h-2.28v-.984h3.36v6.9c0 .272.076.488.228.648.152.152.356.228.612.228h2.04V32h-2.04Zm6.235.12c-.52 0-.976-.104-1.368-.312a2.296 2.296 0 0 1-.9-.912c-.216-.4-.324-.872-.324-1.416v-1.56c0-.552.108-1.024.324-1.416.216-.392.516-.692.9-.9.392-.216.848-.324 1.368-.324.52 0 .972.104 1.356.312.392.208.696.5.912.876.216.376.324.82.324 1.332v1.176h-4.128v.624c0 .488.14.876.42 1.164.28.28.652.42 1.116.42.4 0 .728-.076.984-.228.264-.16.424-.372.48-.636h1.08c-.072.552-.34.992-.804 1.32-.464.32-1.044.48-1.74.48Zm1.536-3.876V27.8c0-.52-.136-.92-.408-1.2-.264-.288-.64-.432-1.128-.432-.488 0-.868.144-1.14.432-.264.28-.396.68-.396 1.2v.336h3.156l-.084.108Z" fill="#333238"/><rect x="257" y="16" width="52" height="24" rx="4" fill="#F5D9A8"/><path d="M268.348 32.096c-.488 0-.908-.072-1.26-.216a1.778 1.778 0 0 1-.792-.648c-.176-.288-.264-.636-.264-1.044h1.08c0 .304.108.544.324.72.216.168.52.252.912.252h.528c.4 0 .708-.088.924-.264.224-.176.336-.424.336-.744 0-.288-.064-.512-.192-.672-.128-.16-.324-.256-.588-.288l-1.824-.264c-.448-.064-.796-.248-1.044-.552-.248-.312-.372-.72-.372-1.224 0-.576.196-1.028.588-1.356.4-.328.948-.492 1.644-.492h.528c.64 0 1.16.16 1.56.48.408.312.628.724.66 1.236h-1.092a.757.757 0 0 0-.336-.576c-.2-.152-.464-.228-.792-.228h-.528c-.368 0-.656.084-.864.252a.833.833 0 0 0-.312.684c0 .224.052.404.156.54a.74.74 0 0 0 .48.252l1.704.24c.56.08.98.284 1.26.612s.42.78.42 1.356c0 .616-.204 1.096-.612 1.44-.4.336-.968.504-1.704.504h-.528Zm8.119-.096c-.544 0-.98-.156-1.308-.468-.328-.32-.492-.744-.492-1.272v-3.876h-1.896V25.4h1.896v-1.86h1.08v1.86h2.7v.984h-2.7v3.876a.8.8 0 0 0 .192.552.714.714 0 0 0 .528.204h1.92V32h-1.92Zm5.959.12c-.68 0-1.22-.188-1.62-.564-.4-.384-.6-.884-.6-1.5 0-.408.092-.764.276-1.068.184-.304.44-.54.768-.708a2.349 2.349 0 0 1 1.128-.264h2.04V27.5c0-.432-.116-.752-.348-.96-.232-.216-.584-.324-1.056-.324-.416 0-.752.076-1.008.228-.256.152-.392.364-.408.636h-1.08c.04-.52.28-.948.72-1.284.448-.344 1.04-.516 1.776-.516.8 0 1.412.192 1.836.576.432.384.648.92.648 1.608V32h-1.068v-1.2h-.18l.168-.24c0 .32-.08.596-.24.828-.16.232-.388.412-.684.54-.296.128-.652.192-1.068.192Zm.264-.912c.528 0 .948-.128 1.26-.384.312-.256.468-.604.468-1.044v-.924h-1.92c-.352 0-.64.108-.864.324-.216.208-.324.488-.324.84 0 .368.12.66.36.876.248.208.588.312 1.02.312Zm8.168.792c-.544 0-.98-.156-1.308-.468-.328-.32-.492-.744-.492-1.272v-3.876h-1.896V25.4h1.896v-1.86h1.08v1.86h2.7v.984h-2.7v3.876a.8.8 0 0 0 .192.552.714.714 0 0 0 .528.204h1.92V32h-1.92Zm6.535.12c-.52 0-.976-.104-1.368-.312a2.296 2.296 0 0 1-.9-.912c-.216-.4-.324-.872-.324-1.416v-1.56c0-.552.108-1.024.324-1.416.216-.392.516-.692.9-.9.392-.216.848-.324 1.368-.324.52 0 .972.104 1.356.312.392.208.696.5.912.876.216.376.324.82.324 1.332v1.176h-4.128v.624c0 .488.14.876.42 1.164.28.28.652.42 1.116.42.4 0 .728-.076.984-.228.264-.16.424-.372.48-.636h1.08c-.072.552-.34.992-.804 1.32-.464.32-1.044.48-1.74.48Zm1.536-3.876V27.8c0-.52-.136-.92-.408-1.2-.264-.288-.64-.432-1.128-.432-.488 0-.868.144-1.14.432-.264.28-.396.68-.396 1.2v.336h3.156l-.084.108Z" fill="#333238"/></svg>