<svg width="435" height="112" viewBox="0 0 435 112" fill="none" xmlns="http://www.w3.org/2000/svg"><rect width="435" height="112" rx="4" fill="#FBFAFD"/><rect x="16" y="16" width="403" height="28" rx="4" fill="#ECECEF"/><path d="M27.954 35.14c-.794 0-1.424-.22-1.89-.658-.467-.448-.7-1.031-.7-1.75 0-.476.107-.891.322-1.246a2.19 2.19 0 0 1 .896-.826 2.74 2.74 0 0 1 1.316-.308h2.38v-.602c0-.504-.136-.877-.406-1.12-.27-.252-.682-.378-1.232-.378-.486 0-.878.089-1.176.266-.299.177-.458.425-.476.742h-1.26c.046-.607.326-1.106.84-1.498.522-.401 1.213-.602 2.072-.602.933 0 1.647.224 2.142.672.504.448.756 1.073.756 1.876V35h-1.246v-1.4h-.21l.196-.28c0 .373-.094.695-.28.966-.187.27-.453.48-.798.63-.346.15-.76.224-1.246.224Zm.308-1.064c.616 0 1.106-.15 1.47-.448.364-.299.546-.705.546-1.218v-1.078h-2.24c-.41 0-.747.126-1.008.378-.252.243-.378.57-.378.98 0 .43.14.77.42 1.022.29.243.686.364 1.19.364Zm8.87 1.064c-.616 0-1.157-.117-1.624-.35a2.61 2.61 0 0 1-1.078-1.008c-.252-.448-.378-.975-.378-1.582v-2.1c0-.616.126-1.143.378-1.582a2.61 2.61 0 0 1 1.078-1.008c.467-.233 1.008-.35 1.624-.35.887 0 1.601.238 2.142.714.551.476.84 1.125.868 1.946h-1.26c-.028-.495-.196-.873-.504-1.134-.308-.27-.723-.406-1.246-.406-.55 0-.994.159-1.33.476-.326.308-.49.751-.49 1.33V32.2c0 .579.164 1.027.49 1.344.336.317.78.476 1.33.476.523 0 .938-.135 1.246-.406.308-.27.476-.649.504-1.134h1.26c-.028.821-.317 1.47-.868 1.946-.541.476-1.255.714-2.142.714Zm9.053-.14c-.635 0-1.144-.182-1.526-.546-.383-.373-.574-.868-.574-1.484v-4.522h-2.212V27.3h2.212v-2.17h1.26v2.17h3.15v1.148h-3.15v4.522c0 .261.075.476.224.644a.833.833 0 0 0 .616.238h2.24V35h-2.24Zm4.614 0v-1.148h2.73v-5.404h-2.45V27.3h3.71v6.552h2.59V35H50.8Zm3.22-9.086c-.308 0-.55-.08-.728-.238-.177-.159-.266-.373-.266-.644 0-.28.089-.5.266-.658.178-.168.42-.252.728-.252s.551.084.728.252c.178.159.266.378.266.658 0 .27-.088.485-.266.644-.177.159-.42.238-.728.238Zm8.185 9.198c-.616 0-1.153-.121-1.61-.364a2.586 2.586 0 0 1-1.05-1.05c-.243-.467-.364-1.022-.364-1.666v-1.764c0-.653.121-1.209.364-1.666a2.586 2.586 0 0 1 1.05-1.05c.457-.243.994-.364 1.61-.364.625 0 1.162.121 1.61.364.448.243.793.593 1.036 1.05.252.457.378 1.013.378 1.666v1.764c0 .644-.126 1.2-.378 1.666a2.479 2.479 0 0 1-1.05 1.05c-.448.243-.98.364-1.596.364Zm0-1.12c.55 0 .98-.154 1.288-.462.317-.308.476-.76.476-1.358v-2.044c0-.597-.159-1.05-.476-1.358-.308-.308-.737-.462-1.288-.462-.541 0-.97.154-1.288.462-.317.308-.476.76-.476 1.358v2.044c0 .597.159 1.05.476 1.358.317.308.747.462 1.288.462ZM67.686 35v-7.7h1.26v1.47h.266l-.266.294c0-.607.182-1.073.546-1.4.364-.336.868-.504 1.512-.504.775 0 1.391.238 1.848.714.458.476.686 1.125.686 1.946V35h-1.26v-4.956c0-.588-.149-1.036-.448-1.344-.289-.317-.686-.476-1.19-.476-.522 0-.938.163-1.246.49-.298.327-.448.789-.448 1.386V35h-1.26Zm11.307.14c-.345 0-.625-.103-.84-.308-.205-.205-.308-.471-.308-.798 0-.345.103-.625.308-.84.215-.215.495-.322.84-.322s.62.107.826.322c.215.215.322.495.322.84 0 .327-.107.593-.322.798-.205.205-.48.308-.826.308Zm8.507 0c-.617 0-1.158-.117-1.624-.35a2.61 2.61 0 0 1-1.079-1.008c-.251-.448-.377-.975-.377-1.582v-2.1c0-.616.126-1.143.377-1.582a2.61 2.61 0 0 1 1.079-1.008c.466-.233 1.007-.35 1.623-.35.887 0 1.601.238 2.142.714.551.476.84 1.125.868 1.946h-1.26c-.027-.495-.195-.873-.503-1.134-.308-.27-.724-.406-1.246-.406-.551 0-.995.159-1.33.476-.327.308-.49.751-.49 1.33V32.2c0 .579.163 1.027.49 1.344.335.317.779.476 1.33.476.522 0 .938-.135 1.246-.406.308-.27.476-.649.504-1.134h1.26c-.029.821-.318 1.47-.869 1.946-.54.476-1.255.714-2.142.714Zm8.282-.028c-.616 0-1.153-.121-1.61-.364a2.586 2.586 0 0 1-1.05-1.05c-.243-.467-.364-1.022-.364-1.666v-1.764c0-.653.121-1.209.364-1.666a2.586 2.586 0 0 1 1.05-1.05c.457-.243.994-.364 1.61-.364.625 0 1.162.121 1.61.364.448.243.793.593 1.036 1.05.252.457.378 1.013.378 1.666v1.764c0 .644-.126 1.2-.378 1.666a2.478 2.478 0 0 1-1.05 1.05c-.448.243-.98.364-1.596.364Zm0-1.12c.55 0 .98-.154 1.288-.462.317-.308.476-.76.476-1.358v-2.044c0-.597-.159-1.05-.476-1.358-.308-.308-.737-.462-1.288-.462-.541 0-.97.154-1.288.462-.317.308-.476.76-.476 1.358v2.044c0 .597.159 1.05.476 1.358.317.308.747.462 1.288.462ZM101.265 35v-7.7h1.26v1.47h.266l-.266.294c0-.607.182-1.073.546-1.4.364-.336.868-.504 1.512-.504.774 0 1.39.238 1.848.714.457.476.686 1.125.686 1.946V35h-1.26v-4.956c0-.588-.15-1.036-.448-1.344-.29-.317-.686-.476-1.19-.476-.523 0-.938.163-1.246.49-.299.327-.448.789-.448 1.386V35h-1.26Zm10.116 0v-5.502h-2.24V28.35h2.24v-1.61c0-.607.191-1.083.574-1.428.383-.355.91-.532 1.582-.532h2.254v1.148h-2.254c-.289 0-.513.07-.672.21-.149.13-.224.331-.224.602v1.61h3.15v1.148h-3.15V35h-1.26Zm6.575 0v-1.148h2.73v-5.404h-2.45V27.3h3.71v6.552h2.59V35h-6.58Zm3.22-9.086c-.308 0-.551-.08-.728-.238-.178-.159-.266-.373-.266-.644 0-.28.088-.5.266-.658.177-.168.42-.252.728-.252s.55.084.728.252c.177.159.266.378.266.658 0 .27-.089.485-.266.644-.178.159-.42.238-.728.238ZM126.728 35v-7.7h1.26v1.47h.266l-.266.336c0-.597.182-1.069.546-1.414.373-.355.887-.532 1.54-.532.803 0 1.419.243 1.848.728.439.476.658 1.157.658 2.044v.658h-1.26v-.658c0-.57-.14-.99-.42-1.26-.28-.28-.686-.42-1.218-.42-.551 0-.971.159-1.26.476-.289.317-.434.775-.434 1.372V35h-1.26Zm7.667 0v-7.7h1.092v1.022h.28l-.266.238c0-.41.116-.747.35-1.008.242-.261.56-.392.952-.392.448 0 .802.168 1.064.504.261.336.392.775.392 1.316l-.378-.728h.588l-.322.308c.009-.43.135-.77.378-1.022.242-.252.564-.378.966-.378.494 0 .886.187 1.176.56.298.364.448.84.448 1.428V35h-1.176v-5.866c0-.308-.075-.55-.224-.728a.747.747 0 0 0-.616-.28.746.746 0 0 0-.602.266c-.15.177-.224.42-.224.728V35h-1.036v-5.866c0-.308-.075-.55-.224-.728a.732.732 0 0 0-.602-.28c-.262 0-.467.089-.616.266-.15.177-.224.42-.224.728V35h-1.176Zm11.754.14c-.345 0-.625-.103-.84-.308-.205-.205-.308-.471-.308-.798 0-.345.103-.625.308-.84.215-.215.495-.322.84-.322.346 0 .621.107.826.322.215.215.322.495.322.84 0 .327-.107.593-.322.798-.205.205-.48.308-.826.308Zm8.843 0c-.635 0-1.144-.168-1.526-.504-.383-.345-.574-.812-.574-1.4l.252.294h-.252V35h-1.26V24.78h1.26v2.24l-.028 1.75h.28l-.28.294c0-.579.196-1.04.588-1.386.401-.345.914-.518 1.54-.518.774 0 1.39.257 1.848.77.457.513.686 1.213.686 2.1v2.254c0 .877-.229 1.573-.686 2.086-.458.513-1.074.77-1.848.77Zm-.42-1.092c.532 0 .947-.14 1.246-.42.298-.28.448-.733.448-1.358v-2.24c0-.635-.15-1.087-.448-1.358-.299-.28-.714-.42-1.246-.42-.514 0-.924.163-1.232.49-.299.327-.448.78-.448 1.358v2.1c0 .579.149 1.031.448 1.358.308.327.718.49 1.232.49Zm7.694 1.092c-.793 0-1.423-.22-1.89-.658-.466-.448-.7-1.031-.7-1.75 0-.476.108-.891.322-1.246.215-.355.514-.63.896-.826a2.743 2.743 0 0 1 1.316-.308h2.38v-.602c0-.504-.135-.877-.406-1.12-.27-.252-.681-.378-1.232-.378-.485 0-.877.089-1.176.266-.298.177-.457.425-.476.742h-1.26c.047-.607.327-1.106.84-1.498.523-.401 1.214-.602 2.072-.602.934 0 1.648.224 2.142.672.504.448.756 1.073.756 1.876V35h-1.246v-1.4h-.21l.196-.28c0 .373-.093.695-.28.966-.186.27-.452.48-.798.63-.345.15-.76.224-1.246.224Zm.308-1.064c.616 0 1.106-.15 1.47-.448.364-.299.546-.705.546-1.218v-1.078h-2.24c-.41 0-.746.126-1.008.378-.252.243-.378.57-.378.98 0 .43.14.77.42 1.022.29.243.686.364 1.19.364Zm8.871 1.064c-.616 0-1.158-.117-1.624-.35a2.605 2.605 0 0 1-1.078-1.008c-.252-.448-.378-.975-.378-1.582v-2.1c0-.616.126-1.143.378-1.582a2.6 2.6 0 0 1 1.078-1.008c.466-.233 1.008-.35 1.624-.35.886 0 1.6.238 2.142.714.55.476.84 1.125.868 1.946h-1.26c-.028-.495-.196-.873-.504-1.134-.308-.27-.724-.406-1.246-.406-.551 0-.994.159-1.33.476-.327.308-.49.751-.49 1.33V32.2c0 .579.163 1.027.49 1.344.336.317.779.476 1.33.476.522 0 .938-.135 1.246-.406.308-.27.476-.649.504-1.134h1.26c-.028.821-.318 1.47-.868 1.946-.542.476-1.256.714-2.142.714Zm5.44-.14V24.78h1.26v5.698h1.47l2.156-3.178h1.442l-2.478 3.668L183.353 35h-1.47l-2.24-3.43h-1.498V35h-1.26Zm9.291 2.52v-1.148h2.17c.439 0 .784-.126 1.036-.378.252-.243.378-.574.378-.994v-.7l.028-1.26h-.252l.238-.35c0 .56-.187.999-.56 1.316-.373.308-.873.462-1.498.462-.793 0-1.419-.252-1.876-.756-.457-.504-.686-1.195-.686-2.072v-1.624c0-.877.229-1.573.686-2.086.457-.513 1.083-.77 1.876-.77.625 0 1.125.163 1.498.49.373.327.56.77.56 1.33l-.238-.35h.238V27.3h1.246V35c0 .775-.243 1.386-.728 1.834-.476.457-1.129.686-1.96.686h-2.156Zm1.918-4.102c.523 0 .933-.163 1.232-.49.299-.327.448-.78.448-1.358V30.1c0-.579-.149-1.031-.448-1.358-.299-.327-.709-.49-1.232-.49-.532 0-.947.154-1.246.462-.289.308-.434.723-.434 1.246v1.75c0 .523.145.938.434 1.246.299.308.714.462 1.246.462Zm5.79 1.582v-7.7h1.26v1.47h.266l-.266.336c0-.597.182-1.069.546-1.414.374-.355.887-.532 1.54-.532.803 0 1.419.243 1.848.728.439.476.658 1.157.658 2.044v.658h-1.26v-.658c0-.57-.14-.99-.42-1.26-.28-.28-.686-.42-1.218-.42-.55 0-.97.159-1.26.476-.289.317-.434.775-.434 1.372V35h-1.26Zm11.027.112c-.616 0-1.153-.121-1.61-.364a2.586 2.586 0 0 1-1.05-1.05c-.243-.467-.364-1.022-.364-1.666v-1.764c0-.653.121-1.209.364-1.666a2.586 2.586 0 0 1 1.05-1.05c.457-.243.994-.364 1.61-.364.625 0 1.162.121 1.61.364a2.5 2.5 0 0 1 1.036 1.05c.252.457.378 1.013.378 1.666v1.764c0 .644-.126 1.2-.378 1.666a2.482 2.482 0 0 1-1.05 1.05c-.448.243-.98.364-1.596.364Zm0-1.12c.551 0 .98-.154 1.288-.462.317-.308.476-.76.476-1.358v-2.044c0-.597-.159-1.05-.476-1.358-.308-.308-.737-.462-1.288-.462-.541 0-.971.154-1.288.462-.317.308-.476.76-.476 1.358v2.044c0 .597.159 1.05.476 1.358.317.308.747.462 1.288.462Zm8.38 1.148c-.886 0-1.596-.261-2.128-.784-.532-.532-.798-1.25-.798-2.156v-4.9h1.26v4.9c0 .56.15 1.008.448 1.344.299.327.705.49 1.218.49.523 0 .934-.163 1.232-.49.308-.336.462-.784.462-1.344v-4.9h1.26v4.9c0 .905-.27 1.624-.812 2.156-.541.523-1.255.784-2.142.784Zm5.497-.14v-7.7h1.26v1.47h.266l-.266.294c0-.607.182-1.073.546-1.4.364-.336.868-.504 1.512-.504.775 0 1.391.238 1.848.714.457.476.686 1.125.686 1.946V35h-1.26v-4.956c0-.588-.149-1.036-.448-1.344-.289-.317-.686-.476-1.19-.476-.523 0-.938.163-1.246.49-.299.327-.448.789-.448 1.386V35h-1.26Zm10.859.14c-.766 0-1.382-.257-1.848-.77-.458-.513-.686-1.209-.686-2.086V30.03c0-.887.228-1.587.686-2.1.457-.513 1.073-.77 1.848-.77.634 0 1.148.173 1.54.518.392.345.588.807.588 1.386l-.28-.294h.28l-.028-1.75v-2.24h1.26V35h-1.26v-1.47h-.252l.252-.294c0 .588-.192 1.055-.574 1.4-.383.336-.892.504-1.526.504Zm.42-1.092c.522 0 .933-.163 1.232-.49.298-.327.448-.78.448-1.358v-2.1c0-.579-.15-1.031-.448-1.358-.299-.327-.71-.49-1.232-.49-.532 0-.948.14-1.246.42-.299.27-.448.723-.448 1.358v2.24c0 .625.149 1.078.448 1.358.298.28.714.42 1.246.42Zm8.422 1.092c-.345 0-.625-.103-.84-.308-.205-.205-.308-.471-.308-.798 0-.345.103-.625.308-.84.215-.215.495-.322.84-.322s.621.107.826.322c.215.215.322.495.322.84 0 .327-.107.593-.322.798-.205.205-.481.308-.826.308Zm8.507 0c-.616 0-1.158-.117-1.624-.35a2.605 2.605 0 0 1-1.078-1.008c-.252-.448-.378-.975-.378-1.582v-2.1c0-.616.126-1.143.378-1.582a2.6 2.6 0 0 1 1.078-1.008c.466-.233 1.008-.35 1.624-.35.886 0 1.6.238 2.142.714.55.476.84 1.125.868 1.946h-1.26c-.028-.495-.196-.873-.504-1.134-.308-.27-.724-.406-1.246-.406-.551 0-.994.159-1.33.476-.327.308-.49.751-.49 1.33V32.2c0 .579.163 1.027.49 1.344.336.317.779.476 1.33.476.522 0 .938-.135 1.246-.406.308-.27.476-.649.504-1.134h1.26c-.028.821-.318 1.47-.868 1.946-.542.476-1.256.714-2.142.714Zm8.282-.028c-.616 0-1.153-.121-1.61-.364a2.586 2.586 0 0 1-1.05-1.05c-.243-.467-.364-1.022-.364-1.666v-1.764c0-.653.121-1.209.364-1.666a2.586 2.586 0 0 1 1.05-1.05c.457-.243.994-.364 1.61-.364.625 0 1.162.121 1.61.364a2.5 2.5 0 0 1 1.036 1.05c.252.457.378 1.013.378 1.666v1.764c0 .644-.126 1.2-.378 1.666a2.482 2.482 0 0 1-1.05 1.05c-.448.243-.98.364-1.596.364Zm0-1.12c.551 0 .98-.154 1.288-.462.317-.308.476-.76.476-1.358v-2.044c0-.597-.159-1.05-.476-1.358-.308-.308-.737-.462-1.288-.462-.541 0-.971.154-1.288.462-.317.308-.476.76-.476 1.358v2.044c0 .597.159 1.05.476 1.358.317.308.747.462 1.288.462ZM264.793 35c-.448 0-.84-.089-1.176-.266a1.908 1.908 0 0 1-.784-.756c-.187-.327-.28-.71-.28-1.148v-6.902h-2.66V24.78h3.92v8.05c0 .317.088.57.266.756.177.177.415.266.714.266h2.38V35h-2.38Zm7.274.112c-.616 0-1.152-.121-1.61-.364a2.586 2.586 0 0 1-1.05-1.05c-.242-.467-.364-1.022-.364-1.666v-1.764c0-.653.122-1.209.364-1.666a2.586 2.586 0 0 1 1.05-1.05c.458-.243.994-.364 1.61-.364.626 0 1.162.121 1.61.364.448.243.794.593 1.036 1.05.252.457.378 1.013.378 1.666v1.764c0 .644-.126 1.2-.378 1.666a2.471 2.471 0 0 1-1.05 1.05c-.448.243-.98.364-1.596.364Zm0-1.12c.551 0 .98-.154 1.288-.462.318-.308.476-.76.476-1.358v-2.044c0-.597-.158-1.05-.476-1.358-.308-.308-.737-.462-1.288-.462-.541 0-.97.154-1.288.462-.317.308-.476.76-.476 1.358v2.044c0 .597.159 1.05.476 1.358.318.308.747.462 1.288.462ZM277.83 35v-7.7h1.26v1.47h.266l-.266.336c0-.597.182-1.069.546-1.414.373-.355.886-.532 1.54-.532.802 0 1.418.243 1.848.728.438.476.658 1.157.658 2.044v.658h-1.26v-.658c0-.57-.14-.99-.42-1.26-.28-.28-.686-.42-1.218-.42-.551 0-.971.159-1.26.476-.29.317-.434.775-.434 1.372V35h-1.26Zm11.026.14c-.345 0-.625-.103-.84-.308-.205-.205-.308-.471-.308-.798 0-.345.103-.625.308-.84.215-.215.495-.322.84-.322.346 0 .621.107.826.322.215.215.322.495.322.84 0 .327-.107.593-.322.798-.205.205-.48.308-.826.308Zm8.087-.028c-.57 0-1.06-.084-1.47-.252a2.067 2.067 0 0 1-.924-.756c-.206-.336-.308-.742-.308-1.218h1.26c0 .355.126.635.378.84.252.196.606.294 1.064.294h.616c.466 0 .826-.103 1.078-.308.261-.205.392-.495.392-.868 0-.336-.075-.597-.224-.784-.15-.187-.378-.299-.686-.336l-2.128-.308c-.523-.075-.929-.29-1.218-.644-.29-.364-.434-.84-.434-1.428 0-.672.228-1.2.686-1.582.466-.383 1.106-.574 1.918-.574h.616c.746 0 1.353.187 1.82.56.476.364.732.845.77 1.442h-1.274c-.019-.27-.15-.495-.392-.672-.234-.177-.542-.266-.924-.266h-.616c-.43 0-.766.098-1.008.294-.243.196-.364.462-.364.798 0 .261.06.471.182.63.13.159.317.257.56.294l1.988.28c.653.093 1.143.331 1.47.714.326.383.49.91.49 1.582 0 .719-.238 1.279-.714 1.68-.467.392-1.13.588-1.988.588h-.616Zm9.472-.112c-.634 0-1.143-.182-1.526-.546-.382-.373-.574-.868-.574-1.484v-4.522h-2.212V27.3h2.212v-2.17h1.26v2.17h3.15v1.148h-3.15v4.522c0 .261.075.476.224.644a.834.834 0 0 0 .616.238h2.24V35h-2.24Zm4.993 0v-7.7h1.26v1.47h.266l-.266.336c0-.597.182-1.069.546-1.414.373-.355.887-.532 1.54-.532.803 0 1.419.243 1.848.728.439.476.658 1.157.658 2.044v.658H316v-.658c0-.57-.14-.99-.42-1.26-.28-.28-.686-.42-1.218-.42-.551 0-.971.159-1.26.476-.289.317-.434.775-.434 1.372V35h-1.26Zm11.026.112c-.616 0-1.152-.121-1.61-.364a2.586 2.586 0 0 1-1.05-1.05c-.242-.467-.364-1.022-.364-1.666v-1.764c0-.653.122-1.209.364-1.666a2.586 2.586 0 0 1 1.05-1.05c.458-.243.994-.364 1.61-.364.626 0 1.162.121 1.61.364.448.243.794.593 1.036 1.05.252.457.378 1.013.378 1.666v1.764c0 .644-.126 1.2-.378 1.666a2.471 2.471 0 0 1-1.05 1.05c-.448.243-.98.364-1.596.364Zm0-1.12c.551 0 .98-.154 1.288-.462.318-.308.476-.76.476-1.358v-2.044c0-.597-.158-1.05-.476-1.358-.308-.308-.737-.462-1.288-.462-.541 0-.97.154-1.288.462-.317.308-.476.76-.476 1.358v2.044c0 .597.159 1.05.476 1.358.318.308.747.462 1.288.462ZM327.917 35v-7.7h1.26v1.47h.266l-.266.294c0-.607.182-1.073.546-1.4.364-.336.868-.504 1.512-.504.775 0 1.391.238 1.848.714.457.476.686 1.125.686 1.946V35h-1.26v-4.956c0-.588-.149-1.036-.448-1.344-.289-.317-.686-.476-1.19-.476-.523 0-.938.163-1.246.49-.299.327-.448.789-.448 1.386V35h-1.26Zm9.36 2.52v-1.148h2.17c.439 0 .784-.126 1.036-.378.252-.243.378-.574.378-.994v-.7l.028-1.26h-.252l.238-.35c0 .56-.186.999-.56 1.316-.373.308-.872.462-1.498.462-.793 0-1.418-.252-1.876-.756-.457-.504-.686-1.195-.686-2.072v-1.624c0-.877.229-1.573.686-2.086.458-.513 1.083-.77 1.876-.77.626 0 1.125.163 1.498.49.374.327.56.77.56 1.33l-.238-.35h.238V27.3h1.246V35c0 .775-.242 1.386-.728 1.834-.476.457-1.129.686-1.96.686h-2.156Zm1.918-4.102c.523 0 .934-.163 1.232-.49.299-.327.448-.78.448-1.358V30.1c0-.579-.149-1.031-.448-1.358-.298-.327-.709-.49-1.232-.49-.532 0-.947.154-1.246.462-.289.308-.434.723-.434 1.246v1.75c0 .523.145.938.434 1.246.299.308.714.462 1.246.462Zm8.423 1.722c-.345 0-.625-.103-.84-.308-.205-.205-.308-.471-.308-.798 0-.345.103-.625.308-.84.215-.215.495-.322.84-.322s.621.107.826.322c.215.215.322.495.322.84 0 .327-.107.593-.322.798-.205.205-.481.308-.826.308Zm7.947 0c-.766 0-1.382-.257-1.848-.77-.458-.513-.686-1.209-.686-2.086V30.03c0-.887.228-1.587.686-2.1.457-.513 1.073-.77 1.848-.77.634 0 1.148.173 1.54.518.392.345.588.807.588 1.386l-.28-.294h.28l-.028-1.75v-2.24h1.26V35h-1.26v-1.47h-.252l.252-.294c0 .588-.192 1.055-.574 1.4-.383.336-.892.504-1.526.504Zm.42-1.092c.522 0 .933-.163 1.232-.49.298-.327.448-.78.448-1.358v-2.1c0-.579-.15-1.031-.448-1.358-.299-.327-.71-.49-1.232-.49-.532 0-.948.14-1.246.42-.299.27-.448.723-.448 1.358v2.24c0 .625.149 1.078.448 1.358.298.28.714.42 1.246.42Zm8.422 1.092c-.607 0-1.139-.121-1.596-.364a2.679 2.679 0 0 1-1.05-1.064c-.252-.467-.378-1.017-.378-1.652v-1.82c0-.644.126-1.195.378-1.652a2.586 2.586 0 0 1 1.05-1.05c.457-.252.989-.378 1.596-.378.607 0 1.134.121 1.582.364.457.243.812.583 1.064 1.022.252.439.378.957.378 1.554v1.372h-4.816v.728c0 .57.163 1.022.49 1.358.327.327.761.49 1.302.49.467 0 .849-.089 1.148-.266.308-.187.495-.434.56-.742h1.26c-.084.644-.397 1.157-.938 1.54-.541.373-1.218.56-2.03.56Zm1.792-4.522V30.1c0-.607-.159-1.073-.476-1.4-.308-.336-.747-.504-1.316-.504-.569 0-1.013.168-1.33.504-.308.327-.462.793-.462 1.4v.392h3.682l-.098.126ZM371.612 35v-5.502h-2.24V28.35h2.24v-1.61c0-.607.191-1.083.574-1.428.382-.355.91-.532 1.582-.532h2.254v1.148h-2.254c-.29 0-.514.07-.672.21-.15.13-.224.331-.224.602v1.61h3.15v1.148h-3.15V35h-1.26Zm8.912.14c-.793 0-1.423-.22-1.89-.658-.467-.448-.7-1.031-.7-1.75 0-.476.107-.891.322-1.246a2.19 2.19 0 0 1 .896-.826 2.74 2.74 0 0 1 1.316-.308h2.38v-.602c0-.504-.135-.877-.406-1.12-.271-.252-.681-.378-1.232-.378-.485 0-.877.089-1.176.266-.299.177-.457.425-.476.742h-1.26c.047-.607.327-1.106.84-1.498.523-.401 1.213-.602 2.072-.602.933 0 1.647.224 2.142.672.504.448.756 1.073.756 1.876V35h-1.246v-1.4h-.21l.196-.28c0 .373-.093.695-.28.966-.187.27-.453.48-.798.63-.345.15-.761.224-1.246.224Zm.308-1.064c.616 0 1.106-.15 1.47-.448.364-.299.546-.705.546-1.218v-1.078h-2.24c-.411 0-.747.126-1.008.378-.252.243-.378.57-.378.98 0 .43.14.77.42 1.022.289.243.686.364 1.19.364Zm8.745 1.064c-.887 0-1.596-.261-2.128-.784-.532-.532-.798-1.25-.798-2.156v-4.9h1.26v4.9c0 .56.149 1.008.448 1.344.298.327.704.49 1.218.49.522 0 .933-.163 1.232-.49.308-.336.462-.784.462-1.344v-4.9h1.26v4.9c0 .905-.271 1.624-.812 2.156-.542.523-1.256.784-2.142.784Zm9.528-.14c-.448 0-.84-.089-1.176-.266a1.914 1.914 0 0 1-.784-.756c-.187-.327-.28-.71-.28-1.148v-6.902h-2.66V24.78h3.92v8.05c0 .317.089.57.266.756.177.177.415.266.714.266h2.38V35h-2.38Zm8.045 0c-.635 0-1.144-.182-1.526-.546-.383-.373-.574-.868-.574-1.484v-4.522h-2.212V27.3h2.212v-2.17h1.26v2.17h3.15v1.148h-3.15v4.522c0 .261.074.476.224.644a.832.832 0 0 0 .616.238h2.24V35h-2.24Z" fill="#333238"/><path stroke="#7B58CF" stroke-width="2" stroke-linecap="round" d="M84 63h116M84 63V49m116 14V49"/><rect x="76" y="72" width="132" height="24" rx="4" fill="#CBE2F9"/><path d="m87.33 88-2.245-6.6h1.165l1.44 4.44c.088.264.163.52.228.768.063.24.111.428.143.564.04-.136.088-.324.144-.564.056-.248.124-.504.204-.768l1.44-4.44h1.14L88.747 88H87.33Zm7.327.12c-.68 0-1.22-.188-1.62-.564-.4-.384-.6-.884-.6-1.5 0-.408.092-.764.276-1.068.184-.304.44-.54.768-.708a2.349 2.349 0 0 1 1.128-.264h2.04V83.5c0-.432-.116-.752-.348-.96-.232-.216-.584-.324-1.056-.324-.416 0-.752.076-1.008.228-.256.152-.392.364-.408.636h-1.08c.04-.52.28-.948.72-1.284.448-.344 1.04-.516 1.776-.516.8 0 1.412.192 1.836.576.432.384.648.92.648 1.608V88H96.66v-1.2h-.18l.168-.24c0 .32-.08.596-.24.828-.16.232-.388.412-.684.54-.296.128-.652.192-1.068.192Zm.264-.912c.528 0 .948-.128 1.26-.384.312-.256.468-.604.468-1.044v-.924h-1.92c-.352 0-.64.108-.864.324-.216.208-.324.488-.324.84 0 .368.12.66.36.876.248.208.588.312 1.02.312Zm5.251.792v-6.6h1.08v1.26h.228l-.228.288c0-.512.156-.916.468-1.212.32-.304.76-.456 1.32-.456.688 0 1.216.208 1.584.624.376.408.564.992.564 1.752v.564h-1.08v-.564c0-.488-.12-.848-.36-1.08-.24-.24-.588-.36-1.044-.36-.472 0-.832.136-1.08.408-.248.272-.372.664-.372 1.176V88h-1.08Zm6.871 0v-.984h2.34v-4.632h-2.1V81.4h3.18v5.616h2.22V88h-5.64Zm2.76-7.788c-.264 0-.472-.068-.624-.204a.704.704 0 0 1-.228-.552c0-.24.076-.428.228-.564.152-.144.36-.216.624-.216s.472.072.624.216c.152.136.228.324.228.564a.704.704 0 0 1-.228.552c-.152.136-.36.204-.624.204Zm6.44 7.908c-.68 0-1.22-.188-1.62-.564-.4-.384-.6-.884-.6-1.5 0-.408.092-.764.276-1.068.184-.304.44-.54.768-.708a2.349 2.349 0 0 1 1.128-.264h2.04V83.5c0-.432-.116-.752-.348-.96-.232-.216-.584-.324-1.056-.324-.416 0-.752.076-1.008.228-.256.152-.392.364-.408.636h-1.08c.04-.52.28-.948.72-1.284.448-.344 1.04-.516 1.776-.516.8 0 1.412.192 1.836.576.432.384.648.92.648 1.608V88h-1.068v-1.2h-.18l.168-.24c0 .32-.08.596-.24.828-.16.232-.388.412-.684.54-.296.128-.652.192-1.068.192Zm.264-.912c.528 0 .948-.128 1.26-.384.312-.256.468-.604.468-1.044v-.924h-1.92c-.352 0-.64.108-.864.324-.216.208-.324.488-.324.84 0 .368.12.66.36.876.248.208.588.312 1.02.312Zm5.011.792v-6.6h1.08v1.26h.228l-.228.252c0-.52.156-.92.468-1.2.312-.288.744-.432 1.296-.432.664 0 1.192.204 1.584.612.392.408.588.964.588 1.668V88h-1.08v-4.248c0-.504-.128-.888-.384-1.152-.248-.272-.588-.408-1.02-.408-.448 0-.804.14-1.068.42-.256.28-.384.676-.384 1.188V88h-1.08Zm10.351 0c-.544 0-.98-.156-1.308-.468-.328-.32-.492-.744-.492-1.272v-3.876h-1.896V81.4h1.896v-1.86h1.08v1.86h2.7v.984h-2.7v3.876a.8.8 0 0 0 .192.552.714.714 0 0 0 .528.204h1.92V88h-1.92Zm3.836 1.32 4.26-11.28h1.14l-4.26 11.28h-1.14Zm9.991-1.2c-.528 0-.992-.1-1.392-.3-.392-.2-.7-.488-.924-.864-.216-.384-.324-.836-.324-1.356v-1.8c0-.528.108-.98.324-1.356.224-.376.532-.664.924-.864.4-.2.864-.3 1.392-.3.76 0 1.372.204 1.836.612.472.408.72.964.744 1.668h-1.08c-.024-.424-.168-.748-.432-.972-.264-.232-.62-.348-1.068-.348-.472 0-.852.136-1.14.408-.28.264-.42.644-.42 1.14V85.6c0 .496.14.88.42 1.152.288.272.668.408 1.14.408.448 0 .804-.116 1.068-.348.264-.232.408-.556.432-.972h1.08c-.024.704-.272 1.26-.744 1.668-.464.408-1.076.612-1.836.612Zm6.523 0c-.68 0-1.22-.188-1.62-.564-.4-.384-.6-.884-.6-1.5 0-.408.092-.764.276-1.068.184-.304.44-.54.768-.708a2.349 2.349 0 0 1 1.128-.264h2.04V83.5c0-.432-.116-.752-.348-.96-.232-.216-.584-.324-1.056-.324-.416 0-.752.076-1.008.228-.256.152-.392.364-.408.636h-1.08c.04-.52.28-.948.72-1.284.448-.344 1.04-.516 1.776-.516.8 0 1.412.192 1.836.576.432.384.648.92.648 1.608V88h-1.068v-1.2h-.18l.168-.24c0 .32-.08.596-.24.828-.16.232-.388.412-.684.54-.296.128-.652.192-1.068.192Zm.264-.912c.528 0 .948-.128 1.26-.384.312-.256.468-.604.468-1.044v-.924h-1.92c-.352 0-.64.108-.864.324-.216.208-.324.488-.324.84 0 .368.12.66.36.876.248.208.588.312 1.02.312Zm8.168.792c-.544 0-.98-.156-1.308-.468-.328-.32-.492-.744-.492-1.272v-3.876h-1.896V81.4h1.896v-1.86h1.08v1.86h2.7v.984h-2.7v3.876a.8.8 0 0 0 .192.552.714.714 0 0 0 .528.204h1.92V88h-1.92Zm6.535.12c-.52 0-.976-.104-1.368-.312a2.296 2.296 0 0 1-.9-.912c-.216-.4-.324-.872-.324-1.416v-1.56c0-.552.108-1.024.324-1.416.216-.392.516-.692.9-.9.392-.216.848-.324 1.368-.324.52 0 .972.104 1.356.312.392.208.696.5.912.876.216.376.324.82.324 1.332v1.176h-4.128v.624c0 .488.14.876.42 1.164.28.28.652.42 1.116.42.4 0 .728-.076.984-.228.264-.16.424-.372.48-.636h1.08c-.072.552-.34.992-.804 1.32-.464.32-1.044.48-1.74.48Zm1.536-3.876V83.8c0-.52-.136-.92-.408-1.2-.264-.288-.64-.432-1.128-.432-.488 0-.868.144-1.14.432-.264.28-.396.68-.396 1.2v.336h3.156l-.084.108Zm3.991 5.916v-.984h1.86c.376 0 .672-.108.888-.324.216-.208.324-.492.324-.852v-.6l.024-1.08h-.216l.204-.3c0 .48-.16.856-.48 1.128-.32.264-.748.396-1.284.396-.68 0-1.216-.216-1.608-.648-.392-.432-.588-1.024-.588-1.776v-1.392c0-.752.196-1.348.588-1.788.392-.44.928-.66 1.608-.66.536 0 .964.14 1.284.42.32.28.48.66.48 1.14l-.204-.3h.204V81.4h1.068V88c0 .664-.208 1.188-.624 1.572-.408.392-.968.588-1.68.588h-1.848Zm1.644-3.516c.448 0 .8-.14 1.056-.42.256-.28.384-.668.384-1.164V83.8c0-.496-.128-.884-.384-1.164-.256-.28-.608-.42-1.056-.42-.456 0-.812.132-1.068.396-.248.264-.372.62-.372 1.068v1.5c0 .448.124.804.372 1.068.256.264.612.396 1.068.396Zm7.22 1.452c-.528 0-.988-.104-1.38-.312a2.216 2.216 0 0 1-.9-.9c-.208-.4-.312-.876-.312-1.428v-1.512c0-.56.104-1.036.312-1.428.216-.392.516-.692.9-.9.392-.208.852-.312 1.38-.312.536 0 .996.104 1.38.312.384.208.68.508.888.9.216.392.324.868.324 1.428v1.512c0 .552-.108 1.028-.324 1.428a2.124 2.124 0 0 1-.9.9c-.384.208-.84.312-1.368.312Zm0-.96c.472 0 .84-.132 1.104-.396.272-.264.408-.652.408-1.164v-1.752c0-.512-.136-.9-.408-1.164-.264-.264-.632-.396-1.104-.396-.464 0-.832.132-1.104.396-.272.264-.408.652-.408 1.164v1.752c0 .512.136.9.408 1.164.272.264.64.396 1.104.396Zm4.939.864v-6.6h1.08v1.26h.228l-.228.288c0-.512.156-.916.468-1.212.32-.304.76-.456 1.32-.456.688 0 1.216.208 1.584.624.376.408.564.992.564 1.752v.564h-1.08v-.564c0-.488-.12-.848-.36-1.08-.24-.24-.588-.36-1.044-.36-.472 0-.832.136-1.08.408-.248.272-.372.664-.372 1.176V88h-1.08Zm7.987 2.16.972-2.568-2.46-6.192h1.164l1.56 4.08c.064.16.124.328.18.504.056.176.096.328.12.456a3.93 3.93 0 0 1 .12-.456c.056-.176.112-.344.168-.504l1.452-4.08h1.14l-3.288 8.76h-1.128Z" fill="#333238"/></svg>