<svg width="326" height="112" viewBox="0 0 326 112" fill="none" xmlns="http://www.w3.org/2000/svg"><rect width="326" height="112" rx="4" fill="#FBFAFD"/><rect x="16" y="16" width="294" height="28" rx="4" fill="#ECECEF"/><path d="M28.242 35.14c-.765 0-1.381-.257-1.848-.77-.457-.513-.686-1.209-.686-2.086V30.03c0-.887.229-1.587.686-2.1.458-.513 1.074-.77 1.848-.77.635 0 1.148.173 1.54.518.392.345.588.807.588 1.386l-.28-.294h.28l-.028-1.75v-2.24h1.26V35h-1.26v-1.47h-.252l.252-.294c0 .588-.191 1.055-.574 1.4-.382.336-.891.504-1.526.504Zm.42-1.092c.523 0 .934-.163 1.232-.49.299-.327.448-.78.448-1.358v-2.1c0-.579-.15-1.031-.448-1.358-.298-.327-.71-.49-1.232-.49-.532 0-.947.14-1.246.42-.298.27-.448.723-.448 1.358v2.24c0 .625.15 1.078.448 1.358.299.28.714.42 1.246.42Zm5.79.952v-7.7h1.26v1.47h.267l-.266.336c0-.597.182-1.069.546-1.414.373-.355.886-.532 1.54-.532.802 0 1.418.243 1.848.728.438.476.658 1.157.658 2.044v.658h-1.26v-.658c0-.57-.14-.99-.42-1.26-.28-.28-.686-.42-1.218-.42-.55 0-.97.159-1.26.476-.29.317-.434.775-.434 1.372V35h-1.26Zm11.027.112c-.616 0-1.152-.121-1.61-.364a2.586 2.586 0 0 1-1.05-1.05c-.242-.467-.364-1.022-.364-1.666v-1.764c0-.653.122-1.209.364-1.666a2.586 2.586 0 0 1 1.05-1.05c.458-.243.994-.364 1.61-.364.626 0 1.162.121 1.61.364.448.243.794.593 1.036 1.05.252.457.378 1.013.378 1.666v1.764c0 .644-.126 1.2-.378 1.666a2.479 2.479 0 0 1-1.05 1.05c-.448.243-.98.364-1.596.364Zm0-1.12c.551 0 .98-.154 1.288-.462.318-.308.476-.76.476-1.358v-2.044c0-.597-.158-1.05-.476-1.358-.308-.308-.737-.462-1.288-.462-.541 0-.97.154-1.288.462-.317.308-.476.76-.476 1.358v2.044c0 .597.159 1.05.476 1.358.318.308.747.462 1.288.462Zm5.483 3.528V27.3h1.26v1.47h.252l-.252.294c0-.588.191-1.05.574-1.386.383-.345.891-.518 1.526-.518.513 0 .956.117 1.33.35a2.2 2.2 0 0 1 .882.98c.215.43.322.938.322 1.526v2.254c0 .588-.103 1.097-.308 1.526-.206.43-.5.76-.882.994-.373.233-.822.35-1.344.35-.626 0-1.134-.173-1.526-.518-.383-.345-.574-.807-.574-1.386l.252.294h-.28l.028 1.75v2.24h-1.26Zm2.94-3.472c.532 0 .947-.14 1.246-.42.298-.28.448-.733.448-1.358v-2.24c0-.635-.15-1.087-.448-1.358-.299-.28-.714-.42-1.246-.42-.514 0-.924.163-1.232.49-.299.327-.448.78-.448 1.358v2.1c0 .579.15 1.031.448 1.358.308.327.718.49 1.232.49Zm7.918 1.092c-.765 0-1.381-.257-1.848-.77-.457-.513-.686-1.209-.686-2.086V30.03c0-.887.229-1.587.686-2.1.458-.513 1.074-.77 1.848-.77.635 0 1.148.173 1.54.518.392.345.588.807.588 1.386l-.28-.294h.28l-.028-1.75v-2.24h1.26V35h-1.26v-1.47h-.252l.252-.294c0 .588-.191 1.055-.574 1.4-.382.336-.891.504-1.526.504Zm.42-1.092c.523 0 .934-.163 1.232-.49.299-.327.448-.78.448-1.358v-2.1c0-.579-.149-1.031-.448-1.358-.298-.327-.709-.49-1.232-.49-.532 0-.947.14-1.246.42-.298.27-.448.723-.448 1.358v2.24c0 .625.15 1.078.448 1.358.299.28.714.42 1.246.42Zm8.423 1.064c-.616 0-1.153-.121-1.61-.364a2.586 2.586 0 0 1-1.05-1.05c-.243-.467-.364-1.022-.364-1.666v-1.764c0-.653.121-1.209.364-1.666a2.586 2.586 0 0 1 1.05-1.05c.457-.243.994-.364 1.61-.364.625 0 1.162.121 1.61.364.448.243.793.593 1.036 1.05.252.457.378 1.013.378 1.666v1.764c0 .644-.126 1.2-.378 1.666a2.479 2.479 0 0 1-1.05 1.05c-.448.243-.98.364-1.596.364Zm0-1.12c.55 0 .98-.154 1.288-.462.317-.308.476-.76.476-1.358v-2.044c0-.597-.159-1.05-.476-1.358-.308-.308-.737-.462-1.288-.462-.541 0-.97.154-1.288.462-.317.308-.476.76-.476 1.358v2.044c0 .597.159 1.05.476 1.358.317.308.747.462 1.288.462ZM76.55 35l-1.26-7.7h1.092l.784 5.432c.028.205.056.434.084.686.028.243.047.443.056.602.02-.159.038-.36.056-.602.028-.252.061-.48.098-.686l.966-5.432h1.26l.966 5.432c.038.205.07.434.098.686.038.243.061.443.07.602.02-.159.042-.36.07-.602.028-.252.056-.48.084-.686l.812-5.432h1.036L81.507 35h-1.386l-.882-5.32a63.188 63.188 0 0 1-.112-.826 31.213 31.213 0 0 0-.07-.686 17.5 17.5 0 0 1-.112.966l-.084.546-.924 5.32h-1.386Zm7.989 0v-7.7h1.26v1.47h.266l-.266.294c0-.607.182-1.073.546-1.4.364-.336.868-.504 1.512-.504.775 0 1.39.238 1.848.714.457.476.686 1.125.686 1.946V35h-1.26v-4.956c0-.588-.15-1.036-.448-1.344-.29-.317-.686-.476-1.19-.476-.523 0-.938.163-1.246.49-.299.327-.448.789-.448 1.386V35h-1.26Zm11.306.14c-.345 0-.625-.103-.84-.308-.205-.205-.308-.471-.308-.798 0-.345.103-.625.309-.84.214-.215.494-.322.84-.322.345 0 .62.107.826.322.214.215.322.495.322.84 0 .327-.108.593-.323.798-.205.205-.48.308-.825.308Zm5.385-.14v-1.148h2.73v-5.404h-2.45V27.3h3.71v6.552h2.59V35h-6.58Zm3.22-9.086c-.308 0-.551-.08-.728-.238-.177-.159-.266-.373-.266-.644 0-.28.089-.5.266-.658.177-.168.42-.252.728-.252s.551.084.728.252c.177.159.266.378.266.658 0 .27-.089.485-.266.644-.177.159-.42.238-.728.238Zm8.297 9.226c-.616 0-1.158-.117-1.624-.35a2.605 2.605 0 0 1-1.078-1.008c-.252-.448-.378-.975-.378-1.582v-2.1c0-.616.126-1.143.378-1.582a2.6 2.6 0 0 1 1.078-1.008c.466-.233 1.008-.35 1.624-.35.886 0 1.6.238 2.142.714.55.476.84 1.125.868 1.946h-1.26c-.028-.495-.196-.873-.504-1.134-.308-.27-.724-.406-1.246-.406-.551 0-.994.159-1.33.476-.327.308-.49.751-.49 1.33V32.2c0 .579.163 1.027.49 1.344.336.317.779.476 1.33.476.522 0 .938-.135 1.246-.406.308-.27.476-.649.504-1.134h1.26c-.028.821-.318 1.47-.868 1.946-.542.476-1.256.714-2.142.714Zm8.282-.028c-.616 0-1.153-.121-1.61-.364a2.586 2.586 0 0 1-1.05-1.05c-.243-.467-.364-1.022-.364-1.666v-1.764c0-.653.121-1.209.364-1.666a2.586 2.586 0 0 1 1.05-1.05c.457-.243.994-.364 1.61-.364.625 0 1.162.121 1.61.364a2.5 2.5 0 0 1 1.036 1.05c.252.457.378 1.013.378 1.666v1.764c0 .644-.126 1.2-.378 1.666a2.482 2.482 0 0 1-1.05 1.05c-.448.243-.98.364-1.596.364Zm0-1.12c.551 0 .98-.154 1.288-.462.317-.308.476-.76.476-1.358v-2.044c0-.597-.159-1.05-.476-1.358-.308-.308-.737-.462-1.288-.462-.541 0-.971.154-1.288.462-.317.308-.476.76-.476 1.358v2.044c0 .597.159 1.05.476 1.358.317.308.747.462 1.288.462ZM126.513 35v-7.7h1.26v1.47h.266l-.266.294c0-.607.182-1.073.546-1.4.364-.336.868-.504 1.512-.504.774 0 1.39.238 1.848.714.457.476.686 1.125.686 1.946V35h-1.26v-4.956c0-.588-.15-1.036-.448-1.344-.29-.317-.686-.476-1.19-.476-.523 0-.938.163-1.246.49-.299.327-.448.789-.448 1.386V35h-1.26Zm11.306.14c-.345 0-.625-.103-.84-.308-.205-.205-.308-.471-.308-.798 0-.345.103-.625.308-.84.215-.215.495-.322.84-.322s.621.107.826.322c.215.215.322.495.322.84 0 .327-.107.593-.322.798-.205.205-.481.308-.826.308Zm5.763-.14v-7.7h1.26v1.47h.266l-.266.336c0-.597.182-1.069.546-1.414.373-.355.886-.532 1.54-.532.802 0 1.418.243 1.848.728.438.476.658 1.157.658 2.044v.658h-1.26v-.658c0-.57-.14-.99-.42-1.26-.28-.28-.686-.42-1.218-.42-.551 0-.971.159-1.26.476-.29.317-.434.775-.434 1.372V35h-1.26Zm8.016 0v-1.148h2.73v-5.404h-2.45V27.3h3.71v6.552h2.59V35h-6.58Zm3.22-9.086c-.308 0-.55-.08-.728-.238-.177-.159-.266-.373-.266-.644 0-.28.089-.5.266-.658.178-.168.42-.252.728-.252s.551.084.728.252c.178.159.266.378.266.658 0 .27-.088.485-.266.644-.177.159-.42.238-.728.238Zm6.239 11.606v-1.148h2.17c.438 0 .784-.126 1.036-.378.252-.243.378-.574.378-.994v-.7l.028-1.26h-.252l.238-.35c0 .56-.187.999-.56 1.316-.374.308-.873.462-1.498.462-.794 0-1.419-.252-1.876-.756-.458-.504-.686-1.195-.686-2.072v-1.624c0-.877.228-1.573.686-2.086.457-.513 1.082-.77 1.876-.77.625 0 1.124.163 1.498.49.373.327.56.77.56 1.33l-.238-.35h.238V27.3h1.246V35c0 .775-.243 1.386-.728 1.834-.476.457-1.13.686-1.96.686h-2.156Zm1.918-4.102c.522 0 .933-.163 1.232-.49.298-.327.448-.78.448-1.358V30.1c0-.579-.15-1.031-.448-1.358-.299-.327-.71-.49-1.232-.49-.532 0-.948.154-1.246.462-.29.308-.434.723-.434 1.246v1.75c0 .523.144.938.434 1.246.298.308.714.462 1.246.462Zm5.51 1.582V24.78h1.26v3.99h.266l-.266.294c0-.607.182-1.073.546-1.4.364-.336.868-.504 1.512-.504.775 0 1.391.238 1.848.714.458.476.686 1.125.686 1.946V35h-1.26v-4.97c0-.579-.149-1.022-.448-1.33-.289-.317-.686-.476-1.19-.476-.522 0-.938.163-1.246.49-.298.327-.448.789-.448 1.386V35h-1.26Zm12.077 0c-.635 0-1.144-.182-1.526-.546-.383-.373-.574-.868-.574-1.484v-4.522h-2.212V27.3h2.212v-2.17h1.26v2.17h3.15v1.148h-3.15v4.522c0 .261.074.476.224.644a.832.832 0 0 0 .616.238h2.24V35h-2.24Zm7.624.14c-.345 0-.625-.103-.84-.308-.205-.205-.308-.471-.308-.798 0-.345.103-.625.308-.84.215-.215.495-.322.84-.322.346 0 .621.107.826.322.215.215.322.495.322.84 0 .327-.107.593-.322.798-.205.205-.48.308-.826.308Zm9.165-.14c-.635 0-1.143-.182-1.526-.546-.383-.373-.574-.868-.574-1.484v-4.522h-2.212V27.3h2.212v-2.17h1.26v2.17h3.15v1.148h-3.15v4.522c0 .261.075.476.224.644a.834.834 0 0 0 .616.238h2.24V35h-2.24Zm7.624.112c-.616 0-1.152-.121-1.61-.364a2.586 2.586 0 0 1-1.05-1.05c-.242-.467-.364-1.022-.364-1.666v-1.764c0-.653.122-1.209.364-1.666a2.586 2.586 0 0 1 1.05-1.05c.458-.243.994-.364 1.61-.364.626 0 1.162.121 1.61.364.448.243.794.593 1.036 1.05.252.457.378 1.013.378 1.666v1.764c0 .644-.126 1.2-.378 1.666a2.471 2.471 0 0 1-1.05 1.05c-.448.243-.98.364-1.596.364Zm0-1.12c.551 0 .98-.154 1.288-.462.318-.308.476-.76.476-1.358v-2.044c0-.597-.158-1.05-.476-1.358-.308-.308-.737-.462-1.288-.462-.541 0-.97.154-1.288.462-.317.308-.476.76-.476 1.358v2.044c0 .597.159 1.05.476 1.358.318.308.747.462 1.288.462Zm6.155-3.052v-1.12h4.48v1.12h-4.48Zm10.634 4.2c-.606 0-1.138-.121-1.596-.364a2.679 2.679 0 0 1-1.05-1.064c-.252-.467-.378-1.017-.378-1.652v-1.82c0-.644.126-1.195.378-1.652a2.586 2.586 0 0 1 1.05-1.05c.458-.252.99-.378 1.596-.378.607 0 1.134.121 1.582.364.458.243.812.583 1.064 1.022.252.439.378.957.378 1.554v1.372h-4.816v.728c0 .57.164 1.022.49 1.358.327.327.761.49 1.302.49.467 0 .85-.089 1.148-.266.308-.187.495-.434.56-.742h1.26c-.084.644-.396 1.157-.938 1.54-.541.373-1.218.56-2.03.56Zm1.792-4.522V30.1c0-.607-.158-1.073-.476-1.4-.308-.336-.746-.504-1.316-.504-.569 0-1.012.168-1.33.504-.308.327-.462.793-.462 1.4v.392h3.682l-.098.126Zm6.155 4.522c-.765 0-1.381-.257-1.848-.77-.457-.513-.686-1.209-.686-2.086V30.03c0-.887.229-1.587.686-2.1.457-.513 1.073-.77 1.848-.77.635 0 1.148.173 1.54.518.392.345.588.807.588 1.386l-.28-.294h.28l-.028-1.75v-2.24h1.26V35h-1.26v-1.47h-.252l.252-.294c0 .588-.191 1.055-.574 1.4-.383.336-.891.504-1.526.504Zm.42-1.092c.523 0 .933-.163 1.232-.49.299-.327.448-.78.448-1.358v-2.1c0-.579-.149-1.031-.448-1.358-.299-.327-.709-.49-1.232-.49-.532 0-.947.14-1.246.42-.299.27-.448.723-.448 1.358v2.24c0 .625.149 1.078.448 1.358.299.28.714.42 1.246.42Zm6.477 3.472v-1.148h2.17c.438 0 .784-.126 1.036-.378.252-.243.378-.574.378-.994v-.7l.028-1.26h-.252l.238-.35c0 .56-.187.999-.56 1.316-.374.308-.873.462-1.498.462-.794 0-1.419-.252-1.876-.756-.458-.504-.686-1.195-.686-2.072v-1.624c0-.877.228-1.573.686-2.086.457-.513 1.082-.77 1.876-.77.625 0 1.124.163 1.498.49.373.327.56.77.56 1.33l-.238-.35h.238V27.3h1.246V35c0 .775-.243 1.386-.728 1.834-.476.457-1.13.686-1.96.686h-2.156Zm1.918-4.102c.522 0 .933-.163 1.232-.49.298-.327.448-.78.448-1.358V30.1c0-.579-.15-1.031-.448-1.358-.299-.327-.71-.49-1.232-.49-.532 0-.948.154-1.246.462-.29.308-.434.723-.434 1.246v1.75c0 .523.144.938.434 1.246.298.308.714.462 1.246.462Zm8.422 1.722c-.607 0-1.139-.121-1.596-.364a2.679 2.679 0 0 1-1.05-1.064c-.252-.467-.378-1.017-.378-1.652v-1.82c0-.644.126-1.195.378-1.652a2.586 2.586 0 0 1 1.05-1.05c.457-.252.989-.378 1.596-.378.607 0 1.134.121 1.582.364.457.243.812.583 1.064 1.022.252.439.378.957.378 1.554v1.372h-4.816v.728c0 .57.163 1.022.49 1.358.327.327.761.49 1.302.49.467 0 .849-.089 1.148-.266.308-.187.495-.434.56-.742h1.26c-.084.644-.397 1.157-.938 1.54-.541.373-1.218.56-2.03.56Zm1.792-4.522V30.1c0-.607-.159-1.073-.476-1.4-.308-.336-.747-.504-1.316-.504-.569 0-1.013.168-1.33.504-.308.327-.462.793-.462 1.4v.392h3.682l-.098.126Zm6.603 4.522c-.346 0-.626-.103-.84-.308-.206-.205-.308-.471-.308-.798 0-.345.102-.625.308-.84.214-.215.494-.322.84-.322.345 0 .62.107.826.322.214.215.322.495.322.84 0 .327-.108.593-.322.798-.206.205-.481.308-.826.308Zm8.086-.028c-.569 0-1.059-.084-1.47-.252a2.077 2.077 0 0 1-.924-.756c-.205-.336-.308-.742-.308-1.218h1.26c0 .355.126.635.378.84.252.196.607.294 1.064.294h.616c.467 0 .826-.103 1.078-.308.261-.205.392-.495.392-.868 0-.336-.075-.597-.224-.784-.149-.187-.378-.299-.686-.336l-2.128-.308c-.523-.075-.929-.29-1.218-.644-.289-.364-.434-.84-.434-1.428 0-.672.229-1.2.686-1.582.467-.383 1.106-.574 1.918-.574h.616c.747 0 1.353.187 1.82.56.476.364.733.845.77 1.442h-1.274c-.019-.27-.149-.495-.392-.672-.233-.177-.541-.266-.924-.266h-.616c-.429 0-.765.098-1.008.294-.243.196-.364.462-.364.798 0 .261.061.471.182.63.131.159.317.257.56.294l1.988.28c.653.093 1.143.331 1.47.714.327.383.49.91.49 1.582 0 .719-.238 1.279-.714 1.68-.467.392-1.129.588-1.988.588h-.616Zm5.791 2.408V27.3h1.26v1.47h.252l-.252.294c0-.588.191-1.05.574-1.386.382-.345.891-.518 1.526-.518.513 0 .956.117 1.33.35.382.224.676.55.882.98.214.43.322.938.322 1.526v2.254c0 .588-.103 1.097-.308 1.526-.206.43-.5.76-.882.994-.374.233-.822.35-1.344.35-.626 0-1.134-.173-1.526-.518-.383-.345-.574-.807-.574-1.386l.252.294h-.28l.028 1.75v2.24h-1.26Zm2.94-3.472c.532 0 .947-.14 1.246-.42.298-.28.448-.733.448-1.358v-2.24c0-.635-.15-1.087-.448-1.358-.299-.28-.714-.42-1.246-.42-.514 0-.924.163-1.232.49-.299.327-.448.78-.448 1.358v2.1c0 .579.149 1.031.448 1.358.308.327.718.49 1.232.49Zm7.694 1.092c-.793 0-1.423-.22-1.89-.658-.466-.448-.7-1.031-.7-1.75 0-.476.108-.891.322-1.246.215-.355.514-.63.896-.826a2.743 2.743 0 0 1 1.316-.308h2.38v-.602c0-.504-.135-.877-.406-1.12-.27-.252-.681-.378-1.232-.378-.485 0-.877.089-1.176.266-.298.177-.457.425-.476.742h-1.26c.047-.607.327-1.106.84-1.498.523-.401 1.214-.602 2.072-.602.934 0 1.648.224 2.142.672.504.448.756 1.073.756 1.876V35h-1.246v-1.4h-.21l.196-.28c0 .373-.093.695-.28.966-.186.27-.452.48-.798.63-.345.15-.76.224-1.246.224Zm.308-1.064c.616 0 1.106-.15 1.47-.448.364-.299.546-.705.546-1.218v-1.078h-2.24c-.41 0-.746.126-1.008.378-.252.243-.378.57-.378.98 0 .43.14.77.42 1.022.29.243.686.364 1.19.364Zm8.871 1.064c-.616 0-1.158-.117-1.624-.35a2.605 2.605 0 0 1-1.078-1.008c-.252-.448-.378-.975-.378-1.582v-2.1c0-.616.126-1.143.378-1.582a2.6 2.6 0 0 1 1.078-1.008c.466-.233 1.008-.35 1.624-.35.886 0 1.6.238 2.142.714.55.476.84 1.125.868 1.946h-1.26c-.028-.495-.196-.873-.504-1.134-.308-.27-.724-.406-1.246-.406-.551 0-.994.159-1.33.476-.327.308-.49.751-.49 1.33V32.2c0 .579.163 1.027.49 1.344.336.317.779.476 1.33.476.522 0 .938-.135 1.246-.406.308-.27.476-.649.504-1.134h1.26c-.028.821-.318 1.47-.868 1.946-.542.476-1.256.714-2.142.714Zm8.282 0c-.606 0-1.138-.121-1.596-.364a2.679 2.679 0 0 1-1.05-1.064c-.252-.467-.378-1.017-.378-1.652v-1.82c0-.644.126-1.195.378-1.652a2.586 2.586 0 0 1 1.05-1.05c.458-.252.99-.378 1.596-.378.607 0 1.134.121 1.582.364.458.243.812.583 1.064 1.022.252.439.378.957.378 1.554v1.372h-4.816v.728c0 .57.164 1.022.49 1.358.327.327.761.49 1.302.49.467 0 .85-.089 1.148-.266.308-.187.495-.434.56-.742h1.26c-.084.644-.396 1.157-.938 1.54-.541.373-1.218.56-2.03.56Zm1.792-4.522V30.1c0-.607-.158-1.073-.476-1.4-.308-.336-.746-.504-1.316-.504-.569 0-1.012.168-1.33.504-.308.327-.462.793-.462 1.4v.392h3.682l-.098.126Z" fill="#333238"/><path stroke="#7B58CF" stroke-width="2" stroke-linecap="round" d="M98 63h38m-38 0V49m38 14V49"/><rect x="83.5" y="72" width="67" height="24" rx="4" fill="#C3E6CD"/><path d="M95.416 88.12c-.52 0-.976-.104-1.368-.312a2.296 2.296 0 0 1-.9-.912c-.216-.4-.324-.872-.324-1.416v-1.56c0-.552.108-1.024.324-1.416.216-.392.516-.692.9-.9.392-.216.848-.324 1.368-.324.52 0 .972.104 1.356.312.392.208.696.5.912.876.216.376.324.82.324 1.332v1.176H93.88v.624c0 .488.14.876.42 1.164.28.28.652.42 1.116.42.4 0 .728-.076.984-.228.264-.16.424-.372.48-.636h1.08c-.072.552-.34.992-.804 1.32-.464.32-1.044.48-1.74.48Zm1.536-3.876V83.8c0-.52-.136-.92-.408-1.2-.264-.288-.64-.432-1.128-.432-.488 0-.868.144-1.14.432-.264.28-.396.68-.396 1.2v.336h3.156l-.084.108Zm6.62 3.756a2.13 2.13 0 0 1-1.008-.228 1.639 1.639 0 0 1-.672-.648 1.95 1.95 0 0 1-.24-.984v-5.916h-2.28v-.984h3.36v6.9c0 .272.076.488.228.648.152.152.356.228.612.228h2.04V88h-2.04Zm6.235.12c-.52 0-.976-.104-1.368-.312a2.296 2.296 0 0 1-.9-.912c-.216-.4-.324-.872-.324-1.416v-1.56c0-.552.108-1.024.324-1.416.216-.392.516-.692.9-.9.392-.216.848-.324 1.368-.324.52 0 .972.104 1.356.312.392.208.696.5.912.876.216.376.324.82.324 1.332v1.176h-4.128v.624c0 .488.14.876.42 1.164.28.28.652.42 1.116.42.4 0 .728-.076.984-.228.264-.16.424-.372.48-.636h1.08c-.072.552-.34.992-.804 1.32-.464.32-1.044.48-1.74.48Zm1.536-3.876V83.8c0-.52-.136-.92-.408-1.2-.264-.288-.64-.432-1.128-.432-.488 0-.868.144-1.14.432-.264.28-.396.68-.396 1.2v.336h3.156l-.084.108ZM114.122 88v-6.6h.936v.876h.24l-.228.204c0-.352.1-.64.3-.864.208-.224.48-.336.816-.336.384 0 .688.144.912.432.224.288.336.664.336 1.128l-.324-.624h.504l-.276.264c.008-.368.116-.66.324-.876.208-.216.484-.324.828-.324.424 0 .76.16 1.008.48.256.312.384.72.384 1.224V88h-1.008v-5.028c0-.264-.064-.472-.192-.624a.64.64 0 0 0-.528-.24.64.64 0 0 0-.516.228c-.128.152-.192.36-.192.624V88h-.888v-5.028c0-.264-.064-.472-.192-.624a.627.627 0 0 0-.516-.24c-.224 0-.4.076-.528.228-.128.152-.192.36-.192.624V88h-1.008Zm10.076.12c-.52 0-.976-.104-1.368-.312a2.296 2.296 0 0 1-.9-.912c-.216-.4-.324-.872-.324-1.416v-1.56c0-.552.108-1.024.324-1.416.216-.392.516-.692.9-.9.392-.216.848-.324 1.368-.324.52 0 .972.104 1.356.312.392.208.696.5.912.876.216.376.324.82.324 1.332v1.176h-4.128v.624c0 .488.14.876.42 1.164.28.28.652.42 1.116.42.4 0 .728-.076.984-.228.264-.16.424-.372.48-.636h1.08c-.072.552-.34.992-.804 1.32-.464.32-1.044.48-1.74.48Zm1.536-3.876V83.8c0-.52-.136-.92-.408-1.2-.264-.288-.64-.432-1.128-.432-.488 0-.868.144-1.14.432-.264.28-.396.68-.396 1.2v.336h3.156l-.084.108ZM128.897 88v-6.6h1.08v1.26h.228l-.228.252c0-.52.156-.92.468-1.2.312-.288.744-.432 1.296-.432.664 0 1.192.204 1.584.612.392.408.588.964.588 1.668V88h-1.08v-4.248c0-.504-.128-.888-.384-1.152-.248-.272-.588-.408-1.02-.408-.448 0-.804.14-1.068.42-.256.28-.384.676-.384 1.188V88h-1.08Zm10.351 0c-.544 0-.98-.156-1.308-.468-.328-.32-.492-.744-.492-1.272v-3.876h-1.896V81.4h1.896v-1.86h1.08v1.86h2.7v.984h-2.7v3.876a.8.8 0 0 0 .192.552.714.714 0 0 0 .528.204h1.92V88h-1.92Z" fill="#333238"/></svg>