<svg width="492" height="430" viewBox="0 0 492 430" fill="none" xmlns="http://www.w3.org/2000/svg"><rect width="492" height="430" rx="4" fill="#FBFAFD"/><rect x="82" y="137" width="146" height="24" rx="12" fill="#7B58CF"/><path d="M93.592 153.141c-1.781 0-2.983-1.354-2.983-3.375 0-2.051 1.202-3.399 2.983-3.399 1.265 0 2.297.668 2.654 1.811l-1.014.287c-.193-.674-.779-1.154-1.64-1.154-1.307 0-1.91 1.148-1.91 2.455 0 1.289.603 2.431 1.91 2.431.879 0 1.476-.498 1.67-1.207l1.007.287c-.351 1.166-1.394 1.864-2.677 1.864Zm6.855 0c-1.781 0-2.982-1.354-2.982-3.375 0-2.051 1.201-3.399 2.982-3.399 1.787 0 2.994 1.348 2.994 3.399 0 2.021-1.207 3.375-2.994 3.375Zm0-.944c1.324 0 1.928-1.142 1.928-2.431 0-1.301-.604-2.455-1.928-2.455-1.306 0-1.91 1.148-1.91 2.455 0 1.289.604 2.431 1.91 2.431Zm5.584-3.123V153h-1.054v-6.551h1.013l.006 1.588h-.146c.398-1.207 1.16-1.67 2.15-1.67 1.324 0 2.221.815 2.221 2.473V153h-1.061v-4.072c0-1.008-.562-1.612-1.476-1.612-.944 0-1.653.639-1.653 1.758Zm8.625-2.625v.903h-3.386v-.903h3.386Zm-2.402-1.558h1.055v6.41c0 .586.216.844.773.844.135 0 .363-.036.539-.071l.217.891a2.547 2.547 0 0 1-.785.117c-1.131 0-1.799-.627-1.799-1.699v-6.492Zm6.387 8.25c-1.899 0-3.071-1.348-3.071-3.364 0-2.009 1.16-3.41 2.948-3.41 1.388 0 2.853.856 2.853 3.276v.439h-5.086v-.891h4.518l-.492.329c0-1.29-.61-2.215-1.793-2.215-1.184 0-1.881.978-1.881 2.045v.591c0 1.459.808 2.262 2.009 2.262.774 0 1.354-.34 1.6-1.008l1.02.282c-.305.99-1.284 1.664-2.625 1.664Zm3.427-.141 2.584-3.768-.006.809-2.443-3.592h1.231l.814 1.272c.422.656.697 1.218 1.025 1.746h-.55c.334-.528.562-1.09.99-1.746l.832-1.272h1.207l-2.455 3.639v-.779l2.56 3.691h-1.224l-.961-1.471c-.416-.638-.68-1.177-1.002-1.687h.557c-.323.51-.545 1.049-.967 1.687l-.973 1.471h-1.219Zm9.909-6.551v.903h-3.387v-.903h3.387Zm-2.403-1.558h1.055v6.41c0 .586.217.844.773.844.135 0 .364-.036.539-.071l.217.891a2.542 2.542 0 0 1-.785.117c-1.131 0-1.799-.627-1.799-1.699v-6.492Zm5.971 8.191c-1.324 0-2.221-.814-2.221-2.473v-4.16h1.055v4.072c0 1.008.568 1.612 1.482 1.612.938 0 1.647-.639 1.647-1.758v-3.926h1.06V153h-1.019v-1.588h.14c-.404 1.231-1.183 1.67-2.144 1.67Zm6.715.07c-1.242 0-2.233-.726-2.233-2.015 0-1.5 1.336-1.776 2.549-1.928 1.166-.147 1.682-.111 1.682-.598v-.035c0-.814-.463-1.283-1.371-1.283-.944 0-1.453.504-1.658.961l-1.014-.334c.504-1.19 1.629-1.553 2.642-1.553.879 0 2.455.27 2.455 2.315V153h-1.037v-.891h-.07c-.223.463-.838 1.043-1.945 1.043Zm.181-.931c1.166 0 1.817-.785 1.817-1.588v-.908c-.176.205-1.324.322-1.729.375-.767.099-1.441.345-1.441 1.089 0 .68.568 1.032 1.353 1.032Zm6.194.826c-.985 0-1.471-.551-1.471-1.5v-7.277h1.055v7.013c0 .604.105.821.545.821.228 0 .322-.018.422-.047l.21.89c-.187.053-.48.1-.761.1Zm7.787-6.598v.903h-3.387v-.903h3.387Zm-2.402-1.558h1.054v6.41c0 .586.217.844.774.844.134 0 .363-.036.539-.071l.217.891a2.549 2.549 0 0 1-.786.117c-1.13 0-1.798-.627-1.798-1.699v-6.492Zm6.298 8.25c-1.781 0-2.982-1.354-2.982-3.375 0-2.051 1.201-3.399 2.982-3.399 1.787 0 2.994 1.348 2.994 3.399 0 2.021-1.207 3.375-2.994 3.375Zm0-.944c1.325 0 1.928-1.142 1.928-2.431 0-1.301-.603-2.455-1.928-2.455-1.306 0-1.91 1.148-1.91 2.455 0 1.289.604 2.431 1.91 2.431Zm5.52-1.552v-1.307h.193l2.801-2.889h1.307l-3.03 3.112h-.117l-1.154 1.084Zm-.99 2.355v-8.73h1.054V153h-1.054Zm4.142 0-2.508-3.205.75-.744 3.112 3.949h-1.354Zm4.928.141c-1.898 0-3.07-1.348-3.07-3.364 0-2.009 1.16-3.41 2.947-3.41 1.389 0 2.853.856 2.853 3.276v.439h-5.086v-.891h4.518l-.492.329c0-1.29-.609-2.215-1.793-2.215s-1.881.978-1.881 2.045v.591c0 1.459.809 2.262 2.01 2.262.773 0 1.353-.34 1.599-1.008l1.02.282c-.305.99-1.283 1.664-2.625 1.664Zm5.297-4.067V153h-1.055v-6.551h1.014l.006 1.588h-.147c.399-1.207 1.16-1.67 2.151-1.67 1.324 0 2.22.815 2.22 2.473V153h-1.06v-4.072c0-1.008-.563-1.612-1.477-1.612-.943 0-1.652.639-1.652 1.758Zm10.476 0V153h-1.054v-6.551h1.013l.006 1.588h-.146c.398-1.207 1.16-1.67 2.15-1.67 1.324 0 2.221.815 2.221 2.473V153h-1.061v-4.072c0-1.008-.562-1.612-1.476-1.612-.944 0-1.653.639-1.653 1.758Zm7.881 4.078c-1.242 0-2.232-.726-2.232-2.015 0-1.5 1.336-1.776 2.549-1.928 1.166-.147 1.681-.111 1.681-.598v-.035c0-.814-.463-1.283-1.371-1.283-.943 0-1.453.504-1.658.961l-1.014-.334c.504-1.19 1.629-1.553 2.643-1.553.879 0 2.455.27 2.455 2.315V153h-1.037v-.891h-.07c-.223.463-.838 1.043-1.946 1.043Zm.182-.931c1.166 0 1.816-.785 1.816-1.588v-.908c-.175.205-1.324.322-1.728.375-.768.099-1.442.345-1.442 1.089 0 .68.569 1.032 1.354 1.032Zm4.723.779v-6.551h1.025l.006 1.465h-.082c.263-1.06 1.066-1.582 1.916-1.582.949 0 1.553.645 1.728 1.594h-.14c.234-.979 1.101-1.594 2.144-1.594 1.137 0 2.063.732 2.063 2.25V153h-1.061v-4.389c0-.943-.615-1.318-1.318-1.318-.885 0-1.424.603-1.424 1.43V153h-1.055v-4.494c0-.727-.545-1.213-1.283-1.213-.767 0-1.465.539-1.465 1.582V153h-1.054Zm13.265.141c-1.898 0-3.07-1.348-3.07-3.364 0-2.009 1.16-3.41 2.947-3.41 1.389 0 2.854.856 2.854 3.276v.439h-5.086v-.891h4.517l-.492.329c0-1.29-.609-2.215-1.793-2.215-1.183 0-1.881.978-1.881 2.045v.591c0 1.459.809 2.262 2.01 2.262.773 0 1.354-.34 1.6-1.008l1.019.282c-.305.99-1.283 1.664-2.625 1.664Z" fill="#fff"/><rect x="68" y="390" width="146" height="24" rx="12" fill="#7B58CF"/><path d="M79.592 406.141c-1.781 0-2.983-1.354-2.983-3.375 0-2.051 1.202-3.399 2.983-3.399 1.265 0 2.297.668 2.654 1.811l-1.014.287c-.193-.674-.779-1.154-1.64-1.154-1.307 0-1.91 1.148-1.91 2.455 0 1.289.603 2.431 1.91 2.431.879 0 1.476-.498 1.67-1.207l1.007.287c-.351 1.166-1.394 1.864-2.677 1.864Zm6.855 0c-1.781 0-2.982-1.354-2.982-3.375 0-2.051 1.201-3.399 2.982-3.399 1.787 0 2.994 1.348 2.994 3.399 0 2.021-1.207 3.375-2.994 3.375Zm0-.944c1.325 0 1.928-1.142 1.928-2.431 0-1.301-.603-2.455-1.928-2.455-1.306 0-1.91 1.148-1.91 2.455 0 1.289.604 2.431 1.91 2.431Zm5.584-3.123V406h-1.054v-6.551h1.013l.006 1.588h-.146c.398-1.207 1.16-1.67 2.15-1.67 1.324 0 2.22.815 2.22 2.473V406h-1.06v-4.072c0-1.008-.562-1.612-1.476-1.612-.944 0-1.653.639-1.653 1.758Zm8.625-2.625v.903h-3.387v-.903h3.387Zm-2.402-1.558h1.055v6.41c0 .586.216.844.773.844.135 0 .363-.036.539-.071l.217.891a2.547 2.547 0 0 1-.785.117c-1.131 0-1.8-.627-1.8-1.699v-6.492Zm6.387 8.25c-1.899 0-3.071-1.348-3.071-3.364 0-2.009 1.16-3.41 2.948-3.41 1.388 0 2.853.856 2.853 3.276v.439h-5.086v-.891h4.518l-.492.329c0-1.29-.61-2.215-1.793-2.215-1.184 0-1.881.978-1.881 2.045v.591c0 1.459.808 2.262 2.009 2.262.774 0 1.354-.34 1.6-1.008l1.02.282c-.305.99-1.284 1.664-2.625 1.664Zm3.427-.141 2.584-3.768-.006.809-2.443-3.592h1.231l.814 1.272c.422.656.697 1.218 1.025 1.746h-.55c.334-.528.562-1.09.99-1.746l.832-1.272h1.207l-2.455 3.639v-.779l2.56 3.691h-1.224l-.961-1.471c-.416-.638-.68-1.177-1.002-1.687h.557c-.323.51-.545 1.049-.967 1.687l-.973 1.471h-1.219Zm9.909-6.551v.903h-3.387v-.903h3.387Zm-2.403-1.558h1.055v6.41c0 .586.217.844.773.844.135 0 .364-.036.539-.071l.217.891a2.542 2.542 0 0 1-.785.117c-1.131 0-1.799-.627-1.799-1.699v-6.492Zm5.971 8.191c-1.324 0-2.221-.814-2.221-2.473v-4.16h1.055v4.072c0 1.008.568 1.612 1.482 1.612.938 0 1.647-.639 1.647-1.758v-3.926h1.06V406h-1.019v-1.588h.14c-.404 1.231-1.183 1.67-2.144 1.67Zm6.715.07c-1.242 0-2.233-.726-2.233-2.015 0-1.5 1.336-1.776 2.549-1.928 1.166-.147 1.682-.111 1.682-.598v-.035c0-.814-.463-1.283-1.371-1.283-.944 0-1.453.504-1.658.961l-1.014-.334c.504-1.19 1.629-1.553 2.642-1.553.879 0 2.455.27 2.455 2.315V406h-1.037v-.891h-.07c-.223.463-.838 1.043-1.945 1.043Zm.181-.931c1.166 0 1.817-.785 1.817-1.588v-.908c-.176.205-1.324.322-1.729.375-.767.099-1.441.345-1.441 1.089 0 .68.568 1.032 1.353 1.032Zm6.194.826c-.985 0-1.471-.551-1.471-1.5v-7.277h1.055v7.013c0 .604.105.821.545.821.228 0 .322-.018.422-.047l.21.89c-.187.053-.48.1-.761.1Zm7.787-6.598v.903h-3.387v-.903h3.387Zm-2.402-1.558h1.054v6.41c0 .586.217.844.774.844.134 0 .363-.036.539-.071l.217.891a2.549 2.549 0 0 1-.786.117c-1.13 0-1.798-.627-1.798-1.699v-6.492Zm6.298 8.25c-1.781 0-2.982-1.354-2.982-3.375 0-2.051 1.201-3.399 2.982-3.399 1.787 0 2.994 1.348 2.994 3.399 0 2.021-1.207 3.375-2.994 3.375Zm0-.944c1.325 0 1.928-1.142 1.928-2.431 0-1.301-.603-2.455-1.928-2.455-1.306 0-1.91 1.148-1.91 2.455 0 1.289.604 2.431 1.91 2.431Zm5.52-1.552v-1.307h.193l2.801-2.889h1.307l-3.03 3.112h-.117l-1.154 1.084Zm-.99 2.355v-8.73h1.054V406h-1.054Zm4.142 0-2.508-3.205.75-.744 3.112 3.949h-1.354Zm4.928.141c-1.898 0-3.07-1.348-3.07-3.364 0-2.009 1.16-3.41 2.947-3.41 1.389 0 2.853.856 2.853 3.276v.439h-5.086v-.891h4.518l-.492.329c0-1.29-.609-2.215-1.793-2.215s-1.881.978-1.881 2.045v.591c0 1.459.809 2.262 2.01 2.262.773 0 1.353-.34 1.599-1.008l1.02.282c-.305.99-1.283 1.664-2.625 1.664Zm5.297-4.067V406h-1.055v-6.551h1.014l.006 1.588h-.147c.399-1.207 1.16-1.67 2.151-1.67 1.324 0 2.22.815 2.22 2.473V406h-1.06v-4.072c0-1.008-.563-1.612-1.477-1.612-.943 0-1.652.639-1.652 1.758Zm10.476 0V406h-1.054v-6.551h1.013l.006 1.588h-.146c.398-1.207 1.16-1.67 2.15-1.67 1.324 0 2.221.815 2.221 2.473V406h-1.061v-4.072c0-1.008-.562-1.612-1.476-1.612-.944 0-1.653.639-1.653 1.758Zm7.881 4.078c-1.242 0-2.232-.726-2.232-2.015 0-1.5 1.336-1.776 2.549-1.928 1.166-.147 1.681-.111 1.681-.598v-.035c0-.814-.463-1.283-1.371-1.283-.943 0-1.453.504-1.658.961l-1.014-.334c.504-1.19 1.629-1.553 2.643-1.553.879 0 2.455.27 2.455 2.315V406h-1.037v-.891h-.07c-.223.463-.838 1.043-1.946 1.043Zm.182-.931c1.166 0 1.816-.785 1.816-1.588v-.908c-.175.205-1.324.322-1.728.375-.768.099-1.442.345-1.442 1.089 0 .68.569 1.032 1.354 1.032Zm4.723.779v-6.551h1.025l.006 1.465h-.082c.263-1.06 1.066-1.582 1.916-1.582.949 0 1.553.645 1.728 1.594h-.14c.234-.979 1.101-1.594 2.144-1.594 1.137 0 2.063.732 2.063 2.25V406h-1.061v-4.389c0-.943-.615-1.318-1.318-1.318-.885 0-1.424.603-1.424 1.43V406h-1.055v-4.494c0-.727-.545-1.213-1.283-1.213-.767 0-1.465.539-1.465 1.582V406h-1.054Zm13.265.141c-1.898 0-3.07-1.348-3.07-3.364 0-2.009 1.16-3.41 2.947-3.41 1.389 0 2.854.856 2.854 3.276v.439h-5.086v-.891h4.517l-.492.329c0-1.29-.609-2.215-1.793-2.215-1.183 0-1.881.978-1.881 2.045v.591c0 1.459.809 2.262 2.01 2.262.773 0 1.354-.34 1.6-1.008l1.019.282c-.305.99-1.283 1.664-2.625 1.664Z" fill="#fff"/><rect x="314" y="137" width="159" height="24" rx="12" fill="#7B58CF"/><path d="M325.592 153.141c-1.781 0-2.983-1.354-2.983-3.375 0-2.051 1.202-3.399 2.983-3.399 1.265 0 2.297.668 2.654 1.811l-1.014.287c-.193-.674-.779-1.154-1.64-1.154-1.307 0-1.91 1.148-1.91 2.455 0 1.289.603 2.431 1.91 2.431.879 0 1.476-.498 1.67-1.207l1.008.287c-.352 1.166-1.395 1.864-2.678 1.864Zm6.855 0c-1.781 0-2.982-1.354-2.982-3.375 0-2.051 1.201-3.399 2.982-3.399 1.787 0 2.994 1.348 2.994 3.399 0 2.021-1.207 3.375-2.994 3.375Zm0-.944c1.324 0 1.928-1.142 1.928-2.431 0-1.301-.604-2.455-1.928-2.455-1.306 0-1.91 1.148-1.91 2.455 0 1.289.604 2.431 1.91 2.431Zm5.584-3.123V153h-1.054v-6.551h1.013l.006 1.588h-.146c.398-1.207 1.16-1.67 2.15-1.67 1.324 0 2.221.815 2.221 2.473V153h-1.061v-4.072c0-1.008-.562-1.612-1.476-1.612-.944 0-1.653.639-1.653 1.758Zm8.274 4.067c-1.348 0-2.285-.598-2.52-1.729l1.002-.24c.188.721.721 1.043 1.506 1.043.914 0 1.5-.451 1.5-.99 0-.452-.316-.75-.961-.903l-1.09-.258c-1.189-.281-1.758-.867-1.758-1.787 0-1.125 1.032-1.91 2.426-1.91 1.348 0 2.057.656 2.356 1.576l-.955.246c-.182-.468-.551-.925-1.395-.925-.779 0-1.365.404-1.365.949 0 .486.334.756 1.101.937l.991.235c1.189.281 1.746.873 1.746 1.769 0 1.149-1.049 1.987-2.584 1.987Zm6.691-6.692v.903h-3.387v-.903h3.387Zm-2.402-1.558h1.054v6.41c0 .586.217.844.774.844.135 0 .363-.036.539-.071l.217.891a2.547 2.547 0 0 1-.785.117c-1.131 0-1.799-.627-1.799-1.699v-6.492Zm5.642 8.261c-1.242 0-2.232-.726-2.232-2.015 0-1.5 1.336-1.776 2.549-1.928 1.166-.147 1.681-.111 1.681-.598v-.035c0-.814-.463-1.283-1.371-1.283-.943 0-1.453.504-1.658.961l-1.014-.334c.504-1.19 1.629-1.553 2.643-1.553.879 0 2.455.27 2.455 2.315V153h-1.037v-.891h-.07c-.223.463-.838 1.043-1.946 1.043Zm.182-.931c1.166 0 1.816-.785 1.816-1.588v-.908c-.175.205-1.324.322-1.728.375-.768.099-1.442.345-1.442 1.089 0 .68.569 1.032 1.354 1.032Zm5.777-3.147V153h-1.054v-6.551h1.013l.006 1.588h-.146c.398-1.207 1.16-1.67 2.15-1.67 1.324 0 2.221.815 2.221 2.473V153h-1.061v-4.072c0-1.008-.562-1.612-1.476-1.612-.944 0-1.653.639-1.653 1.758Zm8.625-2.625v.903h-3.386v-.903h3.386Zm-2.402-1.558h1.055v6.41c0 .586.216.844.773.844.135 0 .363-.036.539-.071l.217.891a2.547 2.547 0 0 1-.785.117c-1.131 0-1.799-.627-1.799-1.699v-6.492Zm9.703 1.558v.903h-3.387v-.903h3.387Zm-2.402-1.558h1.054v6.41c0 .586.217.844.774.844.135 0 .363-.036.539-.071l.217.891a2.547 2.547 0 0 1-.785.117c-1.131 0-1.799-.627-1.799-1.699v-6.492Zm6.299 8.25c-1.782 0-2.983-1.354-2.983-3.375 0-2.051 1.201-3.399 2.983-3.399 1.787 0 2.994 1.348 2.994 3.399 0 2.021-1.207 3.375-2.994 3.375Zm0-.944c1.324 0 1.927-1.142 1.927-2.431 0-1.301-.603-2.455-1.927-2.455-1.307 0-1.911 1.148-1.911 2.455 0 1.289.604 2.431 1.911 2.431Zm5.519-1.552v-1.307h.193l2.801-2.889h1.307l-3.029 3.112h-.118l-1.154 1.084Zm-.99 2.355v-8.73h1.055V153h-1.055Zm4.142 0-2.507-3.205.75-.744 3.111 3.949h-1.354Zm4.928.141c-1.898 0-3.07-1.348-3.07-3.364 0-2.009 1.16-3.41 2.947-3.41 1.389 0 2.854.856 2.854 3.276v.439h-5.086v-.891h4.517l-.492.329c0-1.29-.609-2.215-1.793-2.215-1.183 0-1.881.978-1.881 2.045v.591c0 1.459.809 2.262 2.01 2.262.773 0 1.354-.34 1.6-1.008l1.019.282c-.304.99-1.283 1.664-2.625 1.664Zm5.297-4.067V153h-1.055v-6.551h1.014l.006 1.588h-.147c.399-1.207 1.161-1.67 2.151-1.67 1.324 0 2.221.815 2.221 2.473V153h-1.061v-4.072c0-1.008-.563-1.612-1.477-1.612-.943 0-1.652.639-1.652 1.758Zm9.422 3.926v-6.551h1.019v1.008h.071c.24-.662.92-1.102 1.699-1.102.152 0 .41.012.533.018v1.061a3.922 3.922 0 0 0-.633-.059c-.943 0-1.634.639-1.634 1.523V153h-1.055Zm7.078.141c-1.898 0-3.07-1.348-3.07-3.364 0-2.009 1.16-3.41 2.947-3.41 1.389 0 2.854.856 2.854 3.276v.439h-5.086v-.891h4.517l-.492.329c0-1.29-.609-2.215-1.793-2.215s-1.881.978-1.881 2.045v.591c0 1.459.809 2.262 2.01 2.262.773 0 1.353-.34 1.6-1.008l1.019.282c-.305.99-1.283 1.664-2.625 1.664Zm7.289-6.692v.903h-3.855v-.903h3.855ZM422.137 153v-7.424c0-1.137.908-1.717 1.863-1.717.498 0 .826.106.984.176l-.293.903c-.111-.036-.275-.1-.568-.1-.65 0-.932.34-.932.973V153h-1.054Zm6.597.141c-1.898 0-3.07-1.348-3.07-3.364 0-2.009 1.16-3.41 2.947-3.41 1.389 0 2.854.856 2.854 3.276v.439h-5.086v-.891h4.517l-.492.329c0-1.29-.609-2.215-1.793-2.215-1.183 0-1.881.978-1.881 2.045v.591c0 1.459.809 2.262 2.01 2.262.774 0 1.354-.34 1.6-1.008l1.019.282c-.304.99-1.283 1.664-2.625 1.664Zm4.243-.141v-6.551h1.019v1.008h.07c.241-.662.92-1.102 1.7-1.102.152 0 .41.012.533.018v1.061a3.95 3.95 0 0 0-.633-.059c-.943 0-1.635.639-1.635 1.523V153h-1.054Zm7.078.141c-1.899 0-3.071-1.348-3.071-3.364 0-2.009 1.161-3.41 2.948-3.41 1.388 0 2.853.856 2.853 3.276v.439h-5.086v-.891h4.518l-.492.329c0-1.29-.61-2.215-1.793-2.215-1.184 0-1.881.978-1.881 2.045v.591c0 1.459.808 2.262 2.01 2.262.773 0 1.353-.34 1.599-1.008l1.02.282c-.305.99-1.284 1.664-2.625 1.664Zm5.297-4.067V153h-1.055v-6.551h1.014l.005 1.588h-.146c.398-1.207 1.16-1.67 2.15-1.67 1.325 0 2.221.815 2.221 2.473V153h-1.061v-4.072c0-1.008-.562-1.612-1.476-1.612-.943 0-1.652.639-1.652 1.758Zm8.712 4.067c-1.781 0-2.982-1.354-2.982-3.375 0-2.051 1.201-3.399 2.982-3.399 1.266 0 2.297.668 2.655 1.811l-1.014.287c-.193-.674-.779-1.154-1.641-1.154-1.306 0-1.91 1.148-1.91 2.455 0 1.289.604 2.431 1.91 2.431.879 0 1.477-.498 1.67-1.207l1.008.287c-.351 1.166-1.394 1.864-2.678 1.864Zm6.944 0c-1.899 0-3.07-1.348-3.07-3.364 0-2.009 1.16-3.41 2.947-3.41 1.388 0 2.853.856 2.853 3.276v.439h-5.086v-.891h4.518l-.492.329c0-1.29-.61-2.215-1.793-2.215-1.184 0-1.881.978-1.881 2.045v.591c0 1.459.808 2.262 2.01 2.262.773 0 1.353-.34 1.599-1.008l1.02.282c-.305.99-1.283 1.664-2.625 1.664Z" fill="#fff"/><rect x="279" y="390" width="161" height="24" rx="12" fill="#7B58CF"/><path d="M290.152 406.141c-1.347 0-2.285-.598-2.519-1.729l1.002-.24c.187.721.72 1.043 1.506 1.043.914 0 1.5-.451 1.5-.99 0-.452-.317-.75-.961-.903l-1.09-.258c-1.19-.281-1.758-.867-1.758-1.787 0-1.125 1.031-1.91 2.426-1.91 1.347 0 2.056.656 2.355 1.576l-.955.246c-.181-.468-.551-.925-1.394-.925-.78 0-1.366.404-1.366.949 0 .486.334.756 1.102.937l.99.235c1.19.281 1.746.873 1.746 1.769 0 1.149-1.048 1.987-2.584 1.987Zm6.868 0c-1.899 0-3.071-1.348-3.071-3.364 0-2.009 1.16-3.41 2.947-3.41 1.389 0 2.854.856 2.854 3.276v.439h-5.086v-.891h4.518l-.493.329c0-1.29-.609-2.215-1.793-2.215-1.183 0-1.88.978-1.88 2.045v.591c0 1.459.808 2.262 2.009 2.262.774 0 1.354-.34 1.6-1.008l1.02.282c-.305.99-1.284 1.664-2.625 1.664Zm4.242-.141v-6.551h1.025l.006 1.465h-.082c.264-1.06 1.066-1.582 1.916-1.582.949 0 1.553.645 1.728 1.594h-.14c.234-.979 1.101-1.594 2.144-1.594 1.137 0 2.063.732 2.063 2.25V406h-1.061v-4.389c0-.943-.615-1.318-1.318-1.318-.885 0-1.424.603-1.424 1.43V406h-1.055v-4.494c0-.727-.544-1.213-1.283-1.213-.767 0-1.465.539-1.465 1.582V406h-1.054Zm12.345.152c-1.242 0-2.232-.726-2.232-2.015 0-1.5 1.336-1.776 2.549-1.928 1.166-.147 1.681-.111 1.681-.598v-.035c0-.814-.462-1.283-1.371-1.283-.943 0-1.453.504-1.658.961l-1.014-.334c.504-1.19 1.629-1.553 2.643-1.553.879 0 2.455.27 2.455 2.315V406h-1.037v-.891h-.07c-.223.463-.838 1.043-1.946 1.043Zm.182-.931c1.166 0 1.816-.785 1.816-1.588v-.908c-.175.205-1.324.322-1.728.375-.768.099-1.441.345-1.441 1.089 0 .68.568 1.032 1.353 1.032Zm5.777-3.147V406h-1.054v-6.551h1.013l.006 1.588h-.146c.398-1.207 1.16-1.67 2.15-1.67 1.324 0 2.221.815 2.221 2.473V406h-1.061v-4.072c0-1.008-.562-1.612-1.476-1.612-.944 0-1.653.639-1.653 1.758Zm8.625-2.625v.903h-3.386v-.903h3.386Zm-2.402-1.558h1.055v6.41c0 .586.217.844.773.844.135 0 .363-.036.539-.071l.217.891a2.547 2.547 0 0 1-.785.117c-1.131 0-1.799-.627-1.799-1.699v-6.492Zm3.75 8.109v-6.551h1.055V406h-1.055Zm.533-7.623c-.398 0-.732-.311-.732-.697 0-.387.334-.698.732-.698.405 0 .739.311.739.698 0 .386-.334.697-.739.697Zm5.039 7.764c-1.781 0-2.982-1.354-2.982-3.375 0-2.051 1.201-3.399 2.982-3.399 1.266 0 2.297.668 2.655 1.811l-1.014.287c-.193-.674-.779-1.154-1.641-1.154-1.306 0-1.91 1.148-1.91 2.455 0 1.289.604 2.431 1.91 2.431.879 0 1.477-.498 1.67-1.207l1.008.287c-.351 1.166-1.394 1.864-2.678 1.864Zm10.143-6.692v.903h-3.387v-.903h3.387Zm-2.402-1.558h1.054v6.41c0 .586.217.844.774.844.134 0 .363-.036.539-.071l.217.891a2.549 2.549 0 0 1-.786.117c-1.13 0-1.798-.627-1.798-1.699v-6.492Zm6.298 8.25c-1.781 0-2.982-1.354-2.982-3.375 0-2.051 1.201-3.399 2.982-3.399 1.788 0 2.995 1.348 2.995 3.399 0 2.021-1.207 3.375-2.995 3.375Zm0-.944c1.325 0 1.928-1.142 1.928-2.431 0-1.301-.603-2.455-1.928-2.455-1.306 0-1.91 1.148-1.91 2.455 0 1.289.604 2.431 1.91 2.431Zm5.52-1.552v-1.307h.193l2.801-2.889h1.307l-3.03 3.112h-.117l-1.154 1.084Zm-.99 2.355v-8.73h1.054V406h-1.054Zm4.142 0-2.508-3.205.75-.744 3.112 3.949h-1.354Zm4.928.141c-1.898 0-3.07-1.348-3.07-3.364 0-2.009 1.16-3.41 2.947-3.41 1.389 0 2.853.856 2.853 3.276v.439h-5.085v-.891h4.517l-.492.329c0-1.29-.609-2.215-1.793-2.215s-1.881.978-1.881 2.045v.591c0 1.459.809 2.262 2.01 2.262.773 0 1.353-.34 1.599-1.008l1.02.282c-.305.99-1.283 1.664-2.625 1.664Zm5.297-4.067V406h-1.055v-6.551h1.014l.006 1.588h-.147c.399-1.207 1.16-1.67 2.151-1.67 1.324 0 2.22.815 2.22 2.473V406h-1.06v-4.072c0-1.008-.563-1.612-1.477-1.612-.943 0-1.652.639-1.652 1.758Zm9.422 3.926v-6.551h1.019v1.008h.071c.24-.662.92-1.102 1.699-1.102.152 0 .41.012.533.018v1.061a3.936 3.936 0 0 0-.633-.059c-.943 0-1.635.639-1.635 1.523V406h-1.054Zm7.078.141c-1.899 0-3.07-1.348-3.07-3.364 0-2.009 1.16-3.41 2.947-3.41 1.388 0 2.853.856 2.853 3.276v.439h-5.086v-.891h4.518l-.492.329c0-1.29-.61-2.215-1.793-2.215-1.184 0-1.881.978-1.881 2.045v.591c0 1.459.809 2.262 2.01 2.262.773 0 1.353-.34 1.599-1.008l1.02.282c-.305.99-1.283 1.664-2.625 1.664Zm7.289-6.692v.903h-3.856v-.903h3.856ZM389.27 406v-7.424c0-1.137.908-1.717 1.863-1.717.498 0 .826.106.984.176l-.293.903c-.111-.036-.275-.1-.568-.1-.651 0-.932.34-.932.973V406h-1.054Zm6.597.141c-1.898 0-3.07-1.348-3.07-3.364 0-2.009 1.16-3.41 2.947-3.41 1.389 0 2.854.856 2.854 3.276v.439h-5.086v-.891h4.517l-.492.329c0-1.29-.609-2.215-1.793-2.215-1.183 0-1.881.978-1.881 2.045v.591c0 1.459.809 2.262 2.01 2.262.773 0 1.354-.34 1.6-1.008l1.019.282c-.304.99-1.283 1.664-2.625 1.664Zm4.242-.141v-6.551h1.02v1.008h.07c.24-.662.92-1.102 1.699-1.102.153 0 .411.012.534.018v1.061a3.95 3.95 0 0 0-.633-.059c-.944 0-1.635.639-1.635 1.523V406h-1.055Zm7.079.141c-1.899 0-3.071-1.348-3.071-3.364 0-2.009 1.16-3.41 2.947-3.41 1.389 0 2.854.856 2.854 3.276v.439h-5.086v-.891h4.518l-.493.329c0-1.29-.609-2.215-1.793-2.215-1.183 0-1.88.978-1.88 2.045v.591c0 1.459.808 2.262 2.009 2.262.774 0 1.354-.34 1.6-1.008l1.019.282c-.304.99-1.283 1.664-2.624 1.664Zm5.296-4.067V406h-1.054v-6.551h1.013l.006 1.588h-.146c.398-1.207 1.16-1.67 2.15-1.67 1.324 0 2.221.815 2.221 2.473V406h-1.061v-4.072c0-1.008-.562-1.612-1.476-1.612-.944 0-1.653.639-1.653 1.758Zm8.713 4.067c-1.781 0-2.982-1.354-2.982-3.375 0-2.051 1.201-3.399 2.982-3.399 1.266 0 2.297.668 2.655 1.811l-1.014.287c-.193-.674-.779-1.154-1.641-1.154-1.306 0-1.91 1.148-1.91 2.455 0 1.289.604 2.431 1.91 2.431.879 0 1.477-.498 1.67-1.207l1.008.287c-.352 1.166-1.395 1.864-2.678 1.864Zm6.944 0c-1.899 0-3.071-1.348-3.071-3.364 0-2.009 1.16-3.41 2.948-3.41 1.388 0 2.853.856 2.853 3.276v.439h-5.086v-.891h4.518l-.492.329c0-1.29-.61-2.215-1.793-2.215-1.184 0-1.881.978-1.881 2.045v.591c0 1.459.808 2.262 2.009 2.262.774 0 1.354-.34 1.6-1.008l1.02.282c-.305.99-1.284 1.664-2.625 1.664Z" fill="#fff"/><path stroke="#7B58CF" stroke-width="2" stroke-linecap="round" d="M18 128h274m-274 0v-14m274 14v-14M38 381h206m-206 0v-14m206 14v-14m67-239h164m-164 0v-14m164 14v-14M264 381h190m-190 0v-14m190 14v-14"/><path d="M19.821 96.14c-.793 0-1.423-.22-1.89-.658-.467-.448-.7-1.031-.7-1.75 0-.476.107-.891.322-1.246a2.19 2.19 0 0 1 .896-.826 2.74 2.74 0 0 1 1.316-.308h2.38v-.602c0-.504-.135-.877-.406-1.12-.27-.252-.681-.378-1.232-.378-.485 0-.877.089-1.176.266-.299.177-.457.425-.476.742h-1.26c.047-.607.327-1.106.84-1.498.523-.401 1.213-.602 2.072-.602.933 0 1.647.224 2.142.672.504.448.756 1.073.756 1.876V96h-1.246v-1.4h-.21l.196-.28c0 .373-.093.695-.28.966-.187.27-.453.48-.798.63-.345.15-.76.224-1.246.224Zm.308-1.064c.616 0 1.106-.15 1.47-.448.364-.299.546-.705.546-1.218v-1.078h-2.24c-.41 0-.747.126-1.008.378-.252.243-.378.57-.378.98 0 .43.14.77.42 1.022.29.243.686.364 1.19.364Zm7.932.924-2.617-7.7h1.358l1.68 5.18c.102.308.19.607.265.896.075.28.131.5.169.658.046-.159.102-.378.168-.658.065-.29.144-.588.238-.896l1.68-5.18h1.33l-2.62 7.7H28.06Zm8.549.14c-.793 0-1.423-.22-1.89-.658-.467-.448-.7-1.031-.7-1.75 0-.476.107-.891.322-1.246a2.19 2.19 0 0 1 .896-.826 2.74 2.74 0 0 1 1.316-.308h2.38v-.602c0-.504-.135-.877-.406-1.12-.27-.252-.681-.378-1.232-.378-.485 0-.877.089-1.176.266-.299.177-.457.425-.476.742h-1.26c.047-.607.327-1.106.84-1.498.523-.401 1.213-.602 2.072-.602.933 0 1.647.224 2.142.672.504.448.756 1.073.756 1.876V96h-1.246v-1.4h-.21l.196-.28c0 .373-.093.695-.28.966-.187.27-.453.48-.798.63-.345.15-.76.224-1.246.224Zm.308-1.064c.616 0 1.106-.15 1.47-.448.364-.299.546-.705.546-1.218v-1.078h-2.24c-.41 0-.747.126-1.008.378-.252.243-.378.57-.378.98 0 .43.14.77.42 1.022.29.243.686.364 1.19.364Zm9.529.924c-.635 0-1.144-.182-1.526-.546-.383-.373-.574-.868-.574-1.484v-4.522h-2.212V88.3h2.212v-2.17h1.26v2.17h3.15v1.148h-3.15v4.522c0 .261.074.476.224.644a.833.833 0 0 0 .616.238h2.24V96h-2.24Zm6.952.14c-.793 0-1.423-.22-1.89-.658-.467-.448-.7-1.031-.7-1.75 0-.476.107-.891.322-1.246a2.19 2.19 0 0 1 .896-.826 2.74 2.74 0 0 1 1.316-.308h2.38v-.602c0-.504-.135-.877-.406-1.12-.27-.252-.681-.378-1.232-.378-.485 0-.877.089-1.176.266-.299.177-.457.425-.476.742h-1.26c.047-.607.327-1.106.84-1.498.523-.401 1.213-.602 2.072-.602.933 0 1.647.224 2.142.672.504.448.756 1.073.756 1.876V96h-1.246v-1.4h-.21l.196-.28c0 .373-.093.695-.28.966-.187.27-.453.48-.798.63-.345.15-.76.224-1.246.224Zm.308-1.064c.616 0 1.106-.15 1.47-.448.364-.299.546-.705.546-1.218v-1.078h-2.24c-.41 0-.747.126-1.008.378-.252.243-.378.57-.378.98 0 .43.14.77.42 1.022.29.243.686.364 1.19.364Zm6.127.924v-7.7h1.26v1.47h.266l-.266.336c0-.597.182-1.069.546-1.414.373-.355.886-.532 1.54-.532.802 0 1.418.243 1.848.728.438.476.658 1.157.658 2.044v.658h-1.26v-.658c0-.57-.14-.99-.42-1.26-.28-.28-.686-.42-1.218-.42-.551 0-.971.159-1.26.476-.29.317-.434.775-.434 1.372V96h-1.26Zm11.026.14c-.345 0-.625-.103-.84-.308-.205-.205-.308-.471-.308-.798 0-.345.103-.625.308-.84.215-.215.495-.322.84-.322.346 0 .62.107.826.322.215.215.322.495.322.84 0 .327-.107.593-.322.798-.205.205-.48.308-.826.308Zm7.205-.14v-5.502h-2.24V89.35h2.24v-1.61c0-.607.191-1.083.574-1.428.382-.355.91-.532 1.582-.532h2.254v1.148H80.22c-.29 0-.514.07-.672.21-.15.13-.224.331-.224.602v1.61h3.15v1.148h-3.15V96h-1.26Zm8.912.14c-.793 0-1.423-.22-1.89-.658-.466-.448-.7-1.031-.7-1.75 0-.476.108-.891.322-1.246a2.19 2.19 0 0 1 .896-.826 2.74 2.74 0 0 1 1.316-.308h2.38v-.602c0-.504-.135-.877-.406-1.12-.27-.252-.681-.378-1.232-.378-.485 0-.877.089-1.176.266-.298.177-.457.425-.476.742h-1.26c.047-.607.327-1.106.84-1.498.523-.401 1.214-.602 2.072-.602.934 0 1.648.224 2.142.672.504.448.756 1.073.756 1.876V96h-1.246v-1.4h-.21l.196-.28c0 .373-.093.695-.28.966-.186.27-.452.48-.798.63-.345.15-.76.224-1.246.224Zm.308-1.064c.616 0 1.106-.15 1.47-.448.364-.299.546-.705.546-1.218v-1.078h-2.24c-.41 0-.746.126-1.008.378-.252.243-.378.57-.378.98 0 .43.14.77.42 1.022.29.243.686.364 1.19.364Zm9.879.924c-.448 0-.84-.089-1.176-.266a1.911 1.911 0 0 1-.784-.756c-.187-.327-.28-.71-.28-1.148v-6.902h-2.66V85.78h3.92v8.05c0 .317.088.57.266.756.177.177.415.266.714.266h2.38V96h-2.38Zm8.394 0c-.448 0-.84-.089-1.176-.266a1.914 1.914 0 0 1-.784-.756c-.186-.327-.28-.71-.28-1.148v-6.902h-2.66V85.78h3.92v8.05c0 .317.089.57.266.756.178.177.416.266.714.266h2.38V96h-2.38Zm7.723.14c-.635 0-1.144-.168-1.526-.504-.383-.345-.574-.812-.574-1.4l.252.294h-.252V96h-1.26V85.78h1.26v2.24l-.028 1.75h.28l-.28.294c0-.579.196-1.04.588-1.386.401-.345.914-.518 1.54-.518.774 0 1.39.257 1.848.77.457.513.686 1.213.686 2.1v2.254c0 .877-.229 1.573-.686 2.086-.458.513-1.074.77-1.848.77Zm-.42-1.092c.532 0 .947-.14 1.246-.42.298-.28.448-.733.448-1.358v-2.24c0-.635-.15-1.087-.448-1.358-.299-.28-.714-.42-1.246-.42-.514 0-.924.163-1.232.49-.299.327-.448.78-.448 1.358v2.1c0 .579.149 1.031.448 1.358.308.327.718.49 1.232.49Zm7.694 1.092c-.793 0-1.423-.22-1.89-.658-.466-.448-.7-1.031-.7-1.75 0-.476.108-.891.322-1.246.215-.355.514-.63.896-.826a2.743 2.743 0 0 1 1.316-.308h2.38v-.602c0-.504-.135-.877-.406-1.12-.27-.252-.681-.378-1.232-.378-.485 0-.877.089-1.176.266-.298.177-.457.425-.476.742h-1.26c.047-.607.327-1.106.84-1.498.523-.401 1.214-.602 2.072-.602.934 0 1.648.224 2.142.672.504.448.756 1.073.756 1.876V96h-1.246v-1.4h-.21l.196-.28c0 .373-.093.695-.28.966-.186.27-.452.48-.798.63-.345.15-.76.224-1.246.224Zm.308-1.064c.616 0 1.106-.15 1.47-.448.364-.299.546-.705.546-1.218v-1.078h-2.24c-.41 0-.746.126-1.008.378-.252.243-.378.57-.378.98 0 .43.14.77.42 1.022.29.243.686.364 1.19.364Zm8.871 1.064c-.616 0-1.157-.117-1.624-.35a2.61 2.61 0 0 1-1.078-1.008c-.252-.448-.378-.975-.378-1.582v-2.1c0-.616.126-1.143.378-1.582a2.61 2.61 0 0 1 1.078-1.008c.467-.233 1.008-.35 1.624-.35.887 0 1.601.238 2.142.714.551.476.84 1.125.868 1.946h-1.26c-.028-.495-.196-.873-.504-1.134-.308-.27-.723-.406-1.246-.406-.551 0-.994.159-1.33.476-.327.308-.49.751-.49 1.33V93.2c0 .579.163 1.027.49 1.344.336.317.779.476 1.33.476.523 0 .938-.135 1.246-.406.308-.27.476-.649.504-1.134h1.26c-.028.821-.317 1.47-.868 1.946-.541.476-1.255.714-2.142.714Zm5.44-.14V85.78h1.26v5.698h1.47l2.156-3.178h1.442l-2.478 3.668L141.642 96h-1.47l-2.24-3.43h-1.498V96h-1.26Zm11.237.14c-.345 0-.625-.103-.84-.308-.205-.205-.308-.471-.308-.798 0-.345.103-.625.308-.84.215-.215.495-.322.84-.322s.621.107.826.322c.215.215.322.495.322.84 0 .327-.107.593-.322.798-.205.205-.481.308-.826.308Zm8.842 0c-.634 0-1.143-.168-1.526-.504-.382-.345-.574-.812-.574-1.4l.252.294h-.252V96h-1.26V85.78h1.26v2.24l-.028 1.75h.28l-.28.294c0-.579.196-1.04.588-1.386.402-.345.915-.518 1.54-.518.775 0 1.391.257 1.848.77.458.513.686 1.213.686 2.1v2.254c0 .877-.228 1.573-.686 2.086-.457.513-1.073.77-1.848.77Zm-.42-1.092c.532 0 .948-.14 1.246-.42.299-.28.448-.733.448-1.358v-2.24c0-.635-.149-1.087-.448-1.358-.298-.28-.714-.42-1.246-.42-.513 0-.924.163-1.232.49-.298.327-.448.78-.448 1.358v2.1c0 .579.15 1.031.448 1.358.308.327.719.49 1.232.49Zm7.695 1.092c-.793 0-1.423-.22-1.89-.658-.467-.448-.7-1.031-.7-1.75 0-.476.107-.891.322-1.246a2.19 2.19 0 0 1 .896-.826 2.74 2.74 0 0 1 1.316-.308h2.38v-.602c0-.504-.135-.877-.406-1.12-.271-.252-.681-.378-1.232-.378-.485 0-.877.089-1.176.266-.299.177-.457.425-.476.742h-1.26c.047-.607.327-1.106.84-1.498.523-.401 1.213-.602 2.072-.602.933 0 1.647.224 2.142.672.504.448.756 1.073.756 1.876V96h-1.246v-1.4h-.21l.196-.28c0 .373-.093.695-.28.966-.187.27-.453.48-.798.63-.345.15-.761.224-1.246.224Zm.308-1.064c.616 0 1.106-.15 1.47-.448.364-.299.546-.705.546-1.218v-1.078h-2.24c-.411 0-.747.126-1.008.378-.252.243-.378.57-.378.98 0 .43.14.77.42 1.022.289.243.686.364 1.19.364Zm8.871 1.064c-.616 0-1.158-.117-1.624-.35a2.605 2.605 0 0 1-1.078-1.008c-.252-.448-.378-.975-.378-1.582v-2.1c0-.616.126-1.143.378-1.582a2.6 2.6 0 0 1 1.078-1.008c.466-.233 1.008-.35 1.624-.35.886 0 1.6.238 2.142.714.55.476.84 1.125.868 1.946h-1.26c-.028-.495-.196-.873-.504-1.134-.308-.27-.724-.406-1.246-.406-.551 0-.994.159-1.33.476-.327.308-.49.751-.49 1.33V93.2c0 .579.163 1.027.49 1.344.336.317.779.476 1.33.476.522 0 .938-.135 1.246-.406.308-.27.476-.649.504-1.134h1.26c-.028.821-.318 1.47-.868 1.946-.542.476-1.256.714-2.142.714Zm5.44-.14V85.78h1.26v5.698h1.47l2.156-3.178h1.442l-2.478 3.668L183.615 96h-1.47l-2.24-3.43h-1.498V96h-1.26Zm9.291 2.52v-1.148h2.17c.438 0 .784-.126 1.036-.378.252-.243.378-.574.378-.994v-.7l.028-1.26h-.252l.238-.35c0 .56-.187.999-.56 1.316-.374.308-.873.462-1.498.462-.794 0-1.419-.252-1.876-.756-.458-.504-.686-1.195-.686-2.072v-1.624c0-.877.228-1.573.686-2.086.457-.513 1.082-.77 1.876-.77.625 0 1.124.163 1.498.49.373.327.56.77.56 1.33l-.238-.35h.238V88.3h1.246V96c0 .775-.243 1.386-.728 1.834-.476.457-1.13.686-1.96.686h-2.156Zm1.918-4.102c.522 0 .933-.163 1.232-.49.298-.327.448-.78.448-1.358V91.1c0-.579-.15-1.031-.448-1.358-.299-.327-.71-.49-1.232-.49-.532 0-.948.154-1.246.462-.29.308-.434.723-.434 1.246v1.75c0 .523.144.938.434 1.246.298.308.714.462 1.246.462Zm5.79 1.582v-7.7h1.26v1.47h.266l-.266.336c0-.597.182-1.069.546-1.414.373-.355.887-.532 1.54-.532.803 0 1.419.243 1.848.728.439.476.658 1.157.658 2.044v.658h-1.26v-.658c0-.57-.14-.99-.42-1.26-.28-.28-.686-.42-1.218-.42-.551 0-.971.159-1.26.476-.289.317-.434.775-.434 1.372V96h-1.26Zm11.027.112c-.616 0-1.153-.121-1.61-.364a2.586 2.586 0 0 1-1.05-1.05c-.243-.467-.364-1.022-.364-1.666v-1.764c0-.653.121-1.209.364-1.666a2.586 2.586 0 0 1 1.05-1.05c.457-.243.994-.364 1.61-.364.625 0 1.162.121 1.61.364a2.5 2.5 0 0 1 1.036 1.05c.252.457.378 1.013.378 1.666v1.764c0 .644-.126 1.2-.378 1.666a2.482 2.482 0 0 1-1.05 1.05c-.448.243-.98.364-1.596.364Zm0-1.12c.55 0 .98-.154 1.288-.462.317-.308.476-.76.476-1.358v-2.044c0-.597-.159-1.05-.476-1.358-.308-.308-.738-.462-1.288-.462-.542 0-.971.154-1.288.462-.318.308-.476.76-.476 1.358v2.044c0 .597.158 1.05.476 1.358.317.308.746.462 1.288.462Zm8.38 1.148c-.886 0-1.596-.261-2.128-.784-.532-.532-.798-1.25-.798-2.156v-4.9h1.26v4.9c0 .56.15 1.008.448 1.344.299.327.705.49 1.218.49.523 0 .934-.163 1.232-.49.308-.336.462-.784.462-1.344v-4.9h1.26v4.9c0 .905-.27 1.624-.812 2.156-.541.523-1.255.784-2.142.784Zm5.497-.14v-7.7h1.26v1.47h.266l-.266.294c0-.607.182-1.073.546-1.4.364-.336.868-.504 1.512-.504.774 0 1.39.238 1.848.714.457.476.686 1.125.686 1.946V96h-1.26v-4.956c0-.588-.15-1.036-.448-1.344-.29-.317-.686-.476-1.19-.476-.523 0-.938.163-1.246.49-.299.327-.448.789-.448 1.386V96h-1.26Zm10.858.14c-.765 0-1.381-.257-1.848-.77-.457-.513-.686-1.209-.686-2.086V91.03c0-.887.229-1.587.686-2.1.458-.513 1.074-.77 1.848-.77.635 0 1.148.173 1.54.518.392.345.588.807.588 1.386l-.28-.294h.28l-.028-1.75v-2.24h1.26V96h-1.26v-1.47h-.252l.252-.294c0 .588-.191 1.055-.574 1.4-.382.336-.891.504-1.526.504Zm.42-1.092c.523 0 .934-.163 1.232-.49.299-.327.448-.78.448-1.358v-2.1c0-.579-.149-1.031-.448-1.358-.298-.327-.709-.49-1.232-.49-.532 0-.947.14-1.246.42-.298.27-.448.723-.448 1.358v2.24c0 .625.15 1.078.448 1.358.299.28.714.42 1.246.42Zm8.423 1.092c-.346 0-.626-.103-.84-.308-.206-.205-.308-.471-.308-.798 0-.345.102-.625.308-.84.214-.215.494-.322.84-.322.345 0 .62.107.826.322.214.215.322.495.322.84 0 .327-.108.593-.322.798-.206.205-.481.308-.826.308Zm5.482 2.38V88.3h1.26v1.47h.252l-.252.294c0-.588.192-1.05.574-1.386.383-.345.892-.518 1.526-.518.514 0 .957.117 1.33.35.383.224.677.55.882.98.215.43.322.938.322 1.526v2.254c0 .588-.102 1.097-.308 1.526-.205.43-.499.76-.882.994-.373.233-.821.35-1.344.35-.625 0-1.134-.173-1.526-.518-.382-.345-.574-.807-.574-1.386l.252.294h-.28l.028 1.75v2.24h-1.26Zm2.94-3.472c.532 0 .948-.14 1.246-.42.299-.28.448-.733.448-1.358v-2.24c0-.635-.149-1.087-.448-1.358-.298-.28-.714-.42-1.246-.42-.513 0-.924.163-1.232.49-.298.327-.448.78-.448 1.358v2.1c0 .579.15 1.031.448 1.358.308.327.719.49 1.232.49Zm8.353 1.092c-.887 0-1.596-.261-2.128-.784-.532-.532-.798-1.25-.798-2.156v-4.9h1.26v4.9c0 .56.149 1.008.448 1.344.299.327.705.49 1.218.49.523 0 .933-.163 1.232-.49.308-.336.462-.784.462-1.344v-4.9h1.26v4.9c0 .905-.271 1.624-.812 2.156-.541.523-1.255.784-2.142.784Zm5.776-.14v-7.7h1.26v1.47h.266l-.266.336c0-.597.182-1.069.546-1.414.374-.355.887-.532 1.54-.532.803 0 1.419.243 1.848.728.439.476.658 1.157.658 2.044v.658h-1.26v-.658c0-.57-.14-.99-.42-1.26-.28-.28-.686-.42-1.218-.42-.55 0-.97.159-1.26.476-.289.317-.434.775-.434 1.372V96h-1.26Zm8.115 2.52V88.3h1.26v1.47h.252l-.252.294c0-.588.191-1.05.574-1.386.383-.345.891-.518 1.526-.518.513 0 .957.117 1.33.35.383.224.677.55.882.98.215.43.322.938.322 1.526v2.254c0 .588-.103 1.097-.308 1.526-.205.43-.499.76-.882.994-.373.233-.821.35-1.344.35-.625 0-1.134-.173-1.526-.518-.383-.345-.574-.807-.574-1.386l.252.294h-.28l.028 1.75v2.24h-1.26Zm2.94-3.472c.532 0 .947-.14 1.246-.42.299-.28.448-.733.448-1.358v-2.24c0-.635-.149-1.087-.448-1.358-.299-.28-.714-.42-1.246-.42-.513 0-.924.163-1.232.49-.299.327-.448.78-.448 1.358v2.1c0 .579.149 1.031.448 1.358.308.327.719.49 1.232.49Zm9.486.952c-.448 0-.84-.089-1.176-.266a1.914 1.914 0 0 1-.784-.756c-.186-.327-.28-.71-.28-1.148v-6.902h-2.66V85.78h3.92v8.05c0 .317.089.57.266.756.178.177.416.266.714.266h2.38V96h-2.38Zm7.275.14c-.607 0-1.139-.121-1.596-.364a2.679 2.679 0 0 1-1.05-1.064c-.252-.467-.378-1.017-.378-1.652v-1.82c0-.644.126-1.195.378-1.652a2.586 2.586 0 0 1 1.05-1.05c.457-.252.989-.378 1.596-.378.607 0 1.134.121 1.582.364.457.243.812.583 1.064 1.022.252.439.378.957.378 1.554v1.372h-4.816v.728c0 .57.163 1.022.49 1.358.327.327.761.49 1.302.49.467 0 .849-.089 1.148-.266.308-.187.495-.434.56-.742h1.26c-.084.644-.397 1.157-.938 1.54-.541.373-1.218.56-2.03.56Zm1.792-4.522V91.1c0-.607-.159-1.073-.476-1.4-.308-.336-.747-.504-1.316-.504-.569 0-1.013.168-1.33.504-.308.327-.462.793-.462 1.4v.392h3.682l-.098.126Zm6.603-1.386c-.383 0-.672-.093-.868-.28-.196-.187-.294-.439-.294-.756s.098-.57.294-.756c.196-.187.485-.28.868-.28.382 0 .672.093.868.28.196.187.294.439.294.756s-.098.57-.294.756c-.196.187-.486.28-.868.28Zm0 5.908c-.383 0-.672-.093-.868-.28-.196-.187-.294-.439-.294-.756s.098-.57.294-.756c.196-.187.485-.28.868-.28.382 0 .672.093.868.28.196.187.294.439.294.756s-.098.57-.294.756c-.196.187-.486.28-.868.28Z" fill="#333238"/><rect x="310" y="77" width="166" height="28" rx="4" fill="#ECECEF"/><rect x="317.5" y="82.5" width="17" height="17" rx="2.5" fill="#F4F0FF" stroke="#BFBFC3"/><path d="M346.353 96.14c-.616 0-1.157-.117-1.624-.35a2.61 2.61 0 0 1-1.078-1.008c-.252-.448-.378-.975-.378-1.582v-2.1c0-.616.126-1.143.378-1.582a2.61 2.61 0 0 1 1.078-1.008c.467-.233 1.008-.35 1.624-.35.887 0 1.601.238 2.142.714.551.476.84 1.125.868 1.946h-1.26c-.028-.495-.196-.873-.504-1.134-.308-.27-.723-.406-1.246-.406-.551 0-.994.159-1.33.476-.327.308-.49.751-.49 1.33V93.2c0 .579.163 1.027.49 1.344.336.317.779.476 1.33.476.523 0 .938-.135 1.246-.406.308-.27.476-.649.504-1.134h1.26c-.028.821-.317 1.47-.868 1.946-.541.476-1.255.714-2.142.714Zm8.283-.028c-.616 0-1.153-.121-1.61-.364a2.586 2.586 0 0 1-1.05-1.05c-.243-.467-.364-1.022-.364-1.666v-1.764c0-.653.121-1.209.364-1.666a2.586 2.586 0 0 1 1.05-1.05c.457-.243.994-.364 1.61-.364.625 0 1.162.121 1.61.364a2.5 2.5 0 0 1 1.036 1.05c.252.457.378 1.013.378 1.666v1.764c0 .644-.126 1.2-.378 1.666a2.482 2.482 0 0 1-1.05 1.05c-.448.243-.98.364-1.596.364Zm0-1.12c.55 0 .98-.154 1.288-.462.317-.308.476-.76.476-1.358v-2.044c0-.597-.159-1.05-.476-1.358-.308-.308-.738-.462-1.288-.462-.542 0-.971.154-1.288.462-.318.308-.476.76-.476 1.358v2.044c0 .597.158 1.05.476 1.358.317.308.746.462 1.288.462ZM364.15 96c-.448 0-.84-.089-1.176-.266a1.914 1.914 0 0 1-.784-.756c-.187-.327-.28-.71-.28-1.148v-6.902h-2.66V85.78h3.92v8.05c0 .317.089.57.266.756.177.177.415.266.714.266h2.38V96h-2.38Zm7.275.112c-.616 0-1.153-.121-1.61-.364a2.586 2.586 0 0 1-1.05-1.05c-.243-.467-.364-1.022-.364-1.666v-1.764c0-.653.121-1.209.364-1.666a2.586 2.586 0 0 1 1.05-1.05c.457-.243.994-.364 1.61-.364.625 0 1.162.121 1.61.364a2.5 2.5 0 0 1 1.036 1.05c.252.457.378 1.013.378 1.666v1.764c0 .644-.126 1.2-.378 1.666a2.482 2.482 0 0 1-1.05 1.05c-.448.243-.98.364-1.596.364Zm0-1.12c.55 0 .98-.154 1.288-.462.317-.308.476-.76.476-1.358v-2.044c0-.597-.159-1.05-.476-1.358-.308-.308-.738-.462-1.288-.462-.542 0-.971.154-1.288.462-.318.308-.476.76-.476 1.358v2.044c0 .597.158 1.05.476 1.358.317.308.746.462 1.288.462ZM377.187 96v-7.7h1.26v1.47h.266l-.266.336c0-.597.182-1.069.546-1.414.373-.355.887-.532 1.54-.532.803 0 1.419.243 1.848.728.439.476.658 1.157.658 2.044v.658h-1.26v-.658c0-.57-.14-.99-.42-1.26-.28-.28-.686-.42-1.218-.42-.551 0-.971.159-1.26.476-.289.317-.434.775-.434 1.372V96h-1.26Zm11.027.14c-.346 0-.626-.103-.84-.308-.206-.205-.308-.471-.308-.798 0-.345.102-.625.308-.84.214-.215.494-.322.84-.322.345 0 .62.107.826.322.214.215.322.495.322.84 0 .327-.108.593-.322.798-.206.205-.481.308-.826.308Zm5.482 2.38V88.3h1.26v1.47h.252l-.252.294c0-.588.192-1.05.574-1.386.383-.345.892-.518 1.526-.518.514 0 .957.117 1.33.35.383.224.677.55.882.98.215.43.322.938.322 1.526v2.254c0 .588-.102 1.097-.308 1.526-.205.43-.499.76-.882.994-.373.233-.821.35-1.344.35-.625 0-1.134-.173-1.526-.518-.382-.345-.574-.807-.574-1.386l.252.294h-.28l.028 1.75v2.24h-1.26Zm2.94-3.472c.532 0 .948-.14 1.246-.42.299-.28.448-.733.448-1.358v-2.24c0-.635-.149-1.087-.448-1.358-.298-.28-.714-.42-1.246-.42-.513 0-.924.163-1.232.49-.298.327-.448.78-.448 1.358v2.1c0 .579.15 1.031.448 1.358.308.327.719.49 1.232.49Zm8.353 1.092c-.887 0-1.596-.261-2.128-.784-.532-.532-.798-1.25-.798-2.156v-4.9h1.26v4.9c0 .56.149 1.008.448 1.344.298.327.704.49 1.218.49.522 0 .933-.163 1.232-.49.308-.336.462-.784.462-1.344v-4.9h1.26v4.9c0 .905-.271 1.624-.812 2.156-.542.523-1.256.784-2.142.784Zm5.776-.14v-7.7h1.26v1.47h.266l-.266.336c0-.597.182-1.069.546-1.414.374-.355.887-.532 1.54-.532.803 0 1.419.243 1.848.728.439.476.658 1.157.658 2.044v.658h-1.26v-.658c0-.57-.14-.99-.42-1.26-.28-.28-.686-.42-1.218-.42-.55 0-.97.159-1.26.476-.289.317-.434.775-.434 1.372V96h-1.26Zm8.115 2.52V88.3h1.26v1.47h.252l-.252.294c0-.588.191-1.05.574-1.386.382-.345.891-.518 1.526-.518.513 0 .956.117 1.33.35.382.224.676.55.882.98.214.43.322.938.322 1.526v2.254c0 .588-.103 1.097-.308 1.526-.206.43-.5.76-.882.994-.374.233-.822.35-1.344.35-.626 0-1.134-.173-1.526-.518-.383-.345-.574-.807-.574-1.386l.252.294h-.28l.028 1.75v2.24h-1.26Zm2.94-3.472c.532 0 .947-.14 1.246-.42.298-.28.448-.733.448-1.358v-2.24c0-.635-.15-1.087-.448-1.358-.299-.28-.714-.42-1.246-.42-.514 0-.924.163-1.232.49-.299.327-.448.78-.448 1.358v2.1c0 .579.149 1.031.448 1.358.308.327.718.49 1.232.49Zm9.486.952c-.448 0-.84-.089-1.176-.266a1.914 1.914 0 0 1-.784-.756c-.186-.327-.28-.71-.28-1.148v-6.902h-2.66V85.78h3.92v8.05c0 .317.089.57.266.756.178.177.416.266.714.266h2.38V96h-2.38Zm7.275.14c-.607 0-1.139-.121-1.596-.364a2.679 2.679 0 0 1-1.05-1.064c-.252-.467-.378-1.017-.378-1.652v-1.82c0-.644.126-1.195.378-1.652a2.586 2.586 0 0 1 1.05-1.05c.457-.252.989-.378 1.596-.378.607 0 1.134.121 1.582.364.457.243.812.583 1.064 1.022.252.439.378.957.378 1.554v1.372h-4.816v.728c0 .57.163 1.022.49 1.358.327.327.761.49 1.302.49.467 0 .849-.089 1.148-.266.308-.187.495-.434.56-.742h1.26c-.084.644-.397 1.157-.938 1.54-.541.373-1.218.56-2.03.56Zm1.792-4.522V91.1c0-.607-.159-1.073-.476-1.4-.308-.336-.747-.504-1.316-.504-.569 0-1.013.168-1.33.504-.308.327-.462.793-.462 1.4v.392h3.682l-.098.126Zm6.602 4.522c-.345 0-.625-.103-.84-.308-.205-.205-.308-.471-.308-.798 0-.345.103-.625.308-.84.215-.215.495-.322.84-.322.346 0 .621.107.826.322.215.215.322.495.322.84 0 .327-.107.593-.322.798-.205.205-.48.308-.826.308Zm8.311 0c-.943 0-1.689-.261-2.24-.784-.551-.532-.826-1.25-.826-2.156h1.26c0 .56.163 1.003.49 1.33.327.327.77.49 1.33.49s1.003-.163 1.33-.49c.327-.327.49-.77.49-1.33v-.63c0-.56-.159-1.003-.476-1.33-.317-.327-.747-.49-1.288-.49h-2.786v-4.97h5.446v1.148h-4.27l.028 2.674h1.652c.943 0 1.671.261 2.184.784.513.513.77 1.241.77 2.184v.63c0 .905-.28 1.624-.84 2.156-.551.523-1.302.784-2.254.784Zm8.478 0c-.625 0-1.171-.121-1.638-.364a2.68 2.68 0 0 1-1.064-1.05c-.252-.457-.378-.99-.378-1.596v-4.48c0-.616.126-1.148.378-1.596a2.588 2.588 0 0 1 1.064-1.036c.467-.252 1.013-.378 1.638-.378.635 0 1.181.126 1.638.378.458.243.812.588 1.064 1.036.252.448.378.98.378 1.596v4.48c0 .607-.126 1.139-.378 1.596a2.653 2.653 0 0 1-1.078 1.05c-.457.243-.998.364-1.624.364Zm0-1.078c.56 0 1.008-.177 1.344-.532.346-.364.518-.83.518-1.4v-4.48c0-.57-.172-1.031-.518-1.386-.336-.364-.784-.546-1.344-.546s-1.012.182-1.358.546c-.336.355-.504.817-.504 1.386v4.48c0 .57.168 1.036.504 1.4.346.355.798.532 1.358.532Zm0-3.402c-.252 0-.457-.07-.616-.21-.149-.14-.224-.34-.224-.602 0-.252.075-.443.224-.574.159-.14.364-.21.616-.21s.453.07.602.21c.159.13.238.322.238.574 0 .261-.079.462-.238.602-.149.14-.35.21-.602.21ZM39.9 349.14c-.794 0-1.424-.219-1.89-.658-.468-.448-.7-1.031-.7-1.75 0-.476.106-.891.321-1.246.215-.355.513-.63.896-.826a2.744 2.744 0 0 1 1.316-.308h2.38v-.602c0-.504-.135-.877-.406-1.12-.27-.252-.681-.378-1.232-.378-.485 0-.877.089-1.176.266-.299.177-.457.425-.476.742h-1.26c.047-.607.327-1.106.84-1.498.523-.401 1.213-.602 2.072-.602.933 0 1.647.224 2.142.672.504.448.756 1.073.756 1.876V349h-1.246v-1.4h-.21l.196-.28c0 .373-.093.695-.28.966a1.81 1.81 0 0 1-.798.63c-.345.149-.76.224-1.246.224Zm.307-1.064c.616 0 1.106-.149 1.47-.448.364-.299.546-.705.546-1.218v-1.078h-2.24c-.41 0-.747.126-1.008.378-.252.243-.378.569-.378.98 0 .429.14.77.42 1.022.29.243.686.364 1.19.364Zm9.879.924c-.448 0-.84-.089-1.176-.266a1.908 1.908 0 0 1-.784-.756c-.187-.327-.28-.709-.28-1.148v-6.902h-2.66v-1.148h3.92v8.05c0 .317.088.569.266.756.177.177.415.266.714.266h2.38V349h-2.38Zm7.274.14c-.606 0-1.139-.121-1.596-.364a2.68 2.68 0 0 1-1.05-1.064c-.252-.467-.378-1.017-.378-1.652v-1.82c0-.644.126-1.195.378-1.652a2.59 2.59 0 0 1 1.05-1.05c.457-.252.99-.378 1.596-.378.607 0 1.134.121 1.582.364.458.243.812.583 1.064 1.022.252.439.378.957.378 1.554v1.372h-4.816v.728c0 .569.163 1.022.49 1.358.327.327.76.49 1.302.49.467 0 .85-.089 1.148-.266.308-.187.495-.434.56-.742h1.26c-.084.644-.397 1.157-.938 1.54-.541.373-1.218.56-2.03.56Zm1.792-4.522v-.518c0-.607-.159-1.073-.476-1.4-.308-.336-.747-.504-1.316-.504-.57 0-1.013.168-1.33.504-.308.327-.462.793-.462 1.4v.392h3.682l-.098.126Zm3.97 4.382v-7.7h1.26v1.47h.267l-.266.336c0-.597.182-1.069.546-1.414.373-.355.886-.532 1.54-.532.802 0 1.418.243 1.848.728.438.476.658 1.157.658 2.044v.658h-1.26v-.658c0-.569-.14-.989-.42-1.26-.28-.28-.686-.42-1.218-.42-.551 0-.971.159-1.26.476-.29.317-.434.775-.434 1.372v4.9h-1.26Zm11.797 0c-.634 0-1.143-.182-1.526-.546-.382-.373-.574-.868-.574-1.484v-4.522h-2.212V341.3h2.212v-2.17h1.26v2.17h3.15v1.148h-3.15v4.522c0 .261.075.476.224.644a.832.832 0 0 0 .616.238h2.24V349h-2.24Zm7.625.14c-.346 0-.626-.103-.84-.308-.206-.205-.308-.471-.308-.798 0-.345.102-.625.308-.84.214-.215.494-.322.84-.322.345 0 .62.107.826.322.214.215.322.495.322.84 0 .327-.108.593-.322.798-.206.205-.48.308-.826.308Zm5.888-.14-1.26-7.7h1.092l.784 5.432c.028.205.056.434.084.686.028.243.047.443.056.602.019-.159.038-.359.056-.602.028-.252.06-.481.098-.686l.966-5.432h1.26l.966 5.432c.038.205.07.434.098.686.038.243.06.443.07.602l.07-.602c.028-.252.056-.481.084-.686l.812-5.432h1.036l-1.316 7.7h-1.386l-.882-5.32a59.945 59.945 0 0 1-.112-.826 31.852 31.852 0 0 0-.07-.686c-.01.103-.023.243-.042.42-.018.168-.042.35-.07.546l-.084.546-.924 5.32h-1.386Zm10.229.14c-.793 0-1.424-.219-1.89-.658-.467-.448-.7-1.031-.7-1.75 0-.476.107-.891.322-1.246.215-.355.513-.63.896-.826a2.744 2.744 0 0 1 1.316-.308h2.38v-.602c0-.504-.136-.877-.406-1.12-.271-.252-.681-.378-1.232-.378-.485 0-.877.089-1.176.266-.299.177-.458.425-.476.742h-1.26c.046-.607.326-1.106.84-1.498.522-.401 1.213-.602 2.072-.602.933 0 1.647.224 2.142.672.504.448.756 1.073.756 1.876V349h-1.246v-1.4h-.21l.196-.28c0 .373-.094.695-.28.966a1.813 1.813 0 0 1-.798.63c-.346.149-.76.224-1.246.224Zm.308-1.064c.616 0 1.106-.149 1.47-.448.364-.299.546-.705.546-1.218v-1.078h-2.24c-.41 0-.747.126-1.008.378-.252.243-.378.569-.378.98 0 .429.14.77.42 1.022.29.243.686.364 1.19.364Zm6.126.924v-7.7h1.26v1.47h.266l-.266.336c0-.597.182-1.069.546-1.414.374-.355.887-.532 1.54-.532.803 0 1.419.243 1.848.728.439.476.658 1.157.658 2.044v.658h-1.26v-.658c0-.569-.14-.989-.42-1.26-.28-.28-.686-.42-1.218-.42-.55 0-.97.159-1.26.476-.289.317-.434.775-.434 1.372v4.9h-1.26Zm8.115 0v-7.7h1.26v1.47h.266l-.266.294c0-.607.182-1.073.546-1.4.364-.336.868-.504 1.512-.504.775 0 1.391.238 1.848.714.457.476.686 1.125.686 1.946V349h-1.26v-4.956c0-.588-.149-1.036-.448-1.344-.289-.317-.686-.476-1.19-.476-.523 0-.938.163-1.246.49-.299.327-.448.789-.448 1.386v4.9h-1.26Zm8.296 0v-1.148h2.73v-5.404h-2.45V341.3h3.71v6.552h2.59V349h-6.58Zm3.22-9.086c-.308 0-.55-.079-.728-.238-.177-.159-.266-.373-.266-.644 0-.28.089-.499.266-.658.178-.168.42-.252.728-.252s.551.084.728.252c.178.159.266.378.266.658 0 .271-.088.485-.266.644-.177.159-.42.238-.728.238Zm5.273 9.086v-7.7h1.26v1.47h.266l-.266.294c0-.607.182-1.073.546-1.4.364-.336.868-.504 1.512-.504.775 0 1.391.238 1.848.714.457.476.686 1.125.686 1.946V349h-1.26v-4.956c0-.588-.149-1.036-.448-1.344-.289-.317-.686-.476-1.19-.476-.523 0-.938.163-1.246.49-.299.327-.448.789-.448 1.386v4.9h-1.26Zm9.36 2.52v-1.148h2.17c.439 0 .784-.126 1.036-.378.252-.243.378-.574.378-.994v-.7l.028-1.26h-.252l.238-.35c0 .56-.186.999-.56 1.316-.373.308-.872.462-1.498.462-.793 0-1.418-.252-1.876-.756-.457-.504-.686-1.195-.686-2.072v-1.624c0-.877.229-1.573.686-2.086.458-.513 1.083-.77 1.876-.77.626 0 1.125.163 1.498.49.374.327.56.77.56 1.33l-.238-.35h.238v-1.33h1.246v7.7c0 .775-.242 1.386-.728 1.834-.476.457-1.129.686-1.96.686h-2.156Zm1.918-4.102c.523 0 .934-.163 1.232-.49.299-.327.448-.779.448-1.358v-1.47c0-.579-.149-1.031-.448-1.358-.298-.327-.709-.49-1.232-.49-.532 0-.947.154-1.246.462-.289.308-.434.723-.434 1.246v1.75c0 .523.145.938.434 1.246.299.308.714.462 1.246.462Zm8.423 1.722c-.345 0-.625-.103-.84-.308-.205-.205-.308-.471-.308-.798 0-.345.103-.625.308-.84.215-.215.495-.322.84-.322s.621.107.826.322c.215.215.322.495.322.84 0 .327-.107.593-.322.798-.205.205-.481.308-.826.308Zm9.165-.14c-.635 0-1.144-.182-1.526-.546-.383-.373-.574-.868-.574-1.484v-4.522h-2.212V341.3h2.212v-2.17h1.26v2.17h3.15v1.148h-3.15v4.522c0 .261.074.476.224.644a.831.831 0 0 0 .616.238h2.24V349h-2.24Zm4.614 0v-1.148h2.73v-5.404h-2.45V341.3h3.71v6.552h2.59V349h-6.58Zm3.22-9.086c-.308 0-.551-.079-.728-.238-.177-.159-.266-.373-.266-.644 0-.28.089-.499.266-.658.177-.168.42-.252.728-.252s.551.084.728.252c.177.159.266.378.266.658 0 .271-.089.485-.266.644-.177.159-.42.238-.728.238Zm8.955 9.086c-.635 0-1.144-.182-1.526-.546-.383-.373-.574-.868-.574-1.484v-4.522h-2.212V341.3h2.212v-2.17h1.26v2.17h3.15v1.148h-3.15v4.522c0 .261.074.476.224.644a.831.831 0 0 0 .616.238h2.24V349h-2.24Zm8.744 0c-.448 0-.84-.089-1.176-.266a1.91 1.91 0 0 1-.784-.756c-.187-.327-.28-.709-.28-1.148v-6.902h-2.66v-1.148h3.92v8.05c0 .317.089.569.266.756.177.177.415.266.714.266h2.38V349h-2.38Zm7.275.14c-.607 0-1.139-.121-1.596-.364a2.68 2.68 0 0 1-1.05-1.064c-.252-.467-.378-1.017-.378-1.652v-1.82c0-.644.126-1.195.378-1.652a2.59 2.59 0 0 1 1.05-1.05c.457-.252.989-.378 1.596-.378.606 0 1.134.121 1.582.364.457.243.812.583 1.064 1.022.252.439.378.957.378 1.554v1.372h-4.816v.728c0 .569.163 1.022.49 1.358.326.327.76.49 1.302.49.466 0 .849-.089 1.148-.266.308-.187.494-.434.56-.742h1.26c-.084.644-.397 1.157-.938 1.54-.542.373-1.218.56-2.03.56Zm1.792-4.522v-.518c0-.607-.159-1.073-.476-1.4-.308-.336-.747-.504-1.316-.504-.57 0-1.013.168-1.33.504-.308.327-.462.793-.462 1.4v.392h3.682l-.098.126Zm6.602 4.522c-.345 0-.625-.103-.84-.308-.205-.205-.308-.471-.308-.798 0-.345.103-.625.308-.84.215-.215.495-.322.84-.322.346 0 .621.107.826.322.215.215.322.495.322.84 0 .327-.107.593-.322.798-.205.205-.48.308-.826.308Zm8.507 0c-.616 0-1.158-.117-1.624-.35a2.6 2.6 0 0 1-1.078-1.008c-.252-.448-.378-.975-.378-1.582v-2.1c0-.616.126-1.143.378-1.582a2.6 2.6 0 0 1 1.078-1.008c.466-.233 1.008-.35 1.624-.35.886 0 1.6.238 2.142.714.55.476.84 1.125.868 1.946h-1.26c-.028-.495-.196-.873-.504-1.134-.308-.271-.724-.406-1.246-.406-.551 0-.994.159-1.33.476-.327.308-.49.751-.49 1.33v2.114c0 .579.163 1.027.49 1.344.336.317.779.476 1.33.476.522 0 .938-.135 1.246-.406.308-.271.476-.649.504-1.134h1.26c-.028.821-.318 1.47-.868 1.946-.542.476-1.256.714-2.142.714Zm8.282-.028c-.616 0-1.152-.121-1.61-.364a2.59 2.59 0 0 1-1.05-1.05c-.242-.467-.364-1.022-.364-1.666v-1.764c0-.653.122-1.209.364-1.666a2.59 2.59 0 0 1 1.05-1.05c.458-.243.994-.364 1.61-.364.626 0 1.162.121 1.61.364.448.243.794.593 1.036 1.05.252.457.378 1.013.378 1.666v1.764c0 .644-.126 1.199-.378 1.666a2.474 2.474 0 0 1-1.05 1.05c-.448.243-.98.364-1.596.364Zm0-1.12c.551 0 .98-.154 1.288-.462.318-.308.476-.761.476-1.358v-2.044c0-.597-.158-1.05-.476-1.358-.308-.308-.737-.462-1.288-.462-.541 0-.97.154-1.288.462-.317.308-.476.761-.476 1.358v2.044c0 .597.159 1.05.476 1.358.318.308.747.462 1.288.462Zm9.515 1.008c-.448 0-.84-.089-1.176-.266a1.904 1.904 0 0 1-.784-.756c-.187-.327-.28-.709-.28-1.148v-6.902h-2.66v-1.148h3.92v8.05c0 .317.088.569.266.756.177.177.415.266.714.266h2.38V349h-2.38Zm7.274.112c-.616 0-1.152-.121-1.61-.364a2.59 2.59 0 0 1-1.05-1.05c-.242-.467-.364-1.022-.364-1.666v-1.764c0-.653.122-1.209.364-1.666a2.59 2.59 0 0 1 1.05-1.05c.458-.243.994-.364 1.61-.364.626 0 1.162.121 1.61.364.448.243.794.593 1.036 1.05.252.457.378 1.013.378 1.666v1.764c0 .644-.126 1.199-.378 1.666a2.474 2.474 0 0 1-1.05 1.05c-.448.243-.98.364-1.596.364Zm0-1.12c.551 0 .98-.154 1.288-.462.318-.308.476-.761.476-1.358v-2.044c0-.597-.158-1.05-.476-1.358-.308-.308-.737-.462-1.288-.462-.541 0-.97.154-1.288.462-.317.308-.476.761-.476 1.358v2.044c0 .597.159 1.05.476 1.358.318.308.747.462 1.288.462Zm5.763 1.008v-7.7h1.26v1.47h.266l-.266.336c0-.597.182-1.069.546-1.414.373-.355.887-.532 1.54-.532.803 0 1.419.243 1.848.728.439.476.658 1.157.658 2.044v.658H244v-.658c0-.569-.14-.989-.42-1.26-.28-.28-.686-.42-1.218-.42-.551 0-.971.159-1.26.476-.289.317-.434.775-.434 1.372v4.9h-1.26Zm11.026-5.768c-.382 0-.672-.093-.868-.28-.196-.187-.294-.439-.294-.756s.098-.569.294-.756c.196-.187.486-.28.868-.28.383 0 .672.093.868.28.196.187.294.439.294.756s-.098.569-.294.756c-.196.187-.485.28-.868.28Zm0 5.908c-.382 0-.672-.093-.868-.28-.196-.187-.294-.439-.294-.756s.098-.569.294-.756c.196-.187.486-.28.868-.28.383 0 .672.093.868.28.196.187.294.439.294.756s-.098.569-.294.756c-.196.187-.485.28-.868.28Z" fill="#333238"/><rect x="263" y="330" width="192" height="28" rx="4" fill="#ECECEF"/><rect x="271" y="336" width="16" height="16" rx="2" fill="#1F1E24"/><path d="M300.419 349c-.634 0-1.143-.182-1.526-.546-.382-.373-.574-.868-.574-1.484v-4.522h-2.212V341.3h2.212v-2.17h1.26v2.17h3.15v1.148h-3.15v4.522c0 .261.075.476.224.644a.833.833 0 0 0 .616.238h2.24V349h-2.24Zm7.625.14c-.607 0-1.139-.121-1.596-.364a2.68 2.68 0 0 1-1.05-1.064c-.252-.467-.378-1.017-.378-1.652v-1.82c0-.644.126-1.195.378-1.652a2.59 2.59 0 0 1 1.05-1.05c.457-.252.989-.378 1.596-.378.606 0 1.134.121 1.582.364.457.243.812.583 1.064 1.022.252.439.378.957.378 1.554v1.372h-4.816v.728c0 .569.163 1.022.49 1.358.326.327.76.49 1.302.49.466 0 .849-.089 1.148-.266.308-.187.494-.434.56-.742h1.26c-.084.644-.397 1.157-.938 1.54-.542.373-1.218.56-2.03.56Zm1.792-4.522v-.518c0-.607-.159-1.073-.476-1.4-.308-.336-.747-.504-1.316-.504-.57 0-1.013.168-1.33.504-.308.327-.462.793-.462 1.4v.392h3.682l-.098.126Zm3.102 4.382 2.73-3.962-2.562-3.738h1.484l1.526 2.38c.066.103.126.215.182.336.066.121.117.219.154.294a4.41 4.41 0 0 1 .126-.294c.066-.121.131-.233.196-.336l1.526-2.38h1.484l-2.562 3.752 2.716 3.948h-1.484l-1.652-2.52a4.181 4.181 0 0 1-.196-.35 2.971 2.971 0 0 0-.154-.336 5.167 5.167 0 0 1-.168.336 2.418 2.418 0 0 1-.21.35l-1.652 2.52h-1.484Zm12.665 0c-.635 0-1.144-.182-1.526-.546-.383-.373-.574-.868-.574-1.484v-4.522h-2.212V341.3h2.212v-2.17h1.26v2.17h3.15v1.148h-3.15v4.522c0 .261.074.476.224.644a.831.831 0 0 0 .616.238h2.24V349h-2.24Zm7.624.14c-.345 0-.625-.103-.84-.308-.205-.205-.308-.471-.308-.798 0-.345.103-.625.308-.84.215-.215.495-.322.84-.322.346 0 .621.107.826.322.215.215.322.495.322.84 0 .327-.107.593-.322.798-.205.205-.48.308-.826.308Zm8.507 0c-.616 0-1.157-.117-1.624-.35a2.607 2.607 0 0 1-1.078-1.008c-.252-.448-.378-.975-.378-1.582v-2.1c0-.616.126-1.143.378-1.582a2.607 2.607 0 0 1 1.078-1.008c.467-.233 1.008-.35 1.624-.35.887 0 1.601.238 2.142.714.551.476.84 1.125.868 1.946h-1.26c-.028-.495-.196-.873-.504-1.134-.308-.271-.723-.406-1.246-.406-.551 0-.994.159-1.33.476-.327.308-.49.751-.49 1.33v2.114c0 .579.163 1.027.49 1.344.336.317.779.476 1.33.476.523 0 .938-.135 1.246-.406.308-.271.476-.649.504-1.134h1.26c-.028.821-.317 1.47-.868 1.946-.541.476-1.255.714-2.142.714Zm8.282-.028c-.616 0-1.152-.121-1.61-.364a2.59 2.59 0 0 1-1.05-1.05c-.242-.467-.364-1.022-.364-1.666v-1.764c0-.653.122-1.209.364-1.666a2.59 2.59 0 0 1 1.05-1.05c.458-.243.994-.364 1.61-.364.626 0 1.162.121 1.61.364.448.243.794.593 1.036 1.05.252.457.378 1.013.378 1.666v1.764c0 .644-.126 1.199-.378 1.666a2.474 2.474 0 0 1-1.05 1.05c-.448.243-.98.364-1.596.364Zm0-1.12c.551 0 .98-.154 1.288-.462.318-.308.476-.761.476-1.358v-2.044c0-.597-.158-1.05-.476-1.358-.308-.308-.737-.462-1.288-.462-.541 0-.97.154-1.288.462-.317.308-.476.761-.476 1.358v2.044c0 .597.159 1.05.476 1.358.318.308.747.462 1.288.462Zm9.515 1.008c-.448 0-.84-.089-1.176-.266a1.91 1.91 0 0 1-.784-.756c-.187-.327-.28-.709-.28-1.148v-6.902h-2.66v-1.148h3.92v8.05c0 .317.089.569.266.756.177.177.415.266.714.266h2.38V349h-2.38Zm7.274.112c-.616 0-1.152-.121-1.61-.364a2.59 2.59 0 0 1-1.05-1.05c-.242-.467-.364-1.022-.364-1.666v-1.764c0-.653.122-1.209.364-1.666a2.59 2.59 0 0 1 1.05-1.05c.458-.243.994-.364 1.61-.364.626 0 1.162.121 1.61.364.448.243.794.593 1.036 1.05.252.457.378 1.013.378 1.666v1.764c0 .644-.126 1.199-.378 1.666a2.474 2.474 0 0 1-1.05 1.05c-.448.243-.98.364-1.596.364Zm0-1.12c.551 0 .98-.154 1.288-.462.318-.308.476-.761.476-1.358v-2.044c0-.597-.158-1.05-.476-1.358-.308-.308-.737-.462-1.288-.462-.541 0-.97.154-1.288.462-.317.308-.476.761-.476 1.358v2.044c0 .597.159 1.05.476 1.358.318.308.747.462 1.288.462Zm5.763 1.008v-7.7h1.26v1.47h.266l-.266.336c0-.597.182-1.069.546-1.414.373-.355.887-.532 1.54-.532.803 0 1.419.243 1.848.728.439.476.658 1.157.658 2.044v.658h-1.26v-.658c0-.569-.14-.989-.42-1.26-.28-.28-.686-.42-1.218-.42-.551 0-.971.159-1.26.476-.289.317-.434.775-.434 1.372v4.9h-1.26Zm11.027.14c-.346 0-.626-.103-.84-.308-.206-.205-.308-.471-.308-.798 0-.345.102-.625.308-.84.214-.215.494-.322.84-.322.345 0 .62.107.826.322.214.215.322.495.322.84 0 .327-.108.593-.322.798-.206.205-.481.308-.826.308Zm5.482-.14v-10.22h1.26v3.99h.266l-.266.294c0-.607.182-1.073.546-1.4.364-.336.868-.504 1.512-.504.775 0 1.391.238 1.848.714.457.476.686 1.125.686 1.946V349h-1.26v-4.97c0-.579-.149-1.022-.448-1.33-.289-.317-.686-.476-1.19-.476-.523 0-.938.163-1.246.49-.299.327-.448.789-.448 1.386v4.9h-1.26Zm11.307.14c-.607 0-1.139-.121-1.596-.364a2.68 2.68 0 0 1-1.05-1.064c-.252-.467-.378-1.017-.378-1.652v-1.82c0-.644.126-1.195.378-1.652a2.59 2.59 0 0 1 1.05-1.05c.457-.252.989-.378 1.596-.378.606 0 1.134.121 1.582.364.457.243.812.583 1.064 1.022.252.439.378.957.378 1.554v1.372h-4.816v.728c0 .569.163 1.022.49 1.358.326.327.76.49 1.302.49.466 0 .849-.089 1.148-.266.308-.187.494-.434.56-.742h1.26c-.084.644-.397 1.157-.938 1.54-.542.373-1.218.56-2.03.56Zm1.792-4.522v-.518c0-.607-.159-1.073-.476-1.4-.308-.336-.747-.504-1.316-.504-.57 0-1.013.168-1.33.504-.308.327-.462.793-.462 1.4v.392h3.682l-.098.126Zm5.93 4.522c-.793 0-1.423-.219-1.89-.658-.467-.448-.7-1.031-.7-1.75 0-.476.107-.891.322-1.246.215-.355.513-.63.896-.826a2.744 2.744 0 0 1 1.316-.308h2.38v-.602c0-.504-.135-.877-.406-1.12-.271-.252-.681-.378-1.232-.378-.485 0-.877.089-1.176.266-.299.177-.457.425-.476.742h-1.26c.047-.607.327-1.106.84-1.498.523-.401 1.213-.602 2.072-.602.933 0 1.647.224 2.142.672.504.448.756 1.073.756 1.876V349h-1.246v-1.4h-.21l.196-.28c0 .373-.093.695-.28.966a1.813 1.813 0 0 1-.798.63c-.345.149-.761.224-1.246.224Zm.308-1.064c.616 0 1.106-.149 1.47-.448.364-.299.546-.705.546-1.218v-1.078h-2.24c-.411 0-.747.126-1.008.378-.252.243-.378.569-.378.98 0 .429.14.77.42 1.022.289.243.686.364 1.19.364Zm8.311 1.064c-.766 0-1.382-.257-1.848-.77-.458-.513-.686-1.209-.686-2.086v-2.254c0-.887.228-1.587.686-2.1.457-.513 1.073-.77 1.848-.77.634 0 1.148.173 1.54.518.392.345.588.807.588 1.386l-.28-.294h.28l-.028-1.75v-2.24h1.26V349h-1.26v-1.47h-.252l.252-.294c0 .588-.192 1.055-.574 1.4-.383.336-.892.504-1.526.504Zm.42-1.092c.522 0 .933-.163 1.232-.49.298-.327.448-.779.448-1.358v-2.1c0-.579-.15-1.031-.448-1.358-.299-.327-.71-.49-1.232-.49-.532 0-.948.14-1.246.42-.299.271-.448.723-.448 1.358v2.24c0 .625.149 1.078.448 1.358.298.28.714.42 1.246.42Zm5.412.952v-1.148h2.73v-5.404h-2.45V341.3h3.71v6.552h2.59V349h-6.58Zm3.22-9.086c-.308 0-.55-.079-.728-.238-.177-.159-.266-.373-.266-.644 0-.28.089-.499.266-.658.178-.168.42-.252.728-.252s.551.084.728.252c.178.159.266.378.266.658 0 .271-.088.485-.266.644-.177.159-.42.238-.728.238ZM431.05 349v-7.7h1.26v1.47h.266l-.266.294c0-.607.182-1.073.546-1.4.364-.336.868-.504 1.512-.504.774 0 1.39.238 1.848.714.457.476.686 1.125.686 1.946V349h-1.26v-4.956c0-.588-.15-1.036-.448-1.344-.29-.317-.686-.476-1.19-.476-.523 0-.938.163-1.246.49-.299.327-.448.789-.448 1.386v4.9h-1.26Zm9.36 2.52v-1.148h2.17c.439 0 .784-.126 1.036-.378.252-.243.378-.574.378-.994v-.7l.028-1.26h-.252l.238-.35c0 .56-.186.999-.56 1.316-.373.308-.872.462-1.498.462-.793 0-1.418-.252-1.876-.756-.457-.504-.686-1.195-.686-2.072v-1.624c0-.877.229-1.573.686-2.086.458-.513 1.083-.77 1.876-.77.626 0 1.125.163 1.498.49.374.327.56.77.56 1.33l-.238-.35h.238v-1.33h1.246v7.7c0 .775-.242 1.386-.728 1.834-.476.457-1.129.686-1.96.686h-2.156Zm1.918-4.102c.523 0 .934-.163 1.232-.49.299-.327.448-.779.448-1.358v-1.47c0-.579-.149-1.031-.448-1.358-.298-.327-.709-.49-1.232-.49-.532 0-.947.154-1.246.462-.289.308-.434.723-.434 1.246v1.75c0 .523.145.938.434 1.246.299.308.714.462 1.246.462Z" fill="#333238"/><rect x="344" y="16" width="99" height="28" rx="4" fill="#ECECEF"/><rect x="351.5" y="21.5" width="17" height="17" rx="2.5" fill="#F4F0FF" stroke="#BFBFC3"/><path d="m377.281 35 .546-2.94h-1.218v-.91h1.372l.476-2.52h-1.358v-.91h1.512l.546-2.94h.98l-.546 2.94h2.24l.546-2.94h.98l-.546 2.94h1.218v.91h-1.372l-.476 2.52h1.358v.91h-1.512l-.546 2.94h-.98l.546-2.94h-2.24l-.546 2.94h-.98Zm1.68-3.85h2.24l.476-2.52h-2.24l-.476 2.52Zm8.563 3.85v-5.502h-2.24V28.35h2.24v-1.61c0-.607.191-1.083.574-1.428.382-.355.91-.532 1.582-.532h2.254v1.148h-2.254c-.29 0-.514.07-.672.21-.15.13-.224.331-.224.602v1.61h3.15v1.148h-3.15V35h-1.26Zm10.984 0v-2.24h-4.62v-1.974l3.724-6.006h1.428l-3.892 6.286v.546h3.36V29.12h1.26V35h-1.26Zm5.805 0v-5.502h-2.24V28.35h2.24v-1.61c0-.607.191-1.083.574-1.428.382-.355.91-.532 1.582-.532h2.254v1.148h-2.254c-.29 0-.514.07-.672.21-.15.13-.224.331-.224.602v1.61h3.15v1.148h-3.15V35h-1.26Zm9.584.14c-.625 0-1.171-.121-1.638-.364a2.68 2.68 0 0 1-1.064-1.05c-.252-.457-.378-.99-.378-1.596v-4.48c0-.616.126-1.148.378-1.596a2.588 2.588 0 0 1 1.064-1.036c.467-.252 1.013-.378 1.638-.378.635 0 1.181.126 1.638.378.458.243.812.588 1.064 1.036.252.448.378.98.378 1.596v4.48c0 .607-.126 1.139-.378 1.596a2.653 2.653 0 0 1-1.078 1.05c-.457.243-.998.364-1.624.364Zm0-1.078c.56 0 1.008-.177 1.344-.532.346-.364.518-.83.518-1.4v-4.48c0-.57-.172-1.031-.518-1.386-.336-.364-.784-.546-1.344-.546s-1.012.182-1.358.546c-.336.355-.504.817-.504 1.386v4.48c0 .57.168 1.036.504 1.4.346.355.798.532 1.358.532Zm0-3.402c-.252 0-.457-.07-.616-.21-.149-.14-.224-.34-.224-.602 0-.252.075-.443.224-.574.159-.14.364-.21.616-.21s.453.07.602.21c.159.13.238.322.238.574 0 .261-.079.462-.238.602-.149.14-.35.21-.602.21Zm7.205 4.34v-5.502h-2.24V28.35h2.24v-1.61c0-.607.191-1.083.574-1.428.382-.355.91-.532 1.582-.532h2.254v1.148h-2.254c-.29 0-.514.07-.672.21-.15.13-.224.331-.224.602v1.61h3.15v1.148h-3.15V35h-1.26Zm8.394 0v-5.502h-2.24V28.35h2.24v-1.61c0-.607.192-1.083.574-1.428.383-.355.91-.532 1.582-.532h2.254v1.148h-2.254c-.289 0-.513.07-.672.21-.149.13-.224.331-.224.602v1.61h3.15v1.148h-3.15V35h-1.26Z" fill="#333238"/><rect x="268" y="269" width="183" height="28" rx="4" fill="#ECECEF"/><rect x="276" y="275" width="16" height="16" rx="2" fill="#1F1E24"/><path d="M304.458 288.14c-.616 0-1.157-.117-1.624-.35a2.613 2.613 0 0 1-1.078-1.008c-.252-.448-.378-.975-.378-1.582v-2.1c0-.616.126-1.143.378-1.582a2.613 2.613 0 0 1 1.078-1.008c.467-.233 1.008-.35 1.624-.35.887 0 1.601.238 2.142.714.551.476.84 1.125.868 1.946h-1.26c-.028-.495-.196-.873-.504-1.134-.308-.271-.723-.406-1.246-.406-.55 0-.994.159-1.33.476-.326.308-.49.751-.49 1.33v2.114c0 .579.164 1.027.49 1.344.336.317.78.476 1.33.476.523 0 .938-.135 1.246-.406.308-.271.476-.649.504-1.134h1.26c-.028.821-.317 1.47-.868 1.946-.541.476-1.255.714-2.142.714Zm8.283-.028c-.616 0-1.153-.121-1.61-.364a2.59 2.59 0 0 1-1.05-1.05c-.243-.467-.364-1.022-.364-1.666v-1.764c0-.653.121-1.209.364-1.666a2.59 2.59 0 0 1 1.05-1.05c.457-.243.994-.364 1.61-.364.625 0 1.162.121 1.61.364.448.243.793.593 1.036 1.05.252.457.378 1.013.378 1.666v1.764c0 .644-.126 1.199-.378 1.666a2.485 2.485 0 0 1-1.05 1.05c-.448.243-.98.364-1.596.364Zm0-1.12c.551 0 .98-.154 1.288-.462.317-.308.476-.761.476-1.358v-2.044c0-.597-.159-1.05-.476-1.358-.308-.308-.737-.462-1.288-.462-.541 0-.971.154-1.288.462-.317.308-.476.761-.476 1.358v2.044c0 .597.159 1.05.476 1.358.317.308.747.462 1.288.462Zm9.515 1.008c-.448 0-.84-.089-1.176-.266a1.904 1.904 0 0 1-.784-.756c-.187-.327-.28-.709-.28-1.148v-6.902h-2.66v-1.148h3.92v8.05c0 .317.088.569.266.756.177.177.415.266.714.266h2.38V288h-2.38Zm7.274.112c-.616 0-1.153-.121-1.61-.364a2.59 2.59 0 0 1-1.05-1.05c-.243-.467-.364-1.022-.364-1.666v-1.764c0-.653.121-1.209.364-1.666a2.59 2.59 0 0 1 1.05-1.05c.457-.243.994-.364 1.61-.364.625 0 1.162.121 1.61.364.448.243.793.593 1.036 1.05.252.457.378 1.013.378 1.666v1.764c0 .644-.126 1.199-.378 1.666a2.485 2.485 0 0 1-1.05 1.05c-.448.243-.98.364-1.596.364Zm0-1.12c.551 0 .98-.154 1.288-.462.317-.308.476-.761.476-1.358v-2.044c0-.597-.159-1.05-.476-1.358-.308-.308-.737-.462-1.288-.462-.541 0-.971.154-1.288.462-.317.308-.476.761-.476 1.358v2.044c0 .597.159 1.05.476 1.358.317.308.747.462 1.288.462Zm5.763 1.008v-7.7h1.26v1.47h.266l-.266.336c0-.597.182-1.069.546-1.414.373-.355.886-.532 1.54-.532.802 0 1.418.243 1.848.728.438.476.658 1.157.658 2.044v.658h-1.26v-.658c0-.569-.14-.989-.42-1.26-.28-.28-.686-.42-1.218-.42-.551 0-.971.159-1.26.476-.29.317-.434.775-.434 1.372v4.9h-1.26Zm11.026.14c-.345 0-.625-.103-.84-.308-.205-.205-.308-.471-.308-.798 0-.345.103-.625.308-.84.215-.215.495-.322.84-.322s.621.107.826.322c.215.215.322.495.322.84 0 .327-.107.593-.322.798-.205.205-.481.308-.826.308Zm5.483-.14v-7.7h1.26v1.47h.266l-.266.294c0-.607.182-1.073.546-1.4.364-.336.868-.504 1.512-.504.774 0 1.39.238 1.848.714.457.476.686 1.125.686 1.946V288h-1.26v-4.956c0-.588-.15-1.036-.448-1.344-.29-.317-.686-.476-1.19-.476-.523 0-.938.163-1.246.49-.299.327-.448.789-.448 1.386v4.9h-1.26Zm11.306.14c-.606 0-1.138-.121-1.596-.364a2.68 2.68 0 0 1-1.05-1.064c-.252-.467-.378-1.017-.378-1.652v-1.82c0-.644.126-1.195.378-1.652a2.59 2.59 0 0 1 1.05-1.05c.458-.252.99-.378 1.596-.378.607 0 1.134.121 1.582.364.458.243.812.583 1.064 1.022.252.439.378.957.378 1.554v1.372h-4.816v.728c0 .569.164 1.022.49 1.358.327.327.761.49 1.302.49.467 0 .85-.089 1.148-.266.308-.187.495-.434.56-.742h1.26c-.084.644-.396 1.157-.938 1.54-.541.373-1.218.56-2.03.56Zm1.792-4.522v-.518c0-.607-.158-1.073-.476-1.4-.308-.336-.746-.504-1.316-.504-.569 0-1.012.168-1.33.504-.308.327-.462.793-.462 1.4v.392h3.682l-.098.126Zm6.589 4.522c-.887 0-1.596-.261-2.128-.784-.532-.532-.798-1.251-.798-2.156v-4.9h1.26v4.9c0 .56.149 1.008.448 1.344.298.327.704.49 1.218.49.522 0 .933-.163 1.232-.49.308-.336.462-.784.462-1.344v-4.9h1.26v4.9c0 .905-.271 1.624-.812 2.156-.542.523-1.256.784-2.142.784Zm9.178-.14c-.634 0-1.143-.182-1.526-.546-.382-.373-.574-.868-.574-1.484v-4.522h-2.212V280.3h2.212v-2.17h1.26v2.17h3.15v1.148h-3.15v4.522c0 .261.075.476.224.644a.833.833 0 0 0 .616.238h2.24V288h-2.24Zm4.993 0v-7.7h1.26v1.47h.266l-.266.336c0-.597.182-1.069.546-1.414.373-.355.886-.532 1.54-.532.802 0 1.418.243 1.848.728.438.476.658 1.157.658 2.044v.658h-1.26v-.658c0-.569-.14-.989-.42-1.26-.28-.28-.686-.42-1.218-.42-.551 0-.971.159-1.26.476-.29.317-.434.775-.434 1.372v4.9h-1.26Zm10.354.14c-.793 0-1.423-.219-1.89-.658-.466-.448-.7-1.031-.7-1.75 0-.476.108-.891.322-1.246.215-.355.514-.63.896-.826a2.747 2.747 0 0 1 1.316-.308h2.38v-.602c0-.504-.135-.877-.406-1.12-.27-.252-.681-.378-1.232-.378-.485 0-.877.089-1.176.266-.298.177-.457.425-.476.742h-1.26c.047-.607.327-1.106.84-1.498.523-.401 1.214-.602 2.072-.602.934 0 1.648.224 2.142.672.504.448.756 1.073.756 1.876V288h-1.246v-1.4h-.21l.196-.28c0 .373-.093.695-.28.966a1.802 1.802 0 0 1-.798.63c-.345.149-.76.224-1.246.224Zm.308-1.064c.616 0 1.106-.149 1.47-.448.364-.299.546-.705.546-1.218v-1.078h-2.24c-.41 0-.746.126-1.008.378-.252.243-.378.569-.378.98 0 .429.14.77.42 1.022.29.243.686.364 1.19.364Zm9.879.924c-.448 0-.84-.089-1.176-.266a1.91 1.91 0 0 1-.784-.756c-.187-.327-.28-.709-.28-1.148v-6.902h-2.66v-1.148h3.92v8.05c0 .317.089.569.266.756.177.177.415.266.714.266h2.38V288h-2.38Zm7.274.14c-.345 0-.625-.103-.84-.308-.205-.205-.308-.471-.308-.798 0-.345.103-.625.308-.84.215-.215.495-.322.84-.322.346 0 .621.107.826.322.215.215.322.495.322.84 0 .327-.107.593-.322.798-.205.205-.48.308-.826.308Zm6.925-.14 2.52-4.382-.042-.028a.864.864 0 0 1-.308.252 1.919 1.919 0 0 1-.462.182 2.808 2.808 0 0 1-.574.056c-.588 0-1.106-.131-1.554-.392a2.88 2.88 0 0 1-1.036-1.106c-.252-.467-.378-1.008-.378-1.624 0-.663.14-1.241.42-1.736.28-.495.667-.882 1.162-1.162.495-.28 1.064-.42 1.708-.42.663 0 1.241.14 1.736.42.495.271.882.653 1.162 1.148.28.485.42 1.05.42 1.694 0 .448-.084.91-.252 1.386a9.724 9.724 0 0 1-.686 1.47L421.87 288h-1.47Zm1.47-4.9c.607 0 1.097-.201 1.47-.602.383-.401.574-.924.574-1.568 0-.429-.089-.807-.266-1.134a1.798 1.798 0 0 0-.714-.756c-.299-.187-.653-.28-1.064-.28a2.01 2.01 0 0 0-1.064.28 1.888 1.888 0 0 0-.728.756 2.448 2.448 0 0 0-.252 1.134c0 .429.084.807.252 1.134.177.327.42.583.728.77.308.177.663.266 1.064.266Zm8.31 5.04c-.942 0-1.689-.261-2.24-.784-.55-.532-.826-1.251-.826-2.156h1.26c0 .56.164 1.003.49 1.33.327.327.77.49 1.33.49s1.004-.163 1.33-.49c.327-.327.49-.77.49-1.33v-.63c0-.56-.158-1.003-.476-1.33-.317-.327-.746-.49-1.288-.49h-2.786v-4.97h5.446v1.148h-4.27l.028 2.674h1.652c.943 0 1.671.261 2.184.784.514.513.77 1.241.77 2.184v.63c0 .905-.28 1.624-.84 2.156-.55.523-1.302.784-2.254.784Zm8.479 0c-.625 0-1.171-.121-1.638-.364a2.68 2.68 0 0 1-1.064-1.05c-.252-.457-.378-.989-.378-1.596v-4.48c0-.616.126-1.148.378-1.596a2.59 2.59 0 0 1 1.064-1.036c.467-.252 1.013-.378 1.638-.378.635 0 1.181.126 1.638.378a2.59 2.59 0 0 1 1.064 1.036c.252.448.378.98.378 1.596v4.48c0 .607-.126 1.139-.378 1.596a2.653 2.653 0 0 1-1.078 1.05c-.457.243-.999.364-1.624.364Zm0-1.078c.56 0 1.008-.177 1.344-.532.345-.364.518-.831.518-1.4v-4.48c0-.569-.173-1.031-.518-1.386-.336-.364-.784-.546-1.344-.546s-1.013.182-1.358.546c-.336.355-.504.817-.504 1.386v4.48c0 .569.168 1.036.504 1.4.345.355.798.532 1.358.532Zm0-3.402c-.252 0-.457-.07-.616-.21-.149-.14-.224-.341-.224-.602 0-.252.075-.443.224-.574.159-.14.364-.21.616-.21s.453.07.602.21c.159.131.238.322.238.574 0 .261-.079.462-.238.602-.149.14-.35.21-.602.21Z" fill="#333238"/><rect x="310" y="209" width="99" height="28" rx="4" fill="#ECECEF"/><rect x="318" y="215" width="16" height="16" rx="2" fill="#1F1E24"/><path d="m343.281 228 .546-2.94h-1.218v-.91h1.372l.476-2.52h-1.358v-.91h1.512l.546-2.94h.98l-.546 2.94h2.24l.546-2.94h.98l-.546 2.94h1.218v.91h-1.372l-.476 2.52h1.358v.91h-1.512l-.546 2.94h-.98l.546-2.94h-2.24l-.546 2.94h-.98Zm1.68-3.85h2.24l.476-2.52h-2.24l-.476 2.52Zm6.813 3.85v-1.148h2.772v-7.98l-2.772 2.072v-1.442l2.31-1.722h1.722v9.072h2.268V228h-6.3Zm10.144 0v-5.502h-2.24v-1.148h2.24v-1.61c0-.607.192-1.083.574-1.428.383-.355.91-.532 1.582-.532h2.254v1.148h-2.254c-.289 0-.513.07-.672.21-.149.131-.224.331-.224.602v1.61h3.15v1.148h-3.15V228h-1.26Zm6.645 0v-1.148h2.772v-7.98l-2.772 2.072v-1.442l2.31-1.722h1.722v9.072h2.268V228h-6.3Zm11.334.14c-.606 0-1.138-.121-1.596-.364a2.68 2.68 0 0 1-1.05-1.064c-.252-.467-.378-1.017-.378-1.652v-1.82c0-.644.126-1.195.378-1.652a2.59 2.59 0 0 1 1.05-1.05c.458-.252.99-.378 1.596-.378.607 0 1.134.121 1.582.364.458.243.812.583 1.064 1.022.252.439.378.957.378 1.554v1.372h-4.816v.728c0 .569.164 1.022.49 1.358.327.327.761.49 1.302.49.467 0 .85-.089 1.148-.266.308-.187.495-.434.56-.742h1.26c-.084.644-.396 1.157-.938 1.54-.541.373-1.218.56-2.03.56Zm1.792-4.522v-.518c0-.607-.158-1.073-.476-1.4-.308-.336-.746-.504-1.316-.504-.569 0-1.012.168-1.33.504-.308.327-.462.793-.462 1.4v.392h3.682l-.098.126Zm3.607 4.382v-1.162l3.402-3.64c.494-.523.844-.989 1.05-1.4.205-.411.308-.812.308-1.204 0-.56-.164-1.003-.49-1.33-.318-.336-.752-.504-1.302-.504-.57 0-1.022.173-1.358.518-.327.336-.49.793-.49 1.372h-1.26c.018-.616.158-1.148.42-1.596a2.65 2.65 0 0 1 1.078-1.05c.457-.243.994-.364 1.61-.364.634 0 1.18.121 1.638.364a2.59 2.59 0 0 1 1.064 1.036c.252.439.378.961.378 1.568 0 .485-.136.999-.406 1.54-.262.541-.714 1.148-1.358 1.82l-2.758 2.884h4.648V228h-6.174Zm12.79 0v-2.24h-4.62v-1.974l3.724-6.006h1.428l-3.892 6.286v.546h3.36v-2.492h1.26V228h-1.26Z" fill="#333238"/><path d="M392.293 51.293a1 1 0 0 1 1.414 0l6.364 6.364a1 1 0 1 1-1.414 1.414L393 53.414l-5.657 5.657a1 1 0 1 1-1.414-1.414l6.364-6.364ZM394 68a1 1 0 0 1-2 0h2Zm0-16v16h-2V52h2Zm-35.707 252.293a.999.999 0 0 1 1.414 0l6.364 6.364a.999.999 0 1 1-1.414 1.414L359 306.414l-5.657 5.657a.999.999 0 1 1-1.414-1.414l6.364-6.364ZM360 321a1 1 0 0 1-2 0h2Zm0-16v16h-2v-16h2Zm-1.707-60.707a.999.999 0 0 1 1.414 0l6.364 6.364a.999.999 0 1 1-1.414 1.414L359 246.414l-5.657 5.657a.999.999 0 1 1-1.414-1.414l6.364-6.364ZM360 261a1 1 0 0 1-2 0h2Zm0-16v16h-2v-16h2Z" fill="#FC6D26"/></svg>