<svg width="601" height="156" viewBox="0 0 601 156" fill="none" xmlns="http://www.w3.org/2000/svg"><rect width="601" height="156" rx="4" fill="#FBFAFD"/><path d="M20.491 29.178c-2.208 0-3.582-1.135-3.698-2.844h1.333c.102 1.155 1.169 1.682 2.365 1.682 1.381 0 2.434-.725 2.434-1.812 0-.984-.93-1.347-2.017-1.654l-1.23-.349c-1.64-.465-2.598-1.306-2.598-2.659 0-1.723 1.531-2.864 3.5-2.864 2.01 0 3.411 1.169 3.473 2.707H22.78c-.116-.991-1.032-1.559-2.242-1.559-1.32 0-2.194.697-2.194 1.654 0 1.067 1.196 1.443 1.941 1.648l1.019.28c1.093.301 2.884.916 2.884 2.817 0 1.668-1.346 2.953-3.698 2.953Zm5.572 2.68v-10.5h1.189v1.223h.137c.253-.403.724-1.32 2.215-1.32 1.907 0 3.24 1.518 3.24 3.938 0 2.434-1.326 3.965-3.234 3.965-1.456 0-1.968-.923-2.221-1.347h-.096v4.04h-1.23Zm3.363-3.794c1.429 0 2.167-1.272 2.167-2.878 0-1.586-.718-2.824-2.167-2.824-1.408 0-2.147 1.135-2.147 2.824 0 1.702.76 2.878 2.147 2.878Zm8.422 1.1c-2.215 0-3.582-1.572-3.582-3.924 0-2.345 1.353-3.978 3.438-3.978 1.62 0 3.33.998 3.33 3.821v.513H35.1v-1.04h5.27l-.574.383c0-1.503-.711-2.584-2.092-2.584-1.38 0-2.194 1.142-2.194 2.386v.69c0 1.703.943 2.64 2.345 2.64.902 0 1.579-.397 1.866-1.177l1.19.329c-.356 1.155-1.498 1.941-3.063 1.941Zm8.06 0c-2.079 0-3.48-1.579-3.48-3.937 0-2.393 1.401-3.965 3.48-3.965 1.476 0 2.679.779 3.096 2.112l-1.183.335c-.225-.786-.909-1.347-1.914-1.347-1.524 0-2.228 1.34-2.228 2.865 0 1.503.704 2.837 2.228 2.837 1.026 0 1.723-.582 1.949-1.409l1.175.335c-.41 1.36-1.627 2.174-3.124 2.174ZM50.794 29v-7.643h1.23V29h-1.23Zm.622-8.894c-.465 0-.855-.362-.855-.813 0-.451.39-.813.855-.813.472 0 .861.362.861.813 0 .451-.39.813-.861.813ZM54.732 29v-8.661c0-1.326 1.06-2.003 2.174-2.003.246 0 .465.02.643.055l-.185 1.114a1.416 1.416 0 0 0-.314-.027c-.759 0-1.087.396-1.087 1.134V29h-1.23Zm-1.49-6.59v-1.053H59.3v1.053h-6.057ZM58.89 29v-7.643h1.23V29h-1.23Zm.622-8.894c-.465 0-.855-.362-.855-.813 0-.451.39-.813.855-.813.471 0 .861.362.861.813 0 .451-.39.813-.861.813Zm5.879 9.058c-2.078 0-3.48-1.579-3.48-3.937 0-2.393 1.402-3.965 3.48-3.965 1.476 0 2.68.779 3.096 2.112l-1.182.335c-.226-.786-.91-1.347-1.914-1.347-1.525 0-2.229 1.34-2.229 2.865 0 1.503.704 2.837 2.229 2.837 1.025 0 1.722-.582 1.948-1.409l1.176.335c-.41 1.36-1.627 2.174-3.124 2.174ZM70.277 29v-7.643h1.23V29h-1.23Zm.622-8.894c-.464 0-.854-.362-.854-.813 0-.451.39-.813.854-.813.472 0 .862.362.862.813 0 .451-.39.813-.862.813Zm5.777 1.251v1.053h-3.951v-1.053h3.95Zm-2.803-1.818h1.23v7.479c0 .683.253.984.903.984.157 0 .424-.041.629-.082l.253 1.039a2.961 2.961 0 0 1-.916.137c-1.32 0-2.099-.732-2.099-1.983V19.54Zm4.525 12.23.315-1.067.13.034c.752.199 1.292.034 1.668-1.06l.219-.635-2.92-7.684h1.347l1.627 4.533c.342.95.547 1.886.814 2.761h-.451c.26-.875.471-1.818.813-2.761l1.64-4.533h1.34l-3.356 8.785c-.465 1.216-1.203 1.77-2.283 1.77-.438 0-.773-.082-.903-.143Z" fill="#000"/><path d="M585.707 24.707a1 1 0 0 0 0-1.414l-6.364-6.364a1 1 0 1 0-1.414 1.414L583.586 24l-5.657 5.657a1 1 0 1 0 1.414 1.414l6.364-6.364ZM94 23a1 1 0 1 0 0 2v-2Zm491 0H94v2h491v-2Z" fill="#FC6D26"/><rect x="16" y="56" width="163" height="28" rx="4" fill="#ECECEF"/><rect x="24" y="62" width="16" height="16" rx="2" fill="#1F1E24"/><path d="M52.036 74.12c-.528 0-.992-.1-1.392-.3-.392-.2-.7-.488-.924-.864-.216-.384-.324-.836-.324-1.356v-1.8c0-.528.108-.98.324-1.356.224-.376.532-.664.924-.864.4-.2.864-.3 1.392-.3.76 0 1.372.204 1.836.612.472.408.72.964.744 1.668h-1.08c-.024-.424-.168-.748-.432-.972-.264-.232-.62-.348-1.068-.348-.472 0-.852.136-1.14.408-.28.264-.42.644-.42 1.14V71.6c0 .496.14.88.42 1.152.288.272.668.408 1.14.408.448 0 .804-.116 1.068-.348.264-.232.408-.556.432-.972h1.08c-.024.704-.272 1.26-.744 1.668-.464.408-1.076.612-1.836.612Zm7.1-.024c-.529 0-.989-.104-1.38-.312a2.216 2.216 0 0 1-.9-.9c-.209-.4-.313-.876-.313-1.428v-1.512c0-.56.104-1.036.312-1.428.216-.392.516-.692.9-.9.392-.208.852-.312 1.38-.312.536 0 .996.104 1.38.312.384.208.68.508.888.9.216.392.324.868.324 1.428v1.512c0 .552-.108 1.028-.324 1.428a2.124 2.124 0 0 1-.9.9c-.384.208-.84.312-1.368.312Zm0-.96c.471 0 .84-.132 1.103-.396.272-.264.408-.652.408-1.164v-1.752c0-.512-.136-.9-.408-1.164-.264-.264-.632-.396-1.104-.396-.464 0-.832.132-1.104.396-.272.264-.408.652-.408 1.164v1.752c0 .512.136.9.408 1.164.272.264.64.396 1.104.396ZM67.29 74a2.13 2.13 0 0 1-1.008-.228 1.639 1.639 0 0 1-.671-.648 1.95 1.95 0 0 1-.24-.984v-5.916h-2.28v-.984h3.36v6.9c0 .272.076.488.228.648.151.152.355.228.611.228h2.04V74h-2.04Zm6.236.096c-.528 0-.988-.104-1.38-.312a2.216 2.216 0 0 1-.9-.9c-.208-.4-.312-.876-.312-1.428v-1.512c0-.56.104-1.036.312-1.428.216-.392.516-.692.9-.9.392-.208.852-.312 1.38-.312.536 0 .996.104 1.38.312.384.208.68.508.888.9.216.392.324.868.324 1.428v1.512c0 .552-.108 1.028-.324 1.428a2.124 2.124 0 0 1-.9.9c-.384.208-.84.312-1.368.312Zm0-.96c.472 0 .84-.132 1.104-.396.272-.264.408-.652.408-1.164v-1.752c0-.512-.136-.9-.408-1.164-.264-.264-.632-.396-1.104-.396-.464 0-.832.132-1.104.396-.272.264-.408.652-.408 1.164v1.752c0 .512.136.9.408 1.164.272.264.64.396 1.104.396Zm4.94.864v-6.6h1.08v1.26h.227l-.228.288c0-.512.156-.916.468-1.212.32-.304.76-.456 1.32-.456.688 0 1.216.208 1.584.624.376.408.564.992.564 1.752v.564h-1.08v-.564c0-.488-.12-.848-.36-1.08-.24-.24-.588-.36-1.044-.36-.472 0-.832.136-1.08.408-.248.272-.372.664-.372 1.176V74h-1.08Zm9.45.12c-.296 0-.536-.088-.72-.264a.925.925 0 0 1-.264-.684c0-.296.088-.536.264-.72.184-.184.424-.276.72-.276s.532.092.708.276c.184.184.276.424.276.72 0 .28-.092.508-.276.684-.176.176-.412.264-.708.264Zm4.7-.12v-6.6h1.08v1.26h.228l-.228.252c0-.52.156-.92.468-1.2.312-.288.744-.432 1.296-.432.664 0 1.192.204 1.584.612.392.408.588.964.588 1.668V74h-1.08v-4.248c0-.504-.128-.888-.384-1.152-.248-.272-.588-.408-1.02-.408-.448 0-.804.14-1.068.42-.256.28-.384.676-.384 1.188V74h-1.08Zm9.691.12c-.52 0-.976-.104-1.368-.312a2.296 2.296 0 0 1-.9-.912c-.216-.4-.324-.872-.324-1.416v-1.56c0-.552.108-1.024.324-1.416.216-.392.516-.692.9-.9.392-.216.848-.324 1.368-.324.52 0 .972.104 1.356.312.392.208.696.5.912.876.216.376.324.82.324 1.332v1.176h-4.128v.624c0 .488.14.876.42 1.164.28.28.652.42 1.116.42.4 0 .728-.076.984-.228.264-.16.424-.372.48-.636h1.08c-.072.552-.34.992-.804 1.32-.464.32-1.044.48-1.74.48Zm1.536-3.876V69.8c0-.52-.136-.92-.408-1.2-.264-.288-.64-.432-1.128-.432-.488 0-.868.144-1.14.432-.264.28-.396.68-.396 1.2v.336h3.156l-.084.108Zm5.647 3.876c-.76 0-1.368-.224-1.824-.672-.456-.456-.684-1.072-.684-1.848v-4.2h1.08v4.2c0 .48.128.864.384 1.152.256.28.604.42 1.044.42.448 0 .8-.14 1.056-.42.264-.288.396-.672.396-1.152v-4.2h1.08v4.2c0 .776-.232 1.392-.696 1.848-.464.448-1.076.672-1.836.672Zm7.868-.12c-.544 0-.98-.156-1.308-.468-.328-.32-.492-.744-.492-1.272v-3.876h-1.896V67.4h1.896v-1.86h1.08v1.86h2.7v.984h-2.7v3.876a.8.8 0 0 0 .192.552.714.714 0 0 0 .528.204h1.92V74h-1.92Zm4.279 0v-6.6h1.08v1.26h.228l-.228.288c0-.512.156-.916.468-1.212.32-.304.76-.456 1.32-.456.688 0 1.216.208 1.584.624.376.408.564.992.564 1.752v.564h-1.08v-.564c0-.488-.12-.848-.36-1.08-.24-.24-.588-.36-1.044-.36-.472 0-.832.136-1.08.408-.248.272-.372.664-.372 1.176V74h-1.08Zm8.875.12c-.68 0-1.22-.188-1.62-.564-.4-.384-.6-.884-.6-1.5 0-.408.092-.764.276-1.068.184-.304.44-.54.768-.708a2.349 2.349 0 0 1 1.128-.264h2.04V69.5c0-.432-.116-.752-.348-.96-.232-.216-.584-.324-1.056-.324-.416 0-.752.076-1.008.228-.256.152-.392.364-.408.636h-1.08c.04-.52.28-.948.72-1.284.448-.344 1.04-.516 1.776-.516.8 0 1.412.192 1.836.576.432.384.648.92.648 1.608V74h-1.068v-1.2h-.18l.168-.24c0 .32-.08.596-.24.828-.16.232-.388.412-.684.54-.296.128-.652.192-1.068.192Zm.264-.912c.528 0 .948-.128 1.26-.384.312-.256.468-.604.468-1.044v-.924h-1.92c-.352 0-.64.108-.864.324-.216.208-.324.488-.324.84 0 .368.12.66.36.876.248.208.588.312 1.02.312Zm8.468.792a2.13 2.13 0 0 1-1.008-.228 1.639 1.639 0 0 1-.672-.648 1.95 1.95 0 0 1-.24-.984v-5.916h-2.28v-.984h3.36v6.9c0 .272.076.488.228.648.152.152.356.228.612.228h2.04V74h-2.04Zm6.235.12c-.296 0-.536-.088-.72-.264a.925.925 0 0 1-.264-.684c0-.296.088-.536.264-.72.184-.184.424-.276.72-.276s.532.092.708.276c.184.184.276.424.276.72 0 .28-.092.508-.276.684-.176.176-.412.264-.708.264Zm5.935-.12 2.16-3.756-.036-.024a.738.738 0 0 1-.264.216 1.635 1.635 0 0 1-.396.156 2.387 2.387 0 0 1-.492.048c-.504 0-.948-.112-1.332-.336a2.471 2.471 0 0 1-.888-.948c-.216-.4-.324-.864-.324-1.392 0-.568.12-1.064.36-1.488a2.59 2.59 0 0 1 .996-.996c.424-.24.912-.36 1.464-.36.568 0 1.064.12 1.488.36.424.232.756.56.996.984.24.416.36.9.36 1.452 0 .384-.072.78-.216 1.188-.144.4-.34.82-.588 1.26L152.674 74h-1.26Zm1.26-4.2c.52 0 .94-.172 1.26-.516.328-.344.492-.792.492-1.344 0-.368-.076-.692-.228-.972a1.545 1.545 0 0 0-.612-.648c-.256-.16-.56-.24-.912-.24-.344 0-.648.08-.912.24a1.623 1.623 0 0 0-.624.648c-.144.28-.216.604-.216.972s.072.692.216.972c.152.28.36.5.624.66.264.152.568.228.912.228Zm7.124 4.32c-.808 0-1.448-.224-1.92-.672-.472-.456-.708-1.072-.708-1.848h1.08c0 .48.14.86.42 1.14.28.28.66.42 1.14.42.48 0 .86-.14 1.14-.42.28-.28.42-.66.42-1.14v-.54c0-.48-.136-.86-.408-1.14-.272-.28-.64-.42-1.104-.42h-2.388v-4.26h4.668v.984h-3.66l.024 2.292h1.416c.808 0 1.432.224 1.872.672.44.44.66 1.064.66 1.872v.54c0 .776-.24 1.392-.72 1.848-.472.448-1.116.672-1.932.672Zm7.267 0c-.536 0-1.004-.104-1.404-.312a2.296 2.296 0 0 1-.912-.9c-.216-.392-.324-.848-.324-1.368V67.7c0-.528.108-.984.324-1.368.216-.384.52-.68.912-.888.4-.216.868-.324 1.404-.324.544 0 1.012.108 1.404.324.392.208.696.504.912.888.216.384.324.84.324 1.368v3.84c0 .52-.108.976-.324 1.368a2.276 2.276 0 0 1-.924.9c-.392.208-.856.312-1.392.312Zm0-.924c.48 0 .864-.152 1.152-.456.296-.312.444-.712.444-1.2V67.7c0-.488-.148-.884-.444-1.188-.288-.312-.672-.468-1.152-.468-.48 0-.868.156-1.164.468-.288.304-.432.7-.432 1.188v3.84c0 .488.144.888.432 1.2.296.304.684.456 1.164.456Zm0-2.916a.769.769 0 0 1-.528-.18c-.128-.12-.192-.292-.192-.516 0-.216.064-.38.192-.492a.769.769 0 0 1 .528-.18c.216 0 .388.06.516.18.136.112.204.276.204.492 0 .224-.068.396-.204.516-.128.12-.3.18-.516.18Z" fill="#333238"/><rect x="187" y="56" width="170" height="28" rx="4" fill="#ECECEF"/><rect x="195" y="62" width="16" height="16" rx="2" fill="#1F1E24"/><path d="M223.502 74c-.544 0-.98-.156-1.308-.468-.328-.32-.492-.744-.492-1.272v-3.876h-1.896V67.4h1.896v-1.86h1.08v1.86h2.7v.984h-2.7v3.876a.8.8 0 0 0 .192.552.714.714 0 0 0 .528.204h1.92V74h-1.92Zm6.536.12c-.52 0-.976-.104-1.368-.312a2.296 2.296 0 0 1-.9-.912c-.216-.4-.324-.872-.324-1.416v-1.56c0-.552.108-1.024.324-1.416.216-.392.516-.692.9-.9.392-.216.848-.324 1.368-.324.52 0 .972.104 1.356.312.392.208.696.5.912.876.216.376.324.82.324 1.332v1.176h-4.128v.624c0 .488.14.876.42 1.164.28.28.652.42 1.116.42.4 0 .728-.076.984-.228.264-.16.424-.372.48-.636h1.08c-.072.552-.34.992-.804 1.32-.464.32-1.044.48-1.74.48Zm1.536-3.876V69.8c0-.52-.136-.92-.408-1.2-.264-.288-.64-.432-1.128-.432-.488 0-.868.144-1.14.432-.264.28-.396.68-.396 1.2v.336h3.156l-.084.108ZM234.233 74l2.34-3.396-2.196-3.204h1.272l1.308 2.04c.056.088.108.184.156.288.056.104.1.188.132.252.024-.064.06-.148.108-.252.056-.104.112-.2.168-.288l1.308-2.04h1.272l-2.196 3.216L240.233 74h-1.272l-1.416-2.16a3.356 3.356 0 0 1-.168-.3 2.599 2.599 0 0 0-.132-.288c-.032.072-.08.168-.144.288a2.125 2.125 0 0 1-.18.3L235.505 74h-1.272Zm10.855 0c-.544 0-.98-.156-1.308-.468-.328-.32-.492-.744-.492-1.272v-3.876h-1.896V67.4h1.896v-1.86h1.08v1.86h2.7v.984h-2.7v3.876a.8.8 0 0 0 .192.552.714.714 0 0 0 .528.204h1.92V74h-1.92Zm6.535.12c-.296 0-.536-.088-.72-.264a.925.925 0 0 1-.264-.684c0-.296.088-.536.264-.72.184-.184.424-.276.72-.276s.532.092.708.276c.184.184.276.424.276.72 0 .28-.092.508-.276.684-.176.176-.412.264-.708.264Zm7.292 0c-.528 0-.992-.1-1.392-.3-.392-.2-.7-.488-.924-.864-.216-.384-.324-.836-.324-1.356v-1.8c0-.528.108-.98.324-1.356.224-.376.532-.664.924-.864.4-.2.864-.3 1.392-.3.76 0 1.372.204 1.836.612.472.408.72.964.744 1.668h-1.08c-.024-.424-.168-.748-.432-.972-.264-.232-.62-.348-1.068-.348-.472 0-.852.136-1.14.408-.28.264-.42.644-.42 1.14V71.6c0 .496.14.88.42 1.152.288.272.668.408 1.14.408.448 0 .804-.116 1.068-.348.264-.232.408-.556.432-.972h1.08c-.024.704-.272 1.26-.744 1.668-.464.408-1.076.612-1.836.612Zm7.099-.024c-.528 0-.988-.104-1.38-.312a2.216 2.216 0 0 1-.9-.9c-.208-.4-.312-.876-.312-1.428v-1.512c0-.56.104-1.036.312-1.428.216-.392.516-.692.9-.9.392-.208.852-.312 1.38-.312.536 0 .996.104 1.38.312.384.208.68.508.888.9.216.392.324.868.324 1.428v1.512c0 .552-.108 1.028-.324 1.428a2.124 2.124 0 0 1-.9.9c-.384.208-.84.312-1.368.312Zm0-.96c.472 0 .84-.132 1.104-.396.272-.264.408-.652.408-1.164v-1.752c0-.512-.136-.9-.408-1.164-.264-.264-.632-.396-1.104-.396-.464 0-.832.132-1.104.396-.272.264-.408.652-.408 1.164v1.752c0 .512.136.9.408 1.164.272.264.64.396 1.104.396Zm8.155.864a2.13 2.13 0 0 1-1.008-.228 1.639 1.639 0 0 1-.672-.648 1.95 1.95 0 0 1-.24-.984v-5.916h-2.28v-.984h3.36v6.9c0 .272.076.488.228.648.152.152.356.228.612.228h2.04V74h-2.04Zm6.236.096c-.528 0-.988-.104-1.38-.312a2.216 2.216 0 0 1-.9-.9c-.208-.4-.312-.876-.312-1.428v-1.512c0-.56.104-1.036.312-1.428.216-.392.516-.692.9-.9.392-.208.852-.312 1.38-.312.536 0 .996.104 1.38.312.384.208.68.508.888.9.216.392.324.868.324 1.428v1.512c0 .552-.108 1.028-.324 1.428a2.124 2.124 0 0 1-.9.9c-.384.208-.84.312-1.368.312Zm0-.96c.472 0 .84-.132 1.104-.396.272-.264.408-.652.408-1.164v-1.752c0-.512-.136-.9-.408-1.164-.264-.264-.632-.396-1.104-.396-.464 0-.832.132-1.104.396-.272.264-.408.652-.408 1.164v1.752c0 .512.136.9.408 1.164.272.264.64.396 1.104.396Zm4.939.864v-6.6h1.08v1.26h.228l-.228.288c0-.512.156-.916.468-1.212.32-.304.76-.456 1.32-.456.688 0 1.216.208 1.584.624.376.408.564.992.564 1.752v.564h-1.08v-.564c0-.488-.12-.848-.36-1.08-.24-.24-.588-.36-1.044-.36-.472 0-.832.136-1.08.408-.248.272-.372.664-.372 1.176V74h-1.08Zm9.451.12c-.296 0-.536-.088-.72-.264a.925.925 0 0 1-.264-.684c0-.296.088-.536.264-.72.184-.184.424-.276.72-.276s.532.092.708.276c.184.184.276.424.276.72 0 .28-.092.508-.276.684-.176.176-.412.264-.708.264Zm4.7-.12v-8.76h1.08v3.42h.228l-.228.252c0-.52.156-.92.468-1.2.312-.288.744-.432 1.296-.432.664 0 1.192.204 1.584.612.392.408.588.964.588 1.668V74h-1.08v-4.26c0-.496-.128-.876-.384-1.14-.248-.272-.588-.408-1.02-.408-.448 0-.804.14-1.068.42-.256.28-.384.676-.384 1.188V74h-1.08Zm9.691.12c-.52 0-.976-.104-1.368-.312a2.296 2.296 0 0 1-.9-.912c-.216-.4-.324-.872-.324-1.416v-1.56c0-.552.108-1.024.324-1.416.216-.392.516-.692.9-.9.392-.216.848-.324 1.368-.324.52 0 .972.104 1.356.312.392.208.696.5.912.876.216.376.324.82.324 1.332v1.176h-4.128v.624c0 .488.14.876.42 1.164.28.28.652.42 1.116.42.4 0 .728-.076.984-.228.264-.16.424-.372.48-.636h1.08c-.072.552-.34.992-.804 1.32-.464.32-1.044.48-1.74.48Zm1.536-3.876V69.8c0-.52-.136-.92-.408-1.2-.264-.288-.64-.432-1.128-.432-.488 0-.868.144-1.14.432-.264.28-.396.68-.396 1.2v.336h3.156l-.084.108Zm5.083 3.876c-.68 0-1.22-.188-1.62-.564-.4-.384-.6-.884-.6-1.5 0-.408.092-.764.276-1.068.184-.304.44-.54.768-.708a2.349 2.349 0 0 1 1.128-.264h2.04V69.5c0-.432-.116-.752-.348-.96-.232-.216-.584-.324-1.056-.324-.416 0-.752.076-1.008.228-.256.152-.392.364-.408.636h-1.08c.04-.52.28-.948.72-1.284.448-.344 1.04-.516 1.776-.516.8 0 1.412.192 1.836.576.432.384.648.92.648 1.608V74h-1.068v-1.2h-.18l.168-.24c0 .32-.08.596-.24.828-.16.232-.388.412-.684.54-.296.128-.652.192-1.068.192Zm.264-.912c.528 0 .948-.128 1.26-.384.312-.256.468-.604.468-1.044v-.924h-1.92c-.352 0-.64.108-.864.324-.216.208-.324.488-.324.84 0 .368.12.66.36.876.248.208.588.312 1.02.312Zm7.124.912c-.656 0-1.184-.22-1.584-.66-.392-.44-.588-1.036-.588-1.788V69.74c0-.76.196-1.36.588-1.8.392-.44.92-.66 1.584-.66.544 0 .984.148 1.32.444.336.296.504.692.504 1.188l-.24-.252h.24l-.024-1.5v-1.92h1.08V74h-1.08v-1.26h-.216l.216-.252c0 .504-.164.904-.492 1.2-.328.288-.764.432-1.308.432Zm.36-.936c.448 0 .8-.14 1.056-.42.256-.28.384-.668.384-1.164v-1.8c0-.496-.128-.884-.384-1.164-.256-.28-.608-.42-1.056-.42-.456 0-.812.12-1.068.36-.256.232-.384.62-.384 1.164v1.92c0 .536.128.924.384 1.164.256.24.612.36 1.068.36Zm4.639.816v-.984h2.34v-4.632h-2.1V67.4h3.18v5.616h2.22V74h-5.64Zm2.76-7.788c-.264 0-.472-.068-.624-.204a.704.704 0 0 1-.228-.552c0-.24.076-.428.228-.564.152-.144.36-.216.624-.216s.472.072.624.216c.152.136.228.324.228.564a.704.704 0 0 1-.228.552c-.152.136-.36.204-.624.204ZM335.471 74v-6.6h1.08v1.26h.228l-.228.252c0-.52.156-.92.468-1.2.312-.288.744-.432 1.296-.432.664 0 1.192.204 1.584.612.392.408.588.964.588 1.668V74h-1.08v-4.248c0-.504-.128-.888-.384-1.152-.248-.272-.588-.408-1.02-.408-.448 0-.804.14-1.068.42-.256.28-.384.676-.384 1.188V74h-1.08Zm8.024 2.16v-.984h1.86c.376 0 .672-.108.888-.324.216-.208.324-.492.324-.852v-.6l.024-1.08h-.216l.204-.3c0 .48-.16.856-.48 1.128-.32.264-.748.396-1.284.396-.68 0-1.216-.216-1.608-.648-.392-.432-.588-1.024-.588-1.776v-1.392c0-.752.196-1.348.588-1.788.392-.44.928-.66 1.608-.66.536 0 .964.14 1.284.42.32.28.48.66.48 1.14l-.204-.3h.204V67.4h1.068V74c0 .664-.208 1.188-.624 1.572-.408.392-.968.588-1.68.588h-1.848Zm1.644-3.516c.448 0 .8-.14 1.056-.42.256-.28.384-.668.384-1.164V69.8c0-.496-.128-.884-.384-1.164-.256-.28-.608-.42-1.056-.42-.456 0-.812.132-1.068.396-.248.264-.372.62-.372 1.068v1.5c0 .448.124.804.372 1.068.256.264.612.396 1.068.396Z" fill="#333238"/><rect x="365" y="56" width="220" height="28" rx="4" fill="#ECECEF"/><rect x="373" y="62" width="16" height="16" rx="2" fill="#1F1E24"/><path d="M400.083 74.12c-.68 0-1.22-.188-1.62-.564-.4-.384-.6-.884-.6-1.5 0-.408.092-.764.276-1.068.184-.304.44-.54.768-.708a2.349 2.349 0 0 1 1.128-.264h2.04V69.5c0-.432-.116-.752-.348-.96-.232-.216-.584-.324-1.056-.324-.416 0-.752.076-1.008.228-.256.152-.392.364-.408.636h-1.08c.04-.52.28-.948.72-1.284.448-.344 1.04-.516 1.776-.516.8 0 1.412.192 1.836.576.432.384.648.92.648 1.608V74h-1.068v-1.2h-.18l.168-.24c0 .32-.08.596-.24.828-.16.232-.388.412-.684.54-.296.128-.652.192-1.068.192Zm.264-.912c.528 0 .948-.128 1.26-.384.312-.256.468-.604.468-1.044v-.924h-1.92c-.352 0-.64.108-.864.324-.216.208-.324.488-.324.84 0 .368.12.66.36.876.248.208.588.312 1.02.312Zm8.467.792a2.13 2.13 0 0 1-1.008-.228 1.639 1.639 0 0 1-.672-.648 1.95 1.95 0 0 1-.24-.984v-5.916h-2.28v-.984h3.36v6.9c0 .272.076.488.228.648.152.152.356.228.612.228h2.04V74h-2.04Zm6.235.12c-.52 0-.976-.104-1.368-.312a2.296 2.296 0 0 1-.9-.912c-.216-.4-.324-.872-.324-1.416v-1.56c0-.552.108-1.024.324-1.416.216-.392.516-.692.9-.9.392-.216.848-.324 1.368-.324.52 0 .972.104 1.356.312.392.208.696.5.912.876.216.376.324.82.324 1.332v1.176h-4.128v.624c0 .488.14.876.42 1.164.28.28.652.42 1.116.42.4 0 .728-.076.984-.228.264-.16.424-.372.48-.636h1.08c-.072.552-.34.992-.804 1.32-.464.32-1.044.48-1.74.48Zm1.536-3.876V69.8c0-.52-.136-.92-.408-1.2-.264-.288-.64-.432-1.128-.432-.488 0-.868.144-1.14.432-.264.28-.396.68-.396 1.2v.336h3.156l-.084.108ZM419.989 74v-6.6h1.08v1.26h.228l-.228.288c0-.512.156-.916.468-1.212.32-.304.76-.456 1.32-.456.688 0 1.216.208 1.584.624.376.408.564.992.564 1.752v.564h-1.08v-.564c0-.488-.12-.848-.36-1.08-.24-.24-.588-.36-1.044-.36-.472 0-.832.136-1.08.408-.248.272-.372.664-.372 1.176V74h-1.08Zm10.111 0c-.544 0-.98-.156-1.308-.468-.328-.32-.492-.744-.492-1.272v-3.876h-1.896V67.4h1.896v-1.86h1.08v1.86h2.7v.984h-2.7v3.876a.8.8 0 0 0 .192.552.714.714 0 0 0 .528.204h1.92V74h-1.92Zm6.535.12c-.296 0-.536-.088-.72-.264a.925.925 0 0 1-.264-.684c0-.296.088-.536.264-.72.184-.184.424-.276.72-.276s.532.092.708.276c.184.184.276.424.276.72 0 .28-.092.508-.276.684-.176.176-.412.264-.708.264Zm5.047-.12-1.08-6.6h.936l.672 4.656c.024.176.048.372.072.588.024.208.04.38.048.516.016-.136.032-.308.048-.516.024-.216.052-.412.084-.588l.828-4.656h1.08l.828 4.656c.032.176.06.372.084.588.032.208.052.38.06.516l.06-.516c.024-.216.048-.412.072-.588l.696-4.656h.888L445.93 74h-1.188l-.756-4.56c-.032-.224-.064-.46-.096-.708a26.934 26.934 0 0 0-.06-.588l-.036.36c-.016.144-.036.3-.06.468l-.072.468-.792 4.56h-1.188Zm8.768.12c-.68 0-1.22-.188-1.62-.564-.4-.384-.6-.884-.6-1.5 0-.408.092-.764.276-1.068.184-.304.44-.54.768-.708a2.349 2.349 0 0 1 1.128-.264h2.04V69.5c0-.432-.116-.752-.348-.96-.232-.216-.584-.324-1.056-.324-.416 0-.752.076-1.008.228-.256.152-.392.364-.408.636h-1.08c.04-.52.28-.948.72-1.284.448-.344 1.04-.516 1.776-.516.8 0 1.412.192 1.836.576.432.384.648.92.648 1.608V74h-1.068v-1.2h-.18l.168-.24c0 .32-.08.596-.24.828-.16.232-.388.412-.684.54-.296.128-.652.192-1.068.192Zm.264-.912c.528 0 .948-.128 1.26-.384.312-.256.468-.604.468-1.044v-.924h-1.92c-.352 0-.64.108-.864.324-.216.208-.324.488-.324.84 0 .368.12.66.36.876.248.208.588.312 1.02.312Zm5.251.792v-6.6h1.08v1.26h.228l-.228.288c0-.512.156-.916.468-1.212.32-.304.76-.456 1.32-.456.688 0 1.216.208 1.584.624.376.408.564.992.564 1.752v.564h-1.08v-.564c0-.488-.12-.848-.36-1.08-.24-.24-.588-.36-1.044-.36-.472 0-.832.136-1.08.408-.248.272-.372.664-.372 1.176V74h-1.08Zm6.955 0v-6.6H464v1.26h.228l-.228.252c0-.52.156-.92.468-1.2.312-.288.744-.432 1.296-.432.664 0 1.192.204 1.584.612.392.408.588.964.588 1.668V74h-1.08v-4.248c0-.504-.128-.888-.384-1.152-.248-.272-.588-.408-1.02-.408-.448 0-.804.14-1.068.42-.256.28-.384.676-.384 1.188V74h-1.08Zm7.112 0v-.984h2.34v-4.632h-2.1V67.4h3.18v5.616h2.22V74h-5.64Zm2.76-7.788c-.264 0-.472-.068-.624-.204a.704.704 0 0 1-.228-.552c0-.24.076-.428.228-.564.152-.144.36-.216.624-.216s.472.072.624.216c.152.136.228.324.228.564a.704.704 0 0 1-.228.552c-.152.136-.36.204-.624.204ZM477.311 74v-6.6h1.08v1.26h.228l-.228.252c0-.52.156-.92.468-1.2.312-.288.744-.432 1.296-.432.664 0 1.192.204 1.584.612.392.408.588.964.588 1.668V74h-1.08v-4.248c0-.504-.128-.888-.384-1.152-.248-.272-.588-.408-1.02-.408-.448 0-.804.14-1.068.42-.256.28-.384.676-.384 1.188V74h-1.08Zm8.023 2.16v-.984h1.86c.376 0 .672-.108.888-.324.216-.208.324-.492.324-.852v-.6l.024-1.08h-.216l.204-.3c0 .48-.16.856-.48 1.128-.32.264-.748.396-1.284.396-.68 0-1.216-.216-1.608-.648-.392-.432-.588-1.024-.588-1.776v-1.392c0-.752.196-1.348.588-1.788.392-.44.928-.66 1.608-.66.536 0 .964.14 1.284.42.32.28.48.66.48 1.14l-.204-.3h.204V67.4h1.068V74c0 .664-.208 1.188-.624 1.572-.408.392-.968.588-1.68.588h-1.848Zm1.644-3.516c.448 0 .8-.14 1.056-.42.256-.28.384-.668.384-1.164V69.8c0-.496-.128-.884-.384-1.164-.256-.28-.608-.42-1.056-.42-.456 0-.812.132-1.068.396-.248.264-.372.62-.372 1.068v1.5c0 .448.124.804.372 1.068.256.264.612.396 1.068.396Zm7.22 1.476c-.296 0-.536-.088-.72-.264a.925.925 0 0 1-.264-.684c0-.296.088-.536.264-.72.184-.184.424-.276.72-.276s.532.092.708.276c.184.184.276.424.276.72 0 .28-.092.508-.276.684-.176.176-.412.264-.708.264Zm7.855-.12c-.544 0-.98-.156-1.308-.468-.328-.32-.492-.744-.492-1.272v-3.876h-1.896V67.4h1.896v-1.86h1.08v1.86h2.7v.984h-2.7v3.876a.8.8 0 0 0 .192.552.714.714 0 0 0 .528.204h1.92V74h-1.92Zm3.955 0v-.984h2.34v-4.632h-2.1V67.4h3.18v5.616h2.22V74h-5.64Zm2.76-7.788c-.264 0-.472-.068-.624-.204a.704.704 0 0 1-.228-.552c0-.24.076-.428.228-.564.152-.144.36-.216.624-.216s.472.072.624.216c.152.136.228.324.228.564a.704.704 0 0 1-.228.552c-.152.136-.36.204-.624.204ZM516.444 74c-.544 0-.98-.156-1.308-.468-.328-.32-.492-.744-.492-1.272v-3.876h-1.896V67.4h1.896v-1.86h1.08v1.86h2.7v.984h-2.7v3.876a.8.8 0 0 0 .192.552.714.714 0 0 0 .528.204h1.92V74h-1.92Zm7.495 0a2.13 2.13 0 0 1-1.008-.228 1.639 1.639 0 0 1-.672-.648 1.95 1.95 0 0 1-.24-.984v-5.916h-2.28v-.984h3.36v6.9c0 .272.076.488.228.648.152.152.356.228.612.228h2.04V74h-2.04Zm6.235.12c-.52 0-.976-.104-1.368-.312a2.296 2.296 0 0 1-.9-.912c-.216-.4-.324-.872-.324-1.416v-1.56c0-.552.108-1.024.324-1.416.216-.392.516-.692.9-.9.392-.216.848-.324 1.368-.324.52 0 .972.104 1.356.312.392.208.696.5.912.876.216.376.324.82.324 1.332v1.176h-4.128v.624c0 .488.14.876.42 1.164.28.28.652.42 1.116.42.4 0 .728-.076.984-.228.264-.16.424-.372.48-.636h1.08c-.072.552-.34.992-.804 1.32-.464.32-1.044.48-1.74.48Zm1.536-3.876V69.8c0-.52-.136-.92-.408-1.2-.264-.288-.64-.432-1.128-.432-.488 0-.868.144-1.14.432-.264.28-.396.68-.396 1.2v.336h3.156l-.084.108Zm5.66 3.876c-.296 0-.536-.088-.72-.264a.925.925 0 0 1-.264-.684c0-.296.088-.536.264-.72.184-.184.424-.276.72-.276s.532.092.708.276c.184.184.276.424.276.72 0 .28-.092.508-.276.684-.176.176-.412.264-.708.264Zm7.291 0c-.528 0-.992-.1-1.392-.3-.392-.2-.7-.488-.924-.864-.216-.384-.324-.836-.324-1.356v-1.8c0-.528.108-.98.324-1.356.224-.376.532-.664.924-.864.4-.2.864-.3 1.392-.3.76 0 1.372.204 1.836.612.472.408.72.964.744 1.668h-1.08c-.024-.424-.168-.748-.432-.972-.264-.232-.62-.348-1.068-.348-.472 0-.852.136-1.14.408-.28.264-.42.644-.42 1.14V71.6c0 .496.14.88.42 1.152.288.272.668.408 1.14.408.448 0 .804-.116 1.068-.348.264-.232.408-.556.432-.972h1.08c-.024.704-.272 1.26-.744 1.668-.464.408-1.076.612-1.836.612Zm7.099-.024c-.528 0-.988-.104-1.38-.312a2.216 2.216 0 0 1-.9-.9c-.208-.4-.312-.876-.312-1.428v-1.512c0-.56.104-1.036.312-1.428.216-.392.516-.692.9-.9.392-.208.852-.312 1.38-.312.536 0 .996.104 1.38.312.384.208.68.508.888.9.216.392.324.868.324 1.428v1.512c0 .552-.108 1.028-.324 1.428a2.124 2.124 0 0 1-.9.9c-.384.208-.84.312-1.368.312Zm0-.96c.472 0 .84-.132 1.104-.396.272-.264.408-.652.408-1.164v-1.752c0-.512-.136-.9-.408-1.164-.264-.264-.632-.396-1.104-.396-.464 0-.832.132-1.104.396-.272.264-.408.652-.408 1.164v1.752c0 .512.136.9.408 1.164.272.264.64.396 1.104.396Zm8.155.864a2.13 2.13 0 0 1-1.008-.228 1.639 1.639 0 0 1-.672-.648 1.95 1.95 0 0 1-.24-.984v-5.916h-2.28v-.984h3.36v6.9c0 .272.076.488.228.648.152.152.356.228.612.228h2.04V74h-2.04Zm6.236.096c-.528 0-.988-.104-1.38-.312a2.216 2.216 0 0 1-.9-.9c-.208-.4-.312-.876-.312-1.428v-1.512c0-.56.104-1.036.312-1.428.216-.392.516-.692.9-.9.392-.208.852-.312 1.38-.312.536 0 .996.104 1.38.312.384.208.68.508.888.9.216.392.324.868.324 1.428v1.512c0 .552-.108 1.028-.324 1.428a2.124 2.124 0 0 1-.9.9c-.384.208-.84.312-1.368.312Zm0-.96c.472 0 .84-.132 1.104-.396.272-.264.408-.652.408-1.164v-1.752c0-.512-.136-.9-.408-1.164-.264-.264-.632-.396-1.104-.396-.464 0-.832.132-1.104.396-.272.264-.408.652-.408 1.164v1.752c0 .512.136.9.408 1.164.272.264.64.396 1.104.396Zm4.939.864v-6.6h1.08v1.26h.228l-.228.288c0-.512.156-.916.468-1.212.32-.304.76-.456 1.32-.456.688 0 1.216.208 1.584.624.376.408.564.992.564 1.752v.564h-1.08v-.564c0-.488-.12-.848-.36-1.08-.24-.24-.588-.36-1.044-.36-.472 0-.832.136-1.08.408-.248.272-.372.664-.372 1.176V74h-1.08Z" fill="#333238"/><path stroke="#7B58CF" stroke-width="2" stroke-linecap="round" d="M17 107h162m-162 0V93m162 14V93"/><rect x="64.833" y="116" width="66" height="24" rx="12" fill="#7B58CF"/><path d="M76.425 132.141c-1.781 0-2.982-1.354-2.982-3.375 0-2.051 1.2-3.399 2.982-3.399 1.266 0 2.297.668 2.654 1.811l-1.013.287c-.194-.674-.78-1.154-1.64-1.154-1.308 0-1.911 1.148-1.911 2.455 0 1.289.603 2.431 1.91 2.431.879 0 1.477-.498 1.67-1.207l1.008.287c-.352 1.166-1.395 1.864-2.678 1.864Zm6.856 0c-1.782 0-2.983-1.354-2.983-3.375 0-2.051 1.201-3.399 2.983-3.399 1.787 0 2.994 1.348 2.994 3.399 0 2.021-1.207 3.375-2.994 3.375Zm0-.944c1.324 0 1.927-1.142 1.927-2.431 0-1.301-.603-2.455-1.927-2.455-1.307 0-1.91 1.148-1.91 2.455 0 1.289.603 2.431 1.91 2.431Zm5.584-3.123V132H87.81v-6.551h1.013l.006 1.588h-.146c.398-1.207 1.16-1.67 2.15-1.67 1.325 0 2.221.815 2.221 2.473V132h-1.06v-4.072c0-1.008-.563-1.612-1.477-1.612-.944 0-1.652.639-1.652 1.758Zm8.273 4.067c-1.348 0-2.285-.598-2.52-1.729l1.002-.24c.188.721.721 1.043 1.506 1.043.914 0 1.5-.451 1.5-.99 0-.452-.316-.75-.96-.903l-1.09-.258c-1.19-.281-1.758-.867-1.758-1.787 0-1.125 1.03-1.91 2.425-1.91 1.348 0 2.057.656 2.356 1.576l-.955.246c-.182-.468-.55-.925-1.395-.925-.779 0-1.365.404-1.365.949 0 .486.334.756 1.102.937l.99.235c1.19.281 1.746.873 1.746 1.769 0 1.149-1.049 1.987-2.584 1.987Zm6.691-6.692v.903h-3.386v-.903h3.386Zm-2.402-1.558h1.055v6.41c0 .586.217.844.773.844.135 0 .363-.036.539-.071l.217.891a2.547 2.547 0 0 1-.785.117c-1.131 0-1.799-.627-1.799-1.699v-6.492Zm5.643 8.261c-1.243 0-2.233-.726-2.233-2.015 0-1.5 1.336-1.776 2.549-1.928 1.166-.147 1.682-.111 1.682-.598v-.035c0-.814-.463-1.283-1.371-1.283-.944 0-1.454.504-1.659.961l-1.013-.334c.504-1.19 1.629-1.553 2.642-1.553.879 0 2.455.27 2.455 2.315V132h-1.037v-.891h-.07c-.223.463-.838 1.043-1.945 1.043Zm.181-.931c1.166 0 1.817-.785 1.817-1.588v-.908c-.176.205-1.325.322-1.729.375-.767.099-1.441.345-1.441 1.089 0 .68.568 1.032 1.353 1.032Zm5.778-3.147V132h-1.055v-6.551h1.014l.005 1.588h-.146c.398-1.207 1.16-1.67 2.15-1.67 1.325 0 2.221.815 2.221 2.473V132h-1.06v-4.072c0-1.008-.563-1.612-1.477-1.612-.943 0-1.652.639-1.652 1.758Zm8.625-2.625v.903h-3.387v-.903h3.387Zm-2.403-1.558h1.055v6.41c0 .586.217.844.773.844.135 0 .364-.036.539-.071l.217.891a2.542 2.542 0 0 1-.785.117c-1.131 0-1.799-.627-1.799-1.699v-6.492Z" fill="#fff"/><path stroke="#7B58CF" stroke-width="2" stroke-linecap="round" d="M188.667 107h168m-168 0V93m168 14V93"/><rect x="238.75" y="116" width="68" height="24" rx="12" fill="#7B58CF"/><path d="M249.902 132.141c-1.347 0-2.285-.598-2.519-1.729l1.002-.24c.187.721.72 1.043 1.506 1.043.914 0 1.5-.451 1.5-.99 0-.452-.317-.75-.961-.903l-1.09-.258c-1.19-.281-1.758-.867-1.758-1.787 0-1.125 1.031-1.91 2.426-1.91 1.347 0 2.056.656 2.355 1.576l-.955.246c-.181-.468-.551-.925-1.394-.925-.78 0-1.366.404-1.366.949 0 .486.334.756 1.102.937l.99.235c1.19.281 1.746.873 1.746 1.769 0 1.149-1.048 1.987-2.584 1.987Zm6.868 0c-1.899 0-3.071-1.348-3.071-3.364 0-2.009 1.16-3.41 2.947-3.41 1.389 0 2.854.856 2.854 3.276v.439h-5.086v-.891h4.518l-.493.329c0-1.29-.609-2.215-1.793-2.215-1.183 0-1.88.978-1.88 2.045v.591c0 1.459.808 2.262 2.009 2.262.774 0 1.354-.34 1.6-1.008l1.02.282c-.305.99-1.284 1.664-2.625 1.664Zm4.242-.141v-6.551h1.025l.006 1.465h-.082c.264-1.06 1.066-1.582 1.916-1.582.949 0 1.553.645 1.728 1.594h-.14c.234-.979 1.101-1.594 2.144-1.594 1.137 0 2.063.732 2.063 2.25V132h-1.061v-4.389c0-.943-.615-1.318-1.318-1.318-.885 0-1.424.603-1.424 1.43V132h-1.055v-4.494c0-.727-.544-1.213-1.283-1.213-.767 0-1.465.539-1.465 1.582V132h-1.054Zm12.345.152c-1.242 0-2.232-.726-2.232-2.015 0-1.5 1.336-1.776 2.549-1.928 1.166-.147 1.681-.111 1.681-.598v-.035c0-.814-.462-1.283-1.371-1.283-.943 0-1.453.504-1.658.961l-1.014-.334c.504-1.19 1.629-1.553 2.643-1.553.879 0 2.455.27 2.455 2.315V132h-1.037v-.891h-.07c-.223.463-.838 1.043-1.946 1.043Zm.182-.931c1.166 0 1.816-.785 1.816-1.588v-.908c-.175.205-1.324.322-1.728.375-.768.099-1.441.345-1.441 1.089 0 .68.568 1.032 1.353 1.032Zm5.777-3.147V132h-1.054v-6.551h1.013l.006 1.588h-.146c.398-1.207 1.16-1.67 2.15-1.67 1.324 0 2.221.815 2.221 2.473V132h-1.061v-4.072c0-1.008-.562-1.612-1.476-1.612-.944 0-1.653.639-1.653 1.758Zm8.625-2.625v.903h-3.386v-.903h3.386Zm-2.402-1.558h1.055v6.41c0 .586.217.844.773.844.135 0 .363-.036.539-.071l.217.891a2.547 2.547 0 0 1-.785.117c-1.131 0-1.799-.627-1.799-1.699v-6.492Zm3.75 8.109v-6.551h1.055V132h-1.055Zm.533-7.623c-.398 0-.732-.311-.732-.697 0-.387.334-.698.732-.698.405 0 .739.311.739.698 0 .386-.334.697-.739.697Zm5.039 7.764c-1.781 0-2.982-1.354-2.982-3.375 0-2.051 1.201-3.399 2.982-3.399 1.266 0 2.297.668 2.655 1.811l-1.014.287c-.193-.674-.779-1.154-1.641-1.154-1.306 0-1.91 1.148-1.91 2.455 0 1.289.604 2.431 1.91 2.431.879 0 1.477-.498 1.67-1.207l1.008.287c-.351 1.166-1.394 1.864-2.678 1.864Z" fill="#fff"/><path stroke="#7B58CF" stroke-width="2" stroke-linecap="round" d="M366.833 107h217m-217 0V93m217 14V93"/><rect x="437.417" y="116" width="76" height="24" rx="12" fill="#7B58CF"/><path d="M449.008 132.141c-1.781 0-2.982-1.354-2.982-3.375 0-2.051 1.201-3.399 2.982-3.399 1.266 0 2.297.668 2.655 1.811l-1.014.287c-.193-.674-.779-1.154-1.641-1.154-1.306 0-1.91 1.148-1.91 2.455 0 1.289.604 2.431 1.91 2.431.879 0 1.477-.498 1.67-1.207l1.008.287c-.351 1.166-1.394 1.864-2.678 1.864Zm6.856 0c-1.781 0-2.982-1.354-2.982-3.375 0-2.051 1.201-3.399 2.982-3.399 1.787 0 2.994 1.348 2.994 3.399 0 2.021-1.207 3.375-2.994 3.375Zm0-.944c1.324 0 1.928-1.142 1.928-2.431 0-1.301-.604-2.455-1.928-2.455-1.307 0-1.91 1.148-1.91 2.455 0 1.289.603 2.431 1.91 2.431Zm5.584-3.123V132h-1.055v-6.551h1.014l.006 1.588h-.147c.399-1.207 1.16-1.67 2.151-1.67 1.324 0 2.22.815 2.22 2.473V132h-1.06v-4.072c0-1.008-.563-1.612-1.477-1.612-.943 0-1.652.639-1.652 1.758Zm8.625-2.625v.903h-3.387v-.903h3.387Zm-2.402-1.558h1.054v6.41c0 .586.217.844.774.844.134 0 .363-.036.539-.071l.217.891a2.549 2.549 0 0 1-.786.117c-1.13 0-1.798-.627-1.798-1.699v-6.492Zm6.386 8.25c-1.898 0-3.07-1.348-3.07-3.364 0-2.009 1.16-3.41 2.947-3.41 1.389 0 2.854.856 2.854 3.276v.439h-5.086v-.891h4.517l-.492.329c0-1.29-.609-2.215-1.793-2.215-1.183 0-1.881.978-1.881 2.045v.591c0 1.459.809 2.262 2.01 2.262.774 0 1.354-.34 1.6-1.008l1.019.282c-.304.99-1.283 1.664-2.625 1.664Zm3.428-.141 2.584-3.768-.006.809-2.443-3.592h1.23l.815 1.272c.422.656.697 1.218 1.025 1.746h-.551c.334-.528.563-1.09.991-1.746l.832-1.272h1.207l-2.455 3.639v-.779l2.56 3.691h-1.225l-.96-1.471c-.416-.638-.68-1.177-1.002-1.687h.556c-.322.51-.545 1.049-.967 1.687l-.972 1.471h-1.219Zm9.908-6.551v.903h-3.386v-.903h3.386Zm-2.402-1.558h1.055v6.41c0 .586.216.844.773.844.135 0 .363-.036.539-.071l.217.891a2.547 2.547 0 0 1-.785.117c-1.131 0-1.799-.627-1.799-1.699v-6.492Zm5.971 8.191c-1.325 0-2.221-.814-2.221-2.473v-4.16h1.055v4.072c0 1.008.568 1.612 1.482 1.612.938 0 1.646-.639 1.646-1.758v-3.926h1.061V132h-1.019v-1.588h.14c-.404 1.231-1.183 1.67-2.144 1.67Zm6.714.07c-1.242 0-2.232-.726-2.232-2.015 0-1.5 1.336-1.776 2.549-1.928 1.166-.147 1.681-.111 1.681-.598v-.035c0-.814-.462-1.283-1.371-1.283-.943 0-1.453.504-1.658.961l-1.013-.334c.503-1.19 1.628-1.553 2.642-1.553.879 0 2.455.27 2.455 2.315V132h-1.037v-.891h-.07c-.223.463-.838 1.043-1.946 1.043Zm.182-.931c1.166 0 1.816-.785 1.816-1.588v-.908c-.175.205-1.324.322-1.728.375-.768.099-1.441.345-1.441 1.089 0 .68.568 1.032 1.353 1.032Zm6.193.826c-.984 0-1.47-.551-1.47-1.5v-7.277h1.054v7.013c0 .604.106.821.545.821.229 0 .323-.018.422-.047l.211.89c-.187.053-.48.1-.762.1Z" fill="#fff"/></svg>