<svg width="342" height="112" viewBox="0 0 342 112" fill="none" xmlns="http://www.w3.org/2000/svg"><rect width="342" height="112" rx="4" fill="#FBFAFD"/><rect x="16" y="16" width="310" height="28" rx="4" fill="#ECECEF"/><path d="M31.821 35.14c-.793 0-1.423-.22-1.89-.658-.467-.448-.7-1.031-.7-1.75 0-.476.107-.891.322-1.246a2.19 2.19 0 0 1 .896-.826 2.74 2.74 0 0 1 1.316-.308h2.38v-.602c0-.504-.135-.877-.406-1.12-.27-.252-.681-.378-1.232-.378-.485 0-.877.089-1.176.266-.299.177-.457.425-.476.742h-1.26c.047-.607.327-1.106.84-1.498.523-.401 1.213-.602 2.072-.602.933 0 1.647.224 2.142.672.504.448.756 1.073.756 1.876V35h-1.246v-1.4h-.21l.196-.28c0 .373-.093.695-.28.966-.187.27-.453.48-.798.63-.345.15-.76.224-1.246.224Zm.308-1.064c.616 0 1.106-.15 1.47-.448.364-.299.546-.705.546-1.218v-1.078h-2.24c-.41 0-.747.126-1.008.378-.252.243-.378.57-.378.98 0 .43.14.77.42 1.022.29.243.686.364 1.19.364Zm7.933.924-2.618-7.7H38.8l1.68 5.18c.103.308.192.607.267.896.074.28.13.5.168.658.046-.159.102-.378.168-.658.065-.29.144-.588.237-.896L43 27.3h1.33L41.715 35h-1.652Zm8.548.14c-.793 0-1.423-.22-1.89-.658-.467-.448-.7-1.031-.7-1.75 0-.476.107-.891.322-1.246a2.19 2.19 0 0 1 .896-.826 2.74 2.74 0 0 1 1.316-.308h2.38v-.602c0-.504-.135-.877-.406-1.12-.27-.252-.681-.378-1.232-.378-.485 0-.877.089-1.176.266-.299.177-.457.425-.476.742h-1.26c.047-.607.327-1.106.84-1.498.523-.401 1.213-.602 2.072-.602.933 0 1.647.224 2.142.672.504.448.756 1.073.756 1.876V35h-1.246v-1.4h-.21l.196-.28c0 .373-.093.695-.28.966-.187.27-.453.48-.798.63-.345.15-.76.224-1.246.224Zm.308-1.064c.616 0 1.106-.15 1.47-.448.364-.299.546-.705.546-1.218v-1.078h-2.24c-.41 0-.747.126-1.008.378-.252.243-.378.57-.378.98 0 .43.14.77.42 1.022.29.243.686.364 1.19.364Zm9.529.924c-.635 0-1.144-.182-1.526-.546-.383-.373-.574-.868-.574-1.484v-4.522h-2.212V27.3h2.212v-2.17h1.26v2.17h3.15v1.148h-3.15v4.522c0 .261.074.476.224.644a.833.833 0 0 0 .616.238h2.24V35h-2.24Zm6.952.14c-.793 0-1.423-.22-1.89-.658-.467-.448-.7-1.031-.7-1.75 0-.476.107-.891.322-1.246a2.19 2.19 0 0 1 .896-.826 2.74 2.74 0 0 1 1.316-.308h2.38v-.602c0-.504-.135-.877-.406-1.12-.27-.252-.681-.378-1.232-.378-.485 0-.877.089-1.176.266-.299.177-.457.425-.476.742h-1.26c.047-.607.327-1.106.84-1.498.523-.401 1.213-.602 2.072-.602.933 0 1.647.224 2.142.672.504.448.756 1.073.756 1.876V35h-1.246v-1.4h-.21l.196-.28c0 .373-.093.695-.28.966-.187.27-.453.48-.798.63-.345.15-.76.224-1.246.224Zm.308-1.064c.616 0 1.106-.15 1.47-.448.364-.299.546-.705.546-1.218v-1.078h-2.24c-.41 0-.747.126-1.008.378-.252.243-.378.57-.378.98 0 .43.14.77.42 1.022.29.243.686.364 1.19.364Zm6.127.924v-7.7h1.26v1.47h.266l-.266.336c0-.597.182-1.069.546-1.414.373-.355.886-.532 1.54-.532.802 0 1.418.243 1.848.728.438.476.658 1.157.658 2.044v.658h-1.26v-.658c0-.57-.14-.99-.42-1.26-.28-.28-.686-.42-1.218-.42-.551 0-.971.159-1.26.476-.29.317-.434.775-.434 1.372V35h-1.26Zm11.026.14c-.345 0-.625-.103-.84-.308-.205-.205-.308-.471-.308-.798 0-.345.103-.625.308-.84.215-.215.495-.322.84-.322.346 0 .62.107.826.322.215.215.322.495.322.84 0 .327-.107.593-.322.798-.205.205-.48.308-.826.308Zm7.205-.14v-5.502h-2.24V28.35h2.24v-1.61c0-.607.191-1.083.574-1.428.382-.355.91-.532 1.582-.532h2.254v1.148H92.22c-.29 0-.514.07-.672.21-.15.13-.224.331-.224.602v1.61h3.15v1.148h-3.15V35h-1.26Zm8.912.14c-.793 0-1.423-.22-1.89-.658-.466-.448-.7-1.031-.7-1.75 0-.476.108-.891.322-1.246a2.19 2.19 0 0 1 .896-.826 2.74 2.74 0 0 1 1.316-.308h2.38v-.602c0-.504-.135-.877-.406-1.12-.27-.252-.681-.378-1.232-.378-.485 0-.877.089-1.176.266-.298.177-.457.425-.476.742h-1.26c.047-.607.327-1.106.84-1.498.523-.401 1.214-.602 2.072-.602.934 0 1.648.224 2.142.672.504.448.756 1.073.756 1.876V35h-1.246v-1.4h-.21l.196-.28c0 .373-.093.695-.28.966-.186.27-.452.48-.798.63-.345.15-.76.224-1.246.224Zm.308-1.064c.616 0 1.106-.15 1.47-.448.364-.299.546-.705.546-1.218v-1.078h-2.24c-.41 0-.746.126-1.008.378-.252.243-.378.57-.378.98 0 .43.14.77.42 1.022.29.243.686.364 1.19.364Zm9.879.924c-.448 0-.84-.089-1.176-.266a1.908 1.908 0 0 1-.784-.756c-.187-.327-.28-.71-.28-1.148v-6.902h-2.66V24.78h3.92v8.05c0 .317.088.57.266.756.177.177.415.266.714.266h2.38V35h-2.38Zm8.394 0c-.448 0-.84-.089-1.176-.266a1.914 1.914 0 0 1-.784-.756c-.186-.327-.28-.71-.28-1.148v-6.902h-2.66V24.78h3.92v8.05c0 .317.089.57.266.756.178.177.416.266.714.266h2.38V35h-2.38Zm7.723.14c-.635 0-1.144-.168-1.526-.504-.383-.345-.574-.812-.574-1.4l.252.294h-.252V35h-1.26V24.78h1.26v2.24l-.028 1.75h.28l-.28.294c0-.579.196-1.04.588-1.386.401-.345.914-.518 1.54-.518.774 0 1.39.257 1.848.77.457.513.686 1.213.686 2.1v2.254c0 .877-.229 1.573-.686 2.086-.458.513-1.074.77-1.848.77Zm-.42-1.092c.532 0 .947-.14 1.246-.42.298-.28.448-.733.448-1.358v-2.24c0-.635-.15-1.087-.448-1.358-.299-.28-.714-.42-1.246-.42-.514 0-.924.163-1.232.49-.299.327-.448.78-.448 1.358v2.1c0 .579.149 1.031.448 1.358.308.327.718.49 1.232.49Zm7.694 1.092c-.793 0-1.423-.22-1.89-.658-.466-.448-.7-1.031-.7-1.75 0-.476.108-.891.322-1.246.215-.355.514-.63.896-.826a2.743 2.743 0 0 1 1.316-.308h2.38v-.602c0-.504-.135-.877-.406-1.12-.27-.252-.681-.378-1.232-.378-.485 0-.877.089-1.176.266-.298.177-.457.425-.476.742h-1.26c.047-.607.327-1.106.84-1.498.523-.401 1.214-.602 2.072-.602.934 0 1.648.224 2.142.672.504.448.756 1.073.756 1.876V35h-1.246v-1.4h-.21l.196-.28c0 .373-.093.695-.28.966-.186.27-.452.48-.798.63-.345.15-.76.224-1.246.224Zm.308-1.064c.616 0 1.106-.15 1.47-.448.364-.299.546-.705.546-1.218v-1.078h-2.24c-.41 0-.746.126-1.008.378-.252.243-.378.57-.378.98 0 .43.14.77.42 1.022.29.243.686.364 1.19.364Zm8.871 1.064c-.616 0-1.157-.117-1.624-.35a2.61 2.61 0 0 1-1.078-1.008c-.252-.448-.378-.975-.378-1.582v-2.1c0-.616.126-1.143.378-1.582a2.61 2.61 0 0 1 1.078-1.008c.467-.233 1.008-.35 1.624-.35.887 0 1.601.238 2.142.714.551.476.84 1.125.868 1.946h-1.26c-.028-.495-.196-.873-.504-1.134-.308-.27-.723-.406-1.246-.406-.551 0-.994.159-1.33.476-.327.308-.49.751-.49 1.33V32.2c0 .579.163 1.027.49 1.344.336.317.779.476 1.33.476.523 0 .938-.135 1.246-.406.308-.27.476-.649.504-1.134h1.26c-.028.821-.317 1.47-.868 1.946-.541.476-1.255.714-2.142.714Zm5.44-.14V24.78h1.26v5.698h1.47l2.156-3.178h1.442l-2.478 3.668L153.642 35h-1.47l-2.24-3.43h-1.498V35h-1.26Zm11.237.14c-.345 0-.625-.103-.84-.308-.205-.205-.308-.471-.308-.798 0-.345.103-.625.308-.84.215-.215.495-.322.84-.322s.621.107.826.322c.215.215.322.495.322.84 0 .327-.107.593-.322.798-.205.205-.481.308-.826.308Zm8.842 0c-.634 0-1.143-.168-1.526-.504-.382-.345-.574-.812-.574-1.4l.252.294h-.252V35h-1.26V24.78h1.26v2.24l-.028 1.75h.28l-.28.294c0-.579.196-1.04.588-1.386.402-.345.915-.518 1.54-.518.775 0 1.391.257 1.848.77.458.513.686 1.213.686 2.1v2.254c0 .877-.228 1.573-.686 2.086-.457.513-1.073.77-1.848.77Zm-.42-1.092c.532 0 .948-.14 1.246-.42.299-.28.448-.733.448-1.358v-2.24c0-.635-.149-1.087-.448-1.358-.298-.28-.714-.42-1.246-.42-.513 0-.924.163-1.232.49-.298.327-.448.78-.448 1.358v2.1c0 .579.15 1.031.448 1.358.308.327.719.49 1.232.49Zm7.695 1.092c-.793 0-1.423-.22-1.89-.658-.467-.448-.7-1.031-.7-1.75 0-.476.107-.891.322-1.246a2.19 2.19 0 0 1 .896-.826 2.74 2.74 0 0 1 1.316-.308h2.38v-.602c0-.504-.135-.877-.406-1.12-.271-.252-.681-.378-1.232-.378-.485 0-.877.089-1.176.266-.299.177-.457.425-.476.742h-1.26c.047-.607.327-1.106.84-1.498.523-.401 1.213-.602 2.072-.602.933 0 1.647.224 2.142.672.504.448.756 1.073.756 1.876V35h-1.246v-1.4h-.21l.196-.28c0 .373-.093.695-.28.966-.187.27-.453.48-.798.63-.345.15-.761.224-1.246.224Zm.308-1.064c.616 0 1.106-.15 1.47-.448.364-.299.546-.705.546-1.218v-1.078h-2.24c-.411 0-.747.126-1.008.378-.252.243-.378.57-.378.98 0 .43.14.77.42 1.022.289.243.686.364 1.19.364Zm8.871 1.064c-.616 0-1.158-.117-1.624-.35a2.605 2.605 0 0 1-1.078-1.008c-.252-.448-.378-.975-.378-1.582v-2.1c0-.616.126-1.143.378-1.582a2.6 2.6 0 0 1 1.078-1.008c.466-.233 1.008-.35 1.624-.35.886 0 1.6.238 2.142.714.55.476.84 1.125.868 1.946h-1.26c-.028-.495-.196-.873-.504-1.134-.308-.27-.724-.406-1.246-.406-.551 0-.994.159-1.33.476-.327.308-.49.751-.49 1.33V32.2c0 .579.163 1.027.49 1.344.336.317.779.476 1.33.476.522 0 .938-.135 1.246-.406.308-.27.476-.649.504-1.134h1.26c-.028.821-.318 1.47-.868 1.946-.542.476-1.256.714-2.142.714Zm5.44-.14V24.78h1.26v5.698h1.47l2.156-3.178h1.442l-2.478 3.668L195.615 35h-1.47l-2.24-3.43h-1.498V35h-1.26Zm9.291 2.52v-1.148h2.17c.438 0 .784-.126 1.036-.378.252-.243.378-.574.378-.994v-.7l.028-1.26h-.252l.238-.35c0 .56-.187.999-.56 1.316-.374.308-.873.462-1.498.462-.794 0-1.419-.252-1.876-.756-.458-.504-.686-1.195-.686-2.072v-1.624c0-.877.228-1.573.686-2.086.457-.513 1.082-.77 1.876-.77.625 0 1.124.163 1.498.49.373.327.56.77.56 1.33l-.238-.35h.238V27.3h1.246V35c0 .775-.243 1.386-.728 1.834-.476.457-1.13.686-1.96.686h-2.156Zm1.918-4.102c.522 0 .933-.163 1.232-.49.298-.327.448-.78.448-1.358V30.1c0-.579-.15-1.031-.448-1.358-.299-.327-.71-.49-1.232-.49-.532 0-.948.154-1.246.462-.29.308-.434.723-.434 1.246v1.75c0 .523.144.938.434 1.246.298.308.714.462 1.246.462Zm5.79 1.582v-7.7h1.26v1.47h.266l-.266.336c0-.597.182-1.069.546-1.414.373-.355.887-.532 1.54-.532.803 0 1.419.243 1.848.728.439.476.658 1.157.658 2.044v.658h-1.26v-.658c0-.57-.14-.99-.42-1.26-.28-.28-.686-.42-1.218-.42-.551 0-.971.159-1.26.476-.289.317-.434.775-.434 1.372V35h-1.26Zm11.027.112c-.616 0-1.153-.121-1.61-.364a2.586 2.586 0 0 1-1.05-1.05c-.243-.467-.364-1.022-.364-1.666v-1.764c0-.653.121-1.209.364-1.666a2.586 2.586 0 0 1 1.05-1.05c.457-.243.994-.364 1.61-.364.625 0 1.162.121 1.61.364a2.5 2.5 0 0 1 1.036 1.05c.252.457.378 1.013.378 1.666v1.764c0 .644-.126 1.2-.378 1.666a2.482 2.482 0 0 1-1.05 1.05c-.448.243-.98.364-1.596.364Zm0-1.12c.55 0 .98-.154 1.288-.462.317-.308.476-.76.476-1.358v-2.044c0-.597-.159-1.05-.476-1.358-.308-.308-.738-.462-1.288-.462-.542 0-.971.154-1.288.462-.318.308-.476.76-.476 1.358v2.044c0 .597.158 1.05.476 1.358.317.308.746.462 1.288.462Zm8.38 1.148c-.886 0-1.596-.261-2.128-.784-.532-.532-.798-1.25-.798-2.156v-4.9h1.26v4.9c0 .56.15 1.008.448 1.344.299.327.705.49 1.218.49.523 0 .934-.163 1.232-.49.308-.336.462-.784.462-1.344v-4.9h1.26v4.9c0 .905-.27 1.624-.812 2.156-.541.523-1.255.784-2.142.784Zm5.497-.14v-7.7h1.26v1.47h.266l-.266.294c0-.607.182-1.073.546-1.4.364-.336.868-.504 1.512-.504.774 0 1.39.238 1.848.714.457.476.686 1.125.686 1.946V35h-1.26v-4.956c0-.588-.15-1.036-.448-1.344-.29-.317-.686-.476-1.19-.476-.523 0-.938.163-1.246.49-.299.327-.448.789-.448 1.386V35h-1.26Zm10.858.14c-.765 0-1.381-.257-1.848-.77-.457-.513-.686-1.209-.686-2.086V30.03c0-.887.229-1.587.686-2.1.458-.513 1.074-.77 1.848-.77.635 0 1.148.173 1.54.518.392.345.588.807.588 1.386l-.28-.294h.28l-.028-1.75v-2.24h1.26V35h-1.26v-1.47h-.252l.252-.294c0 .588-.191 1.055-.574 1.4-.382.336-.891.504-1.526.504Zm.42-1.092c.523 0 .934-.163 1.232-.49.299-.327.448-.78.448-1.358v-2.1c0-.579-.149-1.031-.448-1.358-.298-.327-.709-.49-1.232-.49-.532 0-.947.14-1.246.42-.298.27-.448.723-.448 1.358v2.24c0 .625.15 1.078.448 1.358.299.28.714.42 1.246.42Zm8.423 1.092c-.346 0-.626-.103-.84-.308-.206-.205-.308-.471-.308-.798 0-.345.102-.625.308-.84.214-.215.494-.322.84-.322.345 0 .62.107.826.322.214.215.322.495.322.84 0 .327-.108.593-.322.798-.206.205-.481.308-.826.308Zm5.482 2.38V27.3h1.26v1.47h.252l-.252.294c0-.588.192-1.05.574-1.386.383-.345.892-.518 1.526-.518.514 0 .957.117 1.33.35.383.224.677.55.882.98.215.43.322.938.322 1.526v2.254c0 .588-.102 1.097-.308 1.526-.205.43-.499.76-.882.994-.373.233-.821.35-1.344.35-.625 0-1.134-.173-1.526-.518-.382-.345-.574-.807-.574-1.386l.252.294h-.28l.028 1.75v2.24h-1.26Zm2.94-3.472c.532 0 .948-.14 1.246-.42.299-.28.448-.733.448-1.358v-2.24c0-.635-.149-1.087-.448-1.358-.298-.28-.714-.42-1.246-.42-.513 0-.924.163-1.232.49-.298.327-.448.78-.448 1.358v2.1c0 .579.15 1.031.448 1.358.308.327.719.49 1.232.49Zm8.353 1.092c-.887 0-1.596-.261-2.128-.784-.532-.532-.798-1.25-.798-2.156v-4.9h1.26v4.9c0 .56.149 1.008.448 1.344.299.327.705.49 1.218.49.523 0 .933-.163 1.232-.49.308-.336.462-.784.462-1.344v-4.9h1.26v4.9c0 .905-.271 1.624-.812 2.156-.541.523-1.255.784-2.142.784Zm5.776-.14v-7.7h1.26v1.47h.266l-.266.336c0-.597.182-1.069.546-1.414.374-.355.887-.532 1.54-.532.803 0 1.419.243 1.848.728.439.476.658 1.157.658 2.044v.658h-1.26v-.658c0-.57-.14-.99-.42-1.26-.28-.28-.686-.42-1.218-.42-.55 0-.97.159-1.26.476-.289.317-.434.775-.434 1.372V35h-1.26Zm8.115 2.52V27.3h1.26v1.47h.252l-.252.294c0-.588.191-1.05.574-1.386.383-.345.891-.518 1.526-.518.513 0 .957.117 1.33.35.383.224.677.55.882.98.215.43.322.938.322 1.526v2.254c0 .588-.103 1.097-.308 1.526-.205.43-.499.76-.882.994-.373.233-.821.35-1.344.35-.625 0-1.134-.173-1.526-.518-.383-.345-.574-.807-.574-1.386l.252.294h-.28l.028 1.75v2.24h-1.26Zm2.94-3.472c.532 0 .947-.14 1.246-.42.299-.28.448-.733.448-1.358v-2.24c0-.635-.149-1.087-.448-1.358-.299-.28-.714-.42-1.246-.42-.513 0-.924.163-1.232.49-.299.327-.448.78-.448 1.358v2.1c0 .579.149 1.031.448 1.358.308.327.719.49 1.232.49Zm9.486.952c-.448 0-.84-.089-1.176-.266a1.914 1.914 0 0 1-.784-.756c-.186-.327-.28-.71-.28-1.148v-6.902h-2.66V24.78h3.92v8.05c0 .317.089.57.266.756.178.177.416.266.714.266h2.38V35h-2.38Zm7.275.14c-.607 0-1.139-.121-1.596-.364a2.679 2.679 0 0 1-1.05-1.064c-.252-.467-.378-1.017-.378-1.652v-1.82c0-.644.126-1.195.378-1.652a2.586 2.586 0 0 1 1.05-1.05c.457-.252.989-.378 1.596-.378.607 0 1.134.121 1.582.364.457.243.812.583 1.064 1.022.252.439.378.957.378 1.554v1.372h-4.816v.728c0 .57.163 1.022.49 1.358.327.327.761.49 1.302.49.467 0 .849-.089 1.148-.266.308-.187.495-.434.56-.742h1.26c-.084.644-.397 1.157-.938 1.54-.541.373-1.218.56-2.03.56Zm1.792-4.522V30.1c0-.607-.159-1.073-.476-1.4-.308-.336-.747-.504-1.316-.504-.569 0-1.013.168-1.33.504-.308.327-.462.793-.462 1.4v.392h3.682l-.098.126Zm6.603-1.386c-.383 0-.672-.093-.868-.28-.196-.187-.294-.439-.294-.756s.098-.57.294-.756c.196-.187.485-.28.868-.28.382 0 .672.093.868.28.196.187.294.439.294.756s-.098.57-.294.756c-.196.187-.486.28-.868.28Zm0 5.908c-.383 0-.672-.093-.868-.28-.196-.187-.294-.439-.294-.756s.098-.57.294-.756c.196-.187.485-.28.868-.28.382 0 .672.093.868.28.196.187.294.439.294.756s-.098.57-.294.756c-.196.187-.486.28-.868.28Z" fill="#333238"/><path stroke="#7B58CF" stroke-width="2" stroke-linecap="round" d="M21.5 63h62m-62 0V49m62 14V49"/><rect x="12" y="72" width="81" height="24" rx="4" fill="#E1D8F9"/><path d="M23.817 88.12c-.528 0-.992-.1-1.392-.3-.392-.2-.7-.488-.924-.864-.216-.384-.324-.836-.324-1.356v-1.8c0-.528.108-.98.324-1.356.224-.376.532-.664.924-.864.4-.2.864-.3 1.392-.3.76 0 1.372.204 1.836.612.472.408.72.964.744 1.668h-1.08c-.024-.424-.168-.748-.432-.972-.264-.232-.62-.348-1.068-.348-.472 0-.852.136-1.14.408-.28.264-.42.644-.42 1.14V85.6c0 .496.14.88.42 1.152.288.272.668.408 1.14.408.448 0 .804-.116 1.068-.348.264-.232.408-.556.432-.972h1.08c-.024.704-.272 1.26-.744 1.668-.464.408-1.076.612-1.836.612Zm7.1-.024c-.529 0-.989-.104-1.38-.312a2.216 2.216 0 0 1-.9-.9c-.209-.4-.313-.876-.313-1.428v-1.512c0-.56.104-1.036.312-1.428.216-.392.516-.692.9-.9.392-.208.852-.312 1.38-.312.536 0 .996.104 1.38.312.384.208.68.508.888.9.216.392.324.868.324 1.428v1.512c0 .552-.108 1.028-.324 1.428a2.124 2.124 0 0 1-.9.9c-.384.208-.84.312-1.368.312Zm0-.96c.471 0 .84-.132 1.103-.396.272-.264.408-.652.408-1.164v-1.752c0-.512-.136-.9-.408-1.164-.264-.264-.632-.396-1.104-.396-.464 0-.832.132-1.104.396-.272.264-.408.652-.408 1.164v1.752c0 .512.136.9.408 1.164.272.264.64.396 1.104.396Zm4.315.864v-6.6h.936v.876h.24l-.228.204c0-.352.1-.64.3-.864.208-.224.48-.336.816-.336.384 0 .688.144.912.432.224.288.336.664.336 1.128l-.324-.624h.504l-.276.264c.008-.368.116-.66.324-.876.208-.216.484-.324.828-.324.424 0 .76.16 1.008.48.256.312.384.72.384 1.224V88h-1.008v-5.028c0-.264-.064-.472-.192-.624a.64.64 0 0 0-.528-.24.64.64 0 0 0-.516.228c-.128.152-.192.36-.192.624V88h-.888v-5.028c0-.264-.064-.472-.192-.624a.627.627 0 0 0-.516-.24c-.224 0-.4.076-.528.228-.128.152-.192.36-.192.624V88h-1.008Zm7.579 2.16V81.4h1.08v1.26h.216l-.216.252c0-.504.164-.9.492-1.188.328-.296.764-.444 1.308-.444.44 0 .82.1 1.14.3.328.192.58.472.756.84.184.368.276.804.276 1.308v1.932c0 .504-.088.94-.264 1.308a1.962 1.962 0 0 1-.756.852c-.32.2-.704.3-1.152.3-.536 0-.972-.148-1.308-.444-.328-.296-.492-.692-.492-1.188l.216.252h-.24l.024 1.5v1.92h-1.08Zm2.52-2.976c.456 0 .812-.12 1.068-.36s.384-.628.384-1.164v-1.92c0-.544-.128-.932-.384-1.164-.256-.24-.612-.36-1.068-.36-.44 0-.792.14-1.056.42-.256.28-.384.668-.384 1.164v1.8c0 .496.128.884.384 1.164.264.28.616.42 1.056.42Zm7.171.912c-.528 0-.988-.104-1.38-.312a2.216 2.216 0 0 1-.9-.9c-.208-.4-.312-.876-.312-1.428v-1.512c0-.56.104-1.036.312-1.428.216-.392.516-.692.9-.9.392-.208.852-.312 1.38-.312.536 0 .996.104 1.38.312.384.208.68.508.888.9.216.392.324.868.324 1.428v1.512c0 .552-.108 1.028-.324 1.428a2.124 2.124 0 0 1-.9.9c-.384.208-.84.312-1.368.312Zm0-.96c.472 0 .84-.132 1.104-.396.272-.264.408-.652.408-1.164v-1.752c0-.512-.136-.9-.408-1.164-.264-.264-.632-.396-1.104-.396-.464 0-.832.132-1.104.396-.272.264-.408.652-.408 1.164v1.752c0 .512.136.9.408 1.164.272.264.64.396 1.104.396Zm4.7.864v-6.6h1.08v1.26h.228l-.228.252c0-.52.156-.92.468-1.2.312-.288.744-.432 1.296-.432.664 0 1.192.204 1.584.612.392.408.588.964.588 1.668V88h-1.08v-4.248c0-.504-.128-.888-.384-1.152-.248-.272-.588-.408-1.02-.408-.448 0-.804.14-1.068.42-.256.28-.384.676-.384 1.188V88h-1.08Zm9.691.12c-.52 0-.976-.104-1.368-.312a2.296 2.296 0 0 1-.9-.912c-.216-.4-.324-.872-.324-1.416v-1.56c0-.552.108-1.024.324-1.416.216-.392.516-.692.9-.9.392-.216.848-.324 1.368-.324.52 0 .972.104 1.356.312.392.208.696.5.912.876.216.376.324.82.324 1.332v1.176h-4.128v.624c0 .488.14.876.42 1.164.28.28.652.42 1.116.42.4 0 .728-.076.984-.228.264-.16.424-.372.48-.636h1.08c-.072.552-.34.992-.804 1.32-.464.32-1.044.48-1.74.48Zm1.536-3.876V83.8c0-.52-.136-.92-.408-1.2-.264-.288-.64-.432-1.128-.432-.488 0-.868.144-1.14.432-.264.28-.396.68-.396 1.2v.336h3.156l-.084.108ZM71.592 88v-6.6h1.08v1.26h.228l-.228.252c0-.52.156-.92.468-1.2.312-.288.744-.432 1.296-.432.664 0 1.192.204 1.584.612.392.408.588.964.588 1.668V88h-1.08v-4.248c0-.504-.128-.888-.384-1.152-.248-.272-.588-.408-1.02-.408-.448 0-.804.14-1.068.42-.256.28-.384.676-.384 1.188V88h-1.08Zm10.352 0c-.544 0-.98-.156-1.308-.468-.328-.32-.492-.744-.492-1.272v-3.876h-1.896V81.4h1.896v-1.86h1.08v1.86h2.7v.984h-2.7v3.876a.8.8 0 0 0 .192.552.714.714 0 0 0 .528.204h1.92V88h-1.92Z" fill="#333238"/></svg>