<svg width="542" height="224" viewBox="0 0 542 224" fill="none" xmlns="http://www.w3.org/2000/svg"><rect width="542" height="224" rx="4" fill="#FBFAFD"/><path d="m20.114 24.98-.112-4.2h1.428l-.098 4.2h-1.218Zm2.968 0-.112-4.2h1.428l-.098 4.2h-1.218Zm4.6 8.54V23.3h1.26v1.47h.253l-.253.294c0-.588.192-1.05.575-1.386.382-.345.89-.518 1.526-.518.513 0 .956.117 1.33.35.382.224.676.55.882.98.214.43.322.938.322 1.526v2.254c0 .588-.103 1.097-.308 1.526-.206.43-.5.76-.883.994-.373.233-.82.35-1.344.35-.625 0-1.134-.173-1.526-.518-.382-.345-.573-.807-.573-1.386l.252.294h-.28l.027 1.75v2.24h-1.26Zm2.94-3.472c.532 0 .948-.14 1.247-.42.298-.28.447-.733.447-1.358v-2.24c0-.635-.149-1.087-.448-1.358-.298-.28-.713-.42-1.245-.42-.514 0-.925.163-1.233.49-.298.327-.448.78-.448 1.358v2.1c0 .579.15 1.031.448 1.358.308.327.72.49 1.232.49Zm8.353 1.092c-.887 0-1.596-.261-2.128-.784-.532-.532-.798-1.25-.798-2.156v-4.9h1.26v4.9c0 .56.15 1.008.448 1.344.299.327.705.49 1.218.49.523 0 .933-.163 1.232-.49.308-.336.462-.784.462-1.344v-4.9h1.26v4.9c0 .905-.27 1.624-.812 2.156-.541.523-1.255.784-2.142.784Zm5.777-.14v-7.7h1.26v1.47h.266l-.266.336c0-.597.182-1.069.546-1.414.373-.355.886-.532 1.54-.532.802 0 1.418.243 1.848.728.438.476.658 1.157.658 2.044v.658h-1.26v-.658c0-.57-.14-.99-.42-1.26-.28-.28-.686-.42-1.218-.42-.551 0-.971.159-1.26.476-.29.317-.434.775-.434 1.372V31h-1.26Zm8.114 2.52V23.3h1.26v1.47h.252l-.252.294c0-.588.192-1.05.574-1.386.383-.345.892-.518 1.526-.518.514 0 .957.117 1.33.35.383.224.677.55.882.98.215.43.322.938.322 1.526v2.254c0 .588-.102 1.097-.308 1.526-.205.43-.5.76-.882.994-.373.233-.821.35-1.344.35-.625 0-1.134-.173-1.526-.518-.383-.345-.574-.807-.574-1.386l.252.294h-.28l.028 1.75v2.24h-1.26Zm2.94-3.472c.532 0 .948-.14 1.246-.42.299-.28.448-.733.448-1.358v-2.24c0-.635-.15-1.087-.448-1.358-.298-.28-.714-.42-1.246-.42-.513 0-.924.163-1.232.49-.298.327-.448.78-.448 1.358v2.1c0 .579.15 1.031.448 1.358.308.327.719.49 1.232.49Zm9.487.952c-.448 0-.84-.089-1.176-.266a1.911 1.911 0 0 1-.784-.756c-.187-.327-.28-.71-.28-1.148v-6.902h-2.66V20.78h3.92v8.05c0 .317.088.57.266.756.177.177.415.266.714.266h2.38V31h-2.38Zm7.274.14c-.606 0-1.138-.121-1.596-.364a2.679 2.679 0 0 1-1.05-1.064c-.252-.467-.378-1.017-.378-1.652v-1.82c0-.644.126-1.195.378-1.652a2.586 2.586 0 0 1 1.05-1.05c.457-.252.99-.378 1.596-.378.607 0 1.134.121 1.582.364.457.243.812.583 1.064 1.022.252.439.378.957.378 1.554v1.372h-4.816v.728c0 .57.163 1.022.49 1.358.327.327.76.49 1.302.49.467 0 .85-.089 1.148-.266.308-.187.495-.434.56-.742h1.26c-.084.644-.397 1.157-.938 1.54-.541.373-1.218.56-2.03.56Zm1.792-4.522V26.1c0-.607-.158-1.073-.476-1.4-.308-.336-.746-.504-1.316-.504-.57 0-1.012.168-1.33.504-.308.327-.462.793-.462 1.4v.392h3.682l-.098.126Zm4.517-1.638-.112-4.2h1.428l-.098 4.2h-1.218Zm2.968 0-.112-4.2h1.428l-.098 4.2h-1.218Zm7.512.252c-.382 0-.672-.093-.868-.28-.196-.187-.294-.439-.294-.756s.098-.57.294-.756c.196-.187.486-.28.868-.28.383 0 .672.093.868.28.196.187.294.439.294.756s-.098.57-.294.756c-.196.187-.485.28-.868.28Zm0 5.908c-.382 0-.672-.093-.868-.28-.196-.187-.294-.439-.294-.756s.098-.57.294-.756c.196-.187.486-.28.868-.28.383 0 .672.093.868.28.196.187.294.439.294.756s-.098.57-.294.756c-.196.187-.485.28-.868.28Zm19.029 1.4c-.55 0-1.031-.093-1.442-.28a1.913 1.913 0 0 1-.91-.798c-.205-.345-.284-.76-.238-1.246l.21-2.296c.047-.495-.023-.85-.21-1.064-.186-.224-.583-.336-1.19-.336h-1.61V25.4h1.61c.607 0 1.004-.107 1.19-.322.187-.224.257-.583.21-1.078l-.21-2.296c-.046-.495.033-.915.238-1.26.206-.345.509-.607.91-.784.411-.187.892-.28 1.442-.28h.63v1.12h-.63c-.438 0-.779.103-1.022.308-.242.196-.345.495-.308.896l.21 2.296c.038.401-.023.747-.182 1.036-.158.29-.42.513-.784.672-.354.15-.826.224-1.414.224v-.042c.579 0 1.05.089 1.414.266.364.168.626.406.784.714.159.299.22.649.182 1.05l-.21 2.296c-.037.401.066.7.308.896.243.205.584.308 1.022.308h.63v1.12h-.63ZM36.903 48.98l-.112-4.2h1.428l-.098 4.2h-1.218Zm2.968 0-.112-4.2h1.428l-.098 4.2h-1.218ZM44.444 55v-1.148h2.772v-7.98l-2.772 2.072v-1.442l2.31-1.722h1.722v9.072h2.268V55h-6.3Zm11.334.14c-.625 0-1.171-.121-1.638-.364a2.679 2.679 0 0 1-1.064-1.05c-.252-.457-.378-.99-.378-1.596v-4.48c0-.616.126-1.148.378-1.596a2.587 2.587 0 0 1 1.064-1.036c.467-.252 1.013-.378 1.638-.378.635 0 1.18.126 1.638.378.458.243.812.588 1.064 1.036.252.448.378.98.378 1.596v4.48c0 .607-.126 1.139-.378 1.596a2.655 2.655 0 0 1-1.078 1.05c-.457.243-.998.364-1.624.364Zm0-1.078c.56 0 1.008-.177 1.344-.532.346-.364.518-.83.518-1.4v-4.48c0-.57-.172-1.031-.518-1.386-.336-.364-.784-.546-1.344-.546s-1.012.182-1.358.546c-.336.355-.504.817-.504 1.386v4.48c0 .57.168 1.036.504 1.4.346.355.798.532 1.358.532Zm0-3.402c-.252 0-.457-.07-.616-.21-.15-.14-.224-.34-.224-.602 0-.252.075-.443.224-.574.159-.14.364-.21.616-.21s.453.07.602.21c.159.13.238.322.238.574 0 .261-.08.462-.238.602-.15.14-.35.21-.602.21Zm8.395 4.48c-.626 0-1.172-.121-1.638-.364a2.678 2.678 0 0 1-1.064-1.05c-.252-.457-.378-.99-.378-1.596v-4.48c0-.616.126-1.148.378-1.596a2.586 2.586 0 0 1 1.064-1.036c.466-.252 1.012-.378 1.638-.378.634 0 1.18.126 1.638.378a2.59 2.59 0 0 1 1.064 1.036c.252.448.378.98.378 1.596v4.48c0 .607-.126 1.139-.378 1.596a2.656 2.656 0 0 1-1.078 1.05c-.458.243-.999.364-1.624.364Zm0-1.078c.56 0 1.008-.177 1.344-.532.345-.364.518-.83.518-1.4v-4.48c0-.57-.173-1.031-.518-1.386-.336-.364-.784-.546-1.344-.546s-1.013.182-1.358.546c-.336.355-.504.817-.504 1.386v4.48c0 .57.168 1.036.504 1.4.345.355.798.532 1.358.532Zm0-3.402c-.252 0-.458-.07-.616-.21-.15-.14-.224-.34-.224-.602 0-.252.074-.443.224-.574.158-.14.364-.21.616-.21s.452.07.602.21c.158.13.238.322.238.574 0 .261-.08.462-.238.602-.15.14-.35.21-.602.21Zm6.308-1.68-.112-4.2h1.428l-.098 4.2h-1.218Zm2.968 0-.112-4.2h1.428l-.098 4.2H73.45Zm7.513.252c-.383 0-.672-.093-.868-.28-.196-.187-.294-.439-.294-.756s.098-.57.294-.756c.196-.187.485-.28.868-.28.382 0 .672.093.868.28.196.187.294.439.294.756s-.098.57-.294.756c-.196.187-.486.28-.868.28Zm0 5.908c-.383 0-.672-.093-.868-.28-.196-.187-.294-.439-.294-.756s.098-.57.294-.756c.196-.187.485-.28.868-.28.382 0 .672.093.868.28.196.187.294.439.294.756s-.098.57-.294.756c-.196.187-.486.28-.868.28Zm19.029 1.4c-.55 0-1.032-.093-1.442-.28a1.908 1.908 0 0 1-.91-.798c-.206-.345-.285-.76-.238-1.246l.21-2.296c.046-.495-.024-.85-.21-1.064-.187-.224-.584-.336-1.19-.336H94.6V49.4h1.61c.606 0 1.003-.107 1.19-.322.186-.224.256-.583.21-1.078l-.21-2.296c-.047-.495.032-.915.238-1.26a1.93 1.93 0 0 1 .91-.784c.41-.187.891-.28 1.442-.28h.63v1.12h-.63c-.439 0-.78.103-1.022.308-.243.196-.346.495-.308.896L98.87 48c.037.401-.024.747-.182 1.036-.159.29-.42.513-.784.672-.355.15-.826.224-1.414.224v-.042c.578 0 1.05.089 1.414.266.364.168.625.406.784.714.158.299.22.649.182 1.05l-.21 2.296c-.038.401.065.7.308.896.242.205.583.308 1.022.308h.63v1.12h-.63ZM53.692 72.98l-.112-4.2h1.428l-.098 4.2h-1.218Zm2.968 0-.112-4.2h1.428l-.098 4.2H56.66Zm7.163 7.98v-1.834c-.878-.075-1.568-.355-2.072-.84-.495-.495-.752-1.143-.77-1.946h1.26c0 .457.135.83.406 1.12.28.29.672.467 1.176.532v-3.668l-.378-.112c-.7-.215-1.242-.574-1.624-1.078-.374-.504-.56-1.097-.56-1.778 0-.747.228-1.363.686-1.848.466-.485 1.092-.765 1.876-.84V66.82h.84v1.834c.774.075 1.395.355 1.862.84.466.485.704 1.11.714 1.876h-1.26c0-.439-.117-.793-.35-1.064-.224-.28-.546-.453-.966-.518v3.472l.56.182c.681.215 1.208.579 1.582 1.092.373.513.56 1.115.56 1.806 0 .765-.248 1.4-.742 1.904-.486.504-1.139.798-1.96.882v1.834h-.84Zm.84-2.968c.457-.075.812-.252 1.064-.532s.378-.644.378-1.092c0-.41-.112-.765-.336-1.064-.215-.308-.528-.527-.938-.658l-.168-.056v3.402Zm-.84-4.438v-3.766c-.411.065-.733.224-.966.476-.224.252-.336.579-.336.98 0 .485.149.896.448 1.232.298.327.728.532 1.288.616l-.434.462ZM71.74 79l-2.618-7.7h1.358l1.68 5.18c.103.308.192.607.266.896.075.28.13.5.168.658.047-.159.103-.378.168-.658.066-.29.145-.588.238-.896l1.68-5.18h1.33L73.393 79h-1.652Zm8.549.14c-.794 0-1.424-.22-1.89-.658-.467-.448-.7-1.031-.7-1.75 0-.476.107-.891.322-1.246a2.19 2.19 0 0 1 .896-.826 2.74 2.74 0 0 1 1.316-.308h2.38v-.602c0-.504-.136-.877-.406-1.12-.27-.252-.682-.378-1.232-.378-.486 0-.878.089-1.176.266-.299.177-.458.425-.476.742h-1.26c.046-.607.326-1.106.84-1.498.522-.401 1.213-.602 2.072-.602.933 0 1.647.224 2.142.672.504.448.756 1.073.756 1.876V79h-1.246v-1.4h-.21l.196-.28c0 .373-.094.695-.28.966-.187.27-.453.48-.798.63-.346.15-.76.224-1.246.224Zm.308-1.064c.616 0 1.106-.15 1.47-.448.364-.299.546-.705.546-1.218v-1.078h-2.24c-.41 0-.747.126-1.008.378-.252.243-.378.57-.378.98 0 .43.14.77.42 1.022.29.243.686.364 1.19.364Zm9.878.924c-.448 0-.84-.089-1.176-.266a1.911 1.911 0 0 1-.784-.756c-.186-.327-.28-.71-.28-1.148v-6.902h-2.66V68.78h3.92v8.05c0 .317.089.57.266.756.178.177.416.266.714.266h2.38V79h-2.38Zm7.26.14c-.886 0-1.595-.261-2.127-.784-.532-.532-.798-1.25-.798-2.156v-4.9h1.26v4.9c0 .56.15 1.008.448 1.344.298.327.704.49 1.218.49.522 0 .933-.163 1.232-.49.308-.336.462-.784.462-1.344v-4.9h1.26v4.9c0 .905-.271 1.624-.812 2.156-.542.523-1.256.784-2.142.784Zm8.409 0c-.606 0-1.138-.121-1.596-.364a2.679 2.679 0 0 1-1.05-1.064c-.252-.467-.378-1.017-.378-1.652v-1.82c0-.644.126-1.195.378-1.652a2.586 2.586 0 0 1 1.05-1.05c.458-.252.99-.378 1.596-.378.607 0 1.134.121 1.582.364.458.243.812.583 1.064 1.022.252.439.378.957.378 1.554v1.372h-4.816v.728c0 .57.164 1.022.49 1.358.327.327.761.49 1.302.49.467 0 .85-.089 1.148-.266.308-.187.495-.434.56-.742h1.26c-.084.644-.396 1.157-.938 1.54-.541.373-1.218.56-2.03.56Zm1.792-4.522V74.1c0-.607-.158-1.073-.476-1.4-.308-.336-.746-.504-1.316-.504-.569 0-1.012.168-1.33.504-.308.327-.462.793-.462 1.4v.392h3.682l-.098.126Zm4.517-1.638-.112-4.2h1.428l-.098 4.2h-1.218Zm2.968 0-.112-4.2h1.428l-.098 4.2h-1.218Zm7.512.252c-.382 0-.672-.093-.868-.28-.196-.187-.294-.439-.294-.756s.098-.57.294-.756c.196-.187.486-.28.868-.28.383 0 .672.093.868.28.196.187.294.439.294.756s-.098.57-.294.756c-.196.187-.485.28-.868.28Zm0 5.908c-.382 0-.672-.093-.868-.28-.196-.187-.294-.439-.294-.756s.098-.57.294-.756c.196-.187.486-.28.868-.28.383 0 .672.093.868.28.196.187.294.439.294.756s-.098.57-.294.756c-.196.187-.485.28-.868.28Zm14.703-6.16-.112-4.2h1.428l-.098 4.2h-1.218Zm2.968 0-.112-4.2h1.428l-.098 4.2h-1.218ZM145.08 79l.546-2.94h-1.218v-.91h1.372l.476-2.52h-1.358v-.91h1.512l.546-2.94h.98l-.546 2.94h2.24l.546-2.94h.98l-.546 2.94h1.218v.91h-1.372l-.476 2.52h1.358v.91h-1.512L149.28 79h-.98l.546-2.94h-2.24L146.06 79h-.98Zm1.68-3.85H149l.476-2.52h-2.24l-.476 2.52Zm9.753 3.99c-.607 0-1.139-.121-1.596-.364a2.679 2.679 0 0 1-1.05-1.064c-.252-.467-.378-1.017-.378-1.652v-1.82c0-.644.126-1.195.378-1.652a2.586 2.586 0 0 1 1.05-1.05c.457-.252.989-.378 1.596-.378.606 0 1.134.121 1.582.364.457.243.812.583 1.064 1.022.252.439.378.957.378 1.554v1.372h-4.816v.728c0 .57.163 1.022.49 1.358.326.327.76.49 1.302.49.466 0 .849-.089 1.148-.266.308-.187.494-.434.56-.742h1.26c-.084.644-.397 1.157-.938 1.54-.542.373-1.218.56-2.03.56Zm1.792-4.522V74.1c0-.607-.159-1.073-.476-1.4-.308-.336-.747-.504-1.316-.504-.57 0-1.013.168-1.33.504-.308.327-.462.793-.462 1.4v.392h3.682l-.098.126ZM161.967 79v-1.148h2.772v-7.98l-2.772 2.072v-1.442l2.31-1.722h1.722v9.072h2.268V79h-6.3Zm10.887.14c-.766 0-1.382-.257-1.848-.77-.458-.513-.686-1.209-.686-2.086V74.03c0-.887.228-1.587.686-2.1.457-.513 1.073-.77 1.848-.77.634 0 1.148.173 1.54.518.392.345.588.807.588 1.386l-.28-.294h.28l-.028-1.75v-2.24h1.26V79h-1.26v-1.47h-.252l.252-.294c0 .588-.192 1.055-.574 1.4-.383.336-.892.504-1.526.504Zm.42-1.092c.522 0 .933-.163 1.232-.49.298-.327.448-.78.448-1.358v-2.1c0-.579-.15-1.031-.448-1.358-.299-.327-.71-.49-1.232-.49-.532 0-.948.14-1.246.42-.299.27-.448.723-.448 1.358v2.24c0 .625.149 1.078.448 1.358.298.28.714.42 1.246.42Zm8.422 1.092c-.644 0-1.213-.126-1.708-.378a2.877 2.877 0 0 1-1.162-1.05c-.271-.457-.406-.98-.406-1.568 0-.43.084-.821.252-1.176.168-.355.401-.649.7-.882a2.29 2.29 0 0 1 1.078-.462v-.042a2.163 2.163 0 0 1-1.274-.798 2.33 2.33 0 0 1-.476-1.442c0-.532.126-.999.378-1.4a2.53 2.53 0 0 1 1.05-.952c.457-.233.98-.35 1.568-.35.597 0 1.12.117 1.568.35a2.53 2.53 0 0 1 1.05.952c.252.401.378.868.378 1.4a2.33 2.33 0 0 1-.476 1.442c-.317.41-.742.677-1.274.798v.042c.411.065.765.22 1.064.462.308.233.546.527.714.882.168.355.252.747.252 1.176 0 .588-.14 1.11-.42 1.568a2.782 2.782 0 0 1-1.148 1.05c-.485.252-1.055.378-1.708.378Zm0-1.134c.597 0 1.083-.173 1.456-.518.373-.355.56-.812.56-1.372 0-.57-.187-1.027-.56-1.372-.373-.355-.859-.532-1.456-.532s-1.083.177-1.456.532c-.373.345-.56.803-.56 1.372 0 .56.187 1.017.56 1.372.373.345.859.518 1.456.518Zm0-4.914c.523 0 .943-.154 1.26-.462.317-.308.476-.71.476-1.204 0-.495-.159-.896-.476-1.204-.317-.308-.737-.462-1.26-.462-.513 0-.933.154-1.26.462-.317.308-.476.71-.476 1.204 0 .495.159.896.476 1.204.327.308.747.462 1.26.462ZM188.901 79v-5.502h-2.24V72.35h2.24v-1.61c0-.607.191-1.083.574-1.428.382-.355.91-.532 1.582-.532h2.254v1.148h-2.254c-.29 0-.514.07-.672.21-.15.13-.224.331-.224.602v1.61h3.15v1.148h-3.15V79h-1.26Zm8.114 0 2.52-4.382-.042-.028a.858.858 0 0 1-.308.252 1.919 1.919 0 0 1-.462.182 2.787 2.787 0 0 1-.574.056c-.588 0-1.106-.13-1.554-.392a2.88 2.88 0 0 1-1.036-1.106c-.252-.467-.378-1.008-.378-1.624 0-.663.14-1.241.42-1.736a3.02 3.02 0 0 1 1.162-1.162c.495-.28 1.064-.42 1.708-.42.663 0 1.241.14 1.736.42.495.27.882.653 1.162 1.148.28.485.42 1.05.42 1.694 0 .448-.084.91-.252 1.386a9.751 9.751 0 0 1-.686 1.47L198.485 79h-1.47Zm1.47-4.9c.607 0 1.097-.2 1.47-.602.383-.401.574-.924.574-1.568 0-.43-.089-.807-.266-1.134a1.802 1.802 0 0 0-.714-.756c-.299-.187-.653-.28-1.064-.28a2.01 2.01 0 0 0-1.064.28c-.308.177-.551.43-.728.756a2.446 2.446 0 0 0-.252 1.134c0 .43.084.807.252 1.134.177.327.42.583.728.77.308.177.663.266 1.064.266Zm6.309-1.12-.112-4.2h1.428l-.098 4.2h-1.218Zm2.968 0-.112-4.2h1.428l-.098 4.2h-1.218Zm6.252 8.26.77-4.284h1.512l-.98 4.284h-1.302ZM53.692 96.98l-.112-4.2h1.428l-.098 4.2h-1.218Zm2.968 0-.112-4.2h1.428l-.098 4.2H56.66Zm7.163 7.98v-1.834c-.878-.075-1.568-.355-2.072-.84-.495-.495-.752-1.143-.77-1.946h1.26c0 .457.135.831.406 1.12.28.289.672.467 1.176.532v-3.668l-.378-.112c-.7-.215-1.242-.574-1.624-1.078-.374-.504-.56-1.097-.56-1.778 0-.747.228-1.363.686-1.848.466-.485 1.092-.765 1.876-.84V90.82h.84v1.834c.774.075 1.395.355 1.862.84.466.485.704 1.11.714 1.876h-1.26c0-.439-.117-.793-.35-1.064-.224-.28-.546-.453-.966-.518v3.472l.56.182c.681.215 1.208.579 1.582 1.092.373.513.56 1.115.56 1.806 0 .765-.248 1.4-.742 1.904-.486.504-1.139.798-1.96.882v1.834h-.84Zm.84-2.968c.457-.075.812-.252 1.064-.532s.378-.644.378-1.092c0-.41-.112-.765-.336-1.064-.215-.308-.528-.527-.938-.658l-.168-.056v3.402Zm-.84-4.438v-3.766c-.411.065-.733.224-.966.476-.224.252-.336.579-.336.98 0 .485.149.896.448 1.232.298.327.728.532 1.288.616l-.434.462ZM73.337 103c-.635 0-1.143-.182-1.526-.546-.383-.373-.574-.868-.574-1.484v-4.522h-2.212V95.3h2.212v-2.17h1.26v2.17h3.15v1.148h-3.15v4.522c0 .261.075.476.224.644a.832.832 0 0 0 .616.238h2.24V103h-2.24Zm5.917 2.52 1.134-2.996-2.87-7.224h1.358l1.82 4.76c.074.187.144.383.21.588.065.205.112.383.14.532.028-.149.074-.327.14-.532.065-.205.13-.401.196-.588l1.694-4.76h1.33l-3.836 10.22h-1.316Zm7.19 0V95.3h1.26v1.47h.252l-.252.294c0-.588.192-1.05.574-1.386.383-.345.892-.518 1.526-.518.514 0 .957.117 1.33.35.383.224.677.55.882.98.215.43.322.938.322 1.526v2.254c0 .588-.102 1.097-.308 1.526a2.29 2.29 0 0 1-.882.994c-.373.233-.821.35-1.344.35-.625 0-1.134-.173-1.526-.518-.382-.345-.574-.807-.574-1.386l.252.294h-.28l.028 1.75v2.24h-1.26Zm2.94-3.472c.532 0 .948-.14 1.246-.42.299-.28.448-.733.448-1.358v-2.24c0-.635-.15-1.087-.448-1.358-.298-.28-.714-.42-1.246-.42-.513 0-.924.163-1.232.49-.298.327-.448.78-.448 1.358v2.1c0 .579.15 1.031.448 1.358.308.327.719.49 1.232.49Zm8.367 1.092c-.607 0-1.139-.121-1.596-.364a2.68 2.68 0 0 1-1.05-1.064c-.252-.467-.378-1.017-.378-1.652v-1.82c0-.644.126-1.195.378-1.652a2.586 2.586 0 0 1 1.05-1.05c.457-.252.99-.378 1.596-.378.606 0 1.134.121 1.582.364.457.243.812.583 1.064 1.022.252.439.378.957.378 1.554v1.372h-4.816v.728c0 .569.163 1.022.49 1.358.326.327.76.49 1.302.49.466 0 .85-.089 1.148-.266.308-.187.494-.434.56-.742h1.26c-.084.644-.397 1.157-.938 1.54-.542.373-1.218.56-2.03.56Zm1.792-4.522V98.1c0-.607-.159-1.073-.476-1.4-.308-.336-.747-.504-1.316-.504-.57 0-1.013.168-1.33.504-.308.327-.462.793-.462 1.4v.392h3.682l-.098.126Zm4.516-1.638-.112-4.2h1.428l-.098 4.2h-1.218Zm2.968 0-.112-4.2h1.428l-.098 4.2h-1.218Zm7.513.252c-.383 0-.672-.093-.868-.28-.196-.187-.294-.439-.294-.756s.098-.57.294-.756c.196-.187.485-.28.868-.28s.672.093.868.28c.196.187.294.439.294.756s-.098.57-.294.756c-.196.187-.485.28-.868.28Zm0 5.908c-.383 0-.672-.093-.868-.28-.196-.187-.294-.439-.294-.756s.098-.569.294-.756c.196-.187.485-.28.868-.28s.672.093.868.28c.196.187.294.439.294.756s-.098.569-.294.756c-.196.187-.485.28-.868.28Zm14.703-6.16-.112-4.2h1.428l-.098 4.2h-1.218Zm2.968 0-.112-4.2h1.428l-.098 4.2h-1.218Zm7.624 6.16c-.616 0-1.157-.117-1.624-.35a2.613 2.613 0 0 1-1.078-1.008c-.252-.448-.378-.975-.378-1.582v-2.1c0-.616.126-1.143.378-1.582a2.617 2.617 0 0 1 1.078-1.008c.467-.233 1.008-.35 1.624-.35.887 0 1.601.238 2.142.714.551.476.84 1.125.868 1.946h-1.26c-.028-.495-.196-.873-.504-1.134-.308-.27-.723-.406-1.246-.406-.55 0-.994.159-1.33.476-.326.308-.49.751-.49 1.33v2.114c0 .579.164 1.027.49 1.344.336.317.78.476 1.33.476.523 0 .938-.135 1.246-.406.308-.271.476-.649.504-1.134h1.26c-.028.821-.317 1.47-.868 1.946-.541.476-1.255.714-2.142.714Zm8.283-.028c-.616 0-1.153-.121-1.61-.364a2.59 2.59 0 0 1-1.05-1.05c-.243-.467-.364-1.022-.364-1.666v-1.764c0-.653.121-1.209.364-1.666a2.586 2.586 0 0 1 1.05-1.05c.457-.243.994-.364 1.61-.364.625 0 1.162.121 1.61.364a2.5 2.5 0 0 1 1.036 1.05c.252.457.378 1.013.378 1.666v1.764c0 .644-.126 1.199-.378 1.666a2.485 2.485 0 0 1-1.05 1.05c-.448.243-.98.364-1.596.364Zm0-1.12c.551 0 .98-.154 1.288-.462.317-.308.476-.761.476-1.358v-2.044c0-.597-.159-1.05-.476-1.358-.308-.308-.737-.462-1.288-.462-.541 0-.971.154-1.288.462-.317.308-.476.76-.476 1.358v2.044c0 .597.159 1.05.476 1.358.317.308.747.462 1.288.462Zm9.515 1.008c-.448 0-.84-.089-1.176-.266a1.904 1.904 0 0 1-.784-.756c-.187-.327-.28-.709-.28-1.148v-6.902h-2.66V92.78h3.92v8.05c0 .317.088.569.266.756.177.177.415.266.714.266h2.38V103h-2.38Zm7.274.112c-.616 0-1.153-.121-1.61-.364a2.59 2.59 0 0 1-1.05-1.05c-.243-.467-.364-1.022-.364-1.666v-1.764c0-.653.121-1.209.364-1.666a2.586 2.586 0 0 1 1.05-1.05c.457-.243.994-.364 1.61-.364.625 0 1.162.121 1.61.364a2.5 2.5 0 0 1 1.036 1.05c.252.457.378 1.013.378 1.666v1.764c0 .644-.126 1.199-.378 1.666a2.485 2.485 0 0 1-1.05 1.05c-.448.243-.98.364-1.596.364Zm0-1.12c.551 0 .98-.154 1.288-.462.317-.308.476-.761.476-1.358v-2.044c0-.597-.159-1.05-.476-1.358-.308-.308-.737-.462-1.288-.462-.541 0-.971.154-1.288.462-.317.308-.476.76-.476 1.358v2.044c0 .597.159 1.05.476 1.358.317.308.747.462 1.288.462ZM170.67 103v-7.7h1.26v1.47h.266l-.266.336c0-.597.182-1.069.546-1.414.373-.355.886-.532 1.54-.532.802 0 1.418.243 1.848.728.438.476.658 1.157.658 2.044v.658h-1.26v-.658c0-.57-.14-.99-.42-1.26-.28-.28-.686-.42-1.218-.42-.551 0-.971.159-1.26.476-.29.317-.434.775-.434 1.372v4.9h-1.26Zm8.94-6.02-.112-4.2h1.428l-.098 4.2h-1.218Zm2.968 0-.112-4.2h1.428l-.098 4.2h-1.218ZM36.119 128.54v-1.12h.63c.439 0 .784-.103 1.036-.308.261-.196.36-.495.294-.896l-.35-2.296c-.056-.401-.014-.756.126-1.064.15-.317.369-.565.658-.742a1.993 1.993 0 0 1 1.036-.266v.07c-.597 0-1.073-.168-1.428-.504-.355-.336-.485-.807-.392-1.414l.35-2.296c.065-.401-.033-.7-.294-.896-.252-.205-.597-.308-1.036-.308h-.63v-1.12h.63c.55 0 1.031.093 1.442.28.42.177.733.439.938.784.215.345.285.765.21 1.26L38.99 120c-.075.495-.014.854.182 1.078.205.215.611.322 1.218.322h1.75v1.12h-1.75c-.597 0-.999.112-1.204.336-.205.215-.27.569-.196 1.064l.35 2.296c.075.485.005.901-.21 1.246-.205.355-.518.621-.938.798-.41.187-.891.28-1.442.28h-.63Zm-16.789 24v-1.12h.63c.439 0 .784-.103 1.036-.308.261-.196.36-.495.294-.896l-.35-2.296c-.056-.401-.014-.756.126-1.064.15-.317.369-.565.658-.742a1.994 1.994 0 0 1 1.036-.266v.07c-.597 0-1.073-.168-1.428-.504-.355-.336-.485-.807-.392-1.414l.35-2.296c.065-.401-.033-.7-.294-.896-.252-.205-.597-.308-1.036-.308h-.63v-1.12h.63c.55 0 1.031.093 1.442.28.42.177.733.439.938.784.215.345.285.765.21 1.26L22.2 144c-.075.495-.014.854.182 1.078.205.215.611.322 1.218.322h1.75v1.12H23.6c-.597 0-.999.112-1.204.336-.205.215-.27.569-.196 1.064l.35 2.296c.075.485.005.901-.21 1.246-.205.355-.518.621-.938.798-.41.187-.891.28-1.442.28h-.63Z" fill="#333238"/><path d="M308.707 86.707a1 1 0 0 0 0-1.414l-6.364-6.364a1 1 0 1 0-1.414 1.414L306.586 86l-5.657 5.657a1 1 0 1 0 1.414 1.414l6.364-6.364ZM228 85a1 1 0 0 0 0 2v-2Zm80 0h-80v2h80v-2Z" fill="#FC6D26"/><path d="M320.38 91.14c-.616 0-1.157-.117-1.624-.35a2.617 2.617 0 0 1-1.078-1.008c-.252-.448-.378-.975-.378-1.582v-2.1c0-.616.126-1.143.378-1.582a2.617 2.617 0 0 1 1.078-1.008c.467-.233 1.008-.35 1.624-.35.887 0 1.601.238 2.142.714.551.476.84 1.125.868 1.946h-1.26c-.028-.495-.196-.873-.504-1.134-.308-.27-.723-.406-1.246-.406-.55 0-.994.159-1.33.476-.326.308-.49.751-.49 1.33V88.2c0 .579.164 1.027.49 1.344.336.317.78.476 1.33.476.523 0 .938-.135 1.246-.406.308-.27.476-.649.504-1.134h1.26c-.028.821-.317 1.47-.868 1.946-.541.476-1.255.714-2.142.714Zm8.283-.028c-.616 0-1.153-.121-1.61-.364a2.586 2.586 0 0 1-1.05-1.05c-.243-.467-.364-1.022-.364-1.666v-1.764c0-.653.121-1.209.364-1.666a2.586 2.586 0 0 1 1.05-1.05c.457-.243.994-.364 1.61-.364.625 0 1.162.121 1.61.364a2.5 2.5 0 0 1 1.036 1.05c.252.457.378 1.013.378 1.666v1.764c0 .644-.126 1.2-.378 1.666a2.482 2.482 0 0 1-1.05 1.05c-.448.243-.98.364-1.596.364Zm0-1.12c.551 0 .98-.154 1.288-.462.317-.308.476-.76.476-1.358v-2.044c0-.597-.159-1.05-.476-1.358-.308-.308-.737-.462-1.288-.462-.541 0-.971.154-1.288.462-.317.308-.476.76-.476 1.358v2.044c0 .597.159 1.05.476 1.358.317.308.747.462 1.288.462ZM338.177 91c-.448 0-.84-.089-1.176-.266a1.914 1.914 0 0 1-.784-.756c-.186-.327-.28-.71-.28-1.148v-6.902h-2.66V80.78h3.92v8.05c0 .317.089.57.266.756.178.177.416.266.714.266h2.38V91h-2.38Zm7.275.112c-.616 0-1.153-.121-1.61-.364a2.586 2.586 0 0 1-1.05-1.05c-.243-.467-.364-1.022-.364-1.666v-1.764c0-.653.121-1.209.364-1.666a2.586 2.586 0 0 1 1.05-1.05c.457-.243.994-.364 1.61-.364.625 0 1.162.121 1.61.364a2.5 2.5 0 0 1 1.036 1.05c.252.457.378 1.013.378 1.666v1.764c0 .644-.126 1.2-.378 1.666a2.482 2.482 0 0 1-1.05 1.05c-.448.243-.98.364-1.596.364Zm0-1.12c.551 0 .98-.154 1.288-.462.317-.308.476-.76.476-1.358v-2.044c0-.597-.159-1.05-.476-1.358-.308-.308-.737-.462-1.288-.462-.541 0-.971.154-1.288.462-.317.308-.476.76-.476 1.358v2.044c0 .597.159 1.05.476 1.358.317.308.747.462 1.288.462ZM351.214 91v-7.7h1.26v1.47h.266l-.266.336c0-.597.182-1.069.546-1.414.374-.355.887-.532 1.54-.532.803 0 1.419.243 1.848.728.439.476.658 1.157.658 2.044v.658h-1.26v-.658c0-.57-.14-.99-.42-1.26-.28-.28-.686-.42-1.218-.42-.55 0-.97.159-1.26.476-.289.317-.434.775-.434 1.372V91h-1.26Zm11.027.14c-.345 0-.625-.103-.84-.308-.205-.205-.308-.471-.308-.798 0-.345.103-.625.308-.84.215-.215.495-.322.84-.322s.621.107.826.322c.215.215.322.495.322.84 0 .327-.107.593-.322.798-.205.205-.481.308-.826.308Zm5.483 2.38V83.3h1.26v1.47h.252l-.252.294c0-.588.191-1.05.574-1.386.382-.345.891-.518 1.526-.518.513 0 .956.117 1.33.35.382.224.676.55.882.98.214.43.322.938.322 1.526v2.254c0 .588-.103 1.097-.308 1.526-.206.43-.5.76-.882.994-.374.233-.822.35-1.344.35-.626 0-1.134-.173-1.526-.518-.383-.345-.574-.807-.574-1.386l.252.294h-.28l.028 1.75v2.24h-1.26Zm2.94-3.472c.532 0 .947-.14 1.246-.42.298-.28.448-.733.448-1.358v-2.24c0-.635-.15-1.087-.448-1.358-.299-.28-.714-.42-1.246-.42-.514 0-.924.163-1.232.49-.299.327-.448.78-.448 1.358v2.1c0 .579.149 1.031.448 1.358.308.327.718.49 1.232.49Zm8.352 1.092c-.887 0-1.596-.261-2.128-.784-.532-.532-.798-1.25-.798-2.156v-4.9h1.26v4.9c0 .56.149 1.008.448 1.344.299.327.705.49 1.218.49.523 0 .933-.163 1.232-.49.308-.336.462-.784.462-1.344v-4.9h1.26v4.9c0 .905-.271 1.624-.812 2.156-.541.523-1.255.784-2.142.784Zm5.777-.14v-7.7h1.26v1.47h.266l-.266.336c0-.597.182-1.069.546-1.414.373-.355.886-.532 1.54-.532.802 0 1.418.243 1.848.728.438.476.658 1.157.658 2.044v.658h-1.26v-.658c0-.57-.14-.99-.42-1.26-.28-.28-.686-.42-1.218-.42-.551 0-.971.159-1.26.476-.29.317-.434.775-.434 1.372V91h-1.26Zm8.114 2.52V83.3h1.26v1.47h.252l-.252.294c0-.588.191-1.05.574-1.386.383-.345.891-.518 1.526-.518.513 0 .957.117 1.33.35.383.224.677.55.882.98.215.43.322.938.322 1.526v2.254c0 .588-.103 1.097-.308 1.526-.205.43-.499.76-.882.994-.373.233-.821.35-1.344.35-.625 0-1.134-.173-1.526-.518-.383-.345-.574-.807-.574-1.386l.252.294h-.28l.028 1.75v2.24h-1.26Zm2.94-3.472c.532 0 .947-.14 1.246-.42.299-.28.448-.733.448-1.358v-2.24c0-.635-.149-1.087-.448-1.358-.299-.28-.714-.42-1.246-.42-.513 0-.924.163-1.232.49-.299.327-.448.78-.448 1.358v2.1c0 .579.149 1.031.448 1.358.308.327.719.49 1.232.49Zm9.487.952c-.448 0-.84-.089-1.176-.266a1.908 1.908 0 0 1-.784-.756c-.187-.327-.28-.71-.28-1.148v-6.902h-2.66V80.78h3.92v8.05c0 .317.088.57.266.756.177.177.415.266.714.266h2.38V91h-2.38Zm7.274.14c-.606 0-1.138-.121-1.596-.364a2.679 2.679 0 0 1-1.05-1.064c-.252-.467-.378-1.017-.378-1.652v-1.82c0-.644.126-1.195.378-1.652a2.586 2.586 0 0 1 1.05-1.05c.458-.252.99-.378 1.596-.378.607 0 1.134.121 1.582.364.458.243.812.583 1.064 1.022.252.439.378.957.378 1.554v1.372h-4.816v.728c0 .57.164 1.022.49 1.358.327.327.761.49 1.302.49.467 0 .85-.089 1.148-.266.308-.187.495-.434.56-.742h1.26c-.084.644-.396 1.157-.938 1.54-.541.373-1.218.56-2.03.56Zm1.792-4.522V86.1c0-.607-.158-1.073-.476-1.4-.308-.336-.746-.504-1.316-.504-.569 0-1.012.168-1.33.504-.308.327-.462.793-.462 1.4v.392h3.682l-.098.126Zm6.603 4.522c-.346 0-.626-.103-.84-.308-.206-.205-.308-.471-.308-.798 0-.345.102-.625.308-.84.214-.215.494-.322.84-.322.345 0 .62.107.826.322.214.215.322.495.322.84 0 .327-.108.593-.322.798-.206.205-.481.308-.826.308Zm5.454-.14v-1.148h2.772v-7.98l-2.772 2.072v-1.442l2.31-1.722h1.722v9.072h2.268V91h-6.3Zm11.335.14c-.626 0-1.172-.121-1.638-.364a2.674 2.674 0 0 1-1.064-1.05c-.252-.457-.378-.99-.378-1.596v-4.48c0-.616.126-1.148.378-1.596a2.582 2.582 0 0 1 1.064-1.036c.466-.252 1.012-.378 1.638-.378.634 0 1.18.126 1.638.378a2.59 2.59 0 0 1 1.064 1.036c.252.448.378.98.378 1.596v4.48c0 .607-.126 1.139-.378 1.596a2.66 2.66 0 0 1-1.078 1.05c-.458.243-.999.364-1.624.364Zm0-1.078c.56 0 1.008-.177 1.344-.532.345-.364.518-.83.518-1.4v-4.48c0-.57-.173-1.031-.518-1.386-.336-.364-.784-.546-1.344-.546s-1.013.182-1.358.546c-.336.355-.504.817-.504 1.386v4.48c0 .57.168 1.036.504 1.4.345.355.798.532 1.358.532Zm0-3.402c-.252 0-.458-.07-.616-.21-.15-.14-.224-.34-.224-.602 0-.252.074-.443.224-.574.158-.14.364-.21.616-.21s.452.07.602.21c.158.13.238.322.238.574 0 .261-.08.462-.238.602-.15.14-.35.21-.602.21Zm8.394 4.48c-.625 0-1.171-.121-1.638-.364a2.68 2.68 0 0 1-1.064-1.05c-.252-.457-.378-.99-.378-1.596v-4.48c0-.616.126-1.148.378-1.596a2.588 2.588 0 0 1 1.064-1.036c.467-.252 1.013-.378 1.638-.378.635 0 1.181.126 1.638.378.458.243.812.588 1.064 1.036.252.448.378.98.378 1.596v4.48c0 .607-.126 1.139-.378 1.596a2.653 2.653 0 0 1-1.078 1.05c-.457.243-.998.364-1.624.364Zm0-1.078c.56 0 1.008-.177 1.344-.532.346-.364.518-.83.518-1.4v-4.48c0-.57-.172-1.031-.518-1.386-.336-.364-.784-.546-1.344-.546s-1.012.182-1.358.546c-.336.355-.504.817-.504 1.386v4.48c0 .57.168 1.036.504 1.4.346.355.798.532 1.358.532Zm0-3.402c-.252 0-.457-.07-.616-.21-.149-.14-.224-.34-.224-.602 0-.252.075-.443.224-.574.159-.14.364-.21.616-.21s.453.07.602.21c.159.13.238.322.238.574 0 .261-.079.462-.238.602-.149.14-.35.21-.602.21Zm8.395-1.428c-.383 0-.672-.093-.868-.28-.196-.187-.294-.439-.294-.756s.098-.57.294-.756c.196-.187.485-.28.868-.28s.672.093.868.28c.196.187.294.439.294.756s-.098.57-.294.756c-.196.187-.485.28-.868.28Zm0 5.908c-.383 0-.672-.093-.868-.28-.196-.187-.294-.439-.294-.756s.098-.57.294-.756c.196-.187.485-.28.868-.28s.672.093.868.28c.196.187.294.439.294.756s-.098.57-.294.756c-.196.187-.485.28-.868.28Zm13.751-.14.546-2.94h-1.218v-.91h1.372l.476-2.52h-1.358v-.91h1.512l.546-2.94h.98l-.546 2.94h2.24l.546-2.94h.98l-.546 2.94h1.218v.91h-1.372l-.476 2.52h1.358v.91h-1.512l-.546 2.94h-.98l.546-2.94h-2.24l-.546 2.94h-.98Zm1.68-3.85h2.24l.476-2.52h-2.24l-.476 2.52Zm9.752 3.99c-.606 0-1.138-.121-1.596-.364a2.679 2.679 0 0 1-1.05-1.064c-.252-.467-.378-1.017-.378-1.652v-1.82c0-.644.126-1.195.378-1.652a2.586 2.586 0 0 1 1.05-1.05c.458-.252.99-.378 1.596-.378.607 0 1.134.121 1.582.364.458.243.812.583 1.064 1.022.252.439.378.957.378 1.554v1.372h-4.816v.728c0 .57.164 1.022.49 1.358.327.327.761.49 1.302.49.467 0 .85-.089 1.148-.266.308-.187.495-.434.56-.742h1.26c-.084.644-.396 1.157-.938 1.54-.541.373-1.218.56-2.03.56Zm1.792-4.522V86.1c0-.607-.158-1.073-.476-1.4-.308-.336-.746-.504-1.316-.504-.569 0-1.012.168-1.33.504-.308.327-.462.793-.462 1.4v.392h3.682l-.098.126ZM485.219 91v-1.148h2.772v-7.98l-2.772 2.072v-1.442l2.31-1.722h1.722v9.072h2.268V91h-6.3Zm10.887.14c-.766 0-1.382-.257-1.848-.77-.458-.513-.686-1.209-.686-2.086V86.03c0-.887.228-1.587.686-2.1.457-.513 1.073-.77 1.848-.77.634 0 1.148.173 1.54.518.392.345.588.807.588 1.386l-.28-.294h.28l-.028-1.75v-2.24h1.26V91h-1.26v-1.47h-.252l.252-.294c0 .588-.192 1.055-.574 1.4-.383.336-.892.504-1.526.504Zm.42-1.092c.522 0 .933-.163 1.232-.49.298-.327.448-.78.448-1.358v-2.1c0-.579-.15-1.031-.448-1.358-.299-.327-.71-.49-1.232-.49-.532 0-.948.14-1.246.42-.299.27-.448.723-.448 1.358v2.24c0 .625.149 1.078.448 1.358.298.28.714.42 1.246.42Zm8.422 1.092c-.644 0-1.213-.126-1.708-.378a2.877 2.877 0 0 1-1.162-1.05c-.271-.457-.406-.98-.406-1.568 0-.43.084-.821.252-1.176.168-.355.401-.649.7-.882a2.29 2.29 0 0 1 1.078-.462v-.042a2.163 2.163 0 0 1-1.274-.798 2.33 2.33 0 0 1-.476-1.442c0-.532.126-.999.378-1.4a2.53 2.53 0 0 1 1.05-.952c.457-.233.98-.35 1.568-.35.597 0 1.12.117 1.568.35a2.53 2.53 0 0 1 1.05.952c.252.401.378.868.378 1.4a2.33 2.33 0 0 1-.476 1.442c-.317.41-.742.677-1.274.798v.042c.411.065.765.22 1.064.462.308.233.546.527.714.882.168.355.252.747.252 1.176 0 .588-.14 1.11-.42 1.568a2.782 2.782 0 0 1-1.148 1.05c-.485.252-1.055.378-1.708.378Zm0-1.134c.597 0 1.083-.173 1.456-.518.373-.355.56-.812.56-1.372 0-.57-.187-1.027-.56-1.372-.373-.355-.859-.532-1.456-.532s-1.083.177-1.456.532c-.373.345-.56.803-.56 1.372 0 .56.187 1.017.56 1.372.373.345.859.518 1.456.518Zm0-4.914c.523 0 .943-.154 1.26-.462.317-.308.476-.71.476-1.204 0-.495-.159-.896-.476-1.204-.317-.308-.737-.462-1.26-.462-.513 0-.933.154-1.26.462-.317.308-.476.71-.476 1.204 0 .495.159.896.476 1.204.327.308.747.462 1.26.462ZM512.153 91v-5.502h-2.24V84.35h2.24v-1.61c0-.607.191-1.083.574-1.428.382-.355.91-.532 1.582-.532h2.254v1.148h-2.254c-.29 0-.514.07-.672.21-.15.13-.224.331-.224.602v1.61h3.15v1.148h-3.15V91h-1.26Zm8.114 0 2.52-4.382-.042-.028a.858.858 0 0 1-.308.252 1.919 1.919 0 0 1-.462.182 2.787 2.787 0 0 1-.574.056c-.588 0-1.106-.13-1.554-.392a2.88 2.88 0 0 1-1.036-1.106c-.252-.467-.378-1.008-.378-1.624 0-.663.14-1.241.42-1.736a3.02 3.02 0 0 1 1.162-1.162c.495-.28 1.064-.42 1.708-.42.663 0 1.241.14 1.736.42.495.27.882.653 1.162 1.148.28.485.42 1.05.42 1.694 0 .448-.084.91-.252 1.386a9.751 9.751 0 0 1-.686 1.47L521.737 91h-1.47Zm1.47-4.9c.607 0 1.097-.2 1.47-.602.383-.401.574-.924.574-1.568 0-.43-.089-.807-.266-1.134a1.802 1.802 0 0 0-.714-.756c-.299-.187-.653-.28-1.064-.28a2.01 2.01 0 0 0-1.064.28c-.308.177-.551.43-.728.756a2.446 2.446 0 0 0-.252 1.134c0 .43.084.807.252 1.134.177.327.42.583.728.77.308.177.663.266 1.064.266Z" fill="#333238"/><rect x="367" y="124" width="36" height="24" rx="12" fill="#7B58CF"/><path d="M376.916 137.645v-1.307h.193l2.801-2.889h1.307l-3.029 3.112h-.118l-1.154 1.084Zm-.99 2.355v-8.73h1.054V140h-1.054Zm4.142 0-2.507-3.205.75-.744 3.111 3.949h-1.354Zm4.928.141c-1.898 0-3.07-1.348-3.07-3.364 0-2.009 1.16-3.41 2.947-3.41 1.389 0 2.854.856 2.854 3.276v.439h-5.086v-.891h4.517l-.492.329c0-1.29-.609-2.215-1.793-2.215s-1.881.978-1.881 2.045v.591c0 1.459.809 2.262 2.01 2.262.773 0 1.353-.34 1.6-1.008l1.019.282c-.305.99-1.283 1.664-2.625 1.664Zm3.902 2.232.27-.914.111.029c.645.17 1.108.03 1.43-.908l.187-.545-2.501-6.586h1.154l1.394 3.885c.293.814.469 1.617.698 2.367h-.387c.223-.75.404-1.558.697-2.367l1.406-3.885h1.149l-2.877 7.53c-.399 1.042-1.031 1.517-1.957 1.517-.375 0-.662-.07-.774-.123Z" fill="#fff"/><rect x="473" y="124" width="47" height="24" rx="12" fill="#7B58CF"/><path d="m483.818 140-2.502-6.551h1.155l1.394 3.885c.293.809.475 1.617.703 2.367h-.386c.228-.75.404-1.558.697-2.367l1.394-3.885h1.155L484.926 140h-1.108Zm6.633.152c-1.242 0-2.232-.726-2.232-2.015 0-1.5 1.336-1.776 2.549-1.928 1.166-.147 1.681-.111 1.681-.598v-.035c0-.814-.463-1.283-1.371-1.283-.943 0-1.453.504-1.658.961l-1.014-.334c.504-1.19 1.629-1.553 2.643-1.553.879 0 2.455.27 2.455 2.315V140h-1.037v-.891h-.071c-.222.463-.837 1.043-1.945 1.043Zm.182-.931c1.166 0 1.816-.785 1.816-1.588v-.908c-.176.205-1.324.322-1.728.375-.768.099-1.442.345-1.442 1.089 0 .68.569 1.032 1.354 1.032Zm6.193.826c-.984 0-1.471-.551-1.471-1.5v-7.277h1.055v7.013c0 .604.106.821.545.821.229 0 .322-.018.422-.047l.211.89c-.188.053-.481.1-.762.1Zm4.055.035c-1.324 0-2.221-.814-2.221-2.473v-4.16h1.055v4.072c0 1.008.568 1.612 1.482 1.612.938 0 1.647-.639 1.647-1.758v-3.926h1.06V140h-1.019v-1.588h.14c-.404 1.231-1.183 1.67-2.144 1.67Zm7.635.059c-1.899 0-3.071-1.348-3.071-3.364 0-2.009 1.16-3.41 2.948-3.41 1.388 0 2.853.856 2.853 3.276v.439h-5.086v-.891h4.518l-.492.329c0-1.29-.61-2.215-1.793-2.215-1.184 0-1.881.978-1.881 2.045v.591c0 1.459.808 2.262 2.009 2.262.774 0 1.354-.34 1.6-1.008l1.02.282c-.305.99-1.284 1.664-2.625 1.664Z" fill="#fff"/><path stroke="#7B58CF" stroke-width="2" stroke-linecap="round" d="M318 115h132m-132 0v-14m132 14v-14m18 14h57m-57 0v-14m57 14v-14"/><rect x="96" y="184" width="40" height="24" rx="12" fill="#7B58CF"/><path d="M104.92 193.449h1.06v7.02c.006 1.248-.65 1.98-1.921 1.98h-.211v-.972h.193c.609 0 .879-.358.879-1.008v-7.02Zm.533-1.072c-.398 0-.732-.311-.732-.697 0-.387.334-.698.732-.698.404 0 .738.311.738.698 0 .386-.334.697-.738.697Zm4.606 7.764c-1.348 0-2.286-.598-2.52-1.729l1.002-.24c.188.721.721 1.043 1.506 1.043.914 0 1.5-.451 1.5-.99 0-.452-.317-.75-.961-.903l-1.09-.258c-1.189-.281-1.758-.867-1.758-1.787 0-1.125 1.032-1.91 2.426-1.91 1.348 0 2.057.656 2.356 1.576l-.956.246c-.181-.468-.55-.925-1.394-.925-.779 0-1.365.404-1.365.949 0 .486.334.756 1.101.937l.99.235c1.19.281 1.747.873 1.747 1.769 0 1.149-1.049 1.987-2.584 1.987Zm6.779 0c-1.781 0-2.983-1.354-2.983-3.375 0-2.051 1.202-3.399 2.983-3.399 1.787 0 2.994 1.348 2.994 3.399 0 2.021-1.207 3.375-2.994 3.375Zm0-.944c1.324 0 1.928-1.142 1.928-2.431 0-1.301-.604-2.455-1.928-2.455-1.307 0-1.91 1.148-1.91 2.455 0 1.289.603 2.431 1.91 2.431Zm5.584-3.123V200h-1.055v-6.551h1.014l.006 1.588h-.147c.399-1.207 1.16-1.67 2.151-1.67 1.324 0 2.22.815 2.22 2.473V200h-1.06v-4.072c0-1.008-.563-1.612-1.477-1.612-.943 0-1.652.639-1.652 1.758Z" fill="#fff"/><path stroke="#7B58CF" stroke-width="2" stroke-linecap="round" d="M17 175h198m-198 0v-14m198 14v-14"/></svg>