<svg width="174" height="112" viewBox="0 0 174 112" fill="none" xmlns="http://www.w3.org/2000/svg"><rect width="174" height="112" rx="4" fill="#FBFAFD"/><rect x="16" y="16" width="142" height="28" rx="4" fill="#ECECEF"/><path d="M25.231 35v-1.148h2.73v-5.404h-2.45V27.3h3.71v6.552h2.59V35h-6.58Zm3.22-9.086c-.308 0-.55-.08-.728-.238-.177-.159-.266-.373-.266-.644 0-.28.089-.5.266-.658.177-.168.42-.252.728-.252s.55.084.728.252c.177.159.266.378.266.658 0 .27-.089.485-.266.644-.177.159-.42.238-.728.238Zm8.297 9.226c-.616 0-1.158-.117-1.624-.35a2.611 2.611 0 0 1-1.079-1.008c-.252-.448-.378-.975-.378-1.582v-2.1c0-.616.127-1.143.378-1.582a2.613 2.613 0 0 1 1.078-1.008c.467-.233 1.009-.35 1.625-.35.886 0 1.6.238 2.142.714.55.476.84 1.125.867 1.946h-1.26c-.028-.495-.196-.873-.504-1.134-.308-.27-.723-.406-1.245-.406-.551 0-.994.159-1.33.476-.327.308-.49.751-.49 1.33V32.2c0 .579.163 1.027.49 1.344.336.317.779.476 1.33.476.522 0 .938-.135 1.245-.406.308-.27.476-.649.505-1.134h1.26c-.029.821-.318 1.47-.869 1.946-.54.476-1.255.714-2.142.714Zm8.282-.028c-.616 0-1.153-.121-1.61-.364a2.586 2.586 0 0 1-1.05-1.05c-.243-.467-.364-1.022-.364-1.666v-1.764c0-.653.121-1.209.364-1.666a2.586 2.586 0 0 1 1.05-1.05c.457-.243.994-.364 1.61-.364.625 0 1.162.121 1.61.364.448.243.793.593 1.036 1.05.252.457.378 1.013.378 1.666v1.764c0 .644-.126 1.2-.378 1.666a2.479 2.479 0 0 1-1.05 1.05c-.448.243-.98.364-1.596.364Zm0-1.12c.55 0 .98-.154 1.288-.462.317-.308.476-.76.476-1.358v-2.044c0-.597-.159-1.05-.476-1.358-.308-.308-.737-.462-1.288-.462-.541 0-.97.154-1.288.462-.317.308-.476.76-.476 1.358v2.044c0 .597.159 1.05.476 1.358.317.308.747.462 1.288.462ZM50.513 35v-7.7h1.26v1.47h.266l-.266.294c0-.607.182-1.073.546-1.4.364-.336.868-.504 1.512-.504.774 0 1.39.238 1.848.714.457.476.686 1.125.686 1.946V35h-1.26v-4.956c0-.588-.15-1.036-.448-1.344-.29-.317-.686-.476-1.19-.476-.523 0-.938.163-1.246.49-.3.327-.448.789-.448 1.386V35h-1.26Zm11.306.14c-.345 0-.625-.103-.84-.308-.205-.205-.308-.471-.308-.798 0-.345.103-.625.308-.84.215-.215.495-.322.84-.322s.62.107.826.322c.215.215.322.495.322.84 0 .327-.107.593-.322.798-.205.205-.48.308-.826.308Zm8.507 0c-.616 0-1.158-.117-1.624-.35a2.61 2.61 0 0 1-1.078-1.008c-.252-.448-.378-.975-.378-1.582v-2.1c0-.616.126-1.143.378-1.582a2.61 2.61 0 0 1 1.078-1.008c.466-.233 1.008-.35 1.624-.35.886 0 1.6.238 2.142.714.55.476.84 1.125.868 1.946h-1.26c-.028-.495-.196-.873-.504-1.134-.308-.27-.724-.406-1.246-.406-.551 0-.994.159-1.33.476-.327.308-.49.751-.49 1.33V32.2c0 .579.163 1.027.49 1.344.336.317.779.476 1.33.476.522 0 .938-.135 1.246-.406.308-.27.476-.649.504-1.134h1.26c-.028.821-.318 1.47-.868 1.946-.542.476-1.256.714-2.142.714Zm8.282-.028c-.616 0-1.153-.121-1.61-.364a2.586 2.586 0 0 1-1.05-1.05c-.242-.467-.364-1.022-.364-1.666v-1.764c0-.653.121-1.209.364-1.666a2.586 2.586 0 0 1 1.05-1.05c.457-.243.994-.364 1.61-.364.626 0 1.162.121 1.61.364.448.243.793.593 1.036 1.05.252.457.378 1.013.378 1.666v1.764c0 .644-.126 1.2-.378 1.666a2.479 2.479 0 0 1-1.05 1.05c-.448.243-.98.364-1.596.364Zm0-1.12c.55 0 .98-.154 1.288-.462.317-.308.476-.76.476-1.358v-2.044c0-.597-.159-1.05-.476-1.358-.308-.308-.737-.462-1.288-.462-.541 0-.97.154-1.288.462-.317.308-.476.76-.476 1.358v2.044c0 .597.159 1.05.476 1.358.318.308.747.462 1.288.462ZM88.123 35c-.448 0-.84-.089-1.176-.266a1.912 1.912 0 0 1-.784-.756c-.187-.327-.28-.71-.28-1.148v-6.902h-2.66V24.78h3.92v8.05c0 .317.088.57.266.756.177.177.415.266.714.266h2.38V35h-2.38Zm7.274.112c-.616 0-1.152-.121-1.61-.364a2.586 2.586 0 0 1-1.05-1.05c-.242-.467-.364-1.022-.364-1.666v-1.764c0-.653.122-1.209.364-1.666a2.586 2.586 0 0 1 1.05-1.05c.458-.243.994-.364 1.61-.364.626 0 1.162.121 1.61.364.448.243.794.593 1.036 1.05.252.457.378 1.013.378 1.666v1.764c0 .644-.126 1.2-.378 1.666a2.479 2.479 0 0 1-1.05 1.05c-.448.243-.98.364-1.596.364Zm0-1.12c.55 0 .98-.154 1.288-.462.318-.308.476-.76.476-1.358v-2.044c0-.597-.158-1.05-.476-1.358-.308-.308-.737-.462-1.288-.462-.541 0-.97.154-1.288.462-.317.308-.476.76-.476 1.358v2.044c0 .597.159 1.05.476 1.358.318.308.747.462 1.288.462ZM101.16 35v-7.7h1.26v1.47h.266l-.266.336c0-.597.182-1.069.546-1.414.373-.355.886-.532 1.54-.532.802 0 1.418.243 1.848.728.438.476.658 1.157.658 2.044v.658h-1.26v-.658c0-.57-.14-.99-.42-1.26-.28-.28-.686-.42-1.218-.42-.551 0-.971.159-1.26.476-.29.317-.434.775-.434 1.372V35h-1.26Zm11.026.14c-.345 0-.625-.103-.84-.308-.205-.205-.308-.471-.308-.798 0-.345.103-.625.308-.84.215-.215.495-.322.84-.322.346 0 .621.107.826.322.215.215.322.495.322.84 0 .327-.107.593-.322.798-.205.205-.48.308-.826.308Zm9.515-.14c-.448 0-.84-.089-1.176-.266a1.914 1.914 0 0 1-.784-.756c-.187-.327-.28-.71-.28-1.148v-6.902h-2.66V24.78h3.92v8.05c0 .317.089.57.266.756.177.177.415.266.714.266h2.38V35h-2.38Zm4.264 0v-1.148h2.73v-5.404h-2.45V27.3h3.71v6.552h2.59V35h-6.58Zm3.22-9.086c-.308 0-.55-.08-.728-.238-.177-.159-.266-.373-.266-.644 0-.28.089-.5.266-.658.178-.168.42-.252.728-.252s.551.084.728.252c.178.159.266.378.266.658 0 .27-.088.485-.266.644-.177.159-.42.238-.728.238ZM134.458 35v-7.7h1.26v1.47h.266l-.266.294c0-.607.182-1.073.546-1.4.364-.336.868-.504 1.512-.504.775 0 1.391.238 1.848.714.457.476.686 1.125.686 1.946V35h-1.26v-4.956c0-.588-.149-1.036-.448-1.344-.289-.317-.686-.476-1.19-.476-.523 0-.938.163-1.246.49-.299.327-.448.789-.448 1.386V35h-1.26Zm8.464 0V24.78h1.26v5.698h1.47l2.156-3.178h1.442l-2.478 3.668L149.39 35h-1.47l-2.24-3.43h-1.498V35h-1.26Z" fill="#333238"/><path stroke="#7B58CF" stroke-width="2" stroke-linecap="round" d="M118 63h33m-33 0V49m33 14V49"/><rect x="112" y="72" width="45" height="24" rx="4" fill="#F5D6B3"/><path d="M124.369 88c-.544 0-.98-.156-1.308-.468-.328-.32-.492-.744-.492-1.272v-3.876h-1.896V81.4h1.896v-1.86h1.08v1.86h2.7v.984h-2.7v3.876a.8.8 0 0 0 .192.552.714.714 0 0 0 .528.204h1.92V88h-1.92Zm5.072 2.16.972-2.568-2.46-6.192h1.164l1.56 4.08c.064.16.124.328.18.504.056.176.096.328.12.456a3.93 3.93 0 0 1 .12-.456c.056-.176.112-.344.168-.504l1.452-4.08h1.14l-3.288 8.76h-1.128Zm6.163 0V81.4h1.08v1.26h.216l-.216.252c0-.504.164-.9.492-1.188.328-.296.764-.444 1.308-.444.44 0 .82.1 1.14.3.328.192.58.472.756.84.184.368.276.804.276 1.308v1.932c0 .504-.088.94-.264 1.308a1.962 1.962 0 0 1-.756.852c-.32.2-.704.3-1.152.3-.536 0-.972-.148-1.308-.444-.328-.296-.492-.692-.492-1.188l.216.252h-.24l.024 1.5v1.92h-1.08Zm2.52-2.976c.456 0 .812-.12 1.068-.36s.384-.628.384-1.164v-1.92c0-.544-.128-.932-.384-1.164-.256-.24-.612-.36-1.068-.36-.44 0-.792.14-1.056.42-.256.28-.384.668-.384 1.164v1.8c0 .496.128.884.384 1.164.264.28.616.42 1.056.42Zm7.171.936c-.52 0-.976-.104-1.368-.312a2.296 2.296 0 0 1-.9-.912c-.216-.4-.324-.872-.324-1.416v-1.56c0-.552.108-1.024.324-1.416.216-.392.516-.692.9-.9.392-.216.848-.324 1.368-.324.52 0 .972.104 1.356.312.392.208.696.5.912.876.216.376.324.82.324 1.332v1.176h-4.128v.624c0 .488.14.876.42 1.164.28.28.652.42 1.116.42.4 0 .728-.076.984-.228.264-.16.424-.372.48-.636h1.08c-.072.552-.34.992-.804 1.32-.464.32-1.044.48-1.74.48Zm1.536-3.876V83.8c0-.52-.136-.92-.408-1.2-.264-.288-.64-.432-1.128-.432-.488 0-.868.144-1.14.432-.264.28-.396.68-.396 1.2v.336h3.156l-.084.108Z" fill="#333238"/></svg>