<svg width="447" height="116" viewBox="0 0 447 116" fill="none" xmlns="http://www.w3.org/2000/svg"><rect width="447" height="116" rx="4" fill="#FBFAFD"/><rect x="73" y="76" width="137" height="24" rx="12" fill="#7B58CF"/><path d="M84.152 92.14c-1.347 0-2.285-.597-2.52-1.728l1.003-.24c.187.72.72 1.043 1.506 1.043.914 0 1.5-.451 1.5-.99 0-.452-.317-.75-.961-.903l-1.09-.258c-1.19-.28-1.758-.867-1.758-1.787 0-1.125 1.031-1.91 2.426-1.91 1.348 0 2.056.656 2.355 1.576l-.955.246c-.181-.468-.55-.925-1.394-.925-.78 0-1.366.404-1.366.949 0 .486.334.756 1.102.937l.99.235c1.19.281 1.746.873 1.746 1.77 0 1.148-1.049 1.986-2.584 1.986Zm6.867 0c-1.898 0-3.07-1.347-3.07-3.363 0-2.01 1.16-3.41 2.948-3.41 1.388 0 2.853.856 2.853 3.276v.439h-5.086v-.89h4.518l-.493.328c0-1.29-.609-2.215-1.792-2.215-1.184 0-1.881.978-1.881 2.045v.591c0 1.46.808 2.262 2.01 2.262.773 0 1.353-.34 1.599-1.008l1.02.282c-.305.99-1.284 1.664-2.626 1.664Zm4.243-.14v-6.55h1.025l.006 1.464h-.082c.264-1.06 1.066-1.582 1.916-1.582.95 0 1.553.645 1.729 1.594h-.141c.234-.979 1.101-1.594 2.144-1.594 1.137 0 2.063.733 2.063 2.25V92h-1.061v-4.389c0-.943-.615-1.318-1.318-1.318-.885 0-1.424.603-1.424 1.43V92h-1.055v-4.494c0-.727-.544-1.213-1.283-1.213-.767 0-1.465.539-1.465 1.582V92h-1.054Zm12.345.152c-1.242 0-2.232-.726-2.232-2.015 0-1.5 1.336-1.776 2.549-1.928 1.166-.147 1.681-.111 1.681-.598v-.035c0-.814-.462-1.283-1.371-1.283-.943 0-1.453.504-1.658.96l-1.014-.333c.504-1.19 1.629-1.553 2.643-1.553.879 0 2.455.27 2.455 2.315V92h-1.037v-.89h-.07c-.223.462-.838 1.042-1.946 1.042Zm.182-.931c1.166 0 1.816-.785 1.816-1.588v-.908c-.175.205-1.324.322-1.728.375-.768.1-1.441.345-1.441 1.09 0 .68.568 1.03 1.353 1.03Zm5.777-3.147V92h-1.054v-6.55h1.013l.006 1.587h-.146c.398-1.207 1.16-1.67 2.15-1.67 1.324 0 2.221.815 2.221 2.473V92h-1.061v-4.072c0-1.008-.562-1.612-1.476-1.612-.944 0-1.653.64-1.653 1.758Zm8.625-2.625v.903h-3.386v-.903h3.386Zm-2.402-1.558h1.055v6.41c0 .586.217.843.773.843.135 0 .363-.035.539-.07l.217.89a2.54 2.54 0 0 1-.785.118c-1.131 0-1.799-.627-1.799-1.7v-6.491Zm3.75 8.109v-6.55h1.055V92h-1.055Zm.533-7.623c-.398 0-.732-.31-.732-.697 0-.387.334-.698.732-.698.405 0 .739.311.739.698 0 .386-.334.697-.739.697Zm5.039 7.764c-1.781 0-2.982-1.354-2.982-3.375 0-2.051 1.201-3.399 2.982-3.399 1.266 0 2.297.668 2.655 1.81l-1.014.288c-.193-.674-.779-1.154-1.641-1.154-1.306 0-1.91 1.148-1.91 2.455 0 1.289.604 2.431 1.91 2.431.879 0 1.477-.498 1.67-1.207l1.008.287c-.351 1.166-1.394 1.864-2.678 1.864Zm10.143-6.692v.903h-3.387v-.903h3.387Zm-2.402-1.558h1.054v6.41c0 .586.217.843.774.843.134 0 .363-.035.539-.07l.217.89a2.543 2.543 0 0 1-.786.118c-1.13 0-1.798-.627-1.798-1.7v-6.491Zm6.298 8.25c-1.781 0-2.982-1.354-2.982-3.375 0-2.051 1.201-3.399 2.982-3.399 1.788 0 2.995 1.348 2.995 3.399 0 2.021-1.207 3.375-2.995 3.375Zm0-.944c1.325 0 1.928-1.142 1.928-2.431 0-1.301-.603-2.456-1.928-2.456-1.306 0-1.91 1.149-1.91 2.456 0 1.289.604 2.431 1.91 2.431Zm5.52-1.553v-1.306h.193l2.801-2.889h1.307l-3.03 3.112h-.117l-1.154 1.083ZM147.68 92v-8.73h1.054V92h-1.054Zm4.142 0-2.508-3.205.75-.744L153.176 92h-1.354Zm4.928.14c-1.898 0-3.07-1.347-3.07-3.363 0-2.01 1.16-3.41 2.947-3.41 1.389 0 2.853.856 2.853 3.276v.439h-5.085v-.89h4.517l-.492.328c0-1.29-.609-2.215-1.793-2.215s-1.881.978-1.881 2.045v.591c0 1.46.809 2.262 2.01 2.262.773 0 1.353-.34 1.599-1.008l1.02.282c-.305.99-1.283 1.664-2.625 1.664Zm5.297-4.066V92h-1.055v-6.55h1.014l.006 1.587h-.147c.399-1.207 1.16-1.67 2.151-1.67 1.324 0 2.22.815 2.22 2.473V92h-1.06v-4.072c0-1.008-.563-1.612-1.477-1.612-.943 0-1.652.64-1.652 1.758Zm10.476 0V92h-1.054v-6.55h1.013l.006 1.587h-.146c.398-1.207 1.16-1.67 2.15-1.67 1.324 0 2.221.815 2.221 2.473V92h-1.061v-4.072c0-1.008-.562-1.612-1.476-1.612-.944 0-1.653.64-1.653 1.758Zm7.881 4.078c-1.242 0-2.232-.726-2.232-2.015 0-1.5 1.336-1.776 2.549-1.928 1.166-.147 1.681-.111 1.681-.598v-.035c0-.814-.463-1.283-1.371-1.283-.943 0-1.453.504-1.658.96l-1.014-.333c.504-1.19 1.629-1.553 2.643-1.553.879 0 2.455.27 2.455 2.315V92h-1.037v-.89h-.07c-.223.462-.838 1.042-1.946 1.042Zm.182-.931c1.166 0 1.816-.785 1.816-1.588v-.908c-.175.205-1.324.322-1.728.375-.768.1-1.442.345-1.442 1.09 0 .68.569 1.03 1.354 1.03Zm4.723.779v-6.55h1.025l.006 1.464h-.082c.263-1.06 1.066-1.582 1.916-1.582.949 0 1.553.645 1.728 1.594h-.14c.234-.979 1.101-1.594 2.144-1.594 1.137 0 2.063.733 2.063 2.25V92h-1.061v-4.389c0-.943-.615-1.318-1.318-1.318-.885 0-1.424.603-1.424 1.43V92h-1.055v-4.494c0-.727-.545-1.213-1.283-1.213-.767 0-1.465.539-1.465 1.582V92h-1.054Zm13.265.14c-1.898 0-3.07-1.347-3.07-3.363 0-2.01 1.16-3.41 2.947-3.41 1.389 0 2.854.856 2.854 3.276v.439h-5.086v-.89h4.517l-.492.328c0-1.29-.609-2.215-1.793-2.215-1.183 0-1.881.978-1.881 2.045v.591c0 1.46.809 2.262 2.01 2.262.774 0 1.354-.34 1.6-1.008l1.019.282c-.304.99-1.283 1.664-2.625 1.664Z" fill="#fff"/><rect x="272" y="76" width="159" height="24" rx="12" fill="#7B58CF"/><path d="M283.592 92.14c-1.781 0-2.983-1.353-2.983-3.374 0-2.051 1.202-3.399 2.983-3.399 1.265 0 2.297.668 2.654 1.81l-1.014.288c-.193-.674-.779-1.154-1.64-1.154-1.307 0-1.91 1.148-1.91 2.455 0 1.289.603 2.431 1.91 2.431.879 0 1.476-.498 1.67-1.207l1.008.287c-.352 1.166-1.395 1.864-2.678 1.864Zm6.855 0c-1.781 0-2.982-1.353-2.982-3.374 0-2.051 1.201-3.399 2.982-3.399 1.787 0 2.994 1.348 2.994 3.399 0 2.021-1.207 3.375-2.994 3.375Zm0-.943c1.324 0 1.928-1.142 1.928-2.431 0-1.301-.604-2.456-1.928-2.456-1.306 0-1.91 1.149-1.91 2.456 0 1.289.604 2.431 1.91 2.431Zm5.584-3.123V92h-1.054v-6.55h1.013l.006 1.587h-.146c.398-1.207 1.16-1.67 2.15-1.67 1.324 0 2.221.815 2.221 2.473V92h-1.061v-4.072c0-1.008-.562-1.612-1.476-1.612-.944 0-1.653.64-1.653 1.758Zm8.274 4.067c-1.348 0-2.285-.598-2.52-1.729l1.002-.24c.188.72.721 1.043 1.506 1.043.914 0 1.5-.451 1.5-.99 0-.452-.316-.75-.961-.903l-1.09-.258c-1.189-.28-1.758-.867-1.758-1.787 0-1.125 1.032-1.91 2.426-1.91 1.348 0 2.057.656 2.356 1.576l-.955.246c-.182-.468-.551-.925-1.395-.925-.779 0-1.365.404-1.365.949 0 .486.334.756 1.101.937l.991.235c1.189.281 1.746.873 1.746 1.77 0 1.148-1.049 1.986-2.584 1.986Zm6.691-6.692v.903h-3.387v-.903h3.387Zm-2.402-1.558h1.054v6.41c0 .586.217.843.774.843.135 0 .363-.035.539-.07l.217.89a2.54 2.54 0 0 1-.785.118c-1.131 0-1.799-.627-1.799-1.7v-6.491Zm5.642 8.261c-1.242 0-2.232-.726-2.232-2.015 0-1.5 1.336-1.776 2.549-1.928 1.166-.147 1.681-.111 1.681-.598v-.035c0-.814-.463-1.283-1.371-1.283-.943 0-1.453.504-1.658.96l-1.014-.333c.504-1.19 1.629-1.553 2.643-1.553.879 0 2.455.27 2.455 2.315V92h-1.037v-.89h-.07c-.223.462-.838 1.042-1.946 1.042Zm.182-.931c1.166 0 1.816-.785 1.816-1.588v-.908c-.175.205-1.324.322-1.728.375-.768.1-1.442.345-1.442 1.09 0 .68.569 1.03 1.354 1.03Zm5.777-3.147V92h-1.054v-6.55h1.013l.006 1.587h-.146c.398-1.207 1.16-1.67 2.15-1.67 1.324 0 2.221.815 2.221 2.473V92h-1.061v-4.072c0-1.008-.562-1.612-1.476-1.612-.944 0-1.653.64-1.653 1.758Zm8.625-2.625v.903h-3.386v-.903h3.386Zm-2.402-1.558h1.055v6.41c0 .586.216.843.773.843.135 0 .363-.035.539-.07l.217.89a2.54 2.54 0 0 1-.785.118c-1.131 0-1.799-.627-1.799-1.7v-6.491Zm9.703 1.558v.903h-3.387v-.903h3.387Zm-2.402-1.558h1.054v6.41c0 .586.217.843.774.843.135 0 .363-.035.539-.07l.217.89a2.54 2.54 0 0 1-.785.118c-1.131 0-1.799-.627-1.799-1.7v-6.491Zm6.299 8.25c-1.782 0-2.983-1.354-2.983-3.375 0-2.051 1.201-3.399 2.983-3.399 1.787 0 2.994 1.348 2.994 3.399 0 2.021-1.207 3.375-2.994 3.375Zm0-.944c1.324 0 1.927-1.142 1.927-2.431 0-1.301-.603-2.456-1.927-2.456-1.307 0-1.911 1.149-1.911 2.456 0 1.289.604 2.431 1.911 2.431Zm5.519-1.553v-1.306h.193l2.801-2.889h1.307l-3.029 3.112h-.118l-1.154 1.083Zm-.99 2.356v-8.73h1.055V92h-1.055Zm4.142 0-2.507-3.205.75-.744L350.043 92h-1.354Zm4.928.14c-1.898 0-3.07-1.347-3.07-3.363 0-2.01 1.16-3.41 2.947-3.41 1.389 0 2.854.856 2.854 3.276v.439h-5.086v-.89h4.517l-.492.328c0-1.29-.609-2.215-1.793-2.215-1.183 0-1.881.978-1.881 2.045v.591c0 1.46.809 2.262 2.01 2.262.773 0 1.354-.34 1.6-1.008l1.019.282c-.304.99-1.283 1.664-2.625 1.664Zm5.297-4.066V92h-1.055v-6.55h1.014l.006 1.587h-.147c.399-1.207 1.161-1.67 2.151-1.67 1.324 0 2.221.815 2.221 2.473V92h-1.061v-4.072c0-1.008-.563-1.612-1.477-1.612-.943 0-1.652.64-1.652 1.758ZM368.336 92v-6.55h1.019v1.007h.071c.24-.662.92-1.101 1.699-1.101.152 0 .41.011.533.017v1.06a3.975 3.975 0 0 0-.633-.058c-.943 0-1.634.639-1.634 1.523V92h-1.055Zm7.078.14c-1.898 0-3.07-1.347-3.07-3.363 0-2.01 1.16-3.41 2.947-3.41 1.389 0 2.854.856 2.854 3.276v.439h-5.086v-.89h4.517l-.492.328c0-1.29-.609-2.215-1.793-2.215s-1.881.978-1.881 2.045v.591c0 1.46.809 2.262 2.01 2.262.773 0 1.353-.34 1.6-1.008l1.019.282c-.305.99-1.283 1.664-2.625 1.664Zm7.289-6.69v.902h-3.855v-.903h3.855ZM380.137 92v-7.424c0-1.136.908-1.717 1.863-1.717.498 0 .826.106.984.176l-.293.903c-.111-.036-.275-.1-.568-.1-.65 0-.932.34-.932.973V92h-1.054Zm6.597.14c-1.898 0-3.07-1.347-3.07-3.363 0-2.01 1.16-3.41 2.947-3.41 1.389 0 2.854.856 2.854 3.276v.439h-5.086v-.89h4.517l-.492.328c0-1.29-.609-2.215-1.793-2.215-1.183 0-1.881.978-1.881 2.045v.591c0 1.46.809 2.262 2.01 2.262.774 0 1.354-.34 1.6-1.008l1.019.282c-.304.99-1.283 1.664-2.625 1.664Zm4.243-.14v-6.55h1.019v1.007h.07c.241-.662.92-1.101 1.7-1.101.152 0 .41.011.533.017v1.06a4.003 4.003 0 0 0-.633-.058c-.943 0-1.635.639-1.635 1.523V92h-1.054Zm7.078.14c-1.899 0-3.071-1.347-3.071-3.363 0-2.01 1.161-3.41 2.948-3.41 1.388 0 2.853.856 2.853 3.276v.439h-5.086v-.89h4.518l-.492.328c0-1.29-.61-2.215-1.793-2.215-1.184 0-1.881.978-1.881 2.045v.591c0 1.46.808 2.262 2.01 2.262.773 0 1.353-.34 1.599-1.008l1.02.282c-.305.99-1.284 1.664-2.625 1.664Zm5.297-4.066V92h-1.055v-6.55h1.014l.005 1.587h-.146c.398-1.207 1.16-1.67 2.15-1.67 1.325 0 2.221.815 2.221 2.473V92h-1.061v-4.072c0-1.008-.562-1.612-1.476-1.612-.943 0-1.652.64-1.652 1.758Zm8.712 4.067c-1.781 0-2.982-1.354-2.982-3.375 0-2.051 1.201-3.399 2.982-3.399 1.266 0 2.297.668 2.655 1.81l-1.014.288c-.193-.674-.779-1.154-1.641-1.154-1.306 0-1.91 1.148-1.91 2.455 0 1.289.604 2.431 1.91 2.431.879 0 1.477-.498 1.67-1.207l1.008.287c-.351 1.166-1.394 1.864-2.678 1.864Zm6.944 0c-1.899 0-3.07-1.348-3.07-3.364 0-2.01 1.16-3.41 2.947-3.41 1.388 0 2.853.856 2.853 3.276v.439h-5.086v-.89h4.518l-.492.328c0-1.29-.61-2.215-1.793-2.215-1.184 0-1.881.978-1.881 2.045v.591c0 1.46.808 2.262 2.01 2.262.773 0 1.353-.34 1.599-1.008l1.02.282c-.305.99-1.283 1.664-2.625 1.664Z" fill="#fff"/><path stroke="#7B58CF" stroke-width="2" stroke-linecap="round" d="M18 67h239M18 67V53m239 14V53m20 14h149m-149 0V53m149 14V53"/><path d="M19.974 35.112c-.57 0-1.06-.084-1.47-.252a2.074 2.074 0 0 1-.924-.756c-.205-.336-.308-.742-.308-1.218h1.26c0 .355.126.635.378.84.252.196.607.294 1.064.294h.616c.467 0 .826-.103 1.078-.308.261-.205.392-.495.392-.868 0-.336-.075-.597-.224-.784-.15-.187-.378-.299-.686-.336l-2.128-.308c-.523-.075-.929-.29-1.218-.644-.29-.364-.434-.84-.434-1.428 0-.672.229-1.2.686-1.582.467-.383 1.106-.574 1.918-.574h.616c.747 0 1.353.187 1.82.56.476.364.733.845.77 1.442h-1.274c-.019-.27-.15-.495-.392-.672-.233-.177-.541-.266-.924-.266h-.616c-.43 0-.765.098-1.008.294-.243.196-.364.462-.364.798 0 .261.06.471.182.63.13.159.317.257.56.294l1.988.28c.653.093 1.143.331 1.47.714.327.383.49.91.49 1.582 0 .719-.238 1.279-.714 1.68-.467.392-1.13.588-1.988.588h-.616ZM29.447 35c-.635 0-1.144-.182-1.526-.546-.383-.373-.574-.868-.574-1.484v-4.522h-2.212V27.3h2.212v-2.17h1.26v2.17h3.15v1.148h-3.15v4.522c0 .261.074.476.224.644a.833.833 0 0 0 .616.238h2.24V35h-2.24Zm6.952.14c-.793 0-1.423-.22-1.89-.658-.467-.448-.7-1.031-.7-1.75 0-.476.107-.891.322-1.246a2.19 2.19 0 0 1 .896-.826 2.74 2.74 0 0 1 1.316-.308h2.38v-.602c0-.504-.135-.877-.406-1.12-.27-.252-.681-.378-1.232-.378-.485 0-.877.089-1.176.266-.299.177-.457.425-.476.742h-1.26c.047-.607.327-1.106.84-1.498.523-.401 1.213-.602 2.072-.602.933 0 1.647.224 2.142.672.504.448.756 1.073.756 1.876V35h-1.246v-1.4h-.21l.196-.28c0 .373-.093.695-.28.966-.187.27-.453.48-.798.63-.345.15-.76.224-1.246.224Zm.308-1.064c.616 0 1.106-.15 1.47-.448.364-.299.546-.705.546-1.218v-1.078h-2.24c-.41 0-.747.126-1.008.378-.252.243-.378.57-.378.98 0 .43.14.77.42 1.022.29.243.686.364 1.19.364Zm9.529.924c-.635 0-1.144-.182-1.526-.546-.383-.373-.574-.868-.574-1.484v-4.522h-2.212V27.3h2.212v-2.17h1.26v2.17h3.15v1.148h-3.15v4.522c0 .261.074.476.224.644a.833.833 0 0 0 .616.238h2.24V35h-2.24Zm7.61.14c-.886 0-1.596-.261-2.128-.784-.532-.532-.798-1.25-.798-2.156v-4.9h1.26v4.9c0 .56.15 1.008.448 1.344.299.327.705.49 1.218.49.523 0 .934-.163 1.232-.49.308-.336.462-.784.462-1.344v-4.9h1.26v4.9c0 .905-.27 1.624-.812 2.156-.541.523-1.255.784-2.142.784Zm8.1-.028c-.569 0-1.059-.084-1.47-.252a2.074 2.074 0 0 1-.923-.756c-.206-.336-.308-.742-.308-1.218h1.26c0 .355.126.635.378.84.252.196.606.294 1.064.294h.616c.466 0 .826-.103 1.078-.308.261-.205.392-.495.392-.868 0-.336-.075-.597-.224-.784-.15-.187-.378-.299-.686-.336l-2.128-.308c-.523-.075-.929-.29-1.218-.644-.29-.364-.434-.84-.434-1.428 0-.672.228-1.2.686-1.582.466-.383 1.106-.574 1.918-.574h.616c.746 0 1.353.187 1.82.56.476.364.732.845.77 1.442h-1.274c-.019-.27-.15-.495-.392-.672-.234-.177-.542-.266-.924-.266h-.616c-.43 0-.766.098-1.008.294-.243.196-.364.462-.364.798 0 .261.06.471.182.63.13.159.317.257.56.294l1.988.28c.653.093 1.143.331 1.47.714.326.383.49.91.49 1.582 0 .719-.238 1.279-.714 1.68-.467.392-1.13.588-1.988.588h-.616Zm8.703.028c-.345 0-.625-.103-.84-.308-.205-.205-.308-.471-.308-.798 0-.345.103-.625.308-.84.215-.215.495-.322.84-.322.346 0 .62.107.826.322.215.215.322.495.322.84 0 .327-.107.593-.322.798-.205.205-.48.308-.826.308Zm8.843 0c-.635 0-1.144-.168-1.526-.504-.383-.345-.574-.812-.574-1.4l.252.294h-.252V35h-1.26V24.78h1.26v2.24l-.028 1.75h.28l-.28.294c0-.579.196-1.04.588-1.386.401-.345.914-.518 1.54-.518.774 0 1.39.257 1.848.77.457.513.686 1.213.686 2.1v2.254c0 .877-.229 1.573-.686 2.086-.458.513-1.074.77-1.848.77Zm-.42-1.092c.532 0 .947-.14 1.246-.42.298-.28.448-.733.448-1.358v-2.24c0-.635-.15-1.087-.448-1.358-.299-.28-.714-.42-1.246-.42-.514 0-.924.163-1.232.49-.299.327-.448.78-.448 1.358v2.1c0 .579.15 1.031.448 1.358.308.327.718.49 1.232.49Zm5.734.952v-7.7h1.26v1.47h.266l-.266.336c0-.597.182-1.069.546-1.414.374-.355.887-.532 1.54-.532.803 0 1.419.243 1.848.728.439.476.658 1.157.658 2.044v.658h-1.26v-.658c0-.57-.14-.99-.42-1.26-.28-.28-.686-.42-1.218-.42-.55 0-.97.159-1.26.476-.29.317-.434.775-.434 1.372V35h-1.26Zm10.355.14c-.793 0-1.424-.22-1.89-.658-.467-.448-.7-1.031-.7-1.75 0-.476.107-.891.322-1.246a2.19 2.19 0 0 1 .896-.826 2.74 2.74 0 0 1 1.316-.308h2.38v-.602c0-.504-.135-.877-.406-1.12-.27-.252-.681-.378-1.232-.378-.485 0-.877.089-1.176.266-.299.177-.458.425-.476.742h-1.26c.046-.607.326-1.106.84-1.498.522-.401 1.213-.602 2.072-.602.933 0 1.647.224 2.142.672.504.448.756 1.073.756 1.876V35h-1.246v-1.4h-.21l.196-.28c0 .373-.094.695-.28.966-.187.27-.453.48-.798.63-.346.15-.76.224-1.246.224Zm.308-1.064c.616 0 1.106-.15 1.47-.448.364-.299.546-.705.546-1.218v-1.078h-2.24c-.41 0-.747.126-1.008.378-.252.243-.378.57-.378.98 0 .43.14.77.42 1.022.29.243.686.364 1.19.364Zm5.846.924v-7.7h1.26v1.47h.266l-.266.294c0-.607.182-1.073.546-1.4.364-.336.868-.504 1.512-.504.775 0 1.391.238 1.848.714.458.476.686 1.125.686 1.946V35h-1.26v-4.956c0-.588-.149-1.036-.448-1.344-.289-.317-.686-.476-1.19-.476-.522 0-.938.163-1.246.49-.298.327-.448.789-.448 1.386V35h-1.26Zm10.859.14c-.765 0-1.381-.257-1.848-.77-.457-.513-.686-1.209-.686-2.086V30.03c0-.887.229-1.587.686-2.1.457-.513 1.073-.77 1.848-.77.635 0 1.148.173 1.54.518.392.345.588.807.588 1.386l-.28-.294h.28l-.028-1.75v-2.24h1.26V35h-1.26v-1.47h-.252l.252-.294c0 .588-.191 1.055-.574 1.4-.383.336-.891.504-1.526.504Zm.42-1.092c.523 0 .933-.163 1.232-.49.299-.327.448-.78.448-1.358v-2.1c0-.579-.149-1.031-.448-1.358-.299-.327-.709-.49-1.232-.49-.532 0-.947.14-1.246.42-.299.27-.448.723-.448 1.358v2.24c0 .625.149 1.078.448 1.358.299.28.714.42 1.246.42Zm8.422 1.092c-.345 0-.625-.103-.84-.308-.205-.205-.308-.471-.308-.798 0-.345.103-.625.308-.84.215-.215.495-.322.84-.322.346 0 .621.107.826.322.215.215.322.495.322.84 0 .327-.107.593-.322.798-.205.205-.48.308-.826.308Zm8.843 0c-.635 0-1.143-.168-1.526-.504-.383-.345-.574-.812-.574-1.4l.252.294h-.252V35h-1.26V24.78h1.26v2.24l-.028 1.75h.28l-.28.294c0-.579.196-1.04.588-1.386.401-.345.915-.518 1.54-.518.775 0 1.391.257 1.848.77.457.513.686 1.213.686 2.1v2.254c0 .877-.229 1.573-.686 2.086-.457.513-1.073.77-1.848.77Zm-.42-1.092c.532 0 .947-.14 1.246-.42.299-.28.448-.733.448-1.358v-2.24c0-.635-.149-1.087-.448-1.358-.299-.28-.714-.42-1.246-.42-.513 0-.924.163-1.232.49-.299.327-.448.78-.448 1.358v2.1c0 .579.149 1.031.448 1.358.308.327.719.49 1.232.49Zm7.694 1.092c-.793 0-1.423-.22-1.89-.658-.466-.448-.7-1.031-.7-1.75 0-.476.108-.891.322-1.246.215-.355.514-.63.896-.826a2.743 2.743 0 0 1 1.316-.308h2.38v-.602c0-.504-.135-.877-.406-1.12-.27-.252-.681-.378-1.232-.378-.485 0-.877.089-1.176.266-.298.177-.457.425-.476.742h-1.26c.047-.607.327-1.106.84-1.498.523-.401 1.214-.602 2.072-.602.934 0 1.648.224 2.142.672.504.448.756 1.073.756 1.876V35h-1.246v-1.4h-.21l.196-.28c0 .373-.093.695-.28.966-.186.27-.452.48-.798.63-.345.15-.76.224-1.246.224Zm.308-1.064c.616 0 1.106-.15 1.47-.448.364-.299.546-.705.546-1.218v-1.078h-2.24c-.41 0-.746.126-1.008.378-.252.243-.378.57-.378.98 0 .43.14.77.42 1.022.29.243.686.364 1.19.364Zm8.871 1.064c-.616 0-1.157-.117-1.624-.35a2.61 2.61 0 0 1-1.078-1.008c-.252-.448-.378-.975-.378-1.582v-2.1c0-.616.126-1.143.378-1.582a2.61 2.61 0 0 1 1.078-1.008c.467-.233 1.008-.35 1.624-.35.887 0 1.601.238 2.142.714.551.476.84 1.125.868 1.946h-1.26c-.028-.495-.196-.873-.504-1.134-.308-.27-.723-.406-1.246-.406-.551 0-.994.159-1.33.476-.327.308-.49.751-.49 1.33V32.2c0 .579.163 1.027.49 1.344.336.317.779.476 1.33.476.523 0 .938-.135 1.246-.406.308-.27.476-.649.504-1.134h1.26c-.028.821-.317 1.47-.868 1.946-.541.476-1.255.714-2.142.714Zm5.441-.14V24.78h1.26v5.698h1.47l2.156-3.178h1.442l-2.478 3.668L158.221 35h-1.47l-2.24-3.43h-1.498V35h-1.26Zm9.29 2.52v-1.148h2.17c.439 0 .784-.126 1.036-.378.252-.243.378-.574.378-.994v-.7l.028-1.26h-.252l.238-.35c0 .56-.187.999-.56 1.316-.373.308-.873.462-1.498.462-.793 0-1.419-.252-1.876-.756-.457-.504-.686-1.195-.686-2.072v-1.624c0-.877.229-1.573.686-2.086.457-.513 1.083-.77 1.876-.77.625 0 1.125.163 1.498.49.373.327.56.77.56 1.33l-.238-.35h.238V27.3h1.246V35c0 .775-.243 1.386-.728 1.834-.476.457-1.129.686-1.96.686h-2.156Zm1.918-4.102c.523 0 .933-.163 1.232-.49.299-.327.448-.78.448-1.358V30.1c0-.579-.149-1.031-.448-1.358-.299-.327-.709-.49-1.232-.49-.532 0-.947.154-1.246.462-.289.308-.434.723-.434 1.246v1.75c0 .523.145.938.434 1.246.299.308.714.462 1.246.462ZM168.752 35v-7.7h1.26v1.47h.266l-.266.336c0-.597.182-1.069.546-1.414.373-.355.886-.532 1.54-.532.802 0 1.418.243 1.848.728.438.476.658 1.157.658 2.044v.658h-1.26v-.658c0-.57-.14-.99-.42-1.26-.28-.28-.686-.42-1.218-.42-.551 0-.971.159-1.26.476-.29.317-.434.775-.434 1.372V35h-1.26Zm11.026.112c-.616 0-1.153-.121-1.61-.364a2.586 2.586 0 0 1-1.05-1.05c-.243-.467-.364-1.022-.364-1.666v-1.764c0-.653.121-1.209.364-1.666a2.586 2.586 0 0 1 1.05-1.05c.457-.243.994-.364 1.61-.364.625 0 1.162.121 1.61.364a2.5 2.5 0 0 1 1.036 1.05c.252.457.378 1.013.378 1.666v1.764c0 .644-.126 1.2-.378 1.666a2.482 2.482 0 0 1-1.05 1.05c-.448.243-.98.364-1.596.364Zm0-1.12c.551 0 .98-.154 1.288-.462.317-.308.476-.76.476-1.358v-2.044c0-.597-.159-1.05-.476-1.358-.308-.308-.737-.462-1.288-.462-.541 0-.971.154-1.288.462-.317.308-.476.76-.476 1.358v2.044c0 .597.159 1.05.476 1.358.317.308.747.462 1.288.462Zm8.381 1.148c-.887 0-1.596-.261-2.128-.784-.532-.532-.798-1.25-.798-2.156v-4.9h1.26v4.9c0 .56.149 1.008.448 1.344.298.327.704.49 1.218.49.522 0 .933-.163 1.232-.49.308-.336.462-.784.462-1.344v-4.9h1.26v4.9c0 .905-.271 1.624-.812 2.156-.542.523-1.256.784-2.142.784Zm5.496-.14v-7.7h1.26v1.47h.266l-.266.294c0-.607.182-1.073.546-1.4.364-.336.868-.504 1.512-.504.775 0 1.391.238 1.848.714.458.476.686 1.125.686 1.946V35h-1.26v-4.956c0-.588-.149-1.036-.448-1.344-.289-.317-.686-.476-1.19-.476-.522 0-.938.163-1.246.49-.298.327-.448.789-.448 1.386V35h-1.26Zm10.859.14c-.766 0-1.382-.257-1.848-.77-.458-.513-.686-1.209-.686-2.086V30.03c0-.887.228-1.587.686-2.1.457-.513 1.073-.77 1.848-.77.634 0 1.148.173 1.54.518.392.345.588.807.588 1.386l-.28-.294h.28l-.028-1.75v-2.24h1.26V35h-1.26v-1.47h-.252l.252-.294c0 .588-.192 1.055-.574 1.4-.383.336-.892.504-1.526.504Zm.42-1.092c.522 0 .933-.163 1.232-.49.298-.327.448-.78.448-1.358v-2.1c0-.579-.15-1.031-.448-1.358-.299-.327-.71-.49-1.232-.49-.532 0-.948.14-1.246.42-.299.27-.448.723-.448 1.358v2.24c0 .625.149 1.078.448 1.358.298.28.714.42 1.246.42Zm8.422 1.092c-.345 0-.625-.103-.84-.308-.205-.205-.308-.471-.308-.798 0-.345.103-.625.308-.84.215-.215.495-.322.84-.322.346 0 .621.107.826.322.215.215.322.495.322.84 0 .327-.107.593-.322.798-.205.205-.48.308-.826.308Zm8.507 0c-.616 0-1.158-.117-1.624-.35a2.605 2.605 0 0 1-1.078-1.008c-.252-.448-.378-.975-.378-1.582v-2.1c0-.616.126-1.143.378-1.582a2.6 2.6 0 0 1 1.078-1.008c.466-.233 1.008-.35 1.624-.35.886 0 1.6.238 2.142.714.55.476.84 1.125.868 1.946h-1.26c-.028-.495-.196-.873-.504-1.134-.308-.27-.724-.406-1.246-.406-.551 0-.994.159-1.33.476-.327.308-.49.751-.49 1.33V32.2c0 .579.163 1.027.49 1.344.336.317.779.476 1.33.476.522 0 .938-.135 1.246-.406.308-.27.476-.649.504-1.134h1.26c-.028.821-.318 1.47-.868 1.946-.542.476-1.256.714-2.142.714Zm8.282-.028c-.616 0-1.152-.121-1.61-.364a2.586 2.586 0 0 1-1.05-1.05c-.242-.467-.364-1.022-.364-1.666v-1.764c0-.653.122-1.209.364-1.666a2.586 2.586 0 0 1 1.05-1.05c.458-.243.994-.364 1.61-.364.626 0 1.162.121 1.61.364.448.243.794.593 1.036 1.05.252.457.378 1.013.378 1.666v1.764c0 .644-.126 1.2-.378 1.666a2.471 2.471 0 0 1-1.05 1.05c-.448.243-.98.364-1.596.364Zm0-1.12c.551 0 .98-.154 1.288-.462.318-.308.476-.76.476-1.358v-2.044c0-.597-.158-1.05-.476-1.358-.308-.308-.737-.462-1.288-.462-.541 0-.97.154-1.288.462-.317.308-.476.76-.476 1.358v2.044c0 .597.159 1.05.476 1.358.318.308.747.462 1.288.462ZM239.66 35c-.448 0-.84-.089-1.176-.266a1.914 1.914 0 0 1-.784-.756c-.187-.327-.28-.71-.28-1.148v-6.902h-2.66V24.78h3.92v8.05c0 .317.089.57.266.756.177.177.415.266.714.266h2.38V35h-2.38Zm7.274.112c-.616 0-1.152-.121-1.61-.364a2.586 2.586 0 0 1-1.05-1.05c-.242-.467-.364-1.022-.364-1.666v-1.764c0-.653.122-1.209.364-1.666a2.586 2.586 0 0 1 1.05-1.05c.458-.243.994-.364 1.61-.364.626 0 1.162.121 1.61.364.448.243.794.593 1.036 1.05.252.457.378 1.013.378 1.666v1.764c0 .644-.126 1.2-.378 1.666a2.471 2.471 0 0 1-1.05 1.05c-.448.243-.98.364-1.596.364Zm0-1.12c.551 0 .98-.154 1.288-.462.318-.308.476-.76.476-1.358v-2.044c0-.597-.158-1.05-.476-1.358-.308-.308-.737-.462-1.288-.462-.541 0-.97.154-1.288.462-.317.308-.476.76-.476 1.358v2.044c0 .597.159 1.05.476 1.358.318.308.747.462 1.288.462ZM252.697 35v-7.7h1.26v1.47h.266l-.266.336c0-.597.182-1.069.546-1.414.373-.355.887-.532 1.54-.532.803 0 1.419.243 1.848.728.439.476.658 1.157.658 2.044v.658h-1.26v-.658c0-.57-.14-.99-.42-1.26-.28-.28-.686-.42-1.218-.42-.551 0-.971.159-1.26.476-.289.317-.434.775-.434 1.372V35h-1.26Zm11.026-5.768c-.382 0-.672-.093-.868-.28-.196-.187-.294-.439-.294-.756s.098-.57.294-.756c.196-.187.486-.28.868-.28.383 0 .672.093.868.28.196.187.294.439.294.756s-.098.57-.294.756c-.196.187-.485.28-.868.28Zm0 5.908c-.382 0-.672-.093-.868-.28-.196-.187-.294-.439-.294-.756s.098-.57.294-.756c.196-.187.486-.28.868-.28.383 0 .672.093.868.28.196.187.294.439.294.756s-.098.57-.294.756c-.196.187-.485.28-.868.28Z" fill="#333238"/><rect x="276" y="16" width="151" height="28" rx="4" fill="#E1D8F9"/><path d="M288.656 35.14c-.616 0-1.158-.117-1.624-.35a2.605 2.605 0 0 1-1.078-1.008c-.252-.448-.378-.975-.378-1.582v-2.1c0-.616.126-1.143.378-1.582a2.6 2.6 0 0 1 1.078-1.008c.466-.233 1.008-.35 1.624-.35.886 0 1.6.238 2.142.714.55.476.84 1.125.868 1.946h-1.26c-.028-.495-.196-.873-.504-1.134-.308-.27-.724-.406-1.246-.406-.551 0-.994.159-1.33.476-.327.308-.49.751-.49 1.33V32.2c0 .579.163 1.027.49 1.344.336.317.779.476 1.33.476.522 0 .938-.135 1.246-.406.308-.27.476-.649.504-1.134h1.26c-.028.821-.318 1.47-.868 1.946-.542.476-1.256.714-2.142.714Zm8.282-.028c-.616 0-1.152-.121-1.61-.364a2.586 2.586 0 0 1-1.05-1.05c-.242-.467-.364-1.022-.364-1.666v-1.764c0-.653.122-1.209.364-1.666a2.586 2.586 0 0 1 1.05-1.05c.458-.243.994-.364 1.61-.364.626 0 1.162.121 1.61.364.448.243.794.593 1.036 1.05.252.457.378 1.013.378 1.666v1.764c0 .644-.126 1.2-.378 1.666a2.471 2.471 0 0 1-1.05 1.05c-.448.243-.98.364-1.596.364Zm0-1.12c.551 0 .98-.154 1.288-.462.318-.308.476-.76.476-1.358v-2.044c0-.597-.158-1.05-.476-1.358-.308-.308-.737-.462-1.288-.462-.541 0-.97.154-1.288.462-.317.308-.476.76-.476 1.358v2.044c0 .597.159 1.05.476 1.358.318.308.747.462 1.288.462ZM306.453 35c-.448 0-.84-.089-1.176-.266a1.908 1.908 0 0 1-.784-.756c-.187-.327-.28-.71-.28-1.148v-6.902h-2.66V24.78h3.92v8.05c0 .317.088.57.266.756.177.177.415.266.714.266h2.38V35h-2.38Zm7.274.112c-.616 0-1.152-.121-1.61-.364a2.586 2.586 0 0 1-1.05-1.05c-.242-.467-.364-1.022-.364-1.666v-1.764c0-.653.122-1.209.364-1.666a2.586 2.586 0 0 1 1.05-1.05c.458-.243.994-.364 1.61-.364.626 0 1.162.121 1.61.364.448.243.794.593 1.036 1.05.252.457.378 1.013.378 1.666v1.764c0 .644-.126 1.2-.378 1.666a2.471 2.471 0 0 1-1.05 1.05c-.448.243-.98.364-1.596.364Zm0-1.12c.551 0 .98-.154 1.288-.462.318-.308.476-.76.476-1.358v-2.044c0-.597-.158-1.05-.476-1.358-.308-.308-.737-.462-1.288-.462-.541 0-.97.154-1.288.462-.317.308-.476.76-.476 1.358v2.044c0 .597.159 1.05.476 1.358.318.308.747.462 1.288.462ZM319.49 35v-7.7h1.26v1.47h.266l-.266.336c0-.597.182-1.069.546-1.414.373-.355.887-.532 1.54-.532.803 0 1.419.243 1.848.728.439.476.658 1.157.658 2.044v.658h-1.26v-.658c0-.57-.14-.99-.42-1.26-.28-.28-.686-.42-1.218-.42-.551 0-.971.159-1.26.476-.289.317-.434.775-.434 1.372V35h-1.26Zm11.026.14c-.345 0-.625-.103-.84-.308-.205-.205-.308-.471-.308-.798 0-.345.103-.625.308-.84.215-.215.495-.322.84-.322.346 0 .621.107.826.322.215.215.322.495.322.84 0 .327-.107.593-.322.798-.205.205-.48.308-.826.308Zm5.483 2.38V27.3h1.26v1.47h.252l-.252.294c0-.588.191-1.05.574-1.386.383-.345.891-.518 1.526-.518.513 0 .957.117 1.33.35.383.224.677.55.882.98.215.43.322.938.322 1.526v2.254c0 .588-.103 1.097-.308 1.526-.205.43-.499.76-.882.994-.373.233-.821.35-1.344.35-.625 0-1.134-.173-1.526-.518-.383-.345-.574-.807-.574-1.386l.252.294h-.28l.028 1.75v2.24h-1.26Zm2.94-3.472c.532 0 .947-.14 1.246-.42.299-.28.448-.733.448-1.358v-2.24c0-.635-.149-1.087-.448-1.358-.299-.28-.714-.42-1.246-.42-.513 0-.924.163-1.232.49-.299.327-.448.78-.448 1.358v2.1c0 .579.149 1.031.448 1.358.308.327.719.49 1.232.49Zm8.352 1.092c-.886 0-1.596-.261-2.128-.784-.532-.532-.798-1.25-.798-2.156v-4.9h1.26v4.9c0 .56.15 1.008.448 1.344.299.327.705.49 1.218.49.523 0 .934-.163 1.232-.49.308-.336.462-.784.462-1.344v-4.9h1.26v4.9c0 .905-.27 1.624-.812 2.156-.541.523-1.255.784-2.142.784Zm5.777-.14v-7.7h1.26v1.47h.266l-.266.336c0-.597.182-1.069.546-1.414.373-.355.887-.532 1.54-.532.803 0 1.419.243 1.848.728.439.476.658 1.157.658 2.044v.658h-1.26v-.658c0-.57-.14-.99-.42-1.26-.28-.28-.686-.42-1.218-.42-.551 0-.971.159-1.26.476-.289.317-.434.775-.434 1.372V35h-1.26Zm8.115 2.52V27.3h1.26v1.47h.252l-.252.294c0-.588.191-1.05.574-1.386.382-.345.891-.518 1.526-.518.513 0 .956.117 1.33.35.382.224.676.55.882.98.214.43.322.938.322 1.526v2.254c0 .588-.103 1.097-.308 1.526-.206.43-.5.76-.882.994-.374.233-.822.35-1.344.35-.626 0-1.134-.173-1.526-.518-.383-.345-.574-.807-.574-1.386l.252.294h-.28l.028 1.75v2.24h-1.26Zm2.94-3.472c.532 0 .947-.14 1.246-.42.298-.28.448-.733.448-1.358v-2.24c0-.635-.15-1.087-.448-1.358-.299-.28-.714-.42-1.246-.42-.514 0-.924.163-1.232.49-.299.327-.448.78-.448 1.358v2.1c0 .579.149 1.031.448 1.358.308.327.718.49 1.232.49Zm9.486.952c-.448 0-.84-.089-1.176-.266a1.914 1.914 0 0 1-.784-.756c-.187-.327-.28-.71-.28-1.148v-6.902h-2.66V24.78h3.92v8.05c0 .317.089.57.266.756.177.177.415.266.714.266h2.38V35h-2.38Zm7.275.14c-.607 0-1.139-.121-1.596-.364a2.679 2.679 0 0 1-1.05-1.064c-.252-.467-.378-1.017-.378-1.652v-1.82c0-.644.126-1.195.378-1.652a2.586 2.586 0 0 1 1.05-1.05c.457-.252.989-.378 1.596-.378.606 0 1.134.121 1.582.364.457.243.812.583 1.064 1.022.252.439.378.957.378 1.554v1.372h-4.816v.728c0 .57.163 1.022.49 1.358.326.327.76.49 1.302.49.466 0 .849-.089 1.148-.266.308-.187.494-.434.56-.742h1.26c-.084.644-.397 1.157-.938 1.54-.542.373-1.218.56-2.03.56Zm1.792-4.522V30.1c0-.607-.159-1.073-.476-1.4-.308-.336-.747-.504-1.316-.504-.57 0-1.013.168-1.33.504-.308.327-.462.793-.462 1.4v.392h3.682l-.098.126Zm6.602 4.522c-.345 0-.625-.103-.84-.308-.205-.205-.308-.471-.308-.798 0-.345.103-.625.308-.84.215-.215.495-.322.84-.322s.621.107.826.322c.215.215.322.495.322.84 0 .327-.107.593-.322.798-.205.205-.481.308-.826.308Zm5.455-.14v-1.148h2.772v-7.98l-2.772 2.072v-1.442l2.31-1.722h1.722v9.072h2.268V35h-6.3Zm11.334.14c-.625 0-1.171-.121-1.638-.364a2.68 2.68 0 0 1-1.064-1.05c-.252-.457-.378-.99-.378-1.596v-4.48c0-.616.126-1.148.378-1.596a2.588 2.588 0 0 1 1.064-1.036c.467-.252 1.013-.378 1.638-.378.635 0 1.181.126 1.638.378.458.243.812.588 1.064 1.036.252.448.378.98.378 1.596v4.48c0 .607-.126 1.139-.378 1.596a2.653 2.653 0 0 1-1.078 1.05c-.457.243-.998.364-1.624.364Zm0-1.078c.56 0 1.008-.177 1.344-.532.346-.364.518-.83.518-1.4v-4.48c0-.57-.172-1.031-.518-1.386-.336-.364-.784-.546-1.344-.546s-1.012.182-1.358.546c-.336.355-.504.817-.504 1.386v4.48c0 .57.168 1.036.504 1.4.346.355.798.532 1.358.532Zm0-3.402c-.252 0-.457-.07-.616-.21-.149-.14-.224-.34-.224-.602 0-.252.075-.443.224-.574.159-.14.364-.21.616-.21s.453.07.602.21c.159.13.238.322.238.574 0 .261-.079.462-.238.602-.149.14-.35.21-.602.21Zm8.395 4.48c-.626 0-1.172-.121-1.638-.364a2.674 2.674 0 0 1-1.064-1.05c-.252-.457-.378-.99-.378-1.596v-4.48c0-.616.126-1.148.378-1.596a2.582 2.582 0 0 1 1.064-1.036c.466-.252 1.012-.378 1.638-.378.634 0 1.18.126 1.638.378a2.59 2.59 0 0 1 1.064 1.036c.252.448.378.98.378 1.596v4.48c0 .607-.126 1.139-.378 1.596a2.66 2.66 0 0 1-1.078 1.05c-.458.243-.999.364-1.624.364Zm0-1.078c.56 0 1.008-.177 1.344-.532.345-.364.518-.83.518-1.4v-4.48c0-.57-.173-1.031-.518-1.386-.336-.364-.784-.546-1.344-.546s-1.013.182-1.358.546c-.336.355-.504.817-.504 1.386v4.48c0 .57.168 1.036.504 1.4.345.355.798.532 1.358.532Zm0-3.402c-.252 0-.458-.07-.616-.21-.15-.14-.224-.34-.224-.602 0-.252.074-.443.224-.574.158-.14.364-.21.616-.21s.452.07.602.21c.158.13.238.322.238.574 0 .261-.08.462-.238.602-.15.14-.35.21-.602.21Z" fill="#333238"/></svg>