<svg width="758" height="329" viewBox="0 0 758 329" fill="none" xmlns="http://www.w3.org/2000/svg"><rect width="758" height="329" rx="4" fill="#FBFAFD"/><rect x="16" y="103" width="726" height="166" rx="8" fill="#fff"/><mask id="design-tokens__a" fill="#fff"><path d="M32 198h694v49H32v-49Z"/></mask><path d="M32 198h694v49H32v-49Z" fill="#fff"/><path d="M726 246H32v2h694v-2Z" fill="#DCDCDE" mask="url(#design-tokens__a)"/><g clip-path="url(#design-tokens__b)"><mask id="design-tokens__c" fill="#fff"><path d="M32 198h139v48H32v-48Z"/></mask><path d="M32 198h139v48H32v-48Z" fill="#fff"/><path d="M171 244H32v4h139v-4Z" fill="#1F75CB" mask="url(#design-tokens__c)"/><path d="M44.882 227v-10.186h3.356l1.552 4.485c.28.895.773 3.131.97 4.265h-.423c.205-1.114.69-3.363.97-4.265l1.532-4.485h3.363V227h-2.187v-4.683c0-.895.075-2.871.088-4.265h.137a58.816 58.816 0 0 1-1.162 4.265L51.458 227h-1.825l-1.648-4.683c-.28-.84-.8-2.7-1.19-4.265h.165c.014 1.346.089 3.349.089 4.265V227h-2.167Zm16.55.15c-2.359 0-3.801-1.504-3.801-3.93 0-2.359 1.45-3.958 3.698-3.958 2.037 0 3.616 1.299 3.616 3.883v.587H58.48v-1.319h5.427l-1.005.342c0-1.155-.526-1.894-1.551-1.894-1.033 0-1.6.759-1.6 1.812v.936c0 1.286.684 1.949 1.716 1.949.697 0 1.224-.301 1.435-.869l1.928.342c-.376 1.285-1.606 2.119-3.397 2.119Zm4.88-.15v-7.643h1.983l.11 1.928h-.151c.342-1.435 1.285-2.037 2.317-2.037 1.087 0 1.75.677 2.078 2.174h-.246c.349-1.511 1.429-2.174 2.598-2.174 1.408 0 2.44.95 2.44 2.598V227h-2.146v-4.717c0-.841-.5-1.258-1.169-1.258-.752 0-1.217.527-1.217 1.306V227h-2.064v-4.765c0-.738-.479-1.21-1.156-1.21-.704 0-1.237.493-1.237 1.381V227h-2.14Zm17.2.123c-1.224 0-1.867-.711-2.16-1.347h-.096V227H79.15v-10.186h2.14v3.842h.062c.28-.629.902-1.394 2.173-1.394 1.675 0 3.09 1.305 3.09 3.93 0 2.557-1.36 3.931-3.103 3.931Zm-.677-1.702c1.025 0 1.58-.916 1.58-2.235 0-1.313-.548-2.215-1.58-2.215-1.019 0-1.593.861-1.593 2.215 0 1.346.588 2.235 1.593 2.235Zm8.661 1.729c-2.358 0-3.8-1.504-3.8-3.93 0-2.359 1.448-3.958 3.698-3.958 2.037 0 3.616 1.299 3.616 3.883v.587h-6.467v-1.319h5.428l-1.005.342c0-1.155-.526-1.894-1.552-1.894-1.032 0-1.6.759-1.6 1.812v.936c0 1.286.684 1.949 1.716 1.949.698 0 1.224-.301 1.436-.869l1.928.342c-.376 1.285-1.607 2.119-3.398 2.119Zm4.881-.15v-7.643h2.078v1.354h.082c.273-.957.97-1.449 1.825-1.449.212 0 .479.027.663.068v1.9c-.191-.061-.601-.109-.902-.109-.923 0-1.606.643-1.606 1.579v4.3h-2.14Zm8.839.15c-1.873 0-3.158-.834-3.425-2.262l1.996-.335c.192.697.663 1.052 1.497 1.052.752 0 1.217-.314 1.217-.751 0-.39-.314-.623-.978-.759l-1.319-.267c-1.483-.301-2.215-1.025-2.215-2.181 0-1.476 1.285-2.385 3.247-2.385 1.846 0 2.96.8 3.241 2.064l-1.894.321c-.157-.519-.595-.861-1.306-.861-.649 0-1.148.294-1.148.732 0 .362.246.622.95.765l1.395.274c1.49.3 2.208.97 2.208 2.064 0 1.525-1.436 2.529-3.466 2.529Z" fill="#333238"/><rect x="114" y="214" width="45" height="16" rx="8" fill="#ECECEF"/><path d="M122.703 226v-1.336l3.117-2.877c.774-.738 1.207-1.225 1.207-1.916 0-.762-.562-1.23-1.324-1.23-.797 0-1.312.498-1.312 1.33h-1.776c0-1.717 1.26-2.819 3.1-2.819 1.881 0 3.117 1.073 3.117 2.596 0 .979-.469 1.799-2.285 3.445l-1.254 1.225v.059h3.656V226h-6.246Zm7.266-1.523v-1.465l3.638-5.742h1.266v2.039h-.75l-2.279 3.603v.07h5.179v1.495h-7.054Zm4.189 1.523v-1.969l.035-.656v-6.105h1.752V226h-1.787Zm7.723-8.73V226h-1.858v-7.09h-.058l-1.992 1.401v-1.694l1.933-1.347h1.975Zm4.84 8.847c-2.233 0-3.545-1.646-3.545-4.476 0-2.825 1.312-4.489 3.545-4.489 2.226 0 3.539 1.67 3.539 4.489 0 2.83-1.301 4.476-3.539 4.476Zm0-1.541c1.049 0 1.634-1.055 1.634-2.935 0-1.887-.585-2.953-1.634-2.953s-1.635 1.072-1.635 2.953c0 1.88.58 2.935 1.635 2.935Z" fill="#626168"/><path fill="#fff" d="M171 198h98v48h-98z"/><path d="M188.394 227.137c-2.721 0-4.56-2.003-4.56-5.223 0-3.233 1.866-5.236 4.478-5.236 2.153 0 3.814 1.353 4.183 3.329h-1.34c-.417-1.306-1.394-2.126-2.837-2.126-1.791 0-3.219 1.415-3.219 4.033 0 2.598 1.422 4.02 3.295 4.02 1.722 0 2.905-1.163 2.905-2.995l.389.076h-3.028v-1.135h3.91v1.114c0 2.529-1.75 4.143-4.176 4.143Zm6.131-.137v-7.643h1.19v1.176h.082c.28-.772 1.073-1.285 1.982-1.285.178 0 .479.014.622.021v1.237a4.619 4.619 0 0 0-.738-.068c-1.101 0-1.907.745-1.907 1.777V227h-1.231Zm8.156.164c-2.078 0-3.48-1.579-3.48-3.937 0-2.393 1.402-3.965 3.48-3.965 2.085 0 3.493 1.572 3.493 3.965 0 2.358-1.408 3.937-3.493 3.937Zm0-1.101c1.545 0 2.249-1.333 2.249-2.836 0-1.518-.704-2.865-2.249-2.865-1.525 0-2.229 1.34-2.229 2.865 0 1.503.704 2.836 2.229 2.836Zm7.875 1.033c-1.545 0-2.591-.95-2.591-2.885v-4.854h1.23v4.751c0 1.176.663 1.88 1.73 1.88 1.094 0 1.921-.745 1.921-2.05v-4.581h1.237V227h-1.189v-1.853h.164c-.472 1.436-1.381 1.949-2.502 1.949Zm5.694 2.761v-10.5h1.189v1.224h.137c.253-.403.725-1.319 2.215-1.319 1.907 0 3.24 1.517 3.24 3.937 0 2.434-1.326 3.965-3.233 3.965-1.456 0-1.969-.923-2.222-1.347h-.096v4.04h-1.23Zm3.363-3.794c1.429 0 2.167-1.271 2.167-2.877 0-1.586-.718-2.824-2.167-2.824-1.408 0-2.146 1.135-2.146 2.824 0 1.702.759 2.877 2.146 2.877Zm7.807 1.101c-1.572 0-2.666-.697-2.94-2.017l1.169-.28c.219.841.841 1.217 1.757 1.217 1.067 0 1.75-.526 1.75-1.155 0-.527-.369-.875-1.121-1.053l-1.271-.301c-1.388-.328-2.051-1.012-2.051-2.085 0-1.312 1.203-2.228 2.83-2.228 1.572 0 2.399.765 2.748 1.839l-1.114.287c-.212-.547-.643-1.08-1.627-1.08-.909 0-1.593.471-1.593 1.107 0 .567.39.882 1.285 1.094l1.155.273c1.388.328 2.038 1.019 2.038 2.065 0 1.34-1.224 2.317-3.015 2.317Z" fill="#333238"/><rect x="236" y="214" width="21" height="16" rx="8" fill="#ECECEF"/><path d="M247.826 217.27V226h-1.096v-7.699h-.058l-2.11 1.564v-1.195l1.899-1.4h1.365Z" fill="#626168"/></g><rect x="608.5" y="126.5" width="117" height="23" rx="3.5" fill="#1F75CB"/><rect x="608.5" y="126.5" width="117" height="23" rx="3.5" stroke="#1068BF"/><path d="M618.529 132.814V143h-1.299v-10.186h1.299Zm3.541 5.606V143h-1.23v-7.643h1.182l.007 1.853h-.171c.465-1.408 1.354-1.948 2.509-1.948 1.545 0 2.591.95 2.591 2.884V143h-1.237v-4.751c0-1.176-.657-1.88-1.723-1.88-1.101 0-1.928.745-1.928 2.051Zm9.058 4.58-2.919-7.643h1.347l1.627 4.533c.341.943.553 1.886.82 2.761h-.451c.266-.875.471-1.818.813-2.761l1.627-4.533h1.347L632.42 143h-1.292Zm5.667 0v-7.643h1.23V143h-1.23Zm.622-8.894c-.465 0-.855-.362-.855-.813 0-.451.39-.814.855-.814.472 0 .861.363.861.814 0 .451-.389.813-.861.813Zm5.776 1.251v1.053h-3.951v-1.053h3.951Zm-2.802-1.818h1.23v7.479c0 .683.253.984.902.984.158 0 .424-.041.629-.082l.253 1.039a2.956 2.956 0 0 1-.916.137c-1.319 0-2.098-.732-2.098-1.983v-7.574Zm7.451 9.625c-2.215 0-3.582-1.572-3.582-3.924 0-2.344 1.353-3.978 3.438-3.978 1.62 0 3.329.998 3.329 3.821v.513h-5.933v-1.039h5.27l-.574.382c0-1.503-.711-2.584-2.092-2.584-1.381 0-2.194 1.142-2.194 2.386v.691c0 1.702.943 2.638 2.345 2.638.902 0 1.579-.396 1.866-1.175l1.189.328c-.355 1.155-1.497 1.941-3.062 1.941Zm8.887-.164v-7.643h1.196l.007 1.709h-.096c.308-1.237 1.244-1.845 2.235-1.845 1.108 0 1.812.752 2.017 1.859h-.164c.273-1.142 1.285-1.859 2.502-1.859 1.326 0 2.406.854 2.406 2.625V143h-1.237v-5.12c0-1.101-.718-1.538-1.538-1.538-1.033 0-1.661.704-1.661 1.668V143h-1.231v-5.243c0-.848-.636-1.415-1.497-1.415-.896 0-1.709.629-1.709 1.846V143h-1.23Zm15.476.164c-2.215 0-3.582-1.572-3.582-3.924 0-2.344 1.354-3.978 3.439-3.978 1.62 0 3.329.998 3.329 3.821v.513h-5.934v-1.039h5.271l-.575.382c0-1.503-.711-2.584-2.091-2.584-1.381 0-2.195 1.142-2.195 2.386v.691c0 1.702.944 2.638 2.345 2.638.902 0 1.579-.396 1.866-1.175l1.19.328c-.356 1.155-1.497 1.941-3.063 1.941Zm4.949-.164v-7.643h1.197l.006 1.709h-.095c.307-1.237 1.244-1.845 2.235-1.845 1.107 0 1.812.752 2.017 1.859h-.164c.273-1.142 1.285-1.859 2.502-1.859 1.326 0 2.406.854 2.406 2.625V143h-1.237v-5.12c0-1.101-.718-1.538-1.539-1.538-1.032 0-1.661.704-1.661 1.668V143h-1.23v-5.243c0-.848-.636-1.415-1.497-1.415-.896 0-1.709.629-1.709 1.846V143h-1.231Zm15.812.164c-1.456 0-1.969-.923-2.222-1.347h-.137V143h-1.189v-10.186h1.23v3.767h.096c.253-.403.725-1.319 2.215-1.319 1.907 0 3.24 1.517 3.24 3.937 0 2.434-1.326 3.965-3.233 3.965Zm-.185-1.101c1.429 0 2.167-1.271 2.167-2.877 0-1.586-.718-2.824-2.167-2.824-1.408 0-2.146 1.135-2.146 2.824 0 1.702.759 2.877 2.146 2.877Zm8.422 1.101c-2.215 0-3.582-1.572-3.582-3.924 0-2.344 1.354-3.978 3.439-3.978 1.62 0 3.329.998 3.329 3.821v.513h-5.934v-1.039h5.271l-.575.382c0-1.503-.711-2.584-2.091-2.584-1.381 0-2.195 1.142-2.195 2.386v.691c0 1.702.944 2.638 2.345 2.638.902 0 1.579-.396 1.866-1.175l1.19.328c-.356 1.155-1.497 1.941-3.063 1.941Zm4.949-.164v-7.643h1.19v1.176h.082c.28-.772 1.073-1.285 1.982-1.285.178 0 .479.014.622.021v1.237a4.619 4.619 0 0 0-.738-.068c-1.101 0-1.907.745-1.907 1.777V143h-1.231Zm7.875.164c-1.572 0-2.666-.697-2.939-2.017l1.169-.28c.219.841.841 1.217 1.757 1.217 1.066 0 1.75-.526 1.75-1.155 0-.527-.369-.875-1.121-1.053l-1.272-.301c-1.388-.328-2.051-1.012-2.051-2.085 0-1.312 1.203-2.228 2.83-2.228 1.573 0 2.4.765 2.748 1.839l-1.114.287c-.212-.547-.642-1.08-1.627-1.08-.909 0-1.593.471-1.593 1.107 0 .567.39.882 1.286 1.094l1.155.273c1.388.328 2.037 1.019 2.037 2.065 0 1.34-1.224 2.317-3.015 2.317Z" fill="#fff"/><path d="M36.102 180v-4.17l-3.746-6.016h1.503l2.017 3.289c.451.738.772 1.305 1.148 2.324h-.52c.377-1.039.705-1.62 1.136-2.324l2.01-3.289h1.497L37.4 175.83V180h-1.298Zm8.524.164c-2.078 0-3.48-1.579-3.48-3.937 0-2.393 1.402-3.965 3.48-3.965 2.085 0 3.493 1.572 3.493 3.965 0 2.358-1.408 3.937-3.493 3.937Zm0-1.101c1.545 0 2.249-1.333 2.249-2.836 0-1.518-.704-2.865-2.249-2.865-1.524 0-2.228 1.34-2.228 2.865 0 1.503.704 2.836 2.228 2.836Zm7.875 1.033c-1.545 0-2.59-.95-2.59-2.885v-4.854h1.23v4.751c0 1.176.663 1.88 1.73 1.88 1.093 0 1.92-.745 1.92-2.05v-4.581h1.237V180h-1.19v-1.853h.165c-.472 1.436-1.38 1.949-2.502 1.949Zm12.742.068c-2.078 0-3.48-1.579-3.48-3.937 0-2.393 1.402-3.965 3.48-3.965 1.477 0 2.68.779 3.097 2.112l-1.183.335c-.225-.786-.909-1.347-1.914-1.347-1.524 0-2.228 1.34-2.228 2.865 0 1.503.704 2.836 2.228 2.836 1.026 0 1.723-.581 1.948-1.408l1.176.335c-.41 1.361-1.627 2.174-3.124 2.174Zm7.164.014c-1.449 0-2.604-.848-2.604-2.352 0-1.75 1.558-2.071 2.973-2.249 1.36-.171 1.962-.13 1.962-.697v-.041c0-.95-.54-1.497-1.6-1.497-1.1 0-1.695.588-1.934 1.121l-1.182-.39c.587-1.387 1.9-1.811 3.082-1.811 1.026 0 2.865.314 2.865 2.7V180h-1.21v-1.039h-.082c-.26.54-.978 1.217-2.27 1.217Zm.212-1.087c1.36 0 2.12-.916 2.12-1.853v-1.059c-.206.239-1.546.376-2.017.437-.896.116-1.682.404-1.682 1.272 0 .793.663 1.203 1.58 1.203Zm6.74-3.671V180h-1.23v-7.643h1.182l.007 1.853h-.17c.464-1.408 1.353-1.948 2.508-1.948 1.545 0 2.591.95 2.591 2.884V180H83.01v-4.751c0-1.176-.657-1.88-1.723-1.88-1.1 0-1.928.745-1.928 2.051ZM90.352 180v-7.643h1.23V180h-1.23Zm.622-8.894c-.465 0-.855-.362-.855-.813 0-.451.39-.814.855-.814.471 0 .861.363.861.814 0 .451-.39.813-.861.813Zm3.999 4.314V180h-1.23v-7.643h1.182l.007 1.853h-.171c.465-1.408 1.353-1.948 2.508-1.948 1.545 0 2.591.95 2.591 2.884V180h-1.237v-4.751c0-1.176-.656-1.88-1.723-1.88-1.1 0-1.927.745-1.927 2.051Zm9.057 4.58-2.919-7.643h1.347l1.627 4.533c.342.943.554 1.886.82 2.761h-.451c.267-.875.472-1.818.814-2.761l1.627-4.533h1.346L105.322 180h-1.292Zm5.667 0v-7.643h1.231V180h-1.231Zm.622-8.894c-.465 0-.854-.362-.854-.813 0-.451.389-.814.854-.814.472 0 .862.363.862.814 0 .451-.39.813-.862.813Zm5.777 1.251v1.053h-3.951v-1.053h3.951Zm-2.803-1.818h1.23v7.479c0 .683.253.984.903.984.157 0 .424-.041.629-.082l.253 1.039a2.96 2.96 0 0 1-.916.137c-1.32 0-2.099-.732-2.099-1.983v-7.574Zm7.451 9.625c-2.215 0-3.582-1.572-3.582-3.924 0-2.344 1.354-3.978 3.439-3.978 1.62 0 3.329.998 3.329 3.821v.513h-5.934v-1.039h5.271l-.575.382c0-1.503-.711-2.584-2.091-2.584-1.381 0-2.195 1.142-2.195 2.386v.691c0 1.702.944 2.638 2.345 2.638.902 0 1.579-.396 1.866-1.175l1.19.328c-.356 1.155-1.497 1.941-3.063 1.941Zm11.027.014c-1.45 0-2.605-.848-2.605-2.352 0-1.75 1.559-2.071 2.974-2.249 1.36-.171 1.962-.13 1.962-.697v-.041c0-.95-.54-1.497-1.6-1.497-1.101 0-1.695.588-1.935 1.121l-1.182-.39c.588-1.387 1.9-1.811 3.083-1.811 1.025 0 2.864.314 2.864 2.7V180h-1.21v-1.039h-.082c-.26.54-.978 1.217-2.269 1.217Zm.211-1.087c1.361 0 2.12-.916 2.12-1.853v-1.059c-.206.239-1.545.376-2.017.437-.896.116-1.682.404-1.682 1.272 0 .793.663 1.203 1.579 1.203Zm10.678-3.671V180h-1.23v-7.643h1.182l.007 1.853h-.171c.465-1.408 1.354-1.948 2.509-1.948 1.545 0 2.591.95 2.591 2.884V180h-1.237v-4.751c0-1.176-.657-1.88-1.723-1.88-1.101 0-1.928.745-1.928 2.051Zm10.268 4.744c-2.215 0-3.582-1.572-3.582-3.924 0-2.344 1.353-3.978 3.438-3.978 1.62 0 3.329.998 3.329 3.821v.513h-5.933v-1.039h5.27l-.574.382c0-1.503-.711-2.584-2.092-2.584-1.381 0-2.194 1.142-2.194 2.386v.691c0 1.702.943 2.638 2.345 2.638.902 0 1.579-.396 1.866-1.175l1.189.328c-.355 1.155-1.497 1.941-3.062 1.941Zm6.405-.164-2.317-7.643h1.305l.93 3.336c.253.91.554 2.051.841 3.507h-.212c.273-1.394.56-2.536.827-3.507l.916-3.336h1.313l.902 3.336c.253.937.54 2.078.813 3.507h-.218c.287-1.415.581-2.55.847-3.507l.93-3.336h1.306L165.198 180h-1.223l-.992-3.459a73.473 73.473 0 0 1-.854-3.363h.273a69.714 69.714 0 0 1-.854 3.363l-.991 3.459h-1.224Zm13.679 0v-7.643h1.196l.007 1.709h-.096c.308-1.237 1.244-1.845 2.235-1.845 1.108 0 1.812.752 2.017 1.859h-.164c.273-1.142 1.285-1.859 2.502-1.859 1.326 0 2.406.854 2.406 2.625V180h-1.237v-5.12c0-1.101-.718-1.538-1.538-1.538-1.032 0-1.661.704-1.661 1.668V180h-1.231v-5.243c0-.848-.636-1.415-1.497-1.415-.895 0-1.709.629-1.709 1.846V180h-1.23Zm15.476.164c-2.215 0-3.582-1.572-3.582-3.924 0-2.344 1.354-3.978 3.439-3.978 1.62 0 3.329.998 3.329 3.821v.513h-5.934v-1.039h5.271l-.574.382c0-1.503-.711-2.584-2.092-2.584-1.381 0-2.195 1.142-2.195 2.386v.691c0 1.702.944 2.638 2.345 2.638.902 0 1.579-.396 1.866-1.175l1.19.328c-.356 1.155-1.497 1.941-3.063 1.941Zm4.95-.164v-7.643h1.196l.007 1.709h-.096c.308-1.237 1.244-1.845 2.235-1.845 1.108 0 1.812.752 2.017 1.859h-.164c.273-1.142 1.285-1.859 2.502-1.859 1.326 0 2.406.854 2.406 2.625V180h-1.237v-5.12c0-1.101-.718-1.538-1.538-1.538-1.033 0-1.662.704-1.662 1.668V180h-1.23v-5.243c0-.848-.636-1.415-1.497-1.415-.896 0-1.709.629-1.709 1.846V180h-1.23Zm15.811.164c-1.456 0-1.969-.923-2.222-1.347h-.136V180h-1.19v-10.186h1.231v3.767h.095c.253-.403.725-1.319 2.215-1.319 1.907 0 3.24 1.517 3.24 3.937 0 2.434-1.326 3.965-3.233 3.965Zm-.185-1.101c1.429 0 2.167-1.271 2.167-2.877 0-1.586-.717-2.824-2.167-2.824-1.408 0-2.146 1.135-2.146 2.824 0 1.702.759 2.877 2.146 2.877Zm8.422 1.101c-2.215 0-3.582-1.572-3.582-3.924 0-2.344 1.354-3.978 3.439-3.978 1.62 0 3.329.998 3.329 3.821v.513h-5.934v-1.039h5.271l-.574.382c0-1.503-.711-2.584-2.092-2.584-1.381 0-2.195 1.142-2.195 2.386v.691c0 1.702.944 2.638 2.345 2.638.903 0 1.579-.396 1.866-1.175l1.19.328c-.356 1.155-1.497 1.941-3.063 1.941Zm4.95-.164v-7.643h1.189v1.176h.082c.28-.772 1.073-1.285 1.982-1.285.178 0 .479.014.623.021v1.237a4.65 4.65 0 0 0-.739-.068c-1.1 0-1.907.745-1.907 1.777V180h-1.23Zm12.222-7.643v1.053h-3.951v-1.053h3.951Zm-2.803-1.818h1.231v7.479c0 .683.253.984.902.984.158 0 .424-.041.629-.082l.253 1.039a2.956 2.956 0 0 1-.916.137c-1.319 0-2.099-.732-2.099-1.983v-7.574Zm7.349 9.625c-2.078 0-3.479-1.579-3.479-3.937 0-2.393 1.401-3.965 3.479-3.965 2.085 0 3.493 1.572 3.493 3.965 0 2.358-1.408 3.937-3.493 3.937Zm0-1.101c1.545 0 2.249-1.333 2.249-2.836 0-1.518-.704-2.865-2.249-2.865-1.524 0-2.228 1.34-2.228 2.865 0 1.503.704 2.836 2.228 2.836Zm9.024.937v-10.186h4.026c2.317 0 3.664 1.436 3.664 3.466 0 2.037-1.374 3.439-3.719 3.439h-2.556v-1.75h2.201c1.23 0 1.825-.691 1.825-1.689 0-1.011-.595-1.675-1.832-1.675h-1.429V180h-2.18Zm10.985.15c-1.456 0-2.529-.765-2.529-2.283 0-1.702 1.353-2.215 2.871-2.358 1.305-.123 1.839-.185 1.839-.677v-.034c0-.615-.417-.971-1.156-.971-.752 0-1.23.369-1.381.861l-1.955-.307c.356-1.319 1.586-2.119 3.35-2.119 1.709 0 3.281.786 3.281 2.584V180h-2.023v-1.06h-.069c-.382.732-1.114 1.21-2.228 1.21Zm.622-1.476c.916 0 1.572-.609 1.572-1.402v-.799c-.253.164-1.011.273-1.456.341-.745.103-1.223.404-1.223.985 0 .574.458.875 1.107.875Zm5.407-6.317h2.14v8.019c.007 1.791-1.114 2.481-2.912 2.481h-.438v-1.668h.28c.684 0 .93-.28.93-.847v-7.985Zm1.073-.963c-.635 0-1.155-.486-1.155-1.081 0-.601.52-1.08 1.155-1.08.636 0 1.156.479 1.156 1.08 0 .595-.52 1.081-1.156 1.081Zm4.902 8.756c-1.456 0-2.529-.765-2.529-2.283 0-1.702 1.353-2.215 2.871-2.358 1.305-.123 1.838-.185 1.838-.677v-.034c0-.615-.417-.971-1.155-.971-.752 0-1.23.369-1.381.861l-1.955-.307c.356-1.319 1.586-2.119 3.35-2.119 1.709 0 3.281.786 3.281 2.584V180h-2.023v-1.06h-.069c-.383.732-1.114 1.21-2.228 1.21Zm.622-1.476c.916 0 1.572-.609 1.572-1.402v-.799c-.253.164-1.012.273-1.456.341-.745.103-1.224.404-1.224.985 0 .574.458.875 1.108.875Zm5.407 1.326v-7.643h1.983l.109 1.928h-.15c.341-1.435 1.285-2.037 2.317-2.037 1.087 0 1.75.677 2.078 2.174h-.246c.349-1.511 1.429-2.174 2.598-2.174 1.408 0 2.44.95 2.44 2.598V180h-2.146v-4.717c0-.841-.5-1.258-1.169-1.258-.752 0-1.217.527-1.217 1.306V180h-2.065v-4.765c0-.738-.478-1.21-1.155-1.21-.704 0-1.237.493-1.237 1.381V180h-2.14Zm14.971.15c-1.456 0-2.529-.765-2.529-2.283 0-1.702 1.353-2.215 2.871-2.358 1.305-.123 1.838-.185 1.838-.677v-.034c0-.615-.417-.971-1.155-.971-.752 0-1.23.369-1.381.861l-1.955-.307c.356-1.319 1.586-2.119 3.35-2.119 1.709 0 3.281.786 3.281 2.584V180h-2.023v-1.06h-.069c-.383.732-1.114 1.21-2.228 1.21Zm.622-1.476c.916 0 1.572-.609 1.572-1.402v-.799c-.253.164-1.012.273-1.456.341-.745.103-1.224.404-1.224.985 0 .574.458.875 1.108.875Zm8.49 1.476c-1.873 0-3.158-.834-3.425-2.262l1.996-.335c.192.697.663 1.052 1.497 1.052.752 0 1.217-.314 1.217-.751 0-.39-.314-.623-.977-.759l-1.32-.267c-1.483-.301-2.214-1.025-2.214-2.181 0-1.476 1.285-2.385 3.247-2.385 1.845 0 2.96.8 3.24 2.064l-1.894.321c-.157-.519-.594-.861-1.305-.861-.65 0-1.149.294-1.149.732 0 .362.246.622.95.765l1.395.274c1.49.3 2.208.97 2.208 2.064 0 1.525-1.436 2.529-3.466 2.529Zm11.737-.15h-2.659v-1.866h2.557c1.9 0 2.912-.964 2.912-3.227 0-2.262-1.012-3.219-2.912-3.219h-2.605v-1.874h2.735c3.069 0 4.949 1.915 4.949 5.093 0 3.179-1.88 5.093-4.977 5.093Zm-1.449-10.186V180h-2.18v-10.186h2.18Zm11.389 10.336c-2.359 0-3.801-1.504-3.801-3.93 0-2.359 1.449-3.958 3.698-3.958 2.037 0 3.617 1.299 3.617 3.883v.587h-6.467v-1.319h5.427l-1.004.342c0-1.155-.527-1.894-1.552-1.894-1.032 0-1.6.759-1.6 1.812v.936c0 1.286.684 1.949 1.716 1.949.697 0 1.224-.301 1.436-.869l1.927.342c-.376 1.285-1.606 2.119-3.397 2.119Zm7.964 0c-1.873 0-3.158-.834-3.425-2.262l1.996-.335c.191.697.663 1.052 1.497 1.052.752 0 1.217-.314 1.217-.751 0-.39-.315-.623-.978-.759l-1.319-.267c-1.483-.301-2.215-1.025-2.215-2.181 0-1.476 1.285-2.385 3.247-2.385 1.846 0 2.96.8 3.24 2.064l-1.893.321c-.157-.519-.595-.861-1.306-.861-.649 0-1.148.294-1.148.732 0 .362.246.622.95.765l1.395.274c1.49.3 2.208.97 2.208 2.064 0 1.525-1.436 2.529-3.466 2.529Zm4.819-.15v-7.643h2.14V180h-2.14Zm1.066-8.606c-.628 0-1.148-.486-1.148-1.081 0-.601.52-1.08 1.148-1.08.636 0 1.163.479 1.163 1.08 0 .595-.527 1.081-1.163 1.081Zm6.207 11.627c-1.934 0-3.151-.786-3.465-1.907l1.845-.471c.178.423.65.847 1.607.847 1.025 0 1.634-.458 1.634-1.442v-1.395h-.164c-.281.643-.896 1.244-2.106 1.244-1.709 0-3.097-1.182-3.097-3.725 0-2.605 1.429-3.91 3.104-3.91 1.265 0 1.907.759 2.194 1.394h.075v-1.299h2.113v7.554c0 2.078-1.552 3.11-3.74 3.11Zm.042-4.737c1.011 0 1.585-.793 1.585-2.126 0-1.326-.567-2.187-1.585-2.187-1.033 0-1.586.902-1.586 2.187 0 1.306.56 2.126 1.586 2.126Zm7.54-2.686V180h-2.14v-7.643h2.017l.041 1.914h-.124c.397-1.25 1.19-2.009 2.496-2.009 1.592 0 2.638 1.107 2.638 2.878V180h-2.146v-4.471c0-.929-.506-1.483-1.347-1.483-.848 0-1.435.574-1.435 1.552Zm13.706 4.552c-2.482 0-4.068-1.148-4.122-3.363h2.105c.068 1.025.868 1.531 1.989 1.531 1.08 0 1.784-.499 1.784-1.237 0-.67-.615-.984-1.722-1.251l-1.108-.273c-1.736-.417-2.782-1.286-2.782-2.789 0-1.846 1.634-3.09 3.869-3.09 2.29 0 3.774 1.264 3.801 3.083h-2.099c-.075-.8-.697-1.258-1.715-1.258-1.039 0-1.614.478-1.614 1.128 0 .718.718 1.039 1.593 1.244l.909.219c1.784.403 3.063 1.305 3.063 2.994 0 1.88-1.47 3.062-3.951 3.062Zm5.311 2.55.492-1.599.26.075c.841.219 1.415-.041 1.463-.766l.048-.389-2.871-7.664h2.269l1.251 3.911c.308 1.004.451 1.989.704 3.103h-.478c.239-1.114.465-2.112.793-3.103l1.312-3.911h2.242l-3.233 8.518c-.465 1.237-1.278 2.037-2.864 2.037-.554 0-1.073-.089-1.388-.212Zm11.621-2.55c-1.873 0-3.158-.834-3.425-2.262l1.997-.335c.191.697.663 1.052 1.497 1.052.752 0 1.216-.314 1.216-.751 0-.39-.314-.623-.977-.759l-1.319-.267c-1.484-.301-2.215-1.025-2.215-2.181 0-1.476 1.285-2.385 3.247-2.385 1.845 0 2.96.8 3.24 2.064l-1.894.321c-.157-.519-.594-.861-1.305-.861-.65 0-1.149.294-1.149.732 0 .362.246.622.951.765l1.394.274c1.49.3 2.208.97 2.208 2.064 0 1.525-1.436 2.529-3.466 2.529Zm8.702-7.793v1.621h-4.593v-1.621h4.593Zm-3.554-1.818h2.139v7.198c0 .465.199.684.677.684.157 0 .506-.055.65-.089l.3 1.593c-.478.137-.95.184-1.374.184-1.558 0-2.392-.765-2.392-2.18v-7.39Zm8.244 9.611c-2.359 0-3.801-1.504-3.801-3.93 0-2.359 1.449-3.958 3.698-3.958 2.037 0 3.617 1.299 3.617 3.883v.587h-6.467v-1.319h5.427l-1.004.342c0-1.155-.527-1.894-1.552-1.894-1.032 0-1.6.759-1.6 1.812v.936c0 1.286.684 1.949 1.716 1.949.697 0 1.224-.301 1.436-.869l1.927.342c-.376 1.285-1.606 2.119-3.397 2.119Zm4.881-.15v-7.643h1.982l.109 1.928h-.15c.342-1.435 1.285-2.037 2.317-2.037 1.087 0 1.75.677 2.079 2.174h-.246c.348-1.511 1.428-2.174 2.597-2.174 1.408 0 2.441.95 2.441 2.598V180h-2.147v-4.717c0-.841-.499-1.258-1.169-1.258-.752 0-1.217.527-1.217 1.306V180h-2.064v-4.765c0-.738-.479-1.21-1.155-1.21-.704 0-1.238.493-1.238 1.381V180h-2.139Zm20.118.164c-2.078 0-3.48-1.579-3.48-3.937 0-2.393 1.402-3.965 3.48-3.965 2.085 0 3.493 1.572 3.493 3.965 0 2.358-1.408 3.937-3.493 3.937Zm0-1.101c1.545 0 2.249-1.333 2.249-2.836 0-1.518-.704-2.865-2.249-2.865-1.525 0-2.229 1.34-2.229 2.865 0 1.503.704 2.836 2.229 2.836Zm5.284.937v-7.643h1.189v1.176h.083c.28-.772 1.073-1.285 1.982-1.285.178 0 .478.014.622.021v1.237a4.619 4.619 0 0 0-.738-.068c-1.101 0-1.907.745-1.907 1.777V180h-1.231Zm9.215 0v-7.643h1.23V180h-1.23Zm.622-8.894c-.465 0-.855-.362-.855-.813 0-.451.39-.814.855-.814.472 0 .861.363.861.814 0 .451-.389.813-.861.813Zm3.999 4.314V180h-1.231v-7.643h1.183l.007 1.853h-.171c.465-1.408 1.354-1.948 2.509-1.948 1.545 0 2.591.95 2.591 2.884V180h-1.238v-4.751c0-1.176-.656-1.88-1.722-1.88-1.101 0-1.928.745-1.928 2.051Zm9.058 4.58-2.919-7.643h1.346l1.627 4.533c.342.943.554 1.886.821 2.761h-.452c.267-.875.472-1.818.814-2.761l1.627-4.533h1.347L449.143 180h-1.292Zm5.667 0v-7.643h1.23V180h-1.23Zm.622-8.894c-.465 0-.855-.362-.855-.813 0-.451.39-.814.855-.814.471 0 .861.363.861.814 0 .451-.39.813-.861.813Zm5.776 1.251v1.053h-3.951v-1.053h3.951Zm-2.803-1.818h1.231v7.479c0 .683.253.984.902.984.157 0 .424-.041.629-.082l.253 1.039a2.96 2.96 0 0 1-.916.137c-1.319 0-2.099-.732-2.099-1.983v-7.574Zm7.451 9.625c-2.214 0-3.582-1.572-3.582-3.924 0-2.344 1.354-3.978 3.439-3.978 1.62 0 3.329.998 3.329 3.821v.513h-5.934v-1.039h5.271l-.574.382c0-1.503-.711-2.584-2.092-2.584-1.381 0-2.194 1.142-2.194 2.386v.691c0 1.702.943 2.638 2.344 2.638.903 0 1.579-.396 1.867-1.175l1.189.328c-.356 1.155-1.497 1.941-3.063 1.941Zm11.027.014c-1.449 0-2.605-.848-2.605-2.352 0-1.75 1.559-2.071 2.974-2.249 1.36-.171 1.962-.13 1.962-.697v-.041c0-.95-.54-1.497-1.6-1.497-1.1 0-1.695.588-1.934 1.121l-1.183-.39c.588-1.387 1.9-1.811 3.083-1.811 1.025 0 2.864.314 2.864 2.7V180h-1.21v-1.039h-.082c-.259.54-.977 1.217-2.269 1.217Zm.212-1.087c1.36 0 2.119-.916 2.119-1.853v-1.059c-.205.239-1.545.376-2.017.437-.895.116-1.681.404-1.681 1.272 0 .793.663 1.203 1.579 1.203Zm6.74-3.671V180h-1.231v-7.643h1.183l.007 1.853h-.171c.465-1.408 1.354-1.948 2.509-1.948 1.545 0 2.591.95 2.591 2.884V180h-1.238v-4.751c0-1.176-.656-1.88-1.722-1.88-1.101 0-1.928.745-1.928 2.051Zm10.165 4.744c-2.078 0-3.479-1.579-3.479-3.937 0-2.393 1.401-3.965 3.479-3.965 2.085 0 3.493 1.572 3.493 3.965 0 2.358-1.408 3.937-3.493 3.937Zm0-1.101c1.545 0 2.249-1.333 2.249-2.836 0-1.518-.704-2.865-2.249-2.865-1.524 0-2.229 1.34-2.229 2.865 0 1.503.705 2.836 2.229 2.836Zm8.292-6.706v1.053h-3.951v-1.053H501Zm-2.803-1.818h1.231v7.479c0 .683.253.984.902.984.157 0 .424-.041.629-.082l.253 1.039a2.96 2.96 0 0 1-.916.137c-1.319 0-2.099-.732-2.099-1.983v-7.574Zm5.606 4.881V180h-1.231v-10.186h1.231v4.396h-.212c.465-1.408 1.353-1.948 2.509-1.948 1.545 0 2.59.95 2.59 2.884V180h-1.237v-4.751c0-1.176-.656-1.88-1.723-1.88-1.1 0-1.927.745-1.927 2.051Zm10.267 4.744c-2.215 0-3.582-1.572-3.582-3.924 0-2.344 1.354-3.978 3.439-3.978 1.62 0 3.329.998 3.329 3.821v.513h-5.934v-1.039h5.271l-.574.382c0-1.503-.711-2.584-2.092-2.584-1.381 0-2.195 1.142-2.195 2.386v.691c0 1.702.944 2.638 2.345 2.638.902 0 1.579-.396 1.866-1.175l1.19.328c-.356 1.155-1.497 1.941-3.063 1.941Zm4.95-.164v-7.643h1.189v1.176h.082c.28-.772 1.073-1.285 1.982-1.285.178 0 .479.014.623.021v1.237a4.65 4.65 0 0 0-.739-.068c-1.1 0-1.907.745-1.907 1.777V180h-1.23Zm12.311 3.021c-1.695 0-2.673-.717-3.144-1.558l.998-.643c.321.445.799 1.128 2.146 1.128 1.217 0 2.099-.56 2.099-1.818v-1.531h-.117c-.259.437-.745 1.278-2.221 1.278-1.832 0-3.227-1.333-3.227-3.732 0-2.366 1.347-3.883 3.254-3.883 1.477 0 1.969.909 2.229 1.319h.116v-1.224h1.196v7.841c0 1.976-1.47 2.823-3.329 2.823Zm-.034-4.238c1.388 0 2.146-.998 2.146-2.666 0-1.62-.738-2.755-2.146-2.755-1.456 0-2.181 1.231-2.181 2.755 0 1.572.745 2.666 2.181 2.666ZM536.82 180v-7.643h1.19v1.176h.082c.28-.772 1.073-1.285 1.982-1.285.178 0 .479.014.622.021v1.237a4.619 4.619 0 0 0-.738-.068c-1.101 0-1.907.745-1.907 1.777V180h-1.231Zm8.156.164c-2.079 0-3.48-1.579-3.48-3.937 0-2.393 1.401-3.965 3.48-3.965 2.085 0 3.493 1.572 3.493 3.965 0 2.358-1.408 3.937-3.493 3.937Zm0-1.101c1.545 0 2.249-1.333 2.249-2.836 0-1.518-.704-2.865-2.249-2.865-1.525 0-2.229 1.34-2.229 2.865 0 1.503.704 2.836 2.229 2.836Zm7.875 1.033c-1.545 0-2.591-.95-2.591-2.885v-4.854h1.23v4.751c0 1.176.663 1.88 1.73 1.88 1.093 0 1.921-.745 1.921-2.05v-4.581h1.237V180h-1.19v-1.853h.165c-.472 1.436-1.381 1.949-2.502 1.949Zm5.694 2.761v-10.5h1.189v1.224h.137c.253-.403.725-1.319 2.215-1.319 1.907 0 3.24 1.517 3.24 3.937 0 2.434-1.326 3.965-3.233 3.965-1.456 0-1.969-.923-2.222-1.347h-.096v4.04h-1.23Zm3.363-3.794c1.429 0 2.167-1.271 2.167-2.877 0-1.586-.718-2.824-2.167-2.824-1.408 0-2.146 1.135-2.146 2.824 0 1.702.759 2.877 2.146 2.877Zm6.139 1.026a.92.92 0 1 1 .923-.923.923.923 0 0 1-.923.923Z" fill="#434248"/><path d="M33.758 149v-21.826h8.408c4.82 0 7.837 2.71 7.837 7.031 0 4.307-3.09 7.017-7.91 7.017h-6.138v-3.399h5.977c2.548 0 4.13-1.391 4.13-3.618 0-2.241-1.581-3.618-4.13-3.618h-4.146V149h-4.028Zm18.186 0v-15.469h3.691v2.593h.044c.572-1.787 1.744-2.725 3.75-2.725.498 0 .909.03 1.231.044v3.369a19.076 19.076 0 0 0-1.772-.102c-1.758 0-3.12 1.216-3.12 3.618V149h-3.824Zm17.249.352c-4.585 0-7.69-3.252-7.69-8.057 0-4.834 3.105-8.115 7.69-8.115 4.585 0 7.676 3.281 7.676 8.115 0 4.805-3.091 8.057-7.676 8.057Zm0-3.179c2.314 0 3.794-1.846 3.794-4.878 0-3.062-1.494-4.922-3.794-4.922-2.314 0-3.809 1.86-3.809 4.922 0 3.032 1.48 4.878 3.809 4.878Zm9.895-12.642h3.838v17.007c0 2.827-1.684 4.585-4.892 4.585H76.48v-3.091h.937c1.172 0 1.67-.571 1.67-1.948v-16.553Zm1.92-2.314c-1.231 0-2.227-.967-2.227-2.168s.996-2.153 2.226-2.153 2.212.952 2.212 2.153-.981 2.168-2.212 2.168Zm11.755 18.135c-4.658 0-7.603-3.37-7.603-8.057 0-4.717 3.091-8.115 7.442-8.115 4.482 0 7.456 3.31 7.456 8.042v1.04H86.64v-2.593h11.528l-1.728.674c0-2.534-1.465-4.146-3.765-4.146-2.314 0-3.765 1.612-3.765 4.146v1.67c0 2.607 1.421 4.365 3.94 4.365 1.817 0 3.048-.864 3.458-2.168h3.574c-.586 3.032-3.472 5.142-7.12 5.142Zm16.355 0c-4.57 0-7.617-3.296-7.617-8.057 0-4.79 3.061-8.115 7.617-8.115 3.926 0 6.753 2.475 7.075 5.947h-3.75c-.263-1.641-1.406-2.769-3.281-2.769-2.373 0-3.779 1.919-3.779 4.937 0 2.988 1.406 4.893 3.779 4.893 1.89 0 2.915-1.099 3.252-2.798h3.779c-.263 3.442-3.12 5.962-7.075 5.962Zm17.527-15.821v3.076h-9.682v-3.076h9.682Zm-6.987-4.219h3.823v15.191c0 1.084.366 1.435 1.568 1.435h1.596V149h-2.285c-3.223 0-4.702-1.245-4.702-3.94v-15.748ZM135.069 149v-15.469h3.706v3.399h-.279c.821-2.476 2.769-3.706 4.937-3.706 2.373 0 4.277 1.494 4.658 3.706h-.469c.601-2.227 2.637-3.706 5.201-3.706 2.929 0 5.171 1.948 5.171 5.566V149h-3.824v-9.624c0-2.007-1.259-2.915-2.812-2.915-1.831 0-2.974 1.274-2.974 3.091V149h-3.706v-9.785c0-1.67-1.142-2.754-2.754-2.754-1.655 0-3.032 1.172-3.032 3.34V149h-3.823Zm32.747.352c-4.659 0-7.603-3.37-7.603-8.057 0-4.717 3.091-8.115 7.441-8.115 4.483 0 7.457 3.31 7.457 8.042v1.04h-13.418v-2.593h11.528l-1.729.674c0-2.534-1.464-4.146-3.764-4.146-2.315 0-3.765 1.612-3.765 4.146v1.67c0 2.607 1.421 4.365 3.941 4.365 1.816 0 3.046-.864 3.457-2.168h3.574c-.586 3.032-3.472 5.142-7.119 5.142Zm9.455-.352v-15.469h3.707v3.399h-.279c.821-2.476 2.769-3.706 4.937-3.706 2.373 0 4.277 1.494 4.658 3.706h-.469c.601-2.227 2.637-3.706 5.2-3.706 2.93 0 5.171 1.948 5.171 5.566V149h-3.823v-9.624c0-2.007-1.26-2.915-2.812-2.915-1.832 0-2.974 1.274-2.974 3.091V149h-3.706v-9.785c0-1.67-1.143-2.754-2.754-2.754-1.655 0-3.032 1.172-3.032 3.34V149h-3.824Zm34.315.322c-2.022 0-3.706-.879-4.658-2.68h-.03V149h-3.764v-21.826h3.823v8.54h.029c.996-1.685 2.622-2.49 4.629-2.49 3.97 0 6.68 3.281 6.68 8.042 0 4.819-2.666 8.056-6.709 8.056Zm-.923-3.178c2.256 0 3.75-1.744 3.75-4.878 0-3.135-1.494-4.878-3.75-4.878-2.359 0-3.911 1.919-3.911 4.878s1.552 4.878 3.911 4.878Zm16.751 3.208c-4.659 0-7.603-3.37-7.603-8.057 0-4.717 3.091-8.115 7.442-8.115 4.482 0 7.456 3.31 7.456 8.042v1.04h-13.418v-2.593h11.528l-1.729.674c0-2.534-1.464-4.146-3.764-4.146-2.315 0-3.765 1.612-3.765 4.146v1.67c0 2.607 1.421 4.365 3.941 4.365 1.816 0 3.046-.864 3.457-2.168h3.574c-.586 3.032-3.472 5.142-7.119 5.142Zm9.456-.352v-15.469h3.691v2.593h.044c.571-1.787 1.743-2.725 3.75-2.725.498 0 .908.03 1.23.044v3.369a19.058 19.058 0 0 0-1.772-.102c-1.758 0-3.12 1.216-3.12 3.618V149h-3.823Zm16.648.381c-3.823 0-6.636-1.846-6.87-5.171h3.779c.161 1.479 1.216 2.329 3.032 2.329 1.743 0 2.813-.762 2.813-1.831 0-.894-.806-1.436-2.095-1.714l-2.651-.527c-2.974-.615-4.527-2.124-4.527-4.483 0-2.856 2.461-4.775 6.299-4.775 3.809 0 6.387 1.978 6.475 5.156h-3.589c-.03-1.333-1.143-2.329-2.798-2.329-1.582 0-2.564.806-2.564 1.817 0 .893.748 1.45 2.007 1.728l2.827.571c3.077.645 4.483 1.993 4.483 4.248 0 3.047-2.739 4.981-6.621 4.981Z" fill="#1F1E24"/><path stroke="#7B58CF" stroke-width="2" stroke-linecap="round" d="M88 45v78m22 139v22m255-37v38M296 45v118m370-94v62"/><rect x="16" y="16" width="170" height="28" rx="4" fill="#ECECEF"/><rect x="24" y="22" width="16" height="16" rx="2" fill="#1F1E24"/><path d="M52.502 34c-.544 0-.98-.156-1.308-.468-.328-.32-.492-.744-.492-1.272v-3.876h-1.896V27.4h1.896v-1.86h1.08v1.86h2.7v.984h-2.7v3.876a.8.8 0 0 0 .192.552.714.714 0 0 0 .528.204h1.92V34h-1.92Zm6.535.12c-.52 0-.975-.104-1.367-.312a2.296 2.296 0 0 1-.9-.912c-.217-.4-.325-.872-.325-1.416v-1.56c0-.552.108-1.024.325-1.416.215-.392.515-.692.9-.9.392-.216.847-.324 1.367-.324s.973.104 1.357.312c.392.208.696.5.912.876.216.376.324.82.324 1.332v1.176H57.5v.624c0 .488.14.876.42 1.164.28.28.653.42 1.117.42.4 0 .728-.076.984-.228.264-.16.424-.372.48-.636h1.08c-.072.552-.34.992-.804 1.32-.465.32-1.044.48-1.74.48Zm1.537-3.876V29.8c0-.52-.136-.92-.408-1.2-.264-.288-.64-.432-1.128-.432-.488 0-.868.144-1.14.432-.265.28-.397.68-.397 1.2v.336h3.157l-.084.108ZM63.233 34l2.34-3.396-2.196-3.204h1.272l1.308 2.04c.056.088.108.184.156.288.056.104.1.188.132.252.024-.064.06-.148.108-.252.056-.104.112-.2.168-.288l1.308-2.04H69.1l-2.196 3.216L69.233 34H67.96l-1.416-2.16a3.356 3.356 0 0 1-.168-.3 2.599 2.599 0 0 0-.132-.288c-.032.072-.08.168-.144.288a2.125 2.125 0 0 1-.18.3L64.505 34h-1.272Zm10.855 0c-.544 0-.98-.156-1.308-.468-.328-.32-.492-.744-.492-1.272v-3.876h-1.896V27.4h1.896v-1.86h1.08v1.86h2.7v.984h-2.7v3.876a.8.8 0 0 0 .192.552.714.714 0 0 0 .528.204h1.92V34h-1.92Zm6.535.12c-.296 0-.536-.088-.72-.264a.925.925 0 0 1-.264-.684c0-.296.088-.536.264-.72.184-.184.424-.276.72-.276s.532.092.708.276c.184.184.276.424.276.72 0 .28-.092.508-.276.684-.176.176-.412.264-.708.264Zm7.292 0c-.528 0-.992-.1-1.392-.3-.392-.2-.7-.488-.924-.864-.216-.384-.324-.836-.324-1.356v-1.8c0-.528.108-.98.324-1.356.224-.376.532-.664.924-.864.4-.2.864-.3 1.392-.3.76 0 1.372.204 1.836.612.472.408.72.964.744 1.668h-1.08c-.024-.424-.168-.748-.432-.972-.264-.232-.62-.348-1.068-.348-.472 0-.852.136-1.14.408-.28.264-.42.644-.42 1.14V31.6c0 .496.14.88.42 1.152.288.272.668.408 1.14.408.448 0 .804-.116 1.068-.348.264-.232.408-.556.432-.972h1.08c-.024.704-.272 1.26-.744 1.668-.464.408-1.076.612-1.836.612Zm7.1-.024c-.529 0-.989-.104-1.38-.312a2.216 2.216 0 0 1-.9-.9c-.209-.4-.313-.876-.313-1.428v-1.512c0-.56.104-1.036.312-1.428.216-.392.516-.692.9-.9.392-.208.852-.312 1.38-.312.536 0 .996.104 1.38.312.384.208.68.508.888.9.216.392.324.868.324 1.428v1.512c0 .552-.108 1.028-.324 1.428a2.124 2.124 0 0 1-.9.9c-.384.208-.84.312-1.368.312Zm0-.96c.471 0 .84-.132 1.103-.396.272-.264.408-.652.408-1.164v-1.752c0-.512-.136-.9-.408-1.164-.264-.264-.632-.396-1.104-.396-.464 0-.832.132-1.104.396-.272.264-.408.652-.408 1.164v1.752c0 .512.136.9.408 1.164.272.264.64.396 1.104.396Zm8.154.864a2.13 2.13 0 0 1-1.008-.228 1.639 1.639 0 0 1-.672-.648 1.95 1.95 0 0 1-.24-.984v-5.916h-2.28v-.984h3.36v6.9c0 .272.076.488.228.648.152.152.356.228.612.228h2.04V34h-2.04Zm6.236.096c-.528 0-.988-.104-1.38-.312a2.216 2.216 0 0 1-.9-.9c-.208-.4-.312-.876-.312-1.428v-1.512c0-.56.104-1.036.312-1.428.216-.392.516-.692.9-.9.392-.208.852-.312 1.38-.312.536 0 .996.104 1.38.312.384.208.68.508.888.9.216.392.324.868.324 1.428v1.512c0 .552-.108 1.028-.324 1.428a2.124 2.124 0 0 1-.9.9c-.384.208-.84.312-1.368.312Zm0-.96c.472 0 .84-.132 1.104-.396.272-.264.408-.652.408-1.164v-1.752c0-.512-.136-.9-.408-1.164-.264-.264-.632-.396-1.104-.396-.464 0-.832.132-1.104.396-.272.264-.408.652-.408 1.164v1.752c0 .512.136.9.408 1.164.272.264.64.396 1.104.396Zm4.939.864v-6.6h1.08v1.26h.228l-.228.288c0-.512.156-.916.468-1.212.32-.304.76-.456 1.32-.456.688 0 1.216.208 1.584.624.376.408.564.992.564 1.752v.564h-1.08v-.564c0-.488-.12-.848-.36-1.08-.24-.24-.588-.36-1.044-.36-.472 0-.832.136-1.08.408-.248.272-.372.664-.372 1.176V34h-1.08Zm9.451.12c-.296 0-.536-.088-.72-.264a.925.925 0 0 1-.264-.684c0-.296.088-.536.264-.72.184-.184.424-.276.72-.276s.532.092.708.276c.184.184.276.424.276.72 0 .28-.092.508-.276.684-.176.176-.412.264-.708.264Zm4.7-.12v-8.76h1.08v3.42h.228l-.228.252c0-.52.156-.92.468-1.2.312-.288.744-.432 1.296-.432.664 0 1.192.204 1.584.612.392.408.588.964.588 1.668V34h-1.08v-4.26c0-.496-.128-.876-.384-1.14-.248-.272-.588-.408-1.02-.408-.448 0-.804.14-1.068.42-.256.28-.384.676-.384 1.188V34h-1.08Zm9.691.12c-.52 0-.976-.104-1.368-.312a2.296 2.296 0 0 1-.9-.912c-.216-.4-.324-.872-.324-1.416v-1.56c0-.552.108-1.024.324-1.416.216-.392.516-.692.9-.9.392-.216.848-.324 1.368-.324.52 0 .972.104 1.356.312.392.208.696.5.912.876.216.376.324.82.324 1.332v1.176h-4.128v.624c0 .488.14.876.42 1.164.28.28.652.42 1.116.42.4 0 .728-.076.984-.228.264-.16.424-.372.48-.636h1.08c-.072.552-.34.992-.804 1.32-.464.32-1.044.48-1.74.48Zm1.536-3.876V29.8c0-.52-.136-.92-.408-1.2-.264-.288-.64-.432-1.128-.432-.488 0-.868.144-1.14.432-.264.28-.396.68-.396 1.2v.336h3.156l-.084.108Zm5.083 3.876c-.68 0-1.22-.188-1.62-.564-.4-.384-.6-.884-.6-1.5 0-.408.092-.764.276-1.068.184-.304.44-.54.768-.708a2.349 2.349 0 0 1 1.128-.264h2.04V29.5c0-.432-.116-.752-.348-.96-.232-.216-.584-.324-1.056-.324-.416 0-.752.076-1.008.228-.256.152-.392.364-.408.636h-1.08c.04-.52.28-.948.72-1.284.448-.344 1.04-.516 1.776-.516.8 0 1.412.192 1.836.576.432.384.648.92.648 1.608V34h-1.068v-1.2h-.18l.168-.24c0 .32-.08.596-.24.828-.16.232-.388.412-.684.54-.296.128-.652.192-1.068.192Zm.264-.912c.528 0 .948-.128 1.26-.384.312-.256.468-.604.468-1.044v-.924h-1.92c-.352 0-.64.108-.864.324-.216.208-.324.488-.324.84 0 .368.12.66.36.876.248.208.588.312 1.02.312Zm7.124.912c-.656 0-1.184-.22-1.584-.66-.392-.44-.588-1.036-.588-1.788V29.74c0-.76.196-1.36.588-1.8.392-.44.92-.66 1.584-.66.544 0 .984.148 1.32.444.336.296.504.692.504 1.188l-.24-.252h.24l-.024-1.5v-1.92h1.08V34h-1.08v-1.26h-.216l.216-.252c0 .504-.164.904-.492 1.2-.328.288-.764.432-1.308.432Zm.36-.936c.448 0 .8-.14 1.056-.42.256-.28.384-.668.384-1.164v-1.8c0-.496-.128-.884-.384-1.164-.256-.28-.608-.42-1.056-.42-.456 0-.812.12-1.068.36-.256.232-.384.62-.384 1.164v1.92c0 .536.128.924.384 1.164.256.24.612.36 1.068.36Zm4.639.816v-.984h2.34v-4.632h-2.1V27.4h3.18v5.616h2.22V34h-5.64Zm2.76-7.788c-.264 0-.472-.068-.624-.204a.704.704 0 0 1-.228-.552c0-.24.076-.428.228-.564.152-.144.36-.216.624-.216s.472.072.624.216c.152.136.228.324.228.564a.704.704 0 0 1-.228.552c-.152.136-.36.204-.624.204ZM164.471 34v-6.6h1.08v1.26h.228l-.228.252c0-.52.156-.92.468-1.2.312-.288.744-.432 1.296-.432.664 0 1.192.204 1.584.612.392.408.588.964.588 1.668V34h-1.08v-4.248c0-.504-.128-.888-.384-1.152-.248-.272-.588-.408-1.02-.408-.448 0-.804.14-1.068.42-.256.28-.384.676-.384 1.188V34h-1.08Zm8.024 2.16v-.984h1.86c.376 0 .672-.108.888-.324.216-.208.324-.492.324-.852v-.6l.024-1.08h-.216l.204-.3c0 .48-.16.856-.48 1.128-.32.264-.748.396-1.284.396-.68 0-1.216-.216-1.608-.648-.392-.432-.588-1.024-.588-1.776v-1.392c0-.752.196-1.348.588-1.788.392-.44.928-.66 1.608-.66.536 0 .964.14 1.284.42.32.28.48.66.48 1.14l-.204-.3h.204V27.4h1.068V34c0 .664-.208 1.188-.624 1.572-.408.392-.968.588-1.68.588h-1.848Zm1.644-3.516c.448 0 .8-.14 1.056-.42.256-.28.384-.668.384-1.164V29.8c0-.496-.128-.884-.384-1.164-.256-.28-.608-.42-1.056-.42-.456 0-.812.132-1.068.396-.248.264-.372.62-.372 1.068v1.5c0 .448.124.804.372 1.068.256.264.612.396 1.068.396Z" fill="#333238"/><rect x="16" y="285" width="213" height="28" rx="4" fill="#ECECEF"/><rect x="24" y="291" width="16" height="16" rx="2" fill="#fff"/><path d="M52.14 303.12c-.544 0-.98-.144-1.308-.432-.328-.296-.492-.696-.492-1.2l.216.252h-.216V303h-1.08v-8.76h1.08v1.92l-.024 1.5h.24l-.24.252c0-.496.168-.892.504-1.188.344-.296.784-.444 1.32-.444.664 0 1.192.22 1.584.66.392.44.588 1.04.588 1.8v1.932c0 .752-.196 1.348-.588 1.788-.392.44-.92.66-1.584.66Zm-.36-.936c.456 0 .812-.12 1.068-.36s.384-.628.384-1.164v-1.92c0-.544-.128-.932-.384-1.164-.256-.24-.612-.36-1.068-.36-.44 0-.792.14-1.056.42-.256.28-.384.668-.384 1.164v1.8c0 .496.128.884.384 1.164.264.28.616.42 1.056.42Zm6.596.936c-.68 0-1.22-.188-1.62-.564-.4-.384-.6-.884-.6-1.5 0-.408.092-.764.276-1.068.184-.304.44-.54.768-.708a2.349 2.349 0 0 1 1.128-.264h2.04v-.516c0-.432-.116-.752-.348-.96-.232-.216-.584-.324-1.056-.324-.416 0-.752.076-1.008.228-.256.152-.392.364-.408.636h-1.08c.04-.52.28-.948.72-1.284.448-.344 1.04-.516 1.776-.516.8 0 1.412.192 1.836.576.432.384.648.92.648 1.608V303H60.38v-1.2h-.18l.168-.24c0 .32-.08.596-.24.828-.16.232-.388.412-.684.54-.296.128-.652.192-1.068.192Zm.264-.912c.528 0 .948-.128 1.26-.384.312-.256.468-.604.468-1.044v-.924h-1.92c-.352 0-.64.108-.864.324-.216.208-.324.488-.324.84 0 .368.12.66.36.876.248.208.588.312 1.02.312Zm7.603.912c-.528 0-.992-.1-1.392-.3-.392-.2-.7-.488-.924-.864-.216-.384-.324-.836-.324-1.356v-1.8c0-.528.108-.98.324-1.356.224-.376.532-.664.924-.864.4-.2.864-.3 1.392-.3.76 0 1.372.204 1.836.612.472.408.72.964.744 1.668h-1.08c-.024-.424-.168-.748-.432-.972-.264-.232-.62-.348-1.068-.348-.472 0-.852.136-1.14.408-.28.264-.42.644-.42 1.14v1.812c0 .496.14.88.42 1.152.288.272.668.408 1.14.408.448 0 .804-.116 1.068-.348.264-.232.408-.556.432-.972h1.08c-.024.704-.272 1.26-.744 1.668-.464.408-1.076.612-1.836.612Zm4.663-.12v-8.76h1.08v4.884h1.26l1.848-2.724h1.236l-2.124 3.144L76.45 303h-1.26l-1.92-2.94h-1.284V303h-1.08Zm7.963 2.16v-.984h1.86c.377 0 .672-.108.889-.324.216-.208.324-.492.324-.852v-.6l.024-1.08h-.216l.204-.3c0 .48-.16.856-.48 1.128-.32.264-.749.396-1.285.396-.68 0-1.215-.216-1.607-.648-.392-.432-.588-1.024-.588-1.776v-1.392c0-.752.195-1.348.588-1.788.392-.44.928-.66 1.608-.66.535 0 .963.14 1.284.42.32.28.48.66.48 1.14l-.204-.3h.204v-1.14h1.068v6.6c0 .664-.209 1.188-.625 1.572-.407.392-.968.588-1.68.588H78.87Zm1.644-3.516c.448 0 .8-.14 1.056-.42.257-.28.385-.668.385-1.164v-1.26c0-.496-.128-.884-.384-1.164-.256-.28-.608-.42-1.056-.42-.456 0-.813.132-1.069.396-.247.264-.371.62-.371 1.068v1.5c0 .448.124.804.371 1.068.257.264.613.396 1.069.396ZM85.477 303v-6.6h1.08v1.26h.228l-.228.288c0-.512.156-.916.468-1.212.32-.304.76-.456 1.32-.456.688 0 1.216.208 1.584.624.376.408.564.992.564 1.752v.564h-1.08v-.564c0-.488-.12-.848-.36-1.08-.24-.24-.588-.36-1.044-.36-.472 0-.832.136-1.08.408-.248.272-.372.664-.372 1.176v4.2h-1.08Zm9.451.096c-.528 0-.988-.104-1.38-.312a2.216 2.216 0 0 1-.9-.9c-.208-.4-.312-.876-.312-1.428v-1.512c0-.56.104-1.036.312-1.428.216-.392.516-.692.9-.9.392-.208.852-.312 1.38-.312.536 0 .996.104 1.38.312.384.208.68.508.888.9.216.392.324.868.324 1.428v1.512c0 .552-.108 1.028-.324 1.428a2.124 2.124 0 0 1-.9.9c-.384.208-.84.312-1.368.312Zm0-.96c.472 0 .84-.132 1.104-.396.272-.264.408-.652.408-1.164v-1.752c0-.512-.136-.9-.408-1.164-.264-.264-.632-.396-1.104-.396-.464 0-.832.132-1.104.396-.272.264-.408.652-.408 1.164v1.752c0 .512.136.9.408 1.164.272.264.64.396 1.104.396Zm7.183.984c-.76 0-1.368-.224-1.824-.672-.456-.456-.684-1.072-.684-1.848v-4.2h1.08v4.2c0 .48.128.864.384 1.152.256.28.604.42 1.044.42.448 0 .8-.14 1.056-.42.264-.288.396-.672.396-1.152v-4.2h1.08v4.2c0 .776-.232 1.392-.696 1.848-.464.448-1.076.672-1.836.672Zm4.712-.12v-6.6h1.08v1.26h.228l-.228.252c0-.52.156-.92.468-1.2.312-.288.744-.432 1.296-.432.664 0 1.192.204 1.584.612.392.408.588.964.588 1.668V303h-1.08v-4.248c0-.504-.128-.888-.384-1.152-.248-.272-.588-.408-1.02-.408-.448 0-.804.14-1.068.42-.256.28-.384.676-.384 1.188v4.2h-1.08Zm9.307.12c-.656 0-1.184-.22-1.584-.66-.392-.44-.588-1.036-.588-1.788v-1.932c0-.76.196-1.36.588-1.8.392-.44.92-.66 1.584-.66.544 0 .984.148 1.32.444.336.296.504.692.504 1.188l-.24-.252h.24l-.024-1.5v-1.92h1.08V303h-1.08v-1.26h-.216l.216-.252c0 .504-.164.904-.492 1.2-.328.288-.764.432-1.308.432Zm.36-.936c.448 0 .8-.14 1.056-.42.256-.28.384-.668.384-1.164v-1.8c0-.496-.128-.884-.384-1.164-.256-.28-.608-.42-1.056-.42-.456 0-.812.12-1.068.36-.256.232-.384.62-.384 1.164v1.92c0 .536.128.924.384 1.164.256.24.612.36 1.068.36Zm7.219.936c-.296 0-.536-.088-.72-.264a.925.925 0 0 1-.264-.684c0-.296.088-.536.264-.72.184-.184.424-.276.72-.276s.532.092.708.276c.184.184.276.424.276.72 0 .28-.092.508-.276.684-.176.176-.412.264-.708.264Zm7.292 0c-.528 0-.992-.1-1.392-.3-.392-.2-.7-.488-.924-.864-.216-.384-.324-.836-.324-1.356v-1.8c0-.528.108-.98.324-1.356.224-.376.532-.664.924-.864.4-.2.864-.3 1.392-.3.76 0 1.372.204 1.836.612.472.408.72.964.744 1.668h-1.08c-.024-.424-.168-.748-.432-.972-.264-.232-.62-.348-1.068-.348-.472 0-.852.136-1.14.408-.28.264-.42.644-.42 1.14v1.812c0 .496.14.88.42 1.152.288.272.668.408 1.14.408.448 0 .804-.116 1.068-.348.264-.232.408-.556.432-.972h1.08c-.024.704-.272 1.26-.744 1.668-.464.408-1.076.612-1.836.612Zm7.099-.024c-.528 0-.988-.104-1.38-.312a2.216 2.216 0 0 1-.9-.9c-.208-.4-.312-.876-.312-1.428v-1.512c0-.56.104-1.036.312-1.428.216-.392.516-.692.9-.9.392-.208.852-.312 1.38-.312.536 0 .996.104 1.38.312.384.208.68.508.888.9.216.392.324.868.324 1.428v1.512c0 .552-.108 1.028-.324 1.428a2.124 2.124 0 0 1-.9.9c-.384.208-.84.312-1.368.312Zm0-.96c.472 0 .84-.132 1.104-.396.272-.264.408-.652.408-1.164v-1.752c0-.512-.136-.9-.408-1.164-.264-.264-.632-.396-1.104-.396-.464 0-.832.132-1.104.396-.272.264-.408.652-.408 1.164v1.752c0 .512.136.9.408 1.164.272.264.64.396 1.104.396Zm8.155.864a2.13 2.13 0 0 1-1.008-.228 1.639 1.639 0 0 1-.672-.648 1.95 1.95 0 0 1-.24-.984v-5.916h-2.28v-.984h3.36v6.9c0 .272.076.488.228.648.152.152.356.228.612.228h2.04V303h-2.04Zm6.236.096c-.528 0-.988-.104-1.38-.312a2.216 2.216 0 0 1-.9-.9c-.208-.4-.312-.876-.312-1.428v-1.512c0-.56.104-1.036.312-1.428.216-.392.516-.692.9-.9.392-.208.852-.312 1.38-.312.536 0 .996.104 1.38.312.384.208.68.508.888.9.216.392.324.868.324 1.428v1.512c0 .552-.108 1.028-.324 1.428a2.124 2.124 0 0 1-.9.9c-.384.208-.84.312-1.368.312Zm0-.96c.472 0 .84-.132 1.104-.396.272-.264.408-.652.408-1.164v-1.752c0-.512-.136-.9-.408-1.164-.264-.264-.632-.396-1.104-.396-.464 0-.832.132-1.104.396-.272.264-.408.652-.408 1.164v1.752c0 .512.136.9.408 1.164.272.264.64.396 1.104.396Zm4.939.864v-6.6h1.08v1.26h.228l-.228.288c0-.512.156-.916.468-1.212.32-.304.76-.456 1.32-.456.688 0 1.216.208 1.584.624.376.408.564.992.564 1.752v.564h-1.08v-.564c0-.488-.12-.848-.36-1.08-.24-.24-.588-.36-1.044-.36-.472 0-.832.136-1.08.408-.248.272-.372.664-.372 1.176v4.2h-1.08Zm9.451.12c-.296 0-.536-.088-.72-.264a.925.925 0 0 1-.264-.684c0-.296.088-.536.264-.72.184-.184.424-.276.72-.276s.532.092.708.276c.184.184.276.424.276.72 0 .28-.092.508-.276.684-.176.176-.412.264-.708.264Zm6.812 0c-.656 0-1.184-.22-1.584-.66-.392-.44-.588-1.036-.588-1.788v-1.932c0-.76.196-1.36.588-1.8.392-.44.92-.66 1.584-.66.544 0 .984.148 1.32.444.336.296.504.692.504 1.188l-.24-.252h.24l-.024-1.5v-1.92h1.08V303h-1.08v-1.26h-.216l.216-.252c0 .504-.164.904-.492 1.2-.328.288-.764.432-1.308.432Zm.36-.936c.448 0 .8-.14 1.056-.42.256-.28.384-.668.384-1.164v-1.8c0-.496-.128-.884-.384-1.164-.256-.28-.608-.42-1.056-.42-.456 0-.812.12-1.068.36-.256.232-.384.62-.384 1.164v1.92c0 .536.128.924.384 1.164.256.24.612.36 1.068.36Zm7.219.936c-.52 0-.976-.104-1.368-.312a2.296 2.296 0 0 1-.9-.912c-.216-.4-.324-.872-.324-1.416v-1.56c0-.552.108-1.024.324-1.416.216-.392.516-.692.9-.9.392-.216.848-.324 1.368-.324.52 0 .972.104 1.356.312.392.208.696.5.912.876.216.376.324.82.324 1.332v1.176h-4.128v.624c0 .488.14.876.42 1.164.28.28.652.42 1.116.42.4 0 .728-.076.984-.228.264-.16.424-.372.48-.636h1.08c-.072.552-.34.992-.804 1.32-.464.32-1.044.48-1.74.48Zm1.536-3.876v-.444c0-.52-.136-.92-.408-1.2-.264-.288-.64-.432-1.128-.432-.488 0-.868.144-1.14.432-.264.28-.396.68-.396 1.2v.336h3.156l-.084.108Zm4.639 3.756v-4.716h-1.92v-.984h1.92v-1.38c0-.52.164-.928.492-1.224.328-.304.78-.456 1.356-.456h1.932v.984h-1.932c-.248 0-.44.06-.576.18-.128.112-.192.284-.192.516v1.38h2.7v.984h-2.7V303h-1.08Zm7.64.12c-.68 0-1.22-.188-1.62-.564-.4-.384-.6-.884-.6-1.5 0-.408.092-.764.276-1.068.184-.304.44-.54.768-.708a2.349 2.349 0 0 1 1.128-.264h2.04v-.516c0-.432-.116-.752-.348-.96-.232-.216-.584-.324-1.056-.324-.416 0-.752.076-1.008.228-.256.152-.392.364-.408.636h-1.08c.04-.52.28-.948.72-1.284.448-.344 1.04-.516 1.776-.516.8 0 1.412.192 1.836.576.432.384.648.92.648 1.608V303h-1.068v-1.2h-.18l.168-.24c0 .32-.08.596-.24.828-.16.232-.388.412-.684.54-.296.128-.652.192-1.068.192Zm.264-.912c.528 0 .948-.128 1.26-.384.312-.256.468-.604.468-1.044v-.924h-1.92c-.352 0-.64.108-.864.324-.216.208-.324.488-.324.84 0 .368.12.66.36.876.248.208.588.312 1.02.312Zm7.495.912c-.76 0-1.368-.224-1.824-.672-.456-.456-.684-1.072-.684-1.848v-4.2h1.08v4.2c0 .48.128.864.384 1.152.256.28.604.42 1.044.42.448 0 .8-.14 1.056-.42.264-.288.396-.672.396-1.152v-4.2h1.08v4.2c0 .776-.232 1.392-.696 1.848-.464.448-1.076.672-1.836.672Zm8.167-.12a2.13 2.13 0 0 1-1.008-.228 1.639 1.639 0 0 1-.672-.648 1.95 1.95 0 0 1-.24-.984v-5.916h-2.28v-.984h3.36v6.9c0 .272.076.488.228.648.152.152.356.228.612.228h2.04V303h-2.04Zm6.895 0c-.544 0-.98-.156-1.308-.468-.328-.32-.492-.744-.492-1.272v-3.876h-1.896v-.984h1.896v-1.86h1.08v1.86h2.7v.984h-2.7v3.876a.8.8 0 0 0 .192.552.714.714 0 0 0 .528.204h1.92V303h-1.92Z" fill="#333238"/><rect x="289" y="285" width="177" height="28" rx="4" fill="#ECECEF"/><rect x="296.5" y="290.5" width="17" height="17" rx="2.5" fill="#DCDCDE" stroke="#FBFAFD"/><path d="M324.984 303.12c-.544 0-.98-.144-1.308-.432-.328-.296-.492-.696-.492-1.2l.216.252h-.216V303h-1.08v-8.76h1.08v1.92l-.024 1.5h.24l-.24.252c0-.496.168-.892.504-1.188.344-.296.784-.444 1.32-.444.664 0 1.192.22 1.584.66.392.44.588 1.04.588 1.8v1.932c0 .752-.196 1.348-.588 1.788-.392.44-.92.66-1.584.66Zm-.36-.936c.456 0 .812-.12 1.068-.36s.384-.628.384-1.164v-1.92c0-.544-.128-.932-.384-1.164-.256-.24-.612-.36-1.068-.36-.44 0-.792.14-1.056.42-.256.28-.384.668-.384 1.164v1.8c0 .496.128.884.384 1.164.264.28.616.42 1.056.42Zm7.171.912c-.528 0-.988-.104-1.38-.312a2.216 2.216 0 0 1-.9-.9c-.208-.4-.312-.876-.312-1.428v-1.512c0-.56.104-1.036.312-1.428.216-.392.516-.692.9-.9.392-.208.852-.312 1.38-.312.536 0 .996.104 1.38.312.384.208.68.508.888.9.216.392.324.868.324 1.428v1.512c0 .552-.108 1.028-.324 1.428a2.124 2.124 0 0 1-.9.9c-.384.208-.84.312-1.368.312Zm0-.96c.472 0 .84-.132 1.104-.396.272-.264.408-.652.408-1.164v-1.752c0-.512-.136-.9-.408-1.164-.264-.264-.632-.396-1.104-.396-.464 0-.832.132-1.104.396-.272.264-.408.652-.408 1.164v1.752c0 .512.136.9.408 1.164.272.264.64.396 1.104.396Zm4.94.864v-6.6h1.08v1.26h.228l-.228.288c0-.512.156-.916.468-1.212.32-.304.76-.456 1.32-.456.688 0 1.216.208 1.584.624.376.408.564.992.564 1.752v.564h-1.08v-.564c0-.488-.12-.848-.36-1.08-.24-.24-.588-.36-1.044-.36-.472 0-.832.136-1.08.408-.248.272-.372.664-.372 1.176v4.2h-1.08Zm9.067.12c-.656 0-1.184-.22-1.584-.66-.392-.44-.588-1.036-.588-1.788v-1.932c0-.76.196-1.36.588-1.8.392-.44.92-.66 1.584-.66.544 0 .984.148 1.32.444.336.296.504.692.504 1.188l-.24-.252h.24l-.024-1.5v-1.92h1.08V303h-1.08v-1.26h-.216l.216-.252c0 .504-.164.904-.492 1.2-.328.288-.764.432-1.308.432Zm.36-.936c.448 0 .8-.14 1.056-.42.256-.28.384-.668.384-1.164v-1.8c0-.496-.128-.884-.384-1.164-.256-.28-.608-.42-1.056-.42-.456 0-.812.12-1.068.36-.256.232-.384.62-.384 1.164v1.92c0 .536.128.924.384 1.164.256.24.612.36 1.068.36Zm7.219.936c-.52 0-.976-.104-1.368-.312a2.296 2.296 0 0 1-.9-.912c-.216-.4-.324-.872-.324-1.416v-1.56c0-.552.108-1.024.324-1.416.216-.392.516-.692.9-.9.392-.216.848-.324 1.368-.324.52 0 .972.104 1.356.312.392.208.696.5.912.876.216.376.324.82.324 1.332v1.176h-4.128v.624c0 .488.14.876.42 1.164.28.28.652.42 1.116.42.4 0 .728-.076.984-.228.264-.16.424-.372.48-.636h1.08c-.072.552-.34.992-.804 1.32-.464.32-1.044.48-1.74.48Zm1.536-3.876v-.444c0-.52-.136-.92-.408-1.2-.264-.288-.64-.432-1.128-.432-.488 0-.868.144-1.14.432-.264.28-.396.68-.396 1.2v.336h3.156l-.084.108Zm3.404 3.756v-6.6h1.08v1.26h.228l-.228.288c0-.512.156-.916.468-1.212.32-.304.76-.456 1.32-.456.688 0 1.216.208 1.584.624.376.408.564.992.564 1.752v.564h-1.08v-.564c0-.488-.12-.848-.36-1.08-.24-.24-.588-.36-1.044-.36-.472 0-.832.136-1.08.408-.248.272-.372.664-.372 1.176v4.2h-1.08Zm9.451.12c-.296 0-.536-.088-.72-.264a.925.925 0 0 1-.264-.684c0-.296.088-.536.264-.72.184-.184.424-.276.72-.276s.532.092.708.276c.184.184.276.424.276.72 0 .28-.092.508-.276.684-.176.176-.412.264-.708.264Zm7.291 0c-.528 0-.992-.1-1.392-.3-.392-.2-.7-.488-.924-.864-.216-.384-.324-.836-.324-1.356v-1.8c0-.528.108-.98.324-1.356.224-.376.532-.664.924-.864.4-.2.864-.3 1.392-.3.76 0 1.372.204 1.836.612.472.408.72.964.744 1.668h-1.08c-.024-.424-.168-.748-.432-.972-.264-.232-.62-.348-1.068-.348-.472 0-.852.136-1.14.408-.28.264-.42.644-.42 1.14v1.812c0 .496.14.88.42 1.152.288.272.668.408 1.14.408.448 0 .804-.116 1.068-.348.264-.232.408-.556.432-.972h1.08c-.024.704-.272 1.26-.744 1.668-.464.408-1.076.612-1.836.612Zm7.1-.024c-.528 0-.988-.104-1.38-.312a2.216 2.216 0 0 1-.9-.9c-.208-.4-.312-.876-.312-1.428v-1.512c0-.56.104-1.036.312-1.428.216-.392.516-.692.9-.9.392-.208.852-.312 1.38-.312.536 0 .996.104 1.38.312.384.208.68.508.888.9.216.392.324.868.324 1.428v1.512c0 .552-.108 1.028-.324 1.428a2.124 2.124 0 0 1-.9.9c-.384.208-.84.312-1.368.312Zm0-.96c.472 0 .84-.132 1.104-.396.272-.264.408-.652.408-1.164v-1.752c0-.512-.136-.9-.408-1.164-.264-.264-.632-.396-1.104-.396-.464 0-.832.132-1.104.396-.272.264-.408.652-.408 1.164v1.752c0 .512.136.9.408 1.164.272.264.64.396 1.104.396Zm8.155.864a2.13 2.13 0 0 1-1.008-.228 1.639 1.639 0 0 1-.672-.648 1.95 1.95 0 0 1-.24-.984v-5.916h-2.28v-.984h3.36v6.9c0 .272.076.488.228.648.152.152.356.228.612.228h2.04V303h-2.04Zm6.235.096c-.528 0-.988-.104-1.38-.312a2.216 2.216 0 0 1-.9-.9c-.208-.4-.312-.876-.312-1.428v-1.512c0-.56.104-1.036.312-1.428.216-.392.516-.692.9-.9.392-.208.852-.312 1.38-.312.536 0 .996.104 1.38.312.384.208.68.508.888.9.216.392.324.868.324 1.428v1.512c0 .552-.108 1.028-.324 1.428a2.124 2.124 0 0 1-.9.9c-.384.208-.84.312-1.368.312Zm0-.96c.472 0 .84-.132 1.104-.396.272-.264.408-.652.408-1.164v-1.752c0-.512-.136-.9-.408-1.164-.264-.264-.632-.396-1.104-.396-.464 0-.832.132-1.104.396-.272.264-.408.652-.408 1.164v1.752c0 .512.136.9.408 1.164.272.264.64.396 1.104.396Zm4.939.864v-6.6h1.08v1.26h.228l-.228.288c0-.512.156-.916.468-1.212.32-.304.76-.456 1.32-.456.688 0 1.216.208 1.584.624.376.408.564.992.564 1.752v.564h-1.08v-.564c0-.488-.12-.848-.36-1.08-.24-.24-.588-.36-1.044-.36-.472 0-.832.136-1.08.408-.248.272-.372.664-.372 1.176v4.2h-1.08Zm9.452.12c-.296 0-.536-.088-.72-.264a.925.925 0 0 1-.264-.684c0-.296.088-.536.264-.72.184-.184.424-.276.72-.276s.532.092.708.276c.184.184.276.424.276.72 0 .28-.092.508-.276.684-.176.176-.412.264-.708.264Zm6.931-.024c-.488 0-.908-.072-1.26-.216a1.778 1.778 0 0 1-.792-.648c-.176-.288-.264-.636-.264-1.044h1.08c0 .304.108.544.324.72.216.168.52.252.912.252h.528c.4 0 .708-.088.924-.264.224-.176.336-.424.336-.744 0-.288-.064-.512-.192-.672-.128-.16-.324-.256-.588-.288l-1.824-.264c-.448-.064-.796-.248-1.044-.552-.248-.312-.372-.72-.372-1.224 0-.576.196-1.028.588-1.356.4-.328.948-.492 1.644-.492h.528c.64 0 1.16.16 1.56.48.408.312.628.724.66 1.236h-1.092a.757.757 0 0 0-.336-.576c-.2-.152-.464-.228-.792-.228h-.528c-.368 0-.656.084-.864.252a.833.833 0 0 0-.312.684c0 .224.052.404.156.54a.74.74 0 0 0 .48.252l1.704.24c.56.08.98.284 1.26.612s.42.78.42 1.356c0 .616-.204 1.096-.612 1.44-.4.336-.968.504-1.704.504h-.528Zm7.447.024c-.76 0-1.368-.224-1.824-.672-.456-.456-.684-1.072-.684-1.848v-4.2h1.08v4.2c0 .48.128.864.384 1.152.256.28.604.42 1.044.42.448 0 .8-.14 1.056-.42.264-.288.396-.672.396-1.152v-4.2h1.08v4.2c0 .776-.232 1.392-.696 1.848-.464.448-1.076.672-1.836.672Zm7.592 0c-.544 0-.98-.144-1.308-.432-.328-.296-.492-.696-.492-1.2l.216.252h-.216V303h-1.08v-8.76h1.08v1.92l-.024 1.5h.24l-.24.252c0-.496.168-.892.504-1.188.344-.296.784-.444 1.32-.444.664 0 1.192.22 1.584.66.392.44.588 1.04.588 1.8v1.932c0 .752-.196 1.348-.588 1.788-.392.44-.92.66-1.584.66Zm-.36-.936c.456 0 .812-.12 1.068-.36s.384-.628.384-1.164v-1.92c0-.544-.128-.932-.384-1.164-.256-.24-.612-.36-1.068-.36-.44 0-.792.14-1.056.42-.256.28-.384.668-.384 1.164v1.8c0 .496.128.884.384 1.164.264.28.616.42 1.056.42Zm7.831.816c-.544 0-.98-.156-1.308-.468-.328-.32-.492-.744-.492-1.272v-3.876h-1.896v-.984h1.896v-1.86h1.08v1.86h2.7v.984h-2.7v3.876a.8.8 0 0 0 .192.552.714.714 0 0 0 .528.204h1.92V303h-1.92Zm7.495 0a2.13 2.13 0 0 1-1.008-.228 1.639 1.639 0 0 1-.672-.648 1.95 1.95 0 0 1-.24-.984v-5.916h-2.28v-.984h3.36v6.9c0 .272.076.488.228.648.152.152.356.228.612.228h2.04V303h-2.04Zm6.236.12c-.52 0-.976-.104-1.368-.312a2.296 2.296 0 0 1-.9-.912c-.216-.4-.324-.872-.324-1.416v-1.56c0-.552.108-1.024.324-1.416.216-.392.516-.692.9-.9.392-.216.848-.324 1.368-.324.52 0 .972.104 1.356.312.392.208.696.5.912.876.216.376.324.82.324 1.332v1.176h-4.128v.624c0 .488.14.876.42 1.164.28.28.652.42 1.116.42.4 0 .728-.076.984-.228.264-.16.424-.372.48-.636h1.08c-.072.552-.34.992-.804 1.32-.464.32-1.044.48-1.74.48Zm1.536-3.876v-.444c0-.52-.136-.92-.408-1.2-.264-.288-.64-.432-1.128-.432-.488 0-.868.144-1.14.432-.264.28-.396.68-.396 1.2v.336h3.156l-.084.108Z" fill="#333238"/><rect x="212" y="16" width="170" height="28" rx="4" fill="#ECECEF"/><rect x="220" y="22" width="16" height="16" rx="2" fill="#434248"/><path d="M248.502 34c-.544 0-.98-.156-1.308-.468-.328-.32-.492-.744-.492-1.272v-3.876h-1.896V27.4h1.896v-1.86h1.08v1.86h2.7v.984h-2.7v3.876a.8.8 0 0 0 .192.552.714.714 0 0 0 .528.204h1.92V34h-1.92Zm6.536.12c-.52 0-.976-.104-1.368-.312a2.296 2.296 0 0 1-.9-.912c-.216-.4-.324-.872-.324-1.416v-1.56c0-.552.108-1.024.324-1.416.216-.392.516-.692.9-.9.392-.216.848-.324 1.368-.324.52 0 .972.104 1.356.312.392.208.696.5.912.876.216.376.324.82.324 1.332v1.176h-4.128v.624c0 .488.14.876.42 1.164.28.28.652.42 1.116.42.4 0 .728-.076.984-.228.264-.16.424-.372.48-.636h1.08c-.072.552-.34.992-.804 1.32-.464.32-1.044.48-1.74.48Zm1.536-3.876V29.8c0-.52-.136-.92-.408-1.2-.264-.288-.64-.432-1.128-.432-.488 0-.868.144-1.14.432-.264.28-.396.68-.396 1.2v.336h3.156l-.084.108ZM259.233 34l2.34-3.396-2.196-3.204h1.272l1.308 2.04c.056.088.108.184.156.288.056.104.1.188.132.252.024-.064.06-.148.108-.252.056-.104.112-.2.168-.288l1.308-2.04h1.272l-2.196 3.216L265.233 34h-1.272l-1.416-2.16a3.356 3.356 0 0 1-.168-.3 2.599 2.599 0 0 0-.132-.288c-.032.072-.08.168-.144.288a2.125 2.125 0 0 1-.18.3L260.505 34h-1.272Zm10.855 0c-.544 0-.98-.156-1.308-.468-.328-.32-.492-.744-.492-1.272v-3.876h-1.896V27.4h1.896v-1.86h1.08v1.86h2.7v.984h-2.7v3.876a.8.8 0 0 0 .192.552.714.714 0 0 0 .528.204h1.92V34h-1.92Zm6.535.12c-.296 0-.536-.088-.72-.264a.925.925 0 0 1-.264-.684c0-.296.088-.536.264-.72.184-.184.424-.276.72-.276s.532.092.708.276c.184.184.276.424.276.72 0 .28-.092.508-.276.684-.176.176-.412.264-.708.264Zm7.292 0c-.528 0-.992-.1-1.392-.3-.392-.2-.7-.488-.924-.864-.216-.384-.324-.836-.324-1.356v-1.8c0-.528.108-.98.324-1.356.224-.376.532-.664.924-.864.4-.2.864-.3 1.392-.3.76 0 1.372.204 1.836.612.472.408.72.964.744 1.668h-1.08c-.024-.424-.168-.748-.432-.972-.264-.232-.62-.348-1.068-.348-.472 0-.852.136-1.14.408-.28.264-.42.644-.42 1.14V31.6c0 .496.14.88.42 1.152.288.272.668.408 1.14.408.448 0 .804-.116 1.068-.348.264-.232.408-.556.432-.972h1.08c-.024.704-.272 1.26-.744 1.668-.464.408-1.076.612-1.836.612Zm7.099-.024c-.528 0-.988-.104-1.38-.312a2.216 2.216 0 0 1-.9-.9c-.208-.4-.312-.876-.312-1.428v-1.512c0-.56.104-1.036.312-1.428.216-.392.516-.692.9-.9.392-.208.852-.312 1.38-.312.536 0 .996.104 1.38.312.384.208.68.508.888.9.216.392.324.868.324 1.428v1.512c0 .552-.108 1.028-.324 1.428a2.124 2.124 0 0 1-.9.9c-.384.208-.84.312-1.368.312Zm0-.96c.472 0 .84-.132 1.104-.396.272-.264.408-.652.408-1.164v-1.752c0-.512-.136-.9-.408-1.164-.264-.264-.632-.396-1.104-.396-.464 0-.832.132-1.104.396-.272.264-.408.652-.408 1.164v1.752c0 .512.136.9.408 1.164.272.264.64.396 1.104.396Zm8.155.864a2.13 2.13 0 0 1-1.008-.228 1.639 1.639 0 0 1-.672-.648 1.95 1.95 0 0 1-.24-.984v-5.916h-2.28v-.984h3.36v6.9c0 .272.076.488.228.648.152.152.356.228.612.228h2.04V34h-2.04Zm6.236.096c-.528 0-.988-.104-1.38-.312a2.216 2.216 0 0 1-.9-.9c-.208-.4-.312-.876-.312-1.428v-1.512c0-.56.104-1.036.312-1.428.216-.392.516-.692.9-.9.392-.208.852-.312 1.38-.312.536 0 .996.104 1.38.312.384.208.68.508.888.9.216.392.324.868.324 1.428v1.512c0 .552-.108 1.028-.324 1.428a2.124 2.124 0 0 1-.9.9c-.384.208-.84.312-1.368.312Zm0-.96c.472 0 .84-.132 1.104-.396.272-.264.408-.652.408-1.164v-1.752c0-.512-.136-.9-.408-1.164-.264-.264-.632-.396-1.104-.396-.464 0-.832.132-1.104.396-.272.264-.408.652-.408 1.164v1.752c0 .512.136.9.408 1.164.272.264.64.396 1.104.396Zm4.939.864v-6.6h1.08v1.26h.228l-.228.288c0-.512.156-.916.468-1.212.32-.304.76-.456 1.32-.456.688 0 1.216.208 1.584.624.376.408.564.992.564 1.752v.564h-1.08v-.564c0-.488-.12-.848-.36-1.08-.24-.24-.588-.36-1.044-.36-.472 0-.832.136-1.08.408-.248.272-.372.664-.372 1.176V34h-1.08Zm9.451.12c-.296 0-.536-.088-.72-.264a.925.925 0 0 1-.264-.684c0-.296.088-.536.264-.72.184-.184.424-.276.72-.276s.532.092.708.276c.184.184.276.424.276.72 0 .28-.092.508-.276.684-.176.176-.412.264-.708.264Zm6.812 0c-.656 0-1.184-.22-1.584-.66-.392-.44-.588-1.036-.588-1.788V29.74c0-.76.196-1.36.588-1.8.392-.44.92-.66 1.584-.66.544 0 .984.148 1.32.444.336.296.504.692.504 1.188l-.24-.252h.24l-.024-1.5v-1.92h1.08V34h-1.08v-1.26h-.216l.216-.252c0 .504-.164.904-.492 1.2-.328.288-.764.432-1.308.432Zm.36-.936c.448 0 .8-.14 1.056-.42.256-.28.384-.668.384-1.164v-1.8c0-.496-.128-.884-.384-1.164-.256-.28-.608-.42-1.056-.42-.456 0-.812.12-1.068.36-.256.232-.384.62-.384 1.164v1.92c0 .536.128.924.384 1.164.256.24.612.36 1.068.36Zm7.219.936c-.52 0-.976-.104-1.368-.312a2.296 2.296 0 0 1-.9-.912c-.216-.4-.324-.872-.324-1.416v-1.56c0-.552.108-1.024.324-1.416.216-.392.516-.692.9-.9.392-.216.848-.324 1.368-.324.52 0 .972.104 1.356.312.392.208.696.5.912.876.216.376.324.82.324 1.332v1.176h-4.128v.624c0 .488.14.876.42 1.164.28.28.652.42 1.116.42.4 0 .728-.076.984-.228.264-.16.424-.372.48-.636h1.08c-.072.552-.34.992-.804 1.32-.464.32-1.044.48-1.74.48Zm1.536-3.876V29.8c0-.52-.136-.92-.408-1.2-.264-.288-.64-.432-1.128-.432-.488 0-.868.144-1.14.432-.264.28-.396.68-.396 1.2v.336h3.156l-.084.108ZM340.361 34v-4.716h-1.92V28.3h1.92v-1.38c0-.52.164-.928.492-1.224.328-.304.78-.456 1.356-.456h1.932v.984h-1.932c-.248 0-.44.06-.576.18-.128.112-.192.284-.192.516v1.38h2.7v.984h-2.7V34h-1.08Zm7.64.12c-.68 0-1.22-.188-1.62-.564-.4-.384-.6-.884-.6-1.5 0-.408.092-.764.276-1.068.184-.304.44-.54.768-.708a2.349 2.349 0 0 1 1.128-.264h2.04V29.5c0-.432-.116-.752-.348-.96-.232-.216-.584-.324-1.056-.324-.416 0-.752.076-1.008.228-.256.152-.392.364-.408.636h-1.08c.04-.52.28-.948.72-1.284.448-.344 1.04-.516 1.776-.516.8 0 1.412.192 1.836.576.432.384.648.92.648 1.608V34h-1.068v-1.2h-.18l.168-.24c0 .32-.08.596-.24.828-.16.232-.388.412-.684.54-.296.128-.652.192-1.068.192Zm.264-.912c.528 0 .948-.128 1.26-.384.312-.256.468-.604.468-1.044v-.924h-1.92c-.352 0-.64.108-.864.324-.216.208-.324.488-.324.84 0 .368.12.66.36.876.248.208.588.312 1.02.312Zm7.495.912c-.76 0-1.368-.224-1.824-.672-.456-.456-.684-1.072-.684-1.848v-4.2h1.08v4.2c0 .48.128.864.384 1.152.256.28.604.42 1.044.42.448 0 .8-.14 1.056-.42.264-.288.396-.672.396-1.152v-4.2h1.08v4.2c0 .776-.232 1.392-.696 1.848-.464.448-1.076.672-1.836.672Zm8.167-.12a2.13 2.13 0 0 1-1.008-.228 1.639 1.639 0 0 1-.672-.648 1.95 1.95 0 0 1-.24-.984v-5.916h-2.28v-.984h3.36v6.9c0 .272.076.488.228.648.152.152.356.228.612.228h2.04V34h-2.04Zm6.896 0c-.544 0-.98-.156-1.308-.468-.328-.32-.492-.744-.492-1.272v-3.876h-1.896V27.4h1.896v-1.86h1.08v1.86h2.7v.984h-2.7v3.876a.8.8 0 0 0 .192.552.714.714 0 0 0 .528.204h1.92V34h-1.92Z" fill="#333238"/><rect x="371" y="59" width="371" height="28" rx="4" fill="#ECECEF"/><rect x="379" y="65" width="16" height="16" rx="2" fill="#1F75CB"/><path d="M406.032 77.12c-.68 0-1.22-.188-1.62-.564-.4-.384-.6-.884-.6-1.5 0-.408.092-.764.276-1.068.184-.304.44-.54.768-.708a2.349 2.349 0 0 1 1.128-.264h2.04V72.5c0-.432-.116-.752-.348-.96-.232-.216-.584-.324-1.056-.324-.416 0-.752.076-1.008.228-.256.152-.392.364-.408.636h-1.08c.04-.52.28-.948.72-1.284.448-.344 1.04-.516 1.776-.516.8 0 1.412.192 1.836.576.432.384.648.92.648 1.608V77h-1.068v-1.2h-.18l.168-.24c0 .32-.08.596-.24.828-.16.232-.388.412-.684.54-.296.128-.652.192-1.068.192Zm.264-.912c.528 0 .948-.128 1.26-.384.312-.256.468-.604.468-1.044v-.924h-1.92c-.352 0-.64.108-.864.324-.216.208-.324.488-.324.84 0 .368.12.66.36.876.248.208.588.312 1.02.312Zm7.603.912c-.528 0-.992-.1-1.392-.3-.392-.2-.7-.488-.924-.864-.216-.384-.324-.836-.324-1.356v-1.8c0-.528.108-.98.324-1.356.224-.376.532-.664.924-.864.4-.2.864-.3 1.392-.3.76 0 1.372.204 1.836.612.472.408.72.964.744 1.668h-1.08c-.024-.424-.168-.748-.432-.972-.264-.232-.62-.348-1.068-.348-.472 0-.852.136-1.14.408-.28.264-.42.644-.42 1.14V74.6c0 .496.14.88.42 1.152.288.272.668.408 1.14.408.448 0 .804-.116 1.068-.348.264-.232.408-.556.432-.972h1.08c-.024.704-.272 1.26-.744 1.668-.464.408-1.076.612-1.836.612Zm7.759-.12c-.544 0-.98-.156-1.308-.468-.328-.32-.492-.744-.492-1.272v-3.876h-1.896V70.4h1.896v-1.86h1.08v1.86h2.7v.984h-2.7v3.876a.8.8 0 0 0 .192.552.714.714 0 0 0 .528.204h1.92V77h-1.92Zm3.956 0v-.984h2.34v-4.632h-2.1V70.4h3.18v5.616h2.22V77h-5.64Zm2.76-7.788c-.264 0-.472-.068-.624-.204a.704.704 0 0 1-.228-.552c0-.24.076-.428.228-.564.152-.144.36-.216.624-.216s.472.072.624.216c.152.136.228.324.228.564a.704.704 0 0 1-.228.552c-.152.136-.36.204-.624.204Zm7.015 7.884c-.528 0-.988-.104-1.38-.312a2.216 2.216 0 0 1-.9-.9c-.208-.4-.312-.876-.312-1.428v-1.512c0-.56.104-1.036.312-1.428.216-.392.516-.692.9-.9.392-.208.852-.312 1.38-.312.536 0 .996.104 1.38.312.384.208.68.508.888.9.216.392.324.868.324 1.428v1.512c0 .552-.108 1.028-.324 1.428a2.124 2.124 0 0 1-.9.9c-.384.208-.84.312-1.368.312Zm0-.96c.472 0 .84-.132 1.104-.396.272-.264.408-.652.408-1.164v-1.752c0-.512-.136-.9-.408-1.164-.264-.264-.632-.396-1.104-.396-.464 0-.832.132-1.104.396-.272.264-.408.652-.408 1.164v1.752c0 .512.136.9.408 1.164.272.264.64.396 1.104.396Zm4.699.864v-6.6h1.08v1.26h.228l-.228.252c0-.52.156-.92.468-1.2.312-.288.744-.432 1.296-.432.664 0 1.192.204 1.584.612.392.408.588.964.588 1.668V77h-1.08v-4.248c0-.504-.128-.888-.384-1.152-.248-.272-.588-.408-1.02-.408-.448 0-.804.14-1.068.42-.256.28-.384.676-.384 1.188V77h-1.08Zm9.692.12c-.296 0-.536-.088-.72-.264a.925.925 0 0 1-.264-.684c0-.296.088-.536.264-.72.184-.184.424-.276.72-.276s.532.092.708.276c.184.184.276.424.276.72 0 .28-.092.508-.276.684-.176.176-.412.264-.708.264Zm7.291 0c-.528 0-.992-.1-1.392-.3-.392-.2-.7-.488-.924-.864-.216-.384-.324-.836-.324-1.356v-1.8c0-.528.108-.98.324-1.356.224-.376.532-.664.924-.864.4-.2.864-.3 1.392-.3.76 0 1.372.204 1.836.612.472.408.72.964.744 1.668h-1.08c-.024-.424-.168-.748-.432-.972-.264-.232-.62-.348-1.068-.348-.472 0-.852.136-1.14.408-.28.264-.42.644-.42 1.14V74.6c0 .496.14.88.42 1.152.288.272.668.408 1.14.408.448 0 .804-.116 1.068-.348.264-.232.408-.556.432-.972h1.08c-.024.704-.272 1.26-.744 1.668-.464.408-1.076.612-1.836.612Zm7.099-.024c-.528 0-.988-.104-1.38-.312a2.216 2.216 0 0 1-.9-.9c-.208-.4-.312-.876-.312-1.428v-1.512c0-.56.104-1.036.312-1.428.216-.392.516-.692.9-.9.392-.208.852-.312 1.38-.312.536 0 .996.104 1.38.312.384.208.68.508.888.9.216.392.324.868.324 1.428v1.512c0 .552-.108 1.028-.324 1.428a2.124 2.124 0 0 1-.9.9c-.384.208-.84.312-1.368.312Zm0-.96c.472 0 .84-.132 1.104-.396.272-.264.408-.652.408-1.164v-1.752c0-.512-.136-.9-.408-1.164-.264-.264-.632-.396-1.104-.396-.464 0-.832.132-1.104.396-.272.264-.408.652-.408 1.164v1.752c0 .512.136.9.408 1.164.272.264.64.396 1.104.396Zm4.7.864v-6.6h1.08v1.26h.228l-.228.252c0-.52.156-.92.468-1.2.312-.288.744-.432 1.296-.432.664 0 1.192.204 1.584.612.392.408.588.964.588 1.668V77h-1.08v-4.248c0-.504-.128-.888-.384-1.152-.248-.272-.588-.408-1.02-.408-.448 0-.804.14-1.068.42-.256.28-.384.676-.384 1.188V77h-1.08Zm8.671 0v-4.716h-1.92V71.3h1.92v-1.38c0-.52.164-.928.492-1.224.328-.304.78-.456 1.356-.456h1.932v.984h-1.932c-.248 0-.44.06-.576.18-.128.112-.192.284-.192.516v1.38h2.7v.984h-2.7V77h-1.08Zm5.635 0v-.984h2.34v-4.632h-2.1V70.4h3.18v5.616h2.22V77h-5.64Zm2.76-7.788c-.264 0-.472-.068-.624-.204a.704.704 0 0 1-.228-.552c0-.24.076-.428.228-.564.152-.144.36-.216.624-.216s.472.072.624.216c.152.136.228.324.228.564a.704.704 0 0 1-.228.552c-.152.136-.36.204-.624.204Zm4.76 7.788v-6.6h1.08v1.26h.228l-.228.288c0-.512.156-.916.468-1.212.32-.304.76-.456 1.32-.456.688 0 1.216.208 1.584.624.376.408.564.992.564 1.752v.564h-1.08v-.564c0-.488-.12-.848-.36-1.08-.24-.24-.588-.36-1.044-.36-.472 0-.832.136-1.08.408-.248.272-.372.664-.372 1.176V77h-1.08Zm6.571 0v-6.6h.936v.876h.24l-.228.204c0-.352.1-.64.3-.864.208-.224.48-.336.816-.336.384 0 .688.144.912.432.224.288.336.664.336 1.128l-.324-.624h.504l-.276.264c.008-.368.116-.66.324-.876.208-.216.484-.324.828-.324.424 0 .76.16 1.008.48.256.312.384.72.384 1.224V77h-1.008v-5.028c0-.264-.064-.472-.192-.624a.64.64 0 0 0-.528-.24.64.64 0 0 0-.516.228c-.128.152-.192.36-.192.624V77h-.888v-5.028c0-.264-.064-.472-.192-.624a.627.627 0 0 0-.516-.24c-.224 0-.4.076-.528.228-.128.152-.192.36-.192.624V77h-1.008Zm10.075.12c-.296 0-.536-.088-.72-.264a.925.925 0 0 1-.264-.684c0-.296.088-.536.264-.72.184-.184.424-.276.72-.276s.532.092.708.276c.184.184.276.424.276.72 0 .28-.092.508-.276.684-.176.176-.412.264-.708.264Zm7.58 0c-.544 0-.98-.144-1.308-.432-.328-.296-.492-.696-.492-1.2l.216.252h-.216V77h-1.08v-8.76h1.08v1.92l-.024 1.5h.24l-.24.252c0-.496.168-.892.504-1.188.344-.296.784-.444 1.32-.444.664 0 1.192.22 1.584.66.392.44.588 1.04.588 1.8v1.932c0 .752-.196 1.348-.588 1.788-.392.44-.92.66-1.584.66Zm-.36-.936c.456 0 .812-.12 1.068-.36s.384-.628.384-1.164v-1.92c0-.544-.128-.932-.384-1.164-.256-.24-.612-.36-1.068-.36-.44 0-.792.14-1.056.42-.256.28-.384.668-.384 1.164v1.8c0 .496.128.884.384 1.164.264.28.616.42 1.056.42Zm6.595.936c-.68 0-1.22-.188-1.62-.564-.4-.384-.6-.884-.6-1.5 0-.408.092-.764.276-1.068.184-.304.44-.54.768-.708a2.349 2.349 0 0 1 1.128-.264h2.04V72.5c0-.432-.116-.752-.348-.96-.232-.216-.584-.324-1.056-.324-.416 0-.752.076-1.008.228-.256.152-.392.364-.408.636h-1.08c.04-.52.28-.948.72-1.284.448-.344 1.04-.516 1.776-.516.8 0 1.412.192 1.836.576.432.384.648.92.648 1.608V77h-1.068v-1.2h-.18l.168-.24c0 .32-.08.596-.24.828-.16.232-.388.412-.684.54-.296.128-.652.192-1.068.192Zm.264-.912c.528 0 .948-.128 1.26-.384.312-.256.468-.604.468-1.044v-.924h-1.92c-.352 0-.64.108-.864.324-.216.208-.324.488-.324.84 0 .368.12.66.36.876.248.208.588.312 1.02.312Zm7.603.912c-.528 0-.992-.1-1.392-.3-.392-.2-.7-.488-.924-.864-.216-.384-.324-.836-.324-1.356v-1.8c0-.528.108-.98.324-1.356.224-.376.532-.664.924-.864.4-.2.864-.3 1.392-.3.76 0 1.372.204 1.836.612.472.408.72.964.744 1.668h-1.08c-.024-.424-.168-.748-.432-.972-.264-.232-.62-.348-1.068-.348-.472 0-.852.136-1.14.408-.28.264-.42.644-.42 1.14V74.6c0 .496.14.88.42 1.152.288.272.668.408 1.14.408.448 0 .804-.116 1.068-.348.264-.232.408-.556.432-.972h1.08c-.024.704-.272 1.26-.744 1.668-.464.408-1.076.612-1.836.612Zm4.663-.12v-8.76h1.08v4.884h1.26l1.848-2.724h1.236l-2.124 3.144L539.231 77h-1.26l-1.92-2.94h-1.284V77h-1.08Zm7.964 2.16v-.984h1.86c.376 0 .672-.108.888-.324.216-.208.324-.492.324-.852v-.6l.024-1.08h-.216l.204-.3c0 .48-.16.856-.48 1.128-.32.264-.748.396-1.284.396-.68 0-1.216-.216-1.608-.648-.392-.432-.588-1.024-.588-1.776v-1.392c0-.752.196-1.348.588-1.788.392-.44.928-.66 1.608-.66.536 0 .964.14 1.284.42.32.28.48.66.48 1.14l-.204-.3h.204V70.4h1.068V77c0 .664-.208 1.188-.624 1.572-.408.392-.968.588-1.68.588h-1.848Zm1.644-3.516c.448 0 .8-.14 1.056-.42.256-.28.384-.668.384-1.164V72.8c0-.496-.128-.884-.384-1.164-.256-.28-.608-.42-1.056-.42-.456 0-.812.132-1.068.396-.248.264-.372.62-.372 1.068v1.5c0 .448.124.804.372 1.068.256.264.612.396 1.068.396ZM548.258 77v-6.6h1.08v1.26h.228l-.228.288c0-.512.156-.916.468-1.212.32-.304.76-.456 1.32-.456.688 0 1.216.208 1.584.624.376.408.564.992.564 1.752v.564h-1.08v-.564c0-.488-.12-.848-.36-1.08-.24-.24-.588-.36-1.044-.36-.472 0-.832.136-1.08.408-.248.272-.372.664-.372 1.176V77h-1.08Zm9.451.096c-.528 0-.988-.104-1.38-.312a2.216 2.216 0 0 1-.9-.9c-.208-.4-.312-.876-.312-1.428v-1.512c0-.56.104-1.036.312-1.428.216-.392.516-.692.9-.9.392-.208.852-.312 1.38-.312.536 0 .996.104 1.38.312.384.208.68.508.888.9.216.392.324.868.324 1.428v1.512c0 .552-.108 1.028-.324 1.428a2.124 2.124 0 0 1-.9.9c-.384.208-.84.312-1.368.312Zm0-.96c.472 0 .84-.132 1.104-.396.272-.264.408-.652.408-1.164v-1.752c0-.512-.136-.9-.408-1.164-.264-.264-.632-.396-1.104-.396-.464 0-.832.132-1.104.396-.272.264-.408.652-.408 1.164v1.752c0 .512.136.9.408 1.164.272.264.64.396 1.104.396Zm7.184.984c-.76 0-1.368-.224-1.824-.672-.456-.456-.684-1.072-.684-1.848v-4.2h1.08v4.2c0 .48.128.864.384 1.152.256.28.604.42 1.044.42.448 0 .8-.14 1.056-.42.264-.288.396-.672.396-1.152v-4.2h1.08v4.2c0 .776-.232 1.392-.696 1.848-.464.448-1.076.672-1.836.672Zm4.711-.12v-6.6h1.08v1.26h.228l-.228.252c0-.52.156-.92.468-1.2.312-.288.744-.432 1.296-.432.664 0 1.192.204 1.584.612.392.408.588.964.588 1.668V77h-1.08v-4.248c0-.504-.128-.888-.384-1.152-.248-.272-.588-.408-1.02-.408-.448 0-.804.14-1.068.42-.256.28-.384.676-.384 1.188V77h-1.08Zm9.307.12c-.656 0-1.184-.22-1.584-.66-.392-.44-.588-1.036-.588-1.788V72.74c0-.76.196-1.36.588-1.8.392-.44.92-.66 1.584-.66.544 0 .984.148 1.32.444.336.296.504.692.504 1.188l-.24-.252h.24l-.024-1.5v-1.92h1.08V77h-1.08v-1.26h-.216l.216-.252c0 .504-.164.904-.492 1.2-.328.288-.764.432-1.308.432Zm.36-.936c.448 0 .8-.14 1.056-.42.256-.28.384-.668.384-1.164v-1.8c0-.496-.128-.884-.384-1.164-.256-.28-.608-.42-1.056-.42-.456 0-.812.12-1.068.36-.256.232-.384.62-.384 1.164v1.92c0 .536.128.924.384 1.164.256.24.612.36 1.068.36Zm7.22.936c-.296 0-.536-.088-.72-.264a.925.925 0 0 1-.264-.684c0-.296.088-.536.264-.72.184-.184.424-.276.72-.276s.532.092.708.276c.184.184.276.424.276.72 0 .28-.092.508-.276.684-.176.176-.412.264-.708.264Zm7.291 0c-.528 0-.992-.1-1.392-.3-.392-.2-.7-.488-.924-.864-.216-.384-.324-.836-.324-1.356v-1.8c0-.528.108-.98.324-1.356.224-.376.532-.664.924-.864.4-.2.864-.3 1.392-.3.76 0 1.372.204 1.836.612.472.408.72.964.744 1.668h-1.08c-.024-.424-.168-.748-.432-.972-.264-.232-.62-.348-1.068-.348-.472 0-.852.136-1.14.408-.28.264-.42.644-.42 1.14V74.6c0 .496.14.88.42 1.152.288.272.668.408 1.14.408.448 0 .804-.116 1.068-.348.264-.232.408-.556.432-.972h1.08c-.024.704-.272 1.26-.744 1.668-.464.408-1.076.612-1.836.612Zm7.099-.024c-.528 0-.988-.104-1.38-.312a2.216 2.216 0 0 1-.9-.9c-.208-.4-.312-.876-.312-1.428v-1.512c0-.56.104-1.036.312-1.428.216-.392.516-.692.9-.9.392-.208.852-.312 1.38-.312.536 0 .996.104 1.38.312.384.208.68.508.888.9.216.392.324.868.324 1.428v1.512c0 .552-.108 1.028-.324 1.428a2.124 2.124 0 0 1-.9.9c-.384.208-.84.312-1.368.312Zm0-.96c.472 0 .84-.132 1.104-.396.272-.264.408-.652.408-1.164v-1.752c0-.512-.136-.9-.408-1.164-.264-.264-.632-.396-1.104-.396-.464 0-.832.132-1.104.396-.272.264-.408.652-.408 1.164v1.752c0 .512.136.9.408 1.164.272.264.64.396 1.104.396Zm8.156.864a2.13 2.13 0 0 1-1.008-.228 1.639 1.639 0 0 1-.672-.648 1.95 1.95 0 0 1-.24-.984v-5.916h-2.28v-.984h3.36v6.9c0 .272.076.488.228.648.152.152.356.228.612.228h2.04V77h-2.04Zm6.235.096c-.528 0-.988-.104-1.38-.312a2.216 2.216 0 0 1-.9-.9c-.208-.4-.312-.876-.312-1.428v-1.512c0-.56.104-1.036.312-1.428.216-.392.516-.692.9-.9.392-.208.852-.312 1.38-.312.536 0 .996.104 1.38.312.384.208.68.508.888.9.216.392.324.868.324 1.428v1.512c0 .552-.108 1.028-.324 1.428a2.124 2.124 0 0 1-.9.9c-.384.208-.84.312-1.368.312Zm0-.96c.472 0 .84-.132 1.104-.396.272-.264.408-.652.408-1.164v-1.752c0-.512-.136-.9-.408-1.164-.264-.264-.632-.396-1.104-.396-.464 0-.832.132-1.104.396-.272.264-.408.652-.408 1.164v1.752c0 .512.136.9.408 1.164.272.264.64.396 1.104.396Zm4.939.864v-6.6h1.08v1.26h.228l-.228.288c0-.512.156-.916.468-1.212.32-.304.76-.456 1.32-.456.688 0 1.216.208 1.584.624.376.408.564.992.564 1.752v.564h-1.08v-.564c0-.488-.12-.848-.36-1.08-.24-.24-.588-.36-1.044-.36-.472 0-.832.136-1.08.408-.248.272-.372.664-.372 1.176V77h-1.08Zm9.452.12c-.296 0-.536-.088-.72-.264a.925.925 0 0 1-.264-.684c0-.296.088-.536.264-.72.184-.184.424-.276.72-.276s.532.092.708.276c.184.184.276.424.276.72 0 .28-.092.508-.276.684-.176.176-.412.264-.708.264Zm6.931-.024c-.488 0-.908-.072-1.26-.216a1.778 1.778 0 0 1-.792-.648c-.176-.288-.264-.636-.264-1.044h1.08c0 .304.108.544.324.72.216.168.52.252.912.252h.528c.4 0 .708-.088.924-.264.224-.176.336-.424.336-.744 0-.288-.064-.512-.192-.672-.128-.16-.324-.256-.588-.288l-1.824-.264c-.448-.064-.796-.248-1.044-.552-.248-.312-.372-.72-.372-1.224 0-.576.196-1.028.588-1.356.4-.328.948-.492 1.644-.492h.528c.64 0 1.16.16 1.56.48.408.312.628.724.66 1.236h-1.092a.757.757 0 0 0-.336-.576c-.2-.152-.464-.228-.792-.228h-.528c-.368 0-.656.084-.864.252a.833.833 0 0 0-.312.684c0 .224.052.404.156.54a.74.74 0 0 0 .48.252l1.704.24c.56.08.98.284 1.26.612s.42.78.42 1.356c0 .616-.204 1.096-.612 1.44-.4.336-.968.504-1.704.504h-.528Zm8.119-.096c-.544 0-.98-.156-1.308-.468-.328-.32-.492-.744-.492-1.272v-3.876h-1.896V70.4h1.896v-1.86h1.08v1.86h2.7v.984h-2.7v3.876a.8.8 0 0 0 .192.552.714.714 0 0 0 .528.204h1.92V77h-1.92Zm4.279 0v-6.6h1.08v1.26h.228l-.228.288c0-.512.156-.916.468-1.212.32-.304.76-.456 1.32-.456.688 0 1.216.208 1.584.624.376.408.564.992.564 1.752v.564h-1.08v-.564c0-.488-.12-.848-.36-1.08-.24-.24-.588-.36-1.044-.36-.472 0-.832.136-1.08.408-.248.272-.372.664-.372 1.176V77h-1.08Zm9.452.096c-.528 0-.988-.104-1.38-.312a2.216 2.216 0 0 1-.9-.9c-.208-.4-.312-.876-.312-1.428v-1.512c0-.56.104-1.036.312-1.428.216-.392.516-.692.9-.9.392-.208.852-.312 1.38-.312.536 0 .996.104 1.38.312.384.208.68.508.888.9.216.392.324.868.324 1.428v1.512c0 .552-.108 1.028-.324 1.428a2.124 2.124 0 0 1-.9.9c-.384.208-.84.312-1.368.312Zm0-.96c.472 0 .84-.132 1.104-.396.272-.264.408-.652.408-1.164v-1.752c0-.512-.136-.9-.408-1.164-.264-.264-.632-.396-1.104-.396-.464 0-.832.132-1.104.396-.272.264-.408.652-.408 1.164v1.752c0 .512.136.9.408 1.164.272.264.64.396 1.104.396Zm4.699.864v-6.6h1.08v1.26h.228l-.228.252c0-.52.156-.92.468-1.2.312-.288.744-.432 1.296-.432.664 0 1.192.204 1.584.612.392.408.588.964.588 1.668V77h-1.08v-4.248c0-.504-.128-.888-.384-1.152-.248-.272-.588-.408-1.02-.408-.448 0-.804.14-1.068.42-.256.28-.384.676-.384 1.188V77h-1.08Zm8.023 2.16v-.984h1.86c.376 0 .672-.108.888-.324.216-.208.324-.492.324-.852v-.6l.024-1.08h-.216l.204-.3c0 .48-.16.856-.48 1.128-.32.264-.748.396-1.284.396-.68 0-1.216-.216-1.608-.648-.392-.432-.588-1.024-.588-1.776v-1.392c0-.752.196-1.348.588-1.788.392-.44.928-.66 1.608-.66.536 0 .964.14 1.284.42.32.28.48.66.48 1.14l-.204-.3h.204V70.4h1.068V77c0 .664-.208 1.188-.624 1.572-.408.392-.968.588-1.68.588h-1.848Zm1.644-3.516c.448 0 .8-.14 1.056-.42.256-.28.384-.668.384-1.164V72.8c0-.496-.128-.884-.384-1.164-.256-.28-.608-.42-1.056-.42-.456 0-.812.132-1.068.396-.248.264-.372.62-.372 1.068v1.5c0 .448.124.804.372 1.068.256.264.612.396 1.068.396Zm7.22 1.476c-.296 0-.536-.088-.72-.264a.925.925 0 0 1-.264-.684c0-.296.088-.536.264-.72.184-.184.424-.276.72-.276s.532.092.708.276c.184.184.276.424.276.72 0 .28-.092.508-.276.684-.176.176-.412.264-.708.264Zm6.811 0c-.656 0-1.184-.22-1.584-.66-.392-.44-.588-1.036-.588-1.788V72.74c0-.76.196-1.36.588-1.8.392-.44.92-.66 1.584-.66.544 0 .984.148 1.32.444.336.296.504.692.504 1.188l-.24-.252h.24l-.024-1.5v-1.92h1.08V77h-1.08v-1.26h-.216l.216-.252c0 .504-.164.904-.492 1.2-.328.288-.764.432-1.308.432Zm.36-.936c.448 0 .8-.14 1.056-.42.256-.28.384-.668.384-1.164v-1.8c0-.496-.128-.884-.384-1.164-.256-.28-.608-.42-1.056-.42-.456 0-.812.12-1.068.36-.256.232-.384.62-.384 1.164v1.92c0 .536.128.924.384 1.164.256.24.612.36 1.068.36Zm7.219.936c-.52 0-.976-.104-1.368-.312a2.296 2.296 0 0 1-.9-.912c-.216-.4-.324-.872-.324-1.416v-1.56c0-.552.108-1.024.324-1.416.216-.392.516-.692.9-.9.392-.216.848-.324 1.368-.324.52 0 .972.104 1.356.312.392.208.696.5.912.876.216.376.324.82.324 1.332v1.176h-4.128v.624c0 .488.14.876.42 1.164.28.28.652.42 1.116.42.4 0 .728-.076.984-.228.264-.16.424-.372.48-.636h1.08c-.072.552-.34.992-.804 1.32-.464.32-1.044.48-1.74.48Zm1.536-3.876V72.8c0-.52-.136-.92-.408-1.2-.264-.288-.64-.432-1.128-.432-.488 0-.868.144-1.14.432-.264.28-.396.68-.396 1.2v.336h3.156l-.084.108Zm4.64 3.756v-4.716h-1.92V71.3h1.92v-1.38c0-.52.164-.928.492-1.224.328-.304.78-.456 1.356-.456h1.932v.984h-1.932c-.248 0-.44.06-.576.18-.128.112-.192.284-.192.516v1.38h2.7v.984h-2.7V77h-1.08Zm7.639.12c-.68 0-1.22-.188-1.62-.564-.4-.384-.6-.884-.6-1.5 0-.408.092-.764.276-1.068.184-.304.44-.54.768-.708a2.349 2.349 0 0 1 1.128-.264h2.04V72.5c0-.432-.116-.752-.348-.96-.232-.216-.584-.324-1.056-.324-.416 0-.752.076-1.008.228-.256.152-.392.364-.408.636h-1.08c.04-.52.28-.948.72-1.284.448-.344 1.04-.516 1.776-.516.8 0 1.412.192 1.836.576.432.384.648.92.648 1.608V77h-1.068v-1.2h-.18l.168-.24c0 .32-.08.596-.24.828-.16.232-.388.412-.684.54-.296.128-.652.192-1.068.192Zm.264-.912c.528 0 .948-.128 1.26-.384.312-.256.468-.604.468-1.044v-.924h-1.92c-.352 0-.64.108-.864.324-.216.208-.324.488-.324.84 0 .368.12.66.36.876.248.208.588.312 1.02.312Zm7.495.912c-.76 0-1.368-.224-1.824-.672-.456-.456-.684-1.072-.684-1.848v-4.2h1.08v4.2c0 .48.128.864.384 1.152.256.28.604.42 1.044.42.448 0 .8-.14 1.056-.42.264-.288.396-.672.396-1.152v-4.2h1.08v4.2c0 .776-.232 1.392-.696 1.848-.464.448-1.076.672-1.836.672Zm8.168-.12a2.13 2.13 0 0 1-1.008-.228 1.639 1.639 0 0 1-.672-.648 1.95 1.95 0 0 1-.24-.984v-5.916h-2.28v-.984h3.36v6.9c0 .272.076.488.228.648.152.152.356.228.612.228h2.04V77h-2.04Zm6.895 0c-.544 0-.98-.156-1.308-.468-.328-.32-.492-.744-.492-1.272v-3.876h-1.896V70.4h1.896v-1.86h1.08v1.86h2.7v.984h-2.7v3.876a.8.8 0 0 0 .192.552.714.714 0 0 0 .528.204h1.92V77h-1.92Z" fill="#333238"/><defs><clipPath id="design-tokens__b"><path fill="#fff" transform="translate(32 198)" d="M0 0h319v48H0z"/></clipPath></defs></svg>