<svg width="352" height="160" viewBox="0 0 352 160" fill="none" xmlns="http://www.w3.org/2000/svg">
<rect x="0.5" y="0.5" width="351" height="159" rx="2.5" fill="white"/>
<rect x="0.5" y="0.5" width="351" height="159" rx="2.5" stroke="#BFBFC3"/>
<path d="M20.6758 31.1504C18.1943 31.1504 16.6084 30.002 16.5537 27.7871H18.6592C18.7275 28.8125 19.5273 29.3184 20.6484 29.3184C21.7285 29.3184 22.4326 28.8193 22.4326 28.0811C22.4326 27.4111 21.8174 27.0967 20.71 26.8301L19.6025 26.5566C17.8662 26.1396 16.8203 25.2715 16.8203 23.7676C16.8203 21.9219 18.4541 20.6777 20.6895 20.6777C22.9795 20.6777 24.4629 21.9424 24.4902 23.7607H22.3916C22.3164 22.9609 21.6943 22.5029 20.6758 22.5029C19.6367 22.5029 19.0625 22.9814 19.0625 23.6309C19.0625 24.3486 19.7803 24.6699 20.6553 24.875L21.5645 25.0938C23.3486 25.4971 24.627 26.3994 24.627 28.0879C24.627 29.9678 23.1572 31.1504 20.6758 31.1504ZM28.6738 31.0957C27.0811 31.0957 26.0352 29.9951 26.0352 28.2246V23.3574H28.1748V27.835C28.1748 28.7646 28.6807 29.3184 29.5215 29.3184C30.3691 29.3184 30.957 28.7441 30.957 27.7666V23.3574H33.1035V31H31.0801L31.0459 29.0859H31.1621C30.7656 30.3574 29.959 31.0957 28.6738 31.0957ZM34.7988 31V23.3574H36.7812L36.8906 25.2852H36.7402C37.082 23.8496 38.0254 23.248 39.0576 23.248C40.1445 23.248 40.8076 23.9248 41.1357 25.4219H40.8896C41.2383 23.9111 42.3184 23.248 43.4873 23.248C44.8955 23.248 45.9277 24.1982 45.9277 25.8457V31H43.7812V26.2832C43.7812 25.4424 43.2822 25.0254 42.6123 25.0254C41.8604 25.0254 41.3955 25.5518 41.3955 26.3311V31H39.3311V26.2354C39.3311 25.4971 38.8525 25.0254 38.1758 25.0254C37.4717 25.0254 36.9385 25.5176 36.9385 26.4062V31H34.7988ZM47.6367 31V23.3574H49.6191L49.7285 25.2852H49.5781C49.9199 23.8496 50.8633 23.248 51.8955 23.248C52.9824 23.248 53.6455 23.9248 53.9736 25.4219H53.7275C54.0762 23.9111 55.1562 23.248 56.3252 23.248C57.7334 23.248 58.7656 24.1982 58.7656 25.8457V31H56.6191V26.2832C56.6191 25.4424 56.1201 25.0254 55.4502 25.0254C54.6982 25.0254 54.2334 25.5518 54.2334 26.3311V31H52.1689V26.2354C52.1689 25.4971 51.6904 25.0254 51.0137 25.0254C50.3096 25.0254 49.7764 25.5176 49.7764 26.4062V31H47.6367ZM62.6074 31.1504C61.1514 31.1504 60.0781 30.3848 60.0781 28.8672C60.0781 27.165 61.4316 26.6523 62.9492 26.5088C64.2549 26.3857 64.7881 26.3242 64.7881 25.832V25.7979C64.7881 25.1826 64.3711 24.8271 63.6328 24.8271C62.8809 24.8271 62.4023 25.1963 62.252 25.6885L60.2969 25.3809C60.6523 24.0615 61.8828 23.2617 63.6465 23.2617C65.3555 23.2617 66.9277 24.0479 66.9277 25.8457V31H64.9043V29.9404H64.8359C64.4531 30.6719 63.7217 31.1504 62.6074 31.1504ZM63.2295 29.6738C64.1455 29.6738 64.8018 29.0654 64.8018 28.2725V27.4727C64.5488 27.6367 63.79 27.7461 63.3457 27.8145C62.6006 27.917 62.1221 28.2178 62.1221 28.7988C62.1221 29.373 62.5801 29.6738 63.2295 29.6738ZM68.6367 31V23.3574H70.7148V24.7109H70.7969C71.0703 23.7539 71.7676 23.2617 72.6221 23.2617C72.834 23.2617 73.1006 23.2891 73.2852 23.3301V25.2305C73.0938 25.1689 72.6836 25.1211 72.3828 25.1211C71.46 25.1211 70.7764 25.7637 70.7764 26.7002V31H68.6367ZM74.4746 31V23.3574H76.6143V31H74.4746ZM75.541 22.3936C74.9121 22.3936 74.3926 21.9082 74.3926 21.3135C74.3926 20.7119 74.9121 20.2334 75.541 20.2334C76.1768 20.2334 76.7031 20.7119 76.7031 21.3135C76.7031 21.9082 76.1768 22.3936 75.541 22.3936ZM78.2754 31V29.7285L81.9941 25.1279V25.0732H78.3984V23.3574H84.5713V24.7588L81.085 29.2363V29.291H84.7012V31H78.2754ZM89.5684 31.1504C87.21 31.1504 85.7676 29.6465 85.7676 27.2197C85.7676 24.8613 87.2168 23.2617 89.4658 23.2617C91.5029 23.2617 93.082 24.5605 93.082 27.1445V27.7324H86.6152V26.4131H92.043L91.0381 26.7549C91.0381 25.5996 90.5117 24.8613 89.4863 24.8613C88.4541 24.8613 87.8867 25.6201 87.8867 26.6729V27.6094C87.8867 28.8945 88.5703 29.5576 89.6025 29.5576C90.2998 29.5576 90.8262 29.2568 91.0381 28.6895L92.9658 29.0312C92.5898 30.3164 91.3594 31.1504 89.5684 31.1504ZM101.155 31.1504C98.8311 31.1504 97.3887 29.5645 97.3887 27.2129C97.3887 24.8477 98.8311 23.2617 101.155 23.2617C103.008 23.2617 104.313 24.2598 104.587 25.8525L102.598 26.2148C102.434 25.4219 101.948 24.9365 101.176 24.9365C100.137 24.9365 99.5762 25.8389 99.5762 27.2061C99.5762 28.5596 100.137 29.4824 101.176 29.4824C101.948 29.4824 102.454 28.9834 102.611 28.1562L104.601 28.5117C104.32 30.1455 103.021 31.1504 101.155 31.1504ZM109.427 31.1504C107.103 31.1504 105.66 29.5645 105.66 27.2129C105.66 24.8477 107.103 23.2617 109.427 23.2617C111.751 23.2617 113.193 24.8477 113.193 27.2129C113.193 29.5645 111.751 31.1504 109.427 31.1504ZM109.427 29.4824C110.473 29.4824 111.013 28.5254 111.013 27.2061C111.013 25.873 110.473 24.9365 109.427 24.9365C108.388 24.9365 107.848 25.873 107.848 27.2061C107.848 28.5254 108.388 29.4824 109.427 29.4824ZM114.588 31V23.3574H116.57L116.68 25.2852H116.529C116.871 23.8496 117.814 23.248 118.847 23.248C119.934 23.248 120.597 23.9248 120.925 25.4219H120.679C121.027 23.9111 122.107 23.248 123.276 23.248C124.685 23.248 125.717 24.1982 125.717 25.8457V31H123.57V26.2832C123.57 25.4424 123.071 25.0254 122.401 25.0254C121.649 25.0254 121.185 25.5518 121.185 26.3311V31H119.12V26.2354C119.12 25.4971 118.642 25.0254 117.965 25.0254C117.261 25.0254 116.728 25.5176 116.728 26.4062V31H114.588ZM127.426 31V23.3574H129.408L129.518 25.2852H129.367C129.709 23.8496 130.652 23.248 131.685 23.248C132.771 23.248 133.435 23.9248 133.763 25.4219H133.517C133.865 23.9111 134.945 23.248 136.114 23.248C137.522 23.248 138.555 24.1982 138.555 25.8457V31H136.408V26.2832C136.408 25.4424 135.909 25.0254 135.239 25.0254C134.487 25.0254 134.022 25.5518 134.022 26.3311V31H131.958V26.2354C131.958 25.4971 131.479 25.0254 130.803 25.0254C130.099 25.0254 129.565 25.5176 129.565 26.4062V31H127.426ZM143.75 31.1504C141.392 31.1504 139.949 29.6465 139.949 27.2197C139.949 24.8613 141.398 23.2617 143.647 23.2617C145.685 23.2617 147.264 24.5605 147.264 27.1445V27.7324H140.797V26.4131H146.225L145.22 26.7549C145.22 25.5996 144.693 24.8613 143.668 24.8613C142.636 24.8613 142.068 25.6201 142.068 26.6729V27.6094C142.068 28.8945 142.752 29.5576 143.784 29.5576C144.481 29.5576 145.008 29.2568 145.22 28.6895L147.147 29.0312C146.771 30.3164 145.541 31.1504 143.75 31.1504ZM150.771 26.5977V31H148.631V23.3574H150.647L150.688 25.2715H150.565C150.962 24.0205 151.755 23.2617 153.061 23.2617C154.653 23.2617 155.699 24.3691 155.699 26.1396V31H153.553V26.5293C153.553 25.5996 153.047 25.0459 152.206 25.0459C151.358 25.0459 150.771 25.6201 150.771 26.5977ZM161.277 23.3574V24.9775H156.684V23.3574H161.277ZM157.723 21.5391H159.862V28.7373C159.862 29.2021 160.061 29.4209 160.539 29.4209C160.696 29.4209 161.045 29.3662 161.188 29.332L161.489 30.9248C161.011 31.0615 160.539 31.1094 160.115 31.1094C158.557 31.1094 157.723 30.3438 157.723 28.9287V21.5391ZM165.577 31.1504C163.704 31.1504 162.419 30.3164 162.152 28.8877L164.148 28.5527C164.34 29.25 164.812 29.6055 165.646 29.6055C166.397 29.6055 166.862 29.291 166.862 28.8535C166.862 28.4639 166.548 28.2314 165.885 28.0947L164.565 27.8281C163.082 27.5273 162.351 26.8027 162.351 25.6475C162.351 24.1709 163.636 23.2617 165.598 23.2617C167.443 23.2617 168.558 24.0615 168.838 25.3262L166.944 25.6475C166.787 25.1279 166.35 24.7861 165.639 24.7861C164.989 24.7861 164.49 25.0801 164.49 25.5176C164.49 25.8799 164.736 26.1396 165.44 26.2832L166.835 26.5566C168.325 26.8574 169.043 27.5273 169.043 28.6211C169.043 30.1455 167.607 31.1504 165.577 31.1504ZM175.229 31L172.98 23.3574H175.229L175.865 26.1328C176.084 27.1514 176.364 28.3271 176.583 29.7627H176.351C176.583 28.3545 176.884 27.1719 177.13 26.1328L177.807 23.3574H179.755L180.411 26.1328C180.644 27.1582 180.951 28.3408 181.184 29.7627H180.951C181.17 28.3477 181.43 27.1719 181.655 26.1328L182.291 23.3574H184.567L182.305 31H180.124L179.29 28.1084C179.044 27.2607 178.812 25.9756 178.579 25.0254H178.955C178.723 25.9688 178.483 27.2676 178.244 28.1084L177.41 31H175.229ZM185.6 31V23.3574H187.739V31H185.6ZM186.666 22.3936C186.037 22.3936 185.518 21.9082 185.518 21.3135C185.518 20.7119 186.037 20.2334 186.666 20.2334C187.302 20.2334 187.828 20.7119 187.828 21.3135C187.828 21.9082 187.302 22.3936 186.666 22.3936ZM193.324 23.3574V24.9775H188.73V23.3574H193.324ZM189.77 21.5391H191.909V28.7373C191.909 29.2021 192.107 29.4209 192.586 29.4209C192.743 29.4209 193.092 29.3662 193.235 29.332L193.536 30.9248C193.058 31.0615 192.586 31.1094 192.162 31.1094C190.604 31.1094 189.77 30.3438 189.77 28.9287V21.5391ZM196.776 26.5977V31H194.637V20.8145H196.735V25.2715H196.571C196.968 24.0205 197.761 23.2617 199.066 23.2617C200.659 23.2617 201.705 24.3691 201.705 26.1396V31H199.559V26.5293C199.559 25.5996 199.053 25.0459 198.212 25.0459C197.364 25.0459 196.776 25.6201 196.776 26.5977ZM211.241 31.1367C208.37 31.1367 206.422 29.1475 206.422 25.9277C206.422 22.6191 208.507 20.6777 211.2 20.6777C213.504 20.6777 215.281 22.0928 215.555 24.1094H213.347C213.08 23.1729 212.335 22.6055 211.234 22.6055C209.689 22.6055 208.637 23.7949 208.637 25.9004C208.637 28.0127 209.648 29.2158 211.262 29.2158C212.704 29.2158 213.552 28.4023 213.552 27.1172L213.996 27.1787H211.392V25.5449H215.664V26.8301C215.664 29.5166 213.812 31.1367 211.241 31.1367ZM217.168 31V23.3574H219.308V31H217.168ZM218.234 22.3936C217.605 22.3936 217.086 21.9082 217.086 21.3135C217.086 20.7119 217.605 20.2334 218.234 20.2334C218.87 20.2334 219.396 20.7119 219.396 21.3135C219.396 21.9082 218.87 22.3936 218.234 22.3936ZM224.893 23.3574V24.9775H220.299V23.3574H224.893ZM221.338 21.5391H223.478V28.7373C223.478 29.2021 223.676 29.4209 224.154 29.4209C224.312 29.4209 224.66 29.3662 224.804 29.332L225.104 30.9248C224.626 31.0615 224.154 31.1094 223.73 31.1094C222.172 31.1094 221.338 30.3438 221.338 28.9287V21.5391ZM226.239 31V20.8145H228.42V29.209H232.774V31H226.239ZM236.254 31.1504C234.798 31.1504 233.725 30.3848 233.725 28.8672C233.725 27.165 235.078 26.6523 236.596 26.5088C237.901 26.3857 238.435 26.3242 238.435 25.832V25.7979C238.435 25.1826 238.018 24.8271 237.279 24.8271C236.527 24.8271 236.049 25.1963 235.898 25.6885L233.943 25.3809C234.299 24.0615 235.529 23.2617 237.293 23.2617C239.002 23.2617 240.574 24.0479 240.574 25.8457V31H238.551V29.9404H238.482C238.1 30.6719 237.368 31.1504 236.254 31.1504ZM236.876 29.6738C237.792 29.6738 238.448 29.0654 238.448 28.2725V27.4727C238.195 27.6367 237.437 27.7461 236.992 27.8145C236.247 27.917 235.769 28.2178 235.769 28.7988C235.769 29.373 236.227 29.6738 236.876 29.6738ZM246.645 31.123C245.421 31.123 244.778 30.4121 244.484 29.7764H244.389V31H242.283V20.8145H244.423V24.6562H244.484C244.765 24.0273 245.387 23.2617 246.658 23.2617C248.333 23.2617 249.748 24.5674 249.748 27.1924C249.748 29.749 248.388 31.123 246.645 31.123ZM245.968 29.4209C246.993 29.4209 247.547 28.5049 247.547 27.1855C247.547 25.873 247 24.9707 245.968 24.9707C244.949 24.9707 244.375 25.832 244.375 27.1855C244.375 28.5322 244.963 29.4209 245.968 29.4209ZM258.061 31H255.401V29.1338H257.958C259.858 29.1338 260.87 28.1699 260.87 25.9072C260.87 23.6445 259.858 22.6875 257.958 22.6875H255.354V20.8145H258.088C261.157 20.8145 263.037 22.7285 263.037 25.9072C263.037 29.0859 261.157 31 258.061 31ZM256.611 20.8145V31H254.431V20.8145H256.611ZM267.152 31.0957C265.56 31.0957 264.514 29.9951 264.514 28.2246V23.3574H266.653V27.835C266.653 28.7646 267.159 29.3184 268 29.3184C268.848 29.3184 269.436 28.7441 269.436 27.7666V23.3574H271.582V31H269.559L269.524 29.0859H269.641C269.244 30.3574 268.438 31.0957 267.152 31.0957ZM276.729 31.1504C274.405 31.1504 272.963 29.5645 272.963 27.2129C272.963 24.8477 274.405 23.2617 276.729 23.2617C279.054 23.2617 280.496 24.8477 280.496 27.2129C280.496 29.5645 279.054 31.1504 276.729 31.1504ZM276.729 29.4824C277.775 29.4824 278.315 28.5254 278.315 27.2061C278.315 25.873 277.775 24.9365 276.729 24.9365C275.69 24.9365 275.15 25.873 275.15 27.2061C275.15 28.5254 275.69 29.4824 276.729 29.4824Z" fill="#28272D"/>
<rect x="286" y="18" width="42" height="16" rx="8" fill="#ECECEF"/>
<rect x="286" y="18" width="42" height="16" rx="8" stroke="#BFBFC3"/>
<path d="M295.055 30V21.2695H298.148C299.971 21.2695 300.832 22.3066 300.832 23.584C300.832 24.7031 300.164 25.2129 299.402 25.418V25.5C300.217 25.5527 301.172 26.3027 301.172 27.6738C301.172 28.9922 300.305 30 298.248 30H295.055ZM296.168 29.0156H298.219C299.578 29.0156 300.1 28.418 300.1 27.6621C300.1 26.7891 299.396 26.0391 298.277 26.0391H296.168V29.0156ZM296.168 25.1016H298.09C299.027 25.1016 299.766 24.5098 299.766 23.6074C299.766 22.8516 299.256 22.2539 298.125 22.2539H296.168V25.1016ZM305.531 30.1406C303.633 30.1406 302.461 28.793 302.461 26.7773C302.461 24.7676 303.621 23.3672 305.408 23.3672C306.797 23.3672 308.262 24.2227 308.262 26.6426V27.082H303.176V26.1914H307.693L307.201 26.5195C307.201 25.2305 306.592 24.3047 305.408 24.3047C304.225 24.3047 303.527 25.2832 303.527 26.3496V26.9414C303.527 28.4004 304.336 29.2031 305.537 29.2031C306.311 29.2031 306.891 28.8633 307.137 28.1953L308.156 28.4766C307.852 29.4668 306.873 30.1406 305.531 30.1406ZM312.352 23.4492V24.3516H308.965V23.4492H312.352ZM309.949 21.8906H311.004V28.3008C311.004 28.8867 311.221 29.1445 311.777 29.1445C311.912 29.1445 312.141 29.1094 312.316 29.0742L312.533 29.9648C312.316 30.041 312.018 30.082 311.748 30.082C310.617 30.082 309.949 29.4551 309.949 28.3828V21.8906ZM315.592 30.1523C314.35 30.1523 313.359 29.4258 313.359 28.1367C313.359 26.6367 314.695 26.3613 315.908 26.209C317.074 26.0625 317.59 26.0977 317.59 25.6113V25.5762C317.59 24.7617 317.127 24.293 316.219 24.293C315.275 24.293 314.766 24.7969 314.561 25.2539L313.547 24.9199C314.051 23.7305 315.176 23.3672 316.189 23.3672C317.068 23.3672 318.645 23.6367 318.645 25.6816V30H317.607V29.1094H317.537C317.314 29.5723 316.699 30.1523 315.592 30.1523ZM315.773 29.2207C316.939 29.2207 317.59 28.4355 317.59 27.6328V26.7246C317.414 26.9297 316.266 27.0469 315.861 27.0996C315.094 27.1992 314.42 27.4453 314.42 28.1895C314.42 28.8691 314.988 29.2207 315.773 29.2207Z" fill="#626168"/>
<path d="M21.2158 59.1641C18.8027 59.1641 17.2305 57.6328 17.2305 55.5342V48.8145H18.5293V55.4316C18.5293 56.8945 19.5479 57.9609 21.2158 57.9609C22.877 57.9609 23.8887 56.8945 23.8887 55.4316V48.8145H25.1875V55.5342C25.1875 57.6328 23.6152 59.1641 21.2158 59.1641ZM30.0957 59.1641C28.5234 59.1641 27.4297 58.4668 27.1562 57.1475L28.3252 56.8672C28.5439 57.708 29.166 58.084 30.082 58.084C31.1484 58.084 31.832 57.5576 31.832 56.9287C31.832 56.4023 31.4629 56.0537 30.7109 55.876L29.4395 55.5752C28.0518 55.2471 27.3887 54.5635 27.3887 53.4902C27.3887 52.1777 28.5918 51.2617 30.2188 51.2617C31.791 51.2617 32.6182 52.0273 32.9668 53.1006L31.8525 53.3877C31.6406 52.8408 31.21 52.3076 30.2256 52.3076C29.3164 52.3076 28.6328 52.7793 28.6328 53.415C28.6328 53.9824 29.0225 54.2969 29.918 54.5088L31.0732 54.7822C32.4609 55.1104 33.1104 55.8008 33.1104 56.8467C33.1104 58.1865 31.8867 59.1641 30.0957 59.1641ZM38.1074 59.1641C35.8926 59.1641 34.5254 57.5918 34.5254 55.2402C34.5254 52.8955 35.8789 51.2617 37.9639 51.2617C39.584 51.2617 41.293 52.2598 41.293 55.083V55.5957H35.3594V54.5566H40.6299L40.0557 54.9395C40.0557 53.4355 39.3447 52.3555 37.9639 52.3555C36.583 52.3555 35.7695 53.4971 35.7695 54.7412V55.4316C35.7695 57.1338 36.7129 58.0703 38.1143 58.0703C39.0166 58.0703 39.6934 57.6738 39.9805 56.8945L41.1699 57.2227C40.8145 58.3779 39.6729 59.1641 38.1074 59.1641ZM46.2695 59L49.9678 48.8145H51.4717L55.2178 59H53.8506L51.6904 52.957C51.4238 52.2119 51.0889 51.1523 50.5898 49.4229H50.8359C50.3438 51.1729 49.9883 52.2666 49.749 52.957L47.6504 59H46.2695ZM48.1289 56.1562V55.0215H53.3584V56.1562H48.1289ZM58.1094 48.8145V59H56.8105V48.8145H58.1094ZM67.3652 51.3574V52.4102H63.4141V51.3574H67.3652ZM64.5625 49.5391H65.793V57.0176C65.793 57.7012 66.0459 58.002 66.6953 58.002C66.8525 58.002 67.1191 57.9609 67.3242 57.9199L67.5771 58.959C67.3242 59.0479 66.9756 59.0957 66.6611 59.0957C65.3418 59.0957 64.5625 58.3643 64.5625 57.1133V49.5391ZM71.9111 59.1641C69.833 59.1641 68.4316 57.585 68.4316 55.2266C68.4316 52.834 69.833 51.2617 71.9111 51.2617C73.9961 51.2617 75.4043 52.834 75.4043 55.2266C75.4043 57.585 73.9961 59.1641 71.9111 59.1641ZM71.9111 58.0635C73.4561 58.0635 74.1602 56.7305 74.1602 55.2266C74.1602 53.709 73.4561 52.3623 71.9111 52.3623C70.3867 52.3623 69.6826 53.7021 69.6826 55.2266C69.6826 56.7305 70.3867 58.0635 71.9111 58.0635ZM87.5449 61.8574H86.3145V57.8174H86.2188C85.9658 58.2412 85.4531 59.1641 83.9971 59.1641C82.0898 59.1641 80.7637 57.6328 80.7637 55.1992C80.7637 52.7793 82.0967 51.2617 84.0039 51.2617C85.4941 51.2617 85.9658 52.1777 86.2188 52.5811H86.3555V51.3574H87.5449V61.8574ZM84.1816 58.0635C85.5693 58.0635 86.3281 56.8877 86.3281 55.1855C86.3281 53.4971 85.5898 52.3623 84.1816 52.3623C82.7324 52.3623 82.0146 53.5996 82.0146 55.1855C82.0146 56.792 82.7529 58.0635 84.1816 58.0635ZM92.2959 59.0957C90.751 59.0957 89.7051 58.1455 89.7051 56.2109V51.3574H90.9355V56.1084C90.9355 57.2842 91.5986 57.9883 92.665 57.9883C93.7588 57.9883 94.5859 57.2432 94.5859 55.9375V51.3574H95.8232V59H94.6338V57.1475H94.7979C94.3262 58.583 93.417 59.0957 92.2959 59.0957ZM97.9902 59V51.3574H99.2207V59H97.9902ZM98.6123 50.1064C98.1475 50.1064 97.7578 49.7441 97.7578 49.293C97.7578 48.8418 98.1475 48.4795 98.6123 48.4795C99.084 48.4795 99.4736 48.8418 99.4736 49.293C99.4736 49.7441 99.084 50.1064 98.6123 50.1064ZM104.491 59.1641C102.413 59.1641 101.012 57.585 101.012 55.2266C101.012 52.834 102.413 51.2617 104.491 51.2617C105.968 51.2617 107.171 52.041 107.588 53.374L106.405 53.709C106.18 52.9229 105.496 52.3623 104.491 52.3623C102.967 52.3623 102.263 53.7021 102.263 55.2266C102.263 56.7305 102.967 58.0635 104.491 58.0635C105.517 58.0635 106.214 57.4824 106.439 56.6553L107.615 56.9902C107.205 58.3506 105.988 59.1641 104.491 59.1641ZM110.534 56.252V54.7275H110.76L114.027 51.3574H115.552L112.018 54.9873H111.881L110.534 56.252ZM109.379 59V48.8145H110.609V59H109.379ZM114.212 59L111.286 55.2607L112.161 54.3926L115.791 59H114.212ZM118.778 59.0547C117.63 59.0547 117.062 58.4121 117.062 57.3047V48.8145H118.293V56.9971C118.293 57.7012 118.416 57.9541 118.929 57.9541C119.195 57.9541 119.305 57.9336 119.421 57.8994L119.667 58.9385C119.448 59 119.106 59.0547 118.778 59.0547ZM120.521 61.7686L120.836 60.7021L120.966 60.7363C121.718 60.9346 122.258 60.7705 122.634 59.6768L122.853 59.041L119.934 51.3574H121.28L122.907 55.8896C123.249 56.8398 123.454 57.7764 123.721 58.6514H123.27C123.529 57.7764 123.741 56.833 124.083 55.8896L125.724 51.3574H127.063L123.707 60.1416C123.242 61.3584 122.504 61.9121 121.424 61.9121C120.986 61.9121 120.651 61.8301 120.521 61.7686ZM135.554 62.0215C133.858 62.0215 132.881 61.3037 132.409 60.4629L133.407 59.8203C133.729 60.2646 134.207 60.9482 135.554 60.9482C136.771 60.9482 137.652 60.3877 137.652 59.1299V57.5986H137.536C137.276 58.0361 136.791 58.877 135.314 58.877C133.482 58.877 132.088 57.5439 132.088 55.1445C132.088 52.7793 133.435 51.2617 135.342 51.2617C136.818 51.2617 137.311 52.1709 137.57 52.5811H137.687V51.3574H138.883V59.1982C138.883 61.1738 137.413 62.0215 135.554 62.0215ZM135.52 57.7832C136.907 57.7832 137.666 56.7852 137.666 55.1172C137.666 53.4971 136.928 52.3623 135.52 52.3623C134.063 52.3623 133.339 53.5928 133.339 55.1172C133.339 56.6895 134.084 57.7832 135.52 57.7832ZM144.256 59.1641C142.041 59.1641 140.674 57.5918 140.674 55.2402C140.674 52.8955 142.027 51.2617 144.112 51.2617C145.732 51.2617 147.441 52.2598 147.441 55.083V55.5957H141.508V54.5566H146.778L146.204 54.9395C146.204 53.4355 145.493 52.3555 144.112 52.3555C142.731 52.3555 141.918 53.4971 141.918 54.7412V55.4316C141.918 57.1338 142.861 58.0703 144.263 58.0703C145.165 58.0703 145.842 57.6738 146.129 56.8945L147.318 57.2227C146.963 58.3779 145.821 59.1641 144.256 59.1641ZM150.436 54.4199V59H149.205V51.3574H150.388L150.395 53.21H150.224C150.688 51.8018 151.577 51.2617 152.732 51.2617C154.277 51.2617 155.323 52.2119 155.323 54.1465V59H154.086V54.249C154.086 53.0732 153.43 52.3691 152.363 52.3691C151.263 52.3691 150.436 53.1143 150.436 54.4199ZM160.703 59.1641C158.488 59.1641 157.121 57.5918 157.121 55.2402C157.121 52.8955 158.475 51.2617 160.56 51.2617C162.18 51.2617 163.889 52.2598 163.889 55.083V55.5957H157.955V54.5566H163.226L162.651 54.9395C162.651 53.4355 161.94 52.3555 160.56 52.3555C159.179 52.3555 158.365 53.4971 158.365 54.7412V55.4316C158.365 57.1338 159.309 58.0703 160.71 58.0703C161.612 58.0703 162.289 57.6738 162.576 56.8945L163.766 57.2227C163.41 58.3779 162.269 59.1641 160.703 59.1641ZM165.652 59V51.3574H166.842V52.5332H166.924C167.204 51.7607 167.997 51.248 168.906 51.248C169.084 51.248 169.385 51.2617 169.528 51.2686V52.5059C169.453 52.4922 169.118 52.4375 168.79 52.4375C167.689 52.4375 166.883 53.1826 166.883 54.2148V59H165.652ZM173.069 59.1777C171.62 59.1777 170.465 58.3301 170.465 56.8262C170.465 55.0762 172.023 54.7549 173.438 54.5771C174.799 54.4062 175.4 54.4473 175.4 53.8799V53.8389C175.4 52.8887 174.86 52.3418 173.801 52.3418C172.7 52.3418 172.105 52.9297 171.866 53.4629L170.684 53.0732C171.271 51.6855 172.584 51.2617 173.767 51.2617C174.792 51.2617 176.631 51.5762 176.631 53.9619V59H175.421V57.9609H175.339C175.079 58.501 174.361 59.1777 173.069 59.1777ZM173.281 58.0908C174.642 58.0908 175.4 57.1748 175.4 56.2383V55.1787C175.195 55.418 173.855 55.5547 173.384 55.6162C172.488 55.7324 171.702 56.0195 171.702 56.8877C171.702 57.6807 172.365 58.0908 173.281 58.0908ZM181.799 51.3574V52.4102H177.848V51.3574H181.799ZM178.996 49.5391H180.227V57.0176C180.227 57.7012 180.479 58.002 181.129 58.002C181.286 58.002 181.553 57.9609 181.758 57.9199L182.011 58.959C181.758 59.0479 181.409 59.0957 181.095 59.0957C179.775 59.0957 178.996 58.3643 178.996 57.1133V49.5391ZM186.447 59.1641C184.232 59.1641 182.865 57.5918 182.865 55.2402C182.865 52.8955 184.219 51.2617 186.304 51.2617C187.924 51.2617 189.633 52.2598 189.633 55.083V55.5957H183.699V54.5566H188.97L188.396 54.9395C188.396 53.4355 187.685 52.3555 186.304 52.3555C184.923 52.3555 184.109 53.4971 184.109 54.7412V55.4316C184.109 57.1338 185.053 58.0703 186.454 58.0703C187.356 58.0703 188.033 57.6738 188.32 56.8945L189.51 57.2227C189.154 58.3779 188.013 59.1641 186.447 59.1641ZM197.932 59.1641C196.359 59.1641 195.266 58.4668 194.992 57.1475L196.161 56.8672C196.38 57.708 197.002 58.084 197.918 58.084C198.984 58.084 199.668 57.5576 199.668 56.9287C199.668 56.4023 199.299 56.0537 198.547 55.876L197.275 55.5752C195.888 55.2471 195.225 54.5635 195.225 53.4902C195.225 52.1777 196.428 51.2617 198.055 51.2617C199.627 51.2617 200.454 52.0273 200.803 53.1006L199.688 53.3877C199.477 52.8408 199.046 52.3076 198.062 52.3076C197.152 52.3076 196.469 52.7793 196.469 53.415C196.469 53.9824 196.858 54.2969 197.754 54.5088L198.909 54.7822C200.297 55.1104 200.946 55.8008 200.946 56.8467C200.946 58.1865 199.723 59.1641 197.932 59.1641ZM205.321 59.0957C203.776 59.0957 202.73 58.1455 202.73 56.2109V51.3574H203.961V56.1084C203.961 57.2842 204.624 57.9883 205.69 57.9883C206.784 57.9883 207.611 57.2432 207.611 55.9375V51.3574H208.849V59H207.659V57.1475H207.823C207.352 58.583 206.442 59.0957 205.321 59.0957ZM211.016 59V51.3574H212.212L212.219 53.0664H212.123C212.431 51.8291 213.367 51.2207 214.358 51.2207C215.466 51.2207 216.17 51.9727 216.375 53.0801H216.211C216.484 51.9385 217.496 51.2207 218.713 51.2207C220.039 51.2207 221.119 52.0752 221.119 53.8457V59H219.882V53.8799C219.882 52.7793 219.164 52.3418 218.344 52.3418C217.312 52.3418 216.683 53.0459 216.683 54.0098V59H215.452V53.7568C215.452 52.9092 214.816 52.3418 213.955 52.3418C213.06 52.3418 212.246 52.9707 212.246 54.1875V59H211.016ZM223.279 59V51.3574H224.476L224.482 53.0664H224.387C224.694 51.8291 225.631 51.2207 226.622 51.2207C227.729 51.2207 228.434 51.9727 228.639 53.0801H228.475C228.748 51.9385 229.76 51.2207 230.977 51.2207C232.303 51.2207 233.383 52.0752 233.383 53.8457V59H232.146V53.8799C232.146 52.7793 231.428 52.3418 230.607 52.3418C229.575 52.3418 228.946 53.0459 228.946 54.0098V59H227.716V53.7568C227.716 52.9092 227.08 52.3418 226.219 52.3418C225.323 52.3418 224.51 52.9707 224.51 54.1875V59H223.279ZM237.683 59.1777C236.233 59.1777 235.078 58.3301 235.078 56.8262C235.078 55.0762 236.637 54.7549 238.052 54.5771C239.412 54.4062 240.014 54.4473 240.014 53.8799V53.8389C240.014 52.8887 239.474 52.3418 238.414 52.3418C237.313 52.3418 236.719 52.9297 236.479 53.4629L235.297 53.0732C235.885 51.6855 237.197 51.2617 238.38 51.2617C239.405 51.2617 241.244 51.5762 241.244 53.9619V59H240.034V57.9609H239.952C239.692 58.501 238.975 59.1777 237.683 59.1777ZM237.895 58.0908C239.255 58.0908 240.014 57.1748 240.014 56.2383V55.1787C239.809 55.418 238.469 55.5547 237.997 55.6162C237.102 55.7324 236.315 56.0195 236.315 56.8877C236.315 57.6807 236.979 58.0908 237.895 58.0908ZM243.404 59V51.3574H244.594V52.5332H244.676C244.956 51.7607 245.749 51.248 246.658 51.248C246.836 51.248 247.137 51.2617 247.28 51.2686V52.5059C247.205 52.4922 246.87 52.4375 246.542 52.4375C245.441 52.4375 244.635 53.1826 244.635 54.2148V59H243.404ZM248.9 59V51.3574H250.131V59H248.9ZM249.522 50.1064C249.058 50.1064 248.668 49.7441 248.668 49.293C248.668 48.8418 249.058 48.4795 249.522 48.4795C249.994 48.4795 250.384 48.8418 250.384 49.293C250.384 49.7441 249.994 50.1064 249.522 50.1064ZM255.504 59.1641C253.289 59.1641 251.922 57.5918 251.922 55.2402C251.922 52.8955 253.275 51.2617 255.36 51.2617C256.98 51.2617 258.689 52.2598 258.689 55.083V55.5957H252.756V54.5566H258.026L257.452 54.9395C257.452 53.4355 256.741 52.3555 255.36 52.3555C253.979 52.3555 253.166 53.4971 253.166 54.7412V55.4316C253.166 57.1338 254.109 58.0703 255.511 58.0703C256.413 58.0703 257.09 57.6738 257.377 56.8945L258.566 57.2227C258.211 58.3779 257.069 59.1641 255.504 59.1641ZM263.051 59.1641C261.479 59.1641 260.385 58.4668 260.111 57.1475L261.28 56.8672C261.499 57.708 262.121 58.084 263.037 58.084C264.104 58.084 264.787 57.5576 264.787 56.9287C264.787 56.4023 264.418 56.0537 263.666 55.876L262.395 55.5752C261.007 55.2471 260.344 54.5635 260.344 53.4902C260.344 52.1777 261.547 51.2617 263.174 51.2617C264.746 51.2617 265.573 52.0273 265.922 53.1006L264.808 53.3877C264.596 52.8408 264.165 52.3076 263.181 52.3076C262.271 52.3076 261.588 52.7793 261.588 53.415C261.588 53.9824 261.978 54.2969 262.873 54.5088L264.028 54.7822C265.416 55.1104 266.065 55.8008 266.065 56.8467C266.065 58.1865 264.842 59.1641 263.051 59.1641ZM274.897 59.1641C272.819 59.1641 271.418 57.585 271.418 55.2266C271.418 52.834 272.819 51.2617 274.897 51.2617C276.982 51.2617 278.391 52.834 278.391 55.2266C278.391 57.585 276.982 59.1641 274.897 59.1641ZM274.897 58.0635C276.442 58.0635 277.146 56.7305 277.146 55.2266C277.146 53.709 276.442 52.3623 274.897 52.3623C273.373 52.3623 272.669 53.7021 272.669 55.2266C272.669 56.7305 273.373 58.0635 274.897 58.0635ZM283.736 51.3574V52.4102H279.238V51.3574H283.736ZM280.742 59V50.3389C280.742 49.0127 281.802 48.3359 282.916 48.3359C283.497 48.3359 283.88 48.459 284.064 48.541L283.723 49.5938C283.593 49.5527 283.401 49.4775 283.06 49.4775C282.301 49.4775 281.973 49.874 281.973 50.6123V59H280.742ZM20.1904 79.1641C18.1123 79.1641 16.7109 77.585 16.7109 75.2266C16.7109 72.834 18.1123 71.2617 20.1904 71.2617C21.667 71.2617 22.8701 72.041 23.2871 73.374L22.1045 73.709C21.8789 72.9229 21.1953 72.3623 20.1904 72.3623C18.666 72.3623 17.9619 73.7021 17.9619 75.2266C17.9619 76.7305 18.666 78.0635 20.1904 78.0635C21.2158 78.0635 21.9131 77.4824 22.1387 76.6553L23.3145 76.9902C22.9043 78.3506 21.6875 79.1641 20.1904 79.1641ZM28.1885 79.1641C26.1104 79.1641 24.709 77.585 24.709 75.2266C24.709 72.834 26.1104 71.2617 28.1885 71.2617C30.2734 71.2617 31.6816 72.834 31.6816 75.2266C31.6816 77.585 30.2734 79.1641 28.1885 79.1641ZM28.1885 78.0635C29.7334 78.0635 30.4375 76.7305 30.4375 75.2266C30.4375 73.709 29.7334 72.3623 28.1885 72.3623C26.6641 72.3623 25.96 73.7021 25.96 75.2266C25.96 76.7305 26.6641 78.0635 28.1885 78.0635ZM33.4727 79V71.3574H34.6689L34.6758 73.0664H34.5801C34.8877 71.8291 35.8242 71.2207 36.8154 71.2207C37.9229 71.2207 38.627 71.9727 38.832 73.0801H38.668C38.9414 71.9385 39.9531 71.2207 41.1699 71.2207C42.4961 71.2207 43.5762 72.0752 43.5762 73.8457V79H42.3389V73.8799C42.3389 72.7793 41.6211 72.3418 40.8008 72.3418C39.7686 72.3418 39.1396 73.0459 39.1396 74.0098V79H37.9092V73.7568C37.9092 72.9092 37.2734 72.3418 36.4121 72.3418C35.5166 72.3418 34.7031 72.9707 34.7031 74.1875V79H33.4727ZM45.7363 79V71.3574H46.9326L46.9395 73.0664H46.8438C47.1514 71.8291 48.0879 71.2207 49.0791 71.2207C50.1865 71.2207 50.8906 71.9727 51.0957 73.0801H50.9316C51.2051 71.9385 52.2168 71.2207 53.4336 71.2207C54.7598 71.2207 55.8398 72.0752 55.8398 73.8457V79H54.6025V73.8799C54.6025 72.7793 53.8848 72.3418 53.0645 72.3418C52.0322 72.3418 51.4033 73.0459 51.4033 74.0098V79H50.1729V73.7568C50.1729 72.9092 49.5371 72.3418 48.6758 72.3418C47.7803 72.3418 46.9668 72.9707 46.9668 74.1875V79H45.7363ZM61.2129 79.1641C58.998 79.1641 57.6309 77.5918 57.6309 75.2402C57.6309 72.8955 58.9844 71.2617 61.0693 71.2617C62.6895 71.2617 64.3984 72.2598 64.3984 75.083V75.5957H58.4648V74.5566H63.7354L63.1611 74.9395C63.1611 73.4355 62.4502 72.3555 61.0693 72.3555C59.6885 72.3555 58.875 73.4971 58.875 74.7412V75.4316C58.875 77.1338 59.8184 78.0703 61.2197 78.0703C62.1221 78.0703 62.7988 77.6738 63.0859 76.8945L64.2754 77.2227C63.9199 78.3779 62.7783 79.1641 61.2129 79.1641ZM67.3926 74.4199V79H66.1621V71.3574H67.3447L67.3516 73.21H67.1807C67.6455 71.8018 68.5342 71.2617 69.6895 71.2617C71.2344 71.2617 72.2803 72.2119 72.2803 74.1465V79H71.043V74.249C71.043 73.0732 70.3867 72.3691 69.3203 72.3691C68.2197 72.3691 67.3926 73.1143 67.3926 74.4199ZM77.4551 71.3574V72.4102H73.5039V71.3574H77.4551ZM74.6523 69.5391H75.8828V77.0176C75.8828 77.7012 76.1357 78.002 76.7852 78.002C76.9424 78.002 77.209 77.9609 77.4141 77.9199L77.667 78.959C77.4141 79.0479 77.0654 79.0957 76.751 79.0957C75.4316 79.0957 74.6523 78.3643 74.6523 77.1133V69.5391ZM81.4883 79.1641C79.916 79.1641 78.8223 78.4668 78.5488 77.1475L79.7178 76.8672C79.9365 77.708 80.5586 78.084 81.4746 78.084C82.541 78.084 83.2246 77.5576 83.2246 76.9287C83.2246 76.4023 82.8555 76.0537 82.1035 75.876L80.832 75.5752C79.4443 75.2471 78.7812 74.5635 78.7812 73.4902C78.7812 72.1777 79.9844 71.2617 81.6113 71.2617C83.1836 71.2617 84.0107 72.0273 84.3594 73.1006L83.2451 73.3877C83.0332 72.8408 82.6025 72.3076 81.6182 72.3076C80.709 72.3076 80.0254 72.7793 80.0254 73.415C80.0254 73.9824 80.415 74.2969 81.3105 74.5088L82.4658 74.7822C83.8535 75.1104 84.5029 75.8008 84.5029 76.8467C84.5029 78.1865 83.2793 79.1641 81.4883 79.1641ZM87.2168 79.0889C86.7109 79.0889 86.3008 78.6719 86.3008 78.166C86.3008 77.6602 86.7178 77.25 87.2168 77.25C87.7227 77.25 88.1396 77.6602 88.1396 78.166C88.1396 78.6787 87.7227 79.0889 87.2168 79.0889ZM94.4082 79V68.8145H100.615V69.9629H95.707V73.2852H100.28V74.4336H95.707V77.8516H100.677V79H94.4082ZM106.234 71.3574V72.4102H101.736V71.3574H106.234ZM103.24 79V70.3389C103.24 69.0127 104.3 68.3359 105.414 68.3359C105.995 68.3359 106.378 68.459 106.562 68.541L106.221 69.5938C106.091 69.5527 105.899 69.4775 105.558 69.4775C104.799 69.4775 104.471 69.874 104.471 70.6123V79H103.24ZM107.861 79V70.3389C107.861 69.0127 108.921 68.3359 110.035 68.3359C110.281 68.3359 110.5 68.3564 110.678 68.3906L110.493 69.5049C110.404 69.4844 110.302 69.4775 110.179 69.4775C109.42 69.4775 109.092 69.874 109.092 70.6123V79H107.861ZM106.371 72.4102V71.3574H112.428V72.4102H106.371ZM112.018 79V71.3574H113.248V79H112.018ZM112.64 70.1064C112.175 70.1064 111.785 69.7441 111.785 69.293C111.785 68.8418 112.175 68.4795 112.64 68.4795C113.111 68.4795 113.501 68.8418 113.501 69.293C113.501 69.7441 113.111 70.1064 112.64 70.1064ZM118.519 79.1641C116.44 79.1641 115.039 77.585 115.039 75.2266C115.039 72.834 116.44 71.2617 118.519 71.2617C119.995 71.2617 121.198 72.041 121.615 73.374L120.433 73.709C120.207 72.9229 119.523 72.3623 118.519 72.3623C116.994 72.3623 116.29 73.7021 116.29 75.2266C116.29 76.7305 116.994 78.0635 118.519 78.0635C119.544 78.0635 120.241 77.4824 120.467 76.6553L121.643 76.9902C121.232 78.3506 120.016 79.1641 118.519 79.1641ZM123.406 79V71.3574H124.637V79H123.406ZM124.028 70.1064C123.563 70.1064 123.174 69.7441 123.174 69.293C123.174 68.8418 123.563 68.4795 124.028 68.4795C124.5 68.4795 124.89 68.8418 124.89 69.293C124.89 69.7441 124.5 70.1064 124.028 70.1064ZM130.01 79.1641C127.795 79.1641 126.428 77.5918 126.428 75.2402C126.428 72.8955 127.781 71.2617 129.866 71.2617C131.486 71.2617 133.195 72.2598 133.195 75.083V75.5957H127.262V74.5566H132.532L131.958 74.9395C131.958 73.4355 131.247 72.3555 129.866 72.3555C128.485 72.3555 127.672 73.4971 127.672 74.7412V75.4316C127.672 77.1338 128.615 78.0703 130.017 78.0703C130.919 78.0703 131.596 77.6738 131.883 76.8945L133.072 77.2227C132.717 78.3779 131.575 79.1641 130.01 79.1641ZM136.189 74.4199V79H134.959V71.3574H136.142L136.148 73.21H135.978C136.442 71.8018 137.331 71.2617 138.486 71.2617C140.031 71.2617 141.077 72.2119 141.077 74.1465V79H139.84V74.249C139.84 73.0732 139.184 72.3691 138.117 72.3691C137.017 72.3691 136.189 73.1143 136.189 74.4199ZM146.252 71.3574V72.4102H142.301V71.3574H146.252ZM143.449 69.5391H144.68V77.0176C144.68 77.7012 144.933 78.002 145.582 78.002C145.739 78.002 146.006 77.9609 146.211 77.9199L146.464 78.959C146.211 79.0479 145.862 79.0957 145.548 79.0957C144.229 79.0957 143.449 78.3643 143.449 77.1133V69.5391ZM149.54 79.0547C148.392 79.0547 147.824 78.4121 147.824 77.3047V68.8145H149.055V76.9971C149.055 77.7012 149.178 77.9541 149.69 77.9541C149.957 77.9541 150.066 77.9336 150.183 77.8994L150.429 78.9385C150.21 79 149.868 79.0547 149.54 79.0547ZM151.283 81.7686L151.598 80.7021L151.728 80.7363C152.479 80.9346 153.02 80.7705 153.396 79.6768L153.614 79.041L150.695 71.3574H152.042L153.669 75.8896C154.011 76.8398 154.216 77.7764 154.482 78.6514H154.031C154.291 77.7764 154.503 76.833 154.845 75.8896L156.485 71.3574H157.825L154.469 80.1416C154.004 81.3584 153.266 81.9121 152.186 81.9121C151.748 81.9121 151.413 81.8301 151.283 81.7686ZM163.219 79V71.3574H164.408V72.5332H164.49C164.771 71.7607 165.563 71.248 166.473 71.248C166.65 71.248 166.951 71.2617 167.095 71.2686V72.5059C167.02 72.4922 166.685 72.4375 166.356 72.4375C165.256 72.4375 164.449 73.1826 164.449 74.2148V79H163.219ZM171.477 79.1641C169.262 79.1641 167.895 77.5918 167.895 75.2402C167.895 72.8955 169.248 71.2617 171.333 71.2617C172.953 71.2617 174.662 72.2598 174.662 75.083V75.5957H168.729V74.5566H173.999L173.425 74.9395C173.425 73.4355 172.714 72.3555 171.333 72.3555C169.952 72.3555 169.139 73.4971 169.139 74.7412V75.4316C169.139 77.1338 170.082 78.0703 171.483 78.0703C172.386 78.0703 173.062 77.6738 173.35 76.8945L174.539 77.2227C174.184 78.3779 173.042 79.1641 171.477 79.1641ZM178.36 79L175.441 71.3574H176.788L178.415 75.8896C178.757 76.833 178.969 77.7764 179.235 78.6514H178.784C179.051 77.7764 179.256 76.833 179.598 75.8896L181.225 71.3574H182.571L179.652 79H178.36ZM184.027 79V71.3574H185.258V79H184.027ZM184.649 70.1064C184.185 70.1064 183.795 69.7441 183.795 69.293C183.795 68.8418 184.185 68.4795 184.649 68.4795C185.121 68.4795 185.511 68.8418 185.511 69.293C185.511 69.7441 185.121 70.1064 184.649 70.1064ZM190.631 79.1641C188.416 79.1641 187.049 77.5918 187.049 75.2402C187.049 72.8955 188.402 71.2617 190.487 71.2617C192.107 71.2617 193.816 72.2598 193.816 75.083V75.5957H187.883V74.5566H193.153L192.579 74.9395C192.579 73.4355 191.868 72.3555 190.487 72.3555C189.106 72.3555 188.293 73.4971 188.293 74.7412V75.4316C188.293 77.1338 189.236 78.0703 190.638 78.0703C191.54 78.0703 192.217 77.6738 192.504 76.8945L193.693 77.2227C193.338 78.3779 192.196 79.1641 190.631 79.1641ZM197.036 79L194.719 71.3574H196.024L196.954 74.6934C197.207 75.6025 197.508 76.7441 197.795 78.2002H197.583C197.856 76.8057 198.144 75.6641 198.41 74.6934L199.326 71.3574H200.639L201.541 74.6934C201.794 75.6299 202.081 76.7715 202.354 78.2002H202.136C202.423 76.7852 202.717 75.6504 202.983 74.6934L203.913 71.3574H205.219L202.901 79H201.678L200.687 75.541C200.386 74.4951 200.112 73.3672 199.832 72.1777H200.105C199.832 73.3535 199.545 74.5156 199.251 75.541L198.26 79H197.036ZM213.723 71.3574V72.4102H209.771V71.3574H213.723ZM210.92 69.5391H212.15V77.0176C212.15 77.7012 212.403 78.002 213.053 78.002C213.21 78.002 213.477 77.9609 213.682 77.9199L213.935 78.959C213.682 79.0479 213.333 79.0957 213.019 79.0957C211.699 79.0957 210.92 78.3643 210.92 77.1133V69.5391ZM216.525 74.4199V79H215.295V68.8145H216.525V73.21H216.313C216.778 71.8018 217.667 71.2617 218.822 71.2617C220.367 71.2617 221.413 72.2119 221.413 74.1465V79H220.176V74.249C220.176 73.0732 219.52 72.3691 218.453 72.3691C217.353 72.3691 216.525 73.1143 216.525 74.4199ZM226.793 79.1641C224.578 79.1641 223.211 77.5918 223.211 75.2402C223.211 72.8955 224.564 71.2617 226.649 71.2617C228.27 71.2617 229.979 72.2598 229.979 75.083V75.5957H224.045V74.5566H229.315L228.741 74.9395C228.741 73.4355 228.03 72.3555 226.649 72.3555C225.269 72.3555 224.455 73.4971 224.455 74.7412V75.4316C224.455 77.1338 225.398 78.0703 226.8 78.0703C227.702 78.0703 228.379 77.6738 228.666 76.8945L229.855 77.2227C229.5 78.3779 228.358 79.1641 226.793 79.1641ZM235.68 79V71.3574H236.876L236.883 73.0664H236.787C237.095 71.8291 238.031 71.2207 239.022 71.2207C240.13 71.2207 240.834 71.9727 241.039 73.0801H240.875C241.148 71.9385 242.16 71.2207 243.377 71.2207C244.703 71.2207 245.783 72.0752 245.783 73.8457V79H244.546V73.8799C244.546 72.7793 243.828 72.3418 243.008 72.3418C241.976 72.3418 241.347 73.0459 241.347 74.0098V79H240.116V73.7568C240.116 72.9092 239.48 72.3418 238.619 72.3418C237.724 72.3418 236.91 72.9707 236.91 74.1875V79H235.68ZM250.083 79.1777C248.634 79.1777 247.479 78.3301 247.479 76.8262C247.479 75.0762 249.037 74.7549 250.452 74.5771C251.812 74.4062 252.414 74.4473 252.414 73.8799V73.8389C252.414 72.8887 251.874 72.3418 250.814 72.3418C249.714 72.3418 249.119 72.9297 248.88 73.4629L247.697 73.0732C248.285 71.6855 249.598 71.2617 250.78 71.2617C251.806 71.2617 253.645 71.5762 253.645 73.9619V79H252.435V77.9609H252.353C252.093 78.501 251.375 79.1777 250.083 79.1777ZM250.295 78.0908C251.655 78.0908 252.414 77.1748 252.414 76.2383V75.1787C252.209 75.418 250.869 75.5547 250.397 75.6162C249.502 75.7324 248.716 76.0195 248.716 76.8877C248.716 77.6807 249.379 78.0908 250.295 78.0908ZM255.805 79V71.3574H257.035V79H255.805ZM256.427 70.1064C255.962 70.1064 255.572 69.7441 255.572 69.293C255.572 68.8418 255.962 68.4795 256.427 68.4795C256.898 68.4795 257.288 68.8418 257.288 69.293C257.288 69.7441 256.898 70.1064 256.427 70.1064ZM260.426 74.4199V79H259.195V71.3574H260.378L260.385 73.21H260.214C260.679 71.8018 261.567 71.2617 262.723 71.2617C264.268 71.2617 265.313 72.2119 265.313 74.1465V79H264.076V74.249C264.076 73.0732 263.42 72.3691 262.354 72.3691C261.253 72.3691 260.426 73.1143 260.426 74.4199ZM271.418 81.8574V71.3574H272.607V72.5811H272.744C272.997 72.1777 273.469 71.2617 274.959 71.2617C276.866 71.2617 278.199 72.7793 278.199 75.1992C278.199 77.6328 276.873 79.1641 274.966 79.1641C273.51 79.1641 272.997 78.2412 272.744 77.8174H272.648V81.8574H271.418ZM274.781 78.0635C276.21 78.0635 276.948 76.792 276.948 75.1855C276.948 73.5996 276.23 72.3623 274.781 72.3623C273.373 72.3623 272.635 73.4971 272.635 75.1855C272.635 76.8877 273.394 78.0635 274.781 78.0635ZM283.101 79.1641C281.022 79.1641 279.621 77.585 279.621 75.2266C279.621 72.834 281.022 71.2617 283.101 71.2617C285.186 71.2617 286.594 72.834 286.594 75.2266C286.594 77.585 285.186 79.1641 283.101 79.1641ZM283.101 78.0635C284.646 78.0635 285.35 76.7305 285.35 75.2266C285.35 73.709 284.646 72.3623 283.101 72.3623C281.576 72.3623 280.872 73.7021 280.872 75.2266C280.872 76.7305 281.576 78.0635 283.101 78.0635ZM288.385 79V71.3574H289.615V79H288.385ZM289.007 70.1064C288.542 70.1064 288.152 69.7441 288.152 69.293C288.152 68.8418 288.542 68.4795 289.007 68.4795C289.479 68.4795 289.868 68.8418 289.868 69.293C289.868 69.7441 289.479 70.1064 289.007 70.1064ZM293.006 74.4199V79H291.775V71.3574H292.958L292.965 73.21H292.794C293.259 71.8018 294.147 71.2617 295.303 71.2617C296.848 71.2617 297.894 72.2119 297.894 74.1465V79H296.656V74.249C296.656 73.0732 296 72.3691 294.934 72.3691C293.833 72.3691 293.006 73.1143 293.006 74.4199ZM303.068 71.3574V72.4102H299.117V71.3574H303.068ZM300.266 69.5391H301.496V77.0176C301.496 77.7012 301.749 78.002 302.398 78.002C302.556 78.002 302.822 77.9609 303.027 77.9199L303.28 78.959C303.027 79.0479 302.679 79.0957 302.364 79.0957C301.045 79.0957 300.266 78.3643 300.266 77.1133V69.5391ZM307.102 79.1641C305.529 79.1641 304.436 78.4668 304.162 77.1475L305.331 76.8672C305.55 77.708 306.172 78.084 307.088 78.084C308.154 78.084 308.838 77.5576 308.838 76.9287C308.838 76.4023 308.469 76.0537 307.717 75.876L306.445 75.5752C305.058 75.2471 304.395 74.5635 304.395 73.4902C304.395 72.1777 305.598 71.2617 307.225 71.2617C308.797 71.2617 309.624 72.0273 309.973 73.1006L308.858 73.3877C308.646 72.8408 308.216 72.3076 307.231 72.3076C306.322 72.3076 305.639 72.7793 305.639 73.415C305.639 73.9824 306.028 74.2969 306.924 74.5088L308.079 74.7822C309.467 75.1104 310.116 75.8008 310.116 76.8467C310.116 78.1865 308.893 79.1641 307.102 79.1641ZM318.948 79.1641C316.87 79.1641 315.469 77.585 315.469 75.2266C315.469 72.834 316.87 71.2617 318.948 71.2617C321.033 71.2617 322.441 72.834 322.441 75.2266C322.441 77.585 321.033 79.1641 318.948 79.1641ZM318.948 78.0635C320.493 78.0635 321.197 76.7305 321.197 75.2266C321.197 73.709 320.493 72.3623 318.948 72.3623C317.424 72.3623 316.72 73.7021 316.72 75.2266C316.72 76.7305 317.424 78.0635 318.948 78.0635ZM327.787 71.3574V72.4102H323.289V71.3574H327.787ZM324.793 79V70.3389C324.793 69.0127 325.853 68.3359 326.967 68.3359C327.548 68.3359 327.931 68.459 328.115 68.541L327.773 69.5938C327.644 69.5527 327.452 69.4775 327.11 69.4775C326.352 69.4775 326.023 69.874 326.023 70.6123V79H324.793ZM18.7959 99.0547C17.6475 99.0547 17.0801 98.4121 17.0801 97.3047V88.8145H18.3105V96.9971C18.3105 97.7012 18.4336 97.9541 18.9463 97.9541C19.2129 97.9541 19.3223 97.9336 19.4385 97.8994L19.6846 98.9385C19.4658 99 19.124 99.0547 18.7959 99.0547ZM23.9434 99.1641C21.7285 99.1641 20.3613 97.5918 20.3613 95.2402C20.3613 92.8955 21.7148 91.2617 23.7998 91.2617C25.4199 91.2617 27.1289 92.2598 27.1289 95.083V95.5957H21.1953V94.5566H26.4658L25.8916 94.9395C25.8916 93.4355 25.1807 92.3555 23.7998 92.3555C22.4189 92.3555 21.6055 93.4971 21.6055 94.7412V95.4316C21.6055 97.1338 22.5488 98.0703 23.9502 98.0703C24.8525 98.0703 25.5293 97.6738 25.8164 96.8945L27.0059 97.2227C26.6504 98.3779 25.5088 99.1641 23.9434 99.1641ZM30.123 94.4199V99H28.8926V91.3574H30.0752L30.082 93.21H29.9111C30.376 91.8018 31.2646 91.2617 32.4199 91.2617C33.9648 91.2617 35.0107 92.2119 35.0107 94.1465V99H33.7734V94.249C33.7734 93.0732 33.1172 92.3691 32.0508 92.3691C30.9502 92.3691 30.123 93.1143 30.123 94.4199ZM40.2744 102.021C38.5791 102.021 37.6016 101.304 37.1299 100.463L38.1279 99.8203C38.4492 100.265 38.9277 100.948 40.2744 100.948C41.4912 100.948 42.373 100.388 42.373 99.1299V97.5986H42.2568C41.9971 98.0361 41.5117 98.877 40.0352 98.877C38.2031 98.877 36.8086 97.5439 36.8086 95.1445C36.8086 92.7793 38.1553 91.2617 40.0625 91.2617C41.5391 91.2617 42.0312 92.1709 42.291 92.5811H42.4072V91.3574H43.6035V99.1982C43.6035 101.174 42.1338 102.021 40.2744 102.021ZM40.2402 97.7832C41.6279 97.7832 42.3867 96.7852 42.3867 95.1172C42.3867 93.4971 41.6484 92.3623 40.2402 92.3623C38.7842 92.3623 38.0596 93.5928 38.0596 95.1172C38.0596 96.6895 38.8047 97.7832 40.2402 97.7832ZM48.7715 91.3574V92.4102H44.8203V91.3574H48.7715ZM45.9688 89.5391H47.1992V97.0176C47.1992 97.7012 47.4521 98.002 48.1016 98.002C48.2588 98.002 48.5254 97.9609 48.7305 97.9199L48.9834 98.959C48.7305 99.0479 48.3818 99.0957 48.0674 99.0957C46.748 99.0957 45.9688 98.3643 45.9688 97.1133V89.5391ZM51.5742 94.4199V99H50.3438V88.8145H51.5742V93.21H51.3623C51.8271 91.8018 52.7158 91.2617 53.8711 91.2617C55.416 91.2617 56.4619 92.2119 56.4619 94.1465V99H55.2246V94.249C55.2246 93.0732 54.5684 92.3691 53.502 92.3691C52.4014 92.3691 51.5742 93.1143 51.5742 94.4199ZM58.3008 101.769L58.6152 100.702L58.7451 100.736C59.4971 100.935 60.0371 100.771 60.4131 99.6768L60.6318 99.041L57.7129 91.3574H59.0596L60.6865 95.8896C61.0283 96.8398 61.2334 97.7764 61.5 98.6514H61.0488C61.3086 97.7764 61.5205 96.833 61.8623 95.8896L63.5029 91.3574H64.8428L61.4863 100.142C61.0215 101.358 60.2832 101.912 59.2031 101.912C58.7656 101.912 58.4307 101.83 58.3008 101.769ZM73.1006 99.1641C71.1934 99.1641 69.8672 97.6328 69.8672 95.1992C69.8672 92.7793 71.2002 91.2617 73.1074 91.2617C74.5977 91.2617 75.0693 92.1777 75.3223 92.5811H75.418V88.8145H76.6484V99H75.459V97.8174H75.3223C75.0693 98.2412 74.5566 99.1641 73.1006 99.1641ZM73.2852 98.0635C74.6729 98.0635 75.4316 96.8877 75.4316 95.1855C75.4316 93.4971 74.6934 92.3623 73.2852 92.3623C71.8359 92.3623 71.1182 93.5996 71.1182 95.1855C71.1182 96.792 71.8564 98.0635 73.2852 98.0635ZM78.8086 99V91.3574H80.0391V99H78.8086ZM79.4307 90.1064C78.9658 90.1064 78.5762 89.7441 78.5762 89.293C78.5762 88.8418 78.9658 88.4795 79.4307 88.4795C79.9023 88.4795 80.292 88.8418 80.292 89.293C80.292 89.7441 79.9023 90.1064 79.4307 90.1064ZM84.7969 99.1641C83.2246 99.1641 82.1309 98.4668 81.8574 97.1475L83.0264 96.8672C83.2451 97.708 83.8672 98.084 84.7832 98.084C85.8496 98.084 86.5332 97.5576 86.5332 96.9287C86.5332 96.4023 86.1641 96.0537 85.4121 95.876L84.1406 95.5752C82.7529 95.2471 82.0898 94.5635 82.0898 93.4902C82.0898 92.1777 83.293 91.2617 84.9199 91.2617C86.4922 91.2617 87.3193 92.0273 87.668 93.1006L86.5537 93.3877C86.3418 92.8408 85.9111 92.3076 84.9268 92.3076C84.0176 92.3076 83.334 92.7793 83.334 93.415C83.334 93.9824 83.7236 94.2969 84.6191 94.5088L85.7744 94.7822C87.1621 95.1104 87.8115 95.8008 87.8115 96.8467C87.8115 98.1865 86.5879 99.1641 84.7969 99.1641ZM92.7061 99.1641C90.6279 99.1641 89.2266 97.585 89.2266 95.2266C89.2266 92.834 90.6279 91.2617 92.7061 91.2617C94.1826 91.2617 95.3857 92.041 95.8027 93.374L94.6201 93.709C94.3945 92.9229 93.7109 92.3623 92.7061 92.3623C91.1816 92.3623 90.4775 93.7021 90.4775 95.2266C90.4775 96.7305 91.1816 98.0635 92.7061 98.0635C93.7314 98.0635 94.4287 97.4824 94.6543 96.6553L95.8301 96.9902C95.4199 98.3506 94.2031 99.1641 92.7061 99.1641ZM100.185 99.0957C98.6396 99.0957 97.5938 98.1455 97.5938 96.2109V91.3574H98.8242V96.1084C98.8242 97.2842 99.4873 97.9883 100.554 97.9883C101.647 97.9883 102.475 97.2432 102.475 95.9375V91.3574H103.712V99H102.522V97.1475H102.687C102.215 98.583 101.306 99.0957 100.185 99.0957ZM108.477 99.1641C106.904 99.1641 105.811 98.4668 105.537 97.1475L106.706 96.8672C106.925 97.708 107.547 98.084 108.463 98.084C109.529 98.084 110.213 97.5576 110.213 96.9287C110.213 96.4023 109.844 96.0537 109.092 95.876L107.82 95.5752C106.433 95.2471 105.77 94.5635 105.77 93.4902C105.77 92.1777 106.973 91.2617 108.6 91.2617C110.172 91.2617 110.999 92.0273 111.348 93.1006L110.233 93.3877C110.021 92.8408 109.591 92.3076 108.606 92.3076C107.697 92.3076 107.014 92.7793 107.014 93.415C107.014 93.9824 107.403 94.2969 108.299 94.5088L109.454 94.7822C110.842 95.1104 111.491 95.8008 111.491 96.8467C111.491 98.1865 110.268 99.1641 108.477 99.1641ZM115.873 99.1641C114.301 99.1641 113.207 98.4668 112.934 97.1475L114.103 96.8672C114.321 97.708 114.943 98.084 115.859 98.084C116.926 98.084 117.609 97.5576 117.609 96.9287C117.609 96.4023 117.24 96.0537 116.488 95.876L115.217 95.5752C113.829 95.2471 113.166 94.5635 113.166 93.4902C113.166 92.1777 114.369 91.2617 115.996 91.2617C117.568 91.2617 118.396 92.0273 118.744 93.1006L117.63 93.3877C117.418 92.8408 116.987 92.3076 116.003 92.3076C115.094 92.3076 114.41 92.7793 114.41 93.415C114.41 93.9824 114.8 94.2969 115.695 94.5088L116.851 94.7822C118.238 95.1104 118.888 95.8008 118.888 96.8467C118.888 98.1865 117.664 99.1641 115.873 99.1641ZM120.672 99V91.3574H121.902V99H120.672ZM121.294 90.1064C120.829 90.1064 120.439 89.7441 120.439 89.293C120.439 88.8418 120.829 88.4795 121.294 88.4795C121.766 88.4795 122.155 88.8418 122.155 89.293C122.155 89.7441 121.766 90.1064 121.294 90.1064ZM127.173 99.1641C125.095 99.1641 123.693 97.585 123.693 95.2266C123.693 92.834 125.095 91.2617 127.173 91.2617C129.258 91.2617 130.666 92.834 130.666 95.2266C130.666 97.585 129.258 99.1641 127.173 99.1641ZM127.173 98.0635C128.718 98.0635 129.422 96.7305 129.422 95.2266C129.422 93.709 128.718 92.3623 127.173 92.3623C125.648 92.3623 124.944 93.7021 124.944 95.2266C124.944 96.7305 125.648 98.0635 127.173 98.0635ZM133.688 94.4199V99H132.457V91.3574H133.64L133.646 93.21H133.476C133.94 91.8018 134.829 91.2617 135.984 91.2617C137.529 91.2617 138.575 92.2119 138.575 94.1465V99H137.338V94.249C137.338 93.0732 136.682 92.3691 135.615 92.3691C134.515 92.3691 133.688 93.1143 133.688 94.4199ZM143.34 99.1641C141.768 99.1641 140.674 98.4668 140.4 97.1475L141.569 96.8672C141.788 97.708 142.41 98.084 143.326 98.084C144.393 98.084 145.076 97.5576 145.076 96.9287C145.076 96.4023 144.707 96.0537 143.955 95.876L142.684 95.5752C141.296 95.2471 140.633 94.5635 140.633 93.4902C140.633 92.1777 141.836 91.2617 143.463 91.2617C145.035 91.2617 145.862 92.0273 146.211 93.1006L145.097 93.3877C144.885 92.8408 144.454 92.3076 143.47 92.3076C142.561 92.3076 141.877 92.7793 141.877 93.415C141.877 93.9824 142.267 94.2969 143.162 94.5088L144.317 94.7822C145.705 95.1104 146.354 95.8008 146.354 96.8467C146.354 98.1865 145.131 99.1641 143.34 99.1641ZM149.068 99.0889C148.562 99.0889 148.152 98.6719 148.152 98.166C148.152 97.6602 148.569 97.25 149.068 97.25C149.574 97.25 149.991 97.6602 149.991 98.166C149.991 98.6787 149.574 99.0889 149.068 99.0889Z" fill="#28272D"/>
<rect x="16.5" y="112.5" width="191" height="31" rx="3.5" fill="white"/>
<rect x="16.5" y="112.5" width="191" height="31" rx="3.5" stroke="#BFBFC3"/>
<g clip-path="url(#clip0_37333_96)">
<g clip-path="url(#clip1_37333_96)">
<path fill-rule="evenodd" clip-rule="evenodd" d="M30.75 120.75C30.75 120.336 30.4142 120 30 120C29.5858 120 29.25 120.336 29.25 120.75V121.25H28.75C28.3358 121.25 28 121.586 28 122C28 122.414 28.3358 122.75 28.75 122.75H29.25V123.25C29.25 123.664 29.5858 124 30 124C30.4142 124 30.75 123.664 30.75 123.25V122.75H31.25C31.6642 122.75 32 122.414 32 122C32 121.586 31.6642 121.25 31.25 121.25H30.75V120.75ZM42.3949 126.868L42.3949 126.868L42.3807 126.83L41.831 125.39L41.6589 125.919L41.3219 126.955H40.2324H35.768H34.6785L34.3415 125.919L34.1697 125.391L33.6187 126.836L33.6148 126.846L33.6107 126.856L33.5986 126.886C33.482 127.198 33.4684 127.54 33.56 127.86C33.6522 128.183 33.846 128.465 34.1108 128.666L34.1121 128.667L34.1149 128.67L34.1255 128.678L34.1359 128.686L34.1392 128.688L36.613 130.55L36.6177 130.554L36.6177 130.554L37.8503 131.489L37.8508 131.489L37.9975 131.601L38.1442 131.489L38.1447 131.489L39.3773 130.554L39.3828 130.55L39.3828 130.55L41.8739 128.677L41.8788 128.673L41.8877 128.667C42.1532 128.466 42.3474 128.182 42.4399 127.859C42.5324 127.536 42.5178 127.191 42.3983 126.877L42.3949 126.868ZM42.7863 129.868L40.2841 131.749L39.0514 132.684L38.3026 133.253C38.2147 133.319 38.1076 133.355 37.9975 133.355C37.8874 133.355 37.7803 133.319 37.6924 133.253L36.9436 132.684L35.711 131.749L33.2264 129.879L33.2125 129.868L33.2064 129.863C32.6813 129.465 32.2992 128.907 32.1177 128.272C31.9363 127.637 31.9652 126.961 32.2002 126.344L32.2172 126.301L33.4309 123.12L33.4986 122.942L33.5422 122.828L33.7149 122.375L33.7322 122.33L33.8497 122.022C33.8827 121.938 33.9415 121.867 34.0176 121.818C34.0744 121.782 34.1389 121.76 34.2059 121.753C34.2729 121.746 34.3405 121.755 34.4035 121.779C34.4664 121.803 34.5229 121.841 34.5684 121.891C34.6139 121.941 34.6471 122.001 34.6655 122.066L34.7647 122.371L34.7688 122.384L34.9622 122.978L35.0212 123.159L35.768 125.455H40.2324L40.9793 123.159L41.0382 122.978L41.2316 122.384L41.2356 122.371L41.3349 122.066C41.3531 122.001 41.3863 121.941 41.4318 121.891C41.4773 121.841 41.5338 121.802 41.5968 121.778C41.6597 121.754 41.7275 121.745 41.7945 121.752C41.8615 121.759 41.926 121.782 41.9828 121.818C42.0589 121.867 42.1177 121.938 42.1507 122.022L42.2673 122.327L42.2856 122.375L42.4571 122.824L42.5018 122.942L42.5696 123.119L43.784 126.3L43.8002 126.344C44.0349 126.96 44.0637 127.637 43.882 128.272C43.7004 128.907 43.3183 129.465 42.7932 129.862L42.7863 129.868ZM31.5 131C31.9142 131 32.25 131.336 32.25 131.75V132.75H33.25C33.6642 132.75 34 133.086 34 133.5C34 133.914 33.6642 134.25 33.25 134.25H32.25V135.25C32.25 135.664 31.9142 136 31.5 136C31.0858 136 30.75 135.664 30.75 135.25V134.25H29.75C29.3358 134.25 29 133.914 29 133.5C29 133.086 29.3358 132.75 29.75 132.75H30.75L30.75 131.75C30.75 131.336 31.0858 131 31.5 131Z" fill="#737278"/>
</g>
</g>
<path d="M52.4912 133.178C50.2832 133.178 48.9092 132.043 48.793 130.334H50.126C50.2285 131.489 51.2949 132.016 52.4912 132.016C53.8721 132.016 54.9248 131.291 54.9248 130.204C54.9248 129.22 53.9951 128.857 52.9082 128.55L51.6777 128.201C50.0371 127.736 49.0801 126.896 49.0801 125.542C49.0801 123.819 50.6113 122.678 52.5801 122.678C54.5898 122.678 55.9912 123.847 56.0527 125.385H54.7812C54.665 124.394 53.749 123.826 52.5391 123.826C51.2197 123.826 50.3447 124.523 50.3447 125.48C50.3447 126.547 51.541 126.923 52.2861 127.128L53.3047 127.408C54.3984 127.709 56.1895 128.324 56.1895 130.225C56.1895 131.893 54.8428 133.178 52.4912 133.178ZM60.6533 133.096C59.1084 133.096 58.0625 132.146 58.0625 130.211V125.357H59.293V130.108C59.293 131.284 59.9561 131.988 61.0225 131.988C62.1162 131.988 62.9434 131.243 62.9434 129.938V125.357H64.1807V133H62.9912V131.147H63.1553C62.6836 132.583 61.7744 133.096 60.6533 133.096ZM66.3477 133V125.357H67.5439L67.5508 127.066H67.4551C67.7627 125.829 68.6992 125.221 69.6904 125.221C70.7979 125.221 71.502 125.973 71.707 127.08H71.543C71.8164 125.938 72.8281 125.221 74.0449 125.221C75.3711 125.221 76.4512 126.075 76.4512 127.846V133H75.2139V127.88C75.2139 126.779 74.4961 126.342 73.6758 126.342C72.6436 126.342 72.0146 127.046 72.0146 128.01V133H70.7842V127.757C70.7842 126.909 70.1484 126.342 69.2871 126.342C68.3916 126.342 67.5781 126.971 67.5781 128.188V133H66.3477ZM78.6113 133V125.357H79.8076L79.8145 127.066H79.7188C80.0264 125.829 80.9629 125.221 81.9541 125.221C83.0615 125.221 83.7656 125.973 83.9707 127.08H83.8066C84.0801 125.938 85.0918 125.221 86.3086 125.221C87.6348 125.221 88.7148 126.075 88.7148 127.846V133H87.4775V127.88C87.4775 126.779 86.7598 126.342 85.9395 126.342C84.9072 126.342 84.2783 127.046 84.2783 128.01V133H83.0479V127.757C83.0479 126.909 82.4121 126.342 81.5508 126.342C80.6553 126.342 79.8418 126.971 79.8418 128.188V133H78.6113ZM93.0146 133.178C91.5654 133.178 90.4102 132.33 90.4102 130.826C90.4102 129.076 91.9688 128.755 93.3838 128.577C94.7441 128.406 95.3457 128.447 95.3457 127.88V127.839C95.3457 126.889 94.8057 126.342 93.7461 126.342C92.6455 126.342 92.0508 126.93 91.8115 127.463L90.6289 127.073C91.2168 125.686 92.5293 125.262 93.7119 125.262C94.7373 125.262 96.5762 125.576 96.5762 127.962V133H95.3662V131.961H95.2842C95.0244 132.501 94.3066 133.178 93.0146 133.178ZM93.2266 132.091C94.5869 132.091 95.3457 131.175 95.3457 130.238V129.179C95.1406 129.418 93.8008 129.555 93.3291 129.616C92.4336 129.732 91.6475 130.02 91.6475 130.888C91.6475 131.681 92.3105 132.091 93.2266 132.091ZM98.7363 133V125.357H99.9258V126.533H100.008C100.288 125.761 101.081 125.248 101.99 125.248C102.168 125.248 102.469 125.262 102.612 125.269V126.506C102.537 126.492 102.202 126.438 101.874 126.438C100.773 126.438 99.9668 127.183 99.9668 128.215V133H98.7363ZM104.232 133V125.357H105.463V133H104.232ZM104.854 124.106C104.39 124.106 104 123.744 104 123.293C104 122.842 104.39 122.479 104.854 122.479C105.326 122.479 105.716 122.842 105.716 123.293C105.716 123.744 105.326 124.106 104.854 124.106ZM107.404 133V132.084L111.69 126.574V126.499H107.541V125.357H113.276V126.335L109.113 131.783V131.858H113.413V133H107.404ZM118.369 133.164C116.154 133.164 114.787 131.592 114.787 129.24C114.787 126.896 116.141 125.262 118.226 125.262C119.846 125.262 121.555 126.26 121.555 129.083V129.596H115.621V128.557H120.892L120.317 128.939C120.317 127.436 119.606 126.355 118.226 126.355C116.845 126.355 116.031 127.497 116.031 128.741V129.432C116.031 131.134 116.975 132.07 118.376 132.07C119.278 132.07 119.955 131.674 120.242 130.895L121.432 131.223C121.076 132.378 119.935 133.164 118.369 133.164ZM130.366 133.164C128.288 133.164 126.887 131.585 126.887 129.227C126.887 126.834 128.288 125.262 130.366 125.262C131.843 125.262 133.046 126.041 133.463 127.374L132.28 127.709C132.055 126.923 131.371 126.362 130.366 126.362C128.842 126.362 128.138 127.702 128.138 129.227C128.138 130.73 128.842 132.063 130.366 132.063C131.392 132.063 132.089 131.482 132.314 130.655L133.49 130.99C133.08 132.351 131.863 133.164 130.366 133.164ZM138.364 133.164C136.286 133.164 134.885 131.585 134.885 129.227C134.885 126.834 136.286 125.262 138.364 125.262C140.449 125.262 141.857 126.834 141.857 129.227C141.857 131.585 140.449 133.164 138.364 133.164ZM138.364 132.063C139.909 132.063 140.613 130.73 140.613 129.227C140.613 127.709 139.909 126.362 138.364 126.362C136.84 126.362 136.136 127.702 136.136 129.227C136.136 130.73 136.84 132.063 138.364 132.063ZM143.648 133V125.357H144.845L144.852 127.066H144.756C145.063 125.829 146 125.221 146.991 125.221C148.099 125.221 148.803 125.973 149.008 127.08H148.844C149.117 125.938 150.129 125.221 151.346 125.221C152.672 125.221 153.752 126.075 153.752 127.846V133H152.515V127.88C152.515 126.779 151.797 126.342 150.977 126.342C149.944 126.342 149.315 127.046 149.315 128.01V133H148.085V127.757C148.085 126.909 147.449 126.342 146.588 126.342C145.692 126.342 144.879 126.971 144.879 128.188V133H143.648ZM155.912 133V125.357H157.108L157.115 127.066H157.02C157.327 125.829 158.264 125.221 159.255 125.221C160.362 125.221 161.066 125.973 161.271 127.08H161.107C161.381 125.938 162.393 125.221 163.609 125.221C164.936 125.221 166.016 126.075 166.016 127.846V133H164.778V127.88C164.778 126.779 164.061 126.342 163.24 126.342C162.208 126.342 161.579 127.046 161.579 128.01V133H160.349V127.757C160.349 126.909 159.713 126.342 158.852 126.342C157.956 126.342 157.143 126.971 157.143 128.188V133H155.912ZM171.389 133.164C169.174 133.164 167.807 131.592 167.807 129.24C167.807 126.896 169.16 125.262 171.245 125.262C172.865 125.262 174.574 126.26 174.574 129.083V129.596H168.641V128.557H173.911L173.337 128.939C173.337 127.436 172.626 126.355 171.245 126.355C169.864 126.355 169.051 127.497 169.051 128.741V129.432C169.051 131.134 169.994 132.07 171.396 132.07C172.298 132.07 172.975 131.674 173.262 130.895L174.451 131.223C174.096 132.378 172.954 133.164 171.389 133.164ZM177.568 128.42V133H176.338V125.357H177.521L177.527 127.21H177.356C177.821 125.802 178.71 125.262 179.865 125.262C181.41 125.262 182.456 126.212 182.456 128.146V133H181.219V128.249C181.219 127.073 180.562 126.369 179.496 126.369C178.396 126.369 177.568 127.114 177.568 128.42ZM187.631 125.357V126.41H183.68V125.357H187.631ZM184.828 123.539H186.059V131.018C186.059 131.701 186.312 132.002 186.961 132.002C187.118 132.002 187.385 131.961 187.59 131.92L187.843 132.959C187.59 133.048 187.241 133.096 186.927 133.096C185.607 133.096 184.828 132.364 184.828 131.113V123.539ZM191.664 133.164C190.092 133.164 188.998 132.467 188.725 131.147L189.894 130.867C190.112 131.708 190.734 132.084 191.65 132.084C192.717 132.084 193.4 131.558 193.4 130.929C193.4 130.402 193.031 130.054 192.279 129.876L191.008 129.575C189.62 129.247 188.957 128.563 188.957 127.49C188.957 126.178 190.16 125.262 191.787 125.262C193.359 125.262 194.187 126.027 194.535 127.101L193.421 127.388C193.209 126.841 192.778 126.308 191.794 126.308C190.885 126.308 190.201 126.779 190.201 127.415C190.201 127.982 190.591 128.297 191.486 128.509L192.642 128.782C194.029 129.11 194.679 129.801 194.679 130.847C194.679 132.187 193.455 133.164 191.664 133.164Z" fill="#303030"/>
<defs>
<clipPath id="clip0_37333_96">
<rect width="20" height="16" fill="white" transform="translate(24 120)"/>
</clipPath>
<clipPath id="clip1_37333_96">
<rect width="16" height="16" fill="white" transform="translate(28 120)"/>
</clipPath>
</defs>
</svg>
