<svg width="352" height="160" fill="none" xmlns="http://www.w3.org/2000/svg"><rect x=".5" y=".5" width="351" height="159" rx="2.5" fill="#fff"/><rect x=".5" y=".5" width="351" height="159" rx="2.5" stroke="#BFBFC3"/><path d="M20.676 31.15c-2.482 0-4.068-1.148-4.122-3.363h2.105c.069 1.026.868 1.531 1.99 1.531 1.08 0 1.784-.499 1.784-1.237 0-.67-.616-.984-1.723-1.25l-1.108-.274c-1.736-.417-2.782-1.285-2.782-2.79 0-1.845 1.634-3.09 3.87-3.09 2.29 0 3.773 1.265 3.8 3.084h-2.098c-.076-.8-.698-1.258-1.716-1.258-1.04 0-1.613.478-1.613 1.128 0 .718.717 1.039 1.592 1.244l.91.219c1.784.403 3.062 1.305 3.062 2.994 0 1.88-1.47 3.062-3.951 3.062Zm7.998-.054c-1.593 0-2.639-1.1-2.639-2.871v-4.868h2.14v4.478c0 .93.506 1.483 1.346 1.483.848 0 1.436-.574 1.436-1.551v-4.41h2.146V31H31.08l-.034-1.914h.116c-.396 1.271-1.203 2.01-2.488 2.01ZM34.799 31v-7.643h1.982l.11 1.928h-.15c.341-1.435 1.284-2.037 2.317-2.037 1.087 0 1.75.677 2.078 2.174h-.246c.348-1.51 1.428-2.174 2.597-2.174 1.408 0 2.44.95 2.44 2.598V31h-2.146v-4.717c0-.84-.499-1.258-1.169-1.258-.752 0-1.217.527-1.217 1.306V31h-2.064v-4.765c0-.738-.479-1.21-1.155-1.21-.704 0-1.238.493-1.238 1.381V31h-2.14Zm12.838 0v-7.643h1.982l.11 1.928h-.15c.34-1.435 1.284-2.037 2.316-2.037 1.087 0 1.75.677 2.079 2.174h-.246c.348-1.51 1.428-2.174 2.597-2.174 1.408 0 2.44.95 2.44 2.598V31H56.62v-4.717c0-.84-.499-1.258-1.169-1.258-.752 0-1.217.527-1.217 1.306V31H52.17v-4.765c0-.738-.479-1.21-1.155-1.21-.704 0-1.238.493-1.238 1.381V31h-2.14Zm14.97.15c-1.456 0-2.529-.765-2.529-2.283 0-1.702 1.354-2.215 2.871-2.358 1.306-.123 1.84-.185 1.84-.677v-.034c0-.615-.418-.97-1.156-.97-.752 0-1.23.368-1.381.86l-1.955-.307c.355-1.32 1.586-2.12 3.35-2.12 1.709 0 3.28.787 3.28 2.585V31h-2.023v-1.06h-.068c-.383.732-1.114 1.21-2.229 1.21Zm.623-1.476c.916 0 1.572-.609 1.572-1.401v-.8c-.253.164-1.012.273-1.456.341-.745.103-1.224.404-1.224.985 0 .574.458.875 1.108.875ZM68.636 31v-7.643h2.078v1.354h.082c.273-.957.97-1.45 1.825-1.45.212 0 .479.028.663.07v1.9c-.191-.062-.601-.11-.902-.11-.923 0-1.607.643-1.607 1.58V31h-2.14Zm5.838 0v-7.643h2.14V31h-2.14Zm1.066-8.606c-.629 0-1.148-.486-1.148-1.08 0-.602.52-1.08 1.148-1.08.636 0 1.162.478 1.162 1.08 0 .594-.526 1.08-1.162 1.08ZM78.275 31v-1.271l3.72-4.601v-.055h-3.597v-1.716h6.173v1.402l-3.486 4.477v.055h3.616V31h-6.426Zm11.293.15c-2.358 0-3.8-1.503-3.8-3.93 0-2.359 1.449-3.958 3.698-3.958 2.037 0 3.616 1.299 3.616 3.883v.587h-6.467v-1.319h5.428l-1.005.342c0-1.155-.526-1.894-1.552-1.894-1.032 0-1.6.76-1.6 1.812v.936c0 1.285.684 1.949 1.717 1.949.697 0 1.223-.301 1.435-.869l1.928.342c-.376 1.285-1.607 2.12-3.398 2.12Zm11.587 0c-2.324 0-3.766-1.585-3.766-3.937 0-2.365 1.442-3.951 3.766-3.951 1.853 0 3.158.998 3.432 2.59l-1.989.363c-.164-.793-.65-1.279-1.422-1.279-1.039 0-1.6.903-1.6 2.27 0 1.354.561 2.276 1.6 2.276.772 0 1.278-.499 1.435-1.326l1.99.356c-.281 1.633-1.58 2.638-3.446 2.638Zm8.272 0c-2.324 0-3.767-1.585-3.767-3.937 0-2.365 1.443-3.951 3.767-3.951s3.766 1.586 3.766 3.95c0 2.352-1.442 3.938-3.766 3.938Zm0-1.668c1.046 0 1.586-.957 1.586-2.276 0-1.333-.54-2.27-1.586-2.27-1.039 0-1.579.937-1.579 2.27 0 1.32.54 2.276 1.579 2.276ZM114.588 31v-7.643h1.982l.11 1.928h-.151c.342-1.435 1.285-2.037 2.318-2.037 1.087 0 1.75.677 2.078 2.174h-.246c.348-1.51 1.428-2.174 2.597-2.174 1.409 0 2.441.95 2.441 2.598V31h-2.147v-4.717c0-.84-.499-1.258-1.169-1.258-.752 0-1.216.527-1.216 1.306V31h-2.065v-4.765c0-.738-.478-1.21-1.155-1.21-.704 0-1.237.493-1.237 1.381V31h-2.14Zm12.838 0v-7.643h1.982l.11 1.928h-.151c.342-1.435 1.285-2.037 2.318-2.037 1.086 0 1.75.677 2.078 2.174h-.246c.348-1.51 1.428-2.174 2.597-2.174 1.408 0 2.441.95 2.441 2.598V31h-2.147v-4.717c0-.84-.499-1.258-1.169-1.258-.752 0-1.217.527-1.217 1.306V31h-2.064v-4.765c0-.738-.479-1.21-1.155-1.21-.704 0-1.238.493-1.238 1.381V31h-2.139Zm16.324.15c-2.358 0-3.801-1.503-3.801-3.93 0-2.359 1.449-3.958 3.698-3.958 2.038 0 3.617 1.299 3.617 3.883v.587h-6.467v-1.319h5.428l-1.005.342c0-1.155-.527-1.894-1.552-1.894-1.032 0-1.6.76-1.6 1.812v.936c0 1.285.684 1.949 1.716 1.949.697 0 1.224-.301 1.436-.869l1.927.342c-.376 1.285-1.606 2.12-3.397 2.12Zm7.021-4.552V31h-2.14v-7.643h2.016l.041 1.915h-.123c.397-1.252 1.19-2.01 2.496-2.01 1.592 0 2.638 1.107 2.638 2.878V31h-2.146v-4.47c0-.93-.506-1.484-1.347-1.484-.848 0-1.435.574-1.435 1.552Zm10.506-3.24v1.62h-4.593v-1.62h4.593Zm-3.554-1.819h2.139v7.198c0 .465.199.684.677.684.157 0 .506-.055.649-.089l.301 1.593a5.01 5.01 0 0 1-1.374.184c-1.558 0-2.392-.765-2.392-2.18v-7.39Zm7.854 9.611c-1.873 0-3.158-.834-3.425-2.262l1.996-.335c.192.697.664 1.052 1.498 1.052.751 0 1.216-.314 1.216-.752 0-.39-.314-.622-.977-.758l-1.32-.267c-1.483-.3-2.214-1.025-2.214-2.18 0-1.477 1.285-2.386 3.247-2.386 1.845 0 2.96.8 3.24 2.064l-1.894.322c-.157-.52-.594-.862-1.305-.862-.65 0-1.149.294-1.149.732 0 .362.246.622.95.765l1.395.274c1.49.3 2.208.97 2.208 2.064 0 1.524-1.436 2.53-3.466 2.53Zm9.652-.15-2.249-7.643h2.249l.636 2.776c.219 1.018.499 2.194.718 3.63h-.232c.232-1.409.533-2.591.779-3.63l.677-2.776h1.948l.656 2.776c.233 1.025.54 2.208.773 3.63h-.233c.219-1.415.479-2.591.704-3.63l.636-2.776h2.276L182.305 31h-2.181l-.834-2.892c-.246-.847-.478-2.132-.711-3.083h.376c-.232.944-.472 2.243-.711 3.083L177.41 31h-2.181Zm10.371 0v-7.643h2.139V31H185.6Zm1.066-8.606c-.629 0-1.148-.486-1.148-1.08 0-.602.519-1.08 1.148-1.08.636 0 1.162.478 1.162 1.08 0 .594-.526 1.08-1.162 1.08Zm6.658.963v1.62h-4.594v-1.62h4.594Zm-3.554-1.818h2.139v7.198c0 .465.198.684.677.684.157 0 .506-.055.649-.089l.301 1.593a5.01 5.01 0 0 1-1.374.184c-1.558 0-2.392-.765-2.392-2.18v-7.39Zm7.006 5.059V31h-2.139V20.814h2.098v4.457h-.164c.397-1.25 1.19-2.01 2.495-2.01 1.593 0 2.639 1.108 2.639 2.879V31h-2.146v-4.47c0-.93-.506-1.484-1.347-1.484-.848 0-1.436.574-1.436 1.552Zm14.465 4.539c-2.871 0-4.819-1.99-4.819-5.21 0-3.308 2.085-5.25 4.778-5.25 2.304 0 4.081 1.416 4.355 3.432h-2.208c-.267-.936-1.012-1.504-2.113-1.504-1.545 0-2.597 1.19-2.597 3.295 0 2.113 1.011 3.316 2.625 3.316 1.442 0 2.29-.814 2.29-2.099l.444.062h-2.604v-1.634h4.272v1.285c0 2.687-1.852 4.307-4.423 4.307Zm5.927-.137v-7.643h2.14V31h-2.14Zm1.066-8.606c-.629 0-1.148-.486-1.148-1.08 0-.602.519-1.08 1.148-1.08.636 0 1.162.478 1.162 1.08 0 .594-.526 1.08-1.162 1.08Zm6.659.963v1.62h-4.594v-1.62h4.594Zm-3.555-1.818h2.14v7.198c0 .465.198.684.676.684.158 0 .506-.055.65-.089l.3 1.593a5.01 5.01 0 0 1-1.374.184c-1.558 0-2.392-.765-2.392-2.18v-7.39ZM226.239 31V20.814h2.181v8.395h4.354V31h-6.535Zm10.015.15c-1.456 0-2.529-.765-2.529-2.283 0-1.702 1.353-2.215 2.871-2.358 1.305-.123 1.839-.185 1.839-.677v-.034c0-.615-.417-.97-1.156-.97-.752 0-1.23.368-1.381.86l-1.955-.307c.356-1.32 1.586-2.12 3.35-2.12 1.709 0 3.281.787 3.281 2.585V31h-2.023v-1.06h-.069c-.382.732-1.114 1.21-2.228 1.21Zm.622-1.476c.916 0 1.572-.609 1.572-1.401v-.8c-.253.164-1.011.273-1.456.341-.745.103-1.223.404-1.223.985 0 .574.458.875 1.107.875Zm9.769 1.449c-1.224 0-1.867-.71-2.161-1.347h-.095V31h-2.106V20.814h2.14v3.842h.061c.281-.629.903-1.394 2.174-1.394 1.675 0 3.09 1.305 3.09 3.93 0 2.557-1.36 3.931-3.103 3.931Zm-.677-1.702c1.025 0 1.579-.916 1.579-2.235 0-1.313-.547-2.215-1.579-2.215-1.019 0-1.593.861-1.593 2.215 0 1.346.588 2.235 1.593 2.235ZM258.061 31h-2.66v-1.866h2.557c1.9 0 2.912-.964 2.912-3.227 0-2.262-1.012-3.22-2.912-3.22h-2.604v-1.873h2.734c3.069 0 4.949 1.915 4.949 5.093 0 3.179-1.88 5.093-4.976 5.093Zm-1.45-10.186V31h-2.18V20.814h2.18Zm10.541 10.282c-1.592 0-2.638-1.1-2.638-2.871v-4.868h2.139v4.478c0 .93.506 1.483 1.347 1.483.848 0 1.436-.574 1.436-1.551v-4.41h2.146V31h-2.023l-.035-1.914h.117c-.397 1.271-1.203 2.01-2.489 2.01Zm9.577.054c-2.324 0-3.766-1.585-3.766-3.937 0-2.365 1.442-3.951 3.766-3.951 2.325 0 3.767 1.586 3.767 3.95 0 2.352-1.442 3.938-3.767 3.938Zm0-1.668c1.046 0 1.586-.957 1.586-2.276 0-1.333-.54-2.27-1.586-2.27-1.039 0-1.579.937-1.579 2.27 0 1.32.54 2.276 1.579 2.276Z" fill="#28272D"/><rect x="286" y="18" width="42" height="16" rx="8" fill="#DCDCDE"/><rect x="286" y="18" width="42" height="16" rx="8" stroke="#BFBFC3"/><path d="M295.055 30v-8.73h3.093c1.823 0 2.684 1.037 2.684 2.314 0 1.12-.668 1.629-1.43 1.834v.082c.815.053 1.77.803 1.77 2.174 0 1.318-.867 2.326-2.924 2.326h-3.193Zm1.113-.984h2.051c1.359 0 1.881-.598 1.881-1.354 0-.873-.704-1.623-1.823-1.623h-2.109v2.977Zm0-3.914h1.922c.937 0 1.676-.592 1.676-1.495 0-.755-.51-1.353-1.641-1.353h-1.957v2.848Zm9.363 5.039c-1.898 0-3.07-1.348-3.07-3.364 0-2.01 1.16-3.41 2.947-3.41 1.389 0 2.854.856 2.854 3.276v.439h-5.086v-.89h4.517l-.492.328c0-1.29-.609-2.215-1.793-2.215-1.183 0-1.881.978-1.881 2.045v.591c0 1.46.809 2.262 2.01 2.262.774 0 1.354-.34 1.6-1.008l1.019.282c-.304.99-1.283 1.664-2.625 1.664Zm6.821-6.692v.903h-3.387v-.903h3.387Zm-2.403-1.558h1.055v6.41c0 .586.217.844.773.844.135 0 .364-.036.539-.07l.217.89a2.536 2.536 0 0 1-.785.117c-1.131 0-1.799-.627-1.799-1.7v-6.491Zm5.643 8.261c-1.242 0-2.233-.726-2.233-2.015 0-1.5 1.336-1.776 2.549-1.928 1.166-.146 1.682-.111 1.682-.598v-.035c0-.814-.463-1.283-1.371-1.283-.944 0-1.453.504-1.658.96l-1.014-.333c.504-1.19 1.629-1.553 2.642-1.553.879 0 2.456.27 2.456 2.315V30h-1.038v-.89h-.07c-.223.462-.838 1.042-1.945 1.042Zm.181-.931c1.166 0 1.817-.785 1.817-1.588v-.908c-.176.205-1.324.322-1.729.375-.767.1-1.441.345-1.441 1.09 0 .68.568 1.03 1.353 1.03Z" fill="#4C4B51"/><path d="M21.216 59.164c-2.413 0-3.986-1.531-3.986-3.63v-6.72h1.3v6.618c0 1.462 1.018 2.529 2.686 2.529 1.661 0 2.673-1.066 2.673-2.53v-6.616h1.299v6.72c0 2.098-1.573 3.63-3.972 3.63Zm8.88 0c-1.573 0-2.666-.697-2.94-2.017l1.17-.28c.218.841.84 1.217 1.756 1.217 1.066 0 1.75-.526 1.75-1.155 0-.527-.37-.875-1.121-1.053l-1.271-.3c-1.388-.329-2.051-1.013-2.051-2.086 0-1.312 1.203-2.228 2.83-2.228 1.572 0 2.4.765 2.748 1.839l-1.114.287c-.212-.547-.643-1.08-1.627-1.08-.91 0-1.593.471-1.593 1.107 0 .567.39.882 1.285 1.094l1.155.273c1.388.328 2.037 1.019 2.037 2.065 0 1.34-1.223 2.317-3.014 2.317Zm8.011 0c-2.214 0-3.582-1.572-3.582-3.924 0-2.345 1.354-3.978 3.439-3.978 1.62 0 3.329.998 3.329 3.821v.513h-5.934v-1.04h5.27l-.573.384c0-1.505-.711-2.584-2.092-2.584-1.381 0-2.194 1.141-2.194 2.385v.69c0 1.703.943 2.64 2.344 2.64.903 0 1.58-.397 1.867-1.176l1.189.328c-.355 1.155-1.497 1.941-3.063 1.941ZM46.27 59l3.698-10.185h1.504L55.218 59H53.85l-2.16-6.043c-.267-.745-.602-1.805-1.101-3.534h.246a62.085 62.085 0 0 1-1.087 3.534L47.65 59h-1.38Zm1.859-2.844v-1.134h5.23v1.134h-5.23Zm9.98-7.341V59H56.81V48.815h1.3Zm9.256 2.542v1.053h-3.95v-1.053h3.95Zm-2.802-1.818h1.23v7.479c0 .683.253.984.902.984.158 0 .424-.041.63-.082l.252 1.039a2.96 2.96 0 0 1-.916.137c-1.32 0-2.099-.732-2.099-1.983V49.54Zm7.348 9.625c-2.078 0-3.48-1.579-3.48-3.937 0-2.393 1.402-3.965 3.48-3.965 2.085 0 3.493 1.572 3.493 3.965 0 2.358-1.408 3.937-3.493 3.937Zm0-1.1c1.545 0 2.25-1.334 2.25-2.837 0-1.518-.705-2.865-2.25-2.865-1.524 0-2.228 1.34-2.228 2.865 0 1.504.704 2.837 2.228 2.837Zm15.634 3.793h-1.23v-4.04h-.096c-.253.424-.766 1.347-2.222 1.347-1.907 0-3.233-1.531-3.233-3.965 0-2.42 1.333-3.937 3.24-3.937 1.49 0 1.962.916 2.215 1.32h.137v-1.225h1.189v10.5Zm-3.363-3.794c1.387 0 2.146-1.175 2.146-2.878 0-1.688-.738-2.823-2.146-2.823-1.45 0-2.167 1.238-2.167 2.823 0 1.607.738 2.878 2.167 2.878Zm8.114 1.033c-1.545 0-2.59-.95-2.59-2.885v-4.854h1.23v4.751c0 1.176.663 1.88 1.729 1.88 1.094 0 1.92-.745 1.92-2.05v-4.58h1.238V59h-1.19v-1.852h.165c-.472 1.435-1.381 1.948-2.502 1.948ZM97.99 59v-7.643h1.23V59h-1.23Zm.622-8.894c-.465 0-.854-.362-.854-.813 0-.451.39-.813.854-.813.472 0 .862.362.862.813 0 .451-.39.813-.862.813Zm5.879 9.058c-2.078 0-3.479-1.579-3.479-3.937 0-2.393 1.401-3.965 3.479-3.965 1.477 0 2.68.779 3.097 2.112l-1.183.335c-.225-.786-.909-1.347-1.914-1.347-1.524 0-2.228 1.34-2.228 2.865 0 1.504.704 2.837 2.228 2.837 1.026 0 1.723-.582 1.948-1.409l1.176.335c-.41 1.36-1.627 2.174-3.124 2.174Zm6.043-2.912v-1.525h.226l3.267-3.37h1.525l-3.534 3.63h-.137l-1.347 1.265ZM109.379 59V48.815h1.23V59h-1.23Zm4.833 0-2.926-3.74.875-.867 3.63 4.607h-1.579Zm4.566.055c-1.148 0-1.716-.643-1.716-1.75v-8.49h1.231v8.182c0 .704.123.957.636.957.266 0 .376-.02.492-.055l.246 1.04a3.557 3.557 0 0 1-.889.116Zm1.743 2.714.315-1.067.13.034c.752.199 1.292.035 1.668-1.06l.219-.635-2.919-7.684h1.346l1.627 4.533c.342.95.547 1.886.814 2.761h-.451c.259-.875.471-1.818.813-2.761l1.641-4.533h1.339l-3.356 8.785c-.465 1.216-1.203 1.77-2.283 1.77-.438 0-.773-.082-.903-.143Zm15.033.253c-1.696 0-2.673-.718-3.145-1.56l.998-.642c.322.445.8 1.128 2.147 1.128 1.217 0 2.098-.56 2.098-1.818v-1.531h-.116c-.26.437-.745 1.278-2.222 1.278-1.832 0-3.226-1.333-3.226-3.733 0-2.365 1.347-3.882 3.254-3.882 1.476 0 1.969.909 2.228 1.32h.117v-1.225h1.196v7.841c0 1.976-1.47 2.824-3.329 2.824Zm-.034-4.239c1.387 0 2.146-.998 2.146-2.666 0-1.62-.738-2.755-2.146-2.755-1.457 0-2.181 1.23-2.181 2.755 0 1.573.745 2.666 2.181 2.666Zm8.736 1.381c-2.215 0-3.582-1.572-3.582-3.924 0-2.345 1.353-3.978 3.438-3.978 1.62 0 3.329.998 3.329 3.821v.513h-5.933v-1.04h5.27l-.574.384c0-1.505-.711-2.584-2.092-2.584-1.381 0-2.194 1.141-2.194 2.385v.69c0 1.703.943 2.64 2.345 2.64.902 0 1.579-.397 1.866-1.176l1.189.328c-.355 1.155-1.497 1.941-3.062 1.941Zm6.18-4.744V59h-1.231v-7.643h1.183l.007 1.853h-.171c.464-1.408 1.353-1.948 2.508-1.948 1.545 0 2.591.95 2.591 2.885V59h-1.237v-4.751c0-1.176-.656-1.88-1.723-1.88-1.1 0-1.927.745-1.927 2.05Zm10.267 4.744c-2.215 0-3.582-1.572-3.582-3.924 0-2.345 1.354-3.978 3.439-3.978 1.62 0 3.329.998 3.329 3.821v.513h-5.934v-1.04h5.271l-.575.384c0-1.505-.711-2.584-2.091-2.584-1.381 0-2.195 1.141-2.195 2.385v.69c0 1.703.944 2.64 2.345 2.64.902 0 1.579-.397 1.866-1.176l1.19.328c-.356 1.155-1.497 1.941-3.063 1.941Zm4.949-.164v-7.643h1.19v1.176h.082c.28-.772 1.073-1.285 1.982-1.285.178 0 .479.014.622.02v1.238a4.64 4.64 0 0 0-.738-.069c-1.101 0-1.907.746-1.907 1.778V59h-1.231Zm7.417.178c-1.449 0-2.604-.848-2.604-2.352 0-1.75 1.558-2.071 2.973-2.249 1.361-.17 1.962-.13 1.962-.697v-.041c0-.95-.54-1.497-1.599-1.497-1.101 0-1.696.588-1.935 1.12l-1.182-.389c.587-1.388 1.9-1.811 3.083-1.811 1.025 0 2.864.314 2.864 2.7V59h-1.21v-1.04h-.082c-.26.541-.978 1.218-2.27 1.218Zm.212-1.087c1.361 0 2.119-.916 2.119-1.853v-1.06c-.205.24-1.545.377-2.016.438-.896.116-1.682.404-1.682 1.272 0 .793.663 1.203 1.579 1.203Zm8.518-6.734v1.053h-3.951v-1.053h3.951Zm-2.803-1.818h1.231v7.479c0 .683.252.984.902.984.157 0 .424-.041.629-.082l.253 1.039a2.964 2.964 0 0 1-.916.137c-1.32 0-2.099-.732-2.099-1.983V49.54Zm7.451 9.625c-2.215 0-3.582-1.572-3.582-3.924 0-2.345 1.354-3.978 3.439-3.978 1.62 0 3.329.998 3.329 3.821v.513h-5.934v-1.04h5.271l-.574.384c0-1.505-.711-2.584-2.092-2.584-1.381 0-2.195 1.141-2.195 2.385v.69c0 1.703.944 2.64 2.345 2.64.902 0 1.579-.397 1.866-1.176l1.19.328c-.356 1.155-1.497 1.941-3.063 1.941Zm11.485 0c-1.573 0-2.666-.697-2.94-2.017l1.169-.28c.219.841.841 1.217 1.757 1.217 1.066 0 1.75-.526 1.75-1.155 0-.527-.369-.875-1.121-1.053l-1.272-.3c-1.387-.329-2.05-1.013-2.05-2.086 0-1.312 1.203-2.228 2.83-2.228 1.572 0 2.399.765 2.748 1.839l-1.115.287c-.211-.547-.642-1.08-1.626-1.08-.91 0-1.593.471-1.593 1.107 0 .567.389.882 1.285 1.094l1.155.273c1.388.328 2.037 1.019 2.037 2.065 0 1.34-1.223 2.317-3.014 2.317Zm7.389-.068c-1.545 0-2.591-.95-2.591-2.885v-4.854h1.231v4.751c0 1.176.663 1.88 1.729 1.88 1.094 0 1.921-.745 1.921-2.05v-4.58h1.238V59h-1.19v-1.852h.164c-.471 1.435-1.381 1.948-2.502 1.948Zm5.695-.096v-7.643h1.196l.007 1.71h-.096c.308-1.238 1.244-1.846 2.235-1.846 1.108 0 1.812.752 2.017 1.86h-.164c.273-1.143 1.285-1.86 2.502-1.86 1.326 0 2.406.854 2.406 2.625V59h-1.237v-5.12c0-1.1-.718-1.538-1.538-1.538-1.032 0-1.661.704-1.661 1.668V59h-1.231v-5.243c0-.848-.636-1.415-1.497-1.415-.895 0-1.709.629-1.709 1.846V59h-1.23Zm12.263 0v-7.643h1.197l.006 1.71h-.095c.307-1.238 1.244-1.846 2.235-1.846 1.107 0 1.812.752 2.017 1.86h-.164c.273-1.143 1.285-1.86 2.502-1.86 1.326 0 2.406.854 2.406 2.625V59h-1.237v-5.12c0-1.1-.718-1.538-1.539-1.538-1.032 0-1.661.704-1.661 1.668V59h-1.23v-5.243c0-.848-.636-1.415-1.497-1.415-.896 0-1.709.629-1.709 1.846V59h-1.231Zm14.404.178c-1.45 0-2.605-.848-2.605-2.352 0-1.75 1.559-2.071 2.974-2.249 1.36-.17 1.962-.13 1.962-.697v-.041c0-.95-.54-1.497-1.6-1.497-1.101 0-1.695.588-1.935 1.12l-1.182-.389c.588-1.388 1.9-1.811 3.083-1.811 1.025 0 2.864.314 2.864 2.7V59h-1.21v-1.04h-.082c-.26.541-.977 1.218-2.269 1.218Zm.212-1.087c1.36 0 2.119-.916 2.119-1.853v-1.06c-.205.24-1.545.377-2.017.438-.895.116-1.682.404-1.682 1.272 0 .793.664 1.203 1.58 1.203Zm5.509.909v-7.643h1.19v1.176h.082c.28-.772 1.073-1.285 1.982-1.285.178 0 .479.014.622.02v1.238a4.64 4.64 0 0 0-.738-.069c-1.101 0-1.907.746-1.907 1.778V59h-1.231Zm5.496 0v-7.643h1.231V59H248.9Zm.622-8.894c-.464 0-.854-.362-.854-.813 0-.451.39-.813.854-.813.472 0 .862.362.862.813 0 .451-.39.813-.862.813Zm5.982 9.058c-2.215 0-3.582-1.572-3.582-3.924 0-2.345 1.353-3.978 3.438-3.978 1.62 0 3.329.998 3.329 3.821v.513h-5.933v-1.04h5.27l-.574.384c0-1.505-.711-2.584-2.092-2.584-1.381 0-2.194 1.141-2.194 2.385v.69c0 1.703.943 2.64 2.345 2.64.902 0 1.579-.397 1.866-1.176l1.189.328c-.355 1.155-1.497 1.941-3.062 1.941Zm7.547 0c-1.572 0-2.666-.697-2.94-2.017l1.169-.28c.219.841.841 1.217 1.757 1.217 1.067 0 1.75-.526 1.75-1.155 0-.527-.369-.875-1.121-1.053l-1.271-.3c-1.388-.329-2.051-1.013-2.051-2.086 0-1.312 1.203-2.228 2.83-2.228 1.572 0 2.399.765 2.748 1.839l-1.114.287c-.212-.547-.643-1.08-1.627-1.08-.91 0-1.593.471-1.593 1.107 0 .567.39.882 1.285 1.094l1.155.273c1.388.328 2.037 1.019 2.037 2.065 0 1.34-1.223 2.317-3.014 2.317Zm11.846 0c-2.078 0-3.479-1.579-3.479-3.937 0-2.393 1.401-3.965 3.479-3.965 2.085 0 3.494 1.572 3.494 3.965 0 2.358-1.409 3.937-3.494 3.937Zm0-1.1c1.545 0 2.249-1.334 2.249-2.837 0-1.518-.704-2.865-2.249-2.865-1.524 0-2.228 1.34-2.228 2.865 0 1.504.704 2.837 2.228 2.837Zm8.839-6.707v1.053h-4.498v-1.053h4.498ZM280.742 59v-8.661c0-1.326 1.06-2.003 2.174-2.003.581 0 .964.123 1.148.205l-.341 1.053c-.13-.041-.322-.117-.663-.117-.759 0-1.087.397-1.087 1.135V59h-1.231ZM20.19 79.164c-2.078 0-3.48-1.579-3.48-3.937 0-2.393 1.402-3.965 3.48-3.965 1.477 0 2.68.779 3.097 2.112l-1.182.335c-.226-.786-.91-1.347-1.915-1.347-1.524 0-2.228 1.34-2.228 2.865 0 1.504.704 2.837 2.228 2.837 1.026 0 1.723-.582 1.949-1.409l1.175.335c-.41 1.36-1.627 2.174-3.124 2.174Zm7.998 0c-2.078 0-3.479-1.579-3.479-3.937 0-2.393 1.401-3.965 3.48-3.965 2.084 0 3.493 1.572 3.493 3.965 0 2.358-1.409 3.937-3.493 3.937Zm0-1.1c1.545 0 2.25-1.333 2.25-2.837 0-1.518-.705-2.865-2.25-2.865-1.524 0-2.228 1.34-2.228 2.865 0 1.504.704 2.837 2.229 2.837Zm5.285.936v-7.643h1.196l.007 1.71h-.096c.308-1.238 1.244-1.846 2.235-1.846 1.108 0 1.812.752 2.017 1.86h-.164c.273-1.142 1.285-1.86 2.502-1.86 1.326 0 2.406.854 2.406 2.625V79H42.34v-5.12c0-1.1-.718-1.538-1.538-1.538-1.032 0-1.661.704-1.661 1.668V79h-1.23v-5.243c0-.848-.637-1.415-1.498-1.415-.895 0-1.709.629-1.709 1.846V79h-1.23Zm12.263 0v-7.643h1.197l.007 1.71h-.096c.307-1.238 1.244-1.846 2.235-1.846 1.108 0 1.812.752 2.017 1.86h-.164c.273-1.142 1.285-1.86 2.502-1.86 1.326 0 2.406.854 2.406 2.625V79h-1.238v-5.12c0-1.1-.717-1.538-1.537-1.538-1.033 0-1.662.704-1.662 1.668V79h-1.23v-5.243c0-.848-.636-1.415-1.497-1.415-.896 0-1.71.629-1.71 1.846V79h-1.23Zm15.477.164c-2.215 0-3.582-1.572-3.582-3.924 0-2.344 1.353-3.978 3.438-3.978 1.62 0 3.33.998 3.33 3.821v.513h-5.934v-1.04h5.27l-.574.383c0-1.503-.71-2.583-2.092-2.583-1.38 0-2.194 1.141-2.194 2.385v.69c0 1.703.943 2.64 2.345 2.64.902 0 1.579-.397 1.866-1.177l1.19.329c-.356 1.155-1.498 1.941-3.063 1.941Zm6.18-4.744V79h-1.23v-7.643h1.182l.007 1.853h-.171c.465-1.408 1.353-1.948 2.508-1.948 1.545 0 2.591.95 2.591 2.885V79h-1.237v-4.751c0-1.176-.656-1.88-1.723-1.88-1.1 0-1.927.745-1.927 2.05Zm10.062-3.063v1.053h-3.951v-1.053h3.951Zm-2.803-1.818h1.23v7.479c0 .683.254.984.903.984.157 0 .424-.041.63-.082l.252 1.039a2.961 2.961 0 0 1-.916.137c-1.32 0-2.099-.732-2.099-1.983V69.54Zm6.836 9.625c-1.572 0-2.666-.697-2.94-2.017l1.17-.28c.218.841.84 1.217 1.757 1.217 1.066 0 1.75-.526 1.75-1.155 0-.527-.37-.875-1.121-1.053l-1.272-.3c-1.388-.329-2.05-1.012-2.05-2.086 0-1.312 1.202-2.228 2.83-2.228 1.572 0 2.399.765 2.747 1.839l-1.114.287c-.212-.547-.642-1.08-1.627-1.08-.909 0-1.593.471-1.593 1.107 0 .567.39.882 1.285 1.094l1.156.273c1.388.328 2.037 1.019 2.037 2.065 0 1.34-1.224 2.317-3.015 2.317Zm5.729-.075a.92.92 0 1 1 .923-.923.923.923 0 0 1-.923.923ZM94.408 79V68.814h6.207v1.149h-4.908v3.322h4.573v1.149h-4.573v3.418h4.97V79h-6.269Zm11.826-7.643v1.053h-4.498v-1.053h4.498ZM103.24 79v-8.661c0-1.326 1.06-2.003 2.174-2.003.581 0 .964.123 1.148.205l-.341 1.053c-.13-.041-.322-.116-.663-.116-.759 0-1.087.396-1.087 1.134V79h-1.231Zm4.621 0v-8.661c0-1.326 1.06-2.003 2.174-2.003.246 0 .465.02.643.055l-.185 1.114a1.413 1.413 0 0 0-.314-.027c-.759 0-1.087.396-1.087 1.134V79h-1.231Zm-1.49-6.59v-1.053h6.057v1.053h-6.057Zm5.647 6.59v-7.643h1.23V79h-1.23Zm.622-8.894c-.465 0-.855-.362-.855-.813 0-.451.39-.814.855-.814.471 0 .861.363.861.814 0 .451-.39.813-.861.813Zm5.879 9.058c-2.079 0-3.48-1.579-3.48-3.937 0-2.393 1.401-3.965 3.48-3.965 1.476 0 2.679.779 3.096 2.112l-1.182.335c-.226-.786-.91-1.347-1.914-1.347-1.525 0-2.229 1.34-2.229 2.865 0 1.504.704 2.837 2.229 2.837 1.025 0 1.722-.582 1.948-1.409l1.176.335c-.411 1.36-1.627 2.174-3.124 2.174Zm4.887-.164v-7.643h1.231V79h-1.231Zm.622-8.894c-.465 0-.854-.362-.854-.813 0-.451.389-.814.854-.814.472 0 .862.363.862.814 0 .451-.39.813-.862.813Zm5.982 9.058c-2.215 0-3.582-1.572-3.582-3.924 0-2.344 1.353-3.978 3.438-3.978 1.62 0 3.329.998 3.329 3.821v.513h-5.933v-1.04h5.27l-.574.383c0-1.503-.711-2.583-2.092-2.583-1.381 0-2.194 1.141-2.194 2.385v.69c0 1.703.943 2.64 2.345 2.64.902 0 1.579-.397 1.866-1.177l1.189.329c-.355 1.155-1.497 1.941-3.062 1.941Zm6.179-4.744V79h-1.23v-7.643h1.183l.006 1.853h-.17c.464-1.408 1.353-1.948 2.508-1.948 1.545 0 2.591.95 2.591 2.885V79h-1.237v-4.751c0-1.176-.656-1.88-1.723-1.88-1.1 0-1.928.745-1.928 2.05Zm10.063-3.063v1.053h-3.951v-1.053h3.951Zm-2.803-1.818h1.231v7.479c0 .683.253.984.902.984.157 0 .424-.041.629-.082l.253 1.039a2.964 2.964 0 0 1-.916.137c-1.319 0-2.099-.732-2.099-1.983V69.54Zm6.091 9.516c-1.148 0-1.716-.643-1.716-1.75v-8.49h1.231v8.182c0 .704.123.957.635.957.267 0 .376-.02.493-.055l.246 1.04a3.557 3.557 0 0 1-.889.116Zm1.743 2.714.315-1.067.13.034c.751.199 1.292.034 1.668-1.06l.218-.635-2.919-7.684h1.347l1.627 4.533c.342.95.547 1.886.813 2.761h-.451c.26-.875.472-1.818.814-2.761l1.64-4.533h1.34l-3.356 8.785c-.465 1.216-1.203 1.77-2.283 1.77-.438 0-.773-.082-.903-.143ZM163.219 79v-7.643h1.189v1.176h.082c.281-.772 1.073-1.285 1.983-1.285.177 0 .478.014.622.02v1.238a4.643 4.643 0 0 0-.739-.069c-1.1 0-1.907.746-1.907 1.778V79h-1.23Zm8.258.164c-2.215 0-3.582-1.572-3.582-3.924 0-2.344 1.353-3.978 3.438-3.978 1.62 0 3.329.998 3.329 3.821v.513h-5.933v-1.04h5.27l-.574.383c0-1.503-.711-2.583-2.092-2.583-1.381 0-2.194 1.141-2.194 2.385v.69c0 1.703.943 2.64 2.344 2.64.903 0 1.579-.397 1.867-1.177l1.189.329c-.355 1.155-1.497 1.941-3.062 1.941ZM178.36 79l-2.919-7.643h1.347l1.627 4.533c.342.943.554 1.886.82 2.761h-.451c.267-.875.472-1.818.814-2.761l1.627-4.533h1.346L179.652 79h-1.292Zm5.667 0v-7.643h1.231V79h-1.231Zm.622-8.894c-.464 0-.854-.362-.854-.813 0-.451.39-.814.854-.814.472 0 .862.363.862.814 0 .451-.39.813-.862.813Zm5.982 9.058c-2.215 0-3.582-1.572-3.582-3.924 0-2.344 1.353-3.978 3.438-3.978 1.62 0 3.329.998 3.329 3.821v.513h-5.933v-1.04h5.27l-.574.383c0-1.503-.711-2.583-2.092-2.583-1.381 0-2.194 1.141-2.194 2.385v.69c0 1.703.943 2.64 2.345 2.64.902 0 1.579-.397 1.866-1.177l1.189.329c-.355 1.155-1.497 1.941-3.062 1.941Zm6.405-.164-2.317-7.643h1.305l.93 3.336c.253.91.554 2.051.841 3.507h-.212c.273-1.394.561-2.536.827-3.507l.916-3.336h1.313l.902 3.336c.253.937.54 2.079.813 3.507h-.218a49.38 49.38 0 0 1 .847-3.507l.93-3.336h1.306L202.901 79h-1.223l-.991-3.459a71.977 71.977 0 0 1-.855-3.363h.273a69.91 69.91 0 0 1-.854 3.363L198.26 79h-1.224Zm16.687-7.643v1.053h-3.952v-1.053h3.952Zm-2.803-1.818h1.23v7.479c0 .683.253.984.903.984.157 0 .424-.041.629-.082l.253 1.039a2.964 2.964 0 0 1-.916.137c-1.32 0-2.099-.732-2.099-1.983V69.54Zm5.605 4.88V79h-1.23V68.814h1.23v4.396h-.212c.465-1.408 1.354-1.948 2.509-1.948 1.545 0 2.591.95 2.591 2.885V79h-1.237v-4.751c0-1.176-.656-1.88-1.723-1.88-1.1 0-1.928.745-1.928 2.05Zm10.268 4.745c-2.215 0-3.582-1.572-3.582-3.924 0-2.344 1.353-3.978 3.438-3.978 1.621 0 3.33.998 3.33 3.821v.513h-5.934v-1.04h5.27l-.574.383c0-1.503-.711-2.583-2.092-2.583-1.38 0-2.194 1.141-2.194 2.385v.69c0 1.703.943 2.64 2.345 2.64.902 0 1.579-.397 1.866-1.177l1.189.329c-.355 1.155-1.497 1.941-3.062 1.941ZM235.68 79v-7.643h1.196l.007 1.71h-.096c.308-1.238 1.244-1.846 2.235-1.846 1.108 0 1.812.752 2.017 1.86h-.164c.273-1.142 1.285-1.86 2.502-1.86 1.326 0 2.406.854 2.406 2.625V79h-1.237v-5.12c0-1.1-.718-1.538-1.538-1.538-1.032 0-1.661.704-1.661 1.668V79h-1.231v-5.243c0-.848-.636-1.415-1.497-1.415-.895 0-1.709.629-1.709 1.846V79h-1.23Zm14.403.178c-1.449 0-2.604-.848-2.604-2.352 0-1.75 1.558-2.071 2.973-2.249 1.36-.17 1.962-.13 1.962-.697v-.041c0-.95-.54-1.497-1.6-1.497-1.1 0-1.695.588-1.934 1.12l-1.183-.389c.588-1.387 1.901-1.811 3.083-1.811 1.026 0 2.865.314 2.865 2.7V79h-1.21v-1.04h-.082c-.26.541-.978 1.218-2.27 1.218Zm.212-1.087c1.36 0 2.119-.916 2.119-1.853v-1.06c-.205.24-1.545.377-2.017.438-.895.116-1.681.403-1.681 1.272 0 .793.663 1.203 1.579 1.203Zm5.51.909v-7.643h1.23V79h-1.23Zm.622-8.894c-.465 0-.855-.362-.855-.813 0-.451.39-.814.855-.814.471 0 .861.363.861.814 0 .451-.39.813-.861.813Zm3.999 4.314V79h-1.231v-7.643h1.183l.007 1.853h-.171c.465-1.408 1.353-1.948 2.509-1.948 1.545 0 2.59.95 2.59 2.885V79h-1.237v-4.751c0-1.176-.656-1.88-1.722-1.88-1.101 0-1.928.745-1.928 2.05Zm10.992 7.437v-10.5h1.189v1.224h.137c.253-.403.725-1.32 2.215-1.32 1.907 0 3.24 1.518 3.24 3.938 0 2.434-1.326 3.965-3.233 3.965-1.456 0-1.969-.923-2.222-1.347h-.096v4.04h-1.23Zm3.363-3.793c1.429 0 2.167-1.272 2.167-2.878 0-1.586-.718-2.824-2.167-2.824-1.408 0-2.146 1.135-2.146 2.824 0 1.702.759 2.877 2.146 2.877Zm8.32 1.1c-2.079 0-3.48-1.579-3.48-3.937 0-2.393 1.401-3.965 3.48-3.965 2.085 0 3.493 1.572 3.493 3.965 0 2.358-1.408 3.937-3.493 3.937Zm0-1.1c1.545 0 2.249-1.333 2.249-2.837 0-1.518-.704-2.865-2.249-2.865-1.525 0-2.229 1.34-2.229 2.865 0 1.504.704 2.837 2.229 2.837Zm5.284.936v-7.643h1.23V79h-1.23Zm.622-8.894c-.465 0-.855-.362-.855-.813 0-.451.39-.814.855-.814.472 0 .861.363.861.814 0 .451-.389.813-.861.813Zm3.999 4.314V79h-1.231v-7.643h1.183l.007 1.853h-.171c.465-1.408 1.353-1.948 2.509-1.948 1.545 0 2.591.95 2.591 2.885V79h-1.238v-4.751c0-1.176-.656-1.88-1.722-1.88-1.101 0-1.928.745-1.928 2.05Zm10.062-3.063v1.053h-3.951v-1.053h3.951Zm-2.802-1.818h1.23v7.479c0 .683.253.984.902.984.158 0 .424-.041.629-.082l.253 1.039a2.959 2.959 0 0 1-.916.137c-1.319 0-2.098-.732-2.098-1.983V69.54Zm6.836 9.625c-1.573 0-2.666-.697-2.94-2.017l1.169-.28c.219.841.841 1.217 1.757 1.217 1.066 0 1.75-.526 1.75-1.155 0-.527-.369-.875-1.121-1.053l-1.272-.3c-1.387-.329-2.05-1.012-2.05-2.086 0-1.312 1.203-2.228 2.83-2.228 1.572 0 2.399.765 2.748 1.839l-1.115.287c-.212-.547-.642-1.08-1.627-1.08-.909 0-1.592.471-1.592 1.107 0 .567.389.882 1.285 1.094l1.155.273c1.388.328 2.037 1.019 2.037 2.065 0 1.34-1.223 2.317-3.014 2.317Zm11.846 0c-2.078 0-3.479-1.579-3.479-3.937 0-2.393 1.401-3.965 3.479-3.965 2.085 0 3.493 1.572 3.493 3.965 0 2.358-1.408 3.937-3.493 3.937Zm0-1.1c1.545 0 2.249-1.333 2.249-2.837 0-1.518-.704-2.865-2.249-2.865-1.524 0-2.228 1.34-2.228 2.865 0 1.504.704 2.837 2.228 2.837Zm8.839-6.707v1.053h-4.498v-1.053h4.498ZM324.793 79v-8.661c0-1.326 1.06-2.003 2.174-2.003.581 0 .964.123 1.148.205l-.342 1.053c-.129-.041-.321-.116-.663-.116-.758 0-1.087.396-1.087 1.134V79h-1.23ZM18.796 99.055c-1.148 0-1.716-.643-1.716-1.75v-8.49h1.23v8.182c0 .704.124.957.636.957.267 0 .376-.02.492-.055l.247 1.04c-.22.061-.561.116-.89.116Zm5.147.11c-2.215 0-3.582-1.573-3.582-3.925 0-2.344 1.354-3.978 3.439-3.978 1.62 0 3.329.998 3.329 3.821v.513h-5.934v-1.04h5.27l-.573.383c0-1.503-.711-2.583-2.092-2.583-1.381 0-2.195 1.141-2.195 2.385v.69c0 1.703.944 2.64 2.345 2.64.902 0 1.58-.397 1.866-1.177l1.19.329c-.356 1.155-1.497 1.941-3.063 1.941Zm6.18-4.745V99h-1.23v-7.643h1.182l.007 1.853h-.17c.464-1.408 1.353-1.948 2.508-1.948 1.545 0 2.59.95 2.59 2.885V99h-1.237v-4.751c0-1.176-.656-1.88-1.722-1.88-1.1 0-1.928.745-1.928 2.05Zm10.151 7.601c-1.695 0-2.672-.717-3.144-1.558l.998-.643c.321.445.8 1.128 2.146 1.128 1.217 0 2.099-.56 2.099-1.818v-1.531h-.116c-.26.437-.745 1.278-2.222 1.278-1.832 0-3.226-1.333-3.226-3.733 0-2.365 1.346-3.882 3.254-3.882 1.476 0 1.968.909 2.228 1.32h.116v-1.225h1.197v7.841c0 1.976-1.47 2.823-3.33 2.823Zm-.034-4.238c1.388 0 2.147-.998 2.147-2.666 0-1.62-.739-2.755-2.147-2.755-1.456 0-2.18 1.23-2.18 2.755 0 1.572.745 2.666 2.18 2.666Zm8.532-6.426v1.053H44.82v-1.053h3.952Zm-2.803-1.818h1.23v7.479c0 .683.253.984.903.984.157 0 .423-.041.629-.082l.252 1.039a2.961 2.961 0 0 1-.916.137c-1.319 0-2.098-.732-2.098-1.983V89.54Zm5.605 4.88V99h-1.23V88.814h1.23v4.396h-.212c.465-1.408 1.354-1.948 2.51-1.948 1.544 0 2.59.95 2.59 2.885V99h-1.237v-4.751c0-1.176-.657-1.88-1.723-1.88-1.1 0-1.928.745-1.928 2.05Zm6.727 7.35.314-1.067.13.034c.752.199 1.292.035 1.668-1.06l.219-.635-2.92-7.684h1.348l1.627 4.533c.341.95.546 1.886.813 2.761h-.451c.26-.875.471-1.818.813-2.761l1.64-4.533h1.34l-3.356 8.785c-.464 1.216-1.203 1.77-2.283 1.77-.437 0-.772-.082-.902-.143Zm14.8-2.605c-1.908 0-3.234-1.531-3.234-3.965 0-2.42 1.333-3.937 3.24-3.937 1.49 0 1.962.916 2.215 1.32h.096v-3.767h1.23V99H75.46v-1.183h-.137c-.253.424-.765 1.347-2.221 1.347Zm.184-1.1c1.388 0 2.147-1.176 2.147-2.878 0-1.689-.739-2.824-2.147-2.824-1.45 0-2.167 1.238-2.167 2.824 0 1.606.738 2.877 2.167 2.877ZM78.81 99v-7.643h1.23V99h-1.23Zm.622-8.894c-.465 0-.855-.362-.855-.813 0-.451.39-.814.855-.814.471 0 .861.363.861.814 0 .451-.39.813-.861.813Zm5.366 9.058c-1.572 0-2.666-.697-2.94-2.017l1.17-.28c.218.841.84 1.217 1.756 1.217 1.067 0 1.75-.526 1.75-1.155 0-.527-.369-.875-1.12-1.053l-1.272-.3c-1.388-.329-2.051-1.012-2.051-2.086 0-1.312 1.203-2.228 2.83-2.228 1.572 0 2.4.765 2.748 1.839l-1.114.287c-.212-.547-.643-1.08-1.627-1.08-.91 0-1.593.471-1.593 1.107 0 .567.39.882 1.285 1.094l1.155.273c1.388.328 2.037 1.019 2.037 2.065 0 1.34-1.223 2.317-3.014 2.317Zm7.91 0c-2.08 0-3.48-1.579-3.48-3.937 0-2.393 1.4-3.965 3.48-3.965 1.476 0 2.679.779 3.096 2.112l-1.183.335c-.226-.786-.91-1.347-1.914-1.347-1.524 0-2.228 1.34-2.228 2.865 0 1.504.704 2.837 2.228 2.837 1.025 0 1.723-.582 1.948-1.409l1.176.335c-.41 1.36-1.627 2.174-3.124 2.174Zm7.478-.068c-1.545 0-2.591-.95-2.591-2.885v-4.854h1.23v4.751c0 1.176.663 1.88 1.73 1.88 1.093 0 1.921-.745 1.921-2.05v-4.58h1.237V99h-1.19v-1.853h.165c-.472 1.436-1.381 1.949-2.502 1.949Zm8.292.068c-1.573 0-2.666-.697-2.94-2.017l1.169-.28c.219.841.841 1.217 1.757 1.217 1.066 0 1.75-.526 1.75-1.155 0-.527-.369-.875-1.121-1.053l-1.272-.3c-1.387-.329-2.05-1.012-2.05-2.086 0-1.312 1.203-2.228 2.83-2.228 1.572 0 2.399.765 2.748 1.839l-1.115.287c-.212-.547-.642-1.08-1.627-1.08-.909 0-1.592.471-1.592 1.107 0 .567.389.882 1.285 1.094l1.155.273c1.388.328 2.037 1.019 2.037 2.065 0 1.34-1.223 2.317-3.014 2.317Zm7.396 0c-1.572 0-2.666-.697-2.939-2.017l1.169-.28c.218.841.84 1.217 1.756 1.217 1.067 0 1.75-.526 1.75-1.155 0-.527-.369-.875-1.121-1.053l-1.271-.3c-1.388-.329-2.051-1.012-2.051-2.086 0-1.312 1.203-2.228 2.83-2.228 1.572 0 2.4.765 2.748 1.839l-1.114.287c-.212-.547-.643-1.08-1.627-1.08-.909 0-1.593.471-1.593 1.107 0 .567.39.882 1.285 1.094l1.156.273c1.387.328 2.037 1.019 2.037 2.065 0 1.34-1.224 2.317-3.015 2.317Zm4.799-.164v-7.643h1.23V99h-1.23Zm.622-8.894c-.465 0-.855-.362-.855-.813 0-.451.39-.814.855-.814.472 0 .861.363.861.814 0 .451-.389.813-.861.813Zm5.879 9.058c-2.078 0-3.48-1.579-3.48-3.937 0-2.393 1.402-3.965 3.48-3.965 2.085 0 3.493 1.572 3.493 3.965 0 2.358-1.408 3.937-3.493 3.937Zm0-1.1c1.545 0 2.249-1.333 2.249-2.837 0-1.518-.704-2.865-2.249-2.865-1.525 0-2.229 1.34-2.229 2.865 0 1.504.704 2.837 2.229 2.837Zm6.515-3.644V99h-1.231v-7.643h1.183l.006 1.853h-.17c.464-1.408 1.353-1.948 2.508-1.948 1.545 0 2.591.95 2.591 2.885V99h-1.237v-4.751c0-1.176-.656-1.88-1.723-1.88-1.1 0-1.927.745-1.927 2.05Zm9.652 4.744c-1.572 0-2.666-.697-2.94-2.017l1.169-.28c.219.841.841 1.217 1.757 1.217 1.067 0 1.75-.526 1.75-1.155 0-.527-.369-.875-1.121-1.053l-1.271-.3c-1.388-.329-2.051-1.012-2.051-2.086 0-1.312 1.203-2.228 2.83-2.228 1.572 0 2.399.765 2.748 1.839l-1.114.287c-.212-.547-.643-1.08-1.627-1.08-.909 0-1.593.471-1.593 1.107 0 .567.39.882 1.285 1.094l1.155.273c1.388.328 2.037 1.019 2.037 2.065 0 1.34-1.223 2.317-3.014 2.317Zm5.728-.075a.92.92 0 1 1 .923-.923.923.923 0 0 1-.923.923Z" fill="#28272D"/><rect x="16.5" y="112.5" width="191" height="31" rx="3.5" fill="#fff"/><rect x="16.5" y="112.5" width="191" height="31" rx="3.5" stroke="#BFBFC3"/><g clip-path="url(#a)"><g clip-path="url(#b)"><path fill-rule="evenodd" clip-rule="evenodd" d="M30.75 120.75a.75.75 0 0 0-1.5 0v.5h-.5a.75.75 0 0 0 0 1.5h.5v.5a.75.75 0 0 0 1.5 0v-.5h.5a.75.75 0 0 0 0-1.5h-.5v-.5Zm11.645 6.118-.014-.038-.55-1.44-.172.529-.337 1.036h-6.644l-.336-1.036-.172-.528-.551 1.445-.004.01-.004.01-.012.03a1.56 1.56 0 0 0-.039.974c.092.323.286.605.55.806l.002.001.003.003.01.008.01.008.004.002 2.474 1.862.005.004 1.232.935.148.112.146-.112 1.233-.935.006-.004 2.49-1.873.006-.004.009-.006a1.557 1.557 0 0 0 .51-1.79l-.003-.009Zm.391 3-2.502 1.881-1.233.935-.748.569a.508.508 0 0 1-.61 0l-.75-.569-1.232-.935-2.485-1.87-.014-.011-.006-.005a3.056 3.056 0 0 1-1.006-3.519l.017-.043 1.214-3.181.068-.178.043-.114.173-.453.017-.045.118-.308a.43.43 0 0 1 .816.044l.099.305.004.013.193.594.06.181.746 2.296h4.464l.747-2.296.06-.181.193-.594.004-.013.099-.305a.434.434 0 0 1 .46-.314.437.437 0 0 1 .356.27l.116.305.019.048.171.449.045.118.068.177 1.214 3.181.016.044a3.056 3.056 0 0 1-1.007 3.518l-.007.006ZM31.5 131a.75.75 0 0 1 .75.75v1h1a.75.75 0 0 1 0 1.5h-1v1a.75.75 0 0 1-1.5 0v-1h-1a.75.75 0 0 1 0-1.5h1v-1a.75.75 0 0 1 .75-.75Z" fill="#737278"/></g></g><path d="M52.491 133.178c-2.208 0-3.582-1.135-3.698-2.844h1.333c.102 1.155 1.169 1.682 2.365 1.682 1.381 0 2.434-.725 2.434-1.812 0-.984-.93-1.347-2.017-1.654l-1.23-.349c-1.64-.465-2.598-1.305-2.598-2.659 0-1.723 1.531-2.864 3.5-2.864 2.01 0 3.411 1.169 3.473 2.707H54.78c-.116-.991-1.032-1.559-2.242-1.559-1.32 0-2.194.697-2.194 1.654 0 1.067 1.196 1.443 1.941 1.648l1.019.28c1.093.301 2.885.916 2.885 2.817 0 1.668-1.347 2.953-3.699 2.953Zm8.162-.082c-1.545 0-2.59-.95-2.59-2.885v-4.854h1.23v4.751c0 1.176.663 1.88 1.73 1.88 1.093 0 1.92-.745 1.92-2.05v-4.581h1.238V133h-1.19v-1.853h.164c-.471 1.436-1.38 1.949-2.502 1.949Zm5.695-.096v-7.643h1.196l.007 1.709h-.096c.308-1.237 1.244-1.845 2.235-1.845 1.108 0 1.812.752 2.017 1.859h-.164c.273-1.142 1.285-1.859 2.502-1.859 1.326 0 2.406.854 2.406 2.625V133h-1.237v-5.12c0-1.101-.718-1.538-1.538-1.538-1.032 0-1.661.704-1.661 1.668V133h-1.23v-5.243c0-.848-.637-1.415-1.498-1.415-.895 0-1.709.629-1.709 1.846V133h-1.23Zm12.263 0v-7.643h1.197l.006 1.709h-.095c.307-1.237 1.244-1.845 2.235-1.845 1.108 0 1.812.752 2.017 1.859h-.164c.273-1.142 1.285-1.859 2.502-1.859 1.326 0 2.406.854 2.406 2.625V133h-1.237v-5.12c0-1.101-.718-1.538-1.538-1.538-1.033 0-1.662.704-1.662 1.668V133h-1.23v-5.243c0-.848-.636-1.415-1.497-1.415-.896 0-1.71.629-1.71 1.846V133h-1.23Zm14.404.178c-1.45 0-2.605-.848-2.605-2.352 0-1.75 1.559-2.071 2.974-2.249 1.36-.171 1.962-.13 1.962-.697v-.041c0-.95-.54-1.497-1.6-1.497-1.1 0-1.695.588-1.934 1.121l-1.183-.39c.588-1.387 1.9-1.811 3.083-1.811 1.025 0 2.864.314 2.864 2.7V133h-1.21v-1.039h-.082c-.26.54-.977 1.217-2.27 1.217Zm.212-1.087c1.36 0 2.119-.916 2.119-1.853v-1.059c-.205.239-1.545.376-2.017.437-.895.116-1.681.404-1.681 1.272 0 .793.663 1.203 1.579 1.203Zm5.51.909v-7.643h1.189v1.176h.082c.28-.772 1.073-1.285 1.982-1.285.178 0 .479.014.622.021v1.237a4.619 4.619 0 0 0-.738-.068c-1.101 0-1.907.745-1.907 1.777V133h-1.23Zm5.495 0v-7.643h1.231V133h-1.231Zm.622-8.894c-.464 0-.854-.362-.854-.813 0-.451.39-.814.854-.814.472 0 .862.363.862.814 0 .451-.39.813-.862.813Zm2.55 8.894v-.916l4.286-5.51v-.075h-4.149v-1.142h5.735v.978l-4.163 5.448v.075h4.3V133h-6.009Zm10.965.164c-2.215 0-3.582-1.572-3.582-3.924 0-2.344 1.354-3.978 3.439-3.978 1.62 0 3.329.998 3.329 3.821v.513h-5.934v-1.039h5.271l-.575.382c0-1.503-.711-2.584-2.091-2.584-1.381 0-2.195 1.142-2.195 2.386v.691c0 1.702.944 2.638 2.345 2.638.902 0 1.579-.396 1.866-1.175l1.19.328c-.356 1.155-1.497 1.941-3.063 1.941Zm11.997 0c-2.078 0-3.479-1.579-3.479-3.937 0-2.393 1.401-3.965 3.479-3.965 1.477 0 2.68.779 3.097 2.112l-1.183.335c-.225-.786-.909-1.347-1.914-1.347-1.524 0-2.228 1.34-2.228 2.865 0 1.503.704 2.836 2.228 2.836 1.026 0 1.723-.581 1.948-1.408l1.176.335c-.41 1.361-1.627 2.174-3.124 2.174Zm7.998 0c-2.078 0-3.479-1.579-3.479-3.937 0-2.393 1.401-3.965 3.479-3.965 2.085 0 3.493 1.572 3.493 3.965 0 2.358-1.408 3.937-3.493 3.937Zm0-1.101c1.545 0 2.249-1.333 2.249-2.836 0-1.518-.704-2.865-2.249-2.865-1.524 0-2.228 1.34-2.228 2.865 0 1.503.704 2.836 2.228 2.836Zm5.284.937v-7.643h1.197l.007 1.709h-.096c.307-1.237 1.244-1.845 2.235-1.845 1.108 0 1.812.752 2.017 1.859h-.164c.273-1.142 1.285-1.859 2.502-1.859 1.326 0 2.406.854 2.406 2.625V133h-1.237v-5.12c0-1.101-.718-1.538-1.538-1.538-1.033 0-1.662.704-1.662 1.668V133h-1.23v-5.243c0-.848-.636-1.415-1.497-1.415-.896 0-1.709.629-1.709 1.846V133h-1.231Zm12.264 0v-7.643h1.196l.007 1.709h-.095c.307-1.237 1.244-1.845 2.235-1.845 1.107 0 1.811.752 2.016 1.859h-.164c.274-1.142 1.286-1.859 2.502-1.859 1.327 0 2.407.854 2.407 2.625V133h-1.238v-5.12c0-1.101-.717-1.538-1.538-1.538-1.032 0-1.661.704-1.661 1.668V133h-1.23v-5.243c0-.848-.636-1.415-1.497-1.415-.896 0-1.709.629-1.709 1.846V133h-1.231Zm15.477.164c-2.215 0-3.582-1.572-3.582-3.924 0-2.344 1.353-3.978 3.438-3.978 1.62 0 3.329.998 3.329 3.821v.513h-5.933v-1.039h5.27l-.574.382c0-1.503-.711-2.584-2.092-2.584-1.381 0-2.194 1.142-2.194 2.386v.691c0 1.702.943 2.638 2.345 2.638.902 0 1.579-.396 1.866-1.175l1.189.328c-.355 1.155-1.497 1.941-3.062 1.941Zm6.179-4.744V133h-1.23v-7.643h1.183l.006 1.853h-.171c.465-1.408 1.354-1.948 2.509-1.948 1.545 0 2.591.95 2.591 2.884V133h-1.237v-4.751c0-1.176-.657-1.88-1.723-1.88-1.1 0-1.928.745-1.928 2.051Zm10.063-3.063v1.053h-3.951v-1.053h3.951Zm-2.803-1.818h1.231v7.479c0 .683.253.984.902.984.157 0 .424-.041.629-.082l.253 1.039a2.96 2.96 0 0 1-.916.137c-1.32 0-2.099-.732-2.099-1.983v-7.574Zm6.836 9.625c-1.572 0-2.666-.697-2.939-2.017l1.169-.28c.218.841.84 1.217 1.756 1.217 1.067 0 1.75-.526 1.75-1.155 0-.527-.369-.875-1.121-1.053l-1.271-.301c-1.388-.328-2.051-1.012-2.051-2.085 0-1.312 1.203-2.228 2.83-2.228 1.572 0 2.4.765 2.748 1.839l-1.114.287c-.212-.547-.643-1.08-1.627-1.08-.909 0-1.593.471-1.593 1.107 0 .567.39.882 1.285 1.094l1.156.273c1.387.328 2.037 1.019 2.037 2.065 0 1.34-1.224 2.317-3.015 2.317Z" fill="#303030"/><defs><clipPath id="a"><path fill="#fff" transform="translate(24 120)" d="M0 0h20v16H0z"/></clipPath><clipPath id="b"><path fill="#fff" transform="translate(28 120)" d="M0 0h16v16H0z"/></clipPath></defs></svg>