<svg width="270" height="351" fill="none" xmlns="http://www.w3.org/2000/svg"><path fill="#fff" stroke="#A4A3A8" stroke-width="2" d="M37 32h210v318H37z"/><path d="M36 97h211" stroke="#A4A3A8"/><rect x="50" y="109" width="158" height="8" rx="2" fill="#89888D"/><rect x="50" y="121" width="165" height="8" rx="2" fill="#89888D"/><rect x="50" y="133" width="146" height="8" rx="2" fill="#89888D"/><rect x="50" y="157" width="54" height="18" rx="3" fill="#1F75CB"/><rect x="109" y="158" width="52" height="16" rx="2" fill="#fff"/><rect x="109" y="158" width="52" height="16" rx="2" stroke="#A4A3A8" stroke-width="2"/><rect x="53" y="68" width="52" height="16" rx="2" fill="#fff"/><rect x="53" y="68" width="52" height="16" rx="2" stroke="#A4A3A8" stroke-width="2"/><path d="M231.625 47.375c-.501-.5-1.312-.5-1.813 0L228 49.188l-1.812-1.813a1.282 1.282 0 0 0-1.813 1.813L226.188 51l-1.813 1.812a1.282 1.282 0 0 0 1.813 1.813L228 52.812l1.812 1.813a1.282 1.282 0 0 0 1.813-1.813L229.812 51l1.813-1.812c.5-.5.5-1.312 0-1.813Z" fill="#737278"/><rect x="52" y="47" width="94" height="8" rx="2" fill="#535158"/><circle cx="106" cy="191" r="16" fill="#7B58CF"/><circle cx="106" cy="191" r="18" stroke="#7B58CF" stroke-opacity=".3" stroke-width="4"/><path d="m104.024 197 4.68-11.664H103.7v2.124h-1.62v-3.6h8.352v1.512L105.788 197h-1.764Z" fill="#fff"/><circle cx="34" cy="125" r="16" fill="#7B58CF"/><circle cx="34" cy="125" r="18" stroke="#7B58CF" stroke-opacity=".3" stroke-width="4"/><path d="M34.022 131.18c-.84 0-1.584-.174-2.232-.522a3.922 3.922 0 0 1-1.494-1.476c-.36-.636-.54-1.368-.54-2.196 0-.576.107-1.164.323-1.764.216-.612.51-1.248.883-1.908l3.042-5.454h1.8l-3.24 5.634.053.036c.157-.204.39-.36.703-.468a3.118 3.118 0 0 1 1.026-.162c.78 0 1.458.174 2.034.522a3.501 3.501 0 0 1 1.367 1.404c.337.6.505 1.296.505 2.088 0 .84-.18 1.584-.54 2.232a3.885 3.885 0 0 1-1.495 1.494c-.623.36-1.355.54-2.195.54Zm-.018-1.44c.528 0 .983-.114 1.367-.342.396-.24.703-.57.918-.99.228-.42.343-.906.343-1.458 0-.552-.114-1.038-.343-1.458a2.317 2.317 0 0 0-.918-.972c-.384-.24-.84-.36-1.367-.36-.517 0-.972.12-1.368.36a2.435 2.435 0 0 0-.937.972c-.216.42-.324.906-.324 1.458 0 .552.108 1.038.325 1.458.227.42.54.75.936.99.395.228.851.342 1.367.342Z" fill="#fff"/><circle cx="122" cy="76" r="16" fill="#7B58CF"/><circle cx="122" cy="76" r="18" stroke="#7B58CF" stroke-opacity=".3" stroke-width="4"/><path d="M121.896 82.18c-1.212 0-2.172-.336-2.88-1.008-.708-.684-1.062-1.608-1.062-2.772h1.62c0 .72.21 1.29.63 1.71.42.42.99.63 1.71.63s1.29-.21 1.71-.63c.42-.42.63-.99.63-1.71v-.81c0-.72-.204-1.29-.612-1.71-.408-.42-.96-.63-1.656-.63h-3.582v-6.39h7.002v1.476h-5.49l.036 3.438h2.124c1.212 0 2.148.336 2.808 1.008.66.66.99 1.596.99 2.808v.81c0 1.164-.36 2.088-1.08 2.772-.708.672-1.674 1.008-2.898 1.008Z" fill="#fff"/><circle cx="250" cy="51" r="16" fill="#7B58CF"/><circle cx="250" cy="51" r="18" stroke="#7B58CF" stroke-opacity=".3" stroke-width="4"/><path d="M251.804 57v-2.88h-5.94v-2.538l4.788-7.722h1.836l-5.004 8.082v.702h4.32V49.44h1.62V57h-1.62Z" fill="#fff"/><circle cx="162" cy="51" r="16" fill="#7B58CF"/><circle cx="162" cy="51" r="18" stroke="#7B58CF" stroke-opacity=".3" stroke-width="4"/><path d="M161.806 57.18c-1.212 0-2.172-.336-2.88-1.008-.708-.684-1.062-1.608-1.062-2.772h1.62c0 .72.21 1.29.63 1.71.42.42.99.63 1.71.63s1.29-.21 1.71-.63c.42-.42.63-.99.63-1.71v-.9c0-.72-.21-1.29-.63-1.71-.42-.42-.99-.63-1.71-.63h-1.422v-1.404l3.222-3.42h-5.4V43.86h7.236v1.512l-3.6 3.834v-.486c1.212 0 2.166.342 2.862 1.026.708.672 1.062 1.59 1.062 2.754v.9c0 1.164-.36 2.088-1.08 2.772-.708.672-1.674 1.008-2.898 1.008Z" fill="#fff"/><circle cx="20" cy="61" r="16" fill="#7B58CF"/><circle cx="20" cy="61" r="18" stroke="#7B58CF" stroke-opacity=".3" stroke-width="4"/><path d="M16.151 67v-1.494l4.375-4.68c.636-.672 1.085-1.272 1.35-1.8.264-.528.395-1.044.395-1.548 0-.72-.21-1.29-.63-1.71-.407-.432-.965-.648-1.673-.648-.733 0-1.314.222-1.747.666-.42.432-.63 1.02-.63 1.764h-1.62c.024-.792.204-1.476.54-2.052a3.41 3.41 0 0 1 1.387-1.35c.587-.312 1.277-.468 2.07-.468.816 0 1.517.156 2.105.468a3.325 3.325 0 0 1 1.369 1.332c.323.564.485 1.236.485 2.016 0 .624-.174 1.284-.521 1.98-.336.696-.918 1.476-1.746 2.34l-3.547 3.708h5.977V67h-7.94Z" fill="#fff"/><circle cx="25" cy="20" r="16" fill="#7B58CF"/><circle cx="25" cy="20" r="18" stroke="#7B58CF" stroke-opacity=".3" stroke-width="4"/><path d="M21.224 26v-1.476h3.564v-10.26l-3.564 2.664v-1.854l2.97-2.214h2.213v11.664h2.916V26h-8.1Z" fill="#fff"/></svg>