<svg xmlns="http://www.w3.org/2000/svg" width="273" height="348" fill="none"><path fill="#fff" stroke="#999" stroke-width="2" d="M31 29h210v318H31z"/><path stroke="#BCBCBC" d="M30 87h211"/><rect width="165" height="6" x="44" y="101" fill="#BFBFBF" rx="2"/><rect width="171" height="6" x="44" y="111" fill="#BFBFBF" rx="2"/><rect width="161" height="6" x="44" y="121" fill="#BFBFBF" rx="2"/><rect width="63" height="16" x="45" y="58" stroke="#999" stroke-width="2" rx="2"/><rect width="63" height="16" x="166" y="319" fill="#1F75CB" stroke="#1F75CB" stroke-width="2" rx="2"/><rect width="63" height="16" x="95" y="319" stroke="#999" stroke-width="2" rx="2"/><path fill="#666" d="M229.625 42.375c-.501-.5-1.312-.5-1.813 0L226 44.188l-1.812-1.813a1.282 1.282 0 0 0-1.813 1.813L224.188 46l-1.813 1.812a1.282 1.282 0 0 0 1.813 1.813L226 47.812l1.812 1.813a1.282 1.282 0 0 0 1.813-1.813L227.812 46l1.813-1.812c.5-.5.5-1.312 0-1.813Z"/><rect width="94" height="8" x="44" y="42" fill="#666" rx="2"/><circle cx="136" cy="130" r="16" fill="#7B58CF"/><circle cx="136" cy="130" r="18" stroke="#7B58CF" stroke-opacity=".3" stroke-width="4"/><path fill="#fff" d="M139.287 123.168v1.635a4.708 4.708 0 0 0-1.178-.492 4.739 4.739 0 0 0-1.3-.176c-1.125 0-1.978.425-2.558 1.274-.58.844-.87 2.089-.87 3.736.281-.586.671-1.035 1.169-1.345.498-.317 1.069-.475 1.714-.475 1.265 0 2.244.39 2.935 1.169.697.774 1.046 1.872 1.046 3.296 0 1.418-.357 2.517-1.072 3.296-.715.779-1.72 1.169-3.015 1.169-1.523 0-2.639-.545-3.348-1.635-.709-1.096-1.064-2.818-1.064-5.168 0-2.215.425-3.902 1.275-5.062.855-1.166 2.091-1.749 3.708-1.749.434 0 .868.047 1.301.14.434.088.853.217 1.257.387Zm-3.164 5.546c-.756 0-1.351.272-1.784.817-.434.545-.651 1.298-.651 2.259 0 .961.217 1.714.651 2.259.433.545 1.028.817 1.784.817.785 0 1.377-.258 1.775-.773.399-.522.598-1.289.598-2.303 0-1.019-.199-1.787-.598-2.303-.398-.515-.99-.773-1.775-.773Z"/><circle cx="246" cy="311" r="16" fill="#7B58CF"/><circle cx="246" cy="311" r="18" stroke="#7B58CF" stroke-opacity=".3" stroke-width="4"/><path fill="#fff" d="M241.799 303.878h8.262v.756L245.367 317h-1.854l4.57-11.628h-6.284v-1.494Z"/><circle cx="76" cy="80" r="16" fill="#7B58CF"/><circle cx="76" cy="80" r="18" stroke="#7B58CF" stroke-opacity=".3" stroke-width="4"/><path fill="#fff" d="M72.397 72.878h6.644v1.494h-5.027v3.226a4.01 4.01 0 0 1 .755-.203c.258-.046.516-.07.774-.07 1.36 0 2.438.402 3.234 1.204.797.803 1.196 1.89 1.196 3.261 0 1.383-.42 2.473-1.257 3.27-.832.796-1.972 1.195-3.42 1.195-.696 0-1.335-.047-1.915-.14a7.078 7.078 0 0 1-1.547-.423v-1.801a7.457 7.457 0 0 0 1.626.659c.545.14 1.102.21 1.67.21.978 0 1.731-.257 2.259-.773.533-.515.8-1.248.8-2.197 0-.938-.276-1.667-.827-2.188-.545-.522-1.306-.783-2.285-.783-.474 0-.937.056-1.388.167a5.369 5.369 0 0 0-1.292.484v-6.592Z"/><circle cx="253" cy="46" r="16" fill="#7B58CF"/><circle cx="253" cy="46" r="18" stroke="#7B58CF" stroke-opacity=".3" stroke-width="4"/><path fill="#fff" d="m254.037 40.495-4.14 6.935h4.14v-6.935Zm-.29-1.617h2.057v8.552h1.749v1.441h-1.749V52h-1.767v-3.129h-5.563v-1.679l5.273-8.314Z"/><circle cx="91" cy="36" r="16" fill="#7B58CF"/><circle cx="91" cy="36" r="18" stroke="#7B58CF" stroke-opacity=".3" stroke-width="4"/><path fill="#fff" d="M92.397 34.977c.862.23 1.521.636 1.978 1.222.457.58.686 1.307.686 2.18 0 1.207-.408 2.156-1.222 2.848-.809.685-1.93 1.028-3.366 1.028-.604 0-1.22-.056-1.846-.167a11.884 11.884 0 0 1-1.846-.483v-1.767a8.55 8.55 0 0 0 1.767.694 6.79 6.79 0 0 0 1.731.229c.973 0 1.72-.22 2.242-.66.521-.439.782-1.072.782-1.898 0-.762-.261-1.365-.782-1.81-.522-.452-1.228-.677-2.119-.677H89.05v-1.46h1.353c.815 0 1.45-.178 1.908-.535.457-.358.685-.856.685-1.494 0-.674-.214-1.19-.642-1.547-.421-.364-1.025-.545-1.81-.545a7.85 7.85 0 0 0-1.617.175 11.47 11.47 0 0 0-1.75.528v-1.635a21.833 21.833 0 0 1 1.89-.422 9.018 9.018 0 0 1 1.477-.14c1.277 0 2.297.322 3.059.966.767.64 1.15 1.489 1.15 2.55 0 .72-.201 1.32-.605 1.801-.399.48-.982.82-1.75 1.02Z"/><circle cx="20" cy="57" r="16" fill="#7B58CF"/><circle cx="20" cy="57" r="18" stroke="#7B58CF" stroke-opacity=".3" stroke-width="4"/><path fill="#fff" d="M17.855 61.506h6.03V63h-7.972v-1.494a363.318 363.318 0 0 0 2.874-3.059 73.424 73.424 0 0 0 1.696-1.872c.586-.715.982-1.292 1.187-1.731.205-.446.307-.9.307-1.363 0-.732-.216-1.306-.65-1.722-.428-.416-1.017-.624-1.767-.624-.533 0-1.092.096-1.678.29a9.421 9.421 0 0 0-1.863.879V50.51a9.622 9.622 0 0 1 1.775-.65 7.12 7.12 0 0 1 1.731-.22c1.284 0 2.315.342 3.094 1.028.785.68 1.178 1.573 1.178 2.68 0 .563-.132 1.126-.396 1.688-.257.563-.68 1.184-1.265 1.863-.328.381-.806.909-1.433 1.582-.621.674-1.57 1.682-2.848 3.024Z"/><circle cx="20" cy="20" r="16" fill="#7B58CF"/><circle cx="20" cy="20" r="18" stroke="#7B58CF" stroke-opacity=".3" stroke-width="4"/><path fill="#fff" d="M16.95 24.515h2.76V14.6l-3.305 1.59v-1.705l3.287-1.564h1.776v11.593h2.724V26H16.95v-1.485Z"/></svg>
