<svg fill="none" height="348" viewBox="0 0 273 348" width="273" xmlns="http://www.w3.org/2000/svg"><path d="m31 29h210v318h-210z" fill="#fff" stroke="#999" stroke-width="2"/><path d="m30 87h211" stroke="#bcbcbc"/><g fill="#bfbfbf"><rect height="6" rx="2" width="165" x="44" y="101"/><rect height="6" rx="2" width="171" x="44" y="111"/><rect height="6" rx="2" width="161" x="44" y="121"/></g><rect height="16" rx="2" stroke="#999" stroke-width="2" width="63" x="45" y="58"/><path d="m229.625 42.3753c-.501-.5004-1.312-.5004-1.813 0l-1.812 1.8124-1.812-1.8124c-.501-.5004-1.312-.5004-1.813 0-.5.5005-.5 1.3119 0 1.8124l1.813 1.8123-1.813 1.8123c-.5.5005-.5 1.3119 0 1.8123.501.5005 1.312.5005 1.813 0l1.812-1.8123 1.812 1.8123c.501.5005 1.312.5005 1.813 0 .5-.5004.5-1.3118 0-1.8123l-1.813-1.8123 1.813-1.8123c.5-.5005.5-1.3119 0-1.8124z" fill="#666"/><rect fill="#666" height="8" rx="2" width="94" x="44" y="42"/><circle cx="136" cy="130" fill="#7b58cf" r="16"/><circle cx="136" cy="130" r="18" stroke="#7b58cf" stroke-opacity=".3" stroke-width="4"/><path d="m139.287 123.168v1.635c-.369-.217-.762-.381-1.178-.492-.416-.118-.849-.176-1.3-.176-1.125 0-1.978.425-2.558 1.274-.58.844-.87 2.089-.87 3.736.281-.586.671-1.035 1.169-1.345.498-.317 1.069-.475 1.714-.475 1.265 0 2.244.39 2.935 1.169.697.774 1.046 1.872 1.046 3.296 0 1.418-.357 2.517-1.072 3.296s-1.72 1.169-3.015 1.169c-1.523 0-2.639-.545-3.348-1.635-.709-1.096-1.064-2.818-1.064-5.168 0-2.215.425-3.902 1.275-5.062.855-1.166 2.091-1.749 3.708-1.749.434 0 .868.047 1.301.14.434.088.853.217 1.257.387zm-3.164 5.546c-.756 0-1.351.272-1.784.817-.434.545-.651 1.298-.651 2.259s.217 1.714.651 2.259c.433.545 1.028.817 1.784.817.785 0 1.377-.258 1.775-.773.399-.522.598-1.289.598-2.303 0-1.019-.199-1.787-.598-2.303-.398-.515-.99-.773-1.775-.773z" fill="#fff"/><circle cx="76" cy="80" fill="#7b58cf" r="16"/><circle cx="76" cy="80" r="18" stroke="#7b58cf" stroke-opacity=".3" stroke-width="4"/><path d="m72.3965 72.8779h6.6445v1.4942h-5.0273v3.2256c.2519-.0938.5039-.1612.7558-.2022.2578-.0469.5157-.0703.7735-.0703 1.3593 0 2.4375.4014 3.2343 1.2041.7969.8027 1.1954 1.8896 1.1954 3.2607 0 1.3829-.419 2.4727-1.2569 3.2696-.832.7968-1.9717 1.1953-3.4189 1.1953-.6973 0-1.336-.0469-1.916-.1406-.5743-.0938-1.0899-.2344-1.5469-.4219v-1.8018c.539.293 1.081.5127 1.626.6592.5449.1406 1.1015.2109 1.6699.2109.9785 0 1.7314-.2578 2.2588-.7734.5332-.5156.7998-1.248.7998-2.1973 0-.9375-.2754-1.667-.8262-2.1884-.5449-.5215-1.3066-.7823-2.2852-.7823-.4746 0-.9375.0557-1.3886.167-.4512.1055-.8819.2666-1.292.4834z" fill="#fff"/><circle cx="253" cy="46" fill="#7b58cf" r="16"/><circle cx="253" cy="46" r="18" stroke="#7b58cf" stroke-opacity=".3" stroke-width="4"/><path d="m254.037 40.4951-4.14 6.9346h4.14zm-.29-1.6172h2.057v8.5518h1.749v1.4414h-1.749v3.1289h-1.767v-3.1289h-5.563v-1.6787z" fill="#fff"/><circle cx="91" cy="36" fill="#7b58cf" r="16"/><circle cx="91" cy="36" r="18" stroke="#7b58cf" stroke-opacity=".3" stroke-width="4"/><path d="m92.3975 34.9775c.8613.2286 1.5205.6358 1.9775 1.2217.457.5801.6855 1.3067.6855 2.1797 0 1.207-.4072 2.1563-1.2216 2.8477-.8086.6855-1.9307 1.0283-3.3662 1.0283-.6036 0-1.2188-.0557-1.8457-.167-.627-.1113-1.2422-.2725-1.8458-.4834v-1.7666c.5977.3105 1.1866.542 1.7667.6943.58.1524 1.1572.2285 1.7314.2285.9727 0 1.7197-.2197 2.2412-.6591.5215-.4395.7822-1.0723.7822-1.8985 0-.7617-.2607-1.3652-.7822-1.8105-.5215-.4512-1.2275-.6768-2.1182-.6768h-1.3535v-1.459h1.3535c.8145 0 1.4502-.1787 1.9073-.5361.457-.3574.6855-.8555.6855-1.4941 0-.6739-.2139-1.1895-.6416-1.5469-.4219-.3633-1.0254-.5449-1.8105-.5449-.5215 0-1.0606.0586-1.6172.1757-.5567.1172-1.1397.293-1.749.5274v-1.6348c.7089-.1875 1.3388-.3281 1.8896-.4219.5566-.0937 1.0488-.1406 1.4766-.1406 1.2773 0 2.2968.3223 3.0586.9668.7675.6387 1.1513 1.4883 1.1513 2.5488 0 .7208-.2021 1.3213-.6064 1.8018-.3985.4805-.9815.8203-1.749 1.0195z" fill="#fff"/><circle cx="20" cy="57" fill="#7b58cf" r="16"/><circle cx="20" cy="57" r="18" stroke="#7b58cf" stroke-opacity=".3" stroke-width="4"/><path d="m17.8555 61.5059h6.0293v1.4941h-7.9717v-1.4941c1.0957-1.1543 2.0537-2.1739 2.874-3.0586.8203-.8848 1.3858-1.5088 1.6963-1.8721.5859-.7148.9814-1.292 1.1865-1.7314.2051-.4454.3076-.8995.3076-1.3624 0-.7324-.2168-1.3066-.6504-1.7226-.4277-.416-1.0166-.624-1.7666-.624-.5332 0-1.0927.0966-1.6787.29-.5859.1934-1.207.4863-1.8632.8789v-1.793c.6035-.2871 1.1953-.5039 1.7753-.6503.586-.1465 1.1631-.2198 1.7315-.2198 1.2832 0 2.3144.3428 3.0937 1.0283.7852.6797 1.1778 1.5733 1.1778 2.6807 0 .5625-.1319 1.125-.3955 1.6875-.2578.5625-.6797 1.1836-1.2657 1.8633-.3281.3808-.8056.9082-1.4326 1.582-.6211.6738-1.5703 1.6817-2.8476 3.0235z" fill="#fff"/><circle cx="20" cy="20" fill="#7b58cf" r="16"/><circle cx="20" cy="20" r="18" stroke="#7b58cf" stroke-opacity=".3" stroke-width="4"/><path d="m16.9502 24.5146h2.7598v-9.914l-3.3047 1.5908v-1.7051l3.2871-1.5644h1.7754v11.5927h2.7246v1.4854h-7.2422z" fill="#fff"/></svg>