<svg width="626" height="287" viewBox="0 0 626 287" fill="none" xmlns="http://www.w3.org/2000/svg"><g clip-path="url(#dropdown-disclosure-structure__a)"><path fill="#fff" d="M0 0h626v287H0z"/><mask id="dropdown-disclosure-structure__b" fill="#fff"><path fill-rule="evenodd" clip-rule="evenodd" d="m128 67 6-6 6 6h160a8 8 0 0 1 8 8v140a8 8 0 0 1-8 8H62a8 8 0 0 1-8-8V75a8 8 0 0 1 8-8h66Z"/></mask><path fill-rule="evenodd" clip-rule="evenodd" d="m128 67 6-6 6 6h160a8 8 0 0 1 8 8v140a8 8 0 0 1-8 8H62a8 8 0 0 1-8-8V75a8 8 0 0 1 8-8h66Z" fill="#fff"/><path d="m134 61 1.414-1.414L134 58.172l-1.414 1.414L134 61Zm-6 6v2h.828l.586-.586L128 67Zm12 0-1.414 1.414.586.586H140v-2Zm-7.414-7.414-6 6 2.828 2.828 6-6-2.828-2.828Zm8.828 6-6-6-2.828 2.828 6 6 2.828-2.828ZM140 69h160v-4H140v4Zm160 0a6 6 0 0 1 6 6h4c0-5.523-4.477-10-10-10v4Zm6 6v140h4V75h-4Zm0 140a6 6 0 0 1-6 6v4c5.523 0 10-4.477 10-10h-4Zm-6 6H62v4h238v-4Zm-238 0a6 6 0 0 1-6-6h-4c0 5.523 4.477 10 10 10v-4Zm-6-6V75h-4v140h4Zm0-140a6 6 0 0 1 6-6v-4c-5.523 0-10 4.477-10 10h4Zm6-6h66v-4H62v4Z" fill="#A4A3A8" mask="url(#dropdown-disclosure-structure__b)"/><rect x="58" y="71" width="246" height="28" rx="3" fill="#fff"/><rect x="66" y="81" width="94" height="8" rx="2" fill="#A4A3A8"/><rect x="58" y="101" width="246" height="28" rx="3" fill="#fff"/><rect x="66" y="111" width="110" height="8" rx="2" fill="#A4A3A8"/><rect x="58" y="131" width="246" height="28" rx="3" fill="#fff"/><rect x="66" y="141" width="110" height="8" rx="2" fill="#A4A3A8"/><rect x="66" y="171" width="94" height="8" rx="2" fill="#A4A3A8"/><rect x="58" y="191" width="246" height="28" rx="3" fill="#fff"/><rect x="66" y="201" width="110" height="8" rx="2" fill="#A4A3A8"/><path d="M56 191h250v23a7 7 0 0 1-7 7H63a7 7 0 0 1-7-7v-23Z" fill="url(#dropdown-disclosure-structure__c)"/><mask id="dropdown-disclosure-structure__d" fill="#fff"><path fill-rule="evenodd" clip-rule="evenodd" d="m446 67 6-6 6 6h160a8 8 0 0 1 8 8v204a8 8 0 0 1-8 8H380a8 8 0 0 1-8-8V75a8 8 0 0 1 8-8h66Z"/></mask><path fill-rule="evenodd" clip-rule="evenodd" d="m446 67 6-6 6 6h160a8 8 0 0 1 8 8v204a8 8 0 0 1-8 8H380a8 8 0 0 1-8-8V75a8 8 0 0 1 8-8h66Z" fill="#fff"/><path d="m452 61 1.414-1.414L452 58.172l-1.414 1.414L452 61Zm-6 6v2h.828l.586-.586L446 67Zm12 0-1.414 1.414.586.586H458v-2Zm-7.414-7.414-6 6 2.828 2.828 6-6-2.828-2.828Zm8.828 6-6-6-2.828 2.828 6 6 2.828-2.828ZM458 69h160v-4H458v4Zm160 0a6 6 0 0 1 6 6h4c0-5.523-4.477-10-10-10v4Zm6 6v204h4V75h-4Zm0 204a6 6 0 0 1-6 6v4c5.523 0 10-4.477 10-10h-4Zm-6 6H380v4h238v-4Zm-238 0a6 6 0 0 1-6-6h-4c0 5.523 4.477 10 10 10v-4Zm-6-6V75h-4v204h4Zm0-204a6 6 0 0 1 6-6v-4c-5.523 0-10 4.477-10 10h4Zm6-6h66v-4h-66v4Z" fill="#A4A3A8" mask="url(#dropdown-disclosure-structure__d)"/><rect x="492" y="256" width="59" height="22" rx="3" fill="#fff" stroke="#A4A3A8" stroke-width="2"/><rect x="556" y="255" width="62" height="24" rx="4" fill="#1F75CB"/><path d="M374 102h250" stroke="#A4A3A8"/><rect x="384" y="82" width="62" height="8" rx="2" fill="#737278"/><rect x="385" y="125" width="228" height="30" rx="3" fill="#fff"/><rect x="392" y="136" width="70" height="8" rx="2" fill="#BFBFC3"/><rect x="385" y="125" width="228" height="30" rx="3" stroke="#A4A3A8" stroke-width="2"/><rect x="385" y="177" width="228" height="69" rx="3" fill="#fff"/><rect x="385" y="177" width="228" height="69" rx="3" stroke="#A4A3A8" stroke-width="2"/><rect x="384" y="112" width="70" height="8" rx="2" fill="#737278"/><rect x="384" y="164" width="70" height="8" rx="2" fill="#737278"/><rect x="55" y="27" width="156" height="30" rx="3" fill="#fff"/><rect x="66" y="38" width="118" height="8" rx="2" fill="#BFBFC3"/><path fill-rule="evenodd" clip-rule="evenodd" d="M192.22 40.22a.75.75 0 0 1 1.06 0l2.72 2.72 2.72-2.72a.75.75 0 1 1 1.06 1.06l-3.25 3.25a.75.75 0 0 1-1.06 0l-3.25-3.25a.75.75 0 0 1 0-1.06Z" fill="#737278"/><rect x="55" y="27" width="156" height="30" rx="3" stroke="#A4A3A8" stroke-width="2"/><rect x="373" y="27" width="156" height="30" rx="3" fill="#fff"/><rect x="384" y="38" width="118" height="8" rx="2" fill="#BFBFC3"/><path fill-rule="evenodd" clip-rule="evenodd" d="M510.22 40.22a.75.75 0 0 1 1.06 0l2.72 2.72 2.72-2.72a.75.75 0 1 1 1.06 1.06l-3.25 3.25a.75.75 0 0 1-1.06 0l-3.25-3.25a.75.75 0 0 1 0-1.06Z" fill="#737278"/><rect x="373" y="27" width="156" height="30" rx="3" stroke="#A4A3A8" stroke-width="2"/><path stroke="#7B58CF" stroke-width="2" stroke-linecap="round" d="M351 192h9"/><path d="M367 103h-6v182h6" stroke="#7B58CF" stroke-width="2" stroke-linecap="round" stroke-linejoin="round"/><circle cx="337" cy="191" r="16" fill="#7B58CF"/><circle cx="337" cy="191" r="18" stroke="#7B58CF" stroke-opacity=".3" stroke-width="4"/><path d="M340.287 184.168v1.635a4.708 4.708 0 0 0-1.178-.492 4.739 4.739 0 0 0-1.3-.176c-1.125 0-1.978.425-2.558 1.274-.58.844-.87 2.089-.87 3.736.281-.586.671-1.035 1.169-1.345.498-.317 1.069-.475 1.714-.475 1.265 0 2.244.39 2.935 1.169.697.774 1.046 1.872 1.046 3.296 0 1.418-.357 2.517-1.072 3.296-.715.779-1.72 1.169-3.015 1.169-1.523 0-2.639-.545-3.348-1.635-.709-1.096-1.064-2.818-1.064-5.168 0-2.215.425-3.902 1.275-5.062.855-1.166 2.091-1.749 3.708-1.749.434 0 .868.047 1.301.14.434.088.853.217 1.257.387Zm-3.164 5.546c-.756 0-1.351.272-1.784.817-.434.545-.651 1.298-.651 2.259 0 .961.217 1.714.651 2.259.433.545 1.028.817 1.784.817.785 0 1.377-.258 1.775-.773.399-.522.598-1.289.598-2.303 0-1.019-.199-1.787-.598-2.303-.398-.515-.99-.773-1.775-.773Z" fill="#fff"/><circle cx="415" cy="93" r="16" fill="#7B58CF"/><circle cx="415" cy="93" r="18" stroke="#7B58CF" stroke-opacity=".3" stroke-width="4"/><path d="M411.396 85.878h6.645v1.494h-5.027v3.226a4 4 0 0 1 .756-.203 4.3 4.3 0 0 1 .773-.07c1.359 0 2.437.402 3.234 1.204.797.803 1.196 1.89 1.196 3.261 0 1.383-.419 2.473-1.257 3.27-.832.796-1.972 1.195-3.419 1.195-.697 0-1.336-.047-1.916-.14a7.083 7.083 0 0 1-1.547-.423v-1.801a7.457 7.457 0 0 0 1.626.659 6.66 6.66 0 0 0 1.67.21c.978 0 1.731-.257 2.259-.773.533-.515.799-1.248.799-2.197 0-.938-.275-1.667-.826-2.188-.545-.522-1.306-.783-2.285-.783-.474 0-.937.056-1.389.167a5.386 5.386 0 0 0-1.292.484v-6.592Z" fill="#fff"/><path d="M211 214v-14" stroke="#7B58CF" stroke-width="2" stroke-linecap="round" stroke-linejoin="round"/><circle cx="211" cy="186" r="16" fill="#7B58CF"/><circle cx="211" cy="186" r="18" stroke="#7B58CF" stroke-opacity=".3" stroke-width="4"/><path d="m212.037 180.495-4.14 6.935h4.14v-6.935Zm-.29-1.617h2.057v8.552h1.749v1.441h-1.749V192h-1.767v-3.129h-5.563v-1.679l5.273-8.314Z" fill="#fff"/><circle cx="121" cy="114" r="16" fill="#7B58CF"/><circle cx="121" cy="114" r="18" stroke="#7B58CF" stroke-opacity=".3" stroke-width="4"/><path d="M122.397 112.978c.862.228 1.521.635 1.978 1.221.457.58.686 1.307.686 2.18 0 1.207-.408 2.156-1.222 2.848-.809.685-1.931 1.028-3.366 1.028-.604 0-1.219-.056-1.846-.167a11.856 11.856 0 0 1-1.846-.484v-1.766a8.57 8.57 0 0 0 1.767.694c.58.153 1.157.229 1.731.229.973 0 1.72-.22 2.242-.659.521-.44.782-1.073.782-1.899 0-.762-.261-1.365-.782-1.81-.522-.452-1.228-.677-2.119-.677h-1.353v-1.459h1.353c.815 0 1.451-.179 1.908-.536.457-.358.685-.856.685-1.494 0-.674-.214-1.19-.641-1.547-.422-.364-1.026-.545-1.811-.545-.522 0-1.061.058-1.617.176-.557.117-1.14.293-1.749.527v-1.635a22.17 22.17 0 0 1 1.889-.422 9.096 9.096 0 0 1 1.477-.14c1.277 0 2.297.322 3.059.966.767.639 1.151 1.489 1.151 2.549 0 .721-.202 1.322-.607 1.802-.398.48-.981.82-1.749 1.02Z" fill="#fff"/><path stroke="#7B58CF" stroke-width="2" stroke-linecap="round" d="M34 77h25"/><circle cx="20" cy="78" r="16" fill="#7B58CF"/><circle cx="20" cy="78" r="18" stroke="#7B58CF" stroke-opacity=".3" stroke-width="4"/><path d="M17.855 82.506h6.03V84h-7.972v-1.494a363.318 363.318 0 0 0 2.874-3.059 73.424 73.424 0 0 0 1.696-1.872c.586-.715.982-1.292 1.187-1.731.205-.446.307-.9.307-1.363 0-.732-.216-1.306-.65-1.722-.428-.416-1.017-.624-1.767-.624-.533 0-1.092.096-1.678.29a9.421 9.421 0 0 0-1.863.879V71.51a9.622 9.622 0 0 1 1.775-.65 7.12 7.12 0 0 1 1.731-.22c1.284 0 2.315.342 3.094 1.028.785.68 1.178 1.573 1.178 2.68 0 .563-.132 1.126-.396 1.688-.257.563-.68 1.184-1.265 1.863-.328.381-.806.909-1.433 1.582-.621.674-1.57 1.682-2.848 3.024Z" fill="#fff"/><circle cx="133" cy="20" r="16" fill="#7B58CF"/><circle cx="133" cy="20" r="18" stroke="#7B58CF" stroke-opacity=".3" stroke-width="4"/><path d="M129.95 24.515h2.76V14.6l-3.305 1.59v-1.705l3.287-1.564h1.776v11.593h2.724V26h-7.242v-1.485Z" fill="#fff"/></g><defs><linearGradient id="dropdown-disclosure-structure__c" x1="181" y1="191" x2="181" y2="221" gradientUnits="userSpaceOnUse"><stop stop-color="#fff" stop-opacity="0"/><stop offset="1" stop-color="#fff"/></linearGradient><clipPath id="dropdown-disclosure-structure__a"><path fill="#fff" d="M0 0h626v287H0z"/></clipPath></defs></svg>