<svg width="608" height="297" viewBox="0 0 608 297" fill="none" xmlns="http://www.w3.org/2000/svg">
<g clip-path="url(#clip0_13835_23016)">
<rect width="608" height="297" fill="white"/>
<mask id="path-1-inside-1_13835_23016" fill="white">
<path fill-rule="evenodd" clip-rule="evenodd" d="M428 77L434 71L440 77H600C604.418 77 608 80.5817 608 85V289C608 293.418 604.418 297 600 297H362C357.582 297 354 293.418 354 289V85C354 80.5817 357.582 77 362 77H428Z"/>
</mask>
<path fill-rule="evenodd" clip-rule="evenodd" d="M428 77L434 71L440 77H600C604.418 77 608 80.5817 608 85V289C608 293.418 604.418 297 600 297H362C357.582 297 354 293.418 354 289V85C354 80.5817 357.582 77 362 77H428Z" fill="white"/>
<path d="M434 71L435.414 69.5858L434 68.1716L432.586 69.5858L434 71ZM428 77V79H428.828L429.414 78.4142L428 77ZM440 77L438.586 78.4142L439.172 79H440V77ZM432.586 69.5858L426.586 75.5858L429.414 78.4142L435.414 72.4142L432.586 69.5858ZM441.414 75.5858L435.414 69.5858L432.586 72.4142L438.586 78.4142L441.414 75.5858ZM440 79H600V75H440V79ZM600 79C603.314 79 606 81.6863 606 85H610C610 79.4772 605.523 75 600 75V79ZM606 85V289H610V85H606ZM606 289C606 292.314 603.314 295 600 295V299C605.523 299 610 294.523 610 289H606ZM600 295H362V299H600V295ZM362 295C358.686 295 356 292.314 356 289H352C352 294.523 356.477 299 362 299V295ZM356 289V85H352V289H356ZM356 85C356 81.6863 358.686 79 362 79V75C356.477 75 352 79.4772 352 85H356ZM362 79H428V75H362V79Z" fill="#A4A3A8" mask="url(#path-1-inside-1_13835_23016)"/>
<rect x="485" y="266" width="52" height="22" rx="2" fill="white"/>
<rect x="485" y="266" width="52" height="22" rx="2" stroke="#A4A3A8" stroke-width="2"/>
<rect x="542" y="265" width="54" height="24" rx="3" fill="#1F75CB"/>
<path d="M356 112H606" stroke="#A4A3A8"/>
<rect x="367" y="187" width="228" height="69" rx="3" fill="white"/>
<rect x="367" y="187" width="228" height="69" rx="3" stroke="#A4A3A8" stroke-width="2"/>
<rect x="366" y="122" width="70" height="8" rx="2" fill="#737278"/>
<rect x="366" y="174" width="70" height="8" rx="2" fill="#89888D"/>
<rect x="367" y="135" width="228" height="30" rx="3" fill="white"/>
<rect x="374" y="146" width="70" height="8" rx="2" fill="#BFBFC3"/>
<rect x="367" y="135" width="228" height="30" rx="3" stroke="#A4A3A8" stroke-width="2"/>
<rect x="366" y="122" width="70" height="8" rx="2" fill="#89888D"/>
<rect x="366" y="92" width="62" height="8" rx="2" fill="#535158"/>
<rect x="355" y="37" width="156" height="30" rx="3" fill="white"/>
<rect x="366" y="48" width="118" height="8" rx="2" fill="#BFBFC3"/>
<path fill-rule="evenodd" clip-rule="evenodd" d="M492.22 50.2197C492.513 49.9268 492.987 49.9268 493.28 50.2197L496 52.9393L498.72 50.2197C499.013 49.9268 499.487 49.9268 499.78 50.2197C500.073 50.5126 500.073 50.9874 499.78 51.2803L496.53 54.5303C496.237 54.8232 495.763 54.8232 495.47 54.5303L492.22 51.2803C491.927 50.9874 491.927 50.5126 492.22 50.2197Z" fill="#737278"/>
<rect x="355" y="37" width="156" height="30" rx="3" stroke="#A4A3A8" stroke-width="2"/>
<mask id="path-16-inside-2_13835_23016" fill="white">
<path fill-rule="evenodd" clip-rule="evenodd" d="M110 77L116 71L122 77H282C286.418 77 290 80.5817 290 85V225C290 229.418 286.418 233 282 233H44C39.5817 233 36 229.418 36 225V85C36 80.5817 39.5817 77 44 77H110Z"/>
</mask>
<path fill-rule="evenodd" clip-rule="evenodd" d="M110 77L116 71L122 77H282C286.418 77 290 80.5817 290 85V225C290 229.418 286.418 233 282 233H44C39.5817 233 36 229.418 36 225V85C36 80.5817 39.5817 77 44 77H110Z" fill="white"/>
<path d="M116 71L117.414 69.5858L116 68.1716L114.586 69.5858L116 71ZM110 77V79H110.828L111.414 78.4142L110 77ZM122 77L120.586 78.4142L121.172 79H122V77ZM114.586 69.5858L108.586 75.5858L111.414 78.4142L117.414 72.4142L114.586 69.5858ZM123.414 75.5858L117.414 69.5858L114.586 72.4142L120.586 78.4142L123.414 75.5858ZM122 79H282V75H122V79ZM282 79C285.314 79 288 81.6863 288 85H292C292 79.4772 287.523 75 282 75V79ZM288 85V225H292V85H288ZM288 225C288 228.314 285.314 231 282 231V235C287.523 235 292 230.523 292 225H288ZM282 231H44V235H282V231ZM44 231C40.6863 231 38 228.314 38 225H34C34 230.523 38.4771 235 44 235V231ZM38 225V85H34V225H38ZM38 85C38 81.6863 40.6863 79 44 79V75C38.4772 75 34 79.4772 34 85H38ZM44 79H110V75H44V79Z" fill="#A4A3A8" mask="url(#path-16-inside-2_13835_23016)"/>
<rect x="40" y="81" width="246" height="28" rx="3" fill="white"/>
<rect x="48" y="91" width="94" height="8" rx="2" fill="#89888D"/>
<rect x="40" y="111" width="246" height="28" rx="3" fill="white"/>
<rect x="48" y="121" width="110" height="8" rx="2" fill="#89888D"/>
<rect x="40" y="141" width="246" height="28" rx="3" fill="white"/>
<rect x="48" y="151" width="110" height="8" rx="2" fill="#89888D"/>
<rect x="48" y="181" width="94" height="8" rx="2" fill="#89888D"/>
<rect x="40" y="201" width="246" height="28" rx="3" fill="white"/>
<rect x="48" y="211" width="110" height="8" rx="2" fill="#89888D"/>
<path d="M38 201H288V224C288 227.866 284.866 231 281 231H45C41.134 231 38 227.866 38 224V201Z" fill="url(#paint0_linear_13835_23016)"/>
<rect x="37" y="37" width="156" height="30" rx="3" fill="white"/>
<rect x="48" y="48" width="118" height="8" rx="2" fill="#BFBFC3"/>
<path fill-rule="evenodd" clip-rule="evenodd" d="M174.22 50.2197C174.513 49.9268 174.987 49.9268 175.28 50.2197L178 52.9393L180.72 50.2197C181.013 49.9268 181.487 49.9268 181.78 50.2197C182.073 50.5126 182.073 50.9874 181.78 51.2803L178.53 54.5303C178.237 54.8232 177.763 54.8232 177.47 54.5303L174.22 51.2803C173.927 50.9874 173.927 50.5126 174.22 50.2197Z" fill="#737278"/>
<rect x="37" y="37" width="156" height="30" rx="3" stroke="#A4A3A8" stroke-width="2"/>
<line x1="344" y1="295" x2="344" y2="114" stroke="#7B58CF" stroke-width="2" stroke-linecap="round"/>
<line x1="353" y1="114" x2="344" y2="114" stroke="#7B58CF" stroke-width="2" stroke-linecap="round"/>
<line x1="353" y1="295" x2="344" y2="295" stroke="#7B58CF" stroke-width="2" stroke-linecap="round"/>
<line x1="344" y1="202" x2="334" y2="202" stroke="#7B58CF" stroke-width="2" stroke-linecap="round"/>
<circle cx="320" cy="201" r="16" fill="#7B58CF"/>
<circle cx="320" cy="201" r="18" stroke="#7B58CF" stroke-opacity="0.3" stroke-width="4"/>
<path d="M320.022 207.18C319.182 207.18 318.438 207.006 317.79 206.658C317.154 206.298 316.656 205.806 316.296 205.182C315.936 204.546 315.756 203.814 315.756 202.986C315.756 202.41 315.864 201.822 316.08 201.222C316.296 200.61 316.59 199.974 316.962 199.314L320.004 193.86H321.804L318.564 199.494L318.618 199.53C318.774 199.326 319.008 199.17 319.32 199.062C319.632 198.954 319.974 198.9 320.346 198.9C321.126 198.9 321.804 199.074 322.38 199.422C322.968 199.758 323.424 200.226 323.748 200.826C324.084 201.426 324.252 202.122 324.252 202.914C324.252 203.754 324.072 204.498 323.712 205.146C323.352 205.782 322.854 206.28 322.218 206.64C321.594 207 320.862 207.18 320.022 207.18ZM320.004 205.74C320.532 205.74 320.988 205.626 321.372 205.398C321.768 205.158 322.074 204.828 322.29 204.408C322.518 203.988 322.632 203.502 322.632 202.95C322.632 202.398 322.518 201.912 322.29 201.492C322.074 201.072 321.768 200.748 321.372 200.52C320.988 200.28 320.532 200.16 320.004 200.16C319.488 200.16 319.032 200.28 318.636 200.52C318.24 200.748 317.928 201.072 317.7 201.492C317.484 201.912 317.376 202.398 317.376 202.95C317.376 203.502 317.484 203.988 317.7 204.408C317.928 204.828 318.24 205.158 318.636 205.398C319.032 205.626 319.488 205.74 320.004 205.74Z" fill="white"/>
<circle cx="444" cy="96" r="16" fill="#7B58CF"/>
<circle cx="444" cy="96" r="18" stroke="#7B58CF" stroke-opacity="0.3" stroke-width="4"/>
<path d="M443.896 102.18C442.684 102.18 441.724 101.844 441.016 101.172C440.308 100.488 439.954 99.564 439.954 98.4H441.574C441.574 99.12 441.784 99.69 442.204 100.11C442.624 100.53 443.194 100.74 443.914 100.74C444.634 100.74 445.204 100.53 445.624 100.11C446.044 99.69 446.254 99.12 446.254 98.4V97.59C446.254 96.87 446.05 96.3 445.642 95.88C445.234 95.46 444.682 95.25 443.986 95.25H440.404V88.86H447.406V90.336H441.916L441.952 93.774H444.076C445.288 93.774 446.224 94.11 446.884 94.782C447.544 95.442 447.874 96.378 447.874 97.59V98.4C447.874 99.564 447.514 100.488 446.794 101.172C446.086 101.844 445.12 102.18 443.896 102.18Z" fill="white"/>
<line x1="258" y1="220" x2="258" y2="208" stroke="#7B58CF" stroke-width="2" stroke-linecap="round"/>
<circle cx="258" cy="192" r="16" fill="#7B58CF"/>
<circle cx="258" cy="192" r="18" stroke="#7B58CF" stroke-opacity="0.3" stroke-width="4"/>
<path d="M259.804 198V195.12H253.864V192.582L258.652 184.86H260.488L255.484 192.942V193.644H259.804V190.44H261.424V198H259.804Z" fill="white"/>
<circle cx="174" cy="125" r="16" fill="#7B58CF"/>
<circle cx="174" cy="125" r="18" stroke="#7B58CF" stroke-opacity="0.3" stroke-width="4"/>
<path d="M173.806 131.18C172.594 131.18 171.634 130.844 170.926 130.172C170.218 129.488 169.864 128.564 169.864 127.4H171.484C171.484 128.12 171.694 128.69 172.114 129.11C172.534 129.53 173.104 129.74 173.824 129.74C174.544 129.74 175.114 129.53 175.534 129.11C175.954 128.69 176.164 128.12 176.164 127.4V126.5C176.164 125.78 175.954 125.21 175.534 124.79C175.114 124.37 174.544 124.16 173.824 124.16H172.402V122.756L175.624 119.336H170.224V117.86H177.46V119.372L173.86 123.206V122.72C175.072 122.72 176.026 123.062 176.722 123.746C177.43 124.418 177.784 125.336 177.784 126.5V127.4C177.784 128.564 177.424 129.488 176.704 130.172C175.996 130.844 175.03 131.18 173.806 131.18Z" fill="white"/>
<circle cx="20" cy="95" r="16" fill="#7B58CF"/>
<circle cx="20" cy="95" r="18" stroke="#7B58CF" stroke-opacity="0.3" stroke-width="4"/>
<path d="M16.1515 101V99.506L20.5255 94.826C21.1615 94.154 21.6115 93.554 21.8755 93.026C22.1395 92.498 22.2715 91.982 22.2715 91.478C22.2715 90.758 22.0615 90.188 21.6415 89.768C21.2335 89.336 20.6755 89.12 19.9675 89.12C19.2355 89.12 18.6535 89.342 18.2215 89.786C17.8015 90.218 17.5915 90.806 17.5915 91.55H15.9715C15.9955 90.758 16.1755 90.074 16.5115 89.498C16.8475 88.91 17.3095 88.46 17.8975 88.148C18.4855 87.836 19.1755 87.68 19.9675 87.68C20.7835 87.68 21.4855 87.836 22.0735 88.148C22.6615 88.46 23.1175 88.904 23.4415 89.48C23.7655 90.044 23.9275 90.716 23.9275 91.496C23.9275 92.12 23.7535 92.78 23.4055 93.476C23.0695 94.172 22.4875 94.952 21.6595 95.816L18.1135 99.524H24.0895V101H16.1515Z" fill="white"/>
<circle cx="115" cy="20" r="16" fill="#7B58CF"/>
<circle cx="115" cy="20" r="18" stroke="#7B58CF" stroke-opacity="0.3" stroke-width="4"/>
<path d="M111.224 26V24.524H114.788V14.264L111.224 16.928V15.074L114.194 12.86H116.408V24.524H119.324V26H111.224Z" fill="white"/>
</g>
<defs>
<linearGradient id="paint0_linear_13835_23016" x1="163" y1="201" x2="163" y2="231" gradientUnits="userSpaceOnUse">
<stop stop-color="white" stop-opacity="0"/>
<stop offset="1" stop-color="white"/>
</linearGradient>
<clipPath id="clip0_13835_23016">
<rect width="608" height="297" fill="white"/>
</clipPath>
</defs>
</svg>
