<svg width="626" height="349" viewBox="0 0 626 349" fill="none" xmlns="http://www.w3.org/2000/svg">
<g clip-path="url(#clip0_13830_22829)">
<rect width="626" height="349" fill="white"/>
<mask id="path-1-inside-1_13830_22829" fill="white">
<path fill-rule="evenodd" clip-rule="evenodd" d="M446 94L452 88L458 94H618C622.418 94 626 97.5817 626 102V341C626 345.418 622.418 349 618 349H380C375.582 349 372 345.418 372 341V102C372 97.5817 375.582 94 380 94H446Z"/>
</mask>
<path fill-rule="evenodd" clip-rule="evenodd" d="M446 94L452 88L458 94H618C622.418 94 626 97.5817 626 102V341C626 345.418 622.418 349 618 349H380C375.582 349 372 345.418 372 341V102C372 97.5817 375.582 94 380 94H446Z" fill="white"/>
<path d="M452 88L453.414 86.5858L452 85.1716L450.586 86.5858L452 88ZM446 94V96H446.828L447.414 95.4142L446 94ZM458 94L456.586 95.4142L457.172 96H458V94ZM450.586 86.5858L444.586 92.5858L447.414 95.4142L453.414 89.4142L450.586 86.5858ZM459.414 92.5858L453.414 86.5858L450.586 89.4142L456.586 95.4142L459.414 92.5858ZM458 96H618V92H458V96ZM618 96C621.314 96 624 98.6863 624 102H628C628 96.4772 623.523 92 618 92V96ZM624 102V341H628V102H624ZM624 341C624 344.314 621.314 347 618 347V351C623.523 351 628 346.523 628 341H624ZM618 347H380V351H618V347ZM380 347C376.686 347 374 344.314 374 341H370C370 346.523 374.477 351 380 351V347ZM374 341V102H370V341H374ZM374 102C374 98.6863 376.686 96 380 96V92C374.477 92 370 96.4772 370 102H374ZM380 96H446V92H380V96Z" fill="#A4A3A8" mask="url(#path-1-inside-1_13830_22829)"/>
<rect x="376" y="259" width="246" height="28" rx="3" fill="white"/>
<rect x="404" y="269" width="94" height="8" rx="2" fill="#89888D"/>
<rect x="376" y="289" width="246" height="28" rx="3" fill="white"/>
<rect x="404" y="299" width="110" height="8" rx="2" fill="#89888D"/>
<rect x="404" y="329" width="94" height="8" rx="2" fill="#89888D"/>
<path d="M374 255H624" stroke="#A4A3A8"/>
<rect x="376" y="193" width="246" height="28" rx="3" fill="#ECECEF"/>
<path fill-rule="evenodd" clip-rule="evenodd" d="M394.78 203.62C395.073 203.912 395.073 204.387 394.78 204.68L388.683 210.777C388.541 210.919 388.348 210.998 388.147 210.997C387.946 210.995 387.754 210.913 387.614 210.768L385.211 208.284C384.923 207.987 384.931 207.512 385.229 207.224C385.526 206.936 386.001 206.944 386.289 207.241L388.162 209.177L393.72 203.62C394.013 203.327 394.487 203.327 394.78 203.62Z" fill="#737278"/>
<rect x="404" y="203" width="94" height="8" rx="2" fill="#89888D"/>
<rect x="376" y="223" width="246" height="28" rx="3" fill="#ECECEF"/>
<path fill-rule="evenodd" clip-rule="evenodd" d="M394.78 233.62C395.073 233.912 395.073 234.387 394.78 234.68L388.683 240.777C388.541 240.919 388.348 240.998 388.147 240.997C387.946 240.995 387.754 240.913 387.614 240.768L385.211 238.284C384.923 237.987 384.931 237.512 385.229 237.224C385.526 236.936 386.001 236.944 386.289 237.241L388.162 239.177L393.72 233.62C394.013 233.327 394.487 233.327 394.78 233.62Z" fill="#737278"/>
<rect x="404" y="233" width="110" height="8" rx="2" fill="#89888D"/>
<rect x="384" y="173" width="46" height="8" rx="2" fill="#737278"/>
<rect x="384" y="173" width="46" height="8" rx="2" fill="#89888D"/>
<path d="M374 161H624" stroke="#A4A3A8"/>
<path d="M374 129H624" stroke="#A4A3A8"/>
<path fill-rule="evenodd" clip-rule="evenodd" d="M392.5 144.5C392.5 146.157 391.157 147.5 389.5 147.5C387.843 147.5 386.5 146.157 386.5 144.5C386.5 142.843 387.843 141.5 389.5 141.5C391.157 141.5 392.5 142.843 392.5 144.5ZM392.107 148.168C391.372 148.692 390.472 149 389.5 149C387.015 149 385 146.985 385 144.5C385 142.015 387.015 140 389.5 140C391.985 140 394 142.015 394 144.5C394 145.472 393.692 146.372 393.168 147.107L395.78 149.72C396.073 150.013 396.073 150.487 395.78 150.78C395.487 151.073 395.013 151.073 394.72 150.78L392.107 148.168Z" fill="#737278"/>
<rect x="402" y="141" width="52" height="8" rx="2" fill="#BFBFC3"/>
<rect x="566" y="109" width="48" height="8" rx="2" fill="#BFBFC3"/>
<rect x="384" y="109" width="62" height="8" rx="2" fill="#535158"/>
<rect x="373" y="55" width="156" height="30" rx="3" fill="white"/>
<rect x="384" y="66" width="118" height="8" rx="2" fill="#BFBFC3"/>
<path fill-rule="evenodd" clip-rule="evenodd" d="M510.22 68.2197C510.513 67.9268 510.987 67.9268 511.28 68.2197L514 70.9393L516.72 68.2197C517.013 67.9268 517.487 67.9268 517.78 68.2197C518.073 68.5126 518.073 68.9874 517.78 69.2803L514.53 72.5303C514.237 72.8232 513.763 72.8232 513.47 72.5303L510.22 69.2803C509.927 68.9874 509.927 68.5126 510.22 68.2197Z" fill="#737278"/>
<rect x="373" y="55" width="156" height="30" rx="3" stroke="#A4A3A8" stroke-width="2"/>
<mask id="path-27-inside-2_13830_22829" fill="white">
<path fill-rule="evenodd" clip-rule="evenodd" d="M149 94L155 88L161 94H300C304.418 94 308 97.5817 308 102V307C308 311.418 304.418 315 300 315H62C57.5817 315 54 311.418 54 307V102C54 97.5817 57.5817 94 62 94H149Z"/>
</mask>
<path fill-rule="evenodd" clip-rule="evenodd" d="M149 94L155 88L161 94H300C304.418 94 308 97.5817 308 102V307C308 311.418 304.418 315 300 315H62C57.5817 315 54 311.418 54 307V102C54 97.5817 57.5817 94 62 94H149Z" fill="white"/>
<path d="M155 88L156.414 86.5858L155 85.1716L153.586 86.5858L155 88ZM149 94V96H149.828L150.414 95.4142L149 94ZM161 94L159.586 95.4142L160.172 96H161V94ZM153.586 86.5858L147.586 92.5858L150.414 95.4142L156.414 89.4142L153.586 86.5858ZM162.414 92.5858L156.414 86.5858L153.586 89.4142L159.586 95.4142L162.414 92.5858ZM161 96H300V92H161V96ZM300 96C303.314 96 306 98.6863 306 102H310C310 96.4772 305.523 92 300 92V96ZM306 102V307H310V102H306ZM306 307C306 310.314 303.314 313 300 313V317C305.523 317 310 312.523 310 307H306ZM300 313H62V317H300V313ZM62 313C58.6863 313 56 310.314 56 307H52C52 312.523 56.4771 317 62 317V313ZM56 307V102H52V307H56ZM56 102C56 98.6863 58.6863 96 62 96V92C56.4772 92 52 96.4772 52 102H56ZM62 96H149V92H62V96Z" fill="#A4A3A8" mask="url(#path-27-inside-2_13830_22829)"/>
<rect x="58" y="255" width="246" height="28" rx="3" fill="white"/>
<rect x="66" y="265" width="94" height="8" rx="2" fill="#89888D"/>
<rect x="66" y="295" width="86" height="8" rx="2" fill="#89888D"/>
<path d="M56 251H306" stroke="#A4A3A8"/>
<rect x="58" y="131" width="246" height="28" rx="3" fill="white"/>
<rect x="86" y="141" width="94" height="8" rx="2" fill="#89888D"/>
<rect x="58" y="161" width="246" height="28" rx="3" fill="white"/>
<rect x="86" y="171" width="110" height="8" rx="2" fill="#89888D"/>
<rect x="58" y="191" width="246" height="28" rx="3" fill="white"/>
<rect x="86" y="201" width="94" height="8" rx="2" fill="#89888D"/>
<rect x="58" y="221" width="246" height="28" rx="3" fill="white"/>
<rect x="86" y="231" width="110" height="8" rx="2" fill="#89888D"/>
<path d="M56 222H306V247C306 248.105 305.105 249 304 249H58C56.8954 249 56 248.105 56 247V222Z" fill="url(#paint0_linear_13830_22829)"/>
<path d="M56 129H306" stroke="#A4A3A8"/>
<rect x="248" y="109" width="48" height="8" rx="2" fill="#BFBFC3"/>
<rect x="66" y="109" width="62" height="8" rx="2" fill="#535158"/>
<rect x="261" y="55" width="30" height="30" rx="3" fill="white"/>
<path fill-rule="evenodd" clip-rule="evenodd" d="M272.22 68.2197C272.513 67.9268 272.987 67.9268 273.28 68.2197L276 70.9393L278.72 68.2197C279.013 67.9268 279.487 67.9268 279.78 68.2197C280.073 68.5126 280.073 68.9874 279.78 69.2803L276.53 72.5303C276.237 72.8232 275.763 72.8232 275.47 72.5303L272.22 69.2803C271.927 68.9874 271.927 68.5126 272.22 68.2197Z" fill="#737278"/>
<rect x="261" y="55" width="30" height="30" rx="3" stroke="#A4A3A8" stroke-width="2"/>
<rect x="55" y="55" width="200" height="30" rx="3" fill="white"/>
<path fill-rule="evenodd" clip-rule="evenodd" d="M73.5 69C73.5 71.4853 71.4853 73.5 69 73.5C66.5147 73.5 64.5 71.4853 64.5 69C64.5 66.5147 66.5147 64.5 69 64.5C71.4853 64.5 73.5 66.5147 73.5 69ZM72.6792 73.7399C71.6632 74.5297 70.3865 75 69 75C65.6863 75 63 72.3137 63 69C63 65.6863 65.6863 63 69 63C72.3137 63 75 65.6863 75 69C75 70.3865 74.5297 71.6632 73.7399 72.6792L76.7803 75.7197C77.0732 76.0126 77.0732 76.4874 76.7803 76.7803C76.4874 77.0732 76.0126 77.0732 75.7197 76.7803L72.6792 73.7399Z" fill="#737278"/>
<rect x="82" y="66" width="70" height="8" rx="2" fill="#BFBFC3"/>
<rect x="55" y="55" width="200" height="30" rx="3" stroke="#A4A3A8" stroke-width="2"/>
<rect x="54" y="42" width="70" height="8" rx="2" fill="#535158"/>
<circle cx="499" cy="237" r="16" fill="#7B58CF"/>
<circle cx="499" cy="237" r="18" stroke="#7B58CF" stroke-opacity="0.3" stroke-width="4"/>
<path d="M489.827 243V241.524H493.391V231.264L489.827 233.928V232.074L492.797 229.86H495.011V241.524H497.927V243H489.827ZM500.62 243V241.524H504.184V231.264L500.62 233.928V232.074L503.59 229.86H505.804V241.524H508.72V243H500.62Z" fill="white"/>
<circle cx="446" cy="177" r="16" fill="#7B58CF"/>
<circle cx="446" cy="177" r="18" stroke="#7B58CF" stroke-opacity="0.3" stroke-width="4"/>
<path d="M436.827 183V181.524H440.391V171.264L436.827 173.928V172.074L439.797 169.86H442.011V181.524H444.927V183H436.827ZM451.4 183.18C450.596 183.18 449.894 183.024 449.294 182.712C448.706 182.388 448.25 181.938 447.926 181.362C447.602 180.774 447.44 180.09 447.44 179.31V173.55C447.44 172.758 447.602 172.074 447.926 171.498C448.25 170.922 448.706 170.478 449.294 170.166C449.894 169.842 450.596 169.68 451.4 169.68C452.216 169.68 452.918 169.842 453.506 170.166C454.094 170.478 454.55 170.922 454.874 171.498C455.198 172.074 455.36 172.758 455.36 173.55V179.31C455.36 180.09 455.198 180.774 454.874 181.362C454.55 181.938 454.088 182.388 453.488 182.712C452.9 183.024 452.204 183.18 451.4 183.18ZM451.4 181.794C452.12 181.794 452.696 181.566 453.128 181.11C453.572 180.642 453.794 180.042 453.794 179.31V173.55C453.794 172.818 453.572 172.224 453.128 171.768C452.696 171.3 452.12 171.066 451.4 171.066C450.68 171.066 450.098 171.3 449.654 171.768C449.222 172.224 449.006 172.818 449.006 173.55V179.31C449.006 180.042 449.222 180.642 449.654 181.11C450.098 181.566 450.68 181.794 451.4 181.794ZM451.4 177.42C451.076 177.42 450.812 177.33 450.608 177.15C450.416 176.97 450.32 176.712 450.32 176.376C450.32 176.052 450.416 175.806 450.608 175.638C450.812 175.458 451.076 175.368 451.4 175.368C451.724 175.368 451.982 175.458 452.174 175.638C452.378 175.806 452.48 176.052 452.48 176.376C452.48 176.712 452.378 176.97 452.174 177.15C451.982 177.33 451.724 177.42 451.4 177.42Z" fill="white"/>
<circle cx="499" cy="145" r="16" fill="#7B58CF"/>
<circle cx="499" cy="145" r="18" stroke="#7B58CF" stroke-opacity="0.3" stroke-width="4"/>
<path d="M497.114 151L500.354 145.366L500.3 145.33C500.216 145.45 500.084 145.558 499.904 145.654C499.736 145.75 499.538 145.828 499.31 145.888C499.082 145.936 498.836 145.96 498.572 145.96C497.816 145.96 497.15 145.792 496.574 145.456C496.01 145.108 495.566 144.634 495.242 144.034C494.918 143.434 494.756 142.738 494.756 141.946C494.756 141.094 494.936 140.35 495.296 139.714C495.656 139.078 496.154 138.58 496.79 138.22C497.426 137.86 498.158 137.68 498.986 137.68C499.838 137.68 500.582 137.86 501.218 138.22C501.854 138.568 502.352 139.06 502.712 139.696C503.072 140.32 503.252 141.046 503.252 141.874C503.252 142.45 503.144 143.044 502.928 143.656C502.712 144.256 502.418 144.886 502.046 145.546L499.004 151H497.114ZM499.004 144.7C499.784 144.7 500.414 144.442 500.894 143.926C501.386 143.41 501.632 142.738 501.632 141.91C501.632 141.358 501.518 140.872 501.29 140.452C501.074 140.032 500.768 139.708 500.372 139.48C499.988 139.24 499.532 139.12 499.004 139.12C498.488 139.12 498.032 139.24 497.636 139.48C497.24 139.708 496.928 140.032 496.7 140.452C496.484 140.872 496.376 141.358 496.376 141.91C496.376 142.462 496.484 142.948 496.7 143.368C496.928 143.788 497.24 144.118 497.636 144.358C498.032 144.586 498.488 144.7 499.004 144.7Z" fill="white"/>
<line x1="44" y1="253" x2="44" y2="314" stroke="#7B58CF" stroke-width="2" stroke-linecap="round"/>
<line x1="53" y1="253" x2="44" y2="253" stroke="#7B58CF" stroke-width="2" stroke-linecap="round"/>
<line x1="44" y1="284" x2="35" y2="284" stroke="#7B58CF" stroke-width="2" stroke-linecap="round"/>
<line x1="53" y1="314" x2="44" y2="314" stroke="#7B58CF" stroke-width="2" stroke-linecap="round"/>
<circle cx="20" cy="284" r="16" fill="#7B58CF"/>
<circle cx="20" cy="284" r="18" stroke="#7B58CF" stroke-opacity="0.3" stroke-width="4"/>
<path d="M20.0035 290.18C19.1755 290.18 18.4435 290.018 17.8075 289.694C17.1715 289.37 16.6735 288.92 16.3135 288.344C15.9655 287.756 15.7915 287.084 15.7915 286.328C15.7915 285.776 15.8995 285.272 16.1155 284.816C16.3315 284.36 16.6315 283.982 17.0155 283.682C17.4115 283.37 17.8735 283.172 18.4015 283.088V283.034C17.7175 282.878 17.1715 282.536 16.7635 282.008C16.3555 281.468 16.1515 280.85 16.1515 280.154C16.1515 279.47 16.3135 278.87 16.6375 278.354C16.9615 277.826 17.4115 277.418 17.9875 277.13C18.5755 276.83 19.2475 276.68 20.0035 276.68C20.7715 276.68 21.4435 276.83 22.0195 277.13C22.5955 277.418 23.0455 277.826 23.3695 278.354C23.6935 278.87 23.8555 279.47 23.8555 280.154C23.8555 280.85 23.6515 281.468 23.2435 282.008C22.8355 282.536 22.2895 282.878 21.6055 283.034V283.088C22.1335 283.172 22.5895 283.37 22.9735 283.682C23.3695 283.982 23.6755 284.36 23.8915 284.816C24.1075 285.272 24.2155 285.776 24.2155 286.328C24.2155 287.084 24.0355 287.756 23.6755 288.344C23.3275 288.92 22.8355 289.37 22.1995 289.694C21.5755 290.018 20.8435 290.18 20.0035 290.18ZM20.0035 288.722C20.7715 288.722 21.3955 288.5 21.8755 288.056C22.3555 287.6 22.5955 287.012 22.5955 286.292C22.5955 285.56 22.3555 284.972 21.8755 284.528C21.3955 284.072 20.7715 283.844 20.0035 283.844C19.2355 283.844 18.6115 284.072 18.1315 284.528C17.6515 284.972 17.4115 285.56 17.4115 286.292C17.4115 287.012 17.6515 287.6 18.1315 288.056C18.6115 288.5 19.2355 288.722 20.0035 288.722ZM20.0035 282.404C20.6755 282.404 21.2155 282.206 21.6235 281.81C22.0315 281.414 22.2355 280.898 22.2355 280.262C22.2355 279.626 22.0315 279.11 21.6235 278.714C21.2155 278.318 20.6755 278.12 20.0035 278.12C19.3435 278.12 18.8035 278.318 18.3835 278.714C17.9755 279.11 17.7715 279.626 17.7715 280.262C17.7715 280.898 17.9755 281.414 18.3835 281.81C18.8035 282.206 19.3435 282.404 20.0035 282.404Z" fill="white"/>
<line x1="276" y1="240" x2="276" y2="228" stroke="#7B58CF" stroke-width="2" stroke-linecap="round"/>
<circle cx="276" cy="212" r="16" fill="#7B58CF"/>
<circle cx="276" cy="212" r="18" stroke="#7B58CF" stroke-opacity="0.3" stroke-width="4"/>
<path d="M274.024 218L278.704 206.336H273.7V208.46H272.08V204.86H280.432V206.372L275.788 218H274.024Z" fill="white"/>
<circle cx="212" cy="175" r="16" fill="#7B58CF"/>
<circle cx="212" cy="175" r="18" stroke="#7B58CF" stroke-opacity="0.3" stroke-width="4"/>
<path d="M212.022 181.18C211.182 181.18 210.438 181.006 209.79 180.658C209.154 180.298 208.656 179.806 208.296 179.182C207.936 178.546 207.756 177.814 207.756 176.986C207.756 176.41 207.864 175.822 208.08 175.222C208.296 174.61 208.59 173.974 208.962 173.314L212.004 167.86H213.804L210.564 173.494L210.618 173.53C210.774 173.326 211.008 173.17 211.32 173.062C211.632 172.954 211.974 172.9 212.346 172.9C213.126 172.9 213.804 173.074 214.38 173.422C214.968 173.758 215.424 174.226 215.748 174.826C216.084 175.426 216.252 176.122 216.252 176.914C216.252 177.754 216.072 178.498 215.712 179.146C215.352 179.782 214.854 180.28 214.218 180.64C213.594 181 212.862 181.18 212.022 181.18ZM212.004 179.74C212.532 179.74 212.988 179.626 213.372 179.398C213.768 179.158 214.074 178.828 214.29 178.408C214.518 177.988 214.632 177.502 214.632 176.95C214.632 176.398 214.518 175.912 214.29 175.492C214.074 175.072 213.768 174.748 213.372 174.52C212.988 174.28 212.532 174.16 212.004 174.16C211.488 174.16 211.032 174.28 210.636 174.52C210.24 174.748 209.928 175.072 209.7 175.492C209.484 175.912 209.376 176.398 209.376 176.95C209.376 177.502 209.484 177.988 209.7 178.408C209.928 178.828 210.24 179.158 210.636 179.398C211.032 179.626 211.488 179.74 212.004 179.74Z" fill="white"/>
<line x1="44" y1="131" x2="44" y2="249" stroke="#7B58CF" stroke-width="2" stroke-linecap="round"/>
<line x1="53" y1="249" x2="44" y2="249" stroke="#7B58CF" stroke-width="2" stroke-linecap="round"/>
<line x1="53" y1="131" x2="44" y2="131" stroke="#7B58CF" stroke-width="2" stroke-linecap="round"/>
<line x1="44" y1="190" x2="35" y2="190" stroke="#7B58CF" stroke-width="2" stroke-linecap="round"/>
<circle cx="20" cy="190" r="16" fill="#7B58CF"/>
<circle cx="20" cy="190" r="18" stroke="#7B58CF" stroke-opacity="0.3" stroke-width="4"/>
<path d="M19.8955 196.18C18.6835 196.18 17.7235 195.844 17.0155 195.172C16.3075 194.488 15.9535 193.564 15.9535 192.4H17.5735C17.5735 193.12 17.7835 193.69 18.2035 194.11C18.6235 194.53 19.1935 194.74 19.9135 194.74C20.6335 194.74 21.2035 194.53 21.6235 194.11C22.0435 193.69 22.2535 193.12 22.2535 192.4V191.59C22.2535 190.87 22.0495 190.3 21.6415 189.88C21.2335 189.46 20.6815 189.25 19.9855 189.25H16.4035V182.86H23.4055V184.336H17.9155L17.9515 187.774H20.0755C21.2875 187.774 22.2235 188.11 22.8835 188.782C23.5435 189.442 23.8735 190.378 23.8735 191.59V192.4C23.8735 193.564 23.5135 194.488 22.7935 195.172C22.0855 195.844 21.1195 196.18 19.8955 196.18Z" fill="white"/>
<circle cx="312" cy="113" r="16" fill="#7B58CF"/>
<circle cx="312" cy="113" r="18" stroke="#7B58CF" stroke-opacity="0.3" stroke-width="4"/>
<path d="M313.804 119V116.12H307.864V113.582L312.652 105.86H314.488L309.484 113.942V114.644H313.804V111.44H315.424V119H313.804Z" fill="white"/>
<circle cx="144" cy="113" r="16" fill="#7B58CF"/>
<circle cx="144" cy="113" r="18" stroke="#7B58CF" stroke-opacity="0.3" stroke-width="4"/>
<path d="M143.806 119.18C142.594 119.18 141.634 118.844 140.926 118.172C140.218 117.488 139.864 116.564 139.864 115.4H141.484C141.484 116.12 141.694 116.69 142.114 117.11C142.534 117.53 143.104 117.74 143.824 117.74C144.544 117.74 145.114 117.53 145.534 117.11C145.954 116.69 146.164 116.12 146.164 115.4V114.5C146.164 113.78 145.954 113.21 145.534 112.79C145.114 112.37 144.544 112.16 143.824 112.16H142.402V110.756L145.624 107.336H140.224V105.86H147.46V107.372L143.86 111.206V110.72C145.072 110.72 146.026 111.062 146.722 111.746C147.43 112.418 147.784 113.336 147.784 114.5V115.4C147.784 116.564 147.424 117.488 146.704 118.172C145.996 118.844 145.03 119.18 143.806 119.18Z" fill="white"/>
<circle cx="38" cy="110" r="16" fill="#7B58CF"/>
<circle cx="38" cy="110" r="18" stroke="#7B58CF" stroke-opacity="0.3" stroke-width="4"/>
<path d="M34.1515 116V114.506L38.5255 109.826C39.1615 109.154 39.6115 108.554 39.8755 108.026C40.1395 107.498 40.2715 106.982 40.2715 106.478C40.2715 105.758 40.0615 105.188 39.6415 104.768C39.2335 104.336 38.6755 104.12 37.9675 104.12C37.2355 104.12 36.6535 104.342 36.2215 104.786C35.8015 105.218 35.5915 105.806 35.5915 106.55H33.9715C33.9955 105.758 34.1755 105.074 34.5115 104.498C34.8475 103.91 35.3095 103.46 35.8975 103.148C36.4855 102.836 37.1755 102.68 37.9675 102.68C38.7835 102.68 39.4855 102.836 40.0735 103.148C40.6615 103.46 41.1175 103.904 41.4415 104.48C41.7655 105.044 41.9275 105.716 41.9275 106.496C41.9275 107.12 41.7535 107.78 41.4055 108.476C41.0695 109.172 40.4875 109.952 39.6595 110.816L36.1135 114.524H42.0895V116H34.1515Z" fill="white"/>
<line x1="155" y1="20" x2="155" y2="53" stroke="#7B58CF" stroke-width="2" stroke-linecap="round"/>
<line x1="276" y1="20" x2="276" y2="53" stroke="#7B58CF" stroke-width="2" stroke-linecap="round"/>
<line x1="448" y1="20" x2="448" y2="53" stroke="#7B58CF" stroke-width="2" stroke-linecap="round"/>
<line x1="155" y1="20" x2="448" y2="20" stroke="#7B58CF" stroke-width="2" stroke-linecap="round"/>
<circle cx="155" cy="20" r="16" fill="#7B58CF"/>
<circle cx="155" cy="20" r="18" stroke="#7B58CF" stroke-opacity="0.3" stroke-width="4"/>
<path d="M151.224 26V24.524H154.788V14.264L151.224 16.928V15.074L154.194 12.86H156.408V24.524H159.324V26H151.224Z" fill="white"/>
</g>
<defs>
<linearGradient id="paint0_linear_13830_22829" x1="181" y1="222" x2="181" y2="249" gradientUnits="userSpaceOnUse">
<stop stop-color="white" stop-opacity="0"/>
<stop offset="1" stop-color="white"/>
</linearGradient>
<clipPath id="clip0_13830_22829">
<rect width="626" height="349" fill="white"/>
</clipPath>
</defs>
</svg>
