<svg width="626" height="349" viewBox="0 0 626 349" fill="none" xmlns="http://www.w3.org/2000/svg"><g clip-path="url(#dropdown-combobox-structure__a)"><path fill="#fff" d="M0 0h626v349H0z"/><mask id="dropdown-combobox-structure__b" fill="#fff"><path fill-rule="evenodd" clip-rule="evenodd" d="m446 94 6-6 6 6h160a8 8 0 0 1 8 8v239a8 8 0 0 1-8 8H380a8 8 0 0 1-8-8V102a8 8 0 0 1 8-8h66Z"/></mask><path fill-rule="evenodd" clip-rule="evenodd" d="m446 94 6-6 6 6h160a8 8 0 0 1 8 8v239a8 8 0 0 1-8 8H380a8 8 0 0 1-8-8V102a8 8 0 0 1 8-8h66Z" fill="#fff"/><path d="m452 88 1.414-1.414L452 85.172l-1.414 1.414L452 88Zm-6 6v2h.828l.586-.586L446 94Zm12 0-1.414 1.414.586.586H458v-2Zm-7.414-7.414-6 6 2.828 2.828 6-6-2.828-2.828Zm8.828 6-6-6-2.828 2.828 6 6 2.828-2.828ZM458 96h160v-4H458v4Zm160 0a6 6 0 0 1 6 6h4c0-5.523-4.477-10-10-10v4Zm6 6v239h4V102h-4Zm0 239a6 6 0 0 1-6 6v4c5.523 0 10-4.477 10-10h-4Zm-6 6H380v4h238v-4Zm-238 0a6 6 0 0 1-6-6h-4c0 5.523 4.477 10 10 10v-4Zm-6-6V102h-4v239h4Zm0-239a6 6 0 0 1 6-6v-4c-5.523 0-10 4.477-10 10h4Zm6-6h66v-4h-66v4Z" fill="#A4A3A8" mask="url(#dropdown-combobox-structure__b)"/><rect x="376" y="259" width="246" height="28" rx="3" fill="#fff"/><rect x="404" y="269" width="94" height="8" rx="2" fill="#A4A3A8"/><rect x="376" y="289" width="246" height="28" rx="3" fill="#fff"/><rect x="404" y="299" width="110" height="8" rx="2" fill="#A4A3A8"/><rect x="404" y="329" width="94" height="8" rx="2" fill="#A4A3A8"/><path d="M374 255h250" stroke="#A4A3A8"/><rect x="376" y="193" width="246" height="28" rx="3" fill="#ECECEF"/><path fill-rule="evenodd" clip-rule="evenodd" d="M394.78 203.62a.749.749 0 0 1 0 1.06l-6.097 6.097a.752.752 0 0 1-1.069-.009l-2.403-2.484a.75.75 0 1 1 1.078-1.043l1.873 1.936 5.558-5.557a.749.749 0 0 1 1.06 0Z" fill="#737278"/><rect x="404" y="203" width="94" height="8" rx="2" fill="#737278"/><rect x="376" y="223" width="246" height="28" rx="3" fill="#ECECEF"/><path fill-rule="evenodd" clip-rule="evenodd" d="M394.78 233.62a.749.749 0 0 1 0 1.06l-6.097 6.097a.752.752 0 0 1-1.069-.009l-2.403-2.484a.75.75 0 1 1 1.078-1.043l1.873 1.936 5.558-5.557a.749.749 0 0 1 1.06 0Z" fill="#737278"/><rect x="404" y="233" width="110" height="8" rx="2" fill="#737278"/><rect x="384" y="173" width="46" height="8" rx="2" fill="#737278"/><path d="M374 161h250m-250-32h250" stroke="#A4A3A8"/><path fill-rule="evenodd" clip-rule="evenodd" d="M392.5 144.5a3 3 0 1 1-6 0 3 3 0 0 1 6 0Zm-.393 3.668a4.5 4.5 0 1 1 1.061-1.061l2.612 2.613a.749.749 0 1 1-1.06 1.06l-2.613-2.612Z" fill="#737278"/><rect x="402" y="141" width="51" height="8" rx="2" fill="#BFBFC3"/><rect x="566" y="109" width="48" height="8" rx="2" fill="#BFBFC3"/><rect x="384" y="109" width="62" height="8" rx="2" fill="#737278"/><path d="M374 288h250v20a7 7 0 0 1-7 7H381a7 7 0 0 1-7-7v-20Z" fill="url(#dropdown-combobox-structure__c)"/><rect x="373" y="55" width="156" height="30" rx="3" fill="#fff"/><rect x="384" y="66" width="118" height="8" rx="2" fill="#BFBFC3"/><path fill-rule="evenodd" clip-rule="evenodd" d="M510.22 68.22a.75.75 0 0 1 1.06 0l2.72 2.72 2.72-2.72a.75.75 0 1 1 1.06 1.06l-3.25 3.25a.75.75 0 0 1-1.06 0l-3.25-3.25a.75.75 0 0 1 0-1.06Z" fill="#737278"/><rect x="373" y="55" width="156" height="30" rx="3" stroke="#A4A3A8" stroke-width="2"/><mask id="dropdown-combobox-structure__d" fill="#fff"><path fill-rule="evenodd" clip-rule="evenodd" d="m149 94 6-6 6 6h139a8 8 0 0 1 8 8v205a8 8 0 0 1-8 8H62a8 8 0 0 1-8-8V102a8 8 0 0 1 8-8h87Z"/></mask><path fill-rule="evenodd" clip-rule="evenodd" d="m149 94 6-6 6 6h139a8 8 0 0 1 8 8v205a8 8 0 0 1-8 8H62a8 8 0 0 1-8-8V102a8 8 0 0 1 8-8h87Z" fill="#fff"/><path d="m155 88 1.414-1.414L155 85.172l-1.414 1.414L155 88Zm-6 6v2h.828l.586-.586L149 94Zm12 0-1.414 1.414.586.586H161v-2Zm-7.414-7.414-6 6 2.828 2.828 6-6-2.828-2.828Zm8.828 6-6-6-2.828 2.828 6 6 2.828-2.828ZM161 96h139v-4H161v4Zm139 0a6 6 0 0 1 6 6h4c0-5.523-4.477-10-10-10v4Zm6 6v205h4V102h-4Zm0 205a6 6 0 0 1-6 6v4c5.523 0 10-4.477 10-10h-4Zm-6 6H62v4h238v-4Zm-238 0a6 6 0 0 1-6-6h-4c0 5.523 4.477 10 10 10v-4Zm-6-6V102h-4v205h4Zm0-205a6 6 0 0 1 6-6v-4c-5.523 0-10 4.477-10 10h4Zm6-6h87v-4H62v4Z" fill="#A4A3A8" mask="url(#dropdown-combobox-structure__d)"/><rect x="58" y="255" width="246" height="28" rx="3" fill="#fff"/><rect x="66" y="265" width="94" height="8" rx="2" fill="#A4A3A8"/><rect x="66" y="295" width="86" height="8" rx="2" fill="#A4A3A8"/><path d="M56 251h250" stroke="#A4A3A8"/><rect x="58" y="131" width="246" height="28" rx="3" fill="#fff"/><rect x="86" y="141" width="94" height="8" rx="2" fill="#A4A3A8"/><rect x="58" y="161" width="246" height="28" rx="3" fill="#fff"/><rect x="86" y="171" width="110" height="8" rx="2" fill="#A4A3A8"/><rect x="58" y="191" width="246" height="28" rx="3" fill="#fff"/><rect x="86" y="201" width="94" height="8" rx="2" fill="#A4A3A8"/><rect x="58" y="221" width="246" height="28" rx="3" fill="#fff"/><rect x="86" y="231" width="102" height="8" rx="2" fill="#A4A3A8"/><path d="M56 222h250v25a2 2 0 0 1-2 2H58a2 2 0 0 1-2-2v-25Z" fill="url(#dropdown-combobox-structure__e)"/><path d="M56 129h250" stroke="#A4A3A8"/><rect x="248" y="109" width="48" height="8" rx="2" fill="#BFBFC3"/><rect x="66" y="109" width="62" height="8" rx="2" fill="#737278"/><rect x="261" y="55" width="30" height="30" rx="3" fill="#fff"/><path fill-rule="evenodd" clip-rule="evenodd" d="M272.22 68.22a.75.75 0 0 1 1.06 0l2.72 2.72 2.72-2.72a.75.75 0 1 1 1.06 1.06l-3.25 3.25a.75.75 0 0 1-1.06 0l-3.25-3.25a.75.75 0 0 1 0-1.06Z" fill="#737278"/><rect x="261" y="55" width="30" height="30" rx="3" stroke="#A4A3A8" stroke-width="2"/><rect x="55" y="55" width="200" height="30" rx="3" fill="#fff"/><path fill-rule="evenodd" clip-rule="evenodd" d="M73.5 69a4.5 4.5 0 1 1-9 0 4.5 4.5 0 0 1 9 0Zm-.82 4.74a6 6 0 1 1 1.06-1.06l3.04 3.04a.75.75 0 1 1-1.06 1.06l-3.04-3.04Z" fill="#737278"/><rect x="82" y="66" width="70" height="8" rx="2" fill="#BFBFC3"/><rect x="55" y="55" width="200" height="30" rx="3" stroke="#A4A3A8" stroke-width="2"/><rect x="54" y="42" width="70" height="8" rx="2" fill="#737278"/><circle cx="548" cy="221" r="16" fill="#7B58CF"/><circle cx="548" cy="221" r="18" stroke="#7B58CF" stroke-opacity=".3" stroke-width="4"/><path d="M539.527 225.515h2.76v-9.914l-3.305 1.59v-1.705l3.288-1.564h1.775v11.593h2.725V227h-7.243v-1.485Zm10.846 0h2.76v-9.914l-3.305 1.59v-1.705l3.287-1.564h1.776v11.593h2.724V227h-7.242v-1.485Z" fill="#fff"/><circle cx="408" cy="184" r="16" fill="#7B58CF"/><circle cx="408" cy="184" r="18" stroke="#7B58CF" stroke-opacity=".3" stroke-width="4"/><path d="M399.527 188.515h2.76v-9.914l-3.305 1.59v-1.705l3.288-1.564h1.775v11.593h2.725V190h-7.243v-1.485Zm13.887-11.83c1.4 0 2.458.571 3.173 1.713.721 1.143 1.081 2.833 1.081 5.072 0 2.238-.36 3.928-1.081 5.071-.715 1.143-1.773 1.714-3.173 1.714-1.4 0-2.458-.571-3.173-1.714-.715-1.143-1.072-2.833-1.072-5.071 0-2.239.357-3.929 1.072-5.072.715-1.142 1.773-1.713 3.173-1.713Zm0 12.164c.832 0 1.45-.443 1.855-1.328.41-.884.615-2.235.615-4.051 0-.967-.059-1.84-.176-2.619l-4.184 6.547c.44.967 1.07 1.451 1.89 1.451Zm0-10.758c-.826 0-1.444.442-1.854 1.327-.405.885-.607 2.235-.607 4.052 0 .826.056 1.599.167 2.32l4.096-6.53c-.445-.78-1.046-1.169-1.802-1.169Z" fill="#fff"/><circle cx="364" cy="145" r="16" fill="#7B58CF"/><circle cx="364" cy="145" r="18" stroke="#7B58CF" stroke-opacity=".3" stroke-width="4"/><path d="M363.815 145.182c.756 0 1.348-.273 1.776-.818.433-.545.65-1.298.65-2.259 0-.96-.217-1.713-.65-2.258-.428-.545-1.02-.818-1.776-.818-.785 0-1.377.261-1.775.783-.398.515-.598 1.28-.598 2.293 0 1.02.197 1.788.589 2.303.399.516.993.774 1.784.774Zm-3.164 5.546v-1.635c.37.217.762.384 1.178.501.416.111.85.167 1.301.167 1.125 0 1.974-.422 2.549-1.266.58-.849.87-2.098.87-3.744-.276.586-.662 1.037-1.16 1.353-.498.311-1.07.466-1.714.466-1.266 0-2.247-.389-2.945-1.169-.691-.779-1.037-1.883-1.037-3.313 0-1.412.355-2.505 1.064-3.278.715-.78 1.722-1.169 3.023-1.169 1.524 0 2.64.547 3.349 1.643.709 1.096 1.063 2.819 1.063 5.168 0 2.209-.427 3.897-1.283 5.063-.849 1.16-2.086 1.74-3.709 1.74-.428 0-.858-.047-1.292-.141a6.745 6.745 0 0 1-1.257-.386Z" fill="#fff"/><path stroke="#7B58CF" stroke-width="2" stroke-linecap="round" d="M34 282h9"/><path d="M50 253h-6v61h6" stroke="#7B58CF" stroke-width="2" stroke-linecap="round" stroke-linejoin="round"/><circle cx="20" cy="281" r="16" fill="#7B58CF"/><circle cx="20" cy="281" r="18" stroke="#7B58CF" stroke-opacity=".3" stroke-width="4"/><path d="M19.991 280.769c-.79 0-1.403.222-1.837.668-.427.439-.641 1.063-.641 1.872 0 .808.216 1.438.65 1.889.44.446 1.049.668 1.828.668.797 0 1.41-.22 1.837-.659.434-.445.65-1.078.65-1.898 0-.803-.22-1.427-.659-1.872-.433-.446-1.043-.668-1.828-.668Zm-1.547-.739c-.755-.193-1.347-.553-1.775-1.081-.422-.527-.633-1.163-.633-1.907 0-1.043.355-1.869 1.064-2.479.709-.615 1.672-.922 2.891-.922 1.225 0 2.192.307 2.9.922.71.61 1.064 1.436 1.064 2.479 0 .744-.214 1.38-.641 1.907-.422.528-1.011.888-1.767 1.081.879.194 1.55.583 2.013 1.169.468.586.703 1.345.703 2.277 0 1.183-.378 2.109-1.134 2.777-.756.668-1.802 1.002-3.138 1.002-1.336 0-2.382-.331-3.137-.993-.75-.668-1.125-1.591-1.125-2.769 0-.937.231-1.699.694-2.285.469-.592 1.142-.984 2.021-1.178Zm-.641-2.821c0 .703.187 1.239.562 1.608.375.37.917.554 1.626.554.715 0 1.26-.184 1.635-.554.375-.369.563-.905.563-1.608 0-.715-.188-1.26-.563-1.635-.37-.375-.914-.562-1.635-.562-.709 0-1.25.19-1.626.571-.375.375-.562.917-.562 1.626Z" fill="#fff"/><path d="M208 244v-14" stroke="#7B58CF" stroke-width="2" stroke-linecap="round" stroke-linejoin="round"/><circle cx="208" cy="217" r="16" fill="#7B58CF"/><circle cx="208" cy="217" r="18" stroke="#7B58CF" stroke-opacity=".3" stroke-width="4"/><path d="M203.799 209.878h8.262v.756L207.367 223h-1.854l4.57-11.628h-6.284v-1.494Z" fill="#fff"/><circle cx="133" cy="204" r="16" fill="#7B58CF"/><circle cx="133" cy="204" r="18" stroke="#7B58CF" stroke-opacity=".3" stroke-width="4"/><path d="M136.287 197.168v1.635a4.708 4.708 0 0 0-1.178-.492 4.739 4.739 0 0 0-1.3-.176c-1.125 0-1.978.425-2.558 1.274-.58.844-.87 2.089-.87 3.736.281-.586.671-1.035 1.169-1.345.498-.317 1.069-.475 1.714-.475 1.265 0 2.244.39 2.935 1.169.697.774 1.046 1.872 1.046 3.296 0 1.418-.357 2.517-1.072 3.296-.715.779-1.72 1.169-3.015 1.169-1.523 0-2.639-.545-3.348-1.635-.709-1.096-1.064-2.818-1.064-5.168 0-2.215.425-3.902 1.275-5.062.855-1.166 2.091-1.749 3.708-1.749.434 0 .868.047 1.301.14.434.088.853.217 1.257.387Zm-3.164 5.546c-.756 0-1.351.272-1.784.817-.434.545-.651 1.298-.651 2.259 0 .961.217 1.714.651 2.259.433.545 1.028.817 1.784.817.785 0 1.377-.258 1.775-.773.399-.522.598-1.289.598-2.303 0-1.019-.199-1.787-.598-2.303-.398-.515-.99-.773-1.775-.773Z" fill="#fff"/><path stroke="#7B58CF" stroke-width="2" stroke-linecap="round" d="M34 188h9"/><path d="M50 131h-6v118h6" stroke="#7B58CF" stroke-width="2" stroke-linecap="round" stroke-linejoin="round"/><circle cx="20" cy="187" r="16" fill="#7B58CF"/><circle cx="20" cy="187" r="18" stroke="#7B58CF" stroke-opacity=".3" stroke-width="4"/><path d="M16.396 179.878h6.645v1.494h-5.027v3.226c.252-.094.504-.161.756-.202.257-.047.515-.071.773-.071 1.36 0 2.438.402 3.234 1.204.797.803 1.196 1.89 1.196 3.261 0 1.383-.42 2.473-1.257 3.27-.832.796-1.972 1.195-3.42 1.195-.696 0-1.335-.047-1.915-.141a7.006 7.006 0 0 1-1.547-.422v-1.801a7.481 7.481 0 0 0 1.626.659c.545.14 1.101.211 1.67.211.978 0 1.731-.258 2.259-.774.533-.515.8-1.248.8-2.197 0-.937-.276-1.667-.827-2.188-.545-.522-1.306-.783-2.285-.783a5.79 5.79 0 0 0-1.389.167 5.383 5.383 0 0 0-1.291.484v-6.592Z" fill="#fff"/><circle cx="272" cy="119" r="16" fill="#7B58CF"/><circle cx="272" cy="119" r="18" stroke="#7B58CF" stroke-opacity=".3" stroke-width="4"/><path d="m273.037 113.495-4.14 6.935h4.14v-6.935Zm-.29-1.617h2.057v8.552h1.749v1.441h-1.749V125h-1.767v-3.129h-5.563v-1.679l5.273-8.314Z" fill="#fff"/><circle cx="97" cy="119" r="16" fill="#7B58CF"/><circle cx="97" cy="119" r="18" stroke="#7B58CF" stroke-opacity=".3" stroke-width="4"/><path d="M98.397 117.978c.862.228 1.521.635 1.978 1.221.457.58.686 1.307.686 2.18 0 1.207-.408 2.156-1.222 2.848-.809.685-1.93 1.028-3.366 1.028-.604 0-1.22-.056-1.846-.167a11.842 11.842 0 0 1-1.846-.484v-1.766a8.56 8.56 0 0 0 1.767.694c.58.153 1.157.229 1.731.229.973 0 1.72-.22 2.242-.659.521-.44.782-1.073.782-1.899 0-.762-.261-1.365-.782-1.81-.522-.452-1.228-.677-2.119-.677H95.05v-1.459h1.353c.815 0 1.45-.179 1.908-.536.457-.358.685-.856.685-1.494 0-.674-.214-1.19-.642-1.547-.421-.364-1.025-.545-1.81-.545-.522 0-1.06.058-1.617.176-.557.117-1.14.293-1.75.527v-1.635a22.102 22.102 0 0 1 1.89-.422 9.09 9.09 0 0 1 1.477-.14c1.277 0 2.297.322 3.059.966.767.639 1.151 1.489 1.151 2.549 0 .721-.202 1.322-.607 1.802-.398.48-.981.82-1.749 1.02Z" fill="#fff"/><path stroke="#7B58CF" stroke-width="2" stroke-linecap="round" d="M34 102h25"/><circle cx="20" cy="102" r="16" fill="#7B58CF"/><circle cx="20" cy="102" r="18" stroke="#7B58CF" stroke-opacity=".3" stroke-width="4"/><path d="M17.855 106.506h6.03V108h-7.972v-1.494a353.783 353.783 0 0 0 2.874-3.059 74.372 74.372 0 0 0 1.696-1.872c.586-.715.982-1.292 1.187-1.731.205-.446.307-.9.307-1.363 0-.732-.216-1.306-.65-1.722-.428-.416-1.017-.624-1.767-.624-.533 0-1.092.096-1.678.29a9.421 9.421 0 0 0-1.863.879V95.51a9.622 9.622 0 0 1 1.775-.65 7.12 7.12 0 0 1 1.731-.22c1.284 0 2.315.342 3.094 1.028.785.68 1.178 1.573 1.178 2.68 0 .563-.132 1.126-.396 1.688-.257.563-.68 1.184-1.265 1.863-.328.381-.806.909-1.433 1.582a282.48 282.48 0 0 1-2.848 3.024Z" fill="#fff"/><path d="M155 50V21h293v29m-172 0V22" stroke="#7B58CF" stroke-width="2" stroke-linecap="round" stroke-linejoin="round"/><circle cx="155" cy="20" r="16" fill="#7B58CF"/><circle cx="155" cy="20" r="18" stroke="#7B58CF" stroke-opacity=".3" stroke-width="4"/><path d="M151.95 24.515h2.76V14.6l-3.305 1.59v-1.705l3.287-1.564h1.776v11.593h2.724V26h-7.242v-1.485Z" fill="#fff"/></g><defs><linearGradient id="dropdown-combobox-structure__c" x1="499" y1="288" x2="499" y2="315" gradientUnits="userSpaceOnUse"><stop stop-color="#fff" stop-opacity="0"/><stop offset="1" stop-color="#fff"/></linearGradient><linearGradient id="dropdown-combobox-structure__e" x1="181" y1="222" x2="181" y2="249" gradientUnits="userSpaceOnUse"><stop stop-color="#fff" stop-opacity="0"/><stop offset="1" stop-color="#fff"/></linearGradient><clipPath id="dropdown-combobox-structure__a"><path fill="#fff" d="M0 0h626v349H0z"/></clipPath></defs></svg>