<svg width="626" height="349" fill="none" xmlns="http://www.w3.org/2000/svg"><path fill="#fff" d="M0 0h626v349H0z"/><mask id="dropdown-combobox-structure__a" fill="#fff"><path fill-rule="evenodd" clip-rule="evenodd" d="m446 94 6-6 6 6h160a8 8 0 0 1 8 8v239a8 8 0 0 1-8 8H380a8 8 0 0 1-8-8V102a8 8 0 0 1 8-8h66Z"/></mask><path fill-rule="evenodd" clip-rule="evenodd" d="m446 94 6-6 6 6h160a8 8 0 0 1 8 8v239a8 8 0 0 1-8 8H380a8 8 0 0 1-8-8V102a8 8 0 0 1 8-8h66Z" fill="#fff"/><path d="m452 88 1.414-1.414L452 85.172l-1.414 1.414L452 88Zm-6 6v2h.828l.586-.586L446 94Zm12 0-1.414 1.414.586.586H458v-2Zm-7.414-7.414-6 6 2.828 2.828 6-6-2.828-2.828Zm8.828 6-6-6-2.828 2.828 6 6 2.828-2.828ZM458 96h160v-4H458v4Zm160 0a6 6 0 0 1 6 6h4c0-5.523-4.477-10-10-10v4Zm6 6v239h4V102h-4Zm0 239a6 6 0 0 1-6 6v4c5.523 0 10-4.477 10-10h-4Zm-6 6H380v4h238v-4Zm-238 0a6 6 0 0 1-6-6h-4c0 5.523 4.477 10 10 10v-4Zm-6-6V102h-4v239h4Zm0-239a6 6 0 0 1 6-6v-4c-5.523 0-10 4.477-10 10h4Zm6-6h66v-4h-66v4Z" fill="#A4A3A8" mask="url(#dropdown-combobox-structure__a)"/><rect x="376" y="259" width="246" height="28" rx="3" fill="#fff"/><rect x="404" y="269" width="94" height="8" rx="2" fill="#89888D"/><rect x="376" y="289" width="246" height="28" rx="3" fill="#fff"/><rect x="404" y="299" width="110" height="8" rx="2" fill="#89888D"/><rect x="404" y="329" width="94" height="8" rx="2" fill="#89888D"/><path d="M374 255h250" stroke="#A4A3A8"/><rect x="376" y="193" width="246" height="28" rx="3" fill="#ECECEF"/><path fill-rule="evenodd" clip-rule="evenodd" d="M394.78 203.62a.749.749 0 0 1 0 1.06l-6.097 6.097a.752.752 0 0 1-1.069-.009l-2.403-2.484a.75.75 0 1 1 1.078-1.043l1.873 1.936 5.558-5.557a.749.749 0 0 1 1.06 0Z" fill="#737278"/><rect x="404" y="203" width="94" height="8" rx="2" fill="#89888D"/><rect x="376" y="223" width="246" height="28" rx="3" fill="#ECECEF"/><path fill-rule="evenodd" clip-rule="evenodd" d="M394.78 233.62a.749.749 0 0 1 0 1.06l-6.097 6.097a.752.752 0 0 1-1.069-.009l-2.403-2.484a.75.75 0 1 1 1.078-1.043l1.873 1.936 5.558-5.557a.749.749 0 0 1 1.06 0Z" fill="#737278"/><rect x="404" y="233" width="110" height="8" rx="2" fill="#89888D"/><rect x="384" y="173" width="46" height="8" rx="2" fill="#737278"/><rect x="384" y="173" width="46" height="8" rx="2" fill="#89888D"/><path d="M374 161h250m-250-32h250" stroke="#A4A3A8"/><path fill-rule="evenodd" clip-rule="evenodd" d="M392.5 144.5a3 3 0 1 1-6 0 3 3 0 0 1 6 0Zm-.393 3.668a4.5 4.5 0 1 1 1.061-1.061l2.612 2.613a.749.749 0 1 1-1.06 1.06l-2.613-2.612Z" fill="#737278"/><rect x="402" y="141" width="52" height="8" rx="2" fill="#BFBFC3"/><rect x="566" y="109" width="48" height="8" rx="2" fill="#BFBFC3"/><rect x="384" y="109" width="62" height="8" rx="2" fill="#535158"/><rect x="373" y="55" width="156" height="30" rx="3" fill="#fff"/><rect x="384" y="66" width="118" height="8" rx="2" fill="#BFBFC3"/><path fill-rule="evenodd" clip-rule="evenodd" d="M510.22 68.22a.75.75 0 0 1 1.06 0l2.72 2.72 2.72-2.72a.75.75 0 1 1 1.06 1.06l-3.25 3.25a.75.75 0 0 1-1.06 0l-3.25-3.25a.75.75 0 0 1 0-1.06Z" fill="#737278"/><rect x="373" y="55" width="156" height="30" rx="3" stroke="#A4A3A8" stroke-width="2"/><mask id="dropdown-combobox-structure__b" fill="#fff"><path fill-rule="evenodd" clip-rule="evenodd" d="m149 94 6-6 6 6h139a8 8 0 0 1 8 8v205a8 8 0 0 1-8 8H62a8 8 0 0 1-8-8V102a8 8 0 0 1 8-8h87Z"/></mask><path fill-rule="evenodd" clip-rule="evenodd" d="m149 94 6-6 6 6h139a8 8 0 0 1 8 8v205a8 8 0 0 1-8 8H62a8 8 0 0 1-8-8V102a8 8 0 0 1 8-8h87Z" fill="#fff"/><path d="m155 88 1.414-1.414L155 85.172l-1.414 1.414L155 88Zm-6 6v2h.828l.586-.586L149 94Zm12 0-1.414 1.414.586.586H161v-2Zm-7.414-7.414-6 6 2.828 2.828 6-6-2.828-2.828Zm8.828 6-6-6-2.828 2.828 6 6 2.828-2.828ZM161 96h139v-4H161v4Zm139 0a6 6 0 0 1 6 6h4c0-5.523-4.477-10-10-10v4Zm6 6v205h4V102h-4Zm0 205a6 6 0 0 1-6 6v4c5.523 0 10-4.477 10-10h-4Zm-6 6H62v4h238v-4Zm-238 0a6 6 0 0 1-6-6h-4c0 5.523 4.477 10 10 10v-4Zm-6-6V102h-4v205h4Zm0-205a6 6 0 0 1 6-6v-4c-5.523 0-10 4.477-10 10h4Zm6-6h87v-4H62v4Z" fill="#A4A3A8" mask="url(#dropdown-combobox-structure__b)"/><rect x="58" y="255" width="246" height="28" rx="3" fill="#fff"/><rect x="66" y="265" width="94" height="8" rx="2" fill="#89888D"/><rect x="66" y="295" width="86" height="8" rx="2" fill="#89888D"/><path d="M56 251h250" stroke="#A4A3A8"/><rect x="58" y="131" width="246" height="28" rx="3" fill="#fff"/><rect x="86" y="141" width="94" height="8" rx="2" fill="#89888D"/><rect x="58" y="161" width="246" height="28" rx="3" fill="#fff"/><rect x="86" y="171" width="110" height="8" rx="2" fill="#89888D"/><rect x="58" y="191" width="246" height="28" rx="3" fill="#fff"/><rect x="86" y="201" width="94" height="8" rx="2" fill="#89888D"/><rect x="58" y="221" width="246" height="28" rx="3" fill="#fff"/><rect x="86" y="231" width="110" height="8" rx="2" fill="#89888D"/><path d="M56 222h250v25a2 2 0 0 1-2 2H58a2 2 0 0 1-2-2v-25Z" fill="url(#dropdown-combobox-structure__c)"/><path d="M56 129h250" stroke="#A4A3A8"/><rect x="248" y="109" width="48" height="8" rx="2" fill="#BFBFC3"/><rect x="66" y="109" width="62" height="8" rx="2" fill="#535158"/><rect x="261" y="55" width="30" height="30" rx="3" fill="#fff"/><path fill-rule="evenodd" clip-rule="evenodd" d="M272.22 68.22a.75.75 0 0 1 1.06 0l2.72 2.72 2.72-2.72a.75.75 0 1 1 1.06 1.06l-3.25 3.25a.75.75 0 0 1-1.06 0l-3.25-3.25a.75.75 0 0 1 0-1.06Z" fill="#737278"/><rect x="261" y="55" width="30" height="30" rx="3" stroke="#A4A3A8" stroke-width="2"/><rect x="55" y="55" width="200" height="30" rx="3" fill="#fff"/><path fill-rule="evenodd" clip-rule="evenodd" d="M73.5 69a4.5 4.5 0 1 1-9 0 4.5 4.5 0 0 1 9 0Zm-.82 4.74a6 6 0 1 1 1.06-1.06l3.04 3.04a.75.75 0 1 1-1.06 1.06l-3.04-3.04Z" fill="#737278"/><rect x="82" y="66" width="70" height="8" rx="2" fill="#BFBFC3"/><rect x="55" y="55" width="200" height="30" rx="3" stroke="#A4A3A8" stroke-width="2"/><rect x="54" y="42" width="70" height="8" rx="2" fill="#535158"/><circle cx="499" cy="237" r="16" fill="#7B58CF"/><circle cx="499" cy="237" r="18" stroke="#7B58CF" stroke-opacity=".3" stroke-width="4"/><path d="M489.827 243v-1.476h3.564v-10.26l-3.564 2.664v-1.854l2.97-2.214h2.214v11.664h2.916V243h-8.1Zm10.793 0v-1.476h3.564v-10.26l-3.564 2.664v-1.854l2.97-2.214h2.214v11.664h2.916V243h-8.1Z" fill="#fff"/><circle cx="446" cy="177" r="16" fill="#7B58CF"/><circle cx="446" cy="177" r="18" stroke="#7B58CF" stroke-opacity=".3" stroke-width="4"/><path d="M436.827 183v-1.476h3.564v-10.26l-3.564 2.664v-1.854l2.97-2.214h2.214v11.664h2.916V183h-8.1Zm14.573.18c-.804 0-1.506-.156-2.106-.468a3.444 3.444 0 0 1-1.368-1.35c-.324-.588-.486-1.272-.486-2.052v-5.76c0-.792.162-1.476.486-2.052.324-.576.78-1.02 1.368-1.332.6-.324 1.302-.486 2.106-.486.816 0 1.518.162 2.106.486a3.325 3.325 0 0 1 1.368 1.332c.324.576.486 1.26.486 2.052v5.76c0 .78-.162 1.464-.486 2.052a3.414 3.414 0 0 1-1.386 1.35c-.588.312-1.284.468-2.088.468Zm0-1.386c.72 0 1.296-.228 1.728-.684.444-.468.666-1.068.666-1.8v-5.76c0-.732-.222-1.326-.666-1.782-.432-.468-1.008-.702-1.728-.702s-1.302.234-1.746.702c-.432.456-.648 1.05-.648 1.782v5.76c0 .732.216 1.332.648 1.8.444.456 1.026.684 1.746.684Zm0-4.374c-.324 0-.588-.09-.792-.27-.192-.18-.288-.438-.288-.774 0-.324.096-.57.288-.738.204-.18.468-.27.792-.27s.582.09.774.27c.204.168.306.414.306.738 0 .336-.102.594-.306.774-.192.18-.45.27-.774.27Z" fill="#fff"/><circle cx="499" cy="145" r="16" fill="#7B58CF"/><circle cx="499" cy="145" r="18" stroke="#7B58CF" stroke-opacity=".3" stroke-width="4"/><path d="m497.114 151 3.24-5.634-.054-.036c-.084.12-.216.228-.396.324a2.453 2.453 0 0 1-.594.234 3.58 3.58 0 0 1-.738.072c-.756 0-1.422-.168-1.998-.504a3.707 3.707 0 0 1-1.332-1.422c-.324-.6-.486-1.296-.486-2.088 0-.852.18-1.596.54-2.232a3.885 3.885 0 0 1 1.494-1.494c.636-.36 1.368-.54 2.196-.54.852 0 1.596.18 2.232.54a3.76 3.76 0 0 1 1.494 1.476c.36.624.54 1.35.54 2.178a5.34 5.34 0 0 1-.324 1.782 12.5 12.5 0 0 1-.882 1.89L499.004 151h-1.89Zm1.89-6.3c.78 0 1.41-.258 1.89-.774.492-.516.738-1.188.738-2.016 0-.552-.114-1.038-.342-1.458a2.317 2.317 0 0 0-.918-.972c-.384-.24-.84-.36-1.368-.36-.516 0-.972.12-1.368.36a2.435 2.435 0 0 0-.936.972c-.216.42-.324.906-.324 1.458 0 .552.108 1.038.324 1.458.228.42.54.75.936.99.396.228.852.342 1.368.342Z" fill="#fff"/><path stroke="#7B58CF" stroke-width="2" stroke-linecap="round" d="M49 253v61m4-61h-4m0 31h-9m13 30h-4"/><circle cx="24" cy="284" r="16" fill="#7B58CF"/><circle cx="24" cy="284" r="18" stroke="#7B58CF" stroke-opacity=".3" stroke-width="4"/><path d="M24.003 290.18c-.828 0-1.56-.162-2.195-.486a3.702 3.702 0 0 1-1.494-1.35c-.349-.588-.523-1.26-.523-2.016 0-.552.108-1.056.325-1.512a3.1 3.1 0 0 1 .9-1.134c.396-.312.858-.51 1.386-.594v-.054c-.684-.156-1.23-.498-1.639-1.026a2.994 2.994 0 0 1-.612-1.854c0-.684.163-1.284.486-1.8a3.254 3.254 0 0 1 1.35-1.224c.589-.3 1.26-.45 2.017-.45.767 0 1.44.15 2.015.45a3.254 3.254 0 0 1 1.35 1.224c.325.516.486 1.116.486 1.8 0 .696-.204 1.314-.611 1.854-.409.528-.954.87-1.639 1.026v.054a2.83 2.83 0 0 1 1.369.594c.395.3.701.678.918 1.134.216.456.323.96.323 1.512 0 .756-.18 1.428-.54 2.016a3.577 3.577 0 0 1-1.476 1.35c-.623.324-1.356.486-2.196.486Zm0-1.458c.768 0 1.392-.222 1.872-.666.48-.456.72-1.044.72-1.764 0-.732-.24-1.32-.72-1.764-.48-.456-1.104-.684-1.872-.684s-1.392.228-1.872.684c-.48.444-.72 1.032-.72 1.764 0 .72.24 1.308.72 1.764.48.444 1.104.666 1.872.666Zm0-6.318c.672 0 1.212-.198 1.62-.594.409-.396.612-.912.612-1.548s-.203-1.152-.611-1.548c-.409-.396-.948-.594-1.62-.594-.66 0-1.2.198-1.62.594-.409.396-.613.912-.613 1.548s.204 1.152.613 1.548c.42.396.96.594 1.62.594Z" fill="#fff"/><path stroke="#7B58CF" stroke-width="2" stroke-linecap="round" d="M276 240v-12"/><circle cx="276" cy="212" r="16" fill="#7B58CF"/><circle cx="276" cy="212" r="18" stroke="#7B58CF" stroke-opacity=".3" stroke-width="4"/><path d="m274.024 218 4.68-11.664H273.7v2.124h-1.62v-3.6h8.352v1.512L275.788 218h-1.764Z" fill="#fff"/><circle cx="212" cy="175" r="16" fill="#7B58CF"/><circle cx="212" cy="175" r="18" stroke="#7B58CF" stroke-opacity=".3" stroke-width="4"/><path d="M212.022 181.18c-.84 0-1.584-.174-2.232-.522a3.922 3.922 0 0 1-1.494-1.476c-.36-.636-.54-1.368-.54-2.196 0-.576.108-1.164.324-1.764.216-.612.51-1.248.882-1.908l3.042-5.454h1.8l-3.24 5.634.054.036c.156-.204.39-.36.702-.468a3.118 3.118 0 0 1 1.026-.162c.78 0 1.458.174 2.034.522a3.501 3.501 0 0 1 1.368 1.404c.336.6.504 1.296.504 2.088 0 .84-.18 1.584-.54 2.232a3.885 3.885 0 0 1-1.494 1.494c-.624.36-1.356.54-2.196.54Zm-.018-1.44c.528 0 .984-.114 1.368-.342.396-.24.702-.57.918-.99.228-.42.342-.906.342-1.458 0-.552-.114-1.038-.342-1.458a2.317 2.317 0 0 0-.918-.972c-.384-.24-.84-.36-1.368-.36-.516 0-.972.12-1.368.36a2.435 2.435 0 0 0-.936.972c-.216.42-.324.906-.324 1.458 0 .552.108 1.038.324 1.458.228.42.54.75.936.99.396.228.852.342 1.368.342Z" fill="#fff"/><path stroke="#7B58CF" stroke-width="2" stroke-linecap="round" d="M49 131v118m4 0h-4m4-118h-4m0 59h-9"/><circle cx="24" cy="190" r="16" fill="#7B58CF"/><circle cx="24" cy="190" r="18" stroke="#7B58CF" stroke-opacity=".3" stroke-width="4"/><path d="M23.895 196.18c-1.212 0-2.171-.336-2.88-1.008-.707-.684-1.062-1.608-1.062-2.772h1.62c0 .72.21 1.29.63 1.71.42.42.99.63 1.71.63s1.29-.21 1.71-.63c.42-.42.63-.99.63-1.71v-.81c0-.72-.204-1.29-.611-1.71-.409-.42-.96-.63-1.657-.63h-3.581v-6.39h7.002v1.476h-5.49l.035 3.438h2.125c1.212 0 2.148.336 2.808 1.008.66.66.99 1.596.99 2.808v.81c0 1.164-.36 2.088-1.08 2.772-.709.672-1.675 1.008-2.899 1.008Z" fill="#fff"/><circle cx="312" cy="113" r="16" fill="#7B58CF"/><circle cx="312" cy="113" r="18" stroke="#7B58CF" stroke-opacity=".3" stroke-width="4"/><path d="M313.804 119v-2.88h-5.94v-2.538l4.788-7.722h1.836l-5.004 8.082v.702h4.32v-3.204h1.62V119h-1.62Z" fill="#fff"/><circle cx="144" cy="113" r="16" fill="#7B58CF"/><circle cx="144" cy="113" r="18" stroke="#7B58CF" stroke-opacity=".3" stroke-width="4"/><path d="M143.806 119.18c-1.212 0-2.172-.336-2.88-1.008-.708-.684-1.062-1.608-1.062-2.772h1.62c0 .72.21 1.29.63 1.71.42.42.99.63 1.71.63s1.29-.21 1.71-.63c.42-.42.63-.99.63-1.71v-.9c0-.72-.21-1.29-.63-1.71-.42-.42-.99-.63-1.71-.63h-1.422v-1.404l3.222-3.42h-5.4v-1.476h7.236v1.512l-3.6 3.834v-.486c1.212 0 2.166.342 2.862 1.026.708.672 1.062 1.59 1.062 2.754v.9c0 1.164-.36 2.088-1.08 2.772-.708.672-1.674 1.008-2.898 1.008Z" fill="#fff"/><circle cx="38" cy="110" r="16" fill="#7B58CF"/><circle cx="38" cy="110" r="18" stroke="#7B58CF" stroke-opacity=".3" stroke-width="4"/><path d="M34.151 116v-1.494l4.374-4.68c.636-.672 1.087-1.272 1.35-1.8.264-.528.397-1.044.397-1.548 0-.72-.21-1.29-.63-1.71-.409-.432-.967-.648-1.675-.648-.731 0-1.313.222-1.745.666-.42.432-.63 1.02-.63 1.764h-1.62c.023-.792.203-1.476.54-2.052a3.41 3.41 0 0 1 1.386-1.35c.587-.312 1.277-.468 2.07-.468.815 0 1.517.156 2.105.468a3.325 3.325 0 0 1 1.368 1.332c.325.564.486 1.236.486 2.016 0 .624-.173 1.284-.521 1.98-.337.696-.919 1.476-1.746 2.34l-3.546 3.708h5.976V116h-7.94Z" fill="#fff"/><path stroke="#7B58CF" stroke-width="2" stroke-linecap="round" d="M155 20v33m121-33v33m172-33v33M155 20h293"/><circle cx="155" cy="20" r="16" fill="#7B58CF"/><circle cx="155" cy="20" r="18" stroke="#7B58CF" stroke-opacity=".3" stroke-width="4"/><path d="M151.224 26v-1.476h3.564v-10.26l-3.564 2.664v-1.854l2.97-2.214h2.214v11.664h2.916V26h-8.1Z" fill="#fff"/><defs><linearGradient id="dropdown-combobox-structure__c" x1="181" y1="222" x2="181" y2="249" gradientUnits="userSpaceOnUse"><stop stop-color="#fff" stop-opacity="0"/><stop offset="1" stop-color="#fff"/></linearGradient></defs></svg>