<svg width="608" height="297" fill="none" xmlns="http://www.w3.org/2000/svg"><g clip-path="url(#dropdown-disclosure-structure__a)"><path fill="#fff" d="M0 0h608v297H0z"/><mask id="dropdown-disclosure-structure__b" fill="#fff"><path fill-rule="evenodd" clip-rule="evenodd" d="m428 77 6-6 6 6h160a8 8 0 0 1 8 8v204a8 8 0 0 1-8 8H362a8 8 0 0 1-8-8V85a8 8 0 0 1 8-8h66Z"/></mask><path fill-rule="evenodd" clip-rule="evenodd" d="m428 77 6-6 6 6h160a8 8 0 0 1 8 8v204a8 8 0 0 1-8 8H362a8 8 0 0 1-8-8V85a8 8 0 0 1 8-8h66Z" fill="#fff"/><path d="m434 71 1.414-1.414L434 68.172l-1.414 1.414L434 71Zm-6 6v2h.828l.586-.586L428 77Zm12 0-1.414 1.414.586.586H440v-2Zm-7.414-7.414-6 6 2.828 2.828 6-6-2.828-2.828Zm8.828 6-6-6-2.828 2.828 6 6 2.828-2.828ZM440 79h160v-4H440v4Zm160 0a6 6 0 0 1 6 6h4c0-5.523-4.477-10-10-10v4Zm6 6v204h4V85h-4Zm0 204a6 6 0 0 1-6 6v4c5.523 0 10-4.477 10-10h-4Zm-6 6H362v4h238v-4Zm-238 0a6 6 0 0 1-6-6h-4c0 5.523 4.477 10 10 10v-4Zm-6-6V85h-4v204h4Zm0-204a6 6 0 0 1 6-6v-4c-5.523 0-10 4.477-10 10h4Zm6-6h66v-4h-66v4Z" fill="#A4A3A8" mask="url(#dropdown-disclosure-structure__b)"/><rect x="485" y="266" width="52" height="22" rx="2" fill="#fff"/><rect x="485" y="266" width="52" height="22" rx="2" stroke="#A4A3A8" stroke-width="2"/><rect x="542" y="265" width="54" height="24" rx="3" fill="#1F75CB"/><path d="M356 112h250" stroke="#A4A3A8"/><rect x="367" y="187" width="228" height="69" rx="3" fill="#fff"/><rect x="367" y="187" width="228" height="69" rx="3" stroke="#A4A3A8" stroke-width="2"/><rect x="366" y="122" width="70" height="8" rx="2" fill="#737278"/><rect x="366" y="174" width="70" height="8" rx="2" fill="#89888D"/><rect x="367" y="135" width="228" height="30" rx="3" fill="#fff"/><rect x="374" y="146" width="70" height="8" rx="2" fill="#BFBFC3"/><rect x="367" y="135" width="228" height="30" rx="3" stroke="#A4A3A8" stroke-width="2"/><rect x="366" y="122" width="70" height="8" rx="2" fill="#89888D"/><rect x="366" y="92" width="62" height="8" rx="2" fill="#535158"/><rect x="355" y="37" width="156" height="30" rx="3" fill="#fff"/><rect x="366" y="48" width="118" height="8" rx="2" fill="#BFBFC3"/><path fill-rule="evenodd" clip-rule="evenodd" d="M492.22 50.22a.75.75 0 0 1 1.06 0l2.72 2.72 2.72-2.72a.75.75 0 1 1 1.06 1.06l-3.25 3.25a.75.75 0 0 1-1.06 0l-3.25-3.25a.75.75 0 0 1 0-1.06Z" fill="#737278"/><rect x="355" y="37" width="156" height="30" rx="3" stroke="#A4A3A8" stroke-width="2"/><mask id="dropdown-disclosure-structure__c" fill="#fff"><path fill-rule="evenodd" clip-rule="evenodd" d="m110 77 6-6 6 6h160a8 8 0 0 1 8 8v140a8 8 0 0 1-8 8H44a8 8 0 0 1-8-8V85a8 8 0 0 1 8-8h66Z"/></mask><path fill-rule="evenodd" clip-rule="evenodd" d="m110 77 6-6 6 6h160a8 8 0 0 1 8 8v140a8 8 0 0 1-8 8H44a8 8 0 0 1-8-8V85a8 8 0 0 1 8-8h66Z" fill="#fff"/><path d="m116 71 1.414-1.414L116 68.172l-1.414 1.414L116 71Zm-6 6v2h.828l.586-.586L110 77Zm12 0-1.414 1.414.586.586H122v-2Zm-7.414-7.414-6 6 2.828 2.828 6-6-2.828-2.828Zm8.828 6-6-6-2.828 2.828 6 6 2.828-2.828ZM122 79h160v-4H122v4Zm160 0a6 6 0 0 1 6 6h4c0-5.523-4.477-10-10-10v4Zm6 6v140h4V85h-4Zm0 140a6 6 0 0 1-6 6v4c5.523 0 10-4.477 10-10h-4Zm-6 6H44v4h238v-4Zm-238 0a6 6 0 0 1-6-6h-4c0 5.523 4.477 10 10 10v-4Zm-6-6V85h-4v140h4Zm0-140a6 6 0 0 1 6-6v-4c-5.523 0-10 4.477-10 10h4Zm6-6h66v-4H44v4Z" fill="#A4A3A8" mask="url(#dropdown-disclosure-structure__c)"/><rect x="40" y="81" width="246" height="28" rx="3" fill="#fff"/><rect x="48" y="91" width="94" height="8" rx="2" fill="#89888D"/><rect x="40" y="111" width="246" height="28" rx="3" fill="#fff"/><rect x="48" y="121" width="110" height="8" rx="2" fill="#89888D"/><rect x="40" y="141" width="246" height="28" rx="3" fill="#fff"/><rect x="48" y="151" width="110" height="8" rx="2" fill="#89888D"/><rect x="48" y="181" width="94" height="8" rx="2" fill="#89888D"/><rect x="40" y="201" width="246" height="28" rx="3" fill="#fff"/><rect x="48" y="211" width="110" height="8" rx="2" fill="#89888D"/><path d="M38 201h250v23a7 7 0 0 1-7 7H45a7 7 0 0 1-7-7v-23Z" fill="url(#dropdown-disclosure-structure__d)"/><rect x="37" y="37" width="156" height="30" rx="3" fill="#fff"/><rect x="48" y="48" width="118" height="8" rx="2" fill="#BFBFC3"/><path fill-rule="evenodd" clip-rule="evenodd" d="M174.22 50.22a.75.75 0 0 1 1.06 0l2.72 2.72 2.72-2.72a.75.75 0 1 1 1.06 1.06l-3.25 3.25a.75.75 0 0 1-1.06 0l-3.25-3.25a.75.75 0 0 1 0-1.06Z" fill="#737278"/><rect x="37" y="37" width="156" height="30" rx="3" stroke="#A4A3A8" stroke-width="2"/><path stroke="#7B58CF" stroke-width="2" stroke-linecap="round" d="M349 295V114m4 0h-4m4 181h-4m0-93h-10"/><circle cx="324" cy="202" r="16" fill="#7B58CF"/><circle cx="324" cy="202" r="18" stroke="#7B58CF" stroke-opacity=".3" stroke-width="4"/><path d="M324.022 208.18c-.84 0-1.584-.174-2.232-.522a3.922 3.922 0 0 1-1.494-1.476c-.36-.636-.54-1.368-.54-2.196 0-.576.108-1.164.324-1.764.216-.612.51-1.248.882-1.908l3.042-5.454h1.8l-3.24 5.634.054.036c.156-.204.39-.36.702-.468a3.118 3.118 0 0 1 1.026-.162c.78 0 1.458.174 2.034.522a3.501 3.501 0 0 1 1.368 1.404c.336.6.504 1.296.504 2.088 0 .84-.18 1.584-.54 2.232a3.885 3.885 0 0 1-1.494 1.494c-.624.36-1.356.54-2.196.54Zm-.018-1.44c.528 0 .984-.114 1.368-.342.396-.24.702-.57.918-.99.228-.42.342-.906.342-1.458 0-.552-.114-1.038-.342-1.458a2.317 2.317 0 0 0-.918-.972c-.384-.24-.84-.36-1.368-.36-.516 0-.972.12-1.368.36a2.435 2.435 0 0 0-.936.972c-.216.42-.324.906-.324 1.458 0 .552.108 1.038.324 1.458.228.42.54.75.936.99.396.228.852.342 1.368.342Z" fill="#fff"/><circle cx="444" cy="96" r="16" fill="#7B58CF"/><circle cx="444" cy="96" r="18" stroke="#7B58CF" stroke-opacity=".3" stroke-width="4"/><path d="M443.896 102.18c-1.212 0-2.172-.336-2.88-1.008-.708-.684-1.062-1.608-1.062-2.772h1.62c0 .72.21 1.29.63 1.71.42.42.99.63 1.71.63s1.29-.21 1.71-.63c.42-.42.63-.99.63-1.71v-.81c0-.72-.204-1.29-.612-1.71-.408-.42-.96-.63-1.656-.63h-3.582v-6.39h7.002v1.476h-5.49l.036 3.438h2.124c1.212 0 2.148.336 2.808 1.008.66.66.99 1.596.99 2.808v.81c0 1.164-.36 2.088-1.08 2.772-.708.672-1.674 1.008-2.898 1.008Z" fill="#fff"/><path stroke="#7B58CF" stroke-width="2" stroke-linecap="round" d="M258 220v-12"/><circle cx="258" cy="192" r="16" fill="#7B58CF"/><circle cx="258" cy="192" r="18" stroke="#7B58CF" stroke-opacity=".3" stroke-width="4"/><path d="M259.804 198v-2.88h-5.94v-2.538l4.788-7.722h1.836l-5.004 8.082v.702h4.32v-3.204h1.62V198h-1.62Z" fill="#fff"/><circle cx="174" cy="125" r="16" fill="#7B58CF"/><circle cx="174" cy="125" r="18" stroke="#7B58CF" stroke-opacity=".3" stroke-width="4"/><path d="M173.806 131.18c-1.212 0-2.172-.336-2.88-1.008-.708-.684-1.062-1.608-1.062-2.772h1.62c0 .72.21 1.29.63 1.71.42.42.99.63 1.71.63s1.29-.21 1.71-.63c.42-.42.63-.99.63-1.71v-.9c0-.72-.21-1.29-.63-1.71-.42-.42-.99-.63-1.71-.63h-1.422v-1.404l3.222-3.42h-5.4v-1.476h7.236v1.512l-3.6 3.834v-.486c1.212 0 2.166.342 2.862 1.026.708.672 1.062 1.59 1.062 2.754v.9c0 1.164-.36 2.088-1.08 2.772-.708.672-1.674 1.008-2.898 1.008Z" fill="#fff"/><circle cx="20" cy="95" r="16" fill="#7B58CF"/><circle cx="20" cy="95" r="18" stroke="#7B58CF" stroke-opacity=".3" stroke-width="4"/><path d="M16.151 101v-1.494l4.375-4.68c.636-.672 1.085-1.272 1.35-1.8.264-.528.395-1.044.395-1.548 0-.72-.21-1.29-.63-1.71-.407-.432-.965-.648-1.673-.648-.733 0-1.314.222-1.747.666-.42.432-.63 1.02-.63 1.764h-1.62c.024-.792.204-1.476.54-2.052a3.41 3.41 0 0 1 1.387-1.35c.587-.312 1.277-.468 2.07-.468.816 0 1.517.156 2.105.468a3.325 3.325 0 0 1 1.369 1.332c.323.564.485 1.236.485 2.016 0 .624-.174 1.284-.521 1.98-.336.696-.918 1.476-1.746 2.34l-3.547 3.708h5.977V101h-7.94Z" fill="#fff"/><circle cx="115" cy="20" r="16" fill="#7B58CF"/><circle cx="115" cy="20" r="18" stroke="#7B58CF" stroke-opacity=".3" stroke-width="4"/><path d="M111.224 26v-1.476h3.564v-10.26l-3.564 2.664v-1.854l2.97-2.214h2.214v11.664h2.916V26h-8.1Z" fill="#fff"/></g><defs><linearGradient id="dropdown-disclosure-structure__d" x1="163" y1="201" x2="163" y2="231" gradientUnits="userSpaceOnUse"><stop stop-color="#fff" stop-opacity="0"/><stop offset="1" stop-color="#fff"/></linearGradient><clipPath id="dropdown-disclosure-structure__a"><path fill="#fff" d="M0 0h608v297H0z"/></clipPath></defs></svg>