<svg width="392" height="184" fill="none" xmlns="http://www.w3.org/2000/svg"><path fill="#FBFAFD" d="M0 0h392v184H0z"/><g filter="url(#duo-feedback-cta__a)"><path d="M16 32c0-8.837 7.163-16 16-16h328c8.837 0 16 7.163 16 16v28H32c-8.837 0-16-7.163-16-16V32Z" fill="#CBE2F9"/><path d="m31.13 43-2.774-10.185h1.326l1.613 6.248a45.29 45.29 0 0 1 .677 3.15h-.158c.206-1.113.431-2.146.698-3.15l1.647-6.248h1.477l1.633 6.248c.267 1.004.5 2.037.712 3.15h-.178a44.98 44.98 0 0 1 .69-3.15l1.607-6.248h1.34L38.65 43h-1.51l-1.75-6.453a27.417 27.417 0 0 1-.636-3.083h.273c-.198 1.224-.376 2.119-.635 3.083L32.648 43h-1.517Zm12.976-4.58V43h-1.231V32.815h1.23v4.395h-.211c.464-1.408 1.353-1.948 2.508-1.948 1.545 0 2.591.95 2.591 2.885V43h-1.237v-4.751c0-1.176-.656-1.88-1.723-1.88-1.1 0-1.928.745-1.928 2.05Zm9.194 4.758c-1.45 0-2.605-.848-2.605-2.352 0-1.75 1.559-2.071 2.974-2.249 1.36-.17 1.962-.13 1.962-.697v-.041c0-.95-.54-1.497-1.6-1.497-1.1 0-1.695.588-1.934 1.12l-1.183-.389c.588-1.388 1.9-1.811 3.083-1.811 1.026 0 2.864.314 2.864 2.7V43h-1.21v-1.04h-.082c-.26.541-.977 1.218-2.27 1.218Zm.212-1.087c1.36 0 2.119-.916 2.119-1.853v-1.06c-.205.24-1.545.377-2.017.438-.895.116-1.681.404-1.681 1.272 0 .793.663 1.203 1.579 1.203Zm8.517-6.734v1.053h-3.95v-1.053h3.95Zm-2.802-1.818h1.23v7.479c0 .683.253.984.902.984.158 0 .424-.041.63-.082l.252 1.039a2.961 2.961 0 0 1-.916.137c-1.32 0-2.098-.732-2.098-1.983V33.54Zm4.388 3.151.602-3.875h1.408l-1.066 3.875h-.944Zm5.701 6.474c-1.572 0-2.666-.697-2.939-2.017l1.169-.28c.219.841.84 1.217 1.757 1.217 1.066 0 1.75-.526 1.75-1.155 0-.527-.37-.875-1.121-1.053l-1.272-.3c-1.388-.329-2.05-1.013-2.05-2.086 0-1.312 1.203-2.228 2.83-2.228 1.572 0 2.399.765 2.748 1.839l-1.115.287c-.212-.547-.642-1.08-1.627-1.08-.909 0-1.593.471-1.593 1.107 0 .567.39.882 1.286 1.094l1.155.273c1.388.328 2.037 1.019 2.037 2.065 0 1.34-1.224 2.317-3.015 2.317Zm11.745-7.807v1.053h-3.952v-1.053h3.952Zm-2.803-1.818h1.23v7.479c0 .683.253.984.903.984.157 0 .423-.041.628-.082l.253 1.039a2.962 2.962 0 0 1-.916.137c-1.319 0-2.098-.732-2.098-1.983V33.54Zm5.605 4.88V43h-1.23V32.815h1.23v4.395h-.212c.465-1.408 1.354-1.948 2.51-1.948 1.544 0 2.59.95 2.59 2.885V43h-1.237v-4.751c0-1.176-.657-1.88-1.723-1.88-1.1 0-1.928.745-1.928 2.05Zm10.268 4.745c-2.215 0-3.582-1.572-3.582-3.924 0-2.345 1.353-3.978 3.438-3.978 1.62 0 3.33.998 3.33 3.821v.513h-5.934v-1.04h5.27l-.574.384c0-1.505-.71-2.584-2.092-2.584-1.38 0-2.194 1.141-2.194 2.385v.69c0 1.703.943 2.64 2.345 2.64.902 0 1.579-.397 1.866-1.176l1.19.328c-.356 1.155-1.498 1.941-3.063 1.941Zm11.484 0c-1.572 0-2.666-.697-2.939-2.017l1.169-.28c.218.841.841 1.217 1.757 1.217 1.066 0 1.75-.526 1.75-1.155 0-.527-.37-.875-1.122-1.053l-1.271-.3c-1.388-.329-2.051-1.013-2.051-2.086 0-1.312 1.203-2.228 2.83-2.228 1.573 0 2.4.765 2.748 1.839l-1.114.287c-.212-.547-.643-1.08-1.627-1.08-.909 0-1.593.471-1.593 1.107 0 .567.39.882 1.286 1.094l1.155.273c1.387.328 2.037 1.019 2.037 2.065 0 1.34-1.224 2.317-3.015 2.317Zm4.799-.164v-7.643h1.231V43h-1.231Zm.622-8.894c-.465 0-.854-.362-.854-.813 0-.451.389-.813.854-.813.472 0 .861.362.861.813 0 .451-.389.813-.861.813Zm2.55 8.894v-.916l4.286-5.51V36.5h-4.149v-1.142h5.735v.978l-4.163 5.448v.075h4.3V43h-6.009Zm10.965.164c-2.215 0-3.582-1.572-3.582-3.924 0-2.345 1.353-3.978 3.438-3.978 1.62 0 3.329.998 3.329 3.821v.513h-5.933v-1.04h5.27l-.574.384c0-1.505-.711-2.584-2.092-2.584-1.381 0-2.194 1.141-2.194 2.385v.69c0 1.703.943 2.64 2.345 2.64.902 0 1.579-.397 1.866-1.176l1.189.328c-.355 1.155-1.497 1.941-3.062 1.941Zm10.602-.11c-1.148 0-1.715-.642-1.715-1.75v-8.49h1.23v8.183c0 .704.123.957.636.957.266 0 .376-.02.492-.055l.246 1.04a3.557 3.557 0 0 1-.889.116Zm2.14-.054v-7.643h1.23V43h-1.23Zm.622-8.894c-.465 0-.854-.362-.854-.813 0-.451.389-.813.854-.813.472 0 .861.362.861.813 0 .451-.389.813-.861.813ZM140.684 43v-7.643h1.196l.007 1.71h-.096c.308-1.238 1.244-1.846 2.235-1.846 1.108 0 1.812.752 2.017 1.86h-.164c.273-1.143 1.285-1.86 2.502-1.86 1.326 0 2.406.854 2.406 2.625V43h-1.237v-5.12c0-1.1-.718-1.538-1.538-1.538-1.033 0-1.661.704-1.661 1.668V43h-1.231v-5.243c0-.848-.636-1.415-1.497-1.415-.895 0-1.709.629-1.709 1.846V43h-1.23Zm12.263 0v-7.643h1.231V43h-1.231Zm.622-8.894c-.465 0-.854-.362-.854-.813 0-.451.389-.813.854-.813.472 0 .862.362.862.813 0 .451-.39.813-.862.813Zm5.777 1.251v1.053h-3.951v-1.053h3.951Zm-2.803-1.818h1.23v7.479c0 .683.253.984.903.984.157 0 .424-.041.629-.082l.253 1.039a2.964 2.964 0 0 1-.916.137c-1.32 0-2.099-.732-2.099-1.983V33.54Zm11.423 9.625c-2.078 0-3.48-1.579-3.48-3.937 0-2.393 1.402-3.965 3.48-3.965 2.085 0 3.493 1.572 3.493 3.965 0 2.358-1.408 3.937-3.493 3.937Zm0-1.1c1.545 0 2.249-1.334 2.249-2.837 0-1.518-.704-2.865-2.249-2.865-1.525 0-2.229 1.34-2.229 2.865 0 1.504.704 2.837 2.229 2.837Zm6.514-3.644V43h-1.23v-7.643h1.183l.006 1.853h-.17c.464-1.408 1.353-1.948 2.508-1.948 1.545 0 2.591.95 2.591 2.885V43h-1.237v-4.751c0-1.176-.656-1.88-1.723-1.88-1.1 0-1.928.745-1.928 2.05ZM185.623 43V32.815h3.486c2.379 0 3.473 1.326 3.473 3.144s-1.094 3.09-3.466 3.09h-2.768v-1.155h2.707c1.606 0 2.235-.739 2.235-1.935 0-1.21-.629-2.003-2.249-2.003h-2.119V43h-1.299Zm5.852 0-2.461-4.587h1.463L192.979 43h-1.504Zm5.598.096c-1.545 0-2.591-.95-2.591-2.885v-4.854h1.231v4.751c0 1.176.663 1.88 1.729 1.88 1.094 0 1.921-.745 1.921-2.05v-4.58h1.238V43h-1.19v-1.852h.164c-.471 1.435-1.381 1.948-2.502 1.948Zm9.242.068c-1.456 0-1.968-.923-2.221-1.347h-.137V43h-1.189V32.815h1.23v3.766h.096c.253-.403.724-1.32 2.215-1.32 1.907 0 3.24 1.518 3.24 3.938 0 2.434-1.326 3.965-3.234 3.965Zm-.184-1.1c1.429 0 2.167-1.272 2.167-2.879 0-1.585-.718-2.823-2.167-2.823-1.408 0-2.147 1.135-2.147 2.823 0 1.703.759 2.878 2.147 2.878Zm4.812 3.705.315-1.067.13.034c.752.199 1.292.035 1.668-1.06l.218-.635-2.919-7.684h1.347l1.627 4.533c.342.95.547 1.886.814 2.761h-.452c.26-.875.472-1.818.814-2.761l1.641-4.533h1.339l-3.356 8.785c-.465 1.216-1.203 1.77-2.283 1.77-.438 0-.773-.082-.903-.143Zm16.249-2.632c-2.72 0-4.559-2.003-4.559-5.223 0-3.233 1.866-5.236 4.477-5.236 2.154 0 3.815 1.353 4.184 3.329h-1.34c-.417-1.306-1.394-2.126-2.837-2.126-1.791 0-3.22 1.415-3.22 4.033 0 2.598 1.422 4.02 3.295 4.02 1.723 0 2.906-1.162 2.906-2.994l.389.075h-3.028V37.88h3.91v1.114c0 2.53-1.75 4.143-4.177 4.143Zm9.345.027c-2.215 0-3.582-1.572-3.582-3.924 0-2.345 1.354-3.978 3.439-3.978 1.62 0 3.329.998 3.329 3.821v.513h-5.934v-1.04h5.271l-.575.384c0-1.505-.711-2.584-2.091-2.584-1.381 0-2.195 1.141-2.195 2.385v.69c0 1.703.944 2.64 2.345 2.64.902 0 1.579-.397 1.866-1.176l1.19.328c-.356 1.155-1.497 1.941-3.063 1.941Zm4.949-.164v-7.643h1.197l.006 1.71h-.095c.307-1.238 1.244-1.846 2.235-1.846 1.108 0 1.812.752 2.017 1.86h-.164c.273-1.143 1.285-1.86 2.502-1.86 1.326 0 2.406.854 2.406 2.625V43h-1.237v-5.12c0-1.1-.718-1.538-1.539-1.538-1.032 0-1.661.704-1.661 1.668V43h-1.23v-5.243c0-.848-.636-1.415-1.497-1.415-.896 0-1.709.629-1.709 1.846V43h-1.231Zm14.862.164c-1.573 0-2.666-.697-2.94-2.017l1.169-.28c.219.841.841 1.217 1.757 1.217 1.066 0 1.75-.526 1.75-1.155 0-.527-.369-.875-1.121-1.053l-1.272-.3c-1.387-.329-2.05-1.013-2.05-2.086 0-1.312 1.203-2.228 2.83-2.228 1.572 0 2.399.765 2.748 1.839l-1.115.287c-.211-.547-.642-1.08-1.626-1.08-.91 0-1.593.471-1.593 1.107 0 .567.389.882 1.285 1.094l1.155.273c1.388.328 2.037 1.019 2.037 2.065 0 1.34-1.223 2.317-3.014 2.317Zm8.736-.164v-7.643h1.23V43h-1.23Zm.622-8.894c-.465 0-.854-.362-.854-.813 0-.451.389-.813.854-.813.472 0 .861.362.861.813 0 .451-.389.813-.861.813Zm3.999 4.314V43h-1.23v-7.643h1.182l.007 1.853h-.171c.465-1.408 1.354-1.948 2.509-1.948 1.545 0 2.591.95 2.591 2.885V43h-1.238v-4.751c0-1.176-.656-1.88-1.722-1.88-1.101 0-1.928.745-1.928 2.05Zm14-3.063v1.053h-3.951v-1.053h3.951Zm-2.803-1.818h1.231v7.479c0 .683.253.984.902.984.157 0 .424-.041.629-.082l.253 1.039a2.964 2.964 0 0 1-.916.137c-1.319 0-2.099-.732-2.099-1.983V33.54Zm5.606 4.88V43h-1.231V32.815h1.231v4.395h-.212c.465-1.408 1.353-1.948 2.509-1.948 1.545 0 2.591.95 2.591 2.885V43h-1.238v-4.751c0-1.176-.656-1.88-1.722-1.88-1.101 0-1.928.745-1.928 2.05Zm10.267 4.745c-2.214 0-3.582-1.572-3.582-3.924 0-2.345 1.354-3.978 3.439-3.978 1.62 0 3.329.998 3.329 3.821v.513h-5.934v-1.04h5.271l-.574.384c0-1.505-.711-2.584-2.092-2.584-1.381 0-2.194 1.141-2.194 2.385v.69c0 1.703.943 2.64 2.344 2.64.903 0 1.579-.397 1.866-1.176l1.19.328c-.356 1.155-1.497 1.941-3.063 1.941Zm8.887-.164v-7.643h1.19v1.176h.082c.28-.772 1.073-1.285 1.982-1.285.178 0 .479.014.622.02v1.238a4.64 4.64 0 0 0-.738-.069c-1.101 0-1.907.746-1.907 1.778V43h-1.231Zm8.258.164c-2.215 0-3.582-1.572-3.582-3.924 0-2.345 1.353-3.978 3.438-3.978 1.62 0 3.329.998 3.329 3.821v.513h-5.933v-1.04h5.27l-.574.384c0-1.505-.711-2.584-2.092-2.584-1.38 0-2.194 1.141-2.194 2.385v.69c0 1.703.943 2.64 2.345 2.64.902 0 1.579-.397 1.866-1.176l1.189.328c-.355 1.155-1.497 1.941-3.062 1.941Zm8.046 2.858c-1.695 0-2.673-.718-3.145-1.56l.998-.642c.322.445.8 1.128 2.147 1.128 1.217 0 2.098-.56 2.098-1.818v-1.531h-.116c-.26.437-.745 1.278-2.221 1.278-1.832 0-3.227-1.333-3.227-3.733 0-2.365 1.347-3.882 3.254-3.882 1.476 0 1.969.909 2.228 1.32h.117v-1.225h1.196v7.841c0 1.976-1.47 2.824-3.329 2.824Zm-.034-4.239c1.387 0 2.146-.998 2.146-2.666 0-1.62-.738-2.755-2.146-2.755-1.456 0-2.181 1.23-2.181 2.755 0 1.573.745 2.666 2.181 2.666ZM327.455 43v-7.643h1.231V43h-1.231Zm.622-8.894c-.465 0-.854-.362-.854-.813 0-.451.389-.813.854-.813.472 0 .861.362.861.813 0 .451-.389.813-.861.813Zm5.366 9.058c-1.572 0-2.666-.697-2.939-2.017l1.169-.28c.219.841.841 1.217 1.757 1.217 1.066 0 1.75-.526 1.75-1.155 0-.527-.369-.875-1.121-1.053l-1.272-.3c-1.388-.329-2.051-1.013-2.051-2.086 0-1.312 1.203-2.228 2.83-2.228 1.573 0 2.4.765 2.748 1.839l-1.114.287c-.212-.547-.642-1.08-1.627-1.08-.909 0-1.593.471-1.593 1.107 0 .567.39.882 1.286 1.094l1.155.273c1.388.328 2.037 1.019 2.037 2.065 0 1.34-1.224 2.317-3.015 2.317Zm7.807-7.807v1.053h-3.951v-1.053h3.951Zm-2.803-1.818h1.231v7.479c0 .683.253.984.902.984.157 0 .424-.041.629-.082l.253 1.039a2.964 2.964 0 0 1-.916.137c-1.319 0-2.099-.732-2.099-1.983V33.54ZM342.822 43v-7.643h1.19v1.176h.082c.28-.772 1.073-1.285 1.982-1.285.178 0 .479.014.622.02v1.238a4.64 4.64 0 0 0-.738-.069c-1.101 0-1.907.746-1.907 1.778V43h-1.231Zm5.387 2.769.314-1.067.13.034c.752.199 1.292.035 1.668-1.06l.219-.635-2.919-7.684h1.347l1.627 4.533c.342.95.547 1.886.813 2.761h-.451c.26-.875.472-1.818.814-2.761l1.64-4.533h1.34l-3.356 8.785c-.465 1.216-1.204 1.77-2.284 1.77-.437 0-.772-.082-.902-.143Zm9.536-5.838v-.075c0-1.867.574-2.263 1.518-2.83.601-.363 1.066-.917 1.066-1.71 0-.95-.738-1.551-1.661-1.551-.807 0-1.606.478-1.682 1.613h-1.298c.068-1.716 1.367-2.7 2.98-2.7 1.77 0 2.919 1.128 2.919 2.686 0 1.1-.506 1.867-1.388 2.407-.882.54-1.217.874-1.217 2.084v.076h-1.237Zm.636 3.158a.919.919 0 1 1 .916-.916c0 .506-.41.916-.916.916Z" fill="#28272D"/></g><g filter="url(#duo-feedback-cta__b)"><path d="M16 92c0-8.837 7.163-16 16-16h328c8.837 0 16 7.163 16 16v60c0 8.837-7.163 16-16 16H16V92Z" fill="#fff"/><path d="M28.67 93.963v-1.148h7.697v1.148h-3.192V103h-1.299v-9.037H28.67Zm10.678 4.457V103h-1.23V92.814h1.23v4.396h-.212c.465-1.408 1.353-1.948 2.508-1.948 1.546 0 2.591.95 2.591 2.885V103h-1.237v-4.751c0-1.176-.656-1.88-1.723-1.88-1.1 0-1.927.745-1.927 2.05Zm10.267 4.744c-2.215 0-3.582-1.572-3.582-3.924 0-2.344 1.354-3.978 3.439-3.978 1.62 0 3.329.998 3.329 3.821v.513h-5.934v-1.04h5.27l-.574.383c0-1.503-.71-2.583-2.091-2.583-1.381 0-2.195 1.141-2.195 2.385v.69c0 1.703.944 2.639 2.345 2.639.902 0 1.58-.396 1.866-1.175l1.19.328c-.356 1.155-1.497 1.941-3.063 1.941Zm8.887 2.693v-10.5h1.19v1.224h.136c.253-.403.725-1.32 2.215-1.32 1.907 0 3.24 1.518 3.24 3.938 0 2.434-1.326 3.965-3.233 3.965-1.456 0-1.969-.923-2.222-1.347h-.096v4.04h-1.23Zm3.363-3.794c1.429 0 2.167-1.271 2.167-2.877 0-1.586-.717-2.824-2.167-2.824-1.408 0-2.146 1.135-2.146 2.824 0 1.702.758 2.877 2.146 2.877Zm7.486 1.115c-1.45 0-2.605-.848-2.605-2.352 0-1.75 1.559-2.071 2.974-2.249 1.36-.17 1.962-.13 1.962-.697v-.041c0-.95-.54-1.497-1.6-1.497-1.1 0-1.695.588-1.934 1.12l-1.183-.389c.588-1.387 1.9-1.811 3.083-1.811 1.025 0 2.864.314 2.864 2.7V103h-1.21v-1.039h-.082c-.26.54-.977 1.217-2.27 1.217Zm.212-1.087c1.36 0 2.119-.916 2.119-1.853v-1.06c-.205.24-1.545.377-2.017.438-.896.116-1.682.404-1.682 1.272 0 .793.663 1.203 1.58 1.203Zm8.62 1.073c-2.079 0-3.48-1.579-3.48-3.937 0-2.393 1.401-3.965 3.48-3.965 1.476 0 2.68.779 3.096 2.112l-1.182.335c-.226-.786-.91-1.347-1.914-1.347-1.525 0-2.229 1.34-2.229 2.865 0 1.503.704 2.836 2.229 2.836 1.025 0 1.722-.581 1.948-1.408l1.176.335c-.41 1.361-1.627 2.174-3.124 2.174Zm6.043-2.912v-1.524h.225l3.268-3.37h1.524l-3.534 3.63h-.137l-1.346 1.264ZM83.07 103V92.814h1.23V103h-1.23Zm4.833 0-2.925-3.74.875-.867 3.63 4.607h-1.58Zm4.99.178c-1.449 0-2.604-.848-2.604-2.352 0-1.75 1.559-2.071 2.974-2.249 1.36-.17 1.962-.13 1.962-.697v-.041c0-.95-.54-1.497-1.6-1.497-1.1 0-1.695.588-1.935 1.12l-1.182-.389c.588-1.387 1.9-1.811 3.083-1.811 1.025 0 2.864.314 2.864 2.7V103h-1.21v-1.039h-.082c-.26.54-.977 1.217-2.27 1.217Zm.213-1.087c1.36 0 2.119-.916 2.119-1.853v-1.06c-.206.24-1.545.377-2.017.438-.895.116-1.682.404-1.682 1.272 0 .793.663 1.203 1.58 1.203Zm8.606 3.93c-1.695 0-2.673-.717-3.145-1.558l.998-.643c.322.445.8 1.128 2.147 1.128 1.217 0 2.099-.56 2.099-1.818v-1.531h-.117c-.259.437-.745 1.278-2.221 1.278-1.832 0-3.227-1.333-3.227-3.733 0-2.365 1.347-3.882 3.254-3.882 1.477 0 1.969.909 2.229 1.32h.116v-1.225h1.196v7.841c0 1.976-1.47 2.823-3.329 2.823Zm-.034-4.238c1.387 0 2.146-.998 2.146-2.666 0-1.62-.738-2.755-2.146-2.755-1.456 0-2.18 1.23-2.18 2.755 0 1.572.744 2.666 2.18 2.666Zm8.736 1.381c-2.215 0-3.582-1.572-3.582-3.924 0-2.344 1.354-3.978 3.439-3.978 1.62 0 3.329.998 3.329 3.821v.513h-5.934v-1.04h5.271l-.575.383c0-1.503-.711-2.583-2.091-2.583-1.381 0-2.195 1.141-2.195 2.385v.69c0 1.703.944 2.639 2.345 2.639.902 0 1.579-.396 1.866-1.175l1.19.328c-.356 1.155-1.498 1.941-3.063 1.941Zm8.887-.164v-7.643h1.189v1.176h.082c.281-.772 1.074-1.285 1.983-1.285.177 0 .478.014.622.02v1.238a4.643 4.643 0 0 0-.739-.069c-1.1 0-1.907.746-1.907 1.778V103h-1.23Zm8.258.164c-2.215 0-3.582-1.572-3.582-3.924 0-2.344 1.353-3.978 3.438-3.978 1.62 0 3.329.998 3.329 3.821v.513h-5.933v-1.04h5.27l-.574.383c0-1.503-.711-2.583-2.092-2.583-1.381 0-2.194 1.141-2.194 2.385v.69c0 1.703.943 2.639 2.344 2.639.903 0 1.58-.396 1.867-1.175l1.189.328c-.355 1.155-1.497 1.941-3.062 1.941Zm8.045 2.857c-1.695 0-2.672-.717-3.144-1.558l.998-.643c.321.445.8 1.128 2.146 1.128 1.217 0 2.099-.56 2.099-1.818v-1.531h-.116c-.26.437-.745 1.278-2.222 1.278-1.832 0-3.226-1.333-3.226-3.733 0-2.365 1.346-3.882 3.254-3.882 1.476 0 1.968.909 2.228 1.32h.116v-1.225h1.197v7.841c0 1.976-1.47 2.823-3.33 2.823Zm-.034-4.238c1.388 0 2.147-.998 2.147-2.666 0-1.62-.738-2.755-2.147-2.755-1.456 0-2.18 1.23-2.18 2.755 0 1.572.745 2.666 2.18 2.666Zm5.524 1.217v-7.643h1.23V103h-1.23Zm.622-8.894c-.465 0-.855-.362-.855-.813 0-.451.39-.814.855-.814.472 0 .861.363.861.814 0 .451-.389.813-.861.813Zm5.366 9.058c-1.572 0-2.666-.697-2.939-2.017l1.169-.28c.218.841.84 1.217 1.756 1.217 1.067 0 1.75-.526 1.75-1.155 0-.527-.369-.875-1.121-1.053l-1.271-.3c-1.388-.329-2.051-1.012-2.051-2.086 0-1.312 1.203-2.228 2.83-2.228 1.572 0 2.399.765 2.748 1.839l-1.114.287c-.212-.547-.643-1.08-1.627-1.08-.909 0-1.593.471-1.593 1.107 0 .567.39.882 1.285 1.094l1.156.273c1.387.328 2.037 1.019 2.037 2.065 0 1.34-1.224 2.317-3.015 2.317Zm7.807-7.807v1.053h-3.951v-1.053h3.951Zm-2.803-1.818h1.23v7.479c0 .683.253.984.903.984.157 0 .424-.041.629-.082l.253 1.039a2.96 2.96 0 0 1-.916.137c-1.32 0-2.099-.732-2.099-1.983v-7.574Zm4.375 9.461v-7.643h1.189v1.176h.082c.281-.772 1.074-1.285 1.983-1.285.178 0 .478.014.622.02v1.238a4.64 4.64 0 0 0-.738-.069c-1.101 0-1.908.746-1.908 1.778V103h-1.23Zm5.387 2.769.314-1.067.13.034c.752.199 1.292.035 1.668-1.059l.219-.636-2.919-7.684h1.346l1.627 4.533c.342.95.547 1.886.814 2.761h-.451c.259-.875.471-1.818.813-2.761l1.641-4.533h1.34l-3.357 8.785c-.465 1.216-1.203 1.77-2.283 1.77-.438 0-.772-.082-.902-.143Zm13.166-7.35V103h-1.231V92.814h1.231v4.396h-.212c.465-1.408 1.353-1.948 2.509-1.948 1.544 0 2.59.95 2.59 2.885V103h-1.237v-4.751c0-1.176-.656-1.88-1.723-1.88-1.1 0-1.927.745-1.927 2.05Zm9.194 4.759c-1.449 0-2.604-.848-2.604-2.352 0-1.75 1.558-2.071 2.973-2.249 1.361-.17 1.962-.13 1.962-.697v-.041c0-.95-.54-1.497-1.6-1.497-1.1 0-1.695.588-1.934 1.12l-1.183-.389c.588-1.387 1.901-1.811 3.083-1.811 1.026 0 2.865.314 2.865 2.7V103h-1.21v-1.039h-.082c-.26.54-.978 1.217-2.27 1.217Zm.212-1.087c1.36 0 2.119-.916 2.119-1.853v-1.06c-.205.24-1.545.377-2.017.438-.895.116-1.681.404-1.681 1.272 0 .793.663 1.203 1.579 1.203Zm8.107 1.073c-1.572 0-2.666-.697-2.939-2.017l1.169-.28c.219.841.841 1.217 1.757 1.217 1.066 0 1.75-.526 1.75-1.155 0-.527-.369-.875-1.121-1.053l-1.272-.3c-1.388-.329-2.051-1.012-2.051-2.086 0-1.312 1.203-2.228 2.83-2.228 1.573 0 2.4.765 2.748 1.839l-1.114.287c-.212-.547-.642-1.08-1.627-1.08-.909 0-1.593.471-1.593 1.107 0 .567.39.882 1.286 1.094l1.155.273c1.388.328 2.037 1.019 2.037 2.065 0 1.34-1.224 2.317-3.015 2.317Zm10.876.014c-1.449 0-2.604-.848-2.604-2.352 0-1.75 1.558-2.071 2.973-2.249 1.361-.17 1.962-.13 1.962-.697v-.041c0-.95-.54-1.497-1.599-1.497-1.101 0-1.696.588-1.935 1.12l-1.182-.389c.587-1.387 1.9-1.811 3.083-1.811 1.025 0 2.864.314 2.864 2.7V103h-1.21v-1.039h-.082c-.26.54-.978 1.217-2.27 1.217Zm.212-1.087c1.361 0 2.119-.916 2.119-1.853v-1.06c-.205.24-1.545.377-2.016.438-.896.116-1.682.404-1.682 1.272 0 .793.663 1.203 1.579 1.203Zm12.647 1.046c-1.791 0-3.131-1.149-3.2-2.707h1.258c.082.909.916 1.565 1.942 1.565 1.23 0 2.126-.936 2.126-2.228 0-1.313-.93-2.29-2.208-2.29-.629 0-1.34.225-1.743.533l-1.217-.15.601-5.046h5.36v1.142h-4.266l-.349 2.974h.055c.417-.349 1.094-.595 1.798-.595 1.866 0 3.24 1.442 3.24 3.411 0 1.955-1.435 3.391-3.397 3.391Zm9.632 0c-2.721 0-4.56-2.003-4.56-5.223 0-3.233 1.866-5.236 4.478-5.236 2.153 0 3.814 1.353 4.183 3.329h-1.34c-.417-1.306-1.394-2.126-2.837-2.126-1.791 0-3.219 1.415-3.219 4.033 0 2.598 1.422 4.02 3.295 4.02 1.722 0 2.905-1.163 2.905-2.995l.389.076h-3.028V97.88h3.91v1.114c0 2.529-1.75 4.143-4.176 4.143Zm6.282-.137V92.814h3.609c2.126 0 3.131 1.21 3.131 2.7 0 1.306-.779 1.901-1.668 2.14v.096c.95.061 2.064.936 2.064 2.536 0 1.538-1.011 2.714-3.411 2.714h-3.725Zm1.299-1.148h2.392c1.586 0 2.195-.698 2.195-1.58 0-1.018-.821-1.893-2.126-1.893h-2.461v3.473Zm0-4.567h2.242c1.094 0 1.955-.69 1.955-1.743 0-.882-.595-1.58-1.914-1.58h-2.283v3.323Zm14.246 5.879c-1.573 0-2.666-.697-2.94-2.017l1.169-.28c.219.841.841 1.217 1.757 1.217 1.066 0 1.75-.526 1.75-1.155 0-.527-.369-.875-1.121-1.053l-1.272-.3c-1.387-.329-2.05-1.012-2.05-2.086 0-1.312 1.203-2.228 2.83-2.228 1.572 0 2.399.765 2.748 1.839l-1.114.287c-.212-.547-.643-1.08-1.627-1.08-.91 0-1.593.471-1.593 1.107 0 .567.389.882 1.285 1.094l1.155.273c1.388.328 2.037 1.019 2.037 2.065 0 1.34-1.223 2.317-3.014 2.317Zm4.799-.164v-7.643h1.23V103h-1.23Zm.622-8.894c-.465 0-.855-.362-.855-.813 0-.451.39-.814.855-.814.471 0 .861.363.861.814 0 .451-.39.813-.861.813Zm2.549 8.894v-.916l4.287-5.51V96.5h-4.15v-1.142h5.735v.978l-4.163 5.448v.075h4.3V103h-6.009Zm10.965.164c-2.215 0-3.582-1.572-3.582-3.924 0-2.344 1.354-3.978 3.439-3.978 1.62 0 3.329.998 3.329 3.821v.513h-5.934v-1.04h5.271l-.575.383c0-1.503-.71-2.583-2.091-2.583-1.381 0-2.195 1.141-2.195 2.385v.69c0 1.703.944 2.639 2.345 2.639.902 0 1.579-.396 1.866-1.175l1.19.328c-.356 1.155-1.497 1.941-3.063 1.941Zm10.603-.109c-1.149 0-1.716-.643-1.716-1.75v-8.49h1.23v8.182c0 .704.123.957.636.957.267 0 .376-.02.492-.055l.246 1.039c-.218.062-.56.117-.888.117Zm2.139-.055v-7.643h1.231V103h-1.231Zm.623-8.894c-.465 0-.855-.362-.855-.813 0-.451.39-.814.855-.814.471 0 .861.363.861.814 0 .451-.39.813-.861.813Zm2.768 8.894v-7.643h1.196l.007 1.71h-.096c.308-1.238 1.245-1.846 2.236-1.846 1.107 0 1.811.752 2.016 1.86h-.164c.274-1.142 1.286-1.86 2.502-1.86 1.326 0 2.407.854 2.407 2.625V103h-1.238v-5.12c0-1.1-.717-1.538-1.538-1.538-1.032 0-1.661.704-1.661 1.668V103h-1.23v-5.243c0-.848-.636-1.415-1.497-1.415-.896 0-1.709.629-1.709 1.846V103h-1.231Zm12.264 0v-7.643h1.23V103h-1.23Zm.622-8.894c-.465 0-.855-.362-.855-.813 0-.451.39-.814.855-.814.471 0 .861.363.861.814 0 .451-.39.813-.861.813Zm5.776 1.251v1.053H297.5v-1.053h3.951Zm-2.803-1.818h1.231v7.479c0 .683.253.984.902.984.157 0 .424-.041.629-.082l.253 1.039a2.956 2.956 0 0 1-.916.137c-1.319 0-2.099-.732-2.099-1.983v-7.574Zm8.313 12.318v-10.5h1.189v1.224h.137c.253-.403.725-1.32 2.215-1.32 1.907 0 3.24 1.518 3.24 3.938 0 2.434-1.326 3.965-3.233 3.965-1.456 0-1.969-.923-2.222-1.347h-.096v4.04h-1.23Zm3.363-3.794c1.429 0 2.167-1.271 2.167-2.877 0-1.586-.718-2.824-2.167-2.824-1.408 0-2.146 1.135-2.146 2.824 0 1.702.759 2.877 2.146 2.877Zm8.422 1.101c-2.215 0-3.582-1.572-3.582-3.924 0-2.344 1.354-3.978 3.439-3.978 1.62 0 3.329.998 3.329 3.821v.513h-5.934v-1.04h5.271l-.575.383c0-1.503-.711-2.583-2.091-2.583-1.381 0-2.195 1.141-2.195 2.385v.69c0 1.703.944 2.639 2.345 2.639.902 0 1.579-.396 1.866-1.175l1.19.328c-.356 1.155-1.497 1.941-3.063 1.941Zm4.949-.164v-7.643h1.19v1.176h.082c.28-.772 1.073-1.285 1.982-1.285.178 0 .479.014.622.02v1.238a4.64 4.64 0 0 0-.738-.069c-1.101 0-1.907.746-1.907 1.778V103h-1.231ZM29.08 125.857v-10.5h1.19v1.224h.136c.253-.403.725-1.319 2.215-1.319 1.907 0 3.24 1.517 3.24 3.937 0 2.434-1.326 3.965-3.233 3.965-1.456 0-1.969-.923-2.222-1.347h-.095v4.04h-1.23Zm3.363-3.794c1.43 0 2.167-1.271 2.167-2.877 0-1.586-.717-2.824-2.167-2.824-1.408 0-2.146 1.135-2.146 2.824 0 1.702.759 2.877 2.146 2.877Zm7.486 1.115c-1.45 0-2.605-.848-2.605-2.352 0-1.75 1.559-2.071 2.974-2.249 1.36-.171 1.962-.13 1.962-.697v-.041c0-.95-.54-1.497-1.6-1.497-1.1 0-1.695.588-1.934 1.121l-1.183-.39c.588-1.387 1.9-1.811 3.083-1.811 1.025 0 2.864.314 2.864 2.7V123h-1.21v-1.039h-.082c-.26.54-.977 1.217-2.27 1.217Zm.212-1.087c1.36 0 2.119-.916 2.119-1.853v-1.059c-.205.239-1.545.376-2.017.437-.895.116-1.681.404-1.681 1.272 0 .793.663 1.203 1.579 1.203Zm8.62 1.073c-2.078 0-3.48-1.579-3.48-3.937 0-2.393 1.402-3.965 3.48-3.965 1.476 0 2.68.779 3.096 2.112l-1.182.335c-.226-.786-.91-1.347-1.914-1.347-1.525 0-2.229 1.34-2.229 2.865 0 1.503.704 2.836 2.229 2.836 1.025 0 1.722-.581 1.948-1.408l1.176.335c-.41 1.361-1.627 2.174-3.124 2.174Zm6.043-2.912v-1.524h.225l3.268-3.371h1.524l-3.534 3.63h-.137l-1.346 1.265ZM53.648 123v-10.186h1.23V123h-1.23Zm4.833 0-2.925-3.739.875-.868L60.06 123h-1.58Zm4.99.178c-1.448 0-2.604-.848-2.604-2.352 0-1.75 1.559-2.071 2.974-2.249 1.36-.171 1.962-.13 1.962-.697v-.041c0-.95-.54-1.497-1.6-1.497-1.1 0-1.695.588-1.934 1.121l-1.183-.39c.588-1.387 1.9-1.811 3.083-1.811 1.025 0 2.864.314 2.864 2.7V123h-1.21v-1.039h-.082c-.26.54-.977 1.217-2.27 1.217Zm.213-1.087c1.36 0 2.119-.916 2.119-1.853v-1.059c-.205.239-1.545.376-2.017.437-.895.116-1.681.404-1.681 1.272 0 .793.663 1.203 1.579 1.203Zm8.606 3.93c-1.695 0-2.673-.717-3.145-1.558l.999-.643c.32.445.8 1.128 2.146 1.128 1.217 0 2.099-.56 2.099-1.818v-1.531h-.117c-.26.437-.745 1.278-2.221 1.278-1.832 0-3.227-1.333-3.227-3.732 0-2.366 1.347-3.883 3.254-3.883 1.477 0 1.969.909 2.229 1.319h.116v-1.224h1.196v7.841c0 1.976-1.47 2.823-3.329 2.823Zm-.034-4.238c1.388 0 2.146-.998 2.146-2.666 0-1.62-.738-2.755-2.146-2.755-1.456 0-2.18 1.231-2.18 2.755 0 1.572.744 2.666 2.18 2.666Zm8.736 1.381c-2.215 0-3.582-1.572-3.582-3.924 0-2.344 1.354-3.978 3.439-3.978 1.62 0 3.329.998 3.329 3.821v.513h-5.934v-1.039h5.27l-.574.382c0-1.503-.71-2.584-2.091-2.584-1.381 0-2.195 1.142-2.195 2.386v.691c0 1.702.944 2.638 2.345 2.638.902 0 1.58-.396 1.866-1.175l1.19.328c-.356 1.155-1.497 1.941-3.063 1.941Zm12.442-7.807v1.053h-4.498v-1.053h4.498ZM90.439 123v-8.661c0-1.326 1.06-2.003 2.174-2.003.581 0 .964.123 1.149.205l-.342 1.053c-.13-.041-.321-.116-.663-.116-.759 0-1.087.396-1.087 1.134V123h-1.23Zm7.595.164c-2.078 0-3.48-1.579-3.48-3.937 0-2.393 1.402-3.965 3.48-3.965 2.085 0 3.493 1.572 3.493 3.965 0 2.358-1.408 3.937-3.493 3.937Zm0-1.101c1.545 0 2.249-1.333 2.249-2.836 0-1.518-.704-2.865-2.249-2.865-1.524 0-2.228 1.34-2.228 2.865 0 1.503.704 2.836 2.228 2.836Zm5.284.937v-7.643h1.19v1.176h.082c.28-.772 1.073-1.285 1.982-1.285.178 0 .479.014.622.021v1.237a4.619 4.619 0 0 0-.738-.068c-1.101 0-1.907.745-1.907 1.777V123h-1.231Zm12.223-7.643v1.053h-3.951v-1.053h3.951Zm-2.803-1.818h1.231v7.479c0 .683.253.984.902.984.157 0 .424-.041.629-.082l.253 1.039a2.96 2.96 0 0 1-.916.137c-1.319 0-2.099-.732-2.099-1.983v-7.574Zm5.606 4.881V123h-1.231v-10.186h1.231v4.396h-.212c.465-1.408 1.353-1.948 2.509-1.948 1.545 0 2.59.95 2.59 2.884V123h-1.237v-4.751c0-1.176-.656-1.88-1.723-1.88-1.1 0-1.927.745-1.927 2.051Zm10.267 4.744c-2.215 0-3.582-1.572-3.582-3.924 0-2.344 1.354-3.978 3.439-3.978 1.62 0 3.329.998 3.329 3.821v.513h-5.934v-1.039h5.271l-.574.382c0-1.503-.711-2.584-2.092-2.584-1.381 0-2.195 1.142-2.195 2.386v.691c0 1.702.944 2.638 2.345 2.638.903 0 1.579-.396 1.866-1.175l1.19.328c-.356 1.155-1.497 1.941-3.063 1.941Zm9.037-.164v-10.186h3.487c2.379 0 3.472 1.327 3.472 3.145s-1.093 3.09-3.465 3.09h-2.769v-1.155h2.707c1.607 0 2.235-.739 2.235-1.935 0-1.21-.628-2.003-2.249-2.003h-2.119V123h-1.299Zm5.852 0-2.461-4.587h1.463l2.502 4.587H143.5Zm5.599.096c-1.545 0-2.591-.95-2.591-2.885v-4.854h1.23v4.751c0 1.176.663 1.88 1.73 1.88 1.094 0 1.921-.745 1.921-2.05v-4.581h1.237V123h-1.189v-1.853h.164c-.472 1.436-1.381 1.949-2.502 1.949Zm9.242.068c-1.456 0-1.969-.923-2.222-1.347h-.137V123h-1.189v-10.186h1.23v3.767h.096c.253-.403.725-1.319 2.215-1.319 1.907 0 3.24 1.517 3.24 3.937 0 2.434-1.326 3.965-3.233 3.965Zm-.185-1.101c1.429 0 2.167-1.271 2.167-2.877 0-1.586-.718-2.824-2.167-2.824-1.408 0-2.146 1.135-2.146 2.824 0 1.702.759 2.877 2.146 2.877Zm4.813 3.706.314-1.067.13.034c.752.199 1.292.035 1.668-1.059l.219-.636-2.919-7.684h1.347l1.626 4.533c.342.95.547 1.886.814 2.761h-.451c.26-.875.471-1.818.813-2.761l1.641-4.533h1.34l-3.357 8.785c-.465 1.216-1.203 1.77-2.283 1.77-.437 0-.772-.082-.902-.143Zm12.311-2.632c-2.72 0-4.559-2.003-4.559-5.223 0-3.233 1.866-5.236 4.477-5.236 2.154 0 3.815 1.353 4.184 3.329h-1.34c-.417-1.306-1.395-2.126-2.837-2.126-1.791 0-3.22 1.415-3.22 4.033 0 2.598 1.422 4.02 3.295 4.02 1.723 0 2.906-1.163 2.906-2.995l.389.076h-3.028v-1.135h3.91v1.114c0 2.529-1.75 4.143-4.177 4.143Zm9.345.027c-2.215 0-3.582-1.572-3.582-3.924 0-2.344 1.353-3.978 3.438-3.978 1.621 0 3.33.998 3.33 3.821v.513h-5.934v-1.039h5.27l-.574.382c0-1.503-.711-2.584-2.092-2.584-1.38 0-2.194 1.142-2.194 2.386v.691c0 1.702.943 2.638 2.345 2.638.902 0 1.579-.396 1.866-1.175l1.19.328c-.356 1.155-1.498 1.941-3.063 1.941Zm4.949-.164v-7.643h1.197l.006 1.709h-.095c.307-1.237 1.244-1.845 2.235-1.845 1.107 0 1.812.752 2.017 1.859h-.164c.273-1.142 1.285-1.859 2.501-1.859 1.327 0 2.407.854 2.407 2.625V123h-1.238v-5.12c0-1.101-.717-1.538-1.538-1.538-1.032 0-1.661.704-1.661 1.668V123h-1.23v-5.243c0-.848-.636-1.415-1.497-1.415-.896 0-1.709.629-1.709 1.846V123h-1.231Zm14.862.164c-1.573 0-2.666-.697-2.94-2.017l1.169-.28c.219.841.841 1.217 1.757 1.217 1.066 0 1.75-.526 1.75-1.155 0-.527-.369-.875-1.121-1.053l-1.272-.301c-1.387-.328-2.05-1.012-2.05-2.085 0-1.312 1.203-2.228 2.83-2.228 1.572 0 2.399.765 2.748 1.839l-1.115.287c-.212-.547-.642-1.08-1.627-1.08-.909 0-1.592.471-1.592 1.107 0 .567.389.882 1.285 1.094l1.155.273c1.388.328 2.037 1.019 2.037 2.065 0 1.34-1.223 2.317-3.014 2.317Zm8.736 2.693v-10.5h1.189v1.224h.137c.253-.403.725-1.319 2.215-1.319 1.907 0 3.24 1.517 3.24 3.937 0 2.434-1.326 3.965-3.233 3.965-1.456 0-1.969-.923-2.222-1.347h-.096v4.04h-1.23Zm3.363-3.794c1.429 0 2.167-1.271 2.167-2.877 0-1.586-.718-2.824-2.167-2.824-1.408 0-2.146 1.135-2.146 2.824 0 1.702.758 2.877 2.146 2.877Zm7.486 1.115c-1.45 0-2.605-.848-2.605-2.352 0-1.75 1.559-2.071 2.974-2.249 1.36-.171 1.962-.13 1.962-.697v-.041c0-.95-.54-1.497-1.6-1.497-1.101 0-1.695.588-1.935 1.121l-1.182-.39c.588-1.387 1.9-1.811 3.083-1.811 1.025 0 2.864.314 2.864 2.7V123h-1.21v-1.039h-.082c-.26.54-.978 1.217-2.269 1.217Zm.211-1.087c1.361 0 2.12-.916 2.12-1.853v-1.059c-.206.239-1.545.376-2.017.437-.896.116-1.682.404-1.682 1.272 0 .793.663 1.203 1.579 1.203Zm8.621 1.073c-2.079 0-3.48-1.579-3.48-3.937 0-2.393 1.401-3.965 3.48-3.965 1.476 0 2.679.779 3.096 2.112l-1.182.335c-.226-.786-.91-1.347-1.914-1.347-1.525 0-2.229 1.34-2.229 2.865 0 1.503.704 2.836 2.229 2.836 1.025 0 1.722-.581 1.948-1.408l1.176.335c-.411 1.361-1.627 2.174-3.124 2.174Zm6.043-2.912v-1.524h.225l3.268-3.371h1.524l-3.534 3.63h-.137l-1.346 1.265ZM237.74 123v-10.186h1.231V123h-1.231Zm4.833 0-2.926-3.739.875-.868 3.63 4.607h-1.579Zm4.99.178c-1.449 0-2.604-.848-2.604-2.352 0-1.75 1.559-2.071 2.974-2.249 1.36-.171 1.962-.13 1.962-.697v-.041c0-.95-.541-1.497-1.6-1.497-1.101 0-1.695.588-1.935 1.121l-1.182-.39c.588-1.387 1.9-1.811 3.083-1.811 1.025 0 2.864.314 2.864 2.7V123h-1.21v-1.039h-.082c-.26.54-.978 1.217-2.27 1.217Zm.212-1.087c1.361 0 2.12-.916 2.12-1.853v-1.059c-.206.239-1.545.376-2.017.437-.896.116-1.682.404-1.682 1.272 0 .793.663 1.203 1.579 1.203Zm8.607 3.93c-1.695 0-2.673-.717-3.145-1.558l.998-.643c.322.445.8 1.128 2.147 1.128 1.217 0 2.098-.56 2.098-1.818v-1.531h-.116c-.26.437-.745 1.278-2.221 1.278-1.832 0-3.227-1.333-3.227-3.732 0-2.366 1.347-3.883 3.254-3.883 1.476 0 1.969.909 2.228 1.319h.117v-1.224h1.196v7.841c0 1.976-1.47 2.823-3.329 2.823Zm-.034-4.238c1.387 0 2.146-.998 2.146-2.666 0-1.62-.738-2.755-2.146-2.755-1.456 0-2.181 1.231-2.181 2.755 0 1.572.745 2.666 2.181 2.666Zm8.736 1.381c-2.215 0-3.582-1.572-3.582-3.924 0-2.344 1.353-3.978 3.438-3.978 1.621 0 3.33.998 3.33 3.821v.513h-5.934v-1.039h5.27l-.574.382c0-1.503-.711-2.584-2.092-2.584-1.38 0-2.194 1.142-2.194 2.386v.691c0 1.702.943 2.638 2.345 2.638.902 0 1.579-.396 1.866-1.175l1.189.328c-.355 1.155-1.497 1.941-3.062 1.941Zm11.895-7.807v1.053h-3.952v-1.053h3.952Zm-2.803-1.818h1.23v7.479c0 .683.253.984.903.984.157 0 .423-.041.629-.082l.252 1.039a2.951 2.951 0 0 1-.916.137c-1.319 0-2.098-.732-2.098-1.983v-7.574Zm4.525 12.23.315-1.067.13.034c.751.199 1.292.035 1.667-1.059l.219-.636-2.919-7.684h1.347l1.627 4.533c.342.95.547 1.886.813 2.761h-.451c.26-.875.472-1.818.814-2.761l1.64-4.533h1.34l-3.356 8.785c-.465 1.216-1.203 1.77-2.283 1.77-.438 0-.773-.082-.903-.143Zm7.998.088v-10.5h1.19v1.224h.136c.253-.403.725-1.319 2.215-1.319 1.907 0 3.24 1.517 3.24 3.937 0 2.434-1.326 3.965-3.233 3.965-1.456 0-1.969-.923-2.222-1.347h-.095v4.04h-1.231Zm3.363-3.794c1.429 0 2.167-1.271 2.167-2.877 0-1.586-.717-2.824-2.167-2.824-1.408 0-2.146 1.135-2.146 2.824 0 1.702.759 2.877 2.146 2.877Zm8.422 1.101c-2.214 0-3.582-1.572-3.582-3.924 0-2.344 1.354-3.978 3.439-3.978 1.62 0 3.329.998 3.329 3.821v.513h-5.934v-1.039h5.271l-.574.382c0-1.503-.711-2.584-2.092-2.584-1.381 0-2.195 1.142-2.195 2.386v.691c0 1.702.944 2.638 2.345 2.638.903 0 1.579-.396 1.866-1.175l1.19.328c-.356 1.155-1.497 1.941-3.063 1.941Zm5.879-.075a.92.92 0 1 1 .923-.923.923.923 0 0 1-.923.923Z" fill="#28272D"/><path d="M33.394 153.137c-2.721 0-4.56-2.003-4.56-5.223 0-3.233 1.866-5.236 4.478-5.236 2.153 0 3.814 1.353 4.183 3.329h-1.34c-.417-1.306-1.394-2.126-2.837-2.126-1.79 0-3.22 1.415-3.22 4.033 0 2.598 1.422 4.02 3.296 4.02 1.722 0 2.905-1.163 2.905-2.995l.39.076H33.66v-1.135h3.91v1.114c0 2.529-1.75 4.143-4.176 4.143Zm6.131-.137v-7.643h1.23V153h-1.23Zm.623-8.894c-.465 0-.855-.362-.855-.813 0-.451.39-.814.855-.814.471 0 .86.363.86.814 0 .451-.389.813-.86.813ZM45.123 153l-2.919-7.643h1.347l1.627 4.533c.341.943.553 1.886.82 2.761h-.451c.267-.875.471-1.818.813-2.761l1.627-4.533h1.347L46.416 153h-1.292Zm8.606.164c-2.214 0-3.582-1.572-3.582-3.924 0-2.344 1.354-3.978 3.439-3.978 1.62 0 3.329.998 3.329 3.821v.513h-5.934v-1.039h5.27l-.573.382c0-1.503-.711-2.584-2.092-2.584-1.38 0-2.194 1.142-2.194 2.386v.691c0 1.702.943 2.638 2.344 2.638.903 0 1.58-.396 1.866-1.175l1.19.328c-.355 1.155-1.497 1.941-3.063 1.941Zm12.442-7.807v1.053h-4.498v-1.053h4.498ZM63.178 153v-8.661c0-1.326 1.06-2.003 2.174-2.003.58 0 .963.123 1.148.205l-.342 1.053c-.13-.041-.321-.116-.663-.116-.759 0-1.087.396-1.087 1.134V153h-1.23Zm7.697.164c-2.215 0-3.582-1.572-3.582-3.924 0-2.344 1.353-3.978 3.438-3.978 1.62 0 3.33.998 3.33 3.821v.513h-5.934v-1.039h5.27l-.574.382c0-1.503-.71-2.584-2.092-2.584-1.38 0-2.194 1.142-2.194 2.386v.691c0 1.702.944 2.638 2.345 2.638.902 0 1.579-.396 1.866-1.175l1.19.328c-.356 1.155-1.498 1.941-3.063 1.941Zm8.162 0c-2.215 0-3.582-1.572-3.582-3.924 0-2.344 1.354-3.978 3.439-3.978 1.62 0 3.329.998 3.329 3.821v.513h-5.934v-1.039h5.27l-.574.382c0-1.503-.71-2.584-2.091-2.584-1.381 0-2.195 1.142-2.195 2.386v.691c0 1.702.944 2.638 2.345 2.638.902 0 1.579-.396 1.866-1.175l1.19.328c-.356 1.155-1.497 1.941-3.063 1.941Zm7.814 0c-1.908 0-3.234-1.531-3.234-3.965 0-2.42 1.333-3.937 3.24-3.937 1.49 0 1.962.916 2.215 1.319h.096v-3.767h1.23V153H89.21v-1.183h-.137c-.253.424-.765 1.347-2.221 1.347Zm.184-1.101c1.388 0 2.147-1.175 2.147-2.877 0-1.689-.739-2.824-2.147-2.824-1.45 0-2.167 1.238-2.167 2.824 0 1.606.738 2.877 2.167 2.877Zm9.071 1.101c-1.456 0-1.968-.923-2.221-1.347h-.137V153h-1.19v-10.186h1.231v3.767h.096c.253-.403.724-1.319 2.215-1.319 1.907 0 3.24 1.517 3.24 3.937 0 2.434-1.326 3.965-3.234 3.965Zm-.184-1.101c1.429 0 2.167-1.271 2.167-2.877 0-1.586-.718-2.824-2.167-2.824-1.408 0-2.147 1.135-2.147 2.824 0 1.702.76 2.877 2.147 2.877Zm7.485 1.115c-1.449 0-2.604-.848-2.604-2.352 0-1.75 1.558-2.071 2.973-2.249 1.361-.171 1.962-.13 1.962-.697v-.041c0-.95-.54-1.497-1.599-1.497-1.101 0-1.696.588-1.935 1.121l-1.183-.39c.588-1.387 1.901-1.811 3.083-1.811 1.026 0 2.865.314 2.865 2.7V153h-1.21v-1.039h-.082c-.26.54-.978 1.217-2.27 1.217Zm.212-1.087c1.36 0 2.119-.916 2.119-1.853v-1.059c-.205.239-1.545.376-2.016.437-.896.116-1.682.404-1.682 1.272 0 .793.663 1.203 1.579 1.203Zm8.62 1.073c-2.078 0-3.479-1.579-3.479-3.937 0-2.393 1.401-3.965 3.479-3.965 1.477 0 2.68.779 3.097 2.112l-1.183.335c-.225-.786-.909-1.347-1.914-1.347-1.524 0-2.228 1.34-2.228 2.865 0 1.503.704 2.836 2.228 2.836 1.026 0 1.723-.581 1.949-1.408l1.175.335c-.41 1.361-1.627 2.174-3.124 2.174Zm6.043-2.912v-1.524h.226l3.267-3.371h1.525l-3.534 3.63h-.137l-1.347 1.265ZM117.127 153v-10.186h1.23V153h-1.23Zm4.833 0-2.926-3.739.875-.868 3.63 4.607h-1.579Zm9.796-7.643v1.053h-3.951v-1.053h3.951Zm-2.803-1.818h1.231v7.479c0 .683.253.984.902.984.157 0 .424-.041.629-.082l.253 1.039a2.96 2.96 0 0 1-.916.137c-1.32 0-2.099-.732-2.099-1.983v-7.574Zm7.349 9.625c-2.078 0-3.48-1.579-3.48-3.937 0-2.393 1.402-3.965 3.48-3.965 2.085 0 3.493 1.572 3.493 3.965 0 2.358-1.408 3.937-3.493 3.937Zm0-1.101c1.545 0 2.249-1.333 2.249-2.836 0-1.518-.704-2.865-2.249-2.865-1.525 0-2.229 1.34-2.229 2.865 0 1.503.704 2.836 2.229 2.836Zm9.221.937v-7.643h1.231V153h-1.231Zm.623-8.894c-.465 0-.855-.362-.855-.813 0-.451.39-.814.855-.814.471 0 .861.363.861.814 0 .451-.39.813-.861.813Zm2.768 8.894v-7.643h1.196l.007 1.709h-.096c.308-1.237 1.245-1.845 2.236-1.845 1.107 0 1.811.752 2.016 1.859h-.164c.274-1.142 1.286-1.859 2.502-1.859 1.327 0 2.407.854 2.407 2.625V153h-1.238v-5.12c0-1.101-.718-1.538-1.538-1.538-1.032 0-1.661.704-1.661 1.668V153h-1.23v-5.243c0-.848-.636-1.415-1.497-1.415-.896 0-1.709.629-1.709 1.846V153h-1.231Zm12.264 2.857v-10.5h1.189v1.224h.137c.253-.403.725-1.319 2.215-1.319 1.907 0 3.24 1.517 3.24 3.937 0 2.434-1.326 3.965-3.233 3.965-1.456 0-1.969-.923-2.222-1.347h-.096v4.04h-1.23Zm3.363-3.794c1.429 0 2.167-1.271 2.167-2.877 0-1.586-.718-2.824-2.167-2.824-1.408 0-2.146 1.135-2.146 2.824 0 1.702.758 2.877 2.146 2.877Zm5.209.937v-7.643h1.189v1.176h.082c.281-.772 1.074-1.285 1.983-1.285.178 0 .478.014.622.021v1.237a4.619 4.619 0 0 0-.738-.068c-1.101 0-1.908.745-1.908 1.777V153h-1.23Zm8.155.164c-2.078 0-3.479-1.579-3.479-3.937 0-2.393 1.401-3.965 3.479-3.965 2.085 0 3.493 1.572 3.493 3.965 0 2.358-1.408 3.937-3.493 3.937Zm0-1.101c1.545 0 2.249-1.333 2.249-2.836 0-1.518-.704-2.865-2.249-2.865-1.524 0-2.228 1.34-2.228 2.865 0 1.503.704 2.836 2.228 2.836Zm7.219.937-2.919-7.643h1.347l1.627 4.533c.342.943.553 1.886.82 2.761h-.451c.266-.875.472-1.818.813-2.761l1.627-4.533h1.347L186.416 153h-1.292Zm8.606.164c-2.214 0-3.582-1.572-3.582-3.924 0-2.344 1.354-3.978 3.439-3.978 1.62 0 3.329.998 3.329 3.821v.513h-5.934v-1.039h5.271l-.574.382c0-1.503-.711-2.584-2.092-2.584-1.381 0-2.194 1.142-2.194 2.386v.691c0 1.702.943 2.638 2.344 2.638.903 0 1.579-.396 1.867-1.175l1.189.328c-.355 1.155-1.497 1.941-3.063 1.941Zm11.895-7.807v1.053h-3.951v-1.053h3.951Zm-2.803-1.818h1.231v7.479c0 .683.253.984.902.984.157 0 .424-.041.629-.082l.253 1.039a2.96 2.96 0 0 1-.916.137c-1.319 0-2.099-.732-2.099-1.983v-7.574Zm5.606 4.881V153h-1.231v-10.186h1.231v4.396h-.212c.465-1.408 1.353-1.948 2.509-1.948 1.545 0 2.59.95 2.59 2.884V153h-1.237v-4.751c0-1.176-.656-1.88-1.723-1.88-1.1 0-1.927.745-1.927 2.051Zm7.054 4.58v-7.643h1.231V153h-1.231Zm.622-8.894c-.464 0-.854-.362-.854-.813 0-.451.39-.814.854-.814.472 0 .862.363.862.814 0 .451-.39.813-.862.813Zm5.367 9.058c-1.573 0-2.666-.697-2.94-2.017l1.169-.28c.219.841.841 1.217 1.757 1.217 1.066 0 1.75-.526 1.75-1.155 0-.527-.369-.875-1.121-1.053l-1.272-.301c-1.387-.328-2.05-1.012-2.05-2.085 0-1.312 1.203-2.228 2.83-2.228 1.572 0 2.399.765 2.748 1.839l-1.114.287c-.212-.547-.643-1.08-1.627-1.08-.91 0-1.593.471-1.593 1.107 0 .567.389.882 1.285 1.094l1.155.273c1.388.328 2.037 1.019 2.037 2.065 0 1.34-1.223 2.317-3.014 2.317Zm10.876.014c-1.45 0-2.605-.848-2.605-2.352 0-1.75 1.559-2.071 2.974-2.249 1.36-.171 1.962-.13 1.962-.697v-.041c0-.95-.54-1.497-1.6-1.497-1.1 0-1.695.588-1.934 1.121l-1.183-.39c.588-1.387 1.9-1.811 3.083-1.811 1.025 0 2.864.314 2.864 2.7V153h-1.21v-1.039h-.082c-.26.54-.977 1.217-2.269 1.217Zm.212-1.087c1.36 0 2.119-.916 2.119-1.853v-1.059c-.205.239-1.545.376-2.017.437-.895.116-1.682.404-1.682 1.272 0 .793.664 1.203 1.58 1.203Zm6.74-3.671V153h-1.231v-7.643h1.183l.007 1.853h-.171c.465-1.408 1.353-1.948 2.509-1.948 1.545 0 2.591.95 2.591 2.884V153h-1.238v-4.751c0-1.176-.656-1.88-1.722-1.88-1.101 0-1.928.745-1.928 2.051Zm9.652 4.744c-1.572 0-2.666-.697-2.939-2.017l1.169-.28c.218.841.84 1.217 1.757 1.217 1.066 0 1.75-.526 1.75-1.155 0-.527-.37-.875-1.122-1.053l-1.271-.301c-1.388-.328-2.051-1.012-2.051-2.085 0-1.312 1.203-2.228 2.83-2.228 1.572 0 2.4.765 2.748 1.839l-1.114.287c-.212-.547-.643-1.08-1.627-1.08-.909 0-1.593.471-1.593 1.107 0 .567.39.882 1.285 1.094l1.156.273c1.387.328 2.037 1.019 2.037 2.065 0 1.34-1.224 2.317-3.015 2.317Zm6.515-.164-2.318-7.643h1.306l.93 3.336c.253.91.554 2.051.841 3.507h-.212c.273-1.394.56-2.536.827-3.507l.916-3.336h1.312l.903 3.336c.253.937.54 2.078.813 3.507h-.219c.288-1.415.581-2.55.848-3.507l.93-3.336h1.305L261.331 153h-1.224l-.991-3.459a72.192 72.192 0 0 1-.854-3.363h.273a69.714 69.714 0 0 1-.854 3.363l-.992 3.459h-1.223Zm12.694.164c-2.215 0-3.582-1.572-3.582-3.924 0-2.344 1.354-3.978 3.439-3.978 1.62 0 3.329.998 3.329 3.821v.513h-5.934v-1.039h5.271l-.575.382c0-1.503-.711-2.584-2.091-2.584-1.381 0-2.195 1.142-2.195 2.386v.691c0 1.702.944 2.638 2.345 2.638.902 0 1.579-.396 1.866-1.175l1.19.328c-.356 1.155-1.497 1.941-3.063 1.941Zm4.949-.164v-7.643h1.19v1.176h.082c.28-.772 1.073-1.285 1.982-1.285.178 0 .479.014.622.021v1.237a4.619 4.619 0 0 0-.738-.068c-1.101 0-1.907.745-1.907 1.777V153h-1.231Zm5.332.089a.92.92 0 1 1 .923-.923.923.923 0 0 1-.923.923Z" fill="#1F75CB"/></g><defs><filter id="duo-feedback-cta__a" x="14" y="16" width="364" height="48" filterUnits="userSpaceOnUse" color-interpolation-filters="sRGB"><feFlood flood-opacity="0" result="BackgroundImageFix"/><feColorMatrix in="SourceAlpha" values="0 0 0 0 0 0 0 0 0 0 0 0 0 0 0 0 0 0 127 0" result="hardAlpha"/><feOffset dy="2"/><feGaussianBlur stdDeviation="1"/><feColorMatrix values="0 0 0 0 0 0 0 0 0 0 0 0 0 0 0 0 0 0 0.08 0"/><feBlend in2="BackgroundImageFix" result="effect1_dropShadow_37592_3836"/><feBlend in="SourceGraphic" in2="effect1_dropShadow_37592_3836" result="shape"/></filter><filter id="duo-feedback-cta__b" x="14" y="76" width="364" height="96" filterUnits="userSpaceOnUse" color-interpolation-filters="sRGB"><feFlood flood-opacity="0" result="BackgroundImageFix"/><feColorMatrix in="SourceAlpha" values="0 0 0 0 0 0 0 0 0 0 0 0 0 0 0 0 0 0 127 0" result="hardAlpha"/><feOffset dy="2"/><feGaussianBlur stdDeviation="1"/><feColorMatrix values="0 0 0 0 0 0 0 0 0 0 0 0 0 0 0 0 0 0 0.08 0"/><feBlend in2="BackgroundImageFix" result="effect1_dropShadow_37592_3836"/><feBlend in="SourceGraphic" in2="effect1_dropShadow_37592_3836" result="shape"/></filter></defs></svg>