<svg width="900" height="64" fill="none" xmlns="http://www.w3.org/2000/svg"><path fill="#FBFAFD" d="M.5.5h899v63H.5z"/><path stroke="#ECECEF" d="M.5.5h899v63H.5z"/><path d="M736.394 37.137c-2.721 0-4.56-2.003-4.56-5.223 0-3.233 1.866-5.236 4.478-5.236 2.153 0 3.814 1.353 4.183 3.329h-1.34c-.417-1.306-1.394-2.126-2.837-2.126-1.791 0-3.219 1.415-3.219 4.033 0 2.598 1.422 4.02 3.295 4.02 1.722 0 2.905-1.162 2.905-2.994l.389.075h-3.028V31.88h3.91v1.114c0 2.53-1.75 4.143-4.176 4.143Zm6.131-.137v-7.643h1.231V37h-1.231Zm.622-8.894c-.464 0-.854-.362-.854-.813 0-.451.39-.813.854-.813.472 0 .862.362.862.813 0 .451-.39.813-.862.813ZM748.124 37l-2.919-7.643h1.347l1.627 4.533c.342.943.553 1.886.82 2.761h-.451c.266-.875.472-1.818.813-2.761l1.627-4.533h1.347L749.416 37h-1.292Zm8.606.164c-2.214 0-3.582-1.572-3.582-3.924 0-2.345 1.354-3.978 3.439-3.978 1.62 0 3.329.998 3.329 3.821v.513h-5.934v-1.04h5.271l-.574.384c0-1.504-.711-2.584-2.092-2.584-1.381 0-2.194 1.141-2.194 2.385v.69c0 1.703.943 2.64 2.344 2.64.903 0 1.579-.397 1.867-1.176l1.189.328c-.355 1.155-1.497 1.941-3.063 1.941Zm11.751 0c-1.907 0-3.233-1.531-3.233-3.965 0-2.42 1.333-3.937 3.24-3.937 1.491 0 1.962.916 2.215 1.32h.096v-3.768h1.23V37h-1.189v-1.183h-.137c-.253.424-.765 1.347-2.222 1.347Zm.185-1.1c1.388 0 2.146-1.176 2.146-2.879 0-1.688-.738-2.823-2.146-2.823-1.449 0-2.167 1.238-2.167 2.823 0 1.607.738 2.878 2.167 2.878Zm8.736 1.1c-2.214 0-3.582-1.572-3.582-3.924 0-2.345 1.354-3.978 3.439-3.978 1.62 0 3.329.998 3.329 3.821v.513h-5.934v-1.04h5.271l-.574.384c0-1.504-.711-2.584-2.092-2.584-1.381 0-2.195 1.141-2.195 2.385v.69c0 1.703.944 2.64 2.345 2.64.903 0 1.579-.397 1.866-1.176l1.19.328c-.356 1.155-1.497 1.941-3.063 1.941Zm7.957-7.807v1.053h-3.951v-1.053h3.951Zm-2.802-1.818h1.23v7.479c0 .683.253.984.902.984.158 0 .424-.041.629-.082l.253 1.039a2.959 2.959 0 0 1-.916.137c-1.319 0-2.098-.732-2.098-1.983V27.54Zm6.583 9.639c-1.45 0-2.605-.848-2.605-2.352 0-1.75 1.559-2.071 2.974-2.249 1.36-.17 1.962-.13 1.962-.697v-.041c0-.95-.54-1.497-1.6-1.497-1.1 0-1.695.588-1.934 1.12l-1.183-.389c.588-1.387 1.9-1.811 3.083-1.811 1.025 0 2.864.314 2.864 2.7V37h-1.21v-1.04h-.082c-.26.541-.977 1.218-2.269 1.218Zm.212-1.087c1.36 0 2.119-.916 2.119-1.853v-1.06c-.205.24-1.545.377-2.017.438-.895.116-1.682.404-1.682 1.272 0 .793.664 1.203 1.58 1.203Zm5.509.909v-7.643h1.231V37h-1.231Zm.622-8.894c-.464 0-.854-.362-.854-.813 0-.451.39-.813.854-.813.472 0 .862.362.862.813 0 .451-.39.813-.862.813Zm4.485 8.949c-1.149 0-1.716-.643-1.716-1.75v-8.49h1.23v8.182c0 .704.123.957.636.957.267 0 .376-.02.492-.055l.246 1.04c-.218.061-.56.116-.888.116Zm5.147.11c-2.215 0-3.582-1.573-3.582-3.925 0-2.345 1.354-3.978 3.439-3.978 1.62 0 3.329.998 3.329 3.821v.513h-5.934v-1.04h5.271l-.575.384c0-1.504-.71-2.584-2.091-2.584-1.381 0-2.195 1.141-2.195 2.385v.69c0 1.703.944 2.64 2.345 2.64.902 0 1.579-.397 1.866-1.176l1.19.328c-.356 1.155-1.497 1.941-3.063 1.941Zm7.814 0c-1.908 0-3.234-1.532-3.234-3.966 0-2.42 1.333-3.937 3.241-3.937 1.49 0 1.961.916 2.214 1.32h.096v-3.768h1.231V37h-1.19v-1.183h-.137c-.253.424-.765 1.347-2.221 1.347Zm.184-1.102c1.388 0 2.147-1.175 2.147-2.878 0-1.688-.739-2.823-2.147-2.823-1.449 0-2.167 1.238-2.167 2.823 0 1.607.739 2.878 2.167 2.878Zm13.016-6.706v1.053h-4.498v-1.053h4.498ZM823.135 37v-8.661c0-1.326 1.059-2.003 2.174-2.003.581 0 .963.123 1.148.205l-.342 1.053c-.13-.041-.321-.117-.663-.117-.759 0-1.087.397-1.087 1.135V37h-1.23Zm7.697.164c-2.215 0-3.582-1.572-3.582-3.924 0-2.345 1.354-3.978 3.438-3.978 1.621 0 3.33.998 3.33 3.821v.513h-5.934v-1.04h5.27l-.574.384c0-1.504-.711-2.584-2.092-2.584-1.38 0-2.194 1.141-2.194 2.385v.69c0 1.703.944 2.64 2.345 2.64.902 0 1.579-.397 1.866-1.176l1.19.328c-.356 1.155-1.498 1.941-3.063 1.941Zm8.162 0c-2.215 0-3.582-1.572-3.582-3.924 0-2.345 1.354-3.978 3.439-3.978 1.62 0 3.329.998 3.329 3.821v.513h-5.934v-1.04h5.271l-.575.384c0-1.504-.711-2.584-2.091-2.584-1.381 0-2.195 1.141-2.195 2.385v.69c0 1.703.944 2.64 2.345 2.64.902 0 1.579-.397 1.866-1.176l1.19.328c-.356 1.155-1.497 1.941-3.063 1.941Zm7.814 0c-1.908 0-3.234-1.531-3.234-3.965 0-2.42 1.333-3.937 3.24-3.937 1.491 0 1.962.916 2.215 1.32h.096v-3.768h1.23V37h-1.189v-1.183h-.137c-.253.424-.765 1.347-2.221 1.347Zm.184-1.1c1.388 0 2.147-1.176 2.147-2.879 0-1.688-.739-2.823-2.147-2.823-1.449 0-2.167 1.238-2.167 2.823 0 1.607.738 2.878 2.167 2.878Zm9.071 1.1c-1.456 0-1.968-.923-2.221-1.347h-.137V37h-1.189V26.814h1.23v3.767h.096c.253-.403.724-1.32 2.215-1.32 1.907 0 3.24 1.518 3.24 3.938 0 2.434-1.326 3.965-3.234 3.965Zm-.184-1.1c1.429 0 2.167-1.272 2.167-2.879 0-1.585-.718-2.823-2.167-2.823-1.408 0-2.147 1.135-2.147 2.823 0 1.703.759 2.878 2.147 2.878Zm7.485 1.114c-1.449 0-2.604-.848-2.604-2.352 0-1.75 1.558-2.071 2.973-2.249 1.361-.17 1.962-.13 1.962-.697v-.041c0-.95-.54-1.497-1.599-1.497-1.101 0-1.696.588-1.935 1.12l-1.182-.389c.587-1.387 1.9-1.811 3.083-1.811 1.025 0 2.864.314 2.864 2.7V37h-1.21v-1.04h-.082c-.26.541-.978 1.218-2.27 1.218Zm.212-1.087c1.361 0 2.119-.916 2.119-1.853v-1.06c-.205.24-1.545.377-2.016.438-.896.116-1.682.404-1.682 1.272 0 .793.663 1.203 1.579 1.203Zm8.62 1.073c-2.078 0-3.479-1.579-3.479-3.937 0-2.393 1.401-3.965 3.479-3.965 1.477 0 2.68.779 3.097 2.112l-1.183.335c-.225-.786-.909-1.347-1.914-1.347-1.524 0-2.228 1.34-2.228 2.865 0 1.504.704 2.837 2.228 2.837 1.026 0 1.723-.582 1.949-1.409l1.175.335c-.41 1.36-1.627 2.174-3.124 2.174Zm6.043-2.912v-1.525h.226l3.267-3.37h1.525l-3.534 3.63h-.137l-1.347 1.265ZM877.084 37V26.814h1.23V37h-1.23Zm4.833 0-2.926-3.74.875-.867 3.63 4.607h-1.579Z" fill="#0B5CAD"/><rect x="317.5" y="47.5" width="31" height="31" rx="3.5" transform="rotate(-180 317.5 47.5)" fill="#fff"/><rect x="317.5" y="47.5" width="31" height="31" rx="3.5" transform="rotate(-180 317.5 47.5)" stroke="#BFBFC3"/><g clip-path="url(#duo-thumbs-feedback__a)"><path fill-rule="evenodd" clip-rule="evenodd" d="m299.279 37.402.271-.902.45-1.5h-3.989a2 2 0 0 1-1.932-2.517l1.189-4.448a4 4 0 0 1 4.881-2.835L307 27h3v8h-3l-4.391 4.39c-1.469 1.47-3.927.002-3.33-1.988ZM307 33.5h1.5v-5H307v5Zm-7.232-6.85 5.732 1.507v6.222l-3.951 3.951a.467.467 0 0 1-.296.155.532.532 0 0 1-.314-.08.53.53 0 0 1-.219-.238c-.031-.07-.052-.173-.004-.334l.721-2.402.579-1.931h-6.005a.5.5 0 0 1-.483-.63l1.189-4.447a2.5 2.5 0 0 1 3.051-1.772Z" fill="#3A383F"/></g><rect x="246.5" y="16.5" width="31" height="31" rx="3.5" fill="#fff"/><rect x="246.5" y="16.5" width="31" height="31" rx="3.5" stroke="#BFBFC3"/><path fill-rule="evenodd" clip-rule="evenodd" d="m264.721 26.598-.271.902L264 29h3.989a2 2 0 0 1 1.932 2.517l-1.189 4.448a4 4 0 0 1-4.881 2.835L257 37h-3v-8h3l4.391-4.39c1.469-1.47 3.927-.002 3.33 1.988ZM257 30.5h-1.5v5h1.5v-5Zm7.232 6.85-5.732-1.507v-6.222l3.951-3.951a.467.467 0 0 1 .296-.155.532.532 0 0 1 .314.08.53.53 0 0 1 .219.238c.031.07.052.173.004.334l-.721 2.402-.579 1.931h6.005a.5.5 0 0 1 .483.63l-1.189 4.447a2.5 2.5 0 0 1-3.051 1.773Z" fill="#3A383F"/><path d="M17.23 37V26.814h1.3v4.403h5.345v-4.402h1.299V37h-1.299v-4.635h-5.346V37H17.23Zm13.365.164c-2.078 0-3.48-1.579-3.48-3.937 0-2.393 1.402-3.965 3.48-3.965 2.085 0 3.493 1.572 3.493 3.965 0 2.358-1.408 3.937-3.493 3.937Zm0-1.1c1.545 0 2.249-1.334 2.249-2.837 0-1.518-.704-2.865-2.25-2.865-1.524 0-2.228 1.34-2.228 2.865 0 1.504.704 2.837 2.229 2.837Zm6.74.936-2.317-7.643h1.305l.93 3.336c.253.91.554 2.051.84 3.507h-.211c.273-1.394.56-2.536.827-3.507l.916-3.336h1.313l.902 3.336c.253.937.54 2.079.813 3.507h-.218a49.07 49.07 0 0 1 .847-3.507l.93-3.336h1.306L43.2 37h-1.223l-.992-3.459a72.5 72.5 0 0 1-.854-3.363h.273a70.366 70.366 0 0 1-.854 3.363L38.559 37h-1.224Zm15.395 0-2.318-7.643h1.306l.93 3.336c.252.91.553 2.051.84 3.507h-.212c.274-1.394.56-2.536.827-3.507l.916-3.336h1.313l.902 3.336c.253.937.54 2.079.814 3.507h-.219c.287-1.415.581-2.55.848-3.507l.93-3.336h1.305L58.595 37H57.37l-.991-3.459a72.628 72.628 0 0 1-.855-3.363h.274a70.366 70.366 0 0 1-.855 3.363L53.954 37H52.73Zm11.88.178c-1.449 0-2.604-.848-2.604-2.352 0-1.75 1.559-2.071 2.974-2.249 1.36-.17 1.961-.13 1.961-.697v-.041c0-.95-.54-1.497-1.6-1.497-1.1 0-1.694.588-1.934 1.12l-1.182-.389c.587-1.387 1.9-1.811 3.083-1.811 1.025 0 2.864.314 2.864 2.7V37h-1.21v-1.04h-.082c-.26.541-.978 1.218-2.27 1.218Zm.212-1.087c1.36 0 2.12-.916 2.12-1.853v-1.06c-.206.24-1.545.377-2.017.438-.896.116-1.682.404-1.682 1.272 0 .793.663 1.203 1.58 1.203Zm8.108 1.073c-1.573 0-2.666-.697-2.94-2.017l1.17-.28c.218.841.84 1.217 1.756 1.217 1.066 0 1.75-.526 1.75-1.155 0-.527-.37-.875-1.121-1.053l-1.272-.3c-1.387-.329-2.05-1.013-2.05-2.086 0-1.312 1.203-2.228 2.83-2.228 1.572 0 2.4.765 2.748 1.839l-1.115.287c-.211-.547-.642-1.08-1.626-1.08-.91 0-1.593.471-1.593 1.107 0 .567.39.882 1.285 1.094l1.155.273c1.388.328 2.037 1.019 2.037 2.065 0 1.34-1.223 2.317-3.014 2.317Zm13.05-.027c-2.721 0-4.56-2.003-4.56-5.223 0-3.233 1.866-5.236 4.477-5.236 2.154 0 3.815 1.353 4.184 3.329h-1.34c-.417-1.306-1.394-2.126-2.837-2.126-1.79 0-3.22 1.415-3.22 4.033 0 2.598 1.422 4.02 3.296 4.02 1.722 0 2.905-1.162 2.905-2.994l.39.075h-3.029V31.88h3.91v1.114c0 2.53-1.75 4.143-4.177 4.143ZM92.11 37v-7.643h1.23V37h-1.23Zm.622-8.894c-.464 0-.854-.362-.854-.813 0-.451.39-.813.854-.813.472 0 .862.362.862.813 0 .451-.39.813-.862.813Zm5.777 1.251v1.053h-3.951v-1.053h3.95Zm-2.803-1.818h1.23v7.479c0 .683.253.984.903.984.157 0 .424-.041.629-.082l.253 1.039a2.961 2.961 0 0 1-.916.137c-1.32 0-2.099-.732-2.099-1.983V27.54ZM100.232 37V26.814h1.299v9.038h4.717V37h-6.016Zm9.906.178c-1.45 0-2.605-.848-2.605-2.352 0-1.75 1.559-2.071 2.974-2.249 1.36-.17 1.962-.13 1.962-.697v-.041c0-.95-.54-1.497-1.6-1.497-1.1 0-1.695.588-1.934 1.12l-1.183-.389c.588-1.387 1.9-1.811 3.083-1.811 1.025 0 2.864.314 2.864 2.7V37h-1.21v-1.04h-.082c-.26.541-.977 1.218-2.269 1.218Zm.212-1.087c1.36 0 2.119-.916 2.119-1.853v-1.06c-.205.24-1.545.377-2.017.438-.895.116-1.681.404-1.681 1.272 0 .793.663 1.203 1.579 1.203Zm9.057 1.073c-1.456 0-1.969-.923-2.221-1.347h-.137V37h-1.19V26.814h1.231v3.767h.096c.252-.403.724-1.32 2.214-1.32 1.908 0 3.241 1.518 3.241 3.938 0 2.434-1.327 3.965-3.234 3.965Zm-.184-1.1c1.428 0 2.167-1.272 2.167-2.879 0-1.585-.718-2.823-2.167-2.823-1.409 0-2.147 1.135-2.147 2.823 0 1.703.759 2.878 2.147 2.878Zm12.475.936h-2.461v-1.148h2.379c2.482 0 3.685-1.49 3.685-3.965 0-2.448-1.203-3.924-3.562-3.924h-2.556v-1.149h2.645c2.974 0 4.731 1.915 4.731 5.073 0 3.185-1.757 5.113-4.861 5.113Zm-1.88-10.186V37h-1.298V26.814h1.298Zm11.245 10.282c-1.544 0-2.59-.95-2.59-2.885v-4.854h1.23v4.751c0 1.176.663 1.88 1.73 1.88 1.093 0 1.921-.745 1.921-2.05v-4.58h1.237V37h-1.19v-1.852h.164c-.471 1.435-1.38 1.948-2.502 1.948Zm8.805.068c-2.078 0-3.479-1.579-3.479-3.937 0-2.393 1.401-3.965 3.479-3.965 2.085 0 3.493 1.572 3.493 3.965 0 2.358-1.408 3.937-3.493 3.937Zm0-1.1c1.545 0 2.249-1.334 2.249-2.837 0-1.518-.704-2.865-2.249-2.865-1.524 0-2.228 1.34-2.228 2.865 0 1.504.704 2.837 2.228 2.837Zm5.298-5.374.602-3.876h1.408l-1.067 3.876h-.943Zm5.701 6.474c-1.572 0-2.666-.697-2.939-2.017l1.169-.28c.218.841.841 1.217 1.757 1.217 1.066 0 1.75-.526 1.75-1.155 0-.527-.37-.875-1.122-1.053l-1.271-.3c-1.388-.329-2.051-1.013-2.051-2.086 0-1.312 1.203-2.228 2.83-2.228 1.572 0 2.4.765 2.748 1.839l-1.114.287c-.212-.547-.643-1.08-1.627-1.08-.909 0-1.593.471-1.593 1.107 0 .567.39.882 1.285 1.094l1.156.273c1.387.328 2.037 1.019 2.037 2.065 0 1.34-1.224 2.317-3.015 2.317Zm8.737-.164v-7.643h1.189v1.176h.082c.28-.772 1.073-1.285 1.982-1.285.178 0 .479.014.622.02v1.238a4.64 4.64 0 0 0-.738-.069c-1.1 0-1.907.746-1.907 1.778V37h-1.23Zm8.257.164c-2.215 0-3.582-1.572-3.582-3.924 0-2.345 1.354-3.978 3.439-3.978 1.62 0 3.329.998 3.329 3.821v.513h-5.934v-1.04h5.271l-.574.384c0-1.504-.711-2.584-2.092-2.584-1.381 0-2.195 1.141-2.195 2.385v.69c0 1.703.944 2.64 2.345 2.64.903 0 1.579-.397 1.866-1.176l1.19.328c-.356 1.155-1.497 1.941-3.063 1.941Zm7.547 0c-1.572 0-2.666-.697-2.939-2.017l1.169-.28c.218.841.841 1.217 1.757 1.217 1.066 0 1.75-.526 1.75-1.155 0-.527-.37-.875-1.122-1.053l-1.271-.3c-1.388-.329-2.051-1.013-2.051-2.086 0-1.312 1.203-2.228 2.83-2.228 1.573 0 2.4.765 2.748 1.839l-1.114.287c-.212-.547-.643-1.08-1.627-1.08-.909 0-1.593.471-1.593 1.107 0 .567.39.882 1.285 1.094l1.156.273c1.387.328 2.037 1.019 2.037 2.065 0 1.34-1.224 2.317-3.015 2.317Zm4.799 2.693v-10.5h1.189v1.224h.137c.253-.403.725-1.32 2.215-1.32 1.907 0 3.24 1.518 3.24 3.938 0 2.434-1.326 3.965-3.233 3.965-1.456 0-1.969-.923-2.222-1.347h-.095v4.04h-1.231Zm3.363-3.794c1.429 0 2.167-1.271 2.167-2.878 0-1.585-.717-2.823-2.167-2.823-1.408 0-2.146 1.135-2.146 2.823 0 1.703.759 2.878 2.146 2.878Zm8.32 1.101c-2.078 0-3.48-1.579-3.48-3.937 0-2.393 1.402-3.965 3.48-3.965 2.085 0 3.493 1.572 3.493 3.965 0 2.358-1.408 3.937-3.493 3.937Zm0-1.1c1.545 0 2.249-1.334 2.249-2.837 0-1.518-.704-2.865-2.249-2.865-1.525 0-2.229 1.34-2.229 2.865 0 1.504.704 2.837 2.229 2.837Zm6.514-3.644V37h-1.23v-7.643h1.182l.007 1.853h-.171c.465-1.408 1.354-1.948 2.509-1.948 1.545 0 2.591.95 2.591 2.885V37h-1.237v-4.751c0-1.176-.657-1.88-1.723-1.88-1.101 0-1.928.745-1.928 2.05Zm9.653 4.744c-1.573 0-2.666-.697-2.94-2.017l1.169-.28c.219.841.841 1.217 1.757 1.217 1.066 0 1.75-.526 1.75-1.155 0-.527-.369-.875-1.121-1.053l-1.272-.3c-1.387-.329-2.05-1.013-2.05-2.086 0-1.312 1.203-2.228 2.83-2.228 1.572 0 2.399.765 2.748 1.839l-1.115.287c-.211-.547-.642-1.08-1.626-1.08-.91 0-1.593.471-1.593 1.107 0 .567.389.882 1.285 1.094l1.155.273c1.388.328 2.037 1.019 2.037 2.065 0 1.34-1.223 2.317-3.014 2.317Zm8.011 0c-2.214 0-3.582-1.572-3.582-3.924 0-2.345 1.354-3.978 3.439-3.978 1.62 0 3.329.998 3.329 3.821v.513h-5.934v-1.04h5.271l-.574.384c0-1.504-.711-2.584-2.092-2.584-1.381 0-2.195 1.141-2.195 2.385v.69c0 1.703.944 2.64 2.345 2.64.903 0 1.579-.397 1.866-1.176l1.19.328c-.356 1.155-1.497 1.941-3.063 1.941Zm6.488-3.233v-.075c0-1.867.574-2.263 1.517-2.83.602-.363 1.067-.917 1.067-1.71 0-.95-.739-1.551-1.661-1.551-.807 0-1.607.478-1.682 1.613h-1.299c.068-1.716 1.367-2.7 2.981-2.7 1.77 0 2.918 1.128 2.918 2.686 0 1.1-.505 1.866-1.387 2.406s-1.217.875-1.217 2.085v.076h-1.237Zm.635 3.158a.919.919 0 1 1 .916-.916c0 .506-.41.916-.916.916Z" fill="#28272D"/><defs><clipPath id="duo-thumbs-feedback__a"><path fill="#fff" transform="rotate(-180 155 20)" d="M0 0h16v16H0z"/></clipPath></defs></svg>