<svg width="509" height="16" viewBox="0 0 509 16" fill="none" xmlns="http://www.w3.org/2000/svg">
<rect x="493" width="16" height="16" fill="#FFE3EB"/>
<rect x="476" width="16" height="16" fill="#608B2F"/>
<rect x="459" width="16" height="16" fill="#B8FFF2"/>
<rect x="442" width="16" height="16" fill="#D14E00"/>
<rect x="425" width="16" height="16" fill="#E9EBFF"/>
<rect x="408" width="16" height="16" fill="#FCACC5"/>
<rect x="391" width="16" height="16" fill="#C9F097"/>
<rect x="374" width="16" height="16" fill="#5EEBDF"/>
<rect x="357" width="16" height="16" fill="#F7D8B5"/>
<rect x="340" width="16" height="16" fill="#B7C6FF"/>
<rect x="323" width="16" height="16" fill="#F2639A"/>
<rect x="306" width="16" height="16" fill="#94C25E"/>
<rect x="289" width="16" height="16" fill="#0BB6C6"/>
<rect x="272" width="16" height="16" fill="#EB9A5C"/>
<rect x="255" width="16" height="16" fill="#748EFF"/>
<rect x="238" width="16" height="16" fill="#FFC9D9"/>
<rect x="221" width="16" height="16" fill="#DDFAB7"/>
<rect x="204" width="16" height="16" fill="#93FAE7"/>
<rect x="187" width="16" height="16" fill="#FAE8D1"/>
<rect x="170" width="16" height="16" fill="#D4DCFA"/>
<rect x="153" width="16" height="16" fill="#FF84AF"/>
<rect x="136" width="16" height="16" fill="#B0DE73"/>
<rect x="119" width="16" height="16" fill="#25D2D2"/>
<rect x="102" width="16" height="16" fill="#F3C290"/>
<rect x="85" width="16" height="16" fill="#97ACFF"/>
<rect x="68" width="16" height="16" fill="#D84280"/>
<rect x="51" width="16" height="16" fill="#82AB4A"/>
<rect x="34" width="16" height="16" fill="#0094B6"/>
<rect x="17" width="16" height="16" fill="#E17223"/>
<rect width="16" height="16" fill="#5772FF"/>
</svg>
