<svg width="509" height="16" viewBox="0 0 509 16" fill="none" xmlns="http://www.w3.org/2000/svg">
<rect x="493" width="16" height="16" fill="#570028"/>
<rect x="476" width="16" height="16" fill="#608B2F"/>
<rect x="459" width="16" height="16" fill="#00293D"/>
<rect x="442" width="16" height="16" fill="#D14E00"/>
<rect x="425" width="16" height="16" fill="#11118A"/>
<rect x="408" width="16" height="16" fill="#950943"/>
<rect x="391" width="16" height="16" fill="#1A4500"/>
<rect x="374" width="16" height="16" fill="#004D67"/>
<rect x="357" width="16" height="16" fill="#5C2B00"/>
<rect x="340" width="16" height="16" fill="#232FCE"/>
<rect x="323" width="16" height="16" fill="#C52C6B"/>
<rect x="306" width="16" height="16" fill="#366800"/>
<rect x="289" width="16" height="16" fill="#0080A1"/>
<rect x="272" width="16" height="16" fill="#944100"/>
<rect x="255" width="16" height="16" fill="#445CF2"/>
<rect x="238" width="16" height="16" fill="#7A0033"/>
<rect x="221" width="16" height="16" fill="#0F3300"/>
<rect x="204" width="16" height="16" fill="#003F57"/>
<rect x="187" width="16" height="16" fill="#421E00"/>
<rect x="170" width="16" height="16" fill="#1E23A8"/>
<rect x="153" width="16" height="16" fill="#B31756"/>
<rect x="136" width="16" height="16" fill="#275600"/>
<rect x="119" width="16" height="16" fill="#006887"/>
<rect x="102" width="16" height="16" fill="#6F3500"/>
<rect x="85" width="16" height="16" fill="#3547DE"/>
<rect x="68" width="16" height="16" fill="#D84280"/>
<rect x="51" width="16" height="16" fill="#487900"/>
<rect x="34" width="16" height="16" fill="#0094B6"/>
<rect x="17" width="16" height="16" fill="#B24800"/>
<rect width="16" height="16" fill="#5772FF"/>
</svg>
