<svg width="1003" height="137" viewBox="0 0 1003 137" fill="none" xmlns="http://www.w3.org/2000/svg">
<path d="M928.502 81.982V78.916H927.55V81.982H924.498V82.934H927.55V86H928.502V82.934H931.554V81.982H928.502ZM938.801 77.292V76.242H933.901L932.977 81.394L933.999 81.45C934.232 81.17 934.498 80.946 934.797 80.778C935.105 80.6007 935.455 80.512 935.847 80.512C936.183 80.512 936.486 80.568 936.757 80.68C937.037 80.792 937.275 80.9507 937.471 81.156C937.667 81.352 937.816 81.59 937.919 81.87C938.031 82.1407 938.087 82.4393 938.087 82.766C938.087 83.158 938.031 83.5033 937.919 83.802C937.807 84.0913 937.653 84.334 937.457 84.53C937.27 84.726 937.046 84.8753 936.785 84.978C936.533 85.0713 936.267 85.118 935.987 85.118C935.688 85.118 935.413 85.076 935.161 84.992C934.918 84.8987 934.703 84.7727 934.517 84.614C934.339 84.446 934.195 84.2547 934.083 84.04C933.98 83.816 933.919 83.578 933.901 83.326H932.711C932.72 83.774 932.809 84.1753 932.977 84.53C933.145 84.8847 933.373 85.1833 933.663 85.426C933.952 85.6593 934.283 85.8413 934.657 85.972C935.039 86.0933 935.445 86.154 935.875 86.154C936.453 86.154 936.957 86.0653 937.387 85.888C937.825 85.7013 938.189 85.454 938.479 85.146C938.768 84.838 938.983 84.488 939.123 84.096C939.272 83.6947 939.347 83.284 939.347 82.864C939.347 82.2947 939.263 81.8 939.095 81.38C938.927 80.9507 938.698 80.596 938.409 80.316C938.119 80.0267 937.779 79.812 937.387 79.672C936.995 79.532 936.579 79.462 936.141 79.462C935.805 79.462 935.464 79.5227 935.119 79.644C934.783 79.756 934.507 79.9333 934.293 80.176L934.265 80.148L934.797 77.292H938.801Z" fill="#999999"/>
<path d="M492.958 81.114C492.958 80.8713 492.958 80.6053 492.958 80.316C492.968 80.0173 492.991 79.7233 493.028 79.434C493.075 79.1353 493.136 78.846 493.21 78.566C493.294 78.286 493.411 78.0433 493.56 77.838C493.719 77.6233 493.915 77.4507 494.148 77.32C494.382 77.1893 494.666 77.124 495.002 77.124C495.338 77.124 495.623 77.1893 495.856 77.32C496.09 77.4507 496.281 77.6233 496.43 77.838C496.589 78.0433 496.706 78.286 496.78 78.566C496.864 78.846 496.925 79.1353 496.962 79.434C497.009 79.7233 497.032 80.0173 497.032 80.316C497.042 80.6053 497.046 80.8713 497.046 81.114C497.046 81.4873 497.032 81.9073 497.004 82.374C496.986 82.8313 496.911 83.2653 496.78 83.676C496.659 84.0773 496.458 84.418 496.178 84.698C495.898 84.978 495.506 85.118 495.002 85.118C494.498 85.118 494.106 84.978 493.826 84.698C493.546 84.418 493.341 84.0773 493.21 83.676C493.089 83.2653 493.014 82.8313 492.986 82.374C492.968 81.9073 492.958 81.4873 492.958 81.114ZM491.698 81.128C491.698 81.492 491.708 81.87 491.726 82.262C491.745 82.654 491.792 83.0367 491.866 83.41C491.941 83.7833 492.048 84.138 492.188 84.474C492.328 84.8007 492.52 85.09 492.762 85.342C493.005 85.594 493.308 85.7947 493.672 85.944C494.046 86.084 494.489 86.154 495.002 86.154C495.525 86.154 495.968 86.084 496.332 85.944C496.696 85.7947 497 85.594 497.242 85.342C497.485 85.09 497.676 84.8007 497.816 84.474C497.956 84.138 498.064 83.7833 498.138 83.41C498.213 83.0367 498.26 82.654 498.278 82.262C498.297 81.87 498.306 81.492 498.306 81.128C498.306 80.764 498.297 80.386 498.278 79.994C498.26 79.602 498.213 79.2193 498.138 78.846C498.064 78.4727 497.956 78.118 497.816 77.782C497.676 77.446 497.485 77.152 497.242 76.9C497 76.648 496.692 76.4473 496.318 76.298C495.954 76.1487 495.516 76.074 495.002 76.074C494.489 76.074 494.046 76.1487 493.672 76.298C493.308 76.4473 493.005 76.648 492.762 76.9C492.52 77.152 492.328 77.446 492.188 77.782C492.048 78.118 491.941 78.4727 491.866 78.846C491.792 79.2193 491.745 79.602 491.726 79.994C491.708 80.386 491.698 80.764 491.698 81.128Z" fill="#999999"/>
<path d="M50.7 81.548V82.668H54.746V81.548H50.7ZM62.0214 77.292V76.242H57.1214L56.1974 81.394L57.2194 81.45C57.4527 81.17 57.7187 80.946 58.0174 80.778C58.3254 80.6007 58.6754 80.512 59.0674 80.512C59.4034 80.512 59.7067 80.568 59.9774 80.68C60.2574 80.792 60.4954 80.9507 60.6914 81.156C60.8874 81.352 61.0367 81.59 61.1394 81.87C61.2514 82.1407 61.3074 82.4393 61.3074 82.766C61.3074 83.158 61.2514 83.5033 61.1394 83.802C61.0274 84.0913 60.8734 84.334 60.6774 84.53C60.4907 84.726 60.2667 84.8753 60.0054 84.978C59.7534 85.0713 59.4874 85.118 59.2074 85.118C58.9087 85.118 58.6334 85.076 58.3814 84.992C58.1387 84.8987 57.9241 84.7727 57.7374 84.614C57.5601 84.446 57.4154 84.2547 57.3034 84.04C57.2007 83.816 57.1401 83.578 57.1214 83.326H55.9314C55.9407 83.774 56.0294 84.1753 56.1974 84.53C56.3654 84.8847 56.5941 85.1833 56.8834 85.426C57.1727 85.6593 57.5041 85.8413 57.8774 85.972C58.2601 86.0933 58.6661 86.154 59.0954 86.154C59.6741 86.154 60.1781 86.0653 60.6074 85.888C61.0461 85.7013 61.4101 85.454 61.6994 85.146C61.9887 84.838 62.2034 84.488 62.3434 84.096C62.4927 83.6947 62.5674 83.284 62.5674 82.864C62.5674 82.2947 62.4834 81.8 62.3154 81.38C62.1474 80.9507 61.9187 80.596 61.6294 80.316C61.3401 80.0267 60.9994 79.812 60.6074 79.672C60.2154 79.532 59.8001 79.462 59.3614 79.462C59.0254 79.462 58.6847 79.5227 58.3394 79.644C58.0034 79.756 57.7281 79.9333 57.5134 80.176L57.4854 80.148L58.0174 77.292H62.0214Z" fill="#999999"/>
<rect x="860" y="24" width="80" height="40" fill="#FAE8D1"/>
<rect x="779" y="24" width="80" height="40" fill="#F3C291"/>
<rect x="698" y="24" width="80" height="40" fill="#E17223"/>
<rect x="617.5" y="24.5" width="79" height="39" fill="#B24800" stroke="#D14E00"/>
<rect x="536.5" y="24.5" width="79" height="39" fill="#6F3500" stroke="#D14E00"/>
<rect x="455.5" y="24.5" width="79" height="39" fill="#11118A" stroke="#5772FF"/>
<rect x="374.5" y="24.5" width="79" height="39" fill="#232FCF" stroke="#5772FF"/>
<rect x="293.5" y="24.5" width="79" height="39" fill="#445CF2" stroke="#5772FF"/>
<rect x="212" y="24" width="80" height="40" fill="#748EFF"/>
<rect x="131" y="24" width="80" height="40" fill="#B7C6FF"/>
<rect x="50" y="24" width="80" height="40" fill="#E9EBFF"/>
<rect x="860" y="97" width="80" height="40" fill="#DDFAB7"/>
<rect x="779" y="97" width="80" height="40" fill="#B0DE73"/>
<rect x="698" y="97" width="80" height="40" fill="#83AB4A"/>
<rect x="617.5" y="97.5" width="79" height="39" fill="#487900" stroke="#608B2F"/>
<rect x="536.5" y="97.5" width="79" height="39" fill="#275600" stroke="#608B2F"/>
<rect x="455.5" y="97.5" width="79" height="39" fill="#00293D" stroke="#0094B6"/>
<rect x="374.5" y="97.5" width="79" height="39" fill="#004D67" stroke="#0094B6"/>
<rect x="293.5" y="97.5" width="79" height="39" fill="#0080A1" stroke="#0094B6"/>
<rect x="212" y="97" width="80" height="40" fill="#0BB6C6"/>
<rect x="131" y="97" width="80" height="40" fill="#5EEBDF"/>
<rect x="50" y="97" width="80" height="40" fill="#B8FFF2"/>
<path d="M56.58 4.292V3.242H51.68L50.756 8.394L51.778 8.45C52.0113 8.17 52.2773 7.946 52.576 7.778C52.884 7.60067 53.234 7.512 53.626 7.512C53.962 7.512 54.2653 7.568 54.536 7.68C54.816 7.792 55.054 7.95067 55.25 8.156C55.446 8.352 55.5953 8.59 55.698 8.87C55.81 9.14067 55.866 9.43933 55.866 9.766C55.866 10.158 55.81 10.5033 55.698 10.802C55.586 11.0913 55.432 11.334 55.236 11.53C55.0493 11.726 54.8253 11.8753 54.564 11.978C54.312 12.0713 54.046 12.118 53.766 12.118C53.4673 12.118 53.192 12.076 52.94 11.992C52.6973 11.8987 52.4827 11.7727 52.296 11.614C52.1187 11.446 51.974 11.2547 51.862 11.04C51.7593 10.816 51.6987 10.578 51.68 10.326H50.49C50.4993 10.774 50.588 11.1753 50.756 11.53C50.924 11.8847 51.1527 12.1833 51.442 12.426C51.7313 12.6593 52.0627 12.8413 52.436 12.972C52.8187 13.0933 53.2247 13.154 53.654 13.154C54.2327 13.154 54.7367 13.0653 55.166 12.888C55.6047 12.7013 55.9687 12.454 56.258 12.146C56.5473 11.838 56.762 11.488 56.902 11.096C57.0513 10.6947 57.126 10.284 57.126 9.864C57.126 9.29467 57.042 8.8 56.874 8.38C56.706 7.95067 56.4773 7.596 56.188 7.316C55.8987 7.02667 55.558 6.812 55.166 6.672C54.774 6.532 54.3587 6.462 53.92 6.462C53.584 6.462 53.2433 6.52267 52.898 6.644C52.562 6.756 52.2867 6.93333 52.072 7.176L52.044 7.148L52.576 4.292H56.58ZM59.6273 8.114C59.6273 7.87133 59.6273 7.60533 59.6273 7.316C59.6366 7.01733 59.66 6.72333 59.6973 6.434C59.744 6.13533 59.8046 5.846 59.8793 5.566C59.9633 5.286 60.08 5.04333 60.2293 4.838C60.388 4.62333 60.584 4.45067 60.8173 4.32C61.0506 4.18933 61.3353 4.124 61.6713 4.124C62.0073 4.124 62.292 4.18933 62.5253 4.32C62.7586 4.45067 62.95 4.62333 63.0993 4.838C63.258 5.04333 63.3746 5.286 63.4493 5.566C63.5333 5.846 63.594 6.13533 63.6313 6.434C63.678 6.72333 63.7013 7.01733 63.7013 7.316C63.7106 7.60533 63.7153 7.87133 63.7153 8.114C63.7153 8.48733 63.7013 8.90733 63.6733 9.374C63.6546 9.83133 63.58 10.2653 63.4493 10.676C63.328 11.0773 63.1273 11.418 62.8473 11.698C62.5673 11.978 62.1753 12.118 61.6713 12.118C61.1673 12.118 60.7753 11.978 60.4953 11.698C60.2153 11.418 60.01 11.0773 59.8793 10.676C59.758 10.2653 59.6833 9.83133 59.6553 9.374C59.6366 8.90733 59.6273 8.48733 59.6273 8.114ZM58.3673 8.128C58.3673 8.492 58.3766 8.87 58.3953 9.262C58.414 9.654 58.4606 10.0367 58.5353 10.41C58.61 10.7833 58.7173 11.138 58.8573 11.474C58.9973 11.8007 59.1886 12.09 59.4313 12.342C59.674 12.594 59.9773 12.7947 60.3413 12.944C60.7146 13.084 61.158 13.154 61.6713 13.154C62.194 13.154 62.6373 13.084 63.0013 12.944C63.3653 12.7947 63.6686 12.594 63.9113 12.342C64.154 12.09 64.3453 11.8007 64.4853 11.474C64.6253 11.138 64.7326 10.7833 64.8073 10.41C64.882 10.0367 64.9286 9.654 64.9473 9.262C64.966 8.87 64.9753 8.492 64.9753 8.128C64.9753 7.764 64.966 7.386 64.9473 6.994C64.9286 6.602 64.882 6.21933 64.8073 5.846C64.7326 5.47267 64.6253 5.118 64.4853 4.782C64.3453 4.446 64.154 4.152 63.9113 3.9C63.6686 3.648 63.3606 3.44733 62.9873 3.298C62.6233 3.14867 62.1846 3.074 61.6713 3.074C61.158 3.074 60.7146 3.14867 60.3413 3.298C59.9773 3.44733 59.674 3.648 59.4313 3.9C59.1886 4.152 58.9973 4.446 58.8573 4.782C58.7173 5.118 58.61 5.47267 58.5353 5.846C58.4606 6.21933 58.414 6.602 58.3953 6.994C58.3766 7.386 58.3673 7.764 58.3673 8.128Z" fill="#999999"/>
<path d="M124.616 6.588H125.806C125.797 6.28933 125.825 5.99533 125.89 5.706C125.965 5.40733 126.081 5.14133 126.24 4.908C126.399 4.67467 126.599 4.488 126.842 4.348C127.094 4.19867 127.393 4.124 127.738 4.124C127.999 4.124 128.247 4.166 128.48 4.25C128.713 4.334 128.914 4.45533 129.082 4.614C129.259 4.77267 129.399 4.964 129.502 5.188C129.605 5.40267 129.656 5.64533 129.656 5.916C129.656 6.26133 129.6 6.56467 129.488 6.826C129.385 7.08733 129.227 7.33 129.012 7.554C128.807 7.778 128.545 8.002 128.228 8.226C127.911 8.44067 127.542 8.67867 127.122 8.94C126.777 9.14533 126.445 9.36467 126.128 9.598C125.811 9.83133 125.526 10.102 125.274 10.41C125.022 10.718 124.812 11.082 124.644 11.502C124.485 11.9127 124.383 12.412 124.336 13H130.818V11.95H125.722C125.778 11.642 125.895 11.3713 126.072 11.138C126.259 10.8953 126.478 10.6713 126.73 10.466C126.991 10.2607 127.276 10.0693 127.584 9.892C127.892 9.70533 128.2 9.51867 128.508 9.332C128.816 9.136 129.115 8.93067 129.404 8.716C129.693 8.50133 129.95 8.26333 130.174 8.002C130.398 7.73133 130.575 7.428 130.706 7.092C130.846 6.756 130.916 6.36867 130.916 5.93C130.916 5.46333 130.832 5.05267 130.664 4.698C130.505 4.34333 130.286 4.04933 130.006 3.816C129.726 3.57333 129.395 3.39133 129.012 3.27C128.639 3.13933 128.237 3.074 127.808 3.074C127.285 3.074 126.819 3.16267 126.408 3.34C125.997 3.51733 125.652 3.76467 125.372 4.082C125.101 4.39 124.901 4.75867 124.77 5.188C124.639 5.61733 124.588 6.084 124.616 6.588ZM133.627 8.114C133.627 7.87133 133.627 7.60533 133.627 7.316C133.637 7.01733 133.66 6.72333 133.697 6.434C133.744 6.13533 133.805 5.846 133.879 5.566C133.963 5.286 134.08 5.04333 134.229 4.838C134.388 4.62333 134.584 4.45067 134.817 4.32C135.051 4.18933 135.335 4.124 135.671 4.124C136.007 4.124 136.292 4.18933 136.525 4.32C136.759 4.45067 136.95 4.62333 137.099 4.838C137.258 5.04333 137.375 5.286 137.449 5.566C137.533 5.846 137.594 6.13533 137.631 6.434C137.678 6.72333 137.701 7.01733 137.701 7.316C137.711 7.60533 137.715 7.87133 137.715 8.114C137.715 8.48733 137.701 8.90733 137.673 9.374C137.655 9.83133 137.58 10.2653 137.449 10.676C137.328 11.0773 137.127 11.418 136.847 11.698C136.567 11.978 136.175 12.118 135.671 12.118C135.167 12.118 134.775 11.978 134.495 11.698C134.215 11.418 134.01 11.0773 133.879 10.676C133.758 10.2653 133.683 9.83133 133.655 9.374C133.637 8.90733 133.627 8.48733 133.627 8.114ZM132.367 8.128C132.367 8.492 132.377 8.87 132.395 9.262C132.414 9.654 132.461 10.0367 132.535 10.41C132.61 10.7833 132.717 11.138 132.857 11.474C132.997 11.8007 133.189 12.09 133.431 12.342C133.674 12.594 133.977 12.7947 134.341 12.944C134.715 13.084 135.158 13.154 135.671 13.154C136.194 13.154 136.637 13.084 137.001 12.944C137.365 12.7947 137.669 12.594 137.911 12.342C138.154 12.09 138.345 11.8007 138.485 11.474C138.625 11.138 138.733 10.7833 138.807 10.41C138.882 10.0367 138.929 9.654 138.947 9.262C138.966 8.87 138.975 8.492 138.975 8.128C138.975 7.764 138.966 7.386 138.947 6.994C138.929 6.602 138.882 6.21933 138.807 5.846C138.733 5.47267 138.625 5.118 138.485 4.782C138.345 4.446 138.154 4.152 137.911 3.9C137.669 3.648 137.361 3.44733 136.987 3.298C136.623 3.14867 136.185 3.074 135.671 3.074C135.158 3.074 134.715 3.14867 134.341 3.298C133.977 3.44733 133.674 3.648 133.431 3.9C133.189 4.152 132.997 4.446 132.857 4.782C132.717 5.118 132.61 5.47267 132.535 5.846C132.461 6.21933 132.414 6.602 132.395 6.994C132.377 7.386 132.367 7.764 132.367 8.128ZM141.407 8.114C141.407 7.87133 141.407 7.60533 141.407 7.316C141.416 7.01733 141.439 6.72333 141.477 6.434C141.523 6.13533 141.584 5.846 141.659 5.566C141.743 5.286 141.859 5.04333 142.009 4.838C142.167 4.62333 142.363 4.45067 142.597 4.32C142.83 4.18933 143.115 4.124 143.451 4.124C143.787 4.124 144.071 4.18933 144.305 4.32C144.538 4.45067 144.729 4.62333 144.879 4.838C145.037 5.04333 145.154 5.286 145.229 5.566C145.313 5.846 145.373 6.13533 145.411 6.434C145.457 6.72333 145.481 7.01733 145.481 7.316C145.49 7.60533 145.495 7.87133 145.495 8.114C145.495 8.48733 145.481 8.90733 145.453 9.374C145.434 9.83133 145.359 10.2653 145.229 10.676C145.107 11.0773 144.907 11.418 144.627 11.698C144.347 11.978 143.955 12.118 143.451 12.118C142.947 12.118 142.555 11.978 142.275 11.698C141.995 11.418 141.789 11.0773 141.659 10.676C141.537 10.2653 141.463 9.83133 141.435 9.374C141.416 8.90733 141.407 8.48733 141.407 8.114ZM140.147 8.128C140.147 8.492 140.156 8.87 140.175 9.262C140.193 9.654 140.24 10.0367 140.315 10.41C140.389 10.7833 140.497 11.138 140.637 11.474C140.777 11.8007 140.968 12.09 141.211 12.342C141.453 12.594 141.757 12.7947 142.121 12.944C142.494 13.084 142.937 13.154 143.451 13.154C143.973 13.154 144.417 13.084 144.781 12.944C145.145 12.7947 145.448 12.594 145.691 12.342C145.933 12.09 146.125 11.8007 146.265 11.474C146.405 11.138 146.512 10.7833 146.587 10.41C146.661 10.0367 146.708 9.654 146.727 9.262C146.745 8.87 146.755 8.492 146.755 8.128C146.755 7.764 146.745 7.386 146.727 6.994C146.708 6.602 146.661 6.21933 146.587 5.846C146.512 5.47267 146.405 5.118 146.265 4.782C146.125 4.446 145.933 4.152 145.691 3.9C145.448 3.648 145.14 3.44733 144.767 3.298C144.403 3.14867 143.964 3.074 143.451 3.074C142.937 3.074 142.494 3.14867 142.121 3.298C141.757 3.44733 141.453 3.648 141.211 3.9C140.968 4.152 140.777 4.446 140.637 4.782C140.497 5.118 140.389 5.47267 140.315 5.846C140.24 6.21933 140.193 6.602 140.175 6.994C140.156 7.386 140.147 7.764 140.147 8.128Z" fill="#999999"/>
<path d="M210.746 9.626H207.414L210.718 4.768H210.746V9.626ZM211.866 9.626V3.074H210.914L206.392 9.528V10.676H210.746V13H211.866V10.676H213.21V9.626H211.866ZM215.627 8.114C215.627 7.87133 215.627 7.60533 215.627 7.316C215.637 7.01733 215.66 6.72333 215.697 6.434C215.744 6.13533 215.805 5.846 215.879 5.566C215.963 5.286 216.08 5.04333 216.229 4.838C216.388 4.62333 216.584 4.45067 216.817 4.32C217.051 4.18933 217.335 4.124 217.671 4.124C218.007 4.124 218.292 4.18933 218.525 4.32C218.759 4.45067 218.95 4.62333 219.099 4.838C219.258 5.04333 219.375 5.286 219.449 5.566C219.533 5.846 219.594 6.13533 219.631 6.434C219.678 6.72333 219.701 7.01733 219.701 7.316C219.711 7.60533 219.715 7.87133 219.715 8.114C219.715 8.48733 219.701 8.90733 219.673 9.374C219.655 9.83133 219.58 10.2653 219.449 10.676C219.328 11.0773 219.127 11.418 218.847 11.698C218.567 11.978 218.175 12.118 217.671 12.118C217.167 12.118 216.775 11.978 216.495 11.698C216.215 11.418 216.01 11.0773 215.879 10.676C215.758 10.2653 215.683 9.83133 215.655 9.374C215.637 8.90733 215.627 8.48733 215.627 8.114ZM214.367 8.128C214.367 8.492 214.377 8.87 214.395 9.262C214.414 9.654 214.461 10.0367 214.535 10.41C214.61 10.7833 214.717 11.138 214.857 11.474C214.997 11.8007 215.189 12.09 215.431 12.342C215.674 12.594 215.977 12.7947 216.341 12.944C216.715 13.084 217.158 13.154 217.671 13.154C218.194 13.154 218.637 13.084 219.001 12.944C219.365 12.7947 219.669 12.594 219.911 12.342C220.154 12.09 220.345 11.8007 220.485 11.474C220.625 11.138 220.733 10.7833 220.807 10.41C220.882 10.0367 220.929 9.654 220.947 9.262C220.966 8.87 220.975 8.492 220.975 8.128C220.975 7.764 220.966 7.386 220.947 6.994C220.929 6.602 220.882 6.21933 220.807 5.846C220.733 5.47267 220.625 5.118 220.485 4.782C220.345 4.446 220.154 4.152 219.911 3.9C219.669 3.648 219.361 3.44733 218.987 3.298C218.623 3.14867 218.185 3.074 217.671 3.074C217.158 3.074 216.715 3.14867 216.341 3.298C215.977 3.44733 215.674 3.648 215.431 3.9C215.189 4.152 214.997 4.446 214.857 4.782C214.717 5.118 214.61 5.47267 214.535 5.846C214.461 6.21933 214.414 6.602 214.395 6.994C214.377 7.386 214.367 7.764 214.367 8.128ZM223.407 8.114C223.407 7.87133 223.407 7.60533 223.407 7.316C223.416 7.01733 223.439 6.72333 223.477 6.434C223.523 6.13533 223.584 5.846 223.659 5.566C223.743 5.286 223.859 5.04333 224.009 4.838C224.167 4.62333 224.363 4.45067 224.597 4.32C224.83 4.18933 225.115 4.124 225.451 4.124C225.787 4.124 226.071 4.18933 226.305 4.32C226.538 4.45067 226.729 4.62333 226.879 4.838C227.037 5.04333 227.154 5.286 227.229 5.566C227.313 5.846 227.373 6.13533 227.411 6.434C227.457 6.72333 227.481 7.01733 227.481 7.316C227.49 7.60533 227.495 7.87133 227.495 8.114C227.495 8.48733 227.481 8.90733 227.453 9.374C227.434 9.83133 227.359 10.2653 227.229 10.676C227.107 11.0773 226.907 11.418 226.627 11.698C226.347 11.978 225.955 12.118 225.451 12.118C224.947 12.118 224.555 11.978 224.275 11.698C223.995 11.418 223.789 11.0773 223.659 10.676C223.537 10.2653 223.463 9.83133 223.435 9.374C223.416 8.90733 223.407 8.48733 223.407 8.114ZM222.147 8.128C222.147 8.492 222.156 8.87 222.175 9.262C222.193 9.654 222.24 10.0367 222.315 10.41C222.389 10.7833 222.497 11.138 222.637 11.474C222.777 11.8007 222.968 12.09 223.211 12.342C223.453 12.594 223.757 12.7947 224.121 12.944C224.494 13.084 224.937 13.154 225.451 13.154C225.973 13.154 226.417 13.084 226.781 12.944C227.145 12.7947 227.448 12.594 227.691 12.342C227.933 12.09 228.125 11.8007 228.265 11.474C228.405 11.138 228.512 10.7833 228.587 10.41C228.661 10.0367 228.708 9.654 228.727 9.262C228.745 8.87 228.755 8.492 228.755 8.128C228.755 7.764 228.745 7.386 228.727 6.994C228.708 6.602 228.661 6.21933 228.587 5.846C228.512 5.47267 228.405 5.118 228.265 4.782C228.125 4.446 227.933 4.152 227.691 3.9C227.448 3.648 227.14 3.44733 226.767 3.298C226.403 3.14867 225.964 3.074 225.451 3.074C224.937 3.074 224.494 3.14867 224.121 3.298C223.757 3.44733 223.453 3.648 223.211 3.9C222.968 4.152 222.777 4.446 222.637 4.782C222.497 5.118 222.389 5.47267 222.315 5.846C222.24 6.21933 222.193 6.602 222.175 6.994C222.156 7.386 222.147 7.764 222.147 8.128Z" fill="#999999"/>
<path d="M293.796 5.608H294.986C294.911 4.78667 294.631 4.16133 294.146 3.732C293.661 3.29333 293.007 3.074 292.186 3.074C291.477 3.074 290.889 3.22333 290.422 3.522C289.955 3.82067 289.582 4.21733 289.302 4.712C289.022 5.20667 288.821 5.776 288.7 6.42C288.588 7.05467 288.532 7.71267 288.532 8.394C288.532 8.91667 288.569 9.458 288.644 10.018C288.728 10.578 288.891 11.0913 289.134 11.558C289.377 12.0247 289.722 12.4073 290.17 12.706C290.618 13.0047 291.211 13.154 291.948 13.154C292.573 13.154 293.096 13.0513 293.516 12.846C293.945 12.6313 294.286 12.3653 294.538 12.048C294.799 11.7213 294.986 11.362 295.098 10.97C295.21 10.578 295.266 10.2 295.266 9.836C295.266 9.37867 295.196 8.954 295.056 8.562C294.916 8.17 294.715 7.82933 294.454 7.54C294.202 7.25067 293.885 7.02667 293.502 6.868C293.129 6.7 292.704 6.616 292.228 6.616C291.687 6.616 291.206 6.71867 290.786 6.924C290.375 7.12933 290.03 7.46067 289.75 7.918L289.722 7.89C289.731 7.50733 289.769 7.09667 289.834 6.658C289.899 6.21933 290.016 5.81333 290.184 5.44C290.361 5.05733 290.604 4.74467 290.912 4.502C291.22 4.25 291.626 4.124 292.13 4.124C292.606 4.124 292.989 4.25933 293.278 4.53C293.567 4.80067 293.74 5.16 293.796 5.608ZM292.004 7.666C292.34 7.666 292.634 7.72667 292.886 7.848C293.138 7.96933 293.348 8.13267 293.516 8.338C293.684 8.534 293.805 8.772 293.88 9.052C293.964 9.32267 294.006 9.612 294.006 9.92C294.006 10.2093 293.959 10.4893 293.866 10.76C293.782 11.0213 293.656 11.2547 293.488 11.46C293.32 11.6653 293.11 11.8287 292.858 11.95C292.615 12.062 292.331 12.118 292.004 12.118C291.677 12.118 291.383 12.062 291.122 11.95C290.87 11.8287 290.655 11.67 290.478 11.474C290.31 11.278 290.179 11.0447 290.086 10.774C289.993 10.5033 289.946 10.214 289.946 9.906C289.946 9.598 289.988 9.30867 290.072 9.038C290.165 8.758 290.301 8.52 290.478 8.324C290.655 8.11867 290.87 7.96 291.122 7.848C291.374 7.72667 291.668 7.666 292.004 7.666ZM297.627 8.114C297.627 7.87133 297.627 7.60533 297.627 7.316C297.637 7.01733 297.66 6.72333 297.697 6.434C297.744 6.13533 297.805 5.846 297.879 5.566C297.963 5.286 298.08 5.04333 298.229 4.838C298.388 4.62333 298.584 4.45067 298.817 4.32C299.051 4.18933 299.335 4.124 299.671 4.124C300.007 4.124 300.292 4.18933 300.525 4.32C300.759 4.45067 300.95 4.62333 301.099 4.838C301.258 5.04333 301.375 5.286 301.449 5.566C301.533 5.846 301.594 6.13533 301.631 6.434C301.678 6.72333 301.701 7.01733 301.701 7.316C301.711 7.60533 301.715 7.87133 301.715 8.114C301.715 8.48733 301.701 8.90733 301.673 9.374C301.655 9.83133 301.58 10.2653 301.449 10.676C301.328 11.0773 301.127 11.418 300.847 11.698C300.567 11.978 300.175 12.118 299.671 12.118C299.167 12.118 298.775 11.978 298.495 11.698C298.215 11.418 298.01 11.0773 297.879 10.676C297.758 10.2653 297.683 9.83133 297.655 9.374C297.637 8.90733 297.627 8.48733 297.627 8.114ZM296.367 8.128C296.367 8.492 296.377 8.87 296.395 9.262C296.414 9.654 296.461 10.0367 296.535 10.41C296.61 10.7833 296.717 11.138 296.857 11.474C296.997 11.8007 297.189 12.09 297.431 12.342C297.674 12.594 297.977 12.7947 298.341 12.944C298.715 13.084 299.158 13.154 299.671 13.154C300.194 13.154 300.637 13.084 301.001 12.944C301.365 12.7947 301.669 12.594 301.911 12.342C302.154 12.09 302.345 11.8007 302.485 11.474C302.625 11.138 302.733 10.7833 302.807 10.41C302.882 10.0367 302.929 9.654 302.947 9.262C302.966 8.87 302.975 8.492 302.975 8.128C302.975 7.764 302.966 7.386 302.947 6.994C302.929 6.602 302.882 6.21933 302.807 5.846C302.733 5.47267 302.625 5.118 302.485 4.782C302.345 4.446 302.154 4.152 301.911 3.9C301.669 3.648 301.361 3.44733 300.987 3.298C300.623 3.14867 300.185 3.074 299.671 3.074C299.158 3.074 298.715 3.14867 298.341 3.298C297.977 3.44733 297.674 3.648 297.431 3.9C297.189 4.152 296.997 4.446 296.857 4.782C296.717 5.118 296.61 5.47267 296.535 5.846C296.461 6.21933 296.414 6.602 296.395 6.994C296.377 7.386 296.367 7.764 296.367 8.128ZM305.407 8.114C305.407 7.87133 305.407 7.60533 305.407 7.316C305.416 7.01733 305.439 6.72333 305.477 6.434C305.523 6.13533 305.584 5.846 305.659 5.566C305.743 5.286 305.859 5.04333 306.009 4.838C306.167 4.62333 306.363 4.45067 306.597 4.32C306.83 4.18933 307.115 4.124 307.451 4.124C307.787 4.124 308.071 4.18933 308.305 4.32C308.538 4.45067 308.729 4.62333 308.879 4.838C309.037 5.04333 309.154 5.286 309.229 5.566C309.313 5.846 309.373 6.13533 309.411 6.434C309.457 6.72333 309.481 7.01733 309.481 7.316C309.49 7.60533 309.495 7.87133 309.495 8.114C309.495 8.48733 309.481 8.90733 309.453 9.374C309.434 9.83133 309.359 10.2653 309.229 10.676C309.107 11.0773 308.907 11.418 308.627 11.698C308.347 11.978 307.955 12.118 307.451 12.118C306.947 12.118 306.555 11.978 306.275 11.698C305.995 11.418 305.789 11.0773 305.659 10.676C305.537 10.2653 305.463 9.83133 305.435 9.374C305.416 8.90733 305.407 8.48733 305.407 8.114ZM304.147 8.128C304.147 8.492 304.156 8.87 304.175 9.262C304.193 9.654 304.24 10.0367 304.315 10.41C304.389 10.7833 304.497 11.138 304.637 11.474C304.777 11.8007 304.968 12.09 305.211 12.342C305.453 12.594 305.757 12.7947 306.121 12.944C306.494 13.084 306.937 13.154 307.451 13.154C307.973 13.154 308.417 13.084 308.781 12.944C309.145 12.7947 309.448 12.594 309.691 12.342C309.933 12.09 310.125 11.8007 310.265 11.474C310.405 11.138 310.512 10.7833 310.587 10.41C310.661 10.0367 310.708 9.654 310.727 9.262C310.745 8.87 310.755 8.492 310.755 8.128C310.755 7.764 310.745 7.386 310.727 6.994C310.708 6.602 310.661 6.21933 310.587 5.846C310.512 5.47267 310.405 5.118 310.265 4.782C310.125 4.446 309.933 4.152 309.691 3.9C309.448 3.648 309.14 3.44733 308.767 3.298C308.403 3.14867 307.964 3.074 307.451 3.074C306.937 3.074 306.494 3.14867 306.121 3.298C305.757 3.44733 305.453 3.648 305.211 3.9C304.968 4.152 304.777 4.446 304.637 4.782C304.497 5.118 304.389 5.47267 304.315 5.846C304.24 6.21933 304.193 6.602 304.175 6.994C304.156 7.386 304.147 7.764 304.147 8.128Z" fill="#999999"/>
<path d="M372.17 5.65C372.17 5.398 372.217 5.17867 372.31 4.992C372.403 4.80533 372.525 4.64667 372.674 4.516C372.833 4.38533 373.019 4.28733 373.234 4.222C373.449 4.15667 373.673 4.124 373.906 4.124C374.391 4.124 374.788 4.25467 375.096 4.516C375.413 4.768 375.572 5.146 375.572 5.65C375.572 6.154 375.418 6.546 375.11 6.826C374.802 7.106 374.41 7.246 373.934 7.246C373.691 7.246 373.463 7.21333 373.248 7.148C373.033 7.08267 372.847 6.98467 372.688 6.854C372.529 6.72333 372.403 6.56 372.31 6.364C372.217 6.15867 372.17 5.92067 372.17 5.65ZM370.91 5.608C370.91 6.056 371.036 6.47133 371.288 6.854C371.54 7.22733 371.876 7.498 372.296 7.666C371.736 7.862 371.307 8.17933 371.008 8.618C370.709 9.04733 370.56 9.556 370.56 10.144C370.56 10.648 370.644 11.0913 370.812 11.474C370.989 11.8473 371.227 12.16 371.526 12.412C371.834 12.664 372.193 12.8507 372.604 12.972C373.015 13.0933 373.458 13.154 373.934 13.154C374.391 13.154 374.821 13.0887 375.222 12.958C375.623 12.8273 375.969 12.636 376.258 12.384C376.557 12.1227 376.79 11.8053 376.958 11.432C377.135 11.0587 377.224 10.6293 377.224 10.144C377.224 9.528 377.079 9.01 376.79 8.59C376.501 8.16067 376.057 7.85267 375.46 7.666C375.88 7.47933 376.211 7.204 376.454 6.84C376.706 6.46667 376.832 6.056 376.832 5.608C376.832 5.29067 376.776 4.98267 376.664 4.684C376.552 4.376 376.375 4.10533 376.132 3.872C375.899 3.62933 375.591 3.438 375.208 3.298C374.825 3.14867 374.363 3.074 373.822 3.074C373.439 3.074 373.071 3.13 372.716 3.242C372.371 3.354 372.063 3.51733 371.792 3.732C371.521 3.94667 371.307 4.21267 371.148 4.53C370.989 4.838 370.91 5.19733 370.91 5.608ZM371.82 10.2C371.82 9.91067 371.871 9.64933 371.974 9.416C372.086 9.18267 372.235 8.982 372.422 8.814C372.618 8.646 372.842 8.52 373.094 8.436C373.355 8.34267 373.631 8.296 373.92 8.296C374.2 8.296 374.461 8.34733 374.704 8.45C374.956 8.54333 375.175 8.674 375.362 8.842C375.549 9.01 375.693 9.21067 375.796 9.444C375.908 9.668 375.964 9.91533 375.964 10.186C375.964 10.466 375.913 10.7227 375.81 10.956C375.717 11.1893 375.577 11.3947 375.39 11.572C375.213 11.74 374.998 11.8753 374.746 11.978C374.503 12.0713 374.233 12.118 373.934 12.118C373.318 12.118 372.809 11.95 372.408 11.614C372.016 11.2687 371.82 10.7973 371.82 10.2ZM379.627 8.114C379.627 7.87133 379.627 7.60533 379.627 7.316C379.637 7.01733 379.66 6.72333 379.697 6.434C379.744 6.13533 379.805 5.846 379.879 5.566C379.963 5.286 380.08 5.04333 380.229 4.838C380.388 4.62333 380.584 4.45067 380.817 4.32C381.051 4.18933 381.335 4.124 381.671 4.124C382.007 4.124 382.292 4.18933 382.525 4.32C382.759 4.45067 382.95 4.62333 383.099 4.838C383.258 5.04333 383.375 5.286 383.449 5.566C383.533 5.846 383.594 6.13533 383.631 6.434C383.678 6.72333 383.701 7.01733 383.701 7.316C383.711 7.60533 383.715 7.87133 383.715 8.114C383.715 8.48733 383.701 8.90733 383.673 9.374C383.655 9.83133 383.58 10.2653 383.449 10.676C383.328 11.0773 383.127 11.418 382.847 11.698C382.567 11.978 382.175 12.118 381.671 12.118C381.167 12.118 380.775 11.978 380.495 11.698C380.215 11.418 380.01 11.0773 379.879 10.676C379.758 10.2653 379.683 9.83133 379.655 9.374C379.637 8.90733 379.627 8.48733 379.627 8.114ZM378.367 8.128C378.367 8.492 378.377 8.87 378.395 9.262C378.414 9.654 378.461 10.0367 378.535 10.41C378.61 10.7833 378.717 11.138 378.857 11.474C378.997 11.8007 379.189 12.09 379.431 12.342C379.674 12.594 379.977 12.7947 380.341 12.944C380.715 13.084 381.158 13.154 381.671 13.154C382.194 13.154 382.637 13.084 383.001 12.944C383.365 12.7947 383.669 12.594 383.911 12.342C384.154 12.09 384.345 11.8007 384.485 11.474C384.625 11.138 384.733 10.7833 384.807 10.41C384.882 10.0367 384.929 9.654 384.947 9.262C384.966 8.87 384.975 8.492 384.975 8.128C384.975 7.764 384.966 7.386 384.947 6.994C384.929 6.602 384.882 6.21933 384.807 5.846C384.733 5.47267 384.625 5.118 384.485 4.782C384.345 4.446 384.154 4.152 383.911 3.9C383.669 3.648 383.361 3.44733 382.987 3.298C382.623 3.14867 382.185 3.074 381.671 3.074C381.158 3.074 380.715 3.14867 380.341 3.298C379.977 3.44733 379.674 3.648 379.431 3.9C379.189 4.152 378.997 4.446 378.857 4.782C378.717 5.118 378.61 5.47267 378.535 5.846C378.461 6.21933 378.414 6.602 378.395 6.994C378.377 7.386 378.367 7.764 378.367 8.128ZM387.407 8.114C387.407 7.87133 387.407 7.60533 387.407 7.316C387.416 7.01733 387.439 6.72333 387.477 6.434C387.523 6.13533 387.584 5.846 387.659 5.566C387.743 5.286 387.859 5.04333 388.009 4.838C388.167 4.62333 388.363 4.45067 388.597 4.32C388.83 4.18933 389.115 4.124 389.451 4.124C389.787 4.124 390.071 4.18933 390.305 4.32C390.538 4.45067 390.729 4.62333 390.879 4.838C391.037 5.04333 391.154 5.286 391.229 5.566C391.313 5.846 391.373 6.13533 391.411 6.434C391.457 6.72333 391.481 7.01733 391.481 7.316C391.49 7.60533 391.495 7.87133 391.495 8.114C391.495 8.48733 391.481 8.90733 391.453 9.374C391.434 9.83133 391.359 10.2653 391.229 10.676C391.107 11.0773 390.907 11.418 390.627 11.698C390.347 11.978 389.955 12.118 389.451 12.118C388.947 12.118 388.555 11.978 388.275 11.698C387.995 11.418 387.789 11.0773 387.659 10.676C387.537 10.2653 387.463 9.83133 387.435 9.374C387.416 8.90733 387.407 8.48733 387.407 8.114ZM386.147 8.128C386.147 8.492 386.156 8.87 386.175 9.262C386.193 9.654 386.24 10.0367 386.315 10.41C386.389 10.7833 386.497 11.138 386.637 11.474C386.777 11.8007 386.968 12.09 387.211 12.342C387.453 12.594 387.757 12.7947 388.121 12.944C388.494 13.084 388.937 13.154 389.451 13.154C389.973 13.154 390.417 13.084 390.781 12.944C391.145 12.7947 391.448 12.594 391.691 12.342C391.933 12.09 392.125 11.8007 392.265 11.474C392.405 11.138 392.512 10.7833 392.587 10.41C392.661 10.0367 392.708 9.654 392.727 9.262C392.745 8.87 392.755 8.492 392.755 8.128C392.755 7.764 392.745 7.386 392.727 6.994C392.708 6.602 392.661 6.21933 392.587 5.846C392.512 5.47267 392.405 5.118 392.265 4.782C392.125 4.446 391.933 4.152 391.691 3.9C391.448 3.648 391.14 3.44733 390.767 3.298C390.403 3.14867 389.964 3.074 389.451 3.074C388.937 3.074 388.494 3.14867 388.121 3.298C387.757 3.44733 387.453 3.648 387.211 3.9C386.968 4.152 386.777 4.446 386.637 4.782C386.497 5.118 386.389 5.47267 386.315 5.846C386.24 6.21933 386.193 6.602 386.175 6.994C386.156 7.386 386.147 7.764 386.147 8.128Z" fill="#999999"/>
<path d="M453.876 10.606H452.686C452.761 11.4647 453.073 12.104 453.624 12.524C454.175 12.944 454.865 13.154 455.696 13.154C456.9 13.154 457.773 12.6967 458.314 11.782C458.865 10.858 459.14 9.53733 459.14 7.82C459.14 6.87733 459.047 6.10267 458.86 5.496C458.683 4.88 458.44 4.39467 458.132 4.04C457.824 3.68533 457.465 3.438 457.054 3.298C456.643 3.14867 456.205 3.074 455.738 3.074C455.262 3.074 454.823 3.15333 454.422 3.312C454.021 3.47067 453.675 3.69467 453.386 3.984C453.097 4.264 452.873 4.60467 452.714 5.006C452.555 5.398 452.476 5.832 452.476 6.308C452.476 6.79333 452.541 7.24133 452.672 7.652C452.812 8.06267 453.013 8.41267 453.274 8.702C453.545 8.99133 453.876 9.22 454.268 9.388C454.66 9.54667 455.108 9.626 455.612 9.626C456.097 9.626 456.545 9.50467 456.956 9.262C457.367 9.01 457.684 8.674 457.908 8.254L457.936 8.282C457.899 9.57933 457.698 10.5453 457.334 11.18C456.97 11.8053 456.424 12.118 455.696 12.118C455.22 12.118 454.809 11.9873 454.464 11.726C454.119 11.4647 453.923 11.0913 453.876 10.606ZM457.726 6.392C457.726 6.68133 457.679 6.96133 457.586 7.232C457.493 7.49333 457.357 7.72667 457.18 7.932C457.003 8.128 456.788 8.28667 456.536 8.408C456.284 8.52 456.004 8.576 455.696 8.576C455.407 8.576 455.141 8.52 454.898 8.408C454.665 8.28667 454.459 8.128 454.282 7.932C454.114 7.736 453.979 7.512 453.876 7.26C453.783 7.008 453.736 6.74667 453.736 6.476C453.736 6.168 453.769 5.874 453.834 5.594C453.909 5.314 454.021 5.06667 454.17 4.852C454.329 4.628 454.529 4.45067 454.772 4.32C455.024 4.18933 455.327 4.124 455.682 4.124C456.018 4.124 456.312 4.18467 456.564 4.306C456.816 4.42733 457.026 4.59533 457.194 4.81C457.371 5.01533 457.502 5.25333 457.586 5.524C457.679 5.79467 457.726 6.084 457.726 6.392ZM466.359 4.292V3.242H461.459L460.535 8.394L461.557 8.45C461.791 8.17 462.057 7.946 462.355 7.778C462.663 7.60067 463.013 7.512 463.405 7.512C463.741 7.512 464.045 7.568 464.315 7.68C464.595 7.792 464.833 7.95067 465.029 8.156C465.225 8.352 465.375 8.59 465.477 8.87C465.589 9.14067 465.645 9.43933 465.645 9.766C465.645 10.158 465.589 10.5033 465.477 10.802C465.365 11.0913 465.211 11.334 465.015 11.53C464.829 11.726 464.605 11.8753 464.343 11.978C464.091 12.0713 463.825 12.118 463.545 12.118C463.247 12.118 462.971 12.076 462.719 11.992C462.477 11.8987 462.262 11.7727 462.075 11.614C461.898 11.446 461.753 11.2547 461.641 11.04C461.539 10.816 461.478 10.578 461.459 10.326H460.269C460.279 10.774 460.367 11.1753 460.535 11.53C460.703 11.8847 460.932 12.1833 461.221 12.426C461.511 12.6593 461.842 12.8413 462.215 12.972C462.598 13.0933 463.004 13.154 463.433 13.154C464.012 13.154 464.516 13.0653 464.945 12.888C465.384 12.7013 465.748 12.454 466.037 12.146C466.327 11.838 466.541 11.488 466.681 11.096C466.831 10.6947 466.905 10.284 466.905 9.864C466.905 9.29467 466.821 8.8 466.653 8.38C466.485 7.95067 466.257 7.596 465.967 7.316C465.678 7.02667 465.337 6.812 464.945 6.672C464.553 6.532 464.138 6.462 463.699 6.462C463.363 6.462 463.023 6.52267 462.677 6.644C462.341 6.756 462.066 6.93333 461.851 7.176L461.823 7.148L462.355 4.292H466.359ZM469.407 8.114C469.407 7.87133 469.407 7.60533 469.407 7.316C469.416 7.01733 469.439 6.72333 469.477 6.434C469.523 6.13533 469.584 5.846 469.659 5.566C469.743 5.286 469.859 5.04333 470.009 4.838C470.167 4.62333 470.363 4.45067 470.597 4.32C470.83 4.18933 471.115 4.124 471.451 4.124C471.787 4.124 472.071 4.18933 472.305 4.32C472.538 4.45067 472.729 4.62333 472.879 4.838C473.037 5.04333 473.154 5.286 473.229 5.566C473.313 5.846 473.373 6.13533 473.411 6.434C473.457 6.72333 473.481 7.01733 473.481 7.316C473.49 7.60533 473.495 7.87133 473.495 8.114C473.495 8.48733 473.481 8.90733 473.453 9.374C473.434 9.83133 473.359 10.2653 473.229 10.676C473.107 11.0773 472.907 11.418 472.627 11.698C472.347 11.978 471.955 12.118 471.451 12.118C470.947 12.118 470.555 11.978 470.275 11.698C469.995 11.418 469.789 11.0773 469.659 10.676C469.537 10.2653 469.463 9.83133 469.435 9.374C469.416 8.90733 469.407 8.48733 469.407 8.114ZM468.147 8.128C468.147 8.492 468.156 8.87 468.175 9.262C468.193 9.654 468.24 10.0367 468.315 10.41C468.389 10.7833 468.497 11.138 468.637 11.474C468.777 11.8007 468.968 12.09 469.211 12.342C469.453 12.594 469.757 12.7947 470.121 12.944C470.494 13.084 470.937 13.154 471.451 13.154C471.973 13.154 472.417 13.084 472.781 12.944C473.145 12.7947 473.448 12.594 473.691 12.342C473.933 12.09 474.125 11.8007 474.265 11.474C474.405 11.138 474.512 10.7833 474.587 10.41C474.661 10.0367 474.708 9.654 474.727 9.262C474.745 8.87 474.755 8.492 474.755 8.128C474.755 7.764 474.745 7.386 474.727 6.994C474.708 6.602 474.661 6.21933 474.587 5.846C474.512 5.47267 474.405 5.118 474.265 4.782C474.125 4.446 473.933 4.152 473.691 3.9C473.448 3.648 473.14 3.44733 472.767 3.298C472.403 3.14867 471.964 3.074 471.451 3.074C470.937 3.074 470.494 3.14867 470.121 3.298C469.757 3.44733 469.453 3.648 469.211 3.9C468.968 4.152 468.777 4.446 468.637 4.782C468.497 5.118 468.389 5.47267 468.315 5.846C468.24 6.21933 468.193 6.602 468.175 6.994C468.156 7.386 468.147 7.764 468.147 8.128Z" fill="#999999"/>
<path d="M594.832 5.65C594.832 5.398 594.879 5.17867 594.972 4.992C595.065 4.80533 595.187 4.64667 595.336 4.516C595.495 4.38533 595.681 4.28733 595.896 4.222C596.111 4.15667 596.335 4.124 596.568 4.124C597.053 4.124 597.45 4.25467 597.758 4.516C598.075 4.768 598.234 5.146 598.234 5.65C598.234 6.154 598.08 6.546 597.772 6.826C597.464 7.106 597.072 7.246 596.596 7.246C596.353 7.246 596.125 7.21333 595.91 7.148C595.695 7.08267 595.509 6.98467 595.35 6.854C595.191 6.72333 595.065 6.56 594.972 6.364C594.879 6.15867 594.832 5.92067 594.832 5.65ZM593.572 5.608C593.572 6.056 593.698 6.47133 593.95 6.854C594.202 7.22733 594.538 7.498 594.958 7.666C594.398 7.862 593.969 8.17933 593.67 8.618C593.371 9.04733 593.222 9.556 593.222 10.144C593.222 10.648 593.306 11.0913 593.474 11.474C593.651 11.8473 593.889 12.16 594.188 12.412C594.496 12.664 594.855 12.8507 595.266 12.972C595.677 13.0933 596.12 13.154 596.596 13.154C597.053 13.154 597.483 13.0887 597.884 12.958C598.285 12.8273 598.631 12.636 598.92 12.384C599.219 12.1227 599.452 11.8053 599.62 11.432C599.797 11.0587 599.886 10.6293 599.886 10.144C599.886 9.528 599.741 9.01 599.452 8.59C599.163 8.16067 598.719 7.85267 598.122 7.666C598.542 7.47933 598.873 7.204 599.116 6.84C599.368 6.46667 599.494 6.056 599.494 5.608C599.494 5.29067 599.438 4.98267 599.326 4.684C599.214 4.376 599.037 4.10533 598.794 3.872C598.561 3.62933 598.253 3.438 597.87 3.298C597.487 3.14867 597.025 3.074 596.484 3.074C596.101 3.074 595.733 3.13 595.378 3.242C595.033 3.354 594.725 3.51733 594.454 3.732C594.183 3.94667 593.969 4.21267 593.81 4.53C593.651 4.838 593.572 5.19733 593.572 5.608ZM594.482 10.2C594.482 9.91067 594.533 9.64933 594.636 9.416C594.748 9.18267 594.897 8.982 595.084 8.814C595.28 8.646 595.504 8.52 595.756 8.436C596.017 8.34267 596.293 8.296 596.582 8.296C596.862 8.296 597.123 8.34733 597.366 8.45C597.618 8.54333 597.837 8.674 598.024 8.842C598.211 9.01 598.355 9.21067 598.458 9.444C598.57 9.668 598.626 9.91533 598.626 10.186C598.626 10.466 598.575 10.7227 598.472 10.956C598.379 11.1893 598.239 11.3947 598.052 11.572C597.875 11.74 597.66 11.8753 597.408 11.978C597.165 12.0713 596.895 12.118 596.596 12.118C595.98 12.118 595.471 11.95 595.07 11.614C594.678 11.2687 594.482 10.7973 594.482 10.2ZM602.289 8.114C602.289 7.87133 602.289 7.60533 602.289 7.316C602.299 7.01733 602.322 6.72333 602.359 6.434C602.406 6.13533 602.467 5.846 602.541 5.566C602.625 5.286 602.742 5.04333 602.891 4.838C603.05 4.62333 603.246 4.45067 603.479 4.32C603.713 4.18933 603.997 4.124 604.333 4.124C604.669 4.124 604.954 4.18933 605.187 4.32C605.421 4.45067 605.612 4.62333 605.761 4.838C605.92 5.04333 606.037 5.286 606.111 5.566C606.195 5.846 606.256 6.13533 606.293 6.434C606.34 6.72333 606.363 7.01733 606.363 7.316C606.373 7.60533 606.377 7.87133 606.377 8.114C606.377 8.48733 606.363 8.90733 606.335 9.374C606.317 9.83133 606.242 10.2653 606.111 10.676C605.99 11.0773 605.789 11.418 605.509 11.698C605.229 11.978 604.837 12.118 604.333 12.118C603.829 12.118 603.437 11.978 603.157 11.698C602.877 11.418 602.672 11.0773 602.541 10.676C602.42 10.2653 602.345 9.83133 602.317 9.374C602.299 8.90733 602.289 8.48733 602.289 8.114ZM601.029 8.128C601.029 8.492 601.039 8.87 601.057 9.262C601.076 9.654 601.123 10.0367 601.197 10.41C601.272 10.7833 601.379 11.138 601.519 11.474C601.659 11.8007 601.851 12.09 602.093 12.342C602.336 12.594 602.639 12.7947 603.003 12.944C603.377 13.084 603.82 13.154 604.333 13.154C604.856 13.154 605.299 13.084 605.663 12.944C606.027 12.7947 606.331 12.594 606.573 12.342C606.816 12.09 607.007 11.8007 607.147 11.474C607.287 11.138 607.395 10.7833 607.469 10.41C607.544 10.0367 607.591 9.654 607.609 9.262C607.628 8.87 607.637 8.492 607.637 8.128C607.637 7.764 607.628 7.386 607.609 6.994C607.591 6.602 607.544 6.21933 607.469 5.846C607.395 5.47267 607.287 5.118 607.147 4.782C607.007 4.446 606.816 4.152 606.573 3.9C606.331 3.648 606.023 3.44733 605.649 3.298C605.285 3.14867 604.847 3.074 604.333 3.074C603.82 3.074 603.377 3.14867 603.003 3.298C602.639 3.44733 602.336 3.648 602.093 3.9C601.851 4.152 601.659 4.446 601.519 4.782C601.379 5.118 601.272 5.47267 601.197 5.846C601.123 6.21933 601.076 6.602 601.057 6.994C601.039 7.386 601.029 7.764 601.029 8.128ZM610.069 8.114C610.069 7.87133 610.069 7.60533 610.069 7.316C610.078 7.01733 610.101 6.72333 610.139 6.434C610.185 6.13533 610.246 5.846 610.321 5.566C610.405 5.286 610.521 5.04333 610.671 4.838C610.829 4.62333 611.025 4.45067 611.259 4.32C611.492 4.18933 611.777 4.124 612.113 4.124C612.449 4.124 612.733 4.18933 612.967 4.32C613.2 4.45067 613.391 4.62333 613.541 4.838C613.699 5.04333 613.816 5.286 613.891 5.566C613.975 5.846 614.035 6.13533 614.073 6.434C614.119 6.72333 614.143 7.01733 614.143 7.316C614.152 7.60533 614.157 7.87133 614.157 8.114C614.157 8.48733 614.143 8.90733 614.115 9.374C614.096 9.83133 614.021 10.2653 613.891 10.676C613.769 11.0773 613.569 11.418 613.289 11.698C613.009 11.978 612.617 12.118 612.113 12.118C611.609 12.118 611.217 11.978 610.937 11.698C610.657 11.418 610.451 11.0773 610.321 10.676C610.199 10.2653 610.125 9.83133 610.097 9.374C610.078 8.90733 610.069 8.48733 610.069 8.114ZM608.809 8.128C608.809 8.492 608.818 8.87 608.837 9.262C608.855 9.654 608.902 10.0367 608.977 10.41C609.051 10.7833 609.159 11.138 609.299 11.474C609.439 11.8007 609.63 12.09 609.873 12.342C610.115 12.594 610.419 12.7947 610.783 12.944C611.156 13.084 611.599 13.154 612.113 13.154C612.635 13.154 613.079 13.084 613.443 12.944C613.807 12.7947 614.11 12.594 614.353 12.342C614.595 12.09 614.787 11.8007 614.927 11.474C615.067 11.138 615.174 10.7833 615.249 10.41C615.323 10.0367 615.37 9.654 615.389 9.262C615.407 8.87 615.417 8.492 615.417 8.128C615.417 7.764 615.407 7.386 615.389 6.994C615.37 6.602 615.323 6.21933 615.249 5.846C615.174 5.47267 615.067 5.118 614.927 4.782C614.787 4.446 614.595 4.152 614.353 3.9C614.11 3.648 613.802 3.44733 613.429 3.298C613.065 3.14867 612.626 3.074 612.113 3.074C611.599 3.074 611.156 3.14867 610.783 3.298C610.419 3.44733 610.115 3.648 609.873 3.9C609.63 4.152 609.439 4.446 609.299 4.782C609.159 5.118 609.051 5.47267 608.977 5.846C608.902 6.21933 608.855 6.602 608.837 6.994C608.818 7.386 608.809 7.764 608.809 8.128Z" fill="#999999"/>
<path d="M678.458 5.608H679.648C679.573 4.78667 679.293 4.16133 678.808 3.732C678.323 3.29333 677.669 3.074 676.848 3.074C676.139 3.074 675.551 3.22333 675.084 3.522C674.617 3.82067 674.244 4.21733 673.964 4.712C673.684 5.20667 673.483 5.776 673.362 6.42C673.25 7.05467 673.194 7.71267 673.194 8.394C673.194 8.91667 673.231 9.458 673.306 10.018C673.39 10.578 673.553 11.0913 673.796 11.558C674.039 12.0247 674.384 12.4073 674.832 12.706C675.28 13.0047 675.873 13.154 676.61 13.154C677.235 13.154 677.758 13.0513 678.178 12.846C678.607 12.6313 678.948 12.3653 679.2 12.048C679.461 11.7213 679.648 11.362 679.76 10.97C679.872 10.578 679.928 10.2 679.928 9.836C679.928 9.37867 679.858 8.954 679.718 8.562C679.578 8.17 679.377 7.82933 679.116 7.54C678.864 7.25067 678.547 7.02667 678.164 6.868C677.791 6.7 677.366 6.616 676.89 6.616C676.349 6.616 675.868 6.71867 675.448 6.924C675.037 7.12933 674.692 7.46067 674.412 7.918L674.384 7.89C674.393 7.50733 674.431 7.09667 674.496 6.658C674.561 6.21933 674.678 5.81333 674.846 5.44C675.023 5.05733 675.266 4.74467 675.574 4.502C675.882 4.25 676.288 4.124 676.792 4.124C677.268 4.124 677.651 4.25933 677.94 4.53C678.229 4.80067 678.402 5.16 678.458 5.608ZM676.666 7.666C677.002 7.666 677.296 7.72667 677.548 7.848C677.8 7.96933 678.01 8.13267 678.178 8.338C678.346 8.534 678.467 8.772 678.542 9.052C678.626 9.32267 678.668 9.612 678.668 9.92C678.668 10.2093 678.621 10.4893 678.528 10.76C678.444 11.0213 678.318 11.2547 678.15 11.46C677.982 11.6653 677.772 11.8287 677.52 11.95C677.277 12.062 676.993 12.118 676.666 12.118C676.339 12.118 676.045 12.062 675.784 11.95C675.532 11.8287 675.317 11.67 675.14 11.474C674.972 11.278 674.841 11.0447 674.748 10.774C674.655 10.5033 674.608 10.214 674.608 9.906C674.608 9.598 674.65 9.30867 674.734 9.038C674.827 8.758 674.963 8.52 675.14 8.324C675.317 8.11867 675.532 7.96 675.784 7.848C676.036 7.72667 676.33 7.666 676.666 7.666ZM682.289 8.114C682.289 7.87133 682.289 7.60533 682.289 7.316C682.299 7.01733 682.322 6.72333 682.359 6.434C682.406 6.13533 682.467 5.846 682.541 5.566C682.625 5.286 682.742 5.04333 682.891 4.838C683.05 4.62333 683.246 4.45067 683.479 4.32C683.713 4.18933 683.997 4.124 684.333 4.124C684.669 4.124 684.954 4.18933 685.187 4.32C685.421 4.45067 685.612 4.62333 685.761 4.838C685.92 5.04333 686.037 5.286 686.111 5.566C686.195 5.846 686.256 6.13533 686.293 6.434C686.34 6.72333 686.363 7.01733 686.363 7.316C686.373 7.60533 686.377 7.87133 686.377 8.114C686.377 8.48733 686.363 8.90733 686.335 9.374C686.317 9.83133 686.242 10.2653 686.111 10.676C685.99 11.0773 685.789 11.418 685.509 11.698C685.229 11.978 684.837 12.118 684.333 12.118C683.829 12.118 683.437 11.978 683.157 11.698C682.877 11.418 682.672 11.0773 682.541 10.676C682.42 10.2653 682.345 9.83133 682.317 9.374C682.299 8.90733 682.289 8.48733 682.289 8.114ZM681.029 8.128C681.029 8.492 681.039 8.87 681.057 9.262C681.076 9.654 681.123 10.0367 681.197 10.41C681.272 10.7833 681.379 11.138 681.519 11.474C681.659 11.8007 681.851 12.09 682.093 12.342C682.336 12.594 682.639 12.7947 683.003 12.944C683.377 13.084 683.82 13.154 684.333 13.154C684.856 13.154 685.299 13.084 685.663 12.944C686.027 12.7947 686.331 12.594 686.573 12.342C686.816 12.09 687.007 11.8007 687.147 11.474C687.287 11.138 687.395 10.7833 687.469 10.41C687.544 10.0367 687.591 9.654 687.609 9.262C687.628 8.87 687.637 8.492 687.637 8.128C687.637 7.764 687.628 7.386 687.609 6.994C687.591 6.602 687.544 6.21933 687.469 5.846C687.395 5.47267 687.287 5.118 687.147 4.782C687.007 4.446 686.816 4.152 686.573 3.9C686.331 3.648 686.023 3.44733 685.649 3.298C685.285 3.14867 684.847 3.074 684.333 3.074C683.82 3.074 683.377 3.14867 683.003 3.298C682.639 3.44733 682.336 3.648 682.093 3.9C681.851 4.152 681.659 4.446 681.519 4.782C681.379 5.118 681.272 5.47267 681.197 5.846C681.123 6.21933 681.076 6.602 681.057 6.994C681.039 7.386 681.029 7.764 681.029 8.128ZM690.069 8.114C690.069 7.87133 690.069 7.60533 690.069 7.316C690.078 7.01733 690.101 6.72333 690.139 6.434C690.185 6.13533 690.246 5.846 690.321 5.566C690.405 5.286 690.521 5.04333 690.671 4.838C690.829 4.62333 691.025 4.45067 691.259 4.32C691.492 4.18933 691.777 4.124 692.113 4.124C692.449 4.124 692.733 4.18933 692.967 4.32C693.2 4.45067 693.391 4.62333 693.541 4.838C693.699 5.04333 693.816 5.286 693.891 5.566C693.975 5.846 694.035 6.13533 694.073 6.434C694.119 6.72333 694.143 7.01733 694.143 7.316C694.152 7.60533 694.157 7.87133 694.157 8.114C694.157 8.48733 694.143 8.90733 694.115 9.374C694.096 9.83133 694.021 10.2653 693.891 10.676C693.769 11.0773 693.569 11.418 693.289 11.698C693.009 11.978 692.617 12.118 692.113 12.118C691.609 12.118 691.217 11.978 690.937 11.698C690.657 11.418 690.451 11.0773 690.321 10.676C690.199 10.2653 690.125 9.83133 690.097 9.374C690.078 8.90733 690.069 8.48733 690.069 8.114ZM688.809 8.128C688.809 8.492 688.818 8.87 688.837 9.262C688.855 9.654 688.902 10.0367 688.977 10.41C689.051 10.7833 689.159 11.138 689.299 11.474C689.439 11.8007 689.63 12.09 689.873 12.342C690.115 12.594 690.419 12.7947 690.783 12.944C691.156 13.084 691.599 13.154 692.113 13.154C692.635 13.154 693.079 13.084 693.443 12.944C693.807 12.7947 694.11 12.594 694.353 12.342C694.595 12.09 694.787 11.8007 694.927 11.474C695.067 11.138 695.174 10.7833 695.249 10.41C695.323 10.0367 695.37 9.654 695.389 9.262C695.407 8.87 695.417 8.492 695.417 8.128C695.417 7.764 695.407 7.386 695.389 6.994C695.37 6.602 695.323 6.21933 695.249 5.846C695.174 5.47267 695.067 5.118 694.927 4.782C694.787 4.446 694.595 4.152 694.353 3.9C694.11 3.648 693.802 3.44733 693.429 3.298C693.065 3.14867 692.626 3.074 692.113 3.074C691.599 3.074 691.156 3.14867 690.783 3.298C690.419 3.44733 690.115 3.648 689.873 3.9C689.63 4.152 689.439 4.446 689.299 4.782C689.159 5.118 689.051 5.47267 688.977 5.846C688.902 6.21933 688.855 6.602 688.837 6.994C688.818 7.386 688.809 7.764 688.809 8.128Z" fill="#999999"/>
<path d="M757.408 9.626H754.076L757.38 4.768H757.408V9.626ZM758.528 9.626V3.074H757.576L753.054 9.528V10.676H757.408V13H758.528V10.676H759.872V9.626H758.528ZM762.289 8.114C762.289 7.87133 762.289 7.60533 762.289 7.316C762.299 7.01733 762.322 6.72333 762.359 6.434C762.406 6.13533 762.467 5.846 762.541 5.566C762.625 5.286 762.742 5.04333 762.891 4.838C763.05 4.62333 763.246 4.45067 763.479 4.32C763.713 4.18933 763.997 4.124 764.333 4.124C764.669 4.124 764.954 4.18933 765.187 4.32C765.421 4.45067 765.612 4.62333 765.761 4.838C765.92 5.04333 766.037 5.286 766.111 5.566C766.195 5.846 766.256 6.13533 766.293 6.434C766.34 6.72333 766.363 7.01733 766.363 7.316C766.373 7.60533 766.377 7.87133 766.377 8.114C766.377 8.48733 766.363 8.90733 766.335 9.374C766.317 9.83133 766.242 10.2653 766.111 10.676C765.99 11.0773 765.789 11.418 765.509 11.698C765.229 11.978 764.837 12.118 764.333 12.118C763.829 12.118 763.437 11.978 763.157 11.698C762.877 11.418 762.672 11.0773 762.541 10.676C762.42 10.2653 762.345 9.83133 762.317 9.374C762.299 8.90733 762.289 8.48733 762.289 8.114ZM761.029 8.128C761.029 8.492 761.039 8.87 761.057 9.262C761.076 9.654 761.123 10.0367 761.197 10.41C761.272 10.7833 761.379 11.138 761.519 11.474C761.659 11.8007 761.851 12.09 762.093 12.342C762.336 12.594 762.639 12.7947 763.003 12.944C763.377 13.084 763.82 13.154 764.333 13.154C764.856 13.154 765.299 13.084 765.663 12.944C766.027 12.7947 766.331 12.594 766.573 12.342C766.816 12.09 767.007 11.8007 767.147 11.474C767.287 11.138 767.395 10.7833 767.469 10.41C767.544 10.0367 767.591 9.654 767.609 9.262C767.628 8.87 767.637 8.492 767.637 8.128C767.637 7.764 767.628 7.386 767.609 6.994C767.591 6.602 767.544 6.21933 767.469 5.846C767.395 5.47267 767.287 5.118 767.147 4.782C767.007 4.446 766.816 4.152 766.573 3.9C766.331 3.648 766.023 3.44733 765.649 3.298C765.285 3.14867 764.847 3.074 764.333 3.074C763.82 3.074 763.377 3.14867 763.003 3.298C762.639 3.44733 762.336 3.648 762.093 3.9C761.851 4.152 761.659 4.446 761.519 4.782C761.379 5.118 761.272 5.47267 761.197 5.846C761.123 6.21933 761.076 6.602 761.057 6.994C761.039 7.386 761.029 7.764 761.029 8.128ZM770.069 8.114C770.069 7.87133 770.069 7.60533 770.069 7.316C770.078 7.01733 770.101 6.72333 770.139 6.434C770.185 6.13533 770.246 5.846 770.321 5.566C770.405 5.286 770.521 5.04333 770.671 4.838C770.829 4.62333 771.025 4.45067 771.259 4.32C771.492 4.18933 771.777 4.124 772.113 4.124C772.449 4.124 772.733 4.18933 772.967 4.32C773.2 4.45067 773.391 4.62333 773.541 4.838C773.699 5.04333 773.816 5.286 773.891 5.566C773.975 5.846 774.035 6.13533 774.073 6.434C774.119 6.72333 774.143 7.01733 774.143 7.316C774.152 7.60533 774.157 7.87133 774.157 8.114C774.157 8.48733 774.143 8.90733 774.115 9.374C774.096 9.83133 774.021 10.2653 773.891 10.676C773.769 11.0773 773.569 11.418 773.289 11.698C773.009 11.978 772.617 12.118 772.113 12.118C771.609 12.118 771.217 11.978 770.937 11.698C770.657 11.418 770.451 11.0773 770.321 10.676C770.199 10.2653 770.125 9.83133 770.097 9.374C770.078 8.90733 770.069 8.48733 770.069 8.114ZM768.809 8.128C768.809 8.492 768.818 8.87 768.837 9.262C768.855 9.654 768.902 10.0367 768.977 10.41C769.051 10.7833 769.159 11.138 769.299 11.474C769.439 11.8007 769.63 12.09 769.873 12.342C770.115 12.594 770.419 12.7947 770.783 12.944C771.156 13.084 771.599 13.154 772.113 13.154C772.635 13.154 773.079 13.084 773.443 12.944C773.807 12.7947 774.11 12.594 774.353 12.342C774.595 12.09 774.787 11.8007 774.927 11.474C775.067 11.138 775.174 10.7833 775.249 10.41C775.323 10.0367 775.37 9.654 775.389 9.262C775.407 8.87 775.417 8.492 775.417 8.128C775.417 7.764 775.407 7.386 775.389 6.994C775.37 6.602 775.323 6.21933 775.249 5.846C775.174 5.47267 775.067 5.118 774.927 4.782C774.787 4.446 774.595 4.152 774.353 3.9C774.11 3.648 773.802 3.44733 773.429 3.298C773.065 3.14867 772.626 3.074 772.113 3.074C771.599 3.074 771.156 3.14867 770.783 3.298C770.419 3.44733 770.115 3.648 769.873 3.9C769.63 4.152 769.439 4.446 769.299 4.782C769.159 5.118 769.051 5.47267 768.977 5.846C768.902 6.21933 768.855 6.602 768.837 6.994C768.818 7.386 768.809 7.764 768.809 8.128Z" fill="#999999"/>
<path d="M833.278 6.588H834.468C834.459 6.28933 834.487 5.99533 834.552 5.706C834.627 5.40733 834.743 5.14133 834.902 4.908C835.061 4.67467 835.261 4.488 835.504 4.348C835.756 4.19867 836.055 4.124 836.4 4.124C836.661 4.124 836.909 4.166 837.142 4.25C837.375 4.334 837.576 4.45533 837.744 4.614C837.921 4.77267 838.061 4.964 838.164 5.188C838.267 5.40267 838.318 5.64533 838.318 5.916C838.318 6.26133 838.262 6.56467 838.15 6.826C838.047 7.08733 837.889 7.33 837.674 7.554C837.469 7.778 837.207 8.002 836.89 8.226C836.573 8.44067 836.204 8.67867 835.784 8.94C835.439 9.14533 835.107 9.36467 834.79 9.598C834.473 9.83133 834.188 10.102 833.936 10.41C833.684 10.718 833.474 11.082 833.306 11.502C833.147 11.9127 833.045 12.412 832.998 13H839.48V11.95H834.384C834.44 11.642 834.557 11.3713 834.734 11.138C834.921 10.8953 835.14 10.6713 835.392 10.466C835.653 10.2607 835.938 10.0693 836.246 9.892C836.554 9.70533 836.862 9.51867 837.17 9.332C837.478 9.136 837.777 8.93067 838.066 8.716C838.355 8.50133 838.612 8.26333 838.836 8.002C839.06 7.73133 839.237 7.428 839.368 7.092C839.508 6.756 839.578 6.36867 839.578 5.93C839.578 5.46333 839.494 5.05267 839.326 4.698C839.167 4.34333 838.948 4.04933 838.668 3.816C838.388 3.57333 838.057 3.39133 837.674 3.27C837.301 3.13933 836.899 3.074 836.47 3.074C835.947 3.074 835.481 3.16267 835.07 3.34C834.659 3.51733 834.314 3.76467 834.034 4.082C833.763 4.39 833.563 4.75867 833.432 5.188C833.301 5.61733 833.25 6.084 833.278 6.588ZM842.289 8.114C842.289 7.87133 842.289 7.60533 842.289 7.316C842.299 7.01733 842.322 6.72333 842.359 6.434C842.406 6.13533 842.467 5.846 842.541 5.566C842.625 5.286 842.742 5.04333 842.891 4.838C843.05 4.62333 843.246 4.45067 843.479 4.32C843.713 4.18933 843.997 4.124 844.333 4.124C844.669 4.124 844.954 4.18933 845.187 4.32C845.421 4.45067 845.612 4.62333 845.761 4.838C845.92 5.04333 846.037 5.286 846.111 5.566C846.195 5.846 846.256 6.13533 846.293 6.434C846.34 6.72333 846.363 7.01733 846.363 7.316C846.373 7.60533 846.377 7.87133 846.377 8.114C846.377 8.48733 846.363 8.90733 846.335 9.374C846.317 9.83133 846.242 10.2653 846.111 10.676C845.99 11.0773 845.789 11.418 845.509 11.698C845.229 11.978 844.837 12.118 844.333 12.118C843.829 12.118 843.437 11.978 843.157 11.698C842.877 11.418 842.672 11.0773 842.541 10.676C842.42 10.2653 842.345 9.83133 842.317 9.374C842.299 8.90733 842.289 8.48733 842.289 8.114ZM841.029 8.128C841.029 8.492 841.039 8.87 841.057 9.262C841.076 9.654 841.123 10.0367 841.197 10.41C841.272 10.7833 841.379 11.138 841.519 11.474C841.659 11.8007 841.851 12.09 842.093 12.342C842.336 12.594 842.639 12.7947 843.003 12.944C843.377 13.084 843.82 13.154 844.333 13.154C844.856 13.154 845.299 13.084 845.663 12.944C846.027 12.7947 846.331 12.594 846.573 12.342C846.816 12.09 847.007 11.8007 847.147 11.474C847.287 11.138 847.395 10.7833 847.469 10.41C847.544 10.0367 847.591 9.654 847.609 9.262C847.628 8.87 847.637 8.492 847.637 8.128C847.637 7.764 847.628 7.386 847.609 6.994C847.591 6.602 847.544 6.21933 847.469 5.846C847.395 5.47267 847.287 5.118 847.147 4.782C847.007 4.446 846.816 4.152 846.573 3.9C846.331 3.648 846.023 3.44733 845.649 3.298C845.285 3.14867 844.847 3.074 844.333 3.074C843.82 3.074 843.377 3.14867 843.003 3.298C842.639 3.44733 842.336 3.648 842.093 3.9C841.851 4.152 841.659 4.446 841.519 4.782C841.379 5.118 841.272 5.47267 841.197 5.846C841.123 6.21933 841.076 6.602 841.057 6.994C841.039 7.386 841.029 7.764 841.029 8.128ZM850.069 8.114C850.069 7.87133 850.069 7.60533 850.069 7.316C850.078 7.01733 850.101 6.72333 850.139 6.434C850.185 6.13533 850.246 5.846 850.321 5.566C850.405 5.286 850.521 5.04333 850.671 4.838C850.829 4.62333 851.025 4.45067 851.259 4.32C851.492 4.18933 851.777 4.124 852.113 4.124C852.449 4.124 852.733 4.18933 852.967 4.32C853.2 4.45067 853.391 4.62333 853.541 4.838C853.699 5.04333 853.816 5.286 853.891 5.566C853.975 5.846 854.035 6.13533 854.073 6.434C854.119 6.72333 854.143 7.01733 854.143 7.316C854.152 7.60533 854.157 7.87133 854.157 8.114C854.157 8.48733 854.143 8.90733 854.115 9.374C854.096 9.83133 854.021 10.2653 853.891 10.676C853.769 11.0773 853.569 11.418 853.289 11.698C853.009 11.978 852.617 12.118 852.113 12.118C851.609 12.118 851.217 11.978 850.937 11.698C850.657 11.418 850.451 11.0773 850.321 10.676C850.199 10.2653 850.125 9.83133 850.097 9.374C850.078 8.90733 850.069 8.48733 850.069 8.114ZM848.809 8.128C848.809 8.492 848.818 8.87 848.837 9.262C848.855 9.654 848.902 10.0367 848.977 10.41C849.051 10.7833 849.159 11.138 849.299 11.474C849.439 11.8007 849.63 12.09 849.873 12.342C850.115 12.594 850.419 12.7947 850.783 12.944C851.156 13.084 851.599 13.154 852.113 13.154C852.635 13.154 853.079 13.084 853.443 12.944C853.807 12.7947 854.11 12.594 854.353 12.342C854.595 12.09 854.787 11.8007 854.927 11.474C855.067 11.138 855.174 10.7833 855.249 10.41C855.323 10.0367 855.37 9.654 855.389 9.262C855.407 8.87 855.417 8.492 855.417 8.128C855.417 7.764 855.407 7.386 855.389 6.994C855.37 6.602 855.323 6.21933 855.249 5.846C855.174 5.47267 855.067 5.118 854.927 4.782C854.787 4.446 854.595 4.152 854.353 3.9C854.11 3.648 853.802 3.44733 853.429 3.298C853.065 3.14867 852.626 3.074 852.113 3.074C851.599 3.074 851.156 3.14867 850.783 3.298C850.419 3.44733 850.115 3.648 849.873 3.9C849.63 4.152 849.439 4.446 849.299 4.782C849.159 5.118 849.051 5.47267 848.977 5.846C848.902 6.21933 848.855 6.602 848.837 6.994C848.818 7.386 848.809 7.764 848.809 8.128Z" fill="#999999"/>
<path d="M927.021 4.292V3.242H922.121L921.197 8.394L922.219 8.45C922.453 8.17 922.719 7.946 923.017 7.778C923.325 7.60067 923.675 7.512 924.067 7.512C924.403 7.512 924.707 7.568 924.977 7.68C925.257 7.792 925.495 7.95067 925.691 8.156C925.887 8.352 926.037 8.59 926.139 8.87C926.251 9.14067 926.307 9.43933 926.307 9.766C926.307 10.158 926.251 10.5033 926.139 10.802C926.027 11.0913 925.873 11.334 925.677 11.53C925.491 11.726 925.267 11.8753 925.005 11.978C924.753 12.0713 924.487 12.118 924.207 12.118C923.909 12.118 923.633 12.076 923.381 11.992C923.139 11.8987 922.924 11.7727 922.737 11.614C922.56 11.446 922.415 11.2547 922.303 11.04C922.201 10.816 922.14 10.578 922.121 10.326H920.931C920.941 10.774 921.029 11.1753 921.197 11.53C921.365 11.8847 921.594 12.1833 921.883 12.426C922.173 12.6593 922.504 12.8413 922.877 12.972C923.26 13.0933 923.666 13.154 924.095 13.154C924.674 13.154 925.178 13.0653 925.607 12.888C926.046 12.7013 926.41 12.454 926.699 12.146C926.989 11.838 927.203 11.488 927.343 11.096C927.493 10.6947 927.567 10.284 927.567 9.864C927.567 9.29467 927.483 8.8 927.315 8.38C927.147 7.95067 926.919 7.596 926.629 7.316C926.34 7.02667 925.999 6.812 925.607 6.672C925.215 6.532 924.8 6.462 924.361 6.462C924.025 6.462 923.685 6.52267 923.339 6.644C923.003 6.756 922.728 6.93333 922.513 7.176L922.485 7.148L923.017 4.292H927.021ZM930.069 8.114C930.069 7.87133 930.069 7.60533 930.069 7.316C930.078 7.01733 930.101 6.72333 930.139 6.434C930.185 6.13533 930.246 5.846 930.321 5.566C930.405 5.286 930.521 5.04333 930.671 4.838C930.829 4.62333 931.025 4.45067 931.259 4.32C931.492 4.18933 931.777 4.124 932.113 4.124C932.449 4.124 932.733 4.18933 932.967 4.32C933.2 4.45067 933.391 4.62333 933.541 4.838C933.699 5.04333 933.816 5.286 933.891 5.566C933.975 5.846 934.035 6.13533 934.073 6.434C934.119 6.72333 934.143 7.01733 934.143 7.316C934.152 7.60533 934.157 7.87133 934.157 8.114C934.157 8.48733 934.143 8.90733 934.115 9.374C934.096 9.83133 934.021 10.2653 933.891 10.676C933.769 11.0773 933.569 11.418 933.289 11.698C933.009 11.978 932.617 12.118 932.113 12.118C931.609 12.118 931.217 11.978 930.937 11.698C930.657 11.418 930.451 11.0773 930.321 10.676C930.199 10.2653 930.125 9.83133 930.097 9.374C930.078 8.90733 930.069 8.48733 930.069 8.114ZM928.809 8.128C928.809 8.492 928.818 8.87 928.837 9.262C928.855 9.654 928.902 10.0367 928.977 10.41C929.051 10.7833 929.159 11.138 929.299 11.474C929.439 11.8007 929.63 12.09 929.873 12.342C930.115 12.594 930.419 12.7947 930.783 12.944C931.156 13.084 931.599 13.154 932.113 13.154C932.635 13.154 933.079 13.084 933.443 12.944C933.807 12.7947 934.11 12.594 934.353 12.342C934.595 12.09 934.787 11.8007 934.927 11.474C935.067 11.138 935.174 10.7833 935.249 10.41C935.323 10.0367 935.37 9.654 935.389 9.262C935.407 8.87 935.417 8.492 935.417 8.128C935.417 7.764 935.407 7.386 935.389 6.994C935.37 6.602 935.323 6.21933 935.249 5.846C935.174 5.47267 935.067 5.118 934.927 4.782C934.787 4.446 934.595 4.152 934.353 3.9C934.11 3.648 933.802 3.44733 933.429 3.298C933.065 3.14867 932.626 3.074 932.113 3.074C931.599 3.074 931.156 3.14867 930.783 3.298C930.419 3.44733 930.115 3.648 929.873 3.9C929.63 4.152 929.439 4.446 929.299 4.782C929.159 5.118 929.051 5.47267 928.977 5.846C928.902 6.21933 928.855 6.602 928.837 6.994C928.818 7.386 928.809 7.764 928.809 8.128Z" fill="#999999"/>
<path d="M3.422 43.302V40.124H6.082C6.37133 40.124 6.642 40.1427 6.894 40.18C7.15533 40.208 7.384 40.278 7.58 40.39C7.776 40.502 7.93 40.6607 8.042 40.866C8.154 41.0713 8.21 41.3513 8.21 41.706C8.21 42.238 8.042 42.6393 7.706 42.91C7.37933 43.1713 6.838 43.302 6.082 43.302H3.422ZM2.092 39.004V49H6.922C7.41667 49 7.85067 48.9207 8.224 48.762C8.60667 48.594 8.924 48.3793 9.176 48.118C9.43733 47.8473 9.63333 47.5393 9.764 47.194C9.89467 46.8487 9.96 46.494 9.96 46.13C9.96 45.514 9.79667 44.9913 9.47 44.562C9.14333 44.1327 8.672 43.8527 8.056 43.722V43.694C8.532 43.5073 8.896 43.2227 9.148 42.84C9.40933 42.448 9.54 41.986 9.54 41.454C9.54 40.95 9.42333 40.5253 9.19 40.18C8.966 39.8347 8.69067 39.564 8.364 39.368C8.21467 39.2747 8.03267 39.2047 7.818 39.158C7.61267 39.1113 7.38867 39.0787 7.146 39.06C6.90333 39.032 6.656 39.018 6.404 39.018C6.16133 39.0087 5.93267 39.004 5.718 39.004H2.092ZM3.422 47.88V44.422H6.46C6.74 44.422 7.01067 44.45 7.272 44.506C7.53333 44.5527 7.762 44.6413 7.958 44.772C8.16333 44.8933 8.32667 45.0613 8.448 45.276C8.56933 45.4907 8.63 45.7613 8.63 46.088C8.63 46.648 8.462 47.0867 8.126 47.404C7.79933 47.7213 7.342 47.88 6.754 47.88H3.422ZM11.55 39.004V49H12.74V39.004H11.55ZM20.5755 49V41.762H19.3855V45.85C19.3855 46.1767 19.3388 46.48 19.2455 46.76C19.1615 47.0307 19.0308 47.2687 18.8535 47.474C18.6762 47.6793 18.4522 47.838 18.1815 47.95C17.9202 48.062 17.6075 48.118 17.2435 48.118C16.7862 48.118 16.4268 47.9873 16.1655 47.726C15.9042 47.4647 15.7735 47.11 15.7735 46.662V41.762H14.5835V46.522C14.5835 46.914 14.6208 47.2733 14.6955 47.6C14.7795 47.9173 14.9195 48.1927 15.1155 48.426C15.3115 48.6593 15.5682 48.8413 15.8855 48.972C16.2028 49.0933 16.5995 49.154 17.0755 49.154C17.6075 49.154 18.0695 49.0513 18.4615 48.846C18.8535 48.6313 19.1755 48.3 19.4275 47.852H19.4555V49H20.5755ZM27.3888 44.688H23.2308C23.2495 44.408 23.3101 44.1467 23.4128 43.904C23.5155 43.652 23.6555 43.4327 23.8328 43.246C24.0101 43.0593 24.2201 42.9147 24.4628 42.812C24.7148 42.7 24.9948 42.644 25.3028 42.644C25.6015 42.644 25.8721 42.7 26.1148 42.812C26.3668 42.9147 26.5815 43.0593 26.7588 43.246C26.9455 43.4233 27.0901 43.638 27.1928 43.89C27.3048 44.142 27.3701 44.408 27.3888 44.688ZM28.5368 46.704H27.3608C27.2581 47.18 27.0435 47.5347 26.7168 47.768C26.3995 48.0013 25.9888 48.118 25.4848 48.118C25.0928 48.118 24.7521 48.0527 24.4628 47.922C24.1735 47.7913 23.9355 47.6187 23.7488 47.404C23.5621 47.18 23.4268 46.928 23.3428 46.648C23.2588 46.3587 23.2215 46.0553 23.2308 45.738H28.6488C28.6675 45.2993 28.6255 44.8373 28.5228 44.352C28.4295 43.8667 28.2521 43.4187 27.9908 43.008C27.7388 42.5973 27.3981 42.2613 26.9688 42C26.5488 41.7293 26.0168 41.594 25.3728 41.594C24.8781 41.594 24.4208 41.6873 24.0008 41.874C23.5901 42.0607 23.2308 42.322 22.9228 42.658C22.6241 42.994 22.3908 43.3907 22.2228 43.848C22.0548 44.3053 21.9708 44.8093 21.9708 45.36C21.9895 45.9107 22.0688 46.4193 22.2088 46.886C22.3581 47.3527 22.5775 47.754 22.8668 48.09C23.1561 48.426 23.5108 48.6873 23.9308 48.874C24.3601 49.0607 24.8641 49.154 25.4428 49.154C26.2641 49.154 26.9455 48.9487 27.4868 48.538C28.0281 48.1273 28.3781 47.516 28.5368 46.704Z" fill="#999999"/>
<path d="M958.706 44.002C958.706 43.498 958.771 43.0033 958.902 42.518C959.032 42.0233 959.238 41.58 959.518 41.188C959.798 40.796 960.157 40.4833 960.596 40.25C961.034 40.0073 961.557 39.886 962.164 39.886C962.77 39.886 963.293 40.0073 963.732 40.25C964.17 40.4833 964.53 40.796 964.81 41.188C965.09 41.58 965.295 42.0233 965.426 42.518C965.556 43.0033 965.622 43.498 965.622 44.002C965.622 44.506 965.556 45.0053 965.426 45.5C965.295 45.9853 965.09 46.424 964.81 46.816C964.53 47.208 964.17 47.5253 963.732 47.768C963.293 48.0013 962.77 48.118 962.164 48.118C961.557 48.118 961.034 48.0013 960.596 47.768C960.157 47.5253 959.798 47.208 959.518 46.816C959.238 46.424 959.032 45.9853 958.902 45.5C958.771 45.0053 958.706 44.506 958.706 44.002ZM957.376 44.002C957.376 44.6833 957.474 45.3413 957.67 45.976C957.875 46.6013 958.178 47.1567 958.58 47.642C958.981 48.1273 959.48 48.5147 960.078 48.804C960.675 49.084 961.37 49.224 962.164 49.224C962.957 49.224 963.652 49.084 964.25 48.804C964.847 48.5147 965.346 48.1273 965.748 47.642C966.149 47.1567 966.448 46.6013 966.644 45.976C966.849 45.3413 966.952 44.6833 966.952 44.002C966.952 43.3207 966.849 42.6673 966.644 42.042C966.448 41.4073 966.149 40.8473 965.748 40.362C965.346 39.8767 964.847 39.4893 964.25 39.2C963.652 38.9107 962.957 38.766 962.164 38.766C961.37 38.766 960.675 38.9107 960.078 39.2C959.48 39.4893 958.981 39.8767 958.58 40.362C958.178 40.8473 957.875 41.4073 957.67 42.042C957.474 42.6673 957.376 43.3207 957.376 44.002ZM968.334 41.762V49H969.524V45.78C969.524 45.3133 969.571 44.9027 969.664 44.548C969.758 44.184 969.907 43.876 970.112 43.624C970.318 43.372 970.588 43.1807 970.924 43.05C971.26 42.9193 971.666 42.854 972.142 42.854V41.594C971.498 41.5753 970.966 41.706 970.546 41.986C970.126 42.266 969.772 42.7 969.482 43.288H969.454V41.762H968.334ZM979.451 48.972C979.245 49.0933 978.961 49.154 978.597 49.154C978.289 49.154 978.041 49.07 977.855 48.902C977.677 48.7247 977.589 48.44 977.589 48.048C977.262 48.44 976.879 48.7247 976.441 48.902C976.011 49.07 975.545 49.154 975.041 49.154C974.714 49.154 974.401 49.1167 974.103 49.042C973.813 48.9673 973.561 48.8507 973.347 48.692C973.132 48.5333 972.959 48.328 972.829 48.076C972.707 47.8147 972.647 47.502 972.647 47.138C972.647 46.7273 972.717 46.3913 972.857 46.13C972.997 45.8687 973.179 45.6587 973.403 45.5C973.636 45.332 973.897 45.206 974.187 45.122C974.485 45.038 974.789 44.968 975.097 44.912C975.423 44.8467 975.731 44.8 976.021 44.772C976.319 44.7347 976.581 44.688 976.805 44.632C977.029 44.5667 977.206 44.478 977.337 44.366C977.467 44.2447 977.533 44.072 977.533 43.848C977.533 43.5867 977.481 43.3767 977.379 43.218C977.285 43.0593 977.159 42.938 977.001 42.854C976.851 42.77 976.679 42.714 976.483 42.686C976.296 42.658 976.109 42.644 975.923 42.644C975.419 42.644 974.999 42.742 974.663 42.938C974.327 43.1247 974.145 43.484 974.117 44.016H972.927C972.945 43.568 973.039 43.19 973.207 42.882C973.375 42.574 973.599 42.3267 973.879 42.14C974.159 41.944 974.476 41.804 974.831 41.72C975.195 41.636 975.582 41.594 975.993 41.594C976.319 41.594 976.641 41.6173 976.959 41.664C977.285 41.7107 977.579 41.8087 977.841 41.958C978.102 42.098 978.312 42.2987 978.471 42.56C978.629 42.8213 978.709 43.162 978.709 43.582V47.306C978.709 47.586 978.723 47.7913 978.751 47.922C978.788 48.0527 978.9 48.118 979.087 48.118C979.189 48.118 979.311 48.0947 979.451 48.048V48.972ZM977.519 45.262C977.369 45.374 977.173 45.458 976.931 45.514C976.688 45.5607 976.431 45.6027 976.161 45.64C975.899 45.668 975.633 45.7053 975.363 45.752C975.092 45.7893 974.849 45.8547 974.635 45.948C974.42 46.0413 974.243 46.1767 974.103 46.354C973.972 46.522 973.907 46.7553 973.907 47.054C973.907 47.25 973.944 47.418 974.019 47.558C974.103 47.6887 974.205 47.796 974.327 47.88C974.457 47.964 974.607 48.0247 974.775 48.062C974.943 48.0993 975.12 48.118 975.307 48.118C975.699 48.118 976.035 48.0667 976.315 47.964C976.595 47.852 976.823 47.7167 977.001 47.558C977.178 47.39 977.309 47.2127 977.393 47.026C977.477 46.83 977.519 46.648 977.519 46.48V45.262ZM980.558 41.762V49H981.748V44.912C981.748 44.5853 981.79 44.2867 981.874 44.016C981.967 43.736 982.103 43.4933 982.28 43.288C982.457 43.0827 982.677 42.924 982.938 42.812C983.209 42.7 983.526 42.644 983.89 42.644C984.347 42.644 984.707 42.7747 984.968 43.036C985.229 43.2973 985.36 43.652 985.36 44.1V49H986.55V44.24C986.55 43.848 986.508 43.4933 986.424 43.176C986.349 42.8493 986.214 42.5693 986.018 42.336C985.822 42.1027 985.565 41.9207 985.248 41.79C984.931 41.6593 984.534 41.594 984.058 41.594C982.985 41.594 982.201 42.0327 981.706 42.91H981.678V41.762H980.558ZM994.581 48.384V41.762H993.461V42.798H993.447C993.233 42.3967 992.934 42.098 992.551 41.902C992.169 41.6967 991.749 41.594 991.291 41.594C990.666 41.594 990.139 41.7153 989.709 41.958C989.28 42.1913 988.935 42.4947 988.673 42.868C988.412 43.232 988.225 43.6427 988.113 44.1C988.001 44.548 987.945 44.9867 987.945 45.416C987.945 45.9107 988.011 46.382 988.141 46.83C988.281 47.2687 988.487 47.656 988.757 47.992C989.028 48.3187 989.364 48.58 989.765 48.776C990.167 48.972 990.638 49.07 991.179 49.07C991.646 49.07 992.085 48.9673 992.495 48.762C992.915 48.5473 993.228 48.216 993.433 47.768H993.461V48.244C993.461 48.6453 993.419 49.014 993.335 49.35C993.261 49.686 993.135 49.9707 992.957 50.204C992.78 50.4467 992.556 50.6333 992.285 50.764C992.015 50.904 991.683 50.974 991.291 50.974C991.095 50.974 990.89 50.9507 990.675 50.904C990.461 50.8667 990.26 50.8013 990.073 50.708C989.896 50.6147 989.742 50.4933 989.611 50.344C989.49 50.1947 989.425 50.0127 989.415 49.798H988.225C988.244 50.19 988.347 50.5213 988.533 50.792C988.72 51.0627 988.953 51.282 989.233 51.45C989.523 51.618 989.84 51.7393 990.185 51.814C990.54 51.8887 990.885 51.926 991.221 51.926C992.379 51.926 993.228 51.632 993.769 51.044C994.311 50.456 994.581 49.5693 994.581 48.384ZM991.249 48.034C990.857 48.034 990.531 47.9547 990.269 47.796C990.008 47.628 989.798 47.4133 989.639 47.152C989.481 46.8813 989.369 46.5827 989.303 46.256C989.238 45.9293 989.205 45.6027 989.205 45.276C989.205 44.9307 989.243 44.5993 989.317 44.282C989.401 43.9647 989.527 43.6847 989.695 43.442C989.873 43.1993 990.097 43.008 990.367 42.868C990.638 42.7187 990.965 42.644 991.347 42.644C991.721 42.644 992.038 42.7187 992.299 42.868C992.561 43.0173 992.771 43.218 992.929 43.47C993.097 43.7127 993.219 43.988 993.293 44.296C993.368 44.604 993.405 44.9167 993.405 45.234C993.405 45.57 993.363 45.906 993.279 46.242C993.205 46.578 993.083 46.8813 992.915 47.152C992.747 47.4133 992.523 47.628 992.243 47.796C991.973 47.9547 991.641 48.034 991.249 48.034ZM1001.4 44.688H997.244C997.263 44.408 997.324 44.1467 997.426 43.904C997.529 43.652 997.669 43.4327 997.846 43.246C998.024 43.0593 998.234 42.9147 998.476 42.812C998.728 42.7 999.008 42.644 999.316 42.644C999.615 42.644 999.886 42.7 1000.13 42.812C1000.38 42.9147 1000.6 43.0593 1000.77 43.246C1000.96 43.4233 1001.1 43.638 1001.21 43.89C1001.32 44.142 1001.38 44.408 1001.4 44.688ZM1002.55 46.704H1001.37C1001.27 47.18 1001.06 47.5347 1000.73 47.768C1000.41 48.0013 1000 48.118 999.498 48.118C999.106 48.118 998.766 48.0527 998.476 47.922C998.187 47.7913 997.949 47.6187 997.762 47.404C997.576 47.18 997.44 46.928 997.356 46.648C997.272 46.3587 997.235 46.0553 997.244 45.738H1002.66C1002.68 45.2993 1002.64 44.8373 1002.54 44.352C1002.44 43.8667 1002.27 43.4187 1002 43.008C1001.75 42.5973 1001.41 42.2613 1000.98 42C1000.56 41.7293 1000.03 41.594 999.386 41.594C998.892 41.594 998.434 41.6873 998.014 41.874C997.604 42.0607 997.244 42.322 996.936 42.658C996.638 42.994 996.404 43.3907 996.236 43.848C996.068 44.3053 995.984 44.8093 995.984 45.36C996.003 45.9107 996.082 46.4193 996.222 46.886C996.372 47.3527 996.591 47.754 996.88 48.09C997.17 48.426 997.524 48.6873 997.944 48.874C998.374 49.0607 998.878 49.154 999.456 49.154C1000.28 49.154 1000.96 48.9487 1001.5 48.538C1002.04 48.1273 1002.39 47.516 1002.55 46.704Z" fill="#999999"/>
<path d="M3.814 117.87L5.508 113.208H5.536L7.202 117.87H3.814ZM4.808 112.004L0.916 122H2.274L3.394 118.99H7.622L8.714 122H10.184L6.278 112.004H4.808ZM11.8421 118.444C11.8421 118.089 11.8795 117.744 11.9541 117.408C12.0288 117.072 12.1501 116.773 12.3181 116.512C12.4861 116.251 12.7101 116.041 12.9901 115.882C13.2701 115.723 13.6108 115.644 14.0121 115.644C14.4228 115.644 14.7728 115.723 15.0621 115.882C15.3515 116.031 15.5848 116.232 15.7621 116.484C15.9488 116.736 16.0841 117.03 16.1681 117.366C16.2521 117.693 16.2941 118.033 16.2941 118.388C16.2941 118.724 16.2521 119.055 16.1681 119.382C16.0935 119.709 15.9675 120.003 15.7901 120.264C15.6128 120.516 15.3841 120.721 15.1041 120.88C14.8241 121.039 14.4835 121.118 14.0821 121.118C13.6995 121.118 13.3635 121.043 13.0741 120.894C12.7941 120.745 12.5608 120.544 12.3741 120.292C12.1968 120.04 12.0615 119.755 11.9681 119.438C11.8841 119.111 11.8421 118.78 11.8421 118.444ZM17.4421 124.758V114.762H16.2521V115.728H16.2241C16.0935 115.513 15.9301 115.336 15.7341 115.196C15.5475 115.047 15.3468 114.93 15.1321 114.846C14.9175 114.753 14.7028 114.687 14.4881 114.65C14.2735 114.613 14.0728 114.594 13.8861 114.594C13.3355 114.594 12.8501 114.697 12.4301 114.902C12.0195 115.098 11.6741 115.369 11.3941 115.714C11.1235 116.05 10.9181 116.447 10.7781 116.904C10.6475 117.361 10.5821 117.847 10.5821 118.36C10.5821 118.873 10.6521 119.359 10.7921 119.816C10.9321 120.273 11.1375 120.675 11.4081 121.02C11.6881 121.365 12.0335 121.641 12.4441 121.846C12.8641 122.051 13.3541 122.154 13.9141 122.154C14.4181 122.154 14.8801 122.065 15.3001 121.888C15.7201 121.711 16.0281 121.421 16.2241 121.02H16.2521V124.758H17.4421ZM25.265 122V114.762H24.075V118.85C24.075 119.177 24.0283 119.48 23.935 119.76C23.851 120.031 23.7203 120.269 23.543 120.474C23.3656 120.679 23.1416 120.838 22.871 120.95C22.6096 121.062 22.297 121.118 21.933 121.118C21.4756 121.118 21.1163 120.987 20.855 120.726C20.5936 120.465 20.463 120.11 20.463 119.662V114.762H19.273V119.522C19.273 119.914 19.3103 120.273 19.385 120.6C19.469 120.917 19.609 121.193 19.805 121.426C20.001 121.659 20.2576 121.841 20.575 121.972C20.8923 122.093 21.289 122.154 21.765 122.154C22.297 122.154 22.759 122.051 23.151 121.846C23.543 121.631 23.865 121.3 24.117 120.852H24.145V122H25.265ZM33.4643 121.972C33.2589 122.093 32.9743 122.154 32.6103 122.154C32.3023 122.154 32.0549 122.07 31.8683 121.902C31.6909 121.725 31.6023 121.44 31.6023 121.048C31.2756 121.44 30.8929 121.725 30.4543 121.902C30.0249 122.07 29.5583 122.154 29.0543 122.154C28.7276 122.154 28.4149 122.117 28.1163 122.042C27.8269 121.967 27.5749 121.851 27.3603 121.692C27.1456 121.533 26.9729 121.328 26.8423 121.076C26.7209 120.815 26.6603 120.502 26.6603 120.138C26.6603 119.727 26.7303 119.391 26.8703 119.13C27.0103 118.869 27.1923 118.659 27.4163 118.5C27.6496 118.332 27.9109 118.206 28.2003 118.122C28.4989 118.038 28.8023 117.968 29.1103 117.912C29.4369 117.847 29.7449 117.8 30.0343 117.772C30.3329 117.735 30.5943 117.688 30.8183 117.632C31.0423 117.567 31.2196 117.478 31.3503 117.366C31.4809 117.245 31.5463 117.072 31.5463 116.848C31.5463 116.587 31.4949 116.377 31.3923 116.218C31.2989 116.059 31.1729 115.938 31.0143 115.854C30.8649 115.77 30.6923 115.714 30.4963 115.686C30.3096 115.658 30.1229 115.644 29.9363 115.644C29.4323 115.644 29.0123 115.742 28.6763 115.938C28.3403 116.125 28.1583 116.484 28.1303 117.016H26.9403C26.9589 116.568 27.0523 116.19 27.2203 115.882C27.3883 115.574 27.6123 115.327 27.8923 115.14C28.1723 114.944 28.4896 114.804 28.8443 114.72C29.2083 114.636 29.5956 114.594 30.0063 114.594C30.3329 114.594 30.6549 114.617 30.9723 114.664C31.2989 114.711 31.5929 114.809 31.8543 114.958C32.1156 115.098 32.3256 115.299 32.4843 115.56C32.6429 115.821 32.7223 116.162 32.7223 116.582V120.306C32.7223 120.586 32.7363 120.791 32.7643 120.922C32.8016 121.053 32.9136 121.118 33.1003 121.118C33.2029 121.118 33.3243 121.095 33.4643 121.048V121.972ZM31.5323 118.262C31.3829 118.374 31.1869 118.458 30.9443 118.514C30.7016 118.561 30.4449 118.603 30.1743 118.64C29.9129 118.668 29.6469 118.705 29.3763 118.752C29.1056 118.789 28.8629 118.855 28.6483 118.948C28.4336 119.041 28.2563 119.177 28.1163 119.354C27.9856 119.522 27.9203 119.755 27.9203 120.054C27.9203 120.25 27.9576 120.418 28.0323 120.558C28.1163 120.689 28.2189 120.796 28.3403 120.88C28.4709 120.964 28.6203 121.025 28.7883 121.062C28.9563 121.099 29.1336 121.118 29.3203 121.118C29.7123 121.118 30.0483 121.067 30.3283 120.964C30.6083 120.852 30.8369 120.717 31.0143 120.558C31.1916 120.39 31.3223 120.213 31.4063 120.026C31.4903 119.83 31.5323 119.648 31.5323 119.48V118.262Z" fill="#999999"/>
<path d="M973.711 120.754L974.061 122H974.901V116.736H970.519V117.856H973.711C973.729 118.313 973.669 118.743 973.529 119.144C973.389 119.536 973.179 119.881 972.899 120.18C972.628 120.469 972.292 120.698 971.891 120.866C971.489 121.034 971.027 121.118 970.505 121.118C969.945 121.118 969.45 121.011 969.021 120.796C968.601 120.572 968.246 120.278 967.957 119.914C967.667 119.541 967.448 119.116 967.299 118.64C967.149 118.155 967.075 117.651 967.075 117.128C967.075 116.596 967.14 116.078 967.271 115.574C967.401 115.061 967.602 114.608 967.873 114.216C968.153 113.815 968.507 113.493 968.937 113.25C969.375 113.007 969.898 112.886 970.505 112.886C970.878 112.886 971.228 112.933 971.555 113.026C971.891 113.11 972.189 113.241 972.451 113.418C972.712 113.595 972.931 113.824 973.109 114.104C973.286 114.375 973.407 114.701 973.473 115.084H974.803C974.709 114.496 974.532 113.997 974.271 113.586C974.019 113.166 973.701 112.821 973.319 112.55C972.945 112.279 972.516 112.083 972.031 111.962C971.555 111.831 971.046 111.766 970.505 111.766C969.711 111.766 969.016 111.915 968.419 112.214C967.831 112.503 967.336 112.895 966.935 113.39C966.543 113.885 966.244 114.463 966.039 115.126C965.843 115.779 965.745 116.47 965.745 117.198C965.745 117.851 965.852 118.481 966.067 119.088C966.281 119.695 966.594 120.231 967.005 120.698C967.415 121.165 967.915 121.538 968.503 121.818C969.091 122.089 969.758 122.224 970.505 122.224C971.093 122.224 971.676 122.112 972.255 121.888C972.833 121.655 973.319 121.277 973.711 120.754ZM976.62 114.762V122H977.81V118.78C977.81 118.313 977.856 117.903 977.95 117.548C978.043 117.184 978.192 116.876 978.398 116.624C978.603 116.372 978.874 116.181 979.21 116.05C979.546 115.919 979.952 115.854 980.428 115.854V114.594C979.784 114.575 979.252 114.706 978.832 114.986C978.412 115.266 978.057 115.7 977.768 116.288H977.74V114.762H976.62ZM986.104 117.688H981.946C981.964 117.408 982.025 117.147 982.128 116.904C982.23 116.652 982.37 116.433 982.548 116.246C982.725 116.059 982.935 115.915 983.178 115.812C983.43 115.7 983.71 115.644 984.018 115.644C984.316 115.644 984.587 115.7 984.83 115.812C985.082 115.915 985.296 116.059 985.474 116.246C985.66 116.423 985.805 116.638 985.908 116.89C986.02 117.142 986.085 117.408 986.104 117.688ZM987.252 119.704H986.076C985.973 120.18 985.758 120.535 985.432 120.768C985.114 121.001 984.704 121.118 984.2 121.118C983.808 121.118 983.467 121.053 983.178 120.922C982.888 120.791 982.65 120.619 982.464 120.404C982.277 120.18 982.142 119.928 982.058 119.648C981.974 119.359 981.936 119.055 981.946 118.738H987.364C987.382 118.299 987.34 117.837 987.238 117.352C987.144 116.867 986.967 116.419 986.706 116.008C986.454 115.597 986.113 115.261 985.684 115C985.264 114.729 984.732 114.594 984.088 114.594C983.593 114.594 983.136 114.687 982.716 114.874C982.305 115.061 981.946 115.322 981.638 115.658C981.339 115.994 981.106 116.391 980.938 116.848C980.77 117.305 980.686 117.809 980.686 118.36C980.704 118.911 980.784 119.419 980.924 119.886C981.073 120.353 981.292 120.754 981.582 121.09C981.871 121.426 982.226 121.687 982.646 121.874C983.075 122.061 983.579 122.154 984.158 122.154C984.979 122.154 985.66 121.949 986.202 121.538C986.743 121.127 987.093 120.516 987.252 119.704ZM993.623 117.688H989.465C989.484 117.408 989.545 117.147 989.647 116.904C989.75 116.652 989.89 116.433 990.067 116.246C990.245 116.059 990.455 115.915 990.697 115.812C990.949 115.7 991.229 115.644 991.537 115.644C991.836 115.644 992.107 115.7 992.349 115.812C992.601 115.915 992.816 116.059 992.993 116.246C993.18 116.423 993.325 116.638 993.427 116.89C993.539 117.142 993.605 117.408 993.623 117.688ZM994.771 119.704H993.595C993.493 120.18 993.278 120.535 992.951 120.768C992.634 121.001 992.223 121.118 991.719 121.118C991.327 121.118 990.987 121.053 990.697 120.922C990.408 120.791 990.17 120.619 989.983 120.404C989.797 120.18 989.661 119.928 989.577 119.648C989.493 119.359 989.456 119.055 989.465 118.738H994.883C994.902 118.299 994.86 117.837 994.757 117.352C994.664 116.867 994.487 116.419 994.225 116.008C993.973 115.597 993.633 115.261 993.203 115C992.783 114.729 992.251 114.594 991.607 114.594C991.113 114.594 990.655 114.687 990.235 114.874C989.825 115.061 989.465 115.322 989.157 115.658C988.859 115.994 988.625 116.391 988.457 116.848C988.289 117.305 988.205 117.809 988.205 118.36C988.224 118.911 988.303 119.419 988.443 119.886C988.593 120.353 988.812 120.754 989.101 121.09C989.391 121.426 989.745 121.687 990.165 121.874C990.595 122.061 991.099 122.154 991.677 122.154C992.499 122.154 993.18 121.949 993.721 121.538C994.263 121.127 994.613 120.516 994.771 119.704ZM996.117 114.762V122H997.307V117.912C997.307 117.585 997.349 117.287 997.433 117.016C997.526 116.736 997.661 116.493 997.839 116.288C998.016 116.083 998.235 115.924 998.497 115.812C998.767 115.7 999.085 115.644 999.449 115.644C999.906 115.644 1000.27 115.775 1000.53 116.036C1000.79 116.297 1000.92 116.652 1000.92 117.1V122H1002.11V117.24C1002.11 116.848 1002.07 116.493 1001.98 116.176C1001.91 115.849 1001.77 115.569 1001.58 115.336C1001.38 115.103 1001.12 114.921 1000.81 114.79C1000.49 114.659 1000.09 114.594 999.617 114.594C998.543 114.594 997.759 115.033 997.265 115.91H997.237V114.762H996.117Z" fill="#999999"/>
</svg>
