<svg width="93" height="120" viewBox="0 0 93 120" fill="none" xmlns="http://www.w3.org/2000/svg">
<path d="M79.659 101.142V102.262H83.705V101.142H79.659ZM90.9804 96.8862V95.8362H86.0804L85.1564 100.988L86.1784 101.044C86.4117 100.764 86.6777 100.54 86.9764 100.372C87.2844 100.195 87.6344 100.106 88.0264 100.106C88.3624 100.106 88.6657 100.162 88.9364 100.274C89.2164 100.386 89.4544 100.545 89.6504 100.75C89.8464 100.946 89.9957 101.184 90.0984 101.464C90.2104 101.735 90.2664 102.034 90.2664 102.36C90.2664 102.752 90.2104 103.098 90.0984 103.396C89.9864 103.686 89.8324 103.928 89.6364 104.124C89.4497 104.32 89.2257 104.47 88.9644 104.572C88.7124 104.666 88.4464 104.712 88.1664 104.712C87.8677 104.712 87.5924 104.67 87.3404 104.586C87.0977 104.493 86.8831 104.367 86.6964 104.208C86.5191 104.04 86.3744 103.849 86.2624 103.634C86.1597 103.41 86.0991 103.172 86.0804 102.92H84.8904C84.8997 103.368 84.9884 103.77 85.1564 104.124C85.3244 104.479 85.5531 104.778 85.8424 105.02C86.1317 105.254 86.4631 105.436 86.8364 105.566C87.2191 105.688 87.6251 105.748 88.0544 105.748C88.6331 105.748 89.1371 105.66 89.5664 105.482C90.0051 105.296 90.3691 105.048 90.6584 104.74C90.9477 104.432 91.1624 104.082 91.3024 103.69C91.4517 103.289 91.5264 102.878 91.5264 102.458C91.5264 101.889 91.4424 101.394 91.2744 100.974C91.1064 100.545 90.8777 100.19 90.5884 99.9102C90.2991 99.6209 89.9584 99.4062 89.5664 99.2662C89.1744 99.1262 88.7591 99.0562 88.3204 99.0562C87.9844 99.0562 87.6437 99.1169 87.2984 99.2382C86.9624 99.3502 86.6871 99.5276 86.4724 99.7702L86.4444 99.7422L86.9764 96.8862H90.9804Z" fill="#666666"/>
<path d="M86.2484 60.2082C86.2484 59.9656 86.2484 59.6996 86.2484 59.4102C86.2577 59.1116 86.2811 58.8176 86.3184 58.5282C86.3651 58.2296 86.4257 57.9402 86.5004 57.6602C86.5844 57.3802 86.7011 57.1376 86.8504 56.9322C87.0091 56.7176 87.2051 56.5449 87.4384 56.4142C87.6717 56.2836 87.9564 56.2182 88.2924 56.2182C88.6284 56.2182 88.9131 56.2836 89.1464 56.4142C89.3797 56.5449 89.5711 56.7176 89.7204 56.9322C89.8791 57.1376 89.9957 57.3802 90.0704 57.6602C90.1544 57.9402 90.2151 58.2296 90.2524 58.5282C90.2991 58.8176 90.3224 59.1116 90.3224 59.4102C90.3317 59.6996 90.3364 59.9656 90.3364 60.2082C90.3364 60.5816 90.3224 61.0016 90.2944 61.4682C90.2757 61.9256 90.2011 62.3596 90.0704 62.7702C89.9491 63.1716 89.7484 63.5122 89.4684 63.7922C89.1884 64.0722 88.7964 64.2122 88.2924 64.2122C87.7884 64.2122 87.3964 64.0722 87.1164 63.7922C86.8364 63.5122 86.6311 63.1716 86.5004 62.7702C86.3791 62.3596 86.3044 61.9256 86.2764 61.4682C86.2577 61.0016 86.2484 60.5816 86.2484 60.2082ZM84.9884 60.2222C84.9884 60.5862 84.9977 60.9642 85.0164 61.3562C85.0351 61.7482 85.0817 62.1309 85.1564 62.5042C85.2311 62.8776 85.3384 63.2322 85.4784 63.5682C85.6184 63.8949 85.8097 64.1842 86.0524 64.4362C86.2951 64.6882 86.5984 64.8889 86.9624 65.0382C87.3357 65.1782 87.7791 65.2482 88.2924 65.2482C88.8151 65.2482 89.2584 65.1782 89.6224 65.0382C89.9864 64.8889 90.2897 64.6882 90.5324 64.4362C90.7751 64.1842 90.9664 63.8949 91.1064 63.5682C91.2464 63.2322 91.3537 62.8776 91.4284 62.5042C91.5031 62.1309 91.5497 61.7482 91.5684 61.3562C91.5871 60.9642 91.5964 60.5862 91.5964 60.2222C91.5964 59.8582 91.5871 59.4802 91.5684 59.0882C91.5497 58.6962 91.5031 58.3136 91.4284 57.9402C91.3537 57.5669 91.2464 57.2122 91.1064 56.8762C90.9664 56.5402 90.7751 56.2462 90.5324 55.9942C90.2897 55.7422 89.9817 55.5416 89.6084 55.3922C89.2444 55.2429 88.8057 55.1682 88.2924 55.1682C87.7791 55.1682 87.3357 55.2429 86.9624 55.3922C86.5984 55.5416 86.2951 55.7422 86.0524 55.9942C85.8097 56.2462 85.6184 56.5402 85.4784 56.8762C85.3384 57.2122 85.2311 57.5669 85.1564 57.9402C85.0817 58.3136 85.0351 58.6962 85.0164 59.0882C84.9977 59.4802 84.9884 59.8582 84.9884 60.2222Z" fill="#666666"/>
<path d="M80.5022 17.982V14.916H79.5502V17.982H76.4982V18.934H79.5502V22H80.5022V18.934H83.5542V17.982H80.5022ZM90.8007 13.292V12.242H85.9007L84.9767 17.394L85.9987 17.45C86.232 17.17 86.498 16.946 86.7967 16.778C87.1047 16.6007 87.4547 16.512 87.8467 16.512C88.1827 16.512 88.486 16.568 88.7567 16.68C89.0367 16.792 89.2747 16.9507 89.4707 17.156C89.6667 17.352 89.816 17.59 89.9187 17.87C90.0307 18.1407 90.0867 18.4393 90.0867 18.766C90.0867 19.158 90.0307 19.5033 89.9187 19.802C89.8067 20.0913 89.6527 20.334 89.4567 20.53C89.27 20.726 89.046 20.8753 88.7847 20.978C88.5327 21.0713 88.2667 21.118 87.9867 21.118C87.688 21.118 87.4127 21.076 87.1607 20.992C86.918 20.8987 86.7034 20.7727 86.5167 20.614C86.3394 20.446 86.1947 20.2547 86.0827 20.04C85.98 19.816 85.9194 19.578 85.9007 19.326H84.7107C84.72 19.774 84.8087 20.1753 84.9767 20.53C85.1447 20.8847 85.3734 21.1833 85.6627 21.426C85.952 21.6593 86.2834 21.8413 86.6567 21.972C87.0394 22.0933 87.4454 22.154 87.8747 22.154C88.4534 22.154 88.9574 22.0653 89.3867 21.888C89.8254 21.7013 90.1894 21.454 90.4787 21.146C90.768 20.838 90.9827 20.488 91.1227 20.096C91.272 19.6947 91.3467 19.284 91.3467 18.864C91.3467 18.2947 91.2627 17.8 91.0947 17.38C90.9267 16.9507 90.698 16.596 90.4087 16.316C90.1194 16.0267 89.7787 15.812 89.3867 15.672C88.9947 15.532 88.5794 15.462 88.1407 15.462C87.8047 15.462 87.464 15.5227 87.1187 15.644C86.7827 15.756 86.5074 15.9333 86.2927 16.176L86.2647 16.148L86.7967 13.292H90.8007Z" fill="#666666"/>
<rect width="39.191" height="39.191" rx="4" transform="matrix(0.866044 -0.499967 0.866044 0.499967 0.738281 99.5942)" fill="#B8FFF2"/>
<rect width="39.191" height="39.191" rx="4" transform="matrix(0.866044 -0.499967 0.866044 0.499967 0.738281 91.5942)" fill="#5EEBDF"/>
<rect width="39.191" height="39.191" rx="4" transform="matrix(0.866044 -0.499967 0.866044 0.499967 0.738281 83.5942)" fill="#0BB6C6"/>
<rect x="0.866044" width="38.191" height="38.191" rx="3.5" transform="matrix(0.866044 -0.499967 0.866044 0.499967 0.854293 76.0272)" fill="#0080A1" stroke="#0094B6"/>
<rect x="0.866044" width="38.191" height="38.191" rx="3.5" transform="matrix(0.866044 -0.499967 0.866044 0.499967 0.854293 68.0272)" fill="#004D67" stroke="#0094B6"/>
<rect x="0.866044" width="38.191" height="38.191" rx="3.5" transform="matrix(0.866044 -0.499967 0.866044 0.499967 0.854293 60.0272)" fill="#00293D" stroke="#0094B6"/>
<rect x="0.866044" width="38.191" height="38.191" rx="3.5" transform="matrix(0.866044 -0.499967 0.866044 0.499967 0.854293 52.0272)" fill="#275600" stroke="#608B2F"/>
<rect x="0.866044" width="38.191" height="38.191" rx="3.5" transform="matrix(0.866044 -0.499967 0.866044 0.499967 0.854293 44.0272)" fill="#487900" stroke="#608B2F"/>
<rect width="39.191" height="39.191" rx="4" transform="matrix(0.866044 -0.499967 0.866044 0.499967 0.738281 35.5942)" fill="#83AB4A"/>
<rect width="39.191" height="39.191" rx="4" transform="matrix(0.866044 -0.499967 0.866044 0.499967 0.738281 27.5942)" fill="#B0DE73"/>
<rect width="39.191" height="39.191" rx="4" transform="matrix(0.866044 -0.499967 0.866044 0.499967 0.738281 19.5942)" fill="#DDFAB7"/>
</svg>
