<svg width="92" height="120" viewBox="0 0 92 120" fill="none" xmlns="http://www.w3.org/2000/svg">
<path d="M78.9207 101.142V102.262H82.9667V101.142H78.9207ZM90.2421 96.8862V95.8362H85.3421L84.4181 100.988L85.4401 101.044C85.6734 100.764 85.9394 100.54 86.2381 100.372C86.5461 100.195 86.8961 100.106 87.2881 100.106C87.6241 100.106 87.9274 100.162 88.1981 100.274C88.4781 100.386 88.7161 100.545 88.9121 100.75C89.1081 100.946 89.2574 101.184 89.3601 101.464C89.4721 101.735 89.5281 102.034 89.5281 102.36C89.5281 102.752 89.4721 103.098 89.3601 103.396C89.2481 103.686 89.0941 103.928 88.8981 104.124C88.7114 104.32 88.4874 104.47 88.2261 104.572C87.9741 104.666 87.7081 104.712 87.4281 104.712C87.1294 104.712 86.8541 104.67 86.6021 104.586C86.3594 104.493 86.1448 104.367 85.9581 104.208C85.7808 104.04 85.6361 103.849 85.5241 103.634C85.4214 103.41 85.3608 103.172 85.3421 102.92H84.1521C84.1614 103.368 84.2501 103.77 84.4181 104.124C84.5861 104.479 84.8148 104.778 85.1041 105.02C85.3934 105.254 85.7248 105.436 86.0981 105.566C86.4808 105.688 86.8868 105.748 87.3161 105.748C87.8948 105.748 88.3988 105.66 88.8281 105.482C89.2668 105.296 89.6308 105.048 89.9201 104.74C90.2094 104.432 90.4241 104.082 90.5641 103.69C90.7134 103.289 90.7881 102.878 90.7881 102.458C90.7881 101.889 90.7041 101.394 90.5361 100.974C90.3681 100.545 90.1394 100.19 89.8501 99.9102C89.5608 99.6209 89.2201 99.4062 88.8281 99.2662C88.4361 99.1262 88.0208 99.0562 87.5821 99.0562C87.2461 99.0562 86.9054 99.1169 86.5601 99.2382C86.2241 99.3502 85.9488 99.5276 85.7341 99.7702L85.7061 99.7422L86.2381 96.8862H90.2421Z" fill="#666666"/>
<path d="M85.5101 60.2082C85.5101 59.9656 85.5101 59.6996 85.5101 59.4102C85.5194 59.1116 85.5428 58.8176 85.5801 58.5282C85.6268 58.2296 85.6874 57.9402 85.7621 57.6602C85.8461 57.3802 85.9628 57.1376 86.1121 56.9322C86.2708 56.7176 86.4668 56.5449 86.7001 56.4142C86.9334 56.2836 87.2181 56.2182 87.5541 56.2182C87.8901 56.2182 88.1748 56.2836 88.4081 56.4142C88.6414 56.5449 88.8328 56.7176 88.9821 56.9322C89.1408 57.1376 89.2574 57.3802 89.3321 57.6602C89.4161 57.9402 89.4768 58.2296 89.5141 58.5282C89.5608 58.8176 89.5841 59.1116 89.5841 59.4102C89.5934 59.6996 89.5981 59.9656 89.5981 60.2082C89.5981 60.5816 89.5841 61.0016 89.5561 61.4682C89.5374 61.9256 89.4628 62.3596 89.3321 62.7702C89.2108 63.1716 89.0101 63.5122 88.7301 63.7922C88.4501 64.0722 88.0581 64.2122 87.5541 64.2122C87.0501 64.2122 86.6581 64.0722 86.3781 63.7922C86.0981 63.5122 85.8928 63.1716 85.7621 62.7702C85.6408 62.3596 85.5661 61.9256 85.5381 61.4682C85.5194 61.0016 85.5101 60.5816 85.5101 60.2082ZM84.2501 60.2222C84.2501 60.5862 84.2594 60.9642 84.2781 61.3562C84.2968 61.7482 84.3434 62.1309 84.4181 62.5042C84.4928 62.8776 84.6001 63.2322 84.7401 63.5682C84.8801 63.8949 85.0714 64.1842 85.3141 64.4362C85.5568 64.6882 85.8601 64.8889 86.2241 65.0382C86.5974 65.1782 87.0408 65.2482 87.5541 65.2482C88.0768 65.2482 88.5201 65.1782 88.8841 65.0382C89.2481 64.8889 89.5514 64.6882 89.7941 64.4362C90.0368 64.1842 90.2281 63.8949 90.3681 63.5682C90.5081 63.2322 90.6154 62.8776 90.6901 62.5042C90.7648 62.1309 90.8114 61.7482 90.8301 61.3562C90.8488 60.9642 90.8581 60.5862 90.8581 60.2222C90.8581 59.8582 90.8488 59.4802 90.8301 59.0882C90.8114 58.6962 90.7648 58.3136 90.6901 57.9402C90.6154 57.5669 90.5081 57.2122 90.3681 56.8762C90.2281 56.5402 90.0368 56.2462 89.7941 55.9942C89.5514 55.7422 89.2434 55.5416 88.8701 55.3922C88.5061 55.2429 88.0674 55.1682 87.5541 55.1682C87.0408 55.1682 86.5974 55.2429 86.2241 55.3922C85.8601 55.5416 85.5568 55.7422 85.3141 55.9942C85.0714 56.2462 84.8801 56.5402 84.7401 56.8762C84.6001 57.2122 84.4928 57.5669 84.4181 57.9402C84.3434 58.3136 84.2968 58.6962 84.2781 59.0882C84.2594 59.4802 84.2501 59.8582 84.2501 60.2222Z" fill="#666666"/>
<path d="M79.9436 17.982V14.916H78.9916V17.982H75.9396V18.934H78.9916V22H79.9436V18.934H82.9956V17.982H79.9436ZM90.2421 13.292V12.242H85.3421L84.4181 17.394L85.4401 17.45C85.6734 17.17 85.9394 16.946 86.2381 16.778C86.5461 16.6007 86.8961 16.512 87.2881 16.512C87.6241 16.512 87.9274 16.568 88.1981 16.68C88.4781 16.792 88.7161 16.9507 88.9121 17.156C89.1081 17.352 89.2574 17.59 89.3601 17.87C89.4721 18.1407 89.5281 18.4393 89.5281 18.766C89.5281 19.158 89.4721 19.5033 89.3601 19.802C89.2481 20.0913 89.0941 20.334 88.8981 20.53C88.7114 20.726 88.4874 20.8753 88.2261 20.978C87.9741 21.0713 87.7081 21.118 87.4281 21.118C87.1294 21.118 86.8541 21.076 86.6021 20.992C86.3594 20.8987 86.1448 20.7727 85.9581 20.614C85.7808 20.446 85.6361 20.2547 85.5241 20.04C85.4214 19.816 85.3608 19.578 85.3421 19.326H84.1521C84.1614 19.774 84.2501 20.1753 84.4181 20.53C84.5861 20.8847 84.8148 21.1833 85.1041 21.426C85.3934 21.6593 85.7248 21.8413 86.0981 21.972C86.4808 22.0933 86.8868 22.154 87.3161 22.154C87.8948 22.154 88.3988 22.0653 88.8281 21.888C89.2668 21.7013 89.6308 21.454 89.9201 21.146C90.2094 20.838 90.4241 20.488 90.5641 20.096C90.7134 19.6947 90.7881 19.284 90.7881 18.864C90.7881 18.2947 90.7041 17.8 90.5361 17.38C90.3681 16.9507 90.1394 16.596 89.8501 16.316C89.5608 16.0267 89.2201 15.812 88.8281 15.672C88.4361 15.532 88.0208 15.462 87.5821 15.462C87.2461 15.462 86.9054 15.5227 86.5601 15.644C86.2241 15.756 85.9488 15.9333 85.7341 16.176L85.7061 16.148L86.2381 13.292H90.2421Z" fill="#666666"/>
<rect width="39.191" height="39.191" rx="4" transform="matrix(0.866044 -0.499967 0.866044 0.499967 0 99.5942)" fill="#11118A"/>
<rect width="39.191" height="39.191" rx="4" transform="matrix(0.866044 -0.499967 0.866044 0.499967 0 91.5942)" fill="#232FCF"/>
<rect width="39.191" height="39.191" rx="4" transform="matrix(0.866044 -0.499967 0.866044 0.499967 0 83.5942)" fill="#445CF2"/>
<rect x="0.866044" width="38.191" height="38.191" rx="3.5" transform="matrix(0.866044 -0.499967 0.866044 0.499967 0.116012 76.0272)" fill="#748EFF" stroke="#5772FF"/>
<rect x="0.866044" width="38.191" height="38.191" rx="3.5" transform="matrix(0.866044 -0.499967 0.866044 0.499967 0.116012 68.0272)" fill="#B7C6FF" stroke="#5772FF"/>
<rect x="0.866044" width="38.191" height="38.191" rx="3.5" transform="matrix(0.866044 -0.499967 0.866044 0.499967 0.116012 60.0272)" fill="#E9EBFF" stroke="#5772FF"/>
<rect x="0.866044" width="38.191" height="38.191" rx="3.5" transform="matrix(0.866044 -0.499967 0.866044 0.499967 0.116012 52.0272)" fill="#F3C291" stroke="#B24800"/>
<rect x="0.866044" width="38.191" height="38.191" rx="3.5" transform="matrix(0.866044 -0.499967 0.866044 0.499967 0.116012 44.0272)" fill="#E17223" stroke="#B24800"/>
<rect width="39.191" height="39.191" rx="4" transform="matrix(0.866044 -0.499967 0.866044 0.499967 0 35.5942)" fill="#B24800"/>
<rect width="39.191" height="39.191" rx="4" transform="matrix(0.866044 -0.499967 0.866044 0.499967 0 27.5942)" fill="#6F3500"/>
<rect width="39.191" height="39.191" rx="4" transform="matrix(0.866044 -0.499967 0.866044 0.499967 0 19.5942)" fill="#421E00"/>
</svg>
