<svg width="1003" height="137" viewBox="0 0 1003 137" fill="none" xmlns="http://www.w3.org/2000/svg">
<path d="M928.502 81.982V78.916H927.55V81.982H924.498V82.934H927.55V86H928.502V82.934H931.554V81.982H928.502ZM938.801 77.292V76.242H933.901L932.977 81.394L933.999 81.45C934.232 81.17 934.498 80.946 934.797 80.778C935.105 80.6007 935.455 80.512 935.847 80.512C936.183 80.512 936.486 80.568 936.757 80.68C937.037 80.792 937.275 80.9507 937.471 81.156C937.667 81.352 937.816 81.59 937.919 81.87C938.031 82.1407 938.087 82.4393 938.087 82.766C938.087 83.158 938.031 83.5033 937.919 83.802C937.807 84.0913 937.653 84.334 937.457 84.53C937.27 84.726 937.046 84.8753 936.785 84.978C936.533 85.0713 936.267 85.118 935.987 85.118C935.688 85.118 935.413 85.076 935.161 84.992C934.918 84.8987 934.703 84.7727 934.517 84.614C934.339 84.446 934.195 84.2547 934.083 84.04C933.98 83.816 933.919 83.578 933.901 83.326H932.711C932.72 83.774 932.809 84.1753 932.977 84.53C933.145 84.8847 933.373 85.1833 933.663 85.426C933.952 85.6593 934.283 85.8413 934.657 85.972C935.039 86.0933 935.445 86.154 935.875 86.154C936.453 86.154 936.957 86.0653 937.387 85.888C937.825 85.7013 938.189 85.454 938.479 85.146C938.768 84.838 938.983 84.488 939.123 84.096C939.272 83.6947 939.347 83.284 939.347 82.864C939.347 82.2947 939.263 81.8 939.095 81.38C938.927 80.9507 938.698 80.596 938.409 80.316C938.119 80.0267 937.779 79.812 937.387 79.672C936.995 79.532 936.579 79.462 936.141 79.462C935.805 79.462 935.464 79.5227 935.119 79.644C934.783 79.756 934.507 79.9333 934.293 80.176L934.265 80.148L934.797 77.292H938.801Z" fill="#666666"/>
<path d="M492.958 81.114C492.958 80.8713 492.958 80.6053 492.958 80.316C492.968 80.0173 492.991 79.7233 493.028 79.434C493.075 79.1353 493.136 78.846 493.21 78.566C493.294 78.286 493.411 78.0433 493.56 77.838C493.719 77.6233 493.915 77.4507 494.148 77.32C494.382 77.1893 494.666 77.124 495.002 77.124C495.338 77.124 495.623 77.1893 495.856 77.32C496.09 77.4507 496.281 77.6233 496.43 77.838C496.589 78.0433 496.706 78.286 496.78 78.566C496.864 78.846 496.925 79.1353 496.962 79.434C497.009 79.7233 497.032 80.0173 497.032 80.316C497.042 80.6053 497.046 80.8713 497.046 81.114C497.046 81.4873 497.032 81.9073 497.004 82.374C496.986 82.8313 496.911 83.2653 496.78 83.676C496.659 84.0773 496.458 84.418 496.178 84.698C495.898 84.978 495.506 85.118 495.002 85.118C494.498 85.118 494.106 84.978 493.826 84.698C493.546 84.418 493.341 84.0773 493.21 83.676C493.089 83.2653 493.014 82.8313 492.986 82.374C492.968 81.9073 492.958 81.4873 492.958 81.114ZM491.698 81.128C491.698 81.492 491.708 81.87 491.726 82.262C491.745 82.654 491.792 83.0367 491.866 83.41C491.941 83.7833 492.048 84.138 492.188 84.474C492.328 84.8007 492.52 85.09 492.762 85.342C493.005 85.594 493.308 85.7947 493.672 85.944C494.046 86.084 494.489 86.154 495.002 86.154C495.525 86.154 495.968 86.084 496.332 85.944C496.696 85.7947 497 85.594 497.242 85.342C497.485 85.09 497.676 84.8007 497.816 84.474C497.956 84.138 498.064 83.7833 498.138 83.41C498.213 83.0367 498.26 82.654 498.278 82.262C498.297 81.87 498.306 81.492 498.306 81.128C498.306 80.764 498.297 80.386 498.278 79.994C498.26 79.602 498.213 79.2193 498.138 78.846C498.064 78.4727 497.956 78.118 497.816 77.782C497.676 77.446 497.485 77.152 497.242 76.9C497 76.648 496.692 76.4473 496.318 76.298C495.954 76.1487 495.516 76.074 495.002 76.074C494.489 76.074 494.046 76.1487 493.672 76.298C493.308 76.4473 493.005 76.648 492.762 76.9C492.52 77.152 492.328 77.446 492.188 77.782C492.048 78.118 491.941 78.4727 491.866 78.846C491.792 79.2193 491.745 79.602 491.726 79.994C491.708 80.386 491.698 80.764 491.698 81.128Z" fill="#666666"/>
<path d="M50.7 81.548V82.668H54.746V81.548H50.7ZM62.0214 77.292V76.242H57.1214L56.1974 81.394L57.2194 81.45C57.4527 81.17 57.7187 80.946 58.0174 80.778C58.3254 80.6007 58.6754 80.512 59.0674 80.512C59.4034 80.512 59.7067 80.568 59.9774 80.68C60.2574 80.792 60.4954 80.9507 60.6914 81.156C60.8874 81.352 61.0367 81.59 61.1394 81.87C61.2514 82.1407 61.3074 82.4393 61.3074 82.766C61.3074 83.158 61.2514 83.5033 61.1394 83.802C61.0274 84.0913 60.8734 84.334 60.6774 84.53C60.4907 84.726 60.2667 84.8753 60.0054 84.978C59.7534 85.0713 59.4874 85.118 59.2074 85.118C58.9087 85.118 58.6334 85.076 58.3814 84.992C58.1387 84.8987 57.9241 84.7727 57.7374 84.614C57.5601 84.446 57.4154 84.2547 57.3034 84.04C57.2007 83.816 57.1401 83.578 57.1214 83.326H55.9314C55.9407 83.774 56.0294 84.1753 56.1974 84.53C56.3654 84.8847 56.5941 85.1833 56.8834 85.426C57.1727 85.6593 57.5041 85.8413 57.8774 85.972C58.2601 86.0933 58.6661 86.154 59.0954 86.154C59.6741 86.154 60.1781 86.0653 60.6074 85.888C61.0461 85.7013 61.4101 85.454 61.6994 85.146C61.9887 84.838 62.2034 84.488 62.3434 84.096C62.4927 83.6947 62.5674 83.284 62.5674 82.864C62.5674 82.2947 62.4834 81.8 62.3154 81.38C62.1474 80.9507 61.9187 80.596 61.6294 80.316C61.3401 80.0267 60.9994 79.812 60.6074 79.672C60.2154 79.532 59.8001 79.462 59.3614 79.462C59.0254 79.462 58.6847 79.5227 58.3394 79.644C58.0034 79.756 57.7281 79.9333 57.5134 80.176L57.4854 80.148L58.0174 77.292H62.0214Z" fill="#666666"/>
<rect x="860" y="24" width="80" height="40" fill="#421E00"/>
<rect x="779" y="24" width="80" height="40" fill="#6F3500"/>
<rect x="698" y="24" width="80" height="40" fill="#B24800"/>
<rect x="617.5" y="24.5" width="79" height="39" fill="#E17223" stroke="#D14E00"/>
<rect x="536.5" y="24.5" width="79" height="39" fill="#F3C291" stroke="#D14E00"/>
<rect x="455.5" y="24.5" width="79" height="39" fill="#E9EBFF" stroke="#5772FF"/>
<rect x="374.5" y="24.5" width="79" height="39" fill="#B7C6FF" stroke="#5772FF"/>
<rect x="293.5" y="24.5" width="79" height="39" fill="#748EFF" stroke="#5772FF"/>
<rect x="212" y="24" width="80" height="40" fill="#445CF2"/>
<rect x="131" y="24" width="80" height="40" fill="#232FCF"/>
<rect x="50" y="24" width="80" height="40" fill="#11118A"/>
<rect x="860" y="97" width="80" height="40" fill="#0F3300"/>
<rect x="779" y="97" width="80" height="40" fill="#275600"/>
<rect x="698" y="97" width="80" height="40" fill="#487900"/>
<rect x="617.5" y="97.5" width="79" height="39" fill="#83AB4A" stroke="#608B2F"/>
<rect x="536.5" y="97.5" width="79" height="39" fill="#B0DE73" stroke="#608B2F"/>
<rect x="455.5" y="97.5" width="79" height="39" fill="#B8FFF2" stroke="#0094B6"/>
<rect x="374.5" y="97.5" width="79" height="39" fill="#5EEBDF" stroke="#0094B6"/>
<rect x="293.5" y="97.5" width="79" height="39" fill="#0BB6C6" stroke="#0094B6"/>
<rect x="212" y="97" width="80" height="40" fill="#0080A1"/>
<rect x="131" y="97" width="80" height="40" fill="#004D67"/>
<rect x="50" y="97" width="80" height="40" fill="#00293D"/>
<path d="M51.876 10.606H50.686C50.7607 11.4647 51.0733 12.104 51.624 12.524C52.1747 12.944 52.8653 13.154 53.696 13.154C54.9 13.154 55.7727 12.6967 56.314 11.782C56.8647 10.858 57.14 9.53733 57.14 7.82C57.14 6.87733 57.0467 6.10267 56.86 5.496C56.6827 4.88 56.44 4.39467 56.132 4.04C55.824 3.68533 55.4647 3.438 55.054 3.298C54.6433 3.14867 54.2047 3.074 53.738 3.074C53.262 3.074 52.8233 3.15333 52.422 3.312C52.0207 3.47067 51.6753 3.69467 51.386 3.984C51.0967 4.264 50.8727 4.60467 50.714 5.006C50.5553 5.398 50.476 5.832 50.476 6.308C50.476 6.79333 50.5413 7.24133 50.672 7.652C50.812 8.06267 51.0127 8.41267 51.274 8.702C51.5447 8.99133 51.876 9.22 52.268 9.388C52.66 9.54667 53.108 9.626 53.612 9.626C54.0973 9.626 54.5453 9.50467 54.956 9.262C55.3667 9.01 55.684 8.674 55.908 8.254L55.936 8.282C55.8987 9.57933 55.698 10.5453 55.334 11.18C54.97 11.8053 54.424 12.118 53.696 12.118C53.22 12.118 52.8093 11.9873 52.464 11.726C52.1187 11.4647 51.9227 11.0913 51.876 10.606ZM55.726 6.392C55.726 6.68133 55.6793 6.96133 55.586 7.232C55.4927 7.49333 55.3573 7.72667 55.18 7.932C55.0027 8.128 54.788 8.28667 54.536 8.408C54.284 8.52 54.004 8.576 53.696 8.576C53.4067 8.576 53.1407 8.52 52.898 8.408C52.6647 8.28667 52.4593 8.128 52.282 7.932C52.114 7.736 51.9787 7.512 51.876 7.26C51.7827 7.008 51.736 6.74667 51.736 6.476C51.736 6.168 51.7687 5.874 51.834 5.594C51.9087 5.314 52.0207 5.06667 52.17 4.852C52.3287 4.628 52.5293 4.45067 52.772 4.32C53.024 4.18933 53.3273 4.124 53.682 4.124C54.018 4.124 54.312 4.18467 54.564 4.306C54.816 4.42733 55.026 4.59533 55.194 4.81C55.3713 5.01533 55.502 5.25333 55.586 5.524C55.6793 5.79467 55.726 6.084 55.726 6.392ZM64.3593 4.292V3.242H59.4593L58.5353 8.394L59.5573 8.45C59.7906 8.17 60.0566 7.946 60.3553 7.778C60.6633 7.60067 61.0133 7.512 61.4053 7.512C61.7413 7.512 62.0446 7.568 62.3153 7.68C62.5953 7.792 62.8333 7.95067 63.0293 8.156C63.2253 8.352 63.3746 8.59 63.4773 8.87C63.5893 9.14067 63.6453 9.43933 63.6453 9.766C63.6453 10.158 63.5893 10.5033 63.4773 10.802C63.3653 11.0913 63.2113 11.334 63.0153 11.53C62.8286 11.726 62.6046 11.8753 62.3433 11.978C62.0913 12.0713 61.8253 12.118 61.5453 12.118C61.2466 12.118 60.9713 12.076 60.7193 11.992C60.4766 11.8987 60.262 11.7727 60.0753 11.614C59.898 11.446 59.7533 11.2547 59.6413 11.04C59.5386 10.816 59.478 10.578 59.4593 10.326H58.2693C58.2786 10.774 58.3673 11.1753 58.5353 11.53C58.7033 11.8847 58.932 12.1833 59.2213 12.426C59.5106 12.6593 59.842 12.8413 60.2153 12.972C60.598 13.0933 61.004 13.154 61.4333 13.154C62.012 13.154 62.516 13.0653 62.9453 12.888C63.384 12.7013 63.748 12.454 64.0373 12.146C64.3266 11.838 64.5413 11.488 64.6813 11.096C64.8306 10.6947 64.9053 10.284 64.9053 9.864C64.9053 9.29467 64.8213 8.8 64.6533 8.38C64.4853 7.95067 64.2566 7.596 63.9673 7.316C63.678 7.02667 63.3373 6.812 62.9453 6.672C62.5533 6.532 62.138 6.462 61.6993 6.462C61.3633 6.462 61.0226 6.52267 60.6773 6.644C60.3413 6.756 60.066 6.93333 59.8513 7.176L59.8233 7.148L60.3553 4.292H64.3593ZM67.4066 8.114C67.4066 7.87133 67.4066 7.60533 67.4066 7.316C67.4159 7.01733 67.4393 6.72333 67.4766 6.434C67.5233 6.13533 67.5839 5.846 67.6586 5.566C67.7426 5.286 67.8593 5.04333 68.0086 4.838C68.1673 4.62333 68.3633 4.45067 68.5966 4.32C68.8299 4.18933 69.1146 4.124 69.4506 4.124C69.7866 4.124 70.0713 4.18933 70.3046 4.32C70.5379 4.45067 70.7293 4.62333 70.8786 4.838C71.0373 5.04333 71.1539 5.286 71.2286 5.566C71.3126 5.846 71.3733 6.13533 71.4106 6.434C71.4573 6.72333 71.4806 7.01733 71.4806 7.316C71.4899 7.60533 71.4946 7.87133 71.4946 8.114C71.4946 8.48733 71.4806 8.90733 71.4526 9.374C71.4339 9.83133 71.3593 10.2653 71.2286 10.676C71.1073 11.0773 70.9066 11.418 70.6266 11.698C70.3466 11.978 69.9546 12.118 69.4506 12.118C68.9466 12.118 68.5546 11.978 68.2746 11.698C67.9946 11.418 67.7893 11.0773 67.6586 10.676C67.5373 10.2653 67.4626 9.83133 67.4346 9.374C67.4159 8.90733 67.4066 8.48733 67.4066 8.114ZM66.1466 8.128C66.1466 8.492 66.1559 8.87 66.1746 9.262C66.1933 9.654 66.2399 10.0367 66.3146 10.41C66.3893 10.7833 66.4966 11.138 66.6366 11.474C66.7766 11.8007 66.9679 12.09 67.2106 12.342C67.4533 12.594 67.7566 12.7947 68.1206 12.944C68.4939 13.084 68.9373 13.154 69.4506 13.154C69.9733 13.154 70.4166 13.084 70.7806 12.944C71.1446 12.7947 71.4479 12.594 71.6906 12.342C71.9333 12.09 72.1246 11.8007 72.2646 11.474C72.4046 11.138 72.5119 10.7833 72.5866 10.41C72.6613 10.0367 72.7079 9.654 72.7266 9.262C72.7453 8.87 72.7546 8.492 72.7546 8.128C72.7546 7.764 72.7453 7.386 72.7266 6.994C72.7079 6.602 72.6613 6.21933 72.5866 5.846C72.5119 5.47267 72.4046 5.118 72.2646 4.782C72.1246 4.446 71.9333 4.152 71.6906 3.9C71.4479 3.648 71.1399 3.44733 70.7666 3.298C70.4026 3.14867 69.9639 3.074 69.4506 3.074C68.9373 3.074 68.4939 3.14867 68.1206 3.298C67.7566 3.44733 67.4533 3.648 67.2106 3.9C66.9679 4.152 66.7766 4.446 66.6366 4.782C66.4966 5.118 66.3893 5.47267 66.3146 5.846C66.2399 6.21933 66.1933 6.602 66.1746 6.994C66.1559 7.386 66.1466 7.764 66.1466 8.128Z" fill="#666666"/>
<path d="M132.17 5.65C132.17 5.398 132.217 5.17867 132.31 4.992C132.403 4.80533 132.525 4.64667 132.674 4.516C132.833 4.38533 133.019 4.28733 133.234 4.222C133.449 4.15667 133.673 4.124 133.906 4.124C134.391 4.124 134.788 4.25467 135.096 4.516C135.413 4.768 135.572 5.146 135.572 5.65C135.572 6.154 135.418 6.546 135.11 6.826C134.802 7.106 134.41 7.246 133.934 7.246C133.691 7.246 133.463 7.21333 133.248 7.148C133.033 7.08267 132.847 6.98467 132.688 6.854C132.529 6.72333 132.403 6.56 132.31 6.364C132.217 6.15867 132.17 5.92067 132.17 5.65ZM130.91 5.608C130.91 6.056 131.036 6.47133 131.288 6.854C131.54 7.22733 131.876 7.498 132.296 7.666C131.736 7.862 131.307 8.17933 131.008 8.618C130.709 9.04733 130.56 9.556 130.56 10.144C130.56 10.648 130.644 11.0913 130.812 11.474C130.989 11.8473 131.227 12.16 131.526 12.412C131.834 12.664 132.193 12.8507 132.604 12.972C133.015 13.0933 133.458 13.154 133.934 13.154C134.391 13.154 134.821 13.0887 135.222 12.958C135.623 12.8273 135.969 12.636 136.258 12.384C136.557 12.1227 136.79 11.8053 136.958 11.432C137.135 11.0587 137.224 10.6293 137.224 10.144C137.224 9.528 137.079 9.01 136.79 8.59C136.501 8.16067 136.057 7.85267 135.46 7.666C135.88 7.47933 136.211 7.204 136.454 6.84C136.706 6.46667 136.832 6.056 136.832 5.608C136.832 5.29067 136.776 4.98267 136.664 4.684C136.552 4.376 136.375 4.10533 136.132 3.872C135.899 3.62933 135.591 3.438 135.208 3.298C134.825 3.14867 134.363 3.074 133.822 3.074C133.439 3.074 133.071 3.13 132.716 3.242C132.371 3.354 132.063 3.51733 131.792 3.732C131.521 3.94667 131.307 4.21267 131.148 4.53C130.989 4.838 130.91 5.19733 130.91 5.608ZM131.82 10.2C131.82 9.91067 131.871 9.64933 131.974 9.416C132.086 9.18267 132.235 8.982 132.422 8.814C132.618 8.646 132.842 8.52 133.094 8.436C133.355 8.34267 133.631 8.296 133.92 8.296C134.2 8.296 134.461 8.34733 134.704 8.45C134.956 8.54333 135.175 8.674 135.362 8.842C135.549 9.01 135.693 9.21067 135.796 9.444C135.908 9.668 135.964 9.91533 135.964 10.186C135.964 10.466 135.913 10.7227 135.81 10.956C135.717 11.1893 135.577 11.3947 135.39 11.572C135.213 11.74 134.998 11.8753 134.746 11.978C134.503 12.0713 134.233 12.118 133.934 12.118C133.318 12.118 132.809 11.95 132.408 11.614C132.016 11.2687 131.82 10.7973 131.82 10.2ZM139.627 8.114C139.627 7.87133 139.627 7.60533 139.627 7.316C139.637 7.01733 139.66 6.72333 139.697 6.434C139.744 6.13533 139.805 5.846 139.879 5.566C139.963 5.286 140.08 5.04333 140.229 4.838C140.388 4.62333 140.584 4.45067 140.817 4.32C141.051 4.18933 141.335 4.124 141.671 4.124C142.007 4.124 142.292 4.18933 142.525 4.32C142.759 4.45067 142.95 4.62333 143.099 4.838C143.258 5.04333 143.375 5.286 143.449 5.566C143.533 5.846 143.594 6.13533 143.631 6.434C143.678 6.72333 143.701 7.01733 143.701 7.316C143.711 7.60533 143.715 7.87133 143.715 8.114C143.715 8.48733 143.701 8.90733 143.673 9.374C143.655 9.83133 143.58 10.2653 143.449 10.676C143.328 11.0773 143.127 11.418 142.847 11.698C142.567 11.978 142.175 12.118 141.671 12.118C141.167 12.118 140.775 11.978 140.495 11.698C140.215 11.418 140.01 11.0773 139.879 10.676C139.758 10.2653 139.683 9.83133 139.655 9.374C139.637 8.90733 139.627 8.48733 139.627 8.114ZM138.367 8.128C138.367 8.492 138.377 8.87 138.395 9.262C138.414 9.654 138.461 10.0367 138.535 10.41C138.61 10.7833 138.717 11.138 138.857 11.474C138.997 11.8007 139.189 12.09 139.431 12.342C139.674 12.594 139.977 12.7947 140.341 12.944C140.715 13.084 141.158 13.154 141.671 13.154C142.194 13.154 142.637 13.084 143.001 12.944C143.365 12.7947 143.669 12.594 143.911 12.342C144.154 12.09 144.345 11.8007 144.485 11.474C144.625 11.138 144.733 10.7833 144.807 10.41C144.882 10.0367 144.929 9.654 144.947 9.262C144.966 8.87 144.975 8.492 144.975 8.128C144.975 7.764 144.966 7.386 144.947 6.994C144.929 6.602 144.882 6.21933 144.807 5.846C144.733 5.47267 144.625 5.118 144.485 4.782C144.345 4.446 144.154 4.152 143.911 3.9C143.669 3.648 143.361 3.44733 142.987 3.298C142.623 3.14867 142.185 3.074 141.671 3.074C141.158 3.074 140.715 3.14867 140.341 3.298C139.977 3.44733 139.674 3.648 139.431 3.9C139.189 4.152 138.997 4.446 138.857 4.782C138.717 5.118 138.61 5.47267 138.535 5.846C138.461 6.21933 138.414 6.602 138.395 6.994C138.377 7.386 138.367 7.764 138.367 8.128ZM147.407 8.114C147.407 7.87133 147.407 7.60533 147.407 7.316C147.416 7.01733 147.439 6.72333 147.477 6.434C147.523 6.13533 147.584 5.846 147.659 5.566C147.743 5.286 147.859 5.04333 148.009 4.838C148.167 4.62333 148.363 4.45067 148.597 4.32C148.83 4.18933 149.115 4.124 149.451 4.124C149.787 4.124 150.071 4.18933 150.305 4.32C150.538 4.45067 150.729 4.62333 150.879 4.838C151.037 5.04333 151.154 5.286 151.229 5.566C151.313 5.846 151.373 6.13533 151.411 6.434C151.457 6.72333 151.481 7.01733 151.481 7.316C151.49 7.60533 151.495 7.87133 151.495 8.114C151.495 8.48733 151.481 8.90733 151.453 9.374C151.434 9.83133 151.359 10.2653 151.229 10.676C151.107 11.0773 150.907 11.418 150.627 11.698C150.347 11.978 149.955 12.118 149.451 12.118C148.947 12.118 148.555 11.978 148.275 11.698C147.995 11.418 147.789 11.0773 147.659 10.676C147.537 10.2653 147.463 9.83133 147.435 9.374C147.416 8.90733 147.407 8.48733 147.407 8.114ZM146.147 8.128C146.147 8.492 146.156 8.87 146.175 9.262C146.193 9.654 146.24 10.0367 146.315 10.41C146.389 10.7833 146.497 11.138 146.637 11.474C146.777 11.8007 146.968 12.09 147.211 12.342C147.453 12.594 147.757 12.7947 148.121 12.944C148.494 13.084 148.937 13.154 149.451 13.154C149.973 13.154 150.417 13.084 150.781 12.944C151.145 12.7947 151.448 12.594 151.691 12.342C151.933 12.09 152.125 11.8007 152.265 11.474C152.405 11.138 152.512 10.7833 152.587 10.41C152.661 10.0367 152.708 9.654 152.727 9.262C152.745 8.87 152.755 8.492 152.755 8.128C152.755 7.764 152.745 7.386 152.727 6.994C152.708 6.602 152.661 6.21933 152.587 5.846C152.512 5.47267 152.405 5.118 152.265 4.782C152.125 4.446 151.933 4.152 151.691 3.9C151.448 3.648 151.14 3.44733 150.767 3.298C150.403 3.14867 149.964 3.074 149.451 3.074C148.937 3.074 148.494 3.14867 148.121 3.298C147.757 3.44733 147.453 3.648 147.211 3.9C146.968 4.152 146.777 4.446 146.637 4.782C146.497 5.118 146.389 5.47267 146.315 5.846C146.24 6.21933 146.193 6.602 146.175 6.994C146.156 7.386 146.147 7.764 146.147 8.128Z" fill="#666666"/>
<path d="M215.796 5.608H216.986C216.911 4.78667 216.631 4.16133 216.146 3.732C215.661 3.29333 215.007 3.074 214.186 3.074C213.477 3.074 212.889 3.22333 212.422 3.522C211.955 3.82067 211.582 4.21733 211.302 4.712C211.022 5.20667 210.821 5.776 210.7 6.42C210.588 7.05467 210.532 7.71267 210.532 8.394C210.532 8.91667 210.569 9.458 210.644 10.018C210.728 10.578 210.891 11.0913 211.134 11.558C211.377 12.0247 211.722 12.4073 212.17 12.706C212.618 13.0047 213.211 13.154 213.948 13.154C214.573 13.154 215.096 13.0513 215.516 12.846C215.945 12.6313 216.286 12.3653 216.538 12.048C216.799 11.7213 216.986 11.362 217.098 10.97C217.21 10.578 217.266 10.2 217.266 9.836C217.266 9.37867 217.196 8.954 217.056 8.562C216.916 8.17 216.715 7.82933 216.454 7.54C216.202 7.25067 215.885 7.02667 215.502 6.868C215.129 6.7 214.704 6.616 214.228 6.616C213.687 6.616 213.206 6.71867 212.786 6.924C212.375 7.12933 212.03 7.46067 211.75 7.918L211.722 7.89C211.731 7.50733 211.769 7.09667 211.834 6.658C211.899 6.21933 212.016 5.81333 212.184 5.44C212.361 5.05733 212.604 4.74467 212.912 4.502C213.22 4.25 213.626 4.124 214.13 4.124C214.606 4.124 214.989 4.25933 215.278 4.53C215.567 4.80067 215.74 5.16 215.796 5.608ZM214.004 7.666C214.34 7.666 214.634 7.72667 214.886 7.848C215.138 7.96933 215.348 8.13267 215.516 8.338C215.684 8.534 215.805 8.772 215.88 9.052C215.964 9.32267 216.006 9.612 216.006 9.92C216.006 10.2093 215.959 10.4893 215.866 10.76C215.782 11.0213 215.656 11.2547 215.488 11.46C215.32 11.6653 215.11 11.8287 214.858 11.95C214.615 12.062 214.331 12.118 214.004 12.118C213.677 12.118 213.383 12.062 213.122 11.95C212.87 11.8287 212.655 11.67 212.478 11.474C212.31 11.278 212.179 11.0447 212.086 10.774C211.993 10.5033 211.946 10.214 211.946 9.906C211.946 9.598 211.988 9.30867 212.072 9.038C212.165 8.758 212.301 8.52 212.478 8.324C212.655 8.11867 212.87 7.96 213.122 7.848C213.374 7.72667 213.668 7.666 214.004 7.666ZM219.627 8.114C219.627 7.87133 219.627 7.60533 219.627 7.316C219.637 7.01733 219.66 6.72333 219.697 6.434C219.744 6.13533 219.805 5.846 219.879 5.566C219.963 5.286 220.08 5.04333 220.229 4.838C220.388 4.62333 220.584 4.45067 220.817 4.32C221.051 4.18933 221.335 4.124 221.671 4.124C222.007 4.124 222.292 4.18933 222.525 4.32C222.759 4.45067 222.95 4.62333 223.099 4.838C223.258 5.04333 223.375 5.286 223.449 5.566C223.533 5.846 223.594 6.13533 223.631 6.434C223.678 6.72333 223.701 7.01733 223.701 7.316C223.711 7.60533 223.715 7.87133 223.715 8.114C223.715 8.48733 223.701 8.90733 223.673 9.374C223.655 9.83133 223.58 10.2653 223.449 10.676C223.328 11.0773 223.127 11.418 222.847 11.698C222.567 11.978 222.175 12.118 221.671 12.118C221.167 12.118 220.775 11.978 220.495 11.698C220.215 11.418 220.01 11.0773 219.879 10.676C219.758 10.2653 219.683 9.83133 219.655 9.374C219.637 8.90733 219.627 8.48733 219.627 8.114ZM218.367 8.128C218.367 8.492 218.377 8.87 218.395 9.262C218.414 9.654 218.461 10.0367 218.535 10.41C218.61 10.7833 218.717 11.138 218.857 11.474C218.997 11.8007 219.189 12.09 219.431 12.342C219.674 12.594 219.977 12.7947 220.341 12.944C220.715 13.084 221.158 13.154 221.671 13.154C222.194 13.154 222.637 13.084 223.001 12.944C223.365 12.7947 223.669 12.594 223.911 12.342C224.154 12.09 224.345 11.8007 224.485 11.474C224.625 11.138 224.733 10.7833 224.807 10.41C224.882 10.0367 224.929 9.654 224.947 9.262C224.966 8.87 224.975 8.492 224.975 8.128C224.975 7.764 224.966 7.386 224.947 6.994C224.929 6.602 224.882 6.21933 224.807 5.846C224.733 5.47267 224.625 5.118 224.485 4.782C224.345 4.446 224.154 4.152 223.911 3.9C223.669 3.648 223.361 3.44733 222.987 3.298C222.623 3.14867 222.185 3.074 221.671 3.074C221.158 3.074 220.715 3.14867 220.341 3.298C219.977 3.44733 219.674 3.648 219.431 3.9C219.189 4.152 218.997 4.446 218.857 4.782C218.717 5.118 218.61 5.47267 218.535 5.846C218.461 6.21933 218.414 6.602 218.395 6.994C218.377 7.386 218.367 7.764 218.367 8.128ZM227.407 8.114C227.407 7.87133 227.407 7.60533 227.407 7.316C227.416 7.01733 227.439 6.72333 227.477 6.434C227.523 6.13533 227.584 5.846 227.659 5.566C227.743 5.286 227.859 5.04333 228.009 4.838C228.167 4.62333 228.363 4.45067 228.597 4.32C228.83 4.18933 229.115 4.124 229.451 4.124C229.787 4.124 230.071 4.18933 230.305 4.32C230.538 4.45067 230.729 4.62333 230.879 4.838C231.037 5.04333 231.154 5.286 231.229 5.566C231.313 5.846 231.373 6.13533 231.411 6.434C231.457 6.72333 231.481 7.01733 231.481 7.316C231.49 7.60533 231.495 7.87133 231.495 8.114C231.495 8.48733 231.481 8.90733 231.453 9.374C231.434 9.83133 231.359 10.2653 231.229 10.676C231.107 11.0773 230.907 11.418 230.627 11.698C230.347 11.978 229.955 12.118 229.451 12.118C228.947 12.118 228.555 11.978 228.275 11.698C227.995 11.418 227.789 11.0773 227.659 10.676C227.537 10.2653 227.463 9.83133 227.435 9.374C227.416 8.90733 227.407 8.48733 227.407 8.114ZM226.147 8.128C226.147 8.492 226.156 8.87 226.175 9.262C226.193 9.654 226.24 10.0367 226.315 10.41C226.389 10.7833 226.497 11.138 226.637 11.474C226.777 11.8007 226.968 12.09 227.211 12.342C227.453 12.594 227.757 12.7947 228.121 12.944C228.494 13.084 228.937 13.154 229.451 13.154C229.973 13.154 230.417 13.084 230.781 12.944C231.145 12.7947 231.448 12.594 231.691 12.342C231.933 12.09 232.125 11.8007 232.265 11.474C232.405 11.138 232.512 10.7833 232.587 10.41C232.661 10.0367 232.708 9.654 232.727 9.262C232.745 8.87 232.755 8.492 232.755 8.128C232.755 7.764 232.745 7.386 232.727 6.994C232.708 6.602 232.661 6.21933 232.587 5.846C232.512 5.47267 232.405 5.118 232.265 4.782C232.125 4.446 231.933 4.152 231.691 3.9C231.448 3.648 231.14 3.44733 230.767 3.298C230.403 3.14867 229.964 3.074 229.451 3.074C228.937 3.074 228.494 3.14867 228.121 3.298C227.757 3.44733 227.453 3.648 227.211 3.9C226.968 4.152 226.777 4.446 226.637 4.782C226.497 5.118 226.389 5.47267 226.315 5.846C226.24 6.21933 226.193 6.602 226.175 6.994C226.156 7.386 226.147 7.764 226.147 8.128Z" fill="#666666"/>
<path d="M296.746 9.626H293.414L296.718 4.768H296.746V9.626ZM297.866 9.626V3.074H296.914L292.392 9.528V10.676H296.746V13H297.866V10.676H299.21V9.626H297.866ZM301.627 8.114C301.627 7.87133 301.627 7.60533 301.627 7.316C301.637 7.01733 301.66 6.72333 301.697 6.434C301.744 6.13533 301.805 5.846 301.879 5.566C301.963 5.286 302.08 5.04333 302.229 4.838C302.388 4.62333 302.584 4.45067 302.817 4.32C303.051 4.18933 303.335 4.124 303.671 4.124C304.007 4.124 304.292 4.18933 304.525 4.32C304.759 4.45067 304.95 4.62333 305.099 4.838C305.258 5.04333 305.375 5.286 305.449 5.566C305.533 5.846 305.594 6.13533 305.631 6.434C305.678 6.72333 305.701 7.01733 305.701 7.316C305.711 7.60533 305.715 7.87133 305.715 8.114C305.715 8.48733 305.701 8.90733 305.673 9.374C305.655 9.83133 305.58 10.2653 305.449 10.676C305.328 11.0773 305.127 11.418 304.847 11.698C304.567 11.978 304.175 12.118 303.671 12.118C303.167 12.118 302.775 11.978 302.495 11.698C302.215 11.418 302.01 11.0773 301.879 10.676C301.758 10.2653 301.683 9.83133 301.655 9.374C301.637 8.90733 301.627 8.48733 301.627 8.114ZM300.367 8.128C300.367 8.492 300.377 8.87 300.395 9.262C300.414 9.654 300.461 10.0367 300.535 10.41C300.61 10.7833 300.717 11.138 300.857 11.474C300.997 11.8007 301.189 12.09 301.431 12.342C301.674 12.594 301.977 12.7947 302.341 12.944C302.715 13.084 303.158 13.154 303.671 13.154C304.194 13.154 304.637 13.084 305.001 12.944C305.365 12.7947 305.669 12.594 305.911 12.342C306.154 12.09 306.345 11.8007 306.485 11.474C306.625 11.138 306.733 10.7833 306.807 10.41C306.882 10.0367 306.929 9.654 306.947 9.262C306.966 8.87 306.975 8.492 306.975 8.128C306.975 7.764 306.966 7.386 306.947 6.994C306.929 6.602 306.882 6.21933 306.807 5.846C306.733 5.47267 306.625 5.118 306.485 4.782C306.345 4.446 306.154 4.152 305.911 3.9C305.669 3.648 305.361 3.44733 304.987 3.298C304.623 3.14867 304.185 3.074 303.671 3.074C303.158 3.074 302.715 3.14867 302.341 3.298C301.977 3.44733 301.674 3.648 301.431 3.9C301.189 4.152 300.997 4.446 300.857 4.782C300.717 5.118 300.61 5.47267 300.535 5.846C300.461 6.21933 300.414 6.602 300.395 6.994C300.377 7.386 300.367 7.764 300.367 8.128ZM309.407 8.114C309.407 7.87133 309.407 7.60533 309.407 7.316C309.416 7.01733 309.439 6.72333 309.477 6.434C309.523 6.13533 309.584 5.846 309.659 5.566C309.743 5.286 309.859 5.04333 310.009 4.838C310.167 4.62333 310.363 4.45067 310.597 4.32C310.83 4.18933 311.115 4.124 311.451 4.124C311.787 4.124 312.071 4.18933 312.305 4.32C312.538 4.45067 312.729 4.62333 312.879 4.838C313.037 5.04333 313.154 5.286 313.229 5.566C313.313 5.846 313.373 6.13533 313.411 6.434C313.457 6.72333 313.481 7.01733 313.481 7.316C313.49 7.60533 313.495 7.87133 313.495 8.114C313.495 8.48733 313.481 8.90733 313.453 9.374C313.434 9.83133 313.359 10.2653 313.229 10.676C313.107 11.0773 312.907 11.418 312.627 11.698C312.347 11.978 311.955 12.118 311.451 12.118C310.947 12.118 310.555 11.978 310.275 11.698C309.995 11.418 309.789 11.0773 309.659 10.676C309.537 10.2653 309.463 9.83133 309.435 9.374C309.416 8.90733 309.407 8.48733 309.407 8.114ZM308.147 8.128C308.147 8.492 308.156 8.87 308.175 9.262C308.193 9.654 308.24 10.0367 308.315 10.41C308.389 10.7833 308.497 11.138 308.637 11.474C308.777 11.8007 308.968 12.09 309.211 12.342C309.453 12.594 309.757 12.7947 310.121 12.944C310.494 13.084 310.937 13.154 311.451 13.154C311.973 13.154 312.417 13.084 312.781 12.944C313.145 12.7947 313.448 12.594 313.691 12.342C313.933 12.09 314.125 11.8007 314.265 11.474C314.405 11.138 314.512 10.7833 314.587 10.41C314.661 10.0367 314.708 9.654 314.727 9.262C314.745 8.87 314.755 8.492 314.755 8.128C314.755 7.764 314.745 7.386 314.727 6.994C314.708 6.602 314.661 6.21933 314.587 5.846C314.512 5.47267 314.405 5.118 314.265 4.782C314.125 4.446 313.933 4.152 313.691 3.9C313.448 3.648 313.14 3.44733 312.767 3.298C312.403 3.14867 311.964 3.074 311.451 3.074C310.937 3.074 310.494 3.14867 310.121 3.298C309.757 3.44733 309.453 3.648 309.211 3.9C308.968 4.152 308.777 4.446 308.637 4.782C308.497 5.118 308.389 5.47267 308.315 5.846C308.24 6.21933 308.193 6.602 308.175 6.994C308.156 7.386 308.147 7.764 308.147 8.128Z" fill="#666666"/>
<path d="M374.616 6.588H375.806C375.797 6.28933 375.825 5.99533 375.89 5.706C375.965 5.40733 376.081 5.14133 376.24 4.908C376.399 4.67467 376.599 4.488 376.842 4.348C377.094 4.19867 377.393 4.124 377.738 4.124C377.999 4.124 378.247 4.166 378.48 4.25C378.713 4.334 378.914 4.45533 379.082 4.614C379.259 4.77267 379.399 4.964 379.502 5.188C379.605 5.40267 379.656 5.64533 379.656 5.916C379.656 6.26133 379.6 6.56467 379.488 6.826C379.385 7.08733 379.227 7.33 379.012 7.554C378.807 7.778 378.545 8.002 378.228 8.226C377.911 8.44067 377.542 8.67867 377.122 8.94C376.777 9.14533 376.445 9.36467 376.128 9.598C375.811 9.83133 375.526 10.102 375.274 10.41C375.022 10.718 374.812 11.082 374.644 11.502C374.485 11.9127 374.383 12.412 374.336 13H380.818V11.95H375.722C375.778 11.642 375.895 11.3713 376.072 11.138C376.259 10.8953 376.478 10.6713 376.73 10.466C376.991 10.2607 377.276 10.0693 377.584 9.892C377.892 9.70533 378.2 9.51867 378.508 9.332C378.816 9.136 379.115 8.93067 379.404 8.716C379.693 8.50133 379.95 8.26333 380.174 8.002C380.398 7.73133 380.575 7.428 380.706 7.092C380.846 6.756 380.916 6.36867 380.916 5.93C380.916 5.46333 380.832 5.05267 380.664 4.698C380.505 4.34333 380.286 4.04933 380.006 3.816C379.726 3.57333 379.395 3.39133 379.012 3.27C378.639 3.13933 378.237 3.074 377.808 3.074C377.285 3.074 376.819 3.16267 376.408 3.34C375.997 3.51733 375.652 3.76467 375.372 4.082C375.101 4.39 374.901 4.75867 374.77 5.188C374.639 5.61733 374.588 6.084 374.616 6.588ZM383.627 8.114C383.627 7.87133 383.627 7.60533 383.627 7.316C383.637 7.01733 383.66 6.72333 383.697 6.434C383.744 6.13533 383.805 5.846 383.879 5.566C383.963 5.286 384.08 5.04333 384.229 4.838C384.388 4.62333 384.584 4.45067 384.817 4.32C385.051 4.18933 385.335 4.124 385.671 4.124C386.007 4.124 386.292 4.18933 386.525 4.32C386.759 4.45067 386.95 4.62333 387.099 4.838C387.258 5.04333 387.375 5.286 387.449 5.566C387.533 5.846 387.594 6.13533 387.631 6.434C387.678 6.72333 387.701 7.01733 387.701 7.316C387.711 7.60533 387.715 7.87133 387.715 8.114C387.715 8.48733 387.701 8.90733 387.673 9.374C387.655 9.83133 387.58 10.2653 387.449 10.676C387.328 11.0773 387.127 11.418 386.847 11.698C386.567 11.978 386.175 12.118 385.671 12.118C385.167 12.118 384.775 11.978 384.495 11.698C384.215 11.418 384.01 11.0773 383.879 10.676C383.758 10.2653 383.683 9.83133 383.655 9.374C383.637 8.90733 383.627 8.48733 383.627 8.114ZM382.367 8.128C382.367 8.492 382.377 8.87 382.395 9.262C382.414 9.654 382.461 10.0367 382.535 10.41C382.61 10.7833 382.717 11.138 382.857 11.474C382.997 11.8007 383.189 12.09 383.431 12.342C383.674 12.594 383.977 12.7947 384.341 12.944C384.715 13.084 385.158 13.154 385.671 13.154C386.194 13.154 386.637 13.084 387.001 12.944C387.365 12.7947 387.669 12.594 387.911 12.342C388.154 12.09 388.345 11.8007 388.485 11.474C388.625 11.138 388.733 10.7833 388.807 10.41C388.882 10.0367 388.929 9.654 388.947 9.262C388.966 8.87 388.975 8.492 388.975 8.128C388.975 7.764 388.966 7.386 388.947 6.994C388.929 6.602 388.882 6.21933 388.807 5.846C388.733 5.47267 388.625 5.118 388.485 4.782C388.345 4.446 388.154 4.152 387.911 3.9C387.669 3.648 387.361 3.44733 386.987 3.298C386.623 3.14867 386.185 3.074 385.671 3.074C385.158 3.074 384.715 3.14867 384.341 3.298C383.977 3.44733 383.674 3.648 383.431 3.9C383.189 4.152 382.997 4.446 382.857 4.782C382.717 5.118 382.61 5.47267 382.535 5.846C382.461 6.21933 382.414 6.602 382.395 6.994C382.377 7.386 382.367 7.764 382.367 8.128ZM391.407 8.114C391.407 7.87133 391.407 7.60533 391.407 7.316C391.416 7.01733 391.439 6.72333 391.477 6.434C391.523 6.13533 391.584 5.846 391.659 5.566C391.743 5.286 391.859 5.04333 392.009 4.838C392.167 4.62333 392.363 4.45067 392.597 4.32C392.83 4.18933 393.115 4.124 393.451 4.124C393.787 4.124 394.071 4.18933 394.305 4.32C394.538 4.45067 394.729 4.62333 394.879 4.838C395.037 5.04333 395.154 5.286 395.229 5.566C395.313 5.846 395.373 6.13533 395.411 6.434C395.457 6.72333 395.481 7.01733 395.481 7.316C395.49 7.60533 395.495 7.87133 395.495 8.114C395.495 8.48733 395.481 8.90733 395.453 9.374C395.434 9.83133 395.359 10.2653 395.229 10.676C395.107 11.0773 394.907 11.418 394.627 11.698C394.347 11.978 393.955 12.118 393.451 12.118C392.947 12.118 392.555 11.978 392.275 11.698C391.995 11.418 391.789 11.0773 391.659 10.676C391.537 10.2653 391.463 9.83133 391.435 9.374C391.416 8.90733 391.407 8.48733 391.407 8.114ZM390.147 8.128C390.147 8.492 390.156 8.87 390.175 9.262C390.193 9.654 390.24 10.0367 390.315 10.41C390.389 10.7833 390.497 11.138 390.637 11.474C390.777 11.8007 390.968 12.09 391.211 12.342C391.453 12.594 391.757 12.7947 392.121 12.944C392.494 13.084 392.937 13.154 393.451 13.154C393.973 13.154 394.417 13.084 394.781 12.944C395.145 12.7947 395.448 12.594 395.691 12.342C395.933 12.09 396.125 11.8007 396.265 11.474C396.405 11.138 396.512 10.7833 396.587 10.41C396.661 10.0367 396.708 9.654 396.727 9.262C396.745 8.87 396.755 8.492 396.755 8.128C396.755 7.764 396.745 7.386 396.727 6.994C396.708 6.602 396.661 6.21933 396.587 5.846C396.512 5.47267 396.405 5.118 396.265 4.782C396.125 4.446 395.933 4.152 395.691 3.9C395.448 3.648 395.14 3.44733 394.767 3.298C394.403 3.14867 393.964 3.074 393.451 3.074C392.937 3.074 392.494 3.14867 392.121 3.298C391.757 3.44733 391.453 3.648 391.211 3.9C390.968 4.152 390.777 4.446 390.637 4.782C390.497 5.118 390.389 5.47267 390.315 5.846C390.24 6.21933 390.193 6.602 390.175 6.994C390.156 7.386 390.147 7.764 390.147 8.128Z" fill="#666666"/>
<path d="M461.58 4.292V3.242H456.68L455.756 8.394L456.778 8.45C457.011 8.17 457.277 7.946 457.576 7.778C457.884 7.60067 458.234 7.512 458.626 7.512C458.962 7.512 459.265 7.568 459.536 7.68C459.816 7.792 460.054 7.95067 460.25 8.156C460.446 8.352 460.595 8.59 460.698 8.87C460.81 9.14067 460.866 9.43933 460.866 9.766C460.866 10.158 460.81 10.5033 460.698 10.802C460.586 11.0913 460.432 11.334 460.236 11.53C460.049 11.726 459.825 11.8753 459.564 11.978C459.312 12.0713 459.046 12.118 458.766 12.118C458.467 12.118 458.192 12.076 457.94 11.992C457.697 11.8987 457.483 11.7727 457.296 11.614C457.119 11.446 456.974 11.2547 456.862 11.04C456.759 10.816 456.699 10.578 456.68 10.326H455.49C455.499 10.774 455.588 11.1753 455.756 11.53C455.924 11.8847 456.153 12.1833 456.442 12.426C456.731 12.6593 457.063 12.8413 457.436 12.972C457.819 13.0933 458.225 13.154 458.654 13.154C459.233 13.154 459.737 13.0653 460.166 12.888C460.605 12.7013 460.969 12.454 461.258 12.146C461.547 11.838 461.762 11.488 461.902 11.096C462.051 10.6947 462.126 10.284 462.126 9.864C462.126 9.29467 462.042 8.8 461.874 8.38C461.706 7.95067 461.477 7.596 461.188 7.316C460.899 7.02667 460.558 6.812 460.166 6.672C459.774 6.532 459.359 6.462 458.92 6.462C458.584 6.462 458.243 6.52267 457.898 6.644C457.562 6.756 457.287 6.93333 457.072 7.176L457.044 7.148L457.576 4.292H461.58ZM464.627 8.114C464.627 7.87133 464.627 7.60533 464.627 7.316C464.637 7.01733 464.66 6.72333 464.697 6.434C464.744 6.13533 464.805 5.846 464.879 5.566C464.963 5.286 465.08 5.04333 465.229 4.838C465.388 4.62333 465.584 4.45067 465.817 4.32C466.051 4.18933 466.335 4.124 466.671 4.124C467.007 4.124 467.292 4.18933 467.525 4.32C467.759 4.45067 467.95 4.62333 468.099 4.838C468.258 5.04333 468.375 5.286 468.449 5.566C468.533 5.846 468.594 6.13533 468.631 6.434C468.678 6.72333 468.701 7.01733 468.701 7.316C468.711 7.60533 468.715 7.87133 468.715 8.114C468.715 8.48733 468.701 8.90733 468.673 9.374C468.655 9.83133 468.58 10.2653 468.449 10.676C468.328 11.0773 468.127 11.418 467.847 11.698C467.567 11.978 467.175 12.118 466.671 12.118C466.167 12.118 465.775 11.978 465.495 11.698C465.215 11.418 465.01 11.0773 464.879 10.676C464.758 10.2653 464.683 9.83133 464.655 9.374C464.637 8.90733 464.627 8.48733 464.627 8.114ZM463.367 8.128C463.367 8.492 463.377 8.87 463.395 9.262C463.414 9.654 463.461 10.0367 463.535 10.41C463.61 10.7833 463.717 11.138 463.857 11.474C463.997 11.8007 464.189 12.09 464.431 12.342C464.674 12.594 464.977 12.7947 465.341 12.944C465.715 13.084 466.158 13.154 466.671 13.154C467.194 13.154 467.637 13.084 468.001 12.944C468.365 12.7947 468.669 12.594 468.911 12.342C469.154 12.09 469.345 11.8007 469.485 11.474C469.625 11.138 469.733 10.7833 469.807 10.41C469.882 10.0367 469.929 9.654 469.947 9.262C469.966 8.87 469.975 8.492 469.975 8.128C469.975 7.764 469.966 7.386 469.947 6.994C469.929 6.602 469.882 6.21933 469.807 5.846C469.733 5.47267 469.625 5.118 469.485 4.782C469.345 4.446 469.154 4.152 468.911 3.9C468.669 3.648 468.361 3.44733 467.987 3.298C467.623 3.14867 467.185 3.074 466.671 3.074C466.158 3.074 465.715 3.14867 465.341 3.298C464.977 3.44733 464.674 3.648 464.431 3.9C464.189 4.152 463.997 4.446 463.857 4.782C463.717 5.118 463.61 5.47267 463.535 5.846C463.461 6.21933 463.414 6.602 463.395 6.994C463.377 7.386 463.367 7.764 463.367 8.128Z" fill="#666666"/>
<path d="M593.278 6.588H594.468C594.459 6.28933 594.487 5.99533 594.552 5.706C594.627 5.40733 594.743 5.14133 594.902 4.908C595.061 4.67467 595.261 4.488 595.504 4.348C595.756 4.19867 596.055 4.124 596.4 4.124C596.661 4.124 596.909 4.166 597.142 4.25C597.375 4.334 597.576 4.45533 597.744 4.614C597.921 4.77267 598.061 4.964 598.164 5.188C598.267 5.40267 598.318 5.64533 598.318 5.916C598.318 6.26133 598.262 6.56467 598.15 6.826C598.047 7.08733 597.889 7.33 597.674 7.554C597.469 7.778 597.207 8.002 596.89 8.226C596.573 8.44067 596.204 8.67867 595.784 8.94C595.439 9.14533 595.107 9.36467 594.79 9.598C594.473 9.83133 594.188 10.102 593.936 10.41C593.684 10.718 593.474 11.082 593.306 11.502C593.147 11.9127 593.045 12.412 592.998 13H599.48V11.95H594.384C594.44 11.642 594.557 11.3713 594.734 11.138C594.921 10.8953 595.14 10.6713 595.392 10.466C595.653 10.2607 595.938 10.0693 596.246 9.892C596.554 9.70533 596.862 9.51867 597.17 9.332C597.478 9.136 597.777 8.93067 598.066 8.716C598.355 8.50133 598.612 8.26333 598.836 8.002C599.06 7.73133 599.237 7.428 599.368 7.092C599.508 6.756 599.578 6.36867 599.578 5.93C599.578 5.46333 599.494 5.05267 599.326 4.698C599.167 4.34333 598.948 4.04933 598.668 3.816C598.388 3.57333 598.057 3.39133 597.674 3.27C597.301 3.13933 596.899 3.074 596.47 3.074C595.947 3.074 595.481 3.16267 595.07 3.34C594.659 3.51733 594.314 3.76467 594.034 4.082C593.763 4.39 593.563 4.75867 593.432 5.188C593.301 5.61733 593.25 6.084 593.278 6.588ZM602.289 8.114C602.289 7.87133 602.289 7.60533 602.289 7.316C602.299 7.01733 602.322 6.72333 602.359 6.434C602.406 6.13533 602.467 5.846 602.541 5.566C602.625 5.286 602.742 5.04333 602.891 4.838C603.05 4.62333 603.246 4.45067 603.479 4.32C603.713 4.18933 603.997 4.124 604.333 4.124C604.669 4.124 604.954 4.18933 605.187 4.32C605.421 4.45067 605.612 4.62333 605.761 4.838C605.92 5.04333 606.037 5.286 606.111 5.566C606.195 5.846 606.256 6.13533 606.293 6.434C606.34 6.72333 606.363 7.01733 606.363 7.316C606.373 7.60533 606.377 7.87133 606.377 8.114C606.377 8.48733 606.363 8.90733 606.335 9.374C606.317 9.83133 606.242 10.2653 606.111 10.676C605.99 11.0773 605.789 11.418 605.509 11.698C605.229 11.978 604.837 12.118 604.333 12.118C603.829 12.118 603.437 11.978 603.157 11.698C602.877 11.418 602.672 11.0773 602.541 10.676C602.42 10.2653 602.345 9.83133 602.317 9.374C602.299 8.90733 602.289 8.48733 602.289 8.114ZM601.029 8.128C601.029 8.492 601.039 8.87 601.057 9.262C601.076 9.654 601.123 10.0367 601.197 10.41C601.272 10.7833 601.379 11.138 601.519 11.474C601.659 11.8007 601.851 12.09 602.093 12.342C602.336 12.594 602.639 12.7947 603.003 12.944C603.377 13.084 603.82 13.154 604.333 13.154C604.856 13.154 605.299 13.084 605.663 12.944C606.027 12.7947 606.331 12.594 606.573 12.342C606.816 12.09 607.007 11.8007 607.147 11.474C607.287 11.138 607.395 10.7833 607.469 10.41C607.544 10.0367 607.591 9.654 607.609 9.262C607.628 8.87 607.637 8.492 607.637 8.128C607.637 7.764 607.628 7.386 607.609 6.994C607.591 6.602 607.544 6.21933 607.469 5.846C607.395 5.47267 607.287 5.118 607.147 4.782C607.007 4.446 606.816 4.152 606.573 3.9C606.331 3.648 606.023 3.44733 605.649 3.298C605.285 3.14867 604.847 3.074 604.333 3.074C603.82 3.074 603.377 3.14867 603.003 3.298C602.639 3.44733 602.336 3.648 602.093 3.9C601.851 4.152 601.659 4.446 601.519 4.782C601.379 5.118 601.272 5.47267 601.197 5.846C601.123 6.21933 601.076 6.602 601.057 6.994C601.039 7.386 601.029 7.764 601.029 8.128ZM610.069 8.114C610.069 7.87133 610.069 7.60533 610.069 7.316C610.078 7.01733 610.101 6.72333 610.139 6.434C610.185 6.13533 610.246 5.846 610.321 5.566C610.405 5.286 610.521 5.04333 610.671 4.838C610.829 4.62333 611.025 4.45067 611.259 4.32C611.492 4.18933 611.777 4.124 612.113 4.124C612.449 4.124 612.733 4.18933 612.967 4.32C613.2 4.45067 613.391 4.62333 613.541 4.838C613.699 5.04333 613.816 5.286 613.891 5.566C613.975 5.846 614.035 6.13533 614.073 6.434C614.119 6.72333 614.143 7.01733 614.143 7.316C614.152 7.60533 614.157 7.87133 614.157 8.114C614.157 8.48733 614.143 8.90733 614.115 9.374C614.096 9.83133 614.021 10.2653 613.891 10.676C613.769 11.0773 613.569 11.418 613.289 11.698C613.009 11.978 612.617 12.118 612.113 12.118C611.609 12.118 611.217 11.978 610.937 11.698C610.657 11.418 610.451 11.0773 610.321 10.676C610.199 10.2653 610.125 9.83133 610.097 9.374C610.078 8.90733 610.069 8.48733 610.069 8.114ZM608.809 8.128C608.809 8.492 608.818 8.87 608.837 9.262C608.855 9.654 608.902 10.0367 608.977 10.41C609.051 10.7833 609.159 11.138 609.299 11.474C609.439 11.8007 609.63 12.09 609.873 12.342C610.115 12.594 610.419 12.7947 610.783 12.944C611.156 13.084 611.599 13.154 612.113 13.154C612.635 13.154 613.079 13.084 613.443 12.944C613.807 12.7947 614.11 12.594 614.353 12.342C614.595 12.09 614.787 11.8007 614.927 11.474C615.067 11.138 615.174 10.7833 615.249 10.41C615.323 10.0367 615.37 9.654 615.389 9.262C615.407 8.87 615.417 8.492 615.417 8.128C615.417 7.764 615.407 7.386 615.389 6.994C615.37 6.602 615.323 6.21933 615.249 5.846C615.174 5.47267 615.067 5.118 614.927 4.782C614.787 4.446 614.595 4.152 614.353 3.9C614.11 3.648 613.802 3.44733 613.429 3.298C613.065 3.14867 612.626 3.074 612.113 3.074C611.599 3.074 611.156 3.14867 610.783 3.298C610.419 3.44733 610.115 3.648 609.873 3.9C609.63 4.152 609.439 4.446 609.299 4.782C609.159 5.118 609.051 5.47267 608.977 5.846C608.902 6.21933 608.855 6.602 608.837 6.994C608.818 7.386 608.809 7.764 608.809 8.128Z" fill="#666666"/>
<path d="M677.408 9.626H674.076L677.38 4.768H677.408V9.626ZM678.528 9.626V3.074H677.576L673.054 9.528V10.676H677.408V13H678.528V10.676H679.872V9.626H678.528ZM682.289 8.114C682.289 7.87133 682.289 7.60533 682.289 7.316C682.299 7.01733 682.322 6.72333 682.359 6.434C682.406 6.13533 682.467 5.846 682.541 5.566C682.625 5.286 682.742 5.04333 682.891 4.838C683.05 4.62333 683.246 4.45067 683.479 4.32C683.713 4.18933 683.997 4.124 684.333 4.124C684.669 4.124 684.954 4.18933 685.187 4.32C685.421 4.45067 685.612 4.62333 685.761 4.838C685.92 5.04333 686.037 5.286 686.111 5.566C686.195 5.846 686.256 6.13533 686.293 6.434C686.34 6.72333 686.363 7.01733 686.363 7.316C686.373 7.60533 686.377 7.87133 686.377 8.114C686.377 8.48733 686.363 8.90733 686.335 9.374C686.317 9.83133 686.242 10.2653 686.111 10.676C685.99 11.0773 685.789 11.418 685.509 11.698C685.229 11.978 684.837 12.118 684.333 12.118C683.829 12.118 683.437 11.978 683.157 11.698C682.877 11.418 682.672 11.0773 682.541 10.676C682.42 10.2653 682.345 9.83133 682.317 9.374C682.299 8.90733 682.289 8.48733 682.289 8.114ZM681.029 8.128C681.029 8.492 681.039 8.87 681.057 9.262C681.076 9.654 681.123 10.0367 681.197 10.41C681.272 10.7833 681.379 11.138 681.519 11.474C681.659 11.8007 681.851 12.09 682.093 12.342C682.336 12.594 682.639 12.7947 683.003 12.944C683.377 13.084 683.82 13.154 684.333 13.154C684.856 13.154 685.299 13.084 685.663 12.944C686.027 12.7947 686.331 12.594 686.573 12.342C686.816 12.09 687.007 11.8007 687.147 11.474C687.287 11.138 687.395 10.7833 687.469 10.41C687.544 10.0367 687.591 9.654 687.609 9.262C687.628 8.87 687.637 8.492 687.637 8.128C687.637 7.764 687.628 7.386 687.609 6.994C687.591 6.602 687.544 6.21933 687.469 5.846C687.395 5.47267 687.287 5.118 687.147 4.782C687.007 4.446 686.816 4.152 686.573 3.9C686.331 3.648 686.023 3.44733 685.649 3.298C685.285 3.14867 684.847 3.074 684.333 3.074C683.82 3.074 683.377 3.14867 683.003 3.298C682.639 3.44733 682.336 3.648 682.093 3.9C681.851 4.152 681.659 4.446 681.519 4.782C681.379 5.118 681.272 5.47267 681.197 5.846C681.123 6.21933 681.076 6.602 681.057 6.994C681.039 7.386 681.029 7.764 681.029 8.128ZM690.069 8.114C690.069 7.87133 690.069 7.60533 690.069 7.316C690.078 7.01733 690.101 6.72333 690.139 6.434C690.185 6.13533 690.246 5.846 690.321 5.566C690.405 5.286 690.521 5.04333 690.671 4.838C690.829 4.62333 691.025 4.45067 691.259 4.32C691.492 4.18933 691.777 4.124 692.113 4.124C692.449 4.124 692.733 4.18933 692.967 4.32C693.2 4.45067 693.391 4.62333 693.541 4.838C693.699 5.04333 693.816 5.286 693.891 5.566C693.975 5.846 694.035 6.13533 694.073 6.434C694.119 6.72333 694.143 7.01733 694.143 7.316C694.152 7.60533 694.157 7.87133 694.157 8.114C694.157 8.48733 694.143 8.90733 694.115 9.374C694.096 9.83133 694.021 10.2653 693.891 10.676C693.769 11.0773 693.569 11.418 693.289 11.698C693.009 11.978 692.617 12.118 692.113 12.118C691.609 12.118 691.217 11.978 690.937 11.698C690.657 11.418 690.451 11.0773 690.321 10.676C690.199 10.2653 690.125 9.83133 690.097 9.374C690.078 8.90733 690.069 8.48733 690.069 8.114ZM688.809 8.128C688.809 8.492 688.818 8.87 688.837 9.262C688.855 9.654 688.902 10.0367 688.977 10.41C689.051 10.7833 689.159 11.138 689.299 11.474C689.439 11.8007 689.63 12.09 689.873 12.342C690.115 12.594 690.419 12.7947 690.783 12.944C691.156 13.084 691.599 13.154 692.113 13.154C692.635 13.154 693.079 13.084 693.443 12.944C693.807 12.7947 694.11 12.594 694.353 12.342C694.595 12.09 694.787 11.8007 694.927 11.474C695.067 11.138 695.174 10.7833 695.249 10.41C695.323 10.0367 695.37 9.654 695.389 9.262C695.407 8.87 695.417 8.492 695.417 8.128C695.417 7.764 695.407 7.386 695.389 6.994C695.37 6.602 695.323 6.21933 695.249 5.846C695.174 5.47267 695.067 5.118 694.927 4.782C694.787 4.446 694.595 4.152 694.353 3.9C694.11 3.648 693.802 3.44733 693.429 3.298C693.065 3.14867 692.626 3.074 692.113 3.074C691.599 3.074 691.156 3.14867 690.783 3.298C690.419 3.44733 690.115 3.648 689.873 3.9C689.63 4.152 689.439 4.446 689.299 4.782C689.159 5.118 689.051 5.47267 688.977 5.846C688.902 6.21933 688.855 6.602 688.837 6.994C688.818 7.386 688.809 7.764 688.809 8.128Z" fill="#666666"/>
<path d="M758.458 5.608H759.648C759.573 4.78667 759.293 4.16133 758.808 3.732C758.323 3.29333 757.669 3.074 756.848 3.074C756.139 3.074 755.551 3.22333 755.084 3.522C754.617 3.82067 754.244 4.21733 753.964 4.712C753.684 5.20667 753.483 5.776 753.362 6.42C753.25 7.05467 753.194 7.71267 753.194 8.394C753.194 8.91667 753.231 9.458 753.306 10.018C753.39 10.578 753.553 11.0913 753.796 11.558C754.039 12.0247 754.384 12.4073 754.832 12.706C755.28 13.0047 755.873 13.154 756.61 13.154C757.235 13.154 757.758 13.0513 758.178 12.846C758.607 12.6313 758.948 12.3653 759.2 12.048C759.461 11.7213 759.648 11.362 759.76 10.97C759.872 10.578 759.928 10.2 759.928 9.836C759.928 9.37867 759.858 8.954 759.718 8.562C759.578 8.17 759.377 7.82933 759.116 7.54C758.864 7.25067 758.547 7.02667 758.164 6.868C757.791 6.7 757.366 6.616 756.89 6.616C756.349 6.616 755.868 6.71867 755.448 6.924C755.037 7.12933 754.692 7.46067 754.412 7.918L754.384 7.89C754.393 7.50733 754.431 7.09667 754.496 6.658C754.561 6.21933 754.678 5.81333 754.846 5.44C755.023 5.05733 755.266 4.74467 755.574 4.502C755.882 4.25 756.288 4.124 756.792 4.124C757.268 4.124 757.651 4.25933 757.94 4.53C758.229 4.80067 758.402 5.16 758.458 5.608ZM756.666 7.666C757.002 7.666 757.296 7.72667 757.548 7.848C757.8 7.96933 758.01 8.13267 758.178 8.338C758.346 8.534 758.467 8.772 758.542 9.052C758.626 9.32267 758.668 9.612 758.668 9.92C758.668 10.2093 758.621 10.4893 758.528 10.76C758.444 11.0213 758.318 11.2547 758.15 11.46C757.982 11.6653 757.772 11.8287 757.52 11.95C757.277 12.062 756.993 12.118 756.666 12.118C756.339 12.118 756.045 12.062 755.784 11.95C755.532 11.8287 755.317 11.67 755.14 11.474C754.972 11.278 754.841 11.0447 754.748 10.774C754.655 10.5033 754.608 10.214 754.608 9.906C754.608 9.598 754.65 9.30867 754.734 9.038C754.827 8.758 754.963 8.52 755.14 8.324C755.317 8.11867 755.532 7.96 755.784 7.848C756.036 7.72667 756.33 7.666 756.666 7.666ZM762.289 8.114C762.289 7.87133 762.289 7.60533 762.289 7.316C762.299 7.01733 762.322 6.72333 762.359 6.434C762.406 6.13533 762.467 5.846 762.541 5.566C762.625 5.286 762.742 5.04333 762.891 4.838C763.05 4.62333 763.246 4.45067 763.479 4.32C763.713 4.18933 763.997 4.124 764.333 4.124C764.669 4.124 764.954 4.18933 765.187 4.32C765.421 4.45067 765.612 4.62333 765.761 4.838C765.92 5.04333 766.037 5.286 766.111 5.566C766.195 5.846 766.256 6.13533 766.293 6.434C766.34 6.72333 766.363 7.01733 766.363 7.316C766.373 7.60533 766.377 7.87133 766.377 8.114C766.377 8.48733 766.363 8.90733 766.335 9.374C766.317 9.83133 766.242 10.2653 766.111 10.676C765.99 11.0773 765.789 11.418 765.509 11.698C765.229 11.978 764.837 12.118 764.333 12.118C763.829 12.118 763.437 11.978 763.157 11.698C762.877 11.418 762.672 11.0773 762.541 10.676C762.42 10.2653 762.345 9.83133 762.317 9.374C762.299 8.90733 762.289 8.48733 762.289 8.114ZM761.029 8.128C761.029 8.492 761.039 8.87 761.057 9.262C761.076 9.654 761.123 10.0367 761.197 10.41C761.272 10.7833 761.379 11.138 761.519 11.474C761.659 11.8007 761.851 12.09 762.093 12.342C762.336 12.594 762.639 12.7947 763.003 12.944C763.377 13.084 763.82 13.154 764.333 13.154C764.856 13.154 765.299 13.084 765.663 12.944C766.027 12.7947 766.331 12.594 766.573 12.342C766.816 12.09 767.007 11.8007 767.147 11.474C767.287 11.138 767.395 10.7833 767.469 10.41C767.544 10.0367 767.591 9.654 767.609 9.262C767.628 8.87 767.637 8.492 767.637 8.128C767.637 7.764 767.628 7.386 767.609 6.994C767.591 6.602 767.544 6.21933 767.469 5.846C767.395 5.47267 767.287 5.118 767.147 4.782C767.007 4.446 766.816 4.152 766.573 3.9C766.331 3.648 766.023 3.44733 765.649 3.298C765.285 3.14867 764.847 3.074 764.333 3.074C763.82 3.074 763.377 3.14867 763.003 3.298C762.639 3.44733 762.336 3.648 762.093 3.9C761.851 4.152 761.659 4.446 761.519 4.782C761.379 5.118 761.272 5.47267 761.197 5.846C761.123 6.21933 761.076 6.602 761.057 6.994C761.039 7.386 761.029 7.764 761.029 8.128ZM770.069 8.114C770.069 7.87133 770.069 7.60533 770.069 7.316C770.078 7.01733 770.101 6.72333 770.139 6.434C770.185 6.13533 770.246 5.846 770.321 5.566C770.405 5.286 770.521 5.04333 770.671 4.838C770.829 4.62333 771.025 4.45067 771.259 4.32C771.492 4.18933 771.777 4.124 772.113 4.124C772.449 4.124 772.733 4.18933 772.967 4.32C773.2 4.45067 773.391 4.62333 773.541 4.838C773.699 5.04333 773.816 5.286 773.891 5.566C773.975 5.846 774.035 6.13533 774.073 6.434C774.119 6.72333 774.143 7.01733 774.143 7.316C774.152 7.60533 774.157 7.87133 774.157 8.114C774.157 8.48733 774.143 8.90733 774.115 9.374C774.096 9.83133 774.021 10.2653 773.891 10.676C773.769 11.0773 773.569 11.418 773.289 11.698C773.009 11.978 772.617 12.118 772.113 12.118C771.609 12.118 771.217 11.978 770.937 11.698C770.657 11.418 770.451 11.0773 770.321 10.676C770.199 10.2653 770.125 9.83133 770.097 9.374C770.078 8.90733 770.069 8.48733 770.069 8.114ZM768.809 8.128C768.809 8.492 768.818 8.87 768.837 9.262C768.855 9.654 768.902 10.0367 768.977 10.41C769.051 10.7833 769.159 11.138 769.299 11.474C769.439 11.8007 769.63 12.09 769.873 12.342C770.115 12.594 770.419 12.7947 770.783 12.944C771.156 13.084 771.599 13.154 772.113 13.154C772.635 13.154 773.079 13.084 773.443 12.944C773.807 12.7947 774.11 12.594 774.353 12.342C774.595 12.09 774.787 11.8007 774.927 11.474C775.067 11.138 775.174 10.7833 775.249 10.41C775.323 10.0367 775.37 9.654 775.389 9.262C775.407 8.87 775.417 8.492 775.417 8.128C775.417 7.764 775.407 7.386 775.389 6.994C775.37 6.602 775.323 6.21933 775.249 5.846C775.174 5.47267 775.067 5.118 774.927 4.782C774.787 4.446 774.595 4.152 774.353 3.9C774.11 3.648 773.802 3.44733 773.429 3.298C773.065 3.14867 772.626 3.074 772.113 3.074C771.599 3.074 771.156 3.14867 770.783 3.298C770.419 3.44733 770.115 3.648 769.873 3.9C769.63 4.152 769.439 4.446 769.299 4.782C769.159 5.118 769.051 5.47267 768.977 5.846C768.902 6.21933 768.855 6.602 768.837 6.994C768.818 7.386 768.809 7.764 768.809 8.128Z" fill="#666666"/>
<path d="M834.832 5.65C834.832 5.398 834.879 5.17867 834.972 4.992C835.065 4.80533 835.187 4.64667 835.336 4.516C835.495 4.38533 835.681 4.28733 835.896 4.222C836.111 4.15667 836.335 4.124 836.568 4.124C837.053 4.124 837.45 4.25467 837.758 4.516C838.075 4.768 838.234 5.146 838.234 5.65C838.234 6.154 838.08 6.546 837.772 6.826C837.464 7.106 837.072 7.246 836.596 7.246C836.353 7.246 836.125 7.21333 835.91 7.148C835.695 7.08267 835.509 6.98467 835.35 6.854C835.191 6.72333 835.065 6.56 834.972 6.364C834.879 6.15867 834.832 5.92067 834.832 5.65ZM833.572 5.608C833.572 6.056 833.698 6.47133 833.95 6.854C834.202 7.22733 834.538 7.498 834.958 7.666C834.398 7.862 833.969 8.17933 833.67 8.618C833.371 9.04733 833.222 9.556 833.222 10.144C833.222 10.648 833.306 11.0913 833.474 11.474C833.651 11.8473 833.889 12.16 834.188 12.412C834.496 12.664 834.855 12.8507 835.266 12.972C835.677 13.0933 836.12 13.154 836.596 13.154C837.053 13.154 837.483 13.0887 837.884 12.958C838.285 12.8273 838.631 12.636 838.92 12.384C839.219 12.1227 839.452 11.8053 839.62 11.432C839.797 11.0587 839.886 10.6293 839.886 10.144C839.886 9.528 839.741 9.01 839.452 8.59C839.163 8.16067 838.719 7.85267 838.122 7.666C838.542 7.47933 838.873 7.204 839.116 6.84C839.368 6.46667 839.494 6.056 839.494 5.608C839.494 5.29067 839.438 4.98267 839.326 4.684C839.214 4.376 839.037 4.10533 838.794 3.872C838.561 3.62933 838.253 3.438 837.87 3.298C837.487 3.14867 837.025 3.074 836.484 3.074C836.101 3.074 835.733 3.13 835.378 3.242C835.033 3.354 834.725 3.51733 834.454 3.732C834.183 3.94667 833.969 4.21267 833.81 4.53C833.651 4.838 833.572 5.19733 833.572 5.608ZM834.482 10.2C834.482 9.91067 834.533 9.64933 834.636 9.416C834.748 9.18267 834.897 8.982 835.084 8.814C835.28 8.646 835.504 8.52 835.756 8.436C836.017 8.34267 836.293 8.296 836.582 8.296C836.862 8.296 837.123 8.34733 837.366 8.45C837.618 8.54333 837.837 8.674 838.024 8.842C838.211 9.01 838.355 9.21067 838.458 9.444C838.57 9.668 838.626 9.91533 838.626 10.186C838.626 10.466 838.575 10.7227 838.472 10.956C838.379 11.1893 838.239 11.3947 838.052 11.572C837.875 11.74 837.66 11.8753 837.408 11.978C837.165 12.0713 836.895 12.118 836.596 12.118C835.98 12.118 835.471 11.95 835.07 11.614C834.678 11.2687 834.482 10.7973 834.482 10.2ZM842.289 8.114C842.289 7.87133 842.289 7.60533 842.289 7.316C842.299 7.01733 842.322 6.72333 842.359 6.434C842.406 6.13533 842.467 5.846 842.541 5.566C842.625 5.286 842.742 5.04333 842.891 4.838C843.05 4.62333 843.246 4.45067 843.479 4.32C843.713 4.18933 843.997 4.124 844.333 4.124C844.669 4.124 844.954 4.18933 845.187 4.32C845.421 4.45067 845.612 4.62333 845.761 4.838C845.92 5.04333 846.037 5.286 846.111 5.566C846.195 5.846 846.256 6.13533 846.293 6.434C846.34 6.72333 846.363 7.01733 846.363 7.316C846.373 7.60533 846.377 7.87133 846.377 8.114C846.377 8.48733 846.363 8.90733 846.335 9.374C846.317 9.83133 846.242 10.2653 846.111 10.676C845.99 11.0773 845.789 11.418 845.509 11.698C845.229 11.978 844.837 12.118 844.333 12.118C843.829 12.118 843.437 11.978 843.157 11.698C842.877 11.418 842.672 11.0773 842.541 10.676C842.42 10.2653 842.345 9.83133 842.317 9.374C842.299 8.90733 842.289 8.48733 842.289 8.114ZM841.029 8.128C841.029 8.492 841.039 8.87 841.057 9.262C841.076 9.654 841.123 10.0367 841.197 10.41C841.272 10.7833 841.379 11.138 841.519 11.474C841.659 11.8007 841.851 12.09 842.093 12.342C842.336 12.594 842.639 12.7947 843.003 12.944C843.377 13.084 843.82 13.154 844.333 13.154C844.856 13.154 845.299 13.084 845.663 12.944C846.027 12.7947 846.331 12.594 846.573 12.342C846.816 12.09 847.007 11.8007 847.147 11.474C847.287 11.138 847.395 10.7833 847.469 10.41C847.544 10.0367 847.591 9.654 847.609 9.262C847.628 8.87 847.637 8.492 847.637 8.128C847.637 7.764 847.628 7.386 847.609 6.994C847.591 6.602 847.544 6.21933 847.469 5.846C847.395 5.47267 847.287 5.118 847.147 4.782C847.007 4.446 846.816 4.152 846.573 3.9C846.331 3.648 846.023 3.44733 845.649 3.298C845.285 3.14867 844.847 3.074 844.333 3.074C843.82 3.074 843.377 3.14867 843.003 3.298C842.639 3.44733 842.336 3.648 842.093 3.9C841.851 4.152 841.659 4.446 841.519 4.782C841.379 5.118 841.272 5.47267 841.197 5.846C841.123 6.21933 841.076 6.602 841.057 6.994C841.039 7.386 841.029 7.764 841.029 8.128ZM850.069 8.114C850.069 7.87133 850.069 7.60533 850.069 7.316C850.078 7.01733 850.101 6.72333 850.139 6.434C850.185 6.13533 850.246 5.846 850.321 5.566C850.405 5.286 850.521 5.04333 850.671 4.838C850.829 4.62333 851.025 4.45067 851.259 4.32C851.492 4.18933 851.777 4.124 852.113 4.124C852.449 4.124 852.733 4.18933 852.967 4.32C853.2 4.45067 853.391 4.62333 853.541 4.838C853.699 5.04333 853.816 5.286 853.891 5.566C853.975 5.846 854.035 6.13533 854.073 6.434C854.119 6.72333 854.143 7.01733 854.143 7.316C854.152 7.60533 854.157 7.87133 854.157 8.114C854.157 8.48733 854.143 8.90733 854.115 9.374C854.096 9.83133 854.021 10.2653 853.891 10.676C853.769 11.0773 853.569 11.418 853.289 11.698C853.009 11.978 852.617 12.118 852.113 12.118C851.609 12.118 851.217 11.978 850.937 11.698C850.657 11.418 850.451 11.0773 850.321 10.676C850.199 10.2653 850.125 9.83133 850.097 9.374C850.078 8.90733 850.069 8.48733 850.069 8.114ZM848.809 8.128C848.809 8.492 848.818 8.87 848.837 9.262C848.855 9.654 848.902 10.0367 848.977 10.41C849.051 10.7833 849.159 11.138 849.299 11.474C849.439 11.8007 849.63 12.09 849.873 12.342C850.115 12.594 850.419 12.7947 850.783 12.944C851.156 13.084 851.599 13.154 852.113 13.154C852.635 13.154 853.079 13.084 853.443 12.944C853.807 12.7947 854.11 12.594 854.353 12.342C854.595 12.09 854.787 11.8007 854.927 11.474C855.067 11.138 855.174 10.7833 855.249 10.41C855.323 10.0367 855.37 9.654 855.389 9.262C855.407 8.87 855.417 8.492 855.417 8.128C855.417 7.764 855.407 7.386 855.389 6.994C855.37 6.602 855.323 6.21933 855.249 5.846C855.174 5.47267 855.067 5.118 854.927 4.782C854.787 4.446 854.595 4.152 854.353 3.9C854.11 3.648 853.802 3.44733 853.429 3.298C853.065 3.14867 852.626 3.074 852.113 3.074C851.599 3.074 851.156 3.14867 850.783 3.298C850.419 3.44733 850.115 3.648 849.873 3.9C849.63 4.152 849.439 4.446 849.299 4.782C849.159 5.118 849.051 5.47267 848.977 5.846C848.902 6.21933 848.855 6.602 848.837 6.994C848.818 7.386 848.809 7.764 848.809 8.128Z" fill="#666666"/>
<path d="M914.538 10.606H913.348C913.423 11.4647 913.735 12.104 914.286 12.524C914.837 12.944 915.527 13.154 916.358 13.154C917.562 13.154 918.435 12.6967 918.976 11.782C919.527 10.858 919.802 9.53733 919.802 7.82C919.802 6.87733 919.709 6.10267 919.522 5.496C919.345 4.88 919.102 4.39467 918.794 4.04C918.486 3.68533 918.127 3.438 917.716 3.298C917.305 3.14867 916.867 3.074 916.4 3.074C915.924 3.074 915.485 3.15333 915.084 3.312C914.683 3.47067 914.337 3.69467 914.048 3.984C913.759 4.264 913.535 4.60467 913.376 5.006C913.217 5.398 913.138 5.832 913.138 6.308C913.138 6.79333 913.203 7.24133 913.334 7.652C913.474 8.06267 913.675 8.41267 913.936 8.702C914.207 8.99133 914.538 9.22 914.93 9.388C915.322 9.54667 915.77 9.626 916.274 9.626C916.759 9.626 917.207 9.50467 917.618 9.262C918.029 9.01 918.346 8.674 918.57 8.254L918.598 8.282C918.561 9.57933 918.36 10.5453 917.996 11.18C917.632 11.8053 917.086 12.118 916.358 12.118C915.882 12.118 915.471 11.9873 915.126 11.726C914.781 11.4647 914.585 11.0913 914.538 10.606ZM918.388 6.392C918.388 6.68133 918.341 6.96133 918.248 7.232C918.155 7.49333 918.019 7.72667 917.842 7.932C917.665 8.128 917.45 8.28667 917.198 8.408C916.946 8.52 916.666 8.576 916.358 8.576C916.069 8.576 915.803 8.52 915.56 8.408C915.327 8.28667 915.121 8.128 914.944 7.932C914.776 7.736 914.641 7.512 914.538 7.26C914.445 7.008 914.398 6.74667 914.398 6.476C914.398 6.168 914.431 5.874 914.496 5.594C914.571 5.314 914.683 5.06667 914.832 4.852C914.991 4.628 915.191 4.45067 915.434 4.32C915.686 4.18933 915.989 4.124 916.344 4.124C916.68 4.124 916.974 4.18467 917.226 4.306C917.478 4.42733 917.688 4.59533 917.856 4.81C918.033 5.01533 918.164 5.25333 918.248 5.524C918.341 5.79467 918.388 6.084 918.388 6.392ZM927.021 4.292V3.242H922.121L921.197 8.394L922.219 8.45C922.453 8.17 922.719 7.946 923.017 7.778C923.325 7.60067 923.675 7.512 924.067 7.512C924.403 7.512 924.707 7.568 924.977 7.68C925.257 7.792 925.495 7.95067 925.691 8.156C925.887 8.352 926.037 8.59 926.139 8.87C926.251 9.14067 926.307 9.43933 926.307 9.766C926.307 10.158 926.251 10.5033 926.139 10.802C926.027 11.0913 925.873 11.334 925.677 11.53C925.491 11.726 925.267 11.8753 925.005 11.978C924.753 12.0713 924.487 12.118 924.207 12.118C923.909 12.118 923.633 12.076 923.381 11.992C923.139 11.8987 922.924 11.7727 922.737 11.614C922.56 11.446 922.415 11.2547 922.303 11.04C922.201 10.816 922.14 10.578 922.121 10.326H920.931C920.941 10.774 921.029 11.1753 921.197 11.53C921.365 11.8847 921.594 12.1833 921.883 12.426C922.173 12.6593 922.504 12.8413 922.877 12.972C923.26 13.0933 923.666 13.154 924.095 13.154C924.674 13.154 925.178 13.0653 925.607 12.888C926.046 12.7013 926.41 12.454 926.699 12.146C926.989 11.838 927.203 11.488 927.343 11.096C927.493 10.6947 927.567 10.284 927.567 9.864C927.567 9.29467 927.483 8.8 927.315 8.38C927.147 7.95067 926.919 7.596 926.629 7.316C926.34 7.02667 925.999 6.812 925.607 6.672C925.215 6.532 924.8 6.462 924.361 6.462C924.025 6.462 923.685 6.52267 923.339 6.644C923.003 6.756 922.728 6.93333 922.513 7.176L922.485 7.148L923.017 4.292H927.021ZM930.069 8.114C930.069 7.87133 930.069 7.60533 930.069 7.316C930.078 7.01733 930.101 6.72333 930.139 6.434C930.185 6.13533 930.246 5.846 930.321 5.566C930.405 5.286 930.521 5.04333 930.671 4.838C930.829 4.62333 931.025 4.45067 931.259 4.32C931.492 4.18933 931.777 4.124 932.113 4.124C932.449 4.124 932.733 4.18933 932.967 4.32C933.2 4.45067 933.391 4.62333 933.541 4.838C933.699 5.04333 933.816 5.286 933.891 5.566C933.975 5.846 934.035 6.13533 934.073 6.434C934.119 6.72333 934.143 7.01733 934.143 7.316C934.152 7.60533 934.157 7.87133 934.157 8.114C934.157 8.48733 934.143 8.90733 934.115 9.374C934.096 9.83133 934.021 10.2653 933.891 10.676C933.769 11.0773 933.569 11.418 933.289 11.698C933.009 11.978 932.617 12.118 932.113 12.118C931.609 12.118 931.217 11.978 930.937 11.698C930.657 11.418 930.451 11.0773 930.321 10.676C930.199 10.2653 930.125 9.83133 930.097 9.374C930.078 8.90733 930.069 8.48733 930.069 8.114ZM928.809 8.128C928.809 8.492 928.818 8.87 928.837 9.262C928.855 9.654 928.902 10.0367 928.977 10.41C929.051 10.7833 929.159 11.138 929.299 11.474C929.439 11.8007 929.63 12.09 929.873 12.342C930.115 12.594 930.419 12.7947 930.783 12.944C931.156 13.084 931.599 13.154 932.113 13.154C932.635 13.154 933.079 13.084 933.443 12.944C933.807 12.7947 934.11 12.594 934.353 12.342C934.595 12.09 934.787 11.8007 934.927 11.474C935.067 11.138 935.174 10.7833 935.249 10.41C935.323 10.0367 935.37 9.654 935.389 9.262C935.407 8.87 935.417 8.492 935.417 8.128C935.417 7.764 935.407 7.386 935.389 6.994C935.37 6.602 935.323 6.21933 935.249 5.846C935.174 5.47267 935.067 5.118 934.927 4.782C934.787 4.446 934.595 4.152 934.353 3.9C934.11 3.648 933.802 3.44733 933.429 3.298C933.065 3.14867 932.626 3.074 932.113 3.074C931.599 3.074 931.156 3.14867 930.783 3.298C930.419 3.44733 930.115 3.648 929.873 3.9C929.63 4.152 929.439 4.446 929.299 4.782C929.159 5.118 929.051 5.47267 928.977 5.846C928.902 6.21933 928.855 6.602 928.837 6.994C928.818 7.386 928.809 7.764 928.809 8.128Z" fill="#666666"/>
<path d="M3.422 43.302V40.124H6.082C6.37133 40.124 6.642 40.1427 6.894 40.18C7.15533 40.208 7.384 40.278 7.58 40.39C7.776 40.502 7.93 40.6607 8.042 40.866C8.154 41.0713 8.21 41.3513 8.21 41.706C8.21 42.238 8.042 42.6393 7.706 42.91C7.37933 43.1713 6.838 43.302 6.082 43.302H3.422ZM2.092 39.004V49H6.922C7.41667 49 7.85067 48.9207 8.224 48.762C8.60667 48.594 8.924 48.3793 9.176 48.118C9.43733 47.8473 9.63333 47.5393 9.764 47.194C9.89467 46.8487 9.96 46.494 9.96 46.13C9.96 45.514 9.79667 44.9913 9.47 44.562C9.14333 44.1327 8.672 43.8527 8.056 43.722V43.694C8.532 43.5073 8.896 43.2227 9.148 42.84C9.40933 42.448 9.54 41.986 9.54 41.454C9.54 40.95 9.42333 40.5253 9.19 40.18C8.966 39.8347 8.69067 39.564 8.364 39.368C8.21467 39.2747 8.03267 39.2047 7.818 39.158C7.61267 39.1113 7.38867 39.0787 7.146 39.06C6.90333 39.032 6.656 39.018 6.404 39.018C6.16133 39.0087 5.93267 39.004 5.718 39.004H2.092ZM3.422 47.88V44.422H6.46C6.74 44.422 7.01067 44.45 7.272 44.506C7.53333 44.5527 7.762 44.6413 7.958 44.772C8.16333 44.8933 8.32667 45.0613 8.448 45.276C8.56933 45.4907 8.63 45.7613 8.63 46.088C8.63 46.648 8.462 47.0867 8.126 47.404C7.79933 47.7213 7.342 47.88 6.754 47.88H3.422ZM11.55 39.004V49H12.74V39.004H11.55ZM20.5755 49V41.762H19.3855V45.85C19.3855 46.1767 19.3388 46.48 19.2455 46.76C19.1615 47.0307 19.0308 47.2687 18.8535 47.474C18.6762 47.6793 18.4522 47.838 18.1815 47.95C17.9202 48.062 17.6075 48.118 17.2435 48.118C16.7862 48.118 16.4268 47.9873 16.1655 47.726C15.9042 47.4647 15.7735 47.11 15.7735 46.662V41.762H14.5835V46.522C14.5835 46.914 14.6208 47.2733 14.6955 47.6C14.7795 47.9173 14.9195 48.1927 15.1155 48.426C15.3115 48.6593 15.5682 48.8413 15.8855 48.972C16.2028 49.0933 16.5995 49.154 17.0755 49.154C17.6075 49.154 18.0695 49.0513 18.4615 48.846C18.8535 48.6313 19.1755 48.3 19.4275 47.852H19.4555V49H20.5755ZM27.3888 44.688H23.2308C23.2495 44.408 23.3101 44.1467 23.4128 43.904C23.5155 43.652 23.6555 43.4327 23.8328 43.246C24.0101 43.0593 24.2201 42.9147 24.4628 42.812C24.7148 42.7 24.9948 42.644 25.3028 42.644C25.6015 42.644 25.8721 42.7 26.1148 42.812C26.3668 42.9147 26.5815 43.0593 26.7588 43.246C26.9455 43.4233 27.0901 43.638 27.1928 43.89C27.3048 44.142 27.3701 44.408 27.3888 44.688ZM28.5368 46.704H27.3608C27.2581 47.18 27.0435 47.5347 26.7168 47.768C26.3995 48.0013 25.9888 48.118 25.4848 48.118C25.0928 48.118 24.7521 48.0527 24.4628 47.922C24.1735 47.7913 23.9355 47.6187 23.7488 47.404C23.5621 47.18 23.4268 46.928 23.3428 46.648C23.2588 46.3587 23.2215 46.0553 23.2308 45.738H28.6488C28.6675 45.2993 28.6255 44.8373 28.5228 44.352C28.4295 43.8667 28.2521 43.4187 27.9908 43.008C27.7388 42.5973 27.3981 42.2613 26.9688 42C26.5488 41.7293 26.0168 41.594 25.3728 41.594C24.8781 41.594 24.4208 41.6873 24.0008 41.874C23.5901 42.0607 23.2308 42.322 22.9228 42.658C22.6241 42.994 22.3908 43.3907 22.2228 43.848C22.0548 44.3053 21.9708 44.8093 21.9708 45.36C21.9895 45.9107 22.0688 46.4193 22.2088 46.886C22.3581 47.3527 22.5775 47.754 22.8668 48.09C23.1561 48.426 23.5108 48.6873 23.9308 48.874C24.3601 49.0607 24.8641 49.154 25.4428 49.154C26.2641 49.154 26.9455 48.9487 27.4868 48.538C28.0281 48.1273 28.3781 47.516 28.5368 46.704Z" fill="#666666"/>
<path d="M958.706 44.002C958.706 43.498 958.771 43.0033 958.902 42.518C959.032 42.0233 959.238 41.58 959.518 41.188C959.798 40.796 960.157 40.4833 960.596 40.25C961.034 40.0073 961.557 39.886 962.164 39.886C962.77 39.886 963.293 40.0073 963.732 40.25C964.17 40.4833 964.53 40.796 964.81 41.188C965.09 41.58 965.295 42.0233 965.426 42.518C965.556 43.0033 965.622 43.498 965.622 44.002C965.622 44.506 965.556 45.0053 965.426 45.5C965.295 45.9853 965.09 46.424 964.81 46.816C964.53 47.208 964.17 47.5253 963.732 47.768C963.293 48.0013 962.77 48.118 962.164 48.118C961.557 48.118 961.034 48.0013 960.596 47.768C960.157 47.5253 959.798 47.208 959.518 46.816C959.238 46.424 959.032 45.9853 958.902 45.5C958.771 45.0053 958.706 44.506 958.706 44.002ZM957.376 44.002C957.376 44.6833 957.474 45.3413 957.67 45.976C957.875 46.6013 958.178 47.1567 958.58 47.642C958.981 48.1273 959.48 48.5147 960.078 48.804C960.675 49.084 961.37 49.224 962.164 49.224C962.957 49.224 963.652 49.084 964.25 48.804C964.847 48.5147 965.346 48.1273 965.748 47.642C966.149 47.1567 966.448 46.6013 966.644 45.976C966.849 45.3413 966.952 44.6833 966.952 44.002C966.952 43.3207 966.849 42.6673 966.644 42.042C966.448 41.4073 966.149 40.8473 965.748 40.362C965.346 39.8767 964.847 39.4893 964.25 39.2C963.652 38.9107 962.957 38.766 962.164 38.766C961.37 38.766 960.675 38.9107 960.078 39.2C959.48 39.4893 958.981 39.8767 958.58 40.362C958.178 40.8473 957.875 41.4073 957.67 42.042C957.474 42.6673 957.376 43.3207 957.376 44.002ZM968.334 41.762V49H969.524V45.78C969.524 45.3133 969.571 44.9027 969.664 44.548C969.758 44.184 969.907 43.876 970.112 43.624C970.318 43.372 970.588 43.1807 970.924 43.05C971.26 42.9193 971.666 42.854 972.142 42.854V41.594C971.498 41.5753 970.966 41.706 970.546 41.986C970.126 42.266 969.772 42.7 969.482 43.288H969.454V41.762H968.334ZM979.451 48.972C979.245 49.0933 978.961 49.154 978.597 49.154C978.289 49.154 978.041 49.07 977.855 48.902C977.677 48.7247 977.589 48.44 977.589 48.048C977.262 48.44 976.879 48.7247 976.441 48.902C976.011 49.07 975.545 49.154 975.041 49.154C974.714 49.154 974.401 49.1167 974.103 49.042C973.813 48.9673 973.561 48.8507 973.347 48.692C973.132 48.5333 972.959 48.328 972.829 48.076C972.707 47.8147 972.647 47.502 972.647 47.138C972.647 46.7273 972.717 46.3913 972.857 46.13C972.997 45.8687 973.179 45.6587 973.403 45.5C973.636 45.332 973.897 45.206 974.187 45.122C974.485 45.038 974.789 44.968 975.097 44.912C975.423 44.8467 975.731 44.8 976.021 44.772C976.319 44.7347 976.581 44.688 976.805 44.632C977.029 44.5667 977.206 44.478 977.337 44.366C977.467 44.2447 977.533 44.072 977.533 43.848C977.533 43.5867 977.481 43.3767 977.379 43.218C977.285 43.0593 977.159 42.938 977.001 42.854C976.851 42.77 976.679 42.714 976.483 42.686C976.296 42.658 976.109 42.644 975.923 42.644C975.419 42.644 974.999 42.742 974.663 42.938C974.327 43.1247 974.145 43.484 974.117 44.016H972.927C972.945 43.568 973.039 43.19 973.207 42.882C973.375 42.574 973.599 42.3267 973.879 42.14C974.159 41.944 974.476 41.804 974.831 41.72C975.195 41.636 975.582 41.594 975.993 41.594C976.319 41.594 976.641 41.6173 976.959 41.664C977.285 41.7107 977.579 41.8087 977.841 41.958C978.102 42.098 978.312 42.2987 978.471 42.56C978.629 42.8213 978.709 43.162 978.709 43.582V47.306C978.709 47.586 978.723 47.7913 978.751 47.922C978.788 48.0527 978.9 48.118 979.087 48.118C979.189 48.118 979.311 48.0947 979.451 48.048V48.972ZM977.519 45.262C977.369 45.374 977.173 45.458 976.931 45.514C976.688 45.5607 976.431 45.6027 976.161 45.64C975.899 45.668 975.633 45.7053 975.363 45.752C975.092 45.7893 974.849 45.8547 974.635 45.948C974.42 46.0413 974.243 46.1767 974.103 46.354C973.972 46.522 973.907 46.7553 973.907 47.054C973.907 47.25 973.944 47.418 974.019 47.558C974.103 47.6887 974.205 47.796 974.327 47.88C974.457 47.964 974.607 48.0247 974.775 48.062C974.943 48.0993 975.12 48.118 975.307 48.118C975.699 48.118 976.035 48.0667 976.315 47.964C976.595 47.852 976.823 47.7167 977.001 47.558C977.178 47.39 977.309 47.2127 977.393 47.026C977.477 46.83 977.519 46.648 977.519 46.48V45.262ZM980.558 41.762V49H981.748V44.912C981.748 44.5853 981.79 44.2867 981.874 44.016C981.967 43.736 982.103 43.4933 982.28 43.288C982.457 43.0827 982.677 42.924 982.938 42.812C983.209 42.7 983.526 42.644 983.89 42.644C984.347 42.644 984.707 42.7747 984.968 43.036C985.229 43.2973 985.36 43.652 985.36 44.1V49H986.55V44.24C986.55 43.848 986.508 43.4933 986.424 43.176C986.349 42.8493 986.214 42.5693 986.018 42.336C985.822 42.1027 985.565 41.9207 985.248 41.79C984.931 41.6593 984.534 41.594 984.058 41.594C982.985 41.594 982.201 42.0327 981.706 42.91H981.678V41.762H980.558ZM994.581 48.384V41.762H993.461V42.798H993.447C993.233 42.3967 992.934 42.098 992.551 41.902C992.169 41.6967 991.749 41.594 991.291 41.594C990.666 41.594 990.139 41.7153 989.709 41.958C989.28 42.1913 988.935 42.4947 988.673 42.868C988.412 43.232 988.225 43.6427 988.113 44.1C988.001 44.548 987.945 44.9867 987.945 45.416C987.945 45.9107 988.011 46.382 988.141 46.83C988.281 47.2687 988.487 47.656 988.757 47.992C989.028 48.3187 989.364 48.58 989.765 48.776C990.167 48.972 990.638 49.07 991.179 49.07C991.646 49.07 992.085 48.9673 992.495 48.762C992.915 48.5473 993.228 48.216 993.433 47.768H993.461V48.244C993.461 48.6453 993.419 49.014 993.335 49.35C993.261 49.686 993.135 49.9707 992.957 50.204C992.78 50.4467 992.556 50.6333 992.285 50.764C992.015 50.904 991.683 50.974 991.291 50.974C991.095 50.974 990.89 50.9507 990.675 50.904C990.461 50.8667 990.26 50.8013 990.073 50.708C989.896 50.6147 989.742 50.4933 989.611 50.344C989.49 50.1947 989.425 50.0127 989.415 49.798H988.225C988.244 50.19 988.347 50.5213 988.533 50.792C988.72 51.0627 988.953 51.282 989.233 51.45C989.523 51.618 989.84 51.7393 990.185 51.814C990.54 51.8887 990.885 51.926 991.221 51.926C992.379 51.926 993.228 51.632 993.769 51.044C994.311 50.456 994.581 49.5693 994.581 48.384ZM991.249 48.034C990.857 48.034 990.531 47.9547 990.269 47.796C990.008 47.628 989.798 47.4133 989.639 47.152C989.481 46.8813 989.369 46.5827 989.303 46.256C989.238 45.9293 989.205 45.6027 989.205 45.276C989.205 44.9307 989.243 44.5993 989.317 44.282C989.401 43.9647 989.527 43.6847 989.695 43.442C989.873 43.1993 990.097 43.008 990.367 42.868C990.638 42.7187 990.965 42.644 991.347 42.644C991.721 42.644 992.038 42.7187 992.299 42.868C992.561 43.0173 992.771 43.218 992.929 43.47C993.097 43.7127 993.219 43.988 993.293 44.296C993.368 44.604 993.405 44.9167 993.405 45.234C993.405 45.57 993.363 45.906 993.279 46.242C993.205 46.578 993.083 46.8813 992.915 47.152C992.747 47.4133 992.523 47.628 992.243 47.796C991.973 47.9547 991.641 48.034 991.249 48.034ZM1001.4 44.688H997.244C997.263 44.408 997.324 44.1467 997.426 43.904C997.529 43.652 997.669 43.4327 997.846 43.246C998.024 43.0593 998.234 42.9147 998.476 42.812C998.728 42.7 999.008 42.644 999.316 42.644C999.615 42.644 999.886 42.7 1000.13 42.812C1000.38 42.9147 1000.6 43.0593 1000.77 43.246C1000.96 43.4233 1001.1 43.638 1001.21 43.89C1001.32 44.142 1001.38 44.408 1001.4 44.688ZM1002.55 46.704H1001.37C1001.27 47.18 1001.06 47.5347 1000.73 47.768C1000.41 48.0013 1000 48.118 999.498 48.118C999.106 48.118 998.766 48.0527 998.476 47.922C998.187 47.7913 997.949 47.6187 997.762 47.404C997.576 47.18 997.44 46.928 997.356 46.648C997.272 46.3587 997.235 46.0553 997.244 45.738H1002.66C1002.68 45.2993 1002.64 44.8373 1002.54 44.352C1002.44 43.8667 1002.27 43.4187 1002 43.008C1001.75 42.5973 1001.41 42.2613 1000.98 42C1000.56 41.7293 1000.03 41.594 999.386 41.594C998.892 41.594 998.434 41.6873 998.014 41.874C997.604 42.0607 997.244 42.322 996.936 42.658C996.638 42.994 996.404 43.3907 996.236 43.848C996.068 44.3053 995.984 44.8093 995.984 45.36C996.003 45.9107 996.082 46.4193 996.222 46.886C996.372 47.3527 996.591 47.754 996.88 48.09C997.17 48.426 997.524 48.6873 997.944 48.874C998.374 49.0607 998.878 49.154 999.456 49.154C1000.28 49.154 1000.96 48.9487 1001.5 48.538C1002.04 48.1273 1002.39 47.516 1002.55 46.704Z" fill="#666666"/>
<path d="M3.814 117.87L5.508 113.208H5.536L7.202 117.87H3.814ZM4.808 112.004L0.916 122H2.274L3.394 118.99H7.622L8.714 122H10.184L6.278 112.004H4.808ZM11.8421 118.444C11.8421 118.089 11.8795 117.744 11.9541 117.408C12.0288 117.072 12.1501 116.773 12.3181 116.512C12.4861 116.251 12.7101 116.041 12.9901 115.882C13.2701 115.723 13.6108 115.644 14.0121 115.644C14.4228 115.644 14.7728 115.723 15.0621 115.882C15.3515 116.031 15.5848 116.232 15.7621 116.484C15.9488 116.736 16.0841 117.03 16.1681 117.366C16.2521 117.693 16.2941 118.033 16.2941 118.388C16.2941 118.724 16.2521 119.055 16.1681 119.382C16.0935 119.709 15.9675 120.003 15.7901 120.264C15.6128 120.516 15.3841 120.721 15.1041 120.88C14.8241 121.039 14.4835 121.118 14.0821 121.118C13.6995 121.118 13.3635 121.043 13.0741 120.894C12.7941 120.745 12.5608 120.544 12.3741 120.292C12.1968 120.04 12.0615 119.755 11.9681 119.438C11.8841 119.111 11.8421 118.78 11.8421 118.444ZM17.4421 124.758V114.762H16.2521V115.728H16.2241C16.0935 115.513 15.9301 115.336 15.7341 115.196C15.5475 115.047 15.3468 114.93 15.1321 114.846C14.9175 114.753 14.7028 114.687 14.4881 114.65C14.2735 114.613 14.0728 114.594 13.8861 114.594C13.3355 114.594 12.8501 114.697 12.4301 114.902C12.0195 115.098 11.6741 115.369 11.3941 115.714C11.1235 116.05 10.9181 116.447 10.7781 116.904C10.6475 117.361 10.5821 117.847 10.5821 118.36C10.5821 118.873 10.6521 119.359 10.7921 119.816C10.9321 120.273 11.1375 120.675 11.4081 121.02C11.6881 121.365 12.0335 121.641 12.4441 121.846C12.8641 122.051 13.3541 122.154 13.9141 122.154C14.4181 122.154 14.8801 122.065 15.3001 121.888C15.7201 121.711 16.0281 121.421 16.2241 121.02H16.2521V124.758H17.4421ZM25.265 122V114.762H24.075V118.85C24.075 119.177 24.0283 119.48 23.935 119.76C23.851 120.031 23.7203 120.269 23.543 120.474C23.3656 120.679 23.1416 120.838 22.871 120.95C22.6096 121.062 22.297 121.118 21.933 121.118C21.4756 121.118 21.1163 120.987 20.855 120.726C20.5936 120.465 20.463 120.11 20.463 119.662V114.762H19.273V119.522C19.273 119.914 19.3103 120.273 19.385 120.6C19.469 120.917 19.609 121.193 19.805 121.426C20.001 121.659 20.2576 121.841 20.575 121.972C20.8923 122.093 21.289 122.154 21.765 122.154C22.297 122.154 22.759 122.051 23.151 121.846C23.543 121.631 23.865 121.3 24.117 120.852H24.145V122H25.265ZM33.4643 121.972C33.2589 122.093 32.9743 122.154 32.6103 122.154C32.3023 122.154 32.0549 122.07 31.8683 121.902C31.6909 121.725 31.6023 121.44 31.6023 121.048C31.2756 121.44 30.8929 121.725 30.4543 121.902C30.0249 122.07 29.5583 122.154 29.0543 122.154C28.7276 122.154 28.4149 122.117 28.1163 122.042C27.8269 121.967 27.5749 121.851 27.3603 121.692C27.1456 121.533 26.9729 121.328 26.8423 121.076C26.7209 120.815 26.6603 120.502 26.6603 120.138C26.6603 119.727 26.7303 119.391 26.8703 119.13C27.0103 118.869 27.1923 118.659 27.4163 118.5C27.6496 118.332 27.9109 118.206 28.2003 118.122C28.4989 118.038 28.8023 117.968 29.1103 117.912C29.4369 117.847 29.7449 117.8 30.0343 117.772C30.3329 117.735 30.5943 117.688 30.8183 117.632C31.0423 117.567 31.2196 117.478 31.3503 117.366C31.4809 117.245 31.5463 117.072 31.5463 116.848C31.5463 116.587 31.4949 116.377 31.3923 116.218C31.2989 116.059 31.1729 115.938 31.0143 115.854C30.8649 115.77 30.6923 115.714 30.4963 115.686C30.3096 115.658 30.1229 115.644 29.9363 115.644C29.4323 115.644 29.0123 115.742 28.6763 115.938C28.3403 116.125 28.1583 116.484 28.1303 117.016H26.9403C26.9589 116.568 27.0523 116.19 27.2203 115.882C27.3883 115.574 27.6123 115.327 27.8923 115.14C28.1723 114.944 28.4896 114.804 28.8443 114.72C29.2083 114.636 29.5956 114.594 30.0063 114.594C30.3329 114.594 30.6549 114.617 30.9723 114.664C31.2989 114.711 31.5929 114.809 31.8543 114.958C32.1156 115.098 32.3256 115.299 32.4843 115.56C32.6429 115.821 32.7223 116.162 32.7223 116.582V120.306C32.7223 120.586 32.7363 120.791 32.7643 120.922C32.8016 121.053 32.9136 121.118 33.1003 121.118C33.2029 121.118 33.3243 121.095 33.4643 121.048V121.972ZM31.5323 118.262C31.3829 118.374 31.1869 118.458 30.9443 118.514C30.7016 118.561 30.4449 118.603 30.1743 118.64C29.9129 118.668 29.6469 118.705 29.3763 118.752C29.1056 118.789 28.8629 118.855 28.6483 118.948C28.4336 119.041 28.2563 119.177 28.1163 119.354C27.9856 119.522 27.9203 119.755 27.9203 120.054C27.9203 120.25 27.9576 120.418 28.0323 120.558C28.1163 120.689 28.2189 120.796 28.3403 120.88C28.4709 120.964 28.6203 121.025 28.7883 121.062C28.9563 121.099 29.1336 121.118 29.3203 121.118C29.7123 121.118 30.0483 121.067 30.3283 120.964C30.6083 120.852 30.8369 120.717 31.0143 120.558C31.1916 120.39 31.3223 120.213 31.4063 120.026C31.4903 119.83 31.5323 119.648 31.5323 119.48V118.262Z" fill="#666666"/>
<path d="M973.711 120.754L974.061 122H974.901V116.736H970.519V117.856H973.711C973.729 118.313 973.669 118.743 973.529 119.144C973.389 119.536 973.179 119.881 972.899 120.18C972.628 120.469 972.292 120.698 971.891 120.866C971.489 121.034 971.027 121.118 970.505 121.118C969.945 121.118 969.45 121.011 969.021 120.796C968.601 120.572 968.246 120.278 967.957 119.914C967.667 119.541 967.448 119.116 967.299 118.64C967.149 118.155 967.075 117.651 967.075 117.128C967.075 116.596 967.14 116.078 967.271 115.574C967.401 115.061 967.602 114.608 967.873 114.216C968.153 113.815 968.507 113.493 968.937 113.25C969.375 113.007 969.898 112.886 970.505 112.886C970.878 112.886 971.228 112.933 971.555 113.026C971.891 113.11 972.189 113.241 972.451 113.418C972.712 113.595 972.931 113.824 973.109 114.104C973.286 114.375 973.407 114.701 973.473 115.084H974.803C974.709 114.496 974.532 113.997 974.271 113.586C974.019 113.166 973.701 112.821 973.319 112.55C972.945 112.279 972.516 112.083 972.031 111.962C971.555 111.831 971.046 111.766 970.505 111.766C969.711 111.766 969.016 111.915 968.419 112.214C967.831 112.503 967.336 112.895 966.935 113.39C966.543 113.885 966.244 114.463 966.039 115.126C965.843 115.779 965.745 116.47 965.745 117.198C965.745 117.851 965.852 118.481 966.067 119.088C966.281 119.695 966.594 120.231 967.005 120.698C967.415 121.165 967.915 121.538 968.503 121.818C969.091 122.089 969.758 122.224 970.505 122.224C971.093 122.224 971.676 122.112 972.255 121.888C972.833 121.655 973.319 121.277 973.711 120.754ZM976.62 114.762V122H977.81V118.78C977.81 118.313 977.856 117.903 977.95 117.548C978.043 117.184 978.192 116.876 978.398 116.624C978.603 116.372 978.874 116.181 979.21 116.05C979.546 115.919 979.952 115.854 980.428 115.854V114.594C979.784 114.575 979.252 114.706 978.832 114.986C978.412 115.266 978.057 115.7 977.768 116.288H977.74V114.762H976.62ZM986.104 117.688H981.946C981.964 117.408 982.025 117.147 982.128 116.904C982.23 116.652 982.37 116.433 982.548 116.246C982.725 116.059 982.935 115.915 983.178 115.812C983.43 115.7 983.71 115.644 984.018 115.644C984.316 115.644 984.587 115.7 984.83 115.812C985.082 115.915 985.296 116.059 985.474 116.246C985.66 116.423 985.805 116.638 985.908 116.89C986.02 117.142 986.085 117.408 986.104 117.688ZM987.252 119.704H986.076C985.973 120.18 985.758 120.535 985.432 120.768C985.114 121.001 984.704 121.118 984.2 121.118C983.808 121.118 983.467 121.053 983.178 120.922C982.888 120.791 982.65 120.619 982.464 120.404C982.277 120.18 982.142 119.928 982.058 119.648C981.974 119.359 981.936 119.055 981.946 118.738H987.364C987.382 118.299 987.34 117.837 987.238 117.352C987.144 116.867 986.967 116.419 986.706 116.008C986.454 115.597 986.113 115.261 985.684 115C985.264 114.729 984.732 114.594 984.088 114.594C983.593 114.594 983.136 114.687 982.716 114.874C982.305 115.061 981.946 115.322 981.638 115.658C981.339 115.994 981.106 116.391 980.938 116.848C980.77 117.305 980.686 117.809 980.686 118.36C980.704 118.911 980.784 119.419 980.924 119.886C981.073 120.353 981.292 120.754 981.582 121.09C981.871 121.426 982.226 121.687 982.646 121.874C983.075 122.061 983.579 122.154 984.158 122.154C984.979 122.154 985.66 121.949 986.202 121.538C986.743 121.127 987.093 120.516 987.252 119.704ZM993.623 117.688H989.465C989.484 117.408 989.545 117.147 989.647 116.904C989.75 116.652 989.89 116.433 990.067 116.246C990.245 116.059 990.455 115.915 990.697 115.812C990.949 115.7 991.229 115.644 991.537 115.644C991.836 115.644 992.107 115.7 992.349 115.812C992.601 115.915 992.816 116.059 992.993 116.246C993.18 116.423 993.325 116.638 993.427 116.89C993.539 117.142 993.605 117.408 993.623 117.688ZM994.771 119.704H993.595C993.493 120.18 993.278 120.535 992.951 120.768C992.634 121.001 992.223 121.118 991.719 121.118C991.327 121.118 990.987 121.053 990.697 120.922C990.408 120.791 990.17 120.619 989.983 120.404C989.797 120.18 989.661 119.928 989.577 119.648C989.493 119.359 989.456 119.055 989.465 118.738H994.883C994.902 118.299 994.86 117.837 994.757 117.352C994.664 116.867 994.487 116.419 994.225 116.008C993.973 115.597 993.633 115.261 993.203 115C992.783 114.729 992.251 114.594 991.607 114.594C991.113 114.594 990.655 114.687 990.235 114.874C989.825 115.061 989.465 115.322 989.157 115.658C988.859 115.994 988.625 116.391 988.457 116.848C988.289 117.305 988.205 117.809 988.205 118.36C988.224 118.911 988.303 119.419 988.443 119.886C988.593 120.353 988.812 120.754 989.101 121.09C989.391 121.426 989.745 121.687 990.165 121.874C990.595 122.061 991.099 122.154 991.677 122.154C992.499 122.154 993.18 121.949 993.721 121.538C994.263 121.127 994.613 120.516 994.771 119.704ZM996.117 114.762V122H997.307V117.912C997.307 117.585 997.349 117.287 997.433 117.016C997.526 116.736 997.661 116.493 997.839 116.288C998.016 116.083 998.235 115.924 998.497 115.812C998.767 115.7 999.085 115.644 999.449 115.644C999.906 115.644 1000.27 115.775 1000.53 116.036C1000.79 116.297 1000.92 116.652 1000.92 117.1V122H1002.11V117.24C1002.11 116.848 1002.07 116.493 1001.98 116.176C1001.91 115.849 1001.77 115.569 1001.58 115.336C1001.38 115.103 1001.12 114.921 1000.81 114.79C1000.49 114.659 1000.09 114.594 999.617 114.594C998.543 114.594 997.759 115.033 997.265 115.91H997.237V114.762H996.117Z" fill="#666666"/>
</svg>
