<svg width="92" height="120" viewBox="0 0 92 120" fill="none" xmlns="http://www.w3.org/2000/svg">
<path d="M79.3348 101.142V102.262H83.3808V101.142H79.3348ZM90.6562 96.8862V95.8362H85.7562L84.8322 100.988L85.8542 101.044C86.0875 100.764 86.3535 100.54 86.6522 100.372C86.9602 100.195 87.3102 100.106 87.7022 100.106C88.0382 100.106 88.3415 100.162 88.6122 100.274C88.8922 100.386 89.1302 100.545 89.3262 100.75C89.5222 100.946 89.6715 101.184 89.7742 101.464C89.8862 101.735 89.9422 102.034 89.9422 102.36C89.9422 102.752 89.8862 103.098 89.7742 103.396C89.6622 103.686 89.5082 103.928 89.3122 104.124C89.1255 104.32 88.9015 104.47 88.6402 104.572C88.3882 104.666 88.1222 104.712 87.8422 104.712C87.5435 104.712 87.2682 104.67 87.0162 104.586C86.7735 104.493 86.5588 104.367 86.3722 104.208C86.1948 104.04 86.0502 103.849 85.9382 103.634C85.8355 103.41 85.7748 103.172 85.7562 102.92H84.5662C84.5755 103.368 84.6642 103.77 84.8322 104.124C85.0002 104.479 85.2288 104.778 85.5182 105.02C85.8075 105.254 86.1388 105.436 86.5122 105.566C86.8948 105.688 87.3008 105.748 87.7302 105.748C88.3088 105.748 88.8128 105.66 89.2422 105.482C89.6808 105.296 90.0448 105.048 90.3342 104.74C90.6235 104.432 90.8382 104.082 90.9782 103.69C91.1275 103.289 91.2022 102.878 91.2022 102.458C91.2022 101.889 91.1182 101.394 90.9502 100.974C90.7822 100.545 90.5535 100.19 90.2642 99.9102C89.9748 99.6209 89.6342 99.4062 89.2422 99.2662C88.8502 99.1262 88.4348 99.0562 87.9962 99.0562C87.6602 99.0562 87.3195 99.1169 86.9742 99.2382C86.6382 99.3502 86.3628 99.5276 86.1482 99.7702L86.1202 99.7422L86.6522 96.8862H90.6562Z" fill="#666666"/>
<path d="M85.9242 60.2082C85.9242 59.9656 85.9242 59.6996 85.9242 59.4102C85.9335 59.1116 85.9568 58.8176 85.9942 58.5282C86.0408 58.2296 86.1015 57.9402 86.1762 57.6602C86.2602 57.3802 86.3768 57.1376 86.5262 56.9322C86.6848 56.7176 86.8808 56.5449 87.1142 56.4142C87.3475 56.2836 87.6322 56.2182 87.9682 56.2182C88.3042 56.2182 88.5888 56.2836 88.8222 56.4142C89.0555 56.5449 89.2468 56.7176 89.3962 56.9322C89.5548 57.1376 89.6715 57.3802 89.7462 57.6602C89.8302 57.9402 89.8908 58.2296 89.9282 58.5282C89.9748 58.8176 89.9982 59.1116 89.9982 59.4102C90.0075 59.6996 90.0122 59.9656 90.0122 60.2082C90.0122 60.5816 89.9982 61.0016 89.9702 61.4682C89.9515 61.9256 89.8768 62.3596 89.7462 62.7702C89.6248 63.1716 89.4242 63.5122 89.1442 63.7922C88.8642 64.0722 88.4722 64.2122 87.9682 64.2122C87.4642 64.2122 87.0722 64.0722 86.7922 63.7922C86.5122 63.5122 86.3068 63.1716 86.1762 62.7702C86.0548 62.3596 85.9802 61.9256 85.9522 61.4682C85.9335 61.0016 85.9242 60.5816 85.9242 60.2082ZM84.6642 60.2222C84.6642 60.5862 84.6735 60.9642 84.6922 61.3562C84.7108 61.7482 84.7575 62.1309 84.8322 62.5042C84.9068 62.8776 85.0142 63.2322 85.1542 63.5682C85.2942 63.8949 85.4855 64.1842 85.7282 64.4362C85.9708 64.6882 86.2742 64.8889 86.6382 65.0382C87.0115 65.1782 87.4548 65.2482 87.9682 65.2482C88.4908 65.2482 88.9342 65.1782 89.2982 65.0382C89.6622 64.8889 89.9655 64.6882 90.2082 64.4362C90.4508 64.1842 90.6422 63.8949 90.7822 63.5682C90.9222 63.2322 91.0295 62.8776 91.1042 62.5042C91.1788 62.1309 91.2255 61.7482 91.2442 61.3562C91.2628 60.9642 91.2722 60.5862 91.2722 60.2222C91.2722 59.8582 91.2628 59.4802 91.2442 59.0882C91.2255 58.6962 91.1788 58.3136 91.1042 57.9402C91.0295 57.5669 90.9222 57.2122 90.7822 56.8762C90.6422 56.5402 90.4508 56.2462 90.2082 55.9942C89.9655 55.7422 89.6575 55.5416 89.2842 55.3922C88.9202 55.2429 88.4815 55.1682 87.9682 55.1682C87.4548 55.1682 87.0115 55.2429 86.6382 55.3922C86.2742 55.5416 85.9708 55.7422 85.7282 55.9942C85.4855 56.2462 85.2942 56.5402 85.1542 56.8762C85.0142 57.2122 84.9068 57.5669 84.8322 57.9402C84.7575 58.3136 84.7108 58.6962 84.6922 59.0882C84.6735 59.4802 84.6642 59.8582 84.6642 60.2222Z" fill="#666666"/>
<path d="M80.3576 17.982V14.916H79.4056V17.982H76.3536V18.934H79.4056V22H80.3576V18.934H83.4096V17.982H80.3576ZM90.6562 13.292V12.242H85.7562L84.8322 17.394L85.8542 17.45C86.0875 17.17 86.3535 16.946 86.6522 16.778C86.9602 16.6007 87.3102 16.512 87.7022 16.512C88.0382 16.512 88.3415 16.568 88.6122 16.68C88.8922 16.792 89.1302 16.9507 89.3262 17.156C89.5222 17.352 89.6715 17.59 89.7742 17.87C89.8862 18.1407 89.9422 18.4393 89.9422 18.766C89.9422 19.158 89.8862 19.5033 89.7742 19.802C89.6622 20.0913 89.5082 20.334 89.3122 20.53C89.1255 20.726 88.9015 20.8753 88.6402 20.978C88.3882 21.0713 88.1222 21.118 87.8422 21.118C87.5435 21.118 87.2682 21.076 87.0162 20.992C86.7735 20.8987 86.5588 20.7727 86.3722 20.614C86.1948 20.446 86.0502 20.2547 85.9382 20.04C85.8355 19.816 85.7748 19.578 85.7562 19.326H84.5662C84.5755 19.774 84.6642 20.1753 84.8322 20.53C85.0002 20.8847 85.2288 21.1833 85.5182 21.426C85.8075 21.6593 86.1388 21.8413 86.5122 21.972C86.8948 22.0933 87.3008 22.154 87.7302 22.154C88.3088 22.154 88.8128 22.0653 89.2422 21.888C89.6808 21.7013 90.0448 21.454 90.3342 21.146C90.6235 20.838 90.8382 20.488 90.9782 20.096C91.1275 19.6947 91.2022 19.284 91.2022 18.864C91.2022 18.2947 91.1182 17.8 90.9502 17.38C90.7822 16.9507 90.5535 16.596 90.2642 16.316C89.9748 16.0267 89.6342 15.812 89.2422 15.672C88.8502 15.532 88.4348 15.462 87.9962 15.462C87.6602 15.462 87.3195 15.5227 86.9742 15.644C86.6382 15.756 86.3628 15.9333 86.1482 16.176L86.1202 16.148L86.6522 13.292H90.6562Z" fill="#666666"/>
<rect width="39.191" height="39.191" rx="4" transform="matrix(0.866044 -0.499967 0.866044 0.499967 0.414062 99.5942)" fill="#E9EBFF"/>
<rect width="39.191" height="39.191" rx="4" transform="matrix(0.866044 -0.499967 0.866044 0.499967 0.414062 91.5942)" fill="#B7C6FF"/>
<rect width="39.191" height="39.191" rx="4" transform="matrix(0.866044 -0.499967 0.866044 0.499967 0.414062 83.5942)" fill="#748EFF"/>
<rect x="0.866044" width="38.191" height="38.191" rx="3.5" transform="matrix(0.866044 -0.499967 0.866044 0.499967 0.530074 76.0272)" fill="#445CF2" stroke="#5772FF"/>
<rect x="0.866044" width="38.191" height="38.191" rx="3.5" transform="matrix(0.866044 -0.499967 0.866044 0.499967 0.530074 68.0272)" fill="#232FCF" stroke="#5772FF"/>
<rect x="0.866044" width="38.191" height="38.191" rx="3.5" transform="matrix(0.866044 -0.499967 0.866044 0.499967 0.530074 60.0272)" fill="#11118A" stroke="#5772FF"/>
<rect x="0.866044" width="38.191" height="38.191" rx="3.5" transform="matrix(0.866044 -0.499967 0.866044 0.499967 0.530074 52.0272)" fill="#6F3500" stroke="#D14E00"/>
<rect x="0.866044" width="38.191" height="38.191" rx="3.5" transform="matrix(0.866044 -0.499967 0.866044 0.499967 0.530074 44.0272)" fill="#B24800" stroke="#D14E00"/>
<rect width="39.191" height="39.191" rx="4" transform="matrix(0.866044 -0.499967 0.866044 0.499967 0.414062 35.5942)" fill="#E17223"/>
<rect width="39.191" height="39.191" rx="4" transform="matrix(0.866044 -0.499967 0.866044 0.499967 0.414062 27.5942)" fill="#F3C291"/>
<rect width="39.191" height="39.191" rx="4" transform="matrix(0.866044 -0.499967 0.866044 0.499967 0.414062 19.5942)" fill="#FAE8D1"/>
</svg>
