<svg width="412" height="80" viewBox="0 0 412 80" fill="none" xmlns="http://www.w3.org/2000/svg">
<path d="M383.533 55.5982V65.5942H390.155V64.4742H384.863V55.5982H383.533ZM391.985 61.9822C391.985 61.5436 392.041 61.1562 392.153 60.8202C392.274 60.4749 392.437 60.1856 392.643 59.9522C392.848 59.7189 393.086 59.5416 393.357 59.4202C393.637 59.2989 393.931 59.2382 394.239 59.2382C394.547 59.2382 394.836 59.2989 395.107 59.4202C395.387 59.5416 395.629 59.7189 395.835 59.9522C396.04 60.1856 396.199 60.4749 396.311 60.8202C396.432 61.1562 396.493 61.5436 396.493 61.9822C396.493 62.4209 396.432 62.8129 396.311 63.1582C396.199 63.4942 396.04 63.7789 395.835 64.0122C395.629 64.2362 395.387 64.4089 395.107 64.5302C394.836 64.6516 394.547 64.7122 394.239 64.7122C393.931 64.7122 393.637 64.6516 393.357 64.5302C393.086 64.4089 392.848 64.2362 392.643 64.0122C392.437 63.7789 392.274 63.4942 392.153 63.1582C392.041 62.8129 391.985 62.4209 391.985 61.9822ZM390.725 61.9822C390.725 62.5142 390.799 63.0089 390.949 63.4662C391.098 63.9236 391.322 64.3249 391.621 64.6702C391.919 65.0062 392.288 65.2722 392.727 65.4682C393.165 65.6549 393.669 65.7482 394.239 65.7482C394.817 65.7482 395.321 65.6549 395.751 65.4682C396.189 65.2722 396.558 65.0062 396.857 64.6702C397.155 64.3249 397.379 63.9236 397.529 63.4662C397.678 63.0089 397.753 62.5142 397.753 61.9822C397.753 61.4502 397.678 60.9556 397.529 60.4982C397.379 60.0316 397.155 59.6302 396.857 59.2942C396.558 58.9489 396.189 58.6782 395.751 58.4822C395.321 58.2862 394.817 58.1882 394.239 58.1882C393.669 58.1882 393.165 58.2862 392.727 58.4822C392.288 58.6782 391.919 58.9489 391.621 59.2942C391.322 59.6302 391.098 60.0316 390.949 60.4982C390.799 60.9556 390.725 61.4502 390.725 61.9822ZM406.324 65.5942L408.634 58.3562H407.402L405.778 64.2782H405.75L404.238 58.3562H402.936L401.48 64.2782H401.452L399.814 58.3562H398.498L400.822 65.5942H402.11L403.566 59.8402H403.594L405.064 65.5942H406.324Z" fill="#666666"/>
<path d="M383.092 11.004V21H384.422V16.422H389.686V21H391.016V11.004H389.686V15.302H384.422V11.004H383.092ZM394.26 12.46V11.004H393.07V12.46H394.26ZM393.07 13.762V21H394.26V13.762H393.07ZM402.347 20.384V13.762H401.227V14.798H401.213C400.998 14.3967 400.7 14.098 400.317 13.902C399.934 13.6967 399.514 13.594 399.057 13.594C398.432 13.594 397.904 13.7153 397.475 13.958C397.046 14.1913 396.7 14.4947 396.439 14.868C396.178 15.232 395.991 15.6427 395.879 16.1C395.767 16.548 395.711 16.9867 395.711 17.416C395.711 17.9107 395.776 18.382 395.907 18.83C396.047 19.2687 396.252 19.656 396.523 19.992C396.794 20.3187 397.13 20.58 397.531 20.776C397.932 20.972 398.404 21.07 398.945 21.07C399.412 21.07 399.85 20.9673 400.261 20.762C400.681 20.5473 400.994 20.216 401.199 19.768H401.227V20.244C401.227 20.6453 401.185 21.014 401.101 21.35C401.026 21.686 400.9 21.9707 400.723 22.204C400.546 22.4467 400.322 22.6333 400.051 22.764C399.78 22.904 399.449 22.974 399.057 22.974C398.861 22.974 398.656 22.9507 398.441 22.904C398.226 22.8667 398.026 22.8013 397.839 22.708C397.662 22.6147 397.508 22.4933 397.377 22.344C397.256 22.1947 397.19 22.0127 397.181 21.798H395.991C396.01 22.19 396.112 22.5213 396.299 22.792C396.486 23.0627 396.719 23.282 396.999 23.45C397.288 23.618 397.606 23.7393 397.951 23.814C398.306 23.8887 398.651 23.926 398.987 23.926C400.144 23.926 400.994 23.632 401.535 23.044C402.076 22.456 402.347 21.5693 402.347 20.384ZM399.015 20.034C398.623 20.034 398.296 19.9547 398.035 19.796C397.774 19.628 397.564 19.4133 397.405 19.152C397.246 18.8813 397.134 18.5827 397.069 18.256C397.004 17.9293 396.971 17.6027 396.971 17.276C396.971 16.9307 397.008 16.5993 397.083 16.282C397.167 15.9647 397.293 15.6847 397.461 15.442C397.638 15.1993 397.862 15.008 398.133 14.868C398.404 14.7187 398.73 14.644 399.113 14.644C399.486 14.644 399.804 14.7187 400.065 14.868C400.326 15.0173 400.536 15.218 400.695 15.47C400.863 15.7127 400.984 15.988 401.059 16.296C401.134 16.604 401.171 16.9167 401.171 17.234C401.171 17.57 401.129 17.906 401.045 18.242C400.97 18.578 400.849 18.8813 400.681 19.152C400.513 19.4133 400.289 19.628 400.009 19.796C399.738 19.9547 399.407 20.034 399.015 20.034ZM404.142 11.004V21H405.332V16.912C405.332 16.5853 405.374 16.2867 405.458 16.016C405.551 15.736 405.687 15.4933 405.864 15.288C406.041 15.0827 406.261 14.924 406.522 14.812C406.793 14.7 407.11 14.644 407.474 14.644C407.931 14.644 408.291 14.7747 408.552 15.036C408.813 15.2973 408.944 15.652 408.944 16.1V21H410.134V16.24C410.134 15.848 410.092 15.4933 410.008 15.176C409.933 14.8493 409.798 14.5693 409.602 14.336C409.406 14.1027 409.149 13.9207 408.832 13.79C408.515 13.6593 408.118 13.594 407.642 13.594C407.427 13.594 407.203 13.6173 406.97 13.664C406.746 13.7107 406.527 13.7853 406.312 13.888C406.107 13.9813 405.92 14.1073 405.752 14.266C405.584 14.4153 405.453 14.602 405.36 14.826H405.332V11.004H404.142Z" fill="#666666"/>
<rect width="39.191" height="39.191" rx="4" transform="matrix(0.866044 -0.499967 0.866044 0.499967 305 59.5942)" fill="#0094B6"/>
<rect width="39.191" height="39.191" rx="4" transform="matrix(0.866044 -0.499967 0.866044 0.499967 305 51.5942)" fill="#0BB6C6"/>
<rect width="39.191" height="39.191" rx="4" transform="matrix(0.866044 -0.499967 0.866044 0.499967 305 43.5942)" fill="#25D2D2"/>
<rect width="39.191" height="39.191" rx="4" transform="matrix(0.866044 -0.499967 0.866044 0.499967 305 35.5942)" fill="#5EEBDF"/>
<rect width="39.191" height="39.191" rx="4" transform="matrix(0.866044 -0.499967 0.866044 0.499967 305 27.5942)" fill="#93FAE7"/>
<rect width="39.191" height="39.191" rx="4" transform="matrix(0.866044 -0.499967 0.866044 0.499967 305 19.5942)" fill="#B8FFF2"/>
<rect width="39.191" height="39.191" rx="4" transform="matrix(0.866044 -0.499967 0.866044 0.499967 228 59.5942)" fill="#D14E00"/>
<rect width="39.191" height="39.191" rx="4" transform="matrix(0.866044 -0.499967 0.866044 0.499967 228 51.5942)" fill="#E17223"/>
<rect width="39.191" height="39.191" rx="4" transform="matrix(0.866044 -0.499967 0.866044 0.499967 228 43.5942)" fill="#EB9A5C"/>
<rect width="39.191" height="39.191" rx="4" transform="matrix(0.866044 -0.499967 0.866044 0.499967 228 35.5942)" fill="#F3C291"/>
<rect width="39.191" height="39.191" rx="4" transform="matrix(0.866044 -0.499967 0.866044 0.499967 228 27.5942)" fill="#F7D8B5"/>
<rect width="39.191" height="39.191" rx="4" transform="matrix(0.866044 -0.499967 0.866044 0.499967 228 19.5942)" fill="#FAE8D1"/>
<rect width="39.191" height="39.191" rx="4" transform="matrix(0.866044 -0.499967 0.866044 0.499967 152 59.5942)" fill="#5772FF"/>
<rect width="39.191" height="39.191" rx="4" transform="matrix(0.866044 -0.499967 0.866044 0.499967 152 51.5942)" fill="#748EFF"/>
<rect width="39.191" height="39.191" rx="4" transform="matrix(0.866044 -0.499967 0.866044 0.499967 152 43.5942)" fill="#97ACFF"/>
<rect width="39.191" height="39.191" rx="4" transform="matrix(0.866044 -0.499967 0.866044 0.499967 152 35.5942)" fill="#B7C6FF"/>
<rect width="39.191" height="39.191" rx="4" transform="matrix(0.866044 -0.499967 0.866044 0.499967 152 27.5942)" fill="#D4DCFA"/>
<rect width="39.191" height="39.191" rx="4" transform="matrix(0.866044 -0.499967 0.866044 0.499967 152 19.5942)" fill="#E9EBFF"/>
<rect width="39.191" height="39.191" rx="4" transform="matrix(0.866044 -0.499967 0.866044 0.499967 76 59.5942)" fill="#D84280"/>
<rect width="39.191" height="39.191" rx="4" transform="matrix(0.866044 -0.499967 0.866044 0.499967 76 51.5942)" fill="#F2639A"/>
<rect width="39.191" height="39.191" rx="4" transform="matrix(0.866044 -0.499967 0.866044 0.499967 76 43.5942)" fill="#FF85AF"/>
<rect width="39.191" height="39.191" rx="4" transform="matrix(0.866044 -0.499967 0.866044 0.499967 76 35.5942)" fill="#FCACC5"/>
<rect width="39.191" height="39.191" rx="4" transform="matrix(0.866044 -0.499967 0.866044 0.499967 76 27.5942)" fill="#FFC9D9"/>
<rect width="39.191" height="39.191" rx="4" transform="matrix(0.866044 -0.499967 0.866044 0.499967 76 19.5942)" fill="#FFE3EB"/>
<rect width="39.191" height="39.191" rx="4" transform="matrix(0.866044 -0.499967 0.866044 0.499967 0 59.5942)" fill="#608B2F"/>
<rect width="39.191" height="39.191" rx="4" transform="matrix(0.866044 -0.499967 0.866044 0.499967 0 51.5942)" fill="#83AB4A"/>
<rect width="39.191" height="39.191" rx="4" transform="matrix(0.866044 -0.499967 0.866044 0.499967 0 43.5942)" fill="#94C25E"/>
<rect width="39.191" height="39.191" rx="4" transform="matrix(0.866044 -0.499967 0.866044 0.499967 0 35.5942)" fill="#B0DE73"/>
<rect width="39.191" height="39.191" rx="4" transform="matrix(0.866044 -0.499967 0.866044 0.499967 0 27.5942)" fill="#C9F097"/>
<rect width="39.191" height="39.191" rx="4" transform="matrix(0.866044 -0.499967 0.866044 0.499967 0 19.5942)" fill="#DDFAB7"/>
</svg>
