<svg width="411" height="80" viewBox="0 0 411 80" fill="none" xmlns="http://www.w3.org/2000/svg">
<rect width="39.191" height="39.191" rx="4" transform="matrix(0.866044 -0.499967 0.866044 0.499967 152 59.5942)" fill="#5772FF"/>
<rect width="39.191" height="39.191" rx="4" transform="matrix(0.866044 -0.499967 0.866044 0.499967 152 51.5942)" fill="#445CF2"/>
<rect width="39.191" height="39.191" rx="4" transform="matrix(0.866044 -0.499967 0.866044 0.499967 152 43.5942)" fill="#3547DE"/>
<rect width="39.191" height="39.191" rx="4" transform="matrix(0.866044 -0.499967 0.866044 0.499967 152 35.5942)" fill="#232FCF"/>
<rect width="39.191" height="39.191" rx="4" transform="matrix(0.866044 -0.499967 0.866044 0.499967 152 27.5942)" fill="#1E23A8"/>
<rect width="39.191" height="39.191" rx="4" transform="matrix(0.866044 -0.499967 0.866044 0.499967 152 19.5942)" fill="#11118A"/>
<rect width="39.191" height="39.191" rx="4" transform="matrix(0.866044 -0.499967 0.866044 0.499967 76 59.5942)" fill="#D84280"/>
<rect width="39.191" height="39.191" rx="4" transform="matrix(0.866044 -0.499967 0.866044 0.499967 76 51.5942)" fill="#C52C6B"/>
<rect width="39.191" height="39.191" rx="4" transform="matrix(0.866044 -0.499967 0.866044 0.499967 76 43.5942)" fill="#B31756"/>
<rect width="39.191" height="39.191" rx="4" transform="matrix(0.866044 -0.499967 0.866044 0.499967 76 35.5942)" fill="#950943"/>
<rect width="39.191" height="39.191" rx="4" transform="matrix(0.866044 -0.499967 0.866044 0.499967 76 27.5942)" fill="#7A0033"/>
<rect width="39.191" height="39.191" rx="4" transform="matrix(0.866044 -0.499967 0.866044 0.499967 76 19.5942)" fill="#570028"/>
<rect width="39.191" height="39.191" rx="4" transform="matrix(0.866044 -0.499967 0.866044 0.499967 0 59.5942)" fill="#608B2F"/>
<rect width="39.191" height="39.191" rx="4" transform="matrix(0.866044 -0.499967 0.866044 0.499967 0 51.5942)" fill="#487900"/>
<rect width="39.191" height="39.191" rx="4" transform="matrix(0.866044 -0.499967 0.866044 0.499967 0 43.5942)" fill="#366800"/>
<rect width="39.191" height="39.191" rx="4" transform="matrix(0.866044 -0.499967 0.866044 0.499967 0 35.5942)" fill="#275600"/>
<rect width="39.191" height="39.191" rx="4" transform="matrix(0.866044 -0.499967 0.866044 0.499967 0 27.5942)" fill="#1A4500"/>
<rect width="39.191" height="39.191" rx="4" transform="matrix(0.866044 -0.499967 0.866044 0.499967 0 19.5942)" fill="#0F3300"/>
<path d="M382.533 55.5982V65.5942H389.155V64.4742H383.863V55.5982H382.533ZM390.985 61.9822C390.985 61.5436 391.041 61.1562 391.153 60.8202C391.274 60.4749 391.437 60.1856 391.643 59.9522C391.848 59.7189 392.086 59.5416 392.357 59.4202C392.637 59.2989 392.931 59.2382 393.239 59.2382C393.547 59.2382 393.836 59.2989 394.107 59.4202C394.387 59.5416 394.629 59.7189 394.835 59.9522C395.04 60.1856 395.199 60.4749 395.311 60.8202C395.432 61.1562 395.493 61.5436 395.493 61.9822C395.493 62.4209 395.432 62.8129 395.311 63.1582C395.199 63.4942 395.04 63.7789 394.835 64.0122C394.629 64.2362 394.387 64.4089 394.107 64.5302C393.836 64.6516 393.547 64.7122 393.239 64.7122C392.931 64.7122 392.637 64.6516 392.357 64.5302C392.086 64.4089 391.848 64.2362 391.643 64.0122C391.437 63.7789 391.274 63.4942 391.153 63.1582C391.041 62.8129 390.985 62.4209 390.985 61.9822ZM389.725 61.9822C389.725 62.5142 389.799 63.0089 389.949 63.4662C390.098 63.9236 390.322 64.3249 390.621 64.6702C390.919 65.0062 391.288 65.2722 391.727 65.4682C392.165 65.6549 392.669 65.7482 393.239 65.7482C393.817 65.7482 394.321 65.6549 394.751 65.4682C395.189 65.2722 395.558 65.0062 395.857 64.6702C396.155 64.3249 396.379 63.9236 396.529 63.4662C396.678 63.0089 396.753 62.5142 396.753 61.9822C396.753 61.4502 396.678 60.9556 396.529 60.4982C396.379 60.0316 396.155 59.6302 395.857 59.2942C395.558 58.9489 395.189 58.6782 394.751 58.4822C394.321 58.2862 393.817 58.1882 393.239 58.1882C392.669 58.1882 392.165 58.2862 391.727 58.4822C391.288 58.6782 390.919 58.9489 390.621 59.2942C390.322 59.6302 390.098 60.0316 389.949 60.4982C389.799 60.9556 389.725 61.4502 389.725 61.9822ZM405.324 65.5942L407.634 58.3562H406.402L404.778 64.2782H404.75L403.238 58.3562H401.936L400.48 64.2782H400.452L398.814 58.3562H397.498L399.822 65.5942H401.11L402.566 59.8402H402.594L404.064 65.5942H405.324Z" fill="#666666"/>
<path d="M382.092 11.004V21H383.422V16.422H388.686V21H390.016V11.004H388.686V15.302H383.422V11.004H382.092ZM393.26 12.46V11.004H392.07V12.46H393.26ZM392.07 13.762V21H393.26V13.762H392.07ZM401.347 20.384V13.762H400.227V14.798H400.213C399.998 14.3967 399.7 14.098 399.317 13.902C398.934 13.6967 398.514 13.594 398.057 13.594C397.432 13.594 396.904 13.7153 396.475 13.958C396.046 14.1913 395.7 14.4947 395.439 14.868C395.178 15.232 394.991 15.6427 394.879 16.1C394.767 16.548 394.711 16.9867 394.711 17.416C394.711 17.9107 394.776 18.382 394.907 18.83C395.047 19.2687 395.252 19.656 395.523 19.992C395.794 20.3187 396.13 20.58 396.531 20.776C396.932 20.972 397.404 21.07 397.945 21.07C398.412 21.07 398.85 20.9673 399.261 20.762C399.681 20.5473 399.994 20.216 400.199 19.768H400.227V20.244C400.227 20.6453 400.185 21.014 400.101 21.35C400.026 21.686 399.9 21.9707 399.723 22.204C399.546 22.4467 399.322 22.6333 399.051 22.764C398.78 22.904 398.449 22.974 398.057 22.974C397.861 22.974 397.656 22.9507 397.441 22.904C397.226 22.8667 397.026 22.8013 396.839 22.708C396.662 22.6147 396.508 22.4933 396.377 22.344C396.256 22.1947 396.19 22.0127 396.181 21.798H394.991C395.01 22.19 395.112 22.5213 395.299 22.792C395.486 23.0627 395.719 23.282 395.999 23.45C396.288 23.618 396.606 23.7393 396.951 23.814C397.306 23.8887 397.651 23.926 397.987 23.926C399.144 23.926 399.994 23.632 400.535 23.044C401.076 22.456 401.347 21.5693 401.347 20.384ZM398.015 20.034C397.623 20.034 397.296 19.9547 397.035 19.796C396.774 19.628 396.564 19.4133 396.405 19.152C396.246 18.8813 396.134 18.5827 396.069 18.256C396.004 17.9293 395.971 17.6027 395.971 17.276C395.971 16.9307 396.008 16.5993 396.083 16.282C396.167 15.9647 396.293 15.6847 396.461 15.442C396.638 15.1993 396.862 15.008 397.133 14.868C397.404 14.7187 397.73 14.644 398.113 14.644C398.486 14.644 398.804 14.7187 399.065 14.868C399.326 15.0173 399.536 15.218 399.695 15.47C399.863 15.7127 399.984 15.988 400.059 16.296C400.134 16.604 400.171 16.9167 400.171 17.234C400.171 17.57 400.129 17.906 400.045 18.242C399.97 18.578 399.849 18.8813 399.681 19.152C399.513 19.4133 399.289 19.628 399.009 19.796C398.738 19.9547 398.407 20.034 398.015 20.034ZM403.142 11.004V21H404.332V16.912C404.332 16.5853 404.374 16.2867 404.458 16.016C404.551 15.736 404.687 15.4933 404.864 15.288C405.041 15.0827 405.261 14.924 405.522 14.812C405.793 14.7 406.11 14.644 406.474 14.644C406.931 14.644 407.291 14.7747 407.552 15.036C407.813 15.2973 407.944 15.652 407.944 16.1V21H409.134V16.24C409.134 15.848 409.092 15.4933 409.008 15.176C408.933 14.8493 408.798 14.5693 408.602 14.336C408.406 14.1027 408.149 13.9207 407.832 13.79C407.515 13.6593 407.118 13.594 406.642 13.594C406.427 13.594 406.203 13.6173 405.97 13.664C405.746 13.7107 405.527 13.7853 405.312 13.888C405.107 13.9813 404.92 14.1073 404.752 14.266C404.584 14.4153 404.453 14.602 404.36 14.826H404.332V11.004H403.142Z" fill="#666666"/>
<rect width="39.191" height="39.191" rx="4" transform="matrix(0.866044 -0.499967 0.866044 0.499967 304 59.5942)" fill="#0094B6"/>
<rect width="39.191" height="39.191" rx="4" transform="matrix(0.866044 -0.499967 0.866044 0.499967 304 51.5942)" fill="#0080A1"/>
<rect width="39.191" height="39.191" rx="4" transform="matrix(0.866044 -0.499967 0.866044 0.499967 304 43.5942)" fill="#006887"/>
<rect width="39.191" height="39.191" rx="4" transform="matrix(0.866044 -0.499967 0.866044 0.499967 304 35.5942)" fill="#004D67"/>
<rect width="39.191" height="39.191" rx="4" transform="matrix(0.866044 -0.499967 0.866044 0.499967 304 27.5942)" fill="#003F57"/>
<rect width="39.191" height="39.191" rx="4" transform="matrix(0.866044 -0.499967 0.866044 0.499967 304 19.5942)" fill="#00293D"/>
<rect width="39.191" height="39.191" rx="4" transform="matrix(0.866044 -0.499967 0.866044 0.499967 228 59.5942)" fill="#D14E00"/>
<rect width="39.191" height="39.191" rx="4" transform="matrix(0.866044 -0.499967 0.866044 0.499967 228 51.5942)" fill="#B24800"/>
<rect width="39.191" height="39.191" rx="4" transform="matrix(0.866044 -0.499967 0.866044 0.499967 228 43.5942)" fill="#944100"/>
<rect width="39.191" height="39.191" rx="4" transform="matrix(0.866044 -0.499967 0.866044 0.499967 228 35.5942)" fill="#6F3500"/>
<rect width="39.191" height="39.191" rx="4" transform="matrix(0.866044 -0.499967 0.866044 0.499967 228 27.5942)" fill="#5C2B00"/>
<rect width="39.191" height="39.191" rx="4" transform="matrix(0.866044 -0.499967 0.866044 0.499967 228 19.5942)" fill="#421E00"/>
</svg>
