<svg width="485" height="40" viewBox="0 0 485 40" fill="none" xmlns="http://www.w3.org/2000/svg">
<rect width="80" height="40" fill="#5772FF"/>
<path d="M11 8.838V7.2H5.526L4.56 12.618H6.352C6.548 12.3473 6.758 12.1513 6.982 12.03C7.206 11.8993 7.49533 11.834 7.85 11.834C8.12067 11.834 8.35867 11.8807 8.564 11.974C8.76933 12.0673 8.94667 12.198 9.096 12.366C9.24533 12.534 9.35733 12.73 9.432 12.954C9.50667 13.178 9.544 13.416 9.544 13.668C9.544 13.9107 9.502 14.1487 9.418 14.382C9.34333 14.606 9.23133 14.8067 9.082 14.984C8.942 15.152 8.76467 15.292 8.55 15.404C8.34467 15.5067 8.11133 15.558 7.85 15.558C7.402 15.558 7.03333 15.4273 6.744 15.166C6.45467 14.8953 6.28667 14.536 6.24 14.088H4.252C4.26133 14.6013 4.364 15.054 4.56 15.446C4.76533 15.8287 5.036 16.1507 5.372 16.412C5.708 16.6733 6.09067 16.8693 6.52 17C6.95867 17.1213 7.416 17.182 7.892 17.182C8.38667 17.1913 8.85333 17.112 9.292 16.944C9.73067 16.7667 10.1133 16.5193 10.44 16.202C10.776 15.8847 11.042 15.5113 11.238 15.082C11.434 14.6433 11.532 14.172 11.532 13.668C11.532 13.2107 11.462 12.7813 11.322 12.38C11.1913 11.9693 10.9953 11.6147 10.734 11.316C10.482 11.0173 10.1693 10.7793 9.796 10.602C9.42267 10.4247 8.99333 10.336 8.508 10.336C8.116 10.336 7.766 10.3967 7.458 10.518C7.15 10.63 6.86067 10.8213 6.59 11.092L6.562 11.064L6.954 8.838H11ZM14.0613 12.058C14.0613 11.89 14.0613 11.6893 14.0613 11.456C14.0706 11.2133 14.0893 10.966 14.1173 10.714C14.1453 10.462 14.192 10.2147 14.2573 9.972C14.3226 9.72 14.4113 9.496 14.5233 9.3C14.6446 9.104 14.794 8.94533 14.9713 8.824C15.158 8.70267 15.3866 8.642 15.6573 8.642C15.928 8.642 16.1566 8.70267 16.3433 8.824C16.53 8.94533 16.684 9.104 16.8053 9.3C16.9266 9.496 17.0153 9.72 17.0713 9.972C17.1366 10.2147 17.1833 10.462 17.2113 10.714C17.2486 10.966 17.2673 11.2133 17.2673 11.456C17.2766 11.6893 17.2813 11.89 17.2813 12.058C17.2813 12.338 17.272 12.6787 17.2533 13.08C17.2346 13.472 17.174 13.8547 17.0713 14.228C16.978 14.592 16.8193 14.9047 16.5953 15.166C16.3806 15.4273 16.068 15.558 15.6573 15.558C15.256 15.558 14.948 15.4273 14.7333 15.166C14.5186 14.9047 14.36 14.592 14.2573 14.228C14.164 13.8547 14.108 13.472 14.0893 13.08C14.0706 12.6787 14.0613 12.338 14.0613 12.058ZM12.0733 12.058C12.0733 13.038 12.1666 13.8593 12.3533 14.522C12.5493 15.1753 12.8106 15.698 13.1373 16.09C13.464 16.482 13.842 16.762 14.2713 16.93C14.71 17.098 15.172 17.182 15.6573 17.182C16.152 17.182 16.614 17.098 17.0433 16.93C17.482 16.762 17.8646 16.482 18.1913 16.09C18.5273 15.698 18.7886 15.1753 18.9753 14.522C19.1713 13.8593 19.2693 13.038 19.2693 12.058C19.2693 11.106 19.1713 10.308 18.9753 9.664C18.7886 9.01067 18.5273 8.488 18.1913 8.096C17.8646 7.704 17.482 7.424 17.0433 7.256C16.614 7.088 16.152 7.004 15.6573 7.004C15.172 7.004 14.71 7.088 14.2713 7.256C13.842 7.424 13.464 7.704 13.1373 8.096C12.8106 8.488 12.5493 9.01067 12.3533 9.664C12.1666 10.308 12.0733 11.106 12.0733 12.058ZM21.8406 12.058C21.8406 11.89 21.8406 11.6893 21.8406 11.456C21.8499 11.2133 21.8686 10.966 21.8966 10.714C21.9246 10.462 21.9713 10.2147 22.0366 9.972C22.1019 9.72 22.1906 9.496 22.3026 9.3C22.4239 9.104 22.5733 8.94533 22.7506 8.824C22.9373 8.70267 23.1659 8.642 23.4366 8.642C23.7073 8.642 23.9359 8.70267 24.1226 8.824C24.3093 8.94533 24.4633 9.104 24.5846 9.3C24.7059 9.496 24.7946 9.72 24.8506 9.972C24.9159 10.2147 24.9626 10.462 24.9906 10.714C25.0279 10.966 25.0466 11.2133 25.0466 11.456C25.0559 11.6893 25.0606 11.89 25.0606 12.058C25.0606 12.338 25.0513 12.6787 25.0326 13.08C25.0139 13.472 24.9533 13.8547 24.8506 14.228C24.7573 14.592 24.5986 14.9047 24.3746 15.166C24.1599 15.4273 23.8473 15.558 23.4366 15.558C23.0353 15.558 22.7273 15.4273 22.5126 15.166C22.2979 14.9047 22.1393 14.592 22.0366 14.228C21.9433 13.8547 21.8873 13.472 21.8686 13.08C21.8499 12.6787 21.8406 12.338 21.8406 12.058ZM19.8526 12.058C19.8526 13.038 19.9459 13.8593 20.1326 14.522C20.3286 15.1753 20.5899 15.698 20.9166 16.09C21.2433 16.482 21.6213 16.762 22.0506 16.93C22.4893 17.098 22.9513 17.182 23.4366 17.182C23.9313 17.182 24.3933 17.098 24.8226 16.93C25.2613 16.762 25.6439 16.482 25.9706 16.09C26.3066 15.698 26.5679 15.1753 26.7546 14.522C26.9506 13.8593 27.0486 13.038 27.0486 12.058C27.0486 11.106 26.9506 10.308 26.7546 9.664C26.5679 9.01067 26.3066 8.488 25.9706 8.096C25.6439 7.704 25.2613 7.424 24.8226 7.256C24.3933 7.088 23.9313 7.004 23.4366 7.004C22.9513 7.004 22.4893 7.088 22.0506 7.256C21.6213 7.424 21.2433 7.704 20.9166 8.096C20.5899 8.488 20.3286 9.01067 20.1326 9.664C19.9459 10.308 19.8526 11.106 19.8526 12.058ZM4.936 24.432V33H10.612V32.04H6.076V24.432H4.936ZM12.18 29.904C12.18 29.528 12.228 29.196 12.324 28.908C12.428 28.612 12.568 28.364 12.744 28.164C12.92 27.964 13.124 27.812 13.356 27.708C13.596 27.604 13.848 27.552 14.112 27.552C14.376 27.552 14.624 27.604 14.856 27.708C15.096 27.812 15.304 27.964 15.48 28.164C15.656 28.364 15.792 28.612 15.888 28.908C15.992 29.196 16.044 29.528 16.044 29.904C16.044 30.28 15.992 30.616 15.888 30.912C15.792 31.2 15.656 31.444 15.48 31.644C15.304 31.836 15.096 31.984 14.856 32.088C14.624 32.192 14.376 32.244 14.112 32.244C13.848 32.244 13.596 32.192 13.356 32.088C13.124 31.984 12.92 31.836 12.744 31.644C12.568 31.444 12.428 31.2 12.324 30.912C12.228 30.616 12.18 30.28 12.18 29.904ZM11.1 29.904C11.1 30.36 11.164 30.784 11.292 31.176C11.42 31.568 11.612 31.912 11.868 32.208C12.124 32.496 12.44 32.724 12.816 32.892C13.192 33.052 13.624 33.132 14.112 33.132C14.608 33.132 15.04 33.052 15.408 32.892C15.784 32.724 16.1 32.496 16.356 32.208C16.612 31.912 16.804 31.568 16.932 31.176C17.06 30.784 17.124 30.36 17.124 29.904C17.124 29.448 17.06 29.024 16.932 28.632C16.804 28.232 16.612 27.888 16.356 27.6C16.1 27.304 15.784 27.072 15.408 26.904C15.04 26.736 14.608 26.652 14.112 26.652C13.624 26.652 13.192 26.736 12.816 26.904C12.44 27.072 12.124 27.304 11.868 27.6C11.612 27.888 11.42 28.232 11.292 28.632C11.164 29.024 11.1 29.448 11.1 29.904ZM24.4706 33L26.4506 26.796H25.3946L24.0026 31.872H23.9786L22.6826 26.796H21.5666L20.3186 31.872H20.2946L18.8906 26.796H17.7626L19.7546 33H20.8586L22.1066 28.068H22.1306L23.3906 33H24.4706Z" fill="white"/>
<rect x="81" width="80" height="40" fill="#445CF2"/>
<rect x="162" width="80" height="40" fill="#3547DE"/>
<rect x="243" width="80" height="40" fill="#232FCF"/>
<rect x="324" width="80" height="40" fill="#1E23A8"/>
<rect x="405" width="80" height="40" fill="#11118A"/>
<path d="M412.78 12.282C412.528 12.282 412.304 12.2307 412.108 12.128C411.921 12.016 411.767 11.876 411.646 11.708C411.525 11.5307 411.431 11.3347 411.366 11.12C411.31 10.896 411.282 10.6673 411.282 10.434C411.282 10.21 411.315 9.99067 411.38 9.776C411.445 9.56133 411.543 9.37 411.674 9.202C411.805 9.034 411.963 8.89867 412.15 8.796C412.337 8.69333 412.547 8.642 412.78 8.642C413.032 8.642 413.256 8.69333 413.452 8.796C413.648 8.89867 413.811 9.03867 413.942 9.216C414.082 9.384 414.185 9.58 414.25 9.804C414.325 10.0187 414.362 10.238 414.362 10.462C414.362 10.7047 414.329 10.938 414.264 11.162C414.199 11.3767 414.101 11.568 413.97 11.736C413.839 11.904 413.676 12.0393 413.48 12.142C413.284 12.2353 413.051 12.282 412.78 12.282ZM411.352 14.48H409.462C409.518 14.9093 409.635 15.292 409.812 15.628C409.989 15.964 410.218 16.2487 410.498 16.482C410.778 16.7153 411.1 16.888 411.464 17C411.828 17.1213 412.22 17.182 412.64 17.182C413.34 17.182 413.933 17.0327 414.418 16.734C414.903 16.426 415.3 16.0293 415.608 15.544C415.916 15.0493 416.14 14.4987 416.28 13.892C416.42 13.2853 416.49 12.6787 416.49 12.072C416.49 11.456 416.434 10.8447 416.322 10.238C416.21 9.63133 416.009 9.09 415.72 8.614C415.431 8.12867 415.043 7.74133 414.558 7.452C414.082 7.15333 413.471 7.004 412.724 7.004C412.211 7.004 411.744 7.09733 411.324 7.284C410.904 7.47067 410.54 7.72733 410.232 8.054C409.933 8.37133 409.7 8.74933 409.532 9.188C409.373 9.61733 409.294 10.084 409.294 10.588C409.294 10.98 409.355 11.3673 409.476 11.75C409.597 12.1327 409.789 12.4733 410.05 12.772C410.33 13.08 410.671 13.3273 411.072 13.514C411.473 13.6913 411.884 13.78 412.304 13.78C412.78 13.78 413.2 13.696 413.564 13.528C413.928 13.36 414.245 13.08 414.516 12.688L414.544 12.716C414.525 12.9867 414.483 13.2947 414.418 13.64C414.362 13.9853 414.264 14.312 414.124 14.62C413.984 14.9187 413.797 15.1753 413.564 15.39C413.331 15.5953 413.032 15.698 412.668 15.698C412.323 15.698 412.033 15.5767 411.8 15.334C411.567 15.0913 411.417 14.8067 411.352 14.48ZM423.779 8.838V7.2H418.305L417.339 12.618H419.131C419.327 12.3473 419.537 12.1513 419.761 12.03C419.985 11.8993 420.275 11.834 420.629 11.834C420.9 11.834 421.138 11.8807 421.343 11.974C421.549 12.0673 421.726 12.198 421.875 12.366C422.025 12.534 422.137 12.73 422.211 12.954C422.286 13.178 422.323 13.416 422.323 13.668C422.323 13.9107 422.281 14.1487 422.197 14.382C422.123 14.606 422.011 14.8067 421.861 14.984C421.721 15.152 421.544 15.292 421.329 15.404C421.124 15.5067 420.891 15.558 420.629 15.558C420.181 15.558 419.813 15.4273 419.523 15.166C419.234 14.8953 419.066 14.536 419.019 14.088H417.031C417.041 14.6013 417.143 15.054 417.339 15.446C417.545 15.8287 417.815 16.1507 418.151 16.412C418.487 16.6733 418.87 16.8693 419.299 17C419.738 17.1213 420.195 17.182 420.671 17.182C421.166 17.1913 421.633 17.112 422.071 16.944C422.51 16.7667 422.893 16.5193 423.219 16.202C423.555 15.8847 423.821 15.5113 424.017 15.082C424.213 14.6433 424.311 14.172 424.311 13.668C424.311 13.2107 424.241 12.7813 424.101 12.38C423.971 11.9693 423.775 11.6147 423.513 11.316C423.261 11.0173 422.949 10.7793 422.575 10.602C422.202 10.4247 421.773 10.336 421.287 10.336C420.895 10.336 420.545 10.3967 420.237 10.518C419.929 10.63 419.64 10.8213 419.369 11.092L419.341 11.064L419.733 8.838H423.779ZM426.841 12.058C426.841 11.89 426.841 11.6893 426.841 11.456C426.85 11.2133 426.869 10.966 426.897 10.714C426.925 10.462 426.971 10.2147 427.037 9.972C427.102 9.72 427.191 9.496 427.303 9.3C427.424 9.104 427.573 8.94533 427.751 8.824C427.937 8.70267 428.166 8.642 428.437 8.642C428.707 8.642 428.936 8.70267 429.123 8.824C429.309 8.94533 429.463 9.104 429.585 9.3C429.706 9.496 429.795 9.72 429.851 9.972C429.916 10.2147 429.963 10.462 429.991 10.714C430.028 10.966 430.047 11.2133 430.047 11.456C430.056 11.6893 430.061 11.89 430.061 12.058C430.061 12.338 430.051 12.6787 430.033 13.08C430.014 13.472 429.953 13.8547 429.851 14.228C429.757 14.592 429.599 14.9047 429.375 15.166C429.16 15.4273 428.847 15.558 428.437 15.558C428.035 15.558 427.727 15.4273 427.513 15.166C427.298 14.9047 427.139 14.592 427.037 14.228C426.943 13.8547 426.887 13.472 426.869 13.08C426.85 12.6787 426.841 12.338 426.841 12.058ZM424.853 12.058C424.853 13.038 424.946 13.8593 425.133 14.522C425.329 15.1753 425.59 15.698 425.917 16.09C426.243 16.482 426.621 16.762 427.051 16.93C427.489 17.098 427.951 17.182 428.437 17.182C428.931 17.182 429.393 17.098 429.823 16.93C430.261 16.762 430.644 16.482 430.971 16.09C431.307 15.698 431.568 15.1753 431.755 14.522C431.951 13.8593 432.049 13.038 432.049 12.058C432.049 11.106 431.951 10.308 431.755 9.664C431.568 9.01067 431.307 8.488 430.971 8.096C430.644 7.704 430.261 7.424 429.823 7.256C429.393 7.088 428.931 7.004 428.437 7.004C427.951 7.004 427.489 7.088 427.051 7.256C426.621 7.424 426.243 7.704 425.917 8.096C425.59 8.488 425.329 9.01067 425.133 9.664C424.946 10.308 424.853 11.106 424.853 12.058ZM409.936 24.432V33H411.076V29.076H415.588V33H416.728V24.432H415.588V28.116H411.076V24.432H409.936ZM419.508 25.68V24.432H418.488V25.68H419.508ZM418.488 26.796V33H419.508V26.796H418.488ZM426.44 32.472V26.796H425.48V27.684H425.468C425.284 27.34 425.028 27.084 424.7 26.916C424.372 26.74 424.012 26.652 423.62 26.652C423.084 26.652 422.632 26.756 422.264 26.964C421.896 27.164 421.6 27.424 421.376 27.744C421.152 28.056 420.992 28.408 420.896 28.8C420.8 29.184 420.752 29.56 420.752 29.928C420.752 30.352 420.808 30.756 420.92 31.14C421.04 31.516 421.216 31.848 421.448 32.136C421.68 32.416 421.968 32.64 422.312 32.808C422.656 32.976 423.06 33.06 423.524 33.06C423.924 33.06 424.3 32.972 424.652 32.796C425.012 32.612 425.28 32.328 425.456 31.944H425.48V32.352C425.48 32.696 425.444 33.012 425.372 33.3C425.308 33.588 425.2 33.832 425.048 34.032C424.896 34.24 424.704 34.4 424.472 34.512C424.24 34.632 423.956 34.692 423.62 34.692C423.452 34.692 423.276 34.672 423.092 34.632C422.908 34.6 422.736 34.544 422.576 34.464C422.424 34.384 422.292 34.28 422.18 34.152C422.076 34.024 422.02 33.868 422.012 33.684H420.992C421.008 34.02 421.096 34.304 421.256 34.536C421.416 34.768 421.616 34.956 421.856 35.1C422.104 35.244 422.376 35.348 422.672 35.412C422.976 35.476 423.272 35.508 423.56 35.508C424.552 35.508 425.28 35.256 425.744 34.752C426.208 34.248 426.44 33.488 426.44 32.472ZM423.584 32.172C423.248 32.172 422.968 32.104 422.744 31.968C422.52 31.824 422.34 31.64 422.204 31.416C422.068 31.184 421.972 30.928 421.916 30.648C421.86 30.368 421.832 30.088 421.832 29.808C421.832 29.512 421.864 29.228 421.928 28.956C422 28.684 422.108 28.444 422.252 28.236C422.404 28.028 422.596 27.864 422.828 27.744C423.06 27.616 423.34 27.552 423.668 27.552C423.988 27.552 424.26 27.616 424.484 27.744C424.708 27.872 424.888 28.044 425.024 28.26C425.168 28.468 425.272 28.704 425.336 28.968C425.4 29.232 425.432 29.5 425.432 29.772C425.432 30.06 425.396 30.348 425.324 30.636C425.26 30.924 425.156 31.184 425.012 31.416C424.868 31.64 424.676 31.824 424.436 31.968C424.204 32.104 423.92 32.172 423.584 32.172ZM427.979 24.432V33H428.999V29.496C428.999 29.216 429.035 28.96 429.107 28.728C429.187 28.488 429.303 28.28 429.455 28.104C429.607 27.928 429.795 27.792 430.019 27.696C430.251 27.6 430.523 27.552 430.835 27.552C431.227 27.552 431.535 27.664 431.759 27.888C431.983 28.112 432.095 28.416 432.095 28.8V33H433.115V28.92C433.115 28.584 433.079 28.28 433.007 28.008C432.943 27.728 432.827 27.488 432.659 27.288C432.491 27.088 432.271 26.932 431.999 26.82C431.727 26.708 431.387 26.652 430.979 26.652C430.795 26.652 430.603 26.672 430.403 26.712C430.211 26.752 430.023 26.816 429.839 26.904C429.663 26.984 429.503 27.092 429.359 27.228C429.215 27.356 429.103 27.516 429.023 27.708H428.999V24.432H427.979Z" fill="white"/>
</svg>
