<svg width="485" height="40" viewBox="0 0 485 40" fill="none" xmlns="http://www.w3.org/2000/svg">
<rect width="80" height="40" fill="#5772FF"/>
<path d="M11 8.838V7.2H5.526L4.56 12.618H6.352C6.548 12.3473 6.758 12.1513 6.982 12.03C7.206 11.8993 7.49533 11.834 7.85 11.834C8.12067 11.834 8.35867 11.8807 8.564 11.974C8.76933 12.0673 8.94667 12.198 9.096 12.366C9.24533 12.534 9.35733 12.73 9.432 12.954C9.50667 13.178 9.544 13.416 9.544 13.668C9.544 13.9107 9.502 14.1487 9.418 14.382C9.34333 14.606 9.23133 14.8067 9.082 14.984C8.942 15.152 8.76467 15.292 8.55 15.404C8.34467 15.5067 8.11133 15.558 7.85 15.558C7.402 15.558 7.03333 15.4273 6.744 15.166C6.45467 14.8953 6.28667 14.536 6.24 14.088H4.252C4.26133 14.6013 4.364 15.054 4.56 15.446C4.76533 15.8287 5.036 16.1507 5.372 16.412C5.708 16.6733 6.09067 16.8693 6.52 17C6.95867 17.1213 7.416 17.182 7.892 17.182C8.38667 17.1913 8.85333 17.112 9.292 16.944C9.73067 16.7667 10.1133 16.5193 10.44 16.202C10.776 15.8847 11.042 15.5113 11.238 15.082C11.434 14.6433 11.532 14.172 11.532 13.668C11.532 13.2107 11.462 12.7813 11.322 12.38C11.1913 11.9693 10.9953 11.6147 10.734 11.316C10.482 11.0173 10.1693 10.7793 9.796 10.602C9.42267 10.4247 8.99333 10.336 8.508 10.336C8.116 10.336 7.766 10.3967 7.458 10.518C7.15 10.63 6.86067 10.8213 6.59 11.092L6.562 11.064L6.954 8.838H11ZM14.0613 12.058C14.0613 11.89 14.0613 11.6893 14.0613 11.456C14.0706 11.2133 14.0893 10.966 14.1173 10.714C14.1453 10.462 14.192 10.2147 14.2573 9.972C14.3226 9.72 14.4113 9.496 14.5233 9.3C14.6446 9.104 14.794 8.94533 14.9713 8.824C15.158 8.70267 15.3866 8.642 15.6573 8.642C15.928 8.642 16.1566 8.70267 16.3433 8.824C16.53 8.94533 16.684 9.104 16.8053 9.3C16.9266 9.496 17.0153 9.72 17.0713 9.972C17.1366 10.2147 17.1833 10.462 17.2113 10.714C17.2486 10.966 17.2673 11.2133 17.2673 11.456C17.2766 11.6893 17.2813 11.89 17.2813 12.058C17.2813 12.338 17.272 12.6787 17.2533 13.08C17.2346 13.472 17.174 13.8547 17.0713 14.228C16.978 14.592 16.8193 14.9047 16.5953 15.166C16.3806 15.4273 16.068 15.558 15.6573 15.558C15.256 15.558 14.948 15.4273 14.7333 15.166C14.5186 14.9047 14.36 14.592 14.2573 14.228C14.164 13.8547 14.108 13.472 14.0893 13.08C14.0706 12.6787 14.0613 12.338 14.0613 12.058ZM12.0733 12.058C12.0733 13.038 12.1666 13.8593 12.3533 14.522C12.5493 15.1753 12.8106 15.698 13.1373 16.09C13.464 16.482 13.842 16.762 14.2713 16.93C14.71 17.098 15.172 17.182 15.6573 17.182C16.152 17.182 16.614 17.098 17.0433 16.93C17.482 16.762 17.8646 16.482 18.1913 16.09C18.5273 15.698 18.7886 15.1753 18.9753 14.522C19.1713 13.8593 19.2693 13.038 19.2693 12.058C19.2693 11.106 19.1713 10.308 18.9753 9.664C18.7886 9.01067 18.5273 8.488 18.1913 8.096C17.8646 7.704 17.482 7.424 17.0433 7.256C16.614 7.088 16.152 7.004 15.6573 7.004C15.172 7.004 14.71 7.088 14.2713 7.256C13.842 7.424 13.464 7.704 13.1373 8.096C12.8106 8.488 12.5493 9.01067 12.3533 9.664C12.1666 10.308 12.0733 11.106 12.0733 12.058ZM21.8406 12.058C21.8406 11.89 21.8406 11.6893 21.8406 11.456C21.8499 11.2133 21.8686 10.966 21.8966 10.714C21.9246 10.462 21.9713 10.2147 22.0366 9.972C22.1019 9.72 22.1906 9.496 22.3026 9.3C22.4239 9.104 22.5733 8.94533 22.7506 8.824C22.9373 8.70267 23.1659 8.642 23.4366 8.642C23.7073 8.642 23.9359 8.70267 24.1226 8.824C24.3093 8.94533 24.4633 9.104 24.5846 9.3C24.7059 9.496 24.7946 9.72 24.8506 9.972C24.9159 10.2147 24.9626 10.462 24.9906 10.714C25.0279 10.966 25.0466 11.2133 25.0466 11.456C25.0559 11.6893 25.0606 11.89 25.0606 12.058C25.0606 12.338 25.0513 12.6787 25.0326 13.08C25.0139 13.472 24.9533 13.8547 24.8506 14.228C24.7573 14.592 24.5986 14.9047 24.3746 15.166C24.1599 15.4273 23.8473 15.558 23.4366 15.558C23.0353 15.558 22.7273 15.4273 22.5126 15.166C22.2979 14.9047 22.1393 14.592 22.0366 14.228C21.9433 13.8547 21.8873 13.472 21.8686 13.08C21.8499 12.6787 21.8406 12.338 21.8406 12.058ZM19.8526 12.058C19.8526 13.038 19.9459 13.8593 20.1326 14.522C20.3286 15.1753 20.5899 15.698 20.9166 16.09C21.2433 16.482 21.6213 16.762 22.0506 16.93C22.4893 17.098 22.9513 17.182 23.4366 17.182C23.9313 17.182 24.3933 17.098 24.8226 16.93C25.2613 16.762 25.6439 16.482 25.9706 16.09C26.3066 15.698 26.5679 15.1753 26.7546 14.522C26.9506 13.8593 27.0486 13.038 27.0486 12.058C27.0486 11.106 26.9506 10.308 26.7546 9.664C26.5679 9.01067 26.3066 8.488 25.9706 8.096C25.6439 7.704 25.2613 7.424 24.8226 7.256C24.3933 7.088 23.9313 7.004 23.4366 7.004C22.9513 7.004 22.4893 7.088 22.0506 7.256C21.6213 7.424 21.2433 7.704 20.9166 8.096C20.5899 8.488 20.3286 9.01067 20.1326 9.664C19.9459 10.308 19.8526 11.106 19.8526 12.058ZM4.936 24.432V33H10.612V32.04H6.076V24.432H4.936ZM12.18 29.904C12.18 29.528 12.228 29.196 12.324 28.908C12.428 28.612 12.568 28.364 12.744 28.164C12.92 27.964 13.124 27.812 13.356 27.708C13.596 27.604 13.848 27.552 14.112 27.552C14.376 27.552 14.624 27.604 14.856 27.708C15.096 27.812 15.304 27.964 15.48 28.164C15.656 28.364 15.792 28.612 15.888 28.908C15.992 29.196 16.044 29.528 16.044 29.904C16.044 30.28 15.992 30.616 15.888 30.912C15.792 31.2 15.656 31.444 15.48 31.644C15.304 31.836 15.096 31.984 14.856 32.088C14.624 32.192 14.376 32.244 14.112 32.244C13.848 32.244 13.596 32.192 13.356 32.088C13.124 31.984 12.92 31.836 12.744 31.644C12.568 31.444 12.428 31.2 12.324 30.912C12.228 30.616 12.18 30.28 12.18 29.904ZM11.1 29.904C11.1 30.36 11.164 30.784 11.292 31.176C11.42 31.568 11.612 31.912 11.868 32.208C12.124 32.496 12.44 32.724 12.816 32.892C13.192 33.052 13.624 33.132 14.112 33.132C14.608 33.132 15.04 33.052 15.408 32.892C15.784 32.724 16.1 32.496 16.356 32.208C16.612 31.912 16.804 31.568 16.932 31.176C17.06 30.784 17.124 30.36 17.124 29.904C17.124 29.448 17.06 29.024 16.932 28.632C16.804 28.232 16.612 27.888 16.356 27.6C16.1 27.304 15.784 27.072 15.408 26.904C15.04 26.736 14.608 26.652 14.112 26.652C13.624 26.652 13.192 26.736 12.816 26.904C12.44 27.072 12.124 27.304 11.868 27.6C11.612 27.888 11.42 28.232 11.292 28.632C11.164 29.024 11.1 29.448 11.1 29.904ZM24.4706 33L26.4506 26.796H25.3946L24.0026 31.872H23.9786L22.6826 26.796H21.5666L20.3186 31.872H20.2946L18.8906 26.796H17.7626L19.7546 33H20.8586L22.1066 28.068H22.1306L23.3906 33H24.4706Z" fill="white"/>
<rect x="81" width="80" height="40" fill="#748EFF"/>
<rect x="162" width="80" height="40" fill="#97ACFF"/>
<rect x="243" width="80" height="40" fill="#B7C6FF"/>
<rect x="324" width="80" height="40" fill="#D4DCFA"/>
<rect x="405" width="80" height="40" fill="#E9EBFF"/>
<path d="M416 8.838V7.2H410.526L409.56 12.618H411.352C411.548 12.3473 411.758 12.1513 411.982 12.03C412.206 11.8993 412.495 11.834 412.85 11.834C413.121 11.834 413.359 11.8807 413.564 11.974C413.769 12.0673 413.947 12.198 414.096 12.366C414.245 12.534 414.357 12.73 414.432 12.954C414.507 13.178 414.544 13.416 414.544 13.668C414.544 13.9107 414.502 14.1487 414.418 14.382C414.343 14.606 414.231 14.8067 414.082 14.984C413.942 15.152 413.765 15.292 413.55 15.404C413.345 15.5067 413.111 15.558 412.85 15.558C412.402 15.558 412.033 15.4273 411.744 15.166C411.455 14.8953 411.287 14.536 411.24 14.088H409.252C409.261 14.6013 409.364 15.054 409.56 15.446C409.765 15.8287 410.036 16.1507 410.372 16.412C410.708 16.6733 411.091 16.8693 411.52 17C411.959 17.1213 412.416 17.182 412.892 17.182C413.387 17.1913 413.853 17.112 414.292 16.944C414.731 16.7667 415.113 16.5193 415.44 16.202C415.776 15.8847 416.042 15.5113 416.238 15.082C416.434 14.6433 416.532 14.172 416.532 13.668C416.532 13.2107 416.462 12.7813 416.322 12.38C416.191 11.9693 415.995 11.6147 415.734 11.316C415.482 11.0173 415.169 10.7793 414.796 10.602C414.423 10.4247 413.993 10.336 413.508 10.336C413.116 10.336 412.766 10.3967 412.458 10.518C412.15 10.63 411.861 10.8213 411.59 11.092L411.562 11.064L411.954 8.838H416ZM419.061 12.058C419.061 11.89 419.061 11.6893 419.061 11.456C419.071 11.2133 419.089 10.966 419.117 10.714C419.145 10.462 419.192 10.2147 419.257 9.972C419.323 9.72 419.411 9.496 419.523 9.3C419.645 9.104 419.794 8.94533 419.971 8.824C420.158 8.70267 420.387 8.642 420.657 8.642C420.928 8.642 421.157 8.70267 421.343 8.824C421.53 8.94533 421.684 9.104 421.805 9.3C421.927 9.496 422.015 9.72 422.071 9.972C422.137 10.2147 422.183 10.462 422.211 10.714C422.249 10.966 422.267 11.2133 422.267 11.456C422.277 11.6893 422.281 11.89 422.281 12.058C422.281 12.338 422.272 12.6787 422.253 13.08C422.235 13.472 422.174 13.8547 422.071 14.228C421.978 14.592 421.819 14.9047 421.595 15.166C421.381 15.4273 421.068 15.558 420.657 15.558C420.256 15.558 419.948 15.4273 419.733 15.166C419.519 14.9047 419.36 14.592 419.257 14.228C419.164 13.8547 419.108 13.472 419.089 13.08C419.071 12.6787 419.061 12.338 419.061 12.058ZM417.073 12.058C417.073 13.038 417.167 13.8593 417.353 14.522C417.549 15.1753 417.811 15.698 418.137 16.09C418.464 16.482 418.842 16.762 419.271 16.93C419.71 17.098 420.172 17.182 420.657 17.182C421.152 17.182 421.614 17.098 422.043 16.93C422.482 16.762 422.865 16.482 423.191 16.09C423.527 15.698 423.789 15.1753 423.975 14.522C424.171 13.8593 424.269 13.038 424.269 12.058C424.269 11.106 424.171 10.308 423.975 9.664C423.789 9.01067 423.527 8.488 423.191 8.096C422.865 7.704 422.482 7.424 422.043 7.256C421.614 7.088 421.152 7.004 420.657 7.004C420.172 7.004 419.71 7.088 419.271 7.256C418.842 7.424 418.464 7.704 418.137 8.096C417.811 8.488 417.549 9.01067 417.353 9.664C417.167 10.308 417.073 11.106 417.073 12.058ZM409.936 24.432V33H411.076V29.076H415.588V33H416.728V24.432H415.588V28.116H411.076V24.432H409.936ZM419.508 25.68V24.432H418.488V25.68H419.508ZM418.488 26.796V33H419.508V26.796H418.488ZM426.44 32.472V26.796H425.48V27.684H425.468C425.284 27.34 425.028 27.084 424.7 26.916C424.372 26.74 424.012 26.652 423.62 26.652C423.084 26.652 422.632 26.756 422.264 26.964C421.896 27.164 421.6 27.424 421.376 27.744C421.152 28.056 420.992 28.408 420.896 28.8C420.8 29.184 420.752 29.56 420.752 29.928C420.752 30.352 420.808 30.756 420.92 31.14C421.04 31.516 421.216 31.848 421.448 32.136C421.68 32.416 421.968 32.64 422.312 32.808C422.656 32.976 423.06 33.06 423.524 33.06C423.924 33.06 424.3 32.972 424.652 32.796C425.012 32.612 425.28 32.328 425.456 31.944H425.48V32.352C425.48 32.696 425.444 33.012 425.372 33.3C425.308 33.588 425.2 33.832 425.048 34.032C424.896 34.24 424.704 34.4 424.472 34.512C424.24 34.632 423.956 34.692 423.62 34.692C423.452 34.692 423.276 34.672 423.092 34.632C422.908 34.6 422.736 34.544 422.576 34.464C422.424 34.384 422.292 34.28 422.18 34.152C422.076 34.024 422.02 33.868 422.012 33.684H420.992C421.008 34.02 421.096 34.304 421.256 34.536C421.416 34.768 421.616 34.956 421.856 35.1C422.104 35.244 422.376 35.348 422.672 35.412C422.976 35.476 423.272 35.508 423.56 35.508C424.552 35.508 425.28 35.256 425.744 34.752C426.208 34.248 426.44 33.488 426.44 32.472ZM423.584 32.172C423.248 32.172 422.968 32.104 422.744 31.968C422.52 31.824 422.34 31.64 422.204 31.416C422.068 31.184 421.972 30.928 421.916 30.648C421.86 30.368 421.832 30.088 421.832 29.808C421.832 29.512 421.864 29.228 421.928 28.956C422 28.684 422.108 28.444 422.252 28.236C422.404 28.028 422.596 27.864 422.828 27.744C423.06 27.616 423.34 27.552 423.668 27.552C423.988 27.552 424.26 27.616 424.484 27.744C424.708 27.872 424.888 28.044 425.024 28.26C425.168 28.468 425.272 28.704 425.336 28.968C425.4 29.232 425.432 29.5 425.432 29.772C425.432 30.06 425.396 30.348 425.324 30.636C425.26 30.924 425.156 31.184 425.012 31.416C424.868 31.64 424.676 31.824 424.436 31.968C424.204 32.104 423.92 32.172 423.584 32.172ZM427.979 24.432V33H428.999V29.496C428.999 29.216 429.035 28.96 429.107 28.728C429.187 28.488 429.303 28.28 429.455 28.104C429.607 27.928 429.795 27.792 430.019 27.696C430.251 27.6 430.523 27.552 430.835 27.552C431.227 27.552 431.535 27.664 431.759 27.888C431.983 28.112 432.095 28.416 432.095 28.8V33H433.115V28.92C433.115 28.584 433.079 28.28 433.007 28.008C432.943 27.728 432.827 27.488 432.659 27.288C432.491 27.088 432.271 26.932 431.999 26.82C431.727 26.708 431.387 26.652 430.979 26.652C430.795 26.652 430.603 26.672 430.403 26.712C430.211 26.752 430.023 26.816 429.839 26.904C429.663 26.984 429.503 27.092 429.359 27.228C429.215 27.356 429.103 27.516 429.023 27.708H428.999V24.432H427.979Z" fill="#1F1F1F"/>
</svg>
