<svg width="960" height="169" fill="none" xmlns="http://www.w3.org/2000/svg"><rect x=".5" y=".5" width="959" height="168" rx="3.5" fill="#E9F3FC"/><rect x=".5" y=".5" width="959" height="168" rx="3.5" stroke="#CBE2F9"/><rect width="72" height="72" rx="36" transform="matrix(-1 0 0 1 96 24)" fill="#E7E4F2"/><path d="M37 60h31" stroke="#171321" stroke-width="2" stroke-linecap="square"/><circle cx="37" cy="60" r="5" fill="#6FDAC9" stroke="#171321" stroke-width="2" stroke-linecap="square"/><circle cx="83" cy="60" r="6" fill="#fff" stroke="#171321" stroke-width="2" stroke-miterlimit="16" stroke-dasharray="2 2"/><circle cx="60" cy="60" r="11.5" fill="#fff"/><circle cx="60" cy="60" r="8" fill="#AEA5D6"/><path d="M60 55a5 5 0 1 1-2.939 9.045L60 60v-5Z" fill="#fff"/><path d="M70.953 63.504a11.5 11.5 0 1 0-4.151 5.769" stroke="#171321" stroke-width="2" stroke-linecap="square"/><g clip-path="url(#feature-discovery-banner__a)"><path d="m121.953 35.035-.264-5.586h2.452l-.254 5.586h-1.934Zm3.858 0-.264-5.586h2.461l-.264 5.586h-1.933ZM130.786 44V29.45h2.686v5.976h6.621v-5.977h2.686V44h-2.686v-6.28h-6.621V44h-2.686Zm18.96.234c-3.183 0-5.166-2.226-5.166-5.478 0-3.233 2.041-5.508 5.04-5.508 2.871 0 4.99 2.002 4.99 5.43v.732h-8.955v-1.738h7.675l-1.181.478c0-1.748-.918-2.88-2.5-2.88-1.572 0-2.529 1.152-2.529 2.802v1.162c0 1.856 1.015 2.989 2.675 2.989 1.162 0 1.993-.538 2.285-1.416l2.393.195c-.449 1.924-2.285 3.232-4.727 3.232Zm9.615-.205c-2.168 0-3.106-.83-3.106-2.715V29.45h2.588v11.543c0 .742.215.996.889.996.205 0 .361-.01.488-.029l.186 1.982a6.158 6.158 0 0 1-1.045.088Zm5.347 0c-2.168 0-3.106-.83-3.106-2.715V29.45h2.588v11.543c0 .742.215.996.889.996.205 0 .361-.01.488-.029l.186 1.982a6.158 6.158 0 0 1-1.045.088Zm6.626.205c-3.115 0-5.166-2.207-5.166-5.478 0-3.291 2.051-5.508 5.166-5.508 3.125 0 5.176 2.217 5.176 5.508 0 3.271-2.051 5.478-5.176 5.478Zm0-2.119c1.621 0 2.559-1.367 2.559-3.369 0-2.012-.938-3.379-2.559-3.379-1.611 0-2.549 1.358-2.549 3.38 0 2.01.938 3.368 2.549 3.368ZM184.977 44l-3.213-10.557h2.715l1.045 4.004a121.48 121.48 0 0 1 1.084 4.785h-.342c.371-1.709.762-3.33 1.152-4.785l1.075-4.004h2.392l1.065 4.004c.371 1.446.761 3.057 1.132 4.785h-.341c.351-1.718.713-3.33 1.074-4.785l1.045-4.004h2.744L194.381 44h-2.646l-1.25-4.307c-.371-1.279-.703-2.793-1.055-4.16h.508c-.352 1.358-.693 2.89-1.065 4.16L187.614 44h-2.637Zm18.257.234c-3.115 0-5.166-2.207-5.166-5.478 0-3.291 2.051-5.508 5.166-5.508 3.125 0 5.176 2.217 5.176 5.508 0 3.271-2.051 5.478-5.176 5.478Zm0-2.119c1.621 0 2.559-1.367 2.559-3.369 0-2.012-.938-3.379-2.559-3.379-1.611 0-2.549 1.358-2.549 3.38 0 2.01.938 3.368 2.549 3.368ZM210.095 44V33.443h2.5v1.778h.068c.381-1.23 1.269-1.895 2.568-1.895.323 0 .645.03.869.059v2.305a7.784 7.784 0 0 0-1.191-.098c-1.27 0-2.227.879-2.227 2.383V44h-2.587Zm10.6.03c-2.168 0-3.105-.83-3.105-2.715V29.449h2.588v11.543c0 .742.215.996.888.996.205 0 .362-.01.489-.029l.185 1.982a6.14 6.14 0 0 1-1.045.088Zm5.933.175c-2.646 0-4.473-2.11-4.473-5.478 0-3.37 1.875-5.46 4.463-5.46 1.573 0 2.549.792 3.096 1.778h.059v-5.596h2.578V44h-2.539v-1.64h-.069c-.537 1.044-1.552 1.845-3.115 1.845Zm.664-2.129c1.592 0 2.578-1.328 2.578-3.35 0-2.02-.976-3.34-2.578-3.34-1.572 0-2.51 1.29-2.51 3.34 0 2.061.948 3.35 2.51 3.35Zm8.003-7.04-.263-5.587h2.451l-.254 5.586h-1.934Zm3.858 0-.264-5.587h2.461l-.264 5.586h-1.933ZM250.804 44l-3.213-10.557h2.714l1.045 4.004a117.99 117.99 0 0 1 1.084 4.785h-.341c.371-1.709.761-3.33 1.152-4.785l1.074-4.004h2.393l1.064 4.004a123.84 123.84 0 0 1 1.133 4.785h-.342c.352-1.718.713-3.33 1.074-4.785l1.045-4.004h2.744L260.208 44h-2.647l-1.25-4.307c-.371-1.279-.703-2.793-1.054-4.16h.507c-.351 1.358-.693 2.89-1.064 4.16L253.44 44h-2.636Zm13.872 0V33.443h2.588V44h-2.588Zm1.289-12.09c-.82 0-1.485-.635-1.485-1.435 0-.791.665-1.426 1.485-1.426.83 0 1.494.635 1.494 1.426 0 .8-.664 1.435-1.494 1.435Zm8.931 1.533v2.041h-6.377v-2.04h6.377Zm-4.688-2.724h2.588v10.244c0 .742.264 1.025 1.045 1.025.283 0 .762-.029 1.016-.048l.166 2.03c-.45.07-1.065.098-1.621.098-2.129 0-3.194-.937-3.194-2.793V30.72Zm8.785 7.246V44h-2.588V29.45h2.568v6.66h-.41c.625-1.846 1.816-2.842 3.623-2.842 2.197 0 3.691 1.464 3.691 4.091V44h-2.588v-6.22c0-1.475-.761-2.286-2.06-2.286s-2.236.81-2.236 2.47Zm19.98 6.26c-4.043 0-6.816-2.96-6.816-7.48 0-4.63 2.891-7.51 6.768-7.51 3.242 0 5.82 2.03 6.24 4.98h-2.735c-.39-1.572-1.66-2.578-3.457-2.578-2.47 0-4.111 1.923-4.111 5.097 0 3.164 1.631 5.088 4.15 5.088 2.159 0 3.643-1.357 3.643-3.408l.645.068h-3.975v-2.1h5.947v1.768c0 3.643-2.646 6.075-6.299 6.075Zm8.179-.225V33.443h2.588V44h-2.588Zm1.289-12.09c-.82 0-1.484-.635-1.484-1.435 0-.791.664-1.426 1.484-1.426.83 0 1.495.635 1.495 1.426 0 .8-.665 1.435-1.495 1.435Zm8.931 1.533v2.041h-6.377v-2.04h6.377Zm-4.687-2.724h2.588v10.244c0 .742.263 1.025 1.045 1.025.283 0 .761-.029 1.015-.048l.166 2.03c-.449.07-1.064.098-1.621.098-2.129 0-3.193-.937-3.193-2.793V30.72ZM318.989 44V29.45h2.685v12.265h6.582V44h-9.267Zm13.96.195c-2.07 0-3.604-1.074-3.604-3.173 0-2.383 1.963-2.999 4.092-3.223 1.895-.205 2.608-.244 2.608-.957v-.069c0-.927-.674-1.533-1.846-1.533-1.201 0-1.963.625-2.11 1.426l-2.441-.195c.332-2.012 2.051-3.203 4.58-3.203 2.471 0 4.385 1.152 4.385 3.593V44h-2.5v-1.475h-.068c-.499.948-1.436 1.67-3.096 1.67Zm.664-1.885c1.543 0 2.451-.966 2.451-2.158V38.99c-.322.225-1.426.381-2.285.508-1.074.156-1.934.557-1.934 1.484 0 .85.713 1.328 1.768 1.328Zm12.876 1.895c-1.553 0-2.568-.8-3.105-1.846h-.079V44h-2.539V29.45h2.588v5.595h.049c.547-.986 1.524-1.777 3.106-1.777 2.587 0 4.462 2.09 4.462 5.459 0 3.369-1.835 5.478-4.482 5.478Zm-.664-2.129c1.562 0 2.52-1.289 2.52-3.35 0-2.05-.948-3.34-2.52-3.34-1.602 0-2.578 1.32-2.578 3.34 0 2.022.986 3.35 2.578 3.35Zm17.735 2.149c-3.936 0-6.787-2.872-6.787-7.49 0-4.64 2.861-7.5 6.787-7.5 3.281 0 5.781 1.982 6.25 5.175h-2.715c-.352-1.767-1.709-2.773-3.496-2.773-2.52 0-4.121 1.933-4.121 5.097 0 3.184 1.611 5.088 4.121 5.088 1.777 0 3.135-1.006 3.496-2.763h2.715c-.44 3.017-2.852 5.166-6.25 5.166Zm10.786-14.776V44h-2.685V29.45h2.685Z" fill="#18171D"/><path d="M125.394 72.137c-2.721 0-4.56-2.003-4.56-5.223 0-3.233 1.866-5.236 4.478-5.236 2.153 0 3.814 1.353 4.183 3.329h-1.34c-.417-1.306-1.394-2.126-2.837-2.126-1.791 0-3.219 1.415-3.219 4.033 0 2.598 1.422 4.02 3.295 4.02 1.722 0 2.905-1.162 2.905-2.995l.389.076h-3.028V66.88h3.91v1.114c0 2.53-1.75 4.143-4.176 4.143Zm9.344.027c-2.215 0-3.582-1.572-3.582-3.924 0-2.344 1.354-3.978 3.439-3.978 1.62 0 3.329.998 3.329 3.821v.513h-5.934v-1.04h5.271l-.574.383c0-1.503-.711-2.583-2.092-2.583-1.381 0-2.195 1.141-2.195 2.385v.69c0 1.703.944 2.64 2.345 2.64.902 0 1.579-.397 1.866-1.177l1.19.329c-.356 1.155-1.497 1.941-3.063 1.941Zm7.957-7.807v1.053h-3.951v-1.053h3.951Zm-2.802-1.818h1.23v7.479c0 .683.253.984.902.984.158 0 .424-.041.629-.082l.253 1.039a2.959 2.959 0 0 1-.916.137c-1.319 0-2.098-.732-2.098-1.983V62.54Zm11.867 1.818v1.053h-4.498v-1.053h4.498ZM148.766 72v-8.661c0-1.326 1.059-2.003 2.173-2.003.582 0 .964.123 1.149.205l-.342 1.053c-.13-.041-.321-.117-.663-.117-.759 0-1.087.397-1.087 1.135V72h-1.23Zm6.542.178c-1.45 0-2.605-.848-2.605-2.352 0-1.75 1.559-2.071 2.974-2.249 1.36-.17 1.962-.13 1.962-.697v-.041c0-.95-.54-1.497-1.6-1.497-1.101 0-1.695.588-1.935 1.12l-1.182-.389c.588-1.387 1.9-1.811 3.083-1.811 1.025 0 2.864.314 2.864 2.7V72h-1.21v-1.04h-.082c-.26.541-.977 1.218-2.269 1.218Zm.212-1.087c1.36 0 2.119-.916 2.119-1.853v-1.06c-.205.24-1.545.377-2.017.438-.895.116-1.682.403-1.682 1.272 0 .793.664 1.203 1.58 1.203Zm5.509.909v-7.643h1.197l.006 1.71h-.095c.307-1.238 1.244-1.846 2.235-1.846 1.107 0 1.812.752 2.017 1.86h-.164c.273-1.142 1.285-1.86 2.502-1.86 1.326 0 2.406.854 2.406 2.625V72h-1.237v-5.12c0-1.1-.718-1.538-1.539-1.538-1.032 0-1.661.704-1.661 1.668V72h-1.23v-5.243c0-.848-.636-1.415-1.497-1.415-.896 0-1.709.629-1.709 1.846V72h-1.231Zm12.264 0v-7.643h1.23V72h-1.23Zm.622-8.894c-.465 0-.854-.362-.854-.813 0-.451.389-.813.854-.813.472 0 .861.362.861.813 0 .451-.389.813-.861.813Zm4.484 8.949c-1.148 0-1.715-.643-1.715-1.75v-8.49h1.23v8.182c0 .704.123.957.636.957.266 0 .376-.02.492-.055l.246 1.04a3.55 3.55 0 0 1-.889.116Zm2.14-.055v-7.643h1.231V72h-1.231Zm.622-8.894c-.465 0-.854-.362-.854-.813 0-.451.389-.813.854-.813.472 0 .861.362.861.813 0 .451-.389.813-.861.813Zm4.908 9.072c-1.449 0-2.604-.848-2.604-2.352 0-1.75 1.558-2.071 2.973-2.249 1.361-.17 1.962-.13 1.962-.697v-.041c0-.95-.54-1.497-1.599-1.497-1.101 0-1.696.588-1.935 1.12l-1.182-.389c.587-1.387 1.9-1.811 3.083-1.811 1.025 0 2.864.314 2.864 2.7V72h-1.21v-1.04h-.082c-.26.541-.978 1.218-2.27 1.218Zm.212-1.087c1.361 0 2.119-.916 2.119-1.853v-1.06c-.205.24-1.545.377-2.016.438-.896.116-1.682.403-1.682 1.272 0 .793.663 1.203 1.579 1.203Zm5.51.909v-7.643h1.189v1.176h.082c.281-.772 1.074-1.285 1.983-1.285.178 0 .478.014.622.02v1.238a4.64 4.64 0 0 0-.738-.069c-1.101 0-1.908.746-1.908 1.778V72h-1.23Zm10.931 0-2.318-7.643h1.306l.93 3.336c.253.91.553 2.051.84 3.507h-.211c.273-1.394.56-2.536.827-3.507l.916-3.336h1.312l.903 3.336c.252.937.54 2.079.813 3.507h-.219c.287-1.415.581-2.55.848-3.507l.93-3.336h1.305L208.587 72h-1.224l-.991-3.459a72.016 72.016 0 0 1-.854-3.363h.273a71.11 71.11 0 0 1-.854 3.363L203.945 72h-1.223Zm9.741 0v-7.643h1.23V72h-1.23Zm.622-8.894c-.465 0-.855-.362-.855-.813 0-.451.39-.813.855-.813.472 0 .861.362.861.813 0 .451-.389.813-.861.813Zm5.776 1.251v1.053h-3.951v-1.053h3.951Zm-2.802-1.818h1.23v7.479c0 .683.253.984.902.984.158 0 .424-.041.629-.082l.253 1.039a2.959 2.959 0 0 1-.916.137c-1.319 0-2.098-.732-2.098-1.983V62.54Zm5.605 4.88V72h-1.23V61.815h1.23v4.395h-.212c.465-1.408 1.354-1.948 2.509-1.948 1.545 0 2.591.95 2.591 2.885V72h-1.238v-4.751c0-1.176-.656-1.88-1.722-1.88-1.101 0-1.928.745-1.928 2.05Zm15.306 4.718c-2.721 0-4.56-2.003-4.56-5.223 0-3.233 1.866-5.236 4.478-5.236 2.153 0 3.814 1.353 4.183 3.329h-1.34c-.417-1.306-1.394-2.126-2.836-2.126-1.791 0-3.22 1.415-3.22 4.033 0 2.598 1.422 4.02 3.295 4.02 1.722 0 2.905-1.162 2.905-2.995l.39.076h-3.029V66.88h3.91v1.114c0 2.53-1.75 4.143-4.176 4.143Zm6.132-.137v-7.643h1.23V72h-1.23Zm.622-8.894c-.465 0-.855-.362-.855-.813 0-.451.39-.813.855-.813.471 0 .861.362.861.813 0 .451-.39.813-.861.813Zm5.776 1.251v1.053h-3.951v-1.053h3.951Zm-2.803-1.818h1.231v7.479c0 .683.253.984.902.984.157 0 .424-.041.629-.082l.253 1.039a2.964 2.964 0 0 1-.916.137c-1.319 0-2.099-.732-2.099-1.983V62.54ZM251.223 72V61.815h1.298v9.037h4.717V72h-6.015Zm9.905.178c-1.449 0-2.605-.848-2.605-2.352 0-1.75 1.559-2.071 2.974-2.249 1.36-.17 1.962-.13 1.962-.697v-.041c0-.95-.54-1.497-1.6-1.497-1.1 0-1.695.588-1.934 1.12l-1.183-.389c.588-1.387 1.901-1.811 3.083-1.811 1.026 0 2.864.314 2.864 2.7V72h-1.21v-1.04h-.082c-.259.541-.977 1.218-2.269 1.218Zm.212-1.087c1.36 0 2.119-.916 2.119-1.853v-1.06c-.205.24-1.545.377-2.017.438-.895.116-1.681.403-1.681 1.272 0 .793.663 1.203 1.579 1.203Zm9.057 1.073c-1.456 0-1.968-.923-2.221-1.347h-.137V72h-1.189V61.815h1.23v3.766h.096c.253-.403.724-1.32 2.215-1.32 1.907 0 3.24 1.518 3.24 3.938 0 2.434-1.326 3.965-3.234 3.965Zm-.184-1.1c1.429 0 2.167-1.272 2.167-2.878 0-1.586-.718-2.824-2.167-2.824-1.408 0-2.147 1.135-2.147 2.824 0 1.702.759 2.877 2.147 2.877Zm13.419 1.073c-2.611 0-4.519-1.996-4.519-5.223 0-3.233 1.908-5.236 4.519-5.236 2.064 0 3.746 1.244 4.108 3.343h-1.299c-.287-1.395-1.483-2.14-2.809-2.14-1.832 0-3.254 1.422-3.254 4.033 0 2.605 1.429 4.02 3.254 4.02 1.333 0 2.522-.752 2.809-2.14h1.299c-.355 2.071-2.023 3.343-4.108 3.343Zm7.403-10.322V72h-1.299V61.815h1.299Zm8.846 10.35c-1.572 0-2.666-.698-2.94-2.018l1.169-.28c.219.841.841 1.217 1.757 1.217 1.067 0 1.75-.526 1.75-1.155 0-.527-.369-.875-1.121-1.053l-1.271-.3c-1.388-.329-2.051-1.012-2.051-2.086 0-1.312 1.203-2.228 2.83-2.228 1.572 0 2.399.765 2.748 1.839l-1.114.287c-.212-.547-.643-1.08-1.627-1.08-.909 0-1.593.471-1.593 1.107 0 .567.39.882 1.285 1.094l1.155.273c1.388.328 2.038 1.019 2.038 2.065 0 1.34-1.224 2.317-3.015 2.317Zm4.676 2.604.314-1.067.13.034c.752.199 1.292.034 1.668-1.06l.219-.635-2.919-7.684h1.346l1.627 4.533c.342.95.547 1.886.814 2.761h-.451c.259-.875.471-1.818.813-2.761l1.641-4.533h1.34l-3.357 8.785c-.465 1.216-1.203 1.77-2.283 1.77-.438 0-.772-.082-.902-.143Zm9.228-7.35V72h-1.23v-7.643h1.182l.007 1.853h-.171c.465-1.408 1.354-1.948 2.509-1.948 1.545 0 2.591.95 2.591 2.885V72h-1.237v-4.751c0-1.176-.657-1.88-1.723-1.88-1.101 0-1.928.745-1.928 2.05Zm10.063-3.062v1.053h-3.952v-1.053h3.952Zm-2.803-1.818h1.23v7.479c0 .683.253.984.903.984.157 0 .424-.041.629-.082l.253 1.039a2.964 2.964 0 0 1-.916.137c-1.32 0-2.099-.732-2.099-1.983V62.54Zm6.583 9.639c-1.449 0-2.605-.848-2.605-2.352 0-1.75 1.559-2.071 2.974-2.249 1.36-.17 1.962-.13 1.962-.697v-.041c0-.95-.54-1.497-1.6-1.497-1.1 0-1.695.588-1.934 1.12l-1.183-.389c.588-1.387 1.901-1.811 3.083-1.811 1.026 0 2.864.314 2.864 2.7V72h-1.21v-1.04h-.082c-.259.541-.977 1.218-2.269 1.218Zm.212-1.087c1.36 0 2.119-.916 2.119-1.853v-1.06c-.205.24-1.545.377-2.017.438-.895.116-1.681.403-1.681 1.272 0 .793.663 1.203 1.579 1.203Zm4.874.909 3.015-4.395-.007.943-2.851-4.19h1.436l.95 1.483c.492.765.813 1.422 1.196 2.037h-.642c.389-.615.656-1.272 1.155-2.037l.971-1.484h1.408l-2.865 4.246v-.91L339.468 72h-1.429l-1.121-1.716c-.485-.745-.793-1.374-1.169-1.969h.649c-.376.595-.635 1.224-1.127 1.97L334.136 72h-1.422Zm15.764.164c-1.457 0-1.969-.923-2.222-1.347h-.137V72h-1.189V61.815h1.23v3.766h.096c.253-.403.724-1.32 2.215-1.32 1.907 0 3.24 1.518 3.24 3.938 0 2.434-1.326 3.965-3.233 3.965Zm-.185-1.1c1.429 0 2.167-1.272 2.167-2.878 0-1.586-.718-2.824-2.167-2.824-1.408 0-2.147 1.135-2.147 2.824 0 1.702.759 2.877 2.147 2.877Zm4.812 3.705.315-1.067.13.034c.752.199 1.292.034 1.668-1.06l.219-.635-2.919-7.684h1.346l1.627 4.533c.342.95.547 1.886.814 2.761h-.451c.259-.875.471-1.818.813-2.761l1.641-4.533h1.339l-3.356 8.785c-.465 1.216-1.203 1.77-2.283 1.77-.438 0-.773-.082-.903-.143Zm14.534-2.605c-1.573 0-2.666-.697-2.94-2.017l1.169-.28c.219.841.841 1.217 1.757 1.217 1.066 0 1.75-.526 1.75-1.155 0-.527-.369-.875-1.121-1.053l-1.272-.3c-1.387-.329-2.05-1.012-2.05-2.086 0-1.312 1.203-2.228 2.83-2.228 1.572 0 2.399.765 2.748 1.839l-1.114.287c-.212-.547-.643-1.08-1.627-1.08-.91 0-1.593.471-1.593 1.107 0 .567.389.882 1.285 1.094l1.155.273c1.388.328 2.037 1.019 2.037 2.065 0 1.34-1.223 2.317-3.014 2.317Zm8.011 0c-2.214 0-3.582-1.572-3.582-3.924 0-2.344 1.354-3.978 3.439-3.978 1.62 0 3.329.998 3.329 3.821v.513h-5.934v-1.04h5.271l-.574.383c0-1.503-.711-2.583-2.092-2.583-1.381 0-2.195 1.141-2.195 2.385v.69c0 1.703.944 2.64 2.345 2.64.903 0 1.579-.397 1.866-1.177l1.19.329c-.356 1.155-1.497 1.941-3.063 1.941Zm7.957-7.807v1.053h-3.951v-1.053h3.951Zm-2.802-1.818h1.23v7.479c0 .683.253.984.903.984.157 0 .423-.041.628-.082l.253 1.039a2.959 2.959 0 0 1-.916.137c-1.319 0-2.098-.732-2.098-1.983V62.54Zm7.041 1.818v1.053h-3.951v-1.053h3.951Zm-2.803-1.818h1.23v7.479c0 .683.253.984.903.984.157 0 .424-.041.629-.082l.253 1.039a2.964 2.964 0 0 1-.916.137c-1.32 0-2.099-.732-2.099-1.983V62.54ZM389.418 72v-7.643h1.23V72h-1.23Zm.622-8.894c-.465 0-.854-.362-.854-.813 0-.451.389-.813.854-.813.472 0 .861.362.861.813 0 .451-.389.813-.861.813Zm3.999 4.314V72h-1.23v-7.643h1.182l.007 1.853h-.171c.465-1.408 1.354-1.948 2.509-1.948 1.545 0 2.591.95 2.591 2.885V72h-1.238v-4.751c0-1.176-.656-1.88-1.722-1.88-1.101 0-1.928.745-1.928 2.05Zm10.151 7.602c-1.695 0-2.672-.718-3.144-1.56l.998-.642c.321.445.8 1.128 2.146 1.128 1.217 0 2.099-.56 2.099-1.818v-1.531h-.116c-.26.437-.745 1.278-2.222 1.278-1.832 0-3.226-1.333-3.226-3.733 0-2.365 1.346-3.882 3.254-3.882 1.476 0 1.968.909 2.228 1.32h.116v-1.225h1.197v7.841c0 1.976-1.47 2.824-3.33 2.824Zm-.034-4.239c1.388 0 2.147-.998 2.147-2.666 0-1.62-.739-2.755-2.147-2.755-1.456 0-2.18 1.23-2.18 2.755 0 1.572.745 2.666 2.18 2.666Zm12.052 1.313c-1.545 0-2.591-.95-2.591-2.885v-4.854h1.231v4.751c0 1.176.663 1.88 1.729 1.88 1.094 0 1.921-.745 1.921-2.05v-4.58h1.237V72h-1.189v-1.853h.164c-.472 1.436-1.381 1.949-2.502 1.949Zm5.694 2.761v-10.5h1.19v1.224h.137c.252-.403.724-1.32 2.214-1.32 1.908 0 3.241 1.518 3.241 3.938 0 2.434-1.327 3.965-3.234 3.965-1.456 0-1.969-.923-2.221-1.347h-.096v4.04h-1.231Zm3.364-3.793c1.428 0 2.167-1.272 2.167-2.878 0-1.586-.718-2.824-2.167-2.824-1.409 0-2.147 1.135-2.147 2.824 0 1.702.759 2.877 2.147 2.877Zm11.286 1.114c-1.449 0-2.605-.848-2.605-2.352 0-1.75 1.559-2.071 2.974-2.249 1.36-.17 1.962-.13 1.962-.697v-.041c0-.95-.54-1.497-1.6-1.497-1.1 0-1.695.588-1.934 1.12l-1.183-.389c.588-1.387 1.9-1.811 3.083-1.811 1.025 0 2.864.314 2.864 2.7V72h-1.21v-1.04h-.082c-.259.541-.977 1.218-2.269 1.218Zm.212-1.087c1.36 0 2.119-.916 2.119-1.853v-1.06c-.205.24-1.545.377-2.017.438-.895.116-1.681.403-1.681 1.272 0 .793.663 1.203 1.579 1.203Zm12.045 1.073c-1.573 0-2.666-.697-2.94-2.017l1.169-.28c.219.841.841 1.217 1.757 1.217 1.066 0 1.75-.526 1.75-1.155 0-.527-.369-.875-1.121-1.053l-1.272-.3c-1.387-.329-2.05-1.012-2.05-2.086 0-1.312 1.203-2.228 2.83-2.228 1.572 0 2.399.765 2.748 1.839l-1.115.287c-.211-.547-.642-1.08-1.627-1.08-.909 0-1.592.471-1.592 1.107 0 .567.389.882 1.285 1.094l1.155.273c1.388.328 2.037 1.019 2.037 2.065 0 1.34-1.223 2.317-3.014 2.317Zm4.798-.164v-7.643h1.231V72h-1.231Zm.622-8.894c-.464 0-.854-.362-.854-.813 0-.451.39-.813.854-.813.472 0 .862.362.862.813 0 .451-.39.813-.862.813ZM456.998 72v-7.643h1.196l.007 1.71h-.096c.308-1.238 1.245-1.846 2.236-1.846 1.107 0 1.811.752 2.016 1.86h-.164c.274-1.142 1.286-1.86 2.502-1.86 1.326 0 2.407.854 2.407 2.625V72h-1.238v-5.12c0-1.1-.718-1.538-1.538-1.538-1.032 0-1.661.704-1.661 1.668V72h-1.23v-5.243c0-.848-.636-1.415-1.497-1.415-.896 0-1.709.629-1.709 1.846V72h-1.231Zm12.264 2.857v-10.5h1.189v1.224h.137c.253-.403.724-1.32 2.215-1.32 1.907 0 3.24 1.518 3.24 3.938 0 2.434-1.326 3.965-3.233 3.965-1.456 0-1.969-.923-2.222-1.347h-.096v4.04h-1.23Zm3.363-3.793c1.429 0 2.167-1.272 2.167-2.878 0-1.586-.718-2.824-2.167-2.824-1.408 0-2.146 1.135-2.146 2.824 0 1.702.758 2.877 2.146 2.877Zm6.925.99c-1.149 0-1.716-.642-1.716-1.75v-8.49h1.23v8.183c0 .704.124.957.636.957.267 0 .376-.02.492-.055l.246 1.04c-.218.061-.56.116-.888.116Zm5.147.11c-2.215 0-3.582-1.572-3.582-3.924 0-2.344 1.354-3.978 3.439-3.978 1.62 0 3.329.998 3.329 3.821v.513h-5.934v-1.04h5.271l-.574.383c0-1.503-.711-2.583-2.092-2.583-1.381 0-2.195 1.141-2.195 2.385v.69c0 1.703.944 2.64 2.345 2.64.902 0 1.579-.397 1.866-1.177l1.19.329c-.356 1.155-1.497 1.941-3.063 1.941Zm8.887 2.693v-10.5h1.189v1.224h.137c.253-.403.725-1.32 2.215-1.32 1.907 0 3.24 1.518 3.24 3.938 0 2.434-1.326 3.965-3.233 3.965-1.456 0-1.969-.923-2.222-1.347h-.096v4.04h-1.23Zm3.363-3.793c1.429 0 2.167-1.272 2.167-2.878 0-1.586-.718-2.824-2.167-2.824-1.408 0-2.146 1.135-2.146 2.824 0 1.702.759 2.877 2.146 2.877Zm5.209.936v-7.643h1.231V72h-1.231Zm.622-8.894c-.465 0-.854-.362-.854-.813 0-.451.389-.813.854-.813.472 0 .862.362.862.813 0 .451-.39.813-.862.813Zm2.769 11.751v-10.5h1.189v1.224h.137c.253-.403.725-1.32 2.215-1.32 1.907 0 3.24 1.518 3.24 3.938 0 2.434-1.326 3.965-3.233 3.965-1.456 0-1.969-.923-2.222-1.347h-.096v4.04h-1.23Zm3.363-3.793c1.429 0 2.167-1.272 2.167-2.878 0-1.586-.718-2.824-2.167-2.824-1.408 0-2.146 1.135-2.146 2.824 0 1.702.758 2.877 2.146 2.877Zm8.422 1.1c-2.215 0-3.582-1.572-3.582-3.924 0-2.344 1.354-3.978 3.438-3.978 1.621 0 3.33.998 3.33 3.821v.513h-5.934v-1.04h5.27l-.574.383c0-1.503-.711-2.583-2.092-2.583-1.38 0-2.194 1.141-2.194 2.385v.69c0 1.703.944 2.64 2.345 2.64.902 0 1.579-.397 1.866-1.177l1.19.329c-.356 1.155-1.498 1.941-3.063 1.941Zm6.665-.11c-1.148 0-1.716-.642-1.716-1.75v-8.49h1.231v8.183c0 .704.123.957.635.957.267 0 .376-.02.493-.055l.246 1.04a3.557 3.557 0 0 1-.889.116Zm2.14-.054v-7.643h1.23V72h-1.23Zm.622-8.894c-.465 0-.855-.362-.855-.813 0-.451.39-.813.855-.813.471 0 .861.362.861.813 0 .451-.39.813-.861.813Zm3.999 4.314V72h-1.231v-7.643h1.183l.007 1.853h-.171c.465-1.408 1.353-1.948 2.509-1.948 1.545 0 2.591.95 2.591 2.885V72h-1.238v-4.751c0-1.176-.656-1.88-1.722-1.88-1.101 0-1.928.745-1.928 2.05Zm10.267 4.744c-2.214 0-3.582-1.572-3.582-3.924 0-2.344 1.354-3.978 3.439-3.978 1.62 0 3.329.998 3.329 3.821v.513h-5.934v-1.04h5.271l-.574.383c0-1.503-.711-2.583-2.092-2.583-1.381 0-2.194 1.141-2.194 2.385v.69c0 1.703.943 2.64 2.344 2.64.903 0 1.579-.397 1.866-1.177l1.19.329c-.356 1.155-1.497 1.941-3.063 1.941Zm8.887-.164v-7.643h1.19v1.176h.082c.28-.772 1.073-1.285 1.982-1.285.178 0 .479.014.622.02v1.238a4.64 4.64 0 0 0-.738-.069c-1.101 0-1.907.746-1.907 1.778V72h-1.231Zm7.868.096c-1.545 0-2.591-.95-2.591-2.885v-4.854h1.231v4.751c0 1.176.663 1.88 1.729 1.88 1.094 0 1.921-.745 1.921-2.05v-4.58h1.238V72h-1.19v-1.853h.164c-.471 1.436-1.381 1.949-2.502 1.949Zm6.925-4.676V72h-1.23v-7.643h1.182l.007 1.853h-.171c.465-1.408 1.354-1.948 2.509-1.948 1.545 0 2.591.95 2.591 2.885V72h-1.238v-4.751c0-1.176-.656-1.88-1.722-1.88-1.101 0-1.928.745-1.928 2.05Zm8.285 0V72h-1.23v-7.643h1.182l.007 1.853h-.171c.465-1.408 1.354-1.948 2.509-1.948 1.545 0 2.591.95 2.591 2.885V72h-1.237v-4.751c0-1.176-.657-1.88-1.723-1.88-1.101 0-1.928.745-1.928 2.05Zm7.055 4.58v-7.643h1.23V72h-1.23Zm.622-8.894c-.465 0-.855-.362-.855-.813 0-.451.39-.813.855-.813.472 0 .861.362.861.813 0 .451-.389.813-.861.813Zm3.999 4.314V72h-1.23v-7.643h1.182l.007 1.853h-.171c.465-1.408 1.354-1.948 2.509-1.948 1.545 0 2.591.95 2.591 2.885V72h-1.238v-4.751c0-1.176-.656-1.88-1.722-1.88-1.101 0-1.928.745-1.928 2.05Zm10.151 7.602c-1.695 0-2.672-.718-3.144-1.56l.998-.642c.321.445.8 1.128 2.146 1.128 1.217 0 2.099-.56 2.099-1.818v-1.531h-.116c-.26.437-.745 1.278-2.222 1.278-1.832 0-3.226-1.333-3.226-3.733 0-2.365 1.346-3.882 3.253-3.882 1.477 0 1.969.909 2.229 1.32h.116v-1.225h1.196v7.841c0 1.976-1.469 2.824-3.329 2.824Zm-.034-4.239c1.388 0 2.147-.998 2.147-2.666 0-1.62-.739-2.755-2.147-2.755-1.456 0-2.18 1.23-2.18 2.755 0 1.572.745 2.666 2.18 2.666Zm11.601 1.395c-1.449 0-2.605-.848-2.605-2.352 0-1.75 1.559-2.071 2.974-2.249 1.36-.17 1.962-.13 1.962-.697v-.041c0-.95-.54-1.497-1.6-1.497-1.1 0-1.695.588-1.934 1.12l-1.183-.389c.588-1.387 1.9-1.811 3.083-1.811 1.025 0 2.864.314 2.864 2.7V72h-1.21v-1.04h-.082c-.259.541-.977 1.218-2.269 1.218Zm.212-1.087c1.36 0 2.119-.916 2.119-1.853v-1.06c-.205.24-1.545.377-2.017.438-.895.116-1.681.403-1.681 1.272 0 .793.663 1.203 1.579 1.203Zm9.953-5.4-.151-3.877h1.327l-.151 3.876h-1.025Zm2.324 0-.15-3.877h1.326l-.151 3.876h-1.025ZM622.715 72V61.815h1.299v4.402h5.345v-4.402h1.299V72h-1.299v-4.635h-5.345V72h-1.299Zm13.467.164c-2.215 0-3.582-1.572-3.582-3.924 0-2.344 1.353-3.978 3.438-3.978 1.62 0 3.329.998 3.329 3.821v.513h-5.933v-1.04h5.27l-.574.383c0-1.503-.711-2.583-2.092-2.583-1.381 0-2.194 1.141-2.194 2.385v.69c0 1.703.943 2.64 2.344 2.64.903 0 1.58-.397 1.867-1.177l1.189.329c-.355 1.155-1.497 1.941-3.062 1.941Zm6.665-.11c-1.149 0-1.716-.642-1.716-1.75v-8.49h1.23v8.183c0 .704.123.957.636.957.267 0 .376-.02.492-.055l.246 1.04c-.218.061-.56.116-.888.116Zm3.855 0c-1.148 0-1.716-.642-1.716-1.75v-8.49h1.231v8.183c0 .704.123.957.636.957.266 0 .376-.02.492-.055l.246 1.04a3.557 3.557 0 0 1-.889.116Zm5.045.11c-2.078 0-3.479-1.579-3.479-3.937 0-2.393 1.401-3.965 3.479-3.965 2.085 0 3.493 1.572 3.493 3.965 0 2.358-1.408 3.937-3.493 3.937Zm0-1.1c1.545 0 2.249-1.333 2.249-2.837 0-1.518-.704-2.865-2.249-2.865-1.524 0-2.228 1.34-2.228 2.865 0 1.504.704 2.837 2.228 2.837Zm10.938.936-2.318-7.643h1.306l.93 3.336c.252.91.553 2.051.84 3.507h-.212a47.55 47.55 0 0 1 .828-3.507l.916-3.336h1.312l.902 3.336c.253.937.54 2.079.814 3.507h-.219c.287-1.415.581-2.55.848-3.507l.93-3.336h1.305L668.55 72h-1.224l-.991-3.459a73.25 73.25 0 0 1-.855-3.363h.274a71.07 71.07 0 0 1-.855 3.363L663.908 72h-1.223Zm12.591.164c-2.078 0-3.479-1.579-3.479-3.937 0-2.393 1.401-3.965 3.479-3.965 2.085 0 3.494 1.572 3.494 3.965 0 2.358-1.409 3.937-3.494 3.937Zm0-1.1c1.545 0 2.249-1.333 2.249-2.837 0-1.518-.704-2.865-2.249-2.865-1.524 0-2.228 1.34-2.228 2.865 0 1.504.704 2.837 2.228 2.837Zm5.285.936v-7.643h1.189v1.176h.082c.28-.772 1.073-1.285 1.982-1.285.178 0 .479.014.623.02v1.238a4.67 4.67 0 0 0-.739-.069c-1.1 0-1.907.746-1.907 1.778V72h-1.23Zm7.211.055c-1.148 0-1.715-.643-1.715-1.75v-8.49h1.23v8.182c0 .704.123.957.636.957.266 0 .376-.02.492-.055l.246 1.04a3.55 3.55 0 0 1-.889.116Zm4.799.11c-1.907 0-3.233-1.532-3.233-3.966 0-2.42 1.333-3.937 3.24-3.937 1.49 0 1.962.916 2.215 1.32h.096v-3.767h1.23V72h-1.189v-1.183h-.137c-.253.424-.766 1.347-2.222 1.347Zm.185-1.102c1.388 0 2.146-1.175 2.146-2.877 0-1.689-.738-2.824-2.146-2.824-1.449 0-2.167 1.238-2.167 2.824 0 1.606.738 2.877 2.167 2.877Zm6.029-5.373-.15-3.875h1.326l-.15 3.875h-1.026Zm2.324 0-.15-3.875h1.326l-.15 3.875h-1.026Zm10.227 6.474c-1.572 0-2.666-.697-2.94-2.017l1.169-.28c.219.841.841 1.217 1.757 1.217 1.067 0 1.75-.526 1.75-1.155 0-.527-.369-.875-1.121-1.053l-1.271-.3c-1.388-.329-2.051-1.012-2.051-2.086 0-1.312 1.203-2.228 2.83-2.228 1.572 0 2.399.765 2.748 1.839l-1.114.287c-.212-.547-.643-1.08-1.627-1.08-.909 0-1.593.471-1.593 1.107 0 .567.39.882 1.285 1.094l1.155.273c1.388.328 2.038 1.019 2.038 2.065 0 1.34-1.224 2.317-3.015 2.317Zm7.909 0c-2.078 0-3.479-1.579-3.479-3.937 0-2.393 1.401-3.965 3.479-3.965 1.477 0 2.68.779 3.097 2.112l-1.183.335c-.225-.786-.909-1.347-1.914-1.347-1.524 0-2.228 1.34-2.228 2.865 0 1.504.704 2.837 2.228 2.837 1.026 0 1.723-.582 1.948-1.409l1.176.335c-.41 1.36-1.627 2.174-3.124 2.174Zm4.888-.164v-7.643h1.189v1.176h.082c.281-.772 1.074-1.285 1.983-1.285.177 0 .478.014.622.02v1.238a4.64 4.64 0 0 0-.738-.069c-1.101 0-1.908.746-1.908 1.778V72h-1.23Zm5.496 0v-7.643h1.23V72h-1.23Zm.622-8.894c-.465 0-.855-.362-.855-.813 0-.451.39-.813.855-.813.472 0 .861.362.861.813 0 .451-.389.813-.861.813Zm2.769 11.751v-10.5h1.189v1.224h.137c.253-.403.724-1.32 2.215-1.32 1.907 0 3.24 1.518 3.24 3.938 0 2.434-1.326 3.965-3.234 3.965-1.456 0-1.968-.923-2.221-1.347h-.096v4.04h-1.23Zm3.363-3.793c1.429 0 2.167-1.272 2.167-2.878 0-1.586-.718-2.824-2.167-2.824-1.408 0-2.147 1.135-2.147 2.824 0 1.702.759 2.877 2.147 2.877Zm8.217-6.707v1.053h-3.952v-1.053h3.952Zm-2.803-1.818h1.23v7.479c0 .683.253.984.903.984.157 0 .424-.041.629-.082l.253 1.039a2.964 2.964 0 0 1-.916.137c-1.32 0-2.099-.732-2.099-1.983V62.54Zm11.32 1.818v1.053h-3.951v-1.053h3.951Zm-2.803-1.818h1.231v7.479c0 .683.253.984.902.984.157 0 .424-.041.629-.082l.253 1.039a2.959 2.959 0 0 1-.916.137c-1.319 0-2.099-.732-2.099-1.983V62.54Zm7.349 9.625c-2.078 0-3.479-1.579-3.479-3.937 0-2.393 1.401-3.965 3.479-3.965 2.085 0 3.493 1.572 3.493 3.965 0 2.358-1.408 3.937-3.493 3.937Zm0-1.1c1.545 0 2.249-1.333 2.249-2.837 0-1.518-.704-2.865-2.249-2.865-1.524 0-2.228 1.34-2.228 2.865 0 1.504.704 2.837 2.228 2.837Zm11.819 1.1c-1.572 0-2.666-.697-2.939-2.017l1.169-.28c.219.841.841 1.217 1.757 1.217 1.066 0 1.75-.526 1.75-1.155 0-.527-.369-.875-1.121-1.053l-1.272-.3c-1.388-.329-2.051-1.012-2.051-2.086 0-1.312 1.204-2.228 2.83-2.228 1.573 0 2.4.765 2.749 1.839l-1.115.287c-.212-.547-.642-1.08-1.627-1.08-.909 0-1.592.471-1.592 1.107 0 .567.389.882 1.285 1.094l1.155.273c1.388.328 2.037 1.019 2.037 2.065 0 1.34-1.224 2.317-3.015 2.317Zm8.012 0c-2.215 0-3.582-1.572-3.582-3.924 0-2.344 1.354-3.978 3.439-3.978 1.62 0 3.329.998 3.329 3.821v.513h-5.934v-1.04h5.271l-.575.383c0-1.503-.711-2.583-2.091-2.583-1.381 0-2.195 1.141-2.195 2.385v.69c0 1.703.944 2.64 2.345 2.64.902 0 1.579-.397 1.866-1.177l1.19.329c-.356 1.155-1.497 1.941-3.063 1.941Zm8.162 0c-2.215 0-3.582-1.572-3.582-3.924 0-2.344 1.354-3.978 3.439-3.978 1.62 0 3.329.998 3.329 3.821v.513h-5.934v-1.04h5.271l-.575.383c0-1.503-.71-2.583-2.091-2.583-1.381 0-2.195 1.141-2.195 2.385v.69c0 1.703.944 2.64 2.345 2.64.902 0 1.579-.397 1.866-1.177l1.19.329c-.356 1.155-1.497 1.941-3.063 1.941Zm10.117-4.744V72h-1.23V61.815h1.23v4.395h-.211c.464-1.408 1.353-1.948 2.508-1.948 1.545 0 2.591.95 2.591 2.885V72h-1.237v-4.751c0-1.176-.656-1.88-1.723-1.88-1.1 0-1.928.745-1.928 2.05Zm10.165 4.744c-2.078 0-3.479-1.579-3.479-3.937 0-2.393 1.401-3.965 3.479-3.965 2.085 0 3.494 1.572 3.494 3.965 0 2.358-1.409 3.937-3.494 3.937Zm0-1.1c1.545 0 2.25-1.333 2.25-2.837 0-1.518-.705-2.865-2.25-2.865-1.524 0-2.228 1.34-2.228 2.865 0 1.504.704 2.837 2.228 2.837Zm6.741.936-2.318-7.643h1.306l.93 3.336c.253.91.553 2.051.841 3.507h-.212c.273-1.394.56-2.536.827-3.507l.916-3.336h1.312l.903 3.336c.253.937.54 2.079.813 3.507h-.219c.287-1.415.581-2.55.848-3.507l.93-3.336h1.305L818.544 72h-1.224l-.991-3.459a72.016 72.016 0 0 1-.854-3.363h.273a69.91 69.91 0 0 1-.854 3.363L813.902 72h-1.223Zm13.678 0v-7.643h1.231V72h-1.231Zm.622-8.894c-.464 0-.854-.362-.854-.813 0-.451.39-.813.854-.813.472 0 .862.362.862.813 0 .451-.39.813-.862.813Zm5.777 1.251v1.053h-3.951v-1.053h3.951Zm-2.803-1.818h1.231v7.479c0 .683.253.984.902.984.157 0 .424-.041.629-.082l.253 1.039a2.964 2.964 0 0 1-.916.137c-1.32 0-2.099-.732-2.099-1.983V62.54ZM838.266 72v-7.643h1.189v1.176h.082c.28-.772 1.073-1.285 1.983-1.285.177 0 .478.014.622.02v1.238a4.67 4.67 0 0 0-.739-.069c-1.1 0-1.907.746-1.907 1.778V72h-1.23Zm7.868.096c-1.545 0-2.591-.95-2.591-2.885v-4.854h1.23v4.751c0 1.176.664 1.88 1.73 1.88 1.094 0 1.921-.745 1.921-2.05v-4.58h1.237V72h-1.189v-1.853h.164c-.472 1.436-1.381 1.949-2.502 1.949Zm6.925-4.676V72h-1.231v-7.643h1.183l.007 1.853h-.171c.465-1.408 1.353-1.948 2.508-1.948 1.545 0 2.591.95 2.591 2.885V72h-1.237v-4.751c0-1.176-.656-1.88-1.723-1.88-1.1 0-1.927.745-1.927 2.05Zm9.652 4.744c-1.572 0-2.666-.697-2.94-2.017l1.169-.28c.219.841.841 1.217 1.757 1.217 1.067 0 1.75-.526 1.75-1.155 0-.527-.369-.875-1.121-1.053l-1.271-.3c-1.388-.329-2.051-1.012-2.051-2.086 0-1.312 1.203-2.228 2.83-2.228 1.572 0 2.399.765 2.748 1.839l-1.114.287c-.212-.547-.643-1.08-1.627-1.08-.909 0-1.593.471-1.593 1.107 0 .567.39.882 1.285 1.094l1.155.273c1.388.328 2.038 1.019 2.038 2.065 0 1.34-1.224 2.317-3.015 2.317Zm4.594 2.29.601-3.876h1.408l-1.066 3.876h-.943Zm-743.012 17.71c-2.215 0-3.582-1.572-3.582-3.924 0-2.344 1.353-3.978 3.438-3.978 1.621 0 3.33.998 3.33 3.821v.513h-5.934v-1.04h5.27l-.574.383c0-1.503-.711-2.583-2.092-2.583-1.38 0-2.194 1.141-2.194 2.385v.69c0 1.703.943 2.64 2.345 2.64.902 0 1.579-.397 1.866-1.177l1.189.329c-.355 1.155-1.497 1.941-3.062 1.941Zm3.999-.164 3.015-4.395-.007.943-2.851-4.19h1.436l.95 1.483c.492.765.813 1.422 1.196 2.037h-.642c.389-.615.656-1.272 1.155-2.037l.971-1.484h1.408l-2.864 4.246v-.91L135.046 92h-1.429l-1.121-1.716c-.485-.745-.793-1.374-1.169-1.969h.65c-.376.595-.636 1.224-1.128 1.97L129.714 92h-1.422Zm8.278 2.857v-10.5h1.19v1.224h.136c.253-.403.725-1.32 2.215-1.32 1.908 0 3.241 1.518 3.241 3.938 0 2.434-1.327 3.965-3.234 3.965-1.456 0-1.969-.923-2.222-1.347h-.095v4.04h-1.231Zm3.364-3.793c1.428 0 2.167-1.272 2.167-2.878 0-1.586-.718-2.824-2.167-2.824-1.409 0-2.147 1.135-2.147 2.824 0 1.702.759 2.877 2.147 2.877Zm6.924.99c-1.148 0-1.715-.642-1.715-1.75v-8.49h1.23v8.183c0 .704.123.957.636.957.266 0 .376-.02.492-.055l.246 1.04a3.55 3.55 0 0 1-.889.116Zm5.045.11c-2.078 0-3.479-1.579-3.479-3.937 0-2.393 1.401-3.965 3.479-3.965 2.085 0 3.493 1.572 3.493 3.965 0 2.358-1.408 3.937-3.493 3.937Zm0-1.1c1.545 0 2.249-1.333 2.249-2.837 0-1.518-.704-2.865-2.249-2.865-1.524 0-2.228 1.34-2.228 2.865 0 1.504.704 2.837 2.228 2.837Zm5.285.936v-7.643h1.189v1.176h.082c.28-.772 1.073-1.285 1.982-1.285.178 0 .479.014.622.02v1.238a4.64 4.64 0 0 0-.738-.069c-1.1 0-1.907.746-1.907 1.778V92h-1.23Zm8.257.164c-2.215 0-3.582-1.572-3.582-3.924 0-2.344 1.354-3.978 3.439-3.978 1.62 0 3.329.998 3.329 3.821v.513h-5.934v-1.04h5.271l-.574.383c0-1.503-.711-2.583-2.092-2.583-1.381 0-2.195 1.141-2.195 2.385v.69c0 1.703.944 2.64 2.345 2.64.902 0 1.579-.397 1.866-1.177l1.19.329c-.356 1.155-1.497 1.941-3.063 1.941Zm10.117-4.744V92h-1.23V81.814h1.23v4.396h-.211c.464-1.408 1.353-1.948 2.508-1.948 1.545 0 2.591.95 2.591 2.885V92h-1.237v-4.751c0-1.176-.656-1.88-1.723-1.88-1.1 0-1.928.745-1.928 2.05Zm10.166 4.744c-2.079 0-3.48-1.579-3.48-3.937 0-2.393 1.401-3.965 3.48-3.965 2.084 0 3.493 1.572 3.493 3.965 0 2.358-1.409 3.937-3.493 3.937Zm0-1.1c1.544 0 2.249-1.333 2.249-2.837 0-1.518-.705-2.865-2.249-2.865-1.525 0-2.229 1.34-2.229 2.865 0 1.504.704 2.837 2.229 2.837Zm6.74.936-2.318-7.643h1.306l.93 3.336c.253.91.553 2.051.841 3.507h-.212c.273-1.394.56-2.536.827-3.507l.916-3.336h1.312l.903 3.336c.253.937.54 2.079.813 3.507h-.219c.287-1.415.581-2.55.848-3.507l.93-3.336h1.305L198.333 92h-1.224l-.991-3.459a72.016 72.016 0 0 1-.854-3.363h.273a69.91 69.91 0 0 1-.854 3.363L193.691 92h-1.223Zm17.951.137c-2.611 0-4.519-1.996-4.519-5.223 0-3.233 1.908-5.236 4.519-5.236 2.064 0 3.746 1.244 4.108 3.343h-1.298c-.288-1.395-1.484-2.14-2.81-2.14-1.832 0-3.254 1.422-3.254 4.033 0 2.605 1.429 4.02 3.254 4.02 1.333 0 2.522-.752 2.81-2.14h1.298c-.355 2.071-2.023 3.343-4.108 3.343Zm7.403-10.323V92h-1.299V81.814h1.299Zm5.961-.478-3.281 12.195h-1.135l3.281-12.195h1.135Zm5.667 10.8c-2.611 0-4.518-1.995-4.518-5.222 0-3.233 1.907-5.236 4.518-5.236 2.065 0 3.746 1.244 4.109 3.343h-1.299c-.287-1.395-1.484-2.14-2.81-2.14-1.832 0-3.254 1.422-3.254 4.033 0 2.605 1.429 4.02 3.254 4.02 1.333 0 2.523-.752 2.81-2.14h1.299c-.356 2.071-2.024 3.343-4.109 3.343Zm9.283-.136h-2.461v-1.148h2.379c2.482 0 3.685-1.49 3.685-3.965 0-2.448-1.203-3.924-3.562-3.924h-2.556v-1.148h2.645c2.974 0 4.731 1.913 4.731 5.072 0 3.185-1.757 5.113-4.861 5.113Zm-1.879-10.186V92h-1.299V81.814h1.299ZM251.161 92l-2.317-7.643h1.305l.93 3.336c.253.91.554 2.051.841 3.507h-.212c.273-1.394.561-2.536.827-3.507l.916-3.336h1.313l.902 3.336c.253.937.54 2.079.813 3.507h-.218a49.38 49.38 0 0 1 .847-3.507l.93-3.336h1.306L257.026 92h-1.223l-.991-3.459a71.977 71.977 0 0 1-.855-3.363h.273a69.91 69.91 0 0 1-.854 3.363L252.385 92h-1.224Zm12.592.164c-2.078 0-3.48-1.579-3.48-3.937 0-2.393 1.402-3.965 3.48-3.965 2.085 0 3.493 1.572 3.493 3.965 0 2.358-1.408 3.937-3.493 3.937Zm0-1.1c1.545 0 2.249-1.333 2.249-2.837 0-1.518-.704-2.865-2.249-2.865-1.524 0-2.229 1.34-2.229 2.865 0 1.504.705 2.837 2.229 2.837Zm5.284.936v-7.643h1.19v1.176h.082c.28-.772 1.073-1.285 1.982-1.285.178 0 .479.014.622.02v1.238a4.64 4.64 0 0 0-.738-.069c-1.101 0-1.907.746-1.907 1.778V92h-1.231Zm6.651-2.748v-1.524h.226l3.268-3.37h1.524l-3.534 3.63h-.137l-1.347 1.264ZM274.533 92V81.814h1.231V92h-1.231Zm4.833 0-2.926-3.74.875-.867 3.63 4.607h-1.579Zm5.448.164c-1.572 0-2.666-.697-2.939-2.017l1.169-.28c.219.841.841 1.217 1.757 1.217 1.066 0 1.75-.526 1.75-1.155 0-.527-.369-.875-1.121-1.053l-1.272-.3c-1.387-.329-2.051-1.012-2.051-2.086 0-1.312 1.204-2.228 2.831-2.228 1.572 0 2.399.765 2.748 1.839l-1.115.287c-.212-.547-.642-1.08-1.627-1.08-.909 0-1.592.471-1.592 1.107 0 .567.389.882 1.285 1.094l1.155.273c1.388.328 2.037 1.019 2.037 2.065 0 1.34-1.224 2.317-3.015 2.317Zm5.729-.075a.92.92 0 1 1 .923-.923.923.923 0 0 1-.923.923Z" fill="#3A383F"/><rect x="120.5" y="113.5" width="135" height="31" rx="3.5" fill="#1F75CB"/><rect x="120.5" y="113.5" width="135" height="31" rx="3.5" stroke="#1068BF"/><path d="M132.67 124.963v-1.149h7.697v1.149h-3.192V134h-1.299v-9.037h-3.206Zm8.654 9.037v-7.643h1.19v1.176h.082c.28-.772 1.073-1.285 1.982-1.285.178 0 .479.014.622.021v1.237a4.619 4.619 0 0 0-.738-.068c-1.101 0-1.907.745-1.907 1.777V134h-1.231Zm5.387 2.769.314-1.067.13.034c.752.199 1.292.035 1.668-1.059l.219-.636-2.919-7.684h1.347l1.627 4.533c.341.95.547 1.886.813 2.761h-.451c.26-.875.472-1.818.813-2.761l1.641-4.533h1.34l-3.357 8.785c-.464 1.216-1.203 1.77-2.283 1.77-.437 0-.772-.082-.902-.143Zm14.943-10.412v1.053h-3.951v-1.053h3.951Zm-2.802-1.818h1.23v7.479c0 .683.253.984.902.984.158 0 .424-.041.629-.082l.253 1.039a2.956 2.956 0 0 1-.916.137c-1.319 0-2.098-.732-2.098-1.983v-7.574Zm7.451 9.625c-2.215 0-3.582-1.572-3.582-3.924 0-2.344 1.353-3.978 3.438-3.978 1.62 0 3.329.998 3.329 3.821v.513h-5.933v-1.039h5.27l-.574.382c0-1.503-.711-2.584-2.092-2.584-1.381 0-2.194 1.142-2.194 2.386v.691c0 1.702.943 2.638 2.345 2.638.902 0 1.579-.396 1.866-1.175l1.189.328c-.355 1.155-1.497 1.941-3.062 1.941Zm7.547 0c-1.573 0-2.666-.697-2.94-2.017l1.169-.28c.219.841.841 1.217 1.757 1.217 1.066 0 1.75-.526 1.75-1.155 0-.527-.369-.875-1.121-1.053l-1.272-.301c-1.387-.328-2.05-1.012-2.05-2.085 0-1.312 1.203-2.228 2.83-2.228 1.572 0 2.399.765 2.748 1.839l-1.115.287c-.211-.547-.642-1.08-1.627-1.08-.909 0-1.592.471-1.592 1.107 0 .567.389.882 1.285 1.094l1.155.273c1.388.328 2.037 1.019 2.037 2.065 0 1.34-1.223 2.317-3.014 2.317Zm7.806-7.807v1.053h-3.951v-1.053h3.951Zm-2.802-1.818h1.23v7.479c0 .683.253.984.902.984.158 0 .424-.041.629-.082l.253 1.039a2.956 2.956 0 0 1-.916.137c-1.319 0-2.098-.732-2.098-1.983v-7.574Zm11.32 1.818v1.053h-3.951v-1.053h3.951Zm-2.803-1.818h1.231v7.479c0 .683.252.984.902.984.157 0 .424-.041.629-.082l.253 1.039a2.96 2.96 0 0 1-.916.137c-1.32 0-2.099-.732-2.099-1.983v-7.574Zm7.451 9.625c-2.215 0-3.582-1.572-3.582-3.924 0-2.344 1.354-3.978 3.439-3.978 1.62 0 3.329.998 3.329 3.821v.513h-5.934v-1.039h5.271l-.574.382c0-1.503-.711-2.584-2.092-2.584-1.381 0-2.195 1.142-2.195 2.386v.691c0 1.702.944 2.638 2.345 2.638.902 0 1.579-.396 1.866-1.175l1.19.328c-.356 1.155-1.497 1.941-3.063 1.941Zm4.949-.164v-7.643h1.197l.007 1.709h-.096c.308-1.237 1.244-1.845 2.235-1.845 1.108 0 1.812.752 2.017 1.859h-.164c.273-1.142 1.285-1.859 2.502-1.859 1.326 0 2.406.854 2.406 2.625V134h-1.237v-5.12c0-1.101-.718-1.538-1.538-1.538-1.033 0-1.662.704-1.662 1.668V134h-1.23v-5.243c0-.848-.636-1.415-1.497-1.415-.896 0-1.709.629-1.709 1.846V134h-1.231Zm12.264 2.857v-10.5h1.19v1.224h.136c.253-.403.725-1.319 2.215-1.319 1.907 0 3.24 1.517 3.24 3.937 0 2.434-1.326 3.965-3.233 3.965-1.456 0-1.969-.923-2.222-1.347h-.095v4.04h-1.231Zm3.363-3.794c1.429 0 2.167-1.271 2.167-2.877 0-1.586-.717-2.824-2.167-2.824-1.408 0-2.146 1.135-2.146 2.824 0 1.702.759 2.877 2.146 2.877Zm6.925.992c-1.148 0-1.716-.643-1.716-1.75v-8.491h1.231v8.183c0 .704.123.957.636.957.266 0 .376-.02.492-.055l.246 1.039a3.53 3.53 0 0 1-.889.117Zm4.28.123c-1.45 0-2.605-.848-2.605-2.352 0-1.75 1.559-2.071 2.974-2.249 1.36-.171 1.962-.13 1.962-.697v-.041c0-.95-.54-1.497-1.6-1.497-1.101 0-1.695.588-1.935 1.121l-1.182-.39c.588-1.387 1.9-1.811 3.083-1.811 1.025 0 2.864.314 2.864 2.7V134h-1.21v-1.039h-.082c-.26.54-.977 1.217-2.269 1.217Zm.211-1.087c1.361 0 2.12-.916 2.12-1.853v-1.059c-.205.239-1.545.376-2.017.437-.896.116-1.682.404-1.682 1.272 0 .793.663 1.203 1.579 1.203Zm8.518-6.734v1.053h-3.951v-1.053h3.951Zm-2.803-1.818h1.231v7.479c0 .683.253.984.902.984.157 0 .424-.041.629-.082l.253 1.039a2.96 2.96 0 0 1-.916.137c-1.319 0-2.099-.732-2.099-1.983v-7.574Zm7.451 9.625c-2.214 0-3.582-1.572-3.582-3.924 0-2.344 1.354-3.978 3.439-3.978 1.62 0 3.329.998 3.329 3.821v.513h-5.934v-1.039h5.271l-.574.382c0-1.503-.711-2.584-2.092-2.584-1.381 0-2.194 1.142-2.194 2.386v.691c0 1.702.943 2.638 2.344 2.638.903 0 1.579-.396 1.867-1.175l1.189.328c-.355 1.155-1.497 1.941-3.063 1.941Z" fill="#fff"/></g><g clip-path="url(#feature-discovery-banner__b)" style="mix-blend-mode:multiply"><path fill-rule="evenodd" clip-rule="evenodd" d="M932.28 19.22a.75.75 0 1 0-1.06 1.06l3.719 3.72-3.719 3.72a.75.75 0 1 0 1.06 1.06l3.72-3.72 3.72 3.72a.75.75 0 1 0 1.06-1.06L937.061 24l3.719-3.72a.75.75 0 1 0-1.06-1.06L936 22.94l-3.72-3.72Z" fill="#737278"/></g><defs><clipPath id="feature-discovery-banner__a"><path fill="#fff" transform="translate(120 24)" d="M0 0h792v121H0z"/></clipPath><clipPath id="feature-discovery-banner__b"><path fill="#fff" transform="translate(928 16)" d="M0 0h16v16H0z"/></clipPath></defs></svg>