<svg width="960" height="169" viewBox="0 0 960 169" fill="none" xmlns="http://www.w3.org/2000/svg">
<rect x="0.5" y="0.5" width="959" height="168" rx="3.5" fill="#E9F3FC"/>
<rect x="0.5" y="0.5" width="959" height="168" rx="3.5" stroke="#CBE2F9"/>
<rect width="72" height="72" rx="36" transform="matrix(-1 0 0 1 96 24)" fill="#E7E4F2"/>
<path d="M37 60L68 60" stroke="#171321" stroke-width="2" stroke-linecap="square"/>
<circle cx="37" cy="60" r="5" fill="#6FDAC9" stroke="#171321" stroke-width="2" stroke-linecap="square"/>
<circle cx="83" cy="60" r="6" fill="white" stroke="#171321" stroke-width="2" stroke-miterlimit="16" stroke-dasharray="2 2"/>
<circle cx="60" cy="60" r="11.5" fill="white"/>
<circle cx="60" cy="60" r="8" fill="#AEA5D6"/>
<path d="M60 55C60.7891 55 61.5669 55.1867 62.27 55.545C62.973 55.9032 63.5813 56.4227 64.0451 57.0611C64.5089 57.6994 64.815 58.4385 64.9384 59.2178C65.0619 59.9972 64.9991 60.7947 64.7553 61.5451C64.5115 62.2955 64.0935 62.9776 63.5355 63.5355C62.9776 64.0935 62.2955 64.5115 61.5451 64.7553C60.7947 64.9991 59.9972 65.0619 59.2178 64.9384C58.4385 64.815 57.6994 64.5089 57.0611 64.0451L60 60L60 55Z" fill="white"/>
<path d="M70.9532 63.504C71.7875 60.896 71.6639 58.0759 70.6045 55.551C69.5452 53.026 67.6197 50.9619 65.1743 49.7298C62.729 48.4978 59.9243 48.1788 57.2647 48.83C54.6051 49.4813 52.2651 51.0602 50.6657 53.2828C49.0663 55.5053 48.3124 58.2256 48.5397 60.9543C48.7669 63.683 49.9603 66.2412 51.9053 68.1685C53.8502 70.0959 56.4191 71.2661 59.1498 71.4685C61.8804 71.671 64.5938 70.8924 66.8017 69.2729" stroke="#171321" stroke-width="2" stroke-linecap="square"/>
<g clip-path="url(#clip0_37653_4891)">
<path d="M121.953 35.0352L121.689 29.4492H124.141L123.887 35.0352H121.953ZM125.811 35.0352L125.547 29.4492H128.008L127.744 35.0352H125.811ZM130.786 44V29.4492H133.472V35.4258H140.093V29.4492H142.779V44H140.093V37.7207H133.472V44H130.786ZM149.746 44.2344C146.563 44.2344 144.58 42.0078 144.58 38.7559C144.58 35.5234 146.621 33.248 149.62 33.248C152.491 33.248 154.61 35.25 154.61 38.6777V39.4102H145.655V37.6719H153.33L152.149 38.1504C152.149 36.4023 151.231 35.2695 149.649 35.2695C148.077 35.2695 147.12 36.4219 147.12 38.0723V39.2344C147.12 41.0898 148.135 42.2227 149.795 42.2227C150.957 42.2227 151.788 41.6855 152.08 40.8066L154.473 41.002C154.024 42.9258 152.188 44.2344 149.746 44.2344ZM159.361 44.0293C157.193 44.0293 156.255 43.1992 156.255 41.3145V29.4492H158.843V40.9922C158.843 41.7344 159.058 41.9883 159.732 41.9883C159.937 41.9883 160.093 41.9785 160.22 41.959L160.406 43.9414C160.132 43.9902 159.761 44.0293 159.361 44.0293ZM164.708 44.0293C162.54 44.0293 161.602 43.1992 161.602 41.3145V29.4492H164.19V40.9922C164.19 41.7344 164.405 41.9883 165.079 41.9883C165.284 41.9883 165.44 41.9785 165.567 41.959L165.753 43.9414C165.479 43.9902 165.108 44.0293 164.708 44.0293ZM171.334 44.2344C168.219 44.2344 166.168 42.0273 166.168 38.7559C166.168 35.4648 168.219 33.248 171.334 33.248C174.459 33.248 176.51 35.4648 176.51 38.7559C176.51 42.0273 174.459 44.2344 171.334 44.2344ZM171.334 42.1152C172.955 42.1152 173.893 40.748 173.893 38.7461C173.893 36.7344 172.955 35.3672 171.334 35.3672C169.723 35.3672 168.785 36.7246 168.785 38.7461C168.785 40.7578 169.723 42.1152 171.334 42.1152ZM184.977 44L181.764 33.4434H184.479L185.524 37.4473C185.885 38.8828 186.246 40.4941 186.608 42.2324H186.266C186.637 40.5234 187.028 38.9023 187.418 37.4473L188.493 33.4434H190.885L191.95 37.4473C192.321 38.8926 192.711 40.5039 193.082 42.2324H192.741C193.092 40.5137 193.454 38.9023 193.815 37.4473L194.86 33.4434H197.604L194.381 44H191.735L190.485 39.6934C190.114 38.4141 189.782 36.9004 189.43 35.5332H189.938C189.586 36.8906 189.245 38.4238 188.873 39.6934L187.614 44H184.977ZM203.234 44.2344C200.119 44.2344 198.068 42.0273 198.068 38.7559C198.068 35.4648 200.119 33.248 203.234 33.248C206.359 33.248 208.41 35.4648 208.41 38.7559C208.41 42.0273 206.359 44.2344 203.234 44.2344ZM203.234 42.1152C204.855 42.1152 205.793 40.748 205.793 38.7461C205.793 36.7344 204.855 35.3672 203.234 35.3672C201.623 35.3672 200.685 36.7246 200.685 38.7461C200.685 40.7578 201.623 42.1152 203.234 42.1152ZM210.095 44V33.4434H212.595V35.2207H212.663C213.044 33.9902 213.932 33.3262 215.231 33.3262C215.554 33.3262 215.876 33.3555 216.1 33.3848V35.6895C215.895 35.6504 215.368 35.5918 214.909 35.5918C213.639 35.5918 212.682 36.4707 212.682 37.9746V44H210.095ZM220.695 44.0293C218.527 44.0293 217.59 43.1992 217.59 41.3145V29.4492H220.178V40.9922C220.178 41.7344 220.393 41.9883 221.066 41.9883C221.271 41.9883 221.428 41.9785 221.555 41.959L221.74 43.9414C221.467 43.9902 221.096 44.0293 220.695 44.0293ZM226.628 44.2051C223.982 44.2051 222.155 42.0957 222.155 38.7266C222.155 35.3574 224.03 33.2676 226.618 33.2676C228.191 33.2676 229.167 34.0586 229.714 35.0449H229.773V29.4492H232.351V44H229.812V42.3594H229.743C229.206 43.4043 228.191 44.2051 226.628 44.2051ZM227.292 42.0762C228.884 42.0762 229.87 40.748 229.87 38.7266C229.87 36.7051 228.894 35.3867 227.292 35.3867C225.72 35.3867 224.782 36.6758 224.782 38.7266C224.782 40.7871 225.73 42.0762 227.292 42.0762ZM235.295 35.0352L235.032 29.4492H237.483L237.229 35.0352H235.295ZM239.153 35.0352L238.889 29.4492H241.35L241.086 35.0352H239.153ZM250.804 44L247.591 33.4434H250.305L251.35 37.4473C251.712 38.8828 252.073 40.4941 252.434 42.2324H252.093C252.464 40.5234 252.854 38.9023 253.245 37.4473L254.319 33.4434H256.712L257.776 37.4473C258.147 38.8926 258.538 40.5039 258.909 42.2324H258.567C258.919 40.5137 259.28 38.9023 259.641 37.4473L260.686 33.4434H263.43L260.208 44H257.561L256.311 39.6934C255.94 38.4141 255.608 36.9004 255.257 35.5332H255.764C255.413 36.8906 255.071 38.4238 254.7 39.6934L253.44 44H250.804ZM264.676 44V33.4434H267.264V44H264.676ZM265.965 31.9102C265.145 31.9102 264.48 31.2754 264.48 30.4746C264.48 29.6836 265.145 29.0488 265.965 29.0488C266.795 29.0488 267.459 29.6836 267.459 30.4746C267.459 31.2754 266.795 31.9102 265.965 31.9102ZM274.896 33.4434V35.4844H268.519V33.4434H274.896ZM270.208 30.7188H272.796V40.9629C272.796 41.7051 273.06 41.9883 273.841 41.9883C274.124 41.9883 274.603 41.959 274.857 41.9395L275.023 43.9707C274.573 44.0391 273.958 44.0684 273.402 44.0684C271.273 44.0684 270.208 43.1309 270.208 41.2754V30.7188ZM278.993 37.9648V44H276.405V29.4492H278.973V36.1094H278.563C279.188 34.2637 280.379 33.2676 282.186 33.2676C284.383 33.2676 285.877 34.7324 285.877 37.3594V44H283.289V37.7793C283.289 36.3047 282.528 35.4941 281.229 35.4941C279.93 35.4941 278.993 36.3047 278.993 37.9648ZM298.973 44.2246C294.93 44.2246 292.157 41.2656 292.157 36.7441C292.157 32.1152 295.048 29.2344 298.925 29.2344C302.167 29.2344 304.745 31.2656 305.165 34.2148H302.43C302.04 32.6426 300.77 31.6367 298.973 31.6367C296.503 31.6367 294.862 33.5605 294.862 36.7344C294.862 39.8984 296.493 41.8223 299.012 41.8223C301.171 41.8223 302.655 40.4648 302.655 38.4141L303.3 38.4824H299.325V36.3828H305.272V38.1504C305.272 41.793 302.626 44.2246 298.973 44.2246ZM307.152 44V33.4434H309.74V44H307.152ZM308.441 31.9102C307.621 31.9102 306.957 31.2754 306.957 30.4746C306.957 29.6836 307.621 29.0488 308.441 29.0488C309.271 29.0488 309.936 29.6836 309.936 30.4746C309.936 31.2754 309.271 31.9102 308.441 31.9102ZM317.372 33.4434V35.4844H310.995V33.4434H317.372ZM312.685 30.7188H315.273V40.9629C315.273 41.7051 315.536 41.9883 316.318 41.9883C316.601 41.9883 317.079 41.959 317.333 41.9395L317.499 43.9707C317.05 44.0391 316.435 44.0684 315.878 44.0684C313.749 44.0684 312.685 43.1309 312.685 41.2754V30.7188ZM318.989 44V29.4492H321.674V41.7148H328.256V44H318.989ZM332.949 44.1953C330.879 44.1953 329.345 43.1211 329.345 41.0215C329.345 38.6387 331.308 38.0234 333.437 37.7988C335.332 37.5938 336.045 37.5547 336.045 36.8418V36.7734C336.045 35.8457 335.371 35.2402 334.199 35.2402C332.998 35.2402 332.236 35.8652 332.089 36.666L329.648 36.4707C329.98 34.459 331.699 33.2676 334.228 33.2676C336.699 33.2676 338.613 34.4199 338.613 36.8613V44H336.113V42.5254H336.045C335.546 43.4727 334.609 44.1953 332.949 44.1953ZM333.613 42.3105C335.156 42.3105 336.064 41.3438 336.064 40.1523V38.9902C335.742 39.2148 334.638 39.3711 333.779 39.498C332.705 39.6543 331.845 40.0547 331.845 40.9824C331.845 41.832 332.558 42.3105 333.613 42.3105ZM346.489 44.2051C344.936 44.2051 343.921 43.4043 343.384 42.3594H343.305V44H340.766V29.4492H343.354V35.0449H343.403C343.95 34.0586 344.927 33.2676 346.509 33.2676C349.096 33.2676 350.971 35.3574 350.971 38.7266C350.971 42.0957 349.136 44.2051 346.489 44.2051ZM345.825 42.0762C347.387 42.0762 348.345 40.7871 348.345 38.7266C348.345 36.6758 347.397 35.3867 345.825 35.3867C344.223 35.3867 343.247 36.7051 343.247 38.7266C343.247 40.748 344.233 42.0762 345.825 42.0762ZM363.56 44.2246C359.624 44.2246 356.773 41.3535 356.773 36.7344C356.773 32.0957 359.634 29.2344 363.56 29.2344C366.841 29.2344 369.341 31.2168 369.81 34.4102H367.095C366.743 32.6426 365.386 31.6367 363.599 31.6367C361.079 31.6367 359.478 33.5703 359.478 36.7344C359.478 39.918 361.089 41.8223 363.599 41.8223C365.376 41.8223 366.734 40.8164 367.095 39.0586H369.81C369.37 42.0762 366.958 44.2246 363.56 44.2246ZM374.346 29.4492V44H371.661V29.4492H374.346Z" fill="#18171D"/>
<path d="M125.394 72.1367C122.673 72.1367 120.834 70.1338 120.834 66.9141C120.834 63.6807 122.7 61.6777 125.312 61.6777C127.465 61.6777 129.126 63.0312 129.495 65.0068H128.155C127.738 63.7012 126.761 62.8809 125.318 62.8809C123.527 62.8809 122.099 64.2959 122.099 66.9141C122.099 69.5117 123.521 70.9336 125.394 70.9336C127.116 70.9336 128.299 69.7715 128.299 67.9395L128.688 68.0146H125.66V66.8799H129.57V67.9941C129.57 70.5234 127.82 72.1367 125.394 72.1367ZM134.738 72.1641C132.523 72.1641 131.156 70.5918 131.156 68.2402C131.156 65.8955 132.51 64.2617 134.595 64.2617C136.215 64.2617 137.924 65.2598 137.924 68.083V68.5957H131.99V67.5566H137.261L136.687 67.9395C136.687 66.4355 135.976 65.3555 134.595 65.3555C133.214 65.3555 132.4 66.4971 132.4 67.7412V68.4316C132.4 70.1338 133.344 71.0703 134.745 71.0703C135.647 71.0703 136.324 70.6738 136.611 69.8945L137.801 70.2227C137.445 71.3779 136.304 72.1641 134.738 72.1641ZM142.695 64.3574V65.4102H138.744V64.3574H142.695ZM139.893 62.5391H141.123V70.0176C141.123 70.7012 141.376 71.002 142.025 71.002C142.183 71.002 142.449 70.9609 142.654 70.9199L142.907 71.959C142.654 72.0479 142.306 72.0957 141.991 72.0957C140.672 72.0957 139.893 71.3643 139.893 70.1133V62.5391ZM151.76 64.3574V65.4102H147.262V64.3574H151.76ZM148.766 72V63.3389C148.766 62.0127 149.825 61.3359 150.939 61.3359C151.521 61.3359 151.903 61.459 152.088 61.541L151.746 62.5938C151.616 62.5527 151.425 62.4775 151.083 62.4775C150.324 62.4775 149.996 62.874 149.996 63.6123V72H148.766ZM155.308 72.1777C153.858 72.1777 152.703 71.3301 152.703 69.8262C152.703 68.0762 154.262 67.7549 155.677 67.5771C157.037 67.4062 157.639 67.4473 157.639 66.8799V66.8389C157.639 65.8887 157.099 65.3418 156.039 65.3418C154.938 65.3418 154.344 65.9297 154.104 66.4629L152.922 66.0732C153.51 64.6855 154.822 64.2617 156.005 64.2617C157.03 64.2617 158.869 64.5762 158.869 66.9619V72H157.659V70.9609H157.577C157.317 71.501 156.6 72.1777 155.308 72.1777ZM155.52 71.0908C156.88 71.0908 157.639 70.1748 157.639 69.2383V68.1787C157.434 68.418 156.094 68.5547 155.622 68.6162C154.727 68.7324 153.94 69.0195 153.94 69.8877C153.94 70.6807 154.604 71.0908 155.52 71.0908ZM161.029 72V64.3574H162.226L162.232 66.0664H162.137C162.444 64.8291 163.381 64.2207 164.372 64.2207C165.479 64.2207 166.184 64.9727 166.389 66.0801H166.225C166.498 64.9385 167.51 64.2207 168.727 64.2207C170.053 64.2207 171.133 65.0752 171.133 66.8457V72H169.896V66.8799C169.896 65.7793 169.178 65.3418 168.357 65.3418C167.325 65.3418 166.696 66.0459 166.696 67.0098V72H165.466V66.7568C165.466 65.9092 164.83 65.3418 163.969 65.3418C163.073 65.3418 162.26 65.9707 162.26 67.1875V72H161.029ZM173.293 72V64.3574H174.523V72H173.293ZM173.915 63.1064C173.45 63.1064 173.061 62.7441 173.061 62.293C173.061 61.8418 173.45 61.4795 173.915 61.4795C174.387 61.4795 174.776 61.8418 174.776 62.293C174.776 62.7441 174.387 63.1064 173.915 63.1064ZM178.399 72.0547C177.251 72.0547 176.684 71.4121 176.684 70.3047V61.8145H177.914V69.9971C177.914 70.7012 178.037 70.9541 178.55 70.9541C178.816 70.9541 178.926 70.9336 179.042 70.8994L179.288 71.9385C179.069 72 178.728 72.0547 178.399 72.0547ZM180.539 72V64.3574H181.77V72H180.539ZM181.161 63.1064C180.696 63.1064 180.307 62.7441 180.307 62.293C180.307 61.8418 180.696 61.4795 181.161 61.4795C181.633 61.4795 182.022 61.8418 182.022 62.293C182.022 62.7441 181.633 63.1064 181.161 63.1064ZM186.069 72.1777C184.62 72.1777 183.465 71.3301 183.465 69.8262C183.465 68.0762 185.023 67.7549 186.438 67.5771C187.799 67.4062 188.4 67.4473 188.4 66.8799V66.8389C188.4 65.8887 187.86 65.3418 186.801 65.3418C185.7 65.3418 185.105 65.9297 184.866 66.4629L183.684 66.0732C184.271 64.6855 185.584 64.2617 186.767 64.2617C187.792 64.2617 189.631 64.5762 189.631 66.9619V72H188.421V70.9609H188.339C188.079 71.501 187.361 72.1777 186.069 72.1777ZM186.281 71.0908C187.642 71.0908 188.4 70.1748 188.4 69.2383V68.1787C188.195 68.418 186.855 68.5547 186.384 68.6162C185.488 68.7324 184.702 69.0195 184.702 69.8877C184.702 70.6807 185.365 71.0908 186.281 71.0908ZM191.791 72V64.3574H192.98V65.5332H193.062C193.343 64.7607 194.136 64.248 195.045 64.248C195.223 64.248 195.523 64.2617 195.667 64.2686V65.5059C195.592 65.4922 195.257 65.4375 194.929 65.4375C193.828 65.4375 193.021 66.1826 193.021 67.2148V72H191.791ZM202.722 72L200.404 64.3574H201.71L202.64 67.6934C202.893 68.6025 203.193 69.7441 203.48 71.2002H203.269C203.542 69.8057 203.829 68.6641 204.096 67.6934L205.012 64.3574H206.324L207.227 67.6934C207.479 68.6299 207.767 69.7715 208.04 71.2002H207.821C208.108 69.7852 208.402 68.6504 208.669 67.6934L209.599 64.3574H210.904L208.587 72H207.363L206.372 68.541C206.071 67.4951 205.798 66.3672 205.518 65.1777H205.791C205.518 66.3535 205.23 67.5156 204.937 68.541L203.945 72H202.722ZM212.463 72V64.3574H213.693V72H212.463ZM213.085 63.1064C212.62 63.1064 212.23 62.7441 212.23 62.293C212.23 61.8418 212.62 61.4795 213.085 61.4795C213.557 61.4795 213.946 61.8418 213.946 62.293C213.946 62.7441 213.557 63.1064 213.085 63.1064ZM218.861 64.3574V65.4102H214.91V64.3574H218.861ZM216.059 62.5391H217.289V70.0176C217.289 70.7012 217.542 71.002 218.191 71.002C218.349 71.002 218.615 70.9609 218.82 70.9199L219.073 71.959C218.82 72.0479 218.472 72.0957 218.157 72.0957C216.838 72.0957 216.059 71.3643 216.059 70.1133V62.5391ZM221.664 67.4199V72H220.434V61.8145H221.664V66.21H221.452C221.917 64.8018 222.806 64.2617 223.961 64.2617C225.506 64.2617 226.552 65.2119 226.552 67.1465V72H225.314V67.249C225.314 66.0732 224.658 65.3691 223.592 65.3691C222.491 65.3691 221.664 66.1143 221.664 67.4199ZM236.97 72.1367C234.249 72.1367 232.41 70.1338 232.41 66.9141C232.41 63.6807 234.276 61.6777 236.888 61.6777C239.041 61.6777 240.702 63.0312 241.071 65.0068H239.731C239.314 63.7012 238.337 62.8809 236.895 62.8809C235.104 62.8809 233.675 64.2959 233.675 66.9141C233.675 69.5117 235.097 70.9336 236.97 70.9336C238.692 70.9336 239.875 69.7715 239.875 67.9395L240.265 68.0146H237.236V66.8799H241.146V67.9941C241.146 70.5234 239.396 72.1367 236.97 72.1367ZM243.102 72V64.3574H244.332V72H243.102ZM243.724 63.1064C243.259 63.1064 242.869 62.7441 242.869 62.293C242.869 61.8418 243.259 61.4795 243.724 61.4795C244.195 61.4795 244.585 61.8418 244.585 62.293C244.585 62.7441 244.195 63.1064 243.724 63.1064ZM249.5 64.3574V65.4102H245.549V64.3574H249.5ZM246.697 62.5391H247.928V70.0176C247.928 70.7012 248.181 71.002 248.83 71.002C248.987 71.002 249.254 70.9609 249.459 70.9199L249.712 71.959C249.459 72.0479 249.11 72.0957 248.796 72.0957C247.477 72.0957 246.697 71.3643 246.697 70.1133V62.5391ZM251.223 72V61.8145H252.521V70.8516H257.238V72H251.223ZM261.128 72.1777C259.679 72.1777 258.523 71.3301 258.523 69.8262C258.523 68.0762 260.082 67.7549 261.497 67.5771C262.857 67.4062 263.459 67.4473 263.459 66.8799V66.8389C263.459 65.8887 262.919 65.3418 261.859 65.3418C260.759 65.3418 260.164 65.9297 259.925 66.4629L258.742 66.0732C259.33 64.6855 260.643 64.2617 261.825 64.2617C262.851 64.2617 264.689 64.5762 264.689 66.9619V72H263.479V70.9609H263.397C263.138 71.501 262.42 72.1777 261.128 72.1777ZM261.34 71.0908C262.7 71.0908 263.459 70.1748 263.459 69.2383V68.1787C263.254 68.418 261.914 68.5547 261.442 68.6162C260.547 68.7324 259.761 69.0195 259.761 69.8877C259.761 70.6807 260.424 71.0908 261.34 71.0908ZM270.397 72.1641C268.941 72.1641 268.429 71.2412 268.176 70.8174H268.039V72H266.85V61.8145H268.08V65.5811H268.176C268.429 65.1777 268.9 64.2617 270.391 64.2617C272.298 64.2617 273.631 65.7793 273.631 68.1992C273.631 70.6328 272.305 72.1641 270.397 72.1641ZM270.213 71.0635C271.642 71.0635 272.38 69.792 272.38 68.1855C272.38 66.5996 271.662 65.3623 270.213 65.3623C268.805 65.3623 268.066 66.4971 268.066 68.1855C268.066 69.8877 268.825 71.0635 270.213 71.0635ZM283.632 72.1367C281.021 72.1367 279.113 70.1406 279.113 66.9141C279.113 63.6807 281.021 61.6777 283.632 61.6777C285.696 61.6777 287.378 62.9219 287.74 65.0205H286.441C286.154 63.626 284.958 62.8809 283.632 62.8809C281.8 62.8809 280.378 64.3027 280.378 66.9141C280.378 69.5186 281.807 70.9336 283.632 70.9336C284.965 70.9336 286.154 70.1816 286.441 68.7939H287.74C287.385 70.8652 285.717 72.1367 283.632 72.1367ZM291.035 61.8145V72H289.736V61.8145H291.035ZM299.881 72.1641C298.309 72.1641 297.215 71.4668 296.941 70.1475L298.11 69.8672C298.329 70.708 298.951 71.084 299.867 71.084C300.934 71.084 301.617 70.5576 301.617 69.9287C301.617 69.4023 301.248 69.0537 300.496 68.876L299.225 68.5752C297.837 68.2471 297.174 67.5635 297.174 66.4902C297.174 65.1777 298.377 64.2617 300.004 64.2617C301.576 64.2617 302.403 65.0273 302.752 66.1006L301.638 66.3877C301.426 65.8408 300.995 65.3076 300.011 65.3076C299.102 65.3076 298.418 65.7793 298.418 66.415C298.418 66.9824 298.808 67.2969 299.703 67.5088L300.858 67.7822C302.246 68.1104 302.896 68.8008 302.896 69.8467C302.896 71.1865 301.672 72.1641 299.881 72.1641ZM304.557 74.7686L304.871 73.7021L305.001 73.7363C305.753 73.9346 306.293 73.7705 306.669 72.6768L306.888 72.041L303.969 64.3574H305.315L306.942 68.8896C307.284 69.8398 307.489 70.7764 307.756 71.6514H307.305C307.564 70.7764 307.776 69.833 308.118 68.8896L309.759 64.3574H311.099L307.742 73.1416C307.277 74.3584 306.539 74.9121 305.459 74.9121C305.021 74.9121 304.687 74.8301 304.557 74.7686ZM313.785 67.4199V72H312.555V64.3574H313.737L313.744 66.21H313.573C314.038 64.8018 314.927 64.2617 316.082 64.2617C317.627 64.2617 318.673 65.2119 318.673 67.1465V72H317.436V67.249C317.436 66.0732 316.779 65.3691 315.713 65.3691C314.612 65.3691 313.785 66.1143 313.785 67.4199ZM323.848 64.3574V65.4102H319.896V64.3574H323.848ZM321.045 62.5391H322.275V70.0176C322.275 70.7012 322.528 71.002 323.178 71.002C323.335 71.002 323.602 70.9609 323.807 70.9199L324.06 71.959C323.807 72.0479 323.458 72.0957 323.144 72.0957C321.824 72.0957 321.045 71.3643 321.045 70.1133V62.5391ZM327.628 72.1777C326.179 72.1777 325.023 71.3301 325.023 69.8262C325.023 68.0762 326.582 67.7549 327.997 67.5771C329.357 67.4062 329.959 67.4473 329.959 66.8799V66.8389C329.959 65.8887 329.419 65.3418 328.359 65.3418C327.259 65.3418 326.664 65.9297 326.425 66.4629L325.242 66.0732C325.83 64.6855 327.143 64.2617 328.325 64.2617C329.351 64.2617 331.189 64.5762 331.189 66.9619V72H329.979V70.9609H329.897C329.638 71.501 328.92 72.1777 327.628 72.1777ZM327.84 71.0908C329.2 71.0908 329.959 70.1748 329.959 69.2383V68.1787C329.754 68.418 328.414 68.5547 327.942 68.6162C327.047 68.7324 326.261 69.0195 326.261 69.8877C326.261 70.6807 326.924 71.0908 327.84 71.0908ZM332.714 72L335.729 67.6045L335.722 68.5479L332.871 64.3574H334.307L335.257 65.8408C335.749 66.6064 336.07 67.2627 336.453 67.8779H335.811C336.2 67.2627 336.467 66.6064 336.966 65.8408L337.937 64.3574H339.345L336.48 68.6025V67.6934L339.468 72H338.039L336.918 70.2842C336.433 69.5391 336.125 68.9102 335.749 68.3154H336.398C336.022 68.9102 335.763 69.5391 335.271 70.2842L334.136 72H332.714ZM348.478 72.1641C347.021 72.1641 346.509 71.2412 346.256 70.8174H346.119V72H344.93V61.8145H346.16V65.5811H346.256C346.509 65.1777 346.98 64.2617 348.471 64.2617C350.378 64.2617 351.711 65.7793 351.711 68.1992C351.711 70.6328 350.385 72.1641 348.478 72.1641ZM348.293 71.0635C349.722 71.0635 350.46 69.792 350.46 68.1855C350.46 66.5996 349.742 65.3623 348.293 65.3623C346.885 65.3623 346.146 66.4971 346.146 68.1855C346.146 69.8877 346.905 71.0635 348.293 71.0635ZM353.105 74.7686L353.42 73.7021L353.55 73.7363C354.302 73.9346 354.842 73.7705 355.218 72.6768L355.437 72.041L352.518 64.3574H353.864L355.491 68.8896C355.833 69.8398 356.038 70.7764 356.305 71.6514H355.854C356.113 70.7764 356.325 69.833 356.667 68.8896L358.308 64.3574H359.647L356.291 73.1416C355.826 74.3584 355.088 74.9121 354.008 74.9121C353.57 74.9121 353.235 74.8301 353.105 74.7686ZM367.639 72.1641C366.066 72.1641 364.973 71.4668 364.699 70.1475L365.868 69.8672C366.087 70.708 366.709 71.084 367.625 71.084C368.691 71.084 369.375 70.5576 369.375 69.9287C369.375 69.4023 369.006 69.0537 368.254 68.876L366.982 68.5752C365.595 68.2471 364.932 67.5635 364.932 66.4902C364.932 65.1777 366.135 64.2617 367.762 64.2617C369.334 64.2617 370.161 65.0273 370.51 66.1006L369.396 66.3877C369.184 65.8408 368.753 65.3076 367.769 65.3076C366.859 65.3076 366.176 65.7793 366.176 66.415C366.176 66.9824 366.565 67.2969 367.461 67.5088L368.616 67.7822C370.004 68.1104 370.653 68.8008 370.653 69.8467C370.653 71.1865 369.43 72.1641 367.639 72.1641ZM375.65 72.1641C373.436 72.1641 372.068 70.5918 372.068 68.2402C372.068 65.8955 373.422 64.2617 375.507 64.2617C377.127 64.2617 378.836 65.2598 378.836 68.083V68.5957H372.902V67.5566H378.173L377.599 67.9395C377.599 66.4355 376.888 65.3555 375.507 65.3555C374.126 65.3555 373.312 66.4971 373.312 67.7412V68.4316C373.312 70.1338 374.256 71.0703 375.657 71.0703C376.56 71.0703 377.236 70.6738 377.523 69.8945L378.713 70.2227C378.357 71.3779 377.216 72.1641 375.65 72.1641ZM383.607 64.3574V65.4102H379.656V64.3574H383.607ZM380.805 62.5391H382.035V70.0176C382.035 70.7012 382.288 71.002 382.938 71.002C383.095 71.002 383.361 70.9609 383.566 70.9199L383.819 71.959C383.566 72.0479 383.218 72.0957 382.903 72.0957C381.584 72.0957 380.805 71.3643 380.805 70.1133V62.5391ZM387.846 64.3574V65.4102H383.895V64.3574H387.846ZM385.043 62.5391H386.273V70.0176C386.273 70.7012 386.526 71.002 387.176 71.002C387.333 71.002 387.6 70.9609 387.805 70.9199L388.058 71.959C387.805 72.0479 387.456 72.0957 387.142 72.0957C385.822 72.0957 385.043 71.3643 385.043 70.1133V62.5391ZM389.418 72V64.3574H390.648V72H389.418ZM390.04 63.1064C389.575 63.1064 389.186 62.7441 389.186 62.293C389.186 61.8418 389.575 61.4795 390.04 61.4795C390.512 61.4795 390.901 61.8418 390.901 62.293C390.901 62.7441 390.512 63.1064 390.04 63.1064ZM394.039 67.4199V72H392.809V64.3574H393.991L393.998 66.21H393.827C394.292 64.8018 395.181 64.2617 396.336 64.2617C397.881 64.2617 398.927 65.2119 398.927 67.1465V72H397.689V67.249C397.689 66.0732 397.033 65.3691 395.967 65.3691C394.866 65.3691 394.039 66.1143 394.039 67.4199ZM404.19 75.0215C402.495 75.0215 401.518 74.3037 401.046 73.4629L402.044 72.8203C402.365 73.2646 402.844 73.9482 404.19 73.9482C405.407 73.9482 406.289 73.3877 406.289 72.1299V70.5986H406.173C405.913 71.0361 405.428 71.877 403.951 71.877C402.119 71.877 400.725 70.5439 400.725 68.1445C400.725 65.7793 402.071 64.2617 403.979 64.2617C405.455 64.2617 405.947 65.1709 406.207 65.5811H406.323V64.3574H407.52V72.1982C407.52 74.1738 406.05 75.0215 404.19 75.0215ZM404.156 70.7832C405.544 70.7832 406.303 69.7852 406.303 68.1172C406.303 66.4971 405.564 65.3623 404.156 65.3623C402.7 65.3623 401.976 66.5928 401.976 68.1172C401.976 69.6895 402.721 70.7832 404.156 70.7832ZM416.208 72.0957C414.663 72.0957 413.617 71.1455 413.617 69.2109V64.3574H414.848V69.1084C414.848 70.2842 415.511 70.9883 416.577 70.9883C417.671 70.9883 418.498 70.2432 418.498 68.9375V64.3574H419.735V72H418.546V70.1475H418.71C418.238 71.583 417.329 72.0957 416.208 72.0957ZM421.902 74.8574V64.3574H423.092V65.5811H423.229C423.481 65.1777 423.953 64.2617 425.443 64.2617C427.351 64.2617 428.684 65.7793 428.684 68.1992C428.684 70.6328 427.357 72.1641 425.45 72.1641C423.994 72.1641 423.481 71.2412 423.229 70.8174H423.133V74.8574H421.902ZM425.266 71.0635C426.694 71.0635 427.433 69.792 427.433 68.1855C427.433 66.5996 426.715 65.3623 425.266 65.3623C423.857 65.3623 423.119 66.4971 423.119 68.1855C423.119 69.8877 423.878 71.0635 425.266 71.0635ZM436.552 72.1777C435.103 72.1777 433.947 71.3301 433.947 69.8262C433.947 68.0762 435.506 67.7549 436.921 67.5771C438.281 67.4062 438.883 67.4473 438.883 66.8799V66.8389C438.883 65.8887 438.343 65.3418 437.283 65.3418C436.183 65.3418 435.588 65.9297 435.349 66.4629L434.166 66.0732C434.754 64.6855 436.066 64.2617 437.249 64.2617C438.274 64.2617 440.113 64.5762 440.113 66.9619V72H438.903V70.9609H438.821C438.562 71.501 437.844 72.1777 436.552 72.1777ZM436.764 71.0908C438.124 71.0908 438.883 70.1748 438.883 69.2383V68.1787C438.678 68.418 437.338 68.5547 436.866 68.6162C435.971 68.7324 435.185 69.0195 435.185 69.8877C435.185 70.6807 435.848 71.0908 436.764 71.0908ZM448.809 72.1641C447.236 72.1641 446.143 71.4668 445.869 70.1475L447.038 69.8672C447.257 70.708 447.879 71.084 448.795 71.084C449.861 71.084 450.545 70.5576 450.545 69.9287C450.545 69.4023 450.176 69.0537 449.424 68.876L448.152 68.5752C446.765 68.2471 446.102 67.5635 446.102 66.4902C446.102 65.1777 447.305 64.2617 448.932 64.2617C450.504 64.2617 451.331 65.0273 451.68 66.1006L450.565 66.3877C450.354 65.8408 449.923 65.3076 448.938 65.3076C448.029 65.3076 447.346 65.7793 447.346 66.415C447.346 66.9824 447.735 67.2969 448.631 67.5088L449.786 67.7822C451.174 68.1104 451.823 68.8008 451.823 69.8467C451.823 71.1865 450.6 72.1641 448.809 72.1641ZM453.607 72V64.3574H454.838V72H453.607ZM454.229 63.1064C453.765 63.1064 453.375 62.7441 453.375 62.293C453.375 61.8418 453.765 61.4795 454.229 61.4795C454.701 61.4795 455.091 61.8418 455.091 62.293C455.091 62.7441 454.701 63.1064 454.229 63.1064ZM456.998 72V64.3574H458.194L458.201 66.0664H458.105C458.413 64.8291 459.35 64.2207 460.341 64.2207C461.448 64.2207 462.152 64.9727 462.357 66.0801H462.193C462.467 64.9385 463.479 64.2207 464.695 64.2207C466.021 64.2207 467.102 65.0752 467.102 66.8457V72H465.864V66.8799C465.864 65.7793 465.146 65.3418 464.326 65.3418C463.294 65.3418 462.665 66.0459 462.665 67.0098V72H461.435V66.7568C461.435 65.9092 460.799 65.3418 459.938 65.3418C459.042 65.3418 458.229 65.9707 458.229 67.1875V72H456.998ZM469.262 74.8574V64.3574H470.451V65.5811H470.588C470.841 65.1777 471.312 64.2617 472.803 64.2617C474.71 64.2617 476.043 65.7793 476.043 68.1992C476.043 70.6328 474.717 72.1641 472.81 72.1641C471.354 72.1641 470.841 71.2412 470.588 70.8174H470.492V74.8574H469.262ZM472.625 71.0635C474.054 71.0635 474.792 69.792 474.792 68.1855C474.792 66.5996 474.074 65.3623 472.625 65.3623C471.217 65.3623 470.479 66.4971 470.479 68.1855C470.479 69.8877 471.237 71.0635 472.625 71.0635ZM479.55 72.0547C478.401 72.0547 477.834 71.4121 477.834 70.3047V61.8145H479.064V69.9971C479.064 70.7012 479.188 70.9541 479.7 70.9541C479.967 70.9541 480.076 70.9336 480.192 70.8994L480.438 71.9385C480.22 72 479.878 72.0547 479.55 72.0547ZM484.697 72.1641C482.482 72.1641 481.115 70.5918 481.115 68.2402C481.115 65.8955 482.469 64.2617 484.554 64.2617C486.174 64.2617 487.883 65.2598 487.883 68.083V68.5957H481.949V67.5566H487.22L486.646 67.9395C486.646 66.4355 485.935 65.3555 484.554 65.3555C483.173 65.3555 482.359 66.4971 482.359 67.7412V68.4316C482.359 70.1338 483.303 71.0703 484.704 71.0703C485.606 71.0703 486.283 70.6738 486.57 69.8945L487.76 70.2227C487.404 71.3779 486.263 72.1641 484.697 72.1641ZM493.584 74.8574V64.3574H494.773V65.5811H494.91C495.163 65.1777 495.635 64.2617 497.125 64.2617C499.032 64.2617 500.365 65.7793 500.365 68.1992C500.365 70.6328 499.039 72.1641 497.132 72.1641C495.676 72.1641 495.163 71.2412 494.91 70.8174H494.814V74.8574H493.584ZM496.947 71.0635C498.376 71.0635 499.114 69.792 499.114 68.1855C499.114 66.5996 498.396 65.3623 496.947 65.3623C495.539 65.3623 494.801 66.4971 494.801 68.1855C494.801 69.8877 495.56 71.0635 496.947 71.0635ZM502.156 72V64.3574H503.387V72H502.156ZM502.778 63.1064C502.313 63.1064 501.924 62.7441 501.924 62.293C501.924 61.8418 502.313 61.4795 502.778 61.4795C503.25 61.4795 503.64 61.8418 503.64 62.293C503.64 62.7441 503.25 63.1064 502.778 63.1064ZM505.547 74.8574V64.3574H506.736V65.5811H506.873C507.126 65.1777 507.598 64.2617 509.088 64.2617C510.995 64.2617 512.328 65.7793 512.328 68.1992C512.328 70.6328 511.002 72.1641 509.095 72.1641C507.639 72.1641 507.126 71.2412 506.873 70.8174H506.777V74.8574H505.547ZM508.91 71.0635C510.339 71.0635 511.077 69.792 511.077 68.1855C511.077 66.5996 510.359 65.3623 508.91 65.3623C507.502 65.3623 506.764 66.4971 506.764 68.1855C506.764 69.8877 507.522 71.0635 508.91 71.0635ZM517.332 72.1641C515.117 72.1641 513.75 70.5918 513.75 68.2402C513.75 65.8955 515.104 64.2617 517.188 64.2617C518.809 64.2617 520.518 65.2598 520.518 68.083V68.5957H514.584V67.5566H519.854L519.28 67.9395C519.28 66.4355 518.569 65.3555 517.188 65.3555C515.808 65.3555 514.994 66.4971 514.994 67.7412V68.4316C514.994 70.1338 515.938 71.0703 517.339 71.0703C518.241 71.0703 518.918 70.6738 519.205 69.8945L520.395 70.2227C520.039 71.3779 518.897 72.1641 517.332 72.1641ZM523.997 72.0547C522.849 72.0547 522.281 71.4121 522.281 70.3047V61.8145H523.512V69.9971C523.512 70.7012 523.635 70.9541 524.147 70.9541C524.414 70.9541 524.523 70.9336 524.64 70.8994L524.886 71.9385C524.667 72 524.325 72.0547 523.997 72.0547ZM526.137 72V64.3574H527.367V72H526.137ZM526.759 63.1064C526.294 63.1064 525.904 62.7441 525.904 62.293C525.904 61.8418 526.294 61.4795 526.759 61.4795C527.23 61.4795 527.62 61.8418 527.62 62.293C527.62 62.7441 527.23 63.1064 526.759 63.1064ZM530.758 67.4199V72H529.527V64.3574H530.71L530.717 66.21H530.546C531.011 64.8018 531.899 64.2617 533.055 64.2617C534.6 64.2617 535.646 65.2119 535.646 67.1465V72H534.408V67.249C534.408 66.0732 533.752 65.3691 532.686 65.3691C531.585 65.3691 530.758 66.1143 530.758 67.4199ZM541.025 72.1641C538.811 72.1641 537.443 70.5918 537.443 68.2402C537.443 65.8955 538.797 64.2617 540.882 64.2617C542.502 64.2617 544.211 65.2598 544.211 68.083V68.5957H538.277V67.5566H543.548L542.974 67.9395C542.974 66.4355 542.263 65.3555 540.882 65.3555C539.501 65.3555 538.688 66.4971 538.688 67.7412V68.4316C538.688 70.1338 539.631 71.0703 541.032 71.0703C541.935 71.0703 542.611 70.6738 542.898 69.8945L544.088 70.2227C543.732 71.3779 542.591 72.1641 541.025 72.1641ZM549.912 72V64.3574H551.102V65.5332H551.184C551.464 64.7607 552.257 64.248 553.166 64.248C553.344 64.248 553.645 64.2617 553.788 64.2686V65.5059C553.713 65.4922 553.378 65.4375 553.05 65.4375C551.949 65.4375 551.143 66.1826 551.143 67.2148V72H549.912ZM557.78 72.0957C556.235 72.0957 555.189 71.1455 555.189 69.2109V64.3574H556.42V69.1084C556.42 70.2842 557.083 70.9883 558.149 70.9883C559.243 70.9883 560.07 70.2432 560.07 68.9375V64.3574H561.308V72H560.118V70.1475H560.282C559.811 71.583 558.901 72.0957 557.78 72.0957ZM564.705 67.4199V72H563.475V64.3574H564.657L564.664 66.21H564.493C564.958 64.8018 565.847 64.2617 567.002 64.2617C568.547 64.2617 569.593 65.2119 569.593 67.1465V72H568.355V67.249C568.355 66.0732 567.699 65.3691 566.633 65.3691C565.532 65.3691 564.705 66.1143 564.705 67.4199ZM572.99 67.4199V72H571.76V64.3574H572.942L572.949 66.21H572.778C573.243 64.8018 574.132 64.2617 575.287 64.2617C576.832 64.2617 577.878 65.2119 577.878 67.1465V72H576.641V67.249C576.641 66.0732 575.984 65.3691 574.918 65.3691C573.817 65.3691 572.99 66.1143 572.99 67.4199ZM580.045 72V64.3574H581.275V72H580.045ZM580.667 63.1064C580.202 63.1064 579.812 62.7441 579.812 62.293C579.812 61.8418 580.202 61.4795 580.667 61.4795C581.139 61.4795 581.528 61.8418 581.528 62.293C581.528 62.7441 581.139 63.1064 580.667 63.1064ZM584.666 67.4199V72H583.436V64.3574H584.618L584.625 66.21H584.454C584.919 64.8018 585.808 64.2617 586.963 64.2617C588.508 64.2617 589.554 65.2119 589.554 67.1465V72H588.316V67.249C588.316 66.0732 587.66 65.3691 586.594 65.3691C585.493 65.3691 584.666 66.1143 584.666 67.4199ZM594.817 75.0215C593.122 75.0215 592.145 74.3037 591.673 73.4629L592.671 72.8203C592.992 73.2646 593.471 73.9482 594.817 73.9482C596.034 73.9482 596.916 73.3877 596.916 72.1299V70.5986H596.8C596.54 71.0361 596.055 71.877 594.578 71.877C592.746 71.877 591.352 70.5439 591.352 68.1445C591.352 65.7793 592.698 64.2617 594.605 64.2617C596.082 64.2617 596.574 65.1709 596.834 65.5811H596.95V64.3574H598.146V72.1982C598.146 74.1738 596.677 75.0215 594.817 75.0215ZM594.783 70.7832C596.171 70.7832 596.93 69.7852 596.93 68.1172C596.93 66.4971 596.191 65.3623 594.783 65.3623C593.327 65.3623 592.603 66.5928 592.603 68.1172C592.603 69.6895 593.348 70.7832 594.783 70.7832ZM606.384 72.1777C604.935 72.1777 603.779 71.3301 603.779 69.8262C603.779 68.0762 605.338 67.7549 606.753 67.5771C608.113 67.4062 608.715 67.4473 608.715 66.8799V66.8389C608.715 65.8887 608.175 65.3418 607.115 65.3418C606.015 65.3418 605.42 65.9297 605.181 66.4629L603.998 66.0732C604.586 64.6855 605.898 64.2617 607.081 64.2617C608.106 64.2617 609.945 64.5762 609.945 66.9619V72H608.735V70.9609H608.653C608.394 71.501 607.676 72.1777 606.384 72.1777ZM606.596 71.0908C607.956 71.0908 608.715 70.1748 608.715 69.2383V68.1787C608.51 68.418 607.17 68.5547 606.698 68.6162C605.803 68.7324 605.017 69.0195 605.017 69.8877C605.017 70.6807 605.68 71.0908 606.596 71.0908ZM616.549 65.6904L616.398 61.8145H617.725L617.574 65.6904H616.549ZM618.873 65.6904L618.723 61.8145H620.049L619.898 65.6904H618.873ZM622.715 72V61.8145H624.014V66.2168H629.359V61.8145H630.658V72H629.359V67.3652H624.014V72H622.715ZM636.182 72.1641C633.967 72.1641 632.6 70.5918 632.6 68.2402C632.6 65.8955 633.953 64.2617 636.038 64.2617C637.658 64.2617 639.367 65.2598 639.367 68.083V68.5957H633.434V67.5566H638.704L638.13 67.9395C638.13 66.4355 637.419 65.3555 636.038 65.3555C634.657 65.3555 633.844 66.4971 633.844 67.7412V68.4316C633.844 70.1338 634.787 71.0703 636.188 71.0703C637.091 71.0703 637.768 70.6738 638.055 69.8945L639.244 70.2227C638.889 71.3779 637.747 72.1641 636.182 72.1641ZM642.847 72.0547C641.698 72.0547 641.131 71.4121 641.131 70.3047V61.8145H642.361V69.9971C642.361 70.7012 642.484 70.9541 642.997 70.9541C643.264 70.9541 643.373 70.9336 643.489 70.8994L643.735 71.9385C643.517 72 643.175 72.0547 642.847 72.0547ZM646.702 72.0547C645.554 72.0547 644.986 71.4121 644.986 70.3047V61.8145H646.217V69.9971C646.217 70.7012 646.34 70.9541 646.853 70.9541C647.119 70.9541 647.229 70.9336 647.345 70.8994L647.591 71.9385C647.372 72 647.03 72.0547 646.702 72.0547ZM651.747 72.1641C649.669 72.1641 648.268 70.585 648.268 68.2266C648.268 65.834 649.669 64.2617 651.747 64.2617C653.832 64.2617 655.24 65.834 655.24 68.2266C655.24 70.585 653.832 72.1641 651.747 72.1641ZM651.747 71.0635C653.292 71.0635 653.996 69.7305 653.996 68.2266C653.996 66.709 653.292 65.3623 651.747 65.3623C650.223 65.3623 649.519 66.7021 649.519 68.2266C649.519 69.7305 650.223 71.0635 651.747 71.0635ZM662.685 72L660.367 64.3574H661.673L662.603 67.6934C662.855 68.6025 663.156 69.7441 663.443 71.2002H663.231C663.505 69.8057 663.792 68.6641 664.059 67.6934L664.975 64.3574H666.287L667.189 67.6934C667.442 68.6299 667.729 69.7715 668.003 71.2002H667.784C668.071 69.7852 668.365 68.6504 668.632 67.6934L669.562 64.3574H670.867L668.55 72H667.326L666.335 68.541C666.034 67.4951 665.761 66.3672 665.48 65.1777H665.754C665.48 66.3535 665.193 67.5156 664.899 68.541L663.908 72H662.685ZM675.276 72.1641C673.198 72.1641 671.797 70.585 671.797 68.2266C671.797 65.834 673.198 64.2617 675.276 64.2617C677.361 64.2617 678.77 65.834 678.77 68.2266C678.77 70.585 677.361 72.1641 675.276 72.1641ZM675.276 71.0635C676.821 71.0635 677.525 69.7305 677.525 68.2266C677.525 66.709 676.821 65.3623 675.276 65.3623C673.752 65.3623 673.048 66.7021 673.048 68.2266C673.048 69.7305 673.752 71.0635 675.276 71.0635ZM680.561 72V64.3574H681.75V65.5332H681.832C682.112 64.7607 682.905 64.248 683.814 64.248C683.992 64.248 684.293 64.2617 684.437 64.2686V65.5059C684.361 65.4922 684.026 65.4375 683.698 65.4375C682.598 65.4375 681.791 66.1826 681.791 67.2148V72H680.561ZM687.772 72.0547C686.624 72.0547 686.057 71.4121 686.057 70.3047V61.8145H687.287V69.9971C687.287 70.7012 687.41 70.9541 687.923 70.9541C688.189 70.9541 688.299 70.9336 688.415 70.8994L688.661 71.9385C688.442 72 688.101 72.0547 687.772 72.0547ZM692.571 72.1641C690.664 72.1641 689.338 70.6328 689.338 68.1992C689.338 65.7793 690.671 64.2617 692.578 64.2617C694.068 64.2617 694.54 65.1777 694.793 65.5811H694.889V61.8145H696.119V72H694.93V70.8174H694.793C694.54 71.2412 694.027 72.1641 692.571 72.1641ZM692.756 71.0635C694.144 71.0635 694.902 69.8877 694.902 68.1855C694.902 66.4971 694.164 65.3623 692.756 65.3623C691.307 65.3623 690.589 66.5996 690.589 68.1855C690.589 69.792 691.327 71.0635 692.756 71.0635ZM698.785 65.6904L698.635 61.8145H699.961L699.811 65.6904H698.785ZM701.109 65.6904L700.959 61.8145H702.285L702.135 65.6904H701.109ZM711.336 72.1641C709.764 72.1641 708.67 71.4668 708.396 70.1475L709.565 69.8672C709.784 70.708 710.406 71.084 711.322 71.084C712.389 71.084 713.072 70.5576 713.072 69.9287C713.072 69.4023 712.703 69.0537 711.951 68.876L710.68 68.5752C709.292 68.2471 708.629 67.5635 708.629 66.4902C708.629 65.1777 709.832 64.2617 711.459 64.2617C713.031 64.2617 713.858 65.0273 714.207 66.1006L713.093 66.3877C712.881 65.8408 712.45 65.3076 711.466 65.3076C710.557 65.3076 709.873 65.7793 709.873 66.415C709.873 66.9824 710.263 67.2969 711.158 67.5088L712.313 67.7822C713.701 68.1104 714.351 68.8008 714.351 69.8467C714.351 71.1865 713.127 72.1641 711.336 72.1641ZM719.245 72.1641C717.167 72.1641 715.766 70.585 715.766 68.2266C715.766 65.834 717.167 64.2617 719.245 64.2617C720.722 64.2617 721.925 65.041 722.342 66.374L721.159 66.709C720.934 65.9229 720.25 65.3623 719.245 65.3623C717.721 65.3623 717.017 66.7021 717.017 68.2266C717.017 69.7305 717.721 71.0635 719.245 71.0635C720.271 71.0635 720.968 70.4824 721.193 69.6553L722.369 69.9902C721.959 71.3506 720.742 72.1641 719.245 72.1641ZM724.133 72V64.3574H725.322V65.5332H725.404C725.685 64.7607 726.478 64.248 727.387 64.248C727.564 64.248 727.865 64.2617 728.009 64.2686V65.5059C727.934 65.4922 727.599 65.4375 727.271 65.4375C726.17 65.4375 725.363 66.1826 725.363 67.2148V72H724.133ZM729.629 72V64.3574H730.859V72H729.629ZM730.251 63.1064C729.786 63.1064 729.396 62.7441 729.396 62.293C729.396 61.8418 729.786 61.4795 730.251 61.4795C730.723 61.4795 731.112 61.8418 731.112 62.293C731.112 62.7441 730.723 63.1064 730.251 63.1064ZM733.02 74.8574V64.3574H734.209V65.5811H734.346C734.599 65.1777 735.07 64.2617 736.561 64.2617C738.468 64.2617 739.801 65.7793 739.801 68.1992C739.801 70.6328 738.475 72.1641 736.567 72.1641C735.111 72.1641 734.599 71.2412 734.346 70.8174H734.25V74.8574H733.02ZM736.383 71.0635C737.812 71.0635 738.55 69.792 738.55 68.1855C738.55 66.5996 737.832 65.3623 736.383 65.3623C734.975 65.3623 734.236 66.4971 734.236 68.1855C734.236 69.8877 734.995 71.0635 736.383 71.0635ZM744.6 64.3574V65.4102H740.648V64.3574H744.6ZM741.797 62.5391H743.027V70.0176C743.027 70.7012 743.28 71.002 743.93 71.002C744.087 71.002 744.354 70.9609 744.559 70.9199L744.812 71.959C744.559 72.0479 744.21 72.0957 743.896 72.0957C742.576 72.0957 741.797 71.3643 741.797 70.1133V62.5391ZM753.117 64.3574V65.4102H749.166V64.3574H753.117ZM750.314 62.5391H751.545V70.0176C751.545 70.7012 751.798 71.002 752.447 71.002C752.604 71.002 752.871 70.9609 753.076 70.9199L753.329 71.959C753.076 72.0479 752.728 72.0957 752.413 72.0957C751.094 72.0957 750.314 71.3643 750.314 70.1133V62.5391ZM757.663 72.1641C755.585 72.1641 754.184 70.585 754.184 68.2266C754.184 65.834 755.585 64.2617 757.663 64.2617C759.748 64.2617 761.156 65.834 761.156 68.2266C761.156 70.585 759.748 72.1641 757.663 72.1641ZM757.663 71.0635C759.208 71.0635 759.912 69.7305 759.912 68.2266C759.912 66.709 759.208 65.3623 757.663 65.3623C756.139 65.3623 755.435 66.7021 755.435 68.2266C755.435 69.7305 756.139 71.0635 757.663 71.0635ZM769.482 72.1641C767.91 72.1641 766.816 71.4668 766.543 70.1475L767.712 69.8672C767.931 70.708 768.553 71.084 769.469 71.084C770.535 71.084 771.219 70.5576 771.219 69.9287C771.219 69.4023 770.85 69.0537 770.098 68.876L768.826 68.5752C767.438 68.2471 766.775 67.5635 766.775 66.4902C766.775 65.1777 767.979 64.2617 769.605 64.2617C771.178 64.2617 772.005 65.0273 772.354 66.1006L771.239 66.3877C771.027 65.8408 770.597 65.3076 769.612 65.3076C768.703 65.3076 768.02 65.7793 768.02 66.415C768.02 66.9824 768.409 67.2969 769.305 67.5088L770.46 67.7822C771.848 68.1104 772.497 68.8008 772.497 69.8467C772.497 71.1865 771.273 72.1641 769.482 72.1641ZM777.494 72.1641C775.279 72.1641 773.912 70.5918 773.912 68.2402C773.912 65.8955 775.266 64.2617 777.351 64.2617C778.971 64.2617 780.68 65.2598 780.68 68.083V68.5957H774.746V67.5566H780.017L779.442 67.9395C779.442 66.4355 778.731 65.3555 777.351 65.3555C775.97 65.3555 775.156 66.4971 775.156 67.7412V68.4316C775.156 70.1338 776.1 71.0703 777.501 71.0703C778.403 71.0703 779.08 70.6738 779.367 69.8945L780.557 70.2227C780.201 71.3779 779.06 72.1641 777.494 72.1641ZM785.656 72.1641C783.441 72.1641 782.074 70.5918 782.074 68.2402C782.074 65.8955 783.428 64.2617 785.513 64.2617C787.133 64.2617 788.842 65.2598 788.842 68.083V68.5957H782.908V67.5566H788.179L787.604 67.9395C787.604 66.4355 786.894 65.3555 785.513 65.3555C784.132 65.3555 783.318 66.4971 783.318 67.7412V68.4316C783.318 70.1338 784.262 71.0703 785.663 71.0703C786.565 71.0703 787.242 70.6738 787.529 69.8945L788.719 70.2227C788.363 71.3779 787.222 72.1641 785.656 72.1641ZM795.773 67.4199V72H794.543V61.8145H795.773V66.21H795.562C796.026 64.8018 796.915 64.2617 798.07 64.2617C799.615 64.2617 800.661 65.2119 800.661 67.1465V72H799.424V67.249C799.424 66.0732 798.768 65.3691 797.701 65.3691C796.601 65.3691 795.773 66.1143 795.773 67.4199ZM805.938 72.1641C803.86 72.1641 802.459 70.585 802.459 68.2266C802.459 65.834 803.86 64.2617 805.938 64.2617C808.023 64.2617 809.432 65.834 809.432 68.2266C809.432 70.585 808.023 72.1641 805.938 72.1641ZM805.938 71.0635C807.483 71.0635 808.188 69.7305 808.188 68.2266C808.188 66.709 807.483 65.3623 805.938 65.3623C804.414 65.3623 803.71 66.7021 803.71 68.2266C803.71 69.7305 804.414 71.0635 805.938 71.0635ZM812.679 72L810.361 64.3574H811.667L812.597 67.6934C812.85 68.6025 813.15 69.7441 813.438 71.2002H813.226C813.499 69.8057 813.786 68.6641 814.053 67.6934L814.969 64.3574H816.281L817.184 67.6934C817.437 68.6299 817.724 69.7715 817.997 71.2002H817.778C818.065 69.7852 818.359 68.6504 818.626 67.6934L819.556 64.3574H820.861L818.544 72H817.32L816.329 68.541C816.028 67.4951 815.755 66.3672 815.475 65.1777H815.748C815.475 66.3535 815.188 67.5156 814.894 68.541L813.902 72H812.679ZM826.357 72V64.3574H827.588V72H826.357ZM826.979 63.1064C826.515 63.1064 826.125 62.7441 826.125 62.293C826.125 61.8418 826.515 61.4795 826.979 61.4795C827.451 61.4795 827.841 61.8418 827.841 62.293C827.841 62.7441 827.451 63.1064 826.979 63.1064ZM832.756 64.3574V65.4102H828.805V64.3574H832.756ZM829.953 62.5391H831.184V70.0176C831.184 70.7012 831.437 71.002 832.086 71.002C832.243 71.002 832.51 70.9609 832.715 70.9199L832.968 71.959C832.715 72.0479 832.366 72.0957 832.052 72.0957C830.732 72.0957 829.953 71.3643 829.953 70.1133V62.5391ZM838.266 72V64.3574H839.455V65.5332H839.537C839.817 64.7607 840.61 64.248 841.52 64.248C841.697 64.248 841.998 64.2617 842.142 64.2686V65.5059C842.066 65.4922 841.731 65.4375 841.403 65.4375C840.303 65.4375 839.496 66.1826 839.496 67.2148V72H838.266ZM846.134 72.0957C844.589 72.0957 843.543 71.1455 843.543 69.2109V64.3574H844.773V69.1084C844.773 70.2842 845.437 70.9883 846.503 70.9883C847.597 70.9883 848.424 70.2432 848.424 68.9375V64.3574H849.661V72H848.472V70.1475H848.636C848.164 71.583 847.255 72.0957 846.134 72.0957ZM853.059 67.4199V72H851.828V64.3574H853.011L853.018 66.21H852.847C853.312 64.8018 854.2 64.2617 855.355 64.2617C856.9 64.2617 857.946 65.2119 857.946 67.1465V72H856.709V67.249C856.709 66.0732 856.053 65.3691 854.986 65.3691C853.886 65.3691 853.059 66.1143 853.059 67.4199ZM862.711 72.1641C861.139 72.1641 860.045 71.4668 859.771 70.1475L860.94 69.8672C861.159 70.708 861.781 71.084 862.697 71.084C863.764 71.084 864.447 70.5576 864.447 69.9287C864.447 69.4023 864.078 69.0537 863.326 68.876L862.055 68.5752C860.667 68.2471 860.004 67.5635 860.004 66.4902C860.004 65.1777 861.207 64.2617 862.834 64.2617C864.406 64.2617 865.233 65.0273 865.582 66.1006L864.468 66.3877C864.256 65.8408 863.825 65.3076 862.841 65.3076C861.932 65.3076 861.248 65.7793 861.248 66.415C861.248 66.9824 861.638 67.2969 862.533 67.5088L863.688 67.7822C865.076 68.1104 865.726 68.8008 865.726 69.8467C865.726 71.1865 864.502 72.1641 862.711 72.1641ZM867.305 74.4541L867.906 70.5781H869.314L868.248 74.4541H867.305ZM124.293 92.1641C122.078 92.1641 120.711 90.5918 120.711 88.2402C120.711 85.8955 122.064 84.2617 124.149 84.2617C125.77 84.2617 127.479 85.2598 127.479 88.083V88.5957H121.545V87.5566H126.815L126.241 87.9395C126.241 86.4355 125.53 85.3555 124.149 85.3555C122.769 85.3555 121.955 86.4971 121.955 87.7412V88.4316C121.955 90.1338 122.898 91.0703 124.3 91.0703C125.202 91.0703 125.879 90.6738 126.166 89.8945L127.355 90.2227C127 91.3779 125.858 92.1641 124.293 92.1641ZM128.292 92L131.307 87.6045L131.3 88.5479L128.449 84.3574H129.885L130.835 85.8408C131.327 86.6064 131.648 87.2627 132.031 87.8779H131.389C131.778 87.2627 132.045 86.6064 132.544 85.8408L133.515 84.3574H134.923L132.059 88.6025V87.6934L135.046 92H133.617L132.496 90.2842C132.011 89.5391 131.703 88.9102 131.327 88.3154H131.977C131.601 88.9102 131.341 89.5391 130.849 90.2842L129.714 92H128.292ZM136.57 94.8574V84.3574H137.76V85.5811H137.896C138.149 85.1777 138.621 84.2617 140.111 84.2617C142.019 84.2617 143.352 85.7793 143.352 88.1992C143.352 90.6328 142.025 92.1641 140.118 92.1641C138.662 92.1641 138.149 91.2412 137.896 90.8174H137.801V94.8574H136.57ZM139.934 91.0635C141.362 91.0635 142.101 89.792 142.101 88.1855C142.101 86.5996 141.383 85.3623 139.934 85.3623C138.525 85.3623 137.787 86.4971 137.787 88.1855C137.787 89.8877 138.546 91.0635 139.934 91.0635ZM146.858 92.0547C145.71 92.0547 145.143 91.4121 145.143 90.3047V81.8145H146.373V89.9971C146.373 90.7012 146.496 90.9541 147.009 90.9541C147.275 90.9541 147.385 90.9336 147.501 90.8994L147.747 91.9385C147.528 92 147.187 92.0547 146.858 92.0547ZM151.903 92.1641C149.825 92.1641 148.424 90.585 148.424 88.2266C148.424 85.834 149.825 84.2617 151.903 84.2617C153.988 84.2617 155.396 85.834 155.396 88.2266C155.396 90.585 153.988 92.1641 151.903 92.1641ZM151.903 91.0635C153.448 91.0635 154.152 89.7305 154.152 88.2266C154.152 86.709 153.448 85.3623 151.903 85.3623C150.379 85.3623 149.675 86.7021 149.675 88.2266C149.675 89.7305 150.379 91.0635 151.903 91.0635ZM157.188 92V84.3574H158.377V85.5332H158.459C158.739 84.7607 159.532 84.248 160.441 84.248C160.619 84.248 160.92 84.2617 161.063 84.2686V85.5059C160.988 85.4922 160.653 85.4375 160.325 85.4375C159.225 85.4375 158.418 86.1826 158.418 87.2148V92H157.188ZM165.445 92.1641C163.23 92.1641 161.863 90.5918 161.863 88.2402C161.863 85.8955 163.217 84.2617 165.302 84.2617C166.922 84.2617 168.631 85.2598 168.631 88.083V88.5957H162.697V87.5566H167.968L167.394 87.9395C167.394 86.4355 166.683 85.3555 165.302 85.3555C163.921 85.3555 163.107 86.4971 163.107 87.7412V88.4316C163.107 90.1338 164.051 91.0703 165.452 91.0703C166.354 91.0703 167.031 90.6738 167.318 89.8945L168.508 90.2227C168.152 91.3779 167.011 92.1641 165.445 92.1641ZM175.562 87.4199V92H174.332V81.8145H175.562V86.21H175.351C175.815 84.8018 176.704 84.2617 177.859 84.2617C179.404 84.2617 180.45 85.2119 180.45 87.1465V92H179.213V87.249C179.213 86.0732 178.557 85.3691 177.49 85.3691C176.39 85.3691 175.562 86.1143 175.562 87.4199ZM185.728 92.1641C183.649 92.1641 182.248 90.585 182.248 88.2266C182.248 85.834 183.649 84.2617 185.728 84.2617C187.812 84.2617 189.221 85.834 189.221 88.2266C189.221 90.585 187.812 92.1641 185.728 92.1641ZM185.728 91.0635C187.272 91.0635 187.977 89.7305 187.977 88.2266C187.977 86.709 187.272 85.3623 185.728 85.3623C184.203 85.3623 183.499 86.7021 183.499 88.2266C183.499 89.7305 184.203 91.0635 185.728 91.0635ZM192.468 92L190.15 84.3574H191.456L192.386 87.6934C192.639 88.6025 192.939 89.7441 193.227 91.2002H193.015C193.288 89.8057 193.575 88.6641 193.842 87.6934L194.758 84.3574H196.07L196.973 87.6934C197.226 88.6299 197.513 89.7715 197.786 91.2002H197.567C197.854 89.7852 198.148 88.6504 198.415 87.6934L199.345 84.3574H200.65L198.333 92H197.109L196.118 88.541C195.817 87.4951 195.544 86.3672 195.264 85.1777H195.537C195.264 86.3535 194.977 87.5156 194.683 88.541L193.691 92H192.468ZM210.419 92.1367C207.808 92.1367 205.9 90.1406 205.9 86.9141C205.9 83.6807 207.808 81.6777 210.419 81.6777C212.483 81.6777 214.165 82.9219 214.527 85.0205H213.229C212.941 83.626 211.745 82.8809 210.419 82.8809C208.587 82.8809 207.165 84.3027 207.165 86.9141C207.165 89.5186 208.594 90.9336 210.419 90.9336C211.752 90.9336 212.941 90.1816 213.229 88.7939H214.527C214.172 90.8652 212.504 92.1367 210.419 92.1367ZM217.822 81.8145V92H216.523V81.8145H217.822ZM223.783 81.3359L220.502 93.5312H219.367L222.648 81.3359H223.783ZM229.45 92.1367C226.839 92.1367 224.932 90.1406 224.932 86.9141C224.932 83.6807 226.839 81.6777 229.45 81.6777C231.515 81.6777 233.196 82.9219 233.559 85.0205H232.26C231.973 83.626 230.776 82.8809 229.45 82.8809C227.618 82.8809 226.196 84.3027 226.196 86.9141C226.196 89.5186 227.625 90.9336 229.45 90.9336C230.783 90.9336 231.973 90.1816 232.26 88.7939H233.559C233.203 90.8652 231.535 92.1367 229.45 92.1367ZM238.733 92H236.272V90.8516H238.651C241.133 90.8516 242.336 89.3613 242.336 86.8867C242.336 84.4395 241.133 82.9629 238.774 82.9629H236.218V81.8145H238.863C241.837 81.8145 243.594 83.7285 243.594 86.8867C243.594 90.0723 241.837 92 238.733 92ZM236.854 81.8145V92H235.555V81.8145H236.854ZM251.161 92L248.844 84.3574H250.149L251.079 87.6934C251.332 88.6025 251.633 89.7441 251.92 91.2002H251.708C251.981 89.8057 252.269 88.6641 252.535 87.6934L253.451 84.3574H254.764L255.666 87.6934C255.919 88.6299 256.206 89.7715 256.479 91.2002H256.261C256.548 89.7852 256.842 88.6504 257.108 87.6934L258.038 84.3574H259.344L257.026 92H255.803L254.812 88.541C254.511 87.4951 254.237 86.3672 253.957 85.1777H254.23C253.957 86.3535 253.67 87.5156 253.376 88.541L252.385 92H251.161ZM263.753 92.1641C261.675 92.1641 260.273 90.585 260.273 88.2266C260.273 85.834 261.675 84.2617 263.753 84.2617C265.838 84.2617 267.246 85.834 267.246 88.2266C267.246 90.585 265.838 92.1641 263.753 92.1641ZM263.753 91.0635C265.298 91.0635 266.002 89.7305 266.002 88.2266C266.002 86.709 265.298 85.3623 263.753 85.3623C262.229 85.3623 261.524 86.7021 261.524 88.2266C261.524 89.7305 262.229 91.0635 263.753 91.0635ZM269.037 92V84.3574H270.227V85.5332H270.309C270.589 84.7607 271.382 84.248 272.291 84.248C272.469 84.248 272.77 84.2617 272.913 84.2686V85.5059C272.838 85.4922 272.503 85.4375 272.175 85.4375C271.074 85.4375 270.268 86.1826 270.268 87.2148V92H269.037ZM275.688 89.252V87.7275H275.914L279.182 84.3574H280.706L277.172 87.9873H277.035L275.688 89.252ZM274.533 92V81.8145H275.764V92H274.533ZM279.366 92L276.44 88.2607L277.315 87.3926L280.945 92H279.366ZM284.814 92.1641C283.242 92.1641 282.148 91.4668 281.875 90.1475L283.044 89.8672C283.263 90.708 283.885 91.084 284.801 91.084C285.867 91.084 286.551 90.5576 286.551 89.9287C286.551 89.4023 286.182 89.0537 285.43 88.876L284.158 88.5752C282.771 88.2471 282.107 87.5635 282.107 86.4902C282.107 85.1777 283.311 84.2617 284.938 84.2617C286.51 84.2617 287.337 85.0273 287.686 86.1006L286.571 86.3877C286.359 85.8408 285.929 85.3076 284.944 85.3076C284.035 85.3076 283.352 85.7793 283.352 86.415C283.352 86.9824 283.741 87.2969 284.637 87.5088L285.792 87.7822C287.18 88.1104 287.829 88.8008 287.829 89.8467C287.829 91.1865 286.605 92.1641 284.814 92.1641ZM290.543 92.0889C290.037 92.0889 289.627 91.6719 289.627 91.166C289.627 90.6602 290.044 90.25 290.543 90.25C291.049 90.25 291.466 90.6602 291.466 91.166C291.466 91.6787 291.049 92.0889 290.543 92.0889Z" fill="#3A383F"/>
<rect x="120.5" y="113.5" width="135" height="31" rx="3.5" fill="#1F75CB"/>
<rect x="120.5" y="113.5" width="135" height="31" rx="3.5" stroke="#1068BF"/>
<path d="M132.67 124.963V123.814H140.367V124.963H137.175V134H135.876V124.963H132.67ZM141.324 134V126.357H142.514V127.533H142.596C142.876 126.761 143.669 126.248 144.578 126.248C144.756 126.248 145.057 126.262 145.2 126.269V127.506C145.125 127.492 144.79 127.438 144.462 127.438C143.361 127.438 142.555 128.183 142.555 129.215V134H141.324ZM146.711 136.769L147.025 135.702L147.155 135.736C147.907 135.935 148.447 135.771 148.823 134.677L149.042 134.041L146.123 126.357H147.47L149.097 130.89C149.438 131.84 149.644 132.776 149.91 133.651H149.459C149.719 132.776 149.931 131.833 150.272 130.89L151.913 126.357H153.253L149.896 135.142C149.432 136.358 148.693 136.912 147.613 136.912C147.176 136.912 146.841 136.83 146.711 136.769ZM161.654 126.357V127.41H157.703V126.357H161.654ZM158.852 124.539H160.082V132.018C160.082 132.701 160.335 133.002 160.984 133.002C161.142 133.002 161.408 132.961 161.613 132.92L161.866 133.959C161.613 134.048 161.265 134.096 160.95 134.096C159.631 134.096 158.852 133.364 158.852 132.113V124.539ZM166.303 134.164C164.088 134.164 162.721 132.592 162.721 130.24C162.721 127.896 164.074 126.262 166.159 126.262C167.779 126.262 169.488 127.26 169.488 130.083V130.596H163.555V129.557H168.825L168.251 129.939C168.251 128.436 167.54 127.355 166.159 127.355C164.778 127.355 163.965 128.497 163.965 129.741V130.432C163.965 132.134 164.908 133.07 166.31 133.07C167.212 133.07 167.889 132.674 168.176 131.895L169.365 132.223C169.01 133.378 167.868 134.164 166.303 134.164ZM173.85 134.164C172.277 134.164 171.184 133.467 170.91 132.147L172.079 131.867C172.298 132.708 172.92 133.084 173.836 133.084C174.902 133.084 175.586 132.558 175.586 131.929C175.586 131.402 175.217 131.054 174.465 130.876L173.193 130.575C171.806 130.247 171.143 129.563 171.143 128.49C171.143 127.178 172.346 126.262 173.973 126.262C175.545 126.262 176.372 127.027 176.721 128.101L175.606 128.388C175.395 127.841 174.964 127.308 173.979 127.308C173.07 127.308 172.387 127.779 172.387 128.415C172.387 128.982 172.776 129.297 173.672 129.509L174.827 129.782C176.215 130.11 176.864 130.801 176.864 131.847C176.864 133.187 175.641 134.164 173.85 134.164ZM181.656 126.357V127.41H177.705V126.357H181.656ZM178.854 124.539H180.084V132.018C180.084 132.701 180.337 133.002 180.986 133.002C181.144 133.002 181.41 132.961 181.615 132.92L181.868 133.959C181.615 134.048 181.267 134.096 180.952 134.096C179.633 134.096 178.854 133.364 178.854 132.113V124.539ZM190.174 126.357V127.41H186.223V126.357H190.174ZM187.371 124.539H188.602V132.018C188.602 132.701 188.854 133.002 189.504 133.002C189.661 133.002 189.928 132.961 190.133 132.92L190.386 133.959C190.133 134.048 189.784 134.096 189.47 134.096C188.15 134.096 187.371 133.364 187.371 132.113V124.539ZM194.822 134.164C192.607 134.164 191.24 132.592 191.24 130.24C191.24 127.896 192.594 126.262 194.679 126.262C196.299 126.262 198.008 127.26 198.008 130.083V130.596H192.074V129.557H197.345L196.771 129.939C196.771 128.436 196.06 127.355 194.679 127.355C193.298 127.355 192.484 128.497 192.484 129.741V130.432C192.484 132.134 193.428 133.07 194.829 133.07C195.731 133.07 196.408 132.674 196.695 131.895L197.885 132.223C197.529 133.378 196.388 134.164 194.822 134.164ZM199.771 134V126.357H200.968L200.975 128.066H200.879C201.187 126.829 202.123 126.221 203.114 126.221C204.222 126.221 204.926 126.973 205.131 128.08H204.967C205.24 126.938 206.252 126.221 207.469 126.221C208.795 126.221 209.875 127.075 209.875 128.846V134H208.638V128.88C208.638 127.779 207.92 127.342 207.1 127.342C206.067 127.342 205.438 128.046 205.438 129.01V134H204.208V128.757C204.208 127.909 203.572 127.342 202.711 127.342C201.815 127.342 201.002 127.971 201.002 129.188V134H199.771ZM212.035 136.857V126.357H213.225V127.581H213.361C213.614 127.178 214.086 126.262 215.576 126.262C217.483 126.262 218.816 127.779 218.816 130.199C218.816 132.633 217.49 134.164 215.583 134.164C214.127 134.164 213.614 133.241 213.361 132.817H213.266V136.857H212.035ZM215.398 133.063C216.827 133.063 217.565 131.792 217.565 130.186C217.565 128.6 216.848 127.362 215.398 127.362C213.99 127.362 213.252 128.497 213.252 130.186C213.252 131.888 214.011 133.063 215.398 133.063ZM222.323 134.055C221.175 134.055 220.607 133.412 220.607 132.305V123.814H221.838V131.997C221.838 132.701 221.961 132.954 222.474 132.954C222.74 132.954 222.85 132.934 222.966 132.899L223.212 133.938C222.993 134 222.651 134.055 222.323 134.055ZM226.603 134.178C225.153 134.178 223.998 133.33 223.998 131.826C223.998 130.076 225.557 129.755 226.972 129.577C228.332 129.406 228.934 129.447 228.934 128.88V128.839C228.934 127.889 228.394 127.342 227.334 127.342C226.233 127.342 225.639 127.93 225.399 128.463L224.217 128.073C224.805 126.686 226.117 126.262 227.3 126.262C228.325 126.262 230.164 126.576 230.164 128.962V134H228.954V132.961H228.872C228.612 133.501 227.895 134.178 226.603 134.178ZM226.814 133.091C228.175 133.091 228.934 132.175 228.934 131.238V130.179C228.729 130.418 227.389 130.555 226.917 130.616C226.021 130.732 225.235 131.02 225.235 131.888C225.235 132.681 225.898 133.091 226.814 133.091ZM235.332 126.357V127.41H231.381V126.357H235.332ZM232.529 124.539H233.76V132.018C233.76 132.701 234.013 133.002 234.662 133.002C234.819 133.002 235.086 132.961 235.291 132.92L235.544 133.959C235.291 134.048 234.942 134.096 234.628 134.096C233.309 134.096 232.529 133.364 232.529 132.113V124.539ZM239.98 134.164C237.766 134.164 236.398 132.592 236.398 130.24C236.398 127.896 237.752 126.262 239.837 126.262C241.457 126.262 243.166 127.26 243.166 130.083V130.596H237.232V129.557H242.503L241.929 129.939C241.929 128.436 241.218 127.355 239.837 127.355C238.456 127.355 237.643 128.497 237.643 129.741V130.432C237.643 132.134 238.586 133.07 239.987 133.07C240.89 133.07 241.566 132.674 241.854 131.895L243.043 132.223C242.688 133.378 241.546 134.164 239.98 134.164Z" fill="white"/>
</g>
<g style="mix-blend-mode:multiply">
<g clip-path="url(#clip1_37653_4891)">
<path fill-rule="evenodd" clip-rule="evenodd" d="M932.28 19.2197C931.987 18.9268 931.513 18.9268 931.22 19.2197C930.927 19.5126 930.927 19.9874 931.22 20.2803L934.939 24L931.22 27.7197C930.927 28.0126 930.927 28.4874 931.22 28.7803C931.513 29.0732 931.987 29.0732 932.28 28.7803L936 25.0607L939.72 28.7803C940.013 29.0732 940.487 29.0732 940.78 28.7803C941.073 28.4874 941.073 28.0126 940.78 27.7197L937.061 24L940.78 20.2803C941.073 19.9874 941.073 19.5126 940.78 19.2197C940.487 18.9268 940.013 18.9268 939.72 19.2197L936 22.9393L932.28 19.2197Z" fill="#737278"/>
</g>
</g>
<defs>
<clipPath id="clip0_37653_4891">
<rect width="792" height="121" fill="white" transform="translate(120 24)"/>
</clipPath>
<clipPath id="clip1_37653_4891">
<rect width="16" height="16" fill="white" transform="translate(928 16)"/>
</clipPath>
</defs>
</svg>
