<svg width="285" height="144" viewBox="0 0 285 144" fill="none" xmlns="http://www.w3.org/2000/svg">
<rect x="28" y="85" width="147" height="9" rx="3" fill="#999999"/>
<rect x="28" y="14" width="115" height="12" rx="3" fill="#666666"/>
<rect x="29" y="43" width="65" height="25" rx="2" fill="white" stroke="#999999" stroke-width="2"/>
<rect x="28" y="110" width="67" height="27" rx="3" fill="#1F75CB"/>
<rect x="103" y="51" width="118" height="9" rx="3" fill="#999999"/>
<path d="M245.578 51.4223C245.015 50.8592 244.102 50.8592 243.539 51.4223L241.5 53.4611L239.461 51.4223C238.898 50.8592 237.985 50.8592 237.422 51.4223C236.859 51.9853 236.859 52.8981 237.422 53.4611L239.461 55.5L237.422 57.5389C236.859 58.1019 236.859 59.0147 237.422 59.5777C237.985 60.1408 238.898 60.1408 239.461 59.5777L241.5 57.5389L243.539 59.5777C244.102 60.1408 245.015 60.1408 245.578 59.5777C246.141 59.0147 246.141 58.1019 245.578 57.5389L243.539 55.5L245.578 53.4611C246.141 52.8981 246.141 51.9853 245.578 51.4223Z" fill="#666666"/>
<circle cx="101" cy="90" r="16" fill="#7B58CF"/>
<circle cx="101" cy="90" r="18" stroke="#7B58CF" stroke-opacity="0.3" stroke-width="4"/>
<path d="M97.3965 82.8779H104.041V84.3721H99.0137V87.5977C99.2656 87.5039 99.5176 87.4365 99.7695 87.3955C100.027 87.3486 100.285 87.3252 100.543 87.3252C101.902 87.3252 102.98 87.7266 103.777 88.5293C104.574 89.332 104.973 90.4189 104.973 91.79C104.973 93.1729 104.554 94.2627 103.716 95.0596C102.884 95.8564 101.744 96.2549 100.297 96.2549C99.5996 96.2549 98.9609 96.208 98.3809 96.1143C97.8066 96.0205 97.291 95.8799 96.834 95.6924V93.8906C97.373 94.1836 97.915 94.4033 98.46 94.5498C99.0049 94.6904 99.5615 94.7607 100.13 94.7607C101.108 94.7607 101.861 94.5029 102.389 93.9873C102.922 93.4717 103.188 92.7393 103.188 91.79C103.188 90.8525 102.913 90.123 102.362 89.6016C101.817 89.0801 101.056 88.8193 100.077 88.8193C99.6025 88.8193 99.1396 88.875 98.6885 88.9863C98.2373 89.0918 97.8066 89.2529 97.3965 89.4697V82.8779Z" fill="white"/>
<circle cx="61" cy="124" r="16" fill="#7B58CF"/>
<circle cx="61" cy="124" r="18" stroke="#7B58CF" stroke-opacity="0.3" stroke-width="4"/>
<path d="M64.2871 117.168V118.803C63.918 118.586 63.5254 118.422 63.1094 118.311C62.6934 118.193 62.2598 118.135 61.8086 118.135C60.6836 118.135 59.8311 118.56 59.251 119.409C58.6709 120.253 58.3809 121.498 58.3809 123.145C58.6621 122.559 59.0518 122.11 59.5498 121.8C60.0479 121.483 60.6191 121.325 61.2637 121.325C62.5293 121.325 63.5078 121.715 64.1992 122.494C64.8965 123.268 65.2451 124.366 65.2451 125.79C65.2451 127.208 64.8877 128.307 64.1729 129.086C63.458 129.865 62.4531 130.255 61.1582 130.255C59.6348 130.255 58.5186 129.71 57.8096 128.62C57.1006 127.524 56.7461 125.802 56.7461 123.452C56.7461 121.237 57.1709 119.55 58.0205 118.39C58.876 117.224 60.1123 116.641 61.7295 116.641C62.1631 116.641 62.5967 116.688 63.0303 116.781C63.4639 116.869 63.8828 116.998 64.2871 117.168ZM61.123 122.714C60.3672 122.714 59.7725 122.986 59.3389 123.531C58.9053 124.076 58.6885 124.829 58.6885 125.79C58.6885 126.751 58.9053 127.504 59.3389 128.049C59.7725 128.594 60.3672 128.866 61.123 128.866C61.9082 128.866 62.5 128.608 62.8984 128.093C63.2969 127.571 63.4961 126.804 63.4961 125.79C63.4961 124.771 63.2969 124.003 62.8984 123.487C62.5 122.972 61.9082 122.714 61.123 122.714Z" fill="white"/>
<circle cx="265" cy="56" r="16" fill="#7B58CF"/>
<circle cx="265" cy="56" r="18" stroke="#7B58CF" stroke-opacity="0.3" stroke-width="4"/>
<path d="M266.037 50.4951L261.897 57.4297H266.037V50.4951ZM265.747 48.8779H267.804V57.4297H269.553V58.8711H267.804V62H266.037V58.8711H260.474V57.1924L265.747 48.8779Z" fill="white"/>
<circle cx="162" cy="56" r="16" fill="#7B58CF"/>
<circle cx="162" cy="56" r="18" stroke="#7B58CF" stroke-opacity="0.3" stroke-width="4"/>
<path d="M163.397 54.9775C164.259 55.2061 164.918 55.6133 165.375 56.1992C165.832 56.7793 166.061 57.5059 166.061 58.3789C166.061 59.5859 165.653 60.5352 164.839 61.2266C164.03 61.9121 162.908 62.2549 161.473 62.2549C160.869 62.2549 160.254 62.1992 159.627 62.0879C159 61.9766 158.385 61.8154 157.781 61.6045V59.8379C158.379 60.1484 158.968 60.3799 159.548 60.5322C160.128 60.6846 160.705 60.7607 161.279 60.7607C162.252 60.7607 162.999 60.541 163.521 60.1016C164.042 59.6621 164.303 59.0293 164.303 58.2031C164.303 57.4414 164.042 56.8379 163.521 56.3926C162.999 55.9414 162.293 55.7158 161.402 55.7158H160.049V54.2568H161.402C162.217 54.2568 162.853 54.0781 163.31 53.7207C163.767 53.3633 163.995 52.8652 163.995 52.2266C163.995 51.5527 163.781 51.0371 163.354 50.6797C162.932 50.3164 162.328 50.1348 161.543 50.1348C161.021 50.1348 160.482 50.1934 159.926 50.3105C159.369 50.4277 158.786 50.6035 158.177 50.8379V49.2031C158.886 49.0156 159.516 48.875 160.066 48.7812C160.623 48.6875 161.115 48.6406 161.543 48.6406C162.82 48.6406 163.84 48.9629 164.602 49.6074C165.369 50.2461 165.753 51.0957 165.753 52.1562C165.753 52.877 165.551 53.4775 165.146 53.958C164.748 54.4385 164.165 54.7783 163.397 54.9775Z" fill="white"/>
<circle cx="61" cy="56" r="16" fill="#7B58CF"/>
<circle cx="61" cy="56" r="18" stroke="#7B58CF" stroke-opacity="0.3" stroke-width="4"/>
<path d="M58.8555 60.5059H64.8848V62H56.9131V60.5059C58.0088 59.3516 58.9668 58.332 59.7871 57.4473C60.6074 56.5625 61.1729 55.9385 61.4834 55.5752C62.0693 54.8604 62.4648 54.2832 62.6699 53.8438C62.875 53.3984 62.9775 52.9443 62.9775 52.4814C62.9775 51.749 62.7607 51.1748 62.3271 50.7588C61.8994 50.3428 61.3105 50.1348 60.5605 50.1348C60.0273 50.1348 59.4678 50.2314 58.8818 50.4248C58.2959 50.6182 57.6748 50.9111 57.0186 51.3037V49.5107C57.6221 49.2236 58.2139 49.0068 58.7939 48.8604C59.3799 48.7139 59.957 48.6406 60.5254 48.6406C61.8086 48.6406 62.8398 48.9834 63.6191 49.6689C64.4043 50.3486 64.7969 51.2422 64.7969 52.3496C64.7969 52.9121 64.665 53.4746 64.4014 54.0371C64.1436 54.5996 63.7217 55.2207 63.1357 55.9004C62.8076 56.2812 62.3301 56.8086 61.7031 57.4824C61.082 58.1562 60.1328 59.1641 58.8555 60.5059Z" fill="white"/>
<circle cx="20" cy="20" r="16" fill="#7B58CF"/>
<circle cx="20" cy="20" r="18" stroke="#7B58CF" stroke-opacity="0.3" stroke-width="4"/>
<path d="M16.9502 24.5146H19.71V14.6006L16.4053 16.1914V14.4863L19.6924 12.9219H21.4678V24.5146H24.1924V26H16.9502V24.5146Z" fill="white"/>
</svg>
