<svg width="490" height="163" viewBox="0 0 490 163" fill="none" xmlns="http://www.w3.org/2000/svg">
<g clip-path="url(#clip0_650_12499)">
<rect x="337.706" y="20.7059" width="142.588" height="141.588" rx="2.11765" fill="white"/>
<rect x="383" y="110" width="52" height="16" rx="2" fill="white"/>
<rect x="383" y="110" width="52" height="16" rx="2" stroke="#A4A3A8" stroke-width="2"/>
<rect x="380" y="93" width="74" height="8" rx="2" fill="#89888D"/>
<g clip-path="url(#clip1_650_12499)">
<path fill-rule="evenodd" clip-rule="evenodd" d="M370 101C372.209 101 374 99.2091 374 97C374 94.7909 372.209 93 370 93C367.791 93 366 94.7909 366 97C366 99.2091 367.791 101 370 101ZM370 103C373.314 103 376 100.314 376 97C376 93.6863 373.314 91 370 91C366.686 91 364 93.6863 364 97C364 100.314 366.686 103 370 103Z" fill="#DCDCDE"/>
<path fill-rule="evenodd" clip-rule="evenodd" d="M370 92.9995V91C370.682 91 371.358 91.1163 372 91.3431C372.1 91.3783 372.198 91.4162 372.296 91.4567C373.024 91.7583 373.685 92.2002 374.243 92.7574C374.8 93.3145 375.242 93.9759 375.543 94.7039C375.584 94.8017 375.622 94.9004 375.657 95C375.884 95.6416 376 96.3179 376 97L374 97C374 96.4746 373.897 95.9544 373.696 95.4691C373.495 94.9837 373.2 94.5427 372.829 94.1712C372.457 93.7997 372.016 93.5051 371.531 93.304C371.046 93.103 370.525 92.9995 370 92.9995Z" fill="#737278"/>
</g>
<path d="M415 62L415 63.5C415 64.3284 415.672 65 416.5 65C417.328 65 418 64.3284 418 63.5V61.7426C418 60.947 417.684 60.1839 417.121 59.6213L412.879 55.3787C412.316 54.8161 411.553 54.5 410.757 54.5H401.5C400.672 54.5 400 55.1716 400 56V74C400 74.8284 400.672 75.5 401.5 75.5H406C406.828 75.5 407.5 74.8284 407.5 74C407.5 73.1716 406.828 72.5 406 72.5H403V57.5H410.5V60.5C410.5 61.3284 411.172 62 412 62H415Z" fill="#A4A3A8"/>
<path d="M410.5 72.5C410.5 71.6716 411.172 71 412 71H413.5V69.5C413.5 68.6716 414.172 68 415 68C415.828 68 416.5 68.6716 416.5 69.5V71H418C418.828 71 419.5 71.6716 419.5 72.5C419.5 73.3284 418.828 74 418 74H416.5V75.5C416.5 76.3284 415.828 77 415 77C414.172 77 413.5 76.3284 413.5 75.5V74H412C411.172 74 410.5 73.3284 410.5 72.5Z" fill="#A4A3A8"/>
<rect x="337.706" y="20.7059" width="142.588" height="141.588" rx="2.11765" stroke="#DCDCDE" stroke-width="1.41176" stroke-dasharray="2.82 2.82"/>
<rect x="36" y="129" width="67" height="27" rx="3" fill="#1F75CB"/>
<rect x="36" y="105" width="144" height="8" rx="2" fill="#89888D"/>
<path d="M251.578 71.4223C251.015 70.8592 250.102 70.8592 249.539 71.4223L247.5 73.4611L245.461 71.4223C244.898 70.8592 243.985 70.8592 243.422 71.4223C242.859 71.9853 242.859 72.8981 243.422 73.4611L245.461 75.5L243.422 77.5389C242.859 78.1019 242.859 79.0147 243.422 79.5777C243.985 80.1408 244.898 80.1408 245.461 79.5777L247.5 77.5389L249.539 79.5777C250.102 80.1408 251.015 80.1408 251.578 79.5777C252.141 79.0147 252.141 78.1019 251.578 77.5389L249.539 75.5L251.578 73.4611C252.141 72.8981 252.141 71.9853 251.578 71.4223Z" fill="#737278"/>
<rect x="112" y="72" width="115" height="8" rx="2" fill="#89888D"/>
<rect x="37" y="63" width="65" height="25" rx="2" fill="white"/>
<rect x="37" y="63" width="65" height="25" rx="2" stroke="#A4A3A8" stroke-width="2"/>
<rect x="36" y="36" width="115" height="8" rx="2" fill="#535158"/>
<circle cx="409" cy="143" r="16" fill="#7B58CF"/>
<circle cx="409" cy="143" r="18" stroke="#7B58CF" stroke-opacity="0.3" stroke-width="4"/>
<path d="M399.827 149V147.524H403.391V137.264L399.827 139.928V138.074L402.797 135.86H405.011V147.524H407.927V149H399.827ZM410.62 149V147.524H414.184V137.264L410.62 139.928V138.074L413.59 135.86H415.804V147.524H418.72V149H410.62Z" fill="white"/>
<circle cx="470" cy="97" r="16" fill="#7B58CF"/>
<circle cx="470" cy="97" r="18" stroke="#7B58CF" stroke-opacity="0.3" stroke-width="4"/>
<path d="M460.827 103V101.524H464.391V91.264L460.827 93.928V92.074L463.797 89.86H466.011V101.524H468.927V103H460.827ZM475.4 103.18C474.596 103.18 473.894 103.024 473.294 102.712C472.706 102.388 472.25 101.938 471.926 101.362C471.602 100.774 471.44 100.09 471.44 99.31V93.55C471.44 92.758 471.602 92.074 471.926 91.498C472.25 90.922 472.706 90.478 473.294 90.166C473.894 89.842 474.596 89.68 475.4 89.68C476.216 89.68 476.918 89.842 477.506 90.166C478.094 90.478 478.55 90.922 478.874 91.498C479.198 92.074 479.36 92.758 479.36 93.55V99.31C479.36 100.09 479.198 100.774 478.874 101.362C478.55 101.938 478.088 102.388 477.488 102.712C476.9 103.024 476.204 103.18 475.4 103.18ZM475.4 101.794C476.12 101.794 476.696 101.566 477.128 101.11C477.572 100.642 477.794 100.042 477.794 99.31V93.55C477.794 92.818 477.572 92.224 477.128 91.768C476.696 91.3 476.12 91.066 475.4 91.066C474.68 91.066 474.098 91.3 473.654 91.768C473.222 92.224 473.006 92.818 473.006 93.55V99.31C473.006 100.042 473.222 100.642 473.654 101.11C474.098 101.566 474.68 101.794 475.4 101.794ZM475.4 97.42C475.076 97.42 474.812 97.33 474.608 97.15C474.416 96.97 474.32 96.712 474.32 96.376C474.32 96.052 474.416 95.806 474.608 95.638C474.812 95.458 475.076 95.368 475.4 95.368C475.724 95.368 475.982 95.458 476.174 95.638C476.378 95.806 476.48 96.052 476.48 96.376C476.48 96.712 476.378 96.97 476.174 97.15C475.982 97.33 475.724 97.42 475.4 97.42Z" fill="white"/>
<circle cx="348" cy="97" r="16" fill="#7B58CF"/>
<circle cx="348" cy="97" r="18" stroke="#7B58CF" stroke-opacity="0.3" stroke-width="4"/>
<path d="M346.114 103L349.354 97.366L349.3 97.33C349.216 97.45 349.084 97.558 348.904 97.654C348.736 97.75 348.538 97.828 348.31 97.888C348.082 97.936 347.836 97.96 347.572 97.96C346.816 97.96 346.15 97.792 345.574 97.456C345.01 97.108 344.566 96.634 344.242 96.034C343.918 95.434 343.756 94.738 343.756 93.946C343.756 93.094 343.936 92.35 344.296 91.714C344.656 91.078 345.154 90.58 345.79 90.22C346.426 89.86 347.158 89.68 347.986 89.68C348.838 89.68 349.582 89.86 350.218 90.22C350.854 90.568 351.352 91.06 351.712 91.696C352.072 92.32 352.252 93.046 352.252 93.874C352.252 94.45 352.144 95.044 351.928 95.656C351.712 96.256 351.418 96.886 351.046 97.546L348.004 103H346.114ZM348.004 96.7C348.784 96.7 349.414 96.442 349.894 95.926C350.386 95.41 350.632 94.738 350.632 93.91C350.632 93.358 350.518 92.872 350.29 92.452C350.074 92.032 349.768 91.708 349.372 91.48C348.988 91.24 348.532 91.12 348.004 91.12C347.488 91.12 347.032 91.24 346.636 91.48C346.24 91.708 345.928 92.032 345.7 92.452C345.484 92.872 345.376 93.358 345.376 93.91C345.376 94.462 345.484 94.948 345.7 95.368C345.928 95.788 346.24 96.118 346.636 96.358C347.032 96.586 347.488 96.7 348.004 96.7Z" fill="white"/>
<circle cx="409" cy="38" r="16" fill="#7B58CF"/>
<circle cx="409" cy="38" r="18" stroke="#7B58CF" stroke-opacity="0.3" stroke-width="4"/>
<path d="M409.004 44.18C408.176 44.18 407.444 44.018 406.808 43.694C406.172 43.37 405.674 42.92 405.314 42.344C404.966 41.756 404.792 41.084 404.792 40.328C404.792 39.776 404.9 39.272 405.116 38.816C405.332 38.36 405.632 37.982 406.016 37.682C406.412 37.37 406.874 37.172 407.402 37.088V37.034C406.718 36.878 406.172 36.536 405.764 36.008C405.356 35.468 405.152 34.85 405.152 34.154C405.152 33.47 405.314 32.87 405.638 32.354C405.962 31.826 406.412 31.418 406.988 31.13C407.576 30.83 408.248 30.68 409.004 30.68C409.772 30.68 410.444 30.83 411.02 31.13C411.596 31.418 412.046 31.826 412.37 32.354C412.694 32.87 412.856 33.47 412.856 34.154C412.856 34.85 412.652 35.468 412.244 36.008C411.836 36.536 411.29 36.878 410.606 37.034V37.088C411.134 37.172 411.59 37.37 411.974 37.682C412.37 37.982 412.676 38.36 412.892 38.816C413.108 39.272 413.216 39.776 413.216 40.328C413.216 41.084 413.036 41.756 412.676 42.344C412.328 42.92 411.836 43.37 411.2 43.694C410.576 44.018 409.844 44.18 409.004 44.18ZM409.004 42.722C409.772 42.722 410.396 42.5 410.876 42.056C411.356 41.6 411.596 41.012 411.596 40.292C411.596 39.56 411.356 38.972 410.876 38.528C410.396 38.072 409.772 37.844 409.004 37.844C408.236 37.844 407.612 38.072 407.132 38.528C406.652 38.972 406.412 39.56 406.412 40.292C406.412 41.012 406.652 41.6 407.132 42.056C407.612 42.5 408.236 42.722 409.004 42.722ZM409.004 36.404C409.676 36.404 410.216 36.206 410.624 35.81C411.032 35.414 411.236 34.898 411.236 34.262C411.236 33.626 411.032 33.11 410.624 32.714C410.216 32.318 409.676 32.12 409.004 32.12C408.344 32.12 407.804 32.318 407.384 32.714C406.976 33.11 406.772 33.626 406.772 34.262C406.772 34.898 406.976 35.414 407.384 35.81C407.804 36.206 408.344 36.404 409.004 36.404Z" fill="white"/>
<circle cx="321" cy="40" r="16" fill="#7B58CF"/>
<circle cx="321" cy="40" r="18" stroke="#7B58CF" stroke-opacity="0.3" stroke-width="4"/>
<path d="M319.024 46L323.704 34.336H318.7V36.46H317.08V32.86H325.432V34.372L320.788 46H319.024Z" fill="white"/>
<circle cx="248" cy="98" r="16" fill="#7B58CF"/>
<circle cx="248" cy="98" r="18" stroke="#7B58CF" stroke-opacity="0.3" stroke-width="4"/>
<path d="M248.022 104.18C247.182 104.18 246.438 104.006 245.79 103.658C245.154 103.298 244.656 102.806 244.296 102.182C243.936 101.546 243.756 100.814 243.756 99.986C243.756 99.41 243.864 98.822 244.08 98.222C244.296 97.61 244.59 96.974 244.962 96.314L248.004 90.86H249.804L246.564 96.494L246.618 96.53C246.774 96.326 247.008 96.17 247.32 96.062C247.632 95.954 247.974 95.9 248.346 95.9C249.126 95.9 249.804 96.074 250.38 96.422C250.968 96.758 251.424 97.226 251.748 97.826C252.084 98.426 252.252 99.122 252.252 99.914C252.252 100.754 252.072 101.498 251.712 102.146C251.352 102.782 250.854 103.28 250.218 103.64C249.594 104 248.862 104.18 248.022 104.18ZM248.004 102.74C248.532 102.74 248.988 102.626 249.372 102.398C249.768 102.158 250.074 101.828 250.29 101.408C250.518 100.988 250.632 100.502 250.632 99.95C250.632 99.398 250.518 98.912 250.29 98.492C250.074 98.072 249.768 97.748 249.372 97.52C248.988 97.28 248.532 97.16 248.004 97.16C247.488 97.16 247.032 97.28 246.636 97.52C246.24 97.748 245.928 98.072 245.7 98.492C245.484 98.912 245.376 99.398 245.376 99.95C245.376 100.502 245.484 100.988 245.7 101.408C245.928 101.828 246.24 102.158 246.636 102.398C247.032 102.626 247.488 102.74 248.004 102.74Z" fill="white"/>
<circle cx="20" cy="143" r="16" fill="#7B58CF"/>
<circle cx="20" cy="143" r="18" stroke="#7B58CF" stroke-opacity="0.3" stroke-width="4"/>
<path d="M19.8955 149.18C18.6835 149.18 17.7235 148.844 17.0155 148.172C16.3075 147.488 15.9535 146.564 15.9535 145.4H17.5735C17.5735 146.12 17.7835 146.69 18.2035 147.11C18.6235 147.53 19.1935 147.74 19.9135 147.74C20.6335 147.74 21.2035 147.53 21.6235 147.11C22.0435 146.69 22.2535 146.12 22.2535 145.4V144.59C22.2535 143.87 22.0495 143.3 21.6415 142.88C21.2335 142.46 20.6815 142.25 19.9855 142.25H16.4035V135.86H23.4055V137.336H17.9155L17.9515 140.774H20.0755C21.2875 140.774 22.2235 141.11 22.8835 141.782C23.5435 142.442 23.8735 143.378 23.8735 144.59V145.4C23.8735 146.564 23.5135 147.488 22.7935 148.172C22.0855 148.844 21.1195 149.18 19.8955 149.18Z" fill="white"/>
<circle cx="108" cy="109" r="16" fill="#7B58CF"/>
<circle cx="108" cy="109" r="18" stroke="#7B58CF" stroke-opacity="0.3" stroke-width="4"/>
<path d="M109.804 115V112.12H103.864V109.582L108.652 101.86H110.488L105.484 109.942V110.644H109.804V107.44H111.424V115H109.804Z" fill="white"/>
<circle cx="169" cy="76" r="16" fill="#7B58CF"/>
<circle cx="169" cy="76" r="18" stroke="#7B58CF" stroke-opacity="0.3" stroke-width="4"/>
<path d="M168.806 82.18C167.594 82.18 166.634 81.844 165.926 81.172C165.218 80.488 164.864 79.564 164.864 78.4H166.484C166.484 79.12 166.694 79.69 167.114 80.11C167.534 80.53 168.104 80.74 168.824 80.74C169.544 80.74 170.114 80.53 170.534 80.11C170.954 79.69 171.164 79.12 171.164 78.4V77.5C171.164 76.78 170.954 76.21 170.534 75.79C170.114 75.37 169.544 75.16 168.824 75.16H167.402V73.756L170.624 70.336H165.224V68.86H172.46V70.372L168.86 74.206V73.72C170.072 73.72 171.026 74.062 171.722 74.746C172.43 75.418 172.784 76.336 172.784 77.5V78.4C172.784 79.564 172.424 80.488 171.704 81.172C170.996 81.844 170.03 82.18 168.806 82.18Z" fill="white"/>
<circle cx="20" cy="76" r="16" fill="#7B58CF"/>
<circle cx="20" cy="76" r="18" stroke="#7B58CF" stroke-opacity="0.3" stroke-width="4"/>
<path d="M16.1515 82V80.506L20.5255 75.826C21.1615 75.154 21.6115 74.554 21.8755 74.026C22.1395 73.498 22.2715 72.982 22.2715 72.478C22.2715 71.758 22.0615 71.188 21.6415 70.768C21.2335 70.336 20.6755 70.12 19.9675 70.12C19.2355 70.12 18.6535 70.342 18.2215 70.786C17.8015 71.218 17.5915 71.806 17.5915 72.55H15.9715C15.9955 71.758 16.1755 71.074 16.5115 70.498C16.8475 69.91 17.3095 69.46 17.8975 69.148C18.4855 68.836 19.1755 68.68 19.9675 68.68C20.7835 68.68 21.4855 68.836 22.0735 69.148C22.6615 69.46 23.1175 69.904 23.4415 70.48C23.7655 71.044 23.9275 71.716 23.9275 72.496C23.9275 73.12 23.7535 73.78 23.4055 74.476C23.0695 75.172 22.4875 75.952 21.6595 76.816L18.1135 80.524H24.0895V82H16.1515Z" fill="white"/>
<circle cx="92" cy="20" r="16" fill="#7B58CF"/>
<circle cx="92" cy="20" r="18" stroke="#7B58CF" stroke-opacity="0.3" stroke-width="4"/>
<path d="M88.2235 26V24.524H91.7875V14.264L88.2235 16.928V15.074L91.1935 12.86H93.4075V24.524H96.3235V26H88.2235Z" fill="white"/>
</g>
<defs>
<clipPath id="clip0_650_12499">
<rect width="490" height="163" fill="white"/>
</clipPath>
<clipPath id="clip1_650_12499">
<rect width="12" height="12" fill="white" transform="translate(364 91)"/>
</clipPath>
</defs>
</svg>
