<svg width="481" height="143" viewBox="0 0 481 143" fill="none" xmlns="http://www.w3.org/2000/svg">
<rect x="28" y="85" width="144" height="8" rx="2" fill="#999999"/>
<rect x="28" y="14" width="115" height="12" rx="2" fill="#666666"/>
<rect x="29" y="43" width="66" height="25" rx="2" fill="white" stroke="#999999" stroke-width="2"/>
<rect x="28" y="109" width="67" height="27" rx="3" fill="#1F75CB"/>
<rect x="104" y="51" width="116" height="8" rx="2" fill="#999999"/>
<path d="M244.578 51.4223C244.015 50.8592 243.102 50.8592 242.539 51.4223L240.5 53.4611L238.461 51.4223C237.898 50.8592 236.985 50.8592 236.422 51.4223C235.859 51.9853 235.859 52.8981 236.422 53.4611L238.461 55.5L236.422 57.5389C235.859 58.1019 235.859 59.0147 236.422 59.5777C236.985 60.1408 237.898 60.1408 238.461 59.5777L240.5 57.5389L242.539 59.5777C243.102 60.1408 244.015 60.1408 244.578 59.5777C245.141 59.0147 245.141 58.1019 244.578 57.5389L242.539 55.5L244.578 53.4611C245.141 52.8981 245.141 51.9853 244.578 51.4223Z" fill="#666666"/>
<circle cx="61" cy="123" r="16" fill="#7B58CF"/>
<circle cx="61" cy="123" r="18" stroke="#7B58CF" stroke-opacity="0.3" stroke-width="4"/>
<path d="M57.3965 115.878H64.041V117.372H59.0137V120.598C59.2656 120.504 59.5176 120.437 59.7695 120.396C60.0273 120.349 60.2852 120.325 60.543 120.325C61.9023 120.325 62.9805 120.727 63.7773 121.529C64.5742 122.332 64.9727 123.419 64.9727 124.79C64.9727 126.173 64.5537 127.263 63.7158 128.06C62.8838 128.856 61.7441 129.255 60.2969 129.255C59.5996 129.255 58.9609 129.208 58.3809 129.114C57.8066 129.021 57.291 128.88 56.834 128.692V126.891C57.373 127.184 57.915 127.403 58.46 127.55C59.0049 127.69 59.5615 127.761 60.1299 127.761C61.1084 127.761 61.8613 127.503 62.3887 126.987C62.9219 126.472 63.1885 125.739 63.1885 124.79C63.1885 123.853 62.9131 123.123 62.3623 122.602C61.8174 122.08 61.0557 121.819 60.0771 121.819C59.6025 121.819 59.1396 121.875 58.6885 121.986C58.2373 122.092 57.8066 122.253 57.3965 122.47V115.878Z" fill="white"/>
<circle cx="240" cy="78" r="16" fill="#7B58CF"/>
<circle cx="240" cy="78" r="18" stroke="#7B58CF" stroke-opacity="0.3" stroke-width="4"/>
<path d="M243.287 71.168V72.8027C242.918 72.5859 242.525 72.4219 242.109 72.3105C241.693 72.1934 241.26 72.1348 240.809 72.1348C239.684 72.1348 238.831 72.5596 238.251 73.4092C237.671 74.2529 237.381 75.498 237.381 77.1445C237.662 76.5586 238.052 76.1104 238.55 75.7998C239.048 75.4834 239.619 75.3252 240.264 75.3252C241.529 75.3252 242.508 75.7148 243.199 76.4941C243.896 77.2676 244.245 78.3662 244.245 79.79C244.245 81.208 243.888 82.3066 243.173 83.0859C242.458 83.8652 241.453 84.2549 240.158 84.2549C238.635 84.2549 237.519 83.71 236.81 82.6201C236.101 81.5244 235.746 79.8018 235.746 77.4521C235.746 75.2373 236.171 73.5498 237.021 72.3896C237.876 71.2236 239.112 70.6406 240.729 70.6406C241.163 70.6406 241.597 70.6875 242.03 70.7812C242.464 70.8691 242.883 70.998 243.287 71.168ZM240.123 76.7139C239.367 76.7139 238.772 76.9863 238.339 77.5312C237.905 78.0762 237.688 78.8291 237.688 79.79C237.688 80.751 237.905 81.5039 238.339 82.0488C238.772 82.5938 239.367 82.8662 240.123 82.8662C240.908 82.8662 241.5 82.6084 241.898 82.0928C242.297 81.5713 242.496 80.8037 242.496 79.79C242.496 78.7705 242.297 78.0029 241.898 77.4873C241.5 76.9717 240.908 76.7139 240.123 76.7139Z" fill="white"/>
<circle cx="100" cy="89" r="16" fill="#7B58CF"/>
<circle cx="100" cy="89" r="18" stroke="#7B58CF" stroke-opacity="0.3" stroke-width="4"/>
<path d="M101.037 83.4951L96.8975 90.4297H101.037V83.4951ZM100.747 81.8779H102.804V90.4297H104.553V91.8711H102.804V95H101.037V91.8711H95.4736V90.1924L100.747 81.8779Z" fill="white"/>
<circle cx="162" cy="56" r="16" fill="#7B58CF"/>
<circle cx="162" cy="56" r="18" stroke="#7B58CF" stroke-opacity="0.3" stroke-width="4"/>
<path d="M163.397 54.9775C164.259 55.2061 164.918 55.6133 165.375 56.1992C165.832 56.7793 166.061 57.5059 166.061 58.3789C166.061 59.5859 165.653 60.5352 164.839 61.2266C164.03 61.9121 162.908 62.2549 161.473 62.2549C160.869 62.2549 160.254 62.1992 159.627 62.0879C159 61.9766 158.385 61.8154 157.781 61.6045V59.8379C158.379 60.1484 158.968 60.3799 159.548 60.5322C160.128 60.6846 160.705 60.7607 161.279 60.7607C162.252 60.7607 162.999 60.541 163.521 60.1016C164.042 59.6621 164.303 59.0293 164.303 58.2031C164.303 57.4414 164.042 56.8379 163.521 56.3926C162.999 55.9414 162.293 55.7158 161.402 55.7158H160.049V54.2568H161.402C162.217 54.2568 162.853 54.0781 163.31 53.7207C163.767 53.3633 163.995 52.8652 163.995 52.2266C163.995 51.5527 163.781 51.0371 163.354 50.6797C162.932 50.3164 162.328 50.1348 161.543 50.1348C161.021 50.1348 160.482 50.1934 159.926 50.3105C159.369 50.4277 158.786 50.6035 158.177 50.8379V49.2031C158.886 49.0156 159.516 48.875 160.066 48.7812C160.623 48.6875 161.115 48.6406 161.543 48.6406C162.82 48.6406 163.84 48.9629 164.602 49.6074C165.369 50.2461 165.753 51.0957 165.753 52.1562C165.753 52.877 165.551 53.4775 165.146 53.958C164.748 54.4385 164.165 54.7783 163.397 54.9775Z" fill="white"/>
<circle cx="61" cy="56" r="16" fill="#7B58CF"/>
<circle cx="61" cy="56" r="18" stroke="#7B58CF" stroke-opacity="0.3" stroke-width="4"/>
<path d="M58.8555 60.5059H64.8848V62H56.9131V60.5059C58.0088 59.3516 58.9668 58.332 59.7871 57.4473C60.6074 56.5625 61.1729 55.9385 61.4834 55.5752C62.0693 54.8604 62.4648 54.2832 62.6699 53.8438C62.875 53.3984 62.9775 52.9443 62.9775 52.4814C62.9775 51.749 62.7607 51.1748 62.3271 50.7588C61.8994 50.3428 61.3105 50.1348 60.5605 50.1348C60.0273 50.1348 59.4678 50.2314 58.8818 50.4248C58.2959 50.6182 57.6748 50.9111 57.0186 51.3037V49.5107C57.6221 49.2236 58.2139 49.0068 58.7939 48.8604C59.3799 48.7139 59.957 48.6406 60.5254 48.6406C61.8086 48.6406 62.8398 48.9834 63.6191 49.6689C64.4043 50.3486 64.7969 51.2422 64.7969 52.3496C64.7969 52.9121 64.665 53.4746 64.4014 54.0371C64.1436 54.5996 63.7217 55.2207 63.1357 55.9004C62.8076 56.2812 62.3301 56.8086 61.7031 57.4824C61.082 58.1562 60.1328 59.1641 58.8555 60.5059Z" fill="white"/>
<circle cx="20" cy="20" r="16" fill="#7B58CF"/>
<circle cx="20" cy="20" r="18" stroke="#7B58CF" stroke-opacity="0.3" stroke-width="4"/>
<path d="M16.9502 24.5146H19.71V14.6006L16.4053 16.1914V14.4863L19.6924 12.9219H21.4678V24.5146H24.1924V26H16.9502V24.5146Z" fill="white"/>
<rect x="337.706" y="0.705882" width="142.588" height="141.588" rx="2.11765" fill="white"/>
<rect x="381" y="90" width="46" height="16" rx="2" fill="white" stroke="#999999" stroke-width="2"/>
<rect x="380" y="73" width="74" height="8" rx="2" fill="#666666"/>
<path fill-rule="evenodd" clip-rule="evenodd" d="M370 81C372.209 81 374 79.2091 374 77C374 74.7909 372.209 73 370 73C367.791 73 366 74.7909 366 77C366 79.2091 367.791 81 370 81ZM370 83C373.314 83 376 80.3137 376 77C376 73.6863 373.314 71 370 71C366.686 71 364 73.6863 364 77C364 80.3137 366.686 83 370 83Z" fill="#DBDBDB"/>
<path fill-rule="evenodd" clip-rule="evenodd" d="M370 72.9995V71C370.682 71 371.358 71.1163 372 71.3431C372.1 71.3783 372.198 71.4162 372.296 71.4567C373.024 71.7583 373.685 72.2002 374.243 72.7574C374.8 73.3145 375.242 73.9759 375.543 74.7039C375.584 74.8017 375.622 74.9004 375.657 75C375.884 75.6416 376 76.3179 376 77L374 77C374 76.4746 373.897 75.9544 373.696 75.4691C373.495 74.9837 373.2 74.5427 372.829 74.1712C372.457 73.7997 372.016 73.5051 371.531 73.304C371.046 73.103 370.525 72.9995 370 72.9995Z" fill="#666666"/>
<path d="M415 42L415 43.5C415 44.3284 415.672 45 416.5 45C417.328 45 418 44.3284 418 43.5V41.7426C418 40.947 417.684 40.1839 417.121 39.6213L412.879 35.3787C412.316 34.8161 411.553 34.5 410.757 34.5H401.5C400.672 34.5 400 35.1716 400 36V54C400 54.8284 400.672 55.5 401.5 55.5H406C406.828 55.5 407.5 54.8284 407.5 54C407.5 53.1716 406.828 52.5 406 52.5H403V37.5H410.5V40.5C410.5 41.3284 411.172 42 412 42H415Z" fill="#999999"/>
<path d="M410.5 52.5C410.5 51.6716 411.172 51 412 51H413.5V49.5C413.5 48.6716 414.172 48 415 48C415.828 48 416.5 48.6716 416.5 49.5V51H418C418.828 51 419.5 51.6716 419.5 52.5C419.5 53.3284 418.828 54 418 54H416.5V55.5C416.5 56.3284 415.828 57 415 57C414.172 57 413.5 56.3284 413.5 55.5V54H412C411.172 54 410.5 53.3284 410.5 52.5Z" fill="#999999"/>
<rect x="337.706" y="0.705882" width="142.588" height="141.588" rx="2.11765" stroke="#DBDBDB" stroke-width="1.41176" stroke-dasharray="2.82 2.82"/>
<circle cx="324" cy="20" r="16" fill="#7B58CF"/>
<circle cx="324" cy="20" r="18" stroke="#7B58CF" stroke-opacity="0.3" stroke-width="4"/>
<path d="M319.799 12.8779H328.061V13.6338L323.367 26H321.513L326.083 14.3721H319.799V12.8779Z" fill="white"/>
<circle cx="409" cy="20" r="16" fill="#7B58CF"/>
<circle cx="409" cy="20" r="18" stroke="#7B58CF" stroke-opacity="0.3" stroke-width="4"/>
<path d="M408.991 19.7686C408.2 19.7686 407.588 19.9912 407.154 20.4365C406.727 20.876 406.513 21.5 406.513 22.3086C406.513 23.1172 406.729 23.7471 407.163 24.1982C407.603 24.6436 408.212 24.8662 408.991 24.8662C409.788 24.8662 410.4 24.6465 410.828 24.207C411.262 23.7617 411.479 23.1289 411.479 22.3086C411.479 21.5059 411.259 20.8818 410.819 20.4365C410.386 19.9912 409.776 19.7686 408.991 19.7686ZM407.444 19.0303C406.688 18.8369 406.097 18.4766 405.669 17.9492C405.247 17.4219 405.036 16.7861 405.036 16.042C405.036 14.999 405.391 14.1729 406.1 13.5635C406.809 12.9482 407.772 12.6406 408.991 12.6406C410.216 12.6406 411.183 12.9482 411.892 13.5635C412.601 14.1729 412.955 14.999 412.955 16.042C412.955 16.7861 412.741 17.4219 412.313 17.9492C411.892 18.4766 411.303 18.8369 410.547 19.0303C411.426 19.2236 412.097 19.6133 412.56 20.1992C413.028 20.7852 413.263 21.5439 413.263 22.4756C413.263 23.6592 412.885 24.585 412.129 25.2529C411.373 25.9209 410.327 26.2549 408.991 26.2549C407.655 26.2549 406.609 25.9238 405.854 25.2617C405.104 24.5938 404.729 23.6709 404.729 22.4932C404.729 21.5557 404.96 20.7939 405.423 20.208C405.892 19.6162 406.565 19.2236 407.444 19.0303ZM406.803 16.209C406.803 16.9121 406.99 17.4482 407.365 17.8174C407.74 18.1865 408.282 18.3711 408.991 18.3711C409.706 18.3711 410.251 18.1865 410.626 17.8174C411.001 17.4482 411.188 16.9121 411.188 16.209C411.188 15.4941 411.001 14.9492 410.626 14.5742C410.257 14.1992 409.712 14.0117 408.991 14.0117C408.282 14.0117 407.74 14.2021 407.365 14.583C406.99 14.958 406.803 15.5 406.803 16.209Z" fill="white"/>
<circle cx="347" cy="77" r="16" fill="#7B58CF"/>
<circle cx="347" cy="77" r="18" stroke="#7B58CF" stroke-opacity="0.3" stroke-width="4"/>
<path d="M346.815 77.1816C347.571 77.1816 348.163 76.9092 348.591 76.3643C349.024 75.8193 349.241 75.0664 349.241 74.1055C349.241 73.1445 349.024 72.3916 348.591 71.8467C348.163 71.3018 347.571 71.0293 346.815 71.0293C346.03 71.0293 345.438 71.29 345.04 71.8115C344.642 72.3271 344.442 73.0918 344.442 74.1055C344.442 75.125 344.639 75.8926 345.031 76.4082C345.43 76.9238 346.024 77.1816 346.815 77.1816ZM343.651 82.7275V81.0928C344.021 81.3096 344.413 81.4766 344.829 81.5938C345.245 81.7051 345.679 81.7607 346.13 81.7607C347.255 81.7607 348.104 81.3389 348.679 80.4951C349.259 79.6455 349.549 78.3975 349.549 76.751C349.273 77.3369 348.887 77.7881 348.389 78.1045C347.891 78.415 347.319 78.5703 346.675 78.5703C345.409 78.5703 344.428 78.1807 343.73 77.4014C343.039 76.6221 342.693 75.5176 342.693 74.0879C342.693 72.6758 343.048 71.583 343.757 70.8096C344.472 70.0303 345.479 69.6406 346.78 69.6406C348.304 69.6406 349.42 70.1885 350.129 71.2842C350.838 72.3799 351.192 74.1025 351.192 76.4521C351.192 78.6611 350.765 80.3486 349.909 81.5146C349.06 82.6748 347.823 83.2549 346.2 83.2549C345.772 83.2549 345.342 83.208 344.908 83.1143C344.475 83.0264 344.056 82.8975 343.651 82.7275Z" fill="white"/>
<circle cx="417" cy="77" r="16" fill="#7B58CF"/>
<circle cx="417" cy="77" r="18" stroke="#7B58CF" stroke-opacity="0.3" stroke-width="4"/>
<path d="M408.527 81.5146H411.287V71.6006L407.982 73.1914V71.4863L411.27 69.9219H413.045V81.5146H415.77V83H408.527V81.5146ZM422.414 69.6846C423.814 69.6846 424.872 70.2559 425.587 71.3984C426.308 72.541 426.668 74.2314 426.668 76.4697C426.668 78.708 426.308 80.3984 425.587 81.541C424.872 82.6836 423.814 83.2549 422.414 83.2549C421.014 83.2549 419.956 82.6836 419.241 81.541C418.526 80.3984 418.169 78.708 418.169 76.4697C418.169 74.2314 418.526 72.541 419.241 71.3984C419.956 70.2559 421.014 69.6846 422.414 69.6846ZM422.414 81.8486C423.246 81.8486 423.864 81.4062 424.269 80.5215C424.679 79.6367 424.884 78.2861 424.884 76.4697C424.884 75.5029 424.825 74.6299 424.708 73.8506L420.524 80.3984C420.964 81.3652 421.594 81.8486 422.414 81.8486ZM422.414 71.0908C421.588 71.0908 420.97 71.5332 420.56 72.418C420.155 73.3027 419.953 74.6533 419.953 76.4697C419.953 77.2959 420.009 78.0693 420.12 78.79L424.216 72.2598C423.771 71.4805 423.17 71.0908 422.414 71.0908Z" fill="white"/>
<circle cx="405" cy="120" r="16" fill="#7B58CF"/>
<circle cx="405" cy="120" r="18" stroke="#7B58CF" stroke-opacity="0.3" stroke-width="4"/>
<path d="M396.527 124.515H399.287V114.601L395.982 116.191V114.486L399.27 112.922H401.045V124.515H403.77V126H396.527V124.515ZM407.373 124.515H410.133V114.601L406.828 116.191V114.486L410.115 112.922H411.891V124.515H414.615V126H407.373V124.515Z" fill="white"/>
</svg>
