<svg width="297" height="107" viewBox="0 0 297 107" fill="none" xmlns="http://www.w3.org/2000/svg">
<rect x="28" y="82.1154" width="146.596" height="8.88461" rx="2.96154" fill="#999999"/>
<rect x="28" y="14" width="115.5" height="11.8461" rx="2.96154" fill="#666666"/>
<rect x="29.4808" y="42.1346" width="63.6731" height="23.6923" rx="2.96154" fill="white" stroke="#999999" stroke-width="2.96154"/>
<rect x="106.481" y="49.5385" width="118.462" height="8.88462" rx="2.96154" fill="#999999"/>
<path d="M248.56 49.9722C247.982 49.3939 247.044 49.3939 246.466 49.9722L244.372 52.0663L242.278 49.9722C241.7 49.3939 240.762 49.3939 240.184 49.9722C239.605 50.5504 239.605 51.488 240.184 52.0663L242.278 54.1604L240.184 56.2545C239.605 56.8328 239.605 57.7704 240.184 58.3487C240.762 58.9269 241.7 58.9269 242.278 58.3487L244.372 56.2545L246.466 58.3487C247.044 58.9269 247.982 58.9269 248.56 58.3487C249.138 57.7704 249.138 56.8328 248.56 56.2545L246.466 54.1604L248.56 52.0663C249.138 51.488 249.138 50.5504 248.56 49.9722Z" fill="#666666"/>
<circle cx="137" cy="87" r="16" fill="#7B58CF"/>
<circle cx="137" cy="87" r="18" stroke="#7B58CF" stroke-opacity="0.3" stroke-width="4"/>
<path d="M133.396 79.8779H140.041V81.3721H135.014V84.5977C135.266 84.5039 135.518 84.4365 135.77 84.3955C136.027 84.3486 136.285 84.3252 136.543 84.3252C137.902 84.3252 138.98 84.7266 139.777 85.5293C140.574 86.332 140.973 87.4189 140.973 88.79C140.973 90.1729 140.554 91.2627 139.716 92.0596C138.884 92.8564 137.744 93.2549 136.297 93.2549C135.6 93.2549 134.961 93.208 134.381 93.1143C133.807 93.0205 133.291 92.8799 132.834 92.6924V90.8906C133.373 91.1836 133.915 91.4033 134.46 91.5498C135.005 91.6904 135.562 91.7607 136.13 91.7607C137.108 91.7607 137.861 91.5029 138.389 90.9873C138.922 90.4717 139.188 89.7393 139.188 88.79C139.188 87.8525 138.913 87.123 138.362 86.6016C137.817 86.0801 137.056 85.8193 136.077 85.8193C135.603 85.8193 135.14 85.875 134.688 85.9863C134.237 86.0918 133.807 86.2529 133.396 86.4697V79.8779Z" fill="white"/>
<circle cx="277" cy="53" r="16" fill="#7B58CF"/>
<circle cx="277" cy="53" r="18" stroke="#7B58CF" stroke-opacity="0.3" stroke-width="4"/>
<path d="M278.037 47.4951L273.897 54.4297H278.037V47.4951ZM277.747 45.8779H279.804V54.4297H281.553V55.8711H279.804V59H278.037V55.8711H272.474V54.1924L277.747 45.8779Z" fill="white"/>
<circle cx="191" cy="53" r="16" fill="#7B58CF"/>
<circle cx="191" cy="53" r="18" stroke="#7B58CF" stroke-opacity="0.3" stroke-width="4"/>
<path d="M192.397 51.9775C193.259 52.2061 193.918 52.6133 194.375 53.1992C194.832 53.7793 195.061 54.5059 195.061 55.3789C195.061 56.5859 194.653 57.5352 193.839 58.2266C193.03 58.9121 191.908 59.2549 190.473 59.2549C189.869 59.2549 189.254 59.1992 188.627 59.0879C188 58.9766 187.385 58.8154 186.781 58.6045V56.8379C187.379 57.1484 187.968 57.3799 188.548 57.5322C189.128 57.6846 189.705 57.7607 190.279 57.7607C191.252 57.7607 191.999 57.541 192.521 57.1016C193.042 56.6621 193.303 56.0293 193.303 55.2031C193.303 54.4414 193.042 53.8379 192.521 53.3926C191.999 52.9414 191.293 52.7158 190.402 52.7158H189.049V51.2568H190.402C191.217 51.2568 191.853 51.0781 192.31 50.7207C192.767 50.3633 192.995 49.8652 192.995 49.2266C192.995 48.5527 192.781 48.0371 192.354 47.6797C191.932 47.3164 191.328 47.1348 190.543 47.1348C190.021 47.1348 189.482 47.1934 188.926 47.3105C188.369 47.4277 187.786 47.6035 187.177 47.8379V46.2031C187.886 46.0156 188.516 45.875 189.066 45.7812C189.623 45.6875 190.115 45.6406 190.543 45.6406C191.82 45.6406 192.84 45.9629 193.602 46.6074C194.369 47.2461 194.753 48.0957 194.753 49.1562C194.753 49.877 194.551 50.4775 194.146 50.958C193.748 51.4385 193.165 51.7783 192.397 51.9775Z" fill="white"/>
<circle cx="20" cy="54" r="16" fill="#7B58CF"/>
<circle cx="20" cy="54" r="18" stroke="#7B58CF" stroke-opacity="0.3" stroke-width="4"/>
<path d="M17.8555 58.5059H23.8848V60H15.9131V58.5059C17.0088 57.3516 17.9668 56.332 18.7871 55.4473C19.6074 54.5625 20.1729 53.9385 20.4834 53.5752C21.0693 52.8604 21.4648 52.2832 21.6699 51.8438C21.875 51.3984 21.9775 50.9443 21.9775 50.4814C21.9775 49.749 21.7607 49.1748 21.3271 48.7588C20.8994 48.3428 20.3105 48.1348 19.5605 48.1348C19.0273 48.1348 18.4678 48.2314 17.8818 48.4248C17.2959 48.6182 16.6748 48.9111 16.0186 49.3037V47.5107C16.6221 47.2236 17.2139 47.0068 17.7939 46.8604C18.3799 46.7139 18.957 46.6406 19.5254 46.6406C20.8086 46.6406 21.8398 46.9834 22.6191 47.6689C23.4043 48.3486 23.7969 49.2422 23.7969 50.3496C23.7969 50.9121 23.665 51.4746 23.4014 52.0371C23.1436 52.5996 22.7217 53.2207 22.1357 53.9004C21.8076 54.2812 21.3301 54.8086 20.7031 55.4824C20.082 56.1562 19.1328 57.1641 17.8555 58.5059Z" fill="white"/>
<circle cx="70" cy="20" r="16" fill="#7B58CF"/>
<circle cx="70" cy="20" r="18" stroke="#7B58CF" stroke-opacity="0.3" stroke-width="4"/>
<path d="M66.9502 24.5146H69.71V14.6006L66.4053 16.1914V14.4863L69.6924 12.9219H71.4678V24.5146H74.1924V26H66.9502V24.5146Z" fill="white"/>
</svg>
