<svg width="490" height="163" fill="none" xmlns="http://www.w3.org/2000/svg"><g clip-path="url(#file-uploader-structure__a)"><rect x="337.706" y="20.706" width="142.588" height="141.588" rx="2.118" fill="#fff"/><rect x="383" y="110" width="52" height="16" rx="2" fill="#fff"/><rect x="383" y="110" width="52" height="16" rx="2" stroke="#A4A3A8" stroke-width="2"/><rect x="380" y="93" width="74" height="8" rx="2" fill="#89888D"/><g clip-path="url(#file-uploader-structure__b)" fill-rule="evenodd" clip-rule="evenodd"><path d="M370 101a4 4 0 1 0 0-8 4 4 0 0 0 0 8Zm0 2a6 6 0 1 0 0-12 6 6 0 0 0 0 12Z" fill="#DCDCDE"/><path d="M370 93v-2a6.003 6.003 0 0 1 5.657 4c.227.642.343 1.318.343 2h-2a4 4 0 0 0-4-4Z" fill="#737278"/></g><path d="M415 62v1.5a1.5 1.5 0 0 0 3 0v-1.757c0-.796-.316-1.56-.879-2.122l-4.242-4.242a3.002 3.002 0 0 0-2.122-.879H401.5A1.5 1.5 0 0 0 400 56v18a1.5 1.5 0 0 0 1.5 1.5h4.5a1.5 1.5 0 0 0 0-3h-3v-15h7.5v3A1.5 1.5 0 0 0 412 62h3Z" fill="#A4A3A8"/><path d="M410.5 72.5A1.5 1.5 0 0 1 412 71h1.5v-1.5a1.5 1.5 0 0 1 3 0V71h1.5a1.5 1.5 0 0 1 0 3h-1.5v1.5a1.5 1.5 0 0 1-3 0V74H412a1.5 1.5 0 0 1-1.5-1.5Z" fill="#A4A3A8"/><rect x="337.706" y="20.706" width="142.588" height="141.588" rx="2.118" stroke="#DCDCDE" stroke-width="1.412" stroke-dasharray="2.82 2.82"/><rect x="36" y="129" width="67" height="27" rx="3" fill="#1F75CB"/><rect x="36" y="105" width="144" height="8" rx="2" fill="#89888D"/><path d="M251.578 71.422a1.442 1.442 0 0 0-2.039 0l-2.039 2.04-2.039-2.04a1.442 1.442 0 1 0-2.039 2.04l2.039 2.038-2.039 2.039a1.442 1.442 0 1 0 2.039 2.039l2.039-2.04 2.039 2.04a1.442 1.442 0 1 0 2.039-2.04l-2.039-2.038 2.039-2.039a1.442 1.442 0 0 0 0-2.039Z" fill="#737278"/><rect x="112" y="72" width="115" height="8" rx="2" fill="#89888D"/><rect x="37" y="63" width="65" height="25" rx="2" fill="#fff"/><rect x="37" y="63" width="65" height="25" rx="2" stroke="#A4A3A8" stroke-width="2"/><rect x="36" y="36" width="115" height="8" rx="2" fill="#535158"/><circle cx="409" cy="143" r="16" fill="#7B58CF"/><circle cx="409" cy="143" r="18" stroke="#7B58CF" stroke-opacity=".3" stroke-width="4"/><path d="M399.827 149v-1.476h3.564v-10.26l-3.564 2.664v-1.854l2.97-2.214h2.214v11.664h2.916V149h-8.1Zm10.793 0v-1.476h3.564v-10.26l-3.564 2.664v-1.854l2.97-2.214h2.214v11.664h2.916V149h-8.1Z" fill="#fff"/><circle cx="470" cy="97" r="16" fill="#7B58CF"/><circle cx="470" cy="97" r="18" stroke="#7B58CF" stroke-opacity=".3" stroke-width="4"/><path d="M460.827 103v-1.476h3.564v-10.26l-3.564 2.664v-1.854l2.97-2.214h2.214v11.664h2.916V103h-8.1Zm14.573.18c-.804 0-1.506-.156-2.106-.468a3.444 3.444 0 0 1-1.368-1.35c-.324-.588-.486-1.272-.486-2.052v-5.76c0-.792.162-1.476.486-2.052.324-.576.78-1.02 1.368-1.332.6-.324 1.302-.486 2.106-.486.816 0 1.518.162 2.106.486a3.325 3.325 0 0 1 1.368 1.332c.324.576.486 1.26.486 2.052v5.76c0 .78-.162 1.464-.486 2.052a3.414 3.414 0 0 1-1.386 1.35c-.588.312-1.284.468-2.088.468Zm0-1.386c.72 0 1.296-.228 1.728-.684.444-.468.666-1.068.666-1.8v-5.76c0-.732-.222-1.326-.666-1.782-.432-.468-1.008-.702-1.728-.702s-1.302.234-1.746.702c-.432.456-.648 1.05-.648 1.782v5.76c0 .732.216 1.332.648 1.8.444.456 1.026.684 1.746.684Zm0-4.374c-.324 0-.588-.09-.792-.27-.192-.18-.288-.438-.288-.774 0-.324.096-.57.288-.738.204-.18.468-.27.792-.27s.582.09.774.27c.204.168.306.414.306.738 0 .336-.102.594-.306.774-.192.18-.45.27-.774.27Z" fill="#fff"/><circle cx="348" cy="97" r="16" fill="#7B58CF"/><circle cx="348" cy="97" r="18" stroke="#7B58CF" stroke-opacity=".3" stroke-width="4"/><path d="m346.114 103 3.24-5.634-.054-.036c-.084.12-.216.228-.396.324a2.453 2.453 0 0 1-.594.234 3.58 3.58 0 0 1-.738.072c-.756 0-1.422-.168-1.998-.504a3.707 3.707 0 0 1-1.332-1.422c-.324-.6-.486-1.296-.486-2.088 0-.852.18-1.596.54-2.232a3.885 3.885 0 0 1 1.494-1.494c.636-.36 1.368-.54 2.196-.54.852 0 1.596.18 2.232.54a3.76 3.76 0 0 1 1.494 1.476c.36.624.54 1.35.54 2.178a5.34 5.34 0 0 1-.324 1.782 12.5 12.5 0 0 1-.882 1.89L348.004 103h-1.89Zm1.89-6.3c.78 0 1.41-.258 1.89-.774.492-.516.738-1.188.738-2.016 0-.552-.114-1.038-.342-1.458a2.317 2.317 0 0 0-.918-.972c-.384-.24-.84-.36-1.368-.36-.516 0-.972.12-1.368.36a2.435 2.435 0 0 0-.936.972c-.216.42-.324.906-.324 1.458 0 .552.108 1.038.324 1.458.228.42.54.75.936.99.396.228.852.342 1.368.342Z" fill="#fff"/><circle cx="409" cy="38" r="16" fill="#7B58CF"/><circle cx="409" cy="38" r="18" stroke="#7B58CF" stroke-opacity=".3" stroke-width="4"/><path d="M409.004 44.18c-.828 0-1.56-.162-2.196-.486a3.702 3.702 0 0 1-1.494-1.35c-.348-.588-.522-1.26-.522-2.016 0-.552.108-1.056.324-1.512a3.1 3.1 0 0 1 .9-1.134c.396-.312.858-.51 1.386-.594v-.054c-.684-.156-1.23-.498-1.638-1.026a2.994 2.994 0 0 1-.612-1.854c0-.684.162-1.284.486-1.8a3.254 3.254 0 0 1 1.35-1.224c.588-.3 1.26-.45 2.016-.45.768 0 1.44.15 2.016.45a3.254 3.254 0 0 1 1.35 1.224c.324.516.486 1.116.486 1.8 0 .696-.204 1.314-.612 1.854-.408.528-.954.87-1.638 1.026v.054c.528.084.984.282 1.368.594.396.3.702.678.918 1.134.216.456.324.96.324 1.512 0 .756-.18 1.428-.54 2.016a3.577 3.577 0 0 1-1.476 1.35c-.624.324-1.356.486-2.196.486Zm0-1.458c.768 0 1.392-.222 1.872-.666.48-.456.72-1.044.72-1.764 0-.732-.24-1.32-.72-1.764-.48-.456-1.104-.684-1.872-.684s-1.392.228-1.872.684c-.48.444-.72 1.032-.72 1.764 0 .72.24 1.308.72 1.764.48.444 1.104.666 1.872.666Zm0-6.318c.672 0 1.212-.198 1.62-.594.408-.396.612-.912.612-1.548s-.204-1.152-.612-1.548c-.408-.396-.948-.594-1.62-.594-.66 0-1.2.198-1.62.594-.408.396-.612.912-.612 1.548s.204 1.152.612 1.548c.42.396.96.594 1.62.594Z" fill="#fff"/><circle cx="321" cy="40" r="16" fill="#7B58CF"/><circle cx="321" cy="40" r="18" stroke="#7B58CF" stroke-opacity=".3" stroke-width="4"/><path d="m319.024 46 4.68-11.664H318.7v2.124h-1.62v-3.6h8.352v1.512L320.788 46h-1.764Z" fill="#fff"/><circle cx="248" cy="98" r="16" fill="#7B58CF"/><circle cx="248" cy="98" r="18" stroke="#7B58CF" stroke-opacity=".3" stroke-width="4"/><path d="M248.022 104.18c-.84 0-1.584-.174-2.232-.522a3.922 3.922 0 0 1-1.494-1.476c-.36-.636-.54-1.368-.54-2.196 0-.576.108-1.164.324-1.764.216-.612.51-1.248.882-1.908l3.042-5.454h1.8l-3.24 5.634.054.036c.156-.204.39-.36.702-.468a3.118 3.118 0 0 1 1.026-.162c.78 0 1.458.174 2.034.522a3.501 3.501 0 0 1 1.368 1.404c.336.6.504 1.296.504 2.088 0 .84-.18 1.584-.54 2.232a3.885 3.885 0 0 1-1.494 1.494c-.624.36-1.356.54-2.196.54Zm-.018-1.44c.528 0 .984-.114 1.368-.342.396-.24.702-.57.918-.99.228-.42.342-.906.342-1.458 0-.552-.114-1.038-.342-1.458a2.317 2.317 0 0 0-.918-.972c-.384-.24-.84-.36-1.368-.36-.516 0-.972.12-1.368.36a2.435 2.435 0 0 0-.936.972c-.216.42-.324.906-.324 1.458 0 .552.108 1.038.324 1.458.228.42.54.75.936.99.396.228.852.342 1.368.342Z" fill="#fff"/><circle cx="20" cy="143" r="16" fill="#7B58CF"/><circle cx="20" cy="143" r="18" stroke="#7B58CF" stroke-opacity=".3" stroke-width="4"/><path d="M19.895 149.18c-1.212 0-2.171-.336-2.88-1.008-.707-.684-1.062-1.608-1.062-2.772h1.62c0 .72.21 1.29.63 1.71.42.42.99.63 1.71.63s1.29-.21 1.71-.63c.42-.42.63-.99.63-1.71v-.81c0-.72-.204-1.29-.611-1.71-.409-.42-.96-.63-1.657-.63h-3.581v-6.39h7.002v1.476h-5.49l.035 3.438h2.125c1.212 0 2.148.336 2.808 1.008.66.66.99 1.596.99 2.808v.81c0 1.164-.36 2.088-1.08 2.772-.709.672-1.675 1.008-2.899 1.008Z" fill="#fff"/><circle cx="108" cy="109" r="16" fill="#7B58CF"/><circle cx="108" cy="109" r="18" stroke="#7B58CF" stroke-opacity=".3" stroke-width="4"/><path d="M109.804 115v-2.88h-5.94v-2.538l4.788-7.722h1.836l-5.004 8.082v.702h4.32v-3.204h1.62V115h-1.62Z" fill="#fff"/><circle cx="169" cy="76" r="16" fill="#7B58CF"/><circle cx="169" cy="76" r="18" stroke="#7B58CF" stroke-opacity=".3" stroke-width="4"/><path d="M168.806 82.18c-1.212 0-2.172-.336-2.88-1.008-.708-.684-1.062-1.608-1.062-2.772h1.62c0 .72.21 1.29.63 1.71.42.42.99.63 1.71.63s1.29-.21 1.71-.63c.42-.42.63-.99.63-1.71v-.9c0-.72-.21-1.29-.63-1.71-.42-.42-.99-.63-1.71-.63h-1.422v-1.404l3.222-3.42h-5.4V68.86h7.236v1.512l-3.6 3.834v-.486c1.212 0 2.166.342 2.862 1.026.708.672 1.062 1.59 1.062 2.754v.9c0 1.164-.36 2.088-1.08 2.772-.708.672-1.674 1.008-2.898 1.008Z" fill="#fff"/><circle cx="20" cy="76" r="16" fill="#7B58CF"/><circle cx="20" cy="76" r="18" stroke="#7B58CF" stroke-opacity=".3" stroke-width="4"/><path d="M16.151 82v-1.494l4.375-4.68c.636-.672 1.085-1.272 1.35-1.8.264-.528.395-1.044.395-1.548 0-.72-.21-1.29-.63-1.71-.407-.432-.965-.648-1.673-.648-.733 0-1.314.222-1.747.666-.42.432-.63 1.02-.63 1.764h-1.62c.024-.792.204-1.476.54-2.052a3.41 3.41 0 0 1 1.387-1.35c.587-.312 1.277-.468 2.07-.468.816 0 1.517.156 2.105.468a3.325 3.325 0 0 1 1.369 1.332c.323.564.485 1.236.485 2.016 0 .624-.174 1.284-.521 1.98-.336.696-.918 1.476-1.746 2.34l-3.547 3.708h5.977V82h-7.94Z" fill="#fff"/><circle cx="92" cy="20" r="16" fill="#7B58CF"/><circle cx="92" cy="20" r="18" stroke="#7B58CF" stroke-opacity=".3" stroke-width="4"/><path d="M88.224 26v-1.476h3.563v-10.26l-3.564 2.664v-1.854l2.97-2.214h2.215v11.664h2.915V26h-8.1Z" fill="#fff"/></g><defs><clipPath id="file-uploader-structure__a"><path fill="#fff" d="M0 0h490v163H0z"/></clipPath><clipPath id="file-uploader-structure__b"><path fill="#fff" transform="translate(364 91)" d="M0 0h12v12H0z"/></clipPath></defs></svg>