<svg fill="none" height="92" width="345" xmlns="http://www.w3.org/2000/svg"><path d="m0 0h345v92h-345z" fill="#fff"/><path d="m11 37h296v22h-296a2 2 0 0 1 -2-2v-18a2 2 0 0 1 2-2z" fill="#fff" stroke="#999" stroke-width="2"/><circle cx="295" cy="48" fill="#666" r="6"/><path d="m297.95 45.293a1 1 0 0 0 -1.414 0l-1.415 1.414-1.414-1.414a1 1 0 1 0 -1.414 1.414l1.414 1.414-1.414 1.414a1 1 0 1 0 1.414 1.415l1.414-1.415 1.415 1.415a1 1 0 1 0 1.414-1.415l-1.414-1.414 1.414-1.414a1 1 0 0 0 0-1.414z" fill="#fff"/><rect fill="#bfbfbf" height="8" rx="2" width="70" x="129" y="44"/><path d="m70 40h50a1 1 0 0 1 1 1v14a1 1 0 0 1 -1 1h-50z" fill="#dbdbdb"/><rect fill="#525252" height="4" rx=".9" width="32" x="74" y="46"/><path d="m114.941 45.94a.437.437 0 1 1 .618.62l-1.44 1.44 1.44 1.44a.437.437 0 0 1 -.618.62l-1.441-1.441-1.441 1.44a.437.437 0 1 1 -.618-.618l1.44-1.441-1.44-1.44a.437.437 0 0 1 .618-.62l1.441 1.441 1.441-1.44z" fill="#666"/><path d="m53 40h16v16h-16z" fill="#f0f0f0"/><rect fill="#868686" height="4" rx="1.143" width="8" x="57" y="46"/><path d="m12 41a1 1 0 0 1 1-1h39v16h-39a1 1 0 0 1 -1-1z" fill="#f0f0f0"/><rect fill="#868686" height="4" rx="1.143" width="32" x="16" y="46"/><path d="m308.5 36.5h25.5a3.5 3.5 0 0 1 3.5 3.5v16a3.5 3.5 0 0 1 -3.5 3.5h-25.5z" fill="#fff"/><path clip-rule="evenodd" d="m325.477 51.89a6 6 0 1 1 1.414-1.414l2.816 2.817a1 1 0 1 1 -1.414 1.414l-2.816-2.816zm.523-4.89a4 4 0 1 1 -8 0 4 4 0 0 1 8 0z" fill="#666" fill-rule="evenodd"/><path d="m308.5 36.5h25.5a3.5 3.5 0 0 1 3.5 3.5v16a3.5 3.5 0 0 1 -3.5 3.5h-25.5z" stroke="#bfbfbf"/><circle cx="20" cy="20" fill="#7b58cf" r="16"/><circle cx="20" cy="20" r="18" stroke="#7b58cf" stroke-opacity=".3" stroke-width="4"/><path d="m16.95 24.515h2.76v-9.915l-3.305 1.59v-1.705l3.287-1.564h1.776v11.593h2.724v1.486h-7.242z" fill="#fff"/><circle cx="73" cy="26" fill="#7b58cf" r="16"/><circle cx="73" cy="26" r="18" stroke="#7b58cf" stroke-opacity=".3" stroke-width="4"/><path d="m70.856 30.506h6.029v1.494h-7.972v-1.494a363.318 363.318 0 0 0 2.874-3.059 73.424 73.424 0 0 0 1.696-1.872c.586-.715.982-1.292 1.187-1.731.205-.446.308-.9.308-1.363 0-.732-.217-1.306-.65-1.722-.429-.416-1.017-.624-1.767-.624-.534 0-1.093.096-1.68.29a9.421 9.421 0 0 0 -1.862.879v-1.794a9.622 9.622 0 0 1 1.775-.65 7.12 7.12 0 0 1 1.731-.22c1.284 0 2.315.342 3.094 1.028.785.68 1.178 1.573 1.178 2.68 0 .563-.132 1.126-.396 1.688-.257.563-.68 1.184-1.265 1.863-.328.381-.806.909-1.433 1.582-.621.674-1.57 1.682-2.847 3.024z" fill="#fff"/><circle cx="24" cy="70" fill="#7b58cf" r="16"/><circle cx="24" cy="70" r="18" stroke="#7b58cf" stroke-opacity=".3" stroke-width="4"/><path d="m25.398 68.978c.86.228 1.52.635 1.977 1.221.457.58.686 1.307.686 2.18 0 1.207-.408 2.156-1.222 2.848-.809.685-1.93 1.028-3.366 1.028-.604 0-1.22-.056-1.846-.167a11.884 11.884 0 0 1 -1.846-.483v-1.767a8.55 8.55 0 0 0 1.767.694 6.79 6.79 0 0 0 1.731.229c.973 0 1.72-.22 2.241-.66.522-.439.783-1.072.783-1.898 0-.762-.261-1.365-.783-1.81-.521-.452-1.227-.677-2.118-.677h-1.352v-1.46h1.353c.815 0 1.45-.178 1.908-.535.457-.358.685-.856.685-1.494 0-.674-.214-1.19-.642-1.547-.421-.364-1.025-.545-1.81-.545a7.85 7.85 0 0 0 -1.617.175 11.47 11.47 0 0 0 -1.75.528v-1.635a21.833 21.833 0 0 1 1.89-.422 9.018 9.018 0 0 1 1.477-.14c1.277 0 2.297.322 3.059.966.767.64 1.15 1.489 1.15 2.55 0 .72-.201 1.32-.605 1.801-.399.48-.982.82-1.75 1.02z" fill="#fff"/><circle cx="65" cy="70" fill="#7b58cf" r="16"/><circle cx="65" cy="70" r="18" stroke="#7b58cf" stroke-opacity=".3" stroke-width="4"/><path d="m66.037 64.495-4.14 6.935h4.14zm-.29-1.617h2.057v8.552h1.749v1.441h-1.75v3.129h-1.766v-3.129h-5.563v-1.679z" fill="#fff"/><circle cx="106" cy="70" fill="#7b58cf" r="16"/><circle cx="106" cy="70" r="18" stroke="#7b58cf" stroke-opacity=".3" stroke-width="4"/><path d="m102.396 62.878h6.645v1.494h-5.027v3.226c.252-.094.504-.162.756-.203a4.3 4.3 0 0 1 .773-.07c1.359 0 2.437.402 3.234 1.204.797.803 1.196 1.89 1.196 3.261 0 1.383-.419 2.473-1.257 3.27-.832.796-1.972 1.195-3.419 1.195-.697 0-1.336-.047-1.916-.14a7.083 7.083 0 0 1 -1.547-.423v-1.801a7.457 7.457 0 0 0 1.626.659 6.66 6.66 0 0 0 1.67.21c.978 0 1.731-.257 2.259-.773.533-.515.799-1.248.799-2.197 0-.938-.275-1.667-.826-2.188-.545-.522-1.306-.783-2.285-.783-.474 0-.937.056-1.389.167a5.386 5.386 0 0 0 -1.292.484z" fill="#fff"/><circle cx="183" cy="70" fill="#7b58cf" r="16"/><circle cx="183" cy="70" r="18" stroke="#7b58cf" stroke-opacity=".3" stroke-width="4"/><path d="m186.287 63.168v1.635a4.73 4.73 0 0 0 -1.178-.492 4.773 4.773 0 0 0 -1.3-.176c-1.125 0-1.978.425-2.558 1.274-.58.844-.87 2.089-.87 3.735.281-.585.671-1.034 1.169-1.344.498-.317 1.069-.475 1.714-.475 1.265 0 2.244.39 2.935 1.17.697.773 1.046 1.871 1.046 3.295 0 1.418-.357 2.517-1.072 3.296-.715.78-1.72 1.169-3.015 1.169-1.523 0-2.639-.545-3.348-1.635-.709-1.096-1.064-2.818-1.064-5.168 0-2.215.425-3.902 1.275-5.062.855-1.166 2.091-1.75 3.708-1.75.434 0 .868.047 1.301.141.434.088.853.217 1.257.387zm-3.164 5.546c-.756 0-1.351.272-1.784.817-.434.545-.651 1.298-.651 2.259s.217 1.714.651 2.259c.433.545 1.028.817 1.784.817.785 0 1.377-.258 1.775-.773.399-.522.598-1.29.598-2.303 0-1.02-.199-1.787-.598-2.303-.398-.515-.99-.773-1.775-.773z" fill="#fff"/><circle cx="282" cy="72" fill="#7b58cf" r="16"/><circle cx="282" cy="72" r="18" stroke="#7b58cf" stroke-opacity=".3" stroke-width="4"/><path d="m277.799 64.878h8.262v.756l-4.694 12.366h-1.854l4.57-11.628h-6.284z" fill="#fff"/><circle cx="325" cy="22" fill="#7b58cf" r="16"/><circle cx="325" cy="22" r="18" stroke="#7b58cf" stroke-opacity=".3" stroke-width="4"/><path d="m324.991 21.769c-.791 0-1.403.222-1.837.668-.427.439-.641 1.063-.641 1.872 0 .808.216 1.438.65 1.89.44.445 1.049.667 1.828.667.797 0 1.409-.22 1.837-.659.434-.445.651-1.078.651-1.898 0-.803-.22-1.427-.66-1.873-.433-.445-1.043-.667-1.828-.667zm-1.547-.739c-.756-.193-1.347-.553-1.775-1.08-.422-.528-.633-1.164-.633-1.908 0-1.043.355-1.87 1.064-2.479.709-.615 1.672-.922 2.891-.922 1.225 0 2.192.307 2.901.922.709.61 1.063 1.436 1.063 2.479 0 .744-.214 1.38-.642 1.907-.421.528-1.01.888-1.766 1.081.879.194 1.55.583 2.013 1.17.468.585.703 1.344.703 2.276 0 1.183-.378 2.109-1.134 2.777s-1.802 1.002-3.138 1.002-2.382-.331-3.137-.993c-.75-.668-1.125-1.591-1.125-2.769 0-.937.231-1.7.694-2.285.469-.592 1.142-.984 2.021-1.178zm-.641-2.821c0 .703.187 1.24.562 1.608.375.37.917.554 1.626.554.715 0 1.26-.184 1.635-.554.375-.369.562-.905.562-1.608 0-.715-.187-1.26-.562-1.635-.369-.375-.914-.562-1.635-.562-.709 0-1.251.19-1.626.571-.375.375-.562.917-.562 1.626z" fill="#fff"/></svg>