<svg width="412" height="120" fill="none" xmlns="http://www.w3.org/2000/svg"><g clip-path="url(#filter-structure__a)"><path fill="#fff" d="M0 0h412v120H0z"/><rect x="37" y="58" width="338" height="30" rx="4" fill="#fff" stroke="#A4A3A8" stroke-width="2"/><path fill-rule="evenodd" clip-rule="evenodd" d="M362.477 76.89a6 6 0 1 1 1.414-1.414l2.816 2.817a1 1 0 1 1-1.414 1.414l-2.816-2.816ZM363 72a4 4 0 1 1-8 0 4 4 0 0 1 8 0Z" fill="#737278"/><path d="M343 58v30" stroke="#A4A3A8" stroke-width="2"/><g clip-path="url(#filter-structure__b)"><path fill-rule="evenodd" clip-rule="evenodd" d="M326 81a8 8 0 1 0 0-16 8 8 0 0 0 0 16Zm-3.707-11.707a1 1 0 0 1 1.414 0L326 71.586l2.293-2.293a1 1 0 1 1 1.414 1.414L327.414 73l2.293 2.293a1 1 0 1 1-1.414 1.414L326 74.414l-2.293 2.293a1 1 0 1 1-1.414-1.414L324.586 73l-2.293-2.293a1 1 0 0 1 0-1.414Z" fill="#737278"/></g><rect x="198" y="69" width="70" height="8" rx="2" fill="#89888D"/><path d="M41 64a2 2 0 0 1 2-2h50v22H43a2 2 0 0 1-2-2V64Z" fill="#D9D9D9"/><rect x="48" y="69" width="38" height="8" rx="2" fill="#535158"/><rect x="48" y="69" width="38" height="8" rx="2" fill="#535158"/><path fill="#D9D9D9" d="M95 62h28v22H95z"/><rect x="102" y="69" width="14" height="8" rx="2" fill="#535158"/><path d="M125 62h62a2 2 0 0 1 2 2v18a2 2 0 0 1-2 2h-62V62Z" fill="#D9D9D9"/><rect x="129" y="69" width="38" height="8" rx="2" fill="#535158"/><path d="M180.293 68.293a1 1 0 1 1 1.414 1.414L178.414 73l3.293 3.293a1 1 0 1 1-1.414 1.414L177 74.414l-3.293 3.293a1 1 0 1 1-1.414-1.414L175.586 73l-3.293-3.293a1 1 0 1 1 1.414-1.414L177 71.586l3.293-3.293Z" fill="#737278"/><circle cx="392" cy="73" r="16" fill="#7B58CF"/><circle cx="392" cy="73" r="18" stroke="#7B58CF" stroke-opacity=".3" stroke-width="4"/><path d="M392.004 79.18c-.828 0-1.56-.162-2.196-.486a3.702 3.702 0 0 1-1.494-1.35c-.348-.588-.522-1.26-.522-2.016 0-.552.108-1.056.324-1.512a3.1 3.1 0 0 1 .9-1.134c.396-.312.858-.51 1.386-.594v-.054c-.684-.156-1.23-.498-1.638-1.026a2.994 2.994 0 0 1-.612-1.854c0-.684.162-1.284.486-1.8a3.254 3.254 0 0 1 1.35-1.224c.588-.3 1.26-.45 2.016-.45.768 0 1.44.15 2.016.45a3.254 3.254 0 0 1 1.35 1.224c.324.516.486 1.116.486 1.8 0 .696-.204 1.314-.612 1.854-.408.528-.954.87-1.638 1.026v.054c.528.084.984.282 1.368.594.396.3.702.678.918 1.134.216.456.324.96.324 1.512 0 .756-.18 1.428-.54 2.016a3.577 3.577 0 0 1-1.476 1.35c-.624.324-1.356.486-2.196.486Zm0-1.458c.768 0 1.392-.222 1.872-.666.48-.456.72-1.044.72-1.764 0-.732-.24-1.32-.72-1.764-.48-.456-1.104-.684-1.872-.684s-1.392.228-1.872.684c-.48.444-.72 1.032-.72 1.764 0 .72.24 1.308.72 1.764.48.444 1.104.666 1.872.666Zm0-6.318c.672 0 1.212-.198 1.62-.594.408-.396.612-.912.612-1.548s-.204-1.152-.612-1.548c-.408-.396-.948-.594-1.62-.594-.66 0-1.2.198-1.62.594-.408.396-.612.912-.612 1.548s.204 1.152.612 1.548c.42.396.96.594 1.62.594Z" fill="#fff"/><circle cx="326" cy="49" r="16" fill="#7B58CF"/><circle cx="326" cy="49" r="18" stroke="#7B58CF" stroke-opacity=".3" stroke-width="4"/><path d="m324.024 55 4.68-11.664H323.7v2.124h-1.62v-3.6h8.352v1.512L325.788 55h-1.764Z" fill="#fff"/><circle cx="233" cy="93" r="16" fill="#7B58CF"/><circle cx="233" cy="93" r="18" stroke="#7B58CF" stroke-opacity=".3" stroke-width="4"/><path d="M233.022 99.18c-.84 0-1.584-.174-2.232-.522a3.922 3.922 0 0 1-1.494-1.476c-.36-.636-.54-1.368-.54-2.196 0-.576.108-1.164.324-1.764.216-.612.51-1.248.882-1.908l3.042-5.454h1.8l-3.24 5.634.054.036c.156-.204.39-.36.702-.468a3.118 3.118 0 0 1 1.026-.162c.78 0 1.458.174 2.034.522a3.501 3.501 0 0 1 1.368 1.404c.336.6.504 1.296.504 2.088 0 .84-.18 1.584-.54 2.232a3.885 3.885 0 0 1-1.494 1.494c-.624.36-1.356.54-2.196.54Zm-.018-1.44c.528 0 .984-.114 1.368-.342.396-.24.702-.57.918-.99.228-.42.342-.906.342-1.458 0-.552-.114-1.038-.342-1.458a2.317 2.317 0 0 0-.918-.972c-.384-.24-.84-.36-1.368-.36-.516 0-.972.12-1.368.36a2.435 2.435 0 0 0-.936.972c-.216.42-.324.906-.324 1.458 0 .552.108 1.038.324 1.458.228.42.54.75.936.99.396.228.852.342 1.368.342Z" fill="#fff"/><circle cx="157" cy="100" r="16" fill="#7B58CF"/><circle cx="157" cy="100" r="18" stroke="#7B58CF" stroke-opacity=".3" stroke-width="4"/><path d="M156.896 106.18c-1.212 0-2.172-.336-2.88-1.008-.708-.684-1.062-1.608-1.062-2.772h1.62c0 .72.21 1.29.63 1.71.42.42.99.63 1.71.63s1.29-.21 1.71-.63c.42-.42.63-.99.63-1.71v-.81c0-.72-.204-1.29-.612-1.71-.408-.42-.96-.63-1.656-.63h-3.582v-6.39h7.002v1.476h-5.49l.036 3.438h2.124c1.212 0 2.148.336 2.808 1.008.66.66.99 1.596.99 2.808v.81c0 1.164-.36 2.088-1.08 2.772-.708.672-1.674 1.008-2.898 1.008Z" fill="#fff"/><circle cx="109" cy="100" r="16" fill="#7B58CF"/><circle cx="109" cy="100" r="18" stroke="#7B58CF" stroke-opacity=".3" stroke-width="4"/><path d="M110.804 106v-2.88h-5.94v-2.538l4.788-7.722h1.836l-5.004 8.082v.702h4.32V98.44h1.62V106h-1.62Z" fill="#fff"/><circle cx="67" cy="100" r="16" fill="#7B58CF"/><circle cx="67" cy="100" r="18" stroke="#7B58CF" stroke-opacity=".3" stroke-width="4"/><path d="M66.805 106.18c-1.212 0-2.172-.336-2.88-1.008-.707-.684-1.061-1.608-1.061-2.772h1.62c0 .72.21 1.29.63 1.71.42.42.99.63 1.71.63s1.29-.21 1.71-.63c.42-.42.63-.99.63-1.71v-.9c0-.72-.21-1.29-.63-1.71-.42-.42-.99-.63-1.71-.63h-1.422v-1.404l3.222-3.42h-5.4V92.86h7.236v1.512l-3.6 3.834v-.486c1.212 0 2.165.342 2.862 1.026.708.672 1.062 1.59 1.062 2.754v.9c0 1.164-.36 2.088-1.08 2.772-.708.672-1.674 1.008-2.898 1.008Z" fill="#fff"/><circle cx="116" cy="20" r="16" fill="#7B58CF"/><circle cx="116" cy="20" r="18" stroke="#7B58CF" stroke-opacity=".3" stroke-width="4"/><path d="M112.152 26v-1.494l4.374-4.68c.636-.672 1.086-1.272 1.35-1.8s.396-1.044.396-1.548c0-.72-.21-1.29-.63-1.71-.408-.432-.966-.648-1.674-.648-.732 0-1.314.222-1.746.666-.42.432-.63 1.02-.63 1.764h-1.62c.024-.792.204-1.476.54-2.052a3.41 3.41 0 0 1 1.386-1.35c.588-.312 1.278-.468 2.07-.468.816 0 1.518.156 2.106.468a3.325 3.325 0 0 1 1.368 1.332c.324.564.486 1.236.486 2.016 0 .624-.174 1.284-.522 1.98-.336.696-.918 1.476-1.746 2.34l-3.546 3.708h5.976V26h-7.938Z" fill="#fff"/><circle cx="20" cy="73" r="16" fill="#7B58CF"/><circle cx="20" cy="73" r="18" stroke="#7B58CF" stroke-opacity=".3" stroke-width="4"/><path d="M16.224 79v-1.476h3.564v-10.26l-3.564 2.664v-1.854l2.97-2.214h2.213v11.664h2.916V79h-8.1Z" fill="#fff"/><path stroke="#7B58CF" stroke-width="2" stroke-linecap="round" d="M42 47h146m0 14V47M42 61V47m74 0V33"/></g><defs><clipPath id="filter-structure__a"><path fill="#fff" d="M0 0h412v120H0z"/></clipPath><clipPath id="filter-structure__b"><path fill="#fff" transform="translate(318 65)" d="M0 0h16v16H0z"/></clipPath></defs></svg>