<svg width="404" height="122" fill="none" xmlns="http://www.w3.org/2000/svg"><g clip-path="url(#a)"><path fill="#fff" d="M0 0h404v122H0z"/><rect x="33" y="60" width="338" height="30" rx="4" fill="#fff" stroke="#999" stroke-width="2"/><path fill-rule="evenodd" clip-rule="evenodd" d="M358.477 78.89a6 6 0 1 1 1.414-1.414l2.816 2.817a1 1 0 1 1-1.414 1.414l-2.816-2.816ZM359 74a4 4 0 1 1-8 0 4 4 0 0 1 8 0Z" fill="#666"/><path d="M339 60v30" stroke="#999" stroke-width="2"/><g clip-path="url(#b)"><path fill-rule="evenodd" clip-rule="evenodd" d="M322 83a8 8 0 1 0 0-16 8 8 0 0 0 0 16Zm-3.707-11.707a1 1 0 0 1 1.414 0L322 73.586l2.293-2.293a1 1 0 1 1 1.414 1.414L323.414 75l2.293 2.293a1 1 0 1 1-1.414 1.414L322 76.414l-2.293 2.293a1 1 0 1 1-1.414-1.414L320.586 75l-2.293-2.293a1 1 0 0 1 0-1.414Z" fill="#666"/></g><rect x="194" y="71" width="70" height="8" rx="2" fill="#BFBFBF"/><path d="M37 66a2 2 0 0 1 2-2h50v22H39a2 2 0 0 1-2-2V66Z" fill="#D9D9D9"/><rect x="44" y="71" width="38" height="8" rx="2" fill="#525252"/><path fill="#D9D9D9" d="M91 64h28v22H91z"/><rect x="98" y="71" width="14" height="8" rx="2" fill="#525252"/><path d="M121 64h62a2 2 0 0 1 2 2v18a2 2 0 0 1-2 2h-62V64Z" fill="#D9D9D9"/><rect x="125" y="71" width="38" height="8" rx="2" fill="#525252"/><path d="M176.293 70.293a1 1 0 1 1 1.414 1.414L174.414 75l3.293 3.293a1 1 0 1 1-1.414 1.414L173 76.414l-3.293 3.293a1 1 0 1 1-1.414-1.414L171.586 75l-3.293-3.293a1 1 0 1 1 1.414-1.414L173 73.586l3.293-3.293Z" fill="#666"/><circle cx="20" cy="75" r="16" fill="#7B58CF"/><circle cx="20" cy="75" r="18" stroke="#7B58CF" stroke-opacity=".3" stroke-width="4"/><path d="M16.95 79.515h2.76V69.6l-3.305 1.59v-1.705l3.287-1.564h1.776v11.593h2.724V81H16.95v-1.485Z" fill="#fff"/><circle cx="112" cy="20" r="16" fill="#7B58CF"/><circle cx="112" cy="20" r="18" stroke="#7B58CF" stroke-opacity=".3" stroke-width="4"/><path d="M109.855 24.506h6.03V26h-7.972v-1.494a353.699 353.699 0 0 0 2.874-3.059 72.85 72.85 0 0 0 1.696-1.872c.586-.715.982-1.292 1.187-1.731.205-.446.308-.9.308-1.363 0-.732-.217-1.306-.651-1.722-.428-.416-1.016-.624-1.766-.624-.534 0-1.093.096-1.679.29a9.412 9.412 0 0 0-1.863.879V13.51a9.607 9.607 0 0 1 1.775-.65 7.119 7.119 0 0 1 1.731-.22c1.284 0 2.315.342 3.094 1.028.785.68 1.178 1.573 1.178 2.68 0 .563-.132 1.126-.396 1.688-.257.563-.679 1.184-1.265 1.863-.328.381-.806.909-1.433 1.582-.621.674-1.57 1.682-2.848 3.024Z" fill="#fff"/><path d="M112 47V33M38 53v-6h147v6" stroke="#7B58CF" stroke-width="2" stroke-linecap="round" stroke-linejoin="round"/><circle cx="63" cy="101" r="16" fill="#7B58CF"/><circle cx="63" cy="101" r="18" stroke="#7B58CF" stroke-opacity=".3" stroke-width="4"/><path d="M64.397 99.978c.862.228 1.521.635 1.978 1.221.457.58.686 1.307.686 2.18 0 1.207-.408 2.156-1.222 2.848-.809.685-1.93 1.028-3.366 1.028-.604 0-1.22-.056-1.846-.167a11.842 11.842 0 0 1-1.846-.484v-1.766a8.56 8.56 0 0 0 1.767.694c.58.153 1.157.229 1.731.229.973 0 1.72-.22 2.241-.659.522-.44.783-1.073.783-1.899 0-.762-.261-1.365-.782-1.81-.522-.452-1.228-.677-2.119-.677H61.05v-1.46h1.353c.815 0 1.45-.178 1.908-.535.457-.358.685-.856.685-1.494 0-.674-.214-1.19-.642-1.547-.421-.364-1.025-.545-1.81-.545a7.85 7.85 0 0 0-1.617.175 11.47 11.47 0 0 0-1.75.528v-1.635a21.833 21.833 0 0 1 1.89-.422 9.018 9.018 0 0 1 1.477-.14c1.277 0 2.297.322 3.059.966.767.64 1.15 1.489 1.15 2.55 0 .72-.201 1.32-.605 1.801-.399.48-.982.82-1.75 1.02Z" fill="#fff"/><circle cx="105" cy="102" r="16" fill="#7B58CF"/><circle cx="105" cy="102" r="18" stroke="#7B58CF" stroke-opacity=".3" stroke-width="4"/><path d="m106.037 96.495-4.14 6.935h4.14v-6.935Zm-.29-1.617h2.057v8.552h1.749v1.441h-1.749V108h-1.767v-3.129h-5.563v-1.679l5.273-8.314Z" fill="#fff"/><circle cx="147" cy="101" r="16" fill="#7B58CF"/><circle cx="147" cy="101" r="18" stroke="#7B58CF" stroke-opacity=".3" stroke-width="4"/><path d="M143.396 93.878h6.645v1.494h-5.027v3.226a4 4 0 0 1 .756-.203 4.3 4.3 0 0 1 .773-.07c1.359 0 2.437.402 3.234 1.204.797.803 1.196 1.89 1.196 3.261 0 1.383-.419 2.473-1.257 3.27-.832.796-1.972 1.195-3.419 1.195a12.02 12.02 0 0 1-1.916-.141 7.011 7.011 0 0 1-1.547-.422v-1.801a7.481 7.481 0 0 0 1.626.659c.545.14 1.102.211 1.67.211.978 0 1.731-.258 2.259-.774.533-.515.799-1.248.799-2.197 0-.937-.275-1.667-.826-2.188-.545-.522-1.306-.783-2.285-.783-.474 0-.937.056-1.389.167a5.387 5.387 0 0 0-1.292.484v-6.592Z" fill="#fff"/><circle cx="229" cy="102" r="16" fill="#7B58CF"/><circle cx="229" cy="102" r="18" stroke="#7B58CF" stroke-opacity=".3" stroke-width="4"/><path d="M232.287 95.168v1.635a4.73 4.73 0 0 0-1.178-.492 4.773 4.773 0 0 0-1.3-.176c-1.125 0-1.978.425-2.558 1.274-.58.844-.87 2.089-.87 3.736.281-.586.671-1.035 1.169-1.345.498-.317 1.069-.475 1.714-.475 1.265 0 2.244.39 2.935 1.169.697.774 1.046 1.872 1.046 3.296 0 1.418-.357 2.517-1.072 3.296-.715.779-1.72 1.169-3.015 1.169-1.523 0-2.639-.545-3.348-1.635-.709-1.096-1.064-2.818-1.064-5.168 0-2.215.425-3.902 1.275-5.062.855-1.166 2.091-1.75 3.708-1.75.434 0 .868.047 1.301.141.434.088.853.217 1.257.387Zm-3.164 5.546c-.756 0-1.351.272-1.784.817-.434.545-.651 1.298-.651 2.259 0 .961.217 1.714.651 2.259.433.545 1.028.817 1.784.817.785 0 1.377-.258 1.775-.773.399-.522.598-1.289.598-2.303 0-1.019-.199-1.787-.598-2.303-.398-.515-.99-.773-1.775-.773Z" fill="#fff"/><circle cx="322" cy="47" r="16" fill="#7B58CF"/><circle cx="322" cy="47" r="18" stroke="#7B58CF" stroke-opacity=".3" stroke-width="4"/><path d="M317.799 39.878h8.262v.756L321.367 53h-1.854l4.57-11.628h-6.284v-1.494Z" fill="#fff"/><circle cx="384" cy="74" r="16" fill="#7B58CF"/><circle cx="384" cy="74" r="18" stroke="#7B58CF" stroke-opacity=".3" stroke-width="4"/><path d="M383.991 73.769c-.791 0-1.403.222-1.837.667-.427.44-.641 1.064-.641 1.873 0 .808.216 1.438.65 1.89.44.445 1.049.667 1.828.667.797 0 1.409-.22 1.837-.659.434-.445.651-1.078.651-1.898 0-.803-.22-1.427-.66-1.873-.433-.445-1.043-.667-1.828-.667Zm-1.547-.739c-.756-.193-1.347-.553-1.775-1.08-.422-.528-.633-1.164-.633-1.908 0-1.043.355-1.87 1.064-2.478.709-.616 1.672-.923 2.891-.923 1.225 0 2.192.307 2.901.922.709.61 1.063 1.436 1.063 2.479 0 .744-.214 1.38-.642 1.907-.421.528-1.01.888-1.766 1.081.879.194 1.55.583 2.013 1.17.468.585.703 1.344.703 2.276 0 1.183-.378 2.109-1.134 2.777-.756.668-1.802 1.002-3.138 1.002-1.336 0-2.382-.331-3.137-.993-.75-.668-1.125-1.591-1.125-2.769 0-.937.231-1.7.694-2.285.469-.592 1.142-.984 2.021-1.178Zm-.641-2.821c0 .703.187 1.24.562 1.608.375.37.917.554 1.626.554.715 0 1.26-.184 1.635-.554.375-.369.562-.905.562-1.608 0-.715-.187-1.26-.562-1.635-.369-.375-.914-.562-1.635-.562-.709 0-1.251.19-1.626.571-.375.375-.562.917-.562 1.626Z" fill="#fff"/></g><defs><clipPath id="a"><path fill="#fff" d="M0 0h404v122H0z"/></clipPath><clipPath id="b"><path fill="#fff" transform="translate(314 67)" d="M0 0h16v16H0z"/></clipPath></defs></svg>