<svg width="412" height="120" viewBox="0 0 412 120" fill="none" xmlns="http://www.w3.org/2000/svg">
<g clip-path="url(#clip0_10141_21073)">
<rect width="412" height="120" fill="white"/>
<rect x="37" y="58" width="338" height="30" rx="4" fill="white" stroke="#A4A3A8" stroke-width="2"/>
<path fill-rule="evenodd" clip-rule="evenodd" d="M362.477 76.8907C361.496 77.5892 360.296 78 359 78C355.686 78 353 75.3137 353 72C353 68.6863 355.686 66 359 66C362.314 66 365 68.6863 365 72C365 73.2958 364.589 74.4957 363.891 75.4765L366.707 78.2929C367.098 78.6834 367.098 79.3166 366.707 79.7071C366.317 80.0976 365.683 80.0976 365.293 79.7071L362.477 76.8907ZM363 72C363 74.2091 361.209 76 359 76C356.791 76 355 74.2091 355 72C355 69.7909 356.791 68 359 68C361.209 68 363 69.7909 363 72Z" fill="#737278"/>
<path d="M343 58V88" stroke="#A4A3A8" stroke-width="2"/>
<g clip-path="url(#clip1_10141_21073)">
<path fill-rule="evenodd" clip-rule="evenodd" d="M326 81C330.418 81 334 77.4183 334 73C334 68.5817 330.418 65 326 65C321.582 65 318 68.5817 318 73C318 77.4183 321.582 81 326 81ZM322.293 69.2929C322.683 68.9024 323.317 68.9024 323.707 69.2929L326 71.5858L328.293 69.2929C328.683 68.9024 329.317 68.9024 329.707 69.2929C330.098 69.6834 330.098 70.3166 329.707 70.7071L327.414 73L329.707 75.2929C330.098 75.6834 330.098 76.3166 329.707 76.7071C329.317 77.0976 328.683 77.0976 328.293 76.7071L326 74.4142L323.707 76.7071C323.317 77.0976 322.683 77.0976 322.293 76.7071C321.902 76.3166 321.902 75.6834 322.293 75.2929L324.586 73L322.293 70.7071C321.902 70.3166 321.902 69.6834 322.293 69.2929Z" fill="#737278"/>
</g>
<rect x="198" y="69" width="70" height="8" rx="2" fill="#89888D"/>
<path d="M41 64C41 62.8954 41.8954 62 43 62H93V84H43C41.8954 84 41 83.1046 41 82V64Z" fill="#D9D9D9"/>
<rect x="48" y="69" width="38" height="8" rx="2" fill="#535158"/>
<rect x="48" y="69" width="38" height="8" rx="2" fill="#535158"/>
<rect width="28" height="22" transform="translate(95 62)" fill="#D9D9D9"/>
<rect x="102" y="69" width="14" height="8" rx="2" fill="#535158"/>
<path d="M125 62H187C188.105 62 189 62.8954 189 64V82C189 83.1046 188.105 84 187 84H125V62Z" fill="#D9D9D9"/>
<rect x="129" y="69" width="38" height="8" rx="2" fill="#535158"/>
<path d="M180.293 68.2929C180.683 67.9024 181.317 67.9024 181.707 68.2929C182.098 68.6834 182.098 69.3166 181.707 69.7071L178.414 73L181.707 76.2929C182.098 76.6834 182.098 77.3166 181.707 77.7071C181.317 78.0976 180.683 78.0976 180.293 77.7071L177 74.4142L173.707 77.7071C173.317 78.0976 172.683 78.0976 172.293 77.7071C171.902 77.3166 171.902 76.6834 172.293 76.2929L175.586 73L172.293 69.7071C171.902 69.3166 171.902 68.6834 172.293 68.2929C172.683 67.9024 173.317 67.9024 173.707 68.2929L177 71.5858L180.293 68.2929Z" fill="#737278"/>
<circle cx="392" cy="73" r="16" fill="#7B58CF"/>
<circle cx="392" cy="73" r="18" stroke="#7B58CF" stroke-opacity="0.3" stroke-width="4"/>
<path d="M392.004 79.18C391.176 79.18 390.444 79.018 389.808 78.694C389.172 78.37 388.674 77.92 388.314 77.344C387.966 76.756 387.792 76.084 387.792 75.328C387.792 74.776 387.9 74.272 388.116 73.816C388.332 73.36 388.632 72.982 389.016 72.682C389.412 72.37 389.874 72.172 390.402 72.088V72.034C389.718 71.878 389.172 71.536 388.764 71.008C388.356 70.468 388.152 69.85 388.152 69.154C388.152 68.47 388.314 67.87 388.638 67.354C388.962 66.826 389.412 66.418 389.988 66.13C390.576 65.83 391.248 65.68 392.004 65.68C392.772 65.68 393.444 65.83 394.02 66.13C394.596 66.418 395.046 66.826 395.37 67.354C395.694 67.87 395.856 68.47 395.856 69.154C395.856 69.85 395.652 70.468 395.244 71.008C394.836 71.536 394.29 71.878 393.606 72.034V72.088C394.134 72.172 394.59 72.37 394.974 72.682C395.37 72.982 395.676 73.36 395.892 73.816C396.108 74.272 396.216 74.776 396.216 75.328C396.216 76.084 396.036 76.756 395.676 77.344C395.328 77.92 394.836 78.37 394.2 78.694C393.576 79.018 392.844 79.18 392.004 79.18ZM392.004 77.722C392.772 77.722 393.396 77.5 393.876 77.056C394.356 76.6 394.596 76.012 394.596 75.292C394.596 74.56 394.356 73.972 393.876 73.528C393.396 73.072 392.772 72.844 392.004 72.844C391.236 72.844 390.612 73.072 390.132 73.528C389.652 73.972 389.412 74.56 389.412 75.292C389.412 76.012 389.652 76.6 390.132 77.056C390.612 77.5 391.236 77.722 392.004 77.722ZM392.004 71.404C392.676 71.404 393.216 71.206 393.624 70.81C394.032 70.414 394.236 69.898 394.236 69.262C394.236 68.626 394.032 68.11 393.624 67.714C393.216 67.318 392.676 67.12 392.004 67.12C391.344 67.12 390.804 67.318 390.384 67.714C389.976 68.11 389.772 68.626 389.772 69.262C389.772 69.898 389.976 70.414 390.384 70.81C390.804 71.206 391.344 71.404 392.004 71.404Z" fill="white"/>
<circle cx="326" cy="49" r="16" fill="#7B58CF"/>
<circle cx="326" cy="49" r="18" stroke="#7B58CF" stroke-opacity="0.3" stroke-width="4"/>
<path d="M324.024 55L328.704 43.336H323.7V45.46H322.08V41.86H330.432V43.372L325.788 55H324.024Z" fill="white"/>
<circle cx="233" cy="93" r="16" fill="#7B58CF"/>
<circle cx="233" cy="93" r="18" stroke="#7B58CF" stroke-opacity="0.3" stroke-width="4"/>
<path d="M233.022 99.18C232.182 99.18 231.438 99.006 230.79 98.658C230.154 98.298 229.656 97.806 229.296 97.182C228.936 96.546 228.756 95.814 228.756 94.986C228.756 94.41 228.864 93.822 229.08 93.222C229.296 92.61 229.59 91.974 229.962 91.314L233.004 85.86H234.804L231.564 91.494L231.618 91.53C231.774 91.326 232.008 91.17 232.32 91.062C232.632 90.954 232.974 90.9 233.346 90.9C234.126 90.9 234.804 91.074 235.38 91.422C235.968 91.758 236.424 92.226 236.748 92.826C237.084 93.426 237.252 94.122 237.252 94.914C237.252 95.754 237.072 96.498 236.712 97.146C236.352 97.782 235.854 98.28 235.218 98.64C234.594 99 233.862 99.18 233.022 99.18ZM233.004 97.74C233.532 97.74 233.988 97.626 234.372 97.398C234.768 97.158 235.074 96.828 235.29 96.408C235.518 95.988 235.632 95.502 235.632 94.95C235.632 94.398 235.518 93.912 235.29 93.492C235.074 93.072 234.768 92.748 234.372 92.52C233.988 92.28 233.532 92.16 233.004 92.16C232.488 92.16 232.032 92.28 231.636 92.52C231.24 92.748 230.928 93.072 230.7 93.492C230.484 93.912 230.376 94.398 230.376 94.95C230.376 95.502 230.484 95.988 230.7 96.408C230.928 96.828 231.24 97.158 231.636 97.398C232.032 97.626 232.488 97.74 233.004 97.74Z" fill="white"/>
<circle cx="157" cy="100" r="16" fill="#7B58CF"/>
<circle cx="157" cy="100" r="18" stroke="#7B58CF" stroke-opacity="0.3" stroke-width="4"/>
<path d="M156.896 106.18C155.684 106.18 154.724 105.844 154.016 105.172C153.308 104.488 152.954 103.564 152.954 102.4H154.574C154.574 103.12 154.784 103.69 155.204 104.11C155.624 104.53 156.194 104.74 156.914 104.74C157.634 104.74 158.204 104.53 158.624 104.11C159.044 103.69 159.254 103.12 159.254 102.4V101.59C159.254 100.87 159.05 100.3 158.642 99.88C158.234 99.46 157.682 99.25 156.986 99.25H153.404V92.86H160.406V94.336H154.916L154.952 97.774H157.076C158.288 97.774 159.224 98.11 159.884 98.782C160.544 99.442 160.874 100.378 160.874 101.59V102.4C160.874 103.564 160.514 104.488 159.794 105.172C159.086 105.844 158.12 106.18 156.896 106.18Z" fill="white"/>
<circle cx="109" cy="100" r="16" fill="#7B58CF"/>
<circle cx="109" cy="100" r="18" stroke="#7B58CF" stroke-opacity="0.3" stroke-width="4"/>
<path d="M110.804 106V103.12H104.864V100.582L109.652 92.86H111.488L106.484 100.942V101.644H110.804V98.44H112.424V106H110.804Z" fill="white"/>
<circle cx="67" cy="100" r="16" fill="#7B58CF"/>
<circle cx="67" cy="100" r="18" stroke="#7B58CF" stroke-opacity="0.3" stroke-width="4"/>
<path d="M66.8055 106.18C65.5935 106.18 64.6335 105.844 63.9255 105.172C63.2175 104.488 62.8635 103.564 62.8635 102.4H64.4835C64.4835 103.12 64.6935 103.69 65.1135 104.11C65.5335 104.53 66.1035 104.74 66.8235 104.74C67.5435 104.74 68.1135 104.53 68.5335 104.11C68.9535 103.69 69.1635 103.12 69.1635 102.4V101.5C69.1635 100.78 68.9535 100.21 68.5335 99.79C68.1135 99.37 67.5435 99.16 66.8235 99.16H65.4015V97.756L68.6235 94.336H63.2235V92.86H70.4595V94.372L66.8595 98.206V97.72C68.0715 97.72 69.0255 98.062 69.7215 98.746C70.4295 99.418 70.7835 100.336 70.7835 101.5V102.4C70.7835 103.564 70.4235 104.488 69.7035 105.172C68.9955 105.844 68.0295 106.18 66.8055 106.18Z" fill="white"/>
<circle cx="116" cy="20" r="16" fill="#7B58CF"/>
<circle cx="116" cy="20" r="18" stroke="#7B58CF" stroke-opacity="0.3" stroke-width="4"/>
<path d="M112.152 26V24.506L116.526 19.826C117.162 19.154 117.612 18.554 117.876 18.026C118.14 17.498 118.272 16.982 118.272 16.478C118.272 15.758 118.062 15.188 117.642 14.768C117.234 14.336 116.676 14.12 115.968 14.12C115.236 14.12 114.654 14.342 114.222 14.786C113.802 15.218 113.592 15.806 113.592 16.55H111.972C111.996 15.758 112.176 15.074 112.512 14.498C112.848 13.91 113.31 13.46 113.898 13.148C114.486 12.836 115.176 12.68 115.968 12.68C116.784 12.68 117.486 12.836 118.074 13.148C118.662 13.46 119.118 13.904 119.442 14.48C119.766 15.044 119.928 15.716 119.928 16.496C119.928 17.12 119.754 17.78 119.406 18.476C119.07 19.172 118.488 19.952 117.66 20.816L114.114 24.524H120.09V26H112.152Z" fill="white"/>
<circle cx="20" cy="73" r="16" fill="#7B58CF"/>
<circle cx="20" cy="73" r="18" stroke="#7B58CF" stroke-opacity="0.3" stroke-width="4"/>
<path d="M16.2235 79V77.524H19.7875V67.264L16.2235 69.928V68.074L19.1935 65.86H21.4075V77.524H24.3235V79H16.2235Z" fill="white"/>
<line x1="42" y1="47" x2="188" y2="47" stroke="#7B58CF" stroke-width="2" stroke-linecap="round"/>
<line x1="188" y1="61" x2="188" y2="47" stroke="#7B58CF" stroke-width="2" stroke-linecap="round"/>
<line x1="42" y1="61" x2="42" y2="47" stroke="#7B58CF" stroke-width="2" stroke-linecap="round"/>
<line x1="116" y1="47" x2="116" y2="33" stroke="#7B58CF" stroke-width="2" stroke-linecap="round"/>
</g>
<defs>
<clipPath id="clip0_10141_21073">
<rect width="412" height="120" fill="white"/>
</clipPath>
<clipPath id="clip1_10141_21073">
<rect width="16" height="16" fill="white" transform="translate(318 65)"/>
</clipPath>
</defs>
</svg>
