<svg width="369" height="486" viewBox="0 0 369 486" fill="none" xmlns="http://www.w3.org/2000/svg">
<g clip-path="url(#clip0_6009_22931)">
<rect width="369" height="486" fill="white"/>
<rect x="129" y="14" width="73" height="8" rx="2" fill="#666666"/>
<rect x="129.5" y="30.5" width="239" height="31" rx="3.5" fill="white"/>
<rect x="129.5" y="30.5" width="239" height="31" rx="3.5" stroke="#BFBFBF"/>
<rect x="129" y="86" width="100" height="8" rx="2" fill="#525252"/>
<rect x="129.75" y="102.75" width="14.5" height="14.5" rx="3.25" fill="white"/>
<rect x="129.75" y="102.75" width="14.5" height="14.5" rx="3.25" stroke="#868686" stroke-width="1.5"/>
<rect x="153" y="106" width="135" height="8" rx="2" fill="#999999"/>
<rect x="129" y="126" width="16" height="16" rx="4" fill="#1F75CB"/>
<path d="M134 134.053L135.991 136L140 132" stroke="white" stroke-width="2"/>
<rect x="153" y="130" width="196" height="8" rx="2" fill="#999999"/>
<rect x="129.75" y="150.75" width="14.5" height="14.5" rx="3.25" fill="white"/>
<rect x="129.75" y="150.75" width="14.5" height="14.5" rx="3.25" stroke="#868686" stroke-width="1.5"/>
<rect x="153" y="154" width="25" height="8" rx="2" fill="#999999"/>
<rect x="129" y="190" width="73" height="8" rx="2" fill="#666666"/>
<rect x="129.5" y="206.5" width="239" height="31" rx="3.5" fill="white"/>
<rect x="129.5" y="206.5" width="239" height="31" rx="3.5" stroke="#BFBFBF"/>
<rect x="139" y="218" width="129" height="8" rx="2" fill="#BFBFBF"/>
<path fill-rule="evenodd" clip-rule="evenodd" d="M352.293 224.707C352.683 225.098 353.317 225.098 353.707 224.707L356.707 221.707C357.098 221.317 357.098 220.683 356.707 220.293C356.317 219.902 355.683 219.902 355.293 220.293L353 222.586L350.707 220.293C350.317 219.902 349.683 219.902 349.293 220.293C348.902 220.683 348.902 221.317 349.293 221.707L352.293 224.707Z" fill="#666666"/>
<rect x="129" y="262" width="95" height="8" rx="2" fill="#525252"/>
<rect x="129" y="274" width="221" height="8" rx="2" fill="#BFBFBF"/>
<rect x="129.5" y="290.5" width="239" height="31" rx="3.5" fill="white"/>
<rect x="129.5" y="290.5" width="239" height="31" rx="3.5" stroke="#BFBFBF"/>
<rect x="129" y="330" width="100" height="8" rx="2" fill="#F57F6C"/>
<rect x="129" y="362" width="89" height="8" rx="2" fill="#666666"/>
<rect x="129.5" y="378.5" width="239" height="31" rx="3.5" fill="white"/>
<rect x="129.5" y="378.5" width="239" height="31" rx="3.5" stroke="#BFBFBF"/>
<rect x="129" y="418" width="126" height="8" rx="2" fill="#BFBFBF"/>
<rect x="221" y="451" width="67" height="30" rx="3" fill="white"/>
<rect x="221" y="451" width="67" height="30" rx="3" stroke="#BFBFBF" stroke-width="2"/>
<rect x="298" y="451" width="70" height="30" rx="3" fill="#1F75CB"/>
<rect x="298" y="451" width="70" height="30" rx="3" stroke="#1068BF" stroke-width="2"/>
<line x1="36" y1="20" x2="120" y2="20" stroke="#7B58CF" stroke-width="2" stroke-linecap="round"/>
<circle cx="20" cy="20" r="16" fill="#7B58CF"/>
<circle cx="20" cy="20" r="18" stroke="#7B58CF" stroke-opacity="0.3" stroke-width="4"/>
<path d="M16.9502 24.5146H19.71V14.6006L16.4053 16.1914V14.4863L19.6924 12.9219H21.4678V24.5146H24.1924V26H16.9502V24.5146Z" fill="white"/>
<line x1="14" y1="89" x2="67" y2="89" stroke="#7B58CF" stroke-width="2" stroke-linecap="round"/>
<path d="M120 46H68V133H120" stroke="#7B58CF" stroke-width="2" stroke-linecap="round" stroke-linejoin="round"/>
<circle cx="20" cy="89" r="16" fill="#7B58CF"/>
<circle cx="20" cy="89" r="18" stroke="#7B58CF" stroke-opacity="0.3" stroke-width="4"/>
<path d="M17.8555 93.5059H23.8848V95H15.9131V93.5059C17.0088 92.3516 17.9668 91.332 18.7871 90.4473C19.6074 89.5625 20.1729 88.9385 20.4834 88.5752C21.0693 87.8604 21.4648 87.2832 21.6699 86.8438C21.875 86.3984 21.9775 85.9443 21.9775 85.4814C21.9775 84.749 21.7607 84.1748 21.3271 83.7588C20.8994 83.3428 20.3105 83.1348 19.5605 83.1348C19.0273 83.1348 18.4678 83.2314 17.8818 83.4248C17.2959 83.6182 16.6748 83.9111 16.0186 84.3037V82.5107C16.6221 82.2236 17.2139 82.0068 17.7939 81.8604C18.3799 81.7139 18.957 81.6406 19.5254 81.6406C20.8086 81.6406 21.8398 81.9834 22.6191 82.6689C23.4043 83.3486 23.7969 84.2422 23.7969 85.3496C23.7969 85.9121 23.665 86.4746 23.4014 87.0371C23.1436 87.5996 22.7217 88.2207 22.1357 88.9004C21.8076 89.2812 21.3301 89.8086 20.7031 90.4824C20.082 91.1562 19.1328 92.1641 17.8555 93.5059Z" fill="white"/>
<line x1="36" y1="222" x2="144" y2="222" stroke="#7B58CF" stroke-width="2" stroke-linecap="round"/>
<circle cx="20" cy="222" r="16" fill="#7B58CF"/>
<circle cx="20" cy="222" r="18" stroke="#7B58CF" stroke-opacity="0.3" stroke-width="4"/>
<path d="M21.3975 220.978C22.2588 221.206 22.918 221.613 23.375 222.199C23.832 222.779 24.0605 223.506 24.0605 224.379C24.0605 225.586 23.6533 226.535 22.8389 227.227C22.0303 227.912 20.9082 228.255 19.4727 228.255C18.8691 228.255 18.2539 228.199 17.627 228.088C17 227.977 16.3848 227.815 15.7812 227.604V225.838C16.3789 226.148 16.9678 226.38 17.5479 226.532C18.1279 226.685 18.7051 226.761 19.2793 226.761C20.252 226.761 20.999 226.541 21.5205 226.102C22.042 225.662 22.3027 225.029 22.3027 224.203C22.3027 223.441 22.042 222.838 21.5205 222.393C20.999 221.941 20.293 221.716 19.4023 221.716H18.0488V220.257H19.4023C20.2168 220.257 20.8525 220.078 21.3096 219.721C21.7666 219.363 21.9951 218.865 21.9951 218.227C21.9951 217.553 21.7812 217.037 21.3535 216.68C20.9316 216.316 20.3281 216.135 19.543 216.135C19.0215 216.135 18.4824 216.193 17.9258 216.311C17.3691 216.428 16.7861 216.604 16.1768 216.838V215.203C16.8857 215.016 17.5156 214.875 18.0664 214.781C18.623 214.688 19.1152 214.641 19.543 214.641C20.8203 214.641 21.8398 214.963 22.6016 215.607C23.3691 216.246 23.7529 217.096 23.7529 218.156C23.7529 218.877 23.5508 219.478 23.1465 219.958C22.748 220.438 22.165 220.778 21.3975 220.978Z" fill="white"/>
<line x1="36" y1="278" x2="120" y2="278" stroke="#7B58CF" stroke-width="2" stroke-linecap="round"/>
<circle cx="20" cy="278" r="16" fill="#7B58CF"/>
<circle cx="20" cy="278" r="18" stroke="#7B58CF" stroke-opacity="0.3" stroke-width="4"/>
<path d="M21.0371 272.495L16.8975 279.43H21.0371V272.495ZM20.7471 270.878H22.8037V279.43H24.5527V280.871H22.8037V284H21.0371V280.871H15.4736V279.192L20.7471 270.878Z" fill="white"/>
<line x1="36" y1="334" x2="120" y2="334" stroke="#7B58CF" stroke-width="2" stroke-linecap="round"/>
<circle cx="20" cy="334" r="16" fill="#7B58CF"/>
<circle cx="20" cy="334" r="18" stroke="#7B58CF" stroke-opacity="0.3" stroke-width="4"/>
<path d="M16.3965 326.878H23.041V328.372H18.0137V331.598C18.2656 331.504 18.5176 331.437 18.7695 331.396C19.0273 331.349 19.2852 331.325 19.543 331.325C20.9023 331.325 21.9805 331.727 22.7773 332.529C23.5742 333.332 23.9727 334.419 23.9727 335.79C23.9727 337.173 23.5537 338.263 22.7158 339.06C21.8838 339.856 20.7441 340.255 19.2969 340.255C18.5996 340.255 17.9609 340.208 17.3809 340.114C16.8066 340.021 16.291 339.88 15.834 339.692V337.891C16.373 338.184 16.915 338.403 17.46 338.55C18.0049 338.69 18.5615 338.761 19.1299 338.761C20.1084 338.761 20.8613 338.503 21.3887 337.987C21.9219 337.472 22.1885 336.739 22.1885 335.79C22.1885 334.853 21.9131 334.123 21.3623 333.602C20.8174 333.08 20.0557 332.819 19.0771 332.819C18.6025 332.819 18.1396 332.875 17.6885 332.986C17.2373 333.092 16.8066 333.253 16.3965 333.47V326.878Z" fill="white"/>
<line x1="36" y1="422" x2="120" y2="422" stroke="#7B58CF" stroke-width="2" stroke-linecap="round"/>
<circle cx="20" cy="422" r="16" fill="#7B58CF"/>
<circle cx="20" cy="422" r="18" stroke="#7B58CF" stroke-opacity="0.3" stroke-width="4"/>
<path d="M23.2871 415.168V416.803C22.918 416.586 22.5254 416.422 22.1094 416.311C21.6934 416.193 21.2598 416.135 20.8086 416.135C19.6836 416.135 18.8311 416.56 18.251 417.409C17.6709 418.253 17.3809 419.498 17.3809 421.145C17.6621 420.559 18.0518 420.11 18.5498 419.8C19.0479 419.483 19.6191 419.325 20.2637 419.325C21.5293 419.325 22.5078 419.715 23.1992 420.494C23.8965 421.268 24.2451 422.366 24.2451 423.79C24.2451 425.208 23.8877 426.307 23.1729 427.086C22.458 427.865 21.4531 428.255 20.1582 428.255C18.6348 428.255 17.5186 427.71 16.8096 426.62C16.1006 425.524 15.7461 423.802 15.7461 421.452C15.7461 419.237 16.1709 417.55 17.0205 416.39C17.876 415.224 19.1123 414.641 20.7295 414.641C21.1631 414.641 21.5967 414.688 22.0303 414.781C22.4639 414.869 22.8828 414.998 23.2871 415.168ZM20.123 420.714C19.3672 420.714 18.7725 420.986 18.3389 421.531C17.9053 422.076 17.6885 422.829 17.6885 423.79C17.6885 424.751 17.9053 425.504 18.3389 426.049C18.7725 426.594 19.3672 426.866 20.123 426.866C20.9082 426.866 21.5 426.608 21.8984 426.093C22.2969 425.571 22.4961 424.804 22.4961 423.79C22.4961 422.771 22.2969 422.003 21.8984 421.487C21.5 420.972 20.9082 420.714 20.123 420.714Z" fill="white"/>
<line x1="36" y1="466" x2="211" y2="466" stroke="#7B58CF" stroke-width="2" stroke-linecap="round"/>
<circle cx="20" cy="466" r="16" fill="#7B58CF"/>
<circle cx="20" cy="466" r="18" stroke="#7B58CF" stroke-opacity="0.3" stroke-width="4"/>
<path d="M15.7988 458.878H24.0605V459.634L19.3672 472H17.5127L22.083 460.372H15.7988V458.878Z" fill="white"/>
</g>
<defs>
<clipPath id="clip0_6009_22931">
<rect width="369" height="486" fill="white"/>
</clipPath>
</defs>
</svg>
