<svg width="389" height="534" viewBox="0 0 389 534" fill="none" xmlns="http://www.w3.org/2000/svg">
<rect width="389" height="534" fill="white"/>
<rect x="137" y="22" width="73" height="12" rx="6" fill="#666666"/>
<path d="M137 46C137 43.7909 138.791 42 141 42H373C375.209 42 377 43.7909 377 46V70C377 72.2091 375.209 74 373 74H141C138.791 74 137 72.2091 137 70V46Z" fill="white"/>
<path d="M141 44H373V40H141V44ZM375 46V70H379V46H375ZM373 72H141V76H373V72ZM139 70V46H135V70H139ZM141 72C139.895 72 139 71.1046 139 70H135C135 73.3137 137.686 76 141 76V72ZM375 70C375 71.1046 374.105 72 373 72V76C376.314 76 379 73.3137 379 70H375ZM373 44C374.105 44 375 44.8954 375 46H379C379 42.6863 376.314 40 373 40V44ZM141 40C137.686 40 135 42.6863 135 46H139C139 44.8954 139.895 44 141 44V40Z" fill="#BFBFBF"/>
<g clip-path="url(#clip0_6009_22931)">
<rect x="137" y="98" width="100" height="12" rx="6" fill="#666666"/>
<path d="M137.966 101.004V111H140.164V106.87H144.35V105.162H140.164V102.852H144.994V101.004H137.966ZM145.971 105.988C145.999 105.521 146.115 105.134 146.321 104.826C146.526 104.518 146.787 104.271 147.105 104.084C147.422 103.897 147.777 103.767 148.169 103.692C148.57 103.608 148.971 103.566 149.373 103.566C149.737 103.566 150.105 103.594 150.479 103.65C150.852 103.697 151.193 103.795 151.501 103.944C151.809 104.093 152.061 104.303 152.257 104.574C152.453 104.835 152.551 105.185 152.551 105.624V109.39C152.551 109.717 152.569 110.029 152.607 110.328C152.644 110.627 152.709 110.851 152.803 111H150.787C150.749 110.888 150.717 110.776 150.689 110.664C150.67 110.543 150.656 110.421 150.647 110.3C150.329 110.627 149.956 110.855 149.527 110.986C149.097 111.117 148.659 111.182 148.211 111.182C147.865 111.182 147.543 111.14 147.245 111.056C146.946 110.972 146.685 110.841 146.461 110.664C146.237 110.487 146.059 110.263 145.929 109.992C145.807 109.721 145.747 109.399 145.747 109.026C145.747 108.615 145.817 108.279 145.957 108.018C146.106 107.747 146.293 107.533 146.517 107.374C146.75 107.215 147.011 107.099 147.301 107.024C147.599 106.94 147.898 106.875 148.197 106.828C148.495 106.781 148.789 106.744 149.079 106.716C149.368 106.688 149.625 106.646 149.849 106.59C150.073 106.534 150.25 106.455 150.381 106.352C150.511 106.24 150.572 106.081 150.563 105.876C150.563 105.661 150.525 105.493 150.451 105.372C150.385 105.241 150.292 105.143 150.171 105.078C150.059 105.003 149.923 104.957 149.765 104.938C149.615 104.91 149.452 104.896 149.275 104.896C148.883 104.896 148.575 104.98 148.351 105.148C148.127 105.316 147.996 105.596 147.959 105.988H145.971ZM150.563 107.458C150.479 107.533 150.371 107.593 150.241 107.64C150.119 107.677 149.984 107.71 149.835 107.738C149.695 107.766 149.545 107.789 149.387 107.808C149.228 107.827 149.069 107.85 148.911 107.878C148.761 107.906 148.612 107.943 148.463 107.99C148.323 108.037 148.197 108.102 148.085 108.186C147.982 108.261 147.898 108.359 147.833 108.48C147.767 108.601 147.735 108.755 147.735 108.942C147.735 109.119 147.767 109.269 147.833 109.39C147.898 109.511 147.987 109.609 148.099 109.684C148.211 109.749 148.341 109.796 148.491 109.824C148.64 109.852 148.794 109.866 148.953 109.866C149.345 109.866 149.648 109.801 149.863 109.67C150.077 109.539 150.236 109.385 150.339 109.208C150.441 109.021 150.502 108.835 150.521 108.648C150.549 108.461 150.563 108.312 150.563 108.2V107.458ZM158.098 111L160.548 103.762H158.574L157.048 108.704H157.02L155.494 103.762H153.408L155.886 111H158.098ZM163.131 107.388C163.131 107.099 163.159 106.814 163.215 106.534C163.271 106.254 163.365 106.007 163.495 105.792C163.635 105.577 163.817 105.405 164.041 105.274C164.265 105.134 164.545 105.064 164.881 105.064C165.217 105.064 165.497 105.134 165.721 105.274C165.955 105.405 166.137 105.577 166.267 105.792C166.407 106.007 166.505 106.254 166.561 106.534C166.617 106.814 166.645 107.099 166.645 107.388C166.645 107.677 166.617 107.962 166.561 108.242C166.505 108.513 166.407 108.76 166.267 108.984C166.137 109.199 165.955 109.371 165.721 109.502C165.497 109.633 165.217 109.698 164.881 109.698C164.545 109.698 164.265 109.633 164.041 109.502C163.817 109.371 163.635 109.199 163.495 108.984C163.365 108.76 163.271 108.513 163.215 108.242C163.159 107.962 163.131 107.677 163.131 107.388ZM161.143 107.388C161.143 107.967 161.232 108.489 161.409 108.956C161.587 109.423 161.839 109.824 162.165 110.16C162.492 110.487 162.884 110.739 163.341 110.916C163.799 111.093 164.312 111.182 164.881 111.182C165.451 111.182 165.964 111.093 166.421 110.916C166.888 110.739 167.285 110.487 167.611 110.16C167.938 109.824 168.19 109.423 168.367 108.956C168.545 108.489 168.633 107.967 168.633 107.388C168.633 106.809 168.545 106.287 168.367 105.82C168.19 105.344 167.938 104.943 167.611 104.616C167.285 104.28 166.888 104.023 166.421 103.846C165.964 103.659 165.451 103.566 164.881 103.566C164.312 103.566 163.799 103.659 163.341 103.846C162.884 104.023 162.492 104.28 162.165 104.616C161.839 104.943 161.587 105.344 161.409 105.82C161.232 106.287 161.143 106.809 161.143 107.388ZM169.926 103.762V111H171.914V107.738C171.914 107.411 171.947 107.108 172.012 106.828C172.077 106.548 172.185 106.305 172.334 106.1C172.493 105.885 172.698 105.717 172.95 105.596C173.202 105.475 173.51 105.414 173.874 105.414C173.995 105.414 174.121 105.423 174.252 105.442C174.383 105.451 174.495 105.465 174.588 105.484V103.636C174.429 103.589 174.285 103.566 174.154 103.566C173.902 103.566 173.659 103.603 173.426 103.678C173.193 103.753 172.973 103.86 172.768 104C172.563 104.131 172.381 104.294 172.222 104.49C172.063 104.677 171.937 104.882 171.844 105.106H171.816V103.762H169.926ZM177.411 102.642V101.004H175.423V102.642H177.411ZM175.423 103.762V111H177.411V103.762H175.423ZM181.497 103.762V101.592H179.509V103.762H178.305V105.092H179.509V109.362C179.509 109.726 179.569 110.02 179.691 110.244C179.812 110.468 179.975 110.641 180.181 110.762C180.395 110.883 180.638 110.963 180.909 111C181.189 111.047 181.483 111.07 181.791 111.07C181.987 111.07 182.187 111.065 182.393 111.056C182.598 111.047 182.785 111.028 182.953 111V109.46C182.859 109.479 182.761 109.493 182.659 109.502C182.556 109.511 182.449 109.516 182.337 109.516C182.001 109.516 181.777 109.46 181.665 109.348C181.553 109.236 181.497 109.012 181.497 108.676V105.092H182.953V103.762H181.497ZM188.771 106.604H185.537C185.546 106.464 185.574 106.305 185.621 106.128C185.677 105.951 185.765 105.783 185.887 105.624C186.017 105.465 186.185 105.335 186.391 105.232C186.605 105.12 186.871 105.064 187.189 105.064C187.674 105.064 188.033 105.195 188.267 105.456C188.509 105.717 188.677 106.1 188.771 106.604ZM185.537 107.864H190.759C190.796 107.304 190.749 106.767 190.619 106.254C190.488 105.741 190.273 105.283 189.975 104.882C189.685 104.481 189.312 104.163 188.855 103.93C188.397 103.687 187.861 103.566 187.245 103.566C186.694 103.566 186.19 103.664 185.733 103.86C185.285 104.056 184.897 104.327 184.571 104.672C184.244 105.008 183.992 105.409 183.815 105.876C183.637 106.343 183.549 106.847 183.549 107.388C183.549 107.948 183.633 108.461 183.801 108.928C183.978 109.395 184.225 109.796 184.543 110.132C184.86 110.468 185.247 110.729 185.705 110.916C186.162 111.093 186.675 111.182 187.245 111.182C188.066 111.182 188.766 110.995 189.345 110.622C189.923 110.249 190.353 109.628 190.633 108.76H188.883C188.817 108.984 188.64 109.199 188.351 109.404C188.061 109.6 187.716 109.698 187.315 109.698C186.755 109.698 186.325 109.553 186.027 109.264C185.728 108.975 185.565 108.508 185.537 107.864ZM196.044 101.004V111H198.242V106.87H202.428V105.162H198.242V102.852H203.072V101.004H196.044ZM205.897 107.388C205.897 107.099 205.925 106.814 205.981 106.534C206.037 106.254 206.13 106.007 206.261 105.792C206.401 105.577 206.583 105.405 206.807 105.274C207.031 105.134 207.311 105.064 207.647 105.064C207.983 105.064 208.263 105.134 208.487 105.274C208.72 105.405 208.902 105.577 209.033 105.792C209.173 106.007 209.271 106.254 209.327 106.534C209.383 106.814 209.411 107.099 209.411 107.388C209.411 107.677 209.383 107.962 209.327 108.242C209.271 108.513 209.173 108.76 209.033 108.984C208.902 109.199 208.72 109.371 208.487 109.502C208.263 109.633 207.983 109.698 207.647 109.698C207.311 109.698 207.031 109.633 206.807 109.502C206.583 109.371 206.401 109.199 206.261 108.984C206.13 108.76 206.037 108.513 205.981 108.242C205.925 107.962 205.897 107.677 205.897 107.388ZM203.909 107.388C203.909 107.967 203.998 108.489 204.175 108.956C204.352 109.423 204.604 109.824 204.931 110.16C205.258 110.487 205.65 110.739 206.107 110.916C206.564 111.093 207.078 111.182 207.647 111.182C208.216 111.182 208.73 111.093 209.187 110.916C209.654 110.739 210.05 110.487 210.377 110.16C210.704 109.824 210.956 109.423 211.133 108.956C211.31 108.489 211.399 107.967 211.399 107.388C211.399 106.809 211.31 106.287 211.133 105.82C210.956 105.344 210.704 104.943 210.377 104.616C210.05 104.28 209.654 104.023 209.187 103.846C208.73 103.659 208.216 103.566 207.647 103.566C207.078 103.566 206.564 103.659 206.107 103.846C205.65 104.023 205.258 104.28 204.931 104.616C204.604 104.943 204.352 105.344 204.175 105.82C203.998 106.287 203.909 106.809 203.909 107.388ZM214.456 107.388C214.456 107.099 214.484 106.814 214.54 106.534C214.596 106.254 214.689 106.007 214.82 105.792C214.96 105.577 215.142 105.405 215.366 105.274C215.59 105.134 215.87 105.064 216.206 105.064C216.542 105.064 216.822 105.134 217.046 105.274C217.279 105.405 217.461 105.577 217.592 105.792C217.732 106.007 217.83 106.254 217.886 106.534C217.942 106.814 217.97 107.099 217.97 107.388C217.97 107.677 217.942 107.962 217.886 108.242C217.83 108.513 217.732 108.76 217.592 108.984C217.461 109.199 217.279 109.371 217.046 109.502C216.822 109.633 216.542 109.698 216.206 109.698C215.87 109.698 215.59 109.633 215.366 109.502C215.142 109.371 214.96 109.199 214.82 108.984C214.689 108.76 214.596 108.513 214.54 108.242C214.484 107.962 214.456 107.677 214.456 107.388ZM212.468 107.388C212.468 107.967 212.556 108.489 212.734 108.956C212.911 109.423 213.163 109.824 213.49 110.16C213.816 110.487 214.208 110.739 214.666 110.916C215.123 111.093 215.636 111.182 216.206 111.182C216.775 111.182 217.288 111.093 217.746 110.916C218.212 110.739 218.609 110.487 218.936 110.16C219.262 109.824 219.514 109.423 219.692 108.956C219.869 108.489 219.958 107.967 219.958 107.388C219.958 106.809 219.869 106.287 219.692 105.82C219.514 105.344 219.262 104.943 218.936 104.616C218.609 104.28 218.212 104.023 217.746 103.846C217.288 103.659 216.775 103.566 216.206 103.566C215.636 103.566 215.123 103.659 214.666 103.846C214.208 104.023 213.816 104.28 213.49 104.616C213.163 104.943 212.911 105.344 212.734 105.82C212.556 106.287 212.468 106.809 212.468 107.388ZM226.388 107.36C226.388 107.659 226.36 107.948 226.304 108.228C226.248 108.508 226.155 108.76 226.024 108.984C225.893 109.199 225.716 109.371 225.492 109.502C225.277 109.633 225.007 109.698 224.68 109.698C224.372 109.698 224.106 109.633 223.882 109.502C223.667 109.362 223.485 109.185 223.336 108.97C223.196 108.746 223.093 108.494 223.028 108.214C222.963 107.934 222.93 107.654 222.93 107.374C222.93 107.075 222.958 106.791 223.014 106.52C223.079 106.24 223.177 105.993 223.308 105.778C223.448 105.563 223.63 105.391 223.854 105.26C224.078 105.129 224.353 105.064 224.68 105.064C225.007 105.064 225.277 105.129 225.492 105.26C225.707 105.391 225.879 105.563 226.01 105.778C226.15 105.983 226.248 106.226 226.304 106.506C226.36 106.777 226.388 107.061 226.388 107.36ZM226.416 110.076V111H228.306V101.004H226.318V104.644H226.29C226.066 104.289 225.758 104.023 225.366 103.846C224.983 103.659 224.577 103.566 224.148 103.566C223.616 103.566 223.149 103.673 222.748 103.888C222.347 104.093 222.011 104.369 221.74 104.714C221.479 105.059 221.278 105.461 221.138 105.918C221.007 106.366 220.942 106.833 220.942 107.318C220.942 107.822 221.007 108.307 221.138 108.774C221.278 109.241 221.479 109.656 221.74 110.02C222.011 110.375 222.351 110.659 222.762 110.874C223.173 111.079 223.649 111.182 224.19 111.182C224.666 111.182 225.091 111.098 225.464 110.93C225.847 110.753 226.155 110.468 226.388 110.076H226.416ZM231.349 108.648H229.459C229.477 109.133 229.585 109.539 229.781 109.866C229.986 110.183 230.243 110.44 230.551 110.636C230.868 110.832 231.227 110.972 231.629 111.056C232.03 111.14 232.441 111.182 232.861 111.182C233.271 111.182 233.673 111.14 234.065 111.056C234.466 110.981 234.821 110.846 235.129 110.65C235.437 110.454 235.684 110.197 235.871 109.88C236.067 109.553 236.165 109.152 236.165 108.676C236.165 108.34 236.099 108.06 235.969 107.836C235.838 107.603 235.665 107.411 235.451 107.262C235.236 107.103 234.989 106.977 234.709 106.884C234.438 106.791 234.158 106.711 233.869 106.646C233.589 106.581 233.313 106.52 233.043 106.464C232.772 106.408 232.529 106.347 232.315 106.282C232.109 106.207 231.941 106.114 231.811 106.002C231.68 105.89 231.615 105.745 231.615 105.568C231.615 105.419 231.652 105.302 231.727 105.218C231.801 105.125 231.89 105.055 231.993 105.008C232.105 104.961 232.226 104.933 232.357 104.924C232.487 104.905 232.609 104.896 232.721 104.896C233.075 104.896 233.383 104.966 233.645 105.106C233.906 105.237 234.051 105.493 234.079 105.876H235.969C235.931 105.428 235.815 105.059 235.619 104.77C235.432 104.471 235.194 104.233 234.905 104.056C234.615 103.879 234.284 103.753 233.911 103.678C233.547 103.603 233.169 103.566 232.777 103.566C232.385 103.566 232.002 103.603 231.629 103.678C231.255 103.743 230.919 103.865 230.621 104.042C230.322 104.21 230.079 104.443 229.893 104.742C229.715 105.041 229.627 105.423 229.627 105.89C229.627 106.207 229.692 106.478 229.823 106.702C229.953 106.917 230.126 107.099 230.341 107.248C230.555 107.388 230.798 107.505 231.069 107.598C231.349 107.682 231.633 107.757 231.923 107.822C232.632 107.971 233.183 108.121 233.575 108.27C233.976 108.419 234.177 108.643 234.177 108.942C234.177 109.119 234.135 109.269 234.051 109.39C233.967 109.502 233.859 109.595 233.729 109.67C233.607 109.735 233.467 109.787 233.309 109.824C233.159 109.852 233.015 109.866 232.875 109.866C232.679 109.866 232.487 109.843 232.301 109.796C232.123 109.749 231.965 109.679 231.825 109.586C231.685 109.483 231.568 109.357 231.475 109.208C231.391 109.049 231.349 108.863 231.349 108.648Z" fill="#666666"/>
</g>
<path d="M137 122C137 119.791 138.791 118 141 118H149C151.209 118 153 119.791 153 122V130C153 132.209 151.209 134 149 134H141C138.791 134 137 132.209 137 130V122Z" fill="white"/>
<path d="M141 119.5H149V116.5H141V119.5ZM151.5 122V130H154.5V122H151.5ZM149 132.5H141V135.5H149V132.5ZM138.5 130V122H135.5V130H138.5ZM141 132.5C139.619 132.5 138.5 131.381 138.5 130H135.5C135.5 133.038 137.962 135.5 141 135.5V132.5ZM151.5 130C151.5 131.381 150.381 132.5 149 132.5V135.5C152.038 135.5 154.5 133.038 154.5 130H151.5ZM149 119.5C150.381 119.5 151.5 120.619 151.5 122H154.5C154.5 118.962 152.038 116.5 149 116.5V119.5ZM141 116.5C137.962 116.5 135.5 118.962 135.5 122H138.5C138.5 120.619 139.619 119.5 141 119.5V116.5Z" fill="#868686"/>
<rect x="161" y="120" width="135" height="12" rx="6" fill="#999999"/>
<path d="M137 146C137 143.791 138.791 142 141 142H149C151.209 142 153 143.791 153 146V154C153 156.209 151.209 158 149 158H141C138.791 158 137 156.209 137 154V146Z" fill="#1F75CB"/>
<path d="M142 150.053L143.991 152L148 148" stroke="white" stroke-width="2"/>
<rect x="161" y="144" width="196" height="12" rx="6" fill="#999999"/>
<path d="M137 170C137 167.791 138.791 166 141 166H149C151.209 166 153 167.791 153 170V178C153 180.209 151.209 182 149 182H141C138.791 182 137 180.209 137 178V170Z" fill="white"/>
<path d="M141 167.5H149V164.5H141V167.5ZM151.5 170V178H154.5V170H151.5ZM149 180.5H141V183.5H149V180.5ZM138.5 178V170H135.5V178H138.5ZM141 180.5C139.619 180.5 138.5 179.381 138.5 178H135.5C135.5 181.038 137.962 183.5 141 183.5V180.5ZM151.5 178C151.5 179.381 150.381 180.5 149 180.5V183.5C152.038 183.5 154.5 181.038 154.5 178H151.5ZM149 167.5C150.381 167.5 151.5 168.619 151.5 170H154.5C154.5 166.962 152.038 164.5 149 164.5V167.5ZM141 164.5C137.962 164.5 135.5 166.962 135.5 170H138.5C138.5 168.619 139.619 167.5 141 167.5V164.5Z" fill="#868686"/>
<rect x="161" y="168" width="25" height="12" rx="6" fill="#999999"/>
<rect x="137" y="206" width="73" height="12" rx="6" fill="#666666"/>
<path d="M137 230C137 227.791 138.791 226 141 226H373C375.209 226 377 227.791 377 230V254C377 256.209 375.209 258 373 258H141C138.791 258 137 256.209 137 254V230Z" fill="white"/>
<path d="M141 228H373V224H141V228ZM375 230V254H379V230H375ZM373 256H141V260H373V256ZM139 254V230H135V254H139ZM141 256C139.895 256 139 255.105 139 254H135C135 257.314 137.686 260 141 260V256ZM375 254C375 255.105 374.105 256 373 256V260C376.314 260 379 257.314 379 254H375ZM373 228C374.105 228 375 228.895 375 230H379C379 226.686 376.314 224 373 224V228ZM141 224C137.686 224 135 226.686 135 230H139C139 228.895 139.895 228 141 228V224Z" fill="#BFBFBF"/>
<rect x="137" y="282" width="95" height="12" rx="6" fill="#666666"/>
<rect x="137" y="298" width="221" height="12" rx="6" fill="#BFBFBF"/>
<path d="M137 322C137 319.791 138.791 318 141 318H373C375.209 318 377 319.791 377 322V346C377 348.209 375.209 350 373 350H141C138.791 350 137 348.209 137 346V322Z" fill="white"/>
<path d="M141 320H373V316H141V320ZM375 322V346H379V322H375ZM373 348H141V352H373V348ZM139 346V322H135V346H139ZM141 348C139.895 348 139 347.105 139 346H135C135 349.314 137.686 352 141 352V348ZM375 346C375 347.105 374.105 348 373 348V352C376.314 352 379 349.314 379 346H375ZM373 320C374.105 320 375 320.895 375 322H379C379 318.686 376.314 316 373 316V320ZM141 316C137.686 316 135 318.686 135 322H139C139 320.895 139.895 320 141 320V316Z" fill="#BFBFBF"/>
<g clip-path="url(#clip1_6009_22931)">
<rect x="137" y="358" width="100" height="12" rx="6" fill="#F57F6C"/>
<path d="M140.36 362.124V371H141.69V362.124H145.022V361.004H137.028V362.124H140.36ZM145.935 361.004V371H147.125V366.912C147.125 366.585 147.167 366.287 147.251 366.016C147.344 365.736 147.48 365.493 147.657 365.288C147.834 365.083 148.054 364.924 148.315 364.812C148.586 364.7 148.903 364.644 149.267 364.644C149.724 364.644 150.084 364.775 150.345 365.036C150.606 365.297 150.737 365.652 150.737 366.1V371H151.927V366.24C151.927 365.848 151.885 365.493 151.801 365.176C151.726 364.849 151.591 364.569 151.395 364.336C151.199 364.103 150.942 363.921 150.625 363.79C150.308 363.659 149.911 363.594 149.435 363.594C149.22 363.594 148.996 363.617 148.763 363.664C148.539 363.711 148.32 363.785 148.105 363.888C147.9 363.981 147.713 364.107 147.545 364.266C147.377 364.415 147.246 364.602 147.153 364.826H147.125V361.004H145.935ZM154.974 362.46V361.004H153.784V362.46H154.974ZM153.784 363.762V371H154.974V363.762H153.784ZM157.546 368.718H156.356C156.375 369.166 156.468 369.549 156.636 369.866C156.804 370.174 157.028 370.426 157.308 370.622C157.588 370.809 157.91 370.944 158.274 371.028C158.638 371.112 159.021 371.154 159.422 371.154C159.786 371.154 160.15 371.117 160.514 371.042C160.887 370.977 161.219 370.855 161.508 370.678C161.807 370.501 162.045 370.267 162.222 369.978C162.409 369.689 162.502 369.325 162.502 368.886C162.502 368.541 162.432 368.251 162.292 368.018C162.161 367.785 161.984 367.593 161.76 367.444C161.545 367.285 161.293 367.159 161.004 367.066C160.724 366.973 160.435 366.893 160.136 366.828C159.856 366.763 159.576 366.702 159.296 366.646C159.016 366.581 158.764 366.506 158.54 366.422C158.316 366.329 158.129 366.217 157.98 366.086C157.84 365.946 157.77 365.773 157.77 365.568C157.77 365.381 157.817 365.232 157.91 365.12C158.003 364.999 158.125 364.905 158.274 364.84C158.423 364.765 158.587 364.714 158.764 364.686C158.951 364.658 159.133 364.644 159.31 364.644C159.506 364.644 159.697 364.667 159.884 364.714C160.08 364.751 160.257 364.817 160.416 364.91C160.575 365.003 160.705 365.129 160.808 365.288C160.911 365.437 160.971 365.629 160.99 365.862H162.18C162.152 365.423 162.059 365.059 161.9 364.77C161.741 364.471 161.527 364.238 161.256 364.07C160.995 363.893 160.691 363.771 160.346 363.706C160.001 363.631 159.623 363.594 159.212 363.594C158.895 363.594 158.573 363.636 158.246 363.72C157.929 363.795 157.639 363.916 157.378 364.084C157.126 364.243 156.916 364.453 156.748 364.714C156.589 364.975 156.51 365.288 156.51 365.652C156.51 366.119 156.627 366.483 156.86 366.744C157.093 367.005 157.383 367.211 157.728 367.36C158.083 367.5 158.465 367.612 158.876 367.696C159.287 367.771 159.665 367.859 160.01 367.962C160.365 368.055 160.659 368.181 160.892 368.34C161.125 368.499 161.242 368.732 161.242 369.04C161.242 369.264 161.186 369.451 161.074 369.6C160.962 369.74 160.817 369.847 160.64 369.922C160.472 369.997 160.285 370.048 160.08 370.076C159.875 370.104 159.679 370.118 159.492 370.118C159.249 370.118 159.011 370.095 158.778 370.048C158.554 370.001 158.349 369.927 158.162 369.824C157.985 369.712 157.84 369.567 157.728 369.39C157.616 369.203 157.555 368.979 157.546 368.718ZM168.974 362.46V361.004H167.784V362.46H168.974ZM167.784 363.762V371H168.974V363.762H167.784ZM171.546 368.718H170.356C170.375 369.166 170.468 369.549 170.636 369.866C170.804 370.174 171.028 370.426 171.308 370.622C171.588 370.809 171.91 370.944 172.274 371.028C172.638 371.112 173.021 371.154 173.422 371.154C173.786 371.154 174.15 371.117 174.514 371.042C174.887 370.977 175.219 370.855 175.508 370.678C175.807 370.501 176.045 370.267 176.222 369.978C176.409 369.689 176.502 369.325 176.502 368.886C176.502 368.541 176.432 368.251 176.292 368.018C176.161 367.785 175.984 367.593 175.76 367.444C175.545 367.285 175.293 367.159 175.004 367.066C174.724 366.973 174.435 366.893 174.136 366.828C173.856 366.763 173.576 366.702 173.296 366.646C173.016 366.581 172.764 366.506 172.54 366.422C172.316 366.329 172.129 366.217 171.98 366.086C171.84 365.946 171.77 365.773 171.77 365.568C171.77 365.381 171.817 365.232 171.91 365.12C172.003 364.999 172.125 364.905 172.274 364.84C172.423 364.765 172.587 364.714 172.764 364.686C172.951 364.658 173.133 364.644 173.31 364.644C173.506 364.644 173.697 364.667 173.884 364.714C174.08 364.751 174.257 364.817 174.416 364.91C174.575 365.003 174.705 365.129 174.808 365.288C174.911 365.437 174.971 365.629 174.99 365.862H176.18C176.152 365.423 176.059 365.059 175.9 364.77C175.741 364.471 175.527 364.238 175.256 364.07C174.995 363.893 174.691 363.771 174.346 363.706C174.001 363.631 173.623 363.594 173.212 363.594C172.895 363.594 172.573 363.636 172.246 363.72C171.929 363.795 171.639 363.916 171.378 364.084C171.126 364.243 170.916 364.453 170.748 364.714C170.589 364.975 170.51 365.288 170.51 365.652C170.51 366.119 170.627 366.483 170.86 366.744C171.093 367.005 171.383 367.211 171.728 367.36C172.083 367.5 172.465 367.612 172.876 367.696C173.287 367.771 173.665 367.859 174.01 367.962C174.365 368.055 174.659 368.181 174.892 368.34C175.125 368.499 175.242 368.732 175.242 369.04C175.242 369.264 175.186 369.451 175.074 369.6C174.962 369.74 174.817 369.847 174.64 369.922C174.472 369.997 174.285 370.048 174.08 370.076C173.875 370.104 173.679 370.118 173.492 370.118C173.249 370.118 173.011 370.095 172.778 370.048C172.554 370.001 172.349 369.927 172.162 369.824C171.985 369.712 171.84 369.567 171.728 369.39C171.616 369.203 171.555 368.979 171.546 368.718ZM181.756 361.004V371H182.946V370.034H182.974C183.105 370.249 183.264 370.431 183.45 370.58C183.646 370.72 183.852 370.832 184.066 370.916C184.281 371 184.496 371.061 184.71 371.098C184.934 371.135 185.135 371.154 185.312 371.154C185.863 371.154 186.344 371.056 186.754 370.86C187.174 370.664 187.52 370.398 187.79 370.062C188.07 369.717 188.276 369.315 188.406 368.858C188.546 368.401 188.616 367.915 188.616 367.402C188.616 366.889 188.546 366.403 188.406 365.946C188.266 365.489 188.056 365.087 187.776 364.742C187.506 364.387 187.16 364.107 186.74 363.902C186.33 363.697 185.844 363.594 185.284 363.594C184.78 363.594 184.318 363.687 183.898 363.874C183.478 364.051 183.17 364.341 182.974 364.742H182.946V361.004H181.756ZM187.356 367.318C187.356 367.673 187.319 368.018 187.244 368.354C187.17 368.69 187.048 368.989 186.88 369.25C186.712 369.511 186.488 369.721 186.208 369.88C185.938 370.039 185.597 370.118 185.186 370.118C184.776 370.118 184.426 370.043 184.136 369.894C183.847 369.735 183.609 369.53 183.422 369.278C183.245 369.026 183.114 368.737 183.03 368.41C182.946 368.074 182.904 367.729 182.904 367.374C182.904 367.038 182.942 366.707 183.016 366.38C183.1 366.053 183.231 365.764 183.408 365.512C183.586 365.251 183.814 365.041 184.094 364.882C184.374 364.723 184.715 364.644 185.116 364.644C185.499 364.644 185.83 364.719 186.11 364.868C186.4 365.017 186.633 365.218 186.81 365.47C186.997 365.722 187.132 366.011 187.216 366.338C187.31 366.655 187.356 366.982 187.356 367.318ZM196.425 370.972C196.22 371.093 195.935 371.154 195.571 371.154C195.263 371.154 195.016 371.07 194.829 370.902C194.652 370.725 194.563 370.44 194.563 370.048C194.237 370.44 193.854 370.725 193.415 370.902C192.986 371.07 192.519 371.154 192.015 371.154C191.689 371.154 191.376 371.117 191.077 371.042C190.788 370.967 190.536 370.851 190.321 370.692C190.107 370.533 189.934 370.328 189.803 370.076C189.682 369.815 189.621 369.502 189.621 369.138C189.621 368.727 189.691 368.391 189.831 368.13C189.971 367.869 190.153 367.659 190.377 367.5C190.611 367.332 190.872 367.206 191.161 367.122C191.46 367.038 191.763 366.968 192.071 366.912C192.398 366.847 192.706 366.8 192.995 366.772C193.294 366.735 193.555 366.688 193.779 366.632C194.003 366.567 194.181 366.478 194.311 366.366C194.442 366.245 194.507 366.072 194.507 365.848C194.507 365.587 194.456 365.377 194.353 365.218C194.26 365.059 194.134 364.938 193.975 364.854C193.826 364.77 193.653 364.714 193.457 364.686C193.271 364.658 193.084 364.644 192.897 364.644C192.393 364.644 191.973 364.742 191.637 364.938C191.301 365.125 191.119 365.484 191.091 366.016H189.901C189.92 365.568 190.013 365.19 190.181 364.882C190.349 364.574 190.573 364.327 190.853 364.14C191.133 363.944 191.451 363.804 191.805 363.72C192.169 363.636 192.557 363.594 192.967 363.594C193.294 363.594 193.616 363.617 193.933 363.664C194.26 363.711 194.554 363.809 194.815 363.958C195.077 364.098 195.287 364.299 195.445 364.56C195.604 364.821 195.683 365.162 195.683 365.582V369.306C195.683 369.586 195.697 369.791 195.725 369.922C195.763 370.053 195.875 370.118 196.061 370.118C196.164 370.118 196.285 370.095 196.425 370.048V370.972ZM194.493 367.262C194.344 367.374 194.148 367.458 193.905 367.514C193.663 367.561 193.406 367.603 193.135 367.64C192.874 367.668 192.608 367.705 192.337 367.752C192.067 367.789 191.824 367.855 191.609 367.948C191.395 368.041 191.217 368.177 191.077 368.354C190.947 368.522 190.881 368.755 190.881 369.054C190.881 369.25 190.919 369.418 190.993 369.558C191.077 369.689 191.18 369.796 191.301 369.88C191.432 369.964 191.581 370.025 191.749 370.062C191.917 370.099 192.095 370.118 192.281 370.118C192.673 370.118 193.009 370.067 193.289 369.964C193.569 369.852 193.798 369.717 193.975 369.558C194.153 369.39 194.283 369.213 194.367 369.026C194.451 368.83 194.493 368.648 194.493 368.48V367.262ZM198.401 367.444C198.401 367.089 198.438 366.744 198.513 366.408C198.587 366.072 198.709 365.773 198.877 365.512C199.045 365.251 199.269 365.041 199.549 364.882C199.829 364.723 200.169 364.644 200.571 364.644C200.981 364.644 201.331 364.723 201.621 364.882C201.91 365.031 202.143 365.232 202.321 365.484C202.507 365.736 202.643 366.03 202.727 366.366C202.811 366.693 202.853 367.033 202.853 367.388C202.853 367.724 202.811 368.055 202.727 368.382C202.652 368.709 202.526 369.003 202.349 369.264C202.171 369.516 201.943 369.721 201.663 369.88C201.383 370.039 201.042 370.118 200.641 370.118C200.258 370.118 199.922 370.043 199.633 369.894C199.353 369.745 199.119 369.544 198.933 369.292C198.755 369.04 198.62 368.755 198.527 368.438C198.443 368.111 198.401 367.78 198.401 367.444ZM204.001 371V361.004H202.811V364.728H202.783C202.652 364.513 202.489 364.336 202.293 364.196C202.106 364.047 201.905 363.93 201.691 363.846C201.476 363.753 201.261 363.687 201.047 363.65C200.832 363.613 200.631 363.594 200.445 363.594C199.894 363.594 199.409 363.697 198.989 363.902C198.578 364.098 198.233 364.369 197.953 364.714C197.682 365.05 197.477 365.447 197.337 365.904C197.206 366.361 197.141 366.847 197.141 367.36C197.141 367.873 197.211 368.359 197.351 368.816C197.491 369.273 197.696 369.675 197.967 370.02C198.247 370.365 198.592 370.641 199.003 370.846C199.423 371.051 199.913 371.154 200.473 371.154C200.977 371.154 201.439 371.065 201.859 370.888C202.279 370.711 202.587 370.421 202.783 370.02H202.811V371H204.001ZM210.596 367.444C210.596 367.089 210.633 366.744 210.708 366.408C210.783 366.072 210.904 365.773 211.072 365.512C211.24 365.251 211.464 365.041 211.744 364.882C212.024 364.723 212.365 364.644 212.766 364.644C213.177 364.644 213.527 364.723 213.816 364.882C214.105 365.031 214.339 365.232 214.516 365.484C214.703 365.736 214.838 366.03 214.922 366.366C215.006 366.693 215.048 367.033 215.048 367.388C215.048 367.724 215.006 368.055 214.922 368.382C214.847 368.709 214.721 369.003 214.544 369.264C214.367 369.516 214.138 369.721 213.858 369.88C213.578 370.039 213.237 370.118 212.836 370.118C212.453 370.118 212.117 370.043 211.828 369.894C211.548 369.745 211.315 369.544 211.128 369.292C210.951 369.04 210.815 368.755 210.722 368.438C210.638 368.111 210.596 367.78 210.596 367.444ZM216.196 371V361.004H215.006V364.728H214.978C214.847 364.513 214.684 364.336 214.488 364.196C214.301 364.047 214.101 363.93 213.886 363.846C213.671 363.753 213.457 363.687 213.242 363.65C213.027 363.613 212.827 363.594 212.64 363.594C212.089 363.594 211.604 363.697 211.184 363.902C210.773 364.098 210.428 364.369 210.148 364.714C209.877 365.05 209.672 365.447 209.532 365.904C209.401 366.361 209.336 366.847 209.336 367.36C209.336 367.873 209.406 368.359 209.546 368.816C209.686 369.273 209.891 369.675 210.162 370.02C210.442 370.365 210.787 370.641 211.198 370.846C211.618 371.051 212.108 371.154 212.668 371.154C213.172 371.154 213.634 371.065 214.054 370.888C214.474 370.711 214.782 370.421 214.978 370.02H215.006V371H216.196ZM224.439 370.972C224.234 371.093 223.949 371.154 223.585 371.154C223.277 371.154 223.03 371.07 222.843 370.902C222.666 370.725 222.577 370.44 222.577 370.048C222.25 370.44 221.868 370.725 221.429 370.902C221 371.07 220.533 371.154 220.029 371.154C219.702 371.154 219.39 371.117 219.091 371.042C218.802 370.967 218.55 370.851 218.335 370.692C218.12 370.533 217.948 370.328 217.817 370.076C217.696 369.815 217.635 369.502 217.635 369.138C217.635 368.727 217.705 368.391 217.845 368.13C217.985 367.869 218.167 367.659 218.391 367.5C218.624 367.332 218.886 367.206 219.175 367.122C219.474 367.038 219.777 366.968 220.085 366.912C220.412 366.847 220.72 366.8 221.009 366.772C221.308 366.735 221.569 366.688 221.793 366.632C222.017 366.567 222.194 366.478 222.325 366.366C222.456 366.245 222.521 366.072 222.521 365.848C222.521 365.587 222.47 365.377 222.367 365.218C222.274 365.059 222.148 364.938 221.989 364.854C221.84 364.77 221.667 364.714 221.471 364.686C221.284 364.658 221.098 364.644 220.911 364.644C220.407 364.644 219.987 364.742 219.651 364.938C219.315 365.125 219.133 365.484 219.105 366.016H217.915C217.934 365.568 218.027 365.19 218.195 364.882C218.363 364.574 218.587 364.327 218.867 364.14C219.147 363.944 219.464 363.804 219.819 363.72C220.183 363.636 220.57 363.594 220.981 363.594C221.308 363.594 221.63 363.617 221.947 363.664C222.274 363.711 222.568 363.809 222.829 363.958C223.09 364.098 223.3 364.299 223.459 364.56C223.618 364.821 223.697 365.162 223.697 365.582V369.306C223.697 369.586 223.711 369.791 223.739 369.922C223.776 370.053 223.888 370.118 224.075 370.118C224.178 370.118 224.299 370.095 224.439 370.048V370.972ZM222.507 367.262C222.358 367.374 222.162 367.458 221.919 367.514C221.676 367.561 221.42 367.603 221.149 367.64C220.888 367.668 220.622 367.705 220.351 367.752C220.08 367.789 219.838 367.855 219.623 367.948C219.408 368.041 219.231 368.177 219.091 368.354C218.96 368.522 218.895 368.755 218.895 369.054C218.895 369.25 218.932 369.418 219.007 369.558C219.091 369.689 219.194 369.796 219.315 369.88C219.446 369.964 219.595 370.025 219.763 370.062C219.931 370.099 220.108 370.118 220.295 370.118C220.687 370.118 221.023 370.067 221.303 369.964C221.583 369.852 221.812 369.717 221.989 369.558C222.166 369.39 222.297 369.213 222.381 369.026C222.465 368.83 222.507 368.648 222.507 368.48V367.262ZM227.198 363.762V361.592H226.008V363.762H224.776V364.812H226.008V369.418C226.008 369.754 226.041 370.025 226.106 370.23C226.172 370.435 226.27 370.594 226.4 370.706C226.54 370.818 226.718 370.897 226.932 370.944C227.156 370.981 227.422 371 227.73 371H228.64V369.95H228.094C227.908 369.95 227.754 369.945 227.632 369.936C227.52 369.917 227.432 369.885 227.366 369.838C227.301 369.791 227.254 369.726 227.226 369.642C227.208 369.558 227.198 369.446 227.198 369.306V364.812H228.64V363.762H227.198ZM236.374 370.972C236.169 371.093 235.884 371.154 235.52 371.154C235.212 371.154 234.965 371.07 234.778 370.902C234.601 370.725 234.512 370.44 234.512 370.048C234.186 370.44 233.803 370.725 233.364 370.902C232.935 371.07 232.468 371.154 231.964 371.154C231.638 371.154 231.325 371.117 231.026 371.042C230.737 370.967 230.485 370.851 230.27 370.692C230.056 370.533 229.883 370.328 229.752 370.076C229.631 369.815 229.57 369.502 229.57 369.138C229.57 368.727 229.64 368.391 229.78 368.13C229.92 367.869 230.102 367.659 230.326 367.5C230.56 367.332 230.821 367.206 231.11 367.122C231.409 367.038 231.712 366.968 232.02 366.912C232.347 366.847 232.655 366.8 232.944 366.772C233.243 366.735 233.504 366.688 233.728 366.632C233.952 366.567 234.13 366.478 234.26 366.366C234.391 366.245 234.456 366.072 234.456 365.848C234.456 365.587 234.405 365.377 234.302 365.218C234.209 365.059 234.083 364.938 233.924 364.854C233.775 364.77 233.602 364.714 233.406 364.686C233.22 364.658 233.033 364.644 232.846 364.644C232.342 364.644 231.922 364.742 231.586 364.938C231.25 365.125 231.068 365.484 231.04 366.016H229.85C229.869 365.568 229.962 365.19 230.13 364.882C230.298 364.574 230.522 364.327 230.802 364.14C231.082 363.944 231.4 363.804 231.754 363.72C232.118 363.636 232.506 363.594 232.916 363.594C233.243 363.594 233.565 363.617 233.882 363.664C234.209 363.711 234.503 363.809 234.764 363.958C235.026 364.098 235.236 364.299 235.394 364.56C235.553 364.821 235.632 365.162 235.632 365.582V369.306C235.632 369.586 235.646 369.791 235.674 369.922C235.712 370.053 235.824 370.118 236.01 370.118C236.113 370.118 236.234 370.095 236.374 370.048V370.972ZM234.442 367.262C234.293 367.374 234.097 367.458 233.854 367.514C233.612 367.561 233.355 367.603 233.084 367.64C232.823 367.668 232.557 367.705 232.286 367.752C232.016 367.789 231.773 367.855 231.558 367.948C231.344 368.041 231.166 368.177 231.026 368.354C230.896 368.522 230.83 368.755 230.83 369.054C230.83 369.25 230.868 369.418 230.942 369.558C231.026 369.689 231.129 369.796 231.25 369.88C231.381 369.964 231.53 370.025 231.698 370.062C231.866 370.099 232.044 370.118 232.23 370.118C232.622 370.118 232.958 370.067 233.238 369.964C233.518 369.852 233.747 369.717 233.924 369.558C234.102 369.39 234.232 369.213 234.316 369.026C234.4 368.83 234.442 368.648 234.442 368.48V367.262Z" fill="#F57F6C"/>
</g>
<rect x="137" y="394" width="89" height="12" rx="6" fill="#666666"/>
<path d="M137 418C137 415.791 138.791 414 141 414H373C375.209 414 377 415.791 377 418V442C377 444.209 375.209 446 373 446H141C138.791 446 137 444.209 137 442V418Z" fill="white"/>
<path d="M141 416H373V412H141V416ZM375 418V442H379V418H375ZM373 444H141V448H373V444ZM139 442V418H135V442H139ZM141 444C139.895 444 139 443.105 139 442H135C135 445.314 137.686 448 141 448V444ZM375 442C375 443.105 374.105 444 373 444V448C376.314 448 379 445.314 379 442H375ZM373 416C374.105 416 375 416.895 375 418H379C379 414.686 376.314 412 373 412V416ZM141 412C137.686 412 135 414.686 135 418H139C139 416.895 139.895 416 141 416V412Z" fill="#BFBFBF"/>
<g clip-path="url(#clip2_6009_22931)">
<rect x="137" y="454" width="126" height="12" rx="6" fill="#BFBFBF"/>
<path d="M139.422 465.88V458.124H141.662C142.278 458.124 142.796 458.213 143.216 458.39C143.636 458.558 143.977 458.81 144.238 459.146C144.509 459.473 144.7 459.874 144.812 460.35C144.933 460.817 144.994 461.349 144.994 461.946C144.994 462.562 144.929 463.089 144.798 463.528C144.677 463.957 144.518 464.317 144.322 464.606C144.126 464.895 143.902 465.124 143.65 465.292C143.407 465.46 143.16 465.591 142.908 465.684C142.656 465.768 142.418 465.824 142.194 465.852C141.97 465.871 141.783 465.88 141.634 465.88H139.422ZM138.092 457.004V467H141.522C142.353 467 143.071 466.883 143.678 466.65C144.285 466.417 144.784 466.081 145.176 465.642C145.568 465.194 145.857 464.648 146.044 464.004C146.231 463.351 146.324 462.604 146.324 461.764C146.324 460.159 145.909 458.964 145.078 458.18C144.247 457.396 143.062 457.004 141.522 457.004H138.092ZM148.621 463.388C148.621 462.949 148.677 462.562 148.789 462.226C148.911 461.881 149.074 461.591 149.279 461.358C149.485 461.125 149.723 460.947 149.993 460.826C150.273 460.705 150.567 460.644 150.875 460.644C151.183 460.644 151.473 460.705 151.743 460.826C152.023 460.947 152.266 461.125 152.471 461.358C152.677 461.591 152.835 461.881 152.947 462.226C153.069 462.562 153.129 462.949 153.129 463.388C153.129 463.827 153.069 464.219 152.947 464.564C152.835 464.9 152.677 465.185 152.471 465.418C152.266 465.642 152.023 465.815 151.743 465.936C151.473 466.057 151.183 466.118 150.875 466.118C150.567 466.118 150.273 466.057 149.993 465.936C149.723 465.815 149.485 465.642 149.279 465.418C149.074 465.185 148.911 464.9 148.789 464.564C148.677 464.219 148.621 463.827 148.621 463.388ZM147.361 463.388C147.361 463.92 147.436 464.415 147.585 464.872C147.735 465.329 147.959 465.731 148.257 466.076C148.556 466.412 148.925 466.678 149.363 466.874C149.802 467.061 150.306 467.154 150.875 467.154C151.454 467.154 151.958 467.061 152.387 466.874C152.826 466.678 153.195 466.412 153.493 466.076C153.792 465.731 154.016 465.329 154.165 464.872C154.315 464.415 154.389 463.92 154.389 463.388C154.389 462.856 154.315 462.361 154.165 461.904C154.016 461.437 153.792 461.036 153.493 460.7C153.195 460.355 152.826 460.084 152.387 459.888C151.958 459.692 151.454 459.594 150.875 459.594C150.306 459.594 149.802 459.692 149.363 459.888C148.925 460.084 148.556 460.355 148.257 460.7C147.959 461.036 147.735 461.437 147.585 461.904C147.436 462.361 147.361 462.856 147.361 463.388ZM155.792 459.762V467H156.982V462.912C156.982 462.585 157.024 462.287 157.108 462.016C157.202 461.736 157.337 461.493 157.514 461.288C157.692 461.083 157.911 460.924 158.172 460.812C158.443 460.7 158.76 460.644 159.124 460.644C159.582 460.644 159.941 460.775 160.202 461.036C160.464 461.297 160.594 461.652 160.594 462.1V467H161.784V462.24C161.784 461.848 161.742 461.493 161.658 461.176C161.584 460.849 161.448 460.569 161.252 460.336C161.056 460.103 160.8 459.921 160.482 459.79C160.165 459.659 159.768 459.594 159.292 459.594C158.219 459.594 157.435 460.033 156.94 460.91H156.912V459.762H155.792ZM163.838 457.004V458.558H164.664C164.664 458.717 164.65 458.88 164.622 459.048C164.603 459.207 164.561 459.351 164.496 459.482C164.43 459.613 164.346 459.72 164.244 459.804C164.141 459.879 164.01 459.916 163.852 459.916V460.616C164.122 460.616 164.351 460.56 164.538 460.448C164.734 460.336 164.892 460.187 165.014 460C165.144 459.813 165.238 459.599 165.294 459.356C165.359 459.104 165.392 458.838 165.392 458.558V457.004H163.838ZM168.874 459.762V457.592H167.684V459.762H166.452V460.812H167.684V465.418C167.684 465.754 167.717 466.025 167.782 466.23C167.848 466.435 167.946 466.594 168.076 466.706C168.216 466.818 168.394 466.897 168.608 466.944C168.832 466.981 169.098 467 169.406 467H170.316V465.95H169.77C169.584 465.95 169.43 465.945 169.308 465.936C169.196 465.917 169.108 465.885 169.042 465.838C168.977 465.791 168.93 465.726 168.902 465.642C168.884 465.558 168.874 465.446 168.874 465.306V460.812H170.316V459.762H168.874ZM176.025 460.812V467H177.215V460.812H178.615V459.762H177.215V458.754C177.215 458.437 177.294 458.222 177.453 458.11C177.611 457.998 177.835 457.942 178.125 457.942C178.227 457.942 178.339 457.951 178.461 457.97C178.582 457.979 178.694 458.003 178.797 458.04V457.004C178.685 456.967 178.554 456.939 178.405 456.92C178.265 456.901 178.139 456.892 178.027 456.892C177.373 456.892 176.874 457.046 176.529 457.354C176.193 457.653 176.025 458.096 176.025 458.684V459.762H174.807V460.812H176.025ZM180.545 463.388C180.545 462.949 180.601 462.562 180.713 462.226C180.835 461.881 180.998 461.591 181.203 461.358C181.409 461.125 181.647 460.947 181.917 460.826C182.197 460.705 182.491 460.644 182.799 460.644C183.107 460.644 183.397 460.705 183.667 460.826C183.947 460.947 184.19 461.125 184.395 461.358C184.601 461.591 184.759 461.881 184.871 462.226C184.993 462.562 185.053 462.949 185.053 463.388C185.053 463.827 184.993 464.219 184.871 464.564C184.759 464.9 184.601 465.185 184.395 465.418C184.19 465.642 183.947 465.815 183.667 465.936C183.397 466.057 183.107 466.118 182.799 466.118C182.491 466.118 182.197 466.057 181.917 465.936C181.647 465.815 181.409 465.642 181.203 465.418C180.998 465.185 180.835 464.9 180.713 464.564C180.601 464.219 180.545 463.827 180.545 463.388ZM179.285 463.388C179.285 463.92 179.36 464.415 179.509 464.872C179.659 465.329 179.883 465.731 180.181 466.076C180.48 466.412 180.849 466.678 181.287 466.874C181.726 467.061 182.23 467.154 182.799 467.154C183.378 467.154 183.882 467.061 184.311 466.874C184.75 466.678 185.119 466.412 185.417 466.076C185.716 465.731 185.94 465.329 186.089 464.872C186.239 464.415 186.313 463.92 186.313 463.388C186.313 462.856 186.239 462.361 186.089 461.904C185.94 461.437 185.716 461.036 185.417 460.7C185.119 460.355 184.75 460.084 184.311 459.888C183.882 459.692 183.378 459.594 182.799 459.594C182.23 459.594 181.726 459.692 181.287 459.888C180.849 460.084 180.48 460.355 180.181 460.7C179.883 461.036 179.659 461.437 179.509 461.904C179.36 462.361 179.285 462.856 179.285 463.388ZM187.674 459.762V467H188.864V463.78C188.864 463.313 188.911 462.903 189.004 462.548C189.098 462.184 189.247 461.876 189.452 461.624C189.658 461.372 189.928 461.181 190.264 461.05C190.6 460.919 191.006 460.854 191.482 460.854V459.594C190.838 459.575 190.306 459.706 189.886 459.986C189.466 460.266 189.112 460.7 188.822 461.288H188.794V459.762H187.674ZM198.226 466.384V459.762H197.106V460.798H197.092C196.877 460.397 196.579 460.098 196.196 459.902C195.813 459.697 195.393 459.594 194.936 459.594C194.311 459.594 193.783 459.715 193.354 459.958C192.925 460.191 192.579 460.495 192.318 460.868C192.057 461.232 191.87 461.643 191.758 462.1C191.646 462.548 191.59 462.987 191.59 463.416C191.59 463.911 191.655 464.382 191.786 464.83C191.926 465.269 192.131 465.656 192.402 465.992C192.673 466.319 193.009 466.58 193.41 466.776C193.811 466.972 194.283 467.07 194.824 467.07C195.291 467.07 195.729 466.967 196.14 466.762C196.56 466.547 196.873 466.216 197.078 465.768H197.106V466.244C197.106 466.645 197.064 467.014 196.98 467.35C196.905 467.686 196.779 467.971 196.602 468.204C196.425 468.447 196.201 468.633 195.93 468.764C195.659 468.904 195.328 468.974 194.936 468.974C194.74 468.974 194.535 468.951 194.32 468.904C194.105 468.867 193.905 468.801 193.718 468.708C193.541 468.615 193.387 468.493 193.256 468.344C193.135 468.195 193.069 468.013 193.06 467.798H191.87C191.889 468.19 191.991 468.521 192.178 468.792C192.365 469.063 192.598 469.282 192.878 469.45C193.167 469.618 193.485 469.739 193.83 469.814C194.185 469.889 194.53 469.926 194.866 469.926C196.023 469.926 196.873 469.632 197.414 469.044C197.955 468.456 198.226 467.569 198.226 466.384ZM194.894 466.034C194.502 466.034 194.175 465.955 193.914 465.796C193.653 465.628 193.443 465.413 193.284 465.152C193.125 464.881 193.013 464.583 192.948 464.256C192.883 463.929 192.85 463.603 192.85 463.276C192.85 462.931 192.887 462.599 192.962 462.282C193.046 461.965 193.172 461.685 193.34 461.442C193.517 461.199 193.741 461.008 194.012 460.868C194.283 460.719 194.609 460.644 194.992 460.644C195.365 460.644 195.683 460.719 195.944 460.868C196.205 461.017 196.415 461.218 196.574 461.47C196.742 461.713 196.863 461.988 196.938 462.296C197.013 462.604 197.05 462.917 197.05 463.234C197.05 463.57 197.008 463.906 196.924 464.242C196.849 464.578 196.728 464.881 196.56 465.152C196.392 465.413 196.168 465.628 195.888 465.796C195.617 465.955 195.286 466.034 194.894 466.034ZM205.047 462.688H200.889C200.908 462.408 200.968 462.147 201.071 461.904C201.174 461.652 201.314 461.433 201.491 461.246C201.668 461.059 201.878 460.915 202.121 460.812C202.373 460.7 202.653 460.644 202.961 460.644C203.26 460.644 203.53 460.7 203.773 460.812C204.025 460.915 204.24 461.059 204.417 461.246C204.604 461.423 204.748 461.638 204.851 461.89C204.963 462.142 205.028 462.408 205.047 462.688ZM206.195 464.704H205.019C204.916 465.18 204.702 465.535 204.375 465.768C204.058 466.001 203.647 466.118 203.143 466.118C202.751 466.118 202.41 466.053 202.121 465.922C201.832 465.791 201.594 465.619 201.407 465.404C201.22 465.18 201.085 464.928 201.001 464.648C200.917 464.359 200.88 464.055 200.889 463.738H206.307C206.326 463.299 206.284 462.837 206.181 462.352C206.088 461.867 205.91 461.419 205.649 461.008C205.397 460.597 205.056 460.261 204.627 460C204.207 459.729 203.675 459.594 203.031 459.594C202.536 459.594 202.079 459.687 201.659 459.874C201.248 460.061 200.889 460.322 200.581 460.658C200.282 460.994 200.049 461.391 199.881 461.848C199.713 462.305 199.629 462.809 199.629 463.36C199.648 463.911 199.727 464.419 199.867 464.886C200.016 465.353 200.236 465.754 200.525 466.09C200.814 466.426 201.169 466.687 201.589 466.874C202.018 467.061 202.522 467.154 203.101 467.154C203.922 467.154 204.604 466.949 205.145 466.538C205.686 466.127 206.036 465.516 206.195 464.704ZM209.193 459.762V457.592H208.003V459.762H206.771V460.812H208.003V465.418C208.003 465.754 208.035 466.025 208.101 466.23C208.166 466.435 208.264 466.594 208.395 466.706C208.535 466.818 208.712 466.897 208.927 466.944C209.151 466.981 209.417 467 209.725 467H210.635V465.95H210.089C209.902 465.95 209.748 465.945 209.627 465.936C209.515 465.917 209.426 465.885 209.361 465.838C209.295 465.791 209.249 465.726 209.221 465.642C209.202 465.558 209.193 465.446 209.193 465.306V460.812H210.635V459.762H209.193ZM222.265 466.972C222.06 467.093 221.775 467.154 221.411 467.154C221.103 467.154 220.856 467.07 220.669 466.902C220.492 466.725 220.403 466.44 220.403 466.048C220.076 466.44 219.694 466.725 219.255 466.902C218.826 467.07 218.359 467.154 217.855 467.154C217.528 467.154 217.216 467.117 216.917 467.042C216.628 466.967 216.376 466.851 216.161 466.692C215.946 466.533 215.774 466.328 215.643 466.076C215.522 465.815 215.461 465.502 215.461 465.138C215.461 464.727 215.531 464.391 215.671 464.13C215.811 463.869 215.993 463.659 216.217 463.5C216.45 463.332 216.712 463.206 217.001 463.122C217.3 463.038 217.603 462.968 217.911 462.912C218.238 462.847 218.546 462.8 218.835 462.772C219.134 462.735 219.395 462.688 219.619 462.632C219.843 462.567 220.02 462.478 220.151 462.366C220.282 462.245 220.347 462.072 220.347 461.848C220.347 461.587 220.296 461.377 220.193 461.218C220.1 461.059 219.974 460.938 219.815 460.854C219.666 460.77 219.493 460.714 219.297 460.686C219.11 460.658 218.924 460.644 218.737 460.644C218.233 460.644 217.813 460.742 217.477 460.938C217.141 461.125 216.959 461.484 216.931 462.016H215.741C215.76 461.568 215.853 461.19 216.021 460.882C216.189 460.574 216.413 460.327 216.693 460.14C216.973 459.944 217.29 459.804 217.645 459.72C218.009 459.636 218.396 459.594 218.807 459.594C219.134 459.594 219.456 459.617 219.773 459.664C220.1 459.711 220.394 459.809 220.655 459.958C220.916 460.098 221.126 460.299 221.285 460.56C221.444 460.821 221.523 461.162 221.523 461.582V465.306C221.523 465.586 221.537 465.791 221.565 465.922C221.602 466.053 221.714 466.118 221.901 466.118C222.004 466.118 222.125 466.095 222.265 466.048V466.972ZM220.333 463.262C220.184 463.374 219.988 463.458 219.745 463.514C219.502 463.561 219.246 463.603 218.975 463.64C218.714 463.668 218.448 463.705 218.177 463.752C217.906 463.789 217.664 463.855 217.449 463.948C217.234 464.041 217.057 464.177 216.917 464.354C216.786 464.522 216.721 464.755 216.721 465.054C216.721 465.25 216.758 465.418 216.833 465.558C216.917 465.689 217.02 465.796 217.141 465.88C217.272 465.964 217.421 466.025 217.589 466.062C217.757 466.099 217.934 466.118 218.121 466.118C218.513 466.118 218.849 466.067 219.129 465.964C219.409 465.852 219.638 465.717 219.815 465.558C219.992 465.39 220.123 465.213 220.207 465.026C220.291 464.83 220.333 464.648 220.333 464.48V463.262ZM223.415 457.004V467H224.605V466.034H224.633C224.763 466.249 224.922 466.431 225.109 466.58C225.305 466.72 225.51 466.832 225.725 466.916C225.939 467 226.154 467.061 226.369 467.098C226.593 467.135 226.793 467.154 226.971 467.154C227.521 467.154 228.002 467.056 228.413 466.86C228.833 466.664 229.178 466.398 229.449 466.062C229.729 465.717 229.934 465.315 230.065 464.858C230.205 464.401 230.275 463.915 230.275 463.402C230.275 462.889 230.205 462.403 230.065 461.946C229.925 461.489 229.715 461.087 229.435 460.742C229.164 460.387 228.819 460.107 228.399 459.902C227.988 459.697 227.503 459.594 226.943 459.594C226.439 459.594 225.977 459.687 225.557 459.874C225.137 460.051 224.829 460.341 224.633 460.742H224.605V457.004H223.415ZM229.015 463.318C229.015 463.673 228.977 464.018 228.903 464.354C228.828 464.69 228.707 464.989 228.539 465.25C228.371 465.511 228.147 465.721 227.867 465.88C227.596 466.039 227.255 466.118 226.845 466.118C226.434 466.118 226.084 466.043 225.795 465.894C225.505 465.735 225.267 465.53 225.081 465.278C224.903 465.026 224.773 464.737 224.689 464.41C224.605 464.074 224.563 463.729 224.563 463.374C224.563 463.038 224.6 462.707 224.675 462.38C224.759 462.053 224.889 461.764 225.067 461.512C225.244 461.251 225.473 461.041 225.753 460.882C226.033 460.723 226.373 460.644 226.775 460.644C227.157 460.644 227.489 460.719 227.769 460.868C228.058 461.017 228.291 461.218 228.469 461.47C228.655 461.722 228.791 462.011 228.875 462.338C228.968 462.655 229.015 462.982 229.015 463.318ZM232.539 463.388C232.539 462.949 232.595 462.562 232.707 462.226C232.829 461.881 232.992 461.591 233.197 461.358C233.403 461.125 233.641 460.947 233.911 460.826C234.191 460.705 234.485 460.644 234.793 460.644C235.101 460.644 235.391 460.705 235.661 460.826C235.941 460.947 236.184 461.125 236.389 461.358C236.595 461.591 236.753 461.881 236.865 462.226C236.987 462.562 237.047 462.949 237.047 463.388C237.047 463.827 236.987 464.219 236.865 464.564C236.753 464.9 236.595 465.185 236.389 465.418C236.184 465.642 235.941 465.815 235.661 465.936C235.391 466.057 235.101 466.118 234.793 466.118C234.485 466.118 234.191 466.057 233.911 465.936C233.641 465.815 233.403 465.642 233.197 465.418C232.992 465.185 232.829 464.9 232.707 464.564C232.595 464.219 232.539 463.827 232.539 463.388ZM231.279 463.388C231.279 463.92 231.354 464.415 231.503 464.872C231.653 465.329 231.877 465.731 232.175 466.076C232.474 466.412 232.843 466.678 233.281 466.874C233.72 467.061 234.224 467.154 234.793 467.154C235.372 467.154 235.876 467.061 236.305 466.874C236.744 466.678 237.113 466.412 237.411 466.076C237.71 465.731 237.934 465.329 238.083 464.872C238.233 464.415 238.307 463.92 238.307 463.388C238.307 462.856 238.233 462.361 238.083 461.904C237.934 461.437 237.71 461.036 237.411 460.7C237.113 460.355 236.744 460.084 236.305 459.888C235.876 459.692 235.372 459.594 234.793 459.594C234.224 459.594 233.72 459.692 233.281 459.888C232.843 460.084 232.474 460.355 232.175 460.7C231.877 461.036 231.653 461.437 231.503 461.904C231.354 462.361 231.279 462.856 231.279 463.388ZM245.702 467V459.762H244.512V463.85C244.512 464.177 244.466 464.48 244.372 464.76C244.288 465.031 244.158 465.269 243.98 465.474C243.803 465.679 243.579 465.838 243.308 465.95C243.047 466.062 242.734 466.118 242.37 466.118C241.913 466.118 241.554 465.987 241.292 465.726C241.031 465.465 240.9 465.11 240.9 464.662V459.762H239.71V464.522C239.71 464.914 239.748 465.273 239.822 465.6C239.906 465.917 240.046 466.193 240.242 466.426C240.438 466.659 240.695 466.841 241.012 466.972C241.33 467.093 241.726 467.154 242.202 467.154C242.734 467.154 243.196 467.051 243.588 466.846C243.98 466.631 244.302 466.3 244.554 465.852H244.582V467H245.702ZM249.142 459.762V457.592H247.952V459.762H246.72V460.812H247.952V465.418C247.952 465.754 247.984 466.025 248.05 466.23C248.115 466.435 248.213 466.594 248.344 466.706C248.484 466.818 248.661 466.897 248.876 466.944C249.1 466.981 249.366 467 249.674 467H250.584V465.95H250.038C249.851 465.95 249.697 465.945 249.576 465.936C249.464 465.917 249.375 465.885 249.31 465.838C249.244 465.791 249.198 465.726 249.17 465.642C249.151 465.558 249.142 465.446 249.142 465.306V460.812H250.584V459.762H249.142ZM257.062 458.46V457.004H255.872V458.46H257.062ZM255.872 459.762V467H257.062V459.762H255.872ZM260.558 459.762V457.592H259.368V459.762H258.136V460.812H259.368V465.418C259.368 465.754 259.4 466.025 259.466 466.23C259.531 466.435 259.629 466.594 259.76 466.706C259.9 466.818 260.077 466.897 260.292 466.944C260.516 466.981 260.782 467 261.09 467H262V465.95H261.454C261.267 465.95 261.113 465.945 260.992 465.936C260.88 465.917 260.791 465.885 260.726 465.838C260.66 465.791 260.614 465.726 260.586 465.642C260.567 465.558 260.558 465.446 260.558 465.306V460.812H262V459.762H260.558Z" fill="#BFBFBF"/>
</g>
<path d="M228 494C228 491.791 229.791 490 232 490H293C295.209 490 297 491.791 297 494V518C297 520.209 295.209 522 293 522H232C229.791 522 228 520.209 228 518V494Z" fill="white"/>
<path d="M242.422 509.88V502.124H244.662C245.278 502.124 245.796 502.213 246.216 502.39C246.636 502.558 246.977 502.81 247.238 503.146C247.509 503.473 247.7 503.874 247.812 504.35C247.933 504.817 247.994 505.349 247.994 505.946C247.994 506.562 247.929 507.089 247.798 507.528C247.677 507.957 247.518 508.317 247.322 508.606C247.126 508.895 246.902 509.124 246.65 509.292C246.407 509.46 246.16 509.591 245.908 509.684C245.656 509.768 245.418 509.824 245.194 509.852C244.97 509.871 244.783 509.88 244.634 509.88H242.422ZM241.092 501.004V511H244.522C245.353 511 246.071 510.883 246.678 510.65C247.285 510.417 247.784 510.081 248.176 509.642C248.568 509.194 248.857 508.648 249.044 508.004C249.231 507.351 249.324 506.604 249.324 505.764C249.324 504.159 248.909 502.964 248.078 502.18C247.247 501.396 246.062 501.004 244.522 501.004H241.092ZM255.779 506.688H251.621C251.64 506.408 251.701 506.147 251.803 505.904C251.906 505.652 252.046 505.433 252.223 505.246C252.401 505.059 252.611 504.915 252.853 504.812C253.105 504.7 253.385 504.644 253.693 504.644C253.992 504.644 254.263 504.7 254.505 504.812C254.757 504.915 254.972 505.059 255.149 505.246C255.336 505.423 255.481 505.638 255.583 505.89C255.695 506.142 255.761 506.408 255.779 506.688ZM256.927 508.704H255.751C255.649 509.18 255.434 509.535 255.107 509.768C254.79 510.001 254.379 510.118 253.875 510.118C253.483 510.118 253.143 510.053 252.853 509.922C252.564 509.791 252.326 509.619 252.139 509.404C251.953 509.18 251.817 508.928 251.733 508.648C251.649 508.359 251.612 508.055 251.621 507.738H257.039C257.058 507.299 257.016 506.837 256.913 506.352C256.82 505.867 256.643 505.419 256.381 505.008C256.129 504.597 255.789 504.261 255.359 504C254.939 503.729 254.407 503.594 253.763 503.594C253.269 503.594 252.811 503.687 252.391 503.874C251.981 504.061 251.621 504.322 251.313 504.658C251.015 504.994 250.781 505.391 250.613 505.848C250.445 506.305 250.361 506.809 250.361 507.36C250.38 507.911 250.459 508.419 250.599 508.886C250.749 509.353 250.968 509.754 251.257 510.09C251.547 510.426 251.901 510.687 252.321 510.874C252.751 511.061 253.255 511.154 253.833 511.154C254.655 511.154 255.336 510.949 255.877 510.538C256.419 510.127 256.769 509.516 256.927 508.704ZM258.763 504.812V511H259.953V504.812H261.353V503.762H259.953V502.754C259.953 502.437 260.032 502.222 260.191 502.11C260.35 501.998 260.574 501.942 260.863 501.942C260.966 501.942 261.078 501.951 261.199 501.97C261.32 501.979 261.432 502.003 261.535 502.04V501.004C261.423 500.967 261.292 500.939 261.143 500.92C261.003 500.901 260.877 500.892 260.765 500.892C260.112 500.892 259.612 501.046 259.267 501.354C258.931 501.653 258.763 502.096 258.763 502.684V503.762H257.545V504.812H258.763ZM268.828 510.972C268.622 511.093 268.338 511.154 267.974 511.154C267.666 511.154 267.418 511.07 267.232 510.902C267.054 510.725 266.966 510.44 266.966 510.048C266.639 510.44 266.256 510.725 265.818 510.902C265.388 511.07 264.922 511.154 264.418 511.154C264.091 511.154 263.778 511.117 263.48 511.042C263.19 510.967 262.938 510.851 262.724 510.692C262.509 510.533 262.336 510.328 262.206 510.076C262.084 509.815 262.024 509.502 262.024 509.138C262.024 508.727 262.094 508.391 262.234 508.13C262.374 507.869 262.556 507.659 262.78 507.5C263.013 507.332 263.274 507.206 263.564 507.122C263.862 507.038 264.166 506.968 264.474 506.912C264.8 506.847 265.108 506.8 265.398 506.772C265.696 506.735 265.958 506.688 266.182 506.632C266.406 506.567 266.583 506.478 266.714 506.366C266.844 506.245 266.91 506.072 266.91 505.848C266.91 505.587 266.858 505.377 266.756 505.218C266.662 505.059 266.536 504.938 266.378 504.854C266.228 504.77 266.056 504.714 265.86 504.686C265.673 504.658 265.486 504.644 265.3 504.644C264.796 504.644 264.376 504.742 264.04 504.938C263.704 505.125 263.522 505.484 263.494 506.016H262.304C262.322 505.568 262.416 505.19 262.584 504.882C262.752 504.574 262.976 504.327 263.256 504.14C263.536 503.944 263.853 503.804 264.208 503.72C264.572 503.636 264.959 503.594 265.37 503.594C265.696 503.594 266.018 503.617 266.336 503.664C266.662 503.711 266.956 503.809 267.218 503.958C267.479 504.098 267.689 504.299 267.848 504.56C268.006 504.821 268.086 505.162 268.086 505.582V509.306C268.086 509.586 268.1 509.791 268.128 509.922C268.165 510.053 268.277 510.118 268.464 510.118C268.566 510.118 268.688 510.095 268.828 510.048V510.972ZM266.896 507.262C266.746 507.374 266.55 507.458 266.308 507.514C266.065 507.561 265.808 507.603 265.538 507.64C265.276 507.668 265.01 507.705 264.74 507.752C264.469 507.789 264.226 507.855 264.012 507.948C263.797 508.041 263.62 508.177 263.48 508.354C263.349 508.522 263.284 508.755 263.284 509.054C263.284 509.25 263.321 509.418 263.396 509.558C263.48 509.689 263.582 509.796 263.704 509.88C263.834 509.964 263.984 510.025 264.152 510.062C264.32 510.099 264.497 510.118 264.684 510.118C265.076 510.118 265.412 510.067 265.692 509.964C265.972 509.852 266.2 509.717 266.378 509.558C266.555 509.39 266.686 509.213 266.77 509.026C266.854 508.83 266.896 508.648 266.896 508.48V507.262ZM275.927 511V503.762H274.737V507.85C274.737 508.177 274.69 508.48 274.597 508.76C274.513 509.031 274.382 509.269 274.205 509.474C274.028 509.679 273.804 509.838 273.533 509.95C273.272 510.062 272.959 510.118 272.595 510.118C272.138 510.118 271.778 509.987 271.517 509.726C271.256 509.465 271.125 509.11 271.125 508.662V503.762H269.935V508.522C269.935 508.914 269.972 509.273 270.047 509.6C270.131 509.917 270.271 510.193 270.467 510.426C270.663 510.659 270.92 510.841 271.237 510.972C271.554 511.093 271.951 511.154 272.427 511.154C272.959 511.154 273.421 511.051 273.813 510.846C274.205 510.631 274.527 510.3 274.779 509.852H274.807V511H275.927ZM277.784 501.004V511H278.974V501.004H277.784ZM282.47 503.762V501.592H281.28V503.762H280.048V504.812H281.28V509.418C281.28 509.754 281.313 510.025 281.378 510.23C281.443 510.435 281.541 510.594 281.672 510.706C281.812 510.818 281.989 510.897 282.204 510.944C282.428 510.981 282.694 511 283.002 511H283.912V509.95H283.366C283.179 509.95 283.025 509.945 282.904 509.936C282.792 509.917 282.703 509.885 282.638 509.838C282.573 509.791 282.526 509.726 282.498 509.642C282.479 509.558 282.47 509.446 282.47 509.306V504.812H283.912V503.762H282.47Z" fill="white"/>
<path d="M232 492H293V488H232V492ZM295 494V518H299V494H295ZM293 520H232V524H293V520ZM230 518V494H226V518H230ZM232 520C230.895 520 230 519.105 230 518H226C226 521.314 228.686 524 232 524V520ZM295 518C295 519.105 294.105 520 293 520V524C296.314 524 299 521.314 299 518H295ZM293 492C294.105 492 295 492.895 295 494H299C299 490.686 296.314 488 293 488V492ZM232 488C228.686 488 226 490.686 226 494H230C230 492.895 230.895 492 232 492V488Z" fill="#BFBFBF"/>
<path d="M305 494C305 491.791 306.791 490 309 490H373C375.209 490 377 491.791 377 494V518C377 520.209 375.209 522 373 522H309C306.791 522 305 520.209 305 518V494Z" fill="#1F75CB"/>
<path d="M319.422 505.792V502.124H322.026C322.782 502.124 323.333 502.283 323.678 502.6C324.033 502.908 324.21 503.361 324.21 503.958C324.21 504.555 324.033 505.013 323.678 505.33C323.333 505.647 322.782 505.801 322.026 505.792H319.422ZM318.092 501.004V511H319.422V506.912H322.474C323.482 506.921 324.243 506.665 324.756 506.142C325.279 505.619 325.54 504.891 325.54 503.958C325.54 503.025 325.279 502.301 324.756 501.788C324.243 501.265 323.482 501.004 322.474 501.004H318.092ZM326.932 503.762V511H328.122V507.78C328.122 507.313 328.169 506.903 328.262 506.548C328.355 506.184 328.505 505.876 328.71 505.624C328.915 505.372 329.186 505.181 329.522 505.05C329.858 504.919 330.264 504.854 330.74 504.854V503.594C330.096 503.575 329.564 503.706 329.144 503.986C328.724 504.266 328.369 504.7 328.08 505.288H328.052V503.762H326.932ZM332.896 502.46V501.004H331.706V502.46H332.896ZM331.706 503.762V511H332.896V503.762H331.706ZM334.74 503.762V511H335.93V506.492C335.93 506.352 335.962 506.179 336.028 505.974C336.102 505.759 336.214 505.554 336.364 505.358C336.522 505.162 336.723 504.994 336.966 504.854C337.218 504.714 337.516 504.644 337.862 504.644C338.132 504.644 338.352 504.686 338.52 504.77C338.697 504.845 338.837 504.957 338.94 505.106C339.042 505.246 339.112 505.414 339.15 505.61C339.196 505.806 339.22 506.021 339.22 506.254V511H340.41V506.492C340.41 505.932 340.578 505.484 340.914 505.148C341.25 504.812 341.712 504.644 342.3 504.644C342.589 504.644 342.822 504.686 343 504.77C343.186 504.854 343.331 504.971 343.434 505.12C343.536 505.26 343.606 505.428 343.644 505.624C343.681 505.82 343.7 506.03 343.7 506.254V511H344.89V505.694C344.89 505.321 344.829 505.003 344.708 504.742C344.596 504.471 344.432 504.252 344.218 504.084C344.012 503.916 343.76 503.795 343.462 503.72C343.172 503.636 342.846 503.594 342.482 503.594C342.006 503.594 341.567 503.701 341.166 503.916C340.774 504.131 340.456 504.434 340.214 504.826C340.064 504.378 339.808 504.061 339.444 503.874C339.08 503.687 338.674 503.594 338.226 503.594C337.208 503.594 336.429 504.005 335.888 504.826H335.86V503.762H334.74ZM353.087 510.972C352.882 511.093 352.597 511.154 352.233 511.154C351.925 511.154 351.678 511.07 351.491 510.902C351.314 510.725 351.225 510.44 351.225 510.048C350.899 510.44 350.516 510.725 350.077 510.902C349.648 511.07 349.181 511.154 348.677 511.154C348.351 511.154 348.038 511.117 347.739 511.042C347.45 510.967 347.198 510.851 346.983 510.692C346.769 510.533 346.596 510.328 346.465 510.076C346.344 509.815 346.283 509.502 346.283 509.138C346.283 508.727 346.353 508.391 346.493 508.13C346.633 507.869 346.815 507.659 347.039 507.5C347.273 507.332 347.534 507.206 347.823 507.122C348.122 507.038 348.425 506.968 348.733 506.912C349.06 506.847 349.368 506.8 349.657 506.772C349.956 506.735 350.217 506.688 350.441 506.632C350.665 506.567 350.843 506.478 350.973 506.366C351.104 506.245 351.169 506.072 351.169 505.848C351.169 505.587 351.118 505.377 351.015 505.218C350.922 505.059 350.796 504.938 350.637 504.854C350.488 504.77 350.315 504.714 350.119 504.686C349.933 504.658 349.746 504.644 349.559 504.644C349.055 504.644 348.635 504.742 348.299 504.938C347.963 505.125 347.781 505.484 347.753 506.016H346.563C346.582 505.568 346.675 505.19 346.843 504.882C347.011 504.574 347.235 504.327 347.515 504.14C347.795 503.944 348.113 503.804 348.467 503.72C348.831 503.636 349.219 503.594 349.629 503.594C349.956 503.594 350.278 503.617 350.595 503.664C350.922 503.711 351.216 503.809 351.477 503.958C351.739 504.098 351.949 504.299 352.107 504.56C352.266 504.821 352.345 505.162 352.345 505.582V509.306C352.345 509.586 352.359 509.791 352.387 509.922C352.425 510.053 352.537 510.118 352.723 510.118C352.826 510.118 352.947 510.095 353.087 510.048V510.972ZM351.155 507.262C351.006 507.374 350.81 507.458 350.567 507.514C350.325 507.561 350.068 507.603 349.797 507.64C349.536 507.668 349.27 507.705 348.999 507.752C348.729 507.789 348.486 507.855 348.271 507.948C348.057 508.041 347.879 508.177 347.739 508.354C347.609 508.522 347.543 508.755 347.543 509.054C347.543 509.25 347.581 509.418 347.655 509.558C347.739 509.689 347.842 509.796 347.963 509.88C348.094 509.964 348.243 510.025 348.411 510.062C348.579 510.099 348.757 510.118 348.943 510.118C349.335 510.118 349.671 510.067 349.951 509.964C350.231 509.852 350.46 509.717 350.637 509.558C350.815 509.39 350.945 509.213 351.029 509.026C351.113 508.83 351.155 508.648 351.155 508.48V507.262ZM354.153 503.762V511H355.343V507.78C355.343 507.313 355.389 506.903 355.483 506.548C355.576 506.184 355.725 505.876 355.931 505.624C356.136 505.372 356.407 505.181 356.743 505.05C357.079 504.919 357.485 504.854 357.961 504.854V503.594C357.317 503.575 356.785 503.706 356.365 503.986C355.945 504.266 355.59 504.7 355.301 505.288H355.273V503.762H354.153ZM361.699 511.966C361.559 512.321 361.419 512.619 361.279 512.862C361.148 513.105 360.999 513.301 360.831 513.45C360.672 513.609 360.49 513.721 360.285 513.786C360.089 513.861 359.86 513.898 359.599 513.898C359.459 513.898 359.319 513.889 359.179 513.87C359.039 513.851 358.904 513.819 358.773 513.772V512.68C358.876 512.727 358.992 512.764 359.123 512.792C359.263 512.829 359.38 512.848 359.473 512.848C359.716 512.848 359.916 512.787 360.075 512.666C360.243 512.554 360.369 512.391 360.453 512.176L360.943 510.958L358.073 503.762H359.417L361.531 509.684H361.559L363.589 503.762H364.849L361.699 511.966Z" fill="#1F75CB"/>
<path d="M309 492H373V488H309V492ZM375 494V518H379V494H375ZM373 520H309V524H373V520ZM307 518V494H303V518H307ZM309 520C307.895 520 307 519.105 307 518H303C303 521.314 305.686 524 309 524V520ZM375 518C375 519.105 374.105 520 373 520V524C376.314 524 379 521.314 379 518H375ZM373 492C374.105 492 375 492.895 375 494H379C379 490.686 376.314 488 373 488V492ZM309 488C305.686 488 303 490.686 303 494H307C307 492.895 307.895 492 309 492V488Z" fill="#1068BF"/>
<line x1="44" y1="28" x2="128" y2="28" stroke="#7B58CF" stroke-width="2" stroke-linecap="round"/>
<circle cx="28" cy="28" r="16" fill="#7B58CF"/>
<circle cx="28" cy="28" r="18" stroke="#7B58CF" stroke-opacity="0.3" stroke-width="4"/>
<path d="M24.9502 32.5146H27.71V22.6006L24.4053 24.1914V22.4863L27.6924 20.9219H29.4678V32.5146H32.1924V34H24.9502V32.5146Z" fill="white"/>
<line x1="75" y1="63" x2="128" y2="63" stroke="#7B58CF" stroke-width="2" stroke-linecap="round"/>
<line x1="22" y1="108" x2="75" y2="108" stroke="#7B58CF" stroke-width="2" stroke-linecap="round"/>
<line x1="75" y1="153" x2="128" y2="153" stroke="#7B58CF" stroke-width="2" stroke-linecap="round"/>
<line x1="75" y1="153" x2="75" y2="63" stroke="#7B58CF" stroke-width="2" stroke-linecap="round"/>
<circle cx="28" cy="108" r="16" fill="#7B58CF"/>
<circle cx="28" cy="108" r="18" stroke="#7B58CF" stroke-opacity="0.3" stroke-width="4"/>
<path d="M25.8555 112.506H31.8848V114H23.9131V112.506C25.0088 111.352 25.9668 110.332 26.7871 109.447C27.6074 108.562 28.1729 107.938 28.4834 107.575C29.0693 106.86 29.4648 106.283 29.6699 105.844C29.875 105.398 29.9775 104.944 29.9775 104.481C29.9775 103.749 29.7607 103.175 29.3271 102.759C28.8994 102.343 28.3105 102.135 27.5605 102.135C27.0273 102.135 26.4678 102.231 25.8818 102.425C25.2959 102.618 24.6748 102.911 24.0186 103.304V101.511C24.6221 101.224 25.2139 101.007 25.7939 100.86C26.3799 100.714 26.957 100.641 27.5254 100.641C28.8086 100.641 29.8398 100.983 30.6191 101.669C31.4043 102.349 31.7969 103.242 31.7969 104.35C31.7969 104.912 31.665 105.475 31.4014 106.037C31.1436 106.6 30.7217 107.221 30.1357 107.9C29.8076 108.281 29.3301 108.809 28.7031 109.482C28.082 110.156 27.1328 111.164 25.8555 112.506Z" fill="white"/>
<line x1="44" y1="242" x2="128" y2="242" stroke="#7B58CF" stroke-width="2" stroke-linecap="round"/>
<circle cx="28" cy="242" r="16" fill="#7B58CF"/>
<circle cx="28" cy="242" r="18" stroke="#7B58CF" stroke-opacity="0.3" stroke-width="4"/>
<path d="M29.3975 240.978C30.2588 241.206 30.918 241.613 31.375 242.199C31.832 242.779 32.0605 243.506 32.0605 244.379C32.0605 245.586 31.6533 246.535 30.8389 247.227C30.0303 247.912 28.9082 248.255 27.4727 248.255C26.8691 248.255 26.2539 248.199 25.627 248.088C25 247.977 24.3848 247.815 23.7812 247.604V245.838C24.3789 246.148 24.9678 246.38 25.5479 246.532C26.1279 246.685 26.7051 246.761 27.2793 246.761C28.252 246.761 28.999 246.541 29.5205 246.102C30.042 245.662 30.3027 245.029 30.3027 244.203C30.3027 243.441 30.042 242.838 29.5205 242.393C28.999 241.941 28.293 241.716 27.4023 241.716H26.0488V240.257H27.4023C28.2168 240.257 28.8525 240.078 29.3096 239.721C29.7666 239.363 29.9951 238.865 29.9951 238.227C29.9951 237.553 29.7812 237.037 29.3535 236.68C28.9316 236.316 28.3281 236.135 27.543 236.135C27.0215 236.135 26.4824 236.193 25.9258 236.311C25.3691 236.428 24.7861 236.604 24.1768 236.838V235.203C24.8857 235.016 25.5156 234.875 26.0664 234.781C26.623 234.688 27.1152 234.641 27.543 234.641C28.8203 234.641 29.8398 234.963 30.6016 235.607C31.3691 236.246 31.7529 237.096 31.7529 238.156C31.7529 238.877 31.5508 239.478 31.1465 239.958C30.748 240.438 30.165 240.778 29.3975 240.978Z" fill="white"/>
<line x1="44" y1="304" x2="128" y2="304" stroke="#7B58CF" stroke-width="2" stroke-linecap="round"/>
<circle cx="28" cy="304" r="16" fill="#7B58CF"/>
<circle cx="28" cy="304" r="18" stroke="#7B58CF" stroke-opacity="0.3" stroke-width="4"/>
<path d="M29.0371 298.495L24.8975 305.43H29.0371V298.495ZM28.7471 296.878H30.8037V305.43H32.5527V306.871H30.8037V310H29.0371V306.871H23.4736V305.192L28.7471 296.878Z" fill="white"/>
<line x1="44" y1="364" x2="128" y2="364" stroke="#7B58CF" stroke-width="2" stroke-linecap="round"/>
<circle cx="28" cy="364" r="16" fill="#7B58CF"/>
<circle cx="28" cy="364" r="18" stroke="#7B58CF" stroke-opacity="0.3" stroke-width="4"/>
<path d="M24.3965 356.878H31.041V358.372H26.0137V361.598C26.2656 361.504 26.5176 361.437 26.7695 361.396C27.0273 361.349 27.2852 361.325 27.543 361.325C28.9023 361.325 29.9805 361.727 30.7773 362.529C31.5742 363.332 31.9727 364.419 31.9727 365.79C31.9727 367.173 31.5537 368.263 30.7158 369.06C29.8838 369.856 28.7441 370.255 27.2969 370.255C26.5996 370.255 25.9609 370.208 25.3809 370.114C24.8066 370.021 24.291 369.88 23.834 369.692V367.891C24.373 368.184 24.915 368.403 25.46 368.55C26.0049 368.69 26.5615 368.761 27.1299 368.761C28.1084 368.761 28.8613 368.503 29.3887 367.987C29.9219 367.472 30.1885 366.739 30.1885 365.79C30.1885 364.853 29.9131 364.123 29.3623 363.602C28.8174 363.08 28.0557 362.819 27.0771 362.819C26.6025 362.819 26.1396 362.875 25.6885 362.986C25.2373 363.092 24.8066 363.253 24.3965 363.47V356.878Z" fill="white"/>
<line x1="44" y1="460" x2="128" y2="460" stroke="#7B58CF" stroke-width="2" stroke-linecap="round"/>
<circle cx="28" cy="460" r="16" fill="#7B58CF"/>
<circle cx="28" cy="460" r="18" stroke="#7B58CF" stroke-opacity="0.3" stroke-width="4"/>
<path d="M31.2871 453.168V454.803C30.918 454.586 30.5254 454.422 30.1094 454.311C29.6934 454.193 29.2598 454.135 28.8086 454.135C27.6836 454.135 26.8311 454.56 26.251 455.409C25.6709 456.253 25.3809 457.498 25.3809 459.145C25.6621 458.559 26.0518 458.11 26.5498 457.8C27.0479 457.483 27.6191 457.325 28.2637 457.325C29.5293 457.325 30.5078 457.715 31.1992 458.494C31.8965 459.268 32.2451 460.366 32.2451 461.79C32.2451 463.208 31.8877 464.307 31.1729 465.086C30.458 465.865 29.4531 466.255 28.1582 466.255C26.6348 466.255 25.5186 465.71 24.8096 464.62C24.1006 463.524 23.7461 461.802 23.7461 459.452C23.7461 457.237 24.1709 455.55 25.0205 454.39C25.876 453.224 27.1123 452.641 28.7295 452.641C29.1631 452.641 29.5967 452.688 30.0303 452.781C30.4639 452.869 30.8828 452.998 31.2871 453.168ZM28.123 458.714C27.3672 458.714 26.7725 458.986 26.3389 459.531C25.9053 460.076 25.6885 460.829 25.6885 461.79C25.6885 462.751 25.9053 463.504 26.3389 464.049C26.7725 464.594 27.3672 464.866 28.123 464.866C28.9082 464.866 29.5 464.608 29.8984 464.093C30.2969 463.571 30.4961 462.804 30.4961 461.79C30.4961 460.771 30.2969 460.003 29.8984 459.487C29.5 458.972 28.9082 458.714 28.123 458.714Z" fill="white"/>
<line x1="44" y1="506" x2="219" y2="506" stroke="#7B58CF" stroke-width="2" stroke-linecap="round"/>
<circle cx="28" cy="506" r="16" fill="#7B58CF"/>
<circle cx="28" cy="506" r="18" stroke="#7B58CF" stroke-opacity="0.3" stroke-width="4"/>
<path d="M23.7988 498.878H32.0605V499.634L27.3672 512H25.5127L30.083 500.372H23.7988V498.878Z" fill="white"/>
<rect x="151" y="236" width="115" height="12" rx="6" fill="#BFBFBF"/>
<path fill-rule="evenodd" clip-rule="evenodd" d="M354.689 238.689C354.104 239.275 354.104 240.225 354.689 240.811L359.941 246.062C360.527 246.648 361.477 246.648 362.062 246.062L367.314 240.811C367.9 240.225 367.9 239.275 367.314 238.689C366.729 238.104 365.779 238.104 365.193 238.689L361.002 242.881L356.811 238.689C356.225 238.104 355.275 238.104 354.689 238.689Z" fill="#999999"/>
<defs>
<clipPath id="clip0_6009_22931">
<rect x="137" y="98" width="100" height="12" rx="6" fill="white"/>
</clipPath>
<clipPath id="clip1_6009_22931">
<rect x="137" y="358" width="100" height="12" rx="6" fill="white"/>
</clipPath>
<clipPath id="clip2_6009_22931">
<rect x="137" y="454" width="126" height="12" rx="6" fill="white"/>
</clipPath>
</defs>
</svg>
