<svg width="369" height="486" fill="none" xmlns="http://www.w3.org/2000/svg"><g clip-path="url(#form-structure__a)"><path fill="#fff" d="M0 0h369v486H0z"/><rect x="129" y="16" width="73" height="8" rx="2" fill="#535158"/><rect x="129.5" y="32.5" width="239" height="31" rx="3.5" fill="#fff"/><rect x="129.5" y="32.5" width="239" height="31" rx="3.5" stroke="#BFBFC3"/><rect x="129" y="88" width="100" height="8" rx="2" fill="#535158"/><rect x="129.75" y="104.75" width="14.5" height="14.5" rx="3.25" fill="#fff"/><rect x="129.75" y="104.75" width="14.5" height="14.5" rx="3.25" stroke="#89888D" stroke-width="1.5"/><rect x="153" y="108" width="135" height="8" rx="2" fill="#89888D"/><rect x="129" y="128" width="16" height="16" rx="4" fill="#1F75CB"/><path d="m134 136.053 1.991 1.947 4.009-4" stroke="#fff" stroke-width="2"/><rect x="153" y="132" width="196" height="8" rx="2" fill="#89888D"/><rect x="129.75" y="152.75" width="14.5" height="14.5" rx="3.25" fill="#fff"/><rect x="129.75" y="152.75" width="14.5" height="14.5" rx="3.25" stroke="#89888D" stroke-width="1.5"/><rect x="153" y="156" width="25" height="8" rx="2" fill="#89888D"/><rect x="129" y="192" width="73" height="8" rx="2" fill="#535158"/><rect x="129.5" y="208.5" width="239" height="31" rx="3.5" fill="#fff"/><rect x="129.5" y="208.5" width="239" height="31" rx="3.5" stroke="#BFBFC3"/><path fill-rule="evenodd" clip-rule="evenodd" d="M352.293 226.707a.999.999 0 0 0 1.414 0l3-3a.999.999 0 1 0-1.414-1.414L353 224.586l-2.293-2.293a.999.999 0 1 0-1.414 1.414l3 3Z" fill="#737278"/><rect x="139" y="220" width="129" height="8" rx="2" fill="#BFBFC3"/><rect x="129" y="264" width="95" height="8" rx="2" fill="#535158"/><rect x="129" y="276" width="220" height="8" rx="2" fill="#BFBFC3"/><rect x="129.5" y="292.5" width="239" height="31" rx="3.5" fill="#fff"/><rect x="129.5" y="292.5" width="239" height="31" rx="3.5" stroke="#BFBFC3"/><rect x="129" y="332" width="100" height="8" rx="2" fill="#F57F6C"/><rect x="129" y="364" width="89" height="8" rx="2" fill="#535158"/><rect x="129.5" y="380.5" width="239" height="31" rx="3.5" fill="#fff"/><rect x="129.5" y="380.5" width="239" height="31" rx="3.5" stroke="#BFBFC3"/><rect x="129" y="420" width="126" height="8" rx="2" fill="#BFBFC3"/><rect x="218" y="453" width="70" height="30" rx="2" fill="#fff"/><rect x="218" y="453" width="70" height="30" rx="2" stroke="#A4A3A8" stroke-width="2"/><rect x="297" y="452" width="72" height="32" rx="3" fill="#1F75CB"/><path stroke="#7B58CF" stroke-width="2" stroke-linecap="round" d="M25 467h191"/><circle cx="20" cy="466" r="16" fill="#7B58CF"/><circle cx="20" cy="466" r="18" stroke="#7B58CF" stroke-opacity=".3" stroke-width="4"/><path d="m18.023 472 4.68-11.664H17.7v2.124h-1.62v-3.6h8.352v1.512L19.788 472h-1.765Z" fill="#fff"/><path stroke="#7B58CF" stroke-width="2" stroke-linecap="round" d="M25 424h103"/><circle cx="20" cy="424" r="16" fill="#7B58CF"/><circle cx="20" cy="424" r="18" stroke="#7B58CF" stroke-opacity=".3" stroke-width="4"/><path d="M20.021 430.18c-.84 0-1.584-.174-2.232-.522a3.922 3.922 0 0 1-1.494-1.476c-.36-.636-.54-1.368-.54-2.196 0-.576.108-1.164.324-1.764.216-.612.51-1.248.883-1.908l3.041-5.454h1.8l-3.24 5.634.055.036c.155-.204.39-.36.702-.468a3.118 3.118 0 0 1 1.026-.162c.78 0 1.457.174 2.034.522a3.501 3.501 0 0 1 1.367 1.404c.337.6.505 1.296.505 2.088 0 .84-.18 1.584-.54 2.232a3.885 3.885 0 0 1-1.494 1.494c-.625.36-1.357.54-2.197.54Zm-.018-1.44c.529 0 .985-.114 1.369-.342.395-.24.701-.57.918-.99.227-.42.341-.906.341-1.458 0-.552-.114-1.038-.341-1.458a2.317 2.317 0 0 0-.918-.972c-.384-.24-.84-.36-1.369-.36-.515 0-.971.12-1.367.36a2.435 2.435 0 0 0-.936.972c-.216.42-.325.906-.325 1.458 0 .552.108 1.038.325 1.458.227.42.54.75.936.99.396.228.852.342 1.367.342Z" fill="#fff"/><path stroke="#7B58CF" stroke-width="2" stroke-linecap="round" d="M25 336h103"/><circle cx="20" cy="336" r="16" fill="#7B58CF"/><circle cx="20" cy="336" r="18" stroke="#7B58CF" stroke-opacity=".3" stroke-width="4"/><path d="M19.895 342.18c-1.212 0-2.171-.336-2.88-1.008-.707-.684-1.062-1.608-1.062-2.772h1.62c0 .72.21 1.29.63 1.71.42.42.99.63 1.71.63s1.29-.21 1.71-.63c.42-.42.63-.99.63-1.71v-.81c0-.72-.204-1.29-.611-1.71-.409-.42-.96-.63-1.657-.63h-3.581v-6.39h7.002v1.476h-5.49l.035 3.438h2.125c1.212 0 2.148.336 2.808 1.008.66.66.99 1.596.99 2.808v.81c0 1.164-.36 2.088-1.08 2.772-.709.672-1.675 1.008-2.899 1.008Z" fill="#fff"/><path stroke="#7B58CF" stroke-width="2" stroke-linecap="round" d="M25 280h103"/><circle cx="20" cy="280" r="16" fill="#7B58CF"/><circle cx="20" cy="280" r="18" stroke="#7B58CF" stroke-opacity=".3" stroke-width="4"/><path d="M21.803 286v-2.88h-5.94v-2.538l4.788-7.722h1.837l-5.005 8.082v.702h4.32v-3.204h1.62V286h-1.62Z" fill="#fff"/><path stroke="#7B58CF" stroke-width="2" stroke-linecap="round" d="M35 224h103"/><circle cx="20" cy="224" r="16" fill="#7B58CF"/><circle cx="20" cy="224" r="18" stroke="#7B58CF" stroke-opacity=".3" stroke-width="4"/><path d="M19.805 230.18c-1.212 0-2.171-.336-2.88-1.008-.707-.684-1.062-1.608-1.062-2.772h1.62c0 .72.21 1.29.63 1.71.42.42.99.63 1.71.63s1.29-.21 1.71-.63c.42-.42.63-.99.63-1.71v-.9c0-.72-.21-1.29-.63-1.71-.42-.42-.99-.63-1.71-.63h-1.422v-1.404l3.223-3.42h-5.4v-1.476h7.235v1.512l-3.6 3.834v-.486c1.212 0 2.166.342 2.862 1.026.709.672 1.063 1.59 1.063 2.754v.9c0 1.164-.36 2.088-1.08 2.772-.709.672-1.675 1.008-2.899 1.008Z" fill="#fff"/><path stroke="#7B58CF" stroke-width="2" stroke-linecap="round" d="M69 48h59m-59 88h59M35 92h34m0 44V48"/><circle cx="20" cy="92" r="16" fill="#7B58CF"/><circle cx="20" cy="92" r="18" stroke="#7B58CF" stroke-opacity=".3" stroke-width="4"/><path d="M16.151 98v-1.494l4.375-4.68c.636-.672 1.085-1.272 1.35-1.8.264-.528.395-1.044.395-1.548 0-.72-.21-1.29-.63-1.71-.407-.432-.965-.648-1.673-.648-.733 0-1.314.222-1.747.666-.42.432-.63 1.02-.63 1.764h-1.62c.024-.792.204-1.476.54-2.052a3.41 3.41 0 0 1 1.387-1.35c.587-.312 1.277-.468 2.07-.468.816 0 1.517.156 2.105.468a3.325 3.325 0 0 1 1.369 1.332c.323.564.485 1.236.485 2.016 0 .624-.174 1.284-.521 1.98-.336.696-.918 1.476-1.746 2.34l-3.547 3.708h5.977V98h-7.94Z" fill="#fff"/><path stroke="#7B58CF" stroke-width="2" stroke-linecap="round" d="M35 20h93"/><circle cx="20" cy="20" r="16" fill="#7B58CF"/><circle cx="20" cy="20" r="18" stroke="#7B58CF" stroke-opacity=".3" stroke-width="4"/><path d="M16.224 26v-1.476h3.564v-10.26l-3.564 2.664v-1.854l2.97-2.214h2.213v11.664h2.916V26h-8.1Z" fill="#fff"/></g><defs><clipPath id="form-structure__a"><path fill="#fff" d="M0 0h369v486H0z"/></clipPath></defs></svg>