<svg width="369" height="484" viewBox="0 0 369 484" fill="none" xmlns="http://www.w3.org/2000/svg">
<g clip-path="url(#clip0_6009_22931)">
<rect width="369" height="484" fill="white"/>
<rect x="129" y="16" width="73" height="8" rx="2" fill="#535158"/>
<rect x="129.5" y="32.5" width="239" height="31" rx="3.5" fill="white"/>
<rect x="129.5" y="32.5" width="239" height="31" rx="3.5" stroke="#BFBFC3"/>
<rect x="129" y="88" width="100" height="8" rx="2" fill="#535158"/>
<rect x="129.75" y="104.75" width="14.5" height="14.5" rx="3.25" fill="white"/>
<rect x="129.75" y="104.75" width="14.5" height="14.5" rx="3.25" stroke="#89888D" stroke-width="1.5"/>
<rect x="153" y="108" width="135" height="8" rx="2" fill="#89888D"/>
<rect x="129" y="128" width="16" height="16" rx="4" fill="#1F75CB"/>
<path d="M134 136.053L135.991 138L140 134" stroke="white" stroke-width="2"/>
<rect x="153" y="132" width="196" height="8" rx="2" fill="#89888D"/>
<rect x="129.75" y="152.75" width="14.5" height="14.5" rx="3.25" fill="white"/>
<rect x="129.75" y="152.75" width="14.5" height="14.5" rx="3.25" stroke="#89888D" stroke-width="1.5"/>
<rect x="153" y="156" width="25" height="8" rx="2" fill="#89888D"/>
<rect x="129" y="192" width="73" height="8" rx="2" fill="#535158"/>
<rect x="129.5" y="208.5" width="239" height="31" rx="3.5" fill="white"/>
<rect x="129.5" y="208.5" width="239" height="31" rx="3.5" stroke="#BFBFC3"/>
<path fill-rule="evenodd" clip-rule="evenodd" d="M352.293 226.707C352.683 227.098 353.317 227.098 353.707 226.707L356.707 223.707C357.098 223.317 357.098 222.683 356.707 222.293C356.317 221.902 355.683 221.902 355.293 222.293L353 224.586L350.707 222.293C350.317 221.902 349.683 221.902 349.293 222.293C348.902 222.683 348.902 223.317 349.293 223.707L352.293 226.707Z" fill="#737278"/>
<rect x="139" y="220" width="129" height="8" rx="2" fill="#BFBFC3"/>
<rect x="129" y="264" width="95" height="8" rx="2" fill="#535158"/>
<rect x="129" y="276" width="220" height="8" rx="2" fill="#BFBFC3"/>
<rect x="129.5" y="292.5" width="239" height="31" rx="3.5" fill="white"/>
<rect x="129.5" y="292.5" width="239" height="31" rx="3.5" stroke="#BFBFC3"/>
<rect x="129" y="332" width="100" height="8" rx="2" fill="#F57F6C"/>
<rect x="129" y="364" width="89" height="8" rx="2" fill="#535158"/>
<rect x="129.5" y="380.5" width="239" height="31" rx="3.5" fill="white"/>
<rect x="129.5" y="380.5" width="239" height="31" rx="3.5" stroke="#BFBFC3"/>
<rect x="129" y="420" width="126" height="8" rx="2" fill="#BFBFC3"/>
<rect x="218" y="453" width="70" height="30" rx="2" fill="white"/>
<rect x="218" y="453" width="70" height="30" rx="2" stroke="#A4A3A8" stroke-width="2"/>
<rect x="297" y="452" width="72" height="32" rx="3" fill="#1F75CB"/>
<line x1="25" y1="467" x2="216" y2="467" stroke="#7B58CF" stroke-width="2" stroke-linecap="round"/>
<circle cx="20" cy="466" r="16" fill="#7B58CF"/>
<circle cx="20" cy="466" r="18" stroke="#7B58CF" stroke-opacity="0.3" stroke-width="4"/>
<path d="M18.0235 472L22.7035 460.336H17.6995V462.46H16.0795V458.86H24.4315V460.372L19.7875 472H18.0235Z" fill="white"/>
<line x1="25" y1="424" x2="128" y2="424" stroke="#7B58CF" stroke-width="2" stroke-linecap="round"/>
<circle cx="20" cy="424" r="16" fill="#7B58CF"/>
<circle cx="20" cy="424" r="18" stroke="#7B58CF" stroke-opacity="0.3" stroke-width="4"/>
<path d="M20.0215 430.18C19.1815 430.18 18.4375 430.006 17.7895 429.658C17.1535 429.298 16.6555 428.806 16.2955 428.182C15.9355 427.546 15.7555 426.814 15.7555 425.986C15.7555 425.41 15.8635 424.822 16.0795 424.222C16.2955 423.61 16.5895 422.974 16.9615 422.314L20.0035 416.86H21.8035L18.5635 422.494L18.6175 422.53C18.7735 422.326 19.0075 422.17 19.3195 422.062C19.6315 421.954 19.9735 421.9 20.3455 421.9C21.1255 421.9 21.8035 422.074 22.3795 422.422C22.9675 422.758 23.4235 423.226 23.7475 423.826C24.0835 424.426 24.2515 425.122 24.2515 425.914C24.2515 426.754 24.0715 427.498 23.7115 428.146C23.3515 428.782 22.8535 429.28 22.2175 429.64C21.5935 430 20.8615 430.18 20.0215 430.18ZM20.0035 428.74C20.5315 428.74 20.9875 428.626 21.3715 428.398C21.7675 428.158 22.0735 427.828 22.2895 427.408C22.5175 426.988 22.6315 426.502 22.6315 425.95C22.6315 425.398 22.5175 424.912 22.2895 424.492C22.0735 424.072 21.7675 423.748 21.3715 423.52C20.9875 423.28 20.5315 423.16 20.0035 423.16C19.4875 423.16 19.0315 423.28 18.6355 423.52C18.2395 423.748 17.9275 424.072 17.6995 424.492C17.4835 424.912 17.3755 425.398 17.3755 425.95C17.3755 426.502 17.4835 426.988 17.6995 427.408C17.9275 427.828 18.2395 428.158 18.6355 428.398C19.0315 428.626 19.4875 428.74 20.0035 428.74Z" fill="white"/>
<line x1="25" y1="336" x2="128" y2="336" stroke="#7B58CF" stroke-width="2" stroke-linecap="round"/>
<circle cx="20" cy="336" r="16" fill="#7B58CF"/>
<circle cx="20" cy="336" r="18" stroke="#7B58CF" stroke-opacity="0.3" stroke-width="4"/>
<path d="M19.8955 342.18C18.6835 342.18 17.7235 341.844 17.0155 341.172C16.3075 340.488 15.9535 339.564 15.9535 338.4H17.5735C17.5735 339.12 17.7835 339.69 18.2035 340.11C18.6235 340.53 19.1935 340.74 19.9135 340.74C20.6335 340.74 21.2035 340.53 21.6235 340.11C22.0435 339.69 22.2535 339.12 22.2535 338.4V337.59C22.2535 336.87 22.0495 336.3 21.6415 335.88C21.2335 335.46 20.6815 335.25 19.9855 335.25H16.4035V328.86H23.4055V330.336H17.9155L17.9515 333.774H20.0755C21.2875 333.774 22.2235 334.11 22.8835 334.782C23.5435 335.442 23.8735 336.378 23.8735 337.59V338.4C23.8735 339.564 23.5135 340.488 22.7935 341.172C22.0855 341.844 21.1195 342.18 19.8955 342.18Z" fill="white"/>
<line x1="25" y1="280" x2="128" y2="280" stroke="#7B58CF" stroke-width="2" stroke-linecap="round"/>
<circle cx="20" cy="280" r="16" fill="#7B58CF"/>
<circle cx="20" cy="280" r="18" stroke="#7B58CF" stroke-opacity="0.3" stroke-width="4"/>
<path d="M21.8035 286V283.12H15.8635V280.582L20.6515 272.86H22.4875L17.4835 280.942V281.644H21.8035V278.44H23.4235V286H21.8035Z" fill="white"/>
<line x1="35" y1="224" x2="138" y2="224" stroke="#7B58CF" stroke-width="2" stroke-linecap="round"/>
<circle cx="20" cy="224" r="16" fill="#7B58CF"/>
<circle cx="20" cy="224" r="18" stroke="#7B58CF" stroke-opacity="0.3" stroke-width="4"/>
<path d="M19.8055 230.18C18.5935 230.18 17.6335 229.844 16.9255 229.172C16.2175 228.488 15.8635 227.564 15.8635 226.4H17.4835C17.4835 227.12 17.6935 227.69 18.1135 228.11C18.5335 228.53 19.1035 228.74 19.8235 228.74C20.5435 228.74 21.1135 228.53 21.5335 228.11C21.9535 227.69 22.1635 227.12 22.1635 226.4V225.5C22.1635 224.78 21.9535 224.21 21.5335 223.79C21.1135 223.37 20.5435 223.16 19.8235 223.16H18.4015V221.756L21.6235 218.336H16.2235V216.86H23.4595V218.372L19.8595 222.206V221.72C21.0715 221.72 22.0255 222.062 22.7215 222.746C23.4295 223.418 23.7835 224.336 23.7835 225.5V226.4C23.7835 227.564 23.4235 228.488 22.7035 229.172C21.9955 229.844 21.0295 230.18 19.8055 230.18Z" fill="white"/>
<line x1="69" y1="48" x2="128" y2="48" stroke="#7B58CF" stroke-width="2" stroke-linecap="round"/>
<line x1="69" y1="136" x2="128" y2="136" stroke="#7B58CF" stroke-width="2" stroke-linecap="round"/>
<line x1="35" y1="92" x2="69" y2="92" stroke="#7B58CF" stroke-width="2" stroke-linecap="round"/>
<line x1="69" y1="136" x2="69" y2="48" stroke="#7B58CF" stroke-width="2" stroke-linecap="round"/>
<circle cx="20" cy="92" r="16" fill="#7B58CF"/>
<circle cx="20" cy="92" r="18" stroke="#7B58CF" stroke-opacity="0.3" stroke-width="4"/>
<path d="M16.1515 98V96.506L20.5255 91.826C21.1615 91.154 21.6115 90.554 21.8755 90.026C22.1395 89.498 22.2715 88.982 22.2715 88.478C22.2715 87.758 22.0615 87.188 21.6415 86.768C21.2335 86.336 20.6755 86.12 19.9675 86.12C19.2355 86.12 18.6535 86.342 18.2215 86.786C17.8015 87.218 17.5915 87.806 17.5915 88.55H15.9715C15.9955 87.758 16.1755 87.074 16.5115 86.498C16.8475 85.91 17.3095 85.46 17.8975 85.148C18.4855 84.836 19.1755 84.68 19.9675 84.68C20.7835 84.68 21.4855 84.836 22.0735 85.148C22.6615 85.46 23.1175 85.904 23.4415 86.48C23.7655 87.044 23.9275 87.716 23.9275 88.496C23.9275 89.12 23.7535 89.78 23.4055 90.476C23.0695 91.172 22.4875 91.952 21.6595 92.816L18.1135 96.524H24.0895V98H16.1515Z" fill="white"/>
<line x1="35" y1="20" x2="128" y2="20" stroke="#7B58CF" stroke-width="2" stroke-linecap="round"/>
<circle cx="20" cy="20" r="16" fill="#7B58CF"/>
<circle cx="20" cy="20" r="18" stroke="#7B58CF" stroke-opacity="0.3" stroke-width="4"/>
<path d="M16.2235 26V24.524H19.7875V14.264L16.2235 16.928V15.074L19.1935 12.86H21.4075V24.524H24.3235V26H16.2235Z" fill="white"/>
</g>
<defs>
<clipPath id="clip0_6009_22931">
<rect width="369" height="484" fill="white"/>
</clipPath>
</defs>
</svg>
