<svg width="400" height="149" fill="none" xmlns="http://www.w3.org/2000/svg"><g clip-path="url(#general-feedback__a)"><path fill="#FBFAFD" d="M0 0h400v149H0z"/><g filter="url(#general-feedback__b)"><path fill="#FBFAFD" d="M0 0h400v57H0z"/><path d="M23.617 36.225c-4.043 0-6.816-2.96-6.816-7.48 0-4.63 2.89-7.51 6.767-7.51 3.242 0 5.82 2.03 6.24 4.98h-2.734c-.39-1.572-1.66-2.578-3.457-2.578-2.47 0-4.111 1.924-4.111 5.097 0 3.164 1.63 5.088 4.15 5.088 2.159 0 3.643-1.357 3.643-3.408l.644.068H23.97v-2.1h5.947v1.768c0 3.643-2.646 6.075-6.299 6.075Zm8.18-.225V25.443h2.587V36h-2.588Zm1.288-12.09c-.82 0-1.484-.635-1.484-1.435 0-.791.664-1.426 1.484-1.426.83 0 1.494.635 1.494 1.426 0 .8-.664 1.435-1.494 1.435Zm8.931 1.533v2.041h-6.377v-2.04h6.377Zm-4.688-2.724h2.588v10.244c0 .742.264 1.025 1.045 1.025.284 0 .762-.029 1.016-.048l.166 2.03a11.75 11.75 0 0 1-1.621.098c-2.129 0-3.194-.937-3.194-2.793V22.72ZM43.633 36V21.45h2.686v12.265H52.9V36h-9.268Zm13.96.195c-2.07 0-3.603-1.074-3.603-3.173 0-2.383 1.963-2.999 4.092-3.223 1.894-.205 2.607-.244 2.607-.957v-.069c0-.927-.674-1.533-1.845-1.533-1.202 0-1.963.625-2.11 1.426l-2.441-.195c.332-2.012 2.05-3.203 4.58-3.203 2.47 0 4.385 1.152 4.385 3.593V36h-2.5v-1.475h-.069c-.498.948-1.435 1.67-3.095 1.67Zm.665-1.885c1.543 0 2.45-.966 2.45-2.158V30.99c-.322.225-1.425.381-2.284.508-1.075.156-1.934.557-1.934 1.484 0 .85.713 1.328 1.768 1.328Zm12.876 1.895c-1.553 0-2.569-.8-3.106-1.846h-.078V36h-2.54V21.45h2.588v5.595h.049c.547-.986 1.523-1.777 3.105-1.777 2.588 0 4.463 2.09 4.463 5.459 0 3.369-1.836 5.478-4.482 5.478Zm-.664-2.129c1.562 0 2.52-1.289 2.52-3.35 0-2.05-.948-3.34-2.52-3.34-1.602 0-2.578 1.32-2.578 3.34 0 2.022.986 3.35 2.578 3.35ZM86.866 36h-3.701v-2.295h3.554c3.067 0 4.56-1.738 4.56-4.99 0-3.233-1.503-4.961-4.492-4.961h-3.69v-2.305h3.857c4.336 0 7.002 2.774 7.002 7.266 0 4.521-2.647 7.285-7.09 7.285ZM84.58 21.45V36h-2.686V21.45h2.686Zm14.868 14.735c-2.207 0-3.701-1.464-3.701-4.091v-6.65h2.587v6.23c0 1.465.762 2.285 2.061 2.285s2.236-.82 2.236-2.47v-6.046h2.588V36h-2.5l-.019-2.656h.371c-.645 1.855-1.836 2.841-3.623 2.841Zm12.632.05c-3.115 0-5.166-2.208-5.166-5.48 0-3.29 2.051-5.507 5.166-5.507 3.125 0 5.176 2.217 5.176 5.508 0 3.271-2.051 5.478-5.176 5.478Zm0-2.12c1.621 0 2.558-1.367 2.558-3.369 0-2.012-.937-3.379-2.558-3.379-1.611 0-2.549 1.358-2.549 3.38 0 2.01.938 3.368 2.549 3.368Zm17.764 2.11c-3.936 0-6.787-2.872-6.787-7.49 0-4.64 2.861-7.5 6.787-7.5 3.281 0 5.781 1.982 6.25 5.175h-2.715c-.351-1.767-1.709-2.773-3.496-2.773-2.52 0-4.121 1.933-4.121 5.097 0 3.184 1.611 5.088 4.121 5.088 1.777 0 3.135-1.006 3.496-2.763h2.715c-.44 3.017-2.852 5.166-6.25 5.166Zm10.581-6.26V36h-2.588V21.45h2.569v6.66h-.411c.625-1.846 1.817-2.842 3.624-2.842 2.197 0 3.691 1.464 3.691 4.091V36h-2.588v-6.22c0-1.475-.762-2.286-2.061-2.286-1.298 0-2.236.81-2.236 2.47Zm12.163 6.23c-2.07 0-3.603-1.074-3.603-3.173 0-2.383 1.963-2.999 4.092-3.223 1.894-.205 2.607-.244 2.607-.957v-.069c0-.927-.674-1.533-1.846-1.533-1.201 0-1.962.625-2.109 1.426l-2.441-.195c.332-2.012 2.05-3.203 4.58-3.203 2.47 0 4.385 1.152 4.385 3.593V36h-2.5v-1.475h-.069c-.498.948-1.435 1.67-3.096 1.67Zm.665-1.885c1.542 0 2.451-.966 2.451-2.158V30.99c-.323.225-1.426.381-2.285.508-1.075.156-1.934.557-1.934 1.484 0 .85.713 1.328 1.768 1.328Zm12.534-8.867v2.041h-6.377v-2.04h6.377ZM161.1 22.72h2.588v10.244c0 .742.264 1.025 1.045 1.025.283 0 .762-.029 1.016-.048l.166 2.03c-.449.07-1.065.098-1.621.098-2.129 0-3.194-.937-3.194-2.793V22.72Z" fill="#28272D"/><g clip-path="url(#general-feedback__c)" style="mix-blend-mode:multiply"><path fill-rule="evenodd" clip-rule="evenodd" d="M376.28 23.72a.75.75 0 1 0-1.06 1.06l3.719 3.72-3.719 3.72a.75.75 0 1 0 1.06 1.06l3.72-3.72 3.72 3.72a.75.75 0 1 0 1.06-1.06l-3.719-3.72 3.719-3.72a.75.75 0 1 0-1.06-1.06L380 27.44l-3.72-3.72Z" fill="#737278"/></g></g><path fill="#E9F3FC" d="M0 57h400v92H0z"/><g clip-path="url(#general-feedback__d)"><path fill-rule="evenodd" clip-rule="evenodd" d="M30.5 83a6.5 6.5 0 1 1-13 0 6.5 6.5 0 0 1 13 0Zm1.5 0a8 8 0 1 1-16 0 8 8 0 0 1 16 0Zm-9.75 2.5a.75.75 0 0 0 0 1.5h3.5a.75.75 0 0 0 0-1.5h-1V82H23a.75.75 0 0 0 0 1.5h.25v2h-1ZM24 81a1 1 0 1 0 0-2 1 1 0 0 0 0 2Z" fill="#1068BF"/></g><path d="M49.23 88V77.814h1.3v4.403h5.345v-4.403h1.299V88h-1.299v-4.635h-5.346V88H49.23Zm13.365.164c-2.078 0-3.48-1.579-3.48-3.937 0-2.393 1.402-3.965 3.48-3.965 2.085 0 3.493 1.572 3.493 3.965 0 2.358-1.408 3.937-3.493 3.937Zm0-1.1c1.545 0 2.249-1.333 2.249-2.837 0-1.518-.704-2.865-2.25-2.865-1.524 0-2.228 1.34-2.228 2.865 0 1.504.704 2.837 2.229 2.837Zm6.74.936-2.317-7.643h1.305l.93 3.336c.253.91.554 2.051.84 3.507h-.211c.273-1.394.56-2.536.827-3.507l.916-3.336h1.313l.902 3.336c.253.937.54 2.079.813 3.507h-.218a49.07 49.07 0 0 1 .847-3.507l.93-3.336h1.306L75.2 88h-1.223l-.992-3.459a72.5 72.5 0 0 1-.854-3.363h.273a70.366 70.366 0 0 1-.854 3.363L70.559 88h-1.224Zm16.789.164c-2.078 0-3.48-1.579-3.48-3.937 0-2.393 1.402-3.965 3.48-3.965 1.477 0 2.68.779 3.097 2.112l-1.183.335c-.225-.786-.91-1.347-1.914-1.347-1.524 0-2.228 1.34-2.228 2.865 0 1.504.704 2.837 2.228 2.837 1.025 0 1.723-.582 1.948-1.409l1.176.335c-.41 1.36-1.627 2.174-3.124 2.174Zm7.164.014c-1.45 0-2.604-.848-2.604-2.352 0-1.75 1.558-2.071 2.973-2.249 1.36-.17 1.962-.13 1.962-.697v-.041c0-.95-.54-1.497-1.6-1.497-1.1 0-1.695.588-1.934 1.12l-1.183-.389c.588-1.387 1.9-1.811 3.083-1.811 1.026 0 2.865.314 2.865 2.7V88h-1.21v-1.04h-.082c-.26.541-.978 1.218-2.27 1.218Zm.212-1.087c1.36 0 2.12-.916 2.12-1.853v-1.06c-.206.24-1.546.377-2.017.438-.896.116-1.682.403-1.682 1.272 0 .793.663 1.203 1.579 1.203Zm6.74-3.671V88h-1.23v-7.643h1.182l.007 1.853h-.171c.465-1.408 1.354-1.948 2.509-1.948 1.545 0 2.591.95 2.591 2.885V88h-1.237v-4.751c0-1.176-.657-1.88-1.723-1.88-1.101 0-1.928.745-1.928 2.05Zm14-3.063v1.053h-3.951v-1.053h3.951Zm-2.802-1.818h1.23v7.479c0 .683.253.984.902.984.158 0 .424-.041.629-.082l.253 1.039a2.959 2.959 0 0 1-.916.137c-1.319 0-2.098-.732-2.098-1.983V78.54Zm5.605 4.88V88h-1.231V77.814h1.231v4.396h-.212c.465-1.408 1.354-1.948 2.509-1.948 1.545 0 2.591.95 2.591 2.885V88h-1.238v-4.751c0-1.176-.656-1.88-1.722-1.88-1.101 0-1.928.745-1.928 2.05Zm10.268 4.745c-2.215 0-3.582-1.572-3.582-3.924 0-2.344 1.353-3.978 3.438-3.978 1.62 0 3.329.998 3.329 3.821v.513h-5.934v-1.04h5.271l-.574.383c0-1.503-.711-2.583-2.092-2.583-1.381 0-2.194 1.141-2.194 2.385v.69c0 1.703.943 2.64 2.344 2.64.903 0 1.579-.397 1.867-1.177l1.189.329c-.355 1.155-1.497 1.941-3.062 1.941Zm11.997 0c-2.079 0-3.48-1.579-3.48-3.937 0-2.393 1.401-3.965 3.48-3.965 1.476 0 2.679.779 3.096 2.112l-1.182.335c-.226-.786-.91-1.347-1.914-1.347-1.525 0-2.229 1.34-2.229 2.865 0 1.504.704 2.837 2.229 2.837 1.025 0 1.722-.582 1.948-1.409l1.176.335c-.411 1.36-1.627 2.174-3.124 2.174Zm6.118-4.744V88h-1.231V77.814h1.231v4.396h-.212c.465-1.408 1.353-1.948 2.509-1.948 1.545 0 2.59.95 2.59 2.885V88h-1.237v-4.751c0-1.176-.656-1.88-1.722-1.88-1.101 0-1.928.745-1.928 2.05Zm9.194 4.758c-1.449 0-2.604-.848-2.604-2.352 0-1.75 1.558-2.071 2.973-2.249 1.361-.17 1.962-.13 1.962-.697v-.041c0-.95-.54-1.497-1.599-1.497-1.101 0-1.696.588-1.935 1.12l-1.183-.389c.588-1.387 1.901-1.811 3.083-1.811 1.026 0 2.865.314 2.865 2.7V88h-1.21v-1.04h-.082c-.26.541-.978 1.218-2.27 1.218Zm.212-1.087c1.36 0 2.119-.916 2.119-1.853v-1.06c-.205.24-1.545.377-2.016.438-.896.116-1.682.403-1.682 1.272 0 .793.663 1.203 1.579 1.203Zm8.518-6.734v1.053h-3.952v-1.053h3.952Zm-2.803-1.818h1.23v7.479c0 .683.253.984.903.984.157 0 .424-.041.629-.082l.253 1.039a2.964 2.964 0 0 1-.916.137c-1.32 0-2.099-.732-2.099-1.983V78.54Zm11.86 9.625c-1.456 0-1.969-.923-2.221-1.347h-.137V88h-1.19V77.814h1.231v3.767h.096c.252-.403.724-1.32 2.214-1.32 1.908 0 3.241 1.518 3.241 3.938 0 2.434-1.327 3.965-3.234 3.965Zm-.184-1.1c1.428 0 2.167-1.272 2.167-2.878 0-1.586-.718-2.824-2.167-2.824-1.409 0-2.147 1.135-2.147 2.824 0 1.702.759 2.877 2.147 2.877Zm8.422 1.1c-2.215 0-3.583-1.572-3.583-3.924 0-2.344 1.354-3.978 3.439-3.978 1.62 0 3.329.998 3.329 3.821v.513h-5.934v-1.04h5.271l-.574.383c0-1.503-.711-2.583-2.092-2.583-1.381 0-2.194 1.141-2.194 2.385v.69c0 1.703.943 2.64 2.344 2.64.903 0 1.579-.397 1.867-1.177l1.189.329c-.355 1.155-1.497 1.941-3.062 1.941Zm8.886-.164v-7.643h1.197l.006 1.71h-.095c.307-1.238 1.244-1.846 2.235-1.846 1.107 0 1.812.752 2.017 1.86h-.164c.273-1.142 1.285-1.86 2.502-1.86 1.326 0 2.406.854 2.406 2.625V88h-1.238v-5.12c0-1.1-.717-1.538-1.538-1.538-1.032 0-1.661.704-1.661 1.668V88h-1.23v-5.243c0-.848-.636-1.415-1.497-1.415-.896 0-1.709.629-1.709 1.846V88h-1.231Zm15.374.164c-2.078 0-3.479-1.579-3.479-3.937 0-2.393 1.401-3.965 3.479-3.965 2.085 0 3.493 1.572 3.493 3.965 0 2.358-1.408 3.937-3.493 3.937Zm0-1.1c1.545 0 2.249-1.333 2.249-2.837 0-1.518-.704-2.865-2.249-2.865-1.524 0-2.228 1.34-2.228 2.865 0 1.504.704 2.837 2.228 2.837Zm5.284.936v-7.643h1.19v1.176h.082c.28-.772 1.073-1.285 1.982-1.285.178 0 .479.014.622.02v1.238a4.64 4.64 0 0 0-.738-.069c-1.1 0-1.907.746-1.907 1.778V88h-1.231Zm8.258.164c-2.215 0-3.582-1.572-3.582-3.924 0-2.344 1.354-3.978 3.439-3.978 1.62 0 3.329.998 3.329 3.821v.513h-5.934v-1.04h5.271l-.574.383c0-1.503-.711-2.583-2.092-2.583-1.381 0-2.195 1.141-2.195 2.385v.69c0 1.703.944 2.64 2.345 2.64.902 0 1.579-.397 1.866-1.177l1.19.329c-.356 1.155-1.497 1.941-3.063 1.941Zm10.117-4.744V88h-1.23V77.814h1.23v4.396h-.211c.464-1.408 1.353-1.948 2.508-1.948 1.545 0 2.591.95 2.591 2.885V88h-1.237v-4.751c0-1.176-.656-1.88-1.723-1.88-1.1 0-1.928.745-1.928 2.05Zm10.268 4.744c-2.215 0-3.582-1.572-3.582-3.924 0-2.344 1.354-3.978 3.438-3.978 1.621 0 3.33.998 3.33 3.821v.513h-5.934v-1.04h5.27l-.574.383c0-1.503-.711-2.583-2.092-2.583-1.38 0-2.194 1.141-2.194 2.385v.69c0 1.703.944 2.64 2.345 2.64.902 0 1.579-.397 1.866-1.177l1.19.329c-.356 1.155-1.498 1.941-3.063 1.941Zm6.665-.11c-1.148 0-1.716-.642-1.716-1.75v-8.49h1.231v8.183c0 .704.123.957.635.957.267 0 .376-.02.493-.055l.246 1.04a3.557 3.557 0 0 1-.889.116Zm2.14 2.803v-10.5h1.189v1.224h.137c.253-.403.725-1.32 2.215-1.32 1.907 0 3.24 1.518 3.24 3.938 0 2.434-1.326 3.965-3.233 3.965-1.456 0-1.969-.923-2.222-1.347h-.096v4.04h-1.23ZM251 87.064c1.429 0 2.167-1.272 2.167-2.878 0-1.586-.718-2.824-2.167-2.824-1.408 0-2.146 1.135-2.146 2.824 0 1.702.758 2.877 2.146 2.877Zm8.764-6.707v1.053h-4.498v-1.053h4.498ZM256.77 88v-8.661c0-1.326 1.059-2.003 2.173-2.003.581 0 .964.123 1.149.205l-.342 1.053c-.13-.041-.321-.116-.663-.116-.759 0-1.087.396-1.087 1.134V88h-1.23Zm7.211.096c-1.544 0-2.59-.95-2.59-2.885v-4.854h1.23v4.751c0 1.176.663 1.88 1.73 1.88 1.093 0 1.92-.745 1.92-2.05v-4.58h1.238V88h-1.19v-1.853h.164c-.471 1.436-1.38 1.949-2.502 1.949Zm7.411-.041c-1.149 0-1.716-.643-1.716-1.75v-8.49h1.23v8.182c0 .704.123.957.636.957.267 0 .376-.02.492-.055l.246 1.04c-.218.061-.56.116-.888.116Zm7.793-.055-2.318-7.643h1.306l.93 3.336c.252.91.553 2.051.84 3.507h-.212a47.55 47.55 0 0 1 .828-3.507l.916-3.336h1.312l.902 3.336c.253.937.54 2.079.814 3.507h-.219c.287-1.415.581-2.55.848-3.507l.93-3.336h1.305L285.05 88h-1.224l-.991-3.459a73.25 73.25 0 0 1-.855-3.363h.274a71.07 71.07 0 0 1-.855 3.363L280.408 88h-1.223Zm9.741 0v-7.643h1.23V88h-1.23Zm.622-8.894c-.465 0-.855-.362-.855-.813 0-.451.39-.814.855-.814.472 0 .861.363.861.814 0 .451-.389.813-.861.813Zm5.776 1.251v1.053h-3.951v-1.053h3.951Zm-2.803-1.818h1.231v7.479c0 .683.253.984.902.984.158 0 .424-.041.629-.082l.253 1.039a2.959 2.959 0 0 1-.916.137c-1.319 0-2.099-.732-2.099-1.983V78.54Zm5.606 4.88V88h-1.231V77.814h1.231v4.396h-.212c.465-1.408 1.354-1.948 2.509-1.948 1.545 0 2.591.95 2.591 2.885V88h-1.238v-4.751c0-1.176-.656-1.88-1.722-1.88-1.101 0-1.928.745-1.928 2.05ZM309.27 88V77.814h1.845l2.509 6.426c.232.595.649 1.928.889 2.817h-.287c.246-.834.663-2.195.902-2.817l2.475-6.425h1.852V88h-1.278v-5.817c0-.841.027-2.215.054-3.357h.11c-.39 1.265-.882 2.694-1.142 3.357L314.923 88h-1.128l-2.311-5.817c-.253-.636-.711-2.03-1.162-3.357h.123c.028 1.019.062 2.461.062 3.357V88h-1.237Zm12.646 0V77.814h3.486c2.379 0 3.473 1.327 3.473 3.145s-1.094 3.09-3.466 3.09h-2.768v-1.155h2.707c1.606 0 2.235-.739 2.235-1.935 0-1.21-.629-2.003-2.249-2.003h-2.119V88h-1.299Zm5.852 0-2.461-4.587h1.463L329.271 88h-1.503ZM55.492 110.857h-1.23v-4.04h-.096c-.253.424-.766 1.347-2.222 1.347-1.907 0-3.233-1.531-3.233-3.965 0-2.42 1.333-3.937 3.24-3.937 1.49 0 1.962.916 2.215 1.319h.137v-1.224h1.19v10.5Zm-3.363-3.794c1.388 0 2.146-1.175 2.146-2.877 0-1.689-.738-2.824-2.146-2.824-1.45 0-2.167 1.238-2.167 2.824 0 1.606.738 2.877 2.167 2.877Zm8.114 1.033c-1.545 0-2.59-.95-2.59-2.885v-4.854h1.23v4.751c0 1.176.663 1.88 1.73 1.88 1.093 0 1.92-.745 1.92-2.05v-4.581h1.237V108h-1.189v-1.853h.164c-.472 1.436-1.38 1.949-2.502 1.949Zm8.907.068c-2.215 0-3.582-1.572-3.582-3.924 0-2.344 1.354-3.978 3.439-3.978 1.62 0 3.329.998 3.329 3.821v.513h-5.934v-1.039h5.27l-.573.382c0-1.503-.711-2.584-2.092-2.584-1.381 0-2.195 1.142-2.195 2.386v.691c0 1.702.944 2.638 2.345 2.638.903 0 1.58-.396 1.866-1.175l1.19.328c-.356 1.155-1.497 1.941-3.063 1.941Zm7.547 0c-1.572 0-2.666-.697-2.94-2.017l1.17-.28c.218.841.84 1.217 1.757 1.217 1.066 0 1.75-.526 1.75-1.155 0-.527-.37-.875-1.121-1.053l-1.272-.301c-1.388-.328-2.05-1.012-2.05-2.085 0-1.312 1.202-2.228 2.83-2.228 1.572 0 2.399.765 2.747 1.839l-1.114.287c-.212-.547-.642-1.08-1.627-1.08-.909 0-1.593.471-1.593 1.107 0 .567.39.882 1.285 1.094l1.156.273c1.388.328 2.037 1.019 2.037 2.065 0 1.34-1.224 2.317-3.015 2.317Zm7.807-7.807v1.053h-3.951v-1.053h3.95ZM81.7 98.539h1.23v7.479c0 .683.254.984.903.984.157 0 .424-.041.629-.082l.253 1.039a2.958 2.958 0 0 1-.916.137c-1.32 0-2.099-.732-2.099-1.983v-7.574ZM86.076 108v-7.643h1.23V108h-1.23Zm.622-8.894c-.465 0-.854-.362-.854-.813 0-.451.39-.814.854-.814.472 0 .862.363.862.814 0 .451-.39.813-.862.813Zm5.88 9.058c-2.079 0-3.48-1.579-3.48-3.937 0-2.393 1.401-3.965 3.48-3.965 2.084 0 3.492 1.572 3.492 3.965 0 2.358-1.408 3.937-3.493 3.937Zm0-1.101c1.544 0 2.248-1.333 2.248-2.836 0-1.518-.704-2.865-2.249-2.865-1.524 0-2.228 1.34-2.228 2.865 0 1.503.704 2.836 2.228 2.836Zm6.514-3.643V108h-1.23v-7.643h1.182l.007 1.853h-.171c.465-1.408 1.353-1.948 2.509-1.948 1.545 0 2.59.95 2.59 2.884V108h-1.237v-4.751c0-1.176-.656-1.88-1.722-1.88-1.101 0-1.928.745-1.928 2.051Zm9.652 4.744c-1.572 0-2.666-.697-2.939-2.017l1.169-.28c.218.841.84 1.217 1.756 1.217 1.067 0 1.75-.526 1.75-1.155 0-.527-.369-.875-1.121-1.053l-1.271-.301c-1.388-.328-2.051-1.012-2.051-2.085 0-1.312 1.203-2.228 2.83-2.228 1.572 0 2.4.765 2.748 1.839l-1.114.287c-.212-.547-.643-1.08-1.627-1.08-.909 0-1.593.471-1.593 1.107 0 .567.39.882 1.285 1.094l1.156.273c1.387.328 2.037 1.019 2.037 2.065 0 1.34-1.224 2.317-3.015 2.317Zm6.337-3.233v-.076c0-1.866.574-2.262 1.518-2.83.601-.362 1.066-.916 1.066-1.709 0-.95-.738-1.551-1.661-1.551-.807 0-1.607.478-1.682 1.613h-1.299c.069-1.716 1.368-2.7 2.981-2.7 1.77 0 2.919 1.128 2.919 2.686 0 1.101-.506 1.866-1.388 2.407-.882.54-1.217.875-1.217 2.084v.076h-1.237Zm.636 3.158a.919.919 0 1 1 .916-.916c0 .506-.41.916-.916.916Zm12.339.089c-2.208 0-3.582-1.135-3.699-2.844h1.333c.103 1.155 1.169 1.682 2.366 1.682 1.381 0 2.433-.725 2.433-1.812 0-.984-.929-1.347-2.016-1.654l-1.231-.349c-1.64-.465-2.597-1.305-2.597-2.659 0-1.723 1.531-2.864 3.5-2.864 2.009 0 3.411 1.169 3.472 2.707h-1.271c-.117-.991-1.033-1.559-2.242-1.559-1.32 0-2.195.697-2.195 1.654 0 1.067 1.196 1.443 1.942 1.648l1.018.28c1.094.301 2.885.916 2.885 2.817 0 1.668-1.347 2.953-3.698 2.953Zm6.801-4.758V108h-1.23V97.814h1.23v4.396h-.211c.464-1.408 1.353-1.948 2.508-1.948 1.545 0 2.591.95 2.591 2.884V108h-1.237v-4.751c0-1.176-.656-1.88-1.723-1.88-1.1 0-1.928.745-1.928 2.051Zm9.195 4.758c-1.449 0-2.605-.848-2.605-2.352 0-1.75 1.559-2.071 2.974-2.249 1.36-.171 1.962-.13 1.962-.697v-.041c0-.95-.54-1.497-1.6-1.497-1.1 0-1.695.588-1.934 1.121l-1.183-.39c.588-1.387 1.9-1.811 3.083-1.811 1.025 0 2.864.314 2.864 2.7V108h-1.21v-1.039h-.082c-.259.54-.977 1.217-2.269 1.217Zm.212-1.087c1.36 0 2.119-.916 2.119-1.853v-1.059c-.205.239-1.545.376-2.017.437-.895.116-1.681.404-1.681 1.272 0 .793.663 1.203 1.579 1.203Zm5.509.909v-7.643h1.19v1.176h.082c.28-.772 1.073-1.285 1.982-1.285.178 0 .479.014.622.021v1.237a4.619 4.619 0 0 0-.738-.068c-1.1 0-1.907.745-1.907 1.777V108h-1.231Zm8.258.164c-2.215 0-3.582-1.572-3.582-3.924 0-2.344 1.354-3.978 3.439-3.978 1.62 0 3.329.998 3.329 3.821v.513h-5.934v-1.039h5.271l-.575.382c0-1.503-.71-2.584-2.091-2.584-1.381 0-2.195 1.142-2.195 2.386v.691c0 1.702.944 2.638 2.345 2.638.902 0 1.579-.396 1.866-1.175l1.19.328c-.356 1.155-1.497 1.941-3.063 1.941Zm8.764 2.605.314-1.067.13.034c.752.199 1.292.035 1.668-1.059l.219-.636-2.919-7.684h1.347l1.627 4.533c.341.95.547 1.886.813 2.761h-.451c.26-.875.472-1.818.813-2.761l1.641-4.533h1.34l-3.357 8.785c-.464 1.216-1.203 1.77-2.283 1.77-.437 0-.772-.082-.902-.143Zm10.835-2.605c-2.078 0-3.48-1.579-3.48-3.937 0-2.393 1.402-3.965 3.48-3.965 2.085 0 3.493 1.572 3.493 3.965 0 2.358-1.408 3.937-3.493 3.937Zm0-1.101c1.545 0 2.249-1.333 2.249-2.836 0-1.518-.704-2.865-2.249-2.865-1.525 0-2.229 1.34-2.229 2.865 0 1.503.704 2.836 2.229 2.836Zm7.875 1.033c-1.545 0-2.591-.95-2.591-2.885v-4.854h1.231v4.751c0 1.176.663 1.88 1.729 1.88 1.094 0 1.921-.745 1.921-2.05v-4.581h1.237V108h-1.189v-1.853h.164c-.472 1.436-1.381 1.949-2.502 1.949Zm5.694-.096v-7.643h1.19v1.176h.082c.28-.772 1.073-1.285 1.982-1.285.178 0 .479.014.622.021v1.237a4.619 4.619 0 0 0-.738-.068c-1.101 0-1.907.745-1.907 1.777V108h-1.231Zm11.813.164c-1.573 0-2.666-.697-2.94-2.017l1.169-.28c.219.841.841 1.217 1.757 1.217 1.066 0 1.75-.526 1.75-1.155 0-.527-.369-.875-1.121-1.053l-1.272-.301c-1.387-.328-2.05-1.012-2.05-2.085 0-1.312 1.203-2.228 2.83-2.228 1.572 0 2.399.765 2.748 1.839l-1.114.287c-.212-.547-.643-1.08-1.627-1.08-.91 0-1.593.471-1.593 1.107 0 .567.389.882 1.285 1.094l1.155.273c1.388.328 2.037 1.019 2.037 2.065 0 1.34-1.223 2.317-3.014 2.317Zm7.389-.068c-1.545 0-2.59-.95-2.59-2.885v-4.854h1.23v4.751c0 1.176.663 1.88 1.73 1.88 1.093 0 1.92-.745 1.92-2.05v-4.581h1.238V108h-1.19v-1.853h.164c-.471 1.436-1.381 1.949-2.502 1.949Zm8.791 2.925c-1.695 0-2.672-.717-3.144-1.558l.998-.643c.321.445.8 1.128 2.146 1.128 1.217 0 2.099-.56 2.099-1.818v-1.531h-.116c-.26.437-.745 1.278-2.222 1.278-1.832 0-3.226-1.333-3.226-3.732 0-2.366 1.346-3.883 3.253-3.883 1.477 0 1.969.909 2.229 1.319h.116v-1.224h1.196v7.841c0 1.976-1.469 2.823-3.329 2.823Zm-.034-4.238c1.388 0 2.147-.998 2.147-2.666 0-1.62-.739-2.755-2.147-2.755-1.456 0-2.18 1.231-2.18 2.755 0 1.572.745 2.666 2.18 2.666Zm8.62 4.238c-1.695 0-2.673-.717-3.144-1.558l.998-.643c.321.445.8 1.128 2.146 1.128 1.217 0 2.099-.56 2.099-1.818v-1.531h-.116c-.26.437-.745 1.278-2.222 1.278-1.832 0-3.227-1.333-3.227-3.732 0-2.366 1.347-3.883 3.254-3.883 1.477 0 1.969.909 2.229 1.319h.116v-1.224h1.196v7.841c0 1.976-1.469 2.823-3.329 2.823Zm-.034-4.238c1.388 0 2.147-.998 2.147-2.666 0-1.62-.739-2.755-2.147-2.755-1.456 0-2.181 1.231-2.181 2.755 0 1.572.746 2.666 2.181 2.666Zm8.736 1.381c-2.214 0-3.582-1.572-3.582-3.924 0-2.344 1.354-3.978 3.439-3.978 1.62 0 3.329.998 3.329 3.821v.513h-5.934v-1.039h5.271l-.574.382c0-1.503-.711-2.584-2.092-2.584-1.381 0-2.194 1.142-2.194 2.386v.691c0 1.702.943 2.638 2.344 2.638.903 0 1.579-.396 1.867-1.175l1.189.328c-.355 1.155-1.497 1.941-3.063 1.941Zm7.547 0c-1.572 0-2.666-.697-2.939-2.017l1.169-.28c.219.841.841 1.217 1.757 1.217 1.066 0 1.75-.526 1.75-1.155 0-.527-.369-.875-1.121-1.053l-1.272-.301c-1.388-.328-2.051-1.012-2.051-2.085 0-1.312 1.203-2.228 2.83-2.228 1.573 0 2.4.765 2.748 1.839l-1.114.287c-.212-.547-.642-1.08-1.627-1.08-.909 0-1.593.471-1.593 1.107 0 .567.39.882 1.286 1.094l1.155.273c1.388.328 2.037 1.019 2.037 2.065 0 1.34-1.224 2.317-3.015 2.317Zm7.807-7.807v1.053h-3.951v-1.053h3.951Zm-2.803-1.818h1.231v7.479c0 .683.253.984.902.984.157 0 .424-.041.629-.082l.253 1.039a2.96 2.96 0 0 1-.916.137c-1.319 0-2.099-.732-2.099-1.983v-7.574Zm4.375 9.461v-7.643h1.231V108h-1.231Zm.622-8.894c-.465 0-.854-.362-.854-.813 0-.451.389-.814.854-.814.472 0 .862.363.862.814 0 .451-.39.813-.862.813Zm5.879 9.058c-2.078 0-3.479-1.579-3.479-3.937 0-2.393 1.401-3.965 3.479-3.965 2.085 0 3.493 1.572 3.493 3.965 0 2.358-1.408 3.937-3.493 3.937Zm0-1.101c1.545 0 2.249-1.333 2.249-2.836 0-1.518-.704-2.865-2.249-2.865-1.524 0-2.228 1.34-2.228 2.865 0 1.503.704 2.836 2.228 2.836Zm6.515-3.643V108h-1.231v-7.643h1.183l.007 1.853h-.171c.465-1.408 1.353-1.948 2.509-1.948 1.545 0 2.591.95 2.591 2.884V108h-1.238v-4.751c0-1.176-.656-1.88-1.722-1.88-1.101 0-1.928.745-1.928 2.051Zm9.652 4.744c-1.572 0-2.666-.697-2.939-2.017l1.169-.28c.218.841.841 1.217 1.757 1.217 1.066 0 1.75-.526 1.75-1.155 0-.527-.37-.875-1.122-1.053l-1.271-.301c-1.388-.328-2.051-1.012-2.051-2.085 0-1.312 1.203-2.228 2.83-2.228 1.573 0 2.4.765 2.748 1.839l-1.114.287c-.212-.547-.643-1.08-1.627-1.08-.909 0-1.593.471-1.593 1.107 0 .567.39.882 1.285 1.094l1.156.273c1.387.328 2.037 1.019 2.037 2.065 0 1.34-1.224 2.317-3.015 2.317Zm8.737-.164v-7.643h1.23V108h-1.23Zm.622-8.894c-.465 0-.855-.362-.855-.813 0-.451.39-.814.855-.814.471 0 .861.363.861.814 0 .451-.39.813-.861.813Zm3.999 4.314V108h-1.231v-7.643h1.183l.007 1.853h-.171c.465-1.408 1.353-1.948 2.509-1.948 1.544 0 2.59.95 2.59 2.884V108h-1.237v-4.751c0-1.176-.656-1.88-1.723-1.88-1.1 0-1.927.745-1.927 2.051Zm13.131 4.758c-1.449 0-2.604-.848-2.604-2.352 0-1.75 1.559-2.071 2.974-2.249 1.36-.171 1.962-.13 1.962-.697v-.041c0-.95-.541-1.497-1.6-1.497-1.101 0-1.695.588-1.935 1.121l-1.182-.39c.588-1.387 1.9-1.811 3.083-1.811 1.025 0 2.864.314 2.864 2.7V108h-1.21v-1.039h-.082c-.26.54-.978 1.217-2.27 1.217Zm.212-1.087c1.361 0 2.12-.916 2.12-1.853v-1.059c-.206.239-1.545.376-2.017.437-.896.116-1.682.404-1.682 1.272 0 .793.663 1.203 1.579 1.203ZM84.641 128.089a.92.92 0 1 1 .923-.923.923.923 0 0 1-.923.923Z" fill="#3A383F"/><path d="M315.777 100.357v1.053h-4.498v-1.053h4.498ZM312.783 108v-8.661c0-1.326 1.06-2.003 2.174-2.003.581 0 .964.123 1.148.205l-.341 1.053c-.13-.041-.322-.116-.663-.116-.759 0-1.087.396-1.087 1.134V108h-1.231Zm7.697.164c-2.214 0-3.582-1.572-3.582-3.924 0-2.344 1.354-3.978 3.439-3.978 1.62 0 3.329.998 3.329 3.821v.513h-5.934v-1.039h5.271l-.574.382c0-1.503-.711-2.584-2.092-2.584-1.381 0-2.194 1.142-2.194 2.386v.691c0 1.702.943 2.638 2.344 2.638.903 0 1.579-.396 1.867-1.175l1.189.328c-.355 1.155-1.497 1.941-3.063 1.941Zm8.163 0c-2.215 0-3.582-1.572-3.582-3.924 0-2.344 1.353-3.978 3.438-3.978 1.62 0 3.329.998 3.329 3.821v.513h-5.933v-1.039h5.27l-.574.382c0-1.503-.711-2.584-2.092-2.584-1.381 0-2.194 1.142-2.194 2.386v.691c0 1.702.943 2.638 2.344 2.638.903 0 1.58-.396 1.867-1.175l1.189.328c-.355 1.155-1.497 1.941-3.062 1.941Zm7.813 0c-1.907 0-3.233-1.531-3.233-3.965 0-2.42 1.333-3.937 3.24-3.937 1.49 0 1.962.916 2.215 1.319h.095v-3.767h1.231V108h-1.19v-1.183h-.136c-.253.424-.766 1.347-2.222 1.347Zm.185-1.101c1.387 0 2.146-1.175 2.146-2.877 0-1.689-.738-2.824-2.146-2.824-1.45 0-2.167 1.238-2.167 2.824 0 1.606.738 2.877 2.167 2.877Zm9.071 1.101c-1.456 0-1.969-.923-2.222-1.347h-.136V108h-1.19V97.814h1.231v3.767h.095c.253-.403.725-1.319 2.215-1.319 1.907 0 3.24 1.517 3.24 3.937 0 2.434-1.326 3.965-3.233 3.965Zm-.185-1.101c1.429 0 2.167-1.271 2.167-2.877 0-1.586-.717-2.824-2.167-2.824-1.408 0-2.146 1.135-2.146 2.824 0 1.702.759 2.877 2.146 2.877Zm7.486 1.115c-1.45 0-2.605-.848-2.605-2.352 0-1.75 1.559-2.071 2.974-2.249 1.36-.171 1.962-.13 1.962-.697v-.041c0-.95-.54-1.497-1.6-1.497-1.1 0-1.695.588-1.934 1.121l-1.183-.39c.588-1.387 1.9-1.811 3.083-1.811 1.025 0 2.864.314 2.864 2.7V108h-1.21v-1.039h-.082c-.26.54-.977 1.217-2.269 1.217Zm.212-1.087c1.36 0 2.119-.916 2.119-1.853v-1.059c-.205.239-1.545.376-2.017.437-.895.116-1.681.404-1.681 1.272 0 .793.663 1.203 1.579 1.203Zm8.62 1.073c-2.078 0-3.48-1.579-3.48-3.937 0-2.393 1.402-3.965 3.48-3.965 1.476 0 2.679.779 3.096 2.112l-1.182.335c-.226-.786-.909-1.347-1.914-1.347-1.525 0-2.229 1.34-2.229 2.865 0 1.503.704 2.836 2.229 2.836 1.025 0 1.722-.581 1.948-1.408l1.176.335c-.41 1.361-1.627 2.174-3.124 2.174Zm6.043-2.912v-1.524h.225l3.268-3.371h1.524l-3.534 3.63h-.137l-1.346 1.265ZM366.732 108V97.814h1.231V108h-1.231Zm4.833 0-2.925-3.739.875-.868 3.63 4.607h-1.58ZM49.08 128v-7.643h1.23V128h-1.23Zm.622-8.894c-.465 0-.854-.362-.854-.813 0-.451.39-.814.854-.814.472 0 .861.363.861.814 0 .451-.39.813-.86.813Zm5.366 9.058c-1.572 0-2.666-.697-2.94-2.017l1.17-.28c.219.841.84 1.217 1.757 1.217 1.066 0 1.75-.526 1.75-1.155 0-.527-.37-.875-1.121-1.053l-1.272-.301c-1.388-.328-2.05-1.012-2.05-2.085 0-1.312 1.203-2.228 2.83-2.228 1.572 0 2.399.765 2.748 1.839l-1.115.287c-.212-.547-.642-1.08-1.627-1.08-.909 0-1.593.471-1.593 1.107 0 .567.39.882 1.286 1.094l1.155.273c1.388.328 2.037 1.019 2.037 2.065 0 1.34-1.224 2.317-3.015 2.317Zm7.397 0c-1.572 0-2.666-.697-2.94-2.017l1.17-.28c.218.841.84 1.217 1.756 1.217 1.067 0 1.75-.526 1.75-1.155 0-.527-.369-.875-1.12-1.053l-1.272-.301c-1.388-.328-2.051-1.012-2.051-2.085 0-1.312 1.203-2.228 2.83-2.228 1.572 0 2.4.765 2.748 1.839l-1.114.287c-.212-.547-.643-1.08-1.627-1.08-.91 0-1.593.471-1.593 1.107 0 .567.39.882 1.285 1.094l1.155.273c1.388.328 2.038 1.019 2.038 2.065 0 1.34-1.224 2.317-3.015 2.317Zm7.39-.068c-1.545 0-2.591-.95-2.591-2.885v-4.854h1.23v4.751c0 1.176.663 1.88 1.73 1.88 1.093 0 1.92-.745 1.92-2.05v-4.581h1.238V128h-1.19v-1.853h.164c-.471 1.436-1.38 1.949-2.501 1.949Zm8.907.068c-2.215 0-3.582-1.572-3.582-3.924 0-2.344 1.353-3.978 3.438-3.978 1.62 0 3.33.998 3.33 3.821v.513h-5.934v-1.039h5.27l-.574.382c0-1.503-.711-2.584-2.092-2.584-1.38 0-2.194 1.142-2.194 2.386v.691c0 1.702.943 2.638 2.345 2.638.902 0 1.579-.396 1.866-1.175l1.19.328c-.356 1.155-1.498 1.941-3.063 1.941Z" fill="#0B5CAD"/></g><defs><clipPath id="general-feedback__a"><path fill="#fff" d="M0 0h400v149H0z"/></clipPath><clipPath id="general-feedback__c"><path fill="#fff" transform="translate(372 20.5)" d="M0 0h16v16H0z"/></clipPath><clipPath id="general-feedback__d"><path fill="#fff" transform="translate(16 75)" d="M0 0h16v16H0z"/></clipPath><filter id="general-feedback__b" x="0" y="0" width="400" height="57" filterUnits="userSpaceOnUse" color-interpolation-filters="sRGB"><feFlood flood-opacity="0" result="BackgroundImageFix"/><feBlend in="SourceGraphic" in2="BackgroundImageFix" result="shape"/><feColorMatrix in="SourceAlpha" values="0 0 0 0 0 0 0 0 0 0 0 0 0 0 0 0 0 0 127 0" result="hardAlpha"/><feOffset dy="-1"/><feComposite in2="hardAlpha" operator="arithmetic" k2="-1" k3="1"/><feColorMatrix values="0 0 0 0 0.749933 0 0 0 0 0.75 0 0 0 0 0.749877 0 0 0 1 0"/><feBlend in2="shape" result="effect1_innerShadow_37686_4830"/></filter></defs></svg>