<svg width="317" height="401" viewBox="0 0 317 401" fill="none" xmlns="http://www.w3.org/2000/svg">
<line x1="45" y1="83.5" x2="54" y2="83.5" stroke="#7B58CF" stroke-width="2" stroke-linecap="round"/>
<path d="M61 3H55V166H61" stroke="#7B58CF" stroke-width="2" stroke-linecap="round" stroke-linejoin="round"/>
<circle cx="20" cy="87.4093" r="16" fill="#7B58CF"/>
<circle cx="20" cy="87.4093" r="18" stroke="#7B58CF" stroke-opacity="0.3" stroke-width="4"/>
<path d="M19.9912 81.8517L18.1191 88.5665H21.8633L19.9912 81.8517ZM18.9189 80.2872H21.0723L25.0889 93.4093H23.252L22.2852 89.9904H17.6885L16.7393 93.4093H14.9023L18.9189 80.2872Z" fill="white"/>
<line x1="45" y1="287.5" x2="54" y2="287.5" stroke="#7B58CF" stroke-width="2" stroke-linecap="round"/>
<path d="M61 179H55V398H61" stroke="#7B58CF" stroke-width="2" stroke-linecap="round" stroke-linejoin="round"/>
<circle cx="20" cy="287.409" r="16" fill="#7B58CF"/>
<circle cx="20" cy="287.409" r="18" stroke="#7B58CF" stroke-opacity="0.3" stroke-width="4"/>
<path d="M16.625 280.287H24.3506V281.781H18.4092V285.297H23.7969V286.791H18.4092V293.409H16.625V280.287Z" fill="white"/>
<g style="mix-blend-mode:multiply">
<rect x="69" width="248" height="32" rx="4" fill="#ECECEF"/>
<path fill-rule="evenodd" clip-rule="evenodd" d="M94.5 10.5L83.5 10.5V13L94.5 13V10.5ZM94.5 14.5L87.5 14.5V21.5H94.5V14.5ZM86 14.5H83.5V21.5H86V14.5ZM83.5 9H82V10.5V21.5V23H83.5H94.5H96V21.5V10.5V9H94.5L83.5 9Z" fill="#535158"/>
<path d="M73 5.5C73 4.67157 73.6716 4 74.5 4V4C75.3284 4 76 4.67157 76 5.5V26.5C76 27.3284 75.3284 28 74.5 28V28C73.6716 28 73 27.3284 73 26.5V5.5Z" fill="#1F75CB"/>
<rect x="110" y="12" width="89" height="8" rx="2" fill="#737278"/>
<g style="mix-blend-mode:multiply">
<rect x="271" y="8" width="35" height="16" rx="8" fill="#89888D"/>
</g>
</g>
<path fill-rule="evenodd" clip-rule="evenodd" d="M94.5 42.5H83.5V45H94.5V42.5ZM94.5 46.5H87.5V53.5H94.5V46.5ZM86 46.5H83.5V53.5H86V46.5ZM83.5 41H82V42.5V53.5V55H83.5H94.5H96V53.5V42.5V41H94.5H83.5Z" fill="#737278"/>
<rect x="110" y="44" width="64" height="8" rx="2" fill="#A4A3A8"/>
<g style="mix-blend-mode:multiply">
<rect x="270" y="40" width="35" height="16" rx="8" fill="#89888D"/>
</g>
<path fill-rule="evenodd" clip-rule="evenodd" d="M94.5 74.5H83.5V77H94.5V74.5ZM94.5 78.5H87.5V85.5H94.5V78.5ZM86 78.5H83.5V85.5H86V78.5ZM83.5 73H82V74.5V85.5V87H83.5H94.5H96V85.5V74.5V73H94.5H83.5Z" fill="#737278"/>
<rect x="110" y="76" width="127" height="8" rx="2" fill="#A4A3A8"/>
<g style="mix-blend-mode:multiply">
<rect x="270" y="72" width="35" height="16" rx="8" fill="#89888D"/>
</g>
<path fill-rule="evenodd" clip-rule="evenodd" d="M94.5 106.5H83.5V109H94.5V106.5ZM94.5 110.5H87.5V117.5H94.5V110.5ZM86 110.5H83.5V117.5H86V110.5ZM83.5 105H82V106.5V117.5V119H83.5H94.5H96V117.5V106.5V105H94.5H83.5Z" fill="#737278"/>
<rect x="110" y="108" width="104" height="8" rx="2" fill="#A4A3A8"/>
<g style="mix-blend-mode:multiply">
<rect x="270" y="104" width="35" height="16" rx="8" fill="#89888D"/>
</g>
<path fill-rule="evenodd" clip-rule="evenodd" d="M94.5 138.5H83.5V141H94.5V138.5ZM94.5 142.5H87.5V149.5H94.5V142.5ZM86 142.5H83.5V149.5H86V142.5ZM83.5 137H82V138.5V149.5V151H83.5H94.5H96V149.5V138.5V137H94.5H83.5Z" fill="#737278"/>
<rect x="110" y="140" width="104" height="8" rx="2" fill="#A4A3A8"/>
<g style="mix-blend-mode:multiply">
<rect x="270" y="136" width="35" height="16" rx="8" fill="#89888D"/>
</g>
<rect x="81" y="168" width="224" height="1" fill="#ECECEF"/>
<rect x="79" y="187" width="65" height="8" rx="2" fill="#BFBFC3"/>
<g style="mix-blend-mode:multiply">
<rect x="81.5" y="213.5" width="15" height="15" rx="3.5" fill="white"/>
<rect x="81.5" y="213.5" width="15" height="15" rx="3.5" stroke="#89888D"/>
<rect x="110" y="217" width="65" height="8" rx="2" fill="#A4A3A8"/>
</g>
<g style="mix-blend-mode:multiply">
<rect x="81.5" y="245.5" width="15" height="15" rx="3.5" fill="white"/>
<rect x="81.5" y="245.5" width="15" height="15" rx="3.5" stroke="#89888D"/>
<rect x="110" y="249" width="51" height="8" rx="2" fill="#A4A3A8"/>
</g>
<rect x="79" y="283" width="65" height="8" rx="2" fill="#BFBFC3"/>
<g style="mix-blend-mode:multiply">
<rect x="81.5" y="309.5" width="15" height="15" rx="3.5" fill="white"/>
<rect x="81.5" y="309.5" width="15" height="15" rx="3.5" stroke="#89888D"/>
<rect x="110" y="313" width="65" height="8" rx="2" fill="#A4A3A8"/>
</g>
<g style="mix-blend-mode:multiply">
<rect x="81.5" y="341.5" width="15" height="15" rx="3.5" fill="white"/>
<rect x="81.5" y="341.5" width="15" height="15" rx="3.5" stroke="#89888D"/>
<rect x="110" y="345" width="51" height="8" rx="2" fill="#A4A3A8"/>
</g>
<rect x="79.5" y="373.5" width="57" height="23" rx="3.5" fill="#FBFAFD"/>
<rect x="87" y="380.5" width="42" height="9" rx="2" fill="#D9D9D9"/>
<rect x="79.5" y="373.5" width="57" height="23" rx="3.5" stroke="#DCDCDE"/>
</svg>
