<svg width="319" height="501" viewBox="0 0 319 501" fill="none" xmlns="http://www.w3.org/2000/svg">
<line x1="1" y1="-1" x2="10" y2="-1" transform="matrix(1 4.53408e-09 -1.68562e-06 1 44 481.5)" stroke="#7B58CF" stroke-width="2" stroke-linecap="round"/>
<path d="M61 465.5H55V497.5H61" stroke="#7B58CF" stroke-width="2" stroke-linecap="round" stroke-linejoin="round"/>
<circle cx="20" cy="480.5" r="16" fill="#7B58CF"/>
<circle cx="20" cy="480.5" r="18" stroke="#7B58CF" stroke-opacity="0.3" stroke-width="4"/>
<path d="M24.0078 486.034C23.5566 486.274 23.0938 486.453 22.6191 486.57C22.1445 486.693 21.6406 486.755 21.1074 486.755C19.4258 486.755 18.1191 486.16 17.1875 484.971C16.2617 483.781 15.7988 482.108 15.7988 479.952C15.7988 477.808 16.2646 476.138 17.1963 474.942C18.1338 473.741 19.4375 473.141 21.1074 473.141C21.6406 473.141 22.1445 473.202 22.6191 473.325C23.0938 473.442 23.5566 473.621 24.0078 473.861V475.681C23.5742 475.323 23.1084 475.051 22.6104 474.863C22.1123 474.676 21.6113 474.582 21.1074 474.582C19.9531 474.582 19.0889 475.027 18.5146 475.918C17.9404 476.809 17.6533 478.153 17.6533 479.952C17.6533 481.745 17.9404 483.087 18.5146 483.978C19.0889 484.868 19.9531 485.313 21.1074 485.313C21.623 485.313 22.127 485.22 22.6191 485.032C23.1172 484.845 23.5801 484.572 24.0078 484.215V486.034Z" fill="white"/>
<line x1="45" y1="341.5" x2="54" y2="341.5" stroke="#7B58CF" stroke-width="2" stroke-linecap="round"/>
<path d="M61 229.5H55V455.5H61" stroke="#7B58CF" stroke-width="2" stroke-linecap="round" stroke-linejoin="round"/>
<circle cx="20" cy="342.5" r="16" fill="#7B58CF"/>
<circle cx="20" cy="342.5" r="18" stroke="#7B58CF" stroke-opacity="0.3" stroke-width="4"/>
<path d="M17.8203 341.882V347.041H19.9209C20.9521 347.041 21.6875 346.862 22.127 346.505C22.5664 346.142 22.7861 345.547 22.7861 344.721C22.7861 343.631 22.5547 342.887 22.0918 342.488C21.6289 342.084 20.9053 341.882 19.9209 341.882H17.8203ZM17.8203 336.837V340.44H19.8857C20.7412 340.44 21.3594 340.276 21.7402 339.948C22.127 339.62 22.3203 339.207 22.3203 338.709C22.3203 338.047 22.1299 337.569 21.749 337.276C21.374 336.983 20.7529 336.837 19.8857 336.837H17.8203ZM16.0361 335.378H19.9209C21.2627 335.378 22.2969 335.668 23.0234 336.248C23.75 336.828 24.1133 337.648 24.1133 338.709C24.1133 339.277 23.9199 339.793 23.5332 340.256C23.1523 340.719 22.5781 341.009 21.8105 341.126C22.6719 341.255 23.3457 341.624 23.832 342.233C24.3242 342.837 24.5703 343.725 24.5703 344.896C24.5703 346.086 24.1807 346.985 23.4014 347.595C22.6221 348.198 21.4619 348.5 19.9209 348.5H16.0361V335.378Z" fill="white"/>
<line x1="47" y1="161.5" x2="56" y2="161.5" stroke="#7B58CF" stroke-width="2" stroke-linecap="round"/>
<path d="M63 112.5H57V212.5H63" stroke="#7B58CF" stroke-width="2" stroke-linecap="round" stroke-linejoin="round"/>
<circle cx="22" cy="162.5" r="16" fill="#7B58CF"/>
<circle cx="22" cy="162.5" r="18" stroke="#7B58CF" stroke-opacity="0.3" stroke-width="4"/>
<path d="M20.4092 167.041C21.9033 167.041 22.9463 166.675 23.5381 165.942C24.1299 165.204 24.4258 163.874 24.4258 161.952C24.4258 160.013 24.1299 158.677 23.5381 157.944C22.9521 157.206 21.9092 156.837 20.4092 156.837H19.5654V167.041H20.4092ZM20.4443 155.378C22.4482 155.378 23.9248 155.911 24.874 156.978C25.8232 158.044 26.2979 159.702 26.2979 161.952C26.2979 164.19 25.8232 165.843 24.874 166.909C23.9248 167.97 22.4482 168.5 20.4443 168.5H17.7812V155.378H20.4443Z" fill="white"/>
<line x1="47" y1="50.5" x2="56" y2="50.5" stroke="#7B58CF" stroke-width="2" stroke-linecap="round"/>
<path d="M63 1.5H57V101.5H63" stroke="#7B58CF" stroke-width="2" stroke-linecap="round" stroke-linejoin="round"/>
<circle cx="22" cy="51.5" r="16" fill="#7B58CF"/>
<circle cx="22" cy="51.5" r="18" stroke="#7B58CF" stroke-opacity="0.3" stroke-width="4"/>
<path d="M21.9912 45.9424L20.1191 52.6572H23.8633L21.9912 45.9424ZM20.9189 44.3779H23.0723L27.0889 57.5H25.252L24.2852 54.0811H19.6885L18.7393 57.5H16.9023L20.9189 44.3779Z" fill="white"/>
<g style="mix-blend-mode:multiply">
<rect x="71" width="248" height="32" rx="4" fill="#ECECEF"/>
<path fill-rule="evenodd" clip-rule="evenodd" d="M96.5 10.5L85.5 10.5V13L96.5 13V10.5ZM96.5 14.5L89.5 14.5V21.5H96.5V14.5ZM88 14.5H85.5V21.5H88V14.5ZM85.5 9H84V10.5V21.5V23H85.5H96.5H98V21.5V10.5V9H96.5L85.5 9Z" fill="#535158"/>
<path d="M75 5.5C75 4.67157 75.6716 4 76.5 4V4C77.3284 4 78 4.67157 78 5.5V26.5C78 27.3284 77.3284 28 76.5 28V28C75.6716 28 75 27.3284 75 26.5V5.5Z" fill="#1F75CB"/>
<rect x="112" y="12" width="89" height="8" rx="2" fill="#737278"/>
</g>
<path fill-rule="evenodd" clip-rule="evenodd" d="M96.5 42.5H85.5V45H96.5V42.5ZM96.5 46.5H89.5V53.5H96.5V46.5ZM88 46.5H85.5V53.5H88V46.5ZM85.5 41H84V42.5V53.5V55H85.5H96.5H98V53.5V42.5V41H96.5H85.5Z" fill="#737278"/>
<rect x="112" y="44" width="64" height="8" rx="2" fill="#A4A3A8"/>
<g style="mix-blend-mode:multiply">
<rect x="272" y="40" width="35" height="16" rx="8" fill="#CBE2F9"/>
</g>
<path fill-rule="evenodd" clip-rule="evenodd" d="M96.5 74.5H85.5V77H96.5V74.5ZM96.5 78.5H89.5V85.5H96.5V78.5ZM88 78.5H85.5V85.5H88V78.5ZM85.5 73H84V74.5V85.5V87H85.5H96.5H98V85.5V74.5V73H96.5H85.5Z" fill="#737278"/>
<rect x="112" y="76" width="127" height="8" rx="2" fill="#A4A3A8"/>
<g style="mix-blend-mode:multiply">
<rect x="272" y="72" width="35" height="16" rx="8" fill="#CBE2F9"/>
</g>
<rect x="83" y="104" width="224" height="1" fill="#ECECEF"/>
<g style="mix-blend-mode:multiply">
<path fill-rule="evenodd" clip-rule="evenodd" d="M94.2803 122.22C93.9874 121.927 93.5126 121.927 93.2197 122.22C93.0297 122.41 92.9629 122.676 93.0194 122.92L89.6893 126.25H87.2071C86.0935 126.25 85.5358 127.596 86.3232 128.384L88.2344 130.295L84.5134 134.43C84.1829 134.797 84 135.273 84 135.767V136H84.2325C84.7266 136 85.2032 135.817 85.5705 135.487L89.7049 131.766L91.6161 133.677C92.4036 134.464 93.75 133.907 93.75 132.793V130.311L97.0801 126.981C97.3238 127.037 97.5904 126.97 97.7803 126.78C98.0732 126.487 98.0732 126.013 97.7803 125.72L97.1768 125.116L94.8839 122.823C94.8838 122.823 94.8836 122.823 94.8835 122.823L94.2803 122.22ZM95.9393 126L94 124.061L91.0607 127L93 128.939L95.9393 126ZM89.6893 127.75L92.25 130.311V132.189L87.8107 127.75H89.6893Z" fill="#737278"/>
<rect x="112" y="125" width="89" height="8" rx="2" fill="#A4A3A8"/>
<path fill-rule="evenodd" clip-rule="evenodd" d="M295.22 127.22C295.513 126.927 295.987 126.927 296.28 127.22L299 129.939L301.72 127.22C302.013 126.927 302.487 126.927 302.78 127.22C303.073 127.513 303.073 127.987 302.78 128.28L299.53 131.53C299.237 131.823 298.763 131.823 298.47 131.53L295.22 128.28C294.927 127.987 294.927 127.513 295.22 127.22Z" fill="#737278"/>
</g>
<rect x="112" y="157" width="70" height="8" rx="2" fill="#A4A3A8"/>
<rect x="112" y="189" width="117" height="8" rx="2" fill="#A4A3A8"/>
<rect x="83" y="217" width="224" height="1" fill="#ECECEF"/>
<g style="mix-blend-mode:multiply">
<g clip-path="url(#clip0_16653_30484)">
<path fill-rule="evenodd" clip-rule="evenodd" d="M84.5 238V236.5H89.1972L90.1972 238H84.5ZM83 238V236C83 235.448 83.4477 235 84 235H89.4648C89.7992 235 90.1114 235.167 90.2969 235.445L91.9635 237.945C91.9756 237.963 91.987 237.982 91.9977 238H98C98.5523 238 99 238.448 99 239V247C99 247.552 98.5523 248 98 248H84C83.4477 248 83 247.552 83 247V239.5V238.5V238ZM84.5 239.5V246.5H97.5V239.5H91.1315H84.5Z" fill="#737278"/>
</g>
<rect x="112" y="238" width="43" height="8" rx="2" fill="#A4A3A8"/>
<path fill-rule="evenodd" clip-rule="evenodd" d="M295.22 240.22C295.513 239.927 295.987 239.927 296.28 240.22L299 242.939L301.72 240.22C302.013 239.927 302.487 239.927 302.78 240.22C303.073 240.513 303.073 240.987 302.78 241.28L299.53 244.53C299.237 244.823 298.763 244.823 298.47 244.53L295.22 241.28C294.927 240.987 294.927 240.513 295.22 240.22Z" fill="#737278"/>
</g>
<g style="mix-blend-mode:multiply">
<g clip-path="url(#clip1_16653_30484)">
<path fill-rule="evenodd" clip-rule="evenodd" d="M84.5 270V268.5H89.1972L90.1972 270H84.5ZM83 270V268C83 267.448 83.4477 267 84 267H89.4648C89.7992 267 90.1114 267.167 90.2969 267.445L91.9635 269.945C91.9756 269.963 91.987 269.982 91.9977 270H98C98.5523 270 99 270.448 99 271V279C99 279.552 98.5523 280 98 280H84C83.4477 280 83 279.552 83 279V271.5V270.5V270ZM84.5 271.5V278.5H97.5V271.5H91.1315H84.5Z" fill="#737278"/>
</g>
<rect x="112" y="270" width="96" height="8" rx="2" fill="#A4A3A8"/>
<path fill-rule="evenodd" clip-rule="evenodd" d="M295.22 272.22C295.513 271.927 295.987 271.927 296.28 272.22L299 274.939L301.72 272.22C302.013 271.927 302.487 271.927 302.78 272.22C303.073 272.513 303.073 272.987 302.78 273.28L299.53 276.53C299.237 276.823 298.763 276.823 298.47 276.53L295.22 273.28C294.927 272.987 294.927 272.513 295.22 272.22Z" fill="#737278"/>
</g>
<g style="mix-blend-mode:multiply">
<g clip-path="url(#clip2_16653_30484)">
<path fill-rule="evenodd" clip-rule="evenodd" d="M84.5 302V300.5H89.1972L90.1972 302H84.5ZM83 302V300C83 299.448 83.4477 299 84 299H89.4648C89.7992 299 90.1114 299.167 90.2969 299.445L91.9635 301.945C91.9756 301.963 91.987 301.982 91.9977 302H98C98.5523 302 99 302.448 99 303V311C99 311.552 98.5523 312 98 312H84C83.4477 312 83 311.552 83 311V303.5V302.5V302ZM84.5 303.5V310.5H97.5V303.5H91.1315H84.5Z" fill="#737278"/>
</g>
<rect x="112" y="302" width="50" height="8" rx="2" fill="#A4A3A8"/>
<path fill-rule="evenodd" clip-rule="evenodd" d="M295.22 304.22C295.513 303.927 295.987 303.927 296.28 304.22L299 306.939L301.72 304.22C302.013 303.927 302.487 303.927 302.78 304.22C303.073 304.513 303.073 304.987 302.78 305.28L299.53 308.53C299.237 308.823 298.763 308.823 298.47 308.53L295.22 305.28C294.927 304.987 294.927 304.513 295.22 304.22Z" fill="#737278"/>
</g>
<g style="mix-blend-mode:multiply">
<g clip-path="url(#clip3_16653_30484)">
<path fill-rule="evenodd" clip-rule="evenodd" d="M84.5 334V332.5H89.1972L90.1972 334H84.5ZM83 334V332C83 331.448 83.4477 331 84 331H89.4648C89.7992 331 90.1114 331.167 90.2969 331.445L91.9635 333.945C91.9756 333.963 91.987 333.982 91.9977 334H98C98.5523 334 99 334.448 99 335V343C99 343.552 98.5523 344 98 344H84C83.4477 344 83 343.552 83 343V335.5V334.5V334ZM84.5 335.5V342.5H97.5V335.5H91.1315H84.5Z" fill="#737278"/>
</g>
<rect x="112" y="334" width="62" height="8" rx="2" fill="#A4A3A8"/>
<path fill-rule="evenodd" clip-rule="evenodd" d="M295.22 336.22C295.513 335.927 295.987 335.927 296.28 336.22L299 338.939L301.72 336.22C302.013 335.927 302.487 335.927 302.78 336.22C303.073 336.513 303.073 336.987 302.78 337.28L299.53 340.53C299.237 340.823 298.763 340.823 298.47 340.53L295.22 337.28C294.927 336.987 294.927 336.513 295.22 336.22Z" fill="#737278"/>
</g>
<g style="mix-blend-mode:multiply">
<g clip-path="url(#clip4_16653_30484)">
<path fill-rule="evenodd" clip-rule="evenodd" d="M84.5 366V364.5H89.1972L90.1972 366H84.5ZM83 366V364C83 363.448 83.4477 363 84 363H89.4648C89.7992 363 90.1114 363.167 90.2969 363.445L91.9635 365.945C91.9756 365.963 91.987 365.982 91.9977 366H98C98.5523 366 99 366.448 99 367V375C99 375.552 98.5523 376 98 376H84C83.4477 376 83 375.552 83 375V367.5V366.5V366ZM84.5 367.5V374.5H97.5V367.5H91.1315H84.5Z" fill="#737278"/>
</g>
<rect x="112" y="366" width="89" height="8" rx="2" fill="#A4A3A8"/>
<path fill-rule="evenodd" clip-rule="evenodd" d="M295.22 368.22C295.513 367.927 295.987 367.927 296.28 368.22L299 370.939L301.72 368.22C302.013 367.927 302.487 367.927 302.78 368.22C303.073 368.513 303.073 368.987 302.78 369.28L299.53 372.53C299.237 372.823 298.763 372.823 298.47 372.53L295.22 369.28C294.927 368.987 294.927 368.513 295.22 368.22Z" fill="#737278"/>
</g>
<g style="mix-blend-mode:multiply">
<g clip-path="url(#clip5_16653_30484)">
<path fill-rule="evenodd" clip-rule="evenodd" d="M84.5 398V396.5H89.1972L90.1972 398H84.5ZM83 398V396C83 395.448 83.4477 395 84 395H89.4648C89.7992 395 90.1114 395.167 90.2969 395.445L91.9635 397.945C91.9756 397.963 91.987 397.982 91.9977 398H98C98.5523 398 99 398.448 99 399V407C99 407.552 98.5523 408 98 408H84C83.4477 408 83 407.552 83 407V399.5V398.5V398ZM84.5 399.5V406.5H97.5V399.5H91.1315H84.5Z" fill="#737278"/>
</g>
<rect x="112" y="398" width="67" height="8" rx="2" fill="#A4A3A8"/>
<path fill-rule="evenodd" clip-rule="evenodd" d="M295.22 400.22C295.513 399.927 295.987 399.927 296.28 400.22L299 402.939L301.72 400.22C302.013 399.927 302.487 399.927 302.78 400.22C303.073 400.513 303.073 400.987 302.78 401.28L299.53 404.53C299.237 404.823 298.763 404.823 298.47 404.53L295.22 401.28C294.927 400.987 294.927 400.513 295.22 400.22Z" fill="#737278"/>
</g>
<g style="mix-blend-mode:multiply">
<g clip-path="url(#clip6_16653_30484)">
<path fill-rule="evenodd" clip-rule="evenodd" d="M84.5 430V428.5H89.1972L90.1972 430H84.5ZM83 430V428C83 427.448 83.4477 427 84 427H89.4648C89.7992 427 90.1114 427.167 90.2969 427.445L91.9635 429.945C91.9756 429.963 91.987 429.982 91.9977 430H98C98.5523 430 99 430.448 99 431V439C99 439.552 98.5523 440 98 440H84C83.4477 440 83 439.552 83 439V431.5V430.5V430ZM84.5 431.5V438.5H97.5V431.5H91.1315H84.5Z" fill="#737278"/>
</g>
<rect x="112" y="430" width="89" height="8" rx="2" fill="#A4A3A8"/>
<path fill-rule="evenodd" clip-rule="evenodd" d="M295.22 432.22C295.513 431.927 295.987 431.927 296.28 432.22L299 434.939L301.72 432.22C302.013 431.927 302.487 431.927 302.78 432.22C303.073 432.513 303.073 432.987 302.78 433.28L299.53 436.53C299.237 436.823 298.763 436.823 298.47 436.53L295.22 433.28C294.927 432.987 294.927 432.513 295.22 432.22Z" fill="#737278"/>
</g>
<rect x="83" y="458" width="224" height="1" fill="#ECECEF"/>
<g style="mix-blend-mode:multiply">
<path fill-rule="evenodd" clip-rule="evenodd" d="M90.0103 477.233L90.1341 476.5H91.8662L91.99 477.233C92.0538 477.611 92.3227 477.905 92.6648 478.019C93.3409 478.245 93.9565 478.605 94.4796 479.069C94.7497 479.308 95.1391 479.393 95.4975 479.26L96.1964 479L97.0624 480.5L96.4887 480.974C96.1942 481.218 96.0737 481.597 96.1453 481.95C96.2139 482.289 96.25 482.64 96.25 483C96.25 483.36 96.2139 483.711 96.1453 484.05C96.0737 484.403 96.1942 484.782 96.4887 485.026L97.0622 485.5L96.1962 487L95.4975 486.74C95.1391 486.607 94.7497 486.692 94.4795 486.931C93.9564 487.395 93.3409 487.755 92.6648 487.981C92.3227 488.095 92.0538 488.389 91.99 488.767L91.8662 489.5H90.1341L90.0103 488.767C89.9465 488.389 89.6776 488.095 89.3355 487.981C88.6593 487.755 88.0437 487.395 87.5206 486.931C87.2504 486.692 86.861 486.607 86.5026 486.74L85.804 487L84.938 485.5L85.5114 485.026C85.8059 484.782 85.9265 484.403 85.8548 484.05C85.7862 483.711 85.75 483.36 85.75 483C85.75 482.64 85.7862 482.289 85.8549 481.95C85.9265 481.597 85.8059 481.218 85.5114 480.974L84.938 480.5L85.8041 479L86.5027 479.26C86.8611 479.393 87.2504 479.308 87.5206 479.069C88.0437 478.605 88.6593 478.245 89.3355 478.019C89.6776 477.905 89.9465 477.611 90.0103 477.233ZM89.9228 475C89.3127 475 88.7918 475.44 88.6902 476.042L88.5796 476.697C87.9132 476.953 87.2981 477.312 86.7536 477.753L86.1292 477.52C85.5575 477.308 84.9157 477.539 84.6107 478.067L83.5333 479.933C83.2283 480.461 83.3492 481.133 83.8193 481.521L84.3321 481.945C84.278 482.289 84.25 482.642 84.25 483C84.25 483.358 84.278 483.711 84.3321 484.055L83.8193 484.479C83.3491 484.867 83.2282 485.539 83.5333 486.067L84.6106 487.933C84.9156 488.461 85.5574 488.692 86.1291 488.48L86.7535 488.247C87.2981 488.688 87.9132 489.047 88.5796 489.303L88.6902 489.958C88.7918 490.56 89.3127 491 89.9228 491H92.0775C92.6875 491 93.2085 490.56 93.31 489.958L93.4207 489.303C94.087 489.047 94.702 488.688 95.2466 488.247L95.871 488.48C96.4427 488.692 97.0846 488.461 97.3896 487.933L98.4669 486.067C98.7719 485.539 98.6511 484.867 98.1809 484.479L97.668 484.055C97.7221 483.711 97.75 483.358 97.75 483C97.75 482.642 97.7221 482.29 97.6681 481.946L98.1811 481.521C98.6512 481.133 98.7721 480.461 98.4671 479.933L97.3897 478.067C97.0847 477.539 96.4429 477.308 95.8712 477.52L95.2466 477.753C94.7021 477.312 94.0871 476.953 93.4207 476.697L93.31 476.042C93.2085 475.44 92.6875 475 92.0775 475H89.9228ZM88.75 483C88.75 481.757 89.7574 480.75 91 480.75C92.2427 480.75 93.25 481.757 93.25 483C93.25 484.243 92.2427 485.25 91 485.25C89.7574 485.25 88.75 484.243 88.75 483ZM91 479.25C88.929 479.25 87.25 480.929 87.25 483C87.25 485.071 88.929 486.75 91 486.75C93.0711 486.75 94.75 485.071 94.75 483C94.75 480.929 93.0711 479.25 91 479.25Z" fill="#737278"/>
<rect x="112" y="479" width="65" height="8" rx="2" fill="#A4A3A8"/>
</g>
<defs>
<clipPath id="clip0_16653_30484">
<rect width="16" height="16" fill="white" transform="translate(83 234)"/>
</clipPath>
<clipPath id="clip1_16653_30484">
<rect width="16" height="16" fill="white" transform="translate(83 266)"/>
</clipPath>
<clipPath id="clip2_16653_30484">
<rect width="16" height="16" fill="white" transform="translate(83 298)"/>
</clipPath>
<clipPath id="clip3_16653_30484">
<rect width="16" height="16" fill="white" transform="translate(83 330)"/>
</clipPath>
<clipPath id="clip4_16653_30484">
<rect width="16" height="16" fill="white" transform="translate(83 362)"/>
</clipPath>
<clipPath id="clip5_16653_30484">
<rect width="16" height="16" fill="white" transform="translate(83 394)"/>
</clipPath>
<clipPath id="clip6_16653_30484">
<rect width="16" height="16" fill="white" transform="translate(83 426)"/>
</clipPath>
</defs>
</svg>
