<svg width="319" height="543" viewBox="0 0 319 543" fill="none" xmlns="http://www.w3.org/2000/svg">
<line x1="1" y1="-1" x2="10" y2="-1" transform="matrix(1 4.53408e-09 -1.68562e-06 1 44 523.5)" stroke="#7B58CF" stroke-width="2" stroke-linecap="round"/>
<path d="M61 507.5H55V539.5H61" stroke="#7B58CF" stroke-width="2" stroke-linecap="round" stroke-linejoin="round"/>
<circle cx="20" cy="522.5" r="16" fill="#7B58CF"/>
<circle cx="20" cy="522.5" r="18" stroke="#7B58CF" stroke-opacity="0.3" stroke-width="4"/>
<path d="M24.0078 528.034C23.5566 528.274 23.0938 528.453 22.6191 528.57C22.1445 528.693 21.6406 528.755 21.1074 528.755C19.4258 528.755 18.1191 528.16 17.1875 526.971C16.2617 525.781 15.7988 524.108 15.7988 521.952C15.7988 519.808 16.2646 518.138 17.1963 516.942C18.1338 515.741 19.4375 515.141 21.1074 515.141C21.6406 515.141 22.1445 515.202 22.6191 515.325C23.0938 515.442 23.5566 515.621 24.0078 515.861V517.681C23.5742 517.323 23.1084 517.051 22.6104 516.863C22.1123 516.676 21.6113 516.582 21.1074 516.582C19.9531 516.582 19.0889 517.027 18.5146 517.918C17.9404 518.809 17.6533 520.153 17.6533 521.952C17.6533 523.745 17.9404 525.087 18.5146 525.978C19.0889 526.868 19.9531 527.313 21.1074 527.313C21.623 527.313 22.127 527.22 22.6191 527.032C23.1172 526.845 23.5801 526.572 24.0078 526.215V528.034Z" fill="white"/>
<line x1="45" y1="383.5" x2="54" y2="383.5" stroke="#7B58CF" stroke-width="2" stroke-linecap="round"/>
<path d="M61 271.5H55V497.5H61" stroke="#7B58CF" stroke-width="2" stroke-linecap="round" stroke-linejoin="round"/>
<circle cx="20" cy="384.5" r="16" fill="#7B58CF"/>
<circle cx="20" cy="384.5" r="18" stroke="#7B58CF" stroke-opacity="0.3" stroke-width="4"/>
<path d="M17.8203 383.882V389.041H19.9209C20.9521 389.041 21.6875 388.862 22.127 388.505C22.5664 388.142 22.7861 387.547 22.7861 386.721C22.7861 385.631 22.5547 384.887 22.0918 384.488C21.6289 384.084 20.9053 383.882 19.9209 383.882H17.8203ZM17.8203 378.837V382.44H19.8857C20.7412 382.44 21.3594 382.276 21.7402 381.948C22.127 381.62 22.3203 381.207 22.3203 380.709C22.3203 380.047 22.1299 379.569 21.749 379.276C21.374 378.983 20.7529 378.837 19.8857 378.837H17.8203ZM16.0361 377.378H19.9209C21.2627 377.378 22.2969 377.668 23.0234 378.248C23.75 378.828 24.1133 379.648 24.1133 380.709C24.1133 381.277 23.9199 381.793 23.5332 382.256C23.1523 382.719 22.5781 383.009 21.8105 383.126C22.6719 383.255 23.3457 383.624 23.832 384.233C24.3242 384.837 24.5703 385.725 24.5703 386.896C24.5703 388.086 24.1807 388.985 23.4014 389.595C22.6221 390.198 21.4619 390.5 19.9209 390.5H16.0361V377.378Z" fill="white"/>
<line x1="47" y1="203.5" x2="56" y2="203.5" stroke="#7B58CF" stroke-width="2" stroke-linecap="round"/>
<path d="M63 154.5H57V254.5H63" stroke="#7B58CF" stroke-width="2" stroke-linecap="round" stroke-linejoin="round"/>
<circle cx="22" cy="204.5" r="16" fill="#7B58CF"/>
<circle cx="22" cy="204.5" r="18" stroke="#7B58CF" stroke-opacity="0.3" stroke-width="4"/>
<path d="M20.4092 209.041C21.9033 209.041 22.9463 208.675 23.5381 207.942C24.1299 207.204 24.4258 205.874 24.4258 203.952C24.4258 202.013 24.1299 200.677 23.5381 199.944C22.9521 199.206 21.9092 198.837 20.4092 198.837H19.5654V209.041H20.4092ZM20.4443 197.378C22.4482 197.378 23.9248 197.911 24.874 198.978C25.8232 200.044 26.2979 201.702 26.2979 203.952C26.2979 206.19 25.8232 207.843 24.874 208.909C23.9248 209.97 22.4482 210.5 20.4443 210.5H17.7812V197.378H20.4443Z" fill="white"/>
<line x1="47" y1="92.5" x2="56" y2="92.5" stroke="#7B58CF" stroke-width="2" stroke-linecap="round"/>
<path d="M63 43.5H57V143.5H63" stroke="#7B58CF" stroke-width="2" stroke-linecap="round" stroke-linejoin="round"/>
<circle cx="22" cy="93.5" r="16" fill="#7B58CF"/>
<circle cx="22" cy="93.5" r="18" stroke="#7B58CF" stroke-opacity="0.3" stroke-width="4"/>
<path d="M21.9912 87.9424L20.1191 94.6572H23.8633L21.9912 87.9424ZM20.9189 86.3779H23.0723L27.0889 99.5H25.252L24.2852 96.0811H19.6885L18.7393 99.5H16.9023L20.9189 86.3779Z" fill="white"/>
<g style="mix-blend-mode:multiply">
<rect x="71" y="42" width="248" height="32" rx="4" fill="#ECECEF"/>
<path fill-rule="evenodd" clip-rule="evenodd" d="M96.5 52.5H85.5V55H96.5V52.5ZM96.5 56.5H89.5V63.5H96.5V56.5ZM88 56.5H85.5V63.5L88 63.5V56.5ZM85.5 51H84V52.5V63.5V65H85.5H96.5H98V63.5V52.5V51H96.5H85.5Z" fill="#535158"/>
<path d="M75 47.5C75 46.6716 75.6716 46 76.5 46V46C77.3284 46 78 46.6716 78 47.5V68.5C78 69.3284 77.3284 70 76.5 70V70C75.6716 70 75 69.3284 75 68.5V47.5Z" fill="#1F75CB"/>
<rect x="112" y="54" width="89" height="8" rx="2" fill="#737278"/>
</g>
<path fill-rule="evenodd" clip-rule="evenodd" d="M96.5 84.5H85.5V87H96.5V84.5ZM96.5 88.5H89.5V95.5H96.5V88.5ZM88 88.5H85.5V95.5H88V88.5ZM85.5 83H84V84.5V95.5V97H85.5H96.5H98V95.5V84.5V83H96.5H85.5Z" fill="#737278"/>
<rect x="112" y="86" width="64" height="8" rx="2" fill="#A4A3A8"/>
<g style="mix-blend-mode:multiply">
<rect x="272" y="82" width="35" height="16" rx="8" fill="#CBE2F9"/>
</g>
<path fill-rule="evenodd" clip-rule="evenodd" d="M96.5 116.5H85.5V119H96.5V116.5ZM96.5 120.5H89.5V127.5H96.5V120.5ZM88 120.5H85.5V127.5H88V120.5ZM85.5 115H84V116.5V127.5V129H85.5H96.5H98V127.5V116.5V115H96.5H85.5Z" fill="#737278"/>
<rect x="112" y="118" width="127" height="8" rx="2" fill="#A4A3A8"/>
<g style="mix-blend-mode:multiply">
<rect x="272" y="114" width="35" height="16" rx="8" fill="#CBE2F9"/>
</g>
<rect x="83" y="146" width="224" height="1" fill="#ECECEF"/>
<g style="mix-blend-mode:multiply">
<path fill-rule="evenodd" clip-rule="evenodd" d="M94.2803 164.22C93.9874 163.927 93.5126 163.927 93.2197 164.22C93.0297 164.41 92.9629 164.676 93.0194 164.92L89.6893 168.25H87.2071C86.0935 168.25 85.5358 169.596 86.3232 170.384L88.2344 172.295L84.5134 176.43C84.1829 176.797 84 177.273 84 177.767V178H84.2325C84.7266 178 85.2032 177.817 85.5705 177.487L89.7049 173.766L91.6161 175.677C92.4036 176.464 93.75 175.907 93.75 174.793V172.311L97.0801 168.981C97.3238 169.037 97.5904 168.97 97.7803 168.78C98.0732 168.487 98.0732 168.013 97.7803 167.72L97.1768 167.116L94.8839 164.823C94.8838 164.823 94.8836 164.823 94.8835 164.823L94.2803 164.22ZM95.9393 168L94 166.061L91.0607 169L93 170.939L95.9393 168ZM89.6893 169.75L92.25 172.311V174.189L87.8107 169.75H89.6893Z" fill="#737278"/>
<rect x="112" y="167" width="89" height="8" rx="2" fill="#A4A3A8"/>
<path fill-rule="evenodd" clip-rule="evenodd" d="M295.22 169.22C295.513 168.927 295.987 168.927 296.28 169.22L299 171.939L301.72 169.22C302.013 168.927 302.487 168.927 302.78 169.22C303.073 169.513 303.073 169.987 302.78 170.28L299.53 173.53C299.237 173.823 298.763 173.823 298.47 173.53L295.22 170.28C294.927 169.987 294.927 169.513 295.22 169.22Z" fill="#737278"/>
</g>
<rect x="112" y="199" width="70" height="8" rx="2" fill="#A4A3A8"/>
<rect x="112" y="231" width="117" height="8" rx="2" fill="#A4A3A8"/>
<rect x="83" y="259" width="224" height="1" fill="#ECECEF"/>
<g style="mix-blend-mode:multiply">
<g clip-path="url(#clip0_16653_30483)">
<path fill-rule="evenodd" clip-rule="evenodd" d="M84.5 280V278.5H89.1972L90.1972 280H84.5ZM83 280V278C83 277.448 83.4477 277 84 277H89.4648C89.7992 277 90.1114 277.167 90.2969 277.445L91.9635 279.945C91.9756 279.963 91.987 279.982 91.9977 280H98C98.5523 280 99 280.448 99 281V289C99 289.552 98.5523 290 98 290H84C83.4477 290 83 289.552 83 289V281.5V280.5V280ZM84.5 281.5V288.5H97.5V281.5H91.1315H84.5Z" fill="#737278"/>
</g>
<rect x="112" y="280" width="43" height="8" rx="2" fill="#A4A3A8"/>
<path fill-rule="evenodd" clip-rule="evenodd" d="M295.22 282.22C295.513 281.927 295.987 281.927 296.28 282.22L299 284.939L301.72 282.22C302.013 281.927 302.487 281.927 302.78 282.22C303.073 282.513 303.073 282.987 302.78 283.28L299.53 286.53C299.237 286.823 298.763 286.823 298.47 286.53L295.22 283.28C294.927 282.987 294.927 282.513 295.22 282.22Z" fill="#737278"/>
</g>
<g style="mix-blend-mode:multiply">
<g clip-path="url(#clip1_16653_30483)">
<path fill-rule="evenodd" clip-rule="evenodd" d="M84.5 312V310.5H89.1972L90.1972 312H84.5ZM83 312V310C83 309.448 83.4477 309 84 309H89.4648C89.7992 309 90.1114 309.167 90.2969 309.445L91.9635 311.945C91.9756 311.963 91.987 311.982 91.9977 312H98C98.5523 312 99 312.448 99 313V321C99 321.552 98.5523 322 98 322H84C83.4477 322 83 321.552 83 321V313.5V312.5V312ZM84.5 313.5V320.5H97.5V313.5H91.1315H84.5Z" fill="#737278"/>
</g>
<rect x="112" y="312" width="96" height="8" rx="2" fill="#A4A3A8"/>
<path fill-rule="evenodd" clip-rule="evenodd" d="M295.22 314.22C295.513 313.927 295.987 313.927 296.28 314.22L299 316.939L301.72 314.22C302.013 313.927 302.487 313.927 302.78 314.22C303.073 314.513 303.073 314.987 302.78 315.28L299.53 318.53C299.237 318.823 298.763 318.823 298.47 318.53L295.22 315.28C294.927 314.987 294.927 314.513 295.22 314.22Z" fill="#737278"/>
</g>
<g style="mix-blend-mode:multiply">
<g clip-path="url(#clip2_16653_30483)">
<path fill-rule="evenodd" clip-rule="evenodd" d="M84.5 344V342.5H89.1972L90.1972 344H84.5ZM83 344V342C83 341.448 83.4477 341 84 341H89.4648C89.7992 341 90.1114 341.167 90.2969 341.445L91.9635 343.945C91.9756 343.963 91.987 343.982 91.9977 344H98C98.5523 344 99 344.448 99 345V353C99 353.552 98.5523 354 98 354H84C83.4477 354 83 353.552 83 353V345.5V344.5V344ZM84.5 345.5V352.5H97.5V345.5H91.1315H84.5Z" fill="#737278"/>
</g>
<rect x="112" y="344" width="50" height="8" rx="2" fill="#A4A3A8"/>
<path fill-rule="evenodd" clip-rule="evenodd" d="M295.22 346.22C295.513 345.927 295.987 345.927 296.28 346.22L299 348.939L301.72 346.22C302.013 345.927 302.487 345.927 302.78 346.22C303.073 346.513 303.073 346.987 302.78 347.28L299.53 350.53C299.237 350.823 298.763 350.823 298.47 350.53L295.22 347.28C294.927 346.987 294.927 346.513 295.22 346.22Z" fill="#737278"/>
</g>
<g style="mix-blend-mode:multiply">
<g clip-path="url(#clip3_16653_30483)">
<path fill-rule="evenodd" clip-rule="evenodd" d="M84.5 376V374.5H89.1972L90.1972 376H84.5ZM83 376V374C83 373.448 83.4477 373 84 373H89.4648C89.7992 373 90.1114 373.167 90.2969 373.445L91.9635 375.945C91.9756 375.963 91.987 375.982 91.9977 376H98C98.5523 376 99 376.448 99 377V385C99 385.552 98.5523 386 98 386H84C83.4477 386 83 385.552 83 385V377.5V376.5V376ZM84.5 377.5V384.5H97.5V377.5H91.1315H84.5Z" fill="#737278"/>
</g>
<rect x="112" y="376" width="62" height="8" rx="2" fill="#A4A3A8"/>
<path fill-rule="evenodd" clip-rule="evenodd" d="M295.22 378.22C295.513 377.927 295.987 377.927 296.28 378.22L299 380.939L301.72 378.22C302.013 377.927 302.487 377.927 302.78 378.22C303.073 378.513 303.073 378.987 302.78 379.28L299.53 382.53C299.237 382.823 298.763 382.823 298.47 382.53L295.22 379.28C294.927 378.987 294.927 378.513 295.22 378.22Z" fill="#737278"/>
</g>
<g style="mix-blend-mode:multiply">
<g clip-path="url(#clip4_16653_30483)">
<path fill-rule="evenodd" clip-rule="evenodd" d="M84.5 408V406.5H89.1972L90.1972 408H84.5ZM83 408V406C83 405.448 83.4477 405 84 405H89.4648C89.7992 405 90.1114 405.167 90.2969 405.445L91.9635 407.945C91.9756 407.963 91.987 407.982 91.9977 408H98C98.5523 408 99 408.448 99 409V417C99 417.552 98.5523 418 98 418H84C83.4477 418 83 417.552 83 417V409.5V408.5V408ZM84.5 409.5V416.5H97.5V409.5H91.1315H84.5Z" fill="#737278"/>
</g>
<rect x="112" y="408" width="89" height="8" rx="2" fill="#A4A3A8"/>
<path fill-rule="evenodd" clip-rule="evenodd" d="M295.22 410.22C295.513 409.927 295.987 409.927 296.28 410.22L299 412.939L301.72 410.22C302.013 409.927 302.487 409.927 302.78 410.22C303.073 410.513 303.073 410.987 302.78 411.28L299.53 414.53C299.237 414.823 298.763 414.823 298.47 414.53L295.22 411.28C294.927 410.987 294.927 410.513 295.22 410.22Z" fill="#737278"/>
</g>
<g style="mix-blend-mode:multiply">
<g clip-path="url(#clip5_16653_30483)">
<path fill-rule="evenodd" clip-rule="evenodd" d="M84.5 440V438.5H89.1972L90.1972 440H84.5ZM83 440V438C83 437.448 83.4477 437 84 437H89.4648C89.7992 437 90.1114 437.167 90.2969 437.445L91.9635 439.945C91.9756 439.963 91.987 439.982 91.9977 440H98C98.5523 440 99 440.448 99 441V449C99 449.552 98.5523 450 98 450H84C83.4477 450 83 449.552 83 449V441.5V440.5V440ZM84.5 441.5V448.5H97.5V441.5H91.1315H84.5Z" fill="#737278"/>
</g>
<rect x="112" y="440" width="67" height="8" rx="2" fill="#A4A3A8"/>
<path fill-rule="evenodd" clip-rule="evenodd" d="M295.22 442.22C295.513 441.927 295.987 441.927 296.28 442.22L299 444.939L301.72 442.22C302.013 441.927 302.487 441.927 302.78 442.22C303.073 442.513 303.073 442.987 302.78 443.28L299.53 446.53C299.237 446.823 298.763 446.823 298.47 446.53L295.22 443.28C294.927 442.987 294.927 442.513 295.22 442.22Z" fill="#737278"/>
</g>
<g style="mix-blend-mode:multiply">
<g clip-path="url(#clip6_16653_30483)">
<path fill-rule="evenodd" clip-rule="evenodd" d="M84.5 472V470.5H89.1972L90.1972 472H84.5ZM83 472V470C83 469.448 83.4477 469 84 469H89.4648C89.7992 469 90.1114 469.167 90.2969 469.445L91.9635 471.945C91.9756 471.963 91.987 471.982 91.9977 472H98C98.5523 472 99 472.448 99 473V481C99 481.552 98.5523 482 98 482H84C83.4477 482 83 481.552 83 481V473.5V472.5V472ZM84.5 473.5V480.5H97.5V473.5H91.1315H84.5Z" fill="#737278"/>
</g>
<rect x="112" y="472" width="89" height="8" rx="2" fill="#A4A3A8"/>
<path fill-rule="evenodd" clip-rule="evenodd" d="M295.22 474.22C295.513 473.927 295.987 473.927 296.28 474.22L299 476.939L301.72 474.22C302.013 473.927 302.487 473.927 302.78 474.22C303.073 474.513 303.073 474.987 302.78 475.28L299.53 478.53C299.237 478.823 298.763 478.823 298.47 478.53L295.22 475.28C294.927 474.987 294.927 474.513 295.22 474.22Z" fill="#737278"/>
</g>
<rect x="83" y="500" width="224" height="1" fill="#ECECEF"/>
<g style="mix-blend-mode:multiply">
<path fill-rule="evenodd" clip-rule="evenodd" d="M90.0103 519.233L90.1341 518.5H91.8662L91.99 519.233C92.0538 519.611 92.3227 519.905 92.6648 520.019C93.3409 520.245 93.9565 520.605 94.4796 521.069C94.7497 521.308 95.1391 521.393 95.4975 521.26L96.1964 521L97.0624 522.5L96.4887 522.974C96.1942 523.218 96.0737 523.597 96.1453 523.95C96.2139 524.289 96.25 524.64 96.25 525C96.25 525.36 96.2139 525.711 96.1453 526.05C96.0737 526.403 96.1942 526.782 96.4887 527.026L97.0622 527.5L96.1962 529L95.4975 528.74C95.1391 528.607 94.7497 528.692 94.4795 528.931C93.9564 529.395 93.3409 529.755 92.6648 529.981C92.3227 530.095 92.0538 530.389 91.99 530.767L91.8662 531.5H90.1341L90.0103 530.767C89.9465 530.389 89.6776 530.095 89.3355 529.981C88.6593 529.755 88.0437 529.395 87.5206 528.931C87.2504 528.692 86.861 528.607 86.5026 528.74L85.804 529L84.938 527.5L85.5114 527.026C85.8059 526.782 85.9265 526.403 85.8548 526.05C85.7862 525.711 85.75 525.36 85.75 525C85.75 524.64 85.7862 524.289 85.8549 523.95C85.9265 523.597 85.8059 523.218 85.5114 522.974L84.938 522.5L85.8041 521L86.5027 521.26C86.8611 521.393 87.2504 521.308 87.5206 521.069C88.0437 520.605 88.6593 520.245 89.3355 520.019C89.6776 519.905 89.9465 519.611 90.0103 519.233ZM89.9228 517C89.3127 517 88.7918 517.44 88.6902 518.042L88.5796 518.697C87.9132 518.953 87.2981 519.312 86.7536 519.753L86.1292 519.52C85.5575 519.308 84.9157 519.539 84.6107 520.067L83.5333 521.933C83.2283 522.461 83.3492 523.133 83.8193 523.521L84.3321 523.945C84.278 524.289 84.25 524.642 84.25 525C84.25 525.358 84.278 525.711 84.3321 526.055L83.8193 526.479C83.3491 526.867 83.2282 527.539 83.5333 528.067L84.6106 529.933C84.9156 530.461 85.5574 530.692 86.1291 530.48L86.7535 530.247C87.2981 530.688 87.9132 531.047 88.5796 531.303L88.6902 531.958C88.7918 532.56 89.3127 533 89.9228 533H92.0775C92.6875 533 93.2085 532.56 93.31 531.958L93.4207 531.303C94.087 531.047 94.702 530.688 95.2466 530.247L95.871 530.48C96.4427 530.692 97.0846 530.461 97.3896 529.933L98.4669 528.067C98.7719 527.539 98.6511 526.867 98.1809 526.479L97.668 526.055C97.7221 525.711 97.75 525.358 97.75 525C97.75 524.642 97.7221 524.29 97.6681 523.946L98.1811 523.521C98.6512 523.133 98.7721 522.461 98.4671 521.933L97.3897 520.067C97.0847 519.539 96.4429 519.308 95.8712 519.52L95.2466 519.753C94.7021 519.312 94.0871 518.953 93.4207 518.697L93.31 518.042C93.2085 517.44 92.6875 517 92.0775 517H89.9228ZM88.75 525C88.75 523.757 89.7574 522.75 91 522.75C92.2427 522.75 93.25 523.757 93.25 525C93.25 526.243 92.2427 527.25 91 527.25C89.7574 527.25 88.75 526.243 88.75 525ZM91 521.25C88.929 521.25 87.25 522.929 87.25 525C87.25 527.071 88.929 528.75 91 528.75C93.0711 528.75 94.75 527.071 94.75 525C94.75 522.929 93.0711 521.25 91 521.25Z" fill="#737278"/>
<rect x="112" y="521" width="65" height="8" rx="2" fill="#A4A3A8"/>
</g>
<path d="M10.2188 15.1641C13.1172 15.1641 15.1875 13.2969 15.1875 10.3047V8.89844H10.4453V10.5703H13.6016L13.1172 10.5C13.1172 12.1797 11.9922 13.25 10.2422 13.25C8.28125 13.25 6.96094 11.7734 6.96094 9.17969C6.96094 6.58594 8.30469 5.11719 10.1953 5.11719C11.5938 5.11719 12.5547 5.875 12.9141 7.10156H15.0859C14.7422 4.80469 12.7422 3.20312 10.1641 3.20312C7.10938 3.20312 4.8125 5.45312 4.8125 9.19531C4.8125 12.8672 7 15.1641 10.2188 15.1641ZM17.0703 15H19.1562V9.94531C19.1562 8.82031 19.9688 8.05469 21.0781 8.05469C21.4297 8.05469 21.8594 8.10938 22.0391 8.16406V6.26562C21.8516 6.23438 21.5391 6.21094 21.3047 6.21094C20.3047 6.21094 19.4922 6.77344 19.1719 7.78125H19.0859V6.32031H17.0703V15ZM26.8281 15.1797C29.3828 15.1797 31.0156 13.3828 31.0156 10.7031C31.0156 8.00781 29.3828 6.20312 26.8281 6.20312C24.2812 6.20312 22.6484 8.00781 22.6484 10.7031C22.6484 13.3828 24.2812 15.1797 26.8281 15.1797ZM26.8359 13.5C25.4609 13.5 24.7656 12.2812 24.7656 10.6953C24.7656 9.09375 25.4609 7.89062 26.8359 7.89062C28.2031 7.89062 28.8984 9.09375 28.8984 10.6953C28.8984 12.2812 28.2031 13.5 26.8359 13.5ZM38.2734 11.3516C38.2734 12.6641 37.3438 13.3203 36.4297 13.3125C35.4375 13.3203 34.7812 12.625 34.7812 11.5234V6.32031H32.7031V11.8359C32.7031 13.9297 33.9062 15.125 35.6328 15.1172C36.9375 15.125 37.8516 14.4375 38.2422 13.4609H38.3281V15H40.3516V6.32031H38.2734V11.3516ZM42.4219 18.2656H44.5V13.6406H44.5781C44.9219 14.3203 45.6172 15.1641 47.0625 15.1641C49.1328 15.1641 50.6562 13.5156 50.6562 10.6797C50.6562 7.79688 49.0859 6.21094 47.0703 6.21094C45.5859 6.21094 44.9062 7.07812 44.5703 7.73438H44.4609V6.32031H42.4219V18.2656ZM46.4922 13.4531C45.1953 13.4531 44.4531 12.3359 44.4531 10.6719C44.4531 9 45.1875 7.91406 46.4922 7.91406C47.8281 7.91406 48.5312 9.04688 48.5312 10.6719C48.5312 12.2969 47.8125 13.4531 46.4922 13.4531ZM59.2266 8.6875C58.9844 7.17188 57.7656 6.20312 55.7109 6.20312C53.6016 6.20312 52.1797 7.24219 52.1797 8.85938C52.1797 10.125 52.9766 10.9453 54.6406 11.3047L56.125 11.6172C56.9141 11.7891 57.2891 12.1016 57.2891 12.5938C57.2891 13.1719 56.6562 13.6172 55.6953 13.6172C54.7578 13.6172 54.1484 13.2109 53.9844 12.4297L51.9453 12.5938C52.1875 14.2188 53.5625 15.1797 55.7031 15.1797C57.8828 15.1797 59.4141 14.0547 59.4141 12.3984C59.4141 11.1562 58.6172 10.3984 56.9688 10.0469L55.4688 9.73438C54.6172 9.54688 54.2656 9.23438 54.2656 8.73438C54.2656 8.16406 54.8984 7.75 55.7422 7.75C56.6797 7.75 57.1875 8.27344 57.3281 8.85156L59.2266 8.6875ZM67.4844 15.1797C68.8438 15.1797 69.6484 14.5469 70.0312 13.8047H70.1094V15H72.1016V9.17188C72.1016 6.96094 70.2656 6.21094 68.5234 6.21094C66.6953 6.21094 65.2734 7.02344 64.8203 8.55469L66.75 8.89844C66.9453 8.29688 67.5469 7.79688 68.5312 7.79688C69.4922 7.79688 70.0234 8.28125 70.0234 9.10156V9.14062C70.0234 9.73438 69.4062 9.76562 67.875 9.92188C66.1719 10.1016 64.5703 10.6172 64.5703 12.5625C64.5703 14.2734 65.8203 15.1797 67.4844 15.1797ZM68.0234 13.6484C67.1797 13.6484 66.5781 13.2656 66.5781 12.5312C66.5781 11.7578 67.2578 11.4297 68.1641 11.2969C68.7266 11.2266 69.7656 11.0859 70.0312 10.8828V11.8828C70.0312 12.8438 69.25 13.6484 68.0234 13.6484ZM76.25 9.9375C76.25 8.67969 77.0156 7.96875 78.0859 7.96875C79.1328 7.96875 79.7812 8.65625 79.7812 9.82031V15H81.8594V9.49219C81.8594 7.40625 80.6484 6.21094 78.8594 6.21094C77.5469 6.21094 76.6953 6.83594 76.2969 7.8125L76.2109 7.82031V6.32031H74.1641V15H76.25V9.9375ZM87.1328 15.1641C88.5781 15.1641 89.2812 14.3203 89.625 13.6406H89.7344V15H91.7812V3.35938H89.6953V7.73438H89.6172C89.2812 7.07812 88.6094 6.21094 87.125 6.21094C85.1094 6.21094 83.5391 7.79688 83.5391 10.6797C83.5391 13.5156 85.0625 15.1641 87.1328 15.1641ZM87.7031 13.4531C86.3828 13.4531 85.6641 12.2969 85.6641 10.6719C85.6641 9.04688 86.3672 7.91406 87.7031 7.91406C89.0156 7.91406 89.7422 9 89.7422 10.6719C89.7422 12.3359 89 13.4531 87.7031 13.4531ZM97.8281 15H99.9609V5.14844H101.883C103.453 5.14844 104.141 5.99219 104.141 7.22656C104.141 8.45312 103.453 9.32031 101.891 9.32031H99.2891V11.0703H102.164C104.867 11.0703 106.32 9.46875 106.32 7.22656C106.32 4.99219 104.891 3.35938 102.195 3.35938H97.8281V15ZM107.977 15H110.062V9.94531C110.062 8.82031 110.875 8.05469 111.984 8.05469C112.336 8.05469 112.766 8.10938 112.945 8.16406V6.26562C112.758 6.23438 112.445 6.21094 112.211 6.21094C111.211 6.21094 110.398 6.77344 110.078 7.78125H109.992V6.32031H107.977V15ZM117.734 15.1797C120.289 15.1797 121.922 13.3828 121.922 10.7031C121.922 8.00781 120.289 6.20312 117.734 6.20312C115.188 6.20312 113.555 8.00781 113.555 10.7031C113.555 13.3828 115.188 15.1797 117.734 15.1797ZM117.742 13.5C116.367 13.5 115.672 12.2812 115.672 10.6953C115.672 9.09375 116.367 7.89062 117.742 7.89062C119.109 7.89062 119.805 9.09375 119.805 10.6953C119.805 12.2812 119.109 13.5 117.742 13.5ZM123.602 6.32031V15.4844C123.602 16.2109 123.305 16.5781 122.523 16.5781H122.211V18.2656H122.672C124.594 18.2656 125.688 17.3906 125.688 15.5312V6.32031H123.602ZM124.641 5.10156C125.305 5.10156 125.844 4.60156 125.844 3.97656C125.844 3.35156 125.305 2.84375 124.641 2.84375C123.977 2.84375 123.438 3.35156 123.438 3.97656C123.438 4.60156 123.977 5.10156 124.641 5.10156ZM131.602 15.1797C133.625 15.1797 135.039 14.1641 135.391 12.6328L133.445 12.4375C133.18 13.1719 132.516 13.5625 131.633 13.5625C130.305 13.5625 129.43 12.6406 129.43 11.0781V10.1172C129.43 8.82812 130.18 7.82812 131.492 7.82812C132.797 7.82812 133.484 8.78906 133.484 10.2422L134.453 9.84375H128.312V11.2344H135.484V10.6016C135.484 7.60938 133.664 6.20312 131.477 6.20312C128.984 6.20312 127.367 8.03906 127.367 10.7109C127.367 13.4219 128.977 15.1797 131.602 15.1797ZM140.93 15.1797C143.133 15.1797 144.547 13.8672 144.695 12H142.695C142.523 12.9375 141.867 13.5 140.953 13.5C139.688 13.5 138.875 12.4219 138.875 10.6719C138.875 8.92969 139.695 7.88281 140.953 7.88281C141.938 7.88281 142.539 8.51562 142.695 9.36719H144.695C144.555 7.46875 143.07 6.20312 140.922 6.20312C138.375 6.20312 136.758 8.04688 136.758 10.7031C136.758 13.3359 138.344 15.1797 140.93 15.1797ZM150.727 6.32031H145.703V7.94531H150.727V6.32031ZM146.93 4.22656V12.7188C146.93 14.2109 147.898 15.1094 149.539 15.1094C149.992 15.1094 150.445 15.0469 150.875 14.9297L150.562 13.2969C150.375 13.3359 150.133 13.3672 149.938 13.3672C149.289 13.3672 149.008 13.0625 149.008 12.3828V4.22656H146.93ZM159.164 8.6875C158.922 7.17188 157.703 6.20312 155.648 6.20312C153.539 6.20312 152.117 7.24219 152.117 8.85938C152.117 10.125 152.914 10.9453 154.578 11.3047L156.062 11.6172C156.852 11.7891 157.227 12.1016 157.227 12.5938C157.227 13.1719 156.594 13.6172 155.633 13.6172C154.695 13.6172 154.086 13.2109 153.922 12.4297L151.883 12.5938C152.125 14.2188 153.5 15.1797 155.641 15.1797C157.82 15.1797 159.352 14.0547 159.352 12.3984C159.352 11.1562 158.555 10.3984 156.906 10.0469L155.406 9.73438C154.555 9.54688 154.203 9.23438 154.203 8.73438C154.203 8.16406 154.836 7.75 155.68 7.75C156.617 7.75 157.125 8.27344 157.266 8.85156L159.164 8.6875Z" fill="#535158"/>
<defs>
<clipPath id="clip0_16653_30483">
<rect width="16" height="16" fill="white" transform="translate(83 276)"/>
</clipPath>
<clipPath id="clip1_16653_30483">
<rect width="16" height="16" fill="white" transform="translate(83 308)"/>
</clipPath>
<clipPath id="clip2_16653_30483">
<rect width="16" height="16" fill="white" transform="translate(83 340)"/>
</clipPath>
<clipPath id="clip3_16653_30483">
<rect width="16" height="16" fill="white" transform="translate(83 372)"/>
</clipPath>
<clipPath id="clip4_16653_30483">
<rect width="16" height="16" fill="white" transform="translate(83 404)"/>
</clipPath>
<clipPath id="clip5_16653_30483">
<rect width="16" height="16" fill="white" transform="translate(83 436)"/>
</clipPath>
<clipPath id="clip6_16653_30483">
<rect width="16" height="16" fill="white" transform="translate(83 468)"/>
</clipPath>
</defs>
</svg>
