<svg width="317" height="214" viewBox="0 0 317 214" fill="none" xmlns="http://www.w3.org/2000/svg">
<g style="mix-blend-mode:multiply">
<rect x="69" width="248" height="32" rx="4" fill="#ECECEF"/>
<path fill-rule="evenodd" clip-rule="evenodd" d="M94.5 10.5L83.5 10.5V13L94.5 13V10.5ZM94.5 14.5L87.5 14.5V21.5H94.5V14.5ZM86 14.5H83.5V21.5H86V14.5ZM83.5 9H82V10.5V21.5V23H83.5H94.5H96V21.5V10.5V9H94.5L83.5 9Z" fill="#535158"/>
<path d="M73 5.5C73 4.67157 73.6716 4 74.5 4V4C75.3284 4 76 4.67157 76 5.5V26.5C76 27.3284 75.3284 28 74.5 28V28C73.6716 28 73 27.3284 73 26.5V5.5Z" fill="#1F75CB"/>
<rect x="110" y="12" width="89" height="8" rx="2" fill="#737278"/>
</g>
<rect x="81" y="40" width="224" height="1" fill="#ECECEF"/>
<rect x="109" y="59" width="113" height="8" rx="2" fill="#BFBFC3"/>
<g style="mix-blend-mode:multiply">
<rect x="110" y="89" width="65" height="8" rx="2" fill="#A4A3A8"/>
</g>
<g style="mix-blend-mode:multiply">
<rect x="110" y="121" width="85" height="8" rx="2" fill="#A4A3A8"/>
</g>
<g style="mix-blend-mode:multiply">
<rect x="110" y="153" width="56" height="8" rx="2" fill="#A4A3A8"/>
</g>
<g style="mix-blend-mode:multiply">
<rect x="110" y="185" width="65" height="8" rx="2" fill="#A4A3A8"/>
</g>
<rect x="81" y="213" width="224" height="1" fill="#ECECEF"/>
<line x1="1" y1="-1" x2="10" y2="-1" transform="matrix(1 4.53408e-09 -1.68562e-06 1 44 20)" stroke="#7B58CF" stroke-width="2" stroke-linecap="round"/>
<path d="M61 4H55V36H61" stroke="#7B58CF" stroke-width="2" stroke-linecap="round" stroke-linejoin="round"/>
<circle cx="20" cy="20" r="16" fill="#7B58CF"/>
<circle cx="20" cy="20" r="18" stroke="#7B58CF" stroke-opacity="0.3" stroke-width="4"/>
<path d="M19.9912 14.4424L18.1191 21.1572H21.8633L19.9912 14.4424ZM18.9189 12.8779H21.0723L25.0889 26H23.252L22.2852 22.5811H17.6885L16.7393 26H14.9023L18.9189 12.8779Z" fill="white"/>
<line x1="45" y1="126" x2="54" y2="126" stroke="#7B58CF" stroke-width="2" stroke-linecap="round"/>
<path d="M61 41H55V213H61" stroke="#7B58CF" stroke-width="2" stroke-linecap="round" stroke-linejoin="round"/>
<circle cx="20" cy="127" r="16" fill="#7B58CF"/>
<circle cx="20" cy="127" r="18" stroke="#7B58CF" stroke-opacity="0.3" stroke-width="4"/>
<path d="M16.3086 119.878H24.0957V121.372H18.084V124.905H23.832V126.399H18.084V131.506H24.2627V133H16.3086V119.878Z" fill="white"/>
</svg>
