<svg width="64" height="64" viewBox="0 0 64 64" fill="none" xmlns="http://www.w3.org/2000/svg">
<rect width="64" height="64" rx="4" fill="#FBFAFD"/>
<g clip-path="url(#clip0_21327_680)">
<path fill-rule="evenodd" clip-rule="evenodd" d="M25.5 32.5L28 26.5H36L38.5 32.5H25.5ZM24 32.5688V34.75C24 35.7165 24.7835 36.5 25.75 36.5H26V37.25C26 38.2165 26.7835 39 27.75 39H36.25C36.6642 39 37 38.6642 37 38.25C37 37.8358 36.6642 37.5 36.25 37.5H27.75C27.6119 37.5 27.5 37.3881 27.5 37.25V36.5H37.75C38.1642 36.5 38.5 36.1642 38.5 35.75C38.5 35.3358 38.1642 35 37.75 35H25.75C25.6119 35 25.5 34.8881 25.5 34.75L25.5 34H38.5C39.5703 34 40.2963 32.9111 39.8846 31.9231L37.2564 25.6154C37.1011 25.2427 36.737 25 36.3333 25H27.6666C27.2629 25 26.8988 25.2427 26.7436 25.6154L24.1154 31.9231C24.026 32.1376 23.9902 32.3569 24 32.5688Z" fill="#737278"/>
</g>
<defs>
<clipPath id="clip0_21327_680">
<rect width="16" height="16" fill="white" transform="translate(24 24)"/>
</clipPath>
</defs>
</svg>
