<svg width="240" height="240" xmlns="http://www.w3.org/2000/svg"><g fill="none" fill-rule="evenodd"><path fill="#FFF" d="M0 0h240v240H0z"/><g stroke="#DFDFDF"><path d="M39.5 39.5h160v160h-160z"/><g stroke-linecap="square"><path d="M49.5 39.5v160M59.5 39.5v160M69.5 39.5v160M79.5 39.5v160M89.5 39.5v160M99.5 39.5v160M109.5 39.5v160M119.5 39.5v160M129.5 39.5v160M139.5 39.5v160M149.5 39.5v160M159.5 39.5v160M169.5 39.5v160M179.5 39.5v160M189.5 39.5v160M199.5 49.5h-160M199.5 59.5h-160M199.5 69.5h-160M199.5 79.5h-160M199.5 89.5h-160M199.5 99.5h-160M199.5 109.5h-160M199.5 119.5h-160M199.5 129.5h-160M199.5 139.5h-160M199.5 149.5h-160M199.5 159.5h-160M199.5 169.5h-160M199.5 179.5h-160M199.5 189.5h-160"/></g></g><path stroke-opacity=".3" stroke="#6E49CB" stroke-width="11" d="M44.5 44.5h150v150h-150z"/><path stroke="#DB3B21" fill-opacity=".499" fill="#FC6D26" d="M39.5 39.5h10v10h-10z"/><path d="M114.31 221v-.95h2.043v-6.583h-1.627v-.738c.725-.124 1.356-.345 1.894-.664h.882v7.985h1.845v.95h-5.038zm6.36-4.129c0-.697.061-1.327.184-1.89.124-.563.291-1.033.503-1.412.212-.378.464-.694.755-.946.292-.253.6-.437.927-.55.325-.115.67-.172 1.035-.172.848 0 1.566.317 2.154.95l-.643.718a1.963 1.963 0 0 0-.663-.516 1.836 1.836 0 0 0-.807-.188c-.323 0-.62.067-.888.202a2.137 2.137 0 0 0-.732.629c-.219.285-.392.679-.52 1.182-.127.504-.198 1.098-.211 1.781.282-.342.61-.614.984-.817.374-.203.74-.304 1.1-.304.789 0 1.411.236 1.867.708.456.471.683 1.156.683 2.054 0 .838-.256 1.526-.769 2.064a2.494 2.494 0 0 1-1.876.807c-.912 0-1.653-.37-2.225-1.11-.572-.742-.858-1.804-.858-3.19zm1.121.711c.068.866.27 1.528.605 1.986.335.458.787.687 1.357.687.447 0 .817-.181 1.11-.544.295-.362.442-.832.442-1.411 0-.597-.14-1.062-.417-1.395-.278-.332-.688-.499-1.23-.499-.302 0-.617.097-.948.29-.33.194-.636.49-.919.886zM42.708 29v-.95h2.044v-6.583h-1.627v-.738c.725-.124 1.356-.345 1.894-.664h.882v7.985h1.845V29h-5.038zM210.31 125v-.95h2.043v-6.583h-1.627v-.738c.725-.124 1.356-.345 1.894-.664h.882v7.985h1.845v.95h-5.038zm6.36-4.129c0-.697.061-1.327.184-1.89.124-.563.291-1.033.503-1.412.212-.378.464-.694.755-.946.292-.253.6-.437.927-.55.325-.115.67-.172 1.035-.172.848 0 1.566.317 2.154.95l-.643.718a1.963 1.963 0 0 0-.663-.516 1.836 1.836 0 0 0-.807-.188c-.323 0-.62.067-.888.202a2.137 2.137 0 0 0-.732.629c-.219.285-.392.679-.52 1.182-.127.504-.198 1.098-.211 1.781.282-.342.61-.614.984-.817.374-.203.74-.304 1.1-.304.789 0 1.411.236 1.867.708.456.471.683 1.156.683 2.054 0 .838-.256 1.526-.769 2.064a2.494 2.494 0 0 1-1.876.807c-.912 0-1.653-.37-2.225-1.11-.572-.742-.858-1.804-.858-3.19zm1.121.711c.068.866.27 1.528.605 1.986.335.458.787.687 1.357.687.447 0 .817-.181 1.11-.544.295-.362.442-.832.442-1.411 0-.597-.14-1.062-.417-1.395-.278-.332-.688-.499-1.23-.499-.302 0-.617.097-.948.29-.33.194-.636.49-.919.886zM23.708 50v-.95h2.044v-6.583h-1.627v-.738c.725-.124 1.356-.345 1.894-.664h.882v7.985h1.845V50h-5.038z" fill="#380D75" fill-rule="nonzero"/><path fill-opacity=".5" fill="#FCA121" fill-rule="nonzero" d="M39 31v8h1v-8zM49 31v8h1v-8zM31 40h8v-1h-8zM31 50h8v-1h-8z"/><path fill="#FC6D26" fill-rule="nonzero" d="M40 215h68v1H40v3.5h-1v-8h1zM199 215v-3.5h1v8h-1V216h-67v-1z"/><path fill-opacity=".5" fill="#FCA121" fill-rule="nonzero" d="M39 200v12h1v-12zM199 200v12h1v-12z"/><path fill="#FC6D26" fill-rule="nonzero" d="M217 40v70h-1V40h-3.5v-1h8v1zM217 199h3.5v1h-8v-1h3.5v-69h1z"/><path fill-opacity=".5" fill="#FCA121" fill-rule="nonzero" d="M200 40h12v-1h-12zM200 200h12v-1h-12z"/></g></svg>