<svg width="240" height="240" viewBox="0 0 240 240" xmlns="http://www.w3.org/2000/svg"><g fill="none" fill-rule="evenodd"><path fill="#FFF" d="M0 0h240v240H0z"/><g stroke="#DFDFDF"><path d="M39.5 39.5h160v160h-160z"/><g stroke-linecap="square"><path d="M49.5 39.5v160M59.5 39.5v160M69.5 39.5v160M79.5 39.5v160M89.5 39.5v160M99.5 39.5v160M109.5 39.5v160M119.5 39.5v160M129.5 39.5v160M139.5 39.5v160M149.5 39.5v160M159.5 39.5v160M169.5 39.5v160M179.5 39.5v160M189.5 39.5v160M199.5 49.5h-160M199.5 59.5h-160M199.5 69.5h-160M199.5 79.5h-160M199.5 89.5h-160M199.5 99.5h-160M199.5 109.5h-160M199.5 119.5h-160M199.5 129.5h-160M199.5 139.5h-160M199.5 149.5h-160M199.5 159.5h-160M199.5 169.5h-160M199.5 179.5h-160M199.5 189.5h-160"/></g></g><g transform="translate(201 19)"><circle fill="#DB3B21" cx="10" cy="10" r="10"/><path d="M13 7l-6 6.002M7 7l6 6.002" stroke="#FFF" stroke-width="2" stroke-linecap="round"/></g><path d="M179.5 89.5c5.523 0 10 4.477 10 10v80c0 5.523-4.477 10-10 10h-80c-5.523 0-10-4.477-10-10v-80c0-5.523 4.477-10 10-10h80zm-10 20h-60v60h60v-60zm-30-60c5.523 0 10 4.477 10 10v10c0 5.523-4.477 10-10 10s-10-4.477-10-10h-60v60c5.523 0 10 4.477 10 10s-4.477 10-10 10h-10c-5.523 0-10-4.477-10-10v-80c0-5.523 4.477-10 10-10h80z" stroke="#6E49CB" fill-opacity=".3" fill="#6E49CB"/></g></svg>