<svg width="240" height="240" viewBox="0 0 240 240" fill="none" xmlns="http://www.w3.org/2000/svg"><path fill="#fff" d="M0 0h240v240H0z"/><path stroke="#DFDFDF" d="M39.5 39.5h160v160h-160z"/><path d="M49.5 39.5v160m10-160v160m10-160v160m10-160v160m10-160v160m10-160v160m10-160v160m10-160v160m10-160v160m10-160v160m10-160v160m10-160v160m10-160v160m10-160v160m10-160v160m10-150h-160m160 10h-160m160 10h-160m160 10h-160m160 10h-160m160 10h-160m160 10h-160m160 10h-160m160 10h-160m160 10h-160m160 10h-160m160 10h-160m160 10h-160m160 10h-160m160 10h-160" stroke="#DFDFDF" stroke-linecap="square"/><path fill-rule="evenodd" clip-rule="evenodd" d="M211 39c5.523 0 10-4.477 10-10s-4.477-10-10-10-10 4.477-10 10 4.477 10 10 10Z" fill="#DB3B21"/><path d="m214 26-6 6.002M208 26l6 6.002" stroke="#fff" stroke-width="2" stroke-linecap="round"/><mask id="icons-concept-meaning-dont__a" fill="#fff"><path fill-rule="evenodd" clip-rule="evenodd" d="M99 99h41v41H99V99ZM65 65v35H49V69c0-11.046 8.954-20 20-20h31v16H65Zm0 109h35v16H69c-11.046 0-20-8.954-20-20v-31h16v35ZM174 65h-35V49h31c11.046 0 20 8.954 20 20v31h-16V65Zm0 109v-35h16v31c0 11.046-8.954 20-20 20h-31v-16h35Z"/></mask><path fill-rule="evenodd" clip-rule="evenodd" d="M99 99h41v41H99V99ZM65 65v35H49V69c0-11.046 8.954-20 20-20h31v16H65Zm0 109h35v16H69c-11.046 0-20-8.954-20-20v-31h16v35ZM174 65h-35V49h31c11.046 0 20 8.954 20 20v31h-16V65Zm0 109v-35h16v31c0 11.046-8.954 20-20 20h-31v-16h35Z" fill="#6E49CB" fill-opacity=".3"/><path d="M99 99v-1h-1v1h1Zm41 0h1v-1h-1v1Zm0 41v1h1v-1h-1Zm-41 0h-1v1h1v-1ZM65 65v-1h-1v1h1Zm0 35v1h1v-1h-1Zm-16 0h-1v1h1v-1Zm20-51v1-1Zm31 0h1v-1h-1v1Zm0 16v1h1v-1h-1ZM65 174h-1v1h1v-1Zm35 0h1v-1h-1v1Zm0 16v1h1v-1h-1Zm-51-51v-1h-1v1h1Zm16 0h1v-1h-1v1Zm109-74h1v-1h-1v1Zm-35 0h-1v1h1v-1Zm0-16v-1h-1v1h1Zm51 51v1h1v-1h-1Zm-16 0h-1v1h1v-1Zm0 74v1h1v-1h-1Zm0-35v-1h-1v1h1Zm16 0h1v-1h-1v1Zm-51 51h-1v1h1v-1Zm0-16v-1h-1v1h1Zm-40-74h41v-2H99v2Zm40-1v41h2V99h-2Zm1 40H99v2h41v-2Zm-40 1V99h-2v41h2ZM64 65v35h2V65h-2Zm1 34H49v2h16v-2Zm-15 1V69h-2v31h2Zm0-31c0-10.493 8.507-19 19-19v-2c-11.598 0-21 9.402-21 21h2Zm19-19h31v-2H69v2Zm30-1v16h2V49h-2Zm1 15H65v2h35v-2ZM65 175h35v-2H65v2Zm34-1v16h2v-16h-2Zm1 15H69v2h31v-2Zm-31 0c-10.493 0-19-8.507-19-19h-2c0 11.598 9.402 21 21 21v-2Zm-19-19v-31h-2v31h2Zm-1-30h16v-2H49v2Zm15-1v35h2v-35h-2Zm110-75h-35v2h35v-2Zm-34 1V49h-2v16h2Zm-1-15h31v-2h-31v2Zm31 0c10.493 0 19 8.507 19 19h2c0-11.598-9.402-21-21-21v2Zm19 19v31h2V69h-2Zm1 30h-16v2h16v-2Zm-15 1V65h-2v35h2Zm0 74v-35h-2v35h2Zm-1-34h16v-2h-16v2Zm15-1v31h2v-31h-2Zm0 31c0 10.493-8.507 19-19 19v2c11.598 0 21-9.402 21-21h-2Zm-19 19h-31v2h31v-2Zm-30 1v-16h-2v16h2Zm-1-15h35v-2h-35v2Z" fill="#6E49CB" mask="url(#icons-concept-meaning-dont__a)"/></svg>