<svg width="240" height="240" viewBox="0 0 240 240" fill="none" xmlns="http://www.w3.org/2000/svg"><path fill="#fff" d="M0 0h240v240H0z"/><path stroke="#DFDFDF" d="M39.5 39.5h160v160h-160z"/><path d="M49.5 39.5v160m10-160v160m10-160v160m10-160v160m10-160v160m10-160v160m10-160v160m10-160v160m10-160v160m10-160v160m10-160v160m10-160v160m10-160v160m10-160v160m10-160v160m10-150h-160m160 10h-160m160 10h-160m160 10h-160m160 10h-160m160 10h-160m160 10h-160m160 10h-160m160 10h-160m160 10h-160m160 10h-160m160 10h-160m160 10h-160m160 10h-160m160 10h-160" stroke="#DFDFDF" stroke-linecap="square"/><mask id="icons-shape-corners__a" fill="#fff"><path fill-rule="evenodd" clip-rule="evenodd" d="m180 72.93-50.5-29.157a20 20 0 0 0-20 0L59 72.93a20 20 0 0 0-10 17.32v58.313a20 20 0 0 0 10 17.32l50.5 29.156a19.998 19.998 0 0 0 20 0l50.5-29.156a20 20 0 0 0 10-17.32V90.25a20 20 0 0 0-10-17.32ZM65 87.5 119.5 56 174 87.5v63L119.5 182 65 150.5v-63Zm54.5 66.5c19.054 0 34.5-15.446 34.5-34.5 0-19.054-15.446-34.5-34.5-34.5-19.054 0-34.5 15.446-34.5 34.5 0 19.054 15.446 34.5 34.5 34.5Zm0-17.889c-9.174 0-16.611-7.437-16.611-16.611s7.437-16.611 16.611-16.611 16.611 7.437 16.611 16.611-7.437 16.611-16.611 16.611Z"/></mask><path fill-rule="evenodd" clip-rule="evenodd" d="m180 72.93-50.5-29.157a20 20 0 0 0-20 0L59 72.93a20 20 0 0 0-10 17.32v58.313a20 20 0 0 0 10 17.32l50.5 29.156a19.998 19.998 0 0 0 20 0l50.5-29.156a20 20 0 0 0 10-17.32V90.25a20 20 0 0 0-10-17.32ZM65 87.5 119.5 56 174 87.5v63L119.5 182 65 150.5v-63Zm54.5 66.5c19.054 0 34.5-15.446 34.5-34.5 0-19.054-15.446-34.5-34.5-34.5-19.054 0-34.5 15.446-34.5 34.5 0 19.054 15.446 34.5 34.5 34.5Zm0-17.889c-9.174 0-16.611-7.437-16.611-16.611s7.437-16.611 16.611-16.611 16.611 7.437 16.611 16.611-7.437 16.611-16.611 16.611Z" fill="#6E49CB" fill-opacity=".3"/><path d="m129.5 43.773-.5.866.5-.866ZM180 72.93l.5-.866-.5.866Zm-70.5-29.157.5.866-.5-.866ZM59 72.93l-.5-.866.5.866Zm0 92.953.5-.866-.5.866Zm50.5 29.156.5-.866-.5.866Zm20 0-.5-.866.5.866Zm50.5-29.156-.5-.866.5.866ZM119.5 56l.5-.866-.5-.289-.5.29.5.865ZM65 87.5l-.5-.866-.5.289v.577h1Zm109 0h1v-.577l-.5-.289-.5.866Zm0 63 .5.866.5-.289v-.577h-1ZM119.5 182l-.5.866.5.289.5-.289-.5-.866ZM65 150.5h-1v.577l.5.289.5-.866Zm64-105.86 50.5 29.156 1-1.732L130 42.908l-1 1.731Zm-19 0a19 19 0 0 1 19 0l1-1.733a21 21 0 0 0-21 0l1 1.733ZM59.5 73.796 110 44.639l-1-1.732-50.5 29.157 1 1.732ZM50 90.25a19 19 0 0 1 9.5-16.454l-1-1.732A21 21 0 0 0 48 90.25h2Zm0 58.313V90.25h-2v58.313h2Zm9.5 16.454a19 19 0 0 1-9.5-16.454h-2a21 21 0 0 0 10.5 18.186l1-1.732Zm50.5 29.156-50.5-29.156-1 1.732 50.5 29.156 1-1.732Zm19 0a19 19 0 0 1-19 0l-1 1.732a20.997 20.997 0 0 0 21 0l-1-1.732Zm50.5-29.156L129 194.173l1 1.732 50.5-29.156-1-1.732Zm9.5-16.454c0 6.788-3.621 13.06-9.5 16.454l1 1.732a21 21 0 0 0 10.5-18.186h-2Zm0-58.313v58.313h2V90.25h-2Zm-9.5-16.454A19 19 0 0 1 189 90.25h2a21.001 21.001 0 0 0-10.5-18.186l-1 1.732ZM119 55.134l-54.5 31.5 1 1.732 54.5-31.5-1-1.732Zm55.5 31.5-54.5-31.5-1 1.732 54.5 31.5 1-1.732Zm.5 63.866v-63h-2v63h2Zm-55 32.366 54.5-31.5-1-1.732-54.5 31.5 1 1.732Zm-55.5-31.5 54.5 31.5 1-1.732-54.5-31.5-1 1.732ZM64 87.5v63h2v-63h-2Zm89 32c0 18.502-14.998 33.5-33.5 33.5v2c19.606 0 35.5-15.894 35.5-35.5h-2ZM119.5 86c18.502 0 33.5 14.998 33.5 33.5h2c0-19.606-15.894-35.5-35.5-35.5v2ZM86 119.5c0-18.502 14.998-33.5 33.5-33.5v-2C99.894 84 84 99.894 84 119.5h2Zm33.5 33.5c-18.502 0-33.5-14.998-33.5-33.5h-2c0 19.606 15.894 35.5 35.5 35.5v-2Zm-17.611-33.5c0 9.726 7.885 17.611 17.611 17.611v-2c-8.622 0-15.611-6.989-15.611-15.611h-2Zm17.611-17.611c-9.726 0-17.611 7.885-17.611 17.611h2c0-8.622 6.989-15.611 15.611-15.611v-2Zm17.611 17.611c0-9.726-7.885-17.611-17.611-17.611v2c8.622 0 15.611 6.989 15.611 15.611h2ZM119.5 137.111c9.726 0 17.611-7.885 17.611-17.611h-2c0 8.622-6.989 15.611-15.611 15.611v2Z" fill="#6E49CB" mask="url(#icons-shape-corners__a)"/><path fill="#FC6D26" fill-opacity=".499" stroke="#DB3B21" d="M159.5 139.5h20v20h-20z"/><path d="m150.5 86.5 57.053 33H174.5" stroke="#FC6D26"/><path fill="#FC6D26" fill-opacity=".499" stroke="#DB3B21" d="m128.683 85.004 10-17.32 17.32 10-10 17.32zM153.5 130.5v-21h21v21z"/><path d="M212.281 123v-.955l2.953-3.059c.315-.333.575-.624.78-.874.207-.253.362-.493.464-.72.103-.227.154-.469.154-.724 0-.29-.068-.54-.205-.75a1.329 1.329 0 0 0-.558-.49 1.768 1.768 0 0 0-.797-.175c-.312 0-.585.064-.818.192a1.308 1.308 0 0 0-.537.541 1.703 1.703 0 0 0-.188.818h-1.257c0-.531.123-.996.367-1.393a2.483 2.483 0 0 1 1.006-.925c.426-.222.91-.333 1.453-.333.548 0 1.031.11 1.449.329.42.215.748.511.984.886.236.372.354.793.354 1.261 0 .324-.061.641-.184.951-.119.309-.328.654-.626 1.035-.298.378-.713.837-1.244 1.376l-1.735 1.816v.064h3.929V123h-5.744Zm7.376 2.455v-9h1.245v1.061h.106c.074-.137.181-.294.32-.473s.332-.336.579-.469c.247-.136.574-.205.98-.205.529 0 1 .134 1.415.401.415.267.74.652.976 1.155.239.503.358 1.108.358 1.815 0 .707-.118 1.314-.354 1.82-.235.502-.559.89-.971 1.163-.412.27-.882.405-1.411.405-.398 0-.723-.067-.976-.2a1.853 1.853 0 0 1-.588-.469 3.592 3.592 0 0 1-.328-.477h-.077v3.473h-1.274Zm1.249-5.728c0 .46.067.864.2 1.211.134.346.327.617.58.813.253.194.562.29.929.29.38 0 .699-.101.954-.302.256-.205.449-.482.58-.831.133-.35.2-.743.2-1.181 0-.432-.065-.819-.196-1.163a1.785 1.785 0 0 0-.579-.814c-.256-.199-.576-.298-.959-.298-.37 0-.682.095-.938.285a1.757 1.757 0 0 0-.575.797 3.319 3.319 0 0 0-.196 1.193Zm6.905-3.272 1.445 2.548 1.457-2.548h1.394l-2.041 3.272 2.058 3.273h-1.394l-1.474-2.446-1.47 2.446h-1.398l2.037-3.273-2.011-3.272h1.397Z" fill="#380D75"/></svg>