<svg width="240" height="240" xmlns="http://www.w3.org/2000/svg"><g fill="none" fill-rule="evenodd"><path fill="#FFF" d="M0 0h240v240H0z"/><g stroke="#DFDFDF"><path d="M39.5 39.5h160v160h-160z"/><g stroke-linecap="square"><path d="M49.5 39.5v160M59.5 39.5v160M69.5 39.5v160M79.5 39.5v160M89.5 39.5v160M99.5 39.5v160M109.5 39.5v160M119.5 39.5v160M129.5 39.5v160M139.5 39.5v160M149.5 39.5v160M159.5 39.5v160M169.5 39.5v160M179.5 39.5v160M189.5 39.5v160M199.5 49.5h-160M199.5 59.5h-160M199.5 69.5h-160M199.5 79.5h-160M199.5 89.5h-160M199.5 99.5h-160M199.5 109.5h-160M199.5 119.5h-160M199.5 129.5h-160M199.5 139.5h-160M199.5 149.5h-160M199.5 159.5h-160M199.5 169.5h-160M199.5 179.5h-160M199.5 189.5h-160"/></g></g><path stroke="#6E49CB" fill-opacity=".3" fill="#6E49CB" d="M49.5 49.5h140v140h-140z"/><path d="M115 221v-.95h2.044v-6.583h-1.627v-.738c.725-.124 1.356-.345 1.894-.664h.881v7.985h1.846v.95H115zm5.93-2.46v-.76l3.821-5.715h1.285v5.544h1.224v.93h-1.224V221h-1.086v-2.46h-4.02zm1.217-.93h2.803v-2.585c0-.35.022-.925.068-1.722h-.055c-.04.077-.285.496-.731 1.258l-2.085 3.048z" fill="#292961" fill-rule="nonzero"/><path fill="#FC6D26" fill-rule="nonzero" d="M50 215h60v1H50v3.5h-1v-8h1zM189 215v-3.5h1v8h-1V216h-59v-1z"/><path d="M49.5 190.5V212" stroke-opacity=".5" stroke="#FCA121"/><path d="M210 125v-.95h2.044v-6.583h-1.627v-.738c.725-.124 1.356-.345 1.894-.664h.881v7.985h1.846v.95H210zm5.93-2.46v-.76l3.821-5.715h1.285v5.544h1.224v.93h-1.224V125h-1.086v-2.46h-4.02zm1.217-.93h2.803v-2.585c0-.35.022-.925.068-1.722h-.055c-.04.077-.285.496-.731 1.258l-2.085 3.048z" fill="#380D75" fill-rule="nonzero"/><path fill="#FC6D26" fill-rule="nonzero" d="M217 50v60h-1V50h-3.5v-1h8v1zM217 189h3.5v1h-8v-1h3.5v-59h1z"/><path d="M191 49.5h22M189.5 190.5V212M191 189.5h22" stroke-opacity=".5" stroke="#FCA121"/></g></svg>