<svg width="240" height="240" viewBox="0 0 240 240" fill="none" xmlns="http://www.w3.org/2000/svg"><path fill="#fff" d="M0 0h240v240H0z"/><path stroke="#DFDFDF" d="M39.5 39.5h160v160h-160z"/><path d="M49.5 39.5v160m10-160v160m10-160v160m10-160v160m10-160v160m10-160v160m10-160v160m10-160v160m10-160v160m10-160v160m10-160v160m10-160v160m10-160v160m10-160v160m10-160v160m10-150h-160m160 10h-160m160 10h-160m160 10h-160m160 10h-160m160 10h-160m160 10h-160m160 10h-160m160 10h-160m160 10h-160m160 10h-160m160 10h-160m160 10h-160m160 10h-160m160 10h-160" stroke="#DFDFDF" stroke-linecap="square"/><path fill-rule="evenodd" clip-rule="evenodd" d="M211 39c5.523 0 10-4.477 10-10s-4.477-10-10-10-10 4.477-10 10 4.477 10 10 10Z" fill="#DB3B21"/><path d="m214 26-6 6.002M208 26l6 6.002" stroke="#fff" stroke-width="2" stroke-linecap="round"/><path fill-rule="evenodd" clip-rule="evenodd" d="M49 89.286C49 67.036 67.037 49 89.286 49h60.428C171.963 49 190 67.037 190 89.286v60.428C190 171.963 171.963 190 149.714 190H89.286C67.036 190 49 171.963 49 149.714V89.286Zm40.286-25.179h60.428c12.181 0 22.342 8.65 24.675 20.143H64.611c2.333-11.493 12.493-20.143 24.675-20.143Zm-25.179 35.25v30.214h47.839V99.357H64.107Zm62.947 0v30.214h47.839V99.357h-47.839ZM64.107 144.68h47.839v30.214h-22.66c-13.906 0-25.179-11.273-25.179-25.179v-5.035Zm62.947 0v30.214h22.66c13.906 0 25.179-11.273 25.179-25.179v-5.035h-47.839Z" fill="#6E49CB" fill-opacity=".3" stroke="#6E49CB"/></svg>