<svg width="240" height="240" xmlns="http://www.w3.org/2000/svg"><g fill="none" fill-rule="evenodd"><path fill="#FFF" d="M0 0h240v240H0z"/><g stroke="#DFDFDF"><path d="M39.5 39.5h160v160h-160z"/><g stroke-linecap="square"><path d="M49.5 39.5v160M59.5 39.5v160M69.5 39.5v160M79.5 39.5v160M89.5 39.5v160M99.5 39.5v160M109.5 39.5v160M119.5 39.5v160M129.5 39.5v160M139.5 39.5v160M149.5 39.5v160M159.5 39.5v160M169.5 39.5v160M179.5 39.5v160M189.5 39.5v160M199.5 49.5h-160M199.5 59.5h-160M199.5 69.5h-160M199.5 79.5h-160M199.5 89.5h-160M199.5 99.5h-160M199.5 109.5h-160M199.5 119.5h-160M199.5 129.5h-160M199.5 139.5h-160M199.5 149.5h-160M199.5 159.5h-160M199.5 169.5h-160M199.5 179.5h-160M199.5 189.5h-160"/></g></g><path d="M177 69.5h-29.21l12.93-12.929c3.905-3.905 3.905-10.237 0-14.142-3.906-3.905-10.238-3.905-14.143 0l-27.003 27.003-27.003-27.003c-3.905-3.905-10.237-3.905-14.142 0-3.905 3.905-3.905 10.237 0 14.142L91.358 69.5H62c-12.42 0-22.5 10.605-22.5 23.7v62.6c0 13.095 10.08 23.7 22.5 23.7h115c12.42 0 22.5-10.605 22.5-23.7V93.2c0-13.095-10.08-23.7-22.5-23.7zm-117.5 20h80v70h-80v-70zm100 20v-20h20v20h-20zm0 30h20v20h-20v-20z" stroke="#6E49CB" fill-opacity=".3" fill="#6E49CB"/><g transform="translate(201 19)"><circle fill="#DB3B21" cx="10" cy="10" r="10"/><path d="M13 7l-6 6.002M7 7l6 6.002" stroke="#FFF" stroke-width="2" stroke-linecap="round"/></g></g></svg>