<svg width="240" height="240" viewBox="0 0 240 240" fill="none" xmlns="http://www.w3.org/2000/svg"><path fill="#fff" d="M0 0h240v240H0z"/><path stroke="#DFDFDF" d="M39.5 39.5h160v160h-160z"/><path d="M49.5 39.5v160m10-160v160m10-160v160m10-160v160m10-160v160m10-160v160m10-160v160m10-160v160m10-160v160m10-160v160m10-160v160m10-160v160m10-160v160m10-160v160m10-160v160m10-150h-160m160 10h-160m160 10h-160m160 10h-160m160 10h-160m160 10h-160m160 10h-160m160 10h-160m160 10h-160m160 10h-160m160 10h-160m160 10h-160m160 10h-160m160 10h-160m160 10h-160" stroke="#DFDFDF" stroke-linecap="square"/><path fill="#6E49CB" d="M49 49h60v10H49zm60 10h10v20h-10zM49 79h140v10H49zm0 90h140v10H49zM39 59h10v110H39zm150 30h10v80h-10z"/><path fill="#8657D8" d="M39 169h10v10H39zm10-10h10v10H49z"/><path fill="#AA8EDC" d="M49 89h10v10H49zm130 0h10v10h-10z"/><path fill="#D9CAF4" d="M109 49h10v10h-10z"/><path fill="#AA8EDC" d="M49 69h10v10H49z"/><path fill="#8657D8" d="M189 169h10v10h-10zm0-90h10v10h-10zM99 59h10v10H99zm20 10h10v10h-10zM49 59h10v10H49zM39 49h10v10H39zm140 110h10v10h-10z"/><path fill="#BCA2EA" d="M59 159h120v10H59zm0-70h120v10H59zm0-30h40v10H59zM49 99h10v60H49zm130 0h10v60h-10z"/><g opacity=".2" stroke="#DFDFDF"><path d="M39.5 39.5h160v160h-160z"/><path d="M49.5 39.5v160m10-160v160m10-160v160m10-160v160m10-160v160m10-160v160m10-160v160m10-160v160m10-160v160m10-160v160m10-160v160m10-160v160m10-160v160m10-160v160m10-160v160m10-150h-160m160 10h-160m160 10h-160m160 10h-160m160 10h-160m160 10h-160m160 10h-160m160 10h-160m160 10h-160m160 10h-160m160 10h-160m160 10h-160m160 10h-160m160 10h-160m160 10h-160" stroke-linecap="square"/></g><path fill-rule="evenodd" clip-rule="evenodd" d="M211 39c5.523 0 10-4.477 10-10s-4.477-10-10-10-10 4.477-10 10 4.477 10 10 10Z" fill="#17AA55"/><path d="m207 29.069 2.981 2.98 6.05-6.049" stroke="#fff" stroke-width="2" stroke-linecap="round"/></svg>