<svg width="240" height="240" viewBox="0 0 240 240" fill="none" xmlns="http://www.w3.org/2000/svg"><path fill="#fff" d="M0 0h240v240H0z"/><path stroke="#DFDFDF" d="M39.5 39.5h160v160h-160z"/><path d="M49.5 39.5v160m10-160v160m10-160v160m10-160v160m10-160v160m10-160v160m10-160v160m10-160v160m10-160v160m10-160v160m10-160v160m10-160v160m10-160v160m10-160v160m10-160v160m10-150h-160m160 10h-160m160 10h-160m160 10h-160m160 10h-160m160 10h-160m160 10h-160m160 10h-160m160 10h-160m160 10h-160m160 10h-160m160 10h-160m160 10h-160m160 10h-160m160 10h-160" stroke="#DFDFDF" stroke-linecap="square"/><path d="M70 174a5 5 0 0 1-5-5V69a5 5 0 0 1 5-5h92.5a7.5 7.5 0 0 0 0-15H70c-11.046 0-20 8.954-20 20v100c0 11.046 8.954 20 20 20h100c11.046 0 20-8.954 20-20v-32.5a7.5 7.5 0 0 0-15 0V169a5 5 0 0 1-5 5H70Z" fill="#6E49CB" fill-opacity=".3"/><path d="M197.803 85.803a7.5 7.5 0 0 0-10.606-10.606l-55.577 55.577-18.73-19.359a7.5 7.5 0 1 0-10.78 10.43l24.031 24.839a7.502 7.502 0 0 0 10.693.088l60.969-60.969Z" fill="#6E49CB" fill-opacity=".3"/><path d="m110 120 21 21 60-60" stroke="#6E49CB" stroke-linecap="round" stroke-linejoin="round"/><path d="M138.5 141a7.5 7.5 0 1 1-15 0 7.5 7.5 0 0 1 15 0Z" fill="#FC6D26" fill-opacity=".499" stroke="#DB3B21"/><path fill="#fff" stroke="#6E49CB" d="M128.5 138.5h4v4h-4zm-21-21h4v4h-4zm82-39h4v4h-4z"/></svg>