<svg width="240" height="240" viewBox="0 0 240 240" fill="none" xmlns="http://www.w3.org/2000/svg"><path fill="#fff" d="M0 0h240v240H0z"/><path stroke="#DFDFDF" d="M39.5 39.5h160v160h-160z"/><path d="M49.5 39.5v160m10-160v160m10-160v160m10-160v160m10-160v160m10-160v160m10-160v160m10-160v160m10-160v160m10-160v160m10-160v160m10-160v160m10-160v160m10-160v160m10-160v160m10-150h-160m160 10h-160m160 10h-160m160 10h-160m160 10h-160m160 10h-160m160 10h-160m160 10h-160m160 10h-160m160 10h-160m160 10h-160m160 10h-160m160 10h-160m160 10h-160m160 10h-160" stroke="#DFDFDF" stroke-linecap="square"/><path fill-rule="evenodd" clip-rule="evenodd" d="M211 39c5.523 0 10-4.477 10-10s-4.477-10-10-10-10 4.477-10 10 4.477 10 10 10Z" fill="#DB3B21"/><path d="m214 26-6 6.002M208 26l6 6.002" stroke="#fff" stroke-width="2" stroke-linecap="round"/><mask id="icons-shape-complex__a" fill="#fff"><path fill-rule="evenodd" clip-rule="evenodd" d="M42.731 95.177 119.5 50l76.769 45.177c3.595 2.116 4.801 6.758 2.694 10.368-2.108 3.609-6.732 4.82-10.328 2.704l-8.761-5.156V180H59.126v-76.907l-8.761 5.156c-3.596 2.116-8.22.905-10.328-2.704-2.107-3.61-.901-8.252 2.694-10.368ZM162.723 93 119.5 67.564 76.277 93h86.446Zm-88.504 12v59.848h15.156v-45.457h40.25v45.457h35.156V105H74.219Zm40.312 59.848v-30.305h-10.062v30.305h10.062ZM140 120h15v15h-15v-15Z"/></mask><path fill-rule="evenodd" clip-rule="evenodd" d="M42.731 95.177 119.5 50l76.769 45.177c3.595 2.116 4.801 6.758 2.694 10.368-2.108 3.609-6.732 4.82-10.328 2.704l-8.761-5.156V180H59.126v-76.907l-8.761 5.156c-3.596 2.116-8.22.905-10.328-2.704-2.107-3.61-.901-8.252 2.694-10.368ZM162.723 93 119.5 67.564 76.277 93h86.446Zm-88.504 12v59.848h15.156v-45.457h40.25v45.457h35.156V105H74.219Zm40.312 59.848v-30.305h-10.062v30.305h10.062ZM140 120h15v15h-15v-15Z" fill="#6E49CB" fill-opacity=".3"/><path d="m119.5 50 .507-.862-.507-.298-.507.298.507.862ZM42.731 95.177l.508.862-.508-.862Zm153.538 0 .507-.861-.507.861Zm2.694 10.368-.864-.505.864.505Zm-10.328 2.704.508-.862-.508.862Zm-8.761-5.156.507-.862-1.507-.887v1.749h1Zm0 76.907v1h1v-1h-1Zm-120.748 0h-1v1h1v-1Zm0-76.907h1v-1.749l-1.507.887.507.862Zm-8.761 5.156.507.862-.508-.862Zm-10.328-2.704-.863.504.863-.504ZM162.723 93v1h3.671l-3.164-1.862-.507.862ZM119.5 67.564l.507-.862-.507-.299-.507.299.507.862ZM76.277 93l-.507-.862L72.606 94h3.671v-1Zm-2.058 12v-1h-1v1h1Zm0 59.848h-1v1h1v-1Zm15.156 0v1h1v-1h-1Zm0-45.457v-1h-1v1h1Zm40.25 0h1v-1h-1v1Zm0 45.457h-1v1h1v-1Zm35.156 0v1h1v-1h-1Zm0-59.848h1v-1h-1v1Zm-50.25 29.543h1v-1h-1v1Zm0 30.305v1h1v-1h-1Zm-10.062-30.305v-1h-1v1h1Zm0 30.305h-1v1h1v-1ZM155 120h1v-1h-1v1Zm-15 0v-1h-1v1h1Zm15 15v1h1v-1h-1Zm-15 0h-1v1h1v-1Zm-21.007-85.862L42.224 94.316l1.015 1.723 76.768-45.177-1.014-1.724Zm77.783 45.178-76.769-45.178-1.014 1.724 76.768 45.177 1.015-1.723Zm3.05 11.733c2.385-4.084 1.022-9.337-3.05-11.733l-1.015 1.723c3.12 1.836 4.169 5.866 2.338 9.001l1.727 1.009Zm-11.698 3.062c4.075 2.398 9.312 1.024 11.698-3.062l-1.727-1.009a6.529 6.529 0 0 1-8.956 2.347l-1.015 1.724Zm-8.761-5.156 8.761 5.156 1.015-1.724-8.762-5.156-1.014 1.724ZM180.874 180v-76.907h-2V180h2Zm-121.748 1h120.748v-2H59.126v2Zm-1-77.907V180h2v-76.907h-2Zm-7.254 6.018 8.761-5.156-1.014-1.724-8.762 5.156 1.015 1.724Zm-11.698-3.062c2.386 4.086 7.623 5.46 11.698 3.062l-1.015-1.724a6.53 6.53 0 0 1-8.956-2.347l-1.727 1.009Zm3.05-11.733c-4.072 2.396-5.435 7.649-3.05 11.733l1.727-1.009c-1.83-3.135-.782-7.165 2.338-9l-1.015-1.724Zm121.006-2.178-43.223-25.436-1.014 1.724 43.223 25.436 1.014-1.724Zm-44.237-25.436L75.77 92.138l1.014 1.724 43.223-25.436-1.014-1.724ZM162.723 92H76.277v2h86.446v-2Zm-89.504 13v59.848h2V105h-2Zm1 60.848h15.156v-2H74.22v2Zm16.156-1v-45.457h-2v45.457h2Zm-1-44.457h40.25v-2h-40.25v2Zm39.25-1v45.457h2v-45.457h-2Zm1 46.457h35.156v-2h-35.156v2Zm36.156-1V105h-2v59.848h2ZM74.219 106h90.562v-2H74.219v2Zm39.312 28.543v30.305h2v-30.305h-2Zm-9.062 1h10.062v-2h-10.062v2Zm1 29.305v-30.305h-2v30.305h2Zm9.062-1h-10.062v2h10.062v-2ZM155 119h-15v2h15v-2Zm1 16v-15h-2v15h2Zm-16 1h15v-2h-15v2Zm-1-16v15h2v-15h-2Z" fill="#6E49CB" mask="url(#icons-shape-complex__a)"/></svg>