<svg width="64" height="64" viewBox="0 0 64 64" fill="none" xmlns="http://www.w3.org/2000/svg">
<rect width="64" height="64" rx="4" fill="#FBFAFD"/>
<path d="M40.7069 24.4467C40.1081 22.097 36.2122 21.3249 32.525 22.6347C30.3304 23.4145 27.9556 24.638 26.2473 26.2355C24.2163 28.1352 23.8924 29.7882 24.0263 30.4791C24.497 32.9164 27.8372 34.5102 29.21 35.6918V35.6989C28.805 35.8979 25.8422 37.3976 25.1487 38.9309C24.4172 40.5484 25.2652 41.7088 25.8268 41.8653C27.5667 42.3495 29.3517 41.4789 30.3118 40.0474C31.2378 38.6662 31.1605 36.8831 30.7581 35.9958C31.3131 35.8496 31.9603 35.7839 32.7826 35.8798C35.1034 36.151 35.5586 37.5998 35.4717 38.2064C35.3848 38.813 34.8979 39.1465 34.735 39.247C34.5721 39.3474 34.5225 39.3829 34.5361 39.4576C34.556 39.5664 34.6314 39.5625 34.7698 39.5387C34.9611 39.5065 35.9881 39.0455 36.0326 37.9263C36.0886 36.5051 34.7267 34.9153 32.3151 34.9571C31.3221 34.9745 30.6975 35.0685 30.2461 35.2366C30.2127 35.1982 30.1786 35.1604 30.1437 35.1232C28.653 33.5327 25.897 32.4077 26.0135 30.2692C26.056 29.492 26.3265 27.4449 31.3093 24.9619C35.3912 22.9277 38.6592 23.4879 39.2239 24.7281C40.0308 26.5002 37.4776 29.794 33.2385 30.2692C31.6235 30.4502 30.7729 29.8242 30.5616 29.5911C30.3388 29.3458 30.306 29.3348 30.2223 29.3806C30.0871 29.4559 30.1727 29.6723 30.2223 29.8017C30.3492 30.1314 30.8682 30.7155 31.7536 31.0059C32.5328 31.2615 34.4285 31.4019 36.7222 30.5152C39.2902 29.5203 41.2961 26.7565 40.7069 24.4467ZM29.7799 36.4201C29.9725 37.1323 29.9512 37.7962 29.7522 38.397C29.7081 38.5308 29.6552 38.6616 29.5938 38.7885C29.4406 39.1066 29.2345 39.4041 28.9827 39.6791C28.2138 40.5175 27.1404 40.835 26.68 40.5677C26.1829 40.2793 26.4321 39.097 27.3226 38.1555C28.2814 37.142 29.6608 36.4903 29.6608 36.4903L29.6589 36.4864L29.7799 36.4201V36.4201Z" fill="#EC407A" stroke="#EC407A" stroke-width="0.399994"/>
</svg>
