<svg width="240" height="240" xmlns="http://www.w3.org/2000/svg"><g fill="none" fill-rule="evenodd"><path fill="#FFF" d="M0 0h240v240H0z"/><g stroke="#DFDFDF"><path d="M39.5 39.5h160v160h-160z"/><g stroke-linecap="square"><path d="M49.5 39.5v160M59.5 39.5v160M69.5 39.5v160M79.5 39.5v160M89.5 39.5v160M99.5 39.5v160M109.5 39.5v160M119.5 39.5v160M129.5 39.5v160M139.5 39.5v160M149.5 39.5v160M159.5 39.5v160M169.5 39.5v160M179.5 39.5v160M189.5 39.5v160M199.5 49.5h-160M199.5 59.5h-160M199.5 69.5h-160M199.5 79.5h-160M199.5 89.5h-160M199.5 99.5h-160M199.5 109.5h-160M199.5 119.5h-160M199.5 129.5h-160M199.5 139.5h-160M199.5 149.5h-160M199.5 159.5h-160M199.5 169.5h-160M199.5 179.5h-160M199.5 189.5h-160"/></g></g><path d="M129.5 129.5h-20v30h-30V93.917l40.002-23.096L159.5 93.914V159.5h-30v-30zm-9.998-81.773L44.843 90.832c-4.783 2.761-6.421 8.877-3.66 13.66a10.003 10.003 0 0 0 8.812 5.008c1.16-.016 4.16-.016 9.007 0l.498.002V179.5h120v-69.998l.498-.002c4.85-.017 7.851-.017 9.01 0a10.003 10.003 0 0 0 8.813-5.008c2.762-4.783 1.123-10.899-3.66-13.66l-74.659-43.105z" stroke="#6E49CB" fill-opacity=".3" fill="#6E49CB"/><g transform="translate(201 19)"><circle fill="#17AA55" cx="10" cy="10" r="10"/><path stroke="#FFF" stroke-width="2" stroke-linecap="round" d="M6 10.069l2.98 2.98L15.03 7"/></g></g></svg>