<svg width="240" height="240" viewBox="0 0 240 240" fill="none" xmlns="http://www.w3.org/2000/svg"><path fill="#fff" d="M0 0h240v240H0z"/><path stroke="#DFDFDF" d="M39.5 39.5h160v160h-160z"/><path d="M49.5 39.5v160m10-160v160m10-160v160m10-160v160m10-160v160m10-160v160m10-160v160m10-160v160m10-160v160m10-160v160m10-160v160m10-160v160m10-160v160m10-160v160m10-160v160m10-150h-160m160 10h-160m160 10h-160m160 10h-160m160 10h-160m160 10h-160m160 10h-160m160 10h-160m160 10h-160m160 10h-160m160 10h-160m160 10h-160m160 10h-160m160 10h-160m160 10h-160" stroke="#DFDFDF" stroke-linecap="square"/><path fill-rule="evenodd" clip-rule="evenodd" d="M211 39c5.523 0 10-4.477 10-10s-4.477-10-10-10-10 4.477-10 10 4.477 10 10 10Z" fill="#17AA55"/><path d="m207 29.069 2.981 2.98 6.05-6.049" stroke="#fff" stroke-width="2" stroke-linecap="round"/><path d="M179.374 103.093V179.5H59.626v-77.281l-.754.443-8.761 5.156c-3.356 1.975-7.673.846-9.642-2.525-1.97-3.373-.842-7.709 2.516-9.685L119.5 50.58l76.515 45.028c3.357 1.976 4.485 6.312 2.516 9.685-1.969 3.371-6.286 4.5-9.642 2.525l-8.761-5.156-.754-.443v.874Zm-14.093-8.882v-.286l-.247-.145-45.28-26.647-.254-.15-.254.15-45.28 26.647-.247.145v71.423h26.156v-45.457h39.25v45.457h26.156V94.211Zm-40.75 71.137h.5v-31.305h-11.062v31.305h10.562Z" fill="#6E49CB" fill-opacity=".3" stroke="#6E49CB"/></svg>