<svg width="240" height="240" viewBox="0 0 240 240" fill="none" xmlns="http://www.w3.org/2000/svg"><path fill="#fff" d="M0 0h240v240H0z"/><path stroke="#DFDFDF" d="M39.5 39.5h160v160h-160z"/><path d="M49.5 39.5v160m10-160v160m10-160v160m10-160v160m10-160v160m10-160v160m10-160v160m10-160v160m10-160v160m10-160v160m10-160v160m10-160v160m10-160v160m10-160v160m10-160v160m10-150h-160m160 10h-160m160 10h-160m160 10h-160m160 10h-160m160 10h-160m160 10h-160m160 10h-160m160 10h-160m160 10h-160m160 10h-160m160 10h-160m160 10h-160m160 10h-160m160 10h-160" stroke="#DFDFDF" stroke-linecap="square"/><path d="M127.047 76.734a7.547 7.547 0 0 0-15.094 0v45.892l24.89 24.89a7.546 7.546 0 0 0 10.673 0 7.546 7.546 0 0 0 0-10.673l-20.469-20.469v-39.64Z" fill="#6E49CB" fill-opacity=".3"/><path fill-rule="evenodd" clip-rule="evenodd" d="M200 119.5c0 44.459-36.041 80.5-80.5 80.5S39 163.959 39 119.5 75.041 39 119.5 39 200 75.041 200 119.5Zm-15.094 0c0 36.123-29.283 65.406-65.406 65.406-36.123 0-65.406-29.283-65.406-65.406 0-36.123 29.283-65.406 65.406-65.406 36.123 0 65.406 29.283 65.406 65.406Z" fill="#6E49CB" fill-opacity=".3"/><path d="M119.5 80v39.015l20.109 20.109" stroke="#6E49CB" stroke-linecap="round"/><path d="M112.5 122.444V109.5h14v7.006l.145.146 4.31 4.357-9.665 10.272-8.79-8.837Z" fill="#FC6D26" fill-opacity=".499" stroke="#DB3B21"/><path fill="#fff" stroke="#6E49CB" d="M117.5 77.5h4v4h-4zm0 40h4v4h-4zm20 20h4v4h-4z"/></svg>