<svg width="240" height="240" xmlns="http://www.w3.org/2000/svg"><g fill="none" fill-rule="evenodd"><path fill="#FFF" d="M0 0h240v240H0z"/><g stroke="#DFDFDF"><path d="M39.5 39.5h160v160h-160z"/><g stroke-linecap="square"><path d="M49.5 39.5v160M59.5 39.5v160M69.5 39.5v160M79.5 39.5v160M89.5 39.5v160M99.5 39.5v160M109.5 39.5v160M119.5 39.5v160M129.5 39.5v160M139.5 39.5v160M149.5 39.5v160M159.5 39.5v160M169.5 39.5v160M179.5 39.5v160M189.5 39.5v160M199.5 49.5h-160M199.5 59.5h-160M199.5 69.5h-160M199.5 79.5h-160M199.5 89.5h-160M199.5 99.5h-160M199.5 109.5h-160M199.5 119.5h-160M199.5 129.5h-160M199.5 139.5h-160M199.5 149.5h-160M199.5 159.5h-160M199.5 169.5h-160M199.5 179.5h-160M199.5 189.5h-160"/></g></g><path d="M46.213 106.273c-7.617 7.617-7.617 19.967 0 27.584l34.975 34.976c7.618 7.617 19.968 7.617 27.585 0l34.975-34.976c7.618-7.617 7.618-19.967 0-27.584l-34.975-34.976c-7.617-7.617-19.967-7.617-27.585 0l-34.975 34.976zm48.768 49.474l-35.683-35.682 35.683-35.682 35.682 35.682-35.682 35.682zm51.58-74.025l30.859 30.86c4.1 4.101 4.1 10.752-.001 14.855l-30.892 30.899a9.503 9.503 0 0 0 13.44 13.437l30.893-30.9c11.52-11.525 11.52-30.205 0-41.73L160 68.283a9.503 9.503 0 0 0-13.44 13.44z" stroke="#6E49CB" fill-opacity=".3" fill="#6E49CB"/><path d="M11.877 139.255c.406-.442.82-.778 1.244-1.008.424-.23.91-.346 1.456-.346.82 0 1.471.24 1.952.718.48.479.721 1.117.721 1.914 0 .237-.033.48-.1.728a5.172 5.172 0 0 1-.245.715c-.098.227-.24.482-.427.762s-.366.533-.537.759c-.17.225-.401.5-.69.827-.29.326-.545.607-.766.844-.221.237-.512.545-.872.923a19.539 19.539 0 0 1 1.497-.082h2.591V147h-5.77v-.684c.616-.61 1.11-1.11 1.484-1.497.374-.387.754-.802 1.142-1.244.387-.442.682-.819.885-1.131.203-.312.368-.63.496-.95a2.46 2.46 0 0 0 .19-.906c0-.533-.143-.958-.43-1.275-.287-.317-.706-.475-1.258-.475-.651 0-1.287.36-1.907 1.08l-.656-.663zm7.44 10.616v-9.673h.95l.103.78h.041c.752-.634 1.475-.95 2.167-.95.862 0 1.525.31 1.99.929.465.62.697 1.467.697 2.543 0 .56-.08 1.076-.24 1.545-.159.47-.374.857-.645 1.162a2.937 2.937 0 0 1-.937.711 2.562 2.562 0 0 1-1.117.253c-.588 0-1.217-.262-1.887-.786l.027 1.19v2.296h-1.148zm1.15-4.382c.56.474 1.116.711 1.667.711.57 0 1.036-.244 1.398-.731.362-.488.544-1.144.544-1.969 0-.788-.145-1.404-.435-1.846-.289-.442-.741-.663-1.356-.663-.525 0-1.13.31-1.819.93v3.568zM25.74 147l2.222-3.555-2.058-3.247h1.25l.91 1.497c.397.675.62 1.053.67 1.135h.055c.296-.56.501-.939.615-1.135l.827-1.497h1.203l-2.057 3.37L31.59 147h-1.25l-.992-1.58a46.356 46.356 0 0 0-.738-1.223h-.062c-.123.196-.35.604-.683 1.224L26.943 147H25.74zM208.61 144.54v-.76l3.822-5.715h1.285v5.544h1.223v.93h-1.223V147h-1.087v-2.46h-4.02zm1.217-.93h2.803v-2.585c0-.35.023-.925.068-1.722h-.054c-.041.077-.285.496-.732 1.258l-2.085 3.048zm6.49 6.261v-9.673h.95l.103.78h.041c.752-.634 1.475-.95 2.167-.95.862 0 1.525.31 1.99.929.465.62.697 1.467.697 2.543 0 .56-.08 1.076-.24 1.545-.159.47-.374.857-.645 1.162a2.937 2.937 0 0 1-.937.711 2.562 2.562 0 0 1-1.117.253c-.588 0-1.217-.262-1.887-.786l.027 1.19v2.296h-1.148zm1.15-4.382c.56.474 1.116.711 1.667.711.57 0 1.036-.244 1.398-.731.362-.488.544-1.144.544-1.969 0-.788-.145-1.404-.435-1.846-.289-.442-.741-.663-1.356-.663-.525 0-1.13.31-1.819.93v3.568zM222.74 147l2.222-3.555-2.058-3.247h1.25l.91 1.497c.397.675.62 1.053.67 1.135h.055c.296-.56.501-.939.615-1.135l.827-1.497h1.203l-2.057 3.37L228.59 147h-1.25l-.992-1.58a46.356 46.356 0 0 0-.738-1.223h-.062c-.123.196-.35.604-.683 1.224l-.923 1.579h-1.203z" fill="#380D75" fill-rule="nonzero"/><circle stroke="#6E49CB" cx="60" cy="120" r="19.5"/><circle stroke="#6E49CB" cx="170" cy="120" r="29.5"/><path d="M46 105.858L60.142 120 46 134.142c-7.81-7.81-7.81-20.474 0-28.284zM190.929 98.787L169.716 120l21.213 21.213c11.716-11.716 11.716-30.71 0-42.426z" fill-opacity=".3" fill="#6E49CB"/></g></svg>