<svg width="240" height="240" viewBox="0 0 240 240" fill="none" xmlns="http://www.w3.org/2000/svg"><path fill="#fff" d="M0 0h240v240H0z"/><path fill-rule="evenodd" clip-rule="evenodd" d="M88 120a4 4 0 0 0-4 4v24a4 4 0 0 0 4 4h27.757l4.243 4.243 4.243-4.243H152a4 4 0 0 0 4-4v-24a4 4 0 0 0-4-4H88Z" fill="#000"/><path fill-rule="evenodd" clip-rule="evenodd" d="M102.318 140.898a2.849 2.849 0 0 0 1.248-.966l.3 1.068h.72v-4.512h-3.756v.96h2.736c.016.392-.036.758-.156 1.098a2.5 2.5 0 0 1-.534.888c-.236.252-.526.45-.87.594-.344.144-.74.216-1.188.216-.48 0-.902-.094-1.266-.282a2.764 2.764 0 0 1-.918-.756 3.369 3.369 0 0 1-.564-1.092 4.323 4.323 0 0 1-.192-1.29c0-.456.056-.902.168-1.338.112-.436.286-.824.522-1.164.236-.34.54-.614.912-.822.372-.208.818-.312 1.338-.312.32 0 .622.038.906.114.284.076.538.19.762.342.224.152.412.346.564.582.152.236.256.518.312.846h1.14c-.08-.504-.23-.934-.45-1.29a3.027 3.027 0 0 0-.816-.882 3.325 3.325 0 0 0-1.104-.51 5.164 5.164 0 0 0-1.314-.162c-.68 0-1.274.126-1.782.378s-.932.59-1.272 1.014c-.34.424-.596.918-.768 1.482a6.076 6.076 0 0 0-.258 1.782c0 .56.092 1.1.276 1.62.184.52.452.98.804 1.38.352.4.78.718 1.284.954s1.076.354 1.716.354c.504 0 1.004-.098 1.5-.294Zm3.84-7.218h1.02v-1.248h-1.02v1.248Zm0 1.116h1.02V141h-1.02v-6.204Zm5.256 0h-1.236v-1.86h-1.02v1.86h-1.056v.9h1.056v3.948c0 .288.028.52.084.696a.846.846 0 0 0 .258.408.996.996 0 0 0 .456.198c.188.036.414.054.678.054h.78v-.9h-.468c-.16 0-.29-.006-.39-.018a.504.504 0 0 1-.234-.078.297.297 0 0 1-.114-.168 1.113 1.113 0 0 1-.03-.288v-3.852h1.236v-.9Zm4.632-2.364h1.14v3.684h4.512v-3.684h1.14V141h-1.14v-3.924h-4.512V141h-1.14v-8.568Zm9.39 6.474c-.1-.292-.15-.626-.15-1.002s.05-.71.15-1.002c.1-.292.238-.538.414-.738.176-.2.382-.352.618-.456a1.84 1.84 0 0 1 .75-.156c.264 0 .514.052.75.156.236.104.442.256.618.456s.314.446.414.738c.1.292.15.626.15 1.002s-.05.71-.15 1.002c-.1.292-.238.536-.414.732a1.796 1.796 0 0 1-.618.45 1.84 1.84 0 0 1-.75.156 1.84 1.84 0 0 1-.75-.156 1.796 1.796 0 0 1-.618-.45 2.096 2.096 0 0 1-.414-.732Zm-1.23-1.002c0-.456.064-.882.192-1.278s.32-.74.576-1.032c.256-.292.572-.522.948-.69a3.148 3.148 0 0 1 1.296-.252c.496 0 .93.084 1.302.252.372.168.686.398.942.69.256.292.448.636.576 1.032.128.396.192.822.192 1.278 0 .456-.064.88-.192 1.272s-.32.734-.576 1.026c-.256.292-.57.52-.942.684-.372.164-.806.246-1.302.246-.488 0-.92-.082-1.296-.246a2.65 2.65 0 0 1-.948-.684 2.904 2.904 0 0 1-.576-1.026 4.075 4.075 0 0 1-.192-1.272Zm8.118 1.002c-.1-.292-.15-.626-.15-1.002s.05-.71.15-1.002c.1-.292.238-.538.414-.738.176-.2.382-.352.618-.456a1.84 1.84 0 0 1 .75-.156c.264 0 .514.052.75.156.236.104.442.256.618.456s.314.446.414.738c.1.292.15.626.15 1.002s-.05.71-.15 1.002c-.1.292-.238.536-.414.732a1.796 1.796 0 0 1-.618.45 1.84 1.84 0 0 1-.75.156 1.84 1.84 0 0 1-.75-.156 1.796 1.796 0 0 1-.618-.45 2.096 2.096 0 0 1-.414-.732Zm-1.23-1.002c0-.456.064-.882.192-1.278s.32-.74.576-1.032c.256-.292.572-.522.948-.69a3.148 3.148 0 0 1 1.296-.252c.496 0 .93.084 1.302.252.372.168.686.398.942.69.256.292.448.636.576 1.032.128.396.192.822.192 1.278 0 .456-.064.88-.192 1.272s-.32.734-.576 1.026c-.256.292-.57.52-.942.684-.372.164-.806.246-1.302.246-.488 0-.92-.082-1.296-.246a2.65 2.65 0 0 1-.948-.684 2.904 2.904 0 0 1-.576-1.026 4.075 4.075 0 0 1-.192-1.272Zm8.304-5.472h-1.02V141h1.02v-2.352l.96-.888 2.124 3.24h1.296l-2.64-3.948 2.46-2.256h-1.368l-2.832 2.712v-5.076Z" fill="#fff"/><path fill-rule="evenodd" clip-rule="evenodd" d="M120 160.5a1 1 0 1 1 0 2 1 1 0 0 1 0-2Zm0-1.5a2.5 2.5 0 0 1 .75 4.886v5.239a2.375 2.375 0 1 0 4.75 0v-.502l-.208.208a.75.75 0 1 1-1.061-1.061l1.489-1.488 1.28-1.28v4.123a3.875 3.875 0 0 1-7 2.292 3.875 3.875 0 0 1-7-2.292v-4.123l1.28 1.28 1.489 1.488a.75.75 0 1 1-1.061 1.061l-.208-.208v.502a2.375 2.375 0 1 0 4.75 0v-5.239A2.5 2.5 0 0 1 120 159ZM73 77.5a1 1 0 1 1 0 2 1 1 0 0 1 0-2Zm0-1.5a2.5 2.5 0 0 1 .75 4.885v5.24a2.375 2.375 0 1 0 4.75 0v-.502l-.208.208a.75.75 0 1 1-1.06-1.06l1.488-1.489 1.28-1.28v4.123a3.875 3.875 0 0 1-7 2.292 3.875 3.875 0 0 1-7-2.292v-4.123l1.28 1.28 1.489 1.489a.75.75 0 1 1-1.061 1.06l-.208-.208v.502a2.375 2.375 0 1 0 4.75 0v-5.24A2.501 2.501 0 0 1 73 76Z" fill="#000"/><path d="m91.814 83.87 1.694-4.662h.028l1.666 4.662h-3.388Zm.994-5.866L88.916 88h1.358l1.12-3.01h4.228L96.714 88h1.47l-3.906-9.996h-1.47Zm7.034 6.44c0-.355.037-.7.112-1.036.075-.336.196-.635.364-.896.168-.261.392-.471.672-.63.28-.159.621-.238 1.022-.238.411 0 .761.08 1.05.238.289.15.523.35.7.602.187.252.322.546.406.882a4.088 4.088 0 0 1 0 2.016 2.59 2.59 0 0 1-.378.882 2.075 2.075 0 0 1-.686.616c-.28.159-.621.238-1.022.238a2.17 2.17 0 0 1-1.008-.224c-.28-.15-.513-.35-.7-.602a2.884 2.884 0 0 1-.406-.854 3.976 3.976 0 0 1-.126-.994Zm5.6 3.556v-9.996h-1.19v3.724h-.028a1.79 1.79 0 0 0-.49-.532 2.305 2.305 0 0 0-.602-.35 2.829 2.829 0 0 0-.644-.196 3.528 3.528 0 0 0-.602-.056c-.551 0-1.036.103-1.456.308a2.949 2.949 0 0 0-1.036.812c-.27.336-.476.733-.616 1.19-.13.457-.196.943-.196 1.456s.07.999.21 1.456c.14.457.346.859.616 1.204.28.345.625.62 1.036.826.42.205.91.308 1.47.308.504 0 .966-.089 1.386-.266.42-.177.728-.467.924-.868h.028V88h1.19Zm2.699-3.556c0-.355.037-.7.112-1.036.075-.336.196-.635.364-.896.168-.261.392-.471.672-.63.28-.159.621-.238 1.022-.238.411 0 .761.08 1.05.238.289.15.523.35.7.602.187.252.322.546.406.882a4.088 4.088 0 0 1 0 2.016 2.59 2.59 0 0 1-.378.882 2.075 2.075 0 0 1-.686.616c-.28.159-.621.238-1.022.238a2.17 2.17 0 0 1-1.008-.224c-.28-.15-.513-.35-.7-.602a2.887 2.887 0 0 1-.406-.854 3.976 3.976 0 0 1-.126-.994Zm5.6 3.556v-9.996h-1.19v3.724h-.028a1.79 1.79 0 0 0-.49-.532 2.305 2.305 0 0 0-.602-.35 2.829 2.829 0 0 0-.644-.196 3.528 3.528 0 0 0-.602-.056c-.551 0-1.036.103-1.456.308a2.95 2.95 0 0 0-1.036.812 3.508 3.508 0 0 0-.616 1.19 5.264 5.264 0 0 0-.196 1.456c0 .513.07.999.21 1.456.14.457.345.859.616 1.204.28.345.625.62 1.036.826.42.205.91.308 1.47.308.504 0 .966-.089 1.386-.266.42-.177.728-.467.924-.868h.028V88h1.19Zm13.399-1.246.35 1.246h.84v-5.264h-4.382v1.12h3.192c.019.457-.042.887-.182 1.288a2.87 2.87 0 0 1-1.638 1.722c-.401.168-.863.252-1.386.252-.56 0-1.054-.107-1.484-.322a3.373 3.373 0 0 1-1.064-.882 4.048 4.048 0 0 1-.658-1.274 5.123 5.123 0 0 1-.224-1.512c0-.532.066-1.05.196-1.554.131-.513.332-.966.602-1.358.28-.401.635-.723 1.064-.966.439-.243.962-.364 1.568-.364.374 0 .724.047 1.05.14.336.084.635.215.896.392.262.177.481.406.658.686.178.27.299.597.364.98h1.33c-.093-.588-.27-1.087-.532-1.498a3.378 3.378 0 0 0-.952-1.036 3.687 3.687 0 0 0-1.288-.588 5.739 5.739 0 0 0-1.526-.196c-.793 0-1.488.15-2.086.448a4.374 4.374 0 0 0-1.484 1.176 5.292 5.292 0 0 0-.896 1.736 7.173 7.173 0 0 0-.294 2.072c0 .653.108 1.283.322 1.89.215.607.528 1.143.938 1.61.411.467.91.84 1.498 1.12.588.27 1.256.406 2.002.406.588 0 1.172-.112 1.75-.336a3.372 3.372 0 0 0 1.456-1.134Zm4.211-7.294v-1.456h-1.19v1.456h1.19Zm-1.19 1.302V88h1.19v-7.238h-1.19Zm4.686 0v-2.17h-1.19v2.17h-1.232v1.05h1.232v4.606c0 .336.032.607.098.812.065.205.163.364.294.476.14.112.317.191.532.238.224.037.49.056.798.056h.91v-1.05h-.546c-.187 0-.341-.005-.462-.014a.633.633 0 0 1-.266-.098.377.377 0 0 1-.14-.196 1.588 1.588 0 0 1-.028-.336v-4.494h1.442v-1.05h-1.442Zm6.856-2.758V88h1.33v-4.578h5.264V88h1.33v-9.996h-1.33v4.298h-5.264v-4.298h-1.33Zm10.776 6.384c0-.439.056-.826.168-1.162.121-.345.285-.635.49-.868.205-.233.443-.41.714-.532a2.196 2.196 0 0 1 1.75 0c.28.121.523.299.728.532.205.233.364.523.476.868.121.336.182.723.182 1.162 0 .439-.061.83-.182 1.176a2.45 2.45 0 0 1-.476.854 2.116 2.116 0 0 1-.728.518 2.196 2.196 0 0 1-1.75 0 2.15 2.15 0 0 1-.714-.518 2.627 2.627 0 0 1-.49-.854 3.806 3.806 0 0 1-.168-1.176Zm-1.26 0c0 .532.075 1.027.224 1.484.149.457.373.859.672 1.204.299.336.667.602 1.106.798.439.187.943.28 1.512.28.579 0 1.083-.093 1.512-.28a3.208 3.208 0 0 0 1.106-.798 3.45 3.45 0 0 0 .672-1.204c.149-.457.224-.952.224-1.484s-.075-1.027-.224-1.484a3.29 3.29 0 0 0-.672-1.204 3.126 3.126 0 0 0-1.106-.812c-.429-.196-.933-.294-1.512-.294-.569 0-1.073.098-1.512.294a3.126 3.126 0 0 0-1.106.812 3.29 3.29 0 0 0-.672 1.204 4.764 4.764 0 0 0-.224 1.484Zm9.299 0c0-.439.056-.826.168-1.162.121-.345.285-.635.49-.868.205-.233.443-.41.714-.532a2.196 2.196 0 0 1 1.75 0c.28.121.523.299.728.532.205.233.364.523.476.868.121.336.182.723.182 1.162 0 .439-.061.83-.182 1.176a2.45 2.45 0 0 1-.476.854 2.116 2.116 0 0 1-.728.518 2.196 2.196 0 0 1-1.75 0 2.15 2.15 0 0 1-.714-.518 2.627 2.627 0 0 1-.49-.854 3.806 3.806 0 0 1-.168-1.176Zm-1.26 0c0 .532.075 1.027.224 1.484.149.457.373.859.672 1.204.299.336.667.602 1.106.798.439.187.943.28 1.512.28.579 0 1.083-.093 1.512-.28a3.208 3.208 0 0 0 1.106-.798 3.45 3.45 0 0 0 .672-1.204c.149-.457.224-.952.224-1.484s-.075-1.027-.224-1.484a3.29 3.29 0 0 0-.672-1.204 3.126 3.126 0 0 0-1.106-.812c-.429-.196-.933-.294-1.512-.294-.569 0-1.073.098-1.512.294a3.126 3.126 0 0 0-1.106.812 3.29 3.29 0 0 0-.672 1.204 4.764 4.764 0 0 0-.224 1.484Zm8.501-6.384V88h1.19v-2.744l1.12-1.036 2.478 3.78h1.512l-3.08-4.606 2.87-2.632h-1.596l-3.304 3.164v-5.922h-1.19Z" fill="#2E2E2E"/><path fill-rule="evenodd" clip-rule="evenodd" d="M211 39c5.523 0 10-4.477 10-10s-4.477-10-10-10-10 4.477-10 10 4.477 10 10 10Z" fill="#17AA55"/><path d="m207 29.069 2.981 2.98 6.05-6.049" stroke="#fff" stroke-width="2" stroke-linecap="round"/></svg>