<svg width="240" height="240" fill="none" xmlns="http://www.w3.org/2000/svg"><path fill="#fff" d="M0 0h240v240H0z"/><path stroke="#DFDFDF" d="M60 60h120v120H60z"/><path d="M70 60v120M80 60v120M90 60v120M100 60v120M110 60v120M120 60v120M130 60v120M140 60v120M150 60v120M160 60v120M170 60v120M180 69.5H60M180 79.5H60M180 89.5H60M180 99.5H60M180 109.5H60M180 119.5H60M180 129.5H60M180 139.5H60M180 149.5H60M180 159.5H60M180 169.5H60" stroke="#DFDFDF" stroke-linecap="square"/><path fill="#6E49CB" fill-opacity=".3" stroke="#6E49CB" d="M70 69.5h100v100H70z"/><path d="M70.5 215h41v1h-41v3.5h-1v-8h1v3.5zM169.5 215v-3.5h1v8h-1V216h-40v-1h40z" fill="#FC6D26"/><path d="M70 190.5V212M170 190.5V212" stroke="#FCA121" stroke-opacity=".5"/><path d="M215.5 169.5v-41h1v41h3.5v1h-8v-1h3.5zM215.5 69.5H212v-1h8v1h-3.5v41h-1v-41z" fill="#FC6D26"/><path d="M191 170h21.5M191 69h21.5" stroke="#FCA121" stroke-opacity=".5"/><path d="M114.606 220.5v-.952h2.044v-6.58h-1.624v-.742a7.355 7.355 0 001.064-.266c.308-.112.583-.243.826-.392h.882v7.98h1.848v.952h-5.04zM123.945 220.668c-.905 0-1.61-.401-2.114-1.204-.504-.803-.756-1.955-.756-3.458 0-1.503.252-2.646.756-3.43.504-.784 1.209-1.176 2.114-1.176.896 0 1.596.392 2.1 1.176.504.784.756 1.927.756 3.43 0 1.503-.252 2.655-.756 3.458-.504.803-1.204 1.204-2.1 1.204zm0-.924c.261 0 .495-.07.7-.21.215-.149.397-.373.546-.672.159-.308.28-.695.364-1.162a9.889 9.889 0 00.126-1.694c0-.653-.042-1.213-.126-1.68-.084-.467-.205-.845-.364-1.134-.149-.299-.331-.518-.546-.658a1.213 1.213 0 00-.7-.21c-.261 0-.499.07-.714.21-.215.14-.401.359-.56.658-.149.289-.266.667-.35 1.134a9.643 9.643 0 00-.126 1.68c0 1.307.159 2.259.476 2.856.327.588.751.882 1.274.882zM209.903 123.832v-.952h2.044v-6.58h-1.624v-.742c.41-.075.765-.163 1.064-.266.308-.112.583-.243.826-.392h.882v7.98h1.848v.952h-5.04zM219.241 124c-.905 0-1.61-.401-2.114-1.204-.504-.803-.756-1.955-.756-3.458 0-1.503.252-2.646.756-3.43.504-.784 1.209-1.176 2.114-1.176.896 0 1.596.392 2.1 1.176.504.784.756 1.927.756 3.43 0 1.503-.252 2.655-.756 3.458-.504.803-1.204 1.204-2.1 1.204zm0-.924c.262 0 .495-.07.7-.21.215-.149.397-.373.546-.672.159-.308.28-.695.364-1.162a9.889 9.889 0 00.126-1.694c0-.653-.042-1.213-.126-1.68-.084-.467-.205-.845-.364-1.134-.149-.299-.331-.518-.546-.658a1.211 1.211 0 00-.7-.21c-.261 0-.499.07-.714.21-.214.14-.401.359-.56.658-.149.289-.266.667-.35 1.134a9.643 9.643 0 00-.126 1.68c0 1.307.159 2.259.476 2.856.327.588.752.882 1.274.882z" fill="#380D75"/></svg>