<svg width="240" height="240" xmlns="http://www.w3.org/2000/svg"><g fill="none" fill-rule="evenodd"><path fill="#FFF" d="M0 0h240v240H0z"/><g stroke="#DFDFDF"><path d="M39.5 39.5h160v160h-160z"/><g stroke-linecap="square"><path d="M49.5 39.5v160M59.5 39.5v160M69.5 39.5v160M79.5 39.5v160M89.5 39.5v160M99.5 39.5v160M109.5 39.5v160M119.5 39.5v160M129.5 39.5v160M139.5 39.5v160M149.5 39.5v160M159.5 39.5v160M169.5 39.5v160M179.5 39.5v160M189.5 39.5v160M199.5 49.5h-160M199.5 59.5h-160M199.5 69.5h-160M199.5 79.5h-160M199.5 89.5h-160M199.5 99.5h-160M199.5 109.5h-160M199.5 119.5h-160M199.5 129.5h-160M199.5 139.5h-160M199.5 149.5h-160M199.5 159.5h-160M199.5 169.5h-160M199.5 179.5h-160M199.5 189.5h-160"/></g></g><path d="M129.25 45.207a19.5 19.5 0 0 0-19.5 0l-50.5 29.156A19.5 19.5 0 0 0 49.5 91.25v58.313a19.5 19.5 0 0 0 9.75 16.887l50.5 29.156a19.5 19.5 0 0 0 19.5 0l50.5-29.156a19.5 19.5 0 0 0 9.75-16.887V91.25a19.5 19.5 0 0 0-9.75-16.887l-50.5-29.156zM119.5 62.67l50 28.868v57.735l-50 28.867-50-28.867V91.539l50-28.868zm0 96.829c22.091 0 40-17.909 40-40s-17.909-40-40-40-40 17.909-40 40 17.909 40 40 40zm0-20c-11.046 0-20-8.954-20-20s8.954-20 20-20 20 8.954 20 20-8.954 20-20 20z" stroke="#6E49CB" fill-opacity=".3" fill="#6E49CB"/><path stroke="#DB3B21" fill-opacity=".499" fill="#FC6D26" d="M159.5 139.5h20v20h-20z"/><path stroke="#FC6D26" d="M145.667 83.5l61.886 36H170"/><path stroke="#DB3B21" fill-opacity=".499" fill="#FC6D26" d="M135.853 82.647l4.5-7.794 7.794 4.5-4.5 7.794zM159.5 124.5v-10h10v10z"/><path d="M211.479 124v-.95h2.044v-6.583h-1.627v-.738c.724-.124 1.355-.345 1.893-.664h.882v7.985h1.846v.95h-5.038zm6.839 2.871v-9.673h.95l.102.78h.041c.752-.634 1.475-.95 2.167-.95.862 0 1.525.31 1.99.929.465.62.697 1.467.697 2.543 0 .56-.08 1.076-.24 1.545-.159.47-.374.857-.645 1.162a2.937 2.937 0 0 1-.937.711 2.562 2.562 0 0 1-1.117.253c-.588 0-1.217-.262-1.887-.786l.027 1.19v2.296h-1.148zm1.148-4.382c.56.474 1.117.711 1.668.711.57 0 1.036-.244 1.398-.731.362-.488.544-1.144.544-1.969 0-.788-.145-1.404-.435-1.846-.289-.442-.741-.663-1.356-.663-.525 0-1.13.31-1.819.93v3.568zM224.74 124l2.222-3.555-2.058-3.247h1.25l.91 1.497c.397.675.62 1.053.67 1.135h.055c.296-.56.501-.939.615-1.135l.827-1.497h1.203l-2.057 3.37L230.59 124h-1.25l-.992-1.58a46.356 46.356 0 0 0-.738-1.223h-.062c-.123.196-.35.604-.683 1.224l-.923 1.579h-1.203z" fill="#380D75" fill-rule="nonzero"/></g></svg>