<svg width="240" height="240" xmlns="http://www.w3.org/2000/svg"><g fill="none" fill-rule="evenodd"><path fill="#FFF" d="M0 0h240v240H0z"/><g stroke="#DFDFDF"><path d="M39.5 39.5h160v160h-160z"/><g stroke-linecap="square"><path d="M49.5 39.5v160M59.5 39.5v160M69.5 39.5v160M79.5 39.5v160M89.5 39.5v160M99.5 39.5v160M109.5 39.5v160M119.5 39.5v160M129.5 39.5v160M139.5 39.5v160M149.5 39.5v160M159.5 39.5v160M169.5 39.5v160M179.5 39.5v160M189.5 39.5v160M199.5 49.5h-160M199.5 59.5h-160M199.5 69.5h-160M199.5 79.5h-160M199.5 89.5h-160M199.5 99.5h-160M199.5 109.5h-160M199.5 119.5h-160M199.5 129.5h-160M199.5 139.5h-160M199.5 149.5h-160M199.5 159.5h-160M199.5 169.5h-160M199.5 179.5h-160M199.5 189.5h-160"/></g></g><path d="M156.656 92.787c3.905 3.905 3.905 10.237 0 14.142l-39.603 39.603c-3.892 3.892-10.197 3.907-14.108.034l-19.72-19.53c-3.905-3.867-3.935-10.168-.068-14.073l.034-.034.059-.059c3.882-3.882 10.168-3.908 14.083-.059l12.683 12.473 32.497-32.497c3.906-3.905 10.237-3.905 14.143 0z" fill-opacity=".3" fill="#6E49CB"/><path stroke="#6E49CB" stroke-linecap="round" stroke-linejoin="round" d="M90 120l20 20 40-40"/><circle stroke="#6E49CB" fill-opacity=".3" fill="#6E49CB" cx="109.5" cy="139.5" r="9"/><path stroke="#6E49CB" fill="#FFF" d="M107.5 137.5h4v4h-4zM87.5 117.5h4v4h-4zM147.5 97.5h4v4h-4z"/><path d="M69 49h101c11.046 0 20 8.954 20 20v101c0 11.046-8.954 20-20 20H69c-11.046 0-20-8.954-20-20V69c0-11.046 8.954-20 20-20zm1 21v99h99V70H70z" fill-opacity=".3" fill="#6E49CB" fill-rule="nonzero"/></g></svg>