<svg width="240" height="240" viewBox="0 0 240 240" fill="none" xmlns="http://www.w3.org/2000/svg"><path fill="#fff" d="M0 0h240v240H0z"/><path stroke="#DFDFDF" d="M39.5 39.5h160v160h-160z"/><path d="M49.5 39.5v160m10-160v160m10-160v160m10-160v160m10-160v160m10-160v160m10-160v160m10-160v160m10-160v160m10-160v160m10-160v160m10-160v160m10-160v160m10-160v160m10-160v160m10-150h-160m160 10h-160m160 10h-160m160 10h-160m160 10h-160m160 10h-160m160 10h-160m160 10h-160m160 10h-160m160 10h-160m160 10h-160m160 10h-160m160 10h-160m160 10h-160m160 10h-160" stroke="#DFDFDF" stroke-linecap="square"/><path fill="#fff" d="M119 36h83v85h-83z"/><path d="M120 39.5h.5V39h-.5v.5Zm0 11v.5h.5v-.5h-.5Zm-1 0h-.5v.5h.5v-.5Zm0-11V39h-.5v.5h.5Zm1 150h.5v-.5h-.5v.5Zm0 11v.5h.5v-.5h-.5Zm-1 0h-.5v.5h.5v-.5Zm0-11v-.5h-.5v.5h.5ZM120.5 40v-.5h-1v.5h1Zm0 10V40h-1v10h1Zm0 .5V50h-1v.5h1Zm-1.5.5h1v-1h-1v1Zm-.5-1v.5h1V50h-1Zm0-10v10h1V40h-1Zm0-.5v.5h1v-.5h-1Zm1.5-.5h-1v1h1v-1Zm.5 151v-.5h-1v.5h1Zm0 10v-10h-1v10h1Zm0 .5v-.5h-1v.5h1Zm-1.5.5h1v-1h-1v1Zm-.5-1v.5h1v-.5h-1Zm0-10v10h1v-10h-1Zm0-.5v.5h1v-.5h-1Zm1.5-.5h-1v1h1v-1Zm21.188-146.145.483.13-.483-.13Zm.13-.483.483.13.129-.483-.483-.13-.129.483Zm-2.847 10.626-.13.483.483.129.13-.483-.483-.13Zm-.966-.26-.483-.129-.129.483.483.13.129-.483Zm2.718-10.142.482.13-.482-.13Zm.129-.482.129-.483-.483-.13-.129.483.483.13Zm-37.986 145.63.483.13-.483-.13Zm.129-.483.483.13.129-.483-.483-.13-.129.483Zm-2.847 10.625-.13.483.484.13.129-.483-.483-.13Zm-.966-.258-.483-.13-.13.483.484.13.13-.483Zm2.718-10.143.483.13-.483-.13Zm.129-.483.129-.483-.482-.129-.13.483.483.129Zm40.142-144.017.13-.483-.966-.259-.13.483.966.259Zm-2.588 9.659 2.588-9.66-.966-.258-2.588 9.66.966.258Zm-.129.483.129-.483-.966-.259-.129.483.966.259Zm-1.578.095.965.259.259-.966-.966-.26-.258.967Zm-.225-1.096-.129.483.966.26.129-.484-.966-.259Zm2.589-9.659-2.589 9.66.966.258 2.588-9.659-.965-.259Zm.129-.483-.129.483.965.259.13-.483-.966-.259Zm1.578-.095-.966-.258-.258.965.965.26.259-.967Zm-38.598 145.985.129-.483-.966-.259-.129.483.966.259Zm-2.589 9.659 2.589-9.659-.966-.259-2.589 9.659.966.259Zm-.129.483.129-.483-.966-.259-.129.483.966.259Zm-1.578.095.966.258.258-.966-.966-.258-.258.966Zm-.224-1.096-.13.483.966.259.13-.483-.966-.259Zm2.588-9.659-2.588 9.659.965.259 2.589-9.659-.966-.259Zm.129-.483-.129.483.966.259.129-.483-.966-.259Zm1.578-.095-.966-.259-.258.966.966.259.258-.966Zm57.809-135.81.433.25-.433-.25Zm.25-.433.433.25.25-.433-.433-.25-.25.433Zm-5.25 9.093.433.25-.433-.25Zm-.25.433-.25.433.433.25.25-.433-.433-.25Zm-.866-.5-.433-.25-.25.433.433.25.25-.433Zm.25-.433-.433-.25.433.25Zm5-8.66-.433-.25.433.25Zm.25-.433.25-.433-.433-.25-.25.433.433.25ZM85.433 180.872l.433.25-.433-.25Zm.25-.433.433.25.25-.433-.433-.25-.25.433Zm-5.25 9.093.433.25-.433-.25Zm-.25.433-.25.433.433.25.25-.433-.433-.25Zm-.866-.5-.433-.25-.25.433.433.25.25-.433Zm.25-.433-.433-.25.433.25Zm5-8.66-.433-.25.433.25Zm.25-.433.25-.433-.433-.25-.25.433.433.25Zm76.049-128.721.25-.433-.866-.5-.25.433.866.5Zm-5 8.66 5-8.66-.866-.5-5 8.66.866.5Zm-.25.433.25-.433-.866-.5-.25.433.866.5Zm-1.549-.317.866.5.5-.866-.866-.5-.5.866Zm.067-1.116-.25.433.866.5.25-.433-.866-.5Zm5-8.66-5 8.66.866.5 5-8.66-.866-.5Zm.25-.433-.25.433.866.5.25-.433-.866-.5Zm1.549.317-.866-.5-.5.866.866.5.5-.866Zm-75.067 131.02.25-.433-.866-.5-.25.433.866.5Zm-5 8.66 5-8.66-.866-.5-5 8.66.866.5Zm-.25.433.25-.433-.866-.5-.25.433.866.5Zm-1.549-.317.866.5.5-.866-.866-.5-.5.866Zm.067-1.116-.25.433.866.5.25-.433-.866-.5Zm5-8.66-5 8.66.866.5 5-8.66-.866-.5Zm.25-.433-.25.433.866.5.25-.433-.866-.5Zm1.549.317-.866-.5-.5.866.866.5.5-.866Zm91.343-116.575.353.354.354-.353-.354-.354-.353.353Zm-7.778 7.779-.354.353.354.354.353-.354-.353-.353Zm-.708-.707-.353-.354-.354.353.354.354.353-.353Zm7.779-7.779.353-.353-.353-.354-.354.354.354.353ZM71.209 169.497l.354.354.354-.354-.354-.353-.353.353Zm-7.778 7.779-.353.353.353.354.354-.354-.353-.353Zm-.707-.707-.353-.354-.354.354.354.353.353-.353Zm7.779-7.779.353-.353-.353-.354-.354.354.354.353ZM177.276 64.139l.353-.354-.707-.707-.353.353.707.708Zm-7.071 7.07 7.071-7.07-.707-.707-7.071 7.07.707.708Zm-.354.354.354-.353-.707-.707-.354.353.707.707Zm-1.414-.707.707.707.707-.707-.707-.707-.707.707Zm.353-1.06-.353.353.707.707.354-.353-.708-.708Zm7.071-7.072-7.071 7.071.708.707 7.071-7.07-.708-.708Zm.354-.353-.354.353.708.708.353-.354-.707-.707Zm1.414.707-.707-.707-.707.707.707.707.707-.707ZM71.209 170.205l.354-.354-.707-.707-.353.353.707.708Zm-7.07 7.071 7.07-7.071-.706-.708-7.072 7.072.708.707Zm-.354.353.354-.353-.707-.707-.354.353.707.707Zm-1.414-.707.707.707.707-.707-.707-.707-.707.707Zm.353-1.061-.353.354.707.707.353-.353-.707-.708Zm7.072-7.071-7.072 7.071.708.708 7.07-7.072-.706-.707Zm.353-.353-.353.353.707.707.353-.353-.707-.707Zm1.414.707-.707-.707-.707.707.707.707.707-.707Zm118.402-88.961.25.433.433-.25-.25-.433-.433.25Zm-9.526 5.5-.433.25.25.433.433-.25-.25-.433Zm-.5-.866-.25-.433-.433.25.25.433.433-.25Zm9.526-5.5.433-.25-.25-.433-.433.25.25.433ZM59.628 155.433l.25.433-.25-.433Zm.433-.25.25.433.433-.25-.25-.433-.433.25Zm-9.526 5.5-.433.25.25.433.433-.25-.25-.433Zm-.5-.866-.25-.433-.433.25.25.433.433-.25Zm9.526-5.5.433-.25-.25-.433-.433.25.25.433Zm130.221-73.45.433-.25-.5-.867-.433.25.5.866Zm-8.66 5 8.66-5-.5-.867-8.66 5 .5.866Zm-.433.25.433-.25-.5-.867-.433.25.5.866Zm-1.183-1.05.5.866.866-.5-.5-.866-.866.5Zm.616-.933-.433.25.5.866.433-.25-.5-.866Zm8.66-5-8.66 5 .5.866 8.66-5-.5-.866Zm.433-.25-.433.25.5.866.433-.25-.5-.866Zm1.183 1.049-.5-.866-.866.5.5.866.866-.5Zm-130.52 75.933.433-.25-.5-.866-.433.25.5.866Zm-8.66 5 8.66-5-.5-.866-8.66 5 .5.866Zm-.433.25.433-.25-.5-.866-.433.25.5.866Zm-1.183-1.049.5.866.866-.5-.5-.866-.866.5Zm.616-.933-.433.25.5.866.433-.25-.5-.866Zm8.66-5-8.66 5 .5.866 8.66-5-.5-.866Zm.433-.25-.433.25.5.866.433-.25-.5-.866Zm1.183 1.049-.5-.866-.866.5.5.866.866-.5Zm137.392-55.285.13.483.483-.129-.13-.483-.483.13Zm-10.142 2.718-.129-.483.129.483Zm-.483.129-.483.129.13.483.483-.129-.13-.483Zm-.259-.966-.129-.483-.483.13.129.483.483-.13Zm.483-.129.13.483-.13-.483Zm9.66-2.589-.13-.482.13.483Zm.483-.129.483-.13-.13-.482-.483.13.13.482ZM52.515 138.6l.129.483-.13-.483Zm.483-.129.129.483.483-.13-.13-.482-.482.129Zm-10.626 2.847-.483.129.13.483.483-.129-.13-.483Zm-.258-.966-.13-.483-.483.129.13.483.483-.129Zm.483-.129-.13-.483.13.483Zm10.142-2.718.483-.129-.13-.483-.483.129.13.483Zm144.794-37.245.483-.129-.259-.966-.483.13.259.965Zm-9.659 2.589 9.659-2.589-.259-.966-9.659 2.589.259.966Zm-.483.129.483-.129-.259-.966-.483.129.259.966Zm-.872-1.319.259.965.966-.258-.259-.966-.966.259Zm.837-.742-.483.129.259.966.483-.129-.259-.966Zm9.659-2.588-9.659 2.588.259.966 9.659-2.588-.259-.966Zm.483-.13-.483.13.259.966.483-.13-.259-.966Zm.871 1.32-.258-.966-.966.258.258.966.966-.258ZM52.644 139.083l.483-.129-.259-.966-.483.129.259.966Zm-9.66 2.588 9.66-2.588-.259-.966-9.66 2.589.26.965Zm-.482.13.483-.13-.26-.965-.482.129.259.966Zm-.872-1.32.26.966.965-.258-.258-.966-.967.258Zm.837-.741-.483.129.259.966.483-.129-.259-.966Zm9.66-2.589-9.66 2.589.259.966 9.66-2.589-.26-.966Zm.482-.129-.483.129.26.966.482-.129-.259-.966Zm.871 1.32-.258-.966-.966.258.258.966.966-.258ZM200.5 120v.5h.5v-.5h-.5Zm-11 0h-.5v.5h.5v-.5Zm0-1v-.5h-.5v.5h.5Zm11 0h.5v-.5h-.5v.5Zm-150 1v.5h.5v-.5h-.5Zm-11 0H39v.5h.5v-.5Zm0-1v-.5H39v.5h.5Zm11 0h.5v-.5h-.5v.5Zm149.5 1.5h.5v-1h-.5v1Zm-10 0h10v-1h-10v1Zm-.5 0h.5v-1h-.5v1Zm-.5-1.5v1h1v-1h-1Zm1-.5h-.5v1h.5v-1Zm10 0h-10v1h10v-1Zm.5 0h-.5v1h.5v-1Zm.5 1.5v-1h-1v1h1Zm-151 .5h.5v-1H50v1Zm-10 0h10v-1H40v1Zm-.5 0h.5v-1h-.5v1ZM39 119v1h1v-1h-1Zm1-.5h-.5v1h.5v-1Zm10 0H40v1h10v-1Zm.5 0H50v1h.5v-1Zm.5 1.5v-1h-1v1h1Zm146.145 21.189-.13.482.13-.482Zm.483.129-.13.483.483.129.13-.483-.483-.129Zm-10.143-2.718.13-.483-.13.483Zm-.483-.129-.482-.13-.13.483.483.13.129-.483Zm.259-.966.13-.483-.483-.129-.13.483.483.129Zm.483.129.13-.483-.13.483Zm9.66 2.589-.13.483.13-.483Zm.482.129.483.129.13-.483-.483-.129-.13.483Zm-145.63-37.986-.13.483.13-.483Zm.483.129-.13.483.483.129.13-.483-.483-.129Zm-10.142-2.718.129-.483-.13.484Zm-.483-.129-.483-.13-.13.484.483.129.13-.483Zm.258-.966.13-.483-.483-.13-.13.484.483.13Zm.483.13-.129.483.13-.484Zm10.143 2.717.483.13.129-.483-.483-.13-.13.483Zm144.017 40.142.483.13.259-.966-.483-.129-.259.965Zm-9.659-2.588 9.659 2.588.259-.965-9.659-2.589-.259.966Zm-.483-.129.483.129.259-.966-.483-.129-.259.966Zm-.095-1.578-.258.965.965.259.259-.966-.966-.258Zm1.096-.225-.483-.129-.259.966.483.129.259-.966Zm9.659 2.589-9.659-2.589-.259.966 9.659 2.589.259-.966Zm.483.129-.483-.129-.259.966.483.129.259-.966Zm.095 1.578.258-.966-.965-.258-.259.966.966.258ZM52.126 102.849l.483.129.26-.966-.484-.129-.259.966Zm-9.659-2.589 9.66 2.589.258-.966-9.659-2.588-.259.965Zm-.483-.129.483.129.259-.966-.483-.129-.259.966Zm-.095-1.578-.258.966.966.258.258-.966-.965-.258Zm1.096-.224-.483-.13-.259.966.483.13.259-.966Zm9.659 2.588-9.66-2.588-.258.966 9.66 2.588.258-.966Zm.483.129-.483-.129-.259.966.483.129.259-.966Zm.095 1.578.259-.965-.966-.259-.26.966.967.258Zm135.81 57.809.25-.433-.25.433Zm.433.25-.25.433.433.25.25-.433-.433-.25Zm-9.093-5.25-.25.433.25-.433Zm-.433-.25-.433-.25-.25.433.433.25.25-.433Zm.5-.866.25-.433-.433-.25-.25.433.433.25Zm.433.25-.25.433.25-.433Zm8.66 5 .25-.433-.25.433Zm.433.25.433.25.25-.433-.433-.25-.25.433ZM59.561 85.683l-.25.433.433.25.25-.433-.433-.25Zm-9.526-5.5-.433-.25-.25.433.433.25.25-.433Zm.5-.866.25-.433-.433-.25-.25.433.433.25Zm9.093 5.25.25-.433-.25.433Zm.433.25.433.25.25-.433-.433-.25-.25.433Zm128.721 76.049.433.25.5-.866-.433-.25-.5.866Zm-8.66-5 8.66 5 .5-.866-8.66-5-.5.866Zm-.433-.25.433.25.5-.866-.433-.25-.5.866Zm.317-1.549-.5.866.866.5.5-.866-.866-.5Zm1.116.067-.433-.25-.5.866.433.25.5-.866Zm8.66 5-8.66-5-.5.866 8.66 5 .5-.866Zm.433.25-.433-.25-.5.866.433.25.5-.866Zm-.317 1.549.5-.866-.866-.5-.5.866.866.5ZM58.878 85.866l.433.25.5-.866-.433-.25-.5.866Zm-8.66-5 8.66 5 .5-.866-8.66-5-.5.866Zm-.433-.25.433.25.5-.866-.433-.25-.5.866Zm.317-1.549-.5.866.866.5.5-.866-.866-.5Zm1.116.067-.433-.25-.5.866.433.25.5-.866Zm8.66 5-8.66-5-.5.866 8.66 5 .5-.866Zm.433.25-.433-.25-.5.866.433.25.5-.866Zm-.317 1.549.5-.866-.866-.5-.5.866.866.5Zm116.575 91.343-.354.353.354.354.353-.354-.353-.353Zm-7.779-7.779-.353-.353-.354.353.354.354.353-.354Zm.707-.707.354-.353-.354-.354-.353.354.353.353Zm7.779 7.779.353.353.354-.353-.354-.354-.353.354ZM70.502 71.209l-.353.354.353.354.354-.354-.353-.353Zm-7.778-7.778-.353-.353-.354.353.354.354.353-.353Zm.707-.707.354-.353-.354-.354-.353.354.353.353Zm7.779 7.779.353.353.354-.353-.354-.354-.353.353Zm104.65 106.772.354.353.707-.707-.353-.353-.708.707Zm-7.071-7.071 7.071 7.071.708-.707-7.072-7.072-.707.708Zm-.353-.354.353.354.707-.708-.353-.353-.707.707Zm.707-1.414-.707.707.707.707.707-.707-.707-.707Zm1.061.353-.354-.353-.707.707.353.353.708-.707Zm7.071 7.071-7.071-7.071-.708.707 7.072 7.072.707-.708Zm.353.354-.353-.354-.707.708.353.353.707-.707Zm-.707 1.414.707-.707-.707-.707-.707.707.707.707ZM69.795 71.209l.354.354.707-.707-.353-.353-.708.707Zm-7.07-7.07 7.07 7.07.707-.707-7.07-7.07-.708.707Zm-.354-.354.353.354.707-.707-.353-.354-.707.707Zm.707-1.414-.707.707.707.707.707-.707-.707-.707Zm1.06.353-.353-.353-.707.707.353.353.708-.707Zm7.072 7.071-7.071-7.07-.708.706 7.072 7.072.707-.708Zm.353.354-.353-.354-.707.707.353.354.707-.707Zm-.707 1.414.707-.707-.707-.707-.707.707.707.707Zm88.711 117.969-.433.25.433-.25Zm.25.433-.433.25.25.433.433-.25-.25-.433Zm-5.25-9.093-.433.25.433-.25Zm-.25-.433-.25-.433-.433.25.25.433.433-.25Zm.866-.5.433-.25-.25-.433-.433.25.25.433Zm.25.433-.433.25.433-.25Zm5 8.66.433-.25-.433.25Zm.25.433.25.433.433-.25-.25-.433-.433.25ZM84.567 59.628l-.433.25.433-.25Zm.25.433-.433.25.25.433.433-.25-.25-.433Zm-5.25-9.093.433-.25-.433.25Zm-.25-.433-.25-.433-.433.25.25.433.433-.25Zm.866-.5.433-.25-.25-.433-.433.25.25.433Zm.25.433.433-.25-.433.25Zm5 8.66-.433.25.433-.25Zm.25.433.25.433.433-.25-.25-.433-.433.25Zm73.451 130.221.25.433.866-.5-.25-.433-.866.5Zm-5-8.66 5 8.66.866-.5-5-8.66-.866.5Zm-.25-.433.25.433.866-.5-.25-.433-.866.5Zm1.049-1.183-.866.5.5.866.866-.5-.5-.866Zm.933.616-.25-.433-.866.5.25.433.866-.5Zm5 8.66-5-8.66-.866.5 5 8.66.866-.5Zm.25.433-.25-.433-.866.5.25.433.866-.5Zm-1.049 1.183.866-.5-.5-.866-.866.5.5.866ZM84.134 59.878l.25.433.866-.5-.25-.433-.866.5Zm-5-8.66 5 8.66.866-.5-5-8.66-.866.5Zm-.25-.433.25.433.866-.5-.25-.433-.866.5Zm1.049-1.183-.866.5.5.866.866-.5-.5-.866Zm.933.616-.25-.433-.866.5.25.433.866-.5Zm5 8.66-5-8.66-.866.5 5 8.66.866-.5Zm.25.433-.25-.433-.866.5.25.433.866-.5Zm-1.049 1.183.866-.5-.5-.866-.866.5.5.866Zm55.156 136.909-.483.13.483-.13Zm.129.483-.483.13.129.483.483-.13-.129-.483Zm-2.718-10.142-.483.13.483-.13Zm-.129-.483-.129-.483-.483.13.129.483.483-.13Zm.966-.259.483-.129-.13-.483-.483.129.13.483Zm.129.483-.483.13.483-.13Zm2.588 9.66-.483.129.483-.129Zm.13.483.129.483.483-.13-.129-.483-.483.13ZM101.4 52.515l-.483.129.483-.13Zm.129.483-.483.129.13.483.482-.13-.129-.482Zm-2.718-10.143-.483.13.483-.13Zm-.129-.483-.13-.483-.482.13.13.483.482-.13Zm.966-.258.483-.13-.129-.483-.483.13.129.483Zm.13.483-.484.129.483-.13Zm2.588 9.659-.483.13.483-.13Zm.129.483.129.483.483-.13-.129-.483-.483.13Zm37.245 144.794.129.483.966-.259-.13-.483-.965.259Zm-2.589-9.659 2.589 9.659.965-.259-2.588-9.659-.966.259Zm-.129-.483.129.483.966-.259-.129-.483-.966.259Zm1.319-.872-.965.259.258.966.966-.259-.259-.966Zm.742.837-.129-.483-.966.259.129.483.966-.259Zm2.588 9.659-2.588-9.659-.966.259 2.588 9.659.966-.259Zm.13.483-.13-.483-.966.259.13.483.966-.259Zm-1.32.871.966-.258-.259-.966-.965.258.258.966ZM100.917 52.644l.129.483.966-.259-.129-.483-.966.259Zm-2.588-9.66 2.588 9.66.966-.259-2.588-9.66-.966.26Zm-.13-.482.13.483.966-.26-.13-.482-.966.259Zm1.32-.871-.966.258.258.966.966-.258-.258-.966Zm.741.836-.129-.483-.966.259.13.483.965-.259Zm2.589 9.66-2.589-9.66-.966.259 2.589 9.66.966-.26Zm.129.482-.129-.483-.966.26.129.482.966-.259Zm-1.32.871.966-.258-.258-.966-.966.259.258.965Z" fill="#FC6D26"/><path fill="#6E49CB" fill-opacity=".3" d="m132.322 50.832 11.591 3.106-36.235 135.23-11.59-3.106z"/><path fill="#6E49CB" fill-opacity=".3" d="m165.255 66.26 8.485 8.485-98.995 98.995-8.485-8.485z"/><path fill="#6E49CB" fill-opacity=".3" d="m186.062 96.087 3.106 11.591-135.23 36.235-3.106-11.591z"/><path fill="#6E49CB" fill-opacity=".3" d="m189.168 132.322-3.106 11.591-135.23-36.235 3.106-11.59z"/><path fill="#6E49CB" fill-opacity=".3" d="m173.74 165.255-8.485 8.485L66.26 74.745l8.485-8.485z"/><path fill="#6E49CB" fill-opacity=".3" d="m143.913 186.062-11.591 3.106-36.235-135.23 11.591-3.106z"/><path fill="#6E49CB" fill-opacity=".3" stroke="#6E49CB" d="M114.5 50.5h11v139h-11z"/><path fill="#6E49CB" fill-opacity=".3" stroke="#6E49CB" d="m149.987 57.061 9.526 5.5-69.5 120.378-9.526-5.5z"/><path fill="#6E49CB" fill-opacity=".3" stroke="#6E49CB" d="m177.439 80.487 5.5 9.526-120.378 69.5-5.5-9.526z"/><path fill="#6E49CB" fill-opacity=".3" stroke="#6E49CB" d="M189.5 114.5v11h-139v-11z"/><path fill="#6E49CB" fill-opacity=".3" stroke="#6E49CB" d="m182.939 149.987-5.5 9.526-120.378-69.5 5.5-9.526z"/><path fill="#6E49CB" fill-opacity=".3" stroke="#6E49CB" d="m159.513 177.439-9.526 5.5-69.5-120.378 9.526-5.5z"/><path fill-rule="evenodd" clip-rule="evenodd" d="M205.555 116.708c-.512.538-.769 1.226-.769 2.064 0 .898.226 1.582.677 2.051.451.47 1.071.704 1.859.704.374 0 .747-.102 1.118-.307.371-.205.698-.486.981-.841-.009.693-.077 1.293-.205 1.801s-.302.907-.523 1.196c-.221.29-.467.502-.738.636a1.989 1.989 0 0 1-.899.202c-.278 0-.547-.064-.807-.192-.26-.127-.481-.3-.663-.519l-.649.725c.578.628 1.298.943 2.16.943.364 0 .71-.057 1.035-.171.326-.114.635-.297.927-.55.291-.253.543-.569.755-.947.212-.378.379-.849.503-1.412a8.882 8.882 0 0 0 .184-1.89c0-1.385-.284-2.448-.851-3.189-.567-.74-1.311-1.111-2.232-1.111-.729 0-1.35.269-1.863.807Zm.728 3.452c-.278-.333-.417-.795-.417-1.388 0-.578.148-1.05.445-1.415.296-.364.665-.546 1.107-.546.565 0 1.016.225 1.354.676.337.451.544 1.112.622 1.983-.283.405-.589.705-.92.899-.33.193-.65.29-.96.29-.543 0-.953-.166-1.231-.499Zm5.356.349c0-1.481.252-2.62.755-3.415.504-.795 1.209-1.193 2.116-1.193.898 0 1.599.398 2.102 1.193.504.795.756 1.934.756 3.415 0 1.485-.252 2.634-.756 3.445-.503.811-1.204 1.217-2.102 1.217-.902 0-1.606-.406-2.112-1.217s-.759-1.96-.759-3.445Zm1.121 0c0-1.263.153-2.192.458-2.789.31-.597.741-.896 1.292-.896.547 0 .973.3 1.279.899.305.599.458 1.528.458 2.786 0 1.262-.154 2.2-.462 2.813-.308.613-.732.919-1.275.919-.547 0-.975-.306-1.285-.919-.31-.613-.465-1.551-.465-2.813Zm5.479-1.484c0-.724.205-1.301.615-1.729a2.02 2.02 0 0 1 1.518-.643c.597 0 1.1.215 1.511.643.41.428.615 1.005.615 1.729 0 .72-.205 1.295-.615 1.723a2.014 2.014 0 0 1-1.511.643 2.02 2.02 0 0 1-1.518-.643c-.41-.428-.615-1.003-.615-1.723Zm1.22 1.193c-.225-.303-.338-.7-.338-1.193 0-.501.113-.902.338-1.203.226-.301.53-.451.913-.451s.683.15.902.451c.219.301.328.702.328 1.203 0 .497-.109.896-.328 1.197-.219.3-.519.451-.902.451a1.08 1.08 0 0 1-.913-.455Zm-20.118-27.153v.999h4.45c-.875 1.216-1.506 2.42-1.893 3.609-.388 1.19-.62 2.632-.698 4.327h1.197a27.93 27.93 0 0 1 .191-2.393c.087-.656.228-1.32.424-1.992a9.375 9.375 0 0 1 .796-1.918c.335-.606.765-1.244 1.289-1.914v-.718h-5.756Zm7.092 7.13-.561.752c.816.816 1.791 1.224 2.926 1.224a3.144 3.144 0 0 0 2.089-.786c.28-.251.504-.57.673-.957.169-.388.253-.816.253-1.285 0-.921-.26-1.617-.779-2.089-.52-.472-1.185-.707-1.996-.707-.47 0-.928.12-1.374.362l.239-2.645h3.459v-.999h-4.464l-.294 4.3.615.39c.296-.191.553-.33.769-.414.217-.084.468-.126.756-.126.578 0 1.041.173 1.387.52.347.346.52.824.52 1.435 0 .61-.187 1.104-.561 1.48-.373.376-.841.564-1.401.564-.479 0-.896-.091-1.251-.274a3.978 3.978 0 0 1-1.005-.745Zm6.306-4.17c0-.724.205-1.3.615-1.73.41-.427.916-.642 1.518-.642.597 0 1.1.215 1.511.643.41.428.615 1.005.615 1.73 0 .72-.205 1.294-.615 1.722a2.012 2.012 0 0 1-1.511.643 2.018 2.018 0 0 1-1.518-.643c-.41-.428-.615-1.003-.615-1.723Zm1.22 1.193c-.225-.303-.338-.7-.338-1.193 0-.5.113-.902.338-1.203.226-.3.53-.45.913-.45s.683.15.902.45c.219.301.328.702.328 1.203 0 .497-.109.896-.328 1.197-.219.3-.519.45-.902.45a1.08 1.08 0 0 1-.913-.454ZM192.58 75.981a8.88 8.88 0 0 0-.184 1.89c0 1.386.286 2.449.858 3.19.571.74 1.313 1.11 2.225 1.11.738 0 1.363-.269 1.876-.807.513-.538.769-1.226.769-2.064 0-.898-.228-1.583-.683-2.054-.456-.472-1.078-.708-1.867-.708-.36 0-.727.102-1.1.304a3.337 3.337 0 0 0-.985.817c.014-.683.085-1.277.212-1.78.128-.504.301-.898.52-1.183.219-.285.462-.495.731-.63a1.96 1.96 0 0 1 .889-.2c.278 0 .547.062.807.187.259.126.48.298.663.516l.642-.717c-.588-.634-1.305-.95-2.153-.95-.365 0-.71.056-1.036.17a2.848 2.848 0 0 0-.926.55 3.498 3.498 0 0 0-.755.947c-.212.379-.38.85-.503 1.412Zm1.542 4.587c-.335-.458-.537-1.12-.605-1.986.282-.396.589-.691.919-.885.331-.194.646-.29.947-.29.542 0 .952.166 1.23.498.278.333.417.798.417 1.395 0 .579-.147 1.05-.441 1.411-.293.363-.664.544-1.11.544-.57 0-1.022-.23-1.357-.687Zm5.017-3.06c0-1.48.252-2.618.755-3.414.504-.795 1.209-1.193 2.116-1.193.898 0 1.599.398 2.102 1.193.504.796.756 1.934.756 3.415 0 1.486-.252 2.634-.756 3.445-.503.811-1.204 1.217-2.102 1.217-.902 0-1.606-.406-2.112-1.217s-.759-1.96-.759-3.445Zm1.121 0c0-1.262.153-2.191.458-2.788.31-.597.741-.896 1.292-.896.547 0 .973.3 1.279.9.305.598.458 1.527.458 2.785 0 1.262-.154 2.2-.462 2.813-.308.613-.732.92-1.275.92-.547 0-.975-.307-1.285-.92-.31-.613-.465-1.55-.465-2.813Zm5.479-1.483c0-.724.205-1.3.615-1.73.41-.427.916-.642 1.518-.642.597 0 1.1.215 1.511.643.41.428.615 1.005.615 1.73 0 .72-.205 1.294-.615 1.722a2.012 2.012 0 0 1-1.511.643 2.018 2.018 0 0 1-1.518-.643c-.41-.428-.615-1.003-.615-1.723Zm1.22 1.193c-.225-.303-.338-.7-.338-1.193 0-.5.113-.902.338-1.203.226-.3.53-.45.913-.45s.683.15.902.45c.219.301.328.702.328 1.203 0 .497-.109.896-.328 1.197-.219.3-.519.45-.902.45a1.08 1.08 0 0 1-.913-.454ZM178.965 58.54v-.76l3.821-5.715h1.285v5.544h1.224v.93h-1.224V61h-1.087v-2.46h-4.019Zm1.217-.93h2.802v-2.585c0-.35.023-.925.069-1.722h-.055c-.041.077-.285.497-.731 1.258l-2.085 3.048Zm6.251 1.585-.561.752c.816.816 1.791 1.224 2.926 1.224a3.151 3.151 0 0 0 2.089-.786c.28-.25.504-.57.673-.957a3.18 3.18 0 0 0 .253-1.285c0-.921-.26-1.617-.779-2.089-.52-.471-1.185-.707-1.996-.707-.47 0-.928.12-1.374.362l.239-2.646h3.459v-.998h-4.464l-.294 4.3.615.39a4.41 4.41 0 0 1 .769-.414c.217-.084.468-.126.756-.126.578 0 1.041.173 1.387.52.347.346.52.824.52 1.435 0 .61-.187 1.104-.561 1.48-.373.376-.841.564-1.401.564-.479 0-.896-.091-1.251-.274a3.998 3.998 0 0 1-1.005-.745Zm6.306-4.17c0-.724.205-1.3.615-1.73.41-.428.916-.642 1.518-.642.597 0 1.1.215 1.511.643.41.428.615 1.005.615 1.73 0 .72-.205 1.294-.615 1.722a2.012 2.012 0 0 1-1.511.643 2.018 2.018 0 0 1-1.518-.643c-.41-.428-.615-1.003-.615-1.723Zm1.22 1.193c-.225-.303-.338-.7-.338-1.193 0-.5.113-.902.338-1.203.226-.3.53-.45.913-.45s.683.15.902.45c.219.301.328.702.328 1.203 0 .497-.109.896-.328 1.197-.219.3-.519.45-.902.45a1.08 1.08 0 0 1-.913-.454Zm-37.871-11.312.588-.752c.67.707 1.431 1.06 2.283 1.06.547 0 .991-.15 1.333-.448.342-.298.513-.694.513-1.186 0-.57-.222-1.008-.667-1.316-.444-.308-1.172-.461-2.184-.461v-.882c1.686 0 2.53-.556 2.53-1.668 0-.433-.138-.777-.414-1.032-.276-.255-.651-.383-1.125-.383-.66 0-1.294.303-1.9.91l-.622-.725c.793-.748 1.647-1.122 2.563-1.122.793 0 1.437.202 1.932.605.494.404.741.959.741 1.665 0 .52-.143.956-.43 1.309-.287.353-.684.626-1.19.817v.055c.57.132 1.034.395 1.391.79.358.393.537.887.537 1.48 0 .77-.279 1.387-.837 1.852-.559.465-1.259.697-2.103.697-1.184 0-2.164-.422-2.939-1.265Zm7.051-3.397c0-1.481.252-2.62.755-3.415.504-.795 1.209-1.193 2.116-1.193.898 0 1.599.398 2.102 1.193.504.795.756 1.934.756 3.415 0 1.486-.252 2.634-.756 3.445-.503.811-1.204 1.217-2.102 1.217-.902 0-1.606-.406-2.112-1.217s-.759-1.96-.759-3.445Zm1.121 0c0-1.263.153-2.192.458-2.79.31-.596.741-.895 1.292-.895.547 0 .973.3 1.279.9.305.598.458 1.527.458 2.785 0 1.262-.154 2.2-.462 2.813-.308.613-.732.92-1.275.92-.547 0-.975-.307-1.285-.92-.31-.613-.465-1.55-.465-2.813Zm5.479-1.484c0-.724.205-1.3.615-1.73.41-.428.916-.642 1.518-.642.597 0 1.1.215 1.511.643.41.428.615 1.005.615 1.73 0 .72-.205 1.294-.615 1.722a2.012 2.012 0 0 1-1.511.643 2.018 2.018 0 0 1-1.518-.643c-.41-.428-.615-1.003-.615-1.723Zm1.22 1.193c-.225-.303-.338-.7-.338-1.193 0-.5.113-.902.338-1.203.226-.3.53-.45.913-.45s.683.15.902.45c.219.301.328.702.328 1.203 0 .497-.109.896-.328 1.197-.219.3-.519.45-.902.45a1.08 1.08 0 0 1-.913-.454Zm-35.126-4.168V38h5.038v-.95h-1.845v-7.985h-.882c-.538.32-1.169.54-1.894.663v.739h1.627v6.583h-2.044Zm6.6-.855-.561.752c.816.816 1.791 1.224 2.926 1.224a3.151 3.151 0 0 0 2.089-.786c.28-.25.504-.57.673-.957a3.18 3.18 0 0 0 .253-1.285c0-.921-.26-1.617-.779-2.089-.52-.471-1.185-.707-1.996-.707-.47 0-.928.12-1.374.362l.239-2.646h3.459v-.998h-4.464l-.294 4.3.615.39a4.41 4.41 0 0 1 .769-.414c.217-.084.468-.126.756-.126.578 0 1.041.173 1.387.52.347.346.52.824.52 1.435 0 .61-.187 1.104-.561 1.48-.373.376-.841.564-1.401.564-.479 0-.896-.091-1.251-.274a3.998 3.998 0 0 1-1.005-.745Zm6.306-4.17c0-.724.205-1.3.615-1.73.41-.428.916-.642 1.518-.642.597 0 1.1.215 1.511.643.41.428.615 1.005.615 1.73 0 .72-.205 1.294-.615 1.722a2.012 2.012 0 0 1-1.511.643 2.018 2.018 0 0 1-1.518-.643c-.41-.428-.615-1.003-.615-1.723Zm1.22 1.193c-.225-.303-.338-.7-.338-1.193 0-.5.113-.902.338-1.203.226-.3.53-.45.913-.45s.683.15.902.45c.219.301.328.702.328 1.203 0 .497-.109.896-.328 1.197-.219.3-.519.45-.902.45a1.08 1.08 0 0 1-.913-.454Zm-31.464-5.124c-.503.796-.755 1.934-.755 3.415 0 1.486.253 2.634.759 3.445.506.811 1.21 1.217 2.112 1.217.898 0 1.599-.406 2.102-1.217.504-.811.756-1.96.756-3.445 0-1.481-.252-2.62-.756-3.415-.503-.795-1.204-1.193-2.102-1.193-.907 0-1.612.398-2.116 1.193Zm.366 3.415c0-1.263.153-2.192.458-2.79.31-.596.741-.895 1.292-.895.547 0 .973.3 1.278.9.306.598.458 1.527.458 2.785 0 1.262-.153 2.2-.461 2.813-.308.613-.733.92-1.275.92-.547 0-.975-.307-1.285-.92-.31-.613-.465-1.55-.465-2.813Zm5.479-1.484c0-.724.205-1.3.615-1.73.41-.428.916-.642 1.518-.642.597 0 1.1.215 1.51.643.411.428.616 1.005.616 1.73 0 .72-.205 1.294-.616 1.722a2.01 2.01 0 0 1-1.51.643 2.018 2.018 0 0 1-1.518-.643c-.41-.428-.615-1.003-.615-1.723Zm1.22 1.193c-.225-.303-.338-.7-.338-1.193 0-.5.113-.902.338-1.203.226-.3.53-.45.913-.45s.683.15.902.45c.219.301.328.702.328 1.203 0 .497-.109.896-.328 1.197-.219.3-.519.45-.902.45a1.08 1.08 0 0 1-.913-.454Z" fill="#380D75"/></svg>