<svg width="240" height="240" viewBox="0 0 240 240" fill="none" xmlns="http://www.w3.org/2000/svg"><path fill="#fff" d="M0 0h240v240H0z"/><path stroke="#DFDFDF" d="M39.5 39.5h160v160h-160z"/><path d="M49.5 39.5v160m10-160v160m10-160v160m10-160v160m10-160v160m10-160v160m10-160v160m10-160v160m10-160v160m10-160v160m10-160v160m10-160v160m10-160v160m10-160v160m10-160v160m10-150h-160m160 10h-160m160 10h-160m160 10h-160m160 10h-160m160 10h-160m160 10h-160m160 10h-160m160 10h-160m160 10h-160m160 10h-160m160 10h-160m160 10h-160m160 10h-160m160 10h-160" stroke="#DFDFDF" stroke-linecap="square"/><mask id="icons-border-radius-example__a" fill="#fff"><path fill-rule="evenodd" clip-rule="evenodd" d="M153.255 62.158c-2.947-2.93-7.726-2.93-10.673 0a7.468 7.468 0 0 0 0 10.606l38.637 38.397a12.446 12.446 0 0 1 0 17.678l-38.558 38.319a7.467 7.467 0 0 0 0 10.606c2.947 2.929 7.726 2.929 10.673 0l38.558-38.319c10.807-10.739 10.807-28.151 0-38.89l-38.637-38.397ZM55.575 120l43.8-43.527L143.174 120l-43.799 43.527L55.575 120Zm35.657-56.648c4.497-4.47 11.789-4.47 16.286 0l48.859 48.555a11.396 11.396 0 0 1 0 16.186l-48.859 48.555c-4.497 4.469-11.789 4.469-16.286 0l-48.859-48.555a11.396 11.396 0 0 1 0-16.186l48.859-48.555Z"/></mask><path fill-rule="evenodd" clip-rule="evenodd" d="M153.255 62.158c-2.947-2.93-7.726-2.93-10.673 0a7.468 7.468 0 0 0 0 10.606l38.637 38.397a12.446 12.446 0 0 1 0 17.678l-38.558 38.319a7.467 7.467 0 0 0 0 10.606c2.947 2.929 7.726 2.929 10.673 0l38.558-38.319c10.807-10.739 10.807-28.151 0-38.89l-38.637-38.397ZM55.575 120l43.8-43.527L143.174 120l-43.799 43.527L55.575 120Zm35.657-56.648c4.497-4.47 11.789-4.47 16.286 0l48.859 48.555a11.396 11.396 0 0 1 0 16.186l-48.859 48.555c-4.497 4.469-11.789 4.469-16.286 0l-48.859-48.555a11.396 11.396 0 0 1 0-16.186l48.859-48.555Z" fill="#6E49CB" fill-opacity=".3"/><path d="m142.582 62.158-.705-.71.705.71Zm10.673 0 .705-.71-.705.71Zm-10.673 10.606-.705.71.705-.71Zm38.637 38.397.705-.709-.705.709Zm0 17.678-.705-.709.705.709Zm-38.558 38.319.705.709-.705-.709Zm0 10.606.705-.709-.705.709Zm10.673 0 .705.71-.705-.71Zm38.558-38.319.705.71-.705-.71Zm0-38.89.705-.71-.705.71ZM99.375 76.473l.705-.71-.705-.7-.705.7.705.71ZM55.575 120l-.704-.709-.714.709.714.709.705-.709Zm87.599 0 .705.709.714-.709-.714-.709-.705.709Zm-43.799 43.527-.705.71.705.7.705-.7-.705-.71Zm8.143-100.175.705-.71-.705.71Zm-16.286 0 .705.71-.705-.71Zm65.145 48.555-.705.71.705-.71Zm0 16.186-.705-.71.705.71Zm-48.859 48.555-.705-.709.705.709Zm-16.286 0 .705-.709-.705.709Zm-48.859-48.555.705-.71-.705.71Zm0-16.186.705.71-.705-.71Zm100.914-49.04a6.58 6.58 0 0 1 9.263 0l1.41-1.419c-3.337-3.316-8.745-3.316-12.083 0l1.41 1.419Zm0 9.188a6.467 6.467 0 0 1 0-9.188l-1.41-1.419a8.468 8.468 0 0 0 0 12.026l1.41-1.42Zm38.637 38.397-38.637-38.397-1.41 1.418 38.637 38.397 1.41-1.418Zm0 19.096a13.444 13.444 0 0 0 0-19.096l-1.41 1.418a11.446 11.446 0 0 1 0 16.26l1.41 1.418Zm-38.558 38.319 38.558-38.319-1.41-1.418-38.558 38.318 1.41 1.419Zm0 9.188a6.467 6.467 0 0 1 0-9.188l-1.41-1.419a8.468 8.468 0 0 0 0 12.026l1.41-1.419Zm9.263 0a6.58 6.58 0 0 1-9.263 0l-1.41 1.419c3.337 3.316 8.745 3.316 12.083 0l-1.41-1.419Zm38.558-38.319-38.558 38.319 1.41 1.419 38.558-38.319-1.41-1.419Zm0-37.472c10.413 10.348 10.413 27.124 0 37.472l1.41 1.419c11.2-11.131 11.2-29.179 0-40.31l-1.41 1.419ZM152.55 62.867l38.637 38.397 1.41-1.419-38.637-38.397-1.41 1.419ZM98.67 75.763l-43.8 43.528 1.41 1.418 43.8-43.527-1.41-1.419Zm45.209 43.528L100.08 75.763l-1.41 1.419 43.799 43.527 1.41-1.418Zm-43.799 44.946 43.799-43.528-1.41-1.418-43.799 43.527 1.41 1.419Zm-45.21-43.528 43.8 43.528 1.41-1.419-43.8-43.527-1.41 1.418Zm53.353-58.066c-4.887-4.857-12.809-4.857-17.696 0l1.41 1.418c4.107-4.082 10.769-4.082 14.876 0l1.41-1.418Zm48.859 48.555-48.859-48.555-1.41 1.418 48.859 48.556 1.41-1.419Zm0 17.604a12.394 12.394 0 0 0 0-17.604l-1.41 1.419a10.394 10.394 0 0 1 0 14.766l1.41 1.419Zm-48.859 48.555 48.859-48.555-1.41-1.419-48.859 48.556 1.41 1.418Zm-17.696 0c4.887 4.857 12.809 4.857 17.696 0l-1.41-1.418c-4.107 4.081-10.769 4.081-14.876 0l-1.41 1.418Zm-48.859-48.555 48.859 48.555 1.41-1.418-48.86-48.556-1.409 1.419Zm0-17.604a12.395 12.395 0 0 0 0 17.604l1.41-1.419a10.394 10.394 0 0 1 0-14.766l-1.41-1.419Zm48.859-48.555-48.859 48.555 1.41 1.419 48.859-48.556-1.41-1.418Z" fill="#6E49CB" mask="url(#icons-border-radius-example__a)"/><path d="M62.5 120c0 6.351-5.149 11.5-11.5 11.5s-11.5-5.149-11.5-11.5 5.149-11.5 11.5-11.5 11.5 5.149 11.5 11.5Zm137 0c0 15.188-12.312 27.5-27.5 27.5s-27.5-12.312-27.5-27.5 12.312-27.5 27.5-27.5 27.5 12.312 27.5 27.5Z" stroke="#DB3B21"/><path d="M42.278 127.778c-4.296-4.296-4.296-11.26 0-15.556l5.043-5.043L60.142 120l-12.82 12.821-5.044-5.043Zm149.63 11.314c10.544-10.544 10.544-27.64 0-38.184l-1.55-1.55L169.716 120l20.642 20.642 1.55-1.55Z" fill="#FC6D26" fill-opacity=".504"/><path d="M18.186 114.273V123h-1.321v-7.406h-.051l-2.088 1.363v-1.261l2.177-1.423h1.283Zm2.378 11.182v-9h1.244v1.061h.106c.074-.137.18-.294.32-.473s.332-.336.58-.469c.247-.136.573-.205.98-.205.528 0 1 .134 1.415.401.414.267.74.652.975 1.155.239.503.358 1.108.358 1.815 0 .707-.118 1.314-.353 1.82-.236.503-.56.89-.972 1.163-.412.27-.882.405-1.41.405-.398 0-.723-.067-.976-.2a1.853 1.853 0 0 1-.588-.469 3.558 3.558 0 0 1-.329-.477h-.076v3.473h-1.274Zm1.248-5.728c0 .461.067.864.2 1.211.134.346.327.617.58.813.253.194.563.29.929.29.38 0 .699-.101.954-.302.256-.205.45-.482.58-.831.134-.35.2-.743.2-1.181 0-.432-.065-.819-.196-1.163a1.78 1.78 0 0 0-.58-.814c-.255-.199-.575-.298-.958-.298-.37 0-.682.095-.938.285a1.756 1.756 0 0 0-.575.797 3.34 3.34 0 0 0-.196 1.193Zm6.906-3.272 1.444 2.548 1.458-2.548h1.393l-2.041 3.272L33.03 123h-1.393l-1.475-2.446-1.47 2.446h-1.398l2.037-3.273-2.011-3.272h1.398ZM207.031 123v-.955l2.953-3.059c.315-.333.575-.624.78-.874.207-.253.362-.493.464-.72.103-.227.154-.469.154-.724 0-.29-.068-.54-.205-.75a1.329 1.329 0 0 0-.558-.49 1.768 1.768 0 0 0-.797-.175c-.312 0-.585.064-.818.192a1.308 1.308 0 0 0-.537.541 1.703 1.703 0 0 0-.188.818h-1.257c0-.531.122-.996.367-1.393a2.487 2.487 0 0 1 1.005-.925 3.103 3.103 0 0 1 1.454-.333c.548 0 1.031.11 1.448.329.421.215.749.511.985.886.236.372.354.793.354 1.261 0 .324-.062.641-.184.951-.119.309-.328.654-.626 1.035-.298.378-.713.837-1.244 1.376l-1.735 1.816v.064h3.929V123h-5.744Zm7.376 2.455v-9h1.245v1.061h.106c.074-.137.181-.294.32-.473s.332-.336.579-.469c.247-.136.574-.205.98-.205.529 0 1 .134 1.415.401.415.267.74.652.976 1.155.239.503.358 1.108.358 1.815 0 .707-.118 1.314-.354 1.82-.236.503-.559.89-.971 1.163-.412.27-.882.405-1.411.405-.398 0-.723-.067-.976-.2a1.853 1.853 0 0 1-.588-.469 3.592 3.592 0 0 1-.328-.477h-.077v3.473h-1.274Zm1.249-5.728c0 .461.067.864.2 1.211.134.346.327.617.58.813.253.194.562.29.929.29.38 0 .699-.101.954-.302.256-.205.449-.482.58-.831.133-.35.2-.743.2-1.181 0-.432-.065-.819-.196-1.163a1.78 1.78 0 0 0-.58-.814c-.255-.199-.575-.298-.958-.298-.37 0-.682.095-.938.285a1.757 1.757 0 0 0-.575.797 3.319 3.319 0 0 0-.196 1.193Zm6.905-3.272 1.445 2.548 1.457-2.548h1.394l-2.041 3.272 2.058 3.273h-1.394l-1.474-2.446-1.47 2.446h-1.398l2.037-3.273-2.011-3.272h1.397Z" fill="#380D75"/></svg>