<svg width="240" height="240" viewBox="0 0 240 240" fill="none" xmlns="http://www.w3.org/2000/svg"><path fill="#fff" d="M0 0h240v240H0z"/><path stroke="#DFDFDF" d="M39.5 39.5h160v160h-160z"/><path d="M49.5 39.5v160m10-160v160m10-160v160m10-160v160m10-160v160m10-160v160m10-160v160m10-160v160m10-160v160m10-160v160m10-160v160m10-160v160m10-160v160m10-160v160m10-160v160m10-150h-160m160 10h-160m160 10h-160m160 10h-160m160 10h-160m160 10h-160m160 10h-160m160 10h-160m160 10h-160m160 10h-160m160 10h-160m160 10h-160m160 10h-160m160 10h-160m160 10h-160" stroke="#DFDFDF" stroke-linecap="square"/><path fill-rule="evenodd" clip-rule="evenodd" d="M211 39c5.523 0 10-4.477 10-10s-4.477-10-10-10-10 4.477-10 10 4.477 10 10 10Z" fill="#DB3B21"/><path d="m214 26-6 6.002M208 26l6 6.002" stroke="#fff" stroke-width="2" stroke-linecap="round"/><path fill-rule="evenodd" clip-rule="evenodd" d="M49 150.202V190h39.798l95.374-95.374c7.771-7.77 7.771-20.37 0-28.141l-11.657-11.657c-7.771-7.77-20.37-7.77-28.141 0L49 150.202Zm14.924 15.528v9.346h9.346l-9.346-9.346Zm5.88-15.226 18.692 18.692 66.556-66.556-18.692-18.692-66.556 66.556Zm103.815-66.43-8.014 8.013-18.692-18.692 8.014-8.014a4.974 4.974 0 0 1 7.035 0l11.657 11.657a4.976 4.976 0 0 1 0 7.035Z" fill="#6E49CB" fill-opacity=".3" stroke="#6E49CB"/></svg>