<svg width="546" height="170" viewBox="0 0 546 170" fill="none" xmlns="http://www.w3.org/2000/svg"><path fill="#fff" d="M0 0h546v170H0z"/><mask id="icons-border-radius__a" fill="#fff"><path fill-rule="evenodd" clip-rule="evenodd" d="M50 50h70v70H50V50Zm8 62h54.5V57.5H58V112Z"/></mask><path fill-rule="evenodd" clip-rule="evenodd" d="M50 50h70v70H50V50Zm8 62h54.5V57.5H58V112Z" fill="#6E49CB" fill-opacity=".3"/><path d="M50 50v-1h-1v1h1Zm70 0h1v-1h-1v1Zm0 70v1h1v-1h-1Zm-70 0h-1v1h1v-1Zm8-8h-1v1h1v-1Zm54.5 0v1h1v-1h-1Zm0-54.5h1v-1h-1v1Zm-54.5 0v-1h-1v1h1ZM50 51h70v-2H50v2Zm69-1v70h2V50h-2Zm1 69H50v2h70v-2Zm-69 1V50h-2v70h2Zm7-7h54.5v-2H58v2Zm55.5-1V57.5h-2V112h2Zm-1-55.5H58v2h54.5v-2Zm-55.5 1V112h2V57.5h-2Z" fill="#6E49CB" mask="url(#icons-border-radius__a)"/><mask id="icons-border-radius__b" fill="#fff"><path fill-rule="evenodd" clip-rule="evenodd" d="M461 50c19.33 0 35 15.67 35 35s-15.67 35-35 35-35-15.67-35-35 15.67-35 35-35Zm0 7c-15.464 0-28 12.536-28 28s12.536 28 28 28 28-12.536 28-28-12.536-28-28-28Z"/></mask><path fill-rule="evenodd" clip-rule="evenodd" d="M461 50c19.33 0 35 15.67 35 35s-15.67 35-35 35-35-15.67-35-35 15.67-35 35-35Zm0 7c-15.464 0-28 12.536-28 28s12.536 28 28 28 28-12.536 28-28-12.536-28-28-28Z" fill="#6E49CB" fill-opacity=".3"/><path d="M461 51c18.778 0 34 15.222 34 34h2c0-19.882-16.118-36-36-36v2Zm34 34c0 18.778-15.222 34-34 34v2c19.882 0 36-16.118 36-36h-2Zm-34 34c-18.778 0-34-15.222-34-34h-2c0 19.882 16.118 36 36 36v-2Zm-34-34c0-18.778 15.222-34 34-34v-2c-19.882 0-36 16.118-36 36h2Zm34-29c-16.016 0-29 12.984-29 29h2c0-14.912 12.088-27 27-27v-2Zm-29 29c0 16.016 12.984 29 29 29v-2c-14.912 0-27-12.088-27-27h-2Zm29 29c16.016 0 29-12.984 29-29h-2c0 14.912-12.088 27-27 27v2Zm29-29c0-16.016-12.984-29-29-29v2c14.912 0 27 12.088 27 27h2Z" fill="#6E49CB" mask="url(#icons-border-radius__b)"/><path fill="#FC6D26" fill-opacity=".504" d="M50 50h8v7.5h-8zm94 5a5 5 0 0 1 5-5h5v10h-10v-5Zm94 5c0-5.523 4.477-10 10-10v10h-10Zm94 5c0-8.284 6.716-15 15-15h4v19h-19v-4Zm94 20c0-19.33 15.67-35 35-35v35h-35Z"/><path fill-rule="evenodd" clip-rule="evenodd" d="M274 160c8.837 0 16-7.163 16-16s-7.163-16-16-16-16 7.163-16 16 7.163 16 16 16Z" fill="#380D75"/><path d="M387 57h-40a8 8 0 0 0-8 8v40a8 8 0 0 0 8 8h40a8 8 0 0 0 8-8V65a8 8 0 0 0-8-8Zm-54.5 8c0-8.008 6.492-14.5 14.5-14.5h40c8.008 0 14.5 6.492 14.5 14.5v40c0 8.008-6.492 14.5-14.5 14.5h-40c-8.008 0-14.5-6.492-14.5-14.5V65ZM298 57h-50a3 3 0 0 0-3 3v50a3 3 0 0 0 3 3h50a3 3 0 0 0 3-3V60a3 3 0 0 0-3-3Zm-59.5 3a9.5 9.5 0 0 1 9.5-9.5h50a9.5 9.5 0 0 1 9.5 9.5v50a9.5 9.5 0 0 1-9.5 9.5h-50a9.5 9.5 0 0 1-9.5-9.5V60ZM151 112.5v.5h56V57h-56v55.5ZM144.5 55a4.5 4.5 0 0 1 4.5-4.5h60a4.5 4.5 0 0 1 4.5 4.5v60a4.5 4.5 0 0 1-4.5 4.5h-60a4.5 4.5 0 0 1-4.5-4.5V55Z" fill="#6E49CB" fill-opacity=".3" stroke="#6E49CB"/><path d="M78.126 148.145c-.673-.003-1.249-.181-1.726-.533-.477-.352-.842-.865-1.095-1.538s-.38-1.485-.38-2.433c0-.946.127-1.755.38-2.425.256-.671.622-1.182 1.1-1.534.48-.352 1.053-.529 1.72-.529.669 0 1.241.178 1.718.533.477.352.843.864 1.095 1.534.256.668.384 1.475.384 2.421 0 .951-.127 1.764-.38 2.437-.252.671-.617 1.183-1.094 1.538-.478.353-1.052.529-1.722.529Zm0-1.138c.59 0 1.052-.288 1.385-.865.335-.577.503-1.41.503-2.501 0-.725-.077-1.337-.23-1.837-.151-.503-.368-.884-.652-1.142a1.428 1.428 0 0 0-1.006-.392c-.588 0-1.05.29-1.385.869-.335.58-.504 1.414-.507 2.502 0 .727.075 1.342.226 1.845.153.5.37.879.652 1.138.281.255.62.383 1.014.383Zm4.724 3.448v-9h1.245v1.061h.107c.073-.137.18-.294.32-.473.138-.179.332-.336.579-.469.247-.136.574-.205.98-.205.528 0 1 .134 1.415.401.414.267.74.652.976 1.155.238.503.357 1.108.357 1.815 0 .707-.117 1.314-.353 1.82-.236.503-.56.89-.972 1.163-.412.27-.882.405-1.41.405-.398 0-.723-.067-.976-.2a1.854 1.854 0 0 1-.588-.469 3.565 3.565 0 0 1-.328-.477h-.077v3.473H82.85Zm1.25-5.728c0 .461.066.864.2 1.211.133.346.326.617.58.813.252.194.562.29.928.29.38 0 .699-.101.955-.302a1.9 1.9 0 0 0 .58-.831c.133-.35.2-.743.2-1.181 0-.432-.066-.819-.197-1.163a1.781 1.781 0 0 0-.58-.814c-.255-.199-.574-.298-.958-.298-.37 0-.682.095-.937.285a1.757 1.757 0 0 0-.576.797 3.34 3.34 0 0 0-.196 1.193Zm6.905-3.272 1.445 2.548 1.457-2.548H95.3l-2.04 3.272L95.316 148h-1.393l-1.475-2.446L90.98 148h-1.397l2.037-3.273-2.012-3.272h1.398Zm82.431-2.182V148h-1.321v-7.406h-.051l-2.089 1.363v-1.261l2.178-1.423h1.283Zm2.378 11.182v-9h1.244v1.061h.106c.074-.137.181-.294.32-.473s.332-.336.58-.469c.247-.137.573-.205.98-.205.528 0 1 .134 1.414.401.415.267.74.652.976 1.155.239.503.358 1.108.358 1.815 0 .707-.118 1.314-.353 1.82-.236.502-.56.89-.972 1.163-.412.27-.882.405-1.411.405-.397 0-.723-.067-.975-.2a1.853 1.853 0 0 1-.588-.469 3.516 3.516 0 0 1-.329-.477h-.076v3.473h-1.274Zm1.248-5.728c0 .46.067.864.2 1.21.134.347.327.618.58.814.253.194.562.29.929.29.381 0 .699-.101.954-.302.256-.205.449-.482.58-.831.134-.35.2-.743.2-1.181 0-.432-.065-.819-.196-1.163a1.785 1.785 0 0 0-.579-.814c-.256-.199-.576-.298-.959-.298-.369 0-.682.095-.938.285a1.764 1.764 0 0 0-.575.797 3.319 3.319 0 0 0-.196 1.193Zm6.906-3.272 1.444 2.548 1.458-2.548h1.393l-2.041 3.272L188.28 148h-1.393l-1.475-2.446-1.47 2.446h-1.398l2.037-3.273-2.011-3.272h1.398Z" fill="#380D75"/><path d="M264.281 148v-.955l2.953-3.059c.315-.333.575-.624.78-.874.207-.253.362-.493.464-.72.103-.227.154-.469.154-.724 0-.29-.068-.54-.205-.75a1.329 1.329 0 0 0-.558-.49 1.768 1.768 0 0 0-.797-.175c-.312 0-.585.064-.818.192a1.308 1.308 0 0 0-.537.541 1.703 1.703 0 0 0-.188.818h-1.257c0-.531.122-.996.367-1.393a2.487 2.487 0 0 1 1.005-.925 3.103 3.103 0 0 1 1.454-.333c.548 0 1.031.11 1.448.329.421.215.749.511.985.886.236.372.354.793.354 1.261 0 .324-.062.641-.184.951-.119.309-.328.654-.626 1.035-.298.378-.713.837-1.244 1.376l-1.735 1.816v.064h3.929V148h-5.744Zm7.376 2.455v-9h1.245v1.061h.106c.074-.137.181-.294.32-.473s.332-.336.579-.469c.247-.136.574-.205.98-.205.529 0 1 .134 1.415.401.415.267.74.652.976 1.155.239.503.358 1.108.358 1.815 0 .707-.118 1.314-.354 1.82-.236.503-.559.89-.971 1.163-.412.27-.882.405-1.411.405-.398 0-.723-.067-.976-.2a1.853 1.853 0 0 1-.588-.469 3.592 3.592 0 0 1-.328-.477h-.077v3.473h-1.274Zm1.249-5.728c0 .461.067.864.2 1.211.134.346.327.617.58.813.253.194.562.29.929.29.38 0 .699-.101.954-.302.256-.205.449-.482.58-.831.133-.35.2-.743.2-1.181 0-.432-.065-.819-.196-1.163a1.78 1.78 0 0 0-.58-.814c-.255-.199-.575-.298-.958-.298-.37 0-.682.095-.938.285a1.757 1.757 0 0 0-.575.797 3.319 3.319 0 0 0-.196 1.193Zm6.905-3.272 1.445 2.548 1.457-2.548h1.394l-2.041 3.272 2.058 3.273h-1.394l-1.474-2.446-1.47 2.446h-1.398l2.037-3.273-2.011-3.272h1.397Z" fill="#fff"/><path d="M455.6 139.273V148h-1.321v-7.406h-.051l-2.088 1.363v-1.261l2.177-1.423h1.283Zm5.399 8.872c-.673-.003-1.249-.181-1.726-.533-.477-.352-.842-.865-1.095-1.538s-.379-1.485-.379-2.433c0-.946.126-1.755.379-2.425.256-.671.622-1.182 1.099-1.534.48-.352 1.054-.529 1.722-.529.668 0 1.24.178 1.717.533.478.352.843.864 1.095 1.534.256.668.384 1.475.384 2.421 0 .951-.126 1.764-.379 2.437-.253.671-.618 1.183-1.096 1.538-.477.353-1.051.529-1.721.529Zm0-1.138c.591 0 1.052-.288 1.385-.865.335-.577.503-1.41.503-2.501 0-.725-.077-1.337-.23-1.837-.151-.503-.368-.884-.652-1.142a1.43 1.43 0 0 0-1.006-.392c-.588 0-1.05.29-1.385.869-.335.58-.504 1.414-.507 2.502 0 .727.075 1.342.226 1.845.153.5.37.879.652 1.138.281.255.619.383 1.014.383Zm7.746 1.138c-.673-.003-1.249-.181-1.726-.533-.477-.352-.842-.865-1.095-1.538s-.379-1.485-.379-2.433c0-.946.126-1.755.379-2.425.256-.671.622-1.182 1.099-1.534.481-.352 1.054-.529 1.722-.529.668 0 1.24.178 1.717.533.478.352.843.864 1.095 1.534.256.668.384 1.475.384 2.421 0 .951-.126 1.764-.379 2.437-.253.671-.618 1.183-1.095 1.538-.478.353-1.052.529-1.722.529Zm0-1.138c.591 0 1.053-.288 1.385-.865.335-.577.503-1.41.503-2.501 0-.725-.077-1.337-.23-1.837-.151-.503-.368-.884-.652-1.142a1.43 1.43 0 0 0-1.006-.392c-.588 0-1.05.29-1.385.869-.335.58-.504 1.414-.507 2.502 0 .727.075 1.342.226 1.845.153.5.371.879.652 1.138.281.255.619.383 1.014.383Zm9.263-.643v-.461c0-.329.068-.63.205-.903.139-.276.341-.496.605-.661.267-.167.589-.251.967-.251.386 0 .71.082.972.247.261.165.459.385.592.661.136.275.205.578.205.907v.461c0 .329-.069.632-.205.907a1.64 1.64 0 0 1-.601.661c-.261.165-.582.247-.963.247-.383 0-.707-.082-.971-.247a1.633 1.633 0 0 1-.601-.661 2.007 2.007 0 0 1-.205-.907Zm.993-.461v.461c0 .244.058.466.175.664.116.199.319.299.609.299.287 0 .487-.1.601-.299.114-.198.17-.42.17-.664v-.461c0-.244-.055-.466-.166-.664-.108-.199-.309-.299-.605-.299-.284 0-.486.1-.605.299-.119.198-.179.42-.179.664Zm-5.382-4.534v-.46c0-.329.068-.632.204-.908.14-.275.341-.495.606-.66.267-.165.589-.247.967-.247.386 0 .71.082.972.247.261.165.458.385.592.66.133.276.2.579.2.908v.46c0 .33-.068.632-.204.908a1.616 1.616 0 0 1-.597.661c-.261.164-.582.247-.963.247-.386 0-.712-.083-.976-.247a1.659 1.659 0 0 1-.597-.661 2.024 2.024 0 0 1-.204-.908Zm.997-.46v.46c0 .245.057.466.171.665.116.199.319.298.609.298.284 0 .483-.099.597-.298.116-.199.174-.42.174-.665v-.46c0-.244-.055-.466-.166-.665-.111-.199-.312-.298-.605-.298-.284 0-.486.099-.605.298a1.288 1.288 0 0 0-.175.665Zm-.592 7.091 6-8.727h1.018l-6 8.727h-1.018Zm-113.892.119c-.585 0-1.108-.101-1.568-.302a2.661 2.661 0 0 1-1.087-.84 2.23 2.23 0 0 1-.426-1.253h1.338c.017.259.104.483.26.674.159.187.366.332.622.434.256.103.54.154.852.154.344 0 .648-.06.912-.179.267-.119.476-.286.627-.499.15-.216.225-.464.225-.745 0-.293-.075-.55-.225-.772a1.475 1.475 0 0 0-.652-.528c-.285-.128-.628-.192-1.032-.192h-.737v-1.074h.737c.324 0 .608-.058.853-.175.247-.116.44-.278.579-.485.139-.211.209-.456.209-.738a1.32 1.32 0 0 0-.183-.703 1.241 1.241 0 0 0-.512-.473 1.665 1.665 0 0 0-.775-.17 2 2 0 0 0-.797.158c-.244.102-.443.25-.597.443-.153.19-.235.419-.247.686h-1.274c.014-.472.153-.887.418-1.245a2.711 2.711 0 0 1 1.056-.839 3.44 3.44 0 0 1 1.458-.303c.559 0 1.042.11 1.449.329.409.215.724.504.946.865.224.36.335.755.332 1.184.003.489-.133.904-.409 1.245a1.99 1.99 0 0 1-1.091.686v.068c.58.088 1.029.318 1.347.69.321.372.48.834.477 1.385.003.48-.131.911-.401 1.291a2.718 2.718 0 0 1-1.095.899c-.463.216-.993.324-1.589.324Zm4.713 2.336v-9h1.244v1.061h.107c.074-.137.18-.294.319-.473s.333-.336.58-.469c.247-.136.574-.205.98-.205.528 0 1 .134 1.415.401.414.267.74.652.976 1.155.238.503.358 1.108.358 1.815 0 .707-.118 1.314-.354 1.82-.236.503-.56.89-.972 1.163-.412.27-.882.405-1.41.405-.398 0-.723-.067-.976-.2a1.853 1.853 0 0 1-.588-.469 3.498 3.498 0 0 1-.328-.477h-.077v3.473h-1.274Zm1.248-5.728c0 .461.067.864.201 1.211.133.346.326.617.579.813.253.194.563.29.929.29.381 0 .699-.101.955-.302.255-.205.449-.482.579-.831a3.28 3.28 0 0 0 .201-1.181c0-.432-.066-.819-.196-1.163a1.78 1.78 0 0 0-.58-.814c-.256-.199-.575-.298-.959-.298-.369 0-.682.095-.937.285a1.759 1.759 0 0 0-.576.797 3.34 3.34 0 0 0-.196 1.193Zm6.906-3.272 1.445 2.548 1.457-2.548h1.393l-2.041 3.272 2.058 3.273h-1.393l-1.474-2.446-1.471 2.446h-1.397l2.037-3.273-2.012-3.272h1.398Z" fill="#380D75"/></svg>