<svg width="840" height="240" viewBox="0 0 840 240" fill="none" xmlns="http://www.w3.org/2000/svg"><path fill="#fff" d="M0 0h840v240H0z"/><path stroke="#DFDFDF" d="M39.5 39.5h160v160h-160z"/><path d="M49.5 39.5v160m10-160v160m10-160v160m10-160v160m10-160v160m10-160v160m10-160v160m10-160v160m10-160v160m10-160v160m10-160v160m10-160v160m10-160v160m10-160v160m10-160v160m10-150h-160m160 10h-160m160 10h-160m160 10h-160m160 10h-160m160 10h-160m160 10h-160m160 10h-160m160 10h-160m160 10h-160m160 10h-160m160 10h-160m160 10h-160m160 10h-160m160 10h-160" stroke="#DFDFDF" stroke-linecap="square"/><path stroke="#DFDFDF" d="M239.5 39.5h160v160h-160z"/><path d="M249.5 39.5v160m10-160v160m10-160v160m10-160v160m10-160v160m10-160v160m10-160v160m10-160v160m10-160v160m10-160v160m10-160v160m10-160v160m10-160v160m10-160v160m10-160v160m10-150h-160m160 10h-160m160 10h-160m160 10h-160m160 10h-160m160 10h-160m160 10h-160m160 10h-160m160 10h-160m160 10h-160m160 10h-160m160 10h-160m160 10h-160m160 10h-160m160 10h-160" stroke="#DFDFDF" stroke-linecap="square"/><path stroke="#DFDFDF" d="M439.5 39.5h160v160h-160z"/><path d="M449.5 39.5v160m10-160v160m10-160v160m10-160v160m10-160v160m10-160v160m10-160v160m10-160v160m10-160v160m10-160v160m10-160v160m10-160v160m10-160v160m10-160v160m10-160v160m10-150h-160m160 10h-160m160 10h-160m160 10h-160m160 10h-160m160 10h-160m160 10h-160m160 10h-160m160 10h-160m160 10h-160m160 10h-160m160 10h-160m160 10h-160m160 10h-160m160 10h-160" stroke="#DFDFDF" stroke-linecap="square"/><path stroke="#DFDFDF" d="M639.5 39.5h160v160h-160z"/><path d="M649.5 39.5v160m10-160v160m10-160v160m10-160v160m10-160v160m10-160v160m10-160v160m10-160v160m10-160v160m10-160v160m10-160v160m10-160v160m10-160v160m10-160v160m10-160v160m10-150h-160m160 10h-160m160 10h-160m160 10h-160m160 10h-160m160 10h-160m160 10h-160m160 10h-160m160 10h-160m160 10h-160m160 10h-160m160 10h-160m160 10h-160m160 10h-160m160 10h-160" stroke="#DFDFDF" stroke-linecap="square"/><path fill-rule="evenodd" clip-rule="evenodd" d="M200 39H39v161h161V39ZM50 189V50h139v139H50ZM400 39H239v161h161V39ZM250 189V50h139v139H250ZM600 39H439v161h161V39ZM450 189V50h139v139H450ZM800 39H639v161h161V39ZM650 189V50h139v139H650Z" fill="#A7A7A7" fill-opacity=".2"/><mask id="icons-keyline-examples__a" fill="#fff"><path fill-rule="evenodd" clip-rule="evenodd" d="M369.5 49.5h-100c-11.046 0-20 8.954-20 20v100c0 11.046 8.954 20 20 20h100c11.046 0 20-8.954 20-20v-100c0-11.046-8.954-20-20-20ZM265 174V65h109v109H265Z"/></mask><path fill-rule="evenodd" clip-rule="evenodd" d="M369.5 49.5h-100c-11.046 0-20 8.954-20 20v100c0 11.046 8.954 20 20 20h100c11.046 0 20-8.954 20-20v-100c0-11.046-8.954-20-20-20ZM265 174V65h109v109H265Z" fill="#6E49CB" fill-opacity=".3"/><path d="M265 65v-1h-1v1h1Zm0 109h-1v1h1v-1ZM374 65h1v-1h-1v1Zm0 109v1h1v-1h-1ZM269.5 50.5h100v-2h-100v2Zm-19 19c0-10.493 8.507-19 19-19v-2c-11.598 0-21 9.402-21 21h2Zm0 100v-100h-2v100h2Zm19 19c-10.493 0-19-8.507-19-19h-2c0 11.598 9.402 21 21 21v-2Zm100 0h-100v2h100v-2Zm19-19c0 10.493-8.507 19-19 19v2c11.598 0 21-9.402 21-21h-2Zm0-100v100h2v-100h-2Zm-19-19c10.493 0 19 8.507 19 19h2c0-11.598-9.402-21-21-21v2ZM264 65v109h2V65h-2Zm110-1H265v2h109v-2Zm1 110V65h-2v109h2Zm-110 1h109v-2H265v2Z" fill="#6E49CB" mask="url(#icons-keyline-examples__a)"/><path d="M126.547 116.374v.207l.146.147 20.47 20.469a7.047 7.047 0 0 1-9.966 9.966l-24.744-24.744V76.734a7.047 7.047 0 0 1 14.094 0v39.64Zm-7.047 69.032c36.399 0 65.906-29.507 65.906-65.906S155.899 53.594 119.5 53.594 53.594 83.1 53.594 119.5 83.1 185.406 119.5 185.406Zm80-65.906c0 44.183-35.817 80-80 80s-80-35.817-80-80 35.817-80 80-80 80 35.817 80 80Zm365.022 58.627.853.852V59.123a5.536 5.536 0 0 0-5.542-5.531h-80.666a5.536 5.536 0 0 0-5.542 5.53V178.98l.853-.852 45.022-44.923 45.022 44.923Zm-44.669-24.64-.353-.353-.353.353-43.287 43.192c-6.038 6.025-16.36 1.756-16.36-6.761V59.123c0-10.837 8.804-19.623 19.667-19.623h80.666c10.863 0 19.667 8.786 19.667 19.623v130.796c0 8.516-10.322 12.785-16.36 6.76l-43.287-43.192Zm265.302-68.12.251-.144v-6.056a5.536 5.536 0 0 0-5.531-5.542h-120.75a5.536 5.536 0 0 0-5.531 5.542v6.056l.251.144 65.407 37.453.248.142.248-.142 65.407-37.453ZM654.342 101.92l-.748-.429v58.342a5.536 5.536 0 0 0 5.531 5.542h120.75a5.536 5.536 0 0 0 5.531-5.542v-58.342l-.748.429-65.158 37.31-65.158-37.31ZM639.5 79.167c0-10.863 8.787-19.667 19.625-19.667h120.75c10.838 0 19.625 8.804 19.625 19.667v80.666c0 10.863-8.787 19.667-19.625 19.667h-120.75c-10.838 0-19.625-8.804-19.625-19.667V79.167Z" fill="#6E49CB" fill-opacity=".3" stroke="#6E49CB"/></svg>