<svg width="240" height="240" xmlns="http://www.w3.org/2000/svg"><g fill="none" fill-rule="evenodd"><path fill="#FFF" d="M0 0h240v240H0z"/><g stroke="#DFDFDF"><path d="M39.5 39.5h160v160h-160z"/><g stroke-linecap="square"><path d="M49.5 39.5v160M59.5 39.5v160M69.5 39.5v160M79.5 39.5v160M89.5 39.5v160M99.5 39.5v160M109.5 39.5v160M119.5 39.5v160M129.5 39.5v160M139.5 39.5v160M149.5 39.5v160M159.5 39.5v160M169.5 39.5v160M179.5 39.5v160M189.5 39.5v160M199.5 49.5h-160M199.5 59.5h-160M199.5 69.5h-160M199.5 79.5h-160M199.5 89.5h-160M199.5 99.5h-160M199.5 109.5h-160M199.5 119.5h-160M199.5 129.5h-160M199.5 139.5h-160M199.5 149.5h-160M199.5 159.5h-160M199.5 169.5h-160M199.5 179.5h-160M199.5 189.5h-160"/></g></g><path d="M130 121.858L145.142 137c3.905 3.905 3.905 10.237 0 14.142-3.905 3.905-10.237 3.905-14.142 0l-21-21.002V90c0-5.523 4.477-10 10-10s10 4.477 10 10v31.858z" fill-opacity=".3" fill="#6E49CB"/><path stroke="#6E49CB" stroke-linecap="round" d="M119.5 90v36.015l18.109 18.109"/><path stroke="#DB3B21" fill-opacity=".499" fill="#FC6D26" d="M99.5 119.5h20v20h-20z"/><path d="M120 201c44.735 0 81-36.265 81-81s-36.265-81-81-81-81 36.265-81 81 36.265 81 81 81zm0-21c-33.137 0-60-26.863-60-60s26.863-60 60-60 60 26.863 60 60-26.863 60-60 60z" fill-opacity=".3" fill="#6E49CB" fill-rule="nonzero"/><path stroke="#6E49CB" fill="#FFF" d="M117.5 87.5h4v4h-4zM117.5 124.5h4v4h-4zM135.5 141.5h4v4h-4z"/></g></svg>