<svg width="592" height="240" xmlns="http://www.w3.org/2000/svg"><g fill="none" fill-rule="evenodd"><path fill="#FFF" d="M0 0h592v240H0z"/><path stroke="#6E49CB" fill-opacity=".3" fill="#6E49CB" d="M32.5 112.5h15v15h-15z"/><path d="M34.31 165v-.95h2.043v-6.583h-1.627v-.738c.725-.124 1.356-.345 1.894-.664h.882v7.985h1.845v.95H34.31zm6.36-4.129c0-.697.061-1.327.184-1.89.124-.563.291-1.033.503-1.412.212-.378.464-.694.755-.946.292-.253.6-.437.927-.55.325-.115.67-.172 1.035-.172.848 0 1.566.317 2.154.95l-.643.718a1.963 1.963 0 0 0-.663-.516 1.836 1.836 0 0 0-.807-.188c-.323 0-.62.067-.888.202a2.137 2.137 0 0 0-.732.629c-.219.285-.392.679-.52 1.182-.127.504-.198 1.098-.211 1.781.282-.342.61-.614.984-.817.374-.203.74-.304 1.1-.304.789 0 1.411.236 1.867.708.456.471.683 1.156.683 2.054 0 .838-.256 1.526-.769 2.064a2.494 2.494 0 0 1-1.876.807c-.912 0-1.653-.37-2.225-1.11-.572-.742-.858-1.804-.858-3.19zm1.121.711c.068.866.27 1.528.605 1.986.335.458.787.687 1.357.687.447 0 .817-.181 1.11-.544.295-.362.442-.832.442-1.411 0-.597-.14-1.062-.417-1.395-.278-.332-.688-.499-1.23-.499-.302 0-.617.097-.948.29-.33.194-.636.49-.919.886zM74.31 125v-.95h2.043v-6.583h-1.627v-.738c.725-.124 1.356-.345 1.894-.664h.882v7.985h1.845v.95H74.31zm6.36-4.129c0-.697.061-1.327.184-1.89.124-.563.291-1.033.503-1.412.212-.378.464-.694.755-.946.292-.253.6-.437.927-.55.325-.115.67-.172 1.035-.172.848 0 1.566.317 2.154.95l-.643.718a1.963 1.963 0 0 0-.663-.516 1.836 1.836 0 0 0-.807-.188c-.323 0-.62.067-.888.202a2.137 2.137 0 0 0-.732.629c-.219.285-.392.679-.52 1.182-.127.504-.198 1.098-.211 1.781.282-.342.61-.614.984-.817.374-.203.74-.304 1.1-.304.789 0 1.411.236 1.867.708.456.471.683 1.156.683 2.054 0 .838-.256 1.526-.769 2.064a2.494 2.494 0 0 1-1.876.807c-.912 0-1.653-.37-2.225-1.11-.572-.742-.858-1.804-.858-3.19zm1.121.711c.068.866.27 1.528.605 1.986.335.458.787.687 1.357.687.447 0 .817-.181 1.11-.544.295-.362.442-.832.442-1.411 0-.597-.14-1.062-.417-1.395-.278-.332-.688-.499-1.23-.499-.302 0-.617.097-.948.29-.33.194-.636.49-.919.886z" fill="#380D75" fill-rule="nonzero"/><path d="M33 144.5h14V141h1v8h-1v-3.5H33v3.5h-1v-8h1v3.5zM58 119.5h14V116h1v8h-1v-3.5H58v3.5h-1v-8h1v3.5z" fill="#FC6D26" fill-rule="nonzero"/><path d="M32.5 128v13M48 127.5h13M47.5 128v13M48 112.5h13" stroke-opacity=".5" stroke="#FCA121"/><g><g stroke="#DFDFDF"><path d="M134.5 39.5h160v160h-160z"/><g stroke-linecap="square"><path d="M144.5 39.5v160M154.5 39.5v160M164.5 39.5v160M174.5 39.5v160M184.5 39.5v160M194.5 39.5v160M204.5 39.5v160M214.5 39.5v160M224.5 39.5v160M234.5 39.5v160M244.5 39.5v160M254.5 39.5v160M264.5 39.5v160M274.5 39.5v160M284.5 39.5v160M294.5 49.5h-160M294.5 59.5h-160M294.5 69.5h-160M294.5 79.5h-160M294.5 89.5h-160M294.5 99.5h-160M294.5 109.5h-160M294.5 119.5h-160M294.5 129.5h-160M294.5 139.5h-160M294.5 149.5h-160M294.5 159.5h-160M294.5 169.5h-160M294.5 179.5h-160M294.5 189.5h-160"/></g></g><path stroke="#6E49CB" fill-opacity=".3" fill="#6E49CB" d="M144.5 49.5h140v140h-140z"/><path d="M209.31 221v-.95h2.043v-6.583h-1.627v-.738c.725-.124 1.356-.345 1.894-.664h.882v7.985h1.845v.95h-5.038zm5.93-2.46v-.76l3.82-5.715h1.286v5.544h1.223v.93h-1.223V221h-1.087v-2.46h-4.02zm1.216-.93h2.803v-2.585c0-.35.023-.925.068-1.722h-.055c-.04.077-.284.496-.731 1.258l-2.085 3.048z" fill="#292961" fill-rule="nonzero"/><path d="M305.31 125v-.95h2.043v-6.583h-1.627v-.738c.725-.124 1.356-.345 1.894-.664h.882v7.985h1.845v.95h-5.038zm5.93-2.46v-.76l3.82-5.715h1.286v5.544h1.223v.93h-1.223V125h-1.087v-2.46h-4.02zm1.216-.93h2.803v-2.585c0-.35.023-.925.068-1.722h-.055c-.04.077-.284.496-.731 1.258l-2.085 3.048z" fill="#380D75" fill-rule="nonzero"/><path d="M312 50v60h-1V50h-3.5v-1h8v1H312zM145 215h60v1h-60v3.5h-1v-8h1v3.5zM225.5 215h59v1h-59v3.5h-1v-8h1v3.5zM312 130.5v59h-1v-59h-3.5v-1h8v1H312z" fill="#FC6D26" fill-rule="nonzero"/><path d="M285.5 49.5h22M144.5 190.5V212M284.5 190.5V212M285.5 189.5h22" stroke-opacity=".5" stroke="#FCA121"/></g><g><g stroke="#DFDFDF"><path d="M382.5 39.5h160v160h-160z"/><g stroke-linecap="square"><path d="M392.5 39.5v160M402.5 39.5v160M412.5 39.5v160M422.5 39.5v160M432.5 39.5v160M442.5 39.5v160M452.5 39.5v160M462.5 39.5v160M472.5 39.5v160M482.5 39.5v160M492.5 39.5v160M502.5 39.5v160M512.5 39.5v160M522.5 39.5v160M532.5 39.5v160M542.5 49.5h-160M542.5 59.5h-160M542.5 69.5h-160M542.5 79.5h-160M542.5 89.5h-160M542.5 99.5h-160M542.5 109.5h-160M542.5 119.5h-160M542.5 129.5h-160M542.5 139.5h-160M542.5 149.5h-160M542.5 159.5h-160M542.5 169.5h-160M542.5 179.5h-160M542.5 189.5h-160"/></g></g><path stroke-opacity=".3" stroke="#6E49CB" stroke-width="11" d="M387.5 44.5h150v150h-150z"/><path stroke="#6E49CB" fill-opacity=".3" fill="#6E49CB" d="M382.5 39.5h10v10h-10z"/><path d="M457.31 221v-.95h2.043v-6.583h-1.627v-.738c.725-.124 1.356-.345 1.894-.664h.882v7.985h1.845v.95h-5.038zm6.36-4.129c0-.697.061-1.327.184-1.89.124-.563.291-1.033.503-1.412.212-.378.464-.694.755-.946.292-.253.6-.437.927-.55.325-.115.67-.172 1.035-.172.848 0 1.566.317 2.154.95l-.643.718a1.963 1.963 0 0 0-.663-.516 1.836 1.836 0 0 0-.807-.188c-.323 0-.62.067-.888.202a2.137 2.137 0 0 0-.732.629c-.219.285-.392.679-.52 1.182-.127.504-.198 1.098-.211 1.781.282-.342.61-.614.984-.817.374-.203.74-.304 1.1-.304.789 0 1.411.236 1.867.708.456.471.683 1.156.683 2.054 0 .838-.256 1.526-.769 2.064a2.494 2.494 0 0 1-1.876.807c-.912 0-1.653-.37-2.225-1.11-.572-.742-.858-1.804-.858-3.19zm1.121.711c.068.866.27 1.528.605 1.986.335.458.787.687 1.357.687.447 0 .817-.181 1.11-.544.295-.362.442-.832.442-1.411 0-.597-.14-1.062-.417-1.395-.278-.332-.688-.499-1.23-.499-.302 0-.617.097-.948.29-.33.194-.636.49-.919.886zM385.708 29v-.95h2.044v-6.583h-1.627v-.738c.725-.124 1.356-.345 1.894-.664h.882v7.985h1.845V29h-5.038zM553.31 125v-.95h2.043v-6.583h-1.627v-.738c.725-.124 1.356-.345 1.894-.664h.882v7.985h1.845v.95h-5.038zm6.36-4.129c0-.697.061-1.327.184-1.89.124-.563.291-1.033.503-1.412.212-.378.464-.694.755-.946.292-.253.6-.437.927-.55.325-.115.67-.172 1.035-.172.848 0 1.566.317 2.154.95l-.643.718a1.963 1.963 0 0 0-.663-.516 1.836 1.836 0 0 0-.807-.188c-.323 0-.62.067-.888.202a2.137 2.137 0 0 0-.732.629c-.219.285-.392.679-.52 1.182-.127.504-.198 1.098-.211 1.781.282-.342.61-.614.984-.817.374-.203.74-.304 1.1-.304.789 0 1.411.236 1.867.708.456.471.683 1.156.683 2.054 0 .838-.256 1.526-.769 2.064a2.494 2.494 0 0 1-1.876.807c-.912 0-1.653-.37-2.225-1.11-.572-.742-.858-1.804-.858-3.19zm1.121.711c.068.866.27 1.528.605 1.986.335.458.787.687 1.357.687.447 0 .817-.181 1.11-.544.295-.362.442-.832.442-1.411 0-.597-.14-1.062-.417-1.395-.278-.332-.688-.499-1.23-.499-.302 0-.617.097-.948.29-.33.194-.636.49-.919.886zM366.708 50v-.95h2.044v-6.583h-1.627v-.738c.725-.124 1.356-.345 1.894-.664h.882v7.985h1.845V50h-5.038z" fill="#380D75" fill-rule="nonzero"/><path fill-opacity=".5" fill="#FCA121" fill-rule="nonzero" d="M382 31v8h1v-8zM392 31v8h1v-8zM374 40h8v-1h-8zM374 50h8v-1h-8z"/><path d="M383 215h68v1h-68v3.5h-1v-8h1v3.5zM475.5 215h67v1h-67v3.5h-1v-8h1v3.5z" fill="#FC6D26" fill-rule="nonzero"/><path fill-opacity=".5" fill="#FCA121" fill-rule="nonzero" d="M382 200v12h1v-12zM542 200v12h1v-12z"/><path d="M560 40v70h-1V40h-3.5v-1h8v1H560zM560 130.5v69h-1v-69h-3.5v-1h8v1H560z" fill="#FC6D26" fill-rule="nonzero"/><path fill-opacity=".5" fill="#FCA121" fill-rule="nonzero" d="M543 40h12v-1h-12zM543 200h12v-1h-12z"/></g></g></svg>