<svg width="240" height="240" viewBox="0 0 240 240" fill="none" xmlns="http://www.w3.org/2000/svg"><path fill="#fff" d="M0 0h240v240H0z"/><path stroke="#DFDFDF" d="M39.5 39.5h160v160h-160z"/><path d="M49.5 39.5v160m10-160v160m10-160v160m10-160v160m10-160v160m10-160v160m10-160v160m10-160v160m10-160v160m10-160v160m10-160v160m10-160v160m10-160v160m10-160v160m10-160v160m10-150h-160m160 10h-160m160 10h-160m160 10h-160m160 10h-160m160 10h-160m160 10h-160m160 10h-160m160 10h-160m160 10h-160m160 10h-160m160 10h-160m160 10h-160m160 10h-160m160 10h-160" stroke="#DFDFDF" stroke-linecap="square"/><path fill-rule="evenodd" clip-rule="evenodd" d="M211 39c5.523 0 10-4.477 10-10s-4.477-10-10-10-10 4.477-10 10 4.477 10 10 10Z" fill="#DB3B21"/><path d="m214 26-6 6.002M208 26l6 6.002" stroke="#fff" stroke-width="2" stroke-linecap="round"/><mask id="icons-concept-old__a" fill="#fff"><path fill-rule="evenodd" clip-rule="evenodd" d="M90.303 41.697a7.5 7.5 0 0 0-10.606 10.606L106.393 79H58c-9.941 0-18 8.059-18 18v74c0 9.941 8.059 18 18 18h123c9.941 0 18-8.059 18-18V97c0-9.941-8.059-18-18-18h-49.393l26.696-26.697a7.5 7.5 0 0 0-10.606-10.606L119 70.393 90.303 41.697ZM58 94h98v80H58a3 3 0 0 1-3-3V97a3 3 0 0 1 3-3Zm125 8.5a7.5 7.5 0 1 1-15 0 7.5 7.5 0 0 1 15 0Zm-7.5 34.5a7.5 7.5 0 1 0 0-15 7.5 7.5 0 0 0 0 15Z"/></mask><path fill-rule="evenodd" clip-rule="evenodd" d="M90.303 41.697a7.5 7.5 0 0 0-10.606 10.606L106.393 79H58c-9.941 0-18 8.059-18 18v74c0 9.941 8.059 18 18 18h123c9.941 0 18-8.059 18-18V97c0-9.941-8.059-18-18-18h-49.393l26.696-26.697a7.5 7.5 0 0 0-10.606-10.606L119 70.393 90.303 41.697ZM58 94h98v80H58a3 3 0 0 1-3-3V97a3 3 0 0 1 3-3Zm125 8.5a7.5 7.5 0 1 1-15 0 7.5 7.5 0 0 1 15 0Zm-7.5 34.5a7.5 7.5 0 1 0 0-15 7.5 7.5 0 0 0 0 15Z" fill="#6E49CB" fill-opacity=".3"/><path d="m90.303 41.697-.707.707.707-.707ZM106.393 79v1h2.415l-1.707-1.707-.708.707Zm25.214 0-.708-.707L129.192 80h2.415v-1Zm26.696-26.697.707.707-.707-.707Zm0-10.606.707-.707-.707.707Zm-10.606 0 .707.707-.707-.707ZM119 70.393l-.707.707.707.708.707-.708-.707-.707ZM156 94h1v-1h-1v1Zm0 80v1h1v-1h-1ZM80.404 42.404a6.5 6.5 0 0 1 9.192 0l1.414-1.414a8.5 8.5 0 0 0-12.02 0l1.414 1.414Zm0 9.192a6.5 6.5 0 0 1 0-9.192L78.99 40.99a8.5 8.5 0 0 0 0 12.02l1.414-1.414ZM107.1 78.293 80.404 51.596 78.99 53.01l26.696 26.697 1.415-1.414ZM58 80h48.393v-2H58v2ZM41 97c0-9.389 7.611-17 17-17v-2c-10.493 0-19 8.507-19 19h2Zm0 74V97h-2v74h2Zm17 17c-9.389 0-17-7.611-17-17h-2c0 10.493 8.507 19 19 19v-2Zm123 0H58v2h123v-2Zm17-17c0 9.389-7.611 17-17 17v2c10.493 0 19-8.507 19-19h-2Zm0-74v74h2V97h-2Zm-17-17c9.389 0 17 7.611 17 17h2c0-10.493-8.507-19-19-19v2Zm-49.393 0H181v-2h-49.393v2Zm25.989-28.404-26.697 26.697 1.415 1.414L159.01 53.01l-1.414-1.414Zm0-9.192a6.499 6.499 0 0 1 0 9.192l1.414 1.414a8.499 8.499 0 0 0 0-12.02l-1.414 1.414Zm-9.192 0a6.5 6.5 0 0 1 9.192 0l1.414-1.414a8.499 8.499 0 0 0-12.02 0l1.414 1.414ZM119.707 71.1l28.697-28.696-1.414-1.414-28.697 28.696 1.414 1.414Zm-30.11-28.696L118.292 71.1l1.414-1.414L91.01 40.99l-1.414 1.414ZM156 93H58v2h98v-2Zm1 81V94h-2v80h2Zm-99 1h98v-2H58v2Zm-4-4a4 4 0 0 0 4 4v-2a2 2 0 0 1-2-2h-2Zm0-74v74h2V97h-2Zm4-4a4 4 0 0 0-4 4h2a2 2 0 0 1 2-2v-2Zm117.5 18a8.5 8.5 0 0 0 8.5-8.5h-2a6.5 6.5 0 0 1-6.5 6.5v2Zm-8.5-8.5a8.5 8.5 0 0 0 8.5 8.5v-2a6.5 6.5 0 0 1-6.5-6.5h-2Zm8.5-8.5a8.5 8.5 0 0 0-8.5 8.5h2a6.5 6.5 0 0 1 6.5-6.5v-2Zm8.5 8.5a8.5 8.5 0 0 0-8.5-8.5v2a6.5 6.5 0 0 1 6.5 6.5h2Zm-2 27a6.5 6.5 0 0 1-6.5 6.5v2a8.5 8.5 0 0 0 8.5-8.5h-2Zm-6.5-6.5a6.5 6.5 0 0 1 6.5 6.5h2a8.5 8.5 0 0 0-8.5-8.5v2Zm-6.5 6.5a6.5 6.5 0 0 1 6.5-6.5v-2a8.5 8.5 0 0 0-8.5 8.5h2Zm6.5 6.5a6.5 6.5 0 0 1-6.5-6.5h-2a8.5 8.5 0 0 0 8.5 8.5v-2Z" fill="#6E49CB" mask="url(#icons-concept-old__a)"/></svg>