<svg width="240" height="240" xmlns="http://www.w3.org/2000/svg"><g fill="none" fill-rule="evenodd"><path fill="#FFF" d="M0 0h240v240H0z"/><g stroke="#DFDFDF"><path d="M39.5 39.5h160v160h-160z"/><g stroke-linecap="square"><path d="M49.5 39.5v160M59.5 39.5v160M69.5 39.5v160M79.5 39.5v160M89.5 39.5v160M99.5 39.5v160M109.5 39.5v160M119.5 39.5v160M129.5 39.5v160M139.5 39.5v160M149.5 39.5v160M159.5 39.5v160M169.5 39.5v160M179.5 39.5v160M189.5 39.5v160M199.5 49.5h-160M199.5 59.5h-160M199.5 69.5h-160M199.5 79.5h-160M199.5 89.5h-160M199.5 99.5h-160M199.5 109.5h-160M199.5 119.5h-160M199.5 129.5h-160M199.5 139.5h-160M199.5 149.5h-160M199.5 159.5h-160M199.5 169.5h-160M199.5 179.5h-160M199.5 189.5h-160"/></g></g><path fill="#FFF" d="M119 36h83v85h-83z"/><g stroke="#FC6D26"><path d="M119.5 40v10m0 140v10M140.706 42.726l-2.589 9.66m-36.234 135.229l-2.589 9.66M160 50.718l-5 8.66M85 180.622l-5 8.66M176.569 63.431l-7.072 7.072m-98.994 98.994l-7.072 7.072M189.282 80l-8.66 5M59.378 155l-8.66 5M197.274 99.294l-9.66 2.589M52.386 138.117l-9.66 2.589M200 119.5h-10m-140 0H40M197.274 140.706l-9.66-2.589M52.386 101.883l-9.66-2.589M189.282 160l-8.66-5M59.378 85l-8.66-5M176.569 176.569l-7.072-7.072M70.503 70.503L63.43 63.43M160 189.282l-5-8.66M85 59.378l-5-8.66M140.706 197.274l-2.589-9.66M101.883 52.386l-2.589-9.66"/></g><g fill="#6E49CB" fill-opacity=".3"><path d="M147.777 185.027l-19.319 5.176-36.235-135.23 19.319-5.176z"/><path stroke="#6E49CB" d="M162.977 175.439l-16.454 9.5-69.5-120.378 16.454-9.5z"/><path d="M176.569 162.426l-14.143 14.143-98.995-98.995L77.574 63.43z"/><path stroke="#6E49CB" d="M184.939 146.523l-9.5 16.454-120.378-69.5 9.5-16.454z"/><path d="M190.203 128.458l-5.176 19.319-135.23-36.235 5.176-19.319z"/><path stroke="#6E49CB" d="M189.5 110.5v19h-139v-19z"/><path d="M185.027 92.223l5.176 19.319-135.23 36.235-5.176-19.319z"/><path stroke="#6E49CB" d="M175.439 77.023l9.5 16.454-120.378 69.5-9.5-16.454z"/><path d="M162.426 63.431l14.143 14.143-98.995 98.995-14.143-14.143z"/><path stroke="#6E49CB" d="M146.523 55.061l16.454 9.5-69.5 120.378-16.454-9.5z"/><path d="M128.458 49.797l19.319 5.176-36.235 135.23-19.319-5.176z"/><path stroke="#6E49CB" d="M110.5 50.5h19v139h-19z"/></g><g fill="#380D75" fill-rule="nonzero"><path d="M204.786 118.772c0-.838.257-1.526.77-2.064.512-.538 1.133-.807 1.862-.807.92 0 1.665.37 2.232 1.111.567.74.851 1.804.851 3.19 0 .696-.062 1.326-.185 1.89-.123.562-.29 1.033-.502 1.41a3.504 3.504 0 0 1-.755.948c-.292.253-.6.436-.927.55-.325.114-.67.17-1.035.17-.862 0-1.582-.314-2.16-.942l.649-.725c.182.219.403.392.663.52.26.127.529.19.807.19.328 0 .627-.066.899-.2a2.13 2.13 0 0 0 .738-.637c.22-.289.395-.688.523-1.196.127-.508.196-1.108.205-1.801-.283.355-.61.636-.981.84a2.293 2.293 0 0 1-1.118.308c-.788 0-1.408-.234-1.86-.704-.45-.47-.676-1.153-.676-2.05zm1.08 0c0 .593.14 1.055.417 1.388.278.333.688.5 1.23.5.31 0 .63-.098.961-.291.33-.194.637-.494.92-.9-.078-.87-.285-1.53-.622-1.982a1.605 1.605 0 0 0-1.354-.676c-.442 0-.811.182-1.107.546-.297.365-.445.837-.445 1.415zm5.773 1.737c0-1.481.252-2.62.755-3.415.504-.795 1.21-1.193 2.116-1.193.898 0 1.599.398 2.102 1.193.504.795.756 1.934.756 3.415 0 1.485-.252 2.634-.756 3.445-.503.811-1.204 1.217-2.102 1.217-.902 0-1.606-.406-2.112-1.217s-.759-1.96-.759-3.445zm1.58-2.79c-.306.598-.459 1.527-.459 2.79 0 1.262.155 2.2.465 2.813.31.613.738.92 1.285.92.542 0 .967-.307 1.275-.92.308-.613.461-1.55.461-2.813 0-1.258-.152-2.187-.458-2.786-.305-.6-.731-.899-1.278-.899-.551 0-.982.299-1.292.896zm5.02 1.306c0-.724.205-1.3.615-1.73.41-.427.916-.642 1.518-.642.597 0 1.1.215 1.51.643.41.428.616 1.005.616 1.73 0 .72-.205 1.294-.616 1.722a2.01 2.01 0 0 1-1.51.643 2.018 2.018 0 0 1-1.518-.643c-.41-.428-.615-1.003-.615-1.723zm.882 0c0 .493.113.89.338 1.193.226.303.53.455.913.455s.683-.15.902-.451c.219-.301.328-.7.328-1.197 0-.5-.11-.902-.328-1.203-.219-.3-.52-.45-.902-.45-.383 0-.687.15-.913.45-.225.301-.338.702-.338 1.203zM199.34 94.063v-.998h5.757v.718a14.62 14.62 0 0 0-1.289 1.914 9.377 9.377 0 0 0-.796 1.918 13.362 13.362 0 0 0-.424 1.992c-.087.657-.15 1.454-.191 2.393H201.2c.078-1.695.31-3.138.698-4.327.387-1.19 1.018-2.393 1.893-3.61h-4.45zm6.532 6.884l.561-.752c.314.315.65.563 1.005.745.355.183.772.274 1.25.274.561 0 1.028-.188 1.402-.564.374-.376.56-.87.56-1.48s-.172-1.09-.519-1.436c-.346-.346-.809-.52-1.387-.52-.288 0-.54.043-.756.127a4.457 4.457 0 0 0-.769.414l-.615-.39.294-4.3h4.464v.998h-3.46l-.239 2.646a2.856 2.856 0 0 1 1.374-.362c.812 0 1.477.236 1.997.707.52.472.779 1.168.779 2.089 0 .469-.084.897-.253 1.285a2.715 2.715 0 0 1-.673.957 3.15 3.15 0 0 1-2.088.786c-1.136 0-2.11-.408-2.927-1.224zm6.867-4.922c0-.724.205-1.3.615-1.73.41-.427.916-.642 1.518-.642.597 0 1.1.215 1.51.643.41.428.616 1.005.616 1.73 0 .72-.205 1.294-.616 1.722a2.01 2.01 0 0 1-1.51.643 2.018 2.018 0 0 1-1.518-.643c-.41-.428-.615-1.003-.615-1.723zm.882 0c0 .493.113.89.338 1.193.226.303.53.455.913.455s.683-.15.902-.451c.219-.301.328-.7.328-1.197 0-.5-.11-.902-.328-1.203-.219-.3-.52-.45-.902-.45-.383 0-.687.15-.913.45-.225.301-.338.702-.338 1.203zM192.396 77.871c0-.697.061-1.327.184-1.89s.29-1.033.503-1.412c.211-.378.463-.694.755-.946.292-.253.6-.437.926-.55.326-.115.671-.172 1.036-.172.848 0 1.565.317 2.153.95l-.642.718a1.963 1.963 0 0 0-.663-.516 1.836 1.836 0 0 0-.807-.188c-.324 0-.62.067-.889.202a2.137 2.137 0 0 0-.731.629c-.219.285-.392.679-.52 1.182-.127.504-.198 1.098-.212 1.781.283-.342.611-.614.985-.817.373-.203.74-.304 1.1-.304.789 0 1.41.236 1.866.708.456.471.684 1.156.684 2.054 0 .838-.256 1.526-.769 2.064a2.494 2.494 0 0 1-1.876.807c-.912 0-1.654-.37-2.226-1.11-.571-.742-.857-1.804-.857-3.19zm1.12.711c.069.866.27 1.528.606 1.986.335.458.787.687 1.357.687.446 0 .816-.181 1.11-.544.294-.362.441-.832.441-1.411 0-.597-.139-1.062-.417-1.395-.278-.332-.688-.499-1.23-.499-.3 0-.617.097-.947.29-.33.194-.637.49-.92.886zm5.623-1.073c0-1.481.252-2.62.755-3.415.504-.795 1.21-1.193 2.116-1.193.898 0 1.599.398 2.102 1.193.504.795.756 1.934.756 3.415 0 1.485-.252 2.634-.756 3.445-.503.811-1.204 1.217-2.102 1.217-.902 0-1.606-.406-2.112-1.217s-.759-1.96-.759-3.445zm1.58-2.79c-.306.598-.459 1.527-.459 2.79 0 1.262.155 2.2.465 2.813.31.613.738.92 1.285.92.542 0 .967-.307 1.275-.92.308-.613.461-1.55.461-2.813 0-1.258-.152-2.187-.458-2.786-.305-.6-.731-.899-1.278-.899-.551 0-.982.299-1.292.896zm5.02 1.306c0-.724.205-1.3.615-1.73.41-.427.916-.642 1.518-.642.597 0 1.1.215 1.51.643.41.428.616 1.005.616 1.73 0 .72-.205 1.294-.616 1.722a2.01 2.01 0 0 1-1.51.643 2.018 2.018 0 0 1-1.518-.643c-.41-.428-.615-1.003-.615-1.723zm.882 0c0 .493.113.89.338 1.193.226.303.53.455.913.455s.683-.15.902-.451c.219-.301.328-.7.328-1.197 0-.5-.11-.902-.328-1.203-.219-.3-.52-.45-.902-.45-.383 0-.687.15-.913.45-.225.301-.338.702-.338 1.203zM178.965 58.54v-.76l3.821-5.715h1.285v5.544h1.224v.93h-1.224V61h-1.087v-2.46h-4.02zm1.217-.93h2.802v-2.585c0-.35.023-.925.069-1.722h-.055c-.04.077-.285.496-.731 1.258l-2.085 3.048zm5.69 2.337l.561-.752c.314.315.65.563 1.005.745.355.183.772.274 1.25.274.561 0 1.028-.188 1.402-.564.374-.376.56-.87.56-1.48s-.172-1.09-.519-1.436c-.346-.346-.809-.52-1.387-.52-.288 0-.54.043-.756.127a4.457 4.457 0 0 0-.769.414l-.615-.39.294-4.3h4.464v.998h-3.46l-.239 2.646a2.856 2.856 0 0 1 1.374-.362c.812 0 1.477.236 1.997.707.52.472.779 1.168.779 2.089 0 .469-.084.897-.253 1.285a2.715 2.715 0 0 1-.673.957 3.15 3.15 0 0 1-2.088.786c-1.136 0-2.11-.408-2.927-1.224zm6.867-4.922c0-.724.205-1.3.615-1.73.41-.427.916-.642 1.518-.642.597 0 1.1.215 1.51.643.41.428.616 1.005.616 1.73 0 .72-.205 1.294-.616 1.722a2.01 2.01 0 0 1-1.51.643 2.018 2.018 0 0 1-1.518-.643c-.41-.428-.615-1.003-.615-1.723zm.882 0c0 .493.113.89.338 1.193.226.303.53.455.913.455s.683-.15.902-.451c.219-.301.328-.7.328-1.197 0-.5-.11-.902-.328-1.203-.219-.3-.52-.45-.902-.45-.383 0-.687.15-.913.45-.225.301-.338.702-.338 1.203zM156.088 44.906l.588-.752c.67.707 1.43 1.06 2.283 1.06.547 0 .991-.15 1.333-.448.342-.298.513-.694.513-1.186 0-.57-.222-1.008-.667-1.316-.444-.307-1.172-.461-2.184-.461v-.882c1.686 0 2.53-.556 2.53-1.668 0-.433-.138-.777-.414-1.032-.276-.256-.65-.383-1.125-.383-.66 0-1.294.303-1.9.91l-.622-.726c.793-.747 1.647-1.12 2.563-1.12.793 0 1.437.201 1.932.604.494.404.741.959.741 1.665 0 .52-.143.956-.43 1.309-.288.353-.684.625-1.19.817v.055c.57.132 1.033.395 1.391.79.358.393.537.887.537 1.48 0 .77-.28 1.387-.838 1.852-.558.464-1.259.697-2.102.697-1.185 0-2.164-.422-2.94-1.265zm7.051-3.397c0-1.481.252-2.62.755-3.415.504-.795 1.21-1.193 2.116-1.193.898 0 1.599.398 2.102 1.193.504.795.756 1.934.756 3.415 0 1.485-.252 2.634-.756 3.445-.503.811-1.204 1.217-2.102 1.217-.902 0-1.606-.406-2.112-1.217s-.759-1.96-.759-3.445zm1.58-2.79c-.306.598-.459 1.527-.459 2.79 0 1.262.155 2.2.465 2.813.31.613.738.92 1.285.92.542 0 .967-.307 1.275-.92.308-.613.461-1.55.461-2.813 0-1.258-.152-2.187-.458-2.786-.305-.6-.731-.899-1.278-.899-.551 0-.982.299-1.292.896zm5.02 1.306c0-.724.205-1.3.615-1.73.41-.427.916-.642 1.518-.642.597 0 1.1.215 1.51.643.41.428.616 1.005.616 1.73 0 .72-.205 1.294-.616 1.722a2.01 2.01 0 0 1-1.51.643 2.018 2.018 0 0 1-1.518-.643c-.41-.428-.615-1.003-.615-1.723zm.882 0c0 .493.113.89.338 1.193.226.303.53.455.913.455s.683-.15.902-.451c.219-.301.328-.7.328-1.197 0-.5-.11-.902-.328-1.203-.219-.3-.52-.45-.902-.45-.383 0-.687.15-.913.45-.225.301-.338.702-.338 1.203zM135.833 38v-.95h2.044v-6.583h-1.627v-.738c.725-.124 1.356-.345 1.894-.664h.881v7.985h1.846V38h-5.038zm6.04-1.053l.56-.752c.314.315.65.563 1.005.745.355.183.772.274 1.25.274.561 0 1.028-.188 1.402-.564.374-.376.56-.87.56-1.48s-.172-1.09-.519-1.436c-.346-.346-.809-.52-1.387-.52-.288 0-.54.043-.756.127a4.457 4.457 0 0 0-.769.414l-.615-.39.294-4.3h4.464v.998h-3.46l-.239 2.646a2.856 2.856 0 0 1 1.374-.362c.812 0 1.477.236 1.997.707.52.472.779 1.168.779 2.089 0 .469-.084.897-.253 1.285a2.715 2.715 0 0 1-.673.957 3.15 3.15 0 0 1-2.088.786c-1.136 0-2.11-.408-2.927-1.224zm6.866-4.922c0-.724.205-1.3.615-1.73.41-.427.916-.642 1.518-.642.597 0 1.1.215 1.51.643.41.428.616 1.005.616 1.73 0 .72-.205 1.294-.616 1.722a2.01 2.01 0 0 1-1.51.643 2.018 2.018 0 0 1-1.518-.643c-.41-.428-.615-1.003-.615-1.723zm.882 0c0 .493.113.89.338 1.193.226.303.53.455.913.455s.683-.15.902-.451c.219-.301.328-.7.328-1.197 0-.5-.11-.902-.328-1.203-.219-.3-.52-.45-.902-.45-.383 0-.687.15-.913.45-.225.301-.338.702-.338 1.203zM117.74 31.509c0-1.481.252-2.62.755-3.415.504-.795 1.21-1.193 2.116-1.193.898 0 1.598.398 2.102 1.193.504.795.755 1.934.755 3.415 0 1.485-.251 2.634-.755 3.445-.504.811-1.204 1.217-2.102 1.217-.902 0-1.606-.406-2.112-1.217s-.76-1.96-.76-3.445zm1.579-2.79c-.305.598-.458 1.527-.458 2.79 0 1.262.155 2.2.465 2.813.31.613.738.92 1.285.92.542 0 .967-.307 1.275-.92.308-.613.461-1.55.461-2.813 0-1.258-.152-2.187-.458-2.786-.305-.6-.731-.899-1.278-.899-.551 0-.982.299-1.292.896zm5.02 1.306c0-.724.206-1.3.616-1.73.41-.427.916-.642 1.518-.642.597 0 1.1.215 1.51.643.41.428.616 1.005.616 1.73 0 .72-.205 1.294-.616 1.722a2.01 2.01 0 0 1-1.51.643 2.018 2.018 0 0 1-1.518-.643c-.41-.428-.615-1.003-.615-1.723zm.883 0c0 .493.112.89.338 1.193.226.303.53.455.913.455.382 0 .683-.15.902-.451.219-.301.328-.7.328-1.197 0-.5-.11-.902-.328-1.203-.219-.3-.52-.45-.902-.45-.383 0-.687.15-.913.45-.226.301-.338.702-.338 1.203z"/></g></g></svg>