<svg width="240" height="240" viewBox="0 0 240 240" fill="none" xmlns="http://www.w3.org/2000/svg"><path fill="#fff" d="M0 0h240v240H0z"/><path stroke="#DFDFDF" d="M39.5 39.5h160v160h-160z"/><path d="M49.5 39.5v160m10-160v160m10-160v160m10-160v160m10-160v160m10-160v160m10-160v160m10-160v160m10-160v160m10-160v160m10-160v160m10-160v160m10-160v160m10-160v160m10-160v160m10-150h-160m160 10h-160m160 10h-160m160 10h-160m160 10h-160m160 10h-160m160 10h-160m160 10h-160m160 10h-160m160 10h-160m160 10h-160m160 10h-160m160 10h-160m160 10h-160m160 10h-160" stroke="#DFDFDF" stroke-linecap="square"/><path d="m62.97 70.03-.363.103v23.211a85.999 85.999 0 0 0 30.07 65.32l17.944 15.367.825.707V56.191l-.637.182-47.84 13.656Zm62.584 103.622v1.086l.825-.707 17.944-15.367a85.997 85.997 0 0 0 30.07-65.32V70.133l-.363-.104-47.839-13.656-.637-.182v117.461ZM48.5 59.502l70-19.982 70 19.982v33.842a100.084 100.084 0 0 1-34.996 76.02L118.5 199.342l-35.004-29.978A100.087 100.087 0 0 1 48.5 93.344V59.502Z" fill="#6E49CB" fill-opacity=".3" stroke="#6E49CB"/></svg>