<svg width="240" height="240" viewBox="0 0 240 240" fill="none" xmlns="http://www.w3.org/2000/svg"><path fill="#fff" d="M0 0h240v240H0z"/><path fill-rule="evenodd" clip-rule="evenodd" d="M120 114.5a1 1 0 1 1 0 2 1 1 0 0 1 0-2Zm0-1.5a2.5 2.5 0 0 1 .75 4.886v5.239a2.375 2.375 0 1 0 4.75 0v-.502l-.208.208a.75.75 0 1 1-1.061-1.061l1.489-1.488 1.28-1.28v4.123a3.875 3.875 0 0 1-7 2.292 3.875 3.875 0 0 1-7-2.292v-4.123l1.28 1.28 1.489 1.488a.75.75 0 1 1-1.061 1.061l-.208-.208v.502a2.375 2.375 0 1 0 4.75 0v-5.239A2.5 2.5 0 0 1 120 113Z" fill="#000"/><path fill-rule="evenodd" clip-rule="evenodd" d="M211 39c5.523 0 10-4.477 10-10s-4.477-10-10-10-10 4.477-10 10 4.477 10 10 10Z" fill="#DB3B21"/><path d="m214 26-6 6.002M208 26l6 6.002" stroke="#fff" stroke-width="2" stroke-linecap="round"/></svg>