<svg width="240" height="240" viewBox="0 0 240 240" fill="none" xmlns="http://www.w3.org/2000/svg"><path fill="#fff" d="M0 0h240v240H0z"/><path stroke="#DFDFDF" d="M39.5 39.5h160v160h-160z"/><path d="M49.5 39.5v160m10-160v160m10-160v160m10-160v160m10-160v160m10-160v160m10-160v160m10-160v160m10-160v160m10-160v160m10-160v160m10-160v160m10-160v160m10-160v160m10-160v160m10-150h-160m160 10h-160m160 10h-160m160 10h-160m160 10h-160m160 10h-160m160 10h-160m160 10h-160m160 10h-160m160 10h-160m160 10h-160m160 10h-160m160 10h-160m160 10h-160m160 10h-160" stroke="#DFDFDF" stroke-linecap="square"/><path fill-rule="evenodd" clip-rule="evenodd" d="M211 39c5.523 0 10-4.477 10-10s-4.477-10-10-10-10 4.477-10 10 4.477 10 10 10Z" fill="#DB3B21"/><path d="m214 26-6 6.002M208 26l6 6.002" stroke="#fff" stroke-width="2" stroke-linecap="round"/><path d="M71.66 134.607h-7.553v-70.5h70.5v7.554a7.554 7.554 0 0 0 15.107 0V59.07c0-5.562-4.509-10.07-10.071-10.07H59.071C53.51 49 49 53.51 49 59.071v80.572c0 5.562 4.51 10.071 10.071 10.071h12.59a7.554 7.554 0 1 0 0-15.107Z" fill="#6E49CB" fill-opacity=".3"/><path fill-rule="evenodd" clip-rule="evenodd" d="M89.286 99.357c0-5.562 4.509-10.071 10.071-10.071h80.572c5.562 0 10.071 4.509 10.071 10.071v80.572c0 5.562-4.509 10.071-10.071 10.071H99.357c-5.562 0-10.071-4.509-10.071-10.071V99.357Zm85.607 75.536h-70.5v-70.5h70.5v70.5Z" fill="#6E49CB" fill-opacity=".3"/><path d="M71.66 134.607h-7.553v-70.5h70.5v7.554a7.554 7.554 0 0 0 15.107 0V59.07c0-5.562-4.509-10.07-10.071-10.07H59.071C53.51 49 49 53.51 49 59.071v80.572c0 5.562 4.51 10.071 10.071 10.071h12.59a7.554 7.554 0 1 0 0-15.107Z" stroke="#6E49CB"/><path clip-rule="evenodd" d="M89.286 99.357c0-5.562 4.509-10.071 10.071-10.071h80.572c5.562 0 10.071 4.509 10.071 10.071v80.572c0 5.562-4.509 10.071-10.071 10.071H99.357c-5.562 0-10.071-4.509-10.071-10.071V99.357Zm85.607 75.536h-70.5v-70.5h70.5v70.5Z" stroke="#6E49CB"/></svg>