<svg width="240" height="240" viewBox="0 0 240 240" fill="none" xmlns="http://www.w3.org/2000/svg"><path fill="#fff" d="M0 0h240v240H0z"/><path stroke="#DFDFDF" d="M39.5 39.5h160v160h-160z"/><path d="M49.5 39.5v160m10-160v160m10-160v160m10-160v160m10-160v160m10-160v160m10-160v160m10-160v160m10-160v160m10-160v160m10-160v160m10-160v160m10-160v160m10-160v160m10-160v160m10-150h-160m160 10h-160m160 10h-160m160 10h-160m160 10h-160m160 10h-160m160 10h-160m160 10h-160m160 10h-160m160 10h-160m160 10h-160m160 10h-160m160 10h-160m160 10h-160m160 10h-160" stroke="#DFDFDF" stroke-linecap="square"/><path d="m164.522 178.127.853.852V59.123a5.536 5.536 0 0 0-5.542-5.531H79.167a5.536 5.536 0 0 0-5.542 5.53V178.98l.853-.852 45.022-44.923 45.022 44.923Zm-44.669-24.64-.353-.353-.353.353-43.287 43.192c-6.038 6.025-16.36 1.756-16.36-6.761V59.123c0-10.837 8.804-19.623 19.667-19.623h80.666c10.863 0 19.667 8.786 19.667 19.623v130.796c0 8.516-10.322 12.785-16.36 6.76l-43.287-43.192Z" fill="#6E49CB" fill-opacity=".3" stroke="#6E49CB"/><path d="M79.5 189.5c0 5.523-4.477 10-10 10s-10-4.477-10-10 4.477-10 10-10 10 4.477 10 10Z" fill="#FC6D26" fill-opacity=".499" stroke="#DB3B21"/><path d="M17.436 184.273V193h-1.321v-7.406h-.051l-2.088 1.363v-1.261l2.177-1.423h1.283Zm2.378 11.182v-9h1.244v1.061h.106c.074-.137.18-.294.32-.473s.332-.336.58-.469c.247-.137.573-.205.98-.205.528 0 1 .134 1.414.401.415.267.74.652.976 1.155.239.503.358 1.108.358 1.815 0 .707-.118 1.314-.353 1.82-.236.502-.56.89-.972 1.163-.412.27-.882.405-1.41.405-.398 0-.724-.067-.976-.2a1.854 1.854 0 0 1-.588-.469 3.565 3.565 0 0 1-.329-.477h-.076v3.473h-1.274Zm1.248-5.728c0 .46.067.864.2 1.21.134.347.327.618.58.814.253.194.563.29.929.29.38 0 .699-.101.954-.302.256-.205.45-.482.58-.831.134-.35.2-.743.2-1.181 0-.432-.065-.819-.196-1.163a1.78 1.78 0 0 0-.58-.814c-.255-.199-.575-.298-.958-.298-.37 0-.682.095-.938.285a1.756 1.756 0 0 0-.575.797 3.34 3.34 0 0 0-.196 1.193Zm6.906-3.272 1.444 2.548 1.458-2.548h1.393l-2.041 3.272L32.28 193h-1.393l-1.475-2.446-1.47 2.446h-1.398l2.037-3.273-2.011-3.272h1.398Z" fill="#380D75"/></svg>