<svg width="240" height="240" viewBox="0 0 240 240" fill="none" xmlns="http://www.w3.org/2000/svg"><path fill="#fff" d="M0 0h240v240H0z"/><path stroke="#DFDFDF" d="M39.5 39.5h160v160h-160z"/><path d="M49.5 39.5v160m10-160v160m10-160v160m10-160v160m10-160v160m10-160v160m10-160v160m10-160v160m10-160v160m10-160v160m10-160v160m10-160v160m10-160v160m10-160v160m10-160v160m10-150h-160m160 10h-160m160 10h-160m160 10h-160m160 10h-160m160 10h-160m160 10h-160m160 10h-160m160 10h-160m160 10h-160m160 10h-160m160 10h-160m160 10h-160m160 10h-160m160 10h-160" stroke="#DFDFDF" stroke-linecap="square"/><path fill-rule="evenodd" clip-rule="evenodd" d="M170 49H69c-11.046 0-20 8.954-20 20v101c0 11.046 8.954 20 20 20h101c11.046 0 20-8.954 20-20V69c0-11.046-8.954-20-20-20ZM65 174V65h109v109H65Z" fill="#6E49CB" fill-opacity=".3"/><path d="M119.5 90v60" stroke="#6E49CB" stroke-opacity=".3" stroke-width="13" stroke-linecap="round"/><path d="M119.5 90v60" stroke="#6E49CB" stroke-opacity=".3" stroke-linecap="round"/><path d="M119.5 90v60" stroke="#6E49CB" stroke-linecap="round"/><path d="M125.5 89.5v6h-12v-6a6 6 0 1 1 12 0Zm-13-40h14v14h-14z" fill="#FC6D26" fill-opacity=".499" stroke="#DB3B21"/><path stroke="#6E49CB" d="M49.5 49.5h140v140h-140z"/><path fill="#fff" stroke="#6E49CB" d="M47.5 47.5h4v4h-4zm70 0h4v4h-4zm0 40h4v4h-4zm0 60h4v4h-4zm70-100h4v4h-4zm-140 70h4v4h-4zm140 0h4v4h-4zm-140 70h4v4h-4zm70 0h4v4h-4zm70 0h4v4h-4z"/></svg>