<svg width="240" height="240" fill="none" xmlns="http://www.w3.org/2000/svg"><path fill="#fff" d="M0 0h240v240H0z"/><path stroke="#DFDFDF" d="M60 60h120v120H60z"/><path d="M70 60v120M80 60v120M90 60v120M100 60v120M110 60v120M120 60v120M130 60v120M140 60v120M150 60v120M160 60v120M170 60v120M180 70.023H60M180 79.5H60M180 89.5H60M180 99.5H60M180 109.5H60M180 119.5H60M180 129.5H60M180 139.5H60M180 149.5H60M180 159.5H60M180 170H60" stroke="#DFDFDF" stroke-linecap="square"/><path d="M63.208 49.523v-.95h2.044v-6.584h-1.627v-.738c.725-.123 1.356-.344 1.894-.663h.882v7.984h1.846v.95h-5.039zM44.208 70.523v-.95h2.044v-6.584h-1.627v-.738c.725-.123 1.356-.344 1.894-.663h.882v7.984h1.845v.95h-5.038z" fill="#380D75"/><path d="M59.5 51.523v8h1v-8h-1zM69.5 51.523v8h1v-8h-1zM51.5 60.523h8v-1h-8v1zM51.5 70.523h8v-1h-8v1z" fill="#FCA121" fill-opacity=".5"/><path fill="#FC6D26" fill-opacity=".499" stroke="#DB3B21" d="M60 60.023h10v10H60z"/><path stroke="#6E49CB" stroke-opacity=".3" stroke-width="11" d="M65 65.023h110v110H65z"/><path d="M60.5 215h51v1h-51v3.5h-1v-8h1v3.5zM179.5 215v-3.5h1v8h-1V216h-50v-1h50z" fill="#FC6D26"/><path d="M60 190.5V212" stroke="#FCA121" stroke-opacity=".5"/><path d="M114.41 220.6v-.952h2.044v-6.58h-1.624v-.742c.41-.075.765-.163 1.064-.266.308-.112.583-.243.826-.392h.882v7.98h1.848v.952h-5.04zM120.822 220.6v-.686c.672-.672 1.27-1.279 1.792-1.82.523-.541.962-1.041 1.316-1.498.355-.467.626-.891.812-1.274.187-.392.28-.77.28-1.134 0-.513-.14-.933-.42-1.26-.28-.327-.704-.49-1.274-.49-.373 0-.718.107-1.036.322a4.147 4.147 0 00-.868.756l-.658-.658c.374-.411.77-.737 1.19-.98.42-.252.924-.378 1.512-.378.831 0 1.484.243 1.96.728.476.476.714 1.111.714 1.904 0 .42-.093.845-.28 1.274a6.88 6.88 0 01-.756 1.316c-.317.448-.7.919-1.148 1.414a64.31 64.31 0 01-1.456 1.554l.756-.056c.262-.019.509-.028.742-.028h2.59v.994h-5.768zM209.917 124.05v-.952h2.044v-6.58h-1.624v-.742c.41-.075.765-.163 1.064-.266.308-.112.583-.243.826-.392h.882v7.98h1.848v.952h-5.04zM216.329 124.05v-.686c.672-.672 1.27-1.279 1.792-1.82.523-.541.962-1.041 1.316-1.498.355-.467.626-.891.812-1.274.187-.392.28-.77.28-1.134 0-.513-.14-.933-.42-1.26-.28-.327-.704-.49-1.274-.49-.373 0-.718.107-1.036.322a4.147 4.147 0 00-.868.756l-.658-.658c.374-.411.77-.737 1.19-.98.42-.252.924-.378 1.512-.378.831 0 1.484.243 1.96.728.476.476.714 1.111.714 1.904 0 .42-.093.845-.28 1.274a6.88 6.88 0 01-.756 1.316c-.317.448-.7.919-1.148 1.414a64.31 64.31 0 01-1.456 1.554l.756-.056c.262-.019.509-.028.742-.028h2.59v.994h-5.768z" fill="#380D75"/><path d="M180 190.5V212" stroke="#FCA121" stroke-opacity=".5"/><path d="M215.5 179.5v-51h1v51h3.5v1h-8v-1h3.5zM215.5 60.5H212v-1h8v1h-3.5v51h-1v-51z" fill="#FC6D26"/><path d="M191 180h21.5M191 60h21.5" stroke="#FCA121" stroke-opacity=".5"/></svg>