<svg width="240" height="240" viewBox="0 0 240 240" fill="none" xmlns="http://www.w3.org/2000/svg"><path fill="#fff" d="M0 0h240v240H0z"/><path stroke="#DFDFDF" d="M39.5 39.5h160v160h-160z"/><path d="M49.5 39.5v160m10-160v160m10-160v160m10-160v160m10-160v160m10-160v160m10-160v160m10-160v160m10-160v160m10-160v160m10-160v160m10-160v160m10-160v160m10-160v160m10-160v160m10-150h-160m160 10h-160m160 10h-160m160 10h-160m160 10h-160m160 10h-160m160 10h-160m160 10h-160m160 10h-160m160 10h-160m160 10h-160m160 10h-160m160 10h-160m160 10h-160m160 10h-160" stroke="#DFDFDF" stroke-linecap="square"/><path fill-rule="evenodd" clip-rule="evenodd" d="M211 39c5.523 0 10-4.477 10-10s-4.477-10-10-10-10 4.477-10 10 4.477 10 10 10Z" fill="#17AA55"/><path d="m207 29.069 2.981 2.98 6.05-6.049" stroke="#fff" stroke-width="2" stroke-linecap="round"/><path d="M182.357 69.265v-1.207l-.853.853-36.797 36.796a8.071 8.071 0 0 1-11.414-11.414l36.796-36.797.853-.853h-20.513a8.072 8.072 0 1 1 0-16.143H198.5v48.071a8.072 8.072 0 0 1-16.143 0V69.265ZM70.768 182.504l-.853.853h17.657a8.072 8.072 0 0 1 0 16.143H39.5v-48.071a8.072 8.072 0 1 1 16.143 0V174.8l.853-.854 36.797-36.796a8.071 8.071 0 0 1 11.414 11.414l-33.939 33.94Z" fill="#6E49CB" fill-opacity=".3" stroke="#6E49CB"/></svg>