<svg width="64" height="64" viewBox="0 0 64 64" fill="none" xmlns="http://www.w3.org/2000/svg">
<rect width="64" height="64" rx="4" fill="#FBFAFD"/>
<g clip-path="url(#clip0_21327_716)">
<path fill-rule="evenodd" clip-rule="evenodd" d="M25 32C25 30.1435 25.7375 28.363 27.0503 27.0503C28.363 25.7375 30.1435 25 32 25C33.8565 25 35.637 25.7375 36.9497 27.0503C38.2625 28.363 39 30.1435 39 32C39 33.8565 38.2625 35.637 36.9497 36.9497C35.637 38.2625 33.8565 39 32 39C30.1435 39 28.363 38.2625 27.0503 36.9497C25.7375 35.637 25 33.8565 25 32V32Z" fill="#1F75CB"/>
<path fill-rule="evenodd" clip-rule="evenodd" d="M38 32C38 31.2121 37.8448 30.4319 37.5433 29.7039C37.2417 28.9759 36.7998 28.3145 36.2426 27.7574C35.6855 27.2002 35.0241 26.7583 34.2961 26.4567C33.5681 26.1552 32.7879 26 32 26C31.2121 26 30.4319 26.1552 29.7039 26.4567C28.9759 26.7583 28.3145 27.2002 27.7574 27.7574C27.2002 28.3145 26.7583 28.9759 26.4567 29.7039C26.1552 30.4319 26 31.2121 26 32C26 33.5913 26.6321 35.1174 27.7574 36.2426C28.8826 37.3679 30.4087 38 32 38C33.5913 38 35.1174 37.3679 36.2426 36.2426C37.3679 35.1174 38 33.5913 38 32V32Z" fill="white"/>
<path fill-rule="evenodd" clip-rule="evenodd" d="M32 28C34.2 28 36 29.8 36 32C36 34.2 34.2 36 32 36C30.7 36 29.5 35.3 28.7 34.3L32 32V28Z" fill="#1F75CB"/>
</g>
<defs>
<clipPath id="clip0_21327_716">
<rect width="14" height="14" fill="white" transform="translate(25 25)"/>
</clipPath>
</defs>
</svg>
