<svg width="840" height="240" xmlns="http://www.w3.org/2000/svg"><g fill="none" fill-rule="evenodd"><path fill="#FFF" d="M0 0h840v240H0z"/><g stroke="#DFDFDF"><path d="M39.5 39.5h160v160h-160z"/><g stroke-linecap="square"><path d="M49.5 39.5v160M59.5 39.5v160M69.5 39.5v160M79.5 39.5v160M89.5 39.5v160M99.5 39.5v160M109.5 39.5v160M119.5 39.5v160M129.5 39.5v160M139.5 39.5v160M149.5 39.5v160M159.5 39.5v160M169.5 39.5v160M179.5 39.5v160M189.5 39.5v160M199.5 49.5h-160M199.5 59.5h-160M199.5 69.5h-160M199.5 79.5h-160M199.5 89.5h-160M199.5 99.5h-160M199.5 109.5h-160M199.5 119.5h-160M199.5 129.5h-160M199.5 139.5h-160M199.5 149.5h-160M199.5 159.5h-160M199.5 169.5h-160M199.5 179.5h-160M199.5 189.5h-160"/></g></g><g stroke="#DFDFDF"><path d="M239.5 39.5h160v160h-160z"/><g stroke-linecap="square"><path d="M249.5 39.5v160M259.5 39.5v160M269.5 39.5v160M279.5 39.5v160M289.5 39.5v160M299.5 39.5v160M309.5 39.5v160M319.5 39.5v160M329.5 39.5v160M339.5 39.5v160M349.5 39.5v160M359.5 39.5v160M369.5 39.5v160M379.5 39.5v160M389.5 39.5v160M399.5 49.5h-160M399.5 59.5h-160M399.5 69.5h-160M399.5 79.5h-160M399.5 89.5h-160M399.5 99.5h-160M399.5 109.5h-160M399.5 119.5h-160M399.5 129.5h-160M399.5 139.5h-160M399.5 149.5h-160M399.5 159.5h-160M399.5 169.5h-160M399.5 179.5h-160M399.5 189.5h-160"/></g></g><g stroke="#DFDFDF"><path d="M439.5 39.5h160v160h-160z"/><g stroke-linecap="square"><path d="M449.5 39.5v160M459.5 39.5v160M469.5 39.5v160M479.5 39.5v160M489.5 39.5v160M499.5 39.5v160M509.5 39.5v160M519.5 39.5v160M529.5 39.5v160M539.5 39.5v160M549.5 39.5v160M559.5 39.5v160M569.5 39.5v160M579.5 39.5v160M589.5 39.5v160M599.5 49.5h-160M599.5 59.5h-160M599.5 69.5h-160M599.5 79.5h-160M599.5 89.5h-160M599.5 99.5h-160M599.5 109.5h-160M599.5 119.5h-160M599.5 129.5h-160M599.5 139.5h-160M599.5 149.5h-160M599.5 159.5h-160M599.5 169.5h-160M599.5 179.5h-160M599.5 189.5h-160"/></g></g><g stroke="#DFDFDF"><path d="M639.5 39.5h160v160h-160z"/><g stroke-linecap="square"><path d="M649.5 39.5v160M659.5 39.5v160M669.5 39.5v160M679.5 39.5v160M689.5 39.5v160M699.5 39.5v160M709.5 39.5v160M719.5 39.5v160M729.5 39.5v160M739.5 39.5v160M749.5 39.5v160M759.5 39.5v160M769.5 39.5v160M779.5 39.5v160M789.5 39.5v160M799.5 49.5h-160M799.5 59.5h-160M799.5 69.5h-160M799.5 79.5h-160M799.5 89.5h-160M799.5 99.5h-160M799.5 109.5h-160M799.5 119.5h-160M799.5 129.5h-160M799.5 139.5h-160M799.5 149.5h-160M799.5 159.5h-160M799.5 169.5h-160M799.5 179.5h-160M799.5 189.5h-160"/></g></g><path d="M40 40l160 160M200 40L40 200" stroke="#6E49CB"/><path d="M119.5 199.5c44.183 0 80-35.817 80-80s-35.817-80-80-80-80 35.817-80 80 35.817 80 80 80zm0-20c-33.137 0-60-26.863-60-60s26.863-60 60-60 60 26.863 60 60-26.863 60-60 60z" stroke="#6E49CB" fill-opacity=".3" fill="#6E49CB"/><path d="M240 40l160 160M400 40L240 200" stroke="#6E49CB"/><path d="M269 49.5c-10.77 0-19.5 8.73-19.5 19.5v101c0 10.77 8.73 19.5 19.5 19.5h101c10.77 0 19.5-8.73 19.5-19.5V69c0-10.77-8.73-19.5-19.5-19.5H269zm.5 20h100v100h-100v-100z" stroke="#6E49CB" fill-opacity=".3" fill="#6E49CB"/><path d="M440 40l160 160M600 40L440 200" stroke="#6E49CB"/><path d="M479 39.5c-10.77 0-19.5 8.73-19.5 19.5v121c0 10.77 8.73 19.5 19.5 19.5h81c10.77 0 19.5-8.73 19.5-19.5V59c0-10.77-8.73-19.5-19.5-19.5h-81zm.5 20h80v120h-80v-120z" stroke="#6E49CB" fill-opacity=".3" fill="#6E49CB"/><path d="M640 40l160 160M800 40L640 200" stroke="#6E49CB"/><path d="M799.5 83.2c0-13.095-10.08-23.7-22.5-23.7H662c-12.42 0-22.5 10.605-22.5 23.7v72.6c0 13.095 10.08 23.7 22.5 23.7h115c12.42 0 22.5-10.605 22.5-23.7V83.2zm-20 0v72.6c0 2.047-1.18 3.7-2.5 3.7H662c-1.32 0-2.5-1.653-2.5-3.7V83.2c0-2.047 1.18-3.7 2.5-3.7h115c1.32 0 2.5 1.653 2.5 3.7z" stroke="#6E49CB" fill-opacity=".3" fill="#6E49CB"/></g></svg>