<svg width="240" height="240" xmlns="http://www.w3.org/2000/svg"><g fill="none" fill-rule="evenodd"><path fill="#FFF" d="M0 0h240v240H0z"/><g stroke="#DFDFDF"><path d="M39.5 39.5h160v160h-160z"/><g stroke-linecap="square"><path d="M49.5 39.5v160M59.5 39.5v160M69.5 39.5v160M79.5 39.5v160M89.5 39.5v160M99.5 39.5v160M109.5 39.5v160M119.5 39.5v160M129.5 39.5v160M139.5 39.5v160M149.5 39.5v160M159.5 39.5v160M169.5 39.5v160M179.5 39.5v160M189.5 39.5v160M199.5 49.5h-160M199.5 59.5h-160M199.5 69.5h-160M199.5 79.5h-160M199.5 89.5h-160M199.5 99.5h-160M199.5 109.5h-160M199.5 119.5h-160M199.5 129.5h-160M199.5 139.5h-160M199.5 149.5h-160M199.5 159.5h-160M199.5 169.5h-160M199.5 179.5h-160M199.5 189.5h-160"/></g></g><path d="M117.002 104.4a9.5 9.5 0 0 0-13.909 12.943l22.447 24.123c3.758 4.037 10.152 4.037 13.914-.006l47.928-49.917a9.5 9.5 0 1 0-13.915-12.935l-40.98 42.435-15.485-16.643zm43.183-54.9H69c-10.77 0-19.499 8.73-19.499 19.499v79.35a19.497 19.497 0 0 0 9.859 16.948l51 28.424a19.499 19.499 0 0 0 19.273 0l49.997-28.422a19.499 19.499 0 0 0 9.862-16.95v-18.463a9.5 9.5 0 0 0-9.5-9.5c-5.45 0-10.499 4.437-10.499 9.5v18.75l-49.494 28.71-50.5-28.707V69.5h90.687c5.063 0 9.5-5.05 9.5-10.5a9.5 9.5 0 0 0-9.5-9.499z" stroke="#6E49CB" fill-opacity=".3" fill="#6E49CB"/><path d="M210.526 135.996l-90.454 52.223M209.874 56.338l-80.265 80.266" stroke="#FC6D26"/><path d="M211.465 51.54v-.76l3.821-5.715h1.285v5.544h1.224v.93h-1.224V54h-1.087v-2.46h-4.02zm1.217-.93h2.802v-2.585c0-.35.023-.925.069-1.722h-.055c-.04.077-.285.496-.731 1.258l-2.085 3.048zm5.69 2.337l.561-.752c.314.315.65.563 1.005.745.355.183.772.274 1.25.274.561 0 1.028-.188 1.402-.564.374-.376.56-.87.56-1.48s-.172-1.09-.519-1.436c-.346-.346-.809-.52-1.387-.52-.288 0-.54.043-.756.127a4.457 4.457 0 0 0-.769.414l-.615-.39.294-4.3h4.464v.998h-3.46l-.239 2.646a2.856 2.856 0 0 1 1.374-.362c.812 0 1.477.236 1.997.707.52.472.779 1.168.779 2.089 0 .469-.084.897-.253 1.285a2.715 2.715 0 0 1-.673.957 3.15 3.15 0 0 1-2.088.786c-1.136 0-2.11-.408-2.927-1.224zm6.867-4.922c0-.724.205-1.3.615-1.73.41-.427.916-.642 1.518-.642.597 0 1.1.215 1.51.643.41.428.616 1.005.616 1.73 0 .72-.205 1.294-.616 1.722a2.01 2.01 0 0 1-1.51.643 2.018 2.018 0 0 1-1.518-.643c-.41-.428-.615-1.003-.615-1.723zm.882 0c0 .493.113.89.338 1.193.226.303.53.455.913.455s.683-.15.902-.451c.219-.301.328-.7.328-1.197 0-.5-.11-.902-.328-1.203-.219-.3-.52-.45-.902-.45-.383 0-.687.15-.913.45-.225.301-.338.702-.338 1.203zM211.896 128.871c0-.697.061-1.327.184-1.89s.29-1.033.503-1.412c.211-.378.463-.694.755-.946.292-.253.6-.437.926-.55.326-.115.671-.172 1.036-.172.848 0 1.565.317 2.153.95l-.642.718a1.963 1.963 0 0 0-.663-.516 1.836 1.836 0 0 0-.807-.188c-.324 0-.62.067-.889.202a2.137 2.137 0 0 0-.731.629c-.219.285-.392.679-.52 1.182-.127.504-.198 1.098-.212 1.781.283-.342.611-.614.985-.817.373-.203.74-.304 1.1-.304.789 0 1.41.236 1.866.708.456.471.684 1.156.684 2.054 0 .838-.256 1.526-.769 2.064a2.494 2.494 0 0 1-1.876.807c-.912 0-1.654-.37-2.226-1.11-.571-.742-.857-1.804-.857-3.19zm1.12.711c.069.866.27 1.528.606 1.986.335.458.787.687 1.357.687.446 0 .816-.181 1.11-.544.294-.362.441-.832.441-1.411 0-.597-.139-1.062-.417-1.395-.278-.332-.688-.499-1.23-.499-.3 0-.617.097-.947.29-.33.194-.637.49-.92.886zm5.623-1.073c0-1.481.252-2.62.755-3.415.504-.795 1.21-1.193 2.116-1.193.898 0 1.599.398 2.102 1.193.504.795.756 1.934.756 3.415 0 1.485-.252 2.634-.756 3.445-.503.811-1.204 1.217-2.102 1.217-.902 0-1.606-.406-2.112-1.217s-.759-1.96-.759-3.445zm1.58-2.79c-.306.598-.459 1.527-.459 2.79 0 1.262.155 2.2.465 2.813.31.613.738.92 1.285.92.542 0 .967-.307 1.275-.92.308-.613.461-1.55.461-2.813 0-1.258-.152-2.187-.458-2.786-.305-.6-.731-.899-1.278-.899-.551 0-.982.299-1.292.896zm5.02 1.306c0-.724.205-1.3.615-1.73.41-.427.916-.642 1.518-.642.597 0 1.1.215 1.51.643.41.428.616 1.005.616 1.73 0 .72-.205 1.294-.616 1.722a2.01 2.01 0 0 1-1.51.643 2.018 2.018 0 0 1-1.518-.643c-.41-.428-.615-1.003-.615-1.723zm.882 0c0 .493.113.89.338 1.193.226.303.53.455.913.455s.683-.15.902-.451c.219-.301.328-.7.328-1.197 0-.5-.11-.902-.328-1.203-.219-.3-.52-.45-.902-.45-.383 0-.687.15-.913.45-.225.301-.338.702-.338 1.203z" fill="#380D75" fill-rule="nonzero"/></g></svg>