<svg width="240" height="240" viewBox="0 0 240 240" xmlns="http://www.w3.org/2000/svg"><g fill="none" fill-rule="evenodd"><path fill="#FFF" d="M0 0h240v240H0z"/><g stroke="#DFDFDF"><path d="M39.5 39.5h160v160h-160z"/><g stroke-linecap="square"><path d="M49.5 39.5v160M59.5 39.5v160M69.5 39.5v160M79.5 39.5v160M89.5 39.5v160M99.5 39.5v160M109.5 39.5v160M119.5 39.5v160M129.5 39.5v160M139.5 39.5v160M149.5 39.5v160M159.5 39.5v160M169.5 39.5v160M179.5 39.5v160M189.5 39.5v160M199.5 49.5h-160M199.5 59.5h-160M199.5 69.5h-160M199.5 79.5h-160M199.5 89.5h-160M199.5 99.5h-160M199.5 109.5h-160M199.5 119.5h-160M199.5 129.5h-160M199.5 139.5h-160M199.5 149.5h-160M199.5 159.5h-160M199.5 169.5h-160M199.5 179.5h-160M199.5 189.5h-160"/></g></g><g transform="translate(201 19)"><circle fill="#17AA55" cx="10" cy="10" r="10"/><path stroke="#FFF" stroke-width="2" stroke-linecap="round" d="M6 10.069l2.98 2.98L15.03 7"/></g><path d="M49.5 60.398v46.859a70 70 0 0 0 24.423 53.13l45.577 39.097 45.577-39.097a70 70 0 0 0 24.423-53.13V60.398l-70-20.876-70 20.876zm20 46.84v-32.59l50-15.17 50 15.17v32.59c0 14.837-6.37 28.935-17.442 38.597L119.5 174.248l-32.558-28.413C75.87 136.173 69.5 122.075 69.5 107.237zm20-17.88v17.005c0 8.57 3.853 16.716 10.558 22.32L119.5 144.93V79.687l-30 9.672z" stroke="#6E49CB" fill-opacity=".3" fill="#6E49CB"/></g></svg>