<svg width="240" height="240" viewBox="0 0 240 240" fill="none" xmlns="http://www.w3.org/2000/svg"><path fill="#fff" d="M0 0h240v240H0z"/><path stroke="#DFDFDF" d="M39 40h160v160H39z"/><path d="M49 40v160M59 40v160M69 40v160M79 40v160M89 40v160M99 40v160m10-160v160m10-160v160m10-160v160m10-160v160m10-160v160m10-160v160m10-160v160m10-160v160m10-160v160m10-150H39m160 10H39m160 10H39m160 10H39m160 10H39m160 10H39m160 10H39m160 10H39m160 10H39m160 10H39m160 10H39m160 10H39m160 10H39m160 10H39m160 10H39" stroke="#DFDFDF" stroke-linecap="square"/><path d="M39 90c0-16.569 13.431-30 30-30v30H39Z" fill="#FC6D26" fill-opacity=".504"/><path d="M109 159.5h-.207l-.147.146L69.5 198.793V159.5H69c-16.292 0-29.5-13.208-29.5-29.5V90c0-16.292 13.208-29.5 29.5-29.5h100c16.292 0 29.5 13.208 29.5 29.5v40c0 16.292-13.208 29.5-29.5 29.5h-60Zm-25.5 4.287v1.207l.854-.854 18.64-18.64H169c8.56 0 15.5-6.94 15.5-15.5V90c0-8.56-6.94-15.5-15.5-15.5H69c-8.56 0-15.5 6.94-15.5 15.5v40c0 8.56 6.94 15.5 15.5 15.5h14.5v18.287Z" fill="#6E49CB" fill-opacity=".3" stroke="#6E49CB"/><path fill="#FC6D26" fill-opacity=".499" stroke="#DB3B21" d="M69.5 145.5h14v14h-14z"/><path d="M98.5 90c0 16.292-13.208 29.5-29.5 29.5S39.5 106.292 39.5 90 52.708 60.5 69 60.5 98.5 73.708 98.5 90Z" stroke="#DB3B21"/><path d="M18.132 93.12c-.585 0-1.108-.102-1.568-.303a2.662 2.662 0 0 1-1.087-.84 2.229 2.229 0 0 1-.426-1.253h1.338c.017.259.104.483.26.674.159.187.366.332.622.434.256.103.54.154.852.154.344 0 .648-.06.912-.18a1.49 1.49 0 0 0 .627-.498c.15-.216.225-.464.225-.746 0-.292-.075-.55-.225-.77a1.472 1.472 0 0 0-.652-.53c-.285-.127-.628-.191-1.032-.191h-.737v-1.074h.737c.324 0 .608-.058.853-.175.247-.116.44-.278.58-.485.138-.21.208-.456.208-.738 0-.27-.061-.504-.183-.703a1.23 1.23 0 0 0-.512-.473 1.662 1.662 0 0 0-.775-.17c-.284 0-.55.052-.797.157a1.48 1.48 0 0 0-.597.444 1.14 1.14 0 0 0-.247.686h-1.274c.014-.472.153-.887.418-1.245a2.7 2.7 0 0 1 1.057-.839 3.44 3.44 0 0 1 1.457-.303c.56 0 1.043.11 1.449.328.409.216.724.505.946.866.224.36.335.755.332 1.184.003.489-.133.904-.409 1.245-.273.34-.636.57-1.09.686v.068c.579.088 1.028.318 1.346.69.32.372.48.834.477 1.385.003.48-.13.91-.4 1.291-.268.381-.633.68-1.096.9-.463.215-.993.323-1.59.323Zm4.713 2.334v-9h1.244v1.062h.107a3.56 3.56 0 0 1 .32-.473 1.8 1.8 0 0 1 .579-.47c.247-.135.574-.204.98-.204.528 0 1 .134 1.415.4.415.268.74.653.976 1.156.238.503.357 1.108.357 1.815 0 .707-.117 1.314-.353 1.82-.236.502-.56.89-.972 1.163-.412.27-.882.405-1.41.405-.398 0-.723-.067-.976-.2a1.847 1.847 0 0 1-.588-.47 3.544 3.544 0 0 1-.328-.477h-.077v3.474h-1.274Zm1.248-5.727c0 .46.067.864.2 1.21.134.347.327.618.58.814.253.194.563.29.93.29.38 0 .698-.1.954-.302.255-.205.449-.482.58-.831a3.3 3.3 0 0 0 .2-1.18c0-.432-.066-.82-.196-1.164a1.782 1.782 0 0 0-.58-.814c-.256-.199-.575-.298-.959-.298-.37 0-.682.095-.937.285-.253.19-.445.456-.576.797a3.34 3.34 0 0 0-.196 1.193Zm6.906-3.273 1.445 2.549 1.457-2.549h1.393l-2.04 3.273L35.31 93h-1.393l-1.474-2.446L30.974 93h-1.398l2.037-3.273-2.012-3.273H31Zm-12.873 72.691c-.673-.003-1.249-.181-1.726-.533-.477-.352-.842-.865-1.095-1.538s-.38-1.485-.38-2.433c0-.946.127-1.755.38-2.425.255-.671.622-1.182 1.1-1.534.48-.352 1.053-.529 1.72-.529.669 0 1.24.178 1.718.533.477.352.843.864 1.095 1.534.256.668.384 1.475.384 2.421 0 .951-.127 1.764-.38 2.437-.252.671-.617 1.183-1.095 1.538-.477.353-1.05.529-1.721.529Zm0-1.138c.59 0 1.052-.288 1.385-.865.335-.577.503-1.41.503-2.501 0-.725-.077-1.337-.23-1.837-.151-.503-.368-.884-.652-1.142a1.428 1.428 0 0 0-1.006-.392c-.588 0-1.05.29-1.385.869-.335.58-.504 1.414-.507 2.502 0 .727.075 1.342.226 1.845.153.5.37.879.652 1.138.28.255.619.383 1.014.383Zm4.724 3.448v-9h1.245v1.061h.107c.073-.137.18-.294.32-.473.138-.179.332-.336.579-.469.247-.136.573-.205.98-.205.528 0 1 .134 1.415.401.414.267.74.652.975 1.155.239.503.358 1.108.358 1.815 0 .707-.117 1.314-.353 1.82-.236.503-.56.89-.972 1.163-.412.27-.882.405-1.41.405-.398 0-.723-.067-.976-.2a1.854 1.854 0 0 1-.588-.469 3.565 3.565 0 0 1-.329-.477h-.076v3.473H22.85Zm1.25-5.728c0 .461.066.864.2 1.211.133.346.326.617.58.813.252.194.562.29.928.29.38 0 .699-.101.955-.302a1.9 1.9 0 0 0 .58-.831c.133-.35.2-.743.2-1.181 0-.432-.066-.819-.197-1.163a1.78 1.78 0 0 0-.58-.814c-.255-.199-.574-.298-.958-.298-.37 0-.682.095-.937.285a1.756 1.756 0 0 0-.576.797 3.34 3.34 0 0 0-.196 1.193Zm6.905-3.272 1.444 2.548 1.458-2.548H35.3l-2.04 3.272L35.316 159h-1.393l-1.475-2.446L30.98 159h-1.398l2.037-3.273-2.01-3.272h1.397Z" fill="#380D75"/></svg>