<svg width="240" height="240" xmlns="http://www.w3.org/2000/svg"><g fill="none" fill-rule="evenodd"><path fill="#FFF" d="M0 0h240v240H0z"/><g stroke="#DFDFDF"><path d="M39.5 39.5h160v160h-160z"/><g stroke-linecap="square"><path d="M49.5 39.5v160M59.5 39.5v160M69.5 39.5v160M79.5 39.5v160M89.5 39.5v160M99.5 39.5v160M109.5 39.5v160M119.5 39.5v160M129.5 39.5v160M139.5 39.5v160M149.5 39.5v160M159.5 39.5v160M169.5 39.5v160M179.5 39.5v160M189.5 39.5v160M199.5 49.5h-160M199.5 59.5h-160M199.5 69.5h-160M199.5 79.5h-160M199.5 89.5h-160M199.5 99.5h-160M199.5 109.5h-160M199.5 119.5h-160M199.5 129.5h-160M199.5 139.5h-160M199.5 149.5h-160M199.5 159.5h-160M199.5 169.5h-160M199.5 179.5h-160M199.5 189.5h-160"/></g></g><path d="M49.5 189.5h80v-60.167c0-16.476-13.375-29.833-29.875-29.833h-20.25c-16.5 0-29.875 13.357-29.875 29.833V189.5zm60-20h-40v-39.7c0-5.688 4.589-10.3 10.25-10.3h19.5c5.661 0 10.25 4.612 10.25 10.3v39.7zm30 0v20h50V129c0-16.292-13.208-29.5-29.5-29.5h-20.5v20H159c5.799 0 10.5 4.701 10.5 10.5v39.5h-30zm-50-80c11.046 0 20-8.954 20-20s-8.954-20-20-20-20 8.954-20 20 8.954 20 20 20zm60 0c11.046 0 20-8.954 20-20s-8.954-20-20-20-20 8.954-20 20 8.954 20 20 20z" stroke="#6E49CB" fill-opacity=".3" fill="#6E49CB"/><path stroke="#DB3B21" fill-opacity=".499" fill="#FC6D26" d="M49.5 169.5h20v20h-20z"/><path d="M16.61 121.54v-.76l3.822-5.715h1.285v5.544h1.223v.93h-1.223V124H20.63v-2.46h-4.02zm1.217-.93h2.803v-2.585c0-.35.023-.925.068-1.722h-.054c-.041.077-.285.496-.732 1.258l-2.085 3.048zm6.49 6.261v-9.673h.95l.103.78h.041c.752-.634 1.475-.95 2.167-.95.862 0 1.525.31 1.99.929.465.62.697 1.467.697 2.543 0 .56-.08 1.076-.24 1.545-.159.47-.374.857-.645 1.162a2.937 2.937 0 0 1-.937.711 2.562 2.562 0 0 1-1.117.253c-.588 0-1.217-.262-1.887-.786l.027 1.19v2.296h-1.148zm1.15-4.382c.56.474 1.116.711 1.667.711.57 0 1.036-.244 1.398-.731.362-.488.544-1.144.544-1.969 0-.788-.145-1.404-.435-1.846-.289-.442-.741-.663-1.356-.663-.525 0-1.13.31-1.819.93v3.568zM30.74 124l2.222-3.555-2.058-3.247h1.25l.91 1.497c.397.675.62 1.053.67 1.135h.055c.296-.56.501-.939.615-1.135l.827-1.497h1.203l-2.057 3.37L36.59 124h-1.25l-.992-1.58a46.356 46.356 0 0 0-.738-1.223h-.062c-.123.196-.35.604-.683 1.224L31.943 124H30.74zM16.986 179.509c0-1.481.252-2.62.756-3.415.503-.795 1.209-1.193 2.115-1.193.898 0 1.599.398 2.103 1.193.503.795.755 1.934.755 3.415 0 1.485-.252 2.634-.755 3.445-.504.811-1.205 1.217-2.103 1.217-.902 0-1.606-.406-2.112-1.217s-.759-1.96-.759-3.445zm1.58-2.79c-.306.598-.459 1.527-.459 2.79 0 1.262.155 2.2.465 2.813.31.613.739.92 1.285.92.543 0 .968-.307 1.275-.92.308-.613.462-1.55.462-2.813 0-1.258-.153-2.187-.458-2.786-.306-.6-.732-.899-1.279-.899-.551 0-.982.299-1.292.896zm5.752 10.152v-9.673h.95l.102.78h.041c.752-.634 1.475-.95 2.167-.95.862 0 1.525.31 1.99.929.465.62.697 1.467.697 2.543 0 .56-.08 1.076-.24 1.545-.159.47-.374.857-.645 1.162a2.937 2.937 0 0 1-.937.711 2.562 2.562 0 0 1-1.117.253c-.588 0-1.217-.262-1.887-.786l.027 1.19v2.296h-1.148zm1.148-4.382c.56.474 1.117.711 1.668.711.57 0 1.036-.244 1.398-.731.362-.488.544-1.144.544-1.969 0-.788-.145-1.404-.435-1.846-.289-.442-.741-.663-1.356-.663-.525 0-1.13.31-1.819.93v3.568zM30.74 184l2.222-3.555-2.058-3.247h1.25l.91 1.497c.397.675.62 1.053.67 1.135h.055c.296-.56.501-.939.615-1.135l.827-1.497h1.203l-2.057 3.37L36.59 184h-1.25l-.992-1.58a46.356 46.356 0 0 0-.738-1.223h-.062c-.123.196-.35.604-.683 1.224L31.943 184H30.74z" fill="#380D75" fill-rule="nonzero"/><path d="M80 99v31H49c0-17.12 13.88-31 31-31z" fill-opacity=".504" fill="#FC6D26"/><circle stroke="#DB3B21" cx="79" cy="129" r="29.5"/></g></svg>