<svg width="240" height="240" viewBox="0 0 240 240" fill="none" xmlns="http://www.w3.org/2000/svg"><path fill="#fff" d="M0 0h240v240H0z"/><path stroke="#DFDFDF" d="M39.5 39.5h160v160h-160z"/><path d="M49.5 39.5v160m10-160v160m10-160v160m10-160v160m10-160v160m10-160v160m10-160v160m10-160v160m10-160v160m10-160v160m10-160v160m10-160v160m10-160v160m10-160v160m10-160v160m10-150h-160m160 10h-160m160 10h-160m160 10h-160m160 10h-160m160 10h-160m160 10h-160m160 10h-160m160 10h-160m160 10h-160m160 10h-160m160 10h-160m160 10h-160m160 10h-160m160 10h-160" stroke="#DFDFDF" stroke-linecap="square"/><path fill-rule="evenodd" clip-rule="evenodd" d="M211 39c5.523 0 10-4.477 10-10s-4.477-10-10-10-10 4.477-10 10 4.477 10 10 10Z" fill="#17AA55"/><path d="m207 29.069 2.981 2.98 6.05-6.049" stroke="#fff" stroke-width="2" stroke-linecap="round"/><path d="m167.411 85.005.76-.434-.76-.434-45.165-25.803a5.535 5.535 0 0 0-5.492 0L71.589 84.136l-.76.434.76.434 47.663 27.231.248.141.248-.141 47.663-27.23ZM64.355 97.117l-.748-.428v52.402a5.534 5.534 0 0 0 2.79 4.805l45.301 25.882.748.428v-55.614l-.252-.144-47.839-27.331Zm62.199 82.227v.862l.748-.428 45.302-25.882a5.535 5.535 0 0 0 2.789-4.805V96.689l-.748.428-47.839 27.331-.252.144v54.752Zm-16.8-133.256a19.648 19.648 0 0 1 19.492 0l50.357 28.77a19.639 19.639 0 0 1 9.897 17.051v57.182a19.638 19.638 0 0 1-9.897 17.051l-50.357 28.77a19.643 19.643 0 0 1-19.492 0l-50.357-28.77a19.638 19.638 0 0 1-9.897-17.051V91.909a19.639 19.639 0 0 1 9.897-17.051l50.357-28.77Z" fill="#6E49CB" fill-opacity=".3" stroke="#6E49CB"/></svg>