<svg width="240" height="240" xmlns="http://www.w3.org/2000/svg"><g fill="none" fill-rule="evenodd"><path fill="#FFF" d="M0 0h240v240H0z"/><path d="M124.243 152L120 156.243 115.757 152H88a4 4 0 0 1-4-4v-24a4 4 0 0 1 4-4h64a4 4 0 0 1 4 4v24a4 4 0 0 1-4 4h-27.757z" fill="#000"/><path d="M103.566 139.932c-.336.448-.752.77-1.248.966a4.052 4.052 0 0 1-1.5.294c-.64 0-1.212-.118-1.716-.354a3.878 3.878 0 0 1-1.284-.954c-.352-.4-.62-.86-.804-1.38a4.82 4.82 0 0 1-.276-1.62c0-.624.086-1.218.258-1.782a4.387 4.387 0 0 1 .768-1.482c.34-.424.764-.762 1.272-1.014s1.102-.378 1.782-.378c.464 0 .902.054 1.314.162.412.108.78.278 1.104.51.324.232.596.526.816.882.22.356.37.786.45 1.29h-1.14a2.242 2.242 0 0 0-.312-.846 2.008 2.008 0 0 0-.564-.582 2.493 2.493 0 0 0-.762-.342 3.492 3.492 0 0 0-.906-.114c-.52 0-.966.104-1.338.312a2.692 2.692 0 0 0-.912.822c-.236.34-.41.728-.522 1.164a5.356 5.356 0 0 0-.168 1.338c0 .448.064.878.192 1.29.128.412.316.776.564 1.092.248.316.554.568.918.756.364.188.786.282 1.266.282.448 0 .844-.072 1.188-.216.344-.144.634-.342.87-.594a2.5 2.5 0 0 0 .534-.888c.12-.34.172-.706.156-1.098h-2.736v-.96h3.756V141h-.72l-.3-1.068zm3.612-6.252h-1.02v-1.248h1.02v1.248zm-1.02 1.116h1.02V141h-1.02v-6.204zm4.02 0h1.236v.9h-1.236v3.852c0 .12.01.216.03.288.02.072.058.128.114.168.056.04.134.066.234.078.1.012.23.018.39.018h.468v.9h-.78c-.264 0-.49-.018-.678-.054a.996.996 0 0 1-.456-.198.846.846 0 0 1-.258-.408 2.357 2.357 0 0 1-.084-.696v-3.948h-1.056v-.9h1.056v-1.86h1.02v1.86zm5.868-2.364h1.14v3.684h4.512v-3.684h1.14V141h-1.14v-3.924h-4.512V141h-1.14v-8.568zm9.24 5.472c0 .376.05.71.15 1.002.1.292.238.536.414.732.176.196.382.346.618.45.236.104.486.156.75.156s.514-.052.75-.156c.236-.104.442-.254.618-.45s.314-.44.414-.732c.1-.292.15-.626.15-1.002s-.05-.71-.15-1.002a2.162 2.162 0 0 0-.414-.738 1.763 1.763 0 0 0-.618-.456 1.84 1.84 0 0 0-.75-.156 1.84 1.84 0 0 0-.75.156 1.763 1.763 0 0 0-.618.456c-.176.2-.314.446-.414.738-.1.292-.15.626-.15 1.002zm-1.08 0c0-.456.064-.882.192-1.278s.32-.74.576-1.032c.256-.292.572-.522.948-.69a3.148 3.148 0 0 1 1.296-.252c.496 0 .93.084 1.302.252.372.168.686.398.942.69.256.292.448.636.576 1.032.128.396.192.822.192 1.278 0 .456-.064.88-.192 1.272s-.32.734-.576 1.026c-.256.292-.57.52-.942.684-.372.164-.806.246-1.302.246-.488 0-.92-.082-1.296-.246a2.65 2.65 0 0 1-.948-.684 2.903 2.903 0 0 1-.576-1.026 4.075 4.075 0 0 1-.192-1.272zm7.968 0c0 .376.05.71.15 1.002.1.292.238.536.414.732.176.196.382.346.618.45.236.104.486.156.75.156s.514-.052.75-.156c.236-.104.442-.254.618-.45s.314-.44.414-.732c.1-.292.15-.626.15-1.002s-.05-.71-.15-1.002a2.162 2.162 0 0 0-.414-.738 1.763 1.763 0 0 0-.618-.456 1.84 1.84 0 0 0-.75-.156 1.84 1.84 0 0 0-.75.156 1.763 1.763 0 0 0-.618.456c-.176.2-.314.446-.414.738-.1.292-.15.626-.15 1.002zm-1.08 0c0-.456.064-.882.192-1.278s.32-.74.576-1.032c.256-.292.572-.522.948-.69a3.148 3.148 0 0 1 1.296-.252c.496 0 .93.084 1.302.252.372.168.686.398.942.69.256.292.448.636.576 1.032.128.396.192.822.192 1.278 0 .456-.064.88-.192 1.272s-.32.734-.576 1.026c-.256.292-.57.52-.942.684-.372.164-.806.246-1.302.246-.488 0-.92-.082-1.296-.246a2.65 2.65 0 0 1-.948-.684 2.903 2.903 0 0 1-.576-1.026 4.075 4.075 0 0 1-.192-1.272zm7.284-5.472h1.02v5.076l2.832-2.712h1.368l-2.46 2.256 2.64 3.948h-1.296l-2.124-3.24-.96.888V141h-1.02v-8.568z" fill="#FFF" fill-rule="nonzero"/><path d="M128 163v5.5a4.5 4.5 0 0 1-8 2.829 4.5 4.5 0 0 1-8-2.829V163l5 5h-3v.5a2.5 2.5 0 1 0 5 0V166h-1a2 2 0 0 1-2-2v-4a2 2 0 0 1 2-2h4a2 2 0 0 1 2 2v4a2 2 0 0 1-2 2h-1v2.5a2.5 2.5 0 1 0 5 0v-.5h-3l5-5zm-6-2v-1h-4v1h4zm0 2h-4v1h4v-1z" fill="#707070" fill-rule="nonzero"/><g><path d="M81 81v5.5a4.5 4.5 0 0 1-8 2.829 4.5 4.5 0 0 1-8-2.829V81l5 5h-3v.5a2.5 2.5 0 1 0 5 0V84h-1a2 2 0 0 1-2-2v-4a2 2 0 0 1 2-2h4a2 2 0 0 1 2 2v4a2 2 0 0 1-2 2h-1v2.5a2.5 2.5 0 1 0 5 0V86h-3l5-5zm-6-2v-1h-4v1h4zm0 2h-4v1h4v-1z" fill="#707070" fill-rule="nonzero"/><text font-family="HelveticaNeue, Helvetica Neue" font-size="14" fill="#2E2E2E" transform="translate(65 75)"><tspan x="24" y="13">Add Git Hook</tspan></text></g><g transform="translate(201 19)"><circle fill="#17AA55" cx="10" cy="10" r="10"/><path stroke="#FFF" stroke-width="2" stroke-linecap="round" d="M6 10.069l2.98 2.98L15.03 7"/></g></g></svg>