<svg width="240" height="240" xmlns="http://www.w3.org/2000/svg"><g fill="none" fill-rule="evenodd"><path fill="#FFF" d="M0 0h240v240H0z"/><path stroke="#6E49CB" fill-opacity=".3" fill="#6E49CB" d="M112.5 112.5h15v15h-15z"/><path d="M114.31 165v-.95h2.043v-6.583h-1.627v-.738c.725-.124 1.356-.345 1.894-.664h.882v7.985h1.845v.95h-5.038zm6.36-4.129c0-.697.061-1.327.184-1.89.124-.563.291-1.033.503-1.412.212-.378.464-.694.755-.946.292-.253.6-.437.927-.55.325-.115.67-.172 1.035-.172.848 0 1.566.317 2.154.95l-.643.718a1.963 1.963 0 0 0-.663-.516 1.836 1.836 0 0 0-.807-.188c-.323 0-.62.067-.888.202a2.137 2.137 0 0 0-.732.629c-.219.285-.392.679-.52 1.182-.127.504-.198 1.098-.211 1.781.282-.342.61-.614.984-.817.374-.203.74-.304 1.1-.304.789 0 1.411.236 1.867.708.456.471.683 1.156.683 2.054 0 .838-.256 1.526-.769 2.064a2.494 2.494 0 0 1-1.876.807c-.912 0-1.653-.37-2.225-1.11-.572-.742-.858-1.804-.858-3.19zm1.121.711c.068.866.27 1.528.605 1.986.335.458.787.687 1.357.687.447 0 .817-.181 1.11-.544.295-.362.442-.832.442-1.411 0-.597-.14-1.062-.417-1.395-.278-.332-.688-.499-1.23-.499-.302 0-.617.097-.948.29-.33.194-.636.49-.919.886zM154.31 125v-.95h2.043v-6.583h-1.627v-.738c.725-.124 1.356-.345 1.894-.664h.882v7.985h1.845v.95h-5.038zm6.36-4.129c0-.697.061-1.327.184-1.89.124-.563.291-1.033.503-1.412.212-.378.464-.694.755-.946.292-.253.6-.437.927-.55.325-.115.67-.172 1.035-.172.848 0 1.566.317 2.154.95l-.643.718a1.963 1.963 0 0 0-.663-.516 1.836 1.836 0 0 0-.807-.188c-.323 0-.62.067-.888.202a2.137 2.137 0 0 0-.732.629c-.219.285-.392.679-.52 1.182-.127.504-.198 1.098-.211 1.781.282-.342.61-.614.984-.817.374-.203.74-.304 1.1-.304.789 0 1.411.236 1.867.708.456.471.683 1.156.683 2.054 0 .838-.256 1.526-.769 2.064a2.494 2.494 0 0 1-1.876.807c-.912 0-1.653-.37-2.225-1.11-.572-.742-.858-1.804-.858-3.19zm1.121.711c.068.866.27 1.528.605 1.986.335.458.787.687 1.357.687.447 0 .817-.181 1.11-.544.295-.362.442-.832.442-1.411 0-.597-.14-1.062-.417-1.395-.278-.332-.688-.499-1.23-.499-.302 0-.617.097-.948.29-.33.194-.636.49-.919.886z" fill="#380D75" fill-rule="nonzero"/><path fill="#FC6D26" fill-rule="nonzero" d="M113 144h14v-3h1v7h-1v-3h-14v3h-1v-7h1zM144 127v-14h-3v-1h7v1h-3v14h3v1h-7v-1z"/><path d="M112.5 128v13M128 127.5h13M127.5 128v13M128 112.5h13" stroke-opacity=".5" stroke="#FCA121"/></g></svg>