<svg width="240" height="240" viewBox="0 0 240 240" xmlns="http://www.w3.org/2000/svg"><g fill="none" fill-rule="evenodd"><path fill="#FFF" d="M0 0h240v240H0z"/><g stroke="#DFDFDF"><path d="M39.5 39.5h160v160h-160z"/><g stroke-linecap="square"><path d="M49.5 39.5v160M59.5 39.5v160M69.5 39.5v160M79.5 39.5v160M89.5 39.5v160M99.5 39.5v160M109.5 39.5v160M119.5 39.5v160M129.5 39.5v160M139.5 39.5v160M149.5 39.5v160M159.5 39.5v160M169.5 39.5v160M179.5 39.5v160M189.5 39.5v160M199.5 49.5h-160M199.5 59.5h-160M199.5 69.5h-160M199.5 79.5h-160M199.5 89.5h-160M199.5 99.5h-160M199.5 109.5h-160M199.5 119.5h-160M199.5 129.5h-160M199.5 139.5h-160M199.5 149.5h-160M199.5 159.5h-160M199.5 169.5h-160M199.5 179.5h-160M199.5 189.5h-160"/></g></g><g transform="translate(201 19)"><circle fill="#DB3B21" cx="10" cy="10" r="10"/><path d="M13 7l-6 6.002M7 7l6 6.002" stroke="#FFF" stroke-width="2" stroke-linecap="round"/></g><path d="M133.122 192.364l27.233-22.693a81 81 0 0 0 29.145-62.226v-29.99a20 20 0 0 0-11.365-18.04c-19.545-9.354-39.09-14.032-58.635-14.032-19.545 0-39.09 4.678-58.635 14.033A20 20 0 0 0 49.5 77.456v29.294a81 81 0 0 0 30.022 62.947l28.21 22.845a20 20 0 0 0 25.39-.178zm-41.013-38.21A61 61 0 0 1 69.5 106.75V77.456c16.917-8.098 33.527-12.073 50-12.073s33.083 3.975 50 12.073v29.989a61 61 0 0 1-21.949 46.861L120.32 177l-28.21-22.846z" stroke="#6E49CB" fill-opacity=".3" fill="#6E49CB"/><path d="M120 93.302v30.406a7.68 7.68 0 0 1-12.423 6.042l-.222-.174a41.075 41.075 0 0 1-15.028-24.826l-1.233-6.65a10 10 0 0 1 6.717-11.325l9.073-2.975c5.248-1.72 10.898 1.139 12.618 6.387a10 10 0 0 1 .498 3.115z" stroke="#6E49CB" fill-opacity=".3" fill="#6E49CB"/></g></svg>