<svg width="640" height="170" xmlns="http://www.w3.org/2000/svg"><g fill="none" fill-rule="evenodd"><path fill="#FFF" d="M0 0h640v170H0z"/><path d="M74.986 136.509c0-1.481.252-2.62.756-3.415.503-.795 1.209-1.193 2.115-1.193.898 0 1.599.398 2.103 1.193.503.795.755 1.934.755 3.415 0 1.485-.252 2.634-.755 3.445-.504.811-1.205 1.217-2.103 1.217-.902 0-1.606-.406-2.112-1.217s-.759-1.96-.759-3.445zm1.58-2.79c-.306.598-.459 1.527-.459 2.79 0 1.262.155 2.2.465 2.813.31.613.739.92 1.285.92.543 0 .968-.307 1.275-.92.308-.613.462-1.55.462-2.813 0-1.258-.153-2.187-.458-2.786-.306-.6-.732-.899-1.279-.899-.551 0-.982.299-1.292.896zm5.752 10.152v-9.673h.95l.102.78h.041c.752-.634 1.475-.95 2.167-.95.862 0 1.525.31 1.99.929.465.62.697 1.467.697 2.543 0 .56-.08 1.076-.24 1.545-.159.47-.374.857-.645 1.162a2.937 2.937 0 0 1-.937.711 2.562 2.562 0 0 1-1.117.253c-.588 0-1.217-.262-1.887-.786l.027 1.19v2.296h-1.148zm1.148-4.382c.56.474 1.117.711 1.668.711.57 0 1.036-.244 1.398-.731.362-.488.544-1.144.544-1.969 0-.788-.145-1.404-.435-1.846-.289-.442-.741-.663-1.356-.663-.525 0-1.13.31-1.819.93v3.568zM88.74 141l2.222-3.555-2.058-3.247h1.25l.91 1.497c.397.675.62 1.053.67 1.135h.055c.296-.56.501-.939.615-1.135l.827-1.497h1.203l-2.057 3.37L94.59 141h-1.25l-.992-1.58a46.356 46.356 0 0 0-.738-1.223h-.062c-.123.196-.35.604-.683 1.224L89.943 141H88.74zM170.479 141v-.95h2.044v-6.583h-1.627v-.738c.724-.124 1.355-.345 1.893-.664h.882v7.985h1.846v.95h-5.038zm6.839 2.871v-9.673h.95l.102.78h.041c.752-.634 1.475-.95 2.167-.95.862 0 1.525.31 1.99.929.465.62.697 1.467.697 2.543 0 .56-.08 1.076-.24 1.545-.159.47-.374.857-.645 1.162a2.937 2.937 0 0 1-.937.711 2.562 2.562 0 0 1-1.117.253c-.588 0-1.217-.262-1.887-.786l.027 1.19v2.296h-1.148zm1.148-4.382c.56.474 1.117.711 1.668.711.57 0 1.036-.244 1.398-.731.362-.488.544-1.144.544-1.969 0-.788-.145-1.404-.435-1.846-.289-.442-.741-.663-1.356-.663-.525 0-1.13.31-1.819.93v3.568zM183.74 141l2.222-3.555-2.058-3.247h1.25l.91 1.497c.397.675.62 1.053.67 1.135h.055c.296-.56.501-.939.615-1.135l.827-1.497h1.203l-2.057 3.37L189.59 141h-1.25l-.992-1.58a46.356 46.356 0 0 0-.738-1.223h-.062c-.123.196-.35.604-.683 1.224l-.923 1.579h-1.203zM357.61 138.54v-.76l3.822-5.715h1.285v5.544h1.223v.93h-1.223V141h-1.087v-2.46h-4.02zm1.217-.93h2.803v-2.585c0-.35.023-.925.068-1.722h-.054c-.041.077-.285.496-.732 1.258l-2.085 3.048zm6.49 6.261v-9.673h.95l.103.78h.041c.752-.634 1.475-.95 2.167-.95.862 0 1.525.31 1.99.929.465.62.697 1.467.697 2.543 0 .56-.08 1.076-.24 1.545-.159.47-.374.857-.645 1.162a2.937 2.937 0 0 1-.937.711 2.562 2.562 0 0 1-1.117.253c-.588 0-1.217-.262-1.887-.786l.027 1.19v2.296h-1.148zm1.15-4.382c.56.474 1.116.711 1.667.711.57 0 1.036-.244 1.398-.731.362-.488.544-1.144.544-1.969 0-.788-.145-1.404-.435-1.846-.289-.442-.741-.663-1.356-.663-.525 0-1.13.31-1.819.93v3.568zM371.74 141l2.222-3.555-2.058-3.247h1.25l.91 1.497c.397.675.62 1.053.67 1.135h.055c.296-.56.501-.939.615-1.135l.827-1.497h1.203l-2.057 3.37L377.59 141h-1.25l-.992-1.58a46.356 46.356 0 0 0-.738-1.223h-.062c-.123.196-.35.604-.683 1.224l-.923 1.579h-1.203zM542.721 141v-.95h2.044v-6.583h-1.627v-.738c.725-.124 1.356-.345 1.894-.664h.881v7.985h1.846v.95h-5.038zm6.306-4.491c0-1.481.252-2.62.755-3.415.504-.795 1.21-1.193 2.116-1.193.898 0 1.599.398 2.102 1.193.504.795.756 1.934.756 3.415 0 1.485-.252 2.634-.756 3.445-.503.811-1.204 1.217-2.102 1.217-.902 0-1.606-.406-2.112-1.217s-.759-1.96-.759-3.445zm1.58-2.79c-.306.598-.459 1.527-.459 2.79 0 1.262.155 2.2.465 2.813.31.613.738.92 1.285.92.542 0 .967-.307 1.275-.92.308-.613.461-1.55.461-2.813 0-1.258-.152-2.187-.458-2.786-.305-.6-.731-.899-1.278-.899-.551 0-.982.299-1.292.896zm5.218 2.79c0-1.481.252-2.62.756-3.415.503-.795 1.208-1.193 2.115-1.193.898 0 1.599.398 2.102 1.193.504.795.756 1.934.756 3.415 0 1.485-.252 2.634-.756 3.445-.503.811-1.204 1.217-2.102 1.217-.902 0-1.606-.406-2.112-1.217s-.759-1.96-.759-3.445zm1.58-2.79c-.306.598-.459 1.527-.459 2.79 0 1.262.155 2.2.465 2.813.31.613.738.92 1.285.92.543 0 .968-.307 1.275-.92.308-.613.462-1.55.462-2.813 0-1.258-.153-2.187-.458-2.786-.306-.6-.732-.899-1.279-.899-.551 0-.982.299-1.292.896zm5.656 2.954c-.374-.515-.56-1.228-.56-2.14 0-.911.187-1.62.563-2.126.376-.506.883-.759 1.521-.759.634 0 1.14.255 1.518.763.378.508.567 1.215.567 2.122 0 .912-.189 1.625-.567 2.14-.378.515-.884.772-1.518.772-.638 0-1.146-.257-1.524-.772zm.307-2.14c0 .711.11 1.255.329 1.63.218.377.515.565.888.565.365 0 .657-.188.875-.564.219-.376.328-.92.328-1.63 0-.712-.108-1.252-.324-1.62-.217-.37-.51-.555-.879-.555-.373 0-.67.184-.888.55-.22.368-.329.909-.329 1.624zm1.484 6.638l5.065-9.523h.773l-5.073 9.523h-.765zm4.047-2.912c0-.907.188-1.615.564-2.123.376-.508.883-.762 1.52-.762.634 0 1.14.255 1.518.766.379.51.568 1.216.568 2.119 0 .916-.19 1.63-.568 2.143-.378.513-.884.769-1.517.769-.638 0-1.145-.256-1.521-.77-.376-.512-.564-1.226-.564-2.142zm1.196-1.613c-.219.369-.328.906-.328 1.613 0 .706.11 1.248.331 1.627.221.378.517.567.886.567.364 0 .656-.188.875-.564.218-.376.328-.92.328-1.63 0-.707-.108-1.245-.325-1.617-.216-.371-.51-.557-.878-.557-.37 0-.666.187-.889.56z" fill="#380D75" fill-rule="nonzero"/><path d="M50.5 50.5v69h69v-69h-69zm9 60v-51h51v51h-51zM248 50.5a9.5 9.5 0 0 0-9.5 9.5v50a9.5 9.5 0 0 0 9.5 9.5h50a9.5 9.5 0 0 0 9.5-9.5V60a9.5 9.5 0 0 0-9.5-9.5h-50zm-.5 9h51v51h-51v-51zM149 50.5a4.5 4.5 0 0 0-4.5 4.5v60a4.5 4.5 0 0 0 4.5 4.5h60a4.5 4.5 0 0 0 4.5-4.5V55a4.5 4.5 0 0 0-4.5-4.5h-60zm4.5 9h51v51h-51v-51zM352 50.5c-10.77 0-19.5 8.73-19.5 19.5v30c0 10.77 8.73 19.5 19.5 19.5h30c10.77 0 19.5-8.73 19.5-19.5V70c0-10.77-8.73-19.5-19.5-19.5h-30zm0 9h30c5.799 0 10.5 4.701 10.5 10.5v30c0 5.799-4.701 10.5-10.5 10.5h-30c-5.799 0-10.5-4.701-10.5-10.5V70c0-5.799 4.701-10.5 10.5-10.5zM456 50.5c-16.292 0-29.5 13.208-29.5 29.5v10c0 16.292 13.208 29.5 29.5 29.5h10c16.292 0 29.5-13.208 29.5-29.5V80c0-16.292-13.208-29.5-29.5-29.5h-10zm0 9h10c11.322 0 20.5 9.178 20.5 20.5v10c0 11.322-9.178 20.5-20.5 20.5h-10c-11.322 0-20.5-9.178-20.5-20.5V80c0-11.322 9.178-20.5 20.5-20.5zM555 50.5c-19.054 0-34.5 15.446-34.5 34.5 0 19.054 15.446 34.5 34.5 34.5 19.054 0 34.5-15.446 34.5-34.5 0-19.054-15.446-34.5-34.5-34.5zm0 9c14.083 0 25.5 11.417 25.5 25.5s-11.417 25.5-25.5 25.5-25.5-11.417-25.5-25.5 11.417-25.5 25.5-25.5z" stroke="#6E49CB" fill-opacity=".3" fill="#6E49CB"/><path fill-opacity=".504" fill="#FC6D26" d="M50 50h10v10H50zM149 50h5v10h-10v-5a5 5 0 0 1 5-5zM248 50v10h-10c0-5.523 4.477-10 10-10zM351 50v19h-19c0-10.493 8.507-19 19-19zM456 50h2v32h-32v-2c0-16.569 13.431-30 30-30zM555 50v35h-35c0-19.33 15.67-35 35-35z"/><g transform="translate(258 128)"><circle fill="#380D75" cx="16" cy="16" r="16"/><path d="M6.377 12.255c.406-.442.82-.778 1.244-1.008.424-.23.91-.346 1.456-.346.82 0 1.471.24 1.952.718.48.479.721 1.117.721 1.914 0 .237-.033.48-.1.728a5.172 5.172 0 0 1-.245.715c-.098.227-.24.482-.427.762s-.366.533-.537.759c-.17.225-.401.5-.69.827-.29.326-.545.607-.766.844-.221.237-.512.545-.872.923a19.538 19.538 0 0 1 1.497-.082h2.591V20h-5.77v-.684c.616-.61 1.11-1.11 1.484-1.497.374-.387.754-.802 1.142-1.244.387-.442.682-.819.885-1.131.203-.312.368-.63.496-.95a2.46 2.46 0 0 0 .19-.906c0-.533-.143-.958-.43-1.275-.287-.317-.706-.475-1.258-.475-.651 0-1.287.36-1.907 1.08l-.656-.663zm7.44 10.616v-9.673h.95l.103.78h.041c.752-.634 1.475-.95 2.167-.95.862 0 1.525.31 1.99.929.465.62.697 1.467.697 2.543 0 .56-.08 1.076-.24 1.545-.159.47-.374.857-.645 1.162a2.937 2.937 0 0 1-.937.711 2.562 2.562 0 0 1-1.117.253c-.588 0-1.217-.262-1.887-.786l.027 1.19v2.296h-1.148zm1.15-4.382c.56.474 1.116.711 1.667.711.57 0 1.036-.244 1.398-.731.362-.488.544-1.144.544-1.969 0-.788-.145-1.404-.435-1.846-.289-.442-.741-.663-1.356-.663-.525 0-1.13.31-1.819.93v3.568zM20.24 20l2.222-3.555-2.058-3.247h1.25l.91 1.497c.397.675.62 1.053.67 1.135h.055c.296-.56.501-.939.615-1.135l.827-1.497h1.203l-2.057 3.37L26.09 20h-1.25l-.992-1.58a46.356 46.356 0 0 0-.738-1.223h-.062c-.123.196-.35.604-.683 1.224L21.443 20H20.24z" fill="#FFF" fill-rule="nonzero"/></g><path d="M451 136.97c0-.698.062-1.328.185-1.89.123-.563.29-1.034.502-1.412.212-.378.464-.694.755-.947.292-.253.6-.436.927-.55.325-.114.67-.171 1.035-.171.848 0 1.566.317 2.154.95l-.643.718a1.963 1.963 0 0 0-.663-.516 1.836 1.836 0 0 0-.807-.188c-.323 0-.62.067-.888.202a2.137 2.137 0 0 0-.732.628c-.219.285-.392.68-.52 1.183-.127.504-.198 1.097-.211 1.78.282-.341.61-.613.984-.816.374-.203.74-.304 1.1-.304.79 0 1.411.236 1.867.707.456.472.684 1.157.684 2.054 0 .839-.257 1.527-.77 2.065a2.494 2.494 0 0 1-1.876.807c-.911 0-1.653-.37-2.225-1.111-.572-.74-.858-1.804-.858-3.19zm1.121.71c.068.867.27 1.528.605 1.987.335.458.787.687 1.357.687.447 0 .817-.182 1.11-.544.295-.362.442-.833.442-1.412 0-.597-.14-1.061-.417-1.394-.278-.333-.688-.5-1.23-.5-.301 0-.617.098-.947.291-.33.194-.637.49-.92.886zm6.156 6.29v-9.673h.95l.102.78h.041c.752-.634 1.475-.951 2.167-.951.862 0 1.525.31 1.99.93.465.62.697 1.467.697 2.543 0 .56-.08 1.075-.24 1.545-.159.469-.374.856-.645 1.162a2.937 2.937 0 0 1-.937.71 2.562 2.562 0 0 1-1.118.254c-.587 0-1.216-.263-1.886-.787l.027 1.19v2.297h-1.148zm1.148-4.382c.56.474 1.117.71 1.668.71.57 0 1.036-.243 1.398-.73.362-.488.543-1.144.543-1.97 0-.788-.144-1.403-.434-1.845-.289-.442-.741-.663-1.357-.663-.524 0-1.13.31-1.818.93v3.568zm5.274 1.51l2.222-3.554-2.058-3.247h1.25l.91 1.497c.397.674.62 1.053.67 1.135h.055c.296-.56.501-.94.615-1.135l.827-1.497h1.203l-2.057 3.37 2.214 3.432h-1.25l-.992-1.58a46.36 46.36 0 0 0-.738-1.223h-.062c-.123.196-.35.604-.683 1.224l-.923 1.579h-1.203z" fill="#380D75" fill-rule="nonzero"/></g></svg>