<svg width="240" height="240" viewBox="0 0 240 240" fill="none" xmlns="http://www.w3.org/2000/svg"><path fill="#fff" d="M0 0h240v240H0z"/><path stroke="#DFDFDF" d="M39.5 39.5h160v160h-160z"/><path d="M49.5 39.5v160m10-160v160m10-160v160m10-160v160m10-160v160m10-160v160m10-160v160m10-160v160m10-160v160m10-160v160m10-160v160m10-160v160m10-160v160m10-160v160m10-160v160m10-150h-160m160 10h-160m160 10h-160m160 10h-160m160 10h-160m160 10h-160m160 10h-160m160 10h-160m160 10h-160m160 10h-160m160 10h-160m160 10h-160m160 10h-160m160 10h-160m160 10h-160" stroke="#DFDFDF" stroke-linecap="square"/><mask id="icons-depth-dont-2__a" fill="#fff"><path fill-rule="evenodd" clip-rule="evenodd" d="M69 49h101c11.046 0 20 8.954 20 20v101c0 11.046-8.954 20-20 20H69c-11.046 0-20-8.954-20-20V69c0-11.046 8.954-20 20-20Zm-4 16v109h109V65H65Z"/></mask><path fill-rule="evenodd" clip-rule="evenodd" d="M69 49h101c11.046 0 20 8.954 20 20v101c0 11.046-8.954 20-20 20H69c-11.046 0-20-8.954-20-20V69c0-11.046 8.954-20 20-20Zm-4 16v109h109V65H65Z" fill="#6E49CB" fill-opacity=".3"/><path d="M65 65v-1h-1v1h1Zm0 109h-1v1h1v-1Zm109 0v1h1v-1h-1Zm0-109h1v-1h-1v1ZM69 50h101v-2H69v2Zm101 0c10.493 0 19 8.507 19 19h2c0-11.598-9.402-21-21-21v2Zm19 19v101h2V69h-2Zm0 101c0 10.493-8.507 19-19 19v2c11.598 0 21-9.402 21-21h-2Zm-19 19H69v2h101v-2Zm-101 0c-10.493 0-19-8.507-19-19h-2c0 11.598 9.402 21 21 21v-2Zm-19-19V69h-2v101h2Zm0-101c0-10.493 8.507-19 19-19v-2c-11.598 0-21 9.402-21 21h2Zm14-4v109h2V65h-2Zm1 110h109v-2H65v2Zm110-1V65h-2v109h2Zm-1-110H65v2h109v-2Z" fill="#6E49CB" mask="url(#icons-depth-dont-2__a)"/><path fill-rule="evenodd" clip-rule="evenodd" d="M211 39c5.523 0 10-4.477 10-10s-4.477-10-10-10-10 4.477-10 10 4.477 10 10 10Z" fill="#DB3B21"/><path d="m214 26-6 6.002M208 26l6 6.002" stroke="#fff" stroke-width="2" stroke-linecap="round"/></svg>