<svg width="240" height="240" viewBox="0 0 240 240" fill="none" xmlns="http://www.w3.org/2000/svg"><path fill="#fff" d="M0 0h240v240H0z"/><path stroke="#DFDFDF" d="M39.5 39.5h160v160h-160z"/><path d="M49.5 39.5v160m10-160v160m10-160v160m10-160v160m10-160v160m10-160v160m10-160v160m10-160v160m10-160v160m10-160v160m10-160v160m10-160v160m10-160v160m10-160v160m10-160v160m10-150h-160m160 10h-160m160 10h-160m160 10h-160m160 10h-160m160 10h-160m160 10h-160m160 10h-160m160 10h-160m160 10h-160m160 10h-160m160 10h-160m160 10h-160m160 10h-160m160 10h-160" stroke="#DFDFDF" stroke-linecap="square"/><path fill-rule="evenodd" clip-rule="evenodd" d="M211 39c5.523 0 10-4.477 10-10s-4.477-10-10-10-10 4.477-10 10 4.477 10 10 10Z" fill="#17AA55"/><path d="m207 29.069 2.981 2.98 6.05-6.049" stroke="#fff" stroke-width="2" stroke-linecap="round"/><path d="M54 63.5h-.5v81h131v-81H54ZM89.5 159v-.5H49a9.5 9.5 0 0 1-9.5-9.5V59a9.5 9.5 0 0 1 9.5-9.5h140a9.5 9.5 0 0 1 9.5 9.5v90a9.5 9.5 0 0 1-9.5 9.5h-40.5v16h13a7 7 0 1 1 0 14h-85a7 7 0 1 1 0-14h13V159Zm14.5-.5h-.5v16h31v-16H104Z" fill="#6E49CB" fill-opacity=".3" stroke="#6E49CB"/></svg>