<svg width="240" height="240" fill="none" xmlns="http://www.w3.org/2000/svg"><path fill="#fff" d="M0 0h240v240H0z"/><path fill="#6E49CB" fill-opacity=".3" stroke="#6E49CB" d="M114.5 114.5h11v11h-11z"/><path d="M115 142h10v-3h1v7h-1v-3h-10v3h-1v-7h1v3zM142 125v-10h-3v-1h7v1h-3v10h3v1h-7v-1h3z" fill="#FC6D26"/><path d="M114.5 126v13M126 125.5h13M125.5 126v13M126 114.5h13" stroke="#FCA121" stroke-opacity=".5"/><path d="M114.106 163v-.952h2.044v-6.58h-1.624v-.742a7.355 7.355 0 001.064-.266c.308-.112.583-.243.826-.392h.882v7.98h1.848V163h-5.04zM120.519 163v-.686c.672-.672 1.269-1.279 1.792-1.82.523-.541.961-1.041 1.316-1.498a7.85 7.85 0 00.812-1.274c.187-.392.28-.77.28-1.134 0-.513-.14-.933-.42-1.26-.28-.327-.705-.49-1.274-.49a1.81 1.81 0 00-1.036.322 4.122 4.122 0 00-.868.756l-.658-.658c.373-.411.77-.737 1.19-.98.42-.252.924-.378 1.512-.378.831 0 1.484.243 1.96.728.476.476.714 1.111.714 1.904 0 .42-.093.845-.28 1.274a6.88 6.88 0 01-.756 1.316c-.317.448-.7.919-1.148 1.414a66.374 66.374 0 01-1.456 1.554l.756-.056c.261-.019.509-.028.742-.028h2.59V163h-5.768zM152.106 125v-.952h2.044v-6.58h-1.624v-.742a7.355 7.355 0 001.064-.266c.308-.112.583-.243.826-.392h.882v7.98h1.848V125h-5.04zM158.519 125v-.686c.672-.672 1.269-1.279 1.792-1.82.523-.541.961-1.041 1.316-1.498a7.85 7.85 0 00.812-1.274c.187-.392.28-.77.28-1.134 0-.513-.14-.933-.42-1.26-.28-.327-.705-.49-1.274-.49a1.81 1.81 0 00-1.036.322 4.122 4.122 0 00-.868.756l-.658-.658c.373-.411.77-.737 1.19-.98.42-.252.924-.378 1.512-.378.831 0 1.484.243 1.96.728.476.476.714 1.111.714 1.904 0 .42-.093.845-.28 1.274a6.88 6.88 0 01-.756 1.316c-.317.448-.7.919-1.148 1.414a66.374 66.374 0 01-1.456 1.554l.756-.056c.261-.019.509-.028.742-.028h2.59V125h-5.768z" fill="#380D75"/></svg>