<svg width="240" height="240" viewBox="0 0 240 240" fill="none" xmlns="http://www.w3.org/2000/svg"><path fill="#fff" d="M0 0h240v240H0z"/><path stroke="#DFDFDF" d="M39.5 39.5h160v160h-160z"/><path d="M49.5 39.5v160m10-160v160m10-160v160m10-160v160m10-160v160m10-160v160m10-160v160m10-160v160m10-160v160m10-160v160m10-160v160m10-160v160m10-160v160m10-160v160m10-160v160m10-150h-160m160 10h-160m160 10h-160m160 10h-160m160 10h-160m160 10h-160m160 10h-160m160 10h-160m160 10h-160m160 10h-160m160 10h-160m160 10h-160m160 10h-160m160 10h-160m160 10h-160" stroke="#DFDFDF" stroke-linecap="square"/><path fill-rule="evenodd" clip-rule="evenodd" d="M211 39c5.523 0 10-4.477 10-10s-4.477-10-10-10-10 4.477-10 10 4.477 10 10 10Z" fill="#17AA55"/><path d="m207 29.069 2.981 2.98 6.05-6.049" stroke="#fff" stroke-width="2" stroke-linecap="round"/><path fill-rule="evenodd" clip-rule="evenodd" d="m50 149.484 94.697-94.697c7.716-7.716 20.226-7.716 27.942 0l11.574 11.574c7.716 7.716 7.716 20.226 0 27.942L89.516 189H50v-39.516Zm14.818 24.698v-18.56L136.74 83.7l18.56 18.56-71.922 71.922h-18.56Zm100.96-82.4 7.957-7.957a4.94 4.94 0 0 0 0-6.986l-11.574-11.574a4.94 4.94 0 0 0-6.985 0l-7.958 7.957 18.56 18.56Z" fill="#6E49CB" fill-opacity=".3" stroke="#6E49CB"/></svg>