<svg width="240" height="240" viewBox="0 0 240 240" fill="none" xmlns="http://www.w3.org/2000/svg"><path fill="#fff" d="M0 0h240v240H0z"/><path stroke="#DFDFDF" d="M39.5 39.5h160v160h-160z"/><path d="M49.5 39.5v160m10-160v160m10-160v160m10-160v160m10-160v160m10-160v160m10-160v160m10-160v160m10-160v160m10-160v160m10-160v160m10-160v160m10-160v160m10-160v160m10-160v160m10-150h-160m160 10h-160m160 10h-160m160 10h-160m160 10h-160m160 10h-160m160 10h-160m160 10h-160m160 10h-160m160 10h-160m160 10h-160m160 10h-160m160 10h-160m160 10h-160m160 10h-160" stroke="#DFDFDF" stroke-linecap="square"/><path fill-rule="evenodd" clip-rule="evenodd" d="M211 39c5.523 0 10-4.477 10-10s-4.477-10-10-10-10 4.477-10 10 4.477 10 10 10Z" fill="#DB3B21"/><path d="m214 26-6 6.002M208 26l6 6.002" stroke="#fff" stroke-width="2" stroke-linecap="round"/><path d="M112.446 59.601v-.662l-.636.181-36.883 10.5c-6.7 1.908-11.32 8.01-11.32 14.956v11.418c0 25.048 10.985 48.846 30.07 65.146l17.945 15.326.824.705V59.601Zm14.108 116.485v1.085l.824-.705 17.945-15.326c19.085-16.3 30.07-40.098 30.07-65.146V84.576c0-6.946-4.621-13.048-11.32-14.955l-36.883-10.5-.636-.182v117.147ZM71.051 56.108l40.285-11.469a29.82 29.82 0 0 1 16.328 0l40.285 11.47c12.757 3.631 21.551 15.25 21.551 28.467v11.418c0 29.149-12.783 56.844-34.995 75.815l-22.221 18.979c-7.356 6.283-18.212 6.283-25.568 0l-22.221-18.979C62.283 152.838 49.5 125.143 49.5 95.994V84.576c0-13.218 8.794-24.836 21.55-28.467Z" fill="#6E49CB" fill-opacity=".3" stroke="#6E49CB"/></svg>