<svg width="240" height="240" xmlns="http://www.w3.org/2000/svg"><g fill="none" fill-rule="evenodd"><path fill="#FFF" d="M0 0h240v240H0z"/><path d="M128 118v5.5a4.5 4.5 0 0 1-8 2.829 4.5 4.5 0 0 1-8-2.829V118l5 5h-3v.5a2.5 2.5 0 1 0 5 0V121h-1a2 2 0 0 1-2-2v-4a2 2 0 0 1 2-2h4a2 2 0 0 1 2 2v4a2 2 0 0 1-2 2h-1v2.5a2.5 2.5 0 1 0 5 0v-.5h-3l5-5zm-6-2v-1h-4v1h4zm0 2h-4v1h4v-1z" fill="#2E2E2E" fill-rule="nonzero"/><g transform="translate(201 19)"><circle fill="#DB3B21" cx="10" cy="10" r="10"/><path d="M13 7l-6 6.002M7 7l6 6.002" stroke="#FFF" stroke-width="2" stroke-linecap="round"/></g></g></svg>