<svg width="840" height="240" xmlns="http://www.w3.org/2000/svg"><g fill="none" fill-rule="evenodd"><path fill="#FFF" d="M0 0h840v240H0z"/><g stroke="#DFDFDF"><path d="M39.5 39.5h160v160h-160z"/><g stroke-linecap="square"><path d="M49.5 39.5v160M59.5 39.5v160M69.5 39.5v160M79.5 39.5v160M89.5 39.5v160M99.5 39.5v160M109.5 39.5v160M119.5 39.5v160M129.5 39.5v160M139.5 39.5v160M149.5 39.5v160M159.5 39.5v160M169.5 39.5v160M179.5 39.5v160M189.5 39.5v160M199.5 49.5h-160M199.5 59.5h-160M199.5 69.5h-160M199.5 79.5h-160M199.5 89.5h-160M199.5 99.5h-160M199.5 109.5h-160M199.5 119.5h-160M199.5 129.5h-160M199.5 139.5h-160M199.5 149.5h-160M199.5 159.5h-160M199.5 169.5h-160M199.5 179.5h-160M199.5 189.5h-160"/></g></g><g stroke="#DFDFDF"><path d="M239.5 39.5h160v160h-160z"/><g stroke-linecap="square"><path d="M249.5 39.5v160M259.5 39.5v160M269.5 39.5v160M279.5 39.5v160M289.5 39.5v160M299.5 39.5v160M309.5 39.5v160M319.5 39.5v160M329.5 39.5v160M339.5 39.5v160M349.5 39.5v160M359.5 39.5v160M369.5 39.5v160M379.5 39.5v160M389.5 39.5v160M399.5 49.5h-160M399.5 59.5h-160M399.5 69.5h-160M399.5 79.5h-160M399.5 89.5h-160M399.5 99.5h-160M399.5 109.5h-160M399.5 119.5h-160M399.5 129.5h-160M399.5 139.5h-160M399.5 149.5h-160M399.5 159.5h-160M399.5 169.5h-160M399.5 179.5h-160M399.5 189.5h-160"/></g></g><g stroke="#DFDFDF"><path d="M439.5 39.5h160v160h-160z"/><g stroke-linecap="square"><path d="M449.5 39.5v160M459.5 39.5v160M469.5 39.5v160M479.5 39.5v160M489.5 39.5v160M499.5 39.5v160M509.5 39.5v160M519.5 39.5v160M529.5 39.5v160M539.5 39.5v160M549.5 39.5v160M559.5 39.5v160M569.5 39.5v160M579.5 39.5v160M589.5 39.5v160M599.5 49.5h-160M599.5 59.5h-160M599.5 69.5h-160M599.5 79.5h-160M599.5 89.5h-160M599.5 99.5h-160M599.5 109.5h-160M599.5 119.5h-160M599.5 129.5h-160M599.5 139.5h-160M599.5 149.5h-160M599.5 159.5h-160M599.5 169.5h-160M599.5 179.5h-160M599.5 189.5h-160"/></g></g><g stroke="#DFDFDF"><path d="M639.5 39.5h160v160h-160z"/><g stroke-linecap="square"><path d="M649.5 39.5v160M659.5 39.5v160M669.5 39.5v160M679.5 39.5v160M689.5 39.5v160M699.5 39.5v160M709.5 39.5v160M719.5 39.5v160M729.5 39.5v160M739.5 39.5v160M749.5 39.5v160M759.5 39.5v160M769.5 39.5v160M779.5 39.5v160M789.5 39.5v160M799.5 49.5h-160M799.5 59.5h-160M799.5 69.5h-160M799.5 79.5h-160M799.5 89.5h-160M799.5 99.5h-160M799.5 109.5h-160M799.5 119.5h-160M799.5 129.5h-160M799.5 139.5h-160M799.5 149.5h-160M799.5 159.5h-160M799.5 169.5h-160M799.5 179.5h-160M799.5 189.5h-160"/></g></g><path d="M479.5 39.5h80c11.046 0 20 8.954 20 20v129.645c0 5.523-4.477 10-10 10a10 10 0 0 1-7.115-2.972L519.5 152.754l-42.885 43.419c-3.881 3.929-10.213 3.968-14.142.087a10 10 0 0 1-2.973-7.115V59.5c0-11.046 8.954-20 20-20zm80 20h-80v105.29l40-40.496 40 40.497V59.5zM639.5 169.5v-110c0-5.523 4.477-10 10-10h70c5.523 0 10 4.477 10 10v10h50c11.046 0 20 8.954 20 20v80c0 11.046-8.954 20-20 20h-120c-11.046 0-20-8.954-20-20zm20-80v80h120v-80h-120zM269.5 49.5h100c11.046 0 20 8.954 20 20v100c0 11.046-8.954 20-20 20h-100c-11.046 0-20-8.954-20-20v-100c0-11.046 8.954-20 20-20zm0 20h100v100h-100v-100zm50 20v30h30v-30h-30zM129.5 121.358l15.142 15.142c3.905 3.905 3.905 10.237 0 14.142-3.905 3.905-10.237 3.905-14.142 0l-21-21.002V89.5c0-5.523 4.477-10 10-10s10 4.477 10 10v31.858zm-10 78.142c-44.183 0-80-35.817-80-80s35.817-80 80-80 80 35.817 80 80-35.817 80-80 80zm0-20c33.137 0 60-26.863 60-60s-26.863-60-60-60-60 26.863-60 60 26.863 60 60 60z" stroke="#6E49CB" fill-opacity=".3" fill="#6E49CB"/></g></svg>