<svg width="240" height="240" xmlns="http://www.w3.org/2000/svg"><g fill="none" fill-rule="evenodd"><path fill="#FFF" d="M0 0h240v240H0z"/><path d="M38.518 106.624c.027-.237.078-.477.157-.716l19.31-58.782c2.105-6.174 10.927-6.174 12.973.033L89.53 103.5h58.936l18.54-56.342c2.048-6.205 10.866-6.205 12.986.003l19.311 58.683c.09.256.152.522.182.794l9.517 29.062a10.081 10.081 0 0 1-3.683 11.3l-84.004 60.644a3.342 3.342 0 0 1-.27.215 3.288 3.288 0 0 1-1.3.592 3.304 3.304 0 0 1-.748.085 3.38 3.38 0 0 1-1.61-.415 3.369 3.369 0 0 1-.715-.484l-83.994-60.65A10.078 10.078 0 0 1 29 135.685l9.52-29.06zm53.307 3.876l27.174 83.224 27.176-83.224h-54.35zm-42.624 0l60.307 76.754L84.382 110.5h-35.18zm-5.834 3.81l-7.714 23.55a3.077 3.077 0 0 0 1.125 3.452l64.13 46.307-57.541-73.309zm3.467-10.81H82.16L64.466 49.825 46.834 103.5zm141.965 7h-35.196l-25.116 76.76 60.312-76.76zm-51.713 77.127l64.135-46.3a3.08 3.08 0 0 0 1.128-3.453l-7.716-23.563-57.547 73.316zm36.413-137.805L155.836 103.5h35.328l-17.665-53.678z" fill="#6E49CB" fill-rule="nonzero"/><g transform="translate(109 17)"><circle fill="#380D75" cx="10" cy="54" r="10"/><path d="M7.708 58v-.95h2.044v-6.583H8.125v-.738c.725-.124 1.356-.345 1.894-.664h.882v7.985h1.845V58H7.708z" fill="#FFF" fill-rule="nonzero"/><circle fill="#380D75" cx="65" cy="10" r="10"/><path d="M62.107 6.255c.405-.442.82-.778 1.244-1.008.424-.23.91-.346 1.456-.346.82 0 1.47.24 1.952.718.48.479.72 1.117.72 1.914 0 .237-.032.48-.098.728a5.172 5.172 0 0 1-.246.715c-.098.227-.24.482-.428.762-.186.28-.365.533-.536.759-.171.225-.401.5-.69.827-.29.326-.545.607-.766.844-.221.237-.512.545-.872.923a19.538 19.538 0 0 1 1.497-.082h2.591V14h-5.77v-.684c.616-.61 1.11-1.11 1.484-1.497.374-.387.754-.802 1.141-1.244.388-.442.683-.819.886-1.131.203-.312.368-.63.495-.95a2.46 2.46 0 0 0 .192-.906c0-.533-.144-.958-.43-1.275-.288-.317-.707-.475-1.259-.475-.651 0-1.287.36-1.907 1.08l-.656-.663z" fill="#FFF" fill-rule="nonzero"/><circle fill="#380D75" cx="107" cy="88" r="10"/><path d="M103.963 90.906l.588-.752c.67.707 1.431 1.06 2.283 1.06.547 0 .992-.15 1.333-.448.342-.298.513-.694.513-1.186 0-.57-.222-1.008-.666-1.316-.445-.307-1.173-.461-2.185-.461v-.882c1.687 0 2.53-.556 2.53-1.668 0-.433-.138-.777-.414-1.032-.276-.256-.65-.383-1.124-.383-.661 0-1.295.303-1.9.91l-.623-.726c.793-.747 1.648-1.12 2.564-1.12.793 0 1.436.201 1.93.604.495.404.743.959.743 1.665 0 .52-.144.956-.431 1.309-.287.353-.684.625-1.19.817v.055c.57.132 1.034.395 1.392.79.357.393.536.887.536 1.48 0 .77-.279 1.387-.837 1.852-.559.464-1.26.697-2.102.697-1.185 0-2.165-.422-2.94-1.265z" fill="#FFF" fill-rule="nonzero"/><circle fill="#380D75" cx="10" cy="207" r="10"/><path d="M6.84 208.54v-.76l3.821-5.715h1.286v5.544h1.223v.93h-1.223V211H10.86v-2.46H6.84zm1.217-.93h2.803v-2.585c0-.35.023-.925.068-1.722h-.055c-.04.077-.284.496-.731 1.258l-2.085 3.048z" fill="#FFF" fill-rule="nonzero"/></g></g></svg>