<svg width="64" height="64" viewBox="0 0 64 64" fill="none" xmlns="http://www.w3.org/2000/svg">
<rect width="64" height="64" rx="4" fill="#FBFAFD"/>
<path fill-rule="evenodd" clip-rule="evenodd" d="M32 38C35.3137 38 38 35.3137 38 32C38 28.6863 35.3137 26 32 26C28.6863 26 26 28.6863 26 32C26 35.3137 28.6863 38 32 38ZM34.5762 30.9801C34.8413 30.6619 34.7983 30.189 34.4801 29.9238C34.1619 29.6587 33.689 29.7017 33.4238 30.0199L31.4496 32.3889L30.5303 31.4697C30.2374 31.1768 29.7626 31.1768 29.4697 31.4697C29.1768 31.7626 29.1768 32.2374 29.4697 32.5303L30.9697 34.0303C31.1187 34.1793 31.3235 34.2588 31.534 34.2492C31.7445 34.2397 31.9413 34.142 32.0762 33.9801L34.5762 30.9801Z" fill="#108548"/>
</svg>
