<svg width="356" height="176" viewBox="0 0 356 176" fill="none" xmlns="http://www.w3.org/2000/svg">
<path d="M165 31H316C338.091 31 356 48.9086 356 71V150H205C182.909 150 165 132.091 165 110V31Z" fill="#E7E4F2"/>
<g clip-path="url(#clip0_1417_13493)">
<path d="M253 91H319" stroke="#171321" stroke-width="2" stroke-linecap="square" stroke-linejoin="round"/>
<circle cx="318" cy="91" r="14" fill="#6FDAC9" stroke="#171321" stroke-width="2" stroke-linecap="square"/>
<path d="M313.2 91.3667L316.024 94.2L322.8 87.4" stroke="#171321" stroke-width="2" stroke-linecap="square"/>
<circle cx="280" cy="91" r="14" fill="#FF9D73" stroke="#171321" stroke-width="2" stroke-linecap="square"/>
<path d="M280 85L277 91H283L280 97" stroke="#171321" stroke-width="2" stroke-linecap="square"/>
<path d="M199 56H234L246 67V109C246 113.418 242.418 117 238 117H199V56Z" fill="white"/>
<path d="M199 65.08H190V126H232L241 117H199V65.08Z" fill="#D0C5E2"/>
<path d="M199 65H190V126H229.486C231.094 126 232.635 125.354 233.763 124.207L235 122.95" stroke="#171321" stroke-width="2" stroke-linecap="square"/>
<path d="M246 67L234 56V67H246Z" fill="white"/>
<path d="M199 56V55H198V56H199ZM234 56L234.676 55.2628L234.389 55H234V56ZM199 117H198V118H199V117ZM247 74.5V73.5H245V74.5H247ZM246 67V68L246.676 66.2628L246 67ZM234 67H233V68H234V67ZM199 57H234V55H199V57ZM238 116H199V118H238V116ZM200 117V56H198V117H200ZM245 74.5V109H247V74.5H245ZM233.324 56.7372L245.324 67.7372L246.676 66.2628L234.676 55.2628L233.324 56.7372ZM246 66H234V68H246V66ZM235 67V56H233V67H235ZM238 118C242.971 118 247 113.971 247 109H245C245 112.866 241.866 116 238 116V118Z" fill="#171321"/>
<path d="M211 101H225" stroke="#171321" stroke-width="2" stroke-linecap="square"/>
<path d="M211 93H234" stroke="#171321" stroke-width="2" stroke-linecap="square"/>
<path d="M211 85H234" stroke="#171321" stroke-width="2" stroke-linecap="square"/>
<path d="M211 77H234" stroke="#171321" stroke-width="2" stroke-linecap="square"/>
<circle cx="246" cy="91" r="6" fill="white" stroke="#171321" stroke-width="2" stroke-linecap="square" stroke-linejoin="round"/>
</g>
<path d="M17 10.08H8V71H50L59 62H17V10.08Z" fill="#D0C5E2"/>
<path d="M17 10H8V71H47.4856C49.0941 71 50.6352 70.3542 51.7632 69.2074L53 67.95" stroke="#171321" stroke-width="2" stroke-linecap="square"/>
<path d="M17 1V0H16V1H17ZM52 1L52.6757 0.262846L52.389 0H52V1ZM17 62H16V63H17V62ZM65 19.5V18.5H63V19.5H65ZM64 12V13L64.6757 11.2628L64 12ZM52 12H51V13H52V12ZM17 2H52V0H17V2ZM56 61H17V63H56V61ZM18 62V1H16V62H18ZM63 19.5V54H65V19.5H63ZM51.3243 1.73715L63.3243 12.7372L64.6757 11.2628L52.6757 0.262846L51.3243 1.73715ZM64 11H52V13H64V11ZM53 12V1H51V12H53ZM56 63C60.9706 63 65 58.9706 65 54H63C63 57.866 59.866 61 56 61V63Z" fill="#171321"/>
<path d="M29 46H43" stroke="#171321" stroke-width="2" stroke-linecap="square"/>
<path d="M29 38H52" stroke="#171321" stroke-width="2" stroke-linecap="square"/>
<path d="M29 30H52" stroke="#171321" stroke-width="2" stroke-linecap="square"/>
<path d="M29 22H52" stroke="#171321" stroke-width="2" stroke-linecap="square"/>
<circle cx="36" cy="140" r="35" fill="#6FDAC9" stroke="#171321" stroke-width="2" stroke-linecap="square"/>
<path d="M24 140.917L31.0588 148L48 131" stroke="#171321" stroke-width="2" stroke-linecap="square"/>
<path d="M80 160C79.4477 160 79 160.448 79 161C79 161.552 79.4477 162 80 162V160ZM320 161V162C320.552 162 321 161.552 321 161H320ZM320.707 115.293C320.317 114.902 319.683 114.902 319.293 115.293L312.929 121.657C312.538 122.047 312.538 122.681 312.929 123.071C313.319 123.462 313.953 123.462 314.343 123.071L320 117.414L325.657 123.071C326.047 123.462 326.681 123.462 327.071 123.071C327.462 122.681 327.462 122.047 327.071 121.657L320.707 115.293ZM80 162H320V160H80V162ZM321 161V116H319V161H321Z" fill="#999999"/>
<path d="M80 21C79.4477 21 79 21.4477 79 22C79 22.5523 79.4477 23 80 23V21ZM224 22H225C225 21.4477 224.552 21 224 21V22ZM223.293 47.7071C223.683 48.0976 224.317 48.0976 224.707 47.7071L231.071 41.3431C231.462 40.9526 231.462 40.3195 231.071 39.9289C230.681 39.5384 230.047 39.5384 229.657 39.9289L224 45.5858L218.343 39.9289C217.953 39.5384 217.319 39.5384 216.929 39.9289C216.538 40.3195 216.538 40.9526 216.929 41.3431L223.293 47.7071ZM80 23H224V21H80V23ZM223 22V47H225V22H223Z" fill="#999999"/>
<path d="M319 23C319.552 23 320 22.5523 320 22C320 21.4477 319.552 21 319 21V23ZM298 22V21C297.671 21 297.363 21.1616 297.177 21.4323L298 22ZM257.016 80.1807C257.116 80.7238 257.637 81.0833 258.181 80.9835L267.033 79.3577C267.576 79.2579 267.935 78.7367 267.835 78.1935C267.736 77.6503 267.214 77.2908 266.671 77.3906L258.803 78.8358L257.358 70.9674C257.258 70.4242 256.737 70.0648 256.193 70.1645C255.65 70.2643 255.291 70.7855 255.391 71.3287L257.016 80.1807ZM319 21H298V23H319V21ZM297.177 21.4323L257.177 79.4323L258.823 80.5677L298.823 22.5677L297.177 21.4323Z" fill="#999999"/>
<rect width="12" height="12" transform="translate(327 16)" fill="white"/>
<circle cx="333" cy="22" r="6" fill="white" stroke="#171321" stroke-width="2" stroke-linecap="square" stroke-linejoin="round"/>
<defs>
<clipPath id="clip0_1417_13493">
<rect width="144" height="72" fill="white" transform="translate(189 55)"/>
</clipPath>
</defs>
</svg>
