<svg width="215" height="115" xmlns="http://www.w3.org/2000/svg"><g fill="none" fill-rule="evenodd"><path d="M10 113.429L81.276 26l52.963 78.158 28.213-46.015L207 116" stroke="#DFDFDF" stroke-width="2" stroke-linecap="round" stroke-dasharray="4,8"/><path stroke="#6E49CB" stroke-width="4" d="M9 44l29.75 22.832L72 54l21.032 30.926L124.5 66.832l25 18.094h35.317l24.183 17.5"/><circle stroke="#6E49CB" stroke-width="4" fill="#EFEDF8" cx="8" cy="42" r="6"/><circle stroke="#6E49CB" stroke-width="4" fill="#EFEDF8" cx="207" cy="100" r="6"/><path d="M80 30V7.148" stroke="#F4C6AC" stroke-width="4" stroke-linecap="round"/><path fill="#FC6D26" d="M98 13l-14 6V7z"/><path d="M124 43h1a2 2 0 0 1 0 4h-1v1a2 2 0 0 1-4 0v-1h-1a2 2 0 0 1 0-4h1v-1a2 2 0 0 1 4 0v1z" fill="#D8D8D8"/><path d="M36 19h1a2 2 0 1 1 0 4h-1v1a2 2 0 1 1-4 0v-1h-1a2 2 0 1 1 0-4h1v-1a2 2 0 1 1 4 0v1zM150 3h1a2 2 0 0 1 0 4h-1v1a2 2 0 0 1-4 0V7h-1a2 2 0 0 1 0-4h1V2a2 2 0 0 1 4 0v1zM198 29h1a2 2 0 0 1 0 4h-1v1a2 2 0 0 1-4 0v-1h-1a2 2 0 0 1 0-4h1v-1a2 2 0 0 1 4 0v1z" fill="#F4C6AC"/></g></svg>