<svg width="148" height="36" xmlns="http://www.w3.org/2000/svg"><g fill="none" fill-rule="evenodd"><path fill="#FFF" d="M0 0h148v36H0z"/><path d="M2 5h116" stroke="#6E49CB" stroke-width="4" stroke-linecap="round"/><path d="M2 29h116" stroke="#6E49CB" stroke-width="2" stroke-linecap="round"/><path d="M127.38 6.54v-.76L131.2.065h1.286V5.61h1.223v.93h-1.223V9h-1.087V6.54h-4.02zm1.216-.93h2.803V3.024c0-.35.023-.925.068-1.722h-.054c-.041.077-.285.496-.732 1.258l-2.085 3.048zm6.645 6.261V2.198h.95l.102.78h.041c.752-.634 1.475-.95 2.167-.95.862 0 1.525.31 1.99.929.465.62.697 1.467.697 2.543 0 .56-.08 1.076-.24 1.545-.159.47-.374.857-.645 1.162a2.937 2.937 0 0 1-.937.711 2.562 2.562 0 0 1-1.117.253c-.588 0-1.217-.262-1.887-.786l.027 1.19v2.296h-1.148zm1.148-4.382c.56.474 1.117.711 1.668.711.57 0 1.036-.244 1.398-.731.362-.488.544-1.144.544-1.969 0-.788-.145-1.404-.435-1.846-.289-.442-.741-.663-1.356-.663-.525 0-1.13.31-1.819.93v3.568zM141.817 9l2.222-3.555-2.058-3.247h1.25l.91 1.497c.397.675.62 1.053.67 1.135h.055c.296-.56.501-.939.615-1.135l.827-1.497h1.203l-2.057 3.37L147.668 9h-1.25l-.992-1.58a46.356 46.356 0 0 0-.738-1.223h-.062c-.123.196-.35.604-.683 1.224L143.02 9h-1.203zM127.646 25.255c.406-.442.82-.778 1.244-1.008.424-.23.91-.346 1.456-.346.82 0 1.471.24 1.952.718.48.479.721 1.117.721 1.914 0 .237-.033.48-.1.728a5.172 5.172 0 0 1-.245.715c-.098.227-.24.482-.427.762s-.366.533-.537.759c-.17.225-.401.5-.69.827-.29.326-.545.607-.766.844-.221.237-.512.545-.872.923a19.538 19.538 0 0 1 1.497-.082h2.591V33h-5.77v-.684c.616-.61 1.11-1.11 1.484-1.497.374-.387.754-.802 1.142-1.244.387-.442.682-.819.885-1.131.203-.312.368-.63.496-.95a2.46 2.46 0 0 0 .19-.906c0-.533-.143-.958-.43-1.275-.287-.317-.706-.475-1.258-.475-.651 0-1.287.36-1.907 1.08l-.656-.663zm7.595 10.616v-9.673h.95l.102.78h.041c.752-.634 1.475-.95 2.167-.95.862 0 1.525.31 1.99.929.465.62.697 1.467.697 2.543 0 .56-.08 1.076-.24 1.545-.159.47-.374.857-.645 1.162a2.937 2.937 0 0 1-.937.711 2.562 2.562 0 0 1-1.117.253c-.588 0-1.217-.262-1.887-.786l.027 1.19v2.296h-1.148zm1.148-4.382c.56.474 1.117.711 1.668.711.57 0 1.036-.244 1.398-.731.362-.488.544-1.144.544-1.969 0-.788-.145-1.404-.435-1.846-.289-.442-.741-.663-1.356-.663-.525 0-1.13.31-1.819.93v3.568zM141.817 33l2.222-3.555-2.058-3.247h1.25l.91 1.497c.397.675.62 1.053.67 1.135h.055c.296-.56.501-.939.615-1.135l.827-1.497h1.203l-2.057 3.37L147.668 33h-1.25l-.992-1.58a46.356 46.356 0 0 0-.738-1.223h-.062c-.123.196-.35.604-.683 1.224L143.02 33h-1.203z" fill="#380D75" fill-rule="nonzero"/></g></svg>