<svg width="600" height="288" viewBox="0 0 600 288" fill="none" xmlns="http://www.w3.org/2000/svg">
<rect width="288" height="288" fill="white"/>
<g clip-path="url(#clip0_1102_13999)">
<g clip-path="url(#clip1_1102_13999)">
<path d="M288 268.708L312 282.564L288 296.42L264 282.564L288 268.708Z" stroke="#55D8FF" stroke-opacity="0.8"/>
<path d="M240 268.708L264 282.564L240 296.42L216 282.564L240 268.708Z" stroke="#55D8FF" stroke-opacity="0.8"/>
<path d="M192 268.708L216 282.564L192 296.42L168 282.564L192 268.708Z" stroke="#55D8FF" stroke-opacity="0.8"/>
<path d="M144 268.708L168 282.564L144 296.42L120 282.564L144 268.708Z" stroke="#55D8FF" stroke-opacity="0.8"/>
<path d="M96 268.708L120 282.564L96 296.42L72 282.564L96 268.708Z" stroke="#55D8FF" stroke-opacity="0.8"/>
<path d="M48 268.708L72 282.564L48 296.42L24 282.564L48 268.708Z" stroke="#55D8FF" stroke-opacity="0.8"/>
<path d="M7.90297e-07 268.708L24 282.564L-1.41212e-06 296.42L-24 282.564L7.90297e-07 268.708Z" stroke="#55D8FF" stroke-opacity="0.8"/>
<path d="M288 240.995L312 254.851L288 268.708L264 254.851L288 240.995Z" stroke="#55D8FF" stroke-opacity="0.8"/>
<path d="M240 240.995L264 254.851L240 268.708L216 254.851L240 240.995Z" stroke="#55D8FF" stroke-opacity="0.8"/>
<path d="M192 240.995L216 254.851L192 268.708L168 254.851L192 240.995Z" stroke="#55D8FF" stroke-opacity="0.8"/>
<path d="M144 240.995L168 254.851L144 268.708L120 254.851L144 240.995Z" stroke="#55D8FF" stroke-opacity="0.8"/>
<path d="M96 240.995L120 254.851L96 268.708L72 254.851L96 240.995Z" stroke="#55D8FF" stroke-opacity="0.8"/>
<path d="M48 240.995L72 254.851L48 268.708L24 254.851L48 240.995Z" stroke="#55D8FF" stroke-opacity="0.8"/>
<path d="M7.90297e-07 240.995L24 254.851L-1.41212e-06 268.708L-24 254.851L7.90297e-07 240.995Z" stroke="#55D8FF" stroke-opacity="0.8"/>
<path d="M288 213.282L312 227.138L288 240.995L264 227.138L288 213.282Z" stroke="#55D8FF" stroke-opacity="0.8"/>
<path d="M240 213.282L264 227.138L240 240.995L216 227.138L240 213.282Z" stroke="#55D8FF" stroke-opacity="0.8"/>
<path d="M192 213.282L216 227.138L192 240.995L168 227.138L192 213.282Z" stroke="#55D8FF" stroke-opacity="0.8"/>
<path d="M144 213.282L168 227.138L144 240.995L120 227.138L144 213.282Z" stroke="#55D8FF" stroke-opacity="0.8"/>
<path d="M96 213.282L120 227.138L96 240.995L72 227.138L96 213.282Z" stroke="#55D8FF" stroke-opacity="0.8"/>
<path d="M48 213.282L72 227.138L48 240.995L24 227.138L48 213.282Z" stroke="#55D8FF" stroke-opacity="0.8"/>
<path d="M7.90297e-07 213.282L24 227.138L-1.41212e-06 240.995L-24 227.138L7.90297e-07 213.282Z" stroke="#55D8FF" stroke-opacity="0.8"/>
<path d="M288 185.569L312 199.426L288 213.282L264 199.426L288 185.569Z" stroke="#55D8FF" stroke-opacity="0.8"/>
<path d="M240 185.569L264 199.426L240 213.282L216 199.426L240 185.569Z" stroke="#55D8FF" stroke-opacity="0.8"/>
<path d="M192 185.569L216 199.426L192 213.282L168 199.426L192 185.569Z" stroke="#55D8FF" stroke-opacity="0.8"/>
<path d="M144 185.569L168 199.426L144 213.282L120 199.426L144 185.569Z" stroke="#55D8FF" stroke-opacity="0.8"/>
<path d="M96 185.569L120 199.426L96 213.282L72 199.426L96 185.569Z" stroke="#55D8FF" stroke-opacity="0.8"/>
<path d="M48 185.569L72 199.426L48 213.282L24 199.426L48 185.569Z" stroke="#55D8FF" stroke-opacity="0.8"/>
<path d="M7.90297e-07 185.569L24 199.426L-1.41212e-06 213.282L-24 199.426L7.90297e-07 185.569Z" stroke="#55D8FF" stroke-opacity="0.8"/>
<path d="M288 157.856L312 171.713L288 185.569L264 171.713L288 157.856Z" stroke="#55D8FF" stroke-opacity="0.8"/>
<path d="M240 157.856L264 171.713L240 185.569L216 171.713L240 157.856Z" stroke="#55D8FF" stroke-opacity="0.8"/>
<path d="M192 157.856L216 171.713L192 185.569L168 171.713L192 157.856Z" stroke="#55D8FF" stroke-opacity="0.8"/>
<path d="M144 157.856L168 171.713L144 185.569L120 171.713L144 157.856Z" stroke="#55D8FF" stroke-opacity="0.8"/>
<path d="M96 157.856L120 171.713L96 185.569L72 171.713L96 157.856Z" stroke="#55D8FF" stroke-opacity="0.8"/>
<path d="M48 157.856L72 171.713L48 185.569L24 171.713L48 157.856Z" stroke="#55D8FF" stroke-opacity="0.8"/>
<path d="M7.90297e-07 157.856L24 171.713L-1.41212e-06 185.569L-24 171.713L7.90297e-07 157.856Z" stroke="#55D8FF" stroke-opacity="0.8"/>
<path d="M288 130.144L312 144L288 157.856L264 144L288 130.144Z" stroke="#55D8FF" stroke-opacity="0.8"/>
<path d="M240 130.144L264 144L240 157.856L216 144L240 130.144Z" stroke="#55D8FF" stroke-opacity="0.8"/>
<path d="M192 130.144L216 144L192 157.856L168 144L192 130.144Z" stroke="#55D8FF" stroke-opacity="0.8"/>
<path d="M144 130.144L168 144L144 157.856L120 144L144 130.144Z" stroke="#55D8FF" stroke-opacity="0.8"/>
<path d="M96 130.144L120 144L96 157.856L72 144L96 130.144Z" stroke="#55D8FF" stroke-opacity="0.8"/>
<path d="M48 130.144L72 144L48 157.856L24 144L48 130.144Z" stroke="#55D8FF" stroke-opacity="0.8"/>
<path d="M7.90297e-07 130.144L24 144L-1.41212e-06 157.856L-24 144L7.90297e-07 130.144Z" stroke="#55D8FF" stroke-opacity="0.8"/>
<path d="M288 102.431L312 116.287L288 130.144L264 116.287L288 102.431Z" stroke="#55D8FF" stroke-opacity="0.8"/>
<path d="M240 102.431L264 116.287L240 130.144L216 116.287L240 102.431Z" stroke="#55D8FF" stroke-opacity="0.8"/>
<path d="M192 102.431L216 116.287L192 130.144L168 116.287L192 102.431Z" stroke="#55D8FF" stroke-opacity="0.8"/>
<path d="M144 102.431L168 116.287L144 130.144L120 116.287L144 102.431Z" stroke="#55D8FF" stroke-opacity="0.8"/>
<path d="M96 102.431L120 116.287L96 130.144L72 116.287L96 102.431Z" stroke="#55D8FF" stroke-opacity="0.8"/>
<path d="M48 102.431L72 116.287L48 130.144L24 116.287L48 102.431Z" stroke="#55D8FF" stroke-opacity="0.8"/>
<path d="M7.90297e-07 102.431L24 116.287L-1.41212e-06 130.144L-24 116.287L7.90297e-07 102.431Z" stroke="#55D8FF" stroke-opacity="0.8"/>
<path d="M288 74.718L312 88.5744L288 102.431L264 88.5744L288 74.718Z" stroke="#55D8FF" stroke-opacity="0.8"/>
<path d="M240 74.718L264 88.5744L240 102.431L216 88.5744L240 74.718Z" stroke="#55D8FF" stroke-opacity="0.8"/>
<path d="M192 74.718L216 88.5744L192 102.431L168 88.5744L192 74.718Z" stroke="#55D8FF" stroke-opacity="0.8"/>
<path d="M144 74.718L168 88.5744L144 102.431L120 88.5744L144 74.718Z" stroke="#55D8FF" stroke-opacity="0.8"/>
<path d="M96 74.718L120 88.5744L96 102.431L72 88.5744L96 74.718Z" stroke="#55D8FF" stroke-opacity="0.8"/>
<path d="M48 74.718L72 88.5744L48 102.431L24 88.5744L48 74.718Z" stroke="#55D8FF" stroke-opacity="0.8"/>
<path d="M7.90297e-07 74.718L24 88.5744L-1.41212e-06 102.431L-24 88.5744L7.90297e-07 74.718Z" stroke="#55D8FF" stroke-opacity="0.8"/>
<path d="M288 47.0051L312 60.8615L288 74.7179L264 60.8615L288 47.0051Z" stroke="#55D8FF" stroke-opacity="0.8"/>
<path d="M240 47.0051L264 60.8615L240 74.7179L216 60.8615L240 47.0051Z" stroke="#55D8FF" stroke-opacity="0.8"/>
<path d="M192 47.0051L216 60.8615L192 74.7179L168 60.8615L192 47.0051Z" stroke="#55D8FF" stroke-opacity="0.8"/>
<path d="M144 47.0051L168 60.8615L144 74.7179L120 60.8615L144 47.0051Z" stroke="#55D8FF" stroke-opacity="0.8"/>
<path d="M96 47.0051L120 60.8615L96 74.7179L72 60.8615L96 47.0051Z" stroke="#55D8FF" stroke-opacity="0.8"/>
<path d="M48 47.0051L72 60.8615L48 74.7179L24 60.8615L48 47.0051Z" stroke="#55D8FF" stroke-opacity="0.8"/>
<path d="M7.90297e-07 47.0051L24 60.8615L-1.41212e-06 74.7179L-24 60.8615L7.90297e-07 47.0051Z" stroke="#55D8FF" stroke-opacity="0.8"/>
<path d="M288 19.2924L312 33.1488L288 47.0052L264 33.1488L288 19.2924Z" stroke="#55D8FF" stroke-opacity="0.8"/>
<path d="M240 19.2924L264 33.1488L240 47.0052L216 33.1488L240 19.2924Z" stroke="#55D8FF" stroke-opacity="0.8"/>
<path d="M192 19.2924L216 33.1488L192 47.0052L168 33.1488L192 19.2924Z" stroke="#55D8FF" stroke-opacity="0.8"/>
<path d="M144 19.2924L168 33.1488L144 47.0052L120 33.1488L144 19.2924Z" stroke="#55D8FF" stroke-opacity="0.8"/>
<path d="M96 19.2924L120 33.1488L96 47.0052L72 33.1488L96 19.2924Z" stroke="#55D8FF" stroke-opacity="0.8"/>
<path d="M48 19.2924L72 33.1488L48 47.0052L24 33.1488L48 19.2924Z" stroke="#55D8FF" stroke-opacity="0.8"/>
<path d="M7.90297e-07 19.2924L24 33.1488L-1.41212e-06 47.0052L-24 33.1488L7.90297e-07 19.2924Z" stroke="#55D8FF" stroke-opacity="0.8"/>
<path d="M288 -8.42047L312 5.43594L288 19.2923L264 5.43594L288 -8.42047Z" stroke="#55D8FF" stroke-opacity="0.8"/>
<path d="M240 -8.42047L264 5.43594L240 19.2923L216 5.43594L240 -8.42047Z" stroke="#55D8FF" stroke-opacity="0.8"/>
<path d="M192 -8.42047L216 5.43594L192 19.2923L168 5.43594L192 -8.42047Z" stroke="#55D8FF" stroke-opacity="0.8"/>
<path d="M144 -8.42047L168 5.43594L144 19.2923L120 5.43594L144 -8.42047Z" stroke="#55D8FF" stroke-opacity="0.8"/>
<path d="M96 -8.42047L120 5.43594L96 19.2923L72 5.43594L96 -8.42047Z" stroke="#55D8FF" stroke-opacity="0.8"/>
<path d="M48 -8.42047L72 5.43594L48 19.2923L24 5.43594L48 -8.42047Z" stroke="#55D8FF" stroke-opacity="0.8"/>
<path d="M7.90297e-07 -8.42047L24 5.43594L-1.41212e-06 19.2923L-24 5.43594L7.90297e-07 -8.42047Z" stroke="#55D8FF" stroke-opacity="0.8"/>
</g>
</g>
<rect x="0.5" y="0.5" width="287" height="287" stroke="#18A3FF" stroke-opacity="0.24"/>
<rect x="312" width="288" height="288" fill="white"/>
<g clip-path="url(#clip2_1102_13999)">
<path d="M312 282.594H601" stroke="#55D8FF" stroke-opacity="0.48"/>
<path d="M312 268.734H601" stroke="#55D8FF" stroke-opacity="0.48"/>
<path d="M312 254.875H601" stroke="#55D8FF" stroke-opacity="0.48"/>
<path d="M312 241.016H601" stroke="#55D8FF" stroke-opacity="0.48"/>
<path d="M312 227.156H601" stroke="#55D8FF" stroke-opacity="0.48"/>
<path d="M312 213.297H601" stroke="#55D8FF" stroke-opacity="0.48"/>
<path d="M312 199.438H601" stroke="#55D8FF" stroke-opacity="0.48"/>
<path d="M312 185.578H601" stroke="#55D8FF" stroke-opacity="0.48"/>
<path d="M312 171.719H601" stroke="#55D8FF" stroke-opacity="0.48"/>
<path d="M312 157.859H601" stroke="#55D8FF" stroke-opacity="0.48"/>
<path d="M312 144H601" stroke="#55D8FF" stroke-opacity="0.48"/>
<path d="M312 130.141H601" stroke="#55D8FF" stroke-opacity="0.48"/>
<path d="M312 116.277H601" stroke="#55D8FF" stroke-opacity="0.48"/>
<path d="M312 102.417H601" stroke="#55D8FF" stroke-opacity="0.48"/>
<path d="M312 88.5575H601" stroke="#55D8FF" stroke-opacity="0.48"/>
<path d="M312 74.717H601" stroke="#55D8FF" stroke-opacity="0.48"/>
<path d="M312 60.8628H601" stroke="#55D8FF" stroke-opacity="0.48"/>
<path d="M312 47.0058H601" stroke="#55D8FF" stroke-opacity="0.48"/>
<path d="M312 33.1497H601" stroke="#55D8FF" stroke-opacity="0.48"/>
<path d="M312 19.2936H601" stroke="#55D8FF" stroke-opacity="0.48"/>
<path d="M312 5.4375H601" stroke="#55D8FF" stroke-opacity="0.48"/>
<path d="M596 -15.2051L796 331.205" stroke="#55D8FF" stroke-opacity="0.48"/>
<path d="M580 -15.2051L780 331.205" stroke="#55D8FF" stroke-opacity="0.48"/>
<path d="M564 -15.2051L764 331.205" stroke="#55D8FF" stroke-opacity="0.48"/>
<path d="M548 -15.2051L748 331.205" stroke="#55D8FF" stroke-opacity="0.48"/>
<path d="M532 -15.2051L732 331.205" stroke="#55D8FF" stroke-opacity="0.48"/>
<path d="M516 -15.2051L716 331.205" stroke="#55D8FF" stroke-opacity="0.48"/>
<path d="M500 -15.2051L700 331.205" stroke="#55D8FF" stroke-opacity="0.48"/>
<path d="M484 -15.2051L684 331.205" stroke="#55D8FF" stroke-opacity="0.48"/>
<path d="M468 -15.2051L668 331.205" stroke="#55D8FF" stroke-opacity="0.48"/>
<path d="M452 -15.2051L652 331.205" stroke="#55D8FF" stroke-opacity="0.48"/>
<path d="M436 -15.2051L636 331.205" stroke="#55D8FF" stroke-opacity="0.48"/>
<path d="M420 -15.2051L620 331.205" stroke="#55D8FF" stroke-opacity="0.48"/>
<path d="M404 -15.2051L604 331.205" stroke="#55D8FF" stroke-opacity="0.48"/>
<path d="M388 -15.2051L588 331.205" stroke="#55D8FF" stroke-opacity="0.48"/>
<path d="M372 -15.2051L572 331.205" stroke="#55D8FF" stroke-opacity="0.48"/>
<path d="M356 -15.2051L556 331.205" stroke="#55D8FF" stroke-opacity="0.48"/>
<path d="M340 -15.2051L540 331.205" stroke="#55D8FF" stroke-opacity="0.48"/>
<path d="M324 -15.2051L524 331.205" stroke="#55D8FF" stroke-opacity="0.48"/>
<path d="M308 -15.2051L508 331.205" stroke="#55D8FF" stroke-opacity="0.48"/>
<path d="M292 -15.2051L492 331.205" stroke="#55D8FF" stroke-opacity="0.48"/>
<path d="M276 -15.2051L476 331.205" stroke="#55D8FF" stroke-opacity="0.48"/>
<path d="M260 -15.2051L460 331.205" stroke="#55D8FF" stroke-opacity="0.48"/>
<path d="M244 -15.2051L444 331.205" stroke="#55D8FF" stroke-opacity="0.48"/>
<path d="M228 -15.2051L428 331.205" stroke="#55D8FF" stroke-opacity="0.48"/>
<path d="M212 -15.2051L412 331.205" stroke="#55D8FF" stroke-opacity="0.48"/>
<path d="M196 -15.2051L396 331.205" stroke="#55D8FF" stroke-opacity="0.48"/>
<path d="M180 -15.2051L380 331.205" stroke="#55D8FF" stroke-opacity="0.48"/>
<path d="M164 -15.2051L364 331.205" stroke="#55D8FF" stroke-opacity="0.48"/>
<path d="M780 -15.2051L580 331.205" stroke="#55D8FF" stroke-opacity="0.48"/>
<path d="M764 -15.2051L564 331.205" stroke="#55D8FF" stroke-opacity="0.48"/>
<path d="M748 -15.2051L548 331.205" stroke="#55D8FF" stroke-opacity="0.48"/>
<path d="M732 -15.2051L532 331.205" stroke="#55D8FF" stroke-opacity="0.48"/>
<path d="M716 -15.2051L516 331.205" stroke="#55D8FF" stroke-opacity="0.48"/>
<path d="M700 -15.2051L500 331.205" stroke="#55D8FF" stroke-opacity="0.48"/>
<path d="M684 -15.2051L484 331.205" stroke="#55D8FF" stroke-opacity="0.48"/>
<path d="M668 -15.2051L468 331.205" stroke="#55D8FF" stroke-opacity="0.48"/>
<path d="M652 -15.2051L452 331.205" stroke="#55D8FF" stroke-opacity="0.48"/>
<path d="M636 -15.2051L436 331.205" stroke="#55D8FF" stroke-opacity="0.48"/>
<path d="M620 -15.2051L420 331.205" stroke="#55D8FF" stroke-opacity="0.48"/>
<path d="M604 -15.2051L404 331.205" stroke="#55D8FF" stroke-opacity="0.48"/>
<path d="M588 -15.2051L388 331.205" stroke="#55D8FF" stroke-opacity="0.48"/>
<path d="M572 -15.2051L372 331.205" stroke="#55D8FF" stroke-opacity="0.48"/>
<path d="M556 -15.2051L356 331.205" stroke="#55D8FF" stroke-opacity="0.48"/>
<path d="M540 -15.2051L340 331.205" stroke="#55D8FF" stroke-opacity="0.48"/>
<path d="M524 -15.2051L324 331.205" stroke="#55D8FF" stroke-opacity="0.48"/>
<path d="M508 -15.2051L308 331.205" stroke="#55D8FF" stroke-opacity="0.48"/>
<path d="M492 -15.2051L292 331.205" stroke="#55D8FF" stroke-opacity="0.48"/>
<path d="M476 -15.2051L276 331.205" stroke="#55D8FF" stroke-opacity="0.48"/>
<path d="M460 -15.2051L260 331.205" stroke="#55D8FF" stroke-opacity="0.48"/>
<path d="M444 -15.2051L244 331.205" stroke="#55D8FF" stroke-opacity="0.48"/>
<path d="M428 -15.2051L228 331.205" stroke="#55D8FF" stroke-opacity="0.48"/>
<path d="M412 -15.2051L212 331.205" stroke="#55D8FF" stroke-opacity="0.48"/>
<path d="M396 -15.2051L196 331.205" stroke="#55D8FF" stroke-opacity="0.48"/>
<path d="M380 -15.2051L180 331.205" stroke="#55D8FF" stroke-opacity="0.48"/>
<path d="M364 -15.2051L164 331.205" stroke="#55D8FF" stroke-opacity="0.48"/>
<path d="M348 -15.2051L148 331.205" stroke="#55D8FF" stroke-opacity="0.48"/>
<g clip-path="url(#clip3_1102_13999)">
<path d="M600 268.708L624 282.564L600 296.42L576 282.564L600 268.708Z" stroke="#55D8FF" stroke-opacity="0.8"/>
<path d="M552 268.708L576 282.564L552 296.42L528 282.564L552 268.708Z" stroke="#55D8FF" stroke-opacity="0.8"/>
<path d="M504 268.708L528 282.564L504 296.42L480 282.564L504 268.708Z" stroke="#55D8FF" stroke-opacity="0.8"/>
<path d="M456 268.708L480 282.564L456 296.42L432 282.564L456 268.708Z" stroke="#55D8FF" stroke-opacity="0.8"/>
<path d="M408 268.708L432 282.564L408 296.42L384 282.564L408 268.708Z" stroke="#55D8FF" stroke-opacity="0.8"/>
<path d="M360 268.708L384 282.564L360 296.42L336 282.564L360 268.708Z" stroke="#55D8FF" stroke-opacity="0.8"/>
<path d="M312 268.708L336 282.564L312 296.42L288 282.564L312 268.708Z" stroke="#55D8FF" stroke-opacity="0.8"/>
<path d="M600 240.995L624 254.851L600 268.708L576 254.851L600 240.995Z" stroke="#55D8FF" stroke-opacity="0.8"/>
<path d="M552 240.995L576 254.851L552 268.708L528 254.851L552 240.995Z" stroke="#55D8FF" stroke-opacity="0.8"/>
<path d="M504 240.995L528 254.851L504 268.708L480 254.851L504 240.995Z" stroke="#55D8FF" stroke-opacity="0.8"/>
<path d="M456 240.995L480 254.851L456 268.708L432 254.851L456 240.995Z" stroke="#55D8FF" stroke-opacity="0.8"/>
<path d="M408 240.995L432 254.851L408 268.708L384 254.851L408 240.995Z" stroke="#55D8FF" stroke-opacity="0.8"/>
<path d="M360 240.995L384 254.851L360 268.708L336 254.851L360 240.995Z" stroke="#55D8FF" stroke-opacity="0.8"/>
<path d="M312 240.995L336 254.851L312 268.708L288 254.851L312 240.995Z" stroke="#55D8FF" stroke-opacity="0.8"/>
<path d="M600 213.282L624 227.138L600 240.995L576 227.138L600 213.282Z" stroke="#55D8FF" stroke-opacity="0.8"/>
<path d="M552 213.282L576 227.138L552 240.995L528 227.138L552 213.282Z" stroke="#55D8FF" stroke-opacity="0.8"/>
<path d="M504 213.282L528 227.138L504 240.995L480 227.138L504 213.282Z" stroke="#55D8FF" stroke-opacity="0.8"/>
<path d="M456 213.282L480 227.138L456 240.995L432 227.138L456 213.282Z" stroke="#55D8FF" stroke-opacity="0.8"/>
<path d="M408 213.282L432 227.138L408 240.995L384 227.138L408 213.282Z" stroke="#55D8FF" stroke-opacity="0.8"/>
<path d="M360 213.282L384 227.138L360 240.995L336 227.138L360 213.282Z" stroke="#55D8FF" stroke-opacity="0.8"/>
<path d="M312 213.282L336 227.138L312 240.995L288 227.138L312 213.282Z" stroke="#55D8FF" stroke-opacity="0.8"/>
<path d="M600 185.569L624 199.426L600 213.282L576 199.426L600 185.569Z" stroke="#55D8FF" stroke-opacity="0.8"/>
<path d="M552 185.569L576 199.426L552 213.282L528 199.426L552 185.569Z" stroke="#55D8FF" stroke-opacity="0.8"/>
<path d="M504 185.569L528 199.426L504 213.282L480 199.426L504 185.569Z" stroke="#55D8FF" stroke-opacity="0.8"/>
<path d="M456 185.569L480 199.426L456 213.282L432 199.426L456 185.569Z" stroke="#55D8FF" stroke-opacity="0.8"/>
<path d="M408 185.569L432 199.426L408 213.282L384 199.426L408 185.569Z" stroke="#55D8FF" stroke-opacity="0.8"/>
<path d="M360 185.569L384 199.426L360 213.282L336 199.426L360 185.569Z" stroke="#55D8FF" stroke-opacity="0.8"/>
<path d="M312 185.569L336 199.426L312 213.282L288 199.426L312 185.569Z" stroke="#55D8FF" stroke-opacity="0.8"/>
<path d="M600 157.856L624 171.713L600 185.569L576 171.713L600 157.856Z" stroke="#55D8FF" stroke-opacity="0.8"/>
<path d="M552 157.856L576 171.713L552 185.569L528 171.713L552 157.856Z" stroke="#55D8FF" stroke-opacity="0.8"/>
<path d="M504 157.856L528 171.713L504 185.569L480 171.713L504 157.856Z" stroke="#55D8FF" stroke-opacity="0.8"/>
<path d="M456 157.856L480 171.713L456 185.569L432 171.713L456 157.856Z" stroke="#55D8FF" stroke-opacity="0.8"/>
<path d="M408 157.856L432 171.713L408 185.569L384 171.713L408 157.856Z" stroke="#55D8FF" stroke-opacity="0.8"/>
<path d="M360 157.856L384 171.713L360 185.569L336 171.713L360 157.856Z" stroke="#55D8FF" stroke-opacity="0.8"/>
<path d="M312 157.856L336 171.713L312 185.569L288 171.713L312 157.856Z" stroke="#55D8FF" stroke-opacity="0.8"/>
<path d="M600 130.144L624 144L600 157.856L576 144L600 130.144Z" stroke="#55D8FF" stroke-opacity="0.8"/>
<path d="M552 130.144L576 144L552 157.856L528 144L552 130.144Z" stroke="#55D8FF" stroke-opacity="0.8"/>
<path d="M504 130.144L528 144L504 157.856L480 144L504 130.144Z" stroke="#55D8FF" stroke-opacity="0.8"/>
<path d="M456 130.144L480 144L456 157.856L432 144L456 130.144Z" stroke="#55D8FF" stroke-opacity="0.8"/>
<path d="M408 130.144L432 144L408 157.856L384 144L408 130.144Z" stroke="#55D8FF" stroke-opacity="0.8"/>
<path d="M360 130.144L384 144L360 157.856L336 144L360 130.144Z" stroke="#55D8FF" stroke-opacity="0.8"/>
<path d="M312 130.144L336 144L312 157.856L288 144L312 130.144Z" stroke="#55D8FF" stroke-opacity="0.8"/>
<path d="M600 102.431L624 116.287L600 130.144L576 116.287L600 102.431Z" stroke="#55D8FF" stroke-opacity="0.8"/>
<path d="M552 102.431L576 116.287L552 130.144L528 116.287L552 102.431Z" stroke="#55D8FF" stroke-opacity="0.8"/>
<path d="M504 102.431L528 116.287L504 130.144L480 116.287L504 102.431Z" stroke="#55D8FF" stroke-opacity="0.8"/>
<path d="M456 102.431L480 116.287L456 130.144L432 116.287L456 102.431Z" stroke="#55D8FF" stroke-opacity="0.8"/>
<path d="M408 102.431L432 116.287L408 130.144L384 116.287L408 102.431Z" stroke="#55D8FF" stroke-opacity="0.8"/>
<path d="M360 102.431L384 116.287L360 130.144L336 116.287L360 102.431Z" stroke="#55D8FF" stroke-opacity="0.8"/>
<path d="M312 102.431L336 116.287L312 130.144L288 116.287L312 102.431Z" stroke="#55D8FF" stroke-opacity="0.8"/>
<path d="M600 74.718L624 88.5744L600 102.431L576 88.5744L600 74.718Z" stroke="#55D8FF" stroke-opacity="0.8"/>
<path d="M552 74.718L576 88.5744L552 102.431L528 88.5744L552 74.718Z" stroke="#55D8FF" stroke-opacity="0.8"/>
<path d="M504 74.718L528 88.5744L504 102.431L480 88.5744L504 74.718Z" stroke="#55D8FF" stroke-opacity="0.8"/>
<path d="M456 74.718L480 88.5744L456 102.431L432 88.5744L456 74.718Z" stroke="#55D8FF" stroke-opacity="0.8"/>
<path d="M408 74.718L432 88.5744L408 102.431L384 88.5744L408 74.718Z" stroke="#55D8FF" stroke-opacity="0.8"/>
<path d="M360 74.718L384 88.5744L360 102.431L336 88.5744L360 74.718Z" stroke="#55D8FF" stroke-opacity="0.8"/>
<path d="M312 74.718L336 88.5744L312 102.431L288 88.5744L312 74.718Z" stroke="#55D8FF" stroke-opacity="0.8"/>
<path d="M600 47.0051L624 60.8615L600 74.7179L576 60.8615L600 47.0051Z" stroke="#55D8FF" stroke-opacity="0.8"/>
<path d="M552 47.0051L576 60.8615L552 74.7179L528 60.8615L552 47.0051Z" stroke="#55D8FF" stroke-opacity="0.8"/>
<path d="M504 47.0051L528 60.8615L504 74.7179L480 60.8615L504 47.0051Z" stroke="#55D8FF" stroke-opacity="0.8"/>
<path d="M456 47.0051L480 60.8615L456 74.7179L432 60.8615L456 47.0051Z" stroke="#55D8FF" stroke-opacity="0.8"/>
<path d="M408 47.0051L432 60.8615L408 74.7179L384 60.8615L408 47.0051Z" stroke="#55D8FF" stroke-opacity="0.8"/>
<path d="M360 47.0051L384 60.8615L360 74.7179L336 60.8615L360 47.0051Z" stroke="#55D8FF" stroke-opacity="0.8"/>
<path d="M312 47.0051L336 60.8615L312 74.7179L288 60.8615L312 47.0051Z" stroke="#55D8FF" stroke-opacity="0.8"/>
<path d="M600 19.2924L624 33.1488L600 47.0052L576 33.1488L600 19.2924Z" stroke="#55D8FF" stroke-opacity="0.8"/>
<path d="M552 19.2924L576 33.1488L552 47.0052L528 33.1488L552 19.2924Z" stroke="#55D8FF" stroke-opacity="0.8"/>
<path d="M504 19.2924L528 33.1488L504 47.0052L480 33.1488L504 19.2924Z" stroke="#55D8FF" stroke-opacity="0.8"/>
<path d="M456 19.2924L480 33.1488L456 47.0052L432 33.1488L456 19.2924Z" stroke="#55D8FF" stroke-opacity="0.8"/>
<path d="M408 19.2924L432 33.1488L408 47.0052L384 33.1488L408 19.2924Z" stroke="#55D8FF" stroke-opacity="0.8"/>
<path d="M360 19.2924L384 33.1488L360 47.0052L336 33.1488L360 19.2924Z" stroke="#55D8FF" stroke-opacity="0.8"/>
<path d="M312 19.2924L336 33.1488L312 47.0052L288 33.1488L312 19.2924Z" stroke="#55D8FF" stroke-opacity="0.8"/>
<path d="M600 -8.42047L624 5.43594L600 19.2923L576 5.43594L600 -8.42047Z" stroke="#55D8FF" stroke-opacity="0.8"/>
<path d="M552 -8.42047L576 5.43594L552 19.2923L528 5.43594L552 -8.42047Z" stroke="#55D8FF" stroke-opacity="0.8"/>
<path d="M504 -8.42047L528 5.43594L504 19.2923L480 5.43594L504 -8.42047Z" stroke="#55D8FF" stroke-opacity="0.8"/>
<path d="M456 -8.42047L480 5.43594L456 19.2923L432 5.43594L456 -8.42047Z" stroke="#55D8FF" stroke-opacity="0.8"/>
<path d="M408 -8.42047L432 5.43594L408 19.2923L384 5.43594L408 -8.42047Z" stroke="#55D8FF" stroke-opacity="0.8"/>
<path d="M360 -8.42047L384 5.43594L360 19.2923L336 5.43594L360 -8.42047Z" stroke="#55D8FF" stroke-opacity="0.8"/>
<path d="M312 -8.42047L336 5.43594L312 19.2923L288 5.43594L312 -8.42047Z" stroke="#55D8FF" stroke-opacity="0.8"/>
</g>
</g>
<rect x="312.5" y="0.5" width="287" height="287" stroke="#18A3FF" stroke-opacity="0.24"/>
<defs>
<clipPath id="clip0_1102_13999">
<rect width="288" height="288" fill="white"/>
</clipPath>
<clipPath id="clip1_1102_13999">
<rect width="336" height="304.841" fill="white" transform="translate(-24 -8.42047)"/>
</clipPath>
<clipPath id="clip2_1102_13999">
<rect width="288" height="288" fill="white" transform="translate(312)"/>
</clipPath>
<clipPath id="clip3_1102_13999">
<rect width="336" height="304.841" fill="white" transform="translate(288 -8.42047)"/>
</clipPath>
</defs>
</svg>
