<svg width="333" height="176" viewBox="0 0 333 176" fill="none" xmlns="http://www.w3.org/2000/svg">
<g clip-path="url(#clip0_1417_13493)">
<path d="M253 92H319" stroke="#6E49CB" stroke-width="4" stroke-linecap="round" stroke-linejoin="round"/>
<circle cx="319" cy="92" r="12" fill="#4BEACC" stroke="#6E49CB" stroke-width="4" stroke-linecap="round"/>
<path d="M315.042 91.6506C314.652 91.2594 314.019 91.2583 313.627 91.6481C313.236 92.038 313.235 92.6712 313.625 93.0624L315.042 91.6506ZM317.078 95.1111L316.37 95.817C316.558 96.0053 316.813 96.1111 317.078 96.1111C317.344 96.1111 317.599 96.0053 317.787 95.817L317.078 95.1111ZM324.375 89.2059C324.765 88.8147 324.764 88.1815 324.373 87.7917C323.981 87.4018 323.348 87.4029 322.958 87.7941L324.375 89.2059ZM313.625 93.0624L316.37 95.817L317.787 94.4052L315.042 91.6506L313.625 93.0624ZM317.787 95.817L324.375 89.2059L322.958 87.7941L316.37 94.4052L317.787 95.817Z" fill="#6E49CB"/>
<circle cx="281" cy="92" r="12" fill="#FFD8A4" stroke="#6E49CB" stroke-width="4" stroke-linecap="round"/>
<path d="M283 85L283.992 85.124C284.047 84.688 283.81 84.2674 283.409 84.0876C283.008 83.9077 282.537 84.0108 282.247 84.3415L283 85ZM276 93L275.247 92.3415C274.989 92.6368 274.927 93.0559 275.089 93.4132C275.252 93.7705 275.608 94 276 94V93ZM282.25 91L281.258 90.876C281.222 91.1606 281.31 91.4468 281.5 91.6618C281.69 91.8768 281.963 92 282.25 92V91ZM286 91L286.753 91.6585C287.011 91.3632 287.073 90.9441 286.911 90.5868C286.748 90.2295 286.392 90 286 90V91ZM279 99L278.008 98.876C277.953 99.312 278.19 99.7326 278.591 99.9124C278.992 100.092 279.463 99.9892 279.753 99.6585L279 99ZM279.75 93L280.742 93.124C280.778 92.8394 280.69 92.5532 280.5 92.3382C280.31 92.1232 280.037 92 279.75 92V93ZM282.247 84.3415L275.247 92.3415L276.753 93.6585L283.753 85.6585L282.247 84.3415ZM283.242 91.124L283.992 85.124L282.008 84.876L281.258 90.876L283.242 91.124ZM286 90H282.25V92H286V90ZM279.753 99.6585L286.753 91.6585L285.247 90.3415L278.247 98.3415L279.753 99.6585ZM278.758 92.876L278.008 98.876L279.992 99.124L280.742 93.124L278.758 92.876ZM276 94H279.75V92H276V94Z" fill="#6E49CB"/>
<path d="M200 66.08H191V126H225L234 117H200V66.08Z" fill="#AC7FFF" fill-opacity="0.24"/>
<path d="M194 66H191V126H225L228 123" stroke="#6E49CB" stroke-width="4" stroke-linecap="round" stroke-linejoin="round"/>
<path d="M247 103H233V117L247 103Z" fill="#6E49CB" fill-opacity="0.24"/>
<path d="M233 117H200V58H247V95M233 117L247 103H233V117Z" stroke="#6E49CB" stroke-width="4" stroke-linecap="round" stroke-linejoin="round"/>
<path d="M212 94H226" stroke="#6E49CB" stroke-width="2" stroke-linecap="round"/>
<path d="M212 86H235" stroke="#6E49CB" stroke-width="2" stroke-linecap="round"/>
<path d="M212 78H235" stroke="#6E49CB" stroke-width="2" stroke-linecap="round"/>
<path d="M212 70H235" stroke="#6E49CB" stroke-width="2" stroke-linecap="round"/>
<circle cx="247" cy="92" r="6" fill="white" stroke="#6E49CB" stroke-width="4" stroke-linecap="round" stroke-linejoin="round"/>
</g>
<path d="M17 10.08H8V70H42L51 61H17V10.08Z" fill="#AC7FFF" fill-opacity="0.24"/>
<path d="M11 10H8V70H42L45 67" stroke="#6E49CB" stroke-width="4" stroke-linecap="round" stroke-linejoin="round"/>
<path d="M64 47H50V61L64 47Z" fill="#6E49CB" fill-opacity="0.24"/>
<path d="M50 61H17V2H64V39M50 61L64 47H50V61Z" stroke="#6E49CB" stroke-width="4" stroke-linecap="round" stroke-linejoin="round"/>
<path d="M29 38H43" stroke="#6E49CB" stroke-width="2" stroke-linecap="round"/>
<path d="M29 30H52" stroke="#6E49CB" stroke-width="2" stroke-linecap="round"/>
<path d="M29 22H52" stroke="#6E49CB" stroke-width="2" stroke-linecap="round"/>
<path d="M29 14H52" stroke="#6E49CB" stroke-width="2" stroke-linecap="round"/>
<circle cx="36" cy="140" r="34" fill="#4BEACC" stroke="#6E49CB" stroke-width="4" stroke-linecap="round"/>
<path d="M25.4167 139.505C24.637 138.723 23.3706 138.72 22.5882 139.5C21.8058 140.28 21.8036 141.546 22.5833 142.328L25.4167 139.505ZM31.0588 148L29.6422 149.412C30.0174 149.788 30.5272 150 31.0588 150C31.5905 150 32.1002 149.788 32.4755 149.412L31.0588 148ZM49.4167 132.412C50.1964 131.629 50.1942 130.363 49.4118 129.583C48.6294 128.804 47.363 128.806 46.5833 129.588L49.4167 132.412ZM22.5833 142.328L29.6422 149.412L32.4755 146.588L25.4167 139.505L22.5833 142.328ZM32.4755 149.412L49.4167 132.412L46.5833 129.588L29.6422 146.588L32.4755 149.412Z" fill="#6E49CB"/>
<path d="M80 144C79.4477 144 79 144.448 79 145C79 145.552 79.4477 146 80 146V144ZM320 145V146C320.552 146 321 145.552 321 145H320ZM320.707 115.293C320.317 114.902 319.683 114.902 319.293 115.293L312.929 121.657C312.538 122.047 312.538 122.681 312.929 123.071C313.319 123.462 313.953 123.462 314.343 123.071L320 117.414L325.657 123.071C326.047 123.462 326.681 123.462 327.071 123.071C327.462 122.681 327.462 122.047 327.071 121.657L320.707 115.293ZM80 146H320V144H80V146ZM321 145V116H319V145H321Z" fill="#999999"/>
<path d="M80 29C79.4477 29 79 29.4477 79 30C79 30.5523 79.4477 31 80 31V29ZM224 30H225C225 29.4477 224.552 29 224 29V30ZM223.293 47.7071C223.683 48.0976 224.317 48.0976 224.707 47.7071L231.071 41.3431C231.462 40.9526 231.462 40.3195 231.071 39.9289C230.681 39.5384 230.047 39.5384 229.657 39.9289L224 45.5858L218.343 39.9289C217.953 39.5384 217.319 39.5384 216.929 39.9289C216.538 40.3195 216.538 40.9526 216.929 41.3431L223.293 47.7071ZM80 31H224V29H80V31ZM223 30V47H225V30H223Z" fill="#999999"/>
<path d="M311 31C311.552 31 312 30.5523 312 30C312 29.4477 311.552 29 311 29V31ZM290 30V29C289.659 29 289.342 29.1737 289.158 29.4609L290 30ZM257.023 80.2144C257.142 80.7538 257.675 81.0952 258.214 80.9767L267.005 79.0471C267.545 78.9287 267.886 78.3954 267.767 77.8559C267.649 77.3165 267.116 76.9752 266.576 77.0936L258.762 78.8088L257.047 70.9949C256.929 70.4555 256.395 70.1141 255.856 70.2326C255.316 70.351 254.975 70.8843 255.094 71.4237L257.023 80.2144ZM311 29H290V31H311V29ZM289.158 29.4609L257.158 79.4609L258.842 80.5391L290.842 30.5391L289.158 29.4609Z" fill="#999999"/>
<circle cx="325" cy="30" r="6" fill="white" stroke="#6E49CB" stroke-width="4" stroke-linecap="round" stroke-linejoin="round"/>
<defs>
<clipPath id="clip0_1417_13493">
<rect width="144" height="72" fill="white" transform="translate(189 56)"/>
</clipPath>
</defs>
</svg>
