<svg width="312" height="144" viewBox="0 0 312 144" fill="none" xmlns="http://www.w3.org/2000/svg">
<g clip-path="url(#clip0_1474_13809)">
<path fill-rule="evenodd" clip-rule="evenodd" d="M0.5 72C0.5 52.4357 8.35779 34.7066 21.0895 21.7966L47.2538 47.9609C41.2171 54.174 37.5 62.6529 37.5 72C37.5 81.348 41.2178 89.8276 47.2555 96.0408L21.0913 122.205C8.3585 109.295 0.5 91.5652 0.5 72ZM20.3841 122.912L0 143.296L0.707107 144.003L21.0913 123.619C34.182 136.531 52.1604 144.5 72 144.5C91.8405 144.5 109.82 136.53 122.91 123.618L143.296 144.003L144.003 143.296L123.618 122.91C136.53 109.82 144.5 91.8405 144.5 72C144.5 52.1604 136.531 34.182 123.619 21.0913L144.003 0.707108L143.296 1.52588e-05L122.912 20.3841C109.821 7.47042 91.8414 -0.5 72 -0.5C52.1595 -0.5 34.1805 7.46971 21.0895 20.3824L0.707107 0L0 0.707107L20.3824 21.0895C7.46971 34.1805 -0.5 52.1595 -0.5 72C-0.5 91.8414 7.47042 109.821 20.3841 122.912ZM122.205 21.0913C109.295 8.3585 91.5652 0.5 72 0.5C52.4357 0.5 34.7066 8.35779 21.7966 21.0895L47.9609 47.2538C54.174 41.2171 62.6529 37.5 72 37.5C81.348 37.5 89.8276 41.2178 96.0408 47.2555L122.205 21.0913ZM95.3337 47.9627C89.3014 42.1059 81.0718 38.5 72 38.5C62.9291 38.5 54.7002 42.1052 48.6681 47.961L72.0017 71.2946L95.3337 47.9627ZM72.7088 72.0017L96.0407 48.6698C101.895 54.7018 105.5 62.9299 105.5 72C105.5 81.0709 101.895 89.2998 96.039 95.3319L72.7088 72.0017ZM71.2946 72.0017L47.961 48.6681C42.1052 54.7002 38.5 62.9291 38.5 72C38.5 81.0718 42.1059 89.3014 47.9627 95.3337L71.2946 72.0017ZM48.6699 96.0407L72.0017 72.7088L95.3319 96.039C89.2998 101.895 81.0709 105.5 72 105.5C62.93 105.5 54.7018 101.895 48.6699 96.0407ZM47.9627 96.7479C54.1756 102.784 62.6538 106.5 72 106.5C81.3471 106.5 89.826 102.783 96.0391 96.7462L122.203 122.91C109.293 135.642 91.5643 143.5 72 143.5C52.4365 143.5 34.7082 135.643 21.7984 122.912L47.9627 96.7479ZM96.7479 47.9627L122.912 21.7984C135.643 34.7082 143.5 52.4365 143.5 72C143.5 91.5643 135.642 109.293 122.91 122.203L96.7462 96.0391C102.783 89.826 106.5 81.3471 106.5 72C106.5 62.6538 102.784 54.1756 96.7479 47.9627Z" fill="#55D8FF" fill-opacity="0.8"/>
<path d="M126.45 28.0086C137.734 41.976 143.22 59.7457 141.772 77.6435C140.324 95.5413 132.054 112.198 118.672 124.17C105.289 136.143 87.8173 142.514 69.8694 141.968C51.9215 141.421 34.8699 133.998 22.2405 121.234C9.61106 108.47 2.36972 91.3404 2.01376 73.3877C1.65779 55.4349 8.21444 38.0319 20.328 24.7771C32.4415 11.5223 49.1854 3.42944 67.0976 2.17188C85.0098 0.914322 102.72 6.58826 116.567 18.0205" stroke="#AC7FFF" stroke-opacity="0.24" stroke-width="4" stroke-linecap="round"/>
<path fill-rule="evenodd" clip-rule="evenodd" d="M73 76C73 79.8022 72.1512 83.4062 70.6327 86.6327L91 107V119H78V114H73V109L71 107H65L62 104L60 106L54.2201 100.22C52.2315 100.729 50.1473 101 48 101C34.1929 101 23 89.8071 23 76C23 62.1929 34.1929 51 48 51C61.8071 51 73 62.1929 73 76ZM53.2026 64.9036C55.096 63.0101 54.5904 59.8148 51.9601 59.313C50.8833 59.1075 49.7718 59 48.6352 59C38.8956 59 31 66.8956 31 76.6352C31 77.7718 31.1075 78.8833 31.313 79.9601C31.8148 82.5904 35.0101 83.096 36.9036 81.2026L53.2026 64.9036Z" fill="#FFC46C"/>
<path d="M51.9601 59.313C54.5904 59.8148 55.096 63.0101 53.2026 64.9036L36.9036 81.2026C35.0101 83.096 31.8148 82.5904 31.313 79.9601C31.1075 78.8833 31 77.7718 31 76.6352C31 66.8956 38.8956 59 48.6352 59C49.7718 59 50.8833 59.1075 51.9601 59.313Z" stroke="#6E49CB" stroke-width="2" stroke-linecap="round"/>
<path d="M70.6327 86.6327L68.8231 85.7811C68.464 86.5442 68.6222 87.4506 69.2185 88.0469L70.6327 86.6327ZM54.2201 100.22L55.6343 98.8059C55.1347 98.3062 54.4085 98.1073 53.724 98.2826L54.2201 100.22ZM60 106L58.5858 107.414L60 108.828L61.4142 107.414L60 106ZM62 104L63.4142 102.586L62 101.172L60.5858 102.586L62 104ZM65 107L63.5858 108.414L64.1716 109H65V107ZM71 107L72.4142 105.586L71.8284 105H71V107ZM73 109H75V108.172L74.4142 107.586L73 109ZM73 114H71V116H73V114ZM78 114H80V112H78V114ZM78 119H76V121H78V119ZM91 119V121H93V119H91ZM91 107H93C93 106.47 92.7893 105.961 92.4142 105.586L91 107ZM71 76C71 79.5017 70.2188 82.8154 68.8231 85.7811L72.4424 87.4844C74.0836 83.997 75 80.1027 75 76H71ZM48 53C60.7025 53 71 63.2975 71 76H75C75 61.0883 62.9117 49 48 49V53ZM25 76C25 63.2975 35.2975 53 48 53V49C33.0883 49 21 61.0883 21 76H25ZM48 99C35.2975 99 25 88.7025 25 76H21C21 90.9117 33.0883 103 48 103V99ZM53.724 98.2826C51.8961 98.7506 49.9786 99 48 99V103C50.3161 103 52.5668 102.708 54.7162 102.158L53.724 98.2826ZM52.8059 101.634L58.5858 107.414L61.4142 104.586L55.6343 98.8059L52.8059 101.634ZM61.4142 107.414L63.4142 105.414L60.5858 102.586L58.5858 104.586L61.4142 107.414ZM60.5858 105.414L63.5858 108.414L66.4142 105.586L63.4142 102.586L60.5858 105.414ZM65 109H71V105H65V109ZM69.5858 108.414L71.5858 110.414L74.4142 107.586L72.4142 105.586L69.5858 108.414ZM71 109V114H75V109H71ZM73 116H78V112H73V116ZM76 114V119H80V114H76ZM78 121H91V117H78V121ZM93 119V107H89V119H93ZM92.4142 105.586L72.0469 85.2185L69.2185 88.0469L89.5858 108.414L92.4142 105.586Z" fill="#6E49CB"/>
<path d="M41 88L60 68" stroke="#6E49CB" stroke-width="2" stroke-linecap="round" stroke-linejoin="round"/>
<path d="M67 90L91.5 114.5" stroke="#6E49CB" stroke-width="2" stroke-linecap="round" stroke-linejoin="round"/>
<path d="M115.75 53C115.75 61.6985 108.698 68.75 100 68.75H84.25V53C84.25 44.3015 91.3015 37.25 100 37.25C108.698 37.25 115.75 44.3015 115.75 53Z" stroke="#AFA3C6" stroke-opacity="0.16" stroke-width="6"/>
<path d="M81.25 71.75H100C110.355 71.75 118.75 63.3553 118.75 53C118.75 42.6447 110.355 34.25 100 34.25C89.6447 34.25 81.25 42.6447 81.25 53V62.375" stroke="#6E49CB" stroke-width="4" stroke-linecap="round" stroke-linejoin="round"/>
<path fill-rule="evenodd" clip-rule="evenodd" d="M102 48C102 46.8954 101.105 46 100 46C98.8954 46 98 46.8954 98 48V51L95 51C93.8954 51 93 51.8954 93 53C93 54.1046 93.8954 55 95 55H98V58C98 59.1046 98.8954 60 100 60C101.105 60 102 59.1046 102 58V55H105C106.105 55 107 54.1046 107 53C107 51.8954 106.105 51 105 51L102 51V48Z" fill="#04AF92"/>
<circle cx="73" cy="72" r="6" fill="white" stroke="#6E49CB" stroke-width="4" stroke-linecap="round" stroke-linejoin="round"/>
</g>
<path d="M0 48H144" stroke="#55D8FF" stroke-opacity="0.8"/>
<path d="M0 96H144" stroke="#55D8FF" stroke-opacity="0.8"/>
<path d="M48 0L48 144" stroke="#55D8FF" stroke-opacity="0.8"/>
<path d="M96 0L96 144" stroke="#55D8FF" stroke-opacity="0.8"/>
<rect x="0.5" y="0.5" width="143" height="143" stroke="#18A3FF" stroke-opacity="0.24"/>
<path d="M294.45 28.0086C305.734 41.976 311.22 59.7457 309.772 77.6435C308.324 95.5413 300.054 112.198 286.672 124.17C273.289 136.143 255.817 142.514 237.869 141.968C219.921 141.421 202.87 133.998 190.24 121.234C177.611 108.47 170.37 91.3404 170.014 73.3877C169.658 55.4349 176.214 38.0319 188.328 24.7771C200.441 11.5223 217.185 3.42944 235.098 2.17188C253.01 0.914322 270.72 6.58826 284.567 18.0205" stroke="#AC7FFF" stroke-opacity="0.24" stroke-width="4" stroke-linecap="round"/>
<path fill-rule="evenodd" clip-rule="evenodd" d="M241 76C241 79.8022 240.151 83.4062 238.633 86.6327L259 107V119H246V114H241V109L239 107H233L230 104L228 106L222.22 100.22C220.231 100.729 218.147 101 216 101C202.193 101 191 89.8071 191 76C191 62.1929 202.193 51 216 51C229.807 51 241 62.1929 241 76ZM221.203 64.9036C223.096 63.0101 222.59 59.8148 219.96 59.313C218.883 59.1075 217.772 59 216.635 59C206.896 59 199 66.8956 199 76.6352C199 77.7718 199.108 78.8833 199.313 79.9601C199.815 82.5904 203.01 83.096 204.904 81.2026L221.203 64.9036Z" fill="#FFC46C"/>
<path d="M219.96 59.313C222.59 59.8148 223.096 63.0101 221.203 64.9036L204.904 81.2026C203.01 83.096 199.815 82.5904 199.313 79.9601C199.108 78.8833 199 77.7718 199 76.6352C199 66.8956 206.896 59 216.635 59C217.772 59 218.883 59.1075 219.96 59.313Z" stroke="#6E49CB" stroke-width="2" stroke-linecap="round"/>
<path d="M238.633 86.6327L236.823 85.7811C236.464 86.5442 236.622 87.4506 237.219 88.0469L238.633 86.6327ZM222.22 100.22L223.634 98.8059C223.135 98.3062 222.408 98.1073 221.724 98.2826L222.22 100.22ZM228 106L226.586 107.414L228 108.828L229.414 107.414L228 106ZM230 104L231.414 102.586L230 101.172L228.586 102.586L230 104ZM233 107L231.586 108.414L232.172 109H233V107ZM239 107L240.414 105.586L239.828 105H239V107ZM241 109H243V108.172L242.414 107.586L241 109ZM241 114H239V116H241V114ZM246 114H248V112H246V114ZM246 119H244V121H246V119ZM259 119V121H261V119H259ZM259 107H261C261 106.47 260.789 105.961 260.414 105.586L259 107ZM239 76C239 79.5017 238.219 82.8154 236.823 85.7811L240.442 87.4844C242.084 83.997 243 80.1027 243 76H239ZM216 53C228.703 53 239 63.2975 239 76H243C243 61.0883 230.912 49 216 49V53ZM193 76C193 63.2975 203.297 53 216 53V49C201.088 49 189 61.0883 189 76H193ZM216 99C203.297 99 193 88.7025 193 76H189C189 90.9117 201.088 103 216 103V99ZM221.724 98.2826C219.896 98.7506 217.979 99 216 99V103C218.316 103 220.567 102.708 222.716 102.158L221.724 98.2826ZM220.806 101.634L226.586 107.414L229.414 104.586L223.634 98.8059L220.806 101.634ZM229.414 107.414L231.414 105.414L228.586 102.586L226.586 104.586L229.414 107.414ZM228.586 105.414L231.586 108.414L234.414 105.586L231.414 102.586L228.586 105.414ZM233 109H239V105H233V109ZM237.586 108.414L239.586 110.414L242.414 107.586L240.414 105.586L237.586 108.414ZM239 109V114H243V109H239ZM241 116H246V112H241V116ZM244 114V119H248V114H244ZM246 121H259V117H246V121ZM261 119V107H257V119H261ZM260.414 105.586L240.047 85.2185L237.219 88.0469L257.586 108.414L260.414 105.586Z" fill="#6E49CB"/>
<path d="M209 88L228 68" stroke="#6E49CB" stroke-width="2" stroke-linecap="round" stroke-linejoin="round"/>
<path d="M235 90L259.5 114.5" stroke="#6E49CB" stroke-width="2" stroke-linecap="round" stroke-linejoin="round"/>
<path d="M283.75 53C283.75 61.6985 276.698 68.75 268 68.75H252.25V53C252.25 44.3015 259.302 37.25 268 37.25C276.698 37.25 283.75 44.3015 283.75 53Z" stroke="#AFA3C6" stroke-opacity="0.16" stroke-width="6"/>
<path d="M249.25 71.75H268C278.355 71.75 286.75 63.3553 286.75 53C286.75 42.6447 278.355 34.25 268 34.25C257.645 34.25 249.25 42.6447 249.25 53V62.375" stroke="#6E49CB" stroke-width="4" stroke-linecap="round" stroke-linejoin="round"/>
<path fill-rule="evenodd" clip-rule="evenodd" d="M270 48C270 46.8954 269.105 46 268 46C266.895 46 266 46.8954 266 48V51L263 51C261.895 51 261 51.8954 261 53C261 54.1046 261.895 55 263 55H266V58C266 59.1046 266.895 60 268 60C269.105 60 270 59.1046 270 58V55H273C274.105 55 275 54.1046 275 53C275 51.8954 274.105 51 273 51L270 51V48Z" fill="#04AF92"/>
<circle cx="241" cy="72" r="6" fill="white" stroke="#6E49CB" stroke-width="4" stroke-linecap="round" stroke-linejoin="round"/>
<rect x="168.5" y="0.5" width="143" height="143" stroke="#18A3FF" stroke-opacity="0.24"/>
<defs>
<clipPath id="clip0_1474_13809">
<rect width="144" height="144" fill="white"/>
</clipPath>
</defs>
</svg>
