<svg width="369" height="231" xmlns="http://www.w3.org/2000/svg"><g fill="none" fill-rule="evenodd"><g fill="#F2F2F2"><path d="M125 197.5a9.5 9.5 0 0 1 9.5-9.5h21a9.5 9.5 0 0 1 9.5 9.5 9.5 9.5 0 0 0 9.5 9.5H234c6.627 0 12 5.373 12 12s-5.373 12-12 12H102c-6.627 0-12-5.373-12-12s5.373-12 12-12h13.5a9.5 9.5 0 0 0 9.5-9.5zM296 150V78h61c6.627 0 12 5.373 12 12s-5.373 12-12 12h-24c-6.627 0-12 5.373-12 12s5.373 12 12 12 12 5.373 12 12-5.373 12-12 12h-37zM157 21v36H42c-6.627 0-12-5.373-12-12s-5.373-12-12-12h-5C6.373 33 1 27.627 1 21S6.373 9 13 9h132c6.627 0 12 5.373 12 12z"/></g><rect stroke="#DFDFDF" stroke-width="4" fill="#FFF" x="42" y="23" width="268" height="175" rx="8"/><path fill="#DFDFDF" d="M43 55h266v2H43z"/><g stroke-linecap="round"><path d="M202 81h4M202 114h4M202 92h4M202 125h4M202 103h4M202 136h4M202 147h4M202 158h4M202 169h4" stroke="#F9E2D5" stroke-width="2"/><path d="M217.5 81h12M217.5 92h7M217.5 125h7M232.5 92h16M232.5 125h16M217.5 136h17M275.5 114h12M251.5 81h16M251.5 114h16M232.5 158h16M217.5 169h17M242.5 169h11M275.5 147h12M237.5 147h6" stroke="#DFDFDF" stroke-width="4"/><path d="M217.5 114h12M242.5 103h11M242.5 136h11M256.5 158h11M251.5 147h16" stroke="#C2B7E6" stroke-width="4"/><path d="M256.5 125h11M217.5 103h17M237.5 81h6M237.5 114h6M217.5 147h12M217.5 158h7" stroke="#6E49CB" stroke-width="4"/></g><g stroke-linecap="round"><path d="M90 81h4M90 114h4M90 92h4M90 125h4" stroke="#C2B7E6" stroke-width="2"/><path d="M105.5 81h12M105.5 92h7M105.5 125h7M120.5 92h16M120.5 125h16M144.5 125h11M105.5 103h17M130.5 103h11M163.5 81h12M163.5 114h12M105.5 147h12M105.5 158h7M120.5 158h16M144.5 158h11M105.5 169h17M130.5 169h11M163.5 147h12" stroke="#DFDFDF" stroke-width="4"/><path d="M105.5 114h12M144.5 92h11M105.5 136h17M125.5 81h6M139.5 114h16M139.5 147h16" stroke="#FC6D26" stroke-width="4"/><path d="M90 103h4M90 136h4" stroke="#C2B7E6" stroke-width="2"/><path d="M130.5 136h11M125.5 114h6M139.5 81h16M125.5 147h6" stroke="#F4C6AC" stroke-width="4"/></g><g transform="translate(252 72)"><circle stroke="#FC6D26" stroke-width="4" fill="#FCF0EA" cx="20" cy="20" r="18"/><path d="M10.917 4.407C14.43 10.16 20.767 14 28 14c2.907 0 5.67-.62 8.162-1.736M2.25 19.004A20.06 20.06 0 0 0 14.067 8.592" stroke="#FC6D26" stroke-width="2"/><circle fill="#FC6D26" cx="26" cy="23" r="2"/><circle fill="#FC6D26" cx="14" cy="23" r="2"/></g><g stroke-width="4"><path d="M274 64.198V17a6 6 0 0 1 6-6h64a6 6 0 0 1 6 6v32a6 6 0 0 1-6 6h-56.621L274 64.198z" stroke="#F9E2D5" fill="#FFF"/><path d="M285.298 23h45.452M285.393 33h53.357M285.202 43h37.548" stroke="#F4C6AC" stroke-linecap="round"/></g><g transform="translate(60 144)"><circle stroke="#6E49CB" stroke-width="4" fill="#EFEDF8" cx="20" cy="20" r="18"/><path d="M23 6.5l-3 6-3-6-3 6-3-6.571c3.313-2.607 6.313-3.91 9-3.91 2.687 0 5.687 1.303 9 3.91L26 12.5l-3-6z" fill="#6E49CB"/><circle fill="#6E49CB" cx="26" cy="23" r="2"/><circle fill="#6E49CB" cx="14" cy="23" r="2"/></g><g stroke-width="4"><path d="M78 136.198V89a6 6 0 0 0-6-6H8a6 6 0 0 0-6 6v32a6 6 0 0 0 6 6h56.621L78 136.198z" stroke="#E0DBF2" fill="#FFF"/><path d="M13.298 95H58.75M13.393 105H66.75M13.202 115H50.75" stroke="#C2B7E6" stroke-linecap="round"/></g></g></svg>