<svg width="165" height="165" xmlns="http://www.w3.org/2000/svg" xmlns:xlink="http://www.w3.org/1999/xlink"><defs><path id="a" d="M62.5 43l-40 40 40 40"/><path id="b" d="M142.5 43l-40 40 40 40"/></defs><g fill="none" fill-rule="evenodd"><path fill="#FFF" d="M0 0h165v165H0z"/><g stroke="#DFDFDF"><path d="M2.5 2.5h160v160H2.5z"/><g stroke-linecap="square"><path d="M12.5 2.5v160M22.5 2.5v160M32.5 2.5v160M42.5 2.5v160M52.5 2.5v160M62.5 2.5v160M72.5 2.5v160M82.5 2.5v160M92.5 2.5v160M102.5 2.5v160M112.5 2.5v160M122.5 2.5v160M132.5 2.5v160M142.5 2.5v160M152.5 2.5v160M162.5 12.5H2.5M162.5 22.5H2.5M162.5 32.5H2.5M162.5 42.5H2.5M162.5 52.5H2.5M162.5 62.5H2.5M162.5 72.5H2.5M162.5 82.5H2.5M162.5 92.5H2.5M162.5 102.5H2.5M162.5 112.5H2.5M162.5 122.5H2.5M162.5 132.5H2.5M162.5 142.5H2.5M162.5 152.5H2.5"/></g></g><g style="mix-blend-mode:multiply" stroke-linecap="round" stroke-linejoin="round"><use stroke="#C2B7E6" stroke-width="21" xlink:href="#a"/><use stroke="#6E49CB" xlink:href="#a"/></g><g style="mix-blend-mode:multiply" stroke-linecap="round" transform="matrix(-1 0 0 1 245 0)"><use stroke="#C2B7E6" stroke-width="21" xlink:href="#b"/><use stroke="#6E49CB" xlink:href="#b"/></g><circle stroke="#DB3B21" fill-opacity=".499" fill="#FC6D26" cx="22.5" cy="82.5" r="10"/><path stroke="#DB3B21" fill-opacity=".499" fill="#FC6D26" d="M142.5 72.5h20v20h-20zM48.707 42.85L62.85 56.99l7.071-7.07c3.906-3.906 3.906-10.238 0-14.143-3.905-3.905-10.237-3.905-14.142 0l-7.07 7.071z"/><g fill="#FFF" stroke="#6E49CB"><path d="M60.5 40.5h4v4h-4zM100.5 40.5h4v4h-4zM20.5 80.5h4v4h-4zM140.5 80.5h4v4h-4zM60.5 120.5h4v4h-4zM100.5 120.5h4v4h-4z"/></g></g></svg>