<svg width="144" height="144" viewBox="0 0 144 144" fill="none" xmlns="http://www.w3.org/2000/svg">
<path d="M126.45 28.0086C137.734 41.976 143.22 59.7457 141.772 77.6435C140.324 95.5413 132.054 112.198 118.672 124.17C105.289 136.143 87.8173 142.514 69.8694 141.968C51.9215 141.421 34.8699 133.998 22.2405 121.234C9.61106 108.47 2.36972 91.3404 2.01376 73.3877C1.65779 55.4349 8.21444 38.0319 20.328 24.7771C32.4415 11.5223 49.1854 3.42944 67.0976 2.17188C85.0098 0.914322 102.72 6.58826 116.567 18.0205" stroke="#AC7FFF" stroke-opacity="0.24" stroke-width="4" stroke-linecap="round"/>
<path d="M27.7916 78.417C27.7916 87.0254 34.7915 94.0039 43.4264 94.0039H83.4907C85.4973 94.0039 87.4031 93.5732 89.1199 92.7994C86.7891 97.0027 82.2975 100 77.139 100H37.0748C28.4399 100 21.4399 93.0215 21.4399 84.4131C21.4399 78.3198 24.947 72.8922 30.0585 70.329C28.6201 72.6869 27.7916 75.4555 27.7916 78.417Z" fill="#AC7FFF" fill-opacity="0.24"/>
<path d="M45 99.9987H76.7053C78.515 100.025 80.3105 99.6489 81.9786 98.9361C83.6466 98.2233 85.1512 97.1675 86.3974 95.8354C87.6437 94.5033 88.6047 92.9237 89.2198 91.196C89.8349 89.4684 90.0908 87.6301 89.9715 85.7971C89.8521 83.9642 89.3601 82.1761 88.5263 80.5456C87.6925 78.9152 86.5351 77.4776 85.127 76.3236C83.7188 75.1695 82.0905 74.3239 80.3445 73.8401C78.5985 73.3563 76.7727 73.2447 74.9821 73.5124C74.7354 69.3838 73.0621 65.4757 70.2565 62.4758C67.4509 59.4759 63.6928 57.5764 59.6434 57.1114C55.5941 56.6465 51.5129 57.6459 48.1179 59.9339C44.7229 62.2218 42.2317 65.6517 41.0826 69.6201C39.8187 69.2873 38.5182 69.1186 37.2124 69.1183C35.2147 69.1183 33.2365 69.5177 31.3909 70.2937C29.5452 71.0696 27.8682 72.2069 26.4556 73.6407C25.043 75.0744 23.9225 76.7765 23.158 78.6498C22.3935 80.5231 22 82.5309 22 84.5585C22 86.5862 22.3935 88.5939 23.158 90.4672C23.9225 92.3405 25.043 94.0426 26.4556 95.4764C27.8682 96.9101 29.5452 98.0475 31.3909 98.8234C33.1326 99.5556 35.1172 99.9576 37 100" stroke="#6E49CB" stroke-width="4" stroke-linecap="round"/>
<circle cx="56" cy="100" r="12" fill="#4BEACC" stroke="#6E49CB" stroke-width="4" stroke-linecap="round"/>
<path d="M52.0417 99.6506C51.6518 99.2594 51.0186 99.2583 50.6274 99.6481C50.2362 100.038 50.2352 100.671 50.625 101.062L52.0417 99.6506ZM54.0784 103.111L53.3701 103.817C53.5577 104.005 53.8126 104.111 54.0784 104.111C54.3442 104.111 54.5991 104.005 54.7868 103.817L54.0784 103.111ZM61.375 97.2059C61.7648 96.8147 61.7637 96.1815 61.3725 95.7917C60.9813 95.4018 60.3482 95.4029 59.9583 95.7941L61.375 97.2059ZM50.625 101.062L53.3701 103.817L54.7868 102.405L52.0417 99.6506L50.625 101.062ZM54.7868 103.817L61.375 97.2059L59.9583 95.7941L53.3701 102.405L54.7868 103.817Z" fill="#6E49CB"/>
<path d="M117.75 51C117.75 59.6985 110.698 66.75 102 66.75H86.25V51C86.25 42.3015 93.3015 35.25 102 35.25C110.698 35.25 117.75 42.3015 117.75 51Z" stroke="#AFA3C6" stroke-opacity="0.16" stroke-width="6"/>
<path d="M83.25 69.75H102C112.355 69.75 120.75 61.3553 120.75 51C120.75 40.6447 112.355 32.25 102 32.25C91.6447 32.25 83.25 40.6447 83.25 51V60.375" stroke="#6E49CB" stroke-width="4" stroke-linecap="round" stroke-linejoin="round"/>
<path fill-rule="evenodd" clip-rule="evenodd" d="M104 46C104 44.8954 103.105 44 102 44C100.895 44 100 44.8954 100 46V49L97 49C95.8954 49 95 49.8954 95 51C95 52.1046 95.8954 53 97 53H100V56C100 57.1046 100.895 58 102 58C103.105 58 104 57.1046 104 56V53H107C108.105 53 109 52.1046 109 51C109 49.8954 108.105 49 107 49L104 49V46Z" fill="#04AF92"/>
<circle cx="75" cy="70" r="6" fill="white" stroke="#6E49CB" stroke-width="4" stroke-linecap="round" stroke-linejoin="round"/>
</svg>
