<svg width="312" height="144" viewBox="0 0 312 144" fill="none" xmlns="http://www.w3.org/2000/svg">
<g clip-path="url(#clip0_1474_13809)">
<circle cx="72" cy="72" r="72" fill="#E7E4F2"/>
<path fill-rule="evenodd" clip-rule="evenodd" d="M0.5 72C0.5 52.4357 8.35779 34.7066 21.0895 21.7966L47.2538 47.9609C41.2171 54.174 37.5 62.6529 37.5 72C37.5 81.348 41.2178 89.8276 47.2555 96.0408L21.0913 122.205C8.3585 109.295 0.5 91.5652 0.5 72ZM20.3841 122.912L0 143.296L0.707107 144.003L21.0913 123.619C34.182 136.531 52.1604 144.5 72 144.5C91.8405 144.5 109.82 136.53 122.91 123.618L143.296 144.003L144.003 143.296L123.618 122.91C136.53 109.82 144.5 91.8405 144.5 72C144.5 52.1604 136.531 34.182 123.619 21.0913L144.003 0.707108L143.296 1.52588e-05L122.912 20.3841C109.821 7.47042 91.8414 -0.5 72 -0.5C52.1595 -0.5 34.1805 7.46971 21.0895 20.3824L0.707107 0L0 0.707107L20.3824 21.0895C7.46971 34.1805 -0.5 52.1595 -0.5 72C-0.5 91.8414 7.47042 109.821 20.3841 122.912ZM122.205 21.0913C109.295 8.3585 91.5652 0.5 72 0.5C52.4357 0.5 34.7066 8.35779 21.7966 21.0895L47.9609 47.2538C54.174 41.2171 62.6529 37.5 72 37.5C81.348 37.5 89.8276 41.2178 96.0408 47.2555L122.205 21.0913ZM95.3337 47.9627C89.3014 42.1059 81.0718 38.5 72 38.5C62.9291 38.5 54.7002 42.1052 48.6681 47.961L72.0017 71.2946L95.3337 47.9627ZM72.7088 72.0017L96.0407 48.6698C101.895 54.7018 105.5 62.9299 105.5 72C105.5 81.0709 101.895 89.2998 96.039 95.3319L72.7088 72.0017ZM71.2946 72.0017L47.961 48.6681C42.1052 54.7002 38.5 62.9291 38.5 72C38.5 81.0718 42.1059 89.3014 47.9627 95.3337L71.2946 72.0017ZM48.6699 96.0407L72.0017 72.7088L95.3319 96.039C89.2998 101.895 81.0709 105.5 72 105.5C62.93 105.5 54.7018 101.895 48.6699 96.0407ZM47.9627 96.7479C54.1756 102.784 62.6538 106.5 72 106.5C81.3471 106.5 89.826 102.783 96.0391 96.7462L122.203 122.91C109.293 135.642 91.5643 143.5 72 143.5C52.4365 143.5 34.7082 135.643 21.7984 122.912L47.9627 96.7479ZM96.7479 47.9627L122.912 21.7984C135.643 34.7082 143.5 52.4365 143.5 72C143.5 91.5643 135.642 109.293 122.91 122.203L96.7462 96.0391C102.783 89.826 106.5 81.3471 106.5 72C106.5 62.6538 102.784 54.1756 96.7479 47.9627Z" fill="#55D8FF" fill-opacity="0.8"/>
<path fill-rule="evenodd" clip-rule="evenodd" d="M71 78C71 81.8022 70.1512 85.4062 68.6327 88.6327L91 111V123H86C81.5817 123 78 119.418 78 115H71V111L69 109H63L60 106L58 108L52.2201 102.22C50.2315 102.729 48.1473 103 46 103C32.1929 103 21 91.8071 21 78C21 64.1929 32.1929 53 46 53C59.8071 53 71 64.1929 71 78ZM30.1062 86L54 62.1062C51.511 60.7626 48.6622 60 45.6352 60C35.8956 60 28 67.8956 28 77.6352C28 80.6622 28.7626 83.511 30.1062 86Z" fill="white"/>
<path d="M68.6327 88.6327L67.7279 88.2069L67.4286 88.8429L67.9256 89.3398L68.6327 88.6327ZM91 111H92V110.586L91.7071 110.293L91 111ZM91 123V124H92V123H91ZM78 115H79V114H78V115ZM71 115H70V116H71V115ZM71 111H72V110.586L71.7071 110.293L71 111ZM69 109L69.7071 108.293L69.4142 108H69V109ZM63 109L62.2929 109.707L62.5858 110H63V109ZM60 106L60.7071 105.293L60 104.586L59.2929 105.293L60 106ZM58 108L57.2929 108.707L58 109.414L58.7071 108.707L58 108ZM52.2201 102.22L52.9272 101.513L52.5242 101.11L51.972 101.251L52.2201 102.22ZM54 62.1062L54.7071 62.8133L55.6565 61.8639L54.475 61.2262L54 62.1062ZM30.1062 86L29.2262 86.475L29.8639 87.6565L30.8133 86.7071L30.1062 86ZM69.5375 89.0585C71.1174 85.7016 72 81.9525 72 78H70C70 81.6519 69.185 85.1108 67.7279 88.2069L69.5375 89.0585ZM91.7071 110.293L69.3398 87.9256L67.9256 89.3398L90.2929 111.707L91.7071 110.293ZM92 123V111H90V123H92ZM86 124H91V122H86V124ZM77 115C77 119.971 81.0294 124 86 124V122C82.134 122 79 118.866 79 115H77ZM71 116H78V114H71V116ZM70 111V115H72V111H70ZM68.2929 109.707L70.2929 111.707L71.7071 110.293L69.7071 108.293L68.2929 109.707ZM63 110H69V108H63V110ZM59.2929 106.707L62.2929 109.707L63.7071 108.293L60.7071 105.293L59.2929 106.707ZM58.7071 108.707L60.7071 106.707L59.2929 105.293L57.2929 107.293L58.7071 108.707ZM51.513 102.927L57.2929 108.707L58.7071 107.293L52.9272 101.513L51.513 102.927ZM46 104C48.2317 104 50.3991 103.719 52.4681 103.189L51.972 101.251C50.0638 101.74 48.063 102 46 102V104ZM20 78C20 92.3594 31.6406 104 46 104V102C32.7452 102 22 91.2548 22 78H20ZM46 52C31.6406 52 20 63.6406 20 78H22C22 64.7452 32.7452 54 46 54V52ZM72 78C72 63.6406 60.3594 52 46 52V54C59.2548 54 70 64.7452 70 78H72ZM53.2929 61.399L29.399 85.2929L30.8133 86.7071L54.7071 62.8133L53.2929 61.399ZM45.6352 61C48.4923 61 51.1783 61.7194 53.525 62.9861L54.475 61.2262C51.8436 59.8058 48.8321 59 45.6352 59V61ZM29 77.6352C29 68.4478 36.4478 61 45.6352 61V59C35.3433 59 27 67.3433 27 77.6352H29ZM30.9861 85.525C29.7194 83.1783 29 80.4923 29 77.6352H27C27 80.8321 27.8058 83.8436 29.2262 86.475L30.9861 85.525Z" fill="#171321"/>
<path d="M65 92L90.5 117.5" stroke="#171321" stroke-width="2" stroke-linecap="square"/>
<path d="M60 67L35 92L39 96L64 71L60 67Z" fill="#FF9D73" stroke="#171321" stroke-width="2" stroke-linecap="square"/>
<path d="M96 70.5C108.426 70.5 118.5 60.4264 118.5 48C118.5 35.5736 108.426 25.5 96 25.5C83.5736 25.5 73.5 35.5736 73.5 48V70.5H96Z" fill="white"/>
<path d="M73.5 70.5H96C108.426 70.5 118.5 60.4264 118.5 48C118.5 35.5736 108.426 25.5 96 25.5C83.5736 25.5 73.5 35.5736 73.5 48V64.5" stroke="#171321" stroke-width="2" stroke-linecap="square"/>
<circle cx="96" cy="48" r="15" fill="#6FDAC9"/>
<path fill-rule="evenodd" clip-rule="evenodd" d="M97 42V41H95V42V47H90H89V49H90L95 49V54V55H97V54V49L102 49L103 49V47H102H97V42Z" fill="#171321"/>
<circle cx="73" cy="72" r="6" fill="white" stroke="#171321" stroke-width="2" stroke-linecap="square"/>
<path d="M125 48C125 44.1917 124.25 40.4206 122.793 36.9022C121.335 33.3837 119.199 30.1868 116.506 27.4939C113.813 24.801 110.616 22.6649 107.098 21.2075C103.579 19.7501 99.8083 19 96 19" stroke="#171321" stroke-width="2" stroke-linecap="square"/>
</g>
<path d="M0 48H144" stroke="#55D8FF" stroke-opacity="0.8"/>
<path d="M0 96H144" stroke="#55D8FF" stroke-opacity="0.8"/>
<path d="M48 0L48 144" stroke="#55D8FF" stroke-opacity="0.8"/>
<path d="M96 0L96 144" stroke="#55D8FF" stroke-opacity="0.8"/>
<rect x="0.5" y="0.5" width="143" height="143" stroke="#18A3FF" stroke-opacity="0.24"/>
<circle cx="240" cy="72" r="72" fill="#E7E4F2"/>
<path fill-rule="evenodd" clip-rule="evenodd" d="M239 78C239 81.8022 238.151 85.4062 236.633 88.6327L259 111V123H254C249.582 123 246 119.418 246 115H239V111L237 109H231L228 106L226 108L220.22 102.22C218.231 102.729 216.147 103 214 103C200.193 103 189 91.8071 189 78C189 64.1929 200.193 53 214 53C227.807 53 239 64.1929 239 78ZM198.106 86L222 62.1062C219.511 60.7626 216.662 60 213.635 60C203.896 60 196 67.8956 196 77.6352C196 80.6622 196.763 83.511 198.106 86Z" fill="white"/>
<path d="M236.633 88.6327L235.728 88.2069L235.429 88.8429L235.926 89.3398L236.633 88.6327ZM259 111H260V110.586L259.707 110.293L259 111ZM259 123V124H260V123H259ZM246 115H247V114H246V115ZM239 115H238V116H239V115ZM239 111H240V110.586L239.707 110.293L239 111ZM237 109L237.707 108.293L237.414 108H237V109ZM231 109L230.293 109.707L230.586 110H231V109ZM228 106L228.707 105.293L228 104.586L227.293 105.293L228 106ZM226 108L225.293 108.707L226 109.414L226.707 108.707L226 108ZM220.22 102.22L220.927 101.513L220.524 101.11L219.972 101.251L220.22 102.22ZM222 62.1062L222.707 62.8133L223.656 61.8639L222.475 61.2262L222 62.1062ZM198.106 86L197.226 86.475L197.864 87.6565L198.813 86.7071L198.106 86ZM237.538 89.0585C239.117 85.7016 240 81.9525 240 78H238C238 81.6519 237.185 85.1108 235.728 88.2069L237.538 89.0585ZM259.707 110.293L237.34 87.9256L235.926 89.3398L258.293 111.707L259.707 110.293ZM260 123V111H258V123H260ZM254 124H259V122H254V124ZM245 115C245 119.971 249.029 124 254 124V122C250.134 122 247 118.866 247 115H245ZM239 116H246V114H239V116ZM238 111V115H240V111H238ZM236.293 109.707L238.293 111.707L239.707 110.293L237.707 108.293L236.293 109.707ZM231 110H237V108H231V110ZM227.293 106.707L230.293 109.707L231.707 108.293L228.707 105.293L227.293 106.707ZM226.707 108.707L228.707 106.707L227.293 105.293L225.293 107.293L226.707 108.707ZM219.513 102.927L225.293 108.707L226.707 107.293L220.927 101.513L219.513 102.927ZM214 104C216.232 104 218.399 103.719 220.468 103.189L219.972 101.251C218.064 101.74 216.063 102 214 102V104ZM188 78C188 92.3594 199.641 104 214 104V102C200.745 102 190 91.2548 190 78H188ZM214 52C199.641 52 188 63.6406 188 78H190C190 64.7452 200.745 54 214 54V52ZM240 78C240 63.6406 228.359 52 214 52V54C227.255 54 238 64.7452 238 78H240ZM221.293 61.399L197.399 85.2929L198.813 86.7071L222.707 62.8133L221.293 61.399ZM213.635 61C216.492 61 219.178 61.7194 221.525 62.9861L222.475 61.2262C219.844 59.8058 216.832 59 213.635 59V61ZM197 77.6352C197 68.4478 204.448 61 213.635 61V59C203.343 59 195 67.3433 195 77.6352H197ZM198.986 85.525C197.719 83.1783 197 80.4923 197 77.6352H195C195 80.8321 195.806 83.8436 197.226 86.475L198.986 85.525Z" fill="#171321"/>
<path d="M233 92L258.5 117.5" stroke="#171321" stroke-width="2" stroke-linecap="square"/>
<path d="M228 67L203 92L207 96L232 71L228 67Z" fill="#FF9D73" stroke="#171321" stroke-width="2" stroke-linecap="square"/>
<path d="M264 70.5C276.426 70.5 286.5 60.4264 286.5 48C286.5 35.5736 276.426 25.5 264 25.5C251.574 25.5 241.5 35.5736 241.5 48V70.5H264Z" fill="white"/>
<path d="M241.5 70.5H264C276.426 70.5 286.5 60.4264 286.5 48C286.5 35.5736 276.426 25.5 264 25.5C251.574 25.5 241.5 35.5736 241.5 48V64.5" stroke="#171321" stroke-width="2" stroke-linecap="square"/>
<circle cx="264" cy="48" r="15" fill="#6FDAC9"/>
<path fill-rule="evenodd" clip-rule="evenodd" d="M265 42V41H263V42V47H258H257V49H258L263 49V54V55H265V54V49L270 49L271 49V47H270H265V42Z" fill="#171321"/>
<circle cx="241" cy="72" r="6" fill="white" stroke="#171321" stroke-width="2" stroke-linecap="square"/>
<path d="M293 48C293 44.1917 292.25 40.4206 290.793 36.9022C289.335 33.3837 287.199 30.1868 284.506 27.4939C281.813 24.801 278.616 22.6649 275.098 21.2075C271.579 19.7501 267.808 19 264 19" stroke="#171321" stroke-width="2" stroke-linecap="square"/>
<rect x="168.5" y="0.5" width="143" height="143" stroke="#18A3FF" stroke-opacity="0.24"/>
<defs>
<clipPath id="clip0_1474_13809">
<rect width="144" height="144" fill="white"/>
</clipPath>
</defs>
</svg>
