<svg width="600" height="288" viewBox="0 0 600 288" fill="none" xmlns="http://www.w3.org/2000/svg"><path d="M99.25 157.375H98.1l-18.38 9.892c-1.392.749-1.405 2.741-.023 3.509L98.101 181l1.149-4v-19.625Z" fill="#7F6997" fill-opacity=".16"/><path d="m2 75.875 69.64 40.219M205.5 193.5l80.5 46.344" stroke="#7F6997" stroke-opacity=".56" stroke-width="4" stroke-linecap="round" stroke-dasharray="8 8"/><path d="M26.565 173.247c-1.35-.769-1.345-2.717.009-3.48L98.002 129.5v50.682c0 1.538 1.665 2.501 2.999 1.733l89.997-51.838a2 2 0 0 0 1.002-1.733V103.5l68.929 38.773c1.354.761 1.361 2.707.014 3.478l-136.976 78.476a7.999 7.999 0 0 1-7.939.009l-89.463-50.989Z" fill="#AFA3C6" fill-opacity=".16"/><path d="M99.002 129.5v-1.712l-1.49.841-71.43 40.267c-2.03 1.145-2.037 4.066-.012 5.22l89.463 50.989a9.001 9.001 0 0 0 8.931-.01l136.976-78.476c2.021-1.158 2.009-4.076-.02-5.218l-68.93-38.773-1.49-.838v26.554a.998.998 0 0 1-.501.866l-89.997 51.838a1 1 0 0 1-1.5-.866V129.5Z" stroke="#7F6997" stroke-opacity=".56" stroke-width="2" stroke-linecap="round"/><path d="M77.97 100.058c9.373 5.412 9.373 14.185 0 19.596-9.372 5.412-24.568 5.412-33.94 0-9.373-5.411-9.373-14.184 0-19.596 9.372-5.41 24.568-5.41 33.94 0Z" fill="#fff"/><path fill-rule="evenodd" clip-rule="evenodd" d="M84.608 107.356c-.845 2.674-3.057 5.231-6.637 7.298-9.373 5.412-24.569 5.412-33.942 0-3.58-2.067-5.792-4.624-6.637-7.298-1.368 4.326.845 8.954 6.637 12.298 9.373 5.412 24.569 5.412 33.942 0 5.792-3.344 8.005-7.972 6.637-12.298Z" fill="#CCC"/><path d="M77.97 100.058c9.373 5.412 9.373 14.185 0 19.596-9.372 5.412-24.568 5.412-33.94 0-9.373-5.411-9.373-14.184 0-19.596 9.372-5.41 24.568-5.41 33.94 0Z" stroke="#04AF92" stroke-width="4"/><path d="M57 106v3h10" stroke="#04AF92" stroke-width="4" stroke-linecap="round" stroke-linejoin="round"/><path d="M192 65V53.929c0-3.08-3.334-5.004-6-3.464l-84.001 48.507A8.001 8.001 0 0 0 98 105.9v71.18c0 3.077 3.33 5.002 5.996 3.466l83.997-48.38a8 8 0 0 0 4.007-6.932V77" stroke="#6E49CB" stroke-width="4" stroke-linecap="round"/><path d="M208.971 176.058c9.372 5.412 9.372 14.185 0 19.596-9.373 5.412-24.569 5.412-33.942 0-9.372-5.411-9.372-14.184 0-19.596 9.373-5.411 24.569-5.411 33.942 0Z" fill="#fff"/><path fill-rule="evenodd" clip-rule="evenodd" d="M215.608 183.356c-.845 2.674-3.057 5.231-6.637 7.298-9.373 5.412-24.569 5.412-33.942 0-3.58-2.067-5.792-4.624-6.637-7.298-1.368 4.326.845 8.954 6.637 12.298 9.373 5.412 24.569 5.412 33.942 0 5.792-3.344 8.005-7.972 6.637-12.298Z" fill="#CCC"/><path d="M208.971 176.058c9.372 5.412 9.372 14.185 0 19.596-9.373 5.412-24.569 5.412-33.942 0-9.372-5.411-9.372-14.184 0-19.596 9.373-5.411 24.569-5.411 33.942 0Z" stroke="#04AF92" stroke-width="4"/><path d="M188 182v3h10" stroke="#04AF92" stroke-width="4" stroke-linecap="round" stroke-linejoin="round"/><path d="M106 98v82" stroke="#6E49CB" stroke-width="2" stroke-linecap="round"/><path d="m115 115.16 38.758-22.377" stroke="#B0B3B9" stroke-width="2" stroke-linecap="round"/><path d="m161.295 88.432 8.613-4.973" stroke="#FF675F" stroke-width="4" stroke-linecap="round"/><path d="m115 122.619 25.839-14.918m8.075-4.662 8.613-4.973m8.074-4.662 8.613-4.972M115 130.078l12.919-7.459" stroke="#B0B3B9" stroke-width="2" stroke-linecap="round"/><path d="m135.994 117.957 21.533-12.432" stroke="#FF9769" stroke-width="4" stroke-linecap="round"/><path d="m165.601 100.863 17.226-9.945M115 137.537l21.532-12.432m7.537-4.351 21.532-12.431" stroke="#B0B3B9" stroke-width="2" stroke-linecap="round"/><path opacity=".48" d="m115 152.455 30.145-17.404m8.075-4.662 25.839-14.918M115 159.914l21.532-12.431m8.075-4.662 8.613-4.973" stroke="#B0B3B9" stroke-width="2" stroke-linecap="round"/><path d="M216 86.67 72 169.816M72 162v15m144-97v15" stroke="#18A3FF" stroke-width="4" stroke-linecap="round"/><path opacity=".32" transform="matrix(.86603 -.5 0 1 71 171)" fill="url(#illus-isometric-example__a)" d="M0 0h167.432v41.426H0z"/><g clip-path="url(#illus-isometric-example__b)"><g clip-path="url(#illus-isometric-example__c)" stroke="#55D8FF" stroke-opacity=".24"><path d="m288 268.708 24 13.856-24 13.857-24-13.857 24-13.856Zm-48 0 24 13.856-24 13.857-24-13.857 24-13.856Zm-48 0 24 13.856-24 13.857-24-13.857 24-13.856Zm-48 0 24 13.856-24 13.857-24-13.857 24-13.856Zm-48 0 24 13.856-24 13.857-24-13.857 24-13.856Zm-48 0 24 13.856-24 13.857-24-13.857 24-13.856Zm-48 0 24 13.856-24 13.857-24-13.857 24-13.856Zm288-27.713 24 13.856-24 13.857-24-13.857 24-13.856Zm-48 0 24 13.856-24 13.857-24-13.857 24-13.856Zm-48 0 24 13.856-24 13.857-24-13.857 24-13.856Zm-48 0 24 13.856-24 13.857-24-13.857 24-13.856Zm-48 0 24 13.856-24 13.857-24-13.857 24-13.856Zm-48 0 24 13.856-24 13.857-24-13.857 24-13.856Zm-48 0 24 13.856-24 13.857-24-13.857 24-13.856Zm288-27.713 24 13.857-24 13.856-24-13.856 24-13.857Zm-48 0 24 13.857-24 13.856-24-13.856 24-13.857Zm-48 0 24 13.857-24 13.856-24-13.856 24-13.857Zm-48 0 24 13.857-24 13.856-24-13.856 24-13.857Zm-48 0 24 13.857-24 13.856-24-13.856 24-13.857Zm-48 0 24 13.857-24 13.856-24-13.856 24-13.857Zm-48 0 24 13.857-24 13.856-24-13.856 24-13.857Zm288-27.713 24 13.857-24 13.856-24-13.856 24-13.857Zm-48 0 24 13.857-24 13.856-24-13.856 24-13.857Zm-48 0 24 13.857-24 13.856-24-13.856 24-13.857Zm-48 0 24 13.857-24 13.856-24-13.856 24-13.857Zm-48 0 24 13.857-24 13.856-24-13.856 24-13.857Zm-48 0 24 13.857-24 13.856-24-13.856 24-13.857Zm-48 0 24 13.857-24 13.856-24-13.856 24-13.857Zm288-27.713 24 13.857-24 13.856-24-13.856 24-13.857Zm-48 0 24 13.857-24 13.856-24-13.856 24-13.857Zm-48 0 24 13.857-24 13.856-24-13.856 24-13.857Zm-48 0 24 13.857-24 13.856-24-13.856 24-13.857Zm-48 0 24 13.857-24 13.856-24-13.856 24-13.857Zm-48 0 24 13.857-24 13.856-24-13.856 24-13.857Zm-48 0 24 13.857-24 13.856-24-13.856 24-13.857Zm288-27.712L312 144l-24 13.856L264 144l24-13.856Zm-48 0L264 144l-24 13.856L216 144l24-13.856Zm-48 0L216 144l-24 13.856L168 144l24-13.856Zm-48 0L168 144l-24 13.856L120 144l24-13.856Zm-48 0L120 144l-24 13.856L72 144l24-13.856Zm-48 0L72 144l-24 13.856L24 144l24-13.856Zm-48 0L24 144 0 157.856-24 144l24-13.856Zm288-27.713 24 13.856-24 13.857-24-13.857 24-13.856Zm-48 0 24 13.856-24 13.857-24-13.857 24-13.856Zm-48 0 24 13.856-24 13.857-24-13.857 24-13.856Zm-48 0 24 13.856-24 13.857-24-13.857 24-13.856Zm-48 0 24 13.856-24 13.857-24-13.857 24-13.856Zm-48 0 24 13.856-24 13.857-24-13.857 24-13.856Zm-48 0 24 13.856-24 13.857-24-13.857 24-13.856Zm288-27.713 24 13.856-24 13.857-24-13.857 24-13.856Zm-48 0 24 13.856-24 13.857-24-13.857 24-13.856Zm-48 0 24 13.856-24 13.857-24-13.857 24-13.856Zm-48 0 24 13.856-24 13.857-24-13.857 24-13.856Zm-48 0 24 13.856-24 13.857-24-13.857 24-13.856Zm-48 0 24 13.856-24 13.857-24-13.857 24-13.856Zm-48 0 24 13.856-24 13.857-24-13.857L0 74.718Zm288-27.713 24 13.857-24 13.856-24-13.856 24-13.857Zm-48 0 24 13.857-24 13.856-24-13.856 24-13.857Zm-48 0 24 13.857-24 13.856-24-13.856 24-13.857Zm-48 0 24 13.857-24 13.856-24-13.856 24-13.857Zm-48 0 24 13.857-24 13.856-24-13.856 24-13.857Zm-48 0 24 13.857-24 13.856-24-13.856 24-13.857Zm-48 0 24 13.857L0 74.718l-24-13.856L0 47.005Zm288-27.713 24 13.857-24 13.856-24-13.856 24-13.857Zm-48 0 24 13.857-24 13.856-24-13.856 24-13.857Zm-48 0 24 13.857-24 13.856-24-13.856 24-13.857Zm-48 0 24 13.857-24 13.856-24-13.856 24-13.857Zm-48 0 24 13.857-24 13.856L72 33.15l24-13.857Zm-48 0L72 33.15 48 47.005 24 33.15l24-13.857Zm-48 0L24 33.15 0 47.005-24 33.15 0 19.292ZM288-8.42l24 13.856-24 13.856-24-13.856L288-8.42Zm-48 0 24 13.856-24 13.856-24-13.856L240-8.42Zm-48 0 24 13.856-24 13.856-24-13.856L192-8.42Zm-48 0 24 13.856-24 13.856-24-13.856L144-8.42Zm-48 0 24 13.856-24 13.856L72 5.436 96-8.42Zm-48 0L72 5.436 48 19.292 24 5.436 48-8.42Zm-48 0L24 5.436 0 19.292-24 5.436 0-8.42Z"/></g></g><path stroke="#18A3FF" stroke-opacity=".24" d="M.5.5h287v287H.5z"/><path d="M411.25 157.375h-1.149l-18.38 9.892c-1.393.749-1.406 2.741-.024 3.509L410.101 181l1.149-4v-19.625Z" fill="#7F6997" fill-opacity=".16"/><path d="m314 75.875 69.64 40.219M517.5 193.5l80.5 46.344" stroke="#7F6997" stroke-opacity=".56" stroke-width="4" stroke-linecap="round" stroke-dasharray="8 8"/><path d="M338.565 173.247c-1.349-.769-1.345-2.717.009-3.48l71.428-40.267v50.682c0 1.538 1.665 2.501 2.999 1.733l89.997-51.838a2 2 0 0 0 1.002-1.733V103.5l68.929 38.773c1.354.761 1.361 2.707.014 3.478l-136.976 78.476a7.999 7.999 0 0 1-7.939.009l-89.463-50.989Z" fill="#AFA3C6" fill-opacity=".16"/><path d="M411.002 129.5v-1.712l-1.491.841-71.429 40.267c-2.03 1.145-2.037 4.066-.012 5.22l89.463 50.989a9.001 9.001 0 0 0 8.931-.01l136.976-78.476c2.021-1.158 2.009-4.076-.02-5.218l-68.93-38.773-1.49-.838v26.554a.998.998 0 0 1-.501.866l-89.997 51.838a1 1 0 0 1-1.5-.866V129.5Z" stroke="#7F6997" stroke-opacity=".56" stroke-width="2" stroke-linecap="round"/><path d="M389.971 100.058c9.372 5.412 9.372 14.185 0 19.596-9.373 5.412-24.569 5.412-33.942 0-9.372-5.411-9.372-14.184 0-19.596 9.373-5.41 24.569-5.41 33.942 0Z" fill="#fff"/><path fill-rule="evenodd" clip-rule="evenodd" d="M396.608 107.356c-.845 2.674-3.057 5.231-6.637 7.298-9.373 5.412-24.569 5.412-33.942 0-3.58-2.067-5.792-4.624-6.637-7.298-1.368 4.326.845 8.954 6.637 12.298 9.373 5.412 24.569 5.412 33.942 0 5.792-3.344 8.005-7.972 6.637-12.298Z" fill="#CCC"/><path d="M389.971 100.058c9.372 5.412 9.372 14.185 0 19.596-9.373 5.412-24.569 5.412-33.942 0-9.372-5.411-9.372-14.184 0-19.596 9.373-5.41 24.569-5.41 33.942 0Z" stroke="#04AF92" stroke-width="4"/><path d="M369 106v3h10" stroke="#04AF92" stroke-width="4" stroke-linecap="round" stroke-linejoin="round"/><path d="M504 65V53.929c0-3.08-3.334-5.004-6-3.464l-84.001 48.507A8.002 8.002 0 0 0 410 105.9v71.18c0 3.077 3.33 5.002 5.996 3.466l83.997-48.38a8 8 0 0 0 4.007-6.932V77" stroke="#6E49CB" stroke-width="4" stroke-linecap="round"/><path d="M520.971 176.058c9.372 5.412 9.372 14.185 0 19.596-9.373 5.412-24.569 5.412-33.942 0-9.372-5.411-9.372-14.184 0-19.596 9.373-5.411 24.569-5.411 33.942 0Z" fill="#fff"/><path fill-rule="evenodd" clip-rule="evenodd" d="M527.608 183.356c-.845 2.674-3.057 5.231-6.637 7.298-9.373 5.412-24.569 5.412-33.942 0-3.58-2.067-5.792-4.624-6.637-7.298-1.368 4.326.845 8.954 6.637 12.298 9.373 5.412 24.569 5.412 33.942 0 5.792-3.344 8.005-7.972 6.637-12.298Z" fill="#CCC"/><path d="M520.971 176.058c9.372 5.412 9.372 14.185 0 19.596-9.373 5.412-24.569 5.412-33.942 0-9.372-5.411-9.372-14.184 0-19.596 9.373-5.411 24.569-5.411 33.942 0Z" stroke="#04AF92" stroke-width="4"/><path d="M500 182v3h10" stroke="#04AF92" stroke-width="4" stroke-linecap="round" stroke-linejoin="round"/><path d="M418 98v82" stroke="#6E49CB" stroke-width="2" stroke-linecap="round"/><path d="m427 115.16 38.758-22.377" stroke="#B0B3B9" stroke-width="2" stroke-linecap="round"/><path d="m473.295 88.432 8.613-4.973" stroke="#FF675F" stroke-width="4" stroke-linecap="round"/><path d="m427 122.619 25.839-14.918m8.075-4.662 8.613-4.973m8.074-4.662 8.613-4.972M427 130.078l12.919-7.459" stroke="#B0B3B9" stroke-width="2" stroke-linecap="round"/><path d="m447.994 117.957 21.533-12.432" stroke="#FF9769" stroke-width="4" stroke-linecap="round"/><path d="m477.601 100.863 17.226-9.945M427 137.537l21.532-12.432m7.537-4.351 21.532-12.431" stroke="#B0B3B9" stroke-width="2" stroke-linecap="round"/><path opacity=".48" d="m427 152.455 30.145-17.404m8.075-4.662 25.839-14.918M427 159.914l21.532-12.431m8.075-4.662 8.613-4.973" stroke="#B0B3B9" stroke-width="2" stroke-linecap="round"/><path d="m528 86.67-144 83.146m0-7.816v15m144-97v15" stroke="#18A3FF" stroke-width="4" stroke-linecap="round"/><path opacity=".32" transform="matrix(.86603 -.5 0 1 383 171)" fill="url(#illus-isometric-example__d)" d="M0 0h167.432v41.426H0z"/><path stroke="#18A3FF" stroke-opacity=".24" d="M312.5.5h287v287h-287z"/><defs><linearGradient id="illus-isometric-example__a" x1="83.716" y1="0" x2="83.716" y2="41.426" gradientUnits="userSpaceOnUse"><stop stop-color="#18A3FF"/><stop offset="1" stop-color="#fff" stop-opacity="0"/></linearGradient><linearGradient id="illus-isometric-example__d" x1="83.716" y1="0" x2="83.716" y2="41.426" gradientUnits="userSpaceOnUse"><stop stop-color="#18A3FF"/><stop offset="1" stop-color="#fff" stop-opacity="0"/></linearGradient><clipPath id="illus-isometric-example__b"><path fill="#fff" d="M0 0h288v288H0z"/></clipPath><clipPath id="illus-isometric-example__c"><path fill="#fff" transform="translate(-24 -8.42)" d="M0 0h336v304.841H0z"/></clipPath></defs></svg>