<svg width="165" height="165" xmlns="http://www.w3.org/2000/svg"><g fill="none" fill-rule="evenodd"><path fill="#FFF" d="M0 0h165v165H0z"/><g stroke="#DFDFDF"><path d="M2.5 2.5h160v160H2.5z"/><g stroke-linecap="square"><path d="M12.5 2.5v160M22.5 2.5v160M32.5 2.5v160M42.5 2.5v160M52.5 2.5v160M62.5 2.5v160M72.5 2.5v160M82.5 2.5v160M92.5 2.5v160M102.5 2.5v160M112.5 2.5v160M122.5 2.5v160M132.5 2.5v160M142.5 2.5v160M152.5 2.5v160M162.5 12.5H2.5M162.5 22.5H2.5M162.5 32.5H2.5M162.5 42.5H2.5M162.5 52.5H2.5M162.5 62.5H2.5M162.5 72.5H2.5M162.5 82.5H2.5M162.5 92.5H2.5M162.5 102.5H2.5M162.5 112.5H2.5M162.5 122.5H2.5M162.5 132.5H2.5M162.5 142.5H2.5M162.5 152.5H2.5"/></g></g><path stroke="#C2B7E6" stroke-width="21" style="mix-blend-mode:multiply" d="M12.5 12.5h140v140h-140z"/><g stroke="#6E49CB"><path d="M2.5 2.5h160v160H2.5z"/><path fill="#FFF" d="M.5.5h4v4h-4zM80.5.5h4v4h-4zM160.5.5h4v4h-4zM.5 80.5h4v4h-4zM160.5 80.5h4v4h-4zM.5 160.5h4v4h-4zM80.5 160.5h4v4h-4zM160.5 160.5h4v4h-4z"/></g></g></svg>