<svg width="612" height="288" viewBox="0 0 612 288" fill="none" xmlns="http://www.w3.org/2000/svg">
<g clip-path="url(#clip0_1102_13998)">
<rect width="288" height="288" fill="white"/>
<path fill-rule="evenodd" clip-rule="evenodd" d="M0.5 144C0.5 104.553 16.4163 68.8243 42.1772 42.8843L95.2109 95.918C83.022 108.285 75.5 125.264 75.5 144C75.5 162.736 83.022 179.715 95.2109 192.082L42.1772 245.116C16.4163 219.176 0.5 183.447 0.5 144ZM41.4701 245.823L-0.00088498 287.294L0.706222 288.001L42.1772 246.53C68.2981 272.472 104.277 288.5 144 288.5C183.723 288.5 219.702 272.472 245.823 246.53L287.295 288.002L288.002 287.295L246.53 245.823C272.472 219.702 288.5 183.723 288.5 144C288.5 104.277 272.472 68.2981 246.53 42.1772L288.001 0.706207L287.294 -0.00088501L245.823 41.4701C219.702 15.5283 183.723 -0.5 144 -0.5C104.277 -0.5 68.2981 15.5283 42.1772 41.4701L0.707095 0L-1.18911e-05 0.707107L41.4701 42.1772C15.5283 68.2981 -0.5 104.277 -0.5 144C-0.5 183.723 15.5283 219.702 41.4701 245.823ZM245.116 42.1772C219.176 16.4163 183.447 0.5 144 0.5C104.553 0.5 68.8243 16.4163 42.8843 42.1772L95.918 95.2109C108.285 83.022 125.264 75.5 144 75.5C162.736 75.5 179.715 83.022 192.082 95.2109L245.116 42.1772ZM191.375 95.918C179.189 83.9101 162.46 76.5 144 76.5C125.54 76.5 108.811 83.9101 96.6251 95.918L144 143.293L191.375 95.918ZM144.707 144L192.082 96.6251C204.09 108.811 211.5 125.54 211.5 144C211.5 162.46 204.09 179.189 192.082 191.375L144.707 144ZM143.293 144L95.918 96.6251C83.9101 108.811 76.5 125.54 76.5 144C76.5 162.46 83.9101 179.189 95.918 191.375L143.293 144ZM96.6251 192.082L144 144.707L191.375 192.082C179.189 204.09 162.46 211.5 144 211.5C125.54 211.5 108.811 204.09 96.6251 192.082ZM95.918 192.789C108.285 204.978 125.264 212.5 144 212.5C162.736 212.5 179.715 204.978 192.082 192.789L245.116 245.823C219.176 271.584 183.447 287.5 144 287.5C104.553 287.5 68.8242 271.584 42.8843 245.823L95.918 192.789ZM192.789 95.918L245.823 42.8843C271.584 68.8242 287.5 104.553 287.5 144C287.5 183.447 271.584 219.176 245.823 245.116L192.789 192.082C204.978 179.715 212.5 162.736 212.5 144C212.5 125.264 204.978 108.285 192.789 95.918Z" fill="#55D8FF" fill-opacity="0.8"/>
<path d="M0 96H288" stroke="#55D8FF" stroke-opacity="0.8"/>
<path d="M192 0L192 288" stroke="#55D8FF" stroke-opacity="0.8"/>
<path d="M0 192H288" stroke="#55D8FF" stroke-opacity="0.8"/>
<path d="M96 0L96 288" stroke="#55D8FF" stroke-opacity="0.8"/>
</g>
<rect x="0.5" y="0.5" width="287" height="287" stroke="#18A3FF" stroke-opacity="0.24"/>
<g clip-path="url(#clip1_1102_13998)">
<rect x="312" width="144" height="144" fill="white"/>
<path fill-rule="evenodd" clip-rule="evenodd" d="M312.5 72C312.5 52.4357 320.358 34.7066 333.09 21.7966L359.254 47.9609C353.217 54.174 349.5 62.6529 349.5 72C349.5 81.348 353.218 89.8276 359.256 96.0408L333.091 122.205C320.358 109.295 312.5 91.5652 312.5 72ZM332.384 122.912L312 143.296L312.707 144.003L333.091 123.619C346.182 136.531 364.16 144.5 384 144.5C403.84 144.5 421.82 136.53 434.91 123.618L455.296 144.003L456.003 143.296L435.618 122.91C448.53 109.82 456.5 91.8405 456.5 72C456.5 52.1604 448.531 34.182 435.619 21.0913L456.003 0.707108L455.296 1.52588e-05L434.912 20.3841C421.821 7.47042 403.841 -0.5 384 -0.5C364.16 -0.5 346.18 7.46971 333.09 20.3824L312.707 0L312 0.707107L332.382 21.0895C319.47 34.1805 311.5 52.1595 311.5 72C311.5 91.8414 319.47 109.821 332.384 122.912ZM434.205 21.0913C421.295 8.3585 403.565 0.5 384 0.5C364.436 0.5 346.707 8.35779 333.797 21.0895L359.961 47.2538C366.174 41.2171 374.653 37.5 384 37.5C393.348 37.5 401.828 41.2178 408.041 47.2555L434.205 21.0913ZM407.334 47.9627C401.301 42.1059 393.072 38.5 384 38.5C374.929 38.5 366.7 42.1052 360.668 47.961L384.002 71.2946L407.334 47.9627ZM384.709 72.0017L408.041 48.6698C413.895 54.7018 417.5 62.9299 417.5 72C417.5 81.0709 413.895 89.2998 408.039 95.3319L384.709 72.0017ZM383.295 72.0017L359.961 48.6681C354.105 54.7002 350.5 62.9291 350.5 72C350.5 81.0718 354.106 89.3014 359.963 95.3337L383.295 72.0017ZM360.67 96.0407L384.002 72.7088L407.332 96.039C401.3 101.895 393.071 105.5 384 105.5C374.93 105.5 366.702 101.895 360.67 96.0407ZM359.963 96.7479C366.176 102.784 374.654 106.5 384 106.5C393.347 106.5 401.826 102.783 408.039 96.7462L434.203 122.91C421.293 135.642 403.564 143.5 384 143.5C364.437 143.5 346.708 135.643 333.798 122.912L359.963 96.7479ZM408.748 47.9627L434.912 21.7984C447.643 34.7082 455.5 52.4365 455.5 72C455.5 91.5643 447.642 109.293 434.91 122.203L408.746 96.0391C414.783 89.826 418.5 81.3471 418.5 72C418.5 62.6538 414.784 54.1756 408.748 47.9627Z" fill="#55D8FF" fill-opacity="0.8"/>
<path d="M312 48H456" stroke="#55D8FF" stroke-opacity="0.8"/>
<path d="M312 96H456" stroke="#55D8FF" stroke-opacity="0.8"/>
<path d="M360 0L360 144" stroke="#55D8FF" stroke-opacity="0.8"/>
<path d="M408 0L408 144" stroke="#55D8FF" stroke-opacity="0.8"/>
</g>
<rect x="312.5" y="0.5" width="143" height="143" stroke="#18A3FF" stroke-opacity="0.24"/>
<g clip-path="url(#clip2_1102_13998)">
<rect x="480" width="72" height="72" fill="white"/>
<path fill-rule="evenodd" clip-rule="evenodd" d="M480.5 36C480.5 26.3768 484.329 17.6479 490.547 11.2537L503.277 23.9842C500.316 27.1188 498.5 31.3474 498.5 36C498.5 40.6526 500.316 44.8812 503.277 48.0158L490.547 60.7463C484.329 54.3521 480.5 45.6232 480.5 36ZM489.839 61.4534L479.996 71.2972L480.703 72.0043L490.547 62.1605C497.122 68.5591 506.101 72.5 516 72.5C525.899 72.5 534.878 68.5591 541.453 62.1605L551.297 72.0043L552.004 71.2972L542.161 61.4534C548.559 54.8783 552.5 45.8994 552.5 36C552.5 26.1006 548.559 17.1217 542.161 10.5466L552.004 0.702805L551.297 -0.00430298L541.453 9.83945C534.878 3.44091 525.899 -0.5 516 -0.5C506.101 -0.5 497.122 3.44091 490.547 9.83944L480.703 -0.00430295L479.996 0.702804L489.839 10.5466C483.441 17.1217 479.5 26.1006 479.5 36C479.5 45.8994 483.441 54.8783 489.839 61.4534ZM540.746 10.5466C534.352 4.32902 525.623 0.5 516 0.5C506.377 0.5 497.648 4.32902 491.254 10.5466L503.984 23.2771C507.119 20.3157 511.347 18.5 516 18.5C520.653 18.5 524.881 20.3157 528.016 23.2771L540.746 10.5466ZM527.308 23.9845C524.355 21.2039 520.376 19.5 516 19.5C511.624 19.5 507.645 21.2039 504.692 23.9845L516 35.2929L527.308 23.9845ZM516.707 36L528.015 24.6916C530.796 27.645 532.5 31.6235 532.5 36C532.5 40.3765 530.796 44.355 528.016 47.3084L516.707 36ZM515.293 36L503.985 24.6916C501.204 27.645 499.5 31.6235 499.5 36C499.5 40.3765 501.204 44.355 503.985 47.3084L515.293 36ZM504.692 48.0155L516 36.7071L527.308 48.0155C524.355 50.7961 520.376 52.5 516 52.5C511.624 52.5 507.645 50.7961 504.692 48.0155ZM503.984 48.7229C507.119 51.6843 511.347 53.5 516 53.5C520.653 53.5 524.881 51.6843 528.016 48.7229L540.746 61.4534C534.352 67.671 525.623 71.5 516 71.5C506.377 71.5 497.648 67.671 491.254 61.4534L503.984 48.7229ZM528.723 23.9842L541.453 11.2537C547.671 17.6479 551.5 26.3768 551.5 36C551.5 45.6232 547.671 54.3521 541.453 60.7463L528.723 48.0158C531.684 44.8812 533.5 40.6526 533.5 36C533.5 31.3474 531.684 27.1188 528.723 23.9842Z" fill="#55D8FF" fill-opacity="0.8"/>
<path d="M480 24H552" stroke="#55D8FF" stroke-opacity="0.8"/>
<path d="M480 48H552" stroke="#55D8FF" stroke-opacity="0.8"/>
<path d="M504 0L504 72" stroke="#55D8FF" stroke-opacity="0.8"/>
<path d="M528 0L528 72" stroke="#55D8FF" stroke-opacity="0.8"/>
</g>
<rect x="480.5" y="0.5" width="71" height="71" stroke="#18A3FF" stroke-opacity="0.24"/>
<g clip-path="url(#clip3_1102_13998)">
<rect x="576" width="36" height="36" fill="white"/>
<path fill-rule="evenodd" clip-rule="evenodd" d="M576.5 18C576.5 13.3474 578.316 9.11879 581.277 5.9842L587.292 11.9993C585.867 13.5917 585 15.6946 585 18C585 20.3054 585.867 22.4083 587.292 24.0006L581.277 30.0158C578.316 26.8812 576.5 22.6526 576.5 18ZM580.57 30.7232L575.821 35.4718L576.528 36.1789L581.277 31.4303C584.593 34.5725 589.071 36.5 594 36.5C598.929 36.5 603.407 34.5725 606.723 31.4303L611.472 36.1789L612.179 35.4718L607.43 30.7232C610.573 27.4074 612.5 22.9288 612.5 18C612.5 13.0712 610.573 8.59261 607.43 5.27682L612.179 0.528172L611.472 -0.178936L606.723 4.56971C603.407 1.42745 598.929 -0.5 594 -0.5C589.071 -0.5 584.593 1.42745 581.277 4.56971L576.528 -0.178934L575.821 0.528172L580.57 5.27682C577.427 8.59261 575.5 13.0712 575.5 18C575.5 22.9288 577.427 27.4074 580.57 30.7232ZM606.016 5.27709C602.881 2.31566 598.653 0.5 594 0.5C589.347 0.5 585.119 2.31566 581.984 5.27709L587.999 11.2922C589.592 9.86679 591.695 8.99999 594 8.99999C596.305 8.99999 598.408 9.86679 600.001 11.2922L606.016 5.27709ZM599.292 12.0006C597.882 10.7555 596.029 9.99999 594 9.99999C591.971 9.99999 590.118 10.7555 588.708 12.0006L594 17.2929L599.292 12.0006ZM594.707 18L599.999 12.7077C601.244 14.118 602 15.9708 602 18C602 20.0292 601.244 21.882 599.999 23.2923L594.707 18ZM593.293 18L588.001 12.7077C586.756 14.118 586 15.9708 586 18C586 20.0292 586.756 21.882 588.001 23.2923L593.293 18ZM588.708 23.9994L594 18.7071L599.292 23.9994C597.882 25.2445 596.029 26 594 26C591.971 26 590.118 25.2445 588.708 23.9994ZM587.999 24.7077C589.592 26.1332 591.695 27 594 27C596.305 27 598.408 26.1332 600.001 24.7077L606.016 30.7229C602.881 33.6843 598.653 35.5 594 35.5C589.347 35.5 585.119 33.6843 581.984 30.7229L587.999 24.7077ZM600.708 11.9993L606.723 5.9842C609.684 9.11879 611.5 13.3474 611.5 18C611.5 22.6526 609.684 26.8812 606.723 30.0158L600.708 24.0006C602.133 22.4083 603 20.3054 603 18C603 15.6946 602.133 13.5917 600.708 11.9993Z" fill="#55D8FF" fill-opacity="0.8"/>
<path d="M576 12H612" stroke="#55D8FF" stroke-opacity="0.8"/>
<path d="M576 24H612" stroke="#55D8FF" stroke-opacity="0.8"/>
<path d="M588 0L588 36" stroke="#55D8FF" stroke-opacity="0.8"/>
<path d="M600 0L600 36" stroke="#55D8FF" stroke-opacity="0.8"/>
</g>
<rect x="576.5" y="0.5" width="35" height="35" stroke="#18A3FF" stroke-opacity="0.24"/>
<defs>
<clipPath id="clip0_1102_13998">
<rect width="288" height="288" fill="white"/>
</clipPath>
<clipPath id="clip1_1102_13998">
<rect x="312" width="144" height="144" fill="white"/>
</clipPath>
<clipPath id="clip2_1102_13998">
<rect x="480" width="72" height="72" fill="white"/>
</clipPath>
<clipPath id="clip3_1102_13998">
<rect x="576" width="36" height="36" fill="white"/>
</clipPath>
</defs>
</svg>
