<svg width="304" height="104" xmlns="http://www.w3.org/2000/svg"><g fill="none" fill-rule="evenodd"><path fill="#FFF" d="M0 0h304v104H0z"/><rect stroke="#6E49CB" stroke-width="4" fill="#EFEDF8" x="162" y="2" width="60" height="60" rx="8"/><rect stroke="#6E49CB" stroke-width="4" fill="#EFEDF8" x="242" y="2" width="60" height="60" rx="16"/><rect stroke="#6E49CB" stroke-width="4" fill="#EFEDF8" x="82" y="2" width="60" height="60" rx="4"/><path stroke="#6E49CB" stroke-width="4" fill="#EFEDF8" d="M2 2h60v60H2z"/><path d="M256 0h3v19h-19v-3c0-8.837 7.163-16 16-16zM168 0h11v19h-19V8a8 8 0 0 1 8-8zM84 0h15v19H80V4a4 4 0 0 1 4-4zM0 0h19v19H0z" fill-opacity=".504" fill="#FC6D26"/><circle fill="#380D75" cx="192" cy="88" r="16"/><path d="M22.755 87.509c0-1.481.252-2.62.756-3.415.503-.795 1.209-1.193 2.115-1.193.898 0 1.599.398 2.103 1.193.503.795.755 1.934.755 3.415 0 1.485-.252 2.634-.755 3.445-.504.811-1.205 1.217-2.103 1.217-.902 0-1.606-.406-2.112-1.217s-.759-1.96-.759-3.445zm1.58-2.79c-.306.598-.459 1.527-.459 2.79 0 1.262.155 2.2.465 2.813.31.613.739.92 1.285.92.543 0 .968-.307 1.275-.92.308-.613.462-1.55.462-2.813 0-1.258-.153-2.187-.458-2.786-.306-.6-.732-.899-1.279-.899-.551 0-.982.299-1.292.896zm5.906 10.152v-9.673h.95l.102.78h.041c.752-.634 1.475-.95 2.167-.95.862 0 1.525.31 1.99.929.465.62.697 1.467.697 2.543 0 .56-.08 1.076-.24 1.545-.159.47-.374.857-.645 1.162a2.937 2.937 0 0 1-.937.711 2.562 2.562 0 0 1-1.117.253c-.588 0-1.217-.262-1.887-.786l.027 1.19v2.296h-1.148zm1.148-4.382c.56.474 1.117.711 1.668.711.57 0 1.036-.244 1.398-.731.362-.488.544-1.144.544-1.969 0-.788-.145-1.404-.435-1.846-.289-.442-.741-.663-1.356-.663-.525 0-1.13.31-1.819.93v3.568zM36.817 92l2.222-3.555-2.058-3.247h1.25l.91 1.497c.397.675.62 1.053.67 1.135h.055c.296-.56.501-.939.615-1.135l.827-1.497h1.203l-2.057 3.37L42.668 92h-1.25l-.992-1.58a46.356 46.356 0 0 0-.738-1.223h-.062c-.123.196-.35.604-.683 1.224L38.02 92h-1.203zM102.38 89.54v-.76l3.82-5.715h1.286v5.544h1.223v.93h-1.223V92h-1.087v-2.46h-4.02zm1.216-.93h2.803v-2.585c0-.35.023-.925.068-1.722h-.054c-.041.077-.285.496-.732 1.258l-2.085 3.048zm6.645 6.261v-9.673h.95l.102.78h.041c.752-.634 1.475-.95 2.167-.95.862 0 1.525.31 1.99.929.465.62.697 1.467.697 2.543 0 .56-.08 1.076-.24 1.545-.159.47-.374.857-.645 1.162a2.937 2.937 0 0 1-.937.711 2.562 2.562 0 0 1-1.117.253c-.588 0-1.217-.262-1.887-.786l.027 1.19v2.296h-1.148zm1.148-4.382c.56.474 1.117.711 1.668.711.57 0 1.036-.244 1.398-.731.362-.488.544-1.144.544-1.969 0-.788-.145-1.404-.435-1.846-.289-.442-.741-.663-1.356-.663-.525 0-1.13.31-1.819.93v3.568zM116.817 92l2.222-3.555-2.058-3.247h1.25l.91 1.497c.397.675.62 1.053.67 1.135h.055c.296-.56.501-.939.615-1.135l.827-1.497h1.203l-2.057 3.37L122.668 92h-1.25l-.992-1.58a46.356 46.356 0 0 0-.738-1.223h-.062c-.123.196-.35.604-.683 1.224L118.02 92h-1.203z" fill="#380D75" fill-rule="nonzero"/><path d="M182.714 89.717c0-.538.16-1.009.479-1.412.319-.403.72-.735 1.203-.994v-.055c-.834-.593-1.251-1.278-1.251-2.058 0-.679.24-1.231.721-1.657.481-.427 1.086-.64 1.815-.64.766 0 1.378.221 1.836.663.458.443.687 1.014.687 1.716 0 .424-.123.826-.37 1.207-.246.38-.533.696-.86.947v.061c.222.132.417.263.584.393.166.13.328.286.485.468.157.183.277.395.359.636.082.242.123.506.123.793 0 .68-.268 1.247-.803 1.702-.536.456-1.23.684-2.082.684-.843 0-1.541-.233-2.095-.697-.554-.465-.83-1.05-.83-1.757zm1.04-.11c0 .493.182.9.546 1.224.365.324.82.485 1.367.485.52 0 .942-.145 1.265-.437.324-.292.485-.67.485-1.135 0-.214-.046-.413-.14-.598a2.145 2.145 0 0 0-.29-.448c-.1-.114-.282-.242-.544-.386a8.151 8.151 0 0 0-.58-.297c-.126-.055-.371-.155-.736-.301a1.613 1.613 0 0 1-.13-.055c-.829.56-1.244 1.21-1.244 1.948zm.457-4.409c0 .173.024.334.072.482.048.148.123.283.226.403.102.121.21.228.321.322.112.093.255.185.43.277.176.09.336.167.48.229.143.061.32.133.529.215.624-.551.937-1.148.937-1.791 0-.456-.14-.833-.42-1.131-.281-.299-.658-.448-1.132-.448-.42 0-.765.133-1.036.4-.271.266-.407.614-.407 1.042zm6.03 9.673v-9.673h.95l.102.78h.041c.752-.634 1.475-.95 2.167-.95.862 0 1.525.31 1.99.929.465.62.697 1.467.697 2.543 0 .56-.08 1.076-.24 1.545-.159.47-.374.857-.645 1.162a2.937 2.937 0 0 1-.937.711 2.562 2.562 0 0 1-1.117.253c-.588 0-1.217-.262-1.887-.786l.027 1.19v2.296h-1.148zm1.148-4.382c.56.474 1.117.711 1.668.711.57 0 1.036-.244 1.398-.731.362-.488.544-1.144.544-1.969 0-.788-.145-1.404-.435-1.846-.289-.442-.741-.663-1.356-.663-.525 0-1.13.31-1.819.93v3.568zM196.817 92l2.222-3.555-2.058-3.247h1.25l.91 1.497c.397.675.62 1.053.67 1.135h.055c.296-.56.501-.939.615-1.135l.827-1.497h1.203l-2.057 3.37L202.668 92h-1.25l-.992-1.58a46.356 46.356 0 0 0-.738-1.223h-.062c-.123.196-.35.604-.683 1.224L198.02 92h-1.203z" fill="#FFF" fill-rule="nonzero"/><path d="M260.271 92v-.95h2.044v-6.583h-1.627v-.738c.725-.124 1.356-.345 1.894-.664h.882v7.985h1.846V92h-5.039zm6.515-4.129c0-.697.062-1.327.185-1.89s.29-1.033.502-1.412c.212-.378.464-.694.756-.946.291-.253.6-.437.926-.55.326-.115.67-.172 1.035-.172.848 0 1.566.317 2.154.95l-.643.718a1.963 1.963 0 0 0-.663-.516 1.836 1.836 0 0 0-.807-.188c-.323 0-.62.067-.888.202a2.137 2.137 0 0 0-.732.629c-.218.285-.392.679-.52 1.182-.127.504-.197 1.098-.211 1.781.282-.342.61-.614.984-.817.374-.203.74-.304 1.1-.304.79 0 1.411.236 1.867.708.456.471.684 1.156.684 2.054 0 .838-.257 1.526-.77 2.064a2.494 2.494 0 0 1-1.876.807c-.911 0-1.653-.37-2.225-1.11-.572-.742-.858-1.804-.858-3.19zm1.121.711c.069.866.27 1.528.605 1.986.335.458.787.687 1.357.687.447 0 .817-.181 1.111-.544.294-.362.44-.832.44-1.411 0-.597-.138-1.062-.416-1.395-.278-.332-.688-.499-1.23-.499-.301 0-.617.097-.947.29-.33.194-.637.49-.92.886zm6.31 6.29v-9.674h.95l.103.78h.04c.753-.634 1.475-.95 2.168-.95.86 0 1.524.31 1.989.929.465.62.697 1.467.697 2.543 0 .56-.08 1.076-.24 1.545-.159.47-.374.857-.645 1.162a2.937 2.937 0 0 1-.937.711 2.562 2.562 0 0 1-1.117.253c-.588 0-1.217-.262-1.887-.786l.027 1.19v2.296h-1.148zm1.148-4.383c.56.474 1.117.711 1.668.711.57 0 1.036-.244 1.398-.731.362-.488.544-1.144.544-1.969 0-.788-.145-1.404-.434-1.846-.29-.442-.742-.663-1.357-.663-.524 0-1.13.31-1.819.93v3.568zM280.793 92l2.222-3.555-2.058-3.247h1.251l.91 1.497c.396.675.619 1.053.67 1.135h.054c.296-.56.501-.939.615-1.135l.827-1.497h1.203l-2.057 3.37L286.645 92h-1.251l-.992-1.58a46.356 46.356 0 0 0-.738-1.223h-.061c-.124.196-.351.604-.684 1.224L281.996 92h-1.203z" fill="#380D75" fill-rule="nonzero"/></g></svg>