<svg xmlns="http://www.w3.org/2000/svg" width="402" height="236" fill="none" viewBox="0 0 402 236"><path fill="#E7E4F2" d="M37 37h94c22.091 0 40 17.909 40 40v94H77c-22.091 0-40-17.909-40-40V37Z"/><path fill="#737278" d="M90.23 201v-10.186h1.3v9.038h4.716V201h-6.015Zm10.979.164c-2.215 0-3.582-1.572-3.582-3.924 0-2.344 1.354-3.978 3.438-3.978 1.621 0 3.33.998 3.33 3.821v.513h-5.934v-1.039h5.27l-.574.382c0-1.503-.711-2.584-2.092-2.584-1.38 0-2.194 1.142-2.194 2.386v.691c0 1.702.944 2.638 2.345 2.638.902 0 1.579-.396 1.866-1.175l1.189.328c-.355 1.155-1.497 1.941-3.062 1.941Zm7.226.014c-1.45 0-2.605-.848-2.605-2.352 0-1.75 1.559-2.071 2.974-2.249 1.36-.171 1.962-.13 1.962-.697v-.041c0-.95-.54-1.497-1.6-1.497-1.101 0-1.695.588-1.935 1.121l-1.182-.39c.588-1.387 1.9-1.811 3.083-1.811 1.025 0 2.864.314 2.864 2.7V201h-1.21v-1.039h-.082c-.26.54-.977 1.217-2.269 1.217Zm.211-1.087c1.361 0 2.12-.916 2.12-1.853v-1.059c-.205.239-1.545.376-2.017.437-.895.116-1.682.404-1.682 1.272 0 .793.663 1.203 1.579 1.203Zm9.065-6.734v1.053h-4.498v-1.053h4.498ZM114.717 201v-8.661c0-1.326 1.059-2.003 2.174-2.003.581 0 .963.123 1.148.205l-.342 1.053c-.13-.041-.321-.116-.663-.116-.759 0-1.087.396-1.087 1.134V201h-1.23Z"/><rect width="144" height="144" x="226" y="32" fill="#E7E4F2" rx="72"/><path fill="#737278" d="M283.853 201.137c-2.612 0-4.519-1.996-4.519-5.223 0-3.233 1.907-5.236 4.519-5.236 2.064 0 3.746 1.244 4.108 3.343h-1.299c-.287-1.395-1.483-2.14-2.809-2.14-1.832 0-3.254 1.422-3.254 4.033 0 2.605 1.428 4.02 3.254 4.02 1.333 0 2.522-.752 2.809-2.14h1.299c-.356 2.071-2.023 3.343-4.108 3.343Zm5.954-.137v-7.643h1.23V201h-1.23Zm.622-8.894c-.465 0-.855-.362-.855-.813 0-.451.39-.814.855-.814.471 0 .861.363.861.814 0 .451-.39.813-.861.813Zm2.768 8.894v-7.643h1.19v1.176h.082c.28-.772 1.073-1.285 1.982-1.285.178 0 .479.014.622.021v1.237a4.619 4.619 0 0 0-.738-.068c-1.101 0-1.907.745-1.907 1.777V201h-1.231Zm8.156.164c-2.079 0-3.48-1.579-3.48-3.937 0-2.393 1.401-3.965 3.48-3.965 1.476 0 2.679.779 3.096 2.112l-1.182.335c-.226-.786-.91-1.347-1.914-1.347-1.525 0-2.229 1.34-2.229 2.865 0 1.503.704 2.836 2.229 2.836 1.025 0 1.722-.581 1.948-1.408l1.176.335c-.411 1.361-1.627 2.174-3.124 2.174Zm6.603-.109c-1.148 0-1.716-.643-1.716-1.75v-8.491h1.231v8.183c0 .704.123.957.635.957.267 0 .376-.02.493-.055l.246 1.039a3.53 3.53 0 0 1-.889.117Zm5.148.109c-2.215 0-3.583-1.572-3.583-3.924 0-2.344 1.354-3.978 3.439-3.978 1.62 0 3.329.998 3.329 3.821v.513h-5.934v-1.039h5.271l-.574.382c0-1.503-.711-2.584-2.092-2.584-1.381 0-2.194 1.142-2.194 2.386v.691c0 1.702.943 2.638 2.344 2.638.903 0 1.579-.396 1.867-1.175l1.189.328c-.355 1.155-1.497 1.941-3.062 1.941Z"/></svg>