<svg width="165" height="165" xmlns="http://www.w3.org/2000/svg"><g fill="none" fill-rule="evenodd"><path fill="#FFF" d="M0 0h165v165H0z"/><g stroke="#DFDFDF"><path d="M3 3h160v160H3z"/><g stroke-linecap="square"><path d="M13 3v160M23 3v160M33 3v160M43 3v160M53 3v160M63 3v160M73 3v160M83 3v160M93 3v160M103 3v160M113 3v160M123 3v160M133 3v160M143 3v160M153 3v160M163 13H3M163 23H3M163 33H3M163 43H3M163 53H3M163 63H3M163 73H3M163 83H3M163 93H3M163 103H3M163 113H3M163 123H3M163 133H3M163 143H3M163 153H3"/></g></g><path stroke="#C2B7E6" stroke-width="41" style="mix-blend-mode:multiply" d="M22.5 22.5h120v120h-120z"/><g stroke="#6E49CB"><path d="M2.5 2.5h160v160H2.5z"/><path fill="#FFF" d="M.5.5h4v4h-4zM80.5.5h4v4h-4zM160.5.5h4v4h-4zM.5 80.5h4v4h-4zM160.5 80.5h4v4h-4zM.5 160.5h4v4h-4zM80.5 160.5h4v4h-4zM160.5 160.5h4v4h-4z"/></g></g></svg>