<svg width="281" height="265" viewBox="0 0 281 265" fill="none" xmlns="http://www.w3.org/2000/svg">
<g clip-path="url(#clip0_1039_12546)">
<circle cx="245" cy="133" r="34" stroke="#6E49CB" stroke-width="4" stroke-linecap="round" stroke-linejoin="round"/>
<path d="M211.143 136.107C232.572 152.892 246.011 156.493 272.962 152.671" stroke="#6E49CB" stroke-width="2" stroke-linejoin="round"/>
<path d="M280.193 132.229C253.736 133.537 240.254 137.967 218.179 152.609" stroke="#6E49CB" stroke-width="2" stroke-linejoin="round"/>
<path d="M239.256 166.416C256.345 143.852 260.115 129.784 256.597 101.699" stroke="#6E49CB" stroke-width="2" stroke-linejoin="round"/>
<path d="M217.354 112.925C244.305 109.103 257.744 112.704 279.174 129.489" stroke="#6E49CB" stroke-width="2" stroke-linejoin="round"/>
<circle cx="257.803" cy="116.516" r="6" fill="#FF675F" stroke="#6E49CB" stroke-width="4" stroke-linecap="round" stroke-linejoin="round"/>
<circle cx="247.968" cy="153.221" r="6" fill="#FF675F" stroke="#6E49CB" stroke-width="4" stroke-linecap="round" stroke-linejoin="round"/>
<circle cx="255.348" cy="135.348" r="6" fill="#4BEACC" stroke="#6E49CB" stroke-width="4" stroke-linecap="round" stroke-linejoin="round"/>
<circle cx="226.977" cy="146.561" r="6" fill="#4BEACC" stroke="#6E49CB" stroke-width="4" stroke-linecap="round" stroke-linejoin="round"/>
</g>
<path d="M11.8259 149.019C9.43657 145.413 7.88407 141.319 7.28215 137.035C6.68023 132.752 7.04414 128.388 8.34723 124.264C9.65032 120.139 11.8596 116.358 14.8132 113.198C17.7667 110.038 21.3898 107.578 25.4171 106" stroke="#6E49CB" stroke-width="4" stroke-linecap="round"/>
<path d="M56 162L68 162" stroke="#6E49CB" stroke-width="4" stroke-linecap="round" stroke-linejoin="round"/>
<path d="M64 157L69 162L64 167" stroke="#6E49CB" stroke-width="4" stroke-linecap="round"/>
<path d="M38 109L33 104L38 99" stroke="#6E49CB" stroke-width="4" stroke-linecap="round"/>
<path d="M36 104C39.8083 104 43.5794 104.75 47.0978 106.207C50.6163 107.665 53.8132 109.801 56.5061 112.494C59.199 115.187 61.3351 118.384 62.7925 121.902C64.2499 125.421 65 129.192 65 133C65 136.808 64.2499 140.579 62.7925 144.098C61.3351 147.616 59.199 150.813 56.5061 153.506C53.8132 156.199 50.6163 158.335 47.0978 159.793C43.5794 161.25 39.8083 162 36 162" stroke="#6E49CB" stroke-width="4" stroke-linecap="round"/>
<path d="M12 162H36" stroke="#6E49CB" stroke-width="4" stroke-linecap="round" stroke-linejoin="round"/>
<rect x="2" y="157" width="10" height="10" fill="#FF9769" stroke="#6E49CB" stroke-width="4" stroke-linecap="round" stroke-linejoin="round"/>
<circle cx="36" cy="133" r="12.4" fill="#4BEACC" stroke="#6E49CB" stroke-width="4" stroke-linecap="round"/>
<path d="M31.9083 132.661C31.5184 132.27 30.8853 132.268 30.4941 132.658C30.1029 133.048 30.1018 133.681 30.4916 134.073L31.9083 132.661ZM34.0235 136.2L33.3151 136.906C33.5028 137.094 33.7577 137.2 34.0235 137.2C34.2893 137.2 34.5442 137.094 34.7318 136.906L34.0235 136.2ZM41.5083 130.106C41.8981 129.715 41.897 129.081 41.5058 128.692C41.1146 128.302 40.4815 128.303 40.0916 128.694L41.5083 130.106ZM30.4916 134.073L33.3151 136.906L34.7318 135.494L31.9083 132.661L30.4916 134.073ZM34.7318 136.906L41.5083 130.106L40.0916 128.694L33.3151 135.494L34.7318 136.906Z" fill="#6E49CB"/>
<path d="M166 156.5C159.555 162.974 150.512 167 140.5 167C130.488 167 121.445 162.974 115 156.5C121.445 150.026 130.488 146 140.5 146C150.512 146 159.555 150.026 166 156.5Z" fill="#AC7FFF" stroke="#6E49CB" stroke-width="4" stroke-linecap="round" stroke-linejoin="round"/>
<circle cx="141" cy="128" r="10" fill="#AC7FFF" stroke="#6E49CB" stroke-width="4" stroke-linecap="round" stroke-linejoin="round"/>
<path d="M110.202 149.001C107.34 143.746 105.894 137.837 106.006 131.855C106.118 125.873 107.784 120.022 110.84 114.878C113.896 109.734 118.238 105.473 123.438 102.514C128.639 99.5552 134.519 97.9995 140.503 98C146.486 98.0005 152.367 99.5572 157.567 102.517C162.767 105.477 167.108 109.739 170.163 114.883C173.218 120.028 174.883 125.878 174.994 131.861C175.105 137.843 173.658 143.752 170.795 149.006" stroke="#6E49CB" stroke-width="4" stroke-linecap="round" stroke-linejoin="round"/>
<path d="M69.1293 19.1792C69.1293 24.6916 73.6801 29 79.2938 29H105.34C106.645 29 107.884 28.7242 109 28.2287C107.485 30.9203 104.565 33 101.211 33H75.1645C69.5508 33 65 28.5313 65 23.0188C65 19.117 67.28 15.481 70.6031 13.8396C69.6679 15.3495 69.1293 17.2828 69.1293 19.1792Z" fill="#AC7FFF" fill-opacity="0.24"/>
<path d="M80 48H58C55.7909 48 54 49.7909 54 52V62C54 64.2091 55.7909 66 58 66H118C120.209 66 122 64.2091 122 62V52C122 49.7909 120.209 48 118 48H88V33H75.7059C74.4876 32.9734 73.2034 32.721 72.0764 32.2612C70.8822 31.774 69.7971 31.0599 68.883 30.1596C67.969 29.2593 67.2439 28.1906 66.7493 27.0143C66.2546 25.8381 66 24.5774 66 23.3042C66 22.031 66.2546 20.7703 66.7493 19.5941C67.2439 18.4178 67.969 17.3491 68.883 16.4488C69.7971 15.5485 70.8822 14.8344 72.0764 14.3472C73.2707 13.86 74.5507 13.6092 75.8433 13.6092C76.6882 13.6094 77.5297 13.7153 78.3476 13.9243C79.0911 11.4325 80.7031 9.27883 82.8998 7.8422C85.0966 6.40558 87.7373 5.77803 90.3575 6.06997C92.9777 6.36191 95.4094 7.55464 97.2248 9.4383C99.0402 11.322 100.123 13.7759 100.283 16.3683C101.441 16.2002 102.623 16.2702 103.752 16.574C104.882 16.8778 105.936 17.4088 106.847 18.1334C107.758 18.8581 108.507 19.7607 109.046 20.7845C109.586 21.8083 109.904 22.931 109.982 24.0819C110.059 25.2329 109.893 26.3871 109.495 27.4719C109.097 28.5567 108.475 29.5486 107.669 30.385C106.863 31.2215 105.889 31.8844 104.81 32.332C103.73 32.7795 102.569 33.0156 101.398 32.9992L96 33" stroke="#6E49CB" stroke-width="4" stroke-linecap="round" stroke-linejoin="round"/>
<path d="M91 57H113" stroke="#6E49CB" stroke-width="2" stroke-linecap="round" stroke-linejoin="round"/>
<circle cx="75" cy="57" r="3" fill="#CAB5FF" stroke="#6E49CB" stroke-width="2" stroke-linecap="round"/>
<circle cx="64" cy="57" r="3" fill="#FF675F" stroke="#6E49CB" stroke-width="2" stroke-linecap="round"/>
<path d="M217 42V11C207 11 199 9 192 2C185 9 177 11 167 11V42C167 63 192 70 192 70C192 70 217 63 217 42Z" stroke="#6E49CB" stroke-width="4" stroke-linecap="round" stroke-linejoin="round"/>
<circle cx="192" cy="36" r="12" fill="#4BEACC" stroke="#6E49CB" stroke-width="4" stroke-linecap="round"/>
<path d="M188.042 35.6506C187.652 35.2594 187.019 35.2583 186.627 35.6481C186.236 36.038 186.235 36.6712 186.625 37.0624L188.042 35.6506ZM190.078 39.1111L189.37 39.817C189.558 40.0053 189.813 40.1111 190.078 40.1111C190.344 40.1111 190.599 40.0053 190.787 39.817L190.078 39.1111ZM197.375 33.2059C197.765 32.8147 197.764 32.1815 197.373 31.7917C196.981 31.4018 196.348 31.4029 195.958 31.7941L197.375 33.2059ZM186.625 37.0624L189.37 39.817L190.787 38.4052L188.042 35.6506L186.625 37.0624ZM190.787 39.817L197.375 33.2059L195.958 31.7941L189.37 38.4052L190.787 39.817Z" fill="#6E49CB"/>
<path d="M88 201C82.4621 201 77.0486 202.642 72.444 205.719C67.8395 208.796 64.2506 213.169 62.1314 218.285C60.0121 223.401 59.4576 229.031 60.538 234.463C61.6184 239.894 64.2851 244.883 68.201 248.799C72.1169 252.715 77.106 255.382 82.5375 256.462C87.9689 257.542 93.5988 256.988 98.7151 254.869C103.831 252.749 108.204 249.161 111.281 244.556C114.358 239.951 116 234.538 116 229H104.073C104.073 232.179 103.13 235.286 101.364 237.929C99.5978 240.573 97.0876 242.633 94.1507 243.849C91.2138 245.066 87.9822 245.384 84.8644 244.764C81.7466 244.144 78.8827 242.613 76.635 240.365C74.3872 238.117 72.8564 235.253 72.2362 232.136C71.6161 229.018 71.9344 225.786 73.1508 222.849C74.3673 219.912 76.4274 217.402 79.0705 215.636C81.7137 213.87 84.8211 212.927 88 212.927L88 201Z" fill="#E5E0FC"/>
<path d="M114.83 237.01C113.344 241.987 110.504 246.452 106.626 249.906C102.748 253.361 97.9864 255.669 92.8723 256.573C87.7582 257.477 82.4936 256.94 77.6669 255.024C72.8401 253.107 68.6415 249.886 65.5403 245.72C62.4392 241.554 60.5576 236.608 60.1061 231.435C59.6545 226.261 60.6507 221.064 62.9832 216.424C65.3158 211.784 68.8929 207.884 73.3146 205.16C77.7363 202.436 82.8284 200.996 88.0217 201" stroke="#6E49CB" stroke-width="4" stroke-linecap="round" stroke-linejoin="round"/>
<path d="M104 229C104 231.809 103.261 234.568 101.856 237.001C100.451 239.433 98.4309 241.453 95.9981 242.858C93.5653 244.262 90.8057 245.001 87.9967 245C85.1878 244.999 82.4285 244.259 79.9962 242.854C77.564 241.449 75.5445 239.428 74.1409 236.995C72.7372 234.562 71.9988 231.802 72 228.993C72.0012 226.184 72.7418 223.425 74.1474 220.993C75.5531 218.561 77.5742 216.542 80.0076 215.139" stroke="#6E49CB" stroke-width="4" stroke-linecap="round" stroke-linejoin="round"/>
<path d="M118 229C118 223.734 116.614 218.561 113.981 214L100.107 222.01C101.334 224.135 101.98 226.546 101.98 229H118Z" fill="#FF908D" stroke="#6E49CB" stroke-width="4" stroke-linecap="round" stroke-linejoin="round"/>
<path d="M117.445 212C114.461 206.831 110.169 202.539 105 199.555C99.8313 196.571 93.9682 195 88 195L88 217.649C89.9925 217.649 91.9499 218.174 93.6754 219.17C95.4009 220.166 96.8338 221.599 97.8301 223.325L117.445 212Z" fill="#FFC46C" stroke="#6E49CB" stroke-width="4" stroke-linecap="round" stroke-linejoin="round"/>
<circle cx="210" cy="238" r="10" fill="#18A3FF" stroke="#6E49CB" stroke-width="4"/>
<path d="M173 215V215C173 227.703 183.297 238 196 238H200" stroke="#6E49CB" stroke-width="4"/>
<circle cx="174" cy="253" r="10" fill="#6E49CB" fill-opacity="0.24" stroke="#6E49CB" stroke-width="4"/>
<path d="M173 215L173 243" stroke="#6E49CB" stroke-width="4"/>
<circle cx="173" cy="205" r="10" fill="#6E49CB" fill-opacity="0.24" stroke="#6E49CB" stroke-width="4"/>
<defs>
<clipPath id="clip0_1039_12546">
<rect width="72" height="72" fill="white" transform="translate(209 97)"/>
</clipPath>
</defs>
</svg>
