<svg width="300" height="186" viewBox="0 0 300 186" fill="none" xmlns="http://www.w3.org/2000/svg">
<path d="M268 52.5H268.5V52V23C268.5 21.067 266.933 19.5 265 19.5H27C25.067 19.5 23.5 21.067 23.5 23V52V52.5H24H268Z" fill="white" stroke="#DBDBDB"/>
<rect x="44" y="32" width="115" height="8" rx="3" fill="#666666"/>
<path d="M24 51.5H23.5V52V84V84.5H24H268H268.5V84V52V51.5H268H24Z" fill="white" stroke="#DBDBDB"/>
<rect x="44" y="64" width="115" height="8" rx="3" fill="#666666"/>
<path d="M24 83.5H23.5V84V116V116.5H24H268H268.5V116V84V83.5H268H24Z" fill="white" stroke="#DBDBDB"/>
<rect x="44" y="96" width="115" height="8" rx="3" fill="#666666"/>
<path d="M24 115.5H23.5V116V148V148.5H24H268H268.5V148V116V115.5H268H24Z" fill="white" stroke="#DBDBDB"/>
<rect x="44" y="128" width="115" height="8" rx="3" fill="#666666"/>
<rect x="88" y="164" width="115" height="4" rx="2" fill="#666666"/>
<rect x="260" y="24" width="4" height="56" rx="2" fill="#999999"/>
<circle cx="167" cy="36" r="16" fill="#7B58CF"/>
<circle cx="167" cy="36" r="18" stroke="#7B58CF" stroke-opacity="0.3" stroke-width="4"/>
<path d="M164.855 40.5059H170.885V42H162.913V40.5059C164.009 39.3516 164.967 38.332 165.787 37.4473C166.607 36.5625 167.173 35.9385 167.483 35.5752C168.069 34.8604 168.465 34.2832 168.67 33.8438C168.875 33.3984 168.978 32.9443 168.978 32.4814C168.978 31.749 168.761 31.1748 168.327 30.7588C167.899 30.3428 167.311 30.1348 166.561 30.1348C166.027 30.1348 165.468 30.2314 164.882 30.4248C164.296 30.6182 163.675 30.9111 163.019 31.3037V29.5107C163.622 29.2236 164.214 29.0068 164.794 28.8604C165.38 28.7139 165.957 28.6406 166.525 28.6406C167.809 28.6406 168.84 28.9834 169.619 29.6689C170.404 30.3486 170.797 31.2422 170.797 32.3496C170.797 32.9121 170.665 33.4746 170.401 34.0371C170.144 34.5996 169.722 35.2207 169.136 35.9004C168.808 36.2812 168.33 36.8086 167.703 37.4824C167.082 38.1562 166.133 39.1641 164.855 40.5059Z" fill="white"/>
<circle cx="20" cy="20" r="16" fill="#7B58CF"/>
<circle cx="20" cy="20" r="18" stroke="#7B58CF" stroke-opacity="0.3" stroke-width="4"/>
<path d="M16.9502 24.5146H19.71V14.6006L16.4053 16.1914V14.4863L19.6924 12.9219H21.4678V24.5146H24.1924V26H16.9502V24.5146Z" fill="white"/>
<circle cx="280" cy="52" r="16" fill="#7B58CF"/>
<circle cx="280" cy="52" r="18" stroke="#7B58CF" stroke-opacity="0.3" stroke-width="4"/>
<path d="M281.397 50.9775C282.259 51.2061 282.918 51.6133 283.375 52.1992C283.832 52.7793 284.061 53.5059 284.061 54.3789C284.061 55.5859 283.653 56.5352 282.839 57.2266C282.03 57.9121 280.908 58.2549 279.473 58.2549C278.869 58.2549 278.254 58.1992 277.627 58.0879C277 57.9766 276.385 57.8154 275.781 57.6045V55.8379C276.379 56.1484 276.968 56.3799 277.548 56.5322C278.128 56.6846 278.705 56.7607 279.279 56.7607C280.252 56.7607 280.999 56.541 281.521 56.1016C282.042 55.6621 282.303 55.0293 282.303 54.2031C282.303 53.4414 282.042 52.8379 281.521 52.3926C280.999 51.9414 280.293 51.7158 279.402 51.7158H278.049V50.2568H279.402C280.217 50.2568 280.853 50.0781 281.31 49.7207C281.767 49.3633 281.995 48.8652 281.995 48.2266C281.995 47.5527 281.781 47.0371 281.354 46.6797C280.932 46.3164 280.328 46.1348 279.543 46.1348C279.021 46.1348 278.482 46.1934 277.926 46.3105C277.369 46.4277 276.786 46.6035 276.177 46.8379V45.2031C276.886 45.0156 277.516 44.875 278.066 44.7812C278.623 44.6875 279.115 44.6406 279.543 44.6406C280.82 44.6406 281.84 44.9629 282.602 45.6074C283.369 46.2461 283.753 47.0957 283.753 48.1562C283.753 48.877 283.551 49.4775 283.146 49.958C282.748 50.4385 282.165 50.7783 281.397 50.9775Z" fill="white"/>
<circle cx="206" cy="166" r="16" fill="#7B58CF"/>
<circle cx="206" cy="166" r="18" stroke="#7B58CF" stroke-opacity="0.3" stroke-width="4"/>
<path d="M207.037 160.495L202.897 167.43H207.037V160.495ZM206.747 158.878H208.804V167.43H210.553V168.871H208.804V172H207.037V168.871H201.474V167.192L206.747 158.878Z" fill="white"/>
</svg>
