<svg width="321" height="263" fill="none" xmlns="http://www.w3.org/2000/svg"><g clip-path="url(#infinite-scroll-structure__a)"><g clip-path="url(#infinite-scroll-structure__b)"><rect x="46" y="50" width="78" height="8" rx="2" fill="#535158"/><path d="M34 30.5h252a3.5 3.5 0 0 1 3.5 3.5v43.5h-259V34a3.5 3.5 0 0 1 3.5-3.5Z" stroke="#DCDCDE"/><rect x="46" y="97" width="116" height="8" rx="2" fill="#535158"/><path stroke="#DCDCDE" d="M30.5 77.5h259v47h-259z"/><rect x="46" y="144" width="78" height="8" rx="2" fill="#535158"/><path stroke="#DCDCDE" d="M30.5 124.5h259v47h-259z"/><rect x="46" y="191" width="102" height="8" rx="2" fill="#535158"/><path stroke="#DCDCDE" d="M30.5 171.5h259v47h-259z"/></g><rect x="280" y="61" width="6" height="76" rx="3" fill="#BFBFC3" stroke="#fff" stroke-width="2"/><rect x="121" y="219" width="78" height="8" rx="2" fill="#89888D"/><circle cx="301" cy="99" r="16" fill="#7B58CF"/><circle cx="301" cy="99" r="18" stroke="#7B58CF" stroke-opacity=".3" stroke-width="4"/><path d="M300.806 105.18c-1.212 0-2.172-.336-2.88-1.008-.708-.684-1.062-1.608-1.062-2.772h1.62c0 .72.21 1.29.63 1.71.42.42.99.63 1.71.63s1.29-.21 1.71-.63c.42-.42.63-.99.63-1.71v-.9c0-.72-.21-1.29-.63-1.71-.42-.42-.99-.63-1.71-.63h-1.422v-1.404l3.222-3.42h-5.4V91.86h7.236v1.512l-3.6 3.834v-.486c1.212 0 2.166.342 2.862 1.026.708.672 1.062 1.59 1.062 2.754v.9c0 1.164-.36 2.088-1.08 2.772-.708.672-1.674 1.008-2.898 1.008Z" fill="#fff"/><circle cx="160" cy="243" r="16" fill="#7B58CF"/><circle cx="160" cy="243" r="18" stroke="#7B58CF" stroke-opacity=".3" stroke-width="4"/><path d="M161.804 249v-2.88h-5.94v-2.538l4.788-7.722h1.836l-5.004 8.082v.702h4.32v-3.204h1.62V249h-1.62Z" fill="#fff"/><circle cx="131" cy="54" r="16" fill="#7B58CF"/><circle cx="131" cy="54" r="18" stroke="#7B58CF" stroke-opacity=".3" stroke-width="4"/><path d="M127.152 60v-1.494l4.374-4.68c.636-.672 1.086-1.272 1.35-1.8s.396-1.044.396-1.548c0-.72-.21-1.29-.63-1.71-.408-.432-.966-.648-1.674-.648-.732 0-1.314.222-1.746.666-.42.432-.63 1.02-.63 1.764h-1.62c.024-.792.204-1.476.54-2.052a3.41 3.41 0 0 1 1.386-1.35c.588-.312 1.278-.468 2.07-.468.816 0 1.518.156 2.106.468a3.325 3.325 0 0 1 1.368 1.332c.324.564.486 1.236.486 2.016 0 .624-.174 1.284-.522 1.98-.336.696-.918 1.476-1.746 2.34l-3.546 3.708h5.976V60h-7.938Z" fill="#fff"/><circle cx="20" cy="20" r="16" fill="#7B58CF"/><circle cx="20" cy="20" r="18" stroke="#7B58CF" stroke-opacity=".3" stroke-width="4"/><path d="M16.224 26v-1.476h3.564v-10.26l-3.564 2.664v-1.854l2.97-2.214h2.213v11.664h2.916V26h-8.1Z" fill="#fff"/></g><defs><clipPath id="infinite-scroll-structure__a"><path fill="#fff" d="M0 0h321v263H0z"/></clipPath><clipPath id="infinite-scroll-structure__b"><path fill="#fff" transform="translate(30 30)" d="M0 0h260v165H0z"/></clipPath></defs></svg>