<svg width="296" height="162" viewBox="0 0 296 162" fill="none" xmlns="http://www.w3.org/2000/svg">
<rect width="280" height="152" transform="translate(8 6)" fill="white"/>
<g filter="url(#filter0_dd_37649_6749)">
<rect x="8" y="6" width="280" height="88" rx="4" fill="white" shape-rendering="crispEdges"/>
<path d="M20.311 27L23.5991 17.542H25.8398L29.1978 27H27.2744L25.6304 22.1694C25.2939 21.1157 24.9448 19.8271 24.5132 18.1831H24.8813C24.4688 19.8398 24.1323 21.1475 23.8149 22.1694L22.228 27H20.311ZM22.2598 24.6895V23.293H27.249V24.6895H22.2598ZM32.8159 27.0889C31.3496 27.0889 30.3784 26.1177 30.3784 24.4165V19.9033H32.0859V24.1499C32.0859 25.083 32.6064 25.6479 33.457 25.6479C34.314 25.6479 34.936 25.064 34.936 24.0547V19.9033H36.6436V27H35.0249L35.0059 25.2417H35.1265C34.7393 26.4731 33.9585 27.0889 32.8159 27.0889ZM41.7153 19.9033V21.2363H37.6465V19.9033H41.7153ZM38.6431 18.2148H40.3506V24.9878C40.3506 25.4893 40.5474 25.7114 41.0425 25.7114C41.1948 25.7114 41.4932 25.6733 41.6455 25.6353L41.9058 26.9429C41.5312 27.0571 41.1313 27.1016 40.7759 27.1016C39.4048 27.1016 38.6431 26.397 38.6431 25.1338V18.2148ZM46 27.146C43.9116 27.146 42.5913 25.6733 42.5913 23.4897C42.5913 21.2871 43.9116 19.8145 46 19.8145C48.082 19.8145 49.4087 21.2871 49.4087 23.4897C49.4087 25.6733 48.082 27.146 46 27.146ZM46 25.7686C47.1235 25.7686 47.6758 24.7656 47.6758 23.4834C47.6758 22.1885 47.1235 21.1919 46 21.1919C44.8765 21.1919 44.3242 22.1885 44.3242 23.4834C44.3242 24.7656 44.8765 25.7686 46 25.7686ZM55.1279 22.3726V23.7754H50.8687V22.3726H55.1279ZM59.9712 29.8057C58.2446 29.8057 57.1973 29.1011 56.8481 28.1426L58.3018 27.6538C58.5112 28.0537 58.9492 28.5234 59.9648 28.5234C60.9741 28.5234 61.6279 28.0664 61.6279 27.0698V25.7368H61.4883C61.2344 26.2637 60.7012 26.8984 59.4951 26.8984C57.8701 26.8984 56.5815 25.7559 56.5815 23.439C56.5815 21.0903 57.8765 19.8145 59.5078 19.8145C60.7456 19.8145 61.2979 20.5698 61.5518 21.084H61.6406V19.9033H63.3164V27.0063C63.3164 28.9043 61.9009 29.8057 59.9712 29.8057ZM59.9839 25.5654C61.0376 25.5654 61.6343 24.7656 61.6343 23.4199C61.6343 22.0996 61.0503 21.2109 59.9839 21.2109C58.8921 21.2109 58.3271 22.1504 58.3271 23.4199C58.3271 24.7148 58.9048 25.5654 59.9839 25.5654ZM68.1914 27.146C66.0459 27.146 64.7319 25.7241 64.7319 23.4961C64.7319 21.3125 66.0459 19.8145 68.0835 19.8145C69.8418 19.8145 71.3462 20.9253 71.3462 23.4009V23.9214H65.5127V22.7852H70.502L69.7085 23.1152C69.7085 21.9346 69.1562 21.1411 68.0962 21.1411C67.0298 21.1411 66.4204 21.9663 66.4204 23.0073V23.7944C66.4204 25.1211 67.1377 25.8193 68.2104 25.8193C68.9214 25.8193 69.4609 25.5083 69.6768 24.918L71.2383 25.2354C70.8955 26.3843 69.7847 27.146 68.1914 27.146ZM74.4502 22.855V27H72.7427V19.9033H74.3613L74.3804 21.6616H74.2598C74.647 20.4492 75.415 19.8145 76.5767 19.8145C78.0366 19.8145 79.0078 20.792 79.0078 22.4932V27H77.3003V22.7598C77.3003 21.8267 76.7861 21.2617 75.9355 21.2617C75.0723 21.2617 74.4502 21.8457 74.4502 22.855ZM83.8955 27.146C81.75 27.146 80.436 25.7241 80.436 23.4961C80.436 21.3125 81.75 19.8145 83.7876 19.8145C85.5459 19.8145 87.0503 20.9253 87.0503 23.4009V23.9214H81.2168V22.7852H86.2061L85.4126 23.1152C85.4126 21.9346 84.8604 21.1411 83.8003 21.1411C82.7339 21.1411 82.1245 21.9663 82.1245 23.0073V23.7944C82.1245 25.1211 82.8418 25.8193 83.9146 25.8193C84.6255 25.8193 85.165 25.5083 85.3809 24.918L86.9424 25.2354C86.5996 26.3843 85.4888 27.146 83.8955 27.146ZM88.4468 27V19.9033H90.0972V21.103H90.1733C90.4336 20.2715 91.1128 19.8081 91.9189 19.8081C92.1094 19.8081 92.3633 19.8335 92.5283 19.8589V21.4204C92.3823 21.376 92.0269 21.3315 91.7412 21.3315C90.8208 21.3315 90.1543 21.96 90.1543 22.8613V27H88.4468ZM95.499 27.146C94.147 27.146 93.125 26.4097 93.125 25.0068C93.125 23.4136 94.4453 22.9946 95.8228 22.855C97.0542 22.7217 97.5684 22.6963 97.5684 22.2139V22.1821C97.5684 21.5093 97.1431 21.1221 96.356 21.1221C95.5498 21.1221 95.0674 21.5283 94.9023 21.998L93.3281 21.687C93.7344 20.4429 94.896 19.8145 96.356 19.8145C97.7334 19.8145 99.2759 20.3984 99.2759 22.252V27H97.6445V26.0225H97.5811C97.2637 26.6445 96.5845 27.146 95.499 27.146ZM95.9434 25.8955C96.9336 25.8955 97.5811 25.2417 97.5811 24.4609V23.6357C97.3525 23.8135 96.4702 23.9214 96.0513 23.9785C95.3086 24.0801 94.769 24.353 94.769 24.9814C94.769 25.5845 95.2642 25.8955 95.9434 25.8955ZM104.341 19.9033V21.2363H100.272V19.9033H104.341ZM101.269 18.2148H102.977V24.9878C102.977 25.4893 103.173 25.7114 103.668 25.7114C103.821 25.7114 104.119 25.6733 104.271 25.6353L104.532 26.9429C104.157 27.0571 103.757 27.1016 103.402 27.1016C102.031 27.1016 101.269 26.397 101.269 25.1338V18.2148ZM108.677 27.146C106.531 27.146 105.217 25.7241 105.217 23.4961C105.217 21.3125 106.531 19.8145 108.569 19.8145C110.327 19.8145 111.832 20.9253 111.832 23.4009V23.9214H105.998V22.7852H110.987L110.194 23.1152C110.194 21.9346 109.642 21.1411 108.582 21.1411C107.515 21.1411 106.906 21.9663 106.906 23.0073V23.7944C106.906 25.1211 107.623 25.8193 108.696 25.8193C109.407 25.8193 109.946 25.5083 110.162 24.918L111.724 25.2354C111.381 26.3843 110.27 27.146 108.677 27.146ZM116.535 27V17.542H119.182L120.921 22.3091C121.169 23.0454 121.601 24.8418 121.797 25.8257H121.448C121.651 24.8735 122.077 23.0645 122.324 22.3091L124.038 17.542H126.691V27H124.946V22.2964C124.946 21.4839 125.003 19.8398 125.016 18.6211H125.136C124.793 19.9668 124.317 21.5664 124.063 22.2964L122.356 27H120.877L119.138 22.2964C118.884 21.5791 118.42 20.0049 118.04 18.6211H118.186C118.198 19.77 118.262 21.4521 118.262 22.2964V27H116.535ZM128.558 27V17.542H132.131C134.296 17.542 135.47 18.7671 135.47 20.5825C135.47 22.4106 134.283 23.5532 132.1 23.5532H129.58V22.1123H131.858C133.115 22.1123 133.68 21.5728 133.68 20.5825C133.68 19.5859 133.115 19.002 131.846 19.002H130.303V27H128.558ZM133.864 27L131.566 22.709H133.477L135.819 27H133.864ZM142.833 27.127C141.164 27.127 139.914 25.8066 139.914 23.4707C139.914 21.0903 141.202 19.8145 142.827 19.8145C144.078 19.8145 144.604 20.5698 144.858 21.084H144.922V17.542H146.629V27H144.96V25.8765H144.858C144.598 26.4033 144.04 27.127 142.833 27.127ZM143.31 25.7368C144.363 25.7368 144.96 24.8228 144.96 23.458C144.96 22.0996 144.376 21.2109 143.31 21.2109C142.218 21.2109 141.659 22.1567 141.659 23.458C141.659 24.772 142.23 25.7368 143.31 25.7368ZM151.511 27.146C149.365 27.146 148.051 25.7241 148.051 23.4961C148.051 21.3125 149.365 19.8145 151.403 19.8145C153.161 19.8145 154.666 20.9253 154.666 23.4009V23.9214H148.832V22.7852H153.821L153.028 23.1152C153.028 21.9346 152.476 21.1411 151.416 21.1411C150.349 21.1411 149.74 21.9663 149.74 23.0073V23.7944C149.74 25.1211 150.457 25.8193 151.53 25.8193C152.241 25.8193 152.78 25.5083 152.996 24.918L154.558 25.2354C154.215 26.3843 153.104 27.146 151.511 27.146ZM158.779 27.146C157.128 27.146 155.992 26.416 155.745 25.1211L157.338 24.8291C157.528 25.521 158.017 25.8511 158.817 25.8511C159.61 25.8511 160.105 25.4956 160.105 25.0322C160.105 24.626 159.801 24.3784 159.16 24.2388L157.947 23.9785C156.595 23.6929 155.941 23.0264 155.941 21.9854C155.941 20.6587 157.109 19.8145 158.83 19.8145C160.455 19.8145 161.4 20.5508 161.686 21.6616L160.163 21.9536C160.004 21.4585 159.598 21.0776 158.855 21.0776C158.169 21.0776 157.649 21.4077 157.649 21.8774C157.649 22.2773 157.922 22.5376 158.633 22.6899L159.858 22.9438C161.21 23.2295 161.857 23.8643 161.857 24.8608C161.857 26.2192 160.582 27.146 158.779 27.146ZM166.333 27.146C164.25 27.146 162.93 25.6733 162.93 23.4897C162.93 21.2871 164.25 19.8145 166.333 19.8145C167.938 19.8145 169.119 20.6714 169.417 22.0742L167.824 22.3979C167.646 21.6616 167.139 21.1919 166.352 21.1919C165.228 21.1919 164.663 22.1694 164.663 23.4834C164.663 24.7847 165.228 25.7686 166.352 25.7686C167.145 25.7686 167.672 25.2798 167.843 24.5117L169.43 24.8354C169.138 26.27 167.958 27.146 166.333 27.146ZM170.827 27V19.9033H172.477V21.103H172.553C172.813 20.2715 173.493 19.8081 174.299 19.8081C174.489 19.8081 174.743 19.8335 174.908 19.8589V21.4204C174.762 21.376 174.407 21.3315 174.121 21.3315C173.201 21.3315 172.534 21.96 172.534 22.8613V27H170.827ZM176.146 27V19.9033H177.854V27H176.146ZM177.003 18.9194C176.463 18.9194 176.025 18.5068 176.025 17.999C176.025 17.4912 176.463 17.0786 177.003 17.0786C177.542 17.0786 177.98 17.4912 177.98 17.999C177.98 18.5068 177.542 18.9194 177.003 18.9194ZM179.574 29.6533V19.9033H181.25V21.084H181.351C181.599 20.5698 182.125 19.8145 183.382 19.8145C185.001 19.8145 186.29 21.0903 186.29 23.4707C186.29 25.8066 185.045 27.127 183.376 27.127C182.164 27.127 181.605 26.4033 181.351 25.8765H181.281V29.6533H179.574ZM182.894 25.7368C183.973 25.7368 184.544 24.772 184.544 23.458C184.544 22.1567 183.985 21.2109 182.894 21.2109C181.833 21.2109 181.25 22.0996 181.25 23.458C181.25 24.8228 181.84 25.7368 182.894 25.7368ZM191.05 19.9033V21.2363H186.981V19.9033H191.05ZM187.978 18.2148H189.686V24.9878C189.686 25.4893 189.882 25.7114 190.377 25.7114C190.53 25.7114 190.828 25.6733 190.98 25.6353L191.241 26.9429C190.866 27.0571 190.466 27.1016 190.111 27.1016C188.74 27.1016 187.978 26.397 187.978 25.1338V18.2148ZM192.345 27V19.9033H194.053V27H192.345ZM193.202 18.9194C192.663 18.9194 192.225 18.5068 192.225 17.999C192.225 17.4912 192.663 17.0786 193.202 17.0786C193.742 17.0786 194.18 17.4912 194.18 17.999C194.18 18.5068 193.742 18.9194 193.202 18.9194ZM198.877 27.146C196.789 27.146 195.468 25.6733 195.468 23.4897C195.468 21.2871 196.789 19.8145 198.877 19.8145C200.959 19.8145 202.286 21.2871 202.286 23.4897C202.286 25.6733 200.959 27.146 198.877 27.146ZM198.877 25.7686C200 25.7686 200.553 24.7656 200.553 23.4834C200.553 22.1885 200 21.1919 198.877 21.1919C197.753 21.1919 197.201 22.1885 197.201 23.4834C197.201 24.7656 197.753 25.7686 198.877 25.7686ZM205.415 22.855V27H203.708V19.9033H205.326L205.345 21.6616H205.225C205.612 20.4492 206.38 19.8145 207.542 19.8145C209.001 19.8145 209.973 20.792 209.973 22.4932V27H208.265V22.7598C208.265 21.8267 207.751 21.2617 206.9 21.2617C206.037 21.2617 205.415 21.8457 205.415 22.855ZM216.454 27L214.346 19.9033H216.136L216.815 22.6519C217.031 23.5659 217.298 24.6514 217.526 25.9907H217.317C217.545 24.6831 217.818 23.5977 218.053 22.6519L218.758 19.9033H220.37L221.056 22.6519C221.278 23.585 221.557 24.6641 221.786 25.9907H221.576C221.798 24.6704 222.046 23.5913 222.268 22.6519L222.954 19.9033H224.763L222.643 27H220.916L220.097 24.1436C219.85 23.2866 219.621 22.144 219.393 21.1919H219.71C219.481 22.1377 219.247 23.2993 218.999 24.1436L218.18 27H216.454ZM225.886 27V19.9033H227.594V27H225.886ZM226.743 18.9194C226.204 18.9194 225.766 18.5068 225.766 17.999C225.766 17.4912 226.204 17.0786 226.743 17.0786C227.283 17.0786 227.721 17.4912 227.721 17.999C227.721 18.5068 227.283 18.9194 226.743 18.9194ZM232.653 19.9033V21.2363H228.584V19.9033H232.653ZM229.581 18.2148H231.288V24.9878C231.288 25.4893 231.485 25.7114 231.98 25.7114C232.132 25.7114 232.431 25.6733 232.583 25.6353L232.843 26.9429C232.469 27.0571 232.069 27.1016 231.713 27.1016C230.342 27.1016 229.581 26.397 229.581 25.1338V18.2148ZM235.655 22.855V27H233.948V17.542H235.63V21.6616H235.465C235.852 20.4492 236.62 19.8145 237.782 19.8145C239.242 19.8145 240.213 20.792 240.213 22.4932V27H238.505V22.7598C238.505 21.8267 237.991 21.2617 237.141 21.2617C236.277 21.2617 235.655 21.8457 235.655 22.855ZM25.0337 43.127C22.4121 43.127 20.6411 41.2734 20.6411 38.2837C20.6411 35.2368 22.5073 33.415 24.9829 33.415C27.0713 33.415 28.6899 34.71 28.9756 36.5698H27.1919C26.8936 35.5859 26.1318 34.9829 25.0083 34.9829C23.4912 34.9829 22.3994 36.1572 22.3994 38.271C22.3994 40.3848 23.4658 41.5654 25.0464 41.5654C26.4683 41.5654 27.3633 40.7021 27.3633 39.3374L27.7568 39.4009H25.2051V38.0361H29.0645V39.1787C29.0645 41.6289 27.376 43.127 25.0337 43.127ZM30.6069 43V35.9033H32.3145V43H30.6069ZM31.4639 34.9194C30.9243 34.9194 30.4863 34.5068 30.4863 33.999C30.4863 33.4912 30.9243 33.0786 31.4639 33.0786C32.0034 33.0786 32.4414 33.4912 32.4414 33.999C32.4414 34.5068 32.0034 34.9194 31.4639 34.9194ZM37.3735 35.9033V37.2363H33.3047V35.9033H37.3735ZM34.3013 34.2148H36.0088V40.9878C36.0088 41.4893 36.2056 41.7114 36.7007 41.7114C36.853 41.7114 37.1514 41.6733 37.3037 41.6353L37.564 42.9429C37.1895 43.0571 36.7896 43.1016 36.4341 43.1016C35.063 43.1016 34.3013 42.397 34.3013 41.1338V34.2148ZM38.7383 43V33.542H40.4839V41.5337H44.6416V43H38.7383ZM48.0059 43.146C46.6538 43.146 45.6318 42.4097 45.6318 41.0068C45.6318 39.4136 46.9521 38.9946 48.3296 38.855C49.561 38.7217 50.0752 38.6963 50.0752 38.2139V38.1821C50.0752 37.5093 49.6499 37.1221 48.8628 37.1221C48.0566 37.1221 47.5742 37.5283 47.4092 37.998L45.835 37.687C46.2412 36.4429 47.4028 35.8145 48.8628 35.8145C50.2402 35.8145 51.7827 36.3984 51.7827 38.252V43H50.1514V42.0225H50.0879C49.7705 42.6445 49.0913 43.146 48.0059 43.146ZM48.4502 41.8955C49.4404 41.8955 50.0879 41.2417 50.0879 40.4609V39.6357C49.8594 39.8135 48.9771 39.9214 48.5581 39.9785C47.8154 40.0801 47.2759 40.353 47.2759 40.9814C47.2759 41.5845 47.771 41.8955 48.4502 41.8955ZM57.3115 43.127C56.0991 43.127 55.5405 42.4033 55.2866 41.8765H55.1851V43H53.5093V33.542H55.2168V37.084H55.2866C55.5342 36.5698 56.061 35.8145 57.3179 35.8145C58.9365 35.8145 60.2251 37.0903 60.2251 39.4707C60.2251 41.8066 58.981 43.127 57.3115 43.127ZM56.8291 41.7368C57.9082 41.7368 58.4795 40.772 58.4795 39.458C58.4795 38.1567 57.9209 37.2109 56.8291 37.2109C55.769 37.2109 55.1851 38.0996 55.1851 39.458C55.1851 40.8228 55.7754 41.7368 56.8291 41.7368ZM68.1851 43H65.7729V41.4893H68.0962C70.0449 41.4893 71.0352 40.4355 71.0352 38.2646C71.0352 36.1064 70.0449 35.0591 68.1343 35.0591H65.7285V33.542H68.2422C71.0605 33.542 72.7681 35.3193 72.7681 38.2646C72.7681 41.2227 71.0605 43 68.1851 43ZM66.6997 33.542V43H64.9541V33.542H66.6997ZM76.7163 43.0889C75.25 43.0889 74.2788 42.1177 74.2788 40.4165V35.9033H75.9863V40.1499C75.9863 41.083 76.5068 41.6479 77.3574 41.6479C78.2144 41.6479 78.8364 41.064 78.8364 40.0547V35.9033H80.5439V43H78.9253L78.9062 41.2417H79.0269C78.6396 42.4731 77.8589 43.0889 76.7163 43.0889ZM85.3809 43.146C83.2925 43.146 81.9722 41.6733 81.9722 39.4897C81.9722 37.2871 83.2925 35.8145 85.3809 35.8145C87.4629 35.8145 88.7896 37.2871 88.7896 39.4897C88.7896 41.6733 87.4629 43.146 85.3809 43.146ZM85.3809 41.7686C86.5044 41.7686 87.0566 40.7656 87.0566 39.4834C87.0566 38.1885 86.5044 37.1919 85.3809 37.1919C84.2573 37.1919 83.7051 38.1885 83.7051 39.4834C83.7051 40.7656 84.2573 41.7686 85.3809 41.7686Z" fill="#28272D"/>
<g style="mix-blend-mode:multiply">
<g clip-path="url(#clip0_37649_6749)">
<path fill-rule="evenodd" clip-rule="evenodd" d="M268.28 17.2197C267.987 16.9268 267.513 16.9268 267.22 17.2197C266.927 17.5126 266.927 17.9874 267.22 18.2803L270.939 22L267.22 25.7197C266.927 26.0126 266.927 26.4874 267.22 26.7803C267.513 27.0732 267.987 27.0732 268.28 26.7803L272 23.0607L275.72 26.7803C276.013 27.0732 276.487 27.0732 276.78 26.7803C277.073 26.4874 277.073 26.0126 276.78 25.7197L273.061 22L276.78 18.2803C277.073 17.9874 277.073 17.5126 276.78 17.2197C276.487 16.9268 276.013 16.9268 275.72 17.2197L272 20.9393L268.28 17.2197Z" fill="#737278"/>
</g>
</g>
<path d="M24.4707 66.1406C22.4023 66.1406 21.0547 64.8281 21.0547 63.0293V57.2695H22.168V62.9414C22.168 64.1953 23.041 65.1094 24.4707 65.1094C25.8945 65.1094 26.7617 64.1953 26.7617 62.9414V57.2695H27.875V63.0293C27.875 64.8281 26.5273 66.1406 24.4707 66.1406ZM32.082 66.1406C30.7344 66.1406 29.7969 65.543 29.5625 64.4121L30.5645 64.1719C30.752 64.8926 31.2852 65.2148 32.0703 65.2148C32.9844 65.2148 33.5703 64.7637 33.5703 64.2246C33.5703 63.7734 33.2539 63.4746 32.6094 63.3223L31.5195 63.0645C30.3301 62.7832 29.7617 62.1973 29.7617 61.2773C29.7617 60.1523 30.793 59.3672 32.1875 59.3672C33.5352 59.3672 34.2441 60.0234 34.543 60.9434L33.5879 61.1895C33.4062 60.7207 33.0371 60.2637 32.1934 60.2637C31.4141 60.2637 30.8281 60.668 30.8281 61.2129C30.8281 61.6992 31.1621 61.9688 31.9297 62.1504L32.9199 62.3848C34.1094 62.666 34.666 63.2578 34.666 64.1543C34.666 65.3027 33.6172 66.1406 32.082 66.1406ZM38.9492 66.1406C37.0508 66.1406 35.8789 64.793 35.8789 62.7773C35.8789 60.7676 37.0391 59.3672 38.8262 59.3672C40.2148 59.3672 41.6797 60.2227 41.6797 62.6426V63.082H36.5938V62.1914H41.1113L40.6191 62.5195C40.6191 61.2305 40.0098 60.3047 38.8262 60.3047C37.6426 60.3047 36.9453 61.2832 36.9453 62.3496V62.9414C36.9453 64.4004 37.7539 65.2031 38.9551 65.2031C39.7285 65.2031 40.3086 64.8633 40.5547 64.1953L41.5742 64.4766C41.2695 65.4668 40.291 66.1406 38.9492 66.1406ZM45.9453 66L49.1152 57.2695H50.4043L53.6152 66H52.4434L50.5918 60.8203C50.3633 60.1816 50.0762 59.2734 49.6484 57.791H49.8594C49.4375 59.291 49.1328 60.2285 48.9277 60.8203L47.1289 66H45.9453ZM47.5391 63.5625V62.5898H52.0215V63.5625H47.5391ZM56.0938 57.2695V66H54.9805V57.2695H56.0938ZM64.0273 59.4492V60.3516H60.6406V59.4492H64.0273ZM61.625 57.8906H62.6797V64.3008C62.6797 64.8867 62.8965 65.1445 63.4531 65.1445C63.5879 65.1445 63.8164 65.1094 63.9922 65.0742L64.209 65.9648C63.9922 66.041 63.6934 66.082 63.4238 66.082C62.293 66.082 61.625 65.4551 61.625 64.3828V57.8906ZM67.9238 66.1406C66.1426 66.1406 64.9414 64.7871 64.9414 62.7656C64.9414 60.7148 66.1426 59.3672 67.9238 59.3672C69.7109 59.3672 70.918 60.7148 70.918 62.7656C70.918 64.7871 69.7109 66.1406 67.9238 66.1406ZM67.9238 65.1973C69.248 65.1973 69.8516 64.0547 69.8516 62.7656C69.8516 61.4648 69.248 60.3105 67.9238 60.3105C66.6172 60.3105 66.0137 61.459 66.0137 62.7656C66.0137 64.0547 66.6172 65.1973 67.9238 65.1973ZM77.6621 66.1523C76.4199 66.1523 75.4297 65.4258 75.4297 64.1367C75.4297 62.6367 76.7656 62.3613 77.9785 62.209C79.1445 62.0625 79.6602 62.0977 79.6602 61.6113V61.5762C79.6602 60.7617 79.1973 60.293 78.2891 60.293C77.3457 60.293 76.8359 60.7969 76.6309 61.2539L75.6172 60.9199C76.1211 59.7305 77.2461 59.3672 78.2598 59.3672C79.1387 59.3672 80.7148 59.6367 80.7148 61.6816V66H79.6777V65.1094H79.6074C79.3848 65.5723 78.7695 66.1523 77.6621 66.1523ZM77.8438 65.2207C79.0098 65.2207 79.6602 64.4355 79.6602 63.6328V62.7246C79.4844 62.9297 78.3359 63.0469 77.9316 63.0996C77.1641 63.1992 76.4902 63.4453 76.4902 64.1895C76.4902 64.8691 77.0586 65.2207 77.8438 65.2207ZM84.7871 66.082C83.4629 66.082 82.5664 65.2676 82.5664 63.6094V59.4492H83.6211V63.5215C83.6211 64.5293 84.1895 65.1328 85.1035 65.1328C86.041 65.1328 86.75 64.4941 86.75 63.375V59.4492H87.8105V66H86.791V64.4121H86.9316C86.5273 65.6426 85.748 66.082 84.7871 66.082ZM92.2461 59.4492V60.3516H88.8594V59.4492H92.2461ZM89.8438 57.8906H90.8984V64.3008C90.8984 64.8867 91.1152 65.1445 91.6719 65.1445C91.8066 65.1445 92.0352 65.1094 92.2109 65.0742L92.4277 65.9648C92.2109 66.041 91.9121 66.082 91.6426 66.082C90.5117 66.082 89.8438 65.4551 89.8438 64.3828V57.8906ZM96.1426 66.1406C94.3613 66.1406 93.1602 64.7871 93.1602 62.7656C93.1602 60.7148 94.3613 59.3672 96.1426 59.3672C97.9297 59.3672 99.1367 60.7148 99.1367 62.7656C99.1367 64.7871 97.9297 66.1406 96.1426 66.1406ZM96.1426 65.1973C97.4668 65.1973 98.0703 64.0547 98.0703 62.7656C98.0703 61.4648 97.4668 60.3105 96.1426 60.3105C94.8359 60.3105 94.2324 61.459 94.2324 62.7656C94.2324 64.0547 94.8359 65.1973 96.1426 65.1973ZM100.672 66V59.4492H101.697L101.703 60.9141H101.621C101.885 59.8535 102.688 59.332 103.537 59.332C104.486 59.332 105.09 59.9766 105.266 60.9258H105.125C105.359 59.9473 106.227 59.332 107.27 59.332C108.406 59.332 109.332 60.0645 109.332 61.582V66H108.271V61.6113C108.271 60.668 107.656 60.293 106.953 60.293C106.068 60.293 105.529 60.8965 105.529 61.7227V66H104.475V61.5059C104.475 60.7793 103.93 60.293 103.191 60.293C102.424 60.293 101.727 60.832 101.727 61.875V66H100.672ZM113.018 66.1523C111.775 66.1523 110.785 65.4258 110.785 64.1367C110.785 62.6367 112.121 62.3613 113.334 62.209C114.5 62.0625 115.016 62.0977 115.016 61.6113V61.5762C115.016 60.7617 114.553 60.293 113.645 60.293C112.701 60.293 112.191 60.7969 111.986 61.2539L110.973 60.9199C111.477 59.7305 112.602 59.3672 113.615 59.3672C114.494 59.3672 116.07 59.6367 116.07 61.6816V66H115.033V65.1094H114.963C114.74 65.5723 114.125 66.1523 113.018 66.1523ZM113.199 65.2207C114.365 65.2207 115.016 64.4355 115.016 63.6328V62.7246C114.84 62.9297 113.691 63.0469 113.287 63.0996C112.52 63.1992 111.846 63.4453 111.846 64.1895C111.846 64.8691 112.414 65.2207 113.199 65.2207ZM120.5 59.4492V60.3516H117.113V59.4492H120.5ZM118.098 57.8906H119.152V64.3008C119.152 64.8867 119.369 65.1445 119.926 65.1445C120.061 65.1445 120.289 65.1094 120.465 65.0742L120.682 65.9648C120.465 66.041 120.166 66.082 119.896 66.082C118.766 66.082 118.098 65.4551 118.098 64.3828V57.8906ZM121.848 66V59.4492H122.902V66H121.848ZM122.381 58.377C121.982 58.377 121.648 58.0664 121.648 57.6797C121.648 57.293 121.982 56.9824 122.381 56.9824C122.785 56.9824 123.119 57.293 123.119 57.6797C123.119 58.0664 122.785 58.377 122.381 58.377ZM127.42 66.1406C125.639 66.1406 124.438 64.7871 124.438 62.7656C124.438 60.7148 125.639 59.3672 127.42 59.3672C128.686 59.3672 129.717 60.0352 130.074 61.1777L129.061 61.4648C128.867 60.791 128.281 60.3105 127.42 60.3105C126.113 60.3105 125.51 61.459 125.51 62.7656C125.51 64.0547 126.113 65.1973 127.42 65.1973C128.299 65.1973 128.896 64.6992 129.09 63.9902L130.098 64.2773C129.746 65.4434 128.703 66.1406 127.42 66.1406ZM133.561 66.1523C132.318 66.1523 131.328 65.4258 131.328 64.1367C131.328 62.6367 132.664 62.3613 133.877 62.209C135.043 62.0625 135.559 62.0977 135.559 61.6113V61.5762C135.559 60.7617 135.096 60.293 134.188 60.293C133.244 60.293 132.734 60.7969 132.529 61.2539L131.516 60.9199C132.02 59.7305 133.145 59.3672 134.158 59.3672C135.037 59.3672 136.613 59.6367 136.613 61.6816V66H135.576V65.1094H135.506C135.283 65.5723 134.668 66.1523 133.561 66.1523ZM133.742 65.2207C134.908 65.2207 135.559 64.4355 135.559 63.6328V62.7246C135.383 62.9297 134.234 63.0469 133.83 63.0996C133.062 63.1992 132.389 63.4453 132.389 64.1895C132.389 64.8691 132.957 65.2207 133.742 65.2207ZM139.936 66.0469C138.951 66.0469 138.465 65.4961 138.465 64.5469V57.2695H139.52V64.2832C139.52 64.8867 139.625 65.1035 140.064 65.1035C140.293 65.1035 140.387 65.0859 140.486 65.0566L140.697 65.9473C140.51 66 140.217 66.0469 139.936 66.0469ZM143.24 66.0469C142.256 66.0469 141.77 65.4961 141.77 64.5469V57.2695H142.824V64.2832C142.824 64.8867 142.93 65.1035 143.369 65.1035C143.598 65.1035 143.691 65.0859 143.791 65.0566L144.002 65.9473C143.814 66 143.521 66.0469 143.24 66.0469ZM144.734 68.373L145.004 67.459L145.115 67.4883C145.76 67.6582 146.223 67.5176 146.545 66.5801L146.732 66.0352L144.23 59.4492H145.385L146.779 63.334C147.072 64.1484 147.248 64.9512 147.477 65.7012H147.09C147.312 64.9512 147.494 64.1426 147.787 63.334L149.193 59.4492H150.342L147.465 66.9785C147.066 68.0215 146.434 68.4961 145.508 68.4961C145.133 68.4961 144.846 68.4258 144.734 68.373ZM157.42 66.1406C155.785 66.1406 154.648 64.8281 154.648 62.7422C154.648 60.668 155.791 59.3672 157.426 59.3672C158.703 59.3672 159.107 60.1523 159.324 60.498H159.406V57.2695H160.461V66H159.441V64.9863H159.324C159.107 65.3496 158.668 66.1406 157.42 66.1406ZM157.578 65.1973C158.768 65.1973 159.418 64.1895 159.418 62.7305C159.418 61.2832 158.785 60.3105 157.578 60.3105C156.336 60.3105 155.721 61.3711 155.721 62.7305C155.721 64.1074 156.354 65.1973 157.578 65.1973ZM162.312 66V59.4492H163.332V60.457H163.402C163.643 59.7949 164.322 59.3555 165.102 59.3555C165.254 59.3555 165.512 59.3672 165.635 59.373V60.4336C165.57 60.4219 165.283 60.375 165.002 60.375C164.059 60.375 163.367 61.0137 163.367 61.8984V66H162.312ZM168.67 66.1523C167.428 66.1523 166.438 65.4258 166.438 64.1367C166.438 62.6367 167.773 62.3613 168.986 62.209C170.152 62.0625 170.668 62.0977 170.668 61.6113V61.5762C170.668 60.7617 170.205 60.293 169.297 60.293C168.354 60.293 167.844 60.7969 167.639 61.2539L166.625 60.9199C167.129 59.7305 168.254 59.3672 169.268 59.3672C170.146 59.3672 171.723 59.6367 171.723 61.6816V66H170.686V65.1094H170.615C170.393 65.5723 169.777 66.1523 168.67 66.1523ZM168.852 65.2207C170.018 65.2207 170.668 64.4355 170.668 63.6328V62.7246C170.492 62.9297 169.344 63.0469 168.939 63.0996C168.172 63.1992 167.498 63.4453 167.498 64.1895C167.498 64.8691 168.066 65.2207 168.852 65.2207ZM176.621 59.4492V60.3516H172.766V59.4492H176.621ZM174.055 66V58.5762C174.055 57.4395 174.963 56.8594 175.918 56.8594C176.416 56.8594 176.744 56.9648 176.902 57.0352L176.609 57.9375C176.498 57.9023 176.334 57.8379 176.041 57.8379C175.391 57.8379 175.109 58.1777 175.109 58.8105V66H174.055ZM180.184 59.4492V60.3516H176.797V59.4492H180.184ZM177.781 57.8906H178.836V64.3008C178.836 64.8867 179.053 65.1445 179.609 65.1445C179.744 65.1445 179.973 65.1094 180.148 65.0742L180.365 65.9648C180.148 66.041 179.85 66.082 179.58 66.082C178.449 66.082 177.781 65.4551 177.781 64.3828V57.8906ZM187.484 59.4492V60.3516H184.098V59.4492H187.484ZM185.082 57.8906H186.137V64.3008C186.137 64.8867 186.354 65.1445 186.91 65.1445C187.045 65.1445 187.273 65.1094 187.449 65.0742L187.666 65.9648C187.449 66.041 187.15 66.082 186.881 66.082C185.75 66.082 185.082 65.4551 185.082 64.3828V57.8906ZM189.887 62.0742V66H188.832V57.2695H189.887V61.0371H189.705C190.104 59.8301 190.865 59.3672 191.855 59.3672C193.18 59.3672 194.076 60.1816 194.076 61.8398V66H193.016V61.9277C193.016 60.9199 192.453 60.3164 191.539 60.3164C190.596 60.3164 189.887 60.9551 189.887 62.0742ZM198.688 66.1406C196.789 66.1406 195.617 64.793 195.617 62.7773C195.617 60.7676 196.777 59.3672 198.564 59.3672C199.953 59.3672 201.418 60.2227 201.418 62.6426V63.082H196.332V62.1914H200.85L200.357 62.5195C200.357 61.2305 199.748 60.3047 198.564 60.3047C197.381 60.3047 196.684 61.2832 196.684 62.3496V62.9414C196.684 64.4004 197.492 65.2031 198.693 65.2031C199.467 65.2031 200.047 64.8633 200.293 64.1953L201.312 64.4766C201.008 65.4668 200.029 66.1406 198.688 66.1406ZM206.434 66V57.2695H208.016L210.166 62.7773C210.365 63.2871 210.723 64.4297 210.928 65.1914H210.682C210.893 64.4766 211.25 63.3105 211.455 62.7773L213.576 57.2695H215.164V66H214.068V61.0137C214.068 60.293 214.092 59.1152 214.115 58.1367H214.209C213.875 59.2207 213.453 60.4453 213.23 61.0137L211.279 66H210.312L208.332 61.0137C208.115 60.4688 207.723 59.2734 207.336 58.1367H207.441C207.465 59.0098 207.494 60.2461 207.494 61.0137V66H206.434ZM217.273 66V57.2695H220.262C222.301 57.2695 223.238 58.4062 223.238 59.9648C223.238 61.5234 222.301 62.6133 220.268 62.6133H217.895V61.623H220.215C221.592 61.623 222.131 60.9902 222.131 59.9648C222.131 58.9277 221.592 58.248 220.203 58.248H218.387V66H217.273ZM222.289 66L220.18 62.0684H221.434L223.578 66H222.289ZM23.3809 82.1406C21.7461 82.1406 20.6094 80.8281 20.6094 78.7422C20.6094 76.668 21.752 75.3672 23.3867 75.3672C24.6641 75.3672 25.0684 76.1523 25.2852 76.498H25.3672V73.2695H26.4219V82H25.4023V80.9863H25.2852C25.0684 81.3496 24.6289 82.1406 23.3809 82.1406ZM23.5391 81.1973C24.7285 81.1973 25.3789 80.1895 25.3789 78.7305C25.3789 77.2832 24.7461 76.3105 23.5391 76.3105C22.2969 76.3105 21.6816 77.3711 21.6816 78.7305C21.6816 80.1074 22.3145 81.1973 23.5391 81.1973ZM31.0273 82.1406C29.1289 82.1406 27.957 80.793 27.957 78.7773C27.957 76.7676 29.1172 75.3672 30.9043 75.3672C32.293 75.3672 33.7578 76.2227 33.7578 78.6426V79.082H28.6719V78.1914H33.1895L32.6973 78.5195C32.6973 77.2305 32.0879 76.3047 30.9043 76.3047C29.7207 76.3047 29.0234 77.2832 29.0234 78.3496V78.9414C29.0234 80.4004 29.832 81.2031 31.0332 81.2031C31.8066 81.2031 32.3867 80.8633 32.6328 80.1953L33.6523 80.4766C33.3477 81.4668 32.3691 82.1406 31.0273 82.1406ZM37.4961 82.1406C36.1484 82.1406 35.2109 81.543 34.9766 80.4121L35.9785 80.1719C36.166 80.8926 36.6992 81.2148 37.4844 81.2148C38.3984 81.2148 38.9844 80.7637 38.9844 80.2246C38.9844 79.7734 38.668 79.4746 38.0234 79.3223L36.9336 79.0645C35.7441 78.7832 35.1758 78.1973 35.1758 77.2773C35.1758 76.1523 36.207 75.3672 37.6016 75.3672C38.9492 75.3672 39.6582 76.0234 39.957 76.9434L39.002 77.1895C38.8203 76.7207 38.4512 76.2637 37.6074 76.2637C36.8281 76.2637 36.2422 76.668 36.2422 77.2129C36.2422 77.6992 36.5762 77.9688 37.3438 78.1504L38.334 78.3848C39.5234 78.666 40.0801 79.2578 40.0801 80.1543C40.0801 81.3027 39.0312 82.1406 37.4961 82.1406ZM44.2754 82.1406C42.4941 82.1406 41.293 80.7871 41.293 78.7656C41.293 76.7148 42.4941 75.3672 44.2754 75.3672C45.541 75.3672 46.5723 76.0352 46.9297 77.1777L45.916 77.4648C45.7227 76.791 45.1367 76.3105 44.2754 76.3105C42.9688 76.3105 42.3652 77.459 42.3652 78.7656C42.3652 80.0547 42.9688 81.1973 44.2754 81.1973C45.1543 81.1973 45.752 80.6992 45.9453 79.9902L46.9531 80.2773C46.6016 81.4434 45.5586 82.1406 44.2754 82.1406ZM48.4648 82V75.4492H49.4844V76.457H49.5547C49.7949 75.7949 50.4746 75.3555 51.2539 75.3555C51.4062 75.3555 51.6641 75.3672 51.7871 75.373V76.4336C51.7227 76.4219 51.4355 76.375 51.1543 76.375C50.2109 76.375 49.5195 77.0137 49.5195 77.8984V82H48.4648ZM53.1758 82V75.4492H54.2305V82H53.1758ZM53.709 74.377C53.3105 74.377 52.9766 74.0664 52.9766 73.6797C52.9766 73.293 53.3105 72.9824 53.709 72.9824C54.1133 72.9824 54.4473 73.293 54.4473 73.6797C54.4473 74.0664 54.1133 74.377 53.709 74.377ZM56.082 84.4492V75.4492H57.1016V76.498H57.2188C57.4355 76.1523 57.8398 75.3672 59.1172 75.3672C60.752 75.3672 61.8945 76.668 61.8945 78.7422C61.8945 80.8281 60.7578 82.1406 59.123 82.1406C57.875 82.1406 57.4355 81.3496 57.2188 80.9863H57.1367V84.4492H56.082ZM58.9648 81.1973C60.1895 81.1973 60.8223 80.1074 60.8223 78.7305C60.8223 77.3711 60.207 76.3105 58.9648 76.3105C57.7578 76.3105 57.125 77.2832 57.125 78.7305C57.125 80.1895 57.7754 81.1973 58.9648 81.1973ZM66.0078 75.4492V76.3516H62.6211V75.4492H66.0078ZM63.6055 73.8906H64.6602V80.3008C64.6602 80.8867 64.877 81.1445 65.4336 81.1445C65.5684 81.1445 65.7969 81.1094 65.9727 81.0742L66.1895 81.9648C65.9727 82.041 65.6738 82.082 65.4043 82.082C64.2734 82.082 63.6055 81.4551 63.6055 80.3828V73.8906ZM67.3555 82V75.4492H68.4102V82H67.3555ZM67.8887 74.377C67.4902 74.377 67.1562 74.0664 67.1562 73.6797C67.1562 73.293 67.4902 72.9824 67.8887 72.9824C68.293 72.9824 68.627 73.293 68.627 73.6797C68.627 74.0664 68.293 74.377 67.8887 74.377ZM72.9277 82.1406C71.1465 82.1406 69.9453 80.7871 69.9453 78.7656C69.9453 76.7148 71.1465 75.3672 72.9277 75.3672C74.7148 75.3672 75.9219 76.7148 75.9219 78.7656C75.9219 80.7871 74.7148 82.1406 72.9277 82.1406ZM72.9277 81.1973C74.252 81.1973 74.8555 80.0547 74.8555 78.7656C74.8555 77.4648 74.252 76.3105 72.9277 76.3105C71.6211 76.3105 71.0176 77.459 71.0176 78.7656C71.0176 80.0547 71.6211 81.1973 72.9277 81.1973ZM78.5117 78.0742V82H77.457V75.4492H78.4707L78.4766 77.0371H78.3301C78.7285 75.8301 79.4902 75.3672 80.4805 75.3672C81.8047 75.3672 82.7012 76.1816 82.7012 77.8398V82H81.6406V77.9277C81.6406 76.9199 81.0781 76.3164 80.1641 76.3164C79.2207 76.3164 78.5117 76.9551 78.5117 78.0742ZM90.9746 82.1406C89.7266 82.1406 89.2871 81.3496 89.0703 80.9863H88.9531V82H87.9336V73.2695H88.9883V76.498H89.0703C89.2871 76.1523 89.6914 75.3672 90.9688 75.3672C92.6035 75.3672 93.7461 76.668 93.7461 78.7422C93.7461 80.8281 92.6094 82.1406 90.9746 82.1406ZM90.8164 81.1973C92.041 81.1973 92.6738 80.1074 92.6738 78.7305C92.6738 77.3711 92.0586 76.3105 90.8164 76.3105C89.6094 76.3105 88.9766 77.2832 88.9766 78.7305C88.9766 80.1895 89.627 81.1973 90.8164 81.1973ZM97.2324 82.1523C95.9902 82.1523 95 81.4258 95 80.1367C95 78.6367 96.3359 78.3613 97.5488 78.209C98.7148 78.0625 99.2305 78.0977 99.2305 77.6113V77.5762C99.2305 76.7617 98.7676 76.293 97.8594 76.293C96.916 76.293 96.4062 76.7969 96.2012 77.2539L95.1875 76.9199C95.6914 75.7305 96.8164 75.3672 97.8301 75.3672C98.709 75.3672 100.285 75.6367 100.285 77.6816V82H99.248V81.1094H99.1777C98.9551 81.5723 98.3398 82.1523 97.2324 82.1523ZM97.4141 81.2207C98.5801 81.2207 99.2305 80.4355 99.2305 79.6328V78.7246C99.0547 78.9297 97.9062 79.0469 97.502 79.0996C96.7344 79.1992 96.0605 79.4453 96.0605 80.1895C96.0605 80.8691 96.6289 81.2207 97.4141 81.2207ZM104.363 82.1406C103.016 82.1406 102.078 81.543 101.844 80.4121L102.846 80.1719C103.033 80.8926 103.566 81.2148 104.352 81.2148C105.266 81.2148 105.852 80.7637 105.852 80.2246C105.852 79.7734 105.535 79.4746 104.891 79.3223L103.801 79.0645C102.611 78.7832 102.043 78.1973 102.043 77.2773C102.043 76.1523 103.074 75.3672 104.469 75.3672C105.816 75.3672 106.525 76.0234 106.824 76.9434L105.869 77.1895C105.688 76.7207 105.318 76.2637 104.475 76.2637C103.695 76.2637 103.109 76.668 103.109 77.2129C103.109 77.6992 103.443 77.9688 104.211 78.1504L105.201 78.3848C106.391 78.666 106.947 79.2578 106.947 80.1543C106.947 81.3027 105.898 82.1406 104.363 82.1406ZM111.23 82.1406C109.332 82.1406 108.16 80.793 108.16 78.7773C108.16 76.7676 109.32 75.3672 111.107 75.3672C112.496 75.3672 113.961 76.2227 113.961 78.6426V79.082H108.875V78.1914H113.393L112.9 78.5195C112.9 77.2305 112.291 76.3047 111.107 76.3047C109.924 76.3047 109.227 77.2832 109.227 78.3496V78.9414C109.227 80.4004 110.035 81.2031 111.236 81.2031C112.01 81.2031 112.59 80.8633 112.836 80.1953L113.855 80.4766C113.551 81.4668 112.572 82.1406 111.23 82.1406ZM117.928 82.1406C116.293 82.1406 115.156 80.8281 115.156 78.7422C115.156 76.668 116.299 75.3672 117.934 75.3672C119.211 75.3672 119.615 76.1523 119.832 76.498H119.914V73.2695H120.969V82H119.949V80.9863H119.832C119.615 81.3496 119.176 82.1406 117.928 82.1406ZM118.086 81.1973C119.275 81.1973 119.926 80.1895 119.926 78.7305C119.926 77.2832 119.293 76.3105 118.086 76.3105C116.844 76.3105 116.229 77.3711 116.229 78.7305C116.229 80.1074 116.861 81.1973 118.086 81.1973ZM128.861 82.1406C127.08 82.1406 125.879 80.7871 125.879 78.7656C125.879 76.7148 127.08 75.3672 128.861 75.3672C130.648 75.3672 131.855 76.7148 131.855 78.7656C131.855 80.7871 130.648 82.1406 128.861 82.1406ZM128.861 81.1973C130.186 81.1973 130.789 80.0547 130.789 78.7656C130.789 77.4648 130.186 76.3105 128.861 76.3105C127.555 76.3105 126.951 77.459 126.951 78.7656C126.951 80.0547 127.555 81.1973 128.861 81.1973ZM134.445 78.0742V82H133.391V75.4492H134.404L134.41 77.0371H134.264C134.662 75.8301 135.424 75.3672 136.414 75.3672C137.738 75.3672 138.635 76.1816 138.635 77.8398V82H137.574V77.9277C137.574 76.9199 137.012 76.3164 136.098 76.3164C135.154 76.3164 134.445 76.9551 134.445 78.0742ZM146.533 82.1406C144.752 82.1406 143.551 80.7871 143.551 78.7656C143.551 76.7148 144.752 75.3672 146.533 75.3672C147.799 75.3672 148.83 76.0352 149.188 77.1777L148.174 77.4648C147.98 76.791 147.395 76.3105 146.533 76.3105C145.227 76.3105 144.623 77.459 144.623 78.7656C144.623 80.0547 145.227 81.1973 146.533 81.1973C147.412 81.1973 148.01 80.6992 148.203 79.9902L149.211 80.2773C148.859 81.4434 147.816 82.1406 146.533 82.1406ZM153.389 82.1406C151.607 82.1406 150.406 80.7871 150.406 78.7656C150.406 76.7148 151.607 75.3672 153.389 75.3672C155.176 75.3672 156.383 76.7148 156.383 78.7656C156.383 80.7871 155.176 82.1406 153.389 82.1406ZM153.389 81.1973C154.713 81.1973 155.316 80.0547 155.316 78.7656C155.316 77.4648 154.713 76.3105 153.389 76.3105C152.082 76.3105 151.479 77.459 151.479 78.7656C151.479 80.0547 152.082 81.1973 153.389 81.1973ZM160.373 82.1406C158.738 82.1406 157.602 80.8281 157.602 78.7422C157.602 76.668 158.744 75.3672 160.379 75.3672C161.656 75.3672 162.061 76.1523 162.277 76.498H162.359V73.2695H163.414V82H162.395V80.9863H162.277C162.061 81.3496 161.621 82.1406 160.373 82.1406ZM160.531 81.1973C161.721 81.1973 162.371 80.1895 162.371 78.7305C162.371 77.2832 161.738 76.3105 160.531 76.3105C159.289 76.3105 158.674 77.3711 158.674 78.7305C158.674 80.1074 159.307 81.1973 160.531 81.1973ZM168.02 82.1406C166.121 82.1406 164.949 80.793 164.949 78.7773C164.949 76.7676 166.109 75.3672 167.896 75.3672C169.285 75.3672 170.75 76.2227 170.75 78.6426V79.082H165.664V78.1914H170.182L169.689 78.5195C169.689 77.2305 169.08 76.3047 167.896 76.3047C166.713 76.3047 166.016 77.2832 166.016 78.3496V78.9414C166.016 80.4004 166.824 81.2031 168.025 81.2031C168.799 81.2031 169.379 80.8633 169.625 80.1953L170.645 80.4766C170.34 81.4668 169.361 82.1406 168.02 82.1406ZM178.303 82.1406C176.521 82.1406 175.32 80.7871 175.32 78.7656C175.32 76.7148 176.521 75.3672 178.303 75.3672C179.568 75.3672 180.6 76.0352 180.957 77.1777L179.943 77.4648C179.75 76.791 179.164 76.3105 178.303 76.3105C176.996 76.3105 176.393 77.459 176.393 78.7656C176.393 80.0547 176.996 81.1973 178.303 81.1973C179.182 81.1973 179.779 80.6992 179.973 79.9902L180.98 80.2773C180.629 81.4434 179.586 82.1406 178.303 82.1406ZM183.547 78.0742V82H182.492V73.2695H183.547V77.0371H183.365C183.764 75.8301 184.525 75.3672 185.516 75.3672C186.84 75.3672 187.736 76.1816 187.736 77.8398V82H186.676V77.9277C186.676 76.9199 186.113 76.3164 185.199 76.3164C184.256 76.3164 183.547 76.9551 183.547 78.0742ZM191.428 82.1523C190.186 82.1523 189.195 81.4258 189.195 80.1367C189.195 78.6367 190.531 78.3613 191.744 78.209C192.91 78.0625 193.426 78.0977 193.426 77.6113V77.5762C193.426 76.7617 192.963 76.293 192.055 76.293C191.111 76.293 190.602 76.7969 190.396 77.2539L189.383 76.9199C189.887 75.7305 191.012 75.3672 192.025 75.3672C192.904 75.3672 194.48 75.6367 194.48 77.6816V82H193.443V81.1094H193.373C193.15 81.5723 192.535 82.1523 191.428 82.1523ZM191.609 81.2207C192.775 81.2207 193.426 80.4355 193.426 79.6328V78.7246C193.25 78.9297 192.102 79.0469 191.697 79.0996C190.93 79.1992 190.256 79.4453 190.256 80.1895C190.256 80.8691 190.824 81.2207 191.609 81.2207ZM197.387 78.0742V82H196.332V75.4492H197.346L197.352 77.0371H197.205C197.604 75.8301 198.365 75.3672 199.355 75.3672C200.68 75.3672 201.576 76.1816 201.576 77.8398V82H200.516V77.9277C200.516 76.9199 199.953 76.3164 199.039 76.3164C198.096 76.3164 197.387 76.9551 197.387 78.0742ZM206.088 84.5898C204.635 84.5898 203.797 83.9746 203.393 83.2539L204.248 82.7031C204.523 83.084 204.934 83.6699 206.088 83.6699C207.131 83.6699 207.887 83.1895 207.887 82.1113V80.7988H207.787C207.564 81.1738 207.148 81.8945 205.883 81.8945C204.312 81.8945 203.117 80.752 203.117 78.6953C203.117 76.668 204.271 75.3672 205.906 75.3672C207.172 75.3672 207.594 76.1465 207.816 76.498H207.916V75.4492H208.941V82.1699C208.941 83.8633 207.682 84.5898 206.088 84.5898ZM206.059 80.957C207.248 80.957 207.898 80.1016 207.898 78.6719C207.898 77.2832 207.266 76.3105 206.059 76.3105C204.811 76.3105 204.189 77.3652 204.189 78.6719C204.189 80.0195 204.828 80.957 206.059 80.957ZM213.547 82.1406C211.648 82.1406 210.477 80.793 210.477 78.7773C210.477 76.7676 211.637 75.3672 213.424 75.3672C214.812 75.3672 216.277 76.2227 216.277 78.6426V79.082H211.191V78.1914H215.709L215.217 78.5195C215.217 77.2305 214.607 76.3047 213.424 76.3047C212.24 76.3047 211.543 77.2832 211.543 78.3496V78.9414C211.543 80.4004 212.352 81.2031 213.553 81.2031C214.326 81.2031 214.906 80.8633 215.152 80.1953L216.172 80.4766C215.867 81.4668 214.889 82.1406 213.547 82.1406ZM220.016 82.1406C218.668 82.1406 217.73 81.543 217.496 80.4121L218.498 80.1719C218.686 80.8926 219.219 81.2148 220.004 81.2148C220.918 81.2148 221.504 80.7637 221.504 80.2246C221.504 79.7734 221.188 79.4746 220.543 79.3223L219.453 79.0645C218.264 78.7832 217.695 78.1973 217.695 77.2773C217.695 76.1523 218.727 75.3672 220.121 75.3672C221.469 75.3672 222.178 76.0234 222.477 76.9434L221.521 77.1895C221.34 76.7207 220.971 76.2637 220.127 76.2637C219.348 76.2637 218.762 76.668 218.762 77.2129C218.762 77.6992 219.096 77.9688 219.863 78.1504L220.854 78.3848C222.043 78.666 222.6 79.2578 222.6 80.1543C222.6 81.3027 221.551 82.1406 220.016 82.1406ZM224.926 82.0762C224.492 82.0762 224.141 81.7188 224.141 81.2852C224.141 80.8516 224.498 80.5 224.926 80.5C225.359 80.5 225.717 80.8516 225.717 81.2852C225.717 81.7246 225.359 82.0762 224.926 82.0762Z" fill="#28272D"/>
<path d="M144 94H152L148 98L144 94Z" fill="white"/>
</g>
<rect x="56.5" y="99.5" width="182" height="31" rx="3.5" fill="#ECECEF"/>
<rect x="56.5" y="99.5" width="182" height="31" rx="3.5" stroke="#89888D"/>
<g clip-path="url(#clip1_37649_6749)">
<path fill-rule="evenodd" clip-rule="evenodd" d="M70.3766 107.266C70.2509 106.911 69.7491 106.911 69.6234 107.266L69.3319 108.089C69.2917 108.202 69.2023 108.292 69.0888 108.332L68.2661 108.623C67.9113 108.749 67.9113 109.251 68.2661 109.377L69.0888 109.668C69.2023 109.708 69.2917 109.798 69.3319 109.911L69.6234 110.734C69.7491 111.089 70.2509 111.089 70.3766 110.734L70.6681 109.911C70.7083 109.798 70.7977 109.708 70.9112 109.668L71.7339 109.377C72.0887 109.251 72.0887 108.749 71.7339 108.623L70.9112 108.332C70.7977 108.292 70.7083 108.202 70.6681 108.089L70.3766 107.266ZM82.3949 113.868L82.3949 113.868L82.3807 113.83L81.831 112.39L81.6589 112.919L81.3219 113.955H80.2324H75.768H74.6785L74.3415 112.919L74.1697 112.391L73.6187 113.836L73.6148 113.846L73.6107 113.856L73.5986 113.886C73.482 114.198 73.4684 114.54 73.56 114.86C73.6522 115.183 73.846 115.465 74.1108 115.666L74.1121 115.667L74.1149 115.67L74.1255 115.678L74.1359 115.686L74.1392 115.688L76.613 117.55L76.6177 117.554L76.6177 117.554L77.8503 118.489L77.8508 118.489L77.9975 118.601L78.1442 118.489L78.1447 118.489L79.3773 117.554L79.3828 117.55L79.3828 117.55L81.8739 115.677L81.8788 115.673L81.8877 115.667C82.1532 115.466 82.3474 115.182 82.4399 114.859C82.5324 114.536 82.5178 114.191 82.3983 113.877L82.3949 113.868ZM82.7863 116.868L80.2841 118.749L79.0514 119.684L78.3026 120.253C78.2147 120.319 78.1076 120.355 77.9975 120.355C77.8874 120.355 77.7803 120.319 77.6924 120.253L76.9436 119.684L75.711 118.749L73.2264 116.879L73.2125 116.868L73.2064 116.863C72.6813 116.465 72.2992 115.907 72.1177 115.272C71.9363 114.637 71.9652 113.961 72.2002 113.344L72.2172 113.301L73.4309 110.12L73.4986 109.942L73.5422 109.828L73.7149 109.375L73.7322 109.33L73.8497 109.022C73.8827 108.938 73.9415 108.867 74.0176 108.818C74.0744 108.782 74.1389 108.76 74.2059 108.753C74.2729 108.746 74.3405 108.755 74.4035 108.779C74.4664 108.803 74.5229 108.841 74.5684 108.891C74.6139 108.941 74.6471 109.001 74.6655 109.066L74.7647 109.371L74.7688 109.384L74.9622 109.978L75.0212 110.159L75.768 112.455H80.2324L80.9793 110.159L81.0382 109.978L81.2316 109.384L81.2356 109.371L81.3349 109.066C81.3531 109.001 81.3863 108.941 81.4318 108.891C81.4773 108.841 81.5338 108.802 81.5968 108.778C81.6597 108.754 81.7275 108.745 81.7945 108.752C81.8615 108.759 81.926 108.782 81.9828 108.818C82.0589 108.867 82.1177 108.938 82.1507 109.022L82.2673 109.327L82.2856 109.375L82.4571 109.824L82.5018 109.942L82.5696 110.119L83.784 113.3L83.8002 113.344C84.0349 113.96 84.0637 114.637 83.882 115.272C83.7004 115.907 83.3183 116.465 82.7932 116.862L82.7863 116.868ZM71.0293 118.333C71.1864 117.889 71.8136 117.889 71.9707 118.333L72.3351 119.361C72.3854 119.503 72.4971 119.615 72.639 119.665L73.6674 120.029C74.1109 120.186 74.1109 120.814 73.6674 120.971L72.639 121.335C72.4971 121.385 72.3854 121.497 72.3351 121.639L71.9707 122.667C71.8136 123.111 71.1864 123.111 71.0293 122.667L70.6649 121.639C70.6146 121.497 70.5029 121.385 70.3609 121.335L69.3326 120.971C68.8891 120.814 68.8891 120.186 69.3326 120.029L70.3609 119.665C70.5029 119.615 70.6146 119.503 70.6649 119.361L71.0293 118.333Z" fill="#3A383F"/>
</g>
<path d="M91.1309 120L88.3555 109.814H89.6816L91.2949 116.062C91.5479 117.067 91.7734 118.1 91.9717 119.214H91.8145C92.0195 118.1 92.2451 117.067 92.5117 116.062L94.1592 109.814H95.6357L97.2695 116.062C97.5361 117.067 97.7686 118.1 97.9805 119.214H97.8027C98.001 118.1 98.2402 117.067 98.4932 116.062L100.1 109.814H101.439L98.6504 120H97.1396L95.3896 113.547C95.1641 112.713 94.9521 111.756 94.7539 110.464H95.0273C94.8291 111.688 94.6514 112.583 94.3916 113.547L92.6484 120H91.1309ZM102.396 120V112.357H103.586V113.533H103.668C103.948 112.761 104.741 112.248 105.65 112.248C105.828 112.248 106.129 112.262 106.272 112.269V113.506C106.197 113.492 105.862 113.438 105.534 113.438C104.434 113.438 103.627 114.183 103.627 115.215V120H102.396ZM107.893 120V112.357H109.123V120H107.893ZM108.515 111.106C108.05 111.106 107.66 110.744 107.66 110.293C107.66 109.842 108.05 109.479 108.515 109.479C108.986 109.479 109.376 109.842 109.376 110.293C109.376 110.744 108.986 111.106 108.515 111.106ZM114.291 112.357V113.41H110.34V112.357H114.291ZM111.488 110.539H112.719V118.018C112.719 118.701 112.972 119.002 113.621 119.002C113.778 119.002 114.045 118.961 114.25 118.92L114.503 119.959C114.25 120.048 113.901 120.096 113.587 120.096C112.268 120.096 111.488 119.364 111.488 118.113V110.539ZM118.939 120.164C116.725 120.164 115.357 118.592 115.357 116.24C115.357 113.896 116.711 112.262 118.796 112.262C120.416 112.262 122.125 113.26 122.125 116.083V116.596H116.191V115.557H121.462L120.888 115.939C120.888 114.436 120.177 113.355 118.796 113.355C117.415 113.355 116.602 114.497 116.602 115.741V116.432C116.602 118.134 117.545 119.07 118.946 119.07C119.849 119.07 120.525 118.674 120.812 117.895L122.002 118.223C121.646 119.378 120.505 120.164 118.939 120.164ZM127.977 120V109.814H129.822L132.331 116.24C132.563 116.835 132.98 118.168 133.22 119.057H132.933C133.179 118.223 133.596 116.862 133.835 116.24L136.31 109.814H138.162V120H136.884V114.183C136.884 113.342 136.911 111.968 136.938 110.826H137.048C136.658 112.091 136.166 113.52 135.906 114.183L133.63 120H132.502L130.191 114.183C129.938 113.547 129.48 112.152 129.029 110.826H129.152C129.18 111.845 129.214 113.287 129.214 114.183V120H127.977ZM140.623 120V109.814H144.109C146.488 109.814 147.582 111.141 147.582 112.959C147.582 114.777 146.488 116.049 144.116 116.049H141.348V114.894H144.055C145.661 114.894 146.29 114.155 146.29 112.959C146.29 111.749 145.661 110.956 144.041 110.956H141.922V120H140.623ZM146.475 120L144.014 115.413H145.477L147.979 120H146.475ZM156.284 120.164C154.377 120.164 153.051 118.633 153.051 116.199C153.051 113.779 154.384 112.262 156.291 112.262C157.781 112.262 158.253 113.178 158.506 113.581H158.602V109.814H159.832V120H158.643V118.817H158.506C158.253 119.241 157.74 120.164 156.284 120.164ZM156.469 119.063C157.856 119.063 158.615 117.888 158.615 116.186C158.615 114.497 157.877 113.362 156.469 113.362C155.02 113.362 154.302 114.6 154.302 116.186C154.302 117.792 155.04 119.063 156.469 119.063ZM165.205 120.164C162.99 120.164 161.623 118.592 161.623 116.24C161.623 113.896 162.977 112.262 165.062 112.262C166.682 112.262 168.391 113.26 168.391 116.083V116.596H162.457V115.557H167.728L167.153 115.939C167.153 114.436 166.442 113.355 165.062 113.355C163.681 113.355 162.867 114.497 162.867 115.741V116.432C162.867 118.134 163.811 119.07 165.212 119.07C166.114 119.07 166.791 118.674 167.078 117.895L168.268 118.223C167.912 119.378 166.771 120.164 165.205 120.164ZM172.752 120.164C171.18 120.164 170.086 119.467 169.812 118.147L170.981 117.867C171.2 118.708 171.822 119.084 172.738 119.084C173.805 119.084 174.488 118.558 174.488 117.929C174.488 117.402 174.119 117.054 173.367 116.876L172.096 116.575C170.708 116.247 170.045 115.563 170.045 114.49C170.045 113.178 171.248 112.262 172.875 112.262C174.447 112.262 175.274 113.027 175.623 114.101L174.509 114.388C174.297 113.841 173.866 113.308 172.882 113.308C171.973 113.308 171.289 113.779 171.289 114.415C171.289 114.982 171.679 115.297 172.574 115.509L173.729 115.782C175.117 116.11 175.767 116.801 175.767 117.847C175.767 119.187 174.543 120.164 172.752 120.164ZM180.661 120.164C178.583 120.164 177.182 118.585 177.182 116.227C177.182 113.834 178.583 112.262 180.661 112.262C182.138 112.262 183.341 113.041 183.758 114.374L182.575 114.709C182.35 113.923 181.666 113.362 180.661 113.362C179.137 113.362 178.433 114.702 178.433 116.227C178.433 117.73 179.137 119.063 180.661 119.063C181.687 119.063 182.384 118.482 182.609 117.655L183.785 117.99C183.375 119.351 182.158 120.164 180.661 120.164ZM185.549 120V112.357H186.738V113.533H186.82C187.101 112.761 187.894 112.248 188.803 112.248C188.98 112.248 189.281 112.262 189.425 112.269V113.506C189.35 113.492 189.015 113.438 188.687 113.438C187.586 113.438 186.779 114.183 186.779 115.215V120H185.549ZM191.045 120V112.357H192.275V120H191.045ZM191.667 111.106C191.202 111.106 190.812 110.744 190.812 110.293C190.812 109.842 191.202 109.479 191.667 109.479C192.139 109.479 192.528 109.842 192.528 110.293C192.528 110.744 192.139 111.106 191.667 111.106ZM194.436 122.857V112.357H195.625V113.581H195.762C196.015 113.178 196.486 112.262 197.977 112.262C199.884 112.262 201.217 113.779 201.217 116.199C201.217 118.633 199.891 120.164 197.983 120.164C196.527 120.164 196.015 119.241 195.762 118.817H195.666V122.857H194.436ZM197.799 119.063C199.228 119.063 199.966 117.792 199.966 116.186C199.966 114.6 199.248 113.362 197.799 113.362C196.391 113.362 195.652 114.497 195.652 116.186C195.652 117.888 196.411 119.063 197.799 119.063ZM206.016 112.357V113.41H202.064V112.357H206.016ZM203.213 110.539H204.443V118.018C204.443 118.701 204.696 119.002 205.346 119.002C205.503 119.002 205.77 118.961 205.975 118.92L206.228 119.959C205.975 120.048 205.626 120.096 205.312 120.096C203.992 120.096 203.213 119.364 203.213 118.113V110.539ZM207.588 120V112.357H208.818V120H207.588ZM208.21 111.106C207.745 111.106 207.355 110.744 207.355 110.293C207.355 109.842 207.745 109.479 208.21 109.479C208.682 109.479 209.071 109.842 209.071 110.293C209.071 110.744 208.682 111.106 208.21 111.106ZM214.089 120.164C212.011 120.164 210.609 118.585 210.609 116.227C210.609 113.834 212.011 112.262 214.089 112.262C216.174 112.262 217.582 113.834 217.582 116.227C217.582 118.585 216.174 120.164 214.089 120.164ZM214.089 119.063C215.634 119.063 216.338 117.73 216.338 116.227C216.338 114.709 215.634 113.362 214.089 113.362C212.564 113.362 211.86 114.702 211.86 116.227C211.86 117.73 212.564 119.063 214.089 119.063ZM220.604 115.42V120H219.373V112.357H220.556L220.562 114.21H220.392C220.856 112.802 221.745 112.262 222.9 112.262C224.445 112.262 225.491 113.212 225.491 115.146V120H224.254V115.249C224.254 114.073 223.598 113.369 222.531 113.369C221.431 113.369 220.604 114.114 220.604 115.42Z" fill="#3A383F"/>
<path d="M18 105.5H36C41.2467 105.5 45.5 109.753 45.5 115C45.5 120.247 41.2467 124.5 36 124.5H18C12.7533 124.5 8.5 120.247 8.5 115C8.5 109.753 12.7533 105.5 18 105.5Z" fill="#CBE2F9"/>
<path d="M18 105.5H36C41.2467 105.5 45.5 109.753 45.5 115C45.5 120.247 41.2467 124.5 36 124.5H18C12.7533 124.5 8.5 120.247 8.5 115C8.5 109.753 12.7533 105.5 18 105.5Z" stroke="#9DC7F1"/>
<path d="M15.2344 119V110.27H16.5469L20.0977 115.854C20.373 116.287 20.8711 117.119 21.3223 118.092H21.1641C21.0586 117.084 21.0527 116.17 21.0527 115.625V110.27H22.166V119H20.8418L17.6777 114.031C17.2383 113.34 16.875 112.695 16.043 111.213H16.248C16.3008 112.514 16.3535 113.551 16.3535 114.02V119H15.2344ZM26.9062 119.141C25.0078 119.141 23.8359 117.793 23.8359 115.777C23.8359 113.768 24.9961 112.367 26.7832 112.367C28.1719 112.367 29.6367 113.223 29.6367 115.643V116.082H24.5508V115.191H29.0684L28.5762 115.52C28.5762 114.23 27.9668 113.305 26.7832 113.305C25.5996 113.305 24.9023 114.283 24.9023 115.35V115.941C24.9023 117.4 25.7109 118.203 26.9121 118.203C27.6855 118.203 28.2656 117.863 28.5117 117.195L29.5312 117.477C29.2266 118.467 28.248 119.141 26.9062 119.141ZM32.3965 119L30.4102 112.449H31.5293L32.3262 115.309C32.543 116.088 32.8008 117.066 33.0469 118.314H32.8652C33.0996 117.119 33.3457 116.141 33.5742 115.309L34.3594 112.449H35.4844L36.2578 115.309C36.4746 116.111 36.7207 117.09 36.9551 118.314H36.7676C37.0137 117.102 37.2656 116.129 37.4941 115.309L38.291 112.449H39.4102L37.4238 119H36.375L35.5254 116.035C35.2676 115.139 35.0332 114.172 34.793 113.152H35.0273C34.793 114.16 34.5469 115.156 34.2949 116.035L33.4453 119H32.3965Z" fill="#064787"/>
<g filter="url(#filter1_d_37649_6749)">
<path fill-rule="evenodd" clip-rule="evenodd" d="M173.896 152.741C174.206 153.02 174.421 153.221 175.084 153.849C175.733 154.464 176.046 154.755 176.333 154.998C176.453 155.099 176.555 155.368 176.596 155.768C176.629 156.097 176.617 156.464 176.577 156.818C176.563 156.94 176.55 157.028 176.542 157.07C176.455 157.542 176.816 157.978 177.296 157.983C177.729 157.987 178.062 157.993 178.944 158.008C179.165 158.012 179.165 158.012 179.387 158.016C181.784 158.057 183.009 158.046 183.888 157.936C184.828 157.818 185.795 156.685 186.632 155.265C187.341 156.522 188.324 157.75 189.316 157.909C189.632 157.959 190.013 157.975 190.456 157.965C190.785 157.957 191.134 157.936 191.486 157.904C191.752 157.881 191.963 157.857 192.09 157.84C192.557 157.78 192.862 157.322 192.737 156.868C192.71 156.771 192.667 156.591 192.623 156.365C192.573 156.103 192.536 155.847 192.52 155.614C192.509 155.466 192.507 155.332 192.514 155.216C192.525 155.015 192.529 154.902 192.535 154.641C192.537 154.544 192.537 154.544 192.54 154.459C192.551 154.181 192.588 153.916 192.709 153.34C192.761 153.09 193.014 152.612 193.411 152.02C193.529 151.844 193.659 151.659 193.797 151.469C194.06 151.109 194.343 150.745 194.626 150.396C194.796 150.187 194.927 150.031 195 149.946C195.612 149.071 196.265 147.638 196.505 146.8C196.735 145.995 196.919 144.512 197.032 143.055C197.094 142.228 197.117 141.561 197.117 140.516C197.117 140.332 197.117 140.332 197.118 140.181C197.118 139.933 197.118 139.839 197.118 139.723C197.115 139.406 197.106 139.092 197.075 138.292C197.01 136.613 196.088 135.529 194.73 135.319C193.575 135.141 192.169 136.099 192.169 136.099C192.169 136.099 191.856 135.02 191.644 134.688C191.301 134.153 190.416 133.471 189.74 133.338C189.045 133.204 188.22 133.218 187.463 133.352C186.8 133.47 186.14 134.061 185.758 134.698C185.485 135.153 185.742 134.674 185.468 134.204C185.09 133.556 184.209 132.976 183.37 132.805C182.659 132.659 181.845 132.714 181.101 132.935C180.144 133.22 179.992 133.947 179.954 133.739C179.826 133.041 179.815 133.087 179.735 132.59C179.441 130.743 179.111 129.466 178.611 128.351C178.64 128.415 178.428 127.934 178.351 127.768C178.217 127.481 178.084 127.221 177.937 126.971C177.486 126.2 176.968 125.623 176.319 125.295C175.191 124.725 173.501 125.003 172.7 125.936C171.905 126.863 171.772 128.414 171.972 130.333C172.049 131.078 172.317 132.438 172.56 133.443C172.646 133.792 172.721 134.111 172.86 134.698C172.883 134.798 172.883 134.798 172.907 134.898C173.014 135.343 173.108 135.709 173.22 136.111C173.208 136.069 173.42 136.821 173.466 136.987C173.481 137.043 173.481 137.043 173.496 137.098C173.58 137.416 173.662 137.758 173.791 138.328C173.862 138.642 173.931 138.977 173.998 139.333C174.182 140.302 174.182 140.1 174.006 139.893C173.884 139.751 173.769 139.621 173.658 139.501C173.452 139.279 173.262 139.096 173.082 138.949C171.771 137.879 170.968 137.406 169.865 137.302C168.056 137.128 166.339 138.404 166.08 140.125C165.922 141.18 165.973 141.666 166.462 142.599C166.731 143.103 167.187 143.711 168.036 144.759C168.088 144.823 168.088 144.823 168.14 144.887C169.183 146.169 169.297 146.312 169.545 146.67C170.215 147.641 171.847 150.429 172.144 150.803L173.896 152.741Z" fill="black"/>
<path fill-rule="evenodd" clip-rule="evenodd" d="M169.344 143.912C169.292 143.849 169.292 143.849 169.241 143.786C168.461 142.824 168.034 142.253 167.833 141.876C167.517 141.274 167.5 141.111 167.613 140.354C167.747 139.462 168.712 138.745 169.718 138.842C170.413 138.907 171.021 139.265 172.102 140.147C172.218 140.242 172.359 140.379 172.521 140.553C172.616 140.655 172.717 140.77 172.827 140.898C172.991 141.089 173.544 141.765 173.462 141.667C173.583 141.811 173.668 141.922 173.767 142.059C173.961 142.336 174.071 142.49 174.219 142.688C174.149 142.595 174.663 143.303 174.771 143.407C175.347 143.955 176.181 143.493 176.128 142.762C176.12 142.64 176.091 142.508 176.031 142.278C175.794 140.588 175.711 140.046 175.521 139.045C175.451 138.674 175.378 138.321 175.304 137.989C175.171 137.4 175.084 137.04 174.994 136.701C174.978 136.641 174.978 136.641 174.962 136.582C174.914 136.407 174.699 135.644 174.713 135.696C174.607 135.315 174.518 134.966 174.415 134.538C174.391 134.44 174.391 134.44 174.368 134.342C174.231 133.757 174.153 133.431 174.066 133.077C173.839 132.137 173.582 130.835 173.514 130.174C173.358 128.68 173.466 127.422 173.877 126.942C174.199 126.568 175.11 126.418 175.619 126.675C175.952 126.843 176.285 127.214 176.599 127.752C176.719 127.955 176.83 128.173 176.945 128.419C177.014 128.568 177.219 129.034 177.196 128.983C177.631 129.952 177.93 131.109 178.205 132.833C178.286 133.344 178.387 133.922 178.516 134.63C178.554 134.84 178.554 134.84 178.593 135.049C179.216 138.422 179.17 138.167 179.179 138.436C179.212 139.417 180.663 139.44 180.727 138.46C180.747 138.149 180.74 137.872 180.704 137.075C180.699 136.962 180.699 136.962 180.694 136.85C180.663 136.116 180.665 135.694 180.708 135.454C180.787 135.016 181.181 134.526 181.544 134.418C182.053 134.266 182.611 134.228 183.058 134.32C183.486 134.408 183.985 134.736 184.128 134.982C184.301 135.279 184.449 135.731 184.563 136.292C184.654 136.745 184.717 137.23 184.762 137.749C184.775 137.91 184.784 138.035 184.798 138.241C184.804 138.327 184.804 138.327 184.81 138.398C184.813 138.434 184.813 138.434 184.821 138.49C184.828 138.53 184.828 138.53 184.857 138.63C184.872 138.914 184.872 138.914 186.016 139.02C186.358 138.608 186.358 138.608 186.348 138.535C186.404 138.291 186.439 138.019 186.487 137.508C186.519 137.176 186.534 137.012 186.553 136.843C186.629 136.141 186.725 135.695 186.843 135.5C186.989 135.256 187.504 134.916 187.735 134.875C188.315 134.773 188.951 134.761 189.443 134.856C189.666 134.9 190.209 135.319 190.337 135.519C190.601 135.935 190.858 137.275 191.003 138.605C190.98 138.692 190.98 138.692 191.335 139.198C192.555 139.059 192.555 139.059 192.52 138.839C192.553 138.761 192.578 138.67 192.614 138.53C192.702 138.2 192.759 138.009 192.846 137.795C192.905 137.646 192.968 137.52 193.032 137.419C193.282 137.027 193.927 136.761 194.494 136.848C195.102 136.942 195.489 137.398 195.527 138.352C195.557 139.136 195.566 139.438 195.568 139.734C195.568 139.843 195.568 139.931 195.568 140.177C195.568 140.33 195.568 140.33 195.567 140.516C195.567 141.524 195.546 142.152 195.487 142.937C195.382 144.284 195.206 145.707 195.014 146.375C194.819 147.057 194.236 148.337 193.775 149.002C193.742 149.034 193.602 149.201 193.422 149.422C193.123 149.79 192.824 150.175 192.544 150.559C192.394 150.765 192.253 150.965 192.123 151.159C191.62 151.909 191.297 152.522 191.192 153.024C191.055 153.677 191.006 154.023 190.991 154.398C190.987 154.504 190.987 154.504 190.985 154.607C190.98 154.851 190.976 154.949 190.966 155.127C190.955 155.314 190.958 155.513 190.973 155.724C190.995 156.025 190.973 156.436 190.973 156.436C190.973 156.436 190.712 156.412 190.42 156.418C190.063 156.427 189.767 156.415 189.562 156.382C189.266 156.334 188.468 155.337 188.059 154.561C187.434 153.372 185.918 153.429 185.296 154.479C184.736 155.432 183.933 156.371 183.695 156.401C182.921 156.498 181.722 156.509 179.413 156.47C179.193 156.466 179.193 156.466 178.972 156.462C178.086 156.446 178.12 156.595 178.138 156.436C178.19 155.982 178.184 156.067 178.138 155.613C178.061 154.851 177.825 154.23 177.334 153.817C177.08 153.602 176.777 153.321 176.167 152.742C175.47 152.082 175.251 151.877 174.983 151.642L173.326 149.804C173.145 149.572 171.549 146.847 170.821 145.792C170.537 145.382 170.431 145.25 169.344 143.912ZM188.995 143.92V151.054C188.995 152.085 190.545 152.085 190.545 151.054V143.92C190.545 142.889 188.995 142.889 188.995 143.92ZM184.797 143.919L184.83 151.082C184.834 152.113 186.384 152.106 186.38 151.075L186.347 143.912C186.342 142.88 184.792 142.887 184.797 143.919ZM182.298 151.042L182.254 143.976C182.248 142.944 180.698 142.954 180.704 143.985L180.748 151.051C180.754 152.082 182.304 152.073 182.298 151.042Z" fill="white"/>
</g>
<defs>
<filter id="filter0_dd_37649_6749" x="0" y="0" width="296" height="108" filterUnits="userSpaceOnUse" color-interpolation-filters="sRGB">
<feFlood flood-opacity="0" result="BackgroundImageFix"/>
<feColorMatrix in="SourceAlpha" type="matrix" values="0 0 0 0 0 0 0 0 0 0 0 0 0 0 0 0 0 0 127 0" result="hardAlpha"/>
<feOffset/>
<feGaussianBlur stdDeviation="1"/>
<feComposite in2="hardAlpha" operator="out"/>
<feColorMatrix type="matrix" values="0 0 0 0 0.121569 0 0 0 0 0.117647 0 0 0 0 0.141176 0 0 0 0.16 0"/>
<feBlend mode="normal" in2="BackgroundImageFix" result="effect1_dropShadow_37649_6749"/>
<feColorMatrix in="SourceAlpha" type="matrix" values="0 0 0 0 0 0 0 0 0 0 0 0 0 0 0 0 0 0 127 0" result="hardAlpha"/>
<feOffset dy="2"/>
<feGaussianBlur stdDeviation="4"/>
<feComposite in2="hardAlpha" operator="out"/>
<feColorMatrix type="matrix" values="0 0 0 0 0.121569 0 0 0 0 0.117647 0 0 0 0 0.141176 0 0 0 0.16 0"/>
<feBlend mode="normal" in2="effect1_dropShadow_37649_6749" result="effect2_dropShadow_37649_6749"/>
<feBlend mode="normal" in="SourceGraphic" in2="effect2_dropShadow_37649_6749" result="shape"/>
</filter>
<filter id="filter1_d_37649_6749" x="164" y="124" width="35.1182" height="37.0381" filterUnits="userSpaceOnUse" color-interpolation-filters="sRGB">
<feFlood flood-opacity="0" result="BackgroundImageFix"/>
<feColorMatrix in="SourceAlpha" type="matrix" values="0 0 0 0 0 0 0 0 0 0 0 0 0 0 0 0 0 0 127 0" result="hardAlpha"/>
<feOffset dy="1"/>
<feGaussianBlur stdDeviation="1"/>
<feColorMatrix type="matrix" values="0 0 0 0 0 0 0 0 0 0 0 0 0 0 0 0 0 0 0.298656 0"/>
<feBlend mode="normal" in2="BackgroundImageFix" result="effect1_dropShadow_37649_6749"/>
<feBlend mode="normal" in="SourceGraphic" in2="effect1_dropShadow_37649_6749" result="shape"/>
</filter>
<clipPath id="clip0_37649_6749">
<rect width="16" height="16" fill="white" transform="translate(264 14)"/>
</clipPath>
<clipPath id="clip1_37649_6749">
<rect width="16" height="16" fill="white" transform="translate(68 107)"/>
</clipPath>
</defs>
</svg>
