<svg width="296" height="162" fill="none" xmlns="http://www.w3.org/2000/svg"><path fill="#fff" d="M8 6h280v152H8z"/><g filter="url(#info-on-hover__a)"><rect x="8" y="6" width="280" height="88" rx="4" fill="#fff" shape-rendering="crispEdges"/><path d="m20.311 27 3.288-9.458h2.24L29.199 27h-1.924l-1.644-4.83c-.336-1.054-.685-2.343-1.117-3.987h.368c-.412 1.657-.749 2.965-1.066 3.986L22.228 27h-1.917Zm1.949-2.31v-1.397h4.989v1.396h-4.99Zm10.556 2.399c-1.466 0-2.438-.971-2.438-2.672v-4.514h1.708v4.247c0 .933.52 1.498 1.371 1.498.857 0 1.479-.584 1.479-1.593v-4.152h1.708V27h-1.62l-.018-1.758h.12c-.387 1.231-1.167 1.847-2.31 1.847Zm8.9-7.186v1.333h-4.07v-1.333h4.07Zm-3.073-1.688h1.708v6.773c0 .501.196.723.691.723.153 0 .451-.038.603-.076l.26 1.308a3.949 3.949 0 0 1-1.13.159c-1.37 0-2.132-.705-2.132-1.968v-6.92ZM46 27.146c-2.088 0-3.409-1.473-3.409-3.656 0-2.203 1.32-3.675 3.409-3.675 2.082 0 3.409 1.472 3.409 3.675 0 2.183-1.327 3.656-3.409 3.656Zm0-1.377c1.123 0 1.676-1.003 1.676-2.286 0-1.294-.553-2.291-1.676-2.291-1.123 0-1.676.997-1.676 2.291 0 1.283.553 2.286 1.676 2.286Zm9.128-3.396v1.402h-4.26v-1.402h4.26Zm4.843 7.433c-1.726 0-2.774-.705-3.123-1.663l1.454-.49c.21.4.647.87 1.663.87 1.01 0 1.663-.457 1.663-1.453v-1.333h-.14c-.254.527-.787 1.161-1.993 1.161-1.625 0-2.913-1.142-2.913-3.459 0-2.349 1.294-3.625 2.926-3.625 1.238 0 1.79.756 2.044 1.27h.089v-1.18h1.675v7.102c0 1.898-1.415 2.8-3.345 2.8Zm.013-4.24c1.054 0 1.65-.8 1.65-2.146 0-1.32-.584-2.21-1.65-2.21-1.092 0-1.657.94-1.657 2.21 0 1.295.578 2.145 1.657 2.145Zm8.207 1.58c-2.145 0-3.46-1.422-3.46-3.65 0-2.183 1.315-3.681 3.353-3.681 1.758 0 3.262 1.11 3.262 3.586v.52h-5.833v-1.136h4.989l-.793.33c0-1.18-.553-1.974-1.613-1.974-1.066 0-1.676.825-1.676 1.866v.787c0 1.327.718 2.025 1.79 2.025.711 0 1.25-.31 1.467-.901l1.561.317c-.343 1.15-1.453 1.911-3.047 1.911Zm6.26-4.291V27h-1.708v-7.097h1.618l.02 1.759h-.121c.387-1.213 1.155-1.848 2.317-1.848 1.46 0 2.43.978 2.43 2.68V27H77.3v-4.24c0-.933-.514-1.498-1.364-1.498-.864 0-1.486.584-1.486 1.593Zm9.445 4.291c-2.146 0-3.46-1.422-3.46-3.65 0-2.183 1.314-3.681 3.352-3.681 1.758 0 3.262 1.11 3.262 3.586v.52h-5.833v-1.136h4.99l-.794.33c0-1.18-.553-1.974-1.613-1.974-1.066 0-1.675.825-1.675 1.866v.787c0 1.327.717 2.025 1.79 2.025.71 0 1.25-.31 1.466-.901l1.561.317c-.342 1.15-1.453 1.911-3.046 1.911Zm4.55-.146v-7.097h1.651v1.2h.076c.26-.832.94-1.295 1.746-1.295.19 0 .444.026.61.05v1.562a3.453 3.453 0 0 0-.788-.089c-.92 0-1.587.629-1.587 1.53V27h-1.707Zm7.053.146c-1.352 0-2.374-.736-2.374-2.14 0-1.592 1.32-2.011 2.698-2.151 1.231-.133 1.745-.159 1.745-.641v-.032c0-.673-.425-1.06-1.212-1.06-.806 0-1.289.406-1.454.876l-1.574-.311c.406-1.244 1.568-1.873 3.028-1.873 1.377 0 2.92.584 2.92 2.438V27h-1.632v-.977h-.063c-.317.622-.996 1.123-2.082 1.123Zm.444-1.25c.99 0 1.638-.654 1.638-1.435v-.825c-.228.178-1.11.285-1.53.343-.742.101-1.282.374-1.282 1.002 0 .603.495.914 1.174.914Zm8.398-5.993v1.333h-4.069v-1.333h4.069Zm-3.072-1.688h1.708v6.773c0 .501.196.723.691.723.153 0 .451-.038.603-.076l.261 1.308a3.953 3.953 0 0 1-1.13.159c-1.371 0-2.133-.705-2.133-1.968v-6.92Zm7.408 8.931c-2.146 0-3.46-1.422-3.46-3.65 0-2.183 1.314-3.681 3.352-3.681 1.758 0 3.263 1.11 3.263 3.586v.52h-5.834v-1.136h4.989l-.793.33c0-1.18-.552-1.974-1.612-1.974-1.067 0-1.676.825-1.676 1.866v.787c0 1.327.717 2.025 1.79 2.025.711 0 1.25-.31 1.466-.901l1.562.317c-.343 1.15-1.454 1.911-3.047 1.911Zm7.858-.146v-9.458h2.647l1.739 4.767c.248.736.68 2.533.876 3.517h-.349c.203-.953.629-2.762.876-3.517l1.714-4.767h2.653V27h-1.745v-4.704c0-.812.057-2.456.07-3.675h.12c-.343 1.346-.819 2.945-1.073 3.675L122.356 27h-1.479l-1.739-4.704c-.254-.717-.718-2.291-1.098-3.675h.146c.012 1.149.076 2.831.076 3.675V27h-1.727Zm12.023 0v-9.458h3.573c2.165 0 3.339 1.225 3.339 3.04 0 1.829-1.187 2.971-3.37 2.971h-2.52v-1.44h2.278c1.257 0 1.822-.54 1.822-1.53 0-.997-.565-1.581-1.834-1.581h-1.543V27h-1.745Zm5.306 0-2.298-4.291h1.911L135.819 27h-1.955Zm8.969.127c-1.669 0-2.919-1.32-2.919-3.656 0-2.38 1.288-3.657 2.913-3.657 1.251 0 1.777.756 2.031 1.27h.064v-3.542h1.707V27h-1.669v-1.123h-.102c-.26.526-.818 1.25-2.025 1.25Zm.477-1.39c1.053 0 1.65-.914 1.65-2.279 0-1.358-.584-2.247-1.65-2.247-1.092 0-1.651.946-1.651 2.247 0 1.314.571 2.279 1.651 2.279Zm8.201 1.409c-2.146 0-3.46-1.422-3.46-3.65 0-2.183 1.314-3.681 3.352-3.681 1.758 0 3.263 1.11 3.263 3.586v.52h-5.834v-1.136h4.989l-.793.33c0-1.18-.552-1.974-1.612-1.974-1.067 0-1.676.825-1.676 1.866v.787c0 1.327.717 2.025 1.79 2.025.711 0 1.25-.31 1.466-.901l1.562.317c-.343 1.15-1.454 1.911-3.047 1.911Zm7.268 0c-1.651 0-2.787-.73-3.034-2.025l1.593-.292c.19.692.679 1.022 1.479 1.022.793 0 1.288-.355 1.288-.819 0-.406-.304-.654-.945-.793l-1.213-.26c-1.352-.286-2.006-.953-2.006-1.994 0-1.326 1.168-2.17 2.889-2.17 1.625 0 2.57.736 2.856 1.847l-1.523.292c-.159-.495-.565-.876-1.308-.876-.686 0-1.206.33-1.206.8 0 .4.273.66.984.812l1.225.254c1.352.286 1.999.92 1.999 1.917 0 1.358-1.275 2.285-3.078 2.285Zm7.554 0c-2.083 0-3.403-1.473-3.403-3.656 0-2.203 1.32-3.675 3.403-3.675 1.605 0 2.786.856 3.084 2.26l-1.593.323c-.178-.736-.685-1.206-1.472-1.206-1.124 0-1.689.977-1.689 2.291 0 1.302.565 2.286 1.689 2.286.793 0 1.32-.49 1.491-1.257l1.587.323c-.292 1.435-1.472 2.311-3.097 2.311Zm4.494-.146v-7.097h1.65v1.2h.076c.26-.832.94-1.295 1.746-1.295.19 0 .444.026.609.05v1.562a3.45 3.45 0 0 0-.787-.089c-.92 0-1.587.629-1.587 1.53V27h-1.707Zm5.319 0v-7.097h1.708V27h-1.708Zm.857-8.08c-.54 0-.978-.413-.978-.921s.438-.92.978-.92c.539 0 .977.412.977.92s-.438.92-.977.92Zm2.571 10.733v-9.75h1.676v1.181h.101c.248-.514.774-1.27 2.031-1.27 1.619 0 2.908 1.276 2.908 3.657 0 2.336-1.245 3.656-2.914 3.656-1.212 0-1.771-.724-2.025-1.25h-.07v3.776h-1.707Zm3.32-3.916c1.079 0 1.65-.965 1.65-2.279 0-1.301-.559-2.247-1.65-2.247-1.061 0-1.644.889-1.644 2.247 0 1.365.59 2.279 1.644 2.279Zm8.156-5.834v1.333h-4.069v-1.333h4.069Zm-3.072-1.688h1.708v6.773c0 .501.196.723.691.723.153 0 .451-.038.603-.076l.261 1.308a3.953 3.953 0 0 1-1.13.159c-1.371 0-2.133-.705-2.133-1.968v-6.92ZM192.345 27v-7.097h1.708V27h-1.708Zm.857-8.08c-.539 0-.977-.413-.977-.921s.438-.92.977-.92c.54 0 .978.412.978.92s-.438.92-.978.92Zm5.675 8.226c-2.088 0-3.409-1.473-3.409-3.656 0-2.203 1.321-3.675 3.409-3.675 2.082 0 3.409 1.472 3.409 3.675 0 2.183-1.327 3.656-3.409 3.656Zm0-1.377c1.123 0 1.676-1.003 1.676-2.286 0-1.294-.553-2.291-1.676-2.291-1.124 0-1.676.997-1.676 2.291 0 1.283.552 2.286 1.676 2.286Zm6.538-2.914V27h-1.707v-7.097h1.618l.019 1.759h-.12c.387-1.213 1.155-1.848 2.317-1.848 1.459 0 2.431.978 2.431 2.68V27h-1.708v-4.24c0-.933-.514-1.498-1.365-1.498-.863 0-1.485.584-1.485 1.593ZM216.454 27l-2.108-7.097h1.79l.679 2.749c.216.914.483 2 .711 3.339h-.209c.228-1.308.501-2.393.736-3.34l.705-2.748h1.612l.686 2.749c.222.933.501 2.012.73 3.339h-.21c.222-1.32.47-2.4.692-3.34l.686-2.748h1.809L222.643 27h-1.727l-.819-2.856c-.247-.857-.476-2-.704-2.952h.317c-.229.946-.463 2.107-.711 2.952L218.18 27h-1.726Zm9.432 0v-7.097h1.708V27h-1.708Zm.857-8.08c-.539 0-.977-.413-.977-.921s.438-.92.977-.92c.54 0 .978.412.978.92s-.438.92-.978.92Zm5.91.983v1.333h-4.069v-1.333h4.069Zm-3.072-1.688h1.707v6.773c0 .501.197.723.692.723.152 0 .451-.038.603-.076l.26 1.308a3.944 3.944 0 0 1-1.13.159c-1.371 0-2.132-.705-2.132-1.968v-6.92Zm6.074 4.64V27h-1.707v-9.458h1.682v4.12h-.165c.387-1.213 1.155-1.848 2.317-1.848 1.46 0 2.431.978 2.431 2.68V27h-1.708v-4.24c0-.933-.514-1.498-1.364-1.498-.864 0-1.486.584-1.486 1.593ZM25.034 43.127c-2.622 0-4.393-1.854-4.393-4.843 0-3.047 1.866-4.869 4.342-4.869 2.088 0 3.707 1.295 3.993 3.155h-1.784c-.298-.984-1.06-1.587-2.184-1.587-1.517 0-2.609 1.174-2.609 3.288s1.067 3.294 2.647 3.294c1.422 0 2.317-.863 2.317-2.228l.394.064h-2.552v-1.365h3.86v1.143c0 2.45-1.689 3.948-4.031 3.948ZM30.607 43v-7.097h1.708V43h-1.708Zm.857-8.08c-.54 0-.978-.413-.978-.921s.438-.92.978-.92.977.412.977.92-.438.92-.977.92Zm5.91.983v1.333h-4.07v-1.333h4.07ZM34.3 34.215h1.708v6.773c0 .501.197.723.692.723.152 0 .45-.038.603-.076l.26 1.308a3.948 3.948 0 0 1-1.13.159c-1.371 0-2.133-.705-2.133-1.968v-6.92ZM38.738 43v-9.458h1.746v7.992h4.158V43h-5.904Zm9.268.146c-1.352 0-2.374-.736-2.374-2.14 0-1.592 1.32-2.011 2.698-2.151 1.231-.133 1.745-.159 1.745-.641v-.032c0-.673-.425-1.06-1.212-1.06-.806 0-1.289.406-1.454.876l-1.574-.311c.406-1.244 1.568-1.872 3.028-1.872 1.377 0 2.92.583 2.92 2.437V43H50.15v-.977h-.063c-.318.621-.997 1.123-2.082 1.123Zm.444-1.25c.99 0 1.638-.654 1.638-1.435v-.825c-.229.177-1.11.285-1.53.342-.743.102-1.282.375-1.282 1.003 0 .603.495.914 1.174.914Zm8.861 1.231c-1.212 0-1.77-.724-2.024-1.25h-.102V43H53.51v-9.458h1.708v3.542h.07c.247-.514.774-1.27 2.03-1.27 1.62 0 2.908 1.276 2.908 3.657 0 2.336-1.244 3.656-2.913 3.656Zm-.482-1.39c1.08 0 1.65-.965 1.65-2.279 0-1.301-.558-2.247-1.65-2.247-1.06 0-1.644.889-1.644 2.247 0 1.365.59 2.279 1.644 2.279ZM68.185 43h-2.412v-1.51h2.323c1.949 0 2.94-1.055 2.94-3.225 0-2.159-.991-3.206-2.902-3.206h-2.406v-1.517h2.514c2.819 0 4.526 1.777 4.526 4.723 0 2.958-1.707 4.735-4.583 4.735ZM66.7 33.542V43h-1.746v-9.458H66.7Zm10.016 9.547c-1.466 0-2.437-.971-2.437-2.672v-4.514h1.707v4.247c0 .933.52 1.498 1.371 1.498.857 0 1.48-.584 1.48-1.593v-4.152h1.707V43h-1.619l-.019-1.758h.12c-.386 1.231-1.167 1.847-2.31 1.847Zm8.665.057c-2.088 0-3.409-1.473-3.409-3.656 0-2.203 1.32-3.675 3.409-3.675 2.082 0 3.409 1.472 3.409 3.675 0 2.183-1.327 3.656-3.41 3.656Zm0-1.377c1.123 0 1.676-1.003 1.676-2.286 0-1.294-.553-2.291-1.676-2.291-1.124 0-1.676.996-1.676 2.291 0 1.283.552 2.286 1.676 2.286Z" fill="#28272D"/><g clip-path="url(#info-on-hover__b)" style="mix-blend-mode:multiply"><path fill-rule="evenodd" clip-rule="evenodd" d="M268.28 17.22a.75.75 0 1 0-1.06 1.06l3.719 3.72-3.719 3.72a.75.75 0 1 0 1.06 1.06l3.72-3.72 3.72 3.72a.75.75 0 1 0 1.06-1.06L273.061 22l3.719-3.72a.75.75 0 1 0-1.06-1.06L272 20.94l-3.72-3.72Z" fill="#737278"/></g><path d="M24.47 66.14c-2.068 0-3.415-1.312-3.415-3.11v-5.76h1.113v5.671c0 1.254.873 2.168 2.303 2.168 1.424 0 2.29-.914 2.29-2.168V57.27h1.114v5.76c0 1.8-1.348 3.112-3.404 3.112Zm7.612 0c-1.348 0-2.285-.597-2.52-1.728l1.002-.24c.188.72.721 1.043 1.506 1.043.914 0 1.5-.451 1.5-.99 0-.452-.316-.75-.96-.903l-1.09-.258c-1.19-.28-1.758-.867-1.758-1.787 0-1.125 1.031-1.91 2.425-1.91 1.348 0 2.057.656 2.356 1.576l-.955.247c-.182-.47-.55-.926-1.395-.926-.779 0-1.365.404-1.365.949 0 .486.334.756 1.102.937l.99.235c1.19.281 1.746.873 1.746 1.77 0 1.148-1.049 1.986-2.584 1.986Zm6.867 0c-1.898 0-3.07-1.347-3.07-3.363 0-2.01 1.16-3.41 2.947-3.41 1.389 0 2.854.856 2.854 3.276v.439h-5.086v-.89h4.517l-.492.328c0-1.29-.61-2.215-1.793-2.215-1.183 0-1.88.978-1.88 2.045v.591c0 1.46.808 2.262 2.01 2.262.772 0 1.353-.34 1.599-1.008l1.02.282c-.306.99-1.284 1.664-2.626 1.664Zm6.996-.14 3.17-8.73h1.29l3.21 8.73h-1.172l-1.851-5.18c-.229-.638-.516-1.547-.944-3.029h.211a53.311 53.311 0 0 1-.931 3.03L47.128 66h-1.183Zm1.594-2.438v-.972h4.483v.972h-4.483Zm8.555-6.292V66H54.98v-8.73h1.114Zm7.933 2.18v.902h-3.386v-.903h3.386Zm-2.402-1.56h1.055v6.41c0 .587.217.844.773.844.135 0 .363-.035.54-.07l.216.89a2.538 2.538 0 0 1-.785.118c-1.131 0-1.799-.627-1.799-1.7v-6.491Zm6.299 8.25c-1.781 0-2.983-1.353-2.983-3.374 0-2.051 1.202-3.399 2.983-3.399 1.787 0 2.994 1.348 2.994 3.399 0 2.021-1.207 3.375-2.994 3.375Zm0-.943c1.324 0 1.928-1.142 1.928-2.431 0-1.301-.604-2.456-1.928-2.456-1.307 0-1.91 1.149-1.91 2.456 0 1.289.603 2.431 1.91 2.431Zm9.738.955c-1.242 0-2.232-.726-2.232-2.015 0-1.5 1.336-1.776 2.548-1.928 1.166-.147 1.682-.111 1.682-.598v-.035c0-.814-.463-1.283-1.37-1.283-.944 0-1.454.504-1.66.96l-1.013-.333c.504-1.19 1.63-1.553 2.643-1.553.879 0 2.455.27 2.455 2.315V66h-1.037v-.89h-.07c-.223.462-.839 1.042-1.946 1.042Zm.182-.931c1.166 0 1.816-.785 1.816-1.588v-.908c-.176.205-1.324.322-1.728.375-.768.1-1.442.345-1.442 1.09 0 .68.569 1.03 1.354 1.03Zm6.943.861c-1.324 0-2.22-.814-2.22-2.473v-4.16h1.054v4.073c0 1.007.569 1.61 1.483 1.61.937 0 1.646-.638 1.646-1.757v-3.926h1.06V66h-1.019v-1.588h.14c-.404 1.23-1.183 1.67-2.144 1.67Zm7.46-6.633v.903h-3.388v-.903h3.387Zm-2.403-1.558h1.054v6.41c0 .586.217.843.774.843.135 0 .363-.035.539-.07l.217.89a2.538 2.538 0 0 1-.785.118c-1.131 0-1.8-.627-1.8-1.7v-6.491Zm6.299 8.25c-1.782 0-2.983-1.354-2.983-3.375 0-2.051 1.201-3.399 2.983-3.399 1.787 0 2.994 1.348 2.994 3.399 0 2.021-1.207 3.375-2.994 3.375Zm0-.944c1.324 0 1.927-1.142 1.927-2.431 0-1.301-.603-2.456-1.927-2.456-1.307 0-1.91 1.149-1.91 2.456 0 1.289.603 2.431 1.91 2.431Zm4.529.803v-6.55h1.025l.006 1.464h-.082c.264-1.06 1.067-1.582 1.916-1.582.949 0 1.553.645 1.729 1.594h-.141c.234-.979 1.102-1.594 2.145-1.594 1.136 0 2.062.733 2.062 2.25V66h-1.061v-4.389c0-.943-.615-1.318-1.318-1.318-.885 0-1.424.604-1.424 1.43V66h-1.054v-4.494c0-.727-.545-1.213-1.284-1.213-.767 0-1.464.539-1.464 1.582V66h-1.055Zm12.346.152c-1.243 0-2.233-.726-2.233-2.015 0-1.5 1.336-1.776 2.549-1.928 1.166-.147 1.682-.111 1.682-.598v-.035c0-.814-.463-1.283-1.371-1.283-.944 0-1.454.504-1.659.96l-1.013-.333c.504-1.19 1.629-1.553 2.642-1.553.879 0 2.455.27 2.455 2.315V66h-1.037v-.89h-.07c-.223.462-.838 1.042-1.945 1.042Zm.181-.931c1.166 0 1.817-.785 1.817-1.588v-.908c-.176.205-1.325.322-1.729.375-.767.1-1.441.345-1.441 1.09 0 .68.568 1.03 1.353 1.03Zm7.301-5.772v.903h-3.387v-.903h3.387Zm-2.402-1.558h1.054v6.41c0 .586.217.843.774.843.135 0 .363-.035.539-.07l.217.89a2.543 2.543 0 0 1-.786.118c-1.13 0-1.798-.627-1.798-1.7v-6.491Zm3.75 8.109v-6.55h1.054V66h-1.054Zm.533-7.623c-.399 0-.733-.31-.733-.697 0-.387.334-.698.733-.698.404 0 .738.311.738.698 0 .386-.334.697-.738.697Zm5.039 7.764c-1.781 0-2.982-1.354-2.982-3.375 0-2.051 1.201-3.399 2.982-3.399 1.266 0 2.297.668 2.654 1.81l-1.013.288c-.194-.674-.78-1.155-1.641-1.155-1.307 0-1.91 1.149-1.91 2.456 0 1.289.603 2.431 1.91 2.431.879 0 1.476-.498 1.67-1.207l1.008.287c-.352 1.166-1.395 1.864-2.678 1.864Zm6.141.011c-1.243 0-2.233-.726-2.233-2.015 0-1.5 1.336-1.776 2.549-1.928 1.166-.147 1.682-.111 1.682-.598v-.035c0-.814-.463-1.283-1.371-1.283-.944 0-1.454.504-1.659.96l-1.013-.333c.504-1.19 1.629-1.553 2.642-1.553.879 0 2.455.27 2.455 2.315V66h-1.037v-.89h-.07c-.223.462-.838 1.042-1.945 1.042Zm.181-.931c1.166 0 1.817-.785 1.817-1.588v-.908c-.176.205-1.325.322-1.729.375-.768.1-1.441.345-1.441 1.09 0 .68.568 1.03 1.353 1.03Zm6.194.826c-.985 0-1.471-.55-1.471-1.5V57.27h1.055v7.013c0 .604.105.82.544.82.229 0 .323-.017.422-.046l.211.89c-.187.053-.48.1-.761.1Zm3.304 0c-.984 0-1.47-.55-1.47-1.5V57.27h1.054v7.013c0 .604.106.82.545.82.229 0 .322-.017.422-.046l.211.89c-.188.053-.481.1-.762.1Zm1.494 2.326.27-.914.111.03c.645.17 1.108.029 1.43-.909l.187-.545-2.502-6.586h1.155l1.394 3.885c.293.814.469 1.617.698 2.367h-.387c.222-.75.404-1.558.697-2.367l1.406-3.885h1.149l-2.877 7.53c-.399 1.043-1.031 1.517-1.957 1.517-.375 0-.662-.07-.774-.123Zm12.686-2.232c-1.635 0-2.772-1.313-2.772-3.399 0-2.074 1.143-3.375 2.778-3.375 1.277 0 1.681.785 1.898 1.131h.082V57.27h1.055V66h-1.02v-1.014h-.117c-.217.364-.656 1.155-1.904 1.155Zm.158-.944c1.19 0 1.84-1.008 1.84-2.467 0-1.447-.633-2.42-1.84-2.42-1.242 0-1.857 1.061-1.857 2.42 0 1.377.633 2.467 1.857 2.467Zm4.734.803v-6.55h1.02v1.007h.07c.241-.662.92-1.102 1.7-1.102.152 0 .41.012.533.018v1.06a4.003 4.003 0 0 0-.633-.058c-.943 0-1.635.639-1.635 1.523V66h-1.055Zm6.358.152c-1.242 0-2.232-.726-2.232-2.015 0-1.5 1.335-1.776 2.548-1.928 1.166-.147 1.682-.111 1.682-.598v-.035c0-.814-.463-1.283-1.371-1.283-.943 0-1.453.504-1.658.96l-1.014-.333c.504-1.19 1.629-1.553 2.643-1.553.878 0 2.455.27 2.455 2.315V66h-1.037v-.89h-.071c-.222.462-.838 1.042-1.945 1.042Zm.182-.931c1.166 0 1.816-.785 1.816-1.588v-.908c-.176.205-1.324.322-1.729.375-.767.1-1.441.345-1.441 1.09 0 .68.568 1.03 1.354 1.03Zm7.769-5.772v.903h-3.855v-.903h3.855ZM174.055 66v-7.424c0-1.136.908-1.717 1.863-1.717.498 0 .826.106.984.176l-.293.903c-.111-.036-.275-.1-.568-.1-.65 0-.932.34-.932.972V66h-1.054Zm6.129-6.55v.902h-3.387v-.903h3.387Zm-2.403-1.56h1.055v6.41c0 .587.217.844.773.844.135 0 .364-.035.539-.07l.217.89a2.536 2.536 0 0 1-.785.118c-1.131 0-1.799-.627-1.799-1.7v-6.491Zm9.703 1.56v.902h-3.386v-.903h3.386Zm-2.402-1.56h1.055v6.41c0 .587.217.844.773.844.135 0 .363-.035.539-.07l.217.89a2.54 2.54 0 0 1-.785.118c-1.131 0-1.799-.627-1.799-1.7v-6.491Zm4.805 4.184V66h-1.055v-8.73h1.055v3.767h-.182c.399-1.207 1.16-1.67 2.15-1.67 1.325 0 2.221.815 2.221 2.473V66h-1.06v-4.072c0-1.008-.563-1.612-1.477-1.612-.943 0-1.652.64-1.652 1.758Zm8.801 4.067c-1.899 0-3.071-1.348-3.071-3.364 0-2.01 1.16-3.41 2.947-3.41 1.389 0 2.854.856 2.854 3.276v.439h-5.086v-.89h4.518l-.493.328c0-1.29-.609-2.215-1.793-2.215-1.183 0-1.88.978-1.88 2.045v.591c0 1.46.808 2.262 2.009 2.262.774 0 1.354-.34 1.6-1.008l1.019.282c-.304.99-1.283 1.664-2.624 1.664Zm7.746-.141v-8.73h1.582l2.15 5.507c.199.51.557 1.653.762 2.414h-.246c.211-.714.568-1.88.773-2.414l2.121-5.508h1.588V66h-1.096v-4.986c0-.721.024-1.899.047-2.877h.094a49.624 49.624 0 0 1-.979 2.877L211.279 66h-.967l-1.98-4.986c-.217-.545-.609-1.74-.996-2.877h.105c.024.873.053 2.11.053 2.877V66h-1.06Zm10.839 0v-8.73h2.989c2.039 0 2.976 1.136 2.976 2.695 0 1.558-.937 2.648-2.97 2.648h-2.373v-.99h2.32c1.377 0 1.916-.633 1.916-1.658 0-1.037-.539-1.717-1.928-1.717h-1.816V66h-1.114Zm5.016 0-2.109-3.932h1.254L223.578 66h-1.289ZM23.381 82.14c-1.635 0-2.772-1.312-2.772-3.398 0-2.074 1.143-3.375 2.778-3.375 1.277 0 1.681.785 1.898 1.131h.082v-3.229h1.055V82h-1.02v-1.014h-.117c-.217.364-.656 1.155-1.904 1.155Zm.158-.943c1.19 0 1.84-1.008 1.84-2.466 0-1.448-.633-2.42-1.84-2.42-1.242 0-1.857 1.06-1.857 2.42 0 1.376.633 2.466 1.857 2.466Zm7.488.944c-1.898 0-3.07-1.348-3.07-3.364 0-2.01 1.16-3.41 2.947-3.41 1.389 0 2.854.856 2.854 3.276v.439h-5.086v-.89h4.518l-.493.328c0-1.29-.61-2.215-1.793-2.215-1.183 0-1.88.978-1.88 2.045v.591c0 1.46.808 2.262 2.01 2.262.773 0 1.353-.34 1.599-1.008l1.02.282c-.305.99-1.284 1.664-2.626 1.664Zm6.47 0c-1.349 0-2.286-.598-2.52-1.729l1.002-.24c.187.72.72 1.043 1.505 1.043.914 0 1.5-.451 1.5-.99 0-.452-.316-.75-.96-.903l-1.09-.258c-1.19-.28-1.758-.867-1.758-1.787 0-1.125 1.031-1.91 2.426-1.91 1.347 0 2.056.656 2.355 1.576l-.955.246c-.182-.468-.55-.925-1.395-.925-.779 0-1.365.404-1.365.949 0 .486.334.756 1.102.937l.99.235c1.19.281 1.746.873 1.746 1.77 0 1.148-1.049 1.986-2.584 1.986Zm6.778 0c-1.78 0-2.982-1.354-2.982-3.375 0-2.051 1.201-3.399 2.982-3.399 1.266 0 2.297.668 2.655 1.81l-1.014.288c-.193-.674-.78-1.154-1.64-1.154-1.307 0-1.91 1.148-1.91 2.455 0 1.289.603 2.431 1.91 2.431.878 0 1.476-.498 1.67-1.207l1.007.287c-.351 1.166-1.394 1.864-2.678 1.864Zm4.19-.141v-6.55h1.02v1.007h.07c.24-.662.92-1.101 1.699-1.101.152 0 .41.011.533.017v1.06a3.988 3.988 0 0 0-.633-.058c-.943 0-1.635.639-1.635 1.523V82h-1.054Zm4.71 0v-6.55h1.056V82h-1.055Zm.534-7.623c-.399 0-.732-.31-.732-.697 0-.387.334-.698.732-.698.404 0 .738.311.738.698 0 .386-.334.697-.738.697Zm2.373 10.072v-9h1.02v1.049h.117c.216-.346.62-1.13 1.898-1.13 1.635 0 2.778 1.3 2.778 3.374 0 2.086-1.137 3.399-2.772 3.399-1.248 0-1.688-.791-1.904-1.155h-.082v3.463h-1.055Zm2.883-3.252c1.224 0 1.857-1.09 1.857-2.466 0-1.36-.615-2.42-1.857-2.42-1.207 0-1.84.972-1.84 2.42 0 1.459.65 2.466 1.84 2.466Zm7.043-5.748v.903H62.62v-.903h3.387Zm-2.402-1.558h1.054v6.41c0 .586.217.843.774.843.134 0 .363-.035.539-.07l.216.89a2.539 2.539 0 0 1-.785.118c-1.13 0-1.798-.627-1.798-1.7v-6.491ZM67.356 82v-6.55h1.054V82h-1.054Zm.533-7.623c-.399 0-.733-.31-.733-.697 0-.387.334-.698.733-.698.404 0 .738.311.738.698 0 .386-.334.697-.738.697Zm5.039 7.764c-1.781 0-2.983-1.354-2.983-3.375 0-2.051 1.202-3.399 2.983-3.399 1.787 0 2.994 1.348 2.994 3.399 0 2.021-1.207 3.375-2.994 3.375Zm0-.944c1.324 0 1.928-1.142 1.928-2.431 0-1.301-.604-2.456-1.928-2.456-1.307 0-1.91 1.149-1.91 2.456 0 1.289.603 2.431 1.91 2.431Zm5.584-3.123V82h-1.055v-6.55h1.014l.006 1.587h-.147c.398-1.207 1.16-1.67 2.15-1.67 1.325 0 2.221.815 2.221 2.473V82h-1.06v-4.072c0-1.008-.563-1.612-1.477-1.612-.943 0-1.652.64-1.652 1.758Zm12.463 4.067c-1.248 0-1.688-.791-1.905-1.155h-.117V82h-1.02v-8.73h1.055v3.228h.082c.217-.346.621-1.13 1.899-1.13 1.635 0 2.777 1.3 2.777 3.374 0 2.086-1.137 3.399-2.771 3.399Zm-.159-.944c1.225 0 1.858-1.09 1.858-2.466 0-1.36-.615-2.42-1.858-2.42-1.207 0-1.84.972-1.84 2.42 0 1.459.651 2.466 1.84 2.466Zm6.416.955c-1.242 0-2.232-.726-2.232-2.015 0-1.5 1.336-1.776 2.549-1.928 1.166-.147 1.681-.111 1.681-.598v-.035c0-.814-.462-1.283-1.37-1.283-.944 0-1.454.504-1.659.96l-1.013-.333c.503-1.19 1.628-1.553 2.642-1.553.879 0 2.455.27 2.455 2.315V82h-1.037v-.89h-.07c-.223.462-.838 1.042-1.946 1.042Zm.182-.931c1.166 0 1.817-.785 1.817-1.588v-.908c-.176.205-1.325.322-1.729.375-.768.1-1.441.345-1.441 1.09 0 .68.568 1.03 1.353 1.03Zm6.949.92c-1.347 0-2.285-.598-2.519-1.729l1.002-.24c.187.72.72 1.043 1.506 1.043.914 0 1.5-.451 1.5-.99 0-.452-.317-.75-.961-.903l-1.09-.258c-1.19-.28-1.758-.867-1.758-1.787 0-1.125 1.031-1.91 2.426-1.91 1.347 0 2.056.656 2.355 1.576l-.955.246c-.181-.468-.551-.925-1.394-.925-.78 0-1.366.404-1.366.949 0 .486.334.756 1.102.937l.99.235c1.19.281 1.746.873 1.746 1.77 0 1.148-1.049 1.986-2.584 1.986Zm6.867 0c-1.898 0-3.07-1.348-3.07-3.364 0-2.01 1.16-3.41 2.947-3.41 1.389 0 2.854.856 2.854 3.276v.439h-5.086v-.89h4.518l-.493.328c0-1.29-.609-2.215-1.793-2.215-1.183 0-1.88.978-1.88 2.045v.591c0 1.46.808 2.262 2.009 2.262.774 0 1.354-.34 1.6-1.008l1.019.282c-.304.99-1.283 1.664-2.625 1.664Zm6.698 0c-1.635 0-2.772-1.313-2.772-3.399 0-2.074 1.143-3.375 2.778-3.375 1.277 0 1.681.785 1.898 1.131h.082v-3.229h1.055V82h-1.02v-1.014h-.117c-.217.364-.656 1.155-1.904 1.155Zm.158-.944c1.189 0 1.84-1.008 1.84-2.466 0-1.448-.633-2.42-1.84-2.42-1.242 0-1.857 1.06-1.857 2.42 0 1.376.632 2.466 1.857 2.466Zm10.775.944c-1.781 0-2.982-1.354-2.982-3.375 0-2.051 1.201-3.399 2.982-3.399 1.787 0 2.994 1.348 2.994 3.399 0 2.021-1.207 3.375-2.994 3.375Zm0-.944c1.325 0 1.928-1.142 1.928-2.431 0-1.301-.603-2.456-1.928-2.456-1.306 0-1.91 1.149-1.91 2.456 0 1.289.604 2.431 1.91 2.431Zm5.584-3.123V82h-1.054v-6.55h1.013l.006 1.587h-.146c.398-1.207 1.16-1.67 2.15-1.67 1.324 0 2.221.815 2.221 2.473V82h-1.061v-4.072c0-1.008-.562-1.612-1.476-1.612-.944 0-1.653.64-1.653 1.758Zm12.088 4.067c-1.781 0-2.982-1.354-2.982-3.375 0-2.051 1.201-3.399 2.982-3.399 1.266 0 2.297.668 2.655 1.81l-1.014.288c-.194-.674-.779-1.154-1.641-1.154-1.306 0-1.91 1.148-1.91 2.455 0 1.289.604 2.431 1.91 2.431.879 0 1.477-.498 1.67-1.207l1.008.287c-.352 1.166-1.395 1.864-2.678 1.864Zm6.856 0c-1.782 0-2.983-1.354-2.983-3.375 0-2.051 1.201-3.399 2.983-3.399 1.787 0 2.994 1.348 2.994 3.399 0 2.021-1.207 3.375-2.994 3.375Zm0-.944c1.324 0 1.927-1.142 1.927-2.431 0-1.301-.603-2.456-1.927-2.456-1.307 0-1.91 1.149-1.91 2.456 0 1.289.603 2.431 1.91 2.431Zm6.984.944c-1.635 0-2.771-1.313-2.771-3.399 0-2.074 1.142-3.375 2.777-3.375 1.277 0 1.682.785 1.898 1.131h.082v-3.229h1.055V82h-1.019v-1.014h-.118c-.216.364-.656 1.155-1.904 1.155Zm.158-.944c1.19 0 1.84-1.008 1.84-2.466 0-1.448-.633-2.42-1.84-2.42-1.242 0-1.857 1.06-1.857 2.42 0 1.376.633 2.466 1.857 2.466Zm7.489.944c-1.899 0-3.071-1.348-3.071-3.364 0-2.01 1.16-3.41 2.947-3.41 1.389 0 2.854.856 2.854 3.276v.439h-5.086v-.89h4.518l-.493.328c0-1.29-.609-2.215-1.793-2.215-1.183 0-1.88.978-1.88 2.045v.591c0 1.46.808 2.262 2.009 2.262.774 0 1.354-.34 1.6-1.008l1.02.282c-.305.99-1.284 1.664-2.625 1.664Zm10.283 0c-1.782 0-2.983-1.354-2.983-3.375 0-2.051 1.201-3.399 2.983-3.399 1.265 0 2.297.668 2.654 1.81l-1.014.288c-.193-.674-.779-1.154-1.64-1.154-1.307 0-1.91 1.148-1.91 2.455 0 1.289.603 2.431 1.91 2.431.879 0 1.476-.498 1.67-1.207l1.007.287c-.351 1.166-1.394 1.864-2.677 1.864Zm5.244-4.067V82h-1.055v-8.73h1.055v3.767h-.182c.399-1.207 1.16-1.67 2.151-1.67 1.324 0 2.22.815 2.22 2.473V82h-1.06v-4.072c0-1.008-.563-1.612-1.477-1.612-.943 0-1.652.64-1.652 1.758Zm7.881 4.078c-1.242 0-2.233-.726-2.233-2.015 0-1.5 1.336-1.776 2.549-1.928 1.166-.147 1.682-.111 1.682-.598v-.035c0-.814-.463-1.283-1.371-1.283-.944 0-1.453.504-1.659.96l-1.013-.333c.504-1.19 1.629-1.553 2.642-1.553.879 0 2.455.27 2.455 2.315V82h-1.037v-.89h-.07c-.223.462-.838 1.042-1.945 1.042Zm.181-.931c1.166 0 1.817-.785 1.817-1.588v-.908c-.176.205-1.324.322-1.729.375-.767.1-1.441.345-1.441 1.09 0 .68.568 1.03 1.353 1.03Zm5.778-3.147V82h-1.055v-6.55h1.014l.006 1.587h-.147c.399-1.207 1.16-1.67 2.15-1.67 1.325 0 2.221.815 2.221 2.473V82h-1.06v-4.072c0-1.008-.563-1.612-1.477-1.612-.943 0-1.652.64-1.652 1.758Zm8.701 6.516c-1.453 0-2.291-.615-2.695-1.336l.855-.55c.275.38.686.966 1.84.966 1.043 0 1.799-.48 1.799-1.559V80.8h-.1c-.223.375-.639 1.095-1.904 1.095-1.571 0-2.766-1.142-2.766-3.199 0-2.027 1.154-3.328 2.789-3.328 1.266 0 1.688.78 1.91 1.131h.1V75.45h1.025v6.72c0 1.694-1.259 2.42-2.853 2.42Zm-.029-3.633c1.189 0 1.839-.855 1.839-2.285 0-1.389-.632-2.361-1.839-2.361-1.248 0-1.87 1.054-1.87 2.36 0 1.348.639 2.286 1.87 2.286Zm7.488 1.184c-1.899 0-3.07-1.348-3.07-3.364 0-2.01 1.16-3.41 2.947-3.41 1.388 0 2.853.856 2.853 3.276v.439h-5.086v-.89h4.518l-.492.328c0-1.29-.61-2.215-1.793-2.215-1.184 0-1.881.978-1.881 2.045v.591c0 1.46.809 2.262 2.01 2.262.773 0 1.353-.34 1.599-1.008l1.02.282c-.305.99-1.283 1.664-2.625 1.664Zm6.469 0c-1.348 0-2.286-.598-2.52-1.729l1.002-.24c.188.72.721 1.043 1.506 1.043.914 0 1.5-.451 1.5-.99 0-.452-.316-.75-.961-.903l-1.09-.258c-1.189-.28-1.758-.867-1.758-1.787 0-1.125 1.032-1.91 2.426-1.91 1.348 0 2.057.656 2.356 1.576l-.956.246c-.181-.468-.55-.925-1.394-.925-.779 0-1.365.404-1.365.949 0 .486.334.756 1.101.937l.991.235c1.189.281 1.746.873 1.746 1.77 0 1.148-1.049 1.986-2.584 1.986Zm4.91-.065a.789.789 0 1 1 .791-.791c0 .44-.358.791-.791.791Z" fill="#28272D"/><path d="M144 94h8l-4 4-4-4Z" fill="#fff"/></g><rect x="56.5" y="99.5" width="182" height="31" rx="3.5" fill="#ECECEF"/><rect x="56.5" y="99.5" width="182" height="31" rx="3.5" stroke="#89888D"/><g clip-path="url(#info-on-hover__c)"><path fill-rule="evenodd" clip-rule="evenodd" d="M70.377 107.266a.4.4 0 0 0-.754 0l-.291.823a.4.4 0 0 1-.243.243l-.823.291a.4.4 0 0 0 0 .754l.823.291a.4.4 0 0 1 .243.243l.291.823a.4.4 0 0 0 .754 0l.291-.823a.4.4 0 0 1 .243-.243l.823-.291a.4.4 0 0 0 0-.754l-.823-.291a.4.4 0 0 1-.243-.243l-.291-.823Zm12.018 6.602-.014-.038-.55-1.44-.172.529-.337 1.036h-6.644l-.337-1.036-.171-.528-.551 1.445-.004.01-.004.01-.012.03a1.56 1.56 0 0 0-.039.974c.092.323.286.605.55.806l.002.001.003.003.01.008.01.008.004.002 2.474 1.862.005.004 1.232.935.148.112.146-.112 1.233-.935.006-.004 2.49-1.873.006-.004.009-.006a1.557 1.557 0 0 0 .51-1.79l-.003-.009Zm.391 3-2.502 1.881-1.233.935-.748.569a.508.508 0 0 1-.61 0l-.75-.569-1.232-.935-2.485-1.87-.013-.011-.007-.005a3.056 3.056 0 0 1-1.006-3.519l.017-.043 1.214-3.181.068-.178.043-.114.173-.453.017-.045.118-.308a.43.43 0 0 1 .816.044l.099.305.004.013.193.594.06.181.746 2.296h4.464l.747-2.296.06-.181.193-.594.004-.013.099-.305a.434.434 0 0 1 .46-.314.437.437 0 0 1 .356.27l.116.305.019.048.171.449.045.118.068.177 1.214 3.181.016.044a3.056 3.056 0 0 1-1.007 3.518l-.007.006Zm-11.757 1.465a.5.5 0 0 1 .942 0l.364 1.028c.05.142.162.254.304.304l1.028.364a.5.5 0 0 1 0 .942l-1.028.364a.499.499 0 0 0-.304.304l-.364 1.028a.5.5 0 0 1-.942 0l-.364-1.028a.499.499 0 0 0-.304-.304l-1.028-.364a.5.5 0 0 1 0-.942l1.028-.364a.499.499 0 0 0 .304-.304l.364-1.028Z" fill="#3A383F"/></g><path d="m91.13 120-2.774-10.186h1.326l1.613 6.248c.253 1.005.478 2.038.677 3.152h-.157a40.84 40.84 0 0 1 .697-3.152l1.647-6.248h1.477l1.633 6.248c.267 1.005.5 2.038.712 3.152h-.178c.198-1.114.437-2.147.69-3.152l1.607-6.248h1.339L98.65 120h-1.51l-1.75-6.453a27.417 27.417 0 0 1-.636-3.083h.273c-.198 1.224-.376 2.119-.635 3.083L92.648 120h-1.517Zm11.266 0v-7.643h1.19v1.176h.082c.28-.772 1.073-1.285 1.982-1.285.178 0 .479.014.622.021v1.237a4.619 4.619 0 0 0-.738-.068c-1.1 0-1.907.745-1.907 1.777V120h-1.231Zm5.497 0v-7.643h1.23V120h-1.23Zm.622-8.894c-.465 0-.855-.362-.855-.813 0-.451.39-.814.855-.814.471 0 .861.363.861.814 0 .451-.39.813-.861.813Zm5.776 1.251v1.053h-3.951v-1.053h3.951Zm-2.803-1.818h1.231v7.479c0 .683.253.984.902.984.157 0 .424-.041.629-.082l.253 1.039a2.96 2.96 0 0 1-.916.137c-1.319 0-2.099-.732-2.099-1.983v-7.574Zm7.451 9.625c-2.214 0-3.582-1.572-3.582-3.924 0-2.344 1.354-3.978 3.439-3.978 1.62 0 3.329.998 3.329 3.821v.513h-5.934v-1.039h5.271l-.574.382c0-1.503-.711-2.584-2.092-2.584-1.381 0-2.194 1.142-2.194 2.386v.691c0 1.702.943 2.638 2.344 2.638.903 0 1.579-.396 1.866-1.175l1.19.328c-.356 1.155-1.497 1.941-3.063 1.941Zm9.038-.164v-10.186h1.845l2.509 6.426c.232.595.649 1.928.889 2.817h-.287c.246-.834.663-2.195.902-2.817l2.475-6.426h1.852V120h-1.278v-5.817c0-.841.027-2.215.054-3.357h.11c-.39 1.265-.882 2.694-1.142 3.357L133.63 120h-1.128l-2.311-5.817c-.253-.636-.711-2.031-1.162-3.357h.123c.028 1.019.062 2.461.062 3.357V120h-1.237Zm12.646 0v-10.186h3.486c2.379 0 3.473 1.327 3.473 3.145s-1.094 3.09-3.466 3.09h-2.768v-1.155h2.707c1.606 0 2.235-.739 2.235-1.935 0-1.21-.629-2.003-2.249-2.003h-2.119V120h-1.299Zm5.852 0-2.461-4.587h1.463l2.502 4.587h-1.504Zm9.809.164c-1.907 0-3.233-1.531-3.233-3.965 0-2.42 1.333-3.937 3.24-3.937 1.49 0 1.962.916 2.215 1.319h.096v-3.767h1.23V120h-1.189v-1.183h-.137c-.253.424-.766 1.347-2.222 1.347Zm.185-1.101c1.387 0 2.146-1.175 2.146-2.877 0-1.689-.738-2.824-2.146-2.824-1.449 0-2.167 1.238-2.167 2.824 0 1.606.738 2.877 2.167 2.877Zm8.736 1.101c-2.215 0-3.582-1.572-3.582-3.924 0-2.344 1.354-3.978 3.439-3.978 1.62 0 3.329.998 3.329 3.821v.513h-5.934v-1.039h5.271l-.575.382c0-1.503-.711-2.584-2.091-2.584-1.381 0-2.195 1.142-2.195 2.386v.691c0 1.702.944 2.638 2.345 2.638.902 0 1.579-.396 1.866-1.175l1.19.328c-.356 1.155-1.497 1.941-3.063 1.941Zm7.547 0c-1.572 0-2.666-.697-2.94-2.017l1.169-.28c.219.841.841 1.217 1.757 1.217 1.067 0 1.75-.526 1.75-1.155 0-.527-.369-.875-1.121-1.053l-1.271-.301c-1.388-.328-2.051-1.012-2.051-2.085 0-1.312 1.203-2.228 2.83-2.228 1.572 0 2.399.765 2.748 1.839l-1.114.287c-.212-.547-.643-1.08-1.627-1.08-.909 0-1.593.471-1.593 1.107 0 .567.39.882 1.285 1.094l1.155.273c1.388.328 2.038 1.019 2.038 2.065 0 1.34-1.224 2.317-3.015 2.317Zm7.909 0c-2.078 0-3.479-1.579-3.479-3.937 0-2.393 1.401-3.965 3.479-3.965 1.477 0 2.68.779 3.097 2.112l-1.183.335c-.225-.786-.909-1.347-1.914-1.347-1.524 0-2.228 1.34-2.228 2.865 0 1.503.704 2.836 2.228 2.836 1.026 0 1.723-.581 1.948-1.408l1.176.335c-.41 1.361-1.627 2.174-3.124 2.174Zm4.888-.164v-7.643h1.189v1.176h.082c.281-.772 1.074-1.285 1.983-1.285.177 0 .478.014.622.021v1.237a4.619 4.619 0 0 0-.738-.068c-1.101 0-1.908.745-1.908 1.777V120h-1.23Zm5.496 0v-7.643h1.23V120h-1.23Zm.622-8.894c-.465 0-.855-.362-.855-.813 0-.451.39-.814.855-.814.472 0 .861.363.861.814 0 .451-.389.813-.861.813Zm2.769 11.751v-10.5h1.189v1.224h.137c.253-.403.724-1.319 2.215-1.319 1.907 0 3.24 1.517 3.24 3.937 0 2.434-1.326 3.965-3.234 3.965-1.456 0-1.968-.923-2.221-1.347h-.096v4.04h-1.23Zm3.363-3.794c1.429 0 2.167-1.271 2.167-2.877 0-1.586-.718-2.824-2.167-2.824-1.408 0-2.147 1.135-2.147 2.824 0 1.702.759 2.877 2.147 2.877Zm8.217-6.706v1.053h-3.952v-1.053h3.952Zm-2.803-1.818h1.23v7.479c0 .683.253.984.903.984.157 0 .424-.041.629-.082l.253 1.039a2.96 2.96 0 0 1-.916.137c-1.32 0-2.099-.732-2.099-1.983v-7.574Zm4.375 9.461v-7.643h1.23V120h-1.23Zm.622-8.894c-.465 0-.855-.362-.855-.813 0-.451.39-.814.855-.814.472 0 .861.363.861.814 0 .451-.389.813-.861.813Zm5.879 9.058c-2.078 0-3.48-1.579-3.48-3.937 0-2.393 1.402-3.965 3.48-3.965 2.085 0 3.493 1.572 3.493 3.965 0 2.358-1.408 3.937-3.493 3.937Zm0-1.101c1.545 0 2.249-1.333 2.249-2.836 0-1.518-.704-2.865-2.249-2.865-1.525 0-2.229 1.34-2.229 2.865 0 1.503.704 2.836 2.229 2.836Zm6.515-3.643V120h-1.231v-7.643h1.183l.006 1.853h-.17c.464-1.408 1.353-1.948 2.508-1.948 1.545 0 2.591.95 2.591 2.884V120h-1.237v-4.751c0-1.176-.656-1.88-1.723-1.88-1.1 0-1.927.745-1.927 2.051Z" fill="#3A383F"/><path d="M8.5 115a9.5 9.5 0 0 1 9.5-9.5h18a9.5 9.5 0 0 1 9.5 9.5 9.5 9.5 0 0 1-9.5 9.5H18a9.5 9.5 0 0 1-9.5-9.5Z" fill="#CBE2F9"/><path d="M8.5 115a9.5 9.5 0 0 1 9.5-9.5h18a9.5 9.5 0 0 1 9.5 9.5 9.5 9.5 0 0 1-9.5 9.5H18a9.5 9.5 0 0 1-9.5-9.5Z" stroke="#9DC7F1"/><path d="M15.234 119v-8.73h1.313l3.55 5.584c.276.433.774 1.265 1.225 2.238h-.158a23.587 23.587 0 0 1-.111-2.467v-5.355h1.113V119h-1.324l-3.164-4.969c-.44-.691-.803-1.336-1.635-2.818h.205c.053 1.301.105 2.338.105 2.807V119h-1.119Zm11.672.141c-1.898 0-3.07-1.348-3.07-3.364 0-2.009 1.16-3.41 2.947-3.41 1.389 0 2.854.856 2.854 3.276v.439H24.55v-.891h4.517l-.492.329c0-1.29-.61-2.215-1.793-2.215-1.183 0-1.88.978-1.88 2.045v.591c0 1.459.808 2.262 2.01 2.262.773 0 1.353-.34 1.599-1.008l1.02.282c-.305.99-1.284 1.664-2.626 1.664Zm5.49-.141-1.986-6.551h1.12l.796 2.86c.217.779.475 1.757.72 3.005h-.18c.234-1.195.48-2.173.708-3.005l.785-2.86h1.125l.774 2.86c.217.802.463 1.781.697 3.005h-.187c.246-1.212.498-2.185.726-3.005l.797-2.86h1.12L37.423 119h-1.049l-.85-2.965a61.931 61.931 0 0 1-.732-2.883h.234a60.246 60.246 0 0 1-.732 2.883l-.85 2.965h-1.048Z" fill="#064787"/><g filter="url(#info-on-hover__d)" fill-rule="evenodd" clip-rule="evenodd"><path d="M173.896 152.741c.31.279.525.48 1.188 1.108.649.615.962.906 1.249 1.149.12.101.222.37.263.77a5.08 5.08 0 0 1-.054 1.302.774.774 0 0 0 .754.913c.433.004.766.01 1.648.025l.443.008c2.397.041 3.622.03 4.501-.08.94-.118 1.907-1.251 2.744-2.671.709 1.257 1.692 2.485 2.684 2.644.316.05.697.066 1.14.056.329-.008.678-.029 1.03-.061.266-.023.477-.047.604-.064a.772.772 0 0 0 .647-.972 7.169 7.169 0 0 1-.114-.503 6.438 6.438 0 0 1-.103-.751 3.007 3.007 0 0 1-.006-.398c.011-.201.015-.314.021-.575l.005-.182c.011-.278.048-.543.169-1.119.052-.25.305-.728.702-1.32.118-.176.248-.361.386-.551a27.18 27.18 0 0 1 1.203-1.523c.612-.875 1.265-2.308 1.505-3.146.23-.805.414-2.288.527-3.745.062-.827.085-1.494.085-2.539l.001-.335v-.458a47.431 47.431 0 0 0-.043-1.431c-.065-1.679-.987-2.763-2.345-2.973-1.155-.178-2.561.78-2.561.78s-.313-1.079-.525-1.411c-.343-.535-1.228-1.217-1.904-1.35-.695-.134-1.52-.12-2.277.014-.663.118-1.323.709-1.705 1.346-.273.455-.016-.024-.29-.494-.378-.648-1.259-1.228-2.098-1.399-.711-.146-1.525-.091-2.269.13-.957.285-1.109 1.012-1.147.804-.128-.698-.139-.652-.219-1.149-.294-1.847-.624-3.124-1.124-4.239.029.064-.183-.417-.26-.583a9.404 9.404 0 0 0-.414-.797c-.451-.771-.969-1.348-1.618-1.676-1.128-.57-2.818-.292-3.619.641-.795.927-.928 2.478-.728 4.397.077.745.345 2.105.588 3.11.086.349.161.668.3 1.255l.047.2c.107.445.201.811.313 1.213l.246.876.03.111a34.71 34.71 0 0 1 .502 2.235c.184.969.184.767.008.56a14.342 14.342 0 0 0-.348-.392 5.848 5.848 0 0 0-.576-.552c-1.311-1.07-2.114-1.543-3.217-1.647-1.809-.174-3.526 1.102-3.785 2.823-.158 1.055-.107 1.541.382 2.474.269.504.725 1.112 1.574 2.16l.104.128c1.043 1.282 1.157 1.425 1.405 1.783.67.971 2.302 3.759 2.599 4.133l1.752 1.938Z" fill="#000"/><path d="m169.344 143.912-.103-.126c-.78-.962-1.207-1.533-1.408-1.91-.316-.602-.333-.765-.22-1.522.134-.892 1.099-1.609 2.105-1.512.695.065 1.303.423 2.384 1.305.116.095.257.232.419.406.095.102.196.217.306.345.164.191.717.867.635.769.121.144.206.255.305.392.194.277.304.431.452.629-.07-.093.444.615.552.719.576.548 1.41.086 1.357-.645a2.65 2.65 0 0 0-.097-.484c-.237-1.69-.32-2.232-.51-3.233a34.327 34.327 0 0 0-.527-2.344l-.032-.119c-.048-.175-.263-.938-.249-.886-.106-.381-.195-.73-.298-1.158l-.047-.196c-.137-.585-.215-.911-.302-1.265-.227-.94-.484-2.242-.552-2.903-.156-1.494-.048-2.752.363-3.232.322-.374 1.233-.524 1.742-.267.333.168.666.539.98 1.077.12.203.231.421.346.667.069.149.274.615.251.564.435.969.734 2.126 1.009 3.85a80.352 80.352 0 0 0 .388 2.216c.623 3.373.577 3.118.586 3.387.033.981 1.484 1.004 1.548.024.02-.311.013-.588-.023-1.385l-.01-.225c-.031-.734-.029-1.156.014-1.396.079-.438.473-.928.836-1.036.509-.152 1.067-.19 1.514-.098.428.088.927.416 1.07.662.173.297.321.749.435 1.31.091.453.154.938.199 1.457.013.161.022.286.036.492l.012.157c.003.036.003.036.011.092.007.04.007.04.036.14.015.284.015.284 1.159.39.342-.412.342-.412.332-.485.056-.244.091-.516.139-1.027.032-.332.047-.496.066-.665.076-.702.172-1.148.29-1.343.146-.244.661-.584.892-.625.58-.102 1.216-.114 1.708-.019.223.044.766.463.894.663.264.416.521 1.756.666 3.086-.023.087-.023.087.332.593 1.22-.139 1.22-.139 1.185-.359a2.25 2.25 0 0 0 .094-.309c.088-.33.146-.521.232-.735a2.27 2.27 0 0 1 .186-.376c.25-.392.895-.658 1.462-.571.608.094.995.55 1.033 1.504.03.784.039 1.086.041 1.382v.443l-.001.339a29.36 29.36 0 0 1-.08 2.421c-.105 1.347-.281 2.77-.473 3.438-.195.682-.778 1.962-1.239 2.627a9.88 9.88 0 0 0-.353.42c-.299.368-.598.753-.878 1.137-.15.206-.291.406-.421.6-.503.75-.826 1.363-.931 1.865-.137.653-.186.999-.201 1.374l-.006.209c-.005.244-.009.342-.019.52a4.62 4.62 0 0 0 .007.597c.022.301 0 .712 0 .712s-.261-.024-.553-.018a5.008 5.008 0 0 1-.858-.036c-.296-.048-1.094-1.045-1.503-1.821-.625-1.189-2.141-1.132-2.763-.082-.56.953-1.363 1.892-1.601 1.922-.774.097-1.973.108-4.282.069l-.441-.008c-.886-.016-.852.133-.834-.026.052-.454.046-.369 0-.823-.077-.762-.313-1.383-.804-1.796a29.814 29.814 0 0 1-1.167-1.075 41.43 41.43 0 0 0-1.184-1.1l-1.657-1.838c-.181-.232-1.777-2.957-2.505-4.012-.284-.41-.39-.542-1.477-1.88Zm19.651.008v7.134c0 1.031 1.55 1.031 1.55 0v-7.134c0-1.031-1.55-1.031-1.55 0Zm-4.198-.001.033 7.163c.004 1.031 1.554 1.024 1.55-.007l-.033-7.163c-.005-1.032-1.555-1.025-1.55.007Zm-2.499 7.123-.044-7.066c-.006-1.032-1.556-1.022-1.55.009l.044 7.066c.006 1.031 1.556 1.022 1.55-.009Z" fill="#fff"/></g><defs><clipPath id="info-on-hover__b"><path fill="#fff" transform="translate(264 14)" d="M0 0h16v16H0z"/></clipPath><clipPath id="info-on-hover__c"><path fill="#fff" transform="translate(68 107)" d="M0 0h16v16H0z"/></clipPath><filter id="info-on-hover__a" x="0" y="0" width="296" height="108" filterUnits="userSpaceOnUse" color-interpolation-filters="sRGB"><feFlood flood-opacity="0" result="BackgroundImageFix"/><feColorMatrix in="SourceAlpha" values="0 0 0 0 0 0 0 0 0 0 0 0 0 0 0 0 0 0 127 0" result="hardAlpha"/><feOffset/><feGaussianBlur stdDeviation="1"/><feComposite in2="hardAlpha" operator="out"/><feColorMatrix values="0 0 0 0 0.121569 0 0 0 0 0.117647 0 0 0 0 0.141176 0 0 0 0.16 0"/><feBlend in2="BackgroundImageFix" result="effect1_dropShadow_37649_6749"/><feColorMatrix in="SourceAlpha" values="0 0 0 0 0 0 0 0 0 0 0 0 0 0 0 0 0 0 127 0" result="hardAlpha"/><feOffset dy="2"/><feGaussianBlur stdDeviation="4"/><feComposite in2="hardAlpha" operator="out"/><feColorMatrix values="0 0 0 0 0.121569 0 0 0 0 0.117647 0 0 0 0 0.141176 0 0 0 0.16 0"/><feBlend in2="effect1_dropShadow_37649_6749" result="effect2_dropShadow_37649_6749"/><feBlend in="SourceGraphic" in2="effect2_dropShadow_37649_6749" result="shape"/></filter><filter id="info-on-hover__d" x="164" y="124" width="35.118" height="37.038" filterUnits="userSpaceOnUse" color-interpolation-filters="sRGB"><feFlood flood-opacity="0" result="BackgroundImageFix"/><feColorMatrix in="SourceAlpha" values="0 0 0 0 0 0 0 0 0 0 0 0 0 0 0 0 0 0 127 0" result="hardAlpha"/><feOffset dy="1"/><feGaussianBlur stdDeviation="1"/><feColorMatrix values="0 0 0 0 0 0 0 0 0 0 0 0 0 0 0 0 0 0 0.298656 0"/><feBlend in2="BackgroundImageFix" result="effect1_dropShadow_37649_6749"/><feBlend in="SourceGraphic" in2="effect1_dropShadow_37649_6749" result="shape"/></filter></defs></svg>