<svg width="360" height="251" viewBox="0 0 360 251" fill="none" xmlns="http://www.w3.org/2000/svg">
<g clip-path="url(#clip0_37095_4140)">
<rect width="360" height="251" fill="#FBFAFD"/>
<g filter="url(#filter0_d_37095_4140)">
<rect width="400" height="109" transform="translate(-1 188)" fill="#FBFAFD"/>
<rect x="14.5" y="202.5" width="331" height="35" rx="5.5" stroke="#1F75CB" stroke-width="3"/>
<rect x="15.5" y="203.5" width="329" height="33" rx="4.5" stroke="white"/>
<rect x="16.5" y="204.5" width="327" height="31" rx="3.5" fill="white"/>
<rect x="16.5" y="204.5" width="327" height="31" rx="3.5" stroke="#333238"/>
<path d="M32.7305 214.336L29.4492 226.531H28.3145L31.5957 214.336H32.7305ZM36.7227 225.164C35.1504 225.164 34.0566 224.467 33.7832 223.147L34.9521 222.867C35.1709 223.708 35.793 224.084 36.709 224.084C37.7754 224.084 38.459 223.558 38.459 222.929C38.459 222.402 38.0898 222.054 37.3379 221.876L36.0664 221.575C34.6787 221.247 34.0156 220.563 34.0156 219.49C34.0156 218.178 35.2188 217.262 36.8457 217.262C38.418 217.262 39.2451 218.027 39.5938 219.101L38.4795 219.388C38.2676 218.841 37.8369 218.308 36.8525 218.308C35.9434 218.308 35.2598 218.779 35.2598 219.415C35.2598 219.982 35.6494 220.297 36.5449 220.509L37.7002 220.782C39.0879 221.11 39.7373 221.801 39.7373 222.847C39.7373 224.187 38.5137 225.164 36.7227 225.164ZM44.1123 225.096C42.5674 225.096 41.5215 224.146 41.5215 222.211V217.357H42.752V222.108C42.752 223.284 43.415 223.988 44.4814 223.988C45.5752 223.988 46.4023 223.243 46.4023 221.938V217.357H47.6396V225H46.4502V223.147H46.6143C46.1426 224.583 45.2334 225.096 44.1123 225.096ZM49.8066 225V217.357H51.0029L51.0098 219.066H50.9141C51.2217 217.829 52.1582 217.221 53.1494 217.221C54.2568 217.221 54.9609 217.973 55.166 219.08H55.002C55.2754 217.938 56.2871 217.221 57.5039 217.221C58.8301 217.221 59.9102 218.075 59.9102 219.846V225H58.6729V219.88C58.6729 218.779 57.9551 218.342 57.1348 218.342C56.1025 218.342 55.4736 219.046 55.4736 220.01V225H54.2432V219.757C54.2432 218.909 53.6074 218.342 52.7461 218.342C51.8506 218.342 51.0371 218.971 51.0371 220.188V225H49.8066ZM62.0703 225V217.357H63.2666L63.2734 219.066H63.1777C63.4854 217.829 64.4219 217.221 65.4131 217.221C66.5205 217.221 67.2246 217.973 67.4297 219.08H67.2656C67.5391 217.938 68.5508 217.221 69.7676 217.221C71.0938 217.221 72.1738 218.075 72.1738 219.846V225H70.9365V219.88C70.9365 218.779 70.2188 218.342 69.3984 218.342C68.3662 218.342 67.7373 219.046 67.7373 220.01V225H66.5068V219.757C66.5068 218.909 65.8711 218.342 65.0098 218.342C64.1143 218.342 63.3008 218.971 63.3008 220.188V225H62.0703ZM76.4736 225.178C75.0244 225.178 73.8691 224.33 73.8691 222.826C73.8691 221.076 75.4277 220.755 76.8428 220.577C78.2031 220.406 78.8047 220.447 78.8047 219.88V219.839C78.8047 218.889 78.2646 218.342 77.2051 218.342C76.1045 218.342 75.5098 218.93 75.2705 219.463L74.0879 219.073C74.6758 217.686 75.9883 217.262 77.1709 217.262C78.1963 217.262 80.0352 217.576 80.0352 219.962V225H78.8252V223.961H78.7432C78.4834 224.501 77.7656 225.178 76.4736 225.178ZM76.6855 224.091C78.0459 224.091 78.8047 223.175 78.8047 222.238V221.179C78.5996 221.418 77.2598 221.555 76.7881 221.616C75.8926 221.732 75.1064 222.02 75.1064 222.888C75.1064 223.681 75.7695 224.091 76.6855 224.091ZM82.1953 225V217.357H83.3848V218.533H83.4668C83.7471 217.761 84.54 217.248 85.4492 217.248C85.627 217.248 85.9277 217.262 86.0713 217.269V218.506C85.9961 218.492 85.6611 218.438 85.333 218.438C84.2324 218.438 83.4258 219.183 83.4258 220.215V225H82.1953ZM87.6914 225V217.357H88.9219V225H87.6914ZM88.3135 216.106C87.8486 216.106 87.459 215.744 87.459 215.293C87.459 214.842 87.8486 214.479 88.3135 214.479C88.7852 214.479 89.1748 214.842 89.1748 215.293C89.1748 215.744 88.7852 216.106 88.3135 216.106ZM90.8633 225V224.084L95.1494 218.574V218.499H91V217.357H96.7354V218.335L92.5723 223.783V223.858H96.8721V225H90.8633ZM101.828 225.164C99.6133 225.164 98.2461 223.592 98.2461 221.24C98.2461 218.896 99.5996 217.262 101.685 217.262C103.305 217.262 105.014 218.26 105.014 221.083V221.596H99.0801V220.557H104.351L103.776 220.939C103.776 219.436 103.065 218.355 101.685 218.355C100.304 218.355 99.4902 219.497 99.4902 220.741V221.432C99.4902 223.134 100.434 224.07 101.835 224.07C102.737 224.07 103.414 223.674 103.701 222.895L104.891 223.223C104.535 224.378 103.394 225.164 101.828 225.164ZM114.495 225L116.177 214.814H117.209L115.541 225H114.495ZM109.867 222.19L110.038 221.165H117.667L117.496 222.19H109.867ZM110.927 225L112.595 214.814H113.627L111.959 225H110.927ZM110.469 218.663L110.64 217.624H118.255L118.098 218.663H110.469ZM119.328 222.929V221.869L123.785 214.814H124.571V216.441H124.045L120.716 221.705V221.787H126.745V222.929H119.328ZM124.12 225V222.614L124.127 222.115V214.814H125.364V225H124.12ZM131.975 225.137C130.272 225.137 128.393 224.05 128.393 220.297C128.393 216.715 129.821 214.678 132.132 214.678C133.841 214.678 135.078 215.778 135.324 217.378H134.053C133.827 216.496 133.191 215.826 132.132 215.826C130.566 215.826 129.623 217.248 129.623 219.695H129.705C130.252 218.848 131.154 218.342 132.214 218.342C133.957 218.342 135.406 219.743 135.406 221.712C135.406 223.612 134.053 225.137 131.975 225.137ZM131.975 223.995C133.198 223.995 134.148 222.983 134.148 221.712C134.148 220.468 133.239 219.47 132.009 219.47C130.771 219.47 129.808 220.536 129.808 221.726C129.808 222.929 130.724 223.995 131.975 223.995Z" fill="#303030"/>
<line y1="188.5" x2="399" y2="188.5" stroke="#ECECEF"/>
<line x1="136.5" y1="213" x2="136.5" y2="227" stroke="#626168"/>
</g>
<g filter="url(#filter1_dd_37095_4140)">
<rect x="16" y="16" width="328" height="182" rx="8" fill="white" shape-rendering="crispEdges"/>
<rect x="16.5" y="16.5" width="327" height="181" rx="7.5" stroke="#BFBFBF" shape-rendering="crispEdges"/>
<g clip-path="url(#clip1_37095_4140)">
<rect width="326" height="48" transform="translate(17 21)" fill="white"/>
<path fill-rule="evenodd" clip-rule="evenodd" d="M52.0001 39.5H58.0001C58.2762 39.5 58.5001 39.7239 58.5001 40V50C58.5001 50.2761 58.2762 50.5 58.0001 50.5H52.0001C51.7239 50.5 51.5001 50.2761 51.5001 50V40C51.5001 39.7239 51.7239 39.5 52.0001 39.5ZM50.0001 40C50.0001 38.8954 50.8955 38 52.0001 38H58.0001C58.9879 38 59.8085 38.7162 59.9709 39.6576L62.8833 41.1737C63.7406 41.62 64.0738 42.6768 63.6275 43.5341L59.7489 50.9848C59.7214 51.0376 59.6884 51.0859 59.6511 51.1291C59.2907 51.655 58.6857 52 58.0001 52H52.0001C50.8955 52 50.0001 51.1046 50.0001 50V40ZM60.0001 47.2537L62.297 42.8414C62.3607 42.719 62.3131 42.568 62.1907 42.5042L60.0001 41.3639V47.2537Z" fill="#737278"/>
<path d="M73.6905 40.1816V38.5615L77.963 31.8145H79.3507V34.0908H78.5167L75.7686 38.4385V38.5205H81.8116V40.1816H73.6905ZM78.5645 42V39.6895L78.5987 38.9648V31.8145H80.5401V42H78.5645ZM87.1231 42.1367C85.0655 42.1367 83.1036 40.8857 83.1036 37.1602C83.1036 33.7285 84.71 31.6777 87.2052 31.6777C89.1944 31.6777 90.5753 32.9561 90.7872 34.6309H88.7569C88.586 33.9062 88.0186 33.4551 87.2052 33.4551C85.8516 33.4551 85.127 34.7061 85.127 36.7363H85.1954C85.6602 35.8408 86.6378 35.3076 87.752 35.3076C89.5499 35.3076 90.8897 36.6885 90.8897 38.6025C90.8897 40.6602 89.3653 42.1367 87.1231 42.1367ZM87.1095 40.5029C88.128 40.5029 88.8936 39.7031 88.8936 38.6572C88.8936 37.625 88.1485 36.8252 87.1231 36.8252C86.1182 36.8252 85.3389 37.6592 85.3389 38.6641C85.3389 39.6758 86.0909 40.5029 87.1095 40.5029ZM95.8663 42.1367C93.795 42.1367 92.3731 40.9541 92.3731 39.293C92.3731 38.0078 93.2208 36.9141 94.3624 36.709V36.6543C93.3712 36.4014 92.7423 35.4648 92.7423 34.3848C92.7423 32.833 94.0548 31.6777 95.8663 31.6777C97.6505 31.6777 98.9835 32.833 98.9835 34.3848C98.9835 35.4648 98.3409 36.4014 97.377 36.6543V36.709C98.4845 36.9141 99.3663 38.0078 99.3663 39.293C99.3663 40.9541 97.9171 42.1367 95.8663 42.1367ZM95.8663 41.0088C97.213 41.0088 98.0675 40.3047 98.0675 39.2246C98.0675 38.0967 97.1241 37.29 95.8663 37.29C94.5811 37.29 93.6514 38.0967 93.6514 39.2246C93.6514 40.3047 94.4923 41.0088 95.8663 41.0088ZM95.8663 36.2031C96.9395 36.2031 97.7257 35.5127 97.7257 34.4805C97.7257 33.4619 96.9737 32.7988 95.8663 32.7988C94.7384 32.7988 94.0001 33.4619 94.0001 34.4805C94.0001 35.5127 94.7657 36.2031 95.8663 36.2031ZM104.623 42.1367C102.921 42.1367 101.041 41.0498 101.041 37.2969C101.041 33.7148 102.47 31.6777 104.78 31.6777C106.489 31.6777 107.727 32.7783 107.973 34.3779H106.701C106.476 33.4961 105.84 32.8262 104.78 32.8262C103.215 32.8262 102.272 34.248 102.272 36.6953H102.354C102.9 35.8477 103.803 35.3418 104.862 35.3418C106.606 35.3418 108.055 36.7432 108.055 38.7119C108.055 40.6123 106.701 42.1367 104.623 42.1367ZM104.623 40.9951C105.847 40.9951 106.797 39.9834 106.797 38.7119C106.797 37.4678 105.888 36.4697 104.657 36.4697C103.42 36.4697 102.456 37.5361 102.456 38.7256C102.456 39.9287 103.372 40.9951 104.623 40.9951ZM113.011 42.1367C111.281 42.1367 110.044 41.0361 109.805 39.4092H111.09C111.302 40.3115 111.938 40.9883 113.011 40.9883C114.563 40.9883 115.52 39.5732 115.52 37.1055H115.438C114.891 37.9395 113.995 38.4658 112.929 38.4658C111.172 38.4658 109.723 37.0576 109.723 35.0957C109.723 33.1953 111.09 31.6436 113.182 31.6777C114.857 31.7051 116.736 32.7578 116.736 36.5039C116.736 40.1064 115.315 42.1367 113.011 42.1367ZM113.12 37.3311C114.357 37.3311 115.335 36.2578 115.335 35.0615C115.335 33.8926 114.412 32.8193 113.161 32.8193C111.931 32.8193 110.994 33.8311 110.994 35.0889C110.994 36.3398 111.89 37.3311 113.12 37.3311ZM118.391 39.9287V38.8691L122.848 31.8145H123.634V33.4414H123.107L119.778 38.7051V38.7871H125.808V39.9287H118.391ZM123.183 42V39.6143L123.19 39.1152V31.8145H124.427V42H123.183ZM132.104 43.2646V30.5498H134.824V31.5957H133.279V42.2188H134.824V43.2646H132.104ZM136.902 42V31.8145H143.062V32.9629H138.201V36.4492H142.597V37.5977H138.201V42H136.902ZM147.676 42.1641C145.461 42.1641 144.094 40.5918 144.094 38.2402C144.094 35.8955 145.447 34.2617 147.532 34.2617C149.152 34.2617 150.861 35.2598 150.861 38.083V38.5957H144.928V37.5566H150.198L149.624 37.9395C149.624 36.4355 148.913 35.3555 147.532 35.3555C146.151 35.3555 145.338 36.4971 145.338 37.7412V38.4316C145.338 40.1338 146.281 41.0703 147.683 41.0703C148.585 41.0703 149.262 40.6738 149.549 39.8945L150.738 40.2227C150.383 41.3779 149.241 42.1641 147.676 42.1641ZM154.901 42.1777C153.452 42.1777 152.297 41.3301 152.297 39.8262C152.297 38.0762 153.856 37.7549 155.271 37.5771C156.631 37.4062 157.232 37.4473 157.232 36.8799V36.8389C157.232 35.8887 156.692 35.3418 155.633 35.3418C154.532 35.3418 153.938 35.9297 153.698 36.4629L152.516 36.0732C153.104 34.6855 154.416 34.2617 155.599 34.2617C156.624 34.2617 158.463 34.5762 158.463 36.9619V42H157.253V40.9609H157.171C156.911 41.501 156.193 42.1777 154.901 42.1777ZM155.113 41.0908C156.474 41.0908 157.232 40.1748 157.232 39.2383V38.1787C157.027 38.418 155.688 38.5547 155.216 38.6162C154.32 38.7324 153.534 39.0195 153.534 39.8877C153.534 40.6807 154.197 41.0908 155.113 41.0908ZM163.631 34.3574V35.4102H159.68V34.3574H163.631ZM160.828 32.5391H162.059V40.0176C162.059 40.7012 162.312 41.002 162.961 41.002C163.118 41.002 163.385 40.9609 163.59 40.9199L163.843 41.959C163.59 42.0479 163.241 42.0957 162.927 42.0957C161.607 42.0957 160.828 41.3643 160.828 40.1133V32.5391ZM167.794 42.0957C166.249 42.0957 165.203 41.1455 165.203 39.2109V34.3574H166.434V39.1084C166.434 40.2842 167.097 40.9883 168.163 40.9883C169.257 40.9883 170.084 40.2432 170.084 38.9375V34.3574H171.321V42H170.132V40.1475H170.296C169.824 41.583 168.915 42.0957 167.794 42.0957ZM173.488 42V34.3574H174.678V35.5332H174.76C175.04 34.7607 175.833 34.248 176.742 34.248C176.92 34.248 177.221 34.2617 177.364 34.2686V35.5059C177.289 35.4922 176.954 35.4375 176.626 35.4375C175.525 35.4375 174.719 36.1826 174.719 37.2148V42H173.488ZM181.746 42.1641C179.531 42.1641 178.164 40.5918 178.164 38.2402C178.164 35.8955 179.518 34.2617 181.603 34.2617C183.223 34.2617 184.932 35.2598 184.932 38.083V38.5957H178.998V37.5566H184.269L183.694 37.9395C183.694 36.4355 182.983 35.3555 181.603 35.3555C180.222 35.3555 179.408 36.4971 179.408 37.7412V38.4316C179.408 40.1338 180.352 41.0703 181.753 41.0703C182.655 41.0703 183.332 40.6738 183.619 39.8945L184.809 40.2227C184.453 41.3779 183.312 42.1641 181.746 42.1641ZM194.188 34.3574V35.4102H189.69V34.3574H194.188ZM191.193 42V33.3389C191.193 32.0127 192.253 31.3359 193.367 31.3359C193.948 31.3359 194.331 31.459 194.516 31.541L194.174 32.5938C194.044 32.5527 193.853 32.4775 193.511 32.4775C192.752 32.4775 192.424 32.874 192.424 33.6123V42H191.193ZM197.53 42.0547C196.382 42.0547 195.815 41.4121 195.815 40.3047V31.8145H197.045V39.9971C197.045 40.7012 197.168 40.9541 197.681 40.9541C197.947 40.9541 198.057 40.9336 198.173 40.8994L198.419 41.9385C198.2 42 197.858 42.0547 197.53 42.0547ZM201.81 42.1777C200.36 42.1777 199.205 41.3301 199.205 39.8262C199.205 38.0762 200.764 37.7549 202.179 37.5771C203.539 37.4062 204.141 37.4473 204.141 36.8799V36.8389C204.141 35.8887 203.601 35.3418 202.541 35.3418C201.441 35.3418 200.846 35.9297 200.607 36.4629L199.424 36.0732C200.012 34.6855 201.324 34.2617 202.507 34.2617C203.532 34.2617 205.371 34.5762 205.371 36.9619V42H204.161V40.9609H204.079C203.819 41.501 203.102 42.1777 201.81 42.1777ZM202.022 41.0908C203.382 41.0908 204.141 40.1748 204.141 39.2383V38.1787C203.936 38.418 202.596 38.5547 202.124 38.6162C201.229 38.7324 200.442 39.0195 200.442 39.8877C200.442 40.6807 201.106 41.0908 202.022 41.0908ZM210.628 45.0215C208.933 45.0215 207.955 44.3037 207.483 43.4629L208.482 42.8203C208.803 43.2646 209.281 43.9482 210.628 43.9482C211.845 43.9482 212.727 43.3877 212.727 42.1299V40.5986H212.61C212.351 41.0361 211.865 41.877 210.389 41.877C208.557 41.877 207.162 40.5439 207.162 38.1445C207.162 35.7793 208.509 34.2617 210.416 34.2617C211.893 34.2617 212.385 35.1709 212.645 35.5811H212.761V34.3574H213.957V42.1982C213.957 44.1738 212.487 45.0215 210.628 45.0215ZM210.594 40.7832C211.982 40.7832 212.74 39.7852 212.74 38.1172C212.74 36.4971 212.002 35.3623 210.594 35.3623C209.138 35.3623 208.413 36.5928 208.413 38.1172C208.413 39.6895 209.158 40.7832 210.594 40.7832ZM215.878 43.9072V42.8613H217.423V32.2383H215.878V31.1924H218.599V43.9072H215.878ZM225.318 42V31.8145H231.525V32.9629H226.617V36.2852H231.191V37.4336H226.617V40.8516H231.587V42H225.318ZM234.82 37.4199V42H233.59V34.3574H234.773L234.779 36.21H234.608C235.073 34.8018 235.962 34.2617 237.117 34.2617C238.662 34.2617 239.708 35.2119 239.708 37.1465V42H238.471V37.249C238.471 36.0732 237.815 35.3691 236.748 35.3691C235.648 35.3691 234.82 36.1143 234.82 37.4199ZM244.015 42.1777C242.566 42.1777 241.41 41.3301 241.41 39.8262C241.41 38.0762 242.969 37.7549 244.384 37.5771C245.744 37.4062 246.346 37.4473 246.346 36.8799V36.8389C246.346 35.8887 245.806 35.3418 244.746 35.3418C243.646 35.3418 243.051 35.9297 242.812 36.4629L241.629 36.0732C242.217 34.6855 243.529 34.2617 244.712 34.2617C245.737 34.2617 247.576 34.5762 247.576 36.9619V42H246.366V40.9609H246.284C246.024 41.501 245.307 42.1777 244.015 42.1777ZM244.227 41.0908C245.587 41.0908 246.346 40.1748 246.346 39.2383V38.1787C246.141 38.418 244.801 38.5547 244.329 38.6162C243.434 38.7324 242.648 39.0195 242.648 39.8877C242.648 40.6807 243.311 41.0908 244.227 41.0908ZM253.284 42.1641C251.828 42.1641 251.316 41.2412 251.063 40.8174H250.926V42H249.736V31.8145H250.967V35.5811H251.063C251.316 35.1777 251.787 34.2617 253.277 34.2617C255.185 34.2617 256.518 35.7793 256.518 38.1992C256.518 40.6328 255.191 42.1641 253.284 42.1641ZM253.1 41.0635C254.528 41.0635 255.267 39.792 255.267 38.1855C255.267 36.5996 254.549 35.3623 253.1 35.3623C251.691 35.3623 250.953 36.4971 250.953 38.1855C250.953 39.8877 251.712 41.0635 253.1 41.0635ZM260.024 42.0547C258.876 42.0547 258.309 41.4121 258.309 40.3047V31.8145H259.539V39.9971C259.539 40.7012 259.662 40.9541 260.175 40.9541C260.441 40.9541 260.551 40.9336 260.667 40.8994L260.913 41.9385C260.694 42 260.353 42.0547 260.024 42.0547ZM265.172 42.1641C262.957 42.1641 261.59 40.5918 261.59 38.2402C261.59 35.8955 262.943 34.2617 265.028 34.2617C266.649 34.2617 268.357 35.2598 268.357 38.083V38.5957H262.424V37.5566H267.694L267.12 37.9395C267.12 36.4355 266.409 35.3555 265.028 35.3555C263.648 35.3555 262.834 36.4971 262.834 37.7412V38.4316C262.834 40.1338 263.777 41.0703 265.179 41.0703C266.081 41.0703 266.758 40.6738 267.045 39.8945L268.234 40.2227C267.879 41.3779 266.737 42.1641 265.172 42.1641ZM75.0098 58.0889C74.504 58.0889 74.0938 57.6719 74.0938 57.166C74.0938 56.6602 74.5108 56.25 75.0098 56.25C75.5157 56.25 75.9327 56.6602 75.9327 57.166C75.9327 57.6787 75.5157 58.0889 75.0098 58.0889ZM75.0098 52.5586C74.504 52.5586 74.0938 52.1416 74.0938 51.6357C74.0938 51.1299 74.5108 50.7197 75.0098 50.7197C75.5157 50.7197 75.9327 51.1299 75.9327 51.6357C75.9327 52.1484 75.5157 52.5586 75.0098 52.5586ZM79.3438 53.4199V58H78.1134V50.3574H79.296L79.3028 52.21H79.1319C79.5968 50.8018 80.4854 50.2617 81.6407 50.2617C83.1856 50.2617 84.2315 51.2119 84.2315 53.1465V58H82.9942V53.249C82.9942 52.0732 82.338 51.3691 81.2716 51.3691C80.171 51.3691 79.3438 52.1143 79.3438 53.4199ZM89.6114 58.1641C87.3966 58.1641 86.0294 56.5918 86.0294 54.2402C86.0294 51.8955 87.3829 50.2617 89.4678 50.2617C91.088 50.2617 92.797 51.2598 92.797 54.083V54.5957H86.8634V53.5566H92.1339L91.5596 53.9395C91.5596 52.4355 90.8487 51.3555 89.4678 51.3555C88.087 51.3555 87.2735 52.4971 87.2735 53.7412V54.4316C87.2735 56.1338 88.2169 57.0703 89.6182 57.0703C90.5206 57.0703 91.1973 56.6738 91.4845 55.8945L92.6739 56.2227C92.3184 57.3779 91.1768 58.1641 89.6114 58.1641ZM96.0167 58L93.6993 50.3574H95.005L95.9346 53.6934C96.1876 54.6025 96.4884 55.7441 96.7755 57.2002H96.5636C96.837 55.8057 97.1241 54.6641 97.3907 53.6934L98.3067 50.3574H99.6192L100.522 53.6934C100.774 54.6299 101.062 55.7715 101.335 57.2002H101.116C101.403 55.7852 101.697 54.6504 101.964 53.6934L102.894 50.3574H104.199L101.882 58H100.658L99.6671 54.541C99.3663 53.4951 99.0928 52.3672 98.8126 51.1777H99.086C98.8126 52.3535 98.5255 53.5156 98.2315 54.541L97.2403 58H96.0167ZM111.063 58V59.1348H104.678V58H111.063ZM112.621 60.8574V50.3574H113.811V51.5811H113.947C114.2 51.1777 114.672 50.2617 116.162 50.2617C118.069 50.2617 119.402 51.7793 119.402 54.1992C119.402 56.6328 118.076 58.1641 116.169 58.1641C114.713 58.1641 114.2 57.2412 113.947 56.8174H113.852V60.8574H112.621ZM115.984 57.0635C117.413 57.0635 118.151 55.792 118.151 54.1855C118.151 52.5996 117.434 51.3623 115.984 51.3623C114.576 51.3623 113.838 52.4971 113.838 54.1855C113.838 55.8877 114.597 57.0635 115.984 57.0635ZM123.47 58.1777C122.021 58.1777 120.865 57.3301 120.865 55.8262C120.865 54.0762 122.424 53.7549 123.839 53.5771C125.199 53.4062 125.801 53.4473 125.801 52.8799V52.8389C125.801 51.8887 125.261 51.3418 124.201 51.3418C123.101 51.3418 122.506 51.9297 122.267 52.4629L121.084 52.0732C121.672 50.6855 122.984 50.2617 124.167 50.2617C125.192 50.2617 127.031 50.5762 127.031 52.9619V58H125.821V56.9609H125.739C125.48 57.501 124.762 58.1777 123.47 58.1777ZM123.682 57.0908C125.042 57.0908 125.801 56.1748 125.801 55.2383V54.1787C125.596 54.418 124.256 54.5547 123.784 54.6162C122.889 54.7324 122.103 55.0195 122.103 55.8877C122.103 56.6807 122.766 57.0908 123.682 57.0908ZM132.288 61.0215C130.593 61.0215 129.615 60.3037 129.144 59.4629L130.142 58.8203C130.463 59.2646 130.941 59.9482 132.288 59.9482C133.505 59.9482 134.387 59.3877 134.387 58.1299V56.5986H134.271C134.011 57.0361 133.525 57.877 132.049 57.877C130.217 57.877 128.822 56.5439 128.822 54.1445C128.822 51.7793 130.169 50.2617 132.076 50.2617C133.553 50.2617 134.045 51.1709 134.305 51.5811H134.421V50.3574H135.617V58.1982C135.617 60.1738 134.148 61.0215 132.288 61.0215ZM132.254 56.7832C133.642 56.7832 134.4 55.7852 134.4 54.1172C134.4 52.4971 133.662 51.3623 132.254 51.3623C130.798 51.3623 130.073 52.5928 130.073 54.1172C130.073 55.6895 130.818 56.7832 132.254 56.7832ZM140.99 58.1641C138.775 58.1641 137.408 56.5918 137.408 54.2402C137.408 51.8955 138.762 50.2617 140.847 50.2617C142.467 50.2617 144.176 51.2598 144.176 54.083V54.5957H138.242V53.5566H143.513L142.939 53.9395C142.939 52.4355 142.228 51.3555 140.847 51.3555C139.466 51.3555 138.652 52.4971 138.652 53.7412V54.4316C138.652 56.1338 139.596 57.0703 140.997 57.0703C141.899 57.0703 142.576 56.6738 142.863 55.8945L144.053 56.2227C143.697 57.3779 142.556 58.1641 140.99 58.1641ZM148.537 58.1641C146.965 58.1641 145.871 57.4668 145.598 56.1475L146.767 55.8672C146.985 56.708 147.607 57.084 148.524 57.084C149.59 57.084 150.274 56.5576 150.274 55.9287C150.274 55.4023 149.904 55.0537 149.152 54.876L147.881 54.5752C146.493 54.2471 145.83 53.5635 145.83 52.4902C145.83 51.1777 147.033 50.2617 148.66 50.2617C150.232 50.2617 151.06 51.0273 151.408 52.1006L150.294 52.3877C150.082 51.8408 149.651 51.3076 148.667 51.3076C147.758 51.3076 147.074 51.7793 147.074 52.415C147.074 52.9824 147.464 53.2969 148.359 53.5088L149.515 53.7822C150.902 54.1104 151.552 54.8008 151.552 55.8467C151.552 57.1865 150.328 58.1641 148.537 58.1641ZM158.641 58V59.1348H152.256V58H158.641ZM162.312 58.0957C160.767 58.0957 159.721 57.1455 159.721 55.2109V50.3574H160.951V55.1084C160.951 56.2842 161.614 56.9883 162.681 56.9883C163.774 56.9883 164.602 56.2432 164.602 54.9375V50.3574H165.839V58H164.649V56.1475H164.814C164.342 57.583 163.433 58.0957 162.312 58.0957ZM168.006 58V50.3574H169.236V58H168.006ZM168.628 49.1064C168.163 49.1064 167.774 48.7441 167.774 48.293C167.774 47.8418 168.163 47.4795 168.628 47.4795C169.1 47.4795 169.489 47.8418 169.489 48.293C169.489 48.7441 169.1 49.1064 168.628 49.1064Z" fill="#333238"/>
<rect width="326" height="48" transform="translate(17 71)" fill="white"/>
<path fill-rule="evenodd" clip-rule="evenodd" d="M52.0001 89.5H58.0001C58.2762 89.5 58.5001 89.7239 58.5001 90V100C58.5001 100.276 58.2762 100.5 58.0001 100.5H52.0001C51.7239 100.5 51.5001 100.276 51.5001 100V90C51.5001 89.7239 51.7239 89.5 52.0001 89.5ZM50.0001 90C50.0001 88.8954 50.8955 88 52.0001 88H58.0001C58.9879 88 59.8085 88.7162 59.9709 89.6576L62.8833 91.1737C63.7406 91.62 64.0738 92.6768 63.6275 93.5341L59.7489 100.985C59.7214 101.038 59.6884 101.086 59.6511 101.129C59.2907 101.655 58.6857 102 58.0001 102H52.0001C50.8955 102 50.0001 101.105 50.0001 100V90ZM60.0001 97.2537L62.297 92.8414C62.3607 92.719 62.3131 92.568 62.1907 92.5042L60.0001 91.3639V97.2537Z" fill="#737278"/>
<path d="M73.6905 90.1816V88.5615L77.963 81.8145H79.3507V84.0908H78.5167L75.7686 88.4385V88.5205H81.8116V90.1816H73.6905ZM78.5645 92V89.6895L78.5987 88.9648V81.8145H80.5401V92H78.5645ZM87.1231 92.1367C85.0655 92.1367 83.1036 90.8857 83.1036 87.1602C83.1036 83.7285 84.71 81.6777 87.2052 81.6777C89.1944 81.6777 90.5753 82.9561 90.7872 84.6309H88.7569C88.586 83.9062 88.0186 83.4551 87.2052 83.4551C85.8516 83.4551 85.127 84.7061 85.127 86.7363H85.1954C85.6602 85.8408 86.6378 85.3076 87.752 85.3076C89.5499 85.3076 90.8897 86.6885 90.8897 88.6025C90.8897 90.6602 89.3653 92.1367 87.1231 92.1367ZM87.1095 90.5029C88.128 90.5029 88.8936 89.7031 88.8936 88.6572C88.8936 87.625 88.1485 86.8252 87.1231 86.8252C86.1182 86.8252 85.3389 87.6592 85.3389 88.6641C85.3389 89.6758 86.0909 90.5029 87.1095 90.5029ZM95.8663 92.1367C93.795 92.1367 92.3731 90.9541 92.3731 89.293C92.3731 88.0078 93.2208 86.9141 94.3624 86.709V86.6543C93.3712 86.4014 92.7423 85.4648 92.7423 84.3848C92.7423 82.833 94.0548 81.6777 95.8663 81.6777C97.6505 81.6777 98.9835 82.833 98.9835 84.3848C98.9835 85.4648 98.3409 86.4014 97.377 86.6543V86.709C98.4845 86.9141 99.3663 88.0078 99.3663 89.293C99.3663 90.9541 97.9171 92.1367 95.8663 92.1367ZM95.8663 91.0088C97.213 91.0088 98.0675 90.3047 98.0675 89.2246C98.0675 88.0967 97.1241 87.29 95.8663 87.29C94.5811 87.29 93.6514 88.0967 93.6514 89.2246C93.6514 90.3047 94.4923 91.0088 95.8663 91.0088ZM95.8663 86.2031C96.9395 86.2031 97.7257 85.5127 97.7257 84.4805C97.7257 83.4619 96.9737 82.7988 95.8663 82.7988C94.7384 82.7988 94.0001 83.4619 94.0001 84.4805C94.0001 85.5127 94.7657 86.2031 95.8663 86.2031ZM104.623 92.1367C102.921 92.1367 101.041 91.0498 101.041 87.2969C101.041 83.7148 102.47 81.6777 104.78 81.6777C106.489 81.6777 107.727 82.7783 107.973 84.3779H106.701C106.476 83.4961 105.84 82.8262 104.78 82.8262C103.215 82.8262 102.272 84.248 102.272 86.6953H102.354C102.9 85.8477 103.803 85.3418 104.862 85.3418C106.606 85.3418 108.055 86.7432 108.055 88.7119C108.055 90.6123 106.701 92.1367 104.623 92.1367ZM104.623 90.9951C105.847 90.9951 106.797 89.9834 106.797 88.7119C106.797 87.4678 105.888 86.4697 104.657 86.4697C103.42 86.4697 102.456 87.5361 102.456 88.7256C102.456 89.9287 103.372 90.9951 104.623 90.9951ZM113.011 92.1367C111.281 92.1367 110.044 91.0361 109.805 89.4092H111.09C111.302 90.3115 111.938 90.9883 113.011 90.9883C114.563 90.9883 115.52 89.5732 115.52 87.1055H115.438C114.891 87.9395 113.995 88.4658 112.929 88.4658C111.172 88.4658 109.723 87.0576 109.723 85.0957C109.723 83.1953 111.09 81.6436 113.182 81.6777C114.857 81.7051 116.736 82.7578 116.736 86.5039C116.736 90.1064 115.315 92.1367 113.011 92.1367ZM113.12 87.3311C114.357 87.3311 115.335 86.2578 115.335 85.0615C115.335 83.8926 114.412 82.8193 113.161 82.8193C111.931 82.8193 110.994 83.8311 110.994 85.0889C110.994 86.3398 111.89 87.3311 113.12 87.3311ZM122.096 92.1367C120.1 92.1367 118.678 91.043 118.609 89.4297H119.922C119.997 90.4004 120.913 90.9951 122.075 90.9951C123.354 90.9951 124.283 90.2773 124.283 89.2178C124.283 88.1172 123.429 87.3447 121.918 87.3447H121.091V86.2168H121.918C123.107 86.2168 123.928 85.5332 123.928 84.4805C123.928 83.4688 123.217 82.8057 122.109 82.8057C121.07 82.8057 120.12 83.3867 120.079 84.3779H118.828C118.883 82.7783 120.346 81.6777 122.137 81.6777C124.037 81.6777 125.199 82.9629 125.199 84.4121C125.199 85.5605 124.55 86.4014 123.511 86.709V86.791C124.81 87.0029 125.568 87.9463 125.568 89.2314C125.568 90.8994 124.092 92.1367 122.096 92.1367ZM134.899 92H132.439V90.8516H134.817C137.299 90.8516 138.502 89.3613 138.502 86.8867C138.502 84.4395 137.299 82.9629 134.941 82.9629H132.384V81.8145H135.029C138.003 81.8145 139.76 83.7285 139.76 86.8867C139.76 90.0723 138.003 92 134.899 92ZM133.02 81.8145V92H131.721V81.8145H133.02ZM141.674 92V84.3574H142.863V85.5332H142.945C143.226 84.7607 144.019 84.248 144.928 84.248C145.106 84.248 145.406 84.2617 145.55 84.2686V85.5059C145.475 85.4922 145.14 85.4375 144.812 85.4375C143.711 85.4375 142.904 86.1826 142.904 87.2148V92H141.674ZM149.091 92.1777C147.642 92.1777 146.486 91.3301 146.486 89.8262C146.486 88.0762 148.045 87.7549 149.46 87.5771C150.82 87.4062 151.422 87.4473 151.422 86.8799V86.8389C151.422 85.8887 150.882 85.3418 149.822 85.3418C148.722 85.3418 148.127 85.9297 147.888 86.4629L146.705 86.0732C147.293 84.6855 148.606 84.2617 149.788 84.2617C150.814 84.2617 152.652 84.5762 152.652 86.9619V92H151.442V90.9609H151.36C151.101 91.501 150.383 92.1777 149.091 92.1777ZM149.303 91.0908C150.663 91.0908 151.422 90.1748 151.422 89.2383V88.1787C151.217 88.418 149.877 88.5547 149.405 88.6162C148.51 88.7324 147.724 89.0195 147.724 89.8877C147.724 90.6807 148.387 91.0908 149.303 91.0908ZM158.367 84.3574V85.4102H153.869V84.3574H158.367ZM155.373 92V83.3389C155.373 82.0127 156.433 81.3359 157.547 81.3359C158.128 81.3359 158.511 81.459 158.695 81.541L158.354 82.5938C158.224 82.5527 158.032 82.4775 157.691 82.4775C156.932 82.4775 156.604 82.874 156.604 83.6123V92H155.373ZM162.524 84.3574V85.4102H158.572V84.3574H162.524ZM159.721 82.5391H160.951V90.0176C160.951 90.7012 161.204 91.002 161.854 91.002C162.011 91.002 162.277 90.9609 162.482 90.9199L162.735 91.959C162.482 92.0479 162.134 92.0957 161.819 92.0957C160.5 92.0957 159.721 91.3643 159.721 90.1133V82.5391ZM171.055 92L167.309 81.8145H168.676L170.829 87.8574C171.075 88.5479 171.444 89.6895 171.937 91.3848H171.684C172.176 89.6416 172.538 88.5479 172.777 87.8574L174.876 81.8145H176.257L172.552 92H171.055ZM181.11 92.1777C178.902 92.1777 177.528 91.043 177.412 89.334H178.745C178.848 90.4893 179.914 91.0156 181.11 91.0156C182.491 91.0156 183.544 90.291 183.544 89.2041C183.544 88.2197 182.614 87.8574 181.527 87.5498L180.297 87.2012C178.656 86.7363 177.699 85.8955 177.699 84.542C177.699 82.8193 179.231 81.6777 181.199 81.6777C183.209 81.6777 184.61 82.8467 184.672 84.3848H183.4C183.284 83.3936 182.368 82.8262 181.158 82.8262C179.839 82.8262 178.964 83.5234 178.964 84.4805C178.964 85.5469 180.16 85.9229 180.905 86.1279L181.924 86.4082C183.018 86.709 184.809 87.3242 184.809 89.2246C184.809 90.8926 183.462 92.1777 181.11 92.1777ZM185.957 92L189.655 81.8145H191.159L194.905 92H193.538L191.378 85.957C191.111 85.2119 190.776 84.1523 190.277 82.4229H190.524C190.031 84.1729 189.676 85.2666 189.437 85.957L187.338 92H185.957ZM187.816 89.1562V88.0215H193.046V89.1562H187.816ZM197.277 90.5781C196.772 90.5781 196.361 90.1611 196.361 89.6553C196.361 89.1494 196.778 88.7393 197.277 88.7393C197.783 88.7393 198.2 89.1494 198.2 89.6553C198.2 90.168 197.783 90.5781 197.277 90.5781ZM197.277 85.0479C196.772 85.0479 196.361 84.6309 196.361 84.125C196.361 83.6191 196.778 83.209 197.277 83.209C197.783 83.209 198.2 83.6191 198.2 84.125C198.2 84.6377 197.783 85.0479 197.277 85.0479ZM206.458 92.1777C205.009 92.1777 203.854 91.3301 203.854 89.8262C203.854 88.0762 205.412 87.7549 206.827 87.5771C208.188 87.4062 208.789 87.4473 208.789 86.8799V86.8389C208.789 85.8887 208.249 85.3418 207.19 85.3418C206.089 85.3418 205.494 85.9297 205.255 86.4629L204.072 86.0732C204.66 84.6855 205.973 84.2617 207.155 84.2617C208.181 84.2617 210.02 84.5762 210.02 86.9619V92H208.81V90.9609H208.728C208.468 91.501 207.75 92.1777 206.458 92.1777ZM206.67 91.0908C208.03 91.0908 208.789 90.1748 208.789 89.2383V88.1787C208.584 88.418 207.244 88.5547 206.773 88.6162C205.877 88.7324 205.091 89.0195 205.091 89.8877C205.091 90.6807 205.754 91.0908 206.67 91.0908ZM215.044 92.1641C213.137 92.1641 211.811 90.6328 211.811 88.1992C211.811 85.7793 213.144 84.2617 215.051 84.2617C216.541 84.2617 217.013 85.1777 217.266 85.5811H217.361V81.8145H218.592V92H217.402V90.8174H217.266C217.013 91.2412 216.5 92.1641 215.044 92.1641ZM215.229 91.0635C216.616 91.0635 217.375 89.8877 217.375 88.1855C217.375 86.4971 216.637 85.3623 215.229 85.3623C213.779 85.3623 213.062 86.5996 213.062 88.1855C213.062 89.792 213.8 91.0635 215.229 91.0635ZM223.616 92.1641C221.709 92.1641 220.383 90.6328 220.383 88.1992C220.383 85.7793 221.716 84.2617 223.623 84.2617C225.113 84.2617 225.585 85.1777 225.838 85.5811H225.934V81.8145H227.164V92H225.975V90.8174H225.838C225.585 91.2412 225.072 92.1641 223.616 92.1641ZM223.801 91.0635C225.189 91.0635 225.947 89.8877 225.947 88.1855C225.947 86.4971 225.209 85.3623 223.801 85.3623C222.352 85.3623 221.634 86.5996 221.634 88.1855C221.634 89.792 222.372 91.0635 223.801 91.0635ZM74.627 108V99.3389C74.627 98.0127 75.6866 97.3359 76.8009 97.3359C77.047 97.3359 77.2657 97.3564 77.4434 97.3906L77.2589 98.5049C77.17 98.4844 77.0675 98.4775 76.9444 98.4775C76.1856 98.4775 75.8575 98.874 75.8575 99.6123V108H74.627ZM73.1368 101.41V100.357H79.1934V101.41H73.1368ZM78.7833 108V100.357H80.0137V108H78.7833ZM79.4053 99.1064C78.9405 99.1064 78.5509 98.7441 78.5509 98.293C78.5509 97.8418 78.9405 97.4795 79.4053 97.4795C79.877 97.4795 80.2667 97.8418 80.2667 98.293C80.2667 98.7441 79.877 99.1064 79.4053 99.1064ZM83.8897 108.055C82.7413 108.055 82.1739 107.412 82.1739 106.305V97.8145H83.4044V105.997C83.4044 106.701 83.5274 106.954 84.0401 106.954C84.3067 106.954 84.4161 106.934 84.5323 106.899L84.7784 107.938C84.5596 108 84.2178 108.055 83.8897 108.055ZM88.6954 100.357V101.41H84.7442V100.357H88.6954ZM85.8927 98.5391H87.1231V106.018C87.1231 106.701 87.3761 107.002 88.0255 107.002C88.1827 107.002 88.4493 106.961 88.6544 106.92L88.9073 107.959C88.6544 108.048 88.3057 108.096 87.9913 108.096C86.672 108.096 85.8927 107.364 85.8927 106.113V98.5391ZM93.3438 108.164C91.129 108.164 89.7618 106.592 89.7618 104.24C89.7618 101.896 91.1153 100.262 93.2003 100.262C94.8204 100.262 96.5294 101.26 96.5294 104.083V104.596H90.5958V103.557H95.8663L95.2921 103.939C95.2921 102.436 94.5811 101.355 93.2003 101.355C91.8194 101.355 91.0059 102.497 91.0059 103.741V104.432C91.0059 106.134 91.9493 107.07 93.3507 107.07C94.253 107.07 94.9298 106.674 95.2169 105.895L96.4063 106.223C96.0509 107.378 94.9093 108.164 93.3438 108.164ZM98.293 108V100.357H99.4825V101.533H99.5645C99.8448 100.761 100.638 100.248 101.547 100.248C101.725 100.248 102.025 100.262 102.169 100.269V101.506C102.094 101.492 101.759 101.438 101.431 101.438C100.33 101.438 99.5235 102.183 99.5235 103.215V108H98.293ZM108.875 108V109.135H102.49V108H108.875ZM113.982 108.164C112.525 108.164 112.013 107.241 111.76 106.817H111.623V108H110.434V97.8145H111.664V101.581H111.76C112.013 101.178 112.484 100.262 113.975 100.262C115.882 100.262 117.215 101.779 117.215 104.199C117.215 106.633 115.889 108.164 113.982 108.164ZM113.797 107.063C115.226 107.063 115.964 105.792 115.964 104.186C115.964 102.6 115.246 101.362 113.797 101.362C112.389 101.362 111.65 102.497 111.65 104.186C111.65 105.888 112.409 107.063 113.797 107.063ZM118.609 110.769L118.924 109.702L119.054 109.736C119.806 109.935 120.346 109.771 120.722 108.677L120.941 108.041L118.022 100.357H119.368L120.995 104.89C121.337 105.84 121.542 106.776 121.809 107.651H121.357C121.617 106.776 121.829 105.833 122.171 104.89L123.812 100.357H125.151L121.795 109.142C121.33 110.358 120.592 110.912 119.512 110.912C119.074 110.912 118.739 110.83 118.609 110.769ZM130.805 108V109.135H124.42V108H130.805ZM134.982 111.021C133.286 111.021 132.309 110.304 131.837 109.463L132.835 108.82C133.156 109.265 133.635 109.948 134.982 109.948C136.198 109.948 137.08 109.388 137.08 108.13V106.599H136.964C136.704 107.036 136.219 107.877 134.742 107.877C132.91 107.877 131.516 106.544 131.516 104.145C131.516 101.779 132.862 100.262 134.77 100.262C136.246 100.262 136.738 101.171 136.998 101.581H137.114V100.357H138.311V108.198C138.311 110.174 136.841 111.021 134.982 111.021ZM134.947 106.783C136.335 106.783 137.094 105.785 137.094 104.117C137.094 102.497 136.356 101.362 134.947 101.362C133.491 101.362 132.767 102.593 132.767 104.117C132.767 105.689 133.512 106.783 134.947 106.783ZM140.471 108V100.357H141.66V101.533H141.742C142.023 100.761 142.816 100.248 143.725 100.248C143.902 100.248 144.203 100.262 144.347 100.269V101.506C144.272 101.492 143.937 101.438 143.608 101.438C142.508 101.438 141.701 102.183 141.701 103.215V108H140.471ZM148.626 108.164C146.548 108.164 145.147 106.585 145.147 104.227C145.147 101.834 146.548 100.262 148.626 100.262C150.711 100.262 152.119 101.834 152.119 104.227C152.119 106.585 150.711 108.164 148.626 108.164ZM148.626 107.063C150.171 107.063 150.875 105.73 150.875 104.227C150.875 102.709 150.171 101.362 148.626 101.362C147.102 101.362 146.398 102.702 146.398 104.227C146.398 105.73 147.102 107.063 148.626 107.063ZM156.501 108.096C154.956 108.096 153.91 107.146 153.91 105.211V100.357H155.141V105.108C155.141 106.284 155.804 106.988 156.87 106.988C157.964 106.988 158.791 106.243 158.791 104.938V100.357H160.028V108H158.839V106.147H159.003C158.531 107.583 157.622 108.096 156.501 108.096ZM162.195 110.857V100.357H163.385V101.581H163.522C163.774 101.178 164.246 100.262 165.736 100.262C167.644 100.262 168.977 101.779 168.977 104.199C168.977 106.633 167.65 108.164 165.743 108.164C164.287 108.164 163.774 107.241 163.522 106.817H163.426V110.857H162.195ZM165.559 107.063C166.987 107.063 167.726 105.792 167.726 104.186C167.726 102.6 167.008 101.362 165.559 101.362C164.15 101.362 163.412 102.497 163.412 104.186C163.412 105.888 164.171 107.063 165.559 107.063ZM176.072 108V109.135H169.688V108H176.072ZM177.631 108V100.357H178.827L178.834 102.066H178.738C179.046 100.829 179.982 100.221 180.974 100.221C182.081 100.221 182.785 100.973 182.99 102.08H182.826C183.1 100.938 184.111 100.221 185.328 100.221C186.654 100.221 187.734 101.075 187.734 102.846V108H186.497V102.88C186.497 101.779 185.779 101.342 184.959 101.342C183.927 101.342 183.298 102.046 183.298 103.01V108H182.067V102.757C182.067 101.909 181.432 101.342 180.57 101.342C179.675 101.342 178.861 101.971 178.861 103.188V108H177.631ZM193.107 108.164C190.893 108.164 189.525 106.592 189.525 104.24C189.525 101.896 190.879 100.262 192.964 100.262C194.584 100.262 196.293 101.26 196.293 104.083V104.596H190.359V103.557H195.63L195.056 103.939C195.056 102.436 194.345 101.355 192.964 101.355C191.583 101.355 190.77 102.497 190.77 103.741V104.432C190.77 106.134 191.713 107.07 193.114 107.07C194.017 107.07 194.693 106.674 194.981 105.895L196.17 106.223C195.815 107.378 194.673 108.164 193.107 108.164ZM198.057 108V100.357H199.253L199.26 102.066H199.164C199.472 100.829 200.408 100.221 201.399 100.221C202.507 100.221 203.211 100.973 203.416 102.08H203.252C203.525 100.938 204.537 100.221 205.754 100.221C207.08 100.221 208.16 101.075 208.16 102.846V108H206.923V102.88C206.923 101.779 206.205 101.342 205.385 101.342C204.353 101.342 203.724 102.046 203.724 103.01V108H202.493V102.757C202.493 101.909 201.857 101.342 200.996 101.342C200.101 101.342 199.287 101.971 199.287 103.188V108H198.057ZM213.868 108.164C212.412 108.164 211.899 107.241 211.647 106.817H211.51V108H210.32V97.8145H211.551V101.581H211.647C211.899 101.178 212.371 100.262 213.861 100.262C215.769 100.262 217.102 101.779 217.102 104.199C217.102 106.633 215.775 108.164 213.868 108.164ZM213.684 107.063C215.112 107.063 215.851 105.792 215.851 104.186C215.851 102.6 215.133 101.362 213.684 101.362C212.275 101.362 211.537 102.497 211.537 104.186C211.537 105.888 212.296 107.063 213.684 107.063ZM222.106 108.164C219.891 108.164 218.524 106.592 218.524 104.24C218.524 101.896 219.877 100.262 221.962 100.262C223.582 100.262 225.291 101.26 225.291 104.083V104.596H219.357V103.557H224.628L224.054 103.939C224.054 102.436 223.343 101.355 221.962 101.355C220.581 101.355 219.768 102.497 219.768 103.741V104.432C219.768 106.134 220.711 107.07 222.112 107.07C223.015 107.07 223.691 106.674 223.979 105.895L225.168 106.223C224.813 107.378 223.671 108.164 222.106 108.164ZM227.055 108V100.357H228.244V101.533H228.326C228.607 100.761 229.399 100.248 230.309 100.248C230.486 100.248 230.787 100.262 230.931 100.269V101.506C230.856 101.492 230.521 101.438 230.192 101.438C229.092 101.438 228.285 102.183 228.285 103.215V108H227.055ZM234.93 108.164C233.357 108.164 232.264 107.467 231.99 106.147L233.159 105.867C233.378 106.708 234 107.084 234.916 107.084C235.982 107.084 236.666 106.558 236.666 105.929C236.666 105.402 236.297 105.054 235.545 104.876L234.274 104.575C232.886 104.247 232.223 103.563 232.223 102.49C232.223 101.178 233.426 100.262 235.053 100.262C236.625 100.262 237.452 101.027 237.801 102.101L236.687 102.388C236.475 101.841 236.044 101.308 235.06 101.308C234.15 101.308 233.467 101.779 233.467 102.415C233.467 102.982 233.857 103.297 234.752 103.509L235.907 103.782C237.295 104.11 237.944 104.801 237.944 105.847C237.944 107.187 236.721 108.164 234.93 108.164Z" fill="#333238"/>
<rect width="326" height="48" transform="translate(17 121)" fill="white"/>
<path fill-rule="evenodd" clip-rule="evenodd" d="M52.0001 139.5H58.0001C58.2762 139.5 58.5001 139.724 58.5001 140V150C58.5001 150.276 58.2762 150.5 58.0001 150.5H52.0001C51.7239 150.5 51.5001 150.276 51.5001 150V140C51.5001 139.724 51.7239 139.5 52.0001 139.5ZM50.0001 140C50.0001 138.895 50.8955 138 52.0001 138H58.0001C58.9879 138 59.8085 138.716 59.9709 139.658L62.8833 141.174C63.7406 141.62 64.0738 142.677 63.6275 143.534L59.7489 150.985C59.7214 151.038 59.6884 151.086 59.6511 151.129C59.2907 151.655 58.6857 152 58.0001 152H52.0001C50.8955 152 50.0001 151.105 50.0001 150V140ZM60.0001 147.254L62.297 142.841C62.3607 142.719 62.3131 142.568 62.1907 142.504L60.0001 141.364V147.254Z" fill="#737278"/>
<path d="M73.6905 140.182V138.562L77.963 131.814H79.3507V134.091H78.5167L75.7686 138.438V138.521H81.8116V140.182H73.6905ZM78.5645 142V139.689L78.5987 138.965V131.814H80.5401V142H78.5645ZM87.1231 142.137C85.0655 142.137 83.1036 140.886 83.1036 137.16C83.1036 133.729 84.71 131.678 87.2052 131.678C89.1944 131.678 90.5753 132.956 90.7872 134.631H88.7569C88.586 133.906 88.0186 133.455 87.2052 133.455C85.8516 133.455 85.127 134.706 85.127 136.736H85.1954C85.6602 135.841 86.6378 135.308 87.752 135.308C89.5499 135.308 90.8897 136.688 90.8897 138.603C90.8897 140.66 89.3653 142.137 87.1231 142.137ZM87.1095 140.503C88.128 140.503 88.8936 139.703 88.8936 138.657C88.8936 137.625 88.1485 136.825 87.1231 136.825C86.1182 136.825 85.3389 137.659 85.3389 138.664C85.3389 139.676 86.0909 140.503 87.1095 140.503ZM95.8663 142.137C93.795 142.137 92.3731 140.954 92.3731 139.293C92.3731 138.008 93.2208 136.914 94.3624 136.709V136.654C93.3712 136.401 92.7423 135.465 92.7423 134.385C92.7423 132.833 94.0548 131.678 95.8663 131.678C97.6505 131.678 98.9835 132.833 98.9835 134.385C98.9835 135.465 98.3409 136.401 97.377 136.654V136.709C98.4845 136.914 99.3663 138.008 99.3663 139.293C99.3663 140.954 97.9171 142.137 95.8663 142.137ZM95.8663 141.009C97.213 141.009 98.0675 140.305 98.0675 139.225C98.0675 138.097 97.1241 137.29 95.8663 137.29C94.5811 137.29 93.6514 138.097 93.6514 139.225C93.6514 140.305 94.4923 141.009 95.8663 141.009ZM95.8663 136.203C96.9395 136.203 97.7257 135.513 97.7257 134.48C97.7257 133.462 96.9737 132.799 95.8663 132.799C94.7384 132.799 94.0001 133.462 94.0001 134.48C94.0001 135.513 94.7657 136.203 95.8663 136.203ZM104.623 142.137C102.921 142.137 101.041 141.05 101.041 137.297C101.041 133.715 102.47 131.678 104.78 131.678C106.489 131.678 107.727 132.778 107.973 134.378H106.701C106.476 133.496 105.84 132.826 104.78 132.826C103.215 132.826 102.272 134.248 102.272 136.695H102.354C102.9 135.848 103.803 135.342 104.862 135.342C106.606 135.342 108.055 136.743 108.055 138.712C108.055 140.612 106.701 142.137 104.623 142.137ZM104.623 140.995C105.847 140.995 106.797 139.983 106.797 138.712C106.797 137.468 105.888 136.47 104.657 136.47C103.42 136.47 102.456 137.536 102.456 138.726C102.456 139.929 103.372 140.995 104.623 140.995ZM113.011 142.137C111.281 142.137 110.044 141.036 109.805 139.409H111.09C111.302 140.312 111.938 140.988 113.011 140.988C114.563 140.988 115.52 139.573 115.52 137.105H115.438C114.891 137.939 113.995 138.466 112.929 138.466C111.172 138.466 109.723 137.058 109.723 135.096C109.723 133.195 111.09 131.644 113.182 131.678C114.857 131.705 116.736 132.758 116.736 136.504C116.736 140.106 115.315 142.137 113.011 142.137ZM113.12 137.331C114.357 137.331 115.335 136.258 115.335 135.062C115.335 133.893 114.412 132.819 113.161 132.819C111.931 132.819 110.994 133.831 110.994 135.089C110.994 136.34 111.89 137.331 113.12 137.331ZM118.623 142V141.063L122.007 137.393C123.135 136.169 123.709 135.472 123.709 134.535C123.709 133.469 122.882 132.806 121.795 132.806C120.633 132.806 119.895 133.558 119.895 134.706H118.65C118.65 132.901 120.018 131.678 121.829 131.678C123.648 131.678 124.94 132.929 124.94 134.521C124.94 135.622 124.441 136.49 122.643 138.404L120.414 140.776V140.858H125.11V142H118.623ZM130.408 142L134.107 131.814H135.61L139.357 142H137.989L135.829 135.957C135.563 135.212 135.228 134.152 134.729 132.423H134.975C134.482 134.173 134.127 135.267 133.888 135.957L131.789 142H130.408ZM132.268 139.156V138.021H137.497V139.156H132.268ZM140.799 144.857V134.357H141.988V135.581H142.125C142.378 135.178 142.85 134.262 144.34 134.262C146.247 134.262 147.58 135.779 147.58 138.199C147.58 140.633 146.254 142.164 144.347 142.164C142.891 142.164 142.378 141.241 142.125 140.817H142.029V144.857H140.799ZM144.162 141.063C145.591 141.063 146.329 139.792 146.329 138.186C146.329 136.6 145.611 135.362 144.162 135.362C142.754 135.362 142.016 136.497 142.016 138.186C142.016 139.888 142.774 141.063 144.162 141.063ZM149.371 144.857V134.357H150.561V135.581H150.697C150.95 135.178 151.422 134.262 152.912 134.262C154.819 134.262 156.152 135.779 156.152 138.199C156.152 140.633 154.826 142.164 152.919 142.164C151.463 142.164 150.95 141.241 150.697 140.817H150.602V144.857H149.371ZM152.734 141.063C154.163 141.063 154.901 139.792 154.901 138.186C154.901 136.6 154.184 135.362 152.734 135.362C151.326 135.362 150.588 136.497 150.588 138.186C150.588 139.888 151.347 141.063 152.734 141.063ZM161.355 142.178C159.147 142.178 157.773 141.043 157.656 139.334H158.989C159.092 140.489 160.158 141.016 161.355 141.016C162.735 141.016 163.788 140.291 163.788 139.204C163.788 138.22 162.858 137.857 161.772 137.55L160.541 137.201C158.9 136.736 157.943 135.896 157.943 134.542C157.943 132.819 159.475 131.678 161.443 131.678C163.453 131.678 164.855 132.847 164.916 134.385H163.645C163.528 133.394 162.612 132.826 161.402 132.826C160.083 132.826 159.208 133.523 159.208 134.48C159.208 135.547 160.404 135.923 161.149 136.128L162.168 136.408C163.262 136.709 165.053 137.324 165.053 139.225C165.053 140.893 163.706 142.178 161.355 142.178ZM170.139 142.164C167.924 142.164 166.557 140.592 166.557 138.24C166.557 135.896 167.91 134.262 169.995 134.262C171.615 134.262 173.324 135.26 173.324 138.083V138.596H167.391V137.557H172.661L172.087 137.939C172.087 136.436 171.376 135.355 169.995 135.355C168.614 135.355 167.801 136.497 167.801 137.741V138.432C167.801 140.134 168.744 141.07 170.146 141.07C171.048 141.07 171.725 140.674 172.012 139.895L173.201 140.223C172.846 141.378 171.704 142.164 170.139 142.164ZM178.198 142.164C176.12 142.164 174.719 140.585 174.719 138.227C174.719 135.834 176.12 134.262 178.198 134.262C179.675 134.262 180.878 135.041 181.295 136.374L180.112 136.709C179.887 135.923 179.203 135.362 178.198 135.362C176.674 135.362 175.97 136.702 175.97 138.227C175.97 139.73 176.674 141.063 178.198 141.063C179.224 141.063 179.921 140.482 180.147 139.655L181.322 139.99C180.912 141.351 179.695 142.164 178.198 142.164ZM186.613 132.963V131.814H194.311V132.963H191.118V142H189.819V132.963H186.613ZM197.175 142.178C195.726 142.178 194.57 141.33 194.57 139.826C194.57 138.076 196.129 137.755 197.544 137.577C198.904 137.406 199.506 137.447 199.506 136.88V136.839C199.506 135.889 198.966 135.342 197.906 135.342C196.806 135.342 196.211 135.93 195.972 136.463L194.789 136.073C195.377 134.686 196.69 134.262 197.872 134.262C198.898 134.262 200.736 134.576 200.736 136.962V142H199.526V140.961H199.444C199.185 141.501 198.467 142.178 197.175 142.178ZM197.387 141.091C198.747 141.091 199.506 140.175 199.506 139.238V138.179C199.301 138.418 197.961 138.555 197.489 138.616C196.594 138.732 195.808 139.02 195.808 139.888C195.808 140.681 196.471 141.091 197.387 141.091ZM205.494 142.164C203.922 142.164 202.828 141.467 202.555 140.147L203.724 139.867C203.942 140.708 204.565 141.084 205.481 141.084C206.547 141.084 207.231 140.558 207.231 139.929C207.231 139.402 206.861 139.054 206.109 138.876L204.838 138.575C203.45 138.247 202.787 137.563 202.787 136.49C202.787 135.178 203.99 134.262 205.617 134.262C207.19 134.262 208.017 135.027 208.365 136.101L207.251 136.388C207.039 135.841 206.608 135.308 205.624 135.308C204.715 135.308 204.031 135.779 204.031 136.415C204.031 136.982 204.421 137.297 205.316 137.509L206.472 137.782C207.859 138.11 208.509 138.801 208.509 139.847C208.509 141.187 207.285 142.164 205.494 142.164ZM211.448 139.252V137.728H211.674L214.941 134.357H216.466L212.932 137.987H212.795L211.448 139.252ZM210.293 142V131.814H211.524V142H210.293ZM215.126 142L212.2 138.261L213.075 137.393L216.705 142H215.126ZM223.363 131.814V142H222.065V131.814H223.363ZM228.272 142.164C226.699 142.164 225.606 141.467 225.332 140.147L226.501 139.867C226.72 140.708 227.342 141.084 228.258 141.084C229.324 141.084 230.008 140.558 230.008 139.929C230.008 139.402 229.639 139.054 228.887 138.876L227.615 138.575C226.228 138.247 225.565 137.563 225.565 136.49C225.565 135.178 226.768 134.262 228.395 134.262C229.967 134.262 230.794 135.027 231.143 136.101L230.028 136.388C229.816 135.841 229.386 135.308 228.401 135.308C227.492 135.308 226.809 135.779 226.809 136.415C226.809 136.982 227.198 137.297 228.094 137.509L229.249 137.782C230.637 138.11 231.286 138.801 231.286 139.847C231.286 141.187 230.063 142.164 228.272 142.164ZM235.668 142.164C234.096 142.164 233.002 141.467 232.729 140.147L233.898 139.867C234.116 140.708 234.738 141.084 235.654 141.084C236.721 141.084 237.404 140.558 237.404 139.929C237.404 139.402 237.035 139.054 236.283 138.876L235.012 138.575C233.624 138.247 232.961 137.563 232.961 136.49C232.961 135.178 234.164 134.262 235.791 134.262C237.363 134.262 238.191 135.027 238.539 136.101L237.425 136.388C237.213 135.841 236.782 135.308 235.798 135.308C234.889 135.308 234.205 135.779 234.205 136.415C234.205 136.982 234.595 137.297 235.49 137.509L236.646 137.782C238.033 138.11 238.683 138.801 238.683 139.847C238.683 141.187 237.459 142.164 235.668 142.164ZM243.058 142.096C241.513 142.096 240.467 141.146 240.467 139.211V134.357H241.697V139.108C241.697 140.284 242.36 140.988 243.427 140.988C244.521 140.988 245.348 140.243 245.348 138.938V134.357H246.585V142H245.396V140.147H245.56C245.088 141.583 244.179 142.096 243.058 142.096ZM251.965 142.164C249.75 142.164 248.383 140.592 248.383 138.24C248.383 135.896 249.736 134.262 251.821 134.262C253.441 134.262 255.15 135.26 255.15 138.083V138.596H249.217V137.557H254.487L253.913 137.939C253.913 136.436 253.202 135.355 251.821 135.355C250.441 135.355 249.627 136.497 249.627 137.741V138.432C249.627 140.134 250.57 141.07 251.972 141.07C252.874 141.07 253.551 140.674 253.838 139.895L255.027 140.223C254.672 141.378 253.53 142.164 251.965 142.164ZM264.406 134.357V135.41H259.908V134.357H264.406ZM261.412 142V133.339C261.412 132.013 262.472 131.336 263.586 131.336C264.167 131.336 264.55 131.459 264.734 131.541L264.393 132.594C264.263 132.553 264.071 132.478 263.73 132.478C262.971 132.478 262.643 132.874 262.643 133.612V142H261.412ZM269.007 142.164C266.929 142.164 265.527 140.585 265.527 138.227C265.527 135.834 266.929 134.262 269.007 134.262C271.092 134.262 272.5 135.834 272.5 138.227C272.5 140.585 271.092 142.164 269.007 142.164ZM269.007 141.063C270.552 141.063 271.256 139.73 271.256 138.227C271.256 136.709 270.552 135.362 269.007 135.362C267.482 135.362 266.778 136.702 266.778 138.227C266.778 139.73 267.482 141.063 269.007 141.063ZM274.291 142V134.357H275.481V135.533H275.563C275.843 134.761 276.636 134.248 277.545 134.248C277.723 134.248 278.024 134.262 278.167 134.269V135.506C278.092 135.492 277.757 135.438 277.429 135.438C276.328 135.438 275.522 136.183 275.522 137.215V142H274.291ZM283.656 142V131.814H287.143C289.522 131.814 290.615 133.243 290.615 135.055C290.615 136.873 289.522 138.315 287.149 138.315H284.682V137.174H287.088C288.701 137.174 289.323 136.265 289.323 135.055C289.323 133.852 288.701 132.956 287.074 132.956H284.955V142H283.656ZM294.587 142.178C293.138 142.178 291.982 141.33 291.982 139.826C291.982 138.076 293.541 137.755 294.956 137.577C296.316 137.406 296.918 137.447 296.918 136.88V136.839C296.918 135.889 296.378 135.342 295.318 135.342C294.218 135.342 293.623 135.93 293.384 136.463L292.201 136.073C292.789 134.686 294.102 134.262 295.284 134.262C296.31 134.262 298.149 134.576 298.149 136.962V142H296.939V140.961H296.857C296.597 141.501 295.879 142.178 294.587 142.178ZM294.799 141.091C296.159 141.091 296.918 140.175 296.918 139.238V138.179C296.713 138.418 295.373 138.555 294.901 138.616C294.006 138.732 293.22 139.02 293.22 139.888C293.22 140.681 293.883 141.091 294.799 141.091ZM303.316 134.357V135.41H299.365V134.357H303.316ZM300.514 132.539H301.744V140.018C301.744 140.701 301.997 141.002 302.647 141.002C302.804 141.002 303.07 140.961 303.275 140.92L303.528 141.959C303.275 142.048 302.927 142.096 302.612 142.096C301.293 142.096 300.514 141.364 300.514 140.113V132.539ZM307.862 142.164C305.784 142.164 304.383 140.585 304.383 138.227C304.383 135.834 305.784 134.262 307.862 134.262C309.339 134.262 310.542 135.041 310.959 136.374L309.776 136.709C309.551 135.923 308.867 135.362 307.862 135.362C306.338 135.362 305.634 136.702 305.634 138.227C305.634 139.73 306.338 141.063 307.862 141.063C308.888 141.063 309.585 140.482 309.811 139.655L310.986 139.99C310.576 141.351 309.359 142.164 307.862 142.164ZM313.981 137.42V142H312.75V131.814H313.981V136.21H313.769C314.233 134.802 315.122 134.262 316.277 134.262C317.822 134.262 318.868 135.212 318.868 137.146V142H317.631V137.249C317.631 136.073 316.975 135.369 315.908 135.369C314.808 135.369 313.981 136.114 313.981 137.42ZM74.0802 158V150.357H75.2696V151.533H75.3516C75.6319 150.761 76.4249 150.248 77.3341 150.248C77.5118 150.248 77.8126 150.262 77.9561 150.269V151.506C77.8809 151.492 77.546 151.438 77.2178 151.438C76.1173 151.438 75.3106 152.183 75.3106 153.215V158H74.0802ZM82.338 158.164C80.1231 158.164 78.7559 156.592 78.7559 154.24C78.7559 151.896 80.1095 150.262 82.1944 150.262C83.8145 150.262 85.5235 151.26 85.5235 154.083V154.596H79.5899V153.557H84.8604L84.2862 153.939C84.2862 152.436 83.5753 151.355 82.1944 151.355C80.8136 151.355 80.0001 152.497 80.0001 153.741V154.432C80.0001 156.134 80.9434 157.07 82.3448 157.07C83.2471 157.07 83.9239 156.674 84.211 155.895L85.4005 156.223C85.045 157.378 83.9034 158.164 82.338 158.164ZM89.003 158.055C87.8546 158.055 87.2872 157.412 87.2872 156.305V147.814H88.5177V155.997C88.5177 156.701 88.6407 156.954 89.1534 156.954C89.42 156.954 89.5294 156.934 89.6456 156.899L89.8917 157.938C89.6729 158 89.3311 158.055 89.003 158.055ZM94.1505 158.164C91.9356 158.164 90.5684 156.592 90.5684 154.24C90.5684 151.896 91.922 150.262 94.0069 150.262C95.627 150.262 97.336 151.26 97.336 154.083V154.596H91.4024V153.557H96.6729L96.0987 153.939C96.0987 152.436 95.3878 151.355 94.0069 151.355C92.6261 151.355 91.8126 152.497 91.8126 153.741V154.432C91.8126 156.134 92.7559 157.07 94.1573 157.07C95.0596 157.07 95.7364 156.674 96.0235 155.895L97.213 156.223C96.8575 157.378 95.7159 158.164 94.1505 158.164ZM101.376 158.178C99.9268 158.178 98.7716 157.33 98.7716 155.826C98.7716 154.076 100.33 153.755 101.745 153.577C103.106 153.406 103.707 153.447 103.707 152.88V152.839C103.707 151.889 103.167 151.342 102.107 151.342C101.007 151.342 100.412 151.93 100.173 152.463L98.9903 152.073C99.5782 150.686 100.891 150.262 102.073 150.262C103.099 150.262 104.938 150.576 104.938 152.962V158H103.728V156.961H103.646C103.386 157.501 102.668 158.178 101.376 158.178ZM101.588 157.091C102.948 157.091 103.707 156.175 103.707 155.238V154.179C103.502 154.418 102.162 154.555 101.691 154.616C100.795 154.732 100.009 155.02 100.009 155.888C100.009 156.681 100.672 157.091 101.588 157.091ZM109.695 158.164C108.123 158.164 107.029 157.467 106.756 156.147L107.925 155.867C108.144 156.708 108.766 157.084 109.682 157.084C110.748 157.084 111.432 156.558 111.432 155.929C111.432 155.402 111.063 155.054 110.311 154.876L109.039 154.575C107.651 154.247 106.988 153.563 106.988 152.49C106.988 151.178 108.191 150.262 109.818 150.262C111.391 150.262 112.218 151.027 112.566 152.101L111.452 152.388C111.24 151.841 110.81 151.308 109.825 151.308C108.916 151.308 108.232 151.779 108.232 152.415C108.232 152.982 108.622 153.297 109.518 153.509L110.673 153.782C112.061 154.11 112.71 154.801 112.71 155.847C112.71 157.187 111.486 158.164 109.695 158.164ZM117.707 158.164C115.492 158.164 114.125 156.592 114.125 154.24C114.125 151.896 115.479 150.262 117.564 150.262C119.184 150.262 120.893 151.26 120.893 154.083V154.596H114.959V153.557H120.23L119.655 153.939C119.655 152.436 118.944 151.355 117.564 151.355C116.183 151.355 115.369 152.497 115.369 153.741V154.432C115.369 156.134 116.313 157.07 117.714 157.07C118.616 157.07 119.293 156.674 119.58 155.895L120.77 156.223C120.414 157.378 119.273 158.164 117.707 158.164ZM123.586 158.089C123.08 158.089 122.67 157.672 122.67 157.166C122.67 156.66 123.087 156.25 123.586 156.25C124.092 156.25 124.509 156.66 124.509 157.166C124.509 157.679 124.092 158.089 123.586 158.089ZM123.586 152.559C123.08 152.559 122.67 152.142 122.67 151.636C122.67 151.13 123.087 150.72 123.586 150.72C124.092 150.72 124.509 151.13 124.509 151.636C124.509 152.148 124.092 152.559 123.586 152.559ZM134.011 147.814V158H132.732V149.018H132.664L130.203 150.843V149.448L132.418 147.814H134.011ZM136.615 158L141.141 149.038V148.956H135.918V147.814H142.501V149.024L137.982 158H136.615ZM143.438 158.089C142.932 158.089 142.522 157.672 142.522 157.166C142.522 156.66 142.939 156.25 143.438 156.25C143.943 156.25 144.36 156.66 144.36 157.166C144.36 157.679 143.943 158.089 143.438 158.089ZM148.708 147.814V158H147.43V149.018H147.361L144.9 150.843V149.448L147.115 147.814H148.708ZM151.955 158.089C151.449 158.089 151.039 157.672 151.039 157.166C151.039 156.66 151.456 156.25 151.955 156.25C152.461 156.25 152.878 156.66 152.878 157.166C152.878 157.679 152.461 158.089 151.955 158.089ZM157.226 147.814V158H155.947V149.018H155.879L153.418 150.843V149.448L155.633 147.814H157.226ZM159.338 160.454L159.94 156.578H161.348L160.281 160.454H159.338ZM170.898 147.814V158H169.619V149.018H169.551L167.09 150.843V149.448L169.305 147.814H170.898ZM173.502 158L178.027 149.038V148.956H172.805V147.814H179.388V149.024L174.869 158H173.502ZM180.324 158.089C179.818 158.089 179.408 157.672 179.408 157.166C179.408 156.66 179.825 156.25 180.324 156.25C180.83 156.25 181.247 156.66 181.247 157.166C181.247 157.679 180.83 158.089 180.324 158.089ZM186.408 158.137C184.139 158.137 182.826 156.236 182.826 152.914C182.826 149.612 184.152 147.678 186.408 147.678C188.664 147.678 189.99 149.612 189.99 152.914C189.99 156.229 188.685 158.137 186.408 158.137ZM186.408 157.002C187.899 157.002 188.739 155.498 188.739 152.914C188.739 150.316 187.899 148.806 186.408 148.806C184.918 148.806 184.077 150.323 184.077 152.914C184.077 155.498 184.918 157.002 186.408 157.002ZM192.479 158.089C191.973 158.089 191.563 157.672 191.563 157.166C191.563 156.66 191.98 156.25 192.479 156.25C192.984 156.25 193.401 156.66 193.401 157.166C193.401 157.679 192.984 158.089 192.479 158.089ZM198.645 158.137C196.649 158.137 195.227 157.043 195.158 155.43H196.471C196.546 156.4 197.462 156.995 198.624 156.995C199.902 156.995 200.832 156.277 200.832 155.218C200.832 154.117 199.978 153.345 198.467 153.345H197.64V152.217H198.467C199.656 152.217 200.477 151.533 200.477 150.48C200.477 149.469 199.766 148.806 198.658 148.806C197.619 148.806 196.669 149.387 196.628 150.378H195.377C195.432 148.778 196.895 147.678 198.686 147.678C200.586 147.678 201.748 148.963 201.748 150.412C201.748 151.561 201.099 152.401 200.06 152.709V152.791C201.358 153.003 202.117 153.946 202.117 155.231C202.117 156.899 200.641 158.137 198.645 158.137ZM203.662 160.454L204.264 156.578H205.672L204.606 160.454H203.662ZM215.222 147.814V158H213.943V149.018H213.875L211.414 150.843V149.448L213.629 147.814H215.222ZM220.875 158.137C219.173 158.137 217.293 157.05 217.293 153.297C217.293 149.715 218.722 147.678 221.032 147.678C222.741 147.678 223.979 148.778 224.225 150.378H222.953C222.728 149.496 222.092 148.826 221.032 148.826C219.467 148.826 218.524 150.248 218.524 152.695H218.606C219.152 151.848 220.055 151.342 221.114 151.342C222.857 151.342 224.307 152.743 224.307 154.712C224.307 156.612 222.953 158.137 220.875 158.137ZM220.875 156.995C222.099 156.995 223.049 155.983 223.049 154.712C223.049 153.468 222.14 152.47 220.909 152.47C219.672 152.47 218.708 153.536 218.708 154.726C218.708 155.929 219.624 156.995 220.875 156.995ZM226.672 158.089C226.166 158.089 225.756 157.672 225.756 157.166C225.756 156.66 226.173 156.25 226.672 156.25C227.178 156.25 227.595 156.66 227.595 157.166C227.595 157.679 227.178 158.089 226.672 158.089ZM231.942 147.814V158H230.664V149.018H230.596L228.135 150.843V149.448L230.35 147.814H231.942ZM237.644 147.814V158H236.365V149.018H236.297L233.836 150.843V149.448L236.051 147.814H237.644ZM240.891 158.089C240.385 158.089 239.975 157.672 239.975 157.166C239.975 156.66 240.392 156.25 240.891 156.25C241.397 156.25 241.814 156.66 241.814 157.166C241.814 157.679 241.397 158.089 240.891 158.089ZM246.988 158.137C245.197 158.137 243.857 156.988 243.789 155.43H245.047C245.129 156.339 245.963 156.995 246.988 156.995C248.219 156.995 249.114 156.059 249.114 154.767C249.114 153.454 248.185 152.477 246.906 152.477C246.277 152.477 245.566 152.702 245.163 153.01L243.946 152.859L244.548 147.814H249.907V148.956H245.642L245.293 151.93H245.348C245.765 151.581 246.441 151.335 247.146 151.335C249.012 151.335 250.386 152.777 250.386 154.746C250.386 156.701 248.95 158.137 246.988 158.137Z" fill="#333238"/>
<rect width="326" height="48" transform="translate(17 171)" fill="white"/>
<path fill-rule="evenodd" clip-rule="evenodd" d="M52.0001 189.5H58.0001C58.2762 189.5 58.5001 189.724 58.5001 190V200C58.5001 200.276 58.2762 200.5 58.0001 200.5H52.0001C51.7239 200.5 51.5001 200.276 51.5001 200V190C51.5001 189.724 51.7239 189.5 52.0001 189.5ZM50.0001 190C50.0001 188.895 50.8955 188 52.0001 188H58.0001C58.9879 188 59.8085 188.716 59.9709 189.658L62.8833 191.174C63.7406 191.62 64.0738 192.677 63.6275 193.534L59.7489 200.985C59.7214 201.038 59.6884 201.086 59.6511 201.129C59.2907 201.655 58.6857 202 58.0001 202H52.0001C50.8955 202 50.0001 201.105 50.0001 200V190ZM60.0001 197.254L62.297 192.841C62.3607 192.719 62.3131 192.568 62.1907 192.504L60.0001 191.364V197.254Z" fill="#737278"/>
<path d="M73.6905 190.182V188.562L77.963 181.814H79.3507V184.091H78.5167L75.7686 188.438V188.521H81.8116V190.182H73.6905ZM78.5645 192V189.689L78.5987 188.965V181.814H80.5401V192H78.5645ZM87.1231 192.137C85.0655 192.137 83.1036 190.886 83.1036 187.16C83.1036 183.729 84.71 181.678 87.2052 181.678C89.1944 181.678 90.5753 182.956 90.7872 184.631H88.7569C88.586 183.906 88.0186 183.455 87.2052 183.455C85.8516 183.455 85.127 184.706 85.127 186.736H85.1954C85.6602 185.841 86.6378 185.308 87.752 185.308C89.5499 185.308 90.8897 186.688 90.8897 188.603C90.8897 190.66 89.3653 192.137 87.1231 192.137ZM87.1095 190.503C88.128 190.503 88.8936 189.703 88.8936 188.657C88.8936 187.625 88.1485 186.825 87.1231 186.825C86.1182 186.825 85.3389 187.659 85.3389 188.664C85.3389 189.676 86.0909 190.503 87.1095 190.503ZM95.8663 192.137C93.795 192.137 92.3731 190.954 92.3731 189.293C92.3731 188.008 93.2208 186.914 94.3624 186.709V186.654C93.3712 186.401 92.7423 185.465 92.7423 184.385C92.7423 182.833 94.0548 181.678 95.8663 181.678C97.6505 181.678 98.9835 182.833 98.9835 184.385C98.9835 185.465 98.3409 186.401 97.377 186.654V186.709C98.4845 186.914 99.3663 188.008 99.3663 189.293C99.3663 190.954 97.9171 192.137 95.8663 192.137ZM95.8663 191.009C97.213 191.009 98.0675 190.305 98.0675 189.225C98.0675 188.097 97.1241 187.29 95.8663 187.29C94.5811 187.29 93.6514 188.097 93.6514 189.225C93.6514 190.305 94.4923 191.009 95.8663 191.009ZM95.8663 186.203C96.9395 186.203 97.7257 185.513 97.7257 184.48C97.7257 183.462 96.9737 182.799 95.8663 182.799C94.7384 182.799 94.0001 183.462 94.0001 184.48C94.0001 185.513 94.7657 186.203 95.8663 186.203ZM104.623 192.137C102.921 192.137 101.041 191.05 101.041 187.297C101.041 183.715 102.47 181.678 104.78 181.678C106.489 181.678 107.727 182.778 107.973 184.378H106.701C106.476 183.496 105.84 182.826 104.78 182.826C103.215 182.826 102.272 184.248 102.272 186.695H102.354C102.9 185.848 103.803 185.342 104.862 185.342C106.606 185.342 108.055 186.743 108.055 188.712C108.055 190.612 106.701 192.137 104.623 192.137ZM104.623 190.995C105.847 190.995 106.797 189.983 106.797 188.712C106.797 187.468 105.888 186.47 104.657 186.47C103.42 186.47 102.456 187.536 102.456 188.726C102.456 189.929 103.372 190.995 104.623 190.995ZM113.011 192.137C111.281 192.137 110.044 191.036 109.805 189.409H111.09C111.302 190.312 111.938 190.988 113.011 190.988C114.563 190.988 115.52 189.573 115.52 187.105H115.438C114.891 187.939 113.995 188.466 112.929 188.466C111.172 188.466 109.723 187.058 109.723 185.096C109.723 183.195 111.09 181.644 113.182 181.678C114.857 181.705 116.736 182.758 116.736 186.504C116.736 190.106 115.315 192.137 113.011 192.137ZM113.12 187.331C114.357 187.331 115.335 186.258 115.335 185.062C115.335 183.893 114.412 182.819 113.161 182.819C111.931 182.819 110.994 183.831 110.994 185.089C110.994 186.34 111.89 187.331 113.12 187.331ZM122.034 181.814V192H120.756V183.018H120.688L118.227 184.843V183.448L120.441 181.814H122.034ZM131.618 192H129.157V190.852H131.536C134.018 190.852 135.221 189.361 135.221 186.887C135.221 184.439 134.018 182.963 131.659 182.963H129.103V181.814H131.748C134.722 181.814 136.479 183.729 136.479 186.887C136.479 190.072 134.722 192 131.618 192ZM129.738 181.814V192H128.44V181.814H129.738ZM140.983 192.096C139.439 192.096 138.393 191.146 138.393 189.211V184.357H139.623V189.108C139.623 190.284 140.286 190.988 141.353 190.988C142.446 190.988 143.274 190.243 143.274 188.938V184.357H144.511V192H143.321V190.147H143.485C143.014 191.583 142.105 192.096 140.983 192.096ZM149.788 192.164C147.71 192.164 146.309 190.585 146.309 188.227C146.309 185.834 147.71 184.262 149.788 184.262C151.873 184.262 153.281 185.834 153.281 188.227C153.281 190.585 151.873 192.164 149.788 192.164ZM149.788 191.063C151.333 191.063 152.037 189.73 152.037 188.227C152.037 186.709 151.333 185.362 149.788 185.362C148.264 185.362 147.56 186.702 147.56 188.227C147.56 189.73 148.264 191.063 149.788 191.063ZM159.16 192V181.814H162.647C165.025 181.814 166.119 183.141 166.119 184.959C166.119 186.777 165.025 188.049 162.653 188.049H159.885V186.894H162.592C164.198 186.894 164.827 186.155 164.827 184.959C164.827 183.749 164.198 182.956 162.578 182.956H160.459V192H159.16ZM165.012 192L162.551 187.413H164.014L166.516 192H165.012ZM171.027 192.164C168.813 192.164 167.445 190.592 167.445 188.24C167.445 185.896 168.799 184.262 170.884 184.262C172.504 184.262 174.213 185.26 174.213 188.083V188.596H168.279V187.557H173.55L172.976 187.939C172.976 186.436 172.265 185.355 170.884 185.355C169.503 185.355 168.69 186.497 168.69 187.741V188.432C168.69 190.134 169.633 191.07 171.034 191.07C171.937 191.07 172.613 190.674 172.9 189.895L174.09 190.223C173.734 191.378 172.593 192.164 171.027 192.164ZM175.977 194.857V184.357H177.166V185.581H177.303C177.556 185.178 178.027 184.262 179.518 184.262C181.425 184.262 182.758 185.779 182.758 188.199C182.758 190.633 181.432 192.164 179.524 192.164C178.068 192.164 177.556 191.241 177.303 190.817H177.207V194.857H175.977ZM179.34 191.063C180.769 191.063 181.507 189.792 181.507 188.186C181.507 186.6 180.789 185.362 179.34 185.362C177.932 185.362 177.193 186.497 177.193 188.186C177.193 189.888 177.952 191.063 179.34 191.063ZM187.762 192.164C185.547 192.164 184.18 190.592 184.18 188.24C184.18 185.896 185.533 184.262 187.618 184.262C189.238 184.262 190.947 185.26 190.947 188.083V188.596H185.014V187.557H190.284L189.71 187.939C189.71 186.436 188.999 185.355 187.618 185.355C186.237 185.355 185.424 186.497 185.424 187.741V188.432C185.424 190.134 186.367 191.07 187.769 191.07C188.671 191.07 189.348 190.674 189.635 189.895L190.824 190.223C190.469 191.378 189.327 192.164 187.762 192.164ZM194.987 192.178C193.538 192.178 192.383 191.33 192.383 189.826C192.383 188.076 193.941 187.755 195.357 187.577C196.717 187.406 197.318 187.447 197.318 186.88V186.839C197.318 185.889 196.778 185.342 195.719 185.342C194.618 185.342 194.024 185.93 193.784 186.463L192.602 186.073C193.19 184.686 194.502 184.262 195.685 184.262C196.71 184.262 198.549 184.576 198.549 186.962V192H197.339V190.961H197.257C196.997 191.501 196.279 192.178 194.987 192.178ZM195.199 191.091C196.56 191.091 197.318 190.175 197.318 189.238V188.179C197.113 188.418 195.774 188.555 195.302 188.616C194.406 188.732 193.62 189.02 193.62 189.888C193.62 190.681 194.283 191.091 195.199 191.091ZM203.717 184.357V185.41H199.766V184.357H203.717ZM200.914 182.539H202.145V190.018C202.145 190.701 202.398 191.002 203.047 191.002C203.204 191.002 203.471 190.961 203.676 190.92L203.929 191.959C203.676 192.048 203.327 192.096 203.013 192.096C201.693 192.096 200.914 191.364 200.914 190.113V182.539ZM207.75 192.164C206.178 192.164 205.084 191.467 204.811 190.147L205.98 189.867C206.198 190.708 206.82 191.084 207.736 191.084C208.803 191.084 209.486 190.558 209.486 189.929C209.486 189.402 209.117 189.054 208.365 188.876L207.094 188.575C205.706 188.247 205.043 187.563 205.043 186.49C205.043 185.178 206.246 184.262 207.873 184.262C209.445 184.262 210.273 185.027 210.621 186.101L209.507 186.388C209.295 185.841 208.864 185.308 207.88 185.308C206.971 185.308 206.287 185.779 206.287 186.415C206.287 186.982 206.677 187.297 207.572 187.509L208.728 187.782C210.115 188.11 210.765 188.801 210.765 189.847C210.765 191.187 209.541 192.164 207.75 192.164ZM216.637 192V181.814H222.796V182.963H217.936V186.449H222.331V187.598H217.936V192H216.637ZM226.87 192.096C225.325 192.096 224.279 191.146 224.279 189.211V184.357H225.51V189.108C225.51 190.284 226.173 190.988 227.239 190.988C228.333 190.988 229.16 190.243 229.16 188.938V184.357H230.398V192H229.208V190.147H229.372C228.9 191.583 227.991 192.096 226.87 192.096ZM233.795 187.42V192H232.565V184.357H233.747L233.754 186.21H233.583C234.048 184.802 234.937 184.262 236.092 184.262C237.637 184.262 238.683 185.212 238.683 187.146V192H237.445V187.249C237.445 186.073 236.789 185.369 235.723 185.369C234.622 185.369 233.795 186.114 233.795 187.42ZM243.96 192.164C241.882 192.164 240.481 190.585 240.481 188.227C240.481 185.834 241.882 184.262 243.96 184.262C245.437 184.262 246.64 185.041 247.057 186.374L245.874 186.709C245.649 185.923 244.965 185.362 243.96 185.362C242.436 185.362 241.732 186.702 241.732 188.227C241.732 189.73 242.436 191.063 243.96 191.063C244.985 191.063 245.683 190.482 245.908 189.655L247.084 189.99C246.674 191.351 245.457 192.164 243.96 192.164ZM251.856 184.357V185.41H247.904V184.357H251.856ZM249.053 182.539H250.283V190.018C250.283 190.701 250.536 191.002 251.186 191.002C251.343 191.002 251.609 190.961 251.815 190.92L252.067 191.959C251.815 192.048 251.466 192.096 251.151 192.096C249.832 192.096 249.053 191.364 249.053 190.113V182.539ZM253.428 192V184.357H254.658V192H253.428ZM254.05 183.106C253.585 183.106 253.195 182.744 253.195 182.293C253.195 181.842 253.585 181.479 254.05 181.479C254.522 181.479 254.911 181.842 254.911 182.293C254.911 182.744 254.522 183.106 254.05 183.106ZM259.929 192.164C257.851 192.164 256.449 190.585 256.449 188.227C256.449 185.834 257.851 184.262 259.929 184.262C262.014 184.262 263.422 185.834 263.422 188.227C263.422 190.585 262.014 192.164 259.929 192.164ZM259.929 191.063C261.474 191.063 262.178 189.73 262.178 188.227C262.178 186.709 261.474 185.362 259.929 185.362C258.404 185.362 257.7 186.702 257.7 188.227C257.7 189.73 258.404 191.063 259.929 191.063ZM266.443 187.42V192H265.213V184.357H266.396L266.402 186.21H266.232C266.696 184.802 267.585 184.262 268.74 184.262C270.285 184.262 271.331 185.212 271.331 187.146V192H270.094V187.249C270.094 186.073 269.438 185.369 268.371 185.369C267.271 185.369 266.443 186.114 266.443 187.42ZM77.4093 208H74.9483V206.852H77.3272C79.8087 206.852 81.0118 205.361 81.0118 202.887C81.0118 200.439 79.8087 198.963 77.4503 198.963H74.8936V197.814H77.5391C80.5128 197.814 82.2696 199.729 82.2696 202.887C82.2696 206.072 80.5128 208 77.4093 208ZM75.5294 197.814V208H74.2305V197.814H75.5294ZM87.3966 208.164C85.1817 208.164 83.8145 206.592 83.8145 204.24C83.8145 201.896 85.168 200.262 87.253 200.262C88.8731 200.262 90.5821 201.26 90.5821 204.083V204.596H84.6485V203.557H89.919L89.3448 203.939C89.3448 202.436 88.6339 201.355 87.253 201.355C85.8721 201.355 85.0587 202.497 85.0587 203.741V204.432C85.0587 206.134 86.002 207.07 87.4034 207.07C88.3057 207.07 88.9825 206.674 89.2696 205.895L90.4591 206.223C90.1036 207.378 88.962 208.164 87.3966 208.164ZM95.4561 208.164C93.378 208.164 91.9766 206.585 91.9766 204.227C91.9766 201.834 93.378 200.262 95.4561 200.262C96.9327 200.262 98.1358 201.041 98.5528 202.374L97.3702 202.709C97.1446 201.923 96.461 201.362 95.4561 201.362C93.9317 201.362 93.2276 202.702 93.2276 204.227C93.2276 205.73 93.9317 207.063 95.4561 207.063C96.4815 207.063 97.1788 206.482 97.4044 205.655L98.5802 205.99C98.17 207.351 96.9532 208.164 95.4561 208.164ZM102.06 208.055C100.911 208.055 100.344 207.412 100.344 206.305V197.814H101.574V205.997C101.574 206.701 101.697 206.954 102.21 206.954C102.477 206.954 102.586 206.934 102.702 206.899L102.948 207.938C102.73 208 102.388 208.055 102.06 208.055ZM106.339 208.178C104.89 208.178 103.734 207.33 103.734 205.826C103.734 204.076 105.293 203.755 106.708 203.577C108.068 203.406 108.67 203.447 108.67 202.88V202.839C108.67 201.889 108.13 201.342 107.07 201.342C105.97 201.342 105.375 201.93 105.136 202.463L103.953 202.073C104.541 200.686 105.854 200.262 107.036 200.262C108.062 200.262 109.9 200.576 109.9 202.962V208H108.691V206.961H108.608C108.349 207.501 107.631 208.178 106.339 208.178ZM106.551 207.091C107.911 207.091 108.67 206.175 108.67 205.238V204.179C108.465 204.418 107.125 204.555 106.653 204.616C105.758 204.732 104.972 205.02 104.972 205.888C104.972 206.681 105.635 207.091 106.551 207.091ZM112.061 208V200.357H113.25V201.533H113.332C113.612 200.761 114.405 200.248 115.315 200.248C115.492 200.248 115.793 200.262 115.937 200.269V201.506C115.861 201.492 115.526 201.438 115.198 201.438C114.098 201.438 113.291 202.183 113.291 203.215V208H112.061ZM119.478 208.178C118.028 208.178 116.873 207.33 116.873 205.826C116.873 204.076 118.432 203.755 119.847 203.577C121.207 203.406 121.809 203.447 121.809 202.88V202.839C121.809 201.889 121.269 201.342 120.209 201.342C119.108 201.342 118.514 201.93 118.274 202.463L117.092 202.073C117.68 200.686 118.992 200.262 120.175 200.262C121.2 200.262 123.039 200.576 123.039 202.962V208H121.829V206.961H121.747C121.487 207.501 120.77 208.178 119.478 208.178ZM119.69 207.091C121.05 207.091 121.809 206.175 121.809 205.238V204.179C121.604 204.418 120.264 204.555 119.792 204.616C118.897 204.732 118.11 205.02 118.11 205.888C118.11 206.681 118.774 207.091 119.69 207.091ZM128.207 200.357V201.41H124.256V200.357H128.207ZM125.404 198.539H126.635V206.018C126.635 206.701 126.888 207.002 127.537 207.002C127.694 207.002 127.961 206.961 128.166 206.92L128.419 207.959C128.166 208.048 127.817 208.096 127.503 208.096C126.184 208.096 125.404 207.364 125.404 206.113V198.539ZM129.779 208V200.357H131.01V208H129.779ZM130.401 199.106C129.937 199.106 129.547 198.744 129.547 198.293C129.547 197.842 129.937 197.479 130.401 197.479C130.873 197.479 131.263 197.842 131.263 198.293C131.263 198.744 130.873 199.106 130.401 199.106ZM136.28 208.164C134.202 208.164 132.801 206.585 132.801 204.227C132.801 201.834 134.202 200.262 136.28 200.262C138.365 200.262 139.774 201.834 139.774 204.227C139.774 206.585 138.365 208.164 136.28 208.164ZM136.28 207.063C137.825 207.063 138.529 205.73 138.529 204.227C138.529 202.709 137.825 201.362 136.28 201.362C134.756 201.362 134.052 202.702 134.052 204.227C134.052 205.73 134.756 207.063 136.28 207.063ZM142.795 203.42V208H141.565V200.357H142.747L142.754 202.21H142.583C143.048 200.802 143.937 200.262 145.092 200.262C146.637 200.262 147.683 201.212 147.683 203.146V208H146.445V203.249C146.445 202.073 145.789 201.369 144.723 201.369C143.622 201.369 142.795 202.114 142.795 203.42ZM153.787 208V200.357H155.018V208H153.787ZM154.409 199.106C153.944 199.106 153.555 198.744 153.555 198.293C153.555 197.842 153.944 197.479 154.409 197.479C154.881 197.479 155.271 197.842 155.271 198.293C155.271 198.744 154.881 199.106 154.409 199.106ZM158.408 203.42V208H157.178V200.357H158.36L158.367 202.21H158.196C158.661 200.802 159.55 200.262 160.705 200.262C162.25 200.262 163.296 201.212 163.296 203.146V208H162.059V203.249C162.059 202.073 161.402 201.369 160.336 201.369C159.235 201.369 158.408 202.114 158.408 203.42ZM173.673 208.137C171.062 208.137 169.154 206.141 169.154 202.914C169.154 199.681 171.062 197.678 173.673 197.678C175.737 197.678 177.419 198.922 177.781 201.021H176.482C176.195 199.626 174.999 198.881 173.673 198.881C171.841 198.881 170.419 200.303 170.419 202.914C170.419 205.519 171.848 206.934 173.673 206.934C175.006 206.934 176.195 206.182 176.482 204.794H177.781C177.426 206.865 175.758 208.137 173.673 208.137ZM182.737 208.164C180.659 208.164 179.258 206.585 179.258 204.227C179.258 201.834 180.659 200.262 182.737 200.262C184.822 200.262 186.231 201.834 186.231 204.227C186.231 206.585 184.822 208.164 182.737 208.164ZM182.737 207.063C184.282 207.063 184.986 205.73 184.986 204.227C184.986 202.709 184.282 201.362 182.737 201.362C181.213 201.362 180.509 202.702 180.509 204.227C180.509 205.73 181.213 207.063 182.737 207.063ZM190.886 208.164C188.979 208.164 187.652 206.633 187.652 204.199C187.652 201.779 188.985 200.262 190.893 200.262C192.383 200.262 192.855 201.178 193.107 201.581H193.203V197.814H194.434V208H193.244V206.817H193.107C192.855 207.241 192.342 208.164 190.886 208.164ZM191.07 207.063C192.458 207.063 193.217 205.888 193.217 204.186C193.217 202.497 192.479 201.362 191.07 201.362C189.621 201.362 188.903 202.6 188.903 204.186C188.903 205.792 189.642 207.063 191.07 207.063ZM199.807 208.164C197.592 208.164 196.225 206.592 196.225 204.24C196.225 201.896 197.578 200.262 199.663 200.262C201.283 200.262 202.992 201.26 202.992 204.083V204.596H197.059V203.557H202.329L201.755 203.939C201.755 202.436 201.044 201.355 199.663 201.355C198.282 201.355 197.469 202.497 197.469 203.741V204.432C197.469 206.134 198.412 207.07 199.814 207.07C200.716 207.07 201.393 206.674 201.68 205.895L202.869 206.223C202.514 207.378 201.372 208.164 199.807 208.164ZM212.105 208.178C209.897 208.178 208.523 207.043 208.406 205.334H209.739C209.842 206.489 210.908 207.016 212.105 207.016C213.485 207.016 214.538 206.291 214.538 205.204C214.538 204.22 213.608 203.857 212.522 203.55L211.291 203.201C209.65 202.736 208.693 201.896 208.693 200.542C208.693 198.819 210.225 197.678 212.193 197.678C214.203 197.678 215.605 198.847 215.666 200.385H214.395C214.278 199.394 213.362 198.826 212.152 198.826C210.833 198.826 209.958 199.523 209.958 200.48C209.958 201.547 211.154 201.923 211.899 202.128L212.918 202.408C214.012 202.709 215.803 203.324 215.803 205.225C215.803 206.893 214.456 208.178 212.105 208.178ZM220.267 208.096C218.722 208.096 217.676 207.146 217.676 205.211V200.357H218.906V205.108C218.906 206.284 219.569 206.988 220.636 206.988C221.73 206.988 222.557 206.243 222.557 204.938V200.357H223.794V208H222.605V206.147H222.769C222.297 207.583 221.388 208.096 220.267 208.096ZM229.058 211.021C227.362 211.021 226.385 210.304 225.913 209.463L226.911 208.82C227.232 209.265 227.711 209.948 229.058 209.948C230.274 209.948 231.156 209.388 231.156 208.13V206.599H231.04C230.78 207.036 230.295 207.877 228.818 207.877C226.986 207.877 225.592 206.544 225.592 204.145C225.592 201.779 226.939 200.262 228.846 200.262C230.322 200.262 230.815 201.171 231.074 201.581H231.191V200.357H232.387V208.198C232.387 210.174 230.917 211.021 229.058 211.021ZM229.024 206.783C230.411 206.783 231.17 205.785 231.17 204.117C231.17 202.497 230.432 201.362 229.024 201.362C227.567 201.362 226.843 202.593 226.843 204.117C226.843 205.689 227.588 206.783 229.024 206.783ZM237.644 211.021C235.948 211.021 234.971 210.304 234.499 209.463L235.497 208.82C235.818 209.265 236.297 209.948 237.644 209.948C238.86 209.948 239.742 209.388 239.742 208.13V206.599H239.626C239.366 207.036 238.881 207.877 237.404 207.877C235.572 207.877 234.178 206.544 234.178 204.145C234.178 201.779 235.524 200.262 237.432 200.262C238.908 200.262 239.4 201.171 239.66 201.581H239.776V200.357H240.973V208.198C240.973 210.174 239.503 211.021 237.644 211.021ZM237.609 206.783C238.997 206.783 239.756 205.785 239.756 204.117C239.756 202.497 239.018 201.362 237.609 201.362C236.153 201.362 235.429 202.593 235.429 204.117C235.429 205.689 236.174 206.783 237.609 206.783ZM246.346 208.164C244.131 208.164 242.764 206.592 242.764 204.24C242.764 201.896 244.117 200.262 246.202 200.262C247.822 200.262 249.531 201.26 249.531 204.083V204.596H243.598V203.557H248.868L248.294 203.939C248.294 202.436 247.583 201.355 246.202 201.355C244.821 201.355 244.008 202.497 244.008 203.741V204.432C244.008 206.134 244.951 207.07 246.353 207.07C247.255 207.07 247.932 206.674 248.219 205.895L249.408 206.223C249.053 207.378 247.911 208.164 246.346 208.164ZM253.893 208.164C252.32 208.164 251.227 207.467 250.953 206.147L252.122 205.867C252.341 206.708 252.963 207.084 253.879 207.084C254.945 207.084 255.629 206.558 255.629 205.929C255.629 205.402 255.26 205.054 254.508 204.876L253.236 204.575C251.849 204.247 251.186 203.563 251.186 202.49C251.186 201.178 252.389 200.262 254.016 200.262C255.588 200.262 256.415 201.027 256.764 202.101L255.649 202.388C255.438 201.841 255.007 201.308 254.023 201.308C253.113 201.308 252.43 201.779 252.43 202.415C252.43 202.982 252.819 203.297 253.715 203.509L254.87 203.782C256.258 204.11 256.907 204.801 256.907 205.847C256.907 207.187 255.684 208.164 253.893 208.164ZM261.699 200.357V201.41H257.748V200.357H261.699ZM258.897 198.539H260.127V206.018C260.127 206.701 260.38 207.002 261.029 207.002C261.187 207.002 261.453 206.961 261.658 206.92L261.911 207.959C261.658 208.048 261.31 208.096 260.995 208.096C259.676 208.096 258.897 207.364 258.897 206.113V198.539ZM263.272 208V200.357H264.502V208H263.272ZM263.894 199.106C263.429 199.106 263.039 198.744 263.039 198.293C263.039 197.842 263.429 197.479 263.894 197.479C264.365 197.479 264.755 197.842 264.755 198.293C264.755 198.744 264.365 199.106 263.894 199.106ZM269.773 208.164C267.694 208.164 266.293 206.585 266.293 204.227C266.293 201.834 267.694 200.262 269.773 200.262C271.857 200.262 273.266 201.834 273.266 204.227C273.266 206.585 271.857 208.164 269.773 208.164ZM269.773 207.063C271.317 207.063 272.022 205.73 272.022 204.227C272.022 202.709 271.317 201.362 269.773 201.362C268.248 201.362 267.544 202.702 267.544 204.227C267.544 205.73 268.248 207.063 269.773 207.063ZM276.287 203.42V208H275.057V200.357H276.239L276.246 202.21H276.075C276.54 200.802 277.429 200.262 278.584 200.262C280.129 200.262 281.175 201.212 281.175 203.146V208H279.938V203.249C279.938 202.073 279.281 201.369 278.215 201.369C277.114 201.369 276.287 202.114 276.287 203.42ZM285.94 208.164C284.367 208.164 283.274 207.467 283 206.147L284.169 205.867C284.388 206.708 285.01 207.084 285.926 207.084C286.992 207.084 287.676 206.558 287.676 205.929C287.676 205.402 287.307 205.054 286.555 204.876L285.283 204.575C283.896 204.247 283.232 203.563 283.232 202.49C283.232 201.178 284.436 200.262 286.063 200.262C287.635 200.262 288.462 201.027 288.811 202.101L287.696 202.388C287.484 201.841 287.054 201.308 286.069 201.308C285.16 201.308 284.477 201.779 284.477 202.415C284.477 202.982 284.866 203.297 285.762 203.509L286.917 203.782C288.305 204.11 288.954 204.801 288.954 205.847C288.954 207.187 287.731 208.164 285.94 208.164Z" fill="#333238"/>
</g>
</g>
</g>
<defs>
<filter id="filter0_d_37095_4140" x="-5" y="-730" width="408" height="1035" filterUnits="userSpaceOnUse" color-interpolation-filters="sRGB">
<feFlood flood-opacity="0" result="BackgroundImageFix"/>
<feColorMatrix in="SourceAlpha" type="matrix" values="0 0 0 0 0 0 0 0 0 0 0 0 0 0 0 0 0 0 127 0" result="hardAlpha"/>
<feOffset dy="4"/>
<feGaussianBlur stdDeviation="2"/>
<feComposite in2="hardAlpha" operator="out"/>
<feColorMatrix type="matrix" values="0 0 0 0 0 0 0 0 0 0 0 0 0 0 0 0 0 0 0.25 0"/>
<feBlend mode="normal" in2="BackgroundImageFix" result="effect1_dropShadow_37095_4140"/>
<feBlend mode="normal" in="SourceGraphic" in2="effect1_dropShadow_37095_4140" result="shape"/>
</filter>
<filter id="filter1_dd_37095_4140" x="8" y="10" width="344" height="198" filterUnits="userSpaceOnUse" color-interpolation-filters="sRGB">
<feFlood flood-opacity="0" result="BackgroundImageFix"/>
<feColorMatrix in="SourceAlpha" type="matrix" values="0 0 0 0 0 0 0 0 0 0 0 0 0 0 0 0 0 0 127 0" result="hardAlpha"/>
<feOffset/>
<feGaussianBlur stdDeviation="1"/>
<feComposite in2="hardAlpha" operator="out"/>
<feColorMatrix type="matrix" values="0 0 0 0 0.121569 0 0 0 0 0.117647 0 0 0 0 0.141176 0 0 0 0.16 0"/>
<feBlend mode="normal" in2="BackgroundImageFix" result="effect1_dropShadow_37095_4140"/>
<feColorMatrix in="SourceAlpha" type="matrix" values="0 0 0 0 0 0 0 0 0 0 0 0 0 0 0 0 0 0 127 0" result="hardAlpha"/>
<feOffset dy="2"/>
<feGaussianBlur stdDeviation="4"/>
<feComposite in2="hardAlpha" operator="out"/>
<feColorMatrix type="matrix" values="0 0 0 0 0.121569 0 0 0 0 0.117647 0 0 0 0 0.141176 0 0 0 0.16 0"/>
<feBlend mode="normal" in2="effect1_dropShadow_37095_4140" result="effect2_dropShadow_37095_4140"/>
<feBlend mode="normal" in="SourceGraphic" in2="effect2_dropShadow_37095_4140" result="shape"/>
</filter>
<clipPath id="clip0_37095_4140">
<rect width="360" height="251" fill="white"/>
</clipPath>
<clipPath id="clip1_37095_4140">
<rect x="17" y="17" width="326" height="180" rx="8" fill="white"/>
</clipPath>
</defs>
</svg>
