<svg width="539" height="91" fill="none" xmlns="http://www.w3.org/2000/svg"><path fill="#fff" d="M0 0h539v91H0z"/><path d="M21.373 29.137c-2.728 0-4.758-1.9-4.758-5.223 0-3.336 2.065-5.236 4.758-5.236 2.345 0 4.115 1.34 4.416 3.65h-2.208c-.178-1.073-1.018-1.723-2.16-1.723-1.566 0-2.59 1.204-2.59 3.31 0 2.166 1.038 3.3 2.583 3.3 1.135 0 1.982-.649 2.18-1.729h2.202c-.226 1.873-1.798 3.65-4.423 3.65Zm9.304.013c-2.325 0-3.767-1.585-3.767-3.937 0-2.365 1.442-3.951 3.767-3.951 2.324 0 3.766 1.586 3.766 3.95 0 2.352-1.442 3.938-3.766 3.938Zm0-1.668c1.046 0 1.586-.957 1.586-2.276 0-1.333-.54-2.27-1.586-2.27-1.04 0-1.58.937-1.58 2.27 0 1.32.54 2.276 1.58 2.276Zm7.95 1.641c-1.743 0-3.104-1.374-3.104-3.93 0-2.626 1.415-3.931 3.09-3.931 1.272 0 1.894.765 2.167 1.394h.069v-3.841h2.14V29h-2.113v-1.224h-.096c-.287.636-.93 1.347-2.153 1.347Zm.677-1.702c1.005 0 1.586-.889 1.586-2.235 0-1.354-.568-2.215-1.586-2.215-1.032 0-1.58.902-1.58 2.215 0 1.319.554 2.235 1.58 2.235Zm8.88 1.73c-2.359 0-3.801-1.505-3.801-3.931 0-2.359 1.449-3.958 3.698-3.958 2.037 0 3.616 1.299 3.616 3.883v.587H45.23v-1.319h5.428l-1.005.342c0-1.155-.526-1.894-1.551-1.894-1.033 0-1.6.76-1.6 1.812v.936c0 1.285.683 1.949 1.716 1.949.697 0 1.223-.301 1.435-.869l1.928.342c-.376 1.285-1.606 2.12-3.397 2.12Zm11.963 0c-2.482 0-4.068-1.149-4.123-3.364h2.106c.068 1.026.868 1.531 1.99 1.531 1.08 0 1.783-.499 1.783-1.237 0-.67-.615-.984-1.722-1.25l-1.108-.274c-1.736-.417-2.782-1.285-2.782-2.79 0-1.845 1.634-3.09 3.87-3.09 2.29 0 3.773 1.265 3.8 3.084h-2.099c-.075-.8-.697-1.258-1.715-1.258-1.04 0-1.614.478-1.614 1.128 0 .718.718 1.039 1.593 1.244l.91.219c1.783.403 3.062 1.305 3.062 2.994 0 1.88-1.47 3.062-3.951 3.062Zm7.997-.055c-1.592 0-2.638-1.1-2.638-2.871v-4.868h2.14v4.478c0 .93.505 1.483 1.346 1.483.848 0 1.436-.574 1.436-1.551v-4.41h2.146V29h-2.023l-.034-1.914h.116c-.397 1.271-1.203 2.01-2.489 2.01Zm9.557 2.926c-1.934 0-3.151-.787-3.466-1.908l1.846-.471c.178.423.65.847 1.606.847 1.026 0 1.634-.458 1.634-1.442v-1.395h-.164c-.28.643-.895 1.245-2.105 1.245-1.71 0-3.097-1.183-3.097-3.726 0-2.605 1.429-3.91 3.104-3.91 1.264 0 1.907.758 2.194 1.394h.075v-1.299h2.112v7.554c0 2.078-1.551 3.11-3.739 3.11Zm.041-4.738c1.012 0 1.586-.793 1.586-2.126 0-1.326-.567-2.187-1.586-2.187-1.032 0-1.586.902-1.586 2.187 0 1.306.56 2.126 1.586 2.126Zm8.832 4.738c-1.934 0-3.151-.787-3.466-1.908l1.846-.471c.178.423.65.847 1.607.847 1.025 0 1.633-.458 1.633-1.442v-1.395h-.164c-.28.643-.895 1.245-2.105 1.245-1.71 0-3.097-1.183-3.097-3.726 0-2.605 1.429-3.91 3.104-3.91 1.264 0 1.907.758 2.194 1.394h.075v-1.299h2.113v7.554c0 2.078-1.552 3.11-3.74 3.11Zm.041-4.738c1.012 0 1.586-.793 1.586-2.126 0-1.326-.567-2.187-1.586-2.187-1.032 0-1.586.902-1.586 2.187 0 1.306.56 2.126 1.586 2.126Zm8.887 1.866c-2.358 0-3.8-1.503-3.8-3.93 0-2.359 1.448-3.958 3.697-3.958 2.037 0 3.617 1.299 3.617 3.883v.587h-6.467v-1.319h5.428l-1.005.342c0-1.155-.527-1.894-1.552-1.894-1.032 0-1.6.76-1.6 1.812v.936c0 1.285.684 1.949 1.716 1.949.697 0 1.224-.301 1.436-.869l1.927.342c-.376 1.285-1.606 2.12-3.397 2.12Zm7.964 0c-1.873 0-3.158-.834-3.425-2.262l1.996-.335c.192.697.663 1.052 1.497 1.052.752 0 1.217-.314 1.217-.752 0-.39-.314-.622-.978-.758l-1.319-.267c-1.483-.3-2.215-1.025-2.215-2.18 0-1.477 1.285-2.386 3.247-2.386 1.846 0 2.96.8 3.241 2.064l-1.894.322c-.157-.52-.595-.862-1.306-.862-.649 0-1.148.294-1.148.732 0 .362.246.622.95.765l1.395.274c1.49.3 2.208.97 2.208 2.064 0 1.524-1.436 2.53-3.466 2.53Zm8.702-7.793v1.62h-4.594v-1.62h4.594Zm-3.555-1.818h2.14v7.198c0 .465.198.684.677.684.157 0 .506-.055.649-.089l.301 1.593a5.04 5.04 0 0 1-1.374.184c-1.559 0-2.393-.765-2.393-2.18v-7.39ZM113.48 29v-7.643h2.14V29h-2.14Zm1.067-8.606c-.629 0-1.149-.486-1.149-1.08 0-.602.52-1.08 1.149-1.08.636 0 1.162.478 1.162 1.08 0 .594-.526 1.08-1.162 1.08Zm6.227 8.756c-2.324 0-3.766-1.585-3.766-3.937 0-2.365 1.442-3.951 3.766-3.951 2.325 0 3.767 1.586 3.767 3.95 0 2.352-1.442 3.938-3.767 3.938Zm0-1.668c1.046 0 1.586-.957 1.586-2.276 0-1.333-.54-2.27-1.586-2.27-1.039 0-1.579.937-1.579 2.27 0 1.32.54 2.276 1.579 2.276Zm7.301-2.884V29h-2.139v-7.643h2.016l.041 1.915h-.123c.397-1.252 1.19-2.01 2.495-2.01 1.593 0 2.639 1.107 2.639 2.878V29h-2.147v-4.47c0-.93-.505-1.484-1.346-1.484-.848 0-1.436.574-1.436 1.552Zm9.707 4.552c-1.873 0-3.158-.834-3.425-2.262l1.997-.335c.191.697.663 1.052 1.497 1.052.752 0 1.216-.314 1.216-.752 0-.39-.314-.622-.977-.758l-1.319-.267c-1.484-.3-2.215-1.025-2.215-2.18 0-1.477 1.285-2.386 3.247-2.386 1.845 0 2.96.8 3.24 2.064l-1.894.322c-.157-.52-.594-.862-1.305-.862-.65 0-1.149.294-1.149.732 0 .362.246.622.951.765l1.394.274c1.49.3 2.208.97 2.208 2.064 0 1.524-1.436 2.53-3.466 2.53Z" fill="#303030"/><rect x="16" y="40" width="16" height="16" rx="4" fill="#1F75CB"/><path d="m19.75 48.763 2.403 2.484 6.097-6.097" stroke="#fff" stroke-width="1.5" stroke-linecap="round" stroke-linejoin="round"/><path d="M41.23 53V42.815h6.208v1.148h-4.909v3.322h4.573v1.149H42.53v3.418h4.97V53h-6.27Zm9.502-4.58V53h-1.23v-7.643h1.183l.006 1.853h-.17c.464-1.408 1.353-1.948 2.508-1.948 1.545 0 2.591.95 2.591 2.885V53h-1.237v-4.751c0-1.176-.656-1.88-1.723-1.88-1.1 0-1.928.745-1.928 2.05Zm9.195 4.758c-1.45 0-2.605-.848-2.605-2.352 0-1.75 1.559-2.071 2.974-2.249 1.36-.17 1.962-.13 1.962-.697v-.041c0-.95-.54-1.497-1.6-1.497-1.1 0-1.695.588-1.934 1.12l-1.183-.389c.588-1.388 1.9-1.811 3.083-1.811 1.025 0 2.864.314 2.864 2.7V53h-1.21v-1.04h-.082c-.26.541-.977 1.218-2.27 1.218Zm.212-1.087c1.36 0 2.119-.916 2.119-1.853v-1.06c-.205.24-1.545.377-2.017.438-.895.116-1.681.404-1.681 1.272 0 .793.663 1.203 1.579 1.203Zm9.057 1.073c-1.456 0-1.968-.923-2.221-1.347h-.137V53h-1.19V42.815h1.23v3.766h.097c.253-.403.724-1.32 2.215-1.32 1.907 0 3.24 1.518 3.24 3.938 0 2.434-1.327 3.965-3.234 3.965Zm-.184-1.1c1.428 0 2.167-1.272 2.167-2.879 0-1.585-.718-2.823-2.167-2.823-1.409 0-2.147 1.135-2.147 2.823 0 1.703.759 2.878 2.147 2.878Zm6.924.99c-1.148 0-1.715-.642-1.715-1.75v-8.49h1.23v8.183c0 .704.123.957.636.957.266 0 .376-.02.492-.055l.246 1.04c-.219.061-.56.116-.889.116Zm5.148.11c-2.215 0-3.582-1.572-3.582-3.924 0-2.345 1.354-3.978 3.438-3.978 1.62 0 3.33.998 3.33 3.821v.513h-5.934v-1.04h5.27l-.574.384c0-1.505-.71-2.584-2.092-2.584-1.38 0-2.194 1.141-2.194 2.385v.69c0 1.703.944 2.64 2.345 2.64.902 0 1.579-.397 1.866-1.176l1.19.328c-.356 1.155-1.498 1.941-3.063 1.941Zm13.16-.027c-2.612 0-4.52-1.996-4.52-5.223 0-3.233 1.908-5.236 4.52-5.236 2.064 0 3.745 1.244 4.108 3.343h-1.3c-.286-1.395-1.483-2.14-2.809-2.14-1.832 0-3.254 1.422-3.254 4.033 0 2.605 1.429 4.02 3.254 4.02 1.333 0 2.523-.752 2.81-2.14h1.299c-.356 2.071-2.024 3.343-4.109 3.343Zm9.064.027c-2.079 0-3.48-1.579-3.48-3.937 0-2.393 1.401-3.965 3.48-3.965 2.085 0 3.493 1.572 3.493 3.965 0 2.358-1.408 3.937-3.493 3.937Zm0-1.1c1.545 0 2.249-1.334 2.249-2.837 0-1.518-.704-2.865-2.249-2.865-1.525 0-2.229 1.34-2.229 2.865 0 1.504.704 2.837 2.229 2.837Zm8.148 1.1c-1.907 0-3.233-1.531-3.233-3.965 0-2.42 1.333-3.937 3.24-3.937 1.49 0 1.962.916 2.215 1.32h.095v-3.767h1.231V53h-1.19v-1.183h-.136c-.253.424-.766 1.347-2.222 1.347Zm.185-1.1c1.387 0 2.146-1.176 2.146-2.879 0-1.688-.738-2.823-2.146-2.823-1.45 0-2.167 1.238-2.167 2.823 0 1.607.738 2.878 2.167 2.878Zm8.736 1.1c-2.215 0-3.582-1.572-3.582-3.924 0-2.345 1.353-3.978 3.438-3.978 1.621 0 3.329.998 3.329 3.821v.513h-5.933v-1.04h5.27l-.574.384c0-1.505-.711-2.584-2.092-2.584-1.38 0-2.194 1.141-2.194 2.385v.69c0 1.703.943 2.64 2.345 2.64.902 0 1.579-.397 1.866-1.176l1.189.328c-.355 1.155-1.497 1.941-3.062 1.941Zm12.298.014c-2.208 0-3.582-1.135-3.698-2.844h1.333c.102 1.155 1.169 1.682 2.365 1.682 1.381 0 2.433-.725 2.433-1.812 0-.984-.929-1.347-2.016-1.654l-1.231-.349c-1.64-.465-2.597-1.306-2.597-2.659 0-1.723 1.531-2.864 3.5-2.864 2.009 0 3.411 1.169 3.472 2.707h-1.271c-.116-.991-1.032-1.559-2.242-1.559-1.32 0-2.195.697-2.195 1.654 0 1.067 1.197 1.443 1.942 1.648l1.018.28c1.094.301 2.885.916 2.885 2.817 0 1.668-1.347 2.953-3.698 2.953Zm8.162-.082c-1.545 0-2.591-.95-2.591-2.885v-4.854h1.231v4.751c0 1.176.663 1.88 1.729 1.88 1.094 0 1.921-.745 1.921-2.05v-4.58h1.237V53h-1.189v-1.852h.164c-.472 1.435-1.381 1.948-2.502 1.948Zm8.791 2.926c-1.695 0-2.673-.718-3.145-1.56l.998-.642c.322.445.8 1.128 2.147 1.128 1.217 0 2.099-.56 2.099-1.818v-1.531h-.117c-.259.437-.745 1.278-2.221 1.278-1.832 0-3.227-1.333-3.227-3.733 0-2.365 1.347-3.882 3.254-3.882 1.477 0 1.969.909 2.229 1.32h.116v-1.225h1.196v7.841c0 1.976-1.47 2.824-3.329 2.824Zm-.034-4.239c1.387 0 2.146-.998 2.146-2.666 0-1.62-.738-2.755-2.146-2.755-1.456 0-2.181 1.23-2.181 2.755 0 1.573.745 2.666 2.181 2.666Zm8.62 4.239c-1.695 0-2.673-.718-3.145-1.56l.998-.642c.322.445.8 1.128 2.147 1.128 1.217 0 2.098-.56 2.098-1.818v-1.531h-.116c-.259.437-.745 1.278-2.221 1.278-1.832 0-3.227-1.333-3.227-3.733 0-2.365 1.347-3.882 3.254-3.882 1.477 0 1.969.909 2.228 1.32h.117v-1.225h1.196v7.841c0 1.976-1.47 2.824-3.329 2.824Zm-.034-4.239c1.387 0 2.146-.998 2.146-2.666 0-1.62-.738-2.755-2.146-2.755-1.456 0-2.181 1.23-2.181 2.755 0 1.573.745 2.666 2.181 2.666Zm8.736 1.381c-2.215 0-3.582-1.572-3.582-3.924 0-2.345 1.354-3.978 3.438-3.978 1.621 0 3.33.998 3.33 3.821v.513h-5.934v-1.04h5.27l-.574.384c0-1.505-.711-2.584-2.092-2.584-1.38 0-2.194 1.141-2.194 2.385v.69c0 1.703.943 2.64 2.345 2.64.902 0 1.579-.397 1.866-1.176l1.19.328c-.356 1.155-1.498 1.941-3.063 1.941Zm7.547 0c-1.572 0-2.666-.697-2.94-2.017l1.169-.28c.219.841.841 1.217 1.757 1.217 1.067 0 1.75-.526 1.75-1.155 0-.527-.369-.875-1.121-1.053l-1.271-.3c-1.388-.329-2.051-1.013-2.051-2.086 0-1.312 1.203-2.228 2.83-2.228 1.572 0 2.399.765 2.748 1.839l-1.114.287c-.212-.547-.643-1.08-1.627-1.08-.909 0-1.593.471-1.593 1.107 0 .567.39.882 1.285 1.094l1.155.273c1.388.328 2.038 1.019 2.038 2.065 0 1.34-1.224 2.317-3.015 2.317Zm7.807-7.807v1.053h-3.952v-1.053h3.952Zm-2.803-1.818h1.23v7.479c0 .683.253.984.903.984a3.9 3.9 0 0 0 .629-.082l.252 1.039a2.954 2.954 0 0 1-.916.137c-1.319 0-2.098-.732-2.098-1.983V43.54ZM183.842 53v-7.643h1.23V53h-1.23Zm.622-8.894c-.465 0-.855-.362-.855-.813 0-.451.39-.813.855-.813.472 0 .861.362.861.813 0 .451-.389.813-.861.813Zm5.879 9.058c-2.078 0-3.48-1.579-3.48-3.937 0-2.393 1.402-3.965 3.48-3.965 2.085 0 3.493 1.572 3.493 3.965 0 2.358-1.408 3.937-3.493 3.937Zm0-1.1c1.545 0 2.249-1.334 2.249-2.837 0-1.518-.704-2.865-2.249-2.865-1.525 0-2.229 1.34-2.229 2.865 0 1.504.704 2.837 2.229 2.837Zm6.514-3.644V53h-1.23v-7.643h1.183l.006 1.853h-.17c.464-1.408 1.353-1.948 2.508-1.948 1.545 0 2.591.95 2.591 2.885V53h-1.237v-4.751c0-1.176-.656-1.88-1.723-1.88-1.1 0-1.928.745-1.928 2.05Zm9.653 4.744c-1.572 0-2.666-.697-2.94-2.017l1.169-.28c.219.841.841 1.217 1.757 1.217 1.066 0 1.75-.526 1.75-1.155 0-.527-.369-.875-1.121-1.053l-1.271-.3c-1.388-.329-2.051-1.013-2.051-2.086 0-1.312 1.203-2.228 2.83-2.228 1.572 0 2.399.765 2.748 1.839l-1.114.287c-.212-.547-.643-1.08-1.627-1.08-.91 0-1.593.471-1.593 1.107 0 .567.39.882 1.285 1.094l1.155.273c1.388.328 2.037 1.019 2.037 2.065 0 1.34-1.223 2.317-3.014 2.317Zm12.291-7.807v1.053h-4.498v-1.053h4.498ZM215.807 53v-8.661c0-1.326 1.059-2.003 2.173-2.003.582 0 .964.123 1.149.205l-.342 1.053c-.13-.041-.321-.117-.663-.117-.759 0-1.087.397-1.087 1.135V53h-1.23Zm7.594.164c-2.078 0-3.479-1.579-3.479-3.937 0-2.393 1.401-3.965 3.479-3.965 2.085 0 3.494 1.572 3.494 3.965 0 2.358-1.409 3.937-3.494 3.937Zm0-1.1c1.545 0 2.249-1.334 2.249-2.837 0-1.518-.704-2.865-2.249-2.865-1.524 0-2.228 1.34-2.228 2.865 0 1.504.704 2.837 2.228 2.837Zm5.285.936v-7.643h1.189v1.176h.082c.28-.772 1.073-1.285 1.982-1.285.178 0 .479.014.623.02v1.238a4.67 4.67 0 0 0-.739-.069c-1.1 0-1.907.746-1.907 1.778V53h-1.23Zm12.222-7.643v1.053h-3.951v-1.053h3.951Zm-2.803-1.818h1.231v7.479c0 .683.253.984.902.984.158 0 .424-.041.629-.082l.253 1.039a2.959 2.959 0 0 1-.916.137c-1.319 0-2.099-.732-2.099-1.983V43.54Zm5.606 4.88V53h-1.231V42.815h1.231v4.395h-.212c.465-1.408 1.354-1.948 2.509-1.948 1.545 0 2.591.95 2.591 2.885V53h-1.238v-4.751c0-1.176-.656-1.88-1.722-1.88-1.101 0-1.928.745-1.928 2.05ZM250.766 53v-7.643h1.23V53h-1.23Zm.622-8.894c-.465 0-.855-.362-.855-.813 0-.451.39-.813.855-.813.471 0 .861.362.861.813 0 .451-.39.813-.861.813Zm5.366 9.058c-1.572 0-2.666-.697-2.94-2.017l1.169-.28c.219.841.841 1.217 1.757 1.217 1.067 0 1.75-.526 1.75-1.155 0-.527-.369-.875-1.121-1.053l-1.271-.3c-1.388-.329-2.051-1.013-2.051-2.086 0-1.312 1.203-2.228 2.83-2.228 1.572 0 2.399.765 2.748 1.839l-1.114.287c-.212-.547-.643-1.08-1.627-1.08-.909 0-1.593.471-1.593 1.107 0 .567.39.882 1.285 1.094l1.155.273c1.388.328 2.038 1.019 2.038 2.065 0 1.34-1.224 2.317-3.015 2.317ZM265.49 53v-7.643h1.231V53h-1.231Zm.622-8.894c-.465 0-.854-.362-.854-.813 0-.451.389-.813.854-.813.472 0 .862.362.862.813 0 .451-.39.813-.862.813Zm3.999 4.314V53h-1.23v-7.643h1.182l.007 1.853h-.171c.465-1.408 1.354-1.948 2.509-1.948 1.545 0 2.591.95 2.591 2.885V53h-1.237v-4.751c0-1.176-.657-1.88-1.723-1.88-1.101 0-1.928.745-1.928 2.05Zm9.653 4.744c-1.573 0-2.666-.697-2.94-2.017l1.169-.28c.219.841.841 1.217 1.757 1.217 1.066 0 1.75-.526 1.75-1.155 0-.527-.369-.875-1.121-1.053l-1.272-.3c-1.387-.329-2.05-1.013-2.05-2.086 0-1.312 1.203-2.228 2.83-2.228 1.572 0 2.399.765 2.748 1.839l-1.114.287c-.212-.547-.643-1.08-1.627-1.08-.91 0-1.593.471-1.593 1.107 0 .567.389.882 1.285 1.094l1.155.273c1.388.328 2.037 1.019 2.037 2.065 0 1.34-1.223 2.317-3.014 2.317Zm7.806-7.807v1.053h-3.951v-1.053h3.951Zm-2.802-1.818h1.23v7.479c0 .683.253.984.902.984.158 0 .424-.041.629-.082l.253 1.039a2.959 2.959 0 0 1-.916.137c-1.319 0-2.098-.732-2.098-1.983V43.54Zm6.583 9.639c-1.45 0-2.605-.848-2.605-2.352 0-1.75 1.559-2.071 2.974-2.249 1.36-.17 1.962-.13 1.962-.697v-.041c0-.95-.54-1.497-1.6-1.497-1.101 0-1.695.588-1.935 1.12l-1.182-.389c.588-1.388 1.9-1.811 3.083-1.811 1.025 0 2.864.314 2.864 2.7V53h-1.21v-1.04h-.082c-.26.541-.977 1.218-2.269 1.218Zm.211-1.087c1.361 0 2.12-.916 2.12-1.853v-1.06c-.205.24-1.545.377-2.017.438-.895.116-1.682.404-1.682 1.272 0 .793.663 1.203 1.579 1.203Zm6.741-3.671V53h-1.231v-7.643h1.183l.007 1.853h-.171c.465-1.408 1.353-1.948 2.509-1.948 1.545 0 2.59.95 2.59 2.885V53h-1.237v-4.751c0-1.176-.656-1.88-1.723-1.88-1.1 0-1.927.745-1.927 2.05Zm10.165 4.744c-2.078 0-3.48-1.579-3.48-3.937 0-2.393 1.402-3.965 3.48-3.965 1.476 0 2.679.779 3.096 2.112l-1.182.335c-.226-.786-.909-1.347-1.914-1.347-1.525 0-2.229 1.34-2.229 2.865 0 1.504.704 2.837 2.229 2.837 1.025 0 1.722-.582 1.948-1.409l1.176.335c-.41 1.36-1.627 2.174-3.124 2.174Zm8.1 0c-2.214 0-3.582-1.572-3.582-3.924 0-2.345 1.354-3.978 3.439-3.978 1.62 0 3.329.998 3.329 3.821v.513h-5.934v-1.04h5.271l-.574.384c0-1.505-.711-2.584-2.092-2.584-1.381 0-2.195 1.141-2.195 2.385v.69c0 1.703.944 2.64 2.345 2.64.903 0 1.579-.397 1.866-1.176l1.19.328c-.356 1.155-1.497 1.941-3.063 1.941Z" fill="#333238"/><path d="m43.13 72-2.775-10.185h1.327l1.613 6.248a45.29 45.29 0 0 1 .677 3.15h-.157c.205-1.113.43-2.146.697-3.15l1.647-6.248h1.477l1.633 6.248c.267 1.004.5 2.037.712 3.15h-.178a44.98 44.98 0 0 1 .69-3.15l1.607-6.248h1.34L50.65 72h-1.51l-1.75-6.453a27.417 27.417 0 0 1-.636-3.083h.273c-.198 1.224-.376 2.119-.635 3.083L44.648 72h-1.517Zm12.975-4.58V72h-1.23V61.815h1.23v4.395h-.211c.464-1.408 1.353-1.948 2.508-1.948 1.545 0 2.591.95 2.591 2.885V72h-1.237v-4.751c0-1.176-.656-1.88-1.723-1.88-1.1 0-1.928.745-1.928 2.05Zm10.268 4.744c-2.215 0-3.582-1.572-3.582-3.924 0-2.344 1.353-3.978 3.439-3.978 1.62 0 3.329.998 3.329 3.821v.513h-5.934v-1.04h5.27l-.574.383c0-1.503-.71-2.583-2.091-2.583-1.381 0-2.195 1.141-2.195 2.385v.69c0 1.703.944 2.64 2.345 2.64.902 0 1.579-.397 1.866-1.177l1.19.329c-.356 1.155-1.498 1.941-3.063 1.941Zm6.18-4.744V72h-1.23v-7.643h1.182l.007 1.853h-.171c.465-1.408 1.353-1.948 2.509-1.948 1.544 0 2.59.95 2.59 2.885V72h-1.237v-4.751c0-1.176-.656-1.88-1.722-1.88-1.101 0-1.928.745-1.928 2.05Zm10.869 7.349.314-1.067.13.034c.752.199 1.292.034 1.668-1.06l.219-.635-2.919-7.684h1.347l1.627 4.533c.341.95.546 1.886.813 2.761h-.451c.26-.875.472-1.818.813-2.761l1.641-4.533h1.34l-3.357 8.785c-.464 1.216-1.203 1.77-2.283 1.77-.437 0-.772-.082-.902-.143Zm10.835-2.605c-2.078 0-3.48-1.579-3.48-3.937 0-2.393 1.402-3.965 3.48-3.965 2.085 0 3.493 1.572 3.493 3.965 0 2.358-1.408 3.937-3.493 3.937Zm0-1.1c1.545 0 2.249-1.333 2.249-2.837 0-1.518-.704-2.865-2.25-2.865-1.524 0-2.228 1.34-2.228 2.865 0 1.504.704 2.837 2.229 2.837Zm7.875 1.032c-1.545 0-2.591-.95-2.591-2.885v-4.854h1.23v4.751c0 1.176.664 1.88 1.73 1.88 1.094 0 1.921-.745 1.921-2.05v-4.58h1.237V72h-1.189v-1.853h.164c-.472 1.436-1.381 1.949-2.502 1.949Zm12.845.068c-2.215 0-3.582-1.572-3.582-3.924 0-2.344 1.353-3.978 3.438-3.978 1.62 0 3.329.998 3.329 3.821v.513h-5.933v-1.04h5.27l-.574.383c0-1.503-.711-2.583-2.092-2.583-1.381 0-2.194 1.141-2.194 2.385v.69c0 1.703.943 2.64 2.344 2.64.903 0 1.579-.397 1.867-1.177l1.189.329c-.355 1.155-1.497 1.941-3.062 1.941Zm6.179-4.744V72h-1.23v-7.643h1.182l.007 1.853h-.171c.465-1.408 1.354-1.948 2.509-1.948 1.545 0 2.591.95 2.591 2.885V72h-1.237v-4.751c0-1.176-.657-1.88-1.723-1.88-1.101 0-1.928.745-1.928 2.05Zm9.195 4.758c-1.45 0-2.605-.848-2.605-2.352 0-1.75 1.559-2.071 2.974-2.249 1.36-.17 1.962-.13 1.962-.697v-.041c0-.95-.54-1.497-1.6-1.497-1.101 0-1.695.588-1.935 1.12l-1.182-.389c.588-1.387 1.9-1.811 3.083-1.811 1.025 0 2.864.314 2.864 2.7V72h-1.21v-1.04h-.082c-.26.541-.977 1.218-2.269 1.218Zm.211-1.087c1.361 0 2.12-.916 2.12-1.853v-1.06c-.205.24-1.545.377-2.017.438-.895.116-1.682.403-1.682 1.272 0 .793.663 1.203 1.579 1.203Zm9.058 1.073c-1.456 0-1.969-.923-2.222-1.347h-.136V72h-1.19V61.815h1.231v3.766h.095c.253-.403.725-1.32 2.215-1.32 1.908 0 3.241 1.518 3.241 3.938 0 2.434-1.327 3.965-3.234 3.965Zm-.184-1.1c1.428 0 2.167-1.272 2.167-2.878 0-1.586-.718-2.824-2.167-2.824-1.409 0-2.147 1.135-2.147 2.824 0 1.702.759 2.877 2.147 2.877Zm6.924.99c-1.148 0-1.715-.642-1.715-1.75v-8.49h1.23v8.183c0 .704.123.957.636.957.266 0 .376-.02.492-.055l.246 1.04a3.557 3.557 0 0 1-.889.116Zm5.148.11c-2.215 0-3.582-1.572-3.582-3.924 0-2.344 1.353-3.978 3.438-3.978 1.62 0 3.329.998 3.329 3.821v.513h-5.933v-1.04h5.27l-.574.383c0-1.503-.711-2.583-2.092-2.583-1.381 0-2.194 1.141-2.194 2.385v.69c0 1.703.943 2.64 2.345 2.64.902 0 1.579-.397 1.866-1.177l1.189.329c-.355 1.155-1.497 1.941-3.062 1.941Zm11.894-7.807v1.053h-3.951v-1.053h3.951ZM160.6 62.54h1.23v7.479c0 .683.253.984.902.984.158 0 .424-.041.629-.082l.253 1.039a2.959 2.959 0 0 1-.916.137c-1.319 0-2.098-.732-2.098-1.983V62.54Zm5.605 4.88V72h-1.23V61.815h1.23v4.395h-.212c.465-1.408 1.354-1.948 2.509-1.948 1.545 0 2.591.95 2.591 2.885V72h-1.238v-4.751c0-1.176-.656-1.88-1.722-1.88-1.101 0-1.928.745-1.928 2.05ZM173.26 72v-7.643h1.23V72h-1.23Zm.622-8.894c-.465 0-.855-.362-.855-.813 0-.451.39-.813.855-.813.472 0 .861.362.861.813 0 .451-.389.813-.861.813Zm5.366 9.058c-1.572 0-2.666-.697-2.939-2.017l1.169-.28c.218.841.84 1.217 1.756 1.217 1.067 0 1.75-.526 1.75-1.155 0-.527-.369-.875-1.121-1.053l-1.271-.3c-1.388-.329-2.051-1.012-2.051-2.086 0-1.312 1.203-2.228 2.83-2.228 1.572 0 2.4.765 2.748 1.839l-1.114.287c-.212-.547-.643-1.08-1.627-1.08-.909 0-1.593.471-1.593 1.107 0 .567.39.882 1.285 1.094l1.156.273c1.387.328 2.037 1.019 2.037 2.065 0 1.34-1.224 2.317-3.015 2.317Zm12.291-7.807v1.053h-4.498v-1.053h4.498ZM188.545 72v-8.661c0-1.326 1.059-2.003 2.174-2.003.581 0 .964.123 1.148.205l-.342 1.053c-.129-.041-.321-.117-.663-.117-.758 0-1.087.397-1.087 1.135V72h-1.23Zm7.697.164c-2.215 0-3.582-1.572-3.582-3.924 0-2.344 1.354-3.978 3.439-3.978 1.62 0 3.329.998 3.329 3.821v.513h-5.934v-1.04h5.271l-.575.383c0-1.503-.711-2.583-2.091-2.583-1.381 0-2.195 1.141-2.195 2.385v.69c0 1.703.944 2.64 2.345 2.64.902 0 1.579-.397 1.866-1.177l1.19.329c-.356 1.155-1.497 1.941-3.063 1.941Zm7.226.014c-1.449 0-2.605-.848-2.605-2.352 0-1.75 1.559-2.071 2.974-2.249 1.36-.17 1.962-.13 1.962-.697v-.041c0-.95-.54-1.497-1.6-1.497-1.1 0-1.695.588-1.934 1.12l-1.183-.389c.588-1.387 1.9-1.811 3.083-1.811 1.025 0 2.864.314 2.864 2.7V72h-1.21v-1.04h-.082c-.259.541-.977 1.218-2.269 1.218Zm.212-1.087c1.36 0 2.119-.916 2.119-1.853v-1.06c-.205.24-1.545.377-2.017.438-.895.116-1.681.403-1.681 1.272 0 .793.663 1.203 1.579 1.203Zm8.517-6.734v1.053h-3.951v-1.053h3.951Zm-2.802-1.818h1.23v7.479c0 .683.253.984.902.984.158 0 .424-.041.629-.082l.253 1.039a2.959 2.959 0 0 1-.916.137c-1.319 0-2.098-.732-2.098-1.983V62.54Zm6.965 9.557c-1.545 0-2.59-.95-2.59-2.885v-4.854H215v4.751c0 1.176.663 1.88 1.729 1.88 1.094 0 1.921-.745 1.921-2.05v-4.58h1.238V72h-1.19v-1.853h.164c-.471 1.436-1.381 1.949-2.502 1.949Zm5.695-.096v-7.643h1.189v1.176h.082c.28-.772 1.073-1.285 1.983-1.285.177 0 .478.014.622.02v1.238a4.657 4.657 0 0 0-.739-.069c-1.1 0-1.907.746-1.907 1.778V72h-1.23Zm8.257.164c-2.214 0-3.582-1.572-3.582-3.924 0-2.344 1.354-3.978 3.439-3.978 1.62 0 3.329.998 3.329 3.821v.513h-5.934v-1.04h5.271l-.574.383c0-1.503-.711-2.583-2.092-2.583-1.381 0-2.194 1.141-2.194 2.385v.69c0 1.703.943 2.64 2.344 2.64.903 0 1.579-.397 1.867-1.177l1.189.329c-.355 1.155-1.497 1.941-3.063 1.941Zm4.745 2.29.601-3.876h1.408L236 74.454h-.943Zm8.052.315.315-1.067.13.034c.752.199 1.292.034 1.668-1.06l.218-.635-2.919-7.684h1.347l1.627 4.533c.342.95.547 1.886.814 2.761h-.452c.26-.875.472-1.818.814-2.761l1.641-4.533h1.339l-3.356 8.785c-.465 1.216-1.203 1.77-2.283 1.77-.438 0-.773-.082-.903-.143Zm10.835-2.605c-2.078 0-3.479-1.579-3.479-3.937 0-2.393 1.401-3.965 3.479-3.965 2.085 0 3.494 1.572 3.494 3.965 0 2.358-1.409 3.937-3.494 3.937Zm0-1.1c1.545 0 2.249-1.333 2.249-2.837 0-1.518-.704-2.865-2.249-2.865-1.524 0-2.228 1.34-2.228 2.865 0 1.504.704 2.837 2.228 2.837Zm7.875 1.032c-1.545 0-2.59-.95-2.59-2.885v-4.854h1.23v4.751c0 1.176.663 1.88 1.729 1.88 1.094 0 1.921-.745 1.921-2.05v-4.58h1.238V72h-1.19v-1.853h.164c-.471 1.436-1.381 1.949-2.502 1.949Zm11.772.082c-1.449 0-2.605-.848-2.605-2.352 0-1.75 1.559-2.071 2.974-2.249 1.36-.17 1.962-.13 1.962-.697v-.041c0-.95-.54-1.497-1.6-1.497-1.1 0-1.695.588-1.934 1.12l-1.183-.389c.588-1.387 1.9-1.811 3.083-1.811 1.025 0 2.864.314 2.864 2.7V72h-1.21v-1.04h-.082c-.259.541-.977 1.218-2.269 1.218Zm.212-1.087c1.36 0 2.119-.916 2.119-1.853v-1.06c-.205.24-1.545.377-2.017.438-.895.116-1.681.403-1.681 1.272 0 .793.663 1.203 1.579 1.203Zm8.62 1.073c-2.078 0-3.48-1.579-3.48-3.937 0-2.393 1.402-3.965 3.48-3.965 1.476 0 2.68.779 3.097 2.112l-1.183.335c-.226-.786-.909-1.347-1.914-1.347-1.525 0-2.229 1.34-2.229 2.865 0 1.504.704 2.837 2.229 2.837 1.025 0 1.723-.582 1.948-1.409l1.176.335c-.41 1.36-1.627 2.174-3.124 2.174Zm7.998 0c-2.078 0-3.48-1.579-3.48-3.937 0-2.393 1.402-3.965 3.48-3.965 1.476 0 2.68.779 3.097 2.112l-1.183.335c-.226-.786-.909-1.347-1.914-1.347-1.525 0-2.229 1.34-2.229 2.865 0 1.504.704 2.837 2.229 2.837 1.025 0 1.723-.582 1.948-1.409l1.176.335c-.41 1.36-1.627 2.174-3.124 2.174Zm8.1 0c-2.214 0-3.582-1.572-3.582-3.924 0-2.344 1.354-3.978 3.439-3.978 1.62 0 3.329.998 3.329 3.821v.513h-5.934v-1.04h5.271l-.574.383c0-1.503-.711-2.583-2.092-2.583-1.381 0-2.194 1.141-2.194 2.385v.69c0 1.703.943 2.64 2.344 2.64.903 0 1.579-.397 1.867-1.177l1.189.329c-.355 1.155-1.497 1.941-3.063 1.941Zm4.95 2.693v-10.5h1.189v1.224h.137c.253-.403.724-1.32 2.215-1.32 1.907 0 3.24 1.518 3.24 3.938 0 2.434-1.326 3.965-3.233 3.965-1.457 0-1.969-.923-2.222-1.347h-.096v4.04h-1.23Zm3.363-3.793c1.429 0 2.167-1.272 2.167-2.878 0-1.586-.718-2.824-2.167-2.824-1.408 0-2.146 1.135-2.146 2.824 0 1.702.758 2.877 2.146 2.877Zm8.217-6.707v1.053H311.1v-1.053h3.951Zm-2.803-1.818h1.231v7.479c0 .683.252.984.902.984.157 0 .424-.041.629-.082l.253 1.039a2.964 2.964 0 0 1-.916.137c-1.32 0-2.099-.732-2.099-1.983V62.54Zm11.32 1.818v1.053h-3.951v-1.053h3.951Zm-2.802-1.818h1.23v7.479c0 .683.253.984.902.984.158 0 .424-.041.629-.082l.253 1.039a2.959 2.959 0 0 1-.916.137c-1.319 0-2.098-.732-2.098-1.983V62.54Zm5.605 4.88V72h-1.23V61.815h1.23v4.395h-.212c.465-1.408 1.354-1.948 2.509-1.948 1.545 0 2.591.95 2.591 2.885V72h-1.238v-4.751c0-1.176-.656-1.88-1.722-1.88-1.101 0-1.928.745-1.928 2.05Zm10.268 4.745c-2.215 0-3.582-1.572-3.582-3.924 0-2.344 1.353-3.978 3.438-3.978 1.62 0 3.329.998 3.329 3.821v.513h-5.933v-1.04h5.27l-.574.383c0-1.503-.711-2.583-2.092-2.583-1.381 0-2.194 1.141-2.194 2.385v.69c0 1.703.943 2.64 2.345 2.64.902 0 1.579-.397 1.866-1.177l1.189.329c-.355 1.155-1.497 1.941-3.062 1.941Zm181.713-.075a.92.92 0 0 1 0-1.839c.505 0 .922.41.922.916a.923.923 0 0 1-.922.923Z" fill="#737278"/><path d="M349.839 72.137c-2.721 0-4.56-2.003-4.56-5.223 0-3.233 1.867-5.236 4.478-5.236 2.153 0 3.814 1.353 4.183 3.329h-1.339c-.417-1.306-1.395-2.126-2.837-2.126-1.791 0-3.22 1.415-3.22 4.033 0 2.598 1.422 4.02 3.295 4.02 1.723 0 2.905-1.162 2.905-2.995l.39.076h-3.029V66.88h3.911v1.114c0 2.53-1.75 4.143-4.177 4.143Zm6.132-.137v-7.643h1.23V72h-1.23Zm.622-8.894c-.465 0-.855-.362-.855-.813 0-.451.39-.813.855-.813.471 0 .861.362.861.813 0 .451-.39.813-.861.813Zm5.776 1.251v1.053h-3.951v-1.053h3.951Zm-2.803-1.818h1.231v7.479c0 .683.253.984.902.984.157 0 .424-.041.629-.082l.253 1.039a2.964 2.964 0 0 1-.916.137c-1.319 0-2.099-.732-2.099-1.983V62.54ZM364.092 72V61.815h1.299v9.037h4.716V72h-6.015Zm9.905.178c-1.449 0-2.604-.848-2.604-2.352 0-1.75 1.558-2.071 2.973-2.249 1.361-.17 1.962-.13 1.962-.697v-.041c0-.95-.54-1.497-1.599-1.497-1.101 0-1.696.588-1.935 1.12l-1.183-.389c.588-1.387 1.901-1.811 3.083-1.811 1.026 0 2.865.314 2.865 2.7V72h-1.21v-1.04h-.082c-.26.541-.978 1.218-2.27 1.218Zm.212-1.087c1.36 0 2.119-.916 2.119-1.853v-1.06c-.205.24-1.545.377-2.016.438-.896.116-1.682.403-1.682 1.272 0 .793.663 1.203 1.579 1.203Zm9.058 1.073c-1.456 0-1.969-.923-2.222-1.347h-.137V72h-1.189V61.815h1.23v3.766h.096c.253-.403.725-1.32 2.215-1.32 1.907 0 3.24 1.518 3.24 3.938 0 2.434-1.326 3.965-3.233 3.965Zm-.185-1.1c1.429 0 2.167-1.272 2.167-2.878 0-1.586-.718-2.824-2.167-2.824-1.408 0-2.146 1.135-2.146 2.824 0 1.702.758 2.877 2.146 2.877Zm8.736-8.101v-1.148h7.698v1.148h-3.193V72h-1.299v-9.037h-3.206Zm11.567 9.201c-2.215 0-3.582-1.572-3.582-3.924 0-2.344 1.353-3.978 3.438-3.978 1.62 0 3.329.998 3.329 3.821v.513h-5.933v-1.04h5.27l-.574.383c0-1.503-.711-2.583-2.092-2.583-1.381 0-2.194 1.141-2.194 2.385v.69c0 1.703.943 2.64 2.345 2.64.902 0 1.579-.397 1.866-1.177l1.189.329c-.355 1.155-1.497 1.941-3.062 1.941Zm7.547 0c-1.573 0-2.666-.697-2.94-2.017l1.169-.28c.219.841.841 1.217 1.757 1.217 1.066 0 1.75-.526 1.75-1.155 0-.527-.369-.875-1.121-1.053l-1.272-.3c-1.387-.329-2.05-1.012-2.05-2.086 0-1.312 1.203-2.228 2.83-2.228 1.572 0 2.399.765 2.748 1.839l-1.115.287c-.211-.547-.642-1.08-1.626-1.08-.91 0-1.593.471-1.593 1.107 0 .567.389.882 1.285 1.094l1.155.273c1.388.328 2.037 1.019 2.037 2.065 0 1.34-1.223 2.317-3.014 2.317Zm7.806-7.807v1.053h-3.951v-1.053h3.951Zm-2.802-1.818h1.23v7.479c0 .683.253.984.902.984.158 0 .424-.041.629-.082l.253 1.039a2.959 2.959 0 0 1-.916.137c-1.319 0-2.098-.732-2.098-1.983V62.54ZM420.311 72v-7.643h1.23V72h-1.23Zm.622-8.894c-.465 0-.855-.362-.855-.813 0-.451.39-.813.855-.813.471 0 .861.362.861.813 0 .451-.39.813-.861.813Zm3.999 4.314V72h-1.231v-7.643h1.183l.007 1.853h-.171c.465-1.408 1.353-1.948 2.509-1.948 1.544 0 2.59.95 2.59 2.885V72h-1.237v-4.751c0-1.176-.656-1.88-1.723-1.88-1.1 0-1.927.745-1.927 2.05Zm10.151 7.602c-1.695 0-2.673-.718-3.145-1.56l.999-.642c.321.445.799 1.128 2.146 1.128 1.217 0 2.099-.56 2.099-1.818v-1.531h-.117c-.259.437-.745 1.278-2.221 1.278-1.832 0-3.227-1.333-3.227-3.733 0-2.365 1.347-3.882 3.254-3.882 1.477 0 1.969.909 2.229 1.32h.116v-1.225h1.196v7.841c0 1.976-1.47 2.824-3.329 2.824Zm-.034-4.239c1.388 0 2.146-.998 2.146-2.666 0-1.62-.738-2.755-2.146-2.755-1.456 0-2.181 1.23-2.181 2.755 0 1.572.745 2.666 2.181 2.666ZM443.785 72l3.698-10.185h1.504L452.733 72h-1.367l-2.16-6.043c-.267-.745-.602-1.805-1.101-3.534h.247a63.094 63.094 0 0 1-1.087 3.534L445.166 72h-1.381Zm1.86-2.844v-1.135h5.229v1.135h-5.229Zm11.627 5.865c-1.695 0-2.672-.717-3.144-1.558l.998-.643c.321.445.8 1.128 2.146 1.128 1.217 0 2.099-.56 2.099-1.818v-1.531h-.116c-.26.437-.745 1.278-2.222 1.278-1.832 0-3.226-1.333-3.226-3.733 0-2.365 1.346-3.882 3.254-3.882 1.476 0 1.968.909 2.228 1.32h.116v-1.225h1.197v7.841c0 1.976-1.47 2.824-3.33 2.824Zm-.034-4.238c1.388 0 2.147-.998 2.147-2.666 0-1.62-.739-2.755-2.147-2.755-1.456 0-2.18 1.23-2.18 2.755 0 1.572.745 2.666 2.18 2.666ZM462.762 72v-7.643h1.189v1.176h.082c.28-.772 1.073-1.285 1.983-1.285.177 0 .478.014.622.02v1.238a4.657 4.657 0 0 0-.739-.069c-1.1 0-1.907.746-1.907 1.778V72h-1.23Zm8.258.164c-2.215 0-3.582-1.572-3.582-3.924 0-2.344 1.353-3.978 3.438-3.978 1.62 0 3.329.998 3.329 3.821v.513h-5.934v-1.04h5.271l-.574.383c0-1.503-.711-2.583-2.092-2.583-1.381 0-2.194 1.141-2.194 2.385v.69c0 1.703.943 2.64 2.344 2.64.903 0 1.579-.397 1.867-1.177l1.189.329c-.355 1.155-1.497 1.941-3.062 1.941Zm8.162 0c-2.215 0-3.582-1.572-3.582-3.924 0-2.344 1.353-3.978 3.438-3.978 1.62 0 3.329.998 3.329 3.821v.513h-5.933v-1.04h5.27l-.574.383c0-1.503-.711-2.583-2.092-2.583-1.381 0-2.194 1.141-2.194 2.385v.69c0 1.703.943 2.64 2.344 2.64.903 0 1.58-.397 1.867-1.177l1.189.329c-.355 1.155-1.497 1.941-3.062 1.941Zm4.949-.164v-7.643h1.196l.007 1.71h-.096c.308-1.238 1.244-1.846 2.236-1.846 1.107 0 1.811.752 2.016 1.86h-.164c.274-1.142 1.285-1.86 2.502-1.86 1.326 0 2.406.854 2.406 2.625V72h-1.237v-5.12c0-1.1-.718-1.538-1.538-1.538-1.032 0-1.661.704-1.661 1.668V72h-1.231v-5.243c0-.848-.635-1.415-1.497-1.415-.895 0-1.709.629-1.709 1.846V72h-1.23Zm15.476.164c-2.214 0-3.582-1.572-3.582-3.924 0-2.344 1.354-3.978 3.439-3.978 1.62 0 3.329.998 3.329 3.821v.513h-5.934v-1.04h5.271l-.574.383c0-1.503-.711-2.583-2.092-2.583-1.381 0-2.194 1.141-2.194 2.385v.69c0 1.703.943 2.64 2.344 2.64.903 0 1.579-.397 1.866-1.177l1.19.329c-.356 1.155-1.497 1.941-3.063 1.941Zm6.18-4.744V72h-1.23v-7.643h1.182l.007 1.853h-.171c.465-1.408 1.354-1.948 2.509-1.948 1.545 0 2.591.95 2.591 2.885V72h-1.237v-4.751c0-1.176-.657-1.88-1.723-1.88-1.101 0-1.928.745-1.928 2.05Zm10.063-3.063v1.053h-3.952v-1.053h3.952Zm-2.803-1.818h1.23v7.479c0 .683.253.984.903.984.157 0 .424-.041.629-.082l.253 1.039a2.964 2.964 0 0 1-.916.137c-1.32 0-2.099-.732-2.099-1.983V62.54Z" fill="#0B5CAD"/><path d="M344.445 73.9h171.897v.957H344.445V73.9Z" fill="#0B5CAD"/><path d="M516.342 73.9h4.026v.957h-4.026V73.9Z" fill="#737278"/><a><path d="M304.445-.47h171.896v16.939H304.445z"/></a><rect x="150" y="16" width="42" height="16" rx="8" fill="#ECECEF"/><rect x="150" y="16" width="42" height="16" rx="8" stroke="#BFBFC3"/><path d="M159.055 28v-8.73h3.093c1.823 0 2.684 1.037 2.684 2.314 0 1.12-.668 1.629-1.43 1.834v.082c.815.053 1.77.803 1.77 2.174 0 1.318-.867 2.326-2.924 2.326h-3.193Zm1.113-.984h2.051c1.359 0 1.881-.598 1.881-1.354 0-.873-.704-1.623-1.823-1.623h-2.109v2.977Zm0-3.914h1.922c.937 0 1.676-.592 1.676-1.495 0-.755-.51-1.353-1.641-1.353h-1.957v2.848Zm9.363 5.039c-1.898 0-3.07-1.348-3.07-3.364 0-2.01 1.16-3.41 2.947-3.41 1.389 0 2.854.856 2.854 3.276v.439h-5.086v-.89h4.517l-.492.328c0-1.29-.609-2.215-1.793-2.215-1.183 0-1.881.978-1.881 2.045v.591c0 1.46.809 2.262 2.01 2.262.774 0 1.354-.34 1.6-1.008l1.019.282c-.304.99-1.283 1.664-2.625 1.664Zm6.821-6.692v.903h-3.387v-.903h3.387Zm-2.403-1.558h1.055v6.41c0 .586.217.844.773.844.135 0 .364-.036.539-.07l.217.89a2.536 2.536 0 0 1-.785.117c-1.131 0-1.799-.627-1.799-1.7v-6.491Zm5.643 8.261c-1.242 0-2.233-.726-2.233-2.015 0-1.5 1.336-1.776 2.549-1.928 1.166-.146 1.682-.111 1.682-.598v-.035c0-.814-.463-1.283-1.371-1.283-.944 0-1.453.504-1.658.96l-1.014-.333c.504-1.19 1.629-1.553 2.642-1.553.879 0 2.456.27 2.456 2.315V28h-1.038v-.89h-.07c-.223.462-.838 1.042-1.945 1.042Zm.181-.931c1.166 0 1.817-.785 1.817-1.588v-.908c-.176.205-1.324.322-1.729.375-.767.1-1.441.345-1.441 1.09 0 .68.568 1.03 1.353 1.03Z" fill="#626168"/></svg>