<svg width="536" height="91" viewBox="0 0 536 91" fill="none" xmlns="http://www.w3.org/2000/svg">
<rect width="536" height="91" fill="white"/>
<path d="M21.373 29.1367C18.6455 29.1367 16.6152 27.2363 16.6152 23.9141C16.6152 20.5781 18.6797 18.6777 21.373 18.6777C23.7178 18.6777 25.4883 20.0176 25.7891 22.3281H23.5811C23.4033 21.2549 22.5625 20.6055 21.4209 20.6055C19.8555 20.6055 18.8301 21.8086 18.8301 23.9141C18.8301 26.0811 19.8691 27.2158 21.4141 27.2158C22.5488 27.2158 23.3965 26.5664 23.5947 25.4863H25.7959C25.5703 27.3594 23.998 29.1367 21.373 29.1367ZM30.6768 29.1504C28.3525 29.1504 26.9102 27.5645 26.9102 25.2129C26.9102 22.8477 28.3525 21.2617 30.6768 21.2617C33.001 21.2617 34.4434 22.8477 34.4434 25.2129C34.4434 27.5645 33.001 29.1504 30.6768 29.1504ZM30.6768 27.4824C31.7227 27.4824 32.2627 26.5254 32.2627 25.2061C32.2627 23.873 31.7227 22.9365 30.6768 22.9365C29.6377 22.9365 29.0977 23.873 29.0977 25.2061C29.0977 26.5254 29.6377 27.4824 30.6768 27.4824ZM38.627 29.123C36.8838 29.123 35.5234 27.749 35.5234 25.1924C35.5234 22.5674 36.9385 21.2617 38.6133 21.2617C39.8848 21.2617 40.5068 22.0273 40.7803 22.6562H40.8486V18.8145H42.9883V29H40.876V27.7764H40.7803C40.4932 28.4121 39.8506 29.123 38.627 29.123ZM39.3037 27.4209C40.3086 27.4209 40.8896 26.5322 40.8896 25.1855C40.8896 23.832 40.3223 22.9707 39.3037 22.9707C38.2715 22.9707 37.7246 23.873 37.7246 25.1855C37.7246 26.5049 38.2783 27.4209 39.3037 27.4209ZM48.1836 29.1504C45.8252 29.1504 44.3828 27.6465 44.3828 25.2197C44.3828 22.8613 45.832 21.2617 48.0811 21.2617C50.1182 21.2617 51.6973 22.5605 51.6973 25.1445V25.7324H45.2305V24.4131H50.6582L49.6533 24.7549C49.6533 23.5996 49.127 22.8613 48.1016 22.8613C47.0693 22.8613 46.502 23.6201 46.502 24.6729V25.6094C46.502 26.8945 47.1855 27.5576 48.2178 27.5576C48.915 27.5576 49.4414 27.2568 49.6533 26.6895L51.5811 27.0312C51.2051 28.3164 49.9746 29.1504 48.1836 29.1504ZM60.1465 29.1504C57.665 29.1504 56.0791 28.002 56.0244 25.7871H58.1299C58.1982 26.8125 58.998 27.3184 60.1191 27.3184C61.1992 27.3184 61.9033 26.8193 61.9033 26.0811C61.9033 25.4111 61.2881 25.0967 60.1807 24.8301L59.0732 24.5566C57.3369 24.1396 56.291 23.2715 56.291 21.7676C56.291 19.9219 57.9248 18.6777 60.1602 18.6777C62.4502 18.6777 63.9336 19.9424 63.9609 21.7607H61.8623C61.7871 20.9609 61.165 20.5029 60.1465 20.5029C59.1074 20.5029 58.5332 20.9814 58.5332 21.6309C58.5332 22.3486 59.251 22.6699 60.126 22.875L61.0352 23.0938C62.8193 23.4971 64.0977 24.3994 64.0977 26.0879C64.0977 27.9678 62.6279 29.1504 60.1465 29.1504ZM68.1445 29.0957C66.5518 29.0957 65.5059 27.9951 65.5059 26.2246V21.3574H67.6455V25.835C67.6455 26.7646 68.1514 27.3184 68.9922 27.3184C69.8398 27.3184 70.4277 26.7441 70.4277 25.7666V21.3574H72.5742V29H70.5508L70.5166 27.0859H70.6328C70.2363 28.3574 69.4297 29.0957 68.1445 29.0957ZM77.7012 32.0215C75.7666 32.0215 74.5498 31.2354 74.2354 30.1143L76.0811 29.6426C76.2588 30.0664 76.7305 30.4902 77.6875 30.4902C78.7129 30.4902 79.3213 30.0322 79.3213 29.0479V27.6533H79.1572C78.877 28.2959 78.2617 28.8975 77.0518 28.8975C75.3428 28.8975 73.9551 27.7148 73.9551 25.1719C73.9551 22.5674 75.3838 21.2617 77.0586 21.2617C78.3232 21.2617 78.9658 22.0205 79.2529 22.6562H79.3281V21.3574H81.4404V28.9111C81.4404 30.9893 79.8887 32.0215 77.7012 32.0215ZM77.7422 27.2842C78.7539 27.2842 79.3281 26.4912 79.3281 25.1582C79.3281 23.832 78.7607 22.9707 77.7422 22.9707C76.71 22.9707 76.1562 23.873 76.1562 25.1582C76.1562 26.4639 76.7168 27.2842 77.7422 27.2842ZM86.5742 32.0215C84.6396 32.0215 83.4229 31.2354 83.1084 30.1143L84.9541 29.6426C85.1318 30.0664 85.6035 30.4902 86.5605 30.4902C87.5859 30.4902 88.1943 30.0322 88.1943 29.0479V27.6533H88.0303C87.75 28.2959 87.1348 28.8975 85.9248 28.8975C84.2158 28.8975 82.8281 27.7148 82.8281 25.1719C82.8281 22.5674 84.2568 21.2617 85.9316 21.2617C87.1963 21.2617 87.8389 22.0205 88.126 22.6562H88.2012V21.3574H90.3135V28.9111C90.3135 30.9893 88.7617 32.0215 86.5742 32.0215ZM86.6152 27.2842C87.627 27.2842 88.2012 26.4912 88.2012 25.1582C88.2012 23.832 87.6338 22.9707 86.6152 22.9707C85.583 22.9707 85.0293 23.873 85.0293 25.1582C85.0293 26.4639 85.5898 27.2842 86.6152 27.2842ZM95.502 29.1504C93.1436 29.1504 91.7012 27.6465 91.7012 25.2197C91.7012 22.8613 93.1504 21.2617 95.3994 21.2617C97.4365 21.2617 99.0156 22.5605 99.0156 25.1445V25.7324H92.5488V24.4131H97.9766L96.9717 24.7549C96.9717 23.5996 96.4453 22.8613 95.4199 22.8613C94.3877 22.8613 93.8203 23.6201 93.8203 24.6729V25.6094C93.8203 26.8945 94.5039 27.5576 95.5361 27.5576C96.2334 27.5576 96.7598 27.2568 96.9717 26.6895L98.8994 27.0312C98.5234 28.3164 97.293 29.1504 95.502 29.1504ZM103.466 29.1504C101.593 29.1504 100.308 28.3164 100.041 26.8877L102.037 26.5527C102.229 27.25 102.7 27.6055 103.534 27.6055C104.286 27.6055 104.751 27.291 104.751 26.8535C104.751 26.4639 104.437 26.2314 103.773 26.0947L102.454 25.8281C100.971 25.5273 100.239 24.8027 100.239 23.6475C100.239 22.1709 101.524 21.2617 103.486 21.2617C105.332 21.2617 106.446 22.0615 106.727 23.3262L104.833 23.6475C104.676 23.1279 104.238 22.7861 103.527 22.7861C102.878 22.7861 102.379 23.0801 102.379 23.5176C102.379 23.8799 102.625 24.1396 103.329 24.2832L104.724 24.5566C106.214 24.8574 106.932 25.5273 106.932 26.6211C106.932 28.1455 105.496 29.1504 103.466 29.1504ZM112.168 21.3574V22.9775H107.574V21.3574H112.168ZM108.613 19.5391H110.753V26.7373C110.753 27.2021 110.951 27.4209 111.43 27.4209C111.587 27.4209 111.936 27.3662 112.079 27.332L112.38 28.9248C111.901 29.0615 111.43 29.1094 111.006 29.1094C109.447 29.1094 108.613 28.3438 108.613 26.9287V19.5391ZM113.48 29V21.3574H115.62V29H113.48ZM114.547 20.3936C113.918 20.3936 113.398 19.9082 113.398 19.3135C113.398 18.7119 113.918 18.2334 114.547 18.2334C115.183 18.2334 115.709 18.7119 115.709 19.3135C115.709 19.9082 115.183 20.3936 114.547 20.3936ZM120.774 29.1504C118.45 29.1504 117.008 27.5645 117.008 25.2129C117.008 22.8477 118.45 21.2617 120.774 21.2617C123.099 21.2617 124.541 22.8477 124.541 25.2129C124.541 27.5645 123.099 29.1504 120.774 29.1504ZM120.774 27.4824C121.82 27.4824 122.36 26.5254 122.36 25.2061C122.36 23.873 121.82 22.9365 120.774 22.9365C119.735 22.9365 119.195 23.873 119.195 25.2061C119.195 26.5254 119.735 27.4824 120.774 27.4824ZM128.075 24.5977V29H125.936V21.3574H127.952L127.993 23.2715H127.87C128.267 22.0205 129.06 21.2617 130.365 21.2617C131.958 21.2617 133.004 22.3691 133.004 24.1396V29H130.857V24.5293C130.857 23.5996 130.352 23.0459 129.511 23.0459C128.663 23.0459 128.075 23.6201 128.075 24.5977ZM137.782 29.1504C135.909 29.1504 134.624 28.3164 134.357 26.8877L136.354 26.5527C136.545 27.25 137.017 27.6055 137.851 27.6055C138.603 27.6055 139.067 27.291 139.067 26.8535C139.067 26.4639 138.753 26.2314 138.09 26.0947L136.771 25.8281C135.287 25.5273 134.556 24.8027 134.556 23.6475C134.556 22.1709 135.841 21.2617 137.803 21.2617C139.648 21.2617 140.763 22.0615 141.043 23.3262L139.149 23.6475C138.992 23.1279 138.555 22.7861 137.844 22.7861C137.194 22.7861 136.695 23.0801 136.695 23.5176C136.695 23.8799 136.941 24.1396 137.646 24.2832L139.04 24.5566C140.53 24.8574 141.248 25.5273 141.248 26.6211C141.248 28.1455 139.812 29.1504 137.782 29.1504Z" fill="#303030"/>
<rect x="16" y="40" width="16" height="16" rx="4" fill="#1F75CB"/>
<path d="M19.75 48.7629L22.1531 51.2468L28.25 45.1499" stroke="white" stroke-width="1.5" stroke-linecap="round" stroke-linejoin="round"/>
<path d="M41.2305 53V42.8145H47.4375V43.9629H42.5293V47.2852H47.1025V48.4336H42.5293V51.8516H47.499V53H41.2305ZM50.7324 48.4199V53H49.502V45.3574H50.6846L50.6914 47.21H50.5205C50.9854 45.8018 51.874 45.2617 53.0293 45.2617C54.5742 45.2617 55.6201 46.2119 55.6201 48.1465V53H54.3828V48.249C54.3828 47.0732 53.7266 46.3691 52.6602 46.3691C51.5596 46.3691 50.7324 47.1143 50.7324 48.4199ZM59.9268 53.1777C58.4775 53.1777 57.3223 52.3301 57.3223 50.8262C57.3223 49.0762 58.8809 48.7549 60.2959 48.5771C61.6562 48.4062 62.2578 48.4473 62.2578 47.8799V47.8389C62.2578 46.8887 61.7178 46.3418 60.6582 46.3418C59.5576 46.3418 58.9629 46.9297 58.7236 47.4629L57.541 47.0732C58.1289 45.6855 59.4414 45.2617 60.624 45.2617C61.6494 45.2617 63.4883 45.5762 63.4883 47.9619V53H62.2783V51.9609H62.1963C61.9365 52.501 61.2188 53.1777 59.9268 53.1777ZM60.1387 52.0908C61.499 52.0908 62.2578 51.1748 62.2578 50.2383V49.1787C62.0527 49.418 60.7129 49.5547 60.2412 49.6162C59.3457 49.7324 58.5596 50.0195 58.5596 50.8877C58.5596 51.6807 59.2227 52.0908 60.1387 52.0908ZM69.1963 53.1641C67.7402 53.1641 67.2275 52.2412 66.9746 51.8174H66.8379V53H65.6484V42.8145H66.8789V46.5811H66.9746C67.2275 46.1777 67.6992 45.2617 69.1895 45.2617C71.0967 45.2617 72.4297 46.7793 72.4297 49.1992C72.4297 51.6328 71.1035 53.1641 69.1963 53.1641ZM69.0117 52.0635C70.4404 52.0635 71.1787 50.792 71.1787 49.1855C71.1787 47.5996 70.4609 46.3623 69.0117 46.3623C67.6035 46.3623 66.8652 47.4971 66.8652 49.1855C66.8652 50.8877 67.624 52.0635 69.0117 52.0635ZM75.9365 53.0547C74.7881 53.0547 74.2207 52.4121 74.2207 51.3047V42.8145H75.4512V50.9971C75.4512 51.7012 75.5742 51.9541 76.0869 51.9541C76.3535 51.9541 76.4629 51.9336 76.5791 51.8994L76.8252 52.9385C76.6064 53 76.2646 53.0547 75.9365 53.0547ZM81.084 53.1641C78.8691 53.1641 77.502 51.5918 77.502 49.2402C77.502 46.8955 78.8555 45.2617 80.9404 45.2617C82.5605 45.2617 84.2695 46.2598 84.2695 49.083V49.5957H78.3359V48.5566H83.6064L83.0322 48.9395C83.0322 47.4355 82.3213 46.3555 80.9404 46.3555C79.5596 46.3555 78.7461 47.4971 78.7461 48.7412V49.4316C78.7461 51.1338 79.6895 52.0703 81.0908 52.0703C81.9932 52.0703 82.6699 51.6738 82.957 50.8945L84.1465 51.2227C83.791 52.3779 82.6494 53.1641 81.084 53.1641ZM94.2432 53.1367C91.6318 53.1367 89.7246 51.1406 89.7246 47.9141C89.7246 44.6807 91.6318 42.6777 94.2432 42.6777C96.3076 42.6777 97.9893 43.9219 98.3516 46.0205H97.0527C96.7656 44.626 95.5693 43.8809 94.2432 43.8809C92.4111 43.8809 90.9893 45.3027 90.9893 47.9141C90.9893 50.5186 92.418 51.9336 94.2432 51.9336C95.5762 51.9336 96.7656 51.1816 97.0527 49.7939H98.3516C97.9961 51.8652 96.3281 53.1367 94.2432 53.1367ZM103.308 53.1641C101.229 53.1641 99.8281 51.585 99.8281 49.2266C99.8281 46.834 101.229 45.2617 103.308 45.2617C105.393 45.2617 106.801 46.834 106.801 49.2266C106.801 51.585 105.393 53.1641 103.308 53.1641ZM103.308 52.0635C104.853 52.0635 105.557 50.7305 105.557 49.2266C105.557 47.709 104.853 46.3623 103.308 46.3623C101.783 46.3623 101.079 47.7021 101.079 49.2266C101.079 50.7305 101.783 52.0635 103.308 52.0635ZM111.456 53.1641C109.549 53.1641 108.223 51.6328 108.223 49.1992C108.223 46.7793 109.556 45.2617 111.463 45.2617C112.953 45.2617 113.425 46.1777 113.678 46.5811H113.773V42.8145H115.004V53H113.814V51.8174H113.678C113.425 52.2412 112.912 53.1641 111.456 53.1641ZM111.641 52.0635C113.028 52.0635 113.787 50.8877 113.787 49.1855C113.787 47.4971 113.049 46.3623 111.641 46.3623C110.191 46.3623 109.474 47.5996 109.474 49.1855C109.474 50.792 110.212 52.0635 111.641 52.0635ZM120.377 53.1641C118.162 53.1641 116.795 51.5918 116.795 49.2402C116.795 46.8955 118.148 45.2617 120.233 45.2617C121.854 45.2617 123.562 46.2598 123.562 49.083V49.5957H117.629V48.5566H122.899L122.325 48.9395C122.325 47.4355 121.614 46.3555 120.233 46.3555C118.853 46.3555 118.039 47.4971 118.039 48.7412V49.4316C118.039 51.1338 118.982 52.0703 120.384 52.0703C121.286 52.0703 121.963 51.6738 122.25 50.8945L123.439 51.2227C123.084 52.3779 121.942 53.1641 120.377 53.1641ZM132.675 53.1777C130.467 53.1777 129.093 52.043 128.977 50.334H130.31C130.412 51.4893 131.479 52.0156 132.675 52.0156C134.056 52.0156 135.108 51.291 135.108 50.2041C135.108 49.2197 134.179 48.8574 133.092 48.5498L131.861 48.2012C130.221 47.7363 129.264 46.8955 129.264 45.542C129.264 43.8193 130.795 42.6777 132.764 42.6777C134.773 42.6777 136.175 43.8467 136.236 45.3848H134.965C134.849 44.3936 133.933 43.8262 132.723 43.8262C131.403 43.8262 130.528 44.5234 130.528 45.4805C130.528 46.5469 131.725 46.9229 132.47 47.1279L133.488 47.4082C134.582 47.709 136.373 48.3242 136.373 50.2246C136.373 51.8926 135.026 53.1777 132.675 53.1777ZM140.837 53.0957C139.292 53.0957 138.246 52.1455 138.246 50.2109V45.3574H139.477V50.1084C139.477 51.2842 140.14 51.9883 141.206 51.9883C142.3 51.9883 143.127 51.2432 143.127 49.9375V45.3574H144.364V53H143.175V51.1475H143.339C142.867 52.583 141.958 53.0957 140.837 53.0957ZM149.628 56.0215C147.933 56.0215 146.955 55.3037 146.483 54.4629L147.481 53.8203C147.803 54.2646 148.281 54.9482 149.628 54.9482C150.845 54.9482 151.727 54.3877 151.727 53.1299V51.5986H151.61C151.351 52.0361 150.865 52.877 149.389 52.877C147.557 52.877 146.162 51.5439 146.162 49.1445C146.162 46.7793 147.509 45.2617 149.416 45.2617C150.893 45.2617 151.385 46.1709 151.645 46.5811H151.761V45.3574H152.957V53.1982C152.957 55.1738 151.487 56.0215 149.628 56.0215ZM149.594 51.7832C150.981 51.7832 151.74 50.7852 151.74 49.1172C151.74 47.4971 151.002 46.3623 149.594 46.3623C148.138 46.3623 147.413 47.5928 147.413 49.1172C147.413 50.6895 148.158 51.7832 149.594 51.7832ZM158.214 56.0215C156.519 56.0215 155.541 55.3037 155.069 54.4629L156.067 53.8203C156.389 54.2646 156.867 54.9482 158.214 54.9482C159.431 54.9482 160.312 54.3877 160.312 53.1299V51.5986H160.196C159.937 52.0361 159.451 52.877 157.975 52.877C156.143 52.877 154.748 51.5439 154.748 49.1445C154.748 46.7793 156.095 45.2617 158.002 45.2617C159.479 45.2617 159.971 46.1709 160.23 46.5811H160.347V45.3574H161.543V53.1982C161.543 55.1738 160.073 56.0215 158.214 56.0215ZM158.18 51.7832C159.567 51.7832 160.326 50.7852 160.326 49.1172C160.326 47.4971 159.588 46.3623 158.18 46.3623C156.724 46.3623 155.999 47.5928 155.999 49.1172C155.999 50.6895 156.744 51.7832 158.18 51.7832ZM166.916 53.1641C164.701 53.1641 163.334 51.5918 163.334 49.2402C163.334 46.8955 164.688 45.2617 166.772 45.2617C168.393 45.2617 170.102 46.2598 170.102 49.083V49.5957H164.168V48.5566H169.438L168.864 48.9395C168.864 47.4355 168.153 46.3555 166.772 46.3555C165.392 46.3555 164.578 47.4971 164.578 48.7412V49.4316C164.578 51.1338 165.521 52.0703 166.923 52.0703C167.825 52.0703 168.502 51.6738 168.789 50.8945L169.979 51.2227C169.623 52.3779 168.481 53.1641 166.916 53.1641ZM174.463 53.1641C172.891 53.1641 171.797 52.4668 171.523 51.1475L172.692 50.8672C172.911 51.708 173.533 52.084 174.449 52.084C175.516 52.084 176.199 51.5576 176.199 50.9287C176.199 50.4023 175.83 50.0537 175.078 49.876L173.807 49.5752C172.419 49.2471 171.756 48.5635 171.756 47.4902C171.756 46.1777 172.959 45.2617 174.586 45.2617C176.158 45.2617 176.985 46.0273 177.334 47.1006L176.22 47.3877C176.008 46.8408 175.577 46.3076 174.593 46.3076C173.684 46.3076 173 46.7793 173 47.415C173 47.9824 173.39 48.2969 174.285 48.5088L175.44 48.7822C176.828 49.1104 177.478 49.8008 177.478 50.8467C177.478 52.1865 176.254 53.1641 174.463 53.1641ZM182.27 45.3574V46.4102H178.318V45.3574H182.27ZM179.467 43.5391H180.697V51.0176C180.697 51.7012 180.95 52.002 181.6 52.002C181.757 52.002 182.023 51.9609 182.229 51.9199L182.481 52.959C182.229 53.0479 181.88 53.0957 181.565 53.0957C180.246 53.0957 179.467 52.3643 179.467 51.1133V43.5391ZM183.842 53V45.3574H185.072V53H183.842ZM184.464 44.1064C183.999 44.1064 183.609 43.7441 183.609 43.293C183.609 42.8418 183.999 42.4795 184.464 42.4795C184.936 42.4795 185.325 42.8418 185.325 43.293C185.325 43.7441 184.936 44.1064 184.464 44.1064ZM190.343 53.1641C188.265 53.1641 186.863 51.585 186.863 49.2266C186.863 46.834 188.265 45.2617 190.343 45.2617C192.428 45.2617 193.836 46.834 193.836 49.2266C193.836 51.585 192.428 53.1641 190.343 53.1641ZM190.343 52.0635C191.888 52.0635 192.592 50.7305 192.592 49.2266C192.592 47.709 191.888 46.3623 190.343 46.3623C188.818 46.3623 188.114 47.7021 188.114 49.2266C188.114 50.7305 188.818 52.0635 190.343 52.0635ZM196.857 48.4199V53H195.627V45.3574H196.81L196.816 47.21H196.646C197.11 45.8018 197.999 45.2617 199.154 45.2617C200.699 45.2617 201.745 46.2119 201.745 48.1465V53H200.508V48.249C200.508 47.0732 199.852 46.3691 198.785 46.3691C197.685 46.3691 196.857 47.1143 196.857 48.4199ZM206.51 53.1641C204.938 53.1641 203.844 52.4668 203.57 51.1475L204.739 50.8672C204.958 51.708 205.58 52.084 206.496 52.084C207.562 52.084 208.246 51.5576 208.246 50.9287C208.246 50.4023 207.877 50.0537 207.125 49.876L205.854 49.5752C204.466 49.2471 203.803 48.5635 203.803 47.4902C203.803 46.1777 205.006 45.2617 206.633 45.2617C208.205 45.2617 209.032 46.0273 209.381 47.1006L208.267 47.3877C208.055 46.8408 207.624 46.3076 206.64 46.3076C205.73 46.3076 205.047 46.7793 205.047 47.415C205.047 47.9824 205.437 48.2969 206.332 48.5088L207.487 48.7822C208.875 49.1104 209.524 49.8008 209.524 50.8467C209.524 52.1865 208.301 53.1641 206.51 53.1641ZM218.801 45.3574V46.4102H214.303V45.3574H218.801ZM215.807 53V44.3389C215.807 43.0127 216.866 42.3359 217.98 42.3359C218.562 42.3359 218.944 42.459 219.129 42.541L218.787 43.5938C218.657 43.5527 218.466 43.4775 218.124 43.4775C217.365 43.4775 217.037 43.874 217.037 44.6123V53H215.807ZM223.401 53.1641C221.323 53.1641 219.922 51.585 219.922 49.2266C219.922 46.834 221.323 45.2617 223.401 45.2617C225.486 45.2617 226.895 46.834 226.895 49.2266C226.895 51.585 225.486 53.1641 223.401 53.1641ZM223.401 52.0635C224.946 52.0635 225.65 50.7305 225.65 49.2266C225.65 47.709 224.946 46.3623 223.401 46.3623C221.877 46.3623 221.173 47.7021 221.173 49.2266C221.173 50.7305 221.877 52.0635 223.401 52.0635ZM228.686 53V45.3574H229.875V46.5332H229.957C230.237 45.7607 231.03 45.248 231.939 45.248C232.117 45.248 232.418 45.2617 232.562 45.2686V46.5059C232.486 46.4922 232.151 46.4375 231.823 46.4375C230.723 46.4375 229.916 47.1826 229.916 48.2148V53H228.686ZM241.455 45.3574V46.4102H236.957V45.3574H241.455ZM238.461 53V44.3389C238.461 43.0127 239.521 42.3359 240.635 42.3359C241.216 42.3359 241.599 42.459 241.783 42.541L241.441 43.5938C241.312 43.5527 241.12 43.4775 240.778 43.4775C240.02 43.4775 239.691 43.874 239.691 44.6123V53H238.461ZM246.056 53.1641C243.978 53.1641 242.576 51.585 242.576 49.2266C242.576 46.834 243.978 45.2617 246.056 45.2617C248.141 45.2617 249.549 46.834 249.549 49.2266C249.549 51.585 248.141 53.1641 246.056 53.1641ZM246.056 52.0635C247.601 52.0635 248.305 50.7305 248.305 49.2266C248.305 47.709 247.601 46.3623 246.056 46.3623C244.531 46.3623 243.827 47.7021 243.827 49.2266C243.827 50.7305 244.531 52.0635 246.056 52.0635ZM251.34 53V45.3574H252.529V46.5332H252.611C252.892 45.7607 253.685 45.248 254.594 45.248C254.771 45.248 255.072 45.2617 255.216 45.2686V46.5059C255.141 46.4922 254.806 46.4375 254.478 46.4375C253.377 46.4375 252.57 47.1826 252.57 48.2148V53H251.34ZM263.562 45.3574V46.4102H259.611V45.3574H263.562ZM260.76 43.5391H261.99V51.0176C261.99 51.7012 262.243 52.002 262.893 52.002C263.05 52.002 263.316 51.9609 263.521 51.9199L263.774 52.959C263.521 53.0479 263.173 53.0957 262.858 53.0957C261.539 53.0957 260.76 52.3643 260.76 51.1133V43.5391ZM266.365 48.4199V53H265.135V42.8145H266.365V47.21H266.153C266.618 45.8018 267.507 45.2617 268.662 45.2617C270.207 45.2617 271.253 46.2119 271.253 48.1465V53H270.016V48.249C270.016 47.0732 269.359 46.3691 268.293 46.3691C267.192 46.3691 266.365 47.1143 266.365 48.4199ZM273.42 53V45.3574H274.65V53H273.42ZM274.042 44.1064C273.577 44.1064 273.188 43.7441 273.188 43.293C273.188 42.8418 273.577 42.4795 274.042 42.4795C274.514 42.4795 274.903 42.8418 274.903 43.293C274.903 43.7441 274.514 44.1064 274.042 44.1064ZM279.408 53.1641C277.836 53.1641 276.742 52.4668 276.469 51.1475L277.638 50.8672C277.856 51.708 278.479 52.084 279.395 52.084C280.461 52.084 281.145 51.5576 281.145 50.9287C281.145 50.4023 280.775 50.0537 280.023 49.876L278.752 49.5752C277.364 49.2471 276.701 48.5635 276.701 47.4902C276.701 46.1777 277.904 45.2617 279.531 45.2617C281.104 45.2617 281.931 46.0273 282.279 47.1006L281.165 47.3877C280.953 46.8408 280.522 46.3076 279.538 46.3076C278.629 46.3076 277.945 46.7793 277.945 47.415C277.945 47.9824 278.335 48.2969 279.23 48.5088L280.386 48.7822C281.773 49.1104 282.423 49.8008 282.423 50.8467C282.423 52.1865 281.199 53.1641 279.408 53.1641ZM288.145 53V45.3574H289.375V53H288.145ZM288.767 44.1064C288.302 44.1064 287.912 43.7441 287.912 43.293C287.912 42.8418 288.302 42.4795 288.767 42.4795C289.238 42.4795 289.628 42.8418 289.628 43.293C289.628 43.7441 289.238 44.1064 288.767 44.1064ZM292.766 48.4199V53H291.535V45.3574H292.718L292.725 47.21H292.554C293.019 45.8018 293.907 45.2617 295.062 45.2617C296.607 45.2617 297.653 46.2119 297.653 48.1465V53H296.416V48.249C296.416 47.0732 295.76 46.3691 294.693 46.3691C293.593 46.3691 292.766 47.1143 292.766 48.4199ZM302.418 53.1641C300.846 53.1641 299.752 52.4668 299.479 51.1475L300.647 50.8672C300.866 51.708 301.488 52.084 302.404 52.084C303.471 52.084 304.154 51.5576 304.154 50.9287C304.154 50.4023 303.785 50.0537 303.033 49.876L301.762 49.5752C300.374 49.2471 299.711 48.5635 299.711 47.4902C299.711 46.1777 300.914 45.2617 302.541 45.2617C304.113 45.2617 304.94 46.0273 305.289 47.1006L304.175 47.3877C303.963 46.8408 303.532 46.3076 302.548 46.3076C301.639 46.3076 300.955 46.7793 300.955 47.415C300.955 47.9824 301.345 48.2969 302.24 48.5088L303.396 48.7822C304.783 49.1104 305.433 49.8008 305.433 50.8467C305.433 52.1865 304.209 53.1641 302.418 53.1641ZM310.225 45.3574V46.4102H306.273V45.3574H310.225ZM307.422 43.5391H308.652V51.0176C308.652 51.7012 308.905 52.002 309.555 52.002C309.712 52.002 309.979 51.9609 310.184 51.9199L310.437 52.959C310.184 53.0479 309.835 53.0957 309.521 53.0957C308.201 53.0957 307.422 52.3643 307.422 51.1133V43.5391ZM314.005 53.1777C312.556 53.1777 311.4 52.3301 311.4 50.8262C311.4 49.0762 312.959 48.7549 314.374 48.5771C315.734 48.4062 316.336 48.4473 316.336 47.8799V47.8389C316.336 46.8887 315.796 46.3418 314.736 46.3418C313.636 46.3418 313.041 46.9297 312.802 47.4629L311.619 47.0732C312.207 45.6855 313.52 45.2617 314.702 45.2617C315.728 45.2617 317.566 45.5762 317.566 47.9619V53H316.356V51.9609H316.274C316.015 52.501 315.297 53.1777 314.005 53.1777ZM314.217 52.0908C315.577 52.0908 316.336 51.1748 316.336 50.2383V49.1787C316.131 49.418 314.791 49.5547 314.319 49.6162C313.424 49.7324 312.638 50.0195 312.638 50.8877C312.638 51.6807 313.301 52.0908 314.217 52.0908ZM320.957 48.4199V53H319.727V45.3574H320.909L320.916 47.21H320.745C321.21 45.8018 322.099 45.2617 323.254 45.2617C324.799 45.2617 325.845 46.2119 325.845 48.1465V53H324.607V48.249C324.607 47.0732 323.951 46.3691 322.885 46.3691C321.784 46.3691 320.957 47.1143 320.957 48.4199ZM331.122 53.1641C329.044 53.1641 327.643 51.585 327.643 49.2266C327.643 46.834 329.044 45.2617 331.122 45.2617C332.599 45.2617 333.802 46.041 334.219 47.374L333.036 47.709C332.811 46.9229 332.127 46.3623 331.122 46.3623C329.598 46.3623 328.894 47.7021 328.894 49.2266C328.894 50.7305 329.598 52.0635 331.122 52.0635C332.147 52.0635 332.845 51.4824 333.07 50.6553L334.246 50.9902C333.836 52.3506 332.619 53.1641 331.122 53.1641ZM339.223 53.1641C337.008 53.1641 335.641 51.5918 335.641 49.2402C335.641 46.8955 336.994 45.2617 339.079 45.2617C340.699 45.2617 342.408 46.2598 342.408 49.083V49.5957H336.475V48.5566H341.745L341.171 48.9395C341.171 47.4355 340.46 46.3555 339.079 46.3555C337.698 46.3555 336.885 47.4971 336.885 48.7412V49.4316C336.885 51.1338 337.828 52.0703 339.229 52.0703C340.132 52.0703 340.809 51.6738 341.096 50.8945L342.285 51.2227C341.93 52.3779 340.788 53.1641 339.223 53.1641Z" fill="#333238"/>
<path d="M43.1309 72L40.3555 61.8145H41.6816L43.2949 68.0625C43.5479 69.0674 43.7734 70.0996 43.9717 71.2139H43.8145C44.0195 70.0996 44.2451 69.0674 44.5117 68.0625L46.1592 61.8145H47.6357L49.2695 68.0625C49.5361 69.0674 49.7686 70.0996 49.9805 71.2139H49.8027C50.001 70.0996 50.2402 69.0674 50.4932 68.0625L52.0996 61.8145H53.4395L50.6504 72H49.1396L47.3896 65.5469C47.1641 64.7129 46.9521 63.7559 46.7539 62.4639H47.0273C46.8291 63.6875 46.6514 64.583 46.3916 65.5469L44.6484 72H43.1309ZM56.1055 67.4199V72H54.875V61.8145H56.1055V66.21H55.8936C56.3584 64.8018 57.2471 64.2617 58.4023 64.2617C59.9473 64.2617 60.9932 65.2119 60.9932 67.1465V72H59.7559V67.249C59.7559 66.0732 59.0996 65.3691 58.0332 65.3691C56.9326 65.3691 56.1055 66.1143 56.1055 67.4199ZM66.373 72.1641C64.1582 72.1641 62.791 70.5918 62.791 68.2402C62.791 65.8955 64.1445 64.2617 66.2295 64.2617C67.8496 64.2617 69.5586 65.2598 69.5586 68.083V68.5957H63.625V67.5566H68.8955L68.3213 67.9395C68.3213 66.4355 67.6104 65.3555 66.2295 65.3555C64.8486 65.3555 64.0352 66.4971 64.0352 67.7412V68.4316C64.0352 70.1338 64.9785 71.0703 66.3799 71.0703C67.2822 71.0703 67.959 70.6738 68.2461 69.8945L69.4355 70.2227C69.0801 71.3779 67.9385 72.1641 66.373 72.1641ZM72.5527 67.4199V72H71.3223V64.3574H72.5049L72.5117 66.21H72.3408C72.8057 64.8018 73.6943 64.2617 74.8496 64.2617C76.3945 64.2617 77.4404 65.2119 77.4404 67.1465V72H76.2031V67.249C76.2031 66.0732 75.5469 65.3691 74.4805 65.3691C73.3799 65.3691 72.5527 66.1143 72.5527 67.4199ZM83.4219 74.7686L83.7363 73.7021L83.8662 73.7363C84.6182 73.9346 85.1582 73.7705 85.5342 72.6768L85.7529 72.041L82.834 64.3574H84.1807L85.8076 68.8896C86.1494 69.8398 86.3545 70.7764 86.6211 71.6514H86.1699C86.4297 70.7764 86.6416 69.833 86.9834 68.8896L88.624 64.3574H89.9639L86.6074 73.1416C86.1426 74.3584 85.4043 74.9121 84.3242 74.9121C83.8867 74.9121 83.5518 74.8301 83.4219 74.7686ZM94.2568 72.1641C92.1787 72.1641 90.7773 70.585 90.7773 68.2266C90.7773 65.834 92.1787 64.2617 94.2568 64.2617C96.3418 64.2617 97.75 65.834 97.75 68.2266C97.75 70.585 96.3418 72.1641 94.2568 72.1641ZM94.2568 71.0635C95.8018 71.0635 96.5059 69.7305 96.5059 68.2266C96.5059 66.709 95.8018 65.3623 94.2568 65.3623C92.7324 65.3623 92.0283 66.7021 92.0283 68.2266C92.0283 69.7305 92.7324 71.0635 94.2568 71.0635ZM102.132 72.0957C100.587 72.0957 99.541 71.1455 99.541 69.2109V64.3574H100.771V69.1084C100.771 70.2842 101.435 70.9883 102.501 70.9883C103.595 70.9883 104.422 70.2432 104.422 68.9375V64.3574H105.659V72H104.47V70.1475H104.634C104.162 71.583 103.253 72.0957 102.132 72.0957ZM114.977 72.1641C112.762 72.1641 111.395 70.5918 111.395 68.2402C111.395 65.8955 112.748 64.2617 114.833 64.2617C116.453 64.2617 118.162 65.2598 118.162 68.083V68.5957H112.229V67.5566H117.499L116.925 67.9395C116.925 66.4355 116.214 65.3555 114.833 65.3555C113.452 65.3555 112.639 66.4971 112.639 67.7412V68.4316C112.639 70.1338 113.582 71.0703 114.983 71.0703C115.886 71.0703 116.562 70.6738 116.85 69.8945L118.039 70.2227C117.684 71.3779 116.542 72.1641 114.977 72.1641ZM121.156 67.4199V72H119.926V64.3574H121.108L121.115 66.21H120.944C121.409 64.8018 122.298 64.2617 123.453 64.2617C124.998 64.2617 126.044 65.2119 126.044 67.1465V72H124.807V67.249C124.807 66.0732 124.15 65.3691 123.084 65.3691C121.983 65.3691 121.156 66.1143 121.156 67.4199ZM130.351 72.1777C128.901 72.1777 127.746 71.3301 127.746 69.8262C127.746 68.0762 129.305 67.7549 130.72 67.5771C132.08 67.4062 132.682 67.4473 132.682 66.8799V66.8389C132.682 65.8887 132.142 65.3418 131.082 65.3418C129.981 65.3418 129.387 65.9297 129.147 66.4629L127.965 66.0732C128.553 64.6855 129.865 64.2617 131.048 64.2617C132.073 64.2617 133.912 64.5762 133.912 66.9619V72H132.702V70.9609H132.62C132.36 71.501 131.643 72.1777 130.351 72.1777ZM130.562 71.0908C131.923 71.0908 132.682 70.1748 132.682 69.2383V68.1787C132.477 68.418 131.137 68.5547 130.665 68.6162C129.77 68.7324 128.983 69.0195 128.983 69.8877C128.983 70.6807 129.646 71.0908 130.562 71.0908ZM139.62 72.1641C138.164 72.1641 137.651 71.2412 137.398 70.8174H137.262V72H136.072V61.8145H137.303V65.5811H137.398C137.651 65.1777 138.123 64.2617 139.613 64.2617C141.521 64.2617 142.854 65.7793 142.854 68.1992C142.854 70.6328 141.527 72.1641 139.62 72.1641ZM139.436 71.0635C140.864 71.0635 141.603 69.792 141.603 68.1855C141.603 66.5996 140.885 65.3623 139.436 65.3623C138.027 65.3623 137.289 66.4971 137.289 68.1855C137.289 69.8877 138.048 71.0635 139.436 71.0635ZM146.36 72.0547C145.212 72.0547 144.645 71.4121 144.645 70.3047V61.8145H145.875V69.9971C145.875 70.7012 145.998 70.9541 146.511 70.9541C146.777 70.9541 146.887 70.9336 147.003 70.8994L147.249 71.9385C147.03 72 146.688 72.0547 146.36 72.0547ZM151.508 72.1641C149.293 72.1641 147.926 70.5918 147.926 68.2402C147.926 65.8955 149.279 64.2617 151.364 64.2617C152.984 64.2617 154.693 65.2598 154.693 68.083V68.5957H148.76V67.5566H154.03L153.456 67.9395C153.456 66.4355 152.745 65.3555 151.364 65.3555C149.983 65.3555 149.17 66.4971 149.17 67.7412V68.4316C149.17 70.1338 150.113 71.0703 151.515 71.0703C152.417 71.0703 153.094 70.6738 153.381 69.8945L154.57 70.2227C154.215 71.3779 153.073 72.1641 151.508 72.1641ZM163.402 64.3574V65.4102H159.451V64.3574H163.402ZM160.6 62.5391H161.83V70.0176C161.83 70.7012 162.083 71.002 162.732 71.002C162.89 71.002 163.156 70.9609 163.361 70.9199L163.614 71.959C163.361 72.0479 163.013 72.0957 162.698 72.0957C161.379 72.0957 160.6 71.3643 160.6 70.1133V62.5391ZM166.205 67.4199V72H164.975V61.8145H166.205V66.21H165.993C166.458 64.8018 167.347 64.2617 168.502 64.2617C170.047 64.2617 171.093 65.2119 171.093 67.1465V72H169.855V67.249C169.855 66.0732 169.199 65.3691 168.133 65.3691C167.032 65.3691 166.205 66.1143 166.205 67.4199ZM173.26 72V64.3574H174.49V72H173.26ZM173.882 63.1064C173.417 63.1064 173.027 62.7441 173.027 62.293C173.027 61.8418 173.417 61.4795 173.882 61.4795C174.354 61.4795 174.743 61.8418 174.743 62.293C174.743 62.7441 174.354 63.1064 173.882 63.1064ZM179.248 72.1641C177.676 72.1641 176.582 71.4668 176.309 70.1475L177.478 69.8672C177.696 70.708 178.318 71.084 179.234 71.084C180.301 71.084 180.984 70.5576 180.984 69.9287C180.984 69.4023 180.615 69.0537 179.863 68.876L178.592 68.5752C177.204 68.2471 176.541 67.5635 176.541 66.4902C176.541 65.1777 177.744 64.2617 179.371 64.2617C180.943 64.2617 181.771 65.0273 182.119 66.1006L181.005 66.3877C180.793 65.8408 180.362 65.3076 179.378 65.3076C178.469 65.3076 177.785 65.7793 177.785 66.415C177.785 66.9824 178.175 67.2969 179.07 67.5088L180.226 67.7822C181.613 68.1104 182.263 68.8008 182.263 69.8467C182.263 71.1865 181.039 72.1641 179.248 72.1641ZM191.539 64.3574V65.4102H187.041V64.3574H191.539ZM188.545 72V63.3389C188.545 62.0127 189.604 61.3359 190.719 61.3359C191.3 61.3359 191.683 61.459 191.867 61.541L191.525 62.5938C191.396 62.5527 191.204 62.4775 190.862 62.4775C190.104 62.4775 189.775 62.874 189.775 63.6123V72H188.545ZM196.242 72.1641C194.027 72.1641 192.66 70.5918 192.66 68.2402C192.66 65.8955 194.014 64.2617 196.099 64.2617C197.719 64.2617 199.428 65.2598 199.428 68.083V68.5957H193.494V67.5566H198.765L198.19 67.9395C198.19 66.4355 197.479 65.3555 196.099 65.3555C194.718 65.3555 193.904 66.4971 193.904 67.7412V68.4316C193.904 70.1338 194.848 71.0703 196.249 71.0703C197.151 71.0703 197.828 70.6738 198.115 69.8945L199.305 70.2227C198.949 71.3779 197.808 72.1641 196.242 72.1641ZM203.468 72.1777C202.019 72.1777 200.863 71.3301 200.863 69.8262C200.863 68.0762 202.422 67.7549 203.837 67.5771C205.197 67.4062 205.799 67.4473 205.799 66.8799V66.8389C205.799 65.8887 205.259 65.3418 204.199 65.3418C203.099 65.3418 202.504 65.9297 202.265 66.4629L201.082 66.0732C201.67 64.6855 202.982 64.2617 204.165 64.2617C205.19 64.2617 207.029 64.5762 207.029 66.9619V72H205.819V70.9609H205.737C205.478 71.501 204.76 72.1777 203.468 72.1777ZM203.68 71.0908C205.04 71.0908 205.799 70.1748 205.799 69.2383V68.1787C205.594 68.418 204.254 68.5547 203.782 68.6162C202.887 68.7324 202.101 69.0195 202.101 69.8877C202.101 70.6807 202.764 71.0908 203.68 71.0908ZM212.197 64.3574V65.4102H208.246V64.3574H212.197ZM209.395 62.5391H210.625V70.0176C210.625 70.7012 210.878 71.002 211.527 71.002C211.685 71.002 211.951 70.9609 212.156 70.9199L212.409 71.959C212.156 72.0479 211.808 72.0957 211.493 72.0957C210.174 72.0957 209.395 71.3643 209.395 70.1133V62.5391ZM216.36 72.0957C214.815 72.0957 213.77 71.1455 213.77 69.2109V64.3574H215V69.1084C215 70.2842 215.663 70.9883 216.729 70.9883C217.823 70.9883 218.65 70.2432 218.65 68.9375V64.3574H219.888V72H218.698V70.1475H218.862C218.391 71.583 217.481 72.0957 216.36 72.0957ZM222.055 72V64.3574H223.244V65.5332H223.326C223.606 64.7607 224.399 64.248 225.309 64.248C225.486 64.248 225.787 64.2617 225.931 64.2686V65.5059C225.855 65.4922 225.521 65.4375 225.192 65.4375C224.092 65.4375 223.285 66.1826 223.285 67.2148V72H222.055ZM230.312 72.1641C228.098 72.1641 226.73 70.5918 226.73 68.2402C226.73 65.8955 228.084 64.2617 230.169 64.2617C231.789 64.2617 233.498 65.2598 233.498 68.083V68.5957H227.564V67.5566H232.835L232.261 67.9395C232.261 66.4355 231.55 65.3555 230.169 65.3555C228.788 65.3555 227.975 66.4971 227.975 67.7412V68.4316C227.975 70.1338 228.918 71.0703 230.319 71.0703C231.222 71.0703 231.898 70.6738 232.186 69.8945L233.375 70.2227C233.02 71.3779 231.878 72.1641 230.312 72.1641ZM235.057 74.4541L235.658 70.5781H237.066L236 74.4541H235.057ZM243.109 74.7686L243.424 73.7021L243.554 73.7363C244.306 73.9346 244.846 73.7705 245.222 72.6768L245.44 72.041L242.521 64.3574H243.868L245.495 68.8896C245.837 69.8398 246.042 70.7764 246.309 71.6514H245.857C246.117 70.7764 246.329 69.833 246.671 68.8896L248.312 64.3574H249.651L246.295 73.1416C245.83 74.3584 245.092 74.9121 244.012 74.9121C243.574 74.9121 243.239 74.8301 243.109 74.7686ZM253.944 72.1641C251.866 72.1641 250.465 70.585 250.465 68.2266C250.465 65.834 251.866 64.2617 253.944 64.2617C256.029 64.2617 257.438 65.834 257.438 68.2266C257.438 70.585 256.029 72.1641 253.944 72.1641ZM253.944 71.0635C255.489 71.0635 256.193 69.7305 256.193 68.2266C256.193 66.709 255.489 65.3623 253.944 65.3623C252.42 65.3623 251.716 66.7021 251.716 68.2266C251.716 69.7305 252.42 71.0635 253.944 71.0635ZM261.819 72.0957C260.274 72.0957 259.229 71.1455 259.229 69.2109V64.3574H260.459V69.1084C260.459 70.2842 261.122 70.9883 262.188 70.9883C263.282 70.9883 264.109 70.2432 264.109 68.9375V64.3574H265.347V72H264.157V70.1475H264.321C263.85 71.583 262.94 72.0957 261.819 72.0957ZM273.591 72.1777C272.142 72.1777 270.986 71.3301 270.986 69.8262C270.986 68.0762 272.545 67.7549 273.96 67.5771C275.32 67.4062 275.922 67.4473 275.922 66.8799V66.8389C275.922 65.8887 275.382 65.3418 274.322 65.3418C273.222 65.3418 272.627 65.9297 272.388 66.4629L271.205 66.0732C271.793 64.6855 273.105 64.2617 274.288 64.2617C275.313 64.2617 277.152 64.5762 277.152 66.9619V72H275.942V70.9609H275.86C275.601 71.501 274.883 72.1777 273.591 72.1777ZM273.803 71.0908C275.163 71.0908 275.922 70.1748 275.922 69.2383V68.1787C275.717 68.418 274.377 68.5547 273.905 68.6162C273.01 68.7324 272.224 69.0195 272.224 69.8877C272.224 70.6807 272.887 71.0908 273.803 71.0908ZM282.423 72.1641C280.345 72.1641 278.943 70.585 278.943 68.2266C278.943 65.834 280.345 64.2617 282.423 64.2617C283.899 64.2617 285.103 65.041 285.52 66.374L284.337 66.709C284.111 65.9229 283.428 65.3623 282.423 65.3623C280.898 65.3623 280.194 66.7021 280.194 68.2266C280.194 69.7305 280.898 71.0635 282.423 71.0635C283.448 71.0635 284.146 70.4824 284.371 69.6553L285.547 69.9902C285.137 71.3506 283.92 72.1641 282.423 72.1641ZM290.421 72.1641C288.343 72.1641 286.941 70.585 286.941 68.2266C286.941 65.834 288.343 64.2617 290.421 64.2617C291.897 64.2617 293.101 65.041 293.518 66.374L292.335 66.709C292.109 65.9229 291.426 65.3623 290.421 65.3623C288.896 65.3623 288.192 66.7021 288.192 68.2266C288.192 69.7305 288.896 71.0635 290.421 71.0635C291.446 71.0635 292.144 70.4824 292.369 69.6553L293.545 69.9902C293.135 71.3506 291.918 72.1641 290.421 72.1641ZM298.521 72.1641C296.307 72.1641 294.939 70.5918 294.939 68.2402C294.939 65.8955 296.293 64.2617 298.378 64.2617C299.998 64.2617 301.707 65.2598 301.707 68.083V68.5957H295.773V67.5566H301.044L300.47 67.9395C300.47 66.4355 299.759 65.3555 298.378 65.3555C296.997 65.3555 296.184 66.4971 296.184 67.7412V68.4316C296.184 70.1338 297.127 71.0703 298.528 71.0703C299.431 71.0703 300.107 70.6738 300.395 69.8945L301.584 70.2227C301.229 71.3779 300.087 72.1641 298.521 72.1641ZM303.471 74.8574V64.3574H304.66V65.5811H304.797C305.05 65.1777 305.521 64.2617 307.012 64.2617C308.919 64.2617 310.252 65.7793 310.252 68.1992C310.252 70.6328 308.926 72.1641 307.019 72.1641C305.562 72.1641 305.05 71.2412 304.797 70.8174H304.701V74.8574H303.471ZM306.834 71.0635C308.263 71.0635 309.001 69.792 309.001 68.1855C309.001 66.5996 308.283 65.3623 306.834 65.3623C305.426 65.3623 304.688 66.4971 304.688 68.1855C304.688 69.8877 305.446 71.0635 306.834 71.0635ZM315.051 64.3574V65.4102H311.1V64.3574H315.051ZM312.248 62.5391H313.479V70.0176C313.479 70.7012 313.731 71.002 314.381 71.002C314.538 71.002 314.805 70.9609 315.01 70.9199L315.263 71.959C315.01 72.0479 314.661 72.0957 314.347 72.0957C313.027 72.0957 312.248 71.3643 312.248 70.1133V62.5391ZM323.568 64.3574V65.4102H319.617V64.3574H323.568ZM320.766 62.5391H321.996V70.0176C321.996 70.7012 322.249 71.002 322.898 71.002C323.056 71.002 323.322 70.9609 323.527 70.9199L323.78 71.959C323.527 72.0479 323.179 72.0957 322.864 72.0957C321.545 72.0957 320.766 71.3643 320.766 70.1133V62.5391ZM326.371 67.4199V72H325.141V61.8145H326.371V66.21H326.159C326.624 64.8018 327.513 64.2617 328.668 64.2617C330.213 64.2617 331.259 65.2119 331.259 67.1465V72H330.021V67.249C330.021 66.0732 329.365 65.3691 328.299 65.3691C327.198 65.3691 326.371 66.1143 326.371 67.4199ZM336.639 72.1641C334.424 72.1641 333.057 70.5918 333.057 68.2402C333.057 65.8955 334.41 64.2617 336.495 64.2617C338.115 64.2617 339.824 65.2598 339.824 68.083V68.5957H333.891V67.5566H339.161L338.587 67.9395C338.587 66.4355 337.876 65.3555 336.495 65.3555C335.114 65.3555 334.301 66.4971 334.301 67.7412V68.4316C334.301 70.1338 335.244 71.0703 336.646 71.0703C337.548 71.0703 338.225 70.6738 338.512 69.8945L339.701 70.2227C339.346 71.3779 338.204 72.1641 336.639 72.1641ZM518.352 72.0889C517.846 72.0889 517.436 71.6719 517.436 71.166C517.436 70.6602 517.853 70.25 518.352 70.25C518.857 70.25 519.274 70.6602 519.274 71.166C519.274 71.6787 518.857 72.0889 518.352 72.0889Z" fill="#737278"/>
<path d="M349.839 72.1367C347.118 72.1367 345.279 70.1338 345.279 66.9141C345.279 63.6807 347.146 61.6777 349.757 61.6777C351.91 61.6777 353.571 63.0312 353.94 65.0068H352.601C352.184 63.7012 351.206 62.8809 349.764 62.8809C347.973 62.8809 346.544 64.2959 346.544 66.9141C346.544 69.5117 347.966 70.9336 349.839 70.9336C351.562 70.9336 352.744 69.7715 352.744 67.9395L353.134 68.0146H350.105V66.8799H354.016V67.9941C354.016 70.5234 352.266 72.1367 349.839 72.1367ZM355.971 72V64.3574H357.201V72H355.971ZM356.593 63.1064C356.128 63.1064 355.738 62.7441 355.738 62.293C355.738 61.8418 356.128 61.4795 356.593 61.4795C357.064 61.4795 357.454 61.8418 357.454 62.293C357.454 62.7441 357.064 63.1064 356.593 63.1064ZM362.369 64.3574V65.4102H358.418V64.3574H362.369ZM359.566 62.5391H360.797V70.0176C360.797 70.7012 361.05 71.002 361.699 71.002C361.856 71.002 362.123 70.9609 362.328 70.9199L362.581 71.959C362.328 72.0479 361.979 72.0957 361.665 72.0957C360.346 72.0957 359.566 71.3643 359.566 70.1133V62.5391ZM364.092 72V61.8145H365.391V70.8516H370.107V72H364.092ZM373.997 72.1777C372.548 72.1777 371.393 71.3301 371.393 69.8262C371.393 68.0762 372.951 67.7549 374.366 67.5771C375.727 67.4062 376.328 67.4473 376.328 66.8799V66.8389C376.328 65.8887 375.788 65.3418 374.729 65.3418C373.628 65.3418 373.033 65.9297 372.794 66.4629L371.611 66.0732C372.199 64.6855 373.512 64.2617 374.694 64.2617C375.72 64.2617 377.559 64.5762 377.559 66.9619V72H376.349V70.9609H376.267C376.007 71.501 375.289 72.1777 373.997 72.1777ZM374.209 71.0908C375.569 71.0908 376.328 70.1748 376.328 69.2383V68.1787C376.123 68.418 374.783 68.5547 374.312 68.6162C373.416 68.7324 372.63 69.0195 372.63 69.8877C372.63 70.6807 373.293 71.0908 374.209 71.0908ZM383.267 72.1641C381.811 72.1641 381.298 71.2412 381.045 70.8174H380.908V72H379.719V61.8145H380.949V65.5811H381.045C381.298 65.1777 381.77 64.2617 383.26 64.2617C385.167 64.2617 386.5 65.7793 386.5 68.1992C386.5 70.6328 385.174 72.1641 383.267 72.1641ZM383.082 71.0635C384.511 71.0635 385.249 69.792 385.249 68.1855C385.249 66.5996 384.531 65.3623 383.082 65.3623C381.674 65.3623 380.936 66.4971 380.936 68.1855C380.936 69.8877 381.694 71.0635 383.082 71.0635ZM391.818 62.9629V61.8145H399.516V62.9629H396.323V72H395.024V62.9629H391.818ZM403.385 72.1641C401.17 72.1641 399.803 70.5918 399.803 68.2402C399.803 65.8955 401.156 64.2617 403.241 64.2617C404.861 64.2617 406.57 65.2598 406.57 68.083V68.5957H400.637V67.5566H405.907L405.333 67.9395C405.333 66.4355 404.622 65.3555 403.241 65.3555C401.86 65.3555 401.047 66.4971 401.047 67.7412V68.4316C401.047 70.1338 401.99 71.0703 403.392 71.0703C404.294 71.0703 404.971 70.6738 405.258 69.8945L406.447 70.2227C406.092 71.3779 404.95 72.1641 403.385 72.1641ZM410.932 72.1641C409.359 72.1641 408.266 71.4668 407.992 70.1475L409.161 69.8672C409.38 70.708 410.002 71.084 410.918 71.084C411.984 71.084 412.668 70.5576 412.668 69.9287C412.668 69.4023 412.299 69.0537 411.547 68.876L410.275 68.5752C408.888 68.2471 408.225 67.5635 408.225 66.4902C408.225 65.1777 409.428 64.2617 411.055 64.2617C412.627 64.2617 413.454 65.0273 413.803 66.1006L412.688 66.3877C412.477 65.8408 412.046 65.3076 411.062 65.3076C410.152 65.3076 409.469 65.7793 409.469 66.415C409.469 66.9824 409.858 67.2969 410.754 67.5088L411.909 67.7822C413.297 68.1104 413.946 68.8008 413.946 69.8467C413.946 71.1865 412.723 72.1641 410.932 72.1641ZM418.738 64.3574V65.4102H414.787V64.3574H418.738ZM415.936 62.5391H417.166V70.0176C417.166 70.7012 417.419 71.002 418.068 71.002C418.226 71.002 418.492 70.9609 418.697 70.9199L418.95 71.959C418.697 72.0479 418.349 72.0957 418.034 72.0957C416.715 72.0957 415.936 71.3643 415.936 70.1133V62.5391ZM420.311 72V64.3574H421.541V72H420.311ZM420.933 63.1064C420.468 63.1064 420.078 62.7441 420.078 62.293C420.078 61.8418 420.468 61.4795 420.933 61.4795C421.404 61.4795 421.794 61.8418 421.794 62.293C421.794 62.7441 421.404 63.1064 420.933 63.1064ZM424.932 67.4199V72H423.701V64.3574H424.884L424.891 66.21H424.72C425.185 64.8018 426.073 64.2617 427.229 64.2617C428.773 64.2617 429.819 65.2119 429.819 67.1465V72H428.582V67.249C428.582 66.0732 427.926 65.3691 426.859 65.3691C425.759 65.3691 424.932 66.1143 424.932 67.4199ZM435.083 75.0215C433.388 75.0215 432.41 74.3037 431.938 73.4629L432.937 72.8203C433.258 73.2646 433.736 73.9482 435.083 73.9482C436.3 73.9482 437.182 73.3877 437.182 72.1299V70.5986H437.065C436.806 71.0361 436.32 71.877 434.844 71.877C433.012 71.877 431.617 70.5439 431.617 68.1445C431.617 65.7793 432.964 64.2617 434.871 64.2617C436.348 64.2617 436.84 65.1709 437.1 65.5811H437.216V64.3574H438.412V72.1982C438.412 74.1738 436.942 75.0215 435.083 75.0215ZM435.049 70.7832C436.437 70.7832 437.195 69.7852 437.195 68.1172C437.195 66.4971 436.457 65.3623 435.049 65.3623C433.593 65.3623 432.868 66.5928 432.868 68.1172C432.868 69.6895 433.613 70.7832 435.049 70.7832ZM443.785 72L447.483 61.8145H448.987L452.733 72H451.366L449.206 65.957C448.939 65.2119 448.604 64.1523 448.105 62.4229H448.352C447.859 64.1729 447.504 65.2666 447.265 65.957L445.166 72H443.785ZM445.645 69.1562V68.0215H450.874V69.1562H445.645ZM457.272 75.0215C455.577 75.0215 454.6 74.3037 454.128 73.4629L455.126 72.8203C455.447 73.2646 455.926 73.9482 457.272 73.9482C458.489 73.9482 459.371 73.3877 459.371 72.1299V70.5986H459.255C458.995 71.0361 458.51 71.877 457.033 71.877C455.201 71.877 453.807 70.5439 453.807 68.1445C453.807 65.7793 455.153 64.2617 457.061 64.2617C458.537 64.2617 459.029 65.1709 459.289 65.5811H459.405V64.3574H460.602V72.1982C460.602 74.1738 459.132 75.0215 457.272 75.0215ZM457.238 70.7832C458.626 70.7832 459.385 69.7852 459.385 68.1172C459.385 66.4971 458.646 65.3623 457.238 65.3623C455.782 65.3623 455.058 66.5928 455.058 68.1172C455.058 69.6895 455.803 70.7832 457.238 70.7832ZM462.762 72V64.3574H463.951V65.5332H464.033C464.313 64.7607 465.106 64.248 466.016 64.248C466.193 64.248 466.494 64.2617 466.638 64.2686V65.5059C466.562 65.4922 466.228 65.4375 465.899 65.4375C464.799 65.4375 463.992 66.1826 463.992 67.2148V72H462.762ZM471.02 72.1641C468.805 72.1641 467.438 70.5918 467.438 68.2402C467.438 65.8955 468.791 64.2617 470.876 64.2617C472.496 64.2617 474.205 65.2598 474.205 68.083V68.5957H468.271V67.5566H473.542L472.968 67.9395C472.968 66.4355 472.257 65.3555 470.876 65.3555C469.495 65.3555 468.682 66.4971 468.682 67.7412V68.4316C468.682 70.1338 469.625 71.0703 471.026 71.0703C471.929 71.0703 472.605 70.6738 472.893 69.8945L474.082 70.2227C473.727 71.3779 472.585 72.1641 471.02 72.1641ZM479.182 72.1641C476.967 72.1641 475.6 70.5918 475.6 68.2402C475.6 65.8955 476.953 64.2617 479.038 64.2617C480.658 64.2617 482.367 65.2598 482.367 68.083V68.5957H476.434V67.5566H481.704L481.13 67.9395C481.13 66.4355 480.419 65.3555 479.038 65.3555C477.657 65.3555 476.844 66.4971 476.844 67.7412V68.4316C476.844 70.1338 477.787 71.0703 479.188 71.0703C480.091 71.0703 480.768 70.6738 481.055 69.8945L482.244 70.2227C481.889 71.3779 480.747 72.1641 479.182 72.1641ZM484.131 72V64.3574H485.327L485.334 66.0664H485.238C485.546 64.8291 486.482 64.2207 487.474 64.2207C488.581 64.2207 489.285 64.9727 489.49 66.0801H489.326C489.6 64.9385 490.611 64.2207 491.828 64.2207C493.154 64.2207 494.234 65.0752 494.234 66.8457V72H492.997V66.8799C492.997 65.7793 492.279 65.3418 491.459 65.3418C490.427 65.3418 489.798 66.0459 489.798 67.0098V72H488.567V66.7568C488.567 65.9092 487.932 65.3418 487.07 65.3418C486.175 65.3418 485.361 65.9707 485.361 67.1875V72H484.131ZM499.607 72.1641C497.393 72.1641 496.025 70.5918 496.025 68.2402C496.025 65.8955 497.379 64.2617 499.464 64.2617C501.084 64.2617 502.793 65.2598 502.793 68.083V68.5957H496.859V67.5566H502.13L501.556 67.9395C501.556 66.4355 500.845 65.3555 499.464 65.3555C498.083 65.3555 497.27 66.4971 497.27 67.7412V68.4316C497.27 70.1338 498.213 71.0703 499.614 71.0703C500.517 71.0703 501.193 70.6738 501.48 69.8945L502.67 70.2227C502.314 71.3779 501.173 72.1641 499.607 72.1641ZM505.787 67.4199V72H504.557V64.3574H505.739L505.746 66.21H505.575C506.04 64.8018 506.929 64.2617 508.084 64.2617C509.629 64.2617 510.675 65.2119 510.675 67.1465V72H509.438V67.249C509.438 66.0732 508.781 65.3691 507.715 65.3691C506.614 65.3691 505.787 66.1143 505.787 67.4199ZM515.85 64.3574V65.4102H511.898V64.3574H515.85ZM513.047 62.5391H514.277V70.0176C514.277 70.7012 514.53 71.002 515.18 71.002C515.337 71.002 515.604 70.9609 515.809 70.9199L516.062 71.959C515.809 72.0479 515.46 72.0957 515.146 72.0957C513.826 72.0957 513.047 71.3643 513.047 70.1133V62.5391Z" fill="#1F75CB"/>
<path d="M344.445 73.9004H516.342V74.8574H344.445V73.9004Z" fill="#1F75CB"/>
<a href="https://handbook.gitlab.com/handbook/legal/testing-agreement/">
<rect fill="black" fill-opacity="0" x="304.445" y="-0.469727" width="171.896" height="16.9395"/>
</a>
<rect x="146" y="17" width="42" height="16" rx="8" fill="#ECECEF"/>
<rect x="146" y="17" width="42" height="16" rx="8" stroke="#BFBFC3"/>
<path d="M155.055 29V20.2695H158.148C159.971 20.2695 160.832 21.3066 160.832 22.584C160.832 23.7031 160.164 24.2129 159.402 24.418V24.5C160.217 24.5527 161.172 25.3027 161.172 26.6738C161.172 27.9922 160.305 29 158.248 29H155.055ZM156.168 28.0156H158.219C159.578 28.0156 160.1 27.418 160.1 26.6621C160.1 25.7891 159.396 25.0391 158.277 25.0391H156.168V28.0156ZM156.168 24.1016H158.09C159.027 24.1016 159.766 23.5098 159.766 22.6074C159.766 21.8516 159.256 21.2539 158.125 21.2539H156.168V24.1016ZM165.531 29.1406C163.633 29.1406 162.461 27.793 162.461 25.7773C162.461 23.7676 163.621 22.3672 165.408 22.3672C166.797 22.3672 168.262 23.2227 168.262 25.6426V26.082H163.176V25.1914H167.693L167.201 25.5195C167.201 24.2305 166.592 23.3047 165.408 23.3047C164.225 23.3047 163.527 24.2832 163.527 25.3496V25.9414C163.527 27.4004 164.336 28.2031 165.537 28.2031C166.311 28.2031 166.891 27.8633 167.137 27.1953L168.156 27.4766C167.852 28.4668 166.873 29.1406 165.531 29.1406ZM172.352 22.4492V23.3516H168.965V22.4492H172.352ZM169.949 20.8906H171.004V27.3008C171.004 27.8867 171.221 28.1445 171.777 28.1445C171.912 28.1445 172.141 28.1094 172.316 28.0742L172.533 28.9648C172.316 29.041 172.018 29.082 171.748 29.082C170.617 29.082 169.949 28.4551 169.949 27.3828V20.8906ZM175.592 29.1523C174.35 29.1523 173.359 28.4258 173.359 27.1367C173.359 25.6367 174.695 25.3613 175.908 25.209C177.074 25.0625 177.59 25.0977 177.59 24.6113V24.5762C177.59 23.7617 177.127 23.293 176.219 23.293C175.275 23.293 174.766 23.7969 174.561 24.2539L173.547 23.9199C174.051 22.7305 175.176 22.3672 176.189 22.3672C177.068 22.3672 178.645 22.6367 178.645 24.6816V29H177.607V28.1094H177.537C177.314 28.5723 176.699 29.1523 175.592 29.1523ZM175.773 28.2207C176.939 28.2207 177.59 27.4355 177.59 26.6328V25.7246C177.414 25.9297 176.266 26.0469 175.861 26.0996C175.094 26.1992 174.42 26.4453 174.42 27.1895C174.42 27.8691 174.988 28.2207 175.773 28.2207Z" fill="#626168"/>
</svg>
