<svg width="124" height="60" viewBox="0 0 124 60" fill="none" xmlns="http://www.w3.org/2000/svg">
<g clip-path="url(#clip0_15718_25190)">
<rect width="124" height="60" fill="white"/>
<path d="M84 17L78 23M84 17H79.5M84 17V21.5" stroke="#1F75CB" stroke-width="1.5" stroke-linecap="round" stroke-linejoin="round"/>
<rect y="16" width="74" height="8" rx="2" fill="#1F75CB"/>
<circle cx="104" cy="20" r="16" fill="#7B58CF"/>
<circle cx="104" cy="20" r="18" stroke="#7B58CF" stroke-opacity="0.3" stroke-width="4"/>
<path d="M100.152 26V24.506L104.526 19.826C105.162 19.154 105.612 18.554 105.876 18.026C106.14 17.498 106.272 16.982 106.272 16.478C106.272 15.758 106.062 15.188 105.642 14.768C105.234 14.336 104.676 14.12 103.968 14.12C103.236 14.12 102.654 14.342 102.222 14.786C101.802 15.218 101.592 15.806 101.592 16.55H99.9715C99.9955 15.758 100.176 15.074 100.512 14.498C100.848 13.91 101.31 13.46 101.898 13.148C102.486 12.836 103.176 12.68 103.968 12.68C104.784 12.68 105.486 12.836 106.074 13.148C106.662 13.46 107.118 13.904 107.442 14.48C107.766 15.044 107.928 15.716 107.928 16.496C107.928 17.12 107.754 17.78 107.406 18.476C107.07 19.172 106.488 19.952 105.66 20.816L102.114 24.524H108.09V26H100.152Z" fill="white"/>
<circle cx="37" cy="40" r="16" fill="#7B58CF"/>
<circle cx="37" cy="40" r="18" stroke="#7B58CF" stroke-opacity="0.3" stroke-width="4"/>
<path d="M33.2235 46V44.524H36.7875V34.264L33.2235 36.928V35.074L36.1935 32.86H38.4075V44.524H41.3235V46H33.2235Z" fill="white"/>
</g>
<defs>
<clipPath id="clip0_15718_25190">
<rect width="124" height="60" fill="white"/>
</clipPath>
</defs>
</svg>
