<svg width="125" height="64" viewBox="0 0 125 64" fill="none" xmlns="http://www.w3.org/2000/svg">
<g clip-path="url(#clip0_15718_25190)">
<rect width="125" height="64" fill="white"/>
<rect y="16" width="74" height="8" rx="2" fill="#1F75CB"/>
<circle cx="105" cy="20" r="16" fill="#7B58CF"/>
<circle cx="105" cy="20" r="18" stroke="#7B58CF" stroke-opacity="0.3" stroke-width="4"/>
<path d="M102.855 24.5059H108.885V26H100.913V24.5059C102.009 23.3516 102.967 22.332 103.787 21.4473C104.607 20.5625 105.173 19.9385 105.483 19.5752C106.069 18.8604 106.465 18.2832 106.67 17.8438C106.875 17.3984 106.978 16.9443 106.978 16.4814C106.978 15.749 106.761 15.1748 106.327 14.7588C105.899 14.3428 105.311 14.1348 104.561 14.1348C104.027 14.1348 103.468 14.2314 102.882 14.4248C102.296 14.6182 101.675 14.9111 101.019 15.3037V13.5107C101.622 13.2236 102.214 13.0068 102.794 12.8604C103.38 12.7139 103.957 12.6406 104.525 12.6406C105.809 12.6406 106.84 12.9834 107.619 13.6689C108.404 14.3486 108.797 15.2422 108.797 16.3496C108.797 16.9121 108.665 17.4746 108.401 18.0371C108.144 18.5996 107.722 19.2207 107.136 19.9004C106.808 20.2812 106.33 20.8086 105.703 21.4824C105.082 22.1562 104.133 23.1641 102.855 24.5059Z" fill="white"/>
<circle cx="37" cy="44" r="16" fill="#7B58CF"/>
<circle cx="37" cy="44" r="18" stroke="#7B58CF" stroke-opacity="0.3" stroke-width="4"/>
<path d="M33.9502 48.5146H36.71V38.6006L33.4053 40.1914V38.4863L36.6924 36.9219H38.4678V48.5146H41.1924V50H33.9502V48.5146Z" fill="white"/>
<path d="M84 17L78 23M84 17H79.5M84 17V21.5" stroke="#1F75CB" stroke-width="1.5" stroke-linecap="round" stroke-linejoin="round"/>
</g>
<defs>
<clipPath id="clip0_15718_25190">
<rect width="125" height="64" fill="white"/>
</clipPath>
</defs>
</svg>
