<svg width="124" height="60" fill="none" xmlns="http://www.w3.org/2000/svg"><g clip-path="url(#link-structure__a)"><path fill="#fff" d="M0 0h124v60H0z"/><path d="m84 17-6 6m6-6h-4.5m4.5 0v4.5" stroke="#1F75CB" stroke-width="1.5" stroke-linecap="round" stroke-linejoin="round"/><rect y="16" width="74" height="8" rx="2" fill="#1F75CB"/><circle cx="104" cy="20" r="16" fill="#7B58CF"/><circle cx="104" cy="20" r="18" stroke="#7B58CF" stroke-opacity=".3" stroke-width="4"/><path d="M100.152 26v-1.494l4.374-4.68c.636-.672 1.086-1.272 1.35-1.8s.396-1.044.396-1.548c0-.72-.21-1.29-.63-1.71-.408-.432-.966-.648-1.674-.648-.732 0-1.314.222-1.746.666-.42.432-.63 1.02-.63 1.764h-1.62c.024-.792.204-1.476.54-2.052a3.41 3.41 0 0 1 1.386-1.35c.588-.312 1.278-.468 2.07-.468.816 0 1.518.156 2.106.468a3.325 3.325 0 0 1 1.368 1.332c.324.564.486 1.236.486 2.016 0 .624-.174 1.284-.522 1.98-.336.696-.918 1.476-1.746 2.34l-3.546 3.708h5.976V26h-7.938Z" fill="#fff"/><circle cx="37" cy="40" r="16" fill="#7B58CF"/><circle cx="37" cy="40" r="18" stroke="#7B58CF" stroke-opacity=".3" stroke-width="4"/><path d="M33.224 46v-1.476h3.564v-10.26l-3.564 2.664v-1.854l2.97-2.214h2.213v11.664h2.917V46h-8.1Z" fill="#fff"/></g><defs><clipPath id="link-structure__a"><path fill="#fff" d="M0 0h124v60H0z"/></clipPath></defs></svg>