<svg width="300" height="187" viewBox="0 0 300 187" fill="none" xmlns="http://www.w3.org/2000/svg">
<g clip-path="url(#clip0_901_12238)">
<path d="M268 52.5H268.5V52V24C268.5 21.5147 266.485 19.5 264 19.5H28C25.5147 19.5 23.5 21.5147 23.5 24V52V52.5H24H268Z" fill="white"/>
<rect x="44" y="32" width="115" height="8" rx="2" fill="#666666"/>
<path d="M268 52.5H268.5V52V24C268.5 21.5147 266.485 19.5 264 19.5H28C25.5147 19.5 23.5 21.5147 23.5 24V52V52.5H24H268Z" stroke="#DBDBDB"/>
<rect x="23.5" y="51.5" width="245" height="33" fill="white"/>
<rect x="44" y="64" width="115" height="8" rx="2" fill="#666666"/>
<rect x="23.5" y="51.5" width="245" height="33" stroke="#DBDBDB"/>
<rect x="23.5" y="83.5" width="245" height="33" fill="white"/>
<rect x="44" y="96" width="115" height="8" rx="2" fill="#666666"/>
<rect x="23.5" y="83.5" width="245" height="33" stroke="#DBDBDB"/>
<path d="M24 115.5H23.5V116V173C23.5 175.485 25.5147 177.5 28 177.5H264C266.485 177.5 268.5 175.485 268.5 173V116V115.5H268H24Z" fill="white"/>
<rect x="44" y="128" width="115" height="8" rx="2" fill="#666666"/>
<rect x="114" y="160" width="64" height="6" rx="2" fill="#666666"/>
<line x1="24" y1="147.5" x2="268" y2="147.5" stroke="#DBDBDB"/>
<path d="M24 115.5H23.5V116V173C23.5 175.485 25.5147 177.5 28 177.5H264C266.485 177.5 268.5 175.485 268.5 173V116V115.5H268H24Z" stroke="#DBDBDB"/>
<rect x="262" y="42" width="4" height="74" rx="2" fill="#BFBFBF"/>
<circle cx="101" cy="36" r="16" fill="#7B58CF"/>
<circle cx="101" cy="36" r="18" stroke="#7B58CF" stroke-opacity="0.3" stroke-width="4"/>
<path d="M98.8555 40.5059H104.885V42H96.9131V40.5059C98.0088 39.3516 98.9668 38.332 99.7871 37.4473C100.607 36.5625 101.173 35.9385 101.483 35.5752C102.069 34.8604 102.465 34.2832 102.67 33.8438C102.875 33.3984 102.978 32.9443 102.978 32.4814C102.978 31.749 102.761 31.1748 102.327 30.7588C101.899 30.3428 101.311 30.1348 100.561 30.1348C100.027 30.1348 99.4678 30.2314 98.8818 30.4248C98.2959 30.6182 97.6748 30.9111 97.0186 31.3037V29.5107C97.6221 29.2236 98.2139 29.0068 98.7939 28.8604C99.3799 28.7139 99.957 28.6406 100.525 28.6406C101.809 28.6406 102.84 28.9834 103.619 29.6689C104.404 30.3486 104.797 31.2422 104.797 32.3496C104.797 32.9121 104.665 33.4746 104.401 34.0371C104.144 34.5996 103.722 35.2207 103.136 35.9004C102.808 36.2812 102.33 36.8086 101.703 37.4824C101.082 38.1562 100.133 39.1641 98.8555 40.5059Z" fill="white"/>
<circle cx="20" cy="20" r="16" fill="#7B58CF"/>
<circle cx="20" cy="20" r="18" stroke="#7B58CF" stroke-opacity="0.3" stroke-width="4"/>
<path d="M16.9502 24.5146H19.71V14.6006L16.4053 16.1914V14.4863L19.6924 12.9219H21.4678V24.5146H24.1924V26H16.9502V24.5146Z" fill="white"/>
<circle cx="206" cy="167" r="16" fill="#7B58CF"/>
<circle cx="206" cy="167" r="18" stroke="#7B58CF" stroke-opacity="0.3" stroke-width="4"/>
<path d="M207.037 161.495L202.897 168.43H207.037V161.495ZM206.747 159.878H208.804V168.43H210.553V169.871H208.804V173H207.037V169.871H201.474V168.192L206.747 159.878Z" fill="white"/>
<circle cx="280" cy="102" r="16" fill="#7B58CF"/>
<circle cx="280" cy="102" r="18" stroke="#7B58CF" stroke-opacity="0.3" stroke-width="4"/>
<path d="M281.397 100.978C282.259 101.206 282.918 101.613 283.375 102.199C283.832 102.779 284.061 103.506 284.061 104.379C284.061 105.586 283.653 106.535 282.839 107.227C282.03 107.912 280.908 108.255 279.473 108.255C278.869 108.255 278.254 108.199 277.627 108.088C277 107.977 276.385 107.815 275.781 107.604V105.838C276.379 106.148 276.968 106.38 277.548 106.532C278.128 106.685 278.705 106.761 279.279 106.761C280.252 106.761 280.999 106.541 281.521 106.102C282.042 105.662 282.303 105.029 282.303 104.203C282.303 103.441 282.042 102.838 281.521 102.393C280.999 101.941 280.293 101.716 279.402 101.716H278.049V100.257H279.402C280.217 100.257 280.853 100.078 281.31 99.7207C281.767 99.3633 281.995 98.8652 281.995 98.2266C281.995 97.5527 281.781 97.0371 281.354 96.6797C280.932 96.3164 280.328 96.1348 279.543 96.1348C279.021 96.1348 278.482 96.1934 277.926 96.3105C277.369 96.4277 276.786 96.6035 276.177 96.8379V95.2031C276.886 95.0156 277.516 94.875 278.066 94.7812C278.623 94.6875 279.115 94.6406 279.543 94.6406C280.82 94.6406 281.84 94.9629 282.602 95.6074C283.369 96.2461 283.753 97.0957 283.753 98.1562C283.753 98.877 283.551 99.4775 283.146 99.958C282.748 100.438 282.165 100.778 281.397 100.978Z" fill="white"/>
</g>
<defs>
<clipPath id="clip0_901_12238">
<rect width="300" height="187" fill="white"/>
</clipPath>
</defs>
</svg>
