<svg width="632" height="164" viewBox="0 0 632 164" fill="none" xmlns="http://www.w3.org/2000/svg">
<rect width="632" height="164" fill="#999999"/>
<rect x="77" y="24" width="478" height="116" rx="6" fill="white"/>
<rect x="435" y="107" width="43" height="16" rx="2" fill="white" stroke="#1F75CB" stroke-width="2"/>
<rect x="382" y="107" width="43" height="16" rx="2" fill="white" stroke="#999999" stroke-width="2"/>
<rect x="487" y="106" width="54" height="18" rx="3" fill="#1F75CB"/>
<rect x="93" y="84" width="403" height="6" rx="2" fill="#999999"/>
<rect x="93" y="74" width="413" height="6" rx="2" fill="#999999"/>
<rect x="93" y="64" width="407" height="6" rx="2" fill="#999999"/>
<rect x="93" y="40" width="78" height="8" rx="2" fill="#666666"/>
<path d="M538.625 40.3753C538.124 39.8749 537.313 39.8749 536.812 40.3753L535 42.1877L533.188 40.3753C532.687 39.8749 531.876 39.8749 531.375 40.3753C530.875 40.8758 530.875 41.6872 531.375 42.1877L533.188 44L531.375 45.8123C530.875 46.3128 530.875 47.1242 531.375 47.6246C531.876 48.1251 532.687 48.1251 533.188 47.6246L535 45.8123L536.812 47.6246C537.313 48.1251 538.124 48.1251 538.625 47.6246C539.125 47.1242 539.125 46.3128 538.625 45.8123L536.812 44L538.625 42.1877C539.125 41.6872 539.125 40.8758 538.625 40.3753Z" fill="#666666"/>
<circle cx="120" cy="40" r="16" fill="#7B58CF"/>
<circle cx="120" cy="40" r="18" stroke="#7B58CF" stroke-opacity="0.3" stroke-width="4"/>
<path d="M117.855 44.5059H123.885V46H115.913V44.5059C117.009 43.3516 117.967 42.332 118.787 41.4473C119.607 40.5625 120.173 39.9385 120.483 39.5752C121.069 38.8604 121.465 38.2832 121.67 37.8438C121.875 37.3984 121.978 36.9443 121.978 36.4814C121.978 35.749 121.761 35.1748 121.327 34.7588C120.899 34.3428 120.311 34.1348 119.561 34.1348C119.027 34.1348 118.468 34.2314 117.882 34.4248C117.296 34.6182 116.675 34.9111 116.019 35.3037V33.5107C116.622 33.2236 117.214 33.0068 117.794 32.8604C118.38 32.7139 118.957 32.6406 119.525 32.6406C120.809 32.6406 121.84 32.9834 122.619 33.6689C123.404 34.3486 123.797 35.2422 123.797 36.3496C123.797 36.9121 123.665 37.4746 123.401 38.0371C123.144 38.5996 122.722 39.2207 122.136 39.9004C121.808 40.2812 121.33 40.8086 120.703 41.4824C120.082 42.1562 119.133 43.1641 117.855 44.5059Z" fill="white"/>
<circle cx="365" cy="28" r="16" fill="#7B58CF"/>
<circle cx="365" cy="28" r="18" stroke="#7B58CF" stroke-opacity="0.3" stroke-width="4"/>
<path d="M366.397 26.9775C367.259 27.2061 367.918 27.6133 368.375 28.1992C368.832 28.7793 369.061 29.5059 369.061 30.3789C369.061 31.5859 368.653 32.5352 367.839 33.2266C367.03 33.9121 365.908 34.2549 364.473 34.2549C363.869 34.2549 363.254 34.1992 362.627 34.0879C362 33.9766 361.385 33.8154 360.781 33.6045V31.8379C361.379 32.1484 361.968 32.3799 362.548 32.5322C363.128 32.6846 363.705 32.7607 364.279 32.7607C365.252 32.7607 365.999 32.541 366.521 32.1016C367.042 31.6621 367.303 31.0293 367.303 30.2031C367.303 29.4414 367.042 28.8379 366.521 28.3926C365.999 27.9414 365.293 27.7158 364.402 27.7158H363.049V26.2568H364.402C365.217 26.2568 365.853 26.0781 366.31 25.7207C366.767 25.3633 366.995 24.8652 366.995 24.2266C366.995 23.5527 366.781 23.0371 366.354 22.6797C365.932 22.3164 365.328 22.1348 364.543 22.1348C364.021 22.1348 363.482 22.1934 362.926 22.3105C362.369 22.4277 361.786 22.6035 361.177 22.8379V21.2031C361.886 21.0156 362.516 20.875 363.066 20.7812C363.623 20.6875 364.115 20.6406 364.543 20.6406C365.82 20.6406 366.84 20.9629 367.602 21.6074C368.369 22.2461 368.753 23.0957 368.753 24.1562C368.753 24.877 368.551 25.4775 368.146 25.958C367.748 26.4385 367.165 26.7783 366.397 26.9775Z" fill="white"/>
<circle cx="357" cy="115" r="16" fill="#7B58CF"/>
<circle cx="357" cy="115" r="18" stroke="#7B58CF" stroke-opacity="0.3" stroke-width="4"/>
<path d="M360.287 108.168V109.803C359.918 109.586 359.525 109.422 359.109 109.311C358.693 109.193 358.26 109.135 357.809 109.135C356.684 109.135 355.831 109.56 355.251 110.409C354.671 111.253 354.381 112.498 354.381 114.145C354.662 113.559 355.052 113.11 355.55 112.8C356.048 112.483 356.619 112.325 357.264 112.325C358.529 112.325 359.508 112.715 360.199 113.494C360.896 114.268 361.245 115.366 361.245 116.79C361.245 118.208 360.888 119.307 360.173 120.086C359.458 120.865 358.453 121.255 357.158 121.255C355.635 121.255 354.519 120.71 353.81 119.62C353.101 118.524 352.746 116.802 352.746 114.452C352.746 112.237 353.171 110.55 354.021 109.39C354.876 108.224 356.112 107.641 357.729 107.641C358.163 107.641 358.597 107.688 359.03 107.781C359.464 107.869 359.883 107.998 360.287 108.168ZM357.123 113.714C356.367 113.714 355.772 113.986 355.339 114.531C354.905 115.076 354.688 115.829 354.688 116.79C354.688 117.751 354.905 118.504 355.339 119.049C355.772 119.594 356.367 119.866 357.123 119.866C357.908 119.866 358.5 119.608 358.898 119.093C359.297 118.571 359.496 117.804 359.496 116.79C359.496 115.771 359.297 115.003 358.898 114.487C358.5 113.972 357.908 113.714 357.123 113.714Z" fill="white"/>
<circle cx="235" cy="77" r="16" fill="#7B58CF"/>
<circle cx="235" cy="77" r="18" stroke="#7B58CF" stroke-opacity="0.3" stroke-width="4"/>
<path d="M231.396 69.8779H238.041V71.3721H233.014V74.5977C233.266 74.5039 233.518 74.4365 233.77 74.3955C234.027 74.3486 234.285 74.3252 234.543 74.3252C235.902 74.3252 236.98 74.7266 237.777 75.5293C238.574 76.332 238.973 77.4189 238.973 78.79C238.973 80.1729 238.554 81.2627 237.716 82.0596C236.884 82.8564 235.744 83.2549 234.297 83.2549C233.6 83.2549 232.961 83.208 232.381 83.1143C231.807 83.0205 231.291 82.8799 230.834 82.6924V80.8906C231.373 81.1836 231.915 81.4033 232.46 81.5498C233.005 81.6904 233.562 81.7607 234.13 81.7607C235.108 81.7607 235.861 81.5029 236.389 80.9873C236.922 80.4717 237.188 79.7393 237.188 78.79C237.188 77.8525 236.913 77.123 236.362 76.6016C235.817 76.0801 235.056 75.8193 234.077 75.8193C233.603 75.8193 233.14 75.875 232.688 75.9863C232.237 76.0918 231.807 76.2529 231.396 76.4697V69.8779Z" fill="white"/>
<circle cx="562" cy="37" r="16" fill="#7B58CF"/>
<circle cx="562" cy="37" r="18" stroke="#7B58CF" stroke-opacity="0.3" stroke-width="4"/>
<path d="M563.037 31.4951L558.897 38.4297H563.037V31.4951ZM562.747 29.8779H564.804V38.4297H566.553V39.8711H564.804V43H563.037V39.8711H557.474V38.1924L562.747 29.8779Z" fill="white"/>
<circle cx="27" cy="25" r="16" fill="#7B58CF"/>
<circle cx="27" cy="25" r="18" stroke="#7B58CF" stroke-opacity="0.3" stroke-width="4"/>
<path d="M23.9502 29.5146H26.71V19.6006L23.4053 21.1914V19.4863L26.6924 17.9219H28.4678V29.5146H31.1924V31H23.9502V29.5146Z" fill="white"/>
</svg>
