<svg width="632" height="230" viewBox="0 0 632 230" fill="none" xmlns="http://www.w3.org/2000/svg">
<rect width="632" height="230" fill="#999999"/>
<rect x="77" y="24" width="478" height="167" rx="6" fill="white"/>
<rect x="435" y="162" width="43" height="16" rx="2" fill="white" stroke="#1F75CB" stroke-width="2"/>
<rect x="382" y="162" width="43" height="16" rx="2" fill="white" stroke="#999999" stroke-width="2"/>
<rect x="487" y="161" width="54" height="18" rx="3" fill="#1F75CB"/>
<rect x="93" y="92" width="403" height="6" rx="2" fill="#999999"/>
<rect x="93" y="82" width="413" height="6" rx="2" fill="#999999"/>
<rect x="93" y="72" width="407" height="6" rx="2" fill="#999999"/>
<rect x="93" y="36" width="78" height="8" rx="2" fill="#666666"/>
<path d="M540.95 37.2929C540.559 36.9024 539.926 36.9024 539.536 37.2929L538.121 38.7071L536.707 37.2929C536.317 36.9024 535.683 36.9024 535.293 37.2929C534.902 37.6834 534.902 38.3166 535.293 38.7071L536.707 40.1213L535.293 41.5355C534.902 41.9261 534.902 42.5592 535.293 42.9497C535.683 43.3403 536.317 43.3403 536.707 42.9497L538.121 41.5355L539.536 42.9497C539.926 43.3403 540.559 43.3403 540.95 42.9497C541.34 42.5592 541.34 41.9261 540.95 41.5355L539.536 40.1213L540.95 38.7071C541.34 38.3166 541.34 37.6834 540.95 37.2929Z" fill="#666666"/>
<path d="M77 56H555" stroke="#BCBCBC"/>
<path d="M77 149H555" stroke="#BCBCBC"/>
<circle cx="120" cy="40" r="16" fill="#7B58CF"/>
<circle cx="120" cy="40" r="18" stroke="#7B58CF" stroke-opacity="0.3" stroke-width="4"/>
<path d="M117.855 44.5059H123.885V46H115.913V44.5059C117.009 43.3516 117.967 42.332 118.787 41.4473C119.607 40.5625 120.173 39.9385 120.483 39.5752C121.069 38.8604 121.465 38.2832 121.67 37.8438C121.875 37.3984 121.978 36.9443 121.978 36.4814C121.978 35.749 121.761 35.1748 121.327 34.7588C120.899 34.3428 120.311 34.1348 119.561 34.1348C119.027 34.1348 118.468 34.2314 117.882 34.4248C117.296 34.6182 116.675 34.9111 116.019 35.3037V33.5107C116.622 33.2236 117.214 33.0068 117.794 32.8604C118.38 32.7139 118.957 32.6406 119.525 32.6406C120.809 32.6406 121.84 32.9834 122.619 33.6689C123.404 34.3486 123.797 35.2422 123.797 36.3496C123.797 36.9121 123.665 37.4746 123.401 38.0371C123.144 38.5996 122.722 39.2207 122.136 39.9004C121.808 40.2812 121.33 40.8086 120.703 41.4824C120.082 42.1562 119.133 43.1641 117.855 44.5059Z" fill="white"/>
<circle cx="365" cy="28" r="16" fill="#7B58CF"/>
<circle cx="365" cy="28" r="18" stroke="#7B58CF" stroke-opacity="0.3" stroke-width="4"/>
<path d="M366.397 26.9775C367.259 27.2061 367.918 27.6133 368.375 28.1992C368.832 28.7793 369.061 29.5059 369.061 30.3789C369.061 31.5859 368.653 32.5352 367.839 33.2266C367.03 33.9121 365.908 34.2549 364.473 34.2549C363.869 34.2549 363.254 34.1992 362.627 34.0879C362 33.9766 361.385 33.8154 360.781 33.6045V31.8379C361.379 32.1484 361.968 32.3799 362.548 32.5322C363.128 32.6846 363.705 32.7607 364.279 32.7607C365.252 32.7607 365.999 32.541 366.521 32.1016C367.042 31.6621 367.303 31.0293 367.303 30.2031C367.303 29.4414 367.042 28.8379 366.521 28.3926C365.999 27.9414 365.293 27.7158 364.402 27.7158H363.049V26.2568H364.402C365.217 26.2568 365.853 26.0781 366.31 25.7207C366.767 25.3633 366.995 24.8652 366.995 24.2266C366.995 23.5527 366.781 23.0371 366.354 22.6797C365.932 22.3164 365.328 22.1348 364.543 22.1348C364.021 22.1348 363.482 22.1934 362.926 22.3105C362.369 22.4277 361.786 22.6035 361.177 22.8379V21.2031C361.886 21.0156 362.516 20.875 363.066 20.7812C363.623 20.6875 364.115 20.6406 364.543 20.6406C365.82 20.6406 366.84 20.9629 367.602 21.6074C368.369 22.2461 368.753 23.0957 368.753 24.1562C368.753 24.877 368.551 25.4775 368.146 25.958C367.748 26.4385 367.165 26.7783 366.397 26.9775Z" fill="white"/>
<circle cx="355" cy="170" r="16" fill="#7B58CF"/>
<circle cx="355" cy="170" r="18" stroke="#7B58CF" stroke-opacity="0.3" stroke-width="4"/>
<path d="M358.287 163.168V164.803C357.918 164.586 357.525 164.422 357.109 164.311C356.693 164.193 356.26 164.135 355.809 164.135C354.684 164.135 353.831 164.56 353.251 165.409C352.671 166.253 352.381 167.498 352.381 169.145C352.662 168.559 353.052 168.11 353.55 167.8C354.048 167.483 354.619 167.325 355.264 167.325C356.529 167.325 357.508 167.715 358.199 168.494C358.896 169.268 359.245 170.366 359.245 171.79C359.245 173.208 358.888 174.307 358.173 175.086C357.458 175.865 356.453 176.255 355.158 176.255C353.635 176.255 352.519 175.71 351.81 174.62C351.101 173.524 350.746 171.802 350.746 169.452C350.746 167.237 351.171 165.55 352.021 164.39C352.876 163.224 354.112 162.641 355.729 162.641C356.163 162.641 356.597 162.688 357.03 162.781C357.464 162.869 357.883 162.998 358.287 163.168ZM355.123 168.714C354.367 168.714 353.772 168.986 353.339 169.531C352.905 170.076 352.688 170.829 352.688 171.79C352.688 172.751 352.905 173.504 353.339 174.049C353.772 174.594 354.367 174.866 355.123 174.866C355.908 174.866 356.5 174.608 356.898 174.093C357.297 173.571 357.496 172.804 357.496 171.79C357.496 170.771 357.297 170.003 356.898 169.487C356.5 168.972 355.908 168.714 355.123 168.714Z" fill="white"/>
<circle cx="233" cy="85" r="16" fill="#7B58CF"/>
<circle cx="233" cy="85" r="18" stroke="#7B58CF" stroke-opacity="0.3" stroke-width="4"/>
<path d="M229.396 77.8779H236.041V79.3721H231.014V82.5977C231.266 82.5039 231.518 82.4365 231.77 82.3955C232.027 82.3486 232.285 82.3252 232.543 82.3252C233.902 82.3252 234.98 82.7266 235.777 83.5293C236.574 84.332 236.973 85.4189 236.973 86.79C236.973 88.1729 236.554 89.2627 235.716 90.0596C234.884 90.8564 233.744 91.2549 232.297 91.2549C231.6 91.2549 230.961 91.208 230.381 91.1143C229.807 91.0205 229.291 90.8799 228.834 90.6924V88.8906C229.373 89.1836 229.915 89.4033 230.46 89.5498C231.005 89.6904 231.562 89.7607 232.13 89.7607C233.108 89.7607 233.861 89.5029 234.389 88.9873C234.922 88.4717 235.188 87.7393 235.188 86.79C235.188 85.8525 234.913 85.123 234.362 84.6016C233.817 84.0801 233.056 83.8193 232.077 83.8193C231.603 83.8193 231.14 83.875 230.688 83.9863C230.237 84.0918 229.807 84.2529 229.396 84.4697V77.8779Z" fill="white"/>
<circle cx="562" cy="37" r="16" fill="#7B58CF"/>
<circle cx="562" cy="37" r="18" stroke="#7B58CF" stroke-opacity="0.3" stroke-width="4"/>
<path d="M563.037 31.4951L558.897 38.4297H563.037V31.4951ZM562.747 29.8779H564.804V38.4297H566.553V39.8711H564.804V43H563.037V39.8711H557.474V38.1924L562.747 29.8779Z" fill="white"/>
<circle cx="27" cy="25" r="16" fill="#7B58CF"/>
<circle cx="27" cy="25" r="18" stroke="#7B58CF" stroke-opacity="0.3" stroke-width="4"/>
<path d="M23.9502 29.5146H26.71V19.6006L23.4053 21.1914V19.4863L26.6924 17.9219H28.4678V29.5146H31.1924V31H23.9502V29.5146Z" fill="white"/>
</svg>
