<svg width="632" height="164" viewBox="0 0 632 164" fill="none" xmlns="http://www.w3.org/2000/svg">
<rect width="632" height="164" fill="#A4A3A8"/>
<rect x="77" y="24" width="478" height="116" rx="6" fill="white"/>
<rect x="487" y="106" width="54" height="18" rx="3" fill="#1F75CB"/>
<rect x="382" y="107" width="43" height="16" rx="2" fill="white"/>
<rect x="382" y="107" width="43" height="16" rx="2" stroke="#A4A3A8" stroke-width="2"/>
<rect x="435" y="107" width="43" height="16" rx="2" fill="white"/>
<rect x="435" y="107" width="43" height="16" rx="2" stroke="#1F75CB" stroke-width="2"/>
<rect x="93" y="84" width="403" height="6" rx="2" fill="#89888D"/>
<rect x="93" y="74" width="413" height="6" rx="2" fill="#89888D"/>
<rect x="93" y="64" width="407" height="6" rx="2" fill="#89888D"/>
<rect x="93" y="40" width="78" height="8" rx="2" fill="#535158"/>
<path d="M538.625 40.3753C538.124 39.8749 537.313 39.8749 536.812 40.3753L535 42.1877L533.188 40.3753C532.687 39.8749 531.876 39.8749 531.375 40.3753C530.875 40.8758 530.875 41.6872 531.375 42.1877L533.188 44L531.375 45.8123C530.875 46.3128 530.875 47.1242 531.375 47.6246C531.876 48.1251 532.687 48.1251 533.188 47.6246L535 45.8123L536.812 47.6246C537.313 48.1251 538.124 48.1251 538.625 47.6246C539.125 47.1242 539.125 46.3128 538.625 45.8123L536.812 44L538.625 42.1877C539.125 41.6872 539.125 40.8758 538.625 40.3753Z" fill="#737278"/>
<circle cx="600" cy="132" r="16" fill="#7B58CF"/>
<circle cx="600" cy="132" r="18" stroke="#7B58CF" stroke-opacity="0.3" stroke-width="4"/>
<path d="M600.022 138.18C599.182 138.18 598.438 138.006 597.79 137.658C597.154 137.298 596.656 136.806 596.296 136.182C595.936 135.546 595.756 134.814 595.756 133.986C595.756 133.41 595.864 132.822 596.08 132.222C596.296 131.61 596.59 130.974 596.962 130.314L600.004 124.86H601.804L598.564 130.494L598.618 130.53C598.774 130.326 599.008 130.17 599.32 130.062C599.632 129.954 599.974 129.9 600.346 129.9C601.126 129.9 601.804 130.074 602.38 130.422C602.968 130.758 603.424 131.226 603.748 131.826C604.084 132.426 604.252 133.122 604.252 133.914C604.252 134.754 604.072 135.498 603.712 136.146C603.352 136.782 602.854 137.28 602.218 137.64C601.594 138 600.862 138.18 600.022 138.18ZM600.004 136.74C600.532 136.74 600.988 136.626 601.372 136.398C601.768 136.158 602.074 135.828 602.29 135.408C602.518 134.988 602.632 134.502 602.632 133.95C602.632 133.398 602.518 132.912 602.29 132.492C602.074 132.072 601.768 131.748 601.372 131.52C600.988 131.28 600.532 131.16 600.004 131.16C599.488 131.16 599.032 131.28 598.636 131.52C598.24 131.748 597.928 132.072 597.7 132.492C597.484 132.912 597.376 133.398 597.376 133.95C597.376 134.502 597.484 134.988 597.7 135.408C597.928 135.828 598.24 136.158 598.636 136.398C599.032 136.626 599.488 136.74 600.004 136.74Z" fill="white"/>
<circle cx="365" cy="115" r="16" fill="#7B58CF"/>
<circle cx="365" cy="115" r="18" stroke="#7B58CF" stroke-opacity="0.3" stroke-width="4"/>
<path d="M364.896 121.18C363.684 121.18 362.724 120.844 362.016 120.172C361.308 119.488 360.954 118.564 360.954 117.4H362.574C362.574 118.12 362.784 118.69 363.204 119.11C363.624 119.53 364.194 119.74 364.914 119.74C365.634 119.74 366.204 119.53 366.624 119.11C367.044 118.69 367.254 118.12 367.254 117.4V116.59C367.254 115.87 367.05 115.3 366.642 114.88C366.234 114.46 365.682 114.25 364.986 114.25H361.404V107.86H368.406V109.336H362.916L362.952 112.774H365.076C366.288 112.774 367.224 113.11 367.884 113.782C368.544 114.442 368.874 115.378 368.874 116.59V117.4C368.874 118.564 368.514 119.488 367.794 120.172C367.086 120.844 366.12 121.18 364.896 121.18Z" fill="white"/>
<circle cx="316" cy="77" r="16" fill="#7B58CF"/>
<circle cx="316" cy="77" r="18" stroke="#7B58CF" stroke-opacity="0.3" stroke-width="4"/>
<path d="M317.804 83V80.12H311.864V77.582L316.652 69.86H318.488L313.484 77.942V78.644H317.804V75.44H319.424V83H317.804Z" fill="white"/>
<circle cx="558" cy="44" r="16" fill="#7B58CF"/>
<circle cx="558" cy="44" r="18" stroke="#7B58CF" stroke-opacity="0.3" stroke-width="4"/>
<path d="M557.806 50.18C556.594 50.18 555.634 49.844 554.926 49.172C554.218 48.488 553.864 47.564 553.864 46.4H555.484C555.484 47.12 555.694 47.69 556.114 48.11C556.534 48.53 557.104 48.74 557.824 48.74C558.544 48.74 559.114 48.53 559.534 48.11C559.954 47.69 560.164 47.12 560.164 46.4V45.5C560.164 44.78 559.954 44.21 559.534 43.79C559.114 43.37 558.544 43.16 557.824 43.16H556.402V41.756L559.624 38.336H554.224V36.86H561.46V38.372L557.86 42.206V41.72C559.072 41.72 560.026 42.062 560.722 42.746C561.43 43.418 561.784 44.336 561.784 45.5V46.4C561.784 47.564 561.424 48.488 560.704 49.172C559.996 49.844 559.03 50.18 557.806 50.18Z" fill="white"/>
<circle cx="187" cy="44" r="16" fill="#7B58CF"/>
<circle cx="187" cy="44" r="18" stroke="#7B58CF" stroke-opacity="0.3" stroke-width="4"/>
<path d="M183.152 50V48.506L187.526 43.826C188.162 43.154 188.612 42.554 188.876 42.026C189.14 41.498 189.272 40.982 189.272 40.478C189.272 39.758 189.062 39.188 188.642 38.768C188.234 38.336 187.676 38.12 186.968 38.12C186.236 38.12 185.654 38.342 185.222 38.786C184.802 39.218 184.592 39.806 184.592 40.55H182.972C182.996 39.758 183.176 39.074 183.512 38.498C183.848 37.91 184.31 37.46 184.898 37.148C185.486 36.836 186.176 36.68 186.968 36.68C187.784 36.68 188.486 36.836 189.074 37.148C189.662 37.46 190.118 37.904 190.442 38.48C190.766 39.044 190.928 39.716 190.928 40.496C190.928 41.12 190.754 41.78 190.406 42.476C190.07 43.172 189.488 43.952 188.66 44.816L185.114 48.524H191.09V50H183.152Z" fill="white"/>
<circle cx="61" cy="40" r="16" fill="#7B58CF"/>
<circle cx="61" cy="40" r="18" stroke="#7B58CF" stroke-opacity="0.3" stroke-width="4"/>
<path d="M57.2235 46V44.524H60.7875V34.264L57.2235 36.928V35.074L60.1935 32.86H62.4075V44.524H65.3235V46H57.2235Z" fill="white"/>
</svg>
