<svg width="24" height="24" viewBox="0 0 24 24" fill="none" xmlns="http://www.w3.org/2000/svg">
<circle cx="12" cy="12" r="12" fill="#C3E6CD"/>
<circle cx="12" cy="12" r="6.5" fill="white" stroke="#108548" stroke-width="3"/>
<path fill-rule="evenodd" clip-rule="evenodd" d="M12 18C15.3137 18 18 15.3137 18 12C18 8.68629 15.3137 6 12 6C8.68629 6 6 8.68629 6 12C6 15.3137 8.68629 18 12 18ZM14.5762 10.9801C14.8413 10.6619 14.7983 10.189 14.4801 9.92383C14.1619 9.65866 13.689 9.70165 13.4238 10.0199L11.4496 12.3889L10.5303 11.4697C10.2374 11.1768 9.76256 11.1768 9.46967 11.4697C9.17678 11.7626 9.17678 12.2374 9.46967 12.5303L10.9697 14.0303C11.1187 14.1793 11.3235 14.2588 11.534 14.2492C11.7445 14.2397 11.9413 14.142 12.0762 13.9801L14.5762 10.9801Z" fill="#108548"/>
</svg>
