<svg width="12" height="12" viewBox="0 0 12 12" fill="none" xmlns="http://www.w3.org/2000/svg">
<path fill-rule="evenodd" clip-rule="evenodd" d="M6 12C9.31371 12 12 9.31371 12 6C12 2.68629 9.31371 0 6 0C2.68629 0 0 2.68629 0 6C0 9.31371 2.68629 12 6 12ZM3 4.75C3 4.33579 3.33579 4 3.75 4H8.24918C8.66339 4 9 4.33579 9 4.75C9 5.16421 8.66416 5.5 8.24995 5.5H3.75C3.33579 5.5 3 5.16421 3 4.75ZM3 7.25C3 6.83579 3.33579 6.5 3.75 6.5H7.24929C7.6635 6.5 8 6.83579 8 7.25C8 7.66421 7.66419 8 7.24997 8H3.75C3.33579 8 3 7.66421 3 7.25Z" fill="#868686"/>
</svg>
