<svg width="24" height="24" viewBox="0 0 24 24" fill="none" xmlns="http://www.w3.org/2000/svg">
<circle cx="12" cy="12" r="12" fill="#DBDBDB"/>
<circle cx="12" cy="12" r="6.5" fill="white" stroke="#868686" stroke-width="3"/>
<path fill-rule="evenodd" clip-rule="evenodd" d="M12 18C15.3137 18 18 15.3137 18 12C18 8.68629 15.3137 6 12 6C8.68629 6 6 8.68629 6 12C6 15.3137 8.68629 18 12 18ZM9 10.75C9 10.3358 9.33579 10 9.75 10H14.2492C14.6634 10 15 10.3358 15 10.75C15 11.1642 14.6642 11.5 14.2499 11.5H9.75C9.33579 11.5 9 11.1642 9 10.75ZM9 13.25C9 12.8358 9.33579 12.5 9.75 12.5H13.2493C13.6635 12.5 14 12.8358 14 13.25C14 13.6642 13.6642 14 13.25 14H9.75C9.33579 14 9 13.6642 9 13.25Z" fill="#868686"/>
</svg>
