<svg width="834" height="441" viewBox="0 0 834 441" fill="none" xmlns="http://www.w3.org/2000/svg">
<rect width="834" height="441" fill="white"/>
<rect width="800" height="406" transform="translate(17 17.5)" fill="white"/>
<g clip-path="url(#clip0_31375_916)">
<mask id="path-3-inside-1_31375_916" fill="white">
<path d="M17 17H818V57H17V17Z"/>
</mask>
<path d="M818 56H17V58H818V56Z" fill="#DCDCDE" mask="url(#path-3-inside-1_31375_916)"/>
<g clip-path="url(#clip1_31375_916)">
<path d="M429.507 34.2837L429.473 34.1952L426.081 25.4565C426.013 25.2849 425.891 25.1393 425.733 25.0409C425.615 24.9663 425.481 24.9201 425.342 24.9059C425.202 24.8917 425.062 24.9099 424.931 24.9591C424.8 25.0083 424.683 25.087 424.588 25.189C424.494 25.291 424.425 25.4135 424.387 25.5466L422.097 32.4696H412.825L410.536 25.5466C410.498 25.4137 410.429 25.2915 410.334 25.1896C410.24 25.0878 410.122 25.0092 409.992 24.9601C409.861 24.911 409.72 24.8927 409.581 24.9067C409.442 24.9207 409.308 24.9667 409.19 25.0409C409.032 25.1393 408.91 25.2849 408.841 25.4565L405.451 34.1968L405.416 34.2837C404.928 35.5436 404.868 36.9261 405.245 38.2227C405.621 39.5194 406.415 40.6598 407.505 41.4722L407.518 41.4816L407.547 41.5038L412.707 45.3232L415.267 47.2337L416.822 48.3952C417.005 48.5313 417.227 48.605 417.456 48.605C417.685 48.605 417.907 48.5313 418.089 48.3952L419.645 47.2337L422.205 45.3232L427.401 41.4816L427.416 41.4706C428.506 40.6586 429.3 39.5185 429.677 38.2222C430.054 36.9258 429.995 35.5436 429.507 34.2837V34.2837Z" fill="#E24329"/>
<path d="M429.507 34.2837L429.474 34.1952C427.821 34.5301 426.264 35.2219 424.914 36.2211L417.466 41.7835L422.208 45.3232L427.405 41.4817L427.419 41.4706C428.509 40.6582 429.302 39.5179 429.679 38.2216C430.055 36.9253 429.995 35.5432 429.507 34.2837V34.2837Z" fill="#FC6D26"/>
<path d="M412.707 45.3232L415.267 47.2337L416.822 48.3952C417.005 48.5313 417.227 48.6049 417.456 48.6049C417.685 48.6049 417.907 48.5313 418.089 48.3952L419.645 47.2337L422.205 45.3232L417.462 41.7834L412.707 45.3232Z" fill="#FCA326"/>
<path d="M410.009 36.2211C408.66 35.2224 407.103 34.5312 405.451 34.1968L405.416 34.2837C404.928 35.5436 404.868 36.9261 405.245 38.2228C405.621 39.5194 406.415 40.6599 407.505 41.4722L407.518 41.4817L407.547 41.5038L412.707 45.3232L417.453 41.7835L410.009 36.2211Z" fill="#FC6D26"/>
</g>
</g>
<rect x="16.5" y="17" width="801" height="407" rx="4.5" stroke="#737278"/>
<defs>
<clipPath id="clip0_31375_916">
<rect x="17" y="17.5" width="800" height="406" rx="4" fill="white"/>
</clipPath>
<clipPath id="clip1_31375_916">
<rect width="25" height="23.7037" fill="white" transform="translate(405 24.9012)"/>
</clipPath>
</defs>
</svg>
