<svg width="315" height="529" viewBox="0 0 315 529" fill="none" xmlns="http://www.w3.org/2000/svg">
<rect width="264" height="529" transform="translate(51)" fill="#FBFAFD"/>
<rect x="71" y="16" width="64" height="8" rx="2" fill="#DCDCDE"/>
<g style="mix-blend-mode:multiply">
<rect x="59" y="42" width="248" height="32" rx="4" fill="#ECECEF"/>
<rect x="68" y="46" width="24" height="24" rx="4" fill="#FDF1DD"/>
<rect x="68.5" y="46.5" width="23" height="23" rx="3.5" stroke="#1F1E24" stroke-opacity="0.08"/>
<path d="M63 47.5C63 46.6716 63.6716 46 64.5 46V46C65.3284 46 66 46.6716 66 47.5V68.5C66 69.3284 65.3284 70 64.5 70V70C63.6716 70 63 69.3284 63 68.5V47.5Z" fill="#1F75CB"/>
<rect x="100" y="54" width="89" height="8" rx="2" fill="#737278"/>
</g>
<path fill-rule="evenodd" clip-rule="evenodd" d="M84.5 84.5H73.5V87H84.5V84.5ZM84.5 88.5H77.5V95.5H84.5V88.5ZM76 88.5H73.5V95.5H76V88.5ZM73.5 83H72V84.5V95.5V97H73.5H84.5H86V95.5V84.5V83H84.5H73.5Z" fill="#737278"/>
<rect x="100" y="86" width="64" height="8" rx="2" fill="#A4A3A8"/>
<g style="mix-blend-mode:multiply">
<rect x="260" y="82" width="35" height="16" rx="8" fill="#DCDCDE"/>
</g>
<rect x="59" y="116" width="224" height="1" fill="#ECECEF"/>
<g style="mix-blend-mode:multiply">
<path fill-rule="evenodd" clip-rule="evenodd" d="M82.2803 136.22C81.9874 135.927 81.5126 135.927 81.2197 136.22C81.0297 136.41 80.9629 136.676 81.0194 136.92L77.6893 140.25H75.2071C74.0935 140.25 73.5358 141.596 74.3232 142.384L76.2344 144.295L72.5134 148.43C72.1829 148.797 72 149.273 72 149.767V150H72.2325C72.7266 150 73.2032 149.817 73.5705 149.487L77.7049 145.766L79.6161 147.677C80.4036 148.464 81.75 147.907 81.75 146.793V144.311L85.0801 140.981C85.3238 141.037 85.5904 140.97 85.7803 140.78C86.0732 140.487 86.0732 140.013 85.7803 139.72L85.1768 139.116L82.8839 136.823C82.8838 136.823 82.8836 136.823 82.8835 136.823L82.2803 136.22ZM83.9393 140L82 138.061L79.0607 141L81 142.939L83.9393 140ZM77.6893 141.75L80.25 144.311V146.189L75.8107 141.75H77.6893Z" fill="#737278"/>
<rect x="100" y="139" width="89" height="8" rx="2" fill="#A4A3A8"/>
<path fill-rule="evenodd" clip-rule="evenodd" d="M283.22 141.22C283.513 140.927 283.987 140.927 284.28 141.22L287 143.939L289.72 141.22C290.013 140.927 290.487 140.927 290.78 141.22C291.073 141.513 291.073 141.987 290.78 142.28L287.53 145.53C287.237 145.823 286.763 145.823 286.47 145.53L283.22 142.28C282.927 141.987 282.927 141.513 283.22 141.22Z" fill="#737278"/>
</g>
<rect x="100" y="171" width="70" height="8" rx="2" fill="#A4A3A8"/>
<g style="mix-blend-mode:multiply">
<rect x="260" y="167" width="35" height="16" rx="8" fill="#DCDCDE"/>
</g>
<rect x="100" y="203" width="117" height="8" rx="2" fill="#A4A3A8"/>
<g style="mix-blend-mode:multiply">
<rect x="260" y="199" width="35" height="16" rx="8" fill="#DCDCDE"/>
</g>
<rect x="59" y="233" width="224" height="1" fill="#ECECEF"/>
<g style="mix-blend-mode:multiply">
<g clip-path="url(#clip0_26764_28597)">
<path fill-rule="evenodd" clip-rule="evenodd" d="M72.5 256V254.5H77.1972L78.1972 256H72.5ZM71 256V254C71 253.448 71.4477 253 72 253H77.4648C77.7992 253 78.1114 253.167 78.2969 253.445L79.9635 255.945C79.9756 255.963 79.987 255.982 79.9977 256H86C86.5523 256 87 256.448 87 257V265C87 265.552 86.5523 266 86 266H72C71.4477 266 71 265.552 71 265V257.5V256.5V256ZM72.5 257.5V264.5H85.5V257.5H79.1315H72.5Z" fill="#737278"/>
</g>
<rect x="100" y="256" width="43" height="8" rx="2" fill="#A4A3A8"/>
<path fill-rule="evenodd" clip-rule="evenodd" d="M285.22 256.22C284.927 256.513 284.927 256.987 285.22 257.28L287.939 260L285.22 262.72C284.927 263.013 284.927 263.487 285.22 263.78C285.513 264.073 285.987 264.073 286.28 263.78L289.53 260.53C289.823 260.237 289.823 259.763 289.53 259.47L286.28 256.22C285.987 255.927 285.513 255.927 285.22 256.22Z" fill="#737278"/>
</g>
<g style="mix-blend-mode:multiply">
<g clip-path="url(#clip1_26764_28597)">
<path fill-rule="evenodd" clip-rule="evenodd" d="M72.5 288V286.5H77.1972L78.1972 288H72.5ZM71 288V286C71 285.448 71.4477 285 72 285H77.4648C77.7992 285 78.1114 285.167 78.2969 285.445L79.9635 287.945C79.9756 287.963 79.987 287.982 79.9977 288H86C86.5523 288 87 288.448 87 289V297C87 297.552 86.5523 298 86 298H72C71.4477 298 71 297.552 71 297V289.5V288.5V288ZM72.5 289.5V296.5H85.5V289.5H79.1315H72.5Z" fill="#737278"/>
</g>
<rect x="100" y="288" width="96" height="8" rx="2" fill="#A4A3A8"/>
<path fill-rule="evenodd" clip-rule="evenodd" d="M285.22 288.22C284.927 288.513 284.927 288.987 285.22 289.28L287.939 292L285.22 294.72C284.927 295.013 284.927 295.487 285.22 295.78C285.513 296.073 285.987 296.073 286.28 295.78L289.53 292.53C289.823 292.237 289.823 291.763 289.53 291.47L286.28 288.22C285.987 287.927 285.513 287.927 285.22 288.22Z" fill="#737278"/>
</g>
<g style="mix-blend-mode:multiply">
<g clip-path="url(#clip2_26764_28597)">
<path fill-rule="evenodd" clip-rule="evenodd" d="M72.5 320V318.5H77.1972L78.1972 320H72.5ZM71 320V318C71 317.448 71.4477 317 72 317H77.4648C77.7992 317 78.1114 317.167 78.2969 317.445L79.9635 319.945C79.9756 319.963 79.987 319.982 79.9977 320H86C86.5523 320 87 320.448 87 321V329C87 329.552 86.5523 330 86 330H72C71.4477 330 71 329.552 71 329V321.5V320.5V320ZM72.5 321.5V328.5H85.5V321.5H79.1315H72.5Z" fill="#737278"/>
</g>
<rect x="100" y="320" width="50" height="8" rx="2" fill="#A4A3A8"/>
<path fill-rule="evenodd" clip-rule="evenodd" d="M285.22 320.22C284.927 320.513 284.927 320.987 285.22 321.28L287.939 324L285.22 326.72C284.927 327.013 284.927 327.487 285.22 327.78C285.513 328.073 285.987 328.073 286.28 327.78L289.53 324.53C289.823 324.237 289.823 323.763 289.53 323.47L286.28 320.22C285.987 319.927 285.513 319.927 285.22 320.22Z" fill="#737278"/>
</g>
<g style="mix-blend-mode:multiply">
<g clip-path="url(#clip3_26764_28597)">
<path fill-rule="evenodd" clip-rule="evenodd" d="M72.5 352V350.5H77.1972L78.1972 352H72.5ZM71 352V350C71 349.448 71.4477 349 72 349H77.4648C77.7992 349 78.1114 349.167 78.2969 349.445L79.9635 351.945C79.9756 351.963 79.987 351.982 79.9977 352H86C86.5523 352 87 352.448 87 353V361C87 361.552 86.5523 362 86 362H72C71.4477 362 71 361.552 71 361V353.5V352.5V352ZM72.5 353.5V360.5H85.5V353.5H79.1315H72.5Z" fill="#737278"/>
</g>
<rect x="100" y="352" width="62" height="8" rx="2" fill="#A4A3A8"/>
<path fill-rule="evenodd" clip-rule="evenodd" d="M285.22 352.22C284.927 352.513 284.927 352.987 285.22 353.28L287.939 356L285.22 358.72C284.927 359.013 284.927 359.487 285.22 359.78C285.513 360.073 285.987 360.073 286.28 359.78L289.53 356.53C289.823 356.237 289.823 355.763 289.53 355.47L286.28 352.22C285.987 351.927 285.513 351.927 285.22 352.22Z" fill="#737278"/>
</g>
<g style="mix-blend-mode:multiply">
<g clip-path="url(#clip4_26764_28597)">
<path fill-rule="evenodd" clip-rule="evenodd" d="M72.5 384V382.5H77.1972L78.1972 384H72.5ZM71 384V382C71 381.448 71.4477 381 72 381H77.4648C77.7992 381 78.1114 381.167 78.2969 381.445L79.9635 383.945C79.9756 383.963 79.987 383.982 79.9977 384H86C86.5523 384 87 384.448 87 385V393C87 393.552 86.5523 394 86 394H72C71.4477 394 71 393.552 71 393V385.5V384.5V384ZM72.5 385.5V392.5H85.5V385.5H79.1315H72.5Z" fill="#737278"/>
</g>
<rect x="100" y="384" width="89" height="8" rx="2" fill="#A4A3A8"/>
<path fill-rule="evenodd" clip-rule="evenodd" d="M285.22 384.22C284.927 384.513 284.927 384.987 285.22 385.28L287.939 388L285.22 390.72C284.927 391.013 284.927 391.487 285.22 391.78C285.513 392.073 285.987 392.073 286.28 391.78L289.53 388.53C289.823 388.237 289.823 387.763 289.53 387.47L286.28 384.22C285.987 383.927 285.513 383.927 285.22 384.22Z" fill="#737278"/>
</g>
<g style="mix-blend-mode:multiply">
<g clip-path="url(#clip5_26764_28597)">
<path fill-rule="evenodd" clip-rule="evenodd" d="M72.5 416V414.5H77.1972L78.1972 416H72.5ZM71 416V414C71 413.448 71.4477 413 72 413H77.4648C77.7992 413 78.1114 413.167 78.2969 413.445L79.9635 415.945C79.9756 415.963 79.987 415.982 79.9977 416H86C86.5523 416 87 416.448 87 417V425C87 425.552 86.5523 426 86 426H72C71.4477 426 71 425.552 71 425V417.5V416.5V416ZM72.5 417.5V424.5H85.5V417.5H79.1315H72.5Z" fill="#737278"/>
</g>
<rect x="100" y="416" width="67" height="8" rx="2" fill="#A4A3A8"/>
<path fill-rule="evenodd" clip-rule="evenodd" d="M285.22 416.22C284.927 416.513 284.927 416.987 285.22 417.28L287.939 420L285.22 422.72C284.927 423.013 284.927 423.487 285.22 423.78C285.513 424.073 285.987 424.073 286.28 423.78L289.53 420.53C289.823 420.237 289.823 419.763 289.53 419.47L286.28 416.22C285.987 415.927 285.513 415.927 285.22 416.22Z" fill="#737278"/>
</g>
<g style="mix-blend-mode:multiply">
<g clip-path="url(#clip6_26764_28597)">
<path fill-rule="evenodd" clip-rule="evenodd" d="M72.5 448V446.5H77.1972L78.1972 448H72.5ZM71 448V446C71 445.448 71.4477 445 72 445H77.4648C77.7992 445 78.1114 445.167 78.2969 445.445L79.9635 447.945C79.9756 447.963 79.987 447.982 79.9977 448H86C86.5523 448 87 448.448 87 449V457C87 457.552 86.5523 458 86 458H72C71.4477 458 71 457.552 71 457V449.5V448.5V448ZM72.5 449.5V456.5H85.5V449.5H79.1315H72.5Z" fill="#737278"/>
</g>
<rect x="100" y="448" width="89" height="8" rx="2" fill="#A4A3A8"/>
<path fill-rule="evenodd" clip-rule="evenodd" d="M285.22 448.22C284.927 448.513 284.927 448.987 285.22 449.28L287.939 452L285.22 454.72C284.927 455.013 284.927 455.487 285.22 455.78C285.513 456.073 285.987 456.073 286.28 455.78L289.53 452.53C289.823 452.237 289.823 451.763 289.53 451.47L286.28 448.22C285.987 447.927 285.513 447.927 285.22 448.22Z" fill="#737278"/>
</g>
<rect x="59" y="478" width="224" height="1" fill="#ECECEF"/>
<g style="mix-blend-mode:multiply">
<path fill-rule="evenodd" clip-rule="evenodd" d="M78.0102 499.233L78.1341 498.5H79.8662L79.99 499.233C80.0537 499.611 80.3227 499.905 80.6648 500.019C81.3409 500.245 81.9564 500.605 82.4796 501.069C82.7497 501.308 83.1391 501.393 83.4975 501.26L84.1963 501L85.0624 502.5L84.4887 502.974C84.1942 503.218 84.0737 503.597 84.1452 503.95C84.2139 504.289 84.25 504.64 84.25 505C84.25 505.36 84.2139 505.711 84.1452 506.05C84.0736 506.403 84.1942 506.782 84.4886 507.026L85.0622 507.5L84.1962 509L83.4975 508.74C83.1391 508.607 82.7497 508.692 82.4795 508.931C81.9564 509.395 81.3409 509.755 80.6648 509.981C80.3227 510.095 80.0537 510.389 79.99 510.767L79.8662 511.5H78.1341L78.0102 510.767C77.9465 510.389 77.6775 510.095 77.3354 509.981C76.6593 509.755 76.0437 509.395 75.5205 508.931C75.2504 508.692 74.861 508.607 74.5026 508.74L73.804 509L72.9379 507.5L73.5114 507.026C73.8059 506.782 73.9264 506.403 73.8548 506.05C73.7862 505.711 73.75 505.36 73.75 505C73.75 504.64 73.7862 504.289 73.8548 503.95C73.9264 503.597 73.8059 503.218 73.5114 502.974L72.938 502.5L73.804 501L74.5026 501.26C74.861 501.393 75.2504 501.308 75.5206 501.069C76.0437 500.605 76.6593 500.245 77.3354 500.019C77.6775 499.905 77.9465 499.611 78.0102 499.233ZM77.9227 497C77.3127 497 76.7918 497.44 76.6902 498.042L76.5795 498.697C75.9132 498.953 75.2981 499.312 74.7535 499.753L74.1292 499.52C73.5575 499.308 72.9157 499.539 72.6107 500.067L71.5333 501.933C71.2283 502.461 71.3492 503.133 71.8193 503.521L72.332 503.945C72.278 504.289 72.25 504.642 72.25 505C72.25 505.358 72.278 505.711 72.332 506.055L71.8192 506.479C71.3491 506.867 71.2282 507.539 71.5332 508.067L72.6106 509.933C72.9156 510.461 73.5574 510.692 74.1291 510.48L74.7535 510.247C75.2981 510.688 75.9132 511.047 76.5795 511.303L76.6902 511.958C76.7918 512.56 77.3127 513 77.9227 513H80.0775C80.6875 513 81.2084 512.56 81.31 511.958L81.4207 511.303C82.087 511.047 82.702 510.688 83.2465 510.247L83.871 510.48C84.4427 510.692 85.0845 510.461 85.3895 509.933L86.4669 508.067C86.7719 507.539 86.651 506.867 86.1809 506.479L85.668 506.055C85.722 505.711 85.75 505.358 85.75 505C85.75 504.642 85.722 504.29 85.668 503.946L86.1811 503.521C86.6512 503.133 86.7721 502.461 86.4671 501.933L85.3897 500.067C85.0847 499.539 84.4429 499.308 83.8712 499.52L83.2466 499.753C82.7021 499.312 82.087 498.953 81.4207 498.697L81.31 498.042C81.2084 497.44 80.6875 497 80.0775 497H77.9227ZM76.75 505C76.75 503.757 77.7573 502.75 79 502.75C80.2426 502.75 81.25 503.757 81.25 505C81.25 506.243 80.2426 507.25 79 507.25C77.7573 507.25 76.75 506.243 76.75 505ZM79 501.25C76.9289 501.25 75.25 502.929 75.25 505C75.25 507.071 76.9289 508.75 79 508.75C81.0711 508.75 82.75 507.071 82.75 505C82.75 502.929 81.0711 501.25 79 501.25Z" fill="#737278"/>
<rect x="100" y="501" width="65" height="8" rx="2" fill="#A4A3A8"/>
<path fill-rule="evenodd" clip-rule="evenodd" d="M285.22 501.22C284.927 501.513 284.927 501.987 285.22 502.28L287.939 505L285.22 507.72C284.927 508.013 284.927 508.487 285.22 508.78C285.513 509.073 285.987 509.073 286.28 508.78L289.53 505.53C289.823 505.237 289.823 504.763 289.53 504.47L286.28 501.22C285.987 500.927 285.513 500.927 285.22 501.22Z" fill="#737278"/>
</g>
<circle cx="58" cy="506" r="12" fill="#7B58CF"/>
<circle cx="58" cy="506" r="14" stroke="#7B58CF" stroke-opacity="0.3" stroke-width="4"/>
<path d="M55.5977 501.252H60.0273V502.248H56.6758V504.398C56.8438 504.336 57.0117 504.291 57.1797 504.264C57.3516 504.232 57.5234 504.217 57.6953 504.217C58.6016 504.217 59.3203 504.484 59.8516 505.02C60.3828 505.555 60.6484 506.279 60.6484 507.193C60.6484 508.115 60.3691 508.842 59.8105 509.373C59.2559 509.904 58.4961 510.17 57.5312 510.17C57.0664 510.17 56.6406 510.139 56.2539 510.076C55.8711 510.014 55.5273 509.92 55.2227 509.795V508.594C55.582 508.789 55.9434 508.936 56.3066 509.033C56.6699 509.127 57.041 509.174 57.4199 509.174C58.0723 509.174 58.5742 509.002 58.9258 508.658C59.2812 508.314 59.459 507.826 59.459 507.193C59.459 506.568 59.2754 506.082 58.9082 505.734C58.5449 505.387 58.0371 505.213 57.3848 505.213C57.0684 505.213 56.7598 505.25 56.459 505.324C56.1582 505.395 55.8711 505.502 55.5977 505.646V501.252Z" fill="white"/>
<circle cx="16" cy="352" r="12" fill="#7B58CF"/>
<circle cx="16" cy="352" r="14" stroke="#7B58CF" stroke-opacity="0.3" stroke-width="4"/>
<path d="M16.6914 348.33L13.9316 352.953H16.6914V348.33ZM16.498 347.252H17.8691V352.953H19.0352V353.914H17.8691V356H16.6914V353.914H12.9824V352.795L16.498 347.252Z" fill="white"/>
<line x1="34.75" y1="352.25" x2="44.25" y2="352.25" stroke="#7B58CF" stroke-width="1.5" stroke-linecap="round"/>
<path d="M51 240H45V467H51" stroke="#7B58CF" stroke-width="1.5" stroke-linecap="round" stroke-linejoin="round"/>
<circle cx="16" cy="175" r="12" fill="#7B58CF"/>
<circle cx="16" cy="175" r="14" stroke="#7B58CF" stroke-opacity="0.3" stroke-width="4"/>
<path d="M16.9316 174.318C17.5059 174.471 17.9453 174.742 18.25 175.133C18.5547 175.52 18.707 176.004 18.707 176.586C18.707 177.391 18.4355 178.023 17.8926 178.484C17.3535 178.941 16.6055 179.17 15.6484 179.17C15.2461 179.17 14.8359 179.133 14.418 179.059C14 178.984 13.5898 178.877 13.1875 178.736V177.559C13.5859 177.766 13.9785 177.92 14.3652 178.021C14.752 178.123 15.1367 178.174 15.5195 178.174C16.168 178.174 16.666 178.027 17.0137 177.734C17.3613 177.441 17.5352 177.02 17.5352 176.469C17.5352 175.961 17.3613 175.559 17.0137 175.262C16.666 174.961 16.1953 174.811 15.6016 174.811H14.6992V173.838H15.6016C16.1445 173.838 16.5684 173.719 16.873 173.48C17.1777 173.242 17.3301 172.91 17.3301 172.484C17.3301 172.035 17.1875 171.691 16.9023 171.453C16.6211 171.211 16.2188 171.09 15.6953 171.09C15.3477 171.09 14.9883 171.129 14.6172 171.207C14.2461 171.285 13.8574 171.402 13.4512 171.559V170.469C13.9238 170.344 14.3438 170.25 14.7109 170.188C15.082 170.125 15.4102 170.094 15.6953 170.094C16.5469 170.094 17.2266 170.309 17.7344 170.738C18.2461 171.164 18.502 171.73 18.502 172.438C18.502 172.918 18.3672 173.318 18.0977 173.639C17.832 173.959 17.4434 174.186 16.9316 174.318Z" fill="white"/>
<line x1="34.75" y1="175.25" x2="44.25" y2="175.25" stroke="#7B58CF" stroke-width="1.5" stroke-linecap="round"/>
<path d="M51 125H45V227H51" stroke="#7B58CF" stroke-width="1.5" stroke-linecap="round" stroke-linejoin="round"/>
<circle cx="16" cy="73" r="12" fill="#7B58CF"/>
<circle cx="16" cy="73" r="14" stroke="#7B58CF" stroke-opacity="0.3" stroke-width="4"/>
<path d="M14.5703 76.0039H18.5898V77H13.2754V76.0039C14.0059 75.2344 14.6445 74.5547 15.1914 73.9648C15.7383 73.375 16.1152 72.959 16.3223 72.7168C16.7129 72.2402 16.9766 71.8555 17.1133 71.5625C17.25 71.2656 17.3184 70.9629 17.3184 70.6543C17.3184 70.166 17.1738 69.7832 16.8848 69.5059C16.5996 69.2285 16.207 69.0898 15.707 69.0898C15.3516 69.0898 14.9785 69.1543 14.5879 69.2832C14.1973 69.4121 13.7832 69.6074 13.3457 69.8691V68.6738C13.748 68.4824 14.1426 68.3379 14.5293 68.2402C14.9199 68.1426 15.3047 68.0938 15.6836 68.0938C16.5391 68.0938 17.2266 68.3223 17.7461 68.7793C18.2695 69.2324 18.5312 69.8281 18.5312 70.5664C18.5312 70.9414 18.4434 71.3164 18.2676 71.6914C18.0957 72.0664 17.8145 72.4805 17.4238 72.9336C17.2051 73.1875 16.8867 73.5391 16.4688 73.9883C16.0547 74.4375 15.4219 75.1094 14.5703 76.0039Z" fill="white"/>
<line x1="34.75" y1="73.25" x2="44.25" y2="73.25" stroke="#7B58CF" stroke-width="1.5" stroke-linecap="round"/>
<path d="M51 39H45V110H51" stroke="#7B58CF" stroke-width="1.5" stroke-linecap="round" stroke-linejoin="round"/>
<circle cx="56" cy="20" r="12" fill="#7B58CF"/>
<circle cx="56" cy="20" r="14" stroke="#7B58CF" stroke-opacity="0.3" stroke-width="4"/>
<path d="M53.9668 23.0098H55.8066V16.4004L53.6035 17.4609V16.3242L55.7949 15.2812H56.9785V23.0098H58.7949V24H53.9668V23.0098Z" fill="white"/>
<defs>
<clipPath id="clip0_26764_28597">
<rect width="16" height="16" fill="white" transform="translate(71 252)"/>
</clipPath>
<clipPath id="clip1_26764_28597">
<rect width="16" height="16" fill="white" transform="translate(71 284)"/>
</clipPath>
<clipPath id="clip2_26764_28597">
<rect width="16" height="16" fill="white" transform="translate(71 316)"/>
</clipPath>
<clipPath id="clip3_26764_28597">
<rect width="16" height="16" fill="white" transform="translate(71 348)"/>
</clipPath>
<clipPath id="clip4_26764_28597">
<rect width="16" height="16" fill="white" transform="translate(71 380)"/>
</clipPath>
<clipPath id="clip5_26764_28597">
<rect width="16" height="16" fill="white" transform="translate(71 412)"/>
</clipPath>
<clipPath id="clip6_26764_28597">
<rect width="16" height="16" fill="white" transform="translate(71 444)"/>
</clipPath>
</defs>
</svg>
