<svg width="1119" height="1425" viewBox="0 0 1119 1425" fill="none" xmlns="http://www.w3.org/2000/svg">
<rect width="1119" height="1425" fill="white"/>
<path d="M22.9082 33.1846C26.0371 33.1846 28.1465 31.1631 28.5068 28.6055H26.0459C25.7383 30.1172 24.5078 31.0049 22.9434 31.0049C20.8076 31.0049 19.3311 29.3789 19.3311 26.4609C19.3311 23.5781 20.7988 21.9082 22.9521 21.9082C24.543 21.9082 25.7734 22.8311 26.0371 24.3779H28.5068C28.1113 21.4775 25.8525 19.7285 22.9082 19.7285C19.4629 19.7285 16.8701 22.2422 16.8701 26.4609C16.8701 30.6709 19.4365 33.1846 22.9082 33.1846ZM34.7646 33.2021C37.6299 33.2021 39.4668 31.1895 39.4668 28.1924C39.4668 25.1777 37.6299 23.1562 34.7646 23.1562C31.8994 23.1562 30.0625 25.1777 30.0625 28.1924C30.0625 31.1895 31.8994 33.2021 34.7646 33.2021ZM34.7646 31.2861C33.2617 31.2861 32.4707 29.9678 32.4707 28.1836C32.4707 26.3906 33.2617 25.0723 34.7646 25.0723C36.2676 25.0723 37.0586 26.3906 37.0586 28.1836C37.0586 29.9678 36.2676 31.2861 34.7646 31.2861ZM43.6855 27.3662C43.6855 25.9512 44.5381 25.1689 45.7246 25.1689C46.9023 25.1689 47.623 25.9336 47.623 27.2344V33H49.9961V26.8564C49.9961 24.5098 48.6162 23.165 46.6035 23.165C45.1357 23.165 44.1777 23.877 43.7383 24.9756H43.6416V23.2969H41.3125V33H43.6855V27.3662ZM57.2031 23.2969H51.5342V25.1514H57.2031V23.2969ZM52.9141 20.915V30.4336C52.9141 32.1211 53.9951 33.1055 55.8584 33.1055C56.3682 33.1055 56.8867 33.0527 57.3525 32.9297L57.0361 31.0752C56.8252 31.1104 56.5439 31.1367 56.3242 31.1367C55.5947 31.1367 55.2871 30.8027 55.2871 30.0469V20.915H52.9141ZM63.2324 33.2021C65.5088 33.2021 67.1172 32.042 67.5127 30.3018L65.2979 30.1084C65.0078 30.9258 64.2695 31.3652 63.2676 31.3652C61.7822 31.3652 60.833 30.3457 60.833 28.623V27.542C60.833 26.0918 61.668 24.9932 63.1182 24.9932C64.5596 24.9932 65.3418 26.0566 65.3418 27.6562L66.4404 27.2168H59.5234V28.79H67.6182V28.0869C67.6182 24.7998 65.5967 23.1562 63.0918 23.1562C60.3145 23.1562 58.4863 25.2129 58.4863 28.2012C58.4863 31.2246 60.2969 33.2021 63.2324 33.2021ZM71.002 23.2969H68.4883L71.3799 28.1572L68.418 33H70.9229L72.9355 29.5459L74.9922 33H77.4795L74.4912 28.1572L77.4268 23.2969H74.9219L72.9355 26.8477L71.002 23.2969ZM84.0449 23.2969H78.376V25.1514H84.0449V23.2969ZM79.7559 20.915V30.4336C79.7559 32.1211 80.8369 33.1055 82.7002 33.1055C83.21 33.1055 83.7285 33.0527 84.1943 32.9297L83.8779 31.0752C83.667 31.1104 83.3857 31.1367 83.166 31.1367C82.4365 31.1367 82.1289 30.8027 82.1289 30.0469V20.915H79.7559ZM93.458 25.9951C93.2207 24.2549 91.8232 23.1562 89.4941 23.1562C87.1211 23.1562 85.5303 24.3252 85.5303 26.1357C85.5303 27.5596 86.4268 28.4912 88.2988 28.8779L89.96 29.2295C90.8213 29.4141 91.2607 29.7568 91.2607 30.3105C91.2607 30.9521 90.5576 31.4355 89.4941 31.4355C88.4395 31.4355 87.7715 30.9697 87.5957 30.0996L85.2754 30.2578C85.5303 32.1123 87.0947 33.2021 89.5029 33.2021C91.9463 33.2021 93.6777 31.9453 93.6777 30.082C93.6777 28.6934 92.7812 27.8408 90.9268 27.4541L89.2217 27.1025C88.2988 26.9004 87.9033 26.5488 87.9033 26.0039C87.9033 25.3711 88.5889 24.9141 89.5293 24.9141C90.5664 24.9141 91.1465 25.4941 91.2871 26.1621L93.458 25.9951ZM101.79 33H104.26L106.07 26.5488H106.176L107.986 33H110.465L113.207 23.2969H110.79L109.12 30.0205H109.041L107.318 23.2969H104.945L103.214 30.0469H103.144L101.456 23.2969H99.0391L101.79 33ZM114.719 33H117.092V23.2969H114.719V33ZM115.905 21.9346C116.661 21.9346 117.276 21.3633 117.276 20.6514C117.276 19.9395 116.661 19.3682 115.905 19.3682C115.149 19.3682 114.534 19.9395 114.534 20.6514C114.534 21.3633 115.149 21.9346 115.905 21.9346ZM124.299 23.2969H118.63V25.1514H124.299V23.2969ZM120.01 20.915V30.4336C120.01 32.1211 121.091 33.1055 122.954 33.1055C123.464 33.1055 123.982 33.0527 124.448 32.9297L124.132 31.0752C123.921 31.1104 123.64 31.1367 123.42 31.1367C122.69 31.1367 122.383 30.8027 122.383 30.0469V20.915H120.01ZM128.869 27.3662C128.869 25.9512 129.739 25.1689 130.943 25.1689C132.156 25.1689 132.859 25.9072 132.859 27.2344V33H135.232V26.8564C135.232 24.501 133.844 23.165 131.822 23.165C130.337 23.165 129.37 23.8682 128.922 24.9756H128.825V19.9043H126.496V33H128.869V27.3662ZM146.764 23.2969H141.095V25.1514H146.764V23.2969ZM142.475 20.915V30.4336C142.475 32.1211 143.556 33.1055 145.419 33.1055C145.929 33.1055 146.447 33.0527 146.913 32.9297L146.597 31.0752C146.386 31.1104 146.104 31.1367 145.885 31.1367C145.155 31.1367 144.848 30.8027 144.848 30.0469V20.915H142.475ZM151.334 27.3662C151.334 25.9512 152.204 25.1689 153.408 25.1689C154.621 25.1689 155.324 25.9072 155.324 27.2344V33H157.697V26.8564C157.697 24.501 156.309 23.165 154.287 23.165C152.802 23.165 151.835 23.8682 151.387 24.9756H151.29V19.9043H148.961V33H151.334V27.3662ZM164.289 33.2021C166.565 33.2021 168.174 32.042 168.569 30.3018L166.354 30.1084C166.064 30.9258 165.326 31.3652 164.324 31.3652C162.839 31.3652 161.89 30.3457 161.89 28.623V27.542C161.89 26.0918 162.725 24.9932 164.175 24.9932C165.616 24.9932 166.398 26.0566 166.398 27.6562L167.497 27.2168H160.58V28.79H168.675V28.0869C168.675 24.7998 166.653 23.1562 164.148 23.1562C161.371 23.1562 159.543 25.2129 159.543 28.2012C159.543 31.2246 161.354 33.2021 164.289 33.2021ZM170.477 33H172.85V23.2969H170.477V33ZM171.663 21.9346C172.419 21.9346 173.034 21.3633 173.034 20.6514C173.034 19.9395 172.419 19.3682 171.663 19.3682C170.907 19.3682 170.292 19.9395 170.292 20.6514C170.292 21.3633 170.907 21.9346 171.663 21.9346ZM175.117 33H177.49V27.3926C177.49 26.1094 178.387 25.2744 179.608 25.2744C180.004 25.2744 180.487 25.3271 180.689 25.3799V23.2441C180.479 23.2002 180.145 23.1738 179.881 23.1738C178.738 23.1738 177.851 23.7979 177.499 24.9404H177.411V23.2969H175.117V33ZM194.216 25.9951C193.979 24.2549 192.581 23.1562 190.252 23.1562C187.879 23.1562 186.288 24.3252 186.288 26.1357C186.288 27.5596 187.185 28.4912 189.057 28.8779L190.718 29.2295C191.579 29.4141 192.019 29.7568 192.019 30.3105C192.019 30.9521 191.315 31.4355 190.252 31.4355C189.197 31.4355 188.529 30.9697 188.354 30.0996L186.033 30.2578C186.288 32.1123 187.853 33.2021 190.261 33.2021C192.704 33.2021 194.436 31.9453 194.436 30.082C194.436 28.6934 193.539 27.8408 191.685 27.4541L189.979 27.1025C189.057 26.9004 188.661 26.5488 188.661 26.0039C188.661 25.3711 189.347 24.9141 190.287 24.9141C191.324 24.9141 191.904 25.4941 192.045 26.1621L194.216 25.9951ZM200.553 33.2021C202.829 33.2021 204.438 32.042 204.833 30.3018L202.618 30.1084C202.328 30.9258 201.59 31.3652 200.588 31.3652C199.103 31.3652 198.153 30.3457 198.153 28.623V27.542C198.153 26.0918 198.988 24.9932 200.438 24.9932C201.88 24.9932 202.662 26.0566 202.662 27.6562L203.761 27.2168H196.844V28.79H204.938V28.0869C204.938 24.7998 202.917 23.1562 200.412 23.1562C197.635 23.1562 195.807 25.2129 195.807 28.2012C195.807 31.2246 197.617 33.2021 200.553 33.2021ZM211.012 33.2021C213.481 33.2021 215.099 31.7168 215.257 29.6074H212.972C212.778 30.6533 212.066 31.2861 211.029 31.2861C209.623 31.2861 208.727 30.0996 208.727 28.1572C208.727 26.2324 209.632 25.0723 211.029 25.0723C212.128 25.0723 212.805 25.7754 212.972 26.7334H215.257C215.099 24.5889 213.411 23.1562 211.003 23.1562C208.138 23.1562 206.318 25.2129 206.318 28.1924C206.318 31.1367 208.103 33.2021 211.012 33.2021ZM221.998 23.2969H216.329V25.1514H221.998V23.2969ZM217.709 20.915V30.4336C217.709 32.1211 218.79 33.1055 220.653 33.1055C221.163 33.1055 221.682 33.0527 222.147 32.9297L221.831 31.0752C221.62 31.1104 221.339 31.1367 221.119 31.1367C220.39 31.1367 220.082 30.8027 220.082 30.0469V20.915H217.709ZM224.072 33H226.445V23.2969H224.072V33ZM225.259 21.9346C226.015 21.9346 226.63 21.3633 226.63 20.6514C226.63 19.9395 226.015 19.3682 225.259 19.3682C224.503 19.3682 223.888 19.9395 223.888 20.6514C223.888 21.3633 224.503 21.9346 225.259 21.9346ZM232.993 33.2021C235.858 33.2021 237.695 31.1895 237.695 28.1924C237.695 25.1777 235.858 23.1562 232.993 23.1562C230.128 23.1562 228.291 25.1777 228.291 28.1924C228.291 31.1895 230.128 33.2021 232.993 33.2021ZM232.993 31.2861C231.49 31.2861 230.699 29.9678 230.699 28.1836C230.699 26.3906 231.49 25.0723 232.993 25.0723C234.496 25.0723 235.287 26.3906 235.287 28.1836C235.287 29.9678 234.496 31.2861 232.993 31.2861ZM241.914 27.3662C241.914 25.9512 242.767 25.1689 243.953 25.1689C245.131 25.1689 245.852 25.9336 245.852 27.2344V33H248.225V26.8564C248.225 24.5098 246.845 23.165 244.832 23.165C243.364 23.165 242.406 23.877 241.967 24.9756H241.87V23.2969H239.541V33H241.914V27.3662ZM258.235 25.9951C257.998 24.2549 256.601 23.1562 254.271 23.1562C251.898 23.1562 250.308 24.3252 250.308 26.1357C250.308 27.5596 251.204 28.4912 253.076 28.8779L254.737 29.2295C255.599 29.4141 256.038 29.7568 256.038 30.3105C256.038 30.9521 255.335 31.4355 254.271 31.4355C253.217 31.4355 252.549 30.9697 252.373 30.0996L250.053 30.2578C250.308 32.1123 251.872 33.2021 254.28 33.2021C256.724 33.2021 258.455 31.9453 258.455 30.082C258.455 28.6934 257.559 27.8408 255.704 27.4541L253.999 27.1025C253.076 26.9004 252.681 26.5488 252.681 26.0039C252.681 25.3711 253.366 24.9141 254.307 24.9141C255.344 24.9141 255.924 25.4941 256.064 26.1621L258.235 25.9951Z" fill="#1F1E24"/>
<line x1="1" y1="-1" x2="10" y2="-1" transform="matrix(1 4.53408e-09 -1.68562e-06 1 56 119)" stroke="#7B58CF" stroke-width="2" stroke-linecap="round"/>
<path d="M73 103H67V135H73" stroke="#7B58CF" stroke-width="2" stroke-linecap="round" stroke-linejoin="round"/>
<circle cx="32" cy="118" r="16" fill="#7B58CF"/>
<circle cx="32" cy="118" r="18" stroke="#7B58CF" stroke-opacity="0.3" stroke-width="4"/>
<path d="M31.9912 112.442L30.1191 119.157H33.8633L31.9912 112.442ZM30.9189 110.878H33.0723L37.0889 124H35.252L34.2852 120.581H29.6885L28.7393 124H26.9023L30.9189 110.878Z" fill="white"/>
<line x1="1" y1="-1" x2="10" y2="-1" transform="matrix(1 4.53408e-09 -1.68562e-06 1 56 410)" stroke="#7B58CF" stroke-width="2" stroke-linecap="round"/>
<path d="M73 394H67V426H73" stroke="#7B58CF" stroke-width="2" stroke-linecap="round" stroke-linejoin="round"/>
<circle cx="32" cy="409" r="16" fill="#7B58CF"/>
<circle cx="32" cy="409" r="18" stroke="#7B58CF" stroke-opacity="0.3" stroke-width="4"/>
<path d="M36.0078 414.534C35.5566 414.774 35.0938 414.953 34.6191 415.07C34.1445 415.193 33.6406 415.255 33.1074 415.255C31.4258 415.255 30.1191 414.66 29.1875 413.471C28.2617 412.281 27.7988 410.608 27.7988 408.452C27.7988 406.308 28.2646 404.638 29.1963 403.442C30.1338 402.241 31.4375 401.641 33.1074 401.641C33.6406 401.641 34.1445 401.702 34.6191 401.825C35.0938 401.942 35.5566 402.121 36.0078 402.361V404.181C35.5742 403.823 35.1084 403.551 34.6104 403.363C34.1123 403.176 33.6113 403.082 33.1074 403.082C31.9531 403.082 31.0889 403.527 30.5146 404.418C29.9404 405.309 29.6533 406.653 29.6533 408.452C29.6533 410.245 29.9404 411.587 30.5146 412.478C31.0889 413.368 31.9531 413.813 33.1074 413.813C33.623 413.813 34.127 413.72 34.6191 413.532C35.1172 413.345 35.5801 413.072 36.0078 412.715V414.534Z" fill="white"/>
<line x1="57" y1="265" x2="66" y2="265" stroke="#7B58CF" stroke-width="2" stroke-linecap="round"/>
<path d="M73 153H67V379H73" stroke="#7B58CF" stroke-width="2" stroke-linecap="round" stroke-linejoin="round"/>
<circle cx="32" cy="266" r="16" fill="#7B58CF"/>
<circle cx="32" cy="266" r="18" stroke="#7B58CF" stroke-opacity="0.3" stroke-width="4"/>
<path d="M29.8203 265.382V270.541H31.9209C32.9521 270.541 33.6875 270.362 34.127 270.005C34.5664 269.642 34.7861 269.047 34.7861 268.221C34.7861 267.131 34.5547 266.387 34.0918 265.988C33.6289 265.584 32.9053 265.382 31.9209 265.382H29.8203ZM29.8203 260.337V263.94H31.8857C32.7412 263.94 33.3594 263.776 33.7402 263.448C34.127 263.12 34.3203 262.707 34.3203 262.209C34.3203 261.547 34.1299 261.069 33.749 260.776C33.374 260.483 32.7529 260.337 31.8857 260.337H29.8203ZM28.0361 258.878H31.9209C33.2627 258.878 34.2969 259.168 35.0234 259.748C35.75 260.328 36.1133 261.148 36.1133 262.209C36.1133 262.777 35.9199 263.293 35.5332 263.756C35.1523 264.219 34.5781 264.509 33.8105 264.626C34.6719 264.755 35.3457 265.124 35.832 265.733C36.3242 266.337 36.5703 267.225 36.5703 268.396C36.5703 269.586 36.1807 270.485 35.4014 271.095C34.6221 271.698 33.4619 272 31.9209 272H28.0361V258.878Z" fill="white"/>
<g style="mix-blend-mode:multiply">
<rect x="81" y="103" width="248" height="32" rx="4" fill="#ECECEF"/>
<path fill-rule="evenodd" clip-rule="evenodd" d="M106.5 113.5H95.5V116H106.5V113.5ZM106.5 117.5H99.5V124.5H106.5V117.5ZM98 117.5H95.5V124.5H98V117.5ZM95.5 112H94V113.5V124.5V126H95.5H106.5H108V124.5V113.5V112H106.5H95.5Z" fill="#535158"/>
<path d="M85 108.5C85 107.672 85.6716 107 86.5 107V107C87.3284 107 88 107.672 88 108.5V129.5C88 130.328 87.3284 131 86.5 131V131C85.6716 131 85 130.328 85 129.5V108.5Z" fill="#1F75CB"/>
<rect x="122" y="115" width="89" height="8" rx="2" fill="#737278"/>
</g>
<rect x="93" y="143" width="224" height="1" fill="#ECECEF"/>
<g style="mix-blend-mode:multiply">
<g clip-path="url(#clip0_16630_28425)">
<path fill-rule="evenodd" clip-rule="evenodd" d="M94.5 164V162.5H99.1972L100.197 164H94.5ZM93 164V162C93 161.448 93.4477 161 94 161H99.4648C99.7992 161 100.111 161.167 100.297 161.445L101.964 163.945C101.976 163.963 101.987 163.982 101.998 164H108C108.552 164 109 164.448 109 165V173C109 173.552 108.552 174 108 174H94C93.4477 174 93 173.552 93 173V165.5V164.5V164ZM94.5 165.5V172.5H107.5V165.5H101.131H94.5Z" fill="#737278"/>
</g>
<rect x="122" y="164" width="43" height="8" rx="2" fill="#A4A3A8"/>
<path fill-rule="evenodd" clip-rule="evenodd" d="M305.22 166.22C305.513 165.927 305.987 165.927 306.28 166.22L309 168.939L311.72 166.22C312.013 165.927 312.487 165.927 312.78 166.22C313.073 166.513 313.073 166.987 312.78 167.28L309.53 170.53C309.237 170.823 308.763 170.823 308.47 170.53L305.22 167.28C304.927 166.987 304.927 166.513 305.22 166.22Z" fill="#737278"/>
</g>
<g style="mix-blend-mode:multiply">
<g clip-path="url(#clip1_16630_28425)">
<path fill-rule="evenodd" clip-rule="evenodd" d="M94.5 196V194.5H99.1972L100.197 196H94.5ZM93 196V194C93 193.448 93.4477 193 94 193H99.4648C99.7992 193 100.111 193.167 100.297 193.445L101.964 195.945C101.976 195.963 101.987 195.982 101.998 196H108C108.552 196 109 196.448 109 197V205C109 205.552 108.552 206 108 206H94C93.4477 206 93 205.552 93 205V197.5V196.5V196ZM94.5 197.5V204.5H107.5V197.5H101.131H94.5Z" fill="#737278"/>
</g>
<rect x="122" y="196" width="96" height="8" rx="2" fill="#A4A3A8"/>
<path fill-rule="evenodd" clip-rule="evenodd" d="M305.22 198.22C305.513 197.927 305.987 197.927 306.28 198.22L309 200.939L311.72 198.22C312.013 197.927 312.487 197.927 312.78 198.22C313.073 198.513 313.073 198.987 312.78 199.28L309.53 202.53C309.237 202.823 308.763 202.823 308.47 202.53L305.22 199.28C304.927 198.987 304.927 198.513 305.22 198.22Z" fill="#737278"/>
</g>
<g style="mix-blend-mode:multiply">
<g clip-path="url(#clip2_16630_28425)">
<path fill-rule="evenodd" clip-rule="evenodd" d="M94.5 228V226.5H99.1972L100.197 228H94.5ZM93 228V226C93 225.448 93.4477 225 94 225H99.4648C99.7992 225 100.111 225.167 100.297 225.445L101.964 227.945C101.976 227.963 101.987 227.982 101.998 228H108C108.552 228 109 228.448 109 229V237C109 237.552 108.552 238 108 238H94C93.4477 238 93 237.552 93 237V229.5V228.5V228ZM94.5 229.5V236.5H107.5V229.5H101.131H94.5Z" fill="#737278"/>
</g>
<rect x="122" y="228" width="50" height="8" rx="2" fill="#A4A3A8"/>
<path fill-rule="evenodd" clip-rule="evenodd" d="M305.22 230.22C305.513 229.927 305.987 229.927 306.28 230.22L309 232.939L311.72 230.22C312.013 229.927 312.487 229.927 312.78 230.22C313.073 230.513 313.073 230.987 312.78 231.28L309.53 234.53C309.237 234.823 308.763 234.823 308.47 234.53L305.22 231.28C304.927 230.987 304.927 230.513 305.22 230.22Z" fill="#737278"/>
</g>
<g style="mix-blend-mode:multiply">
<g clip-path="url(#clip3_16630_28425)">
<path fill-rule="evenodd" clip-rule="evenodd" d="M94.5 260V258.5H99.1972L100.197 260H94.5ZM93 260V258C93 257.448 93.4477 257 94 257H99.4648C99.7992 257 100.111 257.167 100.297 257.445L101.964 259.945C101.976 259.963 101.987 259.982 101.998 260H108C108.552 260 109 260.448 109 261V269C109 269.552 108.552 270 108 270H94C93.4477 270 93 269.552 93 269V261.5V260.5V260ZM94.5 261.5V268.5H107.5V261.5H101.131H94.5Z" fill="#737278"/>
</g>
<rect x="122" y="260" width="62" height="8" rx="2" fill="#A4A3A8"/>
<path fill-rule="evenodd" clip-rule="evenodd" d="M305.22 262.22C305.513 261.927 305.987 261.927 306.28 262.22L309 264.939L311.72 262.22C312.013 261.927 312.487 261.927 312.78 262.22C313.073 262.513 313.073 262.987 312.78 263.28L309.53 266.53C309.237 266.823 308.763 266.823 308.47 266.53L305.22 263.28C304.927 262.987 304.927 262.513 305.22 262.22Z" fill="#737278"/>
</g>
<g style="mix-blend-mode:multiply">
<g clip-path="url(#clip4_16630_28425)">
<path fill-rule="evenodd" clip-rule="evenodd" d="M94.5 292V290.5H99.1972L100.197 292H94.5ZM93 292V290C93 289.448 93.4477 289 94 289H99.4648C99.7992 289 100.111 289.167 100.297 289.445L101.964 291.945C101.976 291.963 101.987 291.982 101.998 292H108C108.552 292 109 292.448 109 293V301C109 301.552 108.552 302 108 302H94C93.4477 302 93 301.552 93 301V293.5V292.5V292ZM94.5 293.5V300.5H107.5V293.5H101.131H94.5Z" fill="#737278"/>
</g>
<rect x="122" y="292" width="89" height="8" rx="2" fill="#A4A3A8"/>
<path fill-rule="evenodd" clip-rule="evenodd" d="M305.22 294.22C305.513 293.927 305.987 293.927 306.28 294.22L309 296.939L311.72 294.22C312.013 293.927 312.487 293.927 312.78 294.22C313.073 294.513 313.073 294.987 312.78 295.28L309.53 298.53C309.237 298.823 308.763 298.823 308.47 298.53L305.22 295.28C304.927 294.987 304.927 294.513 305.22 294.22Z" fill="#737278"/>
</g>
<g style="mix-blend-mode:multiply">
<g clip-path="url(#clip5_16630_28425)">
<path fill-rule="evenodd" clip-rule="evenodd" d="M94.5 324V322.5H99.1972L100.197 324H94.5ZM93 324V322C93 321.448 93.4477 321 94 321H99.4648C99.7992 321 100.111 321.167 100.297 321.445L101.964 323.945C101.976 323.963 101.987 323.982 101.998 324H108C108.552 324 109 324.448 109 325V333C109 333.552 108.552 334 108 334H94C93.4477 334 93 333.552 93 333V325.5V324.5V324ZM94.5 325.5V332.5H107.5V325.5H101.131H94.5Z" fill="#737278"/>
</g>
<rect x="122" y="324" width="67" height="8" rx="2" fill="#A4A3A8"/>
<path fill-rule="evenodd" clip-rule="evenodd" d="M305.22 326.22C305.513 325.927 305.987 325.927 306.28 326.22L309 328.939L311.72 326.22C312.013 325.927 312.487 325.927 312.78 326.22C313.073 326.513 313.073 326.987 312.78 327.28L309.53 330.53C309.237 330.823 308.763 330.823 308.47 330.53L305.22 327.28C304.927 326.987 304.927 326.513 305.22 326.22Z" fill="#737278"/>
</g>
<g style="mix-blend-mode:multiply">
<g clip-path="url(#clip6_16630_28425)">
<path fill-rule="evenodd" clip-rule="evenodd" d="M94.5 356V354.5H99.1972L100.197 356H94.5ZM93 356V354C93 353.448 93.4477 353 94 353H99.4648C99.7992 353 100.111 353.167 100.297 353.445L101.964 355.945C101.976 355.963 101.987 355.982 101.998 356H108C108.552 356 109 356.448 109 357V365C109 365.552 108.552 366 108 366H94C93.4477 366 93 365.552 93 365V357.5V356.5V356ZM94.5 357.5V364.5H107.5V357.5H101.131H94.5Z" fill="#737278"/>
</g>
<rect x="122" y="356" width="89" height="8" rx="2" fill="#A4A3A8"/>
<path fill-rule="evenodd" clip-rule="evenodd" d="M305.22 358.22C305.513 357.927 305.987 357.927 306.28 358.22L309 360.939L311.72 358.22C312.013 357.927 312.487 357.927 312.78 358.22C313.073 358.513 313.073 358.987 312.78 359.28L309.53 362.53C309.237 362.823 308.763 362.823 308.47 362.53L305.22 359.28C304.927 358.987 304.927 358.513 305.22 358.22Z" fill="#737278"/>
</g>
<rect x="93" y="384" width="224" height="1" fill="#ECECEF"/>
<g style="mix-blend-mode:multiply">
<path fill-rule="evenodd" clip-rule="evenodd" d="M100.01 403.233L100.134 402.5H101.866L101.99 403.233C102.054 403.611 102.323 403.905 102.665 404.019C103.341 404.245 103.956 404.605 104.48 405.069C104.75 405.308 105.139 405.393 105.498 405.26L106.196 405L107.062 406.5L106.489 406.974C106.194 407.218 106.074 407.597 106.145 407.95C106.214 408.289 106.25 408.64 106.25 409C106.25 409.36 106.214 409.711 106.145 410.05C106.074 410.403 106.194 410.782 106.489 411.026L107.062 411.5L106.196 413L105.497 412.74C105.139 412.607 104.75 412.692 104.48 412.931C103.956 413.395 103.341 413.755 102.665 413.981C102.323 414.095 102.054 414.389 101.99 414.767L101.866 415.5H100.134L100.01 414.767C99.9465 414.389 99.6776 414.095 99.3355 413.981C98.6593 413.755 98.0437 413.395 97.5206 412.931C97.2504 412.692 96.861 412.607 96.5026 412.74L95.804 413L94.938 411.5L95.5114 411.026C95.8059 410.782 95.9265 410.403 95.8548 410.05C95.7862 409.711 95.75 409.36 95.75 409C95.75 408.64 95.7862 408.289 95.8549 407.95C95.9265 407.597 95.8059 407.218 95.5114 406.974L94.938 406.5L95.8041 405L96.5027 405.26C96.8611 405.393 97.2504 405.308 97.5206 405.069C98.0437 404.605 98.6593 404.245 99.3355 404.019C99.6776 403.905 99.9465 403.611 100.01 403.233ZM99.9228 401C99.3127 401 98.7918 401.44 98.6902 402.042L98.5796 402.697C97.9132 402.953 97.2981 403.312 96.7536 403.753L96.1292 403.52C95.5575 403.308 94.9157 403.539 94.6107 404.067L93.5333 405.933C93.2283 406.461 93.3492 407.133 93.8193 407.521L94.3321 407.945C94.278 408.289 94.25 408.642 94.25 409C94.25 409.358 94.278 409.711 94.3321 410.055L93.8193 410.479C93.3491 410.867 93.2282 411.539 93.5333 412.067L94.6106 413.933C94.9156 414.461 95.5574 414.692 96.1291 414.48L96.7535 414.247C97.2981 414.688 97.9132 415.047 98.5796 415.303L98.6902 415.958C98.7918 416.56 99.3127 417 99.9228 417H102.078C102.688 417 103.208 416.56 103.31 415.958L103.421 415.303C104.087 415.047 104.702 414.688 105.247 414.247L105.871 414.48C106.443 414.692 107.085 414.461 107.39 413.933L108.467 412.067C108.772 411.539 108.651 410.867 108.181 410.479L107.668 410.055C107.722 409.711 107.75 409.358 107.75 409C107.75 408.642 107.722 408.29 107.668 407.946L108.181 407.521C108.651 407.133 108.772 406.461 108.467 405.933L107.39 404.067C107.085 403.539 106.443 403.308 105.871 403.52L105.247 403.753C104.702 403.312 104.087 402.953 103.421 402.697L103.31 402.042C103.208 401.44 102.688 401 102.078 401H99.9228ZM98.75 409C98.75 407.757 99.7574 406.75 101 406.75C102.243 406.75 103.25 407.757 103.25 409C103.25 410.243 102.243 411.25 101 411.25C99.7574 411.25 98.75 410.243 98.75 409ZM101 405.25C98.929 405.25 97.25 406.929 97.25 409C97.25 411.071 98.929 412.75 101 412.75C103.071 412.75 104.75 411.071 104.75 409C104.75 406.929 103.071 405.25 101 405.25Z" fill="#737278"/>
<rect x="122" y="405" width="65" height="8" rx="2" fill="#A4A3A8"/>
</g>
<path d="M18.6328 76L21.7266 66.7578H21.8125L24.9141 76H27.1875L23.0938 64.3594H20.4609L16.3516 76H18.6328ZM18.7031 71.4297V73.1406H24.8281V71.4297H18.7031ZM31.5078 76.1641C32.9531 76.1641 33.6562 75.3203 34 74.6406H34.1094V76H36.1562V64.3594H34.0703V68.7344H33.9922C33.6562 68.0781 32.9844 67.2109 31.5 67.2109C29.4844 67.2109 27.9141 68.7969 27.9141 71.6797C27.9141 74.5156 29.4375 76.1641 31.5078 76.1641ZM32.0781 74.4531C30.7578 74.4531 30.0391 73.2969 30.0391 71.6719C30.0391 70.0469 30.7422 68.9141 32.0781 68.9141C33.3906 68.9141 34.1172 70 34.1172 71.6719C34.1172 73.3359 33.375 74.4531 32.0781 74.4531ZM38.2109 76H40.2969V70.7422C40.2969 69.6719 41.0078 68.9609 41.8906 68.9609C42.75 68.9609 43.3359 69.5469 43.3359 70.4375V76H45.3828V70.6094C45.3828 69.6406 45.9609 68.9609 46.9453 68.9609C47.7734 68.9609 48.4219 69.4531 48.4219 70.5156V76H50.5156V70.1875C50.5156 68.25 49.3828 67.2109 47.7812 67.2109C46.5156 67.2109 45.5391 67.8438 45.1562 68.8125H45.0703C44.75 67.8281 43.8984 67.2109 42.7188 67.2109C41.5547 67.2109 40.6641 67.8203 40.3047 68.8125H40.2031V67.3203H38.2109V76ZM52.5781 76H54.6562V67.3203H52.5781V76ZM53.6172 66.1016C54.2812 66.1016 54.8203 65.6016 54.8203 64.9766C54.8203 64.3516 54.2812 63.8438 53.6172 63.8438C52.9531 63.8438 52.4141 64.3516 52.4141 64.9766C52.4141 65.6016 52.9531 66.1016 53.6172 66.1016ZM58.7969 70.9375C58.7969 69.6797 59.5625 68.9688 60.6328 68.9688C61.6797 68.9688 62.3281 69.6562 62.3281 70.8203V76H64.4062V70.4922C64.4062 68.4062 63.1953 67.2109 61.4062 67.2109C60.0938 67.2109 59.2422 67.8359 58.8438 68.8125L58.7578 68.8203V67.3203H56.7109V76H58.7969V70.9375ZM71.9766 76L75.0703 66.7578H75.1562L78.2578 76H80.5312L76.4375 64.3594H73.8047L69.6953 76H71.9766ZM72.0469 71.4297V73.1406H78.1719V71.4297H72.0469ZM81.9141 76H84V70.9453C84 69.8203 84.8125 69.0547 85.9219 69.0547C86.2734 69.0547 86.7031 69.1094 86.8828 69.1641V67.2656C86.6953 67.2344 86.3828 67.2109 86.1484 67.2109C85.1484 67.2109 84.3359 67.7734 84.0156 68.7812H83.9297V67.3203H81.9141V76ZM91.7266 76.1797C93.75 76.1797 95.1641 75.1641 95.5156 73.6328L93.5703 73.4375C93.3047 74.1719 92.6406 74.5625 91.7578 74.5625C90.4297 74.5625 89.5547 73.6406 89.5547 72.0781V71.1172C89.5547 69.8281 90.3047 68.8281 91.6172 68.8281C92.9219 68.8281 93.6094 69.7891 93.6094 71.2422L94.5781 70.8438H88.4375V72.2344H95.6094V71.6016C95.6094 68.6094 93.7891 67.2031 91.6016 67.2031C89.1094 67.2031 87.4922 69.0391 87.4922 71.7109C87.4922 74.4219 89.1016 76.1797 91.7266 76.1797ZM99.7656 76.1797C101.125 76.1797 101.93 75.5469 102.312 74.8047H102.391V76H104.383V70.1719C104.383 67.9609 102.547 67.2109 100.805 67.2109C98.9766 67.2109 97.5547 68.0234 97.1016 69.5547L99.0312 69.8984C99.2266 69.2969 99.8281 68.7969 100.812 68.7969C101.773 68.7969 102.305 69.2812 102.305 70.1016V70.1406C102.305 70.7344 101.688 70.7656 100.156 70.9219C98.4531 71.1016 96.8516 71.6172 96.8516 73.5625C96.8516 75.2734 98.1016 76.1797 99.7656 76.1797ZM100.305 74.6484C99.4609 74.6484 98.8594 74.2656 98.8594 73.5312C98.8594 72.7578 99.5391 72.4297 100.445 72.2969C101.008 72.2266 102.047 72.0859 102.312 71.8828V72.8828C102.312 73.8438 101.531 74.6484 100.305 74.6484Z" fill="#535158"/>
<line x1="1" y1="-1" x2="10" y2="-1" transform="matrix(1 4.53408e-09 -1.68562e-06 1 425 584.5)" stroke="#7B58CF" stroke-width="2" stroke-linecap="round"/>
<path d="M442 568.5H436V600.5H442" stroke="#7B58CF" stroke-width="2" stroke-linecap="round" stroke-linejoin="round"/>
<circle cx="401" cy="583.5" r="16" fill="#7B58CF"/>
<circle cx="401" cy="583.5" r="18" stroke="#7B58CF" stroke-opacity="0.3" stroke-width="4"/>
<path d="M405.008 589.034C404.557 589.274 404.094 589.453 403.619 589.57C403.145 589.693 402.641 589.755 402.107 589.755C400.426 589.755 399.119 589.16 398.188 587.971C397.262 586.781 396.799 585.108 396.799 582.952C396.799 580.808 397.265 579.138 398.196 577.942C399.134 576.741 400.438 576.141 402.107 576.141C402.641 576.141 403.145 576.202 403.619 576.325C404.094 576.442 404.557 576.621 405.008 576.861V578.681C404.574 578.323 404.108 578.051 403.61 577.863C403.112 577.676 402.611 577.582 402.107 577.582C400.953 577.582 400.089 578.027 399.515 578.918C398.94 579.809 398.653 581.153 398.653 582.952C398.653 584.745 398.94 586.087 399.515 586.978C400.089 587.868 400.953 588.313 402.107 588.313C402.623 588.313 403.127 588.22 403.619 588.032C404.117 587.845 404.58 587.572 405.008 587.215V589.034Z" fill="white"/>
<line x1="426" y1="444.5" x2="435" y2="444.5" stroke="#7B58CF" stroke-width="2" stroke-linecap="round"/>
<path d="M442 332.5H436V558.5H442" stroke="#7B58CF" stroke-width="2" stroke-linecap="round" stroke-linejoin="round"/>
<circle cx="401" cy="445.5" r="16" fill="#7B58CF"/>
<circle cx="401" cy="445.5" r="18" stroke="#7B58CF" stroke-opacity="0.3" stroke-width="4"/>
<path d="M398.82 444.882V450.041H400.921C401.952 450.041 402.688 449.862 403.127 449.505C403.566 449.142 403.786 448.547 403.786 447.721C403.786 446.631 403.555 445.887 403.092 445.488C402.629 445.084 401.905 444.882 400.921 444.882H398.82ZM398.82 439.837V443.44H400.886C401.741 443.44 402.359 443.276 402.74 442.948C403.127 442.62 403.32 442.207 403.32 441.709C403.32 441.047 403.13 440.569 402.749 440.276C402.374 439.983 401.753 439.837 400.886 439.837H398.82ZM397.036 438.378H400.921C402.263 438.378 403.297 438.668 404.023 439.248C404.75 439.828 405.113 440.648 405.113 441.709C405.113 442.277 404.92 442.793 404.533 443.256C404.152 443.719 403.578 444.009 402.811 444.126C403.672 444.255 404.346 444.624 404.832 445.233C405.324 445.837 405.57 446.725 405.57 447.896C405.57 449.086 405.181 449.985 404.401 450.595C403.622 451.198 402.462 451.5 400.921 451.5H397.036V438.378Z" fill="white"/>
<line x1="428" y1="264.5" x2="437" y2="264.5" stroke="#7B58CF" stroke-width="2" stroke-linecap="round"/>
<path d="M444 215.5H438V315.5H444" stroke="#7B58CF" stroke-width="2" stroke-linecap="round" stroke-linejoin="round"/>
<circle cx="403" cy="265.5" r="16" fill="#7B58CF"/>
<circle cx="403" cy="265.5" r="18" stroke="#7B58CF" stroke-opacity="0.3" stroke-width="4"/>
<path d="M401.409 270.041C402.903 270.041 403.946 269.675 404.538 268.942C405.13 268.204 405.426 266.874 405.426 264.952C405.426 263.013 405.13 261.677 404.538 260.944C403.952 260.206 402.909 259.837 401.409 259.837H400.565V270.041H401.409ZM401.444 258.378C403.448 258.378 404.925 258.911 405.874 259.978C406.823 261.044 407.298 262.702 407.298 264.952C407.298 267.19 406.823 268.843 405.874 269.909C404.925 270.97 403.448 271.5 401.444 271.5H398.781V258.378H401.444Z" fill="white"/>
<line x1="428" y1="153.5" x2="437" y2="153.5" stroke="#7B58CF" stroke-width="2" stroke-linecap="round"/>
<path d="M444 104.5H438V204.5H444" stroke="#7B58CF" stroke-width="2" stroke-linecap="round" stroke-linejoin="round"/>
<circle cx="403" cy="154.5" r="16" fill="#7B58CF"/>
<circle cx="403" cy="154.5" r="18" stroke="#7B58CF" stroke-opacity="0.3" stroke-width="4"/>
<path d="M402.991 148.942L401.119 155.657H404.863L402.991 148.942ZM401.919 147.378H404.072L408.089 160.5H406.252L405.285 157.081H400.688L399.739 160.5H397.902L401.919 147.378Z" fill="white"/>
<g style="mix-blend-mode:multiply">
<rect x="452" y="103" width="248" height="32" rx="4" fill="#ECECEF"/>
<path fill-rule="evenodd" clip-rule="evenodd" d="M477.5 113.5H466.5V116H477.5V113.5ZM477.5 117.5H470.5V124.5H477.5V117.5ZM469 117.5H466.5V124.5H469V117.5ZM466.5 112H465V113.5V124.5V126H466.5H477.5H479V124.5V113.5V112H477.5H466.5Z" fill="#535158"/>
<path d="M456 108.5C456 107.672 456.672 107 457.5 107V107C458.328 107 459 107.672 459 108.5V129.5C459 130.328 458.328 131 457.5 131V131C456.672 131 456 130.328 456 129.5V108.5Z" fill="#1F75CB"/>
<rect x="493" y="115" width="89" height="8" rx="2" fill="#737278"/>
</g>
<path fill-rule="evenodd" clip-rule="evenodd" d="M477.5 145.5H466.5V148H477.5V145.5ZM477.5 149.5H470.5V156.5H477.5V149.5ZM469 149.5H466.5V156.5H469V149.5ZM466.5 144H465V145.5V156.5V158H466.5H477.5H479V156.5V145.5V144H477.5H466.5Z" fill="#737278"/>
<rect x="493" y="147" width="64" height="8" rx="2" fill="#A4A3A8"/>
<g style="mix-blend-mode:multiply">
<rect x="653" y="143" width="35" height="16" rx="8" fill="#CBE2F9"/>
</g>
<path fill-rule="evenodd" clip-rule="evenodd" d="M477.5 177.5L466.5 177.5V180L477.5 180V177.5ZM477.5 181.5L470.5 181.5V188.5L477.5 188.5V181.5ZM469 181.5H466.5V188.5H469V181.5ZM466.5 176H465V177.5V188.5V190H466.5L477.5 190H479V188.5V177.5V176H477.5L466.5 176Z" fill="#737278"/>
<rect x="493" y="179" width="127" height="8" rx="2" fill="#A4A3A8"/>
<g style="mix-blend-mode:multiply">
<rect x="653" y="175" width="35" height="16" rx="8" fill="#CBE2F9"/>
</g>
<rect x="464" y="207" width="224" height="1" fill="#ECECEF"/>
<g style="mix-blend-mode:multiply">
<path fill-rule="evenodd" clip-rule="evenodd" d="M475.28 225.22C474.987 224.927 474.513 224.927 474.22 225.22C474.03 225.41 473.963 225.676 474.019 225.92L470.689 229.25H468.207C467.093 229.25 466.536 230.596 467.323 231.384L469.234 233.295L465.513 237.43C465.183 237.797 465 238.273 465 238.767V239H465.233C465.727 239 466.203 238.817 466.57 238.487L470.705 234.766L472.616 236.677C473.404 237.464 474.75 236.907 474.75 235.793V233.311L478.08 229.981C478.324 230.037 478.59 229.97 478.78 229.78C479.073 229.487 479.073 229.013 478.78 228.72L478.177 228.116L475.884 225.823C475.884 225.823 475.884 225.823 475.883 225.823L475.28 225.22ZM476.939 229L475 227.061L472.061 230L474 231.939L476.939 229ZM470.689 230.75L473.25 233.311V235.189L468.811 230.75H470.689Z" fill="#737278"/>
<rect x="493" y="228" width="89" height="8" rx="2" fill="#A4A3A8"/>
<path fill-rule="evenodd" clip-rule="evenodd" d="M676.22 230.22C676.513 229.927 676.987 229.927 677.28 230.22L680 232.939L682.72 230.22C683.013 229.927 683.487 229.927 683.78 230.22C684.073 230.513 684.073 230.987 683.78 231.28L680.53 234.53C680.237 234.823 679.763 234.823 679.47 234.53L676.22 231.28C675.927 230.987 675.927 230.513 676.22 230.22Z" fill="#737278"/>
</g>
<rect x="493" y="260" width="70" height="8" rx="2" fill="#A4A3A8"/>
<rect x="493" y="292" width="117" height="8" rx="2" fill="#A4A3A8"/>
<rect x="464" y="320" width="224" height="1" fill="#ECECEF"/>
<g style="mix-blend-mode:multiply">
<g clip-path="url(#clip7_16630_28425)">
<path fill-rule="evenodd" clip-rule="evenodd" d="M465.5 341V339.5H470.197L471.197 341H465.5ZM464 341V339C464 338.448 464.448 338 465 338H470.465C470.799 338 471.111 338.167 471.297 338.445L472.964 340.945C472.976 340.963 472.987 340.982 472.998 341H479C479.552 341 480 341.448 480 342V350C480 350.552 479.552 351 479 351H465C464.448 351 464 350.552 464 350V342.5V341.5V341ZM465.5 342.5V349.5H478.5V342.5H472.131H465.5Z" fill="#737278"/>
</g>
<rect x="493" y="341" width="43" height="8" rx="2" fill="#A4A3A8"/>
<path fill-rule="evenodd" clip-rule="evenodd" d="M676.22 343.22C676.513 342.927 676.987 342.927 677.28 343.22L680 345.939L682.72 343.22C683.013 342.927 683.487 342.927 683.78 343.22C684.073 343.513 684.073 343.987 683.78 344.28L680.53 347.53C680.237 347.823 679.763 347.823 679.47 347.53L676.22 344.28C675.927 343.987 675.927 343.513 676.22 343.22Z" fill="#737278"/>
</g>
<g style="mix-blend-mode:multiply">
<g clip-path="url(#clip8_16630_28425)">
<path fill-rule="evenodd" clip-rule="evenodd" d="M465.5 373V371.5H470.197L471.197 373H465.5ZM464 373V371C464 370.448 464.448 370 465 370H470.465C470.799 370 471.111 370.167 471.297 370.445L472.964 372.945C472.976 372.963 472.987 372.982 472.998 373H479C479.552 373 480 373.448 480 374V382C480 382.552 479.552 383 479 383H465C464.448 383 464 382.552 464 382V374.5V373.5V373ZM465.5 374.5V381.5H478.5V374.5H472.131H465.5Z" fill="#737278"/>
</g>
<rect x="493" y="373" width="96" height="8" rx="2" fill="#A4A3A8"/>
<path fill-rule="evenodd" clip-rule="evenodd" d="M676.22 375.22C676.513 374.927 676.987 374.927 677.28 375.22L680 377.939L682.72 375.22C683.013 374.927 683.487 374.927 683.78 375.22C684.073 375.513 684.073 375.987 683.78 376.28L680.53 379.53C680.237 379.823 679.763 379.823 679.47 379.53L676.22 376.28C675.927 375.987 675.927 375.513 676.22 375.22Z" fill="#737278"/>
</g>
<g style="mix-blend-mode:multiply">
<g clip-path="url(#clip9_16630_28425)">
<path fill-rule="evenodd" clip-rule="evenodd" d="M465.5 405V403.5H470.197L471.197 405H465.5ZM464 405V403C464 402.448 464.448 402 465 402H470.465C470.799 402 471.111 402.167 471.297 402.445L472.964 404.945C472.976 404.963 472.987 404.982 472.998 405H479C479.552 405 480 405.448 480 406V414C480 414.552 479.552 415 479 415H465C464.448 415 464 414.552 464 414V406.5V405.5V405ZM465.5 406.5V413.5H478.5V406.5H472.131H465.5Z" fill="#737278"/>
</g>
<rect x="493" y="405" width="50" height="8" rx="2" fill="#A4A3A8"/>
<path fill-rule="evenodd" clip-rule="evenodd" d="M676.22 407.22C676.513 406.927 676.987 406.927 677.28 407.22L680 409.939L682.72 407.22C683.013 406.927 683.487 406.927 683.78 407.22C684.073 407.513 684.073 407.987 683.78 408.28L680.53 411.53C680.237 411.823 679.763 411.823 679.47 411.53L676.22 408.28C675.927 407.987 675.927 407.513 676.22 407.22Z" fill="#737278"/>
</g>
<g style="mix-blend-mode:multiply">
<g clip-path="url(#clip10_16630_28425)">
<path fill-rule="evenodd" clip-rule="evenodd" d="M465.5 437V435.5H470.197L471.197 437H465.5ZM464 437V435C464 434.448 464.448 434 465 434H470.465C470.799 434 471.111 434.167 471.297 434.445L472.964 436.945C472.976 436.963 472.987 436.982 472.998 437H479C479.552 437 480 437.448 480 438V446C480 446.552 479.552 447 479 447H465C464.448 447 464 446.552 464 446V438.5V437.5V437ZM465.5 438.5V445.5H478.5V438.5H472.131H465.5Z" fill="#737278"/>
</g>
<rect x="493" y="437" width="62" height="8" rx="2" fill="#A4A3A8"/>
<path fill-rule="evenodd" clip-rule="evenodd" d="M676.22 439.22C676.513 438.927 676.987 438.927 677.28 439.22L680 441.939L682.72 439.22C683.013 438.927 683.487 438.927 683.78 439.22C684.073 439.513 684.073 439.987 683.78 440.28L680.53 443.53C680.237 443.823 679.763 443.823 679.47 443.53L676.22 440.28C675.927 439.987 675.927 439.513 676.22 439.22Z" fill="#737278"/>
</g>
<g style="mix-blend-mode:multiply">
<g clip-path="url(#clip11_16630_28425)">
<path fill-rule="evenodd" clip-rule="evenodd" d="M465.5 469V467.5H470.197L471.197 469H465.5ZM464 469V467C464 466.448 464.448 466 465 466H470.465C470.799 466 471.111 466.167 471.297 466.445L472.964 468.945C472.976 468.963 472.987 468.982 472.998 469H479C479.552 469 480 469.448 480 470V478C480 478.552 479.552 479 479 479H465C464.448 479 464 478.552 464 478V470.5V469.5V469ZM465.5 470.5V477.5H478.5V470.5H472.131H465.5Z" fill="#737278"/>
</g>
<rect x="493" y="469" width="89" height="8" rx="2" fill="#A4A3A8"/>
<path fill-rule="evenodd" clip-rule="evenodd" d="M676.22 471.22C676.513 470.927 676.987 470.927 677.28 471.22L680 473.939L682.72 471.22C683.013 470.927 683.487 470.927 683.78 471.22C684.073 471.513 684.073 471.987 683.78 472.28L680.53 475.53C680.237 475.823 679.763 475.823 679.47 475.53L676.22 472.28C675.927 471.987 675.927 471.513 676.22 471.22Z" fill="#737278"/>
</g>
<g style="mix-blend-mode:multiply">
<g clip-path="url(#clip12_16630_28425)">
<path fill-rule="evenodd" clip-rule="evenodd" d="M465.5 501V499.5H470.197L471.197 501H465.5ZM464 501V499C464 498.448 464.448 498 465 498H470.465C470.799 498 471.111 498.167 471.297 498.445L472.964 500.945C472.976 500.963 472.987 500.982 472.998 501H479C479.552 501 480 501.448 480 502V510C480 510.552 479.552 511 479 511H465C464.448 511 464 510.552 464 510V502.5V501.5V501ZM465.5 502.5V509.5H478.5V502.5H472.131H465.5Z" fill="#737278"/>
</g>
<rect x="493" y="501" width="67" height="8" rx="2" fill="#A4A3A8"/>
<path fill-rule="evenodd" clip-rule="evenodd" d="M676.22 503.22C676.513 502.927 676.987 502.927 677.28 503.22L680 505.939L682.72 503.22C683.013 502.927 683.487 502.927 683.78 503.22C684.073 503.513 684.073 503.987 683.78 504.28L680.53 507.53C680.237 507.823 679.763 507.823 679.47 507.53L676.22 504.28C675.927 503.987 675.927 503.513 676.22 503.22Z" fill="#737278"/>
</g>
<g style="mix-blend-mode:multiply">
<g clip-path="url(#clip13_16630_28425)">
<path fill-rule="evenodd" clip-rule="evenodd" d="M465.5 533V531.5H470.197L471.197 533H465.5ZM464 533V531C464 530.448 464.448 530 465 530H470.465C470.799 530 471.111 530.167 471.297 530.445L472.964 532.945C472.976 532.963 472.987 532.982 472.998 533H479C479.552 533 480 533.448 480 534V542C480 542.552 479.552 543 479 543H465C464.448 543 464 542.552 464 542V534.5V533.5V533ZM465.5 534.5V541.5H478.5V534.5H472.131H465.5Z" fill="#737278"/>
</g>
<rect x="493" y="533" width="89" height="8" rx="2" fill="#A4A3A8"/>
<path fill-rule="evenodd" clip-rule="evenodd" d="M676.22 535.22C676.513 534.927 676.987 534.927 677.28 535.22L680 537.939L682.72 535.22C683.013 534.927 683.487 534.927 683.78 535.22C684.073 535.513 684.073 535.987 683.78 536.28L680.53 539.53C680.237 539.823 679.763 539.823 679.47 539.53L676.22 536.28C675.927 535.987 675.927 535.513 676.22 535.22Z" fill="#737278"/>
</g>
<rect x="464" y="561" width="224" height="1" fill="#ECECEF"/>
<g style="mix-blend-mode:multiply">
<path fill-rule="evenodd" clip-rule="evenodd" d="M471.01 580.233L471.134 579.5H472.866L472.99 580.233C473.054 580.611 473.323 580.905 473.665 581.019C474.341 581.245 474.956 581.605 475.48 582.069C475.75 582.308 476.139 582.393 476.498 582.26L477.196 582L478.062 583.5L477.489 583.974C477.194 584.218 477.074 584.597 477.145 584.95C477.214 585.289 477.25 585.64 477.25 586C477.25 586.36 477.214 586.711 477.145 587.05C477.074 587.403 477.194 587.782 477.489 588.026L478.062 588.5L477.196 590L476.497 589.74C476.139 589.607 475.75 589.692 475.48 589.931C474.956 590.395 474.341 590.755 473.665 590.981C473.323 591.095 473.054 591.389 472.99 591.767L472.866 592.5H471.134L471.01 591.767C470.947 591.389 470.678 591.095 470.335 590.981C469.659 590.755 469.044 590.395 468.521 589.931C468.25 589.692 467.861 589.607 467.503 589.74L466.804 590L465.938 588.5L466.511 588.026C466.806 587.782 466.926 587.403 466.855 587.05C466.786 586.711 466.75 586.36 466.75 586C466.75 585.64 466.786 585.289 466.855 584.95C466.926 584.597 466.806 584.218 466.511 583.974L465.938 583.5L466.804 582L467.503 582.26C467.861 582.393 468.25 582.308 468.521 582.069C469.044 581.605 469.659 581.245 470.335 581.019C470.678 580.905 470.947 580.611 471.01 580.233ZM470.923 578C470.313 578 469.792 578.44 469.69 579.042L469.58 579.697C468.913 579.953 468.298 580.312 467.754 580.753L467.129 580.52C466.558 580.308 465.916 580.539 465.611 581.067L464.533 582.933C464.228 583.461 464.349 584.133 464.819 584.521L465.332 584.945C465.278 585.289 465.25 585.642 465.25 586C465.25 586.358 465.278 586.711 465.332 587.055L464.819 587.479C464.349 587.867 464.228 588.539 464.533 589.067L465.611 590.933C465.916 591.461 466.557 591.692 467.129 591.48L467.754 591.247C468.298 591.688 468.913 592.047 469.58 592.303L469.69 592.958C469.792 593.56 470.313 594 470.923 594H473.078C473.688 594 474.208 593.56 474.31 592.958L474.421 592.303C475.087 592.047 475.702 591.688 476.247 591.247L476.871 591.48C477.443 591.692 478.085 591.461 478.39 590.933L479.467 589.067C479.772 588.539 479.651 587.867 479.181 587.479L478.668 587.055C478.722 586.711 478.75 586.358 478.75 586C478.75 585.642 478.722 585.29 478.668 584.946L479.181 584.521C479.651 584.133 479.772 583.461 479.467 582.933L478.39 581.067C478.085 580.539 477.443 580.308 476.871 580.52L476.247 580.753C475.702 580.312 475.087 579.953 474.421 579.697L474.31 579.042C474.208 578.44 473.688 578 473.078 578H470.923ZM469.75 586C469.75 584.757 470.757 583.75 472 583.75C473.243 583.75 474.25 584.757 474.25 586C474.25 587.243 473.243 588.25 472 588.25C470.757 588.25 469.75 587.243 469.75 586ZM472 582.25C469.929 582.25 468.25 583.929 468.25 586C468.25 588.071 469.929 589.75 472 589.75C474.071 589.75 475.75 588.071 475.75 586C475.75 583.929 474.071 582.25 472 582.25Z" fill="#737278"/>
<rect x="493" y="582" width="65" height="8" rx="2" fill="#A4A3A8"/>
</g>
<path d="M391.219 76.1641C394.117 76.1641 396.188 74.2969 396.188 71.3047V69.8984H391.445V71.5703H394.602L394.117 71.5C394.117 73.1797 392.992 74.25 391.242 74.25C389.281 74.25 387.961 72.7734 387.961 70.1797C387.961 67.5859 389.305 66.1172 391.195 66.1172C392.594 66.1172 393.555 66.875 393.914 68.1016H396.086C395.742 65.8047 393.742 64.2031 391.164 64.2031C388.109 64.2031 385.812 66.4531 385.812 70.1953C385.812 73.8672 388 76.1641 391.219 76.1641ZM398.07 76H400.156V70.9453C400.156 69.8203 400.969 69.0547 402.078 69.0547C402.43 69.0547 402.859 69.1094 403.039 69.1641V67.2656C402.852 67.2344 402.539 67.2109 402.305 67.2109C401.305 67.2109 400.492 67.7734 400.172 68.7812H400.086V67.3203H398.07V76ZM407.828 76.1797C410.383 76.1797 412.016 74.3828 412.016 71.7031C412.016 69.0078 410.383 67.2031 407.828 67.2031C405.281 67.2031 403.648 69.0078 403.648 71.7031C403.648 74.3828 405.281 76.1797 407.828 76.1797ZM407.836 74.5C406.461 74.5 405.766 73.2812 405.766 71.6953C405.766 70.0938 406.461 68.8906 407.836 68.8906C409.203 68.8906 409.898 70.0938 409.898 71.6953C409.898 73.2812 409.203 74.5 407.836 74.5ZM419.273 72.3516C419.273 73.6641 418.344 74.3203 417.43 74.3125C416.438 74.3203 415.781 73.625 415.781 72.5234V67.3203H413.703V72.8359C413.703 74.9297 414.906 76.125 416.633 76.1172C417.938 76.125 418.852 75.4375 419.242 74.4609H419.328V76H421.352V67.3203H419.273V72.3516ZM423.422 79.2656H425.5V74.6406H425.578C425.922 75.3203 426.617 76.1641 428.062 76.1641C430.133 76.1641 431.656 74.5156 431.656 71.6797C431.656 68.7969 430.086 67.2109 428.07 67.2109C426.586 67.2109 425.906 68.0781 425.57 68.7344H425.461V67.3203H423.422V79.2656ZM427.492 74.4531C426.195 74.4531 425.453 73.3359 425.453 71.6719C425.453 70 426.188 68.9141 427.492 68.9141C428.828 68.9141 429.531 70.0469 429.531 71.6719C429.531 73.2969 428.812 74.4531 427.492 74.4531ZM440.227 69.6875C439.984 68.1719 438.766 67.2031 436.711 67.2031C434.602 67.2031 433.18 68.2422 433.18 69.8594C433.18 71.125 433.977 71.9453 435.641 72.3047L437.125 72.6172C437.914 72.7891 438.289 73.1016 438.289 73.5938C438.289 74.1719 437.656 74.6172 436.695 74.6172C435.758 74.6172 435.148 74.2109 434.984 73.4297L432.945 73.5938C433.188 75.2188 434.562 76.1797 436.703 76.1797C438.883 76.1797 440.414 75.0547 440.414 73.3984C440.414 72.1562 439.617 71.3984 437.969 71.0469L436.469 70.7344C435.617 70.5469 435.266 70.2344 435.266 69.7344C435.266 69.1641 435.898 68.75 436.742 68.75C437.68 68.75 438.188 69.2734 438.328 69.8516L440.227 69.6875ZM448.484 76.1797C449.844 76.1797 450.648 75.5469 451.031 74.8047H451.109V76H453.102V70.1719C453.102 67.9609 451.266 67.2109 449.523 67.2109C447.695 67.2109 446.273 68.0234 445.82 69.5547L447.75 69.8984C447.945 69.2969 448.547 68.7969 449.531 68.7969C450.492 68.7969 451.023 69.2812 451.023 70.1016V70.1406C451.023 70.7344 450.406 70.7656 448.875 70.9219C447.172 71.1016 445.57 71.6172 445.57 73.5625C445.57 75.2734 446.82 76.1797 448.484 76.1797ZM449.023 74.6484C448.18 74.6484 447.578 74.2656 447.578 73.5312C447.578 72.7578 448.258 72.4297 449.164 72.2969C449.727 72.2266 450.766 72.0859 451.031 71.8828V72.8828C451.031 73.8438 450.25 74.6484 449.023 74.6484ZM457.25 70.9375C457.25 69.6797 458.016 68.9688 459.086 68.9688C460.133 68.9688 460.781 69.6562 460.781 70.8203V76H462.859V70.4922C462.859 68.4062 461.648 67.2109 459.859 67.2109C458.547 67.2109 457.695 67.8359 457.297 68.8125L457.211 68.8203V67.3203H455.164V76H457.25V70.9375ZM468.133 76.1641C469.578 76.1641 470.281 75.3203 470.625 74.6406H470.734V76H472.781V64.3594H470.695V68.7344H470.617C470.281 68.0781 469.609 67.2109 468.125 67.2109C466.109 67.2109 464.539 68.7969 464.539 71.6797C464.539 74.5156 466.062 76.1641 468.133 76.1641ZM468.703 74.4531C467.383 74.4531 466.664 73.2969 466.664 71.6719C466.664 70.0469 467.367 68.9141 468.703 68.9141C470.016 68.9141 470.742 70 470.742 71.6719C470.742 73.3359 470 74.4531 468.703 74.4531ZM478.828 76H480.961V66.1484H482.883C484.453 66.1484 485.141 66.9922 485.141 68.2266C485.141 69.4531 484.453 70.3203 482.891 70.3203H480.289V72.0703H483.164C485.867 72.0703 487.32 70.4688 487.32 68.2266C487.32 65.9922 485.891 64.3594 483.195 64.3594H478.828V76ZM488.977 76H491.062V70.9453C491.062 69.8203 491.875 69.0547 492.984 69.0547C493.336 69.0547 493.766 69.1094 493.945 69.1641V67.2656C493.758 67.2344 493.445 67.2109 493.211 67.2109C492.211 67.2109 491.398 67.7734 491.078 68.7812H490.992V67.3203H488.977V76ZM498.734 76.1797C501.289 76.1797 502.922 74.3828 502.922 71.7031C502.922 69.0078 501.289 67.2031 498.734 67.2031C496.188 67.2031 494.555 69.0078 494.555 71.7031C494.555 74.3828 496.188 76.1797 498.734 76.1797ZM498.742 74.5C497.367 74.5 496.672 73.2812 496.672 71.6953C496.672 70.0938 497.367 68.8906 498.742 68.8906C500.109 68.8906 500.805 70.0938 500.805 71.6953C500.805 73.2812 500.109 74.5 498.742 74.5ZM504.602 67.3203V76.4844C504.602 77.2109 504.305 77.5781 503.523 77.5781H503.211V79.2656H503.672C505.594 79.2656 506.688 78.3906 506.688 76.5312V67.3203H504.602ZM505.641 66.1016C506.305 66.1016 506.844 65.6016 506.844 64.9766C506.844 64.3516 506.305 63.8438 505.641 63.8438C504.977 63.8438 504.438 64.3516 504.438 64.9766C504.438 65.6016 504.977 66.1016 505.641 66.1016ZM512.602 76.1797C514.625 76.1797 516.039 75.1641 516.391 73.6328L514.445 73.4375C514.18 74.1719 513.516 74.5625 512.633 74.5625C511.305 74.5625 510.43 73.6406 510.43 72.0781V71.1172C510.43 69.8281 511.18 68.8281 512.492 68.8281C513.797 68.8281 514.484 69.7891 514.484 71.2422L515.453 70.8438H509.312V72.2344H516.484V71.6016C516.484 68.6094 514.664 67.2031 512.477 67.2031C509.984 67.2031 508.367 69.0391 508.367 71.7109C508.367 74.4219 509.977 76.1797 512.602 76.1797ZM521.93 76.1797C524.133 76.1797 525.547 74.8672 525.695 73H523.695C523.523 73.9375 522.867 74.5 521.953 74.5C520.688 74.5 519.875 73.4219 519.875 71.6719C519.875 69.9297 520.695 68.8828 521.953 68.8828C522.938 68.8828 523.539 69.5156 523.695 70.3672H525.695C525.555 68.4688 524.07 67.2031 521.922 67.2031C519.375 67.2031 517.758 69.0469 517.758 71.7031C517.758 74.3359 519.344 76.1797 521.93 76.1797ZM531.727 67.3203H526.703V68.9453H531.727V67.3203ZM527.93 65.2266V73.7188C527.93 75.2109 528.898 76.1094 530.539 76.1094C530.992 76.1094 531.445 76.0469 531.875 75.9297L531.562 74.2969C531.375 74.3359 531.133 74.3672 530.938 74.3672C530.289 74.3672 530.008 74.0625 530.008 73.3828V65.2266H527.93ZM540.164 69.6875C539.922 68.1719 538.703 67.2031 536.648 67.2031C534.539 67.2031 533.117 68.2422 533.117 69.8594C533.117 71.125 533.914 71.9453 535.578 72.3047L537.062 72.6172C537.852 72.7891 538.227 73.1016 538.227 73.5938C538.227 74.1719 537.594 74.6172 536.633 74.6172C535.695 74.6172 535.086 74.2109 534.922 73.4297L532.883 73.5938C533.125 75.2188 534.5 76.1797 536.641 76.1797C538.82 76.1797 540.352 75.0547 540.352 73.3984C540.352 72.1562 539.555 71.3984 537.906 71.0469L536.406 70.7344C535.555 70.5469 535.203 70.2344 535.203 69.7344C535.203 69.1641 535.836 68.75 536.68 68.75C537.617 68.75 538.125 69.2734 538.266 69.8516L540.164 69.6875Z" fill="#535158"/>
<path d="M753.25 76.1797C756.039 76.1797 757.68 74.7891 757.68 72.7188C757.68 70.7422 756.078 69.8125 754.234 69.375L753.148 69.1016C752.125 68.8516 751.172 68.4609 751.172 67.5234C751.172 66.6484 751.961 66.0156 753.258 66.0156C754.516 66.0156 755.344 66.6094 755.445 67.6094H757.508C757.453 65.6016 755.781 64.2031 753.281 64.2031C750.812 64.2031 749 65.5859 749 67.6484C749 69.3203 750.172 70.2969 752.141 70.7891L753.445 71.125C754.734 71.4453 755.539 71.8359 755.539 72.7188C755.539 73.7031 754.594 74.3672 753.234 74.3672C751.883 74.3672 750.875 73.7422 750.797 72.5078H748.695C748.773 74.8594 750.5 76.1797 753.25 76.1797ZM763.273 76.1797C765.297 76.1797 766.711 75.1641 767.062 73.6328L765.117 73.4375C764.852 74.1719 764.188 74.5625 763.305 74.5625C761.977 74.5625 761.102 73.6406 761.102 72.0781V71.1172C761.102 69.8281 761.852 68.8281 763.164 68.8281C764.469 68.8281 765.156 69.7891 765.156 71.2422L766.125 70.8438H759.984V72.2344H767.156V71.6016C767.156 68.6094 765.336 67.2031 763.148 67.2031C760.656 67.2031 759.039 69.0391 759.039 71.7109C759.039 74.4219 760.648 76.1797 763.273 76.1797ZM773.18 67.3203H768.156V68.9453H773.18V67.3203ZM769.383 65.2266V73.7188C769.383 75.2109 770.352 76.1094 771.992 76.1094C772.445 76.1094 772.898 76.0469 773.328 75.9297L773.016 74.2969C772.828 74.3359 772.586 74.3672 772.391 74.3672C771.742 74.3672 771.461 74.0625 771.461 73.3828V65.2266H769.383ZM779.242 67.3203H774.219V68.9453H779.242V67.3203ZM775.445 65.2266V73.7188C775.445 75.2109 776.414 76.1094 778.055 76.1094C778.508 76.1094 778.961 76.0469 779.391 75.9297L779.078 74.2969C778.891 74.3359 778.648 74.3672 778.453 74.3672C777.805 74.3672 777.523 74.0625 777.523 73.3828V65.2266H775.445ZM781.172 76H783.25V67.3203H781.172V76ZM782.211 66.1016C782.875 66.1016 783.414 65.6016 783.414 64.9766C783.414 64.3516 782.875 63.8438 782.211 63.8438C781.547 63.8438 781.008 64.3516 781.008 64.9766C781.008 65.6016 781.547 66.1016 782.211 66.1016ZM787.391 70.9375C787.391 69.6797 788.156 68.9688 789.227 68.9688C790.273 68.9688 790.922 69.6562 790.922 70.8203V76H793V70.4922C793 68.4062 791.789 67.2109 790 67.2109C788.688 67.2109 787.836 67.8359 787.438 68.8125L787.352 68.8203V67.3203H785.305V76H787.391V70.9375ZM798.828 79.4453C801.188 79.4453 802.914 78.375 802.914 76.1016V67.3203H800.875V68.75H800.773C800.453 68.1094 799.773 67.2109 798.266 67.2109C796.25 67.2109 794.68 68.7969 794.68 71.6406C794.68 74.4531 796.234 75.8906 798.25 75.8906C799.703 75.8906 800.422 75.1406 800.75 74.4688H800.852V76.0703C800.852 77.3438 800.023 77.875 798.859 77.875C797.664 77.875 797.117 77.3281 796.875 76.7891L794.984 77.1797C795.328 78.4531 796.594 79.4453 798.828 79.4453ZM798.836 74.2578C797.508 74.2578 796.805 73.2188 796.805 71.625C796.805 70.0625 797.5 68.9141 798.836 68.9141C800.141 68.9141 800.867 69.9922 800.867 71.625C800.867 73.2734 800.133 74.2578 798.836 74.2578ZM811.867 69.6875C811.625 68.1719 810.406 67.2031 808.352 67.2031C806.242 67.2031 804.82 68.2422 804.82 69.8594C804.82 71.125 805.617 71.9453 807.281 72.3047L808.766 72.6172C809.555 72.7891 809.93 73.1016 809.93 73.5938C809.93 74.1719 809.297 74.6172 808.336 74.6172C807.398 74.6172 806.789 74.2109 806.625 73.4297L804.586 73.5938C804.828 75.2188 806.203 76.1797 808.344 76.1797C810.523 76.1797 812.055 75.0547 812.055 73.3984C812.055 72.1562 811.258 71.3984 809.609 71.0469L808.109 70.7344C807.258 70.5469 806.906 70.2344 806.906 69.7344C806.906 69.1641 807.539 68.75 808.383 68.75C809.32 68.75 809.828 69.2734 809.969 69.8516L811.867 69.6875Z" fill="#535158"/>
<line x1="793" y1="193" x2="802" y2="193" stroke="#7B58CF" stroke-width="2" stroke-linecap="round"/>
<path d="M809 145H803V243H809" stroke="#7B58CF" stroke-width="2" stroke-linecap="round" stroke-linejoin="round"/>
<circle cx="768" cy="193" r="16" fill="#7B58CF"/>
<circle cx="768" cy="193" r="18" stroke="#7B58CF" stroke-opacity="0.3" stroke-width="4"/>
<path d="M767.991 187.442L766.119 194.157H769.863L767.991 187.442ZM766.919 185.878H769.072L773.089 199H771.252L770.285 195.581H765.688L764.739 199H762.902L766.919 185.878Z" fill="white"/>
<g clip-path="url(#clip14_16630_28425)">
<path fill-rule="evenodd" clip-rule="evenodd" d="M834.841 116.28C835.134 115.987 835.134 115.513 834.841 115.22C834.548 114.927 834.073 114.927 833.78 115.22L830.53 118.47L830 119L830.53 119.53L833.78 122.78C834.073 123.073 834.548 123.073 834.841 122.78C835.134 122.487 835.134 122.013 834.841 121.72L832.871 119.75L843.25 119.75C843.664 119.75 844 119.414 844 119C844 118.586 843.664 118.25 843.25 118.25L832.871 118.25L834.841 116.28Z" fill="#737278"/>
</g>
<rect x="858" y="115" width="64" height="8" rx="2" fill="#A4A3A8"/>
<g style="mix-blend-mode:multiply">
<rect x="817" y="143" width="248" height="32" rx="4" fill="#ECECEF"/>
<path fill-rule="evenodd" clip-rule="evenodd" d="M842.5 153.5H831.5V156H842.5V153.5ZM842.5 157.5H835.5V164.5H842.5V157.5ZM834 157.5H831.5V164.5H834V157.5ZM831.5 152H830V153.5V164.5V166H831.5H842.5H844V164.5V153.5V152H842.5H831.5Z" fill="#535158"/>
<path d="M821 148.5C821 147.672 821.672 147 822.5 147V147C823.328 147 824 147.672 824 148.5V169.5C824 170.328 823.328 171 822.5 171V171C821.672 171 821 170.328 821 169.5V148.5Z" fill="#1F75CB"/>
<rect x="858" y="155" width="89" height="8" rx="2" fill="#737278"/>
</g>
<path fill-rule="evenodd" clip-rule="evenodd" d="M842.5 185.5H831.5V188H842.5V185.5ZM842.5 189.5H835.5V196.5H842.5V189.5ZM834 189.5H831.5V196.5H834V189.5ZM831.5 184H830V185.5V196.5V198H831.5H842.5H844V196.5V185.5V184H842.5H831.5Z" fill="#737278"/>
<rect x="858" y="187" width="64" height="8" rx="2" fill="#A4A3A8"/>
<path fill-rule="evenodd" clip-rule="evenodd" d="M842.5 217.5H831.5V220H842.5V217.5ZM842.5 221.5H835.5V228.5L842.5 228.5V221.5ZM834 221.5L831.5 221.5V228.5H834V221.5ZM831.5 216H830V217.5V228.5V230H831.5L842.5 230L844 230V228.5V217.5V216H842.5H831.5Z" fill="#737278"/>
<rect x="858" y="219" width="91" height="8" rx="2" fill="#A4A3A8"/>
<rect x="829" y="247" width="224" height="1" fill="#ECECEF"/>
<rect x="857" y="266" width="88" height="8" rx="2" fill="#BFBFC3"/>
<g style="mix-blend-mode:multiply">
<rect x="858" y="296" width="65" height="8" rx="2" fill="#A4A3A8"/>
</g>
<g style="mix-blend-mode:multiply">
<rect x="858" y="328" width="85" height="8" rx="2" fill="#A4A3A8"/>
</g>
<g style="mix-blend-mode:multiply">
<rect x="858" y="360" width="56" height="8" rx="2" fill="#A4A3A8"/>
</g>
<g style="mix-blend-mode:multiply">
<rect x="858" y="392" width="65" height="8" rx="2" fill="#A4A3A8"/>
</g>
<rect x="829" y="420" width="224" height="1" fill="#ECECEF"/>
<rect x="857" y="439" width="73" height="8" rx="2" fill="#BFBFC3"/>
<g style="mix-blend-mode:multiply">
<rect x="858" y="469" width="65" height="8" rx="2" fill="#A4A3A8"/>
</g>
<g style="mix-blend-mode:multiply">
<rect x="858" y="501" width="85" height="8" rx="2" fill="#A4A3A8"/>
</g>
<g style="mix-blend-mode:multiply">
<rect x="858" y="533" width="56" height="8" rx="2" fill="#A4A3A8"/>
</g>
<line x1="1" y1="-1" x2="10" y2="-1" transform="matrix(1 4.53408e-09 -1.68562e-06 1 792 123)" stroke="#7B58CF" stroke-width="2" stroke-linecap="round"/>
<path d="M809 107H803V139H809" stroke="#7B58CF" stroke-width="2" stroke-linecap="round" stroke-linejoin="round"/>
<circle cx="768" cy="123" r="16" fill="#7B58CF"/>
<circle cx="768" cy="123" r="18" stroke="#7B58CF" stroke-opacity="0.3" stroke-width="4"/>
<path d="M772.28 127.919C771.806 128.358 771.27 128.692 770.672 128.921C770.08 129.144 769.438 129.255 768.747 129.255C767.083 129.255 765.788 128.66 764.862 127.471C763.937 126.275 763.474 124.603 763.474 122.452C763.474 120.308 763.942 118.638 764.88 117.442C765.817 116.241 767.121 115.641 768.791 115.641C769.342 115.641 769.869 115.72 770.373 115.878C770.877 116.03 771.363 116.265 771.832 116.581V118.4C771.357 117.949 770.871 117.618 770.373 117.407C769.875 117.19 769.348 117.082 768.791 117.082C767.637 117.082 766.77 117.53 766.189 118.427C765.615 119.317 765.328 120.659 765.328 122.452C765.328 124.274 765.606 125.625 766.163 126.504C766.726 127.377 767.587 127.813 768.747 127.813C769.14 127.813 769.482 127.77 769.775 127.682C770.074 127.588 770.344 127.444 770.584 127.251V123.727H768.677V122.268H772.28V127.919Z" fill="white"/>
<line x1="793" y1="398" x2="802" y2="398" stroke="#7B58CF" stroke-width="2" stroke-linecap="round"/>
<path d="M809 257H803V541H809" stroke="#7B58CF" stroke-width="2" stroke-linecap="round" stroke-linejoin="round"/>
<circle cx="768" cy="399" r="16" fill="#7B58CF"/>
<circle cx="768" cy="399" r="18" stroke="#7B58CF" stroke-opacity="0.3" stroke-width="4"/>
<path d="M764.309 391.878H772.096V393.372H766.084V396.905H771.832V398.399H766.084V403.506H772.263V405H764.309V391.878Z" fill="white"/>
<line x1="57" y1="777.5" x2="66" y2="777.5" stroke="#7B58CF" stroke-width="2" stroke-linecap="round"/>
<path d="M73 697H67V860H73" stroke="#7B58CF" stroke-width="2" stroke-linecap="round" stroke-linejoin="round"/>
<circle cx="32" cy="781.409" r="16" fill="#7B58CF"/>
<circle cx="32" cy="781.409" r="18" stroke="#7B58CF" stroke-opacity="0.3" stroke-width="4"/>
<path d="M31.9912 775.852L30.1191 782.567H33.8633L31.9912 775.852ZM30.9189 774.287H33.0723L37.0889 787.409H35.252L34.2852 783.99H29.6885L28.7393 787.409H26.9023L30.9189 774.287Z" fill="white"/>
<line x1="57" y1="981.5" x2="66" y2="981.5" stroke="#7B58CF" stroke-width="2" stroke-linecap="round"/>
<path d="M73 873H67V1092H73" stroke="#7B58CF" stroke-width="2" stroke-linecap="round" stroke-linejoin="round"/>
<circle cx="32" cy="981.409" r="16" fill="#7B58CF"/>
<circle cx="32" cy="981.409" r="18" stroke="#7B58CF" stroke-opacity="0.3" stroke-width="4"/>
<path d="M28.625 974.287H36.3506V975.781H30.4092V979.297H35.7969V980.791H30.4092V987.409H28.625V974.287Z" fill="white"/>
<g style="mix-blend-mode:multiply">
<rect x="81" y="694" width="248" height="32" rx="4" fill="#ECECEF"/>
<path fill-rule="evenodd" clip-rule="evenodd" d="M106.5 704.5H95.5V707H106.5V704.5ZM106.5 708.5H99.5V715.5H106.5V708.5ZM98 708.5H95.5V715.5H98V708.5ZM95.5 703H94V704.5V715.5V717H95.5H106.5H108V715.5V704.5V703H106.5H95.5Z" fill="#535158"/>
<path d="M85 699.5C85 698.672 85.6716 698 86.5 698V698C87.3284 698 88 698.672 88 699.5V720.5C88 721.328 87.3284 722 86.5 722V722C85.6716 722 85 721.328 85 720.5V699.5Z" fill="#1F75CB"/>
<rect x="122" y="706" width="89" height="8" rx="2" fill="#737278"/>
<g style="mix-blend-mode:multiply">
<rect x="283" y="702" width="35" height="16" rx="8" fill="#89888D"/>
</g>
</g>
<path fill-rule="evenodd" clip-rule="evenodd" d="M106.5 736.5H95.5V739H106.5V736.5ZM106.5 740.5H99.5V747.5H106.5V740.5ZM98 740.5H95.5V747.5H98V740.5ZM95.5 735H94V736.5V747.5V749H95.5H106.5H108V747.5V736.5V735H106.5H95.5Z" fill="#737278"/>
<rect x="122" y="738" width="64" height="8" rx="2" fill="#A4A3A8"/>
<g style="mix-blend-mode:multiply">
<rect x="282" y="734" width="35" height="16" rx="8" fill="#89888D"/>
</g>
<path fill-rule="evenodd" clip-rule="evenodd" d="M106.5 768.5H95.5V771H106.5V768.5ZM106.5 772.5H99.5V779.5H106.5V772.5ZM98 772.5H95.5V779.5H98V772.5ZM95.5 767H94V768.5V779.5V781H95.5H106.5H108V779.5V768.5V767H106.5H95.5Z" fill="#737278"/>
<rect x="122" y="770" width="127" height="8" rx="2" fill="#A4A3A8"/>
<g style="mix-blend-mode:multiply">
<rect x="282" y="766" width="35" height="16" rx="8" fill="#89888D"/>
</g>
<path fill-rule="evenodd" clip-rule="evenodd" d="M106.5 800.5H95.5V803H106.5V800.5ZM106.5 804.5H99.5V811.5H106.5V804.5ZM98 804.5H95.5V811.5H98V804.5ZM95.5 799H94V800.5V811.5V813H95.5H106.5H108V811.5V800.5V799H106.5H95.5Z" fill="#737278"/>
<rect x="122" y="802" width="104" height="8" rx="2" fill="#A4A3A8"/>
<g style="mix-blend-mode:multiply">
<rect x="282" y="798" width="35" height="16" rx="8" fill="#89888D"/>
</g>
<path fill-rule="evenodd" clip-rule="evenodd" d="M106.5 832.5H95.5V835H106.5V832.5ZM106.5 836.5H99.5V843.5H106.5V836.5ZM98 836.5H95.5V843.5H98V836.5ZM95.5 831H94V832.5V843.5V845H95.5H106.5H108V843.5V832.5V831H106.5H95.5Z" fill="#737278"/>
<rect x="122" y="834" width="104" height="8" rx="2" fill="#A4A3A8"/>
<g style="mix-blend-mode:multiply">
<rect x="282" y="830" width="35" height="16" rx="8" fill="#89888D"/>
</g>
<rect x="93" y="862" width="224" height="1" fill="#ECECEF"/>
<rect x="91" y="881" width="65" height="8" rx="2" fill="#BFBFC3"/>
<g style="mix-blend-mode:multiply">
<rect x="93.5" y="907.5" width="15" height="15" rx="3.5" fill="white"/>
<rect x="93.5" y="907.5" width="15" height="15" rx="3.5" stroke="#89888D"/>
<rect x="122" y="911" width="65" height="8" rx="2" fill="#A4A3A8"/>
</g>
<g style="mix-blend-mode:multiply">
<rect x="93.5" y="939.5" width="15" height="15" rx="3.5" fill="white"/>
<rect x="93.5" y="939.5" width="15" height="15" rx="3.5" stroke="#89888D"/>
<rect x="122" y="943" width="51" height="8" rx="2" fill="#A4A3A8"/>
</g>
<rect x="91" y="977" width="65" height="8" rx="2" fill="#BFBFC3"/>
<g style="mix-blend-mode:multiply">
<rect x="93.5" y="1003.5" width="15" height="15" rx="3.5" fill="white"/>
<rect x="93.5" y="1003.5" width="15" height="15" rx="3.5" stroke="#89888D"/>
<rect x="122" y="1007" width="65" height="8" rx="2" fill="#A4A3A8"/>
</g>
<g style="mix-blend-mode:multiply">
<rect x="93.5" y="1035.5" width="15" height="15" rx="3.5" fill="white"/>
<rect x="93.5" y="1035.5" width="15" height="15" rx="3.5" stroke="#89888D"/>
<rect x="122" y="1039" width="51" height="8" rx="2" fill="#A4A3A8"/>
</g>
<rect x="91.5" y="1067.5" width="57" height="23" rx="3.5" fill="#FBFAFD"/>
<rect x="99" y="1074.5" width="42" height="9" rx="2" fill="#D9D9D9"/>
<rect x="91.5" y="1067.5" width="57" height="23" rx="3.5" stroke="#DCDCDE"/>
<path d="M22.2188 667.164C25.1172 667.164 27.1875 665.297 27.1875 662.305V660.898H22.4453V662.57H25.6016L25.1172 662.5C25.1172 664.18 23.9922 665.25 22.2422 665.25C20.2812 665.25 18.9609 663.773 18.9609 661.18C18.9609 658.586 20.3047 657.117 22.1953 657.117C23.5938 657.117 24.5547 657.875 24.9141 659.102H27.0859C26.7422 656.805 24.7422 655.203 22.1641 655.203C19.1094 655.203 16.8125 657.453 16.8125 661.195C16.8125 664.867 19 667.164 22.2188 667.164ZM31.4922 667.055C31.9688 667.055 32.375 666.969 32.6172 666.898L32.3125 665.336C32.2031 665.367 32.0703 665.383 31.8281 665.383C31.3203 665.383 31.1562 665.133 31.1562 664.5V655.359H29.0781V664.828C29.0781 666.305 29.8438 667.055 31.4922 667.055ZM37.4531 667.18C40.0078 667.18 41.6406 665.383 41.6406 662.703C41.6406 660.008 40.0078 658.203 37.4531 658.203C34.9062 658.203 33.2734 660.008 33.2734 662.703C33.2734 665.383 34.9062 667.18 37.4531 667.18ZM37.4609 665.5C36.0859 665.5 35.3906 664.281 35.3906 662.695C35.3906 661.094 36.0859 659.891 37.4609 659.891C38.8281 659.891 39.5234 661.094 39.5234 662.695C39.5234 664.281 38.8281 665.5 37.4609 665.5ZM47.9688 667.164C50.0391 667.164 51.5625 665.516 51.5625 662.68C51.5625 659.797 49.9922 658.211 47.9766 658.211C46.4922 658.211 45.8203 659.078 45.4844 659.734H45.4062V655.359H43.3281V667H45.3672V665.641H45.4766C45.8203 666.32 46.5234 667.164 47.9688 667.164ZM47.3984 665.453C46.1016 665.453 45.3594 664.336 45.3594 662.672C45.3594 661 46.0938 659.914 47.3984 659.914C48.7344 659.914 49.4375 661.047 49.4375 662.672C49.4375 664.297 48.7188 665.453 47.3984 665.453ZM55.75 667.18C57.1094 667.18 57.9141 666.547 58.2969 665.805H58.375V667H60.3672V661.172C60.3672 658.961 58.5312 658.211 56.7891 658.211C54.9609 658.211 53.5391 659.023 53.0859 660.555L55.0156 660.898C55.2109 660.297 55.8125 659.797 56.7969 659.797C57.7578 659.797 58.2891 660.281 58.2891 661.102V661.141C58.2891 661.734 57.6719 661.766 56.1406 661.922C54.4375 662.102 52.8359 662.617 52.8359 664.562C52.8359 666.273 54.0859 667.18 55.75 667.18ZM56.2891 665.648C55.4453 665.648 54.8438 665.266 54.8438 664.531C54.8438 663.758 55.5234 663.43 56.4297 663.297C56.9922 663.227 58.0312 663.086 58.2969 662.883V663.883C58.2969 664.844 57.5156 665.648 56.2891 665.648ZM64.8516 667.055C65.3281 667.055 65.7344 666.969 65.9766 666.898L65.6719 665.336C65.5625 665.367 65.4297 665.383 65.1875 665.383C64.6797 665.383 64.5156 665.133 64.5156 664.5V655.359H62.4375V664.828C62.4375 666.305 63.2031 667.055 64.8516 667.055ZM77.7734 660.688C77.5312 659.172 76.3125 658.203 74.2578 658.203C72.1484 658.203 70.7266 659.242 70.7266 660.859C70.7266 662.125 71.5234 662.945 73.1875 663.305L74.6719 663.617C75.4609 663.789 75.8359 664.102 75.8359 664.594C75.8359 665.172 75.2031 665.617 74.2422 665.617C73.3047 665.617 72.6953 665.211 72.5312 664.43L70.4922 664.594C70.7344 666.219 72.1094 667.18 74.25 667.18C76.4297 667.18 77.9609 666.055 77.9609 664.398C77.9609 663.156 77.1641 662.398 75.5156 662.047L74.0156 661.734C73.1641 661.547 72.8125 661.234 72.8125 660.734C72.8125 660.164 73.4453 659.75 74.2891 659.75C75.2266 659.75 75.7344 660.273 75.875 660.852L77.7734 660.688ZM83.4766 667.18C85.5 667.18 86.9141 666.164 87.2656 664.633L85.3203 664.438C85.0547 665.172 84.3906 665.562 83.5078 665.562C82.1797 665.562 81.3047 664.641 81.3047 663.078V662.117C81.3047 660.828 82.0547 659.828 83.3672 659.828C84.6719 659.828 85.3594 660.789 85.3594 662.242L86.3281 661.844H80.1875V663.234H87.3594V662.602C87.3594 659.609 85.5391 658.203 83.3516 658.203C80.8594 658.203 79.2422 660.039 79.2422 662.711C79.2422 665.422 80.8516 667.18 83.4766 667.18ZM91.5156 667.18C92.875 667.18 93.6797 666.547 94.0625 665.805H94.1406V667H96.1328V661.172C96.1328 658.961 94.2969 658.211 92.5547 658.211C90.7266 658.211 89.3047 659.023 88.8516 660.555L90.7812 660.898C90.9766 660.297 91.5781 659.797 92.5625 659.797C93.5234 659.797 94.0547 660.281 94.0547 661.102V661.141C94.0547 661.734 93.4375 661.766 91.9062 661.922C90.2031 662.102 88.6016 662.617 88.6016 664.562C88.6016 666.273 89.8516 667.18 91.5156 667.18ZM92.0547 665.648C91.2109 665.648 90.6094 665.266 90.6094 664.531C90.6094 663.758 91.2891 663.43 92.1953 663.297C92.7578 663.227 93.7969 663.086 94.0625 662.883V663.883C94.0625 664.844 93.2812 665.648 92.0547 665.648ZM98.1953 667H100.281V661.945C100.281 660.82 101.094 660.055 102.203 660.055C102.555 660.055 102.984 660.109 103.164 660.164V658.266C102.977 658.234 102.664 658.211 102.43 658.211C101.43 658.211 100.617 658.773 100.297 659.781H100.211V658.32H98.1953V667ZM107.945 667.18C110.148 667.18 111.562 665.867 111.711 664H109.711C109.539 664.938 108.883 665.5 107.969 665.5C106.703 665.5 105.891 664.422 105.891 662.672C105.891 660.93 106.711 659.883 107.969 659.883C108.953 659.883 109.555 660.516 109.711 661.367H111.711C111.57 659.469 110.086 658.203 107.938 658.203C105.391 658.203 103.773 660.047 103.773 662.703C103.773 665.336 105.359 667.18 107.945 667.18ZM115.453 661.938C115.453 660.68 116.234 659.969 117.312 659.969C118.414 659.969 119.031 660.641 119.031 661.82V667H121.109V661.492C121.109 659.391 119.891 658.211 118.094 658.211C116.758 658.211 115.906 658.828 115.508 659.812H115.406V655.359H113.375V667H115.453V661.938Z" fill="#535158"/>
<path d="M24.4375 1146.36V1153.78C24.4375 1155.23 23.4297 1156.27 21.8438 1156.27C20.2578 1156.27 19.2422 1155.23 19.2422 1153.78V1146.36H17.1094V1153.95C17.1094 1156.46 18.9844 1158.17 21.8438 1158.17C24.6797 1158.17 26.5703 1156.46 26.5703 1153.95V1146.36H24.4375ZM35.6016 1151.69C35.3594 1150.17 34.1406 1149.2 32.0859 1149.2C29.9766 1149.2 28.5547 1150.24 28.5547 1151.86C28.5547 1153.12 29.3516 1153.95 31.0156 1154.3L32.5 1154.62C33.2891 1154.79 33.6641 1155.1 33.6641 1155.59C33.6641 1156.17 33.0312 1156.62 32.0703 1156.62C31.1328 1156.62 30.5234 1156.21 30.3594 1155.43L28.3203 1155.59C28.5625 1157.22 29.9375 1158.18 32.0781 1158.18C34.2578 1158.18 35.7891 1157.05 35.7891 1155.4C35.7891 1154.16 34.9922 1153.4 33.3438 1153.05L31.8438 1152.73C30.9922 1152.55 30.6406 1152.23 30.6406 1151.73C30.6406 1151.16 31.2734 1150.75 32.1172 1150.75C33.0547 1150.75 33.5625 1151.27 33.7031 1151.85L35.6016 1151.69ZM41.3047 1158.18C43.3281 1158.18 44.7422 1157.16 45.0938 1155.63L43.1484 1155.44C42.8828 1156.17 42.2188 1156.56 41.3359 1156.56C40.0078 1156.56 39.1328 1155.64 39.1328 1154.08V1153.12C39.1328 1151.83 39.8828 1150.83 41.1953 1150.83C42.5 1150.83 43.1875 1151.79 43.1875 1153.24L44.1562 1152.84H38.0156V1154.23H45.1875V1153.6C45.1875 1150.61 43.3672 1149.2 41.1797 1149.2C38.6875 1149.2 37.0703 1151.04 37.0703 1153.71C37.0703 1156.42 38.6797 1158.18 41.3047 1158.18ZM46.8359 1158H48.9219V1152.95C48.9219 1151.82 49.7344 1151.05 50.8438 1151.05C51.1953 1151.05 51.625 1151.11 51.8047 1151.16V1149.27C51.6172 1149.23 51.3047 1149.21 51.0703 1149.21C50.0703 1149.21 49.2578 1149.77 48.9375 1150.78H48.8516V1149.32H46.8359V1158ZM57.0469 1161.27H59.125V1156.64H59.2031C59.5469 1157.32 60.2422 1158.16 61.6875 1158.16C63.7578 1158.16 65.2812 1156.52 65.2812 1153.68C65.2812 1150.8 63.7109 1149.21 61.6953 1149.21C60.2109 1149.21 59.5312 1150.08 59.1953 1150.73H59.0859V1149.32H57.0469V1161.27ZM61.1172 1156.45C59.8203 1156.45 59.0781 1155.34 59.0781 1153.67C59.0781 1152 59.8125 1150.91 61.1172 1150.91C62.4531 1150.91 63.1562 1152.05 63.1562 1153.67C63.1562 1155.3 62.4375 1156.45 61.1172 1156.45ZM66.9609 1158H69.0469V1152.95C69.0469 1151.82 69.8594 1151.05 70.9688 1151.05C71.3203 1151.05 71.75 1151.11 71.9297 1151.16V1149.27C71.7422 1149.23 71.4297 1149.21 71.1953 1149.21C70.1953 1149.21 69.3828 1149.77 69.0625 1150.78H68.9766V1149.32H66.9609V1158ZM76.7188 1158.18C79.2734 1158.18 80.9062 1156.38 80.9062 1153.7C80.9062 1151.01 79.2734 1149.2 76.7188 1149.2C74.1719 1149.2 72.5391 1151.01 72.5391 1153.7C72.5391 1156.38 74.1719 1158.18 76.7188 1158.18ZM76.7266 1156.5C75.3516 1156.5 74.6562 1155.28 74.6562 1153.7C74.6562 1152.09 75.3516 1150.89 76.7266 1150.89C78.0938 1150.89 78.7891 1152.09 78.7891 1153.7C78.7891 1155.28 78.0938 1156.5 76.7266 1156.5ZM87.0391 1149.32H81.8906V1150.95H87.0391V1149.32ZM83.1641 1158H85.2422V1148.64C85.2422 1147.96 85.5234 1147.59 86.2734 1147.59C86.5938 1147.59 86.875 1147.66 87.0469 1147.71L87.4141 1146.09C87.1562 1146.01 86.5781 1145.88 85.875 1145.88C84.3438 1145.88 83.1641 1146.75 83.1641 1148.48V1158ZM88.7188 1158H90.7969V1149.32H88.7188V1158ZM89.7578 1148.1C90.4219 1148.1 90.9609 1147.6 90.9609 1146.98C90.9609 1146.35 90.4219 1145.84 89.7578 1145.84C89.0938 1145.84 88.5547 1146.35 88.5547 1146.98C88.5547 1147.6 89.0938 1148.1 89.7578 1148.1ZM95.2734 1158.05C95.75 1158.05 96.1562 1157.97 96.3984 1157.9L96.0938 1156.34C95.9844 1156.37 95.8516 1156.38 95.6094 1156.38C95.1016 1156.38 94.9375 1156.13 94.9375 1155.5V1146.36H92.8594V1155.83C92.8594 1157.3 93.625 1158.05 95.2734 1158.05ZM101.289 1158.18C103.312 1158.18 104.727 1157.16 105.078 1155.63L103.133 1155.44C102.867 1156.17 102.203 1156.56 101.32 1156.56C99.9922 1156.56 99.1172 1155.64 99.1172 1154.08V1153.12C99.1172 1151.83 99.8672 1150.83 101.18 1150.83C102.484 1150.83 103.172 1151.79 103.172 1153.24L104.141 1152.84H98V1154.23H105.172V1153.6C105.172 1150.61 103.352 1149.2 101.164 1149.2C98.6719 1149.2 97.0547 1151.04 97.0547 1153.71C97.0547 1156.42 98.6641 1158.18 101.289 1158.18ZM113.711 1151.69C113.469 1150.17 112.25 1149.2 110.195 1149.2C108.086 1149.2 106.664 1150.24 106.664 1151.86C106.664 1153.12 107.461 1153.95 109.125 1154.3L110.609 1154.62C111.398 1154.79 111.773 1155.1 111.773 1155.59C111.773 1156.17 111.141 1156.62 110.18 1156.62C109.242 1156.62 108.633 1156.21 108.469 1155.43L106.43 1155.59C106.672 1157.22 108.047 1158.18 110.188 1158.18C112.367 1158.18 113.898 1157.05 113.898 1155.4C113.898 1154.16 113.102 1153.4 111.453 1153.05L109.953 1152.73C109.102 1152.55 108.75 1152.23 108.75 1151.73C108.75 1151.16 109.383 1150.75 110.227 1150.75C111.164 1150.75 111.672 1151.27 111.812 1151.85L113.711 1151.69ZM121.969 1158.18C123.328 1158.18 124.133 1157.55 124.516 1156.8H124.594V1158H126.586V1152.17C126.586 1149.96 124.75 1149.21 123.008 1149.21C121.18 1149.21 119.758 1150.02 119.305 1151.55L121.234 1151.9C121.43 1151.3 122.031 1150.8 123.016 1150.8C123.977 1150.8 124.508 1151.28 124.508 1152.1V1152.14C124.508 1152.73 123.891 1152.77 122.359 1152.92C120.656 1153.1 119.055 1153.62 119.055 1155.56C119.055 1157.27 120.305 1158.18 121.969 1158.18ZM122.508 1156.65C121.664 1156.65 121.062 1156.27 121.062 1155.53C121.062 1154.76 121.742 1154.43 122.648 1154.3C123.211 1154.23 124.25 1154.09 124.516 1153.88V1154.88C124.516 1155.84 123.734 1156.65 122.508 1156.65ZM130.734 1152.94C130.734 1151.68 131.5 1150.97 132.57 1150.97C133.617 1150.97 134.266 1151.66 134.266 1152.82V1158H136.344V1152.49C136.344 1150.41 135.133 1149.21 133.344 1149.21C132.031 1149.21 131.18 1149.84 130.781 1150.81L130.695 1150.82V1149.32H128.648V1158H130.734V1152.94ZM141.617 1158.16C143.062 1158.16 143.766 1157.32 144.109 1156.64H144.219V1158H146.266V1146.36H144.18V1150.73H144.102C143.766 1150.08 143.094 1149.21 141.609 1149.21C139.594 1149.21 138.023 1150.8 138.023 1153.68C138.023 1156.52 139.547 1158.16 141.617 1158.16ZM142.188 1156.45C140.867 1156.45 140.148 1155.3 140.148 1153.67C140.148 1152.05 140.852 1150.91 142.188 1150.91C143.5 1150.91 144.227 1152 144.227 1153.67C144.227 1155.34 143.484 1156.45 142.188 1156.45ZM159.117 1151.69C158.875 1150.17 157.656 1149.2 155.602 1149.2C153.492 1149.2 152.07 1150.24 152.07 1151.86C152.07 1153.12 152.867 1153.95 154.531 1154.3L156.016 1154.62C156.805 1154.79 157.18 1155.1 157.18 1155.59C157.18 1156.17 156.547 1156.62 155.586 1156.62C154.648 1156.62 154.039 1156.21 153.875 1155.43L151.836 1155.59C152.078 1157.22 153.453 1158.18 155.594 1158.18C157.773 1158.18 159.305 1157.05 159.305 1155.4C159.305 1154.16 158.508 1153.4 156.859 1153.05L155.359 1152.73C154.508 1152.55 154.156 1152.23 154.156 1151.73C154.156 1151.16 154.789 1150.75 155.633 1150.75C156.57 1150.75 157.078 1151.27 157.219 1151.85L159.117 1151.69ZM164.82 1158.18C166.844 1158.18 168.258 1157.16 168.609 1155.63L166.664 1155.44C166.398 1156.17 165.734 1156.56 164.852 1156.56C163.523 1156.56 162.648 1155.64 162.648 1154.08V1153.12C162.648 1151.83 163.398 1150.83 164.711 1150.83C166.016 1150.83 166.703 1151.79 166.703 1153.24L167.672 1152.84H161.531V1154.23H168.703V1153.6C168.703 1150.61 166.883 1149.2 164.695 1149.2C162.203 1149.2 160.586 1151.04 160.586 1153.71C160.586 1156.42 162.195 1158.18 164.82 1158.18ZM174.727 1149.32H169.703V1150.95H174.727V1149.32ZM170.93 1147.23V1155.72C170.93 1157.21 171.898 1158.11 173.539 1158.11C173.992 1158.11 174.445 1158.05 174.875 1157.93L174.562 1156.3C174.375 1156.34 174.133 1156.37 173.938 1156.37C173.289 1156.37 173.008 1156.06 173.008 1155.38V1147.23H170.93ZM180.789 1149.32H175.766V1150.95H180.789V1149.32ZM176.992 1147.23V1155.72C176.992 1157.21 177.961 1158.11 179.602 1158.11C180.055 1158.11 180.508 1158.05 180.938 1157.93L180.625 1156.3C180.438 1156.34 180.195 1156.37 180 1156.37C179.352 1156.37 179.07 1156.06 179.07 1155.38V1147.23H176.992ZM182.719 1158H184.797V1149.32H182.719V1158ZM183.758 1148.1C184.422 1148.1 184.961 1147.6 184.961 1146.98C184.961 1146.35 184.422 1145.84 183.758 1145.84C183.094 1145.84 182.555 1146.35 182.555 1146.98C182.555 1147.6 183.094 1148.1 183.758 1148.1ZM188.938 1152.94C188.938 1151.68 189.703 1150.97 190.773 1150.97C191.82 1150.97 192.469 1151.66 192.469 1152.82V1158H194.547V1152.49C194.547 1150.41 193.336 1149.21 191.547 1149.21C190.234 1149.21 189.383 1149.84 188.984 1150.81L188.898 1150.82V1149.32H186.852V1158H188.938V1152.94ZM200.375 1161.45C202.734 1161.45 204.461 1160.38 204.461 1158.1V1149.32H202.422V1150.75H202.32C202 1150.11 201.32 1149.21 199.812 1149.21C197.797 1149.21 196.227 1150.8 196.227 1153.64C196.227 1156.45 197.781 1157.89 199.797 1157.89C201.25 1157.89 201.969 1157.14 202.297 1156.47H202.398V1158.07C202.398 1159.34 201.57 1159.88 200.406 1159.88C199.211 1159.88 198.664 1159.33 198.422 1158.79L196.531 1159.18C196.875 1160.45 198.141 1161.45 200.375 1161.45ZM200.383 1156.26C199.055 1156.26 198.352 1155.22 198.352 1153.62C198.352 1152.06 199.047 1150.91 200.383 1150.91C201.688 1150.91 202.414 1151.99 202.414 1153.62C202.414 1155.27 201.68 1156.26 200.383 1156.26ZM213.414 1151.69C213.172 1150.17 211.953 1149.2 209.898 1149.2C207.789 1149.2 206.367 1150.24 206.367 1151.86C206.367 1153.12 207.164 1153.95 208.828 1154.3L210.312 1154.62C211.102 1154.79 211.477 1155.1 211.477 1155.59C211.477 1156.17 210.844 1156.62 209.883 1156.62C208.945 1156.62 208.336 1156.21 208.172 1155.43L206.133 1155.59C206.375 1157.22 207.75 1158.18 209.891 1158.18C212.07 1158.18 213.602 1157.05 213.602 1155.4C213.602 1154.16 212.805 1153.4 211.156 1153.05L209.656 1152.73C208.805 1152.55 208.453 1152.23 208.453 1151.73C208.453 1151.16 209.086 1150.75 209.93 1150.75C210.867 1150.75 211.375 1151.27 211.516 1151.85L213.414 1151.69Z" fill="#535158"/>
<line x1="57" y1="1296" x2="66" y2="1296" stroke="#7B58CF" stroke-width="2" stroke-linecap="round"/>
<path d="M73 1189H67V1405H73" stroke="#7B58CF" stroke-width="2" stroke-linecap="round" stroke-linejoin="round"/>
<circle cx="32" cy="1295.41" r="16" fill="#7B58CF"/>
<circle cx="32" cy="1295.41" r="18" stroke="#7B58CF" stroke-opacity="0.3" stroke-width="4"/>
<path d="M31.9912 1289.85L30.1191 1296.57H33.8633L31.9912 1289.85ZM30.9189 1288.29H33.0723L37.0889 1301.41H35.252L34.2852 1297.99H29.6885L28.7393 1301.41H26.9023L30.9189 1288.29Z" fill="white"/>
<g style="mix-blend-mode:multiply">
<rect x="81" y="1185" width="248" height="32" rx="4" fill="#ECECEF"/>
<path fill-rule="evenodd" clip-rule="evenodd" d="M106.5 1195.5H95.5V1198H106.5V1195.5ZM106.5 1199.5H99.5V1206.5H106.5V1199.5ZM98 1199.5H95.5V1206.5H98V1199.5ZM95.5 1194H94V1195.5V1206.5V1208H95.5H106.5H108V1206.5V1195.5V1194H106.5H95.5Z" fill="#535158"/>
<path d="M85 1190.5C85 1189.67 85.6716 1189 86.5 1189V1189C87.3284 1189 88 1189.67 88 1190.5V1211.5C88 1212.33 87.3284 1213 86.5 1213V1213C85.6716 1213 85 1212.33 85 1211.5V1190.5Z" fill="#1F75CB"/>
<rect x="122" y="1197" width="89" height="8" rx="2" fill="#737278"/>
</g>
<path fill-rule="evenodd" clip-rule="evenodd" d="M106.5 1227.5H95.5V1230H106.5V1227.5ZM106.5 1231.5H99.5V1238.5H106.5V1231.5ZM98 1231.5H95.5V1238.5H98V1231.5ZM95.5 1226H94V1227.5V1238.5V1240H95.5H106.5H108V1238.5V1227.5V1226H106.5H95.5Z" fill="#737278"/>
<rect x="122" y="1229" width="64" height="8" rx="2" fill="#A4A3A8"/>
<path fill-rule="evenodd" clip-rule="evenodd" d="M106.5 1259.5H95.5V1262H106.5V1259.5ZM106.5 1263.5H99.5V1270.5H106.5V1263.5ZM98 1263.5H95.5V1270.5H98V1263.5ZM95.5 1258H94V1259.5V1270.5V1272H95.5H106.5H108V1270.5V1259.5V1258H106.5H95.5Z" fill="#737278"/>
<rect x="122" y="1261" width="91" height="8" rx="2" fill="#A4A3A8"/>
<path fill-rule="evenodd" clip-rule="evenodd" d="M106.5 1291.5H95.5V1294H106.5V1291.5ZM106.5 1295.5H99.5V1302.5H106.5V1295.5ZM98 1295.5H95.5V1302.5H98V1295.5ZM95.5 1290H94V1291.5V1302.5V1304H95.5H106.5H108V1302.5V1291.5V1290H106.5H95.5Z" fill="#737278"/>
<rect x="122" y="1293" width="64" height="8" rx="2" fill="#A4A3A8"/>
<path fill-rule="evenodd" clip-rule="evenodd" d="M106.5 1323.5H95.5V1326H106.5V1323.5ZM106.5 1327.5H99.5V1334.5H106.5V1327.5ZM98 1327.5H95.5V1334.5H98V1327.5ZM95.5 1322H94V1323.5V1334.5V1336H95.5H106.5H108V1334.5V1323.5V1322H106.5H95.5Z" fill="#737278"/>
<rect x="122" y="1325" width="114" height="8" rx="2" fill="#A4A3A8"/>
<path fill-rule="evenodd" clip-rule="evenodd" d="M106.5 1355.5H95.5V1358H106.5V1355.5ZM106.5 1359.5H99.5V1366.5H106.5V1359.5ZM98 1359.5H95.5V1366.5H98V1359.5ZM95.5 1354H94V1355.5V1366.5V1368H95.5H106.5H108V1366.5V1355.5V1354H106.5H95.5Z" fill="#737278"/>
<rect x="122" y="1357" width="64" height="8" rx="2" fill="#A4A3A8"/>
<g style="mix-blend-mode:multiply">
<rect x="282" y="1353" width="35" height="16" rx="8" fill="#CBE2F9"/>
</g>
<path fill-rule="evenodd" clip-rule="evenodd" d="M106.5 1387.5H95.5V1390H106.5V1387.5ZM106.5 1391.5H99.5V1398.5H106.5V1391.5ZM98 1391.5H95.5V1398.5H98V1391.5ZM95.5 1386H94V1387.5V1398.5V1400H95.5H106.5H108V1398.5V1387.5V1386H106.5H95.5Z" fill="#737278"/>
<rect x="122" y="1389" width="127" height="8" rx="2" fill="#A4A3A8"/>
<g style="mix-blend-mode:multiply">
<rect x="282" y="1385" width="35" height="16" rx="8" fill="#CBE2F9"/>
</g>
<path d="M423.25 667.18C426.039 667.18 427.68 665.789 427.68 663.719C427.68 661.742 426.078 660.812 424.234 660.375L423.148 660.102C422.125 659.852 421.172 659.461 421.172 658.523C421.172 657.648 421.961 657.016 423.258 657.016C424.516 657.016 425.344 657.609 425.445 658.609H427.508C427.453 656.602 425.781 655.203 423.281 655.203C420.812 655.203 419 656.586 419 658.648C419 660.32 420.172 661.297 422.141 661.789L423.445 662.125C424.734 662.445 425.539 662.836 425.539 663.719C425.539 664.703 424.594 665.367 423.234 665.367C421.883 665.367 420.875 664.742 420.797 663.508H418.695C418.773 665.859 420.5 667.18 423.25 667.18ZM433.273 667.18C435.297 667.18 436.711 666.164 437.062 664.633L435.117 664.438C434.852 665.172 434.188 665.562 433.305 665.562C431.977 665.562 431.102 664.641 431.102 663.078V662.117C431.102 660.828 431.852 659.828 433.164 659.828C434.469 659.828 435.156 660.789 435.156 662.242L436.125 661.844H429.984V663.234H437.156V662.602C437.156 659.609 435.336 658.203 433.148 658.203C430.656 658.203 429.039 660.039 429.039 662.711C429.039 665.422 430.648 667.18 433.273 667.18ZM443.18 658.32H438.156V659.945H443.18V658.32ZM439.383 656.227V664.719C439.383 666.211 440.352 667.109 441.992 667.109C442.445 667.109 442.898 667.047 443.328 666.93L443.016 665.297C442.828 665.336 442.586 665.367 442.391 665.367C441.742 665.367 441.461 665.062 441.461 664.383V656.227H439.383ZM449.242 658.32H444.219V659.945H449.242V658.32ZM445.445 656.227V664.719C445.445 666.211 446.414 667.109 448.055 667.109C448.508 667.109 448.961 667.047 449.391 666.93L449.078 665.297C448.891 665.336 448.648 665.367 448.453 665.367C447.805 665.367 447.523 665.062 447.523 664.383V656.227H445.445ZM451.172 667H453.25V658.32H451.172V667ZM452.211 657.102C452.875 657.102 453.414 656.602 453.414 655.977C453.414 655.352 452.875 654.844 452.211 654.844C451.547 654.844 451.008 655.352 451.008 655.977C451.008 656.602 451.547 657.102 452.211 657.102ZM457.391 661.938C457.391 660.68 458.156 659.969 459.227 659.969C460.273 659.969 460.922 660.656 460.922 661.82V667H463V661.492C463 659.406 461.789 658.211 460 658.211C458.688 658.211 457.836 658.836 457.438 659.812L457.352 659.82V658.32H455.305V667H457.391V661.938ZM468.828 670.445C471.188 670.445 472.914 669.375 472.914 667.102V658.32H470.875V659.75H470.773C470.453 659.109 469.773 658.211 468.266 658.211C466.25 658.211 464.68 659.797 464.68 662.641C464.68 665.453 466.234 666.891 468.25 666.891C469.703 666.891 470.422 666.141 470.75 665.469H470.852V667.07C470.852 668.344 470.023 668.875 468.859 668.875C467.664 668.875 467.117 668.328 466.875 667.789L464.984 668.18C465.328 669.453 466.594 670.445 468.828 670.445ZM468.836 665.258C467.508 665.258 466.805 664.219 466.805 662.625C466.805 661.062 467.5 659.914 468.836 659.914C470.141 659.914 470.867 660.992 470.867 662.625C470.867 664.273 470.133 665.258 468.836 665.258ZM481.867 660.688C481.625 659.172 480.406 658.203 478.352 658.203C476.242 658.203 474.82 659.242 474.82 660.859C474.82 662.125 475.617 662.945 477.281 663.305L478.766 663.617C479.555 663.789 479.93 664.102 479.93 664.594C479.93 665.172 479.297 665.617 478.336 665.617C477.398 665.617 476.789 665.211 476.625 664.43L474.586 664.594C474.828 666.219 476.203 667.18 478.344 667.18C480.523 667.18 482.055 666.055 482.055 664.398C482.055 663.156 481.258 662.398 479.609 662.047L478.109 661.734C477.258 661.547 476.906 661.234 476.906 660.734C476.906 660.164 477.539 659.75 478.383 659.75C479.32 659.75 479.828 660.273 479.969 660.852L481.867 660.688Z" fill="#535158"/>
<path d="M418.32 697.359L422.555 704.68V709H424.688V704.68L428.922 697.359H426.516L423.68 702.508H423.562L420.734 697.359H418.32ZM432.406 709.18C434.961 709.18 436.594 707.383 436.594 704.703C436.594 702.008 434.961 700.203 432.406 700.203C429.859 700.203 428.227 702.008 428.227 704.703C428.227 707.383 429.859 709.18 432.406 709.18ZM432.414 707.5C431.039 707.5 430.344 706.281 430.344 704.695C430.344 703.094 431.039 701.891 432.414 701.891C433.781 701.891 434.477 703.094 434.477 704.695C434.477 706.281 433.781 707.5 432.414 707.5ZM443.852 705.352C443.852 706.664 442.922 707.32 442.008 707.312C441.016 707.32 440.359 706.625 440.359 705.523V700.32H438.281V705.836C438.281 707.93 439.484 709.125 441.211 709.117C442.516 709.125 443.43 708.438 443.82 707.461H443.906V709H445.93V700.32H443.852V705.352ZM447.992 709H450.078V703.945C450.078 702.82 450.891 702.055 452 702.055C452.352 702.055 452.781 702.109 452.961 702.164V700.266C452.773 700.234 452.461 700.211 452.227 700.211C451.227 700.211 450.414 700.773 450.094 701.781H450.008V700.32H447.992V709ZM459.984 709H462.156L463.781 703.188H463.883L465.508 709H467.68L470.133 700.32H468.008L466.508 706.367H466.438L464.891 700.32H462.797L461.242 706.398H461.172L459.656 700.32H457.531L459.984 709ZM475.094 709.18C477.648 709.18 479.281 707.383 479.281 704.703C479.281 702.008 477.648 700.203 475.094 700.203C472.547 700.203 470.914 702.008 470.914 704.703C470.914 707.383 472.547 709.18 475.094 709.18ZM475.102 707.5C473.727 707.5 473.031 706.281 473.031 704.695C473.031 703.094 473.727 701.891 475.102 701.891C476.469 701.891 477.164 703.094 477.164 704.695C477.164 706.281 476.469 707.5 475.102 707.5ZM480.961 709H483.047V703.945C483.047 702.82 483.859 702.055 484.969 702.055C485.32 702.055 485.75 702.109 485.93 702.164V700.266C485.742 700.234 485.43 700.211 485.195 700.211C484.195 700.211 483.383 700.773 483.062 701.781H482.977V700.32H480.961V709ZM489.398 706.305L490.969 704.609H491.414L495.258 700.32H492.812L489.711 703.797H489.398V706.305ZM487.5 709H489.578V697.359H487.5V709ZM492.961 709H495.453L491.555 703.602L490.148 705.078L492.961 709Z" fill="#535158"/>
<line x1="459" y1="1003" x2="468" y2="1003" stroke="#7B58CF" stroke-width="2" stroke-linecap="round"/>
<path d="M475 943H469V1065H475" stroke="#7B58CF" stroke-width="2" stroke-linecap="round" stroke-linejoin="round"/>
<circle cx="434" cy="1004" r="16" fill="#7B58CF"/>
<circle cx="434" cy="1004" r="18" stroke="#7B58CF" stroke-opacity="0.3" stroke-width="4"/>
<path d="M430.309 996.878H438.096V998.372H432.084V1001.91H437.832V1003.4H432.084V1008.51H438.263V1010H430.309V996.878Z" fill="white"/>
<line x1="459" y1="831.5" x2="468" y2="831.5" stroke="#7B58CF" stroke-width="2" stroke-linecap="round"/>
<path d="M475 736H469V929H475" stroke="#7B58CF" stroke-width="2" stroke-linecap="round" stroke-linejoin="round"/>
<circle cx="434" cy="833" r="16" fill="#7B58CF"/>
<circle cx="434" cy="833" r="18" stroke="#7B58CF" stroke-opacity="0.3" stroke-width="4"/>
<path d="M433.991 827.442L432.119 834.157H435.863L433.991 827.442ZM432.919 825.878H435.072L439.089 839H437.252L436.285 835.581H431.688L430.739 839H428.902L432.919 825.878Z" fill="white"/>
<g style="mix-blend-mode:multiply">
<rect x="483" y="736" width="248" height="32" rx="4" fill="#ECECEF"/>
<path fill-rule="evenodd" clip-rule="evenodd" d="M508.5 746.5H497.5V749H508.5V746.5ZM508.5 750.5H501.5V757.5H508.5V750.5ZM500 750.5H497.5V757.5H500V750.5ZM497.5 745H496V746.5V757.5V759H497.5H508.5H510V757.5V746.5V745H508.5H497.5Z" fill="#535158"/>
<path d="M487 741.5C487 740.672 487.672 740 488.5 740V740C489.328 740 490 740.672 490 741.5V762.5C490 763.328 489.328 764 488.5 764V764C487.672 764 487 763.328 487 762.5V741.5Z" fill="#1F75CB"/>
<rect x="524" y="748" width="89" height="8" rx="2" fill="#737278"/>
</g>
<path fill-rule="evenodd" clip-rule="evenodd" d="M508.5 778.5H497.5V781H508.5V778.5ZM508.5 782.5H501.5V789.5H508.5V782.5ZM500 782.5H497.5V789.5H500V782.5ZM497.5 777H496V778.5V789.5V791H497.5H508.5H510V789.5V778.5V777H508.5H497.5Z" fill="#737278"/>
<rect x="524" y="780" width="64" height="8" rx="2" fill="#A4A3A8"/>
<path fill-rule="evenodd" clip-rule="evenodd" d="M508.5 810.5H497.5V813H508.5V810.5ZM508.5 814.5H501.5V821.5H508.5V814.5ZM500 814.5H497.5V821.5H500V814.5ZM497.5 809H496V810.5V821.5V823H497.5H508.5H510V821.5V810.5V809H508.5H497.5Z" fill="#737278"/>
<rect x="524" y="812" width="64" height="8" rx="2" fill="#A4A3A8"/>
<g style="mix-blend-mode:multiply">
<rect x="684" y="808" width="35" height="16" rx="8" fill="#CBE2F9"/>
</g>
<path fill-rule="evenodd" clip-rule="evenodd" d="M508.5 842.5H497.5V845H508.5V842.5ZM508.5 846.5H501.5V853.5H508.5V846.5ZM500 846.5H497.5V853.5H500V846.5ZM497.5 841H496V842.5V853.5V855H497.5H508.5H510V853.5V842.5V841H508.5H497.5Z" fill="#737278"/>
<rect x="524" y="844" width="127" height="8" rx="2" fill="#A4A3A8"/>
<g style="mix-blend-mode:multiply">
<rect x="684" y="840" width="35" height="16" rx="8" fill="#CBE2F9"/>
</g>
<path fill-rule="evenodd" clip-rule="evenodd" d="M508.5 874.5H497.5V877H508.5V874.5ZM508.5 878.5H501.5V885.5H508.5V878.5ZM500 878.5H497.5V885.5H500V878.5ZM497.5 873H496V874.5V885.5V887H497.5H508.5H510V885.5V874.5V873H508.5H497.5Z" fill="#737278"/>
<rect x="524" y="876" width="91" height="8" rx="2" fill="#A4A3A8"/>
<path fill-rule="evenodd" clip-rule="evenodd" d="M508.5 906.5H497.5V909H508.5V906.5ZM508.5 910.5H501.5V917.5H508.5V910.5ZM500 910.5H497.5V917.5H500V910.5ZM497.5 905H496V906.5V917.5V919H497.5H508.5H510V917.5V906.5V905H508.5H497.5Z" fill="#737278"/>
<rect x="524" y="908" width="114" height="8" rx="2" fill="#A4A3A8"/>
<rect x="495" y="936" width="224" height="1" fill="#ECECEF"/>
<rect x="493" y="955" width="65" height="8" rx="2" fill="#BFBFC3"/>
<g style="mix-blend-mode:multiply">
<g clip-path="url(#clip15_16630_28425)">
<path fill-rule="evenodd" clip-rule="evenodd" d="M503.379 982.103C503.145 981.966 502.855 981.966 502.621 982.103L495.371 986.353C495.141 986.488 495 986.734 495 987C495 987.266 495.141 987.512 495.371 987.647L502.621 991.897C502.855 992.034 503.145 992.034 503.379 991.897L510.629 987.647C510.859 987.512 511 987.266 511 987C511 986.734 510.859 986.488 510.629 986.353L503.379 982.103ZM503 990.381L497.233 987L503 983.619L508.767 987L503 990.381ZM496.129 990.353C495.772 990.144 495.313 990.263 495.103 990.621C494.894 990.978 495.013 991.438 495.371 991.647L502.621 995.897C502.855 996.034 503.145 996.034 503.379 995.897L510.629 991.647C510.987 991.438 511.107 990.978 510.897 990.621C510.688 990.263 510.228 990.144 509.871 990.353L503 994.381L496.129 990.353Z" fill="#737278"/>
</g>
<rect x="524" y="985" width="65" height="8" rx="2" fill="#A4A3A8"/>
</g>
<g style="mix-blend-mode:multiply">
<g clip-path="url(#clip16_16630_28425)">
<path fill-rule="evenodd" clip-rule="evenodd" d="M503.379 1014.1C503.145 1013.97 502.855 1013.97 502.621 1014.1L495.371 1018.35C495.141 1018.49 495 1018.73 495 1019C495 1019.27 495.141 1019.51 495.371 1019.65L502.621 1023.9C502.855 1024.03 503.145 1024.03 503.379 1023.9L510.629 1019.65C510.859 1019.51 511 1019.27 511 1019C511 1018.73 510.859 1018.49 510.629 1018.35L503.379 1014.1ZM503 1022.38L497.233 1019L503 1015.62L508.767 1019L503 1022.38ZM496.129 1022.35C495.772 1022.14 495.313 1022.26 495.103 1022.62C494.894 1022.98 495.013 1023.44 495.371 1023.65L502.621 1027.9C502.855 1028.03 503.145 1028.03 503.379 1027.9L510.629 1023.65C510.987 1023.44 511.107 1022.98 510.897 1022.62C510.688 1022.26 510.228 1022.14 509.871 1022.35L503 1026.38L496.129 1022.35Z" fill="#737278"/>
</g>
<rect x="524" y="1017" width="85" height="8" rx="2" fill="#A4A3A8"/>
</g>
<g style="mix-blend-mode:multiply">
<g clip-path="url(#clip17_16630_28425)">
<path fill-rule="evenodd" clip-rule="evenodd" d="M503.379 1046.1C503.145 1045.97 502.855 1045.97 502.621 1046.1L495.371 1050.35C495.141 1050.49 495 1050.73 495 1051C495 1051.27 495.141 1051.51 495.371 1051.65L502.621 1055.9C502.855 1056.03 503.145 1056.03 503.379 1055.9L510.629 1051.65C510.859 1051.51 511 1051.27 511 1051C511 1050.73 510.859 1050.49 510.629 1050.35L503.379 1046.1ZM503 1054.38L497.233 1051L503 1047.62L508.767 1051L503 1054.38ZM496.129 1054.35C495.772 1054.14 495.313 1054.26 495.103 1054.62C494.894 1054.98 495.013 1055.44 495.371 1055.65L502.621 1059.9C502.855 1060.03 503.145 1060.03 503.379 1059.9L510.629 1055.65C510.987 1055.44 511.107 1054.98 510.897 1054.62C510.688 1054.26 510.228 1054.14 509.871 1054.35L503 1058.38L496.129 1054.35Z" fill="#737278"/>
</g>
<rect x="524" y="1049" width="56" height="8" rx="2" fill="#A4A3A8"/>
</g>
<path d="M787.109 667H789.242V662.078H794.594V667H796.734V655.359H794.594V660.273H789.242V655.359H787.109V667ZM802.773 667.18C804.797 667.18 806.211 666.164 806.562 664.633L804.617 664.438C804.352 665.172 803.688 665.562 802.805 665.562C801.477 665.562 800.602 664.641 800.602 663.078V662.117C800.602 660.828 801.352 659.828 802.664 659.828C803.969 659.828 804.656 660.789 804.656 662.242L805.625 661.844H799.484V663.234H806.656V662.602C806.656 659.609 804.836 658.203 802.648 658.203C800.156 658.203 798.539 660.039 798.539 662.711C798.539 665.422 800.148 667.18 802.773 667.18ZM810.727 667.055C811.203 667.055 811.609 666.969 811.852 666.898L811.547 665.336C811.438 665.367 811.305 665.383 811.062 665.383C810.555 665.383 810.391 665.133 810.391 664.5V655.359H808.312V664.828C808.312 666.305 809.078 667.055 810.727 667.055ZM812.859 670.266H814.938V665.641H815.016C815.359 666.32 816.055 667.164 817.5 667.164C819.57 667.164 821.094 665.516 821.094 662.68C821.094 659.797 819.523 658.211 817.508 658.211C816.023 658.211 815.344 659.078 815.008 659.734H814.898V658.32H812.859V670.266ZM816.93 665.453C815.633 665.453 814.891 664.336 814.891 662.672C814.891 661 815.625 659.914 816.93 659.914C818.266 659.914 818.969 661.047 818.969 662.672C818.969 664.297 818.25 665.453 816.93 665.453Z" fill="#535158"/>
<g style="mix-blend-mode:multiply">
<rect x="855" y="694" width="248" height="32" rx="4" fill="#ECECEF"/>
<path fill-rule="evenodd" clip-rule="evenodd" d="M880.5 704.5H869.5V707H880.5V704.5ZM880.5 708.5H873.5V715.5H880.5V708.5ZM872 708.5H869.5V715.5H872V708.5ZM869.5 703H868V704.5V715.5V717H869.5H880.5H882V715.5V704.5V703H880.5H869.5Z" fill="#535158"/>
<path d="M859 699.5C859 698.672 859.672 698 860.5 698V698C861.328 698 862 698.672 862 699.5V720.5C862 721.328 861.328 722 860.5 722V722C859.672 722 859 721.328 859 720.5V699.5Z" fill="#1F75CB"/>
<rect x="896" y="706" width="89" height="8" rx="2" fill="#737278"/>
</g>
<rect x="867" y="734" width="224" height="1" fill="#ECECEF"/>
<rect x="895" y="753" width="113" height="8" rx="2" fill="#BFBFC3"/>
<g style="mix-blend-mode:multiply">
<rect x="896" y="783" width="65" height="8" rx="2" fill="#A4A3A8"/>
</g>
<g style="mix-blend-mode:multiply">
<rect x="896" y="815" width="85" height="8" rx="2" fill="#A4A3A8"/>
</g>
<g style="mix-blend-mode:multiply">
<rect x="896" y="847" width="56" height="8" rx="2" fill="#A4A3A8"/>
</g>
<g style="mix-blend-mode:multiply">
<rect x="896" y="879" width="65" height="8" rx="2" fill="#A4A3A8"/>
</g>
<rect x="867" y="907" width="224" height="1" fill="#ECECEF"/>
<line x1="1" y1="-1" x2="10" y2="-1" transform="matrix(1 4.53408e-09 -1.68562e-06 1 830 714)" stroke="#7B58CF" stroke-width="2" stroke-linecap="round"/>
<path d="M847 698H841V730H847" stroke="#7B58CF" stroke-width="2" stroke-linecap="round" stroke-linejoin="round"/>
<circle cx="806" cy="714" r="16" fill="#7B58CF"/>
<circle cx="806" cy="714" r="18" stroke="#7B58CF" stroke-opacity="0.3" stroke-width="4"/>
<path d="M805.991 708.442L804.119 715.157H807.863L805.991 708.442ZM804.919 706.878H807.072L811.089 720H809.252L808.285 716.581H803.688L802.739 720H800.902L804.919 706.878Z" fill="white"/>
<line x1="831" y1="820" x2="840" y2="820" stroke="#7B58CF" stroke-width="2" stroke-linecap="round"/>
<path d="M847 735H841V907H847" stroke="#7B58CF" stroke-width="2" stroke-linecap="round" stroke-linejoin="round"/>
<circle cx="806" cy="821" r="16" fill="#7B58CF"/>
<circle cx="806" cy="821" r="18" stroke="#7B58CF" stroke-opacity="0.3" stroke-width="4"/>
<path d="M802.309 813.878H810.096V815.372H804.084V818.905H809.832V820.399H804.084V825.506H810.263V827H802.309V813.878Z" fill="white"/>
<defs>
<clipPath id="clip0_16630_28425">
<rect width="16" height="16" fill="white" transform="translate(93 160)"/>
</clipPath>
<clipPath id="clip1_16630_28425">
<rect width="16" height="16" fill="white" transform="translate(93 192)"/>
</clipPath>
<clipPath id="clip2_16630_28425">
<rect width="16" height="16" fill="white" transform="translate(93 224)"/>
</clipPath>
<clipPath id="clip3_16630_28425">
<rect width="16" height="16" fill="white" transform="translate(93 256)"/>
</clipPath>
<clipPath id="clip4_16630_28425">
<rect width="16" height="16" fill="white" transform="translate(93 288)"/>
</clipPath>
<clipPath id="clip5_16630_28425">
<rect width="16" height="16" fill="white" transform="translate(93 320)"/>
</clipPath>
<clipPath id="clip6_16630_28425">
<rect width="16" height="16" fill="white" transform="translate(93 352)"/>
</clipPath>
<clipPath id="clip7_16630_28425">
<rect width="16" height="16" fill="white" transform="translate(464 337)"/>
</clipPath>
<clipPath id="clip8_16630_28425">
<rect width="16" height="16" fill="white" transform="translate(464 369)"/>
</clipPath>
<clipPath id="clip9_16630_28425">
<rect width="16" height="16" fill="white" transform="translate(464 401)"/>
</clipPath>
<clipPath id="clip10_16630_28425">
<rect width="16" height="16" fill="white" transform="translate(464 433)"/>
</clipPath>
<clipPath id="clip11_16630_28425">
<rect width="16" height="16" fill="white" transform="translate(464 465)"/>
</clipPath>
<clipPath id="clip12_16630_28425">
<rect width="16" height="16" fill="white" transform="translate(464 497)"/>
</clipPath>
<clipPath id="clip13_16630_28425">
<rect width="16" height="16" fill="white" transform="translate(464 529)"/>
</clipPath>
<clipPath id="clip14_16630_28425">
<rect width="16" height="16" fill="white" transform="translate(829 111)"/>
</clipPath>
<clipPath id="clip15_16630_28425">
<rect width="16" height="16" fill="white" transform="translate(495 981)"/>
</clipPath>
<clipPath id="clip16_16630_28425">
<rect width="16" height="16" fill="white" transform="translate(495 1013)"/>
</clipPath>
<clipPath id="clip17_16630_28425">
<rect width="16" height="16" fill="white" transform="translate(495 1045)"/>
</clipPath>
</defs>
</svg>
