<svg width="315" height="529" viewBox="0 0 315 529" fill="none" xmlns="http://www.w3.org/2000/svg">
<rect width="264" height="529" transform="translate(51)" fill="#FBFAFD"/>
<rect x="71" y="16" width="64" height="8" rx="2" fill="#DCDCDE"/>
<g style="mix-blend-mode:multiply">
<rect x="59" y="42" width="248" height="32" rx="4" fill="#DCDCDE"/>
<path fill-rule="evenodd" clip-rule="evenodd" d="M84.5 52.5H73.5V55H84.5V52.5ZM84.5 56.5H77.5V63.5H84.5V56.5ZM76 56.5H73.5V63.5H76V56.5ZM73.5 51H72V52.5V63.5V65H73.5H84.5H86V63.5V52.5V51H84.5H73.5Z" fill="#535158"/>
<path d="M63 47.5C63 46.6716 63.6716 46 64.5 46V46C65.3284 46 66 46.6716 66 47.5V68.5C66 69.3284 65.3284 70 64.5 70V70C63.6716 70 63 69.3284 63 68.5V47.5Z" fill="#1F75CB"/>
<rect x="100" y="54" width="89" height="8" rx="2" fill="#737278"/>
<g style="mix-blend-mode:multiply">
<rect x="260" y="50" width="35" height="16" rx="8" fill="#DCDCDE"/>
</g>
</g>
<path fill-rule="evenodd" clip-rule="evenodd" d="M84.5 84.5H73.5V87H84.5V84.5ZM84.5 88.5H77.5V95.5H84.5V88.5ZM76 88.5H73.5V95.5H76V88.5ZM73.5 83H72V84.5V95.5V97H73.5H84.5H86V95.5V84.5V83H84.5H73.5Z" fill="#737278"/>
<rect x="100" y="86" width="64" height="8" rx="2" fill="#A4A3A8"/>
<g style="mix-blend-mode:multiply">
<rect x="260" y="82" width="35" height="16" rx="8" fill="#DCDCDE"/>
</g>
<path fill-rule="evenodd" clip-rule="evenodd" d="M84.5 116.5H73.5V119H84.5V116.5ZM84.5 120.5H77.5V127.5H84.5V120.5ZM76 120.5H73.5V127.5H76V120.5ZM73.5 115H72V116.5V127.5V129H73.5H84.5H86V127.5V116.5V115H84.5H73.5Z" fill="#737278"/>
<rect x="100" y="118" width="127" height="8" rx="2" fill="#A4A3A8"/>
<g style="mix-blend-mode:multiply">
<rect x="260" y="114" width="35" height="16" rx="8" fill="#DCDCDE"/>
</g>
<path fill-rule="evenodd" clip-rule="evenodd" d="M84.5 148.5H73.5V151H84.5V148.5ZM84.5 152.5H77.5V159.5H84.5V152.5ZM76 152.5H73.5V159.5H76V152.5ZM73.5 147H72V148.5V159.5V161H73.5H84.5H86V159.5V148.5V147H84.5H73.5Z" fill="#737278"/>
<rect x="100" y="150" width="104" height="8" rx="2" fill="#A4A3A8"/>
<g style="mix-blend-mode:multiply">
<rect x="260" y="146" width="35" height="16" rx="8" fill="#DCDCDE"/>
</g>
<path fill-rule="evenodd" clip-rule="evenodd" d="M84.5 180.5H73.5V183H84.5V180.5ZM84.5 184.5H77.5V191.5H84.5V184.5ZM76 184.5H73.5V191.5H76V184.5ZM73.5 179H72V180.5V191.5V193H73.5H84.5H86V191.5V180.5V179H84.5H73.5Z" fill="#737278"/>
<rect x="100" y="182" width="104" height="8" rx="2" fill="#A4A3A8"/>
<g style="mix-blend-mode:multiply">
<rect x="260" y="178" width="35" height="16" rx="8" fill="#DCDCDE"/>
</g>
<rect x="71" y="210" width="224" height="1" fill="#ECECEF"/>
<rect x="69" y="229" width="65" height="8" rx="2" fill="#BFBFC3"/>
<g style="mix-blend-mode:multiply">
<rect x="71.5" y="255.5" width="15" height="15" rx="3.5" fill="white"/>
<rect x="71.5" y="255.5" width="15" height="15" rx="3.5" stroke="#89888D"/>
<rect x="100" y="259" width="65" height="8" rx="2" fill="#A4A3A8"/>
</g>
<g style="mix-blend-mode:multiply">
<rect x="71.5" y="287.5" width="15" height="15" rx="3.5" fill="white"/>
<rect x="71.5" y="287.5" width="15" height="15" rx="3.5" stroke="#89888D"/>
<rect x="100" y="291" width="51" height="8" rx="2" fill="#A4A3A8"/>
</g>
<rect x="69" y="325" width="65" height="8" rx="2" fill="#BFBFC3"/>
<g style="mix-blend-mode:multiply">
<rect x="71.5" y="351.5" width="15" height="15" rx="3.5" fill="white"/>
<rect x="71.5" y="351.5" width="15" height="15" rx="3.5" stroke="#89888D"/>
<rect x="100" y="355" width="65" height="8" rx="2" fill="#A4A3A8"/>
</g>
<g style="mix-blend-mode:multiply">
<rect x="71.5" y="383.5" width="15" height="15" rx="3.5" fill="white"/>
<rect x="71.5" y="383.5" width="15" height="15" rx="3.5" stroke="#89888D"/>
<rect x="100" y="387" width="51" height="8" rx="2" fill="#A4A3A8"/>
</g>
<rect x="69.5" y="415.5" width="57" height="23" rx="3.5" fill="#FBFAFD"/>
<rect x="69.5" y="415.5" width="57" height="23" rx="3.5" stroke="#DCDCDE"/>
<rect x="77" y="422.5" width="42" height="9" rx="2" fill="#D9D9D9"/>
<circle cx="16" cy="121" r="12" fill="#7B58CF"/>
<circle cx="16" cy="121" r="14" stroke="#7B58CF" stroke-opacity="0.3" stroke-width="4"/>
<path d="M14.5703 124.004H18.5898V125H13.2754V124.004C14.0059 123.234 14.6445 122.555 15.1914 121.965C15.7383 121.375 16.1152 120.959 16.3223 120.717C16.7129 120.24 16.9766 119.855 17.1133 119.562C17.25 119.266 17.3184 118.963 17.3184 118.654C17.3184 118.166 17.1738 117.783 16.8848 117.506C16.5996 117.229 16.207 117.09 15.707 117.09C15.3516 117.09 14.9785 117.154 14.5879 117.283C14.1973 117.412 13.7832 117.607 13.3457 117.869V116.674C13.748 116.482 14.1426 116.338 14.5293 116.24C14.9199 116.143 15.3047 116.094 15.6836 116.094C16.5391 116.094 17.2266 116.322 17.7461 116.779C18.2695 117.232 18.5312 117.828 18.5312 118.566C18.5312 118.941 18.4434 119.316 18.2676 119.691C18.0957 120.066 17.8145 120.48 17.4238 120.934C17.2051 121.188 16.8867 121.539 16.4688 121.988C16.0547 122.438 15.4219 123.109 14.5703 124.004Z" fill="white"/>
<line x1="34.75" y1="119.63" x2="44.25" y2="119.63" stroke="#7B58CF" stroke-width="1.5" stroke-linecap="round"/>
<path d="M51 42H45V201H51" stroke="#7B58CF" stroke-width="1.5" stroke-linecap="round" stroke-linejoin="round"/>
<circle cx="16" cy="332" r="12" fill="#7B58CF"/>
<circle cx="16" cy="332" r="14" stroke="#7B58CF" stroke-opacity="0.3" stroke-width="4"/>
<path d="M18.1914 327.445V328.535C17.9453 328.391 17.6836 328.281 17.4062 328.207C17.1289 328.129 16.8398 328.09 16.5391 328.09C15.7891 328.09 15.2207 328.373 14.834 328.939C14.4473 329.502 14.2539 330.332 14.2539 331.43C14.4414 331.039 14.7012 330.74 15.0332 330.533C15.3652 330.322 15.7461 330.217 16.1758 330.217C17.0195 330.217 17.6719 330.477 18.1328 330.996C18.5977 331.512 18.8301 332.244 18.8301 333.193C18.8301 334.139 18.5918 334.871 18.1152 335.391C17.6387 335.91 16.9688 336.17 16.1055 336.17C15.0898 336.17 14.3457 335.807 13.873 335.08C13.4004 334.35 13.1641 333.201 13.1641 331.635C13.1641 330.158 13.4473 329.033 14.0137 328.26C14.584 327.482 15.4082 327.094 16.4863 327.094C16.7754 327.094 17.0645 327.125 17.3535 327.188C17.6426 327.246 17.9219 327.332 18.1914 327.445ZM16.082 331.143C15.5781 331.143 15.1816 331.324 14.8926 331.688C14.6035 332.051 14.459 332.553 14.459 333.193C14.459 333.834 14.6035 334.336 14.8926 334.699C15.1816 335.062 15.5781 335.244 16.082 335.244C16.6055 335.244 17 335.072 17.2656 334.729C17.5312 334.381 17.6641 333.869 17.6641 333.193C17.6641 332.514 17.5312 332.002 17.2656 331.658C17 331.314 16.6055 331.143 16.082 331.143Z" fill="white"/>
<line x1="34.75" y1="330.25" x2="44.25" y2="330.25" stroke="#7B58CF" stroke-width="1.5" stroke-linecap="round"/>
<path d="M51 223H45V439H51" stroke="#7B58CF" stroke-width="1.5" stroke-linecap="round" stroke-linejoin="round"/>
<circle cx="56" cy="20" r="12" fill="#7B58CF"/>
<circle cx="56" cy="20" r="14" stroke="#7B58CF" stroke-opacity="0.3" stroke-width="4"/>
<path d="M53.9668 23.0098H55.8066V16.4004L53.6035 17.4609V16.3242L55.7949 15.2812H56.9785V23.0098H58.7949V24H53.9668V23.0098Z" fill="white"/>
</svg>
