<svg width="902" height="834" viewBox="0 0 902 834" fill="none" xmlns="http://www.w3.org/2000/svg">
<rect width="902" height="834" fill="white"/>
<rect width="870" height="801" transform="translate(16 16.5)" fill="white"/>
<circle cx="39" cy="797.5" r="16" fill="#7B58CF"/>
<circle cx="39" cy="797.5" r="18" stroke="#7B58CF" stroke-opacity="0.3" stroke-width="4"/>
<path d="M40.0371 791.995L35.8975 798.93H40.0371V791.995ZM39.7471 790.378H41.8037V798.93H43.5527V800.371H41.8037V803.5H40.0371V800.371H34.4736V798.692L39.7471 790.378Z" fill="white"/>
<line x1="1" y1="-1" x2="10" y2="-1" transform="matrix(1 4.53408e-09 -1.68562e-06 1 60 798.5)" stroke="#7B58CF" stroke-width="2" stroke-linecap="round"/>
<path d="M77 781.5H71V813.5H77" stroke="#7B58CF" stroke-width="2" stroke-linecap="round" stroke-linejoin="round"/>
<circle cx="39" cy="449.5" r="16" fill="#7B58CF"/>
<circle cx="39" cy="449.5" r="18" stroke="#7B58CF" stroke-opacity="0.3" stroke-width="4"/>
<path d="M40.3975 448.478C41.2588 448.706 41.918 449.113 42.375 449.699C42.832 450.279 43.0605 451.006 43.0605 451.879C43.0605 453.086 42.6533 454.035 41.8389 454.727C41.0303 455.412 39.9082 455.755 38.4727 455.755C37.8691 455.755 37.2539 455.699 36.627 455.588C36 455.477 35.3848 455.315 34.7812 455.104V453.338C35.3789 453.648 35.9678 453.88 36.5479 454.032C37.1279 454.185 37.7051 454.261 38.2793 454.261C39.252 454.261 39.999 454.041 40.5205 453.602C41.042 453.162 41.3027 452.529 41.3027 451.703C41.3027 450.941 41.042 450.338 40.5205 449.893C39.999 449.441 39.293 449.216 38.4023 449.216H37.0488V447.757H38.4023C39.2168 447.757 39.8525 447.578 40.3096 447.221C40.7666 446.863 40.9951 446.365 40.9951 445.727C40.9951 445.053 40.7812 444.537 40.3535 444.18C39.9316 443.816 39.3281 443.635 38.543 443.635C38.0215 443.635 37.4824 443.693 36.9258 443.811C36.3691 443.928 35.7861 444.104 35.1768 444.338V442.703C35.8857 442.516 36.5156 442.375 37.0664 442.281C37.623 442.188 38.1152 442.141 38.543 442.141C39.8203 442.141 40.8398 442.463 41.6016 443.107C42.3691 443.746 42.7529 444.596 42.7529 445.656C42.7529 446.377 42.5508 446.978 42.1465 447.458C41.748 447.938 41.165 448.278 40.3975 448.478Z" fill="white"/>
<line x1="61" y1="449.5" x2="70" y2="449.5" stroke="#7B58CF" stroke-width="2" stroke-linecap="round"/>
<path d="M77 141.5H71V758.5H77" stroke="#7B58CF" stroke-width="2" stroke-linecap="round" stroke-linejoin="round"/>
<line x1="1" y1="-1" x2="10" y2="-1" transform="matrix(1 4.53408e-09 -1.68562e-06 1 60 117.5)" stroke="#7B58CF" stroke-width="2" stroke-linecap="round"/>
<path d="M77 101.5H71V133.5H77" stroke="#7B58CF" stroke-width="2" stroke-linecap="round" stroke-linejoin="round"/>
<circle cx="36" cy="116.5" r="16" fill="#7B58CF"/>
<circle cx="36" cy="116.5" r="18" stroke="#7B58CF" stroke-opacity="0.3" stroke-width="4"/>
<path d="M33.8555 121.006H39.8848V122.5H31.9131V121.006C33.0088 119.852 33.9668 118.832 34.7871 117.947C35.6074 117.062 36.1729 116.438 36.4834 116.075C37.0693 115.36 37.4648 114.783 37.6699 114.344C37.875 113.898 37.9775 113.444 37.9775 112.981C37.9775 112.249 37.7607 111.675 37.3271 111.259C36.8994 110.843 36.3105 110.635 35.5605 110.635C35.0273 110.635 34.4678 110.731 33.8818 110.925C33.2959 111.118 32.6748 111.411 32.0186 111.804V110.011C32.6221 109.724 33.2139 109.507 33.7939 109.36C34.3799 109.214 34.957 109.141 35.5254 109.141C36.8086 109.141 37.8398 109.483 38.6191 110.169C39.4043 110.849 39.7969 111.742 39.7969 112.85C39.7969 113.412 39.665 113.975 39.4014 114.537C39.1436 115.1 38.7217 115.721 38.1357 116.4C37.8076 116.781 37.3301 117.309 36.7031 117.982C36.082 118.656 35.1328 119.664 33.8555 121.006Z" fill="white"/>
<line x1="1" y1="-1" x2="10" y2="-1" transform="matrix(1 4.53408e-09 -1.68562e-06 1 60 37.5)" stroke="#7B58CF" stroke-width="2" stroke-linecap="round"/>
<path d="M77 18.5H71V93.5H77" stroke="#7B58CF" stroke-width="2" stroke-linecap="round" stroke-linejoin="round"/>
<circle cx="36" cy="36.5" r="16" fill="#7B58CF"/>
<circle cx="36" cy="36.5" r="18" stroke="#7B58CF" stroke-opacity="0.3" stroke-width="4"/>
<path d="M32.9502 41.0146H35.71V31.1006L32.4053 32.6914V30.9863L35.6924 29.4219H37.4678V41.0146H40.1924V42.5H32.9502V41.0146Z" fill="white"/>
<rect width="256" height="800" transform="translate(86 16.5)" fill="#FBFAFD"/>
<rect width="256" height="80" transform="translate(86 16.5)" fill="#1F1E24" fill-opacity="0.04"/>
<path fill-rule="evenodd" clip-rule="evenodd" d="M287.5 35.5C287.5 37.9853 285.485 40 283 40C280.515 40 278.5 37.9853 278.5 35.5C278.5 33.0147 280.515 31 283 31C285.485 31 287.5 33.0147 287.5 35.5ZM286.679 40.2399C285.663 41.0297 284.387 41.5 283 41.5C279.686 41.5 277 38.8137 277 35.5C277 32.1863 279.686 29.5 283 29.5C286.314 29.5 289 32.1863 289 35.5C289 36.8865 288.53 38.1632 287.74 39.1792L290.78 42.2197C291.073 42.5126 291.073 42.9874 290.78 43.2803C290.487 43.5732 290.013 43.5732 289.72 43.2803L286.679 40.2399Z" fill="#737278"/>
<path fill-rule="evenodd" clip-rule="evenodd" d="M252.75 31.25C252.75 30.8358 252.414 30.5 252 30.5C251.586 30.5 251.25 30.8358 251.25 31.25V35.75H246.75C246.336 35.75 246 36.0858 246 36.5C246 36.9142 246.336 37.25 246.75 37.25H251.25V41.75C251.25 42.1642 251.586 42.5 252 42.5C252.414 42.5 252.75 42.1642 252.75 41.75V37.25H257.25C257.664 37.25 258 36.9142 258 36.5C258 36.0858 257.664 35.75 257.25 35.75H252.75V31.25Z" fill="#737278"/>
<path fill-rule="evenodd" clip-rule="evenodd" d="M218 31L225 31C225.276 31 225.5 31.2239 225.5 31.5V41.5C225.5 41.7761 225.276 42 225 42H218V31ZM216.5 31H215C214.724 31 214.5 31.2239 214.5 31.5V41.5C214.5 41.7761 214.724 42 215 42H216.5V31ZM213 31.5C213 30.3954 213.895 29.5 215 29.5L225 29.5C226.105 29.5 227 30.3954 227 31.5V41.5C227 42.6046 226.105 43.5 225 43.5H215C213.895 43.5 213 42.6046 213 41.5V31.5Z" fill="#737278"/>
<circle cx="318" cy="36.5" r="11.5" fill="#E9F3FC" stroke="#BFBFC3"/>
<g clip-path="url(#clip0_16629_27663)">
<path d="M122.007 33.7837L121.973 33.6952L118.581 24.9565C118.513 24.7849 118.391 24.6393 118.233 24.5409C118.115 24.4663 117.981 24.4201 117.842 24.4059C117.702 24.3917 117.562 24.4099 117.431 24.4591C117.3 24.5083 117.183 24.587 117.088 24.689C116.994 24.791 116.925 24.9135 116.887 25.0466L114.597 31.9696H105.325L103.036 25.0466C102.998 24.9137 102.929 24.7915 102.834 24.6896C102.74 24.5878 102.622 24.5092 102.492 24.4601C102.361 24.411 102.22 24.3927 102.081 24.4067C101.942 24.4207 101.808 24.4667 101.69 24.5409C101.532 24.6393 101.41 24.7849 101.341 24.9565L97.9511 33.6968L97.9159 33.7837C97.4277 35.0436 97.3676 36.4261 97.7445 37.7227C98.1214 39.0194 98.915 40.1598 100.005 40.9722L100.018 40.9816L100.047 41.0038L105.207 44.8232L107.767 46.7337L109.322 47.8952C109.505 48.0313 109.727 48.105 109.956 48.105C110.185 48.105 110.407 48.0313 110.589 47.8952L112.145 46.7337L114.705 44.8232L119.901 40.9816L119.916 40.9706C121.006 40.1586 121.8 39.0185 122.177 37.7222C122.554 36.4258 122.495 35.0436 122.007 33.7837V33.7837Z" fill="#E24329"/>
<path d="M122.007 33.7837L121.973 33.6952C120.321 34.0301 118.764 34.7219 117.413 35.7211L109.965 41.2835L114.708 44.8232L119.905 40.9817L119.919 40.9706C121.009 40.1582 121.802 39.0179 122.179 37.7216C122.555 36.4253 122.495 35.0432 122.007 33.7837V33.7837Z" fill="#FC6D26"/>
<path d="M105.207 44.8232L107.767 46.7337L109.322 47.8952C109.505 48.0313 109.727 48.1049 109.956 48.1049C110.185 48.1049 110.407 48.0313 110.589 47.8952L112.145 46.7337L114.705 44.8232L109.962 41.2834L105.207 44.8232Z" fill="#FCA326"/>
<path d="M102.509 35.7211C101.16 34.7224 99.6031 34.0312 97.9511 33.6968L97.9159 33.7837C97.4277 35.0436 97.3676 36.4261 97.7445 37.7228C98.1214 39.0194 98.915 40.1599 100.005 40.9722L100.018 40.9817L100.047 41.0038L105.207 44.8232L109.953 41.2835L102.509 35.7211Z" fill="#FC6D26"/>
</g>
<rect x="99" y="57.5" width="72" height="30" rx="2" fill="white" stroke="#BFBFC3" stroke-width="2"/>
<rect x="178" y="57.5" width="72" height="30" rx="2" fill="white" stroke="#BFBFC3" stroke-width="2"/>
<rect x="257" y="57.5" width="72" height="30" rx="2" fill="white" stroke="#BFBFC3" stroke-width="2"/>
<rect x="130" y="112.5" width="78" height="8" rx="2" fill="#737278"/>
<path fill-rule="evenodd" clip-rule="evenodd" d="M318.22 114.72C318.513 114.427 318.987 114.427 319.28 114.72L322 117.439L324.72 114.72C325.013 114.427 325.487 114.427 325.78 114.72C326.073 115.013 326.073 115.487 325.78 115.78L322.53 119.03C322.237 119.323 321.763 119.323 321.47 119.03L318.22 115.78C317.927 115.487 317.927 115.013 318.22 114.72Z" fill="#737278"/>
<rect x="98" y="104.5" width="24" height="24" rx="4" fill="#FDF1DD"/>
<rect x="98.5" y="105" width="23" height="23" rx="3.5" stroke="#1F1E24" stroke-opacity="0.08"/>
<path d="M86 97.5H342V95.5H86V97.5ZM342 135.5H86V137.5H342V135.5Z" fill="#ECECEF" mask="url(#path-32-inside-1_16629_27663)"/>
<g style="mix-blend-mode:multiply">
<g clip-path="url(#clip1_16629_27663)">
<path fill-rule="evenodd" clip-rule="evenodd" d="M116.5 797.5C116.5 801.09 113.59 804 110 804C106.41 804 103.5 801.09 103.5 797.5C103.5 793.91 106.41 791 110 791C113.59 791 116.5 793.91 116.5 797.5ZM118 797.5C118 801.918 114.418 805.5 110 805.5C105.582 805.5 102 801.918 102 797.5C102 793.082 105.582 789.5 110 789.5C114.418 789.5 118 793.082 118 797.5ZM106.927 794.489C106.642 794.919 106.5 795.343 106.5 795.761C106.5 795.963 106.59 796.152 106.77 796.326C106.949 796.5 107.17 796.587 107.431 796.587C107.874 796.587 108.175 796.338 108.334 795.84C108.502 795.365 108.707 795.005 108.95 794.76C109.193 794.516 109.571 794.394 110.084 794.394C110.523 794.394 110.881 794.515 111.159 794.757C111.436 794.999 111.575 795.296 111.575 795.649C111.575 795.829 111.53 795.996 111.439 796.151C111.348 796.305 111.236 796.445 111.103 796.57C110.97 796.696 110.754 796.882 110.455 797.128C110.114 797.41 109.844 797.653 109.643 797.858C109.442 798.063 109.281 798.301 109.16 798.571C108.838 799.816 110.51 799.916 110.896 799.027C110.943 798.941 111.014 798.847 111.109 798.743C111.205 798.64 111.332 798.52 111.491 798.383C112.065 797.899 112.463 797.554 112.685 797.349C112.906 797.145 113.097 796.901 113.258 796.62C113.419 796.338 113.5 796.01 113.5 795.635C113.5 795.16 113.359 794.72 113.077 794.314C112.794 793.909 112.394 793.589 111.876 793.353C111.358 793.118 110.761 793 110.084 793C109.356 793 108.719 793.141 108.173 793.423C107.627 793.705 107.212 794.06 106.927 794.489ZM109.068 801.57C109.068 802.122 109.515 802.57 110.068 802.57C110.62 802.57 111.068 802.122 111.068 801.57C111.068 801.017 110.62 800.57 110.068 800.57C109.515 800.57 109.068 801.017 109.068 801.57Z" fill="#737278"/>
</g>
<rect x="131" y="793.5" width="43" height="8" rx="2" fill="#A4A3A8"/>
</g>
<rect x="358.5" y="29" width="15" height="15" rx="3.5" fill="#E9F3FC" stroke="#BFBFC3"/>
<rect x="378" y="32.5" width="72" height="8" rx="2" fill="#89888D"/>
<path d="M458.377 31.2734H456.812L454 41.7266H455.564L458.377 31.2734Z" fill="#BFBFC3"/>
<rect x="462.877" y="29" width="15" height="15" rx="3.5" fill="#E9F3FC" stroke="#BFBFC3"/>
<rect x="482.377" y="32.5" width="72" height="8" rx="2" fill="#89888D"/>
<path d="M562.754 31.2734H561.189L558.377 41.7266H559.941L562.754 31.2734Z" fill="#BFBFC3"/>
<rect x="566.754" y="32.5" width="93" height="8" rx="2" fill="#535158"/>
<circle cx="511" cy="96" r="16" fill="#7B58CF"/>
<circle cx="511" cy="96" r="18" stroke="#7B58CF" stroke-opacity="0.3" stroke-width="4"/>
<path d="M507.396 88.8779H514.041V90.3721H509.014V93.5977C509.266 93.5039 509.518 93.4365 509.77 93.3955C510.027 93.3486 510.285 93.3252 510.543 93.3252C511.902 93.3252 512.98 93.7266 513.777 94.5293C514.574 95.332 514.973 96.4189 514.973 97.79C514.973 99.1729 514.554 100.263 513.716 101.06C512.884 101.856 511.744 102.255 510.297 102.255C509.6 102.255 508.961 102.208 508.381 102.114C507.807 102.021 507.291 101.88 506.834 101.692V99.8906C507.373 100.184 507.915 100.403 508.46 100.55C509.005 100.69 509.562 100.761 510.13 100.761C511.108 100.761 511.861 100.503 512.389 99.9873C512.922 99.4717 513.188 98.7393 513.188 97.79C513.188 96.8525 512.913 96.123 512.362 95.6016C511.817 95.0801 511.056 94.8193 510.077 94.8193C509.603 94.8193 509.14 94.875 508.688 94.9863C508.237 95.0918 507.807 95.2529 507.396 95.4697V88.8779Z" fill="white"/>
<line x1="510" y1="71.5" x2="510" y2="62.5" stroke="#7B58CF" stroke-width="2" stroke-linecap="round"/>
<path d="M361 55.5V61.5L660 61.5V55.5" stroke="#7B58CF" stroke-width="2" stroke-linecap="round" stroke-linejoin="round"/>
<defs>
<clipPath id="clip0_16629_27663">
<rect width="25" height="23.7037" fill="white" transform="translate(97.5 24.4012)"/>
</clipPath>
<clipPath id="clip1_16629_27663">
<rect width="16" height="16" fill="white" transform="translate(102 789.5)"/>
</clipPath>
</defs>
</svg>
