<svg width="902" height="834" viewBox="0 0 902 834" fill="none" xmlns="http://www.w3.org/2000/svg">
<rect width="902" height="834" fill="white"/>
<rect width="870" height="801" transform="translate(16 16.5)" fill="white"/>
<circle cx="39" cy="797.5" r="16" fill="#7B58CF"/>
<circle cx="39" cy="797.5" r="18" stroke="#7B58CF" stroke-opacity="0.3" stroke-width="4"/>
<path d="M40.3975 796.478C41.2588 796.706 41.918 797.113 42.375 797.699C42.832 798.279 43.0605 799.006 43.0605 799.879C43.0605 801.086 42.6533 802.035 41.8389 802.727C41.0303 803.412 39.9082 803.755 38.4727 803.755C37.8691 803.755 37.2539 803.699 36.627 803.588C36 803.477 35.3848 803.315 34.7812 803.104V801.338C35.3789 801.648 35.9678 801.88 36.5479 802.032C37.1279 802.185 37.7051 802.261 38.2793 802.261C39.252 802.261 39.999 802.041 40.5205 801.602C41.042 801.162 41.3027 800.529 41.3027 799.703C41.3027 798.941 41.042 798.338 40.5205 797.893C39.999 797.441 39.293 797.216 38.4023 797.216H37.0488V795.757H38.4023C39.2168 795.757 39.8525 795.578 40.3096 795.221C40.7666 794.863 40.9951 794.365 40.9951 793.727C40.9951 793.053 40.7812 792.537 40.3535 792.18C39.9316 791.816 39.3281 791.635 38.543 791.635C38.0215 791.635 37.4824 791.693 36.9258 791.811C36.3691 791.928 35.7861 792.104 35.1768 792.338V790.703C35.8857 790.516 36.5156 790.375 37.0664 790.281C37.623 790.188 38.1152 790.141 38.543 790.141C39.8203 790.141 40.8398 790.463 41.6016 791.107C42.3691 791.746 42.7529 792.596 42.7529 793.656C42.7529 794.377 42.5508 794.978 42.1465 795.458C41.748 795.938 41.165 796.278 40.3975 796.478Z" fill="white"/>
<line x1="1" y1="-1" x2="10" y2="-1" transform="matrix(1 4.53408e-09 -1.68562e-06 1 60 798.5)" stroke="#7B58CF" stroke-width="2" stroke-linecap="round"/>
<path d="M77 781.5H71V813.5H77" stroke="#7B58CF" stroke-width="2" stroke-linecap="round" stroke-linejoin="round"/>
<circle cx="39" cy="449.5" r="16" fill="#7B58CF"/>
<circle cx="39" cy="449.5" r="18" stroke="#7B58CF" stroke-opacity="0.3" stroke-width="4"/>
<path d="M36.8555 454.006H42.8848V455.5H34.9131V454.006C36.0088 452.852 36.9668 451.832 37.7871 450.947C38.6074 450.062 39.1729 449.438 39.4834 449.075C40.0693 448.36 40.4648 447.783 40.6699 447.344C40.875 446.898 40.9775 446.444 40.9775 445.981C40.9775 445.249 40.7607 444.675 40.3271 444.259C39.8994 443.843 39.3105 443.635 38.5605 443.635C38.0273 443.635 37.4678 443.731 36.8818 443.925C36.2959 444.118 35.6748 444.411 35.0186 444.804V443.011C35.6221 442.724 36.2139 442.507 36.7939 442.36C37.3799 442.214 37.957 442.141 38.5254 442.141C39.8086 442.141 40.8398 442.483 41.6191 443.169C42.4043 443.849 42.7969 444.742 42.7969 445.85C42.7969 446.412 42.665 446.975 42.4014 447.537C42.1436 448.1 41.7217 448.721 41.1357 449.4C40.8076 449.781 40.3301 450.309 39.7031 450.982C39.082 451.656 38.1328 452.664 36.8555 454.006Z" fill="white"/>
<line x1="61" y1="449.5" x2="70" y2="449.5" stroke="#7B58CF" stroke-width="2" stroke-linecap="round"/>
<path d="M77 141.5H71V758.5H77" stroke="#7B58CF" stroke-width="2" stroke-linecap="round" stroke-linejoin="round"/>
<line x1="1" y1="-1" x2="10" y2="-1" transform="matrix(1 7.1034e-09 -1.07593e-06 1 60 77)" stroke="#7B58CF" stroke-width="2" stroke-linecap="round"/>
<path d="M77 18.5H71V136H77" stroke="#7B58CF" stroke-width="2" stroke-linecap="round" stroke-linejoin="round"/>
<circle cx="36" cy="75.6333" r="16" fill="#7B58CF"/>
<circle cx="36" cy="75.6333" r="18" stroke="#7B58CF" stroke-opacity="0.3" stroke-width="4"/>
<path d="M32.9502 80.1479H35.71V70.2339L32.4053 71.8247V70.1196L35.6924 68.5552H37.4678V80.1479H40.1924V81.6333H32.9502V80.1479Z" fill="white"/>
<g clip-path="url(#clip0_16629_27663)">
<rect width="256" height="800" transform="translate(86 16.5)" fill="#FBFAFD"/>
<rect width="256" height="120" transform="translate(86 17)" fill="#1F1E24" fill-opacity="0.04"/>
<path fill-rule="evenodd" clip-rule="evenodd" d="M282.75 31.75C282.75 31.3358 282.414 31 282 31C281.586 31 281.25 31.3358 281.25 31.75V36.25H276.75C276.336 36.25 276 36.5858 276 37C276 37.4142 276.336 37.75 276.75 37.75H281.25V42.25C281.25 42.6642 281.586 43 282 43C282.414 43 282.75 42.6642 282.75 42.25V37.75H287.25C287.664 37.75 288 37.4142 288 37C288 36.5858 287.664 36.25 287.25 36.25H282.75V31.75Z" fill="#737278"/>
<path fill-rule="evenodd" clip-rule="evenodd" d="M248 31.5L255 31.5C255.276 31.5 255.5 31.7239 255.5 32V42C255.5 42.2761 255.276 42.5 255 42.5H248V31.5ZM246.5 31.5H245C244.724 31.5 244.5 31.7239 244.5 32V42C244.5 42.2761 244.724 42.5 245 42.5H246.5V31.5ZM243 32C243 30.8954 243.895 30 245 30L255 30C256.105 30 257 30.8954 257 32V42C257 43.1046 256.105 44 255 44H245C243.895 44 243 43.1046 243 42V32Z" fill="#737278"/>
<circle cx="318" cy="37" r="11.5" fill="#E9F3FC" stroke="#BFBFC3"/>
<g clip-path="url(#clip1_16629_27663)">
<path d="M122.007 34.2837L121.973 34.1952L118.581 25.4565C118.513 25.2849 118.391 25.1393 118.233 25.0409C118.115 24.9663 117.981 24.9201 117.842 24.9059C117.702 24.8917 117.562 24.9099 117.431 24.9591C117.3 25.0083 117.183 25.087 117.088 25.189C116.994 25.291 116.925 25.4135 116.887 25.5466L114.597 32.4696H105.325L103.036 25.5466C102.998 25.4137 102.929 25.2915 102.834 25.1896C102.74 25.0878 102.622 25.0092 102.492 24.9601C102.361 24.911 102.22 24.8927 102.081 24.9067C101.942 24.9207 101.808 24.9667 101.69 25.0409C101.532 25.1393 101.41 25.2849 101.341 25.4565L97.9511 34.1968L97.9159 34.2837C97.4277 35.5436 97.3676 36.9261 97.7445 38.2227C98.1214 39.5194 98.915 40.6598 100.005 41.4722L100.018 41.4816L100.047 41.5038L105.207 45.3232L107.767 47.2337L109.322 48.3952C109.505 48.5313 109.727 48.605 109.956 48.605C110.185 48.605 110.407 48.5313 110.589 48.3952L112.145 47.2337L114.705 45.3232L119.901 41.4816L119.916 41.4706C121.006 40.6586 121.8 39.5185 122.177 38.2222C122.554 36.9258 122.495 35.5436 122.007 34.2837V34.2837Z" fill="#E24329"/>
<path d="M122.007 34.2837L121.973 34.1952C120.321 34.5301 118.764 35.2219 117.413 36.2211L109.965 41.7835L114.708 45.3232L119.905 41.4817L119.919 41.4706C121.009 40.6582 121.802 39.5179 122.179 38.2216C122.555 36.9253 122.495 35.5432 122.007 34.2837V34.2837Z" fill="#FC6D26"/>
<path d="M105.207 45.3232L107.767 47.2337L109.322 48.3952C109.505 48.5313 109.727 48.6049 109.956 48.6049C110.185 48.6049 110.407 48.5313 110.589 48.3952L112.145 47.2337L114.705 45.3232L109.962 41.7834L105.207 45.3232Z" fill="#FCA326"/>
<path d="M102.509 36.2211C101.16 35.2224 99.6031 34.5312 97.9511 34.1968L97.9159 34.2837C97.4277 35.5436 97.3676 36.9261 97.7445 38.2228C98.1214 39.5194 98.915 40.6599 100.005 41.4722L100.018 41.4817L100.047 41.5038L105.207 45.3232L109.953 41.7835L102.509 36.2211Z" fill="#FC6D26"/>
</g>
<rect x="99" y="98" width="230" height="30" rx="2" fill="white" stroke="#BFBFC3" stroke-width="2"/>
<path fill-rule="evenodd" clip-rule="evenodd" d="M117.5 112C117.5 114.485 115.485 116.5 113 116.5C110.515 116.5 108.5 114.485 108.5 112C108.5 109.515 110.515 107.5 113 107.5C115.485 107.5 117.5 109.515 117.5 112ZM116.679 116.74C115.663 117.53 114.387 118 113 118C109.686 118 107 115.314 107 112C107 108.686 109.686 106 113 106C116.314 106 119 108.686 119 112C119 113.387 118.53 114.663 117.74 115.679L120.78 118.72C121.073 119.013 121.073 119.487 120.78 119.78C120.487 120.073 120.013 120.073 119.72 119.78L116.679 116.74Z" fill="#737278"/>
<rect x="99" y="58" width="72" height="30" rx="2" fill="white" stroke="#BFBFC3" stroke-width="2"/>
<rect x="178" y="58" width="72" height="30" rx="2" fill="white" stroke="#BFBFC3" stroke-width="2"/>
<rect x="257" y="58" width="72" height="30" rx="2" fill="white" stroke="#BFBFC3" stroke-width="2"/>
<g style="mix-blend-mode:multiply">
<g clip-path="url(#clip2_16629_27663)">
<path fill-rule="evenodd" clip-rule="evenodd" d="M116.5 797.5C116.5 801.09 113.59 804 110 804C106.41 804 103.5 801.09 103.5 797.5C103.5 793.91 106.41 791 110 791C113.59 791 116.5 793.91 116.5 797.5ZM118 797.5C118 801.918 114.418 805.5 110 805.5C105.582 805.5 102 801.918 102 797.5C102 793.082 105.582 789.5 110 789.5C114.418 789.5 118 793.082 118 797.5ZM106.927 794.489C106.642 794.919 106.5 795.343 106.5 795.761C106.5 795.963 106.59 796.152 106.77 796.326C106.949 796.5 107.17 796.587 107.431 796.587C107.874 796.587 108.175 796.338 108.334 795.84C108.502 795.365 108.707 795.005 108.95 794.76C109.193 794.516 109.571 794.394 110.084 794.394C110.523 794.394 110.881 794.515 111.159 794.757C111.436 794.999 111.575 795.296 111.575 795.649C111.575 795.829 111.53 795.996 111.439 796.151C111.348 796.305 111.236 796.445 111.103 796.57C110.97 796.696 110.754 796.882 110.455 797.128C110.114 797.41 109.844 797.653 109.643 797.858C109.442 798.063 109.281 798.301 109.16 798.571C108.838 799.816 110.51 799.916 110.896 799.027C110.943 798.941 111.014 798.847 111.109 798.743C111.205 798.64 111.332 798.52 111.491 798.383C112.065 797.899 112.463 797.554 112.685 797.349C112.906 797.145 113.097 796.901 113.258 796.62C113.419 796.338 113.5 796.01 113.5 795.635C113.5 795.16 113.359 794.72 113.077 794.314C112.794 793.909 112.394 793.589 111.876 793.353C111.358 793.118 110.761 793 110.084 793C109.356 793 108.719 793.141 108.173 793.423C107.627 793.705 107.212 794.06 106.927 794.489ZM109.068 801.57C109.068 802.122 109.515 802.57 110.068 802.57C110.62 802.57 111.068 802.122 111.068 801.57C111.068 801.017 110.62 800.57 110.068 800.57C109.515 800.57 109.068 801.017 109.068 801.57Z" fill="#737278"/>
</g>
<rect x="131" y="793.5" width="43" height="8" rx="2" fill="#A4A3A8"/>
</g>
<rect x="358.5" y="29" width="15" height="15" rx="3.5" fill="#E9F3FC" stroke="#BFBFC3"/>
<rect x="378" y="32.5" width="72" height="8" rx="2" fill="#89888D"/>
<path d="M458.377 31.2734H456.812L454 41.7266H455.564L458.377 31.2734Z" fill="#BFBFC3"/>
<rect x="462.877" y="29" width="15" height="15" rx="3.5" fill="#E9F3FC" stroke="#BFBFC3"/>
<rect x="482.377" y="32.5" width="72" height="8" rx="2" fill="#89888D"/>
<path d="M562.754 31.2734H561.189L558.377 41.7266H559.941L562.754 31.2734Z" fill="#BFBFC3"/>
<rect x="566.754" y="32.5" width="93" height="8" rx="2" fill="#535158"/>
</g>
<rect x="85.5" y="16" width="801" height="801" rx="4.5" stroke="#737278"/>
<circle cx="511" cy="96" r="16" fill="#7B58CF"/>
<circle cx="511" cy="96" r="18" stroke="#7B58CF" stroke-opacity="0.3" stroke-width="4"/>
<path d="M512.037 90.4951L507.897 97.4297H512.037V90.4951ZM511.747 88.8779H513.804V97.4297H515.553V98.8711H513.804V102H512.037V98.8711H506.474V97.1924L511.747 88.8779Z" fill="white"/>
<line x1="510" y1="71.5" x2="510" y2="62.5" stroke="#7B58CF" stroke-width="2" stroke-linecap="round"/>
<path d="M361 55.5V61.5L660 61.5V55.5" stroke="#7B58CF" stroke-width="2" stroke-linecap="round" stroke-linejoin="round"/>
<defs>
<clipPath id="clip0_16629_27663">
<rect x="86" y="16.5" width="800" height="800" rx="4" fill="white"/>
</clipPath>
<clipPath id="clip1_16629_27663">
<rect width="25" height="23.7037" fill="white" transform="translate(97.5 24.9012)"/>
</clipPath>
<clipPath id="clip2_16629_27663">
<rect width="16" height="16" fill="white" transform="translate(102 789.5)"/>
</clipPath>
</defs>
</svg>
