<svg width="358" height="833" viewBox="0 0 358 833" fill="none" xmlns="http://www.w3.org/2000/svg">
<rect width="358" height="833" fill="white"/>
<rect width="326" height="801" transform="translate(16 16)" fill="white"/>
<circle cx="39" cy="797" r="16" fill="#7B58CF"/>
<circle cx="39" cy="797" r="18" stroke="#7B58CF" stroke-opacity="0.3" stroke-width="4"/>
<path d="M40.0371 791.495L35.8975 798.43H40.0371V791.495ZM39.7471 789.878H41.8037V798.43H43.5527V799.871H41.8037V803H40.0371V799.871H34.4736V798.192L39.7471 789.878Z" fill="white"/>
<line x1="1" y1="-1" x2="10" y2="-1" transform="matrix(1 4.53408e-09 -1.68562e-06 1 60 798)" stroke="#7B58CF" stroke-width="2" stroke-linecap="round"/>
<path d="M77 781H71V813H77" stroke="#7B58CF" stroke-width="2" stroke-linecap="round" stroke-linejoin="round"/>
<circle cx="39" cy="449" r="16" fill="#7B58CF"/>
<circle cx="39" cy="449" r="18" stroke="#7B58CF" stroke-opacity="0.3" stroke-width="4"/>
<path d="M40.3975 447.978C41.2588 448.206 41.918 448.613 42.375 449.199C42.832 449.779 43.0605 450.506 43.0605 451.379C43.0605 452.586 42.6533 453.535 41.8389 454.227C41.0303 454.912 39.9082 455.255 38.4727 455.255C37.8691 455.255 37.2539 455.199 36.627 455.088C36 454.977 35.3848 454.815 34.7812 454.604V452.838C35.3789 453.148 35.9678 453.38 36.5479 453.532C37.1279 453.685 37.7051 453.761 38.2793 453.761C39.252 453.761 39.999 453.541 40.5205 453.102C41.042 452.662 41.3027 452.029 41.3027 451.203C41.3027 450.441 41.042 449.838 40.5205 449.393C39.999 448.941 39.293 448.716 38.4023 448.716H37.0488V447.257H38.4023C39.2168 447.257 39.8525 447.078 40.3096 446.721C40.7666 446.363 40.9951 445.865 40.9951 445.227C40.9951 444.553 40.7812 444.037 40.3535 443.68C39.9316 443.316 39.3281 443.135 38.543 443.135C38.0215 443.135 37.4824 443.193 36.9258 443.311C36.3691 443.428 35.7861 443.604 35.1768 443.838V442.203C35.8857 442.016 36.5156 441.875 37.0664 441.781C37.623 441.688 38.1152 441.641 38.543 441.641C39.8203 441.641 40.8398 441.963 41.6016 442.607C42.3691 443.246 42.7529 444.096 42.7529 445.156C42.7529 445.877 42.5508 446.478 42.1465 446.958C41.748 447.438 41.165 447.778 40.3975 447.978Z" fill="white"/>
<line x1="61" y1="449" x2="70" y2="449" stroke="#7B58CF" stroke-width="2" stroke-linecap="round"/>
<path d="M77 141H71V758H77" stroke="#7B58CF" stroke-width="2" stroke-linecap="round" stroke-linejoin="round"/>
<line x1="1" y1="-1" x2="10" y2="-1" transform="matrix(1 4.53408e-09 -1.68562e-06 1 60 117)" stroke="#7B58CF" stroke-width="2" stroke-linecap="round"/>
<path d="M77 101H71V133H77" stroke="#7B58CF" stroke-width="2" stroke-linecap="round" stroke-linejoin="round"/>
<circle cx="36" cy="116" r="16" fill="#7B58CF"/>
<circle cx="36" cy="116" r="18" stroke="#7B58CF" stroke-opacity="0.3" stroke-width="4"/>
<path d="M33.8555 120.506H39.8848V122H31.9131V120.506C33.0088 119.352 33.9668 118.332 34.7871 117.447C35.6074 116.562 36.1729 115.938 36.4834 115.575C37.0693 114.86 37.4648 114.283 37.6699 113.844C37.875 113.398 37.9775 112.944 37.9775 112.481C37.9775 111.749 37.7607 111.175 37.3271 110.759C36.8994 110.343 36.3105 110.135 35.5605 110.135C35.0273 110.135 34.4678 110.231 33.8818 110.425C33.2959 110.618 32.6748 110.911 32.0186 111.304V109.511C32.6221 109.224 33.2139 109.007 33.7939 108.86C34.3799 108.714 34.957 108.641 35.5254 108.641C36.8086 108.641 37.8398 108.983 38.6191 109.669C39.4043 110.349 39.7969 111.242 39.7969 112.35C39.7969 112.912 39.665 113.475 39.4014 114.037C39.1436 114.6 38.7217 115.221 38.1357 115.9C37.8076 116.281 37.3301 116.809 36.7031 117.482C36.082 118.156 35.1328 119.164 33.8555 120.506Z" fill="white"/>
<line x1="1" y1="-1" x2="10" y2="-1" transform="matrix(1 4.53408e-09 -1.68562e-06 1 60 37)" stroke="#7B58CF" stroke-width="2" stroke-linecap="round"/>
<path d="M77 18H71V93H77" stroke="#7B58CF" stroke-width="2" stroke-linecap="round" stroke-linejoin="round"/>
<circle cx="36" cy="36" r="16" fill="#7B58CF"/>
<circle cx="36" cy="36" r="18" stroke="#7B58CF" stroke-opacity="0.3" stroke-width="4"/>
<path d="M32.9502 40.5146H35.71V30.6006L32.4053 32.1914V30.4863L35.6924 28.9219H37.4678V40.5146H40.1924V42H32.9502V40.5146Z" fill="white"/>
<rect width="256" height="800" transform="translate(86 16)" fill="#FBFAFD"/>
<rect width="256" height="80" transform="translate(86 16)" fill="#1F1E24" fill-opacity="0.04"/>
<path fill-rule="evenodd" clip-rule="evenodd" d="M287.5 35C287.5 37.4853 285.485 39.5 283 39.5C280.515 39.5 278.5 37.4853 278.5 35C278.5 32.5147 280.515 30.5 283 30.5C285.485 30.5 287.5 32.5147 287.5 35ZM286.679 39.7399C285.663 40.5297 284.387 41 283 41C279.686 41 277 38.3137 277 35C277 31.6863 279.686 29 283 29C286.314 29 289 31.6863 289 35C289 36.3865 288.53 37.6632 287.74 38.6792L290.78 41.7197C291.073 42.0126 291.073 42.4874 290.78 42.7803C290.487 43.0732 290.013 43.0732 289.72 42.7803L286.679 39.7399Z" fill="#737278"/>
<path fill-rule="evenodd" clip-rule="evenodd" d="M252.75 30.75C252.75 30.3358 252.414 30 252 30C251.586 30 251.25 30.3358 251.25 30.75V35.25H246.75C246.336 35.25 246 35.5858 246 36C246 36.4142 246.336 36.75 246.75 36.75H251.25V41.25C251.25 41.6642 251.586 42 252 42C252.414 42 252.75 41.6642 252.75 41.25V36.75H257.25C257.664 36.75 258 36.4142 258 36C258 35.5858 257.664 35.25 257.25 35.25L252.75 35.25V30.75Z" fill="#737278"/>
<path fill-rule="evenodd" clip-rule="evenodd" d="M218 30.5L225 30.5C225.276 30.5 225.5 30.7239 225.5 31V41C225.5 41.2761 225.276 41.5 225 41.5H218V30.5ZM216.5 30.5H215C214.724 30.5 214.5 30.7239 214.5 31V41C214.5 41.2761 214.724 41.5 215 41.5H216.5V30.5ZM213 31C213 29.8954 213.895 29 215 29L225 29C226.105 29 227 29.8954 227 31V41C227 42.1046 226.105 43 225 43H215C213.895 43 213 42.1046 213 41V31Z" fill="#737278"/>
<circle cx="318" cy="36" r="11.5" fill="#E9F3FC" stroke="#BFBFC3"/>
<g clip-path="url(#clip0_16629_27663)">
<path d="M122.007 33.2837L121.973 33.1952L118.581 24.4565C118.513 24.2849 118.391 24.1393 118.233 24.0409C118.115 23.9663 117.981 23.9201 117.842 23.9059C117.702 23.8917 117.562 23.9099 117.431 23.9591C117.3 24.0082 117.183 24.087 117.088 24.189C116.994 24.291 116.925 24.4135 116.887 24.5465L114.597 31.4696H105.325L103.036 24.5465C102.998 24.4137 102.929 24.2915 102.834 24.1896C102.74 24.0878 102.622 24.0092 102.492 23.9601C102.361 23.911 102.22 23.8927 102.081 23.9067C101.942 23.9207 101.808 23.9667 101.69 24.0409C101.532 24.1393 101.41 24.2849 101.341 24.4565L97.9511 33.1967L97.9159 33.2837C97.4277 34.5436 97.3676 35.9261 97.7445 37.2227C98.1214 38.5194 98.915 39.6598 100.005 40.4721L100.018 40.4816L100.047 40.5038L105.207 44.3232L107.767 46.2337L109.322 47.3952C109.505 47.5313 109.727 47.6049 109.956 47.6049C110.185 47.6049 110.407 47.5313 110.589 47.3952L112.145 46.2337L114.705 44.3232L119.901 40.4816L119.916 40.4706C121.006 39.6586 121.8 38.5185 122.177 37.2222C122.554 35.9258 122.495 34.5436 122.007 33.2837V33.2837Z" fill="#E24329"/>
<path d="M122.007 33.2837L121.974 33.1952C120.321 33.5301 118.764 34.2219 117.414 35.221L109.966 40.7834L114.708 44.3232L119.905 40.4816L119.919 40.4706C121.009 39.6581 121.802 38.5178 122.179 37.2216C122.555 35.9253 122.495 34.5432 122.007 33.2837V33.2837Z" fill="#FC6D26"/>
<path d="M105.207 44.3232L107.767 46.2337L109.322 47.3952C109.505 47.5313 109.727 47.6049 109.956 47.6049C110.185 47.6049 110.407 47.5313 110.589 47.3952L112.145 46.2337L114.705 44.3232L109.962 40.7834L105.207 44.3232Z" fill="#FCA326"/>
<path d="M102.509 35.221C101.16 34.2224 99.6031 33.5311 97.9511 33.1967L97.9159 33.2837C97.4277 34.5436 97.3676 35.9261 97.7445 37.2227C98.1214 38.5194 98.915 39.6598 100.005 40.4721L100.018 40.4816L100.047 40.5037L105.207 44.3232L109.953 40.7834L102.509 35.221Z" fill="#FC6D26"/>
</g>
<rect x="99" y="57" width="72" height="30" rx="2" fill="white" stroke="#BFBFC3" stroke-width="2"/>
<rect x="178" y="57" width="72" height="30" rx="2" fill="white" stroke="#BFBFC3" stroke-width="2"/>
<rect x="257" y="57" width="72" height="30" rx="2" fill="white" stroke="#BFBFC3" stroke-width="2"/>
<rect x="130" y="112" width="78" height="8" rx="2" fill="#737278"/>
<path fill-rule="evenodd" clip-rule="evenodd" d="M318.22 114.22C318.513 113.927 318.987 113.927 319.28 114.22L322 116.939L324.72 114.22C325.013 113.927 325.487 113.927 325.78 114.22C326.073 114.513 326.073 114.987 325.78 115.28L322.53 118.53C322.237 118.823 321.763 118.823 321.47 118.53L318.22 115.28C317.927 114.987 317.927 114.513 318.22 114.22Z" fill="#737278"/>
<rect x="98" y="104" width="24" height="24" rx="4" fill="#FDF1DD"/>
<rect x="98.5" y="104.5" width="23" height="23" rx="3.5" stroke="#1F1E24" stroke-opacity="0.08"/>
<path d="M86 97H342V95H86V97ZM342 135H86V137H342V135Z" fill="#ECECEF" mask="url(#path-32-inside-1_16629_27663)"/>
<g style="mix-blend-mode:multiply">
<g clip-path="url(#clip1_16629_27663)">
<path fill-rule="evenodd" clip-rule="evenodd" d="M116.5 797C116.5 800.59 113.59 803.5 110 803.5C106.41 803.5 103.5 800.59 103.5 797C103.5 793.41 106.41 790.5 110 790.5C113.59 790.5 116.5 793.41 116.5 797ZM118 797C118 801.418 114.418 805 110 805C105.582 805 102 801.418 102 797C102 792.582 105.582 789 110 789C114.418 789 118 792.582 118 797ZM106.927 793.989C106.642 794.419 106.5 794.843 106.5 795.261C106.5 795.463 106.59 795.652 106.77 795.826C106.949 796 107.17 796.087 107.431 796.087C107.874 796.087 108.175 795.838 108.334 795.34C108.502 794.865 108.707 794.505 108.95 794.26C109.193 794.016 109.571 793.894 110.084 793.894C110.523 793.894 110.881 794.015 111.159 794.257C111.436 794.499 111.575 794.796 111.575 795.149C111.575 795.329 111.53 795.496 111.439 795.651C111.348 795.805 111.236 795.945 111.103 796.07C110.97 796.196 110.754 796.382 110.455 796.628C110.114 796.91 109.844 797.153 109.643 797.358C109.442 797.563 109.281 797.801 109.16 798.071C108.838 799.316 110.51 799.416 110.896 798.527C110.943 798.441 111.014 798.347 111.109 798.243C111.205 798.14 111.332 798.02 111.491 797.883C112.065 797.399 112.463 797.054 112.685 796.849C112.906 796.645 113.097 796.401 113.258 796.12C113.419 795.838 113.5 795.51 113.5 795.135C113.5 794.66 113.359 794.22 113.077 793.814C112.794 793.409 112.394 793.089 111.876 792.853C111.358 792.618 110.761 792.5 110.084 792.5C109.356 792.5 108.719 792.641 108.173 792.923C107.627 793.205 107.212 793.56 106.927 793.989ZM109.068 801.07C109.068 801.622 109.515 802.07 110.068 802.07C110.62 802.07 111.068 801.622 111.068 801.07C111.068 800.517 110.62 800.07 110.068 800.07C109.515 800.07 109.068 800.517 109.068 801.07Z" fill="#737278"/>
</g>
<rect x="131" y="793" width="43" height="8" rx="2" fill="#A4A3A8"/>
</g>
<defs>
<clipPath id="clip0_16629_27663">
<rect width="25" height="23.7037" fill="white" transform="translate(97.5 23.9012)"/>
</clipPath>
<clipPath id="clip1_16629_27663">
<rect width="16" height="16" fill="white" transform="translate(102 789)"/>
</clipPath>
</defs>
</svg>
