<svg width="276" height="136" viewBox="0 0 276 136" fill="none" xmlns="http://www.w3.org/2000/svg">
<rect width="256" height="120" transform="translate(20 16)" fill="#FBFAFD"/>
<rect width="256" height="120" transform="translate(20 16)" fill="#1F1E24" fill-opacity="0.04"/>
<g clip-path="url(#clip0_26764_28292)">
<path d="M56.0071 33.2837L55.9735 33.1952L52.5815 24.4565C52.5128 24.2849 52.3907 24.1393 52.2327 24.0409C52.1148 23.9663 51.9809 23.9201 51.8417 23.9059C51.7024 23.8917 51.5618 23.9099 51.431 23.9591C51.3002 24.0083 51.1828 24.087 51.0884 24.189C50.9939 24.291 50.925 24.4135 50.8871 24.5466L48.5975 31.4696H39.3255L37.0359 24.5466C36.9977 24.4137 36.9286 24.2915 36.8341 24.1896C36.7396 24.0878 36.6223 24.0092 36.4916 23.9601C36.3609 23.911 36.2204 23.8927 36.0812 23.9067C35.9421 23.9207 35.8082 23.9667 35.6903 24.0409C35.5323 24.1393 35.4101 24.2849 35.3415 24.4565L31.9511 33.1968L31.9159 33.2837C31.4277 34.5436 31.3676 35.9261 31.7445 37.2227C32.1214 38.5194 32.915 39.6598 34.0055 40.4722L34.0183 40.4816L34.0471 40.5038L39.2071 44.3232L41.7671 46.2337L43.3223 47.3952C43.5048 47.5313 43.7272 47.605 43.9559 47.605C44.1846 47.605 44.407 47.5313 44.5895 47.3952L46.1447 46.2337L48.7047 44.3232L53.9015 40.4816L53.9159 40.4706C55.0063 39.6586 55.8 38.5185 56.1771 37.2222C56.5543 35.9258 56.4947 34.5436 56.0071 33.2837V33.2837Z" fill="#E24329"/>
<path d="M56.0071 33.2837L55.9735 33.1952C54.3208 33.5301 52.7636 34.2219 51.4135 35.2211L43.9655 40.7835L48.7079 44.3232L53.9047 40.4817L53.9191 40.4706C55.0089 39.6582 55.8019 38.5179 56.1785 37.2216C56.5552 35.9253 56.495 34.5432 56.0071 33.2837V33.2837Z" fill="#FC6D26"/>
<path d="M39.2071 44.3232L41.7671 46.2337L43.3223 47.3952C43.5048 47.5313 43.7272 47.6049 43.9559 47.6049C44.1846 47.6049 44.407 47.5313 44.5895 47.3952L46.1447 46.2337L48.7047 44.3232L43.9623 40.7834L39.2071 44.3232Z" fill="#FCA326"/>
<path d="M36.5095 35.2211C35.1598 34.2224 33.6031 33.5312 31.9511 33.1968L31.9159 33.2837C31.4277 34.5436 31.3676 35.9261 31.7445 37.2228C32.1214 38.5194 32.915 39.6599 34.0055 40.4722L34.0183 40.4817L34.0471 40.5038L39.2071 44.3232L43.9527 40.7835L36.5095 35.2211Z" fill="#FC6D26"/>
</g>
<rect x="59" y="28" width="46" height="16" rx="8" fill="#C3E6CD"/>
<rect x="67" y="33.5" width="30" height="5" rx="2" fill="#108548"/>
<circle cx="81" cy="16" r="12" fill="#7B58CF"/>
<circle cx="81" cy="16" r="14" stroke="#7B58CF" stroke-opacity="0.3" stroke-width="4"/>
<path d="M79.5703 19.0039H83.5898V20H78.2754V19.0039C79.0059 18.2344 79.6445 17.5547 80.1914 16.9648C80.7383 16.375 81.1152 15.959 81.3223 15.7168C81.7129 15.2402 81.9766 14.8555 82.1133 14.5625C82.25 14.2656 82.3184 13.9629 82.3184 13.6543C82.3184 13.166 82.1738 12.7832 81.8848 12.5059C81.5996 12.2285 81.207 12.0898 80.707 12.0898C80.3516 12.0898 79.9785 12.1543 79.5879 12.2832C79.1973 12.4121 78.7832 12.6074 78.3457 12.8691V11.6738C78.748 11.4824 79.1426 11.3379 79.5293 11.2402C79.9199 11.1426 80.3047 11.0938 80.6836 11.0938C81.5391 11.0938 82.2266 11.3223 82.7461 11.7793C83.2695 12.2324 83.5312 12.8281 83.5312 13.5664C83.5312 13.9414 83.4434 14.3164 83.2676 14.6914C83.0957 15.0664 82.8145 15.4805 82.4238 15.9336C82.2051 16.1875 81.8867 16.5391 81.4688 16.9883C81.0547 17.4375 80.4219 18.1094 79.5703 19.0039Z" fill="white"/>
<rect x="33" y="97" width="230" height="30" rx="2" fill="white" stroke="#BFBFC3" stroke-width="2"/>
<rect x="102" y="108" width="109" height="8" rx="2" fill="#BFBFC3"/>
<path fill-rule="evenodd" clip-rule="evenodd" d="M93.5 111C93.5 113.485 91.4853 115.5 89 115.5C86.5147 115.5 84.5 113.485 84.5 111C84.5 108.515 86.5147 106.5 89 106.5C91.4853 106.5 93.5 108.515 93.5 111ZM92.6792 115.74C91.6632 116.53 90.3865 117 89 117C85.6863 117 83 114.314 83 111C83 107.686 85.6863 105 89 105C92.3137 105 95 107.686 95 111C95 112.387 94.5297 113.663 93.7399 114.679L96.7803 117.72C97.0732 118.013 97.0732 118.487 96.7803 118.78C96.4874 119.073 96.0126 119.073 95.7197 118.78L92.6792 115.74Z" fill="#737278"/>
<rect x="33" y="57" width="72" height="30" rx="2" fill="white" stroke="#BFBFC3" stroke-width="2"/>
<rect x="54" y="68" width="26" height="8" rx="2" fill="#BFBFC3"/>
<rect x="112" y="57" width="72" height="30" rx="2" fill="white" stroke="#BFBFC3" stroke-width="2"/>
<rect x="135" y="68" width="26" height="8" rx="2" fill="#BFBFC3"/>
<rect x="191" y="57" width="72" height="30" rx="2" fill="white" stroke="#BFBFC3" stroke-width="2"/>
<rect x="214" y="68" width="26" height="8" rx="2" fill="#BFBFC3"/>
<path fill-rule="evenodd" clip-rule="evenodd" d="M249.248 30.0421C248.879 29.9131 248.473 30.0886 248.315 30.4454L246.513 34.5H244.75C244.336 34.5 244 34.8358 244 35.25C244 35.6642 244.336 36 244.75 36L246.983 36C246.994 36.0003 247.005 36.0003 247.016 36H256.984C256.995 36.0003 257.006 36.0003 257.017 36H259.25C259.664 36 260 35.6642 260 35.25C260 34.8358 259.664 34.5 259.25 34.5H257.487L255.685 30.4454C255.527 30.0886 255.121 29.9131 254.752 30.0421L252 31.0054L249.248 30.0421ZM255.846 34.5L254.595 31.6863L252.248 32.5079C252.087 32.5641 251.913 32.5641 251.752 32.5079L249.405 31.6863L248.154 34.5H255.846ZM249.5 40.5C250.052 40.5 250.5 40.0523 250.5 39.5C250.5 38.9477 250.052 38.5 249.5 38.5C248.948 38.5 248.5 38.9477 248.5 39.5C248.5 40.0523 248.948 40.5 249.5 40.5ZM249.5 42C250.881 42 252 40.8807 252 39.5C252 40.8807 253.119 42 254.5 42C255.881 42 257 40.8807 257 39.5H257.25C257.664 39.5 258 39.1642 258 38.75C258 38.3358 257.664 38 257.25 38H256.5C256.044 37.3928 255.318 37 254.5 37C253.682 37 252.956 37.3928 252.5 38H251.5C251.044 37.3928 250.318 37 249.5 37C248.682 37 247.956 37.3928 247.5 38H246.75C246.336 38 246 38.3358 246 38.75C246 39.1642 246.336 39.5 246.75 39.5H247C247 40.8807 248.119 42 249.5 42ZM254.5 40.5C255.052 40.5 255.5 40.0523 255.5 39.5C255.5 38.9477 255.052 38.5 254.5 38.5C253.948 38.5 253.5 38.9477 253.5 39.5C253.5 40.0523 253.948 40.5 254.5 40.5Z" fill="#737278"/>
<circle cx="220" cy="36" r="11.5" fill="#E9F3FC" stroke="#BFBFC3"/>
<path fill-rule="evenodd" clip-rule="evenodd" d="M190.75 30.75C190.75 30.3358 190.414 30 190 30C189.586 30 189.25 30.3358 189.25 30.75V35.25H184.75C184.336 35.25 184 35.5858 184 36C184 36.4142 184.336 36.75 184.75 36.75H189.25V41.25C189.25 41.6642 189.586 42 190 42C190.414 42 190.75 41.6642 190.75 41.25V36.75H195.25C195.664 36.75 196 36.4142 196 36C196 35.5858 195.664 35.25 195.25 35.25H190.75V30.75Z" fill="#737278"/>
<path fill-rule="evenodd" clip-rule="evenodd" d="M156 30.5L163 30.5C163.276 30.5 163.5 30.7239 163.5 31V41C163.5 41.2761 163.276 41.5 163 41.5H156V30.5ZM154.5 30.5H153C152.724 30.5 152.5 30.7239 152.5 31V41C152.5 41.2761 152.724 41.5 153 41.5H154.5V30.5ZM151 31C151 29.8954 151.895 29 153 29L163 29C164.105 29 165 29.8954 165 31V41C165 42.1046 164.105 43 163 43L153 43C151.895 43 151 42.1046 151 41V31Z" fill="#737278"/>
<circle cx="158" cy="16" r="12" fill="#7B58CF"/>
<circle cx="158" cy="16" r="14" stroke="#7B58CF" stroke-opacity="0.3" stroke-width="4"/>
<path d="M158.932 15.3184C159.506 15.4707 159.945 15.7422 160.25 16.1328C160.555 16.5195 160.707 17.0039 160.707 17.5859C160.707 18.3906 160.436 19.0234 159.893 19.4844C159.354 19.9414 158.605 20.1699 157.648 20.1699C157.246 20.1699 156.836 20.1328 156.418 20.0586C156 19.9844 155.59 19.877 155.188 19.7363V18.5586C155.586 18.7656 155.979 18.9199 156.365 19.0215C156.752 19.123 157.137 19.1738 157.52 19.1738C158.168 19.1738 158.666 19.0273 159.014 18.7344C159.361 18.4414 159.535 18.0195 159.535 17.4688C159.535 16.9609 159.361 16.5586 159.014 16.2617C158.666 15.9609 158.195 15.8105 157.602 15.8105H156.699V14.8379H157.602C158.145 14.8379 158.568 14.7188 158.873 14.4805C159.178 14.2422 159.33 13.9102 159.33 13.4844C159.33 13.0352 159.188 12.6914 158.902 12.4531C158.621 12.2109 158.219 12.0898 157.695 12.0898C157.348 12.0898 156.988 12.1289 156.617 12.207C156.246 12.2852 155.857 12.4023 155.451 12.5586V11.4688C155.924 11.3438 156.344 11.25 156.711 11.1875C157.082 11.125 157.41 11.0938 157.695 11.0938C158.547 11.0938 159.227 11.3086 159.734 11.7383C160.246 12.1641 160.502 12.7305 160.502 13.4375C160.502 13.918 160.367 14.3184 160.098 14.6387C159.832 14.959 159.443 15.1855 158.932 15.3184Z" fill="white"/>
<circle cx="189" cy="16" r="12" fill="#7B58CF"/>
<circle cx="189" cy="16" r="14" stroke="#7B58CF" stroke-opacity="0.3" stroke-width="4"/>
<path d="M189.691 12.3301L186.932 16.9531H189.691V12.3301ZM189.498 11.252H190.869V16.9531H192.035V17.9141H190.869V20H189.691V17.9141H185.982V16.7949L189.498 11.252Z" fill="white"/>
<circle cx="220" cy="16" r="12" fill="#7B58CF"/>
<circle cx="220" cy="16" r="14" stroke="#7B58CF" stroke-opacity="0.3" stroke-width="4"/>
<path d="M217.598 11.252H222.027V12.248H218.676V14.3984C218.844 14.3359 219.012 14.291 219.18 14.2637C219.352 14.2324 219.523 14.2168 219.695 14.2168C220.602 14.2168 221.32 14.4844 221.852 15.0195C222.383 15.5547 222.648 16.2793 222.648 17.1934C222.648 18.1152 222.369 18.8418 221.811 19.373C221.256 19.9043 220.496 20.1699 219.531 20.1699C219.066 20.1699 218.641 20.1387 218.254 20.0762C217.871 20.0137 217.527 19.9199 217.223 19.7949V18.5938C217.582 18.7891 217.943 18.9355 218.307 19.0332C218.67 19.127 219.041 19.1738 219.42 19.1738C220.072 19.1738 220.574 19.002 220.926 18.6582C221.281 18.3145 221.459 17.8262 221.459 17.1934C221.459 16.5684 221.275 16.082 220.908 15.7344C220.545 15.3867 220.037 15.2129 219.385 15.2129C219.068 15.2129 218.76 15.25 218.459 15.3242C218.158 15.3945 217.871 15.502 217.598 15.6465V11.252Z" fill="white"/>
<circle cx="251" cy="16" r="12" fill="#7B58CF"/>
<circle cx="251" cy="16" r="14" stroke="#7B58CF" stroke-opacity="0.3" stroke-width="4"/>
<path d="M253.191 11.4453V12.5352C252.945 12.3906 252.684 12.2812 252.406 12.207C252.129 12.1289 251.84 12.0898 251.539 12.0898C250.789 12.0898 250.221 12.373 249.834 12.9395C249.447 13.502 249.254 14.332 249.254 15.4297C249.441 15.0391 249.701 14.7402 250.033 14.5332C250.365 14.3223 250.746 14.2168 251.176 14.2168C252.02 14.2168 252.672 14.4766 253.133 14.9961C253.598 15.5117 253.83 16.2441 253.83 17.1934C253.83 18.1387 253.592 18.8711 253.115 19.3906C252.639 19.9102 251.969 20.1699 251.105 20.1699C250.09 20.1699 249.346 19.8066 248.873 19.0801C248.4 18.3496 248.164 17.2012 248.164 15.6348C248.164 14.1582 248.447 13.0332 249.014 12.2598C249.584 11.4824 250.408 11.0938 251.486 11.0938C251.775 11.0938 252.064 11.125 252.354 11.1875C252.643 11.2461 252.922 11.332 253.191 11.4453ZM251.082 15.1426C250.578 15.1426 250.182 15.3242 249.893 15.6875C249.604 16.0508 249.459 16.5527 249.459 17.1934C249.459 17.834 249.604 18.3359 249.893 18.6992C250.182 19.0625 250.578 19.2441 251.082 19.2441C251.605 19.2441 252 19.0723 252.266 18.7285C252.531 18.3809 252.664 17.8691 252.664 17.1934C252.664 16.5137 252.531 16.002 252.266 15.6582C252 15.3145 251.605 15.1426 251.082 15.1426Z" fill="white"/>
<circle cx="17" cy="72" r="12" fill="#7B58CF"/>
<circle cx="17" cy="72" r="14" stroke="#7B58CF" stroke-opacity="0.3" stroke-width="4"/>
<path d="M14.1992 67.252H19.707V67.7559L16.5781 76H15.3418L18.3887 68.248H14.1992V67.252Z" fill="white"/>
<circle cx="17" cy="112" r="12" fill="#7B58CF"/>
<circle cx="17" cy="112" r="14" stroke="#7B58CF" stroke-opacity="0.3" stroke-width="4"/>
<path d="M16.9941 111.846C16.4668 111.846 16.0586 111.994 15.7695 112.291C15.4844 112.584 15.3418 113 15.3418 113.539C15.3418 114.078 15.4863 114.498 15.7754 114.799C16.0684 115.096 16.4746 115.244 16.9941 115.244C17.5254 115.244 17.9336 115.098 18.2188 114.805C18.5078 114.508 18.6523 114.086 18.6523 113.539C18.6523 113.004 18.5059 112.588 18.2129 112.291C17.9238 111.994 17.5176 111.846 16.9941 111.846ZM15.9629 111.354C15.459 111.225 15.0645 110.984 14.7793 110.633C14.498 110.281 14.3574 109.857 14.3574 109.361C14.3574 108.666 14.5938 108.115 15.0664 107.709C15.5391 107.299 16.1816 107.094 16.9941 107.094C17.8105 107.094 18.4551 107.299 18.9277 107.709C19.4004 108.115 19.6367 108.666 19.6367 109.361C19.6367 109.857 19.4941 110.281 19.209 110.633C18.9277 110.984 18.5352 111.225 18.0312 111.354C18.6172 111.482 19.0645 111.742 19.373 112.133C19.6855 112.523 19.8418 113.029 19.8418 113.65C19.8418 114.439 19.5898 115.057 19.0859 115.502C18.582 115.947 17.8848 116.17 16.9941 116.17C16.1035 116.17 15.4062 115.949 14.9023 115.508C14.4023 115.062 14.1523 114.447 14.1523 113.662C14.1523 113.037 14.3066 112.529 14.6152 112.139C14.9277 111.744 15.377 111.482 15.9629 111.354ZM15.5352 109.473C15.5352 109.941 15.6602 110.299 15.9102 110.545C16.1602 110.791 16.5215 110.914 16.9941 110.914C17.4707 110.914 17.834 110.791 18.084 110.545C18.334 110.299 18.459 109.941 18.459 109.473C18.459 108.996 18.334 108.633 18.084 108.383C17.8379 108.133 17.4746 108.008 16.9941 108.008C16.5215 108.008 16.1602 108.135 15.9102 108.389C15.6602 108.639 15.5352 109 15.5352 109.473Z" fill="white"/>
<circle cx="16" cy="36" r="12" fill="#7B58CF"/>
<circle cx="16" cy="36" r="14" stroke="#7B58CF" stroke-opacity="0.3" stroke-width="4"/>
<path d="M13.9668 39.0098H15.8066V32.4004L13.6035 33.4609V32.3242L15.7949 31.2812H16.9785V39.0098H18.7949V40H13.9668V39.0098Z" fill="white"/>
<defs>
<clipPath id="clip0_26764_28292">
<rect width="25" height="23.7037" fill="white" transform="translate(31.5 23.9012)"/>
</clipPath>
</defs>
</svg>
