<svg width="902" height="834" viewBox="0 0 902 834" fill="none" xmlns="http://www.w3.org/2000/svg">
<rect width="902" height="834" fill="white"/>
<rect width="870" height="801" transform="translate(16 16.5)" fill="white"/>
<circle cx="39" cy="797.5" r="16" fill="#7B58CF"/>
<circle cx="39" cy="797.5" r="18" stroke="#7B58CF" stroke-opacity="0.3" stroke-width="4"/>
<path d="M40.3975 796.478C41.2588 796.706 41.918 797.113 42.375 797.699C42.832 798.279 43.0605 799.006 43.0605 799.879C43.0605 801.086 42.6533 802.035 41.8389 802.727C41.0303 803.412 39.9082 803.755 38.4727 803.755C37.8691 803.755 37.2539 803.699 36.627 803.588C36 803.477 35.3848 803.315 34.7812 803.104V801.338C35.3789 801.648 35.9678 801.88 36.5479 802.032C37.1279 802.185 37.7051 802.261 38.2793 802.261C39.252 802.261 39.999 802.041 40.5205 801.602C41.042 801.162 41.3027 800.529 41.3027 799.703C41.3027 798.941 41.042 798.338 40.5205 797.893C39.999 797.441 39.293 797.216 38.4023 797.216H37.0488V795.757H38.4023C39.2168 795.757 39.8525 795.578 40.3096 795.221C40.7666 794.863 40.9951 794.365 40.9951 793.727C40.9951 793.053 40.7812 792.537 40.3535 792.18C39.9316 791.816 39.3281 791.635 38.543 791.635C38.0215 791.635 37.4824 791.693 36.9258 791.811C36.3691 791.928 35.7861 792.104 35.1768 792.338V790.703C35.8857 790.516 36.5156 790.375 37.0664 790.281C37.623 790.188 38.1152 790.141 38.543 790.141C39.8203 790.141 40.8398 790.463 41.6016 791.107C42.3691 791.746 42.7529 792.596 42.7529 793.656C42.7529 794.377 42.5508 794.978 42.1465 795.458C41.748 795.938 41.165 796.278 40.3975 796.478Z" fill="white"/>
<line x1="1" y1="-1" x2="10" y2="-1" transform="matrix(1 4.53408e-09 -1.68562e-06 1 60 798.5)" stroke="#7B58CF" stroke-width="2" stroke-linecap="round"/>
<path d="M77 781.5H71V813.5H77" stroke="#7B58CF" stroke-width="2" stroke-linecap="round" stroke-linejoin="round"/>
<circle cx="39" cy="428.167" r="16" fill="#7B58CF"/>
<circle cx="39" cy="428.167" r="18" stroke="#7B58CF" stroke-opacity="0.3" stroke-width="4"/>
<path d="M36.8555 432.673H42.8848V434.167H34.9131V432.673C36.0088 431.519 36.9668 430.499 37.7871 429.614C38.6074 428.729 39.1729 428.105 39.4834 427.742C40.0693 427.027 40.4648 426.45 40.6699 426.011C40.875 425.565 40.9775 425.111 40.9775 424.648C40.9775 423.916 40.7607 423.342 40.3271 422.926C39.8994 422.51 39.3105 422.302 38.5605 422.302C38.0273 422.302 37.4678 422.398 36.8818 422.592C36.2959 422.785 35.6748 423.078 35.0186 423.471V421.678C35.6221 421.391 36.2139 421.174 36.7939 421.027C37.3799 420.881 37.957 420.808 38.5254 420.808C39.8086 420.808 40.8398 421.15 41.6191 421.836C42.4043 422.516 42.7969 423.409 42.7969 424.517C42.7969 425.079 42.665 425.642 42.4014 426.204C42.1436 426.767 41.7217 427.388 41.1357 428.067C40.8076 428.448 40.3301 428.976 39.7031 429.649C39.082 430.323 38.1328 431.331 36.8555 432.673Z" fill="white"/>
<line x1="61" y1="429.283" x2="70" y2="429.283" stroke="#7B58CF" stroke-width="2" stroke-linecap="round"/>
<path d="M77 101H71V758.5H77" stroke="#7B58CF" stroke-width="2" stroke-linecap="round" stroke-linejoin="round"/>
<line x1="1" y1="-1" x2="10" y2="-1" transform="matrix(1 2.17636e-09 -3.51171e-06 1 60 76.9235)" stroke="#7B58CF" stroke-width="2" stroke-linecap="round"/>
<path d="M77 59H71V95H77" stroke="#7B58CF" stroke-width="2" stroke-linecap="round" stroke-linejoin="round"/>
<circle cx="36" cy="76.9554" r="16" fill="#7B58CF"/>
<circle cx="36" cy="76.9554" r="18" stroke="#7B58CF" stroke-opacity="0.3" stroke-width="4"/>
<path d="M32.9502 81.4701H35.71V71.556L32.4053 73.1469V71.4418L35.6924 69.8773H37.4678V81.4701H40.1924V82.9554H32.9502V81.4701Z" fill="white"/>
<line x1="1" y1="-1" x2="10" y2="-1" transform="matrix(1 2.29727e-09 -3.32688e-06 1 60 35.9191)" stroke="#7B58CF" stroke-width="2" stroke-linecap="round"/>
<path d="M77 17H71V55H77" stroke="#7B58CF" stroke-width="2" stroke-linecap="round" stroke-linejoin="round"/>
<circle cx="36" cy="35" r="16" fill="#7B58CF"/>
<circle cx="36" cy="35" r="18" stroke="#7B58CF" stroke-opacity="0.3" stroke-width="4"/>
<path d="M32.3965 27.8779H39.041V29.3721H34.0137V32.5977C34.2656 32.5039 34.5176 32.4365 34.7695 32.3955C35.0273 32.3486 35.2852 32.3252 35.543 32.3252C36.9023 32.3252 37.9805 32.7266 38.7773 33.5293C39.5742 34.332 39.9727 35.4189 39.9727 36.79C39.9727 38.1729 39.5537 39.2627 38.7158 40.0596C37.8838 40.8564 36.7441 41.2549 35.2969 41.2549C34.5996 41.2549 33.9609 41.208 33.3809 41.1143C32.8066 41.0205 32.291 40.8799 31.834 40.6924V38.8906C32.373 39.1836 32.915 39.4033 33.46 39.5498C34.0049 39.6904 34.5615 39.7607 35.1299 39.7607C36.1084 39.7607 36.8613 39.5029 37.3887 38.9873C37.9219 38.4717 38.1885 37.7393 38.1885 36.79C38.1885 35.8525 37.9131 35.123 37.3623 34.6016C36.8174 34.0801 36.0557 33.8193 35.0771 33.8193C34.6025 33.8193 34.1396 33.875 33.6885 33.9863C33.2373 34.0918 32.8066 34.2529 32.3965 34.4697V27.8779Z" fill="white"/>
<g clip-path="url(#clip0_26567_28157)">
<rect width="256" height="800" transform="translate(86 15.5)" fill="#FBFAFD"/>
<rect width="256" height="40" transform="translate(86 56)" fill="#1F1E24" fill-opacity="0.04"/>
<path fill-rule="evenodd" clip-rule="evenodd" d="M316 70.5H323C323.276 70.5 323.5 70.7239 323.5 71V81C323.5 81.2761 323.276 81.5 323 81.5H316V70.5ZM314.5 70.5H313C312.724 70.5 312.5 70.7239 312.5 71V81C312.5 81.2761 312.724 81.5 313 81.5H314.5V70.5ZM311 71C311 69.8954 311.895 69 313 69H323C324.105 69 325 69.8954 325 71V81C325 82.1046 324.105 83 323 83H313C311.895 83 311 82.1046 311 81V71Z" fill="#737278"/>
<rect x="99" y="61" width="197" height="30" rx="2" fill="white" stroke="#BFBFC3" stroke-width="2"/>
<rect width="801" height="40" transform="translate(86 16)" fill="#171321"/>
<g clip-path="url(#clip1_26567_28157)">
<path d="M122.507 33.2837L122.473 33.1952L119.081 24.4565C119.013 24.2849 118.891 24.1393 118.733 24.0409C118.615 23.9663 118.481 23.9201 118.342 23.9059C118.202 23.8917 118.062 23.9099 117.931 23.9591C117.8 24.0083 117.683 24.087 117.588 24.189C117.494 24.291 117.425 24.4135 117.387 24.5466L115.097 31.4696H105.825L103.536 24.5466C103.498 24.4137 103.429 24.2915 103.334 24.1896C103.24 24.0878 103.122 24.0092 102.992 23.9601C102.861 23.911 102.72 23.8927 102.581 23.9067C102.442 23.9207 102.308 23.9667 102.19 24.0409C102.032 24.1393 101.91 24.2849 101.841 24.4565L98.4511 33.1968L98.4159 33.2837C97.9277 34.5436 97.8676 35.9261 98.2445 37.2227C98.6214 38.5194 99.415 39.6598 100.505 40.4722L100.518 40.4816L100.547 40.5038L105.707 44.3232L108.267 46.2337L109.822 47.3952C110.005 47.5313 110.227 47.605 110.456 47.605C110.685 47.605 110.907 47.5313 111.089 47.3952L112.645 46.2337L115.205 44.3232L120.401 40.4816L120.416 40.4706C121.506 39.6586 122.3 38.5185 122.677 37.2222C123.054 35.9258 122.995 34.5436 122.507 33.2837V33.2837Z" fill="#E24329"/>
<path d="M122.507 33.2837L122.473 33.1952C120.821 33.5301 119.264 34.2219 117.913 35.2211L110.465 40.7835L115.208 44.3232L120.405 40.4817L120.419 40.4706C121.509 39.6582 122.302 38.5179 122.679 37.2216C123.055 35.9253 122.995 34.5432 122.507 33.2837V33.2837Z" fill="#FC6D26"/>
<path d="M105.707 44.3232L108.267 46.2337L109.822 47.3952C110.005 47.5313 110.227 47.6049 110.456 47.6049C110.685 47.6049 110.907 47.5313 111.089 47.3952L112.645 46.2337L115.205 44.3232L110.462 40.7834L105.707 44.3232Z" fill="#FCA326"/>
<path d="M103.009 35.2211C101.66 34.2224 100.103 33.5312 98.4511 33.1968L98.4159 33.2837C97.9277 34.5436 97.8676 35.9261 98.2445 37.2228C98.6214 38.5194 99.415 39.6599 100.505 40.4722L100.518 40.4817L100.547 40.5038L105.707 44.3232L110.453 40.7835L103.009 35.2211Z" fill="#FC6D26"/>
</g>
<rect x="808" y="24" width="67" height="24" rx="3" fill="#1F75CB"/>
<rect x="709" y="32" width="72" height="8" rx="2" fill="white"/>
<rect x="148" y="33" width="72" height="8" rx="2" fill="white"/>
<rect x="236" y="33" width="72" height="8" rx="2" fill="white"/>
<rect x="324" y="33" width="72" height="8" rx="2" fill="white"/>
<g style="mix-blend-mode:multiply">
<g clip-path="url(#clip2_26567_28157)">
<path fill-rule="evenodd" clip-rule="evenodd" d="M116.5 796.5C116.5 800.09 113.59 803 110 803C106.41 803 103.5 800.09 103.5 796.5C103.5 792.91 106.41 790 110 790C113.59 790 116.5 792.91 116.5 796.5ZM118 796.5C118 800.918 114.418 804.5 110 804.5C105.582 804.5 102 800.918 102 796.5C102 792.082 105.582 788.5 110 788.5C114.418 788.5 118 792.082 118 796.5ZM106.927 793.489C106.642 793.919 106.5 794.343 106.5 794.761C106.5 794.963 106.59 795.152 106.77 795.326C106.949 795.5 107.17 795.587 107.431 795.587C107.874 795.587 108.175 795.338 108.334 794.84C108.502 794.365 108.707 794.005 108.95 793.76C109.193 793.516 109.571 793.394 110.084 793.394C110.523 793.394 110.881 793.515 111.159 793.757C111.436 793.999 111.575 794.296 111.575 794.649C111.575 794.829 111.53 794.996 111.439 795.151C111.348 795.305 111.236 795.445 111.103 795.57C110.97 795.696 110.754 795.882 110.455 796.128C110.114 796.41 109.844 796.653 109.643 796.858C109.442 797.063 109.281 797.301 109.16 797.571C108.838 798.816 110.51 798.916 110.896 798.027C110.943 797.941 111.014 797.847 111.109 797.743C111.205 797.64 111.332 797.52 111.491 797.383C112.065 796.899 112.463 796.554 112.685 796.349C112.906 796.145 113.097 795.901 113.258 795.62C113.419 795.338 113.5 795.01 113.5 794.635C113.5 794.16 113.359 793.72 113.077 793.314C112.794 792.909 112.394 792.589 111.876 792.353C111.358 792.118 110.761 792 110.084 792C109.356 792 108.719 792.141 108.173 792.423C107.627 792.705 107.212 793.06 106.927 793.489ZM109.068 800.57C109.068 801.122 109.515 801.57 110.068 801.57C110.62 801.57 111.068 801.122 111.068 800.57C111.068 800.017 110.62 799.57 110.068 799.57C109.515 799.57 109.068 800.017 109.068 800.57Z" fill="#737278"/>
</g>
<rect x="131" y="792.5" width="43" height="8" rx="2" fill="#A4A3A8"/>
</g>
<rect x="102" y="108" width="64" height="8" rx="2" fill="#DCDCDE"/>
<rect x="358.5" y="69" width="15" height="15" rx="3.5" fill="#E9F3FC" stroke="#BFBFC3"/>
<rect x="378" y="72.5" width="72" height="8" rx="2" fill="#89888D"/>
<path d="M458.377 71.2734H456.812L454 81.7266H455.564L458.377 71.2734Z" fill="#BFBFC3"/>
<rect x="462.877" y="69" width="15" height="15" rx="3.5" fill="#E9F3FC" stroke="#BFBFC3"/>
<rect x="482.377" y="72.5" width="72" height="8" rx="2" fill="#89888D"/>
<path d="M562.754 71.2734H561.189L558.377 81.7266H559.941L562.754 71.2734Z" fill="#BFBFC3"/>
<rect x="566.754" y="72.5" width="93" height="8" rx="2" fill="#535158"/>
</g>
<rect x="85.5" y="16" width="801" height="801" rx="4.5" stroke="#737278"/>
<circle cx="511" cy="136" r="16" fill="#7B58CF"/>
<circle cx="511" cy="136" r="18" stroke="#7B58CF" stroke-opacity="0.3" stroke-width="4"/>
<path d="M512.037 130.495L507.897 137.43H512.037V130.495ZM511.747 128.878H513.804V137.43H515.553V138.871H513.804V142H512.037V138.871H506.474V137.192L511.747 128.878Z" fill="white"/>
<line x1="510" y1="111.5" x2="510" y2="102.5" stroke="#7B58CF" stroke-width="2" stroke-linecap="round"/>
<path d="M361 95.5V101.5L660 101.5V95.5" stroke="#7B58CF" stroke-width="2" stroke-linecap="round" stroke-linejoin="round"/>
<defs>
<clipPath id="clip0_26567_28157">
<rect x="86" y="16.5" width="800" height="800" rx="4" fill="white"/>
</clipPath>
<clipPath id="clip1_26567_28157">
<rect width="25" height="23.7037" fill="white" transform="translate(98 23.9012)"/>
</clipPath>
<clipPath id="clip2_26567_28157">
<rect width="16" height="16" fill="white" transform="translate(102 788.5)"/>
</clipPath>
</defs>
</svg>
