<svg width="283" height="803" viewBox="0 0 283 803" fill="none" xmlns="http://www.w3.org/2000/svg">
<rect width="256" height="800" transform="translate(27)" fill="#FBFAFD"/>
<rect width="256" height="80" transform="translate(27)" fill="#1F1E24" fill-opacity="0.04"/>
<path fill-rule="evenodd" clip-rule="evenodd" d="M228.5 19C228.5 21.4853 226.485 23.5 224 23.5C221.515 23.5 219.5 21.4853 219.5 19C219.5 16.5147 221.515 14.5 224 14.5C226.485 14.5 228.5 16.5147 228.5 19ZM227.679 23.7399C226.663 24.5297 225.387 25 224 25C220.686 25 218 22.3137 218 19C218 15.6863 220.686 13 224 13C227.314 13 230 15.6863 230 19C230 20.3865 229.53 21.6632 228.74 22.6792L231.78 25.7197C232.073 26.0126 232.073 26.4874 231.78 26.7803C231.487 27.0732 231.013 27.0732 230.72 26.7803L227.679 23.7399Z" fill="#737278"/>
<path fill-rule="evenodd" clip-rule="evenodd" d="M193.75 14.75C193.75 14.3358 193.414 14 193 14C192.586 14 192.25 14.3358 192.25 14.75V19.25H187.75C187.336 19.25 187 19.5858 187 20C187 20.4142 187.336 20.75 187.75 20.75H192.25V25.25C192.25 25.6642 192.586 26 193 26C193.414 26 193.75 25.6642 193.75 25.25V20.75H198.25C198.664 20.75 199 20.4142 199 20C199 19.5858 198.664 19.25 198.25 19.25H193.75V14.75Z" fill="#737278"/>
<path fill-rule="evenodd" clip-rule="evenodd" d="M159 14.5L166 14.5C166.276 14.5 166.5 14.7239 166.5 15V25C166.5 25.2761 166.276 25.5 166 25.5H159V14.5ZM157.5 14.5H156C155.724 14.5 155.5 14.7239 155.5 15V25C155.5 25.2761 155.724 25.5 156 25.5H157.5V14.5ZM154 15C154 13.8954 154.895 13 156 13L166 13C167.105 13 168 13.8954 168 15V25C168 26.1046 167.105 27 166 27H156C154.895 27 154 26.1046 154 25V15Z" fill="#737278"/>
<circle cx="259" cy="20" r="11.5" fill="#E9F3FC" stroke="#BFBFC3"/>
<g clip-path="url(#clip0_16082_30717)">
<path d="M63.0071 17.2837L62.9735 17.1952L59.5815 8.45647C59.5128 8.28488 59.3907 8.13933 59.2327 8.04087C59.1148 7.96634 58.9809 7.92012 58.8417 7.90592C58.7024 7.89172 58.5618 7.90993 58.431 7.95909C58.3002 8.00825 58.1828 8.08699 58.0884 8.18901C57.9939 8.29102 57.925 8.41347 57.8871 8.54654L55.5975 15.4696H46.3255L44.0359 8.54654C43.9977 8.41367 43.9286 8.29145 43.8341 8.18963C43.7396 8.08781 43.6223 8.00921 43.4916 7.96009C43.3609 7.91097 43.2204 7.89269 43.0812 7.90672C42.9421 7.92074 42.8082 7.96668 42.6903 8.04087C42.5323 8.13933 42.4101 8.28488 42.3415 8.45647L38.9511 17.1967L38.9159 17.2837C38.4277 18.5436 38.3676 19.9261 38.7445 21.2227C39.1214 22.5194 39.915 23.6598 41.0055 24.4721L41.0183 24.4816L41.0471 24.5038L46.2071 28.3232L48.7671 30.2337L50.3223 31.3952C50.5048 31.5313 50.7272 31.6049 50.9559 31.6049C51.1846 31.6049 51.407 31.5313 51.5895 31.3952L53.1447 30.2337L55.7047 28.3232L60.9015 24.4816L60.9159 24.4706C62.0063 23.6586 62.8 22.5185 63.1771 21.2222C63.5543 19.9258 63.4947 18.5436 63.0071 17.2837V17.2837Z" fill="#E24329"/>
<path d="M63.0071 17.2837L62.9735 17.1952C61.3208 17.5301 59.7636 18.2219 58.4135 19.221L50.9655 24.7834L55.7079 28.3232L60.9047 24.4816L60.9191 24.4706C62.0089 23.6581 62.8019 22.5178 63.1785 21.2216C63.5552 19.9253 63.495 18.5432 63.0071 17.2837V17.2837Z" fill="#FC6D26"/>
<path d="M46.2071 28.3232L48.7671 30.2337L50.3223 31.3952C50.5048 31.5313 50.7272 31.6049 50.9559 31.6049C51.1846 31.6049 51.407 31.5313 51.5895 31.3952L53.1447 30.2337L55.7047 28.3232L50.9623 24.7834L46.2071 28.3232Z" fill="#FCA326"/>
<path d="M43.5095 19.221C42.1598 18.2224 40.6031 17.5311 38.9511 17.1967L38.9159 17.2837C38.4277 18.5436 38.3676 19.9261 38.7445 21.2227C39.1214 22.5194 39.915 23.6598 41.0055 24.4721L41.0183 24.4816L41.0471 24.5037L46.2071 28.3232L50.9527 24.7834L43.5095 19.221Z" fill="#FC6D26"/>
</g>
<rect x="40" y="41" width="72" height="30" rx="2" fill="white" stroke="#BFBFC3" stroke-width="2"/>
<rect x="119" y="41" width="72" height="30" rx="2" fill="white" stroke="#BFBFC3" stroke-width="2"/>
<rect x="198" y="41" width="72" height="30" rx="2" fill="white" stroke="#BFBFC3" stroke-width="2"/>
<rect x="71" y="96" width="78" height="8" rx="2" fill="#737278"/>
<path fill-rule="evenodd" clip-rule="evenodd" d="M259.22 98.2197C259.513 97.9268 259.987 97.9268 260.28 98.2197L263 100.939L265.72 98.2197C266.013 97.9268 266.487 97.9268 266.78 98.2197C267.073 98.5126 267.073 98.9874 266.78 99.2803L263.53 102.53C263.237 102.823 262.763 102.823 262.47 102.53L259.22 99.2803C258.927 98.9874 258.927 98.5126 259.22 98.2197Z" fill="#737278"/>
<rect x="39" y="88" width="24" height="24" rx="4" fill="#FDF1DD"/>
<rect x="39.5" y="88.5" width="23" height="23" rx="3.5" stroke="#1F1E24" stroke-opacity="0.08"/>
<path d="M27 81H283V79H27V81ZM283 119H27V121H283V119Z" fill="#ECECEF" mask="url(#path-12-inside-1_16082_30717)"/>
<g style="mix-blend-mode:multiply">
<rect x="31" y="128" width="248" height="32" rx="4" fill="#ECECEF"/>
<path fill-rule="evenodd" clip-rule="evenodd" d="M56.5 138.5H45.5V141H56.5V138.5ZM56.5 142.5H49.5V149.5H56.5V142.5ZM48 142.5H45.5V149.5H48V142.5ZM45.5 137H44V138.5V149.5V151H45.5H56.5H58V149.5V138.5V137H56.5H45.5Z" fill="#535158"/>
<path d="M35 133.5C35 132.672 35.6716 132 36.5 132V132C37.3284 132 38 132.672 38 133.5V154.5C38 155.328 37.3284 156 36.5 156V156C35.6716 156 35 155.328 35 154.5V133.5Z" fill="#1F75CB"/>
<rect x="72" y="140" width="89" height="8" rx="2" fill="#737278"/>
</g>
<path fill-rule="evenodd" clip-rule="evenodd" d="M56.5 170.5H45.5V173H56.5V170.5ZM56.5 174.5H49.5V181.5H56.5V174.5ZM48 174.5H45.5V181.5H48V174.5ZM45.5 169H44V170.5V181.5V183H45.5H56.5H58V181.5V170.5V169H56.5H45.5Z" fill="#737278"/>
<rect x="72" y="172" width="64" height="8" rx="2" fill="#A4A3A8"/>
<g style="mix-blend-mode:multiply">
<rect x="232" y="168" width="35" height="16" rx="8" fill="#CBE2F9"/>
</g>
<path fill-rule="evenodd" clip-rule="evenodd" d="M56.5 202.5H45.5V205H56.5V202.5ZM56.5 206.5H49.5V213.5H56.5V206.5ZM48 206.5H45.5V213.5H48V206.5ZM45.5 201H44V202.5V213.5V215H45.5H56.5H58V213.5V202.5V201H56.5H45.5Z" fill="#737278"/>
<rect x="72" y="204" width="127" height="8" rx="2" fill="#A4A3A8"/>
<g style="mix-blend-mode:multiply">
<rect x="232" y="200" width="35" height="16" rx="8" fill="#CBE2F9"/>
</g>
<rect x="47" y="232" width="224" height="1" fill="#ECECEF"/>
<g style="mix-blend-mode:multiply">
<path fill-rule="evenodd" clip-rule="evenodd" d="M54.2803 250.22C53.9874 249.927 53.5126 249.927 53.2197 250.22C53.0297 250.41 52.9629 250.676 53.0194 250.92L49.6893 254.25H47.2071C46.0935 254.25 45.5358 255.596 46.3232 256.384L48.2344 258.295L44.5134 262.43C44.1829 262.797 44 263.273 44 263.767V264H44.2325C44.7266 264 45.2032 263.817 45.5705 263.487L49.7049 259.766L51.6161 261.677C52.4036 262.464 53.75 261.907 53.75 260.793V258.311L57.0801 254.981C57.3238 255.037 57.5904 254.97 57.7803 254.78C58.0732 254.487 58.0732 254.013 57.7803 253.72L57.1768 253.116L54.8839 250.823C54.8838 250.823 54.8836 250.823 54.8835 250.823L54.2803 250.22ZM55.9393 254L54 252.061L51.0607 255L53 256.939L55.9393 254ZM49.6893 255.75L52.25 258.311V260.189L47.8107 255.75H49.6893Z" fill="#737278"/>
<rect x="72" y="253" width="89" height="8" rx="2" fill="#A4A3A8"/>
<path fill-rule="evenodd" clip-rule="evenodd" d="M255.22 255.22C255.513 254.927 255.987 254.927 256.28 255.22L259 257.939L261.72 255.22C262.013 254.927 262.487 254.927 262.78 255.22C263.073 255.513 263.073 255.987 262.78 256.28L259.53 259.53C259.237 259.823 258.763 259.823 258.47 259.53L255.22 256.28C254.927 255.987 254.927 255.513 255.22 255.22Z" fill="#737278"/>
</g>
<rect x="72" y="285" width="70" height="8" rx="2" fill="#A4A3A8"/>
<rect x="72" y="317" width="117" height="8" rx="2" fill="#A4A3A8"/>
<rect x="47" y="345" width="224" height="1" fill="#ECECEF"/>
<rect x="47" y="586" width="224" height="1" fill="#ECECEF"/>
<g style="mix-blend-mode:multiply">
<g clip-path="url(#clip1_16082_30717)">
<path fill-rule="evenodd" clip-rule="evenodd" d="M44.5 366V364.5H49.1972L50.1972 366H44.5ZM43 366V364C43 363.448 43.4477 363 44 363H49.4648C49.7992 363 50.1114 363.167 50.2969 363.445L51.9635 365.945C51.9756 365.963 51.987 365.982 51.9977 366H58C58.5523 366 59 366.448 59 367V375C59 375.552 58.5523 376 58 376H44C43.4477 376 43 375.552 43 375V367.5V366.5V366ZM44.5 367.5V374.5H57.5V367.5H51.1315H44.5Z" fill="#737278"/>
</g>
<rect x="72" y="366" width="43" height="8" rx="2" fill="#A4A3A8"/>
<path fill-rule="evenodd" clip-rule="evenodd" d="M255.22 368.22C255.513 367.927 255.987 367.927 256.28 368.22L259 370.939L261.72 368.22C262.013 367.927 262.487 367.927 262.78 368.22C263.073 368.513 263.073 368.987 262.78 369.28L259.53 372.53C259.237 372.823 258.763 372.823 258.47 372.53L255.22 369.28C254.927 368.987 254.927 368.513 255.22 368.22Z" fill="#737278"/>
</g>
<g style="mix-blend-mode:multiply">
<g clip-path="url(#clip2_16082_30717)">
<path fill-rule="evenodd" clip-rule="evenodd" d="M44.5 398V396.5H49.1972L50.1972 398H44.5ZM43 398V396C43 395.448 43.4477 395 44 395H49.4648C49.7992 395 50.1114 395.167 50.2969 395.445L51.9635 397.945C51.9756 397.963 51.987 397.982 51.9977 398H58C58.5523 398 59 398.448 59 399V407C59 407.552 58.5523 408 58 408H44C43.4477 408 43 407.552 43 407V399.5V398.5V398ZM44.5 399.5V406.5H57.5V399.5H51.1315H44.5Z" fill="#737278"/>
</g>
<rect x="72" y="398" width="96" height="8" rx="2" fill="#A4A3A8"/>
<path fill-rule="evenodd" clip-rule="evenodd" d="M255.22 400.22C255.513 399.927 255.987 399.927 256.28 400.22L259 402.939L261.72 400.22C262.013 399.927 262.487 399.927 262.78 400.22C263.073 400.513 263.073 400.987 262.78 401.28L259.53 404.53C259.237 404.823 258.763 404.823 258.47 404.53L255.22 401.28C254.927 400.987 254.927 400.513 255.22 400.22Z" fill="#737278"/>
</g>
<g style="mix-blend-mode:multiply">
<g clip-path="url(#clip3_16082_30717)">
<path fill-rule="evenodd" clip-rule="evenodd" d="M44.5 430V428.5H49.1972L50.1972 430H44.5ZM43 430V428C43 427.448 43.4477 427 44 427H49.4648C49.7992 427 50.1114 427.167 50.2969 427.445L51.9635 429.945C51.9756 429.963 51.987 429.982 51.9977 430H58C58.5523 430 59 430.448 59 431V439C59 439.552 58.5523 440 58 440H44C43.4477 440 43 439.552 43 439V431.5V430.5V430ZM44.5 431.5V438.5H57.5V431.5H51.1315H44.5Z" fill="#737278"/>
</g>
<rect x="72" y="430" width="50" height="8" rx="2" fill="#A4A3A8"/>
<path fill-rule="evenodd" clip-rule="evenodd" d="M255.22 432.22C255.513 431.927 255.987 431.927 256.28 432.22L259 434.939L261.72 432.22C262.013 431.927 262.487 431.927 262.78 432.22C263.073 432.513 263.073 432.987 262.78 433.28L259.53 436.53C259.237 436.823 258.763 436.823 258.47 436.53L255.22 433.28C254.927 432.987 254.927 432.513 255.22 432.22Z" fill="#737278"/>
</g>
<g style="mix-blend-mode:multiply">
<g clip-path="url(#clip4_16082_30717)">
<path fill-rule="evenodd" clip-rule="evenodd" d="M44.5 462V460.5H49.1972L50.1972 462H44.5ZM43 462V460C43 459.448 43.4477 459 44 459H49.4648C49.7992 459 50.1114 459.167 50.2969 459.445L51.9635 461.945C51.9756 461.963 51.987 461.982 51.9977 462H58C58.5523 462 59 462.448 59 463V471C59 471.552 58.5523 472 58 472H44C43.4477 472 43 471.552 43 471V463.5V462.5V462ZM44.5 463.5V470.5H57.5V463.5H51.1315H44.5Z" fill="#737278"/>
</g>
<rect x="72" y="462" width="62" height="8" rx="2" fill="#A4A3A8"/>
<path fill-rule="evenodd" clip-rule="evenodd" d="M255.22 464.22C255.513 463.927 255.987 463.927 256.28 464.22L259 466.939L261.72 464.22C262.013 463.927 262.487 463.927 262.78 464.22C263.073 464.513 263.073 464.987 262.78 465.28L259.53 468.53C259.237 468.823 258.763 468.823 258.47 468.53L255.22 465.28C254.927 464.987 254.927 464.513 255.22 464.22Z" fill="#737278"/>
</g>
<g style="mix-blend-mode:multiply">
<g clip-path="url(#clip5_16082_30717)">
<path fill-rule="evenodd" clip-rule="evenodd" d="M44.5 494V492.5H49.1972L50.1972 494H44.5ZM43 494V492C43 491.448 43.4477 491 44 491H49.4648C49.7992 491 50.1114 491.167 50.2969 491.445L51.9635 493.945C51.9756 493.963 51.987 493.982 51.9977 494H58C58.5523 494 59 494.448 59 495V503C59 503.552 58.5523 504 58 504H44C43.4477 504 43 503.552 43 503V495.5V494.5V494ZM44.5 495.5V502.5H57.5V495.5H51.1315H44.5Z" fill="#737278"/>
</g>
<rect x="72" y="494" width="89" height="8" rx="2" fill="#A4A3A8"/>
<path fill-rule="evenodd" clip-rule="evenodd" d="M255.22 496.22C255.513 495.927 255.987 495.927 256.28 496.22L259 498.939L261.72 496.22C262.013 495.927 262.487 495.927 262.78 496.22C263.073 496.513 263.073 496.987 262.78 497.28L259.53 500.53C259.237 500.823 258.763 500.823 258.47 500.53L255.22 497.28C254.927 496.987 254.927 496.513 255.22 496.22Z" fill="#737278"/>
</g>
<g style="mix-blend-mode:multiply">
<g clip-path="url(#clip6_16082_30717)">
<path fill-rule="evenodd" clip-rule="evenodd" d="M44.5 526V524.5H49.1972L50.1972 526H44.5ZM43 526V524C43 523.448 43.4477 523 44 523H49.4648C49.7992 523 50.1114 523.167 50.2969 523.445L51.9635 525.945C51.9756 525.963 51.987 525.982 51.9977 526H58C58.5523 526 59 526.448 59 527V535C59 535.552 58.5523 536 58 536H44C43.4477 536 43 535.552 43 535V527.5V526.5V526ZM44.5 527.5V534.5H57.5V527.5H51.1315H44.5Z" fill="#737278"/>
</g>
<rect x="72" y="526" width="67" height="8" rx="2" fill="#A4A3A8"/>
<path fill-rule="evenodd" clip-rule="evenodd" d="M255.22 528.22C255.513 527.927 255.987 527.927 256.28 528.22L259 530.939L261.72 528.22C262.013 527.927 262.487 527.927 262.78 528.22C263.073 528.513 263.073 528.987 262.78 529.28L259.53 532.53C259.237 532.823 258.763 532.823 258.47 532.53L255.22 529.28C254.927 528.987 254.927 528.513 255.22 528.22Z" fill="#737278"/>
</g>
<g style="mix-blend-mode:multiply">
<g clip-path="url(#clip7_16082_30717)">
<path fill-rule="evenodd" clip-rule="evenodd" d="M44.5 558V556.5H49.1972L50.1972 558H44.5ZM43 558V556C43 555.448 43.4477 555 44 555H49.4648C49.7992 555 50.1114 555.167 50.2969 555.445L51.9635 557.945C51.9756 557.963 51.987 557.982 51.9977 558H58C58.5523 558 59 558.448 59 559V567C59 567.552 58.5523 568 58 568H44C43.4477 568 43 567.552 43 567V559.5V558.5V558ZM44.5 559.5V566.5H57.5V559.5H51.1315H44.5Z" fill="#737278"/>
</g>
<rect x="72" y="558" width="89" height="8" rx="2" fill="#A4A3A8"/>
<path fill-rule="evenodd" clip-rule="evenodd" d="M255.22 560.22C255.513 559.927 255.987 559.927 256.28 560.22L259 562.939L261.72 560.22C262.013 559.927 262.487 559.927 262.78 560.22C263.073 560.513 263.073 560.987 262.78 561.28L259.53 564.53C259.237 564.823 258.763 564.823 258.47 564.53L255.22 561.28C254.927 560.987 254.927 560.513 255.22 560.22Z" fill="#737278"/>
</g>
<g style="mix-blend-mode:multiply">
<path fill-rule="evenodd" clip-rule="evenodd" d="M50.0103 605.233L50.1341 604.5H51.8662L51.99 605.233C52.0538 605.611 52.3227 605.905 52.6648 606.019C53.3409 606.245 53.9565 606.605 54.4796 607.069C54.7497 607.308 55.1391 607.393 55.4975 607.26L56.1964 607L57.0624 608.5L56.4887 608.974C56.1942 609.218 56.0737 609.597 56.1453 609.95C56.2139 610.289 56.25 610.64 56.25 611C56.25 611.36 56.2139 611.711 56.1453 612.05C56.0737 612.403 56.1942 612.782 56.4887 613.026L57.0622 613.5L56.1962 615L55.4975 614.74C55.1391 614.607 54.7497 614.692 54.4795 614.931C53.9564 615.395 53.3409 615.755 52.6648 615.981C52.3227 616.095 52.0538 616.389 51.99 616.767L51.8662 617.5H50.1341L50.0103 616.767C49.9465 616.389 49.6776 616.095 49.3355 615.981C48.6593 615.755 48.0437 615.395 47.5206 614.931C47.2504 614.692 46.861 614.607 46.5026 614.74L45.804 615L44.938 613.5L45.5114 613.026C45.8059 612.782 45.9265 612.403 45.8548 612.05C45.7862 611.711 45.75 611.36 45.75 611C45.75 610.64 45.7862 610.289 45.8549 609.95C45.9265 609.597 45.8059 609.218 45.5114 608.974L44.938 608.5L45.8041 607L46.5027 607.26C46.8611 607.393 47.2504 607.308 47.5206 607.069C48.0437 606.605 48.6593 606.245 49.3355 606.019C49.6776 605.905 49.9465 605.611 50.0103 605.233ZM49.9228 603C49.3127 603 48.7918 603.44 48.6902 604.042L48.5796 604.697C47.9132 604.953 47.2981 605.312 46.7536 605.753L46.1292 605.52C45.5575 605.308 44.9157 605.539 44.6107 606.067L43.5333 607.933C43.2283 608.461 43.3492 609.133 43.8193 609.521L44.3321 609.945C44.278 610.289 44.25 610.642 44.25 611C44.25 611.358 44.278 611.711 44.3321 612.055L43.8193 612.479C43.3491 612.867 43.2282 613.539 43.5333 614.067L44.6106 615.933C44.9156 616.461 45.5574 616.692 46.1291 616.48L46.7535 616.247C47.2981 616.688 47.9132 617.047 48.5796 617.303L48.6902 617.958C48.7918 618.56 49.3127 619 49.9228 619H52.0775C52.6875 619 53.2085 618.56 53.31 617.958L53.4207 617.303C54.087 617.047 54.702 616.688 55.2466 616.247L55.871 616.48C56.4427 616.692 57.0846 616.461 57.3896 615.933L58.4669 614.067C58.7719 613.539 58.6511 612.867 58.1809 612.479L57.668 612.055C57.7221 611.711 57.75 611.358 57.75 611C57.75 610.642 57.7221 610.29 57.6681 609.946L58.1811 609.521C58.6512 609.133 58.7721 608.461 58.4671 607.933L57.3897 606.067C57.0847 605.539 56.4429 605.308 55.8712 605.52L55.2466 605.753C54.7021 605.312 54.0871 604.953 53.4207 604.697L53.31 604.042C53.2085 603.44 52.6875 603 52.0775 603H49.9228ZM48.75 611C48.75 609.757 49.7574 608.75 51 608.75C52.2427 608.75 53.25 609.757 53.25 611C53.25 612.243 52.2427 613.25 51 613.25C49.7574 613.25 48.75 612.243 48.75 611ZM51 607.25C48.929 607.25 47.25 608.929 47.25 611C47.25 613.071 48.929 614.75 51 614.75C53.0711 614.75 54.75 613.071 54.75 611C54.75 608.929 53.0711 607.25 51 607.25Z" fill="#737278"/>
<rect x="72" y="607" width="65" height="8" rx="2" fill="#A4A3A8"/>
</g>
<g style="mix-blend-mode:multiply">
<g clip-path="url(#clip8_16082_30717)">
<path fill-rule="evenodd" clip-rule="evenodd" d="M57.5 781C57.5 784.59 54.5899 787.5 51 787.5C47.4101 787.5 44.5 784.59 44.5 781C44.5 777.41 47.4101 774.5 51 774.5C54.5899 774.5 57.5 777.41 57.5 781ZM59 781C59 785.418 55.4183 789 51 789C46.5817 789 43 785.418 43 781C43 776.582 46.5817 773 51 773C55.4183 773 59 776.582 59 781ZM47.927 777.989C47.6423 778.419 47.5 778.843 47.5 779.261C47.5 779.463 47.5898 779.652 47.7695 779.826C47.9492 780 48.1697 780.087 48.431 780.087C48.8743 780.087 49.1753 779.838 49.334 779.34C49.502 778.865 49.7073 778.505 49.95 778.26C50.1926 778.016 50.5706 777.894 51.084 777.894C51.5227 777.894 51.8808 778.015 52.1585 778.257C52.4362 778.499 52.575 778.796 52.575 779.149C52.575 779.329 52.5295 779.496 52.4385 779.651C52.3475 779.805 52.2355 779.945 52.1025 780.07C51.9695 780.196 51.7537 780.382 51.455 780.628C51.1143 780.91 50.8437 781.153 50.643 781.358C50.4423 781.563 50.2813 781.801 50.16 782.071C49.8377 783.316 51.5103 783.416 51.896 782.527C51.9427 782.441 52.0138 782.347 52.1095 782.243C52.2052 782.14 52.3323 782.02 52.491 781.883C53.065 781.399 53.4628 781.054 53.6845 780.849C53.9062 780.645 54.0975 780.401 54.2585 780.12C54.4195 779.838 54.5 779.51 54.5 779.135C54.5 778.66 54.3588 778.22 54.0765 777.814C53.7942 777.409 53.394 777.089 52.876 776.853C52.358 776.618 51.7607 776.5 51.084 776.5C50.356 776.5 49.719 776.641 49.173 776.923C48.627 777.205 48.2117 777.56 47.927 777.989ZM50.0675 785.07C50.0675 785.622 50.5152 786.07 51.0675 786.07C51.6198 786.07 52.0675 785.622 52.0675 785.07C52.0675 784.517 51.6198 784.07 51.0675 784.07C50.5152 784.07 50.0675 784.517 50.0675 785.07Z" fill="#737278"/>
</g>
<rect x="72" y="777" width="43" height="8" rx="2" fill="#A4A3A8"/>
</g>
<circle cx="20" cy="23" r="16" fill="#7B58CF"/>
<circle cx="20" cy="23" r="18" stroke="#7B58CF" stroke-opacity="0.3" stroke-width="4"/>
<path d="M16.9502 27.5146H19.71V17.6006L16.4053 19.1914V17.4863L19.6924 15.9219H21.4678V27.5146H24.1924V29H16.9502V27.5146Z" fill="white"/>
<circle cx="20" cy="100" r="16" fill="#7B58CF"/>
<circle cx="20" cy="100" r="18" stroke="#7B58CF" stroke-opacity="0.3" stroke-width="4"/>
<path d="M17.8555 104.506H23.8848V106H15.9131V104.506C17.0088 103.352 17.9668 102.332 18.7871 101.447C19.6074 100.562 20.1729 99.9385 20.4834 99.5752C21.0693 98.8604 21.4648 98.2832 21.6699 97.8438C21.875 97.3984 21.9775 96.9443 21.9775 96.4814C21.9775 95.749 21.7607 95.1748 21.3271 94.7588C20.8994 94.3428 20.3105 94.1348 19.5605 94.1348C19.0273 94.1348 18.4678 94.2314 17.8818 94.4248C17.2959 94.6182 16.6748 94.9111 16.0186 95.3037V93.5107C16.6221 93.2236 17.2139 93.0068 17.7939 92.8604C18.3799 92.7139 18.957 92.6406 19.5254 92.6406C20.8086 92.6406 21.8398 92.9834 22.6191 93.6689C23.4043 94.3486 23.7969 95.2422 23.7969 96.3496C23.7969 96.9121 23.665 97.4746 23.4014 98.0371C23.1436 98.5996 22.7217 99.2207 22.1357 99.9004C21.8076 100.281 21.3301 100.809 20.7031 101.482C20.082 102.156 19.1328 103.164 17.8555 104.506Z" fill="white"/>
<circle cx="20" cy="177" r="16" fill="#7B58CF"/>
<circle cx="20" cy="177" r="18" stroke="#7B58CF" stroke-opacity="0.3" stroke-width="4"/>
<path d="M21.3975 175.978C22.2588 176.206 22.918 176.613 23.375 177.199C23.832 177.779 24.0605 178.506 24.0605 179.379C24.0605 180.586 23.6533 181.535 22.8389 182.227C22.0303 182.912 20.9082 183.255 19.4727 183.255C18.8691 183.255 18.2539 183.199 17.627 183.088C17 182.977 16.3848 182.815 15.7812 182.604V180.838C16.3789 181.148 16.9678 181.38 17.5479 181.532C18.1279 181.685 18.7051 181.761 19.2793 181.761C20.252 181.761 20.999 181.541 21.5205 181.102C22.042 180.662 22.3027 180.029 22.3027 179.203C22.3027 178.441 22.042 177.838 21.5205 177.393C20.999 176.941 20.293 176.716 19.4023 176.716H18.0488V175.257H19.4023C20.2168 175.257 20.8525 175.078 21.3096 174.721C21.7666 174.363 21.9951 173.865 21.9951 173.227C21.9951 172.553 21.7812 172.037 21.3535 171.68C20.9316 171.316 20.3281 171.135 19.543 171.135C19.0215 171.135 18.4824 171.193 17.9258 171.311C17.3691 171.428 16.7861 171.604 16.1768 171.838V170.203C16.8857 170.016 17.5156 169.875 18.0664 169.781C18.623 169.688 19.1152 169.641 19.543 169.641C20.8203 169.641 21.8398 169.963 22.6016 170.607C23.3691 171.246 23.7529 172.096 23.7529 173.156C23.7529 173.877 23.5508 174.478 23.1465 174.958C22.748 175.438 22.165 175.778 21.3975 175.978Z" fill="white"/>
<circle cx="20" cy="293" r="16" fill="#7B58CF"/>
<circle cx="20" cy="293" r="18" stroke="#7B58CF" stroke-opacity="0.3" stroke-width="4"/>
<path d="M21.0371 287.495L16.8975 294.43H21.0371V287.495ZM20.7471 285.878H22.8037V294.43H24.5527V295.871H22.8037V299H21.0371V295.871H15.4736V294.192L20.7471 285.878Z" fill="white"/>
<circle cx="20" cy="466" r="16" fill="#7B58CF"/>
<circle cx="20" cy="466" r="18" stroke="#7B58CF" stroke-opacity="0.3" stroke-width="4"/>
<path d="M16.3965 458.878H23.041V460.372H18.0137V463.598C18.2656 463.504 18.5176 463.437 18.7695 463.396C19.0273 463.349 19.2852 463.325 19.543 463.325C20.9023 463.325 21.9805 463.727 22.7773 464.529C23.5742 465.332 23.9727 466.419 23.9727 467.79C23.9727 469.173 23.5537 470.263 22.7158 471.06C21.8838 471.856 20.7441 472.255 19.2969 472.255C18.5996 472.255 17.9609 472.208 17.3809 472.114C16.8066 472.021 16.291 471.88 15.834 471.692V469.891C16.373 470.184 16.915 470.403 17.46 470.55C18.0049 470.69 18.5615 470.761 19.1299 470.761C20.1084 470.761 20.8613 470.503 21.3887 469.987C21.9219 469.472 22.1885 468.739 22.1885 467.79C22.1885 466.853 21.9131 466.123 21.3623 465.602C20.8174 465.08 20.0557 464.819 19.0771 464.819C18.6025 464.819 18.1396 464.875 17.6885 464.986C17.2373 465.092 16.8066 465.253 16.3965 465.47V458.878Z" fill="white"/>
<circle cx="20" cy="611" r="16" fill="#7B58CF"/>
<circle cx="20" cy="611" r="18" stroke="#7B58CF" stroke-opacity="0.3" stroke-width="4"/>
<path d="M23.2871 604.168V605.803C22.918 605.586 22.5254 605.422 22.1094 605.311C21.6934 605.193 21.2598 605.135 20.8086 605.135C19.6836 605.135 18.8311 605.56 18.251 606.409C17.6709 607.253 17.3809 608.498 17.3809 610.145C17.6621 609.559 18.0518 609.11 18.5498 608.8C19.0479 608.483 19.6191 608.325 20.2637 608.325C21.5293 608.325 22.5078 608.715 23.1992 609.494C23.8965 610.268 24.2451 611.366 24.2451 612.79C24.2451 614.208 23.8877 615.307 23.1729 616.086C22.458 616.865 21.4531 617.255 20.1582 617.255C18.6348 617.255 17.5186 616.71 16.8096 615.62C16.1006 614.524 15.7461 612.802 15.7461 610.452C15.7461 608.237 16.1709 606.55 17.0205 605.39C17.876 604.224 19.1123 603.641 20.7295 603.641C21.1631 603.641 21.5967 603.688 22.0303 603.781C22.4639 603.869 22.8828 603.998 23.2871 604.168ZM20.123 609.714C19.3672 609.714 18.7725 609.986 18.3389 610.531C17.9053 611.076 17.6885 611.829 17.6885 612.79C17.6885 613.751 17.9053 614.504 18.3389 615.049C18.7725 615.594 19.3672 615.866 20.123 615.866C20.9082 615.866 21.5 615.608 21.8984 615.093C22.2969 614.571 22.4961 613.804 22.4961 612.79C22.4961 611.771 22.2969 611.003 21.8984 610.487C21.5 609.972 20.9082 609.714 20.123 609.714Z" fill="white"/>
<circle cx="20" cy="783" r="16" fill="#7B58CF"/>
<circle cx="20" cy="783" r="18" stroke="#7B58CF" stroke-opacity="0.3" stroke-width="4"/>
<path d="M15.7988 775.878H24.0605V776.634L19.3672 789H17.5127L22.083 777.372H15.7988V775.878Z" fill="white"/>
<defs>
<clipPath id="clip0_16082_30717">
<rect width="25" height="23.7037" fill="white" transform="translate(38.5 7.90123)"/>
</clipPath>
<clipPath id="clip1_16082_30717">
<rect width="16" height="16" fill="white" transform="translate(43 362)"/>
</clipPath>
<clipPath id="clip2_16082_30717">
<rect width="16" height="16" fill="white" transform="translate(43 394)"/>
</clipPath>
<clipPath id="clip3_16082_30717">
<rect width="16" height="16" fill="white" transform="translate(43 426)"/>
</clipPath>
<clipPath id="clip4_16082_30717">
<rect width="16" height="16" fill="white" transform="translate(43 458)"/>
</clipPath>
<clipPath id="clip5_16082_30717">
<rect width="16" height="16" fill="white" transform="translate(43 490)"/>
</clipPath>
<clipPath id="clip6_16082_30717">
<rect width="16" height="16" fill="white" transform="translate(43 522)"/>
</clipPath>
<clipPath id="clip7_16082_30717">
<rect width="16" height="16" fill="white" transform="translate(43 554)"/>
</clipPath>
<clipPath id="clip8_16082_30717">
<rect width="16" height="16" fill="white" transform="translate(43 773)"/>
</clipPath>
</defs>
</svg>
