<svg width="399" height="128" fill="none" xmlns="http://www.w3.org/2000/svg"><path fill="#fff" d="M0 0h399v128H0z"/><g clip-path="url(#pagination-structure__a)"><rect x="22" y="36" width="355" height="32" rx="4" fill="#fff"/><path d="M44.707 47.707a1 1 0 0 0-1.414-1.414l-5 5a1 1 0 0 0 0 1.414l5 5a1 1 0 0 0 1.414-1.414L40.414 52l4.293-4.293Z" fill="#89888D"/><rect x="54" y="48" width="40" height="8" rx="2" fill="#89888D"/><path fill="#C4C4C4" d="M106 36h1v32h-1z"/><rect x="119" y="48" width="12" height="8" rx="2" fill="#89888D"/><path fill="#C4C4C4" d="M143 36h1v32h-1z"/><path fill="#1F75CB" d="M144 36h36v32h-36z"/><rect x="156" y="48" width="12" height="8" rx="2" fill="#fff"/><path fill="#C4C4C4" d="M180 36h1v32h-1z"/><rect x="193" y="48" width="12" height="8" rx="2" fill="#89888D"/><path fill="#C4C4C4" d="M217 36h1v32h-1z"/><path fill="#ECECEF" d="M218 36h37v32h-37z"/><path d="M232.467 57.089a.92.92 0 1 1 .923-.923.923.923 0 0 1-.923.923Zm4.026 0a.92.92 0 1 1 .923-.923.923.923 0 0 1-.923.923Zm4.027 0a.92.92 0 0 1 0-1.839c.505 0 .922.41.922.916a.923.923 0 0 1-.922.923Z" fill="#89888D"/><path fill="#C4C4C4" d="M255 36h1v32h-1z"/><rect x="268" y="48" width="12" height="8" rx="2" fill="#89888D"/><path fill="#C4C4C4" d="M292 36h1v32h-1z"/><rect x="305" y="48" width="40" height="8" rx="2" fill="#89888D"/><path d="M354.293 47.707a1 1 0 1 1 1.414-1.414l5 5a1 1 0 0 1 0 1.414l-5 5a1 1 0 1 1-1.414-1.414L358.586 52l-4.293-4.293Z" fill="#89888D"/></g><rect x="22.5" y="36.5" width="354" height="31" rx="3.5" stroke="#BFBFC3"/><rect x="163" y="84" width="72" height="8" rx="2" fill="#89888D"/><circle cx="199" cy="108" r="16" fill="#7B58CF"/><circle cx="199" cy="108" r="18" stroke="#7B58CF" stroke-opacity=".3" stroke-width="4"/><path d="M199.004 114.18c-.828 0-1.56-.162-2.196-.486a3.702 3.702 0 0 1-1.494-1.35c-.348-.588-.522-1.26-.522-2.016 0-.552.108-1.056.324-1.512a3.1 3.1 0 0 1 .9-1.134c.396-.312.858-.51 1.386-.594v-.054c-.684-.156-1.23-.498-1.638-1.026a2.994 2.994 0 0 1-.612-1.854c0-.684.162-1.284.486-1.8a3.254 3.254 0 0 1 1.35-1.224c.588-.3 1.26-.45 2.016-.45.768 0 1.44.15 2.016.45a3.254 3.254 0 0 1 1.35 1.224c.324.516.486 1.116.486 1.8 0 .696-.204 1.314-.612 1.854-.408.528-.954.87-1.638 1.026v.054c.528.084.984.282 1.368.594.396.3.702.678.918 1.134.216.456.324.96.324 1.512 0 .756-.18 1.428-.54 2.016a3.577 3.577 0 0 1-1.476 1.35c-.624.324-1.356.486-2.196.486Zm0-1.458c.768 0 1.392-.222 1.872-.666.48-.456.72-1.044.72-1.764 0-.732-.24-1.32-.72-1.764-.48-.456-1.104-.684-1.872-.684s-1.392.228-1.872.684c-.48.444-.72 1.032-.72 1.764 0 .72.24 1.308.72 1.764.48.444 1.104.666 1.872.666Zm0-6.318c.672 0 1.212-.198 1.62-.594.408-.396.612-.912.612-1.548s-.204-1.152-.612-1.548c-.408-.396-.948-.594-1.62-.594-.66 0-1.2.198-1.62.594-.408.396-.612.912-.612 1.548s.204 1.152.612 1.548c.42.396.96.594 1.62.594Z" fill="#fff"/><circle cx="379" cy="52" r="16" fill="#7B58CF"/><circle cx="379" cy="52" r="18" stroke="#7B58CF" stroke-opacity=".3" stroke-width="4"/><path d="m377.024 58 4.68-11.664H376.7v2.124h-1.62v-3.6h8.352v1.512L378.788 58h-1.764Z" fill="#fff"/><circle cx="325" cy="72" r="16" fill="#7B58CF"/><circle cx="325" cy="72" r="18" stroke="#7B58CF" stroke-opacity=".3" stroke-width="4"/><path d="M325.022 78.18c-.84 0-1.584-.174-2.232-.522a3.922 3.922 0 0 1-1.494-1.476c-.36-.636-.54-1.368-.54-2.196 0-.576.108-1.164.324-1.764.216-.612.51-1.248.882-1.908l3.042-5.454h1.8l-3.24 5.634.054.036c.156-.204.39-.36.702-.468a3.118 3.118 0 0 1 1.026-.162c.78 0 1.458.174 2.034.522a3.501 3.501 0 0 1 1.368 1.404c.336.6.504 1.296.504 2.088 0 .84-.18 1.584-.54 2.232a3.885 3.885 0 0 1-1.494 1.494c-.624.36-1.356.54-2.196.54Zm-.018-1.44c.528 0 .984-.114 1.368-.342.396-.24.702-.57.918-.99.228-.42.342-.906.342-1.458 0-.552-.114-1.038-.342-1.458a2.317 2.317 0 0 0-.918-.972c-.384-.24-.84-.36-1.368-.36-.516 0-.972.12-1.368.36a2.435 2.435 0 0 0-.936.972c-.216.42-.324.906-.324 1.458 0 .552.108 1.038.324 1.458.228.42.54.75.936.99.396.228.852.342 1.368.342Z" fill="#fff"/><circle cx="237" cy="20" r="16" fill="#7B58CF"/><circle cx="237" cy="20" r="18" stroke="#7B58CF" stroke-opacity=".3" stroke-width="4"/><path d="M236.896 26.18c-1.212 0-2.172-.336-2.88-1.008-.708-.684-1.062-1.608-1.062-2.772h1.62c0 .72.21 1.29.63 1.71.42.42.99.63 1.71.63s1.29-.21 1.71-.63c.42-.42.63-.99.63-1.71v-.81c0-.72-.204-1.29-.612-1.71-.408-.42-.96-.63-1.656-.63h-3.582v-6.39h7.002v1.476h-5.49l.036 3.438h2.124c1.212 0 2.148.336 2.808 1.008.66.66.99 1.596.99 2.808v.81c0 1.164-.36 2.088-1.08 2.772-.708.672-1.674 1.008-2.898 1.008Z" fill="#fff"/><circle cx="162" cy="20" r="16" fill="#7B58CF"/><circle cx="162" cy="20" r="18" stroke="#7B58CF" stroke-opacity=".3" stroke-width="4"/><path d="M163.804 26v-2.88h-5.94v-2.538l4.788-7.722h1.836l-5.004 8.082v.702h4.32V18.44h1.62V26h-1.62Z" fill="#fff"/><circle cx="125" cy="84" r="16" fill="#7B58CF"/><circle cx="125" cy="84" r="18" stroke="#7B58CF" stroke-opacity=".3" stroke-width="4"/><path d="M124.806 90.18c-1.212 0-2.172-.336-2.88-1.008-.708-.684-1.062-1.608-1.062-2.772h1.62c0 .72.21 1.29.63 1.71.42.42.99.63 1.71.63s1.29-.21 1.71-.63c.42-.42.63-.99.63-1.71v-.9c0-.72-.21-1.29-.63-1.71-.42-.42-.99-.63-1.71-.63h-1.422v-1.404l3.222-3.42h-5.4V76.86h7.236v1.512l-3.6 3.834v-.486c1.212 0 2.166.342 2.862 1.026.708.672 1.062 1.59 1.062 2.754v.9c0 1.164-.36 2.088-1.08 2.772-.708.672-1.674 1.008-2.898 1.008Z" fill="#fff"/><circle cx="74" cy="72" r="16" fill="#7B58CF"/><circle cx="74" cy="72" r="18" stroke="#7B58CF" stroke-opacity=".3" stroke-width="4"/><path d="M70.151 78v-1.494l4.374-4.68c.636-.672 1.087-1.272 1.35-1.8.264-.528.397-1.044.397-1.548 0-.72-.21-1.29-.63-1.71-.408-.432-.966-.648-1.674-.648-.733 0-1.315.222-1.746.666-.42.432-.63 1.02-.63 1.764h-1.62c.024-.792.204-1.476.54-2.052a3.41 3.41 0 0 1 1.385-1.35c.588-.312 1.278-.468 2.07-.468.817 0 1.519.156 2.106.468a3.325 3.325 0 0 1 1.369 1.332c.324.564.486 1.236.486 2.016 0 .624-.174 1.284-.522 1.98-.337.696-.919 1.476-1.747 2.34l-3.546 3.708h5.977V78h-7.94Z" fill="#fff"/><circle cx="20" cy="52" r="16" fill="#7B58CF"/><circle cx="20" cy="52" r="18" stroke="#7B58CF" stroke-opacity=".3" stroke-width="4"/><path d="M16.224 58v-1.476h3.564v-10.26l-3.564 2.664v-1.854l2.97-2.214h2.213v11.664h2.916V58h-8.1Z" fill="#fff"/><defs><clipPath id="pagination-structure__a"><rect x="22" y="36" width="355" height="32" rx="4" fill="#fff"/></clipPath></defs></svg>