<svg width="399" height="128" viewBox="0 0 399 128" fill="none" xmlns="http://www.w3.org/2000/svg">
<rect width="399" height="128" fill="white"/>
<g clip-path="url(#clip0_743_12576)">
<rect x="22" y="36" width="355" height="32" rx="4" fill="white"/>
<path d="M44.7071 47.7071C45.0976 47.3166 45.0976 46.6834 44.7071 46.2929C44.3166 45.9024 43.6834 45.9024 43.2929 46.2929L38.2929 51.2929C37.9024 51.6834 37.9024 52.3166 38.2929 52.7071L43.2929 57.7071C43.6834 58.0976 44.3166 58.0976 44.7071 57.7071C45.0976 57.3166 45.0976 56.6834 44.7071 56.2929L40.4142 52L44.7071 47.7071Z" fill="#89888D"/>
<rect x="54" y="48" width="40" height="8" rx="2" fill="#89888D"/>
<rect x="106" y="36" width="1" height="32" fill="#C4C4C4"/>
<rect x="119" y="48" width="12" height="8" rx="2" fill="#89888D"/>
<rect x="143" y="36" width="1" height="32" fill="#C4C4C4"/>
<rect width="36" height="32" transform="translate(144 36)" fill="#1F75CB"/>
<rect x="156" y="48" width="12" height="8" rx="2" fill="white"/>
<rect x="180" y="36" width="1" height="32" fill="#C4C4C4"/>
<rect x="193" y="48" width="12" height="8" rx="2" fill="#89888D"/>
<rect x="217" y="36" width="1" height="32" fill="#C4C4C4"/>
<rect width="37" height="32" transform="translate(218 36)" fill="#ECECEF"/>
<path d="M232.467 57.0889C231.961 57.0889 231.551 56.6719 231.551 56.166C231.551 55.6602 231.968 55.25 232.467 55.25C232.973 55.25 233.39 55.6602 233.39 56.166C233.39 56.6787 232.973 57.0889 232.467 57.0889ZM236.493 57.0889C235.987 57.0889 235.577 56.6719 235.577 56.166C235.577 55.6602 235.994 55.25 236.493 55.25C236.999 55.25 237.416 55.6602 237.416 56.166C237.416 56.6787 236.999 57.0889 236.493 57.0889ZM240.52 57.0889C240.014 57.0889 239.604 56.6719 239.604 56.166C239.604 55.6602 240.021 55.25 240.52 55.25C241.025 55.25 241.442 55.6602 241.442 56.166C241.442 56.6787 241.025 57.0889 240.52 57.0889Z" fill="#89888D"/>
<rect x="255" y="36" width="1" height="32" fill="#C4C4C4"/>
<rect x="268" y="48" width="12" height="8" rx="2" fill="#89888D"/>
<rect x="292" y="36" width="1" height="32" fill="#C4C4C4"/>
<rect x="305" y="48" width="40" height="8" rx="2" fill="#89888D"/>
<path d="M354.293 47.7071C353.902 47.3166 353.902 46.6834 354.293 46.2929C354.683 45.9024 355.317 45.9024 355.707 46.2929L360.707 51.2929C361.098 51.6834 361.098 52.3166 360.707 52.7071L355.707 57.7071C355.317 58.0976 354.683 58.0976 354.293 57.7071C353.902 57.3166 353.902 56.6834 354.293 56.2929L358.586 52L354.293 47.7071Z" fill="#89888D"/>
</g>
<rect x="22.5" y="36.5" width="354" height="31" rx="3.5" stroke="#BFBFC3"/>
<rect x="163" y="84" width="72" height="8" rx="2" fill="#89888D"/>
<circle cx="199" cy="108" r="16" fill="#7B58CF"/>
<circle cx="199" cy="108" r="18" stroke="#7B58CF" stroke-opacity="0.3" stroke-width="4"/>
<path d="M199.004 114.18C198.176 114.18 197.444 114.018 196.808 113.694C196.172 113.37 195.674 112.92 195.314 112.344C194.966 111.756 194.792 111.084 194.792 110.328C194.792 109.776 194.9 109.272 195.116 108.816C195.332 108.36 195.632 107.982 196.016 107.682C196.412 107.37 196.874 107.172 197.402 107.088V107.034C196.718 106.878 196.172 106.536 195.764 106.008C195.356 105.468 195.152 104.85 195.152 104.154C195.152 103.47 195.314 102.87 195.638 102.354C195.962 101.826 196.412 101.418 196.988 101.13C197.576 100.83 198.248 100.68 199.004 100.68C199.772 100.68 200.444 100.83 201.02 101.13C201.596 101.418 202.046 101.826 202.37 102.354C202.694 102.87 202.856 103.47 202.856 104.154C202.856 104.85 202.652 105.468 202.244 106.008C201.836 106.536 201.29 106.878 200.606 107.034V107.088C201.134 107.172 201.59 107.37 201.974 107.682C202.37 107.982 202.676 108.36 202.892 108.816C203.108 109.272 203.216 109.776 203.216 110.328C203.216 111.084 203.036 111.756 202.676 112.344C202.328 112.92 201.836 113.37 201.2 113.694C200.576 114.018 199.844 114.18 199.004 114.18ZM199.004 112.722C199.772 112.722 200.396 112.5 200.876 112.056C201.356 111.6 201.596 111.012 201.596 110.292C201.596 109.56 201.356 108.972 200.876 108.528C200.396 108.072 199.772 107.844 199.004 107.844C198.236 107.844 197.612 108.072 197.132 108.528C196.652 108.972 196.412 109.56 196.412 110.292C196.412 111.012 196.652 111.6 197.132 112.056C197.612 112.5 198.236 112.722 199.004 112.722ZM199.004 106.404C199.676 106.404 200.216 106.206 200.624 105.81C201.032 105.414 201.236 104.898 201.236 104.262C201.236 103.626 201.032 103.11 200.624 102.714C200.216 102.318 199.676 102.12 199.004 102.12C198.344 102.12 197.804 102.318 197.384 102.714C196.976 103.11 196.772 103.626 196.772 104.262C196.772 104.898 196.976 105.414 197.384 105.81C197.804 106.206 198.344 106.404 199.004 106.404Z" fill="white"/>
<circle cx="379" cy="52" r="16" fill="#7B58CF"/>
<circle cx="379" cy="52" r="18" stroke="#7B58CF" stroke-opacity="0.3" stroke-width="4"/>
<path d="M377.024 58L381.704 46.336H376.7V48.46H375.08V44.86H383.432V46.372L378.788 58H377.024Z" fill="white"/>
<circle cx="325" cy="72" r="16" fill="#7B58CF"/>
<circle cx="325" cy="72" r="18" stroke="#7B58CF" stroke-opacity="0.3" stroke-width="4"/>
<path d="M325.022 78.18C324.182 78.18 323.438 78.006 322.79 77.658C322.154 77.298 321.656 76.806 321.296 76.182C320.936 75.546 320.756 74.814 320.756 73.986C320.756 73.41 320.864 72.822 321.08 72.222C321.296 71.61 321.59 70.974 321.962 70.314L325.004 64.86H326.804L323.564 70.494L323.618 70.53C323.774 70.326 324.008 70.17 324.32 70.062C324.632 69.954 324.974 69.9 325.346 69.9C326.126 69.9 326.804 70.074 327.38 70.422C327.968 70.758 328.424 71.226 328.748 71.826C329.084 72.426 329.252 73.122 329.252 73.914C329.252 74.754 329.072 75.498 328.712 76.146C328.352 76.782 327.854 77.28 327.218 77.64C326.594 78 325.862 78.18 325.022 78.18ZM325.004 76.74C325.532 76.74 325.988 76.626 326.372 76.398C326.768 76.158 327.074 75.828 327.29 75.408C327.518 74.988 327.632 74.502 327.632 73.95C327.632 73.398 327.518 72.912 327.29 72.492C327.074 72.072 326.768 71.748 326.372 71.52C325.988 71.28 325.532 71.16 325.004 71.16C324.488 71.16 324.032 71.28 323.636 71.52C323.24 71.748 322.928 72.072 322.7 72.492C322.484 72.912 322.376 73.398 322.376 73.95C322.376 74.502 322.484 74.988 322.7 75.408C322.928 75.828 323.24 76.158 323.636 76.398C324.032 76.626 324.488 76.74 325.004 76.74Z" fill="white"/>
<circle cx="237" cy="20" r="16" fill="#7B58CF"/>
<circle cx="237" cy="20" r="18" stroke="#7B58CF" stroke-opacity="0.3" stroke-width="4"/>
<path d="M236.896 26.18C235.684 26.18 234.724 25.844 234.016 25.172C233.308 24.488 232.954 23.564 232.954 22.4H234.574C234.574 23.12 234.784 23.69 235.204 24.11C235.624 24.53 236.194 24.74 236.914 24.74C237.634 24.74 238.204 24.53 238.624 24.11C239.044 23.69 239.254 23.12 239.254 22.4V21.59C239.254 20.87 239.05 20.3 238.642 19.88C238.234 19.46 237.682 19.25 236.986 19.25H233.404V12.86H240.406V14.336H234.916L234.952 17.774H237.076C238.288 17.774 239.224 18.11 239.884 18.782C240.544 19.442 240.874 20.378 240.874 21.59V22.4C240.874 23.564 240.514 24.488 239.794 25.172C239.086 25.844 238.12 26.18 236.896 26.18Z" fill="white"/>
<circle cx="162" cy="20" r="16" fill="#7B58CF"/>
<circle cx="162" cy="20" r="18" stroke="#7B58CF" stroke-opacity="0.3" stroke-width="4"/>
<path d="M163.804 26V23.12H157.864V20.582L162.652 12.86H164.488L159.484 20.942V21.644H163.804V18.44H165.424V26H163.804Z" fill="white"/>
<circle cx="125" cy="84" r="16" fill="#7B58CF"/>
<circle cx="125" cy="84" r="18" stroke="#7B58CF" stroke-opacity="0.3" stroke-width="4"/>
<path d="M124.806 90.18C123.594 90.18 122.634 89.844 121.926 89.172C121.218 88.488 120.864 87.564 120.864 86.4H122.484C122.484 87.12 122.694 87.69 123.114 88.11C123.534 88.53 124.104 88.74 124.824 88.74C125.544 88.74 126.114 88.53 126.534 88.11C126.954 87.69 127.164 87.12 127.164 86.4V85.5C127.164 84.78 126.954 84.21 126.534 83.79C126.114 83.37 125.544 83.16 124.824 83.16H123.402V81.756L126.624 78.336H121.224V76.86H128.46V78.372L124.86 82.206V81.72C126.072 81.72 127.026 82.062 127.722 82.746C128.43 83.418 128.784 84.336 128.784 85.5V86.4C128.784 87.564 128.424 88.488 127.704 89.172C126.996 89.844 126.03 90.18 124.806 90.18Z" fill="white"/>
<circle cx="74" cy="72" r="16" fill="#7B58CF"/>
<circle cx="74" cy="72" r="18" stroke="#7B58CF" stroke-opacity="0.3" stroke-width="4"/>
<path d="M70.1515 78V76.506L74.5255 71.826C75.1615 71.154 75.6115 70.554 75.8755 70.026C76.1395 69.498 76.2715 68.982 76.2715 68.478C76.2715 67.758 76.0615 67.188 75.6415 66.768C75.2335 66.336 74.6755 66.12 73.9675 66.12C73.2355 66.12 72.6535 66.342 72.2215 66.786C71.8015 67.218 71.5915 67.806 71.5915 68.55H69.9715C69.9955 67.758 70.1755 67.074 70.5115 66.498C70.8475 65.91 71.3095 65.46 71.8975 65.148C72.4855 64.836 73.1755 64.68 73.9675 64.68C74.7835 64.68 75.4855 64.836 76.0735 65.148C76.6615 65.46 77.1175 65.904 77.4415 66.48C77.7655 67.044 77.9275 67.716 77.9275 68.496C77.9275 69.12 77.7535 69.78 77.4055 70.476C77.0695 71.172 76.4875 71.952 75.6595 72.816L72.1135 76.524H78.0895V78H70.1515Z" fill="white"/>
<circle cx="20" cy="52" r="16" fill="#7B58CF"/>
<circle cx="20" cy="52" r="18" stroke="#7B58CF" stroke-opacity="0.3" stroke-width="4"/>
<path d="M16.2235 58V56.524H19.7875V46.264L16.2235 48.928V47.074L19.1935 44.86H21.4075V56.524H24.3235V58H16.2235Z" fill="white"/>
<defs>
<clipPath id="clip0_743_12576">
<rect x="22" y="36" width="355" height="32" rx="4" fill="white"/>
</clipPath>
</defs>
</svg>
