<svg width="400" height="125" viewBox="0 0 400 125" fill="none" xmlns="http://www.w3.org/2000/svg">
<rect width="400" height="125" fill="white"/>
<rect x="22.5" y="32.5" width="355" height="31" rx="3.5" fill="white"/>
<path d="M44.7071 43.7071C45.0976 43.3166 45.0976 42.6834 44.7071 42.2929C44.3166 41.9024 43.6834 41.9024 43.2929 42.2929L38.2929 47.2929C37.9024 47.6834 37.9024 48.3166 38.2929 48.7071L43.2929 53.7071C43.6834 54.0976 44.3166 54.0976 44.7071 53.7071C45.0976 53.3166 45.0976 52.6834 44.7071 52.2929L40.4142 48L44.7071 43.7071Z" fill="#868686"/>
<rect x="54" y="44" width="40" height="8" rx="2" fill="#868686"/>
<rect x="106" y="32" width="1" height="32" fill="#C4C4C4"/>
<rect x="119" y="44" width="12" height="8" rx="2" fill="#868686"/>
<rect x="143" y="32" width="1" height="32" fill="#C4C4C4"/>
<rect width="36" height="32" transform="translate(144 32)" fill="#1F75CB"/>
<rect x="156" y="44" width="12" height="8" rx="2" fill="white"/>
<rect x="180" y="32" width="1" height="32" fill="#C4C4C4"/>
<rect x="193" y="44" width="12" height="8" rx="2" fill="#868686"/>
<rect x="217" y="32" width="1" height="32" fill="#C4C4C4"/>
<rect width="38" height="32" transform="translate(218 32)" fill="#F0F0F0"/>
<path d="M240.878 51.446V53H242.432V51.446H240.878ZM236.216 51.446V53H237.77V51.446H236.216ZM231.554 51.446V53H233.108V51.446H231.554Z" fill="#868686"/>
<rect x="256" y="32" width="1" height="32" fill="#C4C4C4"/>
<rect x="269" y="44" width="12" height="8" rx="2" fill="#868686"/>
<rect x="293" y="32" width="1" height="32" fill="#C4C4C4"/>
<rect x="306" y="44" width="40" height="8" rx="2" fill="#868686"/>
<path d="M355.293 43.7071C354.902 43.3166 354.902 42.6834 355.293 42.2929C355.683 41.9024 356.317 41.9024 356.707 42.2929L361.707 47.2929C362.098 47.6834 362.098 48.3166 361.707 48.7071L356.707 53.7071C356.317 54.0976 355.683 54.0976 355.293 53.7071C354.902 53.3166 354.902 52.6834 355.293 52.2929L359.586 48L355.293 43.7071Z" fill="#868686"/>
<rect x="22.5" y="32.5" width="355" height="31" rx="3.5" stroke="#BFBFBF"/>
<rect x="162" y="80" width="72" height="8" rx="2" fill="#868686"/>
<circle cx="198" cy="105" r="16" fill="#7B58CF"/>
<circle cx="198" cy="105" r="18" stroke="#7B58CF" stroke-opacity="0.3" stroke-width="4"/>
<path d="M197.991 104.769C197.2 104.769 196.588 104.991 196.154 105.437C195.727 105.876 195.513 106.5 195.513 107.309C195.513 108.117 195.729 108.747 196.163 109.198C196.603 109.644 197.212 109.866 197.991 109.866C198.788 109.866 199.4 109.646 199.828 109.207C200.262 108.762 200.479 108.129 200.479 107.309C200.479 106.506 200.259 105.882 199.819 105.437C199.386 104.991 198.776 104.769 197.991 104.769ZM196.444 104.03C195.688 103.837 195.097 103.477 194.669 102.949C194.247 102.422 194.036 101.786 194.036 101.042C194.036 99.999 194.391 99.1729 195.1 98.5635C195.809 97.9482 196.772 97.6406 197.991 97.6406C199.216 97.6406 200.183 97.9482 200.892 98.5635C201.601 99.1729 201.955 99.999 201.955 101.042C201.955 101.786 201.741 102.422 201.313 102.949C200.892 103.477 200.303 103.837 199.547 104.03C200.426 104.224 201.097 104.613 201.56 105.199C202.028 105.785 202.263 106.544 202.263 107.476C202.263 108.659 201.885 109.585 201.129 110.253C200.373 110.921 199.327 111.255 197.991 111.255C196.655 111.255 195.609 110.924 194.854 110.262C194.104 109.594 193.729 108.671 193.729 107.493C193.729 106.556 193.96 105.794 194.423 105.208C194.892 104.616 195.565 104.224 196.444 104.03ZM195.803 101.209C195.803 101.912 195.99 102.448 196.365 102.817C196.74 103.187 197.282 103.371 197.991 103.371C198.706 103.371 199.251 103.187 199.626 102.817C200.001 102.448 200.188 101.912 200.188 101.209C200.188 100.494 200.001 99.9492 199.626 99.5742C199.257 99.1992 198.712 99.0117 197.991 99.0117C197.282 99.0117 196.74 99.2021 196.365 99.583C195.99 99.958 195.803 100.5 195.803 101.209Z" fill="white"/>
<circle cx="380" cy="48" r="16" fill="#7B58CF"/>
<circle cx="380" cy="48" r="18" stroke="#7B58CF" stroke-opacity="0.3" stroke-width="4"/>
<path d="M375.799 40.8779H384.061V41.6338L379.367 54H377.513L382.083 42.3721H375.799V40.8779Z" fill="white"/>
<circle cx="326" cy="20" r="16" fill="#7B58CF"/>
<circle cx="326" cy="20" r="18" stroke="#7B58CF" stroke-opacity="0.3" stroke-width="4"/>
<path d="M329.287 13.168V14.8027C328.918 14.5859 328.525 14.4219 328.109 14.3105C327.693 14.1934 327.26 14.1348 326.809 14.1348C325.684 14.1348 324.831 14.5596 324.251 15.4092C323.671 16.2529 323.381 17.498 323.381 19.1445C323.662 18.5586 324.052 18.1104 324.55 17.7998C325.048 17.4834 325.619 17.3252 326.264 17.3252C327.529 17.3252 328.508 17.7148 329.199 18.4941C329.896 19.2676 330.245 20.3662 330.245 21.79C330.245 23.208 329.888 24.3066 329.173 25.0859C328.458 25.8652 327.453 26.2549 326.158 26.2549C324.635 26.2549 323.519 25.71 322.81 24.6201C322.101 23.5244 321.746 21.8018 321.746 19.4521C321.746 17.2373 322.171 15.5498 323.021 14.3896C323.876 13.2236 325.112 12.6406 326.729 12.6406C327.163 12.6406 327.597 12.6875 328.03 12.7812C328.464 12.8691 328.883 12.998 329.287 13.168ZM326.123 18.7139C325.367 18.7139 324.772 18.9863 324.339 19.5312C323.905 20.0762 323.688 20.8291 323.688 21.79C323.688 22.751 323.905 23.5039 324.339 24.0488C324.772 24.5938 325.367 24.8662 326.123 24.8662C326.908 24.8662 327.5 24.6084 327.898 24.0928C328.297 23.5713 328.496 22.8037 328.496 21.79C328.496 20.7705 328.297 20.0029 327.898 19.4873C327.5 18.9717 326.908 18.7139 326.123 18.7139Z" fill="white"/>
<circle cx="237" cy="20" r="16" fill="#7B58CF"/>
<circle cx="237" cy="20" r="18" stroke="#7B58CF" stroke-opacity="0.3" stroke-width="4"/>
<path d="M233.396 12.8779H240.041V14.3721H235.014V17.5977C235.266 17.5039 235.518 17.4365 235.77 17.3955C236.027 17.3486 236.285 17.3252 236.543 17.3252C237.902 17.3252 238.98 17.7266 239.777 18.5293C240.574 19.332 240.973 20.4189 240.973 21.79C240.973 23.1729 240.554 24.2627 239.716 25.0596C238.884 25.8564 237.744 26.2549 236.297 26.2549C235.6 26.2549 234.961 26.208 234.381 26.1143C233.807 26.0205 233.291 25.8799 232.834 25.6924V23.8906C233.373 24.1836 233.915 24.4033 234.46 24.5498C235.005 24.6904 235.562 24.7607 236.13 24.7607C237.108 24.7607 237.861 24.5029 238.389 23.9873C238.922 23.4717 239.188 22.7393 239.188 21.79C239.188 20.8525 238.913 20.123 238.362 19.6016C237.817 19.0801 237.056 18.8193 236.077 18.8193C235.603 18.8193 235.14 18.875 234.688 18.9863C234.237 19.0918 233.807 19.2529 233.396 19.4697V12.8779Z" fill="white"/>
<circle cx="162" cy="20" r="16" fill="#7B58CF"/>
<circle cx="162" cy="20" r="18" stroke="#7B58CF" stroke-opacity="0.3" stroke-width="4"/>
<path d="M163.037 14.4951L158.897 21.4297H163.037V14.4951ZM162.747 12.8779H164.804V21.4297H166.553V22.8711H164.804V26H163.037V22.8711H157.474V21.1924L162.747 12.8779Z" fill="white"/>
<circle cx="125" cy="71" r="16" fill="#7B58CF"/>
<circle cx="125" cy="71" r="18" stroke="#7B58CF" stroke-opacity="0.3" stroke-width="4"/>
<path d="M126.397 69.9775C127.259 70.2061 127.918 70.6133 128.375 71.1992C128.832 71.7793 129.061 72.5059 129.061 73.3789C129.061 74.5859 128.653 75.5352 127.839 76.2266C127.03 76.9121 125.908 77.2549 124.473 77.2549C123.869 77.2549 123.254 77.1992 122.627 77.0879C122 76.9766 121.385 76.8154 120.781 76.6045V74.8379C121.379 75.1484 121.968 75.3799 122.548 75.5322C123.128 75.6846 123.705 75.7607 124.279 75.7607C125.252 75.7607 125.999 75.541 126.521 75.1016C127.042 74.6621 127.303 74.0293 127.303 73.2031C127.303 72.4414 127.042 71.8379 126.521 71.3926C125.999 70.9414 125.293 70.7158 124.402 70.7158H123.049V69.2568H124.402C125.217 69.2568 125.853 69.0781 126.31 68.7207C126.767 68.3633 126.995 67.8652 126.995 67.2266C126.995 66.5527 126.781 66.0371 126.354 65.6797C125.932 65.3164 125.328 65.1348 124.543 65.1348C124.021 65.1348 123.482 65.1934 122.926 65.3105C122.369 65.4277 121.786 65.6035 121.177 65.8379V64.2031C121.886 64.0156 122.516 63.875 123.066 63.7812C123.623 63.6875 124.115 63.6406 124.543 63.6406C125.82 63.6406 126.84 63.9629 127.602 64.6074C128.369 65.2461 128.753 66.0957 128.753 67.1562C128.753 67.877 128.551 68.4775 128.146 68.958C127.748 69.4385 127.165 69.7783 126.397 69.9775Z" fill="white"/>
<circle cx="74" cy="71" r="16" fill="#7B58CF"/>
<circle cx="74" cy="71" r="18" stroke="#7B58CF" stroke-opacity="0.3" stroke-width="4"/>
<path d="M71.8555 75.5059H77.8848V77H69.9131V75.5059C71.0088 74.3516 71.9668 73.332 72.7871 72.4473C73.6074 71.5625 74.1729 70.9385 74.4834 70.5752C75.0693 69.8604 75.4648 69.2832 75.6699 68.8438C75.875 68.3984 75.9775 67.9443 75.9775 67.4814C75.9775 66.749 75.7607 66.1748 75.3271 65.7588C74.8994 65.3428 74.3105 65.1348 73.5605 65.1348C73.0273 65.1348 72.4678 65.2314 71.8818 65.4248C71.2959 65.6182 70.6748 65.9111 70.0186 66.3037V64.5107C70.6221 64.2236 71.2139 64.0068 71.7939 63.8604C72.3799 63.7139 72.957 63.6406 73.5254 63.6406C74.8086 63.6406 75.8398 63.9834 76.6191 64.6689C77.4043 65.3486 77.7969 66.2422 77.7969 67.3496C77.7969 67.9121 77.665 68.4746 77.4014 69.0371C77.1436 69.5996 76.7217 70.2207 76.1357 70.9004C75.8076 71.2812 75.3301 71.8086 74.7031 72.4824C74.082 73.1562 73.1328 74.1641 71.8555 75.5059Z" fill="white"/>
<circle cx="20" cy="48" r="16" fill="#7B58CF"/>
<circle cx="20" cy="48" r="18" stroke="#7B58CF" stroke-opacity="0.3" stroke-width="4"/>
<path d="M16.9502 52.5146H19.71V42.6006L16.4053 44.1914V42.4863L19.6924 40.9219H21.4678V52.5146H24.1924V54H16.9502V52.5146Z" fill="white"/>
</svg>
