<svg width="264" height="147" viewBox="0 0 264 147" fill="none" xmlns="http://www.w3.org/2000/svg">
<rect x="33.5" y="24.5" width="210" height="79" rx="7.5" fill="white"/>
<rect x="33.5" y="24.5" width="210" height="79" rx="7.5" stroke="#A4A3A8"/>
<rect x="45" y="36" width="78" height="8" rx="2" fill="#535158"/>
<rect x="45" y="52" width="144" height="8" rx="2" fill="#89888D"/>
<rect x="45" y="68" width="173" height="8" rx="2" fill="#89888D"/>
<rect x="45" y="84" width="160" height="8" rx="2" fill="#89888D"/>
<path d="M230.95 36.4485C230.559 36.053 229.926 36.053 229.536 36.4485L228.121 37.8806L226.707 36.4485C226.317 36.053 225.683 36.053 225.293 36.4485C224.902 36.844 224.902 37.4851 225.293 37.8806L226.707 39.3127L225.293 40.7448C224.902 41.1403 224.902 41.7815 225.293 42.177C225.683 42.5724 226.317 42.5724 226.707 42.177L228.121 40.7448L229.536 42.177C229.926 42.5724 230.559 42.5724 230.95 42.177C231.34 41.7815 231.34 41.1403 230.95 40.7448L229.536 39.3127L230.95 37.8806C231.34 37.4851 231.34 36.844 230.95 36.4485Z" fill="#89888D"/>
<g filter="url(#filter0_i_38844_8)">
<path d="M132 108L136 104H132H128L132 108Z" fill="white"/>
</g>
<circle cx="132" cy="124" r="16" fill="#7B58CF"/>
<circle cx="132" cy="124" r="18" stroke="#7B58CF" stroke-opacity="0.3" stroke-width="4"/>
<path d="M131.896 130.18C130.684 130.18 129.724 129.844 129.016 129.172C128.308 128.488 127.954 127.564 127.954 126.4H129.574C129.574 127.12 129.784 127.69 130.204 128.11C130.624 128.53 131.194 128.74 131.914 128.74C132.634 128.74 133.204 128.53 133.624 128.11C134.044 127.69 134.254 127.12 134.254 126.4V125.59C134.254 124.87 134.05 124.3 133.642 123.88C133.234 123.46 132.682 123.25 131.986 123.25H128.404V116.86H135.406V118.336H129.916L129.952 121.774H132.076C133.288 121.774 134.224 122.11 134.884 122.782C135.544 123.442 135.874 124.378 135.874 125.59V126.4C135.874 127.564 135.514 128.488 134.794 129.172C134.086 129.844 133.12 130.18 131.896 130.18Z" fill="white"/>
<circle cx="29" cy="64" r="16" fill="#7B58CF"/>
<circle cx="29" cy="64" r="18" stroke="#7B58CF" stroke-opacity="0.3" stroke-width="4"/>
<path d="M30.8035 70V67.12H24.8635V64.582L29.6515 56.86H31.4875L26.4835 64.942V65.644H30.8035V62.44H32.4235V70H30.8035Z" fill="white"/>
<circle cx="244" cy="28" r="16" fill="#7B58CF"/>
<circle cx="244" cy="28" r="18" stroke="#7B58CF" stroke-opacity="0.3" stroke-width="4"/>
<path d="M243.806 34.18C242.594 34.18 241.634 33.844 240.926 33.172C240.218 32.488 239.864 31.564 239.864 30.4H241.484C241.484 31.12 241.694 31.69 242.114 32.11C242.534 32.53 243.104 32.74 243.824 32.74C244.544 32.74 245.114 32.53 245.534 32.11C245.954 31.69 246.164 31.12 246.164 30.4V29.5C246.164 28.78 245.954 28.21 245.534 27.79C245.114 27.37 244.544 27.16 243.824 27.16H242.402V25.756L245.624 22.336H240.224V20.86H247.46V22.372L243.86 26.206V25.72C245.072 25.72 246.026 26.062 246.722 26.746C247.43 27.418 247.784 28.336 247.784 29.5V30.4C247.784 31.564 247.424 32.488 246.704 33.172C245.996 33.844 245.03 34.18 243.806 34.18Z" fill="white"/>
<circle cx="100" cy="20" r="16" fill="#7B58CF"/>
<circle cx="100" cy="20" r="18" stroke="#7B58CF" stroke-opacity="0.3" stroke-width="4"/>
<path d="M96.1515 26V24.506L100.526 19.826C101.162 19.154 101.612 18.554 101.876 18.026C102.14 17.498 102.272 16.982 102.272 16.478C102.272 15.758 102.062 15.188 101.642 14.768C101.234 14.336 100.676 14.12 99.9675 14.12C99.2355 14.12 98.6535 14.342 98.2215 14.786C97.8015 15.218 97.5915 15.806 97.5915 16.55H95.9715C95.9955 15.758 96.1755 15.074 96.5115 14.498C96.8475 13.91 97.3095 13.46 97.8975 13.148C98.4855 12.836 99.1755 12.68 99.9675 12.68C100.784 12.68 101.486 12.836 102.074 13.148C102.662 13.46 103.118 13.904 103.442 14.48C103.766 15.044 103.928 15.716 103.928 16.496C103.928 17.12 103.754 17.78 103.406 18.476C103.07 19.172 102.488 19.952 101.66 20.816L98.1135 24.524H104.09V26H96.1515Z" fill="white"/>
<circle cx="20" cy="20" r="16" fill="#7B58CF"/>
<circle cx="20" cy="20" r="18" stroke="#7B58CF" stroke-opacity="0.3" stroke-width="4"/>
<path d="M16.2235 26V24.524H19.7875V14.264L16.2235 16.928V15.074L19.1935 12.86H21.4075V24.524H24.3235V26H16.2235Z" fill="white"/>
<defs>
<filter id="filter0_i_38844_8" x="128" y="104" width="8" height="4" filterUnits="userSpaceOnUse" color-interpolation-filters="sRGB">
<feFlood flood-opacity="0" result="BackgroundImageFix"/>
<feBlend mode="normal" in="SourceGraphic" in2="BackgroundImageFix" result="shape"/>
<feColorMatrix in="SourceAlpha" type="matrix" values="0 0 0 0 0 0 0 0 0 0 0 0 0 0 0 0 0 0 127 0" result="hardAlpha"/>
<feOffset dy="-2"/>
<feComposite in2="hardAlpha" operator="arithmetic" k2="-1" k3="1"/>
<feColorMatrix type="matrix" values="0 0 0 0 0.643137 0 0 0 0 0.639216 0 0 0 0 0.658824 0 0 0 1 0"/>
<feBlend mode="normal" in2="shape" result="effect1_innerShadow_38844_8"/>
</filter>
</defs>
</svg>
