<svg width="262" height="148" fill="none" xmlns="http://www.w3.org/2000/svg"><g clip-path="url(#popover-structure__a)"><rect x="28.5" y="29.5" width="210" height="79" rx="7.5" fill="#fff"/><rect x="28.5" y="29.5" width="210" height="79" rx="7.5" stroke="#A4A3A8"/><rect x="40" y="41" width="78" height="8" rx="2" fill="#535158"/><rect x="40" y="57" width="144" height="8" rx="2" fill="#89888D"/><rect x="40" y="73" width="173" height="8" rx="2" fill="#89888D"/><rect x="40" y="89" width="160" height="8" rx="2" fill="#89888D"/><g filter="url(#popover-structure__b)"><path d="m134 112 4-4h-8l4 4Z" fill="#fff"/></g><path d="M230.625 37.375c-.501-.5-1.312-.5-1.813 0L227 39.188l-1.812-1.813a1.282 1.282 0 0 0-1.813 1.813L225.188 41l-1.813 1.812a1.282 1.282 0 0 0 1.813 1.813L227 42.812l1.812 1.813a1.282 1.282 0 0 0 1.813-1.813L228.812 41l1.813-1.812c.5-.5.5-1.312 0-1.813Z" fill="#737278"/><circle cx="134" cy="128" r="16" fill="#7B58CF"/><circle cx="134" cy="128" r="18" stroke="#7B58CF" stroke-opacity=".3" stroke-width="4"/><path d="M133.896 134.18c-1.212 0-2.172-.336-2.88-1.008-.708-.684-1.062-1.608-1.062-2.772h1.62c0 .72.21 1.29.63 1.71.42.42.99.63 1.71.63s1.29-.21 1.71-.63c.42-.42.63-.99.63-1.71v-.81c0-.72-.204-1.29-.612-1.71-.408-.42-.96-.63-1.656-.63h-3.582v-6.39h7.002v1.476h-5.49l.036 3.438h2.124c1.212 0 2.148.336 2.808 1.008.66.66.99 1.596.99 2.808v.81c0 1.164-.36 2.088-1.08 2.772-.708.672-1.674 1.008-2.898 1.008Z" fill="#fff"/><circle cx="24" cy="77" r="16" fill="#7B58CF"/><circle cx="24" cy="77" r="18" stroke="#7B58CF" stroke-opacity=".3" stroke-width="4"/><path d="M25.803 83v-2.88h-5.94v-2.538l4.788-7.722h1.837l-5.005 8.082v.702h4.32V75.44h1.62V83h-1.62Z" fill="#fff"/><circle cx="242" cy="26" r="16" fill="#7B58CF"/><circle cx="242" cy="26" r="18" stroke="#7B58CF" stroke-opacity=".3" stroke-width="4"/><path d="M241.806 32.18c-1.212 0-2.172-.336-2.88-1.008-.708-.684-1.062-1.608-1.062-2.772h1.62c0 .72.21 1.29.63 1.71.42.42.99.63 1.71.63s1.29-.21 1.71-.63c.42-.42.63-.99.63-1.71v-.9c0-.72-.21-1.29-.63-1.71-.42-.42-.99-.63-1.71-.63h-1.422v-1.404l3.222-3.42h-5.4V18.86h7.236v1.512l-3.6 3.834v-.486c1.212 0 2.166.342 2.862 1.026.708.672 1.062 1.59 1.062 2.754v.9c0 1.164-.36 2.088-1.08 2.772-.708.672-1.674 1.008-2.898 1.008Z" fill="#fff"/><circle cx="79" cy="25" r="16" fill="#7B58CF"/><circle cx="79" cy="25" r="18" stroke="#7B58CF" stroke-opacity=".3" stroke-width="4"/><path d="M75.151 31v-1.494l4.374-4.68c.636-.672 1.087-1.272 1.35-1.8.264-.528.397-1.044.397-1.548 0-.72-.21-1.29-.63-1.71-.408-.432-.966-.648-1.674-.648-.733 0-1.315.222-1.746.666-.42.432-.63 1.02-.63 1.764h-1.62c.024-.792.204-1.476.54-2.052a3.41 3.41 0 0 1 1.385-1.35c.588-.312 1.278-.468 2.07-.468.817 0 1.519.156 2.106.468a3.325 3.325 0 0 1 1.369 1.332c.324.564.486 1.236.486 2.016 0 .624-.174 1.284-.522 1.98-.337.696-.919 1.476-1.747 2.34l-3.546 3.708h5.977V31h-7.94Z" fill="#fff"/><circle cx="20" cy="20" r="16" fill="#7B58CF"/><circle cx="20" cy="20" r="18" stroke="#7B58CF" stroke-opacity=".3" stroke-width="4"/><path d="M16.224 26v-1.476h3.564v-10.26l-3.564 2.664v-1.854l2.97-2.214h2.213v11.664h2.916V26h-8.1Z" fill="#fff"/></g><defs><clipPath id="popover-structure__a"><path fill="#fff" d="M0 0h262v148H0z"/></clipPath><filter id="popover-structure__b" x="130" y="108" width="8" height="4" filterUnits="userSpaceOnUse" color-interpolation-filters="sRGB"><feFlood flood-opacity="0" result="BackgroundImageFix"/><feBlend in="SourceGraphic" in2="BackgroundImageFix" result="shape"/><feColorMatrix in="SourceAlpha" values="0 0 0 0 0 0 0 0 0 0 0 0 0 0 0 0 0 0 127 0" result="hardAlpha"/><feOffset dy="-2"/><feComposite in2="hardAlpha" operator="arithmetic" k2="-1" k3="1"/><feColorMatrix values="0 0 0 0 0.643137 0 0 0 0 0.639216 0 0 0 0 0.658824 0 0 0 1 0"/><feBlend in2="shape" result="effect1_innerShadow_37881_30"/></filter></defs></svg>