<svg width="323" height="64" viewBox="0 0 323 64" fill="none" xmlns="http://www.w3.org/2000/svg">
<g clip-path="url(#clip0_47_1447)">
<rect width="323" height="64" fill="white"/>
<rect x="119.5" y="16.5" width="70" height="31" rx="3.5" fill="white"/>
<rect x="119.5" y="16.5" width="70" height="31" rx="3.5" stroke="#BFBFC3"/>
<path d="M136.353 37.1367C133.741 37.1367 131.834 35.1406 131.834 31.9141C131.834 28.6807 133.741 26.6777 136.353 26.6777C138.417 26.6777 140.099 27.9219 140.461 30.0205H139.162C138.875 28.626 137.679 27.8809 136.353 27.8809C134.521 27.8809 133.099 29.3027 133.099 31.9141C133.099 34.5186 134.527 35.9336 136.353 35.9336C137.686 35.9336 138.875 35.1816 139.162 33.7939H140.461C140.105 35.8652 138.438 37.1367 136.353 37.1367ZM144.446 37.1777C142.997 37.1777 141.842 36.3301 141.842 34.8262C141.842 33.0762 143.4 32.7549 144.815 32.5771C146.176 32.4062 146.777 32.4473 146.777 31.8799V31.8389C146.777 30.8887 146.237 30.3418 145.178 30.3418C144.077 30.3418 143.482 30.9297 143.243 31.4629L142.061 31.0732C142.648 29.6855 143.961 29.2617 145.144 29.2617C146.169 29.2617 148.008 29.5762 148.008 31.9619V37H146.798V35.9609H146.716C146.456 36.501 145.738 37.1777 144.446 37.1777ZM144.658 36.0908C146.019 36.0908 146.777 35.1748 146.777 34.2383V33.1787C146.572 33.418 145.232 33.5547 144.761 33.6162C143.865 33.7324 143.079 34.0195 143.079 34.8877C143.079 35.6807 143.742 36.0908 144.658 36.0908ZM151.398 32.4199V37H150.168V29.3574H151.351L151.357 31.21H151.187C151.651 29.8018 152.54 29.2617 153.695 29.2617C155.24 29.2617 156.286 30.2119 156.286 32.1465V37H155.049V32.249C155.049 31.0732 154.393 30.3691 153.326 30.3691C152.226 30.3691 151.398 31.1143 151.398 32.4199ZM161.563 37.1641C159.485 37.1641 158.084 35.585 158.084 33.2266C158.084 30.834 159.485 29.2617 161.563 29.2617C163.04 29.2617 164.243 30.041 164.66 31.374L163.478 31.709C163.252 30.9229 162.568 30.3623 161.563 30.3623C160.039 30.3623 159.335 31.7021 159.335 33.2266C159.335 34.7305 160.039 36.0635 161.563 36.0635C162.589 36.0635 163.286 35.4824 163.512 34.6553L164.688 34.9902C164.277 36.3506 163.061 37.1641 161.563 37.1641ZM169.664 37.1641C167.449 37.1641 166.082 35.5918 166.082 33.2402C166.082 30.8955 167.436 29.2617 169.521 29.2617C171.141 29.2617 172.85 30.2598 172.85 33.083V33.5957H166.916V32.5566H172.187L171.612 32.9395C171.612 31.4355 170.901 30.3555 169.521 30.3555C168.14 30.3555 167.326 31.4971 167.326 32.7412V33.4316C167.326 35.1338 168.27 36.0703 169.671 36.0703C170.573 36.0703 171.25 35.6738 171.537 34.8945L172.727 35.2227C172.371 36.3779 171.229 37.1641 169.664 37.1641ZM176.329 37.0547C175.181 37.0547 174.613 36.4121 174.613 35.3047V26.8145H175.844V34.9971C175.844 35.7012 175.967 35.9541 176.479 35.9541C176.746 35.9541 176.855 35.9336 176.972 35.8994L177.218 36.9385C176.999 37 176.657 37.0547 176.329 37.0547Z" fill="#303030"/>
<rect x="200.5" y="16.5" width="106" height="31" rx="3.5" fill="#1F75CB"/>
<rect x="200.5" y="16.5" width="106" height="31" rx="3.5" stroke="#1068BF"/>
<path d="M217.353 37.1367C214.741 37.1367 212.834 35.1406 212.834 31.9141C212.834 28.6807 214.741 26.6777 217.353 26.6777C219.417 26.6777 221.099 27.9219 221.461 30.0205H220.162C219.875 28.626 218.679 27.8809 217.353 27.8809C215.521 27.8809 214.099 29.3027 214.099 31.9141C214.099 34.5186 215.527 35.9336 217.353 35.9336C218.686 35.9336 219.875 35.1816 220.162 33.7939H221.461C221.105 35.8652 219.438 37.1367 217.353 37.1367ZM223.307 37V29.3574H224.496V30.5332H224.578C224.858 29.7607 225.651 29.248 226.561 29.248C226.738 29.248 227.039 29.2617 227.183 29.2686V30.5059C227.107 30.4922 226.772 30.4375 226.444 30.4375C225.344 30.4375 224.537 31.1826 224.537 32.2148V37H223.307ZM231.564 37.1641C229.35 37.1641 227.982 35.5918 227.982 33.2402C227.982 30.8955 229.336 29.2617 231.421 29.2617C233.041 29.2617 234.75 30.2598 234.75 33.083V33.5957H228.816V32.5566H234.087L233.513 32.9395C233.513 31.4355 232.802 30.3555 231.421 30.3555C230.04 30.3555 229.227 31.4971 229.227 32.7412V33.4316C229.227 35.1338 230.17 36.0703 231.571 36.0703C232.474 36.0703 233.15 35.6738 233.438 34.8945L234.627 35.2227C234.271 36.3779 233.13 37.1641 231.564 37.1641ZM238.79 37.1777C237.341 37.1777 236.186 36.3301 236.186 34.8262C236.186 33.0762 237.744 32.7549 239.159 32.5771C240.52 32.4062 241.121 32.4473 241.121 31.8799V31.8389C241.121 30.8887 240.581 30.3418 239.521 30.3418C238.421 30.3418 237.826 30.9297 237.587 31.4629L236.404 31.0732C236.992 29.6855 238.305 29.2617 239.487 29.2617C240.513 29.2617 242.352 29.5762 242.352 31.9619V37H241.142V35.9609H241.06C240.8 36.501 240.082 37.1777 238.79 37.1777ZM239.002 36.0908C240.362 36.0908 241.121 35.1748 241.121 34.2383V33.1787C240.916 33.418 239.576 33.5547 239.104 33.6162C238.209 33.7324 237.423 34.0195 237.423 34.8877C237.423 35.6807 238.086 36.0908 239.002 36.0908ZM247.52 29.3574V30.4102H243.568V29.3574H247.52ZM244.717 27.5391H245.947V35.0176C245.947 35.7012 246.2 36.002 246.85 36.002C247.007 36.002 247.273 35.9609 247.479 35.9199L247.731 36.959C247.479 37.0479 247.13 37.0957 246.815 37.0957C245.496 37.0957 244.717 36.3643 244.717 35.1133V27.5391ZM252.168 37.1641C249.953 37.1641 248.586 35.5918 248.586 33.2402C248.586 30.8955 249.939 29.2617 252.024 29.2617C253.645 29.2617 255.354 30.2598 255.354 33.083V33.5957H249.42V32.5566H254.69L254.116 32.9395C254.116 31.4355 253.405 30.3555 252.024 30.3555C250.644 30.3555 249.83 31.4971 249.83 32.7412V33.4316C249.83 35.1338 250.773 36.0703 252.175 36.0703C253.077 36.0703 253.754 35.6738 254.041 34.8945L255.23 35.2227C254.875 36.3779 253.733 37.1641 252.168 37.1641ZM261.055 37V29.3574H262.285V37H261.055ZM261.677 28.1064C261.212 28.1064 260.822 27.7441 260.822 27.293C260.822 26.8418 261.212 26.4795 261.677 26.4795C262.148 26.4795 262.538 26.8418 262.538 27.293C262.538 27.7441 262.148 28.1064 261.677 28.1064ZM267.043 37.1641C265.471 37.1641 264.377 36.4668 264.104 35.1475L265.272 34.8672C265.491 35.708 266.113 36.084 267.029 36.084C268.096 36.084 268.779 35.5576 268.779 34.9287C268.779 34.4023 268.41 34.0537 267.658 33.876L266.387 33.5752C264.999 33.2471 264.336 32.5635 264.336 31.4902C264.336 30.1777 265.539 29.2617 267.166 29.2617C268.738 29.2617 269.565 30.0273 269.914 31.1006L268.8 31.3877C268.588 30.8408 268.157 30.3076 267.173 30.3076C266.264 30.3076 265.58 30.7793 265.58 31.415C265.58 31.9824 265.97 32.2969 266.865 32.5088L268.021 32.7822C269.408 33.1104 270.058 33.8008 270.058 34.8467C270.058 36.1865 268.834 37.1641 267.043 37.1641ZM274.439 37.1641C272.867 37.1641 271.773 36.4668 271.5 35.1475L272.669 34.8672C272.888 35.708 273.51 36.084 274.426 36.084C275.492 36.084 276.176 35.5576 276.176 34.9287C276.176 34.4023 275.807 34.0537 275.055 33.876L273.783 33.5752C272.396 33.2471 271.732 32.5635 271.732 31.4902C271.732 30.1777 272.936 29.2617 274.562 29.2617C276.135 29.2617 276.962 30.0273 277.311 31.1006L276.196 31.3877C275.984 30.8408 275.554 30.3076 274.569 30.3076C273.66 30.3076 272.977 30.7793 272.977 31.415C272.977 31.9824 273.366 32.2969 274.262 32.5088L275.417 32.7822C276.805 33.1104 277.454 33.8008 277.454 34.8467C277.454 36.1865 276.23 37.1641 274.439 37.1641ZM281.829 37.0957C280.284 37.0957 279.238 36.1455 279.238 34.2109V29.3574H280.469V34.1084C280.469 35.2842 281.132 35.9883 282.198 35.9883C283.292 35.9883 284.119 35.2432 284.119 33.9375V29.3574H285.356V37H284.167V35.1475H284.331C283.859 36.583 282.95 37.0957 281.829 37.0957ZM290.736 37.1641C288.521 37.1641 287.154 35.5918 287.154 33.2402C287.154 30.8955 288.508 29.2617 290.593 29.2617C292.213 29.2617 293.922 30.2598 293.922 33.083V33.5957H287.988V32.5566H293.259L292.685 32.9395C292.685 31.4355 291.974 30.3555 290.593 30.3555C289.212 30.3555 288.398 31.4971 288.398 32.7412V33.4316C288.398 35.1338 289.342 36.0703 290.743 36.0703C291.646 36.0703 292.322 35.6738 292.609 34.8945L293.799 35.2227C293.443 36.3779 292.302 37.1641 290.736 37.1641Z" fill="white"/>
<line y1="63.5" x2="323" y2="63.5" stroke="#ECECEF"/>
<line x1="322.5" x2="322.5" y2="64" stroke="#ECECEF"/>
</g>
<defs>
<clipPath id="clip0_47_1447">
<rect width="323" height="64" fill="white"/>
</clipPath>
</defs>
</svg>
