<svg width="349" height="64" fill="none" xmlns="http://www.w3.org/2000/svg"><g clip-path="url(#primary-action-ai__a)"><path fill="#fff" d="M0 0h349v64H0z"/><rect x="15.5" y="16.5" width="97" height="31" rx="3.5" fill="#fff"/><rect x="15.5" y="16.5" width="97" height="31" rx="3.5" stroke="#BFBFC3"/><path d="m27.355 37 3.699-10.186h1.504L36.304 37h-1.367l-2.16-6.043c-.267-.745-.602-1.805-1.101-3.534h.246a62.255 62.255 0 0 1-1.087 3.534L28.736 37h-1.38Zm1.86-2.844v-1.134h5.23v1.134h-5.23ZM37.897 37V26.814h3.609c2.126 0 3.13 1.21 3.13 2.7 0 1.306-.779 1.901-1.667 2.14v.096c.95.061 2.064.937 2.064 2.536 0 1.538-1.011 2.714-3.41 2.714h-3.726Zm1.298-1.148h2.393c1.586 0 2.194-.698 2.194-1.58 0-1.018-.82-1.893-2.126-1.893h-2.46v3.473Zm0-4.567h2.242c1.094 0 1.956-.69 1.956-1.743 0-.882-.595-1.58-1.915-1.58h-2.283v3.323Zm11.984 5.852c-2.612 0-4.519-1.996-4.519-5.223 0-3.233 1.907-5.236 4.519-5.236 2.064 0 3.746 1.244 4.108 3.342h-1.299c-.287-1.394-1.483-2.14-2.81-2.14-1.831 0-3.253 1.423-3.253 4.034 0 2.605 1.428 4.02 3.254 4.02 1.333 0 2.522-.752 2.81-2.14h1.298c-.355 2.071-2.023 3.343-4.108 3.343Zm12.031.04c-1.45 0-2.605-.847-2.605-2.35 0-1.75 1.56-2.072 2.974-2.25 1.36-.17 1.962-.13 1.962-.697v-.041c0-.95-.54-1.497-1.6-1.497-1.1 0-1.695.588-1.934 1.12l-1.183-.389c.588-1.387 1.9-1.811 3.083-1.811 1.026 0 2.865.314 2.865 2.7V37h-1.21v-1.04h-.082c-.26.541-.978 1.218-2.27 1.218Zm.212-1.086c1.36 0 2.119-.916 2.119-1.853v-1.06c-.205.24-1.545.377-2.017.438-.895.116-1.681.404-1.681 1.272 0 .793.663 1.203 1.579 1.203Zm8.62 1.073c-2.078 0-3.48-1.579-3.48-3.937 0-2.393 1.402-3.965 3.48-3.965 1.477 0 2.68.779 3.097 2.112l-1.183.335c-.225-.786-.91-1.347-1.914-1.347-1.524 0-2.228 1.34-2.228 2.865 0 1.504.704 2.837 2.228 2.837 1.025 0 1.723-.582 1.948-1.409l1.176.335c-.41 1.36-1.627 2.174-3.124 2.174Zm7.895-7.807v1.053h-3.95v-1.053h3.95Zm-2.802-1.818h1.23v7.479c0 .683.253.984.903.984.157 0 .423-.041.629-.082l.252 1.039a2.96 2.96 0 0 1-.916.137c-1.319 0-2.098-.732-2.098-1.983V27.54ZM81.51 37v-7.643h1.23V37h-1.23Zm.622-8.894c-.465 0-.855-.362-.855-.813 0-.451.39-.813.855-.813.471 0 .861.362.861.813 0 .451-.39.813-.861.813Zm5.879 9.058c-2.078 0-3.48-1.579-3.48-3.937 0-2.393 1.402-3.965 3.48-3.965 2.085 0 3.493 1.572 3.493 3.965 0 2.358-1.408 3.937-3.493 3.937Zm0-1.1c1.545 0 2.249-1.334 2.249-2.837 0-1.518-.704-2.865-2.25-2.865-1.524 0-2.228 1.34-2.228 2.865 0 1.504.704 2.837 2.229 2.837Zm6.514-3.644V37h-1.23v-7.643h1.183l.006 1.853h-.17c.464-1.408 1.353-1.948 2.508-1.948 1.545 0 2.591.95 2.591 2.885V37h-1.237v-4.751c0-1.176-.657-1.88-1.723-1.88-1.1 0-1.928.745-1.928 2.05Z" fill="#303030"/><rect x="123.5" y="16.5" width="96" height="31" rx="3.5" fill="#fff"/><rect x="123.5" y="16.5" width="96" height="31" rx="3.5" stroke="#1F75CB"/><path d="m135.39 37 3.985-5.694v.963l-3.76-5.454h1.504l1.47 2.16c.656.963.875 1.326 1.312 2.2h-.225c.43-.86.663-1.243 1.326-2.2l1.497-2.16h1.47l-3.753 5.4v-.957L144.16 37h-1.497l-1.784-2.584c-.581-.84-.82-1.217-1.237-2.064h.28c-.41.813-.663 1.21-1.258 2.064L136.866 37h-1.476Zm13.268 0v-4.17l-3.746-6.015h1.504l2.017 3.287c.451.739.772 1.306 1.148 2.325h-.519c.376-1.04.704-1.62 1.134-2.325l2.01-3.288h1.497l-3.746 6.016V37h-1.299Zm6.289 0v-.916l4.553-6.774c.41-.609.889-1.23 1.354-1.832l.143.423a39.02 39.02 0 0 1-2.529.062h-3.575v-1.149h7.082v.93l-4.485 6.665a36.87 36.87 0 0 1-1.422 1.928l-.143-.424a38.406 38.406 0 0 1 2.509-.061h3.595V37h-7.082Zm15.074.178c-1.45 0-2.605-.848-2.605-2.352 0-1.75 1.559-2.071 2.974-2.249 1.36-.17 1.962-.13 1.962-.697v-.041c0-.95-.54-1.497-1.6-1.497-1.101 0-1.695.588-1.935 1.12l-1.182-.389c.588-1.387 1.9-1.811 3.083-1.811 1.025 0 2.864.314 2.864 2.7V37h-1.21v-1.04h-.082c-.26.541-.978 1.218-2.269 1.218Zm.211-1.087c1.361 0 2.12-.916 2.12-1.853v-1.06c-.206.24-1.545.377-2.017.438-.896.116-1.682.404-1.682 1.272 0 .793.663 1.203 1.579 1.203Zm8.621 1.073c-2.079 0-3.48-1.579-3.48-3.937 0-2.393 1.401-3.965 3.48-3.965 1.476 0 2.679.779 3.096 2.112l-1.182.335c-.226-.786-.91-1.347-1.914-1.347-1.525 0-2.229 1.34-2.229 2.865 0 1.504.704 2.837 2.229 2.837 1.025 0 1.722-.582 1.948-1.409l1.176.335c-.411 1.36-1.627 2.174-3.124 2.174Zm7.895-7.807v1.053h-3.951v-1.053h3.951Zm-2.803-1.818h1.231v7.479c0 .683.253.984.902.984.157 0 .424-.041.629-.082l.253 1.039a2.964 2.964 0 0 1-.916.137c-1.319 0-2.099-.732-2.099-1.983V27.54ZM188.32 37v-7.643h1.231V37h-1.231Zm.622-8.894c-.464 0-.854-.362-.854-.813 0-.451.39-.813.854-.813.472 0 .862.362.862.813 0 .451-.39.813-.862.813Zm5.879 9.058c-2.078 0-3.479-1.579-3.479-3.937 0-2.393 1.401-3.965 3.479-3.965 2.085 0 3.493 1.572 3.493 3.965 0 2.358-1.408 3.937-3.493 3.937Zm0-1.1c1.545 0 2.249-1.334 2.249-2.837 0-1.518-.704-2.865-2.249-2.865-1.524 0-2.228 1.34-2.228 2.865 0 1.504.704 2.837 2.228 2.837Zm6.515-3.644V37h-1.231v-7.643h1.183l.007 1.853h-.171c.465-1.408 1.354-1.948 2.509-1.948 1.545 0 2.591.95 2.591 2.885V37h-1.238v-4.751c0-1.176-.656-1.88-1.722-1.88-1.101 0-1.928.745-1.928 2.05Z" fill="#1F75CB"/><rect x="230.5" y="16.5" width="101" height="31" rx="3.5" fill="#1F75CB"/><rect x="230.5" y="16.5" width="101" height="31" rx="3.5" stroke="#1068BF"/><g clip-path="url(#primary-action-ai__b)"><g clip-path="url(#primary-action-ai__c)"><path fill-rule="evenodd" clip-rule="evenodd" d="M244.377 24.266a.4.4 0 0 0-.754 0l-.291.823a.4.4 0 0 1-.243.243l-.823.291a.4.4 0 0 0 0 .754l.823.291a.4.4 0 0 1 .243.243l.291.823a.4.4 0 0 0 .754 0l.291-.823a.4.4 0 0 1 .243-.243l.823-.291a.4.4 0 0 0 0-.754l-.823-.291a.4.4 0 0 1-.243-.243l-.291-.823Zm12.018 6.602-.014-.038-.55-1.44-.172.53-.337 1.035h-6.644l-.336-1.036-.172-.528-.551 1.445-.004.01-.004.01-.012.03a1.552 1.552 0 0 0 .512 1.78l.001.001.003.003.01.008.011.008.003.002 2.474 1.862.005.004 1.232.935h.001l.147.112.146-.112h.001l1.232-.935.006-.004 2.491-1.873.005-.004.009-.007a1.55 1.55 0 0 0 .51-1.789l-.003-.009Zm.391 3-2.502 1.88-1.233.936-.748.569a.505.505 0 0 1-.611 0l-.748-.569-1.233-.935-2.485-1.87-.013-.011-.007-.005a3.054 3.054 0 0 1-1.006-3.52l.017-.042 1.214-3.181.068-.178.043-.114.173-.453.017-.045.118-.308a.425.425 0 0 1 .356-.27.427.427 0 0 1 .362.14.43.43 0 0 1 .098.174l.099.305.004.013.193.594.059.181.747 2.297h4.464l.747-2.297.059-.18.194-.595.004-.013.099-.305a.425.425 0 0 1 .262-.288.43.43 0 0 1 .554.244l.116.305.019.048.171.45.045.117.068.177 1.214 3.181.016.044a3.053 3.053 0 0 1-1.007 3.518l-.007.006Zm-11.757 1.465a.5.5 0 0 1 .942 0l.364 1.028c.05.142.162.254.304.304l1.028.364a.5.5 0 0 1 0 .942l-1.028.364a.499.499 0 0 0-.304.304l-.364 1.028a.5.5 0 0 1-.942 0l-.364-1.028a.499.499 0 0 0-.304-.304l-1.028-.364a.5.5 0 0 1 0-.942l1.028-.364a.499.499 0 0 0 .304-.304l.364-1.028Z" fill="#fff"/></g></g><path d="m262.355 37 3.699-10.186h1.504L271.304 37h-1.367l-2.161-6.043c-.266-.745-.601-1.805-1.1-3.534h.246a62.231 62.231 0 0 1-1.087 3.534L263.736 37h-1.381Zm1.86-2.844v-1.134h5.229v1.134h-5.229Zm9.98-7.341V37h-1.299V26.814h1.299Zm8.388 10.363c-1.449 0-2.604-.848-2.604-2.352 0-1.75 1.558-2.071 2.973-2.249 1.36-.17 1.962-.13 1.962-.697v-.041c0-.95-.54-1.497-1.6-1.497-1.1 0-1.695.588-1.934 1.12l-1.183-.389c.588-1.387 1.901-1.811 3.083-1.811 1.026 0 2.865.314 2.865 2.7V37h-1.21v-1.04h-.082c-.26.541-.978 1.218-2.27 1.218Zm.212-1.087c1.36 0 2.119-.916 2.119-1.853v-1.06c-.205.24-1.545.377-2.017.438-.895.116-1.681.404-1.681 1.272 0 .793.663 1.203 1.579 1.203Zm8.62 1.073c-2.078 0-3.479-1.579-3.479-3.937 0-2.393 1.401-3.965 3.479-3.965 1.477 0 2.68.779 3.097 2.112l-1.183.335c-.225-.786-.909-1.347-1.914-1.347-1.524 0-2.228 1.34-2.228 2.865 0 1.504.704 2.837 2.228 2.837 1.025 0 1.723-.582 1.948-1.409l1.176.335c-.41 1.36-1.627 2.174-3.124 2.174Zm7.896-7.807v1.053h-3.952v-1.053h3.952Zm-2.803-1.818h1.23v7.479c0 .683.253.984.903.984a3.9 3.9 0 0 0 .629-.082l.252 1.039a2.954 2.954 0 0 1-.916.137c-1.319 0-2.098-.732-2.098-1.983V27.54ZM300.883 37v-7.643h1.23V37h-1.23Zm.622-8.894c-.465 0-.855-.362-.855-.813 0-.451.39-.813.855-.813.472 0 .861.362.861.813 0 .451-.389.813-.861.813Zm5.879 9.058c-2.078 0-3.48-1.579-3.48-3.937 0-2.393 1.402-3.965 3.48-3.965 2.085 0 3.493 1.572 3.493 3.965 0 2.358-1.408 3.937-3.493 3.937Zm0-1.1c1.545 0 2.249-1.334 2.249-2.837 0-1.518-.704-2.865-2.249-2.865-1.525 0-2.229 1.34-2.229 2.865 0 1.504.704 2.837 2.229 2.837Zm6.514-3.644V37h-1.23v-7.643h1.183l.006 1.853h-.17c.464-1.408 1.353-1.948 2.508-1.948 1.545 0 2.591.95 2.591 2.885V37h-1.237v-4.751c0-1.176-.656-1.88-1.723-1.88-1.1 0-1.928.745-1.928 2.05Z" fill="#fff"/><path stroke="#ECECEF" d="M0 63.5h349M348.5 0v64"/></g><defs><clipPath id="primary-action-ai__a"><path fill="#fff" d="M0 0h349v64H0z"/></clipPath><clipPath id="primary-action-ai__b"><path fill="#fff" transform="translate(238 24)" d="M0 0h20v16H0z"/></clipPath><clipPath id="primary-action-ai__c"><path fill="#fff" transform="translate(242 24)" d="M0 0h16v16H0z"/></clipPath></defs></svg>