<svg width="323" height="64" viewBox="0 0 323 64" fill="none" xmlns="http://www.w3.org/2000/svg">
<g clip-path="url(#clip0_47_1105)">
<rect width="323" height="64" fill="white"/>
<rect x="16.5" y="16.5" width="70" height="31" rx="3.5" fill="white"/>
<rect x="16.5" y="16.5" width="70" height="31" rx="3.5" stroke="#BFBFC3"/>
<path d="M33.3525 37.1367C30.7412 37.1367 28.834 35.1406 28.834 31.9141C28.834 28.6807 30.7412 26.6777 33.3525 26.6777C35.417 26.6777 37.0986 27.9219 37.4609 30.0205H36.1621C35.875 28.626 34.6787 27.8809 33.3525 27.8809C31.5205 27.8809 30.0986 29.3027 30.0986 31.9141C30.0986 34.5186 31.5273 35.9336 33.3525 35.9336C34.6855 35.9336 35.875 35.1816 36.1621 33.7939H37.4609C37.1055 35.8652 35.4375 37.1367 33.3525 37.1367ZM41.4463 37.1777C39.9971 37.1777 38.8418 36.3301 38.8418 34.8262C38.8418 33.0762 40.4004 32.7549 41.8154 32.5771C43.1758 32.4062 43.7773 32.4473 43.7773 31.8799V31.8389C43.7773 30.8887 43.2373 30.3418 42.1777 30.3418C41.0771 30.3418 40.4824 30.9297 40.2432 31.4629L39.0605 31.0732C39.6484 29.6855 40.9609 29.2617 42.1436 29.2617C43.1689 29.2617 45.0078 29.5762 45.0078 31.9619V37H43.7979V35.9609H43.7158C43.4561 36.501 42.7383 37.1777 41.4463 37.1777ZM41.6582 36.0908C43.0186 36.0908 43.7773 35.1748 43.7773 34.2383V33.1787C43.5723 33.418 42.2324 33.5547 41.7607 33.6162C40.8652 33.7324 40.0791 34.0195 40.0791 34.8877C40.0791 35.6807 40.7422 36.0908 41.6582 36.0908ZM48.3984 32.4199V37H47.168V29.3574H48.3506L48.3574 31.21H48.1865C48.6514 29.8018 49.54 29.2617 50.6953 29.2617C52.2402 29.2617 53.2861 30.2119 53.2861 32.1465V37H52.0488V32.249C52.0488 31.0732 51.3926 30.3691 50.3262 30.3691C49.2256 30.3691 48.3984 31.1143 48.3984 32.4199ZM58.5635 37.1641C56.4854 37.1641 55.084 35.585 55.084 33.2266C55.084 30.834 56.4854 29.2617 58.5635 29.2617C60.04 29.2617 61.2432 30.041 61.6602 31.374L60.4775 31.709C60.252 30.9229 59.5684 30.3623 58.5635 30.3623C57.0391 30.3623 56.335 31.7021 56.335 33.2266C56.335 34.7305 57.0391 36.0635 58.5635 36.0635C59.5889 36.0635 60.2861 35.4824 60.5117 34.6553L61.6875 34.9902C61.2773 36.3506 60.0605 37.1641 58.5635 37.1641ZM66.6641 37.1641C64.4492 37.1641 63.082 35.5918 63.082 33.2402C63.082 30.8955 64.4355 29.2617 66.5205 29.2617C68.1406 29.2617 69.8496 30.2598 69.8496 33.083V33.5957H63.916V32.5566H69.1865L68.6123 32.9395C68.6123 31.4355 67.9014 30.3555 66.5205 30.3555C65.1396 30.3555 64.3262 31.4971 64.3262 32.7412V33.4316C64.3262 35.1338 65.2695 36.0703 66.6709 36.0703C67.5732 36.0703 68.25 35.6738 68.5371 34.8945L69.7266 35.2227C69.3711 36.3779 68.2295 37.1641 66.6641 37.1641ZM73.3291 37.0547C72.1807 37.0547 71.6133 36.4121 71.6133 35.3047V26.8145H72.8438V34.9971C72.8438 35.7012 72.9668 35.9541 73.4795 35.9541C73.7461 35.9541 73.8555 35.9336 73.9717 35.8994L74.2178 36.9385C73.999 37 73.6572 37.0547 73.3291 37.0547Z" fill="#303030"/>
<rect x="97.5" y="16.5" width="106" height="31" rx="3.5" fill="white"/>
<rect x="97.5" y="16.5" width="106" height="31" rx="3.5" stroke="#1F75CB"/>
<path d="M114.353 37.1367C111.741 37.1367 109.834 35.1406 109.834 31.9141C109.834 28.6807 111.741 26.6777 114.353 26.6777C116.417 26.6777 118.099 27.9219 118.461 30.0205H117.162C116.875 28.626 115.679 27.8809 114.353 27.8809C112.521 27.8809 111.099 29.3027 111.099 31.9141C111.099 34.5186 112.527 35.9336 114.353 35.9336C115.686 35.9336 116.875 35.1816 117.162 33.7939H118.461C118.105 35.8652 116.438 37.1367 114.353 37.1367ZM120.307 37V29.3574H121.496V30.5332H121.578C121.858 29.7607 122.651 29.248 123.561 29.248C123.738 29.248 124.039 29.2617 124.183 29.2686V30.5059C124.107 30.4922 123.772 30.4375 123.444 30.4375C122.344 30.4375 121.537 31.1826 121.537 32.2148V37H120.307ZM128.564 37.1641C126.35 37.1641 124.982 35.5918 124.982 33.2402C124.982 30.8955 126.336 29.2617 128.421 29.2617C130.041 29.2617 131.75 30.2598 131.75 33.083V33.5957H125.816V32.5566H131.087L130.513 32.9395C130.513 31.4355 129.802 30.3555 128.421 30.3555C127.04 30.3555 126.227 31.4971 126.227 32.7412V33.4316C126.227 35.1338 127.17 36.0703 128.571 36.0703C129.474 36.0703 130.15 35.6738 130.438 34.8945L131.627 35.2227C131.271 36.3779 130.13 37.1641 128.564 37.1641ZM135.79 37.1777C134.341 37.1777 133.186 36.3301 133.186 34.8262C133.186 33.0762 134.744 32.7549 136.159 32.5771C137.52 32.4062 138.121 32.4473 138.121 31.8799V31.8389C138.121 30.8887 137.581 30.3418 136.521 30.3418C135.421 30.3418 134.826 30.9297 134.587 31.4629L133.404 31.0732C133.992 29.6855 135.305 29.2617 136.487 29.2617C137.513 29.2617 139.352 29.5762 139.352 31.9619V37H138.142V35.9609H138.06C137.8 36.501 137.082 37.1777 135.79 37.1777ZM136.002 36.0908C137.362 36.0908 138.121 35.1748 138.121 34.2383V33.1787C137.916 33.418 136.576 33.5547 136.104 33.6162C135.209 33.7324 134.423 34.0195 134.423 34.8877C134.423 35.6807 135.086 36.0908 136.002 36.0908ZM144.52 29.3574V30.4102H140.568V29.3574H144.52ZM141.717 27.5391H142.947V35.0176C142.947 35.7012 143.2 36.002 143.85 36.002C144.007 36.002 144.273 35.9609 144.479 35.9199L144.731 36.959C144.479 37.0479 144.13 37.0957 143.815 37.0957C142.496 37.0957 141.717 36.3643 141.717 35.1133V27.5391ZM149.168 37.1641C146.953 37.1641 145.586 35.5918 145.586 33.2402C145.586 30.8955 146.939 29.2617 149.024 29.2617C150.645 29.2617 152.354 30.2598 152.354 33.083V33.5957H146.42V32.5566H151.69L151.116 32.9395C151.116 31.4355 150.405 30.3555 149.024 30.3555C147.644 30.3555 146.83 31.4971 146.83 32.7412V33.4316C146.83 35.1338 147.773 36.0703 149.175 36.0703C150.077 36.0703 150.754 35.6738 151.041 34.8945L152.23 35.2227C151.875 36.3779 150.733 37.1641 149.168 37.1641ZM158.055 37V29.3574H159.285V37H158.055ZM158.677 28.1064C158.212 28.1064 157.822 27.7441 157.822 27.293C157.822 26.8418 158.212 26.4795 158.677 26.4795C159.148 26.4795 159.538 26.8418 159.538 27.293C159.538 27.7441 159.148 28.1064 158.677 28.1064ZM164.043 37.1641C162.471 37.1641 161.377 36.4668 161.104 35.1475L162.272 34.8672C162.491 35.708 163.113 36.084 164.029 36.084C165.096 36.084 165.779 35.5576 165.779 34.9287C165.779 34.4023 165.41 34.0537 164.658 33.876L163.387 33.5752C161.999 33.2471 161.336 32.5635 161.336 31.4902C161.336 30.1777 162.539 29.2617 164.166 29.2617C165.738 29.2617 166.565 30.0273 166.914 31.1006L165.8 31.3877C165.588 30.8408 165.157 30.3076 164.173 30.3076C163.264 30.3076 162.58 30.7793 162.58 31.415C162.58 31.9824 162.97 32.2969 163.865 32.5088L165.021 32.7822C166.408 33.1104 167.058 33.8008 167.058 34.8467C167.058 36.1865 165.834 37.1641 164.043 37.1641ZM171.439 37.1641C169.867 37.1641 168.773 36.4668 168.5 35.1475L169.669 34.8672C169.888 35.708 170.51 36.084 171.426 36.084C172.492 36.084 173.176 35.5576 173.176 34.9287C173.176 34.4023 172.807 34.0537 172.055 33.876L170.783 33.5752C169.396 33.2471 168.732 32.5635 168.732 31.4902C168.732 30.1777 169.936 29.2617 171.562 29.2617C173.135 29.2617 173.962 30.0273 174.311 31.1006L173.196 31.3877C172.984 30.8408 172.554 30.3076 171.569 30.3076C170.66 30.3076 169.977 30.7793 169.977 31.415C169.977 31.9824 170.366 32.2969 171.262 32.5088L172.417 32.7822C173.805 33.1104 174.454 33.8008 174.454 34.8467C174.454 36.1865 173.23 37.1641 171.439 37.1641ZM178.829 37.0957C177.284 37.0957 176.238 36.1455 176.238 34.2109V29.3574H177.469V34.1084C177.469 35.2842 178.132 35.9883 179.198 35.9883C180.292 35.9883 181.119 35.2432 181.119 33.9375V29.3574H182.356V37H181.167V35.1475H181.331C180.859 36.583 179.95 37.0957 178.829 37.0957ZM187.736 37.1641C185.521 37.1641 184.154 35.5918 184.154 33.2402C184.154 30.8955 185.508 29.2617 187.593 29.2617C189.213 29.2617 190.922 30.2598 190.922 33.083V33.5957H184.988V32.5566H190.259L189.685 32.9395C189.685 31.4355 188.974 30.3555 187.593 30.3555C186.212 30.3555 185.398 31.4971 185.398 32.7412V33.4316C185.398 35.1338 186.342 36.0703 187.743 36.0703C188.646 36.0703 189.322 35.6738 189.609 34.8945L190.799 35.2227C190.443 36.3779 189.302 37.1641 187.736 37.1641Z" fill="#1F75CB"/>
<rect x="214.5" y="16.5" width="92" height="31" rx="3.5" fill="#1F75CB"/>
<rect x="214.5" y="16.5" width="92" height="31" rx="3.5" stroke="#1068BF"/>
<g clip-path="url(#clip1_47_1105)">
<g clip-path="url(#clip2_47_1105)">
<path fill-rule="evenodd" clip-rule="evenodd" d="M228.435 24.3991C228.624 23.867 229.376 23.867 229.565 24.3991L230.002 25.6331C230.062 25.8035 230.197 25.9375 230.367 25.9979L231.601 26.4351C232.133 26.6237 232.133 27.3763 231.601 27.5649L230.367 28.0021C230.197 28.0625 230.062 28.1965 230.002 28.3669L229.565 29.6009C229.376 30.133 228.624 30.133 228.435 29.6009L227.998 28.3669C227.938 28.1965 227.803 28.0625 227.633 28.0021L226.399 27.5649C225.867 27.3763 225.867 26.6237 226.399 26.4351L227.633 25.9979C227.803 25.9375 227.938 25.8035 227.998 25.6331L228.435 24.3991ZM233 25.75C233 25.3358 233.336 25 233.75 25L239 25C240.657 25 242 26.3431 242 28V34C242 35.6569 240.657 37 239 37H230.063L227.28 39.7806C227.066 39.9949 226.743 40.059 226.463 39.9428C226.183 39.8267 226 39.5533 226 39.25V30.75C226 30.3358 226.336 30 226.75 30C227.164 30 227.5 30.3358 227.5 30.75V37.4406L229.223 35.7194L229.443 35.5H229.753H239C239.828 35.5 240.5 34.8284 240.5 34V28C240.5 27.1716 239.828 26.5 239 26.5L233.75 26.5C233.336 26.5 233 26.1642 233 25.75ZM234.471 28.8482C234.314 28.4048 233.686 28.4048 233.529 28.8482L233.165 29.8766C233.115 30.0185 233.003 30.1302 232.861 30.1805L231.833 30.5449C231.389 30.702 231.389 31.3292 231.833 31.4864L232.861 31.8507C233.003 31.901 233.115 32.0127 233.165 32.1547L233.529 33.183C233.686 33.6265 234.314 33.6265 234.471 33.183L234.835 32.1547C234.885 32.0127 234.997 31.901 235.139 31.8507L236.167 31.4864C236.611 31.3292 236.611 30.702 236.167 30.5449L235.139 30.1805C234.997 30.1302 234.885 30.0185 234.835 29.8766L234.471 28.8482Z" fill="white"/>
</g>
</g>
<path d="M247.23 37V26.8145H253.438V27.9629H248.529V31.2852H253.103V32.4336H248.529V35.8516H253.499V37H247.23ZM254.866 37L257.881 32.6045L257.874 33.5479L255.023 29.3574H256.459L257.409 30.8408C257.901 31.6064 258.223 32.2627 258.605 32.8779H257.963C258.353 32.2627 258.619 31.6064 259.118 30.8408L260.089 29.3574H261.497L258.633 33.6025V32.6934L261.62 37H260.191L259.07 35.2842C258.585 34.5391 258.277 33.9102 257.901 33.3154H258.551C258.175 33.9102 257.915 34.5391 257.423 35.2842L256.288 37H254.866ZM263.145 39.8574V29.3574H264.334V30.5811H264.471C264.724 30.1777 265.195 29.2617 266.686 29.2617C268.593 29.2617 269.926 30.7793 269.926 33.1992C269.926 35.6328 268.6 37.1641 266.692 37.1641C265.236 37.1641 264.724 36.2412 264.471 35.8174H264.375V39.8574H263.145ZM266.508 36.0635C267.937 36.0635 268.675 34.792 268.675 33.1855C268.675 31.5996 267.957 30.3623 266.508 30.3623C265.1 30.3623 264.361 31.4971 264.361 33.1855C264.361 34.8877 265.12 36.0635 266.508 36.0635ZM273.433 37.0547C272.284 37.0547 271.717 36.4121 271.717 35.3047V26.8145H272.947V34.9971C272.947 35.7012 273.07 35.9541 273.583 35.9541C273.85 35.9541 273.959 35.9336 274.075 35.8994L274.321 36.9385C274.103 37 273.761 37.0547 273.433 37.0547ZM277.712 37.1777C276.263 37.1777 275.107 36.3301 275.107 34.8262C275.107 33.0762 276.666 32.7549 278.081 32.5771C279.441 32.4062 280.043 32.4473 280.043 31.8799V31.8389C280.043 30.8887 279.503 30.3418 278.443 30.3418C277.343 30.3418 276.748 30.9297 276.509 31.4629L275.326 31.0732C275.914 29.6855 277.227 29.2617 278.409 29.2617C279.435 29.2617 281.273 29.5762 281.273 31.9619V37H280.063V35.9609H279.981C279.722 36.501 279.004 37.1777 277.712 37.1777ZM277.924 36.0908C279.284 36.0908 280.043 35.1748 280.043 34.2383V33.1787C279.838 33.418 278.498 33.5547 278.026 33.6162C277.131 33.7324 276.345 34.0195 276.345 34.8877C276.345 35.6807 277.008 36.0908 277.924 36.0908ZM283.434 37V29.3574H284.664V37H283.434ZM284.056 28.1064C283.591 28.1064 283.201 27.7441 283.201 27.293C283.201 26.8418 283.591 26.4795 284.056 26.4795C284.527 26.4795 284.917 26.8418 284.917 27.293C284.917 27.7441 284.527 28.1064 284.056 28.1064ZM288.055 32.4199V37H286.824V29.3574H288.007L288.014 31.21H287.843C288.308 29.8018 289.196 29.2617 290.352 29.2617C291.896 29.2617 292.942 30.2119 292.942 32.1465V37H291.705V32.249C291.705 31.0732 291.049 30.3691 289.982 30.3691C288.882 30.3691 288.055 31.1143 288.055 32.4199Z" fill="white"/>
<line y1="63.5" x2="323" y2="63.5" stroke="#ECECEF"/>
<line x1="322.5" x2="322.5" y2="64" stroke="#ECECEF"/>
</g>
<defs>
<clipPath id="clip0_47_1105">
<rect width="323" height="64" fill="white"/>
</clipPath>
<clipPath id="clip1_47_1105">
<rect width="20" height="16" fill="white" transform="translate(222 24)"/>
</clipPath>
<clipPath id="clip2_47_1105">
<rect width="16" height="16" fill="white" transform="translate(226 24)"/>
</clipPath>
</defs>
</svg>
