<svg width="160" height="60" viewBox="0 0 160 60" fill="none" xmlns="http://www.w3.org/2000/svg">
<g clip-path="url(#clip0)">
<path d="M0 24C0 19.5817 3.58172 16 8 16H152C156.418 16 160 19.5817 160 24V24C160 28.4183 156.418 32 152 32H8C3.58172 32 0 28.4183 0 24V24Z" fill="#DBDBDB"/>
<path d="M0 24.0001C0 19.5818 3.58172 16 8 16H56.0007C60.419 16 64.0007 19.5818 64.0007 24.0001V24.0001C64.0007 28.4184 60.419 32.0002 56.0007 32.0002H8C3.58172 32.0002 0 28.4184 0 24.0001V24.0001Z" fill="#1F75CB"/>
<rect width="64.0005" height="0.000244141" transform="translate(0 16)" fill="#9DC7F1"/>
<circle r="0.00012207" transform="matrix(1 0 0 -1 0.00012207 16.0001)" fill="#9DC7F1"/>
<circle r="0.00012207" transform="matrix(1 0 0 -1 64.0004 16.0001)" fill="#9DC7F1"/>
<rect width="0.000244141" height="16.0002" transform="translate(64.0005 16)" fill="#F57F6C"/>
</g>
<circle cx="106" cy="40" r="16" fill="#7B58CF"/>
<circle cx="106" cy="40" r="18" stroke="#7B58CF" stroke-opacity="0.3" stroke-width="4"/>
<path d="M103.855 44.5059H109.885V46H101.913V44.5059C103.009 43.3516 103.967 42.332 104.787 41.4473C105.607 40.5625 106.173 39.9385 106.483 39.5752C107.069 38.8604 107.465 38.2832 107.67 37.8438C107.875 37.3984 107.978 36.9443 107.978 36.4814C107.978 35.749 107.761 35.1748 107.327 34.7588C106.899 34.3428 106.311 34.1348 105.561 34.1348C105.027 34.1348 104.468 34.2314 103.882 34.4248C103.296 34.6182 102.675 34.9111 102.019 35.3037V33.5107C102.622 33.2236 103.214 33.0068 103.794 32.8604C104.38 32.7139 104.957 32.6406 105.525 32.6406C106.809 32.6406 107.84 32.9834 108.619 33.6689C109.404 34.3486 109.797 35.2422 109.797 36.3496C109.797 36.9121 109.665 37.4746 109.401 38.0371C109.144 38.5996 108.722 39.2207 108.136 39.9004C107.808 40.2812 107.33 40.8086 106.703 41.4824C106.082 42.1562 105.133 43.1641 103.855 44.5059Z" fill="white"/>
<circle cx="32" cy="40" r="16" fill="#7B58CF"/>
<circle cx="32" cy="40" r="18" stroke="#7B58CF" stroke-opacity="0.3" stroke-width="4"/>
<path d="M28.9502 44.5146H31.71V34.6006L28.4053 36.1914V34.4863L31.6924 32.9219H33.4678V44.5146H36.1924V46H28.9502V44.5146Z" fill="white"/>
<defs>
<clipPath id="clip0">
<path d="M0 24C0 19.5817 3.58172 16 8 16H152C156.418 16 160 19.5817 160 24V24C160 28.4183 156.418 32 152 32H8C3.58172 32 0 28.4183 0 24V24Z" fill="white"/>
</clipPath>
</defs>
</svg>
