<svg width="160" height="88" viewBox="0 0 160 88" fill="none" xmlns="http://www.w3.org/2000/svg">
<g clip-path="url(#clip0_848_12651)">
<g clip-path="url(#clip1_848_12651)">
<rect y="36" width="160" height="16" rx="8" fill="#DBDBDB"/>
<rect y="36" width="64.0007" height="16.0002" rx="8" fill="#1F75CB"/>
<rect width="64.0005" height="0.000244141" transform="translate(0 36)" fill="#9DC7F1"/>
<circle cx="0.00012207" cy="0.00012207" r="0.00012207" transform="matrix(1 0 0 -1 0 36.0002)" fill="#9DC7F1"/>
<circle cx="0.00012207" cy="0.00012207" r="0.00012207" transform="matrix(1 0 0 -1 64.0002 36.0002)" fill="#9DC7F1"/>
<rect width="0.000244141" height="16.0002" transform="translate(64.0005 36)" fill="#F57F6C"/>
</g>
<circle cx="112" cy="68" r="16" fill="#7B58CF"/>
<circle cx="112" cy="68" r="18" stroke="#7B58CF" stroke-opacity="0.3" stroke-width="4"/>
<path d="M108.152 74V72.506L112.526 67.826C113.162 67.154 113.612 66.554 113.876 66.026C114.14 65.498 114.272 64.982 114.272 64.478C114.272 63.758 114.062 63.188 113.642 62.768C113.234 62.336 112.676 62.12 111.968 62.12C111.236 62.12 110.654 62.342 110.222 62.786C109.802 63.218 109.592 63.806 109.592 64.55H107.972C107.996 63.758 108.176 63.074 108.512 62.498C108.848 61.91 109.31 61.46 109.898 61.148C110.486 60.836 111.176 60.68 111.968 60.68C112.784 60.68 113.486 60.836 114.074 61.148C114.662 61.46 115.118 61.904 115.442 62.48C115.766 63.044 115.928 63.716 115.928 64.496C115.928 65.12 115.754 65.78 115.406 66.476C115.07 67.172 114.488 67.952 113.66 68.816L110.114 72.524H116.09V74H108.152Z" fill="white"/>
<circle cx="32" cy="20" r="16" fill="#7B58CF"/>
<circle cx="32" cy="20" r="18" stroke="#7B58CF" stroke-opacity="0.3" stroke-width="4"/>
<path d="M28.2235 26V24.524H31.7875V14.264L28.2235 16.928V15.074L31.1935 12.86H33.4075V24.524H36.3235V26H28.2235Z" fill="white"/>
</g>
<defs>
<clipPath id="clip0_848_12651">
<rect width="160" height="88" fill="white"/>
</clipPath>
<clipPath id="clip1_848_12651">
<rect y="36" width="160" height="16" rx="8" fill="white"/>
</clipPath>
</defs>
</svg>
