<svg width="156" height="140" fill="none" xmlns="http://www.w3.org/2000/svg"><path fill="#fff" d="M0 0h156v140H0z"/><rect x="60" y="96" width="96" height="8" rx="2" fill="#BFBFC3"/><rect x="60" y="84" width="77" height="8" rx="2" fill="#89888D"/><rect x="36.5" y="80.5" width="15" height="15" rx="7.5" fill="#fff"/><rect x="36.5" y="80.5" width="15" height="15" rx="7.5" stroke="#89888D"/><rect x="60" y="60" width="64" height="8" rx="2" fill="#89888D"/><rect x="36.5" y="56.5" width="15" height="15" rx="7.5" fill="#fff"/><rect x="36.5" y="56.5" width="15" height="15" rx="7.5" stroke="#89888D"/><rect x="60" y="36" width="88" height="8" rx="2" fill="#89888D"/><rect x="36.5" y="32.5" width="15" height="15" rx="7.5" fill="#fff"/><rect x="36.5" y="32.5" width="15" height="15" rx="7.5" stroke="#89888D"/><rect x="36" y="16" width="72" height="8" rx="2" fill="#535158"/><circle cx="108" cy="120" r="16" fill="#7B58CF"/><circle cx="108" cy="120" r="18" stroke="#7B58CF" stroke-opacity=".3" stroke-width="4"/><path d="M109.804 126v-2.88h-5.94v-2.538l4.788-7.722h1.836l-5.004 8.082v.702h4.32v-3.204h1.62V126h-1.62Z" fill="#fff"/><circle cx="92" cy="64" r="16" fill="#7B58CF"/><circle cx="92" cy="64" r="18" stroke="#7B58CF" stroke-opacity=".3" stroke-width="4"/><path d="M91.805 70.18c-1.212 0-2.172-.336-2.88-1.008-.707-.684-1.061-1.608-1.061-2.772h1.62c0 .72.21 1.29.63 1.71.42.42.99.63 1.71.63s1.29-.21 1.71-.63c.42-.42.63-.99.63-1.71v-.9c0-.72-.21-1.29-.63-1.71-.42-.42-.99-.63-1.71-.63h-1.422v-1.404l3.222-3.42h-5.4V56.86h7.236v1.512l-3.6 3.834v-.486c1.212 0 2.165.342 2.862 1.026.708.672 1.062 1.59 1.062 2.754v.9c0 1.164-.36 2.088-1.08 2.772-.708.672-1.674 1.008-2.898 1.008Z" fill="#fff"/><circle cx="20" cy="64" r="16" fill="#7B58CF"/><circle cx="20" cy="64" r="18" stroke="#7B58CF" stroke-opacity=".3" stroke-width="4"/><path d="M16.151 70v-1.494l4.375-4.68c.636-.672 1.085-1.272 1.35-1.8.264-.528.395-1.044.395-1.548 0-.72-.21-1.29-.63-1.71-.407-.432-.965-.648-1.673-.648-.733 0-1.314.222-1.747.666-.42.432-.63 1.02-.63 1.764h-1.62c.024-.792.204-1.476.54-2.052a3.41 3.41 0 0 1 1.387-1.35c.587-.312 1.277-.468 2.07-.468.816 0 1.517.156 2.105.468a3.325 3.325 0 0 1 1.369 1.332c.323.564.485 1.236.485 2.016 0 .624-.174 1.284-.521 1.98-.336.696-.918 1.476-1.746 2.34l-3.547 3.708h5.977V70h-7.94Z" fill="#fff"/><circle cx="20" cy="20" r="16" fill="#7B58CF"/><circle cx="20" cy="20" r="18" stroke="#7B58CF" stroke-opacity=".3" stroke-width="4"/><path d="M16.224 26v-1.476h3.564v-10.26l-3.564 2.664v-1.854l2.97-2.214h2.213v11.664h2.916V26h-8.1Z" fill="#fff"/></svg>