<svg width="243" height="161" viewBox="0 0 243 161" fill="none" xmlns="http://www.w3.org/2000/svg">
<rect width="243" height="160.754" fill="white"/>
<path d="M99.6923 92.2153C99.6923 89.4624 101.924 87.2307 104.677 87.2307H134.585C137.338 87.2307 139.569 89.4624 139.569 92.2153V122.123C139.569 124.876 137.338 127.108 134.585 127.108H104.677C101.924 127.108 99.6923 124.876 99.6923 122.123V92.2153Z" fill="white"/>
<g clip-path="url(#clip0_1217_76513)">
<path d="M117.675 98.6552L116.753 98.5015L116.753 98.5015L117.675 98.6552ZM117.48 99.8254L116.558 99.6717L116.558 99.6717L117.48 99.8254ZM117.264 100.075L116.968 99.1879L116.968 99.1879L117.264 100.075ZM114.672 101.573L114.052 100.874L114.052 100.874L114.672 101.573ZM114.349 101.635L114.676 100.76L114.676 100.76L114.349 101.635ZM113.235 101.218L113.563 100.343L113.563 100.343L113.235 101.218ZM112.477 101.49L111.668 101.023L111.668 101.023L112.477 101.49ZM111.136 103.814L110.326 103.346L110.326 103.346L111.136 103.814ZM111.279 104.606L110.685 105.328L110.685 105.328L111.279 104.606ZM112.196 105.361L112.79 104.639L112.79 104.639L112.196 105.361ZM112.304 105.672L113.22 105.858L113.22 105.858L112.304 105.672ZM112.304 108.667L111.388 108.853L111.388 108.853L112.304 108.667ZM112.196 108.978L111.602 108.256L111.602 108.256L112.196 108.978ZM111.279 109.732L110.685 109.011L110.685 109.011L111.279 109.732ZM111.136 110.525L111.945 110.057L111.945 110.057L111.136 110.525ZM112.477 112.848L113.287 112.381L113.287 112.381L112.477 112.848ZM113.235 113.12L113.563 113.995L113.563 113.995L113.235 113.12ZM114.349 112.703L114.021 111.828L114.021 111.828L114.349 112.703ZM114.672 112.765L114.052 113.465L114.052 113.465L114.672 112.765ZM117.264 114.264L117.56 113.377L117.56 113.377L117.264 114.264ZM117.48 114.513L116.558 114.667L116.558 114.667L117.48 114.513ZM117.675 115.683L118.597 115.529L118.597 115.529L117.675 115.683ZM121.587 115.683L120.665 115.529L120.665 115.529L121.587 115.683ZM121.782 114.513L120.86 114.359L120.86 114.359L121.782 114.513ZM121.998 114.264L122.293 115.15L122.293 115.15L121.998 114.264ZM124.589 112.765L125.21 113.465L125.21 113.465L124.589 112.765ZM124.913 112.703L125.241 111.828L125.241 111.828L124.913 112.703ZM126.026 113.12L126.354 112.245L126.354 112.245L126.026 113.12ZM126.784 112.848L127.594 113.315L127.594 113.315L126.784 112.848ZM128.126 110.525L128.935 110.992L128.935 110.992L128.126 110.525ZM127.982 109.732L127.388 110.454L127.388 110.454L127.982 109.732ZM127.066 108.978L126.472 109.699L126.472 109.699L127.066 108.978ZM126.958 108.667L127.874 108.853L127.874 108.853L126.958 108.667ZM126.958 105.672L127.874 105.485L127.874 105.485L126.958 105.672ZM127.066 105.361L126.472 104.639L126.472 104.639L127.066 105.361ZM127.982 104.606L127.388 103.885L127.388 103.885L127.982 104.606ZM128.126 103.814L128.935 103.346L128.935 103.346L128.126 103.814ZM126.784 101.49L127.594 101.023L127.594 101.023L126.784 101.49ZM126.026 101.218L126.354 102.093L126.354 102.093L126.026 101.218ZM124.913 101.635L125.241 102.51L125.241 102.51L124.913 101.635ZM124.589 101.573L125.21 100.874L125.21 100.874L124.589 101.573ZM121.998 100.075L122.293 99.1879L122.293 99.1879L121.998 100.075ZM121.782 99.8254L120.86 99.979L120.86 99.979L121.782 99.8254ZM121.587 98.6552L120.665 98.8088L120.665 98.8088L121.587 98.6552ZM118.289 99.0691H120.972V97.1999H118.289V99.0691ZM118.597 98.8088C118.572 98.959 118.442 99.0691 118.289 99.0691V97.1999C117.528 97.1999 116.878 97.7504 116.753 98.5015L118.597 98.8088ZM118.402 99.979L118.597 98.8088L116.753 98.5015L116.558 99.6717L118.402 99.979ZM117.56 100.961C117.987 100.819 118.323 100.451 118.402 99.979L116.558 99.6717C116.598 99.4335 116.765 99.2556 116.968 99.1879L117.56 100.961ZM115.292 102.272C115.945 101.693 116.715 101.243 117.56 100.961L116.968 99.1879C115.879 99.551 114.89 100.13 114.052 100.874L115.292 102.272ZM114.021 102.51C114.468 102.678 114.955 102.571 115.292 102.272L114.052 100.874C114.212 100.731 114.45 100.675 114.676 100.76L114.021 102.51ZM112.908 102.093L114.021 102.51L114.676 100.76L113.563 100.343L112.908 102.093ZM113.287 101.957C113.211 102.089 113.05 102.147 112.908 102.093L113.563 100.343C112.85 100.076 112.049 100.363 111.668 101.023L113.287 101.957ZM111.945 104.281L113.287 101.957L111.668 101.023L110.326 103.346L111.945 104.281ZM111.873 103.885C111.991 103.981 112.021 104.149 111.945 104.281L110.326 103.346C109.946 104.006 110.098 104.844 110.685 105.328L111.873 103.885ZM112.79 104.639L111.873 103.885L110.685 105.328L111.602 106.082L112.79 104.639ZM113.22 105.858C113.309 105.417 113.158 104.942 112.79 104.639L111.602 106.082C111.416 105.929 111.345 105.695 111.388 105.485L113.22 105.858ZM113.088 107.169C113.088 106.719 113.134 106.281 113.22 105.858L111.388 105.485C111.277 106.03 111.219 106.593 111.219 107.169H113.088ZM113.22 108.481C113.134 108.058 113.088 107.619 113.088 107.169H111.219C111.219 107.745 111.277 108.308 111.388 108.853L113.22 108.481ZM112.79 109.699C113.158 109.396 113.309 108.922 113.22 108.481L111.388 108.853C111.345 108.643 111.416 108.409 111.602 108.256L112.79 109.699ZM111.873 110.454L112.79 109.699L111.602 108.256L110.685 109.011L111.873 110.454ZM111.945 110.057C112.021 110.189 111.991 110.357 111.873 110.454L110.685 109.011C110.098 109.495 109.946 110.333 110.326 110.992L111.945 110.057ZM113.287 112.381L111.945 110.057L110.326 110.992L111.668 113.315L113.287 112.381ZM112.908 112.245C113.05 112.191 113.211 112.249 113.287 112.381L111.668 113.315C112.049 113.975 112.85 114.262 113.563 113.995L112.908 112.245ZM114.021 111.828L112.908 112.245L113.563 113.995L114.676 113.578L114.021 111.828ZM115.292 112.066C114.955 111.767 114.468 111.66 114.021 111.828L114.676 113.578C114.45 113.663 114.212 113.607 114.052 113.465L115.292 112.066ZM117.56 113.377C116.715 113.095 115.945 112.645 115.292 112.066L114.052 113.465C114.89 114.208 115.879 114.787 116.968 115.15L117.56 113.377ZM118.402 114.359C118.323 113.888 117.987 113.52 117.56 113.377L116.968 115.15C116.765 115.083 116.598 114.905 116.558 114.667L118.402 114.359ZM118.597 115.529L118.402 114.359L116.558 114.667L116.753 115.837L118.597 115.529ZM118.289 115.269C118.442 115.269 118.572 115.379 118.597 115.529L116.753 115.837C116.878 116.588 117.528 117.138 118.289 117.138V115.269ZM120.972 115.269H118.289V117.138H120.972V115.269ZM120.665 115.529C120.69 115.379 120.82 115.269 120.972 115.269V117.138C121.734 117.138 122.384 116.588 122.509 115.837L120.665 115.529ZM120.86 114.359L120.665 115.529L122.509 115.837L122.704 114.667L120.86 114.359ZM121.702 113.377C121.274 113.52 120.939 113.888 120.86 114.359L122.704 114.667C122.664 114.905 122.496 115.083 122.293 115.15L121.702 113.377ZM123.969 112.066C123.316 112.645 122.547 113.095 121.702 113.377L122.293 115.15C123.382 114.787 124.371 114.208 125.21 113.465L123.969 112.066ZM125.241 111.828C124.794 111.66 124.307 111.767 123.969 112.066L125.21 113.465C125.049 113.607 124.811 113.663 124.585 113.578L125.241 111.828ZM126.354 112.245L125.241 111.828L124.585 113.578L125.698 113.995L126.354 112.245ZM125.975 112.381C126.051 112.249 126.211 112.191 126.354 112.245L125.698 113.995C126.411 114.262 127.213 113.975 127.594 113.315L125.975 112.381ZM127.316 110.057L125.975 112.381L127.594 113.315L128.935 110.992L127.316 110.057ZM127.388 110.454C127.271 110.357 127.24 110.189 127.316 110.057L128.935 110.992C129.316 110.333 129.164 109.495 128.576 109.011L127.388 110.454ZM126.472 109.699L127.388 110.454L128.576 109.011L127.66 108.256L126.472 109.699ZM126.042 108.481C125.952 108.922 126.103 109.396 126.472 109.699L127.66 108.256C127.846 108.409 127.916 108.643 127.874 108.853L126.042 108.481ZM126.173 107.169C126.173 107.619 126.128 108.058 126.042 108.481L127.874 108.853C127.984 108.308 128.042 107.745 128.042 107.169H126.173ZM126.042 105.858C126.128 106.281 126.173 106.719 126.173 107.169H128.042C128.042 106.593 127.984 106.03 127.874 105.485L126.042 105.858ZM126.472 104.639C126.103 104.942 125.952 105.417 126.042 105.858L127.874 105.485C127.916 105.695 127.846 105.929 127.66 106.082L126.472 104.639ZM127.388 103.885L126.472 104.639L127.66 106.082L128.576 105.328L127.388 103.885ZM127.316 104.281C127.24 104.149 127.271 103.981 127.388 103.885L128.576 105.328C129.164 104.844 129.316 104.006 128.935 103.346L127.316 104.281ZM125.975 101.957L127.316 104.281L128.935 103.346L127.594 101.023L125.975 101.957ZM126.354 102.093C126.211 102.147 126.051 102.089 125.975 101.957L127.594 101.023C127.213 100.363 126.411 100.076 125.698 100.343L126.354 102.093ZM125.241 102.51L126.354 102.093L125.698 100.343L124.585 100.76L125.241 102.51ZM123.969 102.272C124.307 102.571 124.793 102.678 125.241 102.51L124.585 100.76C124.811 100.675 125.049 100.731 125.21 100.874L123.969 102.272ZM121.702 100.961C122.547 101.243 123.316 101.693 123.969 102.272L125.21 100.874C124.371 100.13 123.382 99.551 122.293 99.1879L121.702 100.961ZM120.86 99.979C120.939 100.451 121.274 100.819 121.702 100.961L122.293 99.1879C122.496 99.2556 122.664 99.4336 122.704 99.6717L120.86 99.979ZM120.665 98.8088L120.86 99.979L122.704 99.6717L122.509 98.5015L120.665 98.8088ZM120.972 99.0691C120.82 99.0691 120.69 98.959 120.665 98.8088L122.509 98.5015C122.384 97.7504 121.734 97.1999 120.972 97.1999V99.0691ZM122.435 107.169C122.435 108.718 121.179 109.973 119.631 109.973V111.842C122.212 111.842 124.304 109.75 124.304 107.169H122.435ZM119.631 104.365C121.179 104.365 122.435 105.621 122.435 107.169H124.304C124.304 104.588 122.212 102.496 119.631 102.496V104.365ZM116.827 107.169C116.827 105.621 118.082 104.365 119.631 104.365V102.496C117.05 102.496 114.958 104.588 114.958 107.169H116.827ZM119.631 109.973C118.082 109.973 116.827 108.718 116.827 107.169H114.958C114.958 109.75 117.05 111.842 119.631 111.842V109.973Z" fill="#666666"/>
</g>
<path d="M104.677 88.4769H134.585V85.9846H104.677V88.4769ZM138.323 92.2153V122.123H140.815V92.2153H138.323ZM134.585 125.861H104.677V128.354H134.585V125.861ZM100.938 122.123V92.2153H98.4462V122.123H100.938ZM104.677 125.861C102.612 125.861 100.938 124.188 100.938 122.123H98.4462C98.4462 125.564 101.236 128.354 104.677 128.354V125.861ZM138.323 122.123C138.323 124.188 136.649 125.861 134.585 125.861V128.354C138.026 128.354 140.815 125.564 140.815 122.123H138.323ZM134.585 88.4769C136.649 88.4769 138.323 90.1506 138.323 92.2153H140.815C140.815 88.7742 138.026 85.9846 134.585 85.9846V88.4769ZM104.677 85.9846C101.236 85.9846 98.4462 88.7742 98.4462 92.2153H100.938C100.938 90.1506 102.612 88.4769 104.677 88.4769V85.9846Z" fill="#BFBFBF"/>
<rect x="32.4" y="32.4" width="176.954" height="39.8769" rx="4.98462" fill="black"/>
<path d="M115.269 72.277H125.239L120.254 77.2616L115.269 72.277Z" fill="black"/>
<path d="M59.6147 49.9073H61.0353C60.9555 49.339 60.7861 48.8406 60.5269 48.4119C60.2677 47.9733 59.9437 47.6094 59.5549 47.3203C59.1661 47.0312 58.7224 46.8118 58.224 46.6623C57.7255 46.5128 57.1971 46.438 56.6389 46.438C55.8214 46.438 55.0936 46.5875 54.4556 46.8866C53.8275 47.1757 53.2992 47.5745 52.8705 48.0829C52.4518 48.5914 52.1328 49.1895 51.9134 49.8774C51.6941 50.5553 51.5845 51.283 51.5845 52.0606C51.5845 52.8382 51.6842 53.566 51.8835 54.2439C52.0929 54.9218 52.4019 55.51 52.8107 56.0085C53.2194 56.5069 53.7328 56.9007 54.3509 57.1898C54.969 57.469 55.6918 57.6085 56.5192 57.6085C57.885 57.6085 58.9617 57.2347 59.7493 56.487C60.5368 55.7393 61.0004 54.6925 61.14 53.3467H59.7194C59.6894 53.7853 59.5997 54.1941 59.4502 54.5729C59.3006 54.9517 59.0913 55.2807 58.8221 55.5598C58.5629 55.829 58.2489 56.0434 57.88 56.2029C57.5211 56.3524 57.1074 56.4272 56.6389 56.4272C56.0008 56.4272 55.4525 56.3075 54.9939 56.0683C54.5354 55.829 54.1565 55.51 53.8574 55.1112C53.5683 54.7025 53.354 54.229 53.2144 53.6906C53.0749 53.1423 53.0051 52.5641 53.0051 51.956C53.0051 51.3977 53.0749 50.8594 53.2144 50.341C53.354 49.8226 53.5683 49.364 53.8574 48.9652C54.1565 48.5565 54.5304 48.2325 54.979 47.9932C55.4376 47.7539 55.9859 47.6343 56.6239 47.6343C57.3716 47.6343 58.0146 47.8237 58.553 48.2026C59.1013 48.5814 59.4552 49.1496 59.6147 49.9073ZM63.6175 53.5112C63.6175 53.0426 63.6773 52.6289 63.797 52.27C63.9266 51.9011 64.101 51.5921 64.3203 51.3429C64.5397 51.0936 64.7939 50.9042 65.083 50.7746C65.3821 50.645 65.6961 50.5802 66.0251 50.5802C66.3541 50.5802 66.6631 50.645 66.9522 50.7746C67.2513 50.9042 67.5105 51.0936 67.7298 51.3429C67.9491 51.5921 68.1186 51.9011 68.2383 52.27C68.3679 52.6289 68.4327 53.0426 68.4327 53.5112C68.4327 53.9797 68.3679 54.3984 68.2383 54.7673C68.1186 55.1262 67.9491 55.4302 67.7298 55.6795C67.5105 55.9187 67.2513 56.1032 66.9522 56.2328C66.6631 56.3624 66.3541 56.4272 66.0251 56.4272C65.6961 56.4272 65.3821 56.3624 65.083 56.2328C64.7939 56.1032 64.5397 55.9187 64.3203 55.6795C64.101 55.4302 63.9266 55.1262 63.797 54.7673C63.6773 54.3984 63.6175 53.9797 63.6175 53.5112ZM62.2717 53.5112C62.2717 54.0794 62.3514 54.6078 62.5109 55.0963C62.6704 55.5848 62.9097 56.0134 63.2287 56.3823C63.5477 56.7412 63.9415 57.0253 64.4101 57.2347C64.8786 57.4341 65.417 57.5338 66.0251 57.5338C66.6432 57.5338 67.1815 57.4341 67.6401 57.2347C68.1087 57.0253 68.5024 56.7412 68.8215 56.3823C69.1405 56.0134 69.3797 55.5848 69.5392 55.0963C69.6987 54.6078 69.7785 54.0794 69.7785 53.5112C69.7785 52.9429 69.6987 52.4146 69.5392 51.9261C69.3797 51.4276 69.1405 50.9989 68.8215 50.64C68.5024 50.2712 68.1087 49.9821 67.6401 49.7727C67.1815 49.5634 66.6432 49.4587 66.0251 49.4587C65.417 49.4587 64.8786 49.5634 64.4101 49.7727C63.9415 49.9821 63.5477 50.2712 63.2287 50.64C62.9097 50.9989 62.6704 51.4276 62.5109 51.9261C62.3514 52.4146 62.2717 52.9429 62.2717 53.5112ZM71.2772 49.6381V57.3693H72.5482V53.0027C72.5482 52.6538 72.5931 52.3348 72.6828 52.0457C72.7825 51.7466 72.9271 51.4874 73.1165 51.2681C73.3059 51.0488 73.5402 50.8793 73.8193 50.7597C74.1084 50.64 74.4474 50.5802 74.8362 50.5802C75.3247 50.5802 75.7085 50.7198 75.9876 50.9989C76.2668 51.2781 76.4063 51.6569 76.4063 52.1354V57.3693H77.6774V52.285C77.6774 51.8662 77.6325 51.4874 77.5428 51.1485C77.4631 50.7995 77.3185 50.5005 77.1092 50.2512C76.8998 50.002 76.6256 49.8076 76.2867 49.668C75.9477 49.5285 75.524 49.4587 75.0156 49.4587C73.8692 49.4587 73.0317 49.9272 72.5034 50.8643H72.4735V49.6381H71.2772ZM84.0876 57.3693H85.3587V49.6381H84.0876V57.3693ZM84.0876 48.2474H85.3587V46.6922H84.0876V48.2474ZM80.1099 50.7597V57.3693H81.3809V50.7597H82.8763V49.6381H81.3809V48.5614C81.3809 48.2225 81.4657 47.9932 81.6351 47.8736C81.8046 47.7539 82.0439 47.6941 82.3529 47.6941C82.4626 47.6941 82.5822 47.7041 82.7118 47.724C82.8414 47.734 82.9611 47.7589 83.0707 47.7988V46.6922C82.9511 46.6523 82.8115 46.6224 82.652 46.6025C82.5025 46.5826 82.3679 46.5726 82.2483 46.5726C81.5504 46.5726 81.0171 46.7371 80.6482 47.0661C80.2893 47.3851 80.1099 47.8586 80.1099 48.4867V49.6381H78.8089V50.7597H80.1099ZM93.9957 56.7113V49.6381H92.7994V50.7447H92.7844C92.5551 50.316 92.2361 49.997 91.8274 49.7877C91.4186 49.5683 90.97 49.4587 90.4815 49.4587C89.8136 49.4587 89.2503 49.5883 88.7917 49.8475C88.3331 50.0967 87.9643 50.4207 87.6851 50.8195C87.406 51.2083 87.2066 51.6469 87.087 52.1354C86.9674 52.6139 86.9075 53.0825 86.9075 53.5411C86.9075 54.0694 86.9773 54.5729 87.1169 55.0514C87.2664 55.52 87.4858 55.9337 87.7749 56.2926C88.064 56.6415 88.4229 56.9206 88.8515 57.13C89.2802 57.3394 89.7837 57.444 90.3619 57.444C90.8603 57.444 91.3289 57.3344 91.7675 57.115C92.2162 56.8858 92.5501 56.5318 92.7695 56.0533H92.7994V56.5618C92.7994 56.9904 92.7545 57.3842 92.6648 57.7431C92.585 58.102 92.4504 58.4061 92.261 58.6553C92.0716 58.9145 91.8323 59.1139 91.5432 59.2534C91.2541 59.403 90.9002 59.4778 90.4815 59.4778C90.2722 59.4778 90.0528 59.4528 89.8235 59.403C89.5943 59.3631 89.3799 59.2933 89.1805 59.1936C88.9911 59.0939 88.8266 58.9643 88.6871 58.8048C88.5575 58.6453 88.4877 58.4509 88.4777 58.2216H87.2066C87.2266 58.6403 87.3362 58.9942 87.5356 59.2834C87.735 59.5725 87.9842 59.8067 88.2833 59.9862C88.5923 60.1656 88.9313 60.2952 89.3002 60.375C89.679 60.4547 90.0479 60.4946 90.4067 60.4946C91.6429 60.4946 92.5501 60.1806 93.1283 59.5525C93.7066 58.9245 93.9957 57.9774 93.9957 56.7113ZM90.4367 56.3374C90.0179 56.3374 89.669 56.2527 89.3899 56.0832C89.1107 55.9038 88.8864 55.6745 88.717 55.3954C88.5475 55.1062 88.4279 54.7872 88.3581 54.4383C88.2883 54.0894 88.2534 53.7405 88.2534 53.3915C88.2534 53.0227 88.2933 52.6688 88.373 52.3298C88.4627 51.9909 88.5973 51.6918 88.7768 51.4326C88.9662 51.1734 89.2055 50.969 89.4946 50.8195C89.7837 50.66 90.1326 50.5802 90.5413 50.5802C90.9401 50.5802 91.2791 50.66 91.5582 50.8195C91.8373 50.979 92.0616 51.1933 92.2311 51.4625C92.4106 51.7217 92.5402 52.0158 92.6199 52.3448C92.6997 52.6738 92.7395 53.0077 92.7395 53.3467C92.7395 53.7056 92.6947 54.0645 92.605 54.4234C92.5252 54.7822 92.3956 55.1062 92.2162 55.3954C92.0367 55.6745 91.7975 55.9038 91.4984 56.0832C91.2093 56.2527 90.8554 56.3374 90.4367 56.3374ZM102.313 57.3693V49.6381H101.042V54.0046C101.042 54.3536 100.992 54.6776 100.893 54.9766C100.803 55.2658 100.663 55.52 100.474 55.7393C100.285 55.9586 100.045 56.1281 99.7562 56.2477C99.477 56.3674 99.1431 56.4272 98.7543 56.4272C98.2658 56.4272 97.882 56.2876 97.6028 56.0085C97.3237 55.7293 97.1841 55.3505 97.1841 54.872V49.6381H95.913V54.7224C95.913 55.1411 95.9529 55.525 96.0327 55.8739C96.1224 56.2128 96.2719 56.5069 96.4813 56.7562C96.6906 57.0054 96.9648 57.1998 97.3037 57.3394C97.6427 57.469 98.0664 57.5338 98.5748 57.5338C99.1431 57.5338 99.6365 57.4241 100.055 57.2048C100.474 56.9755 100.818 56.6216 101.087 56.143H101.117V57.3693H102.313ZM104.177 49.6381V57.3693H105.449V53.9299C105.449 53.4314 105.498 52.9928 105.598 52.6139C105.698 52.2251 105.857 51.8962 106.077 51.627C106.296 51.3578 106.585 51.1534 106.944 51.0139C107.303 50.8743 107.737 50.8045 108.245 50.8045V49.4587C107.557 49.4387 106.989 49.5783 106.54 49.8774C106.092 50.1765 105.713 50.64 105.404 51.2681H105.374V49.6381H104.177ZM114.308 52.7635H109.866C109.886 52.4644 109.951 52.1853 110.061 51.9261C110.17 51.6569 110.32 51.4226 110.509 51.2232C110.699 51.0238 110.923 50.8693 111.182 50.7597C111.451 50.64 111.751 50.5802 112.08 50.5802C112.399 50.5802 112.688 50.64 112.947 50.7597C113.216 50.8693 113.445 51.0238 113.635 51.2232C113.834 51.4126 113.989 51.6419 114.098 51.9111C114.218 52.1803 114.288 52.4644 114.308 52.7635ZM115.534 54.9168H114.278C114.168 55.4253 113.939 55.8041 113.59 56.0533C113.251 56.3026 112.812 56.4272 112.274 56.4272C111.855 56.4272 111.491 56.3574 111.182 56.2178C110.873 56.0782 110.619 55.8938 110.42 55.6645C110.22 55.4253 110.076 55.1561 109.986 54.857C109.896 54.548 109.856 54.224 109.866 53.885H115.654C115.673 53.4165 115.629 52.923 115.519 52.4046C115.419 51.8862 115.23 51.4077 114.951 50.969C114.682 50.5304 114.318 50.1715 113.859 49.8923C113.41 49.6032 112.842 49.4587 112.154 49.4587C111.626 49.4587 111.137 49.5584 110.689 49.7578C110.25 49.9571 109.866 50.2363 109.537 50.5952C109.218 50.9541 108.969 51.3778 108.79 51.8662C108.61 52.3547 108.521 52.8931 108.521 53.4813C108.54 54.0694 108.625 54.6128 108.775 55.1112C108.934 55.6097 109.169 56.0384 109.478 56.3973C109.787 56.7562 110.165 57.0353 110.614 57.2347C111.073 57.4341 111.611 57.5338 112.229 57.5338C113.106 57.5338 113.834 57.3144 114.412 56.8758C114.991 56.4371 115.364 55.7842 115.534 54.9168ZM122.479 48.2474V46.6922H121.208V48.2474H122.479ZM121.208 49.6381V57.3693H122.479V49.6381H121.208ZM124.448 49.6381V57.3693H125.719V53.0027C125.719 52.6538 125.764 52.3348 125.854 52.0457C125.953 51.7466 126.098 51.4874 126.287 51.2681C126.477 51.0488 126.711 50.8793 126.99 50.7597C127.279 50.64 127.618 50.5802 128.007 50.5802C128.496 50.5802 128.879 50.7198 129.158 50.9989C129.438 51.2781 129.577 51.6569 129.577 52.1354V57.3693H130.848V52.285C130.848 51.8662 130.803 51.4874 130.714 51.1485C130.634 50.7995 130.489 50.5005 130.28 50.2512C130.071 50.002 129.796 49.8076 129.458 49.668C129.119 49.5285 128.695 49.4587 128.186 49.4587C127.04 49.4587 126.203 49.9272 125.674 50.8643H125.644V49.6381H124.448ZM143.305 49.8176H144.65C144.63 49.2294 144.516 48.7259 144.306 48.3072C144.107 47.8786 143.828 47.5246 143.469 47.2455C143.12 46.9664 142.711 46.762 142.243 46.6324C141.774 46.5028 141.266 46.438 140.718 46.438C140.229 46.438 139.751 46.5028 139.282 46.6324C138.823 46.752 138.41 46.9414 138.041 47.2006C137.682 47.4499 137.393 47.7739 137.173 48.1726C136.954 48.5614 136.845 49.025 136.845 49.5634C136.845 50.0518 136.939 50.4606 137.129 50.7896C137.328 51.1086 137.587 51.3728 137.906 51.5821C138.235 51.7815 138.604 51.946 139.013 52.0756C139.422 52.1952 139.835 52.3049 140.254 52.4046C140.683 52.4943 141.101 52.584 141.51 52.6738C141.919 52.7635 142.283 52.8831 142.602 53.0326C142.931 53.1722 143.19 53.3566 143.379 53.5859C143.579 53.8152 143.678 54.1143 143.678 54.4832C143.678 54.872 143.599 55.191 143.439 55.4402C143.28 55.6894 143.07 55.8888 142.811 56.0384C142.552 56.1779 142.258 56.2776 141.929 56.3374C141.61 56.3973 141.291 56.4272 140.972 56.4272C140.573 56.4272 140.184 56.3773 139.805 56.2776C139.427 56.1779 139.093 56.0234 138.803 55.8141C138.524 55.6047 138.295 55.3405 138.116 55.0215C137.946 54.6925 137.861 54.3037 137.861 53.8551H136.516C136.516 54.5031 136.63 55.0664 136.859 55.5449C137.099 56.0134 137.418 56.4022 137.817 56.7113C138.225 57.0104 138.694 57.2347 139.222 57.3842C139.761 57.5338 140.329 57.6085 140.927 57.6085C141.415 57.6085 141.904 57.5487 142.392 57.4291C142.891 57.3194 143.339 57.14 143.738 56.8907C144.137 56.6315 144.461 56.3026 144.71 55.9038C144.969 55.495 145.099 55.0066 145.099 54.4383C145.099 53.9099 144.999 53.4713 144.8 53.1224C144.611 52.7734 144.351 52.4843 144.022 52.255C143.703 52.0258 143.339 51.8463 142.931 51.7167C142.522 51.5771 142.103 51.4575 141.675 51.3578C141.256 51.2581 140.842 51.1684 140.433 51.0886C140.025 50.9989 139.656 50.8893 139.327 50.7597C139.008 50.6301 138.749 50.4656 138.549 50.2662C138.36 50.0568 138.265 49.7877 138.265 49.4587C138.265 49.1098 138.33 48.8206 138.46 48.5914C138.599 48.3521 138.779 48.1627 138.998 48.0231C139.227 47.8835 139.486 47.7838 139.775 47.724C140.065 47.6642 140.359 47.6343 140.658 47.6343C141.395 47.6343 141.999 47.8088 142.467 48.1577C142.946 48.4966 143.225 49.0499 143.305 49.8176ZM151.984 52.7635H147.543C147.563 52.4644 147.628 52.1853 147.737 51.9261C147.847 51.6569 147.997 51.4226 148.186 51.2232C148.375 51.0238 148.6 50.8693 148.859 50.7597C149.128 50.64 149.427 50.5802 149.756 50.5802C150.075 50.5802 150.364 50.64 150.624 50.7597C150.893 50.8693 151.122 51.0238 151.311 51.2232C151.511 51.4126 151.665 51.6419 151.775 51.9111C151.895 52.1803 151.964 52.4644 151.984 52.7635ZM153.211 54.9168H151.954C151.845 55.4253 151.615 55.8041 151.267 56.0533C150.928 56.3026 150.489 56.4272 149.951 56.4272C149.532 56.4272 149.168 56.3574 148.859 56.2178C148.55 56.0782 148.296 55.8938 148.096 55.6645C147.897 55.4253 147.752 55.1561 147.663 54.857C147.573 54.548 147.533 54.224 147.543 53.885H153.33C153.35 53.4165 153.305 52.923 153.196 52.4046C153.096 51.8862 152.907 51.4077 152.627 50.969C152.358 50.5304 151.994 50.1715 151.536 49.8923C151.087 49.6032 150.519 49.4587 149.831 49.4587C149.303 49.4587 148.814 49.5584 148.366 49.7578C147.927 49.9571 147.543 50.2363 147.214 50.5952C146.895 50.9541 146.646 51.3778 146.466 51.8662C146.287 52.3547 146.197 52.8931 146.197 53.4813C146.217 54.0694 146.302 54.6128 146.451 55.1112C146.611 55.6097 146.845 56.0384 147.154 56.3973C147.463 56.7562 147.842 57.0353 148.291 57.2347C148.749 57.4341 149.288 57.5338 149.906 57.5338C150.783 57.5338 151.511 57.3144 152.089 56.8758C152.667 56.4371 153.041 55.7842 153.211 54.9168ZM156.412 49.6381V47.3203H155.141V49.6381H153.825V50.7597H155.141V55.6795C155.141 56.0384 155.176 56.3275 155.246 56.5468C155.316 56.7661 155.42 56.9356 155.56 57.0552C155.709 57.1749 155.899 57.2596 156.128 57.3094C156.367 57.3493 156.652 57.3693 156.981 57.3693H157.953V56.2477H157.369C157.17 56.2477 157.005 56.2427 156.876 56.2328C156.756 56.2128 156.662 56.1779 156.592 56.1281C156.522 56.0782 156.472 56.0085 156.442 55.9187C156.422 55.829 156.412 55.7094 156.412 55.5598V50.7597H157.953V49.6381H156.412ZM161.129 49.6381V47.3203H159.858V49.6381H158.542V50.7597H159.858V55.6795C159.858 56.0384 159.893 56.3275 159.963 56.5468C160.033 56.7661 160.137 56.9356 160.277 57.0552C160.426 57.1749 160.616 57.2596 160.845 57.3094C161.084 57.3493 161.368 57.3693 161.697 57.3693H162.669V56.2477H162.086C161.887 56.2477 161.722 56.2427 161.593 56.2328C161.473 56.2128 161.378 56.1779 161.309 56.1281C161.239 56.0782 161.189 56.0085 161.159 55.9187C161.139 55.829 161.129 55.7094 161.129 55.5598V50.7597H162.669V49.6381H161.129ZM165.427 48.2474V46.6922H164.156V48.2474H165.427ZM164.156 49.6381V57.3693H165.427V49.6381H164.156ZM167.397 49.6381V57.3693H168.668V53.0027C168.668 52.6538 168.712 52.3348 168.802 52.0457C168.902 51.7466 169.046 51.4874 169.236 51.2681C169.425 51.0488 169.66 50.8793 169.939 50.7597C170.228 50.64 170.567 50.5802 170.956 50.5802C171.444 50.5802 171.828 50.7198 172.107 50.9989C172.386 51.2781 172.526 51.6569 172.526 52.1354V57.3693H173.797V52.285C173.797 51.8662 173.752 51.4874 173.662 51.1485C173.582 50.7995 173.438 50.5005 173.229 50.2512C173.019 50.002 172.745 49.8076 172.406 49.668C172.067 49.5285 171.643 49.4587 171.135 49.4587C169.989 49.4587 169.151 49.9272 168.623 50.8643H168.593V49.6381H167.397ZM182.375 56.7113V49.6381H181.179V50.7447H181.164C180.935 50.316 180.616 49.997 180.207 49.7877C179.798 49.5683 179.35 49.4587 178.861 49.4587C178.193 49.4587 177.63 49.5883 177.171 49.8475C176.713 50.0967 176.344 50.4207 176.065 50.8195C175.786 51.2083 175.586 51.6469 175.467 52.1354C175.347 52.6139 175.287 53.0825 175.287 53.5411C175.287 54.0694 175.357 54.5729 175.496 55.0514C175.646 55.52 175.865 55.9337 176.154 56.2926C176.444 56.6415 176.802 56.9206 177.231 57.13C177.66 57.3394 178.163 57.444 178.741 57.444C179.24 57.444 179.708 57.3344 180.147 57.115C180.596 56.8858 180.93 56.5318 181.149 56.0533H181.179V56.5618C181.179 56.9904 181.134 57.3842 181.044 57.7431C180.965 58.102 180.83 58.4061 180.641 58.6553C180.451 58.9145 180.212 59.1139 179.923 59.2534C179.634 59.403 179.28 59.4778 178.861 59.4778C178.652 59.4778 178.432 59.4528 178.203 59.403C177.974 59.3631 177.759 59.2933 177.56 59.1936C177.371 59.0939 177.206 58.9643 177.067 58.8048C176.937 58.6453 176.867 58.4509 176.857 58.2216H175.586C175.606 58.6403 175.716 58.9942 175.915 59.2834C176.115 59.5725 176.364 59.8067 176.663 59.9862C176.972 60.1656 177.311 60.2952 177.68 60.375C178.059 60.4547 178.427 60.4946 178.786 60.4946C180.022 60.4946 180.93 60.1806 181.508 59.5525C182.086 58.9245 182.375 57.9774 182.375 56.7113ZM178.816 56.3374C178.398 56.3374 178.049 56.2527 177.769 56.0832C177.49 55.9038 177.266 55.6745 177.097 55.3954C176.927 55.1062 176.807 54.7872 176.738 54.4383C176.668 54.0894 176.633 53.7405 176.633 53.3915C176.633 53.0227 176.673 52.6688 176.753 52.3298C176.842 51.9909 176.977 51.6918 177.156 51.4326C177.346 51.1734 177.585 50.969 177.874 50.8195C178.163 50.66 178.512 50.5802 178.921 50.5802C179.32 50.5802 179.659 50.66 179.938 50.8195C180.217 50.979 180.441 51.1933 180.611 51.4625C180.79 51.7217 180.92 52.0158 180.999 52.3448C181.079 52.6738 181.119 53.0077 181.119 53.3467C181.119 53.7056 181.074 54.0645 180.985 54.4234C180.905 54.7822 180.775 55.1062 180.596 55.3954C180.416 55.6745 180.177 55.9038 179.878 56.0832C179.589 56.2527 179.235 56.3374 178.816 56.3374ZM185.07 54.9318H183.799C183.819 55.4103 183.919 55.819 184.098 56.158C184.278 56.487 184.517 56.7562 184.816 56.9655C185.115 57.1649 185.459 57.3094 185.848 57.3992C186.237 57.4889 186.645 57.5338 187.074 57.5338C187.463 57.5338 187.852 57.4939 188.24 57.4141C188.639 57.3443 188.993 57.2147 189.302 57.0253C189.621 56.8359 189.875 56.5867 190.065 56.2776C190.264 55.9686 190.364 55.5798 190.364 55.1112C190.364 54.7424 190.289 54.4333 190.14 54.1841C190 53.9349 189.811 53.7305 189.571 53.571C189.342 53.4015 189.073 53.2669 188.764 53.1672C188.465 53.0675 188.156 52.9828 187.837 52.913C187.538 52.8432 187.238 52.7784 186.939 52.7186C186.64 52.6488 186.371 52.5691 186.132 52.4794C185.893 52.3797 185.693 52.26 185.534 52.1205C185.384 51.9709 185.309 51.7865 185.309 51.5672C185.309 51.3678 185.359 51.2083 185.459 51.0886C185.559 50.959 185.688 50.8594 185.848 50.7896C186.007 50.7098 186.182 50.655 186.371 50.6251C186.571 50.5952 186.765 50.5802 186.954 50.5802C187.164 50.5802 187.368 50.6051 187.567 50.655C187.777 50.6949 187.966 50.7646 188.136 50.8643C188.305 50.964 188.445 51.0986 188.554 51.2681C188.664 51.4276 188.729 51.632 188.749 51.8812H190.02C189.99 51.4126 189.89 51.0238 189.721 50.7148C189.551 50.3958 189.322 50.1466 189.033 49.9671C188.754 49.7777 188.43 49.6481 188.061 49.5783C187.692 49.4986 187.288 49.4587 186.85 49.4587C186.511 49.4587 186.167 49.5035 185.818 49.5933C185.479 49.673 185.17 49.8026 184.891 49.9821C184.622 50.1515 184.397 50.3758 184.218 50.655C184.048 50.9341 183.964 51.2681 183.964 51.6569C183.964 52.1554 184.088 52.5442 184.337 52.8233C184.587 53.1024 184.896 53.3218 185.265 53.4813C185.643 53.6308 186.052 53.7504 186.491 53.8402C186.929 53.9199 187.333 54.0146 187.702 54.1243C188.081 54.224 188.395 54.3586 188.644 54.528C188.893 54.6975 189.018 54.9467 189.018 55.2757C189.018 55.515 188.958 55.7144 188.839 55.8739C188.719 56.0234 188.564 56.1381 188.375 56.2178C188.196 56.2976 187.996 56.3524 187.777 56.3823C187.558 56.4122 187.348 56.4272 187.149 56.4272C186.89 56.4272 186.635 56.4022 186.386 56.3524C186.147 56.3026 185.928 56.2228 185.728 56.1131C185.539 55.9935 185.384 55.839 185.265 55.6496C185.145 55.4502 185.08 55.2109 185.07 54.9318Z" fill="white"/>
<g filter="url(#filter0_d_1217_76513)">
<path fill-rule="evenodd" clip-rule="evenodd" d="M131.869 138.884C132.056 139.053 132.185 139.174 132.585 139.553C132.976 139.925 133.165 140.101 133.339 140.248C133.411 140.309 133.472 140.471 133.497 140.713C133.517 140.912 133.51 141.133 133.485 141.347C133.477 141.421 133.469 141.474 133.464 141.5C133.412 141.785 133.629 142.048 133.919 142.051C134.18 142.054 134.381 142.057 134.913 142.067C135.046 142.069 135.046 142.069 135.179 142.071C136.625 142.096 137.364 142.089 137.894 142.023C138.46 141.951 139.044 141.267 139.548 140.409C139.976 141.168 140.568 141.91 141.167 142.007C141.357 142.037 141.587 142.046 141.854 142.04C142.053 142.036 142.263 142.023 142.475 142.004C142.635 141.989 142.763 141.975 142.839 141.965C143.121 141.929 143.305 141.652 143.23 141.378C143.213 141.319 143.187 141.21 143.161 141.074C143.13 140.915 143.108 140.761 143.098 140.62C143.092 140.53 143.091 140.45 143.095 140.38C143.102 140.258 143.104 140.19 143.107 140.032C143.109 139.973 143.109 139.973 143.11 139.922C143.117 139.754 143.14 139.594 143.213 139.246C143.244 139.095 143.396 138.806 143.636 138.448C143.707 138.342 143.785 138.231 143.869 138.116C144.027 137.898 144.198 137.678 144.369 137.467C144.471 137.341 144.55 137.247 144.594 137.195C144.963 136.667 145.357 135.801 145.501 135.295C145.64 134.808 145.751 133.912 145.82 133.032C145.857 132.532 145.871 132.129 145.871 131.498C145.871 131.387 145.871 131.387 145.871 131.295C145.871 131.145 145.871 131.089 145.871 131.019C145.87 130.827 145.864 130.638 145.845 130.154C145.806 129.14 145.25 128.484 144.431 128.358C143.735 128.25 142.887 128.829 142.887 128.829C142.887 128.829 142.698 128.177 142.571 127.976C142.364 127.653 141.83 127.241 141.422 127.161C141.003 127.08 140.506 127.089 140.05 127.169C139.65 127.241 139.252 127.598 139.021 127.983C138.856 128.257 139.011 127.968 138.847 127.684C138.619 127.293 138.087 126.942 137.581 126.839C137.153 126.75 136.662 126.784 136.213 126.917C135.636 127.09 135.544 127.529 135.521 127.403C135.445 126.982 135.438 127.009 135.39 126.709C135.212 125.593 135.013 124.821 134.712 124.147C134.729 124.186 134.601 123.896 134.555 123.795C134.474 123.622 134.394 123.465 134.306 123.314C134.033 122.848 133.721 122.499 133.33 122.301C132.65 121.957 131.631 122.125 131.148 122.689C130.668 123.249 130.588 124.186 130.709 125.345C130.755 125.795 130.917 126.617 131.063 127.224C131.115 127.435 131.161 127.628 131.244 127.983C131.258 128.043 131.258 128.043 131.273 128.104C131.337 128.372 131.394 128.594 131.461 128.836C131.454 128.811 131.582 129.265 131.609 129.366C131.618 129.399 131.618 129.399 131.627 129.433C131.678 129.624 131.728 129.831 131.806 130.176C131.848 130.366 131.89 130.568 131.93 130.783C132.041 131.368 132.041 131.246 131.935 131.122C131.861 131.035 131.792 130.957 131.725 130.885C131.601 130.751 131.487 130.64 131.378 130.551C130.588 129.904 130.103 129.618 129.438 129.556C128.347 129.451 127.312 130.221 127.156 131.261C127.06 131.899 127.091 132.193 127.386 132.756C127.549 133.061 127.823 133.428 128.335 134.061C128.367 134.1 128.367 134.1 128.398 134.139C129.027 134.914 129.096 135 129.245 135.216C129.649 135.803 130.633 137.487 130.812 137.713L131.869 138.884Z" fill="black"/>
<path fill-rule="evenodd" clip-rule="evenodd" d="M129.124 133.55C129.093 133.511 129.093 133.511 129.062 133.473C128.592 132.892 128.334 132.547 128.213 132.319C128.022 131.956 128.012 131.857 128.08 131.4C128.161 130.861 128.743 130.428 129.349 130.486C129.769 130.526 130.135 130.742 130.787 131.275C130.857 131.332 130.942 131.415 131.04 131.52C131.097 131.582 131.158 131.651 131.224 131.728C131.323 131.844 131.656 132.252 131.607 132.193C131.68 132.28 131.732 132.347 131.791 132.43C131.908 132.598 131.974 132.691 132.063 132.81C132.021 132.754 132.331 133.182 132.396 133.244C132.744 133.576 133.246 133.296 133.215 132.855C133.21 132.781 133.192 132.701 133.156 132.562C133.013 131.541 132.963 131.214 132.849 130.609C132.806 130.385 132.763 130.172 132.717 129.971C132.637 129.615 132.585 129.398 132.531 129.193C132.521 129.157 132.521 129.157 132.511 129.121C132.483 129.015 132.353 128.554 132.361 128.585C132.297 128.355 132.244 128.144 132.182 127.886C132.167 127.827 132.167 127.827 132.153 127.767C132.07 127.414 132.024 127.217 131.971 127.003C131.834 126.435 131.679 125.648 131.638 125.249C131.544 124.346 131.609 123.586 131.858 123.296C132.051 123.07 132.601 122.98 132.908 123.135C133.108 123.237 133.309 123.461 133.499 123.785C133.571 123.908 133.638 124.04 133.707 124.189C133.749 124.279 133.873 124.56 133.859 124.529C134.121 125.115 134.301 125.814 134.467 126.856C134.516 127.164 134.577 127.514 134.654 127.942C134.678 128.068 134.678 128.068 134.701 128.195C135.076 130.233 135.049 130.078 135.054 130.241C135.074 130.834 135.949 130.847 135.988 130.256C136 130.068 135.996 129.9 135.974 129.419C135.971 129.351 135.971 129.351 135.968 129.283C135.949 128.839 135.95 128.584 135.976 128.439C136.024 128.175 136.262 127.878 136.48 127.813C136.787 127.722 137.124 127.699 137.393 127.754C137.651 127.807 137.952 128.006 138.039 128.154C138.143 128.333 138.232 128.607 138.3 128.946C138.356 129.219 138.394 129.512 138.42 129.826C138.429 129.923 138.434 129.998 138.442 130.123C138.446 130.175 138.446 130.175 138.45 130.218C138.452 130.24 138.452 130.24 138.456 130.274C138.46 130.298 138.46 130.298 138.478 130.358C138.487 130.53 138.487 130.53 139.177 130.594C139.383 130.345 139.383 130.345 139.377 130.301C139.411 130.153 139.432 129.989 139.461 129.68C139.48 129.479 139.489 129.381 139.5 129.278C139.546 128.854 139.605 128.585 139.676 128.467C139.764 128.319 140.074 128.114 140.213 128.089C140.563 128.028 140.947 128.021 141.243 128.078C141.377 128.105 141.705 128.358 141.782 128.478C141.942 128.73 142.096 129.539 142.184 130.343C142.17 130.396 142.17 130.396 142.384 130.701C143.12 130.617 143.12 130.617 143.099 130.485C143.118 130.437 143.134 130.383 143.156 130.297C143.208 130.098 143.243 129.983 143.295 129.853C143.331 129.764 143.369 129.687 143.408 129.626C143.558 129.39 143.947 129.229 144.289 129.282C144.655 129.338 144.889 129.614 144.912 130.19C144.93 130.664 144.935 130.846 144.936 131.025C144.937 131.091 144.937 131.144 144.936 131.293C144.936 131.385 144.936 131.385 144.936 131.498C144.936 132.107 144.923 132.486 144.888 132.96C144.824 133.775 144.718 134.634 144.603 135.038C144.485 135.45 144.134 136.223 143.855 136.625C143.836 136.644 143.751 136.745 143.643 136.879C143.462 137.101 143.282 137.334 143.113 137.566C143.023 137.69 142.938 137.811 142.859 137.928C142.556 138.381 142.361 138.752 142.298 139.055C142.215 139.449 142.185 139.658 142.177 139.885C142.174 139.949 142.174 139.949 142.173 140.012C142.17 140.159 142.168 140.218 142.162 140.326C142.155 140.439 142.157 140.559 142.166 140.686C142.179 140.868 142.166 141.117 142.166 141.117C142.166 141.117 142.008 141.102 141.832 141.106C141.617 141.111 141.439 141.104 141.315 141.084C141.137 141.055 140.655 140.453 140.409 139.983C140.032 139.265 139.118 139.3 138.743 139.934C138.405 140.51 137.921 141.077 137.777 141.095C137.31 141.154 136.588 141.161 135.196 141.137C135.062 141.134 135.062 141.134 134.929 141.132C134.395 141.123 134.416 141.213 134.426 141.117C134.458 140.842 134.454 140.893 134.426 140.619C134.38 140.159 134.238 139.783 133.942 139.534C133.789 139.404 133.606 139.234 133.238 138.885C132.818 138.486 132.686 138.362 132.524 138.22L131.525 137.11C131.416 136.97 130.454 135.323 130.014 134.685C129.844 134.438 129.78 134.358 129.124 133.55ZM140.973 133.554V137.865C140.973 138.488 141.908 138.488 141.908 137.865V133.554C141.908 132.931 140.973 132.931 140.973 133.554ZM138.442 133.554L138.461 137.881C138.464 138.505 139.399 138.5 139.396 137.877L139.376 133.549C139.373 132.926 138.439 132.93 138.442 133.554ZM136.935 137.857L136.909 133.588C136.905 132.965 135.97 132.971 135.974 133.594L136 137.863C136.004 138.486 136.939 138.48 136.935 137.857Z" fill="white"/>
</g>
<defs>
<filter id="filter0_d_1217_76513" x="124.615" y="120.877" width="23.7482" height="24.946" filterUnits="userSpaceOnUse" color-interpolation-filters="sRGB">
<feFlood flood-opacity="0" result="BackgroundImageFix"/>
<feColorMatrix in="SourceAlpha" type="matrix" values="0 0 0 0 0 0 0 0 0 0 0 0 0 0 0 0 0 0 127 0" result="hardAlpha"/>
<feOffset dy="1.24615"/>
<feGaussianBlur stdDeviation="1.24615"/>
<feColorMatrix type="matrix" values="0 0 0 0 0 0 0 0 0 0 0 0 0 0 0 0 0 0 0.298656 0"/>
<feBlend mode="normal" in2="BackgroundImageFix" result="effect1_dropShadow_1217_76513"/>
<feBlend mode="normal" in="SourceGraphic" in2="effect1_dropShadow_1217_76513" result="shape"/>
</filter>
<clipPath id="clip0_1217_76513">
<rect width="19.9385" height="19.9385" fill="white" transform="translate(109.662 97.2)"/>
</clipPath>
</defs>
</svg>
