<svg width="510" height="100" viewBox="0 0 510 100" fill="none" xmlns="http://www.w3.org/2000/svg">
<rect width="510" height="100" fill="white"/>
<path d="M19.164 27.152V20.852H20.732C21.2733 20.852 21.726 20.9313 22.09 21.09C22.4633 21.2393 22.762 21.4587 22.986 21.748C23.21 22.0373 23.3687 22.3873 23.462 22.798C23.5647 23.1993 23.616 23.652 23.616 24.156C23.616 24.7067 23.546 25.1733 23.406 25.556C23.266 25.9387 23.0793 26.2513 22.846 26.494C22.6127 26.7273 22.3467 26.8953 22.048 26.998C21.7493 27.1007 21.4413 27.152 21.124 27.152H19.164ZM16.966 19.004V29H21.278C22.0433 29 22.706 28.874 23.266 28.622C23.8353 28.3607 24.3067 28.006 24.68 27.558C25.0627 27.11 25.3473 26.578 25.534 25.962C25.7207 25.346 25.814 24.674 25.814 23.946C25.814 23.1153 25.6973 22.392 25.464 21.776C25.24 21.16 24.9227 20.6467 24.512 20.236C24.1107 19.8253 23.63 19.5173 23.07 19.312C22.5193 19.1067 21.922 19.004 21.278 19.004H16.966ZM32.005 24.604H28.771C28.7803 24.464 28.8083 24.3053 28.855 24.128C28.911 23.9507 28.9996 23.7827 29.121 23.624C29.2516 23.4653 29.4196 23.3347 29.625 23.232C29.8396 23.12 30.1056 23.064 30.423 23.064C30.9083 23.064 31.2676 23.1947 31.501 23.456C31.7436 23.7173 31.9116 24.1 32.005 24.604ZM28.771 25.864H33.993C34.0303 25.304 33.9836 24.7673 33.853 24.254C33.7223 23.7407 33.5076 23.2833 33.209 22.882C32.9196 22.4807 32.5463 22.1633 32.089 21.93C31.6316 21.6873 31.095 21.566 30.479 21.566C29.9283 21.566 29.4243 21.664 28.967 21.86C28.519 22.056 28.1316 22.3267 27.805 22.672C27.4783 23.008 27.2263 23.4093 27.049 23.876C26.8716 24.3427 26.783 24.8467 26.783 25.388C26.783 25.948 26.867 26.4613 27.035 26.928C27.2123 27.3947 27.4596 27.796 27.777 28.132C28.0943 28.468 28.4816 28.7293 28.939 28.916C29.3963 29.0933 29.9096 29.182 30.479 29.182C31.3003 29.182 32.0003 28.9953 32.579 28.622C33.1576 28.2487 33.587 27.628 33.867 26.76H32.117C32.0516 26.984 31.8743 27.1987 31.585 27.404C31.2956 27.6 30.9503 27.698 30.549 27.698C29.989 27.698 29.5596 27.5533 29.261 27.264C28.9623 26.9747 28.799 26.508 28.771 25.864ZM35.606 23.092V29H37.594V23.092H38.966V21.762H37.594V21.328C37.594 21.0293 37.65 20.8193 37.762 20.698C37.8833 20.5673 38.0793 20.502 38.35 20.502C38.602 20.502 38.8447 20.516 39.078 20.544V19.06C38.91 19.0507 38.7373 19.0413 38.56 19.032C38.3827 19.0133 38.2053 19.004 38.028 19.004C37.216 19.004 36.6093 19.2093 36.208 19.62C35.8067 20.0307 35.606 20.558 35.606 21.202V21.762H34.416V23.092H35.606ZM39.7501 23.988C39.7781 23.5213 39.8948 23.134 40.1001 22.826C40.3055 22.518 40.5668 22.2707 40.8841 22.084C41.2015 21.8973 41.5561 21.7667 41.9481 21.692C42.3495 21.608 42.7508 21.566 43.1521 21.566C43.5161 21.566 43.8848 21.594 44.2581 21.65C44.6315 21.6967 44.9721 21.7947 45.2801 21.944C45.5881 22.0933 45.8401 22.3033 46.0361 22.574C46.2321 22.8353 46.3301 23.1853 46.3301 23.624V27.39C46.3301 27.7167 46.3488 28.0293 46.3861 28.328C46.4235 28.6267 46.4888 28.8507 46.5821 29H44.5661C44.5288 28.888 44.4961 28.776 44.4681 28.664C44.4495 28.5427 44.4355 28.4213 44.4261 28.3C44.1088 28.6267 43.7355 28.8553 43.3061 28.986C42.8768 29.1167 42.4381 29.182 41.9901 29.182C41.6448 29.182 41.3228 29.14 41.0241 29.056C40.7255 28.972 40.4641 28.8413 40.2401 28.664C40.0161 28.4867 39.8388 28.2627 39.7081 27.992C39.5868 27.7213 39.5261 27.3993 39.5261 27.026C39.5261 26.6153 39.5961 26.2793 39.7361 26.018C39.8855 25.7473 40.0721 25.5327 40.2961 25.374C40.5295 25.2153 40.7908 25.0987 41.0801 25.024C41.3788 24.94 41.6775 24.8747 41.9761 24.828C42.2748 24.7813 42.5688 24.744 42.8581 24.716C43.1475 24.688 43.4041 24.646 43.6281 24.59C43.8521 24.534 44.0295 24.4547 44.1601 24.352C44.2908 24.24 44.3515 24.0813 44.3421 23.876C44.3421 23.6613 44.3048 23.4933 44.2301 23.372C44.1648 23.2413 44.0715 23.1433 43.9501 23.078C43.8381 23.0033 43.7028 22.9567 43.5441 22.938C43.3948 22.91 43.2315 22.896 43.0541 22.896C42.6621 22.896 42.3541 22.98 42.1301 23.148C41.9061 23.316 41.7755 23.596 41.7381 23.988H39.7501ZM44.3421 25.458C44.2581 25.5327 44.1508 25.5933 44.0201 25.64C43.8988 25.6773 43.7635 25.71 43.6141 25.738C43.4741 25.766 43.3248 25.7893 43.1661 25.808C43.0075 25.8267 42.8488 25.85 42.6901 25.878C42.5408 25.906 42.3915 25.9433 42.2421 25.99C42.1021 26.0367 41.9761 26.102 41.8641 26.186C41.7615 26.2607 41.6775 26.3587 41.6121 26.48C41.5468 26.6013 41.5141 26.7553 41.5141 26.942C41.5141 27.1193 41.5468 27.2687 41.6121 27.39C41.6775 27.5113 41.7661 27.6093 41.8781 27.684C41.9901 27.7493 42.1208 27.796 42.2701 27.824C42.4195 27.852 42.5735 27.866 42.7321 27.866C43.1241 27.866 43.4275 27.8007 43.6421 27.67C43.8568 27.5393 44.0155 27.3853 44.1181 27.208C44.2208 27.0213 44.2815 26.8347 44.3001 26.648C44.3281 26.4613 44.3421 26.312 44.3421 26.2V25.458ZM54.6632 29V21.762H52.6752V25.556C52.6752 26.2933 52.5539 26.8253 52.3112 27.152C52.0685 27.4693 51.6765 27.628 51.1352 27.628C50.6592 27.628 50.3279 27.4833 50.1412 27.194C49.9545 26.8953 49.8612 26.4473 49.8612 25.85V21.762H47.8732V26.214C47.8732 26.662 47.9105 27.0727 47.9852 27.446C48.0692 27.81 48.2092 28.1227 48.4052 28.384C48.6012 28.636 48.8672 28.832 49.2032 28.972C49.5485 29.112 49.9872 29.182 50.5192 29.182C50.9392 29.182 51.3499 29.0887 51.7512 28.902C52.1525 28.7153 52.4792 28.412 52.7312 27.992H52.7732V29H54.6632ZM56.228 19.004V29H58.216V19.004H56.228ZM62.3014 21.762V19.592H60.3134V21.762H59.1094V23.092H60.3134V27.362C60.3134 27.726 60.3741 28.02 60.4954 28.244C60.6167 28.468 60.7801 28.6407 60.9854 28.762C61.2001 28.8833 61.4427 28.9627 61.7134 29C61.9934 29.0467 62.2874 29.07 62.5954 29.07C62.7914 29.07 62.9921 29.0653 63.1974 29.056C63.4027 29.0467 63.5894 29.028 63.7574 29V27.46C63.6641 27.4787 63.5661 27.4927 63.4634 27.502C63.3607 27.5113 63.2534 27.516 63.1414 27.516C62.8054 27.516 62.5814 27.46 62.4694 27.348C62.3574 27.236 62.3014 27.012 62.3014 26.676V23.092H63.7574V21.762H62.3014ZM71.1198 21.762V19.592H69.1318V21.762H67.9278V23.092H69.1318V27.362C69.1318 27.726 69.1924 28.02 69.3138 28.244C69.4351 28.468 69.5984 28.6407 69.8038 28.762C70.0184 28.8833 70.2611 28.9627 70.5318 29C70.8118 29.0467 71.1058 29.07 71.4138 29.07C71.6098 29.07 71.8104 29.0653 72.0158 29.056C72.2211 29.0467 72.4078 29.028 72.5758 29V27.46C72.4824 27.4787 72.3844 27.4927 72.2818 27.502C72.1791 27.5113 72.0718 27.516 71.9597 27.516C71.6238 27.516 71.3998 27.46 71.2878 27.348C71.1758 27.236 71.1198 27.012 71.1198 26.676V23.092H72.5758V21.762H71.1198ZM75.2856 25.388C75.2856 25.0987 75.3136 24.814 75.3696 24.534C75.4256 24.254 75.519 24.0067 75.6496 23.792C75.7896 23.5773 75.9716 23.4047 76.1956 23.274C76.4196 23.134 76.6996 23.064 77.0356 23.064C77.3716 23.064 77.6516 23.134 77.8756 23.274C78.109 23.4047 78.291 23.5773 78.4216 23.792C78.5616 24.0067 78.6596 24.254 78.7156 24.534C78.7716 24.814 78.7996 25.0987 78.7996 25.388C78.7996 25.6773 78.7716 25.962 78.7156 26.242C78.6596 26.5127 78.5616 26.76 78.4216 26.984C78.291 27.1987 78.109 27.3713 77.8756 27.502C77.6516 27.6327 77.3716 27.698 77.0356 27.698C76.6996 27.698 76.4196 27.6327 76.1956 27.502C75.9716 27.3713 75.7896 27.1987 75.6496 26.984C75.519 26.76 75.4256 26.5127 75.3696 26.242C75.3136 25.962 75.2856 25.6773 75.2856 25.388ZM73.2976 25.388C73.2976 25.9667 73.3863 26.4893 73.5636 26.956C73.741 27.4227 73.993 27.824 74.3196 28.16C74.6463 28.4867 75.0383 28.7387 75.4956 28.916C75.953 29.0933 76.4663 29.182 77.0356 29.182C77.605 29.182 78.1183 29.0933 78.5756 28.916C79.0423 28.7387 79.439 28.4867 79.7656 28.16C80.0923 27.824 80.3443 27.4227 80.5216 26.956C80.699 26.4893 80.7876 25.9667 80.7876 25.388C80.7876 24.8093 80.699 24.2867 80.5216 23.82C80.3443 23.344 80.0923 22.9427 79.7656 22.616C79.439 22.28 79.0423 22.0233 78.5756 21.846C78.1183 21.6593 77.605 21.566 77.0356 21.566C76.4663 21.566 75.953 21.6593 75.4956 21.846C75.0383 22.0233 74.6463 22.28 74.3196 22.616C73.993 22.9427 73.741 23.344 73.5636 23.82C73.3863 24.2867 73.2976 24.8093 73.2976 25.388ZM88.7067 25.136L90.0087 21.468H90.0367L91.2967 25.136H88.7067ZM88.9167 19.004L85.1367 29H87.3487L88.1327 26.774H91.8707L92.6267 29H94.9087L91.1707 19.004H88.9167ZM102.351 29V21.762H100.363V25.556C100.363 26.2933 100.241 26.8253 99.9987 27.152C99.756 27.4693 99.364 27.628 98.8227 27.628C98.3467 27.628 98.0154 27.4833 97.8287 27.194C97.642 26.8953 97.5487 26.4473 97.5487 25.85V21.762H95.5607V26.214C95.5607 26.662 95.598 27.0727 95.6727 27.446C95.7567 27.81 95.8967 28.1227 96.0927 28.384C96.2887 28.636 96.5547 28.832 96.8907 28.972C97.236 29.112 97.6747 29.182 98.2067 29.182C98.6267 29.182 99.0374 29.0887 99.4387 28.902C99.84 28.7153 100.167 28.412 100.419 27.992H100.461V29H102.351ZM106.38 21.762V19.592H104.392V21.762H103.188V23.092H104.392V27.362C104.392 27.726 104.452 28.02 104.574 28.244C104.695 28.468 104.858 28.6407 105.064 28.762C105.278 28.8833 105.521 28.9627 105.792 29C106.072 29.0467 106.366 29.07 106.674 29.07C106.87 29.07 107.07 29.0653 107.276 29.056C107.481 29.0467 107.668 29.028 107.836 29V27.46C107.742 27.4787 107.644 27.4927 107.542 27.502C107.439 27.5113 107.332 27.516 107.22 27.516C106.884 27.516 106.66 27.46 106.548 27.348C106.436 27.236 106.38 27.012 106.38 26.676V23.092H107.836V21.762H106.38ZM110.545 25.388C110.545 25.0987 110.573 24.814 110.629 24.534C110.685 24.254 110.779 24.0067 110.909 23.792C111.049 23.5773 111.231 23.4047 111.455 23.274C111.679 23.134 111.959 23.064 112.295 23.064C112.631 23.064 112.911 23.134 113.135 23.274C113.369 23.4047 113.551 23.5773 113.681 23.792C113.821 24.0067 113.919 24.254 113.975 24.534C114.031 24.814 114.059 25.0987 114.059 25.388C114.059 25.6773 114.031 25.962 113.975 26.242C113.919 26.5127 113.821 26.76 113.681 26.984C113.551 27.1987 113.369 27.3713 113.135 27.502C112.911 27.6327 112.631 27.698 112.295 27.698C111.959 27.698 111.679 27.6327 111.455 27.502C111.231 27.3713 111.049 27.1987 110.909 26.984C110.779 26.76 110.685 26.5127 110.629 26.242C110.573 25.962 110.545 25.6773 110.545 25.388ZM108.557 25.388C108.557 25.9667 108.646 26.4893 108.823 26.956C109.001 27.4227 109.253 27.824 109.579 28.16C109.906 28.4867 110.298 28.7387 110.755 28.916C111.213 29.0933 111.726 29.182 112.295 29.182C112.865 29.182 113.378 29.0933 113.835 28.916C114.302 28.7387 114.699 28.4867 115.025 28.16C115.352 27.824 115.604 27.4227 115.781 26.956C115.959 26.4893 116.047 25.9667 116.047 25.388C116.047 24.8093 115.959 24.2867 115.781 23.82C115.604 23.344 115.352 22.9427 115.025 22.616C114.699 22.28 114.302 22.0233 113.835 21.846C113.378 21.6593 112.865 21.566 112.295 21.566C111.726 21.566 111.213 21.6593 110.755 21.846C110.298 22.0233 109.906 22.28 109.579 22.616C109.253 22.9427 109.001 23.344 108.823 23.82C108.646 24.2867 108.557 24.8093 108.557 25.388ZM123.644 27.152V20.852H125.212C125.754 20.852 126.206 20.9313 126.57 21.09C126.944 21.2393 127.242 21.4587 127.466 21.748C127.69 22.0373 127.849 22.3873 127.942 22.798C128.045 23.1993 128.096 23.652 128.096 24.156C128.096 24.7067 128.026 25.1733 127.886 25.556C127.746 25.9387 127.56 26.2513 127.326 26.494C127.093 26.7273 126.827 26.8953 126.528 26.998C126.23 27.1007 125.922 27.152 125.604 27.152H123.644ZM121.446 19.004V29H125.758C126.524 29 127.186 28.874 127.746 28.622C128.316 28.3607 128.787 28.006 129.16 27.558C129.543 27.11 129.828 26.578 130.014 25.962C130.201 25.346 130.294 24.674 130.294 23.946C130.294 23.1153 130.178 22.392 129.944 21.776C129.72 21.16 129.403 20.6467 128.992 20.236C128.591 19.8253 128.11 19.5173 127.55 19.312C127 19.1067 126.402 19.004 125.758 19.004H121.446ZM136.485 24.604H133.251C133.261 24.464 133.289 24.3053 133.335 24.128C133.391 23.9507 133.48 23.7827 133.601 23.624C133.732 23.4653 133.9 23.3347 134.105 23.232C134.32 23.12 134.586 23.064 134.903 23.064C135.389 23.064 135.748 23.1947 135.981 23.456C136.224 23.7173 136.392 24.1 136.485 24.604ZM133.251 25.864H138.473C138.511 25.304 138.464 24.7673 138.333 24.254C138.203 23.7407 137.988 23.2833 137.689 22.882C137.4 22.4807 137.027 22.1633 136.569 21.93C136.112 21.6873 135.575 21.566 134.959 21.566C134.409 21.566 133.905 21.664 133.447 21.86C132.999 22.056 132.612 22.3267 132.285 22.672C131.959 23.008 131.707 23.4093 131.529 23.876C131.352 24.3427 131.263 24.8467 131.263 25.388C131.263 25.948 131.347 26.4613 131.515 26.928C131.693 27.3947 131.94 27.796 132.257 28.132C132.575 28.468 132.962 28.7293 133.419 28.916C133.877 29.0933 134.39 29.182 134.959 29.182C135.781 29.182 136.481 28.9953 137.059 28.622C137.638 28.2487 138.067 27.628 138.347 26.76H136.597C136.532 26.984 136.355 27.1987 136.065 27.404C135.776 27.6 135.431 27.698 135.029 27.698C134.469 27.698 134.04 27.5533 133.741 27.264C133.443 26.9747 133.279 26.508 133.251 25.864ZM143.656 29L146.106 21.762H144.132L142.606 26.704H142.578L141.052 21.762H138.966L141.444 29H143.656ZM148.9 24.044C148.9 23.6053 148.947 23.1807 149.04 22.77C149.143 22.3593 149.301 21.9953 149.516 21.678C149.731 21.3513 150.011 21.0947 150.356 20.908C150.701 20.712 151.121 20.614 151.616 20.614C152.111 20.614 152.531 20.712 152.876 20.908C153.221 21.0947 153.501 21.3513 153.716 21.678C153.931 21.9953 154.085 22.3593 154.178 22.77C154.281 23.1807 154.332 23.6053 154.332 24.044C154.332 24.464 154.281 24.8747 154.178 25.276C154.085 25.668 153.931 26.0227 153.716 26.34C153.501 26.6573 153.221 26.914 152.876 27.11C152.531 27.2967 152.111 27.39 151.616 27.39C151.121 27.39 150.701 27.2967 150.356 27.11C150.011 26.914 149.731 26.6573 149.516 26.34C149.301 26.0227 149.143 25.668 149.04 25.276C148.947 24.8747 148.9 24.464 148.9 24.044ZM146.702 24.044C146.702 24.772 146.814 25.4533 147.038 26.088C147.262 26.7133 147.584 27.2593 148.004 27.726C148.424 28.1927 148.937 28.5613 149.544 28.832C150.16 29.0933 150.851 29.224 151.616 29.224C152.391 29.224 153.081 29.0933 153.688 28.832C154.295 28.5613 154.808 28.1927 155.228 27.726C155.648 27.2593 155.97 26.7133 156.194 26.088C156.418 25.4533 156.53 24.772 156.53 24.044C156.53 23.2973 156.418 22.6067 156.194 21.972C155.97 21.328 155.648 20.768 155.228 20.292C154.808 19.816 154.295 19.4427 153.688 19.172C153.081 18.9013 152.391 18.766 151.616 18.766C150.851 18.766 150.16 18.9013 149.544 19.172C148.937 19.4427 148.424 19.816 148.004 20.292C147.584 20.768 147.262 21.328 147.038 21.972C146.814 22.6067 146.702 23.2973 146.702 24.044ZM161.476 27.698C161.159 27.698 160.888 27.6327 160.664 27.502C160.44 27.3713 160.258 27.2033 160.118 26.998C159.988 26.7833 159.89 26.536 159.824 26.256C159.768 25.976 159.74 25.6913 159.74 25.402C159.74 25.1033 159.768 24.814 159.824 24.534C159.88 24.254 159.974 24.0067 160.104 23.792C160.244 23.5773 160.422 23.4047 160.636 23.274C160.86 23.134 161.136 23.064 161.462 23.064C161.78 23.064 162.046 23.134 162.26 23.274C162.484 23.4047 162.666 23.582 162.806 23.806C162.946 24.0207 163.044 24.268 163.1 24.548C163.166 24.828 163.198 25.1127 163.198 25.402C163.198 25.6913 163.17 25.976 163.114 26.256C163.058 26.536 162.96 26.7833 162.82 26.998C162.69 27.2033 162.512 27.3713 162.288 27.502C162.074 27.6327 161.803 27.698 161.476 27.698ZM157.822 21.762V31.534H159.81V28.104H159.838C160.081 28.4587 160.389 28.7293 160.762 28.916C161.145 29.0933 161.56 29.182 162.008 29.182C162.54 29.182 163.002 29.0793 163.394 28.874C163.796 28.6687 164.127 28.3933 164.388 28.048C164.659 27.7027 164.86 27.306 164.99 26.858C165.121 26.41 165.186 25.9433 165.186 25.458C165.186 24.9447 165.121 24.4547 164.99 23.988C164.86 23.512 164.659 23.0967 164.388 22.742C164.118 22.3873 163.777 22.1027 163.366 21.888C162.956 21.6733 162.466 21.566 161.896 21.566C161.448 21.566 161.038 21.6547 160.664 21.832C160.291 22.0093 159.983 22.294 159.74 22.686H159.712V21.762H157.822ZM167.921 26.648H166.031C166.05 27.1333 166.157 27.5393 166.353 27.866C166.558 28.1833 166.815 28.44 167.123 28.636C167.44 28.832 167.8 28.972 168.201 29.056C168.602 29.14 169.013 29.182 169.433 29.182C169.844 29.182 170.245 29.14 170.637 29.056C171.038 28.9813 171.393 28.846 171.701 28.65C172.009 28.454 172.256 28.1973 172.443 27.88C172.639 27.5533 172.737 27.152 172.737 26.676C172.737 26.34 172.672 26.06 172.541 25.836C172.41 25.6027 172.238 25.4113 172.023 25.262C171.808 25.1033 171.561 24.9773 171.281 24.884C171.01 24.7907 170.73 24.7113 170.441 24.646C170.161 24.5807 169.886 24.52 169.615 24.464C169.344 24.408 169.102 24.3473 168.887 24.282C168.682 24.2073 168.514 24.114 168.383 24.002C168.252 23.89 168.187 23.7453 168.187 23.568C168.187 23.4187 168.224 23.302 168.299 23.218C168.374 23.1247 168.462 23.0547 168.565 23.008C168.677 22.9613 168.798 22.9333 168.929 22.924C169.06 22.9053 169.181 22.896 169.293 22.896C169.648 22.896 169.956 22.966 170.217 23.106C170.478 23.2367 170.623 23.4933 170.651 23.876H172.541C172.504 23.428 172.387 23.0593 172.191 22.77C172.004 22.4713 171.766 22.2333 171.477 22.056C171.188 21.8787 170.856 21.7527 170.483 21.678C170.119 21.6033 169.741 21.566 169.349 21.566C168.957 21.566 168.574 21.6033 168.201 21.678C167.828 21.7433 167.492 21.8647 167.193 22.042C166.894 22.21 166.652 22.4433 166.465 22.742C166.288 23.0407 166.199 23.4233 166.199 23.89C166.199 24.2073 166.264 24.478 166.395 24.702C166.526 24.9167 166.698 25.0987 166.913 25.248C167.128 25.388 167.37 25.5047 167.641 25.598C167.921 25.682 168.206 25.7567 168.495 25.822C169.204 25.9713 169.755 26.1207 170.147 26.27C170.548 26.4193 170.749 26.6433 170.749 26.942C170.749 27.1193 170.707 27.2687 170.623 27.39C170.539 27.502 170.432 27.5953 170.301 27.67C170.18 27.7353 170.04 27.7867 169.881 27.824C169.732 27.852 169.587 27.866 169.447 27.866C169.251 27.866 169.06 27.8427 168.873 27.796C168.696 27.7493 168.537 27.6793 168.397 27.586C168.257 27.4833 168.14 27.3573 168.047 27.208C167.963 27.0493 167.921 26.8627 167.921 26.648ZM181.451 27.698C181.134 27.698 180.863 27.6327 180.639 27.502C180.415 27.3713 180.233 27.2033 180.093 26.998C179.962 26.7833 179.864 26.536 179.799 26.256C179.743 25.976 179.715 25.6913 179.715 25.402C179.715 25.1033 179.743 24.814 179.799 24.534C179.855 24.254 179.948 24.0067 180.079 23.792C180.219 23.5773 180.396 23.4047 180.611 23.274C180.835 23.134 181.11 23.064 181.437 23.064C181.754 23.064 182.02 23.134 182.235 23.274C182.459 23.4047 182.641 23.582 182.781 23.806C182.921 24.0207 183.019 24.268 183.075 24.548C183.14 24.828 183.173 25.1127 183.173 25.402C183.173 25.6913 183.145 25.976 183.089 26.256C183.033 26.536 182.935 26.7833 182.795 26.998C182.664 27.2033 182.487 27.3713 182.263 27.502C182.048 27.6327 181.778 27.698 181.451 27.698ZM177.797 21.762V31.534H179.785V28.104H179.813C180.056 28.4587 180.364 28.7293 180.737 28.916C181.12 29.0933 181.535 29.182 181.983 29.182C182.515 29.182 182.977 29.0793 183.369 28.874C183.77 28.6687 184.102 28.3933 184.363 28.048C184.634 27.7027 184.834 27.306 184.965 26.858C185.096 26.41 185.161 25.9433 185.161 25.458C185.161 24.9447 185.096 24.4547 184.965 23.988C184.834 23.512 184.634 23.0967 184.363 22.742C184.092 22.3873 183.752 22.1027 183.341 21.888C182.93 21.6733 182.44 21.566 181.871 21.566C181.423 21.566 181.012 21.6547 180.639 21.832C180.266 22.0093 179.958 22.294 179.715 22.686H179.687V21.762H177.797ZM188.4 20.642V19.004H186.412V20.642H188.4ZM186.412 21.762V29H188.4V21.762H186.412ZM193.619 27.698C193.302 27.698 193.031 27.6327 192.807 27.502C192.583 27.3713 192.401 27.2033 192.261 26.998C192.13 26.7833 192.032 26.536 191.967 26.256C191.911 25.976 191.883 25.6913 191.883 25.402C191.883 25.1033 191.911 24.814 191.967 24.534C192.023 24.254 192.116 24.0067 192.247 23.792C192.387 23.5773 192.564 23.4047 192.779 23.274C193.003 23.134 193.278 23.064 193.605 23.064C193.922 23.064 194.188 23.134 194.403 23.274C194.627 23.4047 194.809 23.582 194.949 23.806C195.089 24.0207 195.187 24.268 195.243 24.548C195.308 24.828 195.341 25.1127 195.341 25.402C195.341 25.6913 195.313 25.976 195.257 26.256C195.201 26.536 195.103 26.7833 194.963 26.998C194.832 27.2033 194.655 27.3713 194.431 27.502C194.216 27.6327 193.946 27.698 193.619 27.698ZM189.965 21.762V31.534H191.953V28.104H191.981C192.224 28.4587 192.532 28.7293 192.905 28.916C193.288 29.0933 193.703 29.182 194.151 29.182C194.683 29.182 195.145 29.0793 195.537 28.874C195.938 28.6687 196.27 28.3933 196.531 28.048C196.802 27.7027 197.002 27.306 197.133 26.858C197.264 26.41 197.329 25.9433 197.329 25.458C197.329 24.9447 197.264 24.4547 197.133 23.988C197.002 23.512 196.802 23.0967 196.531 22.742C196.26 22.3873 195.92 22.1027 195.509 21.888C195.098 21.6733 194.608 21.566 194.039 21.566C193.591 21.566 193.18 21.6547 192.807 21.832C192.434 22.0093 192.126 22.294 191.883 22.686H191.855V21.762H189.965ZM203.396 24.604H200.162C200.171 24.464 200.199 24.3053 200.246 24.128C200.302 23.9507 200.39 23.7827 200.512 23.624C200.642 23.4653 200.81 23.3347 201.016 23.232C201.23 23.12 201.496 23.064 201.814 23.064C202.299 23.064 202.658 23.1947 202.892 23.456C203.134 23.7173 203.302 24.1 203.396 24.604ZM200.162 25.864H205.384C205.421 25.304 205.374 24.7673 205.244 24.254C205.113 23.7407 204.898 23.2833 204.6 22.882C204.31 22.4807 203.937 22.1633 203.48 21.93C203.022 21.6873 202.486 21.566 201.87 21.566C201.319 21.566 200.815 21.664 200.358 21.86C199.91 22.056 199.522 22.3267 199.196 22.672C198.869 23.008 198.617 23.4093 198.44 23.876C198.262 24.3427 198.174 24.8467 198.174 25.388C198.174 25.948 198.258 26.4613 198.426 26.928C198.603 27.3947 198.85 27.796 199.168 28.132C199.485 28.468 199.872 28.7293 200.33 28.916C200.787 29.0933 201.3 29.182 201.87 29.182C202.691 29.182 203.391 28.9953 203.97 28.622C204.548 28.2487 204.978 27.628 205.258 26.76H203.508C203.442 26.984 203.265 27.1987 202.976 27.404C202.686 27.6 202.341 27.698 201.94 27.698C201.38 27.698 200.95 27.5533 200.652 27.264C200.353 26.9747 200.19 26.508 200.162 25.864ZM206.619 19.004V29H208.607V19.004H206.619ZM212.216 20.642V19.004H210.228V20.642H212.216ZM210.228 21.762V29H212.216V21.762H210.228ZM213.781 21.762V29H215.769V25.206C215.769 24.4687 215.891 23.9413 216.133 23.624C216.376 23.2973 216.768 23.134 217.309 23.134C217.785 23.134 218.117 23.2833 218.303 23.582C218.49 23.8713 218.583 24.3147 218.583 24.912V29H220.571V24.548C220.571 24.1 220.529 23.694 220.445 23.33C220.371 22.9567 220.235 22.644 220.039 22.392C219.843 22.1307 219.573 21.93 219.227 21.79C218.891 21.6407 218.457 21.566 217.925 21.566C217.505 21.566 217.095 21.664 216.693 21.86C216.292 22.0467 215.965 22.35 215.713 22.77H215.671V21.762H213.781ZM226.952 24.604H223.718C223.728 24.464 223.756 24.3053 223.802 24.128C223.858 23.9507 223.947 23.7827 224.068 23.624C224.199 23.4653 224.367 23.3347 224.572 23.232C224.787 23.12 225.053 23.064 225.37 23.064C225.856 23.064 226.215 23.1947 226.448 23.456C226.691 23.7173 226.859 24.1 226.952 24.604ZM223.718 25.864H228.94C228.978 25.304 228.931 24.7673 228.8 24.254C228.67 23.7407 228.455 23.2833 228.156 22.882C227.867 22.4807 227.494 22.1633 227.036 21.93C226.579 21.6873 226.042 21.566 225.426 21.566C224.876 21.566 224.372 21.664 223.914 21.86C223.466 22.056 223.079 22.3267 222.752 22.672C222.426 23.008 222.174 23.4093 221.996 23.876C221.819 24.3427 221.73 24.8467 221.73 25.388C221.73 25.948 221.814 26.4613 221.982 26.928C222.16 27.3947 222.407 27.796 222.724 28.132C223.042 28.468 223.429 28.7293 223.886 28.916C224.344 29.0933 224.857 29.182 225.426 29.182C226.248 29.182 226.948 28.9953 227.526 28.622C228.105 28.2487 228.534 27.628 228.814 26.76H227.064C226.999 26.984 226.822 27.1987 226.532 27.404C226.243 27.6 225.898 27.698 225.496 27.698C224.936 27.698 224.507 27.5533 224.208 27.264C223.91 26.9747 223.746 26.508 223.718 25.864Z" fill="#303030"/>
<path d="M19.36 40.124V49H20.69V40.124H24.022V39.004H16.028V40.124H19.36ZM24.9351 39.004V49H26.1251V44.912C26.1251 44.5853 26.1671 44.2867 26.2511 44.016C26.3444 43.736 26.4797 43.4933 26.6571 43.288C26.8344 43.0827 27.0537 42.924 27.3151 42.812C27.5857 42.7 27.9031 42.644 28.2671 42.644C28.7244 42.644 29.0837 42.7747 29.3451 43.036C29.6064 43.2973 29.7371 43.652 29.7371 44.1V49H30.9271V44.24C30.9271 43.848 30.8851 43.4933 30.8011 43.176C30.7264 42.8493 30.5911 42.5693 30.3951 42.336C30.1991 42.1027 29.9424 41.9207 29.6251 41.79C29.3077 41.6593 28.9111 41.594 28.4351 41.594C28.2204 41.594 27.9964 41.6173 27.7631 41.664C27.5391 41.7107 27.3197 41.7853 27.1051 41.888C26.8997 41.9813 26.7131 42.1073 26.5451 42.266C26.3771 42.4153 26.2464 42.602 26.1531 42.826H26.1251V39.004H24.9351ZM37.7404 44.688H33.5824C33.601 44.408 33.6617 44.1467 33.7644 43.904C33.867 43.652 34.007 43.4327 34.1844 43.246C34.3617 43.0593 34.5717 42.9147 34.8144 42.812C35.0664 42.7 35.3464 42.644 35.6544 42.644C35.953 42.644 36.2237 42.7 36.4664 42.812C36.7184 42.9147 36.933 43.0593 37.1104 43.246C37.297 43.4233 37.4417 43.638 37.5444 43.89C37.6564 44.142 37.7217 44.408 37.7404 44.688ZM38.8884 46.704H37.7124C37.6097 47.18 37.395 47.5347 37.0684 47.768C36.751 48.0013 36.3404 48.118 35.8364 48.118C35.4444 48.118 35.1037 48.0527 34.8144 47.922C34.525 47.7913 34.287 47.6187 34.1004 47.404C33.9137 47.18 33.7784 46.928 33.6944 46.648C33.6104 46.3587 33.573 46.0553 33.5824 45.738H39.0004C39.019 45.2993 38.977 44.8373 38.8744 44.352C38.781 43.8667 38.6037 43.4187 38.3424 43.008C38.0904 42.5973 37.7497 42.2613 37.3204 42C36.9004 41.7293 36.3684 41.594 35.7244 41.594C35.2297 41.594 34.7724 41.6873 34.3524 41.874C33.9417 42.0607 33.5824 42.322 33.2744 42.658C32.9757 42.994 32.7424 43.3907 32.5744 43.848C32.4064 44.3053 32.3224 44.8093 32.3224 45.36C32.341 45.9107 32.4204 46.4193 32.5604 46.886C32.7097 47.3527 32.929 47.754 33.2184 48.09C33.5077 48.426 33.8624 48.6873 34.2824 48.874C34.7117 49.0607 35.2157 49.154 35.7944 49.154C36.6157 49.154 37.297 48.9487 37.8384 48.538C38.3797 48.1273 38.7297 47.516 38.8884 46.704ZM46.0484 44.87L47.7424 40.208H47.7704L49.4364 44.87H46.0484ZM47.0424 39.004L43.1504 49H44.5084L45.6284 45.99H49.8564L50.9484 49H52.4184L48.5124 39.004H47.0424ZM59.2005 49V41.762H58.0105V45.85C58.0105 46.1767 57.9638 46.48 57.8705 46.76C57.7865 47.0307 57.6558 47.2687 57.4785 47.474C57.3012 47.6793 57.0772 47.838 56.8065 47.95C56.5452 48.062 56.2325 48.118 55.8685 48.118C55.4112 48.118 55.0518 47.9873 54.7905 47.726C54.5292 47.4647 54.3985 47.11 54.3985 46.662V41.762H53.2085V46.522C53.2085 46.914 53.2458 47.2733 53.3205 47.6C53.4045 47.9173 53.5445 48.1927 53.7405 48.426C53.9365 48.6593 54.1932 48.8413 54.5105 48.972C54.8278 49.0933 55.2245 49.154 55.7005 49.154C56.2325 49.154 56.6945 49.0513 57.0865 48.846C57.4785 48.6313 57.8005 48.3 58.0525 47.852H58.0805V49H59.2005ZM62.6398 41.762V39.592H61.4498V41.762H60.2178V42.812H61.4498V47.418C61.4498 47.754 61.4825 48.0247 61.5478 48.23C61.6131 48.4353 61.7111 48.594 61.8418 48.706C61.9818 48.818 62.1591 48.8973 62.3738 48.944C62.5978 48.9813 62.8638 49 63.1718 49H64.0818V47.95H63.5358C63.3491 47.95 63.1951 47.9453 63.0738 47.936C62.9618 47.9173 62.8731 47.8847 62.8078 47.838C62.7425 47.7913 62.6958 47.726 62.6678 47.642C62.6491 47.558 62.6398 47.446 62.6398 47.306V42.812H64.0818V41.762H62.6398ZM66.2718 45.388C66.2718 44.9493 66.3278 44.562 66.4398 44.226C66.5611 43.8807 66.7245 43.5913 66.9298 43.358C67.1351 43.1247 67.3731 42.9473 67.6438 42.826C67.9238 42.7047 68.2178 42.644 68.5258 42.644C68.8338 42.644 69.1231 42.7047 69.3938 42.826C69.6738 42.9473 69.9165 43.1247 70.1218 43.358C70.3271 43.5913 70.4858 43.8807 70.5978 44.226C70.7191 44.562 70.7798 44.9493 70.7798 45.388C70.7798 45.8267 70.7191 46.2187 70.5978 46.564C70.4858 46.9 70.3271 47.1847 70.1218 47.418C69.9165 47.642 69.6738 47.8147 69.3938 47.936C69.1231 48.0573 68.8338 48.118 68.5258 48.118C68.2178 48.118 67.9238 48.0573 67.6438 47.936C67.3731 47.8147 67.1351 47.642 66.9298 47.418C66.7245 47.1847 66.5611 46.9 66.4398 46.564C66.3278 46.2187 66.2718 45.8267 66.2718 45.388ZM65.0118 45.388C65.0118 45.92 65.0865 46.4147 65.2358 46.872C65.3851 47.3293 65.6091 47.7307 65.9078 48.076C66.2065 48.412 66.5751 48.678 67.0138 48.874C67.4525 49.0607 67.9565 49.154 68.5258 49.154C69.1045 49.154 69.6085 49.0607 70.0378 48.874C70.4765 48.678 70.8451 48.412 71.1438 48.076C71.4425 47.7307 71.6665 47.3293 71.8158 46.872C71.9651 46.4147 72.0398 45.92 72.0398 45.388C72.0398 44.856 71.9651 44.3613 71.8158 43.904C71.6665 43.4373 71.4425 43.036 71.1438 42.7C70.8451 42.3547 70.4765 42.084 70.0378 41.888C69.6085 41.692 69.1045 41.594 68.5258 41.594C67.9565 41.594 67.4525 41.692 67.0138 41.888C66.5751 42.084 66.2065 42.3547 65.9078 42.7C65.6091 43.036 65.3851 43.4373 65.2358 43.904C65.0865 44.3613 65.0118 44.856 65.0118 45.388ZM78.8654 47.88V40.124H81.1054C81.7214 40.124 82.2394 40.2127 82.6594 40.39C83.0794 40.558 83.42 40.81 83.6814 41.146C83.952 41.4727 84.1434 41.874 84.2554 42.35C84.3767 42.8167 84.4374 43.3487 84.4374 43.946C84.4374 44.562 84.372 45.0893 84.2414 45.528C84.12 45.9573 83.9614 46.3167 83.7654 46.606C83.5694 46.8953 83.3454 47.124 83.0934 47.292C82.8507 47.46 82.6034 47.5907 82.3514 47.684C82.0994 47.768 81.8614 47.824 81.6374 47.852C81.4134 47.8707 81.2267 47.88 81.0774 47.88H78.8654ZM77.5354 39.004V49H80.9654C81.796 49 82.5147 48.8833 83.1214 48.65C83.728 48.4167 84.2274 48.0807 84.6194 47.642C85.0114 47.194 85.3007 46.648 85.4874 46.004C85.674 45.3507 85.7674 44.604 85.7674 43.764C85.7674 42.1587 85.352 40.964 84.5214 40.18C83.6907 39.396 82.5054 39.004 80.9654 39.004H77.5354ZM92.2228 44.688H88.0648C88.0834 44.408 88.1441 44.1467 88.2468 43.904C88.3494 43.652 88.4894 43.4327 88.6668 43.246C88.8441 43.0593 89.0541 42.9147 89.2968 42.812C89.5488 42.7 89.8288 42.644 90.1368 42.644C90.4354 42.644 90.7061 42.7 90.9488 42.812C91.2008 42.9147 91.4154 43.0593 91.5928 43.246C91.7794 43.4233 91.9241 43.638 92.0268 43.89C92.1388 44.142 92.2041 44.408 92.2228 44.688ZM93.3708 46.704H92.1948C92.0921 47.18 91.8774 47.5347 91.5508 47.768C91.2334 48.0013 90.8228 48.118 90.3188 48.118C89.9268 48.118 89.5861 48.0527 89.2968 47.922C89.0074 47.7913 88.7694 47.6187 88.5828 47.404C88.3961 47.18 88.2608 46.928 88.1768 46.648C88.0928 46.3587 88.0554 46.0553 88.0648 45.738H93.4828C93.5014 45.2993 93.4594 44.8373 93.3568 44.352C93.2634 43.8667 93.0861 43.4187 92.8248 43.008C92.5728 42.5973 92.2321 42.2613 91.8028 42C91.3828 41.7293 90.8508 41.594 90.2068 41.594C89.7121 41.594 89.2548 41.6873 88.8348 41.874C88.4241 42.0607 88.0648 42.322 87.7568 42.658C87.4581 42.994 87.2248 43.3907 87.0568 43.848C86.8888 44.3053 86.8048 44.8093 86.8048 45.36C86.8234 45.9107 86.9028 46.4193 87.0428 46.886C87.1921 47.3527 87.4114 47.754 87.7008 48.09C87.9901 48.426 88.3448 48.6873 88.7648 48.874C89.1941 49.0607 89.6981 49.154 90.2768 49.154C91.0981 49.154 91.7794 48.9487 92.3208 48.538C92.8621 48.1273 93.2121 47.516 93.3708 46.704ZM97.9783 49L100.624 41.762H99.3783L97.4043 47.796H97.3763L95.3463 41.762H94.0163L96.7043 49H97.9783ZM102.682 44.002C102.682 43.498 102.748 43.0033 102.878 42.518C103.009 42.0233 103.214 41.58 103.494 41.188C103.774 40.796 104.134 40.4833 104.572 40.25C105.011 40.0073 105.534 39.886 106.14 39.886C106.747 39.886 107.27 40.0073 107.708 40.25C108.147 40.4833 108.506 40.796 108.786 41.188C109.066 41.58 109.272 42.0233 109.402 42.518C109.533 43.0033 109.598 43.498 109.598 44.002C109.598 44.506 109.533 45.0053 109.402 45.5C109.272 45.9853 109.066 46.424 108.786 46.816C108.506 47.208 108.147 47.5253 107.708 47.768C107.27 48.0013 106.747 48.118 106.14 48.118C105.534 48.118 105.011 48.0013 104.572 47.768C104.134 47.5253 103.774 47.208 103.494 46.816C103.214 46.424 103.009 45.9853 102.878 45.5C102.748 45.0053 102.682 44.506 102.682 44.002ZM101.352 44.002C101.352 44.6833 101.45 45.3413 101.646 45.976C101.852 46.6013 102.155 47.1567 102.556 47.642C102.958 48.1273 103.457 48.5147 104.054 48.804C104.652 49.084 105.347 49.224 106.14 49.224C106.934 49.224 107.629 49.084 108.226 48.804C108.824 48.5147 109.323 48.1273 109.724 47.642C110.126 47.1567 110.424 46.6013 110.62 45.976C110.826 45.3413 110.928 44.6833 110.928 44.002C110.928 43.3207 110.826 42.6673 110.62 42.042C110.424 41.4073 110.126 40.8473 109.724 40.362C109.323 39.8767 108.824 39.4893 108.226 39.2C107.629 38.9107 106.934 38.766 106.14 38.766C105.347 38.766 104.652 38.9107 104.054 39.2C103.457 39.4893 102.958 39.8767 102.556 40.362C102.155 40.8473 101.852 41.4073 101.646 42.042C101.45 42.6673 101.352 43.3207 101.352 44.002ZM112.395 41.762V51.758H113.585V48.034H113.613C113.744 48.2487 113.902 48.4307 114.089 48.58C114.285 48.72 114.49 48.832 114.705 48.916C114.92 49 115.134 49.0607 115.349 49.098C115.573 49.1353 115.774 49.154 115.951 49.154C116.502 49.154 116.982 49.056 117.393 48.86C117.813 48.664 118.158 48.398 118.429 48.062C118.709 47.7167 118.914 47.3153 119.045 46.858C119.185 46.4007 119.255 45.9153 119.255 45.402C119.255 44.8887 119.185 44.4033 119.045 43.946C118.905 43.4887 118.695 43.0873 118.415 42.742C118.144 42.3873 117.799 42.1073 117.379 41.902C116.968 41.6967 116.483 41.594 115.923 41.594C115.419 41.594 114.957 41.6873 114.537 41.874C114.117 42.0513 113.809 42.3407 113.613 42.742H113.585V41.762H112.395ZM117.995 45.318C117.995 45.6727 117.958 46.018 117.883 46.354C117.808 46.69 117.687 46.9887 117.519 47.25C117.351 47.5113 117.127 47.7213 116.847 47.88C116.576 48.0387 116.236 48.118 115.825 48.118C115.414 48.118 115.064 48.0433 114.775 47.894C114.486 47.7353 114.248 47.53 114.061 47.278C113.884 47.026 113.753 46.7367 113.669 46.41C113.585 46.074 113.543 45.7287 113.543 45.374C113.543 45.038 113.58 44.7067 113.655 44.38C113.739 44.0533 113.87 43.764 114.047 43.512C114.224 43.2507 114.453 43.0407 114.733 42.882C115.013 42.7233 115.354 42.644 115.755 42.644C116.138 42.644 116.469 42.7187 116.749 42.868C117.038 43.0173 117.272 43.218 117.449 43.47C117.636 43.722 117.771 44.0113 117.855 44.338C117.948 44.6553 117.995 44.982 117.995 45.318ZM121.38 46.718H120.19C120.209 47.166 120.302 47.5487 120.47 47.866C120.638 48.174 120.862 48.426 121.142 48.622C121.422 48.8087 121.744 48.944 122.108 49.028C122.472 49.112 122.855 49.154 123.256 49.154C123.62 49.154 123.984 49.1167 124.348 49.042C124.721 48.9767 125.053 48.8553 125.342 48.678C125.641 48.5007 125.879 48.2673 126.056 47.978C126.243 47.6887 126.336 47.3247 126.336 46.886C126.336 46.5407 126.266 46.2513 126.126 46.018C125.995 45.7847 125.818 45.5933 125.594 45.444C125.379 45.2853 125.127 45.1593 124.838 45.066C124.558 44.9727 124.269 44.8933 123.97 44.828C123.69 44.7627 123.41 44.702 123.13 44.646C122.85 44.5807 122.598 44.506 122.374 44.422C122.15 44.3287 121.963 44.2167 121.814 44.086C121.674 43.946 121.604 43.7733 121.604 43.568C121.604 43.3813 121.651 43.232 121.744 43.12C121.837 42.9987 121.959 42.9053 122.108 42.84C122.257 42.7653 122.421 42.714 122.598 42.686C122.785 42.658 122.967 42.644 123.144 42.644C123.34 42.644 123.531 42.6673 123.718 42.714C123.914 42.7513 124.091 42.8167 124.25 42.91C124.409 43.0033 124.539 43.1293 124.642 43.288C124.745 43.4373 124.805 43.6287 124.824 43.862H126.014C125.986 43.4233 125.893 43.0593 125.734 42.77C125.575 42.4713 125.361 42.238 125.09 42.07C124.829 41.8927 124.525 41.7713 124.18 41.706C123.835 41.6313 123.457 41.594 123.046 41.594C122.729 41.594 122.407 41.636 122.08 41.72C121.763 41.7947 121.473 41.916 121.212 42.084C120.96 42.2427 120.75 42.4527 120.582 42.714C120.423 42.9753 120.344 43.288 120.344 43.652C120.344 44.1187 120.461 44.4827 120.694 44.744C120.927 45.0053 121.217 45.2107 121.562 45.36C121.917 45.5 122.299 45.612 122.71 45.696C123.121 45.7707 123.499 45.8593 123.844 45.962C124.199 46.0553 124.493 46.1813 124.726 46.34C124.959 46.4987 125.076 46.732 125.076 47.04C125.076 47.264 125.02 47.4507 124.908 47.6C124.796 47.74 124.651 47.8473 124.474 47.922C124.306 47.9967 124.119 48.048 123.914 48.076C123.709 48.104 123.513 48.118 123.326 48.118C123.083 48.118 122.845 48.0947 122.612 48.048C122.388 48.0013 122.183 47.9267 121.996 47.824C121.819 47.712 121.674 47.5673 121.562 47.39C121.45 47.2033 121.389 46.9793 121.38 46.718ZM131.59 41.762V51.758H132.78V48.034H132.808C132.939 48.2487 133.098 48.4307 133.284 48.58C133.48 48.72 133.686 48.832 133.9 48.916C134.115 49 134.33 49.0607 134.544 49.098C134.768 49.1353 134.969 49.154 135.146 49.154C135.697 49.154 136.178 49.056 136.588 48.86C137.008 48.664 137.354 48.398 137.624 48.062C137.904 47.7167 138.11 47.3153 138.24 46.858C138.38 46.4007 138.45 45.9153 138.45 45.402C138.45 44.8887 138.38 44.4033 138.24 43.946C138.1 43.4887 137.89 43.0873 137.61 42.742C137.34 42.3873 136.994 42.1073 136.574 41.902C136.164 41.6967 135.678 41.594 135.118 41.594C134.614 41.594 134.152 41.6873 133.732 41.874C133.312 42.0513 133.004 42.3407 132.808 42.742H132.78V41.762H131.59ZM137.19 45.318C137.19 45.6727 137.153 46.018 137.078 46.354C137.004 46.69 136.882 46.9887 136.714 47.25C136.546 47.5113 136.322 47.7213 136.042 47.88C135.772 48.0387 135.431 48.118 135.02 48.118C134.61 48.118 134.26 48.0433 133.97 47.894C133.681 47.7353 133.443 47.53 133.256 47.278C133.079 47.026 132.948 46.7367 132.864 46.41C132.78 46.074 132.738 45.7287 132.738 45.374C132.738 45.038 132.776 44.7067 132.85 44.38C132.934 44.0533 133.065 43.764 133.242 43.512C133.42 43.2507 133.648 43.0407 133.928 42.882C134.208 42.7233 134.549 42.644 134.95 42.644C135.333 42.644 135.664 42.7187 135.944 42.868C136.234 43.0173 136.467 43.218 136.644 43.47C136.831 43.722 136.966 44.0113 137.05 44.338C137.144 44.6553 137.19 44.982 137.19 45.318ZM141.107 40.46V39.004H139.917V40.46H141.107ZM139.917 41.762V49H141.107V41.762H139.917ZM142.993 41.762V51.758H144.183V48.034H144.211C144.341 48.2487 144.5 48.4307 144.687 48.58C144.883 48.72 145.088 48.832 145.303 48.916C145.517 49 145.732 49.0607 145.947 49.098C146.171 49.1353 146.371 49.154 146.549 49.154C147.099 49.154 147.58 49.056 147.991 48.86C148.411 48.664 148.756 48.398 149.027 48.062C149.307 47.7167 149.512 47.3153 149.643 46.858C149.783 46.4007 149.853 45.9153 149.853 45.402C149.853 44.8887 149.783 44.4033 149.643 43.946C149.503 43.4887 149.293 43.0873 149.013 42.742C148.742 42.3873 148.397 42.1073 147.977 41.902C147.566 41.6967 147.081 41.594 146.521 41.594C146.017 41.594 145.555 41.6873 145.135 41.874C144.715 42.0513 144.407 42.3407 144.211 42.742H144.183V41.762H142.993ZM148.593 45.318C148.593 45.6727 148.555 46.018 148.481 46.354C148.406 46.69 148.285 46.9887 148.117 47.25C147.949 47.5113 147.725 47.7213 147.445 47.88C147.174 48.0387 146.833 48.118 146.423 48.118C146.012 48.118 145.662 48.0433 145.373 47.894C145.083 47.7353 144.845 47.53 144.659 47.278C144.481 47.026 144.351 46.7367 144.267 46.41C144.183 46.074 144.141 45.7287 144.141 45.374C144.141 45.038 144.178 44.7067 144.253 44.38C144.337 44.0533 144.467 43.764 144.645 43.512C144.822 43.2507 145.051 43.0407 145.331 42.882C145.611 42.7233 145.951 42.644 146.353 42.644C146.735 42.644 147.067 42.7187 147.347 42.868C147.636 43.0173 147.869 43.218 148.047 43.47C148.233 43.722 148.369 44.0113 148.453 44.338C148.546 44.6553 148.593 44.982 148.593 45.318ZM156.276 44.688H152.118C152.136 44.408 152.197 44.1467 152.3 43.904C152.402 43.652 152.542 43.4327 152.72 43.246C152.897 43.0593 153.107 42.9147 153.35 42.812C153.602 42.7 153.882 42.644 154.19 42.644C154.488 42.644 154.759 42.7 155.002 42.812C155.254 42.9147 155.468 43.0593 155.646 43.246C155.832 43.4233 155.977 43.638 156.08 43.89C156.192 44.142 156.257 44.408 156.276 44.688ZM157.424 46.704H156.248C156.145 47.18 155.93 47.5347 155.604 47.768C155.286 48.0013 154.876 48.118 154.372 48.118C153.98 48.118 153.639 48.0527 153.35 47.922C153.06 47.7913 152.822 47.6187 152.636 47.404C152.449 47.18 152.314 46.928 152.23 46.648C152.146 46.3587 152.108 46.0553 152.118 45.738H157.536C157.554 45.2993 157.512 44.8373 157.41 44.352C157.316 43.8667 157.139 43.4187 156.878 43.008C156.626 42.5973 156.285 42.2613 155.856 42C155.436 41.7293 154.904 41.594 154.26 41.594C153.765 41.594 153.308 41.6873 152.888 41.874C152.477 42.0607 152.118 42.322 151.81 42.658C151.511 42.994 151.278 43.3907 151.11 43.848C150.942 44.3053 150.858 44.8093 150.858 45.36C150.876 45.9107 150.956 46.4193 151.096 46.886C151.245 47.3527 151.464 47.754 151.754 48.09C152.043 48.426 152.398 48.6873 152.818 48.874C153.247 49.0607 153.751 49.154 154.33 49.154C155.151 49.154 155.832 48.9487 156.374 48.538C156.915 48.1273 157.265 47.516 157.424 46.704ZM158.839 39.004V49H160.029V39.004H158.839ZM163.133 40.46V39.004H161.943V40.46H163.133ZM161.943 41.762V49H163.133V41.762H161.943ZM164.976 41.762V49H166.166V44.912C166.166 44.5853 166.208 44.2867 166.292 44.016C166.385 43.736 166.521 43.4933 166.698 43.288C166.875 43.0827 167.095 42.924 167.356 42.812C167.627 42.7 167.944 42.644 168.308 42.644C168.765 42.644 169.125 42.7747 169.386 43.036C169.647 43.2973 169.778 43.652 169.778 44.1V49H170.968V44.24C170.968 43.848 170.926 43.4933 170.842 43.176C170.767 42.8493 170.632 42.5693 170.436 42.336C170.24 42.1027 169.983 41.9207 169.666 41.79C169.349 41.6593 168.952 41.594 168.476 41.594C167.403 41.594 166.619 42.0327 166.124 42.91H166.096V41.762H164.976ZM177.781 44.688H173.623C173.642 44.408 173.703 44.1467 173.805 43.904C173.908 43.652 174.048 43.4327 174.225 43.246C174.403 43.0593 174.613 42.9147 174.855 42.812C175.107 42.7 175.387 42.644 175.695 42.644C175.994 42.644 176.265 42.7 176.507 42.812C176.759 42.9147 176.974 43.0593 177.151 43.246C177.338 43.4233 177.483 43.638 177.585 43.89C177.697 44.142 177.763 44.408 177.781 44.688ZM178.929 46.704H177.753C177.651 47.18 177.436 47.5347 177.109 47.768C176.792 48.0013 176.381 48.118 175.877 48.118C175.485 48.118 175.145 48.0527 174.855 47.922C174.566 47.7913 174.328 47.6187 174.141 47.404C173.955 47.18 173.819 46.928 173.735 46.648C173.651 46.3587 173.614 46.0553 173.623 45.738H179.041C179.06 45.2993 179.018 44.8373 178.915 44.352C178.822 43.8667 178.645 43.4187 178.383 43.008C178.131 42.5973 177.791 42.2613 177.361 42C176.941 41.7293 176.409 41.594 175.765 41.594C175.271 41.594 174.813 41.6873 174.393 41.874C173.983 42.0607 173.623 42.322 173.315 42.658C173.017 42.994 172.783 43.3907 172.615 43.848C172.447 44.3053 172.363 44.8093 172.363 45.36C172.382 45.9107 172.461 46.4193 172.601 46.886C172.751 47.3527 172.97 47.754 173.259 48.09C173.549 48.426 173.903 48.6873 174.323 48.874C174.753 49.0607 175.257 49.154 175.835 49.154C176.657 49.154 177.338 48.9487 177.879 48.538C178.421 48.1273 178.771 47.516 178.929 46.704ZM184.129 41.762V49H185.319V45.78C185.319 45.3133 185.366 44.9027 185.459 44.548C185.553 44.184 185.702 43.876 185.907 43.624C186.113 43.372 186.383 43.1807 186.719 43.05C187.055 42.9193 187.461 42.854 187.937 42.854V41.594C187.293 41.5753 186.761 41.706 186.341 41.986C185.921 42.266 185.567 42.7 185.277 43.288H185.249V41.762H184.129ZM194.826 49V41.762H193.636V45.85C193.636 46.1767 193.589 46.48 193.496 46.76C193.412 47.0307 193.281 47.2687 193.104 47.474C192.926 47.6793 192.702 47.838 192.432 47.95C192.17 48.062 191.858 48.118 191.494 48.118C191.036 48.118 190.677 47.9873 190.416 47.726C190.154 47.4647 190.024 47.11 190.024 46.662V41.762H188.834V46.522C188.834 46.914 188.871 47.2733 188.946 47.6C189.03 47.9173 189.17 48.1927 189.366 48.426C189.562 48.6593 189.818 48.8413 190.136 48.972C190.453 49.0933 190.85 49.154 191.326 49.154C191.858 49.154 192.32 49.0513 192.712 48.846C193.104 48.6313 193.426 48.3 193.678 47.852H193.706V49H194.826ZM196.613 41.762V49H197.803V44.912C197.803 44.5853 197.845 44.2867 197.929 44.016C198.022 43.736 198.157 43.4933 198.335 43.288C198.512 43.0827 198.731 42.924 198.993 42.812C199.263 42.7 199.581 42.644 199.945 42.644C200.402 42.644 200.761 42.7747 201.023 43.036C201.284 43.2973 201.415 43.652 201.415 44.1V49H202.605V44.24C202.605 43.848 202.563 43.4933 202.479 43.176C202.404 42.8493 202.269 42.5693 202.073 42.336C201.877 42.1027 201.62 41.9207 201.303 41.79C200.985 41.6593 200.589 41.594 200.113 41.594C199.039 41.594 198.255 42.0327 197.761 42.91H197.733V41.762H196.613ZM205.12 46.718H203.93C203.949 47.166 204.042 47.5487 204.21 47.866C204.378 48.174 204.602 48.426 204.882 48.622C205.162 48.8087 205.484 48.944 205.848 49.028C206.212 49.112 206.595 49.154 206.996 49.154C207.36 49.154 207.724 49.1167 208.088 49.042C208.461 48.9767 208.793 48.8553 209.082 48.678C209.381 48.5007 209.619 48.2673 209.796 47.978C209.983 47.6887 210.076 47.3247 210.076 46.886C210.076 46.5407 210.006 46.2513 209.866 46.018C209.735 45.7847 209.558 45.5933 209.334 45.444C209.119 45.2853 208.867 45.1593 208.578 45.066C208.298 44.9727 208.009 44.8933 207.71 44.828C207.43 44.7627 207.15 44.702 206.87 44.646C206.59 44.5807 206.338 44.506 206.114 44.422C205.89 44.3287 205.703 44.2167 205.554 44.086C205.414 43.946 205.344 43.7733 205.344 43.568C205.344 43.3813 205.391 43.232 205.484 43.12C205.577 42.9987 205.699 42.9053 205.848 42.84C205.997 42.7653 206.161 42.714 206.338 42.686C206.525 42.658 206.707 42.644 206.884 42.644C207.08 42.644 207.271 42.6673 207.458 42.714C207.654 42.7513 207.831 42.8167 207.99 42.91C208.149 43.0033 208.279 43.1293 208.382 43.288C208.485 43.4373 208.545 43.6287 208.564 43.862H209.754C209.726 43.4233 209.633 43.0593 209.474 42.77C209.315 42.4713 209.101 42.238 208.83 42.07C208.569 41.8927 208.265 41.7713 207.92 41.706C207.575 41.6313 207.197 41.594 206.786 41.594C206.469 41.594 206.147 41.636 205.82 41.72C205.503 41.7947 205.213 41.916 204.952 42.084C204.7 42.2427 204.49 42.4527 204.322 42.714C204.163 42.9753 204.084 43.288 204.084 43.652C204.084 44.1187 204.201 44.4827 204.434 44.744C204.667 45.0053 204.957 45.2107 205.302 45.36C205.657 45.5 206.039 45.612 206.45 45.696C206.861 45.7707 207.239 45.8593 207.584 45.962C207.939 46.0553 208.233 46.1813 208.466 46.34C208.699 46.4987 208.816 46.732 208.816 47.04C208.816 47.264 208.76 47.4507 208.648 47.6C208.536 47.74 208.391 47.8473 208.214 47.922C208.046 47.9967 207.859 48.048 207.654 48.076C207.449 48.104 207.253 48.118 207.066 48.118C206.823 48.118 206.585 48.0947 206.352 48.048C206.128 48.0013 205.923 47.9267 205.736 47.824C205.559 47.712 205.414 47.5673 205.302 47.39C205.19 47.2033 205.129 46.9793 205.12 46.718ZM216.549 40.46V39.004H215.359V40.46H216.549ZM215.359 41.762V49H216.549V41.762H215.359ZM218.882 42.812V49H220.072V42.812H221.472V41.762H220.072V40.754C220.072 40.4367 220.151 40.222 220.31 40.11C220.469 39.998 220.693 39.942 220.982 39.942C221.085 39.942 221.197 39.9513 221.318 39.97C221.439 39.9793 221.551 40.0027 221.654 40.04V39.004C221.542 38.9667 221.411 38.9387 221.262 38.92C221.122 38.9013 220.996 38.892 220.884 38.892C220.231 38.892 219.731 39.046 219.386 39.354C219.05 39.6527 218.882 40.096 218.882 40.684V41.762H217.664V42.812H218.882ZM226.431 41.762V49H227.621V44.912C227.621 44.5853 227.663 44.2867 227.747 44.016C227.84 43.736 227.976 43.4933 228.153 43.288C228.33 43.0827 228.55 42.924 228.811 42.812C229.082 42.7 229.399 42.644 229.763 42.644C230.22 42.644 230.58 42.7747 230.841 43.036C231.102 43.2973 231.233 43.652 231.233 44.1V49H232.423V44.24C232.423 43.848 232.381 43.4933 232.297 43.176C232.222 42.8493 232.087 42.5693 231.891 42.336C231.695 42.1027 231.438 41.9207 231.121 41.79C230.804 41.6593 230.407 41.594 229.931 41.594C228.858 41.594 228.074 42.0327 227.579 42.91H227.551V41.762H226.431ZM235.078 45.388C235.078 44.9493 235.134 44.562 235.246 44.226C235.368 43.8807 235.531 43.5913 235.736 43.358C235.942 43.1247 236.18 42.9473 236.45 42.826C236.73 42.7047 237.024 42.644 237.332 42.644C237.64 42.644 237.93 42.7047 238.2 42.826C238.48 42.9473 238.723 43.1247 238.928 43.358C239.134 43.5913 239.292 43.8807 239.404 44.226C239.526 44.562 239.586 44.9493 239.586 45.388C239.586 45.8267 239.526 46.2187 239.404 46.564C239.292 46.9 239.134 47.1847 238.928 47.418C238.723 47.642 238.48 47.8147 238.2 47.936C237.93 48.0573 237.64 48.118 237.332 48.118C237.024 48.118 236.73 48.0573 236.45 47.936C236.18 47.8147 235.942 47.642 235.736 47.418C235.531 47.1847 235.368 46.9 235.246 46.564C235.134 46.2187 235.078 45.8267 235.078 45.388ZM233.818 45.388C233.818 45.92 233.893 46.4147 234.042 46.872C234.192 47.3293 234.416 47.7307 234.714 48.076C235.013 48.412 235.382 48.678 235.82 48.874C236.259 49.0607 236.763 49.154 237.332 49.154C237.911 49.154 238.415 49.0607 238.844 48.874C239.283 48.678 239.652 48.412 239.95 48.076C240.249 47.7307 240.473 47.3293 240.622 46.872C240.772 46.4147 240.846 45.92 240.846 45.388C240.846 44.856 240.772 44.3613 240.622 43.904C240.473 43.4373 240.249 43.036 239.95 42.7C239.652 42.3547 239.283 42.084 238.844 41.888C238.415 41.692 237.911 41.594 237.332 41.594C236.763 41.594 236.259 41.692 235.82 41.888C235.382 42.084 235.013 42.3547 234.714 42.7C234.416 43.036 234.192 43.4373 234.042 43.904C233.893 44.3613 233.818 44.856 233.818 45.388ZM252.558 48.972C252.353 49.0933 252.068 49.154 251.704 49.154C251.396 49.154 251.149 49.07 250.962 48.902C250.785 48.7247 250.696 48.44 250.696 48.048C250.369 48.44 249.987 48.7247 249.548 48.902C249.119 49.07 248.652 49.154 248.148 49.154C247.821 49.154 247.509 49.1167 247.21 49.042C246.921 48.9673 246.669 48.8507 246.454 48.692C246.239 48.5333 246.067 48.328 245.936 48.076C245.815 47.8147 245.754 47.502 245.754 47.138C245.754 46.7273 245.824 46.3913 245.964 46.13C246.104 45.8687 246.286 45.6587 246.51 45.5C246.743 45.332 247.005 45.206 247.294 45.122C247.593 45.038 247.896 44.968 248.204 44.912C248.531 44.8467 248.839 44.8 249.128 44.772C249.427 44.7347 249.688 44.688 249.912 44.632C250.136 44.5667 250.313 44.478 250.444 44.366C250.575 44.2447 250.64 44.072 250.64 43.848C250.64 43.5867 250.589 43.3767 250.486 43.218C250.393 43.0593 250.267 42.938 250.108 42.854C249.959 42.77 249.786 42.714 249.59 42.686C249.403 42.658 249.217 42.644 249.03 42.644C248.526 42.644 248.106 42.742 247.77 42.938C247.434 43.1247 247.252 43.484 247.224 44.016H246.034C246.053 43.568 246.146 43.19 246.314 42.882C246.482 42.574 246.706 42.3267 246.986 42.14C247.266 41.944 247.583 41.804 247.938 41.72C248.302 41.636 248.689 41.594 249.1 41.594C249.427 41.594 249.749 41.6173 250.066 41.664C250.393 41.7107 250.687 41.8087 250.948 41.958C251.209 42.098 251.419 42.2987 251.578 42.56C251.737 42.8213 251.816 43.162 251.816 43.582V47.306C251.816 47.586 251.83 47.7913 251.858 47.922C251.895 48.0527 252.007 48.118 252.194 48.118C252.297 48.118 252.418 48.0947 252.558 48.048V48.972ZM250.626 45.262C250.477 45.374 250.281 45.458 250.038 45.514C249.795 45.5607 249.539 45.6027 249.268 45.64C249.007 45.668 248.741 45.7053 248.47 45.752C248.199 45.7893 247.957 45.8547 247.742 45.948C247.527 46.0413 247.35 46.1767 247.21 46.354C247.079 46.522 247.014 46.7553 247.014 47.054C247.014 47.25 247.051 47.418 247.126 47.558C247.21 47.6887 247.313 47.796 247.434 47.88C247.565 47.964 247.714 48.0247 247.882 48.062C248.05 48.0993 248.227 48.118 248.414 48.118C248.806 48.118 249.142 48.0667 249.422 47.964C249.702 47.852 249.931 47.7167 250.108 47.558C250.285 47.39 250.416 47.2127 250.5 47.026C250.584 46.83 250.626 46.648 250.626 46.48V45.262ZM253.736 39.004V49H254.926V39.004H253.736ZM258.421 41.762V39.592H257.231V41.762H255.999V42.812H257.231V47.418C257.231 47.754 257.264 48.0247 257.329 48.23C257.394 48.4353 257.492 48.594 257.623 48.706C257.763 48.818 257.94 48.8973 258.155 48.944C258.379 48.9813 258.645 49 258.953 49H259.863V47.95H259.317C259.13 47.95 258.976 47.9453 258.855 47.936C258.743 47.9173 258.654 47.8847 258.589 47.838C258.524 47.7913 258.477 47.726 258.449 47.642C258.43 47.558 258.421 47.446 258.421 47.306V42.812H259.863V41.762H258.421ZM266.211 44.688H262.053C262.072 44.408 262.132 44.1467 262.235 43.904C262.338 43.652 262.478 43.4327 262.655 43.246C262.832 43.0593 263.042 42.9147 263.285 42.812C263.537 42.7 263.817 42.644 264.125 42.644C264.424 42.644 264.694 42.7 264.937 42.812C265.189 42.9147 265.404 43.0593 265.581 43.246C265.768 43.4233 265.912 43.638 266.015 43.89C266.127 44.142 266.192 44.408 266.211 44.688ZM267.359 46.704H266.183C266.08 47.18 265.866 47.5347 265.539 47.768C265.222 48.0013 264.811 48.118 264.307 48.118C263.915 48.118 263.574 48.0527 263.285 47.922C262.996 47.7913 262.758 47.6187 262.571 47.404C262.384 47.18 262.249 46.928 262.165 46.648C262.081 46.3587 262.044 46.0553 262.053 45.738H267.471C267.49 45.2993 267.448 44.8373 267.345 44.352C267.252 43.8667 267.074 43.4187 266.813 43.008C266.561 42.5973 266.22 42.2613 265.791 42C265.371 41.7293 264.839 41.594 264.195 41.594C263.7 41.594 263.243 41.6873 262.823 41.874C262.412 42.0607 262.053 42.322 261.745 42.658C261.446 42.994 261.213 43.3907 261.045 43.848C260.877 44.3053 260.793 44.8093 260.793 45.36C260.812 45.9107 260.891 46.4193 261.031 46.886C261.18 47.3527 261.4 47.754 261.689 48.09C261.978 48.426 262.333 48.6873 262.753 48.874C263.182 49.0607 263.686 49.154 264.265 49.154C265.086 49.154 265.768 48.9487 266.309 48.538C266.85 48.1273 267.2 47.516 267.359 46.704ZM268.663 41.762V49H269.853V45.78C269.853 45.3133 269.899 44.9027 269.993 44.548C270.086 44.184 270.235 43.876 270.441 43.624C270.646 43.372 270.917 43.1807 271.253 43.05C271.589 42.9193 271.995 42.854 272.471 42.854V41.594C271.827 41.5753 271.295 41.706 270.875 41.986C270.455 42.266 270.1 42.7 269.811 43.288H269.783V41.762H268.663ZM273.613 41.762V49H274.803V44.912C274.803 44.5853 274.845 44.2867 274.929 44.016C275.022 43.736 275.157 43.4933 275.335 43.288C275.512 43.0827 275.731 42.924 275.993 42.812C276.263 42.7 276.581 42.644 276.945 42.644C277.402 42.644 277.761 42.7747 278.023 43.036C278.284 43.2973 278.415 43.652 278.415 44.1V49H279.605V44.24C279.605 43.848 279.563 43.4933 279.479 43.176C279.404 42.8493 279.269 42.5693 279.073 42.336C278.877 42.1027 278.62 41.9207 278.303 41.79C277.985 41.6593 277.589 41.594 277.113 41.594C276.039 41.594 275.255 42.0327 274.761 42.91H274.733V41.762H273.613ZM287.804 48.972C287.599 49.0933 287.314 49.154 286.95 49.154C286.642 49.154 286.395 49.07 286.208 48.902C286.031 48.7247 285.942 48.44 285.942 48.048C285.615 48.44 285.233 48.7247 284.794 48.902C284.365 49.07 283.898 49.154 283.394 49.154C283.067 49.154 282.755 49.1167 282.456 49.042C282.167 48.9673 281.915 48.8507 281.7 48.692C281.485 48.5333 281.313 48.328 281.182 48.076C281.061 47.8147 281 47.502 281 47.138C281 46.7273 281.07 46.3913 281.21 46.13C281.35 45.8687 281.532 45.6587 281.756 45.5C281.989 45.332 282.251 45.206 282.54 45.122C282.839 45.038 283.142 44.968 283.45 44.912C283.777 44.8467 284.085 44.8 284.374 44.772C284.673 44.7347 284.934 44.688 285.158 44.632C285.382 44.5667 285.559 44.478 285.69 44.366C285.821 44.2447 285.886 44.072 285.886 43.848C285.886 43.5867 285.835 43.3767 285.732 43.218C285.639 43.0593 285.513 42.938 285.354 42.854C285.205 42.77 285.032 42.714 284.836 42.686C284.649 42.658 284.463 42.644 284.276 42.644C283.772 42.644 283.352 42.742 283.016 42.938C282.68 43.1247 282.498 43.484 282.47 44.016H281.28C281.299 43.568 281.392 43.19 281.56 42.882C281.728 42.574 281.952 42.3267 282.232 42.14C282.512 41.944 282.829 41.804 283.184 41.72C283.548 41.636 283.935 41.594 284.346 41.594C284.673 41.594 284.995 41.6173 285.312 41.664C285.639 41.7107 285.933 41.8087 286.194 41.958C286.455 42.098 286.665 42.2987 286.824 42.56C286.983 42.8213 287.062 43.162 287.062 43.582V47.306C287.062 47.586 287.076 47.7913 287.104 47.922C287.141 48.0527 287.253 48.118 287.44 48.118C287.543 48.118 287.664 48.0947 287.804 48.048V48.972ZM285.872 45.262C285.723 45.374 285.527 45.458 285.284 45.514C285.041 45.5607 284.785 45.6027 284.514 45.64C284.253 45.668 283.987 45.7053 283.716 45.752C283.445 45.7893 283.203 45.8547 282.988 45.948C282.773 46.0413 282.596 46.1767 282.456 46.354C282.325 46.522 282.26 46.7553 282.26 47.054C282.26 47.25 282.297 47.418 282.372 47.558C282.456 47.6887 282.559 47.796 282.68 47.88C282.811 47.964 282.96 48.0247 283.128 48.062C283.296 48.0993 283.473 48.118 283.66 48.118C284.052 48.118 284.388 48.0667 284.668 47.964C284.948 47.852 285.177 47.7167 285.354 47.558C285.531 47.39 285.662 47.2127 285.746 47.026C285.83 46.83 285.872 46.648 285.872 46.48V45.262ZM290.564 41.762V39.592H289.374V41.762H288.142V42.812H289.374V47.418C289.374 47.754 289.406 48.0247 289.472 48.23C289.537 48.4353 289.635 48.594 289.766 48.706C289.906 48.818 290.083 48.8973 290.298 48.944C290.522 48.9813 290.788 49 291.096 49H292.006V47.95H291.46C291.273 47.95 291.119 47.9453 290.998 47.936C290.886 47.9173 290.797 47.8847 290.732 47.838C290.666 47.7913 290.62 47.726 290.592 47.642C290.573 47.558 290.564 47.446 290.564 47.306V42.812H292.006V41.762H290.564ZM294.588 40.46V39.004H293.398V40.46H294.588ZM293.398 41.762V49H294.588V41.762H293.398ZM299.693 49L302.339 41.762H301.093L299.119 47.796H299.091L297.061 41.762H295.731L298.419 49H299.693ZM308.457 44.688H304.299C304.318 44.408 304.378 44.1467 304.481 43.904C304.584 43.652 304.724 43.4327 304.901 43.246C305.078 43.0593 305.288 42.9147 305.531 42.812C305.783 42.7 306.063 42.644 306.371 42.644C306.67 42.644 306.94 42.7 307.183 42.812C307.435 42.9147 307.65 43.0593 307.827 43.246C308.014 43.4233 308.158 43.638 308.261 43.89C308.373 44.142 308.438 44.408 308.457 44.688ZM309.605 46.704H308.429C308.326 47.18 308.112 47.5347 307.785 47.768C307.468 48.0013 307.057 48.118 306.553 48.118C306.161 48.118 305.82 48.0527 305.531 47.922C305.242 47.7913 305.004 47.6187 304.817 47.404C304.63 47.18 304.495 46.928 304.411 46.648C304.327 46.3587 304.29 46.0553 304.299 45.738H309.717C309.736 45.2993 309.694 44.8373 309.591 44.352C309.498 43.8667 309.32 43.4187 309.059 43.008C308.807 42.5973 308.466 42.2613 308.037 42C307.617 41.7293 307.085 41.594 306.441 41.594C305.946 41.594 305.489 41.6873 305.069 41.874C304.658 42.0607 304.299 42.322 303.991 42.658C303.692 42.994 303.459 43.3907 303.291 43.848C303.123 44.3053 303.039 44.8093 303.039 45.36C303.058 45.9107 303.137 46.4193 303.277 46.886C303.426 47.3527 303.646 47.754 303.935 48.09C304.224 48.426 304.579 48.6873 304.999 48.874C305.428 49.0607 305.932 49.154 306.511 49.154C307.332 49.154 308.014 48.9487 308.555 48.538C309.096 48.1273 309.446 47.516 309.605 46.704ZM322.071 42.014H323.401C323.327 41.482 323.168 41.0153 322.925 40.614C322.683 40.2033 322.379 39.8627 322.015 39.592C321.651 39.3213 321.236 39.116 320.769 38.976C320.303 38.836 319.808 38.766 319.285 38.766C318.52 38.766 317.839 38.906 317.241 39.186C316.653 39.4567 316.159 39.83 315.757 40.306C315.365 40.782 315.067 41.342 314.861 41.986C314.656 42.6207 314.553 43.302 314.553 44.03C314.553 44.758 314.647 45.4393 314.833 46.074C315.029 46.7087 315.319 47.2593 315.701 47.726C316.084 48.1927 316.565 48.5613 317.143 48.832C317.722 49.0933 318.399 49.224 319.173 49.224C320.452 49.224 321.46 48.874 322.197 48.174C322.935 47.474 323.369 46.494 323.499 45.234H322.169C322.141 45.6447 322.057 46.0273 321.917 46.382C321.777 46.7367 321.581 47.0447 321.329 47.306C321.087 47.558 320.793 47.7587 320.447 47.908C320.111 48.048 319.724 48.118 319.285 48.118C318.688 48.118 318.175 48.006 317.745 47.782C317.316 47.558 316.961 47.2593 316.681 46.886C316.411 46.5033 316.21 46.06 316.079 45.556C315.949 45.0427 315.883 44.5013 315.883 43.932C315.883 43.4093 315.949 42.9053 316.079 42.42C316.21 41.9347 316.411 41.5053 316.681 41.132C316.961 40.7493 317.311 40.446 317.731 40.222C318.161 39.998 318.674 39.886 319.271 39.886C319.971 39.886 320.573 40.0633 321.077 40.418C321.591 40.7727 321.922 41.3047 322.071 42.014ZM325.203 39.004V49H326.533V39.004H325.203ZM337.384 44.086H338.616C338.57 43.6567 338.458 43.288 338.28 42.98C338.103 42.6627 337.874 42.4013 337.594 42.196C337.324 41.9907 337.006 41.8413 336.642 41.748C336.288 41.6453 335.905 41.594 335.494 41.594C334.925 41.594 334.426 41.6967 333.996 41.902C333.567 42.098 333.208 42.3733 332.918 42.728C332.638 43.0733 332.428 43.484 332.288 43.96C332.148 44.4267 332.078 44.9307 332.078 45.472C332.078 46.0133 332.148 46.5127 332.288 46.97C332.438 47.418 332.652 47.8053 332.932 48.132C333.222 48.4587 333.576 48.7107 333.996 48.888C334.426 49.0653 334.916 49.154 335.466 49.154C336.39 49.154 337.118 48.9113 337.65 48.426C338.192 47.9407 338.528 47.25 338.658 46.354H337.44C337.366 46.914 337.16 47.348 336.824 47.656C336.498 47.964 336.04 48.118 335.452 48.118C335.079 48.118 334.757 48.0433 334.486 47.894C334.216 47.7447 333.996 47.5487 333.828 47.306C333.66 47.054 333.534 46.7693 333.45 46.452C333.376 46.1347 333.338 45.808 333.338 45.472C333.338 45.108 333.376 44.758 333.45 44.422C333.525 44.0767 333.646 43.7733 333.814 43.512C333.992 43.2507 334.225 43.0407 334.514 42.882C334.804 42.7233 335.163 42.644 335.592 42.644C336.096 42.644 336.498 42.77 336.796 43.022C337.095 43.274 337.291 43.6287 337.384 44.086ZM340.858 45.388C340.858 44.9493 340.914 44.562 341.026 44.226C341.147 43.8807 341.31 43.5913 341.516 43.358C341.721 43.1247 341.959 42.9473 342.23 42.826C342.51 42.7047 342.804 42.644 343.112 42.644C343.42 42.644 343.709 42.7047 343.98 42.826C344.26 42.9473 344.502 43.1247 344.708 43.358C344.913 43.5913 345.072 43.8807 345.184 44.226C345.305 44.562 345.366 44.9493 345.366 45.388C345.366 45.8267 345.305 46.2187 345.184 46.564C345.072 46.9 344.913 47.1847 344.708 47.418C344.502 47.642 344.26 47.8147 343.98 47.936C343.709 48.0573 343.42 48.118 343.112 48.118C342.804 48.118 342.51 48.0573 342.23 47.936C341.959 47.8147 341.721 47.642 341.516 47.418C341.31 47.1847 341.147 46.9 341.026 46.564C340.914 46.2187 340.858 45.8267 340.858 45.388ZM339.598 45.388C339.598 45.92 339.672 46.4147 339.822 46.872C339.971 47.3293 340.195 47.7307 340.494 48.076C340.792 48.412 341.161 48.678 341.6 48.874C342.038 49.0607 342.542 49.154 343.112 49.154C343.69 49.154 344.194 49.0607 344.624 48.874C345.062 48.678 345.431 48.412 345.73 48.076C346.028 47.7307 346.252 47.3293 346.402 46.872C346.551 46.4147 346.626 45.92 346.626 45.388C346.626 44.856 346.551 44.3613 346.402 43.904C346.252 43.4373 346.028 43.036 345.73 42.7C345.431 42.3547 345.062 42.084 344.624 41.888C344.194 41.692 343.69 41.594 343.112 41.594C342.542 41.594 342.038 41.692 341.6 41.888C341.161 42.084 340.792 42.3547 340.494 42.7C340.195 43.036 339.971 43.4373 339.822 43.904C339.672 44.3613 339.598 44.856 339.598 45.388ZM348.029 41.762V49H349.219V44.912C349.219 44.5853 349.261 44.2867 349.345 44.016C349.438 43.736 349.573 43.4933 349.751 43.288C349.928 43.0827 350.147 42.924 350.409 42.812C350.679 42.7 350.997 42.644 351.361 42.644C351.818 42.644 352.177 42.7747 352.439 43.036C352.7 43.2973 352.831 43.652 352.831 44.1V49H354.021V44.24C354.021 43.848 353.979 43.4933 353.895 43.176C353.82 42.8493 353.685 42.5693 353.489 42.336C353.293 42.1027 353.036 41.9207 352.719 41.79C352.401 41.6593 352.005 41.594 351.529 41.594C350.455 41.594 349.671 42.0327 349.177 42.91H349.149V41.762H348.029ZM360.022 49H361.212V41.762H360.022V49ZM360.022 40.46H361.212V39.004H360.022V40.46ZM356.298 42.812V49H357.488V42.812H358.888V41.762H357.488V40.754C357.488 40.4367 357.567 40.222 357.726 40.11C357.885 39.998 358.109 39.942 358.398 39.942C358.501 39.942 358.613 39.9513 358.734 39.97C358.855 39.9793 358.967 40.0027 359.07 40.04V39.004C358.958 38.9667 358.827 38.9387 358.678 38.92C358.538 38.9013 358.412 38.892 358.3 38.892C357.647 38.892 357.147 39.046 356.802 39.354C356.466 39.6527 356.298 40.096 356.298 40.684V41.762H355.08V42.812H356.298ZM369.298 48.384V41.762H368.178V42.798H368.164C367.95 42.3967 367.651 42.098 367.268 41.902C366.886 41.6967 366.466 41.594 366.008 41.594C365.383 41.594 364.856 41.7153 364.426 41.958C363.997 42.1913 363.652 42.4947 363.39 42.868C363.129 43.232 362.942 43.6427 362.83 44.1C362.718 44.548 362.662 44.9867 362.662 45.416C362.662 45.9107 362.728 46.382 362.858 46.83C362.998 47.2687 363.204 47.656 363.474 47.992C363.745 48.3187 364.081 48.58 364.482 48.776C364.884 48.972 365.355 49.07 365.896 49.07C366.363 49.07 366.802 48.9673 367.212 48.762C367.632 48.5473 367.945 48.216 368.15 47.768H368.178V48.244C368.178 48.6453 368.136 49.014 368.052 49.35C367.978 49.686 367.852 49.9707 367.674 50.204C367.497 50.4467 367.273 50.6333 367.002 50.764C366.732 50.904 366.4 50.974 366.008 50.974C365.812 50.974 365.607 50.9507 365.392 50.904C365.178 50.8667 364.977 50.8013 364.79 50.708C364.613 50.6147 364.459 50.4933 364.328 50.344C364.207 50.1947 364.142 50.0127 364.132 49.798H362.942C362.961 50.19 363.064 50.5213 363.25 50.792C363.437 51.0627 363.67 51.282 363.95 51.45C364.24 51.618 364.557 51.7393 364.902 51.814C365.257 51.8887 365.602 51.926 365.938 51.926C367.096 51.926 367.945 51.632 368.486 51.044C369.028 50.456 369.298 49.5693 369.298 48.384ZM365.966 48.034C365.574 48.034 365.248 47.9547 364.986 47.796C364.725 47.628 364.515 47.4133 364.356 47.152C364.198 46.8813 364.086 46.5827 364.02 46.256C363.955 45.9293 363.922 45.6027 363.922 45.276C363.922 44.9307 363.96 44.5993 364.034 44.282C364.118 43.9647 364.244 43.6847 364.412 43.442C364.59 43.1993 364.814 43.008 365.084 42.868C365.355 42.7187 365.682 42.644 366.064 42.644C366.438 42.644 366.755 42.7187 367.016 42.868C367.278 43.0173 367.488 43.218 367.646 43.47C367.814 43.7127 367.936 43.988 368.01 44.296C368.085 44.604 368.122 44.9167 368.122 45.234C368.122 45.57 368.08 45.906 367.996 46.242C367.922 46.578 367.8 46.8813 367.632 47.152C367.464 47.4133 367.24 47.628 366.96 47.796C366.69 47.9547 366.358 48.034 365.966 48.034ZM377.085 49V41.762H375.895V45.85C375.895 46.1767 375.849 46.48 375.755 46.76C375.671 47.0307 375.541 47.2687 375.363 47.474C375.186 47.6793 374.962 47.838 374.691 47.95C374.43 48.062 374.117 48.118 373.753 48.118C373.296 48.118 372.937 47.9873 372.675 47.726C372.414 47.4647 372.283 47.11 372.283 46.662V41.762H371.093V46.522C371.093 46.914 371.131 47.2733 371.205 47.6C371.289 47.9173 371.429 48.1927 371.625 48.426C371.821 48.6593 372.078 48.8413 372.395 48.972C372.713 49.0933 373.109 49.154 373.585 49.154C374.117 49.154 374.579 49.0513 374.971 48.846C375.363 48.6313 375.685 48.3 375.937 47.852H375.965V49H377.085ZM378.831 41.762V49H380.021V45.78C380.021 45.3133 380.067 44.9027 380.161 44.548C380.254 44.184 380.403 43.876 380.609 43.624C380.814 43.372 381.085 43.1807 381.421 43.05C381.757 42.9193 382.163 42.854 382.639 42.854V41.594C381.995 41.5753 381.463 41.706 381.043 41.986C380.623 42.266 380.268 42.7 379.979 43.288H379.951V41.762H378.831ZM389.947 48.972C389.741 49.0933 389.457 49.154 389.093 49.154C388.785 49.154 388.537 49.07 388.351 48.902C388.173 48.7247 388.085 48.44 388.085 48.048C387.758 48.44 387.375 48.7247 386.937 48.902C386.507 49.07 386.041 49.154 385.537 49.154C385.21 49.154 384.897 49.1167 384.599 49.042C384.309 48.9673 384.057 48.8507 383.843 48.692C383.628 48.5333 383.455 48.328 383.325 48.076C383.203 47.8147 383.143 47.502 383.143 47.138C383.143 46.7273 383.213 46.3913 383.353 46.13C383.493 45.8687 383.675 45.6587 383.899 45.5C384.132 45.332 384.393 45.206 384.683 45.122C384.981 45.038 385.285 44.968 385.593 44.912C385.919 44.8467 386.227 44.8 386.517 44.772C386.815 44.7347 387.077 44.688 387.301 44.632C387.525 44.5667 387.702 44.478 387.833 44.366C387.963 44.2447 388.029 44.072 388.029 43.848C388.029 43.5867 387.977 43.3767 387.875 43.218C387.781 43.0593 387.655 42.938 387.497 42.854C387.347 42.77 387.175 42.714 386.979 42.686C386.792 42.658 386.605 42.644 386.419 42.644C385.915 42.644 385.495 42.742 385.159 42.938C384.823 43.1247 384.641 43.484 384.613 44.016H383.423C383.441 43.568 383.535 43.19 383.703 42.882C383.871 42.574 384.095 42.3267 384.375 42.14C384.655 41.944 384.972 41.804 385.327 41.72C385.691 41.636 386.078 41.594 386.489 41.594C386.815 41.594 387.137 41.6173 387.455 41.664C387.781 41.7107 388.075 41.8087 388.337 41.958C388.598 42.098 388.808 42.2987 388.967 42.56C389.125 42.8213 389.205 43.162 389.205 43.582V47.306C389.205 47.586 389.219 47.7913 389.247 47.922C389.284 48.0527 389.396 48.118 389.583 48.118C389.685 48.118 389.807 48.0947 389.947 48.048V48.972ZM388.015 45.262C387.865 45.374 387.669 45.458 387.427 45.514C387.184 45.5607 386.927 45.6027 386.657 45.64C386.395 45.668 386.129 45.7053 385.859 45.752C385.588 45.7893 385.345 45.8547 385.131 45.948C384.916 46.0413 384.739 46.1767 384.599 46.354C384.468 46.522 384.403 46.7553 384.403 47.054C384.403 47.25 384.44 47.418 384.515 47.558C384.599 47.6887 384.701 47.796 384.823 47.88C384.953 47.964 385.103 48.0247 385.271 48.062C385.439 48.0993 385.616 48.118 385.803 48.118C386.195 48.118 386.531 48.0667 386.811 47.964C387.091 47.852 387.319 47.7167 387.497 47.558C387.674 47.39 387.805 47.2127 387.889 47.026C387.973 46.83 388.015 46.648 388.015 46.48V45.262ZM392.706 41.762V39.592H391.516V41.762H390.284V42.812H391.516V47.418C391.516 47.754 391.549 48.0247 391.614 48.23C391.68 48.4353 391.778 48.594 391.908 48.706C392.048 48.818 392.226 48.8973 392.44 48.944C392.664 48.9813 392.93 49 393.238 49H394.148V47.95H393.602C393.416 47.95 393.262 47.9453 393.14 47.936C393.028 47.9173 392.94 47.8847 392.874 47.838C392.809 47.7913 392.762 47.726 392.734 47.642C392.716 47.558 392.706 47.446 392.706 47.306V42.812H394.148V41.762H392.706ZM396.73 40.46V39.004H395.54V40.46H396.73ZM395.54 41.762V49H396.73V41.762H395.54ZM399.442 45.388C399.442 44.9493 399.498 44.562 399.61 44.226C399.731 43.8807 399.894 43.5913 400.1 43.358C400.305 43.1247 400.543 42.9473 400.814 42.826C401.094 42.7047 401.388 42.644 401.696 42.644C402.004 42.644 402.293 42.7047 402.564 42.826C402.844 42.9473 403.086 43.1247 403.292 43.358C403.497 43.5913 403.656 43.8807 403.768 44.226C403.889 44.562 403.95 44.9493 403.95 45.388C403.95 45.8267 403.889 46.2187 403.768 46.564C403.656 46.9 403.497 47.1847 403.292 47.418C403.086 47.642 402.844 47.8147 402.564 47.936C402.293 48.0573 402.004 48.118 401.696 48.118C401.388 48.118 401.094 48.0573 400.814 47.936C400.543 47.8147 400.305 47.642 400.1 47.418C399.894 47.1847 399.731 46.9 399.61 46.564C399.498 46.2187 399.442 45.8267 399.442 45.388ZM398.182 45.388C398.182 45.92 398.256 46.4147 398.406 46.872C398.555 47.3293 398.779 47.7307 399.078 48.076C399.376 48.412 399.745 48.678 400.184 48.874C400.622 49.0607 401.126 49.154 401.696 49.154C402.274 49.154 402.778 49.0607 403.208 48.874C403.646 48.678 404.015 48.412 404.314 48.076C404.612 47.7307 404.836 47.3293 404.986 46.872C405.135 46.4147 405.21 45.92 405.21 45.388C405.21 44.856 405.135 44.3613 404.986 43.904C404.836 43.4373 404.612 43.036 404.314 42.7C404.015 42.3547 403.646 42.084 403.208 41.888C402.778 41.692 402.274 41.594 401.696 41.594C401.126 41.594 400.622 41.692 400.184 41.888C399.745 42.084 399.376 42.3547 399.078 42.7C398.779 43.036 398.555 43.4373 398.406 43.904C398.256 44.3613 398.182 44.856 398.182 45.388ZM406.613 41.762V49H407.803V44.912C407.803 44.5853 407.845 44.2867 407.929 44.016C408.022 43.736 408.157 43.4933 408.335 43.288C408.512 43.0827 408.731 42.924 408.993 42.812C409.263 42.7 409.581 42.644 409.945 42.644C410.402 42.644 410.761 42.7747 411.023 43.036C411.284 43.2973 411.415 43.652 411.415 44.1V49H412.605V44.24C412.605 43.848 412.563 43.4933 412.479 43.176C412.404 42.8493 412.269 42.5693 412.073 42.336C411.877 42.1027 411.62 41.9207 411.303 41.79C410.985 41.6593 410.589 41.594 410.113 41.594C409.039 41.594 408.255 42.0327 407.761 42.91H407.733V41.762H406.613ZM422.503 49H423.693V41.762H422.503V49ZM422.503 40.46H423.693V39.004H422.503V40.46ZM418.779 42.812V49H419.969V42.812H421.369V41.762H419.969V40.754C419.969 40.4367 420.048 40.222 420.207 40.11C420.365 39.998 420.589 39.942 420.879 39.942C420.981 39.942 421.093 39.9513 421.215 39.97C421.336 39.9793 421.448 40.0027 421.551 40.04V39.004C421.439 38.9667 421.308 38.9387 421.159 38.92C421.019 38.9013 420.893 38.892 420.781 38.892C420.127 38.892 419.628 39.046 419.283 39.354C418.947 39.6527 418.779 40.096 418.779 40.684V41.762H417.561V42.812H418.779ZM425.605 39.004V49H426.795V39.004H425.605ZM433.664 44.688H429.506C429.525 44.408 429.586 44.1467 429.688 43.904C429.791 43.652 429.931 43.4327 430.108 43.246C430.286 43.0593 430.496 42.9147 430.738 42.812C430.99 42.7 431.27 42.644 431.578 42.644C431.877 42.644 432.148 42.7 432.39 42.812C432.642 42.9147 432.857 43.0593 433.034 43.246C433.221 43.4233 433.366 43.638 433.468 43.89C433.58 44.142 433.646 44.408 433.664 44.688ZM434.812 46.704H433.636C433.534 47.18 433.319 47.5347 432.992 47.768C432.675 48.0013 432.264 48.118 431.76 48.118C431.368 48.118 431.028 48.0527 430.738 47.922C430.449 47.7913 430.211 47.6187 430.024 47.404C429.838 47.18 429.702 46.928 429.618 46.648C429.534 46.3587 429.497 46.0553 429.506 45.738H434.924C434.943 45.2993 434.901 44.8373 434.798 44.352C434.705 43.8667 434.528 43.4187 434.266 43.008C434.014 42.5973 433.674 42.2613 433.244 42C432.824 41.7293 432.292 41.594 431.648 41.594C431.154 41.594 430.696 41.6873 430.276 41.874C429.866 42.0607 429.506 42.322 429.198 42.658C428.9 42.994 428.666 43.3907 428.498 43.848C428.33 44.3053 428.246 44.8093 428.246 45.36C428.265 45.9107 428.344 46.4193 428.484 46.886C428.634 47.3527 428.853 47.754 429.142 48.09C429.432 48.426 429.786 48.6873 430.206 48.874C430.636 49.0607 431.14 49.154 431.718 49.154C432.54 49.154 433.221 48.9487 433.762 48.538C434.304 48.1273 434.654 47.516 434.812 46.704ZM441.314 40.46V39.004H440.124V40.46H441.314ZM440.124 41.762V49H441.314V41.762H440.124ZM443.886 46.718H442.696C442.714 47.166 442.808 47.5487 442.976 47.866C443.144 48.174 443.368 48.426 443.648 48.622C443.928 48.8087 444.25 48.944 444.614 49.028C444.978 49.112 445.36 49.154 445.762 49.154C446.126 49.154 446.49 49.1167 446.854 49.042C447.227 48.9767 447.558 48.8553 447.848 48.678C448.146 48.5007 448.384 48.2673 448.562 47.978C448.748 47.6887 448.842 47.3247 448.842 46.886C448.842 46.5407 448.772 46.2513 448.632 46.018C448.501 45.7847 448.324 45.5933 448.1 45.444C447.885 45.2853 447.633 45.1593 447.344 45.066C447.064 44.9727 446.774 44.8933 446.476 44.828C446.196 44.7627 445.916 44.702 445.636 44.646C445.356 44.5807 445.104 44.506 444.88 44.422C444.656 44.3287 444.469 44.2167 444.32 44.086C444.18 43.946 444.11 43.7733 444.11 43.568C444.11 43.3813 444.156 43.232 444.25 43.12C444.343 42.9987 444.464 42.9053 444.614 42.84C444.763 42.7653 444.926 42.714 445.104 42.686C445.29 42.658 445.472 42.644 445.65 42.644C445.846 42.644 446.037 42.6673 446.224 42.714C446.42 42.7513 446.597 42.8167 446.756 42.91C446.914 43.0033 447.045 43.1293 447.148 43.288C447.25 43.4373 447.311 43.6287 447.33 43.862H448.52C448.492 43.4233 448.398 43.0593 448.24 42.77C448.081 42.4713 447.866 42.238 447.596 42.07C447.334 41.8927 447.031 41.7713 446.686 41.706C446.34 41.6313 445.962 41.594 445.552 41.594C445.234 41.594 444.912 41.636 444.586 41.72C444.268 41.7947 443.979 41.916 443.718 42.084C443.466 42.2427 443.256 42.4527 443.088 42.714C442.929 42.9753 442.85 43.288 442.85 43.652C442.85 44.1187 442.966 44.4827 443.2 44.744C443.433 45.0053 443.722 45.2107 444.068 45.36C444.422 45.5 444.805 45.612 445.216 45.696C445.626 45.7707 446.004 45.8593 446.35 45.962C446.704 46.0553 446.998 46.1813 447.232 46.34C447.465 46.4987 447.582 46.732 447.582 47.04C447.582 47.264 447.526 47.4507 447.414 47.6C447.302 47.74 447.157 47.8473 446.98 47.922C446.812 47.9967 446.625 48.048 446.42 48.076C446.214 48.104 446.018 48.118 445.832 48.118C445.589 48.118 445.351 48.0947 445.118 48.048C444.894 48.0013 444.688 47.9267 444.502 47.824C444.324 47.712 444.18 47.5673 444.068 47.39C443.956 47.2033 443.895 46.9793 443.886 46.718ZM454.544 42.812V49H455.734V42.812H457.134V41.762H455.734V40.754C455.734 40.4367 455.814 40.222 455.972 40.11C456.131 39.998 456.355 39.942 456.644 39.942C456.747 39.942 456.859 39.9513 456.98 39.97C457.102 39.9793 457.214 40.0027 457.316 40.04V39.004C457.204 38.9667 457.074 38.9387 456.924 38.92C456.784 38.9013 456.658 38.892 456.546 38.892C455.893 38.892 455.394 39.046 455.048 39.354C454.712 39.6527 454.544 40.096 454.544 40.684V41.762H453.326V42.812H454.544ZM459.065 45.388C459.065 44.9493 459.121 44.562 459.233 44.226C459.354 43.8807 459.517 43.5913 459.723 43.358C459.928 43.1247 460.166 42.9473 460.437 42.826C460.717 42.7047 461.011 42.644 461.319 42.644C461.627 42.644 461.916 42.7047 462.187 42.826C462.467 42.9473 462.709 43.1247 462.915 43.358C463.12 43.5913 463.279 43.8807 463.391 44.226C463.512 44.562 463.573 44.9493 463.573 45.388C463.573 45.8267 463.512 46.2187 463.391 46.564C463.279 46.9 463.12 47.1847 462.915 47.418C462.709 47.642 462.467 47.8147 462.187 47.936C461.916 48.0573 461.627 48.118 461.319 48.118C461.011 48.118 460.717 48.0573 460.437 47.936C460.166 47.8147 459.928 47.642 459.723 47.418C459.517 47.1847 459.354 46.9 459.233 46.564C459.121 46.2187 459.065 45.8267 459.065 45.388ZM457.805 45.388C457.805 45.92 457.879 46.4147 458.029 46.872C458.178 47.3293 458.402 47.7307 458.701 48.076C458.999 48.412 459.368 48.678 459.807 48.874C460.245 49.0607 460.749 49.154 461.319 49.154C461.897 49.154 462.401 49.0607 462.831 48.874C463.269 48.678 463.638 48.412 463.937 48.076C464.235 47.7307 464.459 47.3293 464.609 46.872C464.758 46.4147 464.833 45.92 464.833 45.388C464.833 44.856 464.758 44.3613 464.609 43.904C464.459 43.4373 464.235 43.036 463.937 42.7C463.638 42.3547 463.269 42.084 462.831 41.888C462.401 41.692 461.897 41.594 461.319 41.594C460.749 41.594 460.245 41.692 459.807 41.888C459.368 42.084 458.999 42.3547 458.701 42.7C458.402 43.036 458.178 43.4373 458.029 43.904C457.879 44.3613 457.805 44.856 457.805 45.388ZM472.228 49V41.762H471.038V45.85C471.038 46.1767 470.991 46.48 470.898 46.76C470.814 47.0307 470.683 47.2687 470.506 47.474C470.329 47.6793 470.105 47.838 469.834 47.95C469.573 48.062 469.26 48.118 468.896 48.118C468.439 48.118 468.079 47.9873 467.818 47.726C467.557 47.4647 467.426 47.11 467.426 46.662V41.762H466.236V46.522C466.236 46.914 466.273 47.2733 466.348 47.6C466.432 47.9173 466.572 48.1927 466.768 48.426C466.964 48.6593 467.221 48.8413 467.538 48.972C467.855 49.0933 468.252 49.154 468.728 49.154C469.26 49.154 469.722 49.0513 470.114 48.846C470.506 48.6313 470.828 48.3 471.08 47.852H471.108V49H472.228ZM474.015 41.762V49H475.205V44.912C475.205 44.5853 475.247 44.2867 475.331 44.016C475.424 43.736 475.56 43.4933 475.737 43.288C475.914 43.0827 476.134 42.924 476.395 42.812C476.666 42.7 476.983 42.644 477.347 42.644C477.804 42.644 478.164 42.7747 478.425 43.036C478.686 43.2973 478.817 43.652 478.817 44.1V49H480.007V44.24C480.007 43.848 479.965 43.4933 479.881 43.176C479.806 42.8493 479.671 42.5693 479.475 42.336C479.279 42.1027 479.022 41.9207 478.705 41.79C478.388 41.6593 477.991 41.594 477.515 41.594C476.442 41.594 475.658 42.0327 475.163 42.91H475.135V41.762H474.015ZM482.662 45.444C482.662 45.0893 482.7 44.744 482.774 44.408C482.849 44.072 482.97 43.7733 483.138 43.512C483.306 43.2507 483.53 43.0407 483.81 42.882C484.09 42.7233 484.431 42.644 484.832 42.644C485.243 42.644 485.593 42.7233 485.882 42.882C486.172 43.0313 486.405 43.232 486.582 43.484C486.769 43.736 486.904 44.03 486.988 44.366C487.072 44.6927 487.114 45.0333 487.114 45.388C487.114 45.724 487.072 46.0553 486.988 46.382C486.914 46.7087 486.788 47.0027 486.61 47.264C486.433 47.516 486.204 47.7213 485.924 47.88C485.644 48.0387 485.304 48.118 484.902 48.118C484.52 48.118 484.184 48.0433 483.894 47.894C483.614 47.7447 483.381 47.544 483.194 47.292C483.017 47.04 482.882 46.7553 482.788 46.438C482.704 46.1113 482.662 45.78 482.662 45.444ZM488.262 49V39.004H487.072V42.728H487.044C486.914 42.5133 486.75 42.336 486.554 42.196C486.368 42.0467 486.167 41.93 485.952 41.846C485.738 41.7527 485.523 41.6873 485.308 41.65C485.094 41.6127 484.893 41.594 484.706 41.594C484.156 41.594 483.67 41.6967 483.25 41.902C482.84 42.098 482.494 42.3687 482.214 42.714C481.944 43.05 481.738 43.4467 481.598 43.904C481.468 44.3613 481.402 44.8467 481.402 45.36C481.402 45.8733 481.472 46.3587 481.612 46.816C481.752 47.2733 481.958 47.6747 482.228 48.02C482.508 48.3653 482.854 48.6407 483.264 48.846C483.684 49.0513 484.174 49.154 484.734 49.154C485.238 49.154 485.7 49.0653 486.12 48.888C486.54 48.7107 486.848 48.4213 487.044 48.02H487.072V49H488.262ZM490.359 47.446V49H491.913V47.446H490.359Z" fill="#666666"/>
<path d="M16 72C16 65.3726 21.3726 60 28 60H52C58.6274 60 64 65.3726 64 72V72C64 78.6274 58.6274 84 52 84H28C21.3726 84 16 78.6274 16 72V72Z" fill="#1F75CB"/>
<circle cx="52" cy="72" r="10" fill="white"/>
<path fill-rule="evenodd" clip-rule="evenodd" d="M56.7803 68.6201C57.0732 68.913 57.0732 69.3878 56.7803 69.6807L50.6835 75.7776C50.5413 75.9198 50.348 75.9989 50.1469 75.9972C49.9459 75.9956 49.7539 75.9133 49.6141 75.7688L47.211 73.2849C46.923 72.9872 46.9308 72.5124 47.2285 72.2244C47.5262 71.9363 48.001 71.9442 48.289 72.2419L50.162 74.1778L55.7197 68.6201C56.0126 68.3272 56.4874 68.3272 56.7803 68.6201Z" fill="#1F75CB"/>
</svg>
