<svg width="136" height="82" viewBox="0 0 136 82" fill="none" xmlns="http://www.w3.org/2000/svg">
<path d="M52 40C52 37.7909 53.7909 36 56 36H80C82.2091 36 84 37.7909 84 40V64C84 66.2091 82.2091 68 80 68H56C53.7909 68 52 66.2091 52 64V40Z" fill="white"/>
<g clip-path="url(#clip0_5_515)">
<path fill-rule="evenodd" clip-rule="evenodd" d="M69.0765 44.75H66.9236C66.6792 44.75 66.4706 44.9267 66.4304 45.1678L66.2739 46.1068C66.2583 46.2005 66.1908 46.2768 66.1008 46.3068C65.3248 46.5656 64.6194 46.9785 64.0208 47.5093C63.9498 47.5722 63.85 47.5925 63.7611 47.5592L62.868 47.2246C62.6391 47.1388 62.3818 47.2311 62.2595 47.4428L61.1831 49.3072C61.0609 49.5189 61.1096 49.7879 61.2983 49.9432L62.0337 50.5486C62.1069 50.6089 62.1393 50.7053 62.1204 50.7982C62.0415 51.1865 62 51.5884 62 52C62 52.4116 62.0415 52.8135 62.1204 53.2018C62.1393 53.2947 62.1069 53.3911 62.0337 53.4514L61.2983 54.0568C61.1096 54.2121 61.0609 54.4811 61.1831 54.6928L62.2595 56.5572C62.3818 56.7689 62.6391 56.8612 62.868 56.7754L63.7611 56.4408C63.85 56.4075 63.9498 56.4278 64.0208 56.4907C64.6194 57.0215 65.3248 57.4344 66.1008 57.6932C66.1908 57.7232 66.2583 57.7995 66.2739 57.8932L66.4304 58.8322C66.4706 59.0733 66.6792 59.25 66.9236 59.25H69.0765C69.3209 59.25 69.5295 59.0733 69.5697 58.8322L69.7262 57.8931C69.7418 57.7995 69.8092 57.7232 69.8993 57.6932C70.6752 57.4344 71.3807 57.0215 71.9792 56.4907C72.0502 56.4278 72.15 56.4075 72.2389 56.4408L73.1321 56.7754C73.3609 56.8612 73.6183 56.7689 73.7405 56.5572L74.8169 54.6928C74.9391 54.4811 74.8904 54.2121 74.7017 54.0568L73.9663 53.4514C73.8931 53.3911 73.8607 53.2947 73.8796 53.2018C73.9586 52.8135 74 52.4116 74 52C74 51.5884 73.9586 51.1865 73.8796 50.7982C73.8607 50.7053 73.8931 50.6089 73.9663 50.5486L74.7017 49.9432C74.8904 49.7879 74.9391 49.5189 74.8169 49.3072L73.7405 47.4428C73.6183 47.2311 73.3609 47.1388 73.1321 47.2246L72.2389 47.5592C72.15 47.5925 72.0502 47.5722 71.9792 47.5093C71.3807 46.9785 70.6752 46.5656 69.8993 46.3068C69.8092 46.2768 69.7418 46.2005 69.7262 46.1069L69.5697 45.1678C69.5295 44.9267 69.3209 44.75 69.0765 44.75ZM68 55C69.6569 55 71 53.6569 71 52C71 50.3431 69.6569 49 68 49C66.3431 49 65 50.3431 65 52C65 53.6569 66.3431 55 68 55Z" fill="white"/>
<path d="M66.4304 45.1678L65.6906 45.0445V45.0445L66.4304 45.1678ZM66.2739 46.1068L67.0137 46.2301V46.2301L66.2739 46.1068ZM66.1008 46.3068L66.338 47.0183H66.338L66.1008 46.3068ZM64.0208 47.5093L63.5232 46.9481L63.5232 46.9481L64.0208 47.5093ZM63.7611 47.5592L64.0243 46.8568H64.0243L63.7611 47.5592ZM62.868 47.2246L63.1311 46.5222L63.1311 46.5222L62.868 47.2246ZM62.2595 47.4428L61.61 47.0678H61.61L62.2595 47.4428ZM61.1831 49.3072L60.5336 48.9322H60.5336L61.1831 49.3072ZM61.2983 49.9432L61.775 49.3642H61.775L61.2983 49.9432ZM62.0337 50.5486L61.557 51.1277L61.557 51.1277L62.0337 50.5486ZM62.1204 50.7982L62.8554 50.9476L62.8554 50.9476L62.1204 50.7982ZM62.1204 53.2018L62.8554 53.0524L62.8554 53.0524L62.1204 53.2018ZM62.0337 53.4514L62.5104 54.0304H62.5104L62.0337 53.4514ZM61.2983 54.0568L60.8217 53.4777L61.2983 54.0568ZM61.1831 54.6928L60.5336 55.0678H60.5336L61.1831 54.6928ZM62.2595 56.5572L62.9091 56.1822H62.9091L62.2595 56.5572ZM62.868 56.7754L63.1311 57.4778H63.1311L62.868 56.7754ZM63.7611 56.4408L63.498 55.7385H63.498L63.7611 56.4408ZM64.0208 56.4907L63.5232 57.0519L63.5232 57.0519L64.0208 56.4907ZM66.1008 57.6932L66.338 56.9817L66.338 56.9817L66.1008 57.6932ZM66.2739 57.8932L67.0137 57.7699L67.0137 57.7699L66.2739 57.8932ZM66.4304 58.8322L67.1702 58.7089V58.7089L66.4304 58.8322ZM69.5697 58.8322L68.8299 58.7089L68.8299 58.7089L69.5697 58.8322ZM69.7262 57.8931L70.466 58.0164V58.0164L69.7262 57.8931ZM69.8993 57.6932L70.1365 58.4047L69.8993 57.6932ZM71.9792 56.4907L71.4816 55.9296L71.4816 55.9296L71.9792 56.4907ZM72.2389 56.4408L72.502 55.7385H72.502L72.2389 56.4408ZM73.1321 56.7754L72.8689 57.4778L73.1321 56.7754ZM73.7405 56.5572L73.091 56.1822L73.091 56.1822L73.7405 56.5572ZM74.8169 54.6928L75.4664 55.0678L75.4664 55.0678L74.8169 54.6928ZM74.7017 54.0568L74.225 54.6358L74.7017 54.0568ZM73.9663 53.4514L73.4896 54.0304L73.4896 54.0304L73.9663 53.4514ZM73.8796 53.2018L74.6146 53.3512V53.3512L73.8796 53.2018ZM73.8796 50.7982L74.6146 50.6488V50.6488L73.8796 50.7982ZM73.9663 50.5486L73.4896 49.9696V49.9696L73.9663 50.5486ZM74.7017 49.9432L74.225 49.3642L74.7017 49.9432ZM74.8169 49.3072L75.4664 48.9322L75.4664 48.9322L74.8169 49.3072ZM73.7405 47.4428L73.091 47.8178V47.8178L73.7405 47.4428ZM73.1321 47.2246L72.8689 46.5222V46.5222L73.1321 47.2246ZM72.2389 47.5592L71.9758 46.8568L71.9758 46.8568L72.2389 47.5592ZM71.9792 47.5093L71.4816 48.0704V48.0704L71.9792 47.5093ZM69.8993 46.3068L69.662 47.0183L69.662 47.0183L69.8993 46.3068ZM69.7262 46.1069L70.466 45.9836V45.9836L69.7262 46.1069ZM69.5697 45.1678L68.8299 45.2911L68.8299 45.2911L69.5697 45.1678ZM66.9236 45.5H69.0765V44H66.9236V45.5ZM67.1702 45.2911C67.1501 45.4116 67.0458 45.5 66.9236 45.5V44C66.3125 44 65.791 44.4418 65.6906 45.0445L67.1702 45.2911ZM67.0137 46.2301L67.1702 45.2911L65.6906 45.0445L65.5341 45.9835L67.0137 46.2301ZM66.338 47.0183C66.6811 46.9039 66.9506 46.6086 67.0137 46.2301L65.5341 45.9835C65.5659 45.7924 65.7006 45.6497 65.8635 45.5953L66.338 47.0183ZM64.5184 48.0704C65.0427 47.6055 65.6599 47.2444 66.338 47.0183L65.8635 45.5953C64.9897 45.8867 64.1961 46.3515 63.5232 46.9481L64.5184 48.0704ZM63.498 48.2615C63.8571 48.396 64.2477 48.3105 64.5184 48.0704L63.5232 46.9481C63.6519 46.834 63.8429 46.7889 64.0243 46.8568L63.498 48.2615ZM62.6048 47.9269L63.498 48.2615L64.0243 46.8568L63.1311 46.5222L62.6048 47.9269ZM62.9091 47.8178C62.848 47.9236 62.7193 47.9698 62.6048 47.9269L63.1311 46.5222C62.5589 46.3079 61.9155 46.5386 61.61 47.0678L62.9091 47.8178ZM61.8326 49.6822L62.9091 47.8178L61.61 47.0678L60.5336 48.9322L61.8326 49.6822ZM61.775 49.3642C61.8694 49.4419 61.8937 49.5764 61.8326 49.6822L60.5336 48.9322C60.2281 49.4614 60.3499 50.1339 60.8217 50.5223L61.775 49.3642ZM62.5104 49.9696L61.775 49.3642L60.8217 50.5223L61.557 51.1277L62.5104 49.9696ZM62.8554 50.9476C62.9273 50.5936 62.8062 50.2131 62.5104 49.9696L61.557 51.1277C61.4077 51.0047 61.3512 50.817 61.3854 50.6488L62.8554 50.9476ZM62.75 52C62.75 51.6389 62.7864 51.287 62.8554 50.9476L61.3854 50.6488C61.2965 51.086 61.25 51.5379 61.25 52H62.75ZM62.8554 53.0524C62.7864 52.713 62.75 52.3611 62.75 52H61.25C61.25 52.4621 61.2965 52.914 61.3854 53.3512L62.8554 53.0524ZM62.5104 54.0304C62.8062 53.7869 62.9273 53.4064 62.8554 53.0524L61.3854 53.3512C61.3512 53.183 61.4077 52.9953 61.557 52.8723L62.5104 54.0304ZM61.775 54.6358L62.5104 54.0304L61.557 52.8723L60.8217 53.4777L61.775 54.6358ZM61.8326 54.3178C61.8937 54.4236 61.8694 54.5581 61.775 54.6358L60.8217 53.4777C60.3499 53.8661 60.2281 54.5386 60.5336 55.0678L61.8326 54.3178ZM62.9091 56.1822L61.8326 54.3178L60.5336 55.0678L61.61 56.9322L62.9091 56.1822ZM62.6049 56.0731C62.7193 56.0302 62.848 56.0764 62.9091 56.1822L61.61 56.9322C61.9156 57.4614 62.5589 57.6921 63.1311 57.4778L62.6049 56.0731ZM63.498 55.7385L62.6049 56.0731L63.1311 57.4778L64.0243 57.1432L63.498 55.7385ZM64.5184 55.9296C64.2477 55.6895 63.8571 55.604 63.498 55.7385L64.0243 57.1432C63.8429 57.2111 63.6519 57.166 63.5232 57.0519L64.5184 55.9296ZM66.338 56.9817C65.6599 56.7556 65.0427 56.3945 64.5184 55.9296L63.5232 57.0519C64.1961 57.6485 64.9897 58.1133 65.8635 58.4047L66.338 56.9817ZM67.0137 57.7699C66.9506 57.3914 66.6811 57.0961 66.338 56.9817L65.8635 58.4047C65.7006 58.3503 65.5659 58.2076 65.5341 58.0165L67.0137 57.7699ZM67.1702 58.7089L67.0137 57.7699L65.5341 58.0165L65.6906 58.9555L67.1702 58.7089ZM66.9236 58.5C67.0458 58.5 67.1501 58.5884 67.1702 58.7089L65.6906 58.9555C65.791 59.5582 66.3125 60 66.9236 60V58.5ZM69.0765 58.5H66.9236V60H69.0765V58.5ZM68.8299 58.7089C68.8499 58.5884 68.9542 58.5 69.0765 58.5V60C69.6875 60 70.209 59.5582 70.3094 58.9555L68.8299 58.7089ZM68.9864 57.7698L68.8299 58.7089L70.3094 58.9555L70.466 58.0164L68.9864 57.7698ZM69.662 56.9817C69.319 57.0961 69.0494 57.3914 68.9864 57.7699L70.466 58.0164C70.4341 58.2076 70.2995 58.3503 70.1365 58.4047L69.662 56.9817ZM71.4816 55.9296C70.9573 56.3945 70.3401 56.7556 69.662 56.9817L70.1365 58.4047C71.0103 58.1133 71.804 57.6485 72.4768 57.0519L71.4816 55.9296ZM72.502 55.7385C72.1429 55.604 71.7523 55.6895 71.4816 55.9296L72.4768 57.0519C72.3481 57.166 72.1571 57.2111 71.9758 57.1432L72.502 55.7385ZM73.3952 56.0731L72.502 55.7385L71.9758 57.1432L72.8689 57.4778L73.3952 56.0731ZM73.091 56.1822C73.1521 56.0764 73.2807 56.0302 73.3952 56.0731L72.8689 57.4778C73.4412 57.6921 74.0845 57.4614 74.39 56.9322L73.091 56.1822ZM74.1674 54.3178L73.091 56.1822L74.39 56.9322L75.4664 55.0678L74.1674 54.3178ZM74.225 54.6358C74.1307 54.5581 74.1063 54.4236 74.1674 54.3178L75.4664 55.0678C75.772 54.5386 75.6501 53.8661 75.1784 53.4777L74.225 54.6358ZM73.4896 54.0304L74.225 54.6358L75.1784 53.4777L74.443 52.8723L73.4896 54.0304ZM73.1447 53.0524C73.0727 53.4064 73.1939 53.7869 73.4896 54.0304L74.443 52.8723C74.5923 52.9953 74.6488 53.183 74.6146 53.3512L73.1447 53.0524ZM73.25 52C73.25 52.3611 73.2137 52.713 73.1447 53.0524L74.6146 53.3512C74.7035 52.914 74.75 52.4621 74.75 52H73.25ZM73.1447 50.9476C73.2137 51.287 73.25 51.6389 73.25 52H74.75C74.75 51.5379 74.7035 51.086 74.6146 50.6488L73.1447 50.9476ZM73.4896 49.9696C73.1939 50.2131 73.0727 50.5936 73.1447 50.9476L74.6146 50.6488C74.6488 50.817 74.5923 51.0047 74.443 51.1277L73.4896 49.9696ZM74.225 49.3642L73.4896 49.9696L74.443 51.1277L75.1784 50.5223L74.225 49.3642ZM74.1674 49.6822C74.1063 49.5764 74.1307 49.4419 74.225 49.3642L75.1784 50.5223C75.6501 50.1339 75.772 49.4614 75.4664 48.9322L74.1674 49.6822ZM73.091 47.8178L74.1674 49.6822L75.4664 48.9322L74.39 47.0678L73.091 47.8178ZM73.3952 47.9269C73.2807 47.9698 73.1521 47.9236 73.091 47.8178L74.39 47.0678C74.0845 46.5386 73.4412 46.3079 72.8689 46.5222L73.3952 47.9269ZM72.502 48.2615L73.3952 47.9269L72.8689 46.5222L71.9758 46.8568L72.502 48.2615ZM71.4816 48.0704C71.7523 48.3105 72.1429 48.396 72.502 48.2615L71.9758 46.8568C72.1571 46.7889 72.3481 46.834 72.4768 46.9481L71.4816 48.0704ZM69.662 47.0183C70.3401 47.2444 70.9573 47.6055 71.4816 48.0704L72.4768 46.9481C71.804 46.3515 71.0103 45.8867 70.1365 45.5953L69.662 47.0183ZM68.9864 46.2301C69.0494 46.6086 69.319 46.9039 69.662 47.0183L70.1365 45.5953C70.2995 45.6497 70.4341 45.7924 70.466 45.9836L68.9864 46.2301ZM68.8299 45.2911L68.9864 46.2302L70.466 45.9836L70.3094 45.0445L68.8299 45.2911ZM69.0765 45.5C68.9542 45.5 68.8499 45.4116 68.8299 45.2911L70.3094 45.0445C70.209 44.4418 69.6875 44 69.0765 44V45.5ZM70.25 52C70.25 53.2426 69.2426 54.25 68 54.25V55.75C70.0711 55.75 71.75 54.0711 71.75 52H70.25ZM68 49.75C69.2426 49.75 70.25 50.7574 70.25 52H71.75C71.75 49.9289 70.0711 48.25 68 48.25V49.75ZM65.75 52C65.75 50.7574 66.7574 49.75 68 49.75V48.25C65.9289 48.25 64.25 49.9289 64.25 52H65.75ZM68 54.25C66.7574 54.25 65.75 53.2426 65.75 52H64.25C64.25 54.0711 65.9289 55.75 68 55.75V54.25Z" fill="#666666"/>
</g>
<path d="M56 37H80V35H56V37ZM83 40V64H85V40H83ZM80 67H56V69H80V67ZM53 64V40H51V64H53ZM56 67C54.3431 67 53 65.6569 53 64H51C51 66.7614 53.2386 69 56 69V67ZM83 64C83 65.6569 81.6569 67 80 67V69C82.7614 69 85 66.7614 85 64H83ZM80 37C81.6569 37 83 38.3431 83 40H85C85 37.2386 82.7614 35 80 35V37ZM56 35C53.2386 35 51 37.2386 51 40H53C53 38.3431 54.3431 37 56 37V35Z" fill="#BFBFBF"/>
<g filter="url(#filter0_d_5_515)">
<path fill-rule="evenodd" clip-rule="evenodd" d="M76.8205 75.4501C76.9708 75.5855 77.0746 75.6828 77.3952 75.9874C77.7093 76.2857 77.8612 76.4267 78.0001 76.5446C78.058 76.5934 78.1074 76.7238 78.1269 76.9178C78.143 77.0773 78.1374 77.2553 78.1179 77.4268C78.1112 77.4861 78.1047 77.5289 78.1009 77.5493C78.0591 77.778 78.2334 77.9894 78.466 77.9917C78.6753 77.9939 78.8366 77.9965 79.2634 78.0041C79.3702 78.006 79.3702 78.006 79.4774 78.0078C80.6377 78.0278 81.2303 78.0223 81.6556 77.9688C82.1102 77.9117 82.5784 77.3626 82.9831 76.6737C83.3261 77.2833 83.8018 77.8786 84.2821 77.956C84.4347 77.9804 84.6194 77.9879 84.8333 77.983C84.9929 77.9793 85.1617 77.9688 85.332 77.9536C85.4605 77.9421 85.5629 77.9306 85.624 77.9226C85.8499 77.8933 85.9978 77.671 85.9374 77.4514C85.9244 77.4039 85.9034 77.3169 85.8823 77.2073C85.8578 77.0802 85.8401 76.9561 85.832 76.8431C85.8269 76.7714 85.8259 76.7065 85.8292 76.6504C85.8348 76.5526 85.8366 76.4979 85.8393 76.3713C85.8404 76.3242 85.8404 76.3242 85.8418 76.283C85.847 76.1482 85.8652 76.0201 85.9238 75.7408C85.949 75.6196 86.0711 75.3876 86.2634 75.1006C86.3207 75.0151 86.3833 74.9258 86.4504 74.8336C86.5776 74.6588 86.7145 74.4822 86.8514 74.3132C86.9335 74.212 86.9969 74.1363 87.0322 74.0951C87.3285 73.6707 87.6443 72.976 87.7604 72.5698C87.8718 72.1794 87.9609 71.4604 88.0157 70.7537C88.0457 70.3528 88.0568 70.0297 88.0568 69.5228C88.0569 69.4338 88.0569 69.4338 88.057 69.3604C88.0573 69.2402 88.0573 69.1947 88.0569 69.1385C88.0558 68.9849 88.0514 68.8327 88.0365 68.4444C88.0046 67.6308 87.5587 67.1047 86.9017 67.0033C86.3427 66.917 85.6623 67.3812 85.6623 67.3812C85.6623 67.3812 85.5108 66.8584 85.4086 66.697C85.2424 66.4377 84.8144 66.1072 84.4872 66.0428C84.1507 65.9775 83.7518 65.9847 83.3855 66.0495C83.0647 66.1069 82.7451 66.3933 82.5603 66.7023C82.4281 66.9227 82.5524 66.6906 82.4202 66.4626C82.2371 66.1486 81.8108 65.8674 81.4049 65.7844C81.061 65.7132 80.6669 65.7403 80.307 65.8473C79.8439 65.9857 79.7702 66.338 79.7518 66.2371C79.6902 65.8989 79.6845 65.9211 79.6461 65.6798C79.5036 64.7846 79.344 64.1651 79.1021 63.6246C79.116 63.6556 79.0135 63.4224 78.9762 63.342C78.9116 63.2027 78.8471 63.0767 78.7762 62.9555C78.5577 62.5818 78.3073 62.3021 77.9931 62.1431C77.4475 61.8668 76.6297 62.0013 76.242 62.4538C75.8571 62.9034 75.7929 63.6553 75.8898 64.5856C75.9268 64.9468 76.0566 65.6063 76.1743 66.0937C76.2159 66.2629 76.2523 66.4172 76.3192 66.7023C76.3307 66.7507 76.3307 66.7507 76.3423 66.7992C76.394 67.015 76.4394 67.1924 76.4935 67.3872C76.4878 67.3669 76.5905 67.7313 76.6124 67.8119C76.6197 67.8388 76.6197 67.8388 76.6269 67.8659C76.6677 68.0197 76.7076 68.1855 76.77 68.4622C76.8041 68.6143 76.8374 68.7769 76.87 68.9492C76.9588 69.4191 76.9592 69.3213 76.8737 69.221C76.8147 69.1518 76.7591 69.089 76.7054 69.031C76.6057 68.9233 76.5139 68.8342 76.4269 68.7632C75.7925 68.2441 75.4037 68.0148 74.87 67.9644C73.9946 67.8803 73.1639 68.4987 73.0389 69.3332C72.9621 69.8449 72.9869 70.0805 73.2236 70.5327C73.3538 70.777 73.5742 71.0721 73.9853 71.58C74.0105 71.6111 74.0105 71.6111 74.0356 71.6421C74.5402 72.264 74.5952 72.333 74.7152 72.5068C75.0396 72.9775 75.8292 74.329 75.9727 74.5104L76.8205 75.4501Z" fill="black"/>
<path fill-rule="evenodd" clip-rule="evenodd" d="M74.618 71.1695C74.5931 71.1388 74.5931 71.1388 74.5683 71.1082C74.191 70.642 73.9841 70.365 73.8867 70.1823C73.7339 69.8904 73.7256 69.8112 73.7806 69.4444C73.8454 69.012 74.3125 68.6643 74.7989 68.711C75.1355 68.7428 75.4296 68.9163 75.9523 69.344C76.0089 69.3902 76.0772 69.4564 76.1552 69.5407C76.2014 69.5905 76.2504 69.6459 76.3032 69.7079C76.3826 69.8009 76.6503 70.1284 76.6108 70.0808C76.669 70.1507 76.7106 70.2048 76.7581 70.2712C76.8522 70.4056 76.9051 70.4802 76.9768 70.5758C76.9432 70.5309 77.1915 70.8742 77.2441 70.9244C77.5227 71.1903 77.9262 70.9663 77.9009 70.6119C77.8967 70.5528 77.8828 70.4889 77.8537 70.3773C77.7388 69.558 77.6986 69.2951 77.6069 68.8099C77.5728 68.6296 77.5379 68.4589 77.5017 68.2977C77.4374 68.0121 77.3954 67.8376 77.3518 67.6734C77.344 67.6444 77.344 67.6444 77.3362 67.6156C77.3132 67.5308 77.209 67.1609 77.2159 67.1857C77.1646 67.001 77.1214 66.832 77.0716 66.6244C77.0603 66.5771 77.0603 66.5771 77.049 66.5295C76.9825 66.246 76.9451 66.0877 76.903 65.9162C76.793 65.4605 76.6687 64.829 76.6358 64.5085C76.5604 63.7843 76.6125 63.1743 76.8117 62.9416C76.9672 62.7601 77.4081 62.6876 77.6544 62.8123C77.8155 62.8938 77.9764 63.0736 78.1287 63.3341C78.1864 63.4326 78.2405 63.5383 78.2958 63.6577C78.3293 63.7299 78.4288 63.956 78.4176 63.931C78.6279 64.4009 78.7724 64.9619 78.9055 65.7977C78.9449 66.0454 78.9936 66.326 79.0561 66.6692C79.0747 66.771 79.0747 66.771 79.0933 66.8724C79.3947 68.5077 79.3727 68.3838 79.377 68.5142C79.3928 68.99 80.0951 69.0011 80.126 68.5261C80.1358 68.3754 80.1323 68.2409 80.1149 67.8546C80.1125 67.8 80.1125 67.8 80.1101 67.7455C80.0949 67.3896 80.0958 67.1849 80.1168 67.0685C80.1552 66.8562 80.3457 66.6185 80.5212 66.5661C80.7676 66.4928 81.0376 66.4743 81.2539 66.519C81.4609 66.5613 81.7025 66.7207 81.7718 66.8396C81.8554 66.9836 81.927 67.203 81.9819 67.4749C82.0262 67.6944 82.0567 67.9298 82.0781 68.1812C82.0848 68.2593 82.0892 68.3198 82.0959 68.4197C82.0987 68.4615 82.0987 68.4615 82.1016 68.4961C82.1032 68.5134 82.1032 68.5134 82.1071 68.5407C82.1101 68.5599 82.1101 68.5599 82.1244 68.6085C82.1317 68.7463 82.1317 68.7463 82.6852 68.7974C82.8505 68.5976 82.8505 68.5976 82.846 68.5625C82.8731 68.4442 82.8897 68.3123 82.9133 68.0644C82.9284 67.9033 82.936 67.8241 82.9449 67.7419C82.9816 67.4018 83.0284 67.1857 83.0854 67.0907C83.1561 66.9725 83.4051 66.8079 83.5169 66.7879C83.7974 66.7383 84.1055 66.7327 84.3433 66.7789C84.4511 66.8001 84.7139 67.003 84.7761 67.1001C84.9038 67.3017 85.028 67.9515 85.098 68.5962C85.087 68.6385 85.087 68.6385 85.2587 68.8838C85.849 68.8165 85.849 68.8165 85.8325 68.7099C85.848 68.6719 85.8604 68.628 85.878 68.5598C85.9202 68.4001 85.9481 68.3073 85.9898 68.2034C86.0186 68.1315 86.049 68.0701 86.0801 68.0211C86.2008 67.8312 86.5132 67.7022 86.7872 67.7445C87.0815 67.7899 87.269 68.0111 87.2871 68.4735C87.3016 68.8539 87.3059 69.0001 87.3069 69.1437C87.3073 69.1967 87.3073 69.2392 87.307 69.3588C87.3069 69.4327 87.3069 69.4327 87.3068 69.5228C87.3068 70.0117 87.2963 70.3163 87.2678 70.6968C87.2172 71.35 87.1317 72.0396 87.0392 72.3638C86.9447 72.6944 86.6627 73.3147 86.4395 73.6373C86.4236 73.6526 86.3556 73.7338 86.2688 73.841C86.1242 74.0194 85.9795 74.206 85.844 74.3923C85.7714 74.492 85.7032 74.5892 85.6403 74.6832C85.3966 75.0469 85.2403 75.344 85.1896 75.5875C85.1232 75.9039 85.0995 76.0717 85.0923 76.2536C85.0906 76.3052 85.0906 76.3052 85.0895 76.3551C85.0869 76.4732 85.0854 76.5208 85.0804 76.6072C85.0752 76.6978 85.0767 76.7944 85.0839 76.8963C85.0943 77.0423 85.0839 77.2418 85.0839 77.2418C85.0839 77.2418 84.9573 77.2299 84.8161 77.2332C84.6436 77.2372 84.5001 77.2313 84.401 77.2154C84.2579 77.1924 83.8716 76.709 83.6738 76.3324C83.3715 75.756 82.6378 75.7839 82.337 76.293C82.0657 76.7548 81.6773 77.2102 81.562 77.2247C81.1874 77.2718 80.6073 77.2772 79.4903 77.2579C79.3835 77.2561 79.3835 77.2561 79.2768 77.2542C78.8479 77.2465 78.8644 77.3189 78.8731 77.2418C78.8982 77.0215 78.8954 77.0627 78.8731 76.8425C78.8359 76.4731 78.7219 76.172 78.4844 75.9719C78.3615 75.8676 78.2145 75.7312 77.9194 75.4508C77.5821 75.1305 77.4765 75.0315 77.3464 74.9171L76.5451 74.0264C76.4571 73.9139 75.685 72.5924 75.3326 72.081C75.1955 71.8824 75.1442 71.8179 74.618 71.1695ZM84.1267 71.1733V74.6323C84.1267 75.1323 84.8767 75.1323 84.8767 74.6323V71.1733C84.8767 70.6733 84.1267 70.6733 84.1267 71.1733ZM82.0951 71.1727L82.1111 74.6457C82.1134 75.1457 82.8634 75.1422 82.8611 74.6422L82.8451 71.1692C82.8428 70.6692 82.0928 70.6727 82.0951 71.1727ZM80.886 74.6263L80.865 71.2003C80.8619 70.7003 80.1119 70.7049 80.115 71.2049L80.136 74.6309C80.1391 75.1308 80.8891 75.1262 80.886 74.6263Z" fill="white"/>
</g>
<rect width="136" height="32" rx="4" fill="black"/>
<path d="M63.5 32H71.5L67.5 36L63.5 32Z" fill="black"/>
<path d="M19.7295 14.012H20.8695C20.8055 13.556 20.6695 13.156 20.4615 12.812C20.2535 12.46 19.9935 12.168 19.6815 11.936C19.3695 11.704 19.0135 11.528 18.6135 11.408C18.2135 11.288 17.7895 11.228 17.3415 11.228C16.6855 11.228 16.1015 11.348 15.5895 11.588C15.0855 11.82 14.6615 12.14 14.3175 12.548C13.9815 12.956 13.7255 13.436 13.5495 13.988C13.3735 14.532 13.2855 15.116 13.2855 15.74C13.2855 16.364 13.3655 16.948 13.5255 17.492C13.6935 18.036 13.9415 18.508 14.2695 18.908C14.5975 19.308 15.0095 19.624 15.5055 19.856C16.0015 20.08 16.5815 20.192 17.2455 20.192C18.3415 20.192 19.2055 19.892 19.8375 19.292C20.4695 18.692 20.8415 17.852 20.9535 16.772H19.8135C19.7895 17.124 19.7175 17.452 19.5975 17.756C19.4775 18.06 19.3095 18.324 19.0935 18.548C18.8855 18.764 18.6335 18.936 18.3375 19.064C18.0495 19.184 17.7175 19.244 17.3415 19.244C16.8295 19.244 16.3895 19.148 16.0215 18.956C15.6535 18.764 15.3495 18.508 15.1095 18.188C14.8775 17.86 14.7055 17.48 14.5935 17.048C14.4815 16.608 14.4255 16.144 14.4255 15.656C14.4255 15.208 14.4815 14.776 14.5935 14.36C14.7055 13.944 14.8775 13.576 15.1095 13.256C15.3495 12.928 15.6495 12.668 16.0095 12.476C16.3775 12.284 16.8175 12.188 17.3295 12.188C17.9295 12.188 18.4455 12.34 18.8775 12.644C19.3175 12.948 19.6015 13.404 19.7295 14.012ZM22.9417 16.904C22.9417 16.528 22.9897 16.196 23.0857 15.908C23.1897 15.612 23.3297 15.364 23.5057 15.164C23.6817 14.964 23.8857 14.812 24.1177 14.708C24.3577 14.604 24.6097 14.552 24.8737 14.552C25.1377 14.552 25.3857 14.604 25.6177 14.708C25.8577 14.812 26.0657 14.964 26.2417 15.164C26.4177 15.364 26.5537 15.612 26.6497 15.908C26.7537 16.196 26.8057 16.528 26.8057 16.904C26.8057 17.28 26.7537 17.616 26.6497 17.912C26.5537 18.2 26.4177 18.444 26.2417 18.644C26.0657 18.836 25.8577 18.984 25.6177 19.088C25.3857 19.192 25.1377 19.244 24.8737 19.244C24.6097 19.244 24.3577 19.192 24.1177 19.088C23.8857 18.984 23.6817 18.836 23.5057 18.644C23.3297 18.444 23.1897 18.2 23.0857 17.912C22.9897 17.616 22.9417 17.28 22.9417 16.904ZM21.8617 16.904C21.8617 17.36 21.9257 17.784 22.0537 18.176C22.1817 18.568 22.3737 18.912 22.6297 19.208C22.8857 19.496 23.2017 19.724 23.5777 19.892C23.9537 20.052 24.3857 20.132 24.8737 20.132C25.3697 20.132 25.8017 20.052 26.1697 19.892C26.5457 19.724 26.8617 19.496 27.1177 19.208C27.3737 18.912 27.5657 18.568 27.6937 18.176C27.8217 17.784 27.8857 17.36 27.8857 16.904C27.8857 16.448 27.8217 16.024 27.6937 15.632C27.5657 15.232 27.3737 14.888 27.1177 14.6C26.8617 14.304 26.5457 14.072 26.1697 13.904C25.8017 13.736 25.3697 13.652 24.8737 13.652C24.3857 13.652 23.9537 13.736 23.5777 13.904C23.2017 14.072 22.8857 14.304 22.6297 14.6C22.3737 14.888 22.1817 15.232 22.0537 15.632C21.9257 16.024 21.8617 16.448 21.8617 16.904ZM29.0883 13.796V20H30.1083V16.496C30.1083 16.216 30.1443 15.96 30.2163 15.728C30.2963 15.488 30.4123 15.28 30.5643 15.104C30.7163 14.928 30.9043 14.792 31.1283 14.696C31.3603 14.6 31.6323 14.552 31.9443 14.552C32.3363 14.552 32.6443 14.664 32.8683 14.888C33.0923 15.112 33.2043 15.416 33.2043 15.8V20H34.2243V15.92C34.2243 15.584 34.1883 15.28 34.1163 15.008C34.0523 14.728 33.9363 14.488 33.7683 14.288C33.6003 14.088 33.3803 13.932 33.1083 13.82C32.8363 13.708 32.4963 13.652 32.0883 13.652C31.1683 13.652 30.4963 14.028 30.0723 14.78H30.0483V13.796H29.0883ZM39.3683 20H40.3883V13.796H39.3683V20ZM39.3683 12.68H40.3883V11.432H39.3683V12.68ZM36.1763 14.696V20H37.1963V14.696H38.3963V13.796H37.1963V12.932C37.1963 12.66 37.2643 12.476 37.4003 12.38C37.5363 12.284 37.7283 12.236 37.9763 12.236C38.0643 12.236 38.1603 12.244 38.2643 12.26C38.3683 12.268 38.4643 12.288 38.5523 12.32V11.432C38.4563 11.4 38.3443 11.376 38.2163 11.36C38.0963 11.344 37.9883 11.336 37.8923 11.336C37.3323 11.336 36.9043 11.468 36.6083 11.732C36.3203 11.988 36.1763 12.368 36.1763 12.872V13.796H35.1323V14.696H36.1763ZM47.3192 19.472V13.796H46.3592V14.684H46.3472C46.1632 14.34 45.9072 14.084 45.5792 13.916C45.2512 13.74 44.8912 13.652 44.4992 13.652C43.9632 13.652 43.5112 13.756 43.1432 13.964C42.7752 14.164 42.4792 14.424 42.2552 14.744C42.0312 15.056 41.8712 15.408 41.7752 15.8C41.6792 16.184 41.6312 16.56 41.6312 16.928C41.6312 17.352 41.6872 17.756 41.7992 18.14C41.9192 18.516 42.0952 18.848 42.3272 19.136C42.5592 19.416 42.8472 19.64 43.1912 19.808C43.5352 19.976 43.9392 20.06 44.4032 20.06C44.8032 20.06 45.1792 19.972 45.5312 19.796C45.8912 19.612 46.1592 19.328 46.3352 18.944H46.3592V19.352C46.3592 19.696 46.3232 20.012 46.2512 20.3C46.1872 20.588 46.0792 20.832 45.9272 21.032C45.7752 21.24 45.5832 21.4 45.3512 21.512C45.1192 21.632 44.8352 21.692 44.4992 21.692C44.3312 21.692 44.1552 21.672 43.9712 21.632C43.7872 21.6 43.6152 21.544 43.4552 21.464C43.3032 21.384 43.1712 21.28 43.0592 21.152C42.9552 21.024 42.8992 20.868 42.8912 20.684H41.8712C41.8872 21.02 41.9752 21.304 42.1352 21.536C42.2952 21.768 42.4952 21.956 42.7352 22.1C42.9832 22.244 43.2552 22.348 43.5512 22.412C43.8552 22.476 44.1512 22.508 44.4392 22.508C45.4312 22.508 46.1592 22.256 46.6232 21.752C47.0872 21.248 47.3192 20.488 47.3192 19.472ZM44.4632 19.172C44.1272 19.172 43.8472 19.104 43.6232 18.968C43.3992 18.824 43.2192 18.64 43.0832 18.416C42.9472 18.184 42.8512 17.928 42.7952 17.648C42.7392 17.368 42.7112 17.088 42.7112 16.808C42.7112 16.512 42.7432 16.228 42.8072 15.956C42.8792 15.684 42.9872 15.444 43.1312 15.236C43.2832 15.028 43.4752 14.864 43.7072 14.744C43.9392 14.616 44.2192 14.552 44.5472 14.552C44.8672 14.552 45.1392 14.616 45.3632 14.744C45.5872 14.872 45.7672 15.044 45.9032 15.26C46.0472 15.468 46.1512 15.704 46.2152 15.968C46.2792 16.232 46.3112 16.5 46.3112 16.772C46.3112 17.06 46.2752 17.348 46.2032 17.636C46.1392 17.924 46.0352 18.184 45.8912 18.416C45.7472 18.64 45.5552 18.824 45.3152 18.968C45.0832 19.104 44.7992 19.172 44.4632 19.172ZM53.9938 20V13.796H52.9738V17.3C52.9738 17.58 52.9338 17.84 52.8538 18.08C52.7818 18.312 52.6698 18.516 52.5178 18.692C52.3658 18.868 52.1738 19.004 51.9418 19.1C51.7178 19.196 51.4498 19.244 51.1378 19.244C50.7458 19.244 50.4378 19.132 50.2138 18.908C49.9898 18.684 49.8778 18.38 49.8778 17.996V13.796H48.8578V17.876C48.8578 18.212 48.8898 18.52 48.9538 18.8C49.0258 19.072 49.1458 19.308 49.3138 19.508C49.4818 19.708 49.7018 19.864 49.9738 19.976C50.2458 20.08 50.5858 20.132 50.9938 20.132C51.4498 20.132 51.8458 20.044 52.1818 19.868C52.5178 19.684 52.7938 19.4 53.0098 19.016H53.0338V20H53.9938ZM55.4898 13.796V20H56.5098V17.24C56.5098 16.84 56.5498 16.488 56.6298 16.184C56.7098 15.872 56.8378 15.608 57.0138 15.392C57.1898 15.176 57.4218 15.012 57.7098 14.9C57.9978 14.788 58.3458 14.732 58.7538 14.732V13.652C58.2018 13.636 57.7458 13.748 57.3858 13.988C57.0258 14.228 56.7218 14.6 56.4738 15.104H56.4498V13.796H55.4898ZM63.619 16.304H60.055C60.071 16.064 60.123 15.84 60.211 15.632C60.299 15.416 60.419 15.228 60.571 15.068C60.723 14.908 60.903 14.784 61.111 14.696C61.327 14.6 61.567 14.552 61.831 14.552C62.087 14.552 62.319 14.6 62.527 14.696C62.743 14.784 62.927 14.908 63.079 15.068C63.239 15.22 63.363 15.404 63.451 15.62C63.547 15.836 63.603 16.064 63.619 16.304ZM64.603 18.032H63.595C63.507 18.44 63.323 18.744 63.043 18.944C62.771 19.144 62.419 19.244 61.987 19.244C61.651 19.244 61.359 19.188 61.111 19.076C60.863 18.964 60.659 18.816 60.499 18.632C60.339 18.44 60.223 18.224 60.151 17.984C60.079 17.736 60.047 17.476 60.055 17.204H64.699C64.715 16.828 64.679 16.432 64.591 16.016C64.511 15.6 64.359 15.216 64.135 14.864C63.919 14.512 63.627 14.224 63.259 14C62.899 13.768 62.443 13.652 61.891 13.652C61.467 13.652 61.075 13.732 60.715 13.892C60.363 14.052 60.055 14.276 59.791 14.564C59.535 14.852 59.335 15.192 59.191 15.584C59.047 15.976 58.975 16.408 58.975 16.88C58.991 17.352 59.059 17.788 59.179 18.188C59.307 18.588 59.495 18.932 59.743 19.22C59.991 19.508 60.295 19.732 60.655 19.892C61.023 20.052 61.455 20.132 61.951 20.132C62.655 20.132 63.239 19.956 63.703 19.604C64.167 19.252 64.467 18.728 64.603 18.032ZM70.1761 12.68V11.432H69.1561V12.68H70.1761ZM69.1561 13.796V20H70.1761V13.796H69.1561ZM71.7563 13.796V20H72.7763V16.496C72.7763 16.216 72.8123 15.96 72.8843 15.728C72.9643 15.488 73.0803 15.28 73.2323 15.104C73.3843 14.928 73.5723 14.792 73.7963 14.696C74.0283 14.6 74.3003 14.552 74.6123 14.552C75.0043 14.552 75.3123 14.664 75.5363 14.888C75.7603 15.112 75.8723 15.416 75.8723 15.8V20H76.8923V15.92C76.8923 15.584 76.8563 15.28 76.7843 15.008C76.7203 14.728 76.6043 14.488 76.4363 14.288C76.2683 14.088 76.0483 13.932 75.7763 13.82C75.5043 13.708 75.1643 13.652 74.7563 13.652C73.8363 13.652 73.1643 14.028 72.7403 14.78H72.7163V13.796H71.7563ZM82.3881 18.044H81.3681C81.3841 18.428 81.4641 18.756 81.6081 19.028C81.7521 19.292 81.9441 19.508 82.1841 19.676C82.4241 19.836 82.7001 19.952 83.0121 20.024C83.3241 20.096 83.6521 20.132 83.9961 20.132C84.3081 20.132 84.6201 20.1 84.9321 20.036C85.2521 19.98 85.5361 19.876 85.7841 19.724C86.0401 19.572 86.2441 19.372 86.3961 19.124C86.5561 18.876 86.6361 18.564 86.6361 18.188C86.6361 17.892 86.5761 17.644 86.4561 17.444C86.3441 17.244 86.1921 17.08 86.0001 16.952C85.8161 16.816 85.6001 16.708 85.3521 16.628C85.1121 16.548 84.8641 16.48 84.6081 16.424C84.3681 16.368 84.1281 16.316 83.8881 16.268C83.6481 16.212 83.4321 16.148 83.2401 16.076C83.0481 15.996 82.8881 15.9 82.7601 15.788C82.6401 15.668 82.5801 15.52 82.5801 15.344C82.5801 15.184 82.6201 15.056 82.7001 14.96C82.7801 14.856 82.8841 14.776 83.0121 14.72C83.1401 14.656 83.2801 14.612 83.4321 14.588C83.5921 14.564 83.7481 14.552 83.9001 14.552C84.0681 14.552 84.2321 14.572 84.3921 14.612C84.5601 14.644 84.7121 14.7 84.8481 14.78C84.9841 14.86 85.0961 14.968 85.1841 15.104C85.2721 15.232 85.3241 15.396 85.3401 15.596H86.3601C86.3361 15.22 86.2561 14.908 86.1201 14.66C85.9841 14.404 85.8001 14.204 85.5681 14.06C85.3441 13.908 85.0841 13.804 84.7881 13.748C84.4921 13.684 84.1681 13.652 83.8161 13.652C83.5441 13.652 83.2681 13.688 82.9881 13.76C82.7161 13.824 82.4681 13.928 82.2441 14.072C82.0281 14.208 81.8481 14.388 81.7041 14.612C81.5681 14.836 81.5001 15.104 81.5001 15.416C81.5001 15.816 81.6001 16.128 81.8001 16.352C82.0001 16.576 82.2481 16.752 82.5441 16.88C82.8481 17 83.1761 17.096 83.5281 17.168C83.8801 17.232 84.2041 17.308 84.5001 17.396C84.8041 17.476 85.0561 17.584 85.2561 17.72C85.4561 17.856 85.5561 18.056 85.5561 18.32C85.5561 18.512 85.5081 18.672 85.4121 18.8C85.3161 18.92 85.1921 19.012 85.0401 19.076C84.8961 19.14 84.7361 19.184 84.5601 19.208C84.3841 19.232 84.2161 19.244 84.0561 19.244C83.8481 19.244 83.6441 19.224 83.4441 19.184C83.2521 19.144 83.0761 19.08 82.9161 18.992C82.7641 18.896 82.6401 18.772 82.5441 18.62C82.4481 18.46 82.3961 18.268 82.3881 18.044ZM92.0721 16.304H88.5081C88.5241 16.064 88.5761 15.84 88.6641 15.632C88.7521 15.416 88.8721 15.228 89.0241 15.068C89.1761 14.908 89.3561 14.784 89.5641 14.696C89.7801 14.6 90.0201 14.552 90.2841 14.552C90.5401 14.552 90.7721 14.6 90.9801 14.696C91.1961 14.784 91.3801 14.908 91.5321 15.068C91.6921 15.22 91.8161 15.404 91.9041 15.62C92.0001 15.836 92.0561 16.064 92.0721 16.304ZM93.0561 18.032H92.0481C91.9601 18.44 91.7761 18.744 91.4961 18.944C91.2241 19.144 90.8721 19.244 90.4401 19.244C90.1041 19.244 89.8121 19.188 89.5641 19.076C89.3161 18.964 89.1121 18.816 88.9521 18.632C88.7921 18.44 88.6761 18.224 88.6041 17.984C88.5321 17.736 88.5001 17.476 88.5081 17.204H93.1521C93.1681 16.828 93.1321 16.432 93.0441 16.016C92.9641 15.6 92.8121 15.216 92.5881 14.864C92.3721 14.512 92.0801 14.224 91.7121 14C91.3521 13.768 90.8961 13.652 90.3441 13.652C89.9201 13.652 89.5281 13.732 89.1681 13.892C88.8161 14.052 88.5081 14.276 88.2441 14.564C87.9881 14.852 87.7881 15.192 87.6441 15.584C87.5001 15.976 87.4281 16.408 87.4281 16.88C87.4441 17.352 87.5121 17.788 87.6321 18.188C87.7601 18.588 87.9481 18.932 88.1961 19.22C88.4441 19.508 88.7481 19.732 89.1081 19.892C89.4761 20.052 89.9081 20.132 90.4041 20.132C91.1081 20.132 91.6921 19.956 92.1561 19.604C92.6201 19.252 92.9201 18.728 93.0561 18.032ZM95.6254 13.796V11.936H94.6054V13.796H93.5494V14.696H94.6054V18.644C94.6054 18.932 94.6334 19.164 94.6894 19.34C94.7454 19.516 94.8294 19.652 94.9414 19.748C95.0614 19.844 95.2134 19.912 95.3974 19.952C95.5894 19.984 95.8174 20 96.0814 20H96.8614V19.1H96.3934C96.2334 19.1 96.1014 19.096 95.9974 19.088C95.9014 19.072 95.8254 19.044 95.7694 19.004C95.7134 18.964 95.6734 18.908 95.6494 18.836C95.6334 18.764 95.6254 18.668 95.6254 18.548V14.696H96.8614V13.796H95.6254ZM99.4106 13.796V11.936H98.3906V13.796H97.3346V14.696H98.3906V18.644C98.3906 18.932 98.4186 19.164 98.4746 19.34C98.5306 19.516 98.6146 19.652 98.7266 19.748C98.8466 19.844 98.9986 19.912 99.1826 19.952C99.3746 19.984 99.6026 20 99.8666 20H100.647V19.1H100.179C100.019 19.1 99.8866 19.096 99.7826 19.088C99.6866 19.072 99.6106 19.044 99.5546 19.004C99.4986 18.964 99.4586 18.908 99.4346 18.836C99.4186 18.764 99.4106 18.668 99.4106 18.548V14.696H100.647V13.796H99.4106ZM102.86 12.68V11.432H101.84V12.68H102.86ZM101.84 13.796V20H102.86V13.796H101.84ZM104.44 13.796V20H105.46V16.496C105.46 16.216 105.496 15.96 105.568 15.728C105.648 15.488 105.764 15.28 105.916 15.104C106.068 14.928 106.256 14.792 106.48 14.696C106.712 14.6 106.984 14.552 107.296 14.552C107.688 14.552 107.996 14.664 108.22 14.888C108.444 15.112 108.556 15.416 108.556 15.8V20H109.576V15.92C109.576 15.584 109.54 15.28 109.468 15.008C109.404 14.728 109.288 14.488 109.12 14.288C108.952 14.088 108.732 13.932 108.46 13.82C108.188 13.708 107.848 13.652 107.44 13.652C106.52 13.652 105.848 14.028 105.424 14.78H105.4V13.796H104.44ZM116.46 19.472V13.796H115.5V14.684H115.488C115.304 14.34 115.048 14.084 114.72 13.916C114.392 13.74 114.032 13.652 113.64 13.652C113.104 13.652 112.652 13.756 112.284 13.964C111.916 14.164 111.62 14.424 111.396 14.744C111.172 15.056 111.012 15.408 110.916 15.8C110.82 16.184 110.772 16.56 110.772 16.928C110.772 17.352 110.828 17.756 110.94 18.14C111.06 18.516 111.236 18.848 111.468 19.136C111.7 19.416 111.988 19.64 112.332 19.808C112.676 19.976 113.08 20.06 113.544 20.06C113.944 20.06 114.32 19.972 114.672 19.796C115.032 19.612 115.3 19.328 115.476 18.944H115.5V19.352C115.5 19.696 115.464 20.012 115.392 20.3C115.328 20.588 115.22 20.832 115.068 21.032C114.916 21.24 114.724 21.4 114.492 21.512C114.26 21.632 113.976 21.692 113.64 21.692C113.472 21.692 113.296 21.672 113.112 21.632C112.928 21.6 112.756 21.544 112.596 21.464C112.444 21.384 112.312 21.28 112.2 21.152C112.096 21.024 112.04 20.868 112.032 20.684H111.012C111.028 21.02 111.116 21.304 111.276 21.536C111.436 21.768 111.636 21.956 111.876 22.1C112.124 22.244 112.396 22.348 112.692 22.412C112.996 22.476 113.292 22.508 113.58 22.508C114.572 22.508 115.3 22.256 115.764 21.752C116.228 21.248 116.46 20.488 116.46 19.472ZM113.604 19.172C113.268 19.172 112.988 19.104 112.764 18.968C112.54 18.824 112.36 18.64 112.224 18.416C112.088 18.184 111.992 17.928 111.936 17.648C111.88 17.368 111.852 17.088 111.852 16.808C111.852 16.512 111.884 16.228 111.948 15.956C112.02 15.684 112.128 15.444 112.272 15.236C112.424 15.028 112.616 14.864 112.848 14.744C113.08 14.616 113.36 14.552 113.688 14.552C114.008 14.552 114.28 14.616 114.504 14.744C114.728 14.872 114.908 15.044 115.044 15.26C115.188 15.468 115.292 15.704 115.356 15.968C115.42 16.232 115.452 16.5 115.452 16.772C115.452 17.06 115.416 17.348 115.344 17.636C115.28 17.924 115.176 18.184 115.032 18.416C114.888 18.64 114.696 18.824 114.456 18.968C114.224 19.104 113.94 19.172 113.604 19.172ZM118.622 18.044H117.602C117.618 18.428 117.698 18.756 117.842 19.028C117.986 19.292 118.178 19.508 118.418 19.676C118.658 19.836 118.934 19.952 119.246 20.024C119.558 20.096 119.886 20.132 120.23 20.132C120.542 20.132 120.854 20.1 121.166 20.036C121.486 19.98 121.77 19.876 122.018 19.724C122.274 19.572 122.478 19.372 122.63 19.124C122.79 18.876 122.87 18.564 122.87 18.188C122.87 17.892 122.81 17.644 122.69 17.444C122.578 17.244 122.426 17.08 122.234 16.952C122.05 16.816 121.834 16.708 121.586 16.628C121.346 16.548 121.098 16.48 120.842 16.424C120.602 16.368 120.362 16.316 120.122 16.268C119.882 16.212 119.666 16.148 119.474 16.076C119.282 15.996 119.122 15.9 118.994 15.788C118.874 15.668 118.814 15.52 118.814 15.344C118.814 15.184 118.854 15.056 118.934 14.96C119.014 14.856 119.118 14.776 119.246 14.72C119.374 14.656 119.514 14.612 119.666 14.588C119.826 14.564 119.982 14.552 120.134 14.552C120.302 14.552 120.466 14.572 120.626 14.612C120.794 14.644 120.946 14.7 121.082 14.78C121.218 14.86 121.33 14.968 121.418 15.104C121.506 15.232 121.558 15.396 121.574 15.596H122.594C122.57 15.22 122.49 14.908 122.354 14.66C122.218 14.404 122.034 14.204 121.802 14.06C121.578 13.908 121.318 13.804 121.022 13.748C120.726 13.684 120.402 13.652 120.05 13.652C119.778 13.652 119.502 13.688 119.222 13.76C118.95 13.824 118.702 13.928 118.478 14.072C118.262 14.208 118.082 14.388 117.938 14.612C117.802 14.836 117.734 15.104 117.734 15.416C117.734 15.816 117.834 16.128 118.034 16.352C118.234 16.576 118.482 16.752 118.778 16.88C119.082 17 119.41 17.096 119.762 17.168C120.114 17.232 120.438 17.308 120.734 17.396C121.038 17.476 121.29 17.584 121.49 17.72C121.69 17.856 121.79 18.056 121.79 18.32C121.79 18.512 121.742 18.672 121.646 18.8C121.55 18.92 121.426 19.012 121.274 19.076C121.13 19.14 120.97 19.184 120.794 19.208C120.618 19.232 120.45 19.244 120.29 19.244C120.082 19.244 119.878 19.224 119.678 19.184C119.486 19.144 119.31 19.08 119.15 18.992C118.998 18.896 118.874 18.772 118.778 18.62C118.682 18.46 118.63 18.268 118.622 18.044Z" fill="white"/>
<defs>
<filter id="filter0_d_5_515" x="71" y="61" width="19.0572" height="20.0185" filterUnits="userSpaceOnUse" color-interpolation-filters="sRGB">
<feFlood flood-opacity="0" result="BackgroundImageFix"/>
<feColorMatrix in="SourceAlpha" type="matrix" values="0 0 0 0 0 0 0 0 0 0 0 0 0 0 0 0 0 0 127 0" result="hardAlpha"/>
<feOffset dy="1"/>
<feGaussianBlur stdDeviation="1"/>
<feColorMatrix type="matrix" values="0 0 0 0 0 0 0 0 0 0 0 0 0 0 0 0 0 0 0.298656 0"/>
<feBlend mode="normal" in2="BackgroundImageFix" result="effect1_dropShadow_5_515"/>
<feBlend mode="normal" in="SourceGraphic" in2="effect1_dropShadow_5_515" result="shape"/>
</filter>
<clipPath id="clip0_5_515">
<rect width="16" height="16" fill="white" transform="translate(60 44)"/>
</clipPath>
</defs>
</svg>
