<svg width="136" height="81" viewBox="0 0 136 81" fill="none" xmlns="http://www.w3.org/2000/svg">
<g id="settings-hover">
<g id="_Base Button">
<rect x="52" y="37" width="32" height="32" rx="5" fill="#F0F0F0"/>
<path id="icon" d="M66.4304 46.1678L65.6906 46.0445L65.6906 46.0445L66.4304 46.1678ZM66.2739 47.1068L67.0137 47.2301L67.0137 47.2301L66.2739 47.1068ZM66.1008 47.3068L66.338 48.0183L66.338 48.0183L66.1008 47.3068ZM64.0208 48.5093L63.5232 47.9481L63.5232 47.9481L64.0208 48.5093ZM63.7611 48.5592L64.0243 47.8568L64.0243 47.8568L63.7611 48.5592ZM62.868 48.2246L63.1311 47.5222L63.1311 47.5222L62.868 48.2246ZM62.2595 48.4428L61.61 48.0678L61.61 48.0678L62.2595 48.4428ZM61.1831 50.3072L60.5336 49.9322L60.5336 49.9322L61.1831 50.3072ZM61.2983 50.9432L61.775 50.3642L61.775 50.3642L61.2983 50.9432ZM62.0337 51.5486L61.557 52.1277L61.557 52.1277L62.0337 51.5486ZM62.1204 51.7982L62.8554 51.9476L62.8554 51.9476L62.1204 51.7982ZM62.1204 54.2018L62.8554 54.0524L62.8554 54.0524L62.1204 54.2018ZM62.0337 54.4514L62.5104 55.0304L62.5104 55.0304L62.0337 54.4514ZM61.2983 55.0568L60.8217 54.4777L60.8217 54.4777L61.2983 55.0568ZM61.1831 55.6928L60.5336 56.0678L60.5336 56.0678L61.1831 55.6928ZM62.2595 57.5572L62.9091 57.1822L62.9091 57.1822L62.2595 57.5572ZM62.868 57.7754L63.1311 58.4778L63.1311 58.4778L62.868 57.7754ZM63.7611 57.4408L63.498 56.7385L63.498 56.7385L63.7611 57.4408ZM64.0208 57.4907L63.5232 58.0519L63.5232 58.0519L64.0208 57.4907ZM66.1008 58.6932L66.338 57.9817L66.338 57.9817L66.1008 58.6932ZM66.2739 58.8932L67.0137 58.7699L67.0137 58.7699L66.2739 58.8932ZM66.4304 59.8322L67.1702 59.7089L67.1702 59.7089L66.4304 59.8322ZM69.5697 59.8322L68.8299 59.7089L68.8299 59.7089L69.5697 59.8322ZM69.7262 58.8931L70.466 59.0164L70.466 59.0164L69.7262 58.8931ZM69.8993 58.6932L70.1365 59.4047L70.1365 59.4047L69.8993 58.6932ZM71.9792 57.4907L71.4816 56.9296L71.4816 56.9296L71.9792 57.4907ZM72.2389 57.4408L72.502 56.7385L72.502 56.7385L72.2389 57.4408ZM73.1321 57.7754L72.8689 58.4778L72.8689 58.4778L73.1321 57.7754ZM73.7405 57.5572L73.091 57.1822L73.091 57.1822L73.7405 57.5572ZM74.8169 55.6928L75.4664 56.0678L75.4664 56.0678L74.8169 55.6928ZM74.7017 55.0568L74.225 55.6358L74.225 55.6358L74.7017 55.0568ZM73.9663 54.4514L73.4896 55.0304L73.4896 55.0304L73.9663 54.4514ZM73.8796 54.2018L74.6146 54.3512L74.6146 54.3512L73.8796 54.2018ZM73.8796 51.7982L74.6146 51.6488L74.6146 51.6488L73.8796 51.7982ZM73.9663 51.5486L73.4896 50.9696L73.4896 50.9696L73.9663 51.5486ZM74.7017 50.9432L74.225 50.3642L74.225 50.3642L74.7017 50.9432ZM74.8169 50.3072L75.4664 49.9322L75.4664 49.9322L74.8169 50.3072ZM73.7405 48.4428L73.091 48.8178L73.091 48.8178L73.7405 48.4428ZM73.1321 48.2246L72.8689 47.5222L72.8689 47.5222L73.1321 48.2246ZM72.2389 48.5592L71.9758 47.8568L71.9758 47.8568L72.2389 48.5592ZM71.9792 48.5093L71.4816 49.0704L71.4816 49.0704L71.9792 48.5093ZM69.8993 47.3068L69.662 48.0183L69.662 48.0183L69.8993 47.3068ZM69.7262 47.1069L70.466 46.9836L70.466 46.9836L69.7262 47.1069ZM69.5697 46.1678L68.8299 46.2911L68.8299 46.2911L69.5697 46.1678ZM66.9236 46.5H69.0765V45H66.9236V46.5ZM67.1702 46.2911C67.1501 46.4116 67.0458 46.5 66.9236 46.5V45C66.3125 45 65.791 45.4418 65.6906 46.0445L67.1702 46.2911ZM67.0137 47.2301L67.1702 46.2911L65.6906 46.0445L65.5341 46.9835L67.0137 47.2301ZM66.338 48.0183C66.6811 47.9039 66.9506 47.6086 67.0137 47.2301L65.5341 46.9835C65.5659 46.7924 65.7006 46.6497 65.8635 46.5953L66.338 48.0183ZM64.5184 49.0704C65.0427 48.6055 65.6599 48.2444 66.338 48.0183L65.8635 46.5953C64.9897 46.8867 64.1961 47.3515 63.5232 47.9481L64.5184 49.0704ZM63.498 49.2615C63.8571 49.396 64.2477 49.3105 64.5184 49.0704L63.5232 47.9481C63.6519 47.834 63.8429 47.7889 64.0243 47.8568L63.498 49.2615ZM62.6048 48.9269L63.498 49.2615L64.0243 47.8568L63.1311 47.5222L62.6048 48.9269ZM62.9091 48.8178C62.848 48.9236 62.7193 48.9698 62.6048 48.9269L63.1311 47.5222C62.5589 47.3079 61.9155 47.5386 61.61 48.0678L62.9091 48.8178ZM61.8326 50.6822L62.9091 48.8178L61.61 48.0678L60.5336 49.9322L61.8326 50.6822ZM61.775 50.3642C61.8694 50.4419 61.8937 50.5764 61.8326 50.6822L60.5336 49.9322C60.2281 50.4614 60.3499 51.1339 60.8217 51.5223L61.775 50.3642ZM62.5104 50.9696L61.775 50.3642L60.8217 51.5223L61.557 52.1277L62.5104 50.9696ZM62.8554 51.9476C62.9273 51.5936 62.8062 51.2131 62.5104 50.9696L61.557 52.1277C61.4077 52.0047 61.3512 51.817 61.3854 51.6488L62.8554 51.9476ZM62.75 53C62.75 52.6389 62.7864 52.287 62.8554 51.9476L61.3854 51.6488C61.2965 52.086 61.25 52.5379 61.25 53H62.75ZM62.8554 54.0524C62.7864 53.713 62.75 53.3611 62.75 53H61.25C61.25 53.4621 61.2965 53.914 61.3854 54.3512L62.8554 54.0524ZM62.5104 55.0304C62.8062 54.7869 62.9273 54.4064 62.8554 54.0524L61.3854 54.3512C61.3512 54.183 61.4077 53.9953 61.557 53.8723L62.5104 55.0304ZM61.775 55.6358L62.5104 55.0304L61.557 53.8723L60.8217 54.4777L61.775 55.6358ZM61.8326 55.3178C61.8937 55.4236 61.8694 55.5581 61.775 55.6358L60.8217 54.4777C60.3499 54.8661 60.2281 55.5386 60.5336 56.0678L61.8326 55.3178ZM62.9091 57.1822L61.8326 55.3178L60.5336 56.0678L61.61 57.9322L62.9091 57.1822ZM62.6049 57.0731C62.7193 57.0302 62.848 57.0764 62.9091 57.1822L61.61 57.9322C61.9156 58.4614 62.5589 58.6921 63.1311 58.4778L62.6049 57.0731ZM63.498 56.7385L62.6049 57.0731L63.1311 58.4778L64.0243 58.1432L63.498 56.7385ZM64.5184 56.9296C64.2477 56.6895 63.8571 56.604 63.498 56.7385L64.0243 58.1432C63.8429 58.2111 63.6519 58.166 63.5232 58.0519L64.5184 56.9296ZM66.338 57.9817C65.6599 57.7556 65.0427 57.3945 64.5184 56.9296L63.5232 58.0519C64.1961 58.6485 64.9897 59.1133 65.8635 59.4047L66.338 57.9817ZM67.0137 58.7699C66.9506 58.3914 66.6811 58.0961 66.338 57.9817L65.8635 59.4047C65.7006 59.3503 65.5659 59.2076 65.5341 59.0165L67.0137 58.7699ZM67.1702 59.7089L67.0137 58.7699L65.5341 59.0165L65.6906 59.9555L67.1702 59.7089ZM66.9236 59.5C67.0458 59.5 67.1501 59.5884 67.1702 59.7089L65.6906 59.9555C65.791 60.5582 66.3125 61 66.9236 61V59.5ZM69.0765 59.5H66.9236V61H69.0765V59.5ZM68.8299 59.7089C68.8499 59.5884 68.9542 59.5 69.0765 59.5V61C69.6875 61 70.209 60.5582 70.3094 59.9555L68.8299 59.7089ZM68.9864 58.7699L68.8299 59.7089L70.3094 59.9555L70.466 59.0164L68.9864 58.7699ZM69.662 57.9817C69.319 58.0961 69.0494 58.3914 68.9864 58.7699L70.466 59.0164C70.4341 59.2076 70.2995 59.3503 70.1365 59.4047L69.662 57.9817ZM71.4816 56.9296C70.9573 57.3945 70.3401 57.7556 69.662 57.9817L70.1365 59.4047C71.0103 59.1133 71.804 58.6485 72.4768 58.0519L71.4816 56.9296ZM72.502 56.7385C72.1429 56.604 71.7523 56.6895 71.4816 56.9296L72.4768 58.0519C72.3481 58.166 72.1571 58.2111 71.9758 58.1432L72.502 56.7385ZM73.3952 57.0731L72.502 56.7385L71.9758 58.1432L72.8689 58.4778L73.3952 57.0731ZM73.091 57.1822C73.1521 57.0764 73.2807 57.0302 73.3952 57.0731L72.8689 58.4778C73.4412 58.6921 74.0845 58.4614 74.39 57.9322L73.091 57.1822ZM74.1674 55.3178L73.091 57.1822L74.39 57.9322L75.4664 56.0678L74.1674 55.3178ZM74.225 55.6358C74.1307 55.5581 74.1063 55.4236 74.1674 55.3178L75.4664 56.0678C75.772 55.5386 75.6501 54.8661 75.1784 54.4777L74.225 55.6358ZM73.4896 55.0304L74.225 55.6358L75.1784 54.4777L74.443 53.8723L73.4896 55.0304ZM73.1447 54.0524C73.0727 54.4064 73.1939 54.7869 73.4896 55.0304L74.443 53.8723C74.5923 53.9953 74.6488 54.183 74.6146 54.3512L73.1447 54.0524ZM73.25 53C73.25 53.3611 73.2137 53.713 73.1447 54.0524L74.6146 54.3512C74.7035 53.914 74.75 53.4621 74.75 53H73.25ZM73.1447 51.9476C73.2137 52.287 73.25 52.6389 73.25 53H74.75C74.75 52.5379 74.7035 52.086 74.6146 51.6488L73.1447 51.9476ZM73.4896 50.9696C73.1939 51.2131 73.0727 51.5936 73.1447 51.9476L74.6146 51.6488C74.6488 51.817 74.5923 52.0047 74.443 52.1277L73.4896 50.9696ZM74.225 50.3642L73.4896 50.9696L74.443 52.1277L75.1784 51.5223L74.225 50.3642ZM74.1674 50.6822C74.1063 50.5764 74.1307 50.4419 74.225 50.3642L75.1784 51.5223C75.6501 51.1339 75.772 50.4614 75.4664 49.9322L74.1674 50.6822ZM73.091 48.8178L74.1674 50.6822L75.4664 49.9322L74.39 48.0678L73.091 48.8178ZM73.3952 48.9269C73.2807 48.9698 73.1521 48.9236 73.091 48.8178L74.39 48.0678C74.0845 47.5386 73.4412 47.3079 72.8689 47.5222L73.3952 48.9269ZM72.502 49.2615L73.3952 48.9269L72.8689 47.5222L71.9758 47.8568L72.502 49.2615ZM71.4816 49.0704C71.7523 49.3105 72.1429 49.396 72.502 49.2615L71.9758 47.8568C72.1571 47.7889 72.3481 47.834 72.4768 47.9481L71.4816 49.0704ZM69.662 48.0183C70.3401 48.2444 70.9573 48.6055 71.4816 49.0704L72.4768 47.9481C71.804 47.3515 71.0103 46.8867 70.1365 46.5953L69.662 48.0183ZM68.9864 47.2301C69.0494 47.6086 69.319 47.9039 69.662 48.0183L70.1365 46.5953C70.2995 46.6497 70.4341 46.7924 70.466 46.9836L68.9864 47.2301ZM68.8299 46.2911L68.9864 47.2302L70.466 46.9836L70.3094 46.0445L68.8299 46.2911ZM69.0765 46.5C68.9542 46.5 68.8499 46.4116 68.8299 46.2911L70.3094 46.0445C70.209 45.4418 69.6875 45 69.0765 45V46.5ZM70.25 53C70.25 54.2426 69.2426 55.25 68 55.25V56.75C70.0711 56.75 71.75 55.0711 71.75 53H70.25ZM68 50.75C69.2426 50.75 70.25 51.7574 70.25 53H71.75C71.75 50.9289 70.0711 49.25 68 49.25V50.75ZM65.75 53C65.75 51.7574 66.7574 50.75 68 50.75V49.25C65.9289 49.25 64.25 50.9289 64.25 53H65.75ZM68 55.25C66.7574 55.25 65.75 54.2426 65.75 53H64.25C64.25 55.0711 65.9289 56.75 68 56.75V55.25Z" fill="#666666"/>
<rect x="52" y="37" width="32" height="32" rx="5" stroke="#868686" stroke-width="2"/>
</g>
<g id="Tooltip">
<g id="_Base Tooltip">
<rect id="Container" width="136" height="32" rx="4" fill="black"/>
<path id="Tip bottom" d="M63.5 32H71.5L67.5 36L63.5 32Z" fill="black"/>
<path id="Content" d="M19.7295 14.012H20.8695C20.8055 13.556 20.6695 13.156 20.4615 12.812C20.2535 12.46 19.9935 12.168 19.6815 11.936C19.3695 11.704 19.0135 11.528 18.6135 11.408C18.2135 11.288 17.7895 11.228 17.3415 11.228C16.6855 11.228 16.1015 11.348 15.5895 11.588C15.0855 11.82 14.6615 12.14 14.3175 12.548C13.9815 12.956 13.7255 13.436 13.5495 13.988C13.3735 14.532 13.2855 15.116 13.2855 15.74C13.2855 16.364 13.3655 16.948 13.5255 17.492C13.6935 18.036 13.9415 18.508 14.2695 18.908C14.5975 19.308 15.0095 19.624 15.5055 19.856C16.0015 20.08 16.5815 20.192 17.2455 20.192C18.3415 20.192 19.2055 19.892 19.8375 19.292C20.4695 18.692 20.8415 17.852 20.9535 16.772H19.8135C19.7895 17.124 19.7175 17.452 19.5975 17.756C19.4775 18.06 19.3095 18.324 19.0935 18.548C18.8855 18.764 18.6335 18.936 18.3375 19.064C18.0495 19.184 17.7175 19.244 17.3415 19.244C16.8295 19.244 16.3895 19.148 16.0215 18.956C15.6535 18.764 15.3495 18.508 15.1095 18.188C14.8775 17.86 14.7055 17.48 14.5935 17.048C14.4815 16.608 14.4255 16.144 14.4255 15.656C14.4255 15.208 14.4815 14.776 14.5935 14.36C14.7055 13.944 14.8775 13.576 15.1095 13.256C15.3495 12.928 15.6495 12.668 16.0095 12.476C16.3775 12.284 16.8175 12.188 17.3295 12.188C17.9295 12.188 18.4455 12.34 18.8775 12.644C19.3175 12.948 19.6015 13.404 19.7295 14.012ZM22.9417 16.904C22.9417 16.528 22.9897 16.196 23.0857 15.908C23.1897 15.612 23.3297 15.364 23.5057 15.164C23.6817 14.964 23.8857 14.812 24.1177 14.708C24.3577 14.604 24.6097 14.552 24.8737 14.552C25.1377 14.552 25.3857 14.604 25.6177 14.708C25.8577 14.812 26.0657 14.964 26.2417 15.164C26.4177 15.364 26.5537 15.612 26.6497 15.908C26.7537 16.196 26.8057 16.528 26.8057 16.904C26.8057 17.28 26.7537 17.616 26.6497 17.912C26.5537 18.2 26.4177 18.444 26.2417 18.644C26.0657 18.836 25.8577 18.984 25.6177 19.088C25.3857 19.192 25.1377 19.244 24.8737 19.244C24.6097 19.244 24.3577 19.192 24.1177 19.088C23.8857 18.984 23.6817 18.836 23.5057 18.644C23.3297 18.444 23.1897 18.2 23.0857 17.912C22.9897 17.616 22.9417 17.28 22.9417 16.904ZM21.8617 16.904C21.8617 17.36 21.9257 17.784 22.0537 18.176C22.1817 18.568 22.3737 18.912 22.6297 19.208C22.8857 19.496 23.2017 19.724 23.5777 19.892C23.9537 20.052 24.3857 20.132 24.8737 20.132C25.3697 20.132 25.8017 20.052 26.1697 19.892C26.5457 19.724 26.8617 19.496 27.1177 19.208C27.3737 18.912 27.5657 18.568 27.6937 18.176C27.8217 17.784 27.8857 17.36 27.8857 16.904C27.8857 16.448 27.8217 16.024 27.6937 15.632C27.5657 15.232 27.3737 14.888 27.1177 14.6C26.8617 14.304 26.5457 14.072 26.1697 13.904C25.8017 13.736 25.3697 13.652 24.8737 13.652C24.3857 13.652 23.9537 13.736 23.5777 13.904C23.2017 14.072 22.8857 14.304 22.6297 14.6C22.3737 14.888 22.1817 15.232 22.0537 15.632C21.9257 16.024 21.8617 16.448 21.8617 16.904ZM29.0883 13.796V20H30.1083V16.496C30.1083 16.216 30.1443 15.96 30.2163 15.728C30.2963 15.488 30.4123 15.28 30.5643 15.104C30.7163 14.928 30.9043 14.792 31.1283 14.696C31.3603 14.6 31.6323 14.552 31.9443 14.552C32.3363 14.552 32.6443 14.664 32.8683 14.888C33.0923 15.112 33.2043 15.416 33.2043 15.8V20H34.2243V15.92C34.2243 15.584 34.1883 15.28 34.1163 15.008C34.0523 14.728 33.9363 14.488 33.7683 14.288C33.6003 14.088 33.3803 13.932 33.1083 13.82C32.8363 13.708 32.4963 13.652 32.0883 13.652C31.1683 13.652 30.4963 14.028 30.0723 14.78H30.0483V13.796H29.0883ZM39.3683 20H40.3883V13.796H39.3683V20ZM39.3683 12.68H40.3883V11.432H39.3683V12.68ZM36.1763 14.696V20H37.1963V14.696H38.3963V13.796H37.1963V12.932C37.1963 12.66 37.2643 12.476 37.4003 12.38C37.5363 12.284 37.7283 12.236 37.9763 12.236C38.0643 12.236 38.1603 12.244 38.2643 12.26C38.3683 12.268 38.4643 12.288 38.5523 12.32V11.432C38.4563 11.4 38.3443 11.376 38.2163 11.36C38.0963 11.344 37.9883 11.336 37.8923 11.336C37.3323 11.336 36.9043 11.468 36.6083 11.732C36.3203 11.988 36.1763 12.368 36.1763 12.872V13.796H35.1323V14.696H36.1763ZM47.3192 19.472V13.796H46.3592V14.684H46.3472C46.1632 14.34 45.9072 14.084 45.5792 13.916C45.2512 13.74 44.8912 13.652 44.4992 13.652C43.9632 13.652 43.5112 13.756 43.1432 13.964C42.7752 14.164 42.4792 14.424 42.2552 14.744C42.0312 15.056 41.8712 15.408 41.7752 15.8C41.6792 16.184 41.6312 16.56 41.6312 16.928C41.6312 17.352 41.6872 17.756 41.7992 18.14C41.9192 18.516 42.0952 18.848 42.3272 19.136C42.5592 19.416 42.8472 19.64 43.1912 19.808C43.5352 19.976 43.9392 20.06 44.4032 20.06C44.8032 20.06 45.1792 19.972 45.5312 19.796C45.8912 19.612 46.1592 19.328 46.3352 18.944H46.3592V19.352C46.3592 19.696 46.3232 20.012 46.2512 20.3C46.1872 20.588 46.0792 20.832 45.9272 21.032C45.7752 21.24 45.5832 21.4 45.3512 21.512C45.1192 21.632 44.8352 21.692 44.4992 21.692C44.3312 21.692 44.1552 21.672 43.9712 21.632C43.7872 21.6 43.6152 21.544 43.4552 21.464C43.3032 21.384 43.1712 21.28 43.0592 21.152C42.9552 21.024 42.8992 20.868 42.8912 20.684H41.8712C41.8872 21.02 41.9752 21.304 42.1352 21.536C42.2952 21.768 42.4952 21.956 42.7352 22.1C42.9832 22.244 43.2552 22.348 43.5512 22.412C43.8552 22.476 44.1512 22.508 44.4392 22.508C45.4312 22.508 46.1592 22.256 46.6232 21.752C47.0872 21.248 47.3192 20.488 47.3192 19.472ZM44.4632 19.172C44.1272 19.172 43.8472 19.104 43.6232 18.968C43.3992 18.824 43.2192 18.64 43.0832 18.416C42.9472 18.184 42.8512 17.928 42.7952 17.648C42.7392 17.368 42.7112 17.088 42.7112 16.808C42.7112 16.512 42.7432 16.228 42.8072 15.956C42.8792 15.684 42.9872 15.444 43.1312 15.236C43.2832 15.028 43.4752 14.864 43.7072 14.744C43.9392 14.616 44.2192 14.552 44.5472 14.552C44.8672 14.552 45.1392 14.616 45.3632 14.744C45.5872 14.872 45.7672 15.044 45.9032 15.26C46.0472 15.468 46.1512 15.704 46.2152 15.968C46.2792 16.232 46.3112 16.5 46.3112 16.772C46.3112 17.06 46.2752 17.348 46.2032 17.636C46.1392 17.924 46.0352 18.184 45.8912 18.416C45.7472 18.64 45.5552 18.824 45.3152 18.968C45.0832 19.104 44.7992 19.172 44.4632 19.172ZM53.9938 20V13.796H52.9738V17.3C52.9738 17.58 52.9338 17.84 52.8538 18.08C52.7818 18.312 52.6698 18.516 52.5178 18.692C52.3658 18.868 52.1738 19.004 51.9418 19.1C51.7178 19.196 51.4498 19.244 51.1378 19.244C50.7458 19.244 50.4378 19.132 50.2138 18.908C49.9898 18.684 49.8778 18.38 49.8778 17.996V13.796H48.8578V17.876C48.8578 18.212 48.8898 18.52 48.9538 18.8C49.0258 19.072 49.1458 19.308 49.3138 19.508C49.4818 19.708 49.7018 19.864 49.9738 19.976C50.2458 20.08 50.5858 20.132 50.9938 20.132C51.4498 20.132 51.8458 20.044 52.1818 19.868C52.5178 19.684 52.7938 19.4 53.0098 19.016H53.0338V20H53.9938ZM55.4898 13.796V20H56.5098V17.24C56.5098 16.84 56.5498 16.488 56.6298 16.184C56.7098 15.872 56.8378 15.608 57.0138 15.392C57.1898 15.176 57.4218 15.012 57.7098 14.9C57.9978 14.788 58.3458 14.732 58.7538 14.732V13.652C58.2018 13.636 57.7458 13.748 57.3858 13.988C57.0258 14.228 56.7218 14.6 56.4738 15.104H56.4498V13.796H55.4898ZM63.619 16.304H60.055C60.071 16.064 60.123 15.84 60.211 15.632C60.299 15.416 60.419 15.228 60.571 15.068C60.723 14.908 60.903 14.784 61.111 14.696C61.327 14.6 61.567 14.552 61.831 14.552C62.087 14.552 62.319 14.6 62.527 14.696C62.743 14.784 62.927 14.908 63.079 15.068C63.239 15.22 63.363 15.404 63.451 15.62C63.547 15.836 63.603 16.064 63.619 16.304ZM64.603 18.032H63.595C63.507 18.44 63.323 18.744 63.043 18.944C62.771 19.144 62.419 19.244 61.987 19.244C61.651 19.244 61.359 19.188 61.111 19.076C60.863 18.964 60.659 18.816 60.499 18.632C60.339 18.44 60.223 18.224 60.151 17.984C60.079 17.736 60.047 17.476 60.055 17.204H64.699C64.715 16.828 64.679 16.432 64.591 16.016C64.511 15.6 64.359 15.216 64.135 14.864C63.919 14.512 63.627 14.224 63.259 14C62.899 13.768 62.443 13.652 61.891 13.652C61.467 13.652 61.075 13.732 60.715 13.892C60.363 14.052 60.055 14.276 59.791 14.564C59.535 14.852 59.335 15.192 59.191 15.584C59.047 15.976 58.975 16.408 58.975 16.88C58.991 17.352 59.059 17.788 59.179 18.188C59.307 18.588 59.495 18.932 59.743 19.22C59.991 19.508 60.295 19.732 60.655 19.892C61.023 20.052 61.455 20.132 61.951 20.132C62.655 20.132 63.239 19.956 63.703 19.604C64.167 19.252 64.467 18.728 64.603 18.032ZM70.1761 12.68V11.432H69.1561V12.68H70.1761ZM69.1561 13.796V20H70.1761V13.796H69.1561ZM71.7563 13.796V20H72.7763V16.496C72.7763 16.216 72.8123 15.96 72.8843 15.728C72.9643 15.488 73.0803 15.28 73.2323 15.104C73.3843 14.928 73.5723 14.792 73.7963 14.696C74.0283 14.6 74.3003 14.552 74.6123 14.552C75.0043 14.552 75.3123 14.664 75.5363 14.888C75.7603 15.112 75.8723 15.416 75.8723 15.8V20H76.8923V15.92C76.8923 15.584 76.8563 15.28 76.7843 15.008C76.7203 14.728 76.6043 14.488 76.4363 14.288C76.2683 14.088 76.0483 13.932 75.7763 13.82C75.5043 13.708 75.1643 13.652 74.7563 13.652C73.8363 13.652 73.1643 14.028 72.7403 14.78H72.7163V13.796H71.7563ZM82.3881 18.044H81.3681C81.3841 18.428 81.4641 18.756 81.6081 19.028C81.7521 19.292 81.9441 19.508 82.1841 19.676C82.4241 19.836 82.7001 19.952 83.0121 20.024C83.3241 20.096 83.6521 20.132 83.9961 20.132C84.3081 20.132 84.6201 20.1 84.9321 20.036C85.2521 19.98 85.5361 19.876 85.7841 19.724C86.0401 19.572 86.2441 19.372 86.3961 19.124C86.5561 18.876 86.6361 18.564 86.6361 18.188C86.6361 17.892 86.5761 17.644 86.4561 17.444C86.3441 17.244 86.1921 17.08 86.0001 16.952C85.8161 16.816 85.6001 16.708 85.3521 16.628C85.1121 16.548 84.8641 16.48 84.6081 16.424C84.3681 16.368 84.1281 16.316 83.8881 16.268C83.6481 16.212 83.4321 16.148 83.2401 16.076C83.0481 15.996 82.8881 15.9 82.7601 15.788C82.6401 15.668 82.5801 15.52 82.5801 15.344C82.5801 15.184 82.6201 15.056 82.7001 14.96C82.7801 14.856 82.8841 14.776 83.0121 14.72C83.1401 14.656 83.2801 14.612 83.4321 14.588C83.5921 14.564 83.7481 14.552 83.9001 14.552C84.0681 14.552 84.2321 14.572 84.3921 14.612C84.5601 14.644 84.7121 14.7 84.8481 14.78C84.9841 14.86 85.0961 14.968 85.1841 15.104C85.2721 15.232 85.3241 15.396 85.3401 15.596H86.3601C86.3361 15.22 86.2561 14.908 86.1201 14.66C85.9841 14.404 85.8001 14.204 85.5681 14.06C85.3441 13.908 85.0841 13.804 84.7881 13.748C84.4921 13.684 84.1681 13.652 83.8161 13.652C83.5441 13.652 83.2681 13.688 82.9881 13.76C82.7161 13.824 82.4681 13.928 82.2441 14.072C82.0281 14.208 81.8481 14.388 81.7041 14.612C81.5681 14.836 81.5001 15.104 81.5001 15.416C81.5001 15.816 81.6001 16.128 81.8001 16.352C82.0001 16.576 82.2481 16.752 82.5441 16.88C82.8481 17 83.1761 17.096 83.5281 17.168C83.8801 17.232 84.2041 17.308 84.5001 17.396C84.8041 17.476 85.0561 17.584 85.2561 17.72C85.4561 17.856 85.5561 18.056 85.5561 18.32C85.5561 18.512 85.5081 18.672 85.4121 18.8C85.3161 18.92 85.1921 19.012 85.0401 19.076C84.8961 19.14 84.7361 19.184 84.5601 19.208C84.3841 19.232 84.2161 19.244 84.0561 19.244C83.8481 19.244 83.6441 19.224 83.4441 19.184C83.2521 19.144 83.0761 19.08 82.9161 18.992C82.7641 18.896 82.6401 18.772 82.5441 18.62C82.4481 18.46 82.3961 18.268 82.3881 18.044ZM92.0721 16.304H88.5081C88.5241 16.064 88.5761 15.84 88.6641 15.632C88.7521 15.416 88.8721 15.228 89.0241 15.068C89.1761 14.908 89.3561 14.784 89.5641 14.696C89.7801 14.6 90.0201 14.552 90.2841 14.552C90.5401 14.552 90.7721 14.6 90.9801 14.696C91.1961 14.784 91.3801 14.908 91.5321 15.068C91.6921 15.22 91.8161 15.404 91.9041 15.62C92.0001 15.836 92.0561 16.064 92.0721 16.304ZM93.0561 18.032H92.0481C91.9601 18.44 91.7761 18.744 91.4961 18.944C91.2241 19.144 90.8721 19.244 90.4401 19.244C90.1041 19.244 89.8121 19.188 89.5641 19.076C89.3161 18.964 89.1121 18.816 88.9521 18.632C88.7921 18.44 88.6761 18.224 88.6041 17.984C88.5321 17.736 88.5001 17.476 88.5081 17.204H93.1521C93.1681 16.828 93.1321 16.432 93.0441 16.016C92.9641 15.6 92.8121 15.216 92.5881 14.864C92.3721 14.512 92.0801 14.224 91.7121 14C91.3521 13.768 90.8961 13.652 90.3441 13.652C89.9201 13.652 89.5281 13.732 89.1681 13.892C88.8161 14.052 88.5081 14.276 88.2441 14.564C87.9881 14.852 87.7881 15.192 87.6441 15.584C87.5001 15.976 87.4281 16.408 87.4281 16.88C87.4441 17.352 87.5121 17.788 87.6321 18.188C87.7601 18.588 87.9481 18.932 88.1961 19.22C88.4441 19.508 88.7481 19.732 89.1081 19.892C89.4761 20.052 89.9081 20.132 90.4041 20.132C91.1081 20.132 91.6921 19.956 92.1561 19.604C92.6201 19.252 92.9201 18.728 93.0561 18.032ZM95.6254 13.796V11.936H94.6054V13.796H93.5494V14.696H94.6054V18.644C94.6054 18.932 94.6334 19.164 94.6894 19.34C94.7454 19.516 94.8294 19.652 94.9414 19.748C95.0614 19.844 95.2134 19.912 95.3974 19.952C95.5894 19.984 95.8174 20 96.0814 20H96.8614V19.1H96.3934C96.2334 19.1 96.1014 19.096 95.9974 19.088C95.9014 19.072 95.8254 19.044 95.7694 19.004C95.7134 18.964 95.6734 18.908 95.6494 18.836C95.6334 18.764 95.6254 18.668 95.6254 18.548V14.696H96.8614V13.796H95.6254ZM99.4106 13.796V11.936H98.3906V13.796H97.3346V14.696H98.3906V18.644C98.3906 18.932 98.4186 19.164 98.4746 19.34C98.5306 19.516 98.6146 19.652 98.7266 19.748C98.8466 19.844 98.9986 19.912 99.1826 19.952C99.3746 19.984 99.6026 20 99.8666 20H100.647V19.1H100.179C100.019 19.1 99.8866 19.096 99.7826 19.088C99.6866 19.072 99.6106 19.044 99.5546 19.004C99.4986 18.964 99.4586 18.908 99.4346 18.836C99.4186 18.764 99.4106 18.668 99.4106 18.548V14.696H100.647V13.796H99.4106ZM102.86 12.68V11.432H101.84V12.68H102.86ZM101.84 13.796V20H102.86V13.796H101.84ZM104.44 13.796V20H105.46V16.496C105.46 16.216 105.496 15.96 105.568 15.728C105.648 15.488 105.764 15.28 105.916 15.104C106.068 14.928 106.256 14.792 106.48 14.696C106.712 14.6 106.984 14.552 107.296 14.552C107.688 14.552 107.996 14.664 108.22 14.888C108.444 15.112 108.556 15.416 108.556 15.8V20H109.576V15.92C109.576 15.584 109.54 15.28 109.468 15.008C109.404 14.728 109.288 14.488 109.12 14.288C108.952 14.088 108.732 13.932 108.46 13.82C108.188 13.708 107.848 13.652 107.44 13.652C106.52 13.652 105.848 14.028 105.424 14.78H105.4V13.796H104.44ZM116.46 19.472V13.796H115.5V14.684H115.488C115.304 14.34 115.048 14.084 114.72 13.916C114.392 13.74 114.032 13.652 113.64 13.652C113.104 13.652 112.652 13.756 112.284 13.964C111.916 14.164 111.62 14.424 111.396 14.744C111.172 15.056 111.012 15.408 110.916 15.8C110.82 16.184 110.772 16.56 110.772 16.928C110.772 17.352 110.828 17.756 110.94 18.14C111.06 18.516 111.236 18.848 111.468 19.136C111.7 19.416 111.988 19.64 112.332 19.808C112.676 19.976 113.08 20.06 113.544 20.06C113.944 20.06 114.32 19.972 114.672 19.796C115.032 19.612 115.3 19.328 115.476 18.944H115.5V19.352C115.5 19.696 115.464 20.012 115.392 20.3C115.328 20.588 115.22 20.832 115.068 21.032C114.916 21.24 114.724 21.4 114.492 21.512C114.26 21.632 113.976 21.692 113.64 21.692C113.472 21.692 113.296 21.672 113.112 21.632C112.928 21.6 112.756 21.544 112.596 21.464C112.444 21.384 112.312 21.28 112.2 21.152C112.096 21.024 112.04 20.868 112.032 20.684H111.012C111.028 21.02 111.116 21.304 111.276 21.536C111.436 21.768 111.636 21.956 111.876 22.1C112.124 22.244 112.396 22.348 112.692 22.412C112.996 22.476 113.292 22.508 113.58 22.508C114.572 22.508 115.3 22.256 115.764 21.752C116.228 21.248 116.46 20.488 116.46 19.472ZM113.604 19.172C113.268 19.172 112.988 19.104 112.764 18.968C112.54 18.824 112.36 18.64 112.224 18.416C112.088 18.184 111.992 17.928 111.936 17.648C111.88 17.368 111.852 17.088 111.852 16.808C111.852 16.512 111.884 16.228 111.948 15.956C112.02 15.684 112.128 15.444 112.272 15.236C112.424 15.028 112.616 14.864 112.848 14.744C113.08 14.616 113.36 14.552 113.688 14.552C114.008 14.552 114.28 14.616 114.504 14.744C114.728 14.872 114.908 15.044 115.044 15.26C115.188 15.468 115.292 15.704 115.356 15.968C115.42 16.232 115.452 16.5 115.452 16.772C115.452 17.06 115.416 17.348 115.344 17.636C115.28 17.924 115.176 18.184 115.032 18.416C114.888 18.64 114.696 18.824 114.456 18.968C114.224 19.104 113.94 19.172 113.604 19.172ZM118.622 18.044H117.602C117.618 18.428 117.698 18.756 117.842 19.028C117.986 19.292 118.178 19.508 118.418 19.676C118.658 19.836 118.934 19.952 119.246 20.024C119.558 20.096 119.886 20.132 120.23 20.132C120.542 20.132 120.854 20.1 121.166 20.036C121.486 19.98 121.77 19.876 122.018 19.724C122.274 19.572 122.478 19.372 122.63 19.124C122.79 18.876 122.87 18.564 122.87 18.188C122.87 17.892 122.81 17.644 122.69 17.444C122.578 17.244 122.426 17.08 122.234 16.952C122.05 16.816 121.834 16.708 121.586 16.628C121.346 16.548 121.098 16.48 120.842 16.424C120.602 16.368 120.362 16.316 120.122 16.268C119.882 16.212 119.666 16.148 119.474 16.076C119.282 15.996 119.122 15.9 118.994 15.788C118.874 15.668 118.814 15.52 118.814 15.344C118.814 15.184 118.854 15.056 118.934 14.96C119.014 14.856 119.118 14.776 119.246 14.72C119.374 14.656 119.514 14.612 119.666 14.588C119.826 14.564 119.982 14.552 120.134 14.552C120.302 14.552 120.466 14.572 120.626 14.612C120.794 14.644 120.946 14.7 121.082 14.78C121.218 14.86 121.33 14.968 121.418 15.104C121.506 15.232 121.558 15.396 121.574 15.596H122.594C122.57 15.22 122.49 14.908 122.354 14.66C122.218 14.404 122.034 14.204 121.802 14.06C121.578 13.908 121.318 13.804 121.022 13.748C120.726 13.684 120.402 13.652 120.05 13.652C119.778 13.652 119.502 13.688 119.222 13.76C118.95 13.824 118.702 13.928 118.478 14.072C118.262 14.208 118.082 14.388 117.938 14.612C117.802 14.836 117.734 15.104 117.734 15.416C117.734 15.816 117.834 16.128 118.034 16.352C118.234 16.576 118.482 16.752 118.778 16.88C119.082 17 119.41 17.096 119.762 17.168C120.114 17.232 120.438 17.308 120.734 17.396C121.038 17.476 121.29 17.584 121.49 17.72C121.69 17.856 121.79 18.056 121.79 18.32C121.79 18.512 121.742 18.672 121.646 18.8C121.55 18.92 121.426 19.012 121.274 19.076C121.13 19.14 120.97 19.184 120.794 19.208C120.618 19.232 120.45 19.244 120.29 19.244C120.082 19.244 119.878 19.224 119.678 19.184C119.486 19.144 119.31 19.08 119.15 18.992C118.998 18.896 118.874 18.772 118.778 18.62C118.682 18.46 118.63 18.268 118.622 18.044Z" fill="white"/>
</g>
</g>
<path id="Outline" fill-rule="evenodd" clip-rule="evenodd" d="M79.8205 78.4501C79.9708 78.5855 80.0746 78.6828 80.3952 78.9874C80.7093 79.2857 80.8612 79.4267 81.0001 79.5446C81.058 79.5934 81.1074 79.7238 81.1269 79.9178C81.143 80.0773 81.1374 80.2553 81.1179 80.4268C81.1112 80.4861 81.1047 80.5289 81.1009 80.5493C81.0591 80.778 81.2334 80.9894 81.466 80.9917C81.6753 80.9939 81.8366 80.9965 82.2634 81.0041C82.3702 81.006 82.3702 81.006 82.4774 81.0078C83.6377 81.0278 84.2303 81.0223 84.6556 80.9688C85.1102 80.9117 85.5784 80.3626 85.9831 79.6737C86.3261 80.2833 86.8018 80.8786 87.2821 80.956C87.4347 80.9804 87.6194 80.9879 87.8333 80.983C87.9929 80.9793 88.1617 80.9688 88.332 80.9536C88.4605 80.9421 88.5629 80.9306 88.624 80.9226C88.8499 80.8933 88.9978 80.671 88.9374 80.4514C88.9244 80.4039 88.9034 80.3169 88.8823 80.2073C88.8578 80.0802 88.8401 79.9561 88.832 79.8431C88.8269 79.7714 88.8259 79.7065 88.8292 79.6504C88.8348 79.5526 88.8366 79.4979 88.8393 79.3713C88.8404 79.3242 88.8404 79.3242 88.8418 79.283C88.847 79.1482 88.8652 79.0201 88.9238 78.7408C88.949 78.6196 89.0711 78.3876 89.2634 78.1006C89.3207 78.0151 89.3833 77.9258 89.4504 77.8336C89.5776 77.6588 89.7145 77.4822 89.8514 77.3132C89.9335 77.212 89.9969 77.1363 90.0322 77.0951C90.3285 76.6707 90.6443 75.976 90.7604 75.5698C90.8718 75.1794 90.9609 74.4604 91.0157 73.7537C91.0457 73.3528 91.0568 73.0297 91.0568 72.5228C91.0569 72.4338 91.0569 72.4338 91.057 72.3604C91.0573 72.2402 91.0573 72.1947 91.0569 72.1385C91.0558 71.9849 91.0514 71.8327 91.0365 71.4444C91.0046 70.6308 90.5587 70.1047 89.9017 70.0033C89.3427 69.917 88.6623 70.3812 88.6623 70.3812C88.6623 70.3812 88.5108 69.8584 88.4086 69.697C88.2424 69.4377 87.8144 69.1072 87.4872 69.0428C87.1507 68.9775 86.7518 68.9847 86.3855 69.0495C86.0647 69.1069 85.7451 69.3933 85.5603 69.7023C85.4281 69.9227 85.5524 69.6906 85.4202 69.4626C85.2371 69.1486 84.8108 68.8674 84.4049 68.7844C84.061 68.7132 83.6669 68.7403 83.307 68.8473C82.8439 68.9857 82.7702 69.338 82.7518 69.2371C82.6902 68.8989 82.6845 68.9211 82.6461 68.6798C82.5036 67.7846 82.344 67.1651 82.1021 66.6246C82.116 66.6556 82.0135 66.4224 81.9762 66.342C81.9116 66.2027 81.8471 66.0767 81.7762 65.9555C81.5577 65.5818 81.3073 65.3021 80.9931 65.1431C80.4475 64.8668 79.6297 65.0013 79.242 65.4538C78.8571 65.9034 78.7929 66.6553 78.8898 67.5856C78.9268 67.9468 79.0566 68.6063 79.1743 69.0937C79.2159 69.2629 79.2523 69.4172 79.3192 69.7023C79.3307 69.7507 79.3307 69.7507 79.3423 69.7992C79.394 70.015 79.4394 70.1924 79.4935 70.3872C79.4878 70.3669 79.5905 70.7313 79.6124 70.8119C79.6197 70.8388 79.6197 70.8388 79.6269 70.8659C79.6677 71.0197 79.7076 71.1855 79.77 71.4622C79.8041 71.6143 79.8374 71.7769 79.87 71.9492C79.9588 72.4191 79.9592 72.3213 79.8737 72.221C79.8147 72.1518 79.7591 72.089 79.7054 72.031C79.6057 71.9233 79.5139 71.8342 79.4269 71.7632C78.7925 71.2441 78.4037 71.0148 77.87 70.9644C76.9946 70.8803 76.1639 71.4987 76.0389 72.3332C75.9621 72.8449 75.9869 73.0805 76.2236 73.5327C76.3538 73.777 76.5742 74.0721 76.9853 74.58C77.0105 74.6111 77.0105 74.6111 77.0356 74.6421C77.5402 75.264 77.5952 75.333 77.7152 75.5068C78.0396 75.9775 78.8292 77.329 78.9727 77.5104L79.8205 78.4501Z" fill="black"/>
<path id="Fill" fill-rule="evenodd" clip-rule="evenodd" d="M77.618 74.1695C77.5931 74.1388 77.5931 74.1388 77.5683 74.1082C77.191 73.642 76.9841 73.365 76.8867 73.1823C76.7339 72.8904 76.7256 72.8112 76.7806 72.4444C76.8454 72.012 77.3125 71.6643 77.7989 71.711C78.1355 71.7428 78.4296 71.9163 78.9523 72.344C79.0089 72.3902 79.0772 72.4564 79.1552 72.5407C79.2014 72.5905 79.2504 72.6459 79.3032 72.7079C79.3826 72.8009 79.6503 73.1284 79.6108 73.0808C79.669 73.1507 79.7106 73.2048 79.7581 73.2712C79.8522 73.4055 79.9051 73.4801 79.9768 73.5757C79.9432 73.5309 80.1915 73.8742 80.2441 73.9244C80.5227 74.1903 80.9262 73.9663 80.9009 73.6119C80.8967 73.5528 80.8828 73.4888 80.8537 73.3773C80.7388 72.558 80.6986 72.2951 80.6069 71.8099C80.5728 71.6296 80.5379 71.4589 80.5017 71.2977C80.4374 71.0121 80.3954 70.8376 80.3518 70.6734C80.344 70.6443 80.344 70.6443 80.3362 70.6156C80.3132 70.5308 80.209 70.1609 80.2159 70.1857C80.1646 70.001 80.1214 69.832 80.0716 69.6244C80.0603 69.5771 80.0603 69.5771 80.049 69.5295C79.9825 69.246 79.9451 69.0877 79.903 68.9162C79.793 68.4605 79.6687 67.829 79.6358 67.5085C79.5604 66.7843 79.6125 66.1743 79.8117 65.9416C79.9672 65.7601 80.4081 65.6876 80.6544 65.8123C80.8155 65.8938 80.9764 66.0736 81.1287 66.3341C81.1864 66.4326 81.2405 66.5383 81.2958 66.6576C81.3294 66.7299 81.4288 66.956 81.4176 66.931C81.6279 67.4009 81.7724 67.9619 81.9055 68.7977C81.9449 69.0454 81.9936 69.326 82.0561 69.6692C82.0747 69.771 82.0747 69.771 82.0933 69.8724C82.3947 71.5077 82.3727 71.3838 82.377 71.5142C82.3928 71.99 83.0951 72.0011 83.126 71.5261C83.1358 71.3754 83.1323 71.2409 83.1149 70.8546C83.1125 70.8 83.1125 70.8 83.1101 70.7455C83.0949 70.3896 83.0958 70.1849 83.1168 70.0685C83.1552 69.8562 83.3457 69.6185 83.5212 69.566C83.7676 69.4928 84.0376 69.4743 84.2539 69.519C84.4609 69.5613 84.7025 69.7207 84.7718 69.8396C84.8554 69.9836 84.927 70.203 84.9819 70.4749C85.0262 70.6944 85.0567 70.9298 85.0781 71.1811C85.0848 71.2593 85.0892 71.3197 85.0959 71.4197C85.0987 71.4615 85.0987 71.4615 85.1016 71.496C85.1032 71.5134 85.1032 71.5134 85.1071 71.5407C85.1101 71.5599 85.1101 71.5599 85.1244 71.6085C85.1317 71.7463 85.1317 71.7463 85.6852 71.7974C85.8505 71.5976 85.8505 71.5976 85.846 71.5625C85.8731 71.4442 85.8897 71.3123 85.9133 71.0644C85.9284 70.9033 85.936 70.8241 85.9449 70.7419C85.9816 70.4018 86.0284 70.1857 86.0854 70.0907C86.1561 69.9725 86.4051 69.8079 86.5169 69.7879C86.7974 69.7383 87.1055 69.7327 87.3433 69.7789C87.4511 69.8001 87.7139 70.003 87.7761 70.1001C87.9038 70.3016 88.028 70.9515 88.098 71.5962C88.087 71.6385 88.087 71.6385 88.2587 71.8838C88.849 71.8165 88.849 71.8165 88.8325 71.7099C88.848 71.6719 88.8604 71.628 88.878 71.5598C88.9202 71.4001 88.9481 71.3073 88.9898 71.2034C89.0186 71.1315 89.049 71.0701 89.0801 71.0211C89.2008 70.8312 89.5132 70.7022 89.7872 70.7445C90.0815 70.7899 90.269 71.0111 90.2871 71.4734C90.3016 71.8539 90.3059 72.0001 90.3069 72.1437C90.3073 72.1966 90.3073 72.2392 90.307 72.3588C90.3069 72.4327 90.3069 72.4327 90.3068 72.5227C90.3068 73.0117 90.2963 73.3163 90.2678 73.6967C90.2172 74.35 90.1317 75.0396 90.0392 75.3638C89.9447 75.6944 89.6627 76.3147 89.4395 76.6373C89.4236 76.6526 89.3556 76.7338 89.2688 76.841C89.1242 77.0194 88.9795 77.206 88.844 77.3923C88.7714 77.492 88.7032 77.5892 88.6403 77.6832C88.3966 78.0469 88.2403 78.3439 88.1896 78.5874C88.1232 78.9039 88.0995 79.0717 88.0923 79.2536C88.0906 79.3051 88.0906 79.3052 88.0895 79.3551C88.0869 79.4732 88.0854 79.5208 88.0804 79.6072C88.0752 79.6978 88.0767 79.7943 88.0839 79.8963C88.0943 80.0423 88.0839 80.2418 88.0839 80.2418C88.0839 80.2418 87.9573 80.2299 87.8161 80.2332C87.6436 80.2372 87.5001 80.2313 87.401 80.2154C87.2579 80.1924 86.8716 79.709 86.6738 79.3324C86.3715 78.756 85.6378 78.7839 85.337 79.293C85.0657 79.7548 84.6773 80.2102 84.562 80.2247C84.1874 80.2718 83.6073 80.2771 82.4903 80.2579C82.3835 80.2561 82.3835 80.2561 82.2768 80.2542C81.8479 80.2465 81.8644 80.3189 81.8731 80.2418C81.8982 80.0215 81.8954 80.0627 81.8731 79.8425C81.8359 79.4731 81.7219 79.172 81.4844 78.9719C81.3615 78.8676 81.2145 78.7312 80.9194 78.4508C80.5821 78.1305 80.4765 78.0315 80.3464 77.9171L79.5451 77.0264C79.4571 76.9139 78.685 75.5924 78.3326 75.081C78.1955 74.8824 78.1442 74.8179 77.618 74.1695ZM87.1267 74.1732V77.6322C87.1267 78.1322 87.8767 78.1322 87.8767 77.6322V74.1732C87.8767 73.6732 87.1267 73.6732 87.1267 74.1732ZM85.0951 74.1727L85.1111 77.6457C85.1134 78.1457 85.8634 78.1422 85.8611 77.6422L85.8451 74.1692C85.8428 73.6692 85.0928 73.6727 85.0951 74.1727ZM83.886 77.6262L83.865 74.2002C83.8619 73.7003 83.1119 73.7049 83.115 74.2048L83.136 77.6308C83.1391 78.1308 83.8891 78.1262 83.886 77.6262Z" fill="white"/>
</g>
</svg>
