<svg width="485" height="40" viewBox="0 0 485 40" fill="none" xmlns="http://www.w3.org/2000/svg">
<path d="M4 8C1.79086 8 0 9.79086 0 12V28C0 30.2091 1.79086 32 4 32H76C78.2091 32 80 30.2091 80 28V12C80 9.79086 78.2091 8 76 8H4Z" fill="#BFBFC3"/>
<path d="M295 18C295 16.8954 294.105 16 293 16H90C88.8954 16 88 16.8954 88 18V22C88 23.1046 88.8954 24 90 24H293C294.105 24 295 23.1046 295 22V18Z" fill="#BFBFC3"/>
<path d="M327 20C327 26.6274 321.627 32 315 32C308.373 32 303 26.6274 303 20C303 13.3726 308.373 8 315 8C321.627 8 327 13.3726 327 20Z" fill="#BFBFC3"/>
<path d="M485 18C485 16.8954 484.105 16 483 16H337C335.895 16 335 16.8954 335 18V22C335 23.1046 335.895 24 337 24H483C484.105 24 485 23.1046 485 22V18Z" fill="#BFBFC3"/>
<circle cx="242" cy="20" r="16" fill="#7B58CF"/>
<circle cx="242" cy="20" r="18" stroke="#7B58CF" stroke-opacity="0.3" stroke-width="4"/>
<path d="M238.224 26V24.524H241.788V14.264L238.224 16.928V15.074L241.194 12.86H243.408V24.524H246.324V26H238.224Z" fill="white"/>
</svg>
