<svg width="485" height="48" viewBox="0 0 485 48" fill="none" xmlns="http://www.w3.org/2000/svg">
<path d="M4 16C1.79086 16 0 17.7909 0 20V36C0 38.2091 1.79086 40 4 40H76C78.2091 40 80 38.2091 80 36V20C80 17.7909 78.2091 16 76 16H4Z" fill="#BFBFBF"/>
<path d="M295 24H88V32H295V24Z" fill="#BFBFBF"/>
<path d="M327 28C327 34.6274 321.627 40 315 40C308.373 40 303 34.6274 303 28C303 21.3726 308.373 16 315 16C321.627 16 327 21.3726 327 28Z" fill="#BFBFBF"/>
<path d="M485 24H335V32H485V24Z" fill="#BFBFBF"/>
<circle cx="242" cy="28" r="16" fill="#7B58CF"/>
<circle cx="242" cy="28" r="18" stroke="#7B58CF" stroke-opacity="0.3" stroke-width="4"/>
<path d="M238.95 32.5146H241.71V22.6006L238.405 24.1914V22.4863L241.692 20.9219H243.468V32.5146H246.192V34H238.95V32.5146Z" fill="white"/>
</svg>
