<svg width="485" height="40" fill="none" xmlns="http://www.w3.org/2000/svg"><path d="M4 8a4 4 0 0 0-4 4v16a4 4 0 0 0 4 4h72a4 4 0 0 0 4-4V12a4 4 0 0 0-4-4H4Zm291 10a2 2 0 0 0-2-2H90a2 2 0 0 0-2 2v4a2 2 0 0 0 2 2h203a2 2 0 0 0 2-2v-4Zm32 2c0 6.627-5.373 12-12 12s-12-5.373-12-12 5.373-12 12-12 12 5.373 12 12Zm158-2a2 2 0 0 0-2-2H337a2 2 0 0 0-2 2v4a2 2 0 0 0 2 2h146a2 2 0 0 0 2-2v-4Z" fill="#BFBFC3"/><circle cx="242" cy="20" r="16" fill="#7B58CF"/><circle cx="242" cy="20" r="18" stroke="#7B58CF" stroke-opacity=".3" stroke-width="4"/><path d="M238.224 26v-1.476h3.564v-10.26l-3.564 2.664v-1.854l2.97-2.214h2.214v11.664h2.916V26h-8.1Z" fill="#fff"/></svg>