<svg width="344" height="106" viewBox="0 0 344 106" fill="none" xmlns="http://www.w3.org/2000/svg">
<g filter="url(#filter0_dd_37095_21846)">
<rect x="8" y="6" width="328" height="90" rx="8" fill="white"/>
<rect x="8.5" y="6.5" width="327" height="89" rx="7.5" stroke="#BFBFBF"/>
<rect width="326" height="30" transform="translate(9 11)" fill="white"/>
<path d="M25.0078 31.1289C22.8809 31.1289 21.5215 30.1445 21.4746 28.2461H23.2793C23.3379 29.125 24.0234 29.5586 24.9844 29.5586C25.9102 29.5586 26.5137 29.1309 26.5137 28.498C26.5137 27.9238 25.9863 27.6543 25.0371 27.4258L24.0879 27.1914C22.5996 26.834 21.7031 26.0898 21.7031 24.8008C21.7031 23.2188 23.1035 22.1523 25.0195 22.1523C26.9824 22.1523 28.2539 23.2363 28.2773 24.7949H26.4785C26.4141 24.1094 25.8809 23.7168 25.0078 23.7168C24.1172 23.7168 23.625 24.127 23.625 24.6836C23.625 25.2988 24.2402 25.5742 24.9902 25.75L25.7695 25.9375C27.2988 26.2832 28.3945 27.0566 28.3945 28.5039C28.3945 30.1152 27.1348 31.1289 25.0078 31.1289ZM31.6055 31.041C30.2227 31.041 29.6016 30.4668 29.6016 29.2773V22.2695H31.4355V29.0371C31.4355 29.4414 31.5703 29.6113 31.916 29.6113C32.0977 29.6113 32.1855 29.5938 32.2617 29.5703L32.5488 30.8945C32.3613 30.959 32.0215 31.041 31.6055 31.041ZM35.1797 31.1289C33.9316 31.1289 33.0117 30.4727 33.0117 29.1719C33.0117 27.7129 34.1719 27.2734 35.4727 27.1504C36.5918 27.0449 37.0488 26.9922 37.0488 26.5703V26.541C37.0488 26.0137 36.6914 25.709 36.0586 25.709C35.4141 25.709 35.0039 26.0254 34.875 26.4473L33.1992 26.1836C33.5039 25.0527 34.5586 24.3672 36.0703 24.3672C37.5352 24.3672 38.8828 25.041 38.8828 26.582V31H37.1484V30.0918H37.0898C36.7617 30.7188 36.1348 31.1289 35.1797 31.1289ZM35.7129 29.8633C36.498 29.8633 37.0605 29.3418 37.0605 28.6621V27.9766C36.8438 28.1172 36.1934 28.2109 35.8125 28.2695C35.1738 28.3574 34.7637 28.6152 34.7637 29.1133C34.7637 29.6055 35.1562 29.8633 35.7129 29.8633ZM42.9902 31.1289C41.3848 31.1289 40.2832 30.4141 40.0547 29.1895L41.7656 28.9023C41.9297 29.5 42.334 29.8047 43.0488 29.8047C43.6934 29.8047 44.0918 29.5352 44.0918 29.1602C44.0918 28.8262 43.8223 28.627 43.2539 28.5098L42.123 28.2812C40.8516 28.0234 40.2246 27.4023 40.2246 26.4121C40.2246 25.1465 41.3262 24.3672 43.0078 24.3672C44.5898 24.3672 45.5449 25.0527 45.7852 26.1367L44.1621 26.4121C44.0273 25.9668 43.6523 25.6738 43.043 25.6738C42.4863 25.6738 42.0586 25.9258 42.0586 26.3008C42.0586 26.6113 42.2695 26.834 42.873 26.957L44.0684 27.1914C45.3457 27.4492 45.9609 28.0234 45.9609 28.9609C45.9609 30.2676 44.7305 31.1289 42.9902 31.1289ZM48.9551 27.2266V31H47.1211V22.2695H48.9199V26.0898H48.7793C49.1191 25.0176 49.7988 24.3672 50.918 24.3672C52.2832 24.3672 53.1797 25.3164 53.1797 26.834V31H51.3398V27.168C51.3398 26.3711 50.9062 25.8965 50.1855 25.8965C49.459 25.8965 48.9551 26.3887 48.9551 27.2266ZM60.3809 31.1289C58.3887 31.1289 57.1523 29.7695 57.1523 27.7539C57.1523 25.7266 58.3887 24.3672 60.3809 24.3672C61.9688 24.3672 63.0879 25.2227 63.3223 26.5879L61.6172 26.8984C61.4766 26.2188 61.0605 25.8027 60.3984 25.8027C59.5078 25.8027 59.0273 26.5762 59.0273 27.748C59.0273 28.9082 59.5078 29.6992 60.3984 29.6992C61.0605 29.6992 61.4941 29.2715 61.6289 28.5625L63.334 28.8672C63.0938 30.2676 61.9805 31.1289 60.3809 31.1289ZM67.4707 31.1289C65.4785 31.1289 64.2422 29.7695 64.2422 27.7539C64.2422 25.7266 65.4785 24.3672 67.4707 24.3672C69.4629 24.3672 70.6992 25.7266 70.6992 27.7539C70.6992 29.7695 69.4629 31.1289 67.4707 31.1289ZM67.4707 29.6992C68.3672 29.6992 68.8301 28.8789 68.8301 27.748C68.8301 26.6055 68.3672 25.8027 67.4707 25.8027C66.5801 25.8027 66.1172 26.6055 66.1172 27.748C66.1172 28.8789 66.5801 29.6992 67.4707 29.6992ZM71.8945 31V24.4492H73.5938L73.6875 26.1016H73.5586C73.8516 24.8711 74.6602 24.3555 75.5449 24.3555C76.4766 24.3555 77.0449 24.9355 77.3262 26.2188H77.1152C77.4141 24.9238 78.3398 24.3555 79.3418 24.3555C80.5488 24.3555 81.4336 25.1699 81.4336 26.582V31H79.5938V26.957C79.5938 26.2363 79.166 25.8789 78.5918 25.8789C77.9473 25.8789 77.5488 26.3301 77.5488 26.998V31H75.7793V26.916C75.7793 26.2832 75.3691 25.8789 74.7891 25.8789C74.1855 25.8789 73.7285 26.3008 73.7285 27.0625V31H71.8945ZM82.8984 31V24.4492H84.5977L84.6914 26.1016H84.5625C84.8555 24.8711 85.6641 24.3555 86.5488 24.3555C87.4805 24.3555 88.0488 24.9355 88.3301 26.2188H88.1191C88.418 24.9238 89.3438 24.3555 90.3457 24.3555C91.5527 24.3555 92.4375 25.1699 92.4375 26.582V31H90.5977V26.957C90.5977 26.2363 90.1699 25.8789 89.5957 25.8789C88.9512 25.8789 88.5527 26.3301 88.5527 26.998V31H86.7832V26.916C86.7832 26.2832 86.373 25.8789 85.793 25.8789C85.1895 25.8789 84.7324 26.3008 84.7324 27.0625V31H82.8984ZM95.7305 31.1289C94.4824 31.1289 93.5625 30.4727 93.5625 29.1719C93.5625 27.7129 94.7227 27.2734 96.0234 27.1504C97.1426 27.0449 97.5996 26.9922 97.5996 26.5703V26.541C97.5996 26.0137 97.2422 25.709 96.6094 25.709C95.9648 25.709 95.5547 26.0254 95.4258 26.4473L93.75 26.1836C94.0547 25.0527 95.1094 24.3672 96.6211 24.3672C98.0859 24.3672 99.4336 25.041 99.4336 26.582V31H97.6992V30.0918H97.6406C97.3125 30.7188 96.6855 31.1289 95.7305 31.1289ZM96.2637 29.8633C97.0488 29.8633 97.6113 29.3418 97.6113 28.6621V27.9766C97.3945 28.1172 96.7441 28.2109 96.3633 28.2695C95.7246 28.3574 95.3145 28.6152 95.3145 29.1133C95.3145 29.6055 95.707 29.8633 96.2637 29.8633ZM102.732 27.2266V31H100.898V24.4492H102.627L102.662 26.0898H102.557C102.896 25.0176 103.576 24.3672 104.695 24.3672C106.061 24.3672 106.957 25.3164 106.957 26.834V31H105.117V27.168C105.117 26.3711 104.684 25.8965 103.963 25.8965C103.236 25.8965 102.732 26.3887 102.732 27.2266ZM110.801 31.1055C109.307 31.1055 108.141 29.9277 108.141 27.7363C108.141 25.4863 109.354 24.3672 110.789 24.3672C111.879 24.3672 112.412 25.0234 112.646 25.5625H112.705V22.2695H114.539V31H112.729V29.9512H112.646C112.4 30.4961 111.85 31.1055 110.801 31.1055ZM111.381 29.6465C112.242 29.6465 112.74 28.8848 112.74 27.7305C112.74 26.5703 112.254 25.832 111.381 25.832C110.496 25.832 110.027 26.6055 110.027 27.7305C110.027 28.8613 110.502 29.6465 111.381 29.6465ZM118.646 31.1289C117.041 31.1289 115.939 30.4141 115.711 29.1895L117.422 28.9023C117.586 29.5 117.99 29.8047 118.705 29.8047C119.35 29.8047 119.748 29.5352 119.748 29.1602C119.748 28.8262 119.479 28.627 118.91 28.5098L117.779 28.2812C116.508 28.0234 115.881 27.4023 115.881 26.4121C115.881 25.1465 116.982 24.3672 118.664 24.3672C120.246 24.3672 121.201 25.0527 121.441 26.1367L119.818 26.4121C119.684 25.9668 119.309 25.6738 118.699 25.6738C118.143 25.6738 117.715 25.9258 117.715 26.3008C117.715 26.6113 117.926 26.834 118.529 26.957L119.725 27.1914C121.002 27.4492 121.617 28.0234 121.617 28.9609C121.617 30.2676 120.387 31.1289 118.646 31.1289Z" fill="#333238"/>
<rect x="13" y="43" width="318" height="48" rx="4" fill="#ECECEF"/>
<path d="M25.7305 53.3359L22.4492 65.5312H21.3145L24.5957 53.3359H25.7305ZM30.1328 56.3574V57.4102H26.1816V56.3574H30.1328ZM27.3301 54.5391H28.5605V62.0176C28.5605 62.7012 28.8135 63.002 29.4629 63.002C29.6201 63.002 29.8867 62.9609 30.0918 62.9199L30.3447 63.959C30.0918 64.0479 29.7432 64.0957 29.4287 64.0957C28.1094 64.0957 27.3301 63.3643 27.3301 62.1133V54.5391ZM31.7051 64V56.3574H32.8945V57.5332H32.9766C33.2568 56.7607 34.0498 56.248 34.959 56.248C35.1367 56.248 35.4375 56.2617 35.5811 56.2686V57.5059C35.5059 57.4922 35.1709 57.4375 34.8428 57.4375C33.7422 57.4375 32.9355 58.1826 32.9355 59.2148V64H31.7051ZM39.8604 64.1641C37.7822 64.1641 36.3809 62.585 36.3809 60.2266C36.3809 57.834 37.7822 56.2617 39.8604 56.2617C41.9453 56.2617 43.3535 57.834 43.3535 60.2266C43.3535 62.585 41.9453 64.1641 39.8604 64.1641ZM39.8604 63.0635C41.4053 63.0635 42.1094 61.7305 42.1094 60.2266C42.1094 58.709 41.4053 57.3623 39.8604 57.3623C38.3359 57.3623 37.6318 58.7021 37.6318 60.2266C37.6318 61.7305 38.3359 63.0635 39.8604 63.0635ZM47.7354 64.0957C46.1904 64.0957 45.1445 63.1455 45.1445 61.2109V56.3574H46.375V61.1084C46.375 62.2842 47.0381 62.9883 48.1045 62.9883C49.1982 62.9883 50.0254 62.2432 50.0254 60.9375V56.3574H51.2627V64H50.0732V62.1475H50.2373C49.7656 63.583 48.8564 64.0957 47.7354 64.0957ZM56.9775 64.1641C55.5215 64.1641 55.0088 63.2412 54.7559 62.8174H54.6191V64H53.4297V53.8145H54.6602V57.5811H54.7559C55.0088 57.1777 55.4805 56.2617 56.9707 56.2617C58.8779 56.2617 60.2109 57.7793 60.2109 60.1992C60.2109 62.6328 58.8848 64.1641 56.9775 64.1641ZM56.793 63.0635C58.2217 63.0635 58.96 61.792 58.96 60.1855C58.96 58.5996 58.2422 57.3623 56.793 57.3623C55.3848 57.3623 54.6465 58.4971 54.6465 60.1855C54.6465 61.8877 55.4053 63.0635 56.793 63.0635ZM63.7178 64.0547C62.5693 64.0547 62.002 63.4121 62.002 62.3047V53.8145H63.2324V61.9971C63.2324 62.7012 63.3555 62.9541 63.8682 62.9541C64.1348 62.9541 64.2441 62.9336 64.3604 62.8994L64.6064 63.9385C64.3877 64 64.0459 64.0547 63.7178 64.0547ZM68.8652 64.1641C66.6504 64.1641 65.2832 62.5918 65.2832 60.2402C65.2832 57.8955 66.6367 56.2617 68.7217 56.2617C70.3418 56.2617 72.0508 57.2598 72.0508 60.083V60.5957H66.1172V59.5566H71.3877L70.8135 59.9395C70.8135 58.4355 70.1025 57.3555 68.7217 57.3555C67.3408 57.3555 66.5273 58.4971 66.5273 59.7412V60.4316C66.5273 62.1338 67.4707 63.0703 68.8721 63.0703C69.7744 63.0703 70.4512 62.6738 70.7383 61.8945L71.9277 62.2227C71.5723 63.3779 70.4307 64.1641 68.8652 64.1641ZM76.4121 64.1641C74.8398 64.1641 73.7461 63.4668 73.4727 62.1475L74.6416 61.8672C74.8604 62.708 75.4824 63.084 76.3984 63.084C77.4648 63.084 78.1484 62.5576 78.1484 61.9287C78.1484 61.4023 77.7793 61.0537 77.0273 60.876L75.7559 60.5752C74.3682 60.2471 73.7051 59.5635 73.7051 58.4902C73.7051 57.1777 74.9082 56.2617 76.5352 56.2617C78.1074 56.2617 78.9346 57.0273 79.2832 58.1006L78.1689 58.3877C77.957 57.8408 77.5264 57.3076 76.542 57.3076C75.6328 57.3076 74.9492 57.7793 74.9492 58.415C74.9492 58.9824 75.3389 59.2969 76.2344 59.5088L77.3896 59.7822C78.7773 60.1104 79.4268 60.8008 79.4268 61.8467C79.4268 63.1865 78.2031 64.1641 76.4121 64.1641ZM82.4414 59.4199V64H81.2109V53.8145H82.4414V58.21H82.2295C82.6943 56.8018 83.583 56.2617 84.7383 56.2617C86.2832 56.2617 87.3291 57.2119 87.3291 59.1465V64H86.0918V59.249C86.0918 58.0732 85.4355 57.3691 84.3691 57.3691C83.2686 57.3691 82.4414 58.1143 82.4414 59.4199ZM92.6064 64.1641C90.5283 64.1641 89.127 62.585 89.127 60.2266C89.127 57.834 90.5283 56.2617 92.6064 56.2617C94.6914 56.2617 96.0996 57.834 96.0996 60.2266C96.0996 62.585 94.6914 64.1641 92.6064 64.1641ZM92.6064 63.0635C94.1514 63.0635 94.8555 61.7305 94.8555 60.2266C94.8555 58.709 94.1514 57.3623 92.6064 57.3623C91.082 57.3623 90.3779 58.7021 90.3779 60.2266C90.3779 61.7305 91.082 63.0635 92.6064 63.0635ZM101.001 64.1641C98.9229 64.1641 97.5215 62.585 97.5215 60.2266C97.5215 57.834 98.9229 56.2617 101.001 56.2617C103.086 56.2617 104.494 57.834 104.494 60.2266C104.494 62.585 103.086 64.1641 101.001 64.1641ZM101.001 63.0635C102.546 63.0635 103.25 61.7305 103.25 60.2266C103.25 58.709 102.546 57.3623 101.001 57.3623C99.4766 57.3623 98.7725 58.7021 98.7725 60.2266C98.7725 61.7305 99.4766 63.0635 101.001 63.0635ZM109.293 56.3574V57.4102H105.342V56.3574H109.293ZM106.49 54.5391H107.721V62.0176C107.721 62.7012 107.974 63.002 108.623 63.002C108.78 63.002 109.047 62.9609 109.252 62.9199L109.505 63.959C109.252 64.0479 108.903 64.0957 108.589 64.0957C107.27 64.0957 106.49 63.3643 106.49 62.1133V54.5391Z" fill="#333238"/>
<path d="M114.742 59.998V59.2598L120.273 56.4707V57.6191L116.066 59.6172L116.102 59.5469V59.7109L116.066 59.6523L120.273 61.6504V62.7871L114.742 59.998ZM126.139 64.1406C124.07 64.1406 122.723 62.8281 122.723 61.0293V55.2695H123.836V60.9414C123.836 62.1953 124.709 63.1094 126.139 63.1094C127.562 63.1094 128.43 62.1953 128.43 60.9414V55.2695H129.543V61.0293C129.543 62.8281 128.195 64.1406 126.139 64.1406ZM131.652 64V55.2695H134.641C136.68 55.2695 137.617 56.4062 137.617 57.9648C137.617 59.5234 136.68 60.6133 134.646 60.6133H132.273V59.623H134.594C135.971 59.623 136.51 58.9902 136.51 57.9648C136.51 56.9277 135.971 56.248 134.582 56.248H132.766V64H131.652ZM136.668 64L134.559 60.0684H135.812L137.957 64H136.668ZM139.375 64V55.2695H140.488V63.0156H144.531V64H139.375ZM152.025 59.998L146.494 62.7871V61.6504L150.707 59.6523L150.666 59.7109V59.5469L150.707 59.6172L146.494 57.6191V56.4707L152.025 59.2598V59.998Z" fill="#535158"/>
<path d="M24.8496 79.1523C22.957 79.1523 21.7793 78.1797 21.6797 76.7148H22.8223C22.9102 77.7051 23.8242 78.1562 24.8496 78.1562C26.0332 78.1562 26.9355 77.5352 26.9355 76.6035C26.9355 75.7598 26.1387 75.4492 25.207 75.1855L24.1523 74.8867C22.7461 74.4883 21.9258 73.7676 21.9258 72.6074C21.9258 71.1309 23.2383 70.1523 24.9258 70.1523C26.6484 70.1523 27.8496 71.1543 27.9023 72.4727H26.8125C26.7129 71.623 25.9277 71.1367 24.8906 71.1367C23.7598 71.1367 23.0098 71.7344 23.0098 72.5547C23.0098 73.4688 24.0352 73.791 24.6738 73.9668L25.5469 74.207C26.4844 74.4648 28.0195 74.9922 28.0195 76.6211C28.0195 78.0508 26.8652 79.1523 24.8496 79.1523ZM31.8457 79.082C30.5215 79.082 29.625 78.2676 29.625 76.6094V72.4492H30.6797V76.5215C30.6797 77.5293 31.248 78.1328 32.1621 78.1328C33.0996 78.1328 33.8086 77.4941 33.8086 76.375V72.4492H34.8691V79H33.8496V77.4121H33.9902C33.5859 78.6426 32.8066 79.082 31.8457 79.082ZM39.3809 81.5898C37.9277 81.5898 37.0898 80.9746 36.6855 80.2539L37.541 79.7031C37.8164 80.084 38.2266 80.6699 39.3809 80.6699C40.4238 80.6699 41.1797 80.1895 41.1797 79.1113V77.7988H41.0801C40.8574 78.1738 40.4414 78.8945 39.1758 78.8945C37.6055 78.8945 36.4102 77.752 36.4102 75.6953C36.4102 73.668 37.5645 72.3672 39.1992 72.3672C40.4648 72.3672 40.8867 73.1465 41.1094 73.498H41.209V72.4492H42.2344V79.1699C42.2344 80.8633 40.9746 81.5898 39.3809 81.5898ZM39.3516 77.957C40.541 77.957 41.1914 77.1016 41.1914 75.6719C41.1914 74.2832 40.5586 73.3105 39.3516 73.3105C38.1035 73.3105 37.4824 74.3652 37.4824 75.6719C37.4824 77.0195 38.1211 77.957 39.3516 77.957ZM46.7402 81.5898C45.2871 81.5898 44.4492 80.9746 44.0449 80.2539L44.9004 79.7031C45.1758 80.084 45.5859 80.6699 46.7402 80.6699C47.7832 80.6699 48.5391 80.1895 48.5391 79.1113V77.7988H48.4395C48.2168 78.1738 47.8008 78.8945 46.5352 78.8945C44.9648 78.8945 43.7695 77.752 43.7695 75.6953C43.7695 73.668 44.9238 72.3672 46.5586 72.3672C47.8242 72.3672 48.2461 73.1465 48.4688 73.498H48.5684V72.4492H49.5938V79.1699C49.5938 80.8633 48.334 81.5898 46.7402 81.5898ZM46.7109 77.957C47.9004 77.957 48.5508 77.1016 48.5508 75.6719C48.5508 74.2832 47.918 73.3105 46.7109 73.3105C45.4629 73.3105 44.8418 74.3652 44.8418 75.6719C44.8418 77.0195 45.4805 77.957 46.7109 77.957ZM54.1992 79.1406C52.3008 79.1406 51.1289 77.793 51.1289 75.7773C51.1289 73.7676 52.2891 72.3672 54.0762 72.3672C55.4648 72.3672 56.9297 73.2227 56.9297 75.6426V76.082H51.8438V75.1914H56.3613L55.8691 75.5195C55.8691 74.2305 55.2598 73.3047 54.0762 73.3047C52.8926 73.3047 52.1953 74.2832 52.1953 75.3496V75.9414C52.1953 77.4004 53.0039 78.2031 54.2051 78.2031C54.9785 78.2031 55.5586 77.8633 55.8047 77.1953L56.8242 77.4766C56.5195 78.4668 55.541 79.1406 54.1992 79.1406ZM60.668 79.1406C59.3203 79.1406 58.3828 78.543 58.1484 77.4121L59.1504 77.1719C59.3379 77.8926 59.8711 78.2148 60.6562 78.2148C61.5703 78.2148 62.1562 77.7637 62.1562 77.2246C62.1562 76.7734 61.8398 76.4746 61.1953 76.3223L60.1055 76.0645C58.916 75.7832 58.3477 75.1973 58.3477 74.2773C58.3477 73.1523 59.3789 72.3672 60.7734 72.3672C62.1211 72.3672 62.8301 73.0234 63.1289 73.9434L62.1738 74.1895C61.9922 73.7207 61.623 73.2637 60.7793 73.2637C60 73.2637 59.4141 73.668 59.4141 74.2129C59.4141 74.6992 59.748 74.9688 60.5156 75.1504L61.5059 75.3848C62.6953 75.666 63.252 76.2578 63.252 77.1543C63.252 78.3027 62.2031 79.1406 60.668 79.1406ZM67.3594 72.4492V73.3516H63.9727V72.4492H67.3594ZM64.957 70.8906H66.0117V77.3008C66.0117 77.8867 66.2285 78.1445 66.7852 78.1445C66.9199 78.1445 67.1484 78.1094 67.3242 78.0742L67.541 78.9648C67.3242 79.041 67.0254 79.082 66.7559 79.082C65.625 79.082 64.957 78.4551 64.957 77.3828V70.8906ZM73.916 79.1523C72.6738 79.1523 71.6836 78.4258 71.6836 77.1367C71.6836 75.6367 73.0195 75.3613 74.2324 75.209C75.3984 75.0625 75.9141 75.0977 75.9141 74.6113V74.5762C75.9141 73.7617 75.4512 73.293 74.543 73.293C73.5996 73.293 73.0898 73.7969 72.8848 74.2539L71.8711 73.9199C72.375 72.7305 73.5 72.3672 74.5137 72.3672C75.3926 72.3672 76.9688 72.6367 76.9688 74.6816V79H75.9316V78.1094H75.8613C75.6387 78.5723 75.0234 79.1523 73.916 79.1523ZM74.0977 78.2207C75.2637 78.2207 75.9141 77.4355 75.9141 76.6328V75.7246C75.7383 75.9297 74.5898 76.0469 74.1855 76.0996C73.418 76.1992 72.7441 76.4453 72.7441 77.1895C72.7441 77.8691 73.3125 78.2207 74.0977 78.2207ZM82.6641 79V71.5762C82.6641 70.4395 83.5723 69.8594 84.5273 69.8594C84.7383 69.8594 84.9258 69.877 85.0781 69.9062L84.9199 70.8613C84.8438 70.8438 84.7559 70.8379 84.6504 70.8379C84 70.8379 83.7188 71.1777 83.7188 71.8105V79H82.6641ZM81.3867 73.3516V72.4492H86.5781V73.3516H81.3867ZM86.2266 79V72.4492H87.2812V79H86.2266ZM86.7598 71.377C86.3613 71.377 86.0273 71.0664 86.0273 70.6797C86.0273 70.293 86.3613 69.9824 86.7598 69.9824C87.1641 69.9824 87.498 70.293 87.498 70.6797C87.498 71.0664 87.1641 71.377 86.7598 71.377ZM88.5879 79L91.1719 75.2324L91.166 76.041L88.7227 72.4492H89.9531L90.7676 73.7207C91.1895 74.377 91.4648 74.9395 91.793 75.4668H91.2422C91.5762 74.9395 91.8047 74.377 92.2324 73.7207L93.0645 72.4492H94.2715L91.8164 76.0879V75.3086L94.377 79H93.1523L92.1914 77.5293C91.7754 76.8906 91.5117 76.3516 91.1895 75.8418H91.7461C91.4238 76.3516 91.2012 76.8906 90.7793 77.5293L89.8066 79H88.5879ZM101.637 72.4492V73.3516H98.25V72.4492H101.637ZM99.2344 70.8906H100.289V77.3008C100.289 77.8867 100.506 78.1445 101.062 78.1445C101.197 78.1445 101.426 78.1094 101.602 78.0742L101.818 78.9648C101.602 79.041 101.303 79.082 101.033 79.082C99.9023 79.082 99.2344 78.4551 99.2344 77.3828V70.8906ZM105.533 79.1406C103.752 79.1406 102.551 77.7871 102.551 75.7656C102.551 73.7148 103.752 72.3672 105.533 72.3672C107.32 72.3672 108.527 73.7148 108.527 75.7656C108.527 77.7871 107.32 79.1406 105.533 79.1406ZM105.533 78.1973C106.857 78.1973 107.461 77.0547 107.461 75.7656C107.461 74.4648 106.857 73.3105 105.533 73.3105C104.227 73.3105 103.623 74.459 103.623 75.7656C103.623 77.0547 104.227 78.1973 105.533 78.1973ZM115.271 79.1523C114.029 79.1523 113.039 78.4258 113.039 77.1367C113.039 75.6367 114.375 75.3613 115.588 75.209C116.754 75.0625 117.27 75.0977 117.27 74.6113V74.5762C117.27 73.7617 116.807 73.293 115.898 73.293C114.955 73.293 114.445 73.7969 114.24 74.2539L113.227 73.9199C113.73 72.7305 114.855 72.3672 115.869 72.3672C116.748 72.3672 118.324 72.6367 118.324 74.6816V79H117.287V78.1094H117.217C116.994 78.5723 116.379 79.1523 115.271 79.1523ZM115.453 78.2207C116.619 78.2207 117.27 77.4355 117.27 76.6328V75.7246C117.094 75.9297 115.945 76.0469 115.541 76.0996C114.773 76.1992 114.1 76.4453 114.1 77.1895C114.1 77.8691 114.668 78.2207 115.453 78.2207ZM125.443 79L122.941 72.4492H124.096L125.49 76.334C125.783 77.1426 125.965 77.9512 126.193 78.7012H125.807C126.035 77.9512 126.211 77.1426 126.504 76.334L127.898 72.4492H129.053L126.551 79H125.443ZM132.521 79.082C131.197 79.082 130.301 78.2676 130.301 76.6094V72.4492H131.355V76.5215C131.355 77.5293 131.924 78.1328 132.838 78.1328C133.775 78.1328 134.484 77.4941 134.484 76.375V72.4492H135.545V79H134.525V77.4121H134.666C134.262 78.6426 133.482 79.082 132.521 79.082ZM138.873 79.0469C137.889 79.0469 137.402 78.4961 137.402 77.5469V70.2695H138.457V77.2832C138.457 77.8867 138.562 78.1035 139.002 78.1035C139.23 78.1035 139.324 78.0859 139.424 78.0566L139.635 78.9473C139.447 79 139.154 79.0469 138.873 79.0469ZM141.762 75.0742V79H140.707V72.4492H141.721L141.727 74.0371H141.58C141.979 72.8301 142.74 72.3672 143.73 72.3672C145.055 72.3672 145.951 73.1816 145.951 74.8398V79H144.891V74.9277C144.891 73.9199 144.328 73.3164 143.414 73.3164C142.471 73.3164 141.762 73.9551 141.762 75.0742ZM150.562 79.1406C148.664 79.1406 147.492 77.793 147.492 75.7773C147.492 73.7676 148.652 72.3672 150.439 72.3672C151.828 72.3672 153.293 73.2227 153.293 75.6426V76.082H148.207V75.1914H152.725L152.232 75.5195C152.232 74.2305 151.623 73.3047 150.439 73.3047C149.256 73.3047 148.559 74.2832 148.559 75.3496V75.9414C148.559 77.4004 149.367 78.2031 150.568 78.2031C151.342 78.2031 151.922 77.8633 152.168 77.1953L153.188 77.4766C152.883 78.4668 151.904 79.1406 150.562 79.1406ZM154.805 79V72.4492H155.824V73.457H155.895C156.135 72.7949 156.814 72.3555 157.594 72.3555C157.746 72.3555 158.004 72.3672 158.127 72.373V73.4336C158.062 73.4219 157.775 73.375 157.494 73.375C156.551 73.375 155.859 74.0137 155.859 74.8984V79H154.805ZM161.162 79.1523C159.92 79.1523 158.93 78.4258 158.93 77.1367C158.93 75.6367 160.266 75.3613 161.479 75.209C162.645 75.0625 163.16 75.0977 163.16 74.6113V74.5762C163.16 73.7617 162.697 73.293 161.789 73.293C160.846 73.293 160.336 73.7969 160.131 74.2539L159.117 73.9199C159.621 72.7305 160.746 72.3672 161.76 72.3672C162.639 72.3672 164.215 72.6367 164.215 74.6816V79H163.178V78.1094H163.107C162.885 78.5723 162.27 79.1523 161.162 79.1523ZM161.344 78.2207C162.51 78.2207 163.16 77.4355 163.16 76.6328V75.7246C162.984 75.9297 161.836 76.0469 161.432 76.0996C160.664 76.1992 159.99 76.4453 159.99 77.1895C159.99 77.8691 160.559 78.2207 161.344 78.2207ZM169.107 79.1406C167.859 79.1406 167.42 78.3496 167.203 77.9863H167.086V79H166.066V70.2695H167.121V73.498H167.203C167.42 73.1523 167.824 72.3672 169.102 72.3672C170.736 72.3672 171.879 73.668 171.879 75.7422C171.879 77.8281 170.742 79.1406 169.107 79.1406ZM168.949 78.1973C170.174 78.1973 170.807 77.1074 170.807 75.7305C170.807 74.3711 170.191 73.3105 168.949 73.3105C167.742 73.3105 167.109 74.2832 167.109 75.7305C167.109 77.1895 167.76 78.1973 168.949 78.1973ZM173.414 79V72.4492H174.469V79H173.414ZM173.947 71.377C173.549 71.377 173.215 71.0664 173.215 70.6797C173.215 70.293 173.549 69.9824 173.947 69.9824C174.352 69.9824 174.686 70.293 174.686 70.6797C174.686 71.0664 174.352 71.377 173.947 71.377ZM177.791 79.0469C176.807 79.0469 176.32 78.4961 176.32 77.5469V70.2695H177.375V77.2832C177.375 77.8867 177.48 78.1035 177.92 78.1035C178.148 78.1035 178.242 78.0859 178.342 78.0566L178.553 78.9473C178.365 79 178.072 79.0469 177.791 79.0469ZM179.625 79V72.4492H180.68V79H179.625ZM180.158 71.377C179.76 71.377 179.426 71.0664 179.426 70.6797C179.426 70.293 179.76 69.9824 180.158 69.9824C180.562 69.9824 180.896 70.293 180.896 70.6797C180.896 71.0664 180.562 71.377 180.158 71.377ZM185.109 72.4492V73.3516H181.723V72.4492H185.109ZM182.707 70.8906H183.762V77.3008C183.762 77.8867 183.979 78.1445 184.535 78.1445C184.67 78.1445 184.898 78.1094 185.074 78.0742L185.291 78.9648C185.074 79.041 184.775 79.082 184.506 79.082C183.375 79.082 182.707 78.4551 182.707 77.3828V70.8906ZM186.586 81.373L186.855 80.459L186.967 80.4883C187.611 80.6582 188.074 80.5176 188.396 79.5801L188.584 79.0352L186.082 72.4492H187.236L188.631 76.334C188.924 77.1484 189.1 77.9512 189.328 78.7012H188.941C189.164 77.9512 189.346 77.1426 189.639 76.334L191.045 72.4492H192.193L189.316 79.9785C188.918 81.0215 188.285 81.4961 187.359 81.4961C186.984 81.4961 186.697 81.4258 186.586 81.373ZM192.738 81.1035L193.254 77.7812H194.461L193.547 81.1035H192.738ZM202.412 79.1406C200.631 79.1406 199.43 77.7871 199.43 75.7656C199.43 73.7148 200.631 72.3672 202.412 72.3672C203.678 72.3672 204.709 73.0352 205.066 74.1777L204.053 74.4648C203.859 73.791 203.273 73.3105 202.412 73.3105C201.105 73.3105 200.502 74.459 200.502 75.7656C200.502 77.0547 201.105 78.1973 202.412 78.1973C203.291 78.1973 203.889 77.6992 204.082 76.9902L205.09 77.2773C204.738 78.4434 203.695 79.1406 202.412 79.1406ZM209.268 79.1406C207.486 79.1406 206.285 77.7871 206.285 75.7656C206.285 73.7148 207.486 72.3672 209.268 72.3672C211.055 72.3672 212.262 73.7148 212.262 75.7656C212.262 77.7871 211.055 79.1406 209.268 79.1406ZM209.268 78.1973C210.592 78.1973 211.195 77.0547 211.195 75.7656C211.195 74.4648 210.592 73.3105 209.268 73.3105C207.961 73.3105 207.357 74.459 207.357 75.7656C207.357 77.0547 207.961 78.1973 209.268 78.1973ZM216.252 79.1406C214.617 79.1406 213.48 77.8281 213.48 75.7422C213.48 73.668 214.623 72.3672 216.258 72.3672C217.535 72.3672 217.939 73.1523 218.156 73.498H218.238V70.2695H219.293V79H218.273V77.9863H218.156C217.939 78.3496 217.5 79.1406 216.252 79.1406ZM216.41 78.1973C217.6 78.1973 218.25 77.1895 218.25 75.7305C218.25 74.2832 217.617 73.3105 216.41 73.3105C215.168 73.3105 214.553 74.3711 214.553 75.7305C214.553 77.1074 215.186 78.1973 216.41 78.1973ZM223.898 79.1406C222 79.1406 220.828 77.793 220.828 75.7773C220.828 73.7676 221.988 72.3672 223.775 72.3672C225.164 72.3672 226.629 73.2227 226.629 75.6426V76.082H221.543V75.1914H226.061L225.568 75.5195C225.568 74.2305 224.959 73.3047 223.775 73.3047C222.592 73.3047 221.895 74.2832 221.895 75.3496V75.9414C221.895 77.4004 222.703 78.2031 223.904 78.2031C224.678 78.2031 225.258 77.8633 225.504 77.1953L226.523 77.4766C226.219 78.4668 225.24 79.1406 223.898 79.1406ZM227.965 81.1035L228.48 77.7812H229.688L228.773 81.1035H227.965ZM237.639 79.1406C235.857 79.1406 234.656 77.7871 234.656 75.7656C234.656 73.7148 235.857 72.3672 237.639 72.3672C239.426 72.3672 240.633 73.7148 240.633 75.7656C240.633 77.7871 239.426 79.1406 237.639 79.1406ZM237.639 78.1973C238.963 78.1973 239.566 77.0547 239.566 75.7656C239.566 74.4648 238.963 73.3105 237.639 73.3105C236.332 73.3105 235.729 74.459 235.729 75.7656C235.729 77.0547 236.332 78.1973 237.639 78.1973ZM242.168 79V72.4492H243.188V73.457H243.258C243.498 72.7949 244.178 72.3555 244.957 72.3555C245.109 72.3555 245.367 72.3672 245.49 72.373V73.4336C245.426 73.4219 245.139 73.375 244.857 73.375C243.914 73.375 243.223 74.0137 243.223 74.8984V79H242.168ZM250.066 81.4492V72.4492H251.086V73.498H251.203C251.42 73.1523 251.824 72.3672 253.102 72.3672C254.736 72.3672 255.879 73.668 255.879 75.7422C255.879 77.8281 254.742 79.1406 253.107 79.1406C251.859 79.1406 251.42 78.3496 251.203 77.9863H251.121V81.4492H250.066ZM252.949 78.1973C254.174 78.1973 254.807 77.1074 254.807 75.7305C254.807 74.3711 254.191 73.3105 252.949 73.3105C251.742 73.3105 251.109 74.2832 251.109 75.7305C251.109 77.1895 251.76 78.1973 252.949 78.1973ZM257.414 79V72.4492H258.469V79H257.414ZM257.947 71.377C257.549 71.377 257.215 71.0664 257.215 70.6797C257.215 70.293 257.549 69.9824 257.947 69.9824C258.352 69.9824 258.686 70.293 258.686 70.6797C258.686 71.0664 258.352 71.377 257.947 71.377ZM260.32 81.4492V72.4492H261.34V73.498H261.457C261.674 73.1523 262.078 72.3672 263.355 72.3672C264.99 72.3672 266.133 73.668 266.133 75.7422C266.133 77.8281 264.996 79.1406 263.361 79.1406C262.113 79.1406 261.674 78.3496 261.457 77.9863H261.375V81.4492H260.32ZM263.203 78.1973C264.428 78.1973 265.061 77.1074 265.061 75.7305C265.061 74.3711 264.445 73.3105 263.203 73.3105C261.996 73.3105 261.363 74.2832 261.363 75.7305C261.363 77.1895 262.014 78.1973 263.203 78.1973ZM270.422 79.1406C268.523 79.1406 267.352 77.793 267.352 75.7773C267.352 73.7676 268.512 72.3672 270.299 72.3672C271.688 72.3672 273.152 73.2227 273.152 75.6426V76.082H268.066V75.1914H272.584L272.092 75.5195C272.092 74.2305 271.482 73.3047 270.299 73.3047C269.115 73.3047 268.418 74.2832 268.418 75.3496V75.9414C268.418 77.4004 269.227 78.2031 270.428 78.2031C271.201 78.2031 271.781 77.8633 272.027 77.1953L273.047 77.4766C272.742 78.4668 271.764 79.1406 270.422 79.1406ZM276.135 79.0469C275.15 79.0469 274.664 78.4961 274.664 77.5469V70.2695H275.719V77.2832C275.719 77.8867 275.824 78.1035 276.264 78.1035C276.492 78.1035 276.586 78.0859 276.686 78.0566L276.896 78.9473C276.709 79 276.416 79.0469 276.135 79.0469ZM277.969 79V72.4492H279.023V79H277.969ZM278.502 71.377C278.104 71.377 277.77 71.0664 277.77 70.6797C277.77 70.293 278.104 69.9824 278.502 69.9824C278.906 69.9824 279.24 70.293 279.24 70.6797C279.24 71.0664 278.906 71.377 278.502 71.377ZM281.93 75.0742V79H280.875V72.4492H281.889L281.895 74.0371H281.748C282.146 72.8301 282.908 72.3672 283.898 72.3672C285.223 72.3672 286.119 73.1816 286.119 74.8398V79H285.059V74.9277C285.059 73.9199 284.496 73.3164 283.582 73.3164C282.639 73.3164 281.93 73.9551 281.93 75.0742ZM290.73 79.1406C288.832 79.1406 287.66 77.793 287.66 75.7773C287.66 73.7676 288.82 72.3672 290.607 72.3672C291.996 72.3672 293.461 73.2227 293.461 75.6426V76.082H288.375V75.1914H292.893L292.4 75.5195C292.4 74.2305 291.791 73.3047 290.607 73.3047C289.424 73.3047 288.727 74.2832 288.727 75.3496V75.9414C288.727 77.4004 289.535 78.2031 290.736 78.2031C291.51 78.2031 292.09 77.8633 292.336 77.1953L293.355 77.4766C293.051 78.4668 292.072 79.1406 290.73 79.1406Z" fill="#535158"/>
</g>
<defs>
<filter id="filter0_dd_37095_21846" x="0" y="0" width="344" height="106" filterUnits="userSpaceOnUse" color-interpolation-filters="sRGB">
<feFlood flood-opacity="0" result="BackgroundImageFix"/>
<feColorMatrix in="SourceAlpha" type="matrix" values="0 0 0 0 0 0 0 0 0 0 0 0 0 0 0 0 0 0 127 0" result="hardAlpha"/>
<feOffset/>
<feGaussianBlur stdDeviation="1"/>
<feComposite in2="hardAlpha" operator="out"/>
<feColorMatrix type="matrix" values="0 0 0 0 0.121569 0 0 0 0 0.117647 0 0 0 0 0.141176 0 0 0 0.16 0"/>
<feBlend mode="normal" in2="BackgroundImageFix" result="effect1_dropShadow_37095_21846"/>
<feColorMatrix in="SourceAlpha" type="matrix" values="0 0 0 0 0 0 0 0 0 0 0 0 0 0 0 0 0 0 127 0" result="hardAlpha"/>
<feOffset dy="2"/>
<feGaussianBlur stdDeviation="4"/>
<feComposite in2="hardAlpha" operator="out"/>
<feColorMatrix type="matrix" values="0 0 0 0 0.121569 0 0 0 0 0.117647 0 0 0 0 0.141176 0 0 0 0.16 0"/>
<feBlend mode="normal" in2="effect1_dropShadow_37095_21846" result="effect2_dropShadow_37095_21846"/>
<feBlend mode="normal" in="SourceGraphic" in2="effect2_dropShadow_37095_21846" result="shape"/>
</filter>
</defs>
</svg>
