<svg width="344" height="238" viewBox="0 0 344 238" fill="none" xmlns="http://www.w3.org/2000/svg">
<g filter="url(#filter0_dd_37136_1544)">
<rect x="8" y="6" width="328" height="222" rx="8" fill="white" shape-rendering="crispEdges"/>
<rect x="8.5" y="6.5" width="327" height="221" rx="7.5" stroke="#BFBFBF" shape-rendering="crispEdges"/>
<rect width="326" height="30" transform="translate(9 11)" fill="white"/>
<path d="M25.0078 31.1289C22.8809 31.1289 21.5215 30.1445 21.4746 28.2461H23.2793C23.3379 29.125 24.0234 29.5586 24.9844 29.5586C25.9102 29.5586 26.5137 29.1309 26.5137 28.498C26.5137 27.9238 25.9863 27.6543 25.0371 27.4258L24.0879 27.1914C22.5996 26.834 21.7031 26.0898 21.7031 24.8008C21.7031 23.2188 23.1035 22.1523 25.0195 22.1523C26.9824 22.1523 28.2539 23.2363 28.2773 24.7949H26.4785C26.4141 24.1094 25.8809 23.7168 25.0078 23.7168C24.1172 23.7168 23.625 24.127 23.625 24.6836C23.625 25.2988 24.2402 25.5742 24.9902 25.75L25.7695 25.9375C27.2988 26.2832 28.3945 27.0566 28.3945 28.5039C28.3945 30.1152 27.1348 31.1289 25.0078 31.1289ZM31.6055 31.041C30.2227 31.041 29.6016 30.4668 29.6016 29.2773V22.2695H31.4355V29.0371C31.4355 29.4414 31.5703 29.6113 31.916 29.6113C32.0977 29.6113 32.1855 29.5938 32.2617 29.5703L32.5488 30.8945C32.3613 30.959 32.0215 31.041 31.6055 31.041ZM35.1797 31.1289C33.9316 31.1289 33.0117 30.4727 33.0117 29.1719C33.0117 27.7129 34.1719 27.2734 35.4727 27.1504C36.5918 27.0449 37.0488 26.9922 37.0488 26.5703V26.541C37.0488 26.0137 36.6914 25.709 36.0586 25.709C35.4141 25.709 35.0039 26.0254 34.875 26.4473L33.1992 26.1836C33.5039 25.0527 34.5586 24.3672 36.0703 24.3672C37.5352 24.3672 38.8828 25.041 38.8828 26.582V31H37.1484V30.0918H37.0898C36.7617 30.7188 36.1348 31.1289 35.1797 31.1289ZM35.7129 29.8633C36.498 29.8633 37.0605 29.3418 37.0605 28.6621V27.9766C36.8438 28.1172 36.1934 28.2109 35.8125 28.2695C35.1738 28.3574 34.7637 28.6152 34.7637 29.1133C34.7637 29.6055 35.1562 29.8633 35.7129 29.8633ZM42.9902 31.1289C41.3848 31.1289 40.2832 30.4141 40.0547 29.1895L41.7656 28.9023C41.9297 29.5 42.334 29.8047 43.0488 29.8047C43.6934 29.8047 44.0918 29.5352 44.0918 29.1602C44.0918 28.8262 43.8223 28.627 43.2539 28.5098L42.123 28.2812C40.8516 28.0234 40.2246 27.4023 40.2246 26.4121C40.2246 25.1465 41.3262 24.3672 43.0078 24.3672C44.5898 24.3672 45.5449 25.0527 45.7852 26.1367L44.1621 26.4121C44.0273 25.9668 43.6523 25.6738 43.043 25.6738C42.4863 25.6738 42.0586 25.9258 42.0586 26.3008C42.0586 26.6113 42.2695 26.834 42.873 26.957L44.0684 27.1914C45.3457 27.4492 45.9609 28.0234 45.9609 28.9609C45.9609 30.2676 44.7305 31.1289 42.9902 31.1289ZM48.9551 27.2266V31H47.1211V22.2695H48.9199V26.0898H48.7793C49.1191 25.0176 49.7988 24.3672 50.918 24.3672C52.2832 24.3672 53.1797 25.3164 53.1797 26.834V31H51.3398V27.168C51.3398 26.3711 50.9062 25.8965 50.1855 25.8965C49.459 25.8965 48.9551 26.3887 48.9551 27.2266ZM60.3809 31.1289C58.3887 31.1289 57.1523 29.7695 57.1523 27.7539C57.1523 25.7266 58.3887 24.3672 60.3809 24.3672C61.9688 24.3672 63.0879 25.2227 63.3223 26.5879L61.6172 26.8984C61.4766 26.2188 61.0605 25.8027 60.3984 25.8027C59.5078 25.8027 59.0273 26.5762 59.0273 27.748C59.0273 28.9082 59.5078 29.6992 60.3984 29.6992C61.0605 29.6992 61.4941 29.2715 61.6289 28.5625L63.334 28.8672C63.0938 30.2676 61.9805 31.1289 60.3809 31.1289ZM67.4707 31.1289C65.4785 31.1289 64.2422 29.7695 64.2422 27.7539C64.2422 25.7266 65.4785 24.3672 67.4707 24.3672C69.4629 24.3672 70.6992 25.7266 70.6992 27.7539C70.6992 29.7695 69.4629 31.1289 67.4707 31.1289ZM67.4707 29.6992C68.3672 29.6992 68.8301 28.8789 68.8301 27.748C68.8301 26.6055 68.3672 25.8027 67.4707 25.8027C66.5801 25.8027 66.1172 26.6055 66.1172 27.748C66.1172 28.8789 66.5801 29.6992 67.4707 29.6992ZM71.8945 31V24.4492H73.5938L73.6875 26.1016H73.5586C73.8516 24.8711 74.6602 24.3555 75.5449 24.3555C76.4766 24.3555 77.0449 24.9355 77.3262 26.2188H77.1152C77.4141 24.9238 78.3398 24.3555 79.3418 24.3555C80.5488 24.3555 81.4336 25.1699 81.4336 26.582V31H79.5938V26.957C79.5938 26.2363 79.166 25.8789 78.5918 25.8789C77.9473 25.8789 77.5488 26.3301 77.5488 26.998V31H75.7793V26.916C75.7793 26.2832 75.3691 25.8789 74.7891 25.8789C74.1855 25.8789 73.7285 26.3008 73.7285 27.0625V31H71.8945ZM82.8984 31V24.4492H84.5977L84.6914 26.1016H84.5625C84.8555 24.8711 85.6641 24.3555 86.5488 24.3555C87.4805 24.3555 88.0488 24.9355 88.3301 26.2188H88.1191C88.418 24.9238 89.3438 24.3555 90.3457 24.3555C91.5527 24.3555 92.4375 25.1699 92.4375 26.582V31H90.5977V26.957C90.5977 26.2363 90.1699 25.8789 89.5957 25.8789C88.9512 25.8789 88.5527 26.3301 88.5527 26.998V31H86.7832V26.916C86.7832 26.2832 86.373 25.8789 85.793 25.8789C85.1895 25.8789 84.7324 26.3008 84.7324 27.0625V31H82.8984ZM95.7305 31.1289C94.4824 31.1289 93.5625 30.4727 93.5625 29.1719C93.5625 27.7129 94.7227 27.2734 96.0234 27.1504C97.1426 27.0449 97.5996 26.9922 97.5996 26.5703V26.541C97.5996 26.0137 97.2422 25.709 96.6094 25.709C95.9648 25.709 95.5547 26.0254 95.4258 26.4473L93.75 26.1836C94.0547 25.0527 95.1094 24.3672 96.6211 24.3672C98.0859 24.3672 99.4336 25.041 99.4336 26.582V31H97.6992V30.0918H97.6406C97.3125 30.7188 96.6855 31.1289 95.7305 31.1289ZM96.2637 29.8633C97.0488 29.8633 97.6113 29.3418 97.6113 28.6621V27.9766C97.3945 28.1172 96.7441 28.2109 96.3633 28.2695C95.7246 28.3574 95.3145 28.6152 95.3145 29.1133C95.3145 29.6055 95.707 29.8633 96.2637 29.8633ZM102.732 27.2266V31H100.898V24.4492H102.627L102.662 26.0898H102.557C102.896 25.0176 103.576 24.3672 104.695 24.3672C106.061 24.3672 106.957 25.3164 106.957 26.834V31H105.117V27.168C105.117 26.3711 104.684 25.8965 103.963 25.8965C103.236 25.8965 102.732 26.3887 102.732 27.2266ZM110.801 31.1055C109.307 31.1055 108.141 29.9277 108.141 27.7363C108.141 25.4863 109.354 24.3672 110.789 24.3672C111.879 24.3672 112.412 25.0234 112.646 25.5625H112.705V22.2695H114.539V31H112.729V29.9512H112.646C112.4 30.4961 111.85 31.1055 110.801 31.1055ZM111.381 29.6465C112.242 29.6465 112.74 28.8848 112.74 27.7305C112.74 26.5703 112.254 25.832 111.381 25.832C110.496 25.832 110.027 26.6055 110.027 27.7305C110.027 28.8613 110.502 29.6465 111.381 29.6465ZM118.646 31.1289C117.041 31.1289 115.939 30.4141 115.711 29.1895L117.422 28.9023C117.586 29.5 117.99 29.8047 118.705 29.8047C119.35 29.8047 119.748 29.5352 119.748 29.1602C119.748 28.8262 119.479 28.627 118.91 28.5098L117.779 28.2812C116.508 28.0234 115.881 27.4023 115.881 26.4121C115.881 25.1465 116.982 24.3672 118.664 24.3672C120.246 24.3672 121.201 25.0527 121.441 26.1367L119.818 26.4121C119.684 25.9668 119.309 25.6738 118.699 25.6738C118.143 25.6738 117.715 25.9258 117.715 26.3008C117.715 26.6113 117.926 26.834 118.529 26.957L119.725 27.1914C121.002 27.4492 121.617 28.0234 121.617 28.9609C121.617 30.2676 120.387 31.1289 118.646 31.1289Z" fill="#333238"/>
<rect x="9" y="43" width="326" height="48" rx="4" fill="white"/>
<path d="M25.7305 53.3359L22.4492 65.5312H21.3145L24.5957 53.3359H25.7305ZM29.7227 64.1641C28.1504 64.1641 27.0566 63.4668 26.7832 62.1475L27.9521 61.8672C28.1709 62.708 28.793 63.084 29.709 63.084C30.7754 63.084 31.459 62.5576 31.459 61.9287C31.459 61.4023 31.0898 61.0537 30.3379 60.876L29.0664 60.5752C27.6787 60.2471 27.0156 59.5635 27.0156 58.4902C27.0156 57.1777 28.2188 56.2617 29.8457 56.2617C31.418 56.2617 32.2451 57.0273 32.5938 58.1006L31.4795 58.3877C31.2676 57.8408 30.8369 57.3076 29.8525 57.3076C28.9434 57.3076 28.2598 57.7793 28.2598 58.415C28.2598 58.9824 28.6494 59.2969 29.5449 59.5088L30.7002 59.7822C32.0879 60.1104 32.7373 60.8008 32.7373 61.8467C32.7373 63.1865 31.5137 64.1641 29.7227 64.1641ZM37.1123 64.0957C35.5674 64.0957 34.5215 63.1455 34.5215 61.2109V56.3574H35.752V61.1084C35.752 62.2842 36.415 62.9883 37.4814 62.9883C38.5752 62.9883 39.4023 62.2432 39.4023 60.9375V56.3574H40.6396V64H39.4502V62.1475H39.6143C39.1426 63.583 38.2334 64.0957 37.1123 64.0957ZM42.8066 64V56.3574H44.0029L44.0098 58.0664H43.9141C44.2217 56.8291 45.1582 56.2207 46.1494 56.2207C47.2568 56.2207 47.9609 56.9727 48.166 58.0801H48.002C48.2754 56.9385 49.2871 56.2207 50.5039 56.2207C51.8301 56.2207 52.9102 57.0752 52.9102 58.8457V64H51.6729V58.8799C51.6729 57.7793 50.9551 57.3418 50.1348 57.3418C49.1025 57.3418 48.4736 58.0459 48.4736 59.0098V64H47.2432V58.7568C47.2432 57.9092 46.6074 57.3418 45.7461 57.3418C44.8506 57.3418 44.0371 57.9707 44.0371 59.1875V64H42.8066ZM55.0703 64V56.3574H56.2666L56.2734 58.0664H56.1777C56.4854 56.8291 57.4219 56.2207 58.4131 56.2207C59.5205 56.2207 60.2246 56.9727 60.4297 58.0801H60.2656C60.5391 56.9385 61.5508 56.2207 62.7676 56.2207C64.0938 56.2207 65.1738 57.0752 65.1738 58.8457V64H63.9365V58.8799C63.9365 57.7793 63.2188 57.3418 62.3984 57.3418C61.3662 57.3418 60.7373 58.0459 60.7373 59.0098V64H59.5068V58.7568C59.5068 57.9092 58.8711 57.3418 58.0098 57.3418C57.1143 57.3418 56.3008 57.9707 56.3008 59.1875V64H55.0703ZM69.4736 64.1777C68.0244 64.1777 66.8691 63.3301 66.8691 61.8262C66.8691 60.0762 68.4277 59.7549 69.8428 59.5771C71.2031 59.4062 71.8047 59.4473 71.8047 58.8799V58.8389C71.8047 57.8887 71.2646 57.3418 70.2051 57.3418C69.1045 57.3418 68.5098 57.9297 68.2705 58.4629L67.0879 58.0732C67.6758 56.6855 68.9883 56.2617 70.1709 56.2617C71.1963 56.2617 73.0352 56.5762 73.0352 58.9619V64H71.8252V62.9609H71.7432C71.4834 63.501 70.7656 64.1777 69.4736 64.1777ZM69.6855 63.0908C71.0459 63.0908 71.8047 62.1748 71.8047 61.2383V60.1787C71.5996 60.418 70.2598 60.5547 69.7881 60.6162C68.8926 60.7324 68.1064 61.0195 68.1064 61.8877C68.1064 62.6807 68.7695 63.0908 69.6855 63.0908ZM75.1953 64V56.3574H76.3848V57.5332H76.4668C76.7471 56.7607 77.54 56.248 78.4492 56.248C78.627 56.248 78.9277 56.2617 79.0713 56.2686V57.5059C78.9961 57.4922 78.6611 57.4375 78.333 57.4375C77.2324 57.4375 76.4258 58.1826 76.4258 59.2148V64H75.1953ZM80.6914 64V56.3574H81.9219V64H80.6914ZM81.3135 55.1064C80.8486 55.1064 80.459 54.7441 80.459 54.293C80.459 53.8418 80.8486 53.4795 81.3135 53.4795C81.7852 53.4795 82.1748 53.8418 82.1748 54.293C82.1748 54.7441 81.7852 55.1064 81.3135 55.1064ZM83.8633 64V63.084L88.1494 57.5742V57.499H84V56.3574H89.7354V57.335L85.5723 62.7832V62.8584H89.8721V64H83.8633ZM94.8281 64.1641C92.6133 64.1641 91.2461 62.5918 91.2461 60.2402C91.2461 57.8955 92.5996 56.2617 94.6846 56.2617C96.3047 56.2617 98.0137 57.2598 98.0137 60.083V60.5957H92.0801V59.5566H97.3506L96.7764 59.9395C96.7764 58.4355 96.0654 57.3555 94.6846 57.3555C93.3037 57.3555 92.4902 58.4971 92.4902 59.7412V60.4316C92.4902 62.1338 93.4336 63.0703 94.835 63.0703C95.7373 63.0703 96.4141 62.6738 96.7012 61.8945L97.8906 62.2227C97.5352 63.3779 96.3936 64.1641 94.8281 64.1641Z" fill="#333238"/>
<path d="M106.801 64L108.242 55.2695H109.127L107.697 64H106.801ZM102.834 61.5918L102.98 60.7129H109.52L109.373 61.5918H102.834ZM103.742 64L105.172 55.2695H106.057L104.627 64H103.742ZM103.35 58.5684L103.496 57.6777H110.023L109.889 58.5684H103.35ZM111.166 64V57.4492H112.221V64H111.166ZM111.699 56.377C111.301 56.377 110.967 56.0664 110.967 55.6797C110.967 55.293 111.301 54.9824 111.699 54.9824C112.104 54.9824 112.438 55.293 112.438 55.6797C112.438 56.0664 112.104 56.377 111.699 56.377ZM116.299 64.1406C114.951 64.1406 114.014 63.543 113.779 62.4121L114.781 62.1719C114.969 62.8926 115.502 63.2148 116.287 63.2148C117.201 63.2148 117.787 62.7637 117.787 62.2246C117.787 61.7734 117.471 61.4746 116.826 61.3223L115.736 61.0645C114.547 60.7832 113.979 60.1973 113.979 59.2773C113.979 58.1523 115.01 57.3672 116.404 57.3672C117.752 57.3672 118.461 58.0234 118.76 58.9434L117.805 59.1895C117.623 58.7207 117.254 58.2637 116.41 58.2637C115.631 58.2637 115.045 58.668 115.045 59.2129C115.045 59.6992 115.379 59.9688 116.146 60.1504L117.137 60.3848C118.326 60.666 118.883 61.2578 118.883 62.1543C118.883 63.3027 117.834 64.1406 116.299 64.1406ZM122.639 64.1406C121.291 64.1406 120.354 63.543 120.119 62.4121L121.121 62.1719C121.309 62.8926 121.842 63.2148 122.627 63.2148C123.541 63.2148 124.127 62.7637 124.127 62.2246C124.127 61.7734 123.811 61.4746 123.166 61.3223L122.076 61.0645C120.887 60.7832 120.318 60.1973 120.318 59.2773C120.318 58.1523 121.35 57.3672 122.744 57.3672C124.092 57.3672 124.801 58.0234 125.1 58.9434L124.145 59.1895C123.963 58.7207 123.594 58.2637 122.75 58.2637C121.971 58.2637 121.385 58.668 121.385 59.2129C121.385 59.6992 121.719 59.9688 122.486 60.1504L123.477 60.3848C124.666 60.666 125.223 61.2578 125.223 62.1543C125.223 63.3027 124.174 64.1406 122.639 64.1406ZM128.973 64.082C127.648 64.082 126.752 63.2676 126.752 61.6094V57.4492H127.807V61.5215C127.807 62.5293 128.375 63.1328 129.289 63.1328C130.227 63.1328 130.936 62.4941 130.936 61.375V57.4492H131.996V64H130.977V62.4121H131.117C130.713 63.6426 129.934 64.082 128.973 64.082ZM136.607 64.1406C134.709 64.1406 133.537 62.793 133.537 60.7773C133.537 58.7676 134.697 57.3672 136.484 57.3672C137.873 57.3672 139.338 58.2227 139.338 60.6426V61.082H134.252V60.1914H138.77L138.277 60.5195C138.277 59.2305 137.668 58.3047 136.484 58.3047C135.301 58.3047 134.604 59.2832 134.604 60.3496V60.9414C134.604 62.4004 135.412 63.2031 136.613 63.2031C137.387 63.2031 137.967 62.8633 138.213 62.1953L139.232 62.4766C138.928 63.4668 137.949 64.1406 136.607 64.1406ZM140.674 66.1035L141.189 62.7812H142.396L141.482 66.1035H140.674ZM150.154 64.1172C148.426 64.1172 147.365 63.0918 147.365 61.6797C147.365 60.6016 148.133 59.9863 149.182 59.2129L150.477 58.2578C150.945 57.9121 151.273 57.6133 151.273 57.0391C151.273 56.5996 150.857 56.0957 150.236 56.0957C149.586 56.0957 149.135 56.6641 149.135 57.1973C149.135 57.8125 149.703 58.4277 150.277 59.125L154.297 64H153.025L149.715 60.0273C148.807 58.9375 148.074 58.2109 148.074 57.1855C148.074 56.002 148.924 55.1875 150.201 55.1875C151.525 55.1875 152.334 56.043 152.334 57.0332C152.334 57.8711 151.877 58.4512 151.174 58.9727L149.428 60.2676C148.678 60.8242 148.449 61.4219 148.449 61.6738C148.449 62.4766 149.117 63.1973 150.137 63.1973C151.438 63.1973 152.768 62.0137 152.768 60.1445H153.781C153.781 61.8789 153.043 62.6113 152.703 62.9336C152.627 63.0215 152.562 63.1152 152.492 63.1973C151.918 63.8184 150.986 64.1172 150.154 64.1172ZM158.17 64.1406C156.271 64.1406 155.1 62.793 155.1 60.7773C155.1 58.7676 156.26 57.3672 158.047 57.3672C159.436 57.3672 160.9 58.2227 160.9 60.6426V61.082H155.814V60.1914H160.332L159.84 60.5195C159.84 59.2305 159.23 58.3047 158.047 58.3047C156.863 58.3047 156.166 59.2832 156.166 60.3496V60.9414C156.166 62.4004 156.975 63.2031 158.176 63.2031C158.949 63.2031 159.529 62.8633 159.775 62.1953L160.795 62.4766C160.49 63.4668 159.512 64.1406 158.17 64.1406ZM162.412 66.4492V57.4492H163.432V58.498H163.549C163.766 58.1523 164.17 57.3672 165.447 57.3672C167.082 57.3672 168.225 58.668 168.225 60.7422C168.225 62.8281 167.088 64.1406 165.453 64.1406C164.205 64.1406 163.766 63.3496 163.549 62.9863H163.467V66.4492H162.412ZM165.295 63.1973C166.52 63.1973 167.152 62.1074 167.152 60.7305C167.152 59.3711 166.537 58.3105 165.295 58.3105C164.088 58.3105 163.455 59.2832 163.455 60.7305C163.455 62.1895 164.105 63.1973 165.295 63.1973ZM169.76 64V57.4492H170.814V64H169.76ZM170.293 56.377C169.895 56.377 169.561 56.0664 169.561 55.6797C169.561 55.293 169.895 54.9824 170.293 54.9824C170.697 54.9824 171.031 55.293 171.031 55.6797C171.031 56.0664 170.697 56.377 170.293 56.377ZM175.332 64.1406C173.551 64.1406 172.35 62.7871 172.35 60.7656C172.35 58.7148 173.551 57.3672 175.332 57.3672C176.598 57.3672 177.629 58.0352 177.986 59.1777L176.973 59.4648C176.779 58.791 176.193 58.3105 175.332 58.3105C174.025 58.3105 173.422 59.459 173.422 60.7656C173.422 62.0547 174.025 63.1973 175.332 63.1973C176.211 63.1973 176.809 62.6992 177.002 61.9902L178.01 62.2773C177.658 63.4434 176.615 64.1406 175.332 64.1406ZM179.346 66.1035L179.861 62.7812H181.068L180.154 66.1035H179.346ZM186.447 59.998V59.2598L191.979 56.4707V57.6191L187.771 59.6172L187.807 59.5469V59.7109L187.771 59.6523L191.979 61.6504V62.7871L186.447 59.998ZM197.844 64.1406C195.775 64.1406 194.428 62.8281 194.428 61.0293V55.2695H195.541V60.9414C195.541 62.1953 196.414 63.1094 197.844 63.1094C199.268 63.1094 200.135 62.1953 200.135 60.9414V55.2695H201.248V61.0293C201.248 62.8281 199.9 64.1406 197.844 64.1406ZM203.357 64V55.2695H206.346C208.385 55.2695 209.322 56.4062 209.322 57.9648C209.322 59.5234 208.385 60.6133 206.352 60.6133H203.979V59.623H206.299C207.676 59.623 208.215 58.9902 208.215 57.9648C208.215 56.9277 207.676 56.248 206.287 56.248H204.471V64H203.357ZM208.373 64L206.264 60.0684H207.518L209.662 64H208.373ZM211.08 64V55.2695H212.193V63.0156H216.236V64H211.08ZM223.73 59.998L218.199 62.7871V61.6504L222.412 59.6523L222.371 59.7109V59.5469L222.412 59.6172L218.199 57.6191V56.4707L223.73 59.2598V59.998Z" fill="#535158"/>
<path d="M24.8496 79.1523C22.957 79.1523 21.7793 78.1797 21.6797 76.7148H22.8223C22.9102 77.7051 23.8242 78.1562 24.8496 78.1562C26.0332 78.1562 26.9355 77.5352 26.9355 76.6035C26.9355 75.7598 26.1387 75.4492 25.207 75.1855L24.1523 74.8867C22.7461 74.4883 21.9258 73.7676 21.9258 72.6074C21.9258 71.1309 23.2383 70.1523 24.9258 70.1523C26.6484 70.1523 27.8496 71.1543 27.9023 72.4727H26.8125C26.7129 71.623 25.9277 71.1367 24.8906 71.1367C23.7598 71.1367 23.0098 71.7344 23.0098 72.5547C23.0098 73.4688 24.0352 73.791 24.6738 73.9668L25.5469 74.207C26.4844 74.4648 28.0195 74.9922 28.0195 76.6211C28.0195 78.0508 26.8652 79.1523 24.8496 79.1523ZM31.8457 79.082C30.5215 79.082 29.625 78.2676 29.625 76.6094V72.4492H30.6797V76.5215C30.6797 77.5293 31.248 78.1328 32.1621 78.1328C33.0996 78.1328 33.8086 77.4941 33.8086 76.375V72.4492H34.8691V79H33.8496V77.4121H33.9902C33.5859 78.6426 32.8066 79.082 31.8457 79.082ZM36.7266 79V72.4492H37.752L37.7578 73.9141H37.6758C37.9395 72.8535 38.7422 72.332 39.5918 72.332C40.541 72.332 41.1445 72.9766 41.3203 73.9258H41.1797C41.4141 72.9473 42.2812 72.332 43.3242 72.332C44.4609 72.332 45.3867 73.0645 45.3867 74.582V79H44.3262V74.6113C44.3262 73.668 43.7109 73.293 43.0078 73.293C42.123 73.293 41.584 73.8965 41.584 74.7227V79H40.5293V74.5059C40.5293 73.7793 39.9844 73.293 39.2461 73.293C38.4785 73.293 37.7812 73.832 37.7812 74.875V79H36.7266ZM47.2383 79V72.4492H48.2637L48.2695 73.9141H48.1875C48.4512 72.8535 49.2539 72.332 50.1035 72.332C51.0527 72.332 51.6562 72.9766 51.832 73.9258H51.6914C51.9258 72.9473 52.793 72.332 53.8359 72.332C54.9727 72.332 55.8984 73.0645 55.8984 74.582V79H54.8379V74.6113C54.8379 73.668 54.2227 73.293 53.5195 73.293C52.6348 73.293 52.0957 73.8965 52.0957 74.7227V79H51.041V74.5059C51.041 73.7793 50.4961 73.293 49.7578 73.293C48.9902 73.293 48.293 73.832 48.293 74.875V79H47.2383ZM59.584 79.1523C58.3418 79.1523 57.3516 78.4258 57.3516 77.1367C57.3516 75.6367 58.6875 75.3613 59.9004 75.209C61.0664 75.0625 61.582 75.0977 61.582 74.6113V74.5762C61.582 73.7617 61.1191 73.293 60.2109 73.293C59.2676 73.293 58.7578 73.7969 58.5527 74.2539L57.5391 73.9199C58.043 72.7305 59.168 72.3672 60.1816 72.3672C61.0605 72.3672 62.6367 72.6367 62.6367 74.6816V79H61.5996V78.1094H61.5293C61.3066 78.5723 60.6914 79.1523 59.584 79.1523ZM59.7656 78.2207C60.9316 78.2207 61.582 77.4355 61.582 76.6328V75.7246C61.4062 75.9297 60.2578 76.0469 59.8535 76.0996C59.0859 76.1992 58.4121 76.4453 58.4121 77.1895C58.4121 77.8691 58.9805 78.2207 59.7656 78.2207ZM64.4883 79V72.4492H65.5078V73.457H65.5781C65.8184 72.7949 66.498 72.3555 67.2773 72.3555C67.4297 72.3555 67.6875 72.3672 67.8105 72.373V73.4336C67.7461 73.4219 67.459 73.375 67.1777 73.375C66.2344 73.375 65.543 74.0137 65.543 74.8984V79H64.4883ZM69.1992 79V72.4492H70.2539V79H69.1992ZM69.7324 71.377C69.334 71.377 69 71.0664 69 70.6797C69 70.293 69.334 69.9824 69.7324 69.9824C70.1367 69.9824 70.4707 70.293 70.4707 70.6797C70.4707 71.0664 70.1367 71.377 69.7324 71.377ZM71.918 79V78.2148L75.5918 73.4922V73.4277H72.0352V72.4492H76.9512V73.2871L73.3828 77.957V78.0215H77.0684V79H71.918ZM81.3164 79.1406C79.418 79.1406 78.2461 77.793 78.2461 75.7773C78.2461 73.7676 79.4062 72.3672 81.1934 72.3672C82.582 72.3672 84.0469 73.2227 84.0469 75.6426V76.082H78.9609V75.1914H83.4785L82.9863 75.5195C82.9863 74.2305 82.377 73.3047 81.1934 73.3047C80.0098 73.3047 79.3125 74.2832 79.3125 75.3496V75.9414C79.3125 77.4004 80.1211 78.2031 81.3223 78.2031C82.0957 78.2031 82.6758 77.8633 82.9219 77.1953L83.9414 77.4766C83.6367 78.4668 82.6582 79.1406 81.3164 79.1406ZM87.7852 79.1406C86.4375 79.1406 85.5 78.543 85.2656 77.4121L86.2676 77.1719C86.4551 77.8926 86.9883 78.2148 87.7734 78.2148C88.6875 78.2148 89.2734 77.7637 89.2734 77.2246C89.2734 76.7734 88.957 76.4746 88.3125 76.3223L87.2227 76.0645C86.0332 75.7832 85.4648 75.1973 85.4648 74.2773C85.4648 73.1523 86.4961 72.3672 87.8906 72.3672C89.2383 72.3672 89.9473 73.0234 90.2461 73.9434L89.291 74.1895C89.1094 73.7207 88.7402 73.2637 87.8965 73.2637C87.1172 73.2637 86.5312 73.668 86.5312 74.2129C86.5312 74.6992 86.8652 74.9688 87.6328 75.1504L88.623 75.3848C89.8125 75.666 90.3691 76.2578 90.3691 77.1543C90.3691 78.3027 89.3203 79.1406 87.7852 79.1406ZM95.2734 79V72.4492H96.3281V79H95.2734ZM95.8066 71.377C95.4082 71.377 95.0742 71.0664 95.0742 70.6797C95.0742 70.293 95.4082 69.9824 95.8066 69.9824C96.2109 69.9824 96.5449 70.293 96.5449 70.6797C96.5449 71.0664 96.2109 71.377 95.8066 71.377ZM100.406 79.1406C99.0586 79.1406 98.1211 78.543 97.8867 77.4121L98.8887 77.1719C99.0762 77.8926 99.6094 78.2148 100.395 78.2148C101.309 78.2148 101.895 77.7637 101.895 77.2246C101.895 76.7734 101.578 76.4746 100.934 76.3223L99.8438 76.0645C98.6543 75.7832 98.0859 75.1973 98.0859 74.2773C98.0859 73.1523 99.1172 72.3672 100.512 72.3672C101.859 72.3672 102.568 73.0234 102.867 73.9434L101.912 74.1895C101.73 73.7207 101.361 73.2637 100.518 73.2637C99.7383 73.2637 99.1523 73.668 99.1523 74.2129C99.1523 74.6992 99.4863 74.9688 100.254 75.1504L101.244 75.3848C102.434 75.666 102.99 76.2578 102.99 77.1543C102.99 78.3027 101.941 79.1406 100.406 79.1406ZM106.746 79.1406C105.398 79.1406 104.461 78.543 104.227 77.4121L105.229 77.1719C105.416 77.8926 105.949 78.2148 106.734 78.2148C107.648 78.2148 108.234 77.7637 108.234 77.2246C108.234 76.7734 107.918 76.4746 107.273 76.3223L106.184 76.0645C104.994 75.7832 104.426 75.1973 104.426 74.2773C104.426 73.1523 105.457 72.3672 106.852 72.3672C108.199 72.3672 108.908 73.0234 109.207 73.9434L108.252 74.1895C108.07 73.7207 107.701 73.2637 106.857 73.2637C106.078 73.2637 105.492 73.668 105.492 74.2129C105.492 74.6992 105.826 74.9688 106.594 75.1504L107.584 75.3848C108.773 75.666 109.33 76.2578 109.33 77.1543C109.33 78.3027 108.281 79.1406 106.746 79.1406ZM113.08 79.082C111.756 79.082 110.859 78.2676 110.859 76.6094V72.4492H111.914V76.5215C111.914 77.5293 112.482 78.1328 113.396 78.1328C114.334 78.1328 115.043 77.4941 115.043 76.375V72.4492H116.104V79H115.084V77.4121H115.225C114.82 78.6426 114.041 79.082 113.08 79.082ZM120.715 79.1406C118.816 79.1406 117.645 77.793 117.645 75.7773C117.645 73.7676 118.805 72.3672 120.592 72.3672C121.98 72.3672 123.445 73.2227 123.445 75.6426V76.082H118.359V75.1914H122.877L122.385 75.5195C122.385 74.2305 121.775 73.3047 120.592 73.3047C119.408 73.3047 118.711 74.2832 118.711 75.3496V75.9414C118.711 77.4004 119.52 78.2031 120.721 78.2031C121.494 78.2031 122.074 77.8633 122.32 77.1953L123.34 77.4766C123.035 78.4668 122.057 79.1406 120.715 79.1406ZM127.184 79.1406C125.836 79.1406 124.898 78.543 124.664 77.4121L125.666 77.1719C125.854 77.8926 126.387 78.2148 127.172 78.2148C128.086 78.2148 128.672 77.7637 128.672 77.2246C128.672 76.7734 128.355 76.4746 127.711 76.3223L126.621 76.0645C125.432 75.7832 124.863 75.1973 124.863 74.2773C124.863 73.1523 125.895 72.3672 127.289 72.3672C128.637 72.3672 129.346 73.0234 129.645 73.9434L128.689 74.1895C128.508 73.7207 128.139 73.2637 127.295 73.2637C126.516 73.2637 125.93 73.668 125.93 74.2129C125.93 74.6992 126.264 74.9688 127.031 75.1504L128.021 75.3848C129.211 75.666 129.768 76.2578 129.768 77.1543C129.768 78.3027 128.719 79.1406 127.184 79.1406ZM137.338 79.1406C135.557 79.1406 134.355 77.7871 134.355 75.7656C134.355 73.7148 135.557 72.3672 137.338 72.3672C139.125 72.3672 140.332 73.7148 140.332 75.7656C140.332 77.7871 139.125 79.1406 137.338 79.1406ZM137.338 78.1973C138.662 78.1973 139.266 77.0547 139.266 75.7656C139.266 74.4648 138.662 73.3105 137.338 73.3105C136.031 73.3105 135.428 74.459 135.428 75.7656C135.428 77.0547 136.031 78.1973 137.338 78.1973ZM141.867 79V72.4492H142.887V73.457H142.957C143.197 72.7949 143.877 72.3555 144.656 72.3555C144.809 72.3555 145.066 72.3672 145.189 72.373V73.4336C145.125 73.4219 144.838 73.375 144.557 73.375C143.613 73.375 142.922 74.0137 142.922 74.8984V79H141.867ZM152.52 79.1406C150.621 79.1406 149.449 77.793 149.449 75.7773C149.449 73.7676 150.609 72.3672 152.396 72.3672C153.785 72.3672 155.25 73.2227 155.25 75.6426V76.082H150.164V75.1914H154.682L154.189 75.5195C154.189 74.2305 153.58 73.3047 152.396 73.3047C151.213 73.3047 150.516 74.2832 150.516 75.3496V75.9414C150.516 77.4004 151.324 78.2031 152.525 78.2031C153.299 78.2031 153.879 77.8633 154.125 77.1953L155.145 77.4766C154.84 78.4668 153.861 79.1406 152.52 79.1406ZM156.762 81.4492V72.4492H157.781V73.498H157.898C158.115 73.1523 158.52 72.3672 159.797 72.3672C161.432 72.3672 162.574 73.668 162.574 75.7422C162.574 77.8281 161.438 79.1406 159.803 79.1406C158.555 79.1406 158.115 78.3496 157.898 77.9863H157.816V81.4492H156.762ZM159.645 78.1973C160.869 78.1973 161.502 77.1074 161.502 75.7305C161.502 74.3711 160.887 73.3105 159.645 73.3105C158.438 73.3105 157.805 74.2832 157.805 75.7305C157.805 77.1895 158.455 78.1973 159.645 78.1973ZM164.109 79V72.4492H165.164V79H164.109ZM164.643 71.377C164.244 71.377 163.91 71.0664 163.91 70.6797C163.91 70.293 164.244 69.9824 164.643 69.9824C165.047 69.9824 165.381 70.293 165.381 70.6797C165.381 71.0664 165.047 71.377 164.643 71.377ZM169.682 79.1406C167.9 79.1406 166.699 77.7871 166.699 75.7656C166.699 73.7148 167.9 72.3672 169.682 72.3672C170.947 72.3672 171.979 73.0352 172.336 74.1777L171.322 74.4648C171.129 73.791 170.543 73.3105 169.682 73.3105C168.375 73.3105 167.771 74.459 167.771 75.7656C167.771 77.0547 168.375 78.1973 169.682 78.1973C170.561 78.1973 171.158 77.6992 171.352 76.9902L172.359 77.2773C172.008 78.4434 170.965 79.1406 169.682 79.1406ZM176.098 79.1406C174.75 79.1406 173.812 78.543 173.578 77.4121L174.58 77.1719C174.768 77.8926 175.301 78.2148 176.086 78.2148C177 78.2148 177.586 77.7637 177.586 77.2246C177.586 76.7734 177.27 76.4746 176.625 76.3223L175.535 76.0645C174.346 75.7832 173.777 75.1973 173.777 74.2773C173.777 73.1523 174.809 72.3672 176.203 72.3672C177.551 72.3672 178.26 73.0234 178.559 73.9434L177.604 74.1895C177.422 73.7207 177.053 73.2637 176.209 73.2637C175.43 73.2637 174.844 73.668 174.844 74.2129C174.844 74.6992 175.178 74.9688 175.945 75.1504L176.936 75.3848C178.125 75.666 178.682 76.2578 178.682 77.1543C178.682 78.3027 177.633 79.1406 176.098 79.1406Z" fill="#535158"/>
<rect width="326" height="30" transform="translate(9 93)" fill="white"/>
<path d="M25.6582 113.117C23.1973 113.117 21.5273 111.412 21.5273 108.652C21.5273 105.816 23.3145 104.152 25.623 104.152C27.5977 104.152 29.1211 105.365 29.3555 107.094H27.4629C27.2344 106.291 26.5957 105.805 25.6523 105.805C24.3281 105.805 23.4258 106.824 23.4258 108.629C23.4258 110.439 24.293 111.471 25.6758 111.471C26.9121 111.471 27.6387 110.773 27.6387 109.672L28.0195 109.725H25.7871V108.324H29.4492V109.426C29.4492 111.729 27.8613 113.117 25.6582 113.117ZM30.7383 113V106.449H32.5723V113H30.7383ZM31.6523 105.623C31.1133 105.623 30.668 105.207 30.668 104.697C30.668 104.182 31.1133 103.771 31.6523 103.771C32.1973 103.771 32.6484 104.182 32.6484 104.697C32.6484 105.207 32.1973 105.623 31.6523 105.623ZM37.3594 106.449V107.838H33.4219V106.449H37.3594ZM34.3125 104.891H36.1465V111.061C36.1465 111.459 36.3164 111.646 36.7266 111.646C36.8613 111.646 37.1602 111.6 37.2832 111.57L37.541 112.936C37.1309 113.053 36.7266 113.094 36.3633 113.094C35.0273 113.094 34.3125 112.438 34.3125 111.225V104.891ZM38.5137 113V104.27H40.3828V111.465H44.1152V113H38.5137ZM47.0977 113.129C45.8496 113.129 44.9297 112.473 44.9297 111.172C44.9297 109.713 46.0898 109.273 47.3906 109.15C48.5098 109.045 48.9668 108.992 48.9668 108.57V108.541C48.9668 108.014 48.6094 107.709 47.9766 107.709C47.332 107.709 46.9219 108.025 46.793 108.447L45.1172 108.184C45.4219 107.053 46.4766 106.367 47.9883 106.367C49.4531 106.367 50.8008 107.041 50.8008 108.582V113H49.0664V112.092H49.0078C48.6797 112.719 48.0527 113.129 47.0977 113.129ZM47.6309 111.863C48.416 111.863 48.9785 111.342 48.9785 110.662V109.977C48.7617 110.117 48.1113 110.211 47.7305 110.27C47.0918 110.357 46.6816 110.615 46.6816 111.113C46.6816 111.605 47.0742 111.863 47.6309 111.863ZM56.0039 113.105C54.9551 113.105 54.4043 112.496 54.1523 111.951H54.0703V113H52.2656V104.27H54.0996V107.562H54.1523C54.3926 107.023 54.9258 106.367 56.0156 106.367C57.4512 106.367 58.6641 107.486 58.6641 109.736C58.6641 111.928 57.498 113.105 56.0039 113.105ZM55.4238 111.646C56.3027 111.646 56.7773 110.861 56.7773 109.73C56.7773 108.605 56.3086 107.832 55.4238 107.832C54.5508 107.832 54.0586 108.57 54.0586 109.73C54.0586 110.885 54.5625 111.646 55.4238 111.646ZM65.7891 113H63.5098V111.4H65.7012C67.3301 111.4 68.1973 110.574 68.1973 108.635C68.1973 106.695 67.3301 105.875 65.7012 105.875H63.4688V104.27H65.8125C68.4434 104.27 70.0547 105.91 70.0547 108.635C70.0547 111.359 68.4434 113 65.7891 113ZM64.5469 104.27V113H62.6777V104.27H64.5469ZM73.582 113.082C72.2168 113.082 71.3203 112.139 71.3203 110.621V106.449H73.1543V110.287C73.1543 111.084 73.5879 111.559 74.3086 111.559C75.0352 111.559 75.5391 111.066 75.5391 110.229V106.449H77.3789V113H75.6445L75.6152 111.359H75.7148C75.375 112.449 74.6836 113.082 73.582 113.082ZM81.791 113.129C79.7988 113.129 78.5625 111.77 78.5625 109.754C78.5625 107.727 79.7988 106.367 81.791 106.367C83.7832 106.367 85.0195 107.727 85.0195 109.754C85.0195 111.77 83.7832 113.129 81.791 113.129ZM81.791 111.699C82.6875 111.699 83.1504 110.879 83.1504 109.748C83.1504 108.605 82.6875 107.803 81.791 107.803C80.9004 107.803 80.4375 108.605 80.4375 109.748C80.4375 110.879 80.9004 111.699 81.791 111.699ZM92.8828 113.117C90.5449 113.117 88.8047 111.488 88.8047 108.641C88.8047 105.781 90.5742 104.152 92.8828 104.152C94.8926 104.152 96.4102 105.301 96.668 107.281H94.7754C94.623 106.361 93.9023 105.805 92.9238 105.805C91.582 105.805 90.7031 106.836 90.7031 108.641C90.7031 110.498 91.5938 111.471 92.918 111.471C93.8906 111.471 94.6172 110.914 94.7871 109.988H96.6738C96.4805 111.594 95.1328 113.117 92.8828 113.117ZM99.7324 109.227V113H97.8984V104.27H99.6973V108.09H99.5566C99.8965 107.018 100.576 106.367 101.695 106.367C103.061 106.367 103.957 107.316 103.957 108.834V113H102.117V109.168C102.117 108.371 101.684 107.896 100.963 107.896C100.236 107.896 99.7324 108.389 99.7324 109.227ZM107.238 113.129C105.99 113.129 105.07 112.473 105.07 111.172C105.07 109.713 106.23 109.273 107.531 109.15C108.65 109.045 109.107 108.992 109.107 108.57V108.541C109.107 108.014 108.75 107.709 108.117 107.709C107.473 107.709 107.062 108.025 106.934 108.447L105.258 108.184C105.562 107.053 106.617 106.367 108.129 106.367C109.594 106.367 110.941 107.041 110.941 108.582V113H109.207V112.092H109.148C108.82 112.719 108.193 113.129 107.238 113.129ZM107.771 111.863C108.557 111.863 109.119 111.342 109.119 110.662V109.977C108.902 110.117 108.252 110.211 107.871 110.27C107.232 110.357 106.822 110.615 106.822 111.113C106.822 111.605 107.215 111.863 107.771 111.863ZM115.734 106.449V107.838H111.797V106.449H115.734ZM112.688 104.891H114.521V111.061C114.521 111.459 114.691 111.646 115.102 111.646C115.236 111.646 115.535 111.6 115.658 111.57L115.916 112.936C115.506 113.053 115.102 113.094 114.738 113.094C113.402 113.094 112.688 112.438 112.688 111.225V104.891Z" fill="#333238"/>
<rect x="9" y="125" width="326" height="48" rx="4" fill="white"/>
<path d="M25.7305 135.336L22.4492 147.531H21.3145L24.5957 135.336H25.7305ZM28.3555 141.42V146H27.125V135.814H28.3555V140.21H28.1436C28.6084 138.802 29.4971 138.262 30.6523 138.262C32.1973 138.262 33.2432 139.212 33.2432 141.146V146H32.0059V141.249C32.0059 140.073 31.3496 139.369 30.2832 139.369C29.1826 139.369 28.3555 140.114 28.3555 141.42ZM38.623 146.164C36.4082 146.164 35.041 144.592 35.041 142.24C35.041 139.896 36.3945 138.262 38.4795 138.262C40.0996 138.262 41.8086 139.26 41.8086 142.083V142.596H35.875V141.557H41.1455L40.5713 141.939C40.5713 140.436 39.8604 139.355 38.4795 139.355C37.0986 139.355 36.2852 140.497 36.2852 141.741V142.432C36.2852 144.134 37.2285 145.07 38.6299 145.07C39.5322 145.07 40.209 144.674 40.4961 143.895L41.6855 144.223C41.3301 145.378 40.1885 146.164 38.623 146.164ZM45.2881 146.055C44.1396 146.055 43.5723 145.412 43.5723 144.305V135.814H44.8027V143.997C44.8027 144.701 44.9258 144.954 45.4385 144.954C45.7051 144.954 45.8145 144.934 45.9307 144.899L46.1768 145.938C45.958 146 45.6162 146.055 45.2881 146.055ZM47.4277 148.857V138.357H48.6172V139.581H48.7539C49.0068 139.178 49.4785 138.262 50.9688 138.262C52.876 138.262 54.209 139.779 54.209 142.199C54.209 144.633 52.8828 146.164 50.9756 146.164C49.5195 146.164 49.0068 145.241 48.7539 144.817H48.6582V148.857H47.4277ZM50.791 145.063C52.2197 145.063 52.958 143.792 52.958 142.186C52.958 140.6 52.2402 139.362 50.791 139.362C49.3828 139.362 48.6445 140.497 48.6445 142.186C48.6445 143.888 49.4033 145.063 50.791 145.063Z" fill="#333238"/>
<path d="M22.0547 161V152.27H23.168V160.016H27.2109V161H22.0547ZM31.4648 161.141C29.5664 161.141 28.3945 159.793 28.3945 157.777C28.3945 155.768 29.5547 154.367 31.3418 154.367C32.7305 154.367 34.1953 155.223 34.1953 157.643V158.082H29.1094V157.191H33.627L33.1348 157.52C33.1348 156.23 32.5254 155.305 31.3418 155.305C30.1582 155.305 29.4609 156.283 29.4609 157.35V157.941C29.4609 159.4 30.2695 160.203 31.4707 160.203C32.2441 160.203 32.8242 159.863 33.0703 159.195L34.0898 159.477C33.7852 160.467 32.8066 161.141 31.4648 161.141ZM37.6582 161.152C36.416 161.152 35.4258 160.426 35.4258 159.137C35.4258 157.637 36.7617 157.361 37.9746 157.209C39.1406 157.062 39.6562 157.098 39.6562 156.611V156.576C39.6562 155.762 39.1934 155.293 38.2852 155.293C37.3418 155.293 36.832 155.797 36.627 156.254L35.6133 155.92C36.1172 154.73 37.2422 154.367 38.2559 154.367C39.1348 154.367 40.7109 154.637 40.7109 156.682V161H39.6738V160.109H39.6035C39.3809 160.572 38.7656 161.152 37.6582 161.152ZM37.8398 160.221C39.0059 160.221 39.6562 159.436 39.6562 158.633V157.725C39.4805 157.93 38.332 158.047 37.9277 158.1C37.1602 158.199 36.4863 158.445 36.4863 159.189C36.4863 159.869 37.0547 160.221 37.8398 160.221ZM42.5625 161V154.449H43.582V155.457H43.6523C43.8926 154.795 44.5723 154.355 45.3516 154.355C45.5039 154.355 45.7617 154.367 45.8848 154.373V155.434C45.8203 155.422 45.5332 155.375 45.252 155.375C44.3086 155.375 43.6172 156.014 43.6172 156.898V161H42.5625ZM48.3281 157.074V161H47.2734V154.449H48.2871L48.293 156.037H48.1465C48.5449 154.83 49.3066 154.367 50.2969 154.367C51.6211 154.367 52.5176 155.182 52.5176 156.84V161H51.457V156.928C51.457 155.92 50.8945 155.316 49.9805 155.316C49.0371 155.316 48.3281 155.955 48.3281 157.074ZM59.2207 161L57.2344 154.449H58.3535L59.1504 157.309C59.3672 158.088 59.625 159.066 59.8711 160.314H59.6895C59.9238 159.119 60.1699 158.141 60.3984 157.309L61.1836 154.449H62.3086L63.082 157.309C63.2988 158.111 63.5449 159.09 63.7793 160.314H63.5918C63.8379 159.102 64.0898 158.129 64.3184 157.309L65.1152 154.449H66.2344L64.248 161H63.1992L62.3496 158.035C62.0918 157.139 61.8574 156.172 61.6172 155.152H61.8516C61.6172 156.16 61.3711 157.156 61.1191 158.035L60.2695 161H59.2207ZM68.625 157.074V161H67.5703V152.27H68.625V156.037H68.4434C68.8418 154.83 69.6035 154.367 70.5938 154.367C71.918 154.367 72.8145 155.182 72.8145 156.84V161H71.7539V156.928C71.7539 155.92 71.1914 155.316 70.2773 155.316C69.334 155.316 68.625 155.955 68.625 157.074ZM76.5059 161.152C75.2637 161.152 74.2734 160.426 74.2734 159.137C74.2734 157.637 75.6094 157.361 76.8223 157.209C77.9883 157.062 78.5039 157.098 78.5039 156.611V156.576C78.5039 155.762 78.041 155.293 77.1328 155.293C76.1895 155.293 75.6797 155.797 75.4746 156.254L74.4609 155.92C74.9648 154.73 76.0898 154.367 77.1035 154.367C77.9824 154.367 79.5586 154.637 79.5586 156.682V161H78.5215V160.109H78.4512C78.2285 160.572 77.6133 161.152 76.5059 161.152ZM76.6875 160.221C77.8535 160.221 78.5039 159.436 78.5039 158.633V157.725C78.3281 157.93 77.1797 158.047 76.7754 158.1C76.0078 158.199 75.334 158.445 75.334 159.189C75.334 159.869 75.9023 160.221 76.6875 160.221ZM83.9883 154.449V155.352H80.6016V154.449H83.9883ZM81.5859 152.891H82.6406V159.301C82.6406 159.887 82.8574 160.145 83.4141 160.145C83.5488 160.145 83.7773 160.109 83.9531 160.074L84.1699 160.965C83.9531 161.041 83.6543 161.082 83.3848 161.082C82.2539 161.082 81.5859 160.455 81.5859 159.383V152.891ZM92.4082 161.117C90.0762 161.117 88.5 159.4 88.5 156.641C88.5 153.869 90.0996 152.152 92.3379 152.152C94.1836 152.152 95.6074 153.312 95.9238 155.006H94.7754C94.418 153.887 93.5801 153.184 92.3438 153.184C90.8086 153.184 89.584 154.396 89.584 156.641C89.584 158.867 90.8027 160.086 92.4082 160.086C93.8848 160.086 94.8984 159.09 94.8984 157.52L95.2324 157.584H92.6367V156.611H95.9883V157.566C95.9883 159.734 94.4883 161.117 92.4082 161.117ZM97.6641 161V154.449H98.7188V161H97.6641ZM98.1973 153.377C97.7988 153.377 97.4648 153.066 97.4648 152.68C97.4648 152.293 97.7988 151.982 98.1973 151.982C98.6016 151.982 98.9355 152.293 98.9355 152.68C98.9355 153.066 98.6016 153.377 98.1973 153.377ZM103.148 154.449V155.352H99.7617V154.449H103.148ZM100.746 152.891H101.801V159.301C101.801 159.887 102.018 160.145 102.574 160.145C102.709 160.145 102.938 160.109 103.113 160.074L103.33 160.965C103.113 161.041 102.814 161.082 102.545 161.082C101.414 161.082 100.746 160.455 100.746 159.383V152.891ZM104.625 161V152.27H105.738V160.016H109.781V161H104.625ZM113.115 161.152C111.873 161.152 110.883 160.426 110.883 159.137C110.883 157.637 112.219 157.361 113.432 157.209C114.598 157.062 115.113 157.098 115.113 156.611V156.576C115.113 155.762 114.65 155.293 113.742 155.293C112.799 155.293 112.289 155.797 112.084 156.254L111.07 155.92C111.574 154.73 112.699 154.367 113.713 154.367C114.592 154.367 116.168 154.637 116.168 156.682V161H115.131V160.109H115.061C114.838 160.572 114.223 161.152 113.115 161.152ZM113.297 160.221C114.463 160.221 115.113 159.436 115.113 158.633V157.725C114.938 157.93 113.789 158.047 113.385 158.1C112.617 158.199 111.943 158.445 111.943 159.189C111.943 159.869 112.512 160.221 113.297 160.221ZM121.061 161.141C119.812 161.141 119.373 160.35 119.156 159.986H119.039V161H118.02V152.27H119.074V155.498H119.156C119.373 155.152 119.777 154.367 121.055 154.367C122.689 154.367 123.832 155.668 123.832 157.742C123.832 159.828 122.695 161.141 121.061 161.141ZM120.902 160.197C122.127 160.197 122.76 159.107 122.76 157.73C122.76 156.371 122.145 155.311 120.902 155.311C119.695 155.311 119.062 156.283 119.062 157.73C119.062 159.189 119.713 160.197 120.902 160.197ZM131.596 161H129.486V160.016H131.525C133.652 160.016 134.684 158.738 134.684 156.617C134.684 154.52 133.652 153.254 131.631 153.254H129.439V152.27H131.707C134.256 152.27 135.762 153.91 135.762 156.617C135.762 159.348 134.256 161 131.596 161ZM129.984 152.27V161H128.871V152.27H129.984ZM139.623 161.082C138.299 161.082 137.402 160.268 137.402 158.609V154.449H138.457V158.521C138.457 159.529 139.025 160.133 139.939 160.133C140.877 160.133 141.586 159.494 141.586 158.375V154.449H142.646V161H141.627V159.412H141.768C141.363 160.643 140.584 161.082 139.623 161.082ZM147.17 161.141C145.389 161.141 144.188 159.787 144.188 157.766C144.188 155.715 145.389 154.367 147.17 154.367C148.957 154.367 150.164 155.715 150.164 157.766C150.164 159.787 148.957 161.141 147.17 161.141ZM147.17 160.197C148.494 160.197 149.098 159.055 149.098 157.766C149.098 156.465 148.494 155.311 147.17 155.311C145.863 155.311 145.26 156.459 145.26 157.766C145.26 159.055 145.863 160.197 147.17 160.197ZM158.736 161.117C156.498 161.117 154.863 159.406 154.863 156.641C154.863 153.869 156.498 152.152 158.736 152.152C160.506 152.152 161.947 153.219 162.258 155.018H161.145C160.898 153.822 159.873 153.184 158.736 153.184C157.166 153.184 155.947 154.402 155.947 156.641C155.947 158.873 157.172 160.086 158.736 160.086C159.879 160.086 160.898 159.441 161.145 158.252H162.258C161.953 160.027 160.523 161.117 158.736 161.117ZM164.895 157.074V161H163.84V152.27H164.895V156.037H164.713C165.111 154.83 165.873 154.367 166.863 154.367C168.188 154.367 169.084 155.182 169.084 156.84V161H168.023V156.928C168.023 155.92 167.461 155.316 166.547 155.316C165.604 155.316 164.895 155.955 164.895 157.074ZM172.775 161.152C171.533 161.152 170.543 160.426 170.543 159.137C170.543 157.637 171.879 157.361 173.092 157.209C174.258 157.062 174.773 157.098 174.773 156.611V156.576C174.773 155.762 174.311 155.293 173.402 155.293C172.459 155.293 171.949 155.797 171.744 156.254L170.73 155.92C171.234 154.73 172.359 154.367 173.373 154.367C174.252 154.367 175.828 154.637 175.828 156.682V161H174.791V160.109H174.721C174.498 160.572 173.883 161.152 172.775 161.152ZM172.957 160.221C174.123 160.221 174.773 159.436 174.773 158.633V157.725C174.598 157.93 173.449 158.047 173.045 158.1C172.277 158.199 171.604 158.445 171.604 159.189C171.604 159.869 172.172 160.221 172.957 160.221ZM180.258 154.449V155.352H176.871V154.449H180.258ZM177.855 152.891H178.91V159.301C178.91 159.887 179.127 160.145 179.684 160.145C179.818 160.145 180.047 160.109 180.223 160.074L180.439 160.965C180.223 161.041 179.924 161.082 179.654 161.082C178.523 161.082 177.855 160.455 177.855 159.383V152.891ZM187.646 161.141C185.865 161.141 184.664 159.787 184.664 157.766C184.664 155.715 185.865 154.367 187.646 154.367C188.912 154.367 189.943 155.035 190.301 156.178L189.287 156.465C189.094 155.791 188.508 155.311 187.646 155.311C186.34 155.311 185.736 156.459 185.736 157.766C185.736 159.055 186.34 160.197 187.646 160.197C188.525 160.197 189.123 159.699 189.316 158.99L190.324 159.277C189.973 160.443 188.93 161.141 187.646 161.141ZM193.787 161.152C192.545 161.152 191.555 160.426 191.555 159.137C191.555 157.637 192.891 157.361 194.104 157.209C195.27 157.062 195.785 157.098 195.785 156.611V156.576C195.785 155.762 195.322 155.293 194.414 155.293C193.471 155.293 192.961 155.797 192.756 156.254L191.742 155.92C192.246 154.73 193.371 154.367 194.385 154.367C195.264 154.367 196.84 154.637 196.84 156.682V161H195.803V160.109H195.732C195.51 160.572 194.895 161.152 193.787 161.152ZM193.969 160.221C195.135 160.221 195.785 159.436 195.785 158.633V157.725C195.609 157.93 194.461 158.047 194.057 158.1C193.289 158.199 192.615 158.445 192.615 159.189C192.615 159.869 193.184 160.221 193.969 160.221ZM199.746 157.074V161H198.691V154.449H199.705L199.711 156.037H199.564C199.963 154.83 200.725 154.367 201.715 154.367C203.039 154.367 203.936 155.182 203.936 156.84V161H202.875V156.928C202.875 155.92 202.312 155.316 201.398 155.316C200.455 155.316 199.746 155.955 199.746 157.074ZM211.623 161.141C209.988 161.141 208.852 159.828 208.852 157.742C208.852 155.668 209.994 154.367 211.629 154.367C212.906 154.367 213.311 155.152 213.527 155.498H213.609V152.27H214.664V161H213.645V159.986H213.527C213.311 160.35 212.871 161.141 211.623 161.141ZM211.781 160.197C212.971 160.197 213.621 159.189 213.621 157.73C213.621 156.283 212.988 155.311 211.781 155.311C210.539 155.311 209.924 156.371 209.924 157.73C209.924 159.107 210.557 160.197 211.781 160.197ZM219.182 161.141C217.4 161.141 216.199 159.787 216.199 157.766C216.199 155.715 217.4 154.367 219.182 154.367C220.969 154.367 222.176 155.715 222.176 157.766C222.176 159.787 220.969 161.141 219.182 161.141ZM219.182 160.197C220.506 160.197 221.109 159.055 221.109 157.766C221.109 156.465 220.506 155.311 219.182 155.311C217.875 155.311 217.271 156.459 217.271 157.766C217.271 159.055 217.875 160.197 219.182 160.197Z" fill="#737278"/>
<rect x="9" y="175" width="326" height="48" rx="4" fill="white"/>
<path d="M25.7305 185.336L22.4492 197.531H21.3145L24.5957 185.336H25.7305ZM28.3555 191.42V196H27.125V188.357H28.3076L28.3145 190.21H28.1436C28.6084 188.802 29.4971 188.262 30.6523 188.262C32.1973 188.262 33.2432 189.212 33.2432 191.146V196H32.0059V191.249C32.0059 190.073 31.3496 189.369 30.2832 189.369C29.1826 189.369 28.3555 190.114 28.3555 191.42ZM38.623 196.164C36.4082 196.164 35.041 194.592 35.041 192.24C35.041 189.896 36.3945 188.262 38.4795 188.262C40.0996 188.262 41.8086 189.26 41.8086 192.083V192.596H35.875V191.557H41.1455L40.5713 191.939C40.5713 190.436 39.8604 189.355 38.4795 189.355C37.0986 189.355 36.2852 190.497 36.2852 191.741V192.432C36.2852 194.134 37.2285 195.07 38.6299 195.07C39.5322 195.07 40.209 194.674 40.4961 193.895L41.6855 194.223C41.3301 195.378 40.1885 196.164 38.623 196.164ZM45.0283 196L42.7109 188.357H44.0166L44.9463 191.693C45.1992 192.603 45.5 193.744 45.7871 195.2H45.5752C45.8486 193.806 46.1357 192.664 46.4023 191.693L47.3184 188.357H48.6309L49.5332 191.693C49.7861 192.63 50.0732 193.771 50.3467 195.2H50.1279C50.415 193.785 50.709 192.65 50.9756 191.693L51.9053 188.357H53.2109L50.8936 196H49.6699L48.6787 192.541C48.3779 191.495 48.1045 190.367 47.8242 189.178H48.0977C47.8242 190.354 47.5371 191.516 47.2432 192.541L46.252 196H45.0283ZM60.0742 196V197.135H53.6895V196H60.0742ZM64.2646 196.164C62.1865 196.164 60.7852 194.585 60.7852 192.227C60.7852 189.834 62.1865 188.262 64.2646 188.262C65.7412 188.262 66.9443 189.041 67.3613 190.374L66.1787 190.709C65.9531 189.923 65.2695 189.362 64.2646 189.362C62.7402 189.362 62.0361 190.702 62.0361 192.227C62.0361 193.73 62.7402 195.063 64.2646 195.063C65.29 195.063 65.9873 194.482 66.2129 193.655L67.3887 193.99C66.9785 195.351 65.7617 196.164 64.2646 196.164ZM70.3828 191.42V196H69.1523V185.814H70.3828V190.21H70.1709C70.6357 188.802 71.5244 188.262 72.6797 188.262C74.2246 188.262 75.2705 189.212 75.2705 191.146V196H74.0332V191.249C74.0332 190.073 73.377 189.369 72.3105 189.369C71.21 189.369 70.3828 190.114 70.3828 191.42ZM79.5771 196.178C78.1279 196.178 76.9727 195.33 76.9727 193.826C76.9727 192.076 78.5312 191.755 79.9463 191.577C81.3066 191.406 81.9082 191.447 81.9082 190.88V190.839C81.9082 189.889 81.3682 189.342 80.3086 189.342C79.208 189.342 78.6133 189.93 78.374 190.463L77.1914 190.073C77.7793 188.686 79.0918 188.262 80.2744 188.262C81.2998 188.262 83.1387 188.576 83.1387 190.962V196H81.9287V194.961H81.8467C81.5869 195.501 80.8691 196.178 79.5771 196.178ZM79.7891 195.091C81.1494 195.091 81.9082 194.175 81.9082 193.238V192.179C81.7031 192.418 80.3633 192.555 79.8916 192.616C78.9961 192.732 78.21 193.02 78.21 193.888C78.21 194.681 78.873 195.091 79.7891 195.091ZM88.3066 188.357V189.41H84.3555V188.357H88.3066ZM85.5039 186.539H86.7344V194.018C86.7344 194.701 86.9873 195.002 87.6367 195.002C87.7939 195.002 88.0605 194.961 88.2656 194.92L88.5186 195.959C88.2656 196.048 87.917 196.096 87.6025 196.096C86.2832 196.096 85.5039 195.364 85.5039 194.113V186.539Z" fill="#333238"/>
<path d="M24.8496 211.152C22.957 211.152 21.7793 210.18 21.6797 208.715H22.8223C22.9102 209.705 23.8242 210.156 24.8496 210.156C26.0332 210.156 26.9355 209.535 26.9355 208.604C26.9355 207.76 26.1387 207.449 25.207 207.186L24.1523 206.887C22.7461 206.488 21.9258 205.768 21.9258 204.607C21.9258 203.131 23.2383 202.152 24.9258 202.152C26.6484 202.152 27.8496 203.154 27.9023 204.473H26.8125C26.7129 203.623 25.9277 203.137 24.8906 203.137C23.7598 203.137 23.0098 203.734 23.0098 204.555C23.0098 205.469 24.0352 205.791 24.6738 205.967L25.5469 206.207C26.4844 206.465 28.0195 206.992 28.0195 208.621C28.0195 210.051 26.8652 211.152 24.8496 211.152ZM32.2031 204.449V205.352H28.8164V204.449H32.2031ZM29.8008 202.891H30.8555V209.301C30.8555 209.887 31.0723 210.145 31.6289 210.145C31.7637 210.145 31.9922 210.109 32.168 210.074L32.3848 210.965C32.168 211.041 31.8691 211.082 31.5996 211.082C30.4688 211.082 29.8008 210.455 29.8008 209.383V202.891ZM35.4434 211.152C34.2012 211.152 33.2109 210.426 33.2109 209.137C33.2109 207.637 34.5469 207.361 35.7598 207.209C36.9258 207.062 37.4414 207.098 37.4414 206.611V206.576C37.4414 205.762 36.9785 205.293 36.0703 205.293C35.127 205.293 34.6172 205.797 34.4121 206.254L33.3984 205.92C33.9023 204.73 35.0273 204.367 36.041 204.367C36.9199 204.367 38.4961 204.637 38.4961 206.682V211H37.459V210.109H37.3887C37.166 210.572 36.5508 211.152 35.4434 211.152ZM35.625 210.221C36.791 210.221 37.4414 209.436 37.4414 208.633V207.725C37.2656 207.93 36.1172 208.047 35.7129 208.1C34.9453 208.199 34.2715 208.445 34.2715 209.189C34.2715 209.869 34.8398 210.221 35.625 210.221ZM40.3477 211V204.449H41.3672V205.457H41.4375C41.6777 204.795 42.3574 204.355 43.1367 204.355C43.2891 204.355 43.5469 204.367 43.6699 204.373V205.434C43.6055 205.422 43.3184 205.375 43.0371 205.375C42.0938 205.375 41.4023 206.014 41.4023 206.898V211H40.3477ZM47.6367 204.449V205.352H44.25V204.449H47.6367ZM45.2344 202.891H46.2891V209.301C46.2891 209.887 46.5059 210.145 47.0625 210.145C47.1973 210.145 47.4258 210.109 47.6016 210.074L47.8184 210.965C47.6016 211.041 47.3027 211.082 47.0332 211.082C45.9023 211.082 45.2344 210.455 45.2344 209.383V202.891ZM54.1934 211.152C52.9512 211.152 51.9609 210.426 51.9609 209.137C51.9609 207.637 53.2969 207.361 54.5098 207.209C55.6758 207.062 56.1914 207.098 56.1914 206.611V206.576C56.1914 205.762 55.7285 205.293 54.8203 205.293C53.877 205.293 53.3672 205.797 53.1621 206.254L52.1484 205.92C52.6523 204.73 53.7773 204.367 54.791 204.367C55.6699 204.367 57.2461 204.637 57.2461 206.682V211H56.209V210.109H56.1387C55.916 210.572 55.3008 211.152 54.1934 211.152ZM54.375 210.221C55.541 210.221 56.1914 209.436 56.1914 208.633V207.725C56.0156 207.93 54.8672 208.047 54.4629 208.1C53.6953 208.199 53.0215 208.445 53.0215 209.189C53.0215 209.869 53.5898 210.221 54.375 210.221ZM63.5273 207.074V211H62.4727V204.449H63.4863L63.4922 206.037H63.3457C63.7441 204.83 64.5059 204.367 65.4961 204.367C66.8203 204.367 67.7168 205.182 67.7168 206.84V211H66.6562V206.928C66.6562 205.92 66.0938 205.316 65.1797 205.316C64.2363 205.316 63.5273 205.955 63.5273 207.074ZM72.3281 211.141C70.4297 211.141 69.2578 209.793 69.2578 207.777C69.2578 205.768 70.418 204.367 72.2051 204.367C73.5938 204.367 75.0586 205.223 75.0586 207.643V208.082H69.9727V207.191H74.4902L73.998 207.52C73.998 206.23 73.3887 205.305 72.2051 205.305C71.0215 205.305 70.3242 206.283 70.3242 207.35V207.941C70.3242 209.4 71.1328 210.203 72.334 210.203C73.1074 210.203 73.6875 209.863 73.9336 209.195L74.9531 209.477C74.6484 210.467 73.6699 211.141 72.3281 211.141ZM77.8184 211L75.832 204.449H76.9512L77.748 207.309C77.9648 208.088 78.2227 209.066 78.4688 210.314H78.2871C78.5215 209.119 78.7676 208.141 78.9961 207.309L79.7812 204.449H80.9062L81.6797 207.309C81.8965 208.111 82.1426 209.09 82.377 210.314H82.1895C82.4355 209.102 82.6875 208.129 82.916 207.309L83.7129 204.449H84.832L82.8457 211H81.7969L80.9473 208.035C80.6895 207.139 80.4551 206.172 80.2148 205.152H80.4492C80.2148 206.16 79.9688 207.156 79.7168 208.035L78.8672 211H77.8184ZM92.209 211.141C90.4277 211.141 89.2266 209.787 89.2266 207.766C89.2266 205.715 90.4277 204.367 92.209 204.367C93.4746 204.367 94.5059 205.035 94.8633 206.178L93.8496 206.465C93.6562 205.791 93.0703 205.311 92.209 205.311C90.9023 205.311 90.2988 206.459 90.2988 207.766C90.2988 209.055 90.9023 210.197 92.209 210.197C93.0879 210.197 93.6855 209.699 93.8789 208.99L94.8867 209.277C94.5352 210.443 93.4922 211.141 92.209 211.141ZM97.4531 207.074V211H96.3984V202.27H97.4531V206.037H97.2715C97.6699 204.83 98.4316 204.367 99.4219 204.367C100.746 204.367 101.643 205.182 101.643 206.84V211H100.582V206.928C100.582 205.92 100.02 205.316 99.1055 205.316C98.1621 205.316 97.4531 205.955 97.4531 207.074ZM105.334 211.152C104.092 211.152 103.102 210.426 103.102 209.137C103.102 207.637 104.438 207.361 105.65 207.209C106.816 207.062 107.332 207.098 107.332 206.611V206.576C107.332 205.762 106.869 205.293 105.961 205.293C105.018 205.293 104.508 205.797 104.303 206.254L103.289 205.92C103.793 204.73 104.918 204.367 105.932 204.367C106.811 204.367 108.387 204.637 108.387 206.682V211H107.35V210.109H107.279C107.057 210.572 106.441 211.152 105.334 211.152ZM105.516 210.221C106.682 210.221 107.332 209.436 107.332 208.633V207.725C107.156 207.93 106.008 208.047 105.604 208.1C104.836 208.199 104.162 208.445 104.162 209.189C104.162 209.869 104.73 210.221 105.516 210.221ZM112.816 204.449V205.352H109.43V204.449H112.816ZM110.414 202.891H111.469V209.301C111.469 209.887 111.686 210.145 112.242 210.145C112.377 210.145 112.605 210.109 112.781 210.074L112.998 210.965C112.781 211.041 112.482 211.082 112.213 211.082C111.082 211.082 110.414 210.455 110.414 209.383V202.891Z" fill="#737278"/>
</g>
<defs>
<filter id="filter0_dd_37136_1544" x="0" y="0" width="344" height="238" filterUnits="userSpaceOnUse" color-interpolation-filters="sRGB">
<feFlood flood-opacity="0" result="BackgroundImageFix"/>
<feColorMatrix in="SourceAlpha" type="matrix" values="0 0 0 0 0 0 0 0 0 0 0 0 0 0 0 0 0 0 127 0" result="hardAlpha"/>
<feOffset/>
<feGaussianBlur stdDeviation="1"/>
<feComposite in2="hardAlpha" operator="out"/>
<feColorMatrix type="matrix" values="0 0 0 0 0.121569 0 0 0 0 0.117647 0 0 0 0 0.141176 0 0 0 0.16 0"/>
<feBlend mode="normal" in2="BackgroundImageFix" result="effect1_dropShadow_37136_1544"/>
<feColorMatrix in="SourceAlpha" type="matrix" values="0 0 0 0 0 0 0 0 0 0 0 0 0 0 0 0 0 0 127 0" result="hardAlpha"/>
<feOffset dy="2"/>
<feGaussianBlur stdDeviation="4"/>
<feComposite in2="hardAlpha" operator="out"/>
<feColorMatrix type="matrix" values="0 0 0 0 0.121569 0 0 0 0 0.117647 0 0 0 0 0.141176 0 0 0 0.16 0"/>
<feBlend mode="normal" in2="effect1_dropShadow_37136_1544" result="effect2_dropShadow_37136_1544"/>
<feBlend mode="normal" in="SourceGraphic" in2="effect2_dropShadow_37136_1544" result="shape"/>
</filter>
</defs>
</svg>
