<svg width="344" height="106" viewBox="0 0 344 106" fill="none" xmlns="http://www.w3.org/2000/svg">
<g filter="url(#filter0_dd_37095_21846)">
<rect x="8" y="6" width="328" height="90" rx="8" fill="white"/>
<rect x="8.5" y="6.5" width="327" height="89" rx="7.5" stroke="#BFBFBF"/>
<rect width="326" height="30" transform="translate(9 11)" fill="white"/>
<path d="M25.0547 27.9707H26.6191L27.4102 28.9785L28.1836 29.8809L29.6426 31.7148H27.9199L26.918 30.4844L26.4023 29.7461L25.0547 27.9707ZM25.6289 31.1172C23.3027 31.1172 21.5273 29.4883 21.5273 26.6406C21.5273 23.7812 23.3027 22.1523 25.6289 22.1523C27.9434 22.1523 29.7188 23.7812 29.7188 26.6406C29.7188 29.4941 27.9434 31.1172 25.6289 31.1172ZM25.6289 29.4707C26.959 29.4707 27.8203 28.4746 27.8203 26.6406C27.8203 24.8066 26.959 23.8047 25.6289 23.8047C24.293 23.8047 23.4258 24.8066 23.4258 26.6406C23.4258 28.4746 24.293 29.4707 25.6289 29.4707ZM33.3281 31.082C31.9629 31.082 31.0664 30.1387 31.0664 28.6211V24.4492H32.9004V28.2871C32.9004 29.084 33.334 29.5586 34.0547 29.5586C34.7812 29.5586 35.2852 29.0664 35.2852 28.2285V24.4492H37.125V31H35.3906L35.3613 29.3594H35.4609C35.1211 30.4492 34.4297 31.082 33.3281 31.082ZM38.5781 31V24.4492H40.4121V31H38.5781ZM39.4922 23.623C38.9531 23.623 38.5078 23.207 38.5078 22.6973C38.5078 22.1816 38.9531 21.7715 39.4922 21.7715C40.0371 21.7715 40.4883 22.1816 40.4883 22.6973C40.4883 23.207 40.0371 23.623 39.4922 23.623ZM44.8301 31.1289C42.8379 31.1289 41.6016 29.7695 41.6016 27.7539C41.6016 25.7266 42.8379 24.3672 44.8301 24.3672C46.418 24.3672 47.5371 25.2227 47.7715 26.5879L46.0664 26.8984C45.9258 26.2188 45.5098 25.8027 44.8477 25.8027C43.957 25.8027 43.4766 26.5762 43.4766 27.748C43.4766 28.9082 43.957 29.6992 44.8477 29.6992C45.5098 29.6992 45.9434 29.2715 46.0781 28.5625L47.7832 28.8672C47.543 30.2676 46.4297 31.1289 44.8301 31.1289ZM50.625 29.1309V26.9277H50.8945L52.9688 24.4492H55.0781L52.2715 27.7539H51.8203L50.625 29.1309ZM48.9609 31V22.2695H50.7949V31H48.9609ZM53.0449 31L51.1406 28.1699L52.3594 26.8633L55.1953 31H53.0449ZM60.5859 31.1289C59.3379 31.1289 58.418 30.4727 58.418 29.1719C58.418 27.7129 59.5781 27.2734 60.8789 27.1504C61.998 27.0449 62.4551 26.9922 62.4551 26.5703V26.541C62.4551 26.0137 62.0977 25.709 61.4648 25.709C60.8203 25.709 60.4102 26.0254 60.2812 26.4473L58.6055 26.1836C58.9102 25.0527 59.9648 24.3672 61.4766 24.3672C62.9414 24.3672 64.2891 25.041 64.2891 26.582V31H62.5547V30.0918H62.4961C62.168 30.7188 61.541 31.1289 60.5859 31.1289ZM61.1191 29.8633C61.9043 29.8633 62.4668 29.3418 62.4668 28.6621V27.9766C62.25 28.1172 61.5996 28.2109 61.2188 28.2695C60.5801 28.3574 60.1699 28.6152 60.1699 29.1133C60.1699 29.6055 60.5625 29.8633 61.1191 29.8633ZM68.7129 31.1289C66.7207 31.1289 65.4844 29.7695 65.4844 27.7539C65.4844 25.7266 66.7207 24.3672 68.7129 24.3672C70.3008 24.3672 71.4199 25.2227 71.6543 26.5879L69.9492 26.8984C69.8086 26.2188 69.3926 25.8027 68.7305 25.8027C67.8398 25.8027 67.3594 26.5762 67.3594 27.748C67.3594 28.9082 67.8398 29.6992 68.7305 29.6992C69.3926 29.6992 69.8262 29.2715 69.9609 28.5625L71.666 28.8672C71.4258 30.2676 70.3125 31.1289 68.7129 31.1289ZM76.1719 24.4492V25.8379H72.2344V24.4492H76.1719ZM73.125 22.8906H74.959V29.0605C74.959 29.459 75.1289 29.6465 75.5391 29.6465C75.6738 29.6465 75.9727 29.5996 76.0957 29.5703L76.3535 30.9355C75.9434 31.0527 75.5391 31.0938 75.1758 31.0938C73.8398 31.0938 73.125 30.4375 73.125 29.2246V22.8906ZM77.2969 31V24.4492H79.1309V31H77.2969ZM78.2109 23.623C77.6719 23.623 77.2266 23.207 77.2266 22.6973C77.2266 22.1816 77.6719 21.7715 78.2109 21.7715C78.7559 21.7715 79.207 22.1816 79.207 22.6973C79.207 23.207 78.7559 23.623 78.2109 23.623ZM83.5488 31.1289C81.5566 31.1289 80.3203 29.7695 80.3203 27.7539C80.3203 25.7266 81.5566 24.3672 83.5488 24.3672C85.541 24.3672 86.7773 25.7266 86.7773 27.7539C86.7773 29.7695 85.541 31.1289 83.5488 31.1289ZM83.5488 29.6992C84.4453 29.6992 84.9082 28.8789 84.9082 27.748C84.9082 26.6055 84.4453 25.8027 83.5488 25.8027C82.6582 25.8027 82.1953 26.6055 82.1953 27.748C82.1953 28.8789 82.6582 29.6992 83.5488 29.6992ZM89.8066 27.2266V31H87.9727V24.4492H89.7012L89.7363 26.0898H89.6309C89.9707 25.0176 90.6504 24.3672 91.7695 24.3672C93.1348 24.3672 94.0312 25.3164 94.0312 26.834V31H92.1914V27.168C92.1914 26.3711 91.7578 25.8965 91.0371 25.8965C90.3105 25.8965 89.8066 26.3887 89.8066 27.2266ZM98.127 31.1289C96.5215 31.1289 95.4199 30.4141 95.1914 29.1895L96.9023 28.9023C97.0664 29.5 97.4707 29.8047 98.1855 29.8047C98.8301 29.8047 99.2285 29.5352 99.2285 29.1602C99.2285 28.8262 98.959 28.627 98.3906 28.5098L97.2598 28.2812C95.9883 28.0234 95.3613 27.4023 95.3613 26.4121C95.3613 25.1465 96.4629 24.3672 98.1445 24.3672C99.7266 24.3672 100.682 25.0527 100.922 26.1367L99.2988 26.4121C99.1641 25.9668 98.7891 25.6738 98.1797 25.6738C97.623 25.6738 97.1953 25.9258 97.1953 26.3008C97.1953 26.6113 97.4062 26.834 98.0098 26.957L99.2051 27.1914C100.482 27.4492 101.098 28.0234 101.098 28.9609C101.098 30.2676 99.8672 31.1289 98.127 31.1289Z" fill="#333238"/>
<rect x="13" y="43" width="318" height="48" rx="4" fill="#ECECEF"/>
<path d="M25.7305 53.3359L22.4492 65.5312H21.3145L24.5957 53.3359H25.7305ZM27.6719 64V55.3389C27.6719 54.0127 28.7314 53.3359 29.8457 53.3359C30.0918 53.3359 30.3105 53.3564 30.4883 53.3906L30.3037 54.5049C30.2148 54.4844 30.1123 54.4775 29.9893 54.4775C29.2305 54.4775 28.9023 54.874 28.9023 55.6123V64H27.6719ZM26.1816 57.4102V56.3574H32.2383V57.4102H26.1816ZM31.8281 64V56.3574H33.0586V64H31.8281ZM32.4502 55.1064C31.9854 55.1064 31.5957 54.7441 31.5957 54.293C31.5957 53.8418 31.9854 53.4795 32.4502 53.4795C32.9219 53.4795 33.3115 53.8418 33.3115 54.293C33.3115 54.7441 32.9219 55.1064 32.4502 55.1064ZM34.583 64L37.5977 59.6045L37.5908 60.5479L34.7402 56.3574H36.1758L37.126 57.8408C37.6182 58.6064 37.9395 59.2627 38.3223 59.8779H37.6797C38.0693 59.2627 38.3359 58.6064 38.835 57.8408L39.8057 56.3574H41.2139L38.3496 60.6025V59.6934L41.3369 64H39.9082L38.7871 62.2842C38.3018 61.5391 37.9941 60.9102 37.6182 60.3154H38.2676C37.8916 60.9102 37.6318 61.5391 37.1396 62.2842L36.0049 64H34.583Z" fill="#333238"/>
<path d="M46.7383 59.998V59.2598L52.2695 56.4707V57.6191L48.0625 59.6172L48.0977 59.5469V59.7109L48.0625 59.6523L52.2695 61.6504V62.7871L46.7383 59.998ZM58.1348 64.1406C56.0664 64.1406 54.7188 62.8281 54.7188 61.0293V55.2695H55.832V60.9414C55.832 62.1953 56.7051 63.1094 58.1348 63.1094C59.5586 63.1094 60.4258 62.1953 60.4258 60.9414V55.2695H61.5391V61.0293C61.5391 62.8281 60.1914 64.1406 58.1348 64.1406ZM63.6484 64V55.2695H66.6367C68.6758 55.2695 69.6133 56.4062 69.6133 57.9648C69.6133 59.5234 68.6758 60.6133 66.6426 60.6133H64.2695V59.623H66.5898C67.9668 59.623 68.5059 58.9902 68.5059 57.9648C68.5059 56.9277 67.9668 56.248 66.5781 56.248H64.7617V64H63.6484ZM68.6641 64L66.5547 60.0684H67.8086L69.9531 64H68.6641ZM71.3711 64V55.2695H72.4844V63.0156H76.5273V64H71.3711ZM84.0215 59.998L78.4902 62.7871V61.6504L82.7031 59.6523L82.6621 59.7109V59.5469L82.7031 59.6172L78.4902 57.6191V56.4707L84.0215 59.2598V59.998Z" fill="#535158"/>
<path d="M24.8496 79.1523C22.957 79.1523 21.7793 78.1797 21.6797 76.7148H22.8223C22.9102 77.7051 23.8242 78.1562 24.8496 78.1562C26.0332 78.1562 26.9355 77.5352 26.9355 76.6035C26.9355 75.7598 26.1387 75.4492 25.207 75.1855L24.1523 74.8867C22.7461 74.4883 21.9258 73.7676 21.9258 72.6074C21.9258 71.1309 23.2383 70.1523 24.9258 70.1523C26.6484 70.1523 27.8496 71.1543 27.9023 72.4727H26.8125C26.7129 71.623 25.9277 71.1367 24.8906 71.1367C23.7598 71.1367 23.0098 71.7344 23.0098 72.5547C23.0098 73.4688 24.0352 73.791 24.6738 73.9668L25.5469 74.207C26.4844 74.4648 28.0195 74.9922 28.0195 76.6211C28.0195 78.0508 26.8652 79.1523 24.8496 79.1523ZM31.8457 79.082C30.5215 79.082 29.625 78.2676 29.625 76.6094V72.4492H30.6797V76.5215C30.6797 77.5293 31.248 78.1328 32.1621 78.1328C33.0996 78.1328 33.8086 77.4941 33.8086 76.375V72.4492H34.8691V79H33.8496V77.4121H33.9902C33.5859 78.6426 32.8066 79.082 31.8457 79.082ZM39.3809 81.5898C37.9277 81.5898 37.0898 80.9746 36.6855 80.2539L37.541 79.7031C37.8164 80.084 38.2266 80.6699 39.3809 80.6699C40.4238 80.6699 41.1797 80.1895 41.1797 79.1113V77.7988H41.0801C40.8574 78.1738 40.4414 78.8945 39.1758 78.8945C37.6055 78.8945 36.4102 77.752 36.4102 75.6953C36.4102 73.668 37.5645 72.3672 39.1992 72.3672C40.4648 72.3672 40.8867 73.1465 41.1094 73.498H41.209V72.4492H42.2344V79.1699C42.2344 80.8633 40.9746 81.5898 39.3809 81.5898ZM39.3516 77.957C40.541 77.957 41.1914 77.1016 41.1914 75.6719C41.1914 74.2832 40.5586 73.3105 39.3516 73.3105C38.1035 73.3105 37.4824 74.3652 37.4824 75.6719C37.4824 77.0195 38.1211 77.957 39.3516 77.957ZM46.7402 81.5898C45.2871 81.5898 44.4492 80.9746 44.0449 80.2539L44.9004 79.7031C45.1758 80.084 45.5859 80.6699 46.7402 80.6699C47.7832 80.6699 48.5391 80.1895 48.5391 79.1113V77.7988H48.4395C48.2168 78.1738 47.8008 78.8945 46.5352 78.8945C44.9648 78.8945 43.7695 77.752 43.7695 75.6953C43.7695 73.668 44.9238 72.3672 46.5586 72.3672C47.8242 72.3672 48.2461 73.1465 48.4688 73.498H48.5684V72.4492H49.5938V79.1699C49.5938 80.8633 48.334 81.5898 46.7402 81.5898ZM46.7109 77.957C47.9004 77.957 48.5508 77.1016 48.5508 75.6719C48.5508 74.2832 47.918 73.3105 46.7109 73.3105C45.4629 73.3105 44.8418 74.3652 44.8418 75.6719C44.8418 77.0195 45.4805 77.957 46.7109 77.957ZM54.1992 79.1406C52.3008 79.1406 51.1289 77.793 51.1289 75.7773C51.1289 73.7676 52.2891 72.3672 54.0762 72.3672C55.4648 72.3672 56.9297 73.2227 56.9297 75.6426V76.082H51.8438V75.1914H56.3613L55.8691 75.5195C55.8691 74.2305 55.2598 73.3047 54.0762 73.3047C52.8926 73.3047 52.1953 74.2832 52.1953 75.3496V75.9414C52.1953 77.4004 53.0039 78.2031 54.2051 78.2031C54.9785 78.2031 55.5586 77.8633 55.8047 77.1953L56.8242 77.4766C56.5195 78.4668 55.541 79.1406 54.1992 79.1406ZM60.668 79.1406C59.3203 79.1406 58.3828 78.543 58.1484 77.4121L59.1504 77.1719C59.3379 77.8926 59.8711 78.2148 60.6562 78.2148C61.5703 78.2148 62.1562 77.7637 62.1562 77.2246C62.1562 76.7734 61.8398 76.4746 61.1953 76.3223L60.1055 76.0645C58.916 75.7832 58.3477 75.1973 58.3477 74.2773C58.3477 73.1523 59.3789 72.3672 60.7734 72.3672C62.1211 72.3672 62.8301 73.0234 63.1289 73.9434L62.1738 74.1895C61.9922 73.7207 61.623 73.2637 60.7793 73.2637C60 73.2637 59.4141 73.668 59.4141 74.2129C59.4141 74.6992 59.748 74.9688 60.5156 75.1504L61.5059 75.3848C62.6953 75.666 63.252 76.2578 63.252 77.1543C63.252 78.3027 62.2031 79.1406 60.668 79.1406ZM67.3594 72.4492V73.3516H63.9727V72.4492H67.3594ZM64.957 70.8906H66.0117V77.3008C66.0117 77.8867 66.2285 78.1445 66.7852 78.1445C66.9199 78.1445 67.1484 78.1094 67.3242 78.0742L67.541 78.9648C67.3242 79.041 67.0254 79.082 66.7559 79.082C65.625 79.082 64.957 78.4551 64.957 77.3828V70.8906ZM73.916 79.1523C72.6738 79.1523 71.6836 78.4258 71.6836 77.1367C71.6836 75.6367 73.0195 75.3613 74.2324 75.209C75.3984 75.0625 75.9141 75.0977 75.9141 74.6113V74.5762C75.9141 73.7617 75.4512 73.293 74.543 73.293C73.5996 73.293 73.0898 73.7969 72.8848 74.2539L71.8711 73.9199C72.375 72.7305 73.5 72.3672 74.5137 72.3672C75.3926 72.3672 76.9688 72.6367 76.9688 74.6816V79H75.9316V78.1094H75.8613C75.6387 78.5723 75.0234 79.1523 73.916 79.1523ZM74.0977 78.2207C75.2637 78.2207 75.9141 77.4355 75.9141 76.6328V75.7246C75.7383 75.9297 74.5898 76.0469 74.1855 76.0996C73.418 76.1992 72.7441 76.4453 72.7441 77.1895C72.7441 77.8691 73.3125 78.2207 74.0977 78.2207ZM82.6641 79V71.5762C82.6641 70.4395 83.5723 69.8594 84.5273 69.8594C84.7383 69.8594 84.9258 69.877 85.0781 69.9062L84.9199 70.8613C84.8438 70.8438 84.7559 70.8379 84.6504 70.8379C84 70.8379 83.7188 71.1777 83.7188 71.8105V79H82.6641ZM81.3867 73.3516V72.4492H86.5781V73.3516H81.3867ZM86.2266 79V72.4492H87.2812V79H86.2266ZM86.7598 71.377C86.3613 71.377 86.0273 71.0664 86.0273 70.6797C86.0273 70.293 86.3613 69.9824 86.7598 69.9824C87.1641 69.9824 87.498 70.293 87.498 70.6797C87.498 71.0664 87.1641 71.377 86.7598 71.377ZM88.5879 79L91.1719 75.2324L91.166 76.041L88.7227 72.4492H89.9531L90.7676 73.7207C91.1895 74.377 91.4648 74.9395 91.793 75.4668H91.2422C91.5762 74.9395 91.8047 74.377 92.2324 73.7207L93.0645 72.4492H94.2715L91.8164 76.0879V75.3086L94.377 79H93.1523L92.1914 77.5293C91.7754 76.8906 91.5117 76.3516 91.1895 75.8418H91.7461C91.4238 76.3516 91.2012 76.8906 90.7793 77.5293L89.8066 79H88.5879ZM101.637 72.4492V73.3516H98.25V72.4492H101.637ZM99.2344 70.8906H100.289V77.3008C100.289 77.8867 100.506 78.1445 101.062 78.1445C101.197 78.1445 101.426 78.1094 101.602 78.0742L101.818 78.9648C101.602 79.041 101.303 79.082 101.033 79.082C99.9023 79.082 99.2344 78.4551 99.2344 77.3828V70.8906ZM105.533 79.1406C103.752 79.1406 102.551 77.7871 102.551 75.7656C102.551 73.7148 103.752 72.3672 105.533 72.3672C107.32 72.3672 108.527 73.7148 108.527 75.7656C108.527 77.7871 107.32 79.1406 105.533 79.1406ZM105.533 78.1973C106.857 78.1973 107.461 77.0547 107.461 75.7656C107.461 74.4648 106.857 73.3105 105.533 73.3105C104.227 73.3105 103.623 74.459 103.623 75.7656C103.623 77.0547 104.227 78.1973 105.533 78.1973ZM115.271 79.1523C114.029 79.1523 113.039 78.4258 113.039 77.1367C113.039 75.6367 114.375 75.3613 115.588 75.209C116.754 75.0625 117.27 75.0977 117.27 74.6113V74.5762C117.27 73.7617 116.807 73.293 115.898 73.293C114.955 73.293 114.445 73.7969 114.24 74.2539L113.227 73.9199C113.73 72.7305 114.855 72.3672 115.869 72.3672C116.748 72.3672 118.324 72.6367 118.324 74.6816V79H117.287V78.1094H117.217C116.994 78.5723 116.379 79.1523 115.271 79.1523ZM115.453 78.2207C116.619 78.2207 117.27 77.4355 117.27 76.6328V75.7246C117.094 75.9297 115.945 76.0469 115.541 76.0996C114.773 76.1992 114.1 76.4453 114.1 77.1895C114.1 77.8691 114.668 78.2207 115.453 78.2207ZM125.443 79L122.941 72.4492H124.096L125.49 76.334C125.783 77.1426 125.965 77.9512 126.193 78.7012H125.807C126.035 77.9512 126.211 77.1426 126.504 76.334L127.898 72.4492H129.053L126.551 79H125.443ZM132.521 79.082C131.197 79.082 130.301 78.2676 130.301 76.6094V72.4492H131.355V76.5215C131.355 77.5293 131.924 78.1328 132.838 78.1328C133.775 78.1328 134.484 77.4941 134.484 76.375V72.4492H135.545V79H134.525V77.4121H134.666C134.262 78.6426 133.482 79.082 132.521 79.082ZM138.873 79.0469C137.889 79.0469 137.402 78.4961 137.402 77.5469V70.2695H138.457V77.2832C138.457 77.8867 138.562 78.1035 139.002 78.1035C139.23 78.1035 139.324 78.0859 139.424 78.0566L139.635 78.9473C139.447 79 139.154 79.0469 138.873 79.0469ZM141.762 75.0742V79H140.707V72.4492H141.721L141.727 74.0371H141.58C141.979 72.8301 142.74 72.3672 143.73 72.3672C145.055 72.3672 145.951 73.1816 145.951 74.8398V79H144.891V74.9277C144.891 73.9199 144.328 73.3164 143.414 73.3164C142.471 73.3164 141.762 73.9551 141.762 75.0742ZM150.562 79.1406C148.664 79.1406 147.492 77.793 147.492 75.7773C147.492 73.7676 148.652 72.3672 150.439 72.3672C151.828 72.3672 153.293 73.2227 153.293 75.6426V76.082H148.207V75.1914H152.725L152.232 75.5195C152.232 74.2305 151.623 73.3047 150.439 73.3047C149.256 73.3047 148.559 74.2832 148.559 75.3496V75.9414C148.559 77.4004 149.367 78.2031 150.568 78.2031C151.342 78.2031 151.922 77.8633 152.168 77.1953L153.188 77.4766C152.883 78.4668 151.904 79.1406 150.562 79.1406ZM154.805 79V72.4492H155.824V73.457H155.895C156.135 72.7949 156.814 72.3555 157.594 72.3555C157.746 72.3555 158.004 72.3672 158.127 72.373V73.4336C158.062 73.4219 157.775 73.375 157.494 73.375C156.551 73.375 155.859 74.0137 155.859 74.8984V79H154.805ZM161.162 79.1523C159.92 79.1523 158.93 78.4258 158.93 77.1367C158.93 75.6367 160.266 75.3613 161.479 75.209C162.645 75.0625 163.16 75.0977 163.16 74.6113V74.5762C163.16 73.7617 162.697 73.293 161.789 73.293C160.846 73.293 160.336 73.7969 160.131 74.2539L159.117 73.9199C159.621 72.7305 160.746 72.3672 161.76 72.3672C162.639 72.3672 164.215 72.6367 164.215 74.6816V79H163.178V78.1094H163.107C162.885 78.5723 162.27 79.1523 161.162 79.1523ZM161.344 78.2207C162.51 78.2207 163.16 77.4355 163.16 76.6328V75.7246C162.984 75.9297 161.836 76.0469 161.432 76.0996C160.664 76.1992 159.99 76.4453 159.99 77.1895C159.99 77.8691 160.559 78.2207 161.344 78.2207ZM169.107 79.1406C167.859 79.1406 167.42 78.3496 167.203 77.9863H167.086V79H166.066V70.2695H167.121V73.498H167.203C167.42 73.1523 167.824 72.3672 169.102 72.3672C170.736 72.3672 171.879 73.668 171.879 75.7422C171.879 77.8281 170.742 79.1406 169.107 79.1406ZM168.949 78.1973C170.174 78.1973 170.807 77.1074 170.807 75.7305C170.807 74.3711 170.191 73.3105 168.949 73.3105C167.742 73.3105 167.109 74.2832 167.109 75.7305C167.109 77.1895 167.76 78.1973 168.949 78.1973ZM173.414 79V72.4492H174.469V79H173.414ZM173.947 71.377C173.549 71.377 173.215 71.0664 173.215 70.6797C173.215 70.293 173.549 69.9824 173.947 69.9824C174.352 69.9824 174.686 70.293 174.686 70.6797C174.686 71.0664 174.352 71.377 173.947 71.377ZM177.791 79.0469C176.807 79.0469 176.32 78.4961 176.32 77.5469V70.2695H177.375V77.2832C177.375 77.8867 177.48 78.1035 177.92 78.1035C178.148 78.1035 178.242 78.0859 178.342 78.0566L178.553 78.9473C178.365 79 178.072 79.0469 177.791 79.0469ZM179.625 79V72.4492H180.68V79H179.625ZM180.158 71.377C179.76 71.377 179.426 71.0664 179.426 70.6797C179.426 70.293 179.76 69.9824 180.158 69.9824C180.562 69.9824 180.896 70.293 180.896 70.6797C180.896 71.0664 180.562 71.377 180.158 71.377ZM185.109 72.4492V73.3516H181.723V72.4492H185.109ZM182.707 70.8906H183.762V77.3008C183.762 77.8867 183.979 78.1445 184.535 78.1445C184.67 78.1445 184.898 78.1094 185.074 78.0742L185.291 78.9648C185.074 79.041 184.775 79.082 184.506 79.082C183.375 79.082 182.707 78.4551 182.707 77.3828V70.8906ZM186.586 81.373L186.855 80.459L186.967 80.4883C187.611 80.6582 188.074 80.5176 188.396 79.5801L188.584 79.0352L186.082 72.4492H187.236L188.631 76.334C188.924 77.1484 189.1 77.9512 189.328 78.7012H188.941C189.164 77.9512 189.346 77.1426 189.639 76.334L191.045 72.4492H192.193L189.316 79.9785C188.918 81.0215 188.285 81.4961 187.359 81.4961C186.984 81.4961 186.697 81.4258 186.586 81.373ZM192.738 81.1035L193.254 77.7812H194.461L193.547 81.1035H192.738ZM202.412 79.1406C200.631 79.1406 199.43 77.7871 199.43 75.7656C199.43 73.7148 200.631 72.3672 202.412 72.3672C203.678 72.3672 204.709 73.0352 205.066 74.1777L204.053 74.4648C203.859 73.791 203.273 73.3105 202.412 73.3105C201.105 73.3105 200.502 74.459 200.502 75.7656C200.502 77.0547 201.105 78.1973 202.412 78.1973C203.291 78.1973 203.889 77.6992 204.082 76.9902L205.09 77.2773C204.738 78.4434 203.695 79.1406 202.412 79.1406ZM209.268 79.1406C207.486 79.1406 206.285 77.7871 206.285 75.7656C206.285 73.7148 207.486 72.3672 209.268 72.3672C211.055 72.3672 212.262 73.7148 212.262 75.7656C212.262 77.7871 211.055 79.1406 209.268 79.1406ZM209.268 78.1973C210.592 78.1973 211.195 77.0547 211.195 75.7656C211.195 74.4648 210.592 73.3105 209.268 73.3105C207.961 73.3105 207.357 74.459 207.357 75.7656C207.357 77.0547 207.961 78.1973 209.268 78.1973ZM216.252 79.1406C214.617 79.1406 213.48 77.8281 213.48 75.7422C213.48 73.668 214.623 72.3672 216.258 72.3672C217.535 72.3672 217.939 73.1523 218.156 73.498H218.238V70.2695H219.293V79H218.273V77.9863H218.156C217.939 78.3496 217.5 79.1406 216.252 79.1406ZM216.41 78.1973C217.6 78.1973 218.25 77.1895 218.25 75.7305C218.25 74.2832 217.617 73.3105 216.41 73.3105C215.168 73.3105 214.553 74.3711 214.553 75.7305C214.553 77.1074 215.186 78.1973 216.41 78.1973ZM223.898 79.1406C222 79.1406 220.828 77.793 220.828 75.7773C220.828 73.7676 221.988 72.3672 223.775 72.3672C225.164 72.3672 226.629 73.2227 226.629 75.6426V76.082H221.543V75.1914H226.061L225.568 75.5195C225.568 74.2305 224.959 73.3047 223.775 73.3047C222.592 73.3047 221.895 74.2832 221.895 75.3496V75.9414C221.895 77.4004 222.703 78.2031 223.904 78.2031C224.678 78.2031 225.258 77.8633 225.504 77.1953L226.523 77.4766C226.219 78.4668 225.24 79.1406 223.898 79.1406ZM227.965 81.1035L228.48 77.7812H229.688L228.773 81.1035H227.965ZM237.639 79.1406C235.857 79.1406 234.656 77.7871 234.656 75.7656C234.656 73.7148 235.857 72.3672 237.639 72.3672C239.426 72.3672 240.633 73.7148 240.633 75.7656C240.633 77.7871 239.426 79.1406 237.639 79.1406ZM237.639 78.1973C238.963 78.1973 239.566 77.0547 239.566 75.7656C239.566 74.4648 238.963 73.3105 237.639 73.3105C236.332 73.3105 235.729 74.459 235.729 75.7656C235.729 77.0547 236.332 78.1973 237.639 78.1973ZM242.168 79V72.4492H243.188V73.457H243.258C243.498 72.7949 244.178 72.3555 244.957 72.3555C245.109 72.3555 245.367 72.3672 245.49 72.373V73.4336C245.426 73.4219 245.139 73.375 244.857 73.375C243.914 73.375 243.223 74.0137 243.223 74.8984V79H242.168ZM250.066 81.4492V72.4492H251.086V73.498H251.203C251.42 73.1523 251.824 72.3672 253.102 72.3672C254.736 72.3672 255.879 73.668 255.879 75.7422C255.879 77.8281 254.742 79.1406 253.107 79.1406C251.859 79.1406 251.42 78.3496 251.203 77.9863H251.121V81.4492H250.066ZM252.949 78.1973C254.174 78.1973 254.807 77.1074 254.807 75.7305C254.807 74.3711 254.191 73.3105 252.949 73.3105C251.742 73.3105 251.109 74.2832 251.109 75.7305C251.109 77.1895 251.76 78.1973 252.949 78.1973ZM257.414 79V72.4492H258.469V79H257.414ZM257.947 71.377C257.549 71.377 257.215 71.0664 257.215 70.6797C257.215 70.293 257.549 69.9824 257.947 69.9824C258.352 69.9824 258.686 70.293 258.686 70.6797C258.686 71.0664 258.352 71.377 257.947 71.377ZM260.32 81.4492V72.4492H261.34V73.498H261.457C261.674 73.1523 262.078 72.3672 263.355 72.3672C264.99 72.3672 266.133 73.668 266.133 75.7422C266.133 77.8281 264.996 79.1406 263.361 79.1406C262.113 79.1406 261.674 78.3496 261.457 77.9863H261.375V81.4492H260.32ZM263.203 78.1973C264.428 78.1973 265.061 77.1074 265.061 75.7305C265.061 74.3711 264.445 73.3105 263.203 73.3105C261.996 73.3105 261.363 74.2832 261.363 75.7305C261.363 77.1895 262.014 78.1973 263.203 78.1973ZM270.422 79.1406C268.523 79.1406 267.352 77.793 267.352 75.7773C267.352 73.7676 268.512 72.3672 270.299 72.3672C271.688 72.3672 273.152 73.2227 273.152 75.6426V76.082H268.066V75.1914H272.584L272.092 75.5195C272.092 74.2305 271.482 73.3047 270.299 73.3047C269.115 73.3047 268.418 74.2832 268.418 75.3496V75.9414C268.418 77.4004 269.227 78.2031 270.428 78.2031C271.201 78.2031 271.781 77.8633 272.027 77.1953L273.047 77.4766C272.742 78.4668 271.764 79.1406 270.422 79.1406ZM276.135 79.0469C275.15 79.0469 274.664 78.4961 274.664 77.5469V70.2695H275.719V77.2832C275.719 77.8867 275.824 78.1035 276.264 78.1035C276.492 78.1035 276.586 78.0859 276.686 78.0566L276.896 78.9473C276.709 79 276.416 79.0469 276.135 79.0469ZM277.969 79V72.4492H279.023V79H277.969ZM278.502 71.377C278.104 71.377 277.77 71.0664 277.77 70.6797C277.77 70.293 278.104 69.9824 278.502 69.9824C278.906 69.9824 279.24 70.293 279.24 70.6797C279.24 71.0664 278.906 71.377 278.502 71.377ZM281.93 75.0742V79H280.875V72.4492H281.889L281.895 74.0371H281.748C282.146 72.8301 282.908 72.3672 283.898 72.3672C285.223 72.3672 286.119 73.1816 286.119 74.8398V79H285.059V74.9277C285.059 73.9199 284.496 73.3164 283.582 73.3164C282.639 73.3164 281.93 73.9551 281.93 75.0742ZM290.73 79.1406C288.832 79.1406 287.66 77.793 287.66 75.7773C287.66 73.7676 288.82 72.3672 290.607 72.3672C291.996 72.3672 293.461 73.2227 293.461 75.6426V76.082H288.375V75.1914H292.893L292.4 75.5195C292.4 74.2305 291.791 73.3047 290.607 73.3047C289.424 73.3047 288.727 74.2832 288.727 75.3496V75.9414C288.727 77.4004 289.535 78.2031 290.736 78.2031C291.51 78.2031 292.09 77.8633 292.336 77.1953L293.355 77.4766C293.051 78.4668 292.072 79.1406 290.73 79.1406Z" fill="#535158"/>
</g>
<defs>
<filter id="filter0_dd_37095_21846" x="0" y="0" width="344" height="106" filterUnits="userSpaceOnUse" color-interpolation-filters="sRGB">
<feFlood flood-opacity="0" result="BackgroundImageFix"/>
<feColorMatrix in="SourceAlpha" type="matrix" values="0 0 0 0 0 0 0 0 0 0 0 0 0 0 0 0 0 0 127 0" result="hardAlpha"/>
<feOffset/>
<feGaussianBlur stdDeviation="1"/>
<feComposite in2="hardAlpha" operator="out"/>
<feColorMatrix type="matrix" values="0 0 0 0 0.121569 0 0 0 0 0.117647 0 0 0 0 0.141176 0 0 0 0.16 0"/>
<feBlend mode="normal" in2="BackgroundImageFix" result="effect1_dropShadow_37095_21846"/>
<feColorMatrix in="SourceAlpha" type="matrix" values="0 0 0 0 0 0 0 0 0 0 0 0 0 0 0 0 0 0 127 0" result="hardAlpha"/>
<feOffset dy="2"/>
<feGaussianBlur stdDeviation="4"/>
<feComposite in2="hardAlpha" operator="out"/>
<feColorMatrix type="matrix" values="0 0 0 0 0.121569 0 0 0 0 0.117647 0 0 0 0 0.141176 0 0 0 0.16 0"/>
<feBlend mode="normal" in2="effect1_dropShadow_37095_21846" result="effect2_dropShadow_37095_21846"/>
<feBlend mode="normal" in="SourceGraphic" in2="effect2_dropShadow_37095_21846" result="shape"/>
</filter>
</defs>
</svg>
