<svg width="344" height="106" viewBox="0 0 344 106" fill="none" xmlns="http://www.w3.org/2000/svg">
<g filter="url(#filter0_dd_37095_21835)">
<rect x="8" y="6" width="328" height="90" rx="8" fill="white"/>
<rect x="8.5" y="6.5" width="327" height="89" rx="7.5" stroke="#BFBFBF"/>
<rect width="326" height="30" transform="translate(9 11)" fill="white"/>
<path d="M25.0547 27.9707H26.6191L27.4102 28.9785L28.1836 29.8809L29.6426 31.7148H27.9199L26.918 30.4844L26.4023 29.7461L25.0547 27.9707ZM25.6289 31.1172C23.3027 31.1172 21.5273 29.4883 21.5273 26.6406C21.5273 23.7812 23.3027 22.1523 25.6289 22.1523C27.9434 22.1523 29.7188 23.7812 29.7188 26.6406C29.7188 29.4941 27.9434 31.1172 25.6289 31.1172ZM25.6289 29.4707C26.959 29.4707 27.8203 28.4746 27.8203 26.6406C27.8203 24.8066 26.959 23.8047 25.6289 23.8047C24.293 23.8047 23.4258 24.8066 23.4258 26.6406C23.4258 28.4746 24.293 29.4707 25.6289 29.4707ZM33.3281 31.082C31.9629 31.082 31.0664 30.1387 31.0664 28.6211V24.4492H32.9004V28.2871C32.9004 29.084 33.334 29.5586 34.0547 29.5586C34.7812 29.5586 35.2852 29.0664 35.2852 28.2285V24.4492H37.125V31H35.3906L35.3613 29.3594H35.4609C35.1211 30.4492 34.4297 31.082 33.3281 31.082ZM38.5781 31V24.4492H40.4121V31H38.5781ZM39.4922 23.623C38.9531 23.623 38.5078 23.207 38.5078 22.6973C38.5078 22.1816 38.9531 21.7715 39.4922 21.7715C40.0371 21.7715 40.4883 22.1816 40.4883 22.6973C40.4883 23.207 40.0371 23.623 39.4922 23.623ZM44.8301 31.1289C42.8379 31.1289 41.6016 29.7695 41.6016 27.7539C41.6016 25.7266 42.8379 24.3672 44.8301 24.3672C46.418 24.3672 47.5371 25.2227 47.7715 26.5879L46.0664 26.8984C45.9258 26.2188 45.5098 25.8027 44.8477 25.8027C43.957 25.8027 43.4766 26.5762 43.4766 27.748C43.4766 28.9082 43.957 29.6992 44.8477 29.6992C45.5098 29.6992 45.9434 29.2715 46.0781 28.5625L47.7832 28.8672C47.543 30.2676 46.4297 31.1289 44.8301 31.1289ZM50.625 29.1309V26.9277H50.8945L52.9688 24.4492H55.0781L52.2715 27.7539H51.8203L50.625 29.1309ZM48.9609 31V22.2695H50.7949V31H48.9609ZM53.0449 31L51.1406 28.1699L52.3594 26.8633L55.1953 31H53.0449ZM60.5859 31.1289C59.3379 31.1289 58.418 30.4727 58.418 29.1719C58.418 27.7129 59.5781 27.2734 60.8789 27.1504C61.998 27.0449 62.4551 26.9922 62.4551 26.5703V26.541C62.4551 26.0137 62.0977 25.709 61.4648 25.709C60.8203 25.709 60.4102 26.0254 60.2812 26.4473L58.6055 26.1836C58.9102 25.0527 59.9648 24.3672 61.4766 24.3672C62.9414 24.3672 64.2891 25.041 64.2891 26.582V31H62.5547V30.0918H62.4961C62.168 30.7188 61.541 31.1289 60.5859 31.1289ZM61.1191 29.8633C61.9043 29.8633 62.4668 29.3418 62.4668 28.6621V27.9766C62.25 28.1172 61.5996 28.2109 61.2188 28.2695C60.5801 28.3574 60.1699 28.6152 60.1699 29.1133C60.1699 29.6055 60.5625 29.8633 61.1191 29.8633ZM68.7129 31.1289C66.7207 31.1289 65.4844 29.7695 65.4844 27.7539C65.4844 25.7266 66.7207 24.3672 68.7129 24.3672C70.3008 24.3672 71.4199 25.2227 71.6543 26.5879L69.9492 26.8984C69.8086 26.2188 69.3926 25.8027 68.7305 25.8027C67.8398 25.8027 67.3594 26.5762 67.3594 27.748C67.3594 28.9082 67.8398 29.6992 68.7305 29.6992C69.3926 29.6992 69.8262 29.2715 69.9609 28.5625L71.666 28.8672C71.4258 30.2676 70.3125 31.1289 68.7129 31.1289ZM76.1719 24.4492V25.8379H72.2344V24.4492H76.1719ZM73.125 22.8906H74.959V29.0605C74.959 29.459 75.1289 29.6465 75.5391 29.6465C75.6738 29.6465 75.9727 29.5996 76.0957 29.5703L76.3535 30.9355C75.9434 31.0527 75.5391 31.0938 75.1758 31.0938C73.8398 31.0938 73.125 30.4375 73.125 29.2246V22.8906ZM77.2969 31V24.4492H79.1309V31H77.2969ZM78.2109 23.623C77.6719 23.623 77.2266 23.207 77.2266 22.6973C77.2266 22.1816 77.6719 21.7715 78.2109 21.7715C78.7559 21.7715 79.207 22.1816 79.207 22.6973C79.207 23.207 78.7559 23.623 78.2109 23.623ZM83.5488 31.1289C81.5566 31.1289 80.3203 29.7695 80.3203 27.7539C80.3203 25.7266 81.5566 24.3672 83.5488 24.3672C85.541 24.3672 86.7773 25.7266 86.7773 27.7539C86.7773 29.7695 85.541 31.1289 83.5488 31.1289ZM83.5488 29.6992C84.4453 29.6992 84.9082 28.8789 84.9082 27.748C84.9082 26.6055 84.4453 25.8027 83.5488 25.8027C82.6582 25.8027 82.1953 26.6055 82.1953 27.748C82.1953 28.8789 82.6582 29.6992 83.5488 29.6992ZM89.8066 27.2266V31H87.9727V24.4492H89.7012L89.7363 26.0898H89.6309C89.9707 25.0176 90.6504 24.3672 91.7695 24.3672C93.1348 24.3672 94.0312 25.3164 94.0312 26.834V31H92.1914V27.168C92.1914 26.3711 91.7578 25.8965 91.0371 25.8965C90.3105 25.8965 89.8066 26.3887 89.8066 27.2266ZM98.127 31.1289C96.5215 31.1289 95.4199 30.4141 95.1914 29.1895L96.9023 28.9023C97.0664 29.5 97.4707 29.8047 98.1855 29.8047C98.8301 29.8047 99.2285 29.5352 99.2285 29.1602C99.2285 28.8262 98.959 28.627 98.3906 28.5098L97.2598 28.2812C95.9883 28.0234 95.3613 27.4023 95.3613 26.4121C95.3613 25.1465 96.4629 24.3672 98.1445 24.3672C99.7266 24.3672 100.682 25.0527 100.922 26.1367L99.2988 26.4121C99.1641 25.9668 98.7891 25.6738 98.1797 25.6738C97.623 25.6738 97.1953 25.9258 97.1953 26.3008C97.1953 26.6113 97.4062 26.834 98.0098 26.957L99.2051 27.1914C100.482 27.4492 101.098 28.0234 101.098 28.9609C101.098 30.2676 99.8672 31.1289 98.127 31.1289Z" fill="#333238"/>
<rect x="13" y="43" width="318" height="48" rx="4" fill="#ECECEF"/>
<path d="M25.7305 53.3359L22.4492 65.5312H21.3145L24.5957 53.3359H25.7305ZM27.6719 64V55.3389C27.6719 54.0127 28.7314 53.3359 29.8457 53.3359C30.0918 53.3359 30.3105 53.3564 30.4883 53.3906L30.3037 54.5049C30.2148 54.4844 30.1123 54.4775 29.9893 54.4775C29.2305 54.4775 28.9023 54.874 28.9023 55.6123V64H27.6719ZM26.1816 57.4102V56.3574H32.2383V57.4102H26.1816ZM31.8281 64V56.3574H33.0586V64H31.8281ZM32.4502 55.1064C31.9854 55.1064 31.5957 54.7441 31.5957 54.293C31.5957 53.8418 31.9854 53.4795 32.4502 53.4795C32.9219 53.4795 33.3115 53.8418 33.3115 54.293C33.3115 54.7441 32.9219 55.1064 32.4502 55.1064ZM34.583 64L37.5977 59.6045L37.5908 60.5479L34.7402 56.3574H36.1758L37.126 57.8408C37.6182 58.6064 37.9395 59.2627 38.3223 59.8779H37.6797C38.0693 59.2627 38.3359 58.6064 38.835 57.8408L39.8057 56.3574H41.2139L38.3496 60.6025V59.6934L41.3369 64H39.9082L38.7871 62.2842C38.3018 61.5391 37.9941 60.9102 37.6182 60.3154H38.2676C37.8916 60.9102 37.6318 61.5391 37.1396 62.2842L36.0049 64H34.583ZM48.166 64V65.1348H41.7812V64H48.166ZM49.7246 66.8574V56.3574H50.9141V57.5811H51.0508C51.3037 57.1777 51.7754 56.2617 53.2656 56.2617C55.1729 56.2617 56.5059 57.7793 56.5059 60.1992C56.5059 62.6328 55.1797 64.1641 53.2725 64.1641C51.8164 64.1641 51.3037 63.2412 51.0508 62.8174H50.9551V66.8574H49.7246ZM53.0879 63.0635C54.5166 63.0635 55.2549 61.792 55.2549 60.1855C55.2549 58.5996 54.5371 57.3623 53.0879 57.3623C51.6797 57.3623 50.9414 58.4971 50.9414 60.1855C50.9414 61.8877 51.7002 63.0635 53.0879 63.0635ZM58.2969 64V56.3574H59.5273V64H58.2969ZM58.9189 55.1064C58.4541 55.1064 58.0645 54.7441 58.0645 54.293C58.0645 53.8418 58.4541 53.4795 58.9189 53.4795C59.3906 53.4795 59.7803 53.8418 59.7803 54.293C59.7803 54.7441 59.3906 55.1064 58.9189 55.1064ZM61.6875 66.8574V56.3574H62.877V57.5811H63.0137C63.2666 57.1777 63.7383 56.2617 65.2285 56.2617C67.1357 56.2617 68.4688 57.7793 68.4688 60.1992C68.4688 62.6328 67.1426 64.1641 65.2354 64.1641C63.7793 64.1641 63.2666 63.2412 63.0137 62.8174H62.918V66.8574H61.6875ZM65.0508 63.0635C66.4795 63.0635 67.2178 61.792 67.2178 60.1855C67.2178 58.5996 66.5 57.3623 65.0508 57.3623C63.6426 57.3623 62.9043 58.4971 62.9043 60.1855C62.9043 61.8877 63.6631 63.0635 65.0508 63.0635ZM73.4727 64.1641C71.2578 64.1641 69.8906 62.5918 69.8906 60.2402C69.8906 57.8955 71.2441 56.2617 73.3291 56.2617C74.9492 56.2617 76.6582 57.2598 76.6582 60.083V60.5957H70.7246V59.5566H75.9951L75.4209 59.9395C75.4209 58.4355 74.71 57.3555 73.3291 57.3555C71.9482 57.3555 71.1348 58.4971 71.1348 59.7412V60.4316C71.1348 62.1338 72.0781 63.0703 73.4795 63.0703C74.3818 63.0703 75.0586 62.6738 75.3457 61.8945L76.5352 62.2227C76.1797 63.3779 75.0381 64.1641 73.4727 64.1641ZM80.1377 64.0547C78.9893 64.0547 78.4219 63.4121 78.4219 62.3047V53.8145H79.6523V61.9971C79.6523 62.7012 79.7754 62.9541 80.2881 62.9541C80.5547 62.9541 80.6641 62.9336 80.7803 62.8994L81.0264 63.9385C80.8076 64 80.4658 64.0547 80.1377 64.0547ZM82.2773 64V56.3574H83.5078V64H82.2773ZM82.8994 55.1064C82.4346 55.1064 82.0449 54.7441 82.0449 54.293C82.0449 53.8418 82.4346 53.4795 82.8994 53.4795C83.3711 53.4795 83.7607 53.8418 83.7607 54.293C83.7607 54.7441 83.3711 55.1064 82.8994 55.1064ZM86.8984 59.4199V64H85.668V56.3574H86.8506L86.8574 58.21H86.6865C87.1514 56.8018 88.04 56.2617 89.1953 56.2617C90.7402 56.2617 91.7861 57.2119 91.7861 59.1465V64H90.5488V59.249C90.5488 58.0732 89.8926 57.3691 88.8262 57.3691C87.7256 57.3691 86.8984 58.1143 86.8984 59.4199ZM97.166 64.1641C94.9512 64.1641 93.584 62.5918 93.584 60.2402C93.584 57.8955 94.9375 56.2617 97.0225 56.2617C98.6426 56.2617 100.352 57.2598 100.352 60.083V60.5957H94.418V59.5566H99.6885L99.1143 59.9395C99.1143 58.4355 98.4033 57.3555 97.0225 57.3555C95.6416 57.3555 94.8281 58.4971 94.8281 59.7412V60.4316C94.8281 62.1338 95.7715 63.0703 97.1729 63.0703C98.0752 63.0703 98.752 62.6738 99.0391 61.8945L100.229 62.2227C99.873 63.3779 98.7314 64.1641 97.166 64.1641Z" fill="#333238"/>
<path d="M105.992 59.998V59.2598L111.523 56.4707V57.6191L107.316 59.6172L107.352 59.5469V59.7109L107.316 59.6523L111.523 61.6504V62.7871L105.992 59.998ZM117.389 64.1406C115.32 64.1406 113.973 62.8281 113.973 61.0293V55.2695H115.086V60.9414C115.086 62.1953 115.959 63.1094 117.389 63.1094C118.812 63.1094 119.68 62.1953 119.68 60.9414V55.2695H120.793V61.0293C120.793 62.8281 119.445 64.1406 117.389 64.1406ZM122.902 64V55.2695H125.891C127.93 55.2695 128.867 56.4062 128.867 57.9648C128.867 59.5234 127.93 60.6133 125.896 60.6133H123.523V59.623H125.844C127.221 59.623 127.76 58.9902 127.76 57.9648C127.76 56.9277 127.221 56.248 125.832 56.248H124.016V64H122.902ZM127.918 64L125.809 60.0684H127.062L129.207 64H127.918ZM130.625 64V55.2695H131.738V63.0156H135.781V64H130.625ZM143.275 59.998L137.744 62.7871V61.6504L141.957 59.6523L141.916 59.7109V59.5469L141.957 59.6172L137.744 57.6191V56.4707L143.275 59.2598V59.998Z" fill="#535158"/>
<path d="M24.8496 79.1523C22.957 79.1523 21.7793 78.1797 21.6797 76.7148H22.8223C22.9102 77.7051 23.8242 78.1562 24.8496 78.1562C26.0332 78.1562 26.9355 77.5352 26.9355 76.6035C26.9355 75.7598 26.1387 75.4492 25.207 75.1855L24.1523 74.8867C22.7461 74.4883 21.9258 73.7676 21.9258 72.6074C21.9258 71.1309 23.2383 70.1523 24.9258 70.1523C26.6484 70.1523 27.8496 71.1543 27.9023 72.4727H26.8125C26.7129 71.623 25.9277 71.1367 24.8906 71.1367C23.7598 71.1367 23.0098 71.7344 23.0098 72.5547C23.0098 73.4688 24.0352 73.791 24.6738 73.9668L25.5469 74.207C26.4844 74.4648 28.0195 74.9922 28.0195 76.6211C28.0195 78.0508 26.8652 79.1523 24.8496 79.1523ZM31.8457 79.082C30.5215 79.082 29.625 78.2676 29.625 76.6094V72.4492H30.6797V76.5215C30.6797 77.5293 31.248 78.1328 32.1621 78.1328C33.0996 78.1328 33.8086 77.4941 33.8086 76.375V72.4492H34.8691V79H33.8496V77.4121H33.9902C33.5859 78.6426 32.8066 79.082 31.8457 79.082ZM39.3809 81.5898C37.9277 81.5898 37.0898 80.9746 36.6855 80.2539L37.541 79.7031C37.8164 80.084 38.2266 80.6699 39.3809 80.6699C40.4238 80.6699 41.1797 80.1895 41.1797 79.1113V77.7988H41.0801C40.8574 78.1738 40.4414 78.8945 39.1758 78.8945C37.6055 78.8945 36.4102 77.752 36.4102 75.6953C36.4102 73.668 37.5645 72.3672 39.1992 72.3672C40.4648 72.3672 40.8867 73.1465 41.1094 73.498H41.209V72.4492H42.2344V79.1699C42.2344 80.8633 40.9746 81.5898 39.3809 81.5898ZM39.3516 77.957C40.541 77.957 41.1914 77.1016 41.1914 75.6719C41.1914 74.2832 40.5586 73.3105 39.3516 73.3105C38.1035 73.3105 37.4824 74.3652 37.4824 75.6719C37.4824 77.0195 38.1211 77.957 39.3516 77.957ZM46.7402 81.5898C45.2871 81.5898 44.4492 80.9746 44.0449 80.2539L44.9004 79.7031C45.1758 80.084 45.5859 80.6699 46.7402 80.6699C47.7832 80.6699 48.5391 80.1895 48.5391 79.1113V77.7988H48.4395C48.2168 78.1738 47.8008 78.8945 46.5352 78.8945C44.9648 78.8945 43.7695 77.752 43.7695 75.6953C43.7695 73.668 44.9238 72.3672 46.5586 72.3672C47.8242 72.3672 48.2461 73.1465 48.4688 73.498H48.5684V72.4492H49.5938V79.1699C49.5938 80.8633 48.334 81.5898 46.7402 81.5898ZM46.7109 77.957C47.9004 77.957 48.5508 77.1016 48.5508 75.6719C48.5508 74.2832 47.918 73.3105 46.7109 73.3105C45.4629 73.3105 44.8418 74.3652 44.8418 75.6719C44.8418 77.0195 45.4805 77.957 46.7109 77.957ZM54.1992 79.1406C52.3008 79.1406 51.1289 77.793 51.1289 75.7773C51.1289 73.7676 52.2891 72.3672 54.0762 72.3672C55.4648 72.3672 56.9297 73.2227 56.9297 75.6426V76.082H51.8438V75.1914H56.3613L55.8691 75.5195C55.8691 74.2305 55.2598 73.3047 54.0762 73.3047C52.8926 73.3047 52.1953 74.2832 52.1953 75.3496V75.9414C52.1953 77.4004 53.0039 78.2031 54.2051 78.2031C54.9785 78.2031 55.5586 77.8633 55.8047 77.1953L56.8242 77.4766C56.5195 78.4668 55.541 79.1406 54.1992 79.1406ZM60.668 79.1406C59.3203 79.1406 58.3828 78.543 58.1484 77.4121L59.1504 77.1719C59.3379 77.8926 59.8711 78.2148 60.6562 78.2148C61.5703 78.2148 62.1562 77.7637 62.1562 77.2246C62.1562 76.7734 61.8398 76.4746 61.1953 76.3223L60.1055 76.0645C58.916 75.7832 58.3477 75.1973 58.3477 74.2773C58.3477 73.1523 59.3789 72.3672 60.7734 72.3672C62.1211 72.3672 62.8301 73.0234 63.1289 73.9434L62.1738 74.1895C61.9922 73.7207 61.623 73.2637 60.7793 73.2637C60 73.2637 59.4141 73.668 59.4141 74.2129C59.4141 74.6992 59.748 74.9688 60.5156 75.1504L61.5059 75.3848C62.6953 75.666 63.252 76.2578 63.252 77.1543C63.252 78.3027 62.2031 79.1406 60.668 79.1406ZM67.3594 72.4492V73.3516H63.9727V72.4492H67.3594ZM64.957 70.8906H66.0117V77.3008C66.0117 77.8867 66.2285 78.1445 66.7852 78.1445C66.9199 78.1445 67.1484 78.1094 67.3242 78.0742L67.541 78.9648C67.3242 79.041 67.0254 79.082 66.7559 79.082C65.625 79.082 64.957 78.4551 64.957 77.3828V70.8906ZM73.916 79.1523C72.6738 79.1523 71.6836 78.4258 71.6836 77.1367C71.6836 75.6367 73.0195 75.3613 74.2324 75.209C75.3984 75.0625 75.9141 75.0977 75.9141 74.6113V74.5762C75.9141 73.7617 75.4512 73.293 74.543 73.293C73.5996 73.293 73.0898 73.7969 72.8848 74.2539L71.8711 73.9199C72.375 72.7305 73.5 72.3672 74.5137 72.3672C75.3926 72.3672 76.9688 72.6367 76.9688 74.6816V79H75.9316V78.1094H75.8613C75.6387 78.5723 75.0234 79.1523 73.916 79.1523ZM74.0977 78.2207C75.2637 78.2207 75.9141 77.4355 75.9141 76.6328V75.7246C75.7383 75.9297 74.5898 76.0469 74.1855 76.0996C73.418 76.1992 72.7441 76.4453 72.7441 77.1895C72.7441 77.8691 73.3125 78.2207 74.0977 78.2207ZM82.6641 79V71.5762C82.6641 70.4395 83.5723 69.8594 84.5273 69.8594C84.7383 69.8594 84.9258 69.877 85.0781 69.9062L84.9199 70.8613C84.8438 70.8438 84.7559 70.8379 84.6504 70.8379C84 70.8379 83.7188 71.1777 83.7188 71.8105V79H82.6641ZM81.3867 73.3516V72.4492H86.5781V73.3516H81.3867ZM86.2266 79V72.4492H87.2812V79H86.2266ZM86.7598 71.377C86.3613 71.377 86.0273 71.0664 86.0273 70.6797C86.0273 70.293 86.3613 69.9824 86.7598 69.9824C87.1641 69.9824 87.498 70.293 87.498 70.6797C87.498 71.0664 87.1641 71.377 86.7598 71.377ZM88.5879 79L91.1719 75.2324L91.166 76.041L88.7227 72.4492H89.9531L90.7676 73.7207C91.1895 74.377 91.4648 74.9395 91.793 75.4668H91.2422C91.5762 74.9395 91.8047 74.377 92.2324 73.7207L93.0645 72.4492H94.2715L91.8164 76.0879V75.3086L94.377 79H93.1523L92.1914 77.5293C91.7754 76.8906 91.5117 76.3516 91.1895 75.8418H91.7461C91.4238 76.3516 91.2012 76.8906 90.7793 77.5293L89.8066 79H88.5879ZM102.105 72.4492V73.3516H98.25V72.4492H102.105ZM99.5391 79V71.5762C99.5391 70.4395 100.447 69.8594 101.402 69.8594C101.9 69.8594 102.229 69.9648 102.387 70.0352L102.094 70.9375C101.982 70.9023 101.818 70.8379 101.525 70.8379C100.875 70.8379 100.594 71.1777 100.594 71.8105V79H99.5391ZM106.049 79.1406C104.268 79.1406 103.066 77.7871 103.066 75.7656C103.066 73.7148 104.268 72.3672 106.049 72.3672C107.836 72.3672 109.043 73.7148 109.043 75.7656C109.043 77.7871 107.836 79.1406 106.049 79.1406ZM106.049 78.1973C107.373 78.1973 107.977 77.0547 107.977 75.7656C107.977 74.4648 107.373 73.3105 106.049 73.3105C104.742 73.3105 104.139 74.459 104.139 75.7656C104.139 77.0547 104.742 78.1973 106.049 78.1973ZM110.578 79V72.4492H111.598V73.457H111.668C111.908 72.7949 112.588 72.3555 113.367 72.3555C113.52 72.3555 113.777 72.3672 113.9 72.373V73.4336C113.836 73.4219 113.549 73.375 113.268 73.375C112.324 73.375 111.633 74.0137 111.633 74.8984V79H110.578ZM120.311 79.1523C119.068 79.1523 118.078 78.4258 118.078 77.1367C118.078 75.6367 119.414 75.3613 120.627 75.209C121.793 75.0625 122.309 75.0977 122.309 74.6113V74.5762C122.309 73.7617 121.846 73.293 120.938 73.293C119.994 73.293 119.484 73.7969 119.279 74.2539L118.266 73.9199C118.77 72.7305 119.895 72.3672 120.908 72.3672C121.787 72.3672 123.363 72.6367 123.363 74.6816V79H122.326V78.1094H122.256C122.033 78.5723 121.418 79.1523 120.311 79.1523ZM120.492 78.2207C121.658 78.2207 122.309 77.4355 122.309 76.6328V75.7246C122.133 75.9297 120.984 76.0469 120.58 76.0996C119.812 76.1992 119.139 76.4453 119.139 77.1895C119.139 77.8691 119.707 78.2207 120.492 78.2207ZM131.637 72.4492V73.3516H127.781V72.4492H131.637ZM129.07 79V71.5762C129.07 70.4395 129.979 69.8594 130.934 69.8594C131.432 69.8594 131.76 69.9648 131.918 70.0352L131.625 70.9375C131.514 70.9023 131.35 70.8379 131.057 70.8379C130.406 70.8379 130.125 71.1777 130.125 71.8105V79H129.07ZM134.678 79.1523C133.436 79.1523 132.445 78.4258 132.445 77.1367C132.445 75.6367 133.781 75.3613 134.994 75.209C136.16 75.0625 136.676 75.0977 136.676 74.6113V74.5762C136.676 73.7617 136.213 73.293 135.305 73.293C134.361 73.293 133.852 73.7969 133.646 74.2539L132.633 73.9199C133.137 72.7305 134.262 72.3672 135.275 72.3672C136.154 72.3672 137.73 72.6367 137.73 74.6816V79H136.693V78.1094H136.623C136.4 78.5723 135.785 79.1523 134.678 79.1523ZM134.859 78.2207C136.025 78.2207 136.676 77.4355 136.676 76.6328V75.7246C136.5 75.9297 135.352 76.0469 134.947 76.0996C134.18 76.1992 133.506 76.4453 133.506 77.1895C133.506 77.8691 134.074 78.2207 134.859 78.2207ZM139.582 79V72.4492H140.637V79H139.582ZM140.115 71.377C139.717 71.377 139.383 71.0664 139.383 70.6797C139.383 70.293 139.717 69.9824 140.115 69.9824C140.52 69.9824 140.854 70.293 140.854 70.6797C140.854 71.0664 140.52 71.377 140.115 71.377ZM143.959 79.0469C142.975 79.0469 142.488 78.4961 142.488 77.5469V70.2695H143.543V77.2832C143.543 77.8867 143.648 78.1035 144.088 78.1035C144.316 78.1035 144.41 78.0859 144.51 78.0566L144.721 78.9473C144.533 79 144.24 79.0469 143.959 79.0469ZM145.793 79V72.4492H146.848V79H145.793ZM146.326 71.377C145.928 71.377 145.594 71.0664 145.594 70.6797C145.594 70.293 145.928 69.9824 146.326 69.9824C146.73 69.9824 147.064 70.293 147.064 70.6797C147.064 71.0664 146.73 71.377 146.326 71.377ZM149.754 75.0742V79H148.699V72.4492H149.713L149.719 74.0371H149.572C149.971 72.8301 150.732 72.3672 151.723 72.3672C153.047 72.3672 153.943 73.1816 153.943 74.8398V79H152.883V74.9277C152.883 73.9199 152.32 73.3164 151.406 73.3164C150.463 73.3164 149.754 73.9551 149.754 75.0742ZM158.455 81.5898C157.002 81.5898 156.164 80.9746 155.76 80.2539L156.615 79.7031C156.891 80.084 157.301 80.6699 158.455 80.6699C159.498 80.6699 160.254 80.1895 160.254 79.1113V77.7988H160.154C159.932 78.1738 159.516 78.8945 158.25 78.8945C156.68 78.8945 155.484 77.752 155.484 75.6953C155.484 73.668 156.639 72.3672 158.273 72.3672C159.539 72.3672 159.961 73.1465 160.184 73.498H160.283V72.4492H161.309V79.1699C161.309 80.8633 160.049 81.5898 158.455 81.5898ZM158.426 77.957C159.615 77.957 160.266 77.1016 160.266 75.6719C160.266 74.2832 159.633 73.3105 158.426 73.3105C157.178 73.3105 156.557 74.3652 156.557 75.6719C156.557 77.0195 157.195 77.957 158.426 77.957ZM166.535 81.4492V72.4492H167.555V73.498H167.672C167.889 73.1523 168.293 72.3672 169.57 72.3672C171.205 72.3672 172.348 73.668 172.348 75.7422C172.348 77.8281 171.211 79.1406 169.576 79.1406C168.328 79.1406 167.889 78.3496 167.672 77.9863H167.59V81.4492H166.535ZM169.418 78.1973C170.643 78.1973 171.275 77.1074 171.275 75.7305C171.275 74.3711 170.66 73.3105 169.418 73.3105C168.211 73.3105 167.578 74.2832 167.578 75.7305C167.578 77.1895 168.229 78.1973 169.418 78.1973ZM173.883 79V72.4492H174.938V79H173.883ZM174.416 71.377C174.018 71.377 173.684 71.0664 173.684 70.6797C173.684 70.293 174.018 69.9824 174.416 69.9824C174.82 69.9824 175.154 70.293 175.154 70.6797C175.154 71.0664 174.82 71.377 174.416 71.377ZM176.789 81.4492V72.4492H177.809V73.498H177.926C178.143 73.1523 178.547 72.3672 179.824 72.3672C181.459 72.3672 182.602 73.668 182.602 75.7422C182.602 77.8281 181.465 79.1406 179.83 79.1406C178.582 79.1406 178.143 78.3496 177.926 77.9863H177.844V81.4492H176.789ZM179.672 78.1973C180.896 78.1973 181.529 77.1074 181.529 75.7305C181.529 74.3711 180.914 73.3105 179.672 73.3105C178.465 73.3105 177.832 74.2832 177.832 75.7305C177.832 77.1895 178.482 78.1973 179.672 78.1973ZM186.891 79.1406C184.992 79.1406 183.82 77.793 183.82 75.7773C183.82 73.7676 184.98 72.3672 186.768 72.3672C188.156 72.3672 189.621 73.2227 189.621 75.6426V76.082H184.535V75.1914H189.053L188.561 75.5195C188.561 74.2305 187.951 73.3047 186.768 73.3047C185.584 73.3047 184.887 74.2832 184.887 75.3496V75.9414C184.887 77.4004 185.695 78.2031 186.896 78.2031C187.67 78.2031 188.25 77.8633 188.496 77.1953L189.516 77.4766C189.211 78.4668 188.232 79.1406 186.891 79.1406ZM192.604 79.0469C191.619 79.0469 191.133 78.4961 191.133 77.5469V70.2695H192.188V77.2832C192.188 77.8867 192.293 78.1035 192.732 78.1035C192.961 78.1035 193.055 78.0859 193.154 78.0566L193.365 78.9473C193.178 79 192.885 79.0469 192.604 79.0469ZM194.438 79V72.4492H195.492V79H194.438ZM194.971 71.377C194.572 71.377 194.238 71.0664 194.238 70.6797C194.238 70.293 194.572 69.9824 194.971 69.9824C195.375 69.9824 195.709 70.293 195.709 70.6797C195.709 71.0664 195.375 71.377 194.971 71.377ZM198.398 75.0742V79H197.344V72.4492H198.357L198.363 74.0371H198.217C198.615 72.8301 199.377 72.3672 200.367 72.3672C201.691 72.3672 202.588 73.1816 202.588 74.8398V79H201.527V74.9277C201.527 73.9199 200.965 73.3164 200.051 73.3164C199.107 73.3164 198.398 73.9551 198.398 75.0742ZM207.199 79.1406C205.301 79.1406 204.129 77.793 204.129 75.7773C204.129 73.7676 205.289 72.3672 207.076 72.3672C208.465 72.3672 209.93 73.2227 209.93 75.6426V76.082H204.844V75.1914H209.361L208.869 75.5195C208.869 74.2305 208.26 73.3047 207.076 73.3047C205.893 73.3047 205.195 74.2832 205.195 75.3496V75.9414C205.195 77.4004 206.004 78.2031 207.205 78.2031C207.979 78.2031 208.559 77.8633 208.805 77.1953L209.824 77.4766C209.52 78.4668 208.541 79.1406 207.199 79.1406Z" fill="#535158"/>
</g>
<defs>
<filter id="filter0_dd_37095_21835" x="0" y="0" width="344" height="106" filterUnits="userSpaceOnUse" color-interpolation-filters="sRGB">
<feFlood flood-opacity="0" result="BackgroundImageFix"/>
<feColorMatrix in="SourceAlpha" type="matrix" values="0 0 0 0 0 0 0 0 0 0 0 0 0 0 0 0 0 0 127 0" result="hardAlpha"/>
<feOffset/>
<feGaussianBlur stdDeviation="1"/>
<feComposite in2="hardAlpha" operator="out"/>
<feColorMatrix type="matrix" values="0 0 0 0 0.121569 0 0 0 0 0.117647 0 0 0 0 0.141176 0 0 0 0.16 0"/>
<feBlend mode="normal" in2="BackgroundImageFix" result="effect1_dropShadow_37095_21835"/>
<feColorMatrix in="SourceAlpha" type="matrix" values="0 0 0 0 0 0 0 0 0 0 0 0 0 0 0 0 0 0 127 0" result="hardAlpha"/>
<feOffset dy="2"/>
<feGaussianBlur stdDeviation="4"/>
<feComposite in2="hardAlpha" operator="out"/>
<feColorMatrix type="matrix" values="0 0 0 0 0.121569 0 0 0 0 0.117647 0 0 0 0 0.141176 0 0 0 0.16 0"/>
<feBlend mode="normal" in2="effect1_dropShadow_37095_21835" result="effect2_dropShadow_37095_21835"/>
<feBlend mode="normal" in="SourceGraphic" in2="effect2_dropShadow_37095_21835" result="shape"/>
</filter>
</defs>
</svg>
