<svg width="344" height="156" viewBox="0 0 344 156" fill="none" xmlns="http://www.w3.org/2000/svg">
<g filter="url(#filter0_dd_37095_22366)">
<rect x="8" y="6" width="328" height="140" rx="8" fill="white"/>
<rect x="8.5" y="6.5" width="327" height="139" rx="7.5" stroke="#BFBFBF"/>
<rect width="326" height="30" transform="translate(9 11)" fill="white"/>
<path d="M25.0078 31.1289C22.8809 31.1289 21.5215 30.1445 21.4746 28.2461H23.2793C23.3379 29.125 24.0234 29.5586 24.9844 29.5586C25.9102 29.5586 26.5137 29.1309 26.5137 28.498C26.5137 27.9238 25.9863 27.6543 25.0371 27.4258L24.0879 27.1914C22.5996 26.834 21.7031 26.0898 21.7031 24.8008C21.7031 23.2188 23.1035 22.1523 25.0195 22.1523C26.9824 22.1523 28.2539 23.2363 28.2773 24.7949H26.4785C26.4141 24.1094 25.8809 23.7168 25.0078 23.7168C24.1172 23.7168 23.625 24.127 23.625 24.6836C23.625 25.2988 24.2402 25.5742 24.9902 25.75L25.7695 25.9375C27.2988 26.2832 28.3945 27.0566 28.3945 28.5039C28.3945 30.1152 27.1348 31.1289 25.0078 31.1289ZM31.6055 31.041C30.2227 31.041 29.6016 30.4668 29.6016 29.2773V22.2695H31.4355V29.0371C31.4355 29.4414 31.5703 29.6113 31.916 29.6113C32.0977 29.6113 32.1855 29.5938 32.2617 29.5703L32.5488 30.8945C32.3613 30.959 32.0215 31.041 31.6055 31.041ZM35.1797 31.1289C33.9316 31.1289 33.0117 30.4727 33.0117 29.1719C33.0117 27.7129 34.1719 27.2734 35.4727 27.1504C36.5918 27.0449 37.0488 26.9922 37.0488 26.5703V26.541C37.0488 26.0137 36.6914 25.709 36.0586 25.709C35.4141 25.709 35.0039 26.0254 34.875 26.4473L33.1992 26.1836C33.5039 25.0527 34.5586 24.3672 36.0703 24.3672C37.5352 24.3672 38.8828 25.041 38.8828 26.582V31H37.1484V30.0918H37.0898C36.7617 30.7188 36.1348 31.1289 35.1797 31.1289ZM35.7129 29.8633C36.498 29.8633 37.0605 29.3418 37.0605 28.6621V27.9766C36.8438 28.1172 36.1934 28.2109 35.8125 28.2695C35.1738 28.3574 34.7637 28.6152 34.7637 29.1133C34.7637 29.6055 35.1562 29.8633 35.7129 29.8633ZM42.9902 31.1289C41.3848 31.1289 40.2832 30.4141 40.0547 29.1895L41.7656 28.9023C41.9297 29.5 42.334 29.8047 43.0488 29.8047C43.6934 29.8047 44.0918 29.5352 44.0918 29.1602C44.0918 28.8262 43.8223 28.627 43.2539 28.5098L42.123 28.2812C40.8516 28.0234 40.2246 27.4023 40.2246 26.4121C40.2246 25.1465 41.3262 24.3672 43.0078 24.3672C44.5898 24.3672 45.5449 25.0527 45.7852 26.1367L44.1621 26.4121C44.0273 25.9668 43.6523 25.6738 43.043 25.6738C42.4863 25.6738 42.0586 25.9258 42.0586 26.3008C42.0586 26.6113 42.2695 26.834 42.873 26.957L44.0684 27.1914C45.3457 27.4492 45.9609 28.0234 45.9609 28.9609C45.9609 30.2676 44.7305 31.1289 42.9902 31.1289ZM48.9551 27.2266V31H47.1211V22.2695H48.9199V26.0898H48.7793C49.1191 25.0176 49.7988 24.3672 50.918 24.3672C52.2832 24.3672 53.1797 25.3164 53.1797 26.834V31H51.3398V27.168C51.3398 26.3711 50.9062 25.8965 50.1855 25.8965C49.459 25.8965 48.9551 26.3887 48.9551 27.2266ZM60.3809 31.1289C58.3887 31.1289 57.1523 29.7695 57.1523 27.7539C57.1523 25.7266 58.3887 24.3672 60.3809 24.3672C61.9688 24.3672 63.0879 25.2227 63.3223 26.5879L61.6172 26.8984C61.4766 26.2188 61.0605 25.8027 60.3984 25.8027C59.5078 25.8027 59.0273 26.5762 59.0273 27.748C59.0273 28.9082 59.5078 29.6992 60.3984 29.6992C61.0605 29.6992 61.4941 29.2715 61.6289 28.5625L63.334 28.8672C63.0938 30.2676 61.9805 31.1289 60.3809 31.1289ZM67.4707 31.1289C65.4785 31.1289 64.2422 29.7695 64.2422 27.7539C64.2422 25.7266 65.4785 24.3672 67.4707 24.3672C69.4629 24.3672 70.6992 25.7266 70.6992 27.7539C70.6992 29.7695 69.4629 31.1289 67.4707 31.1289ZM67.4707 29.6992C68.3672 29.6992 68.8301 28.8789 68.8301 27.748C68.8301 26.6055 68.3672 25.8027 67.4707 25.8027C66.5801 25.8027 66.1172 26.6055 66.1172 27.748C66.1172 28.8789 66.5801 29.6992 67.4707 29.6992ZM71.8945 31V24.4492H73.5938L73.6875 26.1016H73.5586C73.8516 24.8711 74.6602 24.3555 75.5449 24.3555C76.4766 24.3555 77.0449 24.9355 77.3262 26.2188H77.1152C77.4141 24.9238 78.3398 24.3555 79.3418 24.3555C80.5488 24.3555 81.4336 25.1699 81.4336 26.582V31H79.5938V26.957C79.5938 26.2363 79.166 25.8789 78.5918 25.8789C77.9473 25.8789 77.5488 26.3301 77.5488 26.998V31H75.7793V26.916C75.7793 26.2832 75.3691 25.8789 74.7891 25.8789C74.1855 25.8789 73.7285 26.3008 73.7285 27.0625V31H71.8945ZM82.8984 31V24.4492H84.5977L84.6914 26.1016H84.5625C84.8555 24.8711 85.6641 24.3555 86.5488 24.3555C87.4805 24.3555 88.0488 24.9355 88.3301 26.2188H88.1191C88.418 24.9238 89.3438 24.3555 90.3457 24.3555C91.5527 24.3555 92.4375 25.1699 92.4375 26.582V31H90.5977V26.957C90.5977 26.2363 90.1699 25.8789 89.5957 25.8789C88.9512 25.8789 88.5527 26.3301 88.5527 26.998V31H86.7832V26.916C86.7832 26.2832 86.373 25.8789 85.793 25.8789C85.1895 25.8789 84.7324 26.3008 84.7324 27.0625V31H82.8984ZM95.7305 31.1289C94.4824 31.1289 93.5625 30.4727 93.5625 29.1719C93.5625 27.7129 94.7227 27.2734 96.0234 27.1504C97.1426 27.0449 97.5996 26.9922 97.5996 26.5703V26.541C97.5996 26.0137 97.2422 25.709 96.6094 25.709C95.9648 25.709 95.5547 26.0254 95.4258 26.4473L93.75 26.1836C94.0547 25.0527 95.1094 24.3672 96.6211 24.3672C98.0859 24.3672 99.4336 25.041 99.4336 26.582V31H97.6992V30.0918H97.6406C97.3125 30.7188 96.6855 31.1289 95.7305 31.1289ZM96.2637 29.8633C97.0488 29.8633 97.6113 29.3418 97.6113 28.6621V27.9766C97.3945 28.1172 96.7441 28.2109 96.3633 28.2695C95.7246 28.3574 95.3145 28.6152 95.3145 29.1133C95.3145 29.6055 95.707 29.8633 96.2637 29.8633ZM102.732 27.2266V31H100.898V24.4492H102.627L102.662 26.0898H102.557C102.896 25.0176 103.576 24.3672 104.695 24.3672C106.061 24.3672 106.957 25.3164 106.957 26.834V31H105.117V27.168C105.117 26.3711 104.684 25.8965 103.963 25.8965C103.236 25.8965 102.732 26.3887 102.732 27.2266ZM110.801 31.1055C109.307 31.1055 108.141 29.9277 108.141 27.7363C108.141 25.4863 109.354 24.3672 110.789 24.3672C111.879 24.3672 112.412 25.0234 112.646 25.5625H112.705V22.2695H114.539V31H112.729V29.9512H112.646C112.4 30.4961 111.85 31.1055 110.801 31.1055ZM111.381 29.6465C112.242 29.6465 112.74 28.8848 112.74 27.7305C112.74 26.5703 112.254 25.832 111.381 25.832C110.496 25.832 110.027 26.6055 110.027 27.7305C110.027 28.8613 110.502 29.6465 111.381 29.6465ZM118.646 31.1289C117.041 31.1289 115.939 30.4141 115.711 29.1895L117.422 28.9023C117.586 29.5 117.99 29.8047 118.705 29.8047C119.35 29.8047 119.748 29.5352 119.748 29.1602C119.748 28.8262 119.479 28.627 118.91 28.5098L117.779 28.2812C116.508 28.0234 115.881 27.4023 115.881 26.4121C115.881 25.1465 116.982 24.3672 118.664 24.3672C120.246 24.3672 121.201 25.0527 121.441 26.1367L119.818 26.4121C119.684 25.9668 119.309 25.6738 118.699 25.6738C118.143 25.6738 117.715 25.9258 117.715 26.3008C117.715 26.6113 117.926 26.834 118.529 26.957L119.725 27.1914C121.002 27.4492 121.617 28.0234 121.617 28.9609C121.617 30.2676 120.387 31.1289 118.646 31.1289Z" fill="#333238"/>
<rect x="13" y="43" width="318" height="48" rx="4" fill="#ECECEF"/>
<path d="M25.7305 53.3359L22.4492 65.5312H21.3145L24.5957 53.3359H25.7305ZM29.7227 64.1641C28.1504 64.1641 27.0566 63.4668 26.7832 62.1475L27.9521 61.8672C28.1709 62.708 28.793 63.084 29.709 63.084C30.7754 63.084 31.459 62.5576 31.459 61.9287C31.459 61.4023 31.0898 61.0537 30.3379 60.876L29.0664 60.5752C27.6787 60.2471 27.0156 59.5635 27.0156 58.4902C27.0156 57.1777 28.2188 56.2617 29.8457 56.2617C31.418 56.2617 32.2451 57.0273 32.5938 58.1006L31.4795 58.3877C31.2676 57.8408 30.8369 57.3076 29.8525 57.3076C28.9434 57.3076 28.2598 57.7793 28.2598 58.415C28.2598 58.9824 28.6494 59.2969 29.5449 59.5088L30.7002 59.7822C32.0879 60.1104 32.7373 60.8008 32.7373 61.8467C32.7373 63.1865 31.5137 64.1641 29.7227 64.1641ZM37.1123 64.0957C35.5674 64.0957 34.5215 63.1455 34.5215 61.2109V56.3574H35.752V61.1084C35.752 62.2842 36.415 62.9883 37.4814 62.9883C38.5752 62.9883 39.4023 62.2432 39.4023 60.9375V56.3574H40.6396V64H39.4502V62.1475H39.6143C39.1426 63.583 38.2334 64.0957 37.1123 64.0957ZM42.8066 64V56.3574H44.0029L44.0098 58.0664H43.9141C44.2217 56.8291 45.1582 56.2207 46.1494 56.2207C47.2568 56.2207 47.9609 56.9727 48.166 58.0801H48.002C48.2754 56.9385 49.2871 56.2207 50.5039 56.2207C51.8301 56.2207 52.9102 57.0752 52.9102 58.8457V64H51.6729V58.8799C51.6729 57.7793 50.9551 57.3418 50.1348 57.3418C49.1025 57.3418 48.4736 58.0459 48.4736 59.0098V64H47.2432V58.7568C47.2432 57.9092 46.6074 57.3418 45.7461 57.3418C44.8506 57.3418 44.0371 57.9707 44.0371 59.1875V64H42.8066ZM55.0703 64V56.3574H56.2666L56.2734 58.0664H56.1777C56.4854 56.8291 57.4219 56.2207 58.4131 56.2207C59.5205 56.2207 60.2246 56.9727 60.4297 58.0801H60.2656C60.5391 56.9385 61.5508 56.2207 62.7676 56.2207C64.0938 56.2207 65.1738 57.0752 65.1738 58.8457V64H63.9365V58.8799C63.9365 57.7793 63.2188 57.3418 62.3984 57.3418C61.3662 57.3418 60.7373 58.0459 60.7373 59.0098V64H59.5068V58.7568C59.5068 57.9092 58.8711 57.3418 58.0098 57.3418C57.1143 57.3418 56.3008 57.9707 56.3008 59.1875V64H55.0703ZM69.4736 64.1777C68.0244 64.1777 66.8691 63.3301 66.8691 61.8262C66.8691 60.0762 68.4277 59.7549 69.8428 59.5771C71.2031 59.4062 71.8047 59.4473 71.8047 58.8799V58.8389C71.8047 57.8887 71.2646 57.3418 70.2051 57.3418C69.1045 57.3418 68.5098 57.9297 68.2705 58.4629L67.0879 58.0732C67.6758 56.6855 68.9883 56.2617 70.1709 56.2617C71.1963 56.2617 73.0352 56.5762 73.0352 58.9619V64H71.8252V62.9609H71.7432C71.4834 63.501 70.7656 64.1777 69.4736 64.1777ZM69.6855 63.0908C71.0459 63.0908 71.8047 62.1748 71.8047 61.2383V60.1787C71.5996 60.418 70.2598 60.5547 69.7881 60.6162C68.8926 60.7324 68.1064 61.0195 68.1064 61.8877C68.1064 62.6807 68.7695 63.0908 69.6855 63.0908ZM75.1953 64V56.3574H76.3848V57.5332H76.4668C76.7471 56.7607 77.54 56.248 78.4492 56.248C78.627 56.248 78.9277 56.2617 79.0713 56.2686V57.5059C78.9961 57.4922 78.6611 57.4375 78.333 57.4375C77.2324 57.4375 76.4258 58.1826 76.4258 59.2148V64H75.1953ZM80.6914 64V56.3574H81.9219V64H80.6914ZM81.3135 55.1064C80.8486 55.1064 80.459 54.7441 80.459 54.293C80.459 53.8418 80.8486 53.4795 81.3135 53.4795C81.7852 53.4795 82.1748 53.8418 82.1748 54.293C82.1748 54.7441 81.7852 55.1064 81.3135 55.1064ZM83.8633 64V63.084L88.1494 57.5742V57.499H84V56.3574H89.7354V57.335L85.5723 62.7832V62.8584H89.8721V64H83.8633ZM94.8281 64.1641C92.6133 64.1641 91.2461 62.5918 91.2461 60.2402C91.2461 57.8955 92.5996 56.2617 94.6846 56.2617C96.3047 56.2617 98.0137 57.2598 98.0137 60.083V60.5957H92.0801V59.5566H97.3506L96.7764 59.9395C96.7764 58.4355 96.0654 57.3555 94.6846 57.3555C93.3037 57.3555 92.4902 58.4971 92.4902 59.7412V60.4316C92.4902 62.1338 93.4336 63.0703 94.835 63.0703C95.7373 63.0703 96.4141 62.6738 96.7012 61.8945L97.8906 62.2227C97.5352 63.3779 96.3936 64.1641 94.8281 64.1641Z" fill="#333238"/>
<path d="M106.801 64L108.242 55.2695H109.127L107.697 64H106.801ZM102.834 61.5918L102.98 60.7129H109.52L109.373 61.5918H102.834ZM103.742 64L105.172 55.2695H106.057L104.627 64H103.742ZM103.35 58.5684L103.496 57.6777H110.023L109.889 58.5684H103.35ZM111.166 64V57.4492H112.221V64H111.166ZM111.699 56.377C111.301 56.377 110.967 56.0664 110.967 55.6797C110.967 55.293 111.301 54.9824 111.699 54.9824C112.104 54.9824 112.438 55.293 112.438 55.6797C112.438 56.0664 112.104 56.377 111.699 56.377ZM116.299 64.1406C114.951 64.1406 114.014 63.543 113.779 62.4121L114.781 62.1719C114.969 62.8926 115.502 63.2148 116.287 63.2148C117.201 63.2148 117.787 62.7637 117.787 62.2246C117.787 61.7734 117.471 61.4746 116.826 61.3223L115.736 61.0645C114.547 60.7832 113.979 60.1973 113.979 59.2773C113.979 58.1523 115.01 57.3672 116.404 57.3672C117.752 57.3672 118.461 58.0234 118.76 58.9434L117.805 59.1895C117.623 58.7207 117.254 58.2637 116.41 58.2637C115.631 58.2637 115.045 58.668 115.045 59.2129C115.045 59.6992 115.379 59.9688 116.146 60.1504L117.137 60.3848C118.326 60.666 118.883 61.2578 118.883 62.1543C118.883 63.3027 117.834 64.1406 116.299 64.1406ZM122.639 64.1406C121.291 64.1406 120.354 63.543 120.119 62.4121L121.121 62.1719C121.309 62.8926 121.842 63.2148 122.627 63.2148C123.541 63.2148 124.127 62.7637 124.127 62.2246C124.127 61.7734 123.811 61.4746 123.166 61.3223L122.076 61.0645C120.887 60.7832 120.318 60.1973 120.318 59.2773C120.318 58.1523 121.35 57.3672 122.744 57.3672C124.092 57.3672 124.801 58.0234 125.1 58.9434L124.145 59.1895C123.963 58.7207 123.594 58.2637 122.75 58.2637C121.971 58.2637 121.385 58.668 121.385 59.2129C121.385 59.6992 121.719 59.9688 122.486 60.1504L123.477 60.3848C124.666 60.666 125.223 61.2578 125.223 62.1543C125.223 63.3027 124.174 64.1406 122.639 64.1406ZM128.973 64.082C127.648 64.082 126.752 63.2676 126.752 61.6094V57.4492H127.807V61.5215C127.807 62.5293 128.375 63.1328 129.289 63.1328C130.227 63.1328 130.936 62.4941 130.936 61.375V57.4492H131.996V64H130.977V62.4121H131.117C130.713 63.6426 129.934 64.082 128.973 64.082ZM136.607 64.1406C134.709 64.1406 133.537 62.793 133.537 60.7773C133.537 58.7676 134.697 57.3672 136.484 57.3672C137.873 57.3672 139.338 58.2227 139.338 60.6426V61.082H134.252V60.1914H138.77L138.277 60.5195C138.277 59.2305 137.668 58.3047 136.484 58.3047C135.301 58.3047 134.604 59.2832 134.604 60.3496V60.9414C134.604 62.4004 135.412 63.2031 136.613 63.2031C137.387 63.2031 137.967 62.8633 138.213 62.1953L139.232 62.4766C138.928 63.4668 137.949 64.1406 136.607 64.1406ZM140.674 66.1035L141.189 62.7812H142.396L141.482 66.1035H140.674ZM150.154 64.1172C148.426 64.1172 147.365 63.0918 147.365 61.6797C147.365 60.6016 148.133 59.9863 149.182 59.2129L150.477 58.2578C150.945 57.9121 151.273 57.6133 151.273 57.0391C151.273 56.5996 150.857 56.0957 150.236 56.0957C149.586 56.0957 149.135 56.6641 149.135 57.1973C149.135 57.8125 149.703 58.4277 150.277 59.125L154.297 64H153.025L149.715 60.0273C148.807 58.9375 148.074 58.2109 148.074 57.1855C148.074 56.002 148.924 55.1875 150.201 55.1875C151.525 55.1875 152.334 56.043 152.334 57.0332C152.334 57.8711 151.877 58.4512 151.174 58.9727L149.428 60.2676C148.678 60.8242 148.449 61.4219 148.449 61.6738C148.449 62.4766 149.117 63.1973 150.137 63.1973C151.438 63.1973 152.768 62.0137 152.768 60.1445H153.781C153.781 61.8789 153.043 62.6113 152.703 62.9336C152.627 63.0215 152.562 63.1152 152.492 63.1973C151.918 63.8184 150.986 64.1172 150.154 64.1172ZM158.17 64.1406C156.271 64.1406 155.1 62.793 155.1 60.7773C155.1 58.7676 156.26 57.3672 158.047 57.3672C159.436 57.3672 160.9 58.2227 160.9 60.6426V61.082H155.814V60.1914H160.332L159.84 60.5195C159.84 59.2305 159.23 58.3047 158.047 58.3047C156.863 58.3047 156.166 59.2832 156.166 60.3496V60.9414C156.166 62.4004 156.975 63.2031 158.176 63.2031C158.949 63.2031 159.529 62.8633 159.775 62.1953L160.795 62.4766C160.49 63.4668 159.512 64.1406 158.17 64.1406ZM162.412 66.4492V57.4492H163.432V58.498H163.549C163.766 58.1523 164.17 57.3672 165.447 57.3672C167.082 57.3672 168.225 58.668 168.225 60.7422C168.225 62.8281 167.088 64.1406 165.453 64.1406C164.205 64.1406 163.766 63.3496 163.549 62.9863H163.467V66.4492H162.412ZM165.295 63.1973C166.52 63.1973 167.152 62.1074 167.152 60.7305C167.152 59.3711 166.537 58.3105 165.295 58.3105C164.088 58.3105 163.455 59.2832 163.455 60.7305C163.455 62.1895 164.105 63.1973 165.295 63.1973ZM169.76 64V57.4492H170.814V64H169.76ZM170.293 56.377C169.895 56.377 169.561 56.0664 169.561 55.6797C169.561 55.293 169.895 54.9824 170.293 54.9824C170.697 54.9824 171.031 55.293 171.031 55.6797C171.031 56.0664 170.697 56.377 170.293 56.377ZM175.332 64.1406C173.551 64.1406 172.35 62.7871 172.35 60.7656C172.35 58.7148 173.551 57.3672 175.332 57.3672C176.598 57.3672 177.629 58.0352 177.986 59.1777L176.973 59.4648C176.779 58.791 176.193 58.3105 175.332 58.3105C174.025 58.3105 173.422 59.459 173.422 60.7656C173.422 62.0547 174.025 63.1973 175.332 63.1973C176.211 63.1973 176.809 62.6992 177.002 61.9902L178.01 62.2773C177.658 63.4434 176.615 64.1406 175.332 64.1406ZM179.346 66.1035L179.861 62.7812H181.068L180.154 66.1035H179.346ZM186.447 59.998V59.2598L191.979 56.4707V57.6191L187.771 59.6172L187.807 59.5469V59.7109L187.771 59.6523L191.979 61.6504V62.7871L186.447 59.998ZM197.844 64.1406C195.775 64.1406 194.428 62.8281 194.428 61.0293V55.2695H195.541V60.9414C195.541 62.1953 196.414 63.1094 197.844 63.1094C199.268 63.1094 200.135 62.1953 200.135 60.9414V55.2695H201.248V61.0293C201.248 62.8281 199.9 64.1406 197.844 64.1406ZM203.357 64V55.2695H206.346C208.385 55.2695 209.322 56.4062 209.322 57.9648C209.322 59.5234 208.385 60.6133 206.352 60.6133H203.979V59.623H206.299C207.676 59.623 208.215 58.9902 208.215 57.9648C208.215 56.9277 207.676 56.248 206.287 56.248H204.471V64H203.357ZM208.373 64L206.264 60.0684H207.518L209.662 64H208.373ZM211.08 64V55.2695H212.193V63.0156H216.236V64H211.08ZM223.73 59.998L218.199 62.7871V61.6504L222.412 59.6523L222.371 59.7109V59.5469L222.412 59.6172L218.199 57.6191V56.4707L223.73 59.2598V59.998Z" fill="#535158"/>
<path d="M24.8496 79.1523C22.957 79.1523 21.7793 78.1797 21.6797 76.7148H22.8223C22.9102 77.7051 23.8242 78.1562 24.8496 78.1562C26.0332 78.1562 26.9355 77.5352 26.9355 76.6035C26.9355 75.7598 26.1387 75.4492 25.207 75.1855L24.1523 74.8867C22.7461 74.4883 21.9258 73.7676 21.9258 72.6074C21.9258 71.1309 23.2383 70.1523 24.9258 70.1523C26.6484 70.1523 27.8496 71.1543 27.9023 72.4727H26.8125C26.7129 71.623 25.9277 71.1367 24.8906 71.1367C23.7598 71.1367 23.0098 71.7344 23.0098 72.5547C23.0098 73.4688 24.0352 73.791 24.6738 73.9668L25.5469 74.207C26.4844 74.4648 28.0195 74.9922 28.0195 76.6211C28.0195 78.0508 26.8652 79.1523 24.8496 79.1523ZM31.8457 79.082C30.5215 79.082 29.625 78.2676 29.625 76.6094V72.4492H30.6797V76.5215C30.6797 77.5293 31.248 78.1328 32.1621 78.1328C33.0996 78.1328 33.8086 77.4941 33.8086 76.375V72.4492H34.8691V79H33.8496V77.4121H33.9902C33.5859 78.6426 32.8066 79.082 31.8457 79.082ZM36.7266 79V72.4492H37.752L37.7578 73.9141H37.6758C37.9395 72.8535 38.7422 72.332 39.5918 72.332C40.541 72.332 41.1445 72.9766 41.3203 73.9258H41.1797C41.4141 72.9473 42.2812 72.332 43.3242 72.332C44.4609 72.332 45.3867 73.0645 45.3867 74.582V79H44.3262V74.6113C44.3262 73.668 43.7109 73.293 43.0078 73.293C42.123 73.293 41.584 73.8965 41.584 74.7227V79H40.5293V74.5059C40.5293 73.7793 39.9844 73.293 39.2461 73.293C38.4785 73.293 37.7812 73.832 37.7812 74.875V79H36.7266ZM47.2383 79V72.4492H48.2637L48.2695 73.9141H48.1875C48.4512 72.8535 49.2539 72.332 50.1035 72.332C51.0527 72.332 51.6562 72.9766 51.832 73.9258H51.6914C51.9258 72.9473 52.793 72.332 53.8359 72.332C54.9727 72.332 55.8984 73.0645 55.8984 74.582V79H54.8379V74.6113C54.8379 73.668 54.2227 73.293 53.5195 73.293C52.6348 73.293 52.0957 73.8965 52.0957 74.7227V79H51.041V74.5059C51.041 73.7793 50.4961 73.293 49.7578 73.293C48.9902 73.293 48.293 73.832 48.293 74.875V79H47.2383ZM59.584 79.1523C58.3418 79.1523 57.3516 78.4258 57.3516 77.1367C57.3516 75.6367 58.6875 75.3613 59.9004 75.209C61.0664 75.0625 61.582 75.0977 61.582 74.6113V74.5762C61.582 73.7617 61.1191 73.293 60.2109 73.293C59.2676 73.293 58.7578 73.7969 58.5527 74.2539L57.5391 73.9199C58.043 72.7305 59.168 72.3672 60.1816 72.3672C61.0605 72.3672 62.6367 72.6367 62.6367 74.6816V79H61.5996V78.1094H61.5293C61.3066 78.5723 60.6914 79.1523 59.584 79.1523ZM59.7656 78.2207C60.9316 78.2207 61.582 77.4355 61.582 76.6328V75.7246C61.4062 75.9297 60.2578 76.0469 59.8535 76.0996C59.0859 76.1992 58.4121 76.4453 58.4121 77.1895C58.4121 77.8691 58.9805 78.2207 59.7656 78.2207ZM64.4883 79V72.4492H65.5078V73.457H65.5781C65.8184 72.7949 66.498 72.3555 67.2773 72.3555C67.4297 72.3555 67.6875 72.3672 67.8105 72.373V73.4336C67.7461 73.4219 67.459 73.375 67.1777 73.375C66.2344 73.375 65.543 74.0137 65.543 74.8984V79H64.4883ZM69.1992 79V72.4492H70.2539V79H69.1992ZM69.7324 71.377C69.334 71.377 69 71.0664 69 70.6797C69 70.293 69.334 69.9824 69.7324 69.9824C70.1367 69.9824 70.4707 70.293 70.4707 70.6797C70.4707 71.0664 70.1367 71.377 69.7324 71.377ZM71.918 79V78.2148L75.5918 73.4922V73.4277H72.0352V72.4492H76.9512V73.2871L73.3828 77.957V78.0215H77.0684V79H71.918ZM81.3164 79.1406C79.418 79.1406 78.2461 77.793 78.2461 75.7773C78.2461 73.7676 79.4062 72.3672 81.1934 72.3672C82.582 72.3672 84.0469 73.2227 84.0469 75.6426V76.082H78.9609V75.1914H83.4785L82.9863 75.5195C82.9863 74.2305 82.377 73.3047 81.1934 73.3047C80.0098 73.3047 79.3125 74.2832 79.3125 75.3496V75.9414C79.3125 77.4004 80.1211 78.2031 81.3223 78.2031C82.0957 78.2031 82.6758 77.8633 82.9219 77.1953L83.9414 77.4766C83.6367 78.4668 82.6582 79.1406 81.3164 79.1406ZM87.7852 79.1406C86.4375 79.1406 85.5 78.543 85.2656 77.4121L86.2676 77.1719C86.4551 77.8926 86.9883 78.2148 87.7734 78.2148C88.6875 78.2148 89.2734 77.7637 89.2734 77.2246C89.2734 76.7734 88.957 76.4746 88.3125 76.3223L87.2227 76.0645C86.0332 75.7832 85.4648 75.1973 85.4648 74.2773C85.4648 73.1523 86.4961 72.3672 87.8906 72.3672C89.2383 72.3672 89.9473 73.0234 90.2461 73.9434L89.291 74.1895C89.1094 73.7207 88.7402 73.2637 87.8965 73.2637C87.1172 73.2637 86.5312 73.668 86.5312 74.2129C86.5312 74.6992 86.8652 74.9688 87.6328 75.1504L88.623 75.3848C89.8125 75.666 90.3691 76.2578 90.3691 77.1543C90.3691 78.3027 89.3203 79.1406 87.7852 79.1406ZM95.2734 79V72.4492H96.3281V79H95.2734ZM95.8066 71.377C95.4082 71.377 95.0742 71.0664 95.0742 70.6797C95.0742 70.293 95.4082 69.9824 95.8066 69.9824C96.2109 69.9824 96.5449 70.293 96.5449 70.6797C96.5449 71.0664 96.2109 71.377 95.8066 71.377ZM100.406 79.1406C99.0586 79.1406 98.1211 78.543 97.8867 77.4121L98.8887 77.1719C99.0762 77.8926 99.6094 78.2148 100.395 78.2148C101.309 78.2148 101.895 77.7637 101.895 77.2246C101.895 76.7734 101.578 76.4746 100.934 76.3223L99.8438 76.0645C98.6543 75.7832 98.0859 75.1973 98.0859 74.2773C98.0859 73.1523 99.1172 72.3672 100.512 72.3672C101.859 72.3672 102.568 73.0234 102.867 73.9434L101.912 74.1895C101.73 73.7207 101.361 73.2637 100.518 73.2637C99.7383 73.2637 99.1523 73.668 99.1523 74.2129C99.1523 74.6992 99.4863 74.9688 100.254 75.1504L101.244 75.3848C102.434 75.666 102.99 76.2578 102.99 77.1543C102.99 78.3027 101.941 79.1406 100.406 79.1406ZM106.746 79.1406C105.398 79.1406 104.461 78.543 104.227 77.4121L105.229 77.1719C105.416 77.8926 105.949 78.2148 106.734 78.2148C107.648 78.2148 108.234 77.7637 108.234 77.2246C108.234 76.7734 107.918 76.4746 107.273 76.3223L106.184 76.0645C104.994 75.7832 104.426 75.1973 104.426 74.2773C104.426 73.1523 105.457 72.3672 106.852 72.3672C108.199 72.3672 108.908 73.0234 109.207 73.9434L108.252 74.1895C108.07 73.7207 107.701 73.2637 106.857 73.2637C106.078 73.2637 105.492 73.668 105.492 74.2129C105.492 74.6992 105.826 74.9688 106.594 75.1504L107.584 75.3848C108.773 75.666 109.33 76.2578 109.33 77.1543C109.33 78.3027 108.281 79.1406 106.746 79.1406ZM113.08 79.082C111.756 79.082 110.859 78.2676 110.859 76.6094V72.4492H111.914V76.5215C111.914 77.5293 112.482 78.1328 113.396 78.1328C114.334 78.1328 115.043 77.4941 115.043 76.375V72.4492H116.104V79H115.084V77.4121H115.225C114.82 78.6426 114.041 79.082 113.08 79.082ZM120.715 79.1406C118.816 79.1406 117.645 77.793 117.645 75.7773C117.645 73.7676 118.805 72.3672 120.592 72.3672C121.98 72.3672 123.445 73.2227 123.445 75.6426V76.082H118.359V75.1914H122.877L122.385 75.5195C122.385 74.2305 121.775 73.3047 120.592 73.3047C119.408 73.3047 118.711 74.2832 118.711 75.3496V75.9414C118.711 77.4004 119.52 78.2031 120.721 78.2031C121.494 78.2031 122.074 77.8633 122.32 77.1953L123.34 77.4766C123.035 78.4668 122.057 79.1406 120.715 79.1406ZM127.184 79.1406C125.836 79.1406 124.898 78.543 124.664 77.4121L125.666 77.1719C125.854 77.8926 126.387 78.2148 127.172 78.2148C128.086 78.2148 128.672 77.7637 128.672 77.2246C128.672 76.7734 128.355 76.4746 127.711 76.3223L126.621 76.0645C125.432 75.7832 124.863 75.1973 124.863 74.2773C124.863 73.1523 125.895 72.3672 127.289 72.3672C128.637 72.3672 129.346 73.0234 129.645 73.9434L128.689 74.1895C128.508 73.7207 128.139 73.2637 127.295 73.2637C126.516 73.2637 125.93 73.668 125.93 74.2129C125.93 74.6992 126.264 74.9688 127.031 75.1504L128.021 75.3848C129.211 75.666 129.768 76.2578 129.768 77.1543C129.768 78.3027 128.719 79.1406 127.184 79.1406ZM137.338 79.1406C135.557 79.1406 134.355 77.7871 134.355 75.7656C134.355 73.7148 135.557 72.3672 137.338 72.3672C139.125 72.3672 140.332 73.7148 140.332 75.7656C140.332 77.7871 139.125 79.1406 137.338 79.1406ZM137.338 78.1973C138.662 78.1973 139.266 77.0547 139.266 75.7656C139.266 74.4648 138.662 73.3105 137.338 73.3105C136.031 73.3105 135.428 74.459 135.428 75.7656C135.428 77.0547 136.031 78.1973 137.338 78.1973ZM141.867 79V72.4492H142.887V73.457H142.957C143.197 72.7949 143.877 72.3555 144.656 72.3555C144.809 72.3555 145.066 72.3672 145.189 72.373V73.4336C145.125 73.4219 144.838 73.375 144.557 73.375C143.613 73.375 142.922 74.0137 142.922 74.8984V79H141.867ZM152.52 79.1406C150.621 79.1406 149.449 77.793 149.449 75.7773C149.449 73.7676 150.609 72.3672 152.396 72.3672C153.785 72.3672 155.25 73.2227 155.25 75.6426V76.082H150.164V75.1914H154.682L154.189 75.5195C154.189 74.2305 153.58 73.3047 152.396 73.3047C151.213 73.3047 150.516 74.2832 150.516 75.3496V75.9414C150.516 77.4004 151.324 78.2031 152.525 78.2031C153.299 78.2031 153.879 77.8633 154.125 77.1953L155.145 77.4766C154.84 78.4668 153.861 79.1406 152.52 79.1406ZM156.762 81.4492V72.4492H157.781V73.498H157.898C158.115 73.1523 158.52 72.3672 159.797 72.3672C161.432 72.3672 162.574 73.668 162.574 75.7422C162.574 77.8281 161.438 79.1406 159.803 79.1406C158.555 79.1406 158.115 78.3496 157.898 77.9863H157.816V81.4492H156.762ZM159.645 78.1973C160.869 78.1973 161.502 77.1074 161.502 75.7305C161.502 74.3711 160.887 73.3105 159.645 73.3105C158.438 73.3105 157.805 74.2832 157.805 75.7305C157.805 77.1895 158.455 78.1973 159.645 78.1973ZM164.109 79V72.4492H165.164V79H164.109ZM164.643 71.377C164.244 71.377 163.91 71.0664 163.91 70.6797C163.91 70.293 164.244 69.9824 164.643 69.9824C165.047 69.9824 165.381 70.293 165.381 70.6797C165.381 71.0664 165.047 71.377 164.643 71.377ZM169.682 79.1406C167.9 79.1406 166.699 77.7871 166.699 75.7656C166.699 73.7148 167.9 72.3672 169.682 72.3672C170.947 72.3672 171.979 73.0352 172.336 74.1777L171.322 74.4648C171.129 73.791 170.543 73.3105 169.682 73.3105C168.375 73.3105 167.771 74.459 167.771 75.7656C167.771 77.0547 168.375 78.1973 169.682 78.1973C170.561 78.1973 171.158 77.6992 171.352 76.9902L172.359 77.2773C172.008 78.4434 170.965 79.1406 169.682 79.1406ZM176.098 79.1406C174.75 79.1406 173.812 78.543 173.578 77.4121L174.58 77.1719C174.768 77.8926 175.301 78.2148 176.086 78.2148C177 78.2148 177.586 77.7637 177.586 77.2246C177.586 76.7734 177.27 76.4746 176.625 76.3223L175.535 76.0645C174.346 75.7832 173.777 75.1973 173.777 74.2773C173.777 73.1523 174.809 72.3672 176.203 72.3672C177.551 72.3672 178.26 73.0234 178.559 73.9434L177.604 74.1895C177.422 73.7207 177.053 73.2637 176.209 73.2637C175.43 73.2637 174.844 73.668 174.844 74.2129C174.844 74.6992 175.178 74.9688 175.945 75.1504L176.936 75.3848C178.125 75.666 178.682 76.2578 178.682 77.1543C178.682 78.3027 177.633 79.1406 176.098 79.1406Z" fill="#535158"/>
<rect x="9" y="93" width="326" height="48" rx="4" fill="white"/>
<path d="M25.7305 103.336L22.4492 115.531H21.3145L24.5957 103.336H25.7305ZM30.3379 114.164C28.123 114.164 26.7559 112.592 26.7559 110.24C26.7559 107.896 28.1094 106.262 30.1943 106.262C31.8145 106.262 33.5234 107.26 33.5234 110.083V110.596H27.5898V109.557H32.8604L32.2861 109.939C32.2861 108.436 31.5752 107.355 30.1943 107.355C28.8135 107.355 28 108.497 28 109.741V110.432C28 112.134 28.9434 113.07 30.3447 113.07C31.2471 113.07 31.9238 112.674 32.2109 111.895L33.4004 112.223C33.0449 113.378 31.9033 114.164 30.3379 114.164ZM34.3369 114L37.3516 109.604L37.3447 110.548L34.4941 106.357H35.9297L36.8799 107.841C37.3721 108.606 37.6934 109.263 38.0762 109.878H37.4336C37.8232 109.263 38.0898 108.606 38.5889 107.841L39.5596 106.357H40.9678L38.1035 110.603V109.693L41.0908 114H39.6621L38.541 112.284C38.0557 111.539 37.748 110.91 37.3721 110.315H38.0215C37.6455 110.91 37.3857 111.539 36.8936 112.284L35.7588 114H34.3369ZM42.6152 116.857V106.357H43.8047V107.581H43.9414C44.1943 107.178 44.666 106.262 46.1562 106.262C48.0635 106.262 49.3965 107.779 49.3965 110.199C49.3965 112.633 48.0703 114.164 46.1631 114.164C44.707 114.164 44.1943 113.241 43.9414 112.817H43.8457V116.857H42.6152ZM45.9785 113.063C47.4072 113.063 48.1455 111.792 48.1455 110.186C48.1455 108.6 47.4277 107.362 45.9785 107.362C44.5703 107.362 43.832 108.497 43.832 110.186C43.832 111.888 44.5908 113.063 45.9785 113.063ZM52.9033 114.055C51.7549 114.055 51.1875 113.412 51.1875 112.305V103.814H52.418V111.997C52.418 112.701 52.541 112.954 53.0537 112.954C53.3203 112.954 53.4297 112.934 53.5459 112.899L53.792 113.938C53.5732 114 53.2314 114.055 52.9033 114.055ZM57.1826 114.178C55.7334 114.178 54.5781 113.33 54.5781 111.826C54.5781 110.076 56.1367 109.755 57.5518 109.577C58.9121 109.406 59.5137 109.447 59.5137 108.88V108.839C59.5137 107.889 58.9736 107.342 57.9141 107.342C56.8135 107.342 56.2188 107.93 55.9795 108.463L54.7969 108.073C55.3848 106.686 56.6973 106.262 57.8799 106.262C58.9053 106.262 60.7441 106.576 60.7441 108.962V114H59.5342V112.961H59.4521C59.1924 113.501 58.4746 114.178 57.1826 114.178ZM57.3945 113.091C58.7549 113.091 59.5137 112.175 59.5137 111.238V110.179C59.3086 110.418 57.9688 110.555 57.4971 110.616C56.6016 110.732 55.8154 111.02 55.8154 111.888C55.8154 112.681 56.4785 113.091 57.3945 113.091ZM62.9043 114V106.357H64.1348V114H62.9043ZM63.5264 105.106C63.0615 105.106 62.6719 104.744 62.6719 104.293C62.6719 103.842 63.0615 103.479 63.5264 103.479C63.998 103.479 64.3877 103.842 64.3877 104.293C64.3877 104.744 63.998 105.106 63.5264 105.106ZM67.5254 109.42V114H66.2949V106.357H67.4775L67.4844 108.21H67.3135C67.7783 106.802 68.667 106.262 69.8223 106.262C71.3672 106.262 72.4131 107.212 72.4131 109.146V114H71.1758V109.249C71.1758 108.073 70.5195 107.369 69.4531 107.369C68.3525 107.369 67.5254 108.114 67.5254 109.42Z" fill="#333238"/>
<path d="M78.457 109.998V109.26L83.9883 106.471V107.619L79.7812 109.617L79.8164 109.547V109.711L79.7812 109.652L83.9883 111.65V112.787L78.457 109.998ZM89.8535 114.141C87.7852 114.141 86.4375 112.828 86.4375 111.029V105.27H87.5508V110.941C87.5508 112.195 88.4238 113.109 89.8535 113.109C91.2773 113.109 92.1445 112.195 92.1445 110.941V105.27H93.2578V111.029C93.2578 112.828 91.9102 114.141 89.8535 114.141ZM95.3672 114V105.27H98.3555C100.395 105.27 101.332 106.406 101.332 107.965C101.332 109.523 100.395 110.613 98.3613 110.613H95.9883V109.623H98.3086C99.6855 109.623 100.225 108.99 100.225 107.965C100.225 106.928 99.6855 106.248 98.2969 106.248H96.4805V114H95.3672ZM100.383 114L98.2734 110.068H99.5273L101.672 114H100.383ZM103.09 114V105.27H104.203V113.016H108.246V114H103.09ZM115.74 109.998L110.209 112.787V111.65L114.422 109.652L114.381 109.711V109.547L114.422 109.617L110.209 107.619V106.471L115.74 109.26V109.998Z" fill="#737278"/>
<path d="M22.0547 129V120.27H27.375V121.254H23.168V124.102H27.0879V125.086H23.168V128.016H27.4277V129H22.0547ZM28.5996 129L31.1836 125.232L31.1777 126.041L28.7344 122.449H29.9648L30.7793 123.721C31.2012 124.377 31.4766 124.939 31.8047 125.467H31.2539C31.5879 124.939 31.8164 124.377 32.2441 123.721L33.0762 122.449H34.2832L31.8281 126.088V125.309L34.3887 129H33.1641L32.2031 127.529C31.7871 126.891 31.5234 126.352 31.2012 125.842H31.7578C31.4355 126.352 31.2129 126.891 30.791 127.529L29.8184 129H28.5996ZM35.6953 131.449V122.449H36.7148V123.498H36.832C37.0488 123.152 37.4531 122.367 38.7305 122.367C40.3652 122.367 41.5078 123.668 41.5078 125.742C41.5078 127.828 40.3711 129.141 38.7363 129.141C37.4883 129.141 37.0488 128.35 36.832 127.986H36.75V131.449H35.6953ZM38.5781 128.197C39.8027 128.197 40.4355 127.107 40.4355 125.73C40.4355 124.371 39.8203 123.311 38.5781 123.311C37.3711 123.311 36.7383 124.283 36.7383 125.73C36.7383 127.189 37.3887 128.197 38.5781 128.197ZM44.5137 129.047C43.5293 129.047 43.043 128.496 43.043 127.547V120.27H44.0977V127.283C44.0977 127.887 44.2031 128.104 44.6426 128.104C44.8711 128.104 44.9648 128.086 45.0645 128.057L45.2754 128.947C45.0879 129 44.7949 129.047 44.5137 129.047ZM48.1816 129.152C46.9395 129.152 45.9492 128.426 45.9492 127.137C45.9492 125.637 47.2852 125.361 48.498 125.209C49.6641 125.062 50.1797 125.098 50.1797 124.611V124.576C50.1797 123.762 49.7168 123.293 48.8086 123.293C47.8652 123.293 47.3555 123.797 47.1504 124.254L46.1367 123.92C46.6406 122.73 47.7656 122.367 48.7793 122.367C49.6582 122.367 51.2344 122.637 51.2344 124.682V129H50.1973V128.109H50.127C49.9043 128.572 49.2891 129.152 48.1816 129.152ZM48.3633 128.221C49.5293 128.221 50.1797 127.436 50.1797 126.633V125.725C50.0039 125.93 48.8555 126.047 48.4512 126.1C47.6836 126.199 47.0098 126.445 47.0098 127.189C47.0098 127.869 47.5781 128.221 48.3633 128.221ZM53.0859 129V122.449H54.1406V129H53.0859ZM53.6191 121.377C53.2207 121.377 52.8867 121.066 52.8867 120.68C52.8867 120.293 53.2207 119.982 53.6191 119.982C54.0234 119.982 54.3574 120.293 54.3574 120.68C54.3574 121.066 54.0234 121.377 53.6191 121.377ZM57.0469 125.074V129H55.9922V122.449H57.0059L57.0117 124.037H56.8652C57.2637 122.83 58.0254 122.367 59.0156 122.367C60.3398 122.367 61.2363 123.182 61.2363 124.84V129H60.1758V124.928C60.1758 123.92 59.6133 123.316 58.6992 123.316C57.7559 123.316 57.0469 123.955 57.0469 125.074ZM69.1348 129.141C67.3535 129.141 66.1523 127.787 66.1523 125.766C66.1523 123.715 67.3535 122.367 69.1348 122.367C70.4004 122.367 71.4316 123.035 71.7891 124.178L70.7754 124.465C70.582 123.791 69.9961 123.311 69.1348 123.311C67.8281 123.311 67.2246 124.459 67.2246 125.766C67.2246 127.055 67.8281 128.197 69.1348 128.197C70.0137 128.197 70.6113 127.699 70.8047 126.99L71.8125 127.277C71.4609 128.443 70.418 129.141 69.1348 129.141ZM75.9902 129.141C74.209 129.141 73.0078 127.787 73.0078 125.766C73.0078 123.715 74.209 122.367 75.9902 122.367C77.7773 122.367 78.9844 123.715 78.9844 125.766C78.9844 127.787 77.7773 129.141 75.9902 129.141ZM75.9902 128.197C77.3145 128.197 77.918 127.055 77.918 125.766C77.918 124.465 77.3145 123.311 75.9902 123.311C74.6836 123.311 74.0801 124.459 74.0801 125.766C74.0801 127.055 74.6836 128.197 75.9902 128.197ZM82.9746 129.141C81.3398 129.141 80.2031 127.828 80.2031 125.742C80.2031 123.668 81.3457 122.367 82.9805 122.367C84.2578 122.367 84.6621 123.152 84.8789 123.498H84.9609V120.27H86.0156V129H84.9961V127.986H84.8789C84.6621 128.35 84.2227 129.141 82.9746 129.141ZM83.1328 128.197C84.3223 128.197 84.9727 127.189 84.9727 125.73C84.9727 124.283 84.3398 123.311 83.1328 123.311C81.8906 123.311 81.2754 124.371 81.2754 125.73C81.2754 127.107 81.9082 128.197 83.1328 128.197ZM90.6211 129.141C88.7227 129.141 87.5508 127.793 87.5508 125.777C87.5508 123.768 88.7109 122.367 90.498 122.367C91.8867 122.367 93.3516 123.223 93.3516 125.643V126.082H88.2656V125.191H92.7832L92.291 125.52C92.291 124.23 91.6816 123.305 90.498 123.305C89.3145 123.305 88.6172 124.283 88.6172 125.35V125.941C88.6172 127.4 89.4258 128.203 90.627 128.203C91.4004 128.203 91.9805 127.863 92.2266 127.195L93.2461 127.477C92.9414 128.467 91.9629 129.141 90.6211 129.141ZM100.904 129.141C99.123 129.141 97.9219 127.787 97.9219 125.766C97.9219 123.715 99.123 122.367 100.904 122.367C102.691 122.367 103.898 123.715 103.898 125.766C103.898 127.787 102.691 129.141 100.904 129.141ZM100.904 128.197C102.229 128.197 102.832 127.055 102.832 125.766C102.832 124.465 102.229 123.311 100.904 123.311C99.5977 123.311 98.9941 124.459 98.9941 125.766C98.9941 127.055 99.5977 128.197 100.904 128.197ZM105.434 129V122.449H106.453V123.457H106.523C106.764 122.795 107.443 122.355 108.223 122.355C108.375 122.355 108.633 122.367 108.756 122.373V123.434C108.691 123.422 108.404 123.375 108.123 123.375C107.18 123.375 106.488 124.014 106.488 124.898V129H105.434ZM115.225 129L112.723 122.449H113.877L115.271 126.334C115.564 127.143 115.746 127.951 115.975 128.701H115.588C115.816 127.951 115.992 127.143 116.285 126.334L117.68 122.449H118.834L116.332 129H115.225ZM122.303 129.082C120.979 129.082 120.082 128.268 120.082 126.609V122.449H121.137V126.521C121.137 127.529 121.705 128.133 122.619 128.133C123.557 128.133 124.266 127.494 124.266 126.375V122.449H125.326V129H124.307V127.412H124.447C124.043 128.643 123.264 129.082 122.303 129.082ZM128.654 129.047C127.67 129.047 127.184 128.496 127.184 127.547V120.27H128.238V127.283C128.238 127.887 128.344 128.104 128.783 128.104C129.012 128.104 129.105 128.086 129.205 128.057L129.416 128.947C129.229 129 128.936 129.047 128.654 129.047ZM131.543 125.074V129H130.488V122.449H131.502L131.508 124.037H131.361C131.76 122.83 132.521 122.367 133.512 122.367C134.836 122.367 135.732 123.182 135.732 124.84V129H134.672V124.928C134.672 123.92 134.109 123.316 133.195 123.316C132.252 123.316 131.543 123.955 131.543 125.074ZM140.344 129.141C138.445 129.141 137.273 127.793 137.273 125.777C137.273 123.768 138.434 122.367 140.221 122.367C141.609 122.367 143.074 123.223 143.074 125.643V126.082H137.988V125.191H142.506L142.014 125.52C142.014 124.23 141.404 123.305 140.221 123.305C139.037 123.305 138.34 124.283 138.34 125.35V125.941C138.34 127.4 139.148 128.203 140.35 128.203C141.123 128.203 141.703 127.863 141.949 127.195L142.969 127.477C142.664 128.467 141.686 129.141 140.344 129.141ZM144.586 129V122.449H145.605V123.457H145.676C145.916 122.795 146.596 122.355 147.375 122.355C147.527 122.355 147.785 122.367 147.908 122.373V123.434C147.844 123.422 147.557 123.375 147.275 123.375C146.332 123.375 145.641 124.014 145.641 124.898V129H144.586ZM150.943 129.152C149.701 129.152 148.711 128.426 148.711 127.137C148.711 125.637 150.047 125.361 151.26 125.209C152.426 125.062 152.941 125.098 152.941 124.611V124.576C152.941 123.762 152.479 123.293 151.57 123.293C150.627 123.293 150.117 123.797 149.912 124.254L148.898 123.92C149.402 122.73 150.527 122.367 151.541 122.367C152.42 122.367 153.996 122.637 153.996 124.682V129H152.959V128.109H152.889C152.666 128.572 152.051 129.152 150.943 129.152ZM151.125 128.221C152.291 128.221 152.941 127.436 152.941 126.633V125.725C152.766 125.93 151.617 126.047 151.213 126.1C150.445 126.199 149.771 126.445 149.771 127.189C149.771 127.869 150.34 128.221 151.125 128.221ZM158.889 129.141C157.641 129.141 157.201 128.35 156.984 127.986H156.867V129H155.848V120.27H156.902V123.498H156.984C157.201 123.152 157.605 122.367 158.883 122.367C160.518 122.367 161.66 123.668 161.66 125.742C161.66 127.828 160.523 129.141 158.889 129.141ZM158.73 128.197C159.955 128.197 160.588 127.107 160.588 125.73C160.588 124.371 159.973 123.311 158.73 123.311C157.523 123.311 156.891 124.283 156.891 125.73C156.891 127.189 157.541 128.197 158.73 128.197ZM163.195 129V122.449H164.25V129H163.195ZM163.729 121.377C163.33 121.377 162.996 121.066 162.996 120.68C162.996 120.293 163.33 119.982 163.729 119.982C164.133 119.982 164.467 120.293 164.467 120.68C164.467 121.066 164.133 121.377 163.729 121.377ZM167.572 129.047C166.588 129.047 166.102 128.496 166.102 127.547V120.27H167.156V127.283C167.156 127.887 167.262 128.104 167.701 128.104C167.93 128.104 168.023 128.086 168.123 128.057L168.334 128.947C168.146 129 167.854 129.047 167.572 129.047ZM169.406 129V122.449H170.461V129H169.406ZM169.939 121.377C169.541 121.377 169.207 121.066 169.207 120.68C169.207 120.293 169.541 119.982 169.939 119.982C170.344 119.982 170.678 120.293 170.678 120.68C170.678 121.066 170.344 121.377 169.939 121.377ZM174.891 122.449V123.352H171.504V122.449H174.891ZM172.488 120.891H173.543V127.301C173.543 127.887 173.76 128.145 174.316 128.145C174.451 128.145 174.68 128.109 174.855 128.074L175.072 128.965C174.855 129.041 174.557 129.082 174.287 129.082C173.156 129.082 172.488 128.455 172.488 127.383V120.891ZM176.238 129V122.449H177.293V129H176.238ZM176.771 121.377C176.373 121.377 176.039 121.066 176.039 120.68C176.039 120.293 176.373 119.982 176.771 119.982C177.176 119.982 177.51 120.293 177.51 120.68C177.51 121.066 177.176 121.377 176.771 121.377ZM181.898 129.141C180 129.141 178.828 127.793 178.828 125.777C178.828 123.768 179.988 122.367 181.775 122.367C183.164 122.367 184.629 123.223 184.629 125.643V126.082H179.543V125.191H184.061L183.568 125.52C183.568 124.23 182.959 123.305 181.775 123.305C180.592 123.305 179.895 124.283 179.895 125.35V125.941C179.895 127.4 180.703 128.203 181.904 128.203C182.678 128.203 183.258 127.863 183.504 127.195L184.523 127.477C184.219 128.467 183.24 129.141 181.898 129.141ZM188.367 129.141C187.02 129.141 186.082 128.543 185.848 127.412L186.85 127.172C187.037 127.893 187.57 128.215 188.355 128.215C189.27 128.215 189.855 127.764 189.855 127.225C189.855 126.773 189.539 126.475 188.895 126.322L187.805 126.064C186.615 125.783 186.047 125.197 186.047 124.277C186.047 123.152 187.078 122.367 188.473 122.367C189.82 122.367 190.529 123.023 190.828 123.943L189.873 124.189C189.691 123.721 189.322 123.264 188.479 123.264C187.699 123.264 187.113 123.668 187.113 124.213C187.113 124.699 187.447 124.969 188.215 125.15L189.205 125.385C190.395 125.666 190.951 126.258 190.951 127.154C190.951 128.303 189.902 129.141 188.367 129.141Z" fill="#737278"/>
</g>
<defs>
<filter id="filter0_dd_37095_22366" x="0" y="0" width="344" height="156" filterUnits="userSpaceOnUse" color-interpolation-filters="sRGB">
<feFlood flood-opacity="0" result="BackgroundImageFix"/>
<feColorMatrix in="SourceAlpha" type="matrix" values="0 0 0 0 0 0 0 0 0 0 0 0 0 0 0 0 0 0 127 0" result="hardAlpha"/>
<feOffset/>
<feGaussianBlur stdDeviation="1"/>
<feComposite in2="hardAlpha" operator="out"/>
<feColorMatrix type="matrix" values="0 0 0 0 0.121569 0 0 0 0 0.117647 0 0 0 0 0.141176 0 0 0 0.16 0"/>
<feBlend mode="normal" in2="BackgroundImageFix" result="effect1_dropShadow_37095_22366"/>
<feColorMatrix in="SourceAlpha" type="matrix" values="0 0 0 0 0 0 0 0 0 0 0 0 0 0 0 0 0 0 127 0" result="hardAlpha"/>
<feOffset dy="2"/>
<feGaussianBlur stdDeviation="4"/>
<feComposite in2="hardAlpha" operator="out"/>
<feColorMatrix type="matrix" values="0 0 0 0 0.121569 0 0 0 0 0.117647 0 0 0 0 0.141176 0 0 0 0.16 0"/>
<feBlend mode="normal" in2="effect1_dropShadow_37095_22366" result="effect2_dropShadow_37095_22366"/>
<feBlend mode="normal" in="SourceGraphic" in2="effect2_dropShadow_37095_22366" result="shape"/>
</filter>
</defs>
</svg>
