<svg width="344" height="388" viewBox="0 0 344 388" fill="none" xmlns="http://www.w3.org/2000/svg">
<g filter="url(#filter0_dd_37136_1545)">
<rect x="8" y="6" width="328" height="372" rx="8" fill="white" shape-rendering="crispEdges"/>
<rect x="8.5" y="6.5" width="327" height="371" rx="7.5" stroke="#BFBFBF" shape-rendering="crispEdges"/>
<rect width="326" height="30" transform="translate(9 11)" fill="white"/>
<path d="M25.0078 31.1289C22.8809 31.1289 21.5215 30.1445 21.4746 28.2461H23.2793C23.3379 29.125 24.0234 29.5586 24.9844 29.5586C25.9102 29.5586 26.5137 29.1309 26.5137 28.498C26.5137 27.9238 25.9863 27.6543 25.0371 27.4258L24.0879 27.1914C22.5996 26.834 21.7031 26.0898 21.7031 24.8008C21.7031 23.2188 23.1035 22.1523 25.0195 22.1523C26.9824 22.1523 28.2539 23.2363 28.2773 24.7949H26.4785C26.4141 24.1094 25.8809 23.7168 25.0078 23.7168C24.1172 23.7168 23.625 24.127 23.625 24.6836C23.625 25.2988 24.2402 25.5742 24.9902 25.75L25.7695 25.9375C27.2988 26.2832 28.3945 27.0566 28.3945 28.5039C28.3945 30.1152 27.1348 31.1289 25.0078 31.1289ZM31.6055 31.041C30.2227 31.041 29.6016 30.4668 29.6016 29.2773V22.2695H31.4355V29.0371C31.4355 29.4414 31.5703 29.6113 31.916 29.6113C32.0977 29.6113 32.1855 29.5938 32.2617 29.5703L32.5488 30.8945C32.3613 30.959 32.0215 31.041 31.6055 31.041ZM35.1797 31.1289C33.9316 31.1289 33.0117 30.4727 33.0117 29.1719C33.0117 27.7129 34.1719 27.2734 35.4727 27.1504C36.5918 27.0449 37.0488 26.9922 37.0488 26.5703V26.541C37.0488 26.0137 36.6914 25.709 36.0586 25.709C35.4141 25.709 35.0039 26.0254 34.875 26.4473L33.1992 26.1836C33.5039 25.0527 34.5586 24.3672 36.0703 24.3672C37.5352 24.3672 38.8828 25.041 38.8828 26.582V31H37.1484V30.0918H37.0898C36.7617 30.7188 36.1348 31.1289 35.1797 31.1289ZM35.7129 29.8633C36.498 29.8633 37.0605 29.3418 37.0605 28.6621V27.9766C36.8438 28.1172 36.1934 28.2109 35.8125 28.2695C35.1738 28.3574 34.7637 28.6152 34.7637 29.1133C34.7637 29.6055 35.1562 29.8633 35.7129 29.8633ZM42.9902 31.1289C41.3848 31.1289 40.2832 30.4141 40.0547 29.1895L41.7656 28.9023C41.9297 29.5 42.334 29.8047 43.0488 29.8047C43.6934 29.8047 44.0918 29.5352 44.0918 29.1602C44.0918 28.8262 43.8223 28.627 43.2539 28.5098L42.123 28.2812C40.8516 28.0234 40.2246 27.4023 40.2246 26.4121C40.2246 25.1465 41.3262 24.3672 43.0078 24.3672C44.5898 24.3672 45.5449 25.0527 45.7852 26.1367L44.1621 26.4121C44.0273 25.9668 43.6523 25.6738 43.043 25.6738C42.4863 25.6738 42.0586 25.9258 42.0586 26.3008C42.0586 26.6113 42.2695 26.834 42.873 26.957L44.0684 27.1914C45.3457 27.4492 45.9609 28.0234 45.9609 28.9609C45.9609 30.2676 44.7305 31.1289 42.9902 31.1289ZM48.9551 27.2266V31H47.1211V22.2695H48.9199V26.0898H48.7793C49.1191 25.0176 49.7988 24.3672 50.918 24.3672C52.2832 24.3672 53.1797 25.3164 53.1797 26.834V31H51.3398V27.168C51.3398 26.3711 50.9062 25.8965 50.1855 25.8965C49.459 25.8965 48.9551 26.3887 48.9551 27.2266ZM60.3809 31.1289C58.3887 31.1289 57.1523 29.7695 57.1523 27.7539C57.1523 25.7266 58.3887 24.3672 60.3809 24.3672C61.9688 24.3672 63.0879 25.2227 63.3223 26.5879L61.6172 26.8984C61.4766 26.2188 61.0605 25.8027 60.3984 25.8027C59.5078 25.8027 59.0273 26.5762 59.0273 27.748C59.0273 28.9082 59.5078 29.6992 60.3984 29.6992C61.0605 29.6992 61.4941 29.2715 61.6289 28.5625L63.334 28.8672C63.0938 30.2676 61.9805 31.1289 60.3809 31.1289ZM67.4707 31.1289C65.4785 31.1289 64.2422 29.7695 64.2422 27.7539C64.2422 25.7266 65.4785 24.3672 67.4707 24.3672C69.4629 24.3672 70.6992 25.7266 70.6992 27.7539C70.6992 29.7695 69.4629 31.1289 67.4707 31.1289ZM67.4707 29.6992C68.3672 29.6992 68.8301 28.8789 68.8301 27.748C68.8301 26.6055 68.3672 25.8027 67.4707 25.8027C66.5801 25.8027 66.1172 26.6055 66.1172 27.748C66.1172 28.8789 66.5801 29.6992 67.4707 29.6992ZM71.8945 31V24.4492H73.5938L73.6875 26.1016H73.5586C73.8516 24.8711 74.6602 24.3555 75.5449 24.3555C76.4766 24.3555 77.0449 24.9355 77.3262 26.2188H77.1152C77.4141 24.9238 78.3398 24.3555 79.3418 24.3555C80.5488 24.3555 81.4336 25.1699 81.4336 26.582V31H79.5938V26.957C79.5938 26.2363 79.166 25.8789 78.5918 25.8789C77.9473 25.8789 77.5488 26.3301 77.5488 26.998V31H75.7793V26.916C75.7793 26.2832 75.3691 25.8789 74.7891 25.8789C74.1855 25.8789 73.7285 26.3008 73.7285 27.0625V31H71.8945ZM82.8984 31V24.4492H84.5977L84.6914 26.1016H84.5625C84.8555 24.8711 85.6641 24.3555 86.5488 24.3555C87.4805 24.3555 88.0488 24.9355 88.3301 26.2188H88.1191C88.418 24.9238 89.3438 24.3555 90.3457 24.3555C91.5527 24.3555 92.4375 25.1699 92.4375 26.582V31H90.5977V26.957C90.5977 26.2363 90.1699 25.8789 89.5957 25.8789C88.9512 25.8789 88.5527 26.3301 88.5527 26.998V31H86.7832V26.916C86.7832 26.2832 86.373 25.8789 85.793 25.8789C85.1895 25.8789 84.7324 26.3008 84.7324 27.0625V31H82.8984ZM95.7305 31.1289C94.4824 31.1289 93.5625 30.4727 93.5625 29.1719C93.5625 27.7129 94.7227 27.2734 96.0234 27.1504C97.1426 27.0449 97.5996 26.9922 97.5996 26.5703V26.541C97.5996 26.0137 97.2422 25.709 96.6094 25.709C95.9648 25.709 95.5547 26.0254 95.4258 26.4473L93.75 26.1836C94.0547 25.0527 95.1094 24.3672 96.6211 24.3672C98.0859 24.3672 99.4336 25.041 99.4336 26.582V31H97.6992V30.0918H97.6406C97.3125 30.7188 96.6855 31.1289 95.7305 31.1289ZM96.2637 29.8633C97.0488 29.8633 97.6113 29.3418 97.6113 28.6621V27.9766C97.3945 28.1172 96.7441 28.2109 96.3633 28.2695C95.7246 28.3574 95.3145 28.6152 95.3145 29.1133C95.3145 29.6055 95.707 29.8633 96.2637 29.8633ZM102.732 27.2266V31H100.898V24.4492H102.627L102.662 26.0898H102.557C102.896 25.0176 103.576 24.3672 104.695 24.3672C106.061 24.3672 106.957 25.3164 106.957 26.834V31H105.117V27.168C105.117 26.3711 104.684 25.8965 103.963 25.8965C103.236 25.8965 102.732 26.3887 102.732 27.2266ZM110.801 31.1055C109.307 31.1055 108.141 29.9277 108.141 27.7363C108.141 25.4863 109.354 24.3672 110.789 24.3672C111.879 24.3672 112.412 25.0234 112.646 25.5625H112.705V22.2695H114.539V31H112.729V29.9512H112.646C112.4 30.4961 111.85 31.1055 110.801 31.1055ZM111.381 29.6465C112.242 29.6465 112.74 28.8848 112.74 27.7305C112.74 26.5703 112.254 25.832 111.381 25.832C110.496 25.832 110.027 26.6055 110.027 27.7305C110.027 28.8613 110.502 29.6465 111.381 29.6465ZM118.646 31.1289C117.041 31.1289 115.939 30.4141 115.711 29.1895L117.422 28.9023C117.586 29.5 117.99 29.8047 118.705 29.8047C119.35 29.8047 119.748 29.5352 119.748 29.1602C119.748 28.8262 119.479 28.627 118.91 28.5098L117.779 28.2812C116.508 28.0234 115.881 27.4023 115.881 26.4121C115.881 25.1465 116.982 24.3672 118.664 24.3672C120.246 24.3672 121.201 25.0527 121.441 26.1367L119.818 26.4121C119.684 25.9668 119.309 25.6738 118.699 25.6738C118.143 25.6738 117.715 25.9258 117.715 26.3008C117.715 26.6113 117.926 26.834 118.529 26.957L119.725 27.1914C121.002 27.4492 121.617 28.0234 121.617 28.9609C121.617 30.2676 120.387 31.1289 118.646 31.1289Z" fill="#333238"/>
<rect x="9" y="43" width="326" height="48" rx="4" fill="white"/>
<path d="M25.7305 53.3359L22.4492 65.5312H21.3145L24.5957 53.3359H25.7305ZM29.7227 64.1641C28.1504 64.1641 27.0566 63.4668 26.7832 62.1475L27.9521 61.8672C28.1709 62.708 28.793 63.084 29.709 63.084C30.7754 63.084 31.459 62.5576 31.459 61.9287C31.459 61.4023 31.0898 61.0537 30.3379 60.876L29.0664 60.5752C27.6787 60.2471 27.0156 59.5635 27.0156 58.4902C27.0156 57.1777 28.2188 56.2617 29.8457 56.2617C31.418 56.2617 32.2451 57.0273 32.5938 58.1006L31.4795 58.3877C31.2676 57.8408 30.8369 57.3076 29.8525 57.3076C28.9434 57.3076 28.2598 57.7793 28.2598 58.415C28.2598 58.9824 28.6494 59.2969 29.5449 59.5088L30.7002 59.7822C32.0879 60.1104 32.7373 60.8008 32.7373 61.8467C32.7373 63.1865 31.5137 64.1641 29.7227 64.1641ZM37.1123 64.0957C35.5674 64.0957 34.5215 63.1455 34.5215 61.2109V56.3574H35.752V61.1084C35.752 62.2842 36.415 62.9883 37.4814 62.9883C38.5752 62.9883 39.4023 62.2432 39.4023 60.9375V56.3574H40.6396V64H39.4502V62.1475H39.6143C39.1426 63.583 38.2334 64.0957 37.1123 64.0957ZM42.8066 64V56.3574H44.0029L44.0098 58.0664H43.9141C44.2217 56.8291 45.1582 56.2207 46.1494 56.2207C47.2568 56.2207 47.9609 56.9727 48.166 58.0801H48.002C48.2754 56.9385 49.2871 56.2207 50.5039 56.2207C51.8301 56.2207 52.9102 57.0752 52.9102 58.8457V64H51.6729V58.8799C51.6729 57.7793 50.9551 57.3418 50.1348 57.3418C49.1025 57.3418 48.4736 58.0459 48.4736 59.0098V64H47.2432V58.7568C47.2432 57.9092 46.6074 57.3418 45.7461 57.3418C44.8506 57.3418 44.0371 57.9707 44.0371 59.1875V64H42.8066ZM55.0703 64V56.3574H56.2666L56.2734 58.0664H56.1777C56.4854 56.8291 57.4219 56.2207 58.4131 56.2207C59.5205 56.2207 60.2246 56.9727 60.4297 58.0801H60.2656C60.5391 56.9385 61.5508 56.2207 62.7676 56.2207C64.0938 56.2207 65.1738 57.0752 65.1738 58.8457V64H63.9365V58.8799C63.9365 57.7793 63.2188 57.3418 62.3984 57.3418C61.3662 57.3418 60.7373 58.0459 60.7373 59.0098V64H59.5068V58.7568C59.5068 57.9092 58.8711 57.3418 58.0098 57.3418C57.1143 57.3418 56.3008 57.9707 56.3008 59.1875V64H55.0703ZM69.4736 64.1777C68.0244 64.1777 66.8691 63.3301 66.8691 61.8262C66.8691 60.0762 68.4277 59.7549 69.8428 59.5771C71.2031 59.4062 71.8047 59.4473 71.8047 58.8799V58.8389C71.8047 57.8887 71.2646 57.3418 70.2051 57.3418C69.1045 57.3418 68.5098 57.9297 68.2705 58.4629L67.0879 58.0732C67.6758 56.6855 68.9883 56.2617 70.1709 56.2617C71.1963 56.2617 73.0352 56.5762 73.0352 58.9619V64H71.8252V62.9609H71.7432C71.4834 63.501 70.7656 64.1777 69.4736 64.1777ZM69.6855 63.0908C71.0459 63.0908 71.8047 62.1748 71.8047 61.2383V60.1787C71.5996 60.418 70.2598 60.5547 69.7881 60.6162C68.8926 60.7324 68.1064 61.0195 68.1064 61.8877C68.1064 62.6807 68.7695 63.0908 69.6855 63.0908ZM75.1953 64V56.3574H76.3848V57.5332H76.4668C76.7471 56.7607 77.54 56.248 78.4492 56.248C78.627 56.248 78.9277 56.2617 79.0713 56.2686V57.5059C78.9961 57.4922 78.6611 57.4375 78.333 57.4375C77.2324 57.4375 76.4258 58.1826 76.4258 59.2148V64H75.1953ZM80.6914 64V56.3574H81.9219V64H80.6914ZM81.3135 55.1064C80.8486 55.1064 80.459 54.7441 80.459 54.293C80.459 53.8418 80.8486 53.4795 81.3135 53.4795C81.7852 53.4795 82.1748 53.8418 82.1748 54.293C82.1748 54.7441 81.7852 55.1064 81.3135 55.1064ZM83.8633 64V63.084L88.1494 57.5742V57.499H84V56.3574H89.7354V57.335L85.5723 62.7832V62.8584H89.8721V64H83.8633ZM94.8281 64.1641C92.6133 64.1641 91.2461 62.5918 91.2461 60.2402C91.2461 57.8955 92.5996 56.2617 94.6846 56.2617C96.3047 56.2617 98.0137 57.2598 98.0137 60.083V60.5957H92.0801V59.5566H97.3506L96.7764 59.9395C96.7764 58.4355 96.0654 57.3555 94.6846 57.3555C93.3037 57.3555 92.4902 58.4971 92.4902 59.7412V60.4316C92.4902 62.1338 93.4336 63.0703 94.835 63.0703C95.7373 63.0703 96.4141 62.6738 96.7012 61.8945L97.8906 62.2227C97.5352 63.3779 96.3936 64.1641 94.8281 64.1641Z" fill="#333238"/>
<path d="M106.801 64L108.242 55.2695H109.127L107.697 64H106.801ZM102.834 61.5918L102.98 60.7129H109.52L109.373 61.5918H102.834ZM103.742 64L105.172 55.2695H106.057L104.627 64H103.742ZM103.35 58.5684L103.496 57.6777H110.023L109.889 58.5684H103.35ZM111.166 64V57.4492H112.221V64H111.166ZM111.699 56.377C111.301 56.377 110.967 56.0664 110.967 55.6797C110.967 55.293 111.301 54.9824 111.699 54.9824C112.104 54.9824 112.438 55.293 112.438 55.6797C112.438 56.0664 112.104 56.377 111.699 56.377ZM116.299 64.1406C114.951 64.1406 114.014 63.543 113.779 62.4121L114.781 62.1719C114.969 62.8926 115.502 63.2148 116.287 63.2148C117.201 63.2148 117.787 62.7637 117.787 62.2246C117.787 61.7734 117.471 61.4746 116.826 61.3223L115.736 61.0645C114.547 60.7832 113.979 60.1973 113.979 59.2773C113.979 58.1523 115.01 57.3672 116.404 57.3672C117.752 57.3672 118.461 58.0234 118.76 58.9434L117.805 59.1895C117.623 58.7207 117.254 58.2637 116.41 58.2637C115.631 58.2637 115.045 58.668 115.045 59.2129C115.045 59.6992 115.379 59.9688 116.146 60.1504L117.137 60.3848C118.326 60.666 118.883 61.2578 118.883 62.1543C118.883 63.3027 117.834 64.1406 116.299 64.1406ZM122.639 64.1406C121.291 64.1406 120.354 63.543 120.119 62.4121L121.121 62.1719C121.309 62.8926 121.842 63.2148 122.627 63.2148C123.541 63.2148 124.127 62.7637 124.127 62.2246C124.127 61.7734 123.811 61.4746 123.166 61.3223L122.076 61.0645C120.887 60.7832 120.318 60.1973 120.318 59.2773C120.318 58.1523 121.35 57.3672 122.744 57.3672C124.092 57.3672 124.801 58.0234 125.1 58.9434L124.145 59.1895C123.963 58.7207 123.594 58.2637 122.75 58.2637C121.971 58.2637 121.385 58.668 121.385 59.2129C121.385 59.6992 121.719 59.9688 122.486 60.1504L123.477 60.3848C124.666 60.666 125.223 61.2578 125.223 62.1543C125.223 63.3027 124.174 64.1406 122.639 64.1406ZM128.973 64.082C127.648 64.082 126.752 63.2676 126.752 61.6094V57.4492H127.807V61.5215C127.807 62.5293 128.375 63.1328 129.289 63.1328C130.227 63.1328 130.936 62.4941 130.936 61.375V57.4492H131.996V64H130.977V62.4121H131.117C130.713 63.6426 129.934 64.082 128.973 64.082ZM136.607 64.1406C134.709 64.1406 133.537 62.793 133.537 60.7773C133.537 58.7676 134.697 57.3672 136.484 57.3672C137.873 57.3672 139.338 58.2227 139.338 60.6426V61.082H134.252V60.1914H138.77L138.277 60.5195C138.277 59.2305 137.668 58.3047 136.484 58.3047C135.301 58.3047 134.604 59.2832 134.604 60.3496V60.9414C134.604 62.4004 135.412 63.2031 136.613 63.2031C137.387 63.2031 137.967 62.8633 138.213 62.1953L139.232 62.4766C138.928 63.4668 137.949 64.1406 136.607 64.1406ZM140.674 66.1035L141.189 62.7812H142.396L141.482 66.1035H140.674ZM150.154 64.1172C148.426 64.1172 147.365 63.0918 147.365 61.6797C147.365 60.6016 148.133 59.9863 149.182 59.2129L150.477 58.2578C150.945 57.9121 151.273 57.6133 151.273 57.0391C151.273 56.5996 150.857 56.0957 150.236 56.0957C149.586 56.0957 149.135 56.6641 149.135 57.1973C149.135 57.8125 149.703 58.4277 150.277 59.125L154.297 64H153.025L149.715 60.0273C148.807 58.9375 148.074 58.2109 148.074 57.1855C148.074 56.002 148.924 55.1875 150.201 55.1875C151.525 55.1875 152.334 56.043 152.334 57.0332C152.334 57.8711 151.877 58.4512 151.174 58.9727L149.428 60.2676C148.678 60.8242 148.449 61.4219 148.449 61.6738C148.449 62.4766 149.117 63.1973 150.137 63.1973C151.438 63.1973 152.768 62.0137 152.768 60.1445H153.781C153.781 61.8789 153.043 62.6113 152.703 62.9336C152.627 63.0215 152.562 63.1152 152.492 63.1973C151.918 63.8184 150.986 64.1172 150.154 64.1172ZM158.17 64.1406C156.271 64.1406 155.1 62.793 155.1 60.7773C155.1 58.7676 156.26 57.3672 158.047 57.3672C159.436 57.3672 160.9 58.2227 160.9 60.6426V61.082H155.814V60.1914H160.332L159.84 60.5195C159.84 59.2305 159.23 58.3047 158.047 58.3047C156.863 58.3047 156.166 59.2832 156.166 60.3496V60.9414C156.166 62.4004 156.975 63.2031 158.176 63.2031C158.949 63.2031 159.529 62.8633 159.775 62.1953L160.795 62.4766C160.49 63.4668 159.512 64.1406 158.17 64.1406ZM162.412 66.4492V57.4492H163.432V58.498H163.549C163.766 58.1523 164.17 57.3672 165.447 57.3672C167.082 57.3672 168.225 58.668 168.225 60.7422C168.225 62.8281 167.088 64.1406 165.453 64.1406C164.205 64.1406 163.766 63.3496 163.549 62.9863H163.467V66.4492H162.412ZM165.295 63.1973C166.52 63.1973 167.152 62.1074 167.152 60.7305C167.152 59.3711 166.537 58.3105 165.295 58.3105C164.088 58.3105 163.455 59.2832 163.455 60.7305C163.455 62.1895 164.105 63.1973 165.295 63.1973ZM169.76 64V57.4492H170.814V64H169.76ZM170.293 56.377C169.895 56.377 169.561 56.0664 169.561 55.6797C169.561 55.293 169.895 54.9824 170.293 54.9824C170.697 54.9824 171.031 55.293 171.031 55.6797C171.031 56.0664 170.697 56.377 170.293 56.377ZM175.332 64.1406C173.551 64.1406 172.35 62.7871 172.35 60.7656C172.35 58.7148 173.551 57.3672 175.332 57.3672C176.598 57.3672 177.629 58.0352 177.986 59.1777L176.973 59.4648C176.779 58.791 176.193 58.3105 175.332 58.3105C174.025 58.3105 173.422 59.459 173.422 60.7656C173.422 62.0547 174.025 63.1973 175.332 63.1973C176.211 63.1973 176.809 62.6992 177.002 61.9902L178.01 62.2773C177.658 63.4434 176.615 64.1406 175.332 64.1406ZM179.346 66.1035L179.861 62.7812H181.068L180.154 66.1035H179.346ZM186.447 59.998V59.2598L191.979 56.4707V57.6191L187.771 59.6172L187.807 59.5469V59.7109L187.771 59.6523L191.979 61.6504V62.7871L186.447 59.998ZM197.844 64.1406C195.775 64.1406 194.428 62.8281 194.428 61.0293V55.2695H195.541V60.9414C195.541 62.1953 196.414 63.1094 197.844 63.1094C199.268 63.1094 200.135 62.1953 200.135 60.9414V55.2695H201.248V61.0293C201.248 62.8281 199.9 64.1406 197.844 64.1406ZM203.357 64V55.2695H206.346C208.385 55.2695 209.322 56.4062 209.322 57.9648C209.322 59.5234 208.385 60.6133 206.352 60.6133H203.979V59.623H206.299C207.676 59.623 208.215 58.9902 208.215 57.9648C208.215 56.9277 207.676 56.248 206.287 56.248H204.471V64H203.357ZM208.373 64L206.264 60.0684H207.518L209.662 64H208.373ZM211.08 64V55.2695H212.193V63.0156H216.236V64H211.08ZM223.73 59.998L218.199 62.7871V61.6504L222.412 59.6523L222.371 59.7109V59.5469L222.412 59.6172L218.199 57.6191V56.4707L223.73 59.2598V59.998Z" fill="#535158"/>
<path d="M24.8496 79.1523C22.957 79.1523 21.7793 78.1797 21.6797 76.7148H22.8223C22.9102 77.7051 23.8242 78.1562 24.8496 78.1562C26.0332 78.1562 26.9355 77.5352 26.9355 76.6035C26.9355 75.7598 26.1387 75.4492 25.207 75.1855L24.1523 74.8867C22.7461 74.4883 21.9258 73.7676 21.9258 72.6074C21.9258 71.1309 23.2383 70.1523 24.9258 70.1523C26.6484 70.1523 27.8496 71.1543 27.9023 72.4727H26.8125C26.7129 71.623 25.9277 71.1367 24.8906 71.1367C23.7598 71.1367 23.0098 71.7344 23.0098 72.5547C23.0098 73.4688 24.0352 73.791 24.6738 73.9668L25.5469 74.207C26.4844 74.4648 28.0195 74.9922 28.0195 76.6211C28.0195 78.0508 26.8652 79.1523 24.8496 79.1523ZM31.8457 79.082C30.5215 79.082 29.625 78.2676 29.625 76.6094V72.4492H30.6797V76.5215C30.6797 77.5293 31.248 78.1328 32.1621 78.1328C33.0996 78.1328 33.8086 77.4941 33.8086 76.375V72.4492H34.8691V79H33.8496V77.4121H33.9902C33.5859 78.6426 32.8066 79.082 31.8457 79.082ZM36.7266 79V72.4492H37.752L37.7578 73.9141H37.6758C37.9395 72.8535 38.7422 72.332 39.5918 72.332C40.541 72.332 41.1445 72.9766 41.3203 73.9258H41.1797C41.4141 72.9473 42.2812 72.332 43.3242 72.332C44.4609 72.332 45.3867 73.0645 45.3867 74.582V79H44.3262V74.6113C44.3262 73.668 43.7109 73.293 43.0078 73.293C42.123 73.293 41.584 73.8965 41.584 74.7227V79H40.5293V74.5059C40.5293 73.7793 39.9844 73.293 39.2461 73.293C38.4785 73.293 37.7812 73.832 37.7812 74.875V79H36.7266ZM47.2383 79V72.4492H48.2637L48.2695 73.9141H48.1875C48.4512 72.8535 49.2539 72.332 50.1035 72.332C51.0527 72.332 51.6562 72.9766 51.832 73.9258H51.6914C51.9258 72.9473 52.793 72.332 53.8359 72.332C54.9727 72.332 55.8984 73.0645 55.8984 74.582V79H54.8379V74.6113C54.8379 73.668 54.2227 73.293 53.5195 73.293C52.6348 73.293 52.0957 73.8965 52.0957 74.7227V79H51.041V74.5059C51.041 73.7793 50.4961 73.293 49.7578 73.293C48.9902 73.293 48.293 73.832 48.293 74.875V79H47.2383ZM59.584 79.1523C58.3418 79.1523 57.3516 78.4258 57.3516 77.1367C57.3516 75.6367 58.6875 75.3613 59.9004 75.209C61.0664 75.0625 61.582 75.0977 61.582 74.6113V74.5762C61.582 73.7617 61.1191 73.293 60.2109 73.293C59.2676 73.293 58.7578 73.7969 58.5527 74.2539L57.5391 73.9199C58.043 72.7305 59.168 72.3672 60.1816 72.3672C61.0605 72.3672 62.6367 72.6367 62.6367 74.6816V79H61.5996V78.1094H61.5293C61.3066 78.5723 60.6914 79.1523 59.584 79.1523ZM59.7656 78.2207C60.9316 78.2207 61.582 77.4355 61.582 76.6328V75.7246C61.4062 75.9297 60.2578 76.0469 59.8535 76.0996C59.0859 76.1992 58.4121 76.4453 58.4121 77.1895C58.4121 77.8691 58.9805 78.2207 59.7656 78.2207ZM64.4883 79V72.4492H65.5078V73.457H65.5781C65.8184 72.7949 66.498 72.3555 67.2773 72.3555C67.4297 72.3555 67.6875 72.3672 67.8105 72.373V73.4336C67.7461 73.4219 67.459 73.375 67.1777 73.375C66.2344 73.375 65.543 74.0137 65.543 74.8984V79H64.4883ZM69.1992 79V72.4492H70.2539V79H69.1992ZM69.7324 71.377C69.334 71.377 69 71.0664 69 70.6797C69 70.293 69.334 69.9824 69.7324 69.9824C70.1367 69.9824 70.4707 70.293 70.4707 70.6797C70.4707 71.0664 70.1367 71.377 69.7324 71.377ZM71.918 79V78.2148L75.5918 73.4922V73.4277H72.0352V72.4492H76.9512V73.2871L73.3828 77.957V78.0215H77.0684V79H71.918ZM81.3164 79.1406C79.418 79.1406 78.2461 77.793 78.2461 75.7773C78.2461 73.7676 79.4062 72.3672 81.1934 72.3672C82.582 72.3672 84.0469 73.2227 84.0469 75.6426V76.082H78.9609V75.1914H83.4785L82.9863 75.5195C82.9863 74.2305 82.377 73.3047 81.1934 73.3047C80.0098 73.3047 79.3125 74.2832 79.3125 75.3496V75.9414C79.3125 77.4004 80.1211 78.2031 81.3223 78.2031C82.0957 78.2031 82.6758 77.8633 82.9219 77.1953L83.9414 77.4766C83.6367 78.4668 82.6582 79.1406 81.3164 79.1406ZM87.7852 79.1406C86.4375 79.1406 85.5 78.543 85.2656 77.4121L86.2676 77.1719C86.4551 77.8926 86.9883 78.2148 87.7734 78.2148C88.6875 78.2148 89.2734 77.7637 89.2734 77.2246C89.2734 76.7734 88.957 76.4746 88.3125 76.3223L87.2227 76.0645C86.0332 75.7832 85.4648 75.1973 85.4648 74.2773C85.4648 73.1523 86.4961 72.3672 87.8906 72.3672C89.2383 72.3672 89.9473 73.0234 90.2461 73.9434L89.291 74.1895C89.1094 73.7207 88.7402 73.2637 87.8965 73.2637C87.1172 73.2637 86.5312 73.668 86.5312 74.2129C86.5312 74.6992 86.8652 74.9688 87.6328 75.1504L88.623 75.3848C89.8125 75.666 90.3691 76.2578 90.3691 77.1543C90.3691 78.3027 89.3203 79.1406 87.7852 79.1406ZM95.2734 79V72.4492H96.3281V79H95.2734ZM95.8066 71.377C95.4082 71.377 95.0742 71.0664 95.0742 70.6797C95.0742 70.293 95.4082 69.9824 95.8066 69.9824C96.2109 69.9824 96.5449 70.293 96.5449 70.6797C96.5449 71.0664 96.2109 71.377 95.8066 71.377ZM100.406 79.1406C99.0586 79.1406 98.1211 78.543 97.8867 77.4121L98.8887 77.1719C99.0762 77.8926 99.6094 78.2148 100.395 78.2148C101.309 78.2148 101.895 77.7637 101.895 77.2246C101.895 76.7734 101.578 76.4746 100.934 76.3223L99.8438 76.0645C98.6543 75.7832 98.0859 75.1973 98.0859 74.2773C98.0859 73.1523 99.1172 72.3672 100.512 72.3672C101.859 72.3672 102.568 73.0234 102.867 73.9434L101.912 74.1895C101.73 73.7207 101.361 73.2637 100.518 73.2637C99.7383 73.2637 99.1523 73.668 99.1523 74.2129C99.1523 74.6992 99.4863 74.9688 100.254 75.1504L101.244 75.3848C102.434 75.666 102.99 76.2578 102.99 77.1543C102.99 78.3027 101.941 79.1406 100.406 79.1406ZM106.746 79.1406C105.398 79.1406 104.461 78.543 104.227 77.4121L105.229 77.1719C105.416 77.8926 105.949 78.2148 106.734 78.2148C107.648 78.2148 108.234 77.7637 108.234 77.2246C108.234 76.7734 107.918 76.4746 107.273 76.3223L106.184 76.0645C104.994 75.7832 104.426 75.1973 104.426 74.2773C104.426 73.1523 105.457 72.3672 106.852 72.3672C108.199 72.3672 108.908 73.0234 109.207 73.9434L108.252 74.1895C108.07 73.7207 107.701 73.2637 106.857 73.2637C106.078 73.2637 105.492 73.668 105.492 74.2129C105.492 74.6992 105.826 74.9688 106.594 75.1504L107.584 75.3848C108.773 75.666 109.33 76.2578 109.33 77.1543C109.33 78.3027 108.281 79.1406 106.746 79.1406ZM113.08 79.082C111.756 79.082 110.859 78.2676 110.859 76.6094V72.4492H111.914V76.5215C111.914 77.5293 112.482 78.1328 113.396 78.1328C114.334 78.1328 115.043 77.4941 115.043 76.375V72.4492H116.104V79H115.084V77.4121H115.225C114.82 78.6426 114.041 79.082 113.08 79.082ZM120.715 79.1406C118.816 79.1406 117.645 77.793 117.645 75.7773C117.645 73.7676 118.805 72.3672 120.592 72.3672C121.98 72.3672 123.445 73.2227 123.445 75.6426V76.082H118.359V75.1914H122.877L122.385 75.5195C122.385 74.2305 121.775 73.3047 120.592 73.3047C119.408 73.3047 118.711 74.2832 118.711 75.3496V75.9414C118.711 77.4004 119.52 78.2031 120.721 78.2031C121.494 78.2031 122.074 77.8633 122.32 77.1953L123.34 77.4766C123.035 78.4668 122.057 79.1406 120.715 79.1406ZM127.184 79.1406C125.836 79.1406 124.898 78.543 124.664 77.4121L125.666 77.1719C125.854 77.8926 126.387 78.2148 127.172 78.2148C128.086 78.2148 128.672 77.7637 128.672 77.2246C128.672 76.7734 128.355 76.4746 127.711 76.3223L126.621 76.0645C125.432 75.7832 124.863 75.1973 124.863 74.2773C124.863 73.1523 125.895 72.3672 127.289 72.3672C128.637 72.3672 129.346 73.0234 129.645 73.9434L128.689 74.1895C128.508 73.7207 128.139 73.2637 127.295 73.2637C126.516 73.2637 125.93 73.668 125.93 74.2129C125.93 74.6992 126.264 74.9688 127.031 75.1504L128.021 75.3848C129.211 75.666 129.768 76.2578 129.768 77.1543C129.768 78.3027 128.719 79.1406 127.184 79.1406ZM137.338 79.1406C135.557 79.1406 134.355 77.7871 134.355 75.7656C134.355 73.7148 135.557 72.3672 137.338 72.3672C139.125 72.3672 140.332 73.7148 140.332 75.7656C140.332 77.7871 139.125 79.1406 137.338 79.1406ZM137.338 78.1973C138.662 78.1973 139.266 77.0547 139.266 75.7656C139.266 74.4648 138.662 73.3105 137.338 73.3105C136.031 73.3105 135.428 74.459 135.428 75.7656C135.428 77.0547 136.031 78.1973 137.338 78.1973ZM141.867 79V72.4492H142.887V73.457H142.957C143.197 72.7949 143.877 72.3555 144.656 72.3555C144.809 72.3555 145.066 72.3672 145.189 72.373V73.4336C145.125 73.4219 144.838 73.375 144.557 73.375C143.613 73.375 142.922 74.0137 142.922 74.8984V79H141.867ZM152.52 79.1406C150.621 79.1406 149.449 77.793 149.449 75.7773C149.449 73.7676 150.609 72.3672 152.396 72.3672C153.785 72.3672 155.25 73.2227 155.25 75.6426V76.082H150.164V75.1914H154.682L154.189 75.5195C154.189 74.2305 153.58 73.3047 152.396 73.3047C151.213 73.3047 150.516 74.2832 150.516 75.3496V75.9414C150.516 77.4004 151.324 78.2031 152.525 78.2031C153.299 78.2031 153.879 77.8633 154.125 77.1953L155.145 77.4766C154.84 78.4668 153.861 79.1406 152.52 79.1406ZM156.762 81.4492V72.4492H157.781V73.498H157.898C158.115 73.1523 158.52 72.3672 159.797 72.3672C161.432 72.3672 162.574 73.668 162.574 75.7422C162.574 77.8281 161.438 79.1406 159.803 79.1406C158.555 79.1406 158.115 78.3496 157.898 77.9863H157.816V81.4492H156.762ZM159.645 78.1973C160.869 78.1973 161.502 77.1074 161.502 75.7305C161.502 74.3711 160.887 73.3105 159.645 73.3105C158.438 73.3105 157.805 74.2832 157.805 75.7305C157.805 77.1895 158.455 78.1973 159.645 78.1973ZM164.109 79V72.4492H165.164V79H164.109ZM164.643 71.377C164.244 71.377 163.91 71.0664 163.91 70.6797C163.91 70.293 164.244 69.9824 164.643 69.9824C165.047 69.9824 165.381 70.293 165.381 70.6797C165.381 71.0664 165.047 71.377 164.643 71.377ZM169.682 79.1406C167.9 79.1406 166.699 77.7871 166.699 75.7656C166.699 73.7148 167.9 72.3672 169.682 72.3672C170.947 72.3672 171.979 73.0352 172.336 74.1777L171.322 74.4648C171.129 73.791 170.543 73.3105 169.682 73.3105C168.375 73.3105 167.771 74.459 167.771 75.7656C167.771 77.0547 168.375 78.1973 169.682 78.1973C170.561 78.1973 171.158 77.6992 171.352 76.9902L172.359 77.2773C172.008 78.4434 170.965 79.1406 169.682 79.1406ZM176.098 79.1406C174.75 79.1406 173.812 78.543 173.578 77.4121L174.58 77.1719C174.768 77.8926 175.301 78.2148 176.086 78.2148C177 78.2148 177.586 77.7637 177.586 77.2246C177.586 76.7734 177.27 76.4746 176.625 76.3223L175.535 76.0645C174.346 75.7832 173.777 75.1973 173.777 74.2773C173.777 73.1523 174.809 72.3672 176.203 72.3672C177.551 72.3672 178.26 73.0234 178.559 73.9434L177.604 74.1895C177.422 73.7207 177.053 73.2637 176.209 73.2637C175.43 73.2637 174.844 73.668 174.844 74.2129C174.844 74.6992 175.178 74.9688 175.945 75.1504L176.936 75.3848C178.125 75.666 178.682 76.2578 178.682 77.1543C178.682 78.3027 177.633 79.1406 176.098 79.1406Z" fill="#535158"/>
<rect x="9" y="93" width="326" height="48" rx="4" fill="white"/>
<path d="M25.7305 103.336L22.4492 115.531H21.3145L24.5957 103.336H25.7305ZM30.1328 106.357V107.41H26.1816V106.357H30.1328ZM27.3301 104.539H28.5605V112.018C28.5605 112.701 28.8135 113.002 29.4629 113.002C29.6201 113.002 29.8867 112.961 30.0918 112.92L30.3447 113.959C30.0918 114.048 29.7432 114.096 29.4287 114.096C28.1094 114.096 27.3301 113.364 27.3301 112.113V104.539ZM31.7051 114V106.357H32.8945V107.533H32.9766C33.2568 106.761 34.0498 106.248 34.959 106.248C35.1367 106.248 35.4375 106.262 35.5811 106.269V107.506C35.5059 107.492 35.1709 107.438 34.8428 107.438C33.7422 107.438 32.9355 108.183 32.9355 109.215V114H31.7051ZM39.8604 114.164C37.7822 114.164 36.3809 112.585 36.3809 110.227C36.3809 107.834 37.7822 106.262 39.8604 106.262C41.9453 106.262 43.3535 107.834 43.3535 110.227C43.3535 112.585 41.9453 114.164 39.8604 114.164ZM39.8604 113.063C41.4053 113.063 42.1094 111.73 42.1094 110.227C42.1094 108.709 41.4053 107.362 39.8604 107.362C38.3359 107.362 37.6318 108.702 37.6318 110.227C37.6318 111.73 38.3359 113.063 39.8604 113.063ZM47.7354 114.096C46.1904 114.096 45.1445 113.146 45.1445 111.211V106.357H46.375V111.108C46.375 112.284 47.0381 112.988 48.1045 112.988C49.1982 112.988 50.0254 112.243 50.0254 110.938V106.357H51.2627V114H50.0732V112.147H50.2373C49.7656 113.583 48.8564 114.096 47.7354 114.096ZM56.9775 114.164C55.5215 114.164 55.0088 113.241 54.7559 112.817H54.6191V114H53.4297V103.814H54.6602V107.581H54.7559C55.0088 107.178 55.4805 106.262 56.9707 106.262C58.8779 106.262 60.2109 107.779 60.2109 110.199C60.2109 112.633 58.8848 114.164 56.9775 114.164ZM56.793 113.063C58.2217 113.063 58.96 111.792 58.96 110.186C58.96 108.6 58.2422 107.362 56.793 107.362C55.3848 107.362 54.6465 108.497 54.6465 110.186C54.6465 111.888 55.4053 113.063 56.793 113.063ZM63.7178 114.055C62.5693 114.055 62.002 113.412 62.002 112.305V103.814H63.2324V111.997C63.2324 112.701 63.3555 112.954 63.8682 112.954C64.1348 112.954 64.2441 112.934 64.3604 112.899L64.6064 113.938C64.3877 114 64.0459 114.055 63.7178 114.055ZM68.8652 114.164C66.6504 114.164 65.2832 112.592 65.2832 110.24C65.2832 107.896 66.6367 106.262 68.7217 106.262C70.3418 106.262 72.0508 107.26 72.0508 110.083V110.596H66.1172V109.557H71.3877L70.8135 109.939C70.8135 108.436 70.1025 107.355 68.7217 107.355C67.3408 107.355 66.5273 108.497 66.5273 109.741V110.432C66.5273 112.134 67.4707 113.07 68.8721 113.07C69.7744 113.07 70.4512 112.674 70.7383 111.895L71.9277 112.223C71.5723 113.378 70.4307 114.164 68.8652 114.164ZM76.4121 114.164C74.8398 114.164 73.7461 113.467 73.4727 112.147L74.6416 111.867C74.8604 112.708 75.4824 113.084 76.3984 113.084C77.4648 113.084 78.1484 112.558 78.1484 111.929C78.1484 111.402 77.7793 111.054 77.0273 110.876L75.7559 110.575C74.3682 110.247 73.7051 109.563 73.7051 108.49C73.7051 107.178 74.9082 106.262 76.5352 106.262C78.1074 106.262 78.9346 107.027 79.2832 108.101L78.1689 108.388C77.957 107.841 77.5264 107.308 76.542 107.308C75.6328 107.308 74.9492 107.779 74.9492 108.415C74.9492 108.982 75.3389 109.297 76.2344 109.509L77.3896 109.782C78.7773 110.11 79.4268 110.801 79.4268 111.847C79.4268 113.187 78.2031 114.164 76.4121 114.164ZM82.4414 109.42V114H81.2109V103.814H82.4414V108.21H82.2295C82.6943 106.802 83.583 106.262 84.7383 106.262C86.2832 106.262 87.3291 107.212 87.3291 109.146V114H86.0918V109.249C86.0918 108.073 85.4355 107.369 84.3691 107.369C83.2686 107.369 82.4414 108.114 82.4414 109.42ZM92.6064 114.164C90.5283 114.164 89.127 112.585 89.127 110.227C89.127 107.834 90.5283 106.262 92.6064 106.262C94.6914 106.262 96.0996 107.834 96.0996 110.227C96.0996 112.585 94.6914 114.164 92.6064 114.164ZM92.6064 113.063C94.1514 113.063 94.8555 111.73 94.8555 110.227C94.8555 108.709 94.1514 107.362 92.6064 107.362C91.082 107.362 90.3779 108.702 90.3779 110.227C90.3779 111.73 91.082 113.063 92.6064 113.063ZM101.001 114.164C98.9229 114.164 97.5215 112.585 97.5215 110.227C97.5215 107.834 98.9229 106.262 101.001 106.262C103.086 106.262 104.494 107.834 104.494 110.227C104.494 112.585 103.086 114.164 101.001 114.164ZM101.001 113.063C102.546 113.063 103.25 111.73 103.25 110.227C103.25 108.709 102.546 107.362 101.001 107.362C99.4766 107.362 98.7725 108.702 98.7725 110.227C98.7725 111.73 99.4766 113.063 101.001 113.063ZM109.293 106.357V107.41H105.342V106.357H109.293ZM106.49 104.539H107.721V112.018C107.721 112.701 107.974 113.002 108.623 113.002C108.78 113.002 109.047 112.961 109.252 112.92L109.505 113.959C109.252 114.048 108.903 114.096 108.589 114.096C107.27 114.096 106.49 113.364 106.49 112.113V104.539Z" fill="#333238"/>
<path d="M114.742 109.998V109.26L120.273 106.471V107.619L116.066 109.617L116.102 109.547V109.711L116.066 109.652L120.273 111.65V112.787L114.742 109.998ZM126.139 114.141C124.07 114.141 122.723 112.828 122.723 111.029V105.27H123.836V110.941C123.836 112.195 124.709 113.109 126.139 113.109C127.562 113.109 128.43 112.195 128.43 110.941V105.27H129.543V111.029C129.543 112.828 128.195 114.141 126.139 114.141ZM131.652 114V105.27H134.641C136.68 105.27 137.617 106.406 137.617 107.965C137.617 109.523 136.68 110.613 134.646 110.613H132.273V109.623H134.594C135.971 109.623 136.51 108.99 136.51 107.965C136.51 106.928 135.971 106.248 134.582 106.248H132.766V114H131.652ZM136.668 114L134.559 110.068H135.812L137.957 114H136.668ZM139.375 114V105.27H140.488V113.016H144.531V114H139.375ZM152.025 109.998L146.494 112.787V111.65L150.707 109.652L150.666 109.711V109.547L150.707 109.617L146.494 107.619V106.471L152.025 109.26V109.998Z" fill="#737278"/>
<path d="M24.8496 129.152C22.957 129.152 21.7793 128.18 21.6797 126.715H22.8223C22.9102 127.705 23.8242 128.156 24.8496 128.156C26.0332 128.156 26.9355 127.535 26.9355 126.604C26.9355 125.76 26.1387 125.449 25.207 125.186L24.1523 124.887C22.7461 124.488 21.9258 123.768 21.9258 122.607C21.9258 121.131 23.2383 120.152 24.9258 120.152C26.6484 120.152 27.8496 121.154 27.9023 122.473H26.8125C26.7129 121.623 25.9277 121.137 24.8906 121.137C23.7598 121.137 23.0098 121.734 23.0098 122.555C23.0098 123.469 24.0352 123.791 24.6738 123.967L25.5469 124.207C26.4844 124.465 28.0195 124.992 28.0195 126.621C28.0195 128.051 26.8652 129.152 24.8496 129.152ZM31.8457 129.082C30.5215 129.082 29.625 128.268 29.625 126.609V122.449H30.6797V126.521C30.6797 127.529 31.248 128.133 32.1621 128.133C33.0996 128.133 33.8086 127.494 33.8086 126.375V122.449H34.8691V129H33.8496V127.412H33.9902C33.5859 128.643 32.8066 129.082 31.8457 129.082ZM39.3809 131.59C37.9277 131.59 37.0898 130.975 36.6855 130.254L37.541 129.703C37.8164 130.084 38.2266 130.67 39.3809 130.67C40.4238 130.67 41.1797 130.189 41.1797 129.111V127.799H41.0801C40.8574 128.174 40.4414 128.895 39.1758 128.895C37.6055 128.895 36.4102 127.752 36.4102 125.695C36.4102 123.668 37.5645 122.367 39.1992 122.367C40.4648 122.367 40.8867 123.146 41.1094 123.498H41.209V122.449H42.2344V129.17C42.2344 130.863 40.9746 131.59 39.3809 131.59ZM39.3516 127.957C40.541 127.957 41.1914 127.102 41.1914 125.672C41.1914 124.283 40.5586 123.311 39.3516 123.311C38.1035 123.311 37.4824 124.365 37.4824 125.672C37.4824 127.02 38.1211 127.957 39.3516 127.957ZM46.7402 131.59C45.2871 131.59 44.4492 130.975 44.0449 130.254L44.9004 129.703C45.1758 130.084 45.5859 130.67 46.7402 130.67C47.7832 130.67 48.5391 130.189 48.5391 129.111V127.799H48.4395C48.2168 128.174 47.8008 128.895 46.5352 128.895C44.9648 128.895 43.7695 127.752 43.7695 125.695C43.7695 123.668 44.9238 122.367 46.5586 122.367C47.8242 122.367 48.2461 123.146 48.4688 123.498H48.5684V122.449H49.5938V129.17C49.5938 130.863 48.334 131.59 46.7402 131.59ZM46.7109 127.957C47.9004 127.957 48.5508 127.102 48.5508 125.672C48.5508 124.283 47.918 123.311 46.7109 123.311C45.4629 123.311 44.8418 124.365 44.8418 125.672C44.8418 127.02 45.4805 127.957 46.7109 127.957ZM54.1992 129.141C52.3008 129.141 51.1289 127.793 51.1289 125.777C51.1289 123.768 52.2891 122.367 54.0762 122.367C55.4648 122.367 56.9297 123.223 56.9297 125.643V126.082H51.8438V125.191H56.3613L55.8691 125.52C55.8691 124.23 55.2598 123.305 54.0762 123.305C52.8926 123.305 52.1953 124.283 52.1953 125.35V125.941C52.1953 127.4 53.0039 128.203 54.2051 128.203C54.9785 128.203 55.5586 127.863 55.8047 127.195L56.8242 127.477C56.5195 128.467 55.541 129.141 54.1992 129.141ZM60.668 129.141C59.3203 129.141 58.3828 128.543 58.1484 127.412L59.1504 127.172C59.3379 127.893 59.8711 128.215 60.6562 128.215C61.5703 128.215 62.1562 127.764 62.1562 127.225C62.1562 126.773 61.8398 126.475 61.1953 126.322L60.1055 126.064C58.916 125.783 58.3477 125.197 58.3477 124.277C58.3477 123.152 59.3789 122.367 60.7734 122.367C62.1211 122.367 62.8301 123.023 63.1289 123.943L62.1738 124.189C61.9922 123.721 61.623 123.264 60.7793 123.264C60 123.264 59.4141 123.668 59.4141 124.213C59.4141 124.699 59.748 124.969 60.5156 125.15L61.5059 125.385C62.6953 125.666 63.252 126.258 63.252 127.154C63.252 128.303 62.2031 129.141 60.668 129.141ZM67.3594 122.449V123.352H63.9727V122.449H67.3594ZM64.957 120.891H66.0117V127.301C66.0117 127.887 66.2285 128.145 66.7852 128.145C66.9199 128.145 67.1484 128.109 67.3242 128.074L67.541 128.965C67.3242 129.041 67.0254 129.082 66.7559 129.082C65.625 129.082 64.957 128.455 64.957 127.383V120.891ZM73.916 129.152C72.6738 129.152 71.6836 128.426 71.6836 127.137C71.6836 125.637 73.0195 125.361 74.2324 125.209C75.3984 125.062 75.9141 125.098 75.9141 124.611V124.576C75.9141 123.762 75.4512 123.293 74.543 123.293C73.5996 123.293 73.0898 123.797 72.8848 124.254L71.8711 123.92C72.375 122.73 73.5 122.367 74.5137 122.367C75.3926 122.367 76.9688 122.637 76.9688 124.682V129H75.9316V128.109H75.8613C75.6387 128.572 75.0234 129.152 73.916 129.152ZM74.0977 128.221C75.2637 128.221 75.9141 127.436 75.9141 126.633V125.725C75.7383 125.93 74.5898 126.047 74.1855 126.1C73.418 126.199 72.7441 126.445 72.7441 127.189C72.7441 127.869 73.3125 128.221 74.0977 128.221ZM82.6641 129V121.576C82.6641 120.439 83.5723 119.859 84.5273 119.859C84.7383 119.859 84.9258 119.877 85.0781 119.906L84.9199 120.861C84.8438 120.844 84.7559 120.838 84.6504 120.838C84 120.838 83.7188 121.178 83.7188 121.811V129H82.6641ZM81.3867 123.352V122.449H86.5781V123.352H81.3867ZM86.2266 129V122.449H87.2812V129H86.2266ZM86.7598 121.377C86.3613 121.377 86.0273 121.066 86.0273 120.68C86.0273 120.293 86.3613 119.982 86.7598 119.982C87.1641 119.982 87.498 120.293 87.498 120.68C87.498 121.066 87.1641 121.377 86.7598 121.377ZM88.5879 129L91.1719 125.232L91.166 126.041L88.7227 122.449H89.9531L90.7676 123.721C91.1895 124.377 91.4648 124.939 91.793 125.467H91.2422C91.5762 124.939 91.8047 124.377 92.2324 123.721L93.0645 122.449H94.2715L91.8164 126.088V125.309L94.377 129H93.1523L92.1914 127.529C91.7754 126.891 91.5117 126.352 91.1895 125.842H91.7461C91.4238 126.352 91.2012 126.891 90.7793 127.529L89.8066 129H88.5879ZM101.637 122.449V123.352H98.25V122.449H101.637ZM99.2344 120.891H100.289V127.301C100.289 127.887 100.506 128.145 101.062 128.145C101.197 128.145 101.426 128.109 101.602 128.074L101.818 128.965C101.602 129.041 101.303 129.082 101.033 129.082C99.9023 129.082 99.2344 128.455 99.2344 127.383V120.891ZM105.533 129.141C103.752 129.141 102.551 127.787 102.551 125.766C102.551 123.715 103.752 122.367 105.533 122.367C107.32 122.367 108.527 123.715 108.527 125.766C108.527 127.787 107.32 129.141 105.533 129.141ZM105.533 128.197C106.857 128.197 107.461 127.055 107.461 125.766C107.461 124.465 106.857 123.311 105.533 123.311C104.227 123.311 103.623 124.459 103.623 125.766C103.623 127.055 104.227 128.197 105.533 128.197ZM115.271 129.152C114.029 129.152 113.039 128.426 113.039 127.137C113.039 125.637 114.375 125.361 115.588 125.209C116.754 125.062 117.27 125.098 117.27 124.611V124.576C117.27 123.762 116.807 123.293 115.898 123.293C114.955 123.293 114.445 123.797 114.24 124.254L113.227 123.92C113.73 122.73 114.855 122.367 115.869 122.367C116.748 122.367 118.324 122.637 118.324 124.682V129H117.287V128.109H117.217C116.994 128.572 116.379 129.152 115.271 129.152ZM115.453 128.221C116.619 128.221 117.27 127.436 117.27 126.633V125.725C117.094 125.93 115.945 126.047 115.541 126.1C114.773 126.199 114.1 126.445 114.1 127.189C114.1 127.869 114.668 128.221 115.453 128.221ZM123.551 131.449V122.449H124.57V123.498H124.688C124.904 123.152 125.309 122.367 126.586 122.367C128.221 122.367 129.363 123.668 129.363 125.742C129.363 127.828 128.227 129.141 126.592 129.141C125.344 129.141 124.904 128.35 124.688 127.986H124.605V131.449H123.551ZM126.434 128.197C127.658 128.197 128.291 127.107 128.291 125.73C128.291 124.371 127.676 123.311 126.434 123.311C125.227 123.311 124.594 124.283 124.594 125.73C124.594 127.189 125.244 128.197 126.434 128.197ZM130.898 129V122.449H131.953V129H130.898ZM131.432 121.377C131.033 121.377 130.699 121.066 130.699 120.68C130.699 120.293 131.033 119.982 131.432 119.982C131.836 119.982 132.17 120.293 132.17 120.68C132.17 121.066 131.836 121.377 131.432 121.377ZM133.805 131.449V122.449H134.824V123.498H134.941C135.158 123.152 135.562 122.367 136.84 122.367C138.475 122.367 139.617 123.668 139.617 125.742C139.617 127.828 138.48 129.141 136.846 129.141C135.598 129.141 135.158 128.35 134.941 127.986H134.859V131.449H133.805ZM136.688 128.197C137.912 128.197 138.545 127.107 138.545 125.73C138.545 124.371 137.93 123.311 136.688 123.311C135.48 123.311 134.848 124.283 134.848 125.73C134.848 127.189 135.498 128.197 136.688 128.197ZM143.906 129.141C142.008 129.141 140.836 127.793 140.836 125.777C140.836 123.768 141.996 122.367 143.783 122.367C145.172 122.367 146.637 123.223 146.637 125.643V126.082H141.551V125.191H146.068L145.576 125.52C145.576 124.23 144.967 123.305 143.783 123.305C142.6 123.305 141.902 124.283 141.902 125.35V125.941C141.902 127.4 142.711 128.203 143.912 128.203C144.686 128.203 145.266 127.863 145.512 127.195L146.531 127.477C146.227 128.467 145.248 129.141 143.906 129.141ZM149.619 129.047C148.635 129.047 148.148 128.496 148.148 127.547V120.27H149.203V127.283C149.203 127.887 149.309 128.104 149.748 128.104C149.977 128.104 150.07 128.086 150.17 128.057L150.381 128.947C150.193 129 149.9 129.047 149.619 129.047ZM151.453 129V122.449H152.508V129H151.453ZM151.986 121.377C151.588 121.377 151.254 121.066 151.254 120.68C151.254 120.293 151.588 119.982 151.986 119.982C152.391 119.982 152.725 120.293 152.725 120.68C152.725 121.066 152.391 121.377 151.986 121.377ZM155.414 125.074V129H154.359V122.449H155.373L155.379 124.037H155.232C155.631 122.83 156.393 122.367 157.383 122.367C158.707 122.367 159.604 123.182 159.604 124.84V129H158.543V124.928C158.543 123.92 157.98 123.316 157.066 123.316C156.123 123.316 155.414 123.955 155.414 125.074ZM164.215 129.141C162.316 129.141 161.145 127.793 161.145 125.777C161.145 123.768 162.305 122.367 164.092 122.367C165.48 122.367 166.945 123.223 166.945 125.643V126.082H161.859V125.191H166.377L165.885 125.52C165.885 124.23 165.275 123.305 164.092 123.305C162.908 123.305 162.211 124.283 162.211 125.35V125.941C162.211 127.4 163.02 128.203 164.221 128.203C164.994 128.203 165.574 127.863 165.82 127.195L166.84 127.477C166.535 128.467 165.557 129.141 164.215 129.141ZM168.281 131.104L168.797 127.781H170.004L169.09 131.104H168.281ZM177.955 129.141C176.174 129.141 174.973 127.787 174.973 125.766C174.973 123.715 176.174 122.367 177.955 122.367C179.221 122.367 180.252 123.035 180.609 124.178L179.596 124.465C179.402 123.791 178.816 123.311 177.955 123.311C176.648 123.311 176.045 124.459 176.045 125.766C176.045 127.055 176.648 128.197 177.955 128.197C178.834 128.197 179.432 127.699 179.625 126.99L180.633 127.277C180.281 128.443 179.238 129.141 177.955 129.141ZM184.811 129.141C183.029 129.141 181.828 127.787 181.828 125.766C181.828 123.715 183.029 122.367 184.811 122.367C186.598 122.367 187.805 123.715 187.805 125.766C187.805 127.787 186.598 129.141 184.811 129.141ZM184.811 128.197C186.135 128.197 186.738 127.055 186.738 125.766C186.738 124.465 186.135 123.311 184.811 123.311C183.504 123.311 182.9 124.459 182.9 125.766C182.9 127.055 183.504 128.197 184.811 128.197ZM191.795 129.141C190.16 129.141 189.023 127.828 189.023 125.742C189.023 123.668 190.166 122.367 191.801 122.367C193.078 122.367 193.482 123.152 193.699 123.498H193.781V120.27H194.836V129H193.816V127.986H193.699C193.482 128.35 193.043 129.141 191.795 129.141ZM191.953 128.197C193.143 128.197 193.793 127.189 193.793 125.73C193.793 124.283 193.16 123.311 191.953 123.311C190.711 123.311 190.096 124.371 190.096 125.73C190.096 127.107 190.729 128.197 191.953 128.197ZM199.441 129.141C197.543 129.141 196.371 127.793 196.371 125.777C196.371 123.768 197.531 122.367 199.318 122.367C200.707 122.367 202.172 123.223 202.172 125.643V126.082H197.086V125.191H201.604L201.111 125.52C201.111 124.23 200.502 123.305 199.318 123.305C198.135 123.305 197.438 124.283 197.438 125.35V125.941C197.438 127.4 198.246 128.203 199.447 128.203C200.221 128.203 200.801 127.863 201.047 127.195L202.066 127.477C201.762 128.467 200.783 129.141 199.441 129.141ZM203.508 131.104L204.023 127.781H205.23L204.316 131.104H203.508ZM213.182 129.141C211.4 129.141 210.199 127.787 210.199 125.766C210.199 123.715 211.4 122.367 213.182 122.367C214.969 122.367 216.176 123.715 216.176 125.766C216.176 127.787 214.969 129.141 213.182 129.141ZM213.182 128.197C214.506 128.197 215.109 127.055 215.109 125.766C215.109 124.465 214.506 123.311 213.182 123.311C211.875 123.311 211.271 124.459 211.271 125.766C211.271 127.055 211.875 128.197 213.182 128.197ZM217.711 129V122.449H218.73V123.457H218.801C219.041 122.795 219.721 122.355 220.5 122.355C220.652 122.355 220.91 122.367 221.033 122.373V123.434C220.969 123.422 220.682 123.375 220.4 123.375C219.457 123.375 218.766 124.014 218.766 124.898V129H217.711ZM227.502 129L225 122.449H226.154L227.549 126.334C227.842 127.143 228.023 127.951 228.252 128.701H227.865C228.094 127.951 228.27 127.143 228.562 126.334L229.957 122.449H231.111L228.609 129H227.502ZM234.58 129.082C233.256 129.082 232.359 128.268 232.359 126.609V122.449H233.414V126.521C233.414 127.529 233.982 128.133 234.896 128.133C235.834 128.133 236.543 127.494 236.543 126.375V122.449H237.604V129H236.584V127.412H236.725C236.32 128.643 235.541 129.082 234.58 129.082ZM240.932 129.047C239.947 129.047 239.461 128.496 239.461 127.547V120.27H240.516V127.283C240.516 127.887 240.621 128.104 241.061 128.104C241.289 128.104 241.383 128.086 241.482 128.057L241.693 128.947C241.506 129 241.213 129.047 240.932 129.047ZM243.82 125.074V129H242.766V122.449H243.779L243.785 124.037H243.639C244.037 122.83 244.799 122.367 245.789 122.367C247.113 122.367 248.01 123.182 248.01 124.84V129H246.949V124.928C246.949 123.92 246.387 123.316 245.473 123.316C244.529 123.316 243.82 123.955 243.82 125.074ZM252.621 129.141C250.723 129.141 249.551 127.793 249.551 125.777C249.551 123.768 250.711 122.367 252.498 122.367C253.887 122.367 255.352 123.223 255.352 125.643V126.082H250.266V125.191H254.783L254.291 125.52C254.291 124.23 253.682 123.305 252.498 123.305C251.314 123.305 250.617 124.283 250.617 125.35V125.941C250.617 127.4 251.426 128.203 252.627 128.203C253.4 128.203 253.98 127.863 254.227 127.195L255.246 127.477C254.941 128.467 253.963 129.141 252.621 129.141ZM256.863 129V122.449H257.883V123.457H257.953C258.193 122.795 258.873 122.355 259.652 122.355C259.805 122.355 260.062 122.367 260.186 122.373V123.434C260.121 123.422 259.834 123.375 259.553 123.375C258.609 123.375 257.918 124.014 257.918 124.898V129H256.863ZM263.221 129.152C261.979 129.152 260.988 128.426 260.988 127.137C260.988 125.637 262.324 125.361 263.537 125.209C264.703 125.062 265.219 125.098 265.219 124.611V124.576C265.219 123.762 264.756 123.293 263.848 123.293C262.904 123.293 262.395 123.797 262.189 124.254L261.176 123.92C261.68 122.73 262.805 122.367 263.818 122.367C264.697 122.367 266.273 122.637 266.273 124.682V129H265.236V128.109H265.166C264.943 128.572 264.328 129.152 263.221 129.152ZM263.402 128.221C264.568 128.221 265.219 127.436 265.219 126.633V125.725C265.043 125.93 263.895 126.047 263.49 126.1C262.723 126.199 262.049 126.445 262.049 127.189C262.049 127.869 262.617 128.221 263.402 128.221ZM271.166 129.141C269.918 129.141 269.479 128.35 269.262 127.986H269.145V129H268.125V120.27H269.18V123.498H269.262C269.479 123.152 269.883 122.367 271.16 122.367C272.795 122.367 273.938 123.668 273.938 125.742C273.938 127.828 272.801 129.141 271.166 129.141ZM271.008 128.197C272.232 128.197 272.865 127.107 272.865 125.73C272.865 124.371 272.25 123.311 271.008 123.311C269.801 123.311 269.168 124.283 269.168 125.73C269.168 127.189 269.818 128.197 271.008 128.197ZM275.473 129V122.449H276.527V129H275.473ZM276.006 121.377C275.607 121.377 275.273 121.066 275.273 120.68C275.273 120.293 275.607 119.982 276.006 119.982C276.41 119.982 276.744 120.293 276.744 120.68C276.744 121.066 276.41 121.377 276.006 121.377ZM279.85 129.047C278.865 129.047 278.379 128.496 278.379 127.547V120.27H279.434V127.283C279.434 127.887 279.539 128.104 279.979 128.104C280.207 128.104 280.301 128.086 280.4 128.057L280.611 128.947C280.424 129 280.131 129.047 279.85 129.047ZM281.684 129V122.449H282.738V129H281.684ZM282.217 121.377C281.818 121.377 281.484 121.066 281.484 120.68C281.484 120.293 281.818 119.982 282.217 119.982C282.621 119.982 282.955 120.293 282.955 120.68C282.955 121.066 282.621 121.377 282.217 121.377ZM287.168 122.449V123.352H283.781V122.449H287.168ZM284.766 120.891H285.82V127.301C285.82 127.887 286.037 128.145 286.594 128.145C286.729 128.145 286.957 128.109 287.133 128.074L287.35 128.965C287.133 129.041 286.834 129.082 286.564 129.082C285.434 129.082 284.766 128.455 284.766 127.383V120.891ZM288.645 131.373L288.914 130.459L289.025 130.488C289.67 130.658 290.133 130.518 290.455 129.58L290.643 129.035L288.141 122.449H289.295L290.689 126.334C290.982 127.148 291.158 127.951 291.387 128.701H291C291.223 127.951 291.404 127.143 291.697 126.334L293.104 122.449H294.252L291.375 129.979C290.977 131.021 290.344 131.496 289.418 131.496C289.043 131.496 288.756 131.426 288.645 131.373Z" fill="#737278"/>
<rect x="9" y="143" width="326" height="48" rx="4" fill="white"/>
<path d="M25.7305 153.336L22.4492 165.531H21.3145L24.5957 153.336H25.7305ZM27.125 164V156.357H28.3555V164H27.125ZM27.7471 155.106C27.2822 155.106 26.8926 154.744 26.8926 154.293C26.8926 153.842 27.2822 153.479 27.7471 153.479C28.2188 153.479 28.6084 153.842 28.6084 154.293C28.6084 154.744 28.2188 155.106 27.7471 155.106ZM30.5156 164V156.357H31.7119L31.7188 158.066H31.623C31.9307 156.829 32.8672 156.221 33.8584 156.221C34.9658 156.221 35.6699 156.973 35.875 158.08H35.7109C35.9844 156.938 36.9961 156.221 38.2129 156.221C39.5391 156.221 40.6191 157.075 40.6191 158.846V164H39.3818V158.88C39.3818 157.779 38.6641 157.342 37.8438 157.342C36.8115 157.342 36.1826 158.046 36.1826 159.01V164H34.9521V158.757C34.9521 157.909 34.3164 157.342 33.4551 157.342C32.5596 157.342 31.7461 157.971 31.7461 159.188V164H30.5156ZM42.7793 166.857V156.357H43.9688V157.581H44.1055C44.3584 157.178 44.8301 156.262 46.3203 156.262C48.2275 156.262 49.5605 157.779 49.5605 160.199C49.5605 162.633 48.2344 164.164 46.3271 164.164C44.8711 164.164 44.3584 163.241 44.1055 162.817H44.0098V166.857H42.7793ZM46.1426 163.063C47.5713 163.063 48.3096 161.792 48.3096 160.186C48.3096 158.6 47.5918 157.362 46.1426 157.362C44.7344 157.362 43.9961 158.497 43.9961 160.186C43.9961 161.888 44.7549 163.063 46.1426 163.063ZM51.3516 164V156.357H52.541V157.533H52.623C52.9033 156.761 53.6963 156.248 54.6055 156.248C54.7832 156.248 55.084 156.262 55.2275 156.269V157.506C55.1523 157.492 54.8174 157.438 54.4893 157.438C53.3887 157.438 52.582 158.183 52.582 159.215V164H51.3516ZM59.5068 164.164C57.4287 164.164 56.0273 162.585 56.0273 160.227C56.0273 157.834 57.4287 156.262 59.5068 156.262C61.5918 156.262 63 157.834 63 160.227C63 162.585 61.5918 164.164 59.5068 164.164ZM59.5068 163.063C61.0518 163.063 61.7559 161.73 61.7559 160.227C61.7559 158.709 61.0518 157.362 59.5068 157.362C57.9824 157.362 57.2783 158.702 57.2783 160.227C57.2783 161.73 57.9824 163.063 59.5068 163.063ZM66.7256 164L63.8066 156.357H65.1533L66.7803 160.89C67.1221 161.833 67.334 162.776 67.6006 163.651H67.1494C67.416 162.776 67.6211 161.833 67.9629 160.89L69.5898 156.357H70.9365L68.0176 164H66.7256ZM75.332 164.164C73.1172 164.164 71.75 162.592 71.75 160.24C71.75 157.896 73.1035 156.262 75.1885 156.262C76.8086 156.262 78.5176 157.26 78.5176 160.083V160.596H72.584V159.557H77.8545L77.2803 159.939C77.2803 158.436 76.5693 157.355 75.1885 157.355C73.8076 157.355 72.9941 158.497 72.9941 159.741V160.432C72.9941 162.134 73.9375 163.07 75.3389 163.07C76.2412 163.07 76.918 162.674 77.2051 161.895L78.3945 162.223C78.0391 163.378 76.8975 164.164 75.332 164.164Z" fill="#333238"/>
<path d="M84.1582 159.998V159.26L89.6895 156.471V157.619L85.4824 159.617L85.5176 159.547V159.711L85.4824 159.652L89.6895 161.65V162.787L84.1582 159.998ZM95.5547 164.141C93.4863 164.141 92.1387 162.828 92.1387 161.029V155.27H93.252V160.941C93.252 162.195 94.125 163.109 95.5547 163.109C96.9785 163.109 97.8457 162.195 97.8457 160.941V155.27H98.959V161.029C98.959 162.828 97.6113 164.141 95.5547 164.141ZM101.068 164V155.27H104.057C106.096 155.27 107.033 156.406 107.033 157.965C107.033 159.523 106.096 160.613 104.062 160.613H101.689V159.623H104.01C105.387 159.623 105.926 158.99 105.926 157.965C105.926 156.928 105.387 156.248 103.998 156.248H102.182V164H101.068ZM106.084 164L103.975 160.068H105.229L107.373 164H106.084ZM108.791 164V155.27H109.904V163.016H113.947V164H108.791ZM121.441 159.998L115.91 162.787V161.65L120.123 159.652L120.082 159.711V159.547L120.123 159.617L115.91 157.619V156.471L121.441 159.26V159.998Z" fill="#737278"/>
<path d="M23.168 170.27V179H22.0547V170.27H23.168ZM25.1484 179V172.449H26.1738L26.1797 173.914H26.0977C26.3613 172.854 27.1641 172.332 28.0137 172.332C28.9629 172.332 29.5664 172.977 29.7422 173.926H29.6016C29.8359 172.947 30.7031 172.332 31.7461 172.332C32.8828 172.332 33.8086 173.064 33.8086 174.582V179H32.748V174.611C32.748 173.668 32.1328 173.293 31.4297 173.293C30.5449 173.293 30.0059 173.896 30.0059 174.723V179H28.9512V174.506C28.9512 173.779 28.4062 173.293 27.668 173.293C26.9004 173.293 26.2031 173.832 26.2031 174.875V179H25.1484ZM35.6602 181.449V172.449H36.6797V173.498H36.7969C37.0137 173.152 37.418 172.367 38.6953 172.367C40.3301 172.367 41.4727 173.668 41.4727 175.742C41.4727 177.828 40.3359 179.141 38.7012 179.141C37.4531 179.141 37.0137 178.35 36.7969 177.986H36.7148V181.449H35.6602ZM38.543 178.197C39.7676 178.197 40.4004 177.107 40.4004 175.73C40.4004 174.371 39.7852 173.311 38.543 173.311C37.3359 173.311 36.7031 174.283 36.7031 175.73C36.7031 177.189 37.3535 178.197 38.543 178.197ZM43.0078 179V172.449H44.0273V173.457H44.0977C44.3379 172.795 45.0176 172.355 45.7969 172.355C45.9492 172.355 46.207 172.367 46.3301 172.373V173.434C46.2656 173.422 45.9785 173.375 45.6973 173.375C44.7539 173.375 44.0625 174.014 44.0625 174.898V179H43.0078ZM49.998 179.141C48.2168 179.141 47.0156 177.787 47.0156 175.766C47.0156 173.715 48.2168 172.367 49.998 172.367C51.7852 172.367 52.9922 173.715 52.9922 175.766C52.9922 177.787 51.7852 179.141 49.998 179.141ZM49.998 178.197C51.3223 178.197 51.9258 177.055 51.9258 175.766C51.9258 174.465 51.3223 173.311 49.998 173.311C48.6914 173.311 48.0879 174.459 48.0879 175.766C48.0879 177.055 48.6914 178.197 49.998 178.197ZM56.1855 179L53.6836 172.449H54.8379L56.2324 176.334C56.5254 177.143 56.707 177.951 56.9355 178.701H56.5488C56.7773 177.951 56.9531 177.143 57.2461 176.334L58.6406 172.449H59.7949L57.293 179H56.1855ZM63.5625 179.141C61.6641 179.141 60.4922 177.793 60.4922 175.777C60.4922 173.768 61.6523 172.367 63.4395 172.367C64.8281 172.367 66.293 173.223 66.293 175.643V176.082H61.207V175.191H65.7246L65.2324 175.52C65.2324 174.23 64.623 173.305 63.4395 173.305C62.2559 173.305 61.5586 174.283 61.5586 175.35V175.941C61.5586 177.4 62.3672 178.203 63.5684 178.203C64.3418 178.203 64.9219 177.863 65.168 177.195L66.1875 177.477C65.8828 178.467 64.9043 179.141 63.5625 179.141ZM73.8457 179.141C72.0645 179.141 70.8633 177.787 70.8633 175.766C70.8633 173.715 72.0645 172.367 73.8457 172.367C75.1113 172.367 76.1426 173.035 76.5 174.178L75.4863 174.465C75.293 173.791 74.707 173.311 73.8457 173.311C72.5391 173.311 71.9355 174.459 71.9355 175.766C71.9355 177.055 72.5391 178.197 73.8457 178.197C74.7246 178.197 75.3223 177.699 75.5156 176.99L76.5234 177.277C76.1719 178.443 75.1289 179.141 73.8457 179.141ZM80.7012 179.141C78.9199 179.141 77.7188 177.787 77.7188 175.766C77.7188 173.715 78.9199 172.367 80.7012 172.367C82.4883 172.367 83.6953 173.715 83.6953 175.766C83.6953 177.787 82.4883 179.141 80.7012 179.141ZM80.7012 178.197C82.0254 178.197 82.6289 177.055 82.6289 175.766C82.6289 174.465 82.0254 173.311 80.7012 173.311C79.3945 173.311 78.791 174.459 78.791 175.766C78.791 177.055 79.3945 178.197 80.7012 178.197ZM87.6855 179.141C86.0508 179.141 84.9141 177.828 84.9141 175.742C84.9141 173.668 86.0566 172.367 87.6914 172.367C88.9688 172.367 89.373 173.152 89.5898 173.498H89.6719V170.27H90.7266V179H89.707V177.986H89.5898C89.373 178.35 88.9336 179.141 87.6855 179.141ZM87.8438 178.197C89.0332 178.197 89.6836 177.189 89.6836 175.73C89.6836 174.283 89.0508 173.311 87.8438 173.311C86.6016 173.311 85.9863 174.371 85.9863 175.73C85.9863 177.107 86.6191 178.197 87.8438 178.197ZM95.332 179.141C93.4336 179.141 92.2617 177.793 92.2617 175.777C92.2617 173.768 93.4219 172.367 95.209 172.367C96.5977 172.367 98.0625 173.223 98.0625 175.643V176.082H92.9766V175.191H97.4941L97.002 175.52C97.002 174.23 96.3926 173.305 95.209 173.305C94.0254 173.305 93.3281 174.283 93.3281 175.35V175.941C93.3281 177.4 94.1367 178.203 95.3379 178.203C96.1113 178.203 96.6914 177.863 96.9375 177.195L97.957 177.477C97.6523 178.467 96.6738 179.141 95.332 179.141Z" fill="#737278"/>
<rect x="9" y="193" width="326" height="48" rx="4" fill="white"/>
<path d="M25.7305 203.336L22.4492 215.531H21.3145L24.5957 203.336H25.7305ZM30.3379 214.164C28.123 214.164 26.7559 212.592 26.7559 210.24C26.7559 207.896 28.1094 206.262 30.1943 206.262C31.8145 206.262 33.5234 207.26 33.5234 210.083V210.596H27.5898V209.557H32.8604L32.2861 209.939C32.2861 208.436 31.5752 207.355 30.1943 207.355C28.8135 207.355 28 208.497 28 209.741V210.432C28 212.134 28.9434 213.07 30.3447 213.07C31.2471 213.07 31.9238 212.674 32.2109 211.895L33.4004 212.223C33.0449 213.378 31.9033 214.164 30.3379 214.164ZM34.3369 214L37.3516 209.604L37.3447 210.548L34.4941 206.357H35.9297L36.8799 207.841C37.3721 208.606 37.6934 209.263 38.0762 209.878H37.4336C37.8232 209.263 38.0898 208.606 38.5889 207.841L39.5596 206.357H40.9678L38.1035 210.603V209.693L41.0908 214H39.6621L38.541 212.284C38.0557 211.539 37.748 210.91 37.3721 210.315H38.0215C37.6455 210.91 37.3857 211.539 36.8936 212.284L35.7588 214H34.3369ZM42.6152 216.857V206.357H43.8047V207.581H43.9414C44.1943 207.178 44.666 206.262 46.1562 206.262C48.0635 206.262 49.3965 207.779 49.3965 210.199C49.3965 212.633 48.0703 214.164 46.1631 214.164C44.707 214.164 44.1943 213.241 43.9414 212.817H43.8457V216.857H42.6152ZM45.9785 213.063C47.4072 213.063 48.1455 211.792 48.1455 210.186C48.1455 208.6 47.4277 207.362 45.9785 207.362C44.5703 207.362 43.832 208.497 43.832 210.186C43.832 211.888 44.5908 213.063 45.9785 213.063ZM52.9033 214.055C51.7549 214.055 51.1875 213.412 51.1875 212.305V203.814H52.418V211.997C52.418 212.701 52.541 212.954 53.0537 212.954C53.3203 212.954 53.4297 212.934 53.5459 212.899L53.792 213.938C53.5732 214 53.2314 214.055 52.9033 214.055ZM57.1826 214.178C55.7334 214.178 54.5781 213.33 54.5781 211.826C54.5781 210.076 56.1367 209.755 57.5518 209.577C58.9121 209.406 59.5137 209.447 59.5137 208.88V208.839C59.5137 207.889 58.9736 207.342 57.9141 207.342C56.8135 207.342 56.2188 207.93 55.9795 208.463L54.7969 208.073C55.3848 206.686 56.6973 206.262 57.8799 206.262C58.9053 206.262 60.7441 206.576 60.7441 208.962V214H59.5342V212.961H59.4521C59.1924 213.501 58.4746 214.178 57.1826 214.178ZM57.3945 213.091C58.7549 213.091 59.5137 212.175 59.5137 211.238V210.179C59.3086 210.418 57.9688 210.555 57.4971 210.616C56.6016 210.732 55.8154 211.02 55.8154 211.888C55.8154 212.681 56.4785 213.091 57.3945 213.091ZM62.9043 214V206.357H64.1348V214H62.9043ZM63.5264 205.106C63.0615 205.106 62.6719 204.744 62.6719 204.293C62.6719 203.842 63.0615 203.479 63.5264 203.479C63.998 203.479 64.3877 203.842 64.3877 204.293C64.3877 204.744 63.998 205.106 63.5264 205.106ZM67.5254 209.42V214H66.2949V206.357H67.4775L67.4844 208.21H67.3135C67.7783 206.802 68.667 206.262 69.8223 206.262C71.3672 206.262 72.4131 207.212 72.4131 209.146V214H71.1758V209.249C71.1758 208.073 70.5195 207.369 69.4531 207.369C68.3525 207.369 67.5254 208.114 67.5254 209.42Z" fill="#333238"/>
<path d="M78.457 209.998V209.26L83.9883 206.471V207.619L79.7812 209.617L79.8164 209.547V209.711L79.7812 209.652L83.9883 211.65V212.787L78.457 209.998ZM89.8535 214.141C87.7852 214.141 86.4375 212.828 86.4375 211.029V205.27H87.5508V210.941C87.5508 212.195 88.4238 213.109 89.8535 213.109C91.2773 213.109 92.1445 212.195 92.1445 210.941V205.27H93.2578V211.029C93.2578 212.828 91.9102 214.141 89.8535 214.141ZM95.3672 214V205.27H98.3555C100.395 205.27 101.332 206.406 101.332 207.965C101.332 209.523 100.395 210.613 98.3613 210.613H95.9883V209.623H98.3086C99.6855 209.623 100.225 208.99 100.225 207.965C100.225 206.928 99.6855 206.248 98.2969 206.248H96.4805V214H95.3672ZM100.383 214L98.2734 210.068H99.5273L101.672 214H100.383ZM103.09 214V205.27H104.203V213.016H108.246V214H103.09ZM115.74 209.998L110.209 212.787V211.65L114.422 209.652L114.381 209.711V209.547L114.422 209.617L110.209 207.619V206.471L115.74 209.26V209.998Z" fill="#737278"/>
<path d="M22.0547 229V220.27H27.375V221.254H23.168V224.102H27.0879V225.086H23.168V228.016H27.4277V229H22.0547ZM28.5996 229L31.1836 225.232L31.1777 226.041L28.7344 222.449H29.9648L30.7793 223.721C31.2012 224.377 31.4766 224.939 31.8047 225.467H31.2539C31.5879 224.939 31.8164 224.377 32.2441 223.721L33.0762 222.449H34.2832L31.8281 226.088V225.309L34.3887 229H33.1641L32.2031 227.529C31.7871 226.891 31.5234 226.352 31.2012 225.842H31.7578C31.4355 226.352 31.2129 226.891 30.791 227.529L29.8184 229H28.5996ZM35.6953 231.449V222.449H36.7148V223.498H36.832C37.0488 223.152 37.4531 222.367 38.7305 222.367C40.3652 222.367 41.5078 223.668 41.5078 225.742C41.5078 227.828 40.3711 229.141 38.7363 229.141C37.4883 229.141 37.0488 228.35 36.832 227.986H36.75V231.449H35.6953ZM38.5781 228.197C39.8027 228.197 40.4355 227.107 40.4355 225.73C40.4355 224.371 39.8203 223.311 38.5781 223.311C37.3711 223.311 36.7383 224.283 36.7383 225.73C36.7383 227.189 37.3887 228.197 38.5781 228.197ZM44.5137 229.047C43.5293 229.047 43.043 228.496 43.043 227.547V220.27H44.0977V227.283C44.0977 227.887 44.2031 228.104 44.6426 228.104C44.8711 228.104 44.9648 228.086 45.0645 228.057L45.2754 228.947C45.0879 229 44.7949 229.047 44.5137 229.047ZM48.1816 229.152C46.9395 229.152 45.9492 228.426 45.9492 227.137C45.9492 225.637 47.2852 225.361 48.498 225.209C49.6641 225.062 50.1797 225.098 50.1797 224.611V224.576C50.1797 223.762 49.7168 223.293 48.8086 223.293C47.8652 223.293 47.3555 223.797 47.1504 224.254L46.1367 223.92C46.6406 222.73 47.7656 222.367 48.7793 222.367C49.6582 222.367 51.2344 222.637 51.2344 224.682V229H50.1973V228.109H50.127C49.9043 228.572 49.2891 229.152 48.1816 229.152ZM48.3633 228.221C49.5293 228.221 50.1797 227.436 50.1797 226.633V225.725C50.0039 225.93 48.8555 226.047 48.4512 226.1C47.6836 226.199 47.0098 226.445 47.0098 227.189C47.0098 227.869 47.5781 228.221 48.3633 228.221ZM53.0859 229V222.449H54.1406V229H53.0859ZM53.6191 221.377C53.2207 221.377 52.8867 221.066 52.8867 220.68C52.8867 220.293 53.2207 219.982 53.6191 219.982C54.0234 219.982 54.3574 220.293 54.3574 220.68C54.3574 221.066 54.0234 221.377 53.6191 221.377ZM57.0469 225.074V229H55.9922V222.449H57.0059L57.0117 224.037H56.8652C57.2637 222.83 58.0254 222.367 59.0156 222.367C60.3398 222.367 61.2363 223.182 61.2363 224.84V229H60.1758V224.928C60.1758 223.92 59.6133 223.316 58.6992 223.316C57.7559 223.316 57.0469 223.955 57.0469 225.074ZM69.1348 229.141C67.3535 229.141 66.1523 227.787 66.1523 225.766C66.1523 223.715 67.3535 222.367 69.1348 222.367C70.4004 222.367 71.4316 223.035 71.7891 224.178L70.7754 224.465C70.582 223.791 69.9961 223.311 69.1348 223.311C67.8281 223.311 67.2246 224.459 67.2246 225.766C67.2246 227.055 67.8281 228.197 69.1348 228.197C70.0137 228.197 70.6113 227.699 70.8047 226.99L71.8125 227.277C71.4609 228.443 70.418 229.141 69.1348 229.141ZM75.9902 229.141C74.209 229.141 73.0078 227.787 73.0078 225.766C73.0078 223.715 74.209 222.367 75.9902 222.367C77.7773 222.367 78.9844 223.715 78.9844 225.766C78.9844 227.787 77.7773 229.141 75.9902 229.141ZM75.9902 228.197C77.3145 228.197 77.918 227.055 77.918 225.766C77.918 224.465 77.3145 223.311 75.9902 223.311C74.6836 223.311 74.0801 224.459 74.0801 225.766C74.0801 227.055 74.6836 228.197 75.9902 228.197ZM82.9746 229.141C81.3398 229.141 80.2031 227.828 80.2031 225.742C80.2031 223.668 81.3457 222.367 82.9805 222.367C84.2578 222.367 84.6621 223.152 84.8789 223.498H84.9609V220.27H86.0156V229H84.9961V227.986H84.8789C84.6621 228.35 84.2227 229.141 82.9746 229.141ZM83.1328 228.197C84.3223 228.197 84.9727 227.189 84.9727 225.73C84.9727 224.283 84.3398 223.311 83.1328 223.311C81.8906 223.311 81.2754 224.371 81.2754 225.73C81.2754 227.107 81.9082 228.197 83.1328 228.197ZM90.6211 229.141C88.7227 229.141 87.5508 227.793 87.5508 225.777C87.5508 223.768 88.7109 222.367 90.498 222.367C91.8867 222.367 93.3516 223.223 93.3516 225.643V226.082H88.2656V225.191H92.7832L92.291 225.52C92.291 224.23 91.6816 223.305 90.498 223.305C89.3145 223.305 88.6172 224.283 88.6172 225.35V225.941C88.6172 227.4 89.4258 228.203 90.627 228.203C91.4004 228.203 91.9805 227.863 92.2266 227.195L93.2461 227.477C92.9414 228.467 91.9629 229.141 90.6211 229.141ZM100.904 229.141C99.123 229.141 97.9219 227.787 97.9219 225.766C97.9219 223.715 99.123 222.367 100.904 222.367C102.691 222.367 103.898 223.715 103.898 225.766C103.898 227.787 102.691 229.141 100.904 229.141ZM100.904 228.197C102.229 228.197 102.832 227.055 102.832 225.766C102.832 224.465 102.229 223.311 100.904 223.311C99.5977 223.311 98.9941 224.459 98.9941 225.766C98.9941 227.055 99.5977 228.197 100.904 228.197ZM105.434 229V222.449H106.453V223.457H106.523C106.764 222.795 107.443 222.355 108.223 222.355C108.375 222.355 108.633 222.367 108.756 222.373V223.434C108.691 223.422 108.404 223.375 108.123 223.375C107.18 223.375 106.488 224.014 106.488 224.898V229H105.434ZM115.225 229L112.723 222.449H113.877L115.271 226.334C115.564 227.143 115.746 227.951 115.975 228.701H115.588C115.816 227.951 115.992 227.143 116.285 226.334L117.68 222.449H118.834L116.332 229H115.225ZM122.303 229.082C120.979 229.082 120.082 228.268 120.082 226.609V222.449H121.137V226.521C121.137 227.529 121.705 228.133 122.619 228.133C123.557 228.133 124.266 227.494 124.266 226.375V222.449H125.326V229H124.307V227.412H124.447C124.043 228.643 123.264 229.082 122.303 229.082ZM128.654 229.047C127.67 229.047 127.184 228.496 127.184 227.547V220.27H128.238V227.283C128.238 227.887 128.344 228.104 128.783 228.104C129.012 228.104 129.105 228.086 129.205 228.057L129.416 228.947C129.229 229 128.936 229.047 128.654 229.047ZM131.543 225.074V229H130.488V222.449H131.502L131.508 224.037H131.361C131.76 222.83 132.521 222.367 133.512 222.367C134.836 222.367 135.732 223.182 135.732 224.84V229H134.672V224.928C134.672 223.92 134.109 223.316 133.195 223.316C132.252 223.316 131.543 223.955 131.543 225.074ZM140.344 229.141C138.445 229.141 137.273 227.793 137.273 225.777C137.273 223.768 138.434 222.367 140.221 222.367C141.609 222.367 143.074 223.223 143.074 225.643V226.082H137.988V225.191H142.506L142.014 225.52C142.014 224.23 141.404 223.305 140.221 223.305C139.037 223.305 138.34 224.283 138.34 225.35V225.941C138.34 227.4 139.148 228.203 140.35 228.203C141.123 228.203 141.703 227.863 141.949 227.195L142.969 227.477C142.664 228.467 141.686 229.141 140.344 229.141ZM144.586 229V222.449H145.605V223.457H145.676C145.916 222.795 146.596 222.355 147.375 222.355C147.527 222.355 147.785 222.367 147.908 222.373V223.434C147.844 223.422 147.557 223.375 147.275 223.375C146.332 223.375 145.641 224.014 145.641 224.898V229H144.586ZM150.943 229.152C149.701 229.152 148.711 228.426 148.711 227.137C148.711 225.637 150.047 225.361 151.26 225.209C152.426 225.062 152.941 225.098 152.941 224.611V224.576C152.941 223.762 152.479 223.293 151.57 223.293C150.627 223.293 150.117 223.797 149.912 224.254L148.898 223.92C149.402 222.73 150.527 222.367 151.541 222.367C152.42 222.367 153.996 222.637 153.996 224.682V229H152.959V228.109H152.889C152.666 228.572 152.051 229.152 150.943 229.152ZM151.125 228.221C152.291 228.221 152.941 227.436 152.941 226.633V225.725C152.766 225.93 151.617 226.047 151.213 226.1C150.445 226.199 149.771 226.445 149.771 227.189C149.771 227.869 150.34 228.221 151.125 228.221ZM158.889 229.141C157.641 229.141 157.201 228.35 156.984 227.986H156.867V229H155.848V220.27H156.902V223.498H156.984C157.201 223.152 157.605 222.367 158.883 222.367C160.518 222.367 161.66 223.668 161.66 225.742C161.66 227.828 160.523 229.141 158.889 229.141ZM158.73 228.197C159.955 228.197 160.588 227.107 160.588 225.73C160.588 224.371 159.973 223.311 158.73 223.311C157.523 223.311 156.891 224.283 156.891 225.73C156.891 227.189 157.541 228.197 158.73 228.197ZM163.195 229V222.449H164.25V229H163.195ZM163.729 221.377C163.33 221.377 162.996 221.066 162.996 220.68C162.996 220.293 163.33 219.982 163.729 219.982C164.133 219.982 164.467 220.293 164.467 220.68C164.467 221.066 164.133 221.377 163.729 221.377ZM167.572 229.047C166.588 229.047 166.102 228.496 166.102 227.547V220.27H167.156V227.283C167.156 227.887 167.262 228.104 167.701 228.104C167.93 228.104 168.023 228.086 168.123 228.057L168.334 228.947C168.146 229 167.854 229.047 167.572 229.047ZM169.406 229V222.449H170.461V229H169.406ZM169.939 221.377C169.541 221.377 169.207 221.066 169.207 220.68C169.207 220.293 169.541 219.982 169.939 219.982C170.344 219.982 170.678 220.293 170.678 220.68C170.678 221.066 170.344 221.377 169.939 221.377ZM174.891 222.449V223.352H171.504V222.449H174.891ZM172.488 220.891H173.543V227.301C173.543 227.887 173.76 228.145 174.316 228.145C174.451 228.145 174.68 228.109 174.855 228.074L175.072 228.965C174.855 229.041 174.557 229.082 174.287 229.082C173.156 229.082 172.488 228.455 172.488 227.383V220.891ZM176.238 229V222.449H177.293V229H176.238ZM176.771 221.377C176.373 221.377 176.039 221.066 176.039 220.68C176.039 220.293 176.373 219.982 176.771 219.982C177.176 219.982 177.51 220.293 177.51 220.68C177.51 221.066 177.176 221.377 176.771 221.377ZM181.898 229.141C180 229.141 178.828 227.793 178.828 225.777C178.828 223.768 179.988 222.367 181.775 222.367C183.164 222.367 184.629 223.223 184.629 225.643V226.082H179.543V225.191H184.061L183.568 225.52C183.568 224.23 182.959 223.305 181.775 223.305C180.592 223.305 179.895 224.283 179.895 225.35V225.941C179.895 227.4 180.703 228.203 181.904 228.203C182.678 228.203 183.258 227.863 183.504 227.195L184.523 227.477C184.219 228.467 183.24 229.141 181.898 229.141ZM188.367 229.141C187.02 229.141 186.082 228.543 185.848 227.412L186.85 227.172C187.037 227.893 187.57 228.215 188.355 228.215C189.27 228.215 189.855 227.764 189.855 227.225C189.855 226.773 189.539 226.475 188.895 226.322L187.805 226.064C186.615 225.783 186.047 225.197 186.047 224.277C186.047 223.152 187.078 222.367 188.473 222.367C189.82 222.367 190.529 223.023 190.828 223.943L189.873 224.189C189.691 223.721 189.322 223.264 188.479 223.264C187.699 223.264 187.113 223.668 187.113 224.213C187.113 224.699 187.447 224.969 188.215 225.15L189.205 225.385C190.395 225.666 190.951 226.258 190.951 227.154C190.951 228.303 189.902 229.141 188.367 229.141Z" fill="#737278"/>
<rect width="326" height="30" transform="translate(9 243)" fill="white"/>
<path d="M25.6582 263.117C23.1973 263.117 21.5273 261.412 21.5273 258.652C21.5273 255.816 23.3145 254.152 25.623 254.152C27.5977 254.152 29.1211 255.365 29.3555 257.094H27.4629C27.2344 256.291 26.5957 255.805 25.6523 255.805C24.3281 255.805 23.4258 256.824 23.4258 258.629C23.4258 260.439 24.293 261.471 25.6758 261.471C26.9121 261.471 27.6387 260.773 27.6387 259.672L28.0195 259.725H25.7871V258.324H29.4492V259.426C29.4492 261.729 27.8613 263.117 25.6582 263.117ZM30.7383 263V256.449H32.5723V263H30.7383ZM31.6523 255.623C31.1133 255.623 30.668 255.207 30.668 254.697C30.668 254.182 31.1133 253.771 31.6523 253.771C32.1973 253.771 32.6484 254.182 32.6484 254.697C32.6484 255.207 32.1973 255.623 31.6523 255.623ZM37.3594 256.449V257.838H33.4219V256.449H37.3594ZM34.3125 254.891H36.1465V261.061C36.1465 261.459 36.3164 261.646 36.7266 261.646C36.8613 261.646 37.1602 261.6 37.2832 261.57L37.541 262.936C37.1309 263.053 36.7266 263.094 36.3633 263.094C35.0273 263.094 34.3125 262.438 34.3125 261.225V254.891ZM38.5137 263V254.27H40.3828V261.465H44.1152V263H38.5137ZM47.0977 263.129C45.8496 263.129 44.9297 262.473 44.9297 261.172C44.9297 259.713 46.0898 259.273 47.3906 259.15C48.5098 259.045 48.9668 258.992 48.9668 258.57V258.541C48.9668 258.014 48.6094 257.709 47.9766 257.709C47.332 257.709 46.9219 258.025 46.793 258.447L45.1172 258.184C45.4219 257.053 46.4766 256.367 47.9883 256.367C49.4531 256.367 50.8008 257.041 50.8008 258.582V263H49.0664V262.092H49.0078C48.6797 262.719 48.0527 263.129 47.0977 263.129ZM47.6309 261.863C48.416 261.863 48.9785 261.342 48.9785 260.662V259.977C48.7617 260.117 48.1113 260.211 47.7305 260.27C47.0918 260.357 46.6816 260.615 46.6816 261.113C46.6816 261.605 47.0742 261.863 47.6309 261.863ZM56.0039 263.105C54.9551 263.105 54.4043 262.496 54.1523 261.951H54.0703V263H52.2656V254.27H54.0996V257.562H54.1523C54.3926 257.023 54.9258 256.367 56.0156 256.367C57.4512 256.367 58.6641 257.486 58.6641 259.736C58.6641 261.928 57.498 263.105 56.0039 263.105ZM55.4238 261.646C56.3027 261.646 56.7773 260.861 56.7773 259.73C56.7773 258.605 56.3086 257.832 55.4238 257.832C54.5508 257.832 54.0586 258.57 54.0586 259.73C54.0586 260.885 54.5625 261.646 55.4238 261.646ZM65.7891 263H63.5098V261.4H65.7012C67.3301 261.4 68.1973 260.574 68.1973 258.635C68.1973 256.695 67.3301 255.875 65.7012 255.875H63.4688V254.27H65.8125C68.4434 254.27 70.0547 255.91 70.0547 258.635C70.0547 261.359 68.4434 263 65.7891 263ZM64.5469 254.27V263H62.6777V254.27H64.5469ZM73.582 263.082C72.2168 263.082 71.3203 262.139 71.3203 260.621V256.449H73.1543V260.287C73.1543 261.084 73.5879 261.559 74.3086 261.559C75.0352 261.559 75.5391 261.066 75.5391 260.229V256.449H77.3789V263H75.6445L75.6152 261.359H75.7148C75.375 262.449 74.6836 263.082 73.582 263.082ZM81.791 263.129C79.7988 263.129 78.5625 261.77 78.5625 259.754C78.5625 257.727 79.7988 256.367 81.791 256.367C83.7832 256.367 85.0195 257.727 85.0195 259.754C85.0195 261.77 83.7832 263.129 81.791 263.129ZM81.791 261.699C82.6875 261.699 83.1504 260.879 83.1504 259.748C83.1504 258.605 82.6875 257.803 81.791 257.803C80.9004 257.803 80.4375 258.605 80.4375 259.748C80.4375 260.879 80.9004 261.699 81.791 261.699ZM92.8828 263.117C90.5449 263.117 88.8047 261.488 88.8047 258.641C88.8047 255.781 90.5742 254.152 92.8828 254.152C94.8926 254.152 96.4102 255.301 96.668 257.281H94.7754C94.623 256.361 93.9023 255.805 92.9238 255.805C91.582 255.805 90.7031 256.836 90.7031 258.641C90.7031 260.498 91.5938 261.471 92.918 261.471C93.8906 261.471 94.6172 260.914 94.7871 259.988H96.6738C96.4805 261.594 95.1328 263.117 92.8828 263.117ZM99.7324 259.227V263H97.8984V254.27H99.6973V258.09H99.5566C99.8965 257.018 100.576 256.367 101.695 256.367C103.061 256.367 103.957 257.316 103.957 258.834V263H102.117V259.168C102.117 258.371 101.684 257.896 100.963 257.896C100.236 257.896 99.7324 258.389 99.7324 259.227ZM107.238 263.129C105.99 263.129 105.07 262.473 105.07 261.172C105.07 259.713 106.23 259.273 107.531 259.15C108.65 259.045 109.107 258.992 109.107 258.57V258.541C109.107 258.014 108.75 257.709 108.117 257.709C107.473 257.709 107.062 258.025 106.934 258.447L105.258 258.184C105.562 257.053 106.617 256.367 108.129 256.367C109.594 256.367 110.941 257.041 110.941 258.582V263H109.207V262.092H109.148C108.82 262.719 108.193 263.129 107.238 263.129ZM107.771 261.863C108.557 261.863 109.119 261.342 109.119 260.662V259.977C108.902 260.117 108.252 260.211 107.871 260.27C107.232 260.357 106.822 260.615 106.822 261.113C106.822 261.605 107.215 261.863 107.771 261.863ZM115.734 256.449V257.838H111.797V256.449H115.734ZM112.688 254.891H114.521V261.061C114.521 261.459 114.691 261.646 115.102 261.646C115.236 261.646 115.535 261.6 115.658 261.57L115.916 262.936C115.506 263.053 115.102 263.094 114.738 263.094C113.402 263.094 112.688 262.438 112.688 261.225V254.891Z" fill="#333238"/>
<rect x="9" y="275" width="326" height="48" rx="4" fill="white"/>
<path d="M25.7305 285.336L22.4492 297.531H21.3145L24.5957 285.336H25.7305ZM28.3555 291.42V296H27.125V285.814H28.3555V290.21H28.1436C28.6084 288.802 29.4971 288.262 30.6523 288.262C32.1973 288.262 33.2432 289.212 33.2432 291.146V296H32.0059V291.249C32.0059 290.073 31.3496 289.369 30.2832 289.369C29.1826 289.369 28.3555 290.114 28.3555 291.42ZM38.623 296.164C36.4082 296.164 35.041 294.592 35.041 292.24C35.041 289.896 36.3945 288.262 38.4795 288.262C40.0996 288.262 41.8086 289.26 41.8086 292.083V292.596H35.875V291.557H41.1455L40.5713 291.939C40.5713 290.436 39.8604 289.355 38.4795 289.355C37.0986 289.355 36.2852 290.497 36.2852 291.741V292.432C36.2852 294.134 37.2285 295.07 38.6299 295.07C39.5322 295.07 40.209 294.674 40.4961 293.895L41.6855 294.223C41.3301 295.378 40.1885 296.164 38.623 296.164ZM45.2881 296.055C44.1396 296.055 43.5723 295.412 43.5723 294.305V285.814H44.8027V293.997C44.8027 294.701 44.9258 294.954 45.4385 294.954C45.7051 294.954 45.8145 294.934 45.9307 294.899L46.1768 295.938C45.958 296 45.6162 296.055 45.2881 296.055ZM47.4277 298.857V288.357H48.6172V289.581H48.7539C49.0068 289.178 49.4785 288.262 50.9688 288.262C52.876 288.262 54.209 289.779 54.209 292.199C54.209 294.633 52.8828 296.164 50.9756 296.164C49.5195 296.164 49.0068 295.241 48.7539 294.817H48.6582V298.857H47.4277ZM50.791 295.063C52.2197 295.063 52.958 293.792 52.958 292.186C52.958 290.6 52.2402 289.362 50.791 289.362C49.3828 289.362 48.6445 290.497 48.6445 292.186C48.6445 293.888 49.4033 295.063 50.791 295.063Z" fill="#333238"/>
<path d="M22.0547 311V302.27H23.168V310.016H27.2109V311H22.0547ZM31.4648 311.141C29.5664 311.141 28.3945 309.793 28.3945 307.777C28.3945 305.768 29.5547 304.367 31.3418 304.367C32.7305 304.367 34.1953 305.223 34.1953 307.643V308.082H29.1094V307.191H33.627L33.1348 307.52C33.1348 306.23 32.5254 305.305 31.3418 305.305C30.1582 305.305 29.4609 306.283 29.4609 307.35V307.941C29.4609 309.4 30.2695 310.203 31.4707 310.203C32.2441 310.203 32.8242 309.863 33.0703 309.195L34.0898 309.477C33.7852 310.467 32.8066 311.141 31.4648 311.141ZM37.6582 311.152C36.416 311.152 35.4258 310.426 35.4258 309.137C35.4258 307.637 36.7617 307.361 37.9746 307.209C39.1406 307.062 39.6562 307.098 39.6562 306.611V306.576C39.6562 305.762 39.1934 305.293 38.2852 305.293C37.3418 305.293 36.832 305.797 36.627 306.254L35.6133 305.92C36.1172 304.73 37.2422 304.367 38.2559 304.367C39.1348 304.367 40.7109 304.637 40.7109 306.682V311H39.6738V310.109H39.6035C39.3809 310.572 38.7656 311.152 37.6582 311.152ZM37.8398 310.221C39.0059 310.221 39.6562 309.436 39.6562 308.633V307.725C39.4805 307.93 38.332 308.047 37.9277 308.1C37.1602 308.199 36.4863 308.445 36.4863 309.189C36.4863 309.869 37.0547 310.221 37.8398 310.221ZM42.5625 311V304.449H43.582V305.457H43.6523C43.8926 304.795 44.5723 304.355 45.3516 304.355C45.5039 304.355 45.7617 304.367 45.8848 304.373V305.434C45.8203 305.422 45.5332 305.375 45.252 305.375C44.3086 305.375 43.6172 306.014 43.6172 306.898V311H42.5625ZM48.3281 307.074V311H47.2734V304.449H48.2871L48.293 306.037H48.1465C48.5449 304.83 49.3066 304.367 50.2969 304.367C51.6211 304.367 52.5176 305.182 52.5176 306.84V311H51.457V306.928C51.457 305.92 50.8945 305.316 49.9805 305.316C49.0371 305.316 48.3281 305.955 48.3281 307.074ZM59.2207 311L57.2344 304.449H58.3535L59.1504 307.309C59.3672 308.088 59.625 309.066 59.8711 310.314H59.6895C59.9238 309.119 60.1699 308.141 60.3984 307.309L61.1836 304.449H62.3086L63.082 307.309C63.2988 308.111 63.5449 309.09 63.7793 310.314H63.5918C63.8379 309.102 64.0898 308.129 64.3184 307.309L65.1152 304.449H66.2344L64.248 311H63.1992L62.3496 308.035C62.0918 307.139 61.8574 306.172 61.6172 305.152H61.8516C61.6172 306.16 61.3711 307.156 61.1191 308.035L60.2695 311H59.2207ZM68.625 307.074V311H67.5703V302.27H68.625V306.037H68.4434C68.8418 304.83 69.6035 304.367 70.5938 304.367C71.918 304.367 72.8145 305.182 72.8145 306.84V311H71.7539V306.928C71.7539 305.92 71.1914 305.316 70.2773 305.316C69.334 305.316 68.625 305.955 68.625 307.074ZM76.5059 311.152C75.2637 311.152 74.2734 310.426 74.2734 309.137C74.2734 307.637 75.6094 307.361 76.8223 307.209C77.9883 307.062 78.5039 307.098 78.5039 306.611V306.576C78.5039 305.762 78.041 305.293 77.1328 305.293C76.1895 305.293 75.6797 305.797 75.4746 306.254L74.4609 305.92C74.9648 304.73 76.0898 304.367 77.1035 304.367C77.9824 304.367 79.5586 304.637 79.5586 306.682V311H78.5215V310.109H78.4512C78.2285 310.572 77.6133 311.152 76.5059 311.152ZM76.6875 310.221C77.8535 310.221 78.5039 309.436 78.5039 308.633V307.725C78.3281 307.93 77.1797 308.047 76.7754 308.1C76.0078 308.199 75.334 308.445 75.334 309.189C75.334 309.869 75.9023 310.221 76.6875 310.221ZM83.9883 304.449V305.352H80.6016V304.449H83.9883ZM81.5859 302.891H82.6406V309.301C82.6406 309.887 82.8574 310.145 83.4141 310.145C83.5488 310.145 83.7773 310.109 83.9531 310.074L84.1699 310.965C83.9531 311.041 83.6543 311.082 83.3848 311.082C82.2539 311.082 81.5859 310.455 81.5859 309.383V302.891ZM92.4082 311.117C90.0762 311.117 88.5 309.4 88.5 306.641C88.5 303.869 90.0996 302.152 92.3379 302.152C94.1836 302.152 95.6074 303.312 95.9238 305.006H94.7754C94.418 303.887 93.5801 303.184 92.3438 303.184C90.8086 303.184 89.584 304.396 89.584 306.641C89.584 308.867 90.8027 310.086 92.4082 310.086C93.8848 310.086 94.8984 309.09 94.8984 307.52L95.2324 307.584H92.6367V306.611H95.9883V307.566C95.9883 309.734 94.4883 311.117 92.4082 311.117ZM97.6641 311V304.449H98.7188V311H97.6641ZM98.1973 303.377C97.7988 303.377 97.4648 303.066 97.4648 302.68C97.4648 302.293 97.7988 301.982 98.1973 301.982C98.6016 301.982 98.9355 302.293 98.9355 302.68C98.9355 303.066 98.6016 303.377 98.1973 303.377ZM103.148 304.449V305.352H99.7617V304.449H103.148ZM100.746 302.891H101.801V309.301C101.801 309.887 102.018 310.145 102.574 310.145C102.709 310.145 102.938 310.109 103.113 310.074L103.33 310.965C103.113 311.041 102.814 311.082 102.545 311.082C101.414 311.082 100.746 310.455 100.746 309.383V302.891ZM104.625 311V302.27H105.738V310.016H109.781V311H104.625ZM113.115 311.152C111.873 311.152 110.883 310.426 110.883 309.137C110.883 307.637 112.219 307.361 113.432 307.209C114.598 307.062 115.113 307.098 115.113 306.611V306.576C115.113 305.762 114.65 305.293 113.742 305.293C112.799 305.293 112.289 305.797 112.084 306.254L111.07 305.92C111.574 304.73 112.699 304.367 113.713 304.367C114.592 304.367 116.168 304.637 116.168 306.682V311H115.131V310.109H115.061C114.838 310.572 114.223 311.152 113.115 311.152ZM113.297 310.221C114.463 310.221 115.113 309.436 115.113 308.633V307.725C114.938 307.93 113.789 308.047 113.385 308.1C112.617 308.199 111.943 308.445 111.943 309.189C111.943 309.869 112.512 310.221 113.297 310.221ZM121.061 311.141C119.812 311.141 119.373 310.35 119.156 309.986H119.039V311H118.02V302.27H119.074V305.498H119.156C119.373 305.152 119.777 304.367 121.055 304.367C122.689 304.367 123.832 305.668 123.832 307.742C123.832 309.828 122.695 311.141 121.061 311.141ZM120.902 310.197C122.127 310.197 122.76 309.107 122.76 307.73C122.76 306.371 122.145 305.311 120.902 305.311C119.695 305.311 119.062 306.283 119.062 307.73C119.062 309.189 119.713 310.197 120.902 310.197ZM131.596 311H129.486V310.016H131.525C133.652 310.016 134.684 308.738 134.684 306.617C134.684 304.52 133.652 303.254 131.631 303.254H129.439V302.27H131.707C134.256 302.27 135.762 303.91 135.762 306.617C135.762 309.348 134.256 311 131.596 311ZM129.984 302.27V311H128.871V302.27H129.984ZM139.623 311.082C138.299 311.082 137.402 310.268 137.402 308.609V304.449H138.457V308.521C138.457 309.529 139.025 310.133 139.939 310.133C140.877 310.133 141.586 309.494 141.586 308.375V304.449H142.646V311H141.627V309.412H141.768C141.363 310.643 140.584 311.082 139.623 311.082ZM147.17 311.141C145.389 311.141 144.188 309.787 144.188 307.766C144.188 305.715 145.389 304.367 147.17 304.367C148.957 304.367 150.164 305.715 150.164 307.766C150.164 309.787 148.957 311.141 147.17 311.141ZM147.17 310.197C148.494 310.197 149.098 309.055 149.098 307.766C149.098 306.465 148.494 305.311 147.17 305.311C145.863 305.311 145.26 306.459 145.26 307.766C145.26 309.055 145.863 310.197 147.17 310.197ZM158.736 311.117C156.498 311.117 154.863 309.406 154.863 306.641C154.863 303.869 156.498 302.152 158.736 302.152C160.506 302.152 161.947 303.219 162.258 305.018H161.145C160.898 303.822 159.873 303.184 158.736 303.184C157.166 303.184 155.947 304.402 155.947 306.641C155.947 308.873 157.172 310.086 158.736 310.086C159.879 310.086 160.898 309.441 161.145 308.252H162.258C161.953 310.027 160.523 311.117 158.736 311.117ZM164.895 307.074V311H163.84V302.27H164.895V306.037H164.713C165.111 304.83 165.873 304.367 166.863 304.367C168.188 304.367 169.084 305.182 169.084 306.84V311H168.023V306.928C168.023 305.92 167.461 305.316 166.547 305.316C165.604 305.316 164.895 305.955 164.895 307.074ZM172.775 311.152C171.533 311.152 170.543 310.426 170.543 309.137C170.543 307.637 171.879 307.361 173.092 307.209C174.258 307.062 174.773 307.098 174.773 306.611V306.576C174.773 305.762 174.311 305.293 173.402 305.293C172.459 305.293 171.949 305.797 171.744 306.254L170.73 305.92C171.234 304.73 172.359 304.367 173.373 304.367C174.252 304.367 175.828 304.637 175.828 306.682V311H174.791V310.109H174.721C174.498 310.572 173.883 311.152 172.775 311.152ZM172.957 310.221C174.123 310.221 174.773 309.436 174.773 308.633V307.725C174.598 307.93 173.449 308.047 173.045 308.1C172.277 308.199 171.604 308.445 171.604 309.189C171.604 309.869 172.172 310.221 172.957 310.221ZM180.258 304.449V305.352H176.871V304.449H180.258ZM177.855 302.891H178.91V309.301C178.91 309.887 179.127 310.145 179.684 310.145C179.818 310.145 180.047 310.109 180.223 310.074L180.439 310.965C180.223 311.041 179.924 311.082 179.654 311.082C178.523 311.082 177.855 310.455 177.855 309.383V302.891ZM187.646 311.141C185.865 311.141 184.664 309.787 184.664 307.766C184.664 305.715 185.865 304.367 187.646 304.367C188.912 304.367 189.943 305.035 190.301 306.178L189.287 306.465C189.094 305.791 188.508 305.311 187.646 305.311C186.34 305.311 185.736 306.459 185.736 307.766C185.736 309.055 186.34 310.197 187.646 310.197C188.525 310.197 189.123 309.699 189.316 308.99L190.324 309.277C189.973 310.443 188.93 311.141 187.646 311.141ZM193.787 311.152C192.545 311.152 191.555 310.426 191.555 309.137C191.555 307.637 192.891 307.361 194.104 307.209C195.27 307.062 195.785 307.098 195.785 306.611V306.576C195.785 305.762 195.322 305.293 194.414 305.293C193.471 305.293 192.961 305.797 192.756 306.254L191.742 305.92C192.246 304.73 193.371 304.367 194.385 304.367C195.264 304.367 196.84 304.637 196.84 306.682V311H195.803V310.109H195.732C195.51 310.572 194.895 311.152 193.787 311.152ZM193.969 310.221C195.135 310.221 195.785 309.436 195.785 308.633V307.725C195.609 307.93 194.461 308.047 194.057 308.1C193.289 308.199 192.615 308.445 192.615 309.189C192.615 309.869 193.184 310.221 193.969 310.221ZM199.746 307.074V311H198.691V304.449H199.705L199.711 306.037H199.564C199.963 304.83 200.725 304.367 201.715 304.367C203.039 304.367 203.936 305.182 203.936 306.84V311H202.875V306.928C202.875 305.92 202.312 305.316 201.398 305.316C200.455 305.316 199.746 305.955 199.746 307.074ZM211.623 311.141C209.988 311.141 208.852 309.828 208.852 307.742C208.852 305.668 209.994 304.367 211.629 304.367C212.906 304.367 213.311 305.152 213.527 305.498H213.609V302.27H214.664V311H213.645V309.986H213.527C213.311 310.35 212.871 311.141 211.623 311.141ZM211.781 310.197C212.971 310.197 213.621 309.189 213.621 307.73C213.621 306.283 212.988 305.311 211.781 305.311C210.539 305.311 209.924 306.371 209.924 307.73C209.924 309.107 210.557 310.197 211.781 310.197ZM219.182 311.141C217.4 311.141 216.199 309.787 216.199 307.766C216.199 305.715 217.4 304.367 219.182 304.367C220.969 304.367 222.176 305.715 222.176 307.766C222.176 309.787 220.969 311.141 219.182 311.141ZM219.182 310.197C220.506 310.197 221.109 309.055 221.109 307.766C221.109 306.465 220.506 305.311 219.182 305.311C217.875 305.311 217.271 306.459 217.271 307.766C217.271 309.055 217.875 310.197 219.182 310.197Z" fill="#737278"/>
<rect x="9" y="325" width="326" height="48" rx="4" fill="white"/>
<path d="M25.7305 335.336L22.4492 347.531H21.3145L24.5957 335.336H25.7305ZM28.3555 341.42V346H27.125V338.357H28.3076L28.3145 340.21H28.1436C28.6084 338.802 29.4971 338.262 30.6523 338.262C32.1973 338.262 33.2432 339.212 33.2432 341.146V346H32.0059V341.249C32.0059 340.073 31.3496 339.369 30.2832 339.369C29.1826 339.369 28.3555 340.114 28.3555 341.42ZM38.623 346.164C36.4082 346.164 35.041 344.592 35.041 342.24C35.041 339.896 36.3945 338.262 38.4795 338.262C40.0996 338.262 41.8086 339.26 41.8086 342.083V342.596H35.875V341.557H41.1455L40.5713 341.939C40.5713 340.436 39.8604 339.355 38.4795 339.355C37.0986 339.355 36.2852 340.497 36.2852 341.741V342.432C36.2852 344.134 37.2285 345.07 38.6299 345.07C39.5322 345.07 40.209 344.674 40.4961 343.895L41.6855 344.223C41.3301 345.378 40.1885 346.164 38.623 346.164ZM45.0283 346L42.7109 338.357H44.0166L44.9463 341.693C45.1992 342.603 45.5 343.744 45.7871 345.2H45.5752C45.8486 343.806 46.1357 342.664 46.4023 341.693L47.3184 338.357H48.6309L49.5332 341.693C49.7861 342.63 50.0732 343.771 50.3467 345.2H50.1279C50.415 343.785 50.709 342.65 50.9756 341.693L51.9053 338.357H53.2109L50.8936 346H49.6699L48.6787 342.541C48.3779 341.495 48.1045 340.367 47.8242 339.178H48.0977C47.8242 340.354 47.5371 341.516 47.2432 342.541L46.252 346H45.0283ZM60.0742 346V347.135H53.6895V346H60.0742ZM64.2646 346.164C62.1865 346.164 60.7852 344.585 60.7852 342.227C60.7852 339.834 62.1865 338.262 64.2646 338.262C65.7412 338.262 66.9443 339.041 67.3613 340.374L66.1787 340.709C65.9531 339.923 65.2695 339.362 64.2646 339.362C62.7402 339.362 62.0361 340.702 62.0361 342.227C62.0361 343.73 62.7402 345.063 64.2646 345.063C65.29 345.063 65.9873 344.482 66.2129 343.655L67.3887 343.99C66.9785 345.351 65.7617 346.164 64.2646 346.164ZM70.3828 341.42V346H69.1523V335.814H70.3828V340.21H70.1709C70.6357 338.802 71.5244 338.262 72.6797 338.262C74.2246 338.262 75.2705 339.212 75.2705 341.146V346H74.0332V341.249C74.0332 340.073 73.377 339.369 72.3105 339.369C71.21 339.369 70.3828 340.114 70.3828 341.42ZM79.5771 346.178C78.1279 346.178 76.9727 345.33 76.9727 343.826C76.9727 342.076 78.5312 341.755 79.9463 341.577C81.3066 341.406 81.9082 341.447 81.9082 340.88V340.839C81.9082 339.889 81.3682 339.342 80.3086 339.342C79.208 339.342 78.6133 339.93 78.374 340.463L77.1914 340.073C77.7793 338.686 79.0918 338.262 80.2744 338.262C81.2998 338.262 83.1387 338.576 83.1387 340.962V346H81.9287V344.961H81.8467C81.5869 345.501 80.8691 346.178 79.5771 346.178ZM79.7891 345.091C81.1494 345.091 81.9082 344.175 81.9082 343.238V342.179C81.7031 342.418 80.3633 342.555 79.8916 342.616C78.9961 342.732 78.21 343.02 78.21 343.888C78.21 344.681 78.873 345.091 79.7891 345.091ZM88.3066 338.357V339.41H84.3555V338.357H88.3066ZM85.5039 336.539H86.7344V344.018C86.7344 344.701 86.9873 345.002 87.6367 345.002C87.7939 345.002 88.0605 344.961 88.2656 344.92L88.5186 345.959C88.2656 346.048 87.917 346.096 87.6025 346.096C86.2832 346.096 85.5039 345.364 85.5039 344.113V336.539Z" fill="#333238"/>
<path d="M24.8496 361.152C22.957 361.152 21.7793 360.18 21.6797 358.715H22.8223C22.9102 359.705 23.8242 360.156 24.8496 360.156C26.0332 360.156 26.9355 359.535 26.9355 358.604C26.9355 357.76 26.1387 357.449 25.207 357.186L24.1523 356.887C22.7461 356.488 21.9258 355.768 21.9258 354.607C21.9258 353.131 23.2383 352.152 24.9258 352.152C26.6484 352.152 27.8496 353.154 27.9023 354.473H26.8125C26.7129 353.623 25.9277 353.137 24.8906 353.137C23.7598 353.137 23.0098 353.734 23.0098 354.555C23.0098 355.469 24.0352 355.791 24.6738 355.967L25.5469 356.207C26.4844 356.465 28.0195 356.992 28.0195 358.621C28.0195 360.051 26.8652 361.152 24.8496 361.152ZM32.2031 354.449V355.352H28.8164V354.449H32.2031ZM29.8008 352.891H30.8555V359.301C30.8555 359.887 31.0723 360.145 31.6289 360.145C31.7637 360.145 31.9922 360.109 32.168 360.074L32.3848 360.965C32.168 361.041 31.8691 361.082 31.5996 361.082C30.4688 361.082 29.8008 360.455 29.8008 359.383V352.891ZM35.4434 361.152C34.2012 361.152 33.2109 360.426 33.2109 359.137C33.2109 357.637 34.5469 357.361 35.7598 357.209C36.9258 357.062 37.4414 357.098 37.4414 356.611V356.576C37.4414 355.762 36.9785 355.293 36.0703 355.293C35.127 355.293 34.6172 355.797 34.4121 356.254L33.3984 355.92C33.9023 354.73 35.0273 354.367 36.041 354.367C36.9199 354.367 38.4961 354.637 38.4961 356.682V361H37.459V360.109H37.3887C37.166 360.572 36.5508 361.152 35.4434 361.152ZM35.625 360.221C36.791 360.221 37.4414 359.436 37.4414 358.633V357.725C37.2656 357.93 36.1172 358.047 35.7129 358.1C34.9453 358.199 34.2715 358.445 34.2715 359.189C34.2715 359.869 34.8398 360.221 35.625 360.221ZM40.3477 361V354.449H41.3672V355.457H41.4375C41.6777 354.795 42.3574 354.355 43.1367 354.355C43.2891 354.355 43.5469 354.367 43.6699 354.373V355.434C43.6055 355.422 43.3184 355.375 43.0371 355.375C42.0938 355.375 41.4023 356.014 41.4023 356.898V361H40.3477ZM47.6367 354.449V355.352H44.25V354.449H47.6367ZM45.2344 352.891H46.2891V359.301C46.2891 359.887 46.5059 360.145 47.0625 360.145C47.1973 360.145 47.4258 360.109 47.6016 360.074L47.8184 360.965C47.6016 361.041 47.3027 361.082 47.0332 361.082C45.9023 361.082 45.2344 360.455 45.2344 359.383V352.891ZM54.1934 361.152C52.9512 361.152 51.9609 360.426 51.9609 359.137C51.9609 357.637 53.2969 357.361 54.5098 357.209C55.6758 357.062 56.1914 357.098 56.1914 356.611V356.576C56.1914 355.762 55.7285 355.293 54.8203 355.293C53.877 355.293 53.3672 355.797 53.1621 356.254L52.1484 355.92C52.6523 354.73 53.7773 354.367 54.791 354.367C55.6699 354.367 57.2461 354.637 57.2461 356.682V361H56.209V360.109H56.1387C55.916 360.572 55.3008 361.152 54.1934 361.152ZM54.375 360.221C55.541 360.221 56.1914 359.436 56.1914 358.633V357.725C56.0156 357.93 54.8672 358.047 54.4629 358.1C53.6953 358.199 53.0215 358.445 53.0215 359.189C53.0215 359.869 53.5898 360.221 54.375 360.221ZM63.5273 357.074V361H62.4727V354.449H63.4863L63.4922 356.037H63.3457C63.7441 354.83 64.5059 354.367 65.4961 354.367C66.8203 354.367 67.7168 355.182 67.7168 356.84V361H66.6562V356.928C66.6562 355.92 66.0938 355.316 65.1797 355.316C64.2363 355.316 63.5273 355.955 63.5273 357.074ZM72.3281 361.141C70.4297 361.141 69.2578 359.793 69.2578 357.777C69.2578 355.768 70.418 354.367 72.2051 354.367C73.5938 354.367 75.0586 355.223 75.0586 357.643V358.082H69.9727V357.191H74.4902L73.998 357.52C73.998 356.23 73.3887 355.305 72.2051 355.305C71.0215 355.305 70.3242 356.283 70.3242 357.35V357.941C70.3242 359.4 71.1328 360.203 72.334 360.203C73.1074 360.203 73.6875 359.863 73.9336 359.195L74.9531 359.477C74.6484 360.467 73.6699 361.141 72.3281 361.141ZM77.8184 361L75.832 354.449H76.9512L77.748 357.309C77.9648 358.088 78.2227 359.066 78.4688 360.314H78.2871C78.5215 359.119 78.7676 358.141 78.9961 357.309L79.7812 354.449H80.9062L81.6797 357.309C81.8965 358.111 82.1426 359.09 82.377 360.314H82.1895C82.4355 359.102 82.6875 358.129 82.916 357.309L83.7129 354.449H84.832L82.8457 361H81.7969L80.9473 358.035C80.6895 357.139 80.4551 356.172 80.2148 355.152H80.4492C80.2148 356.16 79.9688 357.156 79.7168 358.035L78.8672 361H77.8184ZM92.209 361.141C90.4277 361.141 89.2266 359.787 89.2266 357.766C89.2266 355.715 90.4277 354.367 92.209 354.367C93.4746 354.367 94.5059 355.035 94.8633 356.178L93.8496 356.465C93.6562 355.791 93.0703 355.311 92.209 355.311C90.9023 355.311 90.2988 356.459 90.2988 357.766C90.2988 359.055 90.9023 360.197 92.209 360.197C93.0879 360.197 93.6855 359.699 93.8789 358.99L94.8867 359.277C94.5352 360.443 93.4922 361.141 92.209 361.141ZM97.4531 357.074V361H96.3984V352.27H97.4531V356.037H97.2715C97.6699 354.83 98.4316 354.367 99.4219 354.367C100.746 354.367 101.643 355.182 101.643 356.84V361H100.582V356.928C100.582 355.92 100.02 355.316 99.1055 355.316C98.1621 355.316 97.4531 355.955 97.4531 357.074ZM105.334 361.152C104.092 361.152 103.102 360.426 103.102 359.137C103.102 357.637 104.438 357.361 105.65 357.209C106.816 357.062 107.332 357.098 107.332 356.611V356.576C107.332 355.762 106.869 355.293 105.961 355.293C105.018 355.293 104.508 355.797 104.303 356.254L103.289 355.92C103.793 354.73 104.918 354.367 105.932 354.367C106.811 354.367 108.387 354.637 108.387 356.682V361H107.35V360.109H107.279C107.057 360.572 106.441 361.152 105.334 361.152ZM105.516 360.221C106.682 360.221 107.332 359.436 107.332 358.633V357.725C107.156 357.93 106.008 358.047 105.604 358.1C104.836 358.199 104.162 358.445 104.162 359.189C104.162 359.869 104.73 360.221 105.516 360.221ZM112.816 354.449V355.352H109.43V354.449H112.816ZM110.414 352.891H111.469V359.301C111.469 359.887 111.686 360.145 112.242 360.145C112.377 360.145 112.605 360.109 112.781 360.074L112.998 360.965C112.781 361.041 112.482 361.082 112.213 361.082C111.082 361.082 110.414 360.455 110.414 359.383V352.891Z" fill="#737278"/>
</g>
<defs>
<filter id="filter0_dd_37136_1545" x="0" y="0" width="344" height="388" filterUnits="userSpaceOnUse" color-interpolation-filters="sRGB">
<feFlood flood-opacity="0" result="BackgroundImageFix"/>
<feColorMatrix in="SourceAlpha" type="matrix" values="0 0 0 0 0 0 0 0 0 0 0 0 0 0 0 0 0 0 127 0" result="hardAlpha"/>
<feOffset/>
<feGaussianBlur stdDeviation="1"/>
<feComposite in2="hardAlpha" operator="out"/>
<feColorMatrix type="matrix" values="0 0 0 0 0.121569 0 0 0 0 0.117647 0 0 0 0 0.141176 0 0 0 0.16 0"/>
<feBlend mode="normal" in2="BackgroundImageFix" result="effect1_dropShadow_37136_1545"/>
<feColorMatrix in="SourceAlpha" type="matrix" values="0 0 0 0 0 0 0 0 0 0 0 0 0 0 0 0 0 0 127 0" result="hardAlpha"/>
<feOffset dy="2"/>
<feGaussianBlur stdDeviation="4"/>
<feComposite in2="hardAlpha" operator="out"/>
<feColorMatrix type="matrix" values="0 0 0 0 0.121569 0 0 0 0 0.117647 0 0 0 0 0.141176 0 0 0 0.16 0"/>
<feBlend mode="normal" in2="effect1_dropShadow_37136_1545" result="effect2_dropShadow_37136_1545"/>
<feBlend mode="normal" in="SourceGraphic" in2="effect2_dropShadow_37136_1545" result="shape"/>
</filter>
</defs>
</svg>
