<svg width="344" height="106" viewBox="0 0 344 106" fill="none" xmlns="http://www.w3.org/2000/svg">
<g filter="url(#filter0_dd_37095_21835)">
<rect x="8" y="6" width="328" height="90" rx="8" fill="white"/>
<rect x="8.5" y="6.5" width="327" height="89" rx="7.5" stroke="#BFBFBF"/>
<rect width="326" height="30" transform="translate(9 11)" fill="white"/>
<path d="M25.0078 31.1289C22.8809 31.1289 21.5215 30.1445 21.4746 28.2461H23.2793C23.3379 29.125 24.0234 29.5586 24.9844 29.5586C25.9102 29.5586 26.5137 29.1309 26.5137 28.498C26.5137 27.9238 25.9863 27.6543 25.0371 27.4258L24.0879 27.1914C22.5996 26.834 21.7031 26.0898 21.7031 24.8008C21.7031 23.2188 23.1035 22.1523 25.0195 22.1523C26.9824 22.1523 28.2539 23.2363 28.2773 24.7949H26.4785C26.4141 24.1094 25.8809 23.7168 25.0078 23.7168C24.1172 23.7168 23.625 24.127 23.625 24.6836C23.625 25.2988 24.2402 25.5742 24.9902 25.75L25.7695 25.9375C27.2988 26.2832 28.3945 27.0566 28.3945 28.5039C28.3945 30.1152 27.1348 31.1289 25.0078 31.1289ZM31.6055 31.041C30.2227 31.041 29.6016 30.4668 29.6016 29.2773V22.2695H31.4355V29.0371C31.4355 29.4414 31.5703 29.6113 31.916 29.6113C32.0977 29.6113 32.1855 29.5938 32.2617 29.5703L32.5488 30.8945C32.3613 30.959 32.0215 31.041 31.6055 31.041ZM35.1797 31.1289C33.9316 31.1289 33.0117 30.4727 33.0117 29.1719C33.0117 27.7129 34.1719 27.2734 35.4727 27.1504C36.5918 27.0449 37.0488 26.9922 37.0488 26.5703V26.541C37.0488 26.0137 36.6914 25.709 36.0586 25.709C35.4141 25.709 35.0039 26.0254 34.875 26.4473L33.1992 26.1836C33.5039 25.0527 34.5586 24.3672 36.0703 24.3672C37.5352 24.3672 38.8828 25.041 38.8828 26.582V31H37.1484V30.0918H37.0898C36.7617 30.7188 36.1348 31.1289 35.1797 31.1289ZM35.7129 29.8633C36.498 29.8633 37.0605 29.3418 37.0605 28.6621V27.9766C36.8438 28.1172 36.1934 28.2109 35.8125 28.2695C35.1738 28.3574 34.7637 28.6152 34.7637 29.1133C34.7637 29.6055 35.1562 29.8633 35.7129 29.8633ZM42.9902 31.1289C41.3848 31.1289 40.2832 30.4141 40.0547 29.1895L41.7656 28.9023C41.9297 29.5 42.334 29.8047 43.0488 29.8047C43.6934 29.8047 44.0918 29.5352 44.0918 29.1602C44.0918 28.8262 43.8223 28.627 43.2539 28.5098L42.123 28.2812C40.8516 28.0234 40.2246 27.4023 40.2246 26.4121C40.2246 25.1465 41.3262 24.3672 43.0078 24.3672C44.5898 24.3672 45.5449 25.0527 45.7852 26.1367L44.1621 26.4121C44.0273 25.9668 43.6523 25.6738 43.043 25.6738C42.4863 25.6738 42.0586 25.9258 42.0586 26.3008C42.0586 26.6113 42.2695 26.834 42.873 26.957L44.0684 27.1914C45.3457 27.4492 45.9609 28.0234 45.9609 28.9609C45.9609 30.2676 44.7305 31.1289 42.9902 31.1289ZM48.9551 27.2266V31H47.1211V22.2695H48.9199V26.0898H48.7793C49.1191 25.0176 49.7988 24.3672 50.918 24.3672C52.2832 24.3672 53.1797 25.3164 53.1797 26.834V31H51.3398V27.168C51.3398 26.3711 50.9062 25.8965 50.1855 25.8965C49.459 25.8965 48.9551 26.3887 48.9551 27.2266ZM60.3809 31.1289C58.3887 31.1289 57.1523 29.7695 57.1523 27.7539C57.1523 25.7266 58.3887 24.3672 60.3809 24.3672C61.9688 24.3672 63.0879 25.2227 63.3223 26.5879L61.6172 26.8984C61.4766 26.2188 61.0605 25.8027 60.3984 25.8027C59.5078 25.8027 59.0273 26.5762 59.0273 27.748C59.0273 28.9082 59.5078 29.6992 60.3984 29.6992C61.0605 29.6992 61.4941 29.2715 61.6289 28.5625L63.334 28.8672C63.0938 30.2676 61.9805 31.1289 60.3809 31.1289ZM67.4707 31.1289C65.4785 31.1289 64.2422 29.7695 64.2422 27.7539C64.2422 25.7266 65.4785 24.3672 67.4707 24.3672C69.4629 24.3672 70.6992 25.7266 70.6992 27.7539C70.6992 29.7695 69.4629 31.1289 67.4707 31.1289ZM67.4707 29.6992C68.3672 29.6992 68.8301 28.8789 68.8301 27.748C68.8301 26.6055 68.3672 25.8027 67.4707 25.8027C66.5801 25.8027 66.1172 26.6055 66.1172 27.748C66.1172 28.8789 66.5801 29.6992 67.4707 29.6992ZM71.8945 31V24.4492H73.5938L73.6875 26.1016H73.5586C73.8516 24.8711 74.6602 24.3555 75.5449 24.3555C76.4766 24.3555 77.0449 24.9355 77.3262 26.2188H77.1152C77.4141 24.9238 78.3398 24.3555 79.3418 24.3555C80.5488 24.3555 81.4336 25.1699 81.4336 26.582V31H79.5938V26.957C79.5938 26.2363 79.166 25.8789 78.5918 25.8789C77.9473 25.8789 77.5488 26.3301 77.5488 26.998V31H75.7793V26.916C75.7793 26.2832 75.3691 25.8789 74.7891 25.8789C74.1855 25.8789 73.7285 26.3008 73.7285 27.0625V31H71.8945ZM82.8984 31V24.4492H84.5977L84.6914 26.1016H84.5625C84.8555 24.8711 85.6641 24.3555 86.5488 24.3555C87.4805 24.3555 88.0488 24.9355 88.3301 26.2188H88.1191C88.418 24.9238 89.3438 24.3555 90.3457 24.3555C91.5527 24.3555 92.4375 25.1699 92.4375 26.582V31H90.5977V26.957C90.5977 26.2363 90.1699 25.8789 89.5957 25.8789C88.9512 25.8789 88.5527 26.3301 88.5527 26.998V31H86.7832V26.916C86.7832 26.2832 86.373 25.8789 85.793 25.8789C85.1895 25.8789 84.7324 26.3008 84.7324 27.0625V31H82.8984ZM95.7305 31.1289C94.4824 31.1289 93.5625 30.4727 93.5625 29.1719C93.5625 27.7129 94.7227 27.2734 96.0234 27.1504C97.1426 27.0449 97.5996 26.9922 97.5996 26.5703V26.541C97.5996 26.0137 97.2422 25.709 96.6094 25.709C95.9648 25.709 95.5547 26.0254 95.4258 26.4473L93.75 26.1836C94.0547 25.0527 95.1094 24.3672 96.6211 24.3672C98.0859 24.3672 99.4336 25.041 99.4336 26.582V31H97.6992V30.0918H97.6406C97.3125 30.7188 96.6855 31.1289 95.7305 31.1289ZM96.2637 29.8633C97.0488 29.8633 97.6113 29.3418 97.6113 28.6621V27.9766C97.3945 28.1172 96.7441 28.2109 96.3633 28.2695C95.7246 28.3574 95.3145 28.6152 95.3145 29.1133C95.3145 29.6055 95.707 29.8633 96.2637 29.8633ZM102.732 27.2266V31H100.898V24.4492H102.627L102.662 26.0898H102.557C102.896 25.0176 103.576 24.3672 104.695 24.3672C106.061 24.3672 106.957 25.3164 106.957 26.834V31H105.117V27.168C105.117 26.3711 104.684 25.8965 103.963 25.8965C103.236 25.8965 102.732 26.3887 102.732 27.2266ZM110.801 31.1055C109.307 31.1055 108.141 29.9277 108.141 27.7363C108.141 25.4863 109.354 24.3672 110.789 24.3672C111.879 24.3672 112.412 25.0234 112.646 25.5625H112.705V22.2695H114.539V31H112.729V29.9512H112.646C112.4 30.4961 111.85 31.1055 110.801 31.1055ZM111.381 29.6465C112.242 29.6465 112.74 28.8848 112.74 27.7305C112.74 26.5703 112.254 25.832 111.381 25.832C110.496 25.832 110.027 26.6055 110.027 27.7305C110.027 28.8613 110.502 29.6465 111.381 29.6465ZM118.646 31.1289C117.041 31.1289 115.939 30.4141 115.711 29.1895L117.422 28.9023C117.586 29.5 117.99 29.8047 118.705 29.8047C119.35 29.8047 119.748 29.5352 119.748 29.1602C119.748 28.8262 119.479 28.627 118.91 28.5098L117.779 28.2812C116.508 28.0234 115.881 27.4023 115.881 26.4121C115.881 25.1465 116.982 24.3672 118.664 24.3672C120.246 24.3672 121.201 25.0527 121.441 26.1367L119.818 26.4121C119.684 25.9668 119.309 25.6738 118.699 25.6738C118.143 25.6738 117.715 25.9258 117.715 26.3008C117.715 26.6113 117.926 26.834 118.529 26.957L119.725 27.1914C121.002 27.4492 121.617 28.0234 121.617 28.9609C121.617 30.2676 120.387 31.1289 118.646 31.1289Z" fill="#333238"/>
<rect x="13" y="43" width="318" height="48" rx="4" fill="#ECECEF"/>
<path d="M25.7305 53.3359L22.4492 65.5312H21.3145L24.5957 53.3359H25.7305ZM30.1328 56.3574V57.4102H26.1816V56.3574H30.1328ZM27.3301 54.5391H28.5605V62.0176C28.5605 62.7012 28.8135 63.002 29.4629 63.002C29.6201 63.002 29.8867 62.9609 30.0918 62.9199L30.3447 63.959C30.0918 64.0479 29.7432 64.0957 29.4287 64.0957C28.1094 64.0957 27.3301 63.3643 27.3301 62.1133V54.5391ZM31.7051 64V56.3574H32.8945V57.5332H32.9766C33.2568 56.7607 34.0498 56.248 34.959 56.248C35.1367 56.248 35.4375 56.2617 35.5811 56.2686V57.5059C35.5059 57.4922 35.1709 57.4375 34.8428 57.4375C33.7422 57.4375 32.9355 58.1826 32.9355 59.2148V64H31.7051ZM39.8604 64.1641C37.7822 64.1641 36.3809 62.585 36.3809 60.2266C36.3809 57.834 37.7822 56.2617 39.8604 56.2617C41.9453 56.2617 43.3535 57.834 43.3535 60.2266C43.3535 62.585 41.9453 64.1641 39.8604 64.1641ZM39.8604 63.0635C41.4053 63.0635 42.1094 61.7305 42.1094 60.2266C42.1094 58.709 41.4053 57.3623 39.8604 57.3623C38.3359 57.3623 37.6318 58.7021 37.6318 60.2266C37.6318 61.7305 38.3359 63.0635 39.8604 63.0635ZM47.7354 64.0957C46.1904 64.0957 45.1445 63.1455 45.1445 61.2109V56.3574H46.375V61.1084C46.375 62.2842 47.0381 62.9883 48.1045 62.9883C49.1982 62.9883 50.0254 62.2432 50.0254 60.9375V56.3574H51.2627V64H50.0732V62.1475H50.2373C49.7656 63.583 48.8564 64.0957 47.7354 64.0957ZM56.9775 64.1641C55.5215 64.1641 55.0088 63.2412 54.7559 62.8174H54.6191V64H53.4297V53.8145H54.6602V57.5811H54.7559C55.0088 57.1777 55.4805 56.2617 56.9707 56.2617C58.8779 56.2617 60.2109 57.7793 60.2109 60.1992C60.2109 62.6328 58.8848 64.1641 56.9775 64.1641ZM56.793 63.0635C58.2217 63.0635 58.96 61.792 58.96 60.1855C58.96 58.5996 58.2422 57.3623 56.793 57.3623C55.3848 57.3623 54.6465 58.4971 54.6465 60.1855C54.6465 61.8877 55.4053 63.0635 56.793 63.0635ZM63.7178 64.0547C62.5693 64.0547 62.002 63.4121 62.002 62.3047V53.8145H63.2324V61.9971C63.2324 62.7012 63.3555 62.9541 63.8682 62.9541C64.1348 62.9541 64.2441 62.9336 64.3604 62.8994L64.6064 63.9385C64.3877 64 64.0459 64.0547 63.7178 64.0547ZM68.8652 64.1641C66.6504 64.1641 65.2832 62.5918 65.2832 60.2402C65.2832 57.8955 66.6367 56.2617 68.7217 56.2617C70.3418 56.2617 72.0508 57.2598 72.0508 60.083V60.5957H66.1172V59.5566H71.3877L70.8135 59.9395C70.8135 58.4355 70.1025 57.3555 68.7217 57.3555C67.3408 57.3555 66.5273 58.4971 66.5273 59.7412V60.4316C66.5273 62.1338 67.4707 63.0703 68.8721 63.0703C69.7744 63.0703 70.4512 62.6738 70.7383 61.8945L71.9277 62.2227C71.5723 63.3779 70.4307 64.1641 68.8652 64.1641ZM76.4121 64.1641C74.8398 64.1641 73.7461 63.4668 73.4727 62.1475L74.6416 61.8672C74.8604 62.708 75.4824 63.084 76.3984 63.084C77.4648 63.084 78.1484 62.5576 78.1484 61.9287C78.1484 61.4023 77.7793 61.0537 77.0273 60.876L75.7559 60.5752C74.3682 60.2471 73.7051 59.5635 73.7051 58.4902C73.7051 57.1777 74.9082 56.2617 76.5352 56.2617C78.1074 56.2617 78.9346 57.0273 79.2832 58.1006L78.1689 58.3877C77.957 57.8408 77.5264 57.3076 76.542 57.3076C75.6328 57.3076 74.9492 57.7793 74.9492 58.415C74.9492 58.9824 75.3389 59.2969 76.2344 59.5088L77.3896 59.7822C78.7773 60.1104 79.4268 60.8008 79.4268 61.8467C79.4268 63.1865 78.2031 64.1641 76.4121 64.1641ZM82.4414 59.4199V64H81.2109V53.8145H82.4414V58.21H82.2295C82.6943 56.8018 83.583 56.2617 84.7383 56.2617C86.2832 56.2617 87.3291 57.2119 87.3291 59.1465V64H86.0918V59.249C86.0918 58.0732 85.4355 57.3691 84.3691 57.3691C83.2686 57.3691 82.4414 58.1143 82.4414 59.4199ZM92.6064 64.1641C90.5283 64.1641 89.127 62.585 89.127 60.2266C89.127 57.834 90.5283 56.2617 92.6064 56.2617C94.6914 56.2617 96.0996 57.834 96.0996 60.2266C96.0996 62.585 94.6914 64.1641 92.6064 64.1641ZM92.6064 63.0635C94.1514 63.0635 94.8555 61.7305 94.8555 60.2266C94.8555 58.709 94.1514 57.3623 92.6064 57.3623C91.082 57.3623 90.3779 58.7021 90.3779 60.2266C90.3779 61.7305 91.082 63.0635 92.6064 63.0635ZM101.001 64.1641C98.9229 64.1641 97.5215 62.585 97.5215 60.2266C97.5215 57.834 98.9229 56.2617 101.001 56.2617C103.086 56.2617 104.494 57.834 104.494 60.2266C104.494 62.585 103.086 64.1641 101.001 64.1641ZM101.001 63.0635C102.546 63.0635 103.25 61.7305 103.25 60.2266C103.25 58.709 102.546 57.3623 101.001 57.3623C99.4766 57.3623 98.7725 58.7021 98.7725 60.2266C98.7725 61.7305 99.4766 63.0635 101.001 63.0635ZM109.293 56.3574V57.4102H105.342V56.3574H109.293ZM106.49 54.5391H107.721V62.0176C107.721 62.7012 107.974 63.002 108.623 63.002C108.78 63.002 109.047 62.9609 109.252 62.9199L109.505 63.959C109.252 64.0479 108.903 64.0957 108.589 64.0957C107.27 64.0957 106.49 63.3643 106.49 62.1133V54.5391ZM116.17 64V65.1348H109.785V64H116.17ZM117.729 66.8574V56.3574H118.918V57.5811H119.055C119.308 57.1777 119.779 56.2617 121.27 56.2617C123.177 56.2617 124.51 57.7793 124.51 60.1992C124.51 62.6328 123.184 64.1641 121.276 64.1641C119.82 64.1641 119.308 63.2412 119.055 62.8174H118.959V66.8574H117.729ZM121.092 63.0635C122.521 63.0635 123.259 61.792 123.259 60.1855C123.259 58.5996 122.541 57.3623 121.092 57.3623C119.684 57.3623 118.945 58.4971 118.945 60.1855C118.945 61.8877 119.704 63.0635 121.092 63.0635ZM126.301 64V56.3574H127.531V64H126.301ZM126.923 55.1064C126.458 55.1064 126.068 54.7441 126.068 54.293C126.068 53.8418 126.458 53.4795 126.923 53.4795C127.395 53.4795 127.784 53.8418 127.784 54.293C127.784 54.7441 127.395 55.1064 126.923 55.1064ZM129.691 66.8574V56.3574H130.881V57.5811H131.018C131.271 57.1777 131.742 56.2617 133.232 56.2617C135.14 56.2617 136.473 57.7793 136.473 60.1992C136.473 62.6328 135.146 64.1641 133.239 64.1641C131.783 64.1641 131.271 63.2412 131.018 62.8174H130.922V66.8574H129.691ZM133.055 63.0635C134.483 63.0635 135.222 61.792 135.222 60.1855C135.222 58.5996 134.504 57.3623 133.055 57.3623C131.646 57.3623 130.908 58.4971 130.908 60.1855C130.908 61.8877 131.667 63.0635 133.055 63.0635ZM141.477 64.1641C139.262 64.1641 137.895 62.5918 137.895 60.2402C137.895 57.8955 139.248 56.2617 141.333 56.2617C142.953 56.2617 144.662 57.2598 144.662 60.083V60.5957H138.729V59.5566H143.999L143.425 59.9395C143.425 58.4355 142.714 57.3555 141.333 57.3555C139.952 57.3555 139.139 58.4971 139.139 59.7412V60.4316C139.139 62.1338 140.082 63.0703 141.483 63.0703C142.386 63.0703 143.062 62.6738 143.35 61.8945L144.539 62.2227C144.184 63.3779 143.042 64.1641 141.477 64.1641ZM148.142 64.0547C146.993 64.0547 146.426 63.4121 146.426 62.3047V53.8145H147.656V61.9971C147.656 62.7012 147.779 62.9541 148.292 62.9541C148.559 62.9541 148.668 62.9336 148.784 62.8994L149.03 63.9385C148.812 64 148.47 64.0547 148.142 64.0547ZM150.281 64V56.3574H151.512V64H150.281ZM150.903 55.1064C150.438 55.1064 150.049 54.7441 150.049 54.293C150.049 53.8418 150.438 53.4795 150.903 53.4795C151.375 53.4795 151.765 53.8418 151.765 54.293C151.765 54.7441 151.375 55.1064 150.903 55.1064ZM154.902 59.4199V64H153.672V56.3574H154.854L154.861 58.21H154.69C155.155 56.8018 156.044 56.2617 157.199 56.2617C158.744 56.2617 159.79 57.2119 159.79 59.1465V64H158.553V59.249C158.553 58.0732 157.896 57.3691 156.83 57.3691C155.729 57.3691 154.902 58.1143 154.902 59.4199ZM165.17 64.1641C162.955 64.1641 161.588 62.5918 161.588 60.2402C161.588 57.8955 162.941 56.2617 165.026 56.2617C166.646 56.2617 168.355 57.2598 168.355 60.083V60.5957H162.422V59.5566H167.692L167.118 59.9395C167.118 58.4355 166.407 57.3555 165.026 57.3555C163.646 57.3555 162.832 58.4971 162.832 59.7412V60.4316C162.832 62.1338 163.775 63.0703 165.177 63.0703C166.079 63.0703 166.756 62.6738 167.043 61.8945L168.232 62.2227C167.877 63.3779 166.735 64.1641 165.17 64.1641Z" fill="#333238"/>
<path d="M173.996 59.998V59.2598L179.527 56.4707V57.6191L175.32 59.6172L175.355 59.5469V59.7109L175.32 59.6523L179.527 61.6504V62.7871L173.996 59.998ZM185.393 64.1406C183.324 64.1406 181.977 62.8281 181.977 61.0293V55.2695H183.09V60.9414C183.09 62.1953 183.963 63.1094 185.393 63.1094C186.816 63.1094 187.684 62.1953 187.684 60.9414V55.2695H188.797V61.0293C188.797 62.8281 187.449 64.1406 185.393 64.1406ZM190.906 64V55.2695H193.895C195.934 55.2695 196.871 56.4062 196.871 57.9648C196.871 59.5234 195.934 60.6133 193.9 60.6133H191.527V59.623H193.848C195.225 59.623 195.764 58.9902 195.764 57.9648C195.764 56.9277 195.225 56.248 193.836 56.248H192.02V64H190.906ZM195.922 64L193.812 60.0684H195.066L197.211 64H195.922ZM198.629 64V55.2695H199.742V63.0156H203.785V64H198.629ZM211.279 59.998L205.748 62.7871V61.6504L209.961 59.6523L209.92 59.7109V59.5469L209.961 59.6172L205.748 57.6191V56.4707L211.279 59.2598V59.998Z" fill="#535158"/>
<path d="M24.8496 79.1523C22.957 79.1523 21.7793 78.1797 21.6797 76.7148H22.8223C22.9102 77.7051 23.8242 78.1562 24.8496 78.1562C26.0332 78.1562 26.9355 77.5352 26.9355 76.6035C26.9355 75.7598 26.1387 75.4492 25.207 75.1855L24.1523 74.8867C22.7461 74.4883 21.9258 73.7676 21.9258 72.6074C21.9258 71.1309 23.2383 70.1523 24.9258 70.1523C26.6484 70.1523 27.8496 71.1543 27.9023 72.4727H26.8125C26.7129 71.623 25.9277 71.1367 24.8906 71.1367C23.7598 71.1367 23.0098 71.7344 23.0098 72.5547C23.0098 73.4688 24.0352 73.791 24.6738 73.9668L25.5469 74.207C26.4844 74.4648 28.0195 74.9922 28.0195 76.6211C28.0195 78.0508 26.8652 79.1523 24.8496 79.1523ZM31.8457 79.082C30.5215 79.082 29.625 78.2676 29.625 76.6094V72.4492H30.6797V76.5215C30.6797 77.5293 31.248 78.1328 32.1621 78.1328C33.0996 78.1328 33.8086 77.4941 33.8086 76.375V72.4492H34.8691V79H33.8496V77.4121H33.9902C33.5859 78.6426 32.8066 79.082 31.8457 79.082ZM39.3809 81.5898C37.9277 81.5898 37.0898 80.9746 36.6855 80.2539L37.541 79.7031C37.8164 80.084 38.2266 80.6699 39.3809 80.6699C40.4238 80.6699 41.1797 80.1895 41.1797 79.1113V77.7988H41.0801C40.8574 78.1738 40.4414 78.8945 39.1758 78.8945C37.6055 78.8945 36.4102 77.752 36.4102 75.6953C36.4102 73.668 37.5645 72.3672 39.1992 72.3672C40.4648 72.3672 40.8867 73.1465 41.1094 73.498H41.209V72.4492H42.2344V79.1699C42.2344 80.8633 40.9746 81.5898 39.3809 81.5898ZM39.3516 77.957C40.541 77.957 41.1914 77.1016 41.1914 75.6719C41.1914 74.2832 40.5586 73.3105 39.3516 73.3105C38.1035 73.3105 37.4824 74.3652 37.4824 75.6719C37.4824 77.0195 38.1211 77.957 39.3516 77.957ZM46.7402 81.5898C45.2871 81.5898 44.4492 80.9746 44.0449 80.2539L44.9004 79.7031C45.1758 80.084 45.5859 80.6699 46.7402 80.6699C47.7832 80.6699 48.5391 80.1895 48.5391 79.1113V77.7988H48.4395C48.2168 78.1738 47.8008 78.8945 46.5352 78.8945C44.9648 78.8945 43.7695 77.752 43.7695 75.6953C43.7695 73.668 44.9238 72.3672 46.5586 72.3672C47.8242 72.3672 48.2461 73.1465 48.4688 73.498H48.5684V72.4492H49.5938V79.1699C49.5938 80.8633 48.334 81.5898 46.7402 81.5898ZM46.7109 77.957C47.9004 77.957 48.5508 77.1016 48.5508 75.6719C48.5508 74.2832 47.918 73.3105 46.7109 73.3105C45.4629 73.3105 44.8418 74.3652 44.8418 75.6719C44.8418 77.0195 45.4805 77.957 46.7109 77.957ZM54.1992 79.1406C52.3008 79.1406 51.1289 77.793 51.1289 75.7773C51.1289 73.7676 52.2891 72.3672 54.0762 72.3672C55.4648 72.3672 56.9297 73.2227 56.9297 75.6426V76.082H51.8438V75.1914H56.3613L55.8691 75.5195C55.8691 74.2305 55.2598 73.3047 54.0762 73.3047C52.8926 73.3047 52.1953 74.2832 52.1953 75.3496V75.9414C52.1953 77.4004 53.0039 78.2031 54.2051 78.2031C54.9785 78.2031 55.5586 77.8633 55.8047 77.1953L56.8242 77.4766C56.5195 78.4668 55.541 79.1406 54.1992 79.1406ZM60.668 79.1406C59.3203 79.1406 58.3828 78.543 58.1484 77.4121L59.1504 77.1719C59.3379 77.8926 59.8711 78.2148 60.6562 78.2148C61.5703 78.2148 62.1562 77.7637 62.1562 77.2246C62.1562 76.7734 61.8398 76.4746 61.1953 76.3223L60.1055 76.0645C58.916 75.7832 58.3477 75.1973 58.3477 74.2773C58.3477 73.1523 59.3789 72.3672 60.7734 72.3672C62.1211 72.3672 62.8301 73.0234 63.1289 73.9434L62.1738 74.1895C61.9922 73.7207 61.623 73.2637 60.7793 73.2637C60 73.2637 59.4141 73.668 59.4141 74.2129C59.4141 74.6992 59.748 74.9688 60.5156 75.1504L61.5059 75.3848C62.6953 75.666 63.252 76.2578 63.252 77.1543C63.252 78.3027 62.2031 79.1406 60.668 79.1406ZM67.3594 72.4492V73.3516H63.9727V72.4492H67.3594ZM64.957 70.8906H66.0117V77.3008C66.0117 77.8867 66.2285 78.1445 66.7852 78.1445C66.9199 78.1445 67.1484 78.1094 67.3242 78.0742L67.541 78.9648C67.3242 79.041 67.0254 79.082 66.7559 79.082C65.625 79.082 64.957 78.4551 64.957 77.3828V70.8906ZM73.916 79.1523C72.6738 79.1523 71.6836 78.4258 71.6836 77.1367C71.6836 75.6367 73.0195 75.3613 74.2324 75.209C75.3984 75.0625 75.9141 75.0977 75.9141 74.6113V74.5762C75.9141 73.7617 75.4512 73.293 74.543 73.293C73.5996 73.293 73.0898 73.7969 72.8848 74.2539L71.8711 73.9199C72.375 72.7305 73.5 72.3672 74.5137 72.3672C75.3926 72.3672 76.9688 72.6367 76.9688 74.6816V79H75.9316V78.1094H75.8613C75.6387 78.5723 75.0234 79.1523 73.916 79.1523ZM74.0977 78.2207C75.2637 78.2207 75.9141 77.4355 75.9141 76.6328V75.7246C75.7383 75.9297 74.5898 76.0469 74.1855 76.0996C73.418 76.1992 72.7441 76.4453 72.7441 77.1895C72.7441 77.8691 73.3125 78.2207 74.0977 78.2207ZM82.6641 79V71.5762C82.6641 70.4395 83.5723 69.8594 84.5273 69.8594C84.7383 69.8594 84.9258 69.877 85.0781 69.9062L84.9199 70.8613C84.8438 70.8438 84.7559 70.8379 84.6504 70.8379C84 70.8379 83.7188 71.1777 83.7188 71.8105V79H82.6641ZM81.3867 73.3516V72.4492H86.5781V73.3516H81.3867ZM86.2266 79V72.4492H87.2812V79H86.2266ZM86.7598 71.377C86.3613 71.377 86.0273 71.0664 86.0273 70.6797C86.0273 70.293 86.3613 69.9824 86.7598 69.9824C87.1641 69.9824 87.498 70.293 87.498 70.6797C87.498 71.0664 87.1641 71.377 86.7598 71.377ZM88.5879 79L91.1719 75.2324L91.166 76.041L88.7227 72.4492H89.9531L90.7676 73.7207C91.1895 74.377 91.4648 74.9395 91.793 75.4668H91.2422C91.5762 74.9395 91.8047 74.377 92.2324 73.7207L93.0645 72.4492H94.2715L91.8164 76.0879V75.3086L94.377 79H93.1523L92.1914 77.5293C91.7754 76.8906 91.5117 76.3516 91.1895 75.8418H91.7461C91.4238 76.3516 91.2012 76.8906 90.7793 77.5293L89.8066 79H88.5879ZM102.105 72.4492V73.3516H98.25V72.4492H102.105ZM99.5391 79V71.5762C99.5391 70.4395 100.447 69.8594 101.402 69.8594C101.9 69.8594 102.229 69.9648 102.387 70.0352L102.094 70.9375C101.982 70.9023 101.818 70.8379 101.525 70.8379C100.875 70.8379 100.594 71.1777 100.594 71.8105V79H99.5391ZM106.049 79.1406C104.268 79.1406 103.066 77.7871 103.066 75.7656C103.066 73.7148 104.268 72.3672 106.049 72.3672C107.836 72.3672 109.043 73.7148 109.043 75.7656C109.043 77.7871 107.836 79.1406 106.049 79.1406ZM106.049 78.1973C107.373 78.1973 107.977 77.0547 107.977 75.7656C107.977 74.4648 107.373 73.3105 106.049 73.3105C104.742 73.3105 104.139 74.459 104.139 75.7656C104.139 77.0547 104.742 78.1973 106.049 78.1973ZM110.578 79V72.4492H111.598V73.457H111.668C111.908 72.7949 112.588 72.3555 113.367 72.3555C113.52 72.3555 113.777 72.3672 113.9 72.373V73.4336C113.836 73.4219 113.549 73.375 113.268 73.375C112.324 73.375 111.633 74.0137 111.633 74.8984V79H110.578ZM120.311 79.1523C119.068 79.1523 118.078 78.4258 118.078 77.1367C118.078 75.6367 119.414 75.3613 120.627 75.209C121.793 75.0625 122.309 75.0977 122.309 74.6113V74.5762C122.309 73.7617 121.846 73.293 120.938 73.293C119.994 73.293 119.484 73.7969 119.279 74.2539L118.266 73.9199C118.77 72.7305 119.895 72.3672 120.908 72.3672C121.787 72.3672 123.363 72.6367 123.363 74.6816V79H122.326V78.1094H122.256C122.033 78.5723 121.418 79.1523 120.311 79.1523ZM120.492 78.2207C121.658 78.2207 122.309 77.4355 122.309 76.6328V75.7246C122.133 75.9297 120.984 76.0469 120.58 76.0996C119.812 76.1992 119.139 76.4453 119.139 77.1895C119.139 77.8691 119.707 78.2207 120.492 78.2207ZM131.637 72.4492V73.3516H127.781V72.4492H131.637ZM129.07 79V71.5762C129.07 70.4395 129.979 69.8594 130.934 69.8594C131.432 69.8594 131.76 69.9648 131.918 70.0352L131.625 70.9375C131.514 70.9023 131.35 70.8379 131.057 70.8379C130.406 70.8379 130.125 71.1777 130.125 71.8105V79H129.07ZM134.678 79.1523C133.436 79.1523 132.445 78.4258 132.445 77.1367C132.445 75.6367 133.781 75.3613 134.994 75.209C136.16 75.0625 136.676 75.0977 136.676 74.6113V74.5762C136.676 73.7617 136.213 73.293 135.305 73.293C134.361 73.293 133.852 73.7969 133.646 74.2539L132.633 73.9199C133.137 72.7305 134.262 72.3672 135.275 72.3672C136.154 72.3672 137.73 72.6367 137.73 74.6816V79H136.693V78.1094H136.623C136.4 78.5723 135.785 79.1523 134.678 79.1523ZM134.859 78.2207C136.025 78.2207 136.676 77.4355 136.676 76.6328V75.7246C136.5 75.9297 135.352 76.0469 134.947 76.0996C134.18 76.1992 133.506 76.4453 133.506 77.1895C133.506 77.8691 134.074 78.2207 134.859 78.2207ZM139.582 79V72.4492H140.637V79H139.582ZM140.115 71.377C139.717 71.377 139.383 71.0664 139.383 70.6797C139.383 70.293 139.717 69.9824 140.115 69.9824C140.52 69.9824 140.854 70.293 140.854 70.6797C140.854 71.0664 140.52 71.377 140.115 71.377ZM143.959 79.0469C142.975 79.0469 142.488 78.4961 142.488 77.5469V70.2695H143.543V77.2832C143.543 77.8867 143.648 78.1035 144.088 78.1035C144.316 78.1035 144.41 78.0859 144.51 78.0566L144.721 78.9473C144.533 79 144.24 79.0469 143.959 79.0469ZM145.793 79V72.4492H146.848V79H145.793ZM146.326 71.377C145.928 71.377 145.594 71.0664 145.594 70.6797C145.594 70.293 145.928 69.9824 146.326 69.9824C146.73 69.9824 147.064 70.293 147.064 70.6797C147.064 71.0664 146.73 71.377 146.326 71.377ZM149.754 75.0742V79H148.699V72.4492H149.713L149.719 74.0371H149.572C149.971 72.8301 150.732 72.3672 151.723 72.3672C153.047 72.3672 153.943 73.1816 153.943 74.8398V79H152.883V74.9277C152.883 73.9199 152.32 73.3164 151.406 73.3164C150.463 73.3164 149.754 73.9551 149.754 75.0742ZM158.455 81.5898C157.002 81.5898 156.164 80.9746 155.76 80.2539L156.615 79.7031C156.891 80.084 157.301 80.6699 158.455 80.6699C159.498 80.6699 160.254 80.1895 160.254 79.1113V77.7988H160.154C159.932 78.1738 159.516 78.8945 158.25 78.8945C156.68 78.8945 155.484 77.752 155.484 75.6953C155.484 73.668 156.639 72.3672 158.273 72.3672C159.539 72.3672 159.961 73.1465 160.184 73.498H160.283V72.4492H161.309V79.1699C161.309 80.8633 160.049 81.5898 158.455 81.5898ZM158.426 77.957C159.615 77.957 160.266 77.1016 160.266 75.6719C160.266 74.2832 159.633 73.3105 158.426 73.3105C157.178 73.3105 156.557 74.3652 156.557 75.6719C156.557 77.0195 157.195 77.957 158.426 77.957ZM166.535 81.4492V72.4492H167.555V73.498H167.672C167.889 73.1523 168.293 72.3672 169.57 72.3672C171.205 72.3672 172.348 73.668 172.348 75.7422C172.348 77.8281 171.211 79.1406 169.576 79.1406C168.328 79.1406 167.889 78.3496 167.672 77.9863H167.59V81.4492H166.535ZM169.418 78.1973C170.643 78.1973 171.275 77.1074 171.275 75.7305C171.275 74.3711 170.66 73.3105 169.418 73.3105C168.211 73.3105 167.578 74.2832 167.578 75.7305C167.578 77.1895 168.229 78.1973 169.418 78.1973ZM173.883 79V72.4492H174.938V79H173.883ZM174.416 71.377C174.018 71.377 173.684 71.0664 173.684 70.6797C173.684 70.293 174.018 69.9824 174.416 69.9824C174.82 69.9824 175.154 70.293 175.154 70.6797C175.154 71.0664 174.82 71.377 174.416 71.377ZM176.789 81.4492V72.4492H177.809V73.498H177.926C178.143 73.1523 178.547 72.3672 179.824 72.3672C181.459 72.3672 182.602 73.668 182.602 75.7422C182.602 77.8281 181.465 79.1406 179.83 79.1406C178.582 79.1406 178.143 78.3496 177.926 77.9863H177.844V81.4492H176.789ZM179.672 78.1973C180.896 78.1973 181.529 77.1074 181.529 75.7305C181.529 74.3711 180.914 73.3105 179.672 73.3105C178.465 73.3105 177.832 74.2832 177.832 75.7305C177.832 77.1895 178.482 78.1973 179.672 78.1973ZM186.891 79.1406C184.992 79.1406 183.82 77.793 183.82 75.7773C183.82 73.7676 184.98 72.3672 186.768 72.3672C188.156 72.3672 189.621 73.2227 189.621 75.6426V76.082H184.535V75.1914H189.053L188.561 75.5195C188.561 74.2305 187.951 73.3047 186.768 73.3047C185.584 73.3047 184.887 74.2832 184.887 75.3496V75.9414C184.887 77.4004 185.695 78.2031 186.896 78.2031C187.67 78.2031 188.25 77.8633 188.496 77.1953L189.516 77.4766C189.211 78.4668 188.232 79.1406 186.891 79.1406ZM192.604 79.0469C191.619 79.0469 191.133 78.4961 191.133 77.5469V70.2695H192.188V77.2832C192.188 77.8867 192.293 78.1035 192.732 78.1035C192.961 78.1035 193.055 78.0859 193.154 78.0566L193.365 78.9473C193.178 79 192.885 79.0469 192.604 79.0469ZM194.438 79V72.4492H195.492V79H194.438ZM194.971 71.377C194.572 71.377 194.238 71.0664 194.238 70.6797C194.238 70.293 194.572 69.9824 194.971 69.9824C195.375 69.9824 195.709 70.293 195.709 70.6797C195.709 71.0664 195.375 71.377 194.971 71.377ZM198.398 75.0742V79H197.344V72.4492H198.357L198.363 74.0371H198.217C198.615 72.8301 199.377 72.3672 200.367 72.3672C201.691 72.3672 202.588 73.1816 202.588 74.8398V79H201.527V74.9277C201.527 73.9199 200.965 73.3164 200.051 73.3164C199.107 73.3164 198.398 73.9551 198.398 75.0742ZM207.199 79.1406C205.301 79.1406 204.129 77.793 204.129 75.7773C204.129 73.7676 205.289 72.3672 207.076 72.3672C208.465 72.3672 209.93 73.2227 209.93 75.6426V76.082H204.844V75.1914H209.361L208.869 75.5195C208.869 74.2305 208.26 73.3047 207.076 73.3047C205.893 73.3047 205.195 74.2832 205.195 75.3496V75.9414C205.195 77.4004 206.004 78.2031 207.205 78.2031C207.979 78.2031 208.559 77.8633 208.805 77.1953L209.824 77.4766C209.52 78.4668 208.541 79.1406 207.199 79.1406Z" fill="#535158"/>
</g>
<defs>
<filter id="filter0_dd_37095_21835" x="0" y="0" width="344" height="106" filterUnits="userSpaceOnUse" color-interpolation-filters="sRGB">
<feFlood flood-opacity="0" result="BackgroundImageFix"/>
<feColorMatrix in="SourceAlpha" type="matrix" values="0 0 0 0 0 0 0 0 0 0 0 0 0 0 0 0 0 0 127 0" result="hardAlpha"/>
<feOffset/>
<feGaussianBlur stdDeviation="1"/>
<feComposite in2="hardAlpha" operator="out"/>
<feColorMatrix type="matrix" values="0 0 0 0 0.121569 0 0 0 0 0.117647 0 0 0 0 0.141176 0 0 0 0.16 0"/>
<feBlend mode="normal" in2="BackgroundImageFix" result="effect1_dropShadow_37095_21835"/>
<feColorMatrix in="SourceAlpha" type="matrix" values="0 0 0 0 0 0 0 0 0 0 0 0 0 0 0 0 0 0 127 0" result="hardAlpha"/>
<feOffset dy="2"/>
<feGaussianBlur stdDeviation="4"/>
<feComposite in2="hardAlpha" operator="out"/>
<feColorMatrix type="matrix" values="0 0 0 0 0.121569 0 0 0 0 0.117647 0 0 0 0 0.141176 0 0 0 0.16 0"/>
<feBlend mode="normal" in2="effect1_dropShadow_37095_21835" result="effect2_dropShadow_37095_21835"/>
<feBlend mode="normal" in="SourceGraphic" in2="effect2_dropShadow_37095_21835" result="shape"/>
</filter>
</defs>
</svg>
