<svg width="288" height="158" fill="none" xmlns="http://www.w3.org/2000/svg"><g filter="url(#slot-area-do-1__a)"><rect x="8" y="6" width="272" height="142" rx="4" fill="#fff"/><rect x="8.5" y="6.5" width="271" height="141" rx="3.5" stroke="#89888D"/><rect x="24" y="52" width="240" height="8" rx="2" fill="#89888D" opacity=".5"/><rect x="24" y="76" width="240" height="8" rx="2" fill="#89888D" opacity=".5"/><rect x="24" y="100" width="240" height="8" rx="2" fill="#89888D" opacity=".5"/><rect x="24" y="124" width="123" height="8" rx="2" fill="#89888D" opacity=".5"/><path d="M25.23 37V26.814h1.3v4.403h5.345v-4.402h1.299V37h-1.299v-4.635h-5.346V37H25.23Zm13.467.164c-2.215 0-3.582-1.572-3.582-3.924 0-2.345 1.354-3.978 3.439-3.978 1.62 0 3.329.998 3.329 3.821v.513h-5.934v-1.04h5.27l-.574.384c0-1.504-.71-2.584-2.091-2.584-1.381 0-2.195 1.141-2.195 2.385v.69c0 1.703.944 2.64 2.345 2.64.902 0 1.58-.397 1.866-1.176l1.19.328c-.356 1.155-1.497 1.941-3.063 1.941Zm7.226.014c-1.45 0-2.605-.848-2.605-2.352 0-1.75 1.559-2.071 2.974-2.249 1.36-.17 1.962-.13 1.962-.697v-.041c0-.95-.54-1.497-1.6-1.497-1.1 0-1.695.588-1.934 1.12l-1.183-.389c.588-1.387 1.9-1.811 3.083-1.811 1.026 0 2.864.314 2.864 2.7V37h-1.21v-1.04h-.082c-.26.541-.977 1.218-2.27 1.218Zm.212-1.087c1.36 0 2.119-.916 2.119-1.853v-1.06c-.205.24-1.545.377-2.017.438-.895.116-1.681.404-1.681 1.272 0 .793.663 1.203 1.579 1.203Zm8.374 1.073c-1.907 0-3.234-1.531-3.234-3.965 0-2.42 1.333-3.937 3.24-3.937 1.49 0 1.962.916 2.215 1.32h.096v-3.768h1.23V37h-1.189v-1.183h-.136c-.254.424-.766 1.347-2.222 1.347Zm.184-1.1c1.388 0 2.147-1.176 2.147-2.879 0-1.688-.738-2.823-2.147-2.823-1.449 0-2.167 1.238-2.167 2.823 0 1.607.739 2.878 2.167 2.878Zm5.524.936v-7.643h1.23V37h-1.23Zm.622-8.894c-.465 0-.855-.362-.855-.813 0-.451.39-.813.855-.813.471 0 .861.362.861.813 0 .451-.39.813-.861.813Zm3.999 4.314V37h-1.23v-7.643h1.182l.007 1.853h-.171c.465-1.408 1.353-1.948 2.509-1.948 1.545 0 2.59.95 2.59 2.885V37h-1.237v-4.751c0-1.176-.656-1.88-1.722-1.88-1.101 0-1.928.745-1.928 2.05Zm10.151 7.602c-1.695 0-2.673-.718-3.144-1.56l.998-.642c.321.445.8 1.128 2.146 1.128 1.217 0 2.099-.56 2.099-1.818v-1.531h-.116c-.26.437-.745 1.278-2.222 1.278-1.832 0-3.227-1.333-3.227-3.733 0-2.365 1.347-3.882 3.254-3.882 1.477 0 1.97.909 2.229 1.32h.116v-1.225h1.196v7.841c0 1.976-1.47 2.824-3.329 2.824Zm-.034-4.239c1.388 0 2.147-.998 2.147-2.666 0-1.62-.739-2.755-2.147-2.755-1.456 0-2.18 1.23-2.18 2.755 0 1.573.744 2.666 2.18 2.666Z" fill="#3A383F"/><g style="mix-blend-mode:multiply"><path fill="#F8D8FE" d="M24.5 52.5h239v79h-239z"/><path stroke="#EC91FB" d="M24.5 52.5h239v79h-239z"/></g><path d="M118.678 97.164c-1.573 0-2.666-.697-2.94-2.017l1.169-.28c.219.841.841 1.217 1.757 1.217 1.066 0 1.75-.526 1.75-1.155 0-.527-.369-.875-1.121-1.053l-1.272-.3c-1.387-.329-2.05-1.012-2.05-2.086 0-1.312 1.203-2.228 2.83-2.228 1.572 0 2.399.765 2.748 1.839l-1.114.287c-.212-.547-.643-1.08-1.627-1.08-.91 0-1.593.471-1.593 1.107 0 .567.389.882 1.285 1.094l1.155.273c1.388.328 2.037 1.019 2.037 2.065 0 1.34-1.223 2.317-3.014 2.317Zm6.514-.11c-1.148 0-1.715-.642-1.715-1.75v-8.49h1.23v8.183c0 .704.123.957.636.957.266 0 .376-.02.492-.055l.246 1.04a3.55 3.55 0 0 1-.889.116Zm5.045.11c-2.078 0-3.479-1.579-3.479-3.937 0-2.393 1.401-3.965 3.479-3.965 2.085 0 3.493 1.572 3.493 3.965 0 2.358-1.408 3.937-3.493 3.937Zm0-1.1c1.545 0 2.249-1.333 2.249-2.837 0-1.518-.704-2.865-2.249-2.865-1.524 0-2.228 1.34-2.228 2.865 0 1.504.704 2.837 2.228 2.837Zm8.292-6.707v1.053h-3.951v-1.053h3.951Zm-2.802-1.818h1.23v7.479c0 .683.253.984.902.984.158 0 .424-.041.629-.082l.253 1.039a2.959 2.959 0 0 1-.916.137c-1.319 0-2.098-.732-2.098-1.983V87.54Zm10.452 9.639c-1.45 0-2.605-.848-2.605-2.352 0-1.75 1.559-2.071 2.974-2.249 1.36-.17 1.962-.13 1.962-.697v-.041c0-.95-.54-1.497-1.6-1.497-1.1 0-1.695.588-1.934 1.12l-1.183-.389c.588-1.387 1.9-1.811 3.083-1.811 1.025 0 2.864.314 2.864 2.7V97h-1.21v-1.04h-.082c-.26.541-.977 1.218-2.269 1.218Zm.212-1.087c1.36 0 2.119-.916 2.119-1.853v-1.06c-.205.24-1.545.377-2.017.438-.895.116-1.681.403-1.681 1.272 0 .793.663 1.203 1.579 1.203ZM151.9 97v-7.643h1.19v1.176h.082c.28-.772 1.073-1.285 1.982-1.285.178 0 .479.014.622.02v1.238a4.64 4.64 0 0 0-.738-.069c-1.1 0-1.907.746-1.907 1.778V97H151.9Zm8.258.164c-2.215 0-3.582-1.572-3.582-3.924 0-2.344 1.354-3.978 3.439-3.978 1.62 0 3.329.998 3.329 3.821v.513h-5.934v-1.04h5.271l-.575.383c0-1.503-.71-2.583-2.091-2.583-1.381 0-2.195 1.141-2.195 2.385v.69c0 1.703.944 2.64 2.345 2.64.902 0 1.579-.397 1.866-1.177l1.19.329c-.356 1.155-1.497 1.941-3.063 1.941Zm7.226.014c-1.449 0-2.605-.848-2.605-2.352 0-1.75 1.559-2.071 2.974-2.249 1.36-.17 1.962-.13 1.962-.697v-.041c0-.95-.54-1.497-1.6-1.497-1.1 0-1.695.588-1.934 1.12l-1.183-.389c.588-1.387 1.9-1.811 3.083-1.811 1.025 0 2.864.314 2.864 2.7V97h-1.21v-1.04h-.082c-.259.541-.977 1.218-2.269 1.218Zm.212-1.087c1.36 0 2.119-.916 2.119-1.853v-1.06c-.205.24-1.545.377-2.017.438-.895.116-1.681.403-1.681 1.272 0 .793.663 1.203 1.579 1.203Z" fill="#000"/></g><defs><filter id="slot-area-do-1__a" x="0" y="0" width="288" height="158" filterUnits="userSpaceOnUse" color-interpolation-filters="sRGB"><feFlood flood-opacity="0" result="BackgroundImageFix"/><feColorMatrix in="SourceAlpha" values="0 0 0 0 0 0 0 0 0 0 0 0 0 0 0 0 0 0 127 0" result="hardAlpha"/><feOffset/><feGaussianBlur stdDeviation="1"/><feComposite in2="hardAlpha" operator="out"/><feColorMatrix values="0 0 0 0 0.121569 0 0 0 0 0.117647 0 0 0 0 0.141176 0 0 0 0.16 0"/><feBlend in2="BackgroundImageFix" result="effect1_dropShadow_37518_155"/><feColorMatrix in="SourceAlpha" values="0 0 0 0 0 0 0 0 0 0 0 0 0 0 0 0 0 0 127 0" result="hardAlpha"/><feOffset dy="2"/><feGaussianBlur stdDeviation="4"/><feComposite in2="hardAlpha" operator="out"/><feColorMatrix values="0 0 0 0 0.121569 0 0 0 0 0.117647 0 0 0 0 0.141176 0 0 0 0.16 0"/><feBlend in2="effect1_dropShadow_37518_155" result="effect2_dropShadow_37518_155"/><feBlend in="SourceGraphic" in2="effect2_dropShadow_37518_155" result="shape"/></filter></defs></svg>