<svg width="312" height="182" fill="none" xmlns="http://www.w3.org/2000/svg"><g filter="url(#slot-area-do-1__a)"><g clip-path="url(#slot-area-do-1__b)"><rect x="8" y="6" width="296" height="166" rx="4" fill="#fff"/><path d="M45.352 53.137c-2.61 0-4.518-1.996-4.518-5.223 0-3.233 1.907-5.236 4.518-5.236 2.065 0 3.747 1.244 4.109 3.343h-1.299c-.287-1.395-1.483-2.14-2.81-2.14-1.831 0-3.253 1.422-3.253 4.033 0 2.605 1.428 4.02 3.254 4.02 1.332 0 2.522-.752 2.81-2.14h1.298c-.355 2.071-2.023 3.343-4.108 3.343Zm9.065.027c-2.078 0-3.48-1.579-3.48-3.937 0-2.393 1.402-3.965 3.48-3.965 2.085 0 3.493 1.572 3.493 3.965 0 2.358-1.408 3.937-3.493 3.937Zm0-1.1c1.545 0 2.249-1.334 2.249-2.837 0-1.518-.704-2.865-2.249-2.865-1.524 0-2.229 1.34-2.229 2.865 0 1.504.705 2.837 2.229 2.837Zm5.284.936v-7.643h1.197l.006 1.71h-.095c.307-1.238 1.244-1.846 2.235-1.846 1.107 0 1.812.752 2.017 1.86h-.165c.274-1.143 1.286-1.86 2.502-1.86 1.327 0 2.407.854 2.407 2.625V53h-1.238v-5.12c0-1.1-.717-1.538-1.538-1.538-1.032 0-1.66.704-1.66 1.668V53h-1.231v-5.243c0-.848-.636-1.415-1.497-1.415-.896 0-1.71.629-1.71 1.846V53h-1.23Zm12.264 2.857v-10.5h1.19v1.224h.136c.253-.403.725-1.32 2.215-1.32 1.907 0 3.24 1.518 3.24 3.938 0 2.434-1.326 3.965-3.233 3.965-1.456 0-1.97-.923-2.222-1.347h-.096v4.04h-1.23Zm3.363-3.794c1.429 0 2.167-1.271 2.167-2.878 0-1.585-.718-2.823-2.167-2.823-1.408 0-2.146 1.135-2.146 2.823 0 1.703.758 2.878 2.146 2.878Zm8.32 1.101c-2.079 0-3.48-1.579-3.48-3.937 0-2.393 1.401-3.965 3.48-3.965 2.084 0 3.493 1.572 3.493 3.965 0 2.358-1.409 3.937-3.494 3.937Zm0-1.1c1.544 0 2.249-1.334 2.249-2.837 0-1.518-.705-2.865-2.25-2.865-1.524 0-2.228 1.34-2.228 2.865 0 1.504.704 2.837 2.228 2.837Zm6.514-3.644V53h-1.23v-7.643h1.182l.007 1.853h-.17c.464-1.408 1.353-1.948 2.508-1.948 1.545 0 2.59.95 2.59 2.885V53h-1.237v-4.751c0-1.176-.656-1.88-1.722-1.88-1.1 0-1.928.745-1.928 2.05Zm10.268 4.744c-2.215 0-3.582-1.572-3.582-3.924 0-2.345 1.353-3.978 3.438-3.978 1.62 0 3.329.998 3.329 3.821v.513h-5.933v-1.04h5.27l-.574.384c0-1.505-.711-2.584-2.092-2.584-1.38 0-2.194 1.141-2.194 2.385v.69c0 1.703.943 2.64 2.345 2.64.902 0 1.579-.397 1.866-1.176l1.189.328c-.355 1.155-1.497 1.941-3.062 1.941Zm6.179-4.744V53h-1.23v-7.643h1.183l.006 1.853h-.171c.465-1.408 1.354-1.948 2.509-1.948 1.545 0 2.591.95 2.591 2.885V53h-1.237v-4.751c0-1.176-.656-1.88-1.723-1.88-1.1 0-1.928.745-1.928 2.05Zm10.063-3.063v1.053h-3.951v-1.053h3.951Zm-2.803-1.818h1.231v7.479c0 .683.253.984.902.984.157 0 .424-.041.629-.082l.253 1.039a2.964 2.964 0 0 1-.916.137c-1.32 0-2.099-.732-2.099-1.983V43.54Zm11.423 9.625c-2.078 0-3.48-1.579-3.48-3.937 0-2.393 1.402-3.965 3.48-3.965 1.477 0 2.68.779 3.097 2.112l-1.183.335c-.226-.786-.909-1.347-1.914-1.347-1.524 0-2.229 1.34-2.229 2.865 0 1.504.705 2.837 2.229 2.837 1.025 0 1.723-.582 1.948-1.409l1.176.335c-.41 1.36-1.627 2.174-3.124 2.174Zm7.998 0c-2.078 0-3.479-1.579-3.479-3.937 0-2.393 1.401-3.965 3.479-3.965 2.085 0 3.493 1.572 3.493 3.965 0 2.358-1.408 3.937-3.493 3.937Zm0-1.1c1.545 0 2.249-1.334 2.249-2.837 0-1.518-.704-2.865-2.249-2.865-1.524 0-2.228 1.34-2.228 2.865 0 1.504.704 2.837 2.228 2.837Zm6.515-3.644V53h-1.231v-7.643h1.183l.007 1.853h-.171c.465-1.408 1.353-1.948 2.509-1.948 1.544 0 2.59.95 2.59 2.885V53h-1.237v-4.751c0-1.176-.656-1.88-1.723-1.88-1.1 0-1.927.745-1.927 2.05Zm10.062-3.063v1.053h-3.951v-1.053h3.951Zm-2.803-1.818h1.231v7.479c0 .683.253.984.902.984.157 0 .424-.041.629-.082l.253 1.039a2.959 2.959 0 0 1-.916.137c-1.319 0-2.099-.732-2.099-1.983V43.54Zm7.452 9.625c-2.215 0-3.582-1.572-3.582-3.924 0-2.345 1.353-3.978 3.438-3.978 1.62 0 3.329.998 3.329 3.821v.513h-5.933v-1.04h5.27l-.574.384c0-1.505-.711-2.584-2.092-2.584-1.381 0-2.194 1.141-2.194 2.385v.69c0 1.703.943 2.64 2.344 2.64.903 0 1.58-.397 1.867-1.176l1.189.328c-.355 1.155-1.497 1.941-3.062 1.941Zm6.179-4.744V53h-1.23v-7.643h1.182l.007 1.853h-.171c.465-1.408 1.354-1.948 2.509-1.948 1.545 0 2.591.95 2.591 2.885V53h-1.237v-4.751c0-1.176-.657-1.88-1.723-1.88-1.101 0-1.928.745-1.928 2.05Zm10.063-3.063v1.053h-3.951v-1.053h3.951Zm-2.803-1.818h1.231v7.479c0 .683.252.984.902.984.157 0 .424-.041.629-.082l.253 1.039a2.964 2.964 0 0 1-.916.137c-1.32 0-2.099-.732-2.099-1.983V43.54Z" fill="#3A383F"/><mask id="slot-area-do-1__c" fill="#fff"><path fill-rule="evenodd" clip-rule="evenodd" d="M304 6H8v166h296V6Zm-24 24H32v118h248V30Z"/></mask><path fill-rule="evenodd" clip-rule="evenodd" d="M304 6H8v166h296V6Zm-24 24H32v118h248V30Z" fill="#ECF4EE"/><path d="M8 6v-.5h-.5V6H8Zm296 0h.5v-.5h-.5V6ZM8 172h-.5v.5H8v-.5Zm296 0v.5h.5v-.5h-.5ZM32 30v-.5h-.5v.5h.5Zm248 0h.5v-.5h-.5v.5ZM32 148h-.5v.5h.5v-.5Zm248 0v.5h.5v-.5h-.5ZM7.5 6v1.976h1V6h-1Zm0 5.929v3.952h1v-3.952h-1Zm0 7.904v3.953h1v-3.953h-1Zm0 7.905v3.953h1v-3.953h-1Zm0 7.905v3.952h1v-3.952h-1Zm0 7.905V47.5h1v-3.952h-1Zm0 7.904v3.953h1v-3.953h-1Zm0 7.905v3.953h1v-3.953h-1Zm0 7.905v3.952h1v-3.952h-1Zm0 7.905v3.952h1v-3.952h-1Zm0 7.904v3.953h1V83.07h-1Zm0 7.905v3.953h1v-3.953h-1Zm0 7.905v3.952h1v-3.952h-1Zm0 7.905v3.952h1v-3.952h-1Zm0 7.904v3.953h1v-3.953h-1Zm0 7.905v3.953h1v-3.953h-1Zm0 7.905v3.952h1V130.5h-1Zm0 7.905v3.952h1v-3.952h-1Zm0 7.904v3.953h1v-3.953h-1Zm0 7.905v3.953h1v-3.953h-1Zm0 7.905v3.952h1v-3.952h-1Zm0 7.905V172h1v-1.976h-1ZM8 172.5h2v-1H8v1Zm6 0h4v-1h-4v1Zm8 0h4v-1h-4v1Zm8 0h4v-1h-4v1Zm8 0h4v-1h-4v1Zm8 0h4v-1h-4v1Zm8 0h4v-1h-4v1Zm8 0h4v-1h-4v1Zm8 0h4v-1h-4v1Zm8 0h4v-1h-4v1Zm8 0h4v-1h-4v1Zm8 0h4v-1h-4v1Zm8 0h4v-1h-4v1Zm8 0h4v-1h-4v1Zm8 0h4v-1h-4v1Zm8 0h4v-1h-4v1Zm8 0h4v-1h-4v1Zm8 0h4v-1h-4v1Zm8 0h4v-1h-4v1Zm8 0h4v-1h-4v1Zm8 0h4v-1h-4v1Zm8 0h4v-1h-4v1Zm8 0h4v-1h-4v1Zm8 0h4v-1h-4v1Zm8 0h4v-1h-4v1Zm8 0h4v-1h-4v1Zm8 0h4v-1h-4v1Zm8 0h4v-1h-4v1Zm8 0h4v-1h-4v1Zm8 0h4v-1h-4v1Zm8 0h4v-1h-4v1Zm8 0h4v-1h-4v1Zm8 0h4v-1h-4v1Zm8 0h4v-1h-4v1Zm8 0h4v-1h-4v1Zm8 0h4v-1h-4v1Zm8 0h4v-1h-4v1Zm8 0h2v-1h-2v1Zm2.5-.5v-1.976h-1V172h1Zm0-5.929v-3.952h-1v3.952h1Zm0-7.904v-3.953h-1v3.953h1Zm0-7.905v-3.952h-1v3.952h1Zm0-7.905v-3.952h-1v3.952h1Zm0-7.905V130.5h-1v3.952h1Zm0-7.904v-3.953h-1v3.953h1Zm0-7.905v-3.953h-1v3.953h1Zm0-7.905v-3.952h-1v3.952h1Zm0-7.905v-3.952h-1v3.952h1Zm0-7.904v-3.953h-1v3.953h1Zm0-7.905V83.07h-1v3.953h1Zm0-7.905v-3.952h-1v3.952h1Zm0-7.905v-3.952h-1v3.952h1Zm0-7.904v-3.953h-1v3.953h1Zm0-7.905v-3.953h-1v3.953h1Zm0-7.905v-3.952h-1V47.5h1Zm0-7.905v-3.952h-1v3.952h1Zm0-7.904v-3.953h-1v3.953h1Zm0-7.905v-3.953h-1v3.953h1Zm0-7.905v-3.952h-1v3.952h1Zm0-7.905V6h-1v1.976h1ZM304 5.5h-2v1h2v-1Zm-6 0h-4v1h4v-1Zm-8 0h-4v1h4v-1Zm-8 0h-4v1h4v-1Zm-8 0h-4v1h4v-1Zm-8 0h-4v1h4v-1Zm-8 0h-4v1h4v-1Zm-8 0h-4v1h4v-1Zm-8 0h-4v1h4v-1Zm-8 0h-4v1h4v-1Zm-8 0h-4v1h4v-1Zm-8 0h-4v1h4v-1Zm-8 0h-4v1h4v-1Zm-8 0h-4v1h4v-1Zm-8 0h-4v1h4v-1Zm-8 0h-4v1h4v-1Zm-8 0h-4v1h4v-1Zm-8 0h-4v1h4v-1Zm-8 0h-4v1h4v-1Zm-8 0h-4v1h4v-1Zm-8 0h-4v1h4v-1Zm-8 0h-4v1h4v-1Zm-8 0h-4v1h4v-1Zm-8 0h-4v1h4v-1Zm-8 0h-4v1h4v-1Zm-8 0h-4v1h4v-1Zm-8 0h-4v1h4v-1Zm-8 0h-4v1h4v-1Zm-8 0h-4v1h4v-1Zm-8 0h-4v1h4v-1Zm-8 0h-4v1h4v-1Zm-8 0h-4v1h4v-1Zm-8 0h-4v1h4v-1Zm-8 0h-4v1h4v-1Zm-8 0h-4v1h4v-1Zm-8 0h-4v1h4v-1Zm-8 0h-4v1h4v-1Zm-8 0H8v1h2v-1ZM31.5 30v1.967h1V30h-1Zm0 5.9v3.933h1V35.9h-1Zm0 7.867V47.7h1v-3.933h-1Zm0 7.866v3.934h1v-3.934h-1Zm0 7.867v3.933h1V59.5h-1Zm0 7.867V71.3h1v-3.933h-1Zm0 7.866v3.934h1v-3.934h-1Zm0 7.867v3.933h1V83.1h-1Zm0 7.867V94.9h1v-3.933h-1Zm0 7.866v3.934h1v-3.934h-1Zm0 7.867v3.933h1V106.7h-1Zm0 7.867v3.933h1v-3.933h-1Zm0 7.866v3.934h1v-3.934h-1Zm0 7.867v3.933h1V130.3h-1Zm0 7.867v3.933h1v-3.933h-1Zm0 7.866V148h1v-1.967h-1Zm.5 2.467h2v-1h-2v1Zm6 0h4v-1h-4v1Zm8 0h4v-1h-4v1Zm8 0h4v-1h-4v1Zm8 0h4v-1h-4v1Zm8 0h4v-1h-4v1Zm8 0h4v-1h-4v1Zm8 0h4v-1h-4v1Zm8 0h4v-1h-4v1Zm8 0h4v-1h-4v1Zm8 0h4v-1h-4v1Zm8 0h4v-1h-4v1Zm8 0h4v-1h-4v1Zm8 0h4v-1h-4v1Zm8 0h4v-1h-4v1Zm8 0h4v-1h-4v1Zm8 0h4v-1h-4v1Zm8 0h4v-1h-4v1Zm8 0h4v-1h-4v1Zm8 0h4v-1h-4v1Zm8 0h4v-1h-4v1Zm8 0h4v-1h-4v1Zm8 0h4v-1h-4v1Zm8 0h4v-1h-4v1Zm8 0h4v-1h-4v1Zm8 0h4v-1h-4v1Zm8 0h4v-1h-4v1Zm8 0h4v-1h-4v1Zm8 0h4v-1h-4v1Zm8 0h4v-1h-4v1Zm8 0h4v-1h-4v1Zm8 0h2v-1h-2v1Zm2.5-.5v-1.967h-1V148h1Zm0-5.9v-3.933h-1v3.933h1Zm0-7.867V130.3h-1v3.933h1Zm0-7.866v-3.934h-1v3.934h1Zm0-7.867v-3.933h-1v3.933h1Zm0-7.867V106.7h-1v3.933h1Zm0-7.866v-3.934h-1v3.934h1Zm0-7.867v-3.933h-1V94.9h1Zm0-7.867V83.1h-1v3.933h1Zm0-7.866v-3.934h-1v3.934h1Zm0-7.867v-3.933h-1V71.3h1Zm0-7.867V59.5h-1v3.933h1Zm0-7.866v-3.934h-1v3.934h1Zm0-7.867v-3.933h-1V47.7h1Zm0-7.867V35.9h-1v3.933h1Zm0-7.866V30h-1v1.967h1ZM280 29.5h-2v1h2v-1Zm-6 0h-4v1h4v-1Zm-8 0h-4v1h4v-1Zm-8 0h-4v1h4v-1Zm-8 0h-4v1h4v-1Zm-8 0h-4v1h4v-1Zm-8 0h-4v1h4v-1Zm-8 0h-4v1h4v-1Zm-8 0h-4v1h4v-1Zm-8 0h-4v1h4v-1Zm-8 0h-4v1h4v-1Zm-8 0h-4v1h4v-1Zm-8 0h-4v1h4v-1Zm-8 0h-4v1h4v-1Zm-8 0h-4v1h4v-1Zm-8 0h-4v1h4v-1Zm-8 0h-4v1h4v-1Zm-8 0h-4v1h4v-1Zm-8 0h-4v1h4v-1Zm-8 0h-4v1h4v-1Zm-8 0h-4v1h4v-1Zm-8 0h-4v1h4v-1Zm-8 0h-4v1h4v-1Zm-8 0h-4v1h4v-1Zm-8 0h-4v1h4v-1Zm-8 0h-4v1h4v-1Zm-8 0h-4v1h4v-1Zm-8 0h-4v1h4v-1Zm-8 0h-4v1h4v-1Zm-8 0h-4v1h4v-1Zm-8 0h-4v1h4v-1Zm-8 0h-2v1h2v-1ZM8 6V5H7v1h1Zm296 0h1V5h-1v1ZM8 172H7v1h1v-1Zm296 0v1h1v-1h-1ZM32 30v-1h-1v1h1Zm248 0h1v-1h-1v1ZM32 148h-1v1h1v-1Zm248 0v1h1v-1h-1ZM7 6v1.976h2V6H7Zm0 5.929v3.952h2v-3.952H7Zm0 7.904v3.953h2v-3.953H7Zm0 7.905v3.953h2v-3.953H7Zm0 7.905v3.952h2v-3.952H7Zm0 7.905V47.5h2v-3.952H7Zm0 7.904v3.953h2v-3.953H7Zm0 7.905v3.953h2v-3.953H7Zm0 7.905v3.952h2v-3.952H7Zm0 7.905v3.952h2v-3.952H7Zm0 7.904v3.953h2V83.07H7Zm0 7.905v3.953h2v-3.953H7Zm0 7.905v3.952h2v-3.952H7Zm0 7.905v3.952h2v-3.952H7Zm0 7.904v3.953h2v-3.953H7Zm0 7.905v3.953h2v-3.953H7Zm0 7.905v3.952h2V130.5H7Zm0 7.905v3.952h2v-3.952H7Zm0 7.904v3.953h2v-3.953H7Zm0 7.905v3.953h2v-3.953H7Zm0 7.905v3.952h2v-3.952H7Zm0 7.905V172h2v-1.976H7ZM8 173h2v-2H8v2Zm6 0h4v-2h-4v2Zm8 0h4v-2h-4v2Zm8 0h4v-2h-4v2Zm8 0h4v-2h-4v2Zm8 0h4v-2h-4v2Zm8 0h4v-2h-4v2Zm8 0h4v-2h-4v2Zm8 0h4v-2h-4v2Zm8 0h4v-2h-4v2Zm8 0h4v-2h-4v2Zm8 0h4v-2h-4v2Zm8 0h4v-2h-4v2Zm8 0h4v-2h-4v2Zm8 0h4v-2h-4v2Zm8 0h4v-2h-4v2Zm8 0h4v-2h-4v2Zm8 0h4v-2h-4v2Zm8 0h4v-2h-4v2Zm8 0h4v-2h-4v2Zm8 0h4v-2h-4v2Zm8 0h4v-2h-4v2Zm8 0h4v-2h-4v2Zm8 0h4v-2h-4v2Zm8 0h4v-2h-4v2Zm8 0h4v-2h-4v2Zm8 0h4v-2h-4v2Zm8 0h4v-2h-4v2Zm8 0h4v-2h-4v2Zm8 0h4v-2h-4v2Zm8 0h4v-2h-4v2Zm8 0h4v-2h-4v2Zm8 0h4v-2h-4v2Zm8 0h4v-2h-4v2Zm8 0h4v-2h-4v2Zm8 0h4v-2h-4v2Zm8 0h4v-2h-4v2Zm8 0h2v-2h-2v2Zm3-1v-1.976h-2V172h2Zm0-5.929v-3.952h-2v3.952h2Zm0-7.904v-3.953h-2v3.953h2Zm0-7.905v-3.952h-2v3.952h2Zm0-7.905v-3.952h-2v3.952h2Zm0-7.905V130.5h-2v3.952h2Zm0-7.904v-3.953h-2v3.953h2Zm0-7.905v-3.953h-2v3.953h2Zm0-7.905v-3.952h-2v3.952h2Zm0-7.905v-3.952h-2v3.952h2Zm0-7.904v-3.953h-2v3.953h2Zm0-7.905V83.07h-2v3.953h2Zm0-7.905v-3.952h-2v3.952h2Zm0-7.905v-3.952h-2v3.952h2Zm0-7.904v-3.953h-2v3.953h2Zm0-7.905v-3.953h-2v3.953h2Zm0-7.905v-3.952h-2V47.5h2Zm0-7.905v-3.952h-2v3.952h2Zm0-7.904v-3.953h-2v3.953h2Zm0-7.905v-3.953h-2v3.953h2Zm0-7.905v-3.952h-2v3.952h2Zm0-7.905V6h-2v1.976h2ZM304 5h-2v2h2V5Zm-6 0h-4v2h4V5Zm-8 0h-4v2h4V5Zm-8 0h-4v2h4V5Zm-8 0h-4v2h4V5Zm-8 0h-4v2h4V5Zm-8 0h-4v2h4V5Zm-8 0h-4v2h4V5Zm-8 0h-4v2h4V5Zm-8 0h-4v2h4V5Zm-8 0h-4v2h4V5Zm-8 0h-4v2h4V5Zm-8 0h-4v2h4V5Zm-8 0h-4v2h4V5Zm-8 0h-4v2h4V5Zm-8 0h-4v2h4V5Zm-8 0h-4v2h4V5Zm-8 0h-4v2h4V5Zm-8 0h-4v2h4V5Zm-8 0h-4v2h4V5Zm-8 0h-4v2h4V5Zm-8 0h-4v2h4V5Zm-8 0h-4v2h4V5Zm-8 0h-4v2h4V5Zm-8 0h-4v2h4V5Zm-8 0h-4v2h4V5Zm-8 0h-4v2h4V5Zm-8 0h-4v2h4V5Zm-8 0h-4v2h4V5Zm-8 0h-4v2h4V5Zm-8 0h-4v2h4V5Zm-8 0h-4v2h4V5Zm-8 0h-4v2h4V5Zm-8 0h-4v2h4V5Zm-8 0h-4v2h4V5Zm-8 0h-4v2h4V5Zm-8 0h-4v2h4V5Zm-8 0H8v2h2V5Zm21 25v1.967h2V30h-2Zm0 5.9v3.933h2V35.9h-2Zm0 7.867V47.7h2v-3.933h-2Zm0 7.866v3.934h2v-3.934h-2Zm0 7.867v3.933h2V59.5h-2Zm0 7.867V71.3h2v-3.933h-2Zm0 7.866v3.934h2v-3.934h-2Zm0 7.867v3.933h2V83.1h-2Zm0 7.867V94.9h2v-3.933h-2Zm0 7.866v3.934h2v-3.934h-2Zm0 7.867v3.933h2V106.7h-2Zm0 7.867v3.933h2v-3.933h-2Zm0 7.866v3.934h2v-3.934h-2Zm0 7.867v3.933h2V130.3h-2Zm0 7.867v3.933h2v-3.933h-2Zm0 7.866V148h2v-1.967h-2ZM32 149h2v-2h-2v2Zm6 0h4v-2h-4v2Zm8 0h4v-2h-4v2Zm8 0h4v-2h-4v2Zm8 0h4v-2h-4v2Zm8 0h4v-2h-4v2Zm8 0h4v-2h-4v2Zm8 0h4v-2h-4v2Zm8 0h4v-2h-4v2Zm8 0h4v-2h-4v2Zm8 0h4v-2h-4v2Zm8 0h4v-2h-4v2Zm8 0h4v-2h-4v2Zm8 0h4v-2h-4v2Zm8 0h4v-2h-4v2Zm8 0h4v-2h-4v2Zm8 0h4v-2h-4v2Zm8 0h4v-2h-4v2Zm8 0h4v-2h-4v2Zm8 0h4v-2h-4v2Zm8 0h4v-2h-4v2Zm8 0h4v-2h-4v2Zm8 0h4v-2h-4v2Zm8 0h4v-2h-4v2Zm8 0h4v-2h-4v2Zm8 0h4v-2h-4v2Zm8 0h4v-2h-4v2Zm8 0h4v-2h-4v2Zm8 0h4v-2h-4v2Zm8 0h4v-2h-4v2Zm8 0h4v-2h-4v2Zm8 0h2v-2h-2v2Zm3-1v-1.967h-2V148h2Zm0-5.9v-3.933h-2v3.933h2Zm0-7.867V130.3h-2v3.933h2Zm0-7.866v-3.934h-2v3.934h2Zm0-7.867v-3.933h-2v3.933h2Zm0-7.867V106.7h-2v3.933h2Zm0-7.866v-3.934h-2v3.934h2Zm0-7.867v-3.933h-2V94.9h2Zm0-7.867V83.1h-2v3.933h2Zm0-7.866v-3.934h-2v3.934h2Zm0-7.867v-3.933h-2V71.3h2Zm0-7.867V59.5h-2v3.933h2Zm0-7.866v-3.934h-2v3.934h2Zm0-7.867v-3.933h-2V47.7h2Zm0-7.867V35.9h-2v3.933h2Zm0-7.866V30h-2v1.967h2ZM280 29h-2v2h2v-2Zm-6 0h-4v2h4v-2Zm-8 0h-4v2h4v-2Zm-8 0h-4v2h4v-2Zm-8 0h-4v2h4v-2Zm-8 0h-4v2h4v-2Zm-8 0h-4v2h4v-2Zm-8 0h-4v2h4v-2Zm-8 0h-4v2h4v-2Zm-8 0h-4v2h4v-2Zm-8 0h-4v2h4v-2Zm-8 0h-4v2h4v-2Zm-8 0h-4v2h4v-2Zm-8 0h-4v2h4v-2Zm-8 0h-4v2h4v-2Zm-8 0h-4v2h4v-2Zm-8 0h-4v2h4v-2Zm-8 0h-4v2h4v-2Zm-8 0h-4v2h4v-2Zm-8 0h-4v2h4v-2Zm-8 0h-4v2h4v-2Zm-8 0h-4v2h4v-2Zm-8 0h-4v2h4v-2Zm-8 0h-4v2h4v-2Zm-8 0h-4v2h4v-2Zm-8 0h-4v2h4v-2Zm-8 0h-4v2h4v-2Zm-8 0h-4v2h4v-2Zm-8 0h-4v2h4v-2Zm-8 0h-4v2h4v-2Zm-8 0h-4v2h4v-2Zm-8 0h-2v2h2v-2Z" fill="#000" mask="url(#slot-area-do-1__c)"/><path fill="#F4F0FF" d="M31.5 66.5h249v82h-249z"/><path stroke="#7B58CF" stroke-dasharray="4 4" d="M31.5 66.5h249v82h-249z"/><path transform="matrix(.95518 .29603 -.68455 .72897 35 70)" stroke="#E1D8F9" d="M0-.5h253.355"/><path transform="matrix(-.95518 .29603 .68455 .72897 277 70)" stroke="#E1D8F9" d="M0-.5h253.355"/><path d="M152.72 95.841a.75.75 0 1 0 1.06-1.06L150 91l-3.78 3.78a.75.75 0 0 0 1.06 1.061l1.97-1.97v8.19a3 3 0 0 0 3 3h4a.75.75 0 0 0 0-1.5h-4a1.5 1.5 0 0 1-1.5-1.5v-8.19l1.97 1.97ZM155 91.81a.75.75 0 0 1 .75-.75h4a3 3 0 0 1 3 3v8.19l1.97-1.97a.75.75 0 1 1 1.06 1.061l-3.78 3.78-.528-.528-.005-.004-3.247-3.248a.75.75 0 0 1 1.06-1.061l1.97 1.97v-8.19a1.5 1.5 0 0 0-1.5-1.5h-4a.75.75 0 0 1-.75-.75Z" fill="#7B58CF"/><path d="M134.73 122.152c-1.892 0-3.07-.972-3.169-2.437h1.142c.088.99 1.002 1.441 2.027 1.441 1.184 0 2.086-.621 2.086-1.552 0-.844-.796-1.155-1.728-1.418l-1.055-.299c-1.406-.399-2.226-1.119-2.226-2.28 0-1.476 1.312-2.455 3-2.455 1.722 0 2.923 1.002 2.976 2.321h-1.09c-.099-.85-.884-1.336-1.922-1.336-1.13 0-1.88.597-1.88 1.418 0 .914 1.025 1.236 1.664 1.412l.873.24c.937.258 2.472.785 2.472 2.414 0 1.43-1.154 2.531-3.17 2.531Zm6.247-.105c-.985 0-1.471-.551-1.471-1.5v-7.277h1.055v7.013c0 .604.105.821.544.821.229 0 .323-.018.422-.047l.211.89c-.187.053-.48.1-.761.1Zm4.324.094c-1.781 0-2.983-1.354-2.983-3.375 0-2.051 1.202-3.399 2.983-3.399 1.787 0 2.994 1.348 2.994 3.399 0 2.021-1.207 3.375-2.994 3.375Zm0-.944c1.324 0 1.928-1.142 1.928-2.431 0-1.301-.604-2.455-1.928-2.455-1.307 0-1.91 1.148-1.91 2.455 0 1.289.603 2.431 1.91 2.431Zm7.107-5.748v.903h-3.387v-.903h3.387Zm-2.402-1.558h1.055v6.41c0 .586.216.844.773.844.135 0 .363-.036.539-.071l.217.891a2.547 2.547 0 0 1-.785.117c-1.131 0-1.799-.627-1.799-1.699v-6.492Zm8.959 8.261c-1.242 0-2.233-.726-2.233-2.015 0-1.5 1.336-1.776 2.549-1.928 1.166-.147 1.682-.111 1.682-.598v-.035c0-.814-.463-1.283-1.371-1.283-.944 0-1.453.504-1.658.961l-1.014-.334c.504-1.19 1.629-1.553 2.642-1.553.879 0 2.456.27 2.456 2.315V122h-1.038v-.891h-.07c-.222.463-.838 1.043-1.945 1.043Zm.181-.931c1.166 0 1.817-.785 1.817-1.588v-.908c-.176.205-1.324.322-1.729.375-.767.099-1.441.345-1.441 1.089 0 .68.568 1.032 1.353 1.032Zm4.723.779v-6.551h1.02v1.008h.07c.24-.662.92-1.102 1.699-1.102.153 0 .41.012.533.018v1.061a3.919 3.919 0 0 0-.632-.059c-.944 0-1.635.639-1.635 1.523V122h-1.055Zm7.078.141c-1.898 0-3.07-1.348-3.07-3.364 0-2.009 1.16-3.41 2.947-3.41 1.389 0 2.854.856 2.854 3.276v.439h-5.086v-.891h4.517l-.492.329c0-1.29-.609-2.215-1.793-2.215-1.183 0-1.881.978-1.881 2.045v.591c0 1.459.809 2.262 2.01 2.262.774 0 1.354-.34 1.6-1.008l1.019.282c-.304.99-1.283 1.664-2.625 1.664Zm6.194.011c-1.243 0-2.233-.726-2.233-2.015 0-1.5 1.336-1.776 2.549-1.928 1.166-.147 1.682-.111 1.682-.598v-.035c0-.814-.463-1.283-1.371-1.283-.944 0-1.454.504-1.659.961l-1.013-.334c.504-1.19 1.629-1.553 2.642-1.553.879 0 2.455.27 2.455 2.315V122h-1.037v-.891h-.07c-.223.463-.838 1.043-1.945 1.043Zm.181-.931c1.166 0 1.817-.785 1.817-1.588v-.908c-.176.205-1.325.322-1.729.375-.767.099-1.441.345-1.441 1.089 0 .68.568 1.032 1.353 1.032Z" fill="#28272D"/><path d="m151.811 22 2.994-8.73h2.302l3.065 8.73h-1.957l-1.412-4.242c-.34-1.072-.674-2.35-1.061-3.873h.387c-.375 1.535-.686 2.824-1.002 3.873L153.756 22h-1.945Zm1.857-2.04v-1.388h4.652v1.389h-4.652ZM15.31 93l2.995-8.73h2.302L23.672 93h-1.957l-1.412-4.242c-.34-1.072-.674-2.35-1.06-3.873h.386c-.375 1.535-.686 2.824-1.002 3.873L17.256 93H15.31Zm1.858-2.04v-1.388h4.652v1.389h-4.652ZM288.311 93l2.994-8.73h2.302l3.065 8.73h-1.957l-1.412-4.242c-.34-1.072-.674-2.35-1.061-3.873h.387c-.375 1.535-.686 2.824-1.002 3.873L290.256 93h-1.945Zm1.857-2.04v-1.388h4.652v1.389h-4.652ZM151.811 164l2.994-8.73h2.302l3.065 8.73h-1.957l-1.412-4.242c-.34-1.072-.674-2.35-1.061-3.873h.387c-.375 1.535-.686 2.824-1.002 3.873L153.756 164h-1.945Zm1.857-2.039v-1.389h4.652v1.389h-4.652Z" fill="#24663B"/></g><rect x="8.5" y="6.5" width="295" height="165" rx="3.5" stroke="#89888D"/></g><defs><clipPath id="slot-area-do-1__b"><rect x="8" y="6" width="296" height="166" rx="4" fill="#fff"/></clipPath><filter id="slot-area-do-1__a" x="0" y="0" width="312" height="182" filterUnits="userSpaceOnUse" color-interpolation-filters="sRGB"><feFlood flood-opacity="0" result="BackgroundImageFix"/><feColorMatrix in="SourceAlpha" values="0 0 0 0 0 0 0 0 0 0 0 0 0 0 0 0 0 0 127 0" result="hardAlpha"/><feOffset/><feGaussianBlur stdDeviation="1"/><feComposite in2="hardAlpha" operator="out"/><feColorMatrix values="0 0 0 0 0.121569 0 0 0 0 0.117647 0 0 0 0 0.141176 0 0 0 0.16 0"/><feBlend in2="BackgroundImageFix" result="effect1_dropShadow_37548_2"/><feColorMatrix in="SourceAlpha" values="0 0 0 0 0 0 0 0 0 0 0 0 0 0 0 0 0 0 127 0" result="hardAlpha"/><feOffset dy="2"/><feGaussianBlur stdDeviation="4"/><feComposite in2="hardAlpha" operator="out"/><feColorMatrix values="0 0 0 0 0.121569 0 0 0 0 0.117647 0 0 0 0 0.141176 0 0 0 0.16 0"/><feBlend in2="effect1_dropShadow_37548_2" result="effect2_dropShadow_37548_2"/><feBlend in="SourceGraphic" in2="effect2_dropShadow_37548_2" result="shape"/></filter></defs></svg>