<svg width="110" height="80" viewBox="0 0 110 80" fill="none" xmlns="http://www.w3.org/2000/svg">
<path fill-rule="evenodd" clip-rule="evenodd" d="M60 80C77.6731 80 92 65.6731 92 48C92 30.3269 77.6731 16 60 16C42.3269 16 28 30.3269 28 48C28 65.6731 42.3269 80 60 80ZM60 76C75.464 76 88 63.464 88 48C88 32.536 75.464 20 60 20C44.536 20 32 32.536 32 48C32 63.464 44.536 76 60 76Z" fill="#DBDBDB"/>
<path d="M92 48C92 30.3269 77.6731 16 60 16V20C75.464 20 88 32.536 88 48H92Z" fill="#525252"/>
<circle cx="90" cy="20" r="16" fill="#7B58CF"/>
<circle cx="90" cy="20" r="18" stroke="#7B58CF" stroke-opacity="0.3" stroke-width="4"/>
<path d="M87.8555 24.5059H93.8848V26H85.9131V24.5059C87.0088 23.3516 87.9668 22.332 88.7871 21.4473C89.6074 20.5625 90.1729 19.9385 90.4834 19.5752C91.0693 18.8604 91.4648 18.2832 91.6699 17.8438C91.875 17.3984 91.9775 16.9443 91.9775 16.4814C91.9775 15.749 91.7607 15.1748 91.3271 14.7588C90.8994 14.3428 90.3105 14.1348 89.5605 14.1348C89.0273 14.1348 88.4678 14.2314 87.8818 14.4248C87.2959 14.6182 86.6748 14.9111 86.0186 15.3037V13.5107C86.6221 13.2236 87.2139 13.0068 87.7939 12.8604C88.3799 12.7139 88.957 12.6406 89.5254 12.6406C90.8086 12.6406 91.8398 12.9834 92.6191 13.6689C93.4043 14.3486 93.7969 15.2422 93.7969 16.3496C93.7969 16.9121 93.665 17.4746 93.4014 18.0371C93.1436 18.5996 92.7217 19.2207 92.1357 19.9004C91.8076 20.2812 91.3301 20.8086 90.7031 21.4824C90.082 22.1562 89.1328 23.1641 87.8555 24.5059Z" fill="white"/>
<circle cx="20" cy="48" r="16" fill="#7B58CF"/>
<circle cx="20" cy="48" r="18" stroke="#7B58CF" stroke-opacity="0.3" stroke-width="4"/>
<path d="M16.9502 52.5146H19.71V42.6006L16.4053 44.1914V42.4863L19.6924 40.9219H21.4678V52.5146H24.1924V54H16.9502V52.5146Z" fill="white"/>
</svg>
