<svg width="123" height="85" fill="none" xmlns="http://www.w3.org/2000/svg"><g clip-path="url(#spinner-structure__a)"><path fill-rule="evenodd" clip-rule="evenodd" d="M68 85c17.673 0 32-14.327 32-32 0-17.673-14.327-32-32-32-17.673 0-32 14.327-32 32 0 17.673 14.327 32 32 32Zm0-4c15.464 0 28-12.536 28-28S83.464 25 68 25 40 37.536 40 53s12.536 28 28 28Z" fill="#DBDBDB"/><path d="M100 53c0-17.673-14.327-32-32-32v4c15.464 0 28 12.536 28 28h4Z" fill="#535158"/><circle cx="103" cy="20" r="16" fill="#7B58CF"/><circle cx="103" cy="20" r="18" stroke="#7B58CF" stroke-opacity=".3" stroke-width="4"/><path d="M99.151 26v-1.494l4.375-4.68c.636-.672 1.086-1.272 1.35-1.8s.396-1.044.396-1.548c0-.72-.21-1.29-.63-1.71-.408-.432-.966-.648-1.674-.648-.732 0-1.314.222-1.746.666-.42.432-.63 1.02-.63 1.764h-1.62c.024-.792.204-1.476.54-2.052a3.412 3.412 0 0 1 1.386-1.35c.588-.312 1.278-.468 2.07-.468.816 0 1.518.156 2.106.468a3.325 3.325 0 0 1 1.368 1.332c.324.564.486 1.236.486 2.016 0 .624-.174 1.284-.522 1.98-.336.696-.918 1.476-1.746 2.34l-3.546 3.708h5.976V26h-7.939Z" fill="#fff"/><circle cx="20" cy="53" r="16" fill="#7B58CF"/><circle cx="20" cy="53" r="18" stroke="#7B58CF" stroke-opacity=".3" stroke-width="4"/><path d="M16.224 59v-1.476h3.564v-10.26l-3.564 2.664v-1.854l2.97-2.214h2.213v11.664h2.916V59h-8.1Z" fill="#fff"/></g><defs><clipPath id="spinner-structure__a"><path fill="#fff" d="M0 0h123v85H0z"/></clipPath></defs></svg>