<svg width="123" height="85" viewBox="0 0 123 85" fill="none" xmlns="http://www.w3.org/2000/svg">
<g clip-path="url(#clip0_687_12555)">
<path fill-rule="evenodd" clip-rule="evenodd" d="M68 85C85.6731 85 100 70.6731 100 53C100 35.3269 85.6731 21 68 21C50.3269 21 36 35.3269 36 53C36 70.6731 50.3269 85 68 85ZM68 81C83.464 81 96 68.464 96 53C96 37.536 83.464 25 68 25C52.536 25 40 37.536 40 53C40 68.464 52.536 81 68 81Z" fill="#DBDBDB"/>
<path d="M100 53C100 35.3269 85.6731 21 68 21V25C83.464 25 96 37.536 96 53H100Z" fill="#535158"/>
<circle cx="103" cy="20" r="16" fill="#7B58CF"/>
<circle cx="103" cy="20" r="18" stroke="#7B58CF" stroke-opacity="0.3" stroke-width="4"/>
<path d="M99.1515 26V24.506L103.526 19.826C104.162 19.154 104.612 18.554 104.876 18.026C105.14 17.498 105.272 16.982 105.272 16.478C105.272 15.758 105.062 15.188 104.642 14.768C104.234 14.336 103.676 14.12 102.968 14.12C102.236 14.12 101.654 14.342 101.222 14.786C100.802 15.218 100.592 15.806 100.592 16.55H98.9715C98.9955 15.758 99.1755 15.074 99.5115 14.498C99.8475 13.91 100.31 13.46 100.898 13.148C101.486 12.836 102.176 12.68 102.968 12.68C103.784 12.68 104.486 12.836 105.074 13.148C105.662 13.46 106.118 13.904 106.442 14.48C106.766 15.044 106.928 15.716 106.928 16.496C106.928 17.12 106.754 17.78 106.406 18.476C106.07 19.172 105.488 19.952 104.66 20.816L101.114 24.524H107.09V26H99.1515Z" fill="white"/>
<circle cx="20" cy="53" r="16" fill="#7B58CF"/>
<circle cx="20" cy="53" r="18" stroke="#7B58CF" stroke-opacity="0.3" stroke-width="4"/>
<path d="M16.2235 59V57.524H19.7875V47.264L16.2235 49.928V48.074L19.1935 45.86H21.4075V57.524H24.3235V59H16.2235Z" fill="white"/>
</g>
<defs>
<clipPath id="clip0_687_12555">
<rect width="123" height="85" fill="white"/>
</clipPath>
</defs>
</svg>
