<svg width="670" height="366" viewBox="0 0 670 366" fill="none" xmlns="http://www.w3.org/2000/svg">
<rect width="670" height="366" fill="white"/>
<circle cx="32" cy="183" r="16" fill="#7B58CF"/>
<circle cx="32" cy="183" r="18" stroke="#7B58CF" stroke-opacity="0.3" stroke-width="4"/>
<path d="M28.9502 187.515H31.71V177.601L28.4053 179.191V177.486L31.6924 175.922H33.4678V187.515H36.1924V189H28.9502V187.515Z" fill="white"/>
<circle cx="638" cy="59" r="16" fill="#7B58CF"/>
<circle cx="638" cy="59" r="18" stroke="#7B58CF" stroke-opacity="0.3" stroke-width="4"/>
<path d="M635.855 63.5059H641.885V65H633.913V63.5059C635.009 62.3516 635.967 61.332 636.787 60.4473C637.607 59.5625 638.173 58.9385 638.483 58.5752C639.069 57.8604 639.465 57.2832 639.67 56.8438C639.875 56.3984 639.978 55.9443 639.978 55.4814C639.978 54.749 639.761 54.1748 639.327 53.7588C638.899 53.3428 638.311 53.1348 637.561 53.1348C637.027 53.1348 636.468 53.2314 635.882 53.4248C635.296 53.6182 634.675 53.9111 634.019 54.3037V52.5107C634.622 52.2236 635.214 52.0068 635.794 51.8604C636.38 51.7139 636.957 51.6406 637.525 51.6406C638.809 51.6406 639.84 51.9834 640.619 52.6689C641.404 53.3486 641.797 54.2422 641.797 55.3496C641.797 55.9121 641.665 56.4746 641.401 57.0371C641.144 57.5996 640.722 58.2207 640.136 58.9004C639.808 59.2812 639.33 59.8086 638.703 60.4824C638.082 61.1562 637.133 62.1641 635.855 63.5059Z" fill="white"/>
<circle cx="638" cy="225" r="16" fill="#7B58CF"/>
<circle cx="638" cy="225" r="18" stroke="#7B58CF" stroke-opacity="0.3" stroke-width="4"/>
<path d="M639.397 223.978C640.259 224.206 640.918 224.613 641.375 225.199C641.832 225.779 642.061 226.506 642.061 227.379C642.061 228.586 641.653 229.535 640.839 230.227C640.03 230.912 638.908 231.255 637.473 231.255C636.869 231.255 636.254 231.199 635.627 231.088C635 230.977 634.385 230.815 633.781 230.604V228.838C634.379 229.148 634.968 229.38 635.548 229.532C636.128 229.685 636.705 229.761 637.279 229.761C638.252 229.761 638.999 229.541 639.521 229.102C640.042 228.662 640.303 228.029 640.303 227.203C640.303 226.441 640.042 225.838 639.521 225.393C638.999 224.941 638.293 224.716 637.402 224.716H636.049V223.257H637.402C638.217 223.257 638.853 223.078 639.31 222.721C639.767 222.363 639.995 221.865 639.995 221.227C639.995 220.553 639.781 220.037 639.354 219.68C638.932 219.316 638.328 219.135 637.543 219.135C637.021 219.135 636.482 219.193 635.926 219.311C635.369 219.428 634.786 219.604 634.177 219.838V218.203C634.886 218.016 635.516 217.875 636.066 217.781C636.623 217.688 637.115 217.641 637.543 217.641C638.82 217.641 639.84 217.963 640.602 218.607C641.369 219.246 641.753 220.096 641.753 221.156C641.753 221.877 641.551 222.478 641.146 222.958C640.748 223.438 640.165 223.778 639.397 223.978Z" fill="white"/>
<line x1="47" y1="183" x2="56" y2="183" stroke="#7B58CF" stroke-width="2" stroke-linecap="round"/>
<line x1="614" y1="59" x2="623" y2="59" stroke="#7B58CF" stroke-width="2" stroke-linecap="round"/>
<line x1="614" y1="225" x2="623" y2="225" stroke="#7B58CF" stroke-width="2" stroke-linecap="round"/>
<path d="M63 16H57V350H63" stroke="#7B58CF" stroke-width="2" stroke-linecap="round" stroke-linejoin="round"/>
<path d="M607 24H613V94H607" stroke="#7B58CF" stroke-width="2" stroke-linecap="round" stroke-linejoin="round"/>
<path d="M607 108H613V342H607" stroke="#7B58CF" stroke-width="2" stroke-linecap="round" stroke-linejoin="round"/>
<path fill-rule="evenodd" clip-rule="evenodd" d="M89.7803 119.22C89.4874 118.927 89.0126 118.927 88.7197 119.22L83.4678 124.472C83.1749 124.764 83.1749 125.239 83.4678 125.532L88.7197 130.784C89.0126 131.077 89.4874 131.077 89.7803 130.784C90.0732 130.491 90.0732 130.016 89.7803 129.723L85.0588 125.002L89.7803 120.28C90.0732 119.987 90.0732 119.513 89.7803 119.22Z" fill="#737278"/>
<path fill-rule="evenodd" clip-rule="evenodd" d="M89.7803 314.22C89.4874 313.927 89.0126 313.927 88.7197 314.22L83.4678 319.472C83.1749 319.764 83.1749 320.239 83.4678 320.532L88.7197 325.784C89.0126 326.077 89.4874 326.077 89.7803 325.784C90.0732 325.491 90.0732 325.016 89.7803 324.723L85.0588 320.002L89.7803 315.28C90.0732 314.987 90.0732 314.513 89.7803 314.22Z" fill="#737278"/>
<rect x="79" y="157" width="298" height="18" rx="2" fill="#A4A3A8"/>
<rect x="79" y="209" width="398" height="6" rx="2" fill="#BFBFC3"/>
<rect x="79" y="245" width="370" height="6" rx="2" fill="#BFBFC3"/>
<rect x="79" y="227" width="296" height="6" rx="2" fill="#BFBFC3"/>
<rect x="79" y="191" width="133" height="6" rx="2" fill="#BFBFC3"/>
<rect x="549" y="122" width="42" height="6" rx="2" fill="#BFBFC3"/>
<rect x="79" y="263" width="438" height="6" rx="2" fill="#BFBFC3"/>
<rect x="79" y="281" width="218" height="6" rx="2" fill="#BFBFC3"/>
<rect x="534" y="311" width="54" height="18" rx="3" fill="#1F75CB"/>
<rect x="488" y="312" width="41" height="16" rx="2" stroke="#A4A3A8" stroke-width="2"/>
<rect x="109" y="54" width="74" height="8" rx="2" fill="#535158"/>
<circle cx="91" cy="58" r="12" fill="#535158"/>
<rect width="82" height="8" transform="translate(237 54)" fill="white"/>
<rect x="245" y="54" width="74" height="8" rx="2" fill="#89888D"/>
<circle cx="227" cy="58" r="12" fill="#89888D"/>
<rect width="82" height="8" transform="translate(373 54)" fill="white"/>
<rect x="381" y="54" width="74" height="8" rx="2" fill="#89888D"/>
<circle cx="363" cy="58" r="12" fill="#89888D"/>
<rect width="82" height="8" transform="translate(509 54)" fill="white"/>
<rect x="517" y="54" width="74" height="8" rx="2" fill="#89888D"/>
<circle cx="499" cy="58" r="12" fill="#89888D"/>
<rect x="79" y="93" width="512" height="1" fill="#DCDCDE"/>
</svg>
