<svg width="642" height="336" viewBox="0 0 642 336" fill="none" xmlns="http://www.w3.org/2000/svg">
<rect width="642" height="336" fill="white"/>
<path fill-rule="evenodd" clip-rule="evenodd" d="M76.7803 299.22C76.4874 298.927 76.0126 298.927 75.7197 299.22L70.4678 304.472C70.1749 304.764 70.1749 305.239 70.4678 305.532L75.7197 310.784C76.0126 311.077 76.4874 311.077 76.7803 310.784C77.0732 310.491 77.0732 310.016 76.7803 309.723L72.0588 305.002L76.7803 300.28C77.0732 299.987 77.0732 299.513 76.7803 299.22Z" fill="#737278"/>
<rect x="464" y="297" width="52" height="16" rx="2" fill="white"/>
<rect x="464" y="297" width="52" height="16" rx="2" stroke="#A4A3A8" stroke-width="2"/>
<rect x="521" y="296" width="54" height="18" rx="3" fill="#1F75CB"/>
<rect x="66" y="176" width="133" height="6" rx="2" fill="#BFBFC3"/>
<rect x="66" y="194" width="398" height="6" rx="2" fill="#BFBFC3"/>
<rect x="66" y="212" width="296" height="6" rx="2" fill="#BFBFC3"/>
<rect x="66" y="230" width="370" height="6" rx="2" fill="#BFBFC3"/>
<rect x="66" y="248" width="438" height="6" rx="2" fill="#BFBFC3"/>
<rect x="66" y="266" width="218" height="6" rx="2" fill="#BFBFC3"/>
<rect x="536" y="107" width="42" height="6" rx="2" fill="#BFBFC3"/>
<rect x="66" y="142" width="298" height="18" rx="2" fill="#A4A3A8"/>
<path fill-rule="evenodd" clip-rule="evenodd" d="M76.7803 104.22C76.4874 103.927 76.0126 103.927 75.7197 104.22L70.4678 109.472C70.1749 109.764 70.1749 110.239 70.4678 110.532L75.7197 115.784C76.0126 116.077 76.4874 116.077 76.7803 115.784C77.0732 115.491 77.0732 115.016 76.7803 114.723L72.0588 110.002L76.7803 105.28C77.0732 104.987 77.0732 104.513 76.7803 104.22Z" fill="#737278"/>
<rect x="66" y="78" width="512" height="1" fill="#DCDCDE"/>
<rect x="504" y="39" width="74" height="8" rx="2" fill="#89888D"/>
<circle cx="486" cy="43" r="12" fill="#89888D"/>
<rect x="368" y="39" width="74" height="8" rx="2" fill="#89888D"/>
<circle cx="350" cy="43" r="12" fill="#89888D"/>
<rect x="232" y="39" width="74" height="8" rx="2" fill="#89888D"/>
<circle cx="214" cy="43" r="12" fill="#89888D"/>
<rect x="96" y="39" width="74" height="8" rx="2" fill="#535158"/>
<circle cx="78" cy="43" r="12" fill="#535158"/>
<line x1="579" y1="93" x2="593" y2="93" stroke="#7B58CF" stroke-width="2" stroke-linecap="round"/>
<line x1="593" y1="93" x2="593" y2="327" stroke="#7B58CF" stroke-width="2" stroke-linecap="round"/>
<line x1="579" y1="327" x2="593" y2="327" stroke="#7B58CF" stroke-width="2" stroke-linecap="round"/>
<line x1="593" y1="210" x2="612" y2="210" stroke="#7B58CF" stroke-width="2" stroke-linecap="round"/>
<circle cx="622" cy="210" r="16" fill="#7B58CF"/>
<circle cx="622" cy="210" r="18" stroke="#7B58CF" stroke-opacity="0.3" stroke-width="4"/>
<path d="M621.806 216.18C620.594 216.18 619.634 215.844 618.926 215.172C618.218 214.488 617.864 213.564 617.864 212.4H619.484C619.484 213.12 619.694 213.69 620.114 214.11C620.534 214.53 621.104 214.74 621.824 214.74C622.544 214.74 623.114 214.53 623.534 214.11C623.954 213.69 624.164 213.12 624.164 212.4V211.5C624.164 210.78 623.954 210.21 623.534 209.79C623.114 209.37 622.544 209.16 621.824 209.16H620.402V207.756L623.624 204.336H618.224V202.86H625.46V204.372L621.86 208.206V207.72C623.072 207.72 624.026 208.062 624.722 208.746C625.43 209.418 625.784 210.336 625.784 211.5V212.4C625.784 213.564 625.424 214.488 624.704 215.172C623.996 215.844 623.03 216.18 621.806 216.18Z" fill="white"/>
<line x1="579" y1="79" x2="593" y2="79" stroke="#7B58CF" stroke-width="2" stroke-linecap="round"/>
<line x1="579" y1="9" x2="593" y2="9" stroke="#7B58CF" stroke-width="2" stroke-linecap="round"/>
<line x1="593" y1="9" x2="593" y2="79" stroke="#7B58CF" stroke-width="2" stroke-linecap="round"/>
<line x1="593" y1="44" x2="612" y2="44" stroke="#7B58CF" stroke-width="2" stroke-linecap="round"/>
<circle cx="622" cy="44" r="16" fill="#7B58CF"/>
<circle cx="622" cy="44" r="18" stroke="#7B58CF" stroke-opacity="0.3" stroke-width="4"/>
<path d="M618.152 50V48.506L622.526 43.826C623.162 43.154 623.612 42.554 623.876 42.026C624.14 41.498 624.272 40.982 624.272 40.478C624.272 39.758 624.062 39.188 623.642 38.768C623.234 38.336 622.676 38.12 621.968 38.12C621.236 38.12 620.654 38.342 620.222 38.786C619.802 39.218 619.592 39.806 619.592 40.55H617.972C617.996 39.758 618.176 39.074 618.512 38.498C618.848 37.91 619.31 37.46 619.898 37.148C620.486 36.836 621.176 36.68 621.968 36.68C622.784 36.68 623.486 36.836 624.074 37.148C624.662 37.46 625.118 37.904 625.442 38.48C625.766 39.044 625.928 39.716 625.928 40.496C625.928 41.12 625.754 41.78 625.406 42.476C625.07 43.172 624.488 43.952 623.66 44.816L620.114 48.524H626.09V50H618.152Z" fill="white"/>
<line x1="51" y1="1" x2="65" y2="1" stroke="#7B58CF" stroke-width="2" stroke-linecap="round"/>
<line x1="51" y1="1" x2="51" y2="335" stroke="#7B58CF" stroke-width="2" stroke-linecap="round"/>
<line x1="51" y1="335" x2="65" y2="335" stroke="#7B58CF" stroke-width="2" stroke-linecap="round"/>
<line x1="32" y1="168" x2="51" y2="168" stroke="#7B58CF" stroke-width="2" stroke-linecap="round"/>
<circle cx="20" cy="168" r="16" fill="#7B58CF"/>
<circle cx="20" cy="168" r="18" stroke="#7B58CF" stroke-opacity="0.3" stroke-width="4"/>
<path d="M16.2235 174V172.524H19.7875V162.264L16.2235 164.928V163.074L19.1935 160.86H21.4075V172.524H24.3235V174H16.2235Z" fill="white"/>
</svg>
