<svg width="642" height="336" fill="none" xmlns="http://www.w3.org/2000/svg"><path fill="#fff" d="M0 0h642v336H0z"/><path fill-rule="evenodd" clip-rule="evenodd" d="M76.78 299.22a.75.75 0 0 0-1.06 0l-5.252 5.252a.75.75 0 0 0 0 1.06l5.252 5.252a.75.75 0 1 0 1.06-1.061l-4.721-4.721 4.721-4.722a.75.75 0 0 0 0-1.06Z" fill="#737278"/><rect x="464" y="297" width="52" height="16" rx="2" fill="#fff"/><rect x="464" y="297" width="52" height="16" rx="2" stroke="#A4A3A8" stroke-width="2"/><rect x="521" y="296" width="54" height="18" rx="3" fill="#1F75CB"/><rect x="66" y="176" width="133" height="6" rx="2" fill="#BFBFC3"/><rect x="66" y="194" width="398" height="6" rx="2" fill="#BFBFC3"/><rect x="66" y="212" width="296" height="6" rx="2" fill="#BFBFC3"/><rect x="66" y="230" width="370" height="6" rx="2" fill="#BFBFC3"/><rect x="66" y="248" width="438" height="6" rx="2" fill="#BFBFC3"/><rect x="66" y="266" width="218" height="6" rx="2" fill="#BFBFC3"/><rect x="536" y="107" width="42" height="6" rx="2" fill="#BFBFC3"/><rect x="66" y="142" width="298" height="18" rx="2" fill="#A4A3A8"/><path fill-rule="evenodd" clip-rule="evenodd" d="M76.78 104.22a.75.75 0 0 0-1.06 0l-5.252 5.252a.75.75 0 0 0 0 1.06l5.252 5.252a.75.75 0 1 0 1.06-1.061l-4.721-4.721 4.721-4.722a.75.75 0 0 0 0-1.06Z" fill="#737278"/><path fill="#DCDCDE" d="M66 78h512v1H66z"/><rect x="504" y="39" width="74" height="8" rx="2" fill="#89888D"/><circle cx="486" cy="43" r="12" fill="#89888D"/><rect x="368" y="39" width="74" height="8" rx="2" fill="#89888D"/><circle cx="350" cy="43" r="12" fill="#89888D"/><rect x="232" y="39" width="74" height="8" rx="2" fill="#89888D"/><circle cx="214" cy="43" r="12" fill="#89888D"/><rect x="96" y="39" width="74" height="8" rx="2" fill="#535158"/><circle cx="78" cy="43" r="12" fill="#535158"/><path stroke="#7B58CF" stroke-width="2" stroke-linecap="round" d="M579 93h14m0 0v234m-14 0h14m0-117h19"/><circle cx="622" cy="210" r="16" fill="#7B58CF"/><circle cx="622" cy="210" r="18" stroke="#7B58CF" stroke-opacity=".3" stroke-width="4"/><path d="M621.806 216.18c-1.212 0-2.172-.336-2.88-1.008-.708-.684-1.062-1.608-1.062-2.772h1.62c0 .72.21 1.29.63 1.71.42.42.99.63 1.71.63s1.29-.21 1.71-.63c.42-.42.63-.99.63-1.71v-.9c0-.72-.21-1.29-.63-1.71-.42-.42-.99-.63-1.71-.63h-1.422v-1.404l3.222-3.42h-5.4v-1.476h7.236v1.512l-3.6 3.834v-.486c1.212 0 2.166.342 2.862 1.026.708.672 1.062 1.59 1.062 2.754v.9c0 1.164-.36 2.088-1.08 2.772-.708.672-1.674 1.008-2.898 1.008Z" fill="#fff"/><path stroke="#7B58CF" stroke-width="2" stroke-linecap="round" d="M579 79h14M579 9h14m0 0v70m0-35h19"/><circle cx="622" cy="44" r="16" fill="#7B58CF"/><circle cx="622" cy="44" r="18" stroke="#7B58CF" stroke-opacity=".3" stroke-width="4"/><path d="M618.152 50v-1.494l4.374-4.68c.636-.672 1.086-1.272 1.35-1.8s.396-1.044.396-1.548c0-.72-.21-1.29-.63-1.71-.408-.432-.966-.648-1.674-.648-.732 0-1.314.222-1.746.666-.42.432-.63 1.02-.63 1.764h-1.62c.024-.792.204-1.476.54-2.052a3.41 3.41 0 0 1 1.386-1.35c.588-.312 1.278-.468 2.07-.468.816 0 1.518.156 2.106.468a3.325 3.325 0 0 1 1.368 1.332c.324.564.486 1.236.486 2.016 0 .624-.174 1.284-.522 1.98-.336.696-.918 1.476-1.746 2.34l-3.546 3.708h5.976V50h-7.938Z" fill="#fff"/><path stroke="#7B58CF" stroke-width="2" stroke-linecap="round" d="M51 1h14M51 1v334m0 0h14M32 168h19"/><circle cx="20" cy="168" r="16" fill="#7B58CF"/><circle cx="20" cy="168" r="18" stroke="#7B58CF" stroke-opacity=".3" stroke-width="4"/><path d="M16.224 174v-1.476h3.564v-10.26l-3.564 2.664v-1.854l2.97-2.214h2.213v11.664h2.916V174h-8.1Z" fill="#fff"/></svg>