<svg width="342" height="171" fill="none" xmlns="http://www.w3.org/2000/svg"><path fill="#fff" d="M0 0h342v171H0z"/><path fill-rule="evenodd" clip-rule="evenodd" d="M316 36c5.523 0 10-4.477 10-10s-4.477-10-10-10-10 4.477-10 10 4.477 10 10 10Zm-4.634-14.634a1.25 1.25 0 0 1 1.768 0L316 24.232l2.866-2.866a1.25 1.25 0 0 1 1.768 1.768L317.768 26l2.866 2.866a1.25 1.25 0 0 1-1.768 1.768L316 27.768l-2.866 2.866a1.25 1.25 0 0 1-1.768-1.768L314.232 26l-2.866-2.866a1.249 1.249 0 0 1 0-1.768Z" fill="#DD2B0E"/><path d="M309 44H16v1h293v-1Z" fill="#BFBFBF"/><rect x="17" y="57" width="14" height="14" rx="2" stroke="#BFBFBF" stroke-width="2"/><circle cx="56" cy="72" r="16" fill="#C4C4C4"/><rect x="76" y="56" width="54" height="8" rx="2" fill="#BFBFBF"/><rect x="146" y="56" width="92" height="8" rx="2" fill="#BFBFBF"/><rect x="254" y="56" width="42" height="16" rx="2" fill="#BFBFBF"/><path d="M309 99H16v1h293v-1Z" fill="#BFBFBF"/><rect x="17" y="112" width="14" height="14" rx="2" stroke="#BFBFBF" stroke-width="2"/><circle cx="56" cy="127" r="16" fill="#C4C4C4"/><rect x="76" y="111" width="54" height="8" rx="2" fill="#BFBFBF"/><rect x="146" y="111" width="92" height="8" rx="2" fill="#BFBFBF"/><rect x="254" y="111" width="42" height="16" rx="2" fill="#BFBFBF"/><path d="M309 154H16v1h293v-1Z" fill="#BFBFBF"/><path d="M16 73h294" stroke="#DD2B0E" stroke-width="2" stroke-linejoin="round"/></svg>
