<svg width="344" height="171" fill="none" xmlns="http://www.w3.org/2000/svg"><path fill="#fff" d="M0 0h344v171H0z"/><path d="M318 36c5.523 0 10-4.477 10-10s-4.477-10-10-10-10 4.477-10 10 4.477 10 10 10Z" fill="#17AA55"/><path d="m314 26.069 2.98 2.98L323.03 23" stroke="#fff" stroke-width="2" stroke-linecap="round"/><path d="M312 44H19v1h293v-1Z" fill="#BFBFBF"/><rect x="20" y="65" width="14" height="14" rx="2" stroke="#BFBFBF" stroke-width="2"/><circle cx="59" cy="72" r="16" fill="#C4C4C4"/><rect x="79" y="68" width="54" height="8" rx="2" fill="#BFBFBF"/><rect x="149" y="68" width="92" height="8" rx="2" fill="#BFBFBF"/><rect x="257" y="64" width="42" height="16" rx="2" fill="#BFBFBF"/><path d="M312 99H19v1h293v-1Z" fill="#BFBFBF"/><rect x="20" y="120" width="14" height="14" rx="2" stroke="#BFBFBF" stroke-width="2"/><circle cx="59" cy="127" r="16" fill="#C4C4C4"/><rect x="79" y="123" width="54" height="8" rx="2" fill="#BFBFBF"/><rect x="149" y="123" width="92" height="8" rx="2" fill="#BFBFBF"/><rect x="257" y="119" width="42" height="16" rx="2" fill="#BFBFBF"/><path d="M312 154H19v1h293v-1Z" fill="#BFBFBF"/><path d="M16 72h294" stroke="#2DA160" stroke-width="2" stroke-linejoin="round"/></svg>
