<svg width="300" height="111" fill="none" xmlns="http://www.w3.org/2000/svg"><path fill="#fff" d="M0 0h300v111H0z"/><path d="M299 0H6v1h293V0Z" fill="#BFBFBF"/><rect x="7" y="21" width="14" height="14" rx="2" stroke="#BFBFBF" stroke-width="2"/><circle cx="46" cy="28" r="16" fill="#C4C4C4"/><rect x="66" y="24" width="54" height="8" rx="2" fill="#BFBFBF"/><rect x="136" y="24" width="92" height="8" rx="2" fill="#BFBFBF"/><rect x="244" y="20" width="42" height="16" rx="2" fill="#BFBFBF"/><path d="M299 55H6v1h293v-1Z" fill="#BFBFBF"/><rect x="7" y="76" width="14" height="14" rx="2" stroke="#BFBFBF" stroke-width="2"/><circle cx="46" cy="83" r="16" fill="#C4C4C4"/><rect x="66" y="79" width="54" height="8" rx="2" fill="#BFBFBF"/><rect x="136" y="79" width="92" height="8" rx="2" fill="#BFBFBF"/><rect x="244" y="75" width="42" height="16" rx="2" fill="#BFBFBF"/><path d="M299 110H6v1h293v-1Z" fill="#BFBFBF"/><path d="M3 28h294" stroke="#2DA160" stroke-width="2" stroke-linejoin="round"/><path fill-rule="evenodd" clip-rule="evenodd" d="M287 107a8 8 0 1 0 0-16 8 8 0 0 0 0 16Zm3.707-9.293a1 1 0 1 0-1.414-1.414L286 99.586l-1.293-1.293a1 1 0 1 0-1.414 1.414l2 2a.999.999 0 0 0 1.414 0l4-4Z" fill="#108548"/></svg>