<svg width="303" height="111" fill="none" xmlns="http://www.w3.org/2000/svg"><path fill="#fff" d="M0 0h303v111H0z"/><path d="M299 0H6v1h293V0Z" fill="#BFBFBF"/><rect x="11" y="13" width="14" height="14" rx="2" stroke="#BFBFBF" stroke-width="2"/><rect x="36" y="16" width="73" height="8" rx="2" fill="#BFBFBF"/><rect x="127" y="16" width="66" height="8" rx="2" fill="#BFBFBF"/><rect x="218" y="16" width="70" height="8" rx="2" fill="#BFBFBF"/><path d="M299 37H6v1h293v-1Z" fill="#BFBFBF"/><rect x="11" y="49" width="14" height="14" rx="2" stroke="#BFBFBF" stroke-width="2"/><rect x="36" y="52" width="73" height="8" rx="2" fill="#BFBFBF"/><rect x="127" y="52" width="66" height="8" rx="2" fill="#BFBFBF"/><rect x="218" y="52" width="70" height="8" rx="2" fill="#BFBFBF"/><path d="M299 74H6v1h293v-1Zm0 36H6v1h293v-1Z" fill="#BFBFBF"/><rect x="11" y="85" width="14" height="14" rx="2" stroke="#BFBFBF" stroke-width="2"/><rect x="36" y="88" width="73" height="8" rx="2" fill="#BFBFBF"/><rect x="127" y="88" width="66" height="8" rx="2" fill="#BFBFBF"/><rect x="218" y="88" width="70" height="8" rx="2" fill="#BFBFBF"/><path d="M2 20h301" stroke="#DD2B0E" stroke-width="2" stroke-linejoin="round"/></svg>