<svg width="300" height="111" fill="none" xmlns="http://www.w3.org/2000/svg"><path fill="#fff" d="M0 0h300v111H0z"/><path d="M293 0H6v1h287V0Z" fill="#BFBFBF"/><rect x="11" y="14" width="14" height="14" rx="2" stroke="#BFBFBF" stroke-width="2"/><rect x="36" y="14" width="73" height="8" rx="2" fill="#BFBFBF"/><rect x="36" y="28" width="73" height="8" rx="2" fill="#BFBFBF"/><rect x="36" y="42" width="73" height="8" rx="2" fill="#BFBFBF"/><rect x="36" y="56" width="73" height="8" rx="2" fill="#BFBFBF"/><rect x="127" y="14" width="66" height="8" rx="2" fill="#BFBFBF"/><rect x="218" y="14" width="70" height="8" rx="2" fill="#BFBFBF"/><rect x="218" y="28" width="70" height="8" rx="2" fill="#BFBFBF"/><rect x="218" y="42" width="70" height="8" rx="2" fill="#BFBFBF"/><path d="M293 73H6v1h287v-1Z" fill="#BFBFBF"/><rect x="11" y="85" width="14" height="14" rx="2" stroke="#BFBFBF" stroke-width="2"/><rect x="36" y="88" width="73" height="8" rx="2" fill="#BFBFBF"/><rect x="127" y="88" width="66" height="8" rx="2" fill="#BFBFBF"/><rect x="218" y="88" width="70" height="8" rx="2" fill="#BFBFBF"/><path d="M293 110H6v1h287v-1Z" fill="#BFBFBF"/><path d="M3 18h294" stroke="#DD2B0E" stroke-width="2" stroke-linejoin="round"/></svg>