<svg width="300" height="111" fill="none" xmlns="http://www.w3.org/2000/svg"><path fill="#fff" d="M0 0h300v111H0z"/><path d="M293 0H6v1h287V0Z" fill="#BFBFBF"/><rect x="11" y="14" width="14" height="14" rx="2" stroke="#BFBFBF" stroke-width="2"/><rect x="42" y="17" width="73" height="8" rx="2" fill="#BFBFBF"/><rect x="42" y="31" width="73" height="8" rx="2" fill="#BFBFBF"/><rect x="42" y="45" width="73" height="8" rx="2" fill="#BFBFBF"/><rect x="42" y="59" width="73" height="8" rx="2" fill="#BFBFBF"/><rect x="131" y="17" width="66" height="8" rx="2" fill="#BFBFBF"/><rect x="213" y="17" width="70" height="8" rx="2" fill="#BFBFBF"/><rect x="213" y="31" width="70" height="8" rx="2" fill="#BFBFBF"/><rect x="213" y="45" width="70" height="8" rx="2" fill="#BFBFBF"/><path d="M293 73H6v1h287v-1Z" fill="#BFBFBF"/><rect x="11" y="85" width="14" height="14" rx="2" stroke="#BFBFBF" stroke-width="2"/><rect x="36" y="88" width="73" height="8" rx="2" fill="#BFBFBF"/><rect x="127" y="88" width="66" height="8" rx="2" fill="#BFBFBF"/><rect x="218" y="88" width="70" height="8" rx="2" fill="#BFBFBF"/><path d="M293 110H6v1h287v-1Z" fill="#BFBFBF"/><path d="M3 21h294" stroke="#2DA160" stroke-width="2" stroke-linejoin="round"/><path fill-rule="evenodd" clip-rule="evenodd" d="M282 103a6 6 0 1 0 0-12 6 6 0 0 0 0 12Zm2.576-7.02a.75.75 0 0 0-1.152-.96l-1.974 2.369-.92-.92a.75.75 0 1 0-1.06 1.061l1.5 1.5a.748.748 0 0 0 1.106-.05l2.5-3Z" fill="#108548"/></svg>