<svg width="540" height="180" fill="none" xmlns="http://www.w3.org/2000/svg"><path fill="#fff" d="M0 0h540v180H0z"/><rect x="40" y="16" width="256" height="8" rx="2" fill="#525252"/><path d="M515 32H40v1h475v-1Zm0 37H40v1h475v-1Z" fill="#C4C4C4"/><circle cx="20" cy="88" r="16" fill="#7B58CF"/><circle cx="20" cy="88" r="18" stroke="#7B58CF" stroke-opacity=".3" stroke-width="4"/><path d="M21.398 86.978c.86.228 1.52.635 1.977 1.221.457.58.686 1.307.686 2.18 0 1.207-.408 2.156-1.222 2.848-.809.685-1.93 1.028-3.366 1.028-.604 0-1.22-.056-1.846-.167a11.884 11.884 0 0 1-1.846-.483v-1.767a8.55 8.55 0 0 0 1.767.694 6.79 6.79 0 0 0 1.731.229c.973 0 1.72-.22 2.241-.66.522-.439.783-1.072.783-1.898 0-.762-.261-1.365-.783-1.81-.521-.452-1.227-.677-2.118-.677H18.05v-1.46h1.353c.815 0 1.45-.178 1.908-.535.457-.358.685-.856.685-1.494 0-.674-.214-1.19-.642-1.547-.421-.364-1.025-.545-1.81-.545a7.85 7.85 0 0 0-1.617.175 11.47 11.47 0 0 0-1.75.528v-1.635a21.833 21.833 0 0 1 1.89-.422 9.018 9.018 0 0 1 1.477-.14c1.277 0 2.297.322 3.059.966.767.64 1.15 1.489 1.15 2.55 0 .72-.201 1.32-.605 1.801-.399.48-.982.82-1.75 1.02Z" fill="#fff"/><rect x="43" y="82" width="14" height="14" rx="2" stroke="#868686" stroke-width="2"/><rect x="68" y="85" width="73" height="8" rx="2" fill="#999"/><rect x="159" y="85" width="66" height="8" rx="2" fill="#999"/><rect x="250" y="85" width="70" height="8" rx="2" fill="#999"/><rect x="342" y="85" width="75" height="8" rx="2" fill="#999"/><rect x="442" y="85" width="51" height="8" rx="2" fill="#999"/><path d="M515 106H40v1h475v-1Z" fill="#C4C4C4"/><rect x="43" y="118" width="14" height="14" rx="2" stroke="#868686" stroke-width="2"/><rect x="68" y="121" width="73" height="8" rx="2" fill="#999"/><rect x="159" y="121" width="66" height="8" rx="2" fill="#999"/><rect x="250" y="121" width="70" height="8" rx="2" fill="#999"/><rect x="342" y="121" width="75" height="8" rx="2" fill="#999"/><rect x="442" y="121" width="51" height="8" rx="2" fill="#999"/><path d="M515 143H40v1h475v-1Zm0 36H40v1h475v-1Z" fill="#C4C4C4"/><rect x="43" y="154" width="14" height="14" rx="2" stroke="#868686" stroke-width="2"/><rect x="68" y="157" width="73" height="8" rx="2" fill="#999"/><rect x="159" y="157" width="66" height="8" rx="2" fill="#999"/><rect x="250" y="157" width="70" height="8" rx="2" fill="#999"/><rect x="342" y="157" width="75" height="8" rx="2" fill="#999"/><rect x="442" y="157" width="51" height="8" rx="2" fill="#999"/><circle cx="138" cy="20" r="16" fill="#7B58CF"/><circle cx="138" cy="20" r="18" stroke="#7B58CF" stroke-opacity=".3" stroke-width="4"/><path d="M134.95 24.515h2.76V14.6l-3.305 1.59v-1.705l3.287-1.564h1.776v11.593h2.724V26h-7.242v-1.485Z" fill="#fff"/><circle cx="348" cy="126" r="16" fill="#7B58CF"/><circle cx="348" cy="126" r="18" stroke="#7B58CF" stroke-opacity=".3" stroke-width="4"/><path d="m349.037 120.495-4.14 6.935h4.14v-6.935Zm-.29-1.617h2.057v8.552h1.749v1.441h-1.749V132h-1.767v-3.129h-5.563v-1.679l5.273-8.314Z" fill="#fff"/><rect x="43" y="44" width="14" height="14" rx="2" stroke="#868686" stroke-width="2"/><rect x="68" y="47" width="56" height="8" rx="2" fill="#525252"/><rect x="159" y="47" width="56" height="8" rx="2" fill="#525252"/><rect x="250" y="47" width="48" height="8" rx="2" fill="#525252"/><rect x="342" y="47" width="66" height="8" rx="2" fill="#525252"/><rect x="442" y="47" width="59" height="8" rx="2" fill="#525252"/><path fill-rule="evenodd" clip-rule="evenodd" d="M311.72 53.159a.75.75 0 1 1 1.06 1.06l-3.25 3.25L309 58l-.53-.53-3.25-3.25a.75.75 0 0 1 1.06-1.061l1.97 1.97V44.75a.75.75 0 0 1 1.5 0v10.379l1.97-1.97Z" fill="#525252"/><path d="m311.72 53.159-.354-.354.354.354Zm1.06 1.06.354.354-.354-.353Zm-3.25 3.25.354.354-.354-.353ZM309 58l-.354.353.354.354.354-.354L309 58Zm-.53-.53-.354.353.354-.353Zm-3.25-3.25-.354.353.354-.353Zm0-1.061-.354-.354.354.354Zm1.06 0 .354-.354-.354.354Zm1.97 1.97-.354.353.854.854v-1.207h-.5Zm1.5 0h-.5v1.207l.854-.854-.354-.353Zm3.384-2.324a1.25 1.25 0 0 0-1.768 0l.707.708a.25.25 0 0 1 .354 0l.707-.708Zm0 1.768a1.25 1.25 0 0 0 0-1.768l-.707.708a.251.251 0 0 1 0 .353l.707.707Zm-3.25 3.25 3.25-3.25-.707-.707-3.25 3.25.707.707Zm-.53.53.53-.53-.707-.707-.531.53.708.707Zm-1.238-.53.53.53.708-.707-.531-.53-.707.707Zm-3.25-3.25 3.25 3.25.707-.707-3.25-3.25-.707.707Zm0-1.768a1.25 1.25 0 0 0 0 1.768l.707-.707a.251.251 0 0 1 0-.353l-.707-.708Zm1.768 0a1.25 1.25 0 0 0-1.768 0l.707.708a.25.25 0 0 1 .354 0l.707-.708Zm1.97 1.97-1.97-1.97-.707.708 1.969 1.97.708-.708Zm-.854-10.025v10.379h1V44.75h-1ZM309 43.5c-.69 0-1.25.56-1.25 1.25h1a.25.25 0 0 1 .25-.25v-1Zm1.25 1.25c0-.69-.56-1.25-1.25-1.25v1a.25.25 0 0 1 .25.25h1Zm0 10.379V44.75h-1v10.379h1Zm1.116-2.324-1.97 1.97.708.707 1.969-1.97-.707-.707Z" fill="#525252"/><circle cx="245" cy="51" r="16" fill="#7B58CF"/><circle cx="245" cy="51" r="18" stroke="#7B58CF" stroke-opacity=".3" stroke-width="4"/><path d="m246.037 45.495-4.14 6.935h4.14v-6.935Zm-.29-1.617h2.057v8.552h1.749v1.441h-1.749V57h-1.767v-3.129h-5.563v-1.679l5.273-8.314Z" fill="#fff"/><circle cx="20" cy="52" r="16" fill="#7B58CF"/><circle cx="20" cy="52" r="18" stroke="#7B58CF" stroke-opacity=".3" stroke-width="4"/><path d="M17.855 56.506h6.03V58h-7.972v-1.494a363.318 363.318 0 0 0 2.874-3.059 73.424 73.424 0 0 0 1.696-1.872c.586-.715.982-1.292 1.187-1.731.205-.446.307-.9.307-1.363 0-.732-.216-1.306-.65-1.722-.428-.416-1.017-.624-1.767-.624-.533 0-1.092.096-1.678.29a9.421 9.421 0 0 0-1.863.879V45.51a9.622 9.622 0 0 1 1.775-.65 7.12 7.12 0 0 1 1.731-.22c1.284 0 2.315.342 3.094 1.028.785.68 1.178 1.573 1.178 2.68 0 .563-.132 1.126-.396 1.688-.257.563-.68 1.184-1.265 1.863-.328.381-.806.909-1.433 1.582-.621.674-1.57 1.682-2.848 3.024Z" fill="#fff"/></svg>