<svg width="300" height="111" fill="none" xmlns="http://www.w3.org/2000/svg"><path fill="#fff" d="M0 0h300v111H0z"/><path d="M296 0H3v1h293V0Z" fill="#BFBFBF"/><rect x="4" y="13" width="14" height="14" rx="2" stroke="#BFBFBF" stroke-width="2"/><circle cx="43" cy="28" r="16" fill="#C4C4C4"/><rect x="63" y="12" width="54" height="8" rx="2" fill="#BFBFBF"/><rect x="133" y="12" width="92" height="8" rx="2" fill="#BFBFBF"/><rect x="241" y="12" width="42" height="16" rx="2" fill="#BFBFBF"/><path d="M296 55H3v1h293v-1Z" fill="#BFBFBF"/><rect x="4" y="68" width="14" height="14" rx="2" stroke="#BFBFBF" stroke-width="2"/><circle cx="43" cy="83" r="16" fill="#C4C4C4"/><rect x="63" y="67" width="54" height="8" rx="2" fill="#BFBFBF"/><rect x="133" y="67" width="92" height="8" rx="2" fill="#BFBFBF"/><rect x="241" y="67" width="42" height="16" rx="2" fill="#BFBFBF"/><path d="M296 110H3v1h293v-1Z" fill="#BFBFBF"/><path d="M3 29h294" stroke="#DD2B0E" stroke-width="2" stroke-linejoin="round"/><path fill-rule="evenodd" clip-rule="evenodd" d="M285 103a6 6 0 1 0 0-12 6 6 0 0 0 0 12Zm-3-7a1 1 0 0 0 0 2h6a1 1 0 0 0 0-2h-6Z" fill="#DD2B0E"/></svg>