<svg width="342" height="171" fill="none" xmlns="http://www.w3.org/2000/svg"><path fill="#fff" d="M0 0h342v171H0z"/><path fill-rule="evenodd" clip-rule="evenodd" d="M316 36c5.523 0 10-4.477 10-10s-4.477-10-10-10-10 4.477-10 10 4.477 10 10 10Zm-4.634-14.634a1.25 1.25 0 0 1 1.768 0L316 24.232l2.866-2.866a1.25 1.25 0 0 1 1.768 1.768L317.768 26l2.866 2.866a1.25 1.25 0 0 1-1.768 1.768L316 27.768l-2.866 2.866a1.25 1.25 0 0 1-1.768-1.768L314.232 26l-2.866-2.866a1.249 1.249 0 0 1 0-1.768Z" fill="#DD2B0E"/><path d="M306 44H19v1h287v-1Z" fill="#BFBFBF"/><rect x="24" y="75" width="14" height="14" rx="2" stroke="#BFBFBF" stroke-width="2"/><rect x="55" y="57" width="73" height="8" rx="2" fill="#BFBFBF"/><rect x="55" y="71" width="73" height="8" rx="2" fill="#BFBFBF"/><rect x="55" y="85" width="73" height="8" rx="2" fill="#BFBFBF"/><rect x="55" y="99" width="73" height="8" rx="2" fill="#BFBFBF"/><rect x="144" y="78" width="66" height="8" rx="2" fill="#BFBFBF"/><rect x="226" y="64" width="70" height="8" rx="2" fill="#BFBFBF"/><rect x="226" y="78" width="70" height="8" rx="2" fill="#BFBFBF"/><rect x="226" y="92" width="70" height="8" rx="2" fill="#BFBFBF"/><path d="M306 117H19v1h287v-1Z" fill="#BFBFBF"/><rect x="24" y="129" width="14" height="14" rx="2" stroke="#BFBFBF" stroke-width="2"/><rect x="49" y="132" width="73" height="8" rx="2" fill="#BFBFBF"/><rect x="140" y="132" width="66" height="8" rx="2" fill="#BFBFBF"/><rect x="231" y="132" width="70" height="8" rx="2" fill="#BFBFBF"/><path d="M306 154H19v1h287v-1Z" fill="#BFBFBF"/><path d="M16 83h294" stroke="#DD2B0E" stroke-width="2" stroke-linejoin="round"/></svg>
