<svg width="342" height="171" fill="none" xmlns="http://www.w3.org/2000/svg"><path fill="#fff" d="M0 0h342v171H0z"/><path d="M316 36c5.523 0 10-4.477 10-10s-4.477-10-10-10-10 4.477-10 10 4.477 10 10 10Z" fill="#17AA55"/><path d="m312 26.069 2.98 2.98L321.03 23" stroke="#fff" stroke-width="2" stroke-linecap="round"/><path d="M306 44H19v1h287v-1Z" fill="#BFBFBF"/><rect x="24" y="58" width="14" height="14" rx="2" stroke="#BFBFBF" stroke-width="2"/><rect x="55" y="61" width="73" height="8" rx="2" fill="#BFBFBF"/><rect x="55" y="75" width="73" height="8" rx="2" fill="#BFBFBF"/><rect x="55" y="89" width="73" height="8" rx="2" fill="#BFBFBF"/><rect x="55" y="103" width="73" height="8" rx="2" fill="#BFBFBF"/><rect x="144" y="61" width="66" height="8" rx="2" fill="#BFBFBF"/><rect x="226" y="61" width="70" height="8" rx="2" fill="#BFBFBF"/><rect x="226" y="75" width="70" height="8" rx="2" fill="#BFBFBF"/><rect x="226" y="89" width="70" height="8" rx="2" fill="#BFBFBF"/><path d="M306 117H19v1h287v-1Z" fill="#BFBFBF"/><rect x="24" y="129" width="14" height="14" rx="2" stroke="#BFBFBF" stroke-width="2"/><rect x="49" y="132" width="73" height="8" rx="2" fill="#BFBFBF"/><rect x="140" y="132" width="66" height="8" rx="2" fill="#BFBFBF"/><rect x="231" y="132" width="70" height="8" rx="2" fill="#BFBFBF"/><path d="M306 154H19v1h287v-1Z" fill="#BFBFBF"/><path d="M16 65h294" stroke="#2DA160" stroke-width="2" stroke-linejoin="round"/></svg>
