<svg width="476" height="236" fill="none" xmlns="http://www.w3.org/2000/svg"><g clip-path="url(#table-structure__a)"><path fill="#fff" d="M0 0h476v236H0z"/><path fill="#DCDCDE" d="M0 112h475v1H0z"/><rect x="16" y="129" width="72" height="8" rx="2" fill="#BFBFC3"/><rect x="114" y="129" width="92" height="8" rx="2" fill="#BFBFC3"/><rect x="232" y="129" width="52" height="8" rx="2" fill="#BFBFC3"/><rect x="310" y="129" width="72" height="8" rx="2" fill="#BFBFC3"/><rect x="408" y="129" width="52" height="8" rx="2" fill="#BFBFC3"/><path fill="#DCDCDE" d="M0 153h475v1H0z"/><path fill="#DCDCDE" d="M0 153h475v1H0z"/><rect x="16" y="170" width="72" height="8" rx="2" fill="#BFBFC3"/><rect x="114" y="170" width="92" height="8" rx="2" fill="#BFBFC3"/><rect x="232" y="170" width="52" height="8" rx="2" fill="#BFBFC3"/><rect x="310" y="170" width="72" height="8" rx="2" fill="#BFBFC3"/><rect x="408" y="170" width="52" height="8" rx="2" fill="#BFBFC3"/><path fill="#DCDCDE" d="M0 194h475v1H0z"/><path fill="#DCDCDE" d="M0 194h475v1H0z"/><rect x="16" y="211" width="72" height="8" rx="2" fill="#BFBFC3"/><rect x="114" y="211" width="92" height="8" rx="2" fill="#BFBFC3"/><rect x="232" y="211" width="52" height="8" rx="2" fill="#BFBFC3"/><rect x="310" y="211" width="72" height="8" rx="2" fill="#BFBFC3"/><rect x="408" y="211" width="52" height="8" rx="2" fill="#BFBFC3"/><path fill="#DCDCDE" d="M0 235h475v1H0zM0 64h475v1H0z"/><rect x="16" y="84.603" width="72" height="8" rx="2" fill="#89888D"/><rect x="114" y="84.603" width="92" height="8" rx="2" fill="#89888D"/><rect x="232" y="84.603" width="39" height="8" rx="2" fill="#89888D"/><path d="m279.5 96.207-.354-.354-.53-.53-3.25-3.25a1.254 1.254 0 0 1-.271-1.362 1.254 1.254 0 0 1 1.155-.772 1.254 1.254 0 0 1 .884.366l1.116 1.116V82.25a1.25 1.25 0 0 1 2.5 0v9.171l1.116-1.116a1.247 1.247 0 0 1 1.363-.271 1.253 1.253 0 0 1 .676 1.633c-.063.152-.155.29-.271.406l-3.25 3.25-.53.53-.354.354Z" fill="#89888D"/><rect x="310" y="84.603" width="72" height="8" rx="2" fill="#89888D"/><rect x="408" y="84.603" width="52" height="8" rx="2" fill="#89888D"/><path fill="#DCDCDE" d="M0 112.207h475v1H0z"/><rect y="36" width="257" height="8" rx="2" fill="#535158"/><circle cx="160" cy="133" r="16" fill="#7B58CF"/><circle cx="160" cy="133" r="18" stroke="#7B58CF" stroke-opacity=".3" stroke-width="4"/><path d="M161.804 139v-2.88h-5.94v-2.538l4.788-7.722h1.836l-5.004 8.082v.702h4.32v-3.204h1.62V139h-1.62Z" fill="#fff"/><circle cx="302" cy="89" r="16" fill="#7B58CF"/><circle cx="302" cy="89" r="18" stroke="#7B58CF" stroke-opacity=".3" stroke-width="4"/><path d="M301.806 95.18c-1.212 0-2.172-.336-2.88-1.008-.708-.684-1.062-1.608-1.062-2.772h1.62c0 .72.21 1.29.63 1.71.42.42.99.63 1.71.63s1.29-.21 1.71-.63c.42-.42.63-.99.63-1.71v-.9c0-.72-.21-1.29-.63-1.71-.42-.42-.99-.63-1.71-.63h-1.422v-1.404l3.222-3.42h-5.4V81.86h7.236v1.512l-3.6 3.834v-.486c1.212 0 2.166.342 2.862 1.026.708.672 1.062 1.59 1.062 2.754v.9c0 1.164-.36 2.088-1.08 2.772-.708.672-1.674 1.008-2.898 1.008Z" fill="#fff"/><circle cx="52" cy="89" r="16" fill="#7B58CF"/><circle cx="52" cy="89" r="18" stroke="#7B58CF" stroke-opacity=".3" stroke-width="4"/><path d="M48.151 95v-1.494l4.374-4.68c.636-.672 1.087-1.272 1.35-1.8.264-.528.397-1.044.397-1.548 0-.72-.21-1.29-.63-1.71-.409-.432-.967-.648-1.675-.648-.731 0-1.313.222-1.745.666-.42.432-.63 1.02-.63 1.764h-1.62c.023-.792.203-1.476.54-2.052a3.41 3.41 0 0 1 1.386-1.35c.587-.312 1.277-.468 2.07-.468.815 0 1.517.156 2.105.468a3.325 3.325 0 0 1 1.368 1.332c.325.564.486 1.236.486 2.016 0 .624-.173 1.284-.521 1.98-.337.696-.919 1.476-1.746 2.34l-3.546 3.708h5.976V95h-7.94Z" fill="#fff"/><circle cx="129" cy="20" r="16" fill="#7B58CF"/><circle cx="129" cy="20" r="18" stroke="#7B58CF" stroke-opacity=".3" stroke-width="4"/><path d="M125.224 26v-1.476h3.564v-10.26l-3.564 2.664v-1.854l2.97-2.214h2.214v11.664h2.916V26h-8.1Z" fill="#fff"/></g><defs><clipPath id="table-structure__a"><path fill="#fff" d="M0 0h476v236H0z"/></clipPath></defs></svg>