<svg width="500" height="180" fill="none" xmlns="http://www.w3.org/2000/svg"><path fill="#fff" d="M0 0h500v180H0z"/><rect x="16" y="16" width="210" height="8" rx="2" fill="#525252"/><path d="M491 32H16v1h475v-1Zm0 37H16v1h475v-1Z" fill="#C4C4C4"/><rect x="19" y="85" width="73" height="8" rx="2" fill="#999"/><rect x="113" y="85" width="95" height="8" rx="2" fill="#999"/><rect x="226" y="85" width="70" height="8" rx="2" fill="#999"/><rect x="318" y="85" width="75" height="8" rx="2" fill="#999"/><rect x="418" y="85" width="51" height="8" rx="2" fill="#999"/><path d="M491 106H16v1h475v-1Z" fill="#C4C4C4"/><rect x="19" y="121" width="73" height="8" rx="2" fill="#999"/><rect x="113" y="121" width="95" height="8" rx="2" fill="#999"/><rect x="226" y="121" width="70" height="8" rx="2" fill="#999"/><rect x="318" y="121" width="75" height="8" rx="2" fill="#999"/><rect x="418" y="121" width="51" height="8" rx="2" fill="#999"/><path d="M491 143H16v1h475v-1Zm0 36H16v1h475v-1Z" fill="#C4C4C4"/><rect x="19" y="157" width="73" height="8" rx="2" fill="#999"/><rect x="113" y="157" width="95" height="8" rx="2" fill="#999"/><rect x="226" y="157" width="70" height="8" rx="2" fill="#999"/><rect x="318" y="157" width="75" height="8" rx="2" fill="#999"/><rect x="418" y="157" width="51" height="8" rx="2" fill="#999"/><circle cx="50" cy="20" r="16" fill="#7B58CF"/><circle cx="50" cy="20" r="18" stroke="#7B58CF" stroke-opacity=".3" stroke-width="4"/><path d="M46.95 24.515h2.76V14.6l-3.305 1.59v-1.705l3.287-1.564h1.776v11.593h2.724V26H46.95v-1.485Z" fill="#fff"/><circle cx="252" cy="126" r="16" fill="#7B58CF"/><circle cx="252" cy="126" r="18" stroke="#7B58CF" stroke-opacity=".3" stroke-width="4"/><path d="m253.037 120.495-4.14 6.935h4.14v-6.935Zm-.29-1.617h2.057v8.552h1.749v1.441h-1.749V132h-1.767v-3.129h-5.563v-1.679l5.273-8.314Z" fill="#fff"/><rect x="19" y="47" width="56" height="8" rx="2" fill="#525252"/><rect x="113" y="47" width="81" height="8" rx="2" fill="#525252"/><rect x="226" y="47" width="48" height="8" rx="2" fill="#525252"/><rect x="318" y="47" width="66" height="8" rx="2" fill="#525252"/><rect x="418" y="47" width="59" height="8" rx="2" fill="#525252"/><path fill-rule="evenodd" clip-rule="evenodd" d="M290.72 53.159a.75.75 0 1 1 1.06 1.06l-3.25 3.25L288 58l-.53-.53-3.25-3.25a.75.75 0 0 1 1.06-1.061l1.97 1.97V44.75a.75.75 0 0 1 1.5 0v10.379l1.97-1.97Z" fill="#525252"/><path d="m290.72 53.159-.354-.354.354.354Zm1.06 1.06.354.354-.354-.353Zm-3.25 3.25.354.354-.354-.353ZM288 58l-.354.353.354.354.354-.354L288 58Zm-.53-.53-.354.353.354-.353Zm-3.25-3.25-.354.353.354-.353Zm0-1.061-.354-.354.354.354Zm1.06 0 .354-.354-.354.354Zm1.97 1.97-.354.353.854.854v-1.207h-.5Zm1.5 0h-.5v1.207l.854-.854-.354-.353Zm3.384-2.324a1.25 1.25 0 0 0-1.768 0l.707.708a.25.25 0 0 1 .354 0l.707-.708Zm0 1.768a1.25 1.25 0 0 0 0-1.768l-.707.708a.251.251 0 0 1 0 .353l.707.707Zm-3.25 3.25 3.25-3.25-.707-.707-3.25 3.25.707.707Zm-.53.53.53-.53-.707-.707-.531.53.708.707Zm-1.238-.53.53.53.708-.707-.531-.53-.707.707Zm-3.25-3.25 3.25 3.25.707-.707-3.25-3.25-.707.707Zm0-1.768a1.25 1.25 0 0 0 0 1.768l.707-.707a.251.251 0 0 1 0-.353l-.707-.708Zm1.768 0a1.25 1.25 0 0 0-1.768 0l.707.708a.25.25 0 0 1 .354 0l.707-.708Zm1.97 1.97-1.97-1.97-.707.708 1.969 1.97.708-.708Zm-.854-10.025v10.379h1V44.75h-1ZM288 43.5c-.69 0-1.25.56-1.25 1.25h1a.25.25 0 0 1 .25-.25v-1Zm1.25 1.25c0-.69-.56-1.25-1.25-1.25v1a.25.25 0 0 1 .25.25h1Zm0 10.379V44.75h-1v10.379h1Zm1.116-2.324-1.97 1.97.708.707 1.969-1.97-.707-.707Z" fill="#525252"/><circle cx="136" cy="51" r="16" fill="#7B58CF"/><circle cx="136" cy="51" r="18" stroke="#7B58CF" stroke-opacity=".3" stroke-width="4"/><path d="M133.855 55.506h6.03V57h-7.972v-1.494a353.699 353.699 0 0 0 2.874-3.059 72.85 72.85 0 0 0 1.696-1.872c.586-.715.982-1.292 1.187-1.731.205-.446.308-.9.308-1.363 0-.732-.217-1.306-.651-1.722-.428-.416-1.016-.624-1.766-.624-.534 0-1.093.096-1.679.29a9.412 9.412 0 0 0-1.863.879V44.51a9.607 9.607 0 0 1 1.775-.65 7.119 7.119 0 0 1 1.731-.22c1.284 0 2.315.342 3.094 1.028.785.68 1.178 1.573 1.178 2.68 0 .563-.132 1.126-.396 1.688-.257.563-.679 1.184-1.265 1.863-.328.381-.806.909-1.433 1.582-.621.674-1.57 1.682-2.848 3.024Z" fill="#fff"/><circle cx="277" cy="27" r="16" fill="#7B58CF"/><circle cx="277" cy="27" r="18" stroke="#7B58CF" stroke-opacity=".3" stroke-width="4"/><path d="M278.397 25.977c.862.23 1.521.636 1.978 1.222.457.58.686 1.307.686 2.18 0 1.207-.408 2.156-1.222 2.848-.809.685-1.931 1.028-3.366 1.028-.604 0-1.219-.056-1.846-.167a11.898 11.898 0 0 1-1.846-.483v-1.767a8.56 8.56 0 0 0 1.767.694c.58.153 1.157.229 1.731.229.973 0 1.72-.22 2.242-.66.521-.439.782-1.072.782-1.898 0-.762-.261-1.365-.782-1.81-.522-.452-1.228-.677-2.119-.677h-1.353v-1.46h1.353c.815 0 1.451-.178 1.908-.535.457-.358.685-.856.685-1.494 0-.674-.214-1.19-.641-1.547-.422-.364-1.026-.545-1.811-.545a7.84 7.84 0 0 0-1.617.175 11.45 11.45 0 0 0-1.749.528v-1.635a21.899 21.899 0 0 1 1.889-.422 9.025 9.025 0 0 1 1.477-.14c1.277 0 2.297.322 3.059.966.767.64 1.151 1.489 1.151 2.55 0 .72-.202 1.32-.607 1.801-.398.48-.981.82-1.749 1.02Z" fill="#fff"/></svg>