<svg width="300" height="111" fill="none" xmlns="http://www.w3.org/2000/svg"><path fill="#fff" d="M0 0h300v111H0z"/><path d="M293 0H6v1h287V0Z" fill="#BFBFBF"/><rect x="11" y="31" width="14" height="14" rx="2" stroke="#BFBFBF" stroke-width="2"/><rect x="42" y="13" width="73" height="8" rx="2" fill="#BFBFBF"/><rect x="42" y="27" width="73" height="8" rx="2" fill="#BFBFBF"/><rect x="42" y="41" width="73" height="8" rx="2" fill="#BFBFBF"/><rect x="42" y="55" width="73" height="8" rx="2" fill="#BFBFBF"/><rect x="131" y="34" width="66" height="8" rx="2" fill="#BFBFBF"/><rect x="213" y="20" width="70" height="8" rx="2" fill="#BFBFBF"/><rect x="213" y="34" width="70" height="8" rx="2" fill="#BFBFBF"/><rect x="213" y="48" width="70" height="8" rx="2" fill="#BFBFBF"/><path d="M293 73H6v1h287v-1Z" fill="#BFBFBF"/><rect x="11" y="85" width="14" height="14" rx="2" stroke="#BFBFBF" stroke-width="2"/><rect x="36" y="88" width="73" height="8" rx="2" fill="#BFBFBF"/><rect x="127" y="88" width="66" height="8" rx="2" fill="#BFBFBF"/><rect x="218" y="88" width="70" height="8" rx="2" fill="#BFBFBF"/><path d="M293 110H6v1h287v-1Z" fill="#BFBFBF"/><path d="M3 39h294" stroke="#DD2B0E" stroke-width="2" stroke-linejoin="round"/><path fill-rule="evenodd" clip-rule="evenodd" d="M285 103a6 6 0 1 0 0-12 6 6 0 0 0 0 12Zm-3-7a1 1 0 0 0 0 2h6a1 1 0 0 0 0-2h-6Z" fill="#DD2B0E"/></svg>