<svg width="475" height="193" viewBox="0 0 475 193" fill="none" xmlns="http://www.w3.org/2000/svg">
<rect width="475" height="193" fill="white"/>
<rect x="12" y="64" width="44" height="8" rx="2" fill="#535158"/>
<rect x="60" y="56" width="45" height="24" rx="12" fill="#DCDCDE"/>
<rect x="68" y="64" width="29" height="8" rx="2" fill="#DCDCDE"/>
<rect x="139" y="64" width="48" height="8" rx="2" fill="#89888D"/>
<rect x="191" y="56" width="45" height="24" rx="12" fill="#DCDCDE"/>
<rect x="199" y="64" width="29" height="8" rx="2" fill="#DCDCDE"/>
<rect x="270" y="64" width="56" height="8" rx="2" fill="#89888D"/>
<rect x="360" y="64" width="30" height="8" rx="2" fill="#89888D"/>
<rect y="96" width="475" height="1" fill="#C4C4C4"/>
<rect y="94" width="117" height="2" fill="#1F75CB"/>
<path d="M432.293 63.7071C431.902 63.3166 431.902 62.6834 432.293 62.2929C432.683 61.9024 433.317 61.9024 433.707 62.2929L438.707 67.2929C439.098 67.6834 439.098 68.3166 438.707 68.7071L433.707 73.7071C433.317 74.0976 432.683 74.0976 432.293 73.7071C431.902 73.3166 431.902 72.6834 432.293 72.2929L436.586 68L432.293 63.7071Z" fill="#89888D"/>
<circle cx="238" cy="161" r="16" fill="#7B58CF"/>
<circle cx="238" cy="161" r="18" stroke="#7B58CF" stroke-opacity="0.3" stroke-width="4"/>
<path d="M236.024 167L240.704 155.336H235.7V157.46H234.08V153.86H242.432V155.372L237.788 167H236.024Z" fill="white"/>
<circle cx="435" cy="92" r="16" fill="#7B58CF"/>
<circle cx="435" cy="92" r="18" stroke="#7B58CF" stroke-opacity="0.3" stroke-width="4"/>
<path d="M435.022 98.18C434.182 98.18 433.438 98.006 432.79 97.658C432.154 97.298 431.656 96.806 431.296 96.182C430.936 95.546 430.756 94.814 430.756 93.986C430.756 93.41 430.864 92.822 431.08 92.222C431.296 91.61 431.59 90.974 431.962 90.314L435.004 84.86H436.804L433.564 90.494L433.618 90.53C433.774 90.326 434.008 90.17 434.32 90.062C434.632 89.954 434.974 89.9 435.346 89.9C436.126 89.9 436.804 90.074 437.38 90.422C437.968 90.758 438.424 91.226 438.748 91.826C439.084 92.426 439.252 93.122 439.252 93.914C439.252 94.754 439.072 95.498 438.712 96.146C438.352 96.782 437.854 97.28 437.218 97.64C436.594 98 435.862 98.18 435.022 98.18ZM435.004 96.74C435.532 96.74 435.988 96.626 436.372 96.398C436.768 96.158 437.074 95.828 437.29 95.408C437.518 94.988 437.632 94.502 437.632 93.95C437.632 93.398 437.518 92.912 437.29 92.492C437.074 92.072 436.768 91.748 436.372 91.52C435.988 91.28 435.532 91.16 435.004 91.16C434.488 91.16 434.032 91.28 433.636 91.52C433.24 91.748 432.928 92.072 432.7 92.492C432.484 92.912 432.376 93.398 432.376 93.95C432.376 94.502 432.484 94.988 432.7 95.408C432.928 95.828 433.24 96.158 433.636 96.398C434.032 96.626 434.488 96.74 435.004 96.74Z" fill="white"/>
<circle cx="214" cy="96" r="16" fill="#7B58CF"/>
<circle cx="214" cy="96" r="18" stroke="#7B58CF" stroke-opacity="0.3" stroke-width="4"/>
<path d="M213.896 102.18C212.684 102.18 211.724 101.844 211.016 101.172C210.308 100.488 209.954 99.564 209.954 98.4H211.574C211.574 99.12 211.784 99.69 212.204 100.11C212.624 100.53 213.194 100.74 213.914 100.74C214.634 100.74 215.204 100.53 215.624 100.11C216.044 99.69 216.254 99.12 216.254 98.4V97.59C216.254 96.87 216.05 96.3 215.642 95.88C215.234 95.46 214.682 95.25 213.986 95.25H210.404V88.86H217.406V90.336H211.916L211.952 93.774H214.076C215.288 93.774 216.224 94.11 216.884 94.782C217.544 95.442 217.874 96.378 217.874 97.59V98.4C217.874 99.564 217.514 100.488 216.794 101.172C216.086 101.844 215.12 102.18 213.896 102.18Z" fill="white"/>
<circle cx="163" cy="88" r="16" fill="#7B58CF"/>
<circle cx="163" cy="88" r="18" stroke="#7B58CF" stroke-opacity="0.3" stroke-width="4"/>
<path d="M164.804 94V91.12H158.864V88.582L163.652 80.86H165.488L160.484 88.942V89.644H164.804V86.44H166.424V94H164.804Z" fill="white"/>
<circle cx="58" cy="112" r="16" fill="#7B58CF"/>
<circle cx="58" cy="112" r="18" stroke="#7B58CF" stroke-opacity="0.3" stroke-width="4"/>
<path d="M57.8055 118.18C56.5935 118.18 55.6335 117.844 54.9255 117.172C54.2175 116.488 53.8635 115.564 53.8635 114.4H55.4835C55.4835 115.12 55.6935 115.69 56.1135 116.11C56.5335 116.53 57.1035 116.74 57.8235 116.74C58.5435 116.74 59.1135 116.53 59.5335 116.11C59.9535 115.69 60.1635 115.12 60.1635 114.4V113.5C60.1635 112.78 59.9535 112.21 59.5335 111.79C59.1135 111.37 58.5435 111.16 57.8235 111.16H56.4015V109.756L59.6235 106.336H54.2235V104.86H61.4595V106.372L57.8595 110.206V109.72C59.0715 109.72 60.0255 110.062 60.7215 110.746C61.4295 111.418 61.7835 112.336 61.7835 113.5V114.4C61.7835 115.564 61.4235 116.488 60.7035 117.172C59.9955 117.844 59.0295 118.18 57.8055 118.18Z" fill="white"/>
<circle cx="58" cy="36" r="16" fill="#7B58CF"/>
<circle cx="58" cy="36" r="18" stroke="#7B58CF" stroke-opacity="0.3" stroke-width="4"/>
<path d="M54.1515 42V40.506L58.5255 35.826C59.1615 35.154 59.6115 34.554 59.8755 34.026C60.1395 33.498 60.2715 32.982 60.2715 32.478C60.2715 31.758 60.0615 31.188 59.6415 30.768C59.2335 30.336 58.6755 30.12 57.9675 30.12C57.2355 30.12 56.6535 30.342 56.2215 30.786C55.8015 31.218 55.5915 31.806 55.5915 32.55H53.9715C53.9955 31.758 54.1755 31.074 54.5115 30.498C54.8475 29.91 55.3095 29.46 55.8975 29.148C56.4855 28.836 57.1755 28.68 57.9675 28.68C58.7835 28.68 59.4855 28.836 60.0735 29.148C60.6615 29.46 61.1175 29.904 61.4415 30.48C61.7655 31.044 61.9275 31.716 61.9275 32.496C61.9275 33.12 61.7535 33.78 61.4055 34.476C61.0695 35.172 60.4875 35.952 59.6595 36.816L56.1135 40.524H62.0895V42H54.1515Z" fill="white"/>
<circle cx="238" cy="20" r="16" fill="#7B58CF"/>
<circle cx="238" cy="20" r="18" stroke="#7B58CF" stroke-opacity="0.3" stroke-width="4"/>
<path d="M234.224 26V24.524H237.788V14.264L234.224 16.928V15.074L237.194 12.86H239.408V24.524H242.324V26H234.224Z" fill="white"/>
</svg>
