<svg width="475" height="155" viewBox="0 0 475 155" fill="none" xmlns="http://www.w3.org/2000/svg">
<rect width="475" height="155" fill="white"/>
<rect x="12" y="56" width="44" height="8" rx="2" fill="#525252"/>
<rect x="60" y="48" width="45" height="24" rx="12" fill="#DBDBDB"/>
<rect x="68" y="56" width="29" height="8" rx="2" fill="#DBDBDB"/>
<rect x="139" y="56" width="48" height="8" rx="2" fill="#868686"/>
<rect x="191" y="48" width="45" height="24" rx="12" fill="#DBDBDB"/>
<rect x="199" y="56" width="29" height="8" rx="2" fill="#DBDBDB"/>
<rect x="270" y="56" width="56" height="8" rx="2" fill="#868686"/>
<rect x="360" y="56" width="40" height="8" rx="2" fill="#868686"/>
<rect y="88" width="475" height="1" fill="#C4C4C4"/>
<rect y="86" width="117" height="2" fill="#6666C4"/>
<path d="M432.293 55.7071C431.902 55.3166 431.902 54.6834 432.293 54.2929C432.683 53.9024 433.317 53.9024 433.707 54.2929L438.707 59.2929C439.098 59.6834 439.098 60.3166 438.707 60.7071L433.707 65.7071C433.317 66.0976 432.683 66.0976 432.293 65.7071C431.902 65.3166 431.902 64.6834 432.293 64.2929L436.586 60L432.293 55.7071Z" fill="#868686"/>
<circle cx="238" cy="135" r="16" fill="#7B58CF"/>
<circle cx="238" cy="135" r="18" stroke="#7B58CF" stroke-opacity="0.3" stroke-width="4"/>
<path d="M233.799 127.878H242.061V128.634L237.367 141H235.513L240.083 129.372H233.799V127.878Z" fill="white"/>
<circle cx="435" cy="84" r="16" fill="#7B58CF"/>
<circle cx="435" cy="84" r="18" stroke="#7B58CF" stroke-opacity="0.3" stroke-width="4"/>
<path d="M438.287 77.168V78.8027C437.918 78.5859 437.525 78.4219 437.109 78.3105C436.693 78.1934 436.26 78.1348 435.809 78.1348C434.684 78.1348 433.831 78.5596 433.251 79.4092C432.671 80.2529 432.381 81.498 432.381 83.1445C432.662 82.5586 433.052 82.1104 433.55 81.7998C434.048 81.4834 434.619 81.3252 435.264 81.3252C436.529 81.3252 437.508 81.7148 438.199 82.4941C438.896 83.2676 439.245 84.3662 439.245 85.79C439.245 87.208 438.888 88.3066 438.173 89.0859C437.458 89.8652 436.453 90.2549 435.158 90.2549C433.635 90.2549 432.519 89.71 431.81 88.6201C431.101 87.5244 430.746 85.8018 430.746 83.4521C430.746 81.2373 431.171 79.5498 432.021 78.3896C432.876 77.2236 434.112 76.6406 435.729 76.6406C436.163 76.6406 436.597 76.6875 437.03 76.7812C437.464 76.8691 437.883 76.998 438.287 77.168ZM435.123 82.7139C434.367 82.7139 433.772 82.9863 433.339 83.5312C432.905 84.0762 432.688 84.8291 432.688 85.79C432.688 86.751 432.905 87.5039 433.339 88.0488C433.772 88.5938 434.367 88.8662 435.123 88.8662C435.908 88.8662 436.5 88.6084 436.898 88.0928C437.297 87.5713 437.496 86.8037 437.496 85.79C437.496 84.7705 437.297 84.0029 436.898 83.4873C436.5 82.9717 435.908 82.7139 435.123 82.7139Z" fill="white"/>
<circle cx="214" cy="80" r="16" fill="#7B58CF"/>
<circle cx="214" cy="80" r="18" stroke="#7B58CF" stroke-opacity="0.3" stroke-width="4"/>
<path d="M210.396 72.8779H217.041V74.3721H212.014V77.5977C212.266 77.5039 212.518 77.4365 212.77 77.3955C213.027 77.3486 213.285 77.3252 213.543 77.3252C214.902 77.3252 215.98 77.7266 216.777 78.5293C217.574 79.332 217.973 80.4189 217.973 81.79C217.973 83.1729 217.554 84.2627 216.716 85.0596C215.884 85.8564 214.744 86.2549 213.297 86.2549C212.6 86.2549 211.961 86.208 211.381 86.1143C210.807 86.0205 210.291 85.8799 209.834 85.6924V83.8906C210.373 84.1836 210.915 84.4033 211.46 84.5498C212.005 84.6904 212.562 84.7607 213.13 84.7607C214.108 84.7607 214.861 84.5029 215.389 83.9873C215.922 83.4717 216.188 82.7393 216.188 81.79C216.188 80.8525 215.913 80.123 215.362 79.6016C214.817 79.0801 214.056 78.8193 213.077 78.8193C212.603 78.8193 212.14 78.875 211.688 78.9863C211.237 79.0918 210.807 79.2529 210.396 79.4697V72.8779Z" fill="white"/>
<circle cx="163" cy="80" r="16" fill="#7B58CF"/>
<circle cx="163" cy="80" r="18" stroke="#7B58CF" stroke-opacity="0.3" stroke-width="4"/>
<path d="M164.037 74.4951L159.897 81.4297H164.037V74.4951ZM163.747 72.8779H165.804V81.4297H167.553V82.8711H165.804V86H164.037V82.8711H158.474V81.1924L163.747 72.8779Z" fill="white"/>
<circle cx="58" cy="90" r="16" fill="#7B58CF"/>
<circle cx="58" cy="90" r="18" stroke="#7B58CF" stroke-opacity="0.3" stroke-width="4"/>
<path d="M59.3975 88.9775C60.2588 89.2061 60.918 89.6133 61.375 90.1992C61.832 90.7793 62.0605 91.5059 62.0605 92.3789C62.0605 93.5859 61.6533 94.5352 60.8389 95.2266C60.0303 95.9121 58.9082 96.2549 57.4727 96.2549C56.8691 96.2549 56.2539 96.1992 55.627 96.0879C55 95.9766 54.3848 95.8154 53.7812 95.6045V93.8379C54.3789 94.1484 54.9678 94.3799 55.5479 94.5322C56.1279 94.6846 56.7051 94.7607 57.2793 94.7607C58.252 94.7607 58.999 94.541 59.5205 94.1016C60.042 93.6621 60.3027 93.0293 60.3027 92.2031C60.3027 91.4414 60.042 90.8379 59.5205 90.3926C58.999 89.9414 58.293 89.7158 57.4023 89.7158H56.0488V88.2568H57.4023C58.2168 88.2568 58.8525 88.0781 59.3096 87.7207C59.7666 87.3633 59.9951 86.8652 59.9951 86.2266C59.9951 85.5527 59.7812 85.0371 59.3535 84.6797C58.9316 84.3164 58.3281 84.1348 57.543 84.1348C57.0215 84.1348 56.4824 84.1934 55.9258 84.3105C55.3691 84.4277 54.7861 84.6035 54.1768 84.8379V83.2031C54.8857 83.0156 55.5156 82.875 56.0664 82.7812C56.623 82.6875 57.1152 82.6406 57.543 82.6406C58.8203 82.6406 59.8398 82.9629 60.6016 83.6074C61.3691 84.2461 61.7529 85.0957 61.7529 86.1562C61.7529 86.877 61.5508 87.4775 61.1465 87.958C60.748 88.4385 60.165 88.7783 59.3975 88.9775Z" fill="white"/>
<circle cx="58" cy="42" r="16" fill="#7B58CF"/>
<circle cx="58" cy="42" r="18" stroke="#7B58CF" stroke-opacity="0.3" stroke-width="4"/>
<path d="M55.8555 46.5059H61.8848V48H53.9131V46.5059C55.0088 45.3516 55.9668 44.332 56.7871 43.4473C57.6074 42.5625 58.1729 41.9385 58.4834 41.5752C59.0693 40.8604 59.4648 40.2832 59.6699 39.8438C59.875 39.3984 59.9775 38.9443 59.9775 38.4814C59.9775 37.749 59.7607 37.1748 59.3271 36.7588C58.8994 36.3428 58.3105 36.1348 57.5605 36.1348C57.0273 36.1348 56.4678 36.2314 55.8818 36.4248C55.2959 36.6182 54.6748 36.9111 54.0186 37.3037V35.5107C54.6221 35.2236 55.2139 35.0068 55.7939 34.8604C56.3799 34.7139 56.957 34.6406 57.5254 34.6406C58.8086 34.6406 59.8398 34.9834 60.6191 35.6689C61.4043 36.3486 61.7969 37.2422 61.7969 38.3496C61.7969 38.9121 61.665 39.4746 61.4014 40.0371C61.1436 40.5996 60.7217 41.2207 60.1357 41.9004C59.8076 42.2812 59.3301 42.8086 58.7031 43.4824C58.082 44.1562 57.1328 45.1641 55.8555 46.5059Z" fill="white"/>
<circle cx="238" cy="20" r="16" fill="#7B58CF"/>
<circle cx="238" cy="20" r="18" stroke="#7B58CF" stroke-opacity="0.3" stroke-width="4"/>
<path d="M234.95 24.5146H237.71V14.6006L234.405 16.1914V14.4863L237.692 12.9219H239.468V24.5146H242.192V26H234.95V24.5146Z" fill="white"/>
</svg>
