<svg width="434" height="63" viewBox="0 0 434 63" fill="none" xmlns="http://www.w3.org/2000/svg">
<g clip-path="url(#clip0_659_12546)">
<rect x="36" width="384.243" height="48" rx="4" fill="#535158"/>
<rect x="60" y="26" width="200" height="6" rx="2" fill="white"/>
<rect x="60" y="16" width="217" height="6" rx="2" fill="white"/>
<rect x="301" y="21" width="65" height="6" rx="2" fill="#63A6E9"/>
<path d="M395.95 21.1716C395.559 20.781 394.926 20.781 394.536 21.1716L393.121 22.5858L391.707 21.1716C391.317 20.781 390.683 20.781 390.293 21.1716C389.902 21.5621 389.902 22.1953 390.293 22.5858L391.707 24L390.293 25.4142C389.902 25.8047 389.902 26.4379 390.293 26.8284C390.683 27.2189 391.317 27.2189 391.707 26.8284L393.121 25.4142L394.536 26.8284C394.926 27.219 395.559 27.219 395.95 26.8284C396.34 26.4379 396.34 25.8047 395.95 25.4142L394.536 24L395.95 22.5858C396.34 22.1953 396.34 21.5621 395.95 21.1716Z" fill="white"/>
<circle cx="414" cy="24" r="16" fill="#7B58CF"/>
<circle cx="414" cy="24" r="18" stroke="#7B58CF" stroke-opacity="0.3" stroke-width="4"/>
<path d="M415.804 30V27.12H409.864V24.582L414.652 16.86H416.488L411.484 24.942V25.644H415.804V22.44H417.424V30H415.804Z" fill="white"/>
<circle cx="334" cy="43" r="16" fill="#7B58CF"/>
<circle cx="334" cy="43" r="18" stroke="#7B58CF" stroke-opacity="0.3" stroke-width="4"/>
<path d="M333.806 49.18C332.594 49.18 331.634 48.844 330.926 48.172C330.218 47.488 329.864 46.564 329.864 45.4H331.484C331.484 46.12 331.694 46.69 332.114 47.11C332.534 47.53 333.104 47.74 333.824 47.74C334.544 47.74 335.114 47.53 335.534 47.11C335.954 46.69 336.164 46.12 336.164 45.4V44.5C336.164 43.78 335.954 43.21 335.534 42.79C335.114 42.37 334.544 42.16 333.824 42.16H332.402V40.756L335.624 37.336H330.224V35.86H337.46V37.372L333.86 41.206V40.72C335.072 40.72 336.026 41.062 336.722 41.746C337.43 42.418 337.784 43.336 337.784 44.5V45.4C337.784 46.564 337.424 47.488 336.704 48.172C335.996 48.844 335.03 49.18 333.806 49.18Z" fill="white"/>
<circle cx="160" cy="24" r="16" fill="#7B58CF"/>
<circle cx="160" cy="24" r="18" stroke="#7B58CF" stroke-opacity="0.3" stroke-width="4"/>
<path d="M156.152 30V28.506L160.526 23.826C161.162 23.154 161.612 22.554 161.876 22.026C162.14 21.498 162.272 20.982 162.272 20.478C162.272 19.758 162.062 19.188 161.642 18.768C161.234 18.336 160.676 18.12 159.968 18.12C159.236 18.12 158.654 18.342 158.222 18.786C157.802 19.218 157.592 19.806 157.592 20.55H155.972C155.996 19.758 156.176 19.074 156.512 18.498C156.848 17.91 157.31 17.46 157.898 17.148C158.486 16.836 159.176 16.68 159.968 16.68C160.784 16.68 161.486 16.836 162.074 17.148C162.662 17.46 163.118 17.904 163.442 18.48C163.766 19.044 163.928 19.716 163.928 20.496C163.928 21.12 163.754 21.78 163.406 22.476C163.07 23.172 162.488 23.952 161.66 24.816L158.114 28.524H164.09V30H156.152Z" fill="white"/>
<circle cx="20" cy="24" r="16" fill="#7B58CF"/>
<circle cx="20" cy="24" r="18" stroke="#7B58CF" stroke-opacity="0.3" stroke-width="4"/>
<path d="M16.2235 30V28.524H19.7875V18.264L16.2235 20.928V19.074L19.1935 16.86H21.4075V28.524H24.3235V30H16.2235Z" fill="white"/>
</g>
<defs>
<clipPath id="clip0_659_12546">
<rect width="434" height="63" fill="white"/>
</clipPath>
</defs>
</svg>
