<svg width="442" height="85" viewBox="0 0 442 85" fill="none" xmlns="http://www.w3.org/2000/svg">
<rect x="36" y="24" width="384.243" height="48" rx="4" fill="#525252"/>
<rect x="60" y="50" width="200" height="6" rx="2" fill="white"/>
<rect x="60" y="40" width="217" height="6" rx="2" fill="white"/>
<rect x="301" y="45" width="65" height="6" rx="2" fill="#63A6E9"/>
<path d="M395.95 45.1716C395.559 44.781 394.926 44.781 394.536 45.1716L393.121 46.5858L391.707 45.1716C391.317 44.781 390.683 44.781 390.293 45.1716C389.902 45.5621 389.902 46.1953 390.293 46.5858L391.707 48L390.293 49.4142C389.902 49.8047 389.902 50.4379 390.293 50.8284C390.683 51.2189 391.317 51.2189 391.707 50.8284L393.121 49.4142L394.536 50.8284C394.926 51.219 395.559 51.219 395.95 50.8284C396.34 50.4379 396.34 49.8047 395.95 49.4142L394.536 48L395.95 46.5858C396.34 46.1953 396.34 45.5621 395.95 45.1716Z" fill="white"/>
<circle cx="422" cy="48" r="16" fill="#7B58CF"/>
<circle cx="422" cy="48" r="18" stroke="#7B58CF" stroke-opacity="0.3" stroke-width="4"/>
<path d="M423.037 42.4951L418.897 49.4297H423.037V42.4951ZM422.747 40.8779H424.804V49.4297H426.553V50.8711H424.804V54H423.037V50.8711H417.474V49.1924L422.747 40.8779Z" fill="white"/>
<circle cx="334" cy="65" r="16" fill="#7B58CF"/>
<circle cx="334" cy="65" r="18" stroke="#7B58CF" stroke-opacity="0.3" stroke-width="4"/>
<path d="M335.397 63.9775C336.259 64.2061 336.918 64.6133 337.375 65.1992C337.832 65.7793 338.061 66.5059 338.061 67.3789C338.061 68.5859 337.653 69.5352 336.839 70.2266C336.03 70.9121 334.908 71.2549 333.473 71.2549C332.869 71.2549 332.254 71.1992 331.627 71.0879C331 70.9766 330.385 70.8154 329.781 70.6045V68.8379C330.379 69.1484 330.968 69.3799 331.548 69.5322C332.128 69.6846 332.705 69.7607 333.279 69.7607C334.252 69.7607 334.999 69.541 335.521 69.1016C336.042 68.6621 336.303 68.0293 336.303 67.2031C336.303 66.4414 336.042 65.8379 335.521 65.3926C334.999 64.9414 334.293 64.7158 333.402 64.7158H332.049V63.2568H333.402C334.217 63.2568 334.853 63.0781 335.31 62.7207C335.767 62.3633 335.995 61.8652 335.995 61.2266C335.995 60.5527 335.781 60.0371 335.354 59.6797C334.932 59.3164 334.328 59.1348 333.543 59.1348C333.021 59.1348 332.482 59.1934 331.926 59.3105C331.369 59.4277 330.786 59.6035 330.177 59.8379V58.2031C330.886 58.0156 331.516 57.875 332.066 57.7812C332.623 57.6875 333.115 57.6406 333.543 57.6406C334.82 57.6406 335.84 57.9629 336.602 58.6074C337.369 59.2461 337.753 60.0957 337.753 61.1562C337.753 61.877 337.551 62.4775 337.146 62.958C336.748 63.4385 336.165 63.7783 335.397 63.9775Z" fill="white"/>
<circle cx="160" cy="65" r="16" fill="#7B58CF"/>
<circle cx="160" cy="65" r="18" stroke="#7B58CF" stroke-opacity="0.3" stroke-width="4"/>
<path d="M157.855 69.5059H163.885V71H155.913V69.5059C157.009 68.3516 157.967 67.332 158.787 66.4473C159.607 65.5625 160.173 64.9385 160.483 64.5752C161.069 63.8604 161.465 63.2832 161.67 62.8438C161.875 62.3984 161.978 61.9443 161.978 61.4814C161.978 60.749 161.761 60.1748 161.327 59.7588C160.899 59.3428 160.311 59.1348 159.561 59.1348C159.027 59.1348 158.468 59.2314 157.882 59.4248C157.296 59.6182 156.675 59.9111 156.019 60.3037V58.5107C156.622 58.2236 157.214 58.0068 157.794 57.8604C158.38 57.7139 158.957 57.6406 159.525 57.6406C160.809 57.6406 161.84 57.9834 162.619 58.6689C163.404 59.3486 163.797 60.2422 163.797 61.3496C163.797 61.9121 163.665 62.4746 163.401 63.0371C163.144 63.5996 162.722 64.2207 162.136 64.9004C161.808 65.2812 161.33 65.8086 160.703 66.4824C160.082 67.1562 159.133 68.1641 157.855 69.5059Z" fill="white"/>
<circle cx="20" cy="20" r="16" fill="#7B58CF"/>
<circle cx="20" cy="20" r="18" stroke="#7B58CF" stroke-opacity="0.3" stroke-width="4"/>
<path d="M16.9502 24.5146H19.71V14.6006L16.4053 16.1914V14.4863L19.6924 12.9219H21.4678V24.5146H24.1924V26H16.9502V24.5146Z" fill="white"/>
</svg>
