<svg width="434" height="63" fill="none" xmlns="http://www.w3.org/2000/svg"><g clip-path="url(#toast-structure__a)"><rect x="36" width="384.243" height="48" rx="4" fill="#535158"/><rect x="60" y="26" width="200" height="6" rx="2" fill="#fff"/><rect x="60" y="16" width="217" height="6" rx="2" fill="#fff"/><rect x="301" y="21" width="65" height="6" rx="2" fill="#63A6E9"/><path d="M395.95 21.172a1 1 0 0 0-1.414 0l-1.415 1.414-1.414-1.414a1 1 0 1 0-1.414 1.414L391.707 24l-1.414 1.414a1 1 0 1 0 1.414 1.414l1.414-1.414 1.415 1.414a1 1 0 1 0 1.414-1.414L394.536 24l1.414-1.414a1 1 0 0 0 0-1.414Z" fill="#fff"/><circle cx="414" cy="24" r="16" fill="#7B58CF"/><circle cx="414" cy="24" r="18" stroke="#7B58CF" stroke-opacity=".3" stroke-width="4"/><path d="M415.804 30v-2.88h-5.94v-2.538l4.788-7.722h1.836l-5.004 8.082v.702h4.32V22.44h1.62V30h-1.62Z" fill="#fff"/><circle cx="334" cy="43" r="16" fill="#7B58CF"/><circle cx="334" cy="43" r="18" stroke="#7B58CF" stroke-opacity=".3" stroke-width="4"/><path d="M333.806 49.18c-1.212 0-2.172-.336-2.88-1.008-.708-.684-1.062-1.608-1.062-2.772h1.62c0 .72.21 1.29.63 1.71.42.42.99.63 1.71.63s1.29-.21 1.71-.63c.42-.42.63-.99.63-1.71v-.9c0-.72-.21-1.29-.63-1.71-.42-.42-.99-.63-1.71-.63h-1.422v-1.404l3.222-3.42h-5.4V35.86h7.236v1.512l-3.6 3.834v-.486c1.212 0 2.166.342 2.862 1.026.708.672 1.062 1.59 1.062 2.754v.9c0 1.164-.36 2.088-1.08 2.772-.708.672-1.674 1.008-2.898 1.008Z" fill="#fff"/><circle cx="160" cy="24" r="16" fill="#7B58CF"/><circle cx="160" cy="24" r="18" stroke="#7B58CF" stroke-opacity=".3" stroke-width="4"/><path d="M156.152 30v-1.494l4.374-4.68c.636-.672 1.086-1.272 1.35-1.8s.396-1.044.396-1.548c0-.72-.21-1.29-.63-1.71-.408-.432-.966-.648-1.674-.648-.732 0-1.314.222-1.746.666-.42.432-.63 1.02-.63 1.764h-1.62c.024-.792.204-1.476.54-2.052a3.41 3.41 0 0 1 1.386-1.35c.588-.312 1.278-.468 2.07-.468.816 0 1.518.156 2.106.468a3.325 3.325 0 0 1 1.368 1.332c.324.564.486 1.236.486 2.016 0 .624-.174 1.284-.522 1.98-.336.696-.918 1.476-1.746 2.34l-3.546 3.708h5.976V30h-7.938Z" fill="#fff"/><circle cx="20" cy="24" r="16" fill="#7B58CF"/><circle cx="20" cy="24" r="18" stroke="#7B58CF" stroke-opacity=".3" stroke-width="4"/><path d="M16.224 30v-1.476h3.564v-10.26l-3.564 2.664v-1.854l2.97-2.214h2.213v11.664h2.916V30h-8.1Z" fill="#fff"/></g><defs><clipPath id="toast-structure__a"><path fill="#fff" d="M0 0h434v63H0z"/></clipPath></defs></svg>