<svg width="184" height="120" viewBox="0 0 184 120" fill="none" xmlns="http://www.w3.org/2000/svg">
<rect x="42" y="40" width="76" height="40" rx="20" fill="#868686"/>
<rect x="46" y="44" width="32" height="32" rx="16" fill="white"/>
<rect x="42" y="16" width="44" height="8" rx="2" fill="#525252"/>
<rect x="42" y="96" width="142" height="8" rx="2" fill="#868686"/>
<circle cx="20" cy="100" r="16" fill="#7B58CF"/>
<circle cx="20" cy="100" r="18" stroke="#7B58CF" stroke-opacity="0.3" stroke-width="4"/>
<path d="M21.0371 94.4951L16.8975 101.43H21.0371V94.4951ZM20.7471 92.8779H22.8037V101.43H24.5527V102.871H22.8037V106H21.0371V102.871H15.4736V101.192L20.7471 92.8779Z" fill="white"/>
<circle cx="116" cy="60" r="16" fill="#7B58CF"/>
<circle cx="116" cy="60" r="18" stroke="#7B58CF" stroke-opacity="0.3" stroke-width="4"/>
<path d="M117.397 58.9775C118.259 59.2061 118.918 59.6133 119.375 60.1992C119.832 60.7793 120.061 61.5059 120.061 62.3789C120.061 63.5859 119.653 64.5352 118.839 65.2266C118.03 65.9121 116.908 66.2549 115.473 66.2549C114.869 66.2549 114.254 66.1992 113.627 66.0879C113 65.9766 112.385 65.8154 111.781 65.6045V63.8379C112.379 64.1484 112.968 64.3799 113.548 64.5322C114.128 64.6846 114.705 64.7607 115.279 64.7607C116.252 64.7607 116.999 64.541 117.521 64.1016C118.042 63.6621 118.303 63.0293 118.303 62.2031C118.303 61.4414 118.042 60.8379 117.521 60.3926C116.999 59.9414 116.293 59.7158 115.402 59.7158H114.049V58.2568H115.402C116.217 58.2568 116.853 58.0781 117.31 57.7207C117.767 57.3633 117.995 56.8652 117.995 56.2266C117.995 55.5527 117.781 55.0371 117.354 54.6797C116.932 54.3164 116.328 54.1348 115.543 54.1348C115.021 54.1348 114.482 54.1934 113.926 54.3105C113.369 54.4277 112.786 54.6035 112.177 54.8379V53.2031C112.886 53.0156 113.516 52.875 114.066 52.7812C114.623 52.6875 115.115 52.6406 115.543 52.6406C116.82 52.6406 117.84 52.9629 118.602 53.6074C119.369 54.2461 119.753 55.0957 119.753 56.1562C119.753 56.877 119.551 57.4775 119.146 57.958C118.748 58.4385 118.165 58.7783 117.397 58.9775Z" fill="white"/>
<circle cx="36" cy="60" r="16" fill="#7B58CF"/>
<circle cx="36" cy="60" r="18" stroke="#7B58CF" stroke-opacity="0.3" stroke-width="4"/>
<path d="M33.8555 64.5059H39.8848V66H31.9131V64.5059C33.0088 63.3516 33.9668 62.332 34.7871 61.4473C35.6074 60.5625 36.1729 59.9385 36.4834 59.5752C37.0693 58.8604 37.4648 58.2832 37.6699 57.8438C37.875 57.3984 37.9775 56.9443 37.9775 56.4814C37.9775 55.749 37.7607 55.1748 37.3271 54.7588C36.8994 54.3428 36.3105 54.1348 35.5605 54.1348C35.0273 54.1348 34.4678 54.2314 33.8818 54.4248C33.2959 54.6182 32.6748 54.9111 32.0186 55.3037V53.5107C32.6221 53.2236 33.2139 53.0068 33.7939 52.8604C34.3799 52.7139 34.957 52.6406 35.5254 52.6406C36.8086 52.6406 37.8398 52.9834 38.6191 53.6689C39.4043 54.3486 39.7969 55.2422 39.7969 56.3496C39.7969 56.9121 39.665 57.4746 39.4014 58.0371C39.1436 58.5996 38.7217 59.2207 38.1357 59.9004C37.8076 60.2812 37.3301 60.8086 36.7031 61.4824C36.082 62.1562 35.1328 63.1641 33.8555 64.5059Z" fill="white"/>
<circle cx="20" cy="20" r="16" fill="#7B58CF"/>
<circle cx="20" cy="20" r="18" stroke="#7B58CF" stroke-opacity="0.3" stroke-width="4"/>
<path d="M16.9502 24.5146H19.71V14.6006L16.4053 16.1914V14.4863L19.6924 12.9219H21.4678V24.5146H24.1924V26H16.9502V24.5146Z" fill="white"/>
</svg>
