<svg width="184" height="136" viewBox="0 0 184 136" fill="none" xmlns="http://www.w3.org/2000/svg">
<rect x="42" y="56" width="76" height="40" rx="20" fill="#868686"/>
<rect x="46" y="60" width="32" height="32" rx="16" fill="white"/>
<rect x="42" y="16" width="44" height="8" rx="2" fill="#525252"/>
<rect x="42" y="32" width="142" height="8" rx="2" fill="#868686"/>
<rect x="42" y="112" width="142" height="8" rx="2" fill="#868686"/>
<circle cx="116" cy="76" r="16" fill="#7B58CF"/>
<circle cx="116" cy="76" r="18" stroke="#7B58CF" stroke-opacity="0.3" stroke-width="4"/>
<path d="M117.037 70.4951L112.897 77.4297H117.037V70.4951ZM116.747 68.8779H118.804V77.4297H120.553V78.8711H118.804V82H117.037V78.8711H111.474V77.1924L116.747 68.8779Z" fill="white"/>
<circle cx="20" cy="116" r="16" fill="#7B58CF"/>
<circle cx="20" cy="116" r="18" stroke="#7B58CF" stroke-opacity="0.3" stroke-width="4"/>
<path d="M16.3965 108.878H23.041V110.372H18.0137V113.598C18.2656 113.504 18.5176 113.437 18.7695 113.396C19.0273 113.349 19.2852 113.325 19.543 113.325C20.9023 113.325 21.9805 113.727 22.7773 114.529C23.5742 115.332 23.9727 116.419 23.9727 117.79C23.9727 119.173 23.5537 120.263 22.7158 121.06C21.8838 121.856 20.7441 122.255 19.2969 122.255C18.5996 122.255 17.9609 122.208 17.3809 122.114C16.8066 122.021 16.291 121.88 15.834 121.692V119.891C16.373 120.184 16.915 120.403 17.46 120.55C18.0049 120.69 18.5615 120.761 19.1299 120.761C20.1084 120.761 20.8613 120.503 21.3887 119.987C21.9219 119.472 22.1885 118.739 22.1885 117.79C22.1885 116.853 21.9131 116.123 21.3623 115.602C20.8174 115.08 20.0557 114.819 19.0771 114.819C18.6025 114.819 18.1396 114.875 17.6885 114.986C17.2373 115.092 16.8066 115.253 16.3965 115.47V108.878Z" fill="white"/>
<circle cx="36" cy="76" r="16" fill="#7B58CF"/>
<circle cx="36" cy="76" r="18" stroke="#7B58CF" stroke-opacity="0.3" stroke-width="4"/>
<path d="M37.3975 74.9775C38.2588 75.2061 38.918 75.6133 39.375 76.1992C39.832 76.7793 40.0605 77.5059 40.0605 78.3789C40.0605 79.5859 39.6533 80.5352 38.8389 81.2266C38.0303 81.9121 36.9082 82.2549 35.4727 82.2549C34.8691 82.2549 34.2539 82.1992 33.627 82.0879C33 81.9766 32.3848 81.8154 31.7812 81.6045V79.8379C32.3789 80.1484 32.9678 80.3799 33.5479 80.5322C34.1279 80.6846 34.7051 80.7607 35.2793 80.7607C36.252 80.7607 36.999 80.541 37.5205 80.1016C38.042 79.6621 38.3027 79.0293 38.3027 78.2031C38.3027 77.4414 38.042 76.8379 37.5205 76.3926C36.999 75.9414 36.293 75.7158 35.4023 75.7158H34.0488V74.2568H35.4023C36.2168 74.2568 36.8525 74.0781 37.3096 73.7207C37.7666 73.3633 37.9951 72.8652 37.9951 72.2266C37.9951 71.5527 37.7812 71.0371 37.3535 70.6797C36.9316 70.3164 36.3281 70.1348 35.543 70.1348C35.0215 70.1348 34.4824 70.1934 33.9258 70.3105C33.3691 70.4277 32.7861 70.6035 32.1768 70.8379V69.2031C32.8857 69.0156 33.5156 68.875 34.0664 68.7812C34.623 68.6875 35.1152 68.6406 35.543 68.6406C36.8203 68.6406 37.8398 68.9629 38.6016 69.6074C39.3691 70.2461 39.7529 71.0957 39.7529 72.1562C39.7529 72.877 39.5508 73.4775 39.1465 73.958C38.748 74.4385 38.165 74.7783 37.3975 74.9775Z" fill="white"/>
<circle cx="148" cy="36" r="16" fill="#7B58CF"/>
<circle cx="148" cy="36" r="18" stroke="#7B58CF" stroke-opacity="0.3" stroke-width="4"/>
<path d="M145.855 40.5059H151.885V42H143.913V40.5059C145.009 39.3516 145.967 38.332 146.787 37.4473C147.607 36.5625 148.173 35.9385 148.483 35.5752C149.069 34.8604 149.465 34.2832 149.67 33.8438C149.875 33.3984 149.978 32.9443 149.978 32.4814C149.978 31.749 149.761 31.1748 149.327 30.7588C148.899 30.3428 148.311 30.1348 147.561 30.1348C147.027 30.1348 146.468 30.2314 145.882 30.4248C145.296 30.6182 144.675 30.9111 144.019 31.3037V29.5107C144.622 29.2236 145.214 29.0068 145.794 28.8604C146.38 28.7139 146.957 28.6406 147.525 28.6406C148.809 28.6406 149.84 28.9834 150.619 29.6689C151.404 30.3486 151.797 31.2422 151.797 32.3496C151.797 32.9121 151.665 33.4746 151.401 34.0371C151.144 34.5996 150.722 35.2207 150.136 35.9004C149.808 36.2812 149.33 36.8086 148.703 37.4824C148.082 38.1562 147.133 39.1641 145.855 40.5059Z" fill="white"/>
<circle cx="20" cy="20" r="16" fill="#7B58CF"/>
<circle cx="20" cy="20" r="18" stroke="#7B58CF" stroke-opacity="0.3" stroke-width="4"/>
<path d="M16.9502 24.5146H19.71V14.6006L16.4053 16.1914V14.4863L19.6924 12.9219H21.4678V24.5146H24.1924V26H16.9502V24.5146Z" fill="white"/>
</svg>
