<svg width="232" height="156" viewBox="0 0 232 156" fill="none" xmlns="http://www.w3.org/2000/svg">
<rect x="57" y="58" width="76" height="40" rx="20" fill="#868686"/>
<rect x="61" y="62" width="32" height="32" rx="16" fill="white"/>
<rect x="61" y="34" width="44" height="8" rx="2" fill="#525252"/>
<rect x="65" y="114" width="142" height="8" rx="2" fill="#868686"/>
<circle cx="56" cy="78" r="16" fill="#7B58CF"/>
<circle cx="56" cy="78" r="18" stroke="#7B58CF" stroke-opacity="0.3" stroke-width="4"/>
<path d="M53.8555 82.5059H59.8848V84H51.9131V82.5059C53.0088 81.3516 53.9668 80.332 54.7871 79.4473C55.6074 78.5625 56.1729 77.9385 56.4834 77.5752C57.0693 76.8604 57.4648 76.2832 57.6699 75.8438C57.875 75.3984 57.9775 74.9443 57.9775 74.4814C57.9775 73.749 57.7607 73.1748 57.3271 72.7588C56.8994 72.3428 56.3105 72.1348 55.5605 72.1348C55.0273 72.1348 54.4678 72.2314 53.8818 72.4248C53.2959 72.6182 52.6748 72.9111 52.0186 73.3037V71.5107C52.6221 71.2236 53.2139 71.0068 53.7939 70.8604C54.3799 70.7139 54.957 70.6406 55.5254 70.6406C56.8086 70.6406 57.8398 70.9834 58.6191 71.6689C59.4043 72.3486 59.7969 73.2422 59.7969 74.3496C59.7969 74.9121 59.665 75.4746 59.4014 76.0371C59.1436 76.5996 58.7217 77.2207 58.1357 77.9004C57.8076 78.2812 57.3301 78.8086 56.7031 79.4824C56.082 80.1562 55.1328 81.1641 53.8555 82.5059Z" fill="white"/>
<circle cx="136" cy="78" r="16" fill="#7B58CF"/>
<circle cx="136" cy="78" r="18" stroke="#7B58CF" stroke-opacity="0.3" stroke-width="4"/>
<path d="M137.397 76.9775C138.259 77.2061 138.918 77.6133 139.375 78.1992C139.832 78.7793 140.061 79.5059 140.061 80.3789C140.061 81.5859 139.653 82.5352 138.839 83.2266C138.03 83.9121 136.908 84.2549 135.473 84.2549C134.869 84.2549 134.254 84.1992 133.627 84.0879C133 83.9766 132.385 83.8154 131.781 83.6045V81.8379C132.379 82.1484 132.968 82.3799 133.548 82.5322C134.128 82.6846 134.705 82.7607 135.279 82.7607C136.252 82.7607 136.999 82.541 137.521 82.1016C138.042 81.6621 138.303 81.0293 138.303 80.2031C138.303 79.4414 138.042 78.8379 137.521 78.3926C136.999 77.9414 136.293 77.7158 135.402 77.7158H134.049V76.2568H135.402C136.217 76.2568 136.853 76.0781 137.31 75.7207C137.767 75.3633 137.995 74.8652 137.995 74.2266C137.995 73.5527 137.781 73.0371 137.354 72.6797C136.932 72.3164 136.328 72.1348 135.543 72.1348C135.021 72.1348 134.482 72.1934 133.926 72.3105C133.369 72.4277 132.786 72.6035 132.177 72.8379V71.2031C132.886 71.0156 133.516 70.875 134.066 70.7812C134.623 70.6875 135.115 70.6406 135.543 70.6406C136.82 70.6406 137.84 70.9629 138.602 71.6074C139.369 72.2461 139.753 73.0957 139.753 74.1562C139.753 74.877 139.551 75.4775 139.146 75.958C138.748 76.4385 138.165 76.7783 137.397 76.9775Z" fill="white"/>
<circle cx="40" cy="118" r="16" fill="#7B58CF"/>
<circle cx="40" cy="118" r="18" stroke="#7B58CF" stroke-opacity="0.3" stroke-width="4"/>
<path d="M41.0371 112.495L36.8975 119.43H41.0371V112.495ZM40.7471 110.878H42.8037V119.43H44.5527V120.871H42.8037V124H41.0371V120.871H35.4736V119.192L40.7471 110.878Z" fill="white"/>
<circle cx="40" cy="38" r="16" fill="#7B58CF"/>
<circle cx="40" cy="38" r="18" stroke="#7B58CF" stroke-opacity="0.3" stroke-width="4"/>
<path d="M36.9502 42.5146H39.71V32.6006L36.4053 34.1914V32.4863L39.6924 30.9219H41.4678V42.5146H44.1924V44H36.9502V42.5146Z" fill="white"/>
</svg>
