<svg width="214" height="136" viewBox="0 0 214 136" fill="none" xmlns="http://www.w3.org/2000/svg">
<g clip-path="url(#clip0_843_12596)">
<rect x="36" y="56" width="76" height="40" rx="20" fill="#868686"/>
<rect x="40" y="60" width="32" height="32" rx="16" fill="white"/>
<rect x="36" y="112" width="142" height="8" rx="2" fill="#BFBFC3"/>
<rect x="36" y="32" width="142" height="8" rx="2" fill="#89888D"/>
<rect x="36" y="16" width="44" height="8" rx="2" fill="#535158"/>
<circle cx="194" cy="36" r="16" fill="#7B58CF"/>
<circle cx="194" cy="36" r="18" stroke="#7B58CF" stroke-opacity="0.3" stroke-width="4"/>
<path d="M190.152 42V40.506L194.526 35.826C195.162 35.154 195.612 34.554 195.876 34.026C196.14 33.498 196.272 32.982 196.272 32.478C196.272 31.758 196.062 31.188 195.642 30.768C195.234 30.336 194.676 30.12 193.968 30.12C193.236 30.12 192.654 30.342 192.222 30.786C191.802 31.218 191.592 31.806 191.592 32.55H189.972C189.996 31.758 190.176 31.074 190.512 30.498C190.848 29.91 191.31 29.46 191.898 29.148C192.486 28.836 193.176 28.68 193.968 28.68C194.784 28.68 195.486 28.836 196.074 29.148C196.662 29.46 197.118 29.904 197.442 30.48C197.766 31.044 197.928 31.716 197.928 32.496C197.928 33.12 197.754 33.78 197.406 34.476C197.07 35.172 196.488 35.952 195.66 36.816L192.114 40.524H198.09V42H190.152Z" fill="white"/>
<circle cx="194" cy="116" r="16" fill="#7B58CF"/>
<circle cx="194" cy="116" r="18" stroke="#7B58CF" stroke-opacity="0.3" stroke-width="4"/>
<path d="M193.896 122.18C192.684 122.18 191.724 121.844 191.016 121.172C190.308 120.488 189.954 119.564 189.954 118.4H191.574C191.574 119.12 191.784 119.69 192.204 120.11C192.624 120.53 193.194 120.74 193.914 120.74C194.634 120.74 195.204 120.53 195.624 120.11C196.044 119.69 196.254 119.12 196.254 118.4V117.59C196.254 116.87 196.05 116.3 195.642 115.88C195.234 115.46 194.682 115.25 193.986 115.25H190.404V108.86H197.406V110.336H191.916L191.952 113.774H194.076C195.288 113.774 196.224 114.11 196.884 114.782C197.544 115.442 197.874 116.378 197.874 117.59V118.4C197.874 119.564 197.514 120.488 196.794 121.172C196.086 121.844 195.12 122.18 193.896 122.18Z" fill="white"/>
<circle cx="128" cy="76" r="16" fill="#7B58CF"/>
<circle cx="128" cy="76" r="18" stroke="#7B58CF" stroke-opacity="0.3" stroke-width="4"/>
<path d="M129.804 82V79.12H123.864V76.582L128.652 68.86H130.488L125.484 76.942V77.644H129.804V74.44H131.424V82H129.804Z" fill="white"/>
<circle cx="24" cy="76" r="16" fill="#7B58CF"/>
<circle cx="24" cy="76" r="18" stroke="#7B58CF" stroke-opacity="0.3" stroke-width="4"/>
<path d="M23.8055 82.18C22.5935 82.18 21.6335 81.844 20.9255 81.172C20.2175 80.488 19.8635 79.564 19.8635 78.4H21.4835C21.4835 79.12 21.6935 79.69 22.1135 80.11C22.5335 80.53 23.1035 80.74 23.8235 80.74C24.5435 80.74 25.1135 80.53 25.5335 80.11C25.9535 79.69 26.1635 79.12 26.1635 78.4V77.5C26.1635 76.78 25.9535 76.21 25.5335 75.79C25.1135 75.37 24.5435 75.16 23.8235 75.16H22.4015V73.756L25.6235 70.336H20.2235V68.86H27.4595V70.372L23.8595 74.206V73.72C25.0715 73.72 26.0255 74.062 26.7215 74.746C27.4295 75.418 27.7835 76.336 27.7835 77.5V78.4C27.7835 79.564 27.4235 80.488 26.7035 81.172C25.9955 81.844 25.0295 82.18 23.8055 82.18Z" fill="white"/>
<circle cx="20" cy="20" r="16" fill="#7B58CF"/>
<circle cx="20" cy="20" r="18" stroke="#7B58CF" stroke-opacity="0.3" stroke-width="4"/>
<path d="M16.2235 26V24.524H19.7875V14.264L16.2235 16.928V15.074L19.1935 12.86H21.4075V24.524H24.3235V26H16.2235Z" fill="white"/>
</g>
<defs>
<clipPath id="clip0_843_12596">
<rect width="214" height="136" fill="white"/>
</clipPath>
</defs>
</svg>
