<svg width="214" height="136" fill="none" xmlns="http://www.w3.org/2000/svg"><g clip-path="url(#toggle-structure__a)"><rect x="36" y="56" width="76" height="40" rx="20" fill="#868686"/><rect x="40" y="60" width="32" height="32" rx="16" fill="#fff"/><rect x="36" y="112" width="142" height="8" rx="2" fill="#BFBFC3"/><rect x="36" y="32" width="142" height="8" rx="2" fill="#89888D"/><rect x="36" y="16" width="44" height="8" rx="2" fill="#535158"/><circle cx="194" cy="36" r="16" fill="#7B58CF"/><circle cx="194" cy="36" r="18" stroke="#7B58CF" stroke-opacity=".3" stroke-width="4"/><path d="M190.152 42v-1.494l4.374-4.68c.636-.672 1.086-1.272 1.35-1.8s.396-1.044.396-1.548c0-.72-.21-1.29-.63-1.71-.408-.432-.966-.648-1.674-.648-.732 0-1.314.222-1.746.666-.42.432-.63 1.02-.63 1.764h-1.62c.024-.792.204-1.476.54-2.052a3.41 3.41 0 0 1 1.386-1.35c.588-.312 1.278-.468 2.07-.468.816 0 1.518.156 2.106.468a3.325 3.325 0 0 1 1.368 1.332c.324.564.486 1.236.486 2.016 0 .624-.174 1.284-.522 1.98-.336.696-.918 1.476-1.746 2.34l-3.546 3.708h5.976V42h-7.938Z" fill="#fff"/><circle cx="194" cy="116" r="16" fill="#7B58CF"/><circle cx="194" cy="116" r="18" stroke="#7B58CF" stroke-opacity=".3" stroke-width="4"/><path d="M193.896 122.18c-1.212 0-2.172-.336-2.88-1.008-.708-.684-1.062-1.608-1.062-2.772h1.62c0 .72.21 1.29.63 1.71.42.42.99.63 1.71.63s1.29-.21 1.71-.63c.42-.42.63-.99.63-1.71v-.81c0-.72-.204-1.29-.612-1.71-.408-.42-.96-.63-1.656-.63h-3.582v-6.39h7.002v1.476h-5.49l.036 3.438h2.124c1.212 0 2.148.336 2.808 1.008.66.66.99 1.596.99 2.808v.81c0 1.164-.36 2.088-1.08 2.772-.708.672-1.674 1.008-2.898 1.008Z" fill="#fff"/><circle cx="128" cy="76" r="16" fill="#7B58CF"/><circle cx="128" cy="76" r="18" stroke="#7B58CF" stroke-opacity=".3" stroke-width="4"/><path d="M129.804 82v-2.88h-5.94v-2.538l4.788-7.722h1.836l-5.004 8.082v.702h4.32V74.44h1.62V82h-1.62Z" fill="#fff"/><circle cx="24" cy="76" r="16" fill="#7B58CF"/><circle cx="24" cy="76" r="18" stroke="#7B58CF" stroke-opacity=".3" stroke-width="4"/><path d="M23.805 82.18c-1.212 0-2.171-.336-2.88-1.008-.707-.684-1.062-1.608-1.062-2.772h1.62c0 .72.21 1.29.63 1.71.42.42.99.63 1.71.63s1.29-.21 1.71-.63c.42-.42.63-.99.63-1.71v-.9c0-.72-.21-1.29-.63-1.71-.42-.42-.99-.63-1.71-.63h-1.422v-1.404l3.223-3.42h-5.4V68.86h7.235v1.512l-3.6 3.834v-.486c1.212 0 2.166.342 2.862 1.026.709.672 1.063 1.59 1.063 2.754v.9c0 1.164-.36 2.088-1.08 2.772-.709.672-1.675 1.008-2.899 1.008Z" fill="#fff"/><circle cx="20" cy="20" r="16" fill="#7B58CF"/><circle cx="20" cy="20" r="18" stroke="#7B58CF" stroke-opacity=".3" stroke-width="4"/><path d="M16.224 26v-1.476h3.564v-10.26l-3.564 2.664v-1.854l2.97-2.214h2.213v11.664h2.916V26h-8.1Z" fill="#fff"/></g><defs><clipPath id="toggle-structure__a"><path fill="#fff" d="M0 0h214v136H0z"/></clipPath></defs></svg>