<svg width="203" height="93" fill="none" xmlns="http://www.w3.org/2000/svg"><g clip-path="url(#token-structure__a)"><path fill="#fff" d="M0 0h203v93H0z"/><rect x="29" y="31" width="150" height="36" rx="4" fill="#DCDCDE"/><rect x="39.5" y="41.5" width="15" height="15" rx="7.5" fill="#E9F3FC"/><rect x="39.5" y="41.5" width="15" height="15" rx="7.5" stroke="#BFBFC3"/><rect x="65" y="45" width="78" height="8" rx="2" fill="#535158"/><path d="M164.293 44.293a1 1 0 1 1 1.414 1.414L162.414 49l3.293 3.293a1 1 0 1 1-1.414 1.414L161 50.414l-3.293 3.293a1 1 0 1 1-1.414-1.414L159.586 49l-3.293-3.293a1 1 0 1 1 1.414-1.414L161 47.586l3.293-3.293Z" fill="#737278"/><circle cx="183" cy="49" r="16" fill="#7B58CF"/><circle cx="183" cy="49" r="18" stroke="#7B58CF" stroke-opacity=".3" stroke-width="4"/><path d="M184.804 55v-2.88h-5.94v-2.538l4.788-7.722h1.836l-5.004 8.082v.702h4.32V47.44h1.62V55h-1.62Z" fill="#fff"/><circle cx="104" cy="69" r="16" fill="#7B58CF"/><circle cx="104" cy="69" r="18" stroke="#7B58CF" stroke-opacity=".3" stroke-width="4"/><path d="M103.806 75.18c-1.212 0-2.172-.336-2.88-1.008-.708-.684-1.063-1.608-1.063-2.772h1.621c0 .72.21 1.29.63 1.71.42.42.99.63 1.71.63s1.29-.21 1.71-.63c.42-.42.63-.99.63-1.71v-.9c0-.72-.21-1.29-.63-1.71-.42-.42-.99-.63-1.71-.63h-1.422v-1.404l3.222-3.42h-5.4V61.86h7.236v1.512l-3.6 3.834v-.486c1.212 0 2.166.342 2.862 1.026.708.672 1.062 1.59 1.062 2.754v.9c0 1.164-.36 2.088-1.08 2.772-.708.672-1.674 1.008-2.898 1.008Z" fill="#fff"/><circle cx="47" cy="73" r="16" fill="#7B58CF"/><circle cx="47" cy="73" r="18" stroke="#7B58CF" stroke-opacity=".3" stroke-width="4"/><path d="M43.151 79v-1.494l4.374-4.68c.636-.672 1.087-1.272 1.35-1.8.264-.528.397-1.044.397-1.548 0-.72-.21-1.29-.63-1.71-.409-.432-.967-.648-1.675-.648-.731 0-1.313.222-1.745.666-.42.432-.63 1.02-.63 1.764h-1.62c.023-.792.203-1.476.54-2.052a3.41 3.41 0 0 1 1.386-1.35c.587-.312 1.277-.468 2.07-.468.815 0 1.517.156 2.105.468a3.325 3.325 0 0 1 1.368 1.332c.325.564.486 1.236.486 2.016 0 .624-.173 1.284-.521 1.98-.337.696-.919 1.476-1.746 2.34l-3.546 3.708h5.976V79h-7.94Z" fill="#fff"/><circle cx="20" cy="20" r="16" fill="#7B58CF"/><circle cx="20" cy="20" r="18" stroke="#7B58CF" stroke-opacity=".3" stroke-width="4"/><path d="M16.224 26v-1.476h3.564v-10.26l-3.564 2.664v-1.854l2.97-2.214h2.213v11.664h2.916V26h-8.1Z" fill="#fff"/></g><defs><clipPath id="token-structure__a"><path fill="#fff" d="M0 0h203v93H0z"/></clipPath></defs></svg>