<svg width="203" height="93" viewBox="0 0 203 93" fill="none" xmlns="http://www.w3.org/2000/svg">
<g clip-path="url(#clip0_894_12803)">
<rect width="203" height="93" fill="white"/>
<rect x="29" y="31" width="150" height="36" rx="4" fill="#DCDCDE"/>
<rect x="39.5" y="41.5" width="15" height="15" rx="7.5" fill="#E9F3FC"/>
<rect x="39.5" y="41.5" width="15" height="15" rx="7.5" stroke="#BFBFC3"/>
<rect x="65" y="45" width="78" height="8" rx="2" fill="#535158"/>
<path d="M164.293 44.2929C164.683 43.9024 165.317 43.9024 165.707 44.2929C166.098 44.6834 166.098 45.3166 165.707 45.7071L162.414 49L165.707 52.2929C166.098 52.6834 166.098 53.3166 165.707 53.7071C165.317 54.0976 164.683 54.0976 164.293 53.7071L161 50.4142L157.707 53.7071C157.317 54.0976 156.683 54.0976 156.293 53.7071C155.902 53.3166 155.902 52.6834 156.293 52.2929L159.586 49L156.293 45.7071C155.902 45.3166 155.902 44.6834 156.293 44.2929C156.683 43.9024 157.317 43.9024 157.707 44.2929L161 47.5858L164.293 44.2929Z" fill="#737278"/>
<circle cx="183" cy="49" r="16" fill="#7B58CF"/>
<circle cx="183" cy="49" r="18" stroke="#7B58CF" stroke-opacity="0.3" stroke-width="4"/>
<path d="M184.804 55V52.12H178.864V49.582L183.652 41.86H185.488L180.484 49.942V50.644H184.804V47.44H186.424V55H184.804Z" fill="white"/>
<circle cx="104" cy="69" r="16" fill="#7B58CF"/>
<circle cx="104" cy="69" r="18" stroke="#7B58CF" stroke-opacity="0.3" stroke-width="4"/>
<path d="M103.806 75.18C102.594 75.18 101.634 74.844 100.926 74.172C100.218 73.488 99.8635 72.564 99.8635 71.4H101.484C101.484 72.12 101.694 72.69 102.114 73.11C102.534 73.53 103.104 73.74 103.824 73.74C104.544 73.74 105.114 73.53 105.534 73.11C105.954 72.69 106.164 72.12 106.164 71.4V70.5C106.164 69.78 105.954 69.21 105.534 68.79C105.114 68.37 104.544 68.16 103.824 68.16H102.402V66.756L105.624 63.336H100.224V61.86H107.46V63.372L103.86 67.206V66.72C105.072 66.72 106.026 67.062 106.722 67.746C107.43 68.418 107.784 69.336 107.784 70.5V71.4C107.784 72.564 107.424 73.488 106.704 74.172C105.996 74.844 105.03 75.18 103.806 75.18Z" fill="white"/>
<circle cx="47" cy="73" r="16" fill="#7B58CF"/>
<circle cx="47" cy="73" r="18" stroke="#7B58CF" stroke-opacity="0.3" stroke-width="4"/>
<path d="M43.1515 79V77.506L47.5255 72.826C48.1615 72.154 48.6115 71.554 48.8755 71.026C49.1395 70.498 49.2715 69.982 49.2715 69.478C49.2715 68.758 49.0615 68.188 48.6415 67.768C48.2335 67.336 47.6755 67.12 46.9675 67.12C46.2355 67.12 45.6535 67.342 45.2215 67.786C44.8015 68.218 44.5915 68.806 44.5915 69.55H42.9715C42.9955 68.758 43.1755 68.074 43.5115 67.498C43.8475 66.91 44.3095 66.46 44.8975 66.148C45.4855 65.836 46.1755 65.68 46.9675 65.68C47.7835 65.68 48.4855 65.836 49.0735 66.148C49.6615 66.46 50.1175 66.904 50.4415 67.48C50.7655 68.044 50.9275 68.716 50.9275 69.496C50.9275 70.12 50.7535 70.78 50.4055 71.476C50.0695 72.172 49.4875 72.952 48.6595 73.816L45.1135 77.524H51.0895V79H43.1515Z" fill="white"/>
<circle cx="20" cy="20" r="16" fill="#7B58CF"/>
<circle cx="20" cy="20" r="18" stroke="#7B58CF" stroke-opacity="0.3" stroke-width="4"/>
<path d="M16.2235 26V24.524H19.7875V14.264L16.2235 16.928V15.074L19.1935 12.86H21.4075V24.524H24.3235V26H16.2235Z" fill="white"/>
</g>
<defs>
<clipPath id="clip0_894_12803">
<rect width="203" height="93" fill="white"/>
</clipPath>
</defs>
</svg>
