<svg width="200" height="93" viewBox="0 0 200 93" fill="none" xmlns="http://www.w3.org/2000/svg">
<rect width="200" height="93" fill="white"/>
<rect x="26" y="31" width="146" height="36" rx="4" fill="#DBDBDB"/>
<circle cx="44" cy="49" r="7.5" fill="#E9F3FC" stroke="#BFBFBF"/>
<rect x="62" y="45" width="74" height="8" rx="2" fill="#525252"/>
<path d="M157.293 44.2929C157.683 43.9024 158.317 43.9024 158.707 44.2929C159.098 44.6834 159.098 45.3166 158.707 45.7071L155.414 49L158.707 52.2929C159.098 52.6834 159.098 53.3166 158.707 53.7071C158.317 54.0976 157.683 54.0976 157.293 53.7071L154 50.4142L150.707 53.7071C150.317 54.0976 149.683 54.0976 149.293 53.7071C148.902 53.3166 148.902 52.6834 149.293 52.2929L152.586 49L149.293 45.7071C148.902 45.3166 148.902 44.6834 149.293 44.2929C149.683 43.9024 150.317 43.9024 150.707 44.2929L154 47.5858L157.293 44.2929Z" fill="#666666"/>
<circle cx="180" cy="49" r="16" fill="#7B58CF"/>
<circle cx="180" cy="49" r="18" stroke="#7B58CF" stroke-opacity="0.3" stroke-width="4"/>
<path d="M181.037 43.4951L176.897 50.4297H181.037V43.4951ZM180.747 41.8779H182.804V50.4297H184.553V51.8711H182.804V55H181.037V51.8711H175.474V50.1924L180.747 41.8779Z" fill="white"/>
<circle cx="99" cy="73" r="16" fill="#7B58CF"/>
<circle cx="99" cy="73" r="18" stroke="#7B58CF" stroke-opacity="0.3" stroke-width="4"/>
<path d="M100.397 71.9775C101.259 72.2061 101.918 72.6133 102.375 73.1992C102.832 73.7793 103.061 74.5059 103.061 75.3789C103.061 76.5859 102.653 77.5352 101.839 78.2266C101.03 78.9121 99.9082 79.2549 98.4727 79.2549C97.8691 79.2549 97.2539 79.1992 96.627 79.0879C96 78.9766 95.3848 78.8154 94.7812 78.6045V76.8379C95.3789 77.1484 95.9678 77.3799 96.5479 77.5322C97.1279 77.6846 97.7051 77.7607 98.2793 77.7607C99.252 77.7607 99.999 77.541 100.521 77.1016C101.042 76.6621 101.303 76.0293 101.303 75.2031C101.303 74.4414 101.042 73.8379 100.521 73.3926C99.999 72.9414 99.293 72.7158 98.4023 72.7158H97.0488V71.2568H98.4023C99.2168 71.2568 99.8525 71.0781 100.31 70.7207C100.767 70.3633 100.995 69.8652 100.995 69.2266C100.995 68.5527 100.781 68.0371 100.354 67.6797C99.9316 67.3164 99.3281 67.1348 98.543 67.1348C98.0215 67.1348 97.4824 67.1934 96.9258 67.3105C96.3691 67.4277 95.7861 67.6035 95.1768 67.8379V66.2031C95.8857 66.0156 96.5156 65.875 97.0664 65.7812C97.623 65.6875 98.1152 65.6406 98.543 65.6406C99.8203 65.6406 100.84 65.9629 101.602 66.6074C102.369 67.2461 102.753 68.0957 102.753 69.1562C102.753 69.877 102.551 70.4775 102.146 70.958C101.748 71.4385 101.165 71.7783 100.397 71.9775Z" fill="white"/>
<circle cx="44" cy="73" r="16" fill="#7B58CF"/>
<circle cx="44" cy="73" r="18" stroke="#7B58CF" stroke-opacity="0.3" stroke-width="4"/>
<path d="M41.8555 77.5059H47.8848V79H39.9131V77.5059C41.0088 76.3516 41.9668 75.332 42.7871 74.4473C43.6074 73.5625 44.1729 72.9385 44.4834 72.5752C45.0693 71.8604 45.4648 71.2832 45.6699 70.8438C45.875 70.3984 45.9775 69.9443 45.9775 69.4814C45.9775 68.749 45.7607 68.1748 45.3271 67.7588C44.8994 67.3428 44.3105 67.1348 43.5605 67.1348C43.0273 67.1348 42.4678 67.2314 41.8818 67.4248C41.2959 67.6182 40.6748 67.9111 40.0186 68.3037V66.5107C40.6221 66.2236 41.2139 66.0068 41.7939 65.8604C42.3799 65.7139 42.957 65.6406 43.5254 65.6406C44.8086 65.6406 45.8398 65.9834 46.6191 66.6689C47.4043 67.3486 47.7969 68.2422 47.7969 69.3496C47.7969 69.9121 47.665 70.4746 47.4014 71.0371C47.1436 71.5996 46.7217 72.2207 46.1357 72.9004C45.8076 73.2812 45.3301 73.8086 44.7031 74.4824C44.082 75.1562 43.1328 76.1641 41.8555 77.5059Z" fill="white"/>
<circle cx="20" cy="20" r="16" fill="#7B58CF"/>
<circle cx="20" cy="20" r="18" stroke="#7B58CF" stroke-opacity="0.3" stroke-width="4"/>
<path d="M16.9502 24.5146H19.71V14.6006L16.4053 16.1914V14.4863L19.6924 12.9219H21.4678V24.5146H24.1924V26H16.9502V24.5146Z" fill="white"/>
</svg>
