<svg width="158" height="98" viewBox="0 0 158 98" fill="none" xmlns="http://www.w3.org/2000/svg"><g clip-path="url(#tooltip-structure__a)"><rect x="24" y="24" width="134" height="32" rx="4" fill="#535158"/><rect x="36" y="36" width="110" height="8" rx="2" fill="#fff"/><path d="M87 56h8l-4 4-4-4Z" fill="#535158"/><circle cx="91" cy="78" r="16" fill="#7B58CF"/><circle cx="91" cy="78" r="18" stroke="#7B58CF" stroke-opacity=".3" stroke-width="4"/><path d="M92.397 76.978c.862.228 1.521.635 1.978 1.221.457.58.686 1.307.686 2.18 0 1.207-.408 2.156-1.222 2.848-.809.685-1.93 1.028-3.366 1.028-.604 0-1.22-.056-1.846-.167a11.884 11.884 0 0 1-1.846-.483v-1.767a8.55 8.55 0 0 0 1.767.694 6.79 6.79 0 0 0 1.731.229c.973 0 1.72-.22 2.242-.66.521-.439.782-1.072.782-1.898 0-.762-.261-1.365-.782-1.81-.522-.452-1.228-.677-2.119-.677H89.05v-1.46h1.353c.815 0 1.45-.178 1.908-.535.457-.358.685-.856.685-1.494 0-.674-.214-1.19-.642-1.547-.421-.364-1.025-.545-1.81-.545a7.85 7.85 0 0 0-1.617.175 11.47 11.47 0 0 0-1.75.528v-1.635a21.833 21.833 0 0 1 1.89-.422 9.018 9.018 0 0 1 1.477-.14c1.277 0 2.297.322 3.059.966.767.64 1.15 1.489 1.15 2.55 0 .72-.201 1.32-.605 1.801-.399.48-.982.82-1.75 1.02Z" fill="#fff"/><circle cx="117" cy="40" r="16" fill="#7B58CF"/><circle cx="117" cy="40" r="18" stroke="#7B58CF" stroke-opacity=".3" stroke-width="4"/><path d="M114.855 44.506h6.03V46h-7.972v-1.494a353.699 353.699 0 0 0 2.874-3.059 72.85 72.85 0 0 0 1.696-1.872c.586-.715.982-1.292 1.187-1.731.205-.446.308-.9.308-1.363 0-.732-.217-1.306-.651-1.722-.428-.416-1.016-.624-1.766-.624-.534 0-1.093.096-1.679.29a9.412 9.412 0 0 0-1.863.879V33.51a9.607 9.607 0 0 1 1.775-.65 7.119 7.119 0 0 1 1.731-.22c1.284 0 2.315.342 3.094 1.028.785.68 1.178 1.573 1.178 2.68 0 .563-.132 1.126-.396 1.688-.257.563-.679 1.184-1.265 1.863-.328.381-.806.909-1.433 1.582-.621.674-1.57 1.682-2.848 3.024Z" fill="#fff"/><circle cx="20" cy="20" r="16" fill="#7B58CF"/><circle cx="20" cy="20" r="18" stroke="#7B58CF" stroke-opacity=".3" stroke-width="4"/><path d="M16.95 24.515h2.76V14.6l-3.305 1.59v-1.705l3.287-1.564h1.776v11.593h2.724V26H16.95v-1.485Z" fill="#fff"/></g><defs><clipPath id="tooltip-structure__a"><path fill="#fff" d="M0 0h158v98H0z"/></clipPath></defs></svg>