<svg width="188" height="102" viewBox="0 0 188 102" fill="none" xmlns="http://www.w3.org/2000/svg">
<g clip-path="url(#clip0_15171_25183)">
<rect x="30" y="30" width="134" height="32" rx="4" fill="#535158"/>
<rect x="42" y="42" width="110" height="8" rx="2" fill="white"/>
<path d="M93 62H101L97 66L93 62Z" fill="#535158"/>
<circle cx="97" cy="82" r="16" fill="#7B58CF"/>
<circle cx="97" cy="82" r="18" stroke="#7B58CF" stroke-opacity="0.3" stroke-width="4"/>
<path d="M96.8055 88.18C95.5935 88.18 94.6335 87.844 93.9255 87.172C93.2175 86.488 92.8635 85.564 92.8635 84.4H94.4835C94.4835 85.12 94.6935 85.69 95.1135 86.11C95.5335 86.53 96.1035 86.74 96.8235 86.74C97.5435 86.74 98.1135 86.53 98.5335 86.11C98.9535 85.69 99.1635 85.12 99.1635 84.4V83.5C99.1635 82.78 98.9535 82.21 98.5335 81.79C98.1135 81.37 97.5435 81.16 96.8235 81.16H95.4015V79.756L98.6235 76.336H93.2235V74.86H100.46V76.372L96.8595 80.206V79.72C98.0715 79.72 99.0255 80.062 99.7215 80.746C100.43 81.418 100.784 82.336 100.784 83.5V84.4C100.784 85.564 100.424 86.488 99.7035 87.172C98.9955 87.844 98.0295 88.18 96.8055 88.18Z" fill="white"/>
<circle cx="168" cy="46" r="16" fill="#7B58CF"/>
<circle cx="168" cy="46" r="18" stroke="#7B58CF" stroke-opacity="0.3" stroke-width="4"/>
<path d="M164.152 52V50.506L168.526 45.826C169.162 45.154 169.612 44.554 169.876 44.026C170.14 43.498 170.272 42.982 170.272 42.478C170.272 41.758 170.062 41.188 169.642 40.768C169.234 40.336 168.676 40.12 167.968 40.12C167.236 40.12 166.654 40.342 166.222 40.786C165.802 41.218 165.592 41.806 165.592 42.55H163.972C163.996 41.758 164.176 41.074 164.512 40.498C164.848 39.91 165.31 39.46 165.898 39.148C166.486 38.836 167.176 38.68 167.968 38.68C168.784 38.68 169.486 38.836 170.074 39.148C170.662 39.46 171.118 39.904 171.442 40.48C171.766 41.044 171.928 41.716 171.928 42.496C171.928 43.12 171.754 43.78 171.406 44.476C171.07 45.172 170.488 45.952 169.66 46.816L166.114 50.524H172.09V52H164.152Z" fill="white"/>
<circle cx="20" cy="20" r="16" fill="#7B58CF"/>
<circle cx="20" cy="20" r="18" stroke="#7B58CF" stroke-opacity="0.3" stroke-width="4"/>
<path d="M16.2235 26V24.524H19.7875V14.264L16.2235 16.928V15.074L19.1935 12.86H21.4075V24.524H24.3235V26H16.2235Z" fill="white"/>
</g>
<defs>
<clipPath id="clip0_15171_25183">
<rect width="188" height="102" fill="white"/>
</clipPath>
</defs>
</svg>
