<svg width="201" height="93" viewBox="0 0 201 93" fill="none" xmlns="http://www.w3.org/2000/svg">
<rect x="65" y="53" width="127" height="40" rx="6" fill="#1F75CB"/>
<rect x="55" width="146" height="45" rx="6" fill="black"/>
<path d="M128 53L136.66 41H119.34L128 53Z" fill="black"/>
<circle cx="20" cy="73" r="16" fill="#7B58CF"/>
<circle cx="20" cy="73" r="18" stroke="#7B58CF" stroke-opacity="0.3" stroke-width="4"/>
<path d="M16.9502 77.5146H19.71V67.6006L16.4053 69.1914V67.4863L19.6924 65.9219H21.4678V77.5146H24.1924V79H16.9502V77.5146Z" fill="white"/>
<circle cx="20" cy="22" r="16" fill="#7B58CF"/>
<circle cx="20" cy="22" r="18" stroke="#7B58CF" stroke-opacity="0.3" stroke-width="4"/>
<path d="M17.8555 26.5059H23.8848V28H15.9131V26.5059C17.0088 25.3516 17.9668 24.332 18.7871 23.4473C19.6074 22.5625 20.1729 21.9385 20.4834 21.5752C21.0693 20.8604 21.4648 20.2832 21.6699 19.8438C21.875 19.3984 21.9775 18.9443 21.9775 18.4814C21.9775 17.749 21.7607 17.1748 21.3271 16.7588C20.8994 16.3428 20.3105 16.1348 19.5605 16.1348C19.0273 16.1348 18.4678 16.2314 17.8818 16.4248C17.2959 16.6182 16.6748 16.9111 16.0186 17.3037V15.5107C16.6221 15.2236 17.2139 15.0068 17.7939 14.8604C18.3799 14.7139 18.957 14.6406 19.5254 14.6406C20.8086 14.6406 21.8398 14.9834 22.6191 15.6689C23.4043 16.3486 23.7969 17.2422 23.7969 18.3496C23.7969 18.9121 23.665 19.4746 23.4014 20.0371C23.1436 20.5996 22.7217 21.2207 22.1357 21.9004C21.8076 22.2812 21.3301 22.8086 20.7031 23.4824C20.082 24.1562 19.1328 25.1641 17.8555 26.5059Z" fill="white"/>
</svg>
