<svg width="188" height="102" fill="none" xmlns="http://www.w3.org/2000/svg"><g clip-path="url(#tooltip-structure__a)"><rect x="30" y="30" width="134" height="32" rx="4" fill="#535158"/><rect x="42" y="42" width="110" height="8" rx="2" fill="#fff"/><path d="M93 62h8l-4 4-4-4Z" fill="#535158"/><circle cx="97" cy="82" r="16" fill="#7B58CF"/><circle cx="97" cy="82" r="18" stroke="#7B58CF" stroke-opacity=".3" stroke-width="4"/><path d="M96.805 88.18c-1.212 0-2.172-.336-2.88-1.008-.707-.684-1.061-1.608-1.061-2.772h1.62c0 .72.21 1.29.63 1.71.42.42.99.63 1.71.63s1.29-.21 1.71-.63c.42-.42.63-.99.63-1.71v-.9c0-.72-.21-1.29-.63-1.71-.42-.42-.99-.63-1.71-.63h-1.422v-1.404l3.222-3.42h-5.4V74.86h7.236v1.512l-3.6 3.834v-.486c1.212 0 2.165.342 2.862 1.026.708.672 1.062 1.59 1.062 2.754v.9c0 1.164-.36 2.088-1.08 2.772-.708.672-1.674 1.008-2.898 1.008Z" fill="#fff"/><circle cx="168" cy="46" r="16" fill="#7B58CF"/><circle cx="168" cy="46" r="18" stroke="#7B58CF" stroke-opacity=".3" stroke-width="4"/><path d="M164.152 52v-1.494l4.374-4.68c.636-.672 1.086-1.272 1.35-1.8s.396-1.044.396-1.548c0-.72-.21-1.29-.63-1.71-.408-.432-.966-.648-1.674-.648-.732 0-1.314.222-1.746.666-.42.432-.63 1.02-.63 1.764h-1.62c.024-.792.204-1.476.54-2.052a3.41 3.41 0 0 1 1.386-1.35c.588-.312 1.278-.468 2.07-.468.816 0 1.518.156 2.106.468a3.325 3.325 0 0 1 1.368 1.332c.324.564.486 1.236.486 2.016 0 .624-.174 1.284-.522 1.98-.336.696-.918 1.476-1.746 2.34l-3.546 3.708h5.976V52h-7.938Z" fill="#fff"/><circle cx="20" cy="20" r="16" fill="#7B58CF"/><circle cx="20" cy="20" r="18" stroke="#7B58CF" stroke-opacity=".3" stroke-width="4"/><path d="M16.224 26v-1.476h3.564v-10.26l-3.564 2.664v-1.854l2.97-2.214h2.213v11.664h2.916V26h-8.1Z" fill="#fff"/></g><defs><clipPath id="tooltip-structure__a"><path fill="#fff" d="M0 0h188v102H0z"/></clipPath></defs></svg>