<svg width="302" height="128" viewBox="0 0 302 128" fill="none" xmlns="http://www.w3.org/2000/svg">
<g clip-path="url(#clip0_889_12881)">
<path d="M42 69V93H51" stroke="#DCDCDE" stroke-width="2"/>
</g>
<g clip-path="url(#clip1_889_12881)">
<g clip-path="url(#clip2_889_12881)">
<g clip-path="url(#clip3_889_12881)">
<path fill-rule="evenodd" clip-rule="evenodd" d="M79.5 89V87.5H84.1972L85.1972 89H79.5ZM78 89V87C78 86.4477 78.4477 86 79 86H84.4648C84.7992 86 85.1114 86.1671 85.2969 86.4453L86.9635 88.9453C86.9756 88.9634 86.987 88.9816 86.9977 89H93C93.5523 89 94 89.4477 94 90V98C94 98.5523 93.5523 99 93 99H79C78.4477 99 78 98.5523 78 98V90.5V89.5V89ZM79.5 90.5V97.5H92.5V90.5H86.1315H79.5Z" fill="#737278"/>
</g>
<path fill-rule="evenodd" clip-rule="evenodd" d="M64.2197 89.2197C63.9268 89.5126 63.9268 89.9874 64.2197 90.2803L66.9393 93L64.2197 95.7197C63.9268 96.0126 63.9268 96.4874 64.2197 96.7803C64.5126 97.0732 64.9874 97.0732 65.2803 96.7803L68.5303 93.5303C68.8232 93.2374 68.8232 92.7626 68.5303 92.4697L65.2803 89.2197C64.9874 88.9268 64.5126 88.9268 64.2197 89.2197Z" fill="#666666"/>
</g>
<g clip-path="url(#clip4_889_12881)">
<rect x="102.5" y="77.5" width="31" height="31" rx="3.5" fill="#E9F3FC"/>
<rect x="102.5" y="77.5" width="31" height="31" rx="3.5" stroke="#BFBFC3"/>
<rect x="142" y="84" width="78" height="8" rx="2" fill="#535158"/>
<rect x="142" y="96" width="148" height="6" rx="2" fill="#89888D"/>
</g>
</g>
<rect x="58" y="69" width="224" height="1" fill="#DCDCDE"/>
<g clip-path="url(#clip5_889_12881)">
<path fill-rule="evenodd" clip-rule="evenodd" d="M55.5 44.3299V39.5H60.1179L61.571 41.5L57.031 41.5C56.5793 41.5 56.1837 41.8028 56.0657 42.2388L55.5 44.3299ZM54.005 50.087C54.0017 50.0585 54 50.0294 54 50V39.12C54 38.5014 54.5014 38 55.12 38H60.3115C60.67 38 61.0068 38.1716 61.2176 38.4617L63.0618 41H67.0156C67.4246 41 67.7877 41.1964 68.0157 41.5L68.9669 41.5C69.6254 41.5 70.1041 42.1255 69.9322 42.7612L67.903 50.2612C67.7851 50.6972 67.3894 51 66.9377 51H55.0019C54.4653 51 54.0481 50.5847 54.005 50.087ZM55.6551 49.5L57.4137 43L68.3136 43L66.555 49.5H55.6551Z" fill="#666666"/>
<path fill-rule="evenodd" clip-rule="evenodd" d="M38.2197 43.2197C38.5126 42.9268 38.9874 42.9268 39.2803 43.2197L42 45.9393L44.7197 43.2197C45.0126 42.9268 45.4874 42.9268 45.7803 43.2197C46.0732 43.5126 46.0732 43.9874 45.7803 44.2803L42.5303 47.5303C42.2374 47.8232 41.7626 47.8232 41.4697 47.5303L38.2197 44.2803C37.9268 43.9874 37.9268 43.5126 38.2197 43.2197Z" fill="#666666"/>
</g>
<g clip-path="url(#clip6_889_12881)">
<rect x="78.5" y="29.5" width="31" height="31" rx="3.5" fill="#E9F3FC"/>
<rect x="78.5" y="29.5" width="31" height="31" rx="3.5" stroke="#BFBFC3"/>
<rect x="118" y="36" width="78" height="8" rx="2" fill="#535158"/>
<rect x="118" y="48" width="148" height="6" rx="2" fill="#89888D"/>
</g>
<rect x="34" y="21" width="248" height="1" fill="#DCDCDE"/>
<circle cx="20" cy="45" r="16" fill="#7B58CF"/>
<circle cx="20" cy="45" r="18" stroke="#7B58CF" stroke-opacity="0.3" stroke-width="4"/>
<path d="M16.2235 51V49.524H19.7875V39.264L16.2235 41.928V40.074L19.1935 37.86H21.4075V49.524H24.3235V51H16.2235Z" fill="white"/>
<circle cx="62" cy="22" r="16" fill="#7B58CF"/>
<circle cx="62" cy="22" r="18" stroke="#7B58CF" stroke-opacity="0.3" stroke-width="4"/>
<path d="M58.1515 28V26.506L62.5255 21.826C63.1615 21.154 63.6115 20.554 63.8755 20.026C64.1395 19.498 64.2715 18.982 64.2715 18.478C64.2715 17.758 64.0615 17.188 63.6415 16.768C63.2335 16.336 62.6755 16.12 61.9675 16.12C61.2355 16.12 60.6535 16.342 60.2215 16.786C59.8015 17.218 59.5915 17.806 59.5915 18.55H57.9715C57.9955 17.758 58.1755 17.074 58.5115 16.498C58.8475 15.91 59.3095 15.46 59.8975 15.148C60.4855 14.836 61.1755 14.68 61.9675 14.68C62.7835 14.68 63.4855 14.836 64.0735 15.148C64.6615 15.46 65.1175 15.904 65.4415 16.48C65.7655 17.044 65.9275 17.716 65.9275 18.496C65.9275 19.12 65.7535 19.78 65.4055 20.476C65.0695 21.172 64.4875 21.952 63.6595 22.816L60.1135 26.524H66.0895V28H58.1515Z" fill="white"/>
<circle cx="94" cy="77" r="16" fill="#7B58CF"/>
<circle cx="94" cy="77" r="18" stroke="#7B58CF" stroke-opacity="0.3" stroke-width="4"/>
<path d="M93.8055 83.18C92.5935 83.18 91.6335 82.844 90.9255 82.172C90.2175 81.488 89.8635 80.564 89.8635 79.4H91.4835C91.4835 80.12 91.6935 80.69 92.1135 81.11C92.5335 81.53 93.1035 81.74 93.8235 81.74C94.5435 81.74 95.1135 81.53 95.5335 81.11C95.9535 80.69 96.1635 80.12 96.1635 79.4V78.5C96.1635 77.78 95.9535 77.21 95.5335 76.79C95.1135 76.37 94.5435 76.16 93.8235 76.16H92.4015V74.756L95.6235 71.336H90.2235V69.86H97.4595V71.372L93.8595 75.206V74.72C95.0715 74.72 96.0255 75.062 96.7215 75.746C97.4295 76.418 97.7835 77.336 97.7835 78.5V79.4C97.7835 80.564 97.4235 81.488 96.7035 82.172C95.9955 82.844 95.0295 83.18 93.8055 83.18Z" fill="white"/>
<circle cx="157" cy="20" r="16" fill="#7B58CF"/>
<circle cx="157" cy="20" r="18" stroke="#7B58CF" stroke-opacity="0.3" stroke-width="4"/>
<path d="M158.804 26V23.12H152.864V20.582L157.652 12.86H159.488L154.484 20.942V21.644H158.804V18.44H160.424V26H158.804Z" fill="white"/>
<circle cx="282" cy="51" r="16" fill="#7B58CF"/>
<circle cx="282" cy="51" r="18" stroke="#7B58CF" stroke-opacity="0.3" stroke-width="4"/>
<path d="M281.896 57.18C280.684 57.18 279.724 56.844 279.016 56.172C278.308 55.488 277.954 54.564 277.954 53.4H279.574C279.574 54.12 279.784 54.69 280.204 55.11C280.624 55.53 281.194 55.74 281.914 55.74C282.634 55.74 283.204 55.53 283.624 55.11C284.044 54.69 284.254 54.12 284.254 53.4V52.59C284.254 51.87 284.05 51.3 283.642 50.88C283.234 50.46 282.682 50.25 281.986 50.25H278.404V43.86H285.406V45.336H279.916L279.952 48.774H282.076C283.288 48.774 284.224 49.11 284.884 49.782C285.544 50.442 285.874 51.378 285.874 52.59V53.4C285.874 54.564 285.514 55.488 284.794 56.172C284.086 56.844 283.12 57.18 281.896 57.18Z" fill="white"/>
<circle cx="31" cy="108" r="16" fill="#7B58CF"/>
<circle cx="31" cy="108" r="18" stroke="#7B58CF" stroke-opacity="0.3" stroke-width="4"/>
<path d="M31.0215 114.18C30.1815 114.18 29.4375 114.006 28.7895 113.658C28.1535 113.298 27.6555 112.806 27.2955 112.182C26.9355 111.546 26.7555 110.814 26.7555 109.986C26.7555 109.41 26.8635 108.822 27.0795 108.222C27.2955 107.61 27.5895 106.974 27.9615 106.314L31.0035 100.86H32.8035L29.5635 106.494L29.6175 106.53C29.7735 106.326 30.0075 106.17 30.3195 106.062C30.6315 105.954 30.9735 105.9 31.3455 105.9C32.1255 105.9 32.8035 106.074 33.3795 106.422C33.9675 106.758 34.4235 107.226 34.7475 107.826C35.0835 108.426 35.2515 109.122 35.2515 109.914C35.2515 110.754 35.0715 111.498 34.7115 112.146C34.3515 112.782 33.8535 113.28 33.2175 113.64C32.5935 114 31.8615 114.18 31.0215 114.18ZM31.0035 112.74C31.5315 112.74 31.9875 112.626 32.3715 112.398C32.7675 112.158 33.0735 111.828 33.2895 111.408C33.5175 110.988 33.6315 110.502 33.6315 109.95C33.6315 109.398 33.5175 108.912 33.2895 108.492C33.0735 108.072 32.7675 107.748 32.3715 107.52C31.9875 107.28 31.5315 107.16 31.0035 107.16C30.4875 107.16 30.0315 107.28 29.6355 107.52C29.2395 107.748 28.9275 108.072 28.6995 108.492C28.4835 108.912 28.3755 109.398 28.3755 109.95C28.3755 110.502 28.4835 110.988 28.6995 111.408C28.9275 111.828 29.2395 112.158 29.6355 112.398C30.0315 112.626 30.4875 112.74 31.0035 112.74Z" fill="white"/>
<defs>
<clipPath id="clip0_889_12881">
<rect width="10" height="25" fill="white" transform="translate(41 69)"/>
</clipPath>
<clipPath id="clip1_889_12881">
<rect width="224" height="48" fill="white" transform="translate(58 69)"/>
</clipPath>
<clipPath id="clip2_889_12881">
<rect width="36" height="16" fill="white" transform="translate(58 85)"/>
</clipPath>
<clipPath id="clip3_889_12881">
<rect width="16" height="16" fill="white" transform="translate(78 85)"/>
</clipPath>
<clipPath id="clip4_889_12881">
<rect width="200" height="32" fill="white" transform="translate(102 77)"/>
</clipPath>
<clipPath id="clip5_889_12881">
<rect width="36" height="16" fill="white" transform="translate(34 37)"/>
</clipPath>
<clipPath id="clip6_889_12881">
<rect width="200" height="32" fill="white" transform="translate(78 29)"/>
</clipPath>
</defs>
</svg>
