<svg width="282" height="115" viewBox="0 0 282 115" fill="none" xmlns="http://www.w3.org/2000/svg">
<path d="M42 56V80H51" stroke="#DBDBDB" stroke-width="2"/>
<g clip-path="url(#clip0_889:12881)">
<g clip-path="url(#clip1_889:12881)">
<path fill-rule="evenodd" clip-rule="evenodd" d="M87 76H91C92.1046 76 93 76.8954 93 78V84C93 85.1046 92.1046 86 91 86H81C79.8954 86 79 85.1046 79 84V76C79 74.8954 79.8954 74 81 74H84.5858C84.851 74 85.1054 74.1054 85.2929 74.2929L87 76ZM81 84V78H91V84H81Z" fill="#666666"/>
<path fill-rule="evenodd" clip-rule="evenodd" d="M68.7071 79.2929C69.0976 79.6834 69.0976 80.3166 68.7071 80.7071L65.7071 83.7071C65.3166 84.0976 64.6834 84.0976 64.2929 83.7071C63.9024 83.3166 63.9024 82.6834 64.2929 82.2929L66.5858 80L64.2929 77.7071C63.9024 77.3166 63.9024 76.6834 64.2929 76.2929C64.6834 75.9024 65.3166 75.9024 65.7071 76.2929L68.7071 79.2929Z" fill="#666666"/>
</g>
<path d="M102 68C102 65.7909 103.791 64 106 64H130C132.209 64 134 65.7909 134 68V92C134 94.2091 132.209 96 130 96H106C103.791 96 102 94.2091 102 92V68Z" fill="#E9F3FC"/>
<path d="M106 65H130V63H106V65ZM133 68V92H135V68H133ZM130 95H106V97H130V95ZM103 92V68H101V92H103ZM106 95C104.343 95 103 93.6569 103 92H101C101 94.7614 103.239 97 106 97V95ZM133 92C133 93.6569 131.657 95 130 95V97C132.761 97 135 94.7614 135 92H133ZM130 65C131.657 65 133 66.3431 133 68H135C135 65.2386 132.761 63 130 63V65ZM106 63C103.239 63 101 65.2386 101 68H103C103 66.3431 104.343 65 106 65V63Z" fill="#BFBFBF"/>
<rect x="142" y="71" width="78" height="8" rx="2" fill="#666666"/>
<rect x="142" y="83" width="140" height="6" rx="2" fill="#999999"/>
</g>
<rect x="58" y="56" width="224" height="1" fill="#DBDBDB"/>
<g clip-path="url(#clip2_889:12881)">
<path fill-rule="evenodd" clip-rule="evenodd" d="M66.7407 29.0144C66.397 28.4087 65.7462 28 65 28H63L61.2929 26.2929C61.1054 26.1054 60.851 26 60.5858 26H57C55.8954 26 55 26.8954 55 28V36C55 37.1046 55.8954 38 57 38H66C66.0024 38 66.0047 38 66.0071 38H66.6516C67.5554 38 68.3469 37.3939 68.5825 36.5213L69.9286 31.5357C70.2718 30.2646 69.3144 29.0144 67.9977 29.0144L66.7407 29.0144ZM58.3483 31.0144L57.0022 36L66.6516 36L67.9977 31.0144H58.3483Z" fill="#666666"/>
<path fill-rule="evenodd" clip-rule="evenodd" d="M41.2929 34.7071C41.6834 35.0976 42.3166 35.0976 42.7071 34.7071L45.7071 31.7071C46.0976 31.3166 46.0976 30.6834 45.7071 30.2929C45.3166 29.9024 44.6834 29.9024 44.2929 30.2929L42 32.5858L39.7071 30.2929C39.3166 29.9024 38.6834 29.9024 38.2929 30.2929C37.9024 30.6834 37.9024 31.3166 38.2929 31.7071L41.2929 34.7071Z" fill="#666666"/>
</g>
<path d="M78 20C78 17.7909 79.7909 16 82 16H106C108.209 16 110 17.7909 110 20V44C110 46.2091 108.209 48 106 48H82C79.7909 48 78 46.2091 78 44V20Z" fill="#E9F3FC"/>
<path d="M82 17H106V15H82V17ZM109 20V44H111V20H109ZM106 47H82V49H106V47ZM79 44V20H77V44H79ZM82 47C80.3431 47 79 45.6569 79 44H77C77 46.7614 79.2386 49 82 49V47ZM109 44C109 45.6569 107.657 47 106 47V49C108.761 49 111 46.7614 111 44H109ZM106 17C107.657 17 109 18.3431 109 20H111C111 17.2386 108.761 15 106 15V17ZM82 15C79.2386 15 77 17.2386 77 20H79C79 18.3431 80.3431 17 82 17V15Z" fill="#BFBFBF"/>
<rect x="118" y="23" width="78" height="8" rx="2" fill="#666666"/>
<rect x="118" y="35" width="148" height="6" rx="2" fill="#999999"/>
<rect x="34" y="8" width="248" height="1" fill="#DBDBDB"/>
<circle cx="20" cy="32" r="16" fill="#7B58CF"/>
<circle cx="20" cy="32" r="18" stroke="#7B58CF" stroke-opacity="0.3" stroke-width="4"/>
<path d="M16.9502 36.5146H19.71V26.6006L16.4053 28.1914V26.4863L19.6924 24.9219H21.4678V36.5146H24.1924V38H16.9502V36.5146Z" fill="white"/>
<circle cx="62" cy="56" r="16" fill="#7B58CF"/>
<circle cx="62" cy="56" r="18" stroke="#7B58CF" stroke-opacity="0.3" stroke-width="4"/>
<path d="M59.8555 60.5059H65.8848V62H57.9131V60.5059C59.0088 59.3516 59.9668 58.332 60.7871 57.4473C61.6074 56.5625 62.1729 55.9385 62.4834 55.5752C63.0693 54.8604 63.4648 54.2832 63.6699 53.8438C63.875 53.3984 63.9775 52.9443 63.9775 52.4814C63.9775 51.749 63.7607 51.1748 63.3271 50.7588C62.8994 50.3428 62.3105 50.1348 61.5605 50.1348C61.0273 50.1348 60.4678 50.2314 59.8818 50.4248C59.2959 50.6182 58.6748 50.9111 58.0186 51.3037V49.5107C58.6221 49.2236 59.2139 49.0068 59.7939 48.8604C60.3799 48.7139 60.957 48.6406 61.5254 48.6406C62.8086 48.6406 63.8398 48.9834 64.6191 49.6689C65.4043 50.3486 65.7969 51.2422 65.7969 52.3496C65.7969 52.9121 65.665 53.4746 65.4014 54.0371C65.1436 54.5996 64.7217 55.2207 64.1357 55.9004C63.8076 56.2812 63.3301 56.8086 62.7031 57.4824C62.082 58.1562 61.1328 59.1641 59.8555 60.5059Z" fill="white"/>
<circle cx="105" cy="56" r="16" fill="#7B58CF"/>
<circle cx="105" cy="56" r="18" stroke="#7B58CF" stroke-opacity="0.3" stroke-width="4"/>
<path d="M106.397 54.9775C107.259 55.2061 107.918 55.6133 108.375 56.1992C108.832 56.7793 109.061 57.5059 109.061 58.3789C109.061 59.5859 108.653 60.5352 107.839 61.2266C107.03 61.9121 105.908 62.2549 104.473 62.2549C103.869 62.2549 103.254 62.1992 102.627 62.0879C102 61.9766 101.385 61.8154 100.781 61.6045V59.8379C101.379 60.1484 101.968 60.3799 102.548 60.5322C103.128 60.6846 103.705 60.7607 104.279 60.7607C105.252 60.7607 105.999 60.541 106.521 60.1016C107.042 59.6621 107.303 59.0293 107.303 58.2031C107.303 57.4414 107.042 56.8379 106.521 56.3926C105.999 55.9414 105.293 55.7158 104.402 55.7158H103.049V54.2568H104.402C105.217 54.2568 105.853 54.0781 106.31 53.7207C106.767 53.3633 106.995 52.8652 106.995 52.2266C106.995 51.5527 106.781 51.0371 106.354 50.6797C105.932 50.3164 105.328 50.1348 104.543 50.1348C104.021 50.1348 103.482 50.1934 102.926 50.3105C102.369 50.4277 101.786 50.6035 101.177 50.8379V49.2031C101.886 49.0156 102.516 48.875 103.066 48.7812C103.623 48.6875 104.115 48.6406 104.543 48.6406C105.82 48.6406 106.84 48.9629 107.602 49.6074C108.369 50.2461 108.753 51.0957 108.753 52.1562C108.753 52.877 108.551 53.4775 108.146 53.958C107.748 54.4385 107.165 54.7783 106.397 54.9775Z" fill="white"/>
<circle cx="156" cy="27" r="16" fill="#7B58CF"/>
<circle cx="156" cy="27" r="18" stroke="#7B58CF" stroke-opacity="0.3" stroke-width="4"/>
<path d="M157.037 21.4951L152.897 28.4297H157.037V21.4951ZM156.747 19.8779H158.804V28.4297H160.553V29.8711H158.804V33H157.037V29.8711H151.474V28.1924L156.747 19.8779Z" fill="white"/>
<circle cx="223" cy="38" r="16" fill="#7B58CF"/>
<circle cx="223" cy="38" r="18" stroke="#7B58CF" stroke-opacity="0.3" stroke-width="4"/>
<path d="M219.396 30.8779H226.041V32.3721H221.014V35.5977C221.266 35.5039 221.518 35.4365 221.77 35.3955C222.027 35.3486 222.285 35.3252 222.543 35.3252C223.902 35.3252 224.98 35.7266 225.777 36.5293C226.574 37.332 226.973 38.4189 226.973 39.79C226.973 41.1729 226.554 42.2627 225.716 43.0596C224.884 43.8564 223.744 44.2549 222.297 44.2549C221.6 44.2549 220.961 44.208 220.381 44.1143C219.807 44.0205 219.291 43.8799 218.834 43.6924V41.8906C219.373 42.1836 219.915 42.4033 220.46 42.5498C221.005 42.6904 221.562 42.7607 222.13 42.7607C223.108 42.7607 223.861 42.5029 224.389 41.9873C224.922 41.4717 225.188 40.7393 225.188 39.79C225.188 38.8525 224.913 38.123 224.362 37.6016C223.817 37.0801 223.056 36.8193 222.077 36.8193C221.603 36.8193 221.14 36.875 220.688 36.9863C220.237 37.0918 219.807 37.2529 219.396 37.4697V30.8779Z" fill="white"/>
<circle cx="31" cy="95" r="16" fill="#7B58CF"/>
<circle cx="31" cy="95" r="18" stroke="#7B58CF" stroke-opacity="0.3" stroke-width="4"/>
<path d="M34.2871 88.168V89.8027C33.918 89.5859 33.5254 89.4219 33.1094 89.3105C32.6934 89.1934 32.2598 89.1348 31.8086 89.1348C30.6836 89.1348 29.8311 89.5596 29.251 90.4092C28.6709 91.2529 28.3809 92.498 28.3809 94.1445C28.6621 93.5586 29.0518 93.1104 29.5498 92.7998C30.0479 92.4834 30.6191 92.3252 31.2637 92.3252C32.5293 92.3252 33.5078 92.7148 34.1992 93.4941C34.8965 94.2676 35.2451 95.3662 35.2451 96.79C35.2451 98.208 34.8877 99.3066 34.1729 100.086C33.458 100.865 32.4531 101.255 31.1582 101.255C29.6348 101.255 28.5186 100.71 27.8096 99.6201C27.1006 98.5244 26.7461 96.8018 26.7461 94.4521C26.7461 92.2373 27.1709 90.5498 28.0205 89.3896C28.876 88.2236 30.1123 87.6406 31.7295 87.6406C32.1631 87.6406 32.5967 87.6875 33.0303 87.7812C33.4639 87.8691 33.8828 87.998 34.2871 88.168ZM31.123 93.7139C30.3672 93.7139 29.7725 93.9863 29.3389 94.5312C28.9053 95.0762 28.6885 95.8291 28.6885 96.79C28.6885 97.751 28.9053 98.5039 29.3389 99.0488C29.7725 99.5938 30.3672 99.8662 31.123 99.8662C31.9082 99.8662 32.5 99.6084 32.8984 99.0928C33.2969 98.5713 33.4961 97.8037 33.4961 96.79C33.4961 95.7705 33.2969 95.0029 32.8984 94.4873C32.5 93.9717 31.9082 93.7139 31.123 93.7139Z" fill="white"/>
<defs>
<clipPath id="clip0_889:12881">
<rect width="224" height="48" fill="white" transform="translate(58 56)"/>
</clipPath>
<clipPath id="clip1_889:12881">
<rect width="36" height="16" fill="white" transform="translate(58 72)"/>
</clipPath>
<clipPath id="clip2_889:12881">
<rect width="36" height="16" fill="white" transform="translate(34 24)"/>
</clipPath>
</defs>
</svg>
