<svg width="282" height="127" viewBox="0 0 282 127" fill="none" xmlns="http://www.w3.org/2000/svg">
<path d="M42 68V92H51" stroke="#DBDBDB" stroke-width="2"/>
<g clip-path="url(#clip0_889:12881)">
<g clip-path="url(#clip1_889:12881)">
<path fill-rule="evenodd" clip-rule="evenodd" d="M87 88H91C92.1046 88 93 88.8954 93 90V96C93 97.1046 92.1046 98 91 98H81C79.8954 98 79 97.1046 79 96V88C79 86.8954 79.8954 86 81 86H84.5858C84.851 86 85.1054 86.1054 85.2929 86.2929L87 88ZM81 96V90H91V96H81Z" fill="#666666"/>
<path fill-rule="evenodd" clip-rule="evenodd" d="M68.7071 91.2929C69.0976 91.6834 69.0976 92.3166 68.7071 92.7071L65.7071 95.7071C65.3166 96.0976 64.6834 96.0976 64.2929 95.7071C63.9024 95.3166 63.9024 94.6834 64.2929 94.2929L66.5858 92L64.2929 89.7071C63.9024 89.3166 63.9024 88.6834 64.2929 88.2929C64.6834 87.9024 65.3166 87.9024 65.7071 88.2929L68.7071 91.2929Z" fill="#666666"/>
</g>
<path d="M102 80C102 77.7909 103.791 76 106 76H130C132.209 76 134 77.7909 134 80V104C134 106.209 132.209 108 130 108H106C103.791 108 102 106.209 102 104V80Z" fill="#E9F3FC"/>
<path d="M106 77H130V75H106V77ZM133 80V104H135V80H133ZM130 107H106V109H130V107ZM103 104V80H101V104H103ZM106 107C104.343 107 103 105.657 103 104H101C101 106.761 103.239 109 106 109V107ZM133 104C133 105.657 131.657 107 130 107V109C132.761 109 135 106.761 135 104H133ZM130 77C131.657 77 133 78.3431 133 80H135C135 77.2386 132.761 75 130 75V77ZM106 75C103.239 75 101 77.2386 101 80H103C103 78.3431 104.343 77 106 77V75Z" fill="#BFBFBF"/>
<rect x="142" y="83" width="78" height="8" rx="2" fill="#666666"/>
<rect x="142" y="95" width="140" height="6" rx="2" fill="#999999"/>
</g>
<rect x="58" y="68" width="224" height="1" fill="#DBDBDB"/>
<g clip-path="url(#clip2_889:12881)">
<path fill-rule="evenodd" clip-rule="evenodd" d="M66.7407 41.0144C66.397 40.4087 65.7462 40 65 40H63L61.2929 38.2929C61.1054 38.1054 60.851 38 60.5858 38H57C55.8954 38 55 38.8954 55 40V48C55 49.1046 55.8954 50 57 50H66C66.0024 50 66.0047 50 66.0071 50H66.6516C67.5554 50 68.3469 49.3939 68.5825 48.5213L69.9286 43.5357C70.2718 42.2646 69.3144 41.0144 67.9977 41.0144H66.7407ZM58.3483 43.0144L57.0022 48L66.6516 48L67.9977 43.0144H58.3483Z" fill="#666666"/>
<path fill-rule="evenodd" clip-rule="evenodd" d="M41.2929 46.7071C41.6834 47.0976 42.3166 47.0976 42.7071 46.7071L45.7071 43.7071C46.0976 43.3166 46.0976 42.6834 45.7071 42.2929C45.3166 41.9024 44.6834 41.9024 44.2929 42.2929L42 44.5858L39.7071 42.2929C39.3166 41.9024 38.6834 41.9024 38.2929 42.2929C37.9024 42.6834 37.9024 43.3166 38.2929 43.7071L41.2929 46.7071Z" fill="#666666"/>
</g>
<path d="M78 32C78 29.7909 79.7909 28 82 28H106C108.209 28 110 29.7909 110 32V56C110 58.2091 108.209 60 106 60H82C79.7909 60 78 58.2091 78 56V32Z" fill="#E9F3FC"/>
<path d="M82 29H106V27H82V29ZM109 32V56H111V32H109ZM106 59H82V61H106V59ZM79 56V32H77V56H79ZM82 59C80.3431 59 79 57.6569 79 56H77C77 58.7614 79.2386 61 82 61V59ZM109 56C109 57.6569 107.657 59 106 59V61C108.761 61 111 58.7614 111 56H109ZM106 29C107.657 29 109 30.3431 109 32H111C111 29.2386 108.761 27 106 27V29ZM82 27C79.2386 27 77 29.2386 77 32H79C79 30.3431 80.3431 29 82 29V27Z" fill="#BFBFBF"/>
<rect x="118" y="35" width="78" height="8" rx="2" fill="#666666"/>
<rect x="118" y="47" width="148" height="6" rx="2" fill="#999999"/>
<rect x="34" y="20" width="248" height="1" fill="#DBDBDB"/>
<circle cx="20" cy="44" r="16" fill="#7B58CF"/>
<circle cx="20" cy="44" r="18" stroke="#7B58CF" stroke-opacity="0.3" stroke-width="4"/>
<path d="M16.9502 48.5146H19.71V38.6006L16.4053 40.1914V38.4863L19.6924 36.9219H21.4678V48.5146H24.1924V50H16.9502V48.5146Z" fill="white"/>
<circle cx="62" cy="21" r="16" fill="#7B58CF"/>
<circle cx="62" cy="21" r="18" stroke="#7B58CF" stroke-opacity="0.3" stroke-width="4"/>
<path d="M59.8555 25.5059H65.8848V27H57.9131V25.5059C59.0088 24.3516 59.9668 23.332 60.7871 22.4473C61.6074 21.5625 62.1729 20.9385 62.4834 20.5752C63.0693 19.8604 63.4648 19.2832 63.6699 18.8438C63.875 18.3984 63.9775 17.9443 63.9775 17.4814C63.9775 16.749 63.7607 16.1748 63.3271 15.7588C62.8994 15.3428 62.3105 15.1348 61.5605 15.1348C61.0273 15.1348 60.4678 15.2314 59.8818 15.4248C59.2959 15.6182 58.6748 15.9111 58.0186 16.3037V14.5107C58.6221 14.2236 59.2139 14.0068 59.7939 13.8604C60.3799 13.7139 60.957 13.6406 61.5254 13.6406C62.8086 13.6406 63.8398 13.9834 64.6191 14.6689C65.4043 15.3486 65.7969 16.2422 65.7969 17.3496C65.7969 17.9121 65.665 18.4746 65.4014 19.0371C65.1436 19.5996 64.7217 20.2207 64.1357 20.9004C63.8076 21.2812 63.3301 21.8086 62.7031 22.4824C62.082 23.1562 61.1328 24.1641 59.8555 25.5059Z" fill="white"/>
<circle cx="94" cy="62" r="16" fill="#7B58CF"/>
<circle cx="94" cy="62" r="18" stroke="#7B58CF" stroke-opacity="0.3" stroke-width="4"/>
<path d="M95.3975 60.9775C96.2588 61.2061 96.918 61.6133 97.375 62.1992C97.832 62.7793 98.0605 63.5059 98.0605 64.3789C98.0605 65.5859 97.6533 66.5352 96.8389 67.2266C96.0303 67.9121 94.9082 68.2549 93.4727 68.2549C92.8691 68.2549 92.2539 68.1992 91.627 68.0879C91 67.9766 90.3848 67.8154 89.7812 67.6045V65.8379C90.3789 66.1484 90.9678 66.3799 91.5479 66.5322C92.1279 66.6846 92.7051 66.7607 93.2793 66.7607C94.252 66.7607 94.999 66.541 95.5205 66.1016C96.042 65.6621 96.3027 65.0293 96.3027 64.2031C96.3027 63.4414 96.042 62.8379 95.5205 62.3926C94.999 61.9414 94.293 61.7158 93.4023 61.7158H92.0488V60.2568H93.4023C94.2168 60.2568 94.8525 60.0781 95.3096 59.7207C95.7666 59.3633 95.9951 58.8652 95.9951 58.2266C95.9951 57.5527 95.7812 57.0371 95.3535 56.6797C94.9316 56.3164 94.3281 56.1348 93.543 56.1348C93.0215 56.1348 92.4824 56.1934 91.9258 56.3105C91.3691 56.4277 90.7861 56.6035 90.1768 56.8379V55.2031C90.8857 55.0156 91.5156 54.875 92.0664 54.7812C92.623 54.6875 93.1152 54.6406 93.543 54.6406C94.8203 54.6406 95.8398 54.9629 96.6016 55.6074C97.3691 56.2461 97.7529 57.0957 97.7529 58.1562C97.7529 58.877 97.5508 59.4775 97.1465 59.958C96.748 60.4385 96.165 60.7783 95.3975 60.9775Z" fill="white"/>
<circle cx="156" cy="39" r="16" fill="#7B58CF"/>
<circle cx="156" cy="39" r="18" stroke="#7B58CF" stroke-opacity="0.3" stroke-width="4"/>
<path d="M157.037 33.4951L152.897 40.4297H157.037V33.4951ZM156.747 31.8779H158.804V40.4297H160.553V41.8711H158.804V45H157.037V41.8711H151.474V40.1924L156.747 31.8779Z" fill="white"/>
<circle cx="223" cy="50" r="16" fill="#7B58CF"/>
<circle cx="223" cy="50" r="18" stroke="#7B58CF" stroke-opacity="0.3" stroke-width="4"/>
<path d="M219.396 42.8779H226.041V44.3721H221.014V47.5977C221.266 47.5039 221.518 47.4365 221.77 47.3955C222.027 47.3486 222.285 47.3252 222.543 47.3252C223.902 47.3252 224.98 47.7266 225.777 48.5293C226.574 49.332 226.973 50.4189 226.973 51.79C226.973 53.1729 226.554 54.2627 225.716 55.0596C224.884 55.8564 223.744 56.2549 222.297 56.2549C221.6 56.2549 220.961 56.208 220.381 56.1143C219.807 56.0205 219.291 55.8799 218.834 55.6924V53.8906C219.373 54.1836 219.915 54.4033 220.46 54.5498C221.005 54.6904 221.562 54.7607 222.13 54.7607C223.108 54.7607 223.861 54.5029 224.389 53.9873C224.922 53.4717 225.188 52.7393 225.188 51.79C225.188 50.8525 224.913 50.123 224.362 49.6016C223.817 49.0801 223.056 48.8193 222.077 48.8193C221.603 48.8193 221.14 48.875 220.688 48.9863C220.237 49.0918 219.807 49.2529 219.396 49.4697V42.8779Z" fill="white"/>
<circle cx="31" cy="107" r="16" fill="#7B58CF"/>
<circle cx="31" cy="107" r="18" stroke="#7B58CF" stroke-opacity="0.3" stroke-width="4"/>
<path d="M34.2871 100.168V101.803C33.918 101.586 33.5254 101.422 33.1094 101.311C32.6934 101.193 32.2598 101.135 31.8086 101.135C30.6836 101.135 29.8311 101.56 29.251 102.409C28.6709 103.253 28.3809 104.498 28.3809 106.145C28.6621 105.559 29.0518 105.11 29.5498 104.8C30.0479 104.483 30.6191 104.325 31.2637 104.325C32.5293 104.325 33.5078 104.715 34.1992 105.494C34.8965 106.268 35.2451 107.366 35.2451 108.79C35.2451 110.208 34.8877 111.307 34.1729 112.086C33.458 112.865 32.4531 113.255 31.1582 113.255C29.6348 113.255 28.5186 112.71 27.8096 111.62C27.1006 110.524 26.7461 108.802 26.7461 106.452C26.7461 104.237 27.1709 102.55 28.0205 101.39C28.876 100.224 30.1123 99.6406 31.7295 99.6406C32.1631 99.6406 32.5967 99.6875 33.0303 99.7812C33.4639 99.8691 33.8828 99.998 34.2871 100.168ZM31.123 105.714C30.3672 105.714 29.7725 105.986 29.3389 106.531C28.9053 107.076 28.6885 107.829 28.6885 108.79C28.6885 109.751 28.9053 110.504 29.3389 111.049C29.7725 111.594 30.3672 111.866 31.123 111.866C31.9082 111.866 32.5 111.608 32.8984 111.093C33.2969 110.571 33.4961 109.804 33.4961 108.79C33.4961 107.771 33.2969 107.003 32.8984 106.487C32.5 105.972 31.9082 105.714 31.123 105.714Z" fill="white"/>
<defs>
<clipPath id="clip0_889:12881">
<rect width="224" height="48" fill="white" transform="translate(58 68)"/>
</clipPath>
<clipPath id="clip1_889:12881">
<rect width="36" height="16" fill="white" transform="translate(58 84)"/>
</clipPath>
<clipPath id="clip2_889:12881">
<rect width="36" height="16" fill="white" transform="translate(34 36)"/>
</clipPath>
</defs>
</svg>
