<svg width="302" height="128" fill="none" xmlns="http://www.w3.org/2000/svg"><g clip-path="url(#tree-structure__a)"><path d="M42 69v24h9" stroke="#DCDCDE" stroke-width="2"/></g><g clip-path="url(#tree-structure__b)"><g clip-path="url(#tree-structure__c)"><g clip-path="url(#tree-structure__d)"><path fill-rule="evenodd" clip-rule="evenodd" d="M79.5 89v-1.5h4.697l1 1.5H79.5ZM78 89v-2a1 1 0 0 1 1-1h5.465a1 1 0 0 1 .832.445l1.666 2.5c.013.018.024.037.035.055H93a1 1 0 0 1 1 1v8a1 1 0 0 1-1 1H79a1 1 0 0 1-1-1v-9Zm1.5 1.5v7h13v-7h-13Z" fill="#737278"/></g><path fill-rule="evenodd" clip-rule="evenodd" d="M64.22 89.22a.75.75 0 0 0 0 1.06L66.94 93l-2.72 2.72a.75.75 0 1 0 1.06 1.06l3.25-3.25a.75.75 0 0 0 0-1.06l-3.25-3.25a.75.75 0 0 0-1.06 0Z" fill="#666"/></g><g clip-path="url(#tree-structure__e)"><rect x="102.5" y="77.5" width="31" height="31" rx="3.5" fill="#E9F3FC"/><rect x="102.5" y="77.5" width="31" height="31" rx="3.5" stroke="#BFBFC3"/><rect x="142" y="84" width="78" height="8" rx="2" fill="#535158"/><rect x="142" y="96" width="148" height="6" rx="2" fill="#89888D"/></g></g><path fill="#DCDCDE" d="M58 69h224v1H58z"/><g clip-path="url(#tree-structure__f)" fill-rule="evenodd" clip-rule="evenodd" fill="#666"><path d="M55.5 44.33V39.5h4.618l1.453 2h-4.54a1 1 0 0 0-.965.739l-.566 2.09Zm-1.495 5.757A.757.757 0 0 1 54 50V39.12c0-.619.501-1.12 1.12-1.12h5.192c.358 0 .695.172.906.462L63.062 41h3.954c.409 0 .772.196 1 .5h.95a1 1 0 0 1 .966 1.261l-2.029 7.5a1 1 0 0 1-.965.739H55.002a1 1 0 0 1-.997-.913Zm1.65-.587 1.759-6.5h10.9l-1.759 6.5h-10.9ZM38.22 43.22a.75.75 0 0 1 1.06 0L42 45.94l2.72-2.72a.75.75 0 1 1 1.06 1.06l-3.25 3.25a.75.75 0 0 1-1.06 0l-3.25-3.25a.75.75 0 0 1 0-1.06Z"/></g><g clip-path="url(#tree-structure__g)"><rect x="78.5" y="29.5" width="31" height="31" rx="3.5" fill="#E9F3FC"/><rect x="78.5" y="29.5" width="31" height="31" rx="3.5" stroke="#BFBFC3"/><rect x="118" y="36" width="78" height="8" rx="2" fill="#535158"/><rect x="118" y="48" width="148" height="6" rx="2" fill="#89888D"/></g><path fill="#DCDCDE" d="M34 21h248v1H34z"/><circle cx="20" cy="45" r="16" fill="#7B58CF"/><circle cx="20" cy="45" r="18" stroke="#7B58CF" stroke-opacity=".3" stroke-width="4"/><path d="M16.224 51v-1.476h3.564v-10.26l-3.564 2.664v-1.854l2.97-2.214h2.213v11.664h2.916V51h-8.1Z" fill="#fff"/><circle cx="62" cy="22" r="16" fill="#7B58CF"/><circle cx="62" cy="22" r="18" stroke="#7B58CF" stroke-opacity=".3" stroke-width="4"/><path d="M58.151 28v-1.494l4.374-4.68c.636-.672 1.087-1.272 1.35-1.8.264-.528.397-1.044.397-1.548 0-.72-.21-1.29-.63-1.71-.409-.432-.967-.648-1.675-.648-.731 0-1.313.222-1.745.666-.42.432-.63 1.02-.63 1.764h-1.62c.023-.792.203-1.476.54-2.052a3.41 3.41 0 0 1 1.386-1.35c.587-.312 1.277-.468 2.07-.468.815 0 1.517.156 2.105.468a3.325 3.325 0 0 1 1.369 1.332c.324.564.486 1.236.486 2.016 0 .624-.174 1.284-.522 1.98-.337.696-.919 1.476-1.747 2.34l-3.545 3.708h5.976V28h-7.94Z" fill="#fff"/><circle cx="94" cy="77" r="16" fill="#7B58CF"/><circle cx="94" cy="77" r="18" stroke="#7B58CF" stroke-opacity=".3" stroke-width="4"/><path d="M93.805 83.18c-1.212 0-2.172-.336-2.88-1.008-.707-.684-1.061-1.608-1.061-2.772h1.62c0 .72.21 1.29.63 1.71.42.42.99.63 1.71.63s1.29-.21 1.71-.63c.42-.42.63-.99.63-1.71v-.9c0-.72-.21-1.29-.63-1.71-.42-.42-.99-.63-1.71-.63h-1.422v-1.404l3.222-3.42h-5.4V69.86h7.236v1.512l-3.6 3.834v-.486c1.212 0 2.165.342 2.862 1.026.708.672 1.062 1.59 1.062 2.754v.9c0 1.164-.36 2.088-1.08 2.772-.708.672-1.674 1.008-2.898 1.008Z" fill="#fff"/><circle cx="157" cy="20" r="16" fill="#7B58CF"/><circle cx="157" cy="20" r="18" stroke="#7B58CF" stroke-opacity=".3" stroke-width="4"/><path d="M158.804 26v-2.88h-5.94v-2.538l4.788-7.722h1.836l-5.004 8.082v.702h4.32V18.44h1.62V26h-1.62Z" fill="#fff"/><circle cx="282" cy="51" r="16" fill="#7B58CF"/><circle cx="282" cy="51" r="18" stroke="#7B58CF" stroke-opacity=".3" stroke-width="4"/><path d="M281.896 57.18c-1.212 0-2.172-.336-2.88-1.008-.708-.684-1.062-1.608-1.062-2.772h1.62c0 .72.21 1.29.63 1.71.42.42.99.63 1.71.63s1.29-.21 1.71-.63c.42-.42.63-.99.63-1.71v-.81c0-.72-.204-1.29-.612-1.71-.408-.42-.96-.63-1.656-.63h-3.582v-6.39h7.002v1.476h-5.49l.036 3.438h2.124c1.212 0 2.148.336 2.808 1.008.66.66.99 1.596.99 2.808v.81c0 1.164-.36 2.088-1.08 2.772-.708.672-1.674 1.008-2.898 1.008Z" fill="#fff"/><circle cx="31" cy="108" r="16" fill="#7B58CF"/><circle cx="31" cy="108" r="18" stroke="#7B58CF" stroke-opacity=".3" stroke-width="4"/><path d="M31.021 114.18c-.84 0-1.584-.174-2.232-.522a3.922 3.922 0 0 1-1.494-1.476c-.36-.636-.54-1.368-.54-2.196 0-.576.108-1.164.325-1.764.216-.612.51-1.248.882-1.908l3.041-5.454h1.8l-3.24 5.634.055.036c.155-.204.39-.36.702-.468a3.118 3.118 0 0 1 1.026-.162c.78 0 1.457.174 2.034.522a3.501 3.501 0 0 1 1.367 1.404c.337.6.505 1.296.505 2.088 0 .84-.18 1.584-.54 2.232a3.885 3.885 0 0 1-1.495 1.494c-.623.36-1.355.54-2.195.54Zm-.018-1.44c.529 0 .985-.114 1.368-.342.396-.24.703-.57.918-.99.228-.42.343-.906.343-1.458 0-.552-.114-1.038-.343-1.458a2.317 2.317 0 0 0-.918-.972c-.384-.24-.84-.36-1.368-.36-.515 0-.971.12-1.367.36a2.435 2.435 0 0 0-.936.972c-.216.42-.325.906-.325 1.458 0 .552.108 1.038.325 1.458.227.42.54.75.936.99.396.228.852.342 1.367.342Z" fill="#fff"/><defs><clipPath id="tree-structure__a"><path fill="#fff" transform="translate(41 69)" d="M0 0h10v25H0z"/></clipPath><clipPath id="tree-structure__b"><path fill="#fff" transform="translate(58 69)" d="M0 0h224v48H0z"/></clipPath><clipPath id="tree-structure__c"><path fill="#fff" transform="translate(58 85)" d="M0 0h36v16H0z"/></clipPath><clipPath id="tree-structure__d"><path fill="#fff" transform="translate(78 85)" d="M0 0h16v16H0z"/></clipPath><clipPath id="tree-structure__e"><path fill="#fff" transform="translate(102 77)" d="M0 0h200v32H0z"/></clipPath><clipPath id="tree-structure__f"><path fill="#fff" transform="translate(34 37)" d="M0 0h36v16H0z"/></clipPath><clipPath id="tree-structure__g"><path fill="#fff" transform="translate(78 29)" d="M0 0h200v32H0z"/></clipPath></defs></svg>