<svg width="356" height="48" viewBox="0 0 356 48" fill="none" xmlns="http://www.w3.org/2000/svg">
<g style="mix-blend-mode:multiply">
<path d="M21.2305 29V18.8145H27.3896V19.9629H22.5293V23.4492H26.9248V24.5977H22.5293V29H21.2305ZM31.0674 29.0547C29.9189 29.0547 29.3516 28.4121 29.3516 27.3047V18.8145H30.582V26.9971C30.582 27.7012 30.7051 27.9541 31.2178 27.9541C31.4844 27.9541 31.5938 27.9336 31.71 27.8994L31.9561 28.9385C31.7373 29 31.3955 29.0547 31.0674 29.0547ZM36.2148 29.1641C34 29.1641 32.6328 27.5918 32.6328 25.2402C32.6328 22.8955 33.9863 21.2617 36.0713 21.2617C37.6914 21.2617 39.4004 22.2598 39.4004 25.083V25.5957H33.4668V24.5566H38.7373L38.1631 24.9395C38.1631 23.4355 37.4521 22.3555 36.0713 22.3555C34.6904 22.3555 33.877 23.4971 33.877 24.7412V25.4316C33.877 27.1338 34.8203 28.0703 36.2217 28.0703C37.124 28.0703 37.8008 27.6738 38.0879 26.8945L39.2773 27.2227C38.9219 28.3779 37.7803 29.1641 36.2148 29.1641ZM44.377 29.1641C42.1621 29.1641 40.7949 27.5918 40.7949 25.2402C40.7949 22.8955 42.1484 21.2617 44.2334 21.2617C45.8535 21.2617 47.5625 22.2598 47.5625 25.083V25.5957H41.6289V24.5566H46.8994L46.3252 24.9395C46.3252 23.4355 45.6143 22.3555 44.2334 22.3555C42.8525 22.3555 42.0391 23.4971 42.0391 24.7412V25.4316C42.0391 27.1338 42.9824 28.0703 44.3838 28.0703C45.2861 28.0703 45.9629 27.6738 46.25 26.8945L47.4395 27.2227C47.084 28.3779 45.9424 29.1641 44.377 29.1641ZM52.334 21.3574V22.4102H48.3828V21.3574H52.334ZM49.5312 19.5391H50.7617V27.0176C50.7617 27.7012 51.0146 28.002 51.6641 28.002C51.8213 28.002 52.0879 27.9609 52.293 27.9199L52.5459 28.959C52.293 29.0479 51.9443 29.0957 51.6299 29.0957C50.3105 29.0957 49.5312 28.3643 49.5312 27.1133V19.5391ZM60.708 29.1641C58.8008 29.1641 57.4746 27.6328 57.4746 25.1992C57.4746 22.7793 58.8076 21.2617 60.7148 21.2617C62.2051 21.2617 62.6768 22.1777 62.9297 22.5811H63.0254V18.8145H64.2559V29H63.0664V27.8174H62.9297C62.6768 28.2412 62.1641 29.1641 60.708 29.1641ZM60.8926 28.0635C62.2803 28.0635 63.0391 26.8877 63.0391 25.1855C63.0391 23.4971 62.3008 22.3623 60.8926 22.3623C59.4434 22.3623 58.7256 23.5996 58.7256 25.1855C58.7256 26.792 59.4639 28.0635 60.8926 28.0635ZM68.5557 29.1777C67.1064 29.1777 65.9512 28.3301 65.9512 26.8262C65.9512 25.0762 67.5098 24.7549 68.9248 24.5771C70.2852 24.4062 70.8867 24.4473 70.8867 23.8799V23.8389C70.8867 22.8887 70.3467 22.3418 69.2871 22.3418C68.1865 22.3418 67.5918 22.9297 67.3525 23.4629L66.1699 23.0732C66.7578 21.6855 68.0703 21.2617 69.2529 21.2617C70.2783 21.2617 72.1172 21.5762 72.1172 23.9619V29H70.9072V27.9609H70.8252C70.5654 28.501 69.8477 29.1777 68.5557 29.1777ZM68.7676 28.0908C70.1279 28.0908 70.8867 27.1748 70.8867 26.2383V25.1787C70.6816 25.418 69.3418 25.5547 68.8701 25.6162C67.9746 25.7324 67.1885 26.0195 67.1885 26.8877C67.1885 27.6807 67.8516 28.0908 68.7676 28.0908ZM76.875 29.1641C75.3027 29.1641 74.209 28.4668 73.9355 27.1475L75.1045 26.8672C75.3232 27.708 75.9453 28.084 76.8613 28.084C77.9277 28.084 78.6113 27.5576 78.6113 26.9287C78.6113 26.4023 78.2422 26.0537 77.4902 25.876L76.2188 25.5752C74.8311 25.2471 74.168 24.5635 74.168 23.4902C74.168 22.1777 75.3711 21.2617 76.998 21.2617C78.5703 21.2617 79.3975 22.0273 79.7461 23.1006L78.6318 23.3877C78.4199 22.8408 77.9893 22.3076 77.0049 22.3076C76.0957 22.3076 75.4121 22.7793 75.4121 23.415C75.4121 23.9824 75.8018 24.2969 76.6973 24.5088L77.8525 24.7822C79.2402 25.1104 79.8896 25.8008 79.8896 26.8467C79.8896 28.1865 78.666 29.1641 76.875 29.1641ZM82.9043 24.4199V29H81.6738V18.8145H82.9043V23.21H82.6924C83.1572 21.8018 84.0459 21.2617 85.2012 21.2617C86.7461 21.2617 87.792 22.2119 87.792 24.1465V29H86.5547V24.249C86.5547 23.0732 85.8984 22.3691 84.832 22.3691C83.7314 22.3691 82.9043 23.1143 82.9043 24.4199ZM93.5068 29.1641C92.0508 29.1641 91.5381 28.2412 91.2852 27.8174H91.1484V29H89.959V18.8145H91.1895V22.5811H91.2852C91.5381 22.1777 92.0098 21.2617 93.5 21.2617C95.4072 21.2617 96.7402 22.7793 96.7402 25.1992C96.7402 27.6328 95.4141 29.1641 93.5068 29.1641ZM93.3223 28.0635C94.751 28.0635 95.4893 26.792 95.4893 25.1855C95.4893 23.5996 94.7715 22.3623 93.3223 22.3623C91.9141 22.3623 91.1758 23.4971 91.1758 25.1855C91.1758 26.8877 91.9346 28.0635 93.3223 28.0635ZM101.642 29.1641C99.5635 29.1641 98.1621 27.585 98.1621 25.2266C98.1621 22.834 99.5635 21.2617 101.642 21.2617C103.727 21.2617 105.135 22.834 105.135 25.2266C105.135 27.585 103.727 29.1641 101.642 29.1641ZM101.642 28.0635C103.187 28.0635 103.891 26.7305 103.891 25.2266C103.891 23.709 103.187 22.3623 101.642 22.3623C100.117 22.3623 99.4131 23.7021 99.4131 25.2266C99.4131 26.7305 100.117 28.0635 101.642 28.0635ZM109.202 29.1777C107.753 29.1777 106.598 28.3301 106.598 26.8262C106.598 25.0762 108.156 24.7549 109.571 24.5771C110.932 24.4062 111.533 24.4473 111.533 23.8799V23.8389C111.533 22.8887 110.993 22.3418 109.934 22.3418C108.833 22.3418 108.238 22.9297 107.999 23.4629L106.816 23.0732C107.404 21.6855 108.717 21.2617 109.899 21.2617C110.925 21.2617 112.764 21.5762 112.764 23.9619V29H111.554V27.9609H111.472C111.212 28.501 110.494 29.1777 109.202 29.1777ZM109.414 28.0908C110.774 28.0908 111.533 27.1748 111.533 26.2383V25.1787C111.328 25.418 109.988 25.5547 109.517 25.6162C108.621 25.7324 107.835 26.0195 107.835 26.8877C107.835 27.6807 108.498 28.0908 109.414 28.0908ZM114.924 29V21.3574H116.113V22.5332H116.195C116.476 21.7607 117.269 21.248 118.178 21.248C118.355 21.248 118.656 21.2617 118.8 21.2686V22.5059C118.725 22.4922 118.39 22.4375 118.062 22.4375C116.961 22.4375 116.154 23.1826 116.154 24.2148V29H114.924ZM122.833 29.1641C120.926 29.1641 119.6 27.6328 119.6 25.1992C119.6 22.7793 120.933 21.2617 122.84 21.2617C124.33 21.2617 124.802 22.1777 125.055 22.5811H125.15V18.8145H126.381V29H125.191V27.8174H125.055C124.802 28.2412 124.289 29.1641 122.833 29.1641ZM123.018 28.0635C124.405 28.0635 125.164 26.8877 125.164 25.1855C125.164 23.4971 124.426 22.3623 123.018 22.3623C121.568 22.3623 120.851 23.5996 120.851 25.1855C120.851 26.792 121.589 28.0635 123.018 28.0635Z" fill="#1F75CB"/>
<rect x="132" y="16" width="42" height="16" rx="8" fill="#CBE2F9"/>
<path d="M141.055 28V19.2695H142.367L145.918 24.8535C146.193 25.2871 146.691 26.1191 147.143 27.0918H146.984C146.879 26.084 146.873 25.1699 146.873 24.625V19.2695H147.986V28H146.662L143.498 23.0312C143.059 22.3398 142.695 21.6953 141.863 20.2129H142.068C142.121 21.5137 142.174 22.5508 142.174 23.0195V28H141.055ZM152.727 28.1406C150.828 28.1406 149.656 26.793 149.656 24.7773C149.656 22.7676 150.816 21.3672 152.604 21.3672C153.992 21.3672 155.457 22.2227 155.457 24.6426V25.082H150.371V24.1914H154.889L154.396 24.5195C154.396 23.2305 153.787 22.3047 152.604 22.3047C151.42 22.3047 150.723 23.2832 150.723 24.3496V24.9414C150.723 26.4004 151.531 27.2031 152.732 27.2031C153.506 27.2031 154.086 26.8633 154.332 26.1953L155.352 26.4766C155.047 27.4668 154.068 28.1406 152.727 28.1406ZM158.217 28L156.23 21.4492H157.35L158.146 24.3086C158.363 25.0879 158.621 26.0664 158.867 27.3145H158.686C158.92 26.1191 159.166 25.1406 159.395 24.3086L160.18 21.4492H161.305L162.078 24.3086C162.295 25.1113 162.541 26.0898 162.775 27.3145H162.588C162.834 26.1016 163.086 25.1289 163.314 24.3086L164.111 21.4492H165.23L163.244 28H162.195L161.346 25.0352C161.088 24.1387 160.854 23.1719 160.613 22.1523H160.848C160.613 23.1602 160.367 24.1562 160.115 25.0352L159.266 28H158.217Z" fill="#0B5CAD"/>
</g>
<rect x="210.5" y="8.5" width="137" height="31" rx="3.5" fill="white"/>
<g clip-path="url(#clip0_19399_11290)">
<g clip-path="url(#clip1_19399_11290)">
<path fill-rule="evenodd" clip-rule="evenodd" d="M220.75 16.75C220.75 16.3358 220.414 16 220 16C219.586 16 219.25 16.3358 219.25 16.75V17.25H218.75C218.336 17.25 218 17.5858 218 18C218 18.4142 218.336 18.75 218.75 18.75H219.25V19.25C219.25 19.6642 219.586 20 220 20C220.414 20 220.75 19.6642 220.75 19.25V18.75H221.25C221.664 18.75 222 18.4142 222 18C222 17.5858 221.664 17.25 221.25 17.25H220.75V16.75ZM232.395 22.8684L232.395 22.8683L232.381 22.8302L231.831 21.3902L231.659 21.9194L231.322 22.9555H230.232H225.768H224.678L224.342 21.9194L224.17 21.3912L223.619 22.8357L223.615 22.846L223.611 22.8562L223.599 22.8865C223.482 23.1981 223.468 23.5396 223.56 23.8599C223.652 24.1827 223.846 24.4655 224.111 24.6665L224.112 24.6674L224.115 24.6696L224.125 24.6775L224.136 24.6857L224.139 24.6882L226.613 26.5501L226.618 26.5537L226.618 26.5537L227.85 27.4891L227.851 27.4894L227.998 27.6008L228.144 27.4894L228.145 27.4891L229.377 26.5537L229.383 26.5496L229.383 26.5496L231.874 24.6771L231.879 24.6733L231.888 24.6665C232.153 24.4655 232.347 24.1825 232.44 23.8593C232.532 23.536 232.518 23.1912 232.398 22.8772L232.395 22.8684ZM232.786 25.8678L230.284 27.7486L229.051 28.684L228.303 29.2527C228.215 29.3193 228.108 29.3554 227.998 29.3554C227.887 29.3554 227.78 29.3193 227.692 29.2527L226.944 28.684L225.711 27.7486L223.226 25.8786L223.213 25.8678L223.206 25.8631C222.681 25.4654 222.299 24.9071 222.118 24.2722C221.936 23.6374 221.965 22.9605 222.2 22.3436L222.217 22.3011L223.431 19.1196L223.499 18.9421L223.542 18.8278L223.715 18.3751L223.732 18.3298L223.85 18.0218C223.883 17.9378 223.942 17.8666 224.018 17.8184C224.074 17.782 224.139 17.7595 224.206 17.7527C224.273 17.7458 224.341 17.7548 224.403 17.7788C224.466 17.8029 224.523 17.8413 224.568 17.8912C224.614 17.941 224.647 18.0009 224.666 18.0659L224.765 18.3709L224.769 18.3835L224.962 18.9782L225.021 19.1594L225.768 21.4555H230.232L230.979 19.1592L231.038 18.9782L231.232 18.3835L231.236 18.3712L231.335 18.0659C231.353 18.0008 231.386 17.9408 231.432 17.8909C231.477 17.8409 231.534 17.8024 231.597 17.7783C231.66 17.7543 231.727 17.7453 231.795 17.7523C231.862 17.7592 231.926 17.7819 231.983 17.8184C232.059 17.8666 232.118 17.9378 232.151 18.0218L232.267 18.3271L232.286 18.3752L232.457 18.8245L232.502 18.9415L232.57 19.1192L233.784 22.3003L233.8 22.3436C234.035 22.9605 234.064 23.6373 233.882 24.2719C233.7 24.9066 233.318 25.4648 232.793 25.8624L232.786 25.8678ZM221.5 27C221.914 27 222.25 27.3358 222.25 27.75V28.75H223.25C223.664 28.75 224 29.0858 224 29.5C224 29.9142 223.664 30.25 223.25 30.25H222.25V31.25C222.25 31.6642 221.914 32 221.5 32C221.086 32 220.75 31.6642 220.75 31.25V30.25H219.75C219.336 30.25 219 29.9142 219 29.5C219 29.0858 219.336 28.75 219.75 28.75H220.75V27.75C220.75 27.3358 221.086 27 221.5 27Z" fill="#626168"/>
</g>
</g>
<path d="M242.102 29L238.355 18.8145H239.723L241.876 24.8574C242.122 25.5479 242.491 26.6895 242.983 28.3848H242.73C243.223 26.6416 243.585 25.5479 243.824 24.8574L245.923 18.8145H247.304L243.599 29H242.102ZM248.746 29V21.3574H249.977V29H248.746ZM249.368 20.1064C248.903 20.1064 248.514 19.7441 248.514 19.293C248.514 18.8418 248.903 18.4795 249.368 18.4795C249.84 18.4795 250.229 18.8418 250.229 19.293C250.229 19.7441 249.84 20.1064 249.368 20.1064ZM255.35 29.1641C253.135 29.1641 251.768 27.5918 251.768 25.2402C251.768 22.8955 253.121 21.2617 255.206 21.2617C256.826 21.2617 258.535 22.2598 258.535 25.083V25.5957H252.602V24.5566H257.872L257.298 24.9395C257.298 23.4355 256.587 22.3555 255.206 22.3555C253.825 22.3555 253.012 23.4971 253.012 24.7412V25.4316C253.012 27.1338 253.955 28.0703 255.356 28.0703C256.259 28.0703 256.936 27.6738 257.223 26.8945L258.412 27.2227C258.057 28.3779 256.915 29.1641 255.35 29.1641ZM261.755 29L259.438 21.3574H260.743L261.673 24.6934C261.926 25.6025 262.227 26.7441 262.514 28.2002H262.302C262.575 26.8057 262.862 25.6641 263.129 24.6934L264.045 21.3574H265.357L266.26 24.6934C266.513 25.6299 266.8 26.7715 267.073 28.2002H266.854C267.142 26.7852 267.436 25.6504 267.702 24.6934L268.632 21.3574H269.938L267.62 29H266.396L265.405 25.541C265.104 24.4951 264.831 23.3672 264.551 22.1777H264.824C264.551 23.3535 264.264 24.5156 263.97 25.541L262.979 29H261.755ZM278.031 29.1641C276.459 29.1641 275.365 28.4668 275.092 27.1475L276.261 26.8672C276.479 27.708 277.102 28.084 278.018 28.084C279.084 28.084 279.768 27.5576 279.768 26.9287C279.768 26.4023 279.398 26.0537 278.646 25.876L277.375 25.5752C275.987 25.2471 275.324 24.5635 275.324 23.4902C275.324 22.1777 276.527 21.2617 278.154 21.2617C279.727 21.2617 280.554 22.0273 280.902 23.1006L279.788 23.3877C279.576 22.8408 279.146 22.3076 278.161 22.3076C277.252 22.3076 276.568 22.7793 276.568 23.415C276.568 23.9824 276.958 24.2969 277.854 24.5088L279.009 24.7822C280.396 25.1104 281.046 25.8008 281.046 26.8467C281.046 28.1865 279.822 29.1641 278.031 29.1641ZM285.421 29.0957C283.876 29.0957 282.83 28.1455 282.83 26.2109V21.3574H284.061V26.1084C284.061 27.2842 284.724 27.9883 285.79 27.9883C286.884 27.9883 287.711 27.2432 287.711 25.9375V21.3574H288.948V29H287.759V27.1475H287.923C287.451 28.583 286.542 29.0957 285.421 29.0957ZM291.115 29V21.3574H292.312L292.318 23.0664H292.223C292.53 21.8291 293.467 21.2207 294.458 21.2207C295.565 21.2207 296.27 21.9727 296.475 23.0801H296.311C296.584 21.9385 297.596 21.2207 298.812 21.2207C300.139 21.2207 301.219 22.0752 301.219 23.8457V29H299.981V23.8799C299.981 22.7793 299.264 22.3418 298.443 22.3418C297.411 22.3418 296.782 23.0459 296.782 24.0098V29H295.552V23.7568C295.552 22.9092 294.916 22.3418 294.055 22.3418C293.159 22.3418 292.346 22.9707 292.346 24.1875V29H291.115ZM303.379 29V21.3574H304.575L304.582 23.0664H304.486C304.794 21.8291 305.73 21.2207 306.722 21.2207C307.829 21.2207 308.533 21.9727 308.738 23.0801H308.574C308.848 21.9385 309.859 21.2207 311.076 21.2207C312.402 21.2207 313.482 22.0752 313.482 23.8457V29H312.245V23.8799C312.245 22.7793 311.527 22.3418 310.707 22.3418C309.675 22.3418 309.046 23.0459 309.046 24.0098V29H307.815V23.7568C307.815 22.9092 307.18 22.3418 306.318 22.3418C305.423 22.3418 304.609 22.9707 304.609 24.1875V29H303.379ZM317.782 29.1777C316.333 29.1777 315.178 28.3301 315.178 26.8262C315.178 25.0762 316.736 24.7549 318.151 24.5771C319.512 24.4062 320.113 24.4473 320.113 23.8799V23.8389C320.113 22.8887 319.573 22.3418 318.514 22.3418C317.413 22.3418 316.818 22.9297 316.579 23.4629L315.396 23.0732C315.984 21.6855 317.297 21.2617 318.479 21.2617C319.505 21.2617 321.344 21.5762 321.344 23.9619V29H320.134V27.9609H320.052C319.792 28.501 319.074 29.1777 317.782 29.1777ZM317.994 28.0908C319.354 28.0908 320.113 27.1748 320.113 26.2383V25.1787C319.908 25.418 318.568 25.5547 318.097 25.6162C317.201 25.7324 316.415 26.0195 316.415 26.8877C316.415 27.6807 317.078 28.0908 317.994 28.0908ZM323.504 29V21.3574H324.693V22.5332H324.775C325.056 21.7607 325.849 21.248 326.758 21.248C326.936 21.248 327.236 21.2617 327.38 21.2686V22.5059C327.305 22.4922 326.97 22.4375 326.642 22.4375C325.541 22.4375 324.734 23.1826 324.734 24.2148V29H323.504ZM328.891 31.7686L329.205 30.7021L329.335 30.7363C330.087 30.9346 330.627 30.7705 331.003 29.6768L331.222 29.041L328.303 21.3574H329.649L331.276 25.8896C331.618 26.8398 331.823 27.7764 332.09 28.6514H331.639C331.898 27.7764 332.11 26.833 332.452 25.8896L334.093 21.3574H335.433L332.076 30.1416C331.611 31.3584 330.873 31.9121 329.793 31.9121C329.355 31.9121 329.021 31.8301 328.891 31.7686Z" fill="#303030"/>
<rect x="210.5" y="8.5" width="137" height="31" rx="3.5" stroke="#BFBFC3"/>
<defs>
<clipPath id="clip0_19399_11290">
<rect width="16" height="16" fill="white" transform="translate(218 16)"/>
</clipPath>
<clipPath id="clip1_19399_11290">
<rect width="16" height="16" fill="white" transform="translate(218 16)"/>
</clipPath>
</defs>
</svg>
