<svg width="317" height="334" viewBox="0 0 317 334" fill="none" xmlns="http://www.w3.org/2000/svg">
<line x1="45" y1="268" x2="54" y2="268" stroke="#7B58CF" stroke-width="2" stroke-linecap="round"/>
<path d="M61 208H55V330H61" stroke="#7B58CF" stroke-width="2" stroke-linecap="round" stroke-linejoin="round"/>
<circle cx="20" cy="269" r="16" fill="#7B58CF"/>
<circle cx="20" cy="269" r="18" stroke="#7B58CF" stroke-opacity="0.3" stroke-width="4"/>
<path d="M16.3086 261.878H24.0957V263.372H18.084V266.905H23.832V268.399H18.084V273.506H24.2627V275H16.3086V261.878Z" fill="white"/>
<line x1="45" y1="96.5" x2="54" y2="96.5" stroke="#7B58CF" stroke-width="2" stroke-linecap="round"/>
<path d="M61 1H55V194H61" stroke="#7B58CF" stroke-width="2" stroke-linecap="round" stroke-linejoin="round"/>
<circle cx="20" cy="98" r="16" fill="#7B58CF"/>
<circle cx="20" cy="98" r="18" stroke="#7B58CF" stroke-opacity="0.3" stroke-width="4"/>
<path d="M19.9912 92.4424L18.1191 99.1572H21.8633L19.9912 92.4424ZM18.9189 90.8779H21.0723L25.0889 104H23.252L22.2852 100.581H17.6885L16.7393 104H14.9023L18.9189 90.8779Z" fill="white"/>
<g style="mix-blend-mode:multiply">
<rect x="69" y="1" width="248" height="32" rx="4" fill="#ECECEF"/>
<path fill-rule="evenodd" clip-rule="evenodd" d="M94.5 11.5L83.5 11.5V14L94.5 14V11.5ZM94.5 15.5L87.5 15.5V22.5H94.5V15.5ZM86 15.5H83.5V22.5H86V15.5ZM83.5 10H82V11.5V22.5V24H83.5H94.5H96V22.5V11.5V10H94.5L83.5 10Z" fill="#535158"/>
<path d="M73 6.5C73 5.67157 73.6716 5 74.5 5V5C75.3284 5 76 5.67157 76 6.5V27.5C76 28.3284 75.3284 29 74.5 29V29C73.6716 29 73 28.3284 73 27.5V6.5Z" fill="#1F75CB"/>
<rect x="110" y="13" width="89" height="8" rx="2" fill="#737278"/>
</g>
<path fill-rule="evenodd" clip-rule="evenodd" d="M94.5 43.5H83.5V46H94.5V43.5ZM94.5 47.5H87.5V54.5H94.5V47.5ZM86 47.5H83.5V54.5H86V47.5ZM83.5 42H82V43.5V54.5V56H83.5H94.5H96V54.5V43.5V42H94.5H83.5Z" fill="#737278"/>
<rect x="110" y="45" width="64" height="8" rx="2" fill="#A4A3A8"/>
<path fill-rule="evenodd" clip-rule="evenodd" d="M94.5 75.5H83.5V78H94.5V75.5ZM94.5 79.5H87.5V86.5H94.5V79.5ZM86 79.5H83.5V86.5H86V79.5ZM83.5 74H82V75.5V86.5V88H83.5H94.5H96V86.5V75.5V74H94.5H83.5Z" fill="#737278"/>
<rect x="110" y="77" width="64" height="8" rx="2" fill="#A4A3A8"/>
<g style="mix-blend-mode:multiply">
<rect x="270" y="73" width="35" height="16" rx="8" fill="#CBE2F9"/>
</g>
<path fill-rule="evenodd" clip-rule="evenodd" d="M94.5 107.5H83.5V110H94.5V107.5ZM94.5 111.5H87.5V118.5H94.5V111.5ZM86 111.5H83.5V118.5H86V111.5ZM83.5 106H82V107.5V118.5V120H83.5H94.5H96V118.5V107.5V106H94.5H83.5Z" fill="#737278"/>
<rect x="110" y="109" width="127" height="8" rx="2" fill="#A4A3A8"/>
<g style="mix-blend-mode:multiply">
<rect x="270" y="105" width="35" height="16" rx="8" fill="#CBE2F9"/>
</g>
<path fill-rule="evenodd" clip-rule="evenodd" d="M94.5 139.5H83.5V142H94.5V139.5ZM94.5 143.5H87.5V150.5H94.5V143.5ZM86 143.5H83.5V150.5H86V143.5ZM83.5 138H82V139.5V150.5V152H83.5H94.5H96V150.5V139.5V138H94.5H83.5Z" fill="#737278"/>
<rect x="110" y="141" width="91" height="8" rx="2" fill="#A4A3A8"/>
<path fill-rule="evenodd" clip-rule="evenodd" d="M94.5 171.5H83.5V174H94.5V171.5ZM94.5 175.5H87.5V182.5H94.5V175.5ZM86 175.5H83.5V182.5H86V175.5ZM83.5 170H82V171.5V182.5V184H83.5H94.5H96V182.5V171.5V170H94.5H83.5Z" fill="#737278"/>
<rect x="110" y="173" width="114" height="8" rx="2" fill="#A4A3A8"/>
<rect x="81" y="201" width="224" height="1" fill="#ECECEF"/>
<rect x="79" y="220" width="65" height="8" rx="2" fill="#BFBFC3"/>
<g style="mix-blend-mode:multiply">
<g clip-path="url(#clip0_16653_30812)">
<path fill-rule="evenodd" clip-rule="evenodd" d="M89.3794 247.103C89.1452 246.966 88.8551 246.966 88.6208 247.103L81.3708 251.353C81.1412 251.488 81.0001 251.734 81.0001 252C81.0001 252.266 81.1412 252.512 81.3708 252.647L88.6208 256.897C88.8551 257.034 89.1452 257.034 89.3794 256.897L96.6294 252.647C96.859 252.512 97.0001 252.266 97.0001 252C97.0001 251.734 96.859 251.488 96.6294 251.353L89.3794 247.103ZM89.0001 255.381L83.2332 252L89.0001 248.619L94.7671 252L89.0001 255.381ZM82.1294 255.353C81.7721 255.144 81.3126 255.263 81.1031 255.621C80.8936 255.978 81.0135 256.438 81.3708 256.647L88.6208 260.897C88.8551 261.034 89.1452 261.034 89.3794 260.897L96.6294 256.647C96.9868 256.438 97.1066 255.978 96.8971 255.621C96.6877 255.263 96.2282 255.144 95.8708 255.353L89.0001 259.381L82.1294 255.353Z" fill="#737278"/>
</g>
<rect x="110" y="250" width="65" height="8" rx="2" fill="#A4A3A8"/>
</g>
<g style="mix-blend-mode:multiply">
<g clip-path="url(#clip1_16653_30812)">
<path fill-rule="evenodd" clip-rule="evenodd" d="M89.3794 279.103C89.1452 278.966 88.8551 278.966 88.6208 279.103L81.3708 283.353C81.1412 283.488 81.0001 283.734 81.0001 284C81.0001 284.266 81.1412 284.512 81.3708 284.647L88.6208 288.897C88.8551 289.034 89.1452 289.034 89.3794 288.897L96.6294 284.647C96.859 284.512 97.0001 284.266 97.0001 284C97.0001 283.734 96.859 283.488 96.6294 283.353L89.3794 279.103ZM89.0001 287.381L83.2332 284L89.0001 280.619L94.7671 284L89.0001 287.381ZM82.1294 287.353C81.7721 287.144 81.3126 287.263 81.1031 287.621C80.8936 287.978 81.0135 288.438 81.3708 288.647L88.6208 292.897C88.8551 293.034 89.1452 293.034 89.3794 292.897L96.6294 288.647C96.9868 288.438 97.1066 287.978 96.8971 287.621C96.6877 287.263 96.2282 287.144 95.8708 287.353L89.0001 291.381L82.1294 287.353Z" fill="#737278"/>
</g>
<rect x="110" y="282" width="85" height="8" rx="2" fill="#A4A3A8"/>
</g>
<g style="mix-blend-mode:multiply">
<g clip-path="url(#clip2_16653_30812)">
<path fill-rule="evenodd" clip-rule="evenodd" d="M89.3794 311.103C89.1452 310.966 88.8551 310.966 88.6208 311.103L81.3708 315.353C81.1412 315.488 81.0001 315.734 81.0001 316C81.0001 316.266 81.1412 316.512 81.3708 316.647L88.6208 320.897C88.8551 321.034 89.1452 321.034 89.3794 320.897L96.6294 316.647C96.859 316.512 97.0001 316.266 97.0001 316C97.0001 315.734 96.859 315.488 96.6294 315.353L89.3794 311.103ZM89.0001 319.381L83.2332 316L89.0001 312.619L94.7671 316L89.0001 319.381ZM82.1294 319.353C81.7721 319.144 81.3126 319.263 81.1031 319.621C80.8936 319.978 81.0135 320.438 81.3708 320.647L88.6208 324.897C88.8551 325.034 89.1452 325.034 89.3794 324.897L96.6294 320.647C96.9868 320.438 97.1066 319.978 96.8971 319.621C96.6877 319.263 96.2282 319.144 95.8708 319.353L89.0001 323.381L82.1294 319.353Z" fill="#737278"/>
</g>
<rect x="110" y="314" width="56" height="8" rx="2" fill="#A4A3A8"/>
</g>
<defs>
<clipPath id="clip0_16653_30812">
<rect width="16" height="16" fill="white" transform="translate(81 246)"/>
</clipPath>
<clipPath id="clip1_16653_30812">
<rect width="16" height="16" fill="white" transform="translate(81 278)"/>
</clipPath>
<clipPath id="clip2_16653_30812">
<rect width="16" height="16" fill="white" transform="translate(81 310)"/>
</clipPath>
</defs>
</svg>
