<?xml version="1.0" encoding="UTF-8"?>
<svg width="10px" height="10px" viewBox="0 0 10 10" version="1.1" xmlns="http://www.w3.org/2000/svg" xmlns:xlink="http://www.w3.org/1999/xlink">
    <!-- Generator: Sketch 59.1 (86144) - https://sketch.com -->
    <title>icn/chevron-right</title>
    <desc>Created with Sketch.</desc>
    <g id="Symbols" stroke="none" stroke-width="1" fill="none" fill-rule="evenodd">
        <g id="icn/plus" transform="translate(-3.000000, -3.000000)" fill="#000000">
            <g id="icon">
                <path d="M8,3 C7.44772,3 7,3.44772 7,4 L7,7 L4,7 C3.44772,7 3,7.44771 3,8 C3,8.55228 3.44772,9 4,9 L7,9 L7,12 C7,12.5523 7.44772,13 8,13 C8.55228,13 9,12.5523 9,12 L9,9 L12,9 C12.5523,9 13,8.55228 13,8 C13,7.44772 12.5523,7 12,7 L9,7 L9,4 C9,3.44772 8.55228,3 8,3 Z"></path>
            </g>
        </g>
    </g>
</svg>