<svg width="93" height="96" viewBox="0 0 93 96" xmlns="http://www.w3.org/2000/svg"><defs><linearGradient x1="0%" y1="50.016%" x2="99.998%" y2="50.016%" id="a"><stop stop-color="#7144C6" offset="0%"/><stop stop-color="#8045C9" offset="59%"/><stop stop-color="#8E46CC" offset="100%"/></linearGradient></defs><g fill="none" fill-rule="evenodd"><path d="M41 94.79L30.34 89A16 16 0 0 1 22 75V50.4h22V93a2 2 0 0 1-3 1.79z" fill="#DEC9F0"/><path d="M54.85 64.19l-28.09 7C22 72.4 22 74.4 22 74.4V34a20 20 0 0 1 15.15-19.4L67.51 7A2 2 0 0 1 70 9v35.82a20 20 0 0 1-15.15 19.37z" fill="url(#a)"/><path d="M89.786 51.224l-1.026 2.94-1.662-2.705-2.941-1.026 2.706-1.662 1.167-2.953 1.662 2.706 2.953 1.167M11.572 24.235l-1.473 2.744-1.219-2.932-2.744-1.474 2.932-1.218 1.615-2.734 1.219 2.932 2.734 1.615M7.085 60.746l-.776 3.917-2.436-3.056-3.783-.983 3.056-2.436.983-3.783L6.475 57.6l4.1.796m50.062 25.848l-1.03 2.744-1.577-2.47-2.744-1.03 2.47-1.578 1.03-2.744 1.577 2.47 2.745 1.03M84.204 7.037l-2.128 3.379-1.18-3.726-3.179-2.273 3.726-1.18L83.716.058l1.046 3.823 3.543 2.213" fill="#FFCE29" fill-rule="nonzero"/></g></svg>