<svg width="32" height="32" viewBox="0 0 32 32" fill="none" xmlns="http://www.w3.org/2000/svg"><g clip-path="url(#code__a)"><path fill-rule="evenodd" clip-rule="evenodd" d="M18.848 4.046a1.5 1.5 0 0 1 1.111 1.807l-5 20.987a1.5 1.5 0 1 1-2.918-.695l5-20.987a1.5 1.5 0 0 1 1.807-1.112ZM22.32 8.44a1.5 1.5 0 0 1 2.12 0l6.5 6.5L32.002 16l-1.06 1.06-6.5 6.5a1.5 1.5 0 1 1-2.121-2.12L27.759 16l-5.44-5.44a1.5 1.5 0 0 1 0-2.12ZM9.68 10.561a1.5 1.5 0 0 0-2.12-2.122l-6.5 6.5L-.002 16l1.06 1.06 6.5 6.5a1.5 1.5 0 1 0 2.122-2.12L4.24 16l5.44-5.44Z" fill="#7B58CF"/></g><defs><clipPath id="code__a"><path fill="#fff" d="M0 0h32v32H0z"/></clipPath></defs></svg>