<svg xmlns="http://www.w3.org/2000/svg" width="14" height="24" fill="none"><g fill-rule="evenodd" clip-path="url(#a)" clip-rule="evenodd"><path fill="#DEC9F0" d="m5.18 23.93-2.9-1.56A4.34 4.34 0 0 1 0 18.61V12h6v11.45a.53.53 0 0 1-.27.47.55.55 0 0 1-.55 0Z"/><path fill="url(#b)" d="m9.58 15.28-8.2 1.86C0 17.47 0 18 0 18V7.22c0-1.19.44-2.35 1.24-3.28a5.9 5.9 0 0 1 3.18-1.9L13.27.02a.64.64 0 0 1 .51.1c.07.05.13.12.17.19a.5.5 0 0 1 .05.24v9.56c0 1.19-.44 2.34-1.24 3.28a5.9 5.9 0 0 1-3.18 1.89Z"/></g><defs><linearGradient id="b" x1="0" x2="14" y1="9" y2="9" gradientUnits="userSpaceOnUse"><stop stop-color="#7144C6"/><stop offset=".59" stop-color="#8045C9"/><stop offset="1" stop-color="#8E46CC"/></linearGradient><clipPath id="a"><path fill="#fff" d="M0 0h14v24H0z"/></clipPath></defs></svg>
