<svg xmlns="http://www.w3.org/2000/svg" width="24" height="24" fill="none"><path fill="#DEC9F0" fill-rule="evenodd" d="M10.167 23.927 7.268 22.35A4.353 4.353 0 0 1 5 18.537v-6.7h5.983v11.602a.546.546 0 0 1-.54.561.543.543 0 0 1-.276-.073Z" clip-rule="evenodd"/><path fill="url(#a)" fill-rule="evenodd" d="m13.934 15.593-7.64 1.906C5 17.83 5 18.374 5 18.374V7.37c0-1.214.406-2.394 1.152-3.352A5.439 5.439 0 0 1 9.12 2.087l8.257-2.07a.543.543 0 0 1 .677.544v9.756a5.452 5.452 0 0 1-1.155 3.347 5.44 5.44 0 0 1-2.965 1.929Z" clip-rule="evenodd"/><defs><linearGradient id="a" x1="5" x2="18.054" y1="9.19" y2="9.19" gradientUnits="userSpaceOnUse"><stop stop-color="#7144C6"/><stop offset=".59" stop-color="#8045C9"/><stop offset="1" stop-color="#8E46CC"/></linearGradient></defs></svg>
