<svg width="632" height="127" viewBox="0 0 632 127" fill="none" xmlns="http://www.w3.org/2000/svg">
<g clip-path="url(#clip0)">
<rect width="632" height="127" fill="white"/>
<rect x="12" y="12" width="608" height="140" stroke="white" stroke-width="24"/>
<rect x="24" y="54" width="584" height="1" fill="#C4C4C4"/>
<circle cx="264" cy="83" r="12" fill="#999999"/>
<path d="M552 75C552 72.7909 553.791 71 556 71H572C574.209 71 576 72.7909 576 75V91C576 93.2091 574.209 95 572 95H556C553.791 95 552 93.2091 552 91V75Z" fill="white"/>
<path fill-rule="evenodd" clip-rule="evenodd" d="M561 90H557V86L566.414 76.5861C567.195 75.805 568.461 75.805 569.242 76.5861L570.414 77.7577C571.195 78.5387 571.195 79.805 570.414 80.5861L561 90ZM559.34 86.4884L560.512 87.66L566.416 81.7559L565.244 80.5843L559.34 86.4884ZM569 79.1719L567.83 80.3417L566.658 79.1701L567.828 78.0003L569 79.1719Z" fill="#666666"/>
<path d="M556 72H572V70H556V72ZM575 75V91H577V75H575ZM572 94H556V96H572V94ZM553 91V75H551V91H553ZM556 94C554.343 94 553 92.6569 553 91H551C551 93.7614 553.239 96 556 96V94ZM575 91C575 92.6569 573.657 94 572 94V96C574.761 96 577 93.7614 577 91H575ZM572 72C573.657 72 575 73.3431 575 75H577C577 72.2386 574.761 70 572 70V72ZM556 70C553.239 70 551 72.2386 551 75H553C553 73.3431 554.343 72 556 72V70Z" fill="#BFBFBF"/>
<path d="M584 75C584 72.7909 585.791 71 588 71H604C606.209 71 608 72.7909 608 75V91C608 93.2091 606.209 95 604 95H588C585.791 95 584 93.2091 584 91V75Z" fill="white"/>
<path fill-rule="evenodd" clip-rule="evenodd" d="M593 77C593 75.8954 593.895 75 595 75H597C598.105 75 599 75.8954 599 77V78H602C602.552 78 603 78.4477 603 79C603 79.5523 602.552 80 602 80H601.846L601.142 89.1534C601.062 90.1954 600.193 91 599.148 91H592.852C591.807 91 590.938 90.1954 590.858 89.1534L590.154 80H590C589.448 80 589 79.5523 589 79C589 78.4477 589.448 78 590 78H593V77ZM595 78H597V77H595V78ZM592.16 80L592.852 89L599.148 89L599.84 80H592.16Z" fill="#666666"/>
<path d="M588 72H604V70H588V72ZM607 75V91H609V75H607ZM604 94H588V96H604V94ZM585 91V75H583V91H585ZM588 94C586.343 94 585 92.6569 585 91H583C583 93.7614 585.239 96 588 96V94ZM607 91C607 92.6569 605.657 94 604 94V96C606.761 96 609 93.7614 609 91H607ZM604 72C605.657 72 607 73.3431 607 75H609C609 72.2386 606.761 70 604 70V72ZM588 70C585.239 70 583 72.2386 583 75H585C585 73.3431 586.343 72 588 72V70Z" fill="#BFBFBF"/>
<rect x="24" y="24" width="116" height="14" rx="2" fill="#999999"/>
<rect x="252" y="24" width="56" height="14" rx="2" fill="#999999"/>
<rect x="340" y="24" width="76" height="14" rx="2" fill="#999999"/>
<rect x="24" y="71" width="196" height="8" rx="2" fill="#BFBFBF"/>
<rect x="340" y="71" width="106" height="8" rx="2" fill="#BFBFBF"/>
<rect x="24" y="87" width="166" height="8" rx="2" fill="#BFBFBF"/>
</g>
<defs>
<clipPath id="clip0">
<rect width="632" height="127" fill="white"/>
</clipPath>
</defs>
</svg>
