<svg width="632" height="151" viewBox="0 0 632 151" fill="none" xmlns="http://www.w3.org/2000/svg">
<g clip-path="url(#clip0)">
<rect width="632" height="151" fill="white"/>
<rect x="12" y="12" width="608" height="164" stroke="white" stroke-width="24"/>
<rect x="24" y="54" width="584" height="1" fill="#C4C4C4"/>
<circle cx="264" cy="83" r="12" fill="#999999"/>
<rect x="24" y="24" width="116" height="14" rx="2" fill="#999999"/>
<rect x="252" y="24" width="56" height="14" rx="2" fill="#999999"/>
<rect x="340" y="24" width="76" height="14" rx="2" fill="#999999"/>
<rect x="32" y="79" width="180" height="8" rx="2" fill="#999999"/>
<rect x="340" y="71" width="106" height="8" rx="2" fill="#BFBFBF"/>
<rect x="32" y="95" width="166" height="8" rx="2" fill="#999999"/>
<rect x="32" y="111" width="122" height="8" rx="2" fill="#999999"/>
<path d="M492 75C492 72.7909 493.791 71 496 71H548C550.209 71 552 72.7909 552 75V91C552 93.2091 550.209 95 548 95H496C493.791 95 492 93.2091 492 91V75Z" fill="white"/>
<path d="M508.12 81.014H509.45C509.375 80.482 509.217 80.0153 508.974 79.614C508.731 79.2033 508.428 78.8627 508.064 78.592C507.7 78.3213 507.285 78.116 506.818 77.976C506.351 77.836 505.857 77.766 505.334 77.766C504.569 77.766 503.887 77.906 503.29 78.186C502.702 78.4567 502.207 78.83 501.806 79.306C501.414 79.782 501.115 80.342 500.91 80.986C500.705 81.6207 500.602 82.302 500.602 83.03C500.602 83.758 500.695 84.4393 500.882 85.074C501.078 85.7087 501.367 86.2593 501.75 86.726C502.133 87.1927 502.613 87.5613 503.192 87.832C503.771 88.0933 504.447 88.224 505.222 88.224C506.501 88.224 507.509 87.874 508.246 87.174C508.983 86.474 509.417 85.494 509.548 84.234H508.218C508.19 84.6447 508.106 85.0273 507.966 85.382C507.826 85.7367 507.63 86.0447 507.378 86.306C507.135 86.558 506.841 86.7587 506.496 86.908C506.16 87.048 505.773 87.118 505.334 87.118C504.737 87.118 504.223 87.006 503.794 86.782C503.365 86.558 503.01 86.2593 502.73 85.886C502.459 85.5033 502.259 85.06 502.128 84.556C501.997 84.0427 501.932 83.5013 501.932 82.932C501.932 82.4093 501.997 81.9053 502.128 81.42C502.259 80.9347 502.459 80.5053 502.73 80.132C503.01 79.7493 503.36 79.446 503.78 79.222C504.209 78.998 504.723 78.886 505.32 78.886C506.02 78.886 506.622 79.0633 507.126 79.418C507.639 79.7727 507.971 80.3047 508.12 81.014ZM517.412 87.972C517.206 88.0933 516.922 88.154 516.558 88.154C516.25 88.154 516.002 88.07 515.816 87.902C515.638 87.7247 515.55 87.44 515.55 87.048C515.223 87.44 514.84 87.7247 514.402 87.902C513.972 88.07 513.506 88.154 513.002 88.154C512.675 88.154 512.362 88.1167 512.064 88.042C511.774 87.9673 511.522 87.8507 511.308 87.692C511.093 87.5333 510.92 87.328 510.79 87.076C510.668 86.8147 510.608 86.502 510.608 86.138C510.608 85.7273 510.678 85.3913 510.818 85.13C510.958 84.8687 511.14 84.6587 511.364 84.5C511.597 84.332 511.858 84.206 512.148 84.122C512.446 84.038 512.75 83.968 513.058 83.912C513.384 83.8467 513.692 83.8 513.982 83.772C514.28 83.7347 514.542 83.688 514.766 83.632C514.99 83.5667 515.167 83.478 515.298 83.366C515.428 83.2447 515.494 83.072 515.494 82.848C515.494 82.5867 515.442 82.3767 515.34 82.218C515.246 82.0593 515.12 81.938 514.962 81.854C514.812 81.77 514.64 81.714 514.444 81.686C514.257 81.658 514.07 81.644 513.884 81.644C513.38 81.644 512.96 81.742 512.624 81.938C512.288 82.1247 512.106 82.484 512.078 83.016H510.888C510.906 82.568 511 82.19 511.168 81.882C511.336 81.574 511.56 81.3267 511.84 81.14C512.12 80.944 512.437 80.804 512.792 80.72C513.156 80.636 513.543 80.594 513.954 80.594C514.28 80.594 514.602 80.6173 514.92 80.664C515.246 80.7107 515.54 80.8087 515.802 80.958C516.063 81.098 516.273 81.2987 516.432 81.56C516.59 81.8213 516.67 82.162 516.67 82.582V86.306C516.67 86.586 516.684 86.7913 516.712 86.922C516.749 87.0527 516.861 87.118 517.048 87.118C517.15 87.118 517.272 87.0947 517.412 87.048V87.972ZM515.48 84.262C515.33 84.374 515.134 84.458 514.892 84.514C514.649 84.5607 514.392 84.6027 514.122 84.64C513.86 84.668 513.594 84.7053 513.324 84.752C513.053 84.7893 512.81 84.8547 512.596 84.948C512.381 85.0413 512.204 85.1767 512.064 85.354C511.933 85.522 511.868 85.7553 511.868 86.054C511.868 86.25 511.905 86.418 511.98 86.558C512.064 86.6887 512.166 86.796 512.288 86.88C512.418 86.964 512.568 87.0247 512.736 87.062C512.904 87.0993 513.081 87.118 513.268 87.118C513.66 87.118 513.996 87.0667 514.276 86.964C514.556 86.852 514.784 86.7167 514.962 86.558C515.139 86.39 515.27 86.2127 515.354 86.026C515.438 85.83 515.48 85.648 515.48 85.48V84.262ZM518.519 80.762V88H519.709V83.912C519.709 83.5853 519.751 83.2867 519.835 83.016C519.928 82.736 520.064 82.4933 520.241 82.288C520.418 82.0827 520.638 81.924 520.899 81.812C521.17 81.7 521.487 81.644 521.851 81.644C522.308 81.644 522.668 81.7747 522.929 82.036C523.19 82.2973 523.321 82.652 523.321 83.1V88H524.511V83.24C524.511 82.848 524.469 82.4933 524.385 82.176C524.31 81.8493 524.175 81.5693 523.979 81.336C523.783 81.1027 523.526 80.9207 523.209 80.79C522.892 80.6593 522.495 80.594 522.019 80.594C520.946 80.594 520.162 81.0327 519.667 81.91H519.639V80.762H518.519ZM531.212 83.086H532.444C532.398 82.6567 532.286 82.288 532.108 81.98C531.931 81.6627 531.702 81.4013 531.422 81.196C531.152 80.9907 530.834 80.8413 530.47 80.748C530.116 80.6453 529.733 80.594 529.322 80.594C528.753 80.594 528.254 80.6967 527.824 80.902C527.395 81.098 527.036 81.3733 526.746 81.728C526.466 82.0733 526.256 82.484 526.116 82.96C525.976 83.4267 525.906 83.9307 525.906 84.472C525.906 85.0133 525.976 85.5127 526.116 85.97C526.266 86.418 526.48 86.8053 526.76 87.132C527.05 87.4587 527.404 87.7107 527.824 87.888C528.254 88.0653 528.744 88.154 529.294 88.154C530.218 88.154 530.946 87.9113 531.478 87.426C532.02 86.9407 532.356 86.25 532.486 85.354H531.268C531.194 85.914 530.988 86.348 530.652 86.656C530.326 86.964 529.868 87.118 529.28 87.118C528.907 87.118 528.585 87.0433 528.314 86.894C528.044 86.7447 527.824 86.5487 527.656 86.306C527.488 86.054 527.362 85.7693 527.278 85.452C527.204 85.1347 527.166 84.808 527.166 84.472C527.166 84.108 527.204 83.758 527.278 83.422C527.353 83.0767 527.474 82.7733 527.642 82.512C527.82 82.2507 528.053 82.0407 528.342 81.882C528.632 81.7233 528.991 81.644 529.42 81.644C529.924 81.644 530.326 81.77 530.624 82.022C530.923 82.274 531.119 82.6287 531.212 83.086ZM538.844 83.688H534.686C534.705 83.408 534.765 83.1467 534.868 82.904C534.971 82.652 535.111 82.4327 535.288 82.246C535.465 82.0593 535.675 81.9147 535.918 81.812C536.17 81.7 536.45 81.644 536.758 81.644C537.057 81.644 537.327 81.7 537.57 81.812C537.822 81.9147 538.037 82.0593 538.214 82.246C538.401 82.4233 538.545 82.638 538.648 82.89C538.76 83.142 538.825 83.408 538.844 83.688ZM539.992 85.704H538.816C538.713 86.18 538.499 86.5347 538.172 86.768C537.855 87.0013 537.444 87.118 536.94 87.118C536.548 87.118 536.207 87.0527 535.918 86.922C535.629 86.7913 535.391 86.6187 535.204 86.404C535.017 86.18 534.882 85.928 534.798 85.648C534.714 85.3587 534.677 85.0553 534.686 84.738H540.104C540.123 84.2993 540.081 83.8373 539.978 83.352C539.885 82.8667 539.707 82.4187 539.446 82.008C539.194 81.5973 538.853 81.2613 538.424 81C538.004 80.7293 537.472 80.594 536.828 80.594C536.333 80.594 535.876 80.6873 535.456 80.874C535.045 81.0607 534.686 81.322 534.378 81.658C534.079 81.994 533.846 82.3907 533.678 82.848C533.51 83.3053 533.426 83.8093 533.426 84.36C533.445 84.9107 533.524 85.4193 533.664 85.886C533.813 86.3527 534.033 86.754 534.322 87.09C534.611 87.426 534.966 87.6873 535.386 87.874C535.815 88.0607 536.319 88.154 536.898 88.154C537.719 88.154 538.401 87.9487 538.942 87.538C539.483 87.1273 539.833 86.516 539.992 85.704ZM541.407 78.004V88H542.597V78.004H541.407Z" fill="#303030"/>
<path d="M496 72H548V70H496V72ZM551 75V91H553V75H551ZM548 94H496V96H548V94ZM493 91V75H491V91H493ZM496 94C494.343 94 493 92.6569 493 91H491C491 93.7614 493.239 96 496 96V94ZM551 91C551 92.6569 549.657 94 548 94V96C550.761 96 553 93.7614 553 91H551ZM548 72C549.657 72 551 73.3431 551 75H553C553 72.2386 550.761 70 548 70V72ZM496 70C493.239 70 491 72.2386 491 75H493C493 73.3431 494.343 72 496 72V70Z" fill="#BFBFBF"/>
<path d="M560 75C560 72.7909 561.791 71 564 71H604C606.209 71 608 72.7909 608 75V91C608 93.2091 606.209 95 604 95H564C561.791 95 560 93.2091 560 91V75Z" fill="#1F75CB"/>
<path d="M574.874 80.93H576.134C576.115 80.3793 576.008 79.908 575.812 79.516C575.625 79.1147 575.364 78.7833 575.028 78.522C574.701 78.2607 574.319 78.0693 573.88 77.948C573.441 77.8267 572.965 77.766 572.452 77.766C571.995 77.766 571.547 77.8267 571.108 77.948C570.679 78.06 570.291 78.2373 569.946 78.48C569.61 78.7133 569.339 79.0167 569.134 79.39C568.929 79.754 568.826 80.188 568.826 80.692C568.826 81.1493 568.915 81.532 569.092 81.84C569.279 82.1387 569.521 82.386 569.82 82.582C570.128 82.7687 570.473 82.9227 570.856 83.044C571.239 83.156 571.626 83.2587 572.018 83.352C572.419 83.436 572.811 83.52 573.194 83.604C573.577 83.688 573.917 83.8 574.216 83.94C574.524 84.0707 574.767 84.2433 574.944 84.458C575.131 84.6727 575.224 84.9527 575.224 85.298C575.224 85.662 575.149 85.9607 575 86.194C574.851 86.4273 574.655 86.614 574.412 86.754C574.169 86.8847 573.894 86.978 573.586 87.034C573.287 87.09 572.989 87.118 572.69 87.118C572.317 87.118 571.953 87.0713 571.598 86.978C571.243 86.8847 570.931 86.74 570.66 86.544C570.399 86.348 570.184 86.1007 570.016 85.802C569.857 85.494 569.778 85.13 569.778 84.71H568.518C568.518 85.3167 568.625 85.844 568.84 86.292C569.064 86.7307 569.363 87.0947 569.736 87.384C570.119 87.664 570.557 87.874 571.052 88.014C571.556 88.154 572.088 88.224 572.648 88.224C573.105 88.224 573.563 88.168 574.02 88.056C574.487 87.9533 574.907 87.7853 575.28 87.552C575.653 87.3093 575.957 87.0013 576.19 86.628C576.433 86.2453 576.554 85.788 576.554 85.256C576.554 84.7613 576.461 84.3507 576.274 84.024C576.097 83.6973 575.854 83.4267 575.546 83.212C575.247 82.9973 574.907 82.8293 574.524 82.708C574.141 82.5773 573.749 82.4653 573.348 82.372C572.956 82.2787 572.569 82.1947 572.186 82.12C571.803 82.036 571.458 81.9333 571.15 81.812C570.851 81.6907 570.609 81.5367 570.422 81.35C570.245 81.154 570.156 80.902 570.156 80.594C570.156 80.2673 570.217 79.9967 570.338 79.782C570.469 79.558 570.637 79.3807 570.842 79.25C571.057 79.1193 571.299 79.026 571.57 78.97C571.841 78.914 572.116 78.886 572.396 78.886C573.087 78.886 573.651 79.0493 574.09 79.376C574.538 79.6933 574.799 80.2113 574.874 80.93ZM584.386 87.972C584.181 88.0933 583.896 88.154 583.532 88.154C583.224 88.154 582.977 88.07 582.79 87.902C582.613 87.7247 582.524 87.44 582.524 87.048C582.197 87.44 581.815 87.7247 581.376 87.902C580.947 88.07 580.48 88.154 579.976 88.154C579.649 88.154 579.337 88.1167 579.038 88.042C578.749 87.9673 578.497 87.8507 578.282 87.692C578.067 87.5333 577.895 87.328 577.764 87.076C577.643 86.8147 577.582 86.502 577.582 86.138C577.582 85.7273 577.652 85.3913 577.792 85.13C577.932 84.8687 578.114 84.6587 578.338 84.5C578.571 84.332 578.833 84.206 579.122 84.122C579.421 84.038 579.724 83.968 580.032 83.912C580.359 83.8467 580.667 83.8 580.956 83.772C581.255 83.7347 581.516 83.688 581.74 83.632C581.964 83.5667 582.141 83.478 582.272 83.366C582.403 83.2447 582.468 83.072 582.468 82.848C582.468 82.5867 582.417 82.3767 582.314 82.218C582.221 82.0593 582.095 81.938 581.936 81.854C581.787 81.77 581.614 81.714 581.418 81.686C581.231 81.658 581.045 81.644 580.858 81.644C580.354 81.644 579.934 81.742 579.598 81.938C579.262 82.1247 579.08 82.484 579.052 83.016H577.862C577.881 82.568 577.974 82.19 578.142 81.882C578.31 81.574 578.534 81.3267 578.814 81.14C579.094 80.944 579.411 80.804 579.766 80.72C580.13 80.636 580.517 80.594 580.928 80.594C581.255 80.594 581.577 80.6173 581.894 80.664C582.221 80.7107 582.515 80.8087 582.776 80.958C583.037 81.098 583.247 81.2987 583.406 81.56C583.565 81.8213 583.644 82.162 583.644 82.582V86.306C583.644 86.586 583.658 86.7913 583.686 86.922C583.723 87.0527 583.835 87.118 584.022 87.118C584.125 87.118 584.246 87.0947 584.386 87.048V87.972ZM582.454 84.262C582.305 84.374 582.109 84.458 581.866 84.514C581.623 84.5607 581.367 84.6027 581.096 84.64C580.835 84.668 580.569 84.7053 580.298 84.752C580.027 84.7893 579.785 84.8547 579.57 84.948C579.355 85.0413 579.178 85.1767 579.038 85.354C578.907 85.522 578.842 85.7553 578.842 86.054C578.842 86.25 578.879 86.418 578.954 86.558C579.038 86.6887 579.141 86.796 579.262 86.88C579.393 86.964 579.542 87.0247 579.71 87.062C579.878 87.0993 580.055 87.118 580.242 87.118C580.634 87.118 580.97 87.0667 581.25 86.964C581.53 86.852 581.759 86.7167 581.936 86.558C582.113 86.39 582.244 86.2127 582.328 86.026C582.412 85.83 582.454 85.648 582.454 85.48V84.262ZM588.756 88L591.402 80.762H590.156L588.182 86.796H588.154L586.124 80.762H584.794L587.482 88H588.756ZM597.52 83.688H593.362C593.38 83.408 593.441 83.1467 593.544 82.904C593.646 82.652 593.786 82.4327 593.964 82.246C594.141 82.0593 594.351 81.9147 594.594 81.812C594.846 81.7 595.126 81.644 595.434 81.644C595.732 81.644 596.003 81.7 596.246 81.812C596.498 81.9147 596.712 82.0593 596.89 82.246C597.076 82.4233 597.221 82.638 597.324 82.89C597.436 83.142 597.501 83.408 597.52 83.688ZM598.668 85.704H597.492C597.389 86.18 597.174 86.5347 596.848 86.768C596.53 87.0013 596.12 87.118 595.616 87.118C595.224 87.118 594.883 87.0527 594.594 86.922C594.304 86.7913 594.066 86.6187 593.88 86.404C593.693 86.18 593.558 85.928 593.474 85.648C593.39 85.3587 593.352 85.0553 593.362 84.738H598.78C598.798 84.2993 598.756 83.8373 598.654 83.352C598.56 82.8667 598.383 82.4187 598.122 82.008C597.87 81.5973 597.529 81.2613 597.1 81C596.68 80.7293 596.148 80.594 595.504 80.594C595.009 80.594 594.552 80.6873 594.132 80.874C593.721 81.0607 593.362 81.322 593.054 81.658C592.755 81.994 592.522 82.3907 592.354 82.848C592.186 83.3053 592.102 83.8093 592.102 84.36C592.12 84.9107 592.2 85.4193 592.34 85.886C592.489 86.3527 592.708 86.754 592.998 87.09C593.287 87.426 593.642 87.6873 594.062 87.874C594.491 88.0607 594.995 88.154 595.574 88.154C596.395 88.154 597.076 87.9487 597.618 87.538C598.159 87.1273 598.509 86.516 598.668 85.704Z" fill="white"/>
<path d="M564 72H604V70H564V72ZM607 75V91H609V75H607ZM604 94H564V96H604V94ZM561 91V75H559V91H561ZM564 94C562.343 94 561 92.6569 561 91H559C559 93.7614 561.239 96 564 96V94ZM607 91C607 92.6569 605.657 94 604 94V96C606.761 96 609 93.7614 609 91H607ZM604 72C605.657 72 607 73.3431 607 75H609C609 72.2386 606.761 70 604 70V72ZM564 70C561.239 70 559 72.2386 559 75H561C561 73.3431 562.343 72 564 72V70Z" fill="#1068BF"/>
<rect x="24.5" y="71.5" width="195" height="55" rx="3.5" stroke="#C4C4C4"/>
<g filter="url(#filter0_d)">
<g filter="url(#filter1_d)">
<path fill-rule="evenodd" clip-rule="evenodd" d="M156.982 115.931V114.947H157.984V109.822C157.865 109.466 157.338 108.734 157.079 108.532C156.822 108.334 156.518 108.184 156.18 108.076C156.094 108.049 155.942 108.026 155.753 108.013C155.548 107.999 155.325 107.997 155.122 108.003C155.058 108.005 155.058 108.005 155.046 108.005L155 107.007C155.02 107.006 155.02 107.006 155.095 107.003C155.327 106.997 155.579 106.999 155.821 107.015C156.084 107.033 156.305 107.066 156.483 107.123C156.926 107.264 157.334 107.466 157.692 107.743C157.922 107.922 158.222 108.275 158.474 108.653C158.733 108.277 159.045 107.928 159.306 107.748C159.733 107.452 160.121 107.242 160.493 107.124C160.672 107.067 160.893 107.033 161.157 107.016C161.398 106.999 161.65 106.997 161.881 107.003C161.956 107.006 161.956 107.006 161.976 107.007L161.93 108.006C161.919 108.005 161.919 108.005 161.854 108.003C161.652 107.998 161.43 107.999 161.225 108.013C161.035 108.026 160.884 108.049 160.796 108.077C160.534 108.16 160.228 108.326 159.875 108.571C159.597 108.762 159.117 109.414 158.97 109.809V114.947H159.968V115.931H158.97V120.106C159.117 120.5 159.597 121.151 159.877 121.343C160.228 121.588 160.533 121.753 160.799 121.836C160.885 121.863 161.036 121.886 161.225 121.899C161.43 121.913 161.653 121.915 161.855 121.91C161.919 121.908 161.919 121.908 161.93 121.907L161.976 122.906C161.956 122.907 161.956 122.907 161.882 122.909C161.65 122.915 161.398 122.913 161.157 122.897C160.893 122.879 160.671 122.845 160.497 122.789C160.122 122.673 159.733 122.462 159.308 122.166C159.046 121.986 158.733 121.637 158.474 121.26C158.222 121.637 157.922 121.99 157.692 122.17C157.334 122.448 156.925 122.651 156.485 122.789C156.306 122.846 156.084 122.88 155.821 122.898C155.579 122.914 155.326 122.917 155.095 122.91C155.02 122.908 155.02 122.908 155 122.907L155.046 121.908C155.058 121.909 155.058 121.909 155.122 121.911C155.324 121.916 155.547 121.914 155.752 121.9C155.942 121.887 156.093 121.864 156.182 121.836C156.518 121.73 156.822 121.58 157.077 121.382C157.338 121.177 157.865 120.446 157.97 120.087L157.984 115.931H156.982Z" fill="black"/>
</g>
</g>
</g>
<defs>
<filter id="filter0_d" x="153" y="107" width="10.9764" height="19.9136" filterUnits="userSpaceOnUse" color-interpolation-filters="sRGB">
<feFlood flood-opacity="0" result="BackgroundImageFix"/>
<feColorMatrix in="SourceAlpha" type="matrix" values="0 0 0 0 0 0 0 0 0 0 0 0 0 0 0 0 0 0 127 0"/>
<feOffset dy="2"/>
<feGaussianBlur stdDeviation="1"/>
<feColorMatrix type="matrix" values="0 0 0 0 0 0 0 0 0 0 0 0 0 0 0 0 0 0 0.25 0"/>
<feBlend mode="normal" in2="BackgroundImageFix" result="effect1_dropShadow"/>
<feBlend mode="normal" in="SourceGraphic" in2="effect1_dropShadow" result="shape"/>
</filter>
<filter id="filter1_d" x="154" y="106" width="8.97637" height="17.9136" filterUnits="userSpaceOnUse" color-interpolation-filters="sRGB">
<feFlood flood-opacity="0" result="BackgroundImageFix"/>
<feColorMatrix in="SourceAlpha" type="matrix" values="0 0 0 0 0 0 0 0 0 0 0 0 0 0 0 0 0 0 127 0"/>
<feOffset/>
<feGaussianBlur stdDeviation="0.5"/>
<feColorMatrix type="matrix" values="0 0 0 0 1 0 0 0 0 1 0 0 0 0 1 0 0 0 1 0"/>
<feBlend mode="normal" in2="BackgroundImageFix" result="effect1_dropShadow"/>
<feBlend mode="normal" in="SourceGraphic" in2="effect1_dropShadow" result="shape"/>
</filter>
<clipPath id="clip0">
<rect width="632" height="151" fill="white"/>
</clipPath>
</defs>
</svg>
