<svg id="Layer_1" data-name="Layer 1" xmlns="http://www.w3.org/2000/svg" viewBox="0 0 2000 1150"><defs><style>.cls-1{stroke:#d1d0d3}.cls-1,.cls-2,.cls-3,.cls-4,.cls-5{fill:none;stroke-miterlimit:10}.cls-2,.cls-3{stroke-width:15.94px;stroke:#171321}.cls-3{stroke-width:12.2px}.cls-4{stroke:#a2a1a6;stroke-width:2.83px}.cls-6{font-family:GitLabSans,&apos;GitLab Sans&apos;;font-size:27px;font-variation-settings:&apos;opsz&apos; 28,&apos;wght&apos; 400}.cls-8{fill:#00c9ff}.cls-10,.cls-9{letter-spacing:-.02em}.cls-12{letter-spacing:-.03em}.cls-13{letter-spacing:-.01em}.cls-14,.cls-15,.cls-16{letter-spacing:0}.cls-5{stroke:#00c9ff;stroke-width:2px}</style></defs><g opacity=".5"><path class="cls-1" d="M890.78 191.98v765.01M906.71 191.98v765.01M898.74 191.98v765.01M882.81 191.98v765.01M922.65 191.98v765.01M938.59 191.98v765.01M930.62 191.98v765.01M914.68 191.98v765.01M954.53 191.98v765.01M970.46 191.98v765.01M962.5 191.98v765.01M946.56 191.98v765.01M986.4 191.98v765.01M1002.34 191.98v765.01M994.37 191.98v765.01M978.43 191.98v765.01M1010.31 191.98v765.01M1026.25 191.98v765.01M1042.18 191.98v765.01M1034.22 191.98v765.01M1018.28 191.98v765.01M1058.12 191.98v765.01M1074.06 191.98v765.01M1066.09 191.98v765.01M1050.15 191.98v765.01M1090 191.98v765.01M1105.94 191.98v765.01M1097.97 191.98v765.01M1082.03 191.98v765.01M1121.87 191.98v765.01M1113.9 191.98v765.01M1137.81 191.98v765.01M1153.75 191.98v765.01M1145.78 191.98v765.01M1129.84 191.98v765.01M1169.69 191.98v765.01M1185.62 191.98v765.01M1177.65 191.98v765.01M1161.72 191.98v765.01M1201.56 191.98v765.01M1217.5 191.98v765.01M1209.53 191.98v765.01M1193.59 191.98v765.01M1225.47 191.98v765.01M1241.41 191.98v765.01M1257.34 191.98v765.01M1249.37 191.98v765.01M1233.44 191.98v765.01M1273.28 191.98v765.01M1289.22 191.98v765.01M1281.25 191.98v765.01M1265.31 191.98v765.01M1305.16 191.98v765.01M1321.09 191.98v765.01M1313.13 191.98v765.01M1297.19 191.98v765.01M1337.03 191.98v765.01M1329.06 191.98v765.01M1352.97 191.98v765.01M1368.91 191.98v765.01M1360.94 191.98v765.01M1345 191.98v765.01M1384.85 191.98v765.01M1400.78 191.98v765.01M1392.81 191.98v765.01M1376.88 191.98v765.01M1416.72 191.98v765.01M1432.66 191.98v765.01M1424.69 191.98v765.01M1408.75 191.98v765.01M1440.63 191.98v765.01M1456.56 191.98v765.01M1472.5 191.98v765.01M1464.53 191.98v765.01M1448.6 191.98v765.01M1488.44 191.98v765.01M1504.38 191.98v765.01M1496.41 191.98v765.01M1480.47 191.98v765.01M1520.32 191.98v765.01M1536.25 191.98v765.01M1528.28 191.98v765.01M1512.35 191.98v765.01M1552.19 191.98v765.01M1544.22 191.98v765.01M1568.13 191.98v765.01M1584.07 191.98v765.01M1576.1 191.98v765.01M1560.16 191.98v765.01M1600 191.98v765.01M1615.94 191.98v765.01M1607.97 191.98v765.01M1592.04 191.98v765.01M1631.88 191.98v765.01M1639.85 191.98v765.01M1623.91 191.98v765.01"/><g><path class="cls-1" d="M890.78 191.98v765.01M906.71 191.98v765.01M898.74 191.98v765.01M882.81 191.98v765.01M922.65 191.98v765.01M938.59 191.98v765.01M930.62 191.98v765.01M914.68 191.98v765.01M954.53 191.98v765.01M970.46 191.98v765.01M962.5 191.98v765.01M946.56 191.98v765.01M986.4 191.98v765.01M1002.34 191.98v765.01M994.37 191.98v765.01M978.43 191.98v765.01M1010.31 191.98v765.01M1026.25 191.98v765.01M1042.18 191.98v765.01M1034.22 191.98v765.01M1018.28 191.98v765.01M1058.12 191.98v765.01M1074.06 191.98v765.01M1066.09 191.98v765.01M1050.15 191.98v765.01M1090 191.98v765.01M1105.94 191.98v765.01M1097.97 191.98v765.01M1082.03 191.98v765.01M1121.87 191.98v765.01M1113.9 191.98v765.01M1137.81 191.98v765.01M1153.75 191.98v765.01M1145.78 191.98v765.01M1129.84 191.98v765.01M1169.69 191.98v765.01M1185.62 191.98v765.01M1177.65 191.98v765.01M1161.72 191.98v765.01M1201.56 191.98v765.01M1217.5 191.98v765.01M1209.53 191.98v765.01M1193.59 191.98v765.01M1225.47 191.98v765.01M1241.41 191.98v765.01M1257.34 191.98v765.01M1249.37 191.98v765.01M1233.44 191.98v765.01M1273.28 191.98v765.01M1289.22 191.98v765.01M1281.25 191.98v765.01M1265.31 191.98v765.01M1305.16 191.98v765.01M1321.09 191.98v765.01M1313.13 191.98v765.01M1297.19 191.98v765.01M1337.03 191.98v765.01M1329.06 191.98v765.01M1352.97 191.98v765.01M1368.91 191.98v765.01M1360.94 191.98v765.01M1345 191.98v765.01M1384.85 191.98v765.01M1400.78 191.98v765.01M1392.81 191.98v765.01M1376.88 191.98v765.01M1416.72 191.98v765.01M1432.66 191.98v765.01M1424.69 191.98v765.01M1408.75 191.98v765.01M1440.63 191.98v765.01M1456.56 191.98v765.01M1472.5 191.98v765.01M1464.53 191.98v765.01M1448.6 191.98v765.01M1488.44 191.98v765.01M1504.38 191.98v765.01M1496.41 191.98v765.01M1480.47 191.98v765.01M1520.32 191.98v765.01M1536.25 191.98v765.01M1528.28 191.98v765.01M1512.35 191.98v765.01M1552.19 191.98v765.01M1544.22 191.98v765.01M1568.13 191.98v765.01M1584.07 191.98v765.01M1576.1 191.98v765.01M1560.16 191.98v765.01M1600 191.98v765.01M1615.94 191.98v765.01M1607.97 191.98v765.01M1592.04 191.98v765.01M1631.88 191.98v765.01M1639.85 191.98v765.01M1647.82 191.98v765.01M1623.91 191.98v765.01"/></g><g><path class="cls-1" d="M1647.82 199.95H882.81M1647.82 215.89H882.81M1647.82 207.92H882.81M1647.82 191.98H882.81M1647.82 231.83H882.81M1647.82 247.77H882.81M1647.82 239.8H882.81M1647.82 223.86H882.81M1647.82 263.7H882.81M1647.82 279.64H882.81M1647.82 271.67H882.81M1647.82 255.73H882.81M1647.82 295.58H882.81M1647.82 311.52H882.81M1647.82 303.55H882.81M1647.82 287.61H882.81M1647.82 319.49H882.81M1647.82 335.42H882.81M1647.82 351.36H882.81M1647.82 343.39H882.81M1647.82 327.45H882.81M1647.82 367.3H882.81M1647.82 383.24H882.81M1647.82 375.27H882.81M1647.82 359.33H882.81M1647.82 399.17H882.81M1647.82 415.11H882.81M1647.82 407.14H882.81M1647.82 391.2H882.81M1647.82 431.05H882.81M1647.82 423.08H882.81M1647.82 446.99H882.81M1647.82 462.92H882.81M1647.82 454.96H882.81M1647.82 439.02H882.81M1647.82 478.86H882.81M1647.82 494.8H882.81M1647.82 486.83H882.81M1647.82 470.89H882.81M1647.82 510.74H882.81M1647.82 526.68H882.81M1647.82 518.71H882.81M1647.82 502.77H882.81M1647.82 534.64H882.81M1647.82 550.58H882.81M1647.82 566.52H882.81M1647.82 558.55H882.81M1647.82 542.61H882.81M1647.82 582.46H882.81M1647.82 598.39H882.81M1647.82 590.43H882.81M1647.82 574.49H882.81M1647.82 614.33H882.81M1647.82 630.27H882.81M1647.82 622.3H882.81M1647.82 606.36H882.81M1647.82 646.21H882.81M1647.82 638.24H882.81M1647.82 662.15H882.81M1647.82 678.08H882.81M1647.82 670.11H882.81M1647.82 654.18H882.81M1647.82 694.02H882.81M1647.82 709.96H882.81M1647.82 701.99H882.81M1647.82 686.05H882.81M1647.82 725.9H882.81M1647.82 741.83H882.81M1647.82 733.87H882.81M1647.82 717.93H882.81M1647.82 749.8H882.81M1647.82 765.74H882.81M1647.82 781.68H882.81M1647.82 773.71H882.81M1647.82 757.77H882.81M1647.82 797.62H882.81M1647.82 813.55H882.81M1647.82 805.59H882.81M1647.82 789.65H882.81M1647.82 829.49H882.81M1647.82 845.43H882.81M1647.82 837.46H882.81M1647.82 821.52H882.81M1647.82 861.37H882.81M1647.82 853.4H882.81M1647.82 877.3H882.81M1647.82 893.24H882.81M1647.82 885.27H882.81M1647.82 869.34H882.81M1647.82 909.18H882.81M1647.82 925.12H882.81M1647.82 917.15H882.81M1647.82 901.21H882.81M1647.82 941.06H882.81M1647.82 949.02H882.81M1647.82 956.99H882.81M1647.82 933.09H882.81"/></g></g><g id="documents-96px"><path class="cls-2" d="M1480.47 431.05v438.29h-414.38c-52.81 0-95.63-42.81-95.63-95.63V199.95h342.66"/><path class="cls-2" d="M1313.13 367.3h167.34v-7.97l-159.38-159.38h-7.96V367.3zM1368.91 454.96h-286.88M1368.91 534.64h-286.88M1368.91 614.33h-286.88M1225.47 694.02h-143.44"/><path class="cls-2" d="M1480.47 279.64h79.69v669.38h-510.01"/></g><text class="cls-6" transform="translate(1223.31 141.98)"><tspan x="0" y="0">96</tspan><tspan class="cls-9" x="31.54" y="0">p</tspan><tspan x="46.2" y="0">x Grid</tspan></text><g id="documents-96px-2" data-name="documents-96px"><path class="cls-5" d="M1480.47 431.05v438.29h-414.38c-52.81 0-95.63-42.81-95.63-95.63V199.95h342.66"/><path class="cls-5" d="M1313.13 367.3h167.34v-7.97l-159.38-159.38h-7.96V367.3zM1368.91 454.96h-286.88M1368.91 534.64h-286.88M1368.91 614.33h-286.88M1225.47 694.02h-143.44"/><path class="cls-5" d="M1480.47 279.64h79.69v669.38h-510.01"/></g><path class="cls-8" d="M1557.16 276.64h6v6h-6zM1477.47 276.64h6v6h-6zM1477.47 364.3h6v6h-6zM1477.47 428.05h6v6h-6zM1477.47 356.33h6v6h-6zM1310.13 364.3h6v6h-6zM1310.13 196.95h6v6h-6zM967.46 196.95h6v6h-6zM967.46 770.71h6v6h-6zM1063.09 866.34h6v6h-6zM1047.15 946.02h6v6h-6zM1477.47 866.34h6v6h-6zM1557.16 946.02h6v6h-6zM1318.09 196.95h6v6h-6zM1365.91 451.96h6v6h-6zM1079.03 451.96h6v6h-6zM1365.91 531.64h6v6h-6zM1079.03 531.64h6v6h-6zM1365.91 611.33h6v6h-6zM1079.03 611.33h6v6h-6zM1222.47 691.02h6v6h-6zM1079.03 691.02h6v6h-6z"/><g><text class="cls-6" transform="translate(1676.55 287.61)"><tspan x="0" y="0">2</tspan><tspan class="cls-9" x="15.11" y="0">p</tspan><tspan x="29.77" y="0">x st</tspan><tspan class="cls-14" x="71.42" y="0">r</tspan><tspan x="79.85" y="0">o</tspan><tspan class="cls-9" x="94.67" y="0">k</tspan><tspan x="107.76" y="0">e</tspan></text><text class="cls-6" transform="translate(1678.03 622.3)"><tspan x="0" y="0">bu</tspan><tspan class="cls-12" x="30.03" y="0">t</tspan><tspan x="37.51" y="0">t </tspan><tspan class="cls-15" x="52.66" y="0">c</tspan><tspan x="66.91" y="0">ap</tspan></text><text class="cls-6" transform="translate(1678.03 958.11)"><tspan x="0" y="0">m</tspan><tspan class="cls-16" x="22.65" y="0">i</tspan><tspan class="cls-13" x="28.48" y="0">t</tspan><tspan x="36.54" y="0">er join corner</tspan></text><text class="cls-6" transform="translate(1677.61 413.24)"><tspan x="0" y="0" letter-spacing="-.05em">7</tspan><tspan class="cls-9" x="12.31" y="0">p</tspan><tspan x="26.97" y="0">x line b</tspan><tspan class="cls-14" x="110.43" y="0">r</tspan><tspan class="cls-15" x="118.86" y="0">e</tspan><tspan x="133.47" y="0">ak</tspan></text><path class="cls-4" d="M1503.97 375.27v56.83M1496 375.27h15.93M1496 431.05l16.76.3M1599.59 271.67v16.99M1591.62 271.67h15.94M1592.04 287.61h15.93M1600 280.17h68.99M1504.38 403.68h164.61"/><text class="cls-6" transform="translate(863.97 1022.72)"><tspan x="0" y="0">12</tspan><tspan class="cls-9" x="24.89" y="0">p</tspan><tspan x="39.55" y="0">x corner </tspan><tspan class="cls-10" x="142.32" y="0">r</tspan><tspan x="150.6" y="0">adius</tspan></text><path class="cls-4" d="M1066.09 909.18c-74.82 0-135.47-60.65-135.47-135.47M1066.09 901.21v15.94M938.59 773.71h-15.94M970.14 869.34V992.6M1353.38 598.81h31.05v31.05h-31.05zM1544.63 933.5h31.05v31.05h-31.05zM1385.08 614.13h283.91M1576.1 949.02h92.89"/></g><g><path class="cls-1" d="M193.33 404.14v292.88M205.54 404.14v292.88M217.74 404.14v292.88M229.94 404.14v292.88M242.15 404.14v292.88M254.35 404.14v292.88M266.55 404.14v292.88M278.76 404.14v292.88M290.96 404.14v292.88M303.16 404.14v292.88M315.37 404.14v292.88M327.57 404.14v292.88M339.77 404.14v292.88M351.98 404.14v292.88M364.18 404.14v292.88M376.38 404.14v292.88M388.59 404.14v292.88M400.79 404.14v292.88M412.99 404.14v292.88M425.2 404.14v292.88M437.4 404.14v292.88M449.6 404.14v292.88M461.81 404.14v292.88M474.01 404.14v292.88M486.21 404.14v292.88"/><g><path class="cls-1" d="M486.21 404.14H193.33M486.21 416.35H193.33M486.21 428.55H193.33M486.21 440.75H193.33M486.21 452.96H193.33M486.21 465.16H193.33M486.21 477.36H193.33M486.21 489.57H193.33M486.21 501.77H193.33M486.21 513.97H193.33M486.21 526.18H193.33M486.21 538.38H193.33M486.21 550.58H193.33M486.21 562.79H193.33M486.21 574.99H193.33M486.21 587.19H193.33M486.21 599.39H193.33M486.21 611.6H193.33M486.21 623.8H193.33M486.21 636H193.33M486.21 648.21H193.33M486.21 660.41H193.33M486.21 672.61H193.33M486.21 684.82H193.33M486.21 697.02H193.33"/></g><g id="document-24px"><path class="cls-3" d="M406.89 526.2v128.11H272.65c-20.22 0-36.61-16.39-36.61-36.61V410.24h97.63l73.22 73.22v6.1"/><path class="cls-3" d="M266.55 690.92H443.5V446.85h-18.3"/><path class="cls-3" d="M333.67 410.24v73.22h73.22M278.76 544.48h85.42M278.76 581.09h61.01"/></g><text class="cls-6" transform="translate(281.92 359.33)"><tspan class="cls-10" x="0" y="0">2</tspan><tspan x="14.69" y="0">4</tspan><tspan class="cls-9" x="31.36" y="0">p</tspan><tspan x="46.02" y="0">x Grid</tspan></text><g><g id="document-24px-2" data-name="document-24px"><path class="cls-5" d="M406.89 525.97v128.34H272.65c-20.22 0-36.61-16.39-36.61-36.61V410.24h97.63l73.22 73.22"/><path class="cls-5" d="M266.55 690.92H443.5V446.85h-18.3"/><path class="cls-5" d="M333.67 410.24v73.22h73.22M278.76 544.48h85.42M278.76 581.09h61.01"/></g><path class="cls-8" d="M233.04 407.24h6v6h-6zM330.67 407.24h6v6h-6zM330.67 480.46h6v6h-6zM403.89 480.46h6v6h-6zM422.2 443.85h6v6h-6zM440.5 443.85h6v6h-6zM403.89 522.97h6v6h-6zM403.89 651.31h6v6h-6zM440.5 687.92h6v6h-6zM263.55 687.92h6v6h-6zM336.77 578.09h6v6h-6zM275.76 578.09h6v6h-6zM275.76 541.48h6v6h-6zM361.18 541.48h6v6h-6zM269.55 651.31h6v6h-6zM233.04 615.52h6v6h-6z"/></g><g><text class="cls-6" transform="translate(522.9 452.98)"><tspan x="0" y="0">1</tspan><tspan class="cls-9" x="9.78" y="0">p</tspan><tspan x="24.44" y="0">x st</tspan><tspan class="cls-14" x="66.09" y="0">r</tspan><tspan x="74.53" y="0">o</tspan><tspan class="cls-9" x="89.35" y="0">k</tspan><tspan x="102.44" y="0">e</tspan></text><text class="cls-6" transform="translate(524.8 660.42)"><tspan x="0" y="0">bu</tspan><tspan class="cls-12" x="30.03" y="0">t</tspan><tspan x="37.51" y="0">t </tspan><tspan class="cls-15" x="52.66" y="0">c</tspan><tspan x="66.91" y="0">ap</tspan></text><text class="cls-6" transform="translate(526.46 729.62)"><tspan x="0" y="0">m</tspan><tspan class="cls-16" x="22.65" y="0">i</tspan><tspan class="cls-13" x="28.48" y="0">t</tspan><tspan x="36.54" y="0">er join corner</tspan></text><text class="cls-6" transform="translate(523.53 513.97)"><tspan x="0" y="0">3</tspan><tspan class="cls-9" x="16.24" y="0">p</tspan><tspan x="30.9" y="0">x line b</tspan><tspan class="cls-14" x="114.35" y="0">r</tspan><tspan class="cls-15" x="122.79" y="0">e</tspan><tspan x="137.4" y="0">ak</tspan></text><path class="cls-4" d="M425.2 489.17v37.01M418.77 525.97H431M418.77 489.57H431M461.66 440.75v13.04M455.54 440.75h12.23M455.86 452.98h12.23M461.98 447.27h52.93M425.2 507.67h89.71"/><text class="cls-6" transform="translate(132.46 767.47)"><tspan x="0" y="0">3</tspan><tspan class="cls-9" x="16.24" y="0">p</tspan><tspan x="30.9" y="0">x corner </tspan><tspan class="cls-10" x="133.67" y="0">r</tspan><tspan x="141.95" y="0">adius</tspan></text><path class="cls-4" d="M394.98 642.4h23.83v23.83h-23.83zM431.72 679.01h23.83v23.83h-23.83zM419.96 654.15h94.95"/><path class="cls-4" d="M443.63 702.83v19.92h71.28M272.65 672.61c-30.33 0-54.91-24.59-54.91-54.91M234.62 657.31v81.53M272.65 666.22v12.79M223.6 617.7h-13.13"/></g></g></svg>