<svg id="Layer_1" data-name="Layer 1" xmlns="http://www.w3.org/2000/svg" viewBox="0 0 3000 800"><defs><clipPath id="clippath"><circle class="cls-1" cx="444.44" cy="392.36" r="126.52"/></clipPath><clipPath id="clippath-1"><circle class="cls-1" cx="1507.33" cy="392.36" r="126.52"/></clipPath><clipPath id="clippath-2"><circle class="cls-1" cx="973.02" cy="148.38" r="126.52"/></clipPath><clipPath id="clippath-3"><circle class="cls-1" cx="2032.75" cy="148.38" r="126.52"/></clipPath><clipPath id="clippath-4"><circle class="cls-1" cx="973.02" cy="651.62" r="126.52"/></clipPath><style>.cls-1,.cls-2,.cls-3,.cls-4,.cls-5,.cls-6,.cls-7,.cls-9{fill:none}.cls-10,.cls-2,.cls-3,.cls-4,.cls-5,.cls-6,.cls-7,.cls-9{stroke-linecap:round;stroke-linejoin:round}.cls-10,.cls-6,.cls-7{stroke:#2f2a6b;stroke-width:3.31px}.cls-10,.cls-11{fill:#2f2a6b}.cls-2{stroke:#10b0b0}.cls-2,.cls-3,.cls-4,.cls-5,.cls-9{stroke-width:11.35px}.cls-3{stroke:#6fd9c8}.cls-12{fill:#6fd9c8}.cls-13{fill:#c4f3eb;opacity:.6}.cls-4{stroke:#7759c1}.cls-14{fill:#7759c1}.cls-5{stroke:#fb6d26}.cls-15,.cls-6{opacity:.4}.cls-15,.cls-17{fill:#cdb2ee}.cls-23{fill:#fff}.cls-25{fill:#fb6d26}.cls-26{fill:#fba226}.cls-27{opacity:.3}.cls-28{fill:#a888f4}.cls-30{fill:#fcf0dc}.cls-9{stroke:#a888f4}</style></defs><g opacity=".4"><path class="cls-7" d="M444.44 518.89V623.4c0 20.9 16.94 37.85 37.85 37.85H846.5M972.84 379.66V274.9M972.84 525.29V415.7M1099.55 148.38h370.65c20.9 0 37.85 16.94 37.85 37.85v79.62M1507.33 518.89V623.4c0 20.9 16.94 37.85 37.85 37.85h361.06M2032.75 415.46v93.76M2032.75 274.9l-.3 104.63M2159.28 148.38h358.95c20.9 0 37.85 16.94 37.85 37.85v80.07M2810.51 397.47h-135.85M3001.15 397.47h-154.77"/><circle class="cls-7" cx="972.84" cy="397.47" r="17.94"/><circle class="cls-7" cx="2032.45" cy="397.47" r="17.94"/><circle class="cls-7" cx="2828.44" cy="397.47" r="17.94"/><path class="cls-7" d="M154.77 397.47H0M317.03 397.47H190.65"/><circle class="cls-7" cx="172.71" cy="397.47" r="17.94"/></g><circle class="cls-15" cx="444.44" cy="392.36" r="126.52"/><g clip-path="url(#clippath)"><path class="cls-17" d="M343.33 451.2h52.18v58.33h-52.18z"/><path class="cls-28" d="M470.53 516.47l-26.09 2.42-26.09-2.42v-89.12h52.18v89.12z"/><path class="cls-14" d="M495.79 380.16h28.53c13.05 0 23.65 10.6 23.65 23.65v106.07h-52.18V380.15z"/><g><path class="cls-7" d="M343.33 451.2h52.18v58.33M418.35 471.25v-43.9h52.18v89.12M495.79 509.88V380.15h28.53c13.06 0 23.65 10.59 23.65 23.65v37.91"/></g></g><path class="cls-7" d="M330.92 336.43c20.65-41.83 63.72-70.59 113.52-70.59 27.78 0 53.47 8.95 74.34 24.13M557.96 336.44c8.32 16.86 13 35.85 13 55.93 0 69.88-56.65 126.52-126.52 126.52S320.7 464.98 318.02 397.47"/><path class="cls-7" d="M314.01 367.47l76.64-45.84 76.04 57.96 82.69-71.66"/><circle class="cls-26" cx="315.9" cy="367.47" r="14.19"/><circle class="cls-12" cx="390.65" cy="321.63" r="14.19"/><circle class="cls-25" cx="466.69" cy="379.59" r="14.19"/><circle class="cls-12" cx="545.6" cy="309.82" r="14.19"/><circle class="cls-15" cx="1507.33" cy="392.36" r="126.52"/><g clip-path="url(#clippath-1)"><path class="cls-3" d="M1393.11 281.83h42.66"/><path class="cls-5" d="M1537.47 281.83h89.76"/><path class="cls-9" d="M1452.63 281.83h66.36"/><path class="cls-3" d="M1577.63 311.81h49.6"/><path class="cls-4" d="M1446.77 311.81h113.08"/><path class="cls-9" d="M1393.11 311.81h33.18M1501.61 341.79h80.44"/><path class="cls-4" d="M1602.21 341.79h25.02"/><path class="cls-5" d="M1383.65 341.79h100.46"/><path class="cls-4" d="M1565.5 371.77h50.37"/><path class="cls-3" d="M1457.63 371.77h84.2"/><path class="cls-9" d="M1402.57 371.77h39.2M1501.61 401.75h76.57"/><path class="cls-5" d="M1434.74 401.75h44.38"/></g><path class="cls-7" d="M1593.53 484.96c24.8-23.1 40.32-56.03 40.32-92.6 0-69.88-56.65-126.52-126.52-126.52s-126.52 56.65-126.52 126.52c0 37.57 16.38 71.31 42.39 94.48"/><circle class="cls-15" cx="2548.13" cy="392.36" r="126.52"/><path class="cls-23" d="M2629.87 486.94l-18.96-18.96a10.269 10.269 0 00-8.95-2.87c-8.99 1.49-18.54-1.21-25.48-8.15-9.08-9.08-10.93-22.64-5.59-33.57l6.47 6.47 16.13 16.13 13.46-13.46-22.6-22.6c10.93-5.34 24.48-3.49 33.57 5.59 6.94 6.94 9.64 16.49 8.15 25.49-.54 3.27.52 6.6 2.87 8.95l11.72 11.19 8.43 7.48-19.22 18.31z"/><circle class="cls-30" cx="2032.75" cy="651.62" r="126.52"/><circle class="cls-13" cx="2032.75" cy="148.38" r="126.52"/><circle class="cls-30" cx="973.02" cy="148.38" r="126.52"/><path class="cls-7" d="M915.29 75.84h132.4"/><circle class="cls-12" cx="883.83" cy="75.84" r="31.46"/><path class="cls-7" d="M872.91 77.09l6.46 6.47 15.39-15.38"/><circle class="cls-12" cx="1063.39" cy="75.84" r="31.46"/><path class="cls-7" d="M1052.46 77.09l6.47 6.47 15.38-15.38"/><circle class="cls-12" cx="973.61" cy="75.84" r="31.46"/><path class="cls-7" d="M962.69 77.09l6.46 6.47 15.39-15.38"/><g clip-path="url(#clippath-2)"><path class="cls-23" d="M899.53 134.83h124.51c13.05 0 23.65 10.6 23.65 23.65v119.36H899.53V134.83z"/><path class="cls-7" d="M899.53 260.87V134.84h124.51c13.06 0 23.65 10.59 23.65 23.65v77.09"/><path class="cls-11" d="M899.53 164.83v-29.99h124.51c13.06 0 23.65 10.59 23.65 23.65v6.34H899.53z"/><path class="cls-7" d="M947.7 181.93h65.11M947.7 197.59h54.4"/><path stroke="#a888f4" stroke-width="3.31" stroke-linecap="round" stroke-linejoin="round" fill="none" d="M1004.07 255.99h-69.63v-43.94"/><path class="cls-7" d="M946.63 246l15.66-23.97 20.89 17.98 17.41-17.98M939.75 181.93h-6.51M939.75 197.59h-6.51"/><circle class="cls-12" cx="911.33" cy="148.53" r="4.89"/><circle class="cls-28" cx="927.41" cy="148.53" r="4.89"/><circle class="cls-26" cx="943.5" cy="148.53" r="4.89"/></g><path class="cls-7" d="M1029.07 34.92c-16.89-8.36-35.92-13.07-56.05-13.07s-39.15 4.71-56.05 13.07M850.48 116.77c-2.6 10.1-3.98 20.7-3.98 31.61 0 69.88 56.65 126.52 126.52 126.52s126.52-56.65 126.52-126.52c0-10.91-1.38-21.51-3.98-31.61"/><path class="cls-26" d="M1442.11 429.62h132.5v89.27h-132.5z"/><path class="cls-23" d="M1491.02 429.62h33.91v25.11h-33.91z"/><path class="cls-7" d="M1406.84 400.01l36.46 30.79M1608.68 400.01l-35.25 30.79M1442.11 518.89v-89.27h111.22M1574.61 429.62v89.27h-117.6"/><path class="cls-7" d="M1524.93 429.62v25.11h-33.91v-25.11"/><path class="cls-17" d="M2026 777.97c-73.53-4.57-93.27-48.87-93.27-48.87 3.94-6.39 11.51-12.09 19.57-12.09 5.76 0 12.77 2.95 16.74 6.52 4.21-12.42 15.95-21.38 29.79-21.38 3.68 0 6.86.63 9.83 1.79 3.82 1.49 8.02-.96 8.62-5.02l5.51-37.69h21.03l4.47 46.78a31.334 31.334 0 0118.3-5.86c13.85 0 25.58 8.95 29.79 21.38 3.97-3.58 11.63-6.34 17.39-6.34 7.72 0 15.07 5.88 19.1 11.83 0 0-20.45 41.6-94.1 49.12"/><path class="cls-23" d="M2054.45 661.07h-52.09V559.12c0-13.47 4.93-26.48 13.85-36.57l11.78-13.32h9.46l11.78 13.32a55.175 55.175 0 0113.85 36.57v101.95"/><path d="M2019.2 543.15l7.23-2.31c3.85-1.23 7.99-1.24 11.84-.03l7.43 2.34v-10.06l-7.43-2.34c-3.86-1.21-7.99-1.2-11.84.03l-7.23 2.31v10.06z" fill="#a1a0a5"/><path class="cls-10" d="M2001.28 661.07l-35.78 9.64v-21.79c0-8.58 2.67-16.95 7.63-23.95l28.15-39.82M2063.09 661.07l35.78 9.64V648.6c0-8.39-2.55-16.57-7.3-23.48l-28.48-41.37"/><path class="cls-7" d="M2005.37 702.19c-2.19-.48-4.46-.74-6.8-.74-13.85 0-25.58 8.95-29.79 21.38-3.97-3.58-9.17-5.81-14.93-5.81s-10.78 2.08-14.71 5.51M2022.52 661.07l-5.65 37.95M2090.39 712.69c-5.77-6.87-14.41-11.24-24.08-11.24-6.82 0-13.14 2.17-18.3 5.86l-3.03-30.39M2131.41 727.45c-4.02-5.95-12.65-10.44-20.38-10.44-5.76 0-10.96 2.24-14.93 5.81M2054.45 661.07h-52.09V559.12c0-13.47 4.93-26.48 13.85-36.57l11.78-13.32h9.46l11.78 13.32a55.175 55.175 0 0113.85 36.57v101.95"/><path class="cls-7" d="M2019.2 543.15l7.23-2.31c3.85-1.23 7.99-1.24 11.84-.03l7.43 2.34v-10.06l-7.43-2.34c-3.86-1.21-7.99-1.2-11.84.03l-7.23 2.31v10.06zM2032.45 559.75v75.27M2063.09 636.01h-60.73"/><path class="cls-7" d="M1974.58 539.24c-40.61 21.06-68.35 63.48-68.35 112.38 0 69.88 56.65 126.52 126.52 126.52s126.52-56.65 126.52-126.52c0-49.57-28.51-92.47-70.02-113.23"/><path class="cls-23" d="M2046.08 144.37c0-6.23-5.05-11.29-11.29-11.29s-11.29 5.05-11.29 11.29c0 4.53 2.68 8.43 6.53 10.23v14.74h9.51V154.6c3.86-1.8 6.53-5.69 6.53-10.23z"/><circle class="cls-26" cx="2125.73" cy="231.11" r="37.09"/><path class="cls-7" d="M2112.91 232.5l7.29 7.28 17.34-17.34"/><g class="cls-27" clip-path="url(#clippath-3)"><path class="cls-2" d="M1983.54 84.27h92.05M2095.97 84.27h52.01M2107.23 108.81h52.05M1901.94 108.81h64.77M2037.55 59.72h94.24M1977.52 35.01h68.56M2070.89 35.01h42.02M1934.33 59.72H2015M1918.23 84.27h43.96M1901.94 133.35h21.02M2102.79 133.35h47.44M1944.19 133.35h18M1928.01 157.89h38.7M1863.45 157.89h46.65M2092.45 182.43h49.44M1905.8 182.43h61.52M1958.3 206.98h25.24M2075.07 206.98h6.32M1989 231.11h83.23M1918.23 231.11h50.2M1958.3 255.66h117.29M1915.87 206.98h21.9M2145.67 157.89h25.24M2103.24 157.89h21.89"/></g><path class="cls-7" d="M2087.93 262.27c-16.67 8.09-35.39 12.63-55.17 12.63-69.88 0-126.52-56.65-126.52-126.52s56.65-126.52 126.52-126.52 126.52 56.65 126.52 126.52c0 14.58-2.47 28.58-7 41.61"/><path class="cls-28" d="M2034.79 87.11c-23.15 25.26-53.14 19.69-53.14 19.69v45.59c0 7.92 1.58 15.8 4.97 22.95 13.83 29.14 48.17 39.98 48.17 39.98s34.33-10.84 48.17-39.98c3.39-7.15 4.97-15.03 4.97-22.95V106.8s-29.99 5.56-53.14-19.69z"/><path class="cls-7" d="M2034.79 215.32s34.33-10.84 48.17-39.98c3.39-7.15 4.97-15.03 4.97-22.95v-22.05"/><path class="cls-14" d="M2046.08 144.37c0-6.23-5.05-11.29-11.29-11.29s-11.29 5.05-11.29 11.29c0 4.53 2.68 8.43 6.53 10.23v14.74h9.51V154.6c3.86-1.8 6.53-5.69 6.53-10.23z"/><path class="cls-7" d="M2087.93 107.19l-7.9.13c-10.46-.09-29.45-2.98-45.24-20.21-15.8 17.23-34.78 20.12-45.24 20.21l-7.9-.13v45.2c0 7.86 1.55 15.69 4.9 22.8 5.73 12.16 15.03 21.14 23.94 27.49"/><path class="cls-7" d="M2046.08 144.37c0-6.23-5.05-11.29-11.29-11.29s-11.29 5.05-11.29 11.29c0 4.53 2.68 8.43 6.53 10.23v14.74h9.51V154.6c3.86-1.8 6.53-5.69 6.53-10.23z"/><circle class="cls-13" cx="973.02" cy="651.62" r="126.52"/><g class="cls-27" clip-path="url(#clippath-4)"><path class="cls-2" d="M922.33 587.75h92.05M1034.76 587.75h25.96M983.55 612.3h41.41M848.89 612.3h113.23M976.34 563.21h94.24M916.31 538.5h85.56M873.12 563.21h80.67M857.02 587.75h43.96M840.73 636.84h31.64M949.39 636.84h47.45M893.6 636.84h36.87M889.51 661.38h84.62M840.73 661.38h25.02M927.8 685.92h31.44M844.59 685.92h61.53M897.09 710.46h44.63M854.66 710.46h21.9"/><path d="M934.39 740.68H871.3c-3.14 0-5.68-2.54-5.68-5.68s2.54-5.68 5.68-5.68h73.45l-10.36 11.35z" fill="#10b0b0"/></g><path class="cls-7" d="M1098.46 638.12c.47 4.44.71 8.94.71 13.51 0 69.77-56.56 126.34-126.34 126.34s-126.34-56.56-126.34-126.34 56.56-126.34 126.34-126.34c29.18 0 56.05 9.89 77.43 26.5"/><path class="cls-23" transform="rotate(45 1020.058 655.392)" d="M990.56 583.94h59.01v142.89h-59.01z"/><path class="cls-7" d="M1070.58 604.87l-88.38 88.38"/><path class="cls-28" d="M1057.24 565.84h40.08c10.44 0 18.92 8.48 18.92 18.92v26.8h-59.01v-45.73z" transform="rotate(45 1086.75 588.706)"/><path class="cls-26" d="M990.54 726.92l-42.01-42.01-14.14 56.15 56.15-14.14z"/><path class="cls-11" d="M940.77 715.75l19.01 19.02-25.39 6.29 6.38-25.31z"/><path class="cls-7" d="M1082.74 552.36L949.11 685.98l40.36 40.36 117.87-117.78M1049.94 585.16l33.21 33.2"/><path d="M2572.28 348.9v-26.54l-19.24-2.83c-1.35-4.9-3.29-9.56-5.76-13.88l11.61-15.6-18.77-18.77-15.61 11.61a60.724 60.724 0 00-13.9-5.76l-2.8-19.23h-26.54l-2.81 19.23c-4.91 1.35-9.58 3.3-13.91 5.77l-15.58-11.62-18.77 18.77 11.61 15.6a59.74 59.74 0 00-5.76 13.91l-19.23 2.8v26.54l19.23 2.82c1.35 4.91 3.3 9.58 5.77 13.91l-11.62 15.58 18.77 18.77 15.6-11.61c4.33 2.47 8.99 4.41 13.9 5.76l2.81 19.23h26.54l2.83-19.24a59.95 59.95 0 0013.88-5.76l15.6 11.61 18.77-18.77-11.61-15.61c2.46-4.32 4.41-8.98 5.75-13.88l19.23-2.82zm-77.72 12.32c-14.13 0-25.59-11.46-25.59-25.59s11.46-25.59 25.59-25.59 25.59 11.46 25.59 25.59-11.46 25.59-25.59 25.59z" fill="#d0cfd2"/><path class="cls-7" d="M2662.21 338.65h-70.74"/><g><path class="cls-7" d="M2577.36 429.87l16.13 16.13 13.46-13.46-22.6-22.6c10.93-5.34 24.48-3.49 33.57 5.59 6.94 6.94 9.64 16.49 8.15 25.49-.54 3.27.52 6.6 2.87 8.95l20.16 18.67M2629.87 486.94l-18.96-18.96a10.269 10.269 0 00-8.95-2.87c-8.99 1.49-18.54-1.21-25.48-8.15-9.08-9.08-10.93-22.64-5.59-33.57"/></g><circle class="cls-28" cx="2611.3" cy="338.65" r="9.6"/><path class="cls-7" d="M2634.68 302.89h-43.21M2671.76 369.13h-80.29M2551.01 466.06h-102.12"/><circle class="cls-25" cx="2491.58" cy="466.06" r="9.6"/><path class="cls-7" d="M2551.01 496.54h-71.41"/><circle class="cls-12" cx="2529.79" cy="496.54" r="9.6"/><circle class="cls-12" cx="2646.21" cy="369.13" r="9.6"/><path class="cls-26" d="M2636.61 301.56l-7.8-6.25c-2.26 1.76-3.73 4.49-3.73 7.58 0 5.3 4.3 9.6 9.6 9.6 3.2 0 6.02-1.57 7.76-3.97l-5.83-6.95z"/><path class="cls-7" d="M2455.42 276.09l-6.44-4.8-18.77 18.77 11.61 15.6a59.74 59.74 0 00-5.76 13.91l-19.23 2.8v26.54l19.23 2.82c1.35 4.91 3.3 9.58 5.77 13.91l-11.62 15.58 18.77 18.77 15.6-11.61c4.33 2.47 8.99 4.41 13.9 5.76l1.13 7.73m79.29-111.82l-18.77-18.77-15.61 11.61a60.724 60.724 0 00-13.9-5.76l-2.8-19.23h-26.54l-2.81 19.23c-4.91 1.35-9.58 3.3-13.91 5.77m16.73 130.45h26.54l2.83-19.24a59.95 59.95 0 0013.88-5.76l15.6 11.61 18.77-18.77-11.61-15.61c2.46-4.32 4.41-8.98 5.75-13.88l19.23-2.82v-26.54l-19.24-2.83c-1.35-4.9-3.29-9.56-5.76-13.88l3.72-5m-36.62 51.18c-4.69 5.74-11.83 9.41-19.83 9.41-14.13 0-25.59-11.46-25.59-25.59s11.46-25.59 25.59-25.59 25.59 11.46 25.59 25.59"/><path class="cls-7" d="M2558.9 266.29c64.84 5.46 115.76 59.82 115.76 126.07 0 69.88-56.65 126.52-126.52 126.52s-126.52-56.65-126.52-126.52"/><path class="cls-6" d="M798.79 701.25H655.42M617.13 701.25h-46.17M731.63 618.27h-86.16M1329.55 108.38h-60.21M1443.3 188.38h-193.96M1231.04 108.38h-46.16M1802.25 701.25h-109.12M1654.84 701.25h-46.16M1783.66 621.07h-46.16M2471.59 188.38h-143.37M2289.93 188.38h-46.17M2426.83 104.9h-76.16"/></svg>