<svg width="3000" height="350" fill="none" xmlns="http://www.w3.org/2000/svg"><path fill="#fff" d="M0 0h3000v350H0z"/><rect x="12" y="7.955" width="966.667" height="334.091" rx="167.045" fill="#FCA326"/><rect x="2023" y="7.955" width="966.667" height="334.091" rx="167.045" fill="#A989F5"/><rect x="1017" y="7.955" width="966.667" height="334.091" rx="167.045" fill="#6FDAC9"/><path d="M233.219 227L194.84 117.869h24.097l17.944 53.613c4.101 13.038 8.496 28.125 13.916 46.436h-6.445c5.273-18.311 9.521-33.398 13.476-46.436l17.359-53.613h23.803L261.417 227h-28.198zm67.517 0v-77.344h21.167V227h-21.167zm10.547-87.891c-6.665 0-11.865-5.053-11.865-11.499 0-6.372 5.2-11.499 11.865-11.499s11.865 5.127 11.865 11.499c0 6.446-5.2 11.499-11.865 11.499zm51.185 89.795c-19.849 0-34.278-9.521-35.523-26.147h20.874c.806 6.885 5.86 10.913 14.283 10.913 8.129 0 13.11-3.442 13.11-8.276 0-4.175-3.735-6.665-10.108-7.911l-13.549-2.636c-14.942-2.93-22.852-10.547-22.852-22.486 0-14.648 12.598-24.316 32.593-24.316 19.849 0 33.032 10.034 33.472 26.147h-19.703c-.146-6.298-5.493-10.986-13.183-10.986-7.544 0-12.085 3.662-12.085 8.35 0 4.028 3.515 6.591 9.521 7.837l14.576 2.856c15.527 3.149 22.778 9.888 22.778 21.24 0 15.381-14.063 25.415-34.204 25.415zM401.641 227v-77.344h21.167V227h-21.167zm10.547-87.891c-6.666 0-11.866-5.053-11.866-11.499 0-6.372 5.2-11.499 11.866-11.499 6.665 0 11.865 5.127 11.865 11.499 0 6.446-5.2 11.499-11.865 11.499zm55.066 89.649c-23.364 0-39.185-16.113-39.185-40.357 0-24.17 15.821-40.503 39.185-40.503 23.364 0 39.111 16.333 39.111 40.503 0 24.244-15.747 40.357-39.111 40.357zm0-17.285c10.62 0 17.725-8.57 17.725-23.072 0-14.502-7.105-23.144-17.725-23.144-10.62 0-17.725 8.642-17.725 23.144 0 14.502 7.032 23.072 17.725 23.072zm65.54-27.466V227h-21.167v-77.344h20.874v20.142h-3.662c4.907-13.696 13.696-21.753 27.759-21.753 16.406 0 27.173 10.986 27.173 30.542V227h-21.167v-44.531c0-10.474-5.274-16.04-14.429-16.04-9.009 0-15.381 5.42-15.381 17.578zm83.338 44.311c-15.454 0-26.66-7.69-26.66-23.071 0-17.505 14.062-22.412 30.249-23.95 14.135-1.392 19.043-1.978 19.043-7.031v-.44c0-5.859-4.761-9.888-12.744-9.888-8.204 0-13.55 4.175-14.063 10.181h-20.068c1.025-15.893 13.623-26.074 34.716-26.074 21.094 0 33.179 10.034 33.179 26.514V227h-20.727v-10.84h-.293c-4.102 7.471-10.767 12.158-22.632 12.158zm5.786-14.795c10.547 0 17.065-6.372 17.065-14.794v-7.837c-2.49 1.391-8.715 2.49-15.747 3.588-7.397 1.099-13.403 3.956-13.403 10.181 0 5.567 4.761 8.862 12.085 8.862zM668.488 227v-77.344h20.435v13.184h.22c2.856-9.229 8.715-13.696 18.823-13.696 2.563 0 4.687.146 6.372.219v18.164c-1.538-.146-5.567-.439-9.229-.439-8.862 0-15.454 6.152-15.454 17.798V227h-21.167zm52.943 30.615V240.77h9.741c5.127 0 7.104-2.271 9.155-8.204l2.271-5.859-29.81-77.051h22.266l13.11 38.452c2.93 9.009 5.64 18.091 8.276 27.173h-6.005c2.49-9.082 5.2-18.164 8.203-27.173l13.11-38.452h22.046l-34.058 89.356c-4.907 12.89-12.378 18.603-24.316 18.603h-13.989zM1139.33 227V117.869h78.01v19.043h-55.81v25.708h51.63v18.53h-51.63v26.88h55.81V227h-78.01zm83.86 0v-77.344h20.43v17.359h-1.32c4.03-12.744 13.84-18.97 24.76-18.97 11.79 0 21.38 7.324 23.29 18.97H1288c2.93-11.646 13.41-18.97 26.08-18.97 14.87 0 26 9.961 26 27.759V227h-21.24v-47.388c0-9.375-5.79-13.916-13.26-13.916-8.49 0-13.77 5.933-13.77 14.649V227h-20.43v-47.974c0-8.13-5.35-13.33-12.96-13.33-7.77 0-14.07 5.567-14.07 15.601V227h-21.16zm125.52 30.615V149.656h20.87v10.547h.3c4.76-8.057 12.96-12.158 23-12.158 19.7 0 33.25 16.479 33.25 40.21 0 24.243-13.19 40.43-33.4 40.43-10.18 0-18.09-4.541-22.63-13.184h-.22v42.114h-21.17zm38.53-46.289c10.62 0 17.5-8.349 17.5-23.071 0-14.575-6.88-22.925-17.5-22.925-11.06 0-18.39 9.009-18.39 22.925 0 13.989 7.33 23.071 18.39 23.071zm69.05 16.992c-15.45 0-26.66-7.69-26.66-23.071 0-17.505 14.06-22.412 30.25-23.95 14.14-1.392 19.04-1.978 19.04-7.031v-.44c0-5.859-4.76-9.888-12.74-9.888-8.2 0-13.55 4.175-14.06 10.181h-20.07c1.02-15.893 13.62-26.074 34.72-26.074 21.09 0 33.17 10.034 33.17 26.514V227h-20.72v-10.84h-.3c-4.1 7.471-10.76 12.158-22.63 12.158zm5.79-14.795c10.54 0 17.06-6.372 17.06-14.794v-7.837c-2.49 1.391-8.71 2.49-15.74 3.588-7.4 1.099-13.41 3.956-13.41 10.181 0 5.567 4.76 8.862 12.09 8.862zm90.59-63.867v16.773h-50.47v-16.773h50.47zm-37.06-21.094h21.24v74.781c0 5.273 1.68 6.958 7.54 6.958h8.28V227h-12.45c-16.85 0-24.61-6.372-24.61-20.361v-78.077zm62.53 55.445V227h-21.16V117.869h21.16v51.929h-3.95c4.91-13.696 13.69-21.753 27.76-21.753 16.4 0 27.17 10.986 27.17 30.542V227h-21.17v-44.531c0-10.474-5.27-16.04-14.43-16.04-9 0-15.38 5.42-15.38 17.578zm94.84 44.751c-23.44 0-38.6-16.846-38.6-40.357 0-23.584 15.68-40.503 37.87-40.503 22.7 0 37.94 16.48 37.94 40.137v5.713h-68.12v-13.696h57.86l-9.59 3.296c0-11.792-6.81-19.19-17.65-19.19s-17.65 7.398-17.65 19.19v9.301c0 12.159 6.73 20.142 18.53 20.142 8.49 0 14.43-3.955 16.4-10.034h19.41c-2.85 15.381-17.72 26.001-36.4 26.001zm86.19-79.102v16.773h-50.46v-16.773h50.46zm-37.06-21.094h21.24v74.781c0 5.273 1.69 6.958 7.55 6.958h8.27V227h-12.45c-16.84 0-24.61-6.372-24.61-20.361v-78.077zM1763.48 227v-77.344h21.17V227h-21.17zm10.55-87.891c-6.66 0-11.86-5.053-11.86-11.499 0-6.372 5.2-11.499 11.86-11.499 6.67 0 11.87 5.127 11.87 11.499 0 6.446-5.2 11.499-11.87 11.499zm54.55 89.649c-23.14 0-38.67-16.406-38.67-40.357 0-23.95 15.53-40.503 38.67-40.503 20.29 0 34.87 12.671 36.26 30.542h-20.58c-1.17-7.91-6.59-13.256-15.31-13.256-11.06 0-17.58 8.935-17.58 23.217 0 14.209 6.52 23.145 17.58 23.145 8.79 0 13.77-5.274 15.16-13.403h20.73c-1.03 17.724-15.75 30.615-36.26 30.615zM2199.47 117.869V227h-22.2V117.869h22.2zm30.38 66.138V227h-21.17v-77.344h20.88v20.142h-3.66c4.9-13.696 13.69-21.753 27.75-21.753 16.41 0 27.18 10.986 27.18 30.542V227h-21.17v-44.531c0-10.474-5.27-16.04-14.43-16.04-9.01 0-15.38 5.42-15.38 17.578zm103.7-34.351v16.773h-50.46v-16.773h50.46zm-37.06-21.094h21.24v74.781c0 5.273 1.68 6.958 7.54 6.958h8.28V227h-12.45c-16.85 0-24.61-6.372-24.61-20.361v-78.077zm75.21 100.196c-23.44 0-38.6-16.846-38.6-40.357 0-23.584 15.67-40.503 37.86-40.503 22.71 0 37.94 16.48 37.94 40.137v5.713h-68.11v-13.696h57.86l-9.59 3.296c0-11.792-6.82-19.19-17.66-19.19s-17.65 7.398-17.65 19.19v9.301c0 12.159 6.74 20.142 18.53 20.142 8.5 0 14.43-3.955 16.41-10.034h19.41c-2.86 15.381-17.73 26.001-36.4 26.001zm63.34-44.751V227h-21.17v-77.344h20.88v20.142h-3.67c4.91-13.696 13.7-21.753 27.76-21.753 16.41 0 27.18 10.986 27.18 30.542V227h-21.17v-44.531c0-10.474-5.27-16.04-14.43-16.04-9.01 0-15.38 5.42-15.38 17.578zm103.7-34.351v16.773h-50.46v-16.773h50.46zm-37.06-21.094h21.24v74.781c0 5.273 1.68 6.958 7.54 6.958h8.28V227h-12.45c-16.85 0-24.61-6.372-24.61-20.361v-78.077zM2543.05 227v-77.344h21.17V227h-21.17zm10.55-87.891c-6.67 0-11.87-5.053-11.87-11.499 0-6.372 5.2-11.499 11.87-11.499 6.66 0 11.86 5.127 11.86 11.499 0 6.446-5.2 11.499-11.86 11.499zm55.06 89.649c-23.36 0-39.18-16.113-39.18-40.357 0-24.17 15.82-40.503 39.18-40.503 23.37 0 39.11 16.333 39.11 40.503 0 24.244-15.74 40.357-39.11 40.357zm0-17.285c10.62 0 17.73-8.57 17.73-23.072 0-14.502-7.11-23.144-17.73-23.144-10.62 0-17.72 8.642-17.72 23.144 0 14.502 7.03 23.072 17.72 23.072zm65.54-27.466V227h-21.16v-77.344h20.87v20.142h-3.66c4.9-13.696 13.69-21.753 27.76-21.753 16.4 0 27.17 10.986 27.17 30.542V227h-21.17v-44.531c0-10.474-5.27-16.04-14.43-16.04-9.01 0-15.38 5.42-15.38 17.578zm83.34 44.311c-15.45 0-26.66-7.69-26.66-23.071 0-17.505 14.06-22.412 30.25-23.95 14.13-1.392 19.04-1.978 19.04-7.031v-.44c0-5.859-4.76-9.888-12.74-9.888-8.21 0-13.55 4.175-14.06 10.181h-20.07c1.02-15.893 13.62-26.074 34.71-26.074 21.1 0 33.18 10.034 33.18 26.514V227h-20.73v-10.84h-.29c-4.1 7.471-10.76 12.158-22.63 12.158zm5.79-14.795c10.54 0 17.06-6.372 17.06-14.794v-7.837c-2.49 1.391-8.71 2.49-15.75 3.588-7.39 1.099-13.4 3.956-13.4 10.181 0 5.567 4.76 8.862 12.09 8.862zM2834.65 227c-17.5 0-24.75-5.933-24.75-20.728v-88.403h21.16v86.279c0 4.908 1.76 6.592 6.67 6.592h3.07V227h-6.15z" fill="#171321"/></svg>