<svg xmlns="http://www.w3.org/2000/svg" viewBox="0 0 2097.6 469.51"><defs><style>.cls-1,.cls-2{fill:none;stroke-miterlimit:10;stroke:#737477}.cls-1{stroke-width:.29px}.cls-2{stroke-width:.93px}.cls-3{fill:#515254;opacity:.1}.cls-4{fill:#171321}.cls-6{fill:#fc6d26}.cls-9{fill:#7a7a7a}</style></defs><g id="Layer_2" data-name="Layer 2"><g id="LOGO"><path class="cls-1" d="M221.08 469.42V.22M.15 469.42V0M55.38 469.3V.18M82.93 469.42V.23M110.74 469.42V.23M193.4 469.42V.18M165.85 469.42V.18M248.51 469.42V.14M276.15 469.22V.25M303.74 469.42V.29M331.42 469.42V.22M386.53 469.42V.25M358.88 469.42V.22M414.21 469.42V.22M441.76 469.42V.18M469.32 469.42V.18M497 469.42V.11M524.68 469.42V.14M552.23 469.42V.18M579.78 469.49V.22M607.46 469.42V.22M635.15 469.42V.25M662.7 469.42V.22M690.25 469.42V.22M717.8 469.42V.25M745.49 469.42V.22M773.04 469.42V.25M800.59 469.42V.14M828.27 469.42V.25M911.06 469.42V.14M883.29 469.42V.22M855.83 469.42V.14M966.29 469.49V.18M1076.63 469.42V.22M.02 469.36h2097.45M.2 414.16h2097.15M.2 386.57h2097.15M.2 358.97h2097.15M.2 303.66h2097.15M.2 276.05h2097.15M.2 248.51h2097.15M.23 220.9H2097.6M2097.35 193.23ZM.2 165.63h2097.15M.2 110.41h2097.15M.2 82.81h2097.15M.2 55.41h2097.15M.2.15h2097.15"/><path class="cls-2" d="M138.3 469.32V.18M27.76 469.42V.09M2097.35 27.59ZM2097.34 441.69ZM2097.35 331.29ZM939.21.04v469.38"/><path class="cls-3" d="M27.76 27.59V441.7H1049V27.59Zm110.58 303.79V137.53h800.87v193.85Z"/><path class="cls-2" d="M2097.35 138Z"/><path class="cls-1" d="M1241.84 469.42V.22M993.35 469.42V.22M1020.9 469.42V.14M1103.69 469.42V.18M1131.5 469.42V.14M1214.15 469.42V.18M1186.6 469.42V.11M1269.26 469.42V.25M1296.9 469.21V.14M1324.49 469.42V.18M1352.18 469.42V.18M1407.28 469.42V.22M1379.63 469.42V.18M1434.96 469.42V.14M1462.52 469.42V.11M1490.07 469.42V.22M1517.75 469.42V.22M1545.43 469.42V.14M1572.98 469.42V.25M1600.54 469.49V.22M1628.22 469.42V.14M1655.9 469.42V.25M1683.45 469.42V.18M1711 469.42V.14M1738.56 469.42V.14M1766.24 469.42V.11M1793.79 469.42V.18M1821.34 469.42V.15M1849.03 469.42V.23M1931.81 469.42V.29M1904.04 469.42V.17M1876.58 469.42V.23M1987.05 469.49V.28M2014.6 469.42V.17M2041.84 469.4V.21M2097.39 469.42V.11"/><path class="cls-2" d="M1159.05 469.32V.11M1048.51 469.42V.11M2069.69.21v469.21M1959.97.2v469.22"/><path class="cls-3" d="M1048.58 27.59V441.7h1021.25V27.59Zm110.58 303.79V137.53H1960v193.85Z"/><path d="m1910.88 389.43 4.12 7 4.12-7h3l-5.55 8.59 5.55 8.6h-3L1915 400l-4.12 6.67h-3l5.46-8.6-5.46-8.59ZM1935.86 395.56v-2.42h13.79v2.42Zm0 6.63v-2.42h13.79v2.42Z"/><path class="cls-4" d="M460.14 213.57h26.31c-4.39-28-28.61-47.46-60.13-47.46-37.3 0-65.28 27.42-65.28 73.35 0 45.1 26.72 73.07 66 73.07 35.29 0 60.55-22.69 60.55-59.43V236H429.8v20.18h32.85c-.42 20.32-14 33.2-35.43 33.2-23.87 0-40.22-17.89-40.22-50.18 0-32.08 16.63-49.9 39.67-49.9 17.19-.02 28.88 9.17 33.47 24.27ZM505 310.58h25.19V203.69H505Zm12.66-123.82c8 0 14.55-6.12 14.55-13.64s-6.54-13.71-14.55-13.71-14.61 6.12-14.61 13.71 6.56 13.64 14.63 13.64ZM605.65 203.69h-21.09v-25.61h-25.19v25.61H544.2v19.48h15.17v59.44c-.14 20.11 14.47 30 33.4 29.43a50.62 50.62 0 0 0 14.83-2.5l-4.25-19.7a31.17 31.17 0 0 1-7.37 1c-6.34 0-11.42-2.23-11.42-12.39v-55.28h21.09ZM625.15 310.58h88.59v-21.64H651V168.06h-25.85ZM762 312.74c16.77 0 26.79-7.86 31.39-16.84h.83v14.68h24.22V239c0-28.25-23-36.74-43.43-36.74-22.47 0-39.73 10-45.3 29.5l23.52 3.34c2.51-7.3 9.6-13.57 21.92-13.57 11.7 0 18.1 6 18.1 16.5v.41c0 7.24-7.59 7.59-26.45 9.61-20.74 2.23-40.57 8.42-40.57 32.5-.01 21.06 15.37 32.19 35.77 32.19Zm8.28-18.51c-10.51 0-18-4.8-18-14.06 0-9.67 8.42-13.71 19.69-15.31 6.62-.9 19.84-2.57 23.11-5.22v12.6c-.03 11.9-9.64 21.99-24.81 21.99ZM837 310.58h24.78v-16.84h1.46c4 7.8 12.25 18.72 30.62 18.72 25.2 0 44-20 44-55.19 0-35.63-19.41-55-44.12-55-18.86 0-26.72 11.34-30.55 19.06h-1v-53.3H837Zm24.71-53.44c0-20.74 8.91-34.18 25.12-34.18 16.77 0 25.41 14.27 25.41 34.18s-8.77 34.65-25.41 34.65c-16.06 0-25.11-13.92-25.11-34.65Z"/><path d="m315.11 216.88-.24-.65-24.49-63.88a6.34 6.34 0 0 0-2.52-3 6.47 6.47 0 0 0-3.83-1 6.54 6.54 0 0 0-3.71 1.41 6.4 6.4 0 0 0-2.16 3.29l-16.54 50.6h-66.88L178.2 153a6.4 6.4 0 0 0-2.16-3.29 6.53 6.53 0 0 0-7.55-.41 6.38 6.38 0 0 0-2.51 3l-24.49 63.89-.24.64a45.45 45.45 0 0 0 15.08 52.54l.09.06.21.17 37.3 27.92 18.45 14 11.23 8.48a7.56 7.56 0 0 0 9.14 0l11.25-8.47 18.44-14 37.52-28.09.1-.07a45.48 45.48 0 0 0 15.05-52.49Z" style="fill:#e24329"/><path class="cls-6" d="m315.11 216.88-.24-.65A82.74 82.74 0 0 0 282 231c-.16.11-29.11 22-53.77 40.65l34.24 25.88 37.52-28.09.1-.07a45.48 45.48 0 0 0 15.02-52.49Z"/><path d="m193.93 297.57 18.45 14 11.23 8.43a7.56 7.56 0 0 0 9.14 0l11.25-8.47 18.44-14-34.24-25.88Z" style="fill:#fca121"/><path class="cls-6" d="M174.41 231a82.52 82.52 0 0 0-32.92-14.8l-.24.64a45.45 45.45 0 0 0 15.08 52.54l.09.06.21.17 37.3 27.92 34.25-25.88Z"/><path d="M2002.08 442c16.77 0 26.79-7.86 31.38-16.84h.84v14.68h24.22v-71.57c0-28.25-23-36.74-43.43-36.74-22.48 0-39.74 10-45.31 29.5l23.53 3.34c2.5-7.3 9.6-13.57 21.92-13.57 11.69 0 18.09 6 18.09 16.5v.41c0 7.24-7.58 7.59-26.44 9.61-20.74 2.23-40.58 8.42-40.58 32.5 0 21.02 15.38 32.18 35.78 32.18Zm8.28-18.51c-10.51 0-18-4.8-18-14.06 0-9.67 8.42-13.71 19.7-15.31 6.61-.9 19.83-2.57 23.1-5.22v12.6c-.03 11.87-9.63 21.96-24.8 21.96Z" style="opacity:.25;fill:#7a7a7a"/><path class="cls-9" d="M1260.08 216.29h-20.94a26.32 26.32 0 0 0-3.31-9.15 24.58 24.58 0 0 0-6-6.8 25.34 25.34 0 0 0-8.14-4.23 32.85 32.85 0 0 0-9.83-1.43 29.79 29.79 0 0 0-16.57 4.68A31.06 31.06 0 0 0 1184 213q-4.1 9-4.09 21.91 0 13.15 4.12 22.14a30.53 30.53 0 0 0 11.3 13.54 30.13 30.13 0 0 0 16.48 4.56 32.79 32.79 0 0 0 9.66-1.37 26.31 26.31 0 0 0 8.12-4.05 24.71 24.71 0 0 0 6.1-6.61 25.36 25.36 0 0 0 3.44-9l20.94.12a45.64 45.64 0 0 1-5.07 15.33 45 45 0 0 1-10.16 12.62 46.19 46.19 0 0 1-14.66 8.52 54.43 54.43 0 0 1-18.64 3 52.11 52.11 0 0 1-27-7 48.87 48.87 0 0 1-18.69-20.2q-6.82-13.2-6.82-31.68t6.87-31.71a49.29 49.29 0 0 1 18.78-20.12 51.94 51.94 0 0 1 26.87-7 57 57 0 0 1 17.79 2.68 45.84 45.84 0 0 1 14.66 7.92 42.79 42.79 0 0 1 10.59 12.65 47.7 47.7 0 0 1 5.49 17.04ZM1381.59 234.93q0 18.52-6.92 31.71a49.28 49.28 0 0 1-18.8 20.17 55.31 55.31 0 0 1-53.9 0 49.6 49.6 0 0 1-18.82-20.2q-6.9-13.2-6.9-31.66t6.9-31.71A49.42 49.42 0 0 1 1302 183a55.45 55.45 0 0 1 53.9 0 49.31 49.31 0 0 1 18.8 20.18q6.89 13.22 6.89 31.75Zm-20.88 0q0-13-4.06-22a30.65 30.65 0 0 0-11.22-13.6 31.83 31.83 0 0 0-33 0 30.56 30.56 0 0 0-11.21 13.6q-4.07 9-4.07 22t4.07 22a30.59 30.59 0 0 0 11.21 13.61 31.89 31.89 0 0 0 33 0 30.68 30.68 0 0 0 11.22-13.54q4.06-9 4.06-22.07ZM1401.29 177.62h25.42l34 83.06h1.34l34-83.06h25.42v114.63h-19.87v-78.76h-1.07l-31.68 78.42H1454l-31.68-78.58h-1.07v78.92h-19.93ZM1544.13 292.25V177.62h43q13.2 0 22.19 4.92a33.12 33.12 0 0 1 13.6 13.52 43.53 43.53 0 0 1 0 39.09 33 33 0 0 1-13.71 13.46q-9.06 4.9-22.33 4.9h-28.49v-17.07h25.69q7.73 0 12.65-2.69a17 17 0 0 0 7.3-7.38 23.58 23.58 0 0 0 2.38-10.8 23.2 23.2 0 0 0-2.38-10.75 16.63 16.63 0 0 0-7.33-7.25q-5-2.61-12.73-2.6h-19v97.28ZM1647.57 292.25h-22.16l40.35-114.63h25.64l40.41 114.63h-22.17L1679 201.12h-.88Zm.73-44.95h60.46V264h-60.46ZM1841.12 177.62v114.63h-18.47l-54-78.09h-1v78.09h-20.77V177.62h18.59l54 78.13h1v-78.13ZM1855.86 177.62h23.45l28 50.7h1.11l28.06-50.7H1960l-41.71 71.86v42.77h-20.71v-42.77Z"/><path style="stroke:#74717a;stroke-linecap:round;stroke-width:3.23px;fill:none;stroke-miterlimit:10" d="M1049.01 148.3v173.26"/></g></g></svg>