<svg xmlns="http://www.w3.org/2000/svg" viewBox="0 0 1436.21 1302.78"><defs><clipPath id="clip-path" transform="translate(142.44 383.47)"><path style="fill:none" d="M0 0h1149.91v526.24H0z"/></clipPath><style>.cls-4,.cls-5,.cls-6{fill:none}.cls-4,.cls-6{stroke:#737477}.cls-4,.cls-5,.cls-6{stroke-miterlimit:10}.cls-4,.cls-5{stroke-width:.29px}.cls-5{stroke:#fca121}.cls-6{stroke-width:.93px}.cls-10{fill:#7a7a7a}.cls-11{fill:#666}</style></defs><g style="isolation:isolate"><g id="Layer_2" data-name="Layer 2"><g id="DO_NOT_EXPORT" data-name="DO NOT EXPORT"><g style="clip-path:url(#clip-path)"><path class="cls-4" d="M406.35 1294.78V7.99M3 7.22h1432.28"/><path class="cls-5" d="M26.87 1302.78V15.99M50.74 1302.78V15.99M71.61 1302.78V15.99M95.49 1294.78V7.99M119.36 1294.78V7.99"/><path class="cls-4" d="M142.44 1294.78V7.99M157.86 1294.78V7.99M185.42 1294.78V7.99M240.65 1289.89V3.1M268.2 1294.78V7.99M296.01 1294.78V7.99M378.67 1294.78V7.99M351.12 1294.78V7.99M433.78 1294.78V7.99M461.41 1286.79V0M489.01 1294.78V7.99M516.69 1294.78V7.99M571.8 1294.78V7.99M544.15 1294.78V7.99M599.48 1294.78V7.99M627.03 1294.78V7.99M654.58 1294.78V7.99M682.27 1294.78V7.99M709.95 1294.78V7.99M737.5 1294.78V7.99M765.05 1294.85V8.06M792.73 1294.78V7.99M820.42 1294.78V7.99M847.97 1294.78V7.99M875.52 1294.78V7.99M903.07 1294.78V7.99M930.76 1294.78V7.99M958.31 1294.78V7.99M985.86 1294.78V7.99M1013.54 1294.78V7.99M1096.33 1294.78V7.99M1068.56 1294.78V7.99M1041.1 1294.78V7.99M1151.56 1294.85V8.06M1179.12 1294.78V7.99M1206.36 1293.64V6.85M1261.9 1294.78V7.99M1289.46 1294.78V7.99"/><path class="cls-5" d="M1295 1294.78V7.99M1312.92 1294.78V7.99M1336.79 1294.78V7.99M1360.66 1294.78V7.99M1384.53 1294.78V7.99M1408.41 1294.78V7.99"/><path class="cls-4" d="M0 1046.92h1432.28M0 1074.44h1432.28M0 1102.11h1432.28M0 1129.71h1432.28M0 1157.31h1432.28M0 1184.98h1432.28M0 1212.58h1432.28M0 1240.18h1432.28M0 1267.78h1432.28M0 1295.37h1432.28M0 1019.17h1432.28M0 991.65h1432.28M0 963.98h1432.28M0 936.38h1432.28M3 908.78h1432.28M1.81 881.18h1432.28M3 825.99h1432.28M3 798.39h1432.28M3 770.79h1432.28M3 715.48h1432.28M3 687.88h1432.28M3 660.33h1432.28M3.25 632.73h1432.28"/><path class="cls-4" d="M1292.84 221.59Z" transform="translate(142.44 383.47)"/><path class="cls-4" d="M3 577.45h1432.28M3 522.24h1432.28M3 494.63h1432.28M3 467.24h1432.28M3 411.81h1432.28M3 384.2h1432.28M3 356.6h1432.28M3 328.93h1432.28M3 301.38h1432.28M3 246.17h1432.28M3 273.78h1432.28M3 218.57h1432.28M3 190.9h1432.28M3 163.35h1432.28M3 108.08h1432.28M3 135.68h1432.28M3 80.47h1432.28M3 52.86h1432.28M3 25.26h1432.28"/><path class="cls-6" d="M323.56 1294.68V7.89M213.03 1294.78V7.99"/><path class="cls-6" d="M1292.84 55.94ZM1293.77 470ZM1292.84 359.64Z" transform="translate(142.44 383.47)"/><path class="cls-6" d="M1234.21 11.04v1283.74M1124.48 11.04v1283.74"/><path d="M70.59 55.94v414.12h1021.25V55.94Zm110.58 303.8V165.88H982v193.86Z" transform="translate(142.44 383.47)" style="fill:#515254;opacity:.1"/><path class="cls-6" d="M1292.84 166.37Z" transform="translate(142.44 383.47)"/><path style="stroke-miterlimit:10;stroke:#737477;fill:none" d="M96.7 263.54h23.87v23.87H96.7z"/><path class="cls-4" d="M96.7 1027.42h23.87v23.87H96.7z"/></g><path d="m934.51 446.78 4.12 7 4.12-7h3l-5.55 8.59 5.55 8.6h-3l-4.12-6.67-4.12 6.7h-3l5.47-8.6-5.47-8.59ZM959.49 452.91v-2.42h13.79v2.42Zm0 6.63v-2.42h13.79v2.42Z" transform="translate(142.44 383.47)"/></g><g id="LOGO"><g style="mix-blend-mode:multiply"><path class="cls-10" d="m357.91 244.73-.25-.65-24.48-63.88a6.28 6.28 0 0 0-2.52-3 6.42 6.42 0 0 0-3.84-1 6.44 6.44 0 0 0-5.87 4.7l-16.53 50.6h-66.89L221 180.86a6.47 6.47 0 0 0-9.71-3.69 6.31 6.31 0 0 0-2.51 3l-24.49 63.89-.25.64a45.47 45.47 0 0 0 15.09 52.54l.08.06.22.17 37.3 27.92 18.45 14 11.22 8.49a7.58 7.58 0 0 0 9.15 0l11.23-8.49 18.44-14 37.52-28.09.1-.07a45.48 45.48 0 0 0 15.07-52.5Z" transform="translate(142.44 383.47)"/><path class="cls-11" d="m357.91 244.73-.25-.65a82.8 82.8 0 0 0-32.92 14.81L271 299.54l34.24 25.88 37.52-28.09.1-.07a45.48 45.48 0 0 0 15.05-52.53Z" transform="translate(142.44 383.47)"/><path class="cls-10" d="m236.73 325.42 18.45 14 11.22 8.49a7.58 7.58 0 0 0 9.15 0l11.23-8.49 18.44-14L271 299.54Z" transform="translate(142.44 383.47)"/><path class="cls-11" d="M217.2 258.89a82.48 82.48 0 0 0-32.91-14.8l-.25.64a45.47 45.47 0 0 0 15.09 52.54l.08.06.22.17 37.3 27.92L271 299.54c-24.68-18.64-53.64-40.54-53.8-40.65Z" transform="translate(142.44 383.47)"/><path class="cls-10" d="M502.94 241.42h26.3c-4.38-28-28.6-47.46-60.13-47.46-37.3 0-65.27 27.42-65.27 73.35 0 45.1 26.72 73.07 66 73.07 35.28 0 60.55-22.68 60.55-59.43v-17.12h-57.8V284h32.85c-.42 20.32-14 33.2-35.42 33.2-23.87 0-40.23-17.89-40.23-50.18 0-32.08 16.64-49.9 39.67-49.9 17.19.01 28.88 9.2 33.48 24.3ZM547.81 338.44H573v-106.9h-25.2Zm12.67-123.83c8 0 14.54-6.12 14.54-13.64s-6.54-13.71-14.54-13.71-14.62 6.12-14.62 13.71 6.55 13.64 14.62 13.64ZM648.45 231.54h-21.09v-25.61h-25.19v25.61H587V251h15.18v59.44c-.14 20.11 14.47 30 33.4 29.44a50.38 50.38 0 0 0 14.82-2.51l-4.24-19.69a31.84 31.84 0 0 1-7.38 1c-6.33 0-11.41-2.23-11.41-12.39V251h21.09ZM667.94 338.44h88.6v-21.65h-62.78V195.91h-25.82ZM804.79 340.59c16.77 0 26.79-7.86 31.38-16.84h.83v14.69h24.22v-71.55c0-28.25-23-36.74-43.43-36.74-22.48 0-39.74 10-45.31 29.5L796 263c2.5-7.31 9.6-13.58 21.92-13.58 11.69 0 18.09 6 18.09 16.5v.42c0 7.23-7.58 7.58-26.44 9.6-20.74 2.23-40.57 8.42-40.57 32.5 0 21.02 15.4 32.15 35.79 32.15Zm8.28-18.51c-10.51 0-18-4.8-18-14.06 0-9.67 8.43-13.71 19.7-15.31 6.61-.9 19.83-2.57 23.11-5.22v12.6c-.03 11.91-9.64 21.99-24.81 21.99ZM879.81 338.44h24.78v-16.85h1.46c4 7.8 12.25 18.72 30.62 18.72 25.19 0 44.05-20 44.05-55.18 0-35.64-19.41-55-44.12-55-18.86 0-26.72 11.34-30.55 19.07h-1v-53.29h-25.24ZM904.52 285c0-20.74 8.91-34.17 25.12-34.17 16.77 0 25.4 14.26 25.4 34.17s-8.77 34.65-25.4 34.65c-16.08-.01-25.12-13.92-25.12-34.65Z" transform="translate(142.44 383.47)"/></g><path d="M1025.7 470.11c16.77 0 26.8-7.86 31.39-16.84h.83V468h24.22v-71.59c0-28.25-23-36.74-43.42-36.74-22.48 0-39.74 10-45.31 29.5l23.52 3.35c2.51-7.31 9.61-13.58 21.92-13.58 11.7 0 18.1 6 18.1 16.5v.42c0 7.23-7.59 7.58-26.45 9.6-20.74 2.23-40.57 8.42-40.57 32.5 0 21.04 15.38 32.15 35.77 32.15Zm8.3-18.51c-10.5 0-18-4.8-18-14.06 0-9.67 8.42-13.71 19.7-15.31 6.61-.9 19.83-2.57 23.1-5.22v12.6c-.04 11.9-9.64 21.99-24.8 21.99Z" transform="translate(142.44 383.47)" style="opacity:.25;fill:#7a7a7a"/></g></g></g></svg>