<svg xmlns="http://www.w3.org/2000/svg" viewBox="0 0 2040.6 189.84"><defs><style>.cls-1{fill:#171321;}.cls-2{fill:#e24329;}.cls-3{fill:#fc6d26;}.cls-4{fill:#fca326;}.cls-5{fill:#a2a1a6;}</style></defs><g id="Layer_2" data-name="Layer 2"><g id="Layer_1-2" data-name="Layer 1"><path class="cls-1" d="M368.91,116.55h5.63c-.94-6-6.12-10.15-12.86-10.15-8,0-14,5.87-14,15.69,0,9.64,5.72,15.62,14.13,15.62,7.54,0,12.94-4.85,12.94-12.71v-3.66H362.43v4.32h7c-.09,4.34-3,7.1-7.57,7.1-5.11,0-8.61-3.83-8.61-10.73s3.56-10.67,8.49-10.67A7,7,0,0,1,368.91,116.55Zm12.31-5.76a2.93,2.93,0,1,0-3.14-2.92,3,3,0,0,0,3.07,2.92Zm-2.71,26.48h5.39V114.41h-5.39Zm21.57-22.86h-4.56v-5.48h-5.39v5.48h-3.24v4.14h3.24v12.7c0,4.31,3.1,6.42,7.15,6.3a10.7,10.7,0,0,0,3.17-.54l-.91-4.21A7.06,7.06,0,0,1,398,133c-1.35,0-2.44-.48-2.44-2.65V118.55h4.56Zm4.12,22.86h18.94v-4.63H409.72V106.79H404.2Zm31-3.5c-2.25,0-3.85-1-3.85-3s1.8-2.93,4.21-3.27c1.41-.19,4.24-.55,4.94-1.12v2.7C440.53,131.61,438.47,133.77,435.23,133.77Zm-1.77,4c3.59,0,5.73-1.68,6.71-3.6h.18v3.14h5.18V122c0-6-4.93-7.86-9.29-7.86-4.81,0-8.5,2.14-9.69,6.31l5,.71c.54-1.56,2.06-2.9,4.69-2.9s3.87,1.28,3.87,3.53v.09c0,1.55-1.62,1.62-5.66,2-4.43.48-8.67,1.8-8.67,6.95,0,4.46,3.3,6.84,7.68,6.84Zm21.33-11.93c0-4.44,1.9-7.31,5.37-7.31s5.43,3,5.43,7.31-1.88,7.41-5.43,7.41S454.79,130.27,454.79,125.84Zm-5.29,11.43h5.3v-3.6h.28a6.92,6.92,0,0,0,6.55,4c5.39,0,9.42-4.27,9.42-11.8s-4.15-11.76-9.43-11.76a6.78,6.78,0,0,0-6.54,4.08h-.22v-11.4h-5.39Z"/><path class="cls-2" d="M337.9,117.23v-.14l-5.24-13.66a1.31,1.31,0,0,0-.53-.65,1.4,1.4,0,0,0-1.24-.13,1.47,1.47,0,0,0-.53.36,1.35,1.35,0,0,0-.31.56l-3.54,10.82H312.16l-3.53-10.84a1.31,1.31,0,0,0-.47-.7,1.29,1.29,0,0,0-.79-.3,1.37,1.37,0,0,0-1.36.86l-5.23,13.68-.06.14A9.73,9.73,0,0,0,304,128.46l8,6,3.94,3,2.41,1.81a1.61,1.61,0,0,0,1.95,0l2.4-1.81,4-3,8-6a9.71,9.71,0,0,0,3.22-11.23Z"/><path class="cls-3" d="M337.9,117.23v-.14a17.6,17.6,0,0,0-7,3.17L319.4,129l7.33,5.53,8-6A9.71,9.71,0,0,0,338,117.25Z"/><path class="cls-4" d="M312,134.48l3.94,3,2.4,1.81a1.64,1.64,0,0,0,1,.33,1.58,1.58,0,0,0,1-.33l2.4-1.81,3.95-3L319.35,129Z"/><path class="cls-3" d="M307.81,120.26a17.66,17.66,0,0,0-7-3.17l-.06.14A9.71,9.71,0,0,0,304,128.46l8,6,7.32-5.53C314.08,125,307.85,120.28,307.81,120.26Z"/><path class="cls-5" d="M300.11,189.34h171v.5h-171Z"/><path class="cls-1" d="M312.9,178.61l10-14.55h1.66l-10,14.55Zm.91-11.82v.82a2.24,2.24,0,0,0,.31,1.18,1.15,1.15,0,0,0,1.08.52,1.11,1.11,0,0,0,1.05-.52,2.24,2.24,0,0,0,.31-1.18v-.77a2.44,2.44,0,0,0-.3-1.18,1.12,1.12,0,0,0-1.06-.53,1.17,1.17,0,0,0-1.07.53,2.22,2.22,0,0,0-.35,1.15Zm-1.45.77v-.77a3.52,3.52,0,0,1,.32-1.46,2.75,2.75,0,0,1,1-1.06,3.12,3.12,0,0,1,3.1,0,2.67,2.67,0,0,1,.94,1.06,3.49,3.49,0,0,1,.32,1.46v.82a3.22,3.22,0,0,1-.33,1.46,2.55,2.55,0,0,1-1,1.06,2.74,2.74,0,0,1-1.53.4,2.84,2.84,0,0,1-1.56-.4,2.55,2.55,0,0,1-1-1.06,3.5,3.5,0,0,1-.29-1.46Zm8.69,7.55v.77a2.25,2.25,0,0,0,.31,1.19,1.16,1.16,0,0,0,1.08.51,1.12,1.12,0,0,0,1-.51,2.36,2.36,0,0,0,.32-1.19v-.77a2.44,2.44,0,0,0-.3-1.18,1.15,1.15,0,0,0-1.07-.52,1.19,1.19,0,0,0-1.07.52,2.28,2.28,0,0,0-.3,1.2Zm-1.45.77v-.77a3.05,3.05,0,0,1,.33-1.45,2.58,2.58,0,0,1,1-1.07,2.9,2.9,0,0,1,1.55-.4,2.83,2.83,0,0,1,1.55.4,2.56,2.56,0,0,1,.94,1.07,3.17,3.17,0,0,1,.32,1.45v.77a3.24,3.24,0,0,1-.32,1.46,2.64,2.64,0,0,1-1,1.07,3.18,3.18,0,0,1-3.09,0,2.58,2.58,0,0,1-1-1.07,3.25,3.25,0,0,1-.31-1.44Zm-15,2.93a5,5,0,0,1-2.25-.5,4.21,4.21,0,0,1-1.6-1.36,3.67,3.67,0,0,1-.66-2h1.7a2.31,2.31,0,0,0,.9,1.63,3.1,3.1,0,0,0,4.34-.52,3.44,3.44,0,0,0,.27-3.77,3,3,0,0,0-1.14-1.19,3.26,3.26,0,0,0-1.6-.49,5.22,5.22,0,0,0-1.37.21,3.71,3.71,0,0,0-1.16.53l-1.65-.2.88-7.16h7.56v1.62h-6.26l-.51,4.29h.09a4.29,4.29,0,0,1,1.12-.59,4.64,4.64,0,0,1,3.78.41,4.57,4.57,0,0,1,1.65,1.73,5.23,5.23,0,0,1,.6,2.52,4.89,4.89,0,0,1-.62,2.48,4.53,4.53,0,0,1-1.7,1.72,4.8,4.8,0,0,1-2.48.66Z"/><path class="cls-1" d="M654.2,104.87h8.46c-1.41-9-9.19-15.25-19.33-15.25-12,0-21,8.81-21,23.57,0,14.49,8.59,23.48,21.23,23.48,11.34,0,19.46-7.29,19.46-19.1v-5.5H644.45v6.49H655c-.14,6.53-4.5,10.67-11.39,10.67-7.67,0-12.87-5.76-12.87-16.14s5.34-16,12.74-16C649,97.05,652.75,100,654.2,104.87Zm18.55-8.62a4.4,4.4,0,1,0-4.7-4.39A4.55,4.55,0,0,0,672.75,96.25ZM668.67,136h8.08V101.68h-8.1ZM701,101.68h-6.78V93.45h-8.1v8.23h-4.87V108h4.87v19.1c0,6.46,4.66,9.64,10.74,9.46a16.06,16.06,0,0,0,4.76-.81l-1.36-6.33a10,10,0,0,1-2.37.32c-2,0-3.67-.72-3.67-4V108H701ZM707.23,136H735.7v-7H715.53V90.23h-8.3Zm46.64-5.26c-3.38,0-5.79-1.54-5.79-4.51s2.7-4.41,6.33-4.93c2.12-.29,6.37-.82,7.42-1.67v4C761.83,127.54,758.75,130.78,753.87,130.78Zm-2.66,6c5.39,0,8.61-2.52,10.09-5.41h.26v4.72h7.79v-23c0-9.08-7.4-11.81-14-11.81-7.22,0-12.77,3.22-14.56,9.48l7.56,1.07c.81-2.34,3.09-4.36,7-4.36,3.75,0,5.81,1.93,5.81,5.3v.1c0,2.32-2.44,2.44-8.5,3.08-6.66.72-13,2.71-13,10.45,0,6.75,4.95,10.33,11.5,10.33Zm32-17.91c0-6.66,2.86-11,8.07-11,5.39,0,8.17,4.59,8.17,11S796.68,130,791.33,130c-5.16,0-8.07-4.48-8.07-11.14Zm-7.94,17.18h8v-5.41h.43a10.38,10.38,0,0,0,9.84,6c8.1,0,14.16-6.42,14.16-17.73s-6.24-17.67-14.18-17.67a10.17,10.17,0,0,0-9.82,6.13h-.33V90.23h-8.1Z"/><path class="cls-2" d="M607.59,105.92l-.08-.2-7.87-20.53a2,2,0,0,0-.8-1,2.25,2.25,0,0,0-.91-.32,2,2,0,0,0-2.18,1.53l-5.32,16.26H568.91L563.59,85.4a2,2,0,0,0-.69-1.06,2.11,2.11,0,0,0-2.43-.13,2,2,0,0,0-.8,1l-7.87,20.51-.08.2a14.6,14.6,0,0,0,4.84,16.89h.07l12,9,5.93,4.48,3.61,2.73a2.45,2.45,0,0,0,2.94,0l3.6-2.73,5.95-4.42,12.09-9A14.59,14.59,0,0,0,607.59,106Z"/><path class="cls-3" d="M607.59,105.92l-.08-.2a26.5,26.5,0,0,0-10.57,4.75l-17.28,13.07,11,8.31,12.09-9A14.59,14.59,0,0,0,607.59,106Z"/><path class="cls-4" d="M568.65,131.87l5.93,4.48,3.61,2.73a2.46,2.46,0,0,0,2.94,0l3.6-2.73,5.93-4.48-11-8.32Z"/><path class="cls-3" d="M562.37,110.47a26.5,26.5,0,0,0-10.57-4.75l-.08.2a14.6,14.6,0,0,0,4.84,16.89h.07l12,9,11-8.32Z"/><path class="cls-5" d="M550.77,189.34h257v.5h-257Z"/><path class="cls-1" d="M573.54,178.61l10-14.55h1.62l-10,14.55Zm.91-11.82v.82a2.24,2.24,0,0,0,.31,1.18,1.15,1.15,0,0,0,1.08.52,1.11,1.11,0,0,0,1-.52,2.24,2.24,0,0,0,.31-1.18v-.77a2.41,2.41,0,0,0-.3-1.23,1.12,1.12,0,0,0-1.06-.53,1.19,1.19,0,0,0-1.08.53,2.21,2.21,0,0,0-.34,1.15Zm-1.45.77v-.77a3.18,3.18,0,0,1,.32-1.46,2.69,2.69,0,0,1,1-1.06,3.12,3.12,0,0,1,3.1,0,2.6,2.6,0,0,1,.94,1.06,3.52,3.52,0,0,1,.32,1.46v.82a3.38,3.38,0,0,1-.33,1.46,2.55,2.55,0,0,1-1,1.06,2.74,2.74,0,0,1-1.53.4,2.84,2.84,0,0,1-1.56-.4,2.62,2.62,0,0,1-1-1.06,3.21,3.21,0,0,1-.29-1.46Zm8.69,7.55v.77a2.25,2.25,0,0,0,.31,1.19,1.17,1.17,0,0,0,1.08.51,1.12,1.12,0,0,0,1-.51,2.36,2.36,0,0,0,.32-1.19v-.77a2.44,2.44,0,0,0-.3-1.18,1.14,1.14,0,0,0-1.07-.52,1.2,1.2,0,0,0-1.07.52,2.28,2.28,0,0,0-.3,1.2Zm-1.45.77v-.77a3.05,3.05,0,0,1,.33-1.45,2.64,2.64,0,0,1,1-1.07,3.2,3.2,0,0,1,3.1,0,2.5,2.5,0,0,1,.94,1.07,3.17,3.17,0,0,1,.32,1.45v.77a3.24,3.24,0,0,1-.32,1.46,2.64,2.64,0,0,1-1,1.07,3.2,3.2,0,0,1-3.09,0,2.52,2.52,0,0,1-1-1.07,3.25,3.25,0,0,1-.31-1.44Zm-15.17,1.36a2.73,2.73,0,0,0,2.47-1.53,9,9,0,0,0,.88-4.38,11.22,11.22,0,0,0-.4-3.21,4.63,4.63,0,0,0-1.15-2,2.6,2.6,0,0,0-1.8-.69,2.73,2.73,0,0,0-2.46,1.55,8.74,8.74,0,0,0-.89,4.38,10.94,10.94,0,0,0,.4,3.22,4.23,4.23,0,0,0,1.14,2,2.54,2.54,0,0,0,1.78.68Zm0,1.57a4.27,4.27,0,0,1-2.73-.88,5.28,5.28,0,0,1-1.73-2.55,13.87,13.87,0,0,1,0-8.07,5.5,5.5,0,0,1,1.73-2.56,4.61,4.61,0,0,1,5.45,0,5.5,5.5,0,0,1,1.73,2.56,11.82,11.82,0,0,1,.61,4,12.32,12.32,0,0,1-.6,4,5.47,5.47,0,0,1-1.73,2.55,4.28,4.28,0,0,1-2.76,1Zm-8.93-14.75v14.55h-1.76v-12.7h-.08l-3.55,2.36v-1.79l3.63-2.42Z"/><path class="cls-1" d="M212.93,167.61l2.62,4.46,2.61-4.46h1.93l-3.52,5.45,3.52,5.46h-1.93l-2.61-4.24-2.62,4.22H211l3.47-5.46L211,167.61Zm-11.34,5.45a6.24,6.24,0,0,0,.36,2.18,3.32,3.32,0,0,0,1.06,1.47,3,3,0,0,0,3.46,0,3.38,3.38,0,0,0,1.07-1.51,5.91,5.91,0,0,0,.36-2.12,5.61,5.61,0,0,0-.36-2.07,3.31,3.31,0,0,0-1-1.47,3.13,3.13,0,0,0-3.49,0,3,3,0,0,0-1,1.44,5.69,5.69,0,0,0-.43,2.08Zm-1.66,9.55v-15h1.62v1.73h.2l.51-.72a2.88,2.88,0,0,1,1-.8,3.31,3.31,0,0,1,1.67-.32,4.45,4.45,0,0,1,2.43.69,4.51,4.51,0,0,1,1.64,2,6.88,6.88,0,0,1,.59,3,7.21,7.21,0,0,1-.59,3,4.71,4.71,0,0,1-1.64,2,4.3,4.3,0,0,1-2.41.68,3.47,3.47,0,0,1-1.68-.34,3,3,0,0,1-1-.81c-.23-.3-.4-.55-.53-.75h-.14v5.77Zm-13.4-5.46a2.74,2.74,0,0,0,2.47-1.54,9,9,0,0,0,.88-4.38,11.18,11.18,0,0,0-.41-3.21,4.42,4.42,0,0,0-1.15-2,2.53,2.53,0,0,0-1.79-.69,2.74,2.74,0,0,0-2.47,1.55,9,9,0,0,0-.89,4.38,11.65,11.65,0,0,0,.4,3.22,4.46,4.46,0,0,0,1.14,2,2.61,2.61,0,0,0,1.81.66Zm0,1.57a4.3,4.3,0,0,1-2.74-.88,5.33,5.33,0,0,1-1.72-2.55,13.87,13.87,0,0,1,0-8.07,5.45,5.45,0,0,1,1.73-2.61,4.64,4.64,0,0,1,5.45,0,5.5,5.5,0,0,1,1.73,2.56,11.81,11.81,0,0,1,.6,4,12.05,12.05,0,0,1-.59,4,5.47,5.47,0,0,1-1.73,2.55,4.25,4.25,0,0,1-2.74.95Zm-16.86-.2v-1.31l4.8-5.26c.57-.61,1-1.15,1.4-1.6a5.92,5.92,0,0,0,.8-1.29,3.13,3.13,0,0,0,.27-1.28,2.4,2.4,0,0,0-.36-1.33,2.63,2.63,0,0,0-1-.87,3.18,3.18,0,0,0-1.42-.3,2.77,2.77,0,0,0-1.46.35,2.3,2.3,0,0,0-1,1,3.05,3.05,0,0,0-.33,1.45h-1.68a4.2,4.2,0,0,1,.59-2.24,4.15,4.15,0,0,1,1.6-1.51,5,5,0,0,1,2.3-.54,4.68,4.68,0,0,1,2.26.54,4,4,0,0,1,1.55,1.46,3.8,3.8,0,0,1,.56,2,4.41,4.41,0,0,1-.29,1.57,6.85,6.85,0,0,1-1,1.69,25.49,25.49,0,0,1-2,2.28L172,176.82v.12h6.76v1.53Zm-21.08-.91-1.1-1.08L152,172H140.32V170.5H152L147.49,166l1.1-1.09,6.36,6.36Zm-27.54,1.13a5.09,5.09,0,0,1-2.72-.69,4.65,4.65,0,0,1-1.75-2,6.63,6.63,0,0,1-.61-2.94,6.75,6.75,0,0,1,.61-3,4.83,4.83,0,0,1,1.72-2,4.62,4.62,0,0,1,2.58-.72,5.06,5.06,0,0,1,1.68.28,4.31,4.31,0,0,1,1.52.92,4.54,4.54,0,0,1,1.08,1.68,7.21,7.21,0,0,1,.41,2.57v.71h-8.41V172.1h6.7a3.62,3.62,0,0,0-.37-1.65,2.76,2.76,0,0,0-1-1.14,2.93,2.93,0,0,0-1.58-.42,3,3,0,0,0-1.73.5,3.3,3.3,0,0,0-1.12,1.28,3.81,3.81,0,0,0-.39,1.69v1a4.63,4.63,0,0,0,.43,2.1,3.07,3.07,0,0,0,1.2,1.3,3.56,3.56,0,0,0,1.78.44,3.45,3.45,0,0,0,1.19-.19,2.32,2.32,0,0,0,1.54-1.56l1.62.46a3.64,3.64,0,0,1-.86,1.45,4.17,4.17,0,0,1-1.49,1,5.51,5.51,0,0,1-2,.38Zm-15.4-.24v-1.28l6.19-8v-.11h-6v-1.56H114v1.33l-6,7.9v.12h6.22v1.6Zm-3.58-12.73a1.17,1.17,0,0,1-.85-.33,1.11,1.11,0,0,1-.06-1.56l.06,0a1.17,1.17,0,0,1,.85-.33,1.12,1.12,0,0,1,.83.33,1.05,1.05,0,0,1,.36.8,1.09,1.09,0,0,1-.36.81,1.18,1.18,0,0,1-.83.35Zm-.86,12.73V167.61h1.72V178.5ZM98.49,170l-1.5.43a3,3,0,0,0-.42-.73,2,2,0,0,0-.74-.6,2.62,2.62,0,0,0-1.2-.23,2.91,2.91,0,0,0-1.67.46,1.33,1.33,0,0,0-.66,1.15,1.2,1.2,0,0,0,.45,1,4.08,4.08,0,0,0,1.42.61l1.62.39a4.41,4.41,0,0,1,2.21,1.1,2.51,2.51,0,0,1,.72,1.87,2.71,2.71,0,0,1-.54,1.67,3.56,3.56,0,0,1-1.49,1.17,5.7,5.7,0,0,1-2.23.42A4.89,4.89,0,0,1,91.7,178a3.28,3.28,0,0,1-1.39-2.12l1.59-.39a2.23,2.23,0,0,0,.86,1.32,2.89,2.89,0,0,0,1.67.44,3.13,3.13,0,0,0,1.86-.5,1.46,1.46,0,0,0,.7-1.21,1.25,1.25,0,0,0-.4-.95,2.56,2.56,0,0,0-1.22-.58l-1.85-.42a4.19,4.19,0,0,1-2.2-1.1,2.67,2.67,0,0,1-.7-1.88,2.71,2.71,0,0,1,.52-1.63,3.5,3.5,0,0,1,1.43-1.12,5,5,0,0,1,2.06-.4,4,4,0,0,1,2.54.71,3.86,3.86,0,0,1,1.32,1.88ZM67.76,178.5V167.61h1.62v1.7h.14a2.76,2.76,0,0,1,1.1-1.35,3.26,3.26,0,0,1,1.82-.49,3,3,0,0,1,2.93,1.84h.11A3.19,3.19,0,0,1,76.74,168a3.79,3.79,0,0,1,2-.5,3.22,3.22,0,0,1,2.39.91,3.78,3.78,0,0,1,.94,2.84v7.28H80.39v-7.3a2.08,2.08,0,0,0-.66-1.73,2.45,2.45,0,0,0-1.56-.52,2.28,2.28,0,0,0-1.78.7,2.5,2.5,0,0,0-.63,1.75v7.1H74.05V171a2,2,0,0,0-.6-1.5,2.18,2.18,0,0,0-1.56-.58,2.3,2.3,0,0,0-1.22.35,2.65,2.65,0,0,0-.91,1,2.88,2.88,0,0,0-.34,1.41v6.79ZM63,174v-6.4h1.68v10.91H63v-1.91h-.08a3.56,3.56,0,0,1-1.2,1.41,3.39,3.39,0,0,1-2,.58,3.61,3.61,0,0,1-1.82-.45,3.16,3.16,0,0,1-1.25-1.36,5.27,5.27,0,0,1-.45-2.31v-6.87h1.67v6.82a2.6,2.6,0,0,0,.67,1.9,2.28,2.28,0,0,0,1.72.71,3,3,0,0,0,1.27-.32,2.63,2.63,0,0,0,1.09-1,3,3,0,0,0,.38-1.64Zm-24.26,4.46V167.61h1.62v1.7h.14A2.68,2.68,0,0,1,41.61,168a3.24,3.24,0,0,1,1.82-.49,3,3,0,0,1,2.93,1.84h.11A3.19,3.19,0,0,1,47.73,168a3.79,3.79,0,0,1,2-.5,3.3,3.3,0,0,1,2.39.91,3.83,3.83,0,0,1,.93,2.84v7.28H51.39v-7.3a2.09,2.09,0,0,0-.67-1.73,2.42,2.42,0,0,0-1.55-.52,2.28,2.28,0,0,0-1.78.7,2.51,2.51,0,0,0-.64,1.75v7.1h-1.7V171a2,2,0,0,0-.6-1.5,2.18,2.18,0,0,0-1.56-.58,2.3,2.3,0,0,0-1.22.35,2.58,2.58,0,0,0-.91,1,2.78,2.78,0,0,0-.34,1.41v6.79Zm-3.89-12.73a1.17,1.17,0,0,1-.85-.33,1.07,1.07,0,0,1-.34-.81,1.1,1.1,0,0,1,.34-.8,1.17,1.17,0,0,1,.85-.33,1.15,1.15,0,0,1,.84.33,1.1,1.1,0,0,1,.06,1.55l-.06.06a1.15,1.15,0,0,1-.84.35ZM34,178.47V167.61h1.67V178.5Zm-10-6.56v6.56H22.34V167.61h1.59v1.7h.14A3,3,0,0,1,25.23,168a3.69,3.69,0,0,1,2-.51,4.1,4.1,0,0,1,1.94.45,3.08,3.08,0,0,1,1.29,1.36,5.08,5.08,0,0,1,.46,2.31v6.91H29.25v-6.8a2.75,2.75,0,0,0-.67-2,2.33,2.33,0,0,0-1.83-.73,3.12,3.12,0,0,0-1.44.35,2.53,2.53,0,0,0-1,1A3.21,3.21,0,0,0,24,172Zm-5.57-6.17a1.25,1.25,0,0,1-.84-.33,1.11,1.11,0,0,1-.06-1.56l.06,0a1.25,1.25,0,0,1,.84-.33,1.15,1.15,0,0,1,.84.33,1.05,1.05,0,0,1,.36.8,1.09,1.09,0,0,1-.36.81,1.18,1.18,0,0,1-.87.35Zm-.88,12.73V167.61h1.68V178.5ZM0,163.92H2.1L7,176h.17l4.94-12.08h2.11v14.55H12.61v-11h-.14l-4.54,11H6.33l-4.54-11H1.64v11H0Z"/><path class="cls-1" d="M1655.78,52.58H1677c-3.53-22.53-23-38.23-48.42-38.23-30,0-52.57,22.09-52.57,59.08,0,36.31,21.52,58.84,53.19,58.84,28.41,0,48.76-18.27,48.76-47.86V70.62h-46.58V86.88h26.45c-.33,16.36-11.26,26.73-28.53,26.73-19.22,0-32.39-14.4-32.39-40.41,0-25.84,13.4-40.18,31.95-40.18C1642.67,33,1652.08,40.41,1655.78,52.58ZM1702.12,31c6.45,0,11.72-4.93,11.72-11s-5.27-11-11.72-11-11.77,4.93-11.77,11S1695.62,31,1702.12,31Zm-10.2,99.71h20.29V44.62h-20.29Zm81-86.09h-17V24h-20.28V44.63h-12.21V60.32h12.22v47.86c-.11,16.2,11.66,24.16,26.9,23.71a40.77,40.77,0,0,0,11.94-2L1771.12,114a25.42,25.42,0,0,1-5.94.79c-5.1,0-9.19-1.8-9.19-10V60.29h17Zm15.7,86.08H1860V113.27h-50.55V15.92h-20.79Zm116.88-13.17c-8.47,0-14.52-3.86-14.52-11.32,0-7.79,6.78-11,15.86-12.33,5.33-.73,16-2.07,18.61-4.2V99.82C1925.49,109.4,1917.76,117.53,1905.55,117.53Zm-6.67,14.91c13.51,0,21.58-6.33,25.27-13.56h.68V130.7h19.5V73.09c0-22.75-18.55-29.59-35-29.59-18.11,0-32,8.07-36.49,23.76l19,2.74c2-5.88,7.74-10.93,17.66-10.93,9.41,0,14.57,4.82,14.57,13.29v.33c0,5.83-6.11,6.11-21.3,7.74-16.7,1.79-32.67,6.78-32.67,26.17,0,16.87,12.39,25.84,28.81,25.84Zm80.3-44.78c0-16.7,7.18-27.52,20.23-27.52,13.51,0,20.46,11.49,20.46,27.52s-7.06,27.91-20.46,27.91C1986.47,115.57,1979.18,104.36,1979.18,87.66Zm-19.89,43h20V117.14h1.17c3.2,6.28,9.86,15.08,24.66,15.08,20.29,0,35.48-16.09,35.48-44.45,0-28.69-15.64-44.27-35.53-44.27-15.19,0-21.52,9.13-24.61,15.35h-.91V15.92h-20.26Z"/><path class="cls-2" d="M1539,55.24l-.2-.52L1519.07,3.27a5.2,5.2,0,0,0-2-2.44,5.33,5.33,0,0,0-2.28-.8,5.19,5.19,0,0,0-4.38,1.67,5,5,0,0,0-1.16,2.11l-13.34,40.74h-53.86L1428.74,3.81A5.29,5.29,0,0,0,1427,1.15,5.3,5.3,0,0,0,1424,0a5.19,5.19,0,0,0-3.09.81,5.09,5.09,0,0,0-2,2.44l-19.73,51.45-.2.52a36.6,36.6,0,0,0,12.15,42.31l.07,0,.18.14,30,22.48,14.86,11.25,9,6.83a6.09,6.09,0,0,0,7.36,0l9-6.83,15-11.25,30.21-22.62.08-.06A36.6,36.6,0,0,0,1539,55.24Z"/><path class="cls-3" d="M1539,55.24l-.2-.52a66.48,66.48,0,0,0-26.51,11.92L1469,99.38l27.57,20.84,30.21-22.62.08-.06A36.6,36.6,0,0,0,1539,55.24Z"/><path class="cls-4" d="M1441.4,120.22l14.86,11.25,9,6.83a6.11,6.11,0,0,0,7.37,0l9-6.83,14.92-11.25L1469,99.39Z"/><path class="cls-3" d="M1425.68,66.64a66.61,66.61,0,0,0-26.51-11.92l-.2.52a36.57,36.57,0,0,0,12.15,42.31.13.13,0,0,0,.07,0l.17.14,30,22.48,27.58-20.83Z"/><polygon class="cls-1" points="1421.86 178.57 1431.86 164.02 1433.48 164.02 1423.48 178.57 1421.86 178.57"/><path class="cls-1" d="M1426.68,165.29a2.54,2.54,0,0,0-.94-1.06,3.12,3.12,0,0,0-3.1,0,2.75,2.75,0,0,0-1,1.06,3.18,3.18,0,0,0-.32,1.46v.82a3.21,3.21,0,0,0,.29,1.46,2.75,2.75,0,0,0,1,1.06,2.84,2.84,0,0,0,1.56.4,2.74,2.74,0,0,0,1.53-.4,2.55,2.55,0,0,0,1-1.06,3.22,3.22,0,0,0,.33-1.46v-.82A3.21,3.21,0,0,0,1426.68,165.29Zm-1.16,2.32a2.24,2.24,0,0,1-.31,1.18,1.11,1.11,0,0,1-1,.52,1.15,1.15,0,0,1-1.08-.52,2.35,2.35,0,0,1-.32-1.18v-.82h0a2.22,2.22,0,0,1,.35-1.15,1.19,1.19,0,0,1,1.08-.53,1.1,1.1,0,0,1,1.06.53,2.23,2.23,0,0,1,.3,1.18Z"/><path class="cls-1" d="M1433.93,173.61a2.5,2.5,0,0,0-.94-1.07,2.83,2.83,0,0,0-1.55-.4,2.92,2.92,0,0,0-1.55.4,2.71,2.71,0,0,0-1,1.07,3.31,3.31,0,0,0-.33,1.45v.77h0a3.25,3.25,0,0,0,.31,1.44,2.52,2.52,0,0,0,1,1.07,2.83,2.83,0,0,0,1.55.4,2.78,2.78,0,0,0,1.54-.4,2.52,2.52,0,0,0,1-1.07,3.24,3.24,0,0,0,.32-1.46V175A3.08,3.08,0,0,0,1433.93,173.61Zm-1.22,2.22a2.25,2.25,0,0,1-.31,1.19,1.12,1.12,0,0,1-1,.51,1.18,1.18,0,0,1-1.08-.51,2.25,2.25,0,0,1-.31-1.19v-.77h0a2.28,2.28,0,0,1,.3-1.2,1.2,1.2,0,0,1,1.07-.52,1.14,1.14,0,0,1,1.07.52,2.32,2.32,0,0,1,.29,1.18Z"/><path class="cls-1" d="M1417.84,167.27a5.26,5.26,0,0,0-1.73-2.56,4.61,4.61,0,0,0-5.45,0,5.5,5.5,0,0,0-1.73,2.56,13.87,13.87,0,0,0,0,8.07,5.47,5.47,0,0,0,1.73,2.55,4.27,4.27,0,0,0,2.73.88h0a4.28,4.28,0,0,0,2.76-1,5.28,5.28,0,0,0,1.73-2.55,11.81,11.81,0,0,0,.6-4A11.56,11.56,0,0,0,1417.84,167.27Zm-2,8.4a2.73,2.73,0,0,1-2.47,1.53h0a2.54,2.54,0,0,1-1.78-.68,4.23,4.23,0,0,1-1.14-2,11.29,11.29,0,0,1-.4-3.22,8.85,8.85,0,0,1,.89-4.38,2.75,2.75,0,0,1,2.46-1.55,2.6,2.6,0,0,1,1.8.69,4.48,4.48,0,0,1,1.15,2,10.88,10.88,0,0,1,.4,3.21,8.82,8.82,0,0,1-.89,4.4Z"/><path class="cls-1" d="M1396.54,178.61v-1.28l4.8-5.26c.56-.61,1-1.15,1.39-1.6a6.66,6.66,0,0,0,.81-1.29,3.13,3.13,0,0,0,.27-1.28,2.24,2.24,0,0,0-.37-1.33,2.63,2.63,0,0,0-1-.87,3.53,3.53,0,0,0-1.43-.3,3,3,0,0,0-1.46.35,2.53,2.53,0,0,0-1,1,3.18,3.18,0,0,0-.33,1.45h-1.66a4.29,4.29,0,0,1,.59-2.24,4.17,4.17,0,0,1,1.61-1.51,4.92,4.92,0,0,1,2.29-.54,4.72,4.72,0,0,1,2.27.54,4,4,0,0,1,1.55,1.46,3.8,3.8,0,0,1,.56,2,4.41,4.41,0,0,1-.29,1.57,6.85,6.85,0,0,1-1,1.69q-.71.93-2,2.28l-3.27,3.49v.12h6.76v1.55Z"/><rect class="cls-5" x="1396.54" y="189.34" width="644.06" height="0.5"/><rect class="cls-5" y="189.34" width="220.09" height="0.5"/><path class="cls-1" d="M910.09,176.61l10-14.55h1.62l-10,14.55Zm.91-11.82v.82a2.15,2.15,0,0,0,.31,1.18,1.15,1.15,0,0,0,1.08.52,1.13,1.13,0,0,0,1-.52,2.24,2.24,0,0,0,.31-1.18v-.77a2.44,2.44,0,0,0-.3-1.18,1.12,1.12,0,0,0-1.06-.53,1.18,1.18,0,0,0-1.08.53,2.33,2.33,0,0,0-.34,1.15Zm-1.45.82v-.77a3.52,3.52,0,0,1,.32-1.46,2.68,2.68,0,0,1,1-1.06,3.12,3.12,0,0,1,3.1,0,2.67,2.67,0,0,1,.94,1.06,3.46,3.46,0,0,1,.32,1.46v.77a3.35,3.35,0,0,1-.33,1.46,2.62,2.62,0,0,1-1,1.06,2.76,2.76,0,0,1-1.53.4,2.84,2.84,0,0,1-1.56-.4,2.61,2.61,0,0,1-1-1.06A3.47,3.47,0,0,1,909.55,165.61Zm8.69,7.55v.77a2.17,2.17,0,0,0,.31,1.19,1.17,1.17,0,0,0,1.08.51,1.12,1.12,0,0,0,1-.51,2.26,2.26,0,0,0,.32-1.19v-.77a2.44,2.44,0,0,0-.3-1.18,1.16,1.16,0,0,0-1.07-.52,1.18,1.18,0,0,0-1.07.52,2.19,2.19,0,0,0-.3,1.2Zm-1.45.77v-.77a3.18,3.18,0,0,1,.33-1.45,2.64,2.64,0,0,1,1-1.07,2.87,2.87,0,0,1,1.55-.4,2.83,2.83,0,0,1,1.55.4,2.56,2.56,0,0,1,.94,1.07,3.3,3.3,0,0,1,.32,1.45v.77a3.24,3.24,0,0,1-.32,1.46,2.52,2.52,0,0,1-1,1.07,3.18,3.18,0,0,1-3.09,0,2.58,2.58,0,0,1-1-1.07,3.12,3.12,0,0,1-.31-1.44Zm-15,2.93a5,5,0,0,1-2.25-.5,4.21,4.21,0,0,1-1.6-1.36,3.52,3.52,0,0,1-.66-2H899a2.27,2.27,0,0,0,.9,1.63,3.2,3.2,0,0,0,3.5.22,2.92,2.92,0,0,0,1.11-1.15,3.69,3.69,0,0,0,0-3.36,3,3,0,0,0-1.14-1.19,3.34,3.34,0,0,0-1.65-.44,5.22,5.22,0,0,0-1.37.21,3.71,3.71,0,0,0-1.16.53l-1.65-.2.88-7.16H906v1.52h-6.17l-.51,4.29h.09a4.13,4.13,0,0,1,1.12-.59,4.64,4.64,0,0,1,3.78.41,4.57,4.57,0,0,1,1.65,1.73,5.23,5.23,0,0,1,.6,2.52,5,5,0,0,1-.62,2.48,4.6,4.6,0,0,1-1.7,1.72,4.83,4.83,0,0,1-2.48.66Zm-8.73-14.75v14.5H891.3v-12.7h-.08l-3.55,2.36v-1.79l3.63-2.42Z"/><rect class="cls-5" x="887.67" y="189.34" width="429" height="0.5"/><path class="cls-1" d="M1060.36,81.61h14.11c-2.35-15-15.34-25.46-32.25-25.46-20,0-35,14.71-35,39.35,0,24.19,14.33,39.2,35.43,39.2,18.93,0,32.48-12.17,32.48-31.89V93.63h-31v10.83h17.54c-.22,10.9-7.5,17.81-19,17.81-12.81,0-21.58-9.6-21.58-26.92s8.95-26.74,21.31-26.74C1051.67,68.61,1057.89,73.54,1060.36,81.61Zm30.87-14.35a7.35,7.35,0,1,0-7.84-7.32A7.59,7.59,0,0,0,1091.23,67.26Zm-6.8,66.42H1098V76.34h-13.52Zm54-57.34h-11.31V62.61h-13.52V76.35h-8.14V86.8h8.14v31.89c-.07,10.78,7.77,16.09,17.92,15.79a27.22,27.22,0,0,0,8-1.35l-2.32-10.52a16.88,16.88,0,0,1-4,.52c-3.4,0-6.12-1.19-6.12-6.65V86.79h11.31Zm10.46,57.34h47.52V122.07h-33.67V57.22h-13.85v76.46Zm77.85-8.77c-5.64,0-9.67-2.58-9.67-7.54,0-5.19,4.52-7.36,10.57-8.22,3.55-.48,10.64-1.38,12.39-2.8v6.76c0,6.38-5.15,11.8-13.29,11.8Zm-4.44,9.93c9,0,14.37-4.22,16.84-9h.44v7.87h13V95.3c0-15.15-12.36-19.71-23.3-19.71-12.06,0-21.32,5.38-24.31,15.83l12.62,1.79c1.35-3.92,5.16-7.28,11.76-7.28,6.28,0,9.71,3.21,9.71,8.85V95c0,3.89-4.07,4.07-14.19,5.16-11.12,1.19-21.77,4.51-21.77,17.43,0,11.28,8.26,17.25,19.2,17.25Zm53.5-29.83c0-11.13,4.78-18.33,13.48-18.33,9,0,13.63,7.65,13.63,18.33s-4.71,18.6-13.63,18.6C1280.67,123.61,1275.79,116.14,1275.79,105Zm-13.25,28.67h13.29v-9h.78c2.13,4.18,6.57,10,16.43,10,13.51,0,23.63-10.71,23.63-29.61,0-19.11-10.42-29.49-23.67-29.49-10.12,0-14.34,6.09-16.39,10.23h-.56V57.21h-13.51Z"/><path class="cls-2" d="M982.56,83.41l-.14-.34L969.29,48.8a3.37,3.37,0,0,0-1.35-1.63,3.43,3.43,0,0,0-4.43.58,3.46,3.46,0,0,0-.78,1.4L953.86,76.3H918l-8.87-27.15a3.47,3.47,0,0,0-4.27-2.42,3.3,3.3,0,0,0-.94.42,3.37,3.37,0,0,0-1.35,1.63L889.42,83.07l-.14.34a24.39,24.39,0,0,0,8.1,28.2l.12.09,20,15,9.89,7.49,6,4.56a4.08,4.08,0,0,0,4.9,0l6-4.56,9.89-7.49,20.24-15.09a24.39,24.39,0,0,0,8.09-28.18Z"/><path class="cls-3" d="M982.56,83.41l-.14-.34A44.13,44.13,0,0,0,964.77,91l-28.85,21.81c9.82,7.43,18.37,13.88,18.37,13.88l20.13-15.09a24.39,24.39,0,0,0,8.09-28.18Z"/><path class="cls-4" d="M917.55,126.7l9.89,7.49,6,4.56a4.08,4.08,0,0,0,4.9,0l6-4.56,9.89-7.49-18.31-13.88Z"/><path class="cls-3" d="M907.07,91a44.19,44.19,0,0,0-17.65-7.94l-.14.34a24.41,24.41,0,0,0,8.09,28.2h0l.12.09,20,15,18.37-13.88Z"/><path class="cls-1" d="M103.62,118.61h1v20h-1Z"/><path class="cls-1" d="M100.62,118.61h7v1h-7Zm0,20h7v1h-7Z"/><path class="cls-1" d="M34.2,126.7H37a6.12,6.12,0,0,0-6.39-5c-4,0-6.94,2.91-6.94,7.79s2.84,7.77,7,7.77c3.75,0,6.44-2.41,6.44-6.32v-1.82H31v2.15h3.49A3.44,3.44,0,0,1,31,134.71H30.7c-2.54,0-4.28-1.9-4.28-5.34s1.77-5.3,4.22-5.3A3.49,3.49,0,0,1,34.2,126.7Zm6.11-2.9a1.45,1.45,0,1,0-1.55-1.45A1.51,1.51,0,0,0,40.31,123.8ZM39,137h2.67V125.6H39ZM49.66,125.6H47.42v-2.72H44.74v2.72H43.13v2.1h1.61V134c0,2.14,1.54,3.19,3.55,3.13a5.29,5.29,0,0,0,1.58-.27l-.45-2.09a3.06,3.06,0,0,1-.79.1c-.67,0-1.21-.23-1.21-1.31V127.7h2.24ZM51.74,137h9.41v-2.3H54.48V121.81H51.74V137Zm15.42-1.73c-1.12,0-1.92-.51-1.92-1.5s.9-1.46,2.1-1.63a7.93,7.93,0,0,0,2.45-.55v1.34a2.43,2.43,0,0,1-2.49,2.35Zm-.88,2a3.5,3.5,0,0,0,3.34-1.79h.09V137h2.57v-7.6c0-3-2.45-3.91-4.62-3.91-2.39,0-4.22,1.07-4.81,3.14l2.5.36a2.24,2.24,0,0,1,2.33-1.45c1.24,0,1.92.64,1.92,1.76,0,.77-.8.81-2.81,1-2.2.24-4.31.9-4.31,3.46,0,2.25,1.63,3.43,3.8,3.43Zm10.6-5.95c0-2.2,1-3.63,2.67-3.63s2.7,1.52,2.7,3.63-.93,3.69-2.7,3.69S76.88,133.49,76.88,131.28ZM74.25,137h2.64v-1.79H77a3.42,3.42,0,0,0,3.26,2c2.68,0,4.68-2.12,4.68-5.86s-2.06-5.85-4.69-5.85a3.38,3.38,0,0,0-3.25,2H77v-5.67H74.25Z"/><path class="cls-2" d="M18.78,127v-.06l-2.6-6.79a.66.66,0,0,0-.57-.43.55.55,0,0,0-.31,0,.68.68,0,0,0-.26.18.61.61,0,0,0-.16.28l-1.75,5.37H6l-1.76-5.37a.7.7,0,0,0-.23-.35.6.6,0,0,0-.4-.15.7.7,0,0,0-.4.1.63.63,0,0,0-.27.33L.32,126.9V127a4.84,4.84,0,0,0,1.6,5.59H2l4,3L8,137l1.19.9a.84.84,0,0,0,1,0l1.19-.9,2-1.49,4-3A4.87,4.87,0,0,0,19,127Z"/><path class="cls-3" d="M18.78,127v-.06a8.63,8.63,0,0,0-3.49,1.57l-5.72,4.32,3.64,2.75,4-3a4.87,4.87,0,0,0,1.6-5.59Z"/><path class="cls-4" d="M5.9,135.58l2,1.48,1.19.91a.84.84,0,0,0,.49.16.87.87,0,0,0,.49-.16l1.19-.91,2-1.48-3.64-2.75Z"/><path class="cls-3" d="M3.82,128.51a8.69,8.69,0,0,0-3.49-1.57V127a4.79,4.79,0,0,0-.13,3.06,4.85,4.85,0,0,0,1.73,2.53H2l4,3,3.64-2.75Z"/></g></g></svg>