<svg xmlns="http://www.w3.org/2000/svg" viewBox="0 0 1200 1200"><defs><style>.cls-1{fill:#171321}.cls-2{fill:#fff}</style></defs><g id="Layer_2" data-name="Layer 2"><g id="DO_NOT_EXPORT" data-name="DO NOT EXPORT"><path class="cls-1" d="M0 600h619.13v600H0zM619.13 0H1200v600H619.13z"/><path class="cls-2" d="m174.07 889.07-.15-.39L159.1 850a3.82 3.82 0 0 0-1.53-1.84 3.91 3.91 0 0 0-4.56.25 3.9 3.9 0 0 0-1.32 2l-10 30.64h-40.5l-10-30.64a3.82 3.82 0 0 0-1.31-2 3.91 3.91 0 0 0-4.56-.25 3.82 3.82 0 0 0-1.55 1.84L69 888.68l-.15.39a27.53 27.53 0 0 0 9.13 31.81l.14.1 22.58 16.91 11.17 8.45 6.8 5.14a4.58 4.58 0 0 0 5.53 0l6.8-5.14 11.17-8.45 22.72-17h.05a27.53 27.53 0 0 0 9.13-31.82ZM262.86 887.07h15.93c-2.65-16.94-17.32-28.74-36.4-28.74-22.59 0-39.53 16.6-39.53 44.41 0 27.31 16.18 44.25 40 44.25 21.36 0 36.66-13.74 36.66-36v-10.35h-35v12.22h19.89c-.25 12.3-8.47 20.1-21.45 20.1-14.45 0-24.35-10.83-24.35-30.39s10.07-30.21 24-30.21c10.39 0 17.47 5.56 20.25 14.71ZM290 945.81h15.25v-64.73H290Zm7.67-75a8.3 8.3 0 1 0-8.85-8.25c.04 4.57 4 8.27 8.89 8.27ZM351 881.08h-12.8v-15.5H323v15.5h-9.19v11.8H323v36c-.09 12.18 8.76 18.16 20.22 17.82a30.78 30.78 0 0 0 9-1.51l-2.57-11.93a19 19 0 0 1-4.47.59c-3.83 0-6.91-1.35-6.91-7.5v-33.47H351ZM362.77 945.81h53.65V932.7h-38v-73.19h-15.65ZM445.63 947.11c10.16 0 16.22-4.76 19-10.19h.51v8.89h14.66v-43.32c0-17.11-13.94-22.25-26.29-22.25-13.61 0-24.06 6.07-27.43 17.87l14.24 2c1.52-4.42 5.82-8.22 13.27-8.22 7.08 0 11 3.63 11 10v.25c0 4.39-4.59 4.6-16 5.82C436 909.32 424 913.07 424 927.65c0 12.72 9.28 19.46 21.63 19.46Zm5-11.2c-6.37 0-10.92-2.91-10.92-8.52 0-5.85 5.1-8.3 11.93-9.27 4-.54 12-1.56 14-3.16v7.63c.01 7.21-5.81 13.32-14.99 13.32ZM491.06 945.81h15v-10.2h.88c2.4 4.72 7.42 11.34 18.54 11.34 15.26 0 26.68-12.1 26.68-33.42 0-21.57-11.76-33.29-26.72-33.29-11.42 0-16.18 6.87-18.5 11.55h-.63v-32.28h-15.25Zm15-32.36c0-12.56 5.39-20.69 15.21-20.69 10.15 0 15.38 8.63 15.38 20.69s-5.31 21-15.38 21c-9.78-.02-15.27-8.45-15.27-21Z"/><path class="cls-1" d="m174.07 289.07-.15-.39L159.1 250a3.82 3.82 0 0 0-1.53-1.84 3.91 3.91 0 0 0-4.56.25 3.9 3.9 0 0 0-1.32 2l-10 30.64h-40.5l-10-30.64a3.82 3.82 0 0 0-1.31-2 3.91 3.91 0 0 0-4.56-.25 3.82 3.82 0 0 0-1.55 1.84L69 288.68l-.15.39a27.53 27.53 0 0 0 9.13 31.81l.14.1 22.58 16.91 11.17 8.45 6.8 5.14a4.58 4.58 0 0 0 5.53 0l6.8-5.14 11.17-8.45 22.72-17h.05a27.53 27.53 0 0 0 9.13-31.82ZM262.86 287.07h15.93c-2.65-16.94-17.32-28.74-36.4-28.74-22.59 0-39.53 16.6-39.53 44.41 0 27.31 16.18 44.25 40 44.25 21.36 0 36.66-13.74 36.66-36v-10.35h-35v12.22h19.89c-.25 12.3-8.47 20.1-21.45 20.1-14.45 0-24.35-10.83-24.35-30.39s10.07-30.21 24-30.21c10.39 0 17.47 5.56 20.25 14.71ZM290 345.81h15.25v-64.73H290Zm7.67-75a8.3 8.3 0 1 0-8.85-8.25c.04 4.57 4 8.27 8.89 8.27ZM351 281.08h-12.8v-15.5H323v15.5h-9.19v11.8H323v36c-.09 12.18 8.76 18.16 20.22 17.82a30.78 30.78 0 0 0 9-1.51l-2.57-11.93a19 19 0 0 1-4.47.59c-3.83 0-6.91-1.35-6.91-7.5v-33.47H351ZM362.77 345.81h53.65V332.7h-38v-73.19h-15.65ZM445.63 347.11c10.16 0 16.22-4.76 19-10.19h.51v8.89h14.66v-43.32c0-17.11-13.94-22.25-26.29-22.25-13.61 0-24.06 6.07-27.43 17.87l14.24 2c1.52-4.42 5.82-8.22 13.27-8.22 7.08 0 11 3.63 11 10v.25c0 4.39-4.59 4.6-16 5.82C436 309.32 424 313.07 424 327.65c0 12.72 9.28 19.46 21.63 19.46Zm5-11.2c-6.37 0-10.92-2.91-10.92-8.52 0-5.85 5.1-8.3 11.93-9.27 4-.54 12-1.56 14-3.16v7.63c.01 7.21-5.81 13.32-14.99 13.32ZM491.06 345.81h15v-10.2h.88c2.4 4.72 7.42 11.34 18.54 11.34 15.26 0 26.68-12.1 26.68-33.42 0-21.57-11.76-33.29-26.72-33.29-11.42 0-16.18 6.87-18.5 11.55h-.63v-32.28h-15.25Zm15-32.36c0-12.56 5.39-20.69 15.21-20.69 10.15 0 15.38 8.63 15.38 20.69s-5.31 21-15.38 21c-9.78-.02-15.27-8.45-15.27-21Z"/><path class="cls-2" d="m962.2 289.07-.15-.39L947.23 250a3.86 3.86 0 0 0-1.52-1.84 3.92 3.92 0 0 0-4.57.25 3.82 3.82 0 0 0-1.31 2l-10 30.64h-40.5l-10-30.64a4 4 0 0 0-1.31-2 4 4 0 0 0-2.25-.86 4 4 0 0 0-2.32.61 3.75 3.75 0 0 0-1.52 1.84l-14.83 38.68-.15.39a27.53 27.53 0 0 0 9.13 31.81h.06l.13.1 22.58 16.91 11.15 8.49 6.8 5.14a4.59 4.59 0 0 0 5.54 0l6.79-5.14 11.17-8.45 22.72-17h.06a27.54 27.54 0 0 0 9.12-31.86Z"/><path class="cls-1" d="m962.2 889.07-.15-.39L947.23 850a3.86 3.86 0 0 0-1.52-1.84 3.92 3.92 0 0 0-4.57.25 3.82 3.82 0 0 0-1.31 2l-10 30.64h-40.5l-10-30.64a4 4 0 0 0-1.31-2 4 4 0 0 0-2.25-.86 4 4 0 0 0-2.32.61 3.75 3.75 0 0 0-1.52 1.84l-14.83 38.68-.15.39a27.53 27.53 0 0 0 9.13 31.81h.06l.13.1 22.58 16.91 11.15 8.49 6.8 5.14a4.59 4.59 0 0 0 5.54 0l6.79-5.14 11.17-8.45 22.72-17h.06a27.54 27.54 0 0 0 9.12-31.86Z"/><path d="M1199.25.75v1198.5H.75V.75h1198.5M1200 0H0v1200h1200V0Z" style="fill:#737477"/></g></g></svg>