<svg enable-background="new 0 0 1200 156" viewBox="0 0 1200 156" xmlns="http://www.w3.org/2000/svg"><path d="m300.5 0h300v156h-300z" fill="#171321"/><path d="m383.8 72.6-.1-.2-7.3-19c-.4-1-1.5-1.5-2.5-1.1-.2.1-.3.2-.5.3-.3.3-.5.6-.6 1l-4.9 15.1h-19.9l-4.9-15.1c-.1-.4-.3-.7-.6-1-.3-.2-.7-.4-1.1-.4-.8 0-1.6.4-1.9 1.2l-7.3 19-.1.2c-2.2 5.6-.3 12 4.5 15.6l.1.1 11.1 8.3 5.5 4.2 3.4 2.5c.8.6 1.9.6 2.7 0l3.4-2.5 5.5-4.2 11.2-8.4c4.6-3.6 6.5-9.9 4.3-15.6z" fill="#fff"/><path d="m427.5 71.6h7.8c-1.3-8.3-8.5-14.1-17.9-14.1-11.1 0-19.5 8.2-19.5 21.9 0 13.4 8 21.8 19.7 21.8 10.5 0 18-6.8 18-17.7v-5.1h-17.2v6h9.8c-.1 6.1-4.2 9.9-10.5 9.9-7.1 0-12-5.3-12-14.9s5-14.9 11.8-14.9c5.2-.1 8.6 2.6 10 7.1z" fill="#fff"/><path d="m440.9 100.5h7.5v-31.8h-7.5zm3.8-36.8c2.2-.1 4-2.1 3.8-4.3-.1-2.2-2.1-4-4.3-3.8-2.1.1-3.8 1.9-3.8 4.1s1.9 4 4.3 4z" fill="#fff"/><path d="m470.9 68.7h-6.3v-7.6h-7.5v7.6h-4.5v5.8h4.5v17.7c0 6 4.3 8.9 10 8.8 1.5 0 3-.3 4.4-.8l-1.3-5.9c-.7.2-1.5.3-2.2.3-1.9 0-3.4-.7-3.4-3.7v-16.4h6.3z" fill="#fff"/><path d="m476.7 100.5h26.4v-6.4h-18.7v-36h-7.7z" fill="#fff"/><path d="m517.4 101.2c5 0 8-2.4 9.3-5h.2v4.4h7.2v-21.4c0-8.4-6.9-10.9-12.9-10.9-6.7 0-11.8 3-13.5 8.8l7 1c.7-2.2 2.9-4 6.5-4 3.5 0 5.4 1.8 5.4 4.9v.1c0 2.1-2.3 2.3-7.9 2.9-6.2.7-12.1 2.5-12.1 9.7.2 6.2 4.8 9.5 10.8 9.5zm2.5-5.5c-3.1 0-5.4-1.4-5.4-4.2s2.5-4.1 5.9-4.6c2-.3 5.9-.8 6.9-1.6v3.8c0 3.6-2.9 6.6-7.4 6.6z" fill="#fff"/><path d="m539.8 100.5h7.4v-5h.4c1.6 3.5 5.2 5.7 9.1 5.6 7.5 0 13.1-6 13.1-16.4s-5.8-16.4-13.1-16.4c-3.9-.2-7.5 2.1-9.1 5.7h-.3v-15.9h-7.5zm7.3-15.9c0-6.2 2.7-10.2 7.5-10.2 5 0 7.6 4.2 7.6 10.2s-2.6 10.3-7.6 10.3c-4.8 0-7.5-4.1-7.5-10.3z" fill="#fff"/><g fill="#171321"><path d="m83.3 72.6-.1-.2-7.3-19c-.1-.4-.4-.7-.8-.9-.9-.6-2.1-.3-2.7.6-.1.2-.2.3-.2.5l-4.9 15.1h-20l-4.9-15.1c-.3-1-1.4-1.6-2.4-1.3-.2.1-.3.1-.5.2-.3.2-.6.5-.8.9l-7.3 19-.1.2c-2.2 5.6-.3 12 4.5 15.6l.1.1 11.1 8.3 5.5 4.2 3.3 2.5c.8.6 1.9.6 2.7 0l3.3-2.5 5.5-4.2 11.2-8.4c5.1-3.6 7-9.9 4.8-15.6z"/><path d="m127 71.6h7.8c-1.3-8.3-8.5-14.1-17.9-14.1-11.1 0-19.4 8.2-19.4 21.9 0 13.4 8 21.8 19.7 21.8 10.5 0 18-6.8 18-17.7v-5.1h-17.2v6h9.8c-.1 6.1-4.2 9.9-10.6 9.9-7.1 0-12-5.3-12-14.9s5-14.9 11.8-14.9c5.2-.1 8.7 2.6 10 7.1z"/><path d="m140.4 100.5h7.5v-31.8h-7.5zm3.8-36.8c2.2-.2 3.9-2.1 3.8-4.4-.2-2.2-2.1-3.9-4.4-3.8-2.1.1-3.8 1.9-3.8 4.1.1 2.3 2 4.1 4.4 4.1z"/><path d="m170.4 68.7h-6.3v-7.6h-7.5v7.6h-4.5v5.8h4.5v17.7c0 6 4.3 8.9 9.9 8.8 1.5 0 3-.3 4.4-.8l-1.3-5.9c-.7.2-1.5.3-2.2.3-1.9 0-3.4-.7-3.4-3.7v-16.4h6.3v-5.8z"/><path d="m176.2 100.5h26.4v-6.4h-18.7v-36h-7.7z"/><path d="m216.9 101.2c5 0 8-2.4 9.4-5h.2v4.4h7.2v-21.4c0-8.4-6.9-10.9-12.9-10.9-6.7 0-11.8 3-13.5 8.8l7 1c.8-2.2 2.9-4 6.5-4 3.5 0 5.4 1.8 5.4 4.9v.1c0 2.1-2.3 2.3-7.9 2.9-6.2.7-12.1 2.5-12.1 9.7.1 6.2 4.7 9.5 10.7 9.5zm2.5-5.5c-3.1 0-5.4-1.4-5.4-4.2s2.5-4.1 5.9-4.6c2-.3 5.9-.8 6.9-1.6v3.8c0 3.6-2.9 6.6-7.4 6.6z"/><path d="m239.3 100.5h7.4v-5h.4c1.6 3.5 5.2 5.7 9.1 5.6 7.5 0 13.1-6 13.1-16.4s-5.8-16.4-13.1-16.4c-3.9-.2-7.5 2.1-9.1 5.7h-.3v-15.9h-7.5zm7.3-15.9c0-6.2 2.6-10.2 7.5-10.2 5 0 7.6 4.2 7.6 10.2s-2.6 10.3-7.6 10.3c-4.8 0-7.5-4.1-7.5-10.3z"/><path d="m899.6 0h300v156h-300z"/></g><path d="m1075.5 72.6-.1-.2-7.3-19c-.4-1-1.5-1.5-2.5-1.1-.2.1-.3.2-.5.3-.3.3-.5.6-.6 1l-4.9 15.1h-19.9l-4.9-15.1c-.1-.4-.3-.7-.6-1-.8-.7-2-.5-2.7.3-.1.1-.2.3-.3.5l-7.3 19-.1.2c-2.2 5.6-.3 12 4.5 15.6l.1.1 11.1 8.3 5.5 4.2 3.3 2.5c.8.6 1.9.6 2.7 0l3.3-2.5 5.5-4.2 11.2-8.4c4.8-3.5 6.7-9.9 4.5-15.6z" fill="#fff"/><path d="m776.9 72.6-.1-.2-7.3-19c-.4-1-1.5-1.5-2.5-1.1-.2.1-.3.2-.5.3-.3.3-.5.6-.7 1l-4.9 15h-20l-4.9-15.1c-.1-.4-.3-.7-.6-1-.3-.2-.7-.4-1.1-.4-.8 0-1.6.4-1.9 1.2l-7.3 19-.1.2c-2.2 5.6-.3 12 4.5 15.6l.1.1 11.1 8.3 5.5 4.2 3.3 2.5c.8.6 1.9.6 2.7 0l3.3-2.5 5.5-4.2 11.2-8.4c4.9-3.5 6.8-9.8 4.7-15.5z" fill="#171321"/><path d="m1199.6.2v155.6h-1199.2v-155.6zm.4-.2h-1200v156h1200z" fill="#737477"/></svg>