<svg xmlns="http://www.w3.org/2000/svg" viewBox="0 0 1200 300"><defs><style>.cls-1{fill:#171321;}.cls-2{fill:#fff;}.cls-3{fill:#737477;}</style></defs><g id="Layer_2" data-name="Layer 2"><g id="DO_NOT_EXPORT" data-name="DO NOT EXPORT"><rect class="cls-1" x="300.49" width="300" height="300"/><path class="cls-2" d="M383.84,144.62l-.07-.19-7.29-19a1.94,1.94,0,0,0-3-.78,2,2,0,0,0-.65,1l-4.92,15.07H348l-4.93-15.07a1.9,1.9,0,0,0-.64-1,2,2,0,0,0-1.11-.42,1.93,1.93,0,0,0-1.89,1.2l-7.29,19-.07.19a13.55,13.55,0,0,0,4.49,15.65l0,0,.07.05,11.11,8.32,5.49,4.16,3.35,2.52a2.25,2.25,0,0,0,2.72,0l3.35-2.52,5.49-4.16,11.17-8.37,0,0A13.55,13.55,0,0,0,383.84,144.62Z"/><path class="cls-2" d="M427.52,143.64h7.84c-1.31-8.33-8.52-14.14-17.91-14.14-11.11,0-19.45,8.17-19.45,21.85,0,13.43,8,21.76,19.67,21.76,10.51,0,18-6.75,18-17.7v-5.1H418.48v6h9.79c-.13,6.06-4.17,9.89-10.55,9.89-7.11,0-12-5.33-12-14.94s4.95-14.87,11.81-14.87C422.67,136.4,426.15,139.14,427.52,143.64Z"/><path class="cls-2" d="M440.89,172.53h7.5V140.69h-7.5Zm3.77-36.88a4.08,4.08,0,1,0-4.35-4.06A4.21,4.21,0,0,0,444.66,135.65Z"/><path class="cls-2" d="M470.86,140.69h-6.28v-7.62h-7.5v7.62h-4.52v5.81h4.52v17.7c0,6,4.31,8.93,9.95,8.77a15,15,0,0,0,4.41-.75l-1.26-5.86a9.66,9.66,0,0,1-2.2.29c-1.89,0-3.4-.67-3.4-3.69V146.5h6.28Z"/><path class="cls-2" d="M476.67,172.53h26.39v-6.44h-18.7v-36h-7.69Z"/><path class="cls-2" d="M517.43,173.18c5,0,8-2.35,9.35-5H527v4.37h7.22V151.22c0-8.41-6.86-10.94-12.94-10.94-6.69,0-11.83,3-13.49,8.79l7,1c.74-2.17,2.86-4,6.52-4,3.49,0,5.39,1.78,5.39,4.91v.13c0,2.15-2.26,2.26-7.87,2.86-6.18.66-12.09,2.51-12.09,9.68C506.77,169.86,511.35,173.18,517.43,173.18Zm2.46-5.52c-3.13,0-5.36-1.43-5.36-4.18s2.5-4.09,5.86-4.56c2-.27,5.91-.77,6.88-1.56v3.75C527.27,164.66,524.41,167.66,519.89,167.66Z"/><path class="cls-2" d="M539.77,172.53h7.38v-5h.44a9.6,9.6,0,0,0,9.12,5.57c7.5,0,13.12-6,13.12-16.43s-5.78-16.38-13.14-16.38a9.44,9.44,0,0,0-9.1,5.68h-.31V130.08h-7.51Zm7.36-15.92c0-6.17,2.66-10.17,7.48-10.17,5,0,7.57,4.25,7.57,10.17s-2.61,10.33-7.57,10.33C549.83,166.94,547.13,162.79,547.13,156.61Z"/><path class="cls-1" d="M83.35,144.62l-.08-.19L76,125.4a1.88,1.88,0,0,0-.75-.9,1.93,1.93,0,0,0-2.89,1.1l-4.92,15.07H47.49L42.57,125.6a1.93,1.93,0,0,0-2.89-1.1,1.88,1.88,0,0,0-.75.9l-7.29,19-.08.19a13.55,13.55,0,0,0,4.49,15.65l0,0,.06.05,11.11,8.32,5.5,4.16,3.34,2.52a2.27,2.27,0,0,0,2.73,0l3.34-2.52,5.49-4.16,11.18-8.37,0,0A13.55,13.55,0,0,0,83.35,144.62Z"/><path class="cls-1" d="M127,143.64h7.83c-1.3-8.33-8.52-14.14-17.91-14.14-11.11,0-19.44,8.17-19.44,21.85,0,13.43,8,21.76,19.67,21.76,10.51,0,18-6.75,18-17.7v-5.1H118v6h9.78c-.12,6.06-4.16,9.89-10.55,9.89-7.11,0-12-5.33-12-14.94s5-14.87,11.82-14.87C122.18,136.4,125.66,139.14,127,143.64Z"/><path class="cls-1" d="M140.39,172.53h7.51V140.69h-7.51Zm3.78-36.88a4.08,4.08,0,1,0-4.36-4.06A4.21,4.21,0,0,0,144.17,135.65Z"/><path class="cls-1" d="M170.37,140.69h-6.28v-7.62h-7.51v7.62h-4.52v5.81h4.52v17.7c0,6,4.31,8.93,9.95,8.77a15,15,0,0,0,4.42-.75l-1.27-5.86a9.47,9.47,0,0,1-2.19.29c-1.89,0-3.4-.67-3.4-3.69V146.5h6.28Z"/><path class="cls-1" d="M176.17,172.53h26.39v-6.44h-18.7v-36h-7.69Z"/><path class="cls-1" d="M216.93,173.18c5,0,8-2.35,9.35-5h.25v4.37h7.21V151.22c0-8.41-6.86-10.94-12.93-10.94-6.7,0-11.84,3-13.5,8.79l7,1c.75-2.17,2.86-4,6.53-4,3.48,0,5.39,1.78,5.39,4.91v.13c0,2.15-2.26,2.26-7.88,2.86-6.17.66-12.08,2.51-12.08,9.68C206.28,169.86,210.86,173.18,216.93,173.18Zm2.47-5.52c-3.13,0-5.37-1.43-5.37-4.18s2.51-4.09,5.87-4.56c2-.27,5.91-.77,6.88-1.56v3.75C226.78,164.66,223.92,167.66,219.4,167.66Z"/><path class="cls-1" d="M239.28,172.53h7.38v-5h.43a9.61,9.61,0,0,0,9.12,5.57c7.51,0,13.13-6,13.13-16.43s-5.79-16.38-13.15-16.38a9.45,9.45,0,0,0-9.1,5.68h-.31V130.08h-7.5Zm7.36-15.92c0-6.17,2.65-10.17,7.48-10.17,5,0,7.57,4.25,7.57,10.17s-2.62,10.33-7.57,10.33C249.33,166.94,246.64,162.79,246.64,156.61Z"/><rect class="cls-1" x="899.64" width="300" height="300"/><path class="cls-2" d="M1075.53,144.62l-.07-.19-7.29-19a1.94,1.94,0,0,0-3-.78,1.9,1.9,0,0,0-.64,1l-4.93,15.07h-19.92l-4.93-15.07a1.9,1.9,0,0,0-.64-1,1.93,1.93,0,0,0-3,.78l-7.29,19-.07.19a13.55,13.55,0,0,0,4.49,15.65l0,0,.06.05,11.11,8.32,5.49,4.16,3.35,2.52a2.25,2.25,0,0,0,2.72,0l3.35-2.52,5.49-4.16,11.17-8.37,0,0A13.55,13.55,0,0,0,1075.53,144.62Z"/><path class="cls-1" d="M776.88,144.62l-.07-.19-7.29-19a1.94,1.94,0,0,0-3-.78,2,2,0,0,0-.65,1L761,140.67H741L736.1,125.6a1.9,1.9,0,0,0-.64-1,2,2,0,0,0-1.11-.42,1.93,1.93,0,0,0-1.89,1.2l-7.29,19-.07.19a13.55,13.55,0,0,0,4.49,15.65l0,0,.07.05,11.11,8.32,5.49,4.16,3.35,2.52a2.25,2.25,0,0,0,2.72,0l3.35-2.52,5.49-4.16,11.17-8.37,0,0A13.55,13.55,0,0,0,776.88,144.62Z"/><path class="cls-3" d="M1199.62.38V299.62H.38V.38H1199.62M1200,0H0V300H1200V0Z"/></g></g></svg>
