<?xml version="1.0" encoding="utf-8"?>
<!-- Generator: Adobe Illustrator 26.0.0, SVG Export Plug-In . SVG Version: 6.00 Build 0)  -->
<svg version="1.1" id="Layer_1" xmlns="http://www.w3.org/2000/svg" xmlns:xlink="http://www.w3.org/1999/xlink" x="0px" y="0px"
	 viewBox="0 0 2040.6 161" style="enable-background:new 0 0 2040.6 161;" xml:space="preserve">
<style type="text/css">
	.st0{fill:#171321;}
	.st1{fill:#E24329;}
	.st2{fill:#FC6D26;}
	.st3{fill:#FCA326;}
	.st4{fill:#A2A1A6;}
</style>
<g>
	<g>
		<path class="st0" d="M34.5,97.8h2.8c-0.5-3-3-5.1-6.4-5.1c-4,0-7,2.9-7,7.8c0,4.8,2.8,7.8,7,7.8c3.8,0,6.4-2.4,6.4-6.3v-1.8h-6.2
			v2.1h3.5c0,2.2-1.5,3.5-3.8,3.5c-2.5,0-4.3-1.9-4.3-5.3c0-3.4,1.8-5.3,4.2-5.3C32.7,95.2,34,96.2,34.5,97.8z"/>
		<path class="st0" d="M39.2,108.1h2.7V96.8h-2.7V108.1z M40.6,95c0.9,0,1.5-0.7,1.5-1.5c0-0.8-0.7-1.5-1.5-1.5
			c-0.9,0-1.6,0.7-1.6,1.5C39,94.3,39.7,95,40.6,95z"/>
		<path class="st0" d="M50,96.8h-2.2V94H45v2.7h-1.6v2.1H45v6.3c0,2.1,1.5,3.2,3.6,3.1c0.8,0,1.3-0.2,1.6-0.3l-0.5-2.1
			c-0.1,0-0.5,0.1-0.8,0.1c-0.7,0-1.2-0.2-1.2-1.3v-5.9H50V96.8z"/>
		<path class="st0" d="M52,108.1h9.4v-2.3h-6.7V93H52V108.1z"/>
		<path class="st0" d="M66.6,108.4c1.8,0,2.9-0.8,3.3-1.8H70v1.6h2.6v-7.6c0-3-2.5-3.9-4.6-3.9c-2.4,0-4.2,1.1-4.8,3.1l2.5,0.4
			c0.3-0.8,1-1.4,2.3-1.4c1.2,0,1.9,0.6,1.9,1.8v0c0,0.8-0.8,0.8-2.8,1c-2.2,0.2-4.3,0.9-4.3,3.5C62.8,107.2,64.4,108.4,66.6,108.4z
			 M67.5,106.4c-1.1,0-1.9-0.5-1.9-1.5c0-1,0.9-1.5,2.1-1.6c0.7-0.1,2.1-0.3,2.5-0.6v1.3C70.1,105.3,69.1,106.4,67.5,106.4z"/>
		<path class="st0" d="M74.6,108.1h2.6v-1.8h0.2c0.4,0.8,1.3,2,3.3,2c2.7,0,4.7-2.1,4.7-5.9c0-3.8-2.1-5.9-4.7-5.9
			c-2,0-2.8,1.2-3.3,2h-0.1V93h-2.7V108.1z M77.2,102.5c0-2.2,0.9-3.6,2.7-3.6c1.8,0,2.7,1.5,2.7,3.6c0,2.1-0.9,3.7-2.7,3.7
			C78.2,106.1,77.2,104.7,77.2,102.5z"/>
	</g>
	<g>
		<path class="st1" d="M18.8,98.2L18.8,98.2l-2.6-6.9c-0.1-0.1-0.1-0.2-0.3-0.3c-0.1-0.1-0.3-0.1-0.4-0.1c-0.1,0-0.3,0.1-0.4,0.1
			c-0.1,0.1-0.2,0.2-0.2,0.4l-1.8,5.4H6l-1.8-5.4c0-0.1-0.1-0.3-0.2-0.4c-0.1-0.1-0.3-0.1-0.4-0.1c-0.1,0-0.3,0-0.4,0.1
			C3.1,91,3,91.2,3,91.3l-2.6,6.8l0,0.1c-0.8,2-0.1,4.3,1.6,5.6c0,0,0,0,0,0l0,0l4,3l2,1.5l1.2,0.9c0.3,0.2,0.7,0.2,1,0l1.2-0.9
			l2-1.5l4-3c0,0,0,0,0,0C19,102.5,19.6,100.2,18.8,98.2z"/>
		<path class="st2" d="M18.8,98.2L18.8,98.2c-1.3,0.2-2.5,0.7-3.5,1.5c0,0-3.1,2.3-5.7,4.3c1.9,1.5,3.6,2.8,3.6,2.8l4-3c0,0,0,0,0,0
			C19,102.5,19.6,100.2,18.8,98.2z"/>
		<path class="st3" d="M5.9,106.8l2,1.5l1.2,0.9c0.3,0.2,0.7,0.2,1,0l1.2-0.9l2-1.5c0,0-1.7-1.3-3.6-2.8
			C7.6,105.5,5.9,106.8,5.9,106.8z"/>
		<path class="st2" d="M3.9,99.7c-1-0.8-2.2-1.3-3.5-1.6l0,0.1c-0.8,2-0.1,4.3,1.6,5.6c0,0,0,0,0,0l0,0l4,3c0,0,1.7-1.3,3.6-2.8
			C7,102,3.9,99.7,3.9,99.7z"/>
	</g>
</g>
<path class="st0" d="M212.9,138.8l2.6,4.5l2.6-4.5h1.9l-3.5,5.4l3.5,5.5h-1.9l-2.6-4.2l-2.6,4.2H211l3.5-5.5l-3.5-5.4H212.9z
	 M201.6,144.2c0,0.7,0.1,1.5,0.4,2.2c0.2,0.6,0.6,1.1,1.1,1.5c1,0.7,2.4,0.7,3.5,0c0.5-0.4,0.9-0.9,1.1-1.5c0.2-0.7,0.4-1.4,0.4-2.1
	c0-0.7-0.1-1.4-0.4-2.1c-0.2-0.6-0.5-1.1-1-1.5c-1.1-0.7-2.4-0.7-3.5,0c-0.5,0.4-0.8,0.9-1,1.4C201.8,142.8,201.6,143.5,201.6,144.2
	L201.6,144.2z M199.9,153.8v-15h1.6v1.7h0.2l0.5-0.7c0.3-0.3,0.6-0.6,1-0.8c0.5-0.3,1.1-0.4,1.7-0.3c0.9,0,1.7,0.2,2.4,0.7
	c0.7,0.5,1.3,1.2,1.6,2c0.4,0.9,0.6,2,0.6,3c0,1-0.2,2.1-0.6,3c-0.3,0.8-0.9,1.5-1.6,2c-0.7,0.5-1.6,0.7-2.4,0.7
	c-0.6,0-1.2-0.1-1.7-0.3c-0.4-0.2-0.7-0.5-1-0.8c-0.2-0.3-0.4-0.6-0.5-0.8h-0.1v5.8L199.9,153.8z M186.5,148.3c1.1,0,2-0.6,2.5-1.5
	c0.7-1.4,1-2.9,0.9-4.4c0-1.1-0.1-2.2-0.4-3.2c-0.2-0.8-0.6-1.4-1.1-2c-0.5-0.5-1.1-0.7-1.8-0.7c-1.1,0-2,0.6-2.5,1.6
	c-0.7,1.4-1,2.9-0.9,4.4c0,1.1,0.1,2.2,0.4,3.2c0.2,0.8,0.6,1.4,1.1,2C185.2,148.1,185.9,148.3,186.5,148.3L186.5,148.3z
	 M186.5,149.9c-1,0-2-0.3-2.7-0.9c-0.8-0.7-1.4-1.5-1.7-2.6c-0.8-2.6-0.8-5.4,0-8.1c0.3-1,0.9-1.9,1.7-2.6c1.6-1.2,3.8-1.2,5.4,0
	c0.8,0.7,1.4,1.6,1.7,2.6c0.4,1.3,0.6,2.6,0.6,4c0,1.4-0.2,2.7-0.6,4c-0.3,1-0.9,1.9-1.7,2.6C188.5,149.5,187.5,149.9,186.5,149.9
	L186.5,149.9z M169.7,149.7v-1.3l4.8-5.3c0.6-0.6,1-1.1,1.4-1.6c0.3-0.4,0.6-0.8,0.8-1.3c0.2-0.4,0.3-0.8,0.3-1.3
	c0-0.5-0.1-0.9-0.4-1.3c-0.3-0.4-0.6-0.7-1-0.9c-0.4-0.2-0.9-0.3-1.4-0.3c-0.5,0-1,0.1-1.5,0.4c-0.4,0.2-0.8,0.6-1,1
	c-0.2,0.4-0.3,0.9-0.3,1.4h-1.7c0-0.8,0.2-1.6,0.6-2.2c0.4-0.6,0.9-1.2,1.6-1.5c0.7-0.4,1.5-0.5,2.3-0.5c0.8,0,1.6,0.2,2.3,0.5
	c0.6,0.3,1.2,0.8,1.6,1.5c0.4,0.6,0.6,1.3,0.6,2c0,0.5-0.1,1.1-0.3,1.6c-0.3,0.6-0.6,1.2-1,1.7c-0.6,0.8-1.3,1.6-2,2.3L172,148v0.1
	h6.8v1.5L169.7,149.7z M148.6,148.8l-1.1-1.1l4.5-4.5h-11.7v-1.5H152l-4.5-4.5l1.1-1.1l6.4,6.4L148.6,148.8z M121,149.9
	c-1,0-1.9-0.2-2.7-0.7c-0.8-0.5-1.4-1.2-1.8-2c-0.4-0.9-0.6-1.9-0.6-2.9c0-1,0.2-2.1,0.6-3c0.4-0.8,1-1.5,1.7-2
	c0.8-0.5,1.7-0.7,2.6-0.7c0.6,0,1.1,0.1,1.7,0.3c0.6,0.2,1.1,0.5,1.5,0.9c0.5,0.5,0.8,1,1.1,1.7c0.3,0.8,0.4,1.7,0.4,2.6v0.7h-8.4
	v-1.4h6.7c0-0.6-0.1-1.1-0.4-1.6c-0.2-0.5-0.6-0.9-1-1.1c-0.5-0.3-1-0.4-1.6-0.4c-0.6,0-1.2,0.2-1.7,0.5c-0.5,0.3-0.9,0.8-1.1,1.3
	c-0.3,0.5-0.4,1.1-0.4,1.7v1c0,0.7,0.1,1.4,0.4,2.1c0.3,0.5,0.7,1,1.2,1.3c0.5,0.3,1.2,0.5,1.8,0.4c0.4,0,0.8-0.1,1.2-0.2
	c0.7-0.2,1.3-0.8,1.5-1.6l1.6,0.5c-0.2,0.5-0.5,1-0.9,1.4c-0.4,0.4-0.9,0.8-1.5,1C122.4,149.8,121.8,149.9,121,149.9L121,149.9z
	 M105.6,149.7v-1.3l6.2-8v-0.1h-6v-1.6h8.2v1.3l-6,7.9v0.1h6.2v1.6H105.6z M102.1,137c-0.3,0-0.6-0.1-0.8-0.3
	c-0.4-0.4-0.5-1.1-0.1-1.6h0.1c0.2-0.2,0.5-0.3,0.8-0.3c0.3,0,0.6,0.1,0.8,0.3c0.2,0.2,0.4,0.5,0.4,0.8c0,0.3-0.1,0.6-0.4,0.8
	C102.7,136.9,102.4,137,102.1,137L102.1,137z M101.2,149.7v-10.9h1.7v10.9H101.2z M98.5,141.2l-1.5,0.4c-0.1-0.3-0.2-0.5-0.4-0.7
	c-0.2-0.3-0.4-0.5-0.7-0.6c-0.4-0.2-0.8-0.2-1.2-0.2c-0.6,0-1.2,0.1-1.7,0.5c-0.4,0.2-0.7,0.7-0.7,1.1c0,0.4,0.1,0.8,0.4,1
	c0.4,0.3,0.9,0.5,1.4,0.6l1.6,0.4c0.8,0.1,1.6,0.5,2.2,1.1c0.5,0.5,0.8,1.2,0.7,1.9c0,0.6-0.2,1.2-0.5,1.7c-0.4,0.5-0.9,0.9-1.5,1.2
	c-0.7,0.3-1.5,0.4-2.2,0.4c-1,0-1.9-0.2-2.8-0.7c-0.7-0.5-1.2-1.3-1.4-2.1l1.6-0.4c0.1,0.5,0.4,1,0.9,1.3c0.5,0.3,1.1,0.5,1.7,0.4
	c0.7,0,1.3-0.1,1.9-0.5c0.4-0.3,0.7-0.7,0.7-1.2c0-0.4-0.1-0.7-0.4-0.9c-0.3-0.3-0.8-0.5-1.2-0.6l-1.8-0.4c-0.8-0.1-1.6-0.5-2.2-1.1
	c-0.5-0.5-0.7-1.2-0.7-1.9c0-0.6,0.2-1.2,0.5-1.6c0.4-0.5,0.9-0.9,1.4-1.1c0.7-0.3,1.4-0.4,2.1-0.4c0.9-0.1,1.8,0.2,2.5,0.7
	C97.8,139.8,98.3,140.5,98.5,141.2L98.5,141.2z M67.8,149.7v-10.9h1.6v1.7h0.1c0.2-0.6,0.6-1,1.1-1.4c0.5-0.3,1.2-0.5,1.8-0.5
	c1.3-0.1,2.4,0.7,2.9,1.8h0.1c0.3-0.5,0.7-1,1.3-1.3c0.6-0.3,1.3-0.5,2-0.5c0.9,0,1.8,0.3,2.4,0.9c0.7,0.8,1,1.8,0.9,2.8v7.3h-1.7
	v-7.3c0.1-0.6-0.2-1.3-0.7-1.7c-0.4-0.3-1-0.5-1.6-0.5c-0.7,0-1.3,0.2-1.8,0.7c-0.4,0.5-0.7,1.1-0.6,1.8v7.1h-1.7v-7.5
	c0-0.6-0.2-1.1-0.6-1.5c-0.4-0.4-1-0.6-1.6-0.6c-0.4,0-0.9,0.1-1.2,0.4c-0.4,0.2-0.7,0.6-0.9,1c-0.2,0.4-0.3,0.9-0.3,1.4v6.8
	L67.8,149.7z M63,145.2v-6.4h1.7v10.9H63v-1.9h-0.1c-0.3,0.6-0.7,1.1-1.2,1.4c-0.6,0.4-1.3,0.6-2,0.6c-0.6,0-1.3-0.1-1.8-0.4
	c-0.5-0.3-1-0.8-1.2-1.4c-0.3-0.7-0.5-1.5-0.5-2.3v-6.9h1.7v6.8c0,0.7,0.2,1.4,0.7,1.9c0.4,0.5,1.1,0.7,1.7,0.7
	c0.4,0,0.9-0.1,1.3-0.3c0.5-0.2,0.8-0.6,1.1-1C62.9,146.4,63,145.8,63,145.2L63,145.2z M38.7,149.6v-10.9h1.6v1.7h0.1
	c0.2-0.5,0.6-1,1.1-1.3c0.5-0.3,1.2-0.5,1.8-0.5c1.3-0.1,2.4,0.7,2.9,1.8h0.1c0.3-0.6,0.7-1,1.3-1.4c0.6-0.3,1.3-0.5,2-0.5
	c0.9,0,1.7,0.3,2.4,0.9c0.7,0.8,1,1.8,0.9,2.8v7.3h-1.7v-7.3c0.1-0.6-0.2-1.3-0.7-1.7c-0.4-0.3-1-0.5-1.5-0.5
	c-0.7,0-1.3,0.2-1.8,0.7c-0.4,0.5-0.7,1.1-0.6,1.8v7.1H45v-7.5c0-0.6-0.2-1.1-0.6-1.5c-0.4-0.4-1-0.6-1.6-0.6
	c-0.4,0-0.9,0.1-1.2,0.4c-0.4,0.2-0.7,0.6-0.9,1c-0.2,0.4-0.4,0.9-0.3,1.4v6.8L38.7,149.6z M34.8,136.9c-0.3,0-0.6-0.1-0.8-0.3
	c-0.2-0.2-0.3-0.5-0.3-0.8c0-0.3,0.1-0.6,0.3-0.8c0.2-0.2,0.5-0.3,0.8-0.3c0.3,0,0.6,0.1,0.8,0.3c0.4,0.4,0.5,1.1,0.1,1.6l-0.1,0.1
	C35.5,136.8,35.2,136.9,34.8,136.9L34.8,136.9z M34,149.7v-10.9h1.7v10.9L34,149.7z M24,143.1v6.6h-1.7v-10.9h1.6v1.7h0.1
	c0.2-0.5,0.7-1,1.2-1.3c0.6-0.4,1.3-0.5,2-0.5c0.7,0,1.3,0.1,1.9,0.4c0.6,0.3,1,0.8,1.3,1.4c0.3,0.7,0.5,1.5,0.5,2.3v6.9h-1.7v-6.8
	c0.1-0.7-0.2-1.4-0.7-2c-0.5-0.5-1.1-0.8-1.8-0.7c-0.5,0-1,0.1-1.4,0.4c-0.4,0.2-0.8,0.6-1,1C24.1,142,24,142.6,24,143.1L24,143.1z
	 M18.4,136.9c-0.3,0-0.6-0.1-0.8-0.3c-0.4-0.4-0.5-1.1-0.1-1.6h0.1c0.2-0.2,0.5-0.3,0.8-0.3c0.3,0,0.6,0.1,0.8,0.3
	c0.2,0.2,0.4,0.5,0.4,0.8c0,0.3-0.1,0.6-0.4,0.8C19,136.9,18.7,137,18.4,136.9L18.4,136.9z M17.5,149.7v-10.9h1.7v10.9L17.5,149.7z
	 M0,135.1h2.1L7,147.2h0.2l4.9-12.1h2.1v14.6h-1.6v-11h-0.1l-4.5,11H6.3l-4.5-11H1.6v11H0L0,135.1z"/>
<path class="st4" d="M0,160.5h220.1v0.5H0V160.5z"/>
<path class="st0" d="M103.6,89.8h1v20h-1V89.8z"/>
<path class="st0" d="M100.6,89.8h7v1h-7V89.8z M100.6,109.8h7v1h-7V109.8z"/>
<g>
	<g>
		<g>
			<path class="st0" d="M351.8,93.6h4.2c-0.7-4.5-4.6-7.6-9.6-7.6c-6,0-10.4,4.4-10.4,11.7c0,7.2,4.3,11.7,10.6,11.7
				c5.6,0,9.7-3.6,9.7-9.5v-2.7h-9.2v3.2h5.2c-0.1,3.2-2.2,5.3-5.7,5.3c-3.8,0-6.4-2.9-6.4-8c0-5.1,2.7-8,6.3-8
				C349.2,89.7,351,91.1,351.8,93.6z"/>
			<path class="st0" d="M359,109.1h4V92h-4V109.1z M361,89.3c1.3,0,2.3-1,2.3-2.2c0-1.2-1-2.2-2.3-2.2c-1.3,0-2.3,1-2.3,2.2
				C358.6,88.3,359.7,89.3,361,89.3z"/>
			<path class="st0" d="M375,92h-3.4v-4.1h-4V92h-2.4v3.1h2.4v9.5c0,3.2,2.3,4.8,5.3,4.7c1.1,0,1.9-0.3,2.4-0.4l-0.7-3.1
				c-0.2,0.1-0.7,0.2-1.2,0.2c-1,0-1.8-0.4-1.8-2v-8.8h3.4V92z"/>
			<path class="st0" d="M378.1,109.1h14.2v-3.5h-10V86.3h-4.1V109.1z"/>
			<path class="st0" d="M400,109.4c2.7,0,4.3-1.3,5-2.7h0.1v2.3h3.9V97.6c0-4.5-3.7-5.9-6.9-5.9c-3.6,0-6.3,1.6-7.2,4.7l3.8,0.5
				c0.4-1.2,1.5-2.2,3.5-2.2c1.9,0,2.9,1,2.9,2.6v0.1c0,1.2-1.2,1.2-4.2,1.5c-3.3,0.4-6.5,1.3-6.5,5.2
				C394.3,107.6,396.7,109.4,400,109.4z M401.3,106.4c-1.7,0-2.9-0.8-2.9-2.2c0-1.5,1.3-2.2,3.1-2.4c1.1-0.1,3.2-0.4,3.7-0.8v2
				C405.3,104.8,403.8,106.4,401.3,106.4z"/>
			<path class="st0" d="M412,109.1h4v-2.7h0.2c0.6,1.2,2,3,4.9,3c4,0,7-3.2,7-8.8c0-5.7-3.1-8.8-7-8.8c-3,0-4.3,1.8-4.9,3H416v-8.5
				h-4V109.1z M415.9,100.5c0-3.3,1.4-5.5,4-5.5c2.7,0,4.1,2.3,4.1,5.5c0,3.2-1.4,5.5-4.1,5.5C417.4,106.1,415.9,103.8,415.9,100.5z
				"/>
		</g>
		<g>
			<path class="st1" d="M328.4,94.1l0-0.1l-3.9-10.2c-0.1-0.2-0.2-0.4-0.4-0.5c-0.2-0.1-0.4-0.2-0.6-0.2c-0.2,0-0.4,0.1-0.6,0.2
				c-0.2,0.1-0.3,0.3-0.3,0.5l-2.6,8.1h-10.7l-2.6-8.1c-0.1-0.2-0.2-0.4-0.3-0.5c-0.2-0.1-0.4-0.2-0.6-0.2c-0.2,0-0.4,0-0.6,0.2
				c-0.2,0.1-0.3,0.3-0.4,0.5L300.6,94l0,0.1c-1.2,3-0.2,6.4,2.4,8.4c0,0,0,0,0,0l0,0l6,4.5l2.9,2.2l1.8,1.4c0.4,0.3,1,0.3,1.5,0
				l1.8-1.4l2.9-2.2l6-4.5c0,0,0,0,0,0C328.5,100.5,329.5,97.1,328.4,94.1z"/>
			<path class="st2" d="M328.4,94.1l0-0.1c-1.9,0.4-3.7,1.2-5.3,2.4c0,0-4.7,3.5-8.6,6.5c2.9,2.2,5.5,4.1,5.5,4.1l6-4.5c0,0,0,0,0,0
				C328.5,100.5,329.5,97.1,328.4,94.1z"/>
			<path class="st3" d="M309,107l2.9,2.2l1.8,1.4c0.4,0.3,1,0.3,1.5,0l1.8-1.4l2.9-2.2c0,0-2.5-1.9-5.5-4.1
				C311.5,105.1,309,107,309,107z"/>
			<path class="st2" d="M305.9,96.3c-1.5-1.1-3.3-2-5.3-2.4l0,0.1c-1.2,3-0.2,6.4,2.4,8.4c0,0,0,0,0,0l0,0l6,4.5
				c0,0,2.5-1.9,5.5-4.1C310.5,99.9,305.9,96.4,305.9,96.3z"/>
		</g>
	</g>
	<path class="st4" d="M300.1,160.5h128v0.5h-128V160.5z"/>
	<g>
		<path d="M305.5,135.3v14.5h-1.8v-12.7h-0.1l-3.6,2.4v-1.8l3.6-2.4H305.5z"/>
		<path d="M314.2,150c-0.8,0-1.6-0.2-2.3-0.5c-0.7-0.3-1.2-0.8-1.6-1.4c-0.4-0.6-0.6-1.2-0.7-2h1.7c0.1,0.7,0.4,1.2,0.9,1.6
			c0.5,0.4,1.2,0.6,1.9,0.6c0.6,0,1.1-0.1,1.6-0.4s0.8-0.7,1.1-1.2c0.3-0.5,0.4-1,0.4-1.7c0-0.6-0.1-1.2-0.4-1.7
			c-0.3-0.5-0.7-0.9-1.1-1.2c-0.5-0.3-1-0.4-1.7-0.4c-0.4,0-0.9,0.1-1.4,0.2s-0.9,0.3-1.2,0.5l-1.6-0.2l0.9-7.2h7.6v1.6h-6.1
			l-0.5,4.3h0.1c0.3-0.2,0.7-0.4,1.1-0.6c0.4-0.2,0.9-0.2,1.4-0.2c0.9,0,1.7,0.2,2.4,0.6c0.7,0.4,1.2,1,1.6,1.7
			c0.4,0.7,0.6,1.6,0.6,2.5c0,0.9-0.2,1.8-0.6,2.5c-0.4,0.7-1,1.3-1.7,1.7S315.1,150,314.2,150z"/>
		<path d="M326.6,150c-1.1,0-2-0.3-2.7-0.9c-0.8-0.6-1.3-1.4-1.7-2.5c-0.4-1.1-0.6-2.5-0.6-4c0-1.6,0.2-2.9,0.6-4s1-2,1.7-2.6
			c0.8-0.6,1.7-0.9,2.7-0.9s2,0.3,2.7,0.9c0.8,0.6,1.3,1.4,1.7,2.6c0.4,1.1,0.6,2.5,0.6,4c0,1.6-0.2,2.9-0.6,4s-1,2-1.7,2.5
			C328.5,149.7,327.6,150,326.6,150z M326.6,148.5c1.1,0,1.9-0.5,2.5-1.5c0.6-1,0.9-2.5,0.9-4.4c0-1.3-0.1-2.3-0.4-3.2
			c-0.3-0.9-0.7-1.6-1.2-2s-1.1-0.7-1.8-0.7c-1.1,0-1.9,0.5-2.5,1.6s-0.9,2.5-0.9,4.4c0,1.3,0.1,2.3,0.4,3.2s0.6,1.6,1.1,2
			C325.3,148.2,325.9,148.5,326.6,148.5z"/>
		<path d="M334.5,138.8V138c0-0.5,0.1-1,0.3-1.5s0.5-0.8,1-1.1s0.9-0.4,1.5-0.4c0.6,0,1.1,0.1,1.5,0.4c0.4,0.3,0.7,0.6,0.9,1.1
			s0.3,0.9,0.3,1.5v0.8c0,0.5-0.1,1-0.3,1.5c-0.2,0.4-0.5,0.8-1,1.1c-0.4,0.3-0.9,0.4-1.5,0.4c-0.6,0-1.1-0.1-1.6-0.4
			s-0.7-0.6-1-1.1C334.6,139.8,334.5,139.3,334.5,138.8z M335,149.8l10-14.5h1.6l-10,14.5H335z M335.9,138v0.8
			c0,0.4,0.1,0.8,0.3,1.2c0.2,0.3,0.6,0.5,1.1,0.5c0.5,0,0.8-0.2,1.1-0.5c0.2-0.3,0.3-0.7,0.3-1.2V138c0-0.4-0.1-0.8-0.3-1.2
			c-0.2-0.3-0.6-0.5-1.1-0.5c-0.5,0-0.9,0.2-1.1,0.5C336,137.2,335.9,137.6,335.9,138z M341.7,147.1v-0.8c0-0.5,0.1-1,0.3-1.5
			c0.2-0.4,0.5-0.8,1-1.1c0.4-0.3,0.9-0.4,1.5-0.4c0.6,0,1.1,0.1,1.5,0.4c0.4,0.3,0.7,0.6,0.9,1.1c0.2,0.4,0.3,0.9,0.3,1.5v0.8
			c0,0.5-0.1,1-0.3,1.5c-0.2,0.4-0.5,0.8-1,1.1c-0.4,0.3-0.9,0.4-1.5,0.4c-0.6,0-1.1-0.1-1.6-0.4c-0.4-0.3-0.7-0.6-1-1.1
			C341.8,148.1,341.7,147.6,341.7,147.1z M343.2,146.3v0.8c0,0.4,0.1,0.8,0.3,1.2c0.2,0.3,0.6,0.5,1.1,0.5c0.5,0,0.8-0.2,1.1-0.5
			c0.2-0.3,0.3-0.7,0.3-1.2v-0.8c0-0.4-0.1-0.8-0.3-1.2c-0.2-0.3-0.6-0.5-1.1-0.5c-0.5,0-0.9,0.2-1.1,0.5
			C343.3,145.5,343.2,145.9,343.2,146.3z"/>
	</g>
</g>
<g>
	<g>
		<g>
			<path class="st0" d="M1147.5,59h12.6c-2.1-13.4-13.7-22.7-28.8-22.7c-17.9,0-31.3,13.1-31.3,35.2c0,21.6,12.8,35,31.7,35
				c16.9,0,29-10.9,29-28.5v-8.2H1133v9.7h15.7c-0.2,9.7-6.7,15.9-17,15.9c-11.4,0-19.3-8.6-19.3-24c0-15.4,8-23.9,19-23.9
				C1139.7,47.4,1145.3,51.8,1147.5,59z"/>
			<path class="st0" d="M1169,105.5h12.1V54.3H1169V105.5z M1175.1,46.1c3.8,0,7-2.9,7-6.5c0-3.6-3.1-6.6-7-6.6c-3.9,0-7,2.9-7,6.6
				C1168.1,43.2,1171.2,46.1,1175.1,46.1z"/>
			<path class="st0" d="M1217.3,54.3h-10.1V42h-12.1v12.3h-7.3v9.3h7.3v28.5c-0.1,9.6,6.9,14.4,16,14.1c3.4-0.1,5.8-0.8,7.1-1.2
				l-2-9.4c-0.7,0.2-2,0.5-3.5,0.5c-3,0-5.5-1.1-5.5-5.9V63.6h10.1V54.3z"/>
			<path class="st0" d="M1226.6,105.5h42.5V95.1H1239V37.2h-12.4V105.5z"/>
			<path class="st0" d="M1292.2,106.5c8,0,12.8-3.8,15-8.1h0.4v7h11.6V71.2c0-13.5-11-17.6-20.8-17.6c-10.8,0-19,4.8-21.7,14.1
				l11.3,1.6c1.2-3.5,4.6-6.5,10.5-6.5c5.6,0,8.7,2.9,8.7,7.9v0.2c0,3.5-3.6,3.6-12.7,4.6c-9.9,1.1-19.4,4-19.4,15.6
				C1275,101.2,1282.4,106.5,1292.2,106.5z M1296.2,97.7c-5,0-8.6-2.3-8.6-6.7c0-4.6,4-6.6,9.4-7.3c3.2-0.4,9.5-1.2,11.1-2.5v6
				C1308,92.8,1303.4,97.7,1296.2,97.7z"/>
			<path class="st0" d="M1328.1,105.5h11.9v-8.1h0.7c1.9,3.7,5.9,9,14.7,9c12.1,0,21.1-9.6,21.1-26.5c0-17.1-9.3-26.4-21.1-26.4
				c-9,0-12.8,5.4-14.6,9.1h-0.5V37.2h-12.1V105.5z M1340,79.9c0-9.9,4.3-16.4,12-16.4c8,0,12.2,6.8,12.2,16.4
				c0,9.6-4.2,16.6-12.2,16.6C1344.3,96.5,1340,89.8,1340,79.9z"/>
		</g>
		<g>
			<path class="st1" d="M1077.2,60.6l-0.1-0.3l-11.7-30.6c-0.2-0.6-0.7-1.1-1.2-1.5c-0.5-0.4-1.2-0.5-1.8-0.5
				c-0.6,0-1.3,0.3-1.8,0.7c-0.5,0.4-0.9,1-1,1.6l-7.9,24.3h-32.1l-7.9-24.3c-0.2-0.6-0.5-1.2-1-1.6c-0.5-0.4-1.1-0.6-1.8-0.7
				c-0.7,0-1.3,0.1-1.8,0.5c-0.5,0.3-1,0.9-1.2,1.5L994,60.3l-0.1,0.3c-3.5,9.1-0.5,19.3,7.2,25.2c0,0,0,0,0,0l0.1,0.1l17.9,13.4
				l8.8,6.7l5.4,4.1c1.3,1,3.1,1,4.4,0l5.4-4.1l8.8-6.7l18-13.5c0,0,0,0,0,0C1077.7,79.9,1080.7,69.6,1077.2,60.6z"/>
			<path class="st2" d="M1077.2,60.6l-0.1-0.3c-5.8,1.2-11.2,3.7-15.8,7.1c-0.1,0.1-14,10.6-25.8,19.5c8.8,6.6,16.4,12.4,16.4,12.4
				l18-13.5c0,0,0,0,0,0C1077.7,79.9,1080.7,69.6,1077.2,60.6z"/>
			<path class="st3" d="M1019.1,99.3l8.8,6.7l5.4,4.1c1.3,1,3.1,1,4.4,0l5.4-4.1l8.8-6.7c0,0-7.6-5.8-16.4-12.4
				C1026.8,93.5,1019.1,99.3,1019.1,99.3z"/>
			<path class="st2" d="M1009.8,67.4c-4.6-3.4-10-5.9-15.8-7.1l-0.1,0.3c-3.5,9.1-0.5,19.3,7.2,25.2c0,0,0,0,0,0l0.1,0.1l17.9,13.4
				c0,0,7.6-5.8,16.4-12.4C1023.7,77.9,1009.9,67.4,1009.8,67.4z"/>
		</g>
	</g>
	<path class="st4" d="M992.4,160.5h384.1v0.5H992.4L992.4,160.5z"/>
	<g>
		<path d="M992.4,144.9v-1.4l6.4-10.1h1.1v2.2h-0.7l-4.8,7.6v0.1h8.6v1.6H992.4z M999.3,147.8v-3.4v-0.7v-10.4h1.7v14.5H999.3z"/>
		<path d="M1010.2,148c-0.8,0-1.6-0.2-2.3-0.5c-0.7-0.3-1.2-0.8-1.6-1.4c-0.4-0.6-0.6-1.2-0.7-2h1.7c0.1,0.7,0.4,1.2,0.9,1.6
			c0.5,0.4,1.2,0.6,1.9,0.6c0.6,0,1.1-0.1,1.6-0.4s0.8-0.7,1.1-1.2s0.4-1,0.4-1.7c0-0.6-0.1-1.2-0.4-1.7c-0.3-0.5-0.7-0.9-1.1-1.2
			c-0.5-0.3-1-0.4-1.7-0.4c-0.4,0-0.9,0.1-1.4,0.2s-0.9,0.3-1.2,0.5l-1.6-0.2l0.9-7.2h7.6v1.6h-6.1l-0.5,4.3h0.1
			c0.3-0.2,0.7-0.4,1.1-0.6s0.9-0.2,1.4-0.2c0.9,0,1.7,0.2,2.4,0.6s1.2,1,1.6,1.7c0.4,0.7,0.6,1.6,0.6,2.5c0,0.9-0.2,1.8-0.6,2.5
			c-0.4,0.7-1,1.3-1.7,1.7C1011.9,147.8,1011.1,148,1010.2,148z"/>
		<path d="M1022.5,148c-1.1,0-2-0.3-2.7-0.9c-0.8-0.6-1.3-1.4-1.7-2.5s-0.6-2.5-0.6-4c0-1.6,0.2-2.9,0.6-4c0.4-1.1,1-2,1.7-2.6
			c0.8-0.6,1.7-0.9,2.7-0.9s2,0.3,2.7,0.9c0.8,0.6,1.3,1.4,1.7,2.6s0.6,2.5,0.6,4c0,1.6-0.2,2.9-0.6,4c-0.4,1.1-1,2-1.7,2.5
			C1024.5,147.8,1023.6,148,1022.5,148z M1022.5,146.5c1.1,0,1.9-0.5,2.5-1.5c0.6-1,0.9-2.5,0.9-4.4c0-1.3-0.1-2.3-0.4-3.2
			c-0.3-0.9-0.7-1.6-1.2-2c-0.5-0.5-1.1-0.7-1.8-0.7c-1.1,0-1.9,0.5-2.5,1.6c-0.6,1-0.9,2.5-0.9,4.4c0,1.3,0.1,2.3,0.4,3.2
			s0.6,1.6,1.1,2C1021.2,146.3,1021.8,146.5,1022.5,146.5z"/>
		<path d="M1030.5,136.8V136c0-0.5,0.1-1,0.3-1.5s0.5-0.8,1-1.1s0.9-0.4,1.5-0.4c0.6,0,1.1,0.1,1.5,0.4c0.4,0.3,0.7,0.6,0.9,1.1
			c0.2,0.4,0.3,0.9,0.3,1.5v0.8c0,0.5-0.1,1-0.3,1.5c-0.2,0.4-0.5,0.8-1,1.1c-0.4,0.3-0.9,0.4-1.5,0.4c-0.6,0-1.1-0.1-1.6-0.4
			s-0.7-0.6-1-1.1C1030.6,137.8,1030.5,137.3,1030.5,136.8z M1031,147.8l10-14.5h1.6l-10,14.5H1031z M1031.9,136v0.8
			c0,0.4,0.1,0.8,0.3,1.2c0.2,0.3,0.6,0.5,1.1,0.5c0.5,0,0.8-0.2,1.1-0.5c0.2-0.3,0.3-0.7,0.3-1.2V136c0-0.4-0.1-0.8-0.3-1.2
			c-0.2-0.3-0.6-0.5-1.1-0.5c-0.5,0-0.9,0.2-1.1,0.5C1032,135.2,1031.9,135.6,1031.9,136z M1037.7,145.1v-0.8c0-0.5,0.1-1,0.3-1.5
			c0.2-0.4,0.5-0.8,1-1.1s0.9-0.4,1.5-0.4c0.6,0,1.1,0.1,1.5,0.4c0.4,0.3,0.7,0.6,0.9,1.1c0.2,0.4,0.3,0.9,0.3,1.5v0.8
			c0,0.5-0.1,1-0.3,1.5s-0.5,0.8-1,1.1c-0.4,0.3-0.9,0.4-1.5,0.4c-0.6,0-1.1-0.1-1.6-0.4c-0.4-0.3-0.7-0.6-1-1.1
			C1037.8,146.1,1037.7,145.7,1037.7,145.1z M1039.2,144.4v0.8c0,0.4,0.1,0.8,0.3,1.2c0.2,0.3,0.6,0.5,1.1,0.5
			c0.5,0,0.8-0.2,1.1-0.5c0.2-0.3,0.3-0.7,0.3-1.2v-0.8c0-0.4-0.1-0.8-0.3-1.2c-0.2-0.3-0.6-0.5-1.1-0.5c-0.5,0-0.9,0.2-1.1,0.5
			C1039.3,143.5,1039.2,143.9,1039.2,144.4z"/>
	</g>
</g>
<g>
	<g>
		<g>
			<path class="st0" d="M1735.3,41.7h16.8c-2.8-17.9-18.3-30.3-38.4-30.3c-23.8,0-41.7,17.5-41.7,46.9c0,28.8,17.1,46.7,42.2,46.7
				c22.5,0,38.7-14.5,38.7-38V56h-37v12.9h21c-0.3,13-8.9,21.2-22.6,21.2c-15.3,0-25.7-11.4-25.7-32.1c0-20.5,10.6-31.9,25.4-31.9
				C1724.9,26.2,1732.3,32.1,1735.3,41.7z"/>
			<path class="st0" d="M1763.9,103.7h16.1V35.4h-16.1V103.7z M1772,24.6c5.1,0,9.3-3.9,9.3-8.7c0-4.8-4.2-8.8-9.3-8.8
				c-5.2,0-9.3,3.9-9.3,8.8C1762.7,20.7,1766.9,24.6,1772,24.6z"/>
			<path class="st0" d="M1828.3,35.4h-13.5V19h-16.1v16.4h-9.7v12.5h9.7v38c-0.1,12.9,9.3,19.2,21.3,18.8c4.6-0.1,7.7-1,9.5-1.6
				l-2.7-12.6c-0.9,0.2-2.7,0.6-4.7,0.6c-4,0-7.3-1.4-7.3-7.9V47.8h13.5V35.4z"/>
			<path class="st0" d="M1840.7,103.7h56.6V89.9h-40.1V12.6h-16.5V103.7z"/>
			<path class="st0" d="M1928.2,105.1c10.7,0,17.1-5,20.1-10.8h0.5v9.4h15.5V58c0-18.1-14.7-23.5-27.8-23.5
				c-14.4,0-25.4,6.4-29,18.9l15,2.1c1.6-4.7,6.1-8.7,14-8.7c7.5,0,11.6,3.8,11.6,10.5v0.3c0,4.6-4.8,4.8-16.9,6.1
				c-13.3,1.4-25.9,5.4-25.9,20.8C1905.3,98,1915.1,105.1,1928.2,105.1z M1933.5,93.3c-6.7,0-11.5-3.1-11.5-9
				c0-6.2,5.4-8.8,12.6-9.8c4.2-0.6,12.7-1.6,14.8-3.3v8C1949.3,86.8,1943.2,93.3,1933.5,93.3z"/>
			<path class="st0" d="M1976.1,103.7h15.8V92.9h0.9c2.5,5,7.8,12,19.6,12c16.1,0,28.2-12.8,28.2-35.3c0-22.8-12.4-35.1-28.2-35.1
				c-12.1,0-17.1,7.2-19.5,12.2h-0.7V12.6h-16.1V103.7z M1991.9,69.6c0-13.3,5.7-21.8,16.1-21.8c10.7,0,16.2,9.1,16.2,21.8
				c0,12.8-5.6,22.1-16.2,22.1C1997.7,91.7,1991.9,82.8,1991.9,69.6z"/>
		</g>
		<g>
			<path class="st1" d="M1641.5,43.8l-0.2-0.4l-15.6-40.8c-0.3-0.8-0.9-1.5-1.6-1.9c-0.7-0.5-1.6-0.7-2.5-0.6
				c-0.9,0-1.7,0.4-2.4,0.9c-0.7,0.5-1.2,1.3-1.4,2.1l-10.6,32.3h-42.7L1554.1,3c-0.2-0.8-0.7-1.6-1.4-2.1c-0.7-0.5-1.5-0.9-2.4-0.9
				c-0.9,0-1.7,0.2-2.5,0.6c-0.7,0.5-1.3,1.1-1.6,1.9l-15.6,40.8l-0.2,0.4c-4.6,12.1-0.7,25.8,9.6,33.6c0,0,0,0,0.1,0l0.1,0.1
				l23.8,17.8l11.8,8.9l7.2,5.4c1.7,1.3,4.1,1.3,5.8,0l7.2-5.4l11.8-8.9l24-17.9c0,0,0,0,0.1,0C1642.2,69.6,1646.2,55.9,1641.5,43.8
				z"/>
			<path class="st2" d="M1641.5,43.8l-0.2-0.4c-7.8,1.6-14.9,4.9-21,9.5c-0.1,0.1-18.6,14.1-34.4,26c11.7,8.8,21.9,16.5,21.9,16.5
				l24-17.9c0,0,0,0,0.1,0C1642.2,69.6,1646.2,55.9,1641.5,43.8z"/>
			<path class="st3" d="M1564.1,95.4l11.8,8.9l7.2,5.4c1.7,1.3,4.1,1.3,5.8,0l7.2-5.4l11.8-8.9c0,0-10.2-7.7-21.9-16.5
				C1574.3,87.7,1564.1,95.4,1564.1,95.4z"/>
			<path class="st2" d="M1551.6,52.9c-6.1-4.6-13.3-7.9-21-9.5l-0.2,0.4c-4.6,12.1-0.7,25.8,9.6,33.6c0,0,0,0,0.1,0l0.1,0.1
				l23.8,17.8c0,0,10.2-7.7,21.9-16.5C1570.2,66.9,1551.7,52.9,1551.6,52.9z"/>
		</g>
	</g>
	<path class="st4" d="M1528.5,160.5h512.1v0.5h-512.1V160.5z"/>
	<g>
		<path d="M1533.6,150c-0.6,0-1.2-0.1-1.8-0.3s-1.1-0.6-1.6-1.1c-0.5-0.5-0.9-1.2-1.2-2.1s-0.4-2-0.4-3.3c0-1.3,0.1-2.4,0.4-3.4
			c0.2-1,0.6-1.8,1.1-2.5s1-1.2,1.7-1.6c0.7-0.4,1.4-0.5,2.2-0.5c0.8,0,1.5,0.2,2.2,0.5s1.2,0.8,1.6,1.4c0.4,0.6,0.7,1.2,0.8,2h-1.7
			c-0.2-0.7-0.5-1.2-0.9-1.6c-0.5-0.4-1.1-0.6-1.8-0.6c-1.1,0-2,0.5-2.7,1.5c-0.6,1-1,2.4-1,4.1h0.1c0.3-0.4,0.6-0.7,0.9-1
			c0.4-0.3,0.8-0.5,1.2-0.7c0.4-0.2,0.9-0.2,1.4-0.2c0.8,0,1.6,0.2,2.3,0.6s1.2,1,1.7,1.7c0.4,0.7,0.6,1.6,0.6,2.5
			c0,0.9-0.2,1.7-0.6,2.5c-0.4,0.7-1,1.3-1.7,1.8C1535.4,149.8,1534.5,150,1533.6,150z M1533.6,148.4c0.6,0,1.1-0.1,1.6-0.4
			c0.5-0.3,0.9-0.7,1.1-1.2c0.3-0.5,0.4-1.1,0.4-1.7c0-0.6-0.1-1.1-0.4-1.6c-0.3-0.5-0.6-0.9-1.1-1.2c-0.5-0.3-1-0.4-1.6-0.4
			c-0.4,0-0.9,0.1-1.3,0.3c-0.4,0.2-0.7,0.4-1,0.7s-0.5,0.7-0.7,1.1c-0.2,0.4-0.2,0.8-0.2,1.2c0,0.6,0.1,1.1,0.4,1.6
			c0.3,0.5,0.6,0.9,1.1,1.2S1533,148.4,1533.6,148.4z"/>
		<path d="M1546,150c-1.1,0-2-0.3-2.7-0.9s-1.3-1.4-1.7-2.5s-0.6-2.5-0.6-4c0-1.6,0.2-2.9,0.6-4c0.4-1.1,1-2,1.7-2.6
			c0.8-0.6,1.7-0.9,2.7-0.9s2,0.3,2.7,0.9c0.8,0.6,1.3,1.4,1.7,2.6s0.6,2.5,0.6,4c0,1.6-0.2,2.9-0.6,4c-0.4,1.1-1,2-1.7,2.5
			S1547,150,1546,150z M1546,148.4c1.1,0,1.9-0.5,2.5-1.5s0.9-2.5,0.9-4.4c0-1.3-0.1-2.3-0.4-3.2c-0.3-0.9-0.7-1.6-1.2-2
			c-0.5-0.5-1.1-0.7-1.8-0.7c-1.1,0-1.9,0.5-2.5,1.6c-0.6,1-0.9,2.5-0.9,4.4c0,1.3,0.1,2.3,0.4,3.2c0.3,0.9,0.6,1.6,1.1,2
			C1544.6,148.2,1545.2,148.4,1546,148.4z"/>
		<path d="M1558.5,150c-1.1,0-2-0.3-2.7-0.9s-1.3-1.4-1.7-2.5s-0.6-2.5-0.6-4c0-1.6,0.2-2.9,0.6-4c0.4-1.1,1-2,1.7-2.6
			c0.8-0.6,1.7-0.9,2.7-0.9s2,0.3,2.7,0.9c0.8,0.6,1.3,1.4,1.7,2.6s0.6,2.5,0.6,4c0,1.6-0.2,2.9-0.6,4c-0.4,1.1-1,2-1.7,2.5
			S1559.5,150,1558.5,150z M1558.5,148.4c1.1,0,1.9-0.5,2.5-1.5s0.9-2.5,0.9-4.4c0-1.3-0.1-2.3-0.4-3.2c-0.3-0.9-0.7-1.6-1.2-2
			c-0.5-0.5-1.1-0.7-1.8-0.7c-1.1,0-1.9,0.5-2.5,1.6c-0.6,1-0.9,2.5-0.9,4.4c0,1.3,0.1,2.3,0.4,3.2c0.3,0.9,0.6,1.6,1.1,2
			C1557.1,148.2,1557.7,148.4,1558.5,148.4z"/>
		<path d="M1566.4,138.7v-0.8c0-0.5,0.1-1,0.3-1.5c0.2-0.4,0.5-0.8,1-1.1s0.9-0.4,1.5-0.4c0.6,0,1.1,0.1,1.5,0.4s0.7,0.6,0.9,1.1
			c0.2,0.4,0.3,0.9,0.3,1.5v0.8c0,0.5-0.1,1-0.3,1.5c-0.2,0.4-0.5,0.8-1,1.1s-0.9,0.4-1.5,0.4c-0.6,0-1.1-0.1-1.6-0.4
			c-0.4-0.3-0.7-0.6-1-1.1C1566.5,139.7,1566.4,139.2,1566.4,138.7z M1566.9,149.8l10-14.5h1.6l-10,14.5H1566.9z M1567.8,137.9v0.8
			c0,0.4,0.1,0.8,0.3,1.2c0.2,0.3,0.6,0.5,1.1,0.5c0.5,0,0.8-0.2,1.1-0.5c0.2-0.3,0.3-0.7,0.3-1.2v-0.8c0-0.4-0.1-0.8-0.3-1.2
			c-0.2-0.3-0.6-0.5-1.1-0.5c-0.5,0-0.9,0.2-1.1,0.5C1567.9,137.1,1567.8,137.5,1567.8,137.9z M1573.6,147v-0.8c0-0.5,0.1-1,0.3-1.5
			c0.2-0.4,0.5-0.8,1-1.1s0.9-0.4,1.5-0.4c0.6,0,1.1,0.1,1.5,0.4c0.4,0.3,0.7,0.6,0.9,1.1c0.2,0.4,0.3,0.9,0.3,1.5v0.8
			c0,0.5-0.1,1-0.3,1.5s-0.5,0.8-1,1.1c-0.4,0.3-0.9,0.4-1.5,0.4c-0.6,0-1.1-0.1-1.6-0.4c-0.4-0.3-0.7-0.6-1-1.1
			S1573.6,147.6,1573.6,147z M1575.1,146.3v0.8c0,0.4,0.1,0.8,0.3,1.2c0.2,0.3,0.6,0.5,1.1,0.5c0.5,0,0.8-0.2,1.1-0.5
			c0.2-0.3,0.3-0.7,0.3-1.2v-0.8c0-0.4-0.1-0.8-0.3-1.2c-0.2-0.3-0.6-0.5-1.1-0.5c-0.5,0-0.9,0.2-1.1,0.5
			C1575.2,145.4,1575.1,145.8,1575.1,146.3z"/>
	</g>
</g>
<g>
	<g>
		<g>
			<path class="st0" d="M683.5,76.2h8.4c-1.4-8.9-9.1-15.2-19.2-15.2c-11.9,0-20.9,8.8-20.9,23.4c0,14.4,8.5,23.3,21.1,23.3
				c11.3,0,19.3-7.2,19.3-19v-5.5h-18.5v6.4h10.5c-0.1,6.5-4.5,10.6-11.3,10.6c-7.6,0-12.9-5.7-12.9-16c0-10.3,5.3-15.9,12.7-15.9
				C678.3,68.5,682,71.4,683.5,76.2z"/>
			<path class="st0" d="M697.8,107.2h8V73.1h-8V107.2z M701.9,67.7c2.6,0,4.6-2,4.6-4.4c0-2.4-2.1-4.4-4.6-4.4c-2.6,0-4.7,2-4.7,4.4
				C697.2,65.7,699.3,67.7,701.9,67.7z"/>
			<path class="st0" d="M730,73.1h-6.7v-8.2h-8v8.2h-4.8v6.2h4.8v19c0,6.4,4.6,9.6,10.7,9.4c2.3-0.1,3.9-0.5,4.7-0.8l-1.4-6.3
				c-0.4,0.1-1.4,0.3-2.4,0.3c-2,0-3.6-0.7-3.6-4V79.3h6.7V73.1z"/>
			<path class="st0" d="M736.2,107.2h28.3v-6.9h-20.1V61.7h-8.3V107.2z"/>
			<path class="st0" d="M779.9,107.9c5.4,0,8.6-2.5,10-5.4h0.3v4.7h7.7V84.4c0-9-7.4-11.7-13.9-11.7c-7.2,0-12.7,3.2-14.5,9.4
				l7.5,1.1c0.8-2.3,3.1-4.3,7-4.3c3.7,0,5.8,1.9,5.8,5.3v0.1c0,2.3-2.4,2.4-8.5,3.1c-6.6,0.7-13,2.7-13,10.4
				C768.5,104.4,773.4,107.9,779.9,107.9z M782.6,102c-3.4,0-5.8-1.5-5.8-4.5c0-3.1,2.7-4.4,6.3-4.9c2.1-0.3,6.3-0.8,7.4-1.7v4
				C790.5,98.8,787.4,102,782.6,102z"/>
			<path class="st0" d="M803.9,107.2h7.9v-5.4h0.5c1.3,2.5,3.9,6,9.8,6c8,0,14.1-6.4,14.1-17.6c0-11.4-6.2-17.6-14.1-17.6
				c-6,0-8.5,3.6-9.8,6.1H812v-17h-8.1V107.2z M811.8,90.2c0-6.6,2.8-10.9,8-10.9c5.4,0,8.1,4.6,8.1,10.9c0,6.4-2.8,11.1-8.1,11.1
				C814.7,101.2,811.8,96.8,811.8,90.2z"/>
		</g>
		<g>
			<path class="st1" d="M636.6,77.3l-0.1-0.2l-7.8-20.4c-0.2-0.4-0.4-0.7-0.8-1c-0.4-0.2-0.8-0.3-1.2-0.3c-0.4,0-0.8,0.2-1.2,0.4
				c-0.3,0.3-0.6,0.6-0.7,1.1l-5.3,16.2h-21.4l-5.3-16.2c-0.1-0.4-0.4-0.8-0.7-1.1c-0.3-0.3-0.8-0.4-1.2-0.4c-0.4,0-0.9,0.1-1.2,0.3
				c-0.4,0.2-0.6,0.6-0.8,1l-7.8,20.4l-0.1,0.2c-2.3,6-0.3,12.9,4.8,16.8c0,0,0,0,0,0l0.1,0.1l11.9,8.9l5.9,4.5l3.6,2.7
				c0.9,0.7,2.1,0.7,2.9,0l3.6-2.7l5.9-4.5l12-9c0,0,0,0,0,0C637,90.2,638.9,83.4,636.6,77.3z"/>
			<path class="st2" d="M636.6,77.3l-0.1-0.2c-3.9,0.8-7.5,2.4-10.5,4.7c0,0-9.3,7-17.2,13c5.8,4.4,10.9,8.3,10.9,8.3l12-9
				c0,0,0,0,0,0C637,90.2,638.9,83.4,636.6,77.3z"/>
			<path class="st3" d="M597.9,103.1l5.9,4.5l3.6,2.7c0.9,0.7,2.1,0.7,2.9,0l3.6-2.7l5.9-4.5c0,0-5.1-3.8-10.9-8.3
				C603,99.2,597.9,103.1,597.9,103.1z"/>
			<path class="st2" d="M591.7,81.8c-3.1-2.3-6.6-3.9-10.5-4.7l-0.1,0.2c-2.3,6-0.3,12.9,4.8,16.8c0,0,0,0,0,0l0.1,0.1l11.9,8.9
				c0,0,5.1-3.8,10.9-8.3C601,88.9,591.7,81.9,591.7,81.8z"/>
		</g>
	</g>
	<path class="st4" d="M580.1,160.5h255.4v0.5H580.1V160.5z"/>
	<g>
		<path d="M585.1,150c-0.9,0-1.8-0.2-2.5-0.5c-0.7-0.3-1.3-0.8-1.7-1.3s-0.7-1.2-0.7-2h1.8c0,0.5,0.2,0.9,0.5,1.2
			c0.3,0.3,0.7,0.6,1.1,0.8c0.5,0.2,1,0.3,1.5,0.3c0.6,0,1.2-0.1,1.7-0.3c0.5-0.2,0.9-0.5,1.1-0.9c0.3-0.4,0.4-0.8,0.4-1.3
			c0-0.5-0.1-1-0.4-1.4c-0.3-0.4-0.7-0.7-1.2-1c-0.5-0.2-1.1-0.3-1.9-0.3h-1.2v-1.6h1.2c0.6,0,1.1-0.1,1.5-0.3s0.8-0.5,1-0.9
			c0.2-0.4,0.4-0.8,0.4-1.3c0-0.5-0.1-0.9-0.3-1.3c-0.2-0.4-0.5-0.6-0.9-0.9c-0.4-0.2-0.9-0.3-1.4-0.3c-0.5,0-1,0.1-1.4,0.3
			c-0.4,0.2-0.8,0.4-1.1,0.8c-0.3,0.3-0.4,0.8-0.5,1.2h-1.7c0-0.8,0.3-1.4,0.7-2c0.4-0.6,1-1,1.7-1.3c0.7-0.3,1.5-0.5,2.3-0.5
			c0.9,0,1.7,0.2,2.3,0.5c0.6,0.4,1.1,0.8,1.5,1.4s0.5,1.2,0.5,1.9c0,0.8-0.2,1.5-0.6,2.1c-0.4,0.6-1,1-1.7,1.2v0.1
			c0.9,0.2,1.6,0.5,2.2,1.2c0.5,0.6,0.8,1.4,0.8,2.3c0,0.8-0.2,1.5-0.6,2.1c-0.4,0.6-1,1.1-1.8,1.5C586.8,149.9,586,150,585.1,150z"
			/>
		<path d="M597.6,150c-1.1,0-2-0.3-2.7-0.9s-1.3-1.4-1.7-2.5c-0.4-1.1-0.6-2.5-0.6-4c0-1.6,0.2-2.9,0.6-4c0.4-1.1,1-2,1.7-2.6
			c0.8-0.6,1.7-0.9,2.7-0.9s2,0.3,2.7,0.9c0.8,0.6,1.3,1.4,1.7,2.6c0.4,1.1,0.6,2.5,0.6,4c0,1.6-0.2,2.9-0.6,4c-0.4,1.1-1,2-1.7,2.5
			S598.7,150,597.6,150z M597.6,148.5c1.1,0,1.9-0.5,2.5-1.5c0.6-1,0.9-2.5,0.9-4.4c0-1.3-0.1-2.3-0.4-3.2c-0.3-0.9-0.7-1.6-1.2-2
			s-1.1-0.7-1.8-0.7c-1.1,0-1.9,0.5-2.5,1.6c-0.6,1-0.9,2.5-0.9,4.4c0,1.3,0.1,2.3,0.4,3.2s0.6,1.6,1.1,2
			C596.3,148.3,596.9,148.5,597.6,148.5z"/>
		<path d="M610.1,150c-1.1,0-2-0.3-2.7-0.9s-1.3-1.4-1.7-2.5c-0.4-1.1-0.6-2.5-0.6-4c0-1.6,0.2-2.9,0.6-4c0.4-1.1,1-2,1.7-2.6
			c0.8-0.6,1.7-0.9,2.7-0.9s2,0.3,2.7,0.9c0.8,0.6,1.3,1.4,1.7,2.6c0.4,1.1,0.6,2.5,0.6,4c0,1.6-0.2,2.9-0.6,4c-0.4,1.1-1,2-1.7,2.5
			S611.2,150,610.1,150z M610.1,148.5c1.1,0,1.9-0.5,2.5-1.5c0.6-1,0.9-2.5,0.9-4.4c0-1.3-0.1-2.3-0.4-3.2c-0.3-0.9-0.7-1.6-1.2-2
			s-1.1-0.7-1.8-0.7c-1.1,0-1.9,0.5-2.5,1.6c-0.6,1-0.9,2.5-0.9,4.4c0,1.3,0.1,2.3,0.4,3.2s0.6,1.6,1.1,2
			C608.8,148.3,609.4,148.5,610.1,148.5z"/>
		<path d="M618,138.8V138c0-0.5,0.1-1,0.3-1.5s0.5-0.8,1-1.1s0.9-0.4,1.5-0.4c0.6,0,1.1,0.1,1.5,0.4c0.4,0.3,0.7,0.6,0.9,1.1
			c0.2,0.4,0.3,0.9,0.3,1.5v0.8c0,0.5-0.1,1-0.3,1.5c-0.2,0.4-0.5,0.8-1,1.1s-0.9,0.4-1.5,0.4c-0.6,0-1.1-0.1-1.6-0.4
			s-0.7-0.6-1-1.1C618.2,139.8,618,139.3,618,138.8z M618.6,149.8l10-14.5h1.6l-10,14.5H618.6z M619.5,138v0.8
			c0,0.4,0.1,0.8,0.3,1.2c0.2,0.3,0.6,0.5,1.1,0.5c0.5,0,0.8-0.2,1.1-0.5c0.2-0.3,0.3-0.7,0.3-1.2V138c0-0.4-0.1-0.8-0.3-1.2
			c-0.2-0.3-0.6-0.5-1.1-0.5c-0.5,0-0.9,0.2-1.1,0.5C619.6,137.2,619.5,137.6,619.5,138z M625.3,147.1v-0.8c0-0.5,0.1-1,0.3-1.5
			c0.2-0.4,0.5-0.8,1-1.1c0.4-0.3,0.9-0.4,1.5-0.4c0.6,0,1.1,0.1,1.5,0.4s0.7,0.6,0.9,1.1c0.2,0.4,0.3,0.9,0.3,1.5v0.8
			c0,0.5-0.1,1-0.3,1.5c-0.2,0.4-0.5,0.8-1,1.1c-0.4,0.3-0.9,0.4-1.5,0.4c-0.6,0-1.1-0.1-1.6-0.4s-0.7-0.6-1-1.1
			S625.3,147.6,625.3,147.1z M626.7,146.4v0.8c0,0.4,0.1,0.8,0.3,1.2c0.2,0.3,0.6,0.5,1.1,0.5c0.5,0,0.8-0.2,1.1-0.5
			c0.2-0.3,0.3-0.7,0.3-1.2v-0.8c0-0.4-0.1-0.8-0.3-1.2c-0.2-0.3-0.6-0.5-1.1-0.5c-0.5,0-0.9,0.2-1.1,0.5
			C626.8,145.5,626.7,145.9,626.7,146.4z"/>
	</g>
</g>
</svg>
