<svg xmlns="http://www.w3.org/2000/svg" viewBox="0 0 960.17 984.11"><defs><style>.cls-1{fill:#a2a1a6}.cls-2{fill:#171321}.cls-3{fill:#e24329}.cls-4{fill:#fc6d26}.cls-5{fill:#fca326}</style></defs><g id="Layer_2" data-name="Layer 2"><g id="Layer_1-2" data-name="Layer 1"><path class="cls-1" transform="rotate(-89.89 480.032 460.052)" d="M479.75-19.95h.5v960h-.5z"/><path class="cls-1" d="M.17 225.76h960v.5H.17z"/><path class="cls-2" d="m925 175.11 2.62 4.46 2.61-4.46h1.93l-3.52 5.45 3.52 5.45h-1.93l-2.61-4.23L925 186h-1.93l3.47-5.45-3.47-5.45Zm-11.34 5.45a5.89 5.89 0 0 0 .37 2.18 3.24 3.24 0 0 0 1 1.47 2.79 2.79 0 0 0 1.71.53 2.74 2.74 0 0 0 1.75-.56 3.33 3.33 0 0 0 1.07-1.5 6 6 0 0 0 .36-2.12 5.83 5.83 0 0 0-.35-2.07 3.29 3.29 0 0 0-1.06-1.47 3.11 3.11 0 0 0-3.49 0 3.17 3.17 0 0 0-1 1.43 5.85 5.85 0 0 0-.38 2.11Zm-1.66 9.55v-15h1.62v1.73h.19l.52-.73a3.05 3.05 0 0 1 .95-.79A3.37 3.37 0 0 1 917 175a4.32 4.32 0 0 1 2.43.69 4.62 4.62 0 0 1 1.64 2 7 7 0 0 1 .59 3 7.1 7.1 0 0 1-.59 3 4.62 4.62 0 0 1-1.64 2 4.23 4.23 0 0 1-2.4.69 3.43 3.43 0 0 1-1.69-.35 3 3 0 0 1-1-.8c-.23-.3-.4-.55-.53-.75h-.14v5.77Zm-13.41-5.46a2.73 2.73 0 0 0 2.47-1.53 8.88 8.88 0 0 0 .88-4.38 11.16 11.16 0 0 0-.41-3.22 4.29 4.29 0 0 0-1.15-2 2.53 2.53 0 0 0-1.79-.7 2.74 2.74 0 0 0-2.47 1.56 8.9 8.9 0 0 0-.89 4.38 11.42 11.42 0 0 0 .4 3.21 4.43 4.43 0 0 0 1.15 2 2.57 2.57 0 0 0 1.81.68Zm0 1.56a4.38 4.38 0 0 1-2.74-.87 5.45 5.45 0 0 1-1.72-2.55 13.9 13.9 0 0 1 0-8.08 5.53 5.53 0 0 1 1.73-2.55 4.62 4.62 0 0 1 5.45 0 5.53 5.53 0 0 1 1.73 2.55 12 12 0 0 1 .6 4 12.37 12.37 0 0 1-.59 4 5.53 5.53 0 0 1-1.73 2.55 4.33 4.33 0 0 1-2.73.95Zm-12.5-1.56a2.73 2.73 0 0 0 2.47-1.53 8.88 8.88 0 0 0 .88-4.38 11.16 11.16 0 0 0-.41-3.22 4.29 4.29 0 0 0-1.15-2 2.53 2.53 0 0 0-1.79-.7 2.74 2.74 0 0 0-2.47 1.56 8.9 8.9 0 0 0-.89 4.38 11.42 11.42 0 0 0 .4 3.21 4.43 4.43 0 0 0 1.15 2 2.57 2.57 0 0 0 1.81.68Zm0 1.56a4.38 4.38 0 0 1-2.74-.87 5.45 5.45 0 0 1-1.72-2.55 13.9 13.9 0 0 1 0-8.08 5.53 5.53 0 0 1 1.73-2.55 4.62 4.62 0 0 1 5.45 0 5.53 5.53 0 0 1 1.73 2.55 12 12 0 0 1 .6 4 12.37 12.37 0 0 1-.59 4 5.53 5.53 0 0 1-1.73 2.55 4.33 4.33 0 0 1-2.73.95Zm-16.86-.2v-1.27l4.8-5.26c.57-.62 1-1.15 1.4-1.6a6.19 6.19 0 0 0 .81-1.3 3.09 3.09 0 0 0 .27-1.28 2.35 2.35 0 0 0-1.37-2.19 3.25 3.25 0 0 0-1.42-.31 3 3 0 0 0-1.46.35 2.46 2.46 0 0 0-1 1 3 3 0 0 0-.33 1.45h-1.68a4.23 4.23 0 0 1 .59-2.24 4.08 4.08 0 0 1 1.6-1.51 4.88 4.88 0 0 1 2.3-.54 4.61 4.61 0 0 1 2.26.54 4 4 0 0 1 1.55 1.46 3.76 3.76 0 0 1 .56 2 4.24 4.24 0 0 1-.29 1.57 6.89 6.89 0 0 1-1 1.7 28.6 28.6 0 0 1-2 2.27l-3.26 3.5v.11h6.76V186ZM925 424.11l2.62 4.46 2.61-4.46h1.93l-3.52 5.45 3.52 5.45h-1.93l-2.61-4.23L925 435h-1.93l3.47-5.45-3.47-5.45Zm-11.34 5.45a5.89 5.89 0 0 0 .37 2.18 3.24 3.24 0 0 0 1 1.47 2.79 2.79 0 0 0 1.71.53 2.74 2.74 0 0 0 1.75-.56 3.33 3.33 0 0 0 1.07-1.5 6 6 0 0 0 .36-2.12 5.62 5.62 0 0 0-.36-2.07 3.2 3.2 0 0 0-1.05-1.47 3.11 3.11 0 0 0-3.49 0 3.17 3.17 0 0 0-1 1.43 5.85 5.85 0 0 0-.38 2.11Zm-1.66 9.55v-15h1.61v1.73h.2l.51-.73a3.1 3.1 0 0 1 1-.79A3.37 3.37 0 0 1 917 424a4.32 4.32 0 0 1 2.43.69 4.62 4.62 0 0 1 1.64 2 7 7 0 0 1 .59 3 7.1 7.1 0 0 1-.59 3 4.62 4.62 0 0 1-1.64 2 4.25 4.25 0 0 1-2.4.69 3.4 3.4 0 0 1-1.69-.35 3 3 0 0 1-1-.8c-.23-.3-.4-.55-.53-.75h-.14v5.77Zm-13.41-5.46a2.73 2.73 0 0 0 2.47-1.53 8.88 8.88 0 0 0 .88-4.38 11.16 11.16 0 0 0-.41-3.22 4.29 4.29 0 0 0-1.15-2 2.53 2.53 0 0 0-1.79-.7 2.74 2.74 0 0 0-2.47 1.56 8.9 8.9 0 0 0-.89 4.38 11.42 11.42 0 0 0 .4 3.21 4.43 4.43 0 0 0 1.15 2 2.57 2.57 0 0 0 1.81.68Zm0 1.56a4.36 4.36 0 0 1-2.74-.87 5.45 5.45 0 0 1-1.72-2.55 13.9 13.9 0 0 1 0-8.08 5.53 5.53 0 0 1 1.73-2.55 4.62 4.62 0 0 1 5.45 0 5.53 5.53 0 0 1 1.73 2.55 12 12 0 0 1 .6 4 12.37 12.37 0 0 1-.59 4.05 5.53 5.53 0 0 1-1.73 2.55 4.33 4.33 0 0 1-2.73.9Zm-12.37 0a5 5 0 0 1-2.25-.49 4.31 4.31 0 0 1-1.61-1.37 3.74 3.74 0 0 1-.66-2h1.71a2.3 2.3 0 0 0 .89 1.63 3.21 3.21 0 0 0 3.51.22 2.9 2.9 0 0 0 1.1-1.15 3.63 3.63 0 0 0 0-3.37 3.13 3.13 0 0 0-2.79-1.62 4.37 4.37 0 0 0-1.37.2 3.79 3.79 0 0 0-1.16.54l-1.65-.2.88-7.16h7.56V422h-6.08l-.51 4.29h.08a3.81 3.81 0 0 1 1.12-.59 4.63 4.63 0 0 1 3.79.41 4.5 4.5 0 0 1 1.65 1.73 5.15 5.15 0 0 1 .6 2.51 5 5 0 0 1-.62 2.49 4.63 4.63 0 0 1-1.71 1.72 4.82 4.82 0 0 1-2.48.65Zm-8.73-14.74V435h-1.76v-12.68h-.09l-3.55 2.35v-1.79l3.64-2.41Z"/><path class="cls-1" d="M.17 643.76h960v.5H.17z"/><path class="cls-2" d="m925 617.11 2.62 4.46 2.61-4.46h1.93l-3.52 5.45 3.52 5.45h-1.93l-2.61-4.23L925 628h-1.93l3.47-5.45-3.47-5.45Zm-11.34 5.45a5.89 5.89 0 0 0 .37 2.18 3.24 3.24 0 0 0 1 1.47 2.79 2.79 0 0 0 1.71.53 2.74 2.74 0 0 0 1.75-.56 3.33 3.33 0 0 0 1.07-1.5 6 6 0 0 0 .36-2.12 5.62 5.62 0 0 0-.36-2.07 3.2 3.2 0 0 0-1.05-1.47 3.11 3.11 0 0 0-3.49 0 3.17 3.17 0 0 0-1 1.43 5.85 5.85 0 0 0-.38 2.11Zm-1.66 9.55v-15h1.61v1.73h.2l.52-.73a2.94 2.94 0 0 1 .95-.79A3.37 3.37 0 0 1 917 617a4.32 4.32 0 0 1 2.43.69 4.62 4.62 0 0 1 1.64 2 7 7 0 0 1 .59 3 7.1 7.1 0 0 1-.59 3 4.62 4.62 0 0 1-1.64 2 4.25 4.25 0 0 1-2.4.69 3.4 3.4 0 0 1-1.69-.35 3 3 0 0 1-1-.8c-.23-.3-.4-.55-.53-.75h-.14v5.77Zm-13.41-5.46a2.73 2.73 0 0 0 2.47-1.53 8.88 8.88 0 0 0 .88-4.38 11.16 11.16 0 0 0-.41-3.22 4.29 4.29 0 0 0-1.15-2 2.53 2.53 0 0 0-1.79-.7 2.74 2.74 0 0 0-2.47 1.56 8.9 8.9 0 0 0-.89 4.38 11.42 11.42 0 0 0 .4 3.21 4.43 4.43 0 0 0 1.15 2 2.57 2.57 0 0 0 1.81.68Zm0 1.56a4.36 4.36 0 0 1-2.74-.87 5.45 5.45 0 0 1-1.72-2.55 13.9 13.9 0 0 1 0-8.08 5.53 5.53 0 0 1 1.73-2.55 4.62 4.62 0 0 1 5.45 0 5.53 5.53 0 0 1 1.73 2.55 12 12 0 0 1 .6 4 12.37 12.37 0 0 1-.59 4 5.53 5.53 0 0 1-1.73 2.55 4.33 4.33 0 0 1-2.73.95Zm-12.5-1.56a2.73 2.73 0 0 0 2.47-1.53 8.88 8.88 0 0 0 .88-4.38 11.16 11.16 0 0 0-.41-3.22 4.29 4.29 0 0 0-1.15-2 2.53 2.53 0 0 0-1.79-.7 2.74 2.74 0 0 0-2.47 1.56 8.9 8.9 0 0 0-.89 4.38 11.42 11.42 0 0 0 .4 3.21 4.43 4.43 0 0 0 1.15 2 2.57 2.57 0 0 0 1.81.68Zm0 1.56a4.36 4.36 0 0 1-2.74-.87 5.45 5.45 0 0 1-1.72-2.55 13.9 13.9 0 0 1 0-8.08 5.53 5.53 0 0 1 1.73-2.55 4.62 4.62 0 0 1 5.45 0 5.53 5.53 0 0 1 1.73 2.55 12 12 0 0 1 .6 4 12.37 12.37 0 0 1-.59 4 5.53 5.53 0 0 1-1.73 2.55 4.33 4.33 0 0 1-2.73.95Zm-8.93-14.74V628h-1.76v-12.68h-.09l-3.55 2.35v-1.79l3.64-2.41Z"/><path class="cls-1" d="M.17 783.76h960v.5H.17z"/><path class="cls-2" d="m925 752.11 2.62 4.46 2.61-4.46h1.93l-3.52 5.45 3.52 5.45h-1.93l-2.61-4.23L925 763h-1.93l3.47-5.45-3.47-5.45Zm-11.34 5.45a5.89 5.89 0 0 0 .37 2.18 3.24 3.24 0 0 0 1 1.47 2.79 2.79 0 0 0 1.71.53 2.74 2.74 0 0 0 1.75-.56 3.33 3.33 0 0 0 1.07-1.5 6 6 0 0 0 .36-2.12 5.62 5.62 0 0 0-.36-2.07 3.2 3.2 0 0 0-1.05-1.47 3.11 3.11 0 0 0-3.49 0 3.1 3.1 0 0 0-1 1.43 5.85 5.85 0 0 0-.38 2.11Zm-1.66 9.55v-15h1.61v1.73h.2l.52-.73a2.94 2.94 0 0 1 .95-.79A3.37 3.37 0 0 1 917 752a4.32 4.32 0 0 1 2.43.69 4.62 4.62 0 0 1 1.64 2 7 7 0 0 1 .59 3 7.1 7.1 0 0 1-.59 3 4.62 4.62 0 0 1-1.64 2 4.25 4.25 0 0 1-2.4.69 3.4 3.4 0 0 1-1.69-.35 3 3 0 0 1-1-.8c-.23-.3-.4-.55-.53-.75h-.14v5.77Zm-13.41-5.46a2.73 2.73 0 0 0 2.47-1.53 9 9 0 0 0 .88-4.38 11.16 11.16 0 0 0-.41-3.22 4.38 4.38 0 0 0-1.15-2 2.53 2.53 0 0 0-1.79-.7 2.73 2.73 0 0 0-2.47 1.56 8.9 8.9 0 0 0-.89 4.38 11.42 11.42 0 0 0 .4 3.21 4.51 4.51 0 0 0 1.14 2 2.61 2.61 0 0 0 1.82.68Zm0 1.56a4.36 4.36 0 0 1-2.74-.87 5.45 5.45 0 0 1-1.72-2.55 13.9 13.9 0 0 1 0-8.08 5.53 5.53 0 0 1 1.73-2.55 4.62 4.62 0 0 1 5.45 0 5.53 5.53 0 0 1 1.73 2.55 12 12 0 0 1 .6 4 12.37 12.37 0 0 1-.59 4 5.53 5.53 0 0 1-1.73 2.55 4.33 4.33 0 0 1-2.73.95Zm-12.4-1.56a3 3 0 0 0 1.61-.45 3.19 3.19 0 0 0 1.13-1.2 3.58 3.58 0 0 0 0-3.31 3.08 3.08 0 0 0-1.1-1.19 3.09 3.09 0 0 0-2.85-.17 3.27 3.27 0 0 0-1.7 1.78 3.14 3.14 0 0 0-.25 1.25 3.33 3.33 0 0 0 1.53 2.83 2.87 2.87 0 0 0 1.63.46Zm0 1.56a5.4 5.4 0 0 1-1.79-.34 4.21 4.21 0 0 1-1.63-1.1 5.67 5.67 0 0 1-1.19-2.11 10.64 10.64 0 0 1-.45-3.35 14.05 14.05 0 0 1 .37-3.42 7.65 7.65 0 0 1 1-2.52 4.76 4.76 0 0 1 1.66-1.57 5 5 0 0 1 4.38 0 4.08 4.08 0 0 1 1.56 1.35 4.65 4.65 0 0 1 .79 2h-1.69a3.15 3.15 0 0 0-.94-1.63 2.58 2.58 0 0 0-1.84-.65 3 3 0 0 0-2.67 1.47 7.62 7.62 0 0 0-1 4.13h.12a4.22 4.22 0 0 1 .94-1 4.4 4.4 0 0 1 4.92-.28 4.55 4.55 0 0 1 1.66 1.71 4.91 4.91 0 0 1 .63 2.5 5.16 5.16 0 0 1-.6 2.47 4.66 4.66 0 0 1-1.7 1.77 4.76 4.76 0 0 1-2.53.57Z"/><path class="cls-1" d="M.17 903.76h960v.5H.17z"/><path class="cls-2" d="m925 871.11 2.62 4.46 2.61-4.46h1.93l-3.52 5.45 3.52 5.45h-1.93l-2.61-4.23L925 882h-1.93l3.47-5.45-3.47-5.45Zm-11.34 5.45a5.89 5.89 0 0 0 .37 2.18 3.24 3.24 0 0 0 1 1.47 2.79 2.79 0 0 0 1.71.53 2.74 2.74 0 0 0 1.75-.56 3.33 3.33 0 0 0 1.07-1.5 6 6 0 0 0 .36-2.12 5.83 5.83 0 0 0-.35-2.07 3.29 3.29 0 0 0-1.06-1.47 3.11 3.11 0 0 0-3.49 0 3.17 3.17 0 0 0-1 1.43 5.85 5.85 0 0 0-.38 2.11Zm-1.66 9.55v-15h1.61v1.73h.2l.52-.73a2.94 2.94 0 0 1 .95-.79A3.37 3.37 0 0 1 917 871a4.32 4.32 0 0 1 2.43.69 4.62 4.62 0 0 1 1.64 2 7 7 0 0 1 .59 3 7.1 7.1 0 0 1-.59 3 4.62 4.62 0 0 1-1.64 2 4.25 4.25 0 0 1-2.4.69 3.4 3.4 0 0 1-1.69-.35 3 3 0 0 1-1-.8c-.23-.3-.4-.55-.53-.75h-.14v5.77Zm-13.41-5.46a2.73 2.73 0 0 0 2.47-1.53 8.88 8.88 0 0 0 .88-4.38 11.16 11.16 0 0 0-.41-3.22 4.29 4.29 0 0 0-1.15-2 2.53 2.53 0 0 0-1.79-.7 2.74 2.74 0 0 0-2.47 1.56 8.9 8.9 0 0 0-.89 4.38 11.42 11.42 0 0 0 .4 3.21 4.43 4.43 0 0 0 1.15 2 2.57 2.57 0 0 0 1.81.68Zm0 1.56a4.36 4.36 0 0 1-2.74-.87 5.45 5.45 0 0 1-1.72-2.55 13.9 13.9 0 0 1 0-8.08 5.53 5.53 0 0 1 1.73-2.55 4.62 4.62 0 0 1 5.45 0 5.53 5.53 0 0 1 1.73 2.55 12 12 0 0 1 .6 4 12.37 12.37 0 0 1-.59 4 5.53 5.53 0 0 1-1.73 2.55 4.33 4.33 0 0 1-2.73.95Zm-11.07-.2v-14.54h1.67V882Zm-6.85-3v-1.45l6.39-10.11h1.05v2.24h-.71l-4.83 7.65v.11h8.61V879ZM925 969.11l2.62 4.46 2.61-4.46h1.93l-3.52 5.45 3.52 5.45h-1.93l-2.61-4.23L925 980h-1.93l3.47-5.45-3.47-5.45Zm-11.34 5.45a5.89 5.89 0 0 0 .37 2.18 3.24 3.24 0 0 0 1 1.47 2.79 2.79 0 0 0 1.71.53 2.74 2.74 0 0 0 1.75-.56 3.33 3.33 0 0 0 1.07-1.5 6 6 0 0 0 .36-2.12 5.83 5.83 0 0 0-.35-2.07 3.29 3.29 0 0 0-1.06-1.47 3.11 3.11 0 0 0-3.49 0 3.17 3.17 0 0 0-1 1.43 5.85 5.85 0 0 0-.38 2.11Zm-1.66 9.55v-15h1.62v1.73h.19l.52-.73a3.05 3.05 0 0 1 .95-.79A3.37 3.37 0 0 1 917 969a4.32 4.32 0 0 1 2.43.69 4.62 4.62 0 0 1 1.64 2 7 7 0 0 1 .59 3 7.1 7.1 0 0 1-.59 3 4.62 4.62 0 0 1-1.64 2 4.25 4.25 0 0 1-2.4.69 3.43 3.43 0 0 1-1.69-.35 3 3 0 0 1-1-.8c-.23-.3-.4-.55-.53-.75h-.14v5.77Zm-13.41-5.46a2.73 2.73 0 0 0 2.47-1.53 8.88 8.88 0 0 0 .88-4.38 11.16 11.16 0 0 0-.41-3.22 4.29 4.29 0 0 0-1.15-2 2.53 2.53 0 0 0-1.79-.7 2.74 2.74 0 0 0-2.47 1.56 8.9 8.9 0 0 0-.89 4.38 11.42 11.42 0 0 0 .4 3.21 4.43 4.43 0 0 0 1.15 2 2.57 2.57 0 0 0 1.81.68Zm0 1.56a4.38 4.38 0 0 1-2.74-.87 5.45 5.45 0 0 1-1.72-2.55 13.9 13.9 0 0 1 0-8.08 5.53 5.53 0 0 1 1.73-2.55 4.62 4.62 0 0 1 5.45 0 5.53 5.53 0 0 1 1.73 2.55 12 12 0 0 1 .6 4 12.37 12.37 0 0 1-.59 4 5.53 5.53 0 0 1-1.73 2.55 4.33 4.33 0 0 1-2.73.95Zm-16.86-.2v-1.27l4.8-5.26c.57-.62 1-1.15 1.4-1.6a6.19 6.19 0 0 0 .81-1.3 3.09 3.09 0 0 0 .27-1.28 2.38 2.38 0 0 0-.37-1.32 2.41 2.41 0 0 0-1-.87 3.25 3.25 0 0 0-1.42-.31 3 3 0 0 0-1.46.35 2.46 2.46 0 0 0-1 1 3 3 0 0 0-.33 1.45h-1.68a4.23 4.23 0 0 1 .59-2.24 4.08 4.08 0 0 1 1.6-1.51 4.88 4.88 0 0 1 2.3-.54 4.61 4.61 0 0 1 2.26.54 4 4 0 0 1 1.55 1.46 3.76 3.76 0 0 1 .56 2 4.24 4.24 0 0 1-.29 1.57 6.89 6.89 0 0 1-1 1.7 28.6 28.6 0 0 1-2 2.27l-3.26 3.5v.11h6.76V980Zm-21.08-.9-1.1-1.08 4.51-4.51H852.4V972h11.66l-4.51-4.49 1.1-1.09 6.36 6.36Zm-27.54 1.13a5.16 5.16 0 0 1-2.72-.69 4.69 4.69 0 0 1-1.75-2 7.44 7.44 0 0 1 0-5.9 4.75 4.75 0 0 1 1.72-2 4.56 4.56 0 0 1 2.58-.73 5.22 5.22 0 0 1 1.69.29 4.18 4.18 0 0 1 1.51.92 4.44 4.44 0 0 1 1.08 1.68 7.1 7.1 0 0 1 .41 2.57v.71h-8.41v-1.45h6.71a3.64 3.64 0 0 0-.37-1.65 2.86 2.86 0 0 0-1-1.14 3.21 3.21 0 0 0-3.31.08 3.27 3.27 0 0 0-1.12 1.27 3.78 3.78 0 0 0-.39 1.69v1a4.79 4.79 0 0 0 .43 2.1 3.15 3.15 0 0 0 1.2 1.3 3.56 3.56 0 0 0 1.78.44 3.77 3.77 0 0 0 1.2-.19 2.59 2.59 0 0 0 .93-.57 2.49 2.49 0 0 0 .6-1l1.62.46a3.53 3.53 0 0 1-.86 1.44 4.06 4.06 0 0 1-1.49 1 5.48 5.48 0 0 1-2.04.37Zm-15.39-.24v-1.27l6.19-8v-.11h-6v-1.56h8.15v1.33l-6 7.9v.11h6.22v1.6Zm-3.58-12.72a1.18 1.18 0 0 1-.85-.34 1.09 1.09 0 0 1 0-1.6 1.22 1.22 0 0 1 1.69 0 1.09 1.09 0 0 1 0 1.6 1.17 1.17 0 0 1-.84.35Zm-.86 12.72v-10.9H815V980Zm-2.72-8.46-1.5.42a3.19 3.19 0 0 0-.42-.73 2 2 0 0 0-.74-.59 2.61 2.61 0 0 0-1.2-.24 2.93 2.93 0 0 0-1.67.46 1.37 1.37 0 0 0-.66 1.16 1.2 1.2 0 0 0 .45 1 3.89 3.89 0 0 0 1.42.6l1.62.4a4.42 4.42 0 0 1 2.18 1.09 2.52 2.52 0 0 1 .72 1.86 2.76 2.76 0 0 1-.54 1.68 3.61 3.61 0 0 1-1.49 1.17 5.51 5.51 0 0 1-2.23.42 4.93 4.93 0 0 1-2.76-.72 3.26 3.26 0 0 1-1.39-2.12l1.59-.4a2.23 2.23 0 0 0 .86 1.32 2.86 2.86 0 0 0 1.67.44 3.13 3.13 0 0 0 1.86-.49 1.46 1.46 0 0 0 .7-1.21 1.24 1.24 0 0 0-.4-.95 2.44 2.44 0 0 0-1.22-.58l-1.82-.43a4.33 4.33 0 0 1-2.2-1.1 2.68 2.68 0 0 1-.7-1.88 2.76 2.76 0 0 1 .52-1.64 3.56 3.56 0 0 1 1.43-1.11 5 5 0 0 1 2.06-.41 4.08 4.08 0 0 1 2.54.71 3.85 3.85 0 0 1 1.32 1.88ZM779.83 980v-10.9h1.62v1.7h.14a2.79 2.79 0 0 1 1.1-1.36 3.38 3.38 0 0 1 1.83-.49 3.15 3.15 0 0 1 1.79.49 3.23 3.23 0 0 1 1.13 1.36h.12a3.1 3.1 0 0 1 1.25-1.34 3.8 3.8 0 0 1 2-.51 3.28 3.28 0 0 1 2.4.92 3.81 3.81 0 0 1 .93 2.83v7.3h-1.68v-7.3a2.05 2.05 0 0 0-.66-1.72 2.43 2.43 0 0 0-1.56-.52 2.27 2.27 0 0 0-1.78.7 2.46 2.46 0 0 0-.63 1.74v7.1h-1.71v-7.47a2 2 0 0 0-.6-1.5 2.16 2.16 0 0 0-1.55-.57 2.34 2.34 0 0 0-1.23.35 2.71 2.71 0 0 0-.91 1 3 3 0 0 0-.34 1.42V980Zm-4.75-4.46v-6.44h1.68V980h-1.68v-1.84H775a3.66 3.66 0 0 1-1.2 1.41 3.44 3.44 0 0 1-2 .58 3.64 3.64 0 0 1-1.82-.45 3.12 3.12 0 0 1-1.25-1.36 5.25 5.25 0 0 1-.45-2.31v-6.93h1.67v6.81a2.71 2.71 0 0 0 .67 1.91 2.28 2.28 0 0 0 1.72.71 2.88 2.88 0 0 0 1.27-.32 2.76 2.76 0 0 0 1.09-1 2.93 2.93 0 0 0 .38-1.66ZM750.82 980v-10.9h1.62v1.7h.15a2.74 2.74 0 0 1 1.1-1.36 3.32 3.32 0 0 1 1.82-.49 3.18 3.18 0 0 1 1.8.49 3.3 3.3 0 0 1 1.13 1.36h.11a3.19 3.19 0 0 1 1.26-1.34 3.8 3.8 0 0 1 2-.51 3.27 3.27 0 0 1 2.39.92 3.81 3.81 0 0 1 .93 2.83v7.3h-1.67v-7.3a2.05 2.05 0 0 0-.66-1.72 2.43 2.43 0 0 0-1.56-.52 2.26 2.26 0 0 0-1.78.7 2.46 2.46 0 0 0-.63 1.74v7.1h-1.71v-7.47a2 2 0 0 0-.6-1.5 2.19 2.19 0 0 0-1.56-.57 2.33 2.33 0 0 0-1.22.35 2.63 2.63 0 0 0-.91 1 2.84 2.84 0 0 0-.34 1.42V980Zm-3.89-12.72a1.18 1.18 0 0 1-.85-.34 1.11 1.11 0 0 1 0-1.6 1.22 1.22 0 0 1 .85-.34 1.18 1.18 0 0 1 .84.34 1.09 1.09 0 0 1 0 1.6 1.14 1.14 0 0 1-.84.35Zm-.85 12.72v-10.9h1.67V980Zm-10-6.56V980h-1.67v-10.9H736v1.7h.14a3.2 3.2 0 0 1 1.16-1.34 3.67 3.67 0 0 1 2-.51 3.89 3.89 0 0 1 1.94.46 3 3 0 0 1 1.29 1.36 5 5 0 0 1 .47 2.3V980h-1.68v-6.8a2.82 2.82 0 0 0-.67-2 2.36 2.36 0 0 0-1.83-.72 3 3 0 0 0-1.44.35 2.51 2.51 0 0 0-1 1 3.4 3.4 0 0 0-.33 1.62Zm-5.57-6.16a1.17 1.17 0 0 1-.84-.34 1.09 1.09 0 0 1 0-1.6 1.21 1.21 0 0 1 .84-.34 1.18 1.18 0 0 1 .84.34 1.07 1.07 0 0 1 0 1.6 1.14 1.14 0 0 1-.87.35Zm-.88 12.72v-10.9h1.68V980Zm-17.56-14.54h2.1l4.94 12.07h.17l5-12.07h2.1V980h-1.65v-11h-.14L720 980h-1.6l-4.54-11h-.15v11h-1.64ZM343.77 69.72h28.09C367.18 39.84 341.32 19 307.65 19c-39.84 0-69.71 29.28-69.71 78.33 0 48.16 28.54 78 70.53 78 37.68 0 64.66-24.23 64.66-63.47V93.65h-61.76v21.55h35.07c-.44 21.7-14.94 35.45-37.83 35.45-25.49 0-42.95-19.1-42.95-53.58 0-34.26 17.76-53.29 42.36-53.29 18.36 0 30.84 9.81 35.75 25.94ZM405.22 41.09c8.54 0 15.53-6.54 15.53-14.57s-7-14.64-15.53-14.64-15.61 6.54-15.61 14.64 6.99 14.57 15.61 14.57Zm-13.53 132.23h26.9V59.16h-26.9ZM499.16 59.16h-22.52V31.81h-26.9v27.35h-16.2V80h16.2v63.47c-.15 21.48 15.46 32 35.67 31.44a53.91 53.91 0 0 0 15.83-2.68l-4.53-21a33.21 33.21 0 0 1-7.88 1c-6.76 0-12.19-2.38-12.19-13.23V80h22.52ZM519.98 173.32h94.61v-23.11h-67.04V21.11h-27.57v152.21zM675 155.85c-11.22 0-19.25-5.12-19.25-15 0-10.33 9-14.64 21-16.35 7.06-1 21.18-2.75 24.67-5.57v13.45c0 12.69-10.26 23.47-26.42 23.47Zm-8.84 19.77c17.91 0 28.61-8.39 33.52-18h.89v15.68h25.86V96.92c0-30.18-24.6-39.24-46.38-39.24-24 0-42.44 10.7-48.38 31.51l25.12 3.57c2.68-7.81 10.26-14.5 23.41-14.5 12.49 0 19.32 6.4 19.32 17.62v.44c0 7.73-8.1 8.1-28.24 10.26-22.15 2.38-43.33 9-43.33 34.71-.03 22.44 16.39 34.33 38.17 34.33ZM772.62 116.24c0-22.15 9.52-36.49 26.83-36.49 17.91 0 27.13 15.24 27.13 36.49 0 21.41-9.36 37-27.13 37-17.17.01-26.83-14.85-26.83-37Zm-26.38 57.08h26.45v-18h1.56c4.24 8.33 13.08 20 32.71 20 26.9 0 47-21.33 47-58.94 0-38-20.73-58.71-47.12-58.71-20.14 0-28.54 12.11-32.63 20.36h-1.11V21.11h-26.9Z"/><path class="cls-3" d="m188.89 73.25-.27-.69-26.15-68.22a6.7 6.7 0 0 0-2.68-3.24 6.8 6.8 0 0 0-3-1.06 7 7 0 0 0-3.17.41 6.91 6.91 0 0 0-4.19 4.6l-17.65 54H60.34l-17.66-54a6.82 6.82 0 0 0-2.31-3.52 6.93 6.93 0 0 0-8.06-.43 6.71 6.71 0 0 0-2.68 3.24L3.48 72.56l-.27.69a48.55 48.55 0 0 0 16.11 56.11l.1.07.23.17 39.83 29.82 19.7 14.91 12 9.07a8.1 8.1 0 0 0 9.77 0l12-9.07 19.7-14.91 40.07-30 .1-.08a48.55 48.55 0 0 0 16.1-56.1Z"/><path class="cls-4" d="m188.89 73.25-.27-.69a88.44 88.44 0 0 0-35.15 15.81l-57.42 43.42 36.57 27.63 40.07-30 .1-.09a48.53 48.53 0 0 0 16.1-56.09Z"/><path class="cls-5" d="m59.48 159.42 19.7 14.91 12 9.07a8.1 8.1 0 0 0 9.77 0l12-9.07 19.7-14.91-36.6-27.63Z"/><path class="cls-4" d="M38.63 88.37A88.42 88.42 0 0 0 3.47 72.56l-.26.69a48.56 48.56 0 0 0 16.11 56.11l.09.07.23.17 39.83 29.82 36.58-27.63Z"/><path class="cls-2" d="M259.23 331.58h21.19c-3.53-22.53-23-38.23-48.42-38.23-30.05 0-52.57 22.09-52.57 59.08 0 36.31 21.52 58.84 53.19 58.84 28.41 0 48.76-18.27 48.76-47.86v-13.79H234.8v16.26h26.45c-.33 16.36-11.26 26.73-28.53 26.73-19.22 0-32.39-14.4-32.39-40.41 0-25.84 13.4-40.18 31.95-40.18 13.84-.02 23.25 7.39 26.95 19.56ZM305.57 310c6.45 0 11.72-4.93 11.72-11s-5.27-11-11.72-11-11.77 4.93-11.77 11 5.27 11 11.77 11Zm-10.2 99.71h20.29v-86.09h-20.29ZM376.42 323.62h-17V303h-20.28v20.63h-12.21v15.69h12.22v47.86c-.11 16.2 11.66 24.16 26.9 23.71a40.41 40.41 0 0 0 11.94-2L374.57 393a25.35 25.35 0 0 1-5.94.79c-5.1 0-9.19-1.8-9.19-10v-44.5h17ZM392.12 409.7h71.34v-17.43h-50.55v-97.35h-20.79V409.7zM509 396.53c-8.47 0-14.52-3.86-14.52-11.32 0-7.79 6.78-11 15.86-12.33 5.33-.73 16-2.07 18.61-4.2v10.14c-.01 9.58-7.74 17.71-19.95 17.71Zm-6.67 14.91c13.51 0 21.58-6.33 25.27-13.56h.68v11.82h19.5v-57.61c0-22.75-18.55-29.59-35-29.59-18.11 0-32 8.07-36.49 23.76l18.96 2.74c2-5.88 7.74-10.93 17.66-10.93 9.41 0 14.57 4.82 14.57 13.29v.33c0 5.83-6.11 6.11-21.3 7.74-16.7 1.79-32.67 6.78-32.67 26.17 0 16.87 12.39 25.84 28.81 25.84ZM582.63 366.66c0-16.7 7.18-27.52 20.23-27.52 13.51 0 20.46 11.49 20.46 27.52s-7.06 27.91-20.46 27.91c-12.94 0-20.23-11.21-20.23-27.91Zm-19.89 43h20v-13.52h1.17c3.2 6.28 9.86 15.08 24.66 15.08 20.29 0 35.48-16.09 35.48-44.45 0-28.69-15.64-44.27-35.53-44.27-15.19 0-21.52 9.13-24.61 15.35H583v-42.93h-20.26Z"/><path class="cls-3" d="m142.44 334.24-.2-.52-19.72-51.45a5.19 5.19 0 0 0-2-2.44 5.33 5.33 0 0 0-2.28-.8 5.2 5.2 0 0 0-4.38 1.67 5.27 5.27 0 0 0-1.16 2.11l-13.34 40.74H45.5l-13.31-40.74a5.2 5.2 0 0 0-1.75-2.66 5.32 5.32 0 0 0-3-1.13 5.26 5.26 0 0 0-3.09.81 5.15 5.15 0 0 0-2 2.44L2.62 333.72l-.2.52a36.62 36.62 0 0 0 12.15 42.31l.07.05.18.14 30 22.48 14.86 11.25 9 6.83a6.08 6.08 0 0 0 7.36 0l9-6.83L100 399.22l30.21-22.62.08-.06a36.59 36.59 0 0 0 12.14-42.3Z"/><path class="cls-4" d="m142.44 334.24-.2-.52a66.62 66.62 0 0 0-26.51 11.92l-43.3 32.74C87.17 389.53 100 399.22 100 399.22l30.21-22.62.08-.06a36.59 36.59 0 0 0 12.14-42.3Z"/><path class="cls-5" d="m44.85 399.22 14.86 11.25 9 6.83a6.1 6.1 0 0 0 7.37 0l9-6.83L100 399.22l-27.57-20.83Z"/><path class="cls-4" d="M29.13 345.64a66.62 66.62 0 0 0-26.51-11.92l-.2.52a36.58 36.58 0 0 0 12.15 42.31.18.18 0 0 0 .07.05l.17.14 30 22.48 27.58-20.83Z"/><path class="cls-2" d="M34.22 951H37a6.12 6.12 0 0 0-6.39-5c-4 0-6.94 2.91-6.94 7.79s2.84 7.77 7 7.77c3.75 0 6.44-2.41 6.44-6.32v-1.82H31v2.15h3.49a3.44 3.44 0 0 1-3.77 3.43c-2.54 0-4.28-1.9-4.28-5.34s1.77-5.3 4.22-5.3a3.49 3.49 0 0 1 3.56 2.64ZM40.33 948.1a1.45 1.45 0 1 0-1.55-1.45 1.51 1.51 0 0 0 1.55 1.45ZM39 961.26h2.67V949.9H39ZM49.68 949.9h-2.24v-2.72h-2.68v2.72h-1.61v2.1h1.61v6.32c0 2.14 1.54 3.19 3.55 3.13a5.29 5.29 0 0 0 1.58-.27l-.45-2.09a3 3 0 0 1-.79.1c-.67 0-1.21-.23-1.21-1.31V952h2.24ZM51.76 961.26h9.41v-2.3H54.5v-12.85h-2.74v15.15zM67.18 959.53c-1.12 0-1.92-.51-1.92-1.5s.9-1.46 2.1-1.63a7.94 7.94 0 0 0 2.45-.55v1.34a2.42 2.42 0 0 1-2.63 2.34Zm-.88 2a3.51 3.51 0 0 0 3.34-1.79h.09v1.56h2.57v-7.6c0-3-2.45-3.91-4.62-3.91-2.39 0-4.22 1.07-4.81 3.14l2.5.36a2.26 2.26 0 0 1 2.33-1.45c1.24 0 1.92.64 1.92 1.76 0 .77-.8.81-2.81 1-2.2.24-4.31.9-4.31 3.46 0 2.25 1.63 3.43 3.8 3.43ZM76.9 955.58c0-2.2.95-3.63 2.67-3.63s2.7 1.52 2.7 3.63-.93 3.69-2.7 3.69-2.67-1.48-2.67-3.69Zm-2.63 5.68h2.64v-1.79h.15a3.42 3.42 0 0 0 3.26 2c2.68 0 4.68-2.12 4.68-5.86s-2.06-5.85-4.69-5.85a3.39 3.39 0 0 0-3.25 2H77v-5.67h-2.73Z"/><path class="cls-3" d="M18.8 951.3v-.06l-2.6-6.79a.67.67 0 0 0-.57-.43.67.67 0 0 0-.31 0 .68.68 0 0 0-.26.18.61.61 0 0 0-.16.28l-1.75 5.37H6l-1.76-5.37a.7.7 0 0 0-.23-.35.64.64 0 0 0-.4-.15.7.7 0 0 0-.4.1.67.67 0 0 0-.27.33l-2.6 6.79v.06a4.85 4.85 0 0 0 1.6 5.59H2l4 3 2 1.49 1.19.9a.83.83 0 0 0 1 0l1.19-.9 2-1.49 4-3a4.85 4.85 0 0 0 1.6-5.59Z"/><path class="cls-4" d="M18.8 951.3v-.06a8.69 8.69 0 0 0-3.49 1.57l-5.72 4.32 3.64 2.75 4-3a4.85 4.85 0 0 0 1.6-5.59Z"/><path class="cls-5" d="m5.92 959.88 2 1.48 1.19.91a.87.87 0 0 0 .49.16.84.84 0 0 0 .49-.16l1.19-.91 2-1.48-3.64-2.75Z"/><path class="cls-4" d="M3.84 952.81a8.69 8.69 0 0 0-3.49-1.57v.06a4.79 4.79 0 0 0-.13 3.06 4.87 4.87 0 0 0 1.73 2.53H2l4 3 3.64-2.75Z"/><path class="cls-2" d="M68.83 840h5.63c-.94-6-6.12-10.15-12.86-10.15-8 0-14 5.87-14 15.69 0 9.64 5.72 15.62 14.13 15.62 7.54 0 12.94-4.85 12.94-12.71v-3.66H62.35v4.32h7c-.09 4.34-3 7.1-7.57 7.1-5.11 0-8.61-3.83-8.61-10.73s3.56-10.67 8.49-10.67a7 7 0 0 1 7.17 5.19ZM81.14 834.24a2.93 2.93 0 1 0-3.14-2.92 3 3 0 0 0 3.14 2.92Zm-2.71 26.48h5.39v-22.86h-5.39ZM100 837.86h-4.56v-5.48h-5.39v5.48h-3.24V842h3.24v12.7c0 4.31 3.1 6.42 7.15 6.3a10.76 10.76 0 0 0 3.17-.54l-.91-4.21a7.06 7.06 0 0 1-1.58.21c-1.35 0-2.44-.48-2.44-2.65V842H100ZM104.12 860.72h18.94v-4.63h-13.42v-25.85h-5.52v30.48zM135.15 857.22c-2.25 0-3.85-1-3.85-3s1.8-2.93 4.21-3.27c1.41-.19 4.24-.55 4.94-1.12v2.7c0 2.53-2.06 4.69-5.3 4.69Zm-1.77 4c3.59 0 5.73-1.68 6.71-3.6h.18v3.14h5.18v-15.3c0-6-4.93-7.86-9.29-7.86-4.81 0-8.5 2.14-9.69 6.31l5 .71c.54-1.56 2.06-2.9 4.69-2.9s3.87 1.28 3.87 3.53v.09c0 1.55-1.62 1.62-5.66 2.05-4.43.48-8.67 1.8-8.67 6.95.03 4.46 3.3 6.84 7.68 6.84ZM154.71 849.29c0-4.44 1.9-7.31 5.37-7.31s5.43 3 5.43 7.31-1.88 7.41-5.43 7.41-5.37-2.98-5.37-7.41Zm-5.29 11.43h5.3v-3.6h.28a6.9 6.9 0 0 0 6.55 4c5.39 0 9.42-4.27 9.42-11.8s-4.15-11.76-9.43-11.76a6.79 6.79 0 0 0-6.54 4.08h-.22v-11.4h-5.39Z"/><path class="cls-3" d="M37.82 840.68v-.14l-5.24-13.66a1.31 1.31 0 0 0-.53-.65 1.41 1.41 0 0 0-1.24-.13 1.47 1.47 0 0 0-.53.36 1.35 1.35 0 0 0-.31.56l-3.54 10.82H12.08L8.55 827a1.35 1.35 0 0 0-.47-.7 1.33 1.33 0 0 0-.79-.3 1.4 1.4 0 0 0-.82.21 1.38 1.38 0 0 0-.54.65L.7 840.54l-.06.14a9.73 9.73 0 0 0 3.23 11.23l8 6 3.94 3 2.41 1.81a1.61 1.61 0 0 0 1.95 0l2.4-1.81 3.95-3 8-6a9.71 9.71 0 0 0 3.22-11.23Z"/><path class="cls-4" d="M37.82 840.68v-.14a17.83 17.83 0 0 0-7 3.17l-11.5 8.69 7.33 5.53 8-6a9.71 9.71 0 0 0 3.22-11.23Z"/><path class="cls-5" d="m11.91 857.93 3.94 3 2.4 1.81a1.61 1.61 0 0 0 1 .33 1.57 1.57 0 0 0 1-.33l2.4-1.81 3.95-3-7.33-5.53Z"/><path class="cls-4" d="M7.73 843.71a17.72 17.72 0 0 0-7-3.17l-.06.14a9.72 9.72 0 0 0 3.23 11.23l8 6 7.32-5.53c-5.22-3.97-11.45-8.65-11.49-8.67Z"/><path class="cls-2" d="M103.45 711h8.46c-1.41-9-9.19-15.25-19.33-15.25-12 0-21 8.81-21 23.57 0 14.49 8.59 23.48 21.23 23.48 11.34 0 19.46-7.29 19.46-19.1v-5.5H93.7v6.49h10.56c-.14 6.53-4.5 10.67-11.39 10.67C85.2 735.35 80 729.6 80 719.22s5.34-16 12.74-16c5.48-.04 9.26 2.92 10.71 7.78ZM122 702.38a4.4 4.4 0 1 0-4.7-4.39 4.55 4.55 0 0 0 4.7 4.39Zm-4.08 39.79H126v-34.36h-8.1ZM150.22 707.81h-6.78v-8.23h-8.1v8.23h-4.87v6.27h4.87v19.1c0 6.46 4.66 9.64 10.74 9.46a16.06 16.06 0 0 0 4.76-.81l-1.36-6.33a10 10 0 0 1-2.37.32c-2 0-3.67-.72-3.67-4v-17.74h6.78ZM156.48 742.17h28.47v-6.96h-20.17v-38.85h-8.3v45.81zM203.12 736.91c-3.38 0-5.79-1.54-5.79-4.51s2.7-4.41 6.33-4.93c2.12-.29 6.37-.82 7.42-1.67v4.05c0 3.82-3.08 7.06-7.96 7.06Zm-2.66 6c5.39 0 8.61-2.52 10.09-5.41h.26v4.72h7.79v-23c0-9.08-7.4-11.81-14-11.81-7.22 0-12.77 3.22-14.56 9.48l7.56 1.07c.81-2.34 3.09-4.36 7.05-4.36 3.75 0 5.81 1.93 5.81 5.3v.1c0 2.32-2.44 2.44-8.5 3.08-6.66.72-13 2.71-13 10.45.04 6.75 4.95 10.33 11.5 10.33ZM232.51 725c0-6.66 2.86-11 8.07-11 5.39 0 8.17 4.59 8.17 11s-2.82 11.14-8.17 11.14c-5.16-.01-8.07-4.48-8.07-11.14Zm-7.94 17.18h8v-5.41h.43a10.37 10.37 0 0 0 9.84 6c8.1 0 14.16-6.42 14.16-17.73s-6.24-17.67-14.18-17.67a10.18 10.18 0 0 0-9.82 6.13h-.33v-17.14h-8.1Z"/><path class="cls-3" d="m56.84 712.05-.08-.2-7.87-20.53a2 2 0 0 0-.8-1 2.16 2.16 0 0 0-.91-.32 2.05 2.05 0 0 0-1 .13 2 2 0 0 0-1.18 1.4l-5.32 16.26H18.16l-5.32-16.26a2 2 0 0 0-.69-1.06 2.11 2.11 0 0 0-2.43-.13 2 2 0 0 0-.8 1l-7.87 20.51-.08.2a14.61 14.61 0 0 0 4.84 16.89h.07l12 9 5.93 4.48 3.61 2.73a2.41 2.41 0 0 0 1.47.49 2.45 2.45 0 0 0 1.47-.49l3.6-2.73 5.95-4.42L52 729a14.6 14.6 0 0 0 4.84-16.88Z"/><path class="cls-4" d="m56.84 712.05-.08-.2a26.5 26.5 0 0 0-10.57 4.75l-17.28 13.07 11 8.31L52 729a14.6 14.6 0 0 0 4.84-16.88Z"/><path class="cls-5" d="m17.9 738 5.93 4.48 3.61 2.73a2.45 2.45 0 0 0 2.94 0l3.6-2.73 5.93-4.48-11-8.32Z"/><path class="cls-4" d="M11.62 716.6a26.5 26.5 0 0 0-10.57-4.75l-.08.2a14.61 14.61 0 0 0 4.84 16.89h.07l12 9 11-8.32Z"/><path class="cls-2" d="M172.69 545h14.11c-2.35-15-15.34-25.46-32.25-25.46-20 0-35 14.71-35 39.35 0 24.19 14.33 39.2 35.43 39.2 18.93 0 32.48-12.17 32.48-31.89v-9.18h-31v10.83H174c-.22 10.9-7.5 17.81-19 17.81-12.81 0-21.58-9.6-21.58-26.92S142.37 532 154.73 532c9.27 0 15.49 4.93 17.96 13ZM203.56 530.65a7.35 7.35 0 1 0-7.84-7.32 7.59 7.59 0 0 0 7.84 7.32Zm-6.8 66.42h13.52v-57.34h-13.52ZM250.75 539.73h-11.31V526h-13.52v13.74h-8.14v10.45h8.14v31.89c-.07 10.78 7.77 16.09 17.92 15.79a27.23 27.23 0 0 0 8-1.35L249.52 586a17 17 0 0 1-4 .52c-3.4 0-6.12-1.19-6.12-6.65v-29.69h11.31ZM261.21 597.07h47.52v-11.61h-33.67v-64.85h-13.85v76.46zM339.06 588.3c-5.64 0-9.67-2.58-9.67-7.54 0-5.19 4.52-7.36 10.57-8.22 3.55-.48 10.64-1.38 12.39-2.8v6.76c0 6.38-5.15 11.8-13.29 11.8Zm-4.44 9.93c9 0 14.37-4.22 16.84-9h.44v7.87h13v-38.41c0-15.15-12.36-19.71-23.3-19.71-12.06 0-21.32 5.38-24.31 15.83l12.62 1.79c1.35-3.92 5.16-7.28 11.76-7.28 6.28 0 9.71 3.21 9.71 8.85v.22c0 3.89-4.07 4.07-14.19 5.16-11.12 1.19-21.77 4.51-21.77 17.43.01 11.28 8.26 17.25 19.2 17.25ZM388.12 568.4c0-11.13 4.78-18.33 13.48-18.33 9 0 13.63 7.65 13.63 18.33S410.52 587 401.6 587c-8.6 0-13.48-7.47-13.48-18.6Zm-13.25 28.67h13.29v-9h.78c2.13 4.18 6.57 10 16.43 10 13.51 0 23.63-10.71 23.63-29.61 0-19.11-10.42-29.49-23.67-29.49-10.12 0-14.34 6.09-16.39 10.23h-.56v-28.6h-13.51Z"/><path class="cls-3" d="m94.89 546.8-.14-.34-13.13-34.27a3.38 3.38 0 0 0-1.35-1.63 3.51 3.51 0 0 0-3.11-.33 3.56 3.56 0 0 0-1.32.91 3.46 3.46 0 0 0-.78 1.4l-8.87 27.15H30.31l-8.87-27.15a3.47 3.47 0 0 0-5.21-2 3.38 3.38 0 0 0-1.35 1.63L1.75 546.46l-.14.34a24.39 24.39 0 0 0 8.1 28.2l.12.09 20 15 9.89 7.49 6 4.56a4.07 4.07 0 0 0 4.9 0l6-4.56 9.89-7.49L86.75 575a24.4 24.4 0 0 0 8.09-28.18Z"/><path class="cls-4" d="m94.89 546.8-.14-.34a44.25 44.25 0 0 0-17.65 7.94l-28.85 21.81c9.82 7.43 18.37 13.88 18.37 13.88L86.75 575a24.4 24.4 0 0 0 8.09-28.18Z"/><path class="cls-5" d="m29.88 590.09 9.89 7.49 6 4.56a4.07 4.07 0 0 0 4.9 0l6-4.56 9.89-7.49-18.31-13.88Z"/><path class="cls-4" d="M19.4 554.4a44.25 44.25 0 0 0-17.65-7.94l-.14.34A24.41 24.41 0 0 0 9.7 575h.05l.12.09 20 15 18.37-13.88Z"/></g></g></svg>