<svg xmlns="http://www.w3.org/2000/svg" viewBox="0 0 1076.77 469.66"><defs><style>.cls-1,.cls-2{fill:none;stroke:#737477;stroke-miterlimit:10;}.cls-1{stroke-width:0.29px;}.cls-2{stroke-width:0.93px;}.cls-3{fill:#515254;opacity:0.1;}.cls-3,.cls-6{isolation:isolate;}.cls-4,.cls-6{fill:#7a7a7a;}.cls-5{fill:#666;}.cls-6{opacity:0.25;}</style></defs><g id="Layer_2" data-name="Layer 2"><g id="Layer_1-2" data-name="Layer 1"><path class="cls-1" d="M221.08,469.56V0"/><path class="cls-1" d="M.14,469.56V0M55.37,469.52V.09M82.93,469.56V0m27.81,469.5V0m82.66,469.5V0m-27.56,469.6V0m82.67,469.58V0M276.14,469.5V.09m27.6,469.45V0M331.42,469.6V0m55.1,469.54V0M358.88,469.56V0M414.2,469.62V0M441.76,469.5V0m27.55,469.54V0M497,469.58V0m27.68,469.5V0M552.23,469.6V0M579.77,469.6V.11m27.68,469.47V0M635.14,469.6V0M662.69,469.6V0M690.25,469.6V0M717.8,469.56V0m27.69,469.5V0M773,469.62V0m27.55,469.52V0m27.68,469.54V0m82.79,469.5V0m-27.76,469.6V0m-27.47,469.5V0M966.29,469.6V.11m27.55,469.47V0m27.24,469.56V.09m55.55,469.49V0"/><path class="cls-1" d="M0,469.51H1076.75M0,441.62H1076.71M.2,414.32H1076.71M.16,386.73H1076.68M.2,359.12H1076.68M.13,303.81H1076.68M.24,332.38H1076.68M.27,276.22H1076.71M.27,248.67H1076.68M.31,221.06H1076.6"/><path class="cls-1" d="M.24,165.79H1076.6M.2,110.57H1076.68M.2,137.67H1076.64M.24,194h1076.4M.16,83H1076.64M.27,55.57H1076.6M0,.14H1076.6M.27,28.12H1076.68"/><path class="cls-2" d="M138.28,469.58V.15M27.76,469.58V0"/><path class="cls-2" d="M1048.93.12V469.6M939.2.09V469.54"/><path class="cls-3" d="M27.76,27.75V441.87H1049V27.75ZM138.34,331.54V137.69H939.17V331.54Z"/><path d="M891.68,418.59l4.12,7,4.12-7h3l-5.55,8.58,5.55,8.61h-3l-4.12-6.68-4.12,6.71h-3l5.46-8.61-5.46-8.58Zm25,6.13v-2.43h13.79v2.43Zm0,6.63v-2.43h13.79v2.43Z"/><path class="cls-4" d="M315.08,216.53l-.25-.64L290.34,152a6.2,6.2,0,0,0-2.51-3,6.31,6.31,0,0,0-3.84-1,6.42,6.42,0,0,0-5.87,4.69l-16.53,50.61H194.7l-16.53-50.64a6.48,6.48,0,0,0-8-4.47,6.26,6.26,0,0,0-1.73.78,6.18,6.18,0,0,0-2.5,3l-24.5,63.89-.25.64A45.46,45.46,0,0,0,156.29,269l.08.06.22.18,37.3,27.92,18.45,14,11.22,8.49a7.61,7.61,0,0,0,9.15,0L244,311.2l18.44-14,37.51-28.09L300,269a45.49,45.49,0,0,0,15.07-52.5Z"/><path class="cls-5" d="M315.08,216.53l-.25-.64A82.79,82.79,0,0,0,281.9,230.7l-53.73,40.65,34.23,25.88,37.52-28.09.1-.07a45.47,45.47,0,0,0,15.05-52.53Z"/><path class="cls-4" d="M193.89,297.23l18.45,14,11.22,8.49a7.61,7.61,0,0,0,9.15,0L244,311.23l18.44-14-34.22-25.88Z"/><path class="cls-5" d="M174.37,230.7a82.39,82.39,0,0,0-32.92-14.8l-.25.64a45.48,45.48,0,0,0,15.09,52.54l.08.06.22.17,37.3,27.92,34.28-25.88C203.49,252.71,174.53,230.81,174.37,230.7Z"/><path class="cls-4" d="M460.11,213.23H486.4c-4.38-28-28.6-47.47-60.13-47.47C389,165.76,361,193.18,361,239.12c0,45.1,26.72,73.07,66,73.07,35.27,0,60.55-22.68,60.55-59.43V235.64h-57.8v20.17h32.85c-.42,20.32-14,33.2-35.42,33.2C403.32,289,387,271.12,387,238.83c0-32.08,16.63-49.9,39.67-49.9,17.19,0,28.88,9.2,33.48,24.3Zm44.87,97h25.19V203.35H505Zm12.66-123.83c8,0,14.54-6.12,14.54-13.64s-6.54-13.72-14.54-13.72S503,165.18,503,172.78,509.57,186.42,517.64,186.42Zm88,16.92h-21.1V177.73H559.33v25.61H544.17v19.47h15.17v59.44c-.14,20.1,14.47,30,33.41,29.44a50.52,50.52,0,0,0,14.82-2.52l-4.24-19.69a31.23,31.23,0,0,1-7.38,1c-6.33,0-11.41-2.23-11.41-12.39V222.81h21.09Zm19.49,106.91H713.7V288.6H650.93V167.72H625.11ZM762,312.39c16.78,0,26.79-7.85,31.38-16.83h.84v14.69h24.21V238.7c0-28.25-23-36.74-43.43-36.74-22.47,0-39.74,10-45.31,29.5l23.53,3.35c2.5-7.31,9.59-13.58,21.91-13.58,11.69,0,18.1,6,18.1,16.49v.42c0,7.24-7.59,7.58-26.44,9.61-20.74,2.23-40.57,8.42-40.57,32.5C726.17,301.26,741.57,312.39,762,312.39Zm8.29-18.51c-10.51,0-18-4.79-18-14.06,0-9.67,8.43-13.7,19.7-15.31,6.61-.89,19.83-2.57,23.11-5.22v12.6C795,283.81,785.4,293.88,770.24,293.88ZM837,310.25h24.78V293.39h1.46c4,7.8,12.25,18.73,30.62,18.73,25.19,0,44-20,44-55.18,0-35.64-19.41-55-44.12-55-18.86,0-26.72,11.34-30.55,19.07h-1V167.72H837Zm24.71-53.44c0-20.74,8.9-34.17,25.12-34.17,16.77,0,25.4,14.25,25.4,34.17s-8.77,34.64-25.4,34.64C870.73,291.44,861.69,277.53,861.69,256.81Z"/><path class="cls-6" d="M982.86,441.91c16.77,0,26.81-7.85,31.39-16.84h.83v14.74h24.22V368.22c0-28.25-23-36.74-43.42-36.74-22.48,0-39.74,10-45.31,29.5l23.52,3.35c2.51-7.31,9.61-13.58,21.92-13.58,11.7,0,18.1,6,18.1,16.5v.42c0,7.23-7.59,7.58-26.45,9.6-20.74,2.23-40.57,8.42-40.57,32.5,0,21,15.38,32.15,35.77,32.15Zm8.31-18.51c-10.5,0-18-4.8-18-14.06,0-9.67,8.42-13.71,19.69-15.31,6.61-.9,19.83-2.57,23.1-5.22v12.6c0,11.9-9.64,22-24.8,22Z"/></g></g></svg>