<svg id="Layer_1" data-name="Layer 1" xmlns="http://www.w3.org/2000/svg" viewBox="0 0 1645.31 1506.79"><defs><style>.cls-1,.cls-2{fill:#fff}.cls-1,.cls-3{font-family:Inter-Regular,Inter;font-size:20px}.cls-4{fill:#232150}.cls-5{stroke:#fff}.cls-5,.cls-6,.cls-7,.cls-8,.cls-9{fill:none;stroke-linecap:round;stroke-linejoin:round;stroke-width:2px}.cls-6{stroke:#df4329}.cls-7{stroke:#10aeae}.cls-10{opacity:.6}.cls-11{fill:#a686f2}.cls-8{stroke:#7759c2;stroke-dasharray:10 7}.cls-12,.cls-13{letter-spacing:-.02em}.cls-9{stroke:#232150}</style></defs><g class="cls-10"><path class="cls-9" d="M226.54 591.57h-79.77c-27.61 0-50-22.39-50-50v-15.96M96.77 395.25v-22.17M96.77 242.73v-32.18M1378 591.57H311.86M1420.8 548.91v-46.2M562.61 327.63h60.61M503.14 327.63h27.11M403.86 417.39v-39.76c0-27.61 22.39-50 50-50h16.92M1463.32 591.57h64.78M1086.65 327.63h178.59M708.41 327.63h177.83M1145.26 327.63h5.7c17.67 0 32-14.32 32-32v-21.16M746.03 90.39H566.7c-27.61 0-50 22.39-50 50v59.07M1046.57 176.78v-36.39c0-27.61-22.39-50-50-50H831.26M1001.33 327.63h-29.77M1420.66 417.39v-39.76c0-27.61-22.39-50-50-50h-20.1M403.86 502.71v38.83c0 27.61-22.39 50-50 50H318.1"/></g><circle class="cls-11" cx="665.75" cy="327.63" r="42.66"/><path class="cls-8" d="M486.96 302.91V290.5h29.74M546.43 302.91V290.5H516.7M516.7 290.5v-46.81M666.44 274.85v-31.16"/><circle class="cls-11" cx="269.2" cy="591.57" r="42.66"/><circle class="cls-11" cx="96.77" cy="437.91" r="42.66"/><circle class="cls-11" cx="96.77" cy="285.39" r="42.66"/><circle class="cls-11" cx="96.77" cy="122.85" r="42.66"/><circle class="cls-11" cx="403.86" cy="460.05" r="42.66"/><circle class="cls-11" cx="1184.45" cy="231.56" r="42.66"/><circle class="cls-11" cx="1307.9" cy="327.63" r="42.66"/><circle class="cls-11" cx="1420.66" cy="591.57" r="42.66"/><circle class="cls-11" cx="1420.66" cy="460.05" r="42.66"/><circle class="cls-11" cx="1571.33" cy="591.57" r="42.66"/><circle class="cls-9" cx="486.96" cy="327.63" r="16.18"/><circle class="cls-9" cx="546.43" cy="327.63" r="16.18"/><circle class="cls-5" cx="393.69" cy="474.21" r="3.73"/><circle class="cls-5" cx="393.69" cy="447.62" r="3.73"/><circle class="cls-5" cx="414.03" cy="474.21" r="3.73"/><path class="cls-5" d="M414.03 471.08v-18.77c0-2.59-2.1-4.69-4.69-4.69h-5.47"/><path class="cls-5" d="M408.55 453.1l-5.47-5.48 5.47-5.47M393.69 450.75v20.33M1167.39 216.51h34.13v18.88c0 2.41-1.95 4.36-4.36 4.36h-29.05V221.6M1179.73 246.62v-6.88M1189.9 239.74v6.88M1194.98 246.62h-20.33M1185.59 225.24l6.62 6.62"/><path class="cls-5" d="M1186.59 229.67l-.98-4.44 4.43.98-3.45 3.46z"/><circle class="cls-5" cx="1307.9" cy="327.3" r="17.06"/><path class="cls-5" d="M1301.92 328.08l3.16 3.16 7.73-7.73"/><circle class="cls-5" cx="1414.38" cy="472.33" r="3.71"/><circle class="cls-5" cx="1414.38" cy="445.62" r="3.71"/><circle class="cls-5" cx="1432.93" cy="464.18" r="3.71"/><path class="cls-5" d="M1414.38 448.59v20.78M1414.38 450.08v5.2c0 4.92 3.99 8.9 8.9 8.9h6.68"/><text class="cls-3" transform="translate(227.77 383.68)"><tspan x="0" y="0">Consec</tspan><tspan x="71.45" y="0" letter-spacing="0">t</tspan><tspan x="78.61" y="0">etur </tspan><tspan x="13.29" y="24">adipiscing</tspan></text><text class="cls-3" transform="translate(67.11 196.18)"><tspan x="0" y="0">Lo</tspan><tspan class="cls-13" x="23.18" y="0">r</tspan><tspan x="30.28" y="0">em</tspan></text><text class="cls-3" transform="translate(68.3 360.07)"><tspan x="0" y="0">Ipsum</tspan></text><text class="cls-3" transform="translate(71.56 512.6)"><tspan x="0" y="0">Dolor</tspan></text><path class="cls-8" d="M1478.25 460.05h61.09v-35.74M349.97 460.02h-61.09v-35.74"/><text class="cls-3" transform="translate(467.28 233)"><tspan x="0" y="0">Elit sed do</tspan></text><path d="M627.95 206.53v-14.55h8.78v1.56h-7.02v4.91h6.56v1.56h-6.56v4.94h7.13v1.56h-8.89zM640.54 193.8c-.33 0-.61-.11-.84-.33s-.35-.49-.35-.8.12-.58.35-.8.51-.33.84-.33.61.11.84.33.35.49.35.8-.12.58-.35.8-.51.33-.84.33zm-.86 12.73v-10.91h1.68v10.91h-1.68zM651.3 202.07v-6.45h1.68v10.91h-1.68v-1.85h-.11c-.26.55-.65 1.02-1.19 1.41-.54.39-1.22.58-2.05.58-.68 0-1.29-.15-1.82-.45-.53-.3-.95-.76-1.25-1.36-.3-.61-.45-1.38-.45-2.3v-6.93h1.68v6.82c0 .8.22 1.43.67 1.9.45.47 1.02.71 1.71.71.42 0 .84-.11 1.27-.32.43-.21.8-.54 1.09-.98.3-.44.44-1 .44-1.68zM663.77 198.06l-1.51.43c-.09-.25-.23-.5-.42-.73-.18-.24-.43-.44-.74-.59s-.71-.23-1.2-.23c-.67 0-1.22.15-1.67.46-.44.31-.66.69-.66 1.16 0 .42.15.75.45.99.3.24.78.44 1.42.6l1.62.4c.98.24 1.7.6 2.18 1.08.48.49.72 1.11.72 1.87 0 .62-.18 1.18-.54 1.68-.36.49-.86.88-1.5 1.16-.64.28-1.38.43-2.23.43-1.11 0-2.03-.24-2.76-.72s-1.19-1.19-1.39-2.12l1.59-.4c.15.59.44 1.03.86 1.32.42.29.98.44 1.67.44.78 0 1.4-.17 1.86-.5.46-.33.69-.73.69-1.2 0-.38-.13-.7-.4-.96-.26-.26-.67-.45-1.22-.58l-1.82-.43c-1-.24-1.73-.6-2.2-1.1-.47-.5-.7-1.12-.7-1.88 0-.62.17-1.16.52-1.63s.82-.85 1.43-1.12c.6-.27 1.29-.4 2.06-.4 1.08 0 1.93.24 2.55.71.62.47 1.06 1.1 1.32 1.88zM666.5 206.53v-10.91h1.62v1.7h.14c.23-.58.59-1.04 1.1-1.36s1.12-.49 1.83-.49 1.32.16 1.8.49c.48.32.86.78 1.12 1.36h.11c.28-.56.7-1.01 1.26-1.35.56-.33 1.23-.5 2.01-.5.98 0 1.77.3 2.39.91s.93 1.55.93 2.84v7.3h-1.68v-7.3c0-.81-.22-1.38-.66-1.73-.44-.35-.96-.52-1.56-.52-.77 0-1.36.23-1.78.69-.42.46-.63 1.05-.63 1.75v7.1h-1.71v-7.47c0-.62-.2-1.12-.6-1.5s-.92-.57-1.56-.57c-.44 0-.84.12-1.22.35-.38.23-.68.55-.91.96-.23.41-.34.88-.34 1.42v6.82h-1.68zM688.32 206.76c-.98 0-1.85-.23-2.59-.7s-1.32-1.12-1.73-1.97c-.42-.84-.62-1.83-.62-2.95s.21-2.13.62-2.98c.41-.85.99-1.51 1.73-1.97s1.6-.7 2.59-.7 1.85.23 2.59.7 1.32 1.13 1.73 1.97c.41.85.62 1.84.62 2.98s-.21 2.11-.62 2.95c-.42.84-.99 1.5-1.73 1.97s-1.6.7-2.59.7zm0-1.51c.75 0 1.36-.19 1.85-.58.48-.38.84-.89 1.07-1.51.23-.62.35-1.3.35-2.03s-.12-1.41-.35-2.04c-.23-.63-.59-1.14-1.07-1.53-.48-.39-1.1-.58-1.85-.58s-1.36.19-1.85.58c-.48.39-.84.9-1.07 1.53s-.35 1.31-.35 2.04.12 1.41.35 2.03.59 1.13 1.07 1.51c.48.38 1.1.58 1.85.58zM699.94 206.76c-.91 0-1.71-.23-2.41-.69-.7-.46-1.24-1.12-1.63-1.96-.39-.84-.59-1.84-.59-3s.2-2.14.59-2.98c.39-.84.94-1.49 1.64-1.95.7-.46 1.51-.69 2.43-.69.71 0 1.27.12 1.69.35.42.23.73.5.95.79s.39.54.51.73h.14v-5.37h1.68v14.55h-1.62v-1.68h-.2c-.12.2-.3.45-.53.75s-.55.57-.97.8c-.42.23-.98.35-1.68.35zm.23-1.51c.67 0 1.24-.18 1.7-.53s.82-.84 1.06-1.47c.24-.63.36-1.35.36-2.18s-.12-1.53-.36-2.14c-.24-.61-.59-1.09-1.05-1.43-.46-.34-1.04-.52-1.72-.52s-1.3.18-1.77.54c-.47.36-.82.85-1.06 1.47-.23.62-.35 1.31-.35 2.08s.12 1.48.36 2.11c.24.63.59 1.13 1.07 1.51.47.37 1.06.56 1.76.56zM638.85 219.62v1.42h-5.65v-1.42h5.65zm-4.01-2.61h1.68v10.4c0 .47.07.83.21 1.06s.32.39.54.47c.22.08.45.12.7.12.18 0 .34-.01.46-.03.12-.02.21-.04.28-.05l.34 1.51c-.11.04-.27.09-.48.13-.2.05-.46.07-.77.07-.47 0-.94-.1-1.39-.31-.45-.2-.83-.51-1.12-.93-.3-.42-.44-.94-.44-1.58v-10.85zM645.83 230.76c-1.05 0-1.96-.23-2.72-.7-.76-.47-1.34-1.12-1.75-1.96-.41-.84-.61-1.82-.61-2.94s.21-2.1.61-2.96c.41-.85.98-1.52 1.72-2s1.6-.72 2.58-.72c.57 0 1.13.09 1.68.28.55.19 1.06.5 1.51.92.45.42.82.98 1.09 1.68.27.7.41 1.55.41 2.57v.71h-8.41v-1.45h6.71c0-.62-.12-1.17-.37-1.65s-.59-.86-1.04-1.14c-.45-.28-.97-.42-1.58-.42-.67 0-1.24.16-1.73.49s-.86.76-1.12 1.28c-.26.53-.39 1.09-.39 1.69v.97c0 .82.14 1.52.43 2.09.29.57.68 1 1.2 1.3.51.3 1.11.44 1.78.44.44 0 .84-.06 1.2-.19.36-.12.67-.31.93-.57.26-.25.46-.57.6-.95l1.62.45c-.17.55-.46 1.03-.86 1.45-.4.41-.9.74-1.49.97s-1.26.34-2 .34zM652.91 230.53v-10.91h1.62v1.7h.14c.23-.58.59-1.04 1.1-1.36s1.12-.49 1.83-.49 1.32.16 1.8.49c.48.32.86.78 1.12 1.36h.11c.28-.56.7-1.01 1.26-1.35.56-.33 1.23-.5 2.01-.5.98 0 1.77.3 2.39.91s.93 1.55.93 2.84v7.3h-1.68v-7.3c0-.81-.22-1.38-.66-1.73-.44-.35-.96-.52-1.56-.52-.77 0-1.36.23-1.78.69-.42.46-.63 1.05-.63 1.75v7.1h-1.71v-7.47c0-.62-.2-1.12-.6-1.5s-.92-.57-1.56-.57c-.44 0-.84.12-1.22.35-.38.23-.68.55-.91.96-.23.41-.34.88-.34 1.42v6.82h-1.68zM670.29 234.62v-15h1.62v1.73h.2c.12-.19.29-.43.51-.73s.54-.56.95-.79c.41-.23.98-.35 1.69-.35.92 0 1.73.23 2.43.69.7.46 1.25 1.11 1.64 1.95s.59 1.84.59 2.98-.2 2.16-.59 3c-.39.85-.94 1.5-1.63 1.96-.7.46-1.5.69-2.41.69-.7 0-1.26-.12-1.68-.35-.42-.23-.75-.5-.97-.8s-.4-.55-.53-.75h-.14v5.77h-1.68zm1.65-9.54c0 .82.12 1.55.36 2.18.24.63.59 1.12 1.06 1.47s1.03.53 1.7.53 1.29-.19 1.76-.56c.47-.37.83-.87 1.07-1.51.24-.63.36-1.34.36-2.11s-.12-1.46-.35-2.08a3.22 3.22 0 00-1.06-1.47c-.47-.36-1.06-.54-1.77-.54s-1.25.17-1.72.52c-.46.34-.81.82-1.05 1.43s-.36 1.33-.36 2.14zM686.91 230.76c-.98 0-1.85-.23-2.59-.7s-1.32-1.12-1.73-1.97c-.42-.84-.62-1.83-.62-2.95s.21-2.13.62-2.98c.41-.85.99-1.51 1.73-1.97s1.6-.7 2.59-.7 1.85.23 2.59.7 1.32 1.13 1.73 1.97c.41.85.62 1.84.62 2.98s-.21 2.11-.62 2.95c-.42.84-.99 1.5-1.73 1.97s-1.6.7-2.59.7zm0-1.51c.75 0 1.36-.19 1.85-.58.48-.38.84-.89 1.07-1.51.23-.62.35-1.3.35-2.03s-.12-1.41-.35-2.04c-.23-.63-.59-1.14-1.07-1.53-.48-.39-1.1-.58-1.85-.58s-1.36.19-1.85.58c-.48.39-.84.9-1.07 1.53s-.35 1.31-.35 2.04.12 1.41.35 2.03.59 1.13 1.07 1.51c.48.38 1.1.58 1.85.58zM694.41 230.53v-10.91h1.62v1.65h.11c.2-.54.56-.98 1.08-1.31s1.11-.5 1.76-.5h.46c.18 0 .32.01.42.02v1.7c-.06-.01-.19-.04-.39-.07s-.41-.05-.64-.05c-.53 0-1 .11-1.42.33-.41.22-.74.52-.98.91s-.36.83-.36 1.32v6.9h-1.68z"/><text class="cls-3" transform="translate(742.11 161.07)"><tspan x="0" y="0">Incididunt</tspan></text><path class="cls-8" d="M1046.57 274.85v-31.16"/><path d="M992.88 206.53h-4.49v-14.55h4.69c1.41 0 2.62.29 3.62.87 1 .58 1.77 1.41 2.31 2.49s.8 2.38.8 3.88-.27 2.82-.81 3.91c-.54 1.09-1.33 1.93-2.36 2.51-1.03.58-2.29.88-3.76.88zm-2.73-1.56h2.61c1.2 0 2.2-.23 2.99-.7.79-.46 1.38-1.12 1.77-1.98.39-.86.58-1.88.58-3.06s-.19-2.19-.58-3.04c-.38-.85-.96-1.5-1.72-1.96-.76-.46-1.71-.69-2.85-.69h-2.81v11.42zM1006.97 206.76c-.98 0-1.85-.23-2.59-.7s-1.32-1.12-1.73-1.97c-.42-.84-.62-1.83-.62-2.95s.21-2.13.62-2.98c.41-.85.99-1.51 1.73-1.97s1.6-.7 2.59-.7 1.85.23 2.59.7 1.32 1.13 1.73 1.97c.41.85.62 1.84.62 2.98s-.21 2.11-.62 2.95c-.42.84-.99 1.5-1.73 1.97s-1.6.7-2.59.7zm0-1.51c.75 0 1.36-.19 1.85-.58.48-.38.84-.89 1.07-1.51.23-.62.35-1.3.35-2.03s-.12-1.41-.35-2.04c-.23-.63-.59-1.14-1.07-1.53-.48-.39-1.1-.58-1.85-.58s-1.36.19-1.85.58c-.48.39-.84.9-1.07 1.53s-.35 1.31-.35 2.04.12 1.41.35 2.03.59 1.13 1.07 1.51c.48.38 1.1.58 1.85.58zM1016.14 191.98v14.55h-1.68v-14.55h1.68zM1023.64 206.76c-.98 0-1.85-.23-2.59-.7s-1.32-1.12-1.73-1.97c-.42-.84-.62-1.83-.62-2.95s.21-2.13.62-2.98c.41-.85.99-1.51 1.73-1.97s1.6-.7 2.59-.7 1.85.23 2.59.7 1.32 1.13 1.73 1.97c.41.85.62 1.84.62 2.98s-.21 2.11-.62 2.95c-.42.84-.99 1.5-1.73 1.97s-1.6.7-2.59.7zm0-1.51c.75 0 1.36-.19 1.85-.58.48-.38.84-.89 1.07-1.51.23-.62.35-1.3.35-2.03s-.12-1.41-.35-2.04c-.23-.63-.59-1.14-1.07-1.53-.48-.39-1.1-.58-1.85-.58s-1.36.19-1.85.58c-.48.39-.84.9-1.07 1.53s-.35 1.31-.35 2.04.12 1.41.35 2.03.59 1.13 1.07 1.51c.48.38 1.1.58 1.85.58zM1031.14 206.53v-10.91h1.62v1.65h.11c.2-.54.56-.98 1.08-1.31s1.11-.5 1.76-.5h.46c.18 0 .32.01.42.02v1.7c-.06-.01-.19-.04-.39-.07s-.41-.05-.64-.05c-.53 0-1 .11-1.42.33-.41.22-.74.52-.98.91s-.36.83-.36 1.32v6.9h-1.68zM1044.21 206.53v-10.91h1.62v1.7h.14c.23-.58.59-1.04 1.1-1.36s1.12-.49 1.83-.49 1.32.16 1.8.49c.48.32.86.78 1.12 1.36h.11c.28-.56.7-1.01 1.26-1.35.56-.33 1.23-.5 2.01-.5.98 0 1.77.3 2.39.91s.93 1.55.93 2.84v7.3h-1.68v-7.3c0-.81-.22-1.38-.66-1.73-.44-.35-.96-.52-1.56-.52-.77 0-1.36.23-1.78.69-.42.46-.63 1.05-.63 1.75v7.1h-1.71v-7.47c0-.62-.2-1.12-.6-1.5s-.92-.57-1.56-.57c-.44 0-.84.12-1.22.35-.38.23-.68.55-.91.96-.23.41-.34.88-.34 1.42v6.82h-1.68zM1064.81 206.79c-.69 0-1.32-.13-1.88-.39s-1.01-.64-1.34-1.14c-.33-.5-.5-1.1-.5-1.81 0-.62.12-1.13.37-1.52.25-.39.58-.7.99-.92.41-.22.87-.39 1.37-.5.5-.11 1-.2 1.51-.27.66-.09 1.2-.15 1.62-.2.42-.04.72-.12.91-.23.19-.11.29-.3.29-.57v-.06c0-.7-.19-1.25-.57-1.63-.38-.39-.96-.58-1.73-.58s-1.43.18-1.88.53c-.45.35-.77.72-.96 1.12l-1.59-.57c.28-.66.66-1.18 1.14-1.55.48-.37 1-.63 1.56-.78.57-.15 1.12-.22 1.67-.22.35 0 .75.04 1.21.12s.9.25 1.33.51.79.64 1.07 1.16c.28.52.43 1.21.43 2.07v7.19h-1.68v-1.48h-.08c-.11.24-.3.49-.57.76-.27.27-.62.5-1.06.69s-.98.28-1.61.28zm.25-1.51c.66 0 1.22-.13 1.68-.39.46-.26.8-.6 1.04-1.01.23-.41.35-.84.35-1.3v-1.53c-.07.09-.23.16-.47.23-.24.07-.51.13-.82.18-.31.05-.61.09-.9.13s-.53.06-.71.09c-.44.06-.84.15-1.22.27-.38.13-.68.31-.91.56s-.34.59-.34 1.01c0 .58.22 1.02.65 1.32s.98.44 1.65.44zM1077.28 210.85c-.81 0-1.51-.1-2.09-.31-.58-.21-1.07-.48-1.45-.81-.39-.33-.69-.69-.92-1.07l1.33-.94c.15.2.34.43.58.69.23.26.55.48.96.67.41.19.94.29 1.59.29.88 0 1.61-.21 2.18-.64.57-.43.86-1.09.86-2v-2.22h-.14c-.12.2-.3.44-.52.73-.23.29-.55.55-.97.77s-.98.34-1.69.34c-.88 0-1.67-.21-2.37-.62-.7-.42-1.25-1.02-1.66-1.82-.4-.8-.61-1.76-.61-2.9s.2-2.09.59-2.92c.39-.83.94-1.48 1.64-1.93.7-.46 1.51-.69 2.43-.69.71 0 1.28.12 1.69.35s.74.5.97.79c.22.3.4.54.52.73h.17v-1.73h1.62v11.22c0 .94-.21 1.7-.64 2.29s-.99 1.02-1.7 1.3-1.5.42-2.38.42zm-.06-6c.67 0 1.24-.15 1.7-.46s.82-.75 1.06-1.33.36-1.27.36-2.07-.12-1.48-.36-2.08c-.24-.6-.59-1.07-1.05-1.41s-1.04-.51-1.72-.51-1.3.18-1.77.54c-.47.36-.82.84-1.06 1.45-.23.61-.35 1.28-.35 2.02s.12 1.43.36 2.01.59 1.03 1.07 1.36c.47.33 1.06.49 1.76.49zM1086.74 199.97v6.56h-1.68v-10.91h1.62v1.7h.14c.25-.55.64-1 1.16-1.34.52-.34 1.19-.51 2.02-.51.74 0 1.38.15 1.94.45s.99.76 1.29 1.36.46 1.38.46 2.3v6.93h-1.68v-6.82c0-.86-.22-1.53-.67-2.01-.45-.48-1.06-.72-1.83-.72-.54 0-1.01.12-1.43.35-.42.23-.75.57-.99 1.02-.24.44-.36.98-.36 1.62zM1099.98 206.79c-.69 0-1.32-.13-1.88-.39s-1.01-.64-1.34-1.14c-.33-.5-.5-1.1-.5-1.81 0-.62.12-1.13.37-1.52.25-.39.58-.7.99-.92.41-.22.87-.39 1.37-.5.5-.11 1-.2 1.51-.27.66-.09 1.2-.15 1.62-.2.42-.04.72-.12.91-.23.19-.11.29-.3.29-.57v-.06c0-.7-.19-1.25-.57-1.63-.38-.39-.96-.58-1.73-.58s-1.43.18-1.88.53c-.45.35-.77.72-.96 1.12l-1.59-.57c.28-.66.66-1.18 1.14-1.55.48-.37 1-.63 1.56-.78.57-.15 1.12-.22 1.67-.22.35 0 .75.04 1.21.12s.9.25 1.33.51.79.64 1.07 1.16c.28.52.43 1.21.43 2.07v7.19h-1.68v-1.48h-.08c-.11.24-.3.49-.57.76-.27.27-.62.5-1.06.69s-.98.28-1.61.28zm.25-1.51c.66 0 1.22-.13 1.68-.39.46-.26.8-.6 1.04-1.01.23-.41.35-.84.35-1.3v-1.53c-.07.09-.23.16-.47.23-.24.07-.51.13-.82.18-.31.05-.61.09-.9.13s-.53.06-.71.09c-.44.06-.84.15-1.22.27-.38.13-.68.31-.91.56s-.34.59-.34 1.01c0 .58.22 1.02.65 1.32s.98.44 1.65.44zM1023.39 230.79c-.69 0-1.32-.13-1.88-.39s-1.01-.64-1.34-1.14c-.33-.5-.5-1.1-.5-1.81 0-.62.12-1.13.37-1.52.25-.39.58-.7.99-.92.41-.22.87-.39 1.37-.5.5-.11 1-.2 1.51-.27.66-.09 1.2-.15 1.62-.2.42-.04.72-.12.91-.23.19-.11.29-.3.29-.57v-.06c0-.7-.19-1.25-.57-1.63-.38-.39-.96-.58-1.73-.58s-1.43.18-1.88.53c-.45.35-.77.72-.96 1.12l-1.59-.57c.28-.66.66-1.18 1.14-1.55.48-.37 1-.63 1.56-.78.57-.15 1.12-.22 1.67-.22.35 0 .75.04 1.21.12s.9.25 1.33.51.79.64 1.07 1.16c.28.52.43 1.21.43 2.07v7.19h-1.68v-1.48h-.08c-.11.24-.3.49-.57.76-.27.27-.62.5-1.06.69s-.98.28-1.61.28zm.25-1.51c.66 0 1.22-.13 1.68-.39.46-.26.8-.6 1.04-1.01.23-.41.35-.84.35-1.3v-1.53c-.07.09-.23.16-.47.23-.24.07-.51.13-.82.18-.31.05-.61.09-.9.13s-.53.06-.71.09c-.44.06-.84.15-1.22.27-.38.13-.68.31-.91.56s-.34.59-.34 1.01c0 .58.22 1.02.65 1.32s.98.44 1.65.44zM1033.13 215.98v14.55h-1.68v-14.55h1.68zM1037.05 217.8c-.33 0-.61-.11-.84-.33s-.35-.49-.35-.8.12-.58.35-.8.51-.33.84-.33.61.11.84.33.35.49.35.8-.12.58-.35.8-.51.33-.84.33zm-.85 12.73v-10.91h1.68v10.91h-1.68zM1048.39 234.62v-5.77h-.14c-.12.2-.3.45-.53.75s-.55.57-.97.8c-.42.23-.98.35-1.68.35-.91 0-1.71-.23-2.41-.69-.7-.46-1.24-1.12-1.63-1.96-.39-.84-.59-1.84-.59-3s.2-2.14.59-2.98c.39-.84.94-1.49 1.64-1.95.7-.46 1.51-.69 2.43-.69.71 0 1.27.12 1.69.35.42.23.73.5.95.79s.39.54.51.73h.2v-1.73h1.62v15h-1.68zm-3.1-5.37c.67 0 1.24-.18 1.7-.53s.82-.84 1.06-1.47c.24-.63.36-1.35.36-2.18s-.12-1.53-.36-2.14c-.24-.61-.59-1.09-1.05-1.43-.46-.34-1.04-.52-1.72-.52s-1.3.18-1.77.54c-.47.36-.82.85-1.06 1.47-.23.62-.35 1.31-.35 2.08s.12 1.48.36 2.11c.24.63.59 1.13 1.07 1.51.47.37 1.06.56 1.76.56zM1060.01 226.07v-6.45h1.68v10.91h-1.68v-1.85h-.11c-.26.55-.65 1.02-1.19 1.41-.54.39-1.22.58-2.05.58-.68 0-1.29-.15-1.82-.45-.53-.3-.95-.76-1.25-1.36-.3-.61-.45-1.38-.45-2.3v-6.93h1.68v6.82c0 .8.22 1.43.67 1.9.45.47 1.02.71 1.71.71.42 0 .84-.11 1.27-.32.43-.21.8-.54 1.09-.98.3-.44.44-1 .44-1.68zM1067.96 230.79c-.69 0-1.32-.13-1.88-.39s-1.01-.64-1.34-1.14c-.33-.5-.5-1.1-.5-1.81 0-.62.12-1.13.37-1.52.25-.39.58-.7.99-.92.41-.22.87-.39 1.37-.5.5-.11 1-.2 1.51-.27.66-.09 1.2-.15 1.62-.2.42-.04.72-.12.91-.23.19-.11.29-.3.29-.57v-.06c0-.7-.19-1.25-.57-1.63-.38-.39-.96-.58-1.73-.58s-1.43.18-1.88.53c-.45.35-.77.72-.96 1.12l-1.59-.57c.28-.66.66-1.18 1.14-1.55.48-.37 1-.63 1.56-.78.57-.15 1.12-.22 1.67-.22.35 0 .75.04 1.21.12s.9.25 1.33.51.79.64 1.07 1.16c.28.52.43 1.21.43 2.07v7.19h-1.68v-1.48h-.08c-.11.24-.3.49-.57.76-.27.27-.62.5-1.06.69s-.98.28-1.61.28zm.26-1.51c.66 0 1.22-.13 1.68-.39.46-.26.8-.6 1.04-1.01.23-.41.35-.84.35-1.3v-1.53c-.07.09-.23.16-.47.23-.24.07-.51.13-.82.18-.31.05-.61.09-.9.13s-.53.06-.71.09c-.44.06-.84.15-1.22.27-.38.13-.68.31-.91.56s-.34.59-.34 1.01c0 .58.22 1.02.65 1.32s.98.44 1.65.44z"/><path class="cls-8" d="M928.9 274.85v-31.16"/><text class="cls-3" transform="translate(896.09 233.24)"><tspan x="0" y="0">Labo</tspan><tspan class="cls-12" x="46.88" y="0">r</tspan><tspan x="53.98" y="0">e</tspan></text><path class="cls-8" d="M1184.45 178.65v-31.16"/><text class="cls-3" transform="translate(1147.85 137.04)"><tspan x="0" y="0">Ut enim</tspan></text><path class="cls-8" d="M1307.36 275.29v-31.16"/><text class="cls-3" transform="translate(1279.18 233.68)"><tspan x="0" y="0">Minim</tspan></text><g><path d="M1507.07 369.14l4.32 12.24h.17l4.32-12.24h1.85l-5.34 14.55h-1.82l-5.34-14.55h1.85zM1523.32 383.91c-1.05 0-1.96-.23-2.72-.7-.76-.47-1.34-1.12-1.75-1.96-.41-.84-.62-1.82-.62-2.94s.21-2.1.62-2.96c.41-.85.98-1.52 1.72-2s1.6-.72 2.58-.72c.57 0 1.13.09 1.68.28.55.19 1.06.5 1.51.92.46.42.82.98 1.09 1.68.27.7.41 1.55.41 2.57v.71h-8.41v-1.45h6.71c0-.62-.12-1.17-.37-1.65s-.59-.86-1.04-1.14c-.45-.28-.97-.42-1.58-.42-.67 0-1.24.16-1.73.49-.48.33-.86.76-1.12 1.28-.26.53-.39 1.09-.39 1.69v.97c0 .82.14 1.52.43 2.09.29.57.68 1 1.2 1.3.51.3 1.11.44 1.78.44.44 0 .84-.06 1.2-.19.36-.12.67-.31.93-.57.26-.25.46-.57.6-.95l1.62.45c-.17.55-.46 1.03-.86 1.45-.4.41-.9.74-1.49.97s-1.26.34-2 .34zM1532.07 377.12v6.56h-1.68v-10.91h1.62v1.7h.14c.25-.55.64-1 1.16-1.34.52-.34 1.19-.51 2.02-.51.74 0 1.38.15 1.94.45.55.3.99.76 1.29 1.36.31.61.46 1.38.46 2.3v6.93h-1.68v-6.82c0-.86-.22-1.53-.67-2.01-.45-.48-1.06-.72-1.83-.72-.54 0-1.01.12-1.43.35-.42.23-.75.57-.99 1.02-.24.44-.36.98-.36 1.62zM1542.95 370.95c-.33 0-.61-.11-.84-.33s-.35-.49-.35-.8.12-.58.35-.8.51-.33.84-.33.61.11.84.33.35.49.35.8-.12.58-.35.8-.51.33-.84.33zm-.85 12.73v-10.91h1.68v10.91h-1.68zM1550.06 383.94c-.69 0-1.32-.13-1.88-.39-.56-.26-1.01-.64-1.34-1.14-.33-.5-.5-1.1-.5-1.81 0-.62.12-1.13.37-1.52s.58-.7.99-.92c.41-.22.87-.39 1.37-.5.5-.11 1-.2 1.51-.27.66-.09 1.2-.15 1.62-.2.42-.04.72-.12.91-.23s.29-.3.29-.57v-.06c0-.7-.19-1.25-.57-1.63-.38-.39-.96-.58-1.73-.58s-1.43.18-1.88.53c-.45.35-.77.72-.96 1.12l-1.59-.57c.28-.66.66-1.18 1.14-1.55.47-.37 1-.63 1.56-.78.56-.15 1.12-.22 1.67-.22.35 0 .75.04 1.21.12s.9.25 1.33.51c.43.26.79.64 1.07 1.16.29.52.43 1.21.43 2.07v7.19h-1.68v-1.48h-.08c-.12.24-.3.49-.57.76-.27.27-.62.5-1.06.69-.44.19-.98.28-1.61.28zm.25-1.51c.66 0 1.22-.13 1.68-.39.46-.26.8-.6 1.04-1.01.23-.41.35-.84.35-1.3v-1.53c-.07.09-.23.16-.46.23-.24.07-.51.13-.82.18-.31.05-.61.09-.9.13s-.53.06-.71.09c-.44.06-.84.15-1.22.27s-.68.31-.91.56c-.23.25-.34.59-.34 1.01 0 .58.22 1.02.65 1.32s.98.44 1.65.44zM1558.12 383.68v-10.91h1.62v1.7h.14c.23-.58.59-1.04 1.1-1.36.51-.32 1.12-.49 1.82-.49s1.32.16 1.8.49.86.78 1.12 1.36h.12c.28-.56.7-1.01 1.26-1.35.56-.33 1.23-.5 2.01-.5.98 0 1.77.3 2.39.91.62.61.93 1.55.93 2.84v7.3h-1.68v-7.3c0-.81-.22-1.38-.66-1.73-.44-.35-.96-.52-1.56-.52-.77 0-1.36.23-1.78.69-.42.46-.63 1.05-.63 1.75v7.1h-1.71v-7.47c0-.62-.2-1.12-.6-1.5s-.92-.57-1.55-.57c-.44 0-.84.12-1.22.35-.38.23-.68.55-.91.96-.23.41-.35.88-.35 1.42v6.82h-1.68zM1528.82 411.77V406h-.14c-.12.2-.3.45-.53.75-.23.3-.55.57-.97.8-.42.23-.98.35-1.68.35-.91 0-1.71-.23-2.41-.69-.7-.46-1.24-1.12-1.63-1.96-.39-.84-.59-1.84-.59-3s.2-2.14.59-2.98c.39-.84.94-1.49 1.64-1.95.7-.46 1.51-.69 2.43-.69.71 0 1.27.12 1.69.35s.73.5.95.79c.22.3.39.54.52.73h.2v-1.73h1.62v15h-1.68zm-3.1-5.37c.67 0 1.24-.18 1.71-.53.46-.35.82-.84 1.06-1.47.24-.63.36-1.35.36-2.18s-.12-1.53-.36-2.14c-.24-.61-.59-1.09-1.05-1.43-.46-.34-1.04-.52-1.72-.52s-1.3.18-1.77.54-.82.85-1.06 1.47c-.23.62-.35 1.31-.35 2.08s.12 1.48.36 2.11c.24.63.59 1.13 1.06 1.51.47.37 1.06.56 1.76.56zM1540.44 403.22v-6.45h1.68v10.91h-1.68v-1.85h-.11c-.26.55-.65 1.02-1.19 1.41-.54.39-1.22.58-2.05.58-.68 0-1.29-.15-1.82-.45-.53-.3-.95-.76-1.25-1.36-.3-.61-.45-1.38-.45-2.3v-6.93h1.68v6.82c0 .8.22 1.43.67 1.9.45.47 1.02.71 1.71.71.42 0 .84-.11 1.27-.32.43-.21.8-.54 1.09-.98.3-.44.45-1 .45-1.68zM1546.04 394.95c-.33 0-.61-.11-.84-.33s-.35-.49-.35-.8.12-.58.35-.8.52-.33.84-.33.61.11.84.33.35.49.35.8-.12.58-.35.8-.52.33-.84.33zm-.86 12.73v-10.91h1.68v10.91h-1.68zM1557.65 399.21l-1.51.43c-.09-.25-.23-.5-.42-.73-.18-.24-.43-.44-.74-.59s-.71-.23-1.2-.23c-.67 0-1.22.15-1.67.46-.44.31-.66.69-.66 1.16 0 .42.15.75.46.99.3.24.78.44 1.42.6l1.62.4c.98.24 1.7.6 2.18 1.08.48.49.72 1.11.72 1.87 0 .62-.18 1.18-.54 1.68-.36.49-.86.88-1.49 1.16-.64.28-1.38.43-2.23.43-1.11 0-2.03-.24-2.76-.72s-1.19-1.19-1.39-2.12l1.59-.4c.15.59.44 1.03.86 1.32.42.29.98.44 1.67.44.78 0 1.4-.17 1.86-.5.46-.33.69-.73.69-1.2 0-.38-.13-.7-.4-.96s-.67-.45-1.22-.58l-1.82-.43c-1-.24-1.73-.6-2.2-1.1-.47-.5-.7-1.12-.7-1.88 0-.62.17-1.16.52-1.63s.82-.85 1.43-1.12c.6-.27 1.29-.4 2.06-.4 1.08 0 1.93.24 2.55.71.62.47 1.06 1.1 1.32 1.88z"/></g><text class="cls-3" transform="translate(1382.71 666.02)"><tspan x="0" y="0">Nostrud</tspan></text><text class="cls-3" transform="translate(1532.18 666.5)"><tspan x="0" y="0">Ullamco</tspan></text><text class="cls-3" transform="translate(230.01 666.26)"><tspan x="0" y="0">Sit amet</tspan></text><path class="cls-9" d="M492.34 327.63h5.84M475.74 327.63h5.84M551.82 327.63h5.83M535.21 327.63h5.84"/><circle class="cls-11" cx="486.96" cy="327.63" r="6.4"/><circle class="cls-11" cx="546.43" cy="327.63" r="6.4"/><g><path class="cls-5" d="M257.17 603.67v5.5h18.35a4.49 4.49 0 004.49-4.49v-30.7H256.8v5.5"/><path class="cls-5" d="M280.06 601.45l9.94-16.62-9.99-5.98M252.85 592.05l2.31 2.31 5.64-5.65"/><circle class="cls-5" cx="256.79" cy="591.57" r="8.4"/></g><g id="calendar-24px"><path class="cls-5" d="M77.57 276.48h38.39v-8.31H77.57v35.02h33.39c2.77 0 5.01-2.24 5.01-5.01v-15.86M84.25 265.63v6.67M109.29 265.63v6.67"/><path class="cls-5" d="M90.09 283.15h19.2v13.36H84.25v-13.36h.83"/></g><g><path class="cls-5" d="M77.04 105.64h15.11c2.78 0 5.04 2.26 5.04 5.04v29.39a4.2 4.2 0 00-4.2-4.2H77.88v-25.68"/><path class="cls-5" d="M111.46 135.87h-10.08a4.2 4.2 0 00-4.2 4.2v-29.39c0-2.78 2.26-5.04 5.04-5.04h14.27v25.19c0 2.78-2.26 5.04-5.04 5.04zM82.91 114.04h8.4v13.43h-8.4zM102.22 115.72h10.08M102.22 120.75h6.72M102.22 125.79h10.08"/></g><g><path class="cls-5" d="M652.85 320.7c-2.13 3.97-2.4 8.86-.31 13.23 3.48 7.29 12.22 10.38 19.51 6.89.75-.36 1.46-.78 2.12-1.24M678.74 334.36a14.64 14.64 0 00.21-13.04c-3.48-7.29-12.22-10.38-19.51-6.89-.82.39-1.59.85-2.3 1.37"/><path class="cls-5" d="M675.67 329.28l2.87 6.01 6.01-2.87M656.09 325.72l-2.87-6-6 2.87"/></g><circle class="cls-11" cx="928.9" cy="327.63" r="42.66"/><circle class="cls-11" cx="788.64" cy="90.39" r="42.66"/><circle class="cls-11" cx="1043.99" cy="327.63" r="42.66"/><g><path class="cls-9" d="M770.92 360.57h9.78M812.48 360.57h9.78"/><circle class="cls-6" cx="838.15" cy="360.57" r="15.89"/><path class="cls-6" d="M832.63 366.1l11.04-11.05M832.63 355.05l11.04 11.05"/><path class="cls-7" d="M747.56 361.55l4.37 4.37 10.68-10.68"/><path class="cls-7" d="M770.92 360.64c0 8.78-7.11 15.89-15.89 15.89s-15.89-7.11-15.89-15.89 7.11-15.89 15.89-15.89 15.89 7.11 15.89 15.89M788.64 361.33l4.37 4.37 10.68-10.68"/><path class="cls-7" d="M812 360.42c0 8.78-7.11 15.89-15.89 15.89s-15.89-7.11-15.89-15.89 7.11-15.89 15.89-15.89S812 351.64 812 360.42"/></g><g><path class="cls-5" d="M912.2 319.95v6.32c0 6.04 2.6 12.35 7.22 16.24 2.44 2.06 5.56 3.64 9.93 5.18 4.36-1.53 7.49-3.12 9.93-5.18 4.62-3.9 7.22-10.2 7.22-16.24v-12.63c-11.74.2-17.15-6.64-17.15-6.64s-5.4 6.84-17.15 6.64h-.9"/><path class="cls-5" d="M922.86 327.92l3.89 3.89 9.52-9.51"/></g><g><path class="cls-5" d="M1032.02 332c-4.56-1.98-7.76-6.52-7.76-11.81 0-7.11 5.76-12.87 12.87-12.87 5.92 0 10.9 4 12.4 9.44"/><circle class="cls-5" cx="1037.13" cy="316.76" r="4.29"/><path class="cls-5" d="M1029.41 329.63l1.9-2.86a5.14 5.14 0 014.28-2.29h1.53"/><circle class="cls-5" cx="1050.86" cy="333.92" r="12.87"/><circle class="cls-5" cx="1050.86" cy="330.49" r="4.29"/><path class="cls-5" d="M1043.14 343.35l1.9-2.86a5.14 5.14 0 014.28-2.29h3.07c1.72 0 3.33.86 4.28 2.29l1.9 2.86"/></g><g><path class="cls-5" d="M1407.36 595.21l-6.54-3.27v-1.63l3.27-3.27c1.38-1.38 2.98-2.94 4.9-3.27l11.44-1.63M1417.16 605.02l-9.8-9.8 17.97-17.97c2.17-2.17 5.11-3.08 8.17-3.27l3.38.09 1.52 1.55v3.27c-.19 3.06-1.1 6-3.27 8.17l-17.97 17.97 3.27 6.54h1.63l3.27-3.27c1.35-1.35 2.92-3.02 3.27-4.9l.56-4.26M1430.23 578.87l3.27 3.27"/></g><g><circle class="cls-5" cx="1571.28" cy="591.54" r="5.1"/><path class="cls-5" d="M1584.54 593.8v-4.53l-3.28-.48c-.23-.84-.56-1.63-.98-2.37l1.98-2.66-3.2-3.2-2.66 1.98c-.74-.42-1.53-.75-2.37-.98l-.48-3.28h-4.53l-.48 3.28c-.84.23-1.63.56-2.37.98l-2.66-1.98-3.2 3.2 1.98 2.66c-.42.74-.75 1.53-.98 2.37l-3.28.48v4.53l3.28.48c.23.84.56 1.63.98 2.37l-1.98 2.66 3.2 3.2 2.66-1.98c.74.42 1.53.75 2.37.98l.48 3.28h4.53l.48-3.28c.84-.23 1.63-.56 2.37-.98l2.66 1.98 3.2-3.2-1.98-2.66c.42-.74.75-1.53.98-2.37l3.28-.48z"/><path class="cls-5" d="M1557.47 572.64c-5.82 4.27-9.6 11.16-9.6 18.93 0 12.96 10.5 23.46 23.46 23.46 2.8 0 5.49-.49 7.99-1.39M1585.48 610.29c5.66-4.28 9.32-11.08 9.32-18.72 0-12.96-10.5-23.46-23.46-23.46-2.8 0-5.48.49-7.97 1.39"/><path class="cls-5" d="M1558.07 579.33v-7.14h-7.14M1584.59 603.81v7.14h7.14"/></g><g><path class="cls-9" d="M1150.28 360.57h9.77M1191.84 360.57h9.78"/><path class="cls-7" d="M1126.91 361.55l4.38 4.37 10.68-10.68"/><path class="cls-7" d="M1150.28 360.64c0 8.78-7.11 15.89-15.89 15.89s-15.89-7.11-15.89-15.89 7.11-15.89 15.89-15.89 15.89 7.11 15.89 15.89M1168 361.33l4.37 4.37 10.68-10.68"/><path class="cls-7" d="M1191.84 360.42c0 8.78-7.11 15.89-15.89 15.89s-15.89-7.11-15.89-15.89 7.11-15.89 15.89-15.89 15.89 7.11 15.89 15.89M1210.04 361.33l4.37 4.37 10.68-10.68"/><path class="cls-7" d="M1233.4 360.42c0 8.78-7.11 15.89-15.89 15.89s-15.89-7.11-15.89-15.89 7.11-15.89 15.89-15.89 15.89 7.11 15.89 15.89"/></g><g><path class="cls-5" d="M104.14 448.53l10.36-17.32-9.94-5.94"/><path class="cls-5" d="M79.04 420.41h25.11v30.43c0 2.52-2.04 4.57-4.57 4.57H79.8v-29.67"/></g><g><path class="cls-5" d="M788.64 85.08v7.03M788.64 94.73v2.85M801.41 102.87h-31.27l18.5-30.97 18.5 30.97h-1.27"/></g><g><path class="cls-4" d="M1.13 749.08H1652.5v757.71H1.13z"/><circle class="cls-4" cx="788.64" cy="859.48" r="42.66"/><circle class="cls-4" cx="96.77" cy="891.85" r="42.66"/><circle class="cls-11" cx="96.77" cy="891.95" r="42.66"/><circle class="cls-11" cx="1184.45" cy="1000.66" r="42.66"/><circle class="cls-11" cx="1307.9" cy="1096.72" r="42.66"/><circle class="cls-11" cx="1571.33" cy="1360.66" r="42.66"/><circle class="cls-5" cx="486.96" cy="1096.72" r="16.18"/><circle class="cls-5" cx="546.43" cy="1096.72" r="16.18"/><path class="cls-5" d="M1167.39 985.6h34.13v18.88c0 2.41-1.95 4.36-4.36 4.36h-29.05v-18.15M1179.73 1015.71v-6.87M1189.9 1008.84v6.87M1194.98 1015.71h-20.33M1185.59 994.34l6.62 6.62"/><path class="cls-5" d="M1186.59 998.76l-.98-4.44 4.43.99-3.45 3.45z"/><circle class="cls-5" cx="1307.9" cy="1096.4" r="17.06"/><path class="cls-5" d="M1301.92 1097.17l3.16 3.16 7.73-7.73"/><path class="cls-2" d="M244.05 1142.77h-1.76c-.1-.51-.29-.95-.54-1.34-.26-.38-.57-.71-.94-.97s-.77-.46-1.22-.59-.91-.2-1.39-.2c-.88 0-1.68.22-2.39.67s-1.28 1.1-1.7 1.97-.63 1.93-.63 3.19.21 2.32.63 3.19c.42.87.98 1.52 1.7 1.97s1.51.67 2.39.67c.48 0 .95-.07 1.39-.2s.85-.33 1.22-.59.68-.59.94-.97c.26-.38.44-.83.54-1.33h1.76c-.13.74-.37 1.41-.72 2a5.41 5.41 0 01-1.31 1.5c-.52.41-1.1.72-1.75.93-.65.21-1.34.32-2.07.32-1.24 0-2.34-.3-3.31-.91-.97-.61-1.73-1.47-2.28-2.58-.55-1.12-.83-2.44-.83-3.98s.28-2.86.83-3.98c.55-1.12 1.31-1.98 2.28-2.59.97-.61 2.07-.91 3.31-.91.73 0 1.42.11 2.07.32.65.21 1.23.53 1.75.93s.96.91 1.31 1.49c.35.58.59 1.25.72 2zM251.09 1153c-.98 0-1.85-.23-2.59-.7s-1.32-1.12-1.73-1.97c-.42-.84-.62-1.83-.62-2.96s.21-2.13.62-2.98c.41-.85.99-1.51 1.73-1.97s1.6-.7 2.59-.7 1.85.23 2.59.7 1.32 1.13 1.73 1.97c.41.85.62 1.84.62 2.98s-.21 2.11-.62 2.96c-.42.84-.99 1.5-1.73 1.97s-1.6.7-2.59.7zm0-1.51c.75 0 1.36-.19 1.85-.58s.84-.89 1.07-1.51c.23-.62.35-1.3.35-2.03s-.12-1.41-.35-2.04c-.23-.63-.59-1.14-1.07-1.53-.48-.39-1.1-.58-1.85-.58s-1.36.19-1.85.58c-.48.39-.84.9-1.07 1.53s-.35 1.31-.35 2.04.12 1.41.35 2.03.59 1.13 1.07 1.51c.48.38 1.1.58 1.85.58zM260.27 1146.21v6.56h-1.68v-10.91h1.62v1.71h.14c.25-.55.64-1 1.16-1.34.52-.34 1.19-.51 2.02-.51.74 0 1.38.15 1.94.45s.99.75 1.29 1.36.46 1.38.46 2.3v6.93h-1.68v-6.82c0-.86-.22-1.53-.67-2.01-.45-.48-1.06-.72-1.83-.72-.54 0-1.01.12-1.43.35-.42.23-.75.57-.99 1.02-.24.45-.36.99-.36 1.62zM278.03 1144.31l-1.51.43c-.09-.25-.23-.5-.42-.74-.18-.24-.43-.44-.74-.59s-.71-.23-1.2-.23c-.67 0-1.22.15-1.67.46-.44.3-.66.69-.66 1.16 0 .42.15.75.45.99.3.24.78.44 1.42.6l1.62.4c.98.24 1.7.6 2.18 1.08.48.49.72 1.11.72 1.87 0 .62-.18 1.18-.54 1.68-.36.49-.86.88-1.5 1.17-.64.28-1.38.43-2.23.43-1.11 0-2.03-.24-2.76-.72s-1.19-1.19-1.39-2.12l1.59-.4c.15.59.44 1.03.86 1.32.42.29.98.44 1.67.44.78 0 1.4-.17 1.86-.5.46-.33.69-.74.69-1.2 0-.38-.13-.7-.4-.96-.26-.26-.67-.45-1.22-.58l-1.82-.43c-1-.24-1.73-.6-2.2-1.1-.47-.5-.7-1.13-.7-1.88 0-.62.17-1.16.52-1.63s.82-.85 1.43-1.12c.6-.27 1.29-.41 2.06-.41 1.08 0 1.93.24 2.55.71.62.47 1.06 1.1 1.32 1.88zM285.33 1153c-1.05 0-1.96-.23-2.72-.7s-1.34-1.12-1.75-1.96c-.41-.84-.61-1.82-.61-2.94s.21-2.1.61-2.96c.41-.85.98-1.52 1.72-2s1.6-.72 2.58-.72c.57 0 1.13.09 1.68.28.55.19 1.06.5 1.51.92.45.42.82.98 1.09 1.68.27.7.41 1.55.41 2.57v.71h-8.41v-1.45h6.71c0-.62-.12-1.16-.37-1.65s-.59-.86-1.04-1.14-.97-.42-1.58-.42c-.67 0-1.24.17-1.73.49-.49.33-.86.76-1.12 1.28-.26.53-.39 1.09-.39 1.69v.97c0 .82.14 1.52.43 2.09.29.57.68 1 1.2 1.3s1.11.44 1.78.44c.44 0 .84-.06 1.2-.19s.67-.32.93-.57c.26-.25.46-.57.6-.95l1.62.45c-.17.55-.46 1.03-.86 1.45-.4.42-.9.74-1.49.97-.59.23-1.26.34-2 .34zM296.83 1153c-1.02 0-1.9-.24-2.64-.72-.74-.48-1.31-1.15-1.71-2s-.6-1.82-.6-2.91.21-2.09.61-2.94c.41-.85.98-1.51 1.72-2 .74-.48 1.6-.72 2.58-.72.77 0 1.46.14 2.07.43.62.28 1.12.68 1.51 1.19.39.51.64 1.11.73 1.79h-1.68c-.13-.5-.41-.94-.85-1.32-.44-.39-1.03-.58-1.76-.58-.65 0-1.22.17-1.71.51s-.87.81-1.14 1.43-.41 1.33-.41 2.16.13 1.58.4 2.2c.27.62.65 1.11 1.14 1.46s1.07.52 1.73.52c.44 0 .83-.08 1.19-.23.35-.15.66-.37.9-.65.25-.28.42-.62.53-1.02h1.68c-.09.64-.33 1.22-.7 1.74-.37.51-.86.92-1.47 1.22s-1.32.45-2.12.45zM308.31 1141.86v1.42h-5.65v-1.42h5.65zm-4.01-2.61h1.68v10.4c0 .47.07.83.21 1.06s.32.39.54.47c.22.08.45.12.7.12.18 0 .34-.01.46-.03.12-.02.21-.04.28-.05l.34 1.5c-.11.04-.27.09-.48.13-.2.04-.46.07-.77.07-.47 0-.94-.1-1.39-.31-.45-.2-.83-.51-1.12-.93-.3-.42-.44-.94-.44-1.58v-10.85zM315.3 1153c-1.05 0-1.96-.23-2.72-.7s-1.34-1.12-1.75-1.96c-.41-.84-.61-1.82-.61-2.94s.21-2.1.61-2.96c.41-.85.98-1.52 1.72-2s1.6-.72 2.58-.72c.57 0 1.13.09 1.68.28.55.19 1.06.5 1.51.92.45.42.82.98 1.09 1.68.27.7.41 1.55.41 2.57v.71h-8.41v-1.45h6.71c0-.62-.12-1.16-.37-1.65s-.59-.86-1.04-1.14-.97-.42-1.58-.42c-.67 0-1.24.17-1.73.49-.49.33-.86.76-1.12 1.28-.26.53-.39 1.09-.39 1.69v.97c0 .82.14 1.52.43 2.09.29.57.68 1 1.2 1.3s1.11.44 1.78.44c.44 0 .84-.06 1.2-.19s.67-.32.93-.57c.26-.25.46-.57.6-.95l1.62.45c-.17.55-.46 1.03-.86 1.45-.4.42-.9.74-1.49.97-.59.23-1.26.34-2 .34zM327.12 1141.86v1.42h-5.65v-1.42h5.65zm-4.01-2.61h1.68v10.4c0 .47.07.83.21 1.06s.32.39.54.47c.22.08.45.12.7.12.18 0 .34-.01.46-.03.12-.02.21-.04.28-.05l.34 1.5c-.11.04-.27.09-.48.13-.2.04-.46.07-.77.07-.47 0-.94-.1-1.39-.31-.45-.2-.83-.51-1.12-.93-.3-.42-.44-.94-.44-1.58v-10.85zM336.52 1148.31v-6.45h1.68v10.91h-1.68v-1.85h-.11c-.26.55-.65 1.02-1.19 1.41-.54.39-1.22.58-2.05.58-.68 0-1.29-.15-1.82-.45s-.95-.75-1.25-1.36c-.3-.61-.45-1.38-.45-2.3v-6.93h1.68v6.82c0 .8.22 1.43.67 1.9.45.47 1.02.71 1.71.71.42 0 .84-.11 1.27-.32.43-.21.8-.54 1.09-.98s.44-1 .44-1.68zM341.26 1152.77v-10.91h1.62v1.65h.11c.2-.54.56-.98 1.08-1.31.52-.34 1.11-.5 1.76-.5h.46c.18 0 .32.01.42.02v1.7c-.06-.01-.19-.04-.39-.07-.2-.03-.41-.05-.64-.05-.53 0-1 .11-1.42.33-.41.22-.74.52-.98.91s-.36.83-.36 1.32v6.9h-1.68zM245.81 1177.03c-.69 0-1.32-.13-1.88-.39-.56-.26-1.01-.64-1.34-1.14-.33-.5-.5-1.1-.5-1.82 0-.62.12-1.13.37-1.52.25-.39.58-.7.99-.92.41-.22.87-.39 1.37-.5.5-.11 1-.2 1.51-.27.66-.08 1.2-.15 1.62-.2.42-.04.72-.12.91-.23.19-.11.29-.3.29-.57v-.06c0-.7-.19-1.25-.57-1.63-.38-.39-.96-.58-1.73-.58s-1.43.17-1.88.53c-.45.35-.77.72-.96 1.12l-1.59-.57c.28-.66.66-1.18 1.14-1.55.48-.37 1-.63 1.56-.78.57-.15 1.12-.22 1.67-.22.35 0 .75.04 1.21.12.46.08.9.25 1.33.51s.79.64 1.07 1.16.43 1.21.43 2.07v7.19h-1.68v-1.48h-.08c-.11.24-.3.49-.57.76-.27.27-.62.5-1.06.69s-.98.28-1.61.28zm.25-1.51c.66 0 1.22-.13 1.68-.39.46-.26.8-.6 1.04-1.01.23-.41.35-.85.35-1.3v-1.53c-.07.08-.23.16-.47.23-.24.07-.51.13-.82.18-.31.05-.61.09-.9.13s-.53.07-.71.09c-.44.06-.84.15-1.22.27-.38.13-.68.31-.91.56-.23.25-.34.59-.34 1.01 0 .58.22 1.02.65 1.32s.98.44 1.65.44zM258 1177c-.91 0-1.71-.23-2.41-.69-.7-.46-1.24-1.12-1.63-1.96-.39-.85-.59-1.85-.59-3s.2-2.14.59-2.98c.39-.84.94-1.49 1.64-1.95.7-.46 1.51-.69 2.43-.69.71 0 1.27.12 1.69.35.42.23.73.5.95.8s.39.54.51.73h.14v-5.37H263v14.55h-1.62v-1.68h-.2c-.12.2-.3.45-.53.75s-.55.57-.97.8c-.42.23-.98.35-1.68.35zm.22-1.51c.67 0 1.24-.18 1.7-.53.46-.35.82-.84 1.06-1.47.24-.63.36-1.35.36-2.18s-.12-1.53-.36-2.14c-.24-.61-.59-1.09-1.05-1.43-.46-.34-1.04-.51-1.72-.51s-1.3.18-1.77.54c-.47.36-.82.85-1.06 1.47s-.35 1.31-.35 2.08.12 1.48.36 2.11c.24.63.59 1.13 1.07 1.51.47.37 1.06.56 1.76.56zM267.14 1164.05c-.33 0-.61-.11-.84-.33s-.35-.49-.35-.8.12-.58.35-.8c.23-.22.51-.33.84-.33s.61.11.84.33c.23.22.35.49.35.8s-.12.58-.35.8-.51.33-.84.33zm-.85 12.72v-10.91h1.68v10.91h-1.68zM271.04 1180.86v-15h1.62v1.73h.2c.12-.19.29-.43.51-.73s.54-.56.95-.8c.41-.23.98-.35 1.69-.35.92 0 1.73.23 2.43.69.7.46 1.25 1.11 1.64 1.95.39.84.59 1.84.59 2.98s-.2 2.16-.59 3c-.39.84-.94 1.5-1.63 1.96-.7.46-1.5.69-2.41.69-.7 0-1.26-.12-1.68-.35-.42-.23-.75-.5-.97-.8s-.4-.55-.53-.75h-.14v5.77h-1.68zm1.64-9.54c0 .82.12 1.55.36 2.18.24.63.59 1.12 1.06 1.47.46.35 1.03.53 1.7.53s1.29-.19 1.76-.56c.47-.37.83-.87 1.07-1.51.24-.63.36-1.34.36-2.11s-.12-1.46-.35-2.08-.59-1.11-1.06-1.47c-.47-.36-1.06-.54-1.77-.54s-1.25.17-1.72.51c-.46.34-.81.82-1.05 1.43s-.36 1.33-.36 2.14zM284.08 1164.05c-.33 0-.61-.11-.84-.33s-.35-.49-.35-.8.12-.58.35-.8c.23-.22.51-.33.84-.33s.61.11.84.33c.23.22.35.49.35.8s-.12.58-.35.8-.51.33-.84.33zm-.86 12.72v-10.91h1.68v10.91h-1.68zM295.7 1168.31l-1.51.43c-.09-.25-.23-.5-.42-.74-.18-.24-.43-.44-.74-.59s-.71-.23-1.2-.23c-.67 0-1.22.15-1.67.46-.44.3-.66.69-.66 1.16 0 .42.15.75.45.99.3.24.78.44 1.42.6l1.62.4c.98.24 1.7.6 2.18 1.08.48.49.72 1.11.72 1.87 0 .62-.18 1.18-.54 1.68-.36.49-.86.88-1.5 1.17-.64.28-1.38.43-2.23.43-1.11 0-2.03-.24-2.76-.72s-1.19-1.19-1.39-2.12l1.59-.4c.15.59.44 1.03.86 1.32.42.29.98.44 1.67.44.78 0 1.4-.17 1.86-.5.46-.33.69-.74.69-1.2 0-.38-.13-.7-.4-.96-.26-.26-.67-.45-1.22-.58l-1.82-.43c-1-.24-1.73-.6-2.2-1.1-.47-.5-.7-1.13-.7-1.88 0-.62.17-1.16.52-1.63s.82-.85 1.43-1.12c.6-.27 1.29-.41 2.06-.41 1.08 0 1.93.24 2.55.71.62.47 1.06 1.1 1.32 1.88zM302.85 1177c-1.02 0-1.9-.24-2.64-.72-.74-.48-1.31-1.15-1.71-2s-.6-1.82-.6-2.91.21-2.09.61-2.94c.41-.85.98-1.51 1.72-2 .74-.48 1.6-.72 2.58-.72.77 0 1.46.14 2.07.43.62.28 1.12.68 1.51 1.19.39.51.64 1.11.73 1.79h-1.68c-.13-.5-.41-.94-.85-1.32-.44-.39-1.03-.58-1.76-.58-.65 0-1.22.17-1.71.51s-.87.81-1.14 1.43-.41 1.33-.41 2.16.13 1.58.4 2.2c.27.62.65 1.11 1.14 1.46s1.07.52 1.73.52c.44 0 .83-.08 1.19-.23.35-.15.66-.37.9-.65.25-.28.42-.62.53-1.02h1.68c-.09.64-.33 1.22-.7 1.74-.37.51-.86.92-1.47 1.22s-1.32.45-2.12.45zM310.44 1164.05c-.33 0-.61-.11-.84-.33s-.35-.49-.35-.8.12-.58.35-.8c.23-.22.51-.33.84-.33s.61.11.84.33c.23.22.35.49.35.8s-.12.58-.35.8-.51.33-.84.33zm-.85 12.72v-10.91h1.68v10.91h-1.68zM316.01 1170.21v6.56h-1.68v-10.91h1.62v1.71h.14c.25-.55.64-1 1.16-1.34.52-.34 1.19-.51 2.02-.51.74 0 1.38.15 1.94.45s.99.75 1.29 1.36.46 1.38.46 2.3v6.93h-1.68v-6.82c0-.86-.22-1.53-.67-2.01-.45-.48-1.06-.72-1.83-.72-.54 0-1.01.12-1.43.35-.42.23-.75.57-.99 1.02-.24.45-.36.99-.36 1.62zM330.44 1181.09c-.81 0-1.51-.1-2.09-.31-.58-.21-1.07-.48-1.45-.81-.39-.33-.69-.69-.92-1.07l1.33-.94c.15.2.34.43.58.69s.55.48.96.67c.41.19.94.29 1.59.29.88 0 1.61-.21 2.18-.64.57-.43.86-1.09.86-2v-2.22h-.14c-.12.2-.3.44-.52.74-.23.29-.55.55-.97.77-.42.22-.98.34-1.69.34-.88 0-1.67-.21-2.37-.62-.7-.42-1.25-1.02-1.66-1.82-.4-.8-.61-1.76-.61-2.9s.2-2.09.59-2.92c.39-.83.94-1.47 1.64-1.93.7-.46 1.51-.69 2.43-.69.71 0 1.28.12 1.69.35s.74.5.97.8c.22.3.4.54.52.73h.17v-1.73h1.62v11.22c0 .94-.21 1.7-.64 2.29-.42.59-.99 1.02-1.7 1.3s-1.5.42-2.38.42zm-.06-5.99c.67 0 1.24-.15 1.7-.46.46-.31.82-.75 1.06-1.33.24-.58.36-1.27.36-2.07s-.12-1.48-.36-2.08c-.24-.6-.59-1.07-1.05-1.41-.46-.34-1.04-.51-1.72-.51s-1.3.18-1.77.54c-.47.36-.82.84-1.06 1.45-.23.61-.35 1.28-.35 2.02s.12 1.43.36 2.01c.24.58.59 1.04 1.07 1.36.47.33 1.06.49 1.76.49z"/><text class="cls-1" transform="translate(67.11 965.27)"><tspan x="0" y="0">Lo</tspan><tspan class="cls-13" x="23.18" y="0">r</tspan><tspan x="30.28" y="0">em</tspan></text><text class="cls-1" transform="translate(68.3 1129.16)"><tspan x="0" y="0">Ipsum</tspan></text><text class="cls-1" transform="translate(71.56 1281.69)"><tspan x="0" y="0">Dolor</tspan></text><text class="cls-1" transform="translate(467.28 1002.09)"><tspan x="0" y="0">Elit sed do</tspan></text><path class="cls-2" d="M625.58 975.62v-14.55h8.78v1.56h-7.02v4.92h6.56v1.56h-6.56v4.94h7.13v1.56h-8.89zM638.99 961.08v14.55h-1.68v-14.55h1.68zM642.91 962.9c-.33 0-.61-.11-.84-.33s-.35-.49-.35-.8.12-.58.35-.8c.23-.22.51-.33.84-.33s.61.11.84.33c.23.22.35.49.35.8s-.12.58-.35.8-.51.33-.84.33zm-.85 12.72v-10.91h1.68v10.91h-1.68zM653.68 971.16v-6.45h1.68v10.91h-1.68v-1.85h-.11c-.26.55-.65 1.02-1.19 1.41-.54.39-1.22.58-2.05.58-.68 0-1.29-.15-1.82-.45s-.95-.75-1.25-1.36c-.3-.61-.45-1.38-.45-2.3v-6.93h1.68v6.82c0 .8.22 1.43.67 1.9.45.47 1.02.71 1.71.71.42 0 .84-.11 1.27-.32.43-.21.8-.54 1.09-.98s.44-1 .44-1.68zM666.15 967.16l-1.51.43c-.09-.25-.23-.5-.42-.74-.18-.24-.43-.44-.74-.59s-.71-.23-1.2-.23c-.67 0-1.22.15-1.67.46-.44.3-.66.69-.66 1.16 0 .42.15.75.45.99.3.24.78.44 1.42.6l1.62.4c.98.24 1.7.6 2.18 1.08.48.49.72 1.11.72 1.87 0 .62-.18 1.18-.54 1.68-.36.49-.86.88-1.5 1.17-.64.28-1.38.43-2.23.43-1.11 0-2.03-.24-2.76-.72s-1.19-1.19-1.39-2.12l1.59-.4c.15.59.44 1.03.86 1.32.42.29.98.44 1.67.44.78 0 1.4-.17 1.86-.5.46-.33.69-.74.69-1.2 0-.38-.13-.7-.4-.96-.26-.26-.67-.45-1.22-.58l-1.82-.43c-1-.24-1.73-.6-2.2-1.1-.47-.5-.7-1.13-.7-1.88 0-.62.17-1.16.52-1.63s.82-.85 1.43-1.12c.6-.27 1.29-.41 2.06-.41 1.08 0 1.93.24 2.55.71.62.47 1.06 1.1 1.32 1.88zM668.87 975.62v-10.91h1.62v1.71h.14c.23-.58.59-1.04 1.1-1.36.51-.32 1.12-.49 1.83-.49s1.32.16 1.8.49c.48.33.86.78 1.12 1.36h.11c.28-.56.7-1.01 1.26-1.35s1.23-.5 2.01-.5c.98 0 1.77.3 2.39.91s.93 1.55.93 2.84v7.3h-1.68v-7.3c0-.8-.22-1.38-.66-1.73s-.96-.52-1.56-.52c-.77 0-1.36.23-1.78.69-.42.46-.63 1.04-.63 1.75v7.1h-1.71v-7.47c0-.62-.2-1.12-.6-1.5-.4-.38-.92-.57-1.56-.57-.44 0-.84.12-1.22.35-.38.23-.68.55-.91.96s-.34.88-.34 1.42v6.82h-1.68zM690.69 975.85c-.98 0-1.85-.23-2.59-.7s-1.32-1.12-1.73-1.97c-.42-.84-.62-1.83-.62-2.96s.21-2.13.62-2.98c.41-.85.99-1.51 1.73-1.97s1.6-.7 2.59-.7 1.85.23 2.59.7 1.32 1.13 1.73 1.97c.41.85.62 1.84.62 2.98s-.21 2.11-.62 2.96c-.42.84-.99 1.5-1.73 1.97s-1.6.7-2.59.7zm0-1.51c.75 0 1.36-.19 1.85-.58s.84-.89 1.07-1.51c.23-.62.35-1.3.35-2.03s-.12-1.41-.35-2.04c-.23-.63-.59-1.14-1.07-1.53-.48-.39-1.1-.58-1.85-.58s-1.36.19-1.85.58c-.48.39-.84.9-1.07 1.53s-.35 1.31-.35 2.04.12 1.41.35 2.03.59 1.13 1.07 1.51c.48.38 1.1.58 1.85.58zM702.31 975.85c-.91 0-1.71-.23-2.41-.69-.7-.46-1.24-1.12-1.63-1.96-.39-.85-.59-1.85-.59-3s.2-2.14.59-2.98c.39-.84.94-1.49 1.64-1.95.7-.46 1.51-.69 2.43-.69.71 0 1.27.12 1.69.35.42.23.73.5.95.8s.39.54.51.73h.14v-5.37h1.68v14.55h-1.62v-1.68h-.2c-.12.2-.3.45-.53.75s-.55.57-.97.8c-.42.23-.98.35-1.68.35zm.23-1.51c.67 0 1.24-.18 1.7-.53.46-.35.82-.84 1.06-1.47.24-.63.36-1.35.36-2.18s-.12-1.53-.36-2.14c-.24-.61-.59-1.09-1.05-1.43-.46-.34-1.04-.51-1.72-.51s-1.3.18-1.77.54c-.47.36-.82.85-1.06 1.47s-.35 1.31-.35 2.08.12 1.48.36 2.11c.24.63.59 1.13 1.07 1.51.47.37 1.06.56 1.76.56zM638.85 988.71v1.42h-5.65v-1.42h5.65zm-4.01-2.61h1.68v10.4c0 .47.07.83.21 1.06s.32.39.54.47c.22.08.45.12.7.12.18 0 .34-.01.46-.03.12-.02.21-.04.28-.05l.34 1.5c-.11.04-.27.09-.48.13-.2.04-.46.07-.77.07-.47 0-.94-.1-1.39-.31-.45-.2-.83-.51-1.12-.93-.3-.42-.44-.94-.44-1.58V986.1zM645.83 999.85c-1.05 0-1.96-.23-2.72-.7s-1.34-1.12-1.75-1.96c-.41-.84-.61-1.82-.61-2.94s.21-2.1.61-2.96c.41-.85.98-1.52 1.72-2s1.6-.72 2.58-.72c.57 0 1.13.09 1.68.28.55.19 1.06.5 1.51.92.45.42.82.98 1.09 1.68.27.7.41 1.55.41 2.57v.71h-8.41v-1.45h6.71c0-.62-.12-1.16-.37-1.65s-.59-.86-1.04-1.14-.97-.42-1.58-.42c-.67 0-1.24.17-1.73.49-.49.33-.86.76-1.12 1.28-.26.53-.39 1.09-.39 1.69v.97c0 .82.14 1.52.43 2.09.29.57.68 1 1.2 1.3s1.11.44 1.78.44c.44 0 .84-.06 1.2-.19s.67-.32.93-.57c.26-.25.46-.57.6-.95l1.62.45c-.17.55-.46 1.03-.86 1.45-.4.42-.9.74-1.49.97-.59.23-1.26.34-2 .34zM652.91 999.62v-10.91h1.62v1.71h.14c.23-.58.59-1.04 1.1-1.36.51-.32 1.12-.49 1.83-.49s1.32.16 1.8.49c.48.33.86.78 1.12 1.36h.11c.28-.56.7-1.01 1.26-1.35s1.23-.5 2.01-.5c.98 0 1.77.3 2.39.91s.93 1.55.93 2.84v7.3h-1.68v-7.3c0-.8-.22-1.38-.66-1.73s-.96-.52-1.56-.52c-.77 0-1.36.23-1.78.69-.42.46-.63 1.04-.63 1.75v7.1h-1.71v-7.47c0-.62-.2-1.12-.6-1.5-.4-.38-.92-.57-1.56-.57-.44 0-.84.12-1.22.35-.38.23-.68.55-.91.96s-.34.88-.34 1.42v6.82h-1.68zM670.29 1003.71v-15h1.62v1.73h.2c.12-.19.29-.43.51-.73s.54-.56.95-.8c.41-.23.98-.35 1.69-.35.92 0 1.73.23 2.43.69.7.46 1.25 1.11 1.64 1.95.39.84.59 1.84.59 2.98s-.2 2.16-.59 3c-.39.84-.94 1.5-1.63 1.96-.7.46-1.5.69-2.41.69-.7 0-1.26-.12-1.68-.35-.42-.23-.75-.5-.97-.8s-.4-.55-.53-.75h-.14v5.77h-1.68zm1.65-9.54c0 .82.12 1.55.36 2.18.24.63.59 1.12 1.06 1.47.46.35 1.03.53 1.7.53s1.29-.19 1.76-.56c.47-.37.83-.87 1.07-1.51.24-.63.36-1.34.36-2.11s-.12-1.46-.35-2.08-.59-1.11-1.06-1.47c-.47-.36-1.06-.54-1.77-.54s-1.25.17-1.72.51c-.46.34-.81.82-1.05 1.43s-.36 1.33-.36 2.14zM686.91 999.85c-.98 0-1.85-.23-2.59-.7s-1.32-1.12-1.73-1.97c-.42-.84-.62-1.83-.62-2.96s.21-2.13.62-2.98c.41-.85.99-1.51 1.73-1.97s1.6-.7 2.59-.7 1.85.23 2.59.7 1.32 1.13 1.73 1.97c.41.85.62 1.84.62 2.98s-.21 2.11-.62 2.96c-.42.84-.99 1.5-1.73 1.97s-1.6.7-2.59.7zm0-1.51c.75 0 1.36-.19 1.85-.58s.84-.89 1.07-1.51c.23-.62.35-1.3.35-2.03s-.12-1.41-.35-2.04c-.23-.63-.59-1.14-1.07-1.53-.48-.39-1.1-.58-1.85-.58s-1.36.19-1.85.58c-.48.39-.84.9-1.07 1.53s-.35 1.31-.35 2.04.12 1.41.35 2.03.59 1.13 1.07 1.51c.48.38 1.1.58 1.85.58zM694.41 999.62v-10.91h1.62v1.65h.11c.2-.54.56-.98 1.08-1.31.52-.34 1.11-.5 1.76-.5h.46c.18 0 .32.01.42.02v1.7c-.06-.01-.19-.04-.39-.07-.2-.03-.41-.05-.64-.05-.53 0-1 .11-1.42.33-.41.22-.74.52-.98.91s-.36.83-.36 1.32v6.9h-1.68z"/><text class="cls-1" transform="translate(742.11 930.16)"><tspan x="0" y="0">Incididunt</tspan></text><path class="cls-2" d="M992.88 975.62h-4.49v-14.55h4.69c1.41 0 2.62.29 3.62.87s1.77 1.41 2.31 2.49c.54 1.08.8 2.38.8 3.88s-.27 2.82-.81 3.91c-.54 1.09-1.33 1.93-2.36 2.51-1.03.58-2.29.88-3.76.88zm-2.73-1.56h2.61c1.2 0 2.2-.23 2.99-.7.79-.46 1.38-1.12 1.77-1.98.39-.86.58-1.88.58-3.06s-.19-2.19-.58-3.04c-.38-.85-.96-1.5-1.72-1.96-.76-.46-1.71-.69-2.85-.69h-2.81v11.42zM1006.97 975.85c-.98 0-1.85-.23-2.59-.7s-1.32-1.12-1.73-1.97c-.42-.84-.62-1.83-.62-2.96s.21-2.13.62-2.98c.41-.85.99-1.51 1.73-1.97s1.6-.7 2.59-.7 1.85.23 2.59.7 1.32 1.13 1.73 1.97c.41.85.62 1.84.62 2.98s-.21 2.11-.62 2.96c-.42.84-.99 1.5-1.73 1.97s-1.6.7-2.59.7zm0-1.51c.75 0 1.36-.19 1.85-.58s.84-.89 1.07-1.51c.23-.62.35-1.3.35-2.03s-.12-1.41-.35-2.04c-.23-.63-.59-1.14-1.07-1.53-.48-.39-1.1-.58-1.85-.58s-1.36.19-1.85.58c-.48.39-.84.9-1.07 1.53s-.35 1.31-.35 2.04.12 1.41.35 2.03.59 1.13 1.07 1.51c.48.38 1.1.58 1.85.58zM1016.14 961.08v14.55h-1.68v-14.55h1.68zM1023.64 975.85c-.98 0-1.85-.23-2.59-.7s-1.32-1.12-1.73-1.97c-.42-.84-.62-1.83-.62-2.96s.21-2.13.62-2.98c.41-.85.99-1.51 1.73-1.97s1.6-.7 2.59-.7 1.85.23 2.59.7 1.32 1.13 1.73 1.97c.41.85.62 1.84.62 2.98s-.21 2.11-.62 2.96c-.42.84-.99 1.5-1.73 1.97s-1.6.7-2.59.7zm0-1.51c.75 0 1.36-.19 1.85-.58s.84-.89 1.07-1.51c.23-.62.35-1.3.35-2.03s-.12-1.41-.35-2.04c-.23-.63-.59-1.14-1.07-1.53-.48-.39-1.1-.58-1.85-.58s-1.36.19-1.85.58c-.48.39-.84.9-1.07 1.53s-.35 1.31-.35 2.04.12 1.41.35 2.03.59 1.13 1.07 1.51c.48.38 1.1.58 1.85.58zM1031.14 975.62v-10.91h1.62v1.65h.11c.2-.54.56-.98 1.08-1.31.52-.34 1.11-.5 1.76-.5h.46c.18 0 .32.01.42.02v1.7c-.06-.01-.19-.04-.39-.07-.2-.03-.41-.05-.64-.05-.53 0-1 .11-1.42.33-.41.22-.74.52-.98.91s-.36.83-.36 1.32v6.9h-1.68zM1044.21 975.62v-10.91h1.62v1.71h.14c.23-.58.59-1.04 1.1-1.36.51-.32 1.12-.49 1.83-.49s1.32.16 1.8.49c.48.33.86.78 1.12 1.36h.11c.28-.56.7-1.01 1.26-1.35s1.23-.5 2.01-.5c.98 0 1.77.3 2.39.91s.93 1.55.93 2.84v7.3h-1.68v-7.3c0-.8-.22-1.38-.66-1.73s-.96-.52-1.56-.52c-.77 0-1.36.23-1.78.69-.42.46-.63 1.04-.63 1.75v7.1h-1.71v-7.47c0-.62-.2-1.12-.6-1.5-.4-.38-.92-.57-1.56-.57-.44 0-.84.12-1.22.35-.38.23-.68.55-.91.96s-.34.88-.34 1.42v6.82h-1.68zM1064.81 975.88c-.69 0-1.32-.13-1.88-.39-.56-.26-1.01-.64-1.34-1.14-.33-.5-.5-1.1-.5-1.82 0-.62.12-1.13.37-1.52.25-.39.58-.7.99-.92.41-.22.87-.39 1.37-.5.5-.11 1-.2 1.51-.27.66-.08 1.2-.15 1.62-.2.42-.04.72-.12.91-.23.19-.11.29-.3.29-.57v-.06c0-.7-.19-1.25-.57-1.63-.38-.39-.96-.58-1.73-.58s-1.43.17-1.88.53c-.45.35-.77.72-.96 1.12l-1.59-.57c.28-.66.66-1.18 1.14-1.55.48-.37 1-.63 1.56-.78.57-.15 1.12-.22 1.67-.22.35 0 .75.04 1.21.12.46.08.9.25 1.33.51s.79.64 1.07 1.16.43 1.21.43 2.07v7.19h-1.68v-1.48h-.08c-.11.24-.3.49-.57.76-.27.27-.62.5-1.06.69s-.98.28-1.61.28zm.25-1.51c.66 0 1.22-.13 1.68-.39.46-.26.8-.6 1.04-1.01.23-.41.35-.85.35-1.3v-1.53c-.07.08-.23.16-.47.23-.24.07-.51.13-.82.18-.31.05-.61.09-.9.13s-.53.07-.71.09c-.44.06-.84.15-1.22.27-.38.13-.68.31-.91.56-.23.25-.34.59-.34 1.01 0 .58.22 1.02.65 1.32s.98.44 1.65.44zM1077.28 979.94c-.81 0-1.51-.1-2.09-.31-.58-.21-1.07-.48-1.45-.81-.39-.33-.69-.69-.92-1.07l1.33-.94c.15.2.34.43.58.69s.55.48.96.67c.41.19.94.29 1.59.29.88 0 1.61-.21 2.18-.64.57-.43.86-1.09.86-2v-2.22h-.14c-.12.2-.3.44-.52.74-.23.29-.55.55-.97.77-.42.22-.98.34-1.69.34-.88 0-1.67-.21-2.37-.62-.7-.42-1.25-1.02-1.66-1.82-.4-.8-.61-1.76-.61-2.9s.2-2.09.59-2.92c.39-.83.94-1.47 1.64-1.93.7-.46 1.51-.69 2.43-.69.71 0 1.28.12 1.69.35s.74.5.97.8c.22.3.4.54.52.73h.17v-1.73h1.62v11.22c0 .94-.21 1.7-.64 2.29-.42.59-.99 1.02-1.7 1.3s-1.5.42-2.38.42zm-.06-5.99c.67 0 1.24-.15 1.7-.46.46-.31.82-.75 1.06-1.33.24-.58.36-1.27.36-2.07s-.12-1.48-.36-2.08c-.24-.6-.59-1.07-1.05-1.41-.46-.34-1.04-.51-1.72-.51s-1.3.18-1.77.54c-.47.36-.82.84-1.06 1.45-.23.61-.35 1.28-.35 2.02s.12 1.43.36 2.01c.24.58.59 1.04 1.07 1.36.47.33 1.06.49 1.76.49zM1086.74 969.06v6.56h-1.68v-10.91h1.62v1.71h.14c.25-.55.64-1 1.16-1.34.52-.34 1.19-.51 2.02-.51.74 0 1.38.15 1.94.45s.99.75 1.29 1.36.46 1.38.46 2.3v6.93h-1.68v-6.82c0-.86-.22-1.53-.67-2.01-.45-.48-1.06-.72-1.83-.72-.54 0-1.01.12-1.43.35-.42.23-.75.57-.99 1.02-.24.45-.36.99-.36 1.62zM1099.98 975.88c-.69 0-1.32-.13-1.88-.39-.56-.26-1.01-.64-1.34-1.14-.33-.5-.5-1.1-.5-1.82 0-.62.12-1.13.37-1.52.25-.39.58-.7.99-.92.41-.22.87-.39 1.37-.5.5-.11 1-.2 1.51-.27.66-.08 1.2-.15 1.62-.2.42-.04.72-.12.91-.23.19-.11.29-.3.29-.57v-.06c0-.7-.19-1.25-.57-1.63-.38-.39-.96-.58-1.73-.58s-1.43.17-1.88.53c-.45.35-.77.72-.96 1.12l-1.59-.57c.28-.66.66-1.18 1.14-1.55.48-.37 1-.63 1.56-.78.57-.15 1.12-.22 1.67-.22.35 0 .75.04 1.21.12.46.08.9.25 1.33.51s.79.64 1.07 1.16.43 1.21.43 2.07v7.19h-1.68v-1.48h-.08c-.11.24-.3.49-.57.76-.27.27-.62.5-1.06.69s-.98.28-1.61.28zm.25-1.51c.66 0 1.22-.13 1.68-.39.46-.26.8-.6 1.04-1.01.23-.41.35-.85.35-1.3v-1.53c-.07.08-.23.16-.47.23-.24.07-.51.13-.82.18-.31.05-.61.09-.9.13s-.53.07-.71.09c-.44.06-.84.15-1.22.27-.38.13-.68.31-.91.56-.23.25-.34.59-.34 1.01 0 .58.22 1.02.65 1.32s.98.44 1.65.44zM1023.39 999.88c-.69 0-1.32-.13-1.88-.39-.56-.26-1.01-.64-1.34-1.14-.33-.5-.5-1.1-.5-1.82 0-.62.12-1.13.37-1.52.25-.39.58-.7.99-.92.41-.22.87-.39 1.37-.5.5-.11 1-.2 1.51-.27.66-.08 1.2-.15 1.62-.2.42-.04.72-.12.91-.23.19-.11.29-.3.29-.57v-.06c0-.7-.19-1.25-.57-1.63-.38-.39-.96-.58-1.73-.58s-1.43.17-1.88.53c-.45.35-.77.72-.96 1.12l-1.59-.57c.28-.66.66-1.18 1.14-1.55.48-.37 1-.63 1.56-.78.57-.15 1.12-.22 1.67-.22.35 0 .75.04 1.21.12.46.08.9.25 1.33.51s.79.64 1.07 1.16.43 1.21.43 2.07v7.19h-1.68v-1.48h-.08c-.11.24-.3.49-.57.76-.27.27-.62.5-1.06.69s-.98.28-1.61.28zm.25-1.51c.66 0 1.22-.13 1.68-.39.46-.26.8-.6 1.04-1.01.23-.41.35-.85.35-1.3v-1.53c-.07.08-.23.16-.47.23-.24.07-.51.13-.82.18-.31.05-.61.09-.9.13s-.53.07-.71.09c-.44.06-.84.15-1.22.27-.38.13-.68.31-.91.56-.23.25-.34.59-.34 1.01 0 .58.22 1.02.65 1.32s.98.44 1.65.44zM1033.13 985.08v14.55h-1.68v-14.55h1.68zM1037.05 986.9c-.33 0-.61-.11-.84-.33s-.35-.49-.35-.8.12-.58.35-.8c.23-.22.51-.33.84-.33s.61.11.84.33c.23.22.35.49.35.8s-.12.58-.35.8-.51.33-.84.33zm-.85 12.72v-10.91h1.68v10.91h-1.68zM1048.39 1003.71v-5.77h-.14c-.12.2-.3.45-.53.75s-.55.57-.97.8c-.42.23-.98.35-1.68.35-.91 0-1.71-.23-2.41-.69-.7-.46-1.24-1.12-1.63-1.96-.39-.85-.59-1.85-.59-3s.2-2.14.59-2.98c.39-.84.94-1.49 1.64-1.95.7-.46 1.51-.69 2.43-.69.71 0 1.27.12 1.69.35.42.23.73.5.95.8s.39.54.51.73h.2v-1.73h1.62v15h-1.68zm-3.1-5.37c.67 0 1.24-.18 1.7-.53.46-.35.82-.84 1.06-1.47.24-.63.36-1.35.36-2.18s-.12-1.53-.36-2.14c-.24-.61-.59-1.09-1.05-1.43-.46-.34-1.04-.51-1.72-.51s-1.3.18-1.77.54c-.47.36-.82.85-1.06 1.47s-.35 1.31-.35 2.08.12 1.48.36 2.11c.24.63.59 1.13 1.07 1.51.47.37 1.06.56 1.76.56zM1060.01 995.16v-6.45h1.68v10.91h-1.68v-1.85h-.11c-.26.55-.65 1.02-1.19 1.41-.54.39-1.22.58-2.05.58-.68 0-1.29-.15-1.82-.45s-.95-.75-1.25-1.36c-.3-.61-.45-1.38-.45-2.3v-6.93h1.68v6.82c0 .8.22 1.43.67 1.9.45.47 1.02.71 1.71.71.42 0 .84-.11 1.27-.32.43-.21.8-.54 1.09-.98s.44-1 .44-1.68zM1067.96 999.88c-.69 0-1.32-.13-1.88-.39-.56-.26-1.01-.64-1.34-1.14-.33-.5-.5-1.1-.5-1.82 0-.62.12-1.13.37-1.52.25-.39.58-.7.99-.92.41-.22.87-.39 1.37-.5.5-.11 1-.2 1.51-.27.66-.08 1.2-.15 1.62-.2.42-.04.72-.12.91-.23.19-.11.29-.3.29-.57v-.06c0-.7-.19-1.25-.57-1.63-.38-.39-.96-.58-1.73-.58s-1.43.17-1.88.53c-.45.35-.77.72-.96 1.12l-1.59-.57c.28-.66.66-1.18 1.14-1.55.48-.37 1-.63 1.56-.78.57-.15 1.12-.22 1.67-.22.35 0 .75.04 1.21.12.46.08.9.25 1.33.51s.79.64 1.07 1.16.43 1.21.43 2.07v7.19h-1.68v-1.48h-.08c-.11.24-.3.49-.57.76-.27.27-.62.5-1.06.69s-.98.28-1.61.28zm.26-1.51c.66 0 1.22-.13 1.68-.39.46-.26.8-.6 1.04-1.01.23-.41.35-.85.35-1.3v-1.53c-.07.08-.23.16-.47.23-.24.07-.51.13-.82.18-.31.05-.61.09-.9.13s-.53.07-.71.09c-.44.06-.84.15-1.22.27-.38.13-.68.31-.91.56-.23.25-.34.59-.34 1.01 0 .58.22 1.02.65 1.32s.98.44 1.65.44z"/><text class="cls-1" transform="translate(896.09 1002.33)"><tspan x="0" y="0">Labo</tspan><tspan class="cls-12" x="46.88" y="0">r</tspan><tspan x="53.98" y="0">e</tspan></text><text class="cls-1" transform="translate(1147.85 906.13)"><tspan x="0" y="0">Ut enim</tspan></text><g><path class="cls-8" d="M486.96 1072.01v-12.42h29.74M546.43 1072.01v-12.42H516.7M516.7 1059.59v-46.81M666.44 1043.94v-31.16M1478.25 1229.14h61.09v-35.74M349.97 1229.11h-61.09v-35.74M1046.57 1043.94v-31.16M928.9 1043.94v-31.16M1184.45 947.74v-31.16M1307.36 1044.38v-31.16"/></g><text class="cls-1" transform="translate(1279.18 1002.77)"><tspan x="0" y="0">Minim</tspan></text><g><path class="cls-2" d="M1507.07 1138.23l4.32 12.24h.17l4.32-12.24h1.85l-5.34 14.55h-1.82l-5.34-14.55h1.85zM1523.32 1153c-1.05 0-1.96-.23-2.72-.7s-1.34-1.12-1.75-1.96c-.41-.84-.62-1.82-.62-2.94s.21-2.1.62-2.96c.41-.85.98-1.52 1.72-2s1.6-.72 2.58-.72c.57 0 1.13.09 1.68.28.55.19 1.06.5 1.51.92s.82.98 1.09 1.68c.27.7.41 1.55.41 2.57v.71h-8.41v-1.45h6.71c0-.62-.12-1.16-.37-1.65s-.59-.86-1.04-1.14-.97-.42-1.58-.42c-.67 0-1.24.17-1.73.49-.48.33-.86.76-1.12 1.28-.26.53-.39 1.09-.39 1.69v.97c0 .82.14 1.52.43 2.09.29.57.68 1 1.2 1.3s1.11.44 1.78.44c.44 0 .84-.06 1.2-.19s.67-.32.93-.57c.26-.25.46-.57.6-.95l1.62.45c-.17.55-.46 1.03-.86 1.45-.4.42-.9.74-1.49.97-.59.23-1.26.34-2 .34zM1532.07 1146.21v6.56h-1.68v-10.91h1.62v1.71h.14c.25-.55.64-1 1.16-1.34s1.19-.51 2.02-.51c.74 0 1.38.15 1.94.45.55.3.99.75 1.29 1.36.31.61.46 1.38.46 2.3v6.93h-1.68v-6.82c0-.86-.22-1.53-.67-2.01-.45-.48-1.06-.72-1.83-.72-.54 0-1.01.12-1.43.35-.42.23-.75.57-.99 1.02-.24.45-.36.99-.36 1.62zM1542.95 1140.05c-.33 0-.61-.11-.84-.33s-.35-.49-.35-.8.12-.58.35-.8c.23-.22.51-.33.84-.33s.61.11.84.33c.23.22.35.49.35.8s-.12.58-.35.8-.51.33-.84.33zm-.85 12.72v-10.91h1.68v10.91h-1.68zM1550.06 1153.03c-.69 0-1.32-.13-1.88-.39-.56-.26-1.01-.64-1.34-1.14-.33-.5-.5-1.1-.5-1.82 0-.62.12-1.13.37-1.52s.58-.7.99-.92c.41-.22.87-.39 1.37-.5.5-.11 1-.2 1.51-.27.66-.08 1.2-.15 1.62-.2.42-.04.72-.12.91-.23s.29-.3.29-.57v-.06c0-.7-.19-1.25-.57-1.63-.38-.39-.96-.58-1.73-.58s-1.43.17-1.88.53c-.45.35-.77.72-.96 1.12l-1.59-.57c.28-.66.66-1.18 1.14-1.55.47-.37 1-.63 1.56-.78.56-.15 1.12-.22 1.67-.22.35 0 .75.04 1.21.12.46.08.9.25 1.33.51.43.26.79.64 1.07 1.16.29.52.43 1.21.43 2.07v7.19h-1.68v-1.48h-.08c-.12.24-.3.49-.57.76-.27.27-.62.5-1.06.69-.44.19-.98.28-1.61.28zm.25-1.51c.66 0 1.22-.13 1.68-.39.46-.26.8-.6 1.04-1.01.23-.41.35-.85.35-1.3v-1.53c-.07.08-.23.16-.46.23-.24.07-.51.13-.82.18s-.61.09-.9.13-.53.07-.71.09c-.44.06-.84.15-1.22.27s-.68.31-.91.56c-.23.25-.34.59-.34 1.01 0 .58.22 1.02.65 1.32s.98.44 1.65.44zM1558.12 1152.77v-10.91h1.62v1.71h.14c.23-.58.59-1.04 1.1-1.36.51-.32 1.12-.49 1.82-.49s1.32.16 1.8.49c.48.33.86.78 1.12 1.36h.12c.28-.56.7-1.01 1.26-1.35s1.23-.5 2.01-.5c.98 0 1.77.3 2.39.91.62.61.93 1.55.93 2.84v7.3h-1.68v-7.3c0-.8-.22-1.38-.66-1.73-.44-.35-.96-.52-1.56-.52-.77 0-1.36.23-1.78.69-.42.46-.63 1.04-.63 1.75v7.1h-1.71v-7.47c0-.62-.2-1.12-.6-1.5-.4-.38-.92-.57-1.55-.57-.44 0-.84.12-1.22.35-.38.23-.68.55-.91.96-.23.41-.35.88-.35 1.42v6.82h-1.68zM1528.82 1180.86v-5.77h-.14c-.12.2-.3.45-.53.75-.23.3-.55.57-.97.8-.42.23-.98.35-1.68.35-.91 0-1.71-.23-2.41-.69s-1.24-1.12-1.63-1.96c-.39-.85-.59-1.85-.59-3s.2-2.14.59-2.98c.39-.84.94-1.49 1.64-1.95.7-.46 1.51-.69 2.43-.69.71 0 1.27.12 1.69.35s.73.5.95.8c.22.3.39.54.52.73h.2v-1.73h1.62v15h-1.68zm-3.1-5.37c.67 0 1.24-.18 1.71-.53.46-.35.82-.84 1.06-1.47.24-.63.36-1.35.36-2.18s-.12-1.53-.36-2.14c-.24-.61-.59-1.09-1.05-1.43-.46-.34-1.04-.51-1.72-.51s-1.3.18-1.77.54-.82.85-1.06 1.47-.35 1.31-.35 2.08.12 1.48.36 2.11c.24.63.59 1.13 1.06 1.51.47.37 1.06.56 1.76.56zM1540.44 1172.31v-6.45h1.68v10.91h-1.68v-1.85h-.11c-.26.55-.65 1.02-1.19 1.41-.54.39-1.22.58-2.05.58-.68 0-1.29-.15-1.82-.45-.53-.3-.95-.75-1.25-1.36-.3-.61-.45-1.38-.45-2.3v-6.93h1.68v6.82c0 .8.22 1.43.67 1.9.45.47 1.02.71 1.71.71.42 0 .84-.11 1.27-.32.43-.21.8-.54 1.09-.98.3-.44.45-1 .45-1.68zM1546.04 1164.05c-.33 0-.61-.11-.84-.33s-.35-.49-.35-.8.12-.58.35-.8c.23-.22.52-.33.84-.33s.61.11.84.33c.23.22.35.49.35.8s-.12.58-.35.8-.52.33-.84.33zm-.86 12.72v-10.91h1.68v10.91h-1.68zM1557.65 1168.31l-1.51.43c-.09-.25-.23-.5-.42-.74-.18-.24-.43-.44-.74-.59s-.71-.23-1.2-.23c-.67 0-1.22.15-1.67.46-.44.3-.66.69-.66 1.16 0 .42.15.75.46.99.3.24.78.44 1.42.6l1.62.4c.98.24 1.7.6 2.18 1.08.48.49.72 1.11.72 1.87 0 .62-.18 1.18-.54 1.68-.36.49-.86.88-1.49 1.17s-1.38.43-2.23.43c-1.11 0-2.03-.24-2.76-.72s-1.19-1.19-1.39-2.12l1.59-.4c.15.59.44 1.03.86 1.32.42.29.98.44 1.67.44.78 0 1.4-.17 1.86-.5.46-.33.69-.74.69-1.2 0-.38-.13-.7-.4-.96s-.67-.45-1.22-.58l-1.82-.43c-1-.24-1.73-.6-2.2-1.1s-.7-1.13-.7-1.88c0-.62.17-1.16.52-1.63s.82-.85 1.43-1.12c.6-.27 1.29-.41 2.06-.41 1.08 0 1.93.24 2.55.71.62.47 1.06 1.1 1.32 1.88z"/></g><text class="cls-1" transform="translate(1382.71 1435.11)"><tspan x="0" y="0">Nostrud</tspan></text><text class="cls-1" transform="translate(1532.18 1435.59)"><tspan x="0" y="0">Ullamco</tspan></text><text class="cls-1" transform="translate(230.01 1435.35)"><tspan x="0" y="0">Sit amet</tspan></text><path class="cls-5" d="M492.34 1096.72h5.84M475.74 1096.72h5.84M551.82 1096.72h5.83M535.21 1096.72h5.84"/><circle class="cls-11" cx="486.96" cy="1096.72" r="6.4"/><circle class="cls-11" cx="546.43" cy="1096.72" r="6.4"/><circle class="cls-11" cx="665.75" cy="1096.72" r="42.66"/><g><path class="cls-5" d="M77.04 874.73h15.11c2.78 0 5.04 2.26 5.04 5.04v29.39a4.2 4.2 0 00-4.2-4.2H77.88v-25.68"/><path class="cls-5" d="M111.46 904.96h-10.08a4.2 4.2 0 00-4.2 4.2v-29.39c0-2.78 2.26-5.04 5.04-5.04h14.27v25.19c0 2.78-2.26 5.04-5.04 5.04zM82.91 883.13h8.4v13.43h-8.4zM102.22 884.81h10.08M102.22 889.85h6.72M102.22 894.88h10.08"/></g><g><path class="cls-5" d="M652.85 1089.79c-2.13 3.97-2.4 8.86-.31 13.23 3.48 7.29 12.22 10.38 19.51 6.89.75-.36 1.46-.78 2.12-1.24M678.74 1103.45a14.64 14.64 0 00.21-13.04c-3.48-7.29-12.22-10.38-19.51-6.89-.82.39-1.59.85-2.3 1.37"/><path class="cls-5" d="M675.67 1098.37l2.87 6.01 6.01-2.87M656.09 1094.82l-2.87-6.01-6 2.87"/></g><circle class="cls-11" cx="928.9" cy="1096.72" r="42.66"/><circle class="cls-11" cx="788.64" cy="859.48" r="42.66"/><circle class="cls-11" cx="1043.99" cy="1096.72" r="42.66"/><g><path class="cls-5" d="M770.92 1129.67h9.78M812.48 1129.67h9.78"/><circle class="cls-6" cx="838.15" cy="1129.67" r="15.89"/><path class="cls-6" d="M832.63 1135.19l11.04-11.05M832.63 1124.14l11.04 11.05"/><path class="cls-7" d="M747.56 1130.64l4.37 4.37 10.68-10.68"/><path class="cls-7" d="M770.92 1129.73c0 8.78-7.11 15.89-15.89 15.89s-15.89-7.11-15.89-15.89 7.11-15.89 15.89-15.89 15.89 7.11 15.89 15.89M788.64 1130.42l4.37 4.37 10.68-10.68"/><path class="cls-7" d="M812 1129.51c0 8.78-7.11 15.89-15.89 15.89s-15.89-7.11-15.89-15.89 7.11-15.89 15.89-15.89 15.89 7.11 15.89 15.89"/></g><g><path class="cls-5" d="M912.2 1089.04v6.32c0 6.04 2.6 12.35 7.22 16.24 2.44 2.06 5.56 3.64 9.93 5.18 4.36-1.53 7.49-3.12 9.93-5.18 4.62-3.9 7.22-10.2 7.22-16.24v-12.63c-11.74.2-17.15-6.64-17.15-6.64s-5.4 6.84-17.15 6.64h-.9"/><path class="cls-5" d="M922.86 1097.01l3.89 3.89 9.52-9.51"/></g><g><path class="cls-5" d="M1032.02 1101.1c-4.56-1.98-7.76-6.52-7.76-11.81 0-7.11 5.76-12.87 12.87-12.87 5.92 0 10.9 4 12.4 9.44"/><circle class="cls-5" cx="1037.13" cy="1085.85" r="4.29"/><path class="cls-5" d="M1029.41 1098.72l1.9-2.86a5.14 5.14 0 014.28-2.29h1.53"/><circle class="cls-5" cx="1050.86" cy="1103.01" r="12.87"/><circle class="cls-5" cx="1050.86" cy="1099.58" r="4.29"/><path class="cls-5" d="M1043.14 1112.45l1.9-2.86a5.14 5.14 0 014.28-2.29h3.07c1.72 0 3.33.86 4.28 2.29l1.9 2.86"/></g><g><circle class="cls-5" cx="1571.28" cy="1360.63" r="5.1"/><path class="cls-5" d="M1584.54 1362.89v-4.53l-3.28-.48c-.23-.84-.56-1.63-.98-2.37l1.98-2.66-3.2-3.2-2.66 1.98c-.74-.42-1.53-.75-2.37-.98l-.48-3.28h-4.53l-.48 3.28c-.84.23-1.63.56-2.37.98l-2.66-1.98-3.2 3.2 1.98 2.66c-.42.74-.75 1.53-.98 2.37l-3.28.48v4.53l3.28.48c.23.84.56 1.63.98 2.37l-1.98 2.66 3.2 3.2 2.66-1.98c.74.42 1.53.75 2.37.98l.48 3.28h4.53l.48-3.28c.84-.23 1.63-.56 2.37-.98l2.66 1.98 3.2-3.2-1.98-2.66c.42-.74.75-1.53.98-2.37l3.28-.48z"/><path class="cls-5" d="M1557.47 1341.73c-5.82 4.27-9.6 11.16-9.6 18.93 0 12.96 10.5 23.46 23.46 23.46 2.8 0 5.49-.49 7.99-1.39M1585.48 1379.38c5.66-4.28 9.32-11.08 9.32-18.72 0-12.96-10.5-23.46-23.46-23.46-2.8 0-5.48.49-7.97 1.39"/><path class="cls-5" d="M1558.07 1348.42v-7.14h-7.14M1584.59 1372.9v7.14h7.14"/></g><g><path class="cls-5" d="M1150.28 1129.67h9.77M1191.84 1129.67h9.78"/><path class="cls-7" d="M1126.91 1130.64l4.38 4.37 10.68-10.68"/><path class="cls-7" d="M1150.28 1129.73c0 8.78-7.11 15.89-15.89 15.89s-15.89-7.11-15.89-15.89 7.11-15.89 15.89-15.89 15.89 7.11 15.89 15.89M1168 1130.42l4.37 4.37 10.68-10.68"/><path class="cls-7" d="M1191.84 1129.51c0 8.78-7.11 15.89-15.89 15.89s-15.89-7.11-15.89-15.89 7.11-15.89 15.89-15.89 15.89 7.11 15.89 15.89M1210.04 1130.42l4.37 4.37 10.68-10.68"/><path class="cls-7" d="M1233.4 1129.51c0 8.78-7.11 15.89-15.89 15.89s-15.89-7.11-15.89-15.89 7.11-15.89 15.89-15.89 15.89 7.11 15.89 15.89"/></g><g class="cls-10"><path class="cls-5" d="M226.54 1360.66h-79.77c-27.61 0-50-22.39-50-50v-15.96M96.77 1164.35v-22.18M96.77 1011.83v-32.19M1378 1360.66H311.86M1420.8 1318v-46.2M562.61 1096.72h60.61M503.14 1096.72h27.11M403.86 1186.48v-39.76c0-27.61 22.39-50 50-50h16.92M1463.32 1360.66h64.78M1086.65 1096.72h178.59M708.41 1096.72h177.83M1145.26 1096.72h5.7c17.67 0 32-14.32 32-32v-21.16M746.03 859.48H566.7c-27.61 0-50 22.39-50 50v59.07M1046.57 945.87v-36.39c0-27.61-22.39-50-50-50H831.26M1001.33 1096.72h-29.77M1420.66 1186.48v-39.76c0-27.61-22.39-50-50-50h-20.1M403.86 1271.8v38.83c0 27.61-22.39 50-50 50H318.1"/></g><g><path class="cls-5" d="M788.64 854.18v7.02M788.64 863.83v2.84M801.41 871.97h-31.27l18.5-30.98 18.5 30.98-1.27-.01"/></g><circle class="cls-11" cx="96.77" cy="1207.01" r="42.66"/><g><path class="cls-5" d="M104.14 1217.62l10.36-17.32-9.94-5.94"/><path class="cls-5" d="M79.04 1189.51h25.11v30.43c0 2.52-2.04 4.57-4.57 4.57H79.8v-29.67"/></g><circle class="cls-11" cx="96.77" cy="1054.48" r="42.66"/><g id="calendar-24px-2" data-name="calendar-24px"><path class="cls-5" d="M77.57 1045.57h38.39v-8.31H77.57v35.02h33.39c2.77 0 5.01-2.24 5.01-5.01v-15.86M84.25 1034.72v6.68M109.29 1034.72v6.68"/><path class="cls-5" d="M90.09 1052.25h19.2v13.35H84.25v-13.35h.83"/></g><circle class="cls-11" cx="269.2" cy="1360.66" r="42.66"/><circle class="cls-11" cx="403.86" cy="1229.14" r="42.66"/><g><circle class="cls-5" cx="393.69" cy="1243.31" r="3.73"/><circle class="cls-5" cx="393.69" cy="1216.71" r="3.73"/><circle class="cls-5" cx="414.03" cy="1243.31" r="3.73"/><path class="cls-5" d="M414.03 1240.18v-18.77c0-2.59-2.1-4.69-4.69-4.69h-5.47"/><path class="cls-5" d="M408.55 1222.19l-5.47-5.48 5.47-5.47M393.69 1219.84v20.34"/></g><g><path class="cls-5" d="M257.17 1372.76v5.5h18.35a4.49 4.49 0 004.49-4.49v-30.7H256.8v5.5"/><path class="cls-5" d="M280.06 1370.54l9.94-16.62-9.99-5.97M252.85 1361.14l2.31 2.31 5.64-5.64"/><circle class="cls-5" cx="256.79" cy="1360.66" r="8.4"/></g><circle class="cls-11" cx="1420.66" cy="1229.14" r="42.66"/><g><circle class="cls-5" cx="1414.38" cy="1241.43" r="3.71"/><circle class="cls-5" cx="1414.38" cy="1214.72" r="3.71"/><circle class="cls-5" cx="1432.93" cy="1233.27" r="3.71"/><path class="cls-5" d="M1414.38 1217.68v20.78M1414.38 1219.17v5.2c0 4.92 3.99 8.9 8.9 8.9h6.68"/></g><circle class="cls-11" cx="1420.66" cy="1360.66" r="42.66"/><g><path class="cls-5" d="M1407.36 1364.3l-6.54-3.27v-1.63l3.27-3.27c1.38-1.38 2.98-2.94 4.9-3.27l11.44-1.63M1417.16 1374.11l-9.8-9.8 17.97-17.97c2.17-2.17 5.11-3.08 8.17-3.27l3.38.09 1.52 1.55v3.27c-.19 3.06-1.1 6-3.27 8.17l-17.97 17.97 3.27 6.54h1.63l3.27-3.27c1.35-1.35 2.92-3.02 3.27-4.9l.56-4.26M1430.23 1347.97l3.27 3.26"/></g></g></svg>