<svg xmlns="http://www.w3.org/2000/svg" xmlns:xlink="http://www.w3.org/1999/xlink" xml:space="preserve" style="enable-background:new 0 0 2579.1 416.1" viewBox="0 0 2579.1 416.1"><style>.st0{enable-background:new}.st1{fill:#fff}.st5{fill:#fca326}.st6{fill:#171321}</style><g id="Layer_1"><path d="M644.7 57.5h615v345.2h-615z" class="st0"/><path d="M915.8 252h-14.2v-41.9h14.5c4.2 0 7.7.8 10.7 2.5 3 1.7 5.3 4.1 6.9 7.2 1.6 3.1 2.4 6.9 2.4 11.2 0 4.4-.8 8.1-2.4 11.2s-3.9 5.5-7 7.2c-3 1.8-6.6 2.6-10.9 2.6zm-6.6-6.5h6.2c2.9 0 5.4-.5 7.3-1.6 1.9-1.1 3.4-2.7 4.4-4.8s1.5-4.8 1.5-8-.5-5.9-1.5-8c-1-2.1-2.4-3.7-4.3-4.8-1.9-1.1-4.3-1.6-7.1-1.6h-6.5v28.8zM943 252v-31.4h7.2v5.2h.3c.6-1.8 1.6-3.2 3-4.2s3-1.5 4.8-1.5c.4 0 .9 0 1.4.1s.9.1 1.3.2v6.8c-.3-.1-.8-.2-1.5-.3-.7-.1-1.3-.1-2-.1-1.3 0-2.6.3-3.6.9-1.1.6-1.9 1.4-2.5 2.4-.6 1-.9 2.2-.9 3.5V252H943zM969.6 216.2c-1.2 0-2.2-.4-3-1.2-.8-.8-1.3-1.7-1.3-2.8 0-1.1.4-2.1 1.3-2.9.8-.8 1.9-1.2 3-1.2 1.2 0 2.2.4 3 1.2s1.3 1.7 1.3 2.9c0 1.1-.4 2-1.3 2.8s-1.8 1.2-3 1.2zm-3.8 35.8v-31.4h7.4V252h-7.4zM996.8 220.6v5.7h-18.6v-5.7h18.6zm-14 31.4v-34.4c0-2.1.4-3.9 1.3-5.3s2.1-2.5 3.5-3.1 3.1-1 4.9-1c1.3 0 2.4.1 3.4.3 1 .2 1.7.4 2.2.6l-1.5 5.7c-.3-.1-.7-.2-1.2-.3-.5-.1-1-.2-1.6-.2-1.4 0-2.3.3-2.9 1-.6.7-.8 1.6-.8 2.8V252h-7.3zM1018.3 220.6v5.7h-18.1v-5.7h18.1zm-13.6-7.5h7.4v29.5c0 1 .2 1.8.5 2.3.3.5.7.9 1.2 1.1.5.2 1.1.3 1.7.3.5 0 .9 0 1.3-.1s.7-.1.9-.2l1.2 5.8c-.4.1-1 .3-1.7.5s-1.6.3-2.7.3c-1.9.1-3.5-.2-5-.8-1.5-.6-2.7-1.6-3.5-2.9-.9-1.3-1.3-2.9-1.3-4.9v-30.9z" class="st1"/><defs><path id="SVGID_1_" d="M645.3 57.5h623v350h-623z"/></defs><clipPath id="SVGID_00000115496251034358957630000006457974283949060499_"><use xlink:href="#SVGID_1_" style="overflow:visible"/></clipPath><g style="clip-path:url(#SVGID_00000115496251034358957630000006457974283949060499_)"><defs><path id="SVGID_00000176745406981808898180000002915604665366875787_" d="M645.3 57.2h623v350.4h-623z"/></defs><clipPath id="SVGID_00000160884261414873382490000010096354152811335323_"><use xlink:href="#SVGID_00000176745406981808898180000002915604665366875787_" style="overflow:visible"/></clipPath><g style="clip-path:url(#SVGID_00000160884261414873382490000010096354152811335323_)"><image xlink:href="54957E826260A51C.png" width="1922" height="1080" style="overflow:visible;enable-background:new" transform="translate(645.313 57.42) scale(.3197)"/></g></g><defs><path id="SVGID_00000011020847550981940670000010687308768520074687_" d="M890.3 202.4h133v61h-133z"/></defs><clipPath id="SVGID_00000018212647304030969130000009072498788620248763_"><use xlink:href="#SVGID_00000011020847550981940670000010687308768520074687_" style="overflow:visible"/></clipPath><path d="M891.3 263.5v-61h-2v61h2zm132-1h-133v2h133v-2zm-1-60v61h2v-61h-2zm-132 1h133v-2h-133v2zm0 60h-1v1h1v-1zm133 0v1h1v-1h-1zm0-61h1v-1h-1v1zm-133 0v-1h-1v1h1z" class="st5" style="clip-path:url(#SVGID_00000018212647304030969130000009072498788620248763_)"/><path d="M244 13.4h3.4v20.8c0 1 .1 1.7.4 2.1.3.5.6.8 1.1.9.4.2.9.2 1.4.2.4 0 .7 0 .9-.1.2 0 .4-.1.6-.1l.7 3c-.2.1-.5.2-.9.3s-.9.1-1.6.1c-.9 0-1.9-.2-2.8-.6s-1.6-1-2.2-1.9c-.6-.8-.9-1.9-.9-3.2l-.1-21.5zm8 5.2v2.8h-11.3v-2.8H252zm-22.4 21.9V15.6c0-1.2.3-2.3.9-3.1.6-.8 1.4-1.5 2.3-1.9.9-.4 1.9-.6 3-.6.8 0 1.5.1 2 .2s.9.3 1.2.4l-1 2.9c-.2-.1-.4-.1-.7-.2-.3-.1-.7-.1-1.2-.1-1.1 0-1.9.3-2.4.8-.5.6-.7 1.4-.7 2.5v24h-3.4zm8.3-21.9v2.8h-11.8v-2.8h11.8zM220.4 15c-.6 0-1.2-.2-1.7-.7-.5-.4-.7-1-.7-1.6s.2-1.2.7-1.6 1-.7 1.7-.7 1.2.2 1.7.7c.5.4.7 1 .7 1.6s-.2 1.2-.7 1.6c-.5.5-1.1.7-1.7.7zm-1.7 25.5V18.6h3.4v21.8l-3.4.1zm-14.9 0V18.6h3.2v3.3h.2c.4-1.1 1.1-2 2.2-2.6s2.2-1 3.5-1H214.6v3.4c-.1 0-.4-.1-.8-.1-.4-.1-.8-.1-1.3-.1-1.1 0-2 .2-2.8.7-.8.4-1.5 1-2 1.8s-.7 1.6-.7 2.6v13.8l-3.2.1zM179 37.3h5.2c2.4 0 4.4-.5 6-1.4s2.8-2.2 3.5-4 1.2-3.8 1.2-6.1-.4-4.4-1.1-6.1c-.8-1.7-1.9-3-3.4-3.9-1.5-.9-3.4-1.4-5.7-1.4H179v22.9zm5.5 3.2h-9V11.4h9.4c2.8 0 5.2.6 7.2 1.8 2 1.2 3.6 2.8 4.6 5 1.1 2.2 1.6 4.7 1.6 7.8s-.5 5.6-1.6 7.8-2.6 3.8-4.7 5c-2.1 1.1-4.6 1.7-7.5 1.7zm-40.8-13.2v13.1h-3.4V18.6h3.2V22h.3c.5-1.1 1.3-2 2.3-2.7 1-.7 2.4-1 4-1 1.5 0 2.8.3 3.9.9 1.1.6 2 1.5 2.6 2.7.6 1.2.9 2.8.9 4.6v13.9h-3.4V26.8c0-1.7-.4-3-1.3-4s-2.1-1.5-3.7-1.5c-1.1 0-2 .2-2.9.7-.8.5-1.5 1.1-2 2-.2 1-.5 2.1-.5 3.3zm-18.3 10.6c1.5 0 2.7-.4 3.7-1.2s1.7-1.8 2.1-3 .7-2.6.7-4.1-.2-2.8-.7-4.1c-.5-1.3-1.2-2.3-2.1-3-1-.8-2.2-1.2-3.7-1.2s-2.7.4-3.7 1.2c-1 .8-1.7 1.8-2.1 3-.5 1.3-.7 2.6-.7 4.1s.2 2.8.7 4.1 1.2 2.3 2.1 3c.9.8 2.2 1.2 3.7 1.2zm0 3c-2 0-3.7-.5-5.2-1.4s-2.6-2.2-3.5-3.9c-.8-1.7-1.2-3.7-1.2-5.9s.4-4.3 1.2-6c.8-1.7 2-3 3.5-4 1.5-.9 3.2-1.4 5.2-1.4s3.7.5 5.2 1.4c1.5.9 2.6 2.2 3.5 4s1.2 3.7 1.2 6-.4 4.2-1.2 5.9c-.8 1.7-2 3-3.5 3.9-1.5.9-3.3 1.4-5.2 1.4zM108.7 15c-.7 0-1.2-.2-1.7-.7-.5-.4-.7-1-.7-1.6s.2-1.2.7-1.6c.5-.4 1-.7 1.7-.7s1.2.2 1.7.7.7 1 .7 1.6-.2 1.2-.7 1.6c-.5.5-1 .7-1.7.7zM107 40.5V18.6h3.3v21.8l-3.3.1zM94 13.4h3.3v20.8c0 1 .1 1.7.4 2.1.3.5.6.8 1.1.9.4.2.9.2 1.4.2.4 0 .7 0 .9-.1.2 0 .4-.1.6-.1l.7 3c-.2.1-.5.2-.9.3-.4.1-.9.1-1.6.1-.9 0-1.9-.2-2.8-.6s-1.7-1-2.2-1.9-.9-1.7-.9-3V13.4zm8 5.2v2.8H90.7v-2.8H102zM84.7 15c-.7 0-1.2-.2-1.7-.7-.5-.4-.7-1-.7-1.6s.2-1.2.7-1.6c.5-.4 1-.7 1.7-.7s1.2.2 1.7.7.7 1 .7 1.6-.2 1.2-.7 1.6c-.5.5-1 .7-1.7.7zM83 40.4V18.6h3.3v21.8H83zm-5.4-16.9-3 .9c-.2-.5-.5-1-.8-1.5-.4-.5-.8-.9-1.5-1.2s-1.4-.5-2.4-.5c-1.3 0-2.4.3-3.3.9-.9.6-1.3 1.4-1.3 2.3 0 .8.3 1.5.9 2s1.6.9 2.8 1.2l3.2.8c1.9.5 3.4 1.2 4.4 2.2s1.4 2.2 1.4 3.7c0 1.2-.4 2.4-1.1 3.3-.7 1-1.7 1.8-3 2.3-1.3.6-2.8.8-4.5.8-2.2 0-4.1-.5-5.5-1.5s-2.4-2.4-2.8-4.2l3.2-.8c.3 1.2.9 2 1.7 2.6.8.6 2 .9 3.3.9 1.6 0 2.8-.3 3.7-1 .9-.7 1.4-1.5 1.4-2.4 0-.8-.3-1.4-.8-1.9s-1.3-.9-2.4-1.2l-3.6-.9c-2-.5-3.5-1.2-4.4-2.2-.9-1-1.4-2.3-1.4-3.8 0-1.2.3-2.3 1-3.3s1.7-1.7 2.9-2.2c1.2-.5 2.6-.8 4.1-.8 2.2 0 3.8.5 5.1 1.4s2.1 2.6 2.7 4.1zM47.1 37.9c1.5 0 2.7-.4 3.7-1.2s1.7-1.8 2.1-3 .7-2.6.7-4.1-.2-2.8-.7-4.1c-.5-1.3-1.2-2.3-2.1-3-1-.8-2.2-1.2-3.7-1.2s-2.7.4-3.7 1.2c-1 .8-1.7 1.8-2.1 3-.5 1.3-.7 2.6-.7 4.1s.2 2.8.7 4.1 1.2 2.3 2.1 3c1 .8 2.2 1.2 3.7 1.2zm0 3c-2 0-3.7-.5-5.2-1.4s-2.6-2.2-3.5-3.9c-.8-1.7-1.2-3.7-1.2-5.9s.4-4.3 1.2-6c.8-1.7 2-3 3.5-4 1.5-.9 3.2-1.4 5.2-1.4s3.7.5 5.2 1.4c1.5.9 2.6 2.2 3.5 4s1.2 3.7 1.2 6-.4 4.2-1.2 5.9c-.8 1.7-2 3-3.5 3.9-1.5.9-3.2 1.4-5.2 1.4zm-33.6-.4V11.4h9.8c2.3 0 4.1.4 5.6 1.2 1.5.8 2.5 1.9 3.2 3.3s1 3 1 4.7-.3 3.3-1 4.7c-.7 1.4-1.8 2.5-3.2 3.4-1.5.8-3.3 1.2-5.6 1.2h-7v-3.1h6.9c1.6 0 2.8-.3 3.8-.8s1.6-1.3 2.1-2.2c.4-.9.6-2 .6-3.1s-.2-2.2-.6-3.1c-.4-.9-1.1-1.6-2.1-2.2-1-.5-2.2-.8-3.8-.8H17v26l-3.5-.1z" class="st6"/><path d="M9.4 57.5h615v345.2H9.4z" class="st0"/><path d="M272.5 252h-14.2v-41.9h14.5c4.2 0 7.7.8 10.7 2.5 3 1.7 5.3 4.1 6.9 7.2 1.6 3.1 2.4 6.9 2.4 11.2 0 4.4-.8 8.1-2.4 11.2s-3.9 5.5-7 7.2c-3 1.8-6.7 2.6-10.9 2.6zm-6.6-6.5h6.2c2.9 0 5.4-.5 7.3-1.6 1.9-1.1 3.4-2.7 4.4-4.8s1.5-4.8 1.5-8-.5-5.9-1.5-8c-1-2.1-2.4-3.7-4.3-4.8-1.9-1.1-4.3-1.6-7.1-1.6h-6.5v28.8zM299.7 252v-31.4h7.2v5.2h.3c.6-1.8 1.6-3.2 3-4.2s3-1.5 4.8-1.5c.4 0 .9 0 1.4.1s.9.1 1.3.2v6.8c-.3-.1-.8-.2-1.5-.3-.7-.1-1.3-.1-2-.1-1.3 0-2.6.3-3.6.9-1.1.6-1.9 1.4-2.5 2.4-.6 1-.9 2.2-.9 3.5V252h-7.5zM326.3 216.2c-1.2 0-2.2-.4-3-1.2-.8-.8-1.3-1.7-1.3-2.8 0-1.1.4-2.1 1.3-2.9.8-.8 1.9-1.2 3-1.2 1.2 0 2.2.4 3 1.2s1.3 1.7 1.3 2.9c0 1.1-.4 2-1.3 2.8s-1.9 1.2-3 1.2zm-3.8 35.8v-31.4h7.4V252h-7.4zM353.5 220.6v5.7h-18.6v-5.7h18.6zm-14 31.4v-34.4c0-2.1.4-3.9 1.3-5.3s2.1-2.5 3.5-3.1 3.1-1 4.9-1c1.3 0 2.4.1 3.4.3 1 .2 1.7.4 2.2.6l-1.5 5.7c-.3-.1-.7-.2-1.2-.3-.5-.1-1-.2-1.6-.2-1.4 0-2.3.3-2.9 1-.6.7-.8 1.6-.8 2.8V252h-7.3zM374.9 220.6v5.7h-18.1v-5.7h18.1zm-13.6-7.5h7.4v29.5c0 1 .2 1.8.5 2.3.3.5.7.9 1.2 1.1.5.2 1.1.3 1.7.3.5 0 .9 0 1.3-.1s.7-.1.9-.2l1.2 5.8c-.4.1-1 .3-1.7.5s-1.6.3-2.7.3c-1.9.1-3.5-.2-5-.8-1.5-.6-2.7-1.6-3.5-2.9-.9-1.3-1.3-2.9-1.3-4.9v-30.9z" class="st1"/><defs><path id="SVGID_00000106866400196362584790000007191373218728397440_" d="M10 57.5h623v350H10z"/></defs><clipPath id="SVGID_00000170983294754018202290000007191540496770736063_"><use xlink:href="#SVGID_00000106866400196362584790000007191373218728397440_" style="overflow:visible"/></clipPath><g style="clip-path:url(#SVGID_00000170983294754018202290000007191540496770736063_)"><defs><path id="SVGID_00000000191841438093428950000016844060550348467348_" d="M10 57.2h623v350.4H10z"/></defs><clipPath id="SVGID_00000138548432782707746560000011397273184559595943_"><use xlink:href="#SVGID_00000000191841438093428950000016844060550348467348_" style="overflow:visible"/></clipPath><g style="clip-path:url(#SVGID_00000138548432782707746560000011397273184559595943_)"><image xlink:href="54957E826260A51D.png" width="1922" height="1080" style="overflow:visible;enable-background:new" transform="translate(10 57.42) scale(.3197)"/></g></g><defs><path id="SVGID_00000031895851320543234170000007686288288568959629_" d="M255 202.4h133v61H255z"/></defs><clipPath id="SVGID_00000145771754186357335410000012584527170287462842_"><use xlink:href="#SVGID_00000031895851320543234170000007686288288568959629_" style="overflow:visible"/></clipPath><path d="M256 263.5v-61h-2v61h2zm132-1H255v2h133v-2zm-1-60v61h2v-61h-2zm-132 1h133v-2H255v2zm0 60h-1v1h1v-1zm133 0v1h1v-1h-1zm0-61h1v-1h-1v1zm-133 0v-1h-1v1h1z" class="st5" style="clip-path:url(#SVGID_00000145771754186357335410000012584527170287462842_)"/><path d="M1314.5 57.5h615v345.2h-615z" class="st0"/><path d="M1585.6 257h-14.2v-41.9h14.5c4.2 0 7.7.8 10.7 2.5s5.3 4.1 6.9 7.2c1.6 3.1 2.4 6.9 2.4 11.2 0 4.4-.8 8.1-2.4 11.2-1.6 3.1-3.9 5.5-7 7.2-3 1.8-6.6 2.6-10.9 2.6zm-6.6-6.5h6.2c2.9 0 5.4-.5 7.3-1.6 1.9-1.1 3.4-2.7 4.4-4.8s1.5-4.8 1.5-8-.5-5.9-1.5-8c-1-2.1-2.4-3.7-4.3-4.8-1.9-1.1-4.3-1.6-7.1-1.6h-6.5v28.8zM1612.8 257v-31.4h7.2v5.2h.3c.6-1.8 1.6-3.2 3-4.2s3-1.5 4.8-1.5c.4 0 .9 0 1.4.1.5 0 .9.1 1.3.2v6.8c-.3-.1-.8-.2-1.5-.3-.7-.1-1.3-.1-2-.1-1.3 0-2.6.3-3.6.9-1.1.6-1.9 1.4-2.5 2.4-.6 1-.9 2.2-.9 3.5V257h-7.5zM1639.4 221.2c-1.2 0-2.2-.4-3-1.2-.8-.8-1.3-1.7-1.3-2.8 0-1.1.4-2.1 1.3-2.9.8-.8 1.9-1.2 3-1.2 1.2 0 2.2.4 3 1.2.8.8 1.3 1.7 1.3 2.9 0 1.1-.4 2-1.3 2.8-.8.8-1.8 1.2-3 1.2zm-3.8 35.8v-31.4h7.4V257h-7.4zM1666.6 225.6v5.7H1648v-5.7h18.6zm-14 31.4v-34.4c0-2.1.4-3.9 1.3-5.3s2.1-2.5 3.5-3.1c1.5-.7 3.1-1 4.9-1 1.3 0 2.4.1 3.4.3 1 .2 1.7.4 2.2.6l-1.5 5.7c-.3-.1-.7-.2-1.2-.3-.5-.1-1-.2-1.6-.2-1.4 0-2.3.3-2.9 1s-.8 1.6-.8 2.8V257h-7.3zM1688.1 225.6v5.7H1670v-5.7h18.1zm-13.6-7.5h7.4v29.5c0 1 .2 1.8.5 2.3.3.5.7.9 1.2 1.1.5.2 1.1.3 1.7.3.5 0 .9 0 1.3-.1s.7-.1.9-.2l1.2 5.8c-.4.1-1 .3-1.7.5s-1.6.3-2.7.3c-1.9.1-3.5-.2-5-.8-1.5-.6-2.7-1.6-3.5-2.9-.9-1.3-1.3-2.9-1.3-4.9v-30.9z" class="st1"/><defs><path id="SVGID_00000018953085029981154840000000292376493330222478_" d="M1315.1 57.5h623v350h-623z"/></defs><clipPath id="SVGID_00000102539476307295262350000008280988549572765107_"><use xlink:href="#SVGID_00000018953085029981154840000000292376493330222478_" style="overflow:visible"/></clipPath><g style="clip-path:url(#SVGID_00000102539476307295262350000008280988549572765107_)"><defs><path id="SVGID_00000018217373664721952080000008631757595790177949_" d="M1315.1 57.2h623v350.4h-623z"/></defs><clipPath id="SVGID_00000000223706185444104530000010064531651490897812_"><use xlink:href="#SVGID_00000018217373664721952080000008631757595790177949_" style="overflow:visible"/></clipPath><g style="clip-path:url(#SVGID_00000000223706185444104530000010064531651490897812_)"><image xlink:href="54957E826260A51B.png" width="1922" height="1080" style="overflow:visible;enable-background:new" transform="translate(1315.113 57.42) scale(.3197)"/></g></g><defs><path id="SVGID_00000057840270226325704540000015212763465847830165_" d="M1560.1 202.4h133v61h-133z"/></defs><clipPath id="SVGID_00000049202872893369358070000013883514965831706521_"><use xlink:href="#SVGID_00000057840270226325704540000015212763465847830165_" style="overflow:visible"/></clipPath><path d="M1561.1 263.5v-61h-2v61h2zm132-1h-133v2h133v-2zm-1-60v61h2v-61h-2zm-132 1h133v-2h-133v2zm0 60h-1v1h1v-1zm133 0v1h1v-1h-1zm0-61h1v-1h-1v1zm-133 0v-1h-1v1h1z" class="st5" style="clip-path:url(#SVGID_00000049202872893369358070000013883514965831706521_)"/><path d="M1947.5 57.5h615v345.2h-615z" class="st0"/><path d="M2207.5 255h-15.6v-46.1h15.9c4.6 0 8.5.9 11.8 2.8 3.3 1.8 5.8 4.5 7.6 7.9 1.8 3.4 2.7 7.6 2.7 12.3 0 4.8-.9 8.9-2.7 12.4-1.8 3.5-4.3 6.1-7.7 7.9-3.3 1.9-7.3 2.8-12 2.8zm-7.2-7.2h6.9c3.2 0 5.9-.6 8-1.8 2.1-1.2 3.8-2.9 4.8-5.3s1.6-5.3 1.6-8.8c0-3.5-.5-6.5-1.6-8.8-1.1-2.3-2.7-4.1-4.8-5.2-2.1-1.2-4.7-1.7-7.8-1.7h-7.1v31.6zM2237.5 255v-34.6h7.9v5.8h.4c.6-2 1.7-3.5 3.3-4.6 1.5-1.1 3.3-1.6 5.3-1.6.4 0 1 0 1.5.1.6 0 1 .1 1.4.2v7.5c-.3-.1-.9-.2-1.6-.3-.7-.1-1.5-.1-2.2-.1-1.5 0-2.8.3-4 1-1.2.6-2.1 1.5-2.8 2.6-.7 1.1-1 2.4-1 3.9V255h-8.2zM2266.7 215.5c-1.3 0-2.4-.4-3.3-1.3-.9-.9-1.4-1.9-1.4-3.1 0-1.2.5-2.3 1.4-3.1.9-.9 2-1.3 3.3-1.3 1.3 0 2.4.4 3.3 1.3.9.9 1.4 1.9 1.4 3.1 0 1.2-.5 2.3-1.4 3.1-.8.9-2 1.3-3.3 1.3zm-4.1 39.5v-34.6h8.2V255h-8.2zM2296.7 220.4v6.3h-20.4v-6.3h20.4zm-15.3 34.6v-37.8c0-2.3.5-4.3 1.5-5.8s2.3-2.7 3.9-3.5c1.6-.8 3.5-1.1 5.4-1.1 1.4 0 2.7.1 3.8.3 1.1.2 1.9.4 2.4.6l-1.6 6.3c-.3-.1-.8-.2-1.3-.3-.5-.1-1.1-.2-1.8-.2-1.5 0-2.6.4-3.2 1.1-.6.7-.9 1.8-.9 3.1V255h-8.2zM2320.3 220.4v6.3h-19.9v-6.3h19.9zm-14.9-8.3h8.2v32.5c0 1.1.2 1.9.5 2.5.3.6.8 1 1.3 1.2.6.2 1.2.3 1.8.3.5 0 1 0 1.4-.1s.8-.1 1-.2l1.4 6.4c-.4.2-1.1.3-1.9.5-.8.2-1.8.3-2.9.3-2 .1-3.9-.3-5.5-.9-1.6-.7-2.9-1.7-3.9-3.2-1-1.4-1.4-3.2-1.4-5.4v-33.9z" class="st1"/><defs><path id="SVGID_00000135688654993597116350000012170254181957282696_" d="M1948.1 57.5h623v350h-623z"/></defs><clipPath id="SVGID_00000163068720891882899990000008537941057104031386_"><use xlink:href="#SVGID_00000135688654993597116350000012170254181957282696_" style="overflow:visible"/></clipPath><g style="clip-path:url(#SVGID_00000163068720891882899990000008537941057104031386_)"><defs><path id="SVGID_00000032606412762921881540000010901930335135272859_" d="M1948.1 57.2h623v350.4h-623z"/></defs><clipPath id="SVGID_00000078728476803779988870000013840616796373894786_"><use xlink:href="#SVGID_00000032606412762921881540000010901930335135272859_" style="overflow:visible"/></clipPath><g style="clip-path:url(#SVGID_00000078728476803779988870000013840616796373894786_)"><image xlink:href="54957E826260A524.png" width="1922" height="1080" style="overflow:visible;enable-background:new" transform="translate(1948.113 57.42) scale(.3197)"/></g></g><defs><path id="SVGID_00000024682790631756901550000013621491083455261353_" d="M2193.1 202.4h133v61h-133z"/></defs><clipPath id="SVGID_00000111872697468754467510000005570134692997584057_"><use xlink:href="#SVGID_00000024682790631756901550000013621491083455261353_" style="overflow:visible"/></clipPath><path d="M2194.1 263.5v-61h-2v61h2zm132-1h-133v2h133v-2zm-1-60v61h2v-61h-2zm-132 1h133v-2h-133v2zm0 60h-1v1h1v-1zm133 0v1h1v-1h-1zm0-61h1v-1h-1v1zm-133 0v-1h-1v1h1z" class="st5" style="clip-path:url(#SVGID_00000111872697468754467510000005570134692997584057_)"/><path d="M1501.3 13.4h3.3v20.8c0 1 .1 1.7.4 2.1.3.5.6.8 1.1.9.4.2.9.2 1.4.2.4 0 .7 0 .9-.1.2 0 .4-.1.6-.1l.7 3c-.2.1-.5.2-.9.3-.4.1-.9.1-1.6.1-.9 0-1.9-.2-2.8-.6s-1.7-1-2.2-1.9-.9-1.9-.9-3.2V13.4zm8 5.2v2.8H1498v-2.8h11.3zm-22.4 21.9V15.6c0-1.2.3-2.3.9-3.1s1.3-1.5 2.3-1.9c.9-.4 1.9-.6 3-.6.8 0 1.5.1 2 .2s.9.3 1.2.4l-1 2.9c-.2-.1-.4-.1-.7-.2-.3-.1-.7-.1-1.2-.1-1.1 0-1.9.3-2.4.8-.5.6-.7 1.4-.7 2.5v24h-3.4zm8.2-21.9v2.8h-11.8v-2.8h11.8zm-17.5-3.6c-.7 0-1.2-.2-1.7-.7-.5-.4-.7-1-.7-1.6s.2-1.2.7-1.6 1-.7 1.7-.7 1.2.2 1.7.7c.5.4.7 1 .7 1.6s-.2 1.2-.7 1.6c-.5.5-1 .7-1.7.7zm-1.7 25.5V18.6h3.3v21.8l-3.3.1zm-14.9 0V18.6h3.2v3.3h.2c.4-1.1 1.1-2 2.2-2.6 1-.7 2.2-1 3.5-1H1471.8v3.4c-.1 0-.4-.1-.8-.1-.4-.1-.8-.1-1.3-.1-1.1 0-2 .2-2.8.7-.8.4-1.5 1-2 1.8s-.7 1.6-.7 2.6v13.8l-3.2.1zm-24.7-3.2h5.2c2.4 0 4.4-.5 6-1.4s2.8-2.2 3.5-4 1.2-3.8 1.2-6.1-.4-4.4-1.2-6.1-1.9-3-3.4-3.9c-1.5-.9-3.4-1.4-5.7-1.4h-5.6v22.9zm5.4 3.2h-9V11.4h9.4c2.8 0 5.2.6 7.2 1.8 2 1.2 3.6 2.8 4.6 5 1.1 2.2 1.6 4.7 1.6 7.8s-.5 5.6-1.6 7.8-2.7 3.8-4.7 5c-2 1.1-4.5 1.7-7.5 1.7zm-34.8.4c-2.1 0-3.9-.5-5.4-1.4-1.5-.9-2.7-2.2-3.5-3.9-.8-1.7-1.2-3.6-1.2-5.9s.4-4.2 1.2-5.9c.8-1.7 2-3 3.4-4 1.5-1 3.2-1.5 5.2-1.5 1.1 0 2.3.2 3.4.6s2.1 1 3 1.9c.9.8 1.6 2 2.2 3.4.5 1.4.8 3.1.8 5.1v1.4h-16.8v-2.9h13.4c0-1.2-.2-2.3-.7-3.3-.5-1-1.2-1.7-2.1-2.3-.9-.6-1.9-.8-3.2-.8-1.3 0-2.5.3-3.5 1-1 .6-1.7 1.5-2.2 2.6s-.8 2.2-.8 3.4v1.9c0 1.6.3 3 .8 4.2.6 1.1 1.4 2 2.4 2.6 1 .6 2.2.9 3.6.9.9 0 1.7-.1 2.4-.4.7-.3 1.3-.6 1.9-1.1s.9-1.2 1.2-1.9l3.2.9c-.3 1.1-.9 2.1-1.7 2.9-.8.8-1.8 1.5-3 1.9-1.2.4-2.5.6-4 .6zm-15.3-29.5v29.1h-3.3V11.4h3.3zm-18.9 26.5c1.3 0 2.4-.3 3.3-.8.9-.5 1.6-1.2 2.1-2s.7-1.7.7-2.6v-3.1c-.1.2-.4.3-.9.5-.5.1-1 .2-1.7.4l-1.8.3c-.6.1-1.1.1-1.4.2-.9.1-1.7.3-2.4.5s-1.3.6-1.8 1.1c-.4.5-.7 1.2-.7 2 0 1.2.4 2 1.3 2.6.8.7 1.9.9 3.3.9zm-.6 3.1c-1.4 0-2.6-.3-3.8-.8-1.1-.5-2-1.3-2.7-2.3s-1-2.2-1-3.6c0-1.2.2-2.3.7-3 .5-.8 1.2-1.4 2-1.9s1.7-.8 2.7-1c1-.2 2-.4 3-.5 1.3-.2 2.4-.3 3.2-.4.8-.1 1.4-.2 1.8-.5.4-.2.6-.6.6-1.1v-.1c0-1.4-.4-2.5-1.2-3.3-.8-.8-1.9-1.2-3.4-1.2s-2.9.4-3.8 1c-.9.7-1.6 1.5-1.9 2.2l-3.2-1.1c.6-1.3 1.3-2.4 2.3-3.1 1-.8 2-1.3 3.1-1.6 1.1-.3 2.2-.5 3.3-.5.7 0 1.5.1 2.4.3.9.2 1.8.5 2.7 1s1.6 1.3 2.1 2.3.8 2.4.8 4.1v14.4h-3.3v-3h-.2c-.2.5-.6 1-1.1 1.5s-1.2 1-2.1 1.4-1.7.8-3 .8zm-19.9-.1c-2.1 0-3.8-.5-5.3-1.5s-2.6-2.3-3.4-4c-.8-1.7-1.2-3.6-1.2-5.8s.4-4.2 1.2-5.9c.8-1.7 2-3 3.4-4 1.5-1 3.2-1.5 5.2-1.5 1.5 0 2.9.3 4.2.9s2.2 1.4 3 2.4c.8 1 1.3 2.2 1.5 3.6h-3.3c-.3-1-.8-1.9-1.7-2.6-.9-.8-2.1-1.2-3.5-1.2-1.3 0-2.4.3-3.4 1s-1.7 1.6-2.3 2.9c-.5 1.2-.8 2.7-.8 4.3s.3 3.2.8 4.4c.5 1.2 1.3 2.2 2.3 2.9 1 .7 2.1 1 3.5 1 .9 0 1.7-.2 2.4-.5s1.3-.7 1.8-1.3.8-1.2 1.1-2h3.3c-.2 1.3-.7 2.5-1.4 3.5s-1.7 1.8-2.9 2.4c-1.4.7-2.8 1-4.5 1zm-18-22.3c-.2-1.4-.9-2.6-2.1-3.4-1.2-.8-2.7-1.2-4.5-1.2-1.3 0-2.4.2-3.4.6-1 .4-1.7 1-2.2 1.7-.5.7-.8 1.6-.8 2.5 0 .8.2 1.4.6 2 .4.5.9 1 1.4 1.4.6.4 1.2.7 1.8.9.6.2 1.2.4 1.8.5l2.9.8c.8.2 1.6.5 2.5.8.9.4 1.8.8 2.7 1.4.9.6 1.6 1.4 2.1 2.3s.8 2.1.8 3.5c0 1.6-.4 3-1.2 4.3-.8 1.3-2 2.3-3.6 3-1.6.8-3.5 1.1-5.7 1.1-2.1 0-3.9-.3-5.4-1s-2.7-1.6-3.6-2.8c-.9-1.2-1.3-2.6-1.5-4.2h3.6c.1 1.1.5 2 1.1 2.7.7.7 1.5 1.2 2.5 1.6 1 .3 2.1.5 3.2.5 1.3 0 2.6-.2 3.6-.7 1.1-.5 1.9-1.1 2.5-1.8.6-.8.9-1.7.9-2.8 0-1-.3-1.8-.8-2.4s-1.2-1.1-2.1-1.5-1.8-.7-2.9-1l-3.6-1c-2.3-.6-4.1-1.6-5.4-2.8-1.3-1.2-2-2.8-2-4.8 0-1.6.4-3 1.3-4.3.9-1.2 2.1-2.2 3.6-2.8 1.5-.7 3.2-1 5-1s3.5.3 5 1 2.6 1.6 3.5 2.7 1.3 2.5 1.4 3.9l-3 .3z" class="st6"/></g></svg>