<svg xmlns="http://www.w3.org/2000/svg" viewBox="0 0 694.75 286.64"><defs><style>.cls-1{fill:#171321}.cls-3{fill:#fc6d26}.cls-5{fill:none;stroke:#171321;stroke-miterlimit:10}</style></defs><g id="Layer_2" data-name="Layer 2"><g id="LOGO"><path class="cls-1" d="M280.6 127.21h22.77c-3.79-24.22-24.76-41.09-52.06-41.09-32.29 0-56.51 23.74-56.51 63.51 0 39 23.13 63.26 57.18 63.26 30.55 0 52.42-19.64 52.42-51.45v-14.82h-50.07v17.47h28.44c-.37 17.59-12.11 28.74-30.67 28.74-20.67 0-34.83-15.49-34.83-43.44 0-27.78 14.4-43.2 34.35-43.2 14.88 0 25 7.95 28.98 21.02ZM319.45 211.21h21.81v-92.55h-21.81Zm11-107.21c6.93 0 12.59-5.3 12.59-11.81s-5.66-11.87-12.59-11.87-12.66 5.31-12.66 11.87S323.43 104 330.42 104ZM406.58 118.66h-18.26V96.49h-21.81v22.17h-13.14v16.87h13.14V187c-.12 17.41 12.53 26 28.92 25.48a43.58 43.58 0 0 0 12.83-2.17l-3.67-17.05a27.39 27.39 0 0 1-6.39.84c-5.48 0-9.88-1.92-9.88-10.72v-47.85h18.26ZM423.46 211.21h76.7v-18.74h-54.35V87.81h-22.35ZM541.93 213.07c14.52 0 23.2-6.8 27.17-14.58h.73v12.72h21v-61.94c0-24.47-19.95-31.82-37.6-31.82-19.46 0-34.41 8.68-39.23 25.55l20.37 2.89c2.17-6.32 8.31-11.75 19-11.75 10.12 0 15.66 5.19 15.66 14.28v.36c0 6.27-6.56 6.57-22.89 8.32-18 1.93-35.13 7.29-35.13 28.14-.01 18.19 13.27 27.83 30.92 27.83Zm7.17-16c-9.1 0-15.6-4.16-15.6-12.17 0-8.38 7.29-11.87 17-13.26 5.72-.78 17.17-2.23 20-4.52V178c.05 10.31-8.26 19.05-21.4 19.05ZM606.88 211.21h21.45v-14.58h1.27c3.43 6.74 10.6 16.2 26.51 16.2 21.81 0 38.14-17.29 38.14-47.78 0-30.85-16.81-47.6-38.2-47.6-16.33 0-23.14 9.82-26.45 16.51h-.9V87.81h-21.82Zm21.39-46.28c0-18 7.72-29.58 21.75-29.58 14.53 0 22 12.35 22 29.58s-7.59 30-22 30c-13.91.01-21.75-12.04-21.75-30Z" transform="translate(0 -2.53)"/><path d="m153.63 130.08-.21-.56-21.2-55.31a5.48 5.48 0 0 0-2.22-2.63 5.6 5.6 0 0 0-3.32-.87 5.7 5.7 0 0 0-3.21 1.22 5.57 5.57 0 0 0-1.87 2.86l-14.32 43.8H49.41L35.1 74.79a5.57 5.57 0 0 0-1.87-2.86A5.7 5.7 0 0 0 30 70.71a5.6 5.6 0 0 0-3.32.87 5.48 5.48 0 0 0-2.18 2.63L3.32 129.52l-.21.56a39.36 39.36 0 0 0 13.05 45.49l.08.05.19.14 32.29 24.18 16 12.09 9.72 7.35a6.57 6.57 0 0 0 7.92 0l9.69-7.38 16-12.09 32.48-24.32.08-.06a39.36 39.36 0 0 0 13.02-45.45Z" transform="translate(0 -2.53)" style="fill:#e24329"/><path class="cls-3" d="m153.63 130.08-.21-.56a71.56 71.56 0 0 0-28.5 12.82l-46.55 35.19c15.85 12 29.65 22.41 29.65 22.41l32.48-24.32.08-.06a39.36 39.36 0 0 0 13.05-45.48Z" transform="translate(0 -2.53)"/><path d="m48.72 199.94 16 12.09 9.72 7.35a6.57 6.57 0 0 0 7.92 0l9.69-7.38 16-12.09s-13.8-10.42-29.65-22.41c-15.88 12.02-29.68 22.44-29.68 22.44Z" transform="translate(0 -2.53)" style="fill:#fca326"/><path class="cls-3" d="M31.81 142.34a71.46 71.46 0 0 0-28.49-12.82l-.21.56a39.36 39.36 0 0 0 13.05 45.49l.08.05.19.14 32.29 24.18s13.8-10.42 29.65-22.41Z" transform="translate(0 -2.53)"/><path class="cls-5" d="M.5 230.61v13h155.74v-13M.5 56.18v-13h693.75v13M194.8 230.61v13h499.45v-13M78.37 258.61v-15M444.52 258.61v-15M347.37 42.74v-15"/><path d="M315 7.27h-1.76A3.76 3.76 0 0 0 311.78 5a4.47 4.47 0 0 0-1.22-.6 5 5 0 0 0-1.39-.19 4.43 4.43 0 0 0-2.39.66 4.59 4.59 0 0 0-1.7 2 7.29 7.29 0 0 0-.63 3.19 7.29 7.29 0 0 0 .63 3.19 4.59 4.59 0 0 0 1.7 2 4.43 4.43 0 0 0 2.39.66 4.63 4.63 0 0 0 1.39-.2 4.18 4.18 0 0 0 1.22-.59 3.91 3.91 0 0 0 .93-1 3.85 3.85 0 0 0 .55-1.33H315a6 6 0 0 1-.73 2 5.38 5.38 0 0 1-1.3 1.5 5.66 5.66 0 0 1-1.75.93 6.69 6.69 0 0 1-2.07.32 6 6 0 0 1-3.31-.91 6.18 6.18 0 0 1-2.26-2.63 8.81 8.81 0 0 1-.84-4 8.81 8.81 0 0 1 .84-4 6.18 6.18 0 0 1 2.28-2.58 6 6 0 0 1 3.31-.91 6.41 6.41 0 0 1 2.07.32 5.66 5.66 0 0 1 1.75.93 5.48 5.48 0 0 1 1.3 1.49 6 6 0 0 1 .71 2.02ZM322.06 17.5a4.76 4.76 0 0 1-2.59-.7 4.82 4.82 0 0 1-1.73-2 6.69 6.69 0 0 1-.62-3 6.76 6.76 0 0 1 .62-3 4.78 4.78 0 0 1 1.73-2 4.85 4.85 0 0 1 2.59-.7 4.8 4.8 0 0 1 2.59.7 4.71 4.71 0 0 1 1.73 2 6.63 6.63 0 0 1 .63 3 6.55 6.55 0 0 1-.63 3 4.59 4.59 0 0 1-4.32 2.67Zm0-1.51a2.9 2.9 0 0 0 1.85-.57 3.39 3.39 0 0 0 1.09-1.51 6.09 6.09 0 0 0 0-4.07 3.46 3.46 0 0 0-1.07-1.53 2.84 2.84 0 0 0-1.85-.58 2.82 2.82 0 0 0-1.84.58 3.47 3.47 0 0 0-1.08 1.53 5.89 5.89 0 0 0-.34 2 5.9 5.9 0 0 0 .34 2 3.41 3.41 0 0 0 1.08 1.51 2.87 2.87 0 0 0 1.82.65ZM329.56 17.27V6.36h1.62V8h.12a2.5 2.5 0 0 1 1.08-1.31 3.13 3.13 0 0 1 1.76-.51h.88v1.75l-.39-.07a4.26 4.26 0 0 0-.64-.05 2.94 2.94 0 0 0-1.41.33 2.53 2.53 0 0 0-1 .91 2.47 2.47 0 0 0-.36 1.32v6.9ZM341.24 17.5a5.08 5.08 0 0 1-2.72-.7 4.63 4.63 0 0 1-1.75-2 6.63 6.63 0 0 1-.62-2.94 6.81 6.81 0 0 1 .62-3 4.81 4.81 0 0 1 1.72-2 4.59 4.59 0 0 1 2.58-.72 5.12 5.12 0 0 1 1.68.29 3.9 3.9 0 0 1 1.51.92 4.37 4.37 0 0 1 1.09 1.67 7.19 7.19 0 0 1 .41 2.58v.71h-8.41v-1.37h6.7a3.64 3.64 0 0 0-.36-1.65 2.86 2.86 0 0 0-1-1.14 2.94 2.94 0 0 0-1.58-.42 3 3 0 0 0-1.73.49 3.29 3.29 0 0 0-1.12 1.28 3.78 3.78 0 0 0-.39 1.69v1a4.58 4.58 0 0 0 .43 2.09 3 3 0 0 0 1.2 1.3 3.43 3.43 0 0 0 1.78.44 3.78 3.78 0 0 0 1.2-.18 2.64 2.64 0 0 0 .92-.57 2.73 2.73 0 0 0 .61-1l1.62.45a3.76 3.76 0 0 1-.86 1.45 4.08 4.08 0 0 1-1.5 1 5.43 5.43 0 0 1-2.03.33ZM355.61 2.73v14.54h-1.67V2.73ZM363.11 17.5a4.76 4.76 0 0 1-2.59-.7 4.82 4.82 0 0 1-1.73-2 6.69 6.69 0 0 1-.62-3 6.76 6.76 0 0 1 .62-3 4.78 4.78 0 0 1 1.73-2 4.85 4.85 0 0 1 2.59-.7 4.6 4.6 0 0 1 4.33 2.68 6.76 6.76 0 0 1 .62 3 6.69 6.69 0 0 1-.62 3 4.84 4.84 0 0 1-1.74 2 4.72 4.72 0 0 1-2.59.72Zm0-1.51a2.9 2.9 0 0 0 1.85-.57 3.39 3.39 0 0 0 1.04-1.51 6.09 6.09 0 0 0 0-4.07 3.46 3.46 0 0 0-1-1.53 3.22 3.22 0 0 0-3.69 0 3.47 3.47 0 0 0-1.08 1.53 5.89 5.89 0 0 0-.34 2 5.9 5.9 0 0 0 .34 2 3.41 3.41 0 0 0 1.08 1.51 2.89 2.89 0 0 0 1.8.65ZM375 21.59a6.18 6.18 0 0 1-2.09-.31 4.22 4.22 0 0 1-1.45-.81 4.13 4.13 0 0 1-.92-1.07l1.33-.93c.15.19.35.42.58.68a3.09 3.09 0 0 0 .95.68 3.83 3.83 0 0 0 1.6.28 3.54 3.54 0 0 0 2.18-.64 2.33 2.33 0 0 0 .86-2v-2.21h-.15a8.36 8.36 0 0 1-.52.73 2.83 2.83 0 0 1-1 .77 3.56 3.56 0 0 1-1.7.34 4.6 4.6 0 0 1-2.37-.62 4.43 4.43 0 0 1-1.65-1.82 6.28 6.28 0 0 1-.61-2.9 6.79 6.79 0 0 1 .59-2.92 4.52 4.52 0 0 1 1.64-1.93 4.32 4.32 0 0 1 2.43-.69 3.49 3.49 0 0 1 1.69.35 3.05 3.05 0 0 1 1 .8 8.36 8.36 0 0 1 .52.73h.17V6.36h1.62v11.22a3.88 3.88 0 0 1-.63 2.3 3.79 3.79 0 0 1-1.71 1.3 6.62 6.62 0 0 1-2.36.41Zm-.06-6a3 3 0 0 0 1.7-.47 2.81 2.81 0 0 0 1.06-1.32 5.41 5.41 0 0 0 .37-2.08 5.6 5.6 0 0 0-.36-2.08 3.16 3.16 0 0 0-1.05-1.41 3.16 3.16 0 0 0-3.49 0 3.21 3.21 0 0 0-1.06 1.45 5.58 5.58 0 0 0-.35 2 5.22 5.22 0 0 0 .36 2A2.86 2.86 0 0 0 375 15.6ZM387.23 17.5a4.74 4.74 0 0 1-2.59-.7 4.82 4.82 0 0 1-1.73-2 6.69 6.69 0 0 1-.62-3 6.76 6.76 0 0 1 .62-3 4.92 4.92 0 0 1 6.91-2 4.71 4.71 0 0 1 1.73 2 6.63 6.63 0 0 1 .63 3 6.55 6.55 0 0 1-.63 3 4.59 4.59 0 0 1-4.32 2.67Zm0-1.51a2.9 2.9 0 0 0 1.85-.57 3.39 3.39 0 0 0 1.07-1.51 6.09 6.09 0 0 0 0-4.07 3.46 3.46 0 0 0-1.07-1.53 2.84 2.84 0 0 0-1.85-.58 2.82 2.82 0 0 0-1.84.58 3.47 3.47 0 0 0-1.08 1.53 5.89 5.89 0 0 0-.34 2 5.9 5.9 0 0 0 .34 2 3.41 3.41 0 0 0 1.08 1.51 2.87 2.87 0 0 0 1.84.65ZM33 284.85V270.3h1.76v13h6.76v1.56ZM48.44 285.08a4.63 4.63 0 0 1-4.32-2.67 7.4 7.4 0 0 1 0-5.93 4.77 4.77 0 0 1 8.64 0 7.4 7.4 0 0 1 0 5.93 4.63 4.63 0 0 1-4.32 2.67Zm0-1.51a2.92 2.92 0 0 0 1.85-.57 3.42 3.42 0 0 0 1.07-1.52 5.81 5.81 0 0 0 .35-2 5.91 5.91 0 0 0-.35-2 3.37 3.37 0 0 0-1.07-1.52 3.2 3.2 0 0 0-3.7 0 3.37 3.37 0 0 0-1.07 1.52 5.91 5.91 0 0 0-.35 2 5.81 5.81 0 0 0 .35 2 3.42 3.42 0 0 0 1.07 1.52 2.92 2.92 0 0 0 1.85.57ZM60.34 289.17a6.37 6.37 0 0 1-2.08-.31 4.63 4.63 0 0 1-1.46-.81 4.56 4.56 0 0 1-.92-1.07l1.34-.94q.22.3.57.69a3 3 0 0 0 1 .67 3.62 3.62 0 0 0 1.59.29 3.52 3.52 0 0 0 2.18-.64 2.3 2.3 0 0 0 .86-2v-2.22h-.14a9 9 0 0 1-.52.74 3 3 0 0 1-1 .77 3.52 3.52 0 0 1-1.69.34 4.52 4.52 0 0 1-2.37-.63 4.27 4.27 0 0 1-1.7-1.81 6.28 6.28 0 0 1-.61-2.9 6.79 6.79 0 0 1 .59-2.92 4.55 4.55 0 0 1 1.64-1.94 4.4 4.4 0 0 1 2.43-.68 3.51 3.51 0 0 1 1.69.35 3 3 0 0 1 1 .8c.22.29.4.53.52.72h.17v-1.73h1.62v11.22a3.79 3.79 0 0 1-.64 2.29 3.63 3.63 0 0 1-1.7 1.3 6.46 6.46 0 0 1-2.37.42Zm-.05-6a3 3 0 0 0 1.7-.46 2.83 2.83 0 0 0 1.06-1.33 5.36 5.36 0 0 0 .36-2.07 5.77 5.77 0 0 0-.35-2.08 3.16 3.16 0 0 0-1.06-1.41 3.14 3.14 0 0 0-3.49 0 3.19 3.19 0 0 0-1.06 1.45 5.46 5.46 0 0 0-.35 2 5.23 5.23 0 0 0 .35 2 3 3 0 0 0 1.07 1.36 3 3 0 0 0 1.77.54ZM72.56 285.08a4.63 4.63 0 0 1-4.32-2.67 7.4 7.4 0 0 1 0-5.93 4.77 4.77 0 0 1 8.64 0 7.4 7.4 0 0 1 0 5.93 4.63 4.63 0 0 1-4.32 2.67Zm0-1.51a2.92 2.92 0 0 0 1.85-.57 3.42 3.42 0 0 0 1.07-1.52 5.81 5.81 0 0 0 .35-2 5.91 5.91 0 0 0-.35-2 3.37 3.37 0 0 0-1.07-1.52 3.2 3.2 0 0 0-3.7 0 3.37 3.37 0 0 0-1.07 1.52 5.91 5.91 0 0 0-.35 2 5.81 5.81 0 0 0 .35 2 3.42 3.42 0 0 0 1.07 1.52 2.92 2.92 0 0 0 1.85.57ZM80.06 284.85v-10.91h1.62v1.71h.14a2.76 2.76 0 0 1 1.1-1.36 3.29 3.29 0 0 1 1.83-.49 3.1 3.1 0 0 1 1.8.49 3.16 3.16 0 0 1 1.12 1.36h.12A3.19 3.19 0 0 1 89 274.3a3.89 3.89 0 0 1 2-.5 3.27 3.27 0 0 1 2.4.91 3.84 3.84 0 0 1 .93 2.84v7.3H92.7v-7.3a2.07 2.07 0 0 0-.66-1.73 2.48 2.48 0 0 0-1.55-.52 2.31 2.31 0 0 0-1.79.7 2.49 2.49 0 0 0-.63 1.75v7.1h-1.7v-7.47a2 2 0 0 0-.61-1.5 2.13 2.13 0 0 0-1.55-.58 2.3 2.3 0 0 0-1.22.35 2.62 2.62 0 0 0-.91 1 2.87 2.87 0 0 0-.34 1.42v6.82ZM100.66 285.11a4.47 4.47 0 0 1-1.89-.4 3.17 3.17 0 0 1-1.34-1.14 3.24 3.24 0 0 1-.5-1.82 2.87 2.87 0 0 1 .37-1.52 2.65 2.65 0 0 1 1-.92 5.31 5.31 0 0 1 1.37-.5c.5-.11 1-.2 1.51-.27l1.61-.19a2.52 2.52 0 0 0 .91-.23.61.61 0 0 0 .29-.57v-.06a2.23 2.23 0 0 0-.57-1.63 2.32 2.32 0 0 0-1.73-.58 3 3 0 0 0-1.88.52 3.07 3.07 0 0 0-1 1.12l-1.59-.56a3.8 3.8 0 0 1 1.14-1.56 4.24 4.24 0 0 1 1.64-.8 6.5 6.5 0 0 1 1.67-.22 7 7 0 0 1 1.21.12 4.25 4.25 0 0 1 1.33.51 3 3 0 0 1 1.07 1.16 4.34 4.34 0 0 1 .43 2.07v7.19H104v-1.48h-.09a2.88 2.88 0 0 1-.56.76 3.36 3.36 0 0 1-1.06.69 4.06 4.06 0 0 1-1.63.31Zm.25-1.51a3.37 3.37 0 0 0 1.68-.39 2.73 2.73 0 0 0 1-1 2.61 2.61 0 0 0 .35-1.3v-1.53a1.06 1.06 0 0 1-.47.23 5.11 5.11 0 0 1-.82.17c-.31.05-.61.1-.9.13l-.71.09a6.59 6.59 0 0 0-1.22.28 2.1 2.1 0 0 0-.91.56 1.45 1.45 0 0 0-.34 1 1.51 1.51 0 0 0 .65 1.32 2.89 2.89 0 0 0 1.69.44ZM108.72 284.85v-10.91h1.62v1.65h.12a2.66 2.66 0 0 1 1.08-1.32 3.2 3.2 0 0 1 1.76-.5h.88v1.7l-.39-.06a3.22 3.22 0 0 0-.63-.05 3 3 0 0 0-1.42.33 2.46 2.46 0 0 0-1.34 2.31v6.9ZM116.17 284.85V270.3h1.67v14.55Zm1.56-4v-2.07h.27l4.78-4.86h2.07l-5.09 5.14h-.14Zm5.37 4-4.26-5.4 1.19-1.16 5.2 6.56ZM400.73 284.85l-4-14.55h1.79l3 11.85h.15l3.09-11.85h2l3.1 11.85h.14l3-11.85h1.79l-4 14.55h-1.82l-3.21-11.59h-.11l-3.21 11.59ZM420.25 285.08a4.63 4.63 0 0 1-4.32-2.67 7.4 7.4 0 0 1 0-5.93 4.77 4.77 0 0 1 8.64 0 7.4 7.4 0 0 1 0 5.93 4.63 4.63 0 0 1-4.32 2.67Zm0-1.51a2.92 2.92 0 0 0 1.85-.57 3.42 3.42 0 0 0 1.07-1.52 5.81 5.81 0 0 0 .35-2 5.91 5.91 0 0 0-.35-2 3.37 3.37 0 0 0-1.07-1.52 3.2 3.2 0 0 0-3.7 0 3.37 3.37 0 0 0-1.07 1.52 5.91 5.91 0 0 0-.35 2 5.81 5.81 0 0 0 .35 2 3.42 3.42 0 0 0 1.07 1.52 2.9 2.9 0 0 0 1.85.57ZM427.75 284.85v-10.91h1.62v1.65h.11a2.66 2.66 0 0 1 1.08-1.32 3.23 3.23 0 0 1 1.76-.5h.88v1.7l-.38-.06a3.39 3.39 0 0 0-.64-.05 3 3 0 0 0-1.42.33 2.53 2.53 0 0 0-1 .91 2.44 2.44 0 0 0-.35 1.32v6.9ZM439 285.08a4.21 4.21 0 0 1-2.41-.7 4.6 4.6 0 0 1-1.63-2 7.87 7.87 0 0 1 0-6 4.58 4.58 0 0 1 1.64-1.95 4.32 4.32 0 0 1 2.43-.69 3.51 3.51 0 0 1 1.69.35 3 3 0 0 1 .95.8q.33.44.51.72h.14v-5.31H444v14.55h-1.62v-1.68h-.2c-.12.2-.3.45-.52.75a3.24 3.24 0 0 1-1 .81 3.5 3.5 0 0 1-1.66.35Zm.23-1.51a2.67 2.67 0 0 0 1.7-.53 3.19 3.19 0 0 0 1.06-1.47 6.06 6.06 0 0 0 .36-2.17 6.13 6.13 0 0 0-.35-2.15 3.17 3.17 0 0 0-1.05-1.43 3.11 3.11 0 0 0-3.49 0 3.15 3.15 0 0 0-1.06 1.47 5.71 5.71 0 0 0-.35 2.08 5.91 5.91 0 0 0 .35 2.11 3.41 3.41 0 0 0 1.07 1.5 2.71 2.71 0 0 0 1.73.59ZM447.27 284.85v-10.91h1.61v1.71h.12a2.65 2.65 0 0 1 1.1-1.36 3.24 3.24 0 0 1 1.82-.49 3.1 3.1 0 0 1 1.8.49 3.18 3.18 0 0 1 1.13 1.36h.15a3.15 3.15 0 0 1 1.26-1.35 3.89 3.89 0 0 1 2-.5 3.25 3.25 0 0 1 2.39.91 3.84 3.84 0 0 1 .93 2.84v7.3h-1.67v-7.3a2.07 2.07 0 0 0-.66-1.73 2.48 2.48 0 0 0-1.56-.52 2.29 2.29 0 0 0-1.78.7 2.49 2.49 0 0 0-.63 1.75v7.1h-1.71v-7.47a2 2 0 0 0-.6-1.5 2.14 2.14 0 0 0-1.56-.58 2.27 2.27 0 0 0-1.21.35 2.62 2.62 0 0 0-.91 1 2.87 2.87 0 0 0-.35 1.42v6.82ZM467.86 285.11a4.43 4.43 0 0 1-1.88-.4 3.17 3.17 0 0 1-1.34-1.14 3.24 3.24 0 0 1-.5-1.82 2.78 2.78 0 0 1 .37-1.52 2.58 2.58 0 0 1 1-.92 5.23 5.23 0 0 1 1.36-.5c.5-.11 1-.2 1.51-.27l1.62-.19a2.58 2.58 0 0 0 .91-.23.61.61 0 0 0 .29-.57v-.06a2.24 2.24 0 0 0-.58-1.63 2.3 2.3 0 0 0-1.73-.58 3 3 0 0 0-1.88.52 3.27 3.27 0 0 0-1 1.12l-1.59-.56a4 4 0 0 1 1.14-1.56 4.37 4.37 0 0 1 1.57-.78 6.44 6.44 0 0 1 1.67-.22 7.14 7.14 0 0 1 1.21.12 4.25 4.25 0 0 1 1.33.51 3 3 0 0 1 1.07 1.16 4.34 4.34 0 0 1 .42 2.07v7.19h-1.67v-1.48h-.09a2.73 2.73 0 0 1-.57.76 3.25 3.25 0 0 1-1.06.69 4 4 0 0 1-1.58.29Zm.26-1.51a3.37 3.37 0 0 0 1.68-.39 2.7 2.7 0 0 0 1-1 2.52 2.52 0 0 0 .36-1.3v-1.53a1.12 1.12 0 0 1-.47.23 5.35 5.35 0 0 1-.82.17c-.31.05-.61.1-.91.13l-.7.09a6.41 6.41 0 0 0-1.22.28 2 2 0 0 0-.91.56 1.4 1.4 0 0 0-.34 1 1.49 1.49 0 0 0 .65 1.32 2.89 2.89 0 0 0 1.68.44ZM475.93 284.85v-10.91h1.62v1.65h.11a2.66 2.66 0 0 1 1.08-1.32 3.23 3.23 0 0 1 1.76-.5H481.41v1.7l-.38-.06a3.32 3.32 0 0 0-.64-.05 3 3 0 0 0-1.42.33 2.43 2.43 0 0 0-1.33 2.23v6.9ZM483.37 284.85V270.3h1.68v14.55Zm1.57-4v-2.07h.34l4.77-4.86h2.07l-5.12 5.16h-.14Zm5.36 4-4.26-5.4 1.2-1.16 5.2 6.56Z" transform="translate(0 -2.53)"/></g></g></svg>