<svg xmlns="http://www.w3.org/2000/svg" width="297" height="91" viewBox="0 0 297 91"><g fill="none"><path fill="#8C929D" d="M208.101 21.863h-6.338l.029 47.249h25.674v-5.844H208.13l-.029-41.405zM251.9 60.822a10.817 10.817 0 0 1-7.85 3.315c-4.828 0-6.776-2.384-6.776-5.496 0-4.68 3.257-6.92 10.177-6.92 1.5.006 2.996.123 4.478.35v8.751h-.03zm-6.571-28.64a20.991 20.991 0 0 0-13.492 4.856l2.239 3.896c2.588-1.512 5.757-3.024 10.322-3.024 5.205 0 7.502 2.675 7.502 7.153v2.297a28.908 28.908 0 0 0-4.39-.35c-11.108 0-16.749 3.897-16.749 12.039 0 7.298 4.478 10.961 11.253 10.961 4.565 0 8.955-2.093 10.467-5.495l1.163 4.623h4.478V44.946c-.029-7.647-3.344-12.764-12.793-12.764zM278.574 64.352c-2.384 0-4.477-.29-6.048-1.018V41.498c2.152-1.803 4.827-3.112 8.229-3.112 6.135 0 8.49 4.333 8.49 11.34 0 9.945-3.809 14.626-10.67 14.626m2.674-32.159a11.61 11.61 0 0 0-8.723 3.867v-6.112l-.029-8.083h-6.193l.029 46.087c3.111 1.308 7.356 2.006 11.98 2.006 11.834 0 17.533-7.56 17.533-20.615-.03-10.323-5.292-17.156-14.597-17.156M139.085 26.989c5.611 0 9.246 1.86 11.601 3.75L153.42 26C149.727 22.744 144.725 21 139.375 21c-13.491 0-22.941 8.229-22.941 24.831 0 17.388 10.206 24.163 21.866 24.163a37.159 37.159 0 0 0 14.073-2.733l-.146-18.58v-5.844h-17.312v5.844h11.05l.145 14.102c-1.454.727-3.955 1.309-7.357 1.309-9.363 0-15.643-5.903-15.643-18.319-.03-12.648 6.455-18.783 15.963-18.783M183.726 21.856h-6.193l.029 7.938v27.42c0 7.647 3.315 12.764 12.764 12.764a20.4 20.4 0 0 0 3.81-.349v-5.553c-.953.144-1.916.212-2.88.203-5.204 0-7.5-2.675-7.5-7.153v-18.9h10.38v-5.175h-10.372l-.03-11.195h-.008zM161.782 69.112h6.194V33.057h-6.194zM161.782 28.085h6.194v-6.193h-6.194z"/><path fill="#FC6D26" d="M97.988 51.992l-5.498-16.9L81.61 1.574a1.881 1.881 0 0 0-3.568 0l-10.875 33.5H31.013l-10.88-33.5a1.881 1.881 0 0 0-3.568 0l-10.86 33.5L.204 51.991a3.748 3.748 0 0 0 1.355 4.184l47.528 34.543 47.529-34.543a3.75 3.75 0 0 0 1.372-4.184"/><path fill="#E24329" d="M49.099 90.687l18.068-55.618H31.025z"/><path fill="#FC6D26" d="M49.088 90.69L31.014 35.069H5.717z"/><path fill="#FCA326" d="M5.696 35.09L.195 51.99a3.748 3.748 0 0 0 1.355 4.183L49.078 90.72 5.696 35.09z"/><path fill="#E24329" d="M5.702 35.089h25.329l-10.9-33.5a1.881 1.881 0 0 0-3.569 0l-10.86 33.5z"/><path fill="#FC6D26" d="M49.099 90.69l18.068-55.621h25.326z"/><path fill="#FCA326" d="M92.484 35.09l5.504 16.9a3.748 3.748 0 0 1-1.354 4.183L49.102 90.687 92.484 35.09z"/><path fill="#E24329" d="M92.499 35.089H67.167l10.88-33.5a1.881 1.881 0 0 1 3.568 0l10.88 33.5h.004z"/></g></svg>