<svg xmlns="http://www.w3.org/2000/svg" viewBox="0 0 693.75 150"><defs><style>.cls-1{fill:#171321}.cls-3{fill:#fc6d26}</style></defs><g id="Layer_2" data-name="Layer 2"><g id="LOGO"><path class="cls-1" d="M280.1 56.51h22.77c-3.79-24.22-24.76-41.09-52.06-41.09-32.29 0-56.51 23.74-56.51 63.5 0 39.05 23.13 63.27 57.18 63.27 30.55 0 52.42-19.65 52.42-51.46V75.91h-50.07v17.47h28.44c-.37 17.6-12.11 28.74-30.67 28.74-20.67 0-34.83-15.48-34.83-43.44 0-27.78 14.4-43.2 34.35-43.2 14.88 0 25 7.95 28.98 21.03ZM319 140.5h21.81V48H319Zm11-107.2c6.93 0 12.59-5.31 12.59-11.81s-5.74-11.87-12.67-11.87-12.66 5.3-12.66 11.87 5.67 11.81 12.66 11.81ZM406.08 48h-18.26V25.78H366V48h-13.13v16.82H366v51.46c-.12 17.41 12.53 26 28.92 25.49a44.27 44.27 0 0 0 12.83-2.17l-3.67-17.06a26.75 26.75 0 0 1-6.39.85c-5.48 0-9.88-1.93-9.88-10.73V64.82h18.26ZM423 140.5h76.7v-18.74h-54.39V17.1H423ZM541.43 142.37c14.52 0 23.2-6.81 27.17-14.58h.73v12.71h21V78.56c0-24.46-19.95-31.81-37.6-31.81-19.46 0-34.41 8.67-39.23 25.54l20.37 2.9c2.17-6.33 8.31-11.75 19-11.75 10.12 0 15.66 5.18 15.66 14.28v.36c0 6.26-6.56 6.57-22.89 8.31-18 1.93-35.13 7.29-35.13 28.14-.05 18.2 13.27 27.84 30.92 27.84Zm7.17-16c-9.1 0-15.6-4.16-15.6-12.17 0-8.38 7.29-11.87 17-13.26 5.72-.78 17.17-2.23 20-4.51v10.9c.05 10.27-8.26 19.01-21.4 19.01ZM606.38 140.5h21.45v-14.58h1.27c3.43 6.75 10.6 16.21 26.51 16.21 21.81 0 38.14-17.3 38.14-47.78 0-30.85-16.81-47.6-38.2-47.6-16.33 0-23.14 9.82-26.45 16.51h-.9V17.1h-21.82Zm21.39-46.27c0-18 7.72-29.59 21.75-29.59 14.53 0 22 12.35 22 29.59s-7.59 30-22 30c-13.91 0-21.75-12.05-21.75-30Z"/><path d="m153.13 59.37-.21-.56-21.2-55.3a5.39 5.39 0 0 0-2.18-2.63 5.53 5.53 0 0 0-3.32-.88A5.63 5.63 0 0 0 123 1.23a5.55 5.55 0 0 0-1.87 2.85l-14.31 43.81H48.91L34.6 4.08a5.55 5.55 0 0 0-1.87-2.85A5.63 5.63 0 0 0 29.52 0a5.53 5.53 0 0 0-3.32.88A5.39 5.39 0 0 0 24 3.51L2.82 58.82l-.21.55a39.36 39.36 0 0 0 13.05 45.49l.08.06.19.14 32.29 24.17 16 12.09 9.72 7.35a6.57 6.57 0 0 0 7.92 0l9.72-7.35 16-12.09L140 104.92l.08-.07a39.36 39.36 0 0 0 13.05-45.48Z" style="fill:#e24329"/><path class="cls-3" d="m153.13 59.37-.21-.56a71.56 71.56 0 0 0-28.5 12.82l-46.55 35.2 29.65 22.4L140 104.92l.08-.07a39.36 39.36 0 0 0 13.05-45.48Z"/><path d="m48.22 129.23 16 12.09 9.72 7.35a6.57 6.57 0 0 0 7.92 0l9.72-7.35 16-12.09-29.65-22.4Z" style="fill:#fca326"/><path class="cls-3" d="M31.31 71.63A71.44 71.44 0 0 0 2.82 58.82l-.21.55a39.36 39.36 0 0 0 13.05 45.49l.08.06.19.14 32.29 24.17 29.65-22.4Z"/></g></g></svg>