<?xml version="1.0" encoding="utf-8"?>
<!-- Generator: Adobe Illustrator 26.5.0, SVG Export Plug-In . SVG Version: 6.00 Build 0)  -->
<svg version="1.1" id="Layer_1" xmlns="http://www.w3.org/2000/svg" xmlns:xlink="http://www.w3.org/1999/xlink" x="0px" y="0px"
	 viewBox="0 0 1248.4 442.8" style="enable-background:new 0 0 1248.4 442.8;" xml:space="preserve">
<style type="text/css">
	.st0{fill:#EBEBEB;}
	.st1{fill:#171321;}
	.st2{fill:none;stroke:#171321;stroke-width:2;stroke-miterlimit:10;}
</style>
<path class="st0" d="M858.3,433.7H32.9c-12.5,0-22.7-10.2-22.7-22.7V88.4c0-12.5,10.2-22.7,22.7-22.7h825.4
	c12.5,0,22.7,10.2,22.7,22.7v322.7C881,423.6,870.9,433.7,858.3,433.7z"/>
<path d="M143.9,22.5c-1.1,0-2-0.2-2.7-0.7c-0.8-0.5-1.3-1.1-1.8-2c-0.4-0.8-0.6-1.8-0.6-2.9s0.2-2.1,0.6-3c0.4-0.9,1-1.5,1.7-2
	c0.7-0.5,1.6-0.7,2.6-0.7c0.6,0,1.1,0.1,1.7,0.3s1.1,0.5,1.5,0.9c0.5,0.4,0.8,1,1.1,1.7c0.3,0.7,0.4,1.6,0.4,2.6v0.7H140V16h6.7
	c0-0.6-0.1-1.2-0.4-1.6c-0.2-0.5-0.6-0.9-1-1.1c-0.4-0.3-1-0.4-1.6-0.4c-0.7,0-1.2,0.2-1.7,0.5c-0.5,0.3-0.9,0.8-1.1,1.3
	c-0.3,0.5-0.4,1.1-0.4,1.7v1c0,0.8,0.1,1.5,0.4,2.1c0.3,0.6,0.7,1,1.2,1.3c0.5,0.3,1.1,0.4,1.8,0.4c0.4,0,0.8-0.1,1.2-0.2
	c0.4-0.1,0.7-0.3,0.9-0.6c0.3-0.3,0.5-0.6,0.6-1l1.6,0.5c-0.2,0.5-0.5,1-0.9,1.4c-0.4,0.4-0.9,0.7-1.5,1
	C145.3,22.4,144.6,22.5,143.9,22.5z M136.2,7.8v14.5h-1.7V7.8H136.2z M124,16.9c0,0.8,0.1,1.6,0.4,2.2c0.2,0.6,0.6,1.1,1.1,1.5
	c0.5,0.4,1,0.5,1.7,0.5c0.7,0,1.3-0.2,1.8-0.6c0.5-0.4,0.8-0.9,1.1-1.5c0.2-0.6,0.4-1.3,0.4-2.1c0-0.8-0.1-1.5-0.4-2.1
	c-0.2-0.6-0.6-1.1-1.1-1.5c-0.5-0.4-1.1-0.5-1.8-0.5c-0.7,0-1.3,0.2-1.7,0.5c-0.5,0.3-0.8,0.8-1.1,1.4C124.1,15.3,124,16,124,16.9z
	 M122.4,26.4v-15h1.6v1.7h0.2c0.1-0.2,0.3-0.4,0.5-0.7c0.2-0.3,0.5-0.6,1-0.8c0.4-0.2,1-0.4,1.7-0.4c0.9,0,1.7,0.2,2.4,0.7
	c0.7,0.5,1.2,1.1,1.6,2c0.4,0.8,0.6,1.8,0.6,3c0,1.2-0.2,2.2-0.6,3c-0.4,0.8-0.9,1.5-1.6,2c-0.7,0.5-1.5,0.7-2.4,0.7
	c-0.7,0-1.3-0.1-1.7-0.3c-0.4-0.2-0.7-0.5-1-0.8c-0.2-0.3-0.4-0.6-0.5-0.8h-0.1v5.8H122.4z M105,22.3V11.4h1.6v1.7h0.1
	c0.2-0.6,0.6-1,1.1-1.4c0.5-0.3,1.1-0.5,1.8-0.5c0.7,0,1.3,0.2,1.8,0.5c0.5,0.3,0.9,0.8,1.1,1.4h0.1c0.3-0.6,0.7-1,1.3-1.3
	c0.6-0.3,1.2-0.5,2-0.5c1,0,1.8,0.3,2.4,0.9c0.6,0.6,0.9,1.6,0.9,2.8v7.3h-1.7V15c0-0.8-0.2-1.4-0.7-1.7s-1-0.5-1.6-0.5
	c-0.8,0-1.4,0.2-1.8,0.7c-0.4,0.5-0.6,1-0.6,1.7v7.1h-1.7v-7.5c0-0.6-0.2-1.1-0.6-1.5c-0.4-0.4-0.9-0.6-1.6-0.6
	c-0.4,0-0.8,0.1-1.2,0.3c-0.4,0.2-0.7,0.6-0.9,1c-0.2,0.4-0.3,0.9-0.3,1.4v6.8H105z M97.2,21.1c0.7,0,1.2-0.1,1.7-0.4
	c0.5-0.3,0.8-0.6,1-1c0.2-0.4,0.4-0.8,0.4-1.3v-1.5c-0.1,0.1-0.2,0.2-0.5,0.2c-0.2,0.1-0.5,0.1-0.8,0.2c-0.3,0-0.6,0.1-0.9,0.1
	c-0.3,0-0.5,0.1-0.7,0.1c-0.4,0.1-0.8,0.1-1.2,0.3c-0.4,0.1-0.7,0.3-0.9,0.6c-0.2,0.2-0.3,0.6-0.3,1c0,0.6,0.2,1,0.6,1.3
	C96,20.9,96.5,21.1,97.2,21.1z M96.9,22.6c-0.7,0-1.3-0.1-1.9-0.4c-0.6-0.3-1-0.6-1.3-1.1c-0.3-0.5-0.5-1.1-0.5-1.8
	c0-0.6,0.1-1.1,0.4-1.5c0.2-0.4,0.6-0.7,1-0.9s0.9-0.4,1.4-0.5c0.5-0.1,1-0.2,1.5-0.3c0.7-0.1,1.2-0.1,1.6-0.2
	c0.4,0,0.7-0.1,0.9-0.2c0.2-0.1,0.3-0.3,0.3-0.6v-0.1c0-0.7-0.2-1.2-0.6-1.6c-0.4-0.4-1-0.6-1.7-0.6c-0.8,0-1.4,0.2-1.9,0.5
	c-0.5,0.4-0.8,0.7-1,1.1l-1.6-0.6c0.3-0.7,0.7-1.2,1.1-1.5c0.5-0.4,1-0.6,1.6-0.8c0.6-0.2,1.1-0.2,1.7-0.2c0.4,0,0.8,0,1.2,0.1
	c0.5,0.1,0.9,0.2,1.3,0.5c0.4,0.3,0.8,0.6,1.1,1.2s0.4,1.2,0.4,2.1v7.2h-1.7v-1.5h-0.1c-0.1,0.2-0.3,0.5-0.6,0.8
	c-0.3,0.3-0.6,0.5-1.1,0.7C98.1,22.5,97.6,22.6,96.9,22.6z M89.2,11.4c-0.1-0.7-0.4-1.3-1-1.7c-0.6-0.4-1.3-0.6-2.2-0.6
	c-0.6,0-1.2,0.1-1.7,0.3c-0.5,0.2-0.9,0.5-1.1,0.9c-0.3,0.4-0.4,0.8-0.4,1.2c0,0.4,0.1,0.7,0.3,1c0.2,0.3,0.4,0.5,0.7,0.7
	c0.3,0.2,0.6,0.3,0.9,0.4c0.3,0.1,0.6,0.2,0.9,0.3l1.5,0.4c0.4,0.1,0.8,0.2,1.3,0.4c0.5,0.2,0.9,0.4,1.3,0.7
	c0.4,0.3,0.8,0.7,1.1,1.2c0.3,0.5,0.4,1,0.4,1.7c0,0.8-0.2,1.5-0.6,2.1c-0.4,0.6-1,1.1-1.8,1.5c-0.8,0.4-1.7,0.6-2.8,0.6
	c-1,0-1.9-0.2-2.7-0.5c-0.8-0.3-1.4-0.8-1.8-1.4c-0.4-0.6-0.7-1.3-0.7-2.1h1.8c0,0.5,0.2,1,0.6,1.4c0.3,0.4,0.7,0.6,1.2,0.8
	c0.5,0.2,1,0.3,1.6,0.3c0.7,0,1.3-0.1,1.8-0.3c0.5-0.2,1-0.5,1.3-0.9c0.3-0.4,0.5-0.9,0.5-1.4c0-0.5-0.1-0.9-0.4-1.2
	s-0.6-0.5-1.1-0.7c-0.4-0.2-0.9-0.4-1.4-0.5l-1.8-0.5c-1.1-0.3-2-0.8-2.7-1.4c-0.7-0.6-1-1.4-1-2.4c0-0.8,0.2-1.5,0.7-2.1
	c0.4-0.6,1-1.1,1.8-1.4c0.8-0.3,1.6-0.5,2.5-0.5c0.9,0,1.8,0.2,2.5,0.5c0.7,0.3,1.3,0.8,1.7,1.4c0.4,0.6,0.7,1.2,0.7,2H89.2z
	 M65.3,15.7v6.6h-1.7V11.4h1.6v1.7h0.1c0.3-0.6,0.6-1,1.2-1.3c0.5-0.3,1.2-0.5,2-0.5c0.7,0,1.4,0.2,1.9,0.5c0.6,0.3,1,0.8,1.3,1.4
	c0.3,0.6,0.5,1.4,0.5,2.3v6.9h-1.7v-6.8c0-0.9-0.2-1.5-0.7-2c-0.4-0.5-1.1-0.7-1.8-0.7c-0.5,0-1,0.1-1.4,0.3c-0.4,0.2-0.7,0.6-1,1
	S65.3,15.1,65.3,15.7z M56.1,21c0.7,0,1.4-0.2,1.8-0.6s0.8-0.9,1.1-1.5s0.3-1.3,0.3-2c0-0.7-0.1-1.4-0.3-2c-0.2-0.6-0.6-1.1-1.1-1.5
	s-1.1-0.6-1.8-0.6s-1.4,0.2-1.8,0.6s-0.8,0.9-1.1,1.5c-0.2,0.6-0.3,1.3-0.3,2c0,0.7,0.1,1.4,0.3,2s0.6,1.1,1.1,1.5S55.4,21,56.1,21z
	 M56.1,22.5c-1,0-1.8-0.2-2.6-0.7c-0.7-0.5-1.3-1.1-1.7-2c-0.4-0.8-0.6-1.8-0.6-3c0-1.1,0.2-2.1,0.6-3c0.4-0.8,1-1.5,1.7-2
	c0.7-0.5,1.6-0.7,2.6-0.7c1,0,1.8,0.2,2.6,0.7c0.7,0.5,1.3,1.1,1.7,2c0.4,0.8,0.6,1.8,0.6,3c0,1.1-0.2,2.1-0.6,3
	c-0.4,0.8-1,1.5-1.7,2C58,22.3,57.1,22.5,56.1,22.5z M47.8,9.6c-0.3,0-0.6-0.1-0.8-0.3c-0.2-0.2-0.3-0.5-0.3-0.8s0.1-0.6,0.3-0.8
	c0.2-0.2,0.5-0.3,0.8-0.3s0.6,0.1,0.8,0.3C48.9,7.9,49,8.1,49,8.4S48.9,9,48.7,9.2C48.4,9.5,48.1,9.6,47.8,9.6z M47,22.3V11.4h1.7
	v10.9H47z M40.4,8.8h1.7v10.4c0,0.5,0.1,0.8,0.2,1.1c0.1,0.2,0.3,0.4,0.5,0.5c0.2,0.1,0.5,0.1,0.7,0.1c0.2,0,0.3,0,0.5,0
	c0.1,0,0.2,0,0.3-0.1l0.3,1.5c-0.1,0-0.3,0.1-0.5,0.1c-0.2,0-0.5,0.1-0.8,0.1c-0.5,0-0.9-0.1-1.4-0.3c-0.4-0.2-0.8-0.5-1.1-0.9
	c-0.3-0.4-0.4-0.9-0.4-1.6V8.8z M44.4,11.4v1.4h-5.7v-1.4H44.4z M32.2,21c0.7,0,1.4-0.2,1.8-0.6s0.8-0.9,1.1-1.5s0.3-1.3,0.3-2
	c0-0.7-0.1-1.4-0.3-2c-0.2-0.6-0.6-1.1-1.1-1.5s-1.1-0.6-1.8-0.6s-1.4,0.2-1.8,0.6s-0.8,0.9-1.1,1.5c-0.2,0.6-0.3,1.3-0.3,2
	c0,0.7,0.1,1.4,0.3,2s0.6,1.1,1.1,1.5S31.5,21,32.2,21z M32.2,22.5c-1,0-1.8-0.2-2.6-0.7c-0.7-0.5-1.3-1.1-1.7-2
	c-0.4-0.8-0.6-1.8-0.6-3c0-1.1,0.2-2.1,0.6-3c0.4-0.8,1-1.5,1.7-2c0.7-0.5,1.6-0.7,2.6-0.7c1,0,1.8,0.2,2.6,0.7
	c0.7,0.5,1.3,1.1,1.7,2c0.4,0.8,0.6,1.8,0.6,3c0,1.1-0.2,2.1-0.6,3c-0.4,0.8-1,1.5-1.7,2C34,22.3,33.2,22.5,32.2,22.5z M10.2,7.8
	h2.1l4.9,12.1h0.2l4.9-12.1h2.1v14.5h-1.6V11.3h-0.1l-4.5,11.1h-1.6L12,11.3h-0.1v11.1h-1.6V7.8z"/>
<path class="st1" d="M1182.5,121.3c-0.3,0-0.5-0.1-0.7-0.3s-0.3-0.4-0.3-0.7s0.1-0.5,0.3-0.7c0.2-0.2,0.4-0.3,0.7-0.3
	c0.3,0,0.5,0.1,0.7,0.3c0.2,0.2,0.3,0.4,0.3,0.7c0,0.2,0,0.3-0.1,0.5c-0.1,0.1-0.2,0.3-0.3,0.4
	C1182.9,121.2,1182.7,121.3,1182.5,121.3z M1183.3,125.8l-0.1,0.6c-0.1,0.4-0.2,0.8-0.3,1.3c-0.1,0.5-0.2,0.9-0.4,1.3
	c-0.1,0.4-0.2,0.7-0.3,1h-1c0-0.2,0.1-0.5,0.2-0.9c0.1-0.4,0.1-0.8,0.2-1.3c0.1-0.5,0.1-0.9,0.2-1.4l0.1-0.6H1183.3z M1179.4,120.9
	l-1.1,0.3c-0.1-0.2-0.2-0.4-0.3-0.5c-0.1-0.2-0.3-0.3-0.6-0.4s-0.5-0.2-0.9-0.2c-0.5,0-0.9,0.1-1.3,0.3c-0.3,0.2-0.5,0.5-0.5,0.9
	c0,0.3,0.1,0.6,0.3,0.7s0.6,0.3,1.1,0.5l1.2,0.3c0.7,0.2,1.3,0.4,1.6,0.8c0.4,0.4,0.5,0.8,0.5,1.4c0,0.5-0.1,0.9-0.4,1.3
	c-0.3,0.4-0.6,0.7-1.1,0.9c-0.5,0.2-1,0.3-1.7,0.3c-0.8,0-1.5-0.2-2.1-0.5c-0.5-0.4-0.9-0.9-1-1.6l1.2-0.3c0.1,0.4,0.3,0.8,0.6,1
	c0.3,0.2,0.7,0.3,1.3,0.3c0.6,0,1.1-0.1,1.4-0.4c0.3-0.3,0.5-0.6,0.5-0.9c0-0.3-0.1-0.5-0.3-0.7c-0.2-0.2-0.5-0.3-0.9-0.4l-1.4-0.3
	c-0.7-0.2-1.3-0.5-1.7-0.8c-0.3-0.4-0.5-0.8-0.5-1.4c0-0.5,0.1-0.9,0.4-1.2c0.3-0.4,0.6-0.6,1.1-0.8c0.5-0.2,1-0.3,1.5-0.3
	c0.8,0,1.4,0.2,1.9,0.5C1178.9,119.9,1179.2,120.3,1179.4,120.9z M1167.9,127.4c-0.6,0-1.2-0.1-1.7-0.4c-0.5-0.2-0.9-0.6-1.2-1
	c-0.3-0.4-0.5-0.9-0.5-1.5h1.3c0,0.5,0.3,0.9,0.7,1.2c0.4,0.3,0.9,0.5,1.4,0.5c0.4,0,0.8-0.1,1.2-0.3c0.4-0.2,0.6-0.5,0.8-0.9
	c0.2-0.4,0.3-0.8,0.3-1.3c0-0.5-0.1-0.9-0.3-1.3c-0.2-0.4-0.5-0.7-0.9-0.9c-0.4-0.2-0.8-0.3-1.2-0.3c-0.3,0-0.7,0-1,0.2
	c-0.4,0.1-0.6,0.2-0.9,0.4l-1.2-0.1l0.7-5.4h5.7v1.2h-4.6l-0.4,3.2h0.1c0.2-0.2,0.5-0.3,0.8-0.4c0.3-0.1,0.7-0.2,1.1-0.2
	c0.7,0,1.3,0.2,1.8,0.5c0.5,0.3,0.9,0.7,1.2,1.3c0.3,0.6,0.5,1.2,0.5,1.9c0,0.7-0.2,1.3-0.5,1.9c-0.3,0.5-0.7,1-1.3,1.3
	C1169.2,127.2,1168.5,127.4,1167.9,127.4z M1158.7,126.2c0.4,0,0.8-0.1,1.2-0.3c0.4-0.2,0.6-0.5,0.8-0.9c0.2-0.4,0.3-0.8,0.3-1.3
	c0-0.5-0.1-0.9-0.3-1.2c-0.2-0.4-0.5-0.7-0.8-0.9c-0.3-0.2-0.7-0.3-1.2-0.3c-0.3,0-0.7,0.1-0.9,0.2c-0.3,0.1-0.5,0.3-0.8,0.5
	c-0.2,0.2-0.4,0.5-0.5,0.8c-0.1,0.3-0.2,0.6-0.2,0.9c0,0.4,0.1,0.8,0.3,1.2c0.2,0.4,0.5,0.7,0.8,0.9
	C1157.8,126.1,1158.2,126.2,1158.7,126.2z M1158.7,127.4c-0.4,0-0.9-0.1-1.3-0.3c-0.4-0.2-0.9-0.4-1.2-0.8c-0.4-0.4-0.7-0.9-0.9-1.6
	c-0.2-0.7-0.3-1.5-0.3-2.5c0-1,0.1-1.8,0.3-2.6c0.2-0.7,0.4-1.4,0.8-1.9c0.3-0.5,0.8-0.9,1.2-1.2c0.5-0.3,1-0.4,1.7-0.4
	c0.6,0,1.2,0.1,1.6,0.4c0.5,0.2,0.9,0.6,1.2,1c0.3,0.4,0.5,0.9,0.6,1.5h-1.3c-0.1-0.5-0.4-0.9-0.7-1.2c-0.3-0.3-0.8-0.5-1.4-0.5
	c-0.8,0-1.5,0.4-2,1.1c-0.5,0.7-0.7,1.8-0.7,3.1h0.1c0.2-0.3,0.4-0.6,0.7-0.8c0.3-0.2,0.6-0.4,0.9-0.5c0.3-0.1,0.7-0.2,1.1-0.2
	c0.6,0,1.2,0.2,1.7,0.5c0.5,0.3,0.9,0.7,1.2,1.3c0.3,0.5,0.5,1.2,0.5,1.9c0,0.7-0.2,1.3-0.5,1.9c-0.3,0.6-0.7,1-1.3,1.3
	C1160.1,127.3,1159.4,127.4,1158.7,127.4z M1151.9,127.3c-0.3,0-0.5-0.1-0.7-0.3s-0.3-0.4-0.3-0.7c0-0.3,0.1-0.5,0.3-0.7
	s0.4-0.3,0.7-0.3s0.5,0.1,0.7,0.3c0.2,0.2,0.3,0.4,0.3,0.7c0,0.2,0,0.3-0.1,0.5c-0.1,0.1-0.2,0.3-0.3,0.4
	C1152.2,127.3,1152.1,127.3,1151.9,127.3z M1145.5,126.2c0.8,0,1.4-0.4,1.9-1.2c0.4-0.8,0.7-1.9,0.7-3.3c0-0.9-0.1-1.7-0.3-2.4
	c-0.2-0.7-0.5-1.2-0.9-1.5c-0.4-0.3-0.8-0.5-1.3-0.5c-0.8,0-1.4,0.4-1.8,1.2c-0.4,0.8-0.7,1.9-0.7,3.3c0,0.9,0.1,1.7,0.3,2.4
	s0.5,1.2,0.9,1.5C1144.5,126.1,1145,126.2,1145.5,126.2z M1145.5,127.4c-0.8,0-1.5-0.2-2.1-0.7c-0.6-0.4-1-1.1-1.3-1.9
	c-0.3-0.8-0.4-1.9-0.4-3c0-1.2,0.1-2.2,0.4-3c0.3-0.8,0.7-1.5,1.3-1.9c0.6-0.4,1.2-0.7,2-0.7s1.5,0.2,2,0.7c0.6,0.4,1,1.1,1.3,1.9
	c0.3,0.8,0.5,1.8,0.5,3c0,1.2-0.1,2.2-0.4,3c-0.3,0.8-0.7,1.5-1.3,1.9C1147,127.2,1146.3,127.4,1145.5,127.4z M1134.5,121.3
	c-0.3,0-0.5-0.1-0.7-0.3s-0.3-0.4-0.3-0.7s0.1-0.5,0.3-0.7c0.2-0.2,0.4-0.3,0.7-0.3s0.5,0.1,0.7,0.3c0.2,0.2,0.3,0.4,0.3,0.7
	c0,0.2,0,0.3-0.1,0.5c-0.1,0.1-0.2,0.3-0.3,0.4C1134.9,121.2,1134.7,121.3,1134.5,121.3z M1134.5,127.3c-0.3,0-0.5-0.1-0.7-0.3
	s-0.3-0.4-0.3-0.7c0-0.3,0.1-0.5,0.3-0.7s0.4-0.3,0.7-0.3s0.5,0.1,0.7,0.3c0.2,0.2,0.3,0.4,0.3,0.7c0,0.2,0,0.3-0.1,0.5
	c-0.1,0.1-0.2,0.3-0.3,0.4C1134.9,127.3,1134.7,127.3,1134.5,127.3z M1126.1,122.3v4.9h-1.3v-8.2h1.2v1.3h0.1c0.2-0.4,0.5-0.7,0.9-1
	c0.4-0.3,0.9-0.4,1.5-0.4c0.6,0,1,0.1,1.5,0.3c0.4,0.2,0.7,0.6,1,1c0.2,0.5,0.3,1,0.3,1.7v5.2h-1.3v-5.1c0-0.6-0.2-1.1-0.5-1.5
	c-0.3-0.4-0.8-0.5-1.4-0.5c-0.4,0-0.8,0.1-1.1,0.3c-0.3,0.2-0.6,0.4-0.7,0.8C1126.2,121.5,1126.1,121.9,1126.1,122.3z M1119.2,126.3
	c0.6,0,1-0.1,1.4-0.4c0.4-0.3,0.6-0.7,0.8-1.1s0.3-1,0.3-1.5s-0.1-1.1-0.3-1.5c-0.2-0.5-0.4-0.9-0.8-1.1c-0.4-0.3-0.8-0.4-1.4-0.4
	c-0.6,0-1,0.1-1.4,0.4c-0.4,0.3-0.6,0.7-0.8,1.1c-0.2,0.5-0.3,1-0.3,1.5s0.1,1.1,0.3,1.5s0.4,0.8,0.8,1.1
	C1118.2,126.2,1118.7,126.3,1119.2,126.3z M1119.2,127.4c-0.7,0-1.4-0.2-1.9-0.5c-0.6-0.4-1-0.8-1.3-1.5c-0.3-0.6-0.5-1.4-0.5-2.2
	c0-0.9,0.2-1.6,0.5-2.2c0.3-0.6,0.7-1.1,1.3-1.5c0.6-0.4,1.2-0.5,1.9-0.5c0.7,0,1.4,0.2,1.9,0.5c0.6,0.4,1,0.8,1.3,1.5
	c0.3,0.6,0.5,1.4,0.5,2.2c0,0.8-0.2,1.6-0.5,2.2c-0.3,0.6-0.7,1.1-1.3,1.5C1120.6,127.3,1120,127.4,1119.2,127.4z M1113,117.7
	c-0.2,0-0.5-0.1-0.6-0.3c-0.2-0.2-0.3-0.4-0.3-0.6s0.1-0.4,0.3-0.6c0.2-0.2,0.4-0.3,0.6-0.3c0.2,0,0.5,0.1,0.6,0.3
	c0.2,0.2,0.3,0.4,0.3,0.6s-0.1,0.4-0.3,0.6C1113.4,117.6,1113.2,117.7,1113,117.7z M1112.3,127.3v-8.2h1.3v8.2H1112.3z
	 M1107.4,117.1h1.3v7.8c0,0.4,0.1,0.6,0.2,0.8c0.1,0.2,0.2,0.3,0.4,0.4c0.2,0.1,0.3,0.1,0.5,0.1c0.1,0,0.3,0,0.3,0
	c0.1,0,0.2,0,0.2,0l0.3,1.1c-0.1,0-0.2,0.1-0.4,0.1c-0.2,0-0.3,0.1-0.6,0.1c-0.4,0-0.7-0.1-1-0.2c-0.3-0.2-0.6-0.4-0.8-0.7
	c-0.2-0.3-0.3-0.7-0.3-1.2V117.1z M1110.5,119.1v1.1h-4.2v-1.1H1110.5z M1104,117.7c-0.2,0-0.5-0.1-0.6-0.3
	c-0.2-0.2-0.3-0.4-0.3-0.6s0.1-0.4,0.3-0.6c0.2-0.2,0.4-0.3,0.6-0.3c0.2,0,0.5,0.1,0.6,0.3c0.2,0.2,0.3,0.4,0.3,0.6
	s-0.1,0.4-0.3,0.6C1104.4,117.6,1104.2,117.7,1104,117.7z M1103.3,127.3v-8.2h1.3v8.2H1103.3z M1101.3,120.9l-1.1,0.3
	c-0.1-0.2-0.2-0.4-0.3-0.5c-0.1-0.2-0.3-0.3-0.6-0.4s-0.5-0.2-0.9-0.2c-0.5,0-0.9,0.1-1.3,0.3c-0.3,0.2-0.5,0.5-0.5,0.9
	c0,0.3,0.1,0.6,0.3,0.7s0.6,0.3,1.1,0.5l1.2,0.3c0.7,0.2,1.3,0.4,1.6,0.8c0.4,0.4,0.5,0.8,0.5,1.4c0,0.5-0.1,0.9-0.4,1.3
	c-0.3,0.4-0.6,0.7-1.1,0.9c-0.5,0.2-1,0.3-1.7,0.3c-0.8,0-1.5-0.2-2.1-0.5c-0.5-0.4-0.9-0.9-1-1.6l1.2-0.3c0.1,0.4,0.3,0.8,0.6,1
	c0.3,0.2,0.7,0.3,1.3,0.3c0.6,0,1.1-0.1,1.4-0.4c0.3-0.3,0.5-0.6,0.5-0.9c0-0.3-0.1-0.5-0.3-0.7c-0.2-0.2-0.5-0.3-0.9-0.4l-1.4-0.3
	c-0.7-0.2-1.3-0.5-1.7-0.8c-0.3-0.4-0.5-0.8-0.5-1.4c0-0.5,0.1-0.9,0.4-1.2c0.3-0.4,0.6-0.6,1.1-0.8c0.5-0.2,1-0.3,1.5-0.3
	c0.8,0,1.4,0.2,1.9,0.5C1100.8,119.9,1101.1,120.3,1101.3,120.9z M1088,122.3v4.9h-1.3v-8.2h1.2v1.3h0.1c0.2-0.4,0.5-0.7,0.9-1
	c0.4-0.3,0.9-0.4,1.5-0.4c0.6,0,1,0.1,1.5,0.3c0.4,0.2,0.7,0.6,1,1c0.2,0.5,0.3,1,0.3,1.7v5.2h-1.3v-5.1c0-0.6-0.2-1.1-0.5-1.5
	c-0.3-0.4-0.8-0.5-1.4-0.5c-0.4,0-0.8,0.1-1.1,0.3c-0.3,0.2-0.6,0.4-0.7,0.8C1088.1,121.5,1088,121.9,1088,122.3z M1080.9,126.3
	c0.5,0,0.9-0.1,1.3-0.3c0.3-0.2,0.6-0.4,0.8-0.8c0.2-0.3,0.3-0.6,0.3-1v-1.2c-0.1,0.1-0.2,0.1-0.4,0.2c-0.2,0-0.4,0.1-0.6,0.1
	c-0.2,0-0.5,0.1-0.7,0.1c-0.2,0-0.4,0-0.5,0.1c-0.3,0-0.6,0.1-0.9,0.2c-0.3,0.1-0.5,0.2-0.7,0.4c-0.2,0.2-0.3,0.4-0.3,0.8
	c0,0.4,0.2,0.8,0.5,1C1080,126.2,1080.4,126.3,1080.9,126.3z M1080.7,127.4c-0.5,0-1-0.1-1.4-0.3c-0.4-0.2-0.8-0.5-1-0.9
	c-0.2-0.4-0.4-0.8-0.4-1.4c0-0.5,0.1-0.8,0.3-1.1c0.2-0.3,0.4-0.5,0.7-0.7s0.6-0.3,1-0.4c0.4-0.1,0.8-0.2,1.1-0.2
	c0.5-0.1,0.9-0.1,1.2-0.1c0.3,0,0.5-0.1,0.7-0.2c0.1-0.1,0.2-0.2,0.2-0.4v0c0-0.5-0.1-0.9-0.4-1.2c-0.3-0.3-0.7-0.4-1.3-0.4
	c-0.6,0-1.1,0.1-1.4,0.4c-0.3,0.3-0.6,0.5-0.7,0.8l-1.2-0.4c0.2-0.5,0.5-0.9,0.9-1.2c0.4-0.3,0.7-0.5,1.2-0.6
	c0.4-0.1,0.8-0.2,1.3-0.2c0.3,0,0.6,0,0.9,0.1c0.3,0.1,0.7,0.2,1,0.4c0.3,0.2,0.6,0.5,0.8,0.9s0.3,0.9,0.3,1.6v5.4h-1.3v-1.1h-0.1
	c-0.1,0.2-0.2,0.4-0.4,0.6c-0.2,0.2-0.5,0.4-0.8,0.5C1081.6,127.4,1081.2,127.4,1080.7,127.4z M1072.7,127.3v-8.2h1.2v1.2h0.1
	c0.1-0.4,0.4-0.7,0.8-1c0.4-0.3,0.8-0.4,1.3-0.4c0.1,0,0.2,0,0.3,0c0.1,0,0.2,0,0.3,0v1.3c0,0-0.1,0-0.3,0c-0.1,0-0.3,0-0.5,0
	c-0.4,0-0.8,0.1-1.1,0.3c-0.3,0.2-0.6,0.4-0.7,0.7c-0.2,0.3-0.3,0.6-0.3,1v5.2H1072.7z M1067.8,117.1h1.3v7.8c0,0.4,0.1,0.6,0.2,0.8
	c0.1,0.2,0.2,0.3,0.4,0.4c0.2,0.1,0.3,0.1,0.5,0.1c0.1,0,0.3,0,0.3,0c0.1,0,0.2,0,0.2,0l0.3,1.1c-0.1,0-0.2,0.1-0.4,0.1
	c-0.2,0-0.3,0.1-0.6,0.1c-0.4,0-0.7-0.1-1-0.2c-0.3-0.2-0.6-0.4-0.8-0.7c-0.2-0.3-0.3-0.7-0.3-1.2V117.1z M1070.8,119.1v1.1h-4.2
	v-1.1H1070.8z M1059.8,121.3c-0.3,0-0.5-0.1-0.7-0.3s-0.3-0.4-0.3-0.7s0.1-0.5,0.3-0.7c0.2-0.2,0.4-0.3,0.7-0.3s0.5,0.1,0.7,0.3
	c0.2,0.2,0.3,0.4,0.3,0.7c0,0.2,0,0.3-0.1,0.5c-0.1,0.1-0.2,0.3-0.3,0.4C1060.1,121.2,1060,121.3,1059.8,121.3z M1059.8,127.3
	c-0.3,0-0.5-0.1-0.7-0.3s-0.3-0.4-0.3-0.7c0-0.3,0.1-0.5,0.3-0.7s0.4-0.3,0.7-0.3s0.5,0.1,0.7,0.3c0.2,0.2,0.3,0.4,0.3,0.7
	c0,0.2,0,0.3-0.1,0.5c-0.1,0.1-0.2,0.3-0.3,0.4C1060.1,127.3,1060,127.3,1059.8,127.3z M1048.1,122.5v4.7h-2.3v-8.2h2.2v1.4h0.1
	c0.2-0.5,0.5-0.9,0.9-1.1c0.4-0.3,0.9-0.4,1.6-0.4c0.6,0,1.1,0.1,1.5,0.4c0.4,0.2,0.8,0.6,1,1.1c0.2,0.5,0.4,1,0.4,1.6v5.2h-2.3
	v-4.8c0-0.5-0.1-0.9-0.4-1.2c-0.3-0.3-0.6-0.4-1.1-0.4c-0.3,0-0.6,0.1-0.8,0.2c-0.2,0.1-0.4,0.3-0.5,0.6
	C1048.2,121.9,1048.1,122.2,1048.1,122.5z M1040.4,125.7c0.4,0,0.7-0.1,0.9-0.3c0.3-0.2,0.4-0.5,0.6-0.9c0.1-0.4,0.2-0.8,0.2-1.3
	s-0.1-0.9-0.2-1.3c-0.1-0.4-0.3-0.7-0.6-0.9c-0.3-0.2-0.6-0.3-0.9-0.3c-0.4,0-0.7,0.1-1,0.3c-0.3,0.2-0.4,0.5-0.6,0.9
	c-0.1,0.4-0.2,0.8-0.2,1.3s0.1,0.9,0.2,1.3c0.1,0.4,0.3,0.7,0.6,0.9C1039.7,125.6,1040,125.7,1040.4,125.7z M1040.3,127.4
	c-0.8,0-1.5-0.2-2.1-0.5c-0.6-0.4-1.1-0.8-1.4-1.5c-0.3-0.6-0.5-1.4-0.5-2.2c0-0.8,0.2-1.6,0.5-2.2c0.3-0.6,0.8-1.1,1.4-1.5
	c0.6-0.4,1.3-0.5,2.1-0.5s1.5,0.2,2.1,0.5c0.6,0.4,1.1,0.8,1.4,1.5c0.3,0.6,0.5,1.4,0.5,2.2c0,0.8-0.2,1.6-0.5,2.2
	c-0.3,0.6-0.8,1.1-1.4,1.5C1041.9,127.2,1041.2,127.4,1040.3,127.4z M1033.7,118c-0.3,0-0.6-0.1-0.9-0.3c-0.2-0.2-0.4-0.5-0.4-0.8
	c0-0.3,0.1-0.6,0.4-0.8c0.2-0.2,0.5-0.3,0.9-0.3c0.3,0,0.6,0.1,0.9,0.3c0.2,0.2,0.4,0.5,0.4,0.8c0,0.3-0.1,0.6-0.4,0.8
	C1034.3,117.9,1034,118,1033.7,118z M1032.6,127.3v-8.2h2.3v8.2H1032.6z M1027.3,117.1h2.3v7.6c0,0.2,0,0.4,0.1,0.5
	c0.1,0.1,0.2,0.2,0.3,0.2c0.1,0,0.3,0.1,0.4,0.1c0.1,0,0.2,0,0.3,0c0.1,0,0.2,0,0.2,0l0.4,1.7c-0.1,0-0.3,0.1-0.5,0.1
	c-0.2,0-0.5,0.1-0.8,0.1c-0.5,0-1-0.1-1.4-0.2c-0.4-0.2-0.7-0.4-1-0.8s-0.3-0.8-0.3-1.3V117.1z M1031.1,119.1v1.7h-4.9v-1.7H1031.1z
	 M1021,125.8c0.3,0,0.6-0.1,0.9-0.2c0.3-0.1,0.5-0.3,0.6-0.5c0.1-0.2,0.2-0.5,0.2-0.8v-0.9c-0.1,0-0.2,0.1-0.3,0.1
	c-0.1,0-0.3,0.1-0.4,0.1c-0.2,0-0.3,0.1-0.5,0.1c-0.2,0-0.3,0-0.4,0.1c-0.3,0-0.5,0.1-0.7,0.2s-0.4,0.2-0.5,0.3
	c-0.1,0.1-0.2,0.3-0.2,0.5c0,0.3,0.1,0.5,0.3,0.7C1020.4,125.8,1020.7,125.8,1021,125.8z M1020.4,127.4c-0.5,0-1-0.1-1.4-0.3
	c-0.4-0.2-0.7-0.5-1-0.8c-0.2-0.4-0.4-0.8-0.4-1.4c0-0.5,0.1-0.8,0.3-1.1c0.2-0.3,0.4-0.6,0.7-0.7c0.3-0.2,0.6-0.3,1-0.4
	c0.4-0.1,0.8-0.2,1.2-0.2c0.5,0,0.9-0.1,1.2-0.1c0.3,0,0.5-0.1,0.6-0.2c0.1-0.1,0.2-0.2,0.2-0.4v0c0-0.3-0.1-0.6-0.3-0.8
	c-0.2-0.2-0.5-0.3-0.9-0.3c-0.4,0-0.7,0.1-1,0.3c-0.2,0.2-0.4,0.4-0.5,0.7l-2.1-0.2c0.1-0.5,0.3-0.9,0.6-1.3
	c0.3-0.4,0.7-0.6,1.2-0.8c0.5-0.2,1.1-0.3,1.7-0.3c0.5,0,0.9,0.1,1.3,0.2c0.4,0.1,0.8,0.3,1.1,0.5c0.3,0.2,0.6,0.5,0.8,0.9
	c0.2,0.3,0.3,0.8,0.3,1.3v5.5h-2.2v-1.1h-0.1c-0.1,0.3-0.3,0.5-0.5,0.7c-0.2,0.2-0.5,0.3-0.8,0.5
	C1021.1,127.4,1020.8,127.4,1020.4,127.4z M1012.1,127.3v-8.2h2.2v1.4h0.1c0.1-0.5,0.4-0.9,0.8-1.2c0.4-0.3,0.8-0.4,1.2-0.4
	c0.1,0,0.2,0,0.4,0c0.1,0,0.2,0,0.3,0.1v2c-0.1,0-0.3-0.1-0.4-0.1c-0.2,0-0.4,0-0.5,0c-0.3,0-0.6,0.1-0.9,0.2
	c-0.3,0.1-0.5,0.3-0.6,0.6c-0.1,0.3-0.2,0.6-0.2,0.9v4.6H1012.1z M1008,123.8v-4.7h2.3v8.2h-2.2v-1.5h-0.1c-0.2,0.5-0.5,0.9-0.9,1.2
	c-0.4,0.3-0.9,0.4-1.6,0.4c-0.5,0-1-0.1-1.4-0.4s-0.7-0.6-1-1.1c-0.2-0.5-0.3-1-0.4-1.6v-5.2h2.3v4.8c0,0.5,0.1,0.9,0.4,1.1
	c0.3,0.3,0.6,0.4,1,0.4c0.3,0,0.5-0.1,0.8-0.2c0.2-0.1,0.4-0.3,0.6-0.6C1008,124.4,1008,124.1,1008,123.8z M997,125.6
	c0.4,0,0.7-0.1,0.9-0.3c0.3-0.2,0.5-0.5,0.6-0.8c0.1-0.4,0.2-0.8,0.2-1.3c0-0.5-0.1-0.9-0.2-1.3s-0.3-0.6-0.6-0.8
	c-0.3-0.2-0.6-0.3-0.9-0.3c-0.4,0-0.7,0.1-0.9,0.3s-0.4,0.5-0.6,0.8c-0.1,0.4-0.2,0.8-0.2,1.2c0,0.5,0.1,0.9,0.2,1.3
	c0.1,0.4,0.3,0.6,0.6,0.9C996.3,125.5,996.6,125.6,997,125.6z M996.3,127.4c-0.6,0-1.2-0.2-1.7-0.5c-0.5-0.3-0.9-0.8-1.2-1.4
	c-0.3-0.6-0.4-1.4-0.4-2.3c0-0.9,0.2-1.7,0.5-2.3c0.3-0.6,0.7-1.1,1.2-1.4c0.5-0.3,1.1-0.5,1.7-0.5c0.5,0,0.8,0.1,1.1,0.2
	c0.3,0.2,0.6,0.3,0.7,0.6c0.2,0.2,0.3,0.5,0.4,0.7h0.1v-4.1h2.3v10.9h-2.2v-1.3h-0.1c-0.1,0.2-0.3,0.5-0.5,0.7
	c-0.2,0.2-0.4,0.4-0.8,0.5C997.1,127.3,996.7,127.4,996.3,127.4z M988,116.3v10.9h-2.3v-10.9H988z M983.9,116.3v10.9h-2.3v-10.9
	H983.9z M975.9,125.8c0.3,0,0.6-0.1,0.9-0.2c0.3-0.1,0.5-0.3,0.6-0.5c0.1-0.2,0.2-0.5,0.2-0.8v-0.9c-0.1,0-0.2,0.1-0.3,0.1
	c-0.1,0-0.3,0.1-0.4,0.1c-0.2,0-0.3,0.1-0.5,0.1c-0.2,0-0.3,0-0.4,0.1c-0.3,0-0.5,0.1-0.7,0.2s-0.4,0.2-0.5,0.3
	c-0.1,0.1-0.2,0.3-0.2,0.5c0,0.3,0.1,0.5,0.3,0.7C975.3,125.8,975.5,125.8,975.9,125.8z M975.2,127.4c-0.5,0-1-0.1-1.4-0.3
	c-0.4-0.2-0.7-0.5-1-0.8c-0.2-0.4-0.4-0.8-0.4-1.4c0-0.5,0.1-0.8,0.3-1.1c0.2-0.3,0.4-0.6,0.7-0.7c0.3-0.2,0.6-0.3,1-0.4
	c0.4-0.1,0.8-0.2,1.2-0.2c0.5,0,0.9-0.1,1.2-0.1c0.3,0,0.5-0.1,0.6-0.2c0.1-0.1,0.2-0.2,0.2-0.4v0c0-0.3-0.1-0.6-0.3-0.8
	c-0.2-0.2-0.5-0.3-0.9-0.3c-0.4,0-0.7,0.1-1,0.3c-0.2,0.2-0.4,0.4-0.5,0.7l-2.1-0.2c0.1-0.5,0.3-0.9,0.6-1.3
	c0.3-0.4,0.7-0.6,1.2-0.8c0.5-0.2,1.1-0.3,1.7-0.3c0.5,0,0.9,0.1,1.3,0.2c0.4,0.1,0.8,0.3,1.1,0.5c0.3,0.2,0.6,0.5,0.8,0.9
	c0.2,0.3,0.3,0.8,0.3,1.3v5.5h-2.2v-1.1h-0.1c-0.1,0.3-0.3,0.5-0.5,0.7c-0.2,0.2-0.5,0.3-0.8,0.5C976,127.4,975.6,127.4,975.2,127.4
	z M967,127.3v-8.2h2.2v1.4h0.1c0.1-0.5,0.4-0.9,0.8-1.2c0.4-0.3,0.8-0.4,1.2-0.4c0.1,0,0.2,0,0.4,0c0.1,0,0.2,0,0.3,0.1v2
	c-0.1,0-0.3-0.1-0.4-0.1c-0.2,0-0.4,0-0.5,0c-0.3,0-0.6,0.1-0.9,0.2c-0.3,0.1-0.5,0.3-0.6,0.6c-0.1,0.3-0.2,0.6-0.2,0.9v4.6H967z
	 M961.8,127.4c-0.8,0-1.6-0.2-2.2-0.5c-0.6-0.3-1.1-0.8-1.4-1.5c-0.3-0.6-0.5-1.4-0.5-2.2c0-0.8,0.2-1.6,0.5-2.2
	c0.3-0.6,0.8-1.1,1.4-1.5c0.6-0.4,1.3-0.5,2.1-0.5c0.5,0,1,0.1,1.5,0.3c0.5,0.2,0.9,0.4,1.2,0.8c0.4,0.3,0.6,0.8,0.8,1.3
	c0.2,0.5,0.3,1.1,0.3,1.8v0.6h-6.9v-1.4h4.8c0-0.3-0.1-0.6-0.2-0.9c-0.1-0.3-0.3-0.4-0.6-0.6c-0.2-0.1-0.5-0.2-0.9-0.2
	c-0.3,0-0.6,0.1-0.9,0.2c-0.3,0.2-0.5,0.4-0.6,0.6c-0.1,0.3-0.2,0.6-0.2,0.9v1.3c0,0.4,0.1,0.8,0.2,1c0.2,0.3,0.4,0.5,0.6,0.7
	c0.3,0.2,0.6,0.2,1,0.2c0.3,0,0.5,0,0.7-0.1c0.2-0.1,0.4-0.2,0.5-0.3c0.1-0.1,0.3-0.3,0.3-0.5l2.1,0.1c-0.1,0.5-0.3,0.9-0.7,1.3
	c-0.3,0.4-0.7,0.7-1.3,0.9C963,127.3,962.4,127.4,961.8,127.4z M957.1,119.1l-2.9,8.2h-2.6l-2.9-8.2h2.4l1.7,5.9h0.1l1.7-5.9H957.1z
	 M945.5,121.8c0-0.8-0.1-1.4-0.3-1.9c-0.2-0.5-0.5-0.9-1-1.2s-0.9-0.4-1.5-0.4c-0.6,0-1,0.1-1.5,0.4c-0.4,0.3-0.7,0.7-1,1.2
	c-0.2,0.5-0.3,1.2-0.3,1.9s0.1,1.4,0.3,1.9c0.2,0.5,0.6,0.9,1,1.2c0.4,0.3,0.9,0.4,1.5,0.4c0.6,0,1-0.1,1.5-0.4s0.7-0.7,1-1.2
	C945.4,123.2,945.5,122.6,945.5,121.8z M947.9,121.8c0,1.2-0.2,2.2-0.7,3c-0.4,0.8-1.1,1.5-1.8,1.9c-0.8,0.4-1.6,0.7-2.6,0.7
	c-1,0-1.8-0.2-2.6-0.7c-0.8-0.4-1.4-1.1-1.8-1.9c-0.4-0.8-0.7-1.8-0.7-3c0-1.2,0.2-2.2,0.7-3s1.1-1.5,1.8-1.9
	c0.8-0.4,1.6-0.7,2.6-0.7c1,0,1.8,0.2,2.6,0.7c0.8,0.4,1.4,1.1,1.8,1.9C947.6,119.6,947.9,120.6,947.9,121.8z M1238,96.8
	c0,1.3-0.2,2.6-0.5,3.7c-0.3,1.1-0.8,2.2-1.5,3.1h-1.1c0.3-0.4,0.5-0.8,0.7-1.3c0.2-0.5,0.4-1.1,0.6-1.7c0.2-0.6,0.3-1.2,0.4-1.9
	c0.1-0.7,0.1-1.3,0.1-1.9c0-0.8-0.1-1.7-0.2-2.6s-0.4-1.7-0.7-2.4s-0.6-1.4-0.9-1.8h1.1c0.6,0.9,1.1,2,1.5,3.1
	C1237.8,94.2,1238,95.5,1238,96.8z M1225.3,101.2c0.8,0,1.4-0.4,1.9-1.2c0.4-0.8,0.7-1.9,0.7-3.3c0-0.9-0.1-1.7-0.3-2.4
	c-0.2-0.7-0.5-1.2-0.9-1.5c-0.4-0.3-0.8-0.5-1.3-0.5c-0.8,0-1.4,0.4-1.8,1.2c-0.4,0.8-0.7,1.9-0.7,3.3c0,0.9,0.1,1.7,0.3,2.4
	s0.5,1.2,0.9,1.5C1224.3,101.1,1224.7,101.2,1225.3,101.2z M1225.3,102.4c-0.8,0-1.5-0.2-2.1-0.7c-0.6-0.4-1-1.1-1.3-1.9
	c-0.3-0.8-0.4-1.9-0.4-3c0-1.2,0.1-2.2,0.4-3c0.3-0.8,0.7-1.5,1.3-1.9c0.6-0.4,1.2-0.7,2-0.7s1.5,0.2,2,0.7c0.6,0.4,1,1.1,1.3,1.9
	c0.3,0.8,0.5,1.8,0.5,3c0,1.2-0.1,2.2-0.4,3c-0.3,0.8-0.7,1.5-1.3,1.9C1226.7,102.2,1226.1,102.4,1225.3,102.4z M1215.9,101.2
	c0.8,0,1.4-0.4,1.9-1.2c0.4-0.8,0.7-1.9,0.7-3.3c0-0.9-0.1-1.7-0.3-2.4c-0.2-0.7-0.5-1.2-0.9-1.5c-0.4-0.3-0.8-0.5-1.3-0.5
	c-0.8,0-1.4,0.4-1.8,1.2c-0.4,0.8-0.7,1.9-0.7,3.3c0,0.9,0.1,1.7,0.3,2.4s0.5,1.2,0.9,1.5C1214.9,101.1,1215.4,101.2,1215.9,101.2z
	 M1215.9,102.4c-0.8,0-1.5-0.2-2.1-0.7c-0.6-0.4-1-1.1-1.3-1.9c-0.3-0.8-0.4-1.9-0.4-3c0-1.2,0.1-2.2,0.4-3c0.3-0.8,0.7-1.5,1.3-1.9
	c0.6-0.4,1.2-0.7,2-0.7s1.5,0.2,2,0.7c0.6,0.4,1,1.1,1.3,1.9c0.3,0.8,0.5,1.8,0.5,3c0,1.2-0.1,2.2-0.4,3c-0.3,0.8-0.7,1.5-1.3,1.9
	C1217.4,102.2,1216.7,102.4,1215.9,102.4z M1209.5,102.3c-0.3,0-0.5-0.1-0.7-0.3c-0.2-0.2-0.3-0.4-0.3-0.7s0.1-0.5,0.3-0.7
	s0.4-0.3,0.7-0.3s0.5,0.1,0.7,0.3c0.2,0.2,0.3,0.4,0.3,0.7c0,0.2,0,0.3-0.1,0.5c-0.1,0.1-0.2,0.3-0.3,0.4
	C1209.9,102.3,1209.7,102.3,1209.5,102.3z M1206.1,91.3v10.9h-1.3v-9.5h-0.1l-2.7,1.8v-1.3l2.7-1.8H1206.1z M1195.7,100.8l-0.1,0.6
	c-0.1,0.4-0.2,0.8-0.3,1.3c-0.1,0.5-0.2,0.9-0.4,1.3c-0.1,0.4-0.2,0.7-0.3,1h-1c0-0.2,0.1-0.5,0.2-0.9c0.1-0.4,0.1-0.8,0.2-1.3
	c0.1-0.5,0.1-0.9,0.2-1.4l0.1-0.6H1195.7z M1188.4,101.2c0.8,0,1.4-0.4,1.9-1.2c0.4-0.8,0.7-1.9,0.7-3.3c0-0.9-0.1-1.7-0.3-2.4
	c-0.2-0.7-0.5-1.2-0.9-1.5c-0.4-0.3-0.8-0.5-1.3-0.5c-0.8,0-1.4,0.4-1.8,1.2c-0.4,0.8-0.7,1.9-0.7,3.3c0,0.9,0.1,1.7,0.3,2.4
	s0.5,1.2,0.9,1.5C1187.4,101.1,1187.9,101.2,1188.4,101.2z M1188.4,102.4c-0.8,0-1.5-0.2-2.1-0.7c-0.6-0.4-1-1.1-1.3-1.9
	c-0.3-0.8-0.4-1.9-0.4-3c0-1.2,0.1-2.2,0.4-3c0.3-0.8,0.7-1.5,1.3-1.9c0.6-0.4,1.2-0.7,2-0.7s1.5,0.2,2,0.7c0.6,0.4,1,1.1,1.3,1.9
	c0.3,0.8,0.5,1.8,0.5,3c0,1.2-0.1,2.2-0.4,3c-0.3,0.8-0.7,1.5-1.3,1.9C1189.9,102.2,1189.2,102.4,1188.4,102.4z M1179,102.4
	c-0.7,0-1.3-0.1-1.9-0.4c-0.5-0.2-1-0.6-1.3-1c-0.3-0.4-0.5-0.9-0.5-1.5h1.3c0,0.4,0.1,0.7,0.4,0.9c0.2,0.3,0.5,0.4,0.8,0.6
	s0.7,0.2,1.1,0.2c0.5,0,0.9-0.1,1.2-0.2c0.4-0.2,0.6-0.4,0.9-0.7c0.2-0.3,0.3-0.6,0.3-1c0-0.4-0.1-0.8-0.3-1.1
	c-0.2-0.3-0.5-0.6-0.9-0.7s-0.9-0.3-1.4-0.3h-0.9v-1.2h0.9c0.4,0,0.8-0.1,1.1-0.2c0.3-0.2,0.6-0.4,0.8-0.7c0.2-0.3,0.3-0.6,0.3-1
	c0-0.4-0.1-0.7-0.2-1c-0.2-0.3-0.4-0.5-0.7-0.6c-0.3-0.2-0.6-0.2-1-0.2c-0.4,0-0.7,0.1-1.1,0.2c-0.3,0.1-0.6,0.3-0.8,0.6
	c-0.2,0.3-0.3,0.6-0.3,0.9h-1.3c0-0.6,0.2-1.1,0.5-1.5c0.3-0.4,0.7-0.8,1.3-1c0.5-0.2,1.1-0.4,1.7-0.4c0.7,0,1.3,0.1,1.7,0.4
	c0.5,0.3,0.9,0.6,1.1,1.1c0.3,0.4,0.4,0.9,0.4,1.4c0,0.6-0.2,1.1-0.5,1.6c-0.3,0.4-0.8,0.7-1.3,0.9v0.1c0.7,0.1,1.2,0.4,1.6,0.9
	c0.4,0.5,0.6,1,0.6,1.7c0,0.6-0.2,1.1-0.5,1.6c-0.3,0.5-0.8,0.8-1.3,1.1C1180.3,102.3,1179.7,102.4,1179,102.4z M1172.5,102.3
	c-0.3,0-0.5-0.1-0.7-0.3c-0.2-0.2-0.3-0.4-0.3-0.7s0.1-0.5,0.3-0.7s0.4-0.3,0.7-0.3s0.5,0.1,0.7,0.3c0.2,0.2,0.3,0.4,0.3,0.7
	c0,0.2,0,0.3-0.1,0.5c-0.1,0.1-0.2,0.3-0.3,0.4C1172.8,102.3,1172.7,102.3,1172.5,102.3z M1166.1,101.2c0.8,0,1.4-0.4,1.9-1.2
	c0.4-0.8,0.7-1.9,0.7-3.3c0-0.9-0.1-1.7-0.3-2.4c-0.2-0.7-0.5-1.2-0.9-1.5c-0.4-0.3-0.8-0.5-1.3-0.5c-0.8,0-1.4,0.4-1.8,1.2
	c-0.4,0.8-0.7,1.9-0.7,3.3c0,0.9,0.1,1.7,0.3,2.4s0.5,1.2,0.9,1.5C1165.1,101.1,1165.6,101.2,1166.1,101.2z M1166.1,102.4
	c-0.8,0-1.5-0.2-2.1-0.7c-0.6-0.4-1-1.1-1.3-1.9c-0.3-0.8-0.4-1.9-0.4-3c0-1.2,0.1-2.2,0.4-3c0.3-0.8,0.7-1.5,1.3-1.9
	c0.6-0.4,1.2-0.7,2-0.7s1.5,0.2,2,0.7c0.6,0.4,1,1.1,1.3,1.9c0.3,0.8,0.5,1.8,0.5,3c0,1.2-0.1,2.2-0.4,3c-0.3,0.8-0.7,1.5-1.3,1.9
	C1167.6,102.2,1166.9,102.4,1166.1,102.4z M1156,100.8l-0.1,0.6c-0.1,0.4-0.2,0.8-0.3,1.3c-0.1,0.5-0.2,0.9-0.4,1.3
	c-0.1,0.4-0.2,0.7-0.3,1h-1c0-0.2,0.1-0.5,0.2-0.9c0.1-0.4,0.1-0.8,0.2-1.3c0.1-0.5,0.1-0.9,0.2-1.4l0.1-0.6H1156z M1148.7,101.2
	c0.8,0,1.4-0.4,1.9-1.2c0.4-0.8,0.7-1.9,0.7-3.3c0-0.9-0.1-1.7-0.3-2.4c-0.2-0.7-0.5-1.2-0.9-1.5c-0.4-0.3-0.8-0.5-1.3-0.5
	c-0.8,0-1.4,0.4-1.8,1.2c-0.4,0.8-0.7,1.9-0.7,3.3c0,0.9,0.1,1.7,0.3,2.4s0.5,1.2,0.9,1.5C1147.7,101.1,1148.2,101.2,1148.7,101.2z
	 M1148.7,102.4c-0.8,0-1.5-0.2-2.1-0.7c-0.6-0.4-1-1.1-1.3-1.9c-0.3-0.8-0.4-1.9-0.4-3c0-1.2,0.1-2.2,0.4-3c0.3-0.8,0.7-1.5,1.3-1.9
	c0.6-0.4,1.2-0.7,2-0.7s1.5,0.2,2,0.7c0.6,0.4,1,1.1,1.3,1.9c0.3,0.8,0.5,1.8,0.5,3c0,1.2-0.1,2.2-0.4,3c-0.3,0.8-0.7,1.5-1.3,1.9
	C1150.2,102.2,1149.5,102.4,1148.7,102.4z M1139.3,101.2c0.8,0,1.4-0.4,1.9-1.2c0.4-0.8,0.7-1.9,0.7-3.3c0-0.9-0.1-1.7-0.3-2.4
	c-0.2-0.7-0.5-1.2-0.9-1.5c-0.4-0.3-0.8-0.5-1.3-0.5c-0.8,0-1.4,0.4-1.8,1.2c-0.4,0.8-0.7,1.9-0.7,3.3c0,0.9,0.1,1.7,0.3,2.4
	s0.5,1.2,0.9,1.5C1138.4,101.1,1138.8,101.2,1139.3,101.2z M1139.3,102.4c-0.8,0-1.5-0.2-2.1-0.7c-0.6-0.4-1-1.1-1.3-1.9
	c-0.3-0.8-0.4-1.9-0.4-3c0-1.2,0.1-2.2,0.4-3c0.3-0.8,0.7-1.5,1.3-1.9c0.6-0.4,1.2-0.7,2-0.7s1.5,0.2,2,0.7c0.6,0.4,1,1.1,1.3,1.9
	c0.3,0.8,0.5,1.8,0.5,3c0,1.2-0.1,2.2-0.4,3c-0.3,0.8-0.7,1.5-1.3,1.9C1140.8,102.2,1140.1,102.4,1139.3,102.4z M1133,102.3
	c-0.3,0-0.5-0.1-0.7-0.3c-0.2-0.2-0.3-0.4-0.3-0.7s0.1-0.5,0.3-0.7s0.4-0.3,0.7-0.3s0.5,0.1,0.7,0.3c0.2,0.2,0.3,0.4,0.3,0.7
	c0,0.2,0,0.3-0.1,0.5c-0.1,0.1-0.2,0.3-0.3,0.4C1133.3,102.3,1133.1,102.3,1133,102.3z M1126.6,101.2c0.8,0,1.4-0.4,1.9-1.2
	c0.4-0.8,0.7-1.9,0.7-3.3c0-0.9-0.1-1.7-0.3-2.4c-0.2-0.7-0.5-1.2-0.9-1.5c-0.4-0.3-0.8-0.5-1.3-0.5c-0.8,0-1.4,0.4-1.8,1.2
	c-0.4,0.8-0.7,1.9-0.7,3.3c0,0.9,0.1,1.7,0.3,2.4s0.5,1.2,0.9,1.5C1125.6,101.1,1126.1,101.2,1126.6,101.2z M1126.6,102.4
	c-0.8,0-1.5-0.2-2.1-0.7c-0.6-0.4-1-1.1-1.3-1.9c-0.3-0.8-0.4-1.9-0.4-3c0-1.2,0.1-2.2,0.4-3c0.3-0.8,0.7-1.5,1.3-1.9
	c0.6-0.4,1.2-0.7,2-0.7s1.5,0.2,2,0.7c0.6,0.4,1,1.1,1.3,1.9c0.3,0.8,0.5,1.8,0.5,3c0,1.2-0.1,2.2-0.4,3c-0.3,0.8-0.7,1.5-1.3,1.9
	C1128.1,102.2,1127.4,102.4,1126.6,102.4z M1116.5,100.8l-0.1,0.6c-0.1,0.4-0.2,0.8-0.3,1.3c-0.1,0.5-0.2,0.9-0.4,1.3
	c-0.1,0.4-0.2,0.7-0.3,1h-1c0-0.2,0.1-0.5,0.2-0.9c0.1-0.4,0.1-0.8,0.2-1.3c0.1-0.5,0.1-0.9,0.2-1.4l0.1-0.6H1116.5z M1109.2,101.2
	c0.8,0,1.4-0.4,1.9-1.2c0.4-0.8,0.7-1.9,0.7-3.3c0-0.9-0.1-1.7-0.3-2.4c-0.2-0.7-0.5-1.2-0.9-1.5c-0.4-0.3-0.8-0.5-1.3-0.5
	c-0.8,0-1.4,0.4-1.8,1.2c-0.4,0.8-0.7,1.9-0.7,3.3c0,0.9,0.1,1.7,0.3,2.4s0.5,1.2,0.9,1.5C1108.2,101.1,1108.6,101.2,1109.2,101.2z
	 M1109.2,102.4c-0.8,0-1.5-0.2-2.1-0.7c-0.6-0.4-1-1.1-1.3-1.9c-0.3-0.8-0.4-1.9-0.4-3c0-1.2,0.1-2.2,0.4-3c0.3-0.8,0.7-1.5,1.3-1.9
	c0.6-0.4,1.2-0.7,2-0.7s1.5,0.2,2,0.7c0.6,0.4,1,1.1,1.3,1.9c0.3,0.8,0.5,1.8,0.5,3c0,1.2-0.1,2.2-0.4,3c-0.3,0.8-0.7,1.5-1.3,1.9
	C1110.7,102.2,1110,102.4,1109.2,102.4z M1097.6,102.3l4.9-9.7v-0.1h-5.6v-1.2h7v1.2l-4.9,9.7H1097.6z M1094.3,102.3
	c-0.3,0-0.5-0.1-0.7-0.3c-0.2-0.2-0.3-0.4-0.3-0.7s0.1-0.5,0.3-0.7s0.4-0.3,0.7-0.3s0.5,0.1,0.7,0.3c0.2,0.2,0.3,0.4,0.3,0.7
	c0,0.2,0,0.3-0.1,0.5c-0.1,0.1-0.2,0.3-0.3,0.4C1094.6,102.3,1094.5,102.3,1094.3,102.3z M1087.9,101.2c0.8,0,1.4-0.4,1.9-1.2
	c0.4-0.8,0.7-1.9,0.7-3.3c0-0.9-0.1-1.7-0.3-2.4c-0.2-0.7-0.5-1.2-0.9-1.5c-0.4-0.3-0.8-0.5-1.3-0.5c-0.8,0-1.4,0.4-1.8,1.2
	c-0.4,0.8-0.7,1.9-0.7,3.3c0,0.9,0.1,1.7,0.3,2.4s0.5,1.2,0.9,1.5C1087,101.1,1087.4,101.2,1087.9,101.2z M1087.9,102.4
	c-0.8,0-1.5-0.2-2.1-0.7c-0.6-0.4-1-1.1-1.3-1.9c-0.3-0.8-0.4-1.9-0.4-3c0-1.2,0.1-2.2,0.4-3c0.3-0.8,0.7-1.5,1.3-1.9
	c0.6-0.4,1.2-0.7,2-0.7s1.5,0.2,2,0.7c0.6,0.4,1,1.1,1.3,1.9c0.3,0.8,0.5,1.8,0.5,3c0,1.2-0.1,2.2-0.4,3c-0.3,0.8-0.7,1.5-1.3,1.9
	C1089.4,102.2,1088.7,102.4,1087.9,102.4z M1075.2,97.7c0-1.3,0.2-2.6,0.5-3.7c0.4-1.1,0.9-2.2,1.5-3.1h1.1
	c-0.3,0.4-0.5,0.8-0.7,1.3c-0.2,0.5-0.4,1.1-0.6,1.7c-0.2,0.6-0.3,1.2-0.4,1.9c-0.1,0.7-0.1,1.3-0.1,1.9c0,0.8,0.1,1.7,0.2,2.6
	c0.2,0.9,0.4,1.7,0.7,2.4c0.3,0.7,0.6,1.4,0.9,1.8h-1.1c-0.6-0.9-1.2-2-1.5-3.1C1075.4,100.2,1075.2,99,1075.2,97.7z M1069.2,102.3
	v-8.2h1.2v1.2h0.1c0.1-0.4,0.4-0.7,0.8-1s0.8-0.4,1.3-0.4c0.1,0,0.2,0,0.3,0c0.1,0,0.2,0,0.3,0v1.3c0,0-0.1,0-0.3,0
	c-0.1,0-0.3,0-0.5,0c-0.4,0-0.8,0.1-1.1,0.3c-0.3,0.2-0.6,0.4-0.7,0.7c-0.2,0.3-0.3,0.6-0.3,1v5.2H1069.2z M1063.9,102.4
	c-0.8,0-1.5-0.2-2-0.5c-0.6-0.4-1-0.8-1.3-1.5c-0.3-0.6-0.5-1.4-0.5-2.2c0-0.8,0.2-1.6,0.5-2.2c0.3-0.6,0.7-1.1,1.3-1.5
	c0.6-0.4,1.2-0.5,1.9-0.5c0.4,0,0.8,0.1,1.3,0.2s0.8,0.4,1.1,0.7c0.3,0.3,0.6,0.7,0.8,1.3c0.2,0.5,0.3,1.2,0.3,1.9v0.5h-6.3v-1.1h5
	c0-0.5-0.1-0.9-0.3-1.2c-0.2-0.4-0.4-0.6-0.8-0.9c-0.3-0.2-0.7-0.3-1.2-0.3c-0.5,0-0.9,0.1-1.3,0.4c-0.4,0.2-0.6,0.6-0.8,1
	s-0.3,0.8-0.3,1.3v0.7c0,0.6,0.1,1.1,0.3,1.6c0.2,0.4,0.5,0.8,0.9,1c0.4,0.2,0.8,0.3,1.3,0.3c0.3,0,0.6,0,0.9-0.1
	c0.3-0.1,0.5-0.2,0.7-0.4c0.2-0.2,0.3-0.4,0.5-0.7l1.2,0.3c-0.1,0.4-0.3,0.8-0.6,1.1c-0.3,0.3-0.7,0.6-1.1,0.7
	C1064.9,102.3,1064.4,102.4,1063.9,102.4z M1057.5,92.7c-0.2,0-0.5-0.1-0.6-0.3c-0.2-0.2-0.3-0.4-0.3-0.6s0.1-0.4,0.3-0.6
	c0.2-0.2,0.4-0.3,0.6-0.3c0.2,0,0.5,0.1,0.6,0.3c0.2,0.2,0.3,0.4,0.3,0.6s-0.1,0.4-0.3,0.6C1058,92.6,1057.8,92.7,1057.5,92.7z
	 M1056.9,102.3v-8.2h1.3v8.2H1056.9z M1048.5,102.3v-1l4.6-6v-0.1h-4.5v-1.2h6.1v1l-4.5,5.9v0.1h4.7v1.2H1048.5z M1043.5,102.4
	c-0.8,0-1.5-0.2-2-0.5c-0.6-0.4-1-0.8-1.3-1.5c-0.3-0.6-0.5-1.4-0.5-2.2c0-0.8,0.2-1.6,0.5-2.2c0.3-0.6,0.7-1.1,1.3-1.5
	c0.6-0.4,1.2-0.5,1.9-0.5c0.4,0,0.8,0.1,1.3,0.2s0.8,0.4,1.1,0.7c0.3,0.3,0.6,0.7,0.8,1.3c0.2,0.5,0.3,1.2,0.3,1.9v0.5h-6.3v-1.1h5
	c0-0.5-0.1-0.9-0.3-1.2c-0.2-0.4-0.4-0.6-0.8-0.9c-0.3-0.2-0.7-0.3-1.2-0.3c-0.5,0-0.9,0.1-1.3,0.4c-0.4,0.2-0.6,0.6-0.8,1
	s-0.3,0.8-0.3,1.3v0.7c0,0.6,0.1,1.1,0.3,1.6c0.2,0.4,0.5,0.8,0.9,1c0.4,0.2,0.8,0.3,1.3,0.3c0.3,0,0.6,0,0.9-0.1
	c0.3-0.1,0.5-0.2,0.7-0.4c0.2-0.2,0.3-0.4,0.5-0.7l1.2,0.3c-0.1,0.4-0.3,0.8-0.6,1.1c-0.3,0.3-0.7,0.6-1.1,0.7
	C1044.5,102.3,1044,102.4,1043.5,102.4z M1032.1,98.2c0,0.6,0.1,1.2,0.3,1.6c0.2,0.5,0.4,0.8,0.8,1.1c0.3,0.3,0.8,0.4,1.3,0.4
	c0.5,0,1-0.1,1.3-0.4c0.4-0.3,0.6-0.7,0.8-1.1c0.2-0.5,0.3-1,0.3-1.6c0-0.6-0.1-1.1-0.3-1.6c-0.2-0.5-0.4-0.8-0.8-1.1
	c-0.4-0.3-0.8-0.4-1.3-0.4c-0.5,0-0.9,0.1-1.3,0.4c-0.3,0.3-0.6,0.6-0.8,1.1C1032.2,97,1032.1,97.6,1032.1,98.2z M1030.9,102.3V91.3
	h1.3v4h0.1c0.1-0.1,0.2-0.3,0.4-0.5c0.2-0.2,0.4-0.4,0.7-0.6c0.3-0.2,0.7-0.3,1.3-0.3c0.7,0,1.3,0.2,1.8,0.5
	c0.5,0.3,0.9,0.8,1.2,1.5c0.3,0.6,0.4,1.4,0.4,2.2c0,0.9-0.1,1.6-0.4,2.3c-0.3,0.6-0.7,1.1-1.2,1.5c-0.5,0.3-1.1,0.5-1.8,0.5
	c-0.5,0-0.9-0.1-1.3-0.3c-0.3-0.2-0.6-0.4-0.7-0.6c-0.2-0.2-0.3-0.4-0.4-0.6h-0.1v1.3H1030.9z M1028.5,97v1.2h-4.8V97H1028.5z
	 M1018.8,102.4c-0.8,0-1.4-0.2-2-0.5c-0.6-0.4-1-0.9-1.3-1.5c-0.3-0.6-0.4-1.4-0.4-2.2c0-0.8,0.2-1.6,0.5-2.2
	c0.3-0.6,0.7-1.1,1.3-1.5c0.6-0.4,1.2-0.5,1.9-0.5c0.6,0,1.1,0.1,1.6,0.3c0.5,0.2,0.8,0.5,1.1,0.9c0.3,0.4,0.5,0.8,0.5,1.3h-1.3
	c-0.1-0.4-0.3-0.7-0.6-1c-0.3-0.3-0.8-0.4-1.3-0.4c-0.5,0-0.9,0.1-1.3,0.4c-0.4,0.3-0.7,0.6-0.9,1.1c-0.2,0.5-0.3,1-0.3,1.6
	c0,0.6,0.1,1.2,0.3,1.7c0.2,0.5,0.5,0.8,0.9,1.1c0.4,0.3,0.8,0.4,1.3,0.4c0.3,0,0.6-0.1,0.9-0.2c0.3-0.1,0.5-0.3,0.7-0.5
	c0.2-0.2,0.3-0.5,0.4-0.8h1.3c-0.1,0.5-0.2,0.9-0.5,1.3c-0.3,0.4-0.6,0.7-1.1,0.9C1019.9,102.3,1019.4,102.4,1018.8,102.4z
	 M1012.5,92.7c-0.2,0-0.5-0.1-0.6-0.3c-0.2-0.2-0.3-0.4-0.3-0.6s0.1-0.4,0.3-0.6c0.2-0.2,0.4-0.3,0.6-0.3c0.2,0,0.5,0.1,0.6,0.3
	c0.2,0.2,0.3,0.4,0.3,0.6s-0.1,0.4-0.3,0.6C1013,92.6,1012.8,92.7,1012.5,92.7z M1011.9,102.3v-8.2h1.3v8.2H1011.9z M1004,98.2
	c0,0.6,0.1,1.2,0.3,1.6c0.2,0.5,0.4,0.8,0.8,1.1c0.3,0.3,0.8,0.4,1.3,0.4c0.5,0,1-0.1,1.3-0.4c0.4-0.3,0.6-0.7,0.8-1.1
	c0.2-0.5,0.3-1,0.3-1.6c0-0.6-0.1-1.1-0.3-1.6c-0.2-0.5-0.4-0.8-0.8-1.1c-0.4-0.3-0.8-0.4-1.3-0.4c-0.5,0-0.9,0.1-1.3,0.4
	c-0.3,0.3-0.6,0.6-0.8,1.1C1004,97,1004,97.6,1004,98.2z M1002.7,102.3V91.3h1.3v4h0.1c0.1-0.1,0.2-0.3,0.4-0.5
	c0.2-0.2,0.4-0.4,0.7-0.6c0.3-0.2,0.7-0.3,1.3-0.3c0.7,0,1.3,0.2,1.8,0.5c0.5,0.3,0.9,0.8,1.2,1.5c0.3,0.6,0.4,1.4,0.4,2.2
	c0,0.9-0.1,1.6-0.4,2.3c-0.3,0.6-0.7,1.1-1.2,1.5c-0.5,0.3-1.1,0.5-1.8,0.5c-0.5,0-0.9-0.1-1.3-0.3c-0.3-0.2-0.6-0.4-0.7-0.6
	c-0.2-0.2-0.3-0.4-0.4-0.6h-0.1v1.3H1002.7z M999,98.9v-4.8h1.3v8.2H999v-1.4h-0.1c-0.2,0.4-0.5,0.8-0.9,1.1
	c-0.4,0.3-0.9,0.4-1.5,0.4c-0.5,0-1-0.1-1.4-0.3c-0.4-0.2-0.7-0.6-0.9-1c-0.2-0.5-0.3-1-0.3-1.7v-5.2h1.3v5.1c0,0.6,0.2,1.1,0.5,1.4
	c0.3,0.4,0.8,0.5,1.3,0.5c0.3,0,0.6-0.1,1-0.2c0.3-0.2,0.6-0.4,0.8-0.7C998.9,99.8,999,99.4,999,98.9z M988.8,102.4
	c-0.8,0-1.4-0.2-2-0.5c-0.6-0.4-1-0.9-1.3-1.5s-0.4-1.4-0.4-2.2c0-0.8,0.2-1.6,0.5-2.2c0.3-0.6,0.7-1.1,1.3-1.5
	c0.6-0.4,1.2-0.5,1.9-0.5c0.6,0,1.1,0.1,1.6,0.3c0.5,0.2,0.8,0.5,1.1,0.9c0.3,0.4,0.5,0.8,0.5,1.3h-1.3c-0.1-0.4-0.3-0.7-0.6-1
	c-0.3-0.3-0.8-0.4-1.3-0.4c-0.5,0-0.9,0.1-1.3,0.4c-0.4,0.3-0.7,0.6-0.9,1.1c-0.2,0.5-0.3,1-0.3,1.6c0,0.6,0.1,1.2,0.3,1.7
	c0.2,0.5,0.5,0.8,0.9,1.1c0.4,0.3,0.8,0.4,1.3,0.4c0.3,0,0.6-0.1,0.9-0.2c0.3-0.1,0.5-0.3,0.7-0.5c0.2-0.2,0.3-0.5,0.4-0.8h1.3
	c-0.1,0.5-0.2,0.9-0.5,1.3c-0.3,0.4-0.6,0.7-1.1,0.9C989.9,102.3,989.4,102.4,988.8,102.4z M977.9,96.7c-0.4,0-0.7-0.1-0.9-0.4
	c-0.2-0.2-0.4-0.6-0.4-0.9c0-0.3,0.1-0.6,0.4-0.9c0.3-0.2,0.6-0.4,0.9-0.4c0.3,0,0.6,0.1,0.9,0.4c0.3,0.2,0.4,0.5,0.4,0.9
	c0,0.2-0.1,0.5-0.2,0.6c-0.1,0.2-0.3,0.3-0.5,0.5S978.1,96.7,977.9,96.7z M977.9,102.4c-0.4,0-0.7-0.1-0.9-0.4
	c-0.2-0.3-0.4-0.6-0.4-0.9c0-0.3,0.1-0.6,0.4-0.9c0.3-0.2,0.6-0.4,0.9-0.4c0.3,0,0.6,0.1,0.9,0.4c0.3,0.2,0.4,0.5,0.4,0.9
	c0,0.2-0.1,0.4-0.2,0.6c-0.1,0.2-0.3,0.3-0.5,0.5C978.3,102.3,978.1,102.4,977.9,102.4z M967.8,102.4c-0.8,0-1.6-0.2-2.2-0.5
	c-0.6-0.3-1.1-0.8-1.4-1.5c-0.3-0.6-0.5-1.4-0.5-2.2c0-0.8,0.2-1.6,0.5-2.2c0.3-0.6,0.8-1.1,1.4-1.5c0.6-0.4,1.3-0.5,2.1-0.5
	c0.5,0,1,0.1,1.5,0.3c0.5,0.2,0.9,0.4,1.2,0.8c0.4,0.3,0.6,0.8,0.8,1.3c0.2,0.5,0.3,1.1,0.3,1.8v0.6h-6.9v-1.4h4.8
	c0-0.3-0.1-0.6-0.2-0.9c-0.1-0.3-0.3-0.4-0.6-0.6c-0.2-0.1-0.5-0.2-0.9-0.2c-0.3,0-0.6,0.1-0.9,0.2c-0.3,0.2-0.5,0.4-0.6,0.6
	c-0.1,0.3-0.2,0.6-0.2,0.9v1.3c0,0.4,0.1,0.8,0.2,1c0.2,0.3,0.4,0.5,0.6,0.7c0.3,0.2,0.6,0.2,1,0.2c0.3,0,0.5,0,0.7-0.1
	c0.2-0.1,0.4-0.2,0.5-0.3c0.1-0.1,0.3-0.3,0.3-0.5l2.1,0.1c-0.1,0.5-0.3,0.9-0.7,1.3c-0.3,0.4-0.7,0.7-1.3,0.9
	C969.1,102.3,968.5,102.4,967.8,102.4z M962.5,96.4l-2.1,0.1c0-0.2-0.1-0.3-0.2-0.5c-0.1-0.1-0.3-0.3-0.5-0.3
	c-0.2-0.1-0.4-0.1-0.7-0.1c-0.4,0-0.6,0.1-0.9,0.2c-0.2,0.1-0.4,0.3-0.4,0.6c0,0.2,0.1,0.4,0.2,0.5c0.2,0.1,0.4,0.2,0.8,0.3l1.5,0.3
	c0.8,0.2,1.4,0.4,1.8,0.8c0.4,0.4,0.6,0.8,0.6,1.4c0,0.5-0.2,1-0.5,1.4c-0.3,0.4-0.7,0.7-1.3,0.9c-0.5,0.2-1.2,0.3-1.9,0.3
	c-1.1,0-1.9-0.2-2.6-0.7c-0.6-0.5-1-1.1-1.1-1.9l2.2-0.1c0.1,0.3,0.2,0.6,0.5,0.8c0.3,0.2,0.6,0.3,1,0.3c0.4,0,0.7-0.1,1-0.2
	c0.2-0.2,0.4-0.4,0.4-0.6c0-0.2-0.1-0.4-0.3-0.5c-0.2-0.1-0.4-0.2-0.8-0.3l-1.4-0.3c-0.8-0.2-1.4-0.4-1.8-0.8
	c-0.4-0.4-0.6-0.9-0.6-1.5c0-0.5,0.1-1,0.4-1.4c0.3-0.4,0.7-0.7,1.2-0.9c0.5-0.2,1.1-0.3,1.8-0.3c1,0,1.8,0.2,2.4,0.7
	C962,95.1,962.4,95.7,962.5,96.4z M950,100.8c0.3,0,0.6-0.1,0.9-0.2c0.3-0.1,0.5-0.3,0.6-0.5c0.1-0.2,0.2-0.5,0.2-0.8v-0.9
	c-0.1,0-0.2,0.1-0.3,0.1c-0.1,0-0.3,0.1-0.4,0.1c-0.2,0-0.3,0.1-0.5,0.1c-0.2,0-0.3,0-0.4,0.1c-0.3,0-0.5,0.1-0.7,0.2
	c-0.2,0.1-0.4,0.2-0.5,0.3c-0.1,0.1-0.2,0.3-0.2,0.5c0,0.3,0.1,0.5,0.3,0.7C949.3,100.8,949.6,100.8,950,100.8z M949.3,102.4
	c-0.5,0-1-0.1-1.4-0.3c-0.4-0.2-0.7-0.5-1-0.8c-0.2-0.4-0.4-0.8-0.4-1.4c0-0.5,0.1-0.8,0.3-1.1c0.2-0.3,0.4-0.6,0.7-0.7
	c0.3-0.2,0.6-0.3,1-0.4c0.4-0.1,0.8-0.2,1.2-0.2c0.5,0,0.9-0.1,1.2-0.1c0.3,0,0.5-0.1,0.6-0.2c0.1-0.1,0.2-0.2,0.2-0.4v0
	c0-0.3-0.1-0.6-0.3-0.8c-0.2-0.2-0.5-0.3-0.9-0.3c-0.4,0-0.7,0.1-1,0.3c-0.2,0.2-0.4,0.4-0.5,0.7l-2.1-0.2c0.1-0.5,0.3-0.9,0.6-1.3
	c0.3-0.4,0.7-0.6,1.2-0.8c0.5-0.2,1.1-0.3,1.7-0.3c0.5,0,0.9,0.1,1.3,0.2c0.4,0.1,0.8,0.3,1.1,0.5c0.3,0.2,0.6,0.5,0.8,0.9
	c0.2,0.3,0.3,0.8,0.3,1.3v5.5h-2.2v-1.1h-0.1c-0.1,0.3-0.3,0.5-0.5,0.7c-0.2,0.2-0.5,0.3-0.8,0.5
	C950.1,102.4,949.7,102.4,949.3,102.4z M937.8,102.3V91.3h7.4v1.9h-5v2.6h4.7v1.9h-4.7v2.6h5.1v1.9H937.8z M1146.1,77.4
	c-0.8,0-1.5-0.2-2-0.5c-0.6-0.4-1-0.8-1.3-1.5c-0.3-0.6-0.5-1.4-0.5-2.2c0-0.8,0.2-1.6,0.5-2.2c0.3-0.6,0.7-1.1,1.3-1.5
	c0.6-0.4,1.2-0.5,1.9-0.5c0.4,0,0.8,0.1,1.3,0.2s0.8,0.4,1.1,0.7c0.3,0.3,0.6,0.7,0.8,1.3c0.2,0.5,0.3,1.2,0.3,1.9v0.5h-6.3v-1.1h5
	c0-0.5-0.1-0.9-0.3-1.2c-0.2-0.4-0.4-0.6-0.8-0.9c-0.3-0.2-0.7-0.3-1.2-0.3c-0.5,0-0.9,0.1-1.3,0.4c-0.4,0.2-0.6,0.6-0.8,1
	c-0.2,0.4-0.3,0.8-0.3,1.3v0.7c0,0.6,0.1,1.1,0.3,1.6c0.2,0.4,0.5,0.8,0.9,1c0.4,0.2,0.8,0.3,1.3,0.3c0.3,0,0.6,0,0.9-0.1
	c0.3-0.1,0.5-0.2,0.7-0.4c0.2-0.2,0.3-0.4,0.5-0.7l1.2,0.3c-0.1,0.4-0.3,0.8-0.6,1.1c-0.3,0.3-0.7,0.6-1.1,0.7
	C1147.1,77.3,1146.6,77.4,1146.1,77.4z M1140.6,70.9l-1.1,0.3c-0.1-0.2-0.2-0.4-0.3-0.5c-0.1-0.2-0.3-0.3-0.6-0.4s-0.5-0.2-0.9-0.2
	c-0.5,0-0.9,0.1-1.3,0.3c-0.3,0.2-0.5,0.5-0.5,0.9c0,0.3,0.1,0.6,0.3,0.7c0.2,0.2,0.6,0.3,1.1,0.5l1.2,0.3c0.7,0.2,1.3,0.4,1.6,0.8
	c0.4,0.4,0.5,0.8,0.5,1.4c0,0.5-0.1,0.9-0.4,1.3c-0.3,0.4-0.6,0.7-1.1,0.9c-0.5,0.2-1,0.3-1.7,0.3c-0.8,0-1.5-0.2-2.1-0.5
	s-0.9-0.9-1-1.6l1.2-0.3c0.1,0.4,0.3,0.8,0.6,1c0.3,0.2,0.7,0.3,1.3,0.3c0.6,0,1.1-0.1,1.4-0.4c0.3-0.3,0.5-0.6,0.5-0.9
	c0-0.3-0.1-0.5-0.3-0.7c-0.2-0.2-0.5-0.3-0.9-0.4l-1.4-0.3c-0.7-0.2-1.3-0.5-1.7-0.8c-0.3-0.4-0.5-0.8-0.5-1.4
	c0-0.5,0.1-0.9,0.4-1.2c0.3-0.4,0.6-0.6,1.1-0.8c0.5-0.2,1-0.3,1.5-0.3c0.8,0,1.4,0.2,1.9,0.5C1140.1,69.9,1140.4,70.3,1140.6,70.9z
	 M1128.9,76.3c0.5,0,0.9-0.1,1.3-0.3c0.3-0.2,0.6-0.4,0.8-0.8c0.2-0.3,0.3-0.6,0.3-1v-1.2c-0.1,0.1-0.2,0.1-0.4,0.2
	c-0.2,0-0.4,0.1-0.6,0.1c-0.2,0-0.5,0.1-0.7,0.1c-0.2,0-0.4,0-0.5,0.1c-0.3,0-0.6,0.1-0.9,0.2c-0.3,0.1-0.5,0.2-0.7,0.4
	c-0.2,0.2-0.3,0.4-0.3,0.8c0,0.4,0.2,0.8,0.5,1C1128,76.2,1128.4,76.3,1128.9,76.3z M1128.7,77.4c-0.5,0-1-0.1-1.4-0.3
	c-0.4-0.2-0.8-0.5-1-0.9c-0.2-0.4-0.4-0.8-0.4-1.4c0-0.5,0.1-0.8,0.3-1.1c0.2-0.3,0.4-0.5,0.7-0.7s0.6-0.3,1-0.4
	c0.4-0.1,0.8-0.2,1.1-0.2c0.5-0.1,0.9-0.1,1.2-0.1c0.3,0,0.5-0.1,0.7-0.2c0.1-0.1,0.2-0.2,0.2-0.4v0c0-0.5-0.1-0.9-0.4-1.2
	c-0.3-0.3-0.7-0.4-1.3-0.4c-0.6,0-1.1,0.1-1.4,0.4s-0.6,0.5-0.7,0.8l-1.2-0.4c0.2-0.5,0.5-0.9,0.9-1.2c0.4-0.3,0.7-0.5,1.2-0.6
	c0.4-0.1,0.8-0.2,1.3-0.2c0.3,0,0.6,0,0.9,0.1c0.3,0.1,0.7,0.2,1,0.4c0.3,0.2,0.6,0.5,0.8,0.9c0.2,0.4,0.3,0.9,0.3,1.6v5.4h-1.3
	v-1.1h-0.1c-0.1,0.2-0.2,0.4-0.4,0.6c-0.2,0.2-0.5,0.4-0.8,0.5C1129.6,77.4,1129.2,77.4,1128.7,77.4z M1117.5,77.3V66.3h6.6v1.2
	h-5.3v3.7h4.9v1.2h-4.9v3.7h5.3v1.2H1117.5z M1107.9,77.4c-0.8,0-1.5-0.2-2-0.5c-0.6-0.4-1-0.8-1.3-1.5c-0.3-0.6-0.5-1.4-0.5-2.2
	c0-0.8,0.2-1.6,0.5-2.2c0.3-0.6,0.7-1.1,1.3-1.5c0.6-0.4,1.2-0.5,1.9-0.5c0.4,0,0.8,0.1,1.3,0.2s0.8,0.4,1.1,0.7
	c0.3,0.3,0.6,0.7,0.8,1.3c0.2,0.5,0.3,1.2,0.3,1.9v0.5h-6.3v-1.1h5c0-0.5-0.1-0.9-0.3-1.2c-0.2-0.4-0.4-0.6-0.8-0.9
	c-0.3-0.2-0.7-0.3-1.2-0.3c-0.5,0-0.9,0.1-1.3,0.4c-0.4,0.2-0.6,0.6-0.8,1c-0.2,0.4-0.3,0.8-0.3,1.3v0.7c0,0.6,0.1,1.1,0.3,1.6
	c0.2,0.4,0.5,0.8,0.9,1c0.4,0.2,0.8,0.3,1.3,0.3c0.3,0,0.6,0,0.9-0.1c0.3-0.1,0.5-0.2,0.7-0.4c0.2-0.2,0.3-0.4,0.5-0.7l1.2,0.3
	c-0.1,0.4-0.3,0.8-0.6,1.1c-0.3,0.3-0.7,0.6-1.1,0.7C1108.9,77.3,1108.4,77.4,1107.9,77.4z M1103.1,69.1l-3,8.2h-1.3l-3-8.2h1.4
	l2.3,6.5h0.1l2.3-6.5H1103.1z M1093.4,67.7c-0.2,0-0.5-0.1-0.6-0.3c-0.2-0.2-0.3-0.4-0.3-0.6s0.1-0.4,0.3-0.6
	c0.2-0.2,0.4-0.3,0.6-0.3c0.2,0,0.5,0.1,0.6,0.3c0.2,0.2,0.3,0.4,0.3,0.6s-0.1,0.4-0.3,0.6C1093.9,67.6,1093.7,67.7,1093.4,67.7z
	 M1092.8,77.3v-8.2h1.3v8.2H1092.8z M1087.9,67.1h1.3v7.8c0,0.4,0.1,0.6,0.2,0.8c0.1,0.2,0.2,0.3,0.4,0.4c0.2,0.1,0.3,0.1,0.5,0.1
	c0.1,0,0.3,0,0.3,0c0.1,0,0.2,0,0.2,0l0.3,1.1c-0.1,0-0.2,0.1-0.4,0.1c-0.2,0-0.3,0.1-0.6,0.1c-0.4,0-0.7-0.1-1-0.2
	c-0.3-0.2-0.6-0.4-0.8-0.7c-0.2-0.3-0.3-0.7-0.3-1.2V67.1z M1090.9,69.1v1.1h-4.2v-1.1H1090.9z M1082.3,77.4c-0.8,0-1.4-0.2-2-0.5
	s-1-0.9-1.3-1.5c-0.3-0.6-0.4-1.4-0.4-2.2c0-0.8,0.2-1.6,0.5-2.2c0.3-0.6,0.7-1.1,1.3-1.5c0.6-0.4,1.2-0.5,1.9-0.5
	c0.6,0,1.1,0.1,1.6,0.3s0.8,0.5,1.1,0.9c0.3,0.4,0.5,0.8,0.5,1.3h-1.3c-0.1-0.4-0.3-0.7-0.6-1c-0.3-0.3-0.8-0.4-1.3-0.4
	c-0.5,0-0.9,0.1-1.3,0.4c-0.4,0.3-0.7,0.6-0.9,1.1c-0.2,0.5-0.3,1-0.3,1.6c0,0.6,0.1,1.2,0.3,1.7c0.2,0.5,0.5,0.8,0.9,1.1
	c0.4,0.3,0.8,0.4,1.3,0.4c0.3,0,0.6-0.1,0.9-0.2s0.5-0.3,0.7-0.5c0.2-0.2,0.3-0.5,0.4-0.8h1.3c-0.1,0.5-0.2,0.9-0.5,1.3
	c-0.3,0.4-0.6,0.7-1.1,0.9C1083.4,77.3,1082.9,77.4,1082.3,77.4z M1073.1,76.3c0.5,0,0.9-0.1,1.3-0.3c0.3-0.2,0.6-0.4,0.8-0.8
	c0.2-0.3,0.3-0.6,0.3-1v-1.2c-0.1,0.1-0.2,0.1-0.4,0.2c-0.2,0-0.4,0.1-0.6,0.1c-0.2,0-0.5,0.1-0.7,0.1c-0.2,0-0.4,0-0.5,0.1
	c-0.3,0-0.6,0.1-0.9,0.2c-0.3,0.1-0.5,0.2-0.7,0.4c-0.2,0.2-0.3,0.4-0.3,0.8c0,0.4,0.2,0.8,0.5,1
	C1072.2,76.2,1072.6,76.3,1073.1,76.3z M1072.9,77.4c-0.5,0-1-0.1-1.4-0.3c-0.4-0.2-0.8-0.5-1-0.9c-0.2-0.4-0.4-0.8-0.4-1.4
	c0-0.5,0.1-0.8,0.3-1.1c0.2-0.3,0.4-0.5,0.7-0.7s0.6-0.3,1-0.4c0.4-0.1,0.8-0.2,1.1-0.2c0.5-0.1,0.9-0.1,1.2-0.1
	c0.3,0,0.5-0.1,0.7-0.2c0.1-0.1,0.2-0.2,0.2-0.4v0c0-0.5-0.1-0.9-0.4-1.2c-0.3-0.3-0.7-0.4-1.3-0.4c-0.6,0-1.1,0.1-1.4,0.4
	s-0.6,0.5-0.7,0.8l-1.2-0.4c0.2-0.5,0.5-0.9,0.9-1.2c0.4-0.3,0.7-0.5,1.2-0.6c0.4-0.1,0.8-0.2,1.3-0.2c0.3,0,0.6,0,0.9,0.1
	c0.3,0.1,0.7,0.2,1,0.4c0.3,0.2,0.6,0.5,0.8,0.9c0.2,0.4,0.3,0.9,0.3,1.6v5.4h-1.3v-1.1h-0.1c-0.1,0.2-0.2,0.4-0.4,0.6
	c-0.2,0.2-0.5,0.4-0.8,0.5C1073.8,77.4,1073.4,77.4,1072.9,77.4z M1064.9,77.3v-8.2h1.2v1.2h0.1c0.1-0.4,0.4-0.7,0.8-1
	c0.4-0.3,0.8-0.4,1.3-0.4c0.1,0,0.2,0,0.3,0c0.1,0,0.2,0,0.3,0v1.3c0,0-0.1,0-0.3,0c-0.1,0-0.3,0-0.5,0c-0.4,0-0.8,0.1-1.1,0.3
	c-0.3,0.2-0.6,0.4-0.7,0.7c-0.2,0.3-0.3,0.6-0.3,1v5.2H1064.9z M1059.6,77.4c-0.8,0-1.5-0.2-2-0.5c-0.6-0.4-1-0.8-1.3-1.5
	c-0.3-0.6-0.5-1.4-0.5-2.2c0-0.8,0.2-1.6,0.5-2.2c0.3-0.6,0.7-1.1,1.3-1.5c0.6-0.4,1.2-0.5,1.9-0.5c0.4,0,0.8,0.1,1.3,0.2
	s0.8,0.4,1.1,0.7c0.3,0.3,0.6,0.7,0.8,1.3c0.2,0.5,0.3,1.2,0.3,1.9v0.5h-6.3v-1.1h5c0-0.5-0.1-0.9-0.3-1.2c-0.2-0.4-0.4-0.6-0.8-0.9
	c-0.3-0.2-0.7-0.3-1.2-0.3c-0.5,0-0.9,0.1-1.3,0.4c-0.4,0.2-0.6,0.6-0.8,1c-0.2,0.4-0.3,0.8-0.3,1.3v0.7c0,0.6,0.1,1.1,0.3,1.6
	c0.2,0.4,0.5,0.8,0.9,1c0.4,0.2,0.8,0.3,1.3,0.3c0.3,0,0.6,0,0.9-0.1c0.3-0.1,0.5-0.2,0.7-0.4c0.2-0.2,0.3-0.4,0.5-0.7l1.2,0.3
	c-0.1,0.4-0.3,0.8-0.6,1.1c-0.3,0.3-0.7,0.6-1.1,0.7C1060.7,77.3,1060.2,77.4,1059.6,77.4z M1051.4,67.1h1.3v7.8
	c0,0.4,0.1,0.6,0.2,0.8c0.1,0.2,0.2,0.3,0.4,0.4c0.2,0.1,0.3,0.1,0.5,0.1c0.1,0,0.3,0,0.3,0c0.1,0,0.2,0,0.2,0l0.3,1.1
	c-0.1,0-0.2,0.1-0.4,0.1c-0.2,0-0.3,0.1-0.6,0.1c-0.4,0-0.7-0.1-1-0.2c-0.3-0.2-0.6-0.4-0.8-0.7c-0.2-0.3-0.3-0.7-0.3-1.2V67.1z
	 M1054.4,69.1v1.1h-4.2v-1.1H1054.4z M1043.3,72.3v4.9h-1.3v-8.2h1.2v1.3h0.1c0.2-0.4,0.5-0.7,0.9-1c0.4-0.3,0.9-0.4,1.5-0.4
	c0.6,0,1,0.1,1.5,0.3c0.4,0.2,0.7,0.6,1,1c0.2,0.5,0.3,1,0.3,1.7v5.2h-1.3v-5.1c0-0.6-0.2-1.1-0.5-1.5c-0.3-0.4-0.8-0.5-1.4-0.5
	c-0.4,0-0.8,0.1-1.1,0.3c-0.3,0.2-0.6,0.4-0.7,0.8C1043.4,71.5,1043.3,71.9,1043.3,72.3z M1039.6,66.3v10.9h-1.3V66.3H1039.6z
	 M1030.5,71.7c-0.4,0-0.7-0.1-0.9-0.4c-0.2-0.2-0.4-0.6-0.4-0.9c0-0.3,0.1-0.6,0.4-0.9c0.3-0.2,0.6-0.4,0.9-0.4
	c0.3,0,0.6,0.1,0.9,0.4c0.3,0.2,0.4,0.5,0.4,0.9c0,0.2-0.1,0.5-0.2,0.6c-0.1,0.2-0.3,0.3-0.5,0.5
	C1030.9,71.6,1030.7,71.7,1030.5,71.7z M1030.5,77.4c-0.4,0-0.7-0.1-0.9-0.4c-0.2-0.3-0.4-0.6-0.4-0.9c0-0.3,0.1-0.6,0.4-0.9
	c0.3-0.2,0.6-0.4,0.9-0.4c0.3,0,0.6,0.1,0.9,0.4c0.3,0.2,0.4,0.5,0.4,0.9c0,0.2-0.1,0.4-0.2,0.6c-0.1,0.2-0.3,0.3-0.5,0.5
	C1030.9,77.3,1030.7,77.4,1030.5,77.4z M1020.5,77.4c-0.8,0-1.6-0.2-2.2-0.5c-0.6-0.3-1.1-0.8-1.4-1.5c-0.3-0.6-0.5-1.4-0.5-2.2
	c0-0.8,0.2-1.6,0.5-2.2c0.3-0.6,0.8-1.1,1.4-1.5c0.6-0.4,1.3-0.5,2.1-0.5c0.5,0,1,0.1,1.5,0.3c0.5,0.2,0.9,0.4,1.2,0.8
	c0.4,0.3,0.6,0.8,0.8,1.3c0.2,0.5,0.3,1.1,0.3,1.8v0.6h-6.9v-1.4h4.8c0-0.3-0.1-0.6-0.2-0.9c-0.1-0.3-0.3-0.4-0.6-0.6
	c-0.2-0.1-0.5-0.2-0.9-0.2c-0.3,0-0.6,0.1-0.9,0.2c-0.3,0.2-0.5,0.4-0.6,0.6c-0.1,0.3-0.2,0.6-0.2,0.9v1.3c0,0.4,0.1,0.8,0.2,1
	c0.2,0.3,0.4,0.5,0.6,0.7s0.6,0.2,1,0.2c0.3,0,0.5,0,0.7-0.1c0.2-0.1,0.4-0.2,0.5-0.3c0.1-0.1,0.3-0.3,0.3-0.5l2.1,0.1
	c-0.1,0.5-0.3,0.9-0.7,1.3c-0.3,0.4-0.7,0.7-1.3,0.9C1021.7,77.3,1021.1,77.4,1020.5,77.4z M1009.5,73.2c0,0.5,0.1,0.9,0.2,1.3
	c0.1,0.4,0.3,0.6,0.6,0.8c0.3,0.2,0.6,0.3,0.9,0.3c0.4,0,0.7-0.1,0.9-0.3c0.3-0.2,0.4-0.5,0.6-0.9c0.1-0.4,0.2-0.8,0.2-1.3
	c0-0.5-0.1-0.9-0.2-1.2c-0.1-0.4-0.3-0.6-0.6-0.8c-0.3-0.2-0.6-0.3-0.9-0.3c-0.4,0-0.7,0.1-0.9,0.3c-0.3,0.2-0.4,0.5-0.6,0.8
	C1009.5,72.3,1009.5,72.7,1009.5,73.2z M1007.2,80.3V69.1h2.2v1.4h0.1c0.1-0.2,0.2-0.4,0.4-0.7c0.2-0.2,0.4-0.4,0.7-0.6
	c0.3-0.2,0.7-0.2,1.2-0.2c0.6,0,1.1,0.2,1.7,0.5c0.5,0.3,0.9,0.8,1.2,1.4c0.3,0.6,0.5,1.4,0.5,2.3c0,0.9-0.1,1.7-0.4,2.3
	c-0.3,0.6-0.7,1.1-1.2,1.4c-0.5,0.3-1.1,0.5-1.7,0.5c-0.4,0-0.8-0.1-1.1-0.2c-0.3-0.1-0.6-0.3-0.8-0.5c-0.2-0.2-0.3-0.4-0.4-0.7
	h-0.1v4.4H1007.2z M999.9,80.3c-0.3,0-0.6,0-0.8-0.1c-0.2,0-0.5-0.1-0.6-0.2l0.5-1.7c0.3,0.1,0.5,0.1,0.7,0.1c0.2,0,0.4,0,0.6-0.1
	c0.2-0.1,0.3-0.3,0.4-0.5l0.1-0.3l-2.9-8.4h2.4l1.7,6h0.1l1.7-6h2.4l-3.2,9.1c-0.2,0.4-0.4,0.8-0.6,1.2c-0.3,0.3-0.6,0.6-1,0.8
	C1000.9,80.2,1000.4,80.3,999.9,80.3z M993.2,67.1h2.3v7.6c0,0.2,0,0.4,0.1,0.5c0.1,0.1,0.2,0.2,0.3,0.2c0.1,0,0.3,0.1,0.4,0.1
	c0.1,0,0.2,0,0.3,0c0.1,0,0.2,0,0.2,0l0.4,1.7c-0.1,0-0.3,0.1-0.5,0.1c-0.2,0-0.5,0.1-0.8,0.1c-0.5,0-1-0.1-1.4-0.2
	c-0.4-0.2-0.7-0.4-1-0.8c-0.2-0.4-0.3-0.8-0.3-1.3V67.1z M997,69.1v1.7h-4.9v-1.7H997z M982.1,72.5v4.7h-2.3v-8.2h2.2v1.4h0.1
	c0.2-0.5,0.5-0.9,0.9-1.1c0.4-0.3,0.9-0.4,1.6-0.4c0.6,0,1.1,0.1,1.5,0.4s0.8,0.6,1,1.1c0.2,0.5,0.4,1,0.4,1.6v5.2h-2.3v-4.8
	c0-0.5-0.1-0.9-0.4-1.2c-0.3-0.3-0.6-0.4-1.1-0.4c-0.3,0-0.6,0.1-0.8,0.2c-0.2,0.1-0.4,0.3-0.5,0.6
	C982.2,71.9,982.1,72.2,982.1,72.5z M974.3,75.7c0.4,0,0.7-0.1,0.9-0.3c0.3-0.2,0.4-0.5,0.6-0.9c0.1-0.4,0.2-0.8,0.2-1.3
	c0-0.5-0.1-0.9-0.2-1.3c-0.1-0.4-0.3-0.7-0.6-0.9c-0.3-0.2-0.6-0.3-0.9-0.3c-0.4,0-0.7,0.1-1,0.3c-0.3,0.2-0.4,0.5-0.6,0.9
	c-0.1,0.4-0.2,0.8-0.2,1.3c0,0.5,0.1,0.9,0.2,1.3c0.1,0.4,0.3,0.7,0.6,0.9C973.6,75.6,974,75.7,974.3,75.7z M974.3,77.4
	c-0.8,0-1.5-0.2-2.1-0.5c-0.6-0.4-1.1-0.8-1.4-1.5c-0.3-0.6-0.5-1.4-0.5-2.2c0-0.8,0.2-1.6,0.5-2.2c0.3-0.6,0.8-1.1,1.4-1.5
	c0.6-0.4,1.3-0.5,2.1-0.5c0.8,0,1.5,0.2,2.1,0.5c0.6,0.4,1.1,0.8,1.4,1.5c0.3,0.6,0.5,1.4,0.5,2.2c0,0.8-0.2,1.6-0.5,2.2
	c-0.3,0.6-0.8,1.1-1.4,1.5C975.9,77.2,975.1,77.4,974.3,77.4z M967.7,68c-0.3,0-0.6-0.1-0.9-0.3c-0.2-0.2-0.4-0.5-0.4-0.8
	c0-0.3,0.1-0.6,0.4-0.8c0.2-0.2,0.5-0.3,0.9-0.3c0.3,0,0.6,0.1,0.9,0.3c0.2,0.2,0.4,0.5,0.4,0.8c0,0.3-0.1,0.6-0.4,0.8
	C968.3,67.9,968,68,967.7,68z M966.5,77.3v-8.2h2.3v8.2H966.5z M961.3,67.1h2.3v7.6c0,0.2,0,0.4,0.1,0.5c0.1,0.1,0.2,0.2,0.3,0.2
	c0.1,0,0.3,0.1,0.4,0.1c0.1,0,0.2,0,0.3,0c0.1,0,0.2,0,0.2,0l0.4,1.7c-0.1,0-0.3,0.1-0.5,0.1c-0.2,0-0.5,0.1-0.8,0.1
	c-0.5,0-1-0.1-1.4-0.2c-0.4-0.2-0.7-0.4-1-0.8c-0.2-0.4-0.3-0.8-0.3-1.3V67.1z M965.1,69.1v1.7h-4.9v-1.7H965.1z M955.2,75.7
	c0.4,0,0.7-0.1,0.9-0.3c0.3-0.2,0.4-0.5,0.6-0.9c0.1-0.4,0.2-0.8,0.2-1.3c0-0.5-0.1-0.9-0.2-1.3c-0.1-0.4-0.3-0.7-0.6-0.9
	c-0.3-0.2-0.6-0.3-0.9-0.3c-0.4,0-0.7,0.1-1,0.3c-0.3,0.2-0.4,0.5-0.6,0.9c-0.1,0.4-0.2,0.8-0.2,1.3c0,0.5,0.1,0.9,0.2,1.3
	c0.1,0.4,0.3,0.7,0.6,0.9C954.5,75.6,954.8,75.7,955.2,75.7z M955.2,77.4c-0.8,0-1.5-0.2-2.1-0.5c-0.6-0.4-1.1-0.8-1.4-1.5
	c-0.3-0.6-0.5-1.4-0.5-2.2c0-0.8,0.2-1.6,0.5-2.2c0.3-0.6,0.8-1.1,1.4-1.5c0.6-0.4,1.3-0.5,2.1-0.5c0.8,0,1.5,0.2,2.1,0.5
	c0.6,0.4,1.1,0.8,1.4,1.5c0.3,0.6,0.5,1.4,0.5,2.2c0,0.8-0.2,1.6-0.5,2.2c-0.3,0.6-0.8,1.1-1.4,1.5C956.7,77.2,956,77.4,955.2,77.4z
	 M937.8,66.3h2.8l3,7.3h0.1l3-7.3h2.8v10.9h-2.2v-7.1h-0.1l-2.8,7H943l-2.8-7.1h-0.1v7.1h-2.2V66.3z"/>
<g>
	<g>
		<polyline class="st2" points="132.6,219.8 132.6,191.8 138.6,191.8 124.6,177.6 110.6,191.8 116.6,191.8 116.6,218.8 124.6,218.8 
					"/>
		<polyline class="st2" points="147.6,174.8 147.6,218.8 163.6,218.8 163.6,166.8 169.6,166.8 155.6,152.6 141.6,166.8 148.6,166.8 
					"/>
		<path class="st2" d="M182.6,218.8h-4v-77h-6l14-14.2l14,14.2h-6v65C194.6,213.5,189.2,218.8,182.6,218.8z"/>
	</g>
	<g>
		<rect x="319.6" y="179.7" class="st2" width="19" height="23"/>
		<rect x="347.6" y="159.7" class="st2" width="20" height="43"/>
		<path class="st2" d="M395.6,139.7h-19v63h7c6.6,0,12-5.4,12-12V139.7z"/>
		<line class="st2" x1="309.6" y1="125.7" x2="309.6" y2="221.7"/>
		<line class="st2" x1="300.6" y1="212.7" x2="396.6" y2="212.7"/>
	</g>
	<g>
		<path class="st2" d="M685.7,133.2h95v53c0,6.6-5.4,12-12,12h-82v-57"/>
		<line class="st2" x1="721.7" y1="198.2" x2="721.7" y2="214.2"/>
		<line class="st2" x1="745.7" y1="198.2" x2="745.7" y2="214.2"/>
		<line class="st2" x1="711.7" y1="214.2" x2="756.7" y2="214.2"/>
		<polyline class="st2" points="704.5,166.6 710.3,172.5 724.7,158.1 		"/>
		<g>
			<line class="st2" x1="746.3" y1="173" x2="761.7" y2="157.7"/>
			<line class="st2" x1="746.3" y1="157.7" x2="761.7" y2="173"/>
		</g>
	</g>
	<g>
		<g id="pencil-96px">
			<line class="st2" x1="504.2" y1="193" x2="524.5" y2="213.2"/>
			<path class="st2" d="M569.6,168.1l-45.2,45.2l-27.2,7l7-27.2l65.8-65.8l11.7,11.7c4.7,4.7,4.7,12.3,0,17l-6.5,6.5L555,142.2"/>
			<polygon class="st1" points="499.8,211.5 497.2,220.2 506,217.6 			"/>
		</g>
		<line class="st2" x1="555.7" y1="196.7" x2="585.7" y2="196.7"/>
		<line class="st2" x1="544.7" y1="209.7" x2="574.7" y2="209.7"/>
	</g>
	<g>
		<path class="st2" d="M502.4,373.7h66c6.6,0,12-5.4,12-12v-42h-78V373.7z"/>
		<path class="st2" d="M566.4,308.7v-4c0-13.8-11.2-25-25-25h0c-13.8,0-25,11.2-25,25v15"/>
		<line class="st2" x1="533.4" y1="346.7" x2="549.4" y2="346.7"/>
	</g>
	<g>
		<g>
			<circle class="st2" cx="348.4" cy="326.7" r="10.2"/>
			<path class="st2" d="M379.4,331.9v-10.6l-7.7-1.1c-0.5-2-1.3-3.8-2.3-5.5l4.6-6.2l-7.5-7.5l-6.2,4.6c-1.7-1-3.6-1.8-5.5-2.3
				l-1.1-7.7h-10.6l-1.1,7.7c-2,0.5-3.8,1.3-5.5,2.3l-6.2-4.6l-7.5,7.5l4.6,6.2c-1,1.7-1.8,3.6-2.3,5.5l-7.7,1.1v10.6l7.7,1.1
				c0.5,2,1.3,3.8,2.3,5.5l-4.6,6.2l7.5,7.5l6.2-4.6c1.7,1,3.6,1.8,5.5,2.3l1.1,7.7h10.6l1.1-7.7c2-0.5,3.8-1.3,5.5-2.3l6.2,4.6
				l7.5-7.5l-4.6-6.2c1-1.7,1.8-3.6,2.3-5.5L379.4,331.9z"/>
		</g>
		<path class="st2" d="M303.8,341.2c4.5,13.7,15.2,25.2,30,30.1c24.7,8.1,51.2-5.3,59.3-30c1.8-5.3,2.5-10.8,2.3-16.1"/>
		<path class="st2" d="M393,311.5c-4.6-13.5-15.2-24.7-29.8-29.5c-24.7-8.1-51.2,5.3-59.3,30c-1.8,5.3-2.5,10.7-2.3,16"/>
		<polyline class="st2" points="313.2,344.6 303.7,341.4 300.6,350.9 		"/>
		<polyline class="st2" points="383.9,308.9 393.4,312 396.5,302.5 		"/>
	</g>
	<g>
		<path class="st2" d="M768.2,303.2h-32l-10-13h-40v65.5c0,4.1,3.4,7.5,7.5,7.5h0c4.1,0,7.5-3.4,7.5-7.5v-45.5h79v41
			c0,6.6-5.4,12-12,12h-62"/>
		<line class="st2" x1="752.2" y1="330.6" x2="724.9" y2="330.6"/>
		<path class="st2" d="M726.2,330.6h4.7c2.5,0,4.8,1.5,5.8,3.8l2.8,6.4c1,2.3,3.3,3.8,5.8,3.8h7.8"/>
		<circle class="st2" cx="755.2" cy="330.6" r="3.5"/>
		<circle class="st2" cx="756.2" cy="344.7" r="3.5"/>
		<circle class="st2" cx="721.3" cy="330.6" r="3.5"/>
	</g>
	<g>
		<rect x="110.6" y="282.7" class="st2" width="90" height="29"/>
		<rect x="110.6" y="311.7" class="st2" width="90" height="30"/>
		<path class="st2" d="M188.6,370.7h-78v-29h90v17C200.6,365.3,195.2,370.7,188.6,370.7z"/>
		<circle class="st2" cx="125.6" cy="296.7" r="4"/>
		<circle class="st2" cx="141.6" cy="296.7" r="4"/>
		<line class="st2" x1="152.6" y1="296.7" x2="188.6" y2="296.7"/>
		<circle class="st2" cx="125.6" cy="326.7" r="4"/>
		<circle class="st2" cx="141.6" cy="326.7" r="4"/>
		<line class="st2" x1="152.6" y1="326.7" x2="188.6" y2="326.7"/>
		<circle class="st2" cx="125.6" cy="355.7" r="4"/>
		<circle class="st2" cx="141.6" cy="355.7" r="4"/>
		<line class="st2" x1="152.6" y1="355.7" x2="188.6" y2="355.7"/>
	</g>
</g>
</svg>
