<svg id="Layer_1" data-name="Layer 1" xmlns="http://www.w3.org/2000/svg" viewBox="0 0 2000 780"><defs><style>.cls-1{fill:#f56d26}.cls-10,.cls-2,.cls-3,.cls-4,.cls-5,.cls-7,.cls-9{stroke-width:3.43px}.cls-2,.cls-3,.cls-5,.cls-7,.cls-9{stroke:#2f2a6b}.cls-2,.cls-3{fill:#2f2a6b}.cls-10,.cls-14,.cls-2,.cls-9{stroke-linecap:round;stroke-linejoin:round}.cls-16,.cls-3,.cls-4,.cls-5,.cls-7{stroke-miterlimit:10}.cls-17{fill:#fbefdb}.cls-10,.cls-14,.cls-4,.cls-5,.cls-9{fill:none}.cls-10,.cls-4{stroke:#ccb1ed}.cls-18{fill:#6fcfbe}.cls-19{fill:#a282ee}.cls-21{fill:#a989f5}.cls-23{fill:#7759b6}.cls-16{stroke-width:3.43px}.cls-25{fill:#d9cebc}.cls-16{stroke:#a989f5}.cls-16,.cls-7{fill:#fff}.cls-26{fill:#ff9273}.cls-14{stroke:#5943af;stroke-width:10.29px}.cls-27{fill:#9d80e9}</style></defs><path class="cls-16" d="M819.12 323.64l-13.1 49.59M857.38 289.63c0 18.14-14.71 32.85-32.85 32.85s-32.85-14.71-32.85-32.85c0-6.45 1.86-12.46 5.07-17.54 5.82-9.2 16.09-15.31 27.78-15.31 18.14 0 32.85 14.71 32.85 32.85zM772.14 544.62c0 18.14-14.71 32.85-32.85 32.85s-32.85-14.71-32.85-32.85c0-6.45 1.86-12.46 5.07-17.54 5.82-9.2 16.09-15.31 27.78-15.31 18.14 0 32.85 14.71 32.85 32.85zM671.78 503.84l39.18 21.36M150.28 463.27l32.02 20.11M161.34 292.45l25.14-26.56"/><path fill="#232150" d="M1000 0h1000v780H1000z"/><path class="cls-5" d="M298.23 421.84v-65.65M298.23 321.87v-44.65"/><path d="M679.62 260.06v-62.97c0-4.74-3.84-8.58-8.58-8.58H306.8c-4.74 0-8.58 3.84-8.58 8.58v62.97h381.39z" fill="#2f2a6b"/><path d="M679.62 425.65v51.48c0 27.31-22.13 49.45-49.45 49.45H366.04" stroke-width="3.43" fill="none" stroke-miterlimit="10" stroke="#2f2a6b"/><path class="cls-5" d="M679.62 303.22v89.19M679.62 260.06v-62.97c0-4.74-3.84-8.58-8.58-8.58H306.8c-4.74 0-8.58 3.84-8.58 8.58v62.97h381.39z"/><path class="cls-7" d="M260.46 610.85c49.75 0 90.07-40.33 90.07-90.07s-40.33-90.07-90.07-90.07-90.07 40.33-90.07 90.07 40.33 90.07 90.07 90.07z"/><path class="cls-7" d="M260.46 610.85c49.75 0 90.07-40.33 90.07-90.07s-40.33-90.07-90.07-90.07-90.07 40.33-90.07 90.07 40.33 90.07 90.07 90.07z"/><path class="cls-25" d="M624.36 401.13h-83.83c-3.48 0-6.3 2.82-6.3 6.3s2.82 6.3 6.3 6.3h83.83c3.48 0 6.3-2.82 6.3-6.3s-2.82-6.3-6.3-6.3zM512.31 401.07H353.5c-3.48 0-6.3 2.82-6.3 6.3s2.82 6.3 6.3 6.3h158.81c3.48 0 6.3-2.82 6.3-6.3s-2.82-6.3-6.3-6.3zM353.51 345.3h100.3c3.48 0 6.3-2.82 6.3-6.3s-2.82-6.3-6.3-6.3h-100.3c-3.48 0-6.3 2.82-6.3 6.3s2.82 6.3 6.3 6.3zM482.01 345.33h142.34c3.48 0 6.3-2.82 6.3-6.3s-2.82-6.3-6.3-6.3H482.01c-3.48 0-6.3 2.82-6.3 6.3s2.82 6.3 6.3 6.3zM353.51 379.48h45.78c3.48 0 6.3-2.82 6.3-6.3s-2.82-6.3-6.3-6.3h-45.78c-3.48 0-6.3 2.82-6.3 6.3s2.82 6.3 6.3 6.3zM556.14 379.52h68.22c3.48 0 6.3-2.82 6.3-6.3s-2.82-6.3-6.3-6.3h-68.22c-3.48 0-6.3 2.82-6.3 6.3s2.82 6.3 6.3 6.3zM427.48 379.52h100.45c3.48 0 6.3-2.82 6.3-6.3s-2.82-6.3-6.3-6.3H427.48c-3.48 0-6.3 2.82-6.3 6.3s2.82 6.3 6.3 6.3zM475.72 298.54h-64.3c-3.48 0-6.3 2.82-6.3 6.3s2.82 6.3 6.3 6.3h64.3c3.48 0 6.3-2.82 6.3-6.3s-2.82-6.3-6.3-6.3zM624.35 298.54H503.03c-3.48 0-6.3 2.82-6.3 6.3s2.82 6.3 6.3 6.3h121.32c3.48 0 6.3-2.82 6.3-6.3s-2.82-6.3-6.3-6.3zM383.21 298.52H353.5c-3.48 0-6.3 2.82-6.3 6.3s2.82 6.3 6.3 6.3h29.71c3.48 0 6.3-2.82 6.3-6.3s-2.82-6.3-6.3-6.3zM502.13 447.92h64.3c3.48 0 6.3-2.82 6.3-6.3s-2.82-6.3-6.3-6.3h-64.3c-3.48 0-6.3 2.82-6.3 6.3s2.82 6.3 6.3 6.3zM353.51 447.85h121.32c3.48 0 6.3-2.82 6.3-6.3s-2.82-6.3-6.3-6.3H353.51c-3.48 0-6.3 2.82-6.3 6.3s2.82 6.3 6.3 6.3zM594.65 447.92h29.71c3.48 0 6.3-2.82 6.3-6.3s-2.82-6.3-6.3-6.3h-29.71c-3.48 0-6.3 2.82-6.3 6.3s2.82 6.3 6.3 6.3zM624.36 469.43h-57.5c-3.48 0-6.3 2.82-6.3 6.3s2.82 6.3 6.3 6.3h57.5c3.48 0 6.3-2.82 6.3-6.3s-2.82-6.3-6.3-6.3zM424.49 469.45h-70.98c-3.48 0-6.3 2.82-6.3 6.3s2.82 6.3 6.3 6.3h70.98c3.48 0 6.3-2.82 6.3-6.3s-2.82-6.3-6.3-6.3zM538.64 469.45h-86.85c-3.48 0-6.3 2.82-6.3 6.3s2.82 6.3 6.3 6.3h86.85c3.48 0 6.3-2.82 6.3-6.3s-2.82-6.3-6.3-6.3z"/><path class="cls-14" d="M260.45 469.45c15.08 0 27.31 12.24 27.31 27.31v21.54h-54.64v-21.54c0-15.08 12.24-27.31 27.31-27.31z"/><path class="cls-19" d="M216.32 507.27h88.26v42.54c0 9-7.3 16.3-16.3 16.3h-71.96v-58.84z"/><path class="cls-5" d="M260.45 528.76v15.86"/><path d="M336.44 234.99c5.91 0 10.71-4.79 10.71-10.71s-4.79-10.71-10.71-10.71-10.71 4.79-10.71 10.71 4.79 10.71 10.71 10.71z" fill="#10a9a9"/><path class="cls-27" d="M375.22 234.99c5.91 0 10.71-4.79 10.71-10.71s-4.79-10.71-10.71-10.71-10.71 4.79-10.71 10.71 4.79 10.71 10.71 10.71z"/><path class="cls-26" d="M413.99 234.99c5.91 0 10.71-4.79 10.71-10.71s-4.79-10.71-10.71-10.71-10.71 4.79-10.71 10.71 4.79 10.71 10.71 10.71z"/><path class="cls-7" d="M679.62 289.63c49.75 0 90.07-40.33 90.07-90.07s-40.33-90.07-90.07-90.07-90.07 40.33-90.07 90.07 40.33 90.07 90.07 90.07z"/><path class="cls-7" d="M679.62 289.63c49.75 0 90.07-40.33 90.07-90.07s-40.33-90.07-90.07-90.07-90.07 40.33-90.07 90.07 40.33 90.07 90.07 90.07z"/><path class="cls-5" d="M669.1 165.41c-1.53-5.67-7.36-9.03-13.03-7.51M690.14 165.41c1.53-5.67 7.36-9.03 13.03-7.51M702.16 196.49l8.68-2.91c4.73-1.59 7.91-6 7.91-10.99v-2.66M703.17 225.36l7.67 2.56c4.73 1.58 7.92 6 7.92 10.99v2.66M657.09 196.49l-8.68-2.91c-4.73-1.59-7.91-6-7.91-10.99v-2.66M656.08 225.36l-7.67 2.56c-4.73 1.58-7.92 6-7.92 10.99v2.66"/><path class="cls-27" d="M659.7 183.84l-7.09 14.67c-9.63 19.92 4.88 43.06 27.01 43.06s36.64-23.14 27.01-43.06l-7.09-14.67"/><path class="cls-5" d="M679.62 183.84v57.73"/><path class="cls-23" d="M699.03 183.84h-38.81v-5.22c0-22.74 38.81-22.7 38.81 0v5.22z"/><path class="cls-9" d="M317.31 339h-91.5c-9.67 0-17.51-7.84-17.51-17.51v-60.07M208.3 256.13v-3"/><path class="cls-18" d="M208.3 179.34c-18.56 20.25-42.61 15.78-42.61 15.78v36.55c0 6.35 1.27 12.67 3.99 18.4 11.09 23.37 38.62 32.06 38.62 32.06s27.53-8.69 38.62-32.06c2.72-5.73 3.99-12.05 3.99-18.4v-36.55s-24.05 4.46-42.61-15.79z"/><path class="cls-5" d="M192.25 230.35l9.49 9.49 22.61-22.61"/><path class="cls-2" d="M321.17 342.86c2.13 0 3.86-1.73 3.86-3.86s-1.73-3.86-3.86-3.86-3.86 1.73-3.86 3.86 1.73 3.86 3.86 3.86z"/><path class="cls-9" d="M753.41 406.53h-3M739.48 406.53H658.5M653.04 406.53h-3"/><path class="cls-1" d="M788.07 355.02c18.56 20.25 42.61 15.79 42.61 15.79v36.55c0 6.35-1.27 12.67-3.99 18.4-11.09 23.37-38.62 32.06-38.62 32.06s-27.53-8.69-38.62-32.06c-2.72-5.73-3.99-12.05-3.99-18.4v-36.55s24.05 4.46 42.61-15.79z"/><path class="cls-2" d="M652.61 410.39c2.13 0 3.86-1.73 3.86-3.86s-1.73-3.86-3.86-3.86-3.86 1.73-3.86 3.86 1.73 3.86 3.86 3.86z"/><path class="cls-3" d="M784.81 391.53l1.48 21.03h3.57l1.48-21.03c.13-1.89-1.36-3.5-3.26-3.5s-3.39 1.6-3.26 3.5zM789.86 422.38c0-.99-.8-1.78-1.78-1.78s-1.78.8-1.78 1.78v.63c0 .99.8 1.78 1.78 1.78s1.78-.8 1.78-1.78v-.63z"/><path class="cls-4" d="M1301.86 422.69v-65.65M1301.86 322.73v-44.65"/><path d="M1683.25 260.92v-62.97c0-4.74-3.84-8.58-8.58-8.58h-364.24c-4.74 0-8.58 3.84-8.58 8.58v62.97h381.39z" fill="#ccb1ed"/><path class="cls-4" d="M1683.25 426.51v51.48c0 27.31-22.13 49.45-49.45 49.45h-264.13M1683.25 304.08v89.19"/><path class="cls-5" d="M1683.25 260.92v-62.97c0-4.74-3.84-8.58-8.58-8.58h-364.24c-4.74 0-8.58 3.84-8.58 8.58v62.97h381.39z"/><path class="cls-7" d="M1264.09 611.71c49.75 0 90.07-40.33 90.07-90.07s-40.33-90.07-90.07-90.07-90.07 40.33-90.07 90.07 40.33 90.07 90.07 90.07z"/><path class="cls-7" d="M1264.09 611.71c49.75 0 90.07-40.33 90.07-90.07s-40.33-90.07-90.07-90.07-90.07 40.33-90.07 90.07 40.33 90.07 90.07 90.07z"/><path class="cls-17" d="M1627.99 401.99h-83.83a6.3 6.3 0 100 12.6h83.83a6.3 6.3 0 100-12.6zM1515.94 401.93h-158.81a6.3 6.3 0 100 12.6h158.81a6.3 6.3 0 100-12.6zM1357.14 346.16h100.3a6.3 6.3 0 100-12.6h-100.3a6.3 6.3 0 100 12.6zM1485.64 346.19h142.34a6.3 6.3 0 100-12.6h-142.34a6.3 6.3 0 100 12.6zM1357.14 380.34h45.78a6.3 6.3 0 100-12.6h-45.78a6.3 6.3 0 100 12.6zM1559.77 380.38h68.22a6.3 6.3 0 100-12.6h-68.22a6.3 6.3 0 100 12.6zM1431.11 380.38h100.45a6.3 6.3 0 100-12.6h-100.45a6.3 6.3 0 100 12.6zM1479.35 299.39h-64.3a6.3 6.3 0 100 12.6h64.3a6.3 6.3 0 100-12.6zM1627.98 299.39h-121.32a6.3 6.3 0 100 12.6h121.32a6.3 6.3 0 100-12.6zM1386.84 299.38h-29.71a6.3 6.3 0 100 12.6h29.71a6.3 6.3 0 100-12.6zM1505.76 448.78h64.3a6.3 6.3 0 100-12.6h-64.3a6.3 6.3 0 100 12.6zM1357.14 448.71h121.32a6.3 6.3 0 100-12.6h-121.32a6.3 6.3 0 100 12.6zM1598.28 448.78h29.71a6.3 6.3 0 100-12.6h-29.71a6.3 6.3 0 100 12.6zM1627.99 470.29h-57.5a6.3 6.3 0 100 12.6h57.5a6.3 6.3 0 100-12.6zM1428.12 470.3h-70.98a6.3 6.3 0 100 12.6h70.98a6.3 6.3 0 100-12.6zM1542.27 470.3h-86.85a6.3 6.3 0 100 12.6h86.85a6.3 6.3 0 100-12.6z"/><path class="cls-14" d="M1264.09 470.3c15.08 0 27.31 12.24 27.31 27.31v21.54h-54.64v-21.54c0-15.08 12.24-27.31 27.31-27.31z"/><path class="cls-19" d="M1219.95 508.13h88.26v42.54c0 9-7.3 16.3-16.3 16.3h-71.96v-58.84z"/><path class="cls-5" d="M1264.09 529.62v15.86"/><path d="M1340.08 235.85c5.91 0 10.71-4.79 10.71-10.71s-4.8-10.71-10.71-10.71-10.71 4.79-10.71 10.71 4.8 10.71 10.71 10.71z" fill="#10a6a6"/><path class="cls-27" d="M1378.85 235.85c5.91 0 10.71-4.79 10.71-10.71s-4.8-10.71-10.71-10.71-10.71 4.79-10.71 10.71 4.8 10.71 10.71 10.71z"/><path class="cls-26" d="M1417.62 235.85c5.91 0 10.71-4.79 10.71-10.71s-4.8-10.71-10.71-10.71-10.71 4.79-10.71 10.71 4.8 10.71 10.71 10.71z"/><path class="cls-7" d="M1683.25 290.49c49.75 0 90.07-40.33 90.07-90.07s-40.33-90.07-90.07-90.07-90.07 40.33-90.07 90.07 40.33 90.07 90.07 90.07z"/><path class="cls-7" d="M1683.25 290.49c49.75 0 90.07-40.33 90.07-90.07s-40.33-90.07-90.07-90.07-90.07 40.33-90.07 90.07 40.33 90.07 90.07 90.07z"/><path class="cls-5" d="M1672.73 166.27c-1.53-5.67-7.36-9.03-13.03-7.51M1693.77 166.27c1.53-5.67 7.36-9.03 13.03-7.51M1705.8 197.35l8.68-2.91c4.73-1.59 7.91-6 7.91-10.99v-2.66M1706.8 226.22l7.67 2.56c4.73 1.58 7.92 6 7.92 10.99v2.66M1660.72 197.35l-8.68-2.91c-4.73-1.59-7.91-6-7.91-10.99v-2.66M1659.71 226.22l-7.67 2.56c-4.73 1.58-7.92 6-7.92 10.99v2.66"/><path class="cls-27" d="M1663.33 184.7l-7.09 14.67c-9.63 19.92 4.88 43.06 27.01 43.06s36.64-23.14 27.01-43.06l-7.09-14.67"/><path class="cls-5" d="M1683.25 184.7v57.73"/><path class="cls-23" d="M1702.66 184.7h-38.81v-5.22c0-22.74 38.81-22.7 38.81 0v5.22z"/><path class="cls-9" d="M1334.52 339.86h-3"/><path class="cls-10" d="M1320.94 339.86h-91.5c-9.67 0-17.51-7.84-17.51-17.51v-60.07"/><path class="cls-18" d="M1211.93 180.19c-18.56 20.25-42.61 15.78-42.61 15.78v36.55c0 6.35 1.27 12.67 3.99 18.4 11.09 23.37 38.62 32.06 38.62 32.06s27.53-8.69 38.62-32.06c2.72-5.73 3.99-12.05 3.99-18.4v-36.55s-24.05 4.46-42.61-15.79z"/><path class="cls-5" d="M1195.88 231.21l9.49 9.49 22.61-22.61"/><path class="cls-2" d="M1334.52 343.72c2.14 0 3.86-1.73 3.86-3.86s-1.72-3.86-3.86-3.86-3.86 1.73-3.86 3.86 1.73 3.86 3.86 3.86z"/><path class="cls-9" d="M1757.04 407.39h-3"/><path class="cls-10" d="M1743.11 407.39h-80.98"/><path class="cls-9" d="M1656.67 407.39h-3"/><path class="cls-1" d="M1791.7 355.88c18.56 20.25 42.61 15.79 42.61 15.79v36.55c0 6.35-1.27 12.67-3.99 18.4-11.09 23.37-38.62 32.06-38.62 32.06s-27.53-8.69-38.62-32.06c-2.72-5.73-3.99-12.05-3.99-18.4v-36.55s24.05 4.46 42.61-15.79z"/><path d="M1656.24 411.25c2.13 0 3.86-1.73 3.86-3.86s-1.73-3.86-3.86-3.86-3.86 1.73-3.86 3.86 1.72 3.86 3.86 3.86z" fill="#ccb1ed" stroke="#ccb1ed" stroke-linecap="round" stroke-linejoin="round" stroke-width="3.43"/><path d="M1788.44 392.38l1.48 21.03h3.57l1.48-21.03c.13-1.89-1.36-3.5-3.26-3.5s-3.39 1.6-3.26 3.5z" fill="#fff" stroke="#fff" stroke-miterlimit="10" stroke-width="3.43"/><path d="M1793.49 423.23c0-.99-.8-1.78-1.78-1.78s-1.78.8-1.78 1.78v.63c0 .99.8 1.78 1.78 1.78s1.78-.8 1.78-1.78v-.63z" stroke="#fff" fill="#ccb1ed" stroke-miterlimit="10" stroke-width="3.43"/><path class="cls-21" d="M813.16 296.45h4.05c.36 3.8 3.4 6.57 7.49 6.57 4.34 0 7.29-3.28 7.29-7.83s-2.83-7.78-6.99-7.78c-3.69 0-6.48 1.51-7.51 4.36h-3.89l1.12-19.12h19.34v3.6h-15.68l-.81 10.86h.04c2.11-2.27 4.72-3.35 7.87-3.35 6.16 0 10.41 4.75 10.41 11.38s-4.5 11.47-11.2 11.47-11.29-4.36-11.54-10.17z"/><circle class="cls-16" cx="122.02" cy="446.52" r="32.85"/><path class="cls-21" d="M125.16 463.27h-3.91v-29.33h-.02l-8.34 5.53v-4.14l8.37-5.58h3.91v33.51zM725.24 549.95l16.04-22.09h2.47v4.54h-1.44l-12.48 17.23v.04h21.52v3.6h-26.11v-3.33zm17.11 2.34v-24.42h3.87v33.51h-3.87v-9.09z"/><path class="cls-16" d="M545.4 586.29c0 18.14-14.71 32.85-32.85 32.85s-32.85-14.71-32.85-32.85c0-6.45 1.86-12.46 5.07-17.54 5.82-9.2 16.09-15.31 27.78-15.31 18.14 0 32.85 14.71 32.85 32.85zM173.91 318.21c0 18.14-14.71 32.85-32.85 32.85s-32.85-14.71-32.85-32.85c0-6.45 1.86-12.46 5.07-17.54 5.82-9.2 16.09-15.31 27.78-15.31 18.14 0 32.85 14.71 32.85 32.85z"/><path class="cls-21" d="M130.05 330.84l11.92-10.89c4.25-3.89 6.07-6.05 6.07-9.42 0-4.27-2.59-6.75-7.04-6.75s-7.04 3.01-7.04 7.78h-3.78c0-6.68 4.43-11.38 10.82-11.38s10.86 4.12 10.86 10.21c0 4.25-2.41 7.56-7.26 11.96l-9.06 8.23v.04h16.53v3.6h-22.02v-3.4zM500.86 592.52h4.09c0 4.75 2.81 7.51 7.6 7.51s7.74-2.5 7.74-6.43c0-3.58-3.35-5.94-8.28-5.94h-2.7v-3.6h2.7c4.32 0 7.24-2.16 7.24-5.44 0-3.78-2.72-6.07-6.88-6.07s-6.88 2.52-6.88 6.75h-3.91c0-6.07 4.48-10.3 10.82-10.3s10.82 3.94 10.82 9.4c0 3.4-2.29 6.18-6.03 7.33v.07c4.27.72 7.06 3.85 7.06 7.8 0 5.87-4.95 9.99-11.61 9.99s-11.79-4.52-11.79-11.07z"/><path class="cls-16" d="M485.62 477.49l20.88 75.95"/></svg>