<svg xmlns="http://www.w3.org/2000/svg" xml:space="preserve" id="Layer_1" x="0" y="0" style="enable-background:new 0 0 1008.3 558" version="1.1" viewBox="0 0 1008.3 558"><style>.st0{fill:#171321}.st1,.st2{stroke:#b9b9b9;stroke-width:2}.st1{fill:#fff;stroke-miterlimit:10}.st2{fill:none}</style><path d="M18.6 3.6v29.1h-3.5V3.6h3.5zm9.9 16v13.1h-3.4V10.9h3.2v3.4h.3c.5-1.1 1.3-2 2.3-2.7 1-.7 2.4-1 4-1 1.5 0 2.8.3 3.9.9 1.1.6 2 1.5 2.6 2.7.6 1.2.9 2.7.9 4.6v13.9h-3.4V19.1c0-1.7-.4-3.1-1.3-4-.9-1-2.1-1.4-3.7-1.4-1.1 0-2 .2-2.9.7-.8.5-1.5 1.1-2 2-.2.9-.5 1.9-.5 3.2zm29.6-8.7v2.8H46.8v-2.8h11.3zm-8-5.2h3.4v20.8c0 .9.1 1.7.4 2.1.3.5.6.8 1.1.9.4.2.9.2 1.4.2.4 0 .7 0 .9-.1.2 0 .4-.1.6-.1l.7 3c-.2.1-.5.2-1 .3-.5.2-1 .2-1.6.2-.9 0-1.9-.2-2.8-.6-.9-.4-1.6-1-2.2-1.9-.6-.8-.9-1.9-.9-3.2V5.7zM72 33.2c-2.1 0-3.9-.5-5.4-1.4-1.5-.9-2.7-2.2-3.5-3.9-.8-1.7-1.2-3.6-1.2-5.9 0-2.2.4-4.2 1.2-5.9.8-1.7 2-3 3.4-4 1.5-1 3.2-1.4 5.2-1.4 1.1 0 2.3.2 3.4.6 1.1.4 2.1 1 3 1.8.9.8 1.6 2 2.2 3.4.5 1.4.8 3.1.8 5.1V23H64.3v-2.9h13.4c0-1.2-.2-2.3-.7-3.3-.5-1-1.2-1.7-2.1-2.3-.9-.6-1.9-.8-3.2-.8-1.3 0-2.5.3-3.5 1s-1.7 1.5-2.2 2.6-.8 2.2-.8 3.4v1.9c0 1.6.3 3 .9 4.2.6 1.1 1.4 2 2.4 2.6 1 .6 2.2.9 3.6.9.9 0 1.7-.1 2.4-.4.7-.3 1.3-.6 1.9-1.1.5-.5.9-1.1 1.2-1.9l3.2.9c-.3 1.1-.9 2.1-1.7 2.9-.8.8-1.8 1.5-3 1.9-1.3.4-2.6.6-4.1.6zm14.2-.5V10.9h3.2v3.3h.2c.4-1.1 1.1-2 2.2-2.6 1-.7 2.2-1 3.5-1H97V14c-.1 0-.4-.1-.8-.1-.4-.1-.8-.1-1.3-.1-1.1 0-2 .2-2.8.7-.8.4-1.5 1-2 1.8s-.7 1.6-.7 2.6v13.8h-3.2zm21.3.5c-1.4 0-2.6-.3-3.8-.8-1.1-.5-2-1.3-2.7-2.3-.7-1-1-2.2-1-3.6 0-1.2.2-2.3.7-3 .5-.8 1.2-1.4 2-1.8.8-.4 1.7-.8 2.7-1 1-.2 2-.4 3-.5 1.3-.2 2.4-.3 3.2-.4.8-.1 1.4-.3 1.8-.5.4-.2.6-.6.6-1.1V18c0-1.4-.4-2.5-1.2-3.3-.8-.8-1.9-1.2-3.5-1.2s-2.9.4-3.8 1.1c-.9.7-1.5 1.4-1.9 2.2l-3.2-1.1c.6-1.3 1.3-2.4 2.3-3.1 1-.7 2-1.3 3.1-1.6 1.1-.3 2.3-.5 3.4-.5.7 0 1.5.1 2.4.3.9.2 1.8.5 2.7 1 .9.5 1.6 1.3 2.1 2.3.6 1 .9 2.4.9 4.1v14.4h-3.4v-3h.1c-.2.5-.6 1-1.1 1.5-.5.5-1.2 1-2.1 1.4-1 .6-2.1.7-3.3.7zm.5-3c1.3 0 2.4-.3 3.4-.8.9-.5 1.6-1.2 2.1-2s.7-1.7.7-2.6v-3.1c-.1.2-.5.3-.9.5-.5.1-1 .3-1.6.4l-1.8.3c-.6.1-1 .1-1.4.2-.9.1-1.7.3-2.4.6-.7.2-1.4.6-1.8 1.1-.5.5-.7 1.2-.7 2 0 1.2.4 2 1.3 2.6.6.5 1.7.8 3.1.8zm24.5 3c-2 0-3.8-.5-5.3-1.4-1.5-1-2.6-2.3-3.4-4-.8-1.7-1.2-3.6-1.2-5.8 0-2.2.4-4.2 1.2-5.9.8-1.7 2-3 3.4-4 1.5-1 3.2-1.4 5.2-1.4 1.5 0 2.9.3 4.1.9 1.2.6 2.2 1.4 3 2.4.8 1 1.3 2.2 1.5 3.6h-3.4c-.3-1-.8-1.9-1.7-2.6-.9-.8-2-1.2-3.5-1.2-1.3 0-2.5.3-3.4 1-1 .7-1.7 1.6-2.3 2.9-.5 1.2-.8 2.7-.8 4.3 0 1.7.3 3.2.8 4.4.5 1.2 1.3 2.2 2.3 2.9 1 .7 2.1 1 3.5 1 .9 0 1.7-.2 2.4-.5s1.3-.7 1.8-1.3c.5-.6.8-1.2 1.1-2h3.4c-.2 1.3-.7 2.4-1.4 3.5-.7 1-1.7 1.8-2.9 2.4-1.4.5-2.8.8-4.4.8zm22.9-22.3v2.8h-11.3v-2.8h11.3zm-8-5.2h3.4v20.8c0 .9.1 1.7.4 2.1.3.5.6.8 1.1.9.4.2.9.2 1.4.2.4 0 .7 0 .9-.1.2 0 .4-.1.6-.1l.7 3c-.2.1-.5.2-1 .3-.4.1-.9.1-1.5.1-.9 0-1.9-.2-2.8-.6-.9-.4-1.6-1-2.2-1.9-.6-.8-.9-1.9-.9-3.2V5.7zm13.1 27V10.9h3.4v21.8h-3.4zm1.7-25.4c-.7 0-1.2-.2-1.7-.7-.5-.4-.7-1-.7-1.6s.2-1.2.7-1.6c.5-.4 1-.7 1.7-.7s1.2.2 1.7.7c.5.4.7 1 .7 1.6s-.2 1.2-.7 1.6c-.5.5-1.1.7-1.7.7zm25.6 3.6-8.1 21.8h-3.4l-8.1-21.8h3.6l6 17.4h.2l6-17.4h3.8zm12.8 22.3c-2.1 0-3.9-.5-5.4-1.4-1.5-.9-2.7-2.2-3.5-3.9-.8-1.7-1.2-3.6-1.2-5.9 0-2.2.4-4.2 1.2-5.9.8-1.7 2-3 3.4-4 1.5-1 3.2-1.4 5.2-1.4 1.1 0 2.3.2 3.4.6 1.1.4 2.1 1 3 1.8.9.8 1.6 2 2.2 3.4.5 1.4.8 3.1.8 5.1V23h-16.8v-2.9h13.4c0-1.2-.2-2.3-.7-3.3-.5-1-1.2-1.7-2.1-2.3-.9-.6-1.9-.8-3.2-.8-1.3 0-2.5.3-3.5 1s-1.7 1.5-2.2 2.6-.8 2.2-.8 3.4v1.9c0 1.6.3 3 .9 4.2.6 1.1 1.4 2 2.4 2.6 1 .6 2.2.9 3.6.9.9 0 1.7-.1 2.4-.4.7-.3 1.3-.6 1.9-1.1.5-.5.9-1.1 1.2-1.9l3.2.9c-.3 1.1-.9 2.1-1.7 2.9-.8.8-1.8 1.5-3 1.9-1.3.4-2.6.6-4.1.6zM17.8 551.9c-1.1 0-2-.3-2.7-.9-.8-.6-1.3-1.4-1.7-2.5-.4-1.1-.6-2.5-.6-4 0-1.6.2-2.9.6-4 .4-1.1 1-2 1.7-2.6.8-.6 1.7-.9 2.7-.9s2 .3 2.7.9c.8.6 1.3 1.4 1.7 2.6.4 1.1.6 2.5.6 4 0 1.6-.2 2.9-.6 4-.4 1.1-1 2-1.7 2.5-.7.6-1.6.9-2.7.9zm0-1.5c1.1 0 1.9-.5 2.5-1.5.6-1 .9-2.5.9-4.4 0-1.3-.1-2.3-.4-3.2-.3-.9-.6-1.6-1.2-2-.5-.5-1.1-.7-1.8-.7-1.1 0-1.9.5-2.5 1.6-.6 1-.9 2.5-.9 4.4 0 1.3.1 2.3.4 3.2.3.9.6 1.5 1.1 2 .6.3 1.2.6 1.9.6zm8.5 1.4c-.4 0-.7-.1-.9-.4-.3-.3-.4-.6-.4-.9 0-.4.1-.7.4-.9.3-.3.6-.4.9-.4.4 0 .7.1.9.4.3.3.4.6.4.9 0 .2-.1.4-.2.6-.1.2-.3.4-.5.5-.2.2-.4.2-.6.2zm4.4-.1 6.5-12.9v-.1h-7.5v-1.6H39v1.6l-6.5 12.9h-1.8zm15.4.2c-1.1 0-2-.3-2.7-.9-.8-.6-1.3-1.4-1.7-2.5-.4-1.1-.6-2.5-.6-4 0-1.6.2-2.9.6-4 .4-1.1 1-2 1.7-2.6.8-.6 1.7-.9 2.7-.9 1.1 0 2 .3 2.7.9.8.6 1.3 1.4 1.7 2.6.4 1.1.6 2.5.6 4 0 1.6-.2 2.9-.6 4-.4 1.1-1 2-1.7 2.5-.7.6-1.6.9-2.7.9zm0-1.5c1.1 0 1.9-.5 2.5-1.5.6-1 .9-2.5.9-4.4 0-1.3-.1-2.3-.4-3.2-.3-.9-.6-1.6-1.2-2-.5-.5-1.1-.7-1.8-.7-1.1 0-1.9.5-2.5 1.6-.6 1-.9 2.5-.9 4.4 0 1.3.1 2.3.4 3.2.3.9.6 1.5 1.1 2 .6.3 1.2.6 1.9.6zm9.8-.7-.1.8c-.1.5-.2 1.1-.4 1.7-.2.6-.3 1.2-.5 1.7s-.3 1-.4 1.3h-1.3c.1-.3.1-.7.2-1.2s.2-1.1.3-1.7c.1-.6.2-1.2.3-1.9l.1-.8h1.8zm13.4 2.2c-1.1 0-2-.3-2.7-.9-.8-.6-1.3-1.4-1.7-2.5-.4-1.1-.6-2.5-.6-4 0-1.6.2-2.9.6-4 .4-1.1 1-2 1.7-2.6.8-.6 1.7-.9 2.7-.9 1.1 0 2 .3 2.7.9.8.6 1.3 1.4 1.7 2.6.4 1.1.6 2.5.6 4 0 1.6-.2 2.9-.6 4-.4 1.1-1 2-1.7 2.5-.7.6-1.6.9-2.7.9zm0-1.5c1.1 0 1.9-.5 2.5-1.5.6-1 .9-2.5.9-4.4 0-1.3-.1-2.3-.4-3.2-.3-.9-.6-1.6-1.1-2-.5-.5-1.1-.7-1.8-.7-1.1 0-1.9.5-2.5 1.6-.6 1-.9 2.5-.9 4.4 0 1.3.1 2.3.4 3.2.3.9.6 1.5 1.1 2 .5.3 1.1.6 1.8.6zm8.5 1.4c-.4 0-.7-.1-.9-.4-.3-.3-.4-.6-.4-.9 0-.4.1-.7.4-.9.3-.3.6-.4.9-.4.3 0 .7.1.9.4.3.3.4.6.4.9 0 .2-.1.4-.2.6-.1.2-.3.4-.5.5-.1.2-.3.2-.6.2zm8.5.1c-1.1 0-2-.3-2.7-.9-.8-.6-1.3-1.4-1.7-2.5-.4-1.1-.6-2.5-.6-4 0-1.6.2-2.9.6-4 .4-1.1 1-2 1.7-2.6.8-.6 1.7-.9 2.7-.9 1.1 0 2 .3 2.7.9.8.6 1.3 1.4 1.7 2.6.4 1.1.6 2.5.6 4 0 1.6-.2 2.9-.6 4-.4 1.1-1 2-1.7 2.5-.7.6-1.6.9-2.7.9zm0-1.5c1.1 0 1.9-.5 2.5-1.5.6-1 .9-2.5.9-4.4 0-1.3-.1-2.3-.4-3.2-.3-.9-.6-1.6-1.2-2-.5-.5-1.1-.7-1.8-.7-1.1 0-1.9.5-2.5 1.6-.6 1-.9 2.5-.9 4.4 0 1.3.1 2.3.4 3.2.3.9.6 1.5 1.1 2 .6.3 1.2.6 1.9.6zm12.5 1.5c-1.1 0-2-.3-2.7-.9-.8-.6-1.3-1.4-1.7-2.5-.4-1.1-.6-2.5-.6-4 0-1.6.2-2.9.6-4 .4-1.1 1-2 1.7-2.6.8-.6 1.7-.9 2.7-.9 1.1 0 2 .3 2.7.9.8.6 1.3 1.4 1.7 2.6.4 1.1.6 2.5.6 4 0 1.6-.2 2.9-.6 4-.4 1.1-1 2-1.7 2.5-.7.6-1.6.9-2.7.9zm0-1.5c1.1 0 1.9-.5 2.5-1.5.6-1 .9-2.5.9-4.4 0-1.3-.1-2.3-.4-3.2-.3-.9-.6-1.6-1.2-2-.5-.5-1.1-.7-1.8-.7-1.1 0-1.9.5-2.5 1.6-.6 1-.9 2.5-.9 4.4 0 1.3.1 2.3.4 3.2.3.9.6 1.5 1.1 2 .6.3 1.2.6 1.9.6zm9.8-.7-.1.8c-.1.5-.2 1.1-.4 1.7-.2.6-.3 1.2-.5 1.7s-.3 1-.4 1.3h-1.3c.1-.3.1-.7.2-1.2s.2-1.1.3-1.7c.1-.6.2-1.2.3-1.9l.1-.8h1.8zm13.4 2.2c-1.1 0-2-.3-2.7-.9-.8-.6-1.3-1.4-1.7-2.5-.4-1.1-.6-2.5-.6-4 0-1.6.2-2.9.6-4 .4-1.1 1-2 1.7-2.6.8-.6 1.7-.9 2.7-.9 1.1 0 2 .3 2.7.9.8.6 1.3 1.4 1.7 2.6.4 1.1.6 2.5.6 4 0 1.6-.2 2.9-.6 4-.4 1.1-1 2-1.7 2.5-.7.6-1.6.9-2.7.9zm0-1.5c1.1 0 1.9-.5 2.5-1.5.6-1 .9-2.5.9-4.4 0-1.3-.1-2.3-.4-3.2-.3-.9-.6-1.6-1.2-2-.5-.5-1.1-.7-1.8-.7-1.1 0-1.9.5-2.5 1.6-.6 1-.9 2.5-.9 4.4 0 1.3.1 2.3.4 3.2.3.9.6 1.5 1.1 2 .6.3 1.2.6 1.9.6zm8.5 1.4c-.4 0-.7-.1-.9-.4s-.4-.6-.4-.9c0-.4.1-.7.4-.9.3-.3.6-.4.9-.4.4 0 .7.1.9.4.3.3.4.6.4.9 0 .2-.1.4-.2.6-.1.2-.3.4-.5.5-.1.2-.3.2-.6.2zm8.7.1c-.9 0-1.8-.2-2.5-.5s-1.3-.8-1.7-1.3c-.4-.6-.7-1.2-.7-2h1.8c0 .5.2.9.5 1.2.3.3.7.6 1.1.8.5.2 1 .3 1.5.3.6 0 1.2-.1 1.7-.3.5-.2.9-.5 1.1-.9.3-.4.4-.8.4-1.3s-.1-1-.4-1.4c-.3-.4-.7-.7-1.2-1-.5-.2-1.1-.3-1.9-.3h-1.2v-1.6h1.2c.6 0 1.1-.1 1.5-.3.4-.2.8-.5 1-.9.3-.4.4-.8.4-1.3s-.1-.9-.3-1.3c-.2-.4-.5-.6-.9-.9-.4-.2-.9-.3-1.4-.3-.5 0-1 .1-1.4.3-.4.2-.8.4-1.1.8-.3.3-.4.8-.5 1.2h-1.7c0-.8.3-1.4.7-2 .4-.6 1-1 1.7-1.3.7-.3 1.5-.5 2.3-.5.9 0 1.7.2 2.3.5.6.4 1.1.8 1.5 1.4.3.6.5 1.2.5 1.9 0 .8-.2 1.5-.6 2.1-.4.6-1 1-1.7 1.2v.1c.9.2 1.6.5 2.2 1.2.5.6.8 1.4.8 2.3 0 .8-.2 1.5-.6 2.1-.4.6-1 1.1-1.7 1.5-.9.4-1.8.5-2.7.5zm12.5 0c-1.1 0-2-.3-2.7-.9-.8-.6-1.3-1.4-1.7-2.5-.4-1.1-.6-2.5-.6-4 0-1.6.2-2.9.6-4 .4-1.1 1-2 1.7-2.6.8-.6 1.7-.9 2.7-.9 1.1 0 2 .3 2.7.9.8.6 1.3 1.4 1.7 2.6.4 1.1.6 2.5.6 4 0 1.6-.2 2.9-.6 4-.4 1.1-1 2-1.7 2.5-.7.6-1.6.9-2.7.9zm0-1.5c1.1 0 1.9-.5 2.5-1.5.6-1 .9-2.5.9-4.4 0-1.3-.1-2.3-.4-3.2-.3-.9-.6-1.6-1.2-2-.5-.5-1.1-.7-1.8-.7-1.1 0-1.9.5-2.5 1.6-.6 1-.9 2.5-.9 4.4 0 1.3.1 2.3.4 3.2.3.9.6 1.5 1.1 2 .6.3 1.2.6 1.9.6zm9.8-.7-.1.8c-.1.5-.2 1.1-.4 1.7-.2.6-.3 1.2-.5 1.7s-.3 1-.4 1.3h-1.3c.1-.3.1-.7.2-1.2s.2-1.1.3-1.7c.1-.6.2-1.2.3-1.9l.1-.8h1.8zm13.8-12.5v14.5h-1.8V539h-.1l-3.6 2.4v-1.8l3.6-2.4h1.9zm4.6 14.6c-.4 0-.7-.1-.9-.4-.3-.3-.4-.6-.4-.9 0-.4.1-.7.4-.9.3-.3.6-.4.9-.4.4 0 .7.1.9.4.3.3.4.6.4.9 0 .2-.1.4-.2.6-.1.2-.3.4-.5.5-.1.2-.4.2-.6.2zm8.5.1c-1.1 0-2-.3-2.7-.9-.8-.6-1.3-1.4-1.7-2.5-.4-1.1-.6-2.5-.6-4 0-1.6.2-2.9.6-4 .4-1.1 1-2 1.7-2.6.8-.6 1.7-.9 2.7-.9 1.1 0 2 .3 2.7.9.8.6 1.3 1.4 1.7 2.6.4 1.1.6 2.5.6 4 0 1.6-.2 2.9-.6 4-.4 1.1-1 2-1.7 2.5-.7.6-1.6.9-2.7.9zm0-1.5c1.1 0 1.9-.5 2.5-1.5.6-1 .9-2.5.9-4.4 0-1.3-.1-2.3-.4-3.2-.3-.9-.6-1.6-1.2-2-.5-.5-1.1-.7-1.8-.7-1.1 0-1.9.5-2.5 1.6-.6 1-.9 2.5-.9 4.4 0 1.3.1 2.3.4 3.2.3.9.6 1.5 1.1 2 .6.3 1.2.6 1.9.6zm12.5 1.5c-1.1 0-2-.3-2.7-.9-.8-.6-1.3-1.4-1.7-2.5-.4-1.1-.6-2.5-.6-4 0-1.6.2-2.9.6-4 .4-1.1 1-2 1.7-2.6.8-.6 1.7-.9 2.7-.9 1.1 0 2 .3 2.7.9.8.6 1.3 1.4 1.7 2.6.4 1.1.6 2.5.6 4 0 1.6-.2 2.9-.6 4-.4 1.1-1 2-1.7 2.5-.7.6-1.6.9-2.7.9zm0-1.5c1.1 0 1.9-.5 2.5-1.5.6-1 .9-2.5.9-4.4 0-1.3-.1-2.3-.4-3.2-.3-.9-.6-1.6-1.2-2-.5-.5-1.1-.7-1.8-.7-1.1 0-1.9.5-2.5 1.6-.6 1-.9 2.5-.9 4.4 0 1.3.1 2.3.4 3.2.3.9.6 1.5 1.1 2 .6.3 1.2.6 1.9.6zM556.8 551.9c-1.1 0-2-.3-2.7-.9-.8-.6-1.3-1.4-1.7-2.5-.4-1.1-.6-2.5-.6-4 0-1.6.2-2.9.6-4 .4-1.1 1-2 1.7-2.6.8-.6 1.7-.9 2.7-.9s2 .3 2.7.9c.8.6 1.3 1.4 1.7 2.6.4 1.1.6 2.5.6 4 0 1.6-.2 2.9-.6 4-.4 1.1-1 2-1.7 2.5-.7.6-1.6.9-2.7.9zm0-1.5c1.1 0 1.9-.5 2.5-1.5.6-1 .9-2.5.9-4.4 0-1.3-.1-2.3-.4-3.2-.3-.9-.6-1.6-1.1-2-.5-.5-1.1-.7-1.8-.7-1.1 0-1.9.5-2.5 1.6-.6 1-.9 2.5-.9 4.4 0 1.3.1 2.3.4 3.2.3.9.6 1.5 1.1 2 .5.3 1.1.6 1.8.6zm8.5 1.4c-.3 0-.7-.1-.9-.4-.3-.3-.4-.6-.4-.9 0-.4.1-.7.4-.9.2-.3.6-.4.9-.4s.7.1.9.4c.2.3.4.6.4.9 0 .2-.1.4-.2.6-.1.2-.3.4-.5.5-.2.2-.4.2-.6.2zm8.6.1c-.9 0-1.8-.2-2.5-.5s-1.3-.8-1.7-1.3c-.4-.6-.7-1.2-.7-2h1.8c0 .5.2.9.5 1.2.3.3.7.6 1.1.8.5.2 1 .3 1.5.3.6 0 1.2-.1 1.7-.3.5-.2.9-.5 1.1-.9.3-.4.4-.8.4-1.3s-.1-1-.4-1.4c-.3-.4-.7-.7-1.2-1s-1.1-.3-1.9-.3h-1.2v-1.6h1.2c.6 0 1.1-.1 1.5-.3.4-.2.8-.5 1-.9.2-.4.4-.8.4-1.3s-.1-.9-.3-1.3c-.2-.4-.5-.6-.9-.9-.4-.2-.9-.3-1.4-.3-.5 0-1 .1-1.4.3-.4.2-.8.4-1.1.8-.3.3-.4.8-.5 1.2h-1.7c0-.8.3-1.4.7-2 .4-.6 1-1 1.7-1.3.7-.3 1.5-.5 2.3-.5.9 0 1.7.2 2.3.5.6.4 1.1.8 1.5 1.4.3.6.5 1.2.5 1.9 0 .8-.2 1.5-.7 2.1-.4.6-1 1-1.7 1.2v.1c.9.2 1.6.5 2.2 1.2.5.6.8 1.4.8 2.3 0 .8-.2 1.5-.7 2.1-.4.6-1 1.1-1.8 1.5-.6.4-1.4.5-2.4.5zm12.6 0c-1.1 0-2-.3-2.7-.9-.8-.6-1.3-1.4-1.7-2.5-.4-1.1-.6-2.5-.6-4 0-1.6.2-2.9.6-4 .4-1.1 1-2 1.7-2.6.8-.6 1.7-.9 2.7-.9 1.1 0 2 .3 2.7.9.8.6 1.3 1.4 1.7 2.6.4 1.1.6 2.5.6 4 0 1.6-.2 2.9-.6 4-.4 1.1-1 2-1.7 2.5-.7.6-1.7.9-2.7.9zm0-1.5c1.1 0 1.9-.5 2.5-1.5.6-1 .9-2.5.9-4.4 0-1.3-.1-2.3-.4-3.2-.3-.9-.6-1.6-1.2-2-.5-.5-1.1-.7-1.8-.7-1 0-1.9.5-2.5 1.6-.6 1-.9 2.5-.9 4.4 0 1.3.1 2.3.4 3.2.3.9.7 1.5 1.2 2 .5.3 1.1.6 1.8.6zm9.7-.7-.1.8c-.1.5-.2 1.1-.4 1.7-.2.6-.3 1.2-.5 1.7s-.3 1-.4 1.3h-1.3c.1-.3.2-.7.2-1.2s.2-1.1.3-1.7c.1-.6.2-1.2.3-1.9l.1-.8h1.8zm13.5 2.2c-1.1 0-2-.3-2.7-.9-.8-.6-1.3-1.4-1.7-2.5-.4-1.1-.6-2.5-.6-4 0-1.6.2-2.9.6-4 .4-1.1 1-2 1.7-2.6.8-.6 1.7-.9 2.7-.9 1.1 0 2 .3 2.7.9.8.6 1.3 1.4 1.7 2.6.4 1.1.6 2.5.6 4 0 1.6-.2 2.9-.6 4-.4 1.1-1 2-1.7 2.5-.7.6-1.6.9-2.7.9zm0-1.5c1.1 0 1.9-.5 2.5-1.5.6-1 .9-2.5.9-4.4 0-1.3-.1-2.3-.4-3.2s-.7-1.6-1.2-2c-.5-.5-1.1-.7-1.8-.7-1.1 0-1.9.5-2.5 1.6-.6 1-.9 2.5-.9 4.4 0 1.3.1 2.3.4 3.2.3.9.6 1.5 1.1 2 .6.3 1.2.6 1.9.6zm8.5 1.4c-.3 0-.7-.1-.9-.4s-.4-.6-.4-.9c0-.4.1-.7.4-.9.2-.3.6-.4.9-.4s.7.1.9.4c.2.3.4.6.4.9 0 .2-.1.4-.2.6-.1.2-.3.4-.5.5-.2.2-.4.2-.6.2zm8.5.1c-1 0-1.8-.2-2.6-.5-.7-.3-1.3-.8-1.7-1.4-.4-.6-.6-1.3-.6-2.1 0-.6.1-1.2.4-1.7.2-.5.6-1 1-1.3.4-.4.9-.6 1.4-.7v-.1c-.7-.2-1.2-.6-1.7-1.2-.4-.6-.6-1.3-.6-2.1 0-.7.2-1.4.6-2 .4-.6.9-1 1.6-1.4.7-.3 1.4-.5 2.3-.5.8 0 1.6.2 2.2.5.7.3 1.2.8 1.6 1.4.4.6.6 1.2.6 2s-.2 1.5-.6 2.1c-.4.6-1 1-1.6 1.2v.1c.5.1 1 .3 1.4.7.4.4.8.8 1 1.3.2.5.4 1.1.4 1.7 0 .8-.2 1.5-.6 2.1-.4.6-1 1.1-1.7 1.4-1 .4-1.9.5-2.8.5zm0-1.5c.7 0 1.2-.1 1.7-.3.5-.2.9-.5 1.1-.9.3-.4.4-.8.4-1.4 0-.5-.2-1-.4-1.5-.3-.4-.7-.8-1.1-1-.5-.2-1-.4-1.6-.4-.6 0-1.2.1-1.7.4-.5.2-.9.6-1.1 1-.3.4-.4.9-.4 1.5 0 .5.1 1 .4 1.4.3.4.6.7 1.1.9.3.2.9.3 1.6.3zm0-6.9c.5 0 1-.1 1.4-.3.4-.2.7-.5 1-.9s.3-.8.3-1.3-.1-.9-.3-1.3c-.2-.4-.5-.7-.9-.9-.4-.2-.9-.3-1.4-.3-.6 0-1 .1-1.4.3-.4.2-.7.5-.9.9-.2.4-.3.8-.3 1.3s.1.9.3 1.3.6.7 1 .9c.2.2.6.3 1.2.3zm12.4 8.4c-1.1 0-2-.3-2.7-.9-.8-.6-1.3-1.4-1.7-2.5-.4-1.1-.6-2.5-.6-4 0-1.6.2-2.9.6-4 .4-1.1 1-2 1.7-2.6.8-.6 1.7-.9 2.7-.9 1.1 0 2 .3 2.7.9.8.6 1.3 1.4 1.7 2.6.4 1.1.6 2.5.6 4 0 1.6-.2 2.9-.6 4-.4 1.1-1 2-1.7 2.5-.7.6-1.7.9-2.7.9zm0-1.5c1.1 0 1.9-.5 2.5-1.5.6-1 .9-2.5.9-4.4 0-1.3-.1-2.3-.4-3.2-.3-.9-.7-1.6-1.2-2-.5-.5-1.1-.7-1.8-.7-1.1 0-1.9.5-2.5 1.6-.6 1-.9 2.5-.9 4.4 0 1.3.1 2.3.4 3.2.3.9.7 1.5 1.1 2 .6.3 1.2.6 1.9.6zm9.7-.7-.1.8c-.1.5-.2 1.1-.4 1.7-.2.6-.3 1.2-.5 1.7s-.3 1-.4 1.3h-1.3c.1-.3.1-.7.2-1.2s.2-1.1.3-1.7c.1-.6.2-1.2.3-1.9l.1-.8h1.8zm13.5 2.2c-1.1 0-2-.3-2.7-.9-.8-.6-1.3-1.4-1.7-2.5-.4-1.1-.6-2.5-.6-4 0-1.6.2-2.9.6-4 .4-1.1 1-2 1.7-2.6.8-.6 1.7-.9 2.7-.9 1.1 0 2 .3 2.7.9.8.6 1.3 1.4 1.7 2.6.4 1.1.6 2.5.6 4 0 1.6-.2 2.9-.6 4-.4 1.1-1 2-1.7 2.5-.7.6-1.6.9-2.7.9zm0-1.5c1.1 0 1.9-.5 2.5-1.5.6-1 .9-2.5.9-4.4 0-1.3-.1-2.3-.4-3.2s-.6-1.6-1.2-2c-.5-.5-1.1-.7-1.8-.7-1.1 0-1.9.5-2.5 1.6-.6 1-.9 2.5-.9 4.4 0 1.3.1 2.3.4 3.2.3.9.6 1.5 1.1 2 .6.3 1.2.6 1.9.6zm8.5 1.4c-.3 0-.7-.1-.9-.4s-.4-.6-.4-.9c0-.4.1-.7.4-.9.2-.3.6-.4.9-.4s.7.1.9.4c.2.3.4.6.4.9 0 .2-.1.4-.2.6-.1.2-.3.4-.5.5-.2.2-.4.2-.6.2zm4.4-.1 6.5-12.9v-.1h-7.5v-1.6h9.3v1.6l-6.5 12.9h-1.8zm15.4.2c-1.1 0-2-.3-2.7-.9-.8-.6-1.3-1.4-1.7-2.5-.4-1.1-.6-2.5-.6-4 0-1.6.2-2.9.6-4 .4-1.1 1-2 1.7-2.6.8-.6 1.7-.9 2.7-.9 1.1 0 2 .3 2.7.9.8.6 1.3 1.4 1.7 2.6.4 1.1.6 2.5.6 4 0 1.6-.2 2.9-.6 4-.4 1.1-1 2-1.7 2.5-.7.6-1.6.9-2.7.9zm0-1.5c1.1 0 1.9-.5 2.5-1.5.6-1 .9-2.5.9-4.4 0-1.3-.1-2.3-.4-3.2s-.7-1.6-1.2-2c-.5-.5-1.1-.7-1.8-.7-1 0-1.9.5-2.5 1.6-.6 1-.9 2.5-.9 4.4 0 1.3.1 2.3.4 3.2.3.9.7 1.5 1.2 2 .5.3 1.1.6 1.8.6zm9.8-.7-.1.8c-.1.5-.2 1.1-.4 1.7-.2.6-.3 1.2-.5 1.7s-.3 1-.4 1.3h-1.3c.1-.3.1-.7.2-1.2s.2-1.1.3-1.7c.1-.6.2-1.2.2-1.9l.1-.8h1.9zm13.8-12.5v14.5h-1.8V539h-.1l-3.5 2.4v-1.8l3.6-2.4h1.8zm4.6 14.6c-.3 0-.7-.1-.9-.4s-.4-.6-.4-.9c0-.4.1-.7.4-.9.2-.3.6-.4.9-.4s.7.1.9.4c.2.3.4.6.4.9 0 .2-.1.4-.2.6-.1.2-.3.4-.5.5-.2.2-.4.2-.6.2zm4.2-.1v-1.3l4.8-5.3c.6-.6 1-1.2 1.4-1.6.4-.5.6-.9.8-1.3.2-.4.3-.8.3-1.3s-.1-1-.4-1.3c-.2-.4-.6-.7-1-.9-.4-.2-.9-.3-1.4-.3-.6 0-1.1.1-1.5.3-.4.2-.7.5-1 1-.2.4-.3.9-.3 1.4H723c0-.9.2-1.6.6-2.2.4-.6.9-1.1 1.6-1.5.7-.4 1.4-.5 2.3-.5.8 0 1.6.2 2.3.5.7.4 1.2.8 1.5 1.5.4.6.6 1.3.6 2 0 .5-.1 1.1-.3 1.6-.2.5-.5 1.1-1 1.7-.5.6-1.1 1.4-2 2.3l-3.3 3.5v.1h6.8v1.6H723zm16.9.2c-1.1 0-2-.3-2.7-.9-.8-.6-1.3-1.4-1.7-2.5-.4-1.1-.6-2.5-.6-4 0-1.6.2-2.9.6-4 .4-1.1 1-2 1.7-2.6.8-.6 1.7-.9 2.7-.9 1.1 0 2 .3 2.7.9.8.6 1.3 1.4 1.7 2.6.4 1.1.6 2.5.6 4 0 1.6-.2 2.9-.6 4-.4 1.1-1 2-1.7 2.5-.7.6-1.6.9-2.7.9zm0-1.5c1.1 0 1.9-.5 2.5-1.5.6-1 .9-2.5.9-4.4 0-1.3-.1-2.3-.4-3.2-.3-.9-.7-1.6-1.2-2-.5-.5-1.1-.7-1.8-.7-1.1 0-1.9.5-2.5 1.6-.6 1-.9 2.5-.9 4.4 0 1.3.1 2.3.4 3.2.3.9.7 1.5 1.1 2 .6.3 1.2.6 1.9.6zM551.1 32.7V3.6h17.6v3.1h-14v9.8h13.1v3.1h-13.1v9.9H569v3.1h-17.9zM577 10.9l5.2 8.9 5.2-8.9h3.9l-7 10.9 7 10.9h-3.9l-5.2-8.5-5.2 8.5h-3.9l6.9-10.9-6.9-10.9h3.9zm19.1 30v-30h3.2v3.5h.4c.2-.4.6-.9 1-1.4.4-.6 1.1-1.1 1.9-1.6.8-.5 2-.7 3.4-.7 1.8 0 3.5.5 4.9 1.4 1.4.9 2.5 2.2 3.3 3.9.8 1.7 1.2 3.7 1.2 6s-.4 4.3-1.2 6c-.8 1.7-1.9 3-3.3 3.9-1.4.9-3 1.4-4.8 1.4-1.4 0-2.5-.2-3.4-.7-.8-.5-1.5-1-1.9-1.6-.4-.6-.8-1.1-1.1-1.5h-.3V41h-3.3zm3.3-19.1c0 1.6.2 3.1.7 4.4.5 1.2 1.2 2.2 2.1 2.9.9.7 2.1 1.1 3.4 1.1 1.4 0 2.6-.4 3.5-1.1.9-.7 1.7-1.8 2.1-3 .5-1.3.7-2.7.7-4.2s-.2-2.9-.7-4.1c-.5-1.2-1.2-2.2-2.1-2.9-.9-.7-2.1-1.1-3.5-1.1s-2.5.3-3.4 1c-.9.7-1.6 1.6-2.1 2.9-.5 1.1-.7 2.5-.7 4.1zm21.1 10.9V10.9h3.2v3.3h.2c.4-1.1 1.1-2 2.2-2.6 1-.7 2.2-1 3.5-1H631.3V14c-.1 0-.4-.1-.8-.1-.4-.1-.8-.1-1.3-.1-1.1 0-2 .2-2.8.7-.8.4-1.5 1-2 1.8s-.7 1.6-.7 2.6v13.8h-3.2zm23.4.5c-2.1 0-3.9-.5-5.4-1.4-1.5-.9-2.7-2.2-3.5-3.9-.8-1.7-1.2-3.6-1.2-5.9 0-2.2.4-4.2 1.2-5.9.8-1.7 2-3 3.4-4 1.5-1 3.2-1.4 5.2-1.4 1.1 0 2.3.2 3.4.6 1.1.4 2.1 1 3 1.8.9.8 1.6 2 2.2 3.4.5 1.4.8 3.1.8 5.1V23h-16.8v-2.9h13.4c0-1.2-.2-2.3-.7-3.3-.5-1-1.2-1.7-2.1-2.3-.9-.6-1.9-.8-3.2-.8-1.3 0-2.5.3-3.5 1s-1.7 1.5-2.2 2.6-.8 2.2-.8 3.4v1.9c0 1.6.3 3 .8 4.2.6 1.1 1.4 2 2.4 2.6 1 .6 2.2.9 3.6.9.9 0 1.7-.1 2.4-.4.7-.3 1.3-.6 1.9-1.1.5-.5.9-1.1 1.2-1.9l3.2.9c-.3 1.1-.9 2.1-1.7 2.9-.8.8-1.8 1.5-3 1.9-1.2.4-2.6.6-4 .6zm29.5-17.4-3 .9c-.2-.5-.5-1-.8-1.5-.4-.5-.9-.9-1.5-1.2-.6-.3-1.4-.5-2.4-.5-1.3 0-2.5.3-3.3.9-.9.6-1.3 1.4-1.3 2.3 0 .8.3 1.5.9 2 .6.5 1.5.9 2.8 1.2l3.2.8c1.9.5 3.4 1.2 4.4 2.2 1 1 1.4 2.2 1.4 3.7 0 1.2-.4 2.4-1.1 3.4-.7 1-1.7 1.8-3 2.3-1.3.6-2.8.9-4.5.9-2.2 0-4.1-.5-5.5-1.4-1.4-1-2.4-2.4-2.8-4.2l3.2-.8c.3 1.2.9 2.1 1.7 2.6.8.6 2 .9 3.3.9 1.6 0 2.8-.3 3.7-1 .9-.7 1.4-1.5 1.4-2.4 0-.8-.3-1.4-.8-1.9s-1.3-.9-2.4-1.2l-3.6-.9c-2-.5-3.5-1.2-4.4-2.2-.9-1-1.4-2.3-1.4-3.8 0-1.2.3-2.3 1-3.3.7-.9 1.7-1.7 2.9-2.2 1.2-.5 2.6-.8 4.1-.8 2.2 0 3.8.5 5.1 1.4 1.3 1 2.2 2.3 2.7 3.8zm20.9 0-3 .9c-.2-.5-.5-1-.8-1.5-.4-.5-.8-.9-1.5-1.2-.6-.3-1.4-.5-2.4-.5-1.3 0-2.4.3-3.3.9-.9.6-1.3 1.4-1.3 2.3 0 .8.3 1.5.9 2 .6.5 1.6.9 2.8 1.2l3.2.8c1.9.5 3.4 1.2 4.4 2.2.9 1 1.4 2.2 1.4 3.7 0 1.2-.4 2.4-1.1 3.4-.7 1-1.7 1.8-3 2.3-1.3.6-2.8.9-4.5.9-2.2 0-4.1-.5-5.5-1.4-1.5-1-2.4-2.4-2.8-4.2l3.2-.8c.3 1.2.9 2.1 1.7 2.6.9.6 2 .9 3.3.9 1.6 0 2.8-.3 3.7-1 .9-.7 1.4-1.5 1.4-2.4 0-.8-.3-1.4-.8-1.9s-1.3-.9-2.4-1.2l-3.6-.9c-2-.5-3.5-1.2-4.4-2.2-.9-1-1.4-2.3-1.4-3.8 0-1.2.3-2.3 1-3.3.7-.9 1.7-1.7 2.9-2.2 1.2-.5 2.6-.8 4.1-.8 2.2 0 3.9.5 5.1 1.4 1.3 1 2.2 2.3 2.7 3.8zm5.5 16.9V10.9h3.3v21.8h-3.3zm1.7-25.4c-.6 0-1.2-.2-1.7-.7-.5-.4-.7-1-.7-1.6s.2-1.2.7-1.6c.5-.4 1-.7 1.7-.7s1.2.2 1.7.7.7 1 .7 1.6-.2 1.2-.7 1.6c-.5.5-1.1.7-1.7.7zm25.6 3.6L719 32.7h-3.4l-8.1-21.8h3.6l6 17.4h.2l6-17.4h3.8zm12.8 22.3c-2.1 0-3.9-.5-5.4-1.4-1.5-.9-2.7-2.2-3.5-3.9-.8-1.7-1.2-3.6-1.2-5.9 0-2.2.4-4.2 1.2-5.9.8-1.7 2-3 3.4-4 1.5-1 3.2-1.4 5.2-1.4 1.1 0 2.3.2 3.4.6s2.1 1 3 1.8c.9.8 1.6 2 2.2 3.4.5 1.4.8 3.1.8 5.1V23h-16.8v-2.9h13.4c0-1.2-.2-2.3-.7-3.3-.5-1-1.2-1.7-2.1-2.3-.9-.6-1.9-.8-3.2-.8-1.3 0-2.5.3-3.5 1s-1.7 1.5-2.2 2.6c-.5 1.1-.8 2.2-.8 3.4v1.9c0 1.6.3 3 .9 4.2.6 1.1 1.4 2 2.4 2.6 1 .6 2.2.9 3.6.9.9 0 1.7-.1 2.4-.4.7-.3 1.3-.6 1.9-1.1.5-.5.9-1.1 1.2-1.9l3.2.9c-.3 1.1-.9 2.1-1.7 2.9-.8.8-1.8 1.5-3 1.9-1.3.4-2.6.6-4.1.6z" class="st0"/><path d="M35.5 69.7h405c11 0 20 9 20 20v400c0 11-9 20-20 20h-405c-11 0-20-9-20-20v-400c0-11 9-20 20-20zM570.5 69.7h405c11 0 20 9 20 20v400c0 11-9 20-20 20h-405c-11 0-20-9-20-20v-400c0-11 9-20 20-20z" class="st1"/><path d="M40.1 509.6c.8 0 1.7-.1 2.5-.1 295.2-11.5 118-401.7 416.9-401.7M565.5 507.2c179.1-319.9 283-530.1 430-396.7" class="st2"/><path d="M567.5 102.9c-.6 0-1.2-.2-1.7-.5s-.9-.8-1.1-1.4c-.3-.6-.4-1.3-.4-2.1s.1-1.5.4-2.1c.3-.6.7-1 1.2-1.4.5-.3 1-.5 1.7-.5.5 0 .9.1 1.2.2.3.2.5.3.7.6.2.2.3.4.4.5h.1v-3.8h1.2v10.2h-1.1v-1.2h-.1c-.1.1-.2.3-.4.5s-.4.4-.7.6c-.5.3-.9.4-1.4.4zm.2-1.1c.5 0 .9-.1 1.2-.4.3-.2.6-.6.7-1 .2-.4.2-.9.2-1.5s-.1-1.1-.2-1.5c-.2-.4-.4-.8-.7-1-.3-.2-.7-.4-1.2-.4s-.9.1-1.2.4c-.3.3-.6.6-.7 1-.2.4-.2.9-.2 1.5 0 .5.1 1 .2 1.5.2.4.4.8.7 1.1.2.2.7.3 1.2.3zm5.6.9v-7.6h1.2v7.6h-1.2zm.6-8.9c-.2 0-.4-.1-.6-.2-.2-.2-.2-.3-.2-.6 0-.2.1-.4.2-.6.2-.2.4-.2.6-.2.2 0 .4.1.6.2.2.2.2.3.2.6 0 .2-.1.4-.2.6-.2.1-.4.2-.6.2zm8.1 3-1.1.3c-.1-.2-.2-.3-.3-.5-.1-.2-.3-.3-.5-.4-.2-.1-.5-.2-.8-.2-.5 0-.9.1-1.2.3-.3.2-.5.5-.5.8 0 .3.1.5.3.7.2.2.6.3 1 .4l1.1.3c.7.2 1.2.4 1.5.8.3.3.5.8.5 1.3 0 .4-.1.8-.4 1.2-.2.3-.6.6-1 .8-.4.2-1 .3-1.6.3-.8 0-1.4-.2-1.9-.5s-.8-.8-1-1.5l1.1-.3c.1.4.3.7.6.9.3.2.7.3 1.2.3s1-.1 1.3-.3c.3-.2.5-.5.5-.8 0-.3-.1-.5-.3-.7-.2-.2-.5-.3-.9-.4l-1.3-.3c-.7-.2-1.2-.4-1.5-.8-.3-.4-.5-.8-.5-1.3 0-.4.1-.8.4-1.1.2-.3.6-.6 1-.8.4-.2.9-.3 1.5-.3.8 0 1.3.2 1.8.5s.9.8 1 1.3zm5.3-1.7v1h-4v-1h4zm-2.8-1.8h1.2v7.3c0 .3 0 .6.1.7.1.2.2.3.4.3.2.1.3.1.5.1h.5l.2 1.1c-.1 0-.2.1-.3.1h-.5c-.3 0-.7-.1-1-.2-.3-.1-.6-.4-.8-.7-.2-.3-.3-.7-.3-1.1v-7.6zm6.8 9.6c-.5 0-.9-.1-1.3-.3-.4-.2-.7-.5-.9-.8-.2-.4-.3-.8-.3-1.3 0-.4.1-.8.3-1.1.2-.3.4-.5.7-.6.3-.2.6-.3 1-.3.3-.1.7-.1 1.1-.2.5-.1.8-.1 1.1-.1.3 0 .5-.1.6-.2.1-.1.2-.2.2-.4 0-.5-.1-.9-.4-1.1-.3-.3-.7-.4-1.2-.4-.6 0-1 .1-1.3.4-.3.2-.5.5-.7.8l-1.1-.4c.2-.5.5-.8.8-1.1.3-.3.7-.4 1.1-.5.4-.1.8-.2 1.2-.2.2 0 .5 0 .8.1.3.1.6.2.9.4.3.2.6.4.8.8.2.4.3.8.3 1.5v5h-1.2v-1h-.1c-.1.2-.2.3-.4.5s-.4.4-.7.5c-.5-.1-.9 0-1.3 0zm.2-1c.5 0 .8-.1 1.2-.3.3-.2.6-.4.7-.7.2-.3.2-.6.2-.9v-1.1c0 .1-.2.1-.3.2-.2 0-.4.1-.6.1-.2 0-.4.1-.6.1-.2 0-.4 0-.5.1-.3 0-.6.1-.9.2-.3.1-.5.2-.6.4-.2.2-.2.4-.2.7 0 .4.1.7.4.9.3.2.7.3 1.2.3zm6.6-3.8v4.6h-1.2v-7.6h1.1v1.2h.1c.2-.4.5-.7.8-.9.4-.2.8-.4 1.4-.4.5 0 1 .1 1.4.3.4.2.7.5.9 1 .2.4.3 1 .3 1.6v4.9h-1.2V98c0-.6-.2-1.1-.5-1.4-.3-.3-.7-.5-1.3-.5-.4 0-.7.1-1 .2-.3.2-.5.4-.7.7 0 .3-.1.7-.1 1.1zm10.1 4.8c-.7 0-1.3-.2-1.9-.5-.5-.3-.9-.8-1.2-1.4-.3-.6-.4-1.3-.4-2 0-.8.1-1.5.4-2.1.3-.6.7-1.1 1.2-1.4.5-.3 1.1-.5 1.8-.5.5 0 1 .1 1.4.3.4.2.8.5 1.1.8.3.4.4.8.5 1.3H610c-.1-.3-.3-.7-.6-.9-.3-.3-.7-.4-1.2-.4s-.9.1-1.2.4c-.3.2-.6.6-.8 1-.2.4-.3.9-.3 1.5s.1 1.1.3 1.5c.2.4.5.8.8 1 .3.2.8.4 1.2.4.3 0 .6-.1.8-.2.2-.1.5-.3.6-.5.2-.2.3-.4.4-.7h1.2c-.1.4-.2.9-.5 1.2-.3.4-.6.6-1 .9-.4.2-.9.3-1.5.3zm7.9 0c-.7 0-1.4-.2-1.9-.5s-.9-.8-1.2-1.4c-.3-.6-.4-1.3-.4-2.1s.1-1.5.4-2.1c.3-.6.7-1.1 1.2-1.4.5-.3 1.1-.5 1.8-.5.4 0 .8.1 1.2.2.4.1.7.3 1.1.6.3.3.6.7.8 1.2.2.5.3 1.1.3 1.8v.5h-5.9v-1h4.7c0-.4-.1-.8-.3-1.2-.2-.3-.4-.6-.7-.8-.3-.2-.7-.3-1.1-.3-.5 0-.9.1-1.2.3-.3.2-.6.5-.8.9-.2.4-.3.8-.3 1.2v.7c0 .6.1 1.1.3 1.5.2.4.5.7.8.9.4.2.8.3 1.2.3.3 0 .6 0 .8-.1.2-.1.5-.2.6-.4.2-.2.3-.4.4-.7l1.1.3c-.1.4-.3.7-.6 1-.3.3-.6.5-1 .7-.3.3-.8.4-1.3.4zM34.5 102.9c-.6 0-1.2-.2-1.7-.5s-.9-.8-1.1-1.4c-.3-.6-.4-1.3-.4-2.1s.1-1.5.4-2.1c.3-.6.7-1 1.1-1.4.5-.3 1.1-.5 1.7-.5.5 0 .9.1 1.2.2.3.2.5.3.7.6.2.2.3.4.4.5h.1v-3.8H38v10.2h-1.1v-1.2h-.1c-.1.1-.2.3-.4.5s-.4.4-.7.6c-.3.3-.7.4-1.2.4zm.2-1.1c.5 0 .9-.1 1.2-.4.3-.2.6-.6.7-1 .2-.4.3-.9.3-1.5s-.1-1.1-.2-1.5c-.2-.4-.4-.8-.7-1-.3-.2-.7-.4-1.2-.4s-.9.1-1.2.4c-.3.3-.6.6-.7 1-.2.4-.2.9-.2 1.5 0 .5.1 1 .2 1.5.2.4.4.8.7 1.1.2.2.6.3 1.1.3zm5.6.9v-7.6h1.2v7.6h-1.2zm.6-8.9c-.2 0-.4-.1-.6-.2-.2-.2-.2-.3-.2-.6 0-.2.1-.4.2-.6.2-.2.4-.2.6-.2.2 0 .4.1.6.2.2.2.2.3.2.6 0 .2-.1.4-.2.6-.2.1-.4.2-.6.2zm8.1 3-1 .3c-.1-.2-.2-.3-.3-.5-.1-.2-.3-.3-.5-.4-.2-.1-.5-.2-.9-.2-.5 0-.9.1-1.2.3-.3.2-.5.5-.5.8 0 .3.1.5.3.7.2.2.5.3 1 .4l1.1.3c.7.2 1.2.4 1.5.8.3.3.5.8.5 1.3 0 .4-.1.8-.4 1.2-.2.3-.6.6-1 .8-.4.2-1 .3-1.6.3-.8 0-1.4-.2-1.9-.5s-.8-.8-1-1.5l1.1-.3c.1.4.3.7.6.9.3.2.7.3 1.2.3s1-.1 1.3-.3c.3-.2.5-.5.5-.8 0-.3-.1-.5-.3-.7-.2-.2-.5-.3-.9-.4l-1.3-.3c-.7-.2-1.2-.4-1.5-.8-.3-.4-.5-.8-.5-1.3 0-.4.1-.8.4-1.1.2-.3.6-.6 1-.8.4-.2.9-.3 1.4-.3.8 0 1.3.2 1.8.5.6.3 1 .8 1.1 1.3zm5.3-1.7v1h-4v-1h4zm-2.8-1.8h1.2v7.3c0 .3 0 .6.1.7.1.2.2.3.4.3.2.1.3.1.5.1h.5l.2 1.1c-.1 0-.2.1-.3.1h-.5c-.3 0-.7-.1-1-.2-.3-.1-.6-.4-.8-.7-.2-.3-.3-.7-.3-1.1v-7.6zm6.8 9.6c-.5 0-.9-.1-1.3-.3-.4-.2-.7-.5-.9-.8-.2-.4-.3-.8-.3-1.3 0-.4.1-.8.3-1.1.2-.3.4-.5.7-.6.3-.2.6-.3 1-.3.4-.1.7-.1 1.1-.2.5-.1.8-.1 1.1-.1.3 0 .5-.1.6-.2.1-.1.2-.2.2-.4 0-.5-.1-.9-.4-1.1-.5-.3-.9-.5-1.4-.5-.6 0-1 .1-1.3.4-.3.2-.5.5-.7.8l-1.1-.4c.2-.5.5-.8.8-1.1.3-.3.7-.4 1.1-.5.4-.1.8-.2 1.2-.2.2 0 .5 0 .8.1.3.1.6.2.9.4.3.2.6.4.8.8.2.4.3.8.3 1.5v5h-1.2v-1h-.1c-.1.2-.2.3-.4.5s-.4.4-.7.5c-.3 0-.7.1-1.1.1zm.2-1c.5 0 .9-.1 1.2-.3.3-.2.6-.4.7-.7.2-.3.2-.6.2-.9v-1.1c0 .1-.2.1-.3.2-.2 0-.4.1-.6.1-.2 0-.4.1-.6.1-.2 0-.4 0-.5.1-.3 0-.6.1-.9.2-.3.1-.5.2-.6.4-.2.2-.2.4-.2.7 0 .4.2.7.5.9.2.2.6.3 1.1.3zm6.6-3.8v4.6h-1.2v-7.6H65v1.2h.1c.2-.4.5-.7.8-.9.4-.2.8-.4 1.4-.4.5 0 1 .1 1.4.3.4.2.7.5.9 1 .2.4.3 1 .3 1.6v4.9h-1.2V98c0-.6-.2-1.1-.5-1.4-.3-.3-.7-.5-1.3-.5-.4 0-.7.1-1 .2-.3.2-.5.4-.7.7 0 .3-.1.7-.1 1.1zm10.1 4.8c-.7 0-1.3-.2-1.8-.5s-.9-.8-1.2-1.4c-.3-.6-.4-1.3-.4-2 0-.8.1-1.5.4-2.1.3-.6.7-1.1 1.2-1.4.5-.3 1.1-.5 1.8-.5.5 0 1 .1 1.5.3.4.2.8.5 1.1.8.3.4.4.8.5 1.3H77c-.1-.3-.3-.7-.6-.9-.3-.3-.7-.4-1.2-.4s-.9.1-1.2.4c-.3.2-.6.6-.8 1-.2.4-.3.9-.3 1.5s.1 1.1.3 1.5c.2.4.5.8.8 1 .3.2.7.4 1.2.4.3 0 .6-.1.8-.2.2-.1.5-.3.6-.5.2-.2.3-.4.4-.7h1.2c-.1.4-.2.9-.5 1.2-.3.4-.6.6-1 .9-.4.2-.9.3-1.5.3zm7.9 0c-.7 0-1.4-.2-1.9-.5s-.9-.8-1.2-1.4c-.3-.6-.4-1.3-.4-2.1s.1-1.5.4-2.1c.3-.6.7-1.1 1.2-1.4.5-.3 1.1-.5 1.8-.5.4 0 .8.1 1.2.2.4.1.7.3 1.1.6.3.3.6.7.8 1.2.2.5.3 1.1.3 1.8v.5h-5.9v-1h4.7c0-.4-.1-.8-.3-1.2-.2-.3-.4-.6-.7-.8-.3-.2-.7-.3-1.1-.3-.5 0-.9.1-1.2.3-.3.2-.6.5-.8.9-.2.4-.3.8-.3 1.2v.7c0 .6.1 1.1.3 1.5.2.4.5.7.8.9.4.2.8.3 1.2.3.3 0 .6 0 .8-.1.3-.1.5-.2.7-.4.2-.2.3-.4.4-.7l1.1.3c-.1.4-.3.7-.6 1-.3.3-.6.5-1 .7-.4.3-.9.4-1.4.4zM955.9 482.1v1h-4v-1h4zm-2.8-1.8h1.2v7.3c0 .3.1.6.2.7.1.2.2.3.4.3.1.1.3.1.5.1h.5l.2 1.1c-.1 0-.2.1-.3.1h-.5c-.3 0-.7-.1-1-.2-.3-.1-.6-.4-.8-.7-.2-.3-.3-.7-.3-1.1v-7.6zm4.6 9.4v-7.6h1.2v7.6h-1.2zm.6-8.9c-.2 0-.4-.1-.6-.2-.2-.2-.2-.3-.2-.6 0-.2.1-.4.2-.6.2-.2.4-.2.6-.2s.4.1.6.2c.2.2.2.3.2.6 0 .2-.1.4-.2.6-.2.1-.4.2-.6.2zm2.7 8.9v-7.6h1.1v1.2h.1c.2-.4.4-.7.8-1 .3-.2.8-.3 1.3-.3s.9.1 1.3.3c.3.2.6.5.8 1h.1c.2-.4.5-.7.9-.9.4-.2.9-.4 1.4-.4.7 0 1.2.2 1.7.6.4.4.7 1.1.7 2v5.1H970v-5.1c0-.6-.1-1-.5-1.2-.3-.2-.7-.4-1.1-.4-.5 0-1 .2-1.2.5-.3.3-.4.7-.4 1.2v5h-1.2v-5.2c0-.4-.1-.8-.4-1-.3-.3-.6-.4-1.1-.4-.3 0-.6.1-.9.2-.3.2-.5.4-.6.7-.2.3-.2.6-.2 1v4.8H961zm15.4.2c-.7 0-1.4-.2-1.9-.5s-.9-.8-1.2-1.4c-.3-.6-.4-1.3-.4-2.1s.1-1.5.4-2.1c.3-.6.7-1.1 1.2-1.4.5-.3 1.1-.5 1.8-.5.4 0 .8.1 1.2.2s.7.3 1.1.6c.3.3.6.7.8 1.2.2.5.3 1.1.3 1.8v.5h-5.9v-1h4.7c0-.4-.1-.8-.3-1.2-.2-.3-.4-.6-.7-.8-.3-.2-.7-.3-1.1-.3-.5 0-.9.1-1.2.3-.3.2-.6.5-.8.9-.2.4-.3.8-.3 1.2v.7c0 .6.1 1.1.3 1.5.2.4.5.7.8.9.4.2.8.3 1.2.3.3 0 .6 0 .8-.1.2-.1.5-.2.7-.4.2-.2.3-.4.4-.7l1.1.3c-.1.4-.3.7-.6 1-.3.3-.6.5-1 .7-.4.3-.9.4-1.4.4zM422.9 482.1v1h-4v-1h4zm-2.8-1.8h1.2v7.3c0 .3.1.6.2.7.1.2.2.3.4.3.1.1.3.1.5.1h.5l.2 1.1c-.1 0-.2.1-.3.1h-.5c-.3 0-.7-.1-1-.2-.3-.1-.6-.4-.8-.7-.2-.3-.3-.7-.3-1.1v-7.6zm4.6 9.4v-7.6h1.2v7.6h-1.2zm.6-8.9c-.2 0-.4-.1-.6-.2-.2-.2-.2-.3-.2-.6 0-.2.1-.4.2-.6.2-.2.4-.2.6-.2s.4.1.6.2c.2.2.2.3.2.6 0 .2-.1.4-.2.6-.2.1-.4.2-.6.2zm2.7 8.9v-7.6h1.1v1.2h.1c.2-.4.4-.7.8-1 .3-.2.8-.3 1.3-.3s.9.1 1.3.3c.3.2.6.5.8 1h.1c.2-.4.5-.7.9-.9.4-.2.9-.4 1.4-.4.7 0 1.2.2 1.7.6.4.4.7 1.1.7 2v5.1H437v-5.1c0-.6-.1-1-.5-1.2-.3-.2-.7-.4-1.1-.4-.5 0-1 .2-1.2.5-.3.3-.4.7-.4 1.2v5h-1.2v-5.2c0-.4-.1-.8-.4-1-.3-.3-.6-.4-1.1-.4-.3 0-.6.1-.9.2-.3.2-.5.4-.6.7-.2.3-.2.6-.2 1v4.8H428zm15.4.2c-.7 0-1.4-.2-1.9-.5s-.9-.8-1.2-1.4c-.3-.6-.4-1.3-.4-2.1s.1-1.5.4-2.1c.3-.6.7-1.1 1.2-1.4.5-.3 1.1-.5 1.8-.5.4 0 .8.1 1.2.2s.7.3 1.1.6c.3.3.6.7.8 1.2.2.5.3 1.1.3 1.8v.5h-5.9v-1h4.7c0-.4-.1-.8-.3-1.2-.2-.3-.4-.6-.7-.8-.3-.2-.7-.3-1.1-.3-.5 0-.9.1-1.2.3-.3.2-.6.5-.8.9-.2.4-.3.8-.3 1.2v.7c0 .6.1 1.1.3 1.5.2.4.5.7.8.9.4.2.8.3 1.2.3.3 0 .6 0 .8-.1.2-.1.5-.2.7-.4.2-.2.3-.4.4-.7l1.1.3c-.1.4-.3.7-.6 1-.3.3-.6.5-1 .7-.4.3-.9.4-1.4.4z" class="st0"/></svg>