<?xml version="1.0" encoding="utf-8"?>
<!-- Generator: Adobe Illustrator 26.5.0, SVG Export Plug-In . SVG Version: 6.00 Build 0)  -->
<svg version="1.1" id="Layer_1" xmlns="http://www.w3.org/2000/svg" xmlns:xlink="http://www.w3.org/1999/xlink" x="0px" y="0px"
	 viewBox="0 0 1008.3 558" style="enable-background:new 0 0 1008.3 558;" xml:space="preserve">
<style type="text/css">
	.st0{fill:#171321;}
	.st1{fill:#FFFFFF;stroke:#B9B9B9;stroke-width:2;stroke-miterlimit:10;}
	.st2{fill:none;stroke:#B9B9B9;stroke-width:2;}
</style>
<g>
	<g>
		<path class="st0" d="M18.6,3.6v29.1h-3.5V3.6H18.6z M28.5,19.6v13.1h-3.4V10.9h3.2v3.4h0.3c0.5-1.1,1.3-2,2.3-2.7c1-0.7,2.4-1,4-1
			c1.5,0,2.8,0.3,3.9,0.9c1.1,0.6,2,1.5,2.6,2.7c0.6,1.2,0.9,2.7,0.9,4.6v13.9h-3.4V19.1c0-1.7-0.4-3.1-1.3-4
			c-0.9-1-2.1-1.4-3.7-1.4c-1.1,0-2,0.2-2.9,0.7c-0.8,0.5-1.5,1.1-2,2C28.8,17.3,28.5,18.3,28.5,19.6z M58.1,10.9v2.8H46.8v-2.8
			H58.1z M50.1,5.7h3.4v20.8c0,0.9,0.1,1.7,0.4,2.1c0.3,0.5,0.6,0.8,1.1,0.9c0.4,0.2,0.9,0.2,1.4,0.2c0.4,0,0.7,0,0.9-0.1
			c0.2,0,0.4-0.1,0.6-0.1l0.7,3c-0.2,0.1-0.5,0.2-1,0.3C57.1,33,56.6,33,56,33c-0.9,0-1.9-0.2-2.8-0.6c-0.9-0.4-1.6-1-2.2-1.9
			c-0.6-0.8-0.9-1.9-0.9-3.2V5.7z M72,33.2c-2.1,0-3.9-0.5-5.4-1.4c-1.5-0.9-2.7-2.2-3.5-3.9c-0.8-1.7-1.2-3.6-1.2-5.9
			c0-2.2,0.4-4.2,1.2-5.9c0.8-1.7,2-3,3.4-4c1.5-1,3.2-1.4,5.2-1.4c1.1,0,2.3,0.2,3.4,0.6c1.1,0.4,2.1,1,3,1.8
			c0.9,0.8,1.6,2,2.2,3.4c0.5,1.4,0.8,3.1,0.8,5.1V23H64.3v-2.9h13.4c0-1.2-0.2-2.3-0.7-3.3c-0.5-1-1.2-1.7-2.1-2.3
			c-0.9-0.6-1.9-0.8-3.2-0.8c-1.3,0-2.5,0.3-3.5,1c-1,0.7-1.7,1.5-2.2,2.6s-0.8,2.2-0.8,3.4v1.9c0,1.6,0.3,3,0.9,4.2
			c0.6,1.1,1.4,2,2.4,2.6c1,0.6,2.2,0.9,3.6,0.9c0.9,0,1.7-0.1,2.4-0.4c0.7-0.3,1.3-0.6,1.9-1.1c0.5-0.5,0.9-1.1,1.2-1.9l3.2,0.9
			c-0.3,1.1-0.9,2.1-1.7,2.9c-0.8,0.8-1.8,1.5-3,1.9C74.8,33,73.5,33.2,72,33.2z M86.2,32.7V10.9h3.2v3.3h0.2c0.4-1.1,1.1-2,2.2-2.6
			c1-0.7,2.2-1,3.5-1c0.2,0,0.6,0,0.9,0c0.4,0,0.6,0,0.8,0V14c-0.1,0-0.4-0.1-0.8-0.1c-0.4-0.1-0.8-0.1-1.3-0.1
			c-1.1,0-2,0.2-2.8,0.7c-0.8,0.4-1.5,1-2,1.8c-0.5,0.8-0.7,1.6-0.7,2.6v13.8H86.2z M107.5,33.2c-1.4,0-2.6-0.3-3.8-0.8
			c-1.1-0.5-2-1.3-2.7-2.3c-0.7-1-1-2.2-1-3.6c0-1.2,0.2-2.3,0.7-3c0.5-0.8,1.2-1.4,2-1.8c0.8-0.4,1.7-0.8,2.7-1c1-0.2,2-0.4,3-0.5
			c1.3-0.2,2.4-0.3,3.2-0.4c0.8-0.1,1.4-0.3,1.8-0.5c0.4-0.2,0.6-0.6,0.6-1.1V18c0-1.4-0.4-2.5-1.2-3.3c-0.8-0.8-1.9-1.2-3.5-1.2
			c-1.6,0-2.9,0.4-3.8,1.1c-0.9,0.7-1.5,1.4-1.9,2.2l-3.2-1.1c0.6-1.3,1.3-2.4,2.3-3.1c1-0.7,2-1.3,3.1-1.6c1.1-0.3,2.3-0.5,3.4-0.5
			c0.7,0,1.5,0.1,2.4,0.3c0.9,0.2,1.8,0.5,2.7,1c0.9,0.5,1.6,1.3,2.1,2.3c0.6,1,0.9,2.4,0.9,4.1v14.4h-3.4v-3H114
			c-0.2,0.5-0.6,1-1.1,1.5c-0.5,0.5-1.2,1-2.1,1.4C109.8,33.1,108.7,33.2,107.5,33.2z M108,30.2c1.3,0,2.4-0.3,3.4-0.8
			c0.9-0.5,1.6-1.2,2.1-2c0.5-0.8,0.7-1.7,0.7-2.6v-3.1c-0.1,0.2-0.5,0.3-0.9,0.5c-0.5,0.1-1,0.3-1.6,0.4c-0.6,0.1-1.2,0.2-1.8,0.3
			c-0.6,0.1-1,0.1-1.4,0.2c-0.9,0.1-1.7,0.3-2.4,0.6c-0.7,0.2-1.4,0.6-1.8,1.1c-0.5,0.5-0.7,1.2-0.7,2c0,1.2,0.4,2,1.3,2.6
			C105.5,29.9,106.6,30.2,108,30.2z M132.5,33.2c-2,0-3.8-0.5-5.3-1.4c-1.5-1-2.6-2.3-3.4-4c-0.8-1.7-1.2-3.6-1.2-5.8
			c0-2.2,0.4-4.2,1.2-5.9c0.8-1.7,2-3,3.4-4c1.5-1,3.2-1.4,5.2-1.4c1.5,0,2.9,0.3,4.1,0.9c1.2,0.6,2.2,1.4,3,2.4
			c0.8,1,1.3,2.2,1.5,3.6h-3.4c-0.3-1-0.8-1.9-1.7-2.6c-0.9-0.8-2-1.2-3.5-1.2c-1.3,0-2.5,0.3-3.4,1c-1,0.7-1.7,1.6-2.3,2.9
			c-0.5,1.2-0.8,2.7-0.8,4.3c0,1.7,0.3,3.2,0.8,4.4c0.5,1.2,1.3,2.2,2.3,2.9c1,0.7,2.1,1,3.5,1c0.9,0,1.7-0.2,2.4-0.5
			c0.7-0.3,1.3-0.7,1.8-1.3c0.5-0.6,0.8-1.2,1.1-2h3.4c-0.2,1.3-0.7,2.4-1.4,3.5c-0.7,1-1.7,1.8-2.9,2.4
			C135.5,32.9,134.1,33.2,132.5,33.2z M155.4,10.9v2.8h-11.3v-2.8H155.4z M147.4,5.7h3.4v20.8c0,0.9,0.1,1.7,0.4,2.1
			c0.3,0.5,0.6,0.8,1.1,0.9c0.4,0.2,0.9,0.2,1.4,0.2c0.4,0,0.7,0,0.9-0.1c0.2,0,0.4-0.1,0.6-0.1l0.7,3c-0.2,0.1-0.5,0.2-1,0.3
			c-0.4,0.1-0.9,0.1-1.5,0.1c-0.9,0-1.9-0.2-2.8-0.6c-0.9-0.4-1.6-1-2.2-1.9c-0.6-0.8-0.9-1.9-0.9-3.2V5.7z M160.5,32.7V10.9h3.4
			v21.8H160.5z M162.2,7.3c-0.7,0-1.2-0.2-1.7-0.7c-0.5-0.4-0.7-1-0.7-1.6s0.2-1.2,0.7-1.6c0.5-0.4,1-0.7,1.7-0.7
			c0.7,0,1.2,0.2,1.7,0.7c0.5,0.4,0.7,1,0.7,1.6s-0.2,1.2-0.7,1.6C163.4,7.1,162.8,7.3,162.2,7.3z M187.8,10.9l-8.1,21.8h-3.4
			l-8.1-21.8h3.6l6,17.4h0.2l6-17.4H187.8z M200.6,33.2c-2.1,0-3.9-0.5-5.4-1.4c-1.5-0.9-2.7-2.2-3.5-3.9c-0.8-1.7-1.2-3.6-1.2-5.9
			c0-2.2,0.4-4.2,1.2-5.9c0.8-1.7,2-3,3.4-4c1.5-1,3.2-1.4,5.2-1.4c1.1,0,2.3,0.2,3.4,0.6c1.1,0.4,2.1,1,3,1.8
			c0.9,0.8,1.6,2,2.2,3.4c0.5,1.4,0.8,3.1,0.8,5.1V23h-16.8v-2.9h13.4c0-1.2-0.2-2.3-0.7-3.3c-0.5-1-1.2-1.7-2.1-2.3
			c-0.9-0.6-1.9-0.8-3.2-0.8c-1.3,0-2.5,0.3-3.5,1c-1,0.7-1.7,1.5-2.2,2.6s-0.8,2.2-0.8,3.4v1.9c0,1.6,0.3,3,0.9,4.2
			c0.6,1.1,1.4,2,2.4,2.6c1,0.6,2.2,0.9,3.6,0.9c0.9,0,1.7-0.1,2.4-0.4c0.7-0.3,1.3-0.6,1.9-1.1c0.5-0.5,0.9-1.1,1.2-1.9l3.2,0.9
			c-0.3,1.1-0.9,2.1-1.7,2.9c-0.8,0.8-1.8,1.5-3,1.9C203.4,33,202.1,33.2,200.6,33.2z"/>
		<path class="st0" d="M17.8,551.9c-1.1,0-2-0.3-2.7-0.9c-0.8-0.6-1.3-1.4-1.7-2.5c-0.4-1.1-0.6-2.5-0.6-4c0-1.6,0.2-2.9,0.6-4
			c0.4-1.1,1-2,1.7-2.6c0.8-0.6,1.7-0.9,2.7-0.9s2,0.3,2.7,0.9c0.8,0.6,1.3,1.4,1.7,2.6c0.4,1.1,0.6,2.5,0.6,4c0,1.6-0.2,2.9-0.6,4
			c-0.4,1.1-1,2-1.7,2.5C19.8,551.6,18.9,551.9,17.8,551.9z M17.8,550.4c1.1,0,1.9-0.5,2.5-1.5c0.6-1,0.9-2.5,0.9-4.4
			c0-1.3-0.1-2.3-0.4-3.2c-0.3-0.9-0.6-1.6-1.2-2c-0.5-0.5-1.1-0.7-1.8-0.7c-1.1,0-1.9,0.5-2.5,1.6c-0.6,1-0.9,2.5-0.9,4.4
			c0,1.3,0.1,2.3,0.4,3.2c0.3,0.9,0.6,1.5,1.1,2C16.5,550.1,17.1,550.4,17.8,550.4z M26.3,551.8c-0.4,0-0.7-0.1-0.9-0.4
			c-0.3-0.3-0.4-0.6-0.4-0.9c0-0.4,0.1-0.7,0.4-0.9c0.3-0.3,0.6-0.4,0.9-0.4c0.4,0,0.7,0.1,0.9,0.4c0.3,0.3,0.4,0.6,0.4,0.9
			c0,0.2-0.1,0.4-0.2,0.6c-0.1,0.2-0.3,0.4-0.5,0.5C26.7,551.8,26.5,551.8,26.3,551.8z M30.7,551.7l6.5-12.9v-0.1h-7.5v-1.6H39v1.6
			l-6.5,12.9H30.7z M46.1,551.9c-1.1,0-2-0.3-2.7-0.9c-0.8-0.6-1.3-1.4-1.7-2.5c-0.4-1.1-0.6-2.5-0.6-4c0-1.6,0.2-2.9,0.6-4
			c0.4-1.1,1-2,1.7-2.6c0.8-0.6,1.7-0.9,2.7-0.9c1.1,0,2,0.3,2.7,0.9c0.8,0.6,1.3,1.4,1.7,2.6c0.4,1.1,0.6,2.5,0.6,4
			c0,1.6-0.2,2.9-0.6,4c-0.4,1.1-1,2-1.7,2.5C48.1,551.6,47.2,551.9,46.1,551.9z M46.1,550.4c1.1,0,1.9-0.5,2.5-1.5
			c0.6-1,0.9-2.5,0.9-4.4c0-1.3-0.1-2.3-0.4-3.2c-0.3-0.9-0.6-1.6-1.2-2c-0.5-0.5-1.1-0.7-1.8-0.7c-1.1,0-1.9,0.5-2.5,1.6
			c-0.6,1-0.9,2.5-0.9,4.4c0,1.3,0.1,2.3,0.4,3.2c0.3,0.9,0.6,1.5,1.1,2C44.8,550.1,45.4,550.4,46.1,550.4z M55.9,549.7l-0.1,0.8
			c-0.1,0.5-0.2,1.1-0.4,1.7c-0.2,0.6-0.3,1.2-0.5,1.7c-0.2,0.5-0.3,1-0.4,1.3h-1.3c0.1-0.3,0.1-0.7,0.2-1.2
			c0.1-0.5,0.2-1.1,0.3-1.7c0.1-0.6,0.2-1.2,0.3-1.9l0.1-0.8H55.9z M69.3,551.9c-1.1,0-2-0.3-2.7-0.9c-0.8-0.6-1.3-1.4-1.7-2.5
			c-0.4-1.1-0.6-2.5-0.6-4c0-1.6,0.2-2.9,0.6-4c0.4-1.1,1-2,1.7-2.6c0.8-0.6,1.7-0.9,2.7-0.9c1.1,0,2,0.3,2.7,0.9
			c0.8,0.6,1.3,1.4,1.7,2.6c0.4,1.1,0.6,2.5,0.6,4c0,1.6-0.2,2.9-0.6,4c-0.4,1.1-1,2-1.7,2.5C71.3,551.6,70.4,551.9,69.3,551.9z
			 M69.3,550.4c1.1,0,1.9-0.5,2.5-1.5c0.6-1,0.9-2.5,0.9-4.4c0-1.3-0.1-2.3-0.4-3.2c-0.3-0.9-0.6-1.6-1.1-2
			c-0.5-0.5-1.1-0.7-1.8-0.7c-1.1,0-1.9,0.5-2.5,1.6c-0.6,1-0.9,2.5-0.9,4.4c0,1.3,0.1,2.3,0.4,3.2c0.3,0.9,0.6,1.5,1.1,2
			C68,550.1,68.6,550.4,69.3,550.4z M77.8,551.8c-0.4,0-0.7-0.1-0.9-0.4c-0.3-0.3-0.4-0.6-0.4-0.9c0-0.4,0.1-0.7,0.4-0.9
			c0.3-0.3,0.6-0.4,0.9-0.4c0.3,0,0.7,0.1,0.9,0.4c0.3,0.3,0.4,0.6,0.4,0.9c0,0.2-0.1,0.4-0.2,0.6c-0.1,0.2-0.3,0.4-0.5,0.5
			C78.3,551.8,78.1,551.8,77.8,551.8z M86.3,551.9c-1.1,0-2-0.3-2.7-0.9c-0.8-0.6-1.3-1.4-1.7-2.5c-0.4-1.1-0.6-2.5-0.6-4
			c0-1.6,0.2-2.9,0.6-4c0.4-1.1,1-2,1.7-2.6c0.8-0.6,1.7-0.9,2.7-0.9c1.1,0,2,0.3,2.7,0.9c0.8,0.6,1.3,1.4,1.7,2.6
			c0.4,1.1,0.6,2.5,0.6,4c0,1.6-0.2,2.9-0.6,4c-0.4,1.1-1,2-1.7,2.5C88.3,551.6,87.4,551.9,86.3,551.9z M86.3,550.4
			c1.1,0,1.9-0.5,2.5-1.5c0.6-1,0.9-2.5,0.9-4.4c0-1.3-0.1-2.3-0.4-3.2c-0.3-0.9-0.6-1.6-1.2-2c-0.5-0.5-1.1-0.7-1.8-0.7
			c-1.1,0-1.9,0.5-2.5,1.6c-0.6,1-0.9,2.5-0.9,4.4c0,1.3,0.1,2.3,0.4,3.2c0.3,0.9,0.6,1.5,1.1,2C85,550.1,85.6,550.4,86.3,550.4z
			 M98.8,551.9c-1.1,0-2-0.3-2.7-0.9c-0.8-0.6-1.3-1.4-1.7-2.5c-0.4-1.1-0.6-2.5-0.6-4c0-1.6,0.2-2.9,0.6-4c0.4-1.1,1-2,1.7-2.6
			c0.8-0.6,1.7-0.9,2.7-0.9c1.1,0,2,0.3,2.7,0.9c0.8,0.6,1.3,1.4,1.7,2.6c0.4,1.1,0.6,2.5,0.6,4c0,1.6-0.2,2.9-0.6,4
			c-0.4,1.1-1,2-1.7,2.5C100.8,551.6,99.9,551.9,98.8,551.9z M98.8,550.4c1.1,0,1.9-0.5,2.5-1.5c0.6-1,0.9-2.5,0.9-4.4
			c0-1.3-0.1-2.3-0.4-3.2c-0.3-0.9-0.6-1.6-1.2-2c-0.5-0.5-1.1-0.7-1.8-0.7c-1.1,0-1.9,0.5-2.5,1.6c-0.6,1-0.9,2.5-0.9,4.4
			c0,1.3,0.1,2.3,0.4,3.2c0.3,0.9,0.6,1.5,1.1,2C97.5,550.1,98.1,550.4,98.8,550.4z M108.6,549.7l-0.1,0.8c-0.1,0.5-0.2,1.1-0.4,1.7
			c-0.2,0.6-0.3,1.2-0.5,1.7c-0.2,0.5-0.3,1-0.4,1.3h-1.3c0.1-0.3,0.1-0.7,0.2-1.2s0.2-1.1,0.3-1.7c0.1-0.6,0.2-1.2,0.3-1.9l0.1-0.8
			H108.6z M122,551.9c-1.1,0-2-0.3-2.7-0.9c-0.8-0.6-1.3-1.4-1.7-2.5c-0.4-1.1-0.6-2.5-0.6-4c0-1.6,0.2-2.9,0.6-4
			c0.4-1.1,1-2,1.7-2.6c0.8-0.6,1.7-0.9,2.7-0.9c1.1,0,2,0.3,2.7,0.9c0.8,0.6,1.3,1.4,1.7,2.6c0.4,1.1,0.6,2.5,0.6,4
			c0,1.6-0.2,2.9-0.6,4c-0.4,1.1-1,2-1.7,2.5C124,551.6,123.1,551.9,122,551.9z M122,550.4c1.1,0,1.9-0.5,2.5-1.5
			c0.6-1,0.9-2.5,0.9-4.4c0-1.3-0.1-2.3-0.4-3.2c-0.3-0.9-0.6-1.6-1.2-2c-0.5-0.5-1.1-0.7-1.8-0.7c-1.1,0-1.9,0.5-2.5,1.6
			c-0.6,1-0.9,2.5-0.9,4.4c0,1.3,0.1,2.3,0.4,3.2c0.3,0.9,0.6,1.5,1.1,2C120.7,550.1,121.3,550.4,122,550.4z M130.5,551.8
			c-0.4,0-0.7-0.1-0.9-0.4s-0.4-0.6-0.4-0.9c0-0.4,0.1-0.7,0.4-0.9c0.3-0.3,0.6-0.4,0.9-0.4c0.4,0,0.7,0.1,0.9,0.4
			c0.3,0.3,0.4,0.6,0.4,0.9c0,0.2-0.1,0.4-0.2,0.6c-0.1,0.2-0.3,0.4-0.5,0.5C131,551.8,130.8,551.8,130.5,551.8z M139.2,551.9
			c-0.9,0-1.8-0.2-2.5-0.5c-0.7-0.3-1.3-0.8-1.7-1.3c-0.4-0.6-0.7-1.2-0.7-2h1.8c0,0.5,0.2,0.9,0.5,1.2c0.3,0.3,0.7,0.6,1.1,0.8
			c0.5,0.2,1,0.3,1.5,0.3c0.6,0,1.2-0.1,1.7-0.3c0.5-0.2,0.9-0.5,1.1-0.9c0.3-0.4,0.4-0.8,0.4-1.3c0-0.5-0.1-1-0.4-1.4
			c-0.3-0.4-0.7-0.7-1.2-1c-0.5-0.2-1.1-0.3-1.9-0.3h-1.2v-1.6h1.2c0.6,0,1.1-0.1,1.5-0.3c0.4-0.2,0.8-0.5,1-0.9
			c0.3-0.4,0.4-0.8,0.4-1.3c0-0.5-0.1-0.9-0.3-1.3c-0.2-0.4-0.5-0.6-0.9-0.9c-0.4-0.2-0.9-0.3-1.4-0.3c-0.5,0-1,0.1-1.4,0.3
			c-0.4,0.2-0.8,0.4-1.1,0.8c-0.3,0.3-0.4,0.8-0.5,1.2h-1.7c0-0.8,0.3-1.4,0.7-2c0.4-0.6,1-1,1.7-1.3c0.7-0.3,1.5-0.5,2.3-0.5
			c0.9,0,1.7,0.2,2.3,0.5c0.6,0.4,1.1,0.8,1.5,1.4c0.3,0.6,0.5,1.2,0.5,1.9c0,0.8-0.2,1.5-0.6,2.1c-0.4,0.6-1,1-1.7,1.2v0.1
			c0.9,0.2,1.6,0.5,2.2,1.2c0.5,0.6,0.8,1.4,0.8,2.3c0,0.8-0.2,1.5-0.6,2.1c-0.4,0.6-1,1.1-1.7,1.5
			C141,551.8,140.1,551.9,139.2,551.9z M151.7,551.9c-1.1,0-2-0.3-2.7-0.9c-0.8-0.6-1.3-1.4-1.7-2.5c-0.4-1.1-0.6-2.5-0.6-4
			c0-1.6,0.2-2.9,0.6-4c0.4-1.1,1-2,1.7-2.6c0.8-0.6,1.7-0.9,2.7-0.9c1.1,0,2,0.3,2.7,0.9c0.8,0.6,1.3,1.4,1.7,2.6
			c0.4,1.1,0.6,2.5,0.6,4c0,1.6-0.2,2.9-0.6,4c-0.4,1.1-1,2-1.7,2.5C153.7,551.6,152.8,551.9,151.7,551.9z M151.7,550.4
			c1.1,0,1.9-0.5,2.5-1.5c0.6-1,0.9-2.5,0.9-4.4c0-1.3-0.1-2.3-0.4-3.2c-0.3-0.9-0.6-1.6-1.2-2c-0.5-0.5-1.1-0.7-1.8-0.7
			c-1.1,0-1.9,0.5-2.5,1.6c-0.6,1-0.9,2.5-0.9,4.4c0,1.3,0.1,2.3,0.4,3.2c0.3,0.9,0.6,1.5,1.1,2C150.4,550.1,151,550.4,151.7,550.4z
			 M161.5,549.7l-0.1,0.8c-0.1,0.5-0.2,1.1-0.4,1.7c-0.2,0.6-0.3,1.2-0.5,1.7c-0.2,0.5-0.3,1-0.4,1.3h-1.3c0.1-0.3,0.1-0.7,0.2-1.2
			c0.1-0.5,0.2-1.1,0.3-1.7c0.1-0.6,0.2-1.2,0.3-1.9l0.1-0.8H161.5z M175.3,537.2v14.5h-1.8V539h-0.1l-3.6,2.4v-1.8l3.6-2.4H175.3z
			 M179.9,551.8c-0.4,0-0.7-0.1-0.9-0.4c-0.3-0.3-0.4-0.6-0.4-0.9c0-0.4,0.1-0.7,0.4-0.9c0.3-0.3,0.6-0.4,0.9-0.4
			c0.4,0,0.7,0.1,0.9,0.4c0.3,0.3,0.4,0.6,0.4,0.9c0,0.2-0.1,0.4-0.2,0.6c-0.1,0.2-0.3,0.4-0.5,0.5
			C180.4,551.8,180.1,551.8,179.9,551.8z M188.4,551.9c-1.1,0-2-0.3-2.7-0.9c-0.8-0.6-1.3-1.4-1.7-2.5c-0.4-1.1-0.6-2.5-0.6-4
			c0-1.6,0.2-2.9,0.6-4c0.4-1.1,1-2,1.7-2.6c0.8-0.6,1.7-0.9,2.7-0.9c1.1,0,2,0.3,2.7,0.9c0.8,0.6,1.3,1.4,1.7,2.6
			c0.4,1.1,0.6,2.5,0.6,4c0,1.6-0.2,2.9-0.6,4c-0.4,1.1-1,2-1.7,2.5C190.4,551.6,189.5,551.9,188.4,551.9z M188.4,550.4
			c1.1,0,1.9-0.5,2.5-1.5c0.6-1,0.9-2.5,0.9-4.4c0-1.3-0.1-2.3-0.4-3.2c-0.3-0.9-0.6-1.6-1.2-2c-0.5-0.5-1.1-0.7-1.8-0.7
			c-1.1,0-1.9,0.5-2.5,1.6c-0.6,1-0.9,2.5-0.9,4.4c0,1.3,0.1,2.3,0.4,3.2c0.3,0.9,0.6,1.5,1.1,2
			C187.1,550.1,187.7,550.4,188.4,550.4z M200.9,551.9c-1.1,0-2-0.3-2.7-0.9c-0.8-0.6-1.3-1.4-1.7-2.5c-0.4-1.1-0.6-2.5-0.6-4
			c0-1.6,0.2-2.9,0.6-4c0.4-1.1,1-2,1.7-2.6c0.8-0.6,1.7-0.9,2.7-0.9c1.1,0,2,0.3,2.7,0.9c0.8,0.6,1.3,1.4,1.7,2.6
			c0.4,1.1,0.6,2.5,0.6,4c0,1.6-0.2,2.9-0.6,4c-0.4,1.1-1,2-1.7,2.5C202.9,551.6,202,551.9,200.9,551.9z M200.9,550.4
			c1.1,0,1.9-0.5,2.5-1.5c0.6-1,0.9-2.5,0.9-4.4c0-1.3-0.1-2.3-0.4-3.2c-0.3-0.9-0.6-1.6-1.2-2c-0.5-0.5-1.1-0.7-1.8-0.7
			c-1.1,0-1.9,0.5-2.5,1.6c-0.6,1-0.9,2.5-0.9,4.4c0,1.3,0.1,2.3,0.4,3.2c0.3,0.9,0.6,1.5,1.1,2
			C199.6,550.1,200.2,550.4,200.9,550.4z"/>
		<path class="st0" d="M556.8,551.9c-1.1,0-2-0.3-2.7-0.9c-0.8-0.6-1.3-1.4-1.7-2.5c-0.4-1.1-0.6-2.5-0.6-4c0-1.6,0.2-2.9,0.6-4
			c0.4-1.1,1-2,1.7-2.6c0.8-0.6,1.7-0.9,2.7-0.9s2,0.3,2.7,0.9c0.8,0.6,1.3,1.4,1.7,2.6c0.4,1.1,0.6,2.5,0.6,4c0,1.6-0.2,2.9-0.6,4
			c-0.4,1.1-1,2-1.7,2.5C558.8,551.6,557.9,551.9,556.8,551.9z M556.8,550.4c1.1,0,1.9-0.5,2.5-1.5c0.6-1,0.9-2.5,0.9-4.4
			c0-1.3-0.1-2.3-0.4-3.2c-0.3-0.9-0.6-1.6-1.1-2c-0.5-0.5-1.1-0.7-1.8-0.7c-1.1,0-1.9,0.5-2.5,1.6c-0.6,1-0.9,2.5-0.9,4.4
			c0,1.3,0.1,2.3,0.4,3.2c0.3,0.9,0.6,1.5,1.1,2C555.5,550.1,556.1,550.4,556.8,550.4z M565.3,551.8c-0.3,0-0.7-0.1-0.9-0.4
			c-0.3-0.3-0.4-0.6-0.4-0.9c0-0.4,0.1-0.7,0.4-0.9c0.2-0.3,0.6-0.4,0.9-0.4s0.7,0.1,0.9,0.4c0.2,0.3,0.4,0.6,0.4,0.9
			c0,0.2-0.1,0.4-0.2,0.6c-0.1,0.2-0.3,0.4-0.5,0.5C565.7,551.8,565.5,551.8,565.3,551.8z M573.9,551.9c-0.9,0-1.8-0.2-2.5-0.5
			s-1.3-0.8-1.7-1.3c-0.4-0.6-0.7-1.2-0.7-2h1.8c0,0.5,0.2,0.9,0.5,1.2c0.3,0.3,0.7,0.6,1.1,0.8c0.5,0.2,1,0.3,1.5,0.3
			c0.6,0,1.2-0.1,1.7-0.3c0.5-0.2,0.9-0.5,1.1-0.9c0.3-0.4,0.4-0.8,0.4-1.3c0-0.5-0.1-1-0.4-1.4c-0.3-0.4-0.7-0.7-1.2-1
			s-1.1-0.3-1.9-0.3h-1.2v-1.6h1.2c0.6,0,1.1-0.1,1.5-0.3c0.4-0.2,0.8-0.5,1-0.9c0.2-0.4,0.4-0.8,0.4-1.3c0-0.5-0.1-0.9-0.3-1.3
			c-0.2-0.4-0.5-0.6-0.9-0.9c-0.4-0.2-0.9-0.3-1.4-0.3c-0.5,0-1,0.1-1.4,0.3c-0.4,0.2-0.8,0.4-1.1,0.8c-0.3,0.3-0.4,0.8-0.5,1.2
			h-1.7c0-0.8,0.3-1.4,0.7-2c0.4-0.6,1-1,1.7-1.3c0.7-0.3,1.5-0.5,2.3-0.5c0.9,0,1.7,0.2,2.3,0.5c0.6,0.4,1.1,0.8,1.5,1.4
			c0.3,0.6,0.5,1.2,0.5,1.9c0,0.8-0.2,1.5-0.7,2.1c-0.4,0.6-1,1-1.7,1.2v0.1c0.9,0.2,1.6,0.5,2.2,1.2c0.5,0.6,0.8,1.4,0.8,2.3
			c0,0.8-0.2,1.5-0.7,2.1c-0.4,0.6-1,1.1-1.8,1.5C575.7,551.8,574.9,551.9,573.9,551.9z M586.5,551.9c-1.1,0-2-0.3-2.7-0.9
			c-0.8-0.6-1.3-1.4-1.7-2.5c-0.4-1.1-0.6-2.5-0.6-4c0-1.6,0.2-2.9,0.6-4c0.4-1.1,1-2,1.7-2.6c0.8-0.6,1.7-0.9,2.7-0.9
			c1.1,0,2,0.3,2.7,0.9c0.8,0.6,1.3,1.4,1.7,2.6c0.4,1.1,0.6,2.5,0.6,4c0,1.6-0.2,2.9-0.6,4c-0.4,1.1-1,2-1.7,2.5
			C588.5,551.6,587.5,551.9,586.5,551.9z M586.5,550.4c1.1,0,1.9-0.5,2.5-1.5c0.6-1,0.9-2.5,0.9-4.4c0-1.3-0.1-2.3-0.4-3.2
			c-0.3-0.9-0.6-1.6-1.2-2c-0.5-0.5-1.1-0.7-1.8-0.7c-1,0-1.9,0.5-2.5,1.6c-0.6,1-0.9,2.5-0.9,4.4c0,1.3,0.1,2.3,0.4,3.2
			c0.3,0.9,0.7,1.5,1.2,2C585.2,550.1,585.8,550.4,586.5,550.4z M596.2,549.7l-0.1,0.8c-0.1,0.5-0.2,1.1-0.4,1.7
			c-0.2,0.6-0.3,1.2-0.5,1.7c-0.2,0.5-0.3,1-0.4,1.3h-1.3c0.1-0.3,0.2-0.7,0.2-1.2s0.2-1.1,0.3-1.7c0.1-0.6,0.2-1.2,0.3-1.9l0.1-0.8
			H596.2z M609.7,551.9c-1.1,0-2-0.3-2.7-0.9c-0.8-0.6-1.3-1.4-1.7-2.5c-0.4-1.1-0.6-2.5-0.6-4c0-1.6,0.2-2.9,0.6-4
			c0.4-1.1,1-2,1.7-2.6c0.8-0.6,1.7-0.9,2.7-0.9c1.1,0,2,0.3,2.7,0.9c0.8,0.6,1.3,1.4,1.7,2.6c0.4,1.1,0.6,2.5,0.6,4
			c0,1.6-0.2,2.9-0.6,4c-0.4,1.1-1,2-1.7,2.5C611.7,551.6,610.8,551.9,609.7,551.9z M609.7,550.4c1.1,0,1.9-0.5,2.5-1.5
			c0.6-1,0.9-2.5,0.9-4.4c0-1.3-0.1-2.3-0.4-3.2s-0.7-1.6-1.2-2c-0.5-0.5-1.1-0.7-1.8-0.7c-1.1,0-1.9,0.5-2.5,1.6
			c-0.6,1-0.9,2.5-0.9,4.4c0,1.3,0.1,2.3,0.4,3.2c0.3,0.9,0.6,1.5,1.1,2C608.4,550.1,609,550.4,609.7,550.4z M618.2,551.8
			c-0.3,0-0.7-0.1-0.9-0.4s-0.4-0.6-0.4-0.9c0-0.4,0.1-0.7,0.4-0.9c0.2-0.3,0.6-0.4,0.9-0.4s0.7,0.1,0.9,0.4
			c0.2,0.3,0.4,0.6,0.4,0.9c0,0.2-0.1,0.4-0.2,0.6c-0.1,0.2-0.3,0.4-0.5,0.5C618.6,551.8,618.4,551.8,618.2,551.8z M626.7,551.9
			c-1,0-1.8-0.2-2.6-0.5c-0.7-0.3-1.3-0.8-1.7-1.4c-0.4-0.6-0.6-1.3-0.6-2.1c0-0.6,0.1-1.2,0.4-1.7c0.2-0.5,0.6-1,1-1.3
			c0.4-0.4,0.9-0.6,1.4-0.7v-0.1c-0.7-0.2-1.2-0.6-1.7-1.2c-0.4-0.6-0.6-1.3-0.6-2.1c0-0.7,0.2-1.4,0.6-2c0.4-0.6,0.9-1,1.6-1.4
			c0.7-0.3,1.4-0.5,2.3-0.5c0.8,0,1.6,0.2,2.2,0.5c0.7,0.3,1.2,0.8,1.6,1.4c0.4,0.6,0.6,1.2,0.6,2c0,0.8-0.2,1.5-0.6,2.1
			c-0.4,0.6-1,1-1.6,1.2v0.1c0.5,0.1,1,0.3,1.4,0.7c0.4,0.4,0.8,0.8,1,1.3c0.2,0.5,0.4,1.1,0.4,1.7c0,0.8-0.2,1.5-0.6,2.1
			c-0.4,0.6-1,1.1-1.7,1.4C628.5,551.8,627.6,551.9,626.7,551.9z M626.7,550.4c0.7,0,1.2-0.1,1.7-0.3c0.5-0.2,0.9-0.5,1.1-0.9
			c0.3-0.4,0.4-0.8,0.4-1.4c0-0.5-0.2-1-0.4-1.5c-0.3-0.4-0.7-0.8-1.1-1c-0.5-0.2-1-0.4-1.6-0.4c-0.6,0-1.2,0.1-1.7,0.4
			c-0.5,0.2-0.9,0.6-1.1,1c-0.3,0.4-0.4,0.9-0.4,1.5c0,0.5,0.1,1,0.4,1.4c0.3,0.4,0.6,0.7,1.1,0.9
			C625.4,550.3,626,550.4,626.7,550.4z M626.7,543.5c0.5,0,1-0.1,1.4-0.3c0.4-0.2,0.7-0.5,1-0.9s0.3-0.8,0.3-1.3
			c0-0.5-0.1-0.9-0.3-1.3c-0.2-0.4-0.5-0.7-0.9-0.9c-0.4-0.2-0.9-0.3-1.4-0.3c-0.6,0-1,0.1-1.4,0.3c-0.4,0.2-0.7,0.5-0.9,0.9
			c-0.2,0.4-0.3,0.8-0.3,1.3c0,0.5,0.1,0.9,0.3,1.3s0.6,0.7,1,0.9C625.7,543.4,626.1,543.5,626.7,543.5z M639.1,551.9
			c-1.1,0-2-0.3-2.7-0.9c-0.8-0.6-1.3-1.4-1.7-2.5c-0.4-1.1-0.6-2.5-0.6-4c0-1.6,0.2-2.9,0.6-4c0.4-1.1,1-2,1.7-2.6
			c0.8-0.6,1.7-0.9,2.7-0.9c1.1,0,2,0.3,2.7,0.9c0.8,0.6,1.3,1.4,1.7,2.6c0.4,1.1,0.6,2.5,0.6,4c0,1.6-0.2,2.9-0.6,4
			c-0.4,1.1-1,2-1.7,2.5C641.1,551.6,640.1,551.9,639.1,551.9z M639.1,550.4c1.1,0,1.9-0.5,2.5-1.5c0.6-1,0.9-2.5,0.9-4.4
			c0-1.3-0.1-2.3-0.4-3.2c-0.3-0.9-0.7-1.6-1.2-2c-0.5-0.5-1.1-0.7-1.8-0.7c-1.1,0-1.9,0.5-2.5,1.6c-0.6,1-0.9,2.5-0.9,4.4
			c0,1.3,0.1,2.3,0.4,3.2c0.3,0.9,0.7,1.5,1.1,2C637.8,550.1,638.4,550.4,639.1,550.4z M648.8,549.7l-0.1,0.8
			c-0.1,0.5-0.2,1.1-0.4,1.7c-0.2,0.6-0.3,1.2-0.5,1.7c-0.2,0.5-0.3,1-0.4,1.3h-1.3c0.1-0.3,0.1-0.7,0.2-1.2s0.2-1.1,0.3-1.7
			c0.1-0.6,0.2-1.2,0.3-1.9l0.1-0.8H648.8z M662.3,551.9c-1.1,0-2-0.3-2.7-0.9c-0.8-0.6-1.3-1.4-1.7-2.5c-0.4-1.1-0.6-2.5-0.6-4
			c0-1.6,0.2-2.9,0.6-4c0.4-1.1,1-2,1.7-2.6c0.8-0.6,1.7-0.9,2.7-0.9c1.1,0,2,0.3,2.7,0.9c0.8,0.6,1.3,1.4,1.7,2.6
			c0.4,1.1,0.6,2.5,0.6,4c0,1.6-0.2,2.9-0.6,4c-0.4,1.1-1,2-1.7,2.5C664.3,551.6,663.4,551.9,662.3,551.9z M662.3,550.4
			c1.1,0,1.9-0.5,2.5-1.5c0.6-1,0.9-2.5,0.9-4.4c0-1.3-0.1-2.3-0.4-3.2s-0.6-1.6-1.2-2c-0.5-0.5-1.1-0.7-1.8-0.7
			c-1.1,0-1.9,0.5-2.5,1.6c-0.6,1-0.9,2.5-0.9,4.4c0,1.3,0.1,2.3,0.4,3.2c0.3,0.9,0.6,1.5,1.1,2C661,550.1,661.6,550.4,662.3,550.4z
			 M670.8,551.8c-0.3,0-0.7-0.1-0.9-0.4s-0.4-0.6-0.4-0.9c0-0.4,0.1-0.7,0.4-0.9c0.2-0.3,0.6-0.4,0.9-0.4s0.7,0.1,0.9,0.4
			c0.2,0.3,0.4,0.6,0.4,0.9c0,0.2-0.1,0.4-0.2,0.6c-0.1,0.2-0.3,0.4-0.5,0.5C671.2,551.8,671,551.8,670.8,551.8z M675.2,551.7
			l6.5-12.9v-0.1h-7.5v-1.6h9.3v1.6l-6.5,12.9H675.2z M690.6,551.9c-1.1,0-2-0.3-2.7-0.9c-0.8-0.6-1.3-1.4-1.7-2.5
			c-0.4-1.1-0.6-2.5-0.6-4c0-1.6,0.2-2.9,0.6-4c0.4-1.1,1-2,1.7-2.6c0.8-0.6,1.7-0.9,2.7-0.9c1.1,0,2,0.3,2.7,0.9
			c0.8,0.6,1.3,1.4,1.7,2.6c0.4,1.1,0.6,2.5,0.6,4c0,1.6-0.2,2.9-0.6,4c-0.4,1.1-1,2-1.7,2.5C692.6,551.6,691.7,551.9,690.6,551.9z
			 M690.6,550.4c1.1,0,1.9-0.5,2.5-1.5c0.6-1,0.9-2.5,0.9-4.4c0-1.3-0.1-2.3-0.4-3.2s-0.7-1.6-1.2-2c-0.5-0.5-1.1-0.7-1.8-0.7
			c-1,0-1.9,0.5-2.5,1.6c-0.6,1-0.9,2.5-0.9,4.4c0,1.3,0.1,2.3,0.4,3.2c0.3,0.9,0.7,1.5,1.2,2C689.3,550.1,689.9,550.4,690.6,550.4z
			 M700.4,549.7l-0.1,0.8c-0.1,0.5-0.2,1.1-0.4,1.7c-0.2,0.6-0.3,1.2-0.5,1.7c-0.2,0.5-0.3,1-0.4,1.3h-1.3c0.1-0.3,0.1-0.7,0.2-1.2
			s0.2-1.1,0.3-1.7c0.1-0.6,0.2-1.2,0.2-1.9l0.1-0.8H700.4z M714.2,537.2v14.5h-1.8V539h-0.1l-3.5,2.4v-1.8l3.6-2.4H714.2z
			 M718.8,551.8c-0.3,0-0.7-0.1-0.9-0.4s-0.4-0.6-0.4-0.9c0-0.4,0.1-0.7,0.4-0.9c0.2-0.3,0.6-0.4,0.9-0.4s0.7,0.1,0.9,0.4
			c0.2,0.3,0.4,0.6,0.4,0.9c0,0.2-0.1,0.4-0.2,0.6c-0.1,0.2-0.3,0.4-0.5,0.5C719.2,551.8,719,551.8,718.8,551.8z M723,551.7v-1.3
			l4.8-5.3c0.6-0.6,1-1.2,1.4-1.6c0.4-0.5,0.6-0.9,0.8-1.3c0.2-0.4,0.3-0.8,0.3-1.3c0-0.5-0.1-1-0.4-1.3c-0.2-0.4-0.6-0.7-1-0.9
			c-0.4-0.2-0.9-0.3-1.4-0.3c-0.6,0-1.1,0.1-1.5,0.3c-0.4,0.2-0.7,0.5-1,1c-0.2,0.4-0.3,0.9-0.3,1.4h-1.7c0-0.9,0.2-1.6,0.6-2.2
			c0.4-0.6,0.9-1.1,1.6-1.5c0.7-0.4,1.4-0.5,2.3-0.5c0.8,0,1.6,0.2,2.3,0.5c0.7,0.4,1.2,0.8,1.5,1.5c0.4,0.6,0.6,1.3,0.6,2
			c0,0.5-0.1,1.1-0.3,1.6c-0.2,0.5-0.5,1.1-1,1.7c-0.5,0.6-1.1,1.4-2,2.3l-3.3,3.5v0.1h6.8v1.6H723z M739.9,551.9
			c-1.1,0-2-0.3-2.7-0.9c-0.8-0.6-1.3-1.4-1.7-2.5c-0.4-1.1-0.6-2.5-0.6-4c0-1.6,0.2-2.9,0.6-4c0.4-1.1,1-2,1.7-2.6
			c0.8-0.6,1.7-0.9,2.7-0.9c1.1,0,2,0.3,2.7,0.9c0.8,0.6,1.3,1.4,1.7,2.6c0.4,1.1,0.6,2.5,0.6,4c0,1.6-0.2,2.9-0.6,4
			c-0.4,1.1-1,2-1.7,2.5C741.9,551.6,741,551.9,739.9,551.9z M739.9,550.4c1.1,0,1.9-0.5,2.5-1.5c0.6-1,0.9-2.5,0.9-4.4
			c0-1.3-0.1-2.3-0.4-3.2c-0.3-0.9-0.7-1.6-1.2-2c-0.5-0.5-1.1-0.7-1.8-0.7c-1.1,0-1.9,0.5-2.5,1.6c-0.6,1-0.9,2.5-0.9,4.4
			c0,1.3,0.1,2.3,0.4,3.2c0.3,0.9,0.7,1.5,1.1,2C738.6,550.1,739.2,550.4,739.9,550.4z"/>
		<path class="st0" d="M551.1,32.7V3.6h17.6v3.1h-14v9.8h13.1v3.1h-13.1v9.9h14.3v3.1H551.1z M577,10.9l5.2,8.9l5.2-8.9h3.9l-7,10.9
			l7,10.9h-3.9l-5.2-8.5l-5.2,8.5h-3.9l6.9-10.9l-6.9-10.9H577z M596.1,40.9v-30h3.2v3.5h0.4c0.2-0.4,0.6-0.9,1-1.4
			c0.4-0.6,1.1-1.1,1.9-1.6c0.8-0.5,2-0.7,3.4-0.7c1.8,0,3.5,0.5,4.9,1.4c1.4,0.9,2.5,2.2,3.3,3.9c0.8,1.7,1.2,3.7,1.2,6
			c0,2.3-0.4,4.3-1.2,6c-0.8,1.7-1.9,3-3.3,3.9c-1.4,0.9-3,1.4-4.8,1.4c-1.4,0-2.5-0.2-3.4-0.7c-0.8-0.5-1.5-1-1.9-1.6
			c-0.4-0.6-0.8-1.1-1.1-1.5h-0.3v11.5H596.1z M599.4,21.8c0,1.6,0.2,3.1,0.7,4.4c0.5,1.2,1.2,2.2,2.1,2.9c0.9,0.7,2.1,1.1,3.4,1.1
			c1.4,0,2.6-0.4,3.5-1.1c0.9-0.7,1.7-1.8,2.1-3c0.5-1.3,0.7-2.7,0.7-4.2c0-1.5-0.2-2.9-0.7-4.1c-0.5-1.2-1.2-2.2-2.1-2.9
			c-0.9-0.7-2.1-1.1-3.5-1.1c-1.4,0-2.5,0.3-3.4,1c-0.9,0.7-1.6,1.6-2.1,2.9C599.6,18.8,599.4,20.2,599.4,21.8z M620.5,32.7V10.9
			h3.2v3.3h0.2c0.4-1.1,1.1-2,2.2-2.6c1-0.7,2.2-1,3.5-1c0.2,0,0.6,0,0.9,0c0.4,0,0.7,0,0.8,0V14c-0.1,0-0.4-0.1-0.8-0.1
			c-0.4-0.1-0.8-0.1-1.3-0.1c-1.1,0-2,0.2-2.8,0.7c-0.8,0.4-1.5,1-2,1.8c-0.5,0.8-0.7,1.6-0.7,2.6v13.8H620.5z M643.9,33.2
			c-2.1,0-3.9-0.5-5.4-1.4c-1.5-0.9-2.7-2.2-3.5-3.9c-0.8-1.7-1.2-3.6-1.2-5.9c0-2.2,0.4-4.2,1.2-5.9c0.8-1.7,2-3,3.4-4
			c1.5-1,3.2-1.4,5.2-1.4c1.1,0,2.3,0.2,3.4,0.6c1.1,0.4,2.1,1,3,1.8c0.9,0.8,1.6,2,2.2,3.4c0.5,1.4,0.8,3.1,0.8,5.1V23h-16.8v-2.9
			h13.4c0-1.2-0.2-2.3-0.7-3.3c-0.5-1-1.2-1.7-2.1-2.3c-0.9-0.6-1.9-0.8-3.2-0.8c-1.3,0-2.5,0.3-3.5,1c-1,0.7-1.7,1.5-2.2,2.6
			s-0.8,2.2-0.8,3.4v1.9c0,1.6,0.3,3,0.8,4.2c0.6,1.1,1.4,2,2.4,2.6c1,0.6,2.2,0.9,3.6,0.9c0.9,0,1.7-0.1,2.4-0.4
			c0.7-0.3,1.3-0.6,1.9-1.1c0.5-0.5,0.9-1.1,1.2-1.9l3.2,0.9c-0.3,1.1-0.9,2.1-1.7,2.9c-0.8,0.8-1.8,1.5-3,1.9
			C646.7,33,645.3,33.2,643.9,33.2z M673.4,15.8l-3,0.9c-0.2-0.5-0.5-1-0.8-1.5c-0.4-0.5-0.9-0.9-1.5-1.2c-0.6-0.3-1.4-0.5-2.4-0.5
			c-1.3,0-2.5,0.3-3.3,0.9c-0.9,0.6-1.3,1.4-1.3,2.3c0,0.8,0.3,1.5,0.9,2c0.6,0.5,1.5,0.9,2.8,1.2l3.2,0.8c1.9,0.5,3.4,1.2,4.4,2.2
			c1,1,1.4,2.2,1.4,3.7c0,1.2-0.4,2.4-1.1,3.4c-0.7,1-1.7,1.8-3,2.3c-1.3,0.6-2.8,0.9-4.5,0.9c-2.2,0-4.1-0.5-5.5-1.4
			c-1.4-1-2.4-2.4-2.8-4.2l3.2-0.8c0.3,1.2,0.9,2.1,1.7,2.6c0.8,0.6,2,0.9,3.3,0.9c1.6,0,2.8-0.3,3.7-1c0.9-0.7,1.4-1.5,1.4-2.4
			c0-0.8-0.3-1.4-0.8-1.9c-0.5-0.5-1.3-0.9-2.4-1.2l-3.6-0.9c-2-0.5-3.5-1.2-4.4-2.2c-0.9-1-1.4-2.3-1.4-3.8c0-1.2,0.3-2.3,1-3.3
			c0.7-0.9,1.7-1.7,2.9-2.2c1.2-0.5,2.6-0.8,4.1-0.8c2.2,0,3.8,0.5,5.1,1.4C672,13,672.9,14.3,673.4,15.8z M694.3,15.8l-3,0.9
			c-0.2-0.5-0.5-1-0.8-1.5c-0.4-0.5-0.8-0.9-1.5-1.2c-0.6-0.3-1.4-0.5-2.4-0.5c-1.3,0-2.4,0.3-3.3,0.9c-0.9,0.6-1.3,1.4-1.3,2.3
			c0,0.8,0.3,1.5,0.9,2c0.6,0.5,1.6,0.9,2.8,1.2l3.2,0.8c1.9,0.5,3.4,1.2,4.4,2.2c0.9,1,1.4,2.2,1.4,3.7c0,1.2-0.4,2.4-1.1,3.4
			c-0.7,1-1.7,1.8-3,2.3c-1.3,0.6-2.8,0.9-4.5,0.9c-2.2,0-4.1-0.5-5.5-1.4c-1.5-1-2.4-2.4-2.8-4.2l3.2-0.8c0.3,1.2,0.9,2.1,1.7,2.6
			c0.9,0.6,2,0.9,3.3,0.9c1.6,0,2.8-0.3,3.7-1c0.9-0.7,1.4-1.5,1.4-2.4c0-0.8-0.3-1.4-0.8-1.9c-0.5-0.5-1.3-0.9-2.4-1.2l-3.6-0.9
			c-2-0.5-3.5-1.2-4.4-2.2c-0.9-1-1.4-2.3-1.4-3.8c0-1.2,0.3-2.3,1-3.3c0.7-0.9,1.7-1.7,2.9-2.2c1.2-0.5,2.6-0.8,4.1-0.8
			c2.2,0,3.9,0.5,5.1,1.4C692.9,13,693.8,14.3,694.3,15.8z M699.8,32.7V10.9h3.3v21.8H699.8z M701.5,7.3c-0.6,0-1.2-0.2-1.7-0.7
			c-0.5-0.4-0.7-1-0.7-1.6s0.2-1.2,0.7-1.6c0.5-0.4,1-0.7,1.7-0.7c0.7,0,1.2,0.2,1.7,0.7s0.7,1,0.7,1.6s-0.2,1.2-0.7,1.6
			C702.7,7.1,702.1,7.3,701.5,7.3z M727.1,10.9L719,32.7h-3.4l-8.1-21.8h3.6l6,17.4h0.2l6-17.4H727.1z M739.9,33.2
			c-2.1,0-3.9-0.5-5.4-1.4c-1.5-0.9-2.7-2.2-3.5-3.9c-0.8-1.7-1.2-3.6-1.2-5.9c0-2.2,0.4-4.2,1.2-5.9c0.8-1.7,2-3,3.4-4
			c1.5-1,3.2-1.4,5.2-1.4c1.1,0,2.3,0.2,3.4,0.6s2.1,1,3,1.8c0.9,0.8,1.6,2,2.2,3.4c0.5,1.4,0.8,3.1,0.8,5.1V23h-16.8v-2.9h13.4
			c0-1.2-0.2-2.3-0.7-3.3c-0.5-1-1.2-1.7-2.1-2.3c-0.9-0.6-1.9-0.8-3.2-0.8c-1.3,0-2.5,0.3-3.5,1c-1,0.7-1.7,1.5-2.2,2.6
			c-0.5,1.1-0.8,2.2-0.8,3.4v1.9c0,1.6,0.3,3,0.9,4.2c0.6,1.1,1.4,2,2.4,2.6c1,0.6,2.2,0.9,3.6,0.9c0.9,0,1.7-0.1,2.4-0.4
			c0.7-0.3,1.3-0.6,1.9-1.1c0.5-0.5,0.9-1.1,1.2-1.9l3.2,0.9c-0.3,1.1-0.9,2.1-1.7,2.9c-0.8,0.8-1.8,1.5-3,1.9
			C742.7,33,741.4,33.2,739.9,33.2z"/>
		<path class="st1" d="M35.5,69.7h405c11,0,20,9,20,20v400c0,11-9,20-20,20h-405c-11,0-20-9-20-20v-400
			C15.5,78.7,24.5,69.7,35.5,69.7z"/>
		<path class="st1" d="M570.5,69.7h405c11,0,20,9,20,20v400c0,11-9,20-20,20h-405c-11,0-20-9-20-20v-400
			C550.5,78.7,559.5,69.7,570.5,69.7z"/>
		<path class="st2" d="M40.1,509.6c0.8,0,1.7-0.1,2.5-0.1c295.2-11.5,118-401.7,416.9-401.7"/>
		<path class="st2" d="M565.5,507.2c179.1-319.9,283-530.1,430-396.7"/>
		<path class="st0" d="M567.5,102.9c-0.6,0-1.2-0.2-1.7-0.5c-0.5-0.3-0.9-0.8-1.1-1.4c-0.3-0.6-0.4-1.3-0.4-2.1
			c0-0.8,0.1-1.5,0.4-2.1c0.3-0.6,0.7-1,1.2-1.4c0.5-0.3,1-0.5,1.7-0.5c0.5,0,0.9,0.1,1.2,0.2c0.3,0.2,0.5,0.3,0.7,0.6
			c0.2,0.2,0.3,0.4,0.4,0.5h0.1v-3.8h1.2v10.2h-1.1v-1.2h-0.1c-0.1,0.1-0.2,0.3-0.4,0.5c-0.2,0.2-0.4,0.4-0.7,0.6
			C568.4,102.8,568,102.9,567.5,102.9z M567.7,101.8c0.5,0,0.9-0.1,1.2-0.4c0.3-0.2,0.6-0.6,0.7-1c0.2-0.4,0.2-0.9,0.2-1.5
			c0-0.6-0.1-1.1-0.2-1.5c-0.2-0.4-0.4-0.8-0.7-1c-0.3-0.2-0.7-0.4-1.2-0.4c-0.5,0-0.9,0.1-1.2,0.4c-0.3,0.3-0.6,0.6-0.7,1
			c-0.2,0.4-0.2,0.9-0.2,1.5c0,0.5,0.1,1,0.2,1.5c0.2,0.4,0.4,0.8,0.7,1.1C566.7,101.7,567.2,101.8,567.7,101.8z M573.3,102.7v-7.6
			h1.2v7.6H573.3z M573.9,93.8c-0.2,0-0.4-0.1-0.6-0.2c-0.2-0.2-0.2-0.3-0.2-0.6c0-0.2,0.1-0.4,0.2-0.6c0.2-0.2,0.4-0.2,0.6-0.2
			c0.2,0,0.4,0.1,0.6,0.2c0.2,0.2,0.2,0.3,0.2,0.6c0,0.2-0.1,0.4-0.2,0.6C574.3,93.7,574.1,93.8,573.9,93.8z M582,96.8l-1.1,0.3
			c-0.1-0.2-0.2-0.3-0.3-0.5c-0.1-0.2-0.3-0.3-0.5-0.4c-0.2-0.1-0.5-0.2-0.8-0.2c-0.5,0-0.9,0.1-1.2,0.3c-0.3,0.2-0.5,0.5-0.5,0.8
			c0,0.3,0.1,0.5,0.3,0.7c0.2,0.2,0.6,0.3,1,0.4l1.1,0.3c0.7,0.2,1.2,0.4,1.5,0.8c0.3,0.3,0.5,0.8,0.5,1.3c0,0.4-0.1,0.8-0.4,1.2
			c-0.2,0.3-0.6,0.6-1,0.8c-0.4,0.2-1,0.3-1.6,0.3c-0.8,0-1.4-0.2-1.9-0.5c-0.5-0.3-0.8-0.8-1-1.5l1.1-0.3c0.1,0.4,0.3,0.7,0.6,0.9
			c0.3,0.2,0.7,0.3,1.2,0.3c0.5,0,1-0.1,1.3-0.3c0.3-0.2,0.5-0.5,0.5-0.8c0-0.3-0.1-0.5-0.3-0.7c-0.2-0.2-0.5-0.3-0.9-0.4l-1.3-0.3
			c-0.7-0.2-1.2-0.4-1.5-0.8c-0.3-0.4-0.5-0.8-0.5-1.3c0-0.4,0.1-0.8,0.4-1.1c0.2-0.3,0.6-0.6,1-0.8c0.4-0.2,0.9-0.3,1.5-0.3
			c0.8,0,1.3,0.2,1.8,0.5C581.5,95.8,581.9,96.3,582,96.8z M587.3,95.1v1h-4v-1H587.3z M584.5,93.3h1.2v7.3c0,0.3,0,0.6,0.1,0.7
			c0.1,0.2,0.2,0.3,0.4,0.3c0.2,0.1,0.3,0.1,0.5,0.1c0.1,0,0.2,0,0.3,0c0.1,0,0.1,0,0.2,0l0.2,1.1c-0.1,0-0.2,0.1-0.3,0.1
			c-0.1,0-0.3,0-0.5,0c-0.3,0-0.7-0.1-1-0.2c-0.3-0.1-0.6-0.4-0.8-0.7c-0.2-0.3-0.3-0.7-0.3-1.1V93.3z M591.3,102.9
			c-0.5,0-0.9-0.1-1.3-0.3c-0.4-0.2-0.7-0.5-0.9-0.8c-0.2-0.4-0.3-0.8-0.3-1.3c0-0.4,0.1-0.8,0.3-1.1c0.2-0.3,0.4-0.5,0.7-0.6
			c0.3-0.2,0.6-0.3,1-0.3c0.3-0.1,0.7-0.1,1.1-0.2c0.5-0.1,0.8-0.1,1.1-0.1c0.3,0,0.5-0.1,0.6-0.2c0.1-0.1,0.2-0.2,0.2-0.4v0
			c0-0.5-0.1-0.9-0.4-1.1c-0.3-0.3-0.7-0.4-1.2-0.4c-0.6,0-1,0.1-1.3,0.4c-0.3,0.2-0.5,0.5-0.7,0.8l-1.1-0.4
			c0.2-0.5,0.5-0.8,0.8-1.1c0.3-0.3,0.7-0.4,1.1-0.5c0.4-0.1,0.8-0.2,1.2-0.2c0.2,0,0.5,0,0.8,0.1c0.3,0.1,0.6,0.2,0.9,0.4
			c0.3,0.2,0.6,0.4,0.8,0.8c0.2,0.4,0.3,0.8,0.3,1.5v5h-1.2v-1h-0.1c-0.1,0.2-0.2,0.3-0.4,0.5c-0.2,0.2-0.4,0.4-0.7,0.5
			C592.1,102.8,591.7,102.9,591.3,102.9z M591.5,101.9c0.5,0,0.8-0.1,1.2-0.3c0.3-0.2,0.6-0.4,0.7-0.7c0.2-0.3,0.2-0.6,0.2-0.9v-1.1
			c0,0.1-0.2,0.1-0.3,0.2c-0.2,0-0.4,0.1-0.6,0.1c-0.2,0-0.4,0.1-0.6,0.1c-0.2,0-0.4,0-0.5,0.1c-0.3,0-0.6,0.1-0.9,0.2
			c-0.3,0.1-0.5,0.2-0.6,0.4c-0.2,0.2-0.2,0.4-0.2,0.7c0,0.4,0.1,0.7,0.4,0.9C590.6,101.8,591,101.9,591.5,101.9z M598.1,98.1v4.6
			h-1.2v-7.6h1.1v1.2h0.1c0.2-0.4,0.5-0.7,0.8-0.9c0.4-0.2,0.8-0.4,1.4-0.4c0.5,0,1,0.1,1.4,0.3c0.4,0.2,0.7,0.5,0.9,1
			c0.2,0.4,0.3,1,0.3,1.6v4.9h-1.2V98c0-0.6-0.2-1.1-0.5-1.4c-0.3-0.3-0.7-0.5-1.3-0.5c-0.4,0-0.7,0.1-1,0.2
			c-0.3,0.2-0.5,0.4-0.7,0.7C598.2,97.3,598.1,97.7,598.1,98.1z M608.2,102.9c-0.7,0-1.3-0.2-1.9-0.5c-0.5-0.3-0.9-0.8-1.2-1.4
			c-0.3-0.6-0.4-1.3-0.4-2c0-0.8,0.1-1.5,0.4-2.1c0.3-0.6,0.7-1.1,1.2-1.4c0.5-0.3,1.1-0.5,1.8-0.5c0.5,0,1,0.1,1.4,0.3
			c0.4,0.2,0.8,0.5,1.1,0.8c0.3,0.4,0.4,0.8,0.5,1.3H610c-0.1-0.3-0.3-0.7-0.6-0.9c-0.3-0.3-0.7-0.4-1.2-0.4c-0.5,0-0.9,0.1-1.2,0.4
			c-0.3,0.2-0.6,0.6-0.8,1c-0.2,0.4-0.3,0.9-0.3,1.5c0,0.6,0.1,1.1,0.3,1.5c0.2,0.4,0.5,0.8,0.8,1c0.3,0.2,0.8,0.4,1.2,0.4
			c0.3,0,0.6-0.1,0.8-0.2c0.2-0.1,0.5-0.3,0.6-0.5c0.2-0.2,0.3-0.4,0.4-0.7h1.2c-0.1,0.4-0.2,0.9-0.5,1.2c-0.3,0.4-0.6,0.6-1,0.9
			C609.3,102.8,608.8,102.9,608.2,102.9z M616.1,102.9c-0.7,0-1.4-0.2-1.9-0.5c-0.5-0.3-0.9-0.8-1.2-1.4c-0.3-0.6-0.4-1.3-0.4-2.1
			c0-0.8,0.1-1.5,0.4-2.1c0.3-0.6,0.7-1.1,1.2-1.4c0.5-0.3,1.1-0.5,1.8-0.5c0.4,0,0.8,0.1,1.2,0.2c0.4,0.1,0.7,0.3,1.1,0.6
			c0.3,0.3,0.6,0.7,0.8,1.2c0.2,0.5,0.3,1.1,0.3,1.8v0.5h-5.9v-1h4.7c0-0.4-0.1-0.8-0.3-1.2c-0.2-0.3-0.4-0.6-0.7-0.8
			c-0.3-0.2-0.7-0.3-1.1-0.3c-0.5,0-0.9,0.1-1.2,0.3c-0.3,0.2-0.6,0.5-0.8,0.9c-0.2,0.4-0.3,0.8-0.3,1.2v0.7c0,0.6,0.1,1.1,0.3,1.5
			c0.2,0.4,0.5,0.7,0.8,0.9c0.4,0.2,0.8,0.3,1.2,0.3c0.3,0,0.6,0,0.8-0.1c0.2-0.1,0.5-0.2,0.6-0.4c0.2-0.2,0.3-0.4,0.4-0.7l1.1,0.3
			c-0.1,0.4-0.3,0.7-0.6,1c-0.3,0.3-0.6,0.5-1,0.7C617.1,102.8,616.6,102.9,616.1,102.9z"/>
		<path class="st0" d="M34.5,102.9c-0.6,0-1.2-0.2-1.7-0.5c-0.5-0.3-0.9-0.8-1.1-1.4c-0.3-0.6-0.4-1.3-0.4-2.1
			c0-0.8,0.1-1.5,0.4-2.1c0.3-0.6,0.7-1,1.1-1.4c0.5-0.3,1.1-0.5,1.7-0.5c0.5,0,0.9,0.1,1.2,0.2c0.3,0.2,0.5,0.3,0.7,0.6
			c0.2,0.2,0.3,0.4,0.4,0.5h0.1v-3.8H38v10.2h-1.1v-1.2h-0.1c-0.1,0.1-0.2,0.3-0.4,0.5c-0.2,0.2-0.4,0.4-0.7,0.6
			C35.4,102.8,35,102.9,34.5,102.9z M34.7,101.8c0.5,0,0.9-0.1,1.2-0.4c0.3-0.2,0.6-0.6,0.7-1c0.2-0.4,0.3-0.9,0.3-1.5
			c0-0.6-0.1-1.1-0.2-1.5c-0.2-0.4-0.4-0.8-0.7-1c-0.3-0.2-0.7-0.4-1.2-0.4c-0.5,0-0.9,0.1-1.2,0.4c-0.3,0.3-0.6,0.6-0.7,1
			c-0.2,0.4-0.2,0.9-0.2,1.5c0,0.5,0.1,1,0.2,1.5c0.2,0.4,0.4,0.8,0.7,1.1C33.8,101.7,34.2,101.8,34.7,101.8z M40.3,102.7v-7.6h1.2
			v7.6H40.3z M40.9,93.8c-0.2,0-0.4-0.1-0.6-0.2c-0.2-0.2-0.2-0.3-0.2-0.6c0-0.2,0.1-0.4,0.2-0.6c0.2-0.2,0.4-0.2,0.6-0.2
			c0.2,0,0.4,0.1,0.6,0.2c0.2,0.2,0.2,0.3,0.2,0.6c0,0.2-0.1,0.4-0.2,0.6C41.3,93.7,41.1,93.8,40.9,93.8z M49,96.8L48,97.1
			c-0.1-0.2-0.2-0.3-0.3-0.5c-0.1-0.2-0.3-0.3-0.5-0.4C47,96.1,46.7,96,46.3,96c-0.5,0-0.9,0.1-1.2,0.3c-0.3,0.2-0.5,0.5-0.5,0.8
			c0,0.3,0.1,0.5,0.3,0.7c0.2,0.2,0.5,0.3,1,0.4l1.1,0.3c0.7,0.2,1.2,0.4,1.5,0.8c0.3,0.3,0.5,0.8,0.5,1.3c0,0.4-0.1,0.8-0.4,1.2
			c-0.2,0.3-0.6,0.6-1,0.8c-0.4,0.2-1,0.3-1.6,0.3c-0.8,0-1.4-0.2-1.9-0.5c-0.5-0.3-0.8-0.8-1-1.5l1.1-0.3c0.1,0.4,0.3,0.7,0.6,0.9
			c0.3,0.2,0.7,0.3,1.2,0.3c0.5,0,1-0.1,1.3-0.3c0.3-0.2,0.5-0.5,0.5-0.8c0-0.3-0.1-0.5-0.3-0.7c-0.2-0.2-0.5-0.3-0.9-0.4l-1.3-0.3
			c-0.7-0.2-1.2-0.4-1.5-0.8c-0.3-0.4-0.5-0.8-0.5-1.3c0-0.4,0.1-0.8,0.4-1.1c0.2-0.3,0.6-0.6,1-0.8c0.4-0.2,0.9-0.3,1.4-0.3
			c0.8,0,1.3,0.2,1.8,0.5C48.5,95.8,48.9,96.3,49,96.8z M54.3,95.1v1h-4v-1H54.3z M51.5,93.3h1.2v7.3c0,0.3,0,0.6,0.1,0.7
			c0.1,0.2,0.2,0.3,0.4,0.3c0.2,0.1,0.3,0.1,0.5,0.1c0.1,0,0.2,0,0.3,0c0.1,0,0.1,0,0.2,0l0.2,1.1c-0.1,0-0.2,0.1-0.3,0.1
			c-0.1,0-0.3,0-0.5,0c-0.3,0-0.7-0.1-1-0.2c-0.3-0.1-0.6-0.4-0.8-0.7c-0.2-0.3-0.3-0.7-0.3-1.1V93.3z M58.3,102.9
			c-0.5,0-0.9-0.1-1.3-0.3c-0.4-0.2-0.7-0.5-0.9-0.8c-0.2-0.4-0.3-0.8-0.3-1.3c0-0.4,0.1-0.8,0.3-1.1c0.2-0.3,0.4-0.5,0.7-0.6
			c0.3-0.2,0.6-0.3,1-0.3c0.4-0.1,0.7-0.1,1.1-0.2c0.5-0.1,0.8-0.1,1.1-0.1c0.3,0,0.5-0.1,0.6-0.2c0.1-0.1,0.2-0.2,0.2-0.4v0
			c0-0.5-0.1-0.9-0.4-1.1C59.9,96.2,59.5,96,59,96c-0.6,0-1,0.1-1.3,0.4c-0.3,0.2-0.5,0.5-0.7,0.8l-1.1-0.4c0.2-0.5,0.5-0.8,0.8-1.1
			c0.3-0.3,0.7-0.4,1.1-0.5c0.4-0.1,0.8-0.2,1.2-0.2c0.2,0,0.5,0,0.8,0.1c0.3,0.1,0.6,0.2,0.9,0.4c0.3,0.2,0.6,0.4,0.8,0.8
			c0.2,0.4,0.3,0.8,0.3,1.5v5h-1.2v-1h-0.1c-0.1,0.2-0.2,0.3-0.4,0.5c-0.2,0.2-0.4,0.4-0.7,0.5C59.1,102.8,58.7,102.9,58.3,102.9z
			 M58.5,101.9c0.5,0,0.9-0.1,1.2-0.3c0.3-0.2,0.6-0.4,0.7-0.7c0.2-0.3,0.2-0.6,0.2-0.9v-1.1c0,0.1-0.2,0.1-0.3,0.2
			c-0.2,0-0.4,0.1-0.6,0.1c-0.2,0-0.4,0.1-0.6,0.1c-0.2,0-0.4,0-0.5,0.1c-0.3,0-0.6,0.1-0.9,0.2c-0.3,0.1-0.5,0.2-0.6,0.4
			c-0.2,0.2-0.2,0.4-0.2,0.7c0,0.4,0.2,0.7,0.5,0.9C57.6,101.8,58,101.9,58.5,101.9z M65.1,98.1v4.6h-1.2v-7.6h1.1v1.2h0.1
			c0.2-0.4,0.5-0.7,0.8-0.9c0.4-0.2,0.8-0.4,1.4-0.4c0.5,0,1,0.1,1.4,0.3c0.4,0.2,0.7,0.5,0.9,1c0.2,0.4,0.3,1,0.3,1.6v4.9h-1.2V98
			c0-0.6-0.2-1.1-0.5-1.4c-0.3-0.3-0.7-0.5-1.3-0.5c-0.4,0-0.7,0.1-1,0.2c-0.3,0.2-0.5,0.4-0.7,0.7C65.2,97.3,65.1,97.7,65.1,98.1z
			 M75.2,102.9c-0.7,0-1.3-0.2-1.8-0.5c-0.5-0.3-0.9-0.8-1.2-1.4c-0.3-0.6-0.4-1.3-0.4-2c0-0.8,0.1-1.5,0.4-2.1
			c0.3-0.6,0.7-1.1,1.2-1.4c0.5-0.3,1.1-0.5,1.8-0.5c0.5,0,1,0.1,1.5,0.3c0.4,0.2,0.8,0.5,1.1,0.8c0.3,0.4,0.4,0.8,0.5,1.3H77
			c-0.1-0.3-0.3-0.7-0.6-0.9c-0.3-0.3-0.7-0.4-1.2-0.4c-0.5,0-0.9,0.1-1.2,0.4c-0.3,0.2-0.6,0.6-0.8,1c-0.2,0.4-0.3,0.9-0.3,1.5
			c0,0.6,0.1,1.1,0.3,1.5c0.2,0.4,0.5,0.8,0.8,1c0.3,0.2,0.7,0.4,1.2,0.4c0.3,0,0.6-0.1,0.8-0.2c0.2-0.1,0.5-0.3,0.6-0.5
			c0.2-0.2,0.3-0.4,0.4-0.7h1.2c-0.1,0.4-0.2,0.9-0.5,1.2c-0.3,0.4-0.6,0.6-1,0.9C76.3,102.8,75.8,102.9,75.2,102.9z M83.1,102.9
			c-0.7,0-1.4-0.2-1.9-0.5c-0.5-0.3-0.9-0.8-1.2-1.4c-0.3-0.6-0.4-1.3-0.4-2.1c0-0.8,0.1-1.5,0.4-2.1c0.3-0.6,0.7-1.1,1.2-1.4
			c0.5-0.3,1.1-0.5,1.8-0.5c0.4,0,0.8,0.1,1.2,0.2c0.4,0.1,0.7,0.3,1.1,0.6c0.3,0.3,0.6,0.7,0.8,1.2c0.2,0.5,0.3,1.1,0.3,1.8v0.5
			h-5.9v-1h4.7c0-0.4-0.1-0.8-0.3-1.2c-0.2-0.3-0.4-0.6-0.7-0.8c-0.3-0.2-0.7-0.3-1.1-0.3c-0.5,0-0.9,0.1-1.2,0.3
			c-0.3,0.2-0.6,0.5-0.8,0.9c-0.2,0.4-0.3,0.8-0.3,1.2v0.7c0,0.6,0.1,1.1,0.3,1.5c0.2,0.4,0.5,0.7,0.8,0.9c0.4,0.2,0.8,0.3,1.2,0.3
			c0.3,0,0.6,0,0.8-0.1c0.3-0.1,0.5-0.2,0.7-0.4c0.2-0.2,0.3-0.4,0.4-0.7l1.1,0.3c-0.1,0.4-0.3,0.7-0.6,1c-0.3,0.3-0.6,0.5-1,0.7
			C84.1,102.8,83.6,102.9,83.1,102.9z"/>
		<path class="st0" d="M955.9,482.1v1h-4v-1H955.9z M953.1,480.3h1.2v7.3c0,0.3,0.1,0.6,0.2,0.7c0.1,0.2,0.2,0.3,0.4,0.3
			c0.1,0.1,0.3,0.1,0.5,0.1c0.1,0,0.2,0,0.3,0c0.1,0,0.2,0,0.2,0l0.2,1.1c-0.1,0-0.2,0.1-0.3,0.1c-0.1,0-0.3,0-0.5,0
			c-0.3,0-0.7-0.1-1-0.2c-0.3-0.1-0.6-0.4-0.8-0.7c-0.2-0.3-0.3-0.7-0.3-1.1V480.3z M957.7,489.7v-7.6h1.2v7.6H957.7z M958.3,480.8
			c-0.2,0-0.4-0.1-0.6-0.2c-0.2-0.2-0.2-0.3-0.2-0.6c0-0.2,0.1-0.4,0.2-0.6c0.2-0.2,0.4-0.2,0.6-0.2s0.4,0.1,0.6,0.2
			c0.2,0.2,0.2,0.3,0.2,0.6c0,0.2-0.1,0.4-0.2,0.6C958.7,480.7,958.5,480.8,958.3,480.8z M961,489.7v-7.6h1.1v1.2h0.1
			c0.2-0.4,0.4-0.7,0.8-1c0.3-0.2,0.8-0.3,1.3-0.3c0.5,0,0.9,0.1,1.3,0.3c0.3,0.2,0.6,0.5,0.8,1h0.1c0.2-0.4,0.5-0.7,0.9-0.9
			c0.4-0.2,0.9-0.4,1.4-0.4c0.7,0,1.2,0.2,1.7,0.6c0.4,0.4,0.7,1.1,0.7,2v5.1h-1.2v-5.1c0-0.6-0.1-1-0.5-1.2
			c-0.3-0.2-0.7-0.4-1.1-0.4c-0.5,0-1,0.2-1.2,0.5c-0.3,0.3-0.4,0.7-0.4,1.2v5h-1.2v-5.2c0-0.4-0.1-0.8-0.4-1
			c-0.3-0.3-0.6-0.4-1.1-0.4c-0.3,0-0.6,0.1-0.9,0.2c-0.3,0.2-0.5,0.4-0.6,0.7c-0.2,0.3-0.2,0.6-0.2,1v4.8H961z M976.4,489.9
			c-0.7,0-1.4-0.2-1.9-0.5c-0.5-0.3-0.9-0.8-1.2-1.4c-0.3-0.6-0.4-1.3-0.4-2.1c0-0.8,0.1-1.5,0.4-2.1c0.3-0.6,0.7-1.1,1.2-1.4
			c0.5-0.3,1.1-0.5,1.8-0.5c0.4,0,0.8,0.1,1.2,0.2s0.7,0.3,1.1,0.6c0.3,0.3,0.6,0.7,0.8,1.2c0.2,0.5,0.3,1.1,0.3,1.8v0.5h-5.9v-1
			h4.7c0-0.4-0.1-0.8-0.3-1.2c-0.2-0.3-0.4-0.6-0.7-0.8c-0.3-0.2-0.7-0.3-1.1-0.3c-0.5,0-0.9,0.1-1.2,0.3c-0.3,0.2-0.6,0.5-0.8,0.9
			c-0.2,0.4-0.3,0.8-0.3,1.2v0.7c0,0.6,0.1,1.1,0.3,1.5c0.2,0.4,0.5,0.7,0.8,0.9c0.4,0.2,0.8,0.3,1.2,0.3c0.3,0,0.6,0,0.8-0.1
			c0.2-0.1,0.5-0.2,0.7-0.4c0.2-0.2,0.3-0.4,0.4-0.7l1.1,0.3c-0.1,0.4-0.3,0.7-0.6,1c-0.3,0.3-0.6,0.5-1,0.7
			C977.4,489.8,976.9,489.9,976.4,489.9z"/>
		<path class="st0" d="M422.9,482.1v1h-4v-1H422.9z M420.1,480.3h1.2v7.3c0,0.3,0.1,0.6,0.2,0.7c0.1,0.2,0.2,0.3,0.4,0.3
			c0.1,0.1,0.3,0.1,0.5,0.1c0.1,0,0.2,0,0.3,0c0.1,0,0.2,0,0.2,0l0.2,1.1c-0.1,0-0.2,0.1-0.3,0.1c-0.1,0-0.3,0-0.5,0
			c-0.3,0-0.7-0.1-1-0.2c-0.3-0.1-0.6-0.4-0.8-0.7c-0.2-0.3-0.3-0.7-0.3-1.1V480.3z M424.7,489.7v-7.6h1.2v7.6H424.7z M425.3,480.8
			c-0.2,0-0.4-0.1-0.6-0.2c-0.2-0.2-0.2-0.3-0.2-0.6c0-0.2,0.1-0.4,0.2-0.6c0.2-0.2,0.4-0.2,0.6-0.2s0.4,0.1,0.6,0.2
			c0.2,0.2,0.2,0.3,0.2,0.6c0,0.2-0.1,0.4-0.2,0.6C425.7,480.7,425.5,480.8,425.3,480.8z M428,489.7v-7.6h1.1v1.2h0.1
			c0.2-0.4,0.4-0.7,0.8-1c0.3-0.2,0.8-0.3,1.3-0.3c0.5,0,0.9,0.1,1.3,0.3c0.3,0.2,0.6,0.5,0.8,1h0.1c0.2-0.4,0.5-0.7,0.9-0.9
			c0.4-0.2,0.9-0.4,1.4-0.4c0.7,0,1.2,0.2,1.7,0.6c0.4,0.4,0.7,1.1,0.7,2v5.1h-1.2v-5.1c0-0.6-0.1-1-0.5-1.2
			c-0.3-0.2-0.7-0.4-1.1-0.4c-0.5,0-1,0.2-1.2,0.5c-0.3,0.3-0.4,0.7-0.4,1.2v5h-1.2v-5.2c0-0.4-0.1-0.8-0.4-1
			c-0.3-0.3-0.6-0.4-1.1-0.4c-0.3,0-0.6,0.1-0.9,0.2c-0.3,0.2-0.5,0.4-0.6,0.7c-0.2,0.3-0.2,0.6-0.2,1v4.8H428z M443.4,489.9
			c-0.7,0-1.4-0.2-1.9-0.5c-0.5-0.3-0.9-0.8-1.2-1.4c-0.3-0.6-0.4-1.3-0.4-2.1c0-0.8,0.1-1.5,0.4-2.1c0.3-0.6,0.7-1.1,1.2-1.4
			c0.5-0.3,1.1-0.5,1.8-0.5c0.4,0,0.8,0.1,1.2,0.2s0.7,0.3,1.1,0.6c0.3,0.3,0.6,0.7,0.8,1.2c0.2,0.5,0.3,1.1,0.3,1.8v0.5h-5.9v-1
			h4.7c0-0.4-0.1-0.8-0.3-1.2c-0.2-0.3-0.4-0.6-0.7-0.8c-0.3-0.2-0.7-0.3-1.1-0.3c-0.5,0-0.9,0.1-1.2,0.3c-0.3,0.2-0.6,0.5-0.8,0.9
			c-0.2,0.4-0.3,0.8-0.3,1.2v0.7c0,0.6,0.1,1.1,0.3,1.5c0.2,0.4,0.5,0.7,0.8,0.9c0.4,0.2,0.8,0.3,1.2,0.3c0.3,0,0.6,0,0.8-0.1
			c0.2-0.1,0.5-0.2,0.7-0.4c0.2-0.2,0.3-0.4,0.4-0.7l1.1,0.3c-0.1,0.4-0.3,0.7-0.6,1c-0.3,0.3-0.6,0.5-1,0.7
			C444.4,489.8,443.9,489.9,443.4,489.9z"/>
	</g>
</g>
</svg>
