<svg xmlns="http://www.w3.org/2000/svg" viewBox="0 0 1003.14 814.9"><defs><style>.cls-1{fill:#e7e4f2}.cls-14,.cls-2{fill:#fff}.cls-3{fill:#aea5d6}.cls-4{fill:#10b1b1}.cls-5{fill:#a888f4}.cls-6{fill:#ff9d73}.cls-7,.cls-9{fill:none}.cls-12,.cls-13,.cls-7{stroke:#171321}.cls-12,.cls-13,.cls-14,.cls-7,.cls-9{stroke-miterlimit:10}.cls-12,.cls-14,.cls-7,.cls-9{stroke-width:3.14px}.cls-8{fill:#d0c5e2}.cls-9{stroke:#aea5d6}.cls-10{fill:#7759c1}.cls-12,.cls-13{fill:#171321}.cls-13{stroke-width:3.3px}.cls-14{stroke:#1d1d1b}</style></defs><g id="Layer_2" data-name="Layer 2"><g id="LOGO"><path class="cls-1" d="M934 766.68H361.61c-129.91 0-235.21-105.31-235.21-235.21V23.12h572.4c129.9 0 235.2 105.31 235.2 235.21Z"/><path class="cls-2" d="M250.8 236.01h558.05v352.61H250.8z"/><path class="cls-2" d="M249.08 236h560.54v360.77a44 44 0 0 1-44 44H249.08V236Z"/><path class="cls-3" d="M249.08 147.23h562.24V236H249.08z"/><circle class="cls-4" cx="309.25" cy="191.62" r="12.77"/><circle class="cls-5" cx="355.52" cy="191.62" r="12.77"/><circle class="cls-6" cx="401.79" cy="191.62" r="12.77"/><path class="cls-7" d="M250.8 328.33v-181.1h433.27M250.8 474.24V359.36M809.62 515.1v69.15a56.56 56.56 0 0 1-56.56 56.57H380.81M809.62 331.86v140.25"/><circle class="cls-7" cx="309.25" cy="191.62" r="12.77"/><circle class="cls-7" cx="355.52" cy="191.62" r="12.77"/><circle class="cls-7" cx="401.79" cy="191.62" r="12.77"/><path class="cls-7" d="M250.8 236.01h400.27"/><path class="cls-8" d="M597.44 455.87h141.28v18.45H597.44z"/><path class="cls-1" d="M323.41 455.79h251.15v18.45H323.41z"/><path class="cls-1" transform="rotate(180 394.05 364.84)" d="M323.41 355.61h141.28v18.45H323.41z"/><path class="cls-3" transform="rotate(180 613.145 364.88)" d="M487.57 355.65h251.15v18.45H487.57z"/><path class="cls-3" transform="rotate(180 354.11 414.925)" d="M323.41 405.7h61.39v18.45h-61.39z"/><path class="cls-1" transform="rotate(180 679.52 414.985)" d="M620.32 405.76h118.4v18.45h-118.4z"/><path class="cls-8" transform="rotate(180 502.56 414.985)" d="M407.68 405.76h189.76v18.45H407.68z"/><path class="cls-8" d="M408.27 305.54h112.67v18.45H408.27z"/><path class="cls-1" d="M542.51 305.54h196.21v18.45H542.51z"/><path class="cls-3" d="M323.41 305.52h61.98v18.45h-61.98z"/><path class="cls-3" transform="rotate(-180 597.53 515.205)" d="M541.2 505.98h112.67v18.45H541.2z"/><path class="cls-8" transform="rotate(-180 421.52 515.1)" d="M323.41 505.88h196.21v18.45H323.41z"/><path class="cls-1" d="M323.41 505.88h120.52l-15.04 18.45H323.41v-18.45z"/><path class="cls-8" transform="rotate(-180 707.73 515.205)" d="M676.74 505.98h61.98v18.45h-61.98z"/><path class="cls-8" d="M636.02 555.94h102.7v18.45h-102.7z"/><path class="cls-3" d="M323.42 555.97h122.45v18.45H323.42z"/><path class="cls-1" d="M467.43 555.96h145.71v18.45H467.43z"/><path class="cls-8" d="M394.05 574.42h-70.64v-18.46h84.15l-13.51 18.46z"/><path class="cls-7" d="m702.58 148.8-41.52 168.16 182.54-14.58M306.27 695.45 473.6 465.01l-279.48 36.76"/><circle class="cls-2" cx="829.49" cy="173.66" r="129.3"/><circle class="cls-7" cx="829.49" cy="173.66" r="129.3"/><path class="cls-9" d="M829.49 1.57a172.08 172.08 0 0 1 172.08 172.09M193.24 813.33A172.09 172.09 0 0 1 21.15 641.24"/><path class="cls-7" d="M814.07 117.88a15.58 15.58 0 0 0-19.09-11M844.89 117.88a15.58 15.58 0 0 1 19.09-11M862.51 163.41l24.32-8.14v-16.12M863.98 205.71l22.85 7.63v16.12M796.46 163.41l-24.32-8.14v-16.12M794.99 205.71l-22.85 7.63v16.12"/><path class="cls-5" d="m800.3 144.88-10.39 21.49c-14.11 29.19 7.15 63.09 39.57 63.09 32.43 0 53.69-33.9 39.58-63.09l-10.39-21.49"/><path class="cls-7" d="M829.48 144.88v84.58"/><path class="cls-10" d="M857.91 144.88h-56.86v-7.66c0-33.32 56.86-33.26 56.86 0Z"/><circle class="cls-2" cx="194.12" cy="631.07" r="129.3"/><circle class="cls-7" cx="194.12" cy="631.07" r="129.3"/><path class="cls-10" d="M233.27 620.82h-15.61v-26.15a25 25 0 0 0-50 0v26.15H152v-26.15a40.63 40.63 0 0 1 81.26 0Z"/><path class="cls-5" d="M133.03 613.47H250.8v84.93H133.03z"/><circle cx="191.91" cy="650.95" r="8.38" style="fill:#171321"/><path class="cls-7" d="M191.91 657.36v9.98M401.79 364.88v-11a15.5 15.5 0 0 0-15.5-15.5h-214a15.5 15.5 0 0 1-15.5-15.5v-51.34"/><circle class="cls-12" cx="401.79" cy="364.88" r="3.86"/><path class="cls-7" d="M871.73 494.7H704.94a10.85 10.85 0 0 1-10.85-10.85v-15.6"/><circle class="cls-12" cx="694.09" cy="468.25" r="3.86"/><path class="cls-4" d="M156.75 163.41c-27.2 29.68-62.43 23.14-62.43 23.14v53.56a62.78 62.78 0 0 0 5.84 27c16.25 34.24 56.59 47 56.59 47s40.34-12.73 56.59-47a62.78 62.78 0 0 0 5.84-27v-53.56s-35.18 6.54-62.43-23.14Z"/><path class="cls-7" d="m133.23 238.17 13.9 13.9 33.13-33.14"/><path class="cls-6" d="M903 426.35c-27.24 29.72-62.52 23.17-62.52 23.17v53.63a62.79 62.79 0 0 0 5.85 27c16.27 34.29 56.67 47 56.67 47s40.39-12.75 56.67-47a62.94 62.94 0 0 0 5.85-27v-53.63s-35.3 6.55-62.52-23.17Z"/><path class="cls-13" d="m897.84 471.93 2.52 35.94h5.23l2.52-35.94h-10.27zM900.36 519.63h5.23v6.16h-5.23z"/><circle class="cls-14" cx="752.33" cy="577.19" r="34.77"/><path d="M755.35 558.91v36.57h-4.43v-31.93h-.21l-8.93 5.93V565l9.14-6.07Z"/><circle class="cls-14" cx="697.95" cy="147.95" r="34.77"/><path d="M686.42 165.22V162l12.07-13.21q2.12-2.33 3.5-4.05a15.3 15.3 0 0 0 2-3.25 7.82 7.82 0 0 0 .67-3.2 6 6 0 0 0-.92-3.34 6.06 6.06 0 0 0-2.51-2.18 8.13 8.13 0 0 0-3.57-.77 7.43 7.43 0 0 0-3.67.87 6 6 0 0 0-2.41 2.42 7.53 7.53 0 0 0-.85 3.64h-4.21a10.6 10.6 0 0 1 1.48-5.63 10.34 10.34 0 0 1 4.05-3.79 12.11 12.11 0 0 1 5.75-1.35 11.74 11.74 0 0 1 5.7 1.35 10.31 10.31 0 0 1 3.89 3.66 9.65 9.65 0 0 1 1.41 5.13 11.11 11.11 0 0 1-.72 3.93 17.59 17.59 0 0 1-2.5 4.27c-1.19 1.57-2.83 3.47-4.92 5.72l-8.17 8.78v.28h17v3.93Z"/><circle class="cls-14" cx="487.57" cy="640.82" r="34.77"/><path d="M486.35 659.6a15.49 15.49 0 0 1-6.3-1.22 10.65 10.65 0 0 1-4.37-3.38 9 9 0 0 1-1.76-5h4.5a5.27 5.27 0 0 0 1.21 3 7 7 0 0 0 2.81 2 11 11 0 0 0 8-.12 6.83 6.83 0 0 0 2.86-2.29 5.69 5.69 0 0 0 1-3.39 6.39 6.39 0 0 0-1-3.56 6.59 6.59 0 0 0-2.92-2.42 11.46 11.46 0 0 0-4.72-.88h-2.92v-3.92h2.92a8.71 8.71 0 0 0 3.83-.79 6.17 6.17 0 0 0 2.59-2.21 5.94 5.94 0 0 0 .94-3.36 6.16 6.16 0 0 0-.82-3.23 5.62 5.62 0 0 0-2.31-2.14 7.5 7.5 0 0 0-3.51-.77 9.22 9.22 0 0 0-3.56.69 6.73 6.73 0 0 0-2.73 2 5.2 5.2 0 0 0-1.14 3.11h-4.28a8.7 8.7 0 0 1 1.73-5 10.84 10.84 0 0 1 4.26-3.38 13.62 13.62 0 0 1 5.79-1.22 11.71 11.71 0 0 1 5.82 1.37A9.72 9.72 0 0 1 496 627a9.35 9.35 0 0 1 1.3 4.82 8.54 8.54 0 0 1-1.61 5.26 8.27 8.27 0 0 1-4.38 3v.29a8.56 8.56 0 0 1 5.41 2.93 9 9 0 0 1 1.94 5.85 9.32 9.32 0 0 1-1.61 5.35 11 11 0 0 1-4.41 3.72 14.19 14.19 0 0 1-6.29 1.38Z"/><circle class="cls-14" cx="36.34" cy="631.07" r="34.77"/><path d="M21.87 641.85v-3.64l16.07-25.42h2.64v5.64h-1.79l-12.14 19.21v.29h21.64v3.92Zm17.21 7.5v-36.56h4.21v36.56Z"/><circle class="cls-14" cx="511.36" cy="83.01" r="34.77"/><path d="M511 101.54a12.54 12.54 0 0 1-5.65-1.25 10.5 10.5 0 0 1-4-3.43 9.31 9.31 0 0 1-1.66-5h4.28a5.82 5.82 0 0 0 2.22 4.14 7.44 7.44 0 0 0 4.81 1.61 7.67 7.67 0 0 0 4-1 7.5 7.5 0 0 0 2.77-2.9 9.22 9.22 0 0 0 0-8.47 7.85 7.85 0 0 0-2.86-3 8 8 0 0 0-4.16-1.11 11.73 11.73 0 0 0-3.45.51 9.71 9.71 0 0 0-2.94 1.36l-4.14-.5 2.21-18h19v3.9h-15.28l-1.29 10.78h.22a9.84 9.84 0 0 1 2.82-1.48 10.76 10.76 0 0 1 3.53-.59 11.25 11.25 0 0 1 10.14 6 13 13 0 0 1 1.5 6.32 12.4 12.4 0 0 1-1.56 6.24 11.55 11.55 0 0 1-4.29 4.32 12.21 12.21 0 0 1-6.22 1.55Z"/><circle class="cls-14" cx="934.01" cy="766.68" r="34.77"/><path d="M933 785.46a13.53 13.53 0 0 1-4.5-.86 10.69 10.69 0 0 1-4.11-2.77 14.1 14.1 0 0 1-3-5.31 26.75 26.75 0 0 1-1.12-8.41 36.66 36.66 0 0 1 .91-8.62 19.34 19.34 0 0 1 2.64-6.34 11.92 11.92 0 0 1 4.19-3.92 11.38 11.38 0 0 1 5.54-1.33 11.81 11.81 0 0 1 5.47 1.22 10.48 10.48 0 0 1 3.92 3.4 11.89 11.89 0 0 1 2 5h-4.36a8.05 8.05 0 0 0-2.36-4.09 6.5 6.5 0 0 0-4.64-1.63 7.62 7.62 0 0 0-6.69 3.7q-2.43 3.69-2.45 10.37h.28a11 11 0 0 1 2.39-2.6 10.82 10.82 0 0 1 3.06-1.67 10.7 10.7 0 0 1 3.55-.58 11 11 0 0 1 5.75 1.56 11.66 11.66 0 0 1 4.18 4.3 12.38 12.38 0 0 1 1.57 6.28 12.85 12.85 0 0 1-1.52 6.2 11.46 11.46 0 0 1-4.25 4.46 12 12 0 0 1-6.45 1.64Zm0-3.93a7.42 7.42 0 0 0 4-1.12 8.08 8.08 0 0 0 2.84-3 8.54 8.54 0 0 0 1-4.21 8.63 8.63 0 0 0-1-4.14 8 8 0 0 0-2.77-3 7.35 7.35 0 0 0-4-1.11 7.62 7.62 0 0 0-3.16.67 8.33 8.33 0 0 0-2.56 1.83 8.76 8.76 0 0 0-1.72 2.65 8 8 0 0 0-.63 3.14 8.35 8.35 0 0 0 1 4.07 8.18 8.18 0 0 0 2.82 3 7.29 7.29 0 0 0 4.18 1.22Z"/><circle class="cls-14" cx="226.68" cy="139.15" r="34.77"/><path d="m218.72 159.94 16.36-32.35v-.28h-18.86v-3.93h23.43v4.14l-16.29 32.42Z"/></g></g></svg>