<?xml version="1.0" encoding="utf-8"?>
<!-- Generator: Adobe Illustrator 26.0.0, SVG Export Plug-In . SVG Version: 6.00 Build 0)  -->
<svg version="1.1" id="Layer_1" xmlns="http://www.w3.org/2000/svg" xmlns:xlink="http://www.w3.org/1999/xlink" x="0px" y="0px"
	 viewBox="0 0 807.1 156" style="enable-background:new 0 0 807.1 156;" xml:space="preserve">
<style type="text/css">
	.st0{fill:none;stroke:#171321;stroke-width:0.5594;stroke-miterlimit:10;}
	.st1{fill:#AEA5D6;}
	.st2{fill:#FFFFFF;}
	.st3{fill:#F6F3FE;}
	.st4{fill:none;stroke:#E7E4F2;stroke-width:0.5594;stroke-miterlimit:10;}
	.st5{fill:#FC6D26;}
	.st6{fill:#10B1B1;}
	.st7{fill:#A989F5;}
	.st8{fill:none;stroke:#E7E4F2;stroke-width:0.6993;stroke-miterlimit:10;}
	.st9{fill:#D0C5E2;}
	.st10{fill:none;stroke:#171321;stroke-width:0.6993;stroke-miterlimit:10;}
	.st11{fill:#E7E4F2;}
	.st12{fill:#FF9D73;}
	.st13{fill:#FFFFFF;stroke:#171321;stroke-width:0.5594;stroke-miterlimit:10;}
	.st14{fill:none;stroke:#E7E4F2;stroke-width:1.2881;stroke-miterlimit:10;}
	.st15{fill:none;stroke:#A989F5;stroke-width:1.2881;stroke-miterlimit:10;}
	.st16{fill:#A888F4;}
	.st17{fill:#7759C1;}
	.st18{fill:none;stroke:#E7E4F2;stroke-width:0.5779;stroke-miterlimit:10;}
</style>
<g>
	<g>
		<polyline class="st0" points="214.6,29.8 224.4,32.5 214.6,61.3 		"/>
		<rect x="186.2" y="26.5" class="st0" width="28.4" height="39.1"/>
		<line class="st0" x1="190.2" y1="41.3" x2="210.6" y2="41.3"/>
		<line class="st0" x1="190.2" y1="46.1" x2="210.6" y2="46.1"/>
		<circle class="st1" cx="193.8" cy="34.3" r="3.4"/>
		<polyline class="st0" points="190.2,52.1 191.3,53.3 193.7,50.9 		"/>
		<polyline class="st0" points="190.2,57.7 191.3,58.9 193.7,56.6 		"/>
		<line class="st0" x1="196.6" y1="52.1" x2="205" y2="52.1"/>
		<line class="st0" x1="196.6" y1="57.7" x2="205" y2="57.7"/>
	</g>
	<g>
		<path class="st2" d="M274.3,127.2h-46V77.4h72.3v23.4C300.7,115.4,288.9,127.2,274.3,127.2z"/>
		<g>
			<rect x="235.1" y="87" class="st3" width="58.7" height="4.3"/>
			<rect x="235.1" y="94.1" class="st3" width="58.7" height="4.3"/>
			<rect x="235.1" y="108.2" class="st3" width="58.7" height="4.3"/>
			<rect x="235.1" y="87" class="st3" width="58.7" height="4.3"/>
			<rect x="235.1" y="101.2" class="st3" width="58.7" height="4.3"/>
			<rect x="235.1" y="115.3" class="st3" width="58.7" height="4.3"/>
			<line class="st4" x1="250" y1="85.3" x2="250" y2="121.3"/>
			<line class="st4" x1="264.4" y1="85.3" x2="264.4" y2="121.3"/>
			<line class="st4" x1="278.8" y1="85.3" x2="278.8" y2="121.3"/>
			<rect x="235.1" y="87" class="st5" width="15.2" height="4.3"/>
			<rect x="249.7" y="94.1" class="st6" width="15" height="4.3"/>
			<rect x="261" y="101.2" class="st7" width="14" height="4.3"/>
			<rect x="269.2" y="108.2" class="st5" width="14" height="4.3"/>
			<rect x="278.6" y="115.3" class="st6" width="15.1" height="4.3"/>
		</g>
		<path class="st0" d="M292.3,127.2h-63.9V77.4h72.3v41.4C300.7,123.5,296.9,127.2,292.3,127.2z"/>
	</g>
	<g>
		<defs>
			<circle id="SVGID_1_" cx="298.5" cy="80.1" r="12.6"/>
		</defs>
		<clipPath id="SVGID_00000008869407628837086760000003438309429806443924_">
			<use xlink:href="#SVGID_1_"  style="overflow:visible;"/>
		</clipPath>
		<g transform="matrix(1 0 0 1 0 0)" style="clip-path:url(#SVGID_00000008869407628837086760000003438309429806443924_);">
			
				<image style="overflow:visible;" width="520" height="520" xlink:href="4EA767269CF3B3D7.png"  transform="matrix(4.930035e-02 0 0 4.930037e-02 285.6532 67.3253)">
			</image>
		</g>
	</g>
	<g>
		<g>
			<path class="st2" d="M491.5,64.4v-40h8h11h46.2V56c0,4.6-3.8,8.4-8.4,8.4H491.5z"/>
			<path class="st0" d="M472.7,64.4v-40h84V56c0,4.6-3.8,8.4-8.4,8.4H472.7z"/>
			<g>
				<rect x="513.9" y="34.2" class="st1" width="12.6" height="3.1"/>
				<rect x="513.9" y="40.8" class="st7" width="34.3" height="2.1"/>
				<rect x="513.9" y="46.1" class="st7" width="34.3" height="2.1"/>
				<path class="st8" d="M519.8,56.6H515c-0.6,0-1.1-0.5-1.1-1.1v-2c0-0.6,0.5-1.1,1.1-1.1h4.8c0.6,0,1.1,0.5,1.1,1.1v2
					C520.9,56.1,520.4,56.6,519.8,56.6z"/>
				<path class="st8" d="M542.3,37.3h-7.8c-0.5,0-0.8-0.4-0.8-0.8V35c0-0.5,0.4-0.8,0.8-0.8h7.8c0.5,0,0.8,0.4,0.8,0.8v1.5
					C543.2,37,542.8,37.3,542.3,37.3z"/>
				<circle class="st8" cx="546.7" cy="35.8" r="1.6"/>
			</g>
		</g>
		<g>
			<defs>
				<circle id="SVGID_00000137819181240675278400000005673916273337564080_" cx="492.4" cy="44.4" r="12.6"/>
			</defs>
			<clipPath id="SVGID_00000161632913940868359700000007119920404452168618_">
				<use xlink:href="#SVGID_00000137819181240675278400000005673916273337564080_"  style="overflow:visible;"/>
			</clipPath>
			
				<g transform="matrix(1 0 0 1 3.051758e-05 0)" style="clip-path:url(#SVGID_00000161632913940868359700000007119920404452168618_);">
				
					<image style="overflow:visible;" width="1200" height="1200" xlink:href="4EA767269CF3B3D5.png"  transform="matrix(2.202826e-02 0 0 2.202827e-02 479.182 31.1726)">
				</image>
			</g>
		</g>
	</g>
	<g>
		<rect x="348.2" y="10.8" class="st2" width="42.5" height="29.1"/>
		<rect x="355.3" y="27.2" class="st9" width="6.8" height="6.8"/>
		<rect x="348.2" y="10.8" class="st0" width="42.5" height="29.1"/>
		<g>
			<rect x="355.1" y="16.7" class="st6" width="7.2" height="7.2"/>
			<polyline class="st10" points="356.7,20.3 358.1,21.6 360.8,18.9 			"/>
		</g>
		<line class="st0" x1="367.2" y1="18.7" x2="383.4" y2="18.7"/>
		<line class="st0" x1="367.2" y1="21.8" x2="375.4" y2="21.8"/>
		<line class="st0" x1="367.2" y1="29" x2="383.4" y2="29"/>
		<line class="st0" x1="367.2" y1="32.2" x2="375.4" y2="32.2"/>
		<line class="st0" x1="367.2" y1="30.8" x2="383.4" y2="30.8"/>
	</g>
	<g>
		<g>
			<polygon class="st2" points="638.8,93.6 588.5,93.6 588.5,107.9 609.5,107.9 613.7,114.9 617.9,107.9 638.8,107.9 			"/>
			<path class="st11" d="M643.2,125.3h-59.2c-0.9,0-1.7-0.8-1.7-1.7v-3c0-0.9,0.8-1.7,1.7-1.7h59.2c0.9,0,1.7,0.8,1.7,1.7v3
				C644.9,124.5,644.2,125.3,643.2,125.3z"/>
			<path class="st6" d="M607.1,125.3h-23.1c-0.9,0-1.7-0.8-1.7-1.7v-3c0-0.9,0.8-1.7,1.7-1.7h23.1V125.3z"/>
			<polygon class="st0" points="638.8,93.6 588.5,93.6 588.5,107.9 609.5,107.9 613.7,114.9 617.9,107.9 638.8,107.9 			"/>
			<line class="st0" x1="597.8" y1="100.7" x2="616.5" y2="100.7"/>
			<rect x="620.1" y="98.5" class="st12" width="8.9" height="4.4"/>
		</g>
		<g>
			<defs>
				<circle id="SVGID_00000008860637834252138630000000208307509514810006_" cx="584.9" cy="88.4" r="12.6"/>
			</defs>
			<clipPath id="SVGID_00000039848146320077700850000004807385364641602955_">
				<use xlink:href="#SVGID_00000008860637834252138630000000208307509514810006_"  style="overflow:visible;"/>
			</clipPath>
			<g style="clip-path:url(#SVGID_00000039848146320077700850000004807385364641602955_);">
				
					<image style="overflow:visible;" width="720" height="720" xlink:href="4EA767269CF3B3DB.png"  transform="matrix(3.560123e-02 0 0 3.560124e-02 572.101 75.5745)">
				</image>
			</g>
		</g>
	</g>
	<g>
		<path class="st0" d="M539.3,107.1H553c2.5,0,4.5,2,4.5,4.5v23.8c0,2.6,2.1,4.6,4.6,4.6h21.8"/>
		<line class="st13" x1="518.8" y1="107.1" x2="534.1" y2="107.1"/>
		<circle class="st13" cx="557.4" cy="122.1" r="3.1"/>
	</g>
	<g>
		<path class="st0" d="M664.9,132.4v-10.5c0-2.5,2-4.5,4.5-4.5h38.2c2.6,0,4.6-2.1,4.6-4.6V91.1"/>
		<line class="st13" x1="664.9" y1="142.5" x2="664.9" y2="135.5"/>
		<circle class="st13" cx="694.2" cy="117.4" r="3.1"/>
	</g>
	<g>
		<path class="st9" d="M470.3,94.5v6.5c0,4.5-2.2,8.9-6.6,11.4l-61.1,35.3l-81-46.7v-7.3"/>
		<path class="st2" d="M463.7,105.1l-61.1,35.3l-81-46.7l81-46.7l61.1,35.3C472.5,87.3,472.5,100,463.7,105.1z"/>
		<polygon class="st3" points="417.3,55.5 336.3,102.1 321.6,93.6 402.5,46.9 		"/>
		<g>
			<ellipse class="st2" cx="335.7" cy="93.9" rx="2.2" ry="1.3"/>
			<ellipse class="st2" cx="341.6" cy="90.5" rx="2.2" ry="1.3"/>
			<ellipse class="st2" cx="347.5" cy="87.1" rx="2.2" ry="1.3"/>
		</g>
		<line class="st13" x1="336.6" y1="102" x2="417.5" y2="55.3"/>
		<path class="st0" d="M463.7,105.1l-61.1,35.3l-81-46.7l81-46.7l61.1,35.3C472.5,87.3,472.5,100,463.7,105.1z"/>
		<g>
			<ellipse class="st0" cx="335.7" cy="93.9" rx="2.2" ry="1.3"/>
			<ellipse class="st0" cx="341.6" cy="90.5" rx="2.2" ry="1.3"/>
			<ellipse class="st0" cx="347.5" cy="87.1" rx="2.2" ry="1.3"/>
		</g>
		<g>
			<path class="st5" d="M427.5,80.9l-0.2-0.1l-23.1-6c-0.5-0.1-1-0.1-1.5-0.1c-0.5,0.1-0.9,0.2-1.3,0.4c-0.3,0.2-0.5,0.5-0.6,0.8
				c-0.1,0.3,0,0.6,0.3,0.8L410,87l-17.5,10.1L375,92c-0.4-0.1-0.9-0.2-1.4-0.2c-0.5,0-1,0.2-1.3,0.3c-0.4,0.2-0.6,0.4-0.7,0.7
				c-0.1,0.3-0.1,0.6,0.1,0.8l10.3,13.4l0.1,0.1c3.1,4,10.3,6.3,17.7,5.7c0,0,0,0,0,0l0.1,0l17.1-1.4l8.5-0.7l5.2-0.4
				c1.2-0.1,2.2-0.7,2.4-1.4l0.7-3l1.2-4.9l2.5-9.9c0,0,0,0,0,0C438.3,86.8,434.4,82.7,427.5,80.9z"/>
		</g>
	</g>
	<path class="st0" d="M334.6,29.6h-28.7c-2.5,0-4.8,1-6.5,2.7l-34,34"/>
	<circle class="st13" cx="290" cy="41.7" r="3.1"/>
	<path class="st0" d="M434,33.1V17.8c0-2.6,2.1-4.6,4.6-4.6h52.3"/>
	<circle class="st13" cx="456.6" cy="13.2" r="3.1"/>
	<rect x="615.5" y="16.7" class="st3" width="58.1" height="15.5"/>
	<rect x="576" y="9.2" class="st3" width="16.1" height="51.7"/>
	<rect x="175.5" y="97.8" class="st3" width="36.8" height="21.7"/>
	<rect x="307.9" y="51.1" class="st3" width="35.9" height="7.6"/>
	<rect x="502.3" y="78.1" class="st3" width="50" height="11.1"/>
	<rect x="727.7" y="105.7" class="st3" width="66.3" height="30.2"/>
	<rect x="11.8" y="32.7" class="st3" width="14.3" height="14.3"/>
	<rect x="479.8" y="121.6" class="st3" width="32.6" height="14.3"/>
	<rect x="49.3" y="54.8" class="st3" width="28.7" height="28.7"/>
	<rect x="275.7" y="8.3" class="st3" width="40.2" height="10.3"/>
	<rect x="93.7" y="24.6" class="st3" width="69.4" height="18.9"/>
	<rect x="240.3" y="12" class="st3" width="18.6" height="44.4"/>
	<rect x="404.6" y="11.2" class="st3" width="14.7" height="23.9"/>
	<rect x="519.5" y="8.7" class="st3" width="32.9" height="6.6"/>
	<rect x="661.1" y="91.6" class="st3" width="9.9" height="9.9"/>
	<rect x="443.6" y="45" class="st3" width="9.9" height="9.9"/>
	<rect x="785.9" y="40" class="st3" width="9.9" height="9.9"/>
	<rect x="790.8" y="72.3" class="st3" width="16.3" height="16.3"/>
	<g>
		<rect x="101.6" y="95.7" class="st11" width="61" height="27.1"/>
		<path class="st0" d="M153.9,142.6h-52.3V71.3h60.7v62.9C162.3,138.8,158.6,142.6,153.9,142.6z"/>
		<g>
			<defs>
				<circle id="SVGID_00000082344228900335725230000004510892435448655257_" cx="162.3" cy="71.3" r="12.6"/>
			</defs>
			<clipPath id="SVGID_00000149382065187474872270000003893740054655725187_">
				<use xlink:href="#SVGID_00000082344228900335725230000004510892435448655257_"  style="overflow:visible;"/>
			</clipPath>
			
				<g transform="matrix(5.921734e-03 0 0 5.921728e-03 137.3753 58.7072)" style="clip-path:url(#SVGID_00000149382065187474872270000003893740054655725187_);">
				
					<image style="overflow:visible;" width="8495" height="5663" xlink:href="4EA767269CF3B3DD.jpg"  transform="matrix(5.921734e-03 0 0 5.921728e-03 137.3753 58.7072)">
				</image>
			</g>
		</g>
		<g>
			<defs>
				<circle id="SVGID_00000106829366492650569820000004503087297672265877_" cx="94.5" cy="110.7" r="12.6"/>
			</defs>
			<clipPath id="SVGID_00000035509133167001845720000016885372085585514647_">
				<use xlink:href="#SVGID_00000106829366492650569820000004503087297672265877_"  style="overflow:visible;"/>
			</clipPath>
			
				<g transform="matrix(6.973746e-03 0 0 6.973740e-03 71.9256 97.2004)" style="clip-path:url(#SVGID_00000035509133167001845720000016885372085585514647_);">
				
					<image style="overflow:visible;" width="6247" height="4170" xlink:href="4EA767269CF3B3DF.jpg"  transform="matrix(6.973746e-03 0 0 6.973740e-03 71.9256 97.2004)">
				</image>
			</g>
		</g>
		<g>
			<rect x="111.3" y="79" class="st11" width="3.9" height="2.1"/>
			<rect x="111.3" y="83.6" class="st11" width="3.9" height="2.1"/>
			<rect x="111.3" y="88.5" class="st11" width="3.9" height="2.1"/>
			<rect x="126.7" y="79" class="st11" width="9.5" height="2.1"/>
			<rect x="127.5" y="88.5" class="st11" width="6.4" height="2.1"/>
			<rect x="139" y="88.5" class="st11" width="10.3" height="2.1"/>
			<rect x="127.5" y="83.6" class="st11" width="16" height="2.1"/>
			<polyline class="st14" points="124.7,81.9 122.9,80.1 124.7,78.2 			"/>
			<polyline class="st14" points="144.8,82.8 146.6,84.7 144.8,86.5 			"/>
			<line class="st14" x1="137.3" y1="88.1" x2="135.9" y2="91"/>
		</g>
		<g>
			<rect x="122.1" y="127.9" class="st11" width="9.5" height="2.1"/>
			<rect x="111.3" y="127.9" class="st11" width="3.9" height="2.1"/>
			<rect x="111.3" y="133.1" class="st11" width="3.9" height="2.1"/>
			<rect x="127.5" y="133.1" class="st11" width="6.4" height="2.1"/>
			<rect x="136.2" y="132.8" class="st11" width="13.6" height="2.1"/>
			<path class="st14" d="M125.8,131.8L125.8,131.8c-0.9,1.2-0.9,2.9,0,4.2l0,0"/>
			<path class="st14" d="M151,135.9L151,135.9c0.9-1.2,0.9-2.9,0-4.2l0,0"/>
		</g>
		<g>
			<rect x="122.1" y="100.9" class="st7" width="7.5" height="2.1"/>
			<rect x="135.5" y="100.9" class="st7" width="17.2" height="2.1"/>
			<rect x="111.3" y="100.9" class="st2" width="3.9" height="2.1"/>
			<rect x="111.3" y="106.1" class="st2" width="3.9" height="2.1"/>
			<rect x="111.3" y="110.7" class="st2" width="3.9" height="2.1"/>
			<rect x="111.3" y="115.6" class="st2" width="3.9" height="2.1"/>
			<polygon class="st7" points="137,108.2 127.5,108.1 127.5,106.1 137,106.1 			"/>
			<rect x="127.5" y="115.6" class="st7" width="6.4" height="2.1"/>
			<rect x="136.7" y="115.6" class="st7" width="12.5" height="2.1"/>
			<rect x="127.5" y="110.7" class="st7" width="16" height="2.1"/>
			<rect x="139.3" y="105.8" class="st7" width="7.3" height="2.1"/>
			<path class="st15" d="M148.4,105L148.4,105c1,1,1,2.6,0,3.7l0,0"/>
			<path class="st15" d="M133.4,103.8L133.4,103.8c-1-1-1-2.6,0-3.7l0,0"/>
		</g>
	</g>
	<g>
		<polyline class="st0" points="626.5,59.3 621.3,80.7 644.4,78.8 		"/>
		<circle class="st0" cx="642.6" cy="62.5" r="16.4"/>
		<g>
			<path class="st0" d="M640.7,55.4c-0.3-1.1-1.4-1.7-2.4-1.4"/>
			<path class="st0" d="M644.6,55.4c0.3-1.1,1.4-1.7,2.4-1.4"/>
			<polyline class="st0" points="646.8,61.2 649.9,60.2 649.9,58.1 			"/>
			<polyline class="st0" points="647,66.6 649.9,67.5 649.9,69.6 			"/>
			<polyline class="st0" points="638.5,61.2 635.4,60.2 635.4,58.1 			"/>
			<polyline class="st0" points="638.3,66.6 635.4,67.5 635.4,69.6 			"/>
			<path class="st16" d="M638.9,58.8l-1.3,2.7c-1.8,3.7,0.9,8,5,8h0c4.1,0,6.8-4.3,5-8l-1.3-2.7"/>
			<line class="st0" x1="642.6" y1="58.8" x2="642.6" y2="69.6"/>
			<path class="st17" d="M646.3,58.8H639v-1c0-4.2,7.2-4.2,7.2,0V58.8z"/>
		</g>
	</g>
	<g>
		<path class="st0" d="M71.2,109.7H48.3c-5.1,0-9.3-4.1-9.3-9.3V68.6"/>
		<line class="st0" x1="37.2" y1="66.7" x2="8.4" y2="66.7"/>
		<line class="st0" x1="4.7" y1="66.7" x2="0" y2="66.7"/>
	</g>
	<g>
		<g>
			<g>
				<path class="st2" d="M692.2,84.7V43.4h27.6h11.4H776V76c0,4.8-3.9,8.7-8.7,8.7H692.2z"/>
				<path class="st0" d="M692.2,84.7V43.4H776v32.9c0,4.6-3.8,8.4-8.4,8.4H692.2z"/>
				<g>
					<rect x="734.7" y="53.5" class="st1" width="10.1" height="3.2"/>
					<rect x="734.7" y="60.3" class="st7" width="32.6" height="2.2"/>
					<rect x="710.2" y="28.2" class="st7" width="16.7" height="2.2"/>
					<rect x="729.3" y="28.2" class="st7" width="9" height="2.2"/>
					<rect x="734.7" y="65.8" class="st7" width="32.6" height="2.2"/>
					<path class="st18" d="M739.9,76.6h-3.1c-1.2,0-2.1-0.9-2.1-2.1v-0.2c0-1.2,0.9-2.1,2.1-2.1h3.1c1.2,0,2.1,0.9,2.1,2.1v0.2
						C741.9,75.7,741,76.6,739.9,76.6z"/>
					<path class="st18" d="M760.4,31.5h-6.7c-1.2,0-2.1-0.9-2.1-2.1v-0.2c0-1.2,0.9-2.1,2.1-2.1h6.7c1.2,0,2.1,0.9,2.1,2.1v0.2
						C762.5,30.5,761.6,31.5,760.4,31.5z"/>
					<path class="st18" d="M770.4,31.5h-2c-1.2,0-2.1-0.9-2.1-2.1v-0.2c0-1.2,0.9-2.1,2.1-2.1h2c1.2,0,2.1,0.9,2.1,2.1v0.2
						C772.5,30.5,771.5,31.5,770.4,31.5z"/>
					<path class="st18" d="M760.5,56.7h-3.8c-0.9,0-1.5-0.7-1.5-1.5v-0.1c0-0.9,0.7-1.5,1.5-1.5h3.8c0.9,0,1.5,0.7,1.5,1.5v0.1
						C762.1,56.1,761.4,56.7,760.5,56.7z"/>
					<circle class="st18" cx="765.7" cy="55.1" r="1.6"/>
				</g>
				<rect x="692.2" y="21.3" class="st0" width="83.9" height="15.7"/>
			</g>
			<g>
				<defs>
					<circle id="SVGID_00000145016376194519043210000008941485695515560857_" cx="712.8" cy="64" r="13"/>
				</defs>
				<clipPath id="SVGID_00000081644613220380366250000005480599490839721620_">
					<use xlink:href="#SVGID_00000145016376194519043210000008941485695515560857_"  style="overflow:visible;"/>
				</clipPath>
				
					<g transform="matrix(7.867729e-03 0 0 7.867723e-03 691.7148 50.9179)" style="clip-path:url(#SVGID_00000081644613220380366250000005480599490839721620_);">
					
						<image style="overflow:visible;" width="5364" height="3576" xlink:href="4EA767269CF3B3DC.jpg"  transform="matrix(7.867729e-03 0 0 7.867723e-03 691.7148 50.9179)">
					</image>
				</g>
			</g>
		</g>
		<g>
			<g>
				<circle class="st0" cx="698.3" cy="26.9" r="0.9"/>
				<circle class="st0" cx="698.3" cy="31.6" r="0.9"/>
				<circle class="st0" cx="703.5" cy="31.6" r="0.9"/>
				<line class="st0" x1="698.3" y1="27.9" x2="698.3" y2="30.7"/>
				<path class="st0" d="M700.8,26.9h1.6c0.6,0,1.2,0.5,1.2,1.2v2.6"/>
				<polyline class="st0" points="702.1,25.6 700.8,26.9 702.1,28.3 				"/>
			</g>
		</g>
		<line class="st0" x1="699.2" y1="36.9" x2="699.2" y2="43.4"/>
		<line class="st0" x1="699.2" y1="14.4" x2="699.2" y2="21.3"/>
	</g>
	<circle class="st13" cx="39" cy="66.7" r="3.1"/>
</g>
</svg>
