<svg id="Layer_1" data-name="Layer 1" xmlns="http://www.w3.org/2000/svg" viewBox="0 0 3000 2200"><defs><radialGradient id="New_Gradient_Swatch_14" data-name="New Gradient Swatch 14" cx="2400.91" cy="1155.05" fx="2400.91" fy="1155.05" r="19.45" gradientTransform="translate(-65905.22 -31850.83) scale(28.19)" gradientUnits="userSpaceOnUse"><stop offset="0" stop-color="#cabbdb"/><stop offset=".19" stop-color="#ae96d0"/><stop offset=".38" stop-color="#9979c9"/><stop offset=".57" stop-color="#8a64c3"/><stop offset=".76" stop-color="#8158c0"/><stop offset=".94" stop-color="#7e54bf"/></radialGradient><linearGradient id="New_Gradient_Swatch_12" data-name="New Gradient Swatch 12" x1="-713.03" y1="715.67" x2="383.85" y2="715.67" gradientTransform="matrix(-1 0 0 1 1061.56 0)" gradientUnits="userSpaceOnUse"><stop offset="0" stop-color="#ff8e6a"/><stop offset="1" stop-color="#7e54bf"/></linearGradient><style>.cls-4,.cls-6{opacity:.5}.cls-7{fill:#fff}.cls-10,.cls-11,.cls-6,.cls-9{fill:none;stroke:#a2a1a6;stroke-miterlimit:10}.cls-10,.cls-11,.cls-9{stroke-width:4.63px}.cls-6{stroke-dasharray:25.41 25.41;stroke-width:5.08px}.cls-13{letter-spacing:0}.cls-10,.cls-11{stroke-dasharray:20.51 20.51}</style></defs><path fill="#232150" d="M0 0h3000v2200H0z"/><path d="M1226.15 167.23c302.89 0 548.44 245.54 548.44 548.44 0 302.9-245.54 548.44-548.44 548.44H677.71V715.67c0-302.89 245.54-548.44 548.44-548.44z" fill="url(#New_Gradient_Swatch_12)" opacity=".25"/><path d="M1788.24 167.23c-302.89 0-548.44 245.54-548.44 548.44 0 302.9 245.54 548.44 548.44 548.44h548.44V715.67c0-302.89-245.54-548.44-548.44-548.44z" opacity=".5" fill="url(#New_Gradient_Swatch_14)"/><path class="cls-7" d="M967.53 805.92h77.53c47.53 0 72.88 28.96 72.88 68.45s-25.64 68.43-73.4 68.43h-39.56v69.88h-37.46V805.92zm71.98 106.09c27.86 0 40.28-15.63 40.28-37.64s-12.43-37.16-40.48-37.16h-34.32v74.8h34.52zM1127.5 969.16c0-34.93 28.78-43.92 58.87-47.15 27.36-2.94 38.36-3.43 38.36-13.94v-.61c0-15.23-9.29-23.92-26.25-23.92-17.87 0-28.17 9.08-31.81 19.7l-34.11-4.86c8.07-28.26 33.12-42.81 65.72-42.81 29.57 0 63.01 12.34 63.01 53.32v103.79h-35.15v-21.3h-1.2c-6.66 13.01-21.21 24.42-45.54 24.42-29.57 0-51.89-16.15-51.89-46.63zm97.33-12.13v-18.25c-4.74 3.82-23.92 6.26-33.5 7.57-16.36 2.33-28.58 8.18-28.58 22.21s10.91 20.4 26.14 20.4c22.03 0 35.94-14.64 35.94-31.92zM1292.58 857.61h35.45v25.84h1.6c5.65-17.98 20.49-28.08 38.27-28.08 4.04 0 9.78.41 13.13 1.02v33.62c-3.14-.99-10.8-2.12-16.97-2.12-20.08 0-34.93 13.94-34.93 33.62v91.18h-36.55V857.62zM1491.27 885.87h-30.59v80.16c0 14.75 7.36 17.98 16.56 17.98 4.54 0 8.68-.93 10.69-1.42l6.17 28.58c-3.93 1.31-11.12 3.32-21.51 3.64-27.47.79-48.66-13.53-48.46-42.72v-86.21h-22v-28.26h22v-37.16h36.55v37.16h30.59v28.26zM1558.51 1012.68h-36.55V857.61h34.93v26.34h1.83c7.07-17.26 23.02-28.38 46.22-28.38 32.01 0 53.23 21.21 53.11 58.35v98.75h-36.55v-93.08c0-20.72-11.3-33.12-30.18-33.12s-32.8 12.92-32.8 35.33v90.86zM1683.1 936.04c0-47.85 28.99-80.47 73.4-80.47 38.16 0 70.87 23.92 70.87 78.35v11.21h-108.01c.29 26.55 15.95 42.11 39.56 42.11 15.75 0 27.88-6.87 32.83-19.99l34.11 3.84c-6.46 26.95-31.29 44.62-67.44 44.62-46.74 0-75.32-31-75.32-79.66zm109.23-15.54c-.2-21.1-14.32-36.44-35.33-36.44s-36.44 16.65-37.55 36.44h72.88zM1858.41 857.61h35.45v25.84h1.6c5.65-17.98 20.49-28.08 38.27-28.08 4.04 0 9.78.41 13.13 1.02v33.62c-3.14-.99-10.8-2.12-16.97-2.12-20.08 0-34.93 13.94-34.93 33.62v91.18h-36.55V857.62zM1183.7 555.75l-.3-.79-29.93-78.08a7.738 7.738 0 00-3.07-3.71 7.919 7.919 0 00-4.69-1.23c-1.65.09-3.24.69-4.53 1.72a7.912 7.912 0 00-2.65 4.03l-20.21 61.84h-81.75l-20.21-61.84a7.85 7.85 0 00-2.65-4.03 7.964 7.964 0 00-4.53-1.72 7.83 7.83 0 00-4.69 1.23c-1.4.89-2.48 2.18-3.07 3.71l-29.93 78.08-.3.78c-8.87 23.13-1.31 49.28 18.43 64.21.04.02.07.05.11.08l.26.2 45.58 34.12 22.55 17.07 13.72 10.37a9.27 9.27 0 0011.18 0l13.72-10.37 22.54-17.07 45.85-34.32.12-.09c19.73-14.93 27.28-41.07 18.42-64.2zM1362.93 551.71h32.15c-5.36-34.19-34.96-58.01-73.49-58.01-45.59 0-79.78 33.51-79.78 89.65s32.66 89.31 80.72 89.31c43.12 0 74-27.73 74-72.64V579.1h-70.68v24.67H1366c-.51 24.84-17.1 40.57-43.29 40.57-29.17 0-49.16-21.86-49.16-61.32s20.33-60.98 48.48-60.98c21.01 0 35.3 11.23 40.91 29.68zM1417.77 670.28h30.79V539.64h-30.79v130.64zm15.49-151.33c9.78 0 17.78-7.48 17.78-16.67s-7.99-16.76-17.78-16.76-17.86 7.48-17.86 16.76 8 16.67 17.86 16.67zM1540.76 539.63h-25.77v-31.3h-30.79v31.3h-18.54v23.82h18.54v72.64c-.17 24.58 17.69 36.66 40.83 35.98 8.76-.25 14.8-1.96 18.12-3.06l-5.19-24.07c-1.7.43-5.19 1.19-9.02 1.19-7.74 0-13.95-2.72-13.95-15.14v-67.53h25.77v-23.82zM1564.59 670.28h108.28v-26.45h-76.72V496.09h-31.56v174.19zM1731.84 672.91c20.5 0 32.75-9.61 38.36-20.58h1.02v17.95h29.6v-87.44c0-34.53-28.15-44.91-53.07-44.91-27.47 0-48.57 12.25-55.37 36.06l28.75 4.08c3.06-8.93 11.74-16.59 26.79-16.59s22.12 7.31 22.12 20.16v.51c0 8.85-9.27 9.27-32.32 11.74-25.35 2.72-49.59 10.29-49.59 39.72 0 25.69 18.8 39.3 43.72 39.3zm10.12-22.62c-12.84 0-22.03-5.87-22.03-17.18s10.29-16.76 24.07-18.71c8.08-1.11 24.24-3.15 28.24-6.38v15.39c0 14.54-11.74 26.88-30.28 26.88zM1823.53 670.28h30.28V649.7h1.79c4.85 9.53 14.97 22.88 37.43 22.88 30.79 0 53.84-24.41 53.84-67.45s-23.73-67.19-53.92-67.19c-23.05 0-32.66 13.86-37.34 23.3h-1.27v-65.15h-30.79v174.19zm30.19-65.32c0-25.35 10.89-41.76 30.7-41.76s31.05 17.44 31.05 41.76-10.72 42.36-31.05 42.36-30.7-17.01-30.7-42.36z"/><path class="cls-6" d="M2336.67 1012.68H537.61M677.72 167.24v1865.53M2336.67 167.24v1865.53M2336.67 1389.67H537.61M2336.67 1263.99H537.61"/><g class="cls-4"><path class="cls-9" d="M2462.39 1149.83v-11.58h-11.58"/><path class="cls-10" d="M2430.3 1138.25h-71.79"/><path class="cls-9" d="M2348.25 1138.25h-11.58v11.58"/><path class="cls-11" d="M2336.67 1170.34v71.79"/><path class="cls-9" d="M2336.67 1252.39v11.57h11.58"/><path class="cls-10" d="M2368.76 1263.96h71.79"/><path class="cls-9" d="M2450.81 1263.96h11.58v-11.57"/><path class="cls-11" d="M2462.39 1231.87v-71.79"/></g><g class="cls-4"><path class="cls-9" d="M2462.39 1275.54v-11.58h-11.58"/><path class="cls-10" d="M2430.3 1263.96h-71.79"/><path class="cls-9" d="M2348.25 1263.96h-11.58v11.58"/><path class="cls-11" d="M2336.67 1296.05v71.79"/><path class="cls-9" d="M2336.67 1378.1v11.57h11.58"/><path class="cls-10" d="M2368.76 1389.67h71.79"/><path class="cls-9" d="M2450.81 1389.67h11.58v-11.57"/><path class="cls-11" d="M2462.39 1357.59v-71.8"/></g><g class="cls-4"><path class="cls-9" d="M2462.39 1024.25v-11.57h-11.58"/><path class="cls-10" d="M2430.3 1012.68h-71.79"/><path class="cls-9" d="M2348.25 1012.68h-11.58v11.57"/><path class="cls-11" d="M2336.67 1044.76v71.8"/><path class="cls-9" d="M2336.67 1126.81v11.58h11.58"/><path class="cls-10" d="M2368.76 1138.39h71.79"/><path class="cls-9" d="M2450.81 1138.39h11.58v-11.58"/><path class="cls-11" d="M2462.39 1106.3v-71.79"/></g><path fill="#a2a1a6" opacity=".5" d="M677.72 1389.59h1658.96v563.9H677.72z"/><text transform="translate(746.58 1733.94)" style="font-variation-settings:'opsz' 28,'wght' 400" font-family="GitLabSans,'GitLab Sans'" font-size="150" fill="#fff"><tspan x="0" y="0">Place </tspan><tspan x="400.2" y="0" letter-spacing="-.02em">P</tspan><tspan x="488.31" y="0">a</tspan><tspan x="565.94" y="0" letter-spacing=".02em">r</tspan><tspan x="616.63" y="0">tner </tspan><tspan class="cls-13" x="911.57" y="0">l</tspan><tspan x="944.53" y="0">ogo he</tspan><tspan class="cls-13" x="1393.95" y="0">r</tspan><tspan x="1440.82" y="0">e</tspan></text></svg>