<svg id="Layer_1" data-name="Layer 1" xmlns="http://www.w3.org/2000/svg" xmlns:xlink="http://www.w3.org/1999/xlink" viewBox="0 0 3000 600"><defs><radialGradient id="New_Gradient_Swatch_14" data-name="New Gradient Swatch 14" cx="501.35" cy="300" fx="501.35" fy="300" r="175.05" gradientUnits="userSpaceOnUse"><stop offset="0" stop-color="#cabbdb"/><stop offset=".19" stop-color="#ae96d0"/><stop offset=".38" stop-color="#9979c9"/><stop offset=".57" stop-color="#8a64c3"/><stop offset=".76" stop-color="#8158c0"/><stop offset=".94" stop-color="#7e54bf"/></radialGradient><radialGradient id="New_Gradient_Swatch_14-2" data-name="New Gradient Swatch 14" cx="2001.35" fx="2001.35" r="175.05" xlink:href="#New_Gradient_Swatch_14"/><linearGradient id="New_Gradient_Swatch_12" data-name="New Gradient Swatch 12" x1="564.57" y1="300" x2="914.66" y2="300" gradientTransform="matrix(-1 0 0 1 1061.56 0)" gradientUnits="userSpaceOnUse"><stop offset="0" stop-color="#ff8e6a"/><stop offset="1" stop-color="#7e54bf"/></linearGradient><linearGradient id="New_Gradient_Swatch_12-2" data-name="New Gradient Swatch 12" x1="-935.43" y1="300" x2="-585.34" y2="300" xlink:href="#New_Gradient_Swatch_12"/><style>.cls-5,.cls-6{font-family:GitLabSans,&apos;GitLab Sans&apos;;font-size:30px;font-variation-settings:&apos;opsz&apos; 28,&apos;wght&apos; 400}.cls-5,.cls-7{fill:#171321}.cls-6,.cls-8{fill:#fff}.cls-9{fill:#7759c2}.cls-10{letter-spacing:-.02em}.cls-11{letter-spacing:-.03em}.cls-12,.cls-13{letter-spacing:0}</style></defs><path class="cls-7" d="M0 0h1500v600H0z"/><path class="cls-7" d="M501.35 124.95c-32.83 0-63.44 9.21-89.7 24.93-26.26-15.73-56.87-24.93-89.7-24.93-96.68 0-175.05 78.37-175.05 175.04v175.05h175.05c32.83 0 63.44-9.21 89.7-24.93 26.26 15.73 56.87 24.93 89.7 24.93H676.4V299.99c0-96.67-78.37-175.05-175.05-175.05z"/><path d="M321.95 124.95C418.63 124.95 497 203.32 497 300s-78.37 175.05-175.05 175.05H146.9V300c0-96.67 78.37-175.05 175.05-175.05z" opacity=".25" fill="url(#New_Gradient_Swatch_12)"/><path d="M501.35 124.95c-96.68 0-175.05 78.37-175.05 175.05s78.37 175.05 175.05 175.05H676.4V300c0-96.68-78.37-175.05-175.05-175.05z" opacity=".5" fill="url(#New_Gradient_Swatch_14)"/><path class="cls-8" d="M255.37 328.8h24.75c15.17 0 23.26 9.24 23.26 21.85s-8.18 21.84-23.43 21.84h-12.63v22.3h-11.96V328.8zm22.97 33.86c8.89 0 12.86-4.99 12.86-12.01s-3.97-11.86-12.92-11.86h-10.95v23.87h11.02zM306.42 380.91c0-11.15 9.19-14.02 18.79-15.05 8.73-.94 12.24-1.1 12.24-4.45v-.19c0-4.86-2.96-7.64-8.38-7.64-5.7 0-8.99 2.9-10.15 6.29l-10.89-1.55c2.57-9.02 10.57-13.66 20.98-13.66 9.44 0 20.11 3.94 20.11 17.02v33.13H337.9v-6.8h-.38c-2.13 4.15-6.77 7.79-14.54 7.79-9.44 0-16.56-5.16-16.56-14.88zm31.07-3.87v-5.83c-1.51 1.22-7.64 2-10.69 2.42-5.22.74-9.12 2.61-9.12 7.09s3.48 6.51 8.34 6.51c7.03 0 11.47-4.67 11.47-10.19zM359.11 345.3h11.31v8.25h.51c1.8-5.74 6.54-8.96 12.21-8.96 1.29 0 3.12.13 4.19.32v10.73c-1-.32-3.45-.68-5.42-.68-6.41 0-11.15 4.45-11.15 10.73v29.1h-11.67V345.3zM422.53 354.32h-9.76v25.58c0 4.71 2.35 5.74 5.29 5.74 1.45 0 2.77-.3 3.41-.45l1.97 9.12c-1.25.42-3.55 1.06-6.86 1.16-8.77.25-15.53-4.32-15.47-13.64v-27.52h-7.02v-9.02h7.02v-11.86h11.67v11.86h9.76v9.02zM443.99 394.79h-11.67V345.3h11.15v8.41h.58c2.26-5.51 7.35-9.06 14.75-9.06 10.22 0 16.99 6.77 16.95 18.62v31.52h-11.67v-29.71c0-6.61-3.61-10.57-9.63-10.57s-10.47 4.12-10.47 11.28v29zM483.75 370.34c0-15.27 9.25-25.68 23.43-25.68 12.18 0 22.62 7.64 22.62 25.01v3.58h-34.47c.09 8.47 5.09 13.44 12.63 13.44 5.03 0 8.9-2.19 10.48-6.38l10.89 1.23c-2.06 8.6-9.99 14.24-21.52 14.24-14.92 0-24.04-9.89-24.04-25.42zm34.87-4.96c-.06-6.73-4.57-11.63-11.28-11.63s-11.63 5.31-11.98 11.63h23.26zM539.71 345.3h11.31v8.25h.51c1.8-5.74 6.54-8.96 12.21-8.96 1.29 0 3.12.13 4.19.32v10.73c-1-.32-3.45-.68-5.42-.68-6.41 0-11.15 4.45-11.15 10.73v29.1h-11.67V345.3z"/><g><path class="cls-8" d="M324.36 248.96l-.1-.25-9.55-24.92c-.19-.49-.53-.9-.98-1.18a2.49 2.49 0 00-1.5-.39c-.53.03-1.03.22-1.45.55-.41.33-.71.78-.84 1.29l-6.45 19.74H277.4l-6.45-19.74c-.14-.51-.43-.95-.84-1.29-.41-.33-.92-.52-1.45-.55-.53-.03-1.05.11-1.5.39-.45.28-.79.7-.98 1.18l-9.55 24.92-.1.25c-2.83 7.38-.42 15.73 5.88 20.49.01 0 .02.02.03.03l.08.06 14.55 10.89 7.2 5.45 4.38 3.31c1.05.8 2.51.8 3.57 0l4.38-3.31 7.19-5.45 14.63-10.96s.03-.02.04-.03c6.3-4.77 8.71-13.11 5.88-20.49zM381.57 247.67h10.26c-1.71-10.91-11.16-18.51-23.46-18.51-14.55 0-25.46 10.7-25.46 28.61s10.42 28.5 25.76 28.5c13.76 0 23.62-8.85 23.62-23.18v-6.68h-22.56v7.87h12.81c-.16 7.93-5.46 12.95-13.82 12.95-9.31 0-15.69-6.98-15.69-19.57s6.49-19.46 15.47-19.46c6.71 0 11.27 3.58 13.06 9.47zM399.07 285.51h9.83v-41.7h-9.83v41.7zm4.94-48.3c3.12 0 5.67-2.39 5.67-5.32s-2.55-5.35-5.67-5.35-5.7 2.39-5.7 5.35 2.55 5.32 5.7 5.32zM438.32 243.81h-8.23v-9.99h-9.83v9.99h-5.92v7.6h5.92v23.18c-.05 7.85 5.65 11.7 13.03 11.48 2.8-.08 4.72-.62 5.78-.98l-1.66-7.68c-.54.14-1.66.38-2.88.38-2.47 0-4.45-.87-4.45-4.83v-21.55h8.23v-7.6zM445.93 285.51h34.56v-8.44H456v-47.15h-10.07v55.6zM499.31 286.35c6.54 0 10.45-3.07 12.24-6.57h.33v5.73h9.45V257.6c0-11.02-8.99-14.33-16.94-14.33-8.77 0-15.5 3.91-17.67 11.51l9.18 1.3c.98-2.85 3.75-5.29 8.55-5.29s7.06 2.33 7.06 6.43v.16c0 2.82-2.96 2.96-10.32 3.75-8.09.87-15.83 3.28-15.83 12.68 0 8.2 6 12.54 13.95 12.54zm3.23-7.22c-4.1 0-7.03-1.87-7.03-5.48s3.29-5.35 7.68-5.97c2.58-.35 7.74-1 9.01-2.04v4.91c0 4.64-3.75 8.58-9.66 8.58zM528.58 285.51h9.66v-6.57h.57c1.55 3.04 4.78 7.3 11.95 7.3 9.83 0 17.18-7.79 17.18-21.53s-7.57-21.45-17.21-21.45c-7.36 0-10.42 4.42-11.92 7.44h-.41v-20.79h-9.83v55.6zm9.63-20.85c0-8.09 3.47-13.33 9.8-13.33s9.91 5.57 9.91 13.33-3.42 13.52-9.91 13.52-9.8-5.43-9.8-13.52z"/></g><g><path class="cls-8" d="M1178.05 124.95c-32.83 0-63.44 9.21-89.7 24.93-26.26-15.73-56.87-24.93-89.7-24.93-96.68 0-175.05 78.37-175.05 175.05v175.05h175.05c32.83 0 63.44-9.21 89.7-24.93 26.26 15.73 56.87 24.93 89.7 24.93h175.05V300c0-96.68-78.37-175.05-175.05-175.05z"/><path class="cls-7" d="M932.06 328.8h24.75c15.17 0 23.26 9.24 23.26 21.85s-8.18 21.84-23.43 21.84h-12.63v22.3h-11.96V328.8zm22.98 33.86c8.89 0 12.86-4.99 12.86-12.01s-3.97-11.86-12.92-11.86h-10.95v23.87h11.02zM983.12 380.91c0-11.15 9.19-14.02 18.79-15.05 8.73-.94 12.24-1.1 12.24-4.45v-.19c0-4.86-2.96-7.64-8.38-7.64-5.7 0-8.99 2.9-10.15 6.29l-10.89-1.55c2.57-9.02 10.57-13.66 20.98-13.66 9.44 0 20.11 3.94 20.11 17.02v33.13h-11.22v-6.8h-.38c-2.13 4.15-6.77 7.79-14.54 7.79-9.44 0-16.56-5.16-16.56-14.88zm31.06-3.87v-5.83c-1.51 1.22-7.64 2-10.69 2.42-5.22.74-9.12 2.61-9.12 7.09s3.48 6.51 8.34 6.51c7.03 0 11.47-4.67 11.47-10.19zM1035.81 345.3h11.31v8.25h.51c1.8-5.74 6.54-8.96 12.21-8.96 1.29 0 3.12.13 4.19.32v10.73c-1-.32-3.45-.68-5.42-.68-6.41 0-11.15 4.45-11.15 10.73v29.1h-11.67V345.3zM1099.23 354.32h-9.76v25.58c0 4.71 2.35 5.74 5.29 5.74 1.45 0 2.77-.3 3.41-.45l1.97 9.12c-1.25.42-3.55 1.06-6.86 1.16-8.77.25-15.53-4.32-15.47-13.64v-27.52h-7.02v-9.02h7.02v-11.86h11.67v11.86h9.76v9.02zM1120.68 394.79h-11.67V345.3h11.15v8.41h.58c2.26-5.51 7.35-9.06 14.75-9.06 10.22 0 16.99 6.77 16.95 18.62v31.52h-11.67v-29.71c0-6.61-3.61-10.57-9.63-10.57s-10.47 4.12-10.47 11.28v29zM1160.45 370.34c0-15.27 9.25-25.68 23.43-25.68 12.18 0 22.62 7.64 22.62 25.01v3.58h-34.47c.09 8.47 5.09 13.44 12.63 13.44 5.03 0 8.9-2.19 10.48-6.38l10.89 1.23c-2.06 8.6-9.99 14.24-21.52 14.24-14.92 0-24.04-9.89-24.04-25.42zm34.86-4.96c-.06-6.73-4.57-11.63-11.28-11.63s-11.63 5.31-11.98 11.63h23.26zM1216.4 345.3h11.31v8.25h.51c1.8-5.74 6.54-8.96 12.21-8.96 1.29 0 3.12.13 4.19.32v10.73c-1-.32-3.45-.68-5.42-.68-6.41 0-11.15 4.45-11.15 10.73v29.1h-11.67V345.3z"/><g><path class="cls-7" d="M1001.06 248.96l-.1-.25-9.55-24.92c-.19-.49-.53-.9-.98-1.18a2.49 2.49 0 00-1.5-.39c-.53.03-1.03.22-1.45.55-.41.33-.71.78-.84 1.29l-6.45 19.74H954.1l-6.45-19.74c-.14-.51-.43-.95-.84-1.29-.41-.33-.92-.52-1.45-.55-.53-.03-1.05.11-1.5.39-.45.28-.79.7-.98 1.18l-9.55 24.92-.1.25c-2.83 7.38-.42 15.73 5.88 20.49.01 0 .02.02.03.03l.08.06 14.55 10.89 7.2 5.45 4.38 3.31c1.05.8 2.51.8 3.57 0l4.38-3.31 7.19-5.45 14.63-10.96s.03-.02.04-.03c6.3-4.77 8.71-13.11 5.88-20.49zM1058.26 247.67h10.26c-1.71-10.91-11.16-18.51-23.46-18.51-14.55 0-25.46 10.7-25.46 28.61s10.42 28.5 25.76 28.5c13.76 0 23.62-8.85 23.62-23.18v-6.68h-22.56v7.87h12.81c-.16 7.93-5.46 12.95-13.82 12.95-9.31 0-15.69-6.98-15.69-19.57s6.49-19.46 15.47-19.46c6.71 0 11.27 3.58 13.06 9.47zM1075.77 285.51h9.83v-41.7h-9.83v41.7zm4.94-48.3c3.12 0 5.67-2.39 5.67-5.32s-2.55-5.35-5.67-5.35-5.7 2.39-5.7 5.35 2.55 5.32 5.7 5.32zM1115.02 243.81h-8.23v-9.99h-9.83v9.99h-5.92v7.6h5.92v23.18c-.05 7.85 5.65 11.7 13.03 11.48 2.8-.08 4.72-.62 5.78-.98l-1.66-7.68c-.54.14-1.66.38-2.88.38-2.47 0-4.45-.87-4.45-4.83v-21.55h8.23v-7.6zM1122.63 285.51h34.56v-8.44h-24.49v-47.15h-10.07v55.6zM1176.01 286.35c6.54 0 10.45-3.07 12.24-6.57h.33v5.73h9.45V257.6c0-11.02-8.99-14.33-16.94-14.33-8.77 0-15.5 3.91-17.67 11.51l9.18 1.3c.98-2.85 3.75-5.29 8.55-5.29s7.06 2.33 7.06 6.43v.16c0 2.82-2.96 2.96-10.32 3.75-8.09.87-15.83 3.28-15.83 12.68 0 8.2 6 12.54 13.95 12.54zm3.23-7.22c-4.1 0-7.03-1.87-7.03-5.48s3.29-5.35 7.68-5.97c2.58-.35 7.74-1 9.01-2.04v4.91c0 4.64-3.75 8.58-9.66 8.58zM1205.27 285.51h9.66v-6.57h.57c1.55 3.04 4.78 7.3 11.95 7.3 9.83 0 17.18-7.79 17.18-21.53s-7.57-21.45-17.21-21.45c-7.36 0-10.42 4.42-11.92 7.44h-.41v-20.79h-9.83v55.6zm9.64-20.85c0-8.09 3.47-13.33 9.8-13.33s9.91 5.57 9.91 13.33-3.42 13.52-9.91 13.52-9.8-5.43-9.8-13.52z"/></g></g><g><path class="cls-9" d="M2001.35 124.95c-32.83 0-63.44 9.21-89.7 24.93-26.26-15.73-56.87-24.93-89.7-24.93-96.68 0-175.05 78.37-175.05 175.04v175.05h175.05c32.83 0 63.44-9.21 89.7-24.93 26.26 15.73 56.87 24.93 89.7 24.93h175.05V299.99c0-96.67-78.37-175.05-175.05-175.05z"/><path d="M1821.95 124.95c96.68 0 175.05 78.37 175.05 175.05s-78.37 175.05-175.05 175.05H1646.9V300c0-96.67 78.37-175.05 175.05-175.05z" fill="url(#New_Gradient_Swatch_12-2)" opacity=".25"/><path d="M2001.35 124.95c-96.68 0-175.05 78.37-175.05 175.05s78.37 175.05 175.05 175.05h175.05V300c0-96.68-78.37-175.05-175.05-175.05z" fill="url(#New_Gradient_Swatch_14-2)" opacity=".5"/><g><path class="cls-8" d="M1755.37 328.8h24.75c15.17 0 23.26 9.24 23.26 21.85s-8.18 21.84-23.43 21.84h-12.63v22.3h-11.96V328.8zm22.97 33.86c8.89 0 12.86-4.99 12.86-12.01s-3.97-11.86-12.92-11.86h-10.95v23.87h11.02zM1806.42 380.91c0-11.15 9.19-14.02 18.79-15.05 8.73-.94 12.24-1.1 12.24-4.45v-.19c0-4.86-2.96-7.64-8.38-7.64-5.7 0-8.99 2.9-10.15 6.29l-10.89-1.55c2.57-9.02 10.57-13.66 20.98-13.66 9.44 0 20.11 3.94 20.11 17.02v33.13h-11.22v-6.8h-.38c-2.13 4.15-6.77 7.79-14.54 7.79-9.44 0-16.56-5.16-16.56-14.88zm31.07-3.87v-5.83c-1.51 1.22-7.64 2-10.69 2.42-5.22.74-9.12 2.61-9.12 7.09s3.48 6.51 8.34 6.51c7.03 0 11.47-4.67 11.47-10.19zM1859.11 345.3h11.31v8.25h.51c1.8-5.74 6.54-8.96 12.21-8.96 1.29 0 3.12.13 4.19.32v10.73c-1-.32-3.45-.68-5.42-.68-6.41 0-11.15 4.45-11.15 10.73v29.1h-11.67V345.3zM1922.53 354.32h-9.76v25.58c0 4.71 2.35 5.74 5.29 5.74 1.45 0 2.77-.3 3.41-.45l1.97 9.12c-1.25.42-3.55 1.06-6.86 1.16-8.77.25-15.53-4.32-15.47-13.64v-27.52h-7.02v-9.02h7.02v-11.86h11.67v11.86h9.76v9.02zM1943.99 394.79h-11.67V345.3h11.15v8.41h.58c2.26-5.51 7.35-9.06 14.75-9.06 10.22 0 16.99 6.77 16.95 18.62v31.52h-11.67v-29.71c0-6.61-3.61-10.57-9.63-10.57s-10.47 4.12-10.47 11.28v29zM1983.75 370.34c0-15.27 9.25-25.68 23.43-25.68 12.18 0 22.62 7.64 22.62 25.01v3.58h-34.47c.09 8.47 5.09 13.44 12.63 13.44 5.03 0 8.9-2.19 10.48-6.38l10.89 1.23c-2.06 8.6-9.99 14.24-21.52 14.24-14.92 0-24.04-9.89-24.04-25.42zm34.87-4.96c-.06-6.73-4.57-11.63-11.28-11.63s-11.63 5.31-11.98 11.63h23.26zM2039.71 345.3h11.31v8.25h.51c1.8-5.74 6.54-8.96 12.21-8.96 1.29 0 3.12.13 4.19.32v10.73c-1-.32-3.45-.68-5.42-.68-6.41 0-11.15 4.45-11.15 10.73v29.1h-11.67V345.3z"/><g><path class="cls-8" d="M1824.36 248.96l-.1-.25-9.55-24.92c-.19-.49-.53-.9-.98-1.18a2.49 2.49 0 00-1.5-.39c-.53.03-1.03.22-1.45.55-.41.33-.71.78-.84 1.29l-6.45 19.74h-26.09l-6.45-19.74c-.14-.51-.43-.95-.84-1.29-.41-.33-.92-.52-1.45-.55-.53-.03-1.05.11-1.5.39-.45.28-.79.7-.98 1.18l-9.55 24.92-.1.25c-2.83 7.38-.42 15.73 5.88 20.49.01 0 .02.02.03.03l.08.06 14.55 10.89 7.2 5.45 4.38 3.31c1.05.8 2.51.8 3.57 0l4.38-3.31 7.19-5.45 14.63-10.96s.03-.02.04-.03c6.3-4.77 8.71-13.11 5.88-20.49zM1881.57 247.67h10.26c-1.71-10.91-11.16-18.51-23.46-18.51-14.55 0-25.46 10.7-25.46 28.61s10.42 28.5 25.76 28.5c13.76 0 23.62-8.85 23.62-23.18v-6.68h-22.56v7.87h12.81c-.16 7.93-5.46 12.95-13.82 12.95-9.31 0-15.69-6.98-15.69-19.57s6.49-19.46 15.47-19.46c6.71 0 11.27 3.58 13.06 9.47zM1899.07 285.51h9.83v-41.7h-9.83v41.7zm4.94-48.3c3.12 0 5.67-2.39 5.67-5.32s-2.55-5.35-5.67-5.35-5.7 2.39-5.7 5.35 2.55 5.32 5.7 5.32zM1938.32 243.81h-8.23v-9.99h-9.83v9.99h-5.92v7.6h5.92v23.18c-.05 7.85 5.65 11.7 13.03 11.48 2.8-.08 4.72-.62 5.78-.98l-1.66-7.68c-.54.14-1.66.38-2.88.38-2.47 0-4.45-.87-4.45-4.83v-21.55h8.23v-7.6zM1945.93 285.51h34.56v-8.44H1956v-47.15h-10.07v55.6zM1999.31 286.35c6.54 0 10.45-3.07 12.24-6.57h.33v5.73h9.45V257.6c0-11.02-8.99-14.33-16.94-14.33-8.77 0-15.5 3.91-17.67 11.51l9.18 1.3c.98-2.85 3.75-5.29 8.55-5.29s7.06 2.33 7.06 6.43v.16c0 2.82-2.96 2.96-10.32 3.75-8.09.87-15.83 3.28-15.83 12.68 0 8.2 6 12.54 13.95 12.54zm3.23-7.22c-4.1 0-7.03-1.87-7.03-5.48s3.29-5.35 7.68-5.97c2.58-.35 7.74-1 9.01-2.04v4.91c0 4.64-3.75 8.58-9.66 8.58zM2028.58 285.51h9.66v-6.57h.57c1.55 3.04 4.78 7.3 11.95 7.3 9.83 0 17.18-7.79 17.18-21.53s-7.57-21.45-17.21-21.45c-7.36 0-10.42 4.42-11.92 7.44h-.41v-20.79h-9.83v55.6zm9.63-20.85c0-8.09 3.47-13.33 9.8-13.33s9.91 5.57 9.91 13.33-3.42 13.52-9.91 13.52-9.8-5.43-9.8-13.52z"/></g></g></g><g><path class="cls-9" d="M2678.11 123.68c-32.83 0-63.44 9.21-89.7 24.93-26.26-15.73-56.87-24.93-89.7-24.93-96.68 0-175.05 78.37-175.05 175.04v175.05h175.05c32.83 0 63.44-9.21 89.7-24.93 26.26 15.73 56.87 24.93 89.7 24.93h175.05V298.72c0-96.67-78.37-175.05-175.05-175.05z"/><path class="cls-8" d="M2432.12 327.52h24.75c15.17 0 23.26 9.24 23.26 21.85s-8.18 21.84-23.43 21.84h-12.63v22.3h-11.96v-65.99zm22.98 33.87c8.89 0 12.86-4.99 12.86-12.01s-3.97-11.86-12.92-11.86h-10.95v23.87h11.02zM2483.18 379.63c0-11.15 9.19-14.02 18.79-15.05 8.73-.94 12.24-1.1 12.24-4.45v-.19c0-4.86-2.96-7.64-8.38-7.64-5.7 0-8.99 2.9-10.15 6.29l-10.89-1.55c2.57-9.02 10.57-13.66 20.98-13.66 9.44 0 20.11 3.94 20.11 17.02v33.13h-11.22v-6.8h-.38c-2.13 4.15-6.77 7.79-14.54 7.79-9.44 0-16.56-5.16-16.56-14.88zm31.06-3.87v-5.83c-1.51 1.22-7.64 2-10.69 2.42-5.22.74-9.12 2.61-9.12 7.09s3.48 6.51 8.34 6.51c7.03 0 11.47-4.67 11.47-10.19zM2535.87 344.02h11.31v8.25h.51c1.8-5.74 6.54-8.96 12.21-8.96 1.29 0 3.12.13 4.19.32v10.73c-1-.32-3.45-.68-5.42-.68-6.41 0-11.15 4.45-11.15 10.73v29.1h-11.67v-49.49zM2599.29 353.04h-9.76v25.58c0 4.71 2.35 5.74 5.29 5.74 1.45 0 2.77-.3 3.41-.45l1.97 9.12c-1.25.42-3.55 1.06-6.86 1.16-8.77.25-15.53-4.32-15.47-13.64v-27.52h-7.02v-9.02h7.02v-11.86h11.67v11.86h9.76v9.02zM2620.75 393.52h-11.67v-49.49h11.15v8.41h.58c2.26-5.51 7.35-9.06 14.75-9.06 10.22 0 16.99 6.77 16.95 18.62v31.52h-11.67v-29.71c0-6.61-3.61-10.57-9.63-10.57s-10.47 4.12-10.47 11.28v29zM2660.51 369.06c0-15.27 9.25-25.68 23.43-25.68 12.18 0 22.62 7.64 22.62 25.01v3.58h-34.47c.09 8.47 5.09 13.44 12.63 13.44 5.03 0 8.9-2.19 10.48-6.38l10.89 1.23c-2.06 8.6-9.99 14.24-21.52 14.24-14.92 0-24.04-9.89-24.04-25.42zm34.86-4.96c-.06-6.73-4.57-11.63-11.28-11.63s-11.63 5.31-11.98 11.63h23.26zM2716.47 344.02h11.31v8.25h.51c1.8-5.74 6.54-8.96 12.21-8.96 1.29 0 3.12.13 4.19.32v10.73c-1-.32-3.45-.68-5.42-.68-6.41 0-11.15 4.45-11.15 10.73v29.1h-11.67v-49.49z"/><g><path class="cls-8" d="M2501.12 247.68l-.1-.25-9.55-24.92c-.19-.49-.53-.9-.98-1.18a2.49 2.49 0 00-1.5-.39c-.53.03-1.03.22-1.45.55-.41.33-.71.78-.84 1.29l-6.45 19.74h-26.09l-6.45-19.74c-.14-.51-.43-.95-.84-1.29-.41-.33-.92-.52-1.45-.55-.53-.03-1.05.11-1.5.39-.45.28-.79.7-.98 1.18l-9.55 24.92-.1.25c-2.83 7.38-.42 15.73 5.88 20.49.01 0 .02.02.03.03l.08.06 14.55 10.89 7.2 5.45 4.38 3.31c1.05.8 2.51.8 3.57 0l4.38-3.31 7.19-5.45 14.63-10.96s.03-.02.04-.03c6.3-4.77 8.71-13.11 5.88-20.49zM2558.32 246.39h10.26c-1.71-10.91-11.16-18.51-23.46-18.51-14.55 0-25.46 10.7-25.46 28.61s10.42 28.5 25.76 28.5c13.76 0 23.62-8.85 23.62-23.18v-6.68h-22.56V263h12.81c-.16 7.93-5.46 12.95-13.82 12.95-9.31 0-15.69-6.98-15.69-19.57s6.49-19.46 15.47-19.46c6.71 0 11.27 3.58 13.06 9.47zM2575.83 284.23h9.83v-41.7h-9.83v41.7zm4.94-48.3c3.12 0 5.67-2.39 5.67-5.32s-2.55-5.35-5.67-5.35-5.7 2.39-5.7 5.35 2.55 5.32 5.7 5.32zM2615.08 242.53h-8.23v-9.99h-9.83v9.99h-5.92v7.6h5.92v23.18c-.05 7.85 5.65 11.7 13.03 11.48 2.8-.08 4.72-.62 5.78-.98l-1.66-7.68c-.54.14-1.66.38-2.88.38-2.47 0-4.45-.87-4.45-4.83v-21.55h8.23v-7.6zM2622.69 284.23h34.56v-8.44h-24.49v-47.15h-10.07v55.6zM2676.07 285.07c6.54 0 10.45-3.07 12.24-6.57h.33v5.73h9.45v-27.91c0-11.02-8.99-14.33-16.94-14.33-8.77 0-15.5 3.91-17.67 11.51l9.18 1.3c.98-2.85 3.75-5.29 8.55-5.29s7.06 2.33 7.06 6.43v.16c0 2.82-2.96 2.96-10.32 3.75-8.09.87-15.83 3.28-15.83 12.68 0 8.2 6 12.54 13.95 12.54zm3.23-7.22c-4.1 0-7.03-1.87-7.03-5.48s3.29-5.35 7.68-5.97c2.58-.35 7.74-1 9.01-2.04v4.91c0 4.64-3.75 8.58-9.66 8.58zM2705.33 284.23h9.66v-6.57h.57c1.55 3.04 4.78 7.3 11.95 7.3 9.83 0 17.18-7.79 17.18-21.53s-7.57-21.45-17.21-21.45c-7.36 0-10.42 4.42-11.92 7.44h-.41v-20.79h-9.83v55.6zm9.64-20.85c0-8.09 3.47-13.33 9.8-13.33s9.91 5.57 9.91 13.33-3.42 13.52-9.91 13.52-9.8-5.43-9.8-13.52z"/></g></g><text class="cls-6" transform="translate(352.57 557.33)"><tspan class="cls-11" x="0" y="0">F</tspan><tspan x="15.62" y="0">ull co</tspan><tspan class="cls-12" x="85.44" y="0">l</tspan><tspan x="92.04" y="0">or</tspan></text><text class="cls-6" transform="translate(637.98 64.77)"><tspan x="0" y="0">Dark </tspan><tspan class="cls-13" x="68.6" y="0">b</tspan><tspan x="85.71" y="0">ac</tspan><tspan class="cls-10" x="116.92" y="0">k</tspan><tspan x="131.47" y="0">g</tspan><tspan class="cls-12" x="148.43" y="0">r</tspan><tspan x="157.81" y="0">ound</tspan></text><text class="cls-5" transform="translate(2136.06 64.77)"><tspan x="0" y="0">Light </tspan><tspan class="cls-13" x="72.44" y="0">b</tspan><tspan x="89.55" y="0">ac</tspan><tspan class="cls-10" x="120.76" y="0">k</tspan><tspan x="135.31" y="0">g</tspan><tspan class="cls-12" x="152.27" y="0">r</tspan><tspan x="161.65" y="0">ound</tspan></text><text class="cls-6" transform="translate(1046.72 557.33)"><tspan x="0" y="0">1 co</tspan><tspan class="cls-12" x="50.52" y="0">l</tspan><tspan x="57.11" y="0">or</tspan></text><text class="cls-5" transform="translate(1852.57 557.33)"><tspan class="cls-11" x="0" y="0">F</tspan><tspan x="15.62" y="0">ull co</tspan><tspan class="cls-12" x="85.44" y="0">l</tspan><tspan x="92.04" y="0">or</tspan></text><text class="cls-5" transform="translate(2546.79 557.33)"><tspan x="0" y="0">1 co</tspan><tspan class="cls-12" x="50.52" y="0">l</tspan><tspan x="57.11" y="0">or</tspan></text></svg>