<?xml version="1.0" encoding="utf-8"?>
<!-- Generator: Adobe Illustrator 26.0.0, SVG Export Plug-In . SVG Version: 6.00 Build 0)  -->
<svg version="1.1" id="Layer_1" xmlns="http://www.w3.org/2000/svg" xmlns:xlink="http://www.w3.org/1999/xlink" x="0px" y="0px"
	 viewBox="0 0 700.8 467.4" style="enable-background:new 0 0 700.8 467.4;" xml:space="preserve">
<style type="text/css">
	.st0{opacity:0.5;}
	.st1{fill:none;}
	.st2{fill:none;stroke:#737477;stroke-width:0.28;stroke-miterlimit:10;}
	.st3{fill:none;stroke:#737477;stroke-width:0.88;stroke-miterlimit:10;}
	.st4{opacity:0.1;fill:#515254;enable-background:new    ;}
	.st5{fill:#171321;}
	.st6{opacity:0.15;fill:#515254;enable-background:new    ;}
	.st7{fill:none;stroke:#FFFFFF;stroke-width:2;stroke-miterlimit:10;}
	.st8{fill:none;stroke:#737477;stroke-width:0.8752;stroke-miterlimit:10;}
</style>
<g id="Layer_2_00000076564789772771928040000016746433684213206709_">
	<g id="LOGO">
		<g class="st0">
			<rect x="-0.4" y="-0.8" class="st1" width="701.4" height="468.6"/>
			<g>
				<line class="st2" x1="207.6" y1="467.9" x2="207.6" y2="0"/>
				<line class="st2" x1="25.9" y1="467.9" x2="25.9" y2="0"/>
				<line class="st2" x1="-0.1" y1="466.9" x2="-0.1" y2="7.5"/>
				<line class="st2" x1="51.9" y1="467.4" x2="51.9" y2="0"/>
				<line class="st2" x1="77.8" y1="467.8" x2="77.8" y2="0"/>
				<line class="st2" x1="103.9" y1="467.8" x2="103.9" y2="0"/>
				<line class="st2" x1="181.6" y1="467.9" x2="181.6" y2="0"/>
				<line class="st2" x1="155.7" y1="467.9" x2="155.7" y2="0"/>
				<line class="st2" x1="233.4" y1="467.9" x2="233.4" y2="0"/>
				<line class="st2" x1="259.4" y1="467.8" x2="259.4" y2="0"/>
				<line class="st2" x1="285.3" y1="467.9" x2="285.3" y2="0.5"/>
				<line class="st2" x1="311.3" y1="467.9" x2="311.3" y2="0.5"/>
				<line class="st2" x1="363.1" y1="467.9" x2="363.1" y2="0.5"/>
				<line class="st2" x1="337.1" y1="467.9" x2="337.1" y2="0.5"/>
				<line class="st2" x1="389.1" y1="467.9" x2="389.1" y2="0.5"/>
				<line class="st2" x1="415" y1="467.9" x2="415" y2="0"/>
				<line class="st2" x1="440.9" y1="467.9" x2="440.9" y2="0"/>
				<line class="st2" x1="467" y1="467.9" x2="467" y2="0"/>
				<line class="st2" x1="493" y1="467.9" x2="493" y2="0.4"/>
				<line class="st2" x1="518.9" y1="467.9" x2="518.9" y2="0"/>
				<line class="st2" x1="544.8" y1="468" x2="544.8" y2="0"/>
				<line class="st2" x1="596.8" y1="467.9" x2="596.8" y2="0"/>
				<line class="st2" x1="622.7" y1="467.9" x2="622.7" y2="0"/>
				<line class="st2" x1="648.6" y1="467.9" x2="648.6" y2="0"/>
				<line class="st2" x1="674.5" y1="467.9" x2="674.5" y2="0"/>
				<line class="st3" x1="-0.4" y1="467.8" x2="701" y2="467.8"/>
				<line class="st3" x1="0" y1="337.8" x2="700.1" y2="337.8"/>
				<line class="st3" x1="0" y1="0" x2="701" y2="0"/>
				<line class="st3" x1="-0.4" y1="129.2" x2="700.5" y2="129.2"/>
				<line class="st2" x1="-0.4" y1="182.2" x2="700.5" y2="182.2"/>
				<line class="st2" x1="-0.3" y1="441.2" x2="700.8" y2="441.2"/>
				<line class="st2" x1="0.3" y1="389.3" x2="700.8" y2="389.3"/>
				<line class="st2" x1="0.3" y1="415.3" x2="700.9" y2="415.3"/>
				<line class="st2" x1="0.3" y1="363.4" x2="700.8" y2="363.4"/>
				<line class="st2" x1="0.3" y1="311.5" x2="700.4" y2="311.5"/>
				<line class="st2" x1="0.3" y1="285.5" x2="700.4" y2="285.5"/>
				<line class="st2" x1="0.3" y1="259.5" x2="700.4" y2="259.5"/>
				<line class="st2" x1="0.3" y1="233.6" x2="700.4" y2="233.6"/>
				<line class="st2" x1="-0.4" y1="207.7" x2="700.7" y2="207.7"/>
				<path class="st2" d="M701.9,181.6L701.9,181.6z"/>
				<line class="st2" x1="0.3" y1="155.7" x2="700.5" y2="155.7"/>
				<line class="st2" x1="0.3" y1="103.8" x2="700.5" y2="103.8"/>
				<line class="st2" x1="0.3" y1="77.9" x2="700.5" y2="77.9"/>
				<line class="st2" x1="0.3" y1="52.1" x2="700.8" y2="52.1"/>
				<line class="st2" x1="0.3" y1="26.1" x2="700.8" y2="26.1"/>
				<line class="st3" x1="129.8" y1="467.8" x2="129.8" y2="0"/>
				<line class="st3" x1="0" y1="467.9" x2="0" y2="0"/>
				<path class="st3" d="M701.9-0.4L701.9-0.4z"/>
				<path class="st3" d="M702.8,467.4L702.8,467.4z"/>
				<path class="st3" d="M701.9,337.8L701.9,337.8z"/>
				<line class="st3" x1="571.1" y1="0" x2="571.1" y2="467.9"/>
				<line class="st3" x1="700.5" y1="0" x2="700.5" y2="467.9"/>
				<path class="st4" d="M0,0v467.4h700.8L700.6,0H0z M129.8,337.8V129.3h440.9v208.5H129.8z"/>
				<path class="st3" d="M701.9,129.8L701.9,129.8z"/>
			</g>
		</g>
		<path class="st5" d="M335.6,146.7c-0.4-1.3-1-2.5-1.7-3.6c-0.7-1.1-1.6-2-2.6-2.7c-1-0.8-2.2-1.4-3.4-1.7
			c-1.4-0.4-2.8-0.6-4.2-0.6c-2.6,0-5.1,0.7-7.3,2.1c-2.2,1.5-4,3.6-5,6.1c-1.3,3.1-1.9,6.4-1.8,9.7c-0.1,3.3,0.5,6.7,1.8,9.8
			c1.1,2.5,2.8,4.6,5,6.1c2.2,1.4,4.9,2.1,7.5,2.1c2.3,0.1,4.6-0.5,6.7-1.5c1.8-0.9,3.4-2.4,4.4-4.2c1.1-2,1.6-4.2,1.5-6.4l2.1,0.3
			h-13.9v-7.2h20.7v6.1c0.1,4-0.9,7.9-2.8,11.4c-1.8,3.1-4.5,5.7-7.7,7.4c-7.5,3.6-16.2,3.4-23.5-0.6c-3.6-2.1-6.4-5.3-8.3-9
			c-2.1-4.3-3.1-9.1-3-13.9c-0.1-3.7,0.5-7.5,1.8-11c1.1-3.1,2.7-5.9,4.9-8.2c2.1-2.2,4.6-4,7.4-5.2c2.9-1.2,6.1-1.8,9.2-1.8
			c2.7,0,5.3,0.4,7.9,1.2c2.4,0.8,4.6,2,6.5,3.5c1.9,1.5,3.5,3.3,4.7,5.4c1.2,2.1,2.1,4.4,2.4,6.9L335.6,146.7z"/>
		<path class="st5" d="M360.8,137.8c-1.4,0-2.7-0.5-3.7-1.4c-1.9-1.7-2.1-4.6-0.4-6.5c0.1-0.1,0.2-0.2,0.4-0.4
			c2.1-1.9,5.3-1.9,7.4,0c1.9,1.7,2.1,4.7,0.3,6.6c-0.1,0.1-0.2,0.2-0.3,0.3C363.5,137.3,362.2,137.8,360.8,137.8z M356.3,181.4
			v-38.2h9v38.2L356.3,181.4z"/>
		<path class="st5" d="M393.6,143.2v7h-22v-7H393.6z M377,134.1h9v35.9c-0.1,1,0.1,1.9,0.6,2.8c0.3,0.6,0.8,1.1,1.5,1.3
			c0.6,0.2,1.3,0.3,2,0.3c0.5,0,1,0,1.5-0.1c0.5-0.1,0.8-0.2,1.1-0.2l1.5,7c-0.7,0.2-1.4,0.4-2,0.6c-1.1,0.2-2.2,0.3-3.2,0.4
			c-2.1,0.1-4.2-0.2-6.1-1c-1.8-0.7-3.2-1.9-4.3-3.5c-1.1-1.8-1.7-3.9-1.6-6L377,134.1z"/>
		<path class="st5" d="M402.3,181.4v-50.9h9.3v43.2H434v7.7H402.3z"/>
		<path class="st5" d="M452.5,182.2c-2.2,0-4.5-0.4-6.5-1.3c-1.9-0.8-3.5-2.2-4.6-3.9c-1.2-1.9-1.8-4.1-1.7-6.3
			c-0.1-1.9,0.3-3.7,1.2-5.3c0.8-1.4,1.9-2.6,3.2-3.4c1.4-0.9,3-1.5,4.7-1.9c1.8-0.5,3.6-0.8,5.4-1c2.2-0.2,4.1-0.4,5.5-0.6
			c1.1-0.1,2.1-0.4,3-0.9c0.7-0.4,1-1.1,1-1.9v-0.1c0.1-1.6-0.5-3.2-1.7-4.4c-1.3-1.1-3.1-1.7-4.8-1.5c-1.9-0.1-3.7,0.4-5.2,1.4
			c-1.2,0.8-2.1,2-2.6,3.4l-8.4-1.2c0.6-2.2,1.7-4.2,3.3-5.8c1.6-1.6,3.5-2.8,5.6-3.5c2.3-0.8,4.8-1.2,7.3-1.2
			c1.8,0,3.7,0.2,5.5,0.6c1.8,0.4,3.5,1.1,5,2.1c1.5,1,2.8,2.4,3.6,4c1,2,1.5,4.1,1.4,6.3v25.6H464v-5.2h-0.3
			c-1.3,2.4-3.4,4.3-6,5.2C456.1,181.9,454.3,182.2,452.5,182.2z M454.9,175.6c1.6,0,3.2-0.3,4.7-1.1c1.3-0.7,2.3-1.7,3.1-2.9
			c0.7-1.2,1.1-2.5,1.1-3.9v-4.5c-0.4,0.3-0.9,0.5-1.4,0.6c-0.7,0.2-1.5,0.4-2.2,0.5c-0.8,0.1-1.6,0.3-2.5,0.4l-2.1,0.3
			c-1.2,0.2-2.4,0.5-3.6,0.9c-1,0.3-1.8,0.9-2.5,1.7c-1.5,2.1-1.1,5,0.9,6.6C451.6,175.2,453.2,175.6,454.9,175.6z"/>
		<path class="st5" d="M482.1,181.4v-50.9h9v19.1h0.4c0.6-1.1,1.2-2.1,2-3c0.9-1.1,2.1-2.1,3.4-2.7c1.7-0.8,3.6-1.2,5.5-1.1
			c2.8,0,5.6,0.7,8,2.2c2.5,1.6,4.5,3.9,5.7,6.6c2.8,6.9,2.8,14.6,0,21.4c-1.2,2.7-3.2,5-5.6,6.7c-2.4,1.6-5.2,2.4-8,2.3
			c-1.9,0.1-3.7-0.3-5.5-1.1c-1.3-0.6-2.5-1.5-3.4-2.6c-0.8-0.9-1.4-1.9-2-2.9h-0.5v6L482.1,181.4z M491,162.3
			c0,2.2,0.3,4.4,1.1,6.5c0.6,1.7,1.7,3.2,3.1,4.3c2.9,2.1,6.9,2.1,9.9,0c1.4-1.2,2.5-2.7,3-4.4c0.7-2.1,1-4.2,1-6.4
			c0-2.1-0.3-4.3-1-6.3c-0.6-1.7-1.6-3.2-3-4.3c-3-2.1-6.9-2.1-9.9-0.1c-1.4,1.1-2.4,2.6-3,4.2C491.3,158,491,160.1,491,162.3z"/>
		<path class="st5" d="M302.6,259.8v-50.9h17.2c3.4-0.1,6.8,0.6,9.8,2.1c2.4,1.3,4.4,3.3,5.6,5.8c1.3,2.5,1.9,5.3,1.8,8.1
			c0,2.8-0.6,5.6-1.8,8.2c-1.2,2.5-3.2,4.5-5.7,5.9c-3,1.6-6.3,2.3-9.7,2.2h-12.3v-5.5h12.1c2.3,0.1,4.6-0.4,6.6-1.4
			c1.6-0.9,2.9-2.2,3.6-3.8c1.5-3.5,1.5-7.5,0-10.9c-0.8-1.6-2.1-3-3.6-3.8c-2.1-1-4.4-1.5-6.7-1.4h-10.8v45.4L302.6,259.8z"/>
		<path class="st5" d="M346.2,259.8v-38.2h5.7v5.8h0.4c0.7-1.9,2-3.5,3.8-4.6c1.8-1.2,4-1.8,6.2-1.8h1.6c0.6,0,1.1,0,1.5,0.1v6
			c-0.2-0.1-0.7-0.1-1.4-0.2c-0.7-0.1-1.5-0.2-2.2-0.2c-1.7,0-3.5,0.4-5,1.2c-1.4,0.7-2.6,1.8-3.4,3.2c-0.8,1.4-1.3,3-1.2,4.6v24.2
			L346.2,259.8z"/>
		<path class="st5" d="M386.6,260.6c-6.5,0.2-12.4-3.5-15.1-9.4c-2.9-6.6-2.9-14.1,0-20.8c3.9-8.4,13.9-11.9,22.3-8
			c3.5,1.7,6.3,4.5,8,8c2.9,6.6,2.9,14.1,0,20.8C399,257.1,393.1,260.8,386.6,260.6z M386.6,255.3c2.3,0.1,4.6-0.6,6.5-2
			c1.7-1.4,3-3.2,3.8-5.3c1.6-4.6,1.6-9.6,0-14.2c-0.7-2.1-2-3.9-3.8-5.4c-3.9-2.7-9-2.7-12.9,0c-1.7,1.4-3,3.3-3.8,5.4
			c-1.6,4.6-1.6,9.6,0,14.2c0.7,2.1,2,3.9,3.8,5.3C382,254.7,384.3,255.4,386.6,255.3z"/>
		<path class="st5" d="M428.3,274.9c-2.5,0.1-5-0.3-7.3-1.1c-1.9-0.6-3.6-1.6-5.1-2.8c-1.3-1.1-2.4-2.3-3.2-3.7l4.7-3.3
			c0.5,0.7,1.2,1.5,2,2.4c0.9,1,2.1,1.8,3.3,2.4c1.8,0.7,3.7,1.1,5.6,1c2.7,0.1,5.4-0.7,7.6-2.2c2-1.5,3-3.8,3-7v-7.8h-0.5
			c-0.6,0.9-1.2,1.8-1.8,2.6c-0.9,1.1-2.1,2.1-3.4,2.7c-1.8,0.9-3.9,1.3-5.9,1.2c-2.9,0-5.8-0.7-8.3-2.2c-2.5-1.5-4.5-3.7-5.8-6.4
			c-1.5-3.2-2.2-6.6-2.1-10.1c-0.1-3.5,0.6-7,2.1-10.2c1.2-2.7,3.2-5.1,5.7-6.8c2.5-1.6,5.5-2.5,8.5-2.4c2-0.1,4.1,0.3,5.9,1.2
			c1.3,0.7,2.5,1.6,3.4,2.8c0.8,1,1.4,1.9,1.8,2.6h0.6v-6.1h5.7v39.3c0.1,2.8-0.7,5.6-2.2,8c-1.5,2.1-3.6,3.7-6,4.5
			C433.9,274.4,431.1,274.9,428.3,274.9z M428.1,253.9c2.1,0.1,4.2-0.5,6-1.6c1.7-1.1,3-2.8,3.7-4.6c0.9-2.3,1.3-4.8,1.3-7.3
			c0-2.5-0.4-5-1.2-7.3c-0.7-2-2-3.7-3.7-5c-3.7-2.4-8.5-2.4-12.2,0.1c-1.7,1.3-3,3.1-3.7,5.1c-0.8,2.3-1.3,4.7-1.2,7.1
			c0,2.4,0.4,4.8,1.3,7C419.7,251.4,423.7,254.1,428.1,253.9L428.1,253.9z"/>
		<path class="st5" d="M455.5,259.8v-38.2h5.7v5.8h0.4c0.7-1.9,2-3.5,3.8-4.6c1.8-1.2,4-1.8,6.2-1.8h1.6c0.6,0,1.1,0,1.5,0.1v6
			c-0.2-0.1-0.6-0.1-1.4-0.2c-0.7-0.1-1.5-0.2-2.2-0.2c-1.7,0-3.5,0.4-5,1.2c-1.4,0.7-2.6,1.8-3.4,3.2c-0.8,1.4-1.3,3-1.3,4.6v24.2
			L455.5,259.8z"/>
		<path class="st5" d="M492.8,260.7c-2.3,0-4.5-0.4-6.6-1.4c-4.1-1.8-6.6-5.9-6.4-10.4c-0.1-1.9,0.4-3.7,1.3-5.3
			c0.9-1.4,2-2.5,3.5-3.2c1.5-0.8,3.1-1.4,4.8-1.8c1.8-0.4,3.5-0.7,5.3-0.9c2.3-0.3,4.2-0.5,5.6-0.7c1.1-0.1,2.2-0.3,3.2-0.8
			c0.7-0.4,1.1-1.2,1-2V234c0.1-2.1-0.6-4.2-2-5.7c-1.3-1.4-3.4-2-6-2c-2.3-0.1-4.7,0.5-6.6,1.8c-1.4,1-2.6,2.4-3.4,3.9l-5.6-2
			c0.8-2.1,2.2-4,4-5.4c1.6-1.3,3.5-2.2,5.5-2.7c1.9-0.5,3.9-0.8,5.9-0.8c1.4,0,2.8,0.2,4.2,0.4c1.6,0.3,3.2,0.9,4.6,1.8
			c1.6,1,2.9,2.4,3.7,4c1.1,2.3,1.6,4.8,1.5,7.3v25.2h-5.9v-5.1h-0.3c-0.5,1-1.2,1.9-2,2.7c-1.1,1-2.3,1.9-3.7,2.4
			C496.7,260.4,494.7,260.8,492.8,260.7z M493.7,255.4c2,0.1,4.1-0.4,5.9-1.4c1.5-0.8,2.8-2,3.6-3.5c0.8-1.4,1.2-3,1.2-4.6v-5.4
			c-0.5,0.4-1,0.7-1.6,0.8c-0.9,0.3-1.9,0.5-2.9,0.6c-1.1,0.2-2.1,0.3-3.1,0.4l-2.5,0.3c-1.4,0.2-2.9,0.5-4.3,1
			c-1.2,0.4-2.3,1.1-3.2,2c-0.8,1-1.3,2.2-1.2,3.5c-0.1,1.8,0.8,3.6,2.3,4.6C489.6,255,491.7,255.5,493.7,255.4z"/>
		<path class="st5" d="M521,259.8v-38.2h5.7v6h0.5c0.7-2,2.1-3.6,3.9-4.8c1.9-1.2,4.1-1.8,6.4-1.7c2.2-0.1,4.4,0.5,6.3,1.7
			c1.7,1.2,3.1,2.8,3.9,4.8h0.4c1-2,2.5-3.6,4.4-4.7c2.1-1.2,4.5-1.8,7-1.8c3.1-0.1,6.1,1,8.4,3.2c2.2,2.1,3.3,5.4,3.2,9.9v25.5
			h-5.9v-25.6c0-2.8-0.8-4.8-2.3-6c-1.5-1.2-3.5-1.9-5.4-1.8c-2.3-0.1-4.6,0.7-6.2,2.4c-1.5,1.7-2.3,3.9-2.2,6.1v24.9h-6v-26.2
			c0.1-2-0.7-3.9-2.1-5.2c-1.5-1.4-3.4-2.1-5.4-2c-1.5,0-3,0.4-4.3,1.2c-1.3,0.8-2.4,2-3.2,3.4c-0.8,1.5-1.2,3.3-1.2,5v23.9
			L521,259.8z"/>
		<path class="st5" d="M342.9,287.3v50.9h-6l-27.7-40h-0.5v40h-6.1v-50.9h6l27.8,40.1h0.5v-40.1H342.9z"/>
		<path class="st5" d="M365.7,339.1c-2.3,0-4.5-0.4-6.6-1.4c-4.1-1.8-6.6-5.9-6.4-10.4c-0.1-1.9,0.4-3.7,1.3-5.3
			c0.9-1.4,2-2.5,3.5-3.2c1.5-0.8,3.1-1.4,4.8-1.8c1.7-0.4,3.5-0.7,5.3-0.9c2.3-0.3,4.2-0.5,5.6-0.7c1.1-0.1,2.2-0.3,3.2-0.8
			c0.7-0.4,1.1-1.2,1-2v-0.2c0.1-2.1-0.6-4.2-2-5.7c-1.3-1.3-3.3-2-6-2c-2.3-0.1-4.7,0.5-6.6,1.8c-1.4,1-2.6,2.4-3.4,3.9l-5.6-2
			c0.8-2.1,2.2-4,4-5.4c1.6-1.3,3.5-2.2,5.5-2.7c1.9-0.5,3.9-0.8,5.9-0.8c1.4,0,2.8,0.2,4.2,0.4c1.6,0.3,3.2,0.9,4.6,1.8
			c1.6,1,2.9,2.4,3.7,4c1.1,2.3,1.6,4.8,1.5,7.3v25.2h-5.9V333h-0.3c-0.5,1-1.2,1.9-2,2.7c-1.1,1-2.3,1.9-3.7,2.4
			C369.6,338.8,367.7,339.2,365.7,339.1z M366.6,333.8c2,0.1,4.1-0.4,5.9-1.4c1.5-0.8,2.8-2,3.6-3.5c0.8-1.4,1.2-3,1.2-4.5V319
			c-0.5,0.4-1,0.7-1.6,0.8c-0.9,0.3-1.9,0.5-2.9,0.6c-1.1,0.2-2.1,0.3-3.2,0.5l-2.5,0.3c-1.4,0.2-2.9,0.5-4.3,1
			c-1.2,0.4-2.3,1.1-3.2,2c-0.8,1-1.3,2.2-1.2,3.5c-0.1,1.8,0.8,3.6,2.3,4.6C362.6,333.4,364.6,333.9,366.6,333.8L366.6,333.8z"/>
		<path class="st5" d="M394,338.2V300h5.6v6h0.5c0.7-2,2.1-3.6,3.9-4.8c1.9-1.2,4.1-1.8,6.4-1.7c2.2-0.1,4.4,0.5,6.3,1.7
			c1.7,1.2,3.1,2.8,3.9,4.8h0.4c1-2,2.5-3.6,4.4-4.7c2.1-1.2,4.6-1.8,7-1.8c3.1-0.1,6.1,1,8.4,3.2c2.2,2.1,3.3,5.4,3.3,9.9v25.5
			h-5.9v-25.6c0-2.8-0.8-4.8-2.3-6c-1.5-1.2-3.5-1.9-5.4-1.8c-2.3-0.1-4.6,0.7-6.2,2.4c-1.5,1.7-2.3,3.9-2.2,6.1v24.8h-6V312
			c0.1-2-0.7-3.9-2.1-5.2c-1.5-1.4-3.4-2.1-5.5-2c-1.5,0-3,0.4-4.3,1.2c-1.3,0.8-2.4,2-3.2,3.4c-0.8,1.5-1.3,3.3-1.2,5v23.8H394z"/>
		<path class="st5" d="M470.8,339c-3.3,0.1-6.6-0.8-9.5-2.5c-2.7-1.6-4.8-4-6.1-6.9c-1.5-3.2-2.2-6.7-2.1-10.3
			c-0.1-3.6,0.7-7.1,2.1-10.4c1.3-2.8,3.4-5.3,6-7c2.7-1.7,5.8-2.6,9-2.5c2,0,4,0.3,5.9,1c2,0.7,3.8,1.8,5.3,3.2
			c1.7,1.6,3,3.7,3.8,5.9c1,2.9,1.5,5.9,1.4,9v2.5h-29.4V316h23.5c0-2-0.4-4-1.3-5.8c-0.8-1.6-2.1-3-3.6-4c-1.7-1-3.6-1.5-5.5-1.5
			c-2.1-0.1-4.3,0.6-6,1.7c-1.7,1.1-3,2.7-3.9,4.5c-0.9,1.8-1.4,3.9-1.4,5.9v3.4c-0.1,2.5,0.4,5,1.5,7.3c0.9,1.9,2.4,3.5,4.2,4.6
			c1.9,1.1,4.1,1.6,6.2,1.5c1.4,0,2.8-0.2,4.2-0.7c1.2-0.4,2.3-1.1,3.2-2c0.9-0.9,1.7-2.1,2.1-3.3l5.7,1.6c-0.6,1.9-1.6,3.6-3,5.1
			c-1.5,1.5-3.3,2.6-5.2,3.4C475.6,338.6,473.2,339,470.8,339z"/>
		<path class="st5" d="M167,129.8h93l0,0v93c0,20.4-16.6,37-37,37l0,0h-93l0,0v-93C130,146.4,146.6,129.8,167,129.8z"/>
		<path class="st6" d="M607.7,338.3h93l0,0v93c0,20.4-16.6,37-37,37h-93l0,0v-93C570.7,354.9,587.3,338.3,607.7,338.3L607.7,338.3z"
			/>
		<path class="st7" d="M237,201.9v-14.3l-10.4-1.5c-0.7-2.6-1.8-5.1-3.1-7.5l6.3-8.4L219.6,160l-8.4,6.3c-2.4-1.3-4.9-2.4-7.5-3.1
			l-1.5-10.4h-14.3l-1.5,10.4c-2.6,0.7-5.1,1.8-7.5,3.1l-8.4-6.3l-10.1,10.2l6.3,8.4c-1.3,2.4-2.4,4.9-3.1,7.5l-10.4,1.5V202
			l10.4,1.5c0.7,2.6,1.8,5.1,3.1,7.5l-6.3,8.4l10.1,10.1l8.4-6.3c2.4,1.3,4.9,2.4,7.5,3.1l1.5,10.4h14.4l1.5-10.4
			c2.6-0.7,5.1-1.8,7.5-3.1l8.4,6.3l10.1-10.1l-6.3-8.4c1.3-2.4,2.4-4.9,3.1-7.5L237,201.9z"/>
		<polyline class="st7" points="183.9,204.6 175.1,195.7 183.9,186.9 		"/>
		<polyline class="st7" points="206.1,186.9 214.9,195.7 206.1,204.5 		"/>
		<line class="st7" x1="199.5" y1="185.1" x2="190.5" y2="206.9"/>
		<path d="M525.6,420.2l4.1,7l4.1-7h3l-5.5,8.6l5.5,8.6h-3l-4.1-6.7l-4.1,6.7h-3l5.5-8.6l-5.5-8.6H525.6z"/>
		<path d="M550.5,426.4v-2.4h13.8v2.4H550.5z M550.5,433v-2.4h13.8v2.4H550.5z"/>
		<g class="st0">
			<line class="st8" x1="149.5" y1="250.3" x2="149.5" y2="139.3"/>
			<line class="st8" x1="240.5" y1="250.3" x2="240.5" y2="139.3"/>
			<path class="st8" d="M250.5,149.3h-111H250.5z"/>
			<path class="st8" d="M250.5,240.3h-111H250.5z"/>
		</g>
	</g>
</g>
</svg>
