<svg version="1.1" id="Layer_1" xmlns="http://www.w3.org/2000/svg" x="0" y="0" viewBox="0 0 700.8 467.4" style="enable-background:new 0 0 700.8 467.4" xml:space="preserve"><style>.st0{opacity:.5}.st2,.st3{fill:none;stroke:#737477;stroke-width:.28;stroke-miterlimit:10}.st3{stroke-width:.88}.st5{fill:#171321}.st7,.st8{fill:none;stroke:#fff;stroke-width:2;stroke-miterlimit:10}.st8{stroke:#737477;stroke-width:.8752}</style><g id="Layer_2_00000076564789772771928040000016746433684213206709_"><g id="LOGO"><g class="st0"><path style="fill:none" d="M-.4-.8H701v468.6H-.4z"/><path class="st2" d="M207.6 467.9V0M25.9 467.9V0M-.1 466.9V7.5M51.9 467.4V0M77.8 467.8V0M103.9 467.8V0M181.6 467.9V0M155.7 467.9V0M233.4 467.9V0M259.4 467.8V0M285.3 467.9V.5M311.3 467.9V.5M363.1 467.9V.5M337.1 467.9V.5M389.1 467.9V.5M415 467.9V0M440.9 467.9V0M467 467.9V0M493 467.9V.4M518.9 467.9V0M544.8 468V0M596.8 467.9V0M622.7 467.9V0M648.6 467.9V0M674.5 467.9V0"/><path class="st3" d="M-.4 467.8H701M0 337.8h700.1M0 0h701M-.4 129.2h700.9"/><path class="st2" d="M-.4 182.2h700.9M-.3 441.2h701.1M.3 389.3h700.5M.3 415.3h700.6M.3 363.4h700.5M.3 311.5h700.1M.3 285.5h700.1M.3 259.5h700.1M.3 233.6h700.1M-.4 207.7h701.1M701.9 181.6zM.3 155.7h700.2M.3 103.8h700.2M.3 77.9h700.2M.3 52.1h700.5M.3 26.1h700.5"/><path class="st3" d="M129.8 467.8V0M0 467.9V0M701.9-.4zM702.8 467.4zM701.9 337.8zM571.1 0v467.9M700.5 0v467.9"/><path d="M0 0v467.4h700.8L700.6 0H0zm129.8 337.8V129.3h440.9v208.5H129.8z" style="opacity:.1;fill:#515254;enable-background:new"/><path class="st3" d="M701.9 129.8z"/></g><path class="st5" d="M335.6 146.7c-.4-1.3-1-2.5-1.7-3.6s-1.6-2-2.6-2.7c-1-.8-2.2-1.4-3.4-1.7-1.4-.4-2.8-.6-4.2-.6-2.6 0-5.1.7-7.3 2.1-2.2 1.5-4 3.6-5 6.1-1.3 3.1-1.9 6.4-1.8 9.7-.1 3.3.5 6.7 1.8 9.8 1.1 2.5 2.8 4.6 5 6.1 2.2 1.4 4.9 2.1 7.5 2.1 2.3.1 4.6-.5 6.7-1.5 1.8-.9 3.4-2.4 4.4-4.2 1.1-2 1.6-4.2 1.5-6.4l2.1.3h-13.9V155h20.7v6.1c.1 4-.9 7.9-2.8 11.4-1.8 3.1-4.5 5.7-7.7 7.4-7.5 3.6-16.2 3.4-23.5-.6-3.6-2.1-6.4-5.3-8.3-9-2.1-4.3-3.1-9.1-3-13.9-.1-3.7.5-7.5 1.8-11 1.1-3.1 2.7-5.9 4.9-8.2 2.1-2.2 4.6-4 7.4-5.2 2.9-1.2 6.1-1.8 9.2-1.8 2.7 0 5.3.4 7.9 1.2 2.4.8 4.6 2 6.5 3.5 1.9 1.5 3.5 3.3 4.7 5.4 1.2 2.1 2.1 4.4 2.4 6.9l-9.3-.5zM360.8 137.8c-1.4 0-2.7-.5-3.7-1.4-1.9-1.7-2.1-4.6-.4-6.5l.4-.4c2.1-1.9 5.3-1.9 7.4 0 1.9 1.7 2.1 4.7.3 6.6l-.3.3c-1 .9-2.3 1.4-3.7 1.4zm-4.5 43.6v-38.2h9v38.2h-9zM393.6 143.2v7h-22v-7h22zm-16.6-9.1h9V170c-.1 1 .1 1.9.6 2.8.3.6.8 1.1 1.5 1.3.6.2 1.3.3 2 .3.5 0 1 0 1.5-.1s.8-.2 1.1-.2l1.5 7c-.7.2-1.4.4-2 .6-1.1.2-2.2.3-3.2.4-2.1.1-4.2-.2-6.1-1-1.8-.7-3.2-1.9-4.3-3.5-1.1-1.8-1.7-3.9-1.6-6v-37.5zM402.3 181.4v-50.9h9.3v43.2H434v7.7h-31.7zM452.5 182.2c-2.2 0-4.5-.4-6.5-1.3-1.9-.8-3.5-2.2-4.6-3.9-1.2-1.9-1.8-4.1-1.7-6.3-.1-1.9.3-3.7 1.2-5.3.8-1.4 1.9-2.6 3.2-3.4 1.4-.9 3-1.5 4.7-1.9 1.8-.5 3.6-.8 5.4-1 2.2-.2 4.1-.4 5.5-.6 1.1-.1 2.1-.4 3-.9.7-.4 1-1.1 1-1.9v-.1c.1-1.6-.5-3.2-1.7-4.4-1.3-1.1-3.1-1.7-4.8-1.5-1.9-.1-3.7.4-5.2 1.4-1.2.8-2.1 2-2.6 3.4l-8.4-1.2c.6-2.2 1.7-4.2 3.3-5.8 1.6-1.6 3.5-2.8 5.6-3.5 2.3-.8 4.8-1.2 7.3-1.2 1.8 0 3.7.2 5.5.6 1.8.4 3.5 1.1 5 2.1s2.8 2.4 3.6 4c1 2 1.5 4.1 1.4 6.3v25.6H464v-5.2h-.3c-1.3 2.4-3.4 4.3-6 5.2-1.6.5-3.4.8-5.2.8zm2.4-6.6c1.6 0 3.2-.3 4.7-1.1 1.3-.7 2.3-1.7 3.1-2.9.7-1.2 1.1-2.5 1.1-3.9v-4.5c-.4.3-.9.5-1.4.6-.7.2-1.5.4-2.2.5-.8.1-1.6.3-2.5.4l-2.1.3c-1.2.2-2.4.5-3.6.9-1 .3-1.8.9-2.5 1.7-1.5 2.1-1.1 5 .9 6.6 1.2 1 2.8 1.4 4.5 1.4zM482.1 181.4v-50.9h9v19.1h.4c.6-1.1 1.2-2.1 2-3 .9-1.1 2.1-2.1 3.4-2.7 1.7-.8 3.6-1.2 5.5-1.1 2.8 0 5.6.7 8 2.2 2.5 1.6 4.5 3.9 5.7 6.6 2.8 6.9 2.8 14.6 0 21.4-1.2 2.7-3.2 5-5.6 6.7-2.4 1.6-5.2 2.4-8 2.3-1.9.1-3.7-.3-5.5-1.1-1.3-.6-2.5-1.5-3.4-2.6-.8-.9-1.4-1.9-2-2.9h-.5v6h-9zm8.9-19.1c0 2.2.3 4.4 1.1 6.5.6 1.7 1.7 3.2 3.1 4.3 2.9 2.1 6.9 2.1 9.9 0 1.4-1.2 2.5-2.7 3-4.4.7-2.1 1-4.2 1-6.4 0-2.1-.3-4.3-1-6.3-.6-1.7-1.6-3.2-3-4.3-3-2.1-6.9-2.1-9.9-.1-1.4 1.1-2.4 2.6-3 4.2-.9 2.2-1.2 4.3-1.2 6.5zM302.6 259.8v-50.9h17.2c3.4-.1 6.8.6 9.8 2.1 2.4 1.3 4.4 3.3 5.6 5.8 1.3 2.5 1.9 5.3 1.8 8.1 0 2.8-.6 5.6-1.8 8.2-1.2 2.5-3.2 4.5-5.7 5.9-3 1.6-6.3 2.3-9.7 2.2h-12.3v-5.5h12.1c2.3.1 4.6-.4 6.6-1.4 1.6-.9 2.9-2.2 3.6-3.8 1.5-3.5 1.5-7.5 0-10.9-.8-1.6-2.1-3-3.6-3.8-2.1-1-4.4-1.5-6.7-1.4h-10.8v45.4h-6.1zM346.2 259.8v-38.2h5.7v5.8h.4c.7-1.9 2-3.5 3.8-4.6 1.8-1.2 4-1.8 6.2-1.8h1.6c.6 0 1.1 0 1.5.1v6c-.2-.1-.7-.1-1.4-.2s-1.5-.2-2.2-.2c-1.7 0-3.5.4-5 1.2-1.4.7-2.6 1.8-3.4 3.2-.8 1.4-1.3 3-1.2 4.6v24.2l-6-.1zM386.6 260.6c-6.5.2-12.4-3.5-15.1-9.4-2.9-6.6-2.9-14.1 0-20.8 3.9-8.4 13.9-11.9 22.3-8 3.5 1.7 6.3 4.5 8 8 2.9 6.6 2.9 14.1 0 20.8-2.8 5.9-8.7 9.6-15.2 9.4zm0-5.3c2.3.1 4.6-.6 6.5-2 1.7-1.4 3-3.2 3.8-5.3 1.6-4.6 1.6-9.6 0-14.2-.7-2.1-2-3.9-3.8-5.4-3.9-2.7-9-2.7-12.9 0-1.7 1.4-3 3.3-3.8 5.4-1.6 4.6-1.6 9.6 0 14.2.7 2.1 2 3.9 3.8 5.3 1.8 1.4 4.1 2.1 6.4 2zM428.3 274.9c-2.5.1-5-.3-7.3-1.1-1.9-.6-3.6-1.6-5.1-2.8-1.3-1.1-2.4-2.3-3.2-3.7l4.7-3.3c.5.7 1.2 1.5 2 2.4.9 1 2.1 1.8 3.3 2.4 1.8.7 3.7 1.1 5.6 1 2.7.1 5.4-.7 7.6-2.2 2-1.5 3-3.8 3-7v-7.8h-.5c-.6.9-1.2 1.8-1.8 2.6-.9 1.1-2.1 2.1-3.4 2.7-1.8.9-3.9 1.3-5.9 1.2-2.9 0-5.8-.7-8.3-2.2-2.5-1.5-4.5-3.7-5.8-6.4a22.1 22.1 0 0 1-2.1-10.1c-.1-3.5.6-7 2.1-10.2 1.2-2.7 3.2-5.1 5.7-6.8 2.5-1.6 5.5-2.5 8.5-2.4 2-.1 4.1.3 5.9 1.2 1.3.7 2.5 1.6 3.4 2.8.8 1 1.4 1.9 1.8 2.6h.6v-6.1h5.7V261c.1 2.8-.7 5.6-2.2 8-1.5 2.1-3.6 3.7-6 4.5-2.7.9-5.5 1.4-8.3 1.4zm-.2-21c2.1.1 4.2-.5 6-1.6 1.7-1.1 3-2.8 3.7-4.6.9-2.3 1.3-4.8 1.3-7.3s-.4-5-1.2-7.3c-.7-2-2-3.7-3.7-5-3.7-2.4-8.5-2.4-12.2.1-1.7 1.3-3 3.1-3.7 5.1-.8 2.3-1.3 4.7-1.2 7.1 0 2.4.4 4.8 1.3 7 1.3 4 5.3 6.7 9.7 6.5zM455.5 259.8v-38.2h5.7v5.8h.4c.7-1.9 2-3.5 3.8-4.6 1.8-1.2 4-1.8 6.2-1.8h1.6c.6 0 1.1 0 1.5.1v6c-.2-.1-.6-.1-1.4-.2-.7-.1-1.5-.2-2.2-.2-1.7 0-3.5.4-5 1.2-1.4.7-2.6 1.8-3.4 3.2-.8 1.4-1.3 3-1.3 4.6v24.2l-5.9-.1zM492.8 260.7c-2.3 0-4.5-.4-6.6-1.4-4.1-1.8-6.6-5.9-6.4-10.4-.1-1.9.4-3.7 1.3-5.3.9-1.4 2-2.5 3.5-3.2 1.5-.8 3.1-1.4 4.8-1.8 1.8-.4 3.5-.7 5.3-.9 2.3-.3 4.2-.5 5.6-.7 1.1-.1 2.2-.3 3.2-.8.7-.4 1.1-1.2 1-2v-.2c.1-2.1-.6-4.2-2-5.7-1.3-1.4-3.4-2-6-2-2.3-.1-4.7.5-6.6 1.8-1.4 1-2.6 2.4-3.4 3.9l-5.6-2c.8-2.1 2.2-4 4-5.4 1.6-1.3 3.5-2.2 5.5-2.7 1.9-.5 3.9-.8 5.9-.8 1.4 0 2.8.2 4.2.4 1.6.3 3.2.9 4.6 1.8 1.6 1 2.9 2.4 3.7 4 1.1 2.3 1.6 4.8 1.5 7.3v25.2h-5.9v-5.1h-.3c-.5 1-1.2 1.9-2 2.7-1.1 1-2.3 1.9-3.7 2.4-1.7.6-3.7 1-5.6.9zm.9-5.3c2 .1 4.1-.4 5.9-1.4 1.5-.8 2.8-2 3.6-3.5.8-1.4 1.2-3 1.2-4.6v-5.4c-.5.4-1 .7-1.6.8-.9.3-1.9.5-2.9.6-1.1.2-2.1.3-3.1.4l-2.5.3c-1.4.2-2.9.5-4.3 1-1.2.4-2.3 1.1-3.2 2-.8 1-1.3 2.2-1.2 3.5-.1 1.8.8 3.6 2.3 4.6 1.7 1.3 3.8 1.8 5.8 1.7zM521 259.8v-38.2h5.7v6h.5c.7-2 2.1-3.6 3.9-4.8 1.9-1.2 4.1-1.8 6.4-1.7 2.2-.1 4.4.5 6.3 1.7 1.7 1.2 3.1 2.8 3.9 4.8h.4c1-2 2.5-3.6 4.4-4.7 2.1-1.2 4.5-1.8 7-1.8 3.1-.1 6.1 1 8.4 3.2 2.2 2.1 3.3 5.4 3.2 9.9v25.5h-5.9v-25.6c0-2.8-.8-4.8-2.3-6-1.5-1.2-3.5-1.9-5.4-1.8-2.3-.1-4.6.7-6.2 2.4-1.5 1.7-2.3 3.9-2.2 6.1v24.9h-6v-26.2c.1-2-.7-3.9-2.1-5.2-1.5-1.4-3.4-2.1-5.4-2-1.5 0-3 .4-4.3 1.2-1.3.8-2.4 2-3.2 3.4-.8 1.5-1.2 3.3-1.2 5v23.9H521zM342.9 287.3v50.9h-6l-27.7-40h-.5v40h-6.1v-50.9h6l27.8 40.1h.5v-40.1h6zM365.7 339.1c-2.3 0-4.5-.4-6.6-1.4-4.1-1.8-6.6-5.9-6.4-10.4-.1-1.9.4-3.7 1.3-5.3.9-1.4 2-2.5 3.5-3.2 1.5-.8 3.1-1.4 4.8-1.8 1.7-.4 3.5-.7 5.3-.9 2.3-.3 4.2-.5 5.6-.7 1.1-.1 2.2-.3 3.2-.8.7-.4 1.1-1.2 1-2v-.2c.1-2.1-.6-4.2-2-5.7-1.3-1.3-3.3-2-6-2-2.3-.1-4.7.5-6.6 1.8-1.4 1-2.6 2.4-3.4 3.9l-5.6-2c.8-2.1 2.2-4 4-5.4 1.6-1.3 3.5-2.2 5.5-2.7 1.9-.5 3.9-.8 5.9-.8 1.4 0 2.8.2 4.2.4 1.6.3 3.2.9 4.6 1.8 1.6 1 2.9 2.4 3.7 4 1.1 2.3 1.6 4.8 1.5 7.3v25.2h-5.9V333h-.3c-.5 1-1.2 1.9-2 2.7-1.1 1-2.3 1.9-3.7 2.4-1.7.7-3.6 1.1-5.6 1zm.9-5.3c2 .1 4.1-.4 5.9-1.4 1.5-.8 2.8-2 3.6-3.5.8-1.4 1.2-3 1.2-4.5V319c-.5.4-1 .7-1.6.8-.9.3-1.9.5-2.9.6-1.1.2-2.1.3-3.2.5l-2.5.3c-1.4.2-2.9.5-4.3 1-1.2.4-2.3 1.1-3.2 2-.8 1-1.3 2.2-1.2 3.5-.1 1.8.8 3.6 2.3 4.6 1.9 1.1 3.9 1.6 5.9 1.5zM394 338.2V300h5.6v6h.5c.7-2 2.1-3.6 3.9-4.8 1.9-1.2 4.1-1.8 6.4-1.7 2.2-.1 4.4.5 6.3 1.7 1.7 1.2 3.1 2.8 3.9 4.8h.4c1-2 2.5-3.6 4.4-4.7 2.1-1.2 4.6-1.8 7-1.8 3.1-.1 6.1 1 8.4 3.2 2.2 2.1 3.3 5.4 3.3 9.9v25.5h-5.9v-25.6c0-2.8-.8-4.8-2.3-6-1.5-1.2-3.5-1.9-5.4-1.8-2.3-.1-4.6.7-6.2 2.4-1.5 1.7-2.3 3.9-2.2 6.1V338h-6v-26c.1-2-.7-3.9-2.1-5.2-1.5-1.4-3.4-2.1-5.5-2-1.5 0-3 .4-4.3 1.2-1.3.8-2.4 2-3.2 3.4-.8 1.5-1.3 3.3-1.2 5v23.8H394zM470.8 339c-3.3.1-6.6-.8-9.5-2.5-2.7-1.6-4.8-4-6.1-6.9-1.5-3.2-2.2-6.7-2.1-10.3-.1-3.6.7-7.1 2.1-10.4 1.3-2.8 3.4-5.3 6-7 2.7-1.7 5.8-2.6 9-2.5 2 0 4 .3 5.9 1 2 .7 3.8 1.8 5.3 3.2 1.7 1.6 3 3.7 3.8 5.9 1 2.9 1.5 5.9 1.4 9v2.5h-29.4v-5h23.5c0-2-.4-4-1.3-5.8-.8-1.6-2.1-3-3.6-4-1.7-1-3.6-1.5-5.5-1.5-2.1-.1-4.3.6-6 1.7-1.7 1.1-3 2.7-3.9 4.5-.9 1.8-1.4 3.9-1.4 5.9v3.4c-.1 2.5.4 5 1.5 7.3.9 1.9 2.4 3.5 4.2 4.6 1.9 1.1 4.1 1.6 6.2 1.5 1.4 0 2.8-.2 4.2-.7 1.2-.4 2.3-1.1 3.2-2 .9-.9 1.7-2.1 2.1-3.3l5.7 1.6c-.6 1.9-1.6 3.6-3 5.1-1.5 1.5-3.3 2.6-5.2 3.4-2.3.9-4.7 1.3-7.1 1.3zM167 129.8h93v93c0 20.4-16.6 37-37 37h-93v-93c0-20.4 16.6-37 37-37z"/><path d="M607.7 338.3h93v93c0 20.4-16.6 37-37 37h-93v-93c0-20.4 16.6-37 37-37z" style="opacity:.15;fill:#515254;enable-background:new"/><path class="st7" d="M237 201.9v-14.3l-10.4-1.5c-.7-2.6-1.8-5.1-3.1-7.5l6.3-8.4-10.2-10.2-8.4 6.3c-2.4-1.3-4.9-2.4-7.5-3.1l-1.5-10.4h-14.3l-1.5 10.4c-2.6.7-5.1 1.8-7.5 3.1l-8.4-6.3-10.1 10.2 6.3 8.4c-1.3 2.4-2.4 4.9-3.1 7.5l-10.4 1.5V202l10.4 1.5c.7 2.6 1.8 5.1 3.1 7.5l-6.3 8.4 10.1 10.1 8.4-6.3c2.4 1.3 4.9 2.4 7.5 3.1l1.5 10.4h14.4l1.5-10.4c2.6-.7 5.1-1.8 7.5-3.1l8.4 6.3 10.1-10.1-6.3-8.4c1.3-2.4 2.4-4.9 3.1-7.5l10.4-1.6z"/><path class="st7" d="m183.9 204.6-8.8-8.9 8.8-8.8M206.1 186.9l8.8 8.8-8.8 8.8M199.5 185.1l-9 21.8"/><path d="m525.6 420.2 4.1 7 4.1-7h3l-5.5 8.6 5.5 8.6h-3l-4.1-6.7-4.1 6.7h-3l5.5-8.6-5.5-8.6h3zM550.5 426.4V424h13.8v2.4h-13.8zm0 6.6v-2.4h13.8v2.4h-13.8z"/><g class="st0"><path class="st8" d="M149.5 250.3v-111M240.5 250.3v-111M250.5 149.3h-111 111zM250.5 240.3h-111 111z"/></g></g></g></svg>