<svg xmlns="http://www.w3.org/2000/svg" viewBox="0 0 1498 141.72"><defs><style>.cls-1{fill:#1d1d1b}.cls-2{fill:none;stroke:#171321;stroke-miterlimit:10;stroke-width:2px}</style></defs><g id="Layer_2" data-name="Layer 2"><g id="LOGO"><path class="cls-1" d="M11.77 122.86h2.1l5 12.07H19l4.94-12.07H26v14.54h-1.62v-11.05h-.14L19.7 137.4h-1.59l-4.55-11.05h-.14v11.05h-1.65ZM32.54 137.66a4.42 4.42 0 0 1-1.88-.39 3.08 3.08 0 0 1-1.84-3 2.89 2.89 0 0 1 .36-1.53 2.73 2.73 0 0 1 1-.92 5.7 5.7 0 0 1 1.37-.5c.5-.11 1-.2 1.51-.26l1.61-.2a2.32 2.32 0 0 0 .91-.23.59.59 0 0 0 .29-.57 2.26 2.26 0 0 0-.57-1.64 2.32 2.32 0 0 0-1.73-.58 3 3 0 0 0-2.84 1.65l-1.59-.57a3.76 3.76 0 0 1 1.14-1.55 4.24 4.24 0 0 1 1.56-.78 6.52 6.52 0 0 1 1.67-.23 6.25 6.25 0 0 1 1.21.13A3.81 3.81 0 0 1 36 127a2.92 2.92 0 0 1 1.07 1.15 4.26 4.26 0 0 1 .43 2.08v7.18h-1.64v-1.47h-.08a3.41 3.41 0 0 1-.57.76 3.36 3.36 0 0 1-1.06.69 4.07 4.07 0 0 1-1.61.27Zm.25-1.51a3.31 3.31 0 0 0 1.68-.39 2.64 2.64 0 0 0 1.39-2.3v-1.54a1 1 0 0 1-.46.23 7 7 0 0 1-.83.18l-.9.13-.71.09a5.63 5.63 0 0 0-1.21.27 2.13 2.13 0 0 0-.91.56 1.44 1.44 0 0 0-.35 1 1.5 1.5 0 0 0 .65 1.32 2.84 2.84 0 0 0 1.65.45ZM42.28 130.84v6.56h-1.67v-10.9h1.61v1.7h.15a3.13 3.13 0 0 1 1.16-1.34 3.62 3.62 0 0 1 2-.51 4 4 0 0 1 1.94.45 3.12 3.12 0 0 1 1.29 1.37 5 5 0 0 1 .46 2.3v6.93h-1.65v-6.81a2.87 2.87 0 0 0-.67-2 2.39 2.39 0 0 0-1.83-.72 2.85 2.85 0 0 0-1.44.35 2.53 2.53 0 0 0-1 1 3.4 3.4 0 0 0-.35 1.62ZM55.52 137.66a4.42 4.42 0 0 1-1.88-.39 3.29 3.29 0 0 1-1.35-1.15 3.2 3.2 0 0 1-.49-1.81 2.8 2.8 0 0 1 .37-1.53 2.63 2.63 0 0 1 1-.92 5.86 5.86 0 0 1 1.37-.5c.5-.11 1-.2 1.51-.26l1.62-.2a2.43 2.43 0 0 0 .91-.23.6.6 0 0 0 .28-.57 2.26 2.26 0 0 0-.57-1.64 2.32 2.32 0 0 0-1.73-.58 3 3 0 0 0-1.88.53 3.18 3.18 0 0 0-1 1.12l-1.59-.57a3.76 3.76 0 0 1 1.14-1.55 4.4 4.4 0 0 1 1.56-.78 6.59 6.59 0 0 1 1.68-.23 6.33 6.33 0 0 1 1.21.13A3.77 3.77 0 0 1 59 127a2.92 2.92 0 0 1 1.07 1.15 4.26 4.26 0 0 1 .43 2.08v7.18h-1.66v-1.47h-.08a3.12 3.12 0 0 1-.57.76 3.36 3.36 0 0 1-1.06.69 4.07 4.07 0 0 1-1.61.27Zm.26-1.51a3.37 3.37 0 0 0 1.68-.39 2.63 2.63 0 0 0 1-1 2.5 2.5 0 0 0 .35-1.29v-1.54a.92.92 0 0 1-.46.23 7 7 0 0 1-.83.18l-.9.13-.7.09a5.59 5.59 0 0 0-1.22.27 2.13 2.13 0 0 0-.91.56 1.44 1.44 0 0 0-.35 1 1.5 1.5 0 0 0 .65 1.32 2.87 2.87 0 0 0 1.69.44ZM68 141.72a6.22 6.22 0 0 1-2.09-.31 4.31 4.31 0 0 1-1.45-.81 4.49 4.49 0 0 1-.92-1.06l1.34-.94c.15.2.34.42.57.68a2.88 2.88 0 0 0 1 .68 3.73 3.73 0 0 0 1.59.29 3.59 3.59 0 0 0 2.18-.64 2.36 2.36 0 0 0 .86-2v-2.21h-.14c-.12.2-.3.44-.52.73a3.13 3.13 0 0 1-1 .78 3.65 3.65 0 0 1-1.69.33 4.51 4.51 0 0 1-2.37-.62 4.39 4.39 0 0 1-1.66-1.82 6.38 6.38 0 0 1-.6-2.9 6.68 6.68 0 0 1 .59-2.92 4.58 4.58 0 0 1 1.62-1.98 4.32 4.32 0 0 1 2.43-.69 3.39 3.39 0 0 1 1.69.36 3 3 0 0 1 1 .79l.52.73h.17v-1.69h1.62v11.22a3.81 3.81 0 0 1-.64 2.29 3.69 3.69 0 0 1-1.7 1.3 6.72 6.72 0 0 1-2.4.41Zm-.06-6a3.09 3.09 0 0 0 1.71-.46 2.89 2.89 0 0 0 1.06-1.33 5.42 5.42 0 0 0 .36-2.08 5.6 5.6 0 0 0-.36-2.08 3 3 0 0 0-1-1.41 3.16 3.16 0 0 0-3.49 0 3.29 3.29 0 0 0-1.06 1.45 5.62 5.62 0 0 0-.35 2 5.22 5.22 0 0 0 .36 2 2.88 2.88 0 0 0 2.82 1.86ZM80.35 137.63a5.08 5.08 0 0 1-2.72-.7 4.57 4.57 0 0 1-1.75-2 6.61 6.61 0 0 1-.62-2.93 6.75 6.75 0 0 1 .62-3 4.78 4.78 0 0 1 1.72-2 4.59 4.59 0 0 1 2.58-.72 5.12 5.12 0 0 1 1.68.29 4 4 0 0 1 1.51.92 4.34 4.34 0 0 1 1.09 1.68 7.1 7.1 0 0 1 .41 2.57v.71h-8.41V131h6.7a3.64 3.64 0 0 0-.36-1.65 2.86 2.86 0 0 0-1-1.14 2.91 2.91 0 0 0-1.58-.42 3 3 0 0 0-1.73.49 3.29 3.29 0 0 0-1.12 1.28 3.79 3.79 0 0 0-.39 1.7v1a4.58 4.58 0 0 0 .43 2.09 3 3 0 0 0 1.2 1.3 3.44 3.44 0 0 0 1.78.45 3.77 3.77 0 0 0 1.2-.19 2.5 2.5 0 0 0 1.53-1.52l1.62.46a3.6 3.6 0 0 1-.86 1.44 4.1 4.1 0 0 1-1.5 1 5.43 5.43 0 0 1-2.03.34ZM185.55 137.4v-14.54h4.91a5.64 5.64 0 0 1 2.8.61 3.92 3.92 0 0 1 1.62 1.66 5.41 5.41 0 0 1 0 4.67 3.81 3.81 0 0 1-1.61 1.67 5.58 5.58 0 0 1-2.78.62H187v-1.56h3.46a3.81 3.81 0 0 0 1.89-.41 2.46 2.46 0 0 0 1-1.09 3.76 3.76 0 0 0 .32-1.57 3.72 3.72 0 0 0-.32-1.56 2.36 2.36 0 0 0-1-1.08 3.86 3.86 0 0 0-1.9-.4h-3.1v13ZM199.69 122.86v14.54H198v-14.54ZM206 137.66a4.45 4.45 0 0 1-1.88-.39 3.27 3.27 0 0 1-1.34-1.15 3.21 3.21 0 0 1-.5-1.81 2.89 2.89 0 0 1 .37-1.53 2.73 2.73 0 0 1 1-.92 5.7 5.7 0 0 1 1.37-.5c.5-.11 1-.2 1.51-.26l1.61-.2a2.32 2.32 0 0 0 .91-.23.61.61 0 0 0 .29-.57 2.26 2.26 0 0 0-.57-1.64 2.32 2.32 0 0 0-1.73-.58 2.93 2.93 0 0 0-2.84 1.65l-1.6-.57a3.87 3.87 0 0 1 1.15-1.55 4.24 4.24 0 0 1 1.56-.78 6.46 6.46 0 0 1 1.67-.23 6.33 6.33 0 0 1 1.21.13 3.81 3.81 0 0 1 1.33.51 3 3 0 0 1 1.07 1.15 4.39 4.39 0 0 1 .42 2.08v7.18h-1.71v-1.47h-.09a3.05 3.05 0 0 1-.56.76 3.36 3.36 0 0 1-1.06.69 4.09 4.09 0 0 1-1.59.23Zm.26-1.51a3.37 3.37 0 0 0 1.68-.39 2.66 2.66 0 0 0 1-1 2.61 2.61 0 0 0 .35-1.29v-1.54a1 1 0 0 1-.47.23 6.79 6.79 0 0 1-.82.18l-.9.13-.71.09a5.73 5.73 0 0 0-1.22.27 2.2 2.2 0 0 0-.91.56 1.44 1.44 0 0 0-.34 1 1.5 1.5 0 0 0 .65 1.32 2.82 2.82 0 0 0 1.66.44ZM215.72 130.84v6.56H214v-10.9h1.62v1.7h.14a3.22 3.22 0 0 1 1.17-1.34 3.62 3.62 0 0 1 2-.51 4 4 0 0 1 1.93.45 3.08 3.08 0 0 1 1.3 1.37 5.17 5.17 0 0 1 .46 2.3v6.93H221v-6.81a2.86 2.86 0 0 0-.66-2 2.4 2.4 0 0 0-1.84-.72 2.83 2.83 0 0 0-1.43.35 2.47 2.47 0 0 0-1 1 3.4 3.4 0 0 0-.35 1.62ZM342.56 127.4h-1.77a3.59 3.59 0 0 0-.54-1.33 3.77 3.77 0 0 0-.94-1 4 4 0 0 0-1.21-.59 4.65 4.65 0 0 0-1.4-.2 4.4 4.4 0 0 0-2.39.67 4.61 4.61 0 0 0-1.69 2 8.39 8.39 0 0 0 0 6.38 4.64 4.64 0 0 0 1.69 2 4.49 4.49 0 0 0 2.39.67 5 5 0 0 0 1.4-.2 4 4 0 0 0 1.21-.6 3.65 3.65 0 0 0 1.48-2.3h1.77a6 6 0 0 1-.73 2 5.38 5.38 0 0 1-1.3 1.5 5.71 5.71 0 0 1-1.76.93 6.33 6.33 0 0 1-2.07.32 6.07 6.07 0 0 1-3.31-.91 6.16 6.16 0 0 1-2.27-2.58 9.85 9.85 0 0 1 0-8 6.22 6.22 0 0 1 2.27-2.58 6.07 6.07 0 0 1 3.31-.91 6.6 6.6 0 0 1 2.07.32 5.71 5.71 0 0 1 1.76.93 5.38 5.38 0 0 1 1.3 1.5 6 6 0 0 1 .73 1.98ZM345.17 137.4v-10.9h1.62v1.64h.11a2.64 2.64 0 0 1 1.08-1.31 3.15 3.15 0 0 1 1.76-.5H350.62v1.71a2.63 2.63 0 0 0-.38-.07 4.37 4.37 0 0 0-.64 0 3 3 0 0 0-1.42.33 2.5 2.5 0 0 0-1 .91 2.47 2.47 0 0 0-.36 1.32v6.9ZM356.85 137.63a5.05 5.05 0 0 1-2.72-.7 4.66 4.66 0 0 1-1.76-2 6.75 6.75 0 0 1-.61-2.93 6.89 6.89 0 0 1 .61-3 4.92 4.92 0 0 1 1.72-2 4.64 4.64 0 0 1 2.59-.72 5.21 5.21 0 0 1 1.68.29 4.1 4.1 0 0 1 1.51.92 4.34 4.34 0 0 1 1.09 1.68 7.11 7.11 0 0 1 .4 2.57v.71H353V131h6.71a3.52 3.52 0 0 0-.37-1.65 2.84 2.84 0 0 0-1-1.14 2.94 2.94 0 0 0-1.58-.42 3 3 0 0 0-1.73.49 3.29 3.29 0 0 0-1.12 1.28 3.79 3.79 0 0 0-.39 1.7v1a4.58 4.58 0 0 0 .43 2.09 3 3 0 0 0 1.19 1.3 3.5 3.5 0 0 0 1.79.45 3.67 3.67 0 0 0 1.19-.19 2.59 2.59 0 0 0 .93-.57 2.49 2.49 0 0 0 .6-1l1.62.46a3.49 3.49 0 0 1-.86 1.44 4.06 4.06 0 0 1-1.49 1 5.47 5.47 0 0 1-2.07.39ZM367.13 137.66a4.42 4.42 0 0 1-1.88-.39 3.2 3.2 0 0 1-1.34-1.15 3.13 3.13 0 0 1-.5-1.81 2.8 2.8 0 0 1 .37-1.53 2.63 2.63 0 0 1 1-.92 5.86 5.86 0 0 1 1.37-.5c.5-.11 1-.2 1.51-.26l1.62-.2a2.43 2.43 0 0 0 .91-.23.6.6 0 0 0 .28-.57 2.26 2.26 0 0 0-.57-1.64 2.32 2.32 0 0 0-1.73-.58 3 3 0 0 0-1.88.53 3.18 3.18 0 0 0-1 1.12l-1.59-.57a3.76 3.76 0 0 1 1.14-1.55 4.4 4.4 0 0 1 1.56-.78 6.59 6.59 0 0 1 1.68-.23 6.33 6.33 0 0 1 1.21.13 3.77 3.77 0 0 1 1.32.51 2.92 2.92 0 0 1 1.07 1.15 4.26 4.26 0 0 1 .43 2.08v7.18h-1.68v-1.47h-.08a3.12 3.12 0 0 1-.57.76 3.25 3.25 0 0 1-1.06.69 4.07 4.07 0 0 1-1.59.23Zm.26-1.51a3.37 3.37 0 0 0 1.68-.39 2.63 2.63 0 0 0 1-1 2.5 2.5 0 0 0 .35-1.29v-1.54a.92.92 0 0 1-.46.23 7.24 7.24 0 0 1-.82.18l-.91.13-.7.09a5.59 5.59 0 0 0-1.22.27 2.13 2.13 0 0 0-.91.56 1.44 1.44 0 0 0-.35 1 1.5 1.5 0 0 0 .65 1.32 2.87 2.87 0 0 0 1.69.44ZM379.94 126.5v1.42h-5.65v-1.42Zm-4-2.62h1.67v10.4a2.11 2.11 0 0 0 .21 1.06 1 1 0 0 0 .54.47 2.06 2.06 0 0 0 .7.12 2.86 2.86 0 0 0 .46 0l.28-.06.34 1.51-.47.13a4.16 4.16 0 0 1-.78.07 3.46 3.46 0 0 1-1.39-.31 2.71 2.71 0 0 1-1.12-.93 2.63 2.63 0 0 1-.44-1.58ZM386.93 137.63a5.08 5.08 0 0 1-2.72-.7 4.64 4.64 0 0 1-1.75-2 6.61 6.61 0 0 1-.61-2.93 6.75 6.75 0 0 1 .61-3 4.78 4.78 0 0 1 1.72-2 4.63 4.63 0 0 1 2.58-.72 5.12 5.12 0 0 1 1.68.29 4.14 4.14 0 0 1 1.52.92 4.44 4.44 0 0 1 1.08 1.68 7.1 7.1 0 0 1 .41 2.57v.71H383V131h6.7a3.64 3.64 0 0 0-.36-1.65 2.86 2.86 0 0 0-1-1.14 2.91 2.91 0 0 0-1.58-.42 3 3 0 0 0-1.73.49 3.37 3.37 0 0 0-1.12 1.28 3.79 3.79 0 0 0-.39 1.7v1a4.72 4.72 0 0 0 .43 2.09 3 3 0 0 0 1.2 1.3 3.44 3.44 0 0 0 1.78.45 3.77 3.77 0 0 0 1.2-.19 2.55 2.55 0 0 0 .92-.57 2.4 2.4 0 0 0 .61-1l1.62.46a3.6 3.6 0 0 1-.86 1.44 4.06 4.06 0 0 1-1.49 1 5.52 5.52 0 0 1-2 .39ZM491 122.86l4.32 12.24h.17l4.32-12.24h1.85l-5.34 14.54h-1.82l-5.34-14.54ZM507.26 137.63a5 5 0 0 1-2.71-.7 4.59 4.59 0 0 1-1.76-2 6.61 6.61 0 0 1-.61-2.93 6.75 6.75 0 0 1 .61-3 4.85 4.85 0 0 1 1.72-2 4.63 4.63 0 0 1 2.58-.72 5.22 5.22 0 0 1 1.69.29 4.18 4.18 0 0 1 1.51.92 4.45 4.45 0 0 1 1.09 1.68 7.11 7.11 0 0 1 .4 2.57v.71h-8.41V131h6.71a3.52 3.52 0 0 0-.37-1.65 2.79 2.79 0 0 0-1-1.14 2.89 2.89 0 0 0-1.58-.42 3 3 0 0 0-1.73.49 3.35 3.35 0 0 0-1.11 1.28 3.79 3.79 0 0 0-.39 1.7v1a4.58 4.58 0 0 0 .43 2.09 3 3 0 0 0 1.19 1.3 3.46 3.46 0 0 0 1.78.45 3.77 3.77 0 0 0 1.2-.19 2.59 2.59 0 0 0 .93-.57 2.49 2.49 0 0 0 .6-1l1.62.46a3.6 3.6 0 0 1-.86 1.44 4.06 4.06 0 0 1-1.49 1 5.48 5.48 0 0 1-2.04.39ZM514.34 137.4v-10.9H516v1.64h.11a2.64 2.64 0 0 1 1.08-1.31 3.15 3.15 0 0 1 1.76-.5h.88v1.71a2.63 2.63 0 0 0-.38-.07 4.48 4.48 0 0 0-.64 0 3 3 0 0 0-1.42.33 2.6 2.6 0 0 0-1 .91 2.47 2.47 0 0 0-.36 1.32v6.9ZM522.63 124.68a1.17 1.17 0 0 1-.84-.34 1.09 1.09 0 0 1 0-1.6 1.21 1.21 0 0 1 .84-.34 1.18 1.18 0 0 1 .84.34 1.07 1.07 0 0 1 0 1.6 1.14 1.14 0 0 1-.84.34Zm-.85 12.72v-10.9h1.68v10.9ZM531.38 126.5v1.42h-5.88v-1.42Zm-4.12 10.9V125a2.64 2.64 0 0 1 .44-1.56 2.77 2.77 0 0 1 1.15-.94 3.57 3.57 0 0 1 1.48-.31 4 4 0 0 1 1 .1 3.12 3.12 0 0 1 .58.18l-.48 1.45-.35-.11a2.38 2.38 0 0 0-.59-.06 1.5 1.5 0 0 0-1.19.42 1.79 1.79 0 0 0-.37 1.23v12ZM534.82 141.5a4.28 4.28 0 0 1-.76-.07 2.56 2.56 0 0 1-.46-.13l.43-1.48a3.22 3.22 0 0 0 1.07.11 1.29 1.29 0 0 0 .84-.41 3.42 3.42 0 0 0 .67-1.21l.31-.85-4-11h1.82l3 8.69h.11l3-8.69h1.82L538 139a5 5 0 0 1-.77 1.4 3.13 3.13 0 0 1-1.07.83 3.35 3.35 0 0 1-1.34.27ZM633.19 137.4v-14.54h4.92a5.67 5.67 0 0 1 2.8.61 4 4 0 0 1 1.62 1.66 5.5 5.5 0 0 1 0 4.67 3.92 3.92 0 0 1-1.61 1.67 5.58 5.58 0 0 1-2.78.62h-3.53v-1.56h3.47a3.77 3.77 0 0 0 1.88-.41 2.48 2.48 0 0 0 1-1.09 3.76 3.76 0 0 0 .32-1.57 3.72 3.72 0 0 0-.32-1.56 2.38 2.38 0 0 0-1-1.08 3.83 3.83 0 0 0-1.9-.4H635v13ZM648.87 137.66a4.45 4.45 0 0 1-1.88-.39 3.27 3.27 0 0 1-1.34-1.15 3.21 3.21 0 0 1-.5-1.81 2.89 2.89 0 0 1 .37-1.53 2.73 2.73 0 0 1 1-.92 5.7 5.7 0 0 1 1.37-.5c.5-.11 1-.2 1.51-.26l1.61-.2a2.32 2.32 0 0 0 .91-.23.61.61 0 0 0 .29-.57 2.26 2.26 0 0 0-.57-1.64 2.32 2.32 0 0 0-1.73-.58 2.93 2.93 0 0 0-2.84 1.65l-1.6-.57a3.87 3.87 0 0 1 1.15-1.55 4.24 4.24 0 0 1 1.56-.78 6.46 6.46 0 0 1 1.67-.23 6.33 6.33 0 0 1 1.21.13 3.81 3.81 0 0 1 1.33.51 3 3 0 0 1 1.07 1.15 4.39 4.39 0 0 1 .42 2.08v7.18h-1.68v-1.47h-.09a2.88 2.88 0 0 1-.57.76 3.19 3.19 0 0 1-1 .69 4.09 4.09 0 0 1-1.67.23Zm.26-1.51a3.37 3.37 0 0 0 1.68-.39 2.66 2.66 0 0 0 1-1 2.61 2.61 0 0 0 .35-1.29v-1.54a1 1 0 0 1-.47.23 6.79 6.79 0 0 1-.82.18l-.9.13-.71.09a5.73 5.73 0 0 0-1.22.27 2.2 2.2 0 0 0-.91.56 1.44 1.44 0 0 0-.34 1 1.48 1.48 0 0 0 .65 1.32 2.82 2.82 0 0 0 1.69.44ZM661.37 137.63a4.54 4.54 0 0 1-4.34-2.72 7.29 7.29 0 0 1 0-5.84 4.86 4.86 0 0 1 1.71-2 4.64 4.64 0 0 1 2.59-.72 5 5 0 0 1 2.07.43 3.87 3.87 0 0 1 1.51 1.19 3.72 3.72 0 0 1 .74 1.79H664a2.57 2.57 0 0 0-2.62-1.9 2.92 2.92 0 0 0-1.71.51 3.31 3.31 0 0 0-1.14 1.42 5.2 5.2 0 0 0-.41 2.16 5.5 5.5 0 0 0 .4 2.2 3.37 3.37 0 0 0 1.14 1.46 2.94 2.94 0 0 0 1.72.52 3 3 0 0 0 1.19-.23 2.37 2.37 0 0 0 .9-.65 2.59 2.59 0 0 0 .53-1h1.68A3.83 3.83 0 0 1 665 136a4 4 0 0 1-1.46 1.22 4.77 4.77 0 0 1-2.17.41ZM668.11 137.4v-14.54h1.67v14.54Zm1.56-4v-2.08h.33l4.77-4.85h2.08l-5.09 5.14h-.14Zm5.37 4-4.26-5.4 1.19-1.17 5.2 6.56ZM682.2 137.66a4.42 4.42 0 0 1-1.88-.39 3.29 3.29 0 0 1-1.35-1.15 3.2 3.2 0 0 1-.49-1.81 2.8 2.8 0 0 1 .37-1.53 2.63 2.63 0 0 1 1-.92 5.86 5.86 0 0 1 1.37-.5c.5-.11 1-.2 1.51-.26l1.62-.2a2.32 2.32 0 0 0 .9-.23.59.59 0 0 0 .29-.57 2.26 2.26 0 0 0-.57-1.64 2.32 2.32 0 0 0-1.73-.58 3 3 0 0 0-2.84 1.65l-1.59-.57a3.76 3.76 0 0 1 1.14-1.55 4.4 4.4 0 0 1 1.56-.78 6.58 6.58 0 0 1 1.67-.23 6.25 6.25 0 0 1 1.21.13 3.81 3.81 0 0 1 1.33.51 2.92 2.92 0 0 1 1.07 1.15 4.26 4.26 0 0 1 .43 2.08v7.18h-1.68v-1.47h-.08a3.41 3.41 0 0 1-.57.76 3.36 3.36 0 0 1-1.06.69 4.07 4.07 0 0 1-1.63.23Zm.25-1.51a3.31 3.31 0 0 0 1.68-.39 2.6 2.6 0 0 0 1-1 2.5 2.5 0 0 0 .35-1.29v-1.54a.92.92 0 0 1-.46.23 7 7 0 0 1-.83.18l-.9.13-.71.09a5.63 5.63 0 0 0-1.21.27 2.13 2.13 0 0 0-.91.56 1.44 1.44 0 0 0-.35 1 1.5 1.5 0 0 0 .65 1.32 2.86 2.86 0 0 0 1.69.44ZM694.67 141.72a6.18 6.18 0 0 1-2.09-.31 4.31 4.31 0 0 1-1.45-.81 4.49 4.49 0 0 1-.92-1.06l1.33-.94c.16.2.35.42.58.68a2.88 2.88 0 0 0 1 .68 3.73 3.73 0 0 0 1.59.29 3.59 3.59 0 0 0 2.18-.64 2.36 2.36 0 0 0 .86-2v-2.21h-.14c-.13.2-.3.44-.52.73a3.13 3.13 0 0 1-1 .78 3.65 3.65 0 0 1-1.69.33 4.49 4.49 0 0 1-2.37-.62 4.39 4.39 0 0 1-1.66-1.82 6.38 6.38 0 0 1-.61-2.9 6.82 6.82 0 0 1 .59-2.92A4.6 4.6 0 0 1 692 127a4.31 4.31 0 0 1 2.42-.69 3.44 3.44 0 0 1 1.7.36 2.87 2.87 0 0 1 1 .79c.23.3.4.54.53.73h.17v-1.69h1.62v11.22a3.88 3.88 0 0 1-.64 2.29 3.69 3.69 0 0 1-1.7 1.3 6.72 6.72 0 0 1-2.43.41Zm-.06-6a3.09 3.09 0 0 0 1.71-.46 3 3 0 0 0 1.06-1.33 5.42 5.42 0 0 0 .36-2.08 5.6 5.6 0 0 0-.36-2.08 3 3 0 0 0-1-1.41 3.16 3.16 0 0 0-3.49 0 3.29 3.29 0 0 0-1.06 1.45 5.62 5.62 0 0 0-.35 2 5.22 5.22 0 0 0 .36 2 2.92 2.92 0 0 0 1.07 1.36 3 3 0 0 0 1.7.56ZM707 137.63a5.08 5.08 0 0 1-2.72-.7 4.57 4.57 0 0 1-1.75-2 6.61 6.61 0 0 1-.62-2.93 6.75 6.75 0 0 1 .62-3 4.78 4.78 0 0 1 1.72-2 4.59 4.59 0 0 1 2.58-.72 5.12 5.12 0 0 1 1.68.29 4.1 4.1 0 0 1 1.51.92 4.34 4.34 0 0 1 1.09 1.68 7.11 7.11 0 0 1 .4 2.57v.71h-8.4V131h6.7a3.52 3.52 0 0 0-.37-1.65 2.84 2.84 0 0 0-1-1.14 2.94 2.94 0 0 0-1.58-.42 3 3 0 0 0-1.73.49 3.29 3.29 0 0 0-1.12 1.28 3.79 3.79 0 0 0-.39 1.7v1a4.58 4.58 0 0 0 .43 2.09 2.92 2.92 0 0 0 1.2 1.3 3.44 3.44 0 0 0 1.78.45 3.67 3.67 0 0 0 1.19-.19 2.59 2.59 0 0 0 .93-.57 2.49 2.49 0 0 0 .6-1l1.62.46a3.49 3.49 0 0 1-.86 1.44 4 4 0 0 1-1.49 1 5.43 5.43 0 0 1-2.02.39ZM804.75 126.5a2.25 2.25 0 0 0-1-1.68 4 4 0 0 0-2.23-.6 4.21 4.21 0 0 0-1.69.32 2.63 2.63 0 0 0-1.12.85 2.05 2.05 0 0 0-.4 1.25 1.67 1.67 0 0 0 .28 1 2.37 2.37 0 0 0 .72.69 4.13 4.13 0 0 0 .92.45c.33.12.62.21.89.28l1.48.4c.38.1.8.24 1.27.41a6 6 0 0 1 1.34.72 3.66 3.66 0 0 1 1.06 1.15 3.31 3.31 0 0 1 .42 1.73 3.86 3.86 0 0 1-.61 2.13 4.33 4.33 0 0 1-1.79 1.51 7.56 7.56 0 0 1-5.56.06 4.37 4.37 0 0 1-1.79-1.41 4 4 0 0 1-.73-2.1H798a2.2 2.2 0 0 0 .55 1.36 2.93 2.93 0 0 0 1.24.8 5 5 0 0 0 1.61.26 4.76 4.76 0 0 0 1.82-.33 3.12 3.12 0 0 0 1.27-.92 2.2 2.2 0 0 0 .47-1.39 1.69 1.69 0 0 0-.41-1.18 3 3 0 0 0-1.06-.74 10.89 10.89 0 0 0-1.43-.5l-1.79-.51a6.62 6.62 0 0 1-2.7-1.4 3.07 3.07 0 0 1-1-2.38 3.55 3.55 0 0 1 .66-2.13 4.38 4.38 0 0 1 1.79-1.42 6.49 6.49 0 0 1 5 0 4.32 4.32 0 0 1 1.73 1.37 3.37 3.37 0 0 1 .68 2ZM813.9 137.63a5.05 5.05 0 0 1-2.72-.7 4.59 4.59 0 0 1-1.76-2 6.61 6.61 0 0 1-.61-2.93 6.75 6.75 0 0 1 .61-3 4.85 4.85 0 0 1 1.72-2 4.63 4.63 0 0 1 2.58-.72 5.22 5.22 0 0 1 1.69.29 4.1 4.1 0 0 1 1.51.92 4.45 4.45 0 0 1 1.09 1.68 7.11 7.11 0 0 1 .4 2.57v.71H810V131h6.71a3.52 3.52 0 0 0-.37-1.65 2.79 2.79 0 0 0-1-1.14 2.89 2.89 0 0 0-1.58-.42 3 3 0 0 0-1.72.49 3.29 3.29 0 0 0-1.12 1.28 3.79 3.79 0 0 0-.39 1.7v1a4.58 4.58 0 0 0 .43 2.09 3 3 0 0 0 1.19 1.3 3.47 3.47 0 0 0 1.79.45 3.76 3.76 0 0 0 1.19-.19 2.59 2.59 0 0 0 .93-.57 2.49 2.49 0 0 0 .6-1l1.62.46a3.49 3.49 0 0 1-.86 1.44 4.06 4.06 0 0 1-1.49 1 5.47 5.47 0 0 1-2.03.39ZM825.4 137.63a4.56 4.56 0 0 1-4.35-2.72 6.86 6.86 0 0 1-.59-2.9 6.69 6.69 0 0 1 .61-2.94 4.81 4.81 0 0 1 1.72-2 4.63 4.63 0 0 1 2.58-.72 5 5 0 0 1 2.08.43A4 4 0 0 1 829 128a3.71 3.71 0 0 1 .73 1.79H828a2.54 2.54 0 0 0-2.61-1.9 2.92 2.92 0 0 0-1.71.51 3.33 3.33 0 0 0-1.15 1.42 5.37 5.37 0 0 0-.41 2.16 5.5 5.5 0 0 0 .41 2.2 3.28 3.28 0 0 0 1.13 1.46 3 3 0 0 0 1.73.52 3 3 0 0 0 1.19-.23 2.54 2.54 0 0 0 .9-.65 2.57 2.57 0 0 0 .52-1h1.68A3.82 3.82 0 0 1 829 136a3.92 3.92 0 0 1-1.47 1.22 4.73 4.73 0 0 1-2.13.41ZM839 132.94v-6.44h1.67v10.9H839v-1.84h-.12a3.55 3.55 0 0 1-1.18 1.44 3.46 3.46 0 0 1-2 .58 3.61 3.61 0 0 1-1.82-.45 3.15 3.15 0 0 1-1.25-1.37 5 5 0 0 1-.46-2.3v-6.96h1.68v6.81a2.67 2.67 0 0 0 .67 1.91 2.28 2.28 0 0 0 1.72.71 2.91 2.91 0 0 0 1.27-.32 2.83 2.83 0 0 0 1.09-1 2.93 2.93 0 0 0 .4-1.67ZM843.75 137.4v-10.9h1.62v1.64h.11a2.64 2.64 0 0 1 1.08-1.31 3.15 3.15 0 0 1 1.77-.5h.88v1.71l-.39-.07a4.26 4.26 0 0 0-.64 0 2.94 2.94 0 0 0-1.41.33 2.53 2.53 0 0 0-1 .91 2.47 2.47 0 0 0-.36 1.32v6.9ZM855.43 137.63a5.08 5.08 0 0 1-2.72-.7 4.57 4.57 0 0 1-1.75-2 6.61 6.61 0 0 1-.62-2.93 6.75 6.75 0 0 1 .62-3 4.78 4.78 0 0 1 1.72-2 4.59 4.59 0 0 1 2.58-.72 5.12 5.12 0 0 1 1.68.29 4 4 0 0 1 1.51.92 4.34 4.34 0 0 1 1.09 1.68 7.1 7.1 0 0 1 .41 2.57v.71h-8.41V131h6.7a3.52 3.52 0 0 0-.37-1.65 2.77 2.77 0 0 0-1-1.14 2.94 2.94 0 0 0-1.58-.42 3 3 0 0 0-1.73.49 3.29 3.29 0 0 0-1.12 1.28 3.79 3.79 0 0 0-.39 1.7v1a4.58 4.58 0 0 0 .43 2.09 3 3 0 0 0 1.2 1.3 3.44 3.44 0 0 0 1.78.45 3.67 3.67 0 0 0 1.19-.19 2.59 2.59 0 0 0 .93-.57 2.64 2.64 0 0 0 .61-1l1.61.46a3.58 3.58 0 0 1-.85 1.44 4.1 4.1 0 0 1-1.5 1 5.43 5.43 0 0 1-2.02.39ZM948.72 137.4v-14.54h4.91a5.91 5.91 0 0 1 2.8.58 3.66 3.66 0 0 1 1.62 1.59 4.86 4.86 0 0 1 .52 2.29 4.79 4.79 0 0 1-.52 2.28 3.74 3.74 0 0 1-1.61 1.56 6.11 6.11 0 0 1-2.78.56h-4v-1.59h3.92a4.33 4.33 0 0 0 1.88-.34 2.19 2.19 0 0 0 1-1 3.32 3.32 0 0 0 .32-1.5 3.38 3.38 0 0 0-.33-1.53 2.22 2.22 0 0 0-1-1 4.26 4.26 0 0 0-1.9-.36h-3.09v13Zm6.84-6.53 3.58 6.53h-2l-3.53-6.53ZM965.73 137.63a5 5 0 0 1-2.71-.7 4.59 4.59 0 0 1-1.76-2 6.61 6.61 0 0 1-.61-2.93 6.75 6.75 0 0 1 .61-3 4.78 4.78 0 0 1 1.72-2 4.63 4.63 0 0 1 2.58-.72 5.22 5.22 0 0 1 1.69.29 4.18 4.18 0 0 1 1.51.92 4.44 4.44 0 0 1 1.08 1.68 7.1 7.1 0 0 1 .41 2.57v.71h-8.41V131h6.71a3.64 3.64 0 0 0-.37-1.65 2.79 2.79 0 0 0-1-1.14 2.91 2.91 0 0 0-1.58-.42 3 3 0 0 0-1.73.49 3.37 3.37 0 0 0-1.12 1.28 3.79 3.79 0 0 0-.39 1.7v1a4.72 4.72 0 0 0 .43 2.09 3 3 0 0 0 1.2 1.3 3.46 3.46 0 0 0 1.78.45 3.77 3.77 0 0 0 1.2-.19 2.59 2.59 0 0 0 .93-.57 2.49 2.49 0 0 0 .6-1l1.62.46a3.6 3.6 0 0 1-.86 1.44 4.06 4.06 0 0 1-1.49 1 5.48 5.48 0 0 1-2.04.39ZM974.48 122.86v14.54h-1.67v-14.54ZM982.13 137.63a5.05 5.05 0 0 1-2.72-.7 4.59 4.59 0 0 1-1.76-2A6.61 6.61 0 0 1 977 132a6.75 6.75 0 0 1 .61-3 4.85 4.85 0 0 1 1.72-2 4.63 4.63 0 0 1 2.58-.72 5.22 5.22 0 0 1 1.69.29 4.1 4.1 0 0 1 1.51.92 4.45 4.45 0 0 1 1.09 1.68 7.11 7.11 0 0 1 .4 2.57v.71h-8.41V131h6.71a3.52 3.52 0 0 0-.37-1.65 2.79 2.79 0 0 0-1-1.14 2.89 2.89 0 0 0-1.58-.42 3 3 0 0 0-1.72.49 3.29 3.29 0 0 0-1.12 1.28 3.79 3.79 0 0 0-.39 1.7v1a4.58 4.58 0 0 0 .43 2.09 3 3 0 0 0 1.19 1.3 3.47 3.47 0 0 0 1.79.45 3.76 3.76 0 0 0 1.19-.19 2.59 2.59 0 0 0 .93-.57 2.49 2.49 0 0 0 .6-1l1.62.46a3.49 3.49 0 0 1-.86 1.44 4.06 4.06 0 0 1-1.49 1 5.47 5.47 0 0 1-1.99.39ZM992.41 137.66a4.42 4.42 0 0 1-1.88-.39 3.29 3.29 0 0 1-1.35-1.15 3.2 3.2 0 0 1-.49-1.81 2.8 2.8 0 0 1 .37-1.53 2.63 2.63 0 0 1 1-.92 5.86 5.86 0 0 1 1.37-.5c.5-.11 1-.2 1.51-.26l1.62-.2a2.32 2.32 0 0 0 .9-.23.59.59 0 0 0 .29-.57 2.26 2.26 0 0 0-.57-1.64 2.32 2.32 0 0 0-1.73-.58 3 3 0 0 0-1.88.53 3.08 3.08 0 0 0-1 1.12l-1.59-.57a3.76 3.76 0 0 1 1.14-1.55 4.4 4.4 0 0 1 1.56-.78 6.58 6.58 0 0 1 1.67-.23 6.35 6.35 0 0 1 1.22.13 3.84 3.84 0 0 1 1.32.51 2.92 2.92 0 0 1 1.07 1.15 4.26 4.26 0 0 1 .43 2.08v7.18h-1.68v-1.47h-.08a3.41 3.41 0 0 1-.57.76 3.36 3.36 0 0 1-1.06.69 4.07 4.07 0 0 1-1.59.23Zm.25-1.51a3.31 3.31 0 0 0 1.68-.39 2.6 2.6 0 0 0 1-1 2.5 2.5 0 0 0 .35-1.29v-1.54a.92.92 0 0 1-.46.23 7 7 0 0 1-.83.18l-.9.13-.7.09a5.59 5.59 0 0 0-1.22.27 2.13 2.13 0 0 0-.91.56 1.44 1.44 0 0 0-.35 1 1.5 1.5 0 0 0 .65 1.32 2.86 2.86 0 0 0 1.69.44ZM1008.2 128.94l-1.5.42a2.86 2.86 0 0 0-.42-.73 2 2 0 0 0-.74-.59 2.61 2.61 0 0 0-1.2-.24 2.88 2.88 0 0 0-1.66.46 1.36 1.36 0 0 0-.67 1.16 1.18 1.18 0 0 0 .46 1 3.74 3.74 0 0 0 1.42.6l1.62.4a4.6 4.6 0 0 1 2.18 1.08 2.59 2.59 0 0 1 .71 1.87 2.82 2.82 0 0 1-.53 1.68 3.71 3.71 0 0 1-1.5 1.17 5.51 5.51 0 0 1-2.23.42 4.93 4.93 0 0 1-2.76-.72 3.26 3.26 0 0 1-1.39-2.12l1.59-.4a2.2 2.2 0 0 0 .87 1.32 2.81 2.81 0 0 0 1.66.44 3.07 3.07 0 0 0 1.87-.5 1.45 1.45 0 0 0 .69-1.2 1.28 1.28 0 0 0-.4-1 2.53 2.53 0 0 0-1.22-.57l-1.82-.43a4.34 4.34 0 0 1-2.2-1.11 2.64 2.64 0 0 1-.7-1.87 2.7 2.7 0 0 1 .53-1.64 3.46 3.46 0 0 1 1.42-1.11 5 5 0 0 1 2.06-.41 4.13 4.13 0 0 1 2.55.71 3.9 3.9 0 0 1 1.31 1.91ZM1015.51 137.63a5.05 5.05 0 0 1-2.72-.7 4.59 4.59 0 0 1-1.76-2 6.61 6.61 0 0 1-.61-2.93 6.75 6.75 0 0 1 .61-3 4.85 4.85 0 0 1 1.72-2 4.63 4.63 0 0 1 2.58-.72 5.22 5.22 0 0 1 1.69.29 4.1 4.1 0 0 1 1.51.92 4.45 4.45 0 0 1 1.09 1.68 7.11 7.11 0 0 1 .4 2.57v.71h-8.41V131h6.71a3.52 3.52 0 0 0-.37-1.65 2.79 2.79 0 0 0-1-1.14 2.89 2.89 0 0 0-1.58-.42 3 3 0 0 0-1.73.49 3.35 3.35 0 0 0-1.11 1.28 3.79 3.79 0 0 0-.39 1.7v1a4.58 4.58 0 0 0 .43 2.09 3 3 0 0 0 1.19 1.3 3.47 3.47 0 0 0 1.79.45 3.76 3.76 0 0 0 1.19-.19 2.59 2.59 0 0 0 .93-.57 2.49 2.49 0 0 0 .6-1l1.62.46a3.49 3.49 0 0 1-.86 1.44 4.06 4.06 0 0 1-1.49 1 5.47 5.47 0 0 1-2.03.39ZM1106.12 127.4h-1.77a3.59 3.59 0 0 0-.54-1.33 3.77 3.77 0 0 0-.94-1 4 4 0 0 0-1.21-.59 4.65 4.65 0 0 0-1.4-.2 4.4 4.4 0 0 0-2.39.67 4.61 4.61 0 0 0-1.69 2 8.39 8.39 0 0 0 0 6.38 4.64 4.64 0 0 0 1.69 2 4.49 4.49 0 0 0 2.39.67 5 5 0 0 0 1.4-.2 4 4 0 0 0 1.21-.6 3.65 3.65 0 0 0 1.48-2.3h1.77a6 6 0 0 1-.73 2 5.25 5.25 0 0 1-1.31 1.5 5.55 5.55 0 0 1-1.75.93 6.33 6.33 0 0 1-2.07.32 6.07 6.07 0 0 1-3.31-.91 6.25 6.25 0 0 1-2.28-2.58 10 10 0 0 1 0-8 6.31 6.31 0 0 1 2.28-2.58 6.07 6.07 0 0 1 3.31-.91 6.6 6.6 0 0 1 2.07.32 5.55 5.55 0 0 1 1.75.93 5.25 5.25 0 0 1 1.31 1.5 6 6 0 0 1 .73 1.98ZM1113.16 137.63a4.59 4.59 0 0 1-4.32-2.67 6.54 6.54 0 0 1-.62-3 6.64 6.64 0 0 1 .62-3 4.69 4.69 0 0 1 1.73-2 5.08 5.08 0 0 1 5.18 0 4.69 4.69 0 0 1 1.73 2 6.64 6.64 0 0 1 .62 3 6.54 6.54 0 0 1-.62 3 4.59 4.59 0 0 1-4.32 2.67Zm0-1.5a2.92 2.92 0 0 0 1.85-.58 3.39 3.39 0 0 0 1.07-1.51 6.09 6.09 0 0 0 0-4.07 3.46 3.46 0 0 0-1.07-1.53 3.24 3.24 0 0 0-3.7 0 3.46 3.46 0 0 0-1.07 1.53 6.09 6.09 0 0 0 0 4.07 3.39 3.39 0 0 0 1.07 1.51 2.92 2.92 0 0 0 1.85.58ZM1122.34 130.84v6.56h-1.68v-10.9h1.62v1.7h.14a3.22 3.22 0 0 1 1.17-1.34 3.62 3.62 0 0 1 2-.51 4 4 0 0 1 1.93.45 3.08 3.08 0 0 1 1.3 1.37 5.17 5.17 0 0 1 .46 2.3v6.93h-1.68v-6.81a2.86 2.86 0 0 0-.66-2 2.4 2.4 0 0 0-1.84-.72 2.83 2.83 0 0 0-1.43.35 2.47 2.47 0 0 0-1 1 3.4 3.4 0 0 0-.33 1.62ZM1137.22 126.5v1.42h-5.88v-1.42Zm-4.12 10.9V125a2.64 2.64 0 0 1 .44-1.56 2.77 2.77 0 0 1 1.15-.94 3.57 3.57 0 0 1 1.48-.31 4 4 0 0 1 1 .1 2.89 2.89 0 0 1 .58.18l-.48 1.45-.35-.11a2.38 2.38 0 0 0-.59-.06 1.5 1.5 0 0 0-1.19.42 1.79 1.79 0 0 0-.37 1.23v12ZM1140.43 124.68a1.17 1.17 0 0 1-.84-.34 1.09 1.09 0 0 1 0-1.6 1.22 1.22 0 0 1 1.69 0 1.09 1.09 0 0 1 0 1.6 1.18 1.18 0 0 1-.85.34Zm-.85 12.72v-10.9h1.68v10.9ZM1148.73 141.72a6.18 6.18 0 0 1-2.09-.31 4.31 4.31 0 0 1-1.45-.81 4.49 4.49 0 0 1-.92-1.06l1.33-.94c.16.2.35.42.58.68a2.94 2.94 0 0 0 1 .68 3.81 3.81 0 0 0 1.6.29 3.59 3.59 0 0 0 2.18-.64 2.36 2.36 0 0 0 .86-2v-2.21h-.14c-.13.2-.3.44-.52.73a3.13 3.13 0 0 1-1 .78 3.65 3.65 0 0 1-1.69.33 4.49 4.49 0 0 1-2.37-.62 4.39 4.39 0 0 1-1.66-1.82 6.38 6.38 0 0 1-.61-2.9 6.82 6.82 0 0 1 .59-2.92A4.65 4.65 0 0 1 1146 127a4.37 4.37 0 0 1 2.43-.69 3.44 3.44 0 0 1 1.7.36 2.87 2.87 0 0 1 1 .79c.23.3.4.54.53.73h.17v-1.69h1.62v11.22a3.88 3.88 0 0 1-.64 2.29 3.69 3.69 0 0 1-1.7 1.3 6.72 6.72 0 0 1-2.38.41Zm-.06-6a3.12 3.12 0 0 0 1.71-.46 3 3 0 0 0 1.06-1.33 5.42 5.42 0 0 0 .36-2.08 5.6 5.6 0 0 0-.36-2.08 3 3 0 0 0-1-1.41 3.16 3.16 0 0 0-3.49 0 3.29 3.29 0 0 0-1.06 1.45 5.62 5.62 0 0 0-.35 2 5.22 5.22 0 0 0 .36 2 2.92 2.92 0 0 0 1.07 1.36 3 3 0 0 0 1.7.56ZM1163.39 132.94v-6.44h1.67v10.9h-1.67v-1.84h-.11a3.66 3.66 0 0 1-1.2 1.41 3.46 3.46 0 0 1-2 .58 3.61 3.61 0 0 1-1.82-.45 3.15 3.15 0 0 1-1.25-1.37 5.17 5.17 0 0 1-.46-2.3v-6.93h1.68v6.81a2.67 2.67 0 0 0 .67 1.91 2.28 2.28 0 0 0 1.72.71 2.91 2.91 0 0 0 1.27-.32 2.83 2.83 0 0 0 1.09-1 2.93 2.93 0 0 0 .41-1.67ZM1168.13 137.4v-10.9h1.62v1.64h.12a2.54 2.54 0 0 1 1.08-1.31 3.12 3.12 0 0 1 1.76-.5h.88v1.71l-.39-.07a4.26 4.26 0 0 0-.64 0 2.94 2.94 0 0 0-1.41.33 2.53 2.53 0 0 0-1 .91 2.47 2.47 0 0 0-.36 1.32v6.9ZM1179.81 137.63a5.08 5.08 0 0 1-2.72-.7 4.57 4.57 0 0 1-1.75-2 6.61 6.61 0 0 1-.62-2.93 6.75 6.75 0 0 1 .62-3 4.78 4.78 0 0 1 1.72-2 4.59 4.59 0 0 1 2.58-.72 5.12 5.12 0 0 1 1.68.29 4 4 0 0 1 1.51.92 4.34 4.34 0 0 1 1.09 1.68 7.1 7.1 0 0 1 .41 2.57v.71h-8.41V131h6.7a3.64 3.64 0 0 0-.36-1.65 2.86 2.86 0 0 0-1-1.14 2.91 2.91 0 0 0-1.58-.42 3 3 0 0 0-1.73.49 3.29 3.29 0 0 0-1.12 1.28 3.79 3.79 0 0 0-.39 1.7v1a4.58 4.58 0 0 0 .43 2.09 3 3 0 0 0 1.2 1.3 3.44 3.44 0 0 0 1.78.45 3.77 3.77 0 0 0 1.2-.19 2.5 2.5 0 0 0 1.53-1.52l1.62.46a3.6 3.6 0 0 1-.86 1.44 4.1 4.1 0 0 1-1.5 1 5.43 5.43 0 0 1-2.03.34ZM1261.41 122.86h2.1l5 12.07h.17l4.94-12.07h2.1v14.54H1274v-11.05h-.15l-4.54 11.05h-1.59l-4.55-11.05h-.14v11.05h-1.65ZM1283.4 137.63a4.59 4.59 0 0 1-4.32-2.67 6.54 6.54 0 0 1-.62-3 6.64 6.64 0 0 1 .62-3 4.69 4.69 0 0 1 1.73-2 5.08 5.08 0 0 1 5.18 0 4.69 4.69 0 0 1 1.73 2 6.64 6.64 0 0 1 .62 3 6.54 6.54 0 0 1-.62 3 4.59 4.59 0 0 1-4.32 2.67Zm0-1.5a2.92 2.92 0 0 0 1.85-.58 3.39 3.39 0 0 0 1.07-1.51 6.09 6.09 0 0 0 0-4.07 3.46 3.46 0 0 0-1.07-1.53 3.24 3.24 0 0 0-3.7 0 3.46 3.46 0 0 0-1.07 1.53 6.09 6.09 0 0 0 0 4.07 3.39 3.39 0 0 0 1.07 1.51 2.92 2.92 0 0 0 1.85.58ZM1292.58 130.84v6.56h-1.68v-10.9h1.62v1.7h.14a3.22 3.22 0 0 1 1.17-1.34 3.61 3.61 0 0 1 2-.51 4 4 0 0 1 1.94.45 3.08 3.08 0 0 1 1.3 1.37 5.17 5.17 0 0 1 .46 2.3v6.93h-1.68v-6.81a2.82 2.82 0 0 0-.67-2 2.36 2.36 0 0 0-1.83-.72 2.83 2.83 0 0 0-1.43.35 2.47 2.47 0 0 0-1 1 3.4 3.4 0 0 0-.34 1.62ZM1303.46 124.68a1.14 1.14 0 0 1-.84-.34 1.07 1.07 0 0 1 0-1.6 1.18 1.18 0 0 1 .84-.34 1.21 1.21 0 0 1 .84.34 1.09 1.09 0 0 1 0 1.6 1.17 1.17 0 0 1-.84.34Zm-.86 12.72v-10.9h1.68v10.9ZM1312.09 126.5v1.42h-5.65v-1.42Zm-4-2.62h1.67v10.4a2.11 2.11 0 0 0 .21 1.06 1 1 0 0 0 .54.47 2.06 2.06 0 0 0 .7.12 2.86 2.86 0 0 0 .46 0l.28-.06.34 1.51-.47.13a4.16 4.16 0 0 1-.78.07 3.46 3.46 0 0 1-1.39-.31 2.59 2.59 0 0 1-1.56-2.51ZM1318.94 137.63a4.59 4.59 0 0 1-4.32-2.67 6.54 6.54 0 0 1-.62-3 6.64 6.64 0 0 1 .62-3 4.69 4.69 0 0 1 1.73-2 5.08 5.08 0 0 1 5.18 0 4.69 4.69 0 0 1 1.73 2 6.64 6.64 0 0 1 .62 3 6.54 6.54 0 0 1-.62 3 4.59 4.59 0 0 1-4.32 2.67Zm0-1.5a2.92 2.92 0 0 0 1.85-.58 3.39 3.39 0 0 0 1.07-1.51 6.09 6.09 0 0 0 0-4.07 3.46 3.46 0 0 0-1.07-1.53 3.24 3.24 0 0 0-3.7 0A3.46 3.46 0 0 0 1316 130a6.09 6.09 0 0 0 0 4.07 3.39 3.39 0 0 0 1.07 1.51 2.92 2.92 0 0 0 1.87.55ZM1326.44 137.4v-10.9h1.62v1.64h.11a2.64 2.64 0 0 1 1.08-1.31 3.15 3.15 0 0 1 1.76-.5h.88v1.71a2.63 2.63 0 0 0-.38-.07 4.37 4.37 0 0 0-.64 0 3 3 0 0 0-1.42.33 2.6 2.6 0 0 0-1 .91 2.55 2.55 0 0 0-.35 1.32v6.9ZM1419.27 137.4v-14.54h4.92a5.67 5.67 0 0 1 2.8.61 3.9 3.9 0 0 1 1.61 1.66 5 5 0 0 1 .53 2.33 5.16 5.16 0 0 1-.52 2.34 3.92 3.92 0 0 1-1.61 1.67 5.58 5.58 0 0 1-2.78.62h-3.53v-1.56h3.47a3.77 3.77 0 0 0 1.88-.41 2.41 2.41 0 0 0 1-1.09 3.62 3.62 0 0 0 .33-1.57 3.57 3.57 0 0 0-.33-1.56 2.31 2.31 0 0 0-1-1.08 3.83 3.83 0 0 0-1.9-.4H1421v13ZM1431.74 137.4v-10.9h1.62v1.64h.12a2.64 2.64 0 0 1 1.08-1.31 3.12 3.12 0 0 1 1.76-.5h.88v1.71l-.39-.07a4.23 4.23 0 0 0-.63 0 3 3 0 0 0-1.42.33 2.53 2.53 0 0 0-1 .91 2.47 2.47 0 0 0-.36 1.32v6.9ZM1443.28 137.63A4.59 4.59 0 0 1 1439 135a6.54 6.54 0 0 1-.63-3 6.64 6.64 0 0 1 .63-3 4.62 4.62 0 0 1 4.32-2.68 4.75 4.75 0 0 1 2.59.71 4.69 4.69 0 0 1 1.73 2 6.78 6.78 0 0 1 .62 3 6.67 6.67 0 0 1-.62 3 4.59 4.59 0 0 1-4.32 2.67Zm0-1.5a2.87 2.87 0 0 0 1.84-.58 3.34 3.34 0 0 0 1.08-1.51 6.09 6.09 0 0 0 0-4.07 3.4 3.4 0 0 0-1.08-1.53 2.82 2.82 0 0 0-1.84-.58 2.84 2.84 0 0 0-1.85.58 3.46 3.46 0 0 0-1.07 1.53 6.09 6.09 0 0 0 0 4.07 3.39 3.39 0 0 0 1.07 1.51 2.9 2.9 0 0 0 1.85.58ZM1455.52 126.5v1.42h-5.65v-1.42Zm-4-2.62h1.67v10.4a2.11 2.11 0 0 0 .21 1.06 1 1 0 0 0 .54.47 2.06 2.06 0 0 0 .7.12 2.86 2.86 0 0 0 .46 0l.28-.06.34 1.51a4.89 4.89 0 0 1-.48.13 4 4 0 0 1-.77.07 3.42 3.42 0 0 1-1.39-.31 2.71 2.71 0 0 1-1.12-.93 2.63 2.63 0 0 1-.44-1.58ZM1462.51 137.63a5.08 5.08 0 0 1-2.72-.7 4.57 4.57 0 0 1-1.75-2 6.61 6.61 0 0 1-.61-2.93 6.75 6.75 0 0 1 .61-3 4.78 4.78 0 0 1 1.72-2 4.59 4.59 0 0 1 2.58-.72 5.12 5.12 0 0 1 1.68.29 4.14 4.14 0 0 1 1.52.92 4.44 4.44 0 0 1 1.08 1.68 7.1 7.1 0 0 1 .41 2.57v.71h-8.41V131h6.7a3.64 3.64 0 0 0-.36-1.65 2.86 2.86 0 0 0-1-1.14 2.91 2.91 0 0 0-1.58-.42 3 3 0 0 0-1.73.49 3.37 3.37 0 0 0-1.12 1.28 3.79 3.79 0 0 0-.39 1.7v1a4.58 4.58 0 0 0 .43 2.09 3 3 0 0 0 1.2 1.3 3.44 3.44 0 0 0 1.78.45 3.77 3.77 0 0 0 1.2-.19 2.64 2.64 0 0 0 .92-.57 2.4 2.4 0 0 0 .61-1l1.62.46a3.6 3.6 0 0 1-.86 1.44 4.06 4.06 0 0 1-1.49 1 5.52 5.52 0 0 1-2.04.39ZM1474 137.63a4.75 4.75 0 0 1-2.65-.72 4.83 4.83 0 0 1-1.7-2 7.29 7.29 0 0 1 0-5.84 4.81 4.81 0 0 1 1.72-2 4.59 4.59 0 0 1 2.58-.72 4.94 4.94 0 0 1 2.07.43 3.87 3.87 0 0 1 1.51 1.19 3.72 3.72 0 0 1 .74 1.79h-1.68a2.57 2.57 0 0 0-2.61-1.9 2.93 2.93 0 0 0-1.72.51 3.31 3.31 0 0 0-1.14 1.42 5.37 5.37 0 0 0-.41 2.16 5.5 5.5 0 0 0 .4 2.2 3.37 3.37 0 0 0 1.14 1.46 3 3 0 0 0 1.73.52 3 3 0 0 0 1.18-.23 2.37 2.37 0 0 0 .9-.65 2.47 2.47 0 0 0 .53-1h1.68a3.93 3.93 0 0 1-.7 1.74 4.08 4.08 0 0 1-1.47 1.22 4.76 4.76 0 0 1-2.1.42ZM1485.49 126.5v1.42h-5.65v-1.42Zm-4-2.62h1.67v10.4a2.11 2.11 0 0 0 .21 1.06 1 1 0 0 0 .54.47 2.06 2.06 0 0 0 .7.12 2.86 2.86 0 0 0 .46 0l.28-.06.34 1.51-.47.13a4.08 4.08 0 0 1-.78.07 3.46 3.46 0 0 1-1.39-.31 2.59 2.59 0 0 1-1.56-2.51Z"/><path class="cls-2" d="M8 38h20v57H8zM38 53h20v42H38zM52.31 20.47 73.22 8.22M23.72 14.63l19.56 6.74M14.65 15.46.49 23.43M81.01 8.99l14.4 10.7"/><circle class="cls-2" cx="48" cy="23" r="5"/><circle class="cls-2" cx="77" cy="6" r="5"/><circle class="cls-2" cx="19" cy="13" r="5"/><path class="cls-2" d="M68 28h20v55a12 12 0 0 1-12 12h-8V28ZM181 37h-25M191 37h28.5a8.51 8.51 0 0 1 8.5 8.5 8.51 8.51 0 0 1-8.5 8.5h-31a8.51 8.51 0 0 0-8.5 8.5 8.51 8.51 0 0 0 8.5 8.5H218M228 71h24M180 22.67V4M228 23V4"/><circle class="cls-2" cx="185.5" cy="37" r="5"/><circle class="cls-2" cx="222.5" cy="71" r="5"/><path class="cls-2" d="M245 71v8a12 12 0 0 1-12 12h-70V46M163 36V16h82v46"/><circle class="cls-2" cx="320" cy="88" r="5"/><path class="cls-2" d="M400 33v42a12 12 0 0 1-12 12h-63M320 83V8h55M378.28 13.44l16.26 16.26M337.42 54.29l16.26 16.27"/><path class="cls-2" d="m353.69 70.56-21.9 5.63 5.63-21.9L390.3 1.42l16.26 16.26-52.87 52.88z"/><path style="fill:#171321" d="m333.89 69.14-2.1 7.05 7.05-2.1-4.95-4.95z"/><path class="cls-2" d="M551.52 42.34a35.51 35.51 0 0 1-68.13 7M481.41 31.11A35.51 35.51 0 0 1 550 24.58"/><path class="cls-2" d="M496 66v28.28L516 83l20 11.28V66"/><circle class="cls-2" cx="481" cy="37" r="5"/><circle class="cls-2" cx="552" cy="37" r="5"/><path class="cls-2" d="m505 37 8 8 18-18M557 37h7M476 37h-8M714 53v24a12 12 0 0 1-12 12h-72V62M630 42.4V7h84v27"/><circle class="cls-2" cx="630" cy="48" r="5"/><circle class="cls-2" cx="714" cy="48" r="5"/><path class="cls-2" d="m667 62 10-28M682 38l10 10-10 10M662 58l-10-10 10-10M868 67v16a12 12 0 0 1-12 12h-68V75M788 67V39h80v21M828 1a30 30 0 0 1 30 30v8h-60v-8a30 30 0 0 1 30-30Z"/><circle class="cls-2" cx="828" cy="67" r="5"/><path class="cls-2" d="M833 67h43M780 67h43M1025.65 53.47A42 42 0 0 1 984 90M989.48 6.35a42 42 0 0 1 36.15 36.06M942.37 42.41a42 42 0 0 1 36.12-36M960.38 82.73a42 42 0 0 1-18-29.26M984 90h-37M1028 90h-23"/><circle class="cls-2" cx="942" cy="90" r="5"/><circle class="cls-2" cx="984" cy="6" r="5"/><circle class="cls-2" cx="942" cy="48" r="5"/><circle class="cls-2" cx="1026" cy="48" r="5"/><path class="cls-2" d="m1024 85 5 5-5 5M971.11 48.58l8 8 18-18M1183 56V40l-9.15-1a35.55 35.55 0 0 0-3.82-9.21l5.74-7.21-11.31-11.31-7.21 5.73a35.55 35.55 0 0 0-9.21-3.82L1147 4h-16l-1 9.15a35.55 35.55 0 0 0-9.21 3.82l-7.21-5.74-11.31 11.31 5.74 7.21a35.55 35.55 0 0 0-3.82 9.21L1095 40v16l9.15 1a35.55 35.55 0 0 0 3.82 9.21l-5.74 7.21 11.31 11.31 7.21-5.74a35.55 35.55 0 0 0 9.21 3.82l1 9.15h16l1-9.15a35.55 35.55 0 0 0 9.21-3.82l7.21 5.74 11.31-11.31-5.69-7.17a35.55 35.55 0 0 0 3.82-9.21Z"/><circle class="cls-2" cx="1129" cy="38" r="5"/><circle class="cls-2" cx="1149" cy="58" r="5"/><path class="cls-2" d="M1124 38h-9M1163 38h-29M1144 58h-29M1154 58h9M1338 54v23a12 12 0 0 1-12 12h-72V62M1254 54V7h84v39M1253 25h86"/><circle class="cls-2" cx="1274" cy="54" r="5"/><circle class="cls-2" cx="1318" cy="54" r="5"/><path class="cls-2" d="M1248 54h21M1315.22 49.37 1306 34l-20 40-9.43-15.71M1323 54h21M1415.14 60.35c4.32 11.47 14.31 28 36.86 34.52 27.85-8.07 36.54-31.38 39.06-41.57M1492 35V14.37s-26.31 8.76-40-12.5c-13.69 21.26-40 12.5-40 12.5V42.6"/><circle class="cls-2" cx="1492" cy="48" r="5"/><circle class="cls-2" cx="1412" cy="48" r="5"/><path class="cls-2" d="m1439.43 50.02 7.43 7.42 17.71-17.71"/></g></g></svg>