<?xml version="1.0" encoding="utf-8"?>
<!-- Generator: Adobe Illustrator 26.0.0, SVG Export Plug-In . SVG Version: 6.00 Build 0)  -->
<svg version="1.1" id="Layer_1" xmlns="http://www.w3.org/2000/svg" xmlns:xlink="http://www.w3.org/1999/xlink" x="0px" y="0px"
	 viewBox="0 0 1498 141.7" style="enable-background:new 0 0 1498 141.7;" xml:space="preserve">
<style type="text/css">
	.st0{fill:#1D1D1B;}
	.st1{fill:none;stroke:#171321;stroke-width:2;stroke-miterlimit:10;}
	.st2{fill:#171321;}
</style>
<path class="st0" d="M1413.4,122.9h2.1l5,12.1h0.1l4.9-12.1h2.1v14.5h-1.6v-11.1h-0.1l-4.5,11.1h-1.6l-4.5-11.1h-0.1v11.1h-1.7
	V122.9z M1434.1,137.7c-0.6,0-1.3-0.1-1.9-0.4c-1.2-0.5-1.9-1.7-1.8-3c0-0.5,0.1-1.1,0.4-1.5c0.3-0.4,0.6-0.7,1-0.9
	c0.4-0.2,0.9-0.4,1.4-0.5c0.5-0.1,1-0.2,1.5-0.3l1.6-0.2c0.3,0,0.6-0.1,0.9-0.2c0.2-0.1,0.3-0.3,0.3-0.6c0-0.6-0.2-1.2-0.6-1.6
	c-0.5-0.4-1.1-0.6-1.7-0.6c-1.2-0.1-2.3,0.6-2.8,1.6l-1.6-0.6c0.2-0.6,0.6-1.1,1.1-1.6c0.5-0.4,1-0.6,1.6-0.8
	c0.5-0.1,1.1-0.2,1.7-0.2c0.4,0,0.8,0,1.2,0.1c0.5,0.1,0.9,0.3,1.3,0.5c0.5,0.3,0.8,0.7,1.1,1.1c0.3,0.6,0.5,1.4,0.4,2.1v7.2h-1.6
	v-1.5h-0.1c-0.2,0.3-0.3,0.5-0.6,0.8c-0.3,0.3-0.7,0.5-1.1,0.7C1435.2,137.6,1434.7,137.7,1434.1,137.7L1434.1,137.7z M1434.4,136.2
	c0.6,0,1.2-0.1,1.7-0.4c0.8-0.5,1.4-1.3,1.4-2.3v-1.5c-0.1,0.1-0.3,0.2-0.5,0.2c-0.3,0.1-0.5,0.1-0.8,0.2l-0.9,0.1l-0.7,0.1
	c-0.4,0-0.8,0.1-1.2,0.3c-0.3,0.1-0.7,0.3-0.9,0.6c-0.2,0.3-0.4,0.6-0.4,1c0,0.5,0.2,1,0.7,1.3
	C1433.2,136,1433.8,136.2,1434.4,136.2z M1443.9,130.8v6.6h-1.7v-10.9h1.6v1.7h0.1c0.2-0.5,0.7-1,1.2-1.3c0.6-0.4,1.3-0.5,2-0.5
	c0.7,0,1.3,0.1,1.9,0.4c0.6,0.3,1,0.8,1.3,1.4c0.3,0.7,0.5,1.5,0.5,2.3v6.9h-1.7v-6.8c0-0.7-0.2-1.4-0.7-2c-0.5-0.5-1.1-0.8-1.8-0.7
	c-0.5,0-1,0.1-1.4,0.4c-0.4,0.2-0.8,0.6-1,1C1444,129.7,1443.9,130.3,1443.9,130.8z M1457.1,137.7c-0.6,0-1.3-0.1-1.9-0.4
	c-0.5-0.3-1-0.7-1.3-1.1c-0.3-0.5-0.5-1.2-0.5-1.8c0-0.5,0.1-1.1,0.4-1.5c0.2-0.4,0.6-0.7,1-0.9c0.4-0.2,0.9-0.4,1.4-0.5
	c0.5-0.1,1-0.2,1.5-0.3l1.6-0.2c0.3,0,0.6-0.1,0.9-0.2c0.2-0.1,0.3-0.3,0.3-0.6c0-0.6-0.2-1.2-0.6-1.6c-0.5-0.4-1.1-0.6-1.7-0.6
	c-0.7,0-1.3,0.1-1.9,0.5c-0.4,0.3-0.8,0.7-1,1.1l-1.6-0.6c0.2-0.6,0.6-1.1,1.1-1.6c0.5-0.4,1-0.6,1.6-0.8c0.5-0.1,1.1-0.2,1.7-0.2
	c0.4,0,0.8,0,1.2,0.1c0.5,0.1,0.9,0.2,1.3,0.5c0.5,0.3,0.8,0.7,1.1,1.1c0.3,0.6,0.5,1.4,0.4,2.1v7.2h-1.7v-1.5h-0.1
	c-0.2,0.3-0.3,0.5-0.6,0.8c-0.3,0.3-0.7,0.5-1.1,0.7C1458.2,137.6,1457.7,137.7,1457.1,137.7L1457.1,137.7z M1457.4,136.2
	c0.6,0,1.2-0.1,1.7-0.4c0.4-0.2,0.8-0.6,1-1c0.2-0.4,0.4-0.8,0.3-1.3v-1.5c-0.1,0.1-0.3,0.2-0.5,0.2c-0.3,0.1-0.5,0.1-0.8,0.2
	l-0.9,0.1l-0.7,0.1c-0.4,0-0.8,0.1-1.2,0.3c-0.3,0.1-0.7,0.3-0.9,0.6c-0.2,0.3-0.4,0.6-0.3,1c0,0.5,0.2,1,0.6,1.3
	C1456.2,136,1456.8,136.2,1457.4,136.2L1457.4,136.2z M1469.6,141.7c-0.7,0-1.4-0.1-2.1-0.3c-0.5-0.2-1-0.4-1.4-0.8
	c-0.4-0.3-0.7-0.7-0.9-1.1l1.3-0.9c0.2,0.2,0.3,0.4,0.6,0.7c0.3,0.3,0.6,0.5,1,0.7c0.5,0.2,1,0.3,1.6,0.3c0.8,0,1.5-0.2,2.2-0.6
	c0.6-0.5,0.9-1.2,0.9-2v-2.2h-0.1c-0.1,0.2-0.3,0.4-0.5,0.7c-0.3,0.3-0.6,0.6-1,0.8c-0.5,0.2-1.1,0.4-1.7,0.3
	c-0.8,0-1.7-0.2-2.4-0.6c-0.7-0.4-1.3-1.1-1.7-1.8c-0.4-0.9-0.6-1.9-0.6-2.9c0-1,0.2-2,0.6-2.9c0.3-0.8,0.9-1.5,1.6-2
	c0.7-0.5,1.6-0.7,2.4-0.7c0.6,0,1.2,0.1,1.7,0.4c0.4,0.2,0.7,0.5,1,0.8l0.5,0.7h0.2v-1.7h1.6v11.2c0,0.8-0.2,1.6-0.6,2.3
	c-0.4,0.6-1,1-1.7,1.3C1471.2,141.6,1470.4,141.7,1469.6,141.7L1469.6,141.7z M1469.5,135.7c0.6,0,1.2-0.1,1.7-0.5
	c0.5-0.3,0.8-0.8,1.1-1.3c0.3-0.7,0.4-1.4,0.4-2.1c0-0.7-0.1-1.4-0.4-2.1c-0.2-0.6-0.5-1-1-1.4c-1.1-0.7-2.4-0.7-3.5,0
	c-0.5,0.4-0.8,0.9-1.1,1.4c-0.2,0.6-0.4,1.3-0.3,2c0,0.7,0.1,1.4,0.4,2C1467.2,135,1468.3,135.7,1469.5,135.7L1469.5,135.7z
	 M1481.9,137.6c-1,0-1.9-0.2-2.7-0.7c-0.8-0.5-1.4-1.2-1.8-2c-0.4-0.9-0.6-1.9-0.6-2.9c0-1,0.2-2.1,0.6-3c0.4-0.8,1-1.5,1.7-2
	c0.8-0.5,1.7-0.7,2.6-0.7c0.6,0,1.1,0.1,1.7,0.3c0.6,0.2,1.1,0.5,1.5,0.9c0.5,0.5,0.9,1,1.1,1.7c0.3,0.8,0.4,1.7,0.4,2.6v0.7h-8.4
	V131h6.7c0-0.6-0.1-1.1-0.4-1.6c-0.2-0.5-0.6-0.9-1-1.1c-0.5-0.3-1-0.4-1.6-0.4c-0.6,0-1.2,0.2-1.7,0.5c-0.5,0.3-0.9,0.8-1.1,1.3
	c-0.3,0.5-0.4,1.1-0.4,1.7v1c0,0.7,0.1,1.4,0.4,2.1c0.3,0.5,0.7,1,1.2,1.3c0.5,0.3,1.2,0.5,1.8,0.4c0.4,0,0.8-0.1,1.2-0.2
	c0.7-0.2,1.3-0.8,1.5-1.5l1.6,0.5c-0.2,0.5-0.5,1-0.9,1.4c-0.4,0.4-0.9,0.8-1.5,1C1483.3,137.5,1482.6,137.6,1481.9,137.6z
	 M29.6,137.4v-14.5h4.9c1,0,1.9,0.2,2.8,0.6c0.7,0.4,1.3,1,1.6,1.7c0.7,1.5,0.7,3.2,0,4.7c-0.4,0.7-0.9,1.3-1.6,1.7
	c-0.9,0.4-1.8,0.7-2.8,0.6H31v-1.6h3.5c0.7,0,1.3-0.1,1.9-0.4c0.4-0.3,0.8-0.6,1-1.1c0.2-0.5,0.3-1,0.3-1.6c0-0.5-0.1-1.1-0.3-1.6
	c-0.2-0.5-0.6-0.8-1-1.1c-0.6-0.3-1.2-0.4-1.9-0.4h-3.1v13L29.6,137.4z M43.7,122.9v14.5H42v-14.5L43.7,122.9z M50,137.7
	c-0.6,0-1.3-0.1-1.9-0.4c-0.5-0.3-1-0.7-1.3-1.1c-0.3-0.5-0.5-1.2-0.5-1.8c0-0.5,0.1-1.1,0.4-1.5c0.3-0.4,0.6-0.7,1-0.9
	c0.4-0.2,0.9-0.4,1.4-0.5c0.5-0.1,1-0.2,1.5-0.3l1.6-0.2c0.3,0,0.6-0.1,0.9-0.2c0.2-0.1,0.3-0.3,0.3-0.6c0-0.6-0.2-1.2-0.6-1.6
	c-0.5-0.4-1.1-0.6-1.7-0.6c-1.2-0.1-2.3,0.6-2.8,1.6l-1.6-0.6c0.2-0.6,0.6-1.1,1.1-1.6c0.5-0.4,1-0.6,1.6-0.8
	c0.5-0.1,1.1-0.2,1.7-0.2c0.4,0,0.8,0,1.2,0.1c0.5,0.1,0.9,0.3,1.3,0.5c0.5,0.3,0.8,0.7,1.1,1.2c0.3,0.6,0.5,1.4,0.4,2.1v7.2h-1.7
	V136h-0.1c-0.1,0.3-0.3,0.5-0.6,0.8c-0.3,0.3-0.7,0.5-1.1,0.7C51.1,137.6,50.5,137.7,50,137.7L50,137.7z M50.3,136.2
	c0.6,0,1.2-0.1,1.7-0.4c0.4-0.2,0.8-0.6,1-1c0.2-0.4,0.3-0.8,0.4-1.3v-1.5c-0.1,0.1-0.3,0.2-0.5,0.2c-0.3,0.1-0.5,0.1-0.8,0.2
	l-0.9,0.1l-0.7,0.1c-0.4,0-0.8,0.1-1.2,0.3c-0.3,0.1-0.7,0.3-0.9,0.6c-0.2,0.3-0.4,0.6-0.3,1c0,0.5,0.2,1,0.6,1.3
	C49.1,136,49.6,136.2,50.3,136.2L50.3,136.2z M59.7,130.8v6.6H58v-10.9h1.6v1.7h0.1c0.3-0.5,0.7-1,1.2-1.3c0.6-0.4,1.3-0.5,2-0.5
	c0.7,0,1.3,0.1,1.9,0.4c0.6,0.3,1,0.8,1.3,1.4c0.3,0.7,0.5,1.5,0.5,2.3v6.9H65v-6.8c0-0.7-0.2-1.4-0.7-2c-0.5-0.5-1.2-0.8-1.8-0.7
	c-0.5,0-1,0.1-1.4,0.4c-0.4,0.2-0.8,0.6-1,1C59.8,129.7,59.7,130.3,59.7,130.8z M186.6,127.4h-1.8c-0.1-0.5-0.3-0.9-0.5-1.3
	c-0.2-0.4-0.6-0.7-0.9-1c-0.4-0.3-0.8-0.5-1.2-0.6c-0.5-0.1-0.9-0.2-1.4-0.2c-0.8,0-1.7,0.2-2.4,0.7c-0.7,0.5-1.3,1.2-1.7,2
	c-0.8,2-0.8,4.3,0,6.4c0.4,0.8,0.9,1.5,1.7,2c0.7,0.4,1.5,0.7,2.4,0.7c0.5,0,0.9-0.1,1.4-0.2c0.4-0.1,0.8-0.3,1.2-0.6
	c0.8-0.5,1.3-1.4,1.5-2.3h1.8c-0.1,0.7-0.4,1.4-0.7,2c-0.3,0.6-0.8,1.1-1.3,1.5c-0.5,0.4-1.1,0.7-1.8,0.9c-0.7,0.2-1.4,0.3-2.1,0.3
	c-1.2,0-2.3-0.3-3.3-0.9c-1-0.6-1.8-1.5-2.3-2.6c-1.1-2.5-1.1-5.5,0-8c0.5-1.1,1.3-2,2.3-2.6c1-0.6,2.1-0.9,3.3-0.9
	c0.7,0,1.4,0.1,2.1,0.3c0.6,0.2,1.2,0.5,1.8,0.9c0.5,0.4,1,0.9,1.3,1.5C186.2,126,186.4,126.7,186.6,127.4L186.6,127.4z
	 M189.2,137.4v-10.9h1.6v1.6h0.1c0.2-0.5,0.6-1,1.1-1.3c0.5-0.3,1.1-0.5,1.8-0.5h0.9v1.7c-0.1,0-0.3-0.1-0.4-0.1c-0.2,0-0.4,0-0.6,0
	c-0.5,0-1,0.1-1.4,0.3c-0.4,0.2-0.8,0.5-1,0.9c-0.2,0.4-0.4,0.9-0.4,1.3v6.9L189.2,137.4z M200.9,137.6c-1,0-1.9-0.2-2.7-0.7
	c-0.8-0.5-1.4-1.2-1.8-2c-0.4-0.9-0.6-1.9-0.6-2.9c0-1,0.2-2.1,0.6-3c0.4-0.8,1-1.5,1.7-2c0.8-0.5,1.7-0.7,2.6-0.7
	c0.6,0,1.1,0.1,1.7,0.3c0.6,0.2,1.1,0.5,1.5,0.9c0.5,0.5,0.9,1,1.1,1.7c0.3,0.8,0.4,1.7,0.4,2.6v0.7H197V131h6.7
	c0-0.6-0.1-1.1-0.4-1.6c-0.2-0.5-0.6-0.9-1-1.1c-0.5-0.3-1-0.4-1.6-0.4c-0.6,0-1.2,0.2-1.7,0.5c-0.5,0.3-0.9,0.8-1.1,1.3
	c-0.3,0.5-0.4,1.1-0.4,1.7v1c0,0.7,0.1,1.4,0.4,2.1c0.3,0.5,0.7,1,1.2,1.3c0.5,0.3,1.2,0.5,1.8,0.4c0.4,0,0.8-0.1,1.2-0.2
	c0.3-0.1,0.7-0.3,0.9-0.6c0.3-0.3,0.5-0.6,0.6-1l1.6,0.5c-0.2,0.5-0.5,1-0.9,1.4c-0.4,0.4-0.9,0.8-1.5,1
	C202.3,137.5,201.6,137.6,200.9,137.6z M211.1,137.7c-0.6,0-1.3-0.1-1.9-0.4c-0.5-0.3-1-0.6-1.3-1.1c-0.3-0.5-0.5-1.2-0.5-1.8
	c0-0.5,0.1-1.1,0.4-1.5c0.2-0.4,0.6-0.7,1-0.9c0.4-0.2,0.9-0.4,1.4-0.5c0.5-0.1,1-0.2,1.5-0.3l1.6-0.2c0.3,0,0.6-0.1,0.9-0.2
	c0.2-0.1,0.3-0.3,0.3-0.6c0-0.6-0.2-1.2-0.6-1.6c-0.5-0.4-1.1-0.6-1.7-0.6c-0.7,0-1.3,0.1-1.9,0.5c-0.4,0.3-0.8,0.7-1,1.1l-1.6-0.6
	c0.2-0.6,0.6-1.1,1.1-1.6c0.5-0.4,1-0.6,1.6-0.8c0.5-0.1,1.1-0.2,1.7-0.2c0.4,0,0.8,0,1.2,0.1c0.5,0.1,0.9,0.3,1.3,0.5
	c0.5,0.3,0.8,0.7,1.1,1.2c0.3,0.6,0.5,1.4,0.4,2.1v7.2h-1.7V136h-0.1c-0.2,0.3-0.3,0.5-0.6,0.8c-0.3,0.3-0.7,0.5-1.1,0.7
	C212.2,137.6,211.7,137.7,211.1,137.7L211.1,137.7z M211.4,136.2c0.6,0,1.2-0.1,1.7-0.4c0.4-0.2,0.8-0.6,1-1
	c0.2-0.4,0.4-0.8,0.4-1.3v-1.5c-0.1,0.1-0.3,0.2-0.5,0.2c-0.3,0.1-0.5,0.1-0.8,0.2l-0.9,0.1l-0.7,0.1c-0.4,0-0.8,0.1-1.2,0.3
	c-0.3,0.1-0.7,0.3-0.9,0.6c-0.2,0.3-0.4,0.6-0.4,1c0,0.5,0.2,1,0.6,1.3C210.2,136,210.8,136.2,211.4,136.2L211.4,136.2z
	 M223.9,126.5v1.4h-5.6v-1.4H223.9z M219.9,123.9h1.7v10.4c0,0.4,0,0.7,0.2,1.1c0.1,0.2,0.3,0.4,0.5,0.5c0.2,0.1,0.5,0.1,0.7,0.1
	c0.2,0,0.3,0,0.5,0l0.3-0.1l0.3,1.5l-0.5,0.1c-0.3,0-0.5,0.1-0.8,0.1c-0.5,0-1-0.1-1.4-0.3c-0.5-0.2-0.8-0.5-1.1-0.9
	c-0.3-0.5-0.5-1-0.4-1.6V123.9z M230.9,137.6c-1,0-1.9-0.2-2.7-0.7c-0.8-0.5-1.4-1.2-1.8-2c-0.4-0.9-0.6-1.9-0.6-2.9
	c0-1,0.2-2.1,0.6-3c0.4-0.8,1-1.5,1.7-2c0.8-0.5,1.7-0.7,2.6-0.7c0.6,0,1.1,0.1,1.7,0.3c0.6,0.2,1.1,0.5,1.5,0.9
	c0.5,0.5,0.9,1,1.1,1.7c0.3,0.8,0.4,1.7,0.4,2.6v0.7H227V131h6.7c0-0.6-0.1-1.1-0.4-1.6c-0.2-0.5-0.6-0.9-1-1.1
	c-0.5-0.3-1-0.4-1.6-0.4c-0.6,0-1.2,0.2-1.7,0.5c-0.5,0.3-0.9,0.8-1.1,1.3c-0.3,0.5-0.4,1.1-0.4,1.7v1c0,0.7,0.1,1.4,0.4,2.1
	c0.3,0.5,0.7,1,1.2,1.3c0.5,0.3,1.2,0.5,1.8,0.4c0.4,0,0.8-0.1,1.2-0.2c0.3-0.1,0.7-0.3,0.9-0.6c0.3-0.3,0.5-0.6,0.6-1l1.6,0.5
	c-0.2,0.5-0.5,1-0.9,1.4c-0.4,0.4-0.9,0.8-1.5,1C232.3,137.5,231.6,137.6,230.9,137.6L230.9,137.6z M335,122.9l4.3,12.2h0.2
	l4.3-12.2h1.9l-5.3,14.5h-1.8l-5.3-14.5L335,122.9z M351.3,137.6c-1,0-1.9-0.2-2.7-0.7c-0.8-0.5-1.4-1.2-1.8-2
	c-0.4-0.9-0.6-1.9-0.6-2.9c0-1,0.2-2.1,0.6-3c0.4-0.8,1-1.5,1.7-2c0.8-0.5,1.7-0.7,2.6-0.7c0.6,0,1.1,0.1,1.7,0.3
	c0.6,0.2,1.1,0.5,1.5,0.9c0.5,0.5,0.9,1,1.1,1.7c0.3,0.8,0.4,1.7,0.4,2.6v0.7h-8.4V131h6.7c0-0.6-0.1-1.1-0.4-1.6
	c-0.2-0.5-0.6-0.9-1-1.1c-0.5-0.3-1-0.4-1.6-0.4c-0.6,0-1.2,0.2-1.7,0.5c-0.5,0.3-0.9,0.8-1.1,1.3c-0.3,0.5-0.4,1.1-0.4,1.7v1
	c0,0.7,0.1,1.4,0.4,2.1c0.3,0.5,0.7,1,1.2,1.3c0.5,0.3,1.2,0.5,1.8,0.4c0.4,0,0.8-0.1,1.2-0.2c0.3-0.1,0.7-0.3,0.9-0.6
	c0.3-0.3,0.5-0.6,0.6-1l1.6,0.5c-0.2,0.5-0.5,1-0.9,1.4c-0.4,0.4-0.9,0.8-1.5,1C352.7,137.5,352,137.6,351.3,137.6z M358.3,137.4
	v-10.9h1.7v1.6h0.1c0.2-0.5,0.6-1,1.1-1.3c0.5-0.3,1.1-0.5,1.8-0.5h0.9v1.7c-0.1,0-0.3-0.1-0.4-0.1c-0.2,0-0.4,0-0.6,0
	c-0.5,0-1,0.1-1.4,0.3c-0.4,0.2-0.8,0.5-1,0.9c-0.2,0.4-0.4,0.9-0.4,1.3v6.9L358.3,137.4z M366.6,124.7c-0.3,0-0.6-0.1-0.8-0.3
	c-0.4-0.4-0.5-1.1-0.1-1.5c0,0,0,0,0.1-0.1c0.2-0.2,0.5-0.3,0.8-0.3c0.3,0,0.6,0.1,0.8,0.3c0.4,0.4,0.5,1.1,0.1,1.5
	c0,0-0.1,0.1-0.1,0.1C367.2,124.6,366.9,124.7,366.6,124.7z M365.8,137.4v-10.9h1.7v10.9H365.8z M375.4,126.5v1.4h-5.9v-1.4H375.4z
	 M371.3,137.4V125c0-0.6,0.1-1.1,0.4-1.6c0.3-0.4,0.7-0.7,1.2-0.9c0.5-0.2,1-0.3,1.5-0.3c0.3,0,0.7,0,1,0.1c0.2,0,0.4,0.1,0.6,0.2
	l-0.5,1.4l-0.3-0.1c-0.2,0-0.4-0.1-0.6-0.1c-0.4,0-0.9,0.1-1.2,0.4c-0.3,0.4-0.4,0.8-0.4,1.2v12H371.3z M378.8,141.5
	c-0.3,0-0.5,0-0.8-0.1c-0.2,0-0.3-0.1-0.5-0.1l0.4-1.5c0.3,0.1,0.7,0.1,1.1,0.1c0.3,0,0.6-0.2,0.8-0.4c0.3-0.4,0.5-0.8,0.7-1.2
	l0.3-0.9l-4-11h1.8l3,8.7h0.1l3-8.7h1.8L382,139c-0.2,0.5-0.4,1-0.8,1.4c-0.3,0.4-0.7,0.6-1.1,0.8
	C379.7,141.4,379.3,141.5,378.8,141.5L378.8,141.5z M477.2,137.4v-14.5h4.9c1,0,1.9,0.2,2.8,0.6c0.7,0.4,1.3,1,1.6,1.7
	c0.7,1.5,0.7,3.2,0,4.7c-0.4,0.7-0.9,1.3-1.6,1.7c-0.9,0.4-1.8,0.7-2.8,0.6h-3.5v-1.6h3.5c0.7,0,1.3-0.1,1.9-0.4
	c0.4-0.3,0.8-0.6,1-1.1c0.2-0.5,0.3-1,0.3-1.6c0-0.5-0.1-1.1-0.3-1.6c-0.2-0.5-0.6-0.8-1-1.1c-0.6-0.3-1.2-0.4-1.9-0.4H479v13
	L477.2,137.4z M492.9,137.7c-0.6,0-1.3-0.1-1.9-0.4c-0.5-0.3-1-0.7-1.3-1.1c-0.3-0.5-0.5-1.2-0.5-1.8c0-0.5,0.1-1.1,0.4-1.5
	c0.3-0.4,0.6-0.7,1-0.9c0.4-0.2,0.9-0.4,1.4-0.5c0.5-0.1,1-0.2,1.5-0.3l1.6-0.2c0.3,0,0.6-0.1,0.9-0.2c0.2-0.1,0.3-0.3,0.3-0.6
	c0-0.6-0.2-1.2-0.6-1.6c-0.5-0.4-1.1-0.6-1.7-0.6c-1.2-0.1-2.3,0.6-2.8,1.6l-1.6-0.6c0.2-0.6,0.6-1.1,1.2-1.6c0.5-0.4,1-0.6,1.6-0.8
	c0.5-0.1,1.1-0.2,1.7-0.2c0.4,0,0.8,0,1.2,0.1c0.5,0.1,0.9,0.3,1.3,0.5c0.5,0.3,0.8,0.7,1.1,1.2c0.3,0.6,0.5,1.4,0.4,2.1v7.2h-1.7
	V136h-0.1c-0.1,0.3-0.3,0.5-0.6,0.8c-0.3,0.3-0.6,0.5-1,0.7C494,137.6,493.4,137.7,492.9,137.7L492.9,137.7z M493.1,136.2
	c0.6,0,1.2-0.1,1.7-0.4c0.4-0.2,0.8-0.6,1-1c0.2-0.4,0.3-0.8,0.3-1.3v-1.5c-0.1,0.1-0.3,0.2-0.5,0.2c-0.3,0.1-0.5,0.1-0.8,0.2
	l-0.9,0.1l-0.7,0.1c-0.4,0-0.8,0.1-1.2,0.3c-0.3,0.1-0.7,0.3-0.9,0.6c-0.2,0.3-0.4,0.6-0.3,1c0,0.5,0.2,1,0.7,1.3
	C491.9,136,492.5,136.2,493.1,136.2L493.1,136.2z M505.4,137.6c-1.9,0.1-3.6-1-4.3-2.7c-0.8-1.9-0.8-4,0-5.8c0.4-0.8,1-1.5,1.7-2
	c0.8-0.5,1.7-0.7,2.6-0.7c0.7,0,1.4,0.1,2.1,0.4c0.6,0.3,1.1,0.7,1.5,1.2c0.4,0.5,0.7,1.1,0.7,1.8H508c-0.3-1.2-1.4-2-2.6-1.9
	c-0.6,0-1.2,0.2-1.7,0.5c-0.5,0.4-0.9,0.8-1.1,1.4c-0.3,0.7-0.4,1.4-0.4,2.2c0,0.8,0.1,1.5,0.4,2.2c0.2,0.6,0.6,1.1,1.1,1.5
	c0.5,0.3,1.1,0.5,1.7,0.5c0.4,0,0.8-0.1,1.2-0.2c0.3-0.1,0.7-0.4,0.9-0.6c0.2-0.3,0.4-0.6,0.5-1h1.7c-0.1,0.6-0.3,1.2-0.7,1.7
	c-0.4,0.5-0.9,0.9-1.5,1.2C506.9,137.5,506.1,137.7,505.4,137.6z M512.1,137.4v-14.5h1.7v14.5H512.1z M513.7,133.4v-2.1h0.3l4.8-4.8
	h2.1l-5.1,5.1h-0.1L513.7,133.4z M519,137.4l-4.3-5.4l1.2-1.2l5.2,6.6L519,137.4z M526.2,137.7c-0.6,0-1.3-0.1-1.9-0.4
	c-0.5-0.3-1-0.7-1.3-1.1c-0.3-0.5-0.5-1.2-0.5-1.8c0-0.5,0.1-1.1,0.4-1.5c0.2-0.4,0.6-0.7,1-0.9c0.4-0.2,0.9-0.4,1.4-0.5
	c0.5-0.1,1-0.2,1.5-0.3l1.6-0.2c0.3,0,0.6-0.1,0.9-0.2c0.2-0.1,0.3-0.3,0.3-0.6c0-0.6-0.2-1.2-0.6-1.6c-0.5-0.4-1.1-0.6-1.7-0.6
	c-1.2-0.1-2.3,0.6-2.8,1.6l-1.6-0.6c0.2-0.6,0.6-1.1,1.1-1.6c0.5-0.4,1-0.6,1.6-0.8c0.5-0.1,1.1-0.2,1.7-0.2c0.4,0,0.8,0,1.2,0.1
	c0.5,0.1,0.9,0.3,1.3,0.5c0.5,0.3,0.8,0.7,1.1,1.2c0.3,0.6,0.5,1.4,0.4,2.1v7.2h-1.7V136h-0.1c-0.2,0.3-0.3,0.5-0.6,0.8
	c-0.3,0.3-0.7,0.5-1.1,0.7C527.3,137.6,526.8,137.7,526.2,137.7L526.2,137.7z M526.5,136.2c0.6,0,1.2-0.1,1.7-0.4
	c0.4-0.2,0.8-0.6,1-1c0.2-0.4,0.4-0.8,0.3-1.3v-1.5c-0.1,0.1-0.3,0.2-0.5,0.2c-0.3,0.1-0.5,0.1-0.8,0.2l-0.9,0.1l-0.7,0.1
	c-0.4,0-0.8,0.1-1.2,0.3c-0.3,0.1-0.7,0.3-0.9,0.6c-0.2,0.3-0.4,0.6-0.3,1c0,0.5,0.2,1,0.7,1.3C525.3,136,525.9,136.2,526.5,136.2
	L526.5,136.2z M538.7,141.7c-0.7,0-1.4-0.1-2.1-0.3c-0.5-0.2-1-0.4-1.5-0.8c-0.4-0.3-0.7-0.7-0.9-1.1l1.3-0.9
	c0.2,0.2,0.3,0.4,0.6,0.7c0.3,0.3,0.6,0.5,1,0.7c0.5,0.2,1,0.3,1.6,0.3c0.8,0,1.5-0.2,2.2-0.6c0.6-0.5,0.9-1.2,0.9-2v-2.2h-0.1
	c-0.1,0.2-0.3,0.4-0.5,0.7c-0.3,0.3-0.6,0.6-1,0.8c-0.5,0.2-1.1,0.4-1.7,0.3c-0.8,0-1.7-0.2-2.4-0.6c-0.7-0.4-1.3-1.1-1.7-1.8
	c-0.4-0.9-0.6-1.9-0.6-2.9c0-1,0.2-2,0.6-2.9c0.4-0.8,0.9-1.5,1.6-2c0.7-0.5,1.6-0.7,2.4-0.7c0.6,0,1.2,0.1,1.7,0.4
	c0.4,0.2,0.7,0.5,1,0.8c0.2,0.3,0.4,0.5,0.5,0.7h0.2v-1.7h1.6v11.2c0,0.8-0.2,1.6-0.6,2.3c-0.4,0.6-1,1-1.7,1.3
	C540.3,141.6,539.5,141.7,538.7,141.7z M538.6,135.7c0.6,0,1.2-0.1,1.7-0.5c0.5-0.3,0.8-0.8,1.1-1.3c0.3-0.7,0.4-1.4,0.4-2.1
	c0-0.7-0.1-1.4-0.4-2.1c-0.2-0.6-0.5-1-1-1.4c-1.1-0.7-2.4-0.7-3.5,0c-0.5,0.4-0.8,0.9-1.1,1.4c-0.2,0.6-0.4,1.3-0.3,2
	c0,0.7,0.1,1.4,0.4,2c0.2,0.6,0.6,1,1.1,1.4C537.4,135.5,538,135.7,538.6,135.7L538.6,135.7z M551,137.6c-1,0-1.9-0.2-2.7-0.7
	c-0.8-0.5-1.4-1.2-1.8-2c-0.4-0.9-0.6-1.9-0.6-2.9c0-1,0.2-2.1,0.6-3c0.4-0.8,1-1.5,1.7-2c0.8-0.5,1.7-0.7,2.6-0.7
	c0.6,0,1.1,0.1,1.7,0.3c0.6,0.2,1.1,0.5,1.5,0.9c0.5,0.5,0.9,1,1.1,1.7c0.3,0.8,0.4,1.7,0.4,2.6v0.7h-8.4V131h6.7
	c0-0.6-0.1-1.1-0.4-1.6c-0.2-0.5-0.6-0.9-1-1.1c-0.5-0.3-1-0.4-1.6-0.4c-0.6,0-1.2,0.2-1.7,0.5c-0.5,0.3-0.9,0.8-1.1,1.3
	c-0.3,0.5-0.4,1.1-0.4,1.7v1c0,0.7,0.1,1.4,0.4,2.1c0.3,0.5,0.7,1,1.2,1.3c0.5,0.3,1.2,0.5,1.8,0.4c0.4,0,0.8-0.1,1.2-0.2
	c0.3-0.1,0.7-0.3,0.9-0.6c0.3-0.3,0.5-0.6,0.6-1l1.6,0.5c-0.2,0.5-0.5,1-0.9,1.4c-0.4,0.4-0.9,0.8-1.5,1
	C552.4,137.5,551.7,137.6,551,137.6L551,137.6z M648.8,126.5c-0.1-0.7-0.4-1.3-1-1.7c-0.7-0.4-1.4-0.6-2.2-0.6
	c-0.6,0-1.2,0.1-1.7,0.3c-0.4,0.2-0.8,0.5-1.1,0.8c-0.3,0.4-0.4,0.8-0.4,1.2c0,0.4,0.1,0.7,0.3,1c0.2,0.3,0.4,0.5,0.7,0.7
	c0.3,0.2,0.6,0.3,0.9,0.4c0.3,0.1,0.6,0.2,0.9,0.3l1.5,0.4c0.4,0.1,0.8,0.2,1.3,0.4c0.5,0.2,0.9,0.4,1.3,0.7
	c0.4,0.3,0.8,0.7,1.1,1.1c0.3,0.5,0.4,1.1,0.4,1.7c0,0.8-0.2,1.5-0.6,2.1c-0.4,0.7-1.1,1.2-1.8,1.5c-1.8,0.7-3.8,0.7-5.6,0.1
	c-0.7-0.3-1.3-0.8-1.8-1.4c-0.4-0.6-0.7-1.3-0.7-2.1h1.8c0,0.5,0.2,1,0.5,1.4c0.3,0.4,0.8,0.6,1.2,0.8c0.5,0.2,1.1,0.3,1.6,0.3
	c0.6,0,1.2-0.1,1.8-0.3c0.5-0.2,0.9-0.5,1.3-0.9c0.3-0.4,0.5-0.9,0.5-1.4c0-0.4-0.1-0.9-0.4-1.2c-0.3-0.3-0.7-0.6-1.1-0.7
	c-0.5-0.2-0.9-0.4-1.4-0.5l-1.8-0.5c-1-0.3-1.9-0.7-2.7-1.4c-0.7-0.6-1-1.5-1-2.4c0-0.8,0.2-1.5,0.7-2.1c0.5-0.6,1.1-1.1,1.8-1.4
	c1.6-0.7,3.4-0.7,5,0c0.7,0.3,1.3,0.8,1.7,1.4c0.4,0.6,0.7,1.3,0.7,2L648.8,126.5z M657.9,137.6c-1,0-1.9-0.2-2.7-0.7
	c-0.8-0.5-1.4-1.2-1.8-2c-0.4-0.9-0.6-1.9-0.6-2.9c0-1,0.2-2.1,0.6-3c0.4-0.8,1-1.5,1.7-2c0.8-0.5,1.7-0.7,2.6-0.7
	c0.6,0,1.1,0.1,1.7,0.3c0.6,0.2,1.1,0.5,1.5,0.9c0.5,0.5,0.9,1,1.1,1.7c0.3,0.8,0.4,1.7,0.4,2.6v0.7H654V131h6.7
	c0-0.6-0.1-1.1-0.4-1.6c-0.2-0.5-0.6-0.9-1-1.1c-0.5-0.3-1-0.4-1.6-0.4c-0.6,0-1.2,0.2-1.7,0.5c-0.5,0.3-0.9,0.8-1.1,1.3
	c-0.3,0.5-0.4,1.1-0.4,1.7v1c0,0.7,0.1,1.4,0.4,2.1c0.3,0.5,0.7,1,1.2,1.3c0.5,0.3,1.2,0.5,1.8,0.4c0.4,0,0.8-0.1,1.2-0.2
	c0.3-0.1,0.7-0.3,0.9-0.6c0.3-0.3,0.5-0.6,0.6-1l1.6,0.5c-0.2,0.5-0.5,1-0.9,1.4c-0.4,0.4-0.9,0.8-1.5,1
	C659.3,137.5,658.6,137.6,657.9,137.6L657.9,137.6z M669.4,137.6c-1.9,0.1-3.6-1-4.3-2.7c-0.4-0.9-0.6-1.9-0.6-2.9
	c0-1,0.2-2,0.6-2.9c0.4-0.8,1-1.5,1.7-2c0.8-0.5,1.7-0.7,2.6-0.7c0.7,0,1.4,0.1,2.1,0.4c0.6,0.3,1.1,0.7,1.5,1.2
	c0.4,0.5,0.6,1.1,0.7,1.8H672c-0.3-1.2-1.4-2-2.6-1.9c-0.6,0-1.2,0.2-1.7,0.5c-0.5,0.4-0.9,0.8-1.2,1.4c-0.3,0.7-0.4,1.4-0.4,2.2
	c0,0.8,0.1,1.5,0.4,2.2c0.2,0.6,0.6,1.1,1.1,1.5c0.5,0.3,1.1,0.5,1.7,0.5c0.4,0,0.8-0.1,1.2-0.2c0.3-0.1,0.7-0.4,0.9-0.6
	c0.2-0.3,0.4-0.6,0.5-1h1.7c-0.1,0.6-0.3,1.2-0.7,1.7c-0.4,0.5-0.9,0.9-1.5,1.2C670.9,137.5,670.1,137.7,669.4,137.6z M683,132.9
	v-6.4h1.7v10.9H683v-1.8h-0.1c-0.3,0.6-0.7,1.1-1.2,1.4c-0.6,0.4-1.3,0.6-2,0.6c-0.6,0-1.3-0.1-1.8-0.4c-0.5-0.3-1-0.8-1.2-1.4
	c-0.3-0.7-0.5-1.5-0.5-2.3v-7h1.7v6.8c0,0.7,0.2,1.4,0.7,1.9c0.4,0.5,1.1,0.7,1.7,0.7c0.4,0,0.9-0.1,1.3-0.3c0.4-0.2,0.8-0.6,1.1-1
	C682.9,134.1,683,133.5,683,132.9L683,132.9z M687.8,137.4v-10.9h1.6v1.6h0.1c0.2-0.5,0.6-1,1.1-1.3c0.5-0.3,1.1-0.5,1.8-0.5h0.9
	v1.7l-0.4-0.1c-0.2,0-0.4,0-0.6,0c-0.5,0-1,0.1-1.4,0.3c-0.4,0.2-0.8,0.5-1,0.9c-0.2,0.4-0.4,0.9-0.4,1.3v6.9L687.8,137.4z
	 M699.4,137.6c-1,0-1.9-0.2-2.7-0.7c-0.8-0.5-1.4-1.2-1.8-2c-0.4-0.9-0.6-1.9-0.6-2.9c0-1,0.2-2.1,0.6-3c0.4-0.8,1-1.5,1.7-2
	c0.8-0.5,1.7-0.7,2.6-0.7c0.6,0,1.1,0.1,1.7,0.3c0.6,0.2,1.1,0.5,1.5,0.9c0.5,0.5,0.9,1,1.1,1.7c0.3,0.8,0.4,1.7,0.4,2.6v0.7h-8.4
	V131h6.7c0-0.6-0.1-1.1-0.4-1.6c-0.2-0.5-0.6-0.9-1-1.1c-0.5-0.3-1-0.4-1.6-0.4c-0.6,0-1.2,0.2-1.7,0.5c-0.5,0.3-0.9,0.8-1.1,1.3
	c-0.3,0.5-0.4,1.1-0.4,1.7v1c0,0.7,0.1,1.4,0.4,2.1c0.3,0.5,0.7,1,1.2,1.3c0.5,0.3,1.2,0.5,1.8,0.4c0.4,0,0.8-0.1,1.2-0.2
	c0.3-0.1,0.7-0.3,0.9-0.6c0.3-0.3,0.5-0.6,0.6-1l1.6,0.5c-0.2,0.5-0.5,1-0.8,1.4c-0.4,0.4-0.9,0.8-1.5,1
	C700.8,137.5,700.1,137.6,699.4,137.6L699.4,137.6z M792.7,137.4v-14.5h4.9c1,0,1.9,0.2,2.8,0.6c0.7,0.3,1.3,0.9,1.6,1.6
	c0.4,0.7,0.5,1.5,0.5,2.3c0,0.8-0.2,1.6-0.5,2.3c-0.4,0.7-0.9,1.2-1.6,1.6c-0.9,0.4-1.8,0.6-2.8,0.6h-4v-1.6h3.9
	c0.6,0,1.3-0.1,1.9-0.3c0.4-0.2,0.8-0.6,1-1c0.2-0.5,0.3-1,0.3-1.5c0-0.5-0.1-1.1-0.3-1.5c-0.2-0.4-0.6-0.8-1-1
	c-0.6-0.3-1.2-0.4-1.9-0.4h-3.1v13H792.7z M799.6,130.9l3.6,6.5h-2l-3.5-6.5H799.6z M809.7,137.6c-1,0-1.9-0.2-2.7-0.7
	c-0.8-0.5-1.4-1.2-1.8-2c-0.4-0.9-0.6-1.9-0.6-2.9c0-1,0.2-2.1,0.6-3c0.4-0.8,1-1.5,1.7-2c0.8-0.5,1.7-0.7,2.6-0.7
	c0.6,0,1.1,0.1,1.7,0.3c0.6,0.2,1.1,0.5,1.5,0.9c0.5,0.5,0.9,1,1.1,1.7c0.3,0.8,0.4,1.7,0.4,2.6v0.7h-8.4V131h6.7
	c0-0.6-0.1-1.1-0.4-1.6c-0.2-0.5-0.6-0.9-1-1.1c-0.5-0.3-1-0.4-1.6-0.4c-0.6,0-1.2,0.2-1.7,0.5c-0.5,0.3-0.9,0.8-1.1,1.3
	c-0.3,0.5-0.4,1.1-0.4,1.7v1c0,0.7,0.1,1.4,0.4,2.1c0.3,0.5,0.7,1,1.2,1.3c0.5,0.3,1.2,0.5,1.8,0.4c0.4,0,0.8-0.1,1.2-0.2
	c0.3-0.1,0.7-0.3,0.9-0.6c0.3-0.3,0.5-0.6,0.6-1l1.6,0.5c-0.2,0.5-0.5,1-0.9,1.4c-0.4,0.4-0.9,0.8-1.5,1
	C811.1,137.5,810.4,137.6,809.7,137.6L809.7,137.6z M818.5,122.9v14.5h-1.7v-14.5L818.5,122.9z M826.1,137.6c-1,0-1.9-0.2-2.7-0.7
	c-0.8-0.5-1.4-1.2-1.8-2c-0.4-0.9-0.7-1.9-0.7-2.9c0-1,0.2-2.1,0.6-3c0.4-0.8,1-1.5,1.7-2c0.8-0.5,1.7-0.7,2.6-0.7
	c0.6,0,1.1,0.1,1.7,0.3c0.6,0.2,1.1,0.5,1.5,0.9c0.5,0.5,0.9,1,1.1,1.7c0.3,0.8,0.4,1.7,0.4,2.6v0.7h-8.4V131h6.7
	c0-0.6-0.1-1.1-0.4-1.6c-0.2-0.5-0.6-0.9-1-1.1c-0.5-0.3-1-0.4-1.6-0.4c-0.6,0-1.2,0.2-1.7,0.5c-0.5,0.3-0.9,0.8-1.1,1.3
	c-0.3,0.5-0.4,1.1-0.4,1.7v1c0,0.7,0.1,1.4,0.4,2.1c0.3,0.5,0.7,1,1.2,1.3c0.5,0.3,1.2,0.5,1.8,0.4c0.4,0,0.8-0.1,1.2-0.2
	c0.3-0.1,0.7-0.3,0.9-0.6c0.3-0.3,0.5-0.6,0.6-1l1.6,0.5c-0.2,0.5-0.5,1-0.9,1.4c-0.4,0.4-0.9,0.8-1.5,1
	C827.5,137.5,826.8,137.6,826.1,137.6L826.1,137.6z M836.4,137.7c-0.6,0-1.3-0.1-1.9-0.4c-0.5-0.3-1-0.7-1.3-1.1
	c-0.3-0.5-0.5-1.2-0.5-1.8c0-0.5,0.1-1.1,0.4-1.5c0.2-0.4,0.6-0.7,1-0.9c0.4-0.2,0.9-0.4,1.4-0.5c0.5-0.1,1-0.2,1.5-0.3l1.6-0.2
	c0.3,0,0.6-0.1,0.9-0.2c0.2-0.1,0.3-0.3,0.3-0.6c0-0.6-0.2-1.2-0.6-1.6c-0.5-0.4-1.1-0.6-1.7-0.6c-0.7,0-1.3,0.1-1.9,0.5
	c-0.4,0.3-0.8,0.7-1,1.1L833,129c0.2-0.6,0.6-1.1,1.1-1.6c0.5-0.4,1-0.6,1.6-0.8c0.5-0.1,1.1-0.2,1.7-0.2c0.4,0,0.8,0,1.2,0.1
	c0.5,0.1,0.9,0.3,1.3,0.5c0.5,0.3,0.8,0.7,1.1,1.2c0.3,0.6,0.5,1.4,0.4,2.1v7.2h-1.7V136h-0.1c-0.2,0.3-0.3,0.5-0.6,0.8
	c-0.3,0.3-0.7,0.5-1.1,0.7C837.5,137.6,836.9,137.7,836.4,137.7L836.4,137.7z M836.7,136.2c0.6,0,1.2-0.1,1.7-0.4
	c0.4-0.2,0.8-0.6,1-1c0.2-0.4,0.4-0.8,0.3-1.3v-1.5c-0.1,0.1-0.3,0.2-0.5,0.2c-0.3,0.1-0.5,0.1-0.8,0.2l-0.9,0.1l-0.7,0.1
	c-0.4,0-0.8,0.1-1.2,0.3c-0.3,0.1-0.7,0.3-0.9,0.6c-0.2,0.3-0.4,0.6-0.3,1c0,0.5,0.2,1,0.7,1.3C835.5,136,836.1,136.2,836.7,136.2
	L836.7,136.2z M852.2,128.9l-1.5,0.4c-0.1-0.3-0.2-0.5-0.4-0.7c-0.2-0.3-0.4-0.5-0.7-0.6c-0.4-0.2-0.8-0.3-1.2-0.2
	c-0.6,0-1.2,0.1-1.7,0.5c-0.4,0.2-0.7,0.7-0.7,1.2c0,0.4,0.2,0.8,0.5,1c0.4,0.3,0.9,0.5,1.4,0.6l1.6,0.4c0.8,0.2,1.6,0.5,2.2,1.1
	c0.5,0.5,0.7,1.2,0.7,1.9c0,0.6-0.2,1.2-0.5,1.7c-0.4,0.5-0.9,0.9-1.5,1.2c-0.7,0.3-1.5,0.4-2.2,0.4c-1,0-1.9-0.2-2.8-0.7
	c-0.7-0.5-1.2-1.3-1.4-2.1l1.6-0.4c0.1,0.5,0.4,1,0.9,1.3c0.5,0.3,1.1,0.5,1.7,0.4c0.7,0,1.3-0.1,1.9-0.5c0.4-0.3,0.7-0.7,0.7-1.2
	c0-0.4-0.1-0.7-0.4-1c-0.3-0.3-0.8-0.5-1.2-0.6l-1.8-0.4c-0.8-0.1-1.6-0.5-2.2-1.1c-0.5-0.5-0.7-1.2-0.7-1.9c0-0.6,0.2-1.2,0.5-1.6
	c0.4-0.5,0.9-0.9,1.4-1.1c0.6-0.3,1.4-0.4,2.1-0.4c0.9,0,1.8,0.2,2.5,0.7C851.5,127.5,852,128.2,852.2,128.9L852.2,128.9z
	 M859.5,137.6c-1,0-1.9-0.2-2.7-0.7c-0.8-0.5-1.4-1.2-1.8-2c-0.4-0.9-0.6-1.9-0.6-2.9c0-1,0.2-2.1,0.6-3c0.4-0.8,1-1.5,1.7-2
	c0.8-0.5,1.7-0.7,2.6-0.7c0.6,0,1.1,0.1,1.7,0.3c0.6,0.2,1.1,0.5,1.5,0.9c0.5,0.5,0.9,1,1.1,1.7c0.3,0.8,0.4,1.7,0.4,2.6v0.7h-8.4
	V131h6.7c0-0.6-0.1-1.1-0.4-1.6c-0.2-0.5-0.6-0.9-1-1.1c-0.5-0.3-1-0.4-1.6-0.4c-0.6,0-1.2,0.2-1.7,0.5c-0.5,0.3-0.9,0.8-1.1,1.3
	c-0.3,0.5-0.4,1.1-0.4,1.7v1c0,0.7,0.1,1.4,0.4,2.1c0.3,0.5,0.7,1,1.2,1.3c0.5,0.3,1.2,0.5,1.8,0.4c0.4,0,0.8-0.1,1.2-0.2
	c0.3-0.1,0.7-0.3,0.9-0.6c0.3-0.3,0.5-0.6,0.6-1l1.6,0.5c-0.2,0.5-0.5,1-0.9,1.4c-0.4,0.4-0.9,0.8-1.5,1
	C860.9,137.5,860.2,137.6,859.5,137.6L859.5,137.6z M950.1,127.4h-1.8c-0.1-0.5-0.3-0.9-0.5-1.3c-0.2-0.4-0.6-0.7-0.9-1
	c-0.4-0.3-0.8-0.5-1.2-0.6c-0.5-0.1-0.9-0.2-1.4-0.2c-0.8,0-1.7,0.2-2.4,0.7c-0.7,0.5-1.3,1.2-1.7,2c-0.8,2-0.8,4.3,0,6.4
	c0.4,0.8,0.9,1.5,1.7,2c0.7,0.4,1.5,0.7,2.4,0.7c0.5,0,0.9-0.1,1.4-0.2c0.4-0.1,0.8-0.3,1.2-0.6c0.8-0.5,1.3-1.4,1.5-2.3h1.8
	c-0.1,0.7-0.4,1.4-0.7,2c-0.3,0.6-0.8,1.1-1.3,1.5c-0.5,0.4-1.1,0.7-1.8,0.9c-0.7,0.2-1.4,0.3-2.1,0.3c-1.2,0-2.3-0.3-3.3-0.9
	c-1-0.6-1.8-1.5-2.3-2.6c-1.1-2.6-1.1-5.4,0-8c0.5-1.1,1.3-1.9,2.3-2.6c1-0.6,2.1-0.9,3.3-0.9c0.7,0,1.4,0.1,2.1,0.3
	c0.6,0.2,1.2,0.5,1.8,0.9c0.5,0.4,1,0.9,1.3,1.5C949.7,126,950,126.7,950.1,127.4L950.1,127.4z M957.2,137.6c-1.8,0.1-3.5-1-4.3-2.7
	c-0.4-0.9-0.7-2-0.6-3c0-1,0.2-2.1,0.6-3c0.4-0.8,1-1.5,1.7-2c1.6-0.9,3.6-0.9,5.2,0c0.8,0.5,1.4,1.2,1.7,2c0.4,0.9,0.7,2,0.6,3
	c0,1-0.2,2.1-0.6,3C960.7,136.6,959,137.7,957.2,137.6L957.2,137.6z M957.2,136.1c0.7,0,1.3-0.2,1.8-0.6c0.5-0.4,0.9-0.9,1.1-1.5
	c0.5-1.3,0.5-2.8,0-4.1c-0.2-0.6-0.6-1.1-1.1-1.5c-1.1-0.8-2.6-0.8-3.7,0c-0.5,0.4-0.9,0.9-1.1,1.5c-0.5,1.3-0.5,2.8,0,4.1
	c0.2,0.6,0.6,1.1,1.1,1.5C955.8,135.9,956.5,136.2,957.2,136.1z M966.3,130.8v6.6h-1.7v-10.9h1.6v1.7h0.1c0.3-0.5,0.7-1,1.2-1.3
	c0.6-0.4,1.3-0.5,2-0.5c0.7,0,1.3,0.1,1.9,0.4c0.6,0.3,1,0.8,1.3,1.4c0.3,0.7,0.5,1.5,0.5,2.3v6.9h-1.7v-6.8c0-0.7-0.2-1.4-0.7-2
	c-0.5-0.5-1.2-0.8-1.8-0.7c-0.5,0-1,0.1-1.4,0.4c-0.4,0.2-0.8,0.6-1,1C966.4,129.7,966.3,130.3,966.3,130.8z M981.2,126.5v1.4h-5.9
	v-1.4H981.2z M977.1,137.4V125c0-0.6,0.1-1.1,0.4-1.6c0.3-0.4,0.7-0.7,1.2-0.9c0.5-0.2,1-0.3,1.5-0.3c0.3,0,0.7,0,1,0.1
	c0.2,0,0.4,0.1,0.6,0.2l-0.5,1.4l-0.3-0.1c-0.2,0-0.4-0.1-0.6-0.1c-0.4,0-0.9,0.1-1.2,0.4c-0.3,0.4-0.4,0.8-0.4,1.2v12H977.1z
	 M984.4,124.7c-0.3,0-0.6-0.1-0.8-0.3c-0.4-0.4-0.5-1.1-0.1-1.5c0,0,0,0,0.1-0.1c0.5-0.5,1.2-0.5,1.7,0c0.4,0.4,0.5,1.1,0.1,1.5
	c0,0,0,0-0.1,0.1C985.1,124.6,984.7,124.7,984.4,124.7z M983.6,137.4v-10.9h1.7v10.9H983.6z M992.7,141.7c-0.7,0-1.4-0.1-2.1-0.3
	c-0.5-0.2-1-0.4-1.4-0.8c-0.4-0.3-0.7-0.7-0.9-1.1l1.3-0.9c0.2,0.2,0.3,0.4,0.6,0.7c0.3,0.3,0.6,0.5,1,0.7c0.5,0.2,1.1,0.3,1.6,0.3
	c0.8,0,1.5-0.2,2.2-0.6c0.6-0.5,0.9-1.2,0.9-2v-2.2h-0.1c-0.1,0.2-0.3,0.4-0.5,0.7c-0.3,0.3-0.6,0.6-1,0.8c-0.5,0.2-1.1,0.4-1.7,0.3
	c-0.8,0-1.7-0.2-2.4-0.6c-0.7-0.4-1.3-1.1-1.7-1.8c-0.4-0.9-0.6-1.9-0.6-2.9c0-1,0.2-2,0.6-2.9c0.3-0.8,0.9-1.5,1.6-2
	c0.7-0.5,1.6-0.7,2.4-0.7c0.6,0,1.2,0.1,1.7,0.4c0.4,0.2,0.7,0.5,1,0.8c0.2,0.3,0.4,0.5,0.5,0.7h0.2v-1.7h1.6v11.2
	c0,0.8-0.2,1.6-0.6,2.3c-0.4,0.6-1,1-1.7,1.3C994.3,141.6,993.5,141.7,992.7,141.7L992.7,141.7z M992.7,135.7c0.6,0,1.2-0.1,1.7-0.5
	c0.5-0.3,0.8-0.8,1.1-1.3c0.3-0.7,0.4-1.4,0.4-2.1c0-0.7-0.1-1.4-0.4-2.1c-0.2-0.6-0.5-1-1-1.4c-1.1-0.7-2.4-0.7-3.5,0
	c-0.5,0.4-0.8,0.9-1.1,1.4c-0.2,0.6-0.4,1.3-0.3,2c0,0.7,0.1,1.4,0.4,2c0.2,0.6,0.6,1,1.1,1.4C991.5,135.5,992.1,135.7,992.7,135.7
	L992.7,135.7z M1007.4,132.9v-6.4h1.7v10.9h-1.7v-1.8h-0.1c-0.3,0.6-0.7,1.1-1.2,1.4c-0.6,0.4-1.3,0.6-2,0.6c-0.6,0-1.3-0.1-1.8-0.4
	c-0.5-0.3-1-0.8-1.2-1.4c-0.3-0.7-0.5-1.5-0.5-2.3v-6.9h1.7v6.8c0,0.7,0.2,1.4,0.7,1.9c0.4,0.5,1.1,0.7,1.7,0.7
	c0.4,0,0.9-0.1,1.3-0.3c0.4-0.2,0.8-0.6,1.1-1C1007.3,134.1,1007.4,133.5,1007.4,132.9L1007.4,132.9z M1012.1,137.4v-10.9h1.6v1.6
	h0.1c0.2-0.5,0.6-1,1.1-1.3c0.5-0.3,1.1-0.5,1.8-0.5h0.9v1.7l-0.4-0.1c-0.2,0-0.4,0-0.6,0c-0.5,0-1,0.1-1.4,0.3
	c-0.4,0.2-0.8,0.5-1,0.9c-0.2,0.4-0.4,0.9-0.4,1.3v6.9L1012.1,137.4z M1023.8,137.6c-1,0-1.9-0.2-2.7-0.7c-0.8-0.5-1.4-1.2-1.8-2
	c-0.4-0.9-0.6-1.9-0.6-2.9c0-1,0.2-2.1,0.6-3c0.4-0.8,1-1.5,1.7-2c0.8-0.5,1.7-0.7,2.6-0.7c0.6,0,1.1,0.1,1.7,0.3
	c0.6,0.2,1.1,0.5,1.5,0.9c0.5,0.5,0.9,1,1.1,1.7c0.3,0.8,0.4,1.7,0.4,2.6v0.7h-8.4V131h6.7c0-0.6-0.1-1.1-0.4-1.6
	c-0.2-0.5-0.6-0.9-1-1.1c-0.5-0.3-1-0.4-1.6-0.4c-0.6,0-1.2,0.2-1.7,0.5c-0.5,0.3-0.9,0.8-1.1,1.3c-0.3,0.5-0.4,1.1-0.4,1.7v1
	c0,0.7,0.1,1.4,0.4,2.1c0.3,0.5,0.7,1,1.2,1.3c0.5,0.3,1.2,0.5,1.8,0.4c0.4,0,0.8-0.1,1.2-0.2c0.7-0.2,1.3-0.8,1.5-1.5l1.6,0.5
	c-0.2,0.5-0.5,1-0.9,1.4c-0.4,0.4-0.9,0.8-1.5,1C1025.2,137.5,1024.5,137.6,1023.8,137.6z M1105.4,122.9h2.1l5,12.1h0.2l4.9-12.1
	h2.1v14.5h-1.7v-11.1h-0.2l-4.5,11.1h-1.6l-4.6-11.1h-0.1v11.1h-1.7L1105.4,122.9z M1127.4,137.6c-1.8,0.1-3.5-1-4.3-2.7
	c-0.4-0.9-0.7-2-0.6-3c0-1,0.2-2.1,0.6-3c0.4-0.8,1-1.5,1.7-2c1.6-0.9,3.6-0.9,5.2,0c0.8,0.5,1.4,1.2,1.7,2c0.4,0.9,0.7,2,0.6,3
	c0,1-0.2,2.1-0.6,3C1130.9,136.6,1129.2,137.7,1127.4,137.6L1127.4,137.6z M1127.4,136.1c0.7,0,1.3-0.2,1.8-0.6
	c0.5-0.4,0.9-0.9,1.1-1.5c0.5-1.3,0.5-2.8,0-4.1c-0.2-0.6-0.6-1.1-1.1-1.5c-1.1-0.8-2.6-0.8-3.7,0c-0.5,0.4-0.9,0.9-1.1,1.5
	c-0.5,1.3-0.5,2.8,0,4.1c0.2,0.6,0.6,1.1,1.1,1.5C1126.1,135.9,1126.7,136.2,1127.4,136.1z M1136.6,130.8v6.6h-1.7v-10.9h1.6v1.7
	h0.1c0.3-0.5,0.7-1,1.2-1.3c0.6-0.4,1.3-0.5,2-0.5c0.7,0,1.3,0.1,1.9,0.4c0.6,0.3,1,0.8,1.3,1.4c0.3,0.7,0.5,1.5,0.5,2.3v6.9h-1.7
	v-6.8c0-0.7-0.2-1.4-0.7-2c-0.5-0.5-1.1-0.8-1.8-0.7c-0.5,0-1,0.1-1.4,0.4c-0.4,0.2-0.8,0.6-1,1
	C1136.7,129.7,1136.6,130.3,1136.6,130.8L1136.6,130.8z M1147.5,124.7c-0.3,0-0.6-0.1-0.8-0.3c-0.4-0.4-0.5-1.1-0.1-1.5
	c0,0,0.1-0.1,0.1-0.1c0.2-0.2,0.5-0.3,0.8-0.3c0.3,0,0.6,0.1,0.8,0.3c0.4,0.4,0.5,1.1,0.1,1.5c0,0,0,0-0.1,0.1
	C1148.1,124.6,1147.8,124.7,1147.5,124.7z M1146.6,137.4v-10.9h1.7v10.9H1146.6z M1156.1,126.5v1.4h-5.7v-1.4H1156.1z M1152.1,123.9
	h1.7v10.4c0,0.4,0,0.7,0.2,1.1c0.1,0.2,0.3,0.4,0.5,0.5c0.2,0.1,0.5,0.1,0.7,0.1c0.2,0,0.3,0,0.5,0l0.3-0.1l0.3,1.5l-0.5,0.1
	c-0.3,0-0.5,0.1-0.8,0.1c-0.5,0-1-0.1-1.4-0.3c-1-0.4-1.6-1.4-1.6-2.5L1152.1,123.9z M1162.9,137.6c-1.8,0.1-3.5-1-4.3-2.7
	c-0.4-0.9-0.7-2-0.6-3c0-1,0.2-2.1,0.6-3c0.4-0.8,1-1.5,1.7-2c1.6-0.9,3.6-0.9,5.2,0c0.8,0.5,1.4,1.2,1.7,2c0.4,0.9,0.7,2,0.6,3
	c0,1-0.2,2.1-0.6,3C1166.5,136.6,1164.8,137.7,1162.9,137.6L1162.9,137.6z M1162.9,136.1c0.7,0,1.3-0.2,1.8-0.6
	c0.5-0.4,0.9-0.9,1.1-1.5c0.5-1.3,0.5-2.8,0-4.1c-0.2-0.6-0.6-1.1-1.1-1.5c-1.1-0.8-2.6-0.8-3.7,0c-0.5,0.4-0.9,0.9-1.1,1.6
	c-0.5,1.3-0.5,2.8,0,4.1c0.2,0.6,0.6,1.1,1.1,1.5C1161.6,136,1162.3,136.2,1162.9,136.1z M1170.4,137.4v-10.9h1.6v1.6h0.1
	c0.2-0.5,0.6-1,1.1-1.3c0.5-0.3,1.1-0.5,1.8-0.5h0.9v1.7c-0.1,0-0.3-0.1-0.4-0.1c-0.2,0-0.4,0-0.6,0c-0.5,0-1,0.1-1.4,0.3
	c-0.4,0.2-0.8,0.5-1,0.9c-0.2,0.4-0.4,0.9-0.3,1.3v6.9L1170.4,137.4z M1263.3,137.4v-14.5h4.9c1,0,1.9,0.2,2.8,0.6
	c0.7,0.4,1.3,1,1.6,1.7c0.4,0.7,0.5,1.5,0.5,2.3c0,0.8-0.2,1.6-0.5,2.3c-0.4,0.7-0.9,1.3-1.6,1.7c-0.9,0.4-1.8,0.7-2.8,0.6h-3.5
	v-1.6h3.5c0.7,0,1.3-0.1,1.9-0.4c0.4-0.2,0.8-0.6,1-1.1c0.2-0.5,0.3-1,0.3-1.6c0-0.5-0.1-1.1-0.3-1.6c-0.2-0.5-0.6-0.8-1-1.1
	c-0.6-0.3-1.2-0.4-1.9-0.4h-3.1v13L1263.3,137.4z M1275.7,137.4v-10.9h1.6v1.6h0.1c0.2-0.5,0.6-1,1.1-1.3c0.5-0.3,1.1-0.5,1.8-0.5
	h0.9v1.7l-0.4-0.1c-0.2,0-0.4,0-0.6,0c-0.5,0-1,0.1-1.4,0.3c-0.4,0.2-0.8,0.5-1,0.9c-0.2,0.4-0.4,0.9-0.4,1.3v6.9L1275.7,137.4z
	 M1287.3,137.6c-1.8,0.1-3.5-1-4.3-2.6c-0.4-0.9-0.7-2-0.6-3c0-1,0.2-2.1,0.6-3c0.8-1.7,2.5-2.7,4.3-2.7c0.9,0,1.8,0.2,2.6,0.7
	c0.8,0.5,1.4,1.2,1.7,2c0.4,0.9,0.6,2,0.6,3c0,1-0.2,2.1-0.6,3C1290.9,136.7,1289.2,137.8,1287.3,137.6L1287.3,137.6z M1287.3,136.1
	c0.7,0,1.3-0.2,1.8-0.6c0.5-0.4,0.9-0.9,1.1-1.5c0.5-1.3,0.5-2.8,0-4.1c-0.2-0.6-0.6-1.1-1.1-1.5c-0.5-0.4-1.2-0.6-1.8-0.6
	c-0.7,0-1.3,0.2-1.8,0.6c-0.5,0.4-0.9,0.9-1.1,1.5c-0.5,1.3-0.5,2.8,0,4.1c0.2,0.6,0.6,1.1,1.1,1.5
	C1286,135.9,1286.6,136.2,1287.3,136.1z M1299.5,126.5v1.4h-5.7v-1.4H1299.5z M1295.5,123.9h1.7v10.4c0,0.4,0,0.7,0.2,1.1
	c0.1,0.2,0.3,0.4,0.5,0.5c0.2,0.1,0.5,0.1,0.7,0.1c0.2,0,0.3,0,0.5,0l0.3-0.1l0.3,1.5c-0.2,0.1-0.3,0.1-0.5,0.1
	c-0.3,0-0.5,0.1-0.8,0.1c-0.5,0-1-0.1-1.4-0.3c-0.5-0.2-0.8-0.5-1.1-0.9c-0.3-0.5-0.5-1-0.4-1.6V123.9z M1306.5,137.6
	c-1,0-1.9-0.2-2.7-0.7c-0.8-0.5-1.4-1.2-1.8-2c-0.4-0.9-0.6-1.9-0.6-2.9c0-1,0.2-2.1,0.6-3c0.4-0.8,1-1.5,1.7-2
	c0.8-0.5,1.7-0.7,2.6-0.7c0.6,0,1.1,0.1,1.7,0.3c0.6,0.2,1.1,0.5,1.5,0.9c0.5,0.5,0.9,1,1.1,1.7c0.3,0.8,0.4,1.7,0.4,2.6v0.7h-8.4
	V131h6.7c0-0.6-0.1-1.1-0.4-1.6c-0.2-0.5-0.6-0.9-1-1.1c-0.5-0.3-1-0.4-1.6-0.4c-0.6,0-1.2,0.2-1.7,0.5c-0.5,0.3-0.9,0.8-1.1,1.3
	c-0.3,0.5-0.4,1.1-0.4,1.7v1c0,0.7,0.1,1.4,0.4,2.1c0.3,0.5,0.7,1,1.2,1.3c0.5,0.3,1.2,0.5,1.8,0.4c0.4,0,0.8-0.1,1.2-0.2
	c0.3-0.1,0.7-0.3,0.9-0.6c0.3-0.3,0.5-0.6,0.6-1l1.6,0.5c-0.2,0.5-0.5,1-0.9,1.4c-0.4,0.4-0.9,0.8-1.5,1
	C1307.9,137.5,1307.2,137.6,1306.5,137.6z M1318,137.6c-0.9,0-1.9-0.2-2.7-0.7c-0.7-0.5-1.3-1.2-1.7-2c-0.8-1.9-0.8-4,0-5.8
	c0.4-0.8,1-1.5,1.7-2c0.8-0.5,1.7-0.7,2.6-0.7c0.7,0,1.4,0.1,2.1,0.4c0.6,0.3,1.1,0.7,1.5,1.2c0.4,0.5,0.7,1.1,0.7,1.8h-1.7
	c-0.3-1.2-1.4-2-2.6-1.9c-0.6,0-1.2,0.2-1.7,0.5c-0.5,0.4-0.9,0.8-1.1,1.4c-0.3,0.7-0.4,1.4-0.4,2.2c0,0.8,0.1,1.5,0.4,2.2
	c0.2,0.6,0.6,1.1,1.1,1.5c0.5,0.3,1.1,0.5,1.7,0.5c0.4,0,0.8-0.1,1.2-0.2c0.3-0.1,0.7-0.4,0.9-0.6c0.3-0.3,0.4-0.6,0.5-1h1.7
	c-0.1,0.6-0.3,1.2-0.7,1.7c-0.4,0.5-0.9,0.9-1.5,1.2C1319.4,137.5,1318.7,137.7,1318,137.6L1318,137.6z M1329.5,126.5v1.4h-5.7v-1.4
	H1329.5z M1325.5,123.9h1.7v10.4c0,0.4,0,0.7,0.2,1.1c0.1,0.2,0.3,0.4,0.5,0.5c0.2,0.1,0.5,0.1,0.7,0.1c0.2,0,0.3,0,0.5,0l0.3-0.1
	l0.3,1.5l-0.5,0.1c-0.3,0-0.5,0.1-0.8,0.1c-0.5,0-1-0.1-1.4-0.3c-1-0.4-1.6-1.4-1.6-2.5L1325.5,123.9z"/>
<path class="st1" d="M1409.6,38h20v57h-20V38z M1439.6,53h20v42h-20V53z M1453.9,20.5l20.9-12.2 M1425.3,14.6l19.6,6.7 M1416.2,15.5
	l-14.2,8 M1482.6,9l14.4,10.7"/>
<circle class="st1" cx="1449.6" cy="23" r="5"/>
<circle class="st1" cx="1478.6" cy="6" r="5"/>
<circle class="st1" cx="1420.6" cy="13" r="5"/>
<path class="st1" d="M1469.6,28h20v55c0,6.6-5.4,12-12,12h-8V28z M25,37H0 M35,37h28.5c4.7,0,8.5,3.8,8.5,8.5c0,4.7-3.8,8.5-8.5,8.5
	h-31c-4.7,0-8.5,3.8-8.5,8.5c0,4.7,3.8,8.5,8.5,8.5H62 M72,71h24 M24,22.7V4 M72,23V4"/>
<circle class="st1" cx="29.5" cy="37" r="5"/>
<circle class="st1" cx="66.5" cy="71" r="5"/>
<path class="st1" d="M89,71v8c0,6.6-5.4,12-12,12H7V46 M7,36V16h82v46"/>
<circle class="st1" cx="164" cy="88" r="5"/>
<path class="st1" d="M244,33v42c0,6.6-5.4,12-12,12h-63 M164,83V8h55 M222.3,13.4l16.3,16.3 M181.4,54.3l16.3,16.3"/>
<path class="st1" d="M197.7,70.6l-21.9,5.6l5.6-21.9l52.9-52.9l16.3,16.3L197.7,70.6z"/>
<path class="st2" d="M177.9,69.1l-2.1,7.1l7-2.1L177.9,69.1L177.9,69.1z"/>
<path class="st1" d="M395.5,42.3c-3.2,19.3-21.5,32.4-40.9,29.2c-12.4-2.1-22.7-10.5-27.3-22.2 M325.4,31.1
	c2.9-19.4,21-32.7,40.4-29.8c13,2,23.8,10.9,28.2,23.3"/>
<path class="st1" d="M340,66v28.3L360,83l20,11.3V66"/>
<circle class="st1" cx="325" cy="37" r="5"/>
<circle class="st1" cx="396" cy="37" r="5"/>
<path class="st1" d="M349,37l8,8l18-18 M401,37h7 M320,37h-8 M558,53v24c0,6.6-5.4,12-12,12h-72V62 M474,42.4V7h84v27"/>
<circle class="st1" cx="474" cy="48" r="5"/>
<circle class="st1" cx="558" cy="48" r="5"/>
<path class="st1" d="M511,62l10-28 M526,38l10,10l-10,10 M506,58l-10-10l10-10 M712,67v16c0,6.6-5.4,12-12,12h-68V75 M632,67V39h80
	v21 M672,1c16.6,0,30,13.4,30,30v8h-60v-8C642,14.4,655.4,1,672,1z"/>
<circle class="st1" cx="672" cy="67" r="5"/>
<path class="st1" d="M677,67h43 M624,67h43 M869.7,53.5C866.9,74.4,849.1,90,828,90 M833.5,6.3c18.8,2.5,33.6,17.3,36.2,36.1
	 M786.4,42.4c2.5-18.8,17.3-33.5,36.1-36 M804.4,82.7c-9.9-6.7-16.4-17.4-18-29.3 M828,90h-37 M872,90h-23"/>
<circle class="st1" cx="786" cy="90" r="5"/>
<circle class="st1" cx="828" cy="6" r="5"/>
<circle class="st1" cx="786" cy="48" r="5"/>
<circle class="st1" cx="870" cy="48" r="5"/>
<path class="st1" d="M868,85l5,5l-5,5 M815.1,48.6l8,8l18-18 M1027,56V40l-9.2-1c-0.8-3.2-2.1-6.3-3.8-9.2l5.7-7.2l-11.3-11.3
	l-7.2,5.7c-2.9-1.7-6-3-9.2-3.8L991,4h-16l-1,9.1c-3.2,0.8-6.3,2.1-9.2,3.8l-7.2-5.7l-11.3,11.3l5.7,7.2c-1.7,2.9-3,6-3.8,9.2
	l-9.2,1v16l9.2,1c0.8,3.2,2.1,6.3,3.8,9.2l-5.7,7.2l11.3,11.3l7.2-5.7c2.9,1.7,6,3,9.2,3.8l1,9.2h16l1-9.2c3.2-0.8,6.3-2.1,9.2-3.8
	l7.2,5.7l11.3-11.3l-5.7-7.2c1.7-2.9,3-6,3.8-9.2L1027,56z"/>
<circle class="st1" cx="973" cy="38" r="5"/>
<circle class="st1" cx="993" cy="58" r="5"/>
<path class="st1" d="M968,38h-9 M1007,38h-29 M988,58h-29 M998,58h9 M1182,54v23c0,6.6-5.4,12-12,12h-72V62 M1098,54V7h84v39
	 M1097,25h86"/>
<circle class="st1" cx="1118" cy="54" r="5"/>
<circle class="st1" cx="1162" cy="54" r="5"/>
<path class="st1" d="M1092,54h21 M1159.2,49.4L1150,34l-20,40l-9.4-15.7 M1167,54h21 M1259.1,60.3c4.3,11.5,14.3,28,36.9,34.5
	c27.8-8.1,36.5-31.4,39.1-41.6 M1336,35V14.4c0,0-26.3,8.8-40-12.5c-13.7,21.3-40,12.5-40,12.5v28.2"/>
<circle class="st1" cx="1336" cy="48" r="5"/>
<circle class="st1" cx="1256" cy="48" r="5"/>
<path class="st1" d="M1283.4,50l7.4,7.4l17.7-17.7"/>
</svg>
