<svg xmlns="http://www.w3.org/2000/svg" xmlns:xlink="http://www.w3.org/1999/xlink" viewBox="0 0 3000 400"><defs><linearGradient id="linear-gradient" x1="2501.45" y1="202.82" x2="2622.3" y2="202.82" gradientUnits="userSpaceOnUse"><stop offset="0" stop-color="#74717a" stop-opacity="0"/><stop offset=".4" stop-color="#74717a"/><stop offset=".6" stop-color="#74717a"/><stop offset="1" stop-color="#74717a" stop-opacity="0"/></linearGradient><linearGradient id="linear-gradient-2" x1="2234.57" x2="2355.43" xlink:href="#linear-gradient"/><linearGradient id="linear-gradient-3" x1="1974.54" x2="2090.27" xlink:href="#linear-gradient"/><linearGradient id="linear-gradient-4" x1="1702.54" x2="1818.26" xlink:href="#linear-gradient"/><linearGradient id="linear-gradient-5" x1="1440.8" x2="1563.36" xlink:href="#linear-gradient"/><linearGradient id="linear-gradient-6" x1="1175.63" x2="1281.7" xlink:href="#linear-gradient"/><linearGradient id="linear-gradient-7" x1="895.08" x2="1001.14" xlink:href="#linear-gradient"/><linearGradient id="linear-gradient-8" x1="629.91" x2="762.74" xlink:href="#linear-gradient"/><linearGradient id="linear-gradient-9" x1="361.33" x2="494.16" xlink:href="#linear-gradient"/><linearGradient id="linear-gradient-10" x1="2771.74" x2="2982.73" xlink:href="#linear-gradient"/><linearGradient id="linear-gradient-11" x1="17.27" x2="228.26" xlink:href="#linear-gradient"/><style>.cls-9{fill:none;stroke-width:4.53px;stroke:#171321;stroke-miterlimit:10}</style></defs><g style="isolation:isolate"><g id="Layer_1" data-name="Layer 1"><path class="cls-9" d="M226.73 182.89h34.21v97.51h-34.21zM278.06 208.55h34.21v71.85h-34.21zM302.54 152.91l35.76-20.97M253.63 142.91l33.45 11.54M238.1 144.33l-24.21 13.64M351.63 133.26l24.63 18.31"/><circle class="cls-9" cx="295.16" cy="157.23" r="8.55"/><circle class="cls-9" cx="344.77" cy="128.15" r="8.55"/><circle class="cls-9" cx="245.55" cy="140.12" r="8.55"/><path class="cls-9" d="M329.38 165.79h34.21v96.51c0 9.99-8.11 18.1-18.1 18.1h-16.11V165.78z"/><g><path class="cls-9" d="M522.69 181.18h-42.77M539.8 181.18h48.76c8.03 0 14.54 6.51 14.54 14.54s-6.51 14.54-14.54 14.54h-53.03c-8.03 0-14.54 6.51-14.54 14.54s6.51 14.54 14.54 14.54H586M603.09 239.35h41.06M520.98 156.67v-31.94M603.09 157.23v-32.5"/><circle class="cls-9" cx="530.39" cy="181.18" r="8.55"/><circle class="cls-9" cx="593.68" cy="239.35" r="8.55"/><path class="cls-9" d="M632.18 239.35v13.69c0 11.34-9.19 20.53-20.53 20.53H491.9v-76.98M491.9 179.47v-34.21h140.28v78.69"/></g><g><circle class="cls-9" cx="760.48" cy="268.43" r="8.55"/><path class="cls-9" d="M897.34 174.34v71.85c0 11.34-9.19 20.53-20.53 20.53H769.03M760.48 259.88V131.57h94.09M860.18 140.87L888 168.69M790.28 210.77l27.82 27.82"/><path class="cls-9" d="M818.11 238.58l-37.46 9.64 9.64-37.46 90.45-90.45 27.82 27.82-90.45 90.45z"/><path fill="#171321" d="M784.24 236.17l-3.59 12.05 12.05-3.59-8.46-8.46z"/></g><g><path class="cls-9" d="M1156.55 190.32c-4.76 28.79-29.78 50.74-59.91 50.74-25.8 0-47.85-16.09-56.65-38.79M1036.6 171.1c4.44-29.16 29.63-51.51 60.04-51.51 26.38 0 48.84 16.83 57.22 40.33"/><path class="cls-9" d="M1061.57 230.79v48.38l34.21-19.29 34.22 19.29v-48.38"/><circle class="cls-9" cx="1035.91" cy="181.18" r="8.55"/><circle class="cls-9" cx="1157.37" cy="181.18" r="8.55"/><path class="cls-9" d="M1076.96 181.18l13.69 13.69 30.79-30.8M1165.92 181.18h11.98M1027.35 181.18h-13.68"/></g><g><path class="cls-9" d="M1434.51 208.55v41.06c0 11.34-9.19 20.53-20.53 20.53h-123.17v-46.19M1290.8 190.42v-60.56h143.71v46.19"/><circle class="cls-9" cx="1290.8" cy="200" r="8.55"/><circle class="cls-9" cx="1434.51" cy="200" r="8.55"/><path class="cls-9" d="M1354.1 223.95l17.11-47.9M1379.76 182.89l17.11 17.11-17.11 17.11M1345.55 217.11L1328.44 200l17.11-17.11"/></g><g><path class="cls-9" d="M1697.96 232.5v27.37c0 11.34-9.19 20.53-20.53 20.53H1561.1v-34.21M1561.1 232.5v-47.9h136.86v35.93"/><path class="cls-9" d="M1623.47 119.6h12.12c24.98 0 45.26 20.28 45.26 45.26v19.75h-102.64v-19.75c0-24.98 20.28-45.26 45.26-45.26z"/><circle class="cls-9" cx="1629.53" cy="232.5" r="8.55"/><path class="cls-9" d="M1638.08 232.5h73.56M1547.41 232.5h73.56"/></g><g><path class="cls-9" d="M1967.65 209.35c-4.58 35.26-34.73 62.5-71.25 62.5M1905.77 128.75c32.13 4.18 57.59 29.59 61.85 61.69M1825.18 190.44c4.26-32.08 29.7-57.48 61.8-61.68M1855.99 259.42c-16.54-11.27-28.13-29.27-30.83-50.07M1896.4 271.85h-63.3M1971.67 271.85h-39.34"/><circle class="cls-9" cx="1824.55" cy="271.85" r="8.55"/><circle class="cls-9" cx="1896.4" cy="128.15" r="8.55"/><circle class="cls-9" cx="1824.55" cy="200" r="8.55"/><circle class="cls-9" cx="1968.25" cy="200" r="8.55"/><path class="cls-9" d="M1964.83 263.3l8.55 8.55-8.55 8.55M1874.34 200.99l13.69 13.69 30.79-30.79"/></g><g><path class="cls-9" d="M2236.84 213.69v-27.37l-15.65-1.78a61.421 61.421 0 00-6.54-15.75l9.82-12.33-19.35-19.35-12.33 9.82a61.069 61.069 0 00-15.75-6.54l-1.78-15.65h-27.37l-1.78 15.65a61.421 61.421 0 00-15.75 6.54l-12.33-9.82-19.35 19.35 9.82 12.33a61.069 61.069 0 00-6.54 15.75l-15.65 1.78v27.37l15.65 1.78c1.45 5.6 3.68 10.89 6.54 15.75l-9.82 12.33 19.35 19.35 12.33-9.82a61.069 61.069 0 0015.75 6.54l1.78 15.65h27.37l1.78-15.65c5.6-1.45 10.89-3.68 15.75-6.54l12.33 9.82 19.35-19.35-9.82-12.33a61.069 61.069 0 006.54-15.75l15.65-1.78z"/><circle class="cls-9" cx="2144.46" cy="182.89" r="8.55"/><circle class="cls-9" cx="2178.67" cy="217.11" r="8.55"/><path class="cls-9" d="M2135.9 182.89h-15.39M2202.62 182.89h-49.61M2170.12 217.11h-49.61M2187.22 217.11h15.4"/></g><g><path class="cls-9" d="M2502 210.26v39.35c0 11.34-9.19 20.53-20.53 20.53H2358.3v-46.19M2358.3 210.26v-80.4H2502v66.72M2356.59 160.65h147.12"/><circle class="cls-9" cx="2392.51" cy="210.26" r="8.55"/><circle class="cls-9" cx="2467.78" cy="210.26" r="8.55"/><path class="cls-9" d="M2348.03 210.26h35.93M2463.04 202.35l-15.78-26.3-34.22 68.43-16.13-26.88M2476.34 210.26h35.92"/></g><g><path class="cls-9" d="M2633.97 221.14c7.39 19.61 24.48 47.88 63.05 59.05 47.65-13.8 62.52-53.7 66.82-71.13M2765.45 177.76v-35.3s-45.01 15-68.43-21.37c-23.42 36.37-68.43 21.37-68.43 21.37v48.3"/><circle class="cls-9" cx="2765.45" cy="200" r="8.55"/><circle class="cls-9" cx="2628.59" cy="200" r="8.55"/><path class="cls-9" d="M2675.52 203.45l12.71 12.7 30.29-30.29"/></g><g stroke-linecap="round" stroke-linejoin="round" fill="none" stroke-width="4.53"><path style="mix-blend-mode:overlay" stroke="url(#linear-gradient)" d="M2620.04 202.82h-116.33"/><path style="mix-blend-mode:overlay" stroke="url(#linear-gradient-2)" d="M2353.17 202.82h-116.33"/><path style="mix-blend-mode:overlay" stroke="url(#linear-gradient-3)" d="M2088 202.82h-111.19"/><path style="mix-blend-mode:overlay" stroke="url(#linear-gradient-4)" d="M1816 202.82h-111.2"/><path style="mix-blend-mode:overlay" stroke="url(#linear-gradient-5)" d="M1561.1 202.82h-118.04"/><path style="mix-blend-mode:overlay" stroke="url(#linear-gradient-6)" d="M1279.44 202.82H1177.9"/><path style="mix-blend-mode:overlay" stroke="url(#linear-gradient-7)" d="M998.88 202.82H897.34"/><path style="mix-blend-mode:overlay" stroke="url(#linear-gradient-8)" d="M760.48 202.82h-128.3"/><path style="mix-blend-mode:overlay" stroke="url(#linear-gradient-9)" d="M491.9 202.82H363.59"/><path style="mix-blend-mode:overlay" stroke="url(#linear-gradient-10)" d="M2980.46 202.82H2774"/><path style="mix-blend-mode:overlay" stroke="url(#linear-gradient-11)" d="M226 202.82H19.54"/></g></g></g></svg>