<?xml version="1.0" encoding="utf-8"?>
<!-- Generator: Adobe Illustrator 26.0.0, SVG Export Plug-In . SVG Version: 6.00 Build 0)  -->
<svg version="1.1" id="Layer_1" xmlns="http://www.w3.org/2000/svg" xmlns:xlink="http://www.w3.org/1999/xlink" x="0px" y="0px"
	 viewBox="0 0 1100.5 175.6" style="enable-background:new 0 0 1100.5 175.6;" xml:space="preserve">
<style type="text/css">
	.st0{fill:#171321;}
	.st1{fill:#E24329;}
	.st2{fill:#FC6D26;}
	.st3{fill:#FCA326;}
	.st4{fill:#A2A1A6;}
</style>
<path class="st0" d="M40,104.4h1v20h-1V104.4z"/>
<path class="st0" d="M37,104.4h7v1h-7V104.4z M37,124.4h7v1h-7V124.4z"/>
<g>
	<path class="st1" d="M21,111.5v-0.1l-3-7.6c-0.1-0.1-0.2-0.3-0.3-0.4c-0.1-0.1-0.3-0.1-0.5-0.1c-0.2,0-0.3,0.1-0.4,0.2
		c-0.1,0.1-0.2,0.2-0.2,0.4l-2,6H6.7l-2-6c0-0.2-0.1-0.3-0.2-0.4c-0.1-0.1-0.3-0.1-0.4-0.1c-0.2,0-0.3,0-0.5,0.1
		c-0.1,0.1-0.2,0.2-0.3,0.4l-2.9,7.5v0.1c-0.9,2.2-0.1,4.8,1.8,6.2l4.4,3.3l2.2,1.7l1.3,1c0.3,0.2,0.8,0.2,1.1,0l1.3-1l2.2-1.7
		l4.4-3.3C21.1,116.2,21.8,113.7,21,111.5z"/>
	<path class="st2" d="M21,111.5v-0.1c-1.4,0.3-2.7,0.9-3.9,1.8l-6.4,4.8l4.1,3.1l4.5-3.3C21.1,116.2,21.9,113.7,21,111.5z"/>
	<path class="st3" d="M6.6,121l2.2,1.7l1.3,1c0.3,0.2,0.8,0.2,1.1,0l1.3-1l2.2-1.7l-4.1-3.1L6.6,121z"/>
	<path class="st2" d="M4.3,113.2c-1.2-0.9-2.5-1.5-3.9-1.8v0.1c-0.8,2.2-0.1,4.8,1.8,6.2l4.4,3.3l4.1-3.1L4.3,113.2z"/>
</g>
<path class="st0" d="M212.9,153.4l2.6,4.5l2.6-4.5h1.9l-3.5,5.4l3.5,5.5h-1.9l-2.6-4.2l-2.6,4.2H211l3.5-5.5l-3.5-5.4H212.9z
	 M201.6,158.8c0,0.7,0.1,1.5,0.4,2.2c0.2,0.6,0.6,1.1,1.1,1.5c1,0.7,2.4,0.7,3.5,0c0.5-0.4,0.9-0.9,1.1-1.5c0.2-0.7,0.4-1.4,0.4-2.1
	c0-0.7-0.1-1.4-0.4-2.1c-0.2-0.6-0.5-1.1-1-1.5c-1.1-0.7-2.4-0.7-3.5,0c-0.5,0.4-0.8,0.9-1,1.4C201.8,157.4,201.6,158.1,201.6,158.8
	L201.6,158.8z M199.9,168.4v-15h1.6v1.7h0.2l0.5-0.7c0.3-0.3,0.6-0.6,1-0.8c0.5-0.2,1.1-0.4,1.7-0.3c0.9,0,1.7,0.2,2.4,0.7
	c0.7,0.5,1.3,1.2,1.6,2c0.4,0.9,0.6,2,0.6,3c0,1-0.2,2.1-0.6,3c-0.3,0.8-0.9,1.5-1.6,2c-0.7,0.5-1.6,0.7-2.4,0.7
	c-0.6,0-1.2-0.1-1.7-0.3c-0.4-0.2-0.7-0.5-1-0.8c-0.2-0.3-0.4-0.6-0.5-0.8h-0.1v5.8L199.9,168.4z M186.5,162.9c1.1,0,2-0.6,2.5-1.5
	c0.7-1.4,1-2.9,0.9-4.4c0-1.1-0.1-2.2-0.4-3.2c-0.2-0.8-0.6-1.4-1.1-2c-0.5-0.5-1.1-0.7-1.8-0.7c-1.1,0-2,0.6-2.5,1.6
	c-0.7,1.4-1,2.9-0.9,4.4c0,1.1,0.1,2.2,0.4,3.2c0.2,0.8,0.6,1.4,1.1,2C185.2,162.7,185.9,162.9,186.5,162.9L186.5,162.9z
	 M186.5,164.5c-1,0-2-0.3-2.7-0.9c-0.8-0.7-1.4-1.5-1.7-2.6c-0.8-2.6-0.8-5.4,0-8.1c0.3-1,0.9-1.9,1.7-2.6c1.6-1.2,3.8-1.2,5.4,0
	c0.8,0.7,1.4,1.6,1.7,2.6c0.4,1.3,0.6,2.6,0.6,4c0,1.4-0.2,2.7-0.6,4c-0.3,1-0.9,1.9-1.7,2.5C188.5,164.1,187.5,164.4,186.5,164.5
	L186.5,164.5z M169.7,164.3V163l4.8-5.3c0.6-0.6,1-1.1,1.4-1.6c0.3-0.4,0.6-0.8,0.8-1.3c0.2-0.4,0.3-0.8,0.3-1.3
	c0-0.5-0.1-0.9-0.4-1.3c-0.3-0.4-0.6-0.7-1-0.9c-0.4-0.2-0.9-0.3-1.4-0.3c-0.5,0-1,0.1-1.5,0.4c-0.4,0.2-0.8,0.6-1,1
	c-0.2,0.4-0.3,0.9-0.3,1.4h-1.7c0-0.8,0.2-1.6,0.6-2.2c0.4-0.6,0.9-1.2,1.6-1.5c0.7-0.4,1.5-0.5,2.3-0.5c0.8,0,1.6,0.2,2.3,0.5
	c0.6,0.3,1.2,0.8,1.6,1.5c0.4,0.6,0.6,1.3,0.6,2c0,0.5-0.1,1.1-0.3,1.6c-0.3,0.6-0.6,1.2-1,1.7c-0.6,0.8-1.3,1.6-2,2.3l-3.3,3.5v0.1
	h6.8v1.5L169.7,164.3z M148.6,163.4l-1.1-1.1l4.5-4.5h-11.7v-1.5H152l-4.5-4.5l1.1-1.1l6.4,6.4L148.6,163.4z M121.1,164.5
	c-1,0-1.9-0.2-2.7-0.7c-0.8-0.5-1.4-1.2-1.8-2c-0.4-0.9-0.6-1.9-0.6-2.9c0-1,0.2-2.1,0.6-3c0.4-0.8,1-1.5,1.7-2
	c0.8-0.5,1.7-0.7,2.6-0.7c0.6,0,1.1,0.1,1.7,0.3c0.6,0.2,1.1,0.5,1.5,0.9c0.5,0.5,0.8,1,1.1,1.7c0.3,0.8,0.4,1.7,0.4,2.6v0.7h-8.4
	v-1.4h6.7c0-0.6-0.1-1.1-0.4-1.6c-0.2-0.5-0.6-0.9-1-1.1c-0.5-0.3-1-0.4-1.6-0.4c-0.6,0-1.2,0.2-1.7,0.5c-0.5,0.3-0.9,0.8-1.1,1.3
	c-0.3,0.5-0.4,1.1-0.4,1.7v1c0,0.7,0.1,1.4,0.4,2.1c0.3,0.5,0.7,1,1.2,1.3c0.5,0.3,1.2,0.5,1.8,0.4c0.4,0,0.8-0.1,1.2-0.2
	c0.3-0.1,0.7-0.3,0.9-0.6c0.3-0.3,0.5-0.6,0.6-1l1.6,0.5c-0.2,0.5-0.5,1-0.9,1.4c-0.4,0.4-0.9,0.8-1.5,1
	C122.4,164.4,121.8,164.5,121.1,164.5L121.1,164.5z M105.7,164.3V163l6.2-8v-0.1h-6v-1.6h8.2v1.3l-6,7.9v0.1h6.2v1.6H105.7z
	 M102.1,151.5c-0.3,0-0.6-0.1-0.8-0.3c-0.4-0.4-0.5-1.1-0.1-1.6c0,0,0,0,0.1-0.1c0.2-0.2,0.5-0.3,0.8-0.3c0.3,0,0.6,0.1,0.8,0.3
	c0.2,0.2,0.4,0.5,0.4,0.8c0,0.3-0.1,0.6-0.4,0.8C102.7,151.4,102.4,151.5,102.1,151.5L102.1,151.5z M101.2,164.3v-10.9h1.7v10.9
	H101.2z M98.5,155.8l-1.5,0.4c-0.1-0.3-0.2-0.5-0.4-0.7c-0.2-0.3-0.4-0.5-0.7-0.6c-0.4-0.2-0.8-0.2-1.2-0.2c-0.6,0-1.2,0.1-1.7,0.5
	c-0.4,0.2-0.7,0.7-0.7,1.1c0,0.4,0.1,0.8,0.4,1c0.4,0.3,0.9,0.5,1.4,0.6l1.6,0.4c0.8,0.1,1.6,0.5,2.2,1.1c0.5,0.5,0.7,1.2,0.7,1.9
	c0,0.6-0.2,1.2-0.5,1.7c-0.4,0.5-0.9,0.9-1.5,1.2c-0.7,0.3-1.5,0.4-2.2,0.4c-1,0-1.9-0.2-2.8-0.7c-0.7-0.5-1.2-1.3-1.4-2.1l1.6-0.4
	c0.1,0.5,0.4,1,0.9,1.3c0.5,0.3,1.1,0.5,1.7,0.4c0.7,0,1.3-0.1,1.9-0.5c0.4-0.3,0.7-0.7,0.7-1.2c0-0.4-0.1-0.7-0.4-0.9
	c-0.3-0.3-0.8-0.5-1.2-0.6l-1.8-0.4c-0.8-0.1-1.6-0.5-2.2-1.1c-0.5-0.5-0.7-1.2-0.7-1.9c0-0.6,0.2-1.2,0.5-1.6
	c0.4-0.5,0.9-0.9,1.4-1.1c0.7-0.3,1.4-0.4,2.1-0.4c0.9-0.1,1.8,0.2,2.5,0.7C97.8,154.4,98.3,155.1,98.5,155.8L98.5,155.8z
	 M67.8,164.3v-10.9h1.6v1.7h0.1c0.2-0.6,0.6-1,1.1-1.4c0.5-0.3,1.2-0.5,1.8-0.5c1.3-0.1,2.4,0.7,2.9,1.8h0.1c0.3-0.6,0.7-1,1.3-1.3
	c0.6-0.3,1.3-0.5,2-0.5c0.9,0,1.8,0.3,2.4,0.9c0.7,0.8,1,1.8,0.9,2.8v7.3h-1.7V157c0.1-0.6-0.2-1.3-0.7-1.7c-0.4-0.3-1-0.5-1.6-0.5
	c-0.7,0-1.3,0.2-1.8,0.7c-0.4,0.5-0.7,1.1-0.6,1.8v7.1h-1.7v-7.5c0-0.6-0.2-1.1-0.6-1.5c-0.4-0.4-1-0.6-1.6-0.6
	c-0.4,0-0.9,0.1-1.2,0.4c-0.4,0.3-0.7,0.6-0.9,1c-0.2,0.4-0.3,0.9-0.3,1.4v6.8L67.8,164.3z M63,159.8v-6.4h1.7v10.9H63v-1.9h-0.1
	c-0.3,0.6-0.7,1.1-1.2,1.4c-0.6,0.4-1.3,0.6-2,0.6c-0.6,0-1.3-0.1-1.8-0.5c-0.5-0.3-1-0.8-1.2-1.4c-0.3-0.7-0.5-1.5-0.5-2.3v-6.9
	h1.7v6.8c0,0.7,0.2,1.4,0.7,1.9c0.4,0.5,1.1,0.7,1.7,0.7c0.4,0,0.9-0.1,1.3-0.3c0.5-0.2,0.8-0.6,1.1-1C62.9,161,63,160.4,63,159.8
	L63,159.8z M38.7,164.2v-10.9h1.6v1.7h0.1c0.2-0.6,0.6-1,1.1-1.4c0.5-0.3,1.2-0.5,1.8-0.5c1.3-0.1,2.4,0.7,2.9,1.8h0.1
	c0.3-0.6,0.7-1,1.3-1.3c0.6-0.3,1.3-0.5,2-0.5c0.9,0,1.7,0.3,2.4,0.9c0.7,0.8,1,1.8,0.9,2.8v7.3h-1.7V157c0.1-0.6-0.2-1.3-0.7-1.7
	c-0.4-0.3-1-0.5-1.5-0.5c-0.7,0-1.3,0.2-1.8,0.7c-0.4,0.5-0.7,1.1-0.6,1.8v7.1h-1.7v-7.5c0-0.6-0.2-1.1-0.6-1.5
	c-0.4-0.4-1-0.6-1.6-0.6c-0.4,0-0.9,0.1-1.2,0.4c-0.4,0.2-0.7,0.6-0.9,1c-0.2,0.4-0.4,0.9-0.3,1.4v6.8L38.7,164.2z M34.9,151.5
	c-0.3,0-0.6-0.1-0.8-0.3c-0.2-0.2-0.3-0.5-0.3-0.8c0-0.3,0.1-0.6,0.3-0.8c0.2-0.2,0.5-0.3,0.8-0.3c0.3,0,0.6,0.1,0.8,0.3
	c0.4,0.4,0.5,1.1,0.1,1.6c0,0,0,0-0.1,0.1C35.5,151.4,35.2,151.5,34.9,151.5L34.9,151.5z M34,164.2v-10.9h1.7v10.9L34,164.2z
	 M24,157.7v6.6h-1.7v-10.9h1.6v1.7h0.1c0.2-0.5,0.6-1,1.2-1.3c0.6-0.4,1.3-0.5,2-0.5c0.7,0,1.3,0.1,1.9,0.4c0.6,0.3,1,0.8,1.3,1.4
	c0.3,0.7,0.5,1.5,0.5,2.3v6.9h-1.7v-6.8c0.1-0.7-0.2-1.4-0.7-2c-0.5-0.5-1.1-0.8-1.8-0.7c-0.5,0-1,0.1-1.4,0.4c-0.4,0.2-0.8,0.6-1,1
	C24.1,156.6,23.9,157.1,24,157.7L24,157.7z M18.4,151.5c-0.3,0-0.6-0.1-0.8-0.3c-0.4-0.4-0.5-1.1-0.1-1.6c0,0,0,0,0.1-0.1
	c0.2-0.2,0.5-0.3,0.8-0.3c0.3,0,0.6,0.1,0.8,0.3c0.2,0.2,0.4,0.5,0.4,0.8c0,0.3-0.1,0.6-0.4,0.8C19,151.4,18.7,151.5,18.4,151.5
	L18.4,151.5z M17.6,164.2v-10.9h1.7v10.9L17.6,164.2z M0,149.7h2.1L7,161.8h0.2l4.9-12.1h2.1v14.5h-1.6v-11h-0.1l-4.5,11H6.3
	l-4.5-11H1.6v11H0V149.7z"/>
<rect x="0" y="175.1" class="st4" width="220.1" height="0.5"/>
<g>
	<path class="st4" d="M299.5,175.1h32v0.5h-32V175.1z"/>
	<g>
		<path class="st1" d="M331,106.8v-0.2l-4.5-11.4c-0.1-0.2-0.2-0.4-0.4-0.5c-0.2-0.1-0.4-0.2-0.7-0.2c-0.2,0-0.5,0.1-0.7,0.2
			c-0.2,0.2-0.3,0.4-0.4,0.6l-3,9h-11.8l-3-9c-0.1-0.2-0.2-0.4-0.4-0.6c-0.2-0.1-0.4-0.2-0.7-0.2c-0.2,0-0.5,0-0.7,0.2
			c-0.2,0.1-0.4,0.3-0.4,0.5l-4.3,11.3v0.1c-1.3,3.4-0.2,7.2,2.7,9.3l6.6,5l3.3,2.5l2,1.5c0.5,0.4,1.1,0.4,1.6,0l2-1.5l3.3-2.5
			l6.7-5C331,113.9,332.2,110.1,331,106.8z"/>
		<path class="st2" d="M331,106.8v-0.2c-2.1,0.4-4.1,1.3-5.8,2.6l-9.6,7.2l6.1,4.6l6.7-5C331.2,113.9,332.3,110.1,331,106.8z"/>
		<path class="st3" d="M309.4,121.1l3.3,2.5l2,1.5c0.5,0.4,1.1,0.4,1.6,0l2-1.5l3.3-2.5l-6.1-4.6L309.4,121.1z"/>
		<path class="st2" d="M305.9,109.3c-1.7-1.3-3.7-2.2-5.9-2.7v0.1c-1.3,3.4-0.2,7.2,2.7,9.3l6.6,5l6.1-4.6L305.9,109.3z"/>
	</g>
	<g>
		<path d="M304.9,149.8v14.5h-1.8v-12.7H303l-3.6,2.4v-1.8l3.6-2.4H304.9z"/>
		<path d="M313.6,164.6c-0.8,0-1.6-0.2-2.3-0.5c-0.7-0.3-1.2-0.8-1.6-1.4c-0.4-0.6-0.6-1.2-0.7-2h1.7c0.1,0.7,0.4,1.2,0.9,1.6
			c0.5,0.4,1.2,0.6,1.9,0.6c0.6,0,1.1-0.1,1.6-0.4s0.8-0.7,1.1-1.2c0.3-0.5,0.4-1,0.4-1.7c0-0.6-0.1-1.2-0.4-1.7
			c-0.3-0.5-0.7-0.9-1.1-1.2c-0.5-0.3-1-0.4-1.7-0.4c-0.4,0-0.9,0.1-1.4,0.2s-0.9,0.3-1.2,0.5l-1.6-0.2l0.9-7.2h7.6v1.6h-6.1
			l-0.5,4.3h0.1c0.3-0.2,0.7-0.4,1.1-0.6c0.4-0.2,0.9-0.2,1.4-0.2c0.9,0,1.7,0.2,2.4,0.6c0.7,0.4,1.2,1,1.6,1.7
			c0.4,0.7,0.6,1.6,0.6,2.5c0,0.9-0.2,1.8-0.6,2.5c-0.4,0.7-1,1.3-1.7,1.7S314.5,164.6,313.6,164.6z"/>
		<path d="M326,164.6c-1.1,0-2-0.3-2.7-0.9c-0.8-0.6-1.3-1.4-1.7-2.5c-0.4-1.1-0.6-2.5-0.6-4c0-1.6,0.2-2.9,0.6-4s1-2,1.7-2.6
			c0.8-0.6,1.7-0.9,2.7-0.9s2,0.3,2.7,0.9c0.8,0.6,1.3,1.4,1.7,2.6c0.4,1.1,0.6,2.5,0.6,4c0,1.6-0.2,2.9-0.6,4s-1,2-1.7,2.5
			C327.9,164.3,327,164.6,326,164.6z M326,163c1.1,0,1.9-0.5,2.5-1.5c0.6-1,0.9-2.5,0.9-4.4c0-1.3-0.1-2.3-0.4-3.2
			c-0.3-0.9-0.7-1.6-1.2-2s-1.1-0.7-1.8-0.7c-1.1,0-1.9,0.5-2.5,1.6s-0.9,2.5-0.9,4.4c0,1.3,0.1,2.3,0.4,3.2s0.6,1.6,1.1,2
			C324.6,162.8,325.3,163,326,163z"/>
		<path d="M333.9,153.3v-0.8c0-0.5,0.1-1,0.3-1.5s0.5-0.8,1-1.1s0.9-0.4,1.5-0.4c0.6,0,1.1,0.1,1.5,0.4c0.4,0.3,0.7,0.6,0.9,1.1
			s0.3,0.9,0.3,1.5v0.8c0,0.5-0.1,1-0.3,1.5c-0.2,0.4-0.5,0.8-1,1.1c-0.4,0.3-0.9,0.4-1.5,0.4c-0.6,0-1.1-0.1-1.6-0.4
			s-0.7-0.6-1-1.1C334,154.3,333.9,153.9,333.9,153.3z M334.4,164.4l10-14.5h1.6l-10,14.5H334.4z M335.3,152.6v0.8
			c0,0.4,0.1,0.8,0.3,1.2c0.2,0.3,0.6,0.5,1.1,0.5c0.5,0,0.8-0.2,1.1-0.5c0.2-0.3,0.3-0.7,0.3-1.2v-0.8c0-0.4-0.1-0.8-0.3-1.2
			c-0.2-0.3-0.6-0.5-1.1-0.5c-0.5,0-0.9,0.2-1.1,0.5C335.4,151.7,335.3,152.1,335.3,152.6z M341.1,161.7v-0.8c0-0.5,0.1-1,0.3-1.5
			c0.2-0.4,0.5-0.8,1-1.1c0.4-0.3,0.9-0.4,1.5-0.4c0.6,0,1.1,0.1,1.5,0.4c0.4,0.3,0.7,0.6,0.9,1.1c0.2,0.4,0.3,0.9,0.3,1.5v0.8
			c0,0.5-0.1,1-0.3,1.5c-0.2,0.4-0.5,0.8-1,1.1c-0.4,0.3-0.9,0.4-1.5,0.4c-0.6,0-1.1-0.1-1.6-0.4c-0.4-0.3-0.7-0.6-1-1.1
			C341.2,162.7,341.1,162.2,341.1,161.7z M342.6,160.9v0.8c0,0.4,0.1,0.8,0.3,1.2c0.2,0.3,0.6,0.5,1.1,0.5c0.5,0,0.8-0.2,1.1-0.5
			c0.2-0.3,0.3-0.7,0.3-1.2v-0.8c0-0.4-0.1-0.8-0.3-1.2c-0.2-0.3-0.6-0.5-1.1-0.5c-0.5,0-0.9,0.2-1.1,0.5
			C342.7,160.1,342.6,160.4,342.6,160.9z"/>
	</g>
</g>
<g>
	<g>
		<path class="st1" d="M845.1,69.5V69l-13.5-34.1c-0.3-0.7-0.7-1.2-1.3-1.6c-0.6-0.4-1.3-0.6-2.1-0.5c-0.7,0-1.4,0.3-2,0.7
			c-0.5,0.5-0.9,1.1-1.1,1.8l-9,27h-35.4l-9-27c-0.2-0.7-0.6-1.3-1.1-1.8c-0.6-0.4-1.3-0.6-2-0.5c-0.7-0.1-1.5,0.1-2.1,0.5
			c-0.6,0.4-1.1,1-1.3,1.6l-13,33.8v0.4c-3.9,10.1-0.6,21.5,8,28l19.9,14.9l9.8,7.5l6,4.5c1.5,1.1,3.4,1.1,4.9,0l6-4.5l9.8-7.5
			l20-15C845.3,90.9,848.8,79.6,845.1,69.5z"/>
		<path class="st2" d="M845.1,69.5V69c-6.4,1.3-12.4,4-17.5,7.9l-28.7,21.7l18.3,13.8l20-15C845.7,90.9,848.9,79.5,845.1,69.5z"/>
		<path class="st3" d="M780.3,112.5l9.8,7.5l6,4.5c1.5,1.1,3.4,1.1,4.9,0l6-4.5l9.8-7.5l-18.2-13.8L780.3,112.5z"/>
		<path class="st2" d="M770,77c-5.2-4-11.2-6.7-17.5-8.1v0.4c-3.8,10.1-0.5,21.5,8.1,28l19.9,14.9l18.3-13.8L770,77z"/>
	</g>
	<rect x="750.6" y="175.1" class="st4" width="95.9" height="0.5"/>
	<g>
		<path d="M750.6,159.4V158l6.4-10.1h1.1v2.2h-0.7l-4.8,7.6v0.1h8.6v1.6H750.6z M757.5,162.4V159v-0.7v-10.4h1.7v14.5H757.5z"/>
		<path d="M768.4,162.6c-0.8,0-1.6-0.2-2.3-0.5c-0.7-0.3-1.2-0.8-1.6-1.4c-0.4-0.6-0.6-1.2-0.7-2h1.7c0.1,0.7,0.4,1.2,0.9,1.6
			c0.5,0.4,1.2,0.6,1.9,0.6c0.6,0,1.1-0.1,1.6-0.4s0.8-0.7,1.1-1.2s0.4-1,0.4-1.7c0-0.6-0.1-1.2-0.4-1.7c-0.3-0.5-0.7-0.9-1.1-1.2
			c-0.5-0.3-1-0.4-1.7-0.4c-0.4,0-0.9,0.1-1.4,0.2s-0.9,0.3-1.2,0.5l-1.6-0.2l0.9-7.2h7.6v1.6h-6.1l-0.5,4.3h0.1
			c0.3-0.2,0.7-0.4,1.1-0.6s0.9-0.2,1.4-0.2c0.9,0,1.7,0.2,2.4,0.6s1.2,1,1.6,1.7c0.4,0.7,0.6,1.6,0.6,2.5c0,0.9-0.2,1.8-0.6,2.5
			c-0.4,0.7-1,1.3-1.7,1.7C770.1,162.4,769.3,162.6,768.4,162.6z"/>
		<path d="M780.7,162.6c-1.1,0-2-0.3-2.7-0.9c-0.8-0.6-1.3-1.4-1.7-2.5s-0.6-2.5-0.6-4c0-1.6,0.2-2.9,0.6-4c0.4-1.1,1-2,1.7-2.6
			c0.8-0.6,1.7-0.9,2.7-0.9s2,0.3,2.7,0.9c0.8,0.6,1.3,1.4,1.7,2.6s0.6,2.5,0.6,4c0,1.6-0.2,2.9-0.6,4c-0.4,1.1-1,2-1.7,2.5
			C782.7,162.3,781.8,162.6,780.7,162.6z M780.7,161.1c1.1,0,1.9-0.5,2.5-1.5c0.6-1,0.9-2.5,0.9-4.4c0-1.3-0.1-2.3-0.4-3.2
			c-0.3-0.9-0.7-1.6-1.2-2s-1.1-0.7-1.8-0.7c-1.1,0-1.9,0.5-2.5,1.6c-0.6,1-0.9,2.5-0.9,4.4c0,1.3,0.1,2.3,0.4,3.2s0.6,1.6,1.1,2
			C779.4,160.8,780,161.1,780.7,161.1z"/>
		<path d="M788.6,151.4v-0.8c0-0.5,0.1-1,0.3-1.5s0.5-0.8,1-1.1s0.9-0.4,1.5-0.4c0.6,0,1.1,0.1,1.5,0.4c0.4,0.3,0.7,0.6,0.9,1.1
			c0.2,0.4,0.3,0.9,0.3,1.5v0.8c0,0.5-0.1,1-0.3,1.5c-0.2,0.4-0.5,0.8-1,1.1c-0.4,0.3-0.9,0.4-1.5,0.4c-0.6,0-1.1-0.1-1.6-0.4
			s-0.7-0.6-1-1.1C788.8,152.4,788.6,151.9,788.6,151.4z M789.2,162.4l10-14.5h1.6l-10,14.5H789.2z M790.1,150.6v0.8
			c0,0.4,0.1,0.8,0.3,1.2c0.2,0.3,0.6,0.5,1.1,0.5c0.5,0,0.8-0.2,1.1-0.5c0.2-0.3,0.3-0.7,0.3-1.2v-0.8c0-0.4-0.1-0.8-0.3-1.2
			c-0.2-0.3-0.6-0.5-1.1-0.5c-0.5,0-0.9,0.2-1.1,0.5C790.2,149.8,790.1,150.2,790.1,150.6z M795.9,159.7v-0.8c0-0.5,0.1-1,0.3-1.5
			c0.2-0.4,0.5-0.8,1-1.1s0.9-0.4,1.5-0.4c0.6,0,1.1,0.1,1.5,0.4c0.4,0.3,0.7,0.6,0.9,1.1c0.2,0.4,0.3,0.9,0.3,1.5v0.8
			c0,0.5-0.1,1-0.3,1.5s-0.5,0.8-1,1.1c-0.4,0.3-0.9,0.4-1.5,0.4c-0.6,0-1.1-0.1-1.6-0.4c-0.4-0.3-0.7-0.6-1-1.1
			C796,160.7,795.9,160.2,795.9,159.7z M797.3,158.9v0.8c0,0.4,0.1,0.8,0.3,1.2c0.2,0.3,0.6,0.5,1.1,0.5c0.5,0,0.8-0.2,1.1-0.5
			c0.2-0.3,0.3-0.7,0.3-1.2v-0.8c0-0.4-0.1-0.8-0.3-1.2c-0.2-0.3-0.6-0.5-1.1-0.5c-0.5,0-0.9,0.2-1.1,0.5
			C797.4,158.1,797.3,158.5,797.3,158.9z"/>
	</g>
</g>
<g>
	<g>
		<path class="st1" d="M1098.4,49v-0.7l-18-45.4c-0.4-0.9-1-1.6-1.7-2.2c-0.8-0.5-1.8-0.8-2.8-0.7c-1,0-1.9,0.3-2.6,1
			c-0.7,0.6-1.2,1.4-1.5,2.3l-12,36h-47.2l-12-36c-0.3-0.9-0.8-1.7-1.5-2.3c-0.8-0.5-1.8-0.7-2.7-0.7c-1-0.1-1.9,0.2-2.8,0.7
			c-0.8,0.5-1.4,1.3-1.7,2.2l-17.3,45.1v0.5c-5.2,13.4-0.8,28.7,10.7,37.4l26.5,19.9l13.1,10l8,6c1.9,1.4,4.6,1.4,6.5,0l8-6l13.1-10
			l26.7-20C1098.7,77.6,1103.3,62.5,1098.4,49z"/>
		<path class="st2" d="M1098.4,49v-0.7c-8.5,1.7-16.5,5.3-23.4,10.6l-38.2,28.9l24.4,18.4l26.7-20
			C1099.2,77.5,1103.5,62.4,1098.4,49z"/>
		<path class="st3" d="M1012,106.4l13.1,10l8,6c1.9,1.4,4.6,1.4,6.5,0l8-6l13.1-10L1036.4,88L1012,106.4z"/>
		<path class="st2" d="M998.2,59c-6.9-5.3-14.9-8.9-23.4-10.7v0.5c-5.1,13.5-0.7,28.7,10.7,37.4L1012,106l24.4-18.4L998.2,59z"/>
	</g>
	<rect x="972.3" y="175.1" class="st4" width="128" height="0.5"/>
	<g>
		<path d="M977.4,164.4c-0.6,0-1.2-0.1-1.8-0.3s-1.1-0.6-1.6-1.1c-0.5-0.5-0.9-1.2-1.2-2.1s-0.4-2-0.4-3.3c0-1.3,0.1-2.4,0.4-3.4
			c0.2-1,0.6-1.8,1.1-2.5s1-1.2,1.7-1.6c0.7-0.4,1.4-0.5,2.2-0.5c0.8,0,1.5,0.2,2.2,0.5s1.2,0.8,1.6,1.4c0.4,0.6,0.7,1.2,0.8,2h-1.7
			c-0.2-0.7-0.5-1.2-0.9-1.6c-0.5-0.4-1.1-0.6-1.8-0.6c-1.1,0-2,0.5-2.7,1.5c-0.6,1-1,2.4-1,4.1h0.1c0.3-0.4,0.6-0.7,0.9-1
			c0.4-0.3,0.8-0.5,1.2-0.7c0.4-0.2,0.9-0.2,1.4-0.2c0.8,0,1.6,0.2,2.3,0.6s1.2,1,1.7,1.7c0.4,0.7,0.6,1.6,0.6,2.5
			c0,0.9-0.2,1.7-0.6,2.5c-0.4,0.7-1,1.3-1.7,1.8C979.2,164.2,978.4,164.4,977.4,164.4z M977.4,162.8c0.6,0,1.1-0.1,1.6-0.4
			c0.5-0.3,0.9-0.7,1.1-1.2c0.3-0.5,0.4-1.1,0.4-1.7c0-0.6-0.1-1.1-0.4-1.6c-0.3-0.5-0.6-0.9-1.1-1.2c-0.5-0.3-1-0.4-1.6-0.4
			c-0.4,0-0.9,0.1-1.3,0.3c-0.4,0.2-0.7,0.4-1,0.7s-0.5,0.7-0.7,1.1c-0.2,0.4-0.2,0.8-0.2,1.2c0,0.6,0.1,1.1,0.4,1.6
			c0.3,0.5,0.6,0.9,1.1,1.2S976.8,162.8,977.4,162.8z"/>
		<path d="M989.8,164.4c-1.1,0-2-0.3-2.7-0.9s-1.3-1.4-1.7-2.5s-0.6-2.5-0.6-4c0-1.6,0.2-2.9,0.6-4c0.4-1.1,1-2,1.7-2.6
			c0.8-0.6,1.7-0.9,2.7-0.9s2,0.3,2.7,0.9c0.8,0.6,1.3,1.4,1.7,2.6s0.6,2.5,0.6,4c0,1.6-0.2,2.9-0.6,4c-0.4,1.1-1,2-1.7,2.5
			S990.8,164.4,989.8,164.4z M989.8,162.8c1.1,0,1.9-0.5,2.5-1.5s0.9-2.5,0.9-4.4c0-1.3-0.1-2.3-0.4-3.2c-0.3-0.9-0.7-1.6-1.2-2
			c-0.5-0.5-1.1-0.7-1.8-0.7c-1.1,0-1.9,0.5-2.5,1.6c-0.6,1-0.9,2.5-0.9,4.4c0,1.3,0.1,2.3,0.4,3.2c0.3,0.9,0.6,1.6,1.1,2
			C988.5,162.6,989.1,162.8,989.8,162.8z"/>
		<path d="M1002.3,164.4c-1.1,0-2-0.3-2.7-0.9s-1.3-1.4-1.7-2.5s-0.6-2.5-0.6-4c0-1.6,0.2-2.9,0.6-4c0.4-1.1,1-2,1.7-2.6
			c0.8-0.6,1.7-0.9,2.7-0.9s2,0.3,2.7,0.9c0.8,0.6,1.3,1.4,1.7,2.6s0.6,2.5,0.6,4c0,1.6-0.2,2.9-0.6,4c-0.4,1.1-1,2-1.7,2.5
			S1003.3,164.4,1002.3,164.4z M1002.3,162.8c1.1,0,1.9-0.5,2.5-1.5s0.9-2.5,0.9-4.4c0-1.3-0.1-2.3-0.4-3.2c-0.3-0.9-0.7-1.6-1.2-2
			c-0.5-0.5-1.1-0.7-1.8-0.7c-1.1,0-1.9,0.5-2.5,1.6c-0.6,1-0.9,2.5-0.9,4.4c0,1.3,0.1,2.3,0.4,3.2c0.3,0.9,0.6,1.6,1.1,2
			C1001,162.6,1001.6,162.8,1002.3,162.8z"/>
		<path d="M1010.2,153.1v-0.8c0-0.5,0.1-1,0.3-1.5c0.2-0.4,0.5-0.8,1-1.1s0.9-0.4,1.5-0.4c0.6,0,1.1,0.1,1.5,0.4s0.7,0.6,0.9,1.1
			c0.2,0.4,0.3,0.9,0.3,1.5v0.8c0,0.5-0.1,1-0.3,1.5c-0.2,0.4-0.5,0.8-1,1.1s-0.9,0.4-1.5,0.4c-0.6,0-1.1-0.1-1.6-0.4
			c-0.4-0.3-0.7-0.6-1-1.1C1010.3,154.1,1010.2,153.6,1010.2,153.1z M1010.7,164.2l10-14.5h1.6l-10,14.5H1010.7z M1011.6,152.3v0.8
			c0,0.4,0.1,0.8,0.3,1.2c0.2,0.3,0.6,0.5,1.1,0.5c0.5,0,0.8-0.2,1.1-0.5c0.2-0.3,0.3-0.7,0.3-1.2v-0.8c0-0.4-0.1-0.8-0.3-1.2
			c-0.2-0.3-0.6-0.5-1.1-0.5c-0.5,0-0.9,0.2-1.1,0.5C1011.8,151.5,1011.6,151.9,1011.6,152.3z M1017.4,161.4v-0.8
			c0-0.5,0.1-1,0.3-1.5c0.2-0.4,0.5-0.8,1-1.1s0.9-0.4,1.5-0.4c0.6,0,1.1,0.1,1.5,0.4c0.4,0.3,0.7,0.6,0.9,1.1
			c0.2,0.4,0.3,0.9,0.3,1.5v0.8c0,0.5-0.1,1-0.3,1.5s-0.5,0.8-1,1.1c-0.4,0.3-0.9,0.4-1.5,0.4c-0.6,0-1.1-0.1-1.6-0.4
			c-0.4-0.3-0.7-0.6-1-1.1S1017.4,162,1017.4,161.4z M1018.9,160.7v0.8c0,0.4,0.1,0.8,0.3,1.2c0.2,0.3,0.6,0.5,1.1,0.5
			c0.5,0,0.8-0.2,1.1-0.5c0.2-0.3,0.3-0.7,0.3-1.2v-0.8c0-0.4-0.1-0.8-0.3-1.2c-0.2-0.3-0.6-0.5-1.1-0.5c-0.5,0-0.9,0.2-1.1,0.5
			C1019,159.8,1018.9,160.2,1018.9,160.7z"/>
	</g>
</g>
<g>
	<path class="st4" d="M528.9,175.1h64v0.5h-64V175.1z"/>
	<g>
		<path class="st1" d="M591.9,88.1v-0.3l-9-22.7c-0.2-0.4-0.5-0.8-0.9-1.1c-0.4-0.3-0.9-0.4-1.4-0.4c-0.5,0-0.9,0.2-1.3,0.5
			c-0.4,0.3-0.6,0.7-0.8,1.2l-6,18H549l-6-18c-0.1-0.5-0.4-0.9-0.8-1.2c-0.4-0.3-0.9-0.4-1.3-0.3c-0.5,0-1,0.1-1.4,0.4
			c-0.4,0.3-0.7,0.6-0.9,1.1l-8.7,22.6V88c-2.6,6.7-0.4,14.4,5.3,18.7l13.3,9.9l6.5,5l4,3c1,0.7,2.3,0.7,3.3,0l4-3l6.5-5l13.3-10
			C592,102.4,594.3,94.8,591.9,88.1z"/>
		<path class="st2" d="M591.9,88.1v-0.3c-4.2,0.9-8.2,2.7-11.7,5.3L561,107.5l12.2,9.2l13.4-10C592.3,102.4,594.4,94.8,591.9,88.1z"
			/>
		<path class="st3" d="M548.7,116.8l6.5,5l4,3c1,0.7,2.3,0.7,3.3,0l4-3l6.5-5l-12.1-9.2L548.7,116.8z"/>
		<path class="st2" d="M541.8,93.1c-3.5-2.6-7.4-4.5-11.7-5.4V88c-2.5,6.7-0.4,14.3,5.4,18.7l13.3,9.9l12.2-9.2L541.8,93.1z"/>
	</g>
	<g>
		<path d="M533.8,164.6c-0.9,0-1.8-0.2-2.5-0.5c-0.7-0.3-1.3-0.8-1.7-1.3s-0.7-1.2-0.7-2h1.8c0,0.5,0.2,0.9,0.5,1.2
			c0.3,0.3,0.7,0.6,1.1,0.8c0.5,0.2,1,0.3,1.5,0.3c0.6,0,1.2-0.1,1.7-0.3c0.5-0.2,0.9-0.5,1.1-0.9c0.3-0.4,0.4-0.8,0.4-1.3
			c0-0.5-0.1-1-0.4-1.4c-0.3-0.4-0.7-0.7-1.2-1c-0.5-0.2-1.1-0.3-1.9-0.3h-1.2v-1.6h1.2c0.6,0,1.1-0.1,1.5-0.3s0.8-0.5,1-0.9
			c0.2-0.4,0.4-0.8,0.4-1.3c0-0.5-0.1-0.9-0.3-1.3c-0.2-0.4-0.5-0.6-0.9-0.9c-0.4-0.2-0.9-0.3-1.4-0.3c-0.5,0-1,0.1-1.4,0.3
			c-0.4,0.2-0.8,0.4-1.1,0.8c-0.3,0.3-0.4,0.8-0.5,1.2h-1.7c0-0.8,0.3-1.4,0.7-2c0.4-0.6,1-1,1.7-1.3c0.7-0.3,1.5-0.5,2.3-0.5
			c0.9,0,1.7,0.2,2.3,0.5c0.6,0.4,1.1,0.8,1.5,1.4s0.5,1.2,0.5,1.9c0,0.8-0.2,1.5-0.6,2.1c-0.4,0.6-1,1-1.7,1.2v0.1
			c0.9,0.2,1.6,0.5,2.2,1.2c0.5,0.6,0.8,1.4,0.8,2.3c0,0.8-0.2,1.5-0.6,2.1c-0.4,0.6-1,1.1-1.8,1.5
			C535.6,164.4,534.8,164.6,533.8,164.6z"/>
		<path d="M546.4,164.6c-1.1,0-2-0.3-2.7-0.9s-1.3-1.4-1.7-2.5c-0.4-1.1-0.6-2.5-0.6-4c0-1.6,0.2-2.9,0.6-4c0.4-1.1,1-2,1.7-2.6
			c0.8-0.6,1.7-0.9,2.7-0.9s2,0.3,2.7,0.9c0.8,0.6,1.3,1.4,1.7,2.6c0.4,1.1,0.6,2.5,0.6,4c0,1.6-0.2,2.9-0.6,4c-0.4,1.1-1,2-1.7,2.5
			S547.4,164.6,546.4,164.6z M546.4,163c1.1,0,1.9-0.5,2.5-1.5c0.6-1,0.9-2.5,0.9-4.4c0-1.3-0.1-2.3-0.4-3.2c-0.3-0.9-0.7-1.6-1.2-2
			s-1.1-0.7-1.8-0.7c-1.1,0-1.9,0.5-2.5,1.6c-0.6,1-0.9,2.5-0.9,4.4c0,1.3,0.1,2.3,0.4,3.2s0.6,1.6,1.1,2
			C545.1,162.8,545.7,163,546.4,163z"/>
		<path d="M558.9,164.6c-1.1,0-2-0.3-2.7-0.9s-1.3-1.4-1.7-2.5c-0.4-1.1-0.6-2.5-0.6-4c0-1.6,0.2-2.9,0.6-4c0.4-1.1,1-2,1.7-2.6
			c0.8-0.6,1.7-0.9,2.7-0.9s2,0.3,2.7,0.9c0.8,0.6,1.3,1.4,1.7,2.6c0.4,1.1,0.6,2.5,0.6,4c0,1.6-0.2,2.9-0.6,4c-0.4,1.1-1,2-1.7,2.5
			S559.9,164.6,558.9,164.6z M558.9,163c1.1,0,1.9-0.5,2.5-1.5c0.6-1,0.9-2.5,0.9-4.4c0-1.3-0.1-2.3-0.4-3.2c-0.3-0.9-0.7-1.6-1.2-2
			s-1.1-0.7-1.8-0.7c-1.1,0-1.9,0.5-2.5,1.6c-0.6,1-0.9,2.5-0.9,4.4c0,1.3,0.1,2.3,0.4,3.2s0.6,1.6,1.1,2
			C557.6,162.8,558.2,163,558.9,163z"/>
		<path d="M566.8,153.4v-0.8c0-0.5,0.1-1,0.3-1.5s0.5-0.8,1-1.1s0.9-0.4,1.5-0.4c0.6,0,1.1,0.1,1.5,0.4c0.4,0.3,0.7,0.6,0.9,1.1
			c0.2,0.4,0.3,0.9,0.3,1.5v0.8c0,0.5-0.1,1-0.3,1.5c-0.2,0.4-0.5,0.8-1,1.1s-0.9,0.4-1.5,0.4c-0.6,0-1.1-0.1-1.6-0.4
			s-0.7-0.6-1-1.1C566.9,154.4,566.8,153.9,566.8,153.4z M567.3,164.4l10-14.5h1.6l-10,14.5H567.3z M568.2,152.6v0.8
			c0,0.4,0.1,0.8,0.3,1.2c0.2,0.3,0.6,0.5,1.1,0.5c0.5,0,0.8-0.2,1.1-0.5c0.2-0.3,0.3-0.7,0.3-1.2v-0.8c0-0.4-0.1-0.8-0.3-1.2
			c-0.2-0.3-0.6-0.5-1.1-0.5c-0.5,0-0.9,0.2-1.1,0.5C568.4,151.8,568.2,152.2,568.2,152.6z M574,161.7v-0.8c0-0.5,0.1-1,0.3-1.5
			c0.2-0.4,0.5-0.8,1-1.1c0.4-0.3,0.9-0.4,1.5-0.4c0.6,0,1.1,0.1,1.5,0.4s0.7,0.6,0.9,1.1c0.2,0.4,0.3,0.9,0.3,1.5v0.8
			c0,0.5-0.1,1-0.3,1.5c-0.2,0.4-0.5,0.8-1,1.1c-0.4,0.3-0.9,0.4-1.5,0.4c-0.6,0-1.1-0.1-1.6-0.4s-0.7-0.6-1-1.1
			S574,162.2,574,161.7z M575.5,160.9v0.8c0,0.4,0.1,0.8,0.3,1.2c0.2,0.3,0.6,0.5,1.1,0.5c0.5,0,0.8-0.2,1.1-0.5
			c0.2-0.3,0.3-0.7,0.3-1.2v-0.8c0-0.4-0.1-0.8-0.3-1.2c-0.2-0.3-0.6-0.5-1.1-0.5c-0.5,0-0.9,0.2-1.1,0.5
			C575.6,160.1,575.5,160.5,575.5,160.9z"/>
	</g>
</g>
</svg>
