<svg xmlns="http://www.w3.org/2000/svg" viewBox="0 0 966 939.11"><defs><style>.cls-1,.cls-2{fill:none;stroke:#737477;stroke-miterlimit:10}.cls-1{stroke-width:.29px}.cls-2{stroke-width:.93px}.cls-4{fill:#7a7a7a}.cls-5{fill:#666}</style></defs><g id="Layer_2" data-name="Layer 2"><g id="DO_NOT_EXPORT" data-name="DO NOT EXPORT"><path class="cls-1" d="M165.85 938.9V.15M.15 938.96V.15M55.51 938.9V.15M138.17 938.9V.15M110.61 938.9V.15M83.1 938.9V.15M193.27 938.9V.19M220.91 938.8V.1M248.51 938.9V.19M331.29 938.9V.1M303.64 938.9V.1M358.98 938.9V.1M386.53 938.9V.1M414.08 938.9V.1M441.76 938.9V.1M469.44 938.9V.15M497 938.9V.15M524.55 938.96V.18M552.23 938.9V.11M579.91 938.9V.11M607.46 938.9V.11M635.02 938.9V.11M662.57 938.9V.11M717.8 938.9V.15M745.36 938.9V.15M773.04 938.9V.15M855.83 938.9V.11M828.06 938.9V.11M800.6 938.9V.15M911.06 938.96V.11M884.32 938.96V.18M965.85 938.96V.11M.15 856.17h965.7M.15 883.69h965.7M.15 938.96h965.7M.15 828.43h965.7M.15 800.9h965.7M.15 773.23h965.7M.15 745.63h965.7M.15 718.03h965.7M.15 690.43h965.7M.15 635.24h965.7M.15 607.64h965.7M.15 580.04h965.7M.15 552.36h965.7M.15 524.74h965.7M.15 497.13h965.7M.02 469.59h965.71M.27 441.98h965.71M965.85 414.31ZM.15 386.7h965.7M.15 359.1h965.7M.15 331.49h965.7M.15 303.88h965.7M.15 248.67h965.7M.15 221.06h965.7M.15 193.46h965.7M.15 165.85h965.7M.15 138.18h965.7M.15 110.64h965.7M.15 55.42h965.7M.15 83.03h965.7M.15.15h965.7"/><path class="cls-2" d="M27.56 938.8V.15M276.38 938.8V0M965.85 276.34ZM965.85 27.82ZM965.85 662.76ZM965.85 911.37ZM690.02.15V938.9M938.48.18V938.9"/><path d="m27.69 27.7-.13 883.67h911l.13-883.45Zm248.48 634.24V275.52h414v386.42Z" style="fill:#515254;opacity:.1"/></g><g id="LOGO"><path class="cls-4" d="m677.08 428.47-.55-1.44-54.61-142.48a14.07 14.07 0 0 0-5.61-6.77 14.51 14.51 0 0 0-16.82.9 14.22 14.22 0 0 0-4.83 7.35l-36.88 112.85H408.6L371.73 286a14.35 14.35 0 0 0-4.83-7.35 14.53 14.53 0 0 0-16.83-.9 14.13 14.13 0 0 0-5.61 6.77L289.85 427l-.55 1.43a101.4 101.4 0 0 0 33.64 117.18l.2.15.48.36 83.19 62.28L448 639.58l25 18.94a16.92 16.92 0 0 0 20.4 0l25-18.94 41.14-31.14 83.68-62.64.22-.17a101.4 101.4 0 0 0 33.64-117.16Z"/><path class="cls-5" d="m677.08 428.47-.55-1.44a184.42 184.42 0 0 0-73.41 33c-.35.25-64.94 49.1-119.93 90.67 40.83 30.88 76.38 57.72 76.38 57.72l83.68-62.64.22-.17a101.4 101.4 0 0 0 33.61-117.14Z"/><path class="cls-4" d="M406.81 608.44 448 639.58l25 18.94a16.92 16.92 0 0 0 20.4 0l25-18.94 41.14-31.14S524 581.6 483.19 550.72c-40.84 30.88-76.38 57.72-76.38 57.72Z"/><path class="cls-5" d="M363.26 460.05a184.34 184.34 0 0 0-73.41-33l-.55 1.43a101.4 101.4 0 0 0 33.64 117.18l.2.15.48.36 83.19 62.28s35.54-26.84 76.38-57.72c-54.99-41.58-119.58-90.43-119.93-90.68Z"/></g></g></svg>