<svg xmlns="http://www.w3.org/2000/svg" viewBox="0 0 620 976.11"><defs><style>.cls-1{fill:#171321}.cls-2{fill:#a2a1a6}.cls-3{fill:#e24329}.cls-4{fill:#fc6d26}.cls-5{fill:#fca326}</style></defs><g id="Layer_2" data-name="Layer 2"><g id="Layer_1-2" data-name="Layer 1"><path class="cls-1" d="M40 953.02h1v20h-1z"/><path class="cls-1" d="M37 953.02h7v1h-7zM37 973.02h7v1h-7z"/><path class="cls-2" d="M619.89 539.69 0 537.92v.5l619.89 1.77v-.5zM0 275.77h620v.5H0z"/><path class="cls-1" d="m606 255 10-14.55h1.62l-10 14.55Zm.9-11.82v.82a2.24 2.24 0 0 0 .32 1.18 1.15 1.15 0 0 0 1.08.52 1.12 1.12 0 0 0 1.05-.52 2.24 2.24 0 0 0 .31-1.18v-.77a2.33 2.33 0 0 0-.3-1.18 1.12 1.12 0 0 0-1.06-.53 1.18 1.18 0 0 0-1.08.53 2.24 2.24 0 0 0-.35 1.15Zm-1.44.77v-.77a3.22 3.22 0 0 1 .32-1.46 2.68 2.68 0 0 1 1-1.06 3.13 3.13 0 0 1 3.1 0 2.54 2.54 0 0 1 .94 1.06 3.36 3.36 0 0 1 .32 1.46v.82a3.26 3.26 0 0 1-.33 1.46 2.55 2.55 0 0 1-1 1.06 2.77 2.77 0 0 1-1.53.4 2.83 2.83 0 0 1-1.56-.4 2.65 2.65 0 0 1-1-1.06 3.25 3.25 0 0 1-.29-1.46Zm8.69 7.55v.77a2.27 2.27 0 0 0 .31 1.19 1.17 1.17 0 0 0 1.08.51 1.12 1.12 0 0 0 1-.51 2.27 2.27 0 0 0 .31-1.19v-.77a2.32 2.32 0 0 0-.29-1.18 1.13 1.13 0 0 0-1.07-.52 1.16 1.16 0 0 0-1.07.52 2.24 2.24 0 0 0-.3 1.2Zm-1.45.77v-.77a3.19 3.19 0 0 1 .33-1.45 2.61 2.61 0 0 1 1-1.07 2.86 2.86 0 0 1 1.55-.4 2.79 2.79 0 0 1 1.55.4 2.5 2.5 0 0 1 .94 1.07 3.18 3.18 0 0 1 .32 1.45v.77a3.36 3.36 0 0 1-.32 1.46 2.65 2.65 0 0 1-1 1.07 2.87 2.87 0 0 1-1.54.4 2.9 2.9 0 0 1-1.55-.4 2.54 2.54 0 0 1-1-1.07 3.23 3.23 0 0 1-.31-1.44Zm-15.17 1.36a2.73 2.73 0 0 0 2.47-1.53 8.86 8.86 0 0 0 .88-4.38 11.11 11.11 0 0 0-.4-3.21 4.5 4.5 0 0 0-1.15-2 2.57 2.57 0 0 0-1.8-.69 2.73 2.73 0 0 0-2.46 1.55 8.81 8.81 0 0 0-.89 4.38 11.19 11.19 0 0 0 .4 3.22 4.24 4.24 0 0 0 1.14 2 2.57 2.57 0 0 0 1.78.68Zm0 1.57a4.28 4.28 0 0 1-2.73-.88 5.36 5.36 0 0 1-1.73-2.55 13.87 13.87 0 0 1 0-8.07 5.52 5.52 0 0 1 1.73-2.56 4.32 4.32 0 0 1 2.73-.89 4.27 4.27 0 0 1 2.72.89 5.37 5.37 0 0 1 1.73 2.56 11.65 11.65 0 0 1 .61 4 12 12 0 0 1-.6 4 5.36 5.36 0 0 1-1.73 2.55 4.28 4.28 0 0 1-2.76.97Zm-16.85-.2v-1.28l4.8-5.26c.56-.61 1-1.15 1.39-1.6a6.41 6.41 0 0 0 .81-1.29 3.16 3.16 0 0 0 .27-1.28 2.33 2.33 0 0 0-.37-1.33 2.47 2.47 0 0 0-1-.87 3.33 3.33 0 0 0-1.43-.3 2.9 2.9 0 0 0-1.46.35 2.37 2.37 0 0 0-1 1 3.07 3.07 0 0 0-.33 1.45h-1.66a4.23 4.23 0 0 1 .59-2.24 4.1 4.1 0 0 1 1.61-1.51 4.81 4.81 0 0 1 2.29-.54 4.67 4.67 0 0 1 2.27.54 4.11 4.11 0 0 1 1.55 1.46 3.86 3.86 0 0 1 .56 2 4.5 4.5 0 0 1-.29 1.57 7.12 7.12 0 0 1-1 1.69q-.71.93-1.95 2.28l-3.27 3.49v.12h6.76V255ZM606 517l10-14.55h1.62l-10 14.55Zm.91-11.82v.82a2.24 2.24 0 0 0 .31 1.18 1.15 1.15 0 0 0 1.08.52 1.12 1.12 0 0 0 1.05-.52 2.24 2.24 0 0 0 .31-1.18v-.77a2.33 2.33 0 0 0-.3-1.18 1.12 1.12 0 0 0-1.06-.53 1.18 1.18 0 0 0-1.08.53 2.24 2.24 0 0 0-.34 1.15Zm-1.45.77v-.77a3.36 3.36 0 0 1 .32-1.46 2.68 2.68 0 0 1 1-1.06 3.13 3.13 0 0 1 3.1 0 2.54 2.54 0 0 1 .94 1.06 3.36 3.36 0 0 1 .32 1.46v.82a3.26 3.26 0 0 1-.33 1.46 2.55 2.55 0 0 1-1 1.06 2.77 2.77 0 0 1-1.53.4 2.83 2.83 0 0 1-1.56-.4 2.65 2.65 0 0 1-1-1.06 3.39 3.39 0 0 1-.29-1.46Zm8.69 7.55v.77a2.27 2.27 0 0 0 .31 1.19 1.17 1.17 0 0 0 1.08.51 1.12 1.12 0 0 0 1-.51 2.28 2.28 0 0 0 .32-1.19v-.77a2.33 2.33 0 0 0-.3-1.18 1.13 1.13 0 0 0-1.07-.52 1.16 1.16 0 0 0-1.07.52 2.24 2.24 0 0 0-.3 1.2Zm-1.45.77v-.77a3.19 3.19 0 0 1 .33-1.45 2.61 2.61 0 0 1 1-1.07 2.86 2.86 0 0 1 1.55-.4 2.79 2.79 0 0 1 1.55.4 2.5 2.5 0 0 1 .94 1.07 3.18 3.18 0 0 1 .32 1.45v.77a3.22 3.22 0 0 1-.32 1.46 2.65 2.65 0 0 1-1 1.07 2.87 2.87 0 0 1-1.54.4 2.9 2.9 0 0 1-1.55-.4 2.6 2.6 0 0 1-1-1.07 3.23 3.23 0 0 1-.31-1.44Zm-15 2.93a5 5 0 0 1-2.25-.5 4.17 4.17 0 0 1-1.6-1.36 3.61 3.61 0 0 1-.66-2h1.7a2.35 2.35 0 0 0 .9 1.63 2.94 2.94 0 0 0 1.91.64 3 3 0 0 0 1.59-.42 2.93 2.93 0 0 0 1.11-1.15 3.65 3.65 0 0 0 0-3.36 3 3 0 0 0-1.14-1.19 3.23 3.23 0 0 0-1.65-.44 4.75 4.75 0 0 0-1.37.21 3.57 3.57 0 0 0-1.16.53l-1.65-.2.88-7.16h7.56V504h-6.17l-.51 4.29h.09a3.92 3.92 0 0 1 1.12-.59 4.61 4.61 0 0 1 3.78.41 4.5 4.5 0 0 1 1.65 1.73 5.19 5.19 0 0 1 .6 2.52 4.89 4.89 0 0 1-.62 2.48 4.53 4.53 0 0 1-1.7 1.72 4.87 4.87 0 0 1-2.48.66Zm-8.73-14.75V517h-1.76v-12.7h-.08l-3.55 2.36v-1.79l3.63-2.42Z"/><path class="cls-2" d="M0 747.77h620v.5H0z"/><path class="cls-1" d="m606 727 10-14.55h1.62l-10 14.55Zm.91-11.82v.82a2.24 2.24 0 0 0 .31 1.18 1.15 1.15 0 0 0 1.08.52 1.12 1.12 0 0 0 1.05-.52 2.24 2.24 0 0 0 .31-1.18v-.77a2.33 2.33 0 0 0-.3-1.18 1.12 1.12 0 0 0-1.06-.53 1.18 1.18 0 0 0-1.08.53 2.24 2.24 0 0 0-.34 1.15Zm-1.45.77v-.77a3.36 3.36 0 0 1 .32-1.46 2.68 2.68 0 0 1 1-1.06 3.13 3.13 0 0 1 3.1 0 2.54 2.54 0 0 1 .94 1.06 3.36 3.36 0 0 1 .32 1.46v.82a3.26 3.26 0 0 1-.33 1.46 2.55 2.55 0 0 1-1 1.06 2.77 2.77 0 0 1-1.53.4 2.83 2.83 0 0 1-1.56-.4 2.65 2.65 0 0 1-1-1.06 3.39 3.39 0 0 1-.29-1.46Zm8.69 7.55v.77a2.27 2.27 0 0 0 .31 1.19 1.17 1.17 0 0 0 1.08.51 1.12 1.12 0 0 0 1-.51 2.28 2.28 0 0 0 .32-1.19v-.77a2.33 2.33 0 0 0-.3-1.18 1.13 1.13 0 0 0-1.07-.52 1.16 1.16 0 0 0-1.07.52 2.24 2.24 0 0 0-.3 1.2Zm-1.45.77v-.77a3.19 3.19 0 0 1 .33-1.45 2.61 2.61 0 0 1 1-1.07 2.86 2.86 0 0 1 1.55-.4 2.79 2.79 0 0 1 1.55.4 2.5 2.5 0 0 1 .94 1.07 3.18 3.18 0 0 1 .32 1.45v.77a3.22 3.22 0 0 1-.32 1.46 2.65 2.65 0 0 1-1 1.07 2.87 2.87 0 0 1-1.54.4 2.9 2.9 0 0 1-1.55-.4 2.6 2.6 0 0 1-1-1.07 3.23 3.23 0 0 1-.31-1.44Zm-15.17 1.36a2.73 2.73 0 0 0 2.47-1.53 8.86 8.86 0 0 0 .88-4.38 11.11 11.11 0 0 0-.4-3.21 4.5 4.5 0 0 0-1.15-2 2.57 2.57 0 0 0-1.8-.69 2.73 2.73 0 0 0-2.46 1.55 8.81 8.81 0 0 0-.89 4.38 11.19 11.19 0 0 0 .4 3.22 4.24 4.24 0 0 0 1.14 2 2.57 2.57 0 0 0 1.78.68Zm0 1.57a4.28 4.28 0 0 1-2.73-.88 5.36 5.36 0 0 1-1.73-2.55 13.87 13.87 0 0 1 0-8.07 5.52 5.52 0 0 1 1.73-2.56 4.32 4.32 0 0 1 2.73-.89 4.27 4.27 0 0 1 2.72.89 5.37 5.37 0 0 1 1.73 2.56 11.65 11.65 0 0 1 .61 4 12 12 0 0 1-.6 4 5.36 5.36 0 0 1-1.73 2.55 4.28 4.28 0 0 1-2.76.97Zm-8.93-14.75V727h-1.76v-12.7h-.08l-3.55 2.36v-1.79l3.63-2.42Z"/><path class="cls-2" d="M0 901.77h620v.5H0z"/><path class="cls-1" d="m606 881 10-14.55h1.62l-10 14.55Zm.91-11.82v.82a2.24 2.24 0 0 0 .31 1.18 1.15 1.15 0 0 0 1.08.52 1.11 1.11 0 0 0 1.05-.52 2.24 2.24 0 0 0 .31-1.18v-.77a2.33 2.33 0 0 0-.3-1.18 1.12 1.12 0 0 0-1.06-.53 1.15 1.15 0 0 0-1.07.53 2.16 2.16 0 0 0-.35 1.15Zm-1.45.77v-.77a3.36 3.36 0 0 1 .32-1.46 2.68 2.68 0 0 1 1-1.06 3.13 3.13 0 0 1 3.1 0 2.54 2.54 0 0 1 .94 1.06 3.36 3.36 0 0 1 .32 1.46v.82a3.26 3.26 0 0 1-.33 1.46 2.55 2.55 0 0 1-1 1.06 2.77 2.77 0 0 1-1.53.4 2.83 2.83 0 0 1-1.56-.4 2.65 2.65 0 0 1-1-1.06 3.39 3.39 0 0 1-.29-1.46Zm8.69 7.55v.77a2.27 2.27 0 0 0 .31 1.19 1.17 1.17 0 0 0 1.08.51 1.12 1.12 0 0 0 1-.51 2.28 2.28 0 0 0 .32-1.19v-.77a2.33 2.33 0 0 0-.3-1.18 1.13 1.13 0 0 0-1.07-.52 1.16 1.16 0 0 0-1.07.52 2.24 2.24 0 0 0-.3 1.2Zm-1.45.77v-.77a3.19 3.19 0 0 1 .33-1.45 2.61 2.61 0 0 1 1-1.07 2.86 2.86 0 0 1 1.55-.4 2.79 2.79 0 0 1 1.55.4 2.5 2.5 0 0 1 .94 1.07 3.18 3.18 0 0 1 .32 1.45v.77a3.22 3.22 0 0 1-.32 1.46 2.65 2.65 0 0 1-1 1.07 2.87 2.87 0 0 1-1.54.4 2.9 2.9 0 0 1-1.55-.4 2.67 2.67 0 0 1-1-1.07 3.23 3.23 0 0 1-.31-1.44Zm-15 2.93a5 5 0 0 1-2.25-.5 4.17 4.17 0 0 1-1.6-1.36 3.61 3.61 0 0 1-.66-2h1.7a2.35 2.35 0 0 0 .9 1.63 2.94 2.94 0 0 0 1.91.64 3 3 0 0 0 1.59-.42 2.93 2.93 0 0 0 1.11-1.15 3.65 3.65 0 0 0 0-3.36 3 3 0 0 0-1.14-1.19 3.23 3.23 0 0 0-1.65-.44 4.75 4.75 0 0 0-1.37.21 3.57 3.57 0 0 0-1.16.53l-1.65-.2.88-7.16h7.56V868h-6.17l-.51 4.29h.09a3.92 3.92 0 0 1 1.12-.59 4.61 4.61 0 0 1 3.78.41 4.5 4.5 0 0 1 1.65 1.73 5.19 5.19 0 0 1 .6 2.52 4.89 4.89 0 0 1-.62 2.48 4.53 4.53 0 0 1-1.7 1.72 4.87 4.87 0 0 1-2.48.66Z"/><path class="cls-3" d="m220.51 85.51-.31-.8-30.53-79.65a7.88 7.88 0 0 0-3.13-3.78A8.22 8.22 0 0 0 183 0a8.1 8.1 0 0 0-6.78 2.58 8.18 8.18 0 0 0-1.81 3.27L153.82 69H70.43L49.82 5.89A8 8 0 0 0 42.5 0a8.12 8.12 0 0 0-4.78 1.25 8 8 0 0 0-3.14 3.78L4.06 84.71l-.31.8A56.7 56.7 0 0 0 22.55 151l.11.08.27.2 46.5 34.81 23 17.41 14 10.58a9.44 9.44 0 0 0 11.41 0l14-10.58 23-17.41 46.77-35 .13-.1a56.69 56.69 0 0 0 18.79-65.49Z"/><path class="cls-4" d="m220.51 85.51-.31-.8a103.19 103.19 0 0 0-41 18.45l-67 50.69c22.82 17.26 42.69 32.26 42.69 32.26l46.77-35 .13-.09a56.7 56.7 0 0 0 18.79-65.49Z"/><path class="cls-5" d="m69.43 186.11 23 17.41 14 10.58a9.42 9.42 0 0 0 11.4 0l14-10.58 23-17.41s-19.87-15-42.69-32.26c-22.84 17.26-42.71 32.26-42.71 32.26Z"/><path class="cls-4" d="M45.09 103.16a103.13 103.13 0 0 0-41-18.45l-.31.8A56.68 56.68 0 0 0 22.55 151l.11.08.27.2 46.5 34.81s19.87-15 42.69-32.26Z"/><path class="cls-3" d="m165.38 390.14-.23-.6-22.9-59.74a6 6 0 0 0-10.07-1.8 6.11 6.11 0 0 0-1.36 2.45l-15.45 47.31H52.82l-15.45-47.34a6.07 6.07 0 0 0-2-3.08 6 6 0 0 0-3.49-1.34 6.12 6.12 0 0 0-3.59.93 5.94 5.94 0 0 0-2.35 2.84L3 389.54l-.23.6a42.51 42.51 0 0 0 14.1 49.13l.09.06.2.15 34.87 26.11 17.25 13.05 10.5 7.94a7.07 7.07 0 0 0 8.55 0l10.5-7.94 17.24-13.05 35.08-26.26.1-.08a42.49 42.49 0 0 0 14.09-49.11Z"/><path class="cls-4" d="m165.38 390.14-.23-.6a77.27 77.27 0 0 0-30.78 13.84l-50.27 38c17.11 12.95 32 24.2 32 24.2l35.09-26.27.09-.07a42.49 42.49 0 0 0 14.09-49.11Z"/><path class="cls-5" d="m52.07 465.59 17.25 13.05 10.5 7.94a7.07 7.07 0 0 0 8.55 0l10.5-7.94 17.25-13.05-32-24.2Z"/><path class="cls-4" d="M33.82 403.38A77.27 77.27 0 0 0 3 389.54l-.23.6a42.51 42.51 0 0 0 14.1 49.13.21.21 0 0 1 .08.06l.2.15 34.88 26.11 32-24.2Z"/><path class="cls-3" d="m55.13 819.39-.08-.2-7.63-19.91a2 2 0 0 0-.78-.95 2.16 2.16 0 0 0-.88-.31 2.1 2.1 0 0 0-.93.12 2.17 2.17 0 0 0-.77.53 2 2 0 0 0-.45.81l-5.15 15.77H17.61l-5.15-15.76a2 2 0 0 0-.68-1 2 2 0 0 0-1.15-.44 2.12 2.12 0 0 0-1.2.31 2 2 0 0 0-.78.95L1 819.19l-.08.2a14.17 14.17 0 0 0 4.7 16.38l.06.05 11.63 8.7 5.75 4.35 3.5 2.65a2.36 2.36 0 0 0 2.85 0l3.5-2.65 5.75-4.35 11.69-8.75a14.18 14.18 0 0 0 4.7-16.37Z"/><path class="cls-4" d="m55.13 819.39-.08-.2a25.78 25.78 0 0 0-10.26 4.61L28 836.48l10.68 8.06 11.69-8.75a14.18 14.18 0 0 0 4.7-16.37Z"/><path class="cls-5" d="m17.36 844.54 5.75 4.35 3.5 2.65a2.36 2.36 0 0 0 2.85 0l3.5-2.65 5.75-4.35L28 836.48Z"/><path class="cls-4" d="M11.27 823.8A25.71 25.71 0 0 0 1 819.19l-.07.2a14.17 14.17 0 0 0 4.7 16.38l.06.05 11.63 8.7L28 836.48Z"/><path class="cls-3" d="m110.26 632.76-.16-.4-15.26-39.82a4 4 0 0 0-1.57-1.89 4.09 4.09 0 0 0-1.76-.62 4 4 0 0 0-1.85.24 4.07 4.07 0 0 0-1.54 1.05 4.16 4.16 0 0 0-.9 1.63l-10.31 31.54H35.22L24.91 593a4 4 0 0 0-1.35-2.05 4 4 0 0 0-2.31-.88 4.11 4.11 0 0 0-2.39.63 4 4 0 0 0-1.57 1.89L2 632.36l-.15.4a28.36 28.36 0 0 0 9.4 32.76h.05l.14.1 23.25 17.4 11.5 8.71 7 5.29a4.71 4.71 0 0 0 5.7 0l7-5.29 11.49-8.71 23.39-17.5h.06a28.34 28.34 0 0 0 9.4-32.75Z"/><path class="cls-4" d="m110.26 632.76-.16-.4a51.63 51.63 0 0 0-20.52 9.23l-33.51 25.34 21.34 16.13 23.39-17.5h.06a28.34 28.34 0 0 0 9.4-32.75Z"/><path class="cls-5" d="m34.72 683.06 11.5 8.71 7 5.29a4.71 4.71 0 0 0 5.7 0l7-5.29 11.49-8.71-21.34-16.12Z"/><path class="cls-4" d="M22.55 641.59A51.48 51.48 0 0 0 2 632.37l-.16.39a28.34 28.34 0 0 0 9.41 32.76h.05l.14.1 23.24 17.4 21.35-16.12c-15.33-11.59-33.39-25.24-33.48-25.31Z"/><path class="cls-3" d="M21 960.15v-.08l-3-7.57a.74.74 0 0 0-.29-.36.76.76 0 0 0-.46-.12.72.72 0 0 0-.44.16.78.78 0 0 0-.25.39l-2 6H6.69l-2-6a.78.78 0 0 0-.25-.39A.72.72 0 0 0 4 952a.76.76 0 0 0-.46.12.74.74 0 0 0-.29.36l-2.9 7.57v.08a5.39 5.39 0 0 0 1.78 6.23l4.42 3.31 2.18 1.66 1.33 1a.92.92 0 0 0 1.09 0l1.33-1 2.18-1.66 4.45-3.33a5.38 5.38 0 0 0 1.89-6.19Z"/><path class="cls-4" d="M21 960.15v-.08a9.78 9.78 0 0 0-3.9 1.76l-6.37 4.82 4.06 3.07 4.45-3.33a5.38 5.38 0 0 0 1.76-6.24Z"/><path class="cls-5" d="m6.6 969.72 2.18 1.66 1.33 1a.92.92 0 0 0 1.09 0l1.33-1 2.18-1.66-4.05-3.07Z"/><path class="cls-4" d="M4.29 961.83a9.72 9.72 0 0 0-3.9-1.76v.08a5.31 5.31 0 0 0-.14 3.41 5.36 5.36 0 0 0 1.93 2.82l4.42 3.31 4.06-3.07Z"/><path class="cls-1" d="m612 961.11 2.62 4.46 2.61-4.46h1.93l-3.52 5.45 3.52 5.46h-1.93l-2.61-4.24L612 972h-1.93l3.47-5.46-3.47-5.45Zm-11.34 5.45a6.07 6.07 0 0 0 .36 2.18 3.33 3.33 0 0 0 1.06 1.47 3 3 0 0 0 3.46 0 3.42 3.42 0 0 0 1.07-1.51 6 6 0 0 0 .36-2.12 5.65 5.65 0 0 0-.36-2.07 3.2 3.2 0 0 0-1.05-1.47 3.11 3.11 0 0 0-3.49 0 3 3 0 0 0-1 1.44 5.8 5.8 0 0 0-.43 2.08Zm-1.66 9.55v-15h1.62v1.73h.2l.51-.72a3 3 0 0 1 1-.8A3.37 3.37 0 0 1 604 961a4.37 4.37 0 0 1 2.43.69 4.59 4.59 0 0 1 1.64 2 7 7 0 0 1 .59 3 7.15 7.15 0 0 1-.59 3 4.74 4.74 0 0 1-1.64 2 4.25 4.25 0 0 1-2.41.68 3.5 3.5 0 0 1-1.68-.34 3.19 3.19 0 0 1-1-.81c-.23-.3-.4-.55-.53-.75h-.14v5.77Zm-13.4-5.46a2.73 2.73 0 0 0 2.47-1.53 9 9 0 0 0 .88-4.38 11.09 11.09 0 0 0-.41-3.21 4.41 4.41 0 0 0-1.15-2 2.52 2.52 0 0 0-1.79-.69 2.73 2.73 0 0 0-2.47 1.55 8.92 8.92 0 0 0-.89 4.38 11.55 11.55 0 0 0 .4 3.22 4.42 4.42 0 0 0 1.14 2 2.61 2.61 0 0 0 1.81.66Zm0 1.57a4.3 4.3 0 0 1-2.74-.88 5.35 5.35 0 0 1-1.72-2.55 13.87 13.87 0 0 1 0-8.07 5.52 5.52 0 0 1 1.73-2.56 4.62 4.62 0 0 1 5.45 0 5.52 5.52 0 0 1 1.73 2.56 11.9 11.9 0 0 1 .6 4 12.28 12.28 0 0 1-.59 4 5.43 5.43 0 0 1-1.73 2.55 4.28 4.28 0 0 1-2.74.95Zm-16.86-.2v-1.28l4.8-5.26c.57-.61 1-1.15 1.4-1.6a5.91 5.91 0 0 0 .8-1.29 3.16 3.16 0 0 0 .27-1.28 2.41 2.41 0 0 0-.36-1.33 2.56 2.56 0 0 0-1-.87 3.25 3.25 0 0 0-1.42-.3 2.84 2.84 0 0 0-1.46.35 2.37 2.37 0 0 0-1 1 3.07 3.07 0 0 0-.33 1.45h-1.68a4.23 4.23 0 0 1 .59-2.24 4.08 4.08 0 0 1 1.6-1.51 4.88 4.88 0 0 1 2.3-.54 4.63 4.63 0 0 1 2.26.54 4 4 0 0 1 1.55 1.46 3.77 3.77 0 0 1 .56 2 4.28 4.28 0 0 1-.29 1.57 7 7 0 0 1-1 1.69c-.47.62-1.12 1.38-2 2.28l-3.26 3.49v.12h6.76V972Zm-21.08-.91-1.1-1.08 4.51-4.5h-11.68V964h11.67l-4.51-4.49 1.1-1.09 6.36 6.36Zm-27.54 1.13a5.16 5.16 0 0 1-2.72-.69 4.63 4.63 0 0 1-1.75-2 6.63 6.63 0 0 1-.61-2.94 6.78 6.78 0 0 1 .61-3 4.81 4.81 0 0 1 1.72-2 4.61 4.61 0 0 1 2.58-.72 5.11 5.11 0 0 1 1.68.28 4.28 4.28 0 0 1 1.52.92 4.52 4.52 0 0 1 1.08 1.68 7.14 7.14 0 0 1 .41 2.57v.71h-8.41v-1.45h6.7a3.58 3.58 0 0 0-.37-1.65 2.77 2.77 0 0 0-1-1.14 2.91 2.91 0 0 0-1.58-.42 3 3 0 0 0-1.73.5 3.3 3.3 0 0 0-1.12 1.28 3.75 3.75 0 0 0-.39 1.69v1a4.6 4.6 0 0 0 .43 2.1 3.09 3.09 0 0 0 1.2 1.3 3.53 3.53 0 0 0 1.78.44 3.42 3.42 0 0 0 1.19-.19 2.56 2.56 0 0 0 .94-.56 2.61 2.61 0 0 0 .6-1l1.62.46a3.64 3.64 0 0 1-.86 1.45 4.16 4.16 0 0 1-1.49 1 5.48 5.48 0 0 1-2.04.38Zm-15.4-.24v-1.28l6.19-8v-.11h-6v-1.56h8.15v1.33l-6 7.9v.12h6.22v1.6Zm-3.58-12.73a1.21 1.21 0 0 1-.85-.33 1.1 1.1 0 0 1-.35-.81 1.08 1.08 0 0 1 .35-.8 1.21 1.21 0 0 1 .85-.33 1.16 1.16 0 0 1 .83.33 1.05 1.05 0 0 1 .36.8 1.07 1.07 0 0 1-.36.81 1.16 1.16 0 0 1-.83.35Zm-.86 12.73v-10.89H502V972Zm-2.72-8.47-1.5.43a3 3 0 0 0-.42-.73 2 2 0 0 0-.74-.6 2.62 2.62 0 0 0-1.2-.23 2.84 2.84 0 0 0-1.67.46 1.35 1.35 0 0 0-.66 1.15 1.2 1.2 0 0 0 .45 1 4.06 4.06 0 0 0 1.42.61l1.62.39a4.42 4.42 0 0 1 2.18 1.09 2.54 2.54 0 0 1 .72 1.87 2.76 2.76 0 0 1-.54 1.67 3.53 3.53 0 0 1-1.49 1.17 5.51 5.51 0 0 1-2.23.42 4.93 4.93 0 0 1-2.76-.72 3.23 3.23 0 0 1-1.39-2.12l1.59-.39a2.25 2.25 0 0 0 .86 1.32 2.92 2.92 0 0 0 1.67.44 3.13 3.13 0 0 0 1.86-.5 1.46 1.46 0 0 0 .7-1.21 1.25 1.25 0 0 0-.4-.95 2.57 2.57 0 0 0-1.22-.58l-1.82-.43a4.26 4.26 0 0 1-2.2-1.1 2.64 2.64 0 0 1-.7-1.88 2.71 2.71 0 0 1 .52-1.63 3.5 3.5 0 0 1 1.43-1.12 5 5 0 0 1 2.06-.4 4 4 0 0 1 2.54.71 3.83 3.83 0 0 1 1.32 1.88ZM466.83 972v-10.89h1.62v1.7h.14a2.72 2.72 0 0 1 1.1-1.35 3.26 3.26 0 0 1 1.82-.49 3.1 3.1 0 0 1 1.8.49 3.21 3.21 0 0 1 1.13 1.35h.11a3.19 3.19 0 0 1 1.26-1.34 3.8 3.8 0 0 1 2-.5 3.25 3.25 0 0 1 2.39.91 3.82 3.82 0 0 1 .94 2.84V972h-1.68v-7.3a2.07 2.07 0 0 0-.66-1.73 2.43 2.43 0 0 0-1.56-.52 2.27 2.27 0 0 0-1.78.7 2.49 2.49 0 0 0-.63 1.75v7.1h-1.71v-7.47a2 2 0 0 0-.6-1.5 2.14 2.14 0 0 0-1.56-.58 2.33 2.33 0 0 0-1.22.35 2.66 2.66 0 0 0-.91 1 2.88 2.88 0 0 0-.34 1.41V972Zm-4.75-4.46v-6.45h1.68V972h-1.68v-1.85H462a3.59 3.59 0 0 1-1.2 1.41 3.39 3.39 0 0 1-2 .58 3.64 3.64 0 0 1-1.82-.45 3.12 3.12 0 0 1-1.25-1.36 5.22 5.22 0 0 1-.45-2.31v-6.93h1.67v6.82a2.64 2.64 0 0 0 .67 1.9 2.28 2.28 0 0 0 1.72.71 2.91 2.91 0 0 0 1.27-.32 2.69 2.69 0 0 0 1.09-1 2.92 2.92 0 0 0 .38-1.64ZM437.82 972v-10.89h1.62v1.7h.14a2.74 2.74 0 0 1 1.11-1.35 3.24 3.24 0 0 1 1.82-.49 3.1 3.1 0 0 1 1.8.49 3.21 3.21 0 0 1 1.13 1.35h.11a3.19 3.19 0 0 1 1.26-1.34 3.8 3.8 0 0 1 2-.5 3.27 3.27 0 0 1 2.39.91 3.82 3.82 0 0 1 .93 2.84V972h-1.67v-7.3a2.08 2.08 0 0 0-.67-1.73 2.4 2.4 0 0 0-1.55-.52 2.26 2.26 0 0 0-1.78.7 2.5 2.5 0 0 0-.64 1.75v7.1h-1.7v-7.47a2 2 0 0 0-.6-1.5 2.15 2.15 0 0 0-1.56-.58 2.33 2.33 0 0 0-1.22.35 2.58 2.58 0 0 0-.91 1 2.78 2.78 0 0 0-.34 1.41V972Zm-3.89-12.73a1.21 1.21 0 0 1-.85-.33 1.09 1.09 0 0 1-.34-.81 1.07 1.07 0 0 1 .34-.8 1.21 1.21 0 0 1 .85-.33 1.17 1.17 0 0 1 .84.33 1.08 1.08 0 0 1 .35.8 1.1 1.1 0 0 1-.35.81 1.17 1.17 0 0 1-.84.35Zm-.85 12.73v-10.89h1.67V972Zm-10-6.56V972h-1.67v-10.89H423v1.7h.14a3 3 0 0 1 1.16-1.33 3.65 3.65 0 0 1 2-.51 4 4 0 0 1 1.94.45 3.09 3.09 0 0 1 1.29 1.36 5.08 5.08 0 0 1 .46 2.31V972h-1.67v-6.8a2.78 2.78 0 0 0-.67-2 2.34 2.34 0 0 0-1.83-.73 3 3 0 0 0-1.44.35 2.48 2.48 0 0 0-1 1 3.23 3.23 0 0 0-.33 1.64Zm-5.57-6.17a1.2 1.2 0 0 1-.84-.33 1.1 1.1 0 0 1-.35-.81 1.08 1.08 0 0 1 .35-.8 1.2 1.2 0 0 1 .84-.33 1.17 1.17 0 0 1 .84.33 1.05 1.05 0 0 1 .36.8 1.07 1.07 0 0 1-.36.81 1.17 1.17 0 0 1-.87.35Zm-.88 12.73v-10.89h1.68V972Zm-17.56-14.55h2.1l4.94 12.08h.17l4.94-12.08h2.11V972h-1.65v-11h-.14L407 972h-1.6l-4.54-11h-.15v11h-1.64Z"/></g></g></svg>