<svg xmlns="http://www.w3.org/2000/svg" viewBox="0 0 1151.8 1033.03"><defs><style>.cls-2,.cls-3,.cls-5,.cls-7,.cls-8{fill:none}.cls-2,.cls-3,.cls-5,.cls-7{stroke:#737477;stroke-miterlimit:10}.cls-2{stroke-width:.26px}.cls-3{stroke-width:.24px}.cls-4{fill:#737477;opacity:.2;mix-blend-mode:multiply}.cls-5{stroke-width:.33px}.cls-7{stroke-width:.26px}.cls-10{fill:#7a7a7a}.cls-11{fill:#666}</style></defs><g style="isolation:isolate"><g id="Layer_2" data-name="Layer 2"><g id="DO_NOT_EXPORT" data-name="DO NOT EXPORT"><path class="cls-2" d="M1.41 888.66 1151.72 30.82"/><circle class="cls-3" cx="426.58" cy="152.82" r="17.09"/><circle class="cls-3" cx="722.62" cy="152.82" r="17.09"/><circle class="cls-3" cx="574.68" cy="575.47" r="17.09"/><path class="cls-2" d="m1.78 1025.13 1149.94-857.56M1150.55 896.65 2.39 28.52M1150.86 1032.86.08 163.25"/><path class="cls-4" d="M932 327.4a219 219 0 0 0-215.67 26.54L574.59 461.13c48.28 36.5 90.29 68.23 90.29 68.23l-48.63 36.82-41.66 31.5L717 705.39a219 219 0 1 0 215-378Zm-84.76 311.5a109 109 0 0 1-61.16-18.66v.56l-121-91.3-.19-.14L764 455.14l13.07-9.79a109.49 109.49 0 1 1 70.17 193.55ZM82.83 529.42a219 219 0 0 0 349.31 176l142.45-107.74-41.66-31.5-48.64-36.82s42-31.73 90.3-68.23L432.81 353.94a218.93 218.93 0 0 0-350 175.48Zm109.61 0a109.49 109.49 0 0 1 179.64-84.07l13.08 9.79 99.13 74.22-.18.14-121 91.3v-.56a109.51 109.51 0 0 1-170.65-90.82Z"/><path class="cls-5" d="M1.51 431.65h1149.35"/><path style="stroke-width:.26px;stroke:#737477;stroke-miterlimit:10;fill:none" d="M1.41 1032.86V0"/><path class="cls-7" d="M28.74 1032.86V3.34M56.07 1032.86V3.34M83.4 1032.86V3.34M110.73 1032.86V3.34M138.05 1032.86V3.34M165.38 1032.86V3.34M192.71 1032.86V3.34M220.04 1032.86V3.34M247.37 1032.86V3.34M274.69 1032.86V3.34M302.02 1032.86V3.34M329.35 1032.86V3.34M356.68 1032.86V3.34M384.01 1032.86V3.34M411.33 1032.86V3.34M438.66 1032.86V3.34M465.99 1032.86V3.34M493.32 1032.86V3.34M520.65 1032.86V3.34M547.97 1032.86V3.34M575.3 1032.86V3.34M602.63 1032.86V3.34M629.96 1032.86V3.34M657.28 1032.86V3.34M684.61 1032.86V3.34M711.94 1032.86V3.34M739.27 1032.86V3.34M766.6 1032.86V3.34M793.92 1032.86V3.34M821.25 1032.86V3.34M848.58 1032.86V3.34M875.91 1032.86V3.34M903.24 1032.86V3.34M930.56 1032.86V3.34M957.89 1032.86V3.34M985.22 1032.86V3.34M1012.55 1032.86V3.34M1039.88 1032.86V3.34M1067.2 1032.86V3.34M1094.53 1032.86V3.34M1121.86 1032.86V3.34"/><path class="cls-8" d="M1.78 3.34h1149.35v1029.52H1.78z"/><path class="cls-8" transform="rotate(90 576.19 517.89)" d="M61.22-56.78h1029.95v1149.35H61.22z"/><path class="cls-5" d="M1.51 240.35h1149.35M1.51 267.68h1149.35M1.51 295.01h1149.35M1.51 322.34h1149.35M1.51 349.66h1149.35M1.51 376.99h1149.35M1.51 404.32h1149.35M1.51 431.65h1149.35M1.51 458.98h1149.35M1.51 486.3h1149.35M1.51 513.63h1149.35M1.51 540.96h1149.35M1.51 568.29h1149.35M1.51 595.62h1149.35M1.51 622.94h1149.35M1.51 650.27h1149.35M1.51 677.6h1149.35M1.51 704.93h1149.35M1.51 732.26h1149.35M1.51 759.58h1149.35M1.51 786.91h1149.35M1.51 814.24h1149.35M1.51 841.57h1149.35M1.51 868.9h1149.35M1.51 896.22h1149.35M1.51 923.55h1149.35M1.51 950.88h1149.35M1.51 978.21h1149.35M1.51 1005.54h1149.35M1.51 1032.86h1149.35M1.51 240.35h1149.35M1.51 214.02h1149.35M1.51 187.68h1149.35M1.51 161.35h1149.35M1.51 135.01h1149.35M1.51 108.68h1149.35M1.51 82.35h1149.35M1.51 56.01h1149.35M1.51 29.68h1149.35M1.51 3.34h1149.35M1.51 267.68h1149.35M1.51 295.01h1149.35M1.51 322.34h1149.35M1.51 349.66h1149.35M1.51 376.99h1149.35M1.51 404.32h1149.35M1.51 458.98h1149.35M1.51 486.3h1149.35M1.51 513.63h1149.35M1.51 540.96h1149.35M1.51 568.29h1149.35M1.51 595.62h1149.35M1.51 650.27h1149.35M1.51 677.6h1149.35M1.51 704.93h1149.35M1.51 732.26h1149.35M1.51 759.58h1149.35M1.51 786.91h1149.35M1.51 814.24h1149.35M1.51 841.57h1149.35M1.51 868.9h1149.35M1.51 896.22h1149.35M1.51 923.55h1149.35M1.51 950.88h1149.35M1.51 978.21h1149.35M1.51 1005.54h1149.35M1.51 1032.86h1149.35"/></g><g style="mix-blend-mode:multiply" id="LOGO"><path class="cls-10" d="m804.21 316.58-.65-1.7L739 146.44a16.68 16.68 0 0 0-6.63-8 17 17 0 0 0-25.6 9.75L663.18 281.6H486.82l-43.59-133.41a17 17 0 0 0-5.71-8.69 17.16 17.16 0 0 0-19.89-1.06 16.68 16.68 0 0 0-6.63 8l-64.56 168.45-.65 1.69a119.87 119.87 0 0 0 39.77 138.53l.23.17.57.43 98.34 73.62 48.64 36.82 29.6 22.38a20 20 0 0 0 24.12 0l29.6-22.38 48.63-36.82 98.92-74.05.26-.2a119.88 119.88 0 0 0 39.74-138.5Z"/><path class="cls-11" d="m804.21 316.58-.65-1.7a218 218 0 0 0-86.79 39L575 461.1c48.27 36.5 90.29 68.23 90.29 68.23l98.92-74.05.26-.2a119.88 119.88 0 0 0 39.74-138.5Z"/><path class="cls-10" d="m484.7 529.33 48.64 36.82 29.6 22.38a20 20 0 0 0 24.12 0l29.6-22.38 48.63-36.82s-42-31.73-90.29-68.23c-48.28 36.5-90.3 68.23-90.3 68.23Z"/><path class="cls-11" d="M433.22 353.91a217.85 217.85 0 0 0-86.78-39l-.65 1.69a119.87 119.87 0 0 0 39.77 138.53l.23.17.57.43 98.34 73.62s42-31.73 90.3-68.23Z"/></g></g></g></svg>