<svg xmlns="http://www.w3.org/2000/svg" viewBox="0 0 1100.5 268.23"><defs><style>.cls-1{fill:#171321;}.cls-2{fill:#e24329;}.cls-3{fill:#fc6d26;}.cls-4{fill:#fca326;}.cls-5{fill:#a2a1a6;}</style></defs><g id="Layer_2" data-name="Layer 2"><g id="Layer_1-2" data-name="Layer 1"><path class="cls-1" d="M650.54,255l10-14.55h1.62l-10,14.55Zm.91-11.82V244a2.2,2.2,0,0,0,.31,1.18,1.14,1.14,0,0,0,1.08.52,1.11,1.11,0,0,0,1-.52,2.2,2.2,0,0,0,.31-1.18v-.77a2.33,2.33,0,0,0-.3-1.18,1.12,1.12,0,0,0-1.06-.53,1.19,1.19,0,0,0-1.08.53,2.37,2.37,0,0,0-.34,1.15ZM650,244v-.77a3.52,3.52,0,0,1,.32-1.46,2.75,2.75,0,0,1,1-1.06,3.12,3.12,0,0,1,3.1,0,2.6,2.6,0,0,1,.94,1.06,3.24,3.24,0,0,1,.32,1.46V244a3.19,3.19,0,0,1-.33,1.46,2.5,2.5,0,0,1-1,1.06,2.74,2.74,0,0,1-1.53.4,2.84,2.84,0,0,1-1.56-.4,2.69,2.69,0,0,1-1-1.06A3.5,3.5,0,0,1,650,244Zm8.69,7.55v.77a2.25,2.25,0,0,0,.31,1.19,1.17,1.17,0,0,0,1.08.51,1.12,1.12,0,0,0,1-.51,2.17,2.17,0,0,0,.32-1.19v-.77a2.33,2.33,0,0,0-.3-1.18,1.14,1.14,0,0,0-1.07-.52,1.2,1.2,0,0,0-1.07.52,2.3,2.3,0,0,0-.3,1.2Zm-1.45.77v-.77a3.31,3.31,0,0,1,.33-1.45,2.71,2.71,0,0,1,1-1.07,2.92,2.92,0,0,1,1.55-.4,2.81,2.81,0,0,1,1.55.4,2.5,2.5,0,0,1,.94,1.07,3.17,3.17,0,0,1,.32,1.45v.77a3.18,3.18,0,0,1-.32,1.46,2.52,2.52,0,0,1-1,1.07,2.78,2.78,0,0,1-1.54.4,2.83,2.83,0,0,1-1.55-.4,2.58,2.58,0,0,1-1-1.07,3.25,3.25,0,0,1-.31-1.44Zm-15,2.93a5,5,0,0,1-2.25-.5,4.21,4.21,0,0,1-1.6-1.36,3.65,3.65,0,0,1-.66-2h1.7a2.32,2.32,0,0,0,.9,1.63,3.19,3.19,0,0,0,3.5.22,2.86,2.86,0,0,0,1.11-1.15,3.63,3.63,0,0,0,0-3.36,3,3,0,0,0-1.14-1.19,3.29,3.29,0,0,0-1.65-.44,5.35,5.35,0,0,0-1.37.21,3.81,3.81,0,0,0-1.16.53l-1.65-.2.88-7.16h7.56V242h-6.17l-.51,4.29h.09a4.29,4.29,0,0,1,1.12-.59,4.64,4.64,0,0,1,3.78.41,4.49,4.49,0,0,1,1.65,1.73,5.18,5.18,0,0,1,.6,2.52,4.86,4.86,0,0,1-.62,2.48,4.53,4.53,0,0,1-1.7,1.72,4.8,4.8,0,0,1-2.48.66Zm-8.73-14.75V255h-1.76v-12.7h-.08l-3.55,2.36v-1.79l3.63-2.42Z"/><path class="cls-2" d="M793.5,120.1l-.23-.6-22.9-59.74a6,6,0,0,0-7.77-3.4,6.2,6.2,0,0,0-3.66,4l-15.45,47.31H680.94L665.49,60.38a6.06,6.06,0,0,0-9.08-3.49,6,6,0,0,0-2.35,2.84L631.12,119.5l-.23.6A42.51,42.51,0,0,0,645,169.23l.09.06.2.15,34.87,26.11,17.25,13,10.5,7.94a7.07,7.07,0,0,0,8.55,0L727,208.6l17.24-13,35.08-26.26.1-.08a42.49,42.49,0,0,0,14.09-49.11Z"/><path class="cls-3" d="M793.5,120.1l-.23-.6a77.41,77.41,0,0,0-30.78,13.84l-50.27,38c17.11,12.95,32,24.2,32,24.2l35.09-26.27.09-.07a42.49,42.49,0,0,0,14.09-49.11Z"/><path class="cls-4" d="M680.19,195.55l17.25,13,10.5,7.94a7.07,7.07,0,0,0,8.55,0L727,208.6l17.25-13-32-24.2Z"/><path class="cls-3" d="M661.94,133.34a77.38,77.38,0,0,0-30.82-13.84l-.23.6A42.51,42.51,0,0,0,645,169.23l.08.06.2.15,34.88,26.11,32-24.2Z"/><path class="cls-5" d="M299.55,267.73h56v.5h-56Z"/><path class="cls-1" d="M312.34,257l10-14.55H324L314,257Zm.91-11.82V246a2.2,2.2,0,0,0,.31,1.18,1.14,1.14,0,0,0,1.08.52,1.11,1.11,0,0,0,1.05-.52A2.2,2.2,0,0,0,316,246v-.77a2.33,2.33,0,0,0-.3-1.18,1.12,1.12,0,0,0-1.06-.53,1.17,1.17,0,0,0-1.07.53,2.22,2.22,0,0,0-.35,1.15Zm-1.45.77v-.77a3.52,3.52,0,0,1,.32-1.46,2.75,2.75,0,0,1,1-1.06,3.12,3.12,0,0,1,3.1,0,2.6,2.6,0,0,1,.94,1.06,3.37,3.37,0,0,1,.32,1.46V246a3.19,3.19,0,0,1-.33,1.46,2.5,2.5,0,0,1-1,1.06,2.74,2.74,0,0,1-1.53.4,2.84,2.84,0,0,1-1.56-.4,2.62,2.62,0,0,1-1-1.06,3.5,3.5,0,0,1-.29-1.46Zm8.69,7.55v.77a2.25,2.25,0,0,0,.31,1.19,1.16,1.16,0,0,0,1.08.51,1.12,1.12,0,0,0,1-.51,2.26,2.26,0,0,0,.32-1.19v-.77a2.33,2.33,0,0,0-.3-1.18,1.14,1.14,0,0,0-1.07-.52,1.19,1.19,0,0,0-1.07.52,2.3,2.3,0,0,0-.3,1.2Zm-1.45.77v-.77a3.18,3.18,0,0,1,.33-1.45,2.64,2.64,0,0,1,1-1.07,2.92,2.92,0,0,1,1.55-.4,2.81,2.81,0,0,1,1.55.4,2.5,2.5,0,0,1,.94,1.07,3.17,3.17,0,0,1,.32,1.45v.77a3.18,3.18,0,0,1-.32,1.46,2.58,2.58,0,0,1-1,1.07,2.78,2.78,0,0,1-1.54.4,2.83,2.83,0,0,1-1.55-.4,2.58,2.58,0,0,1-1-1.07,3.25,3.25,0,0,1-.31-1.44Zm-15,2.93a5,5,0,0,1-2.25-.5,4.21,4.21,0,0,1-1.6-1.36,3.65,3.65,0,0,1-.66-2h1.7a2.32,2.32,0,0,0,.9,1.63,3.09,3.09,0,0,0,4.61-.93,3.63,3.63,0,0,0,0-3.36,3,3,0,0,0-1.14-1.19A3.29,3.29,0,0,0,304,249a5.29,5.29,0,0,0-1.37.21,3.81,3.81,0,0,0-1.16.53l-1.65-.2.88-7.16h7.56V244H302l-.51,4.29h.09a4.29,4.29,0,0,1,1.12-.59,4.64,4.64,0,0,1,3.78.41,4.49,4.49,0,0,1,1.65,1.73,5.18,5.18,0,0,1,.6,2.52,4.86,4.86,0,0,1-.62,2.48,4.53,4.53,0,0,1-1.7,1.72,4.8,4.8,0,0,1-2.48.66Z"/><path class="cls-2" d="M354.68,185.35l-.08-.2L347,165.24a2.07,2.07,0,0,0-.78-1,2.32,2.32,0,0,0-.88-.31,2.1,2.1,0,0,0-.93.12,2.17,2.17,0,0,0-.77.53,2,2,0,0,0-.45.81L338,181.21H317.16L312,165.45a2.09,2.09,0,0,0-.68-1,2,2,0,0,0-1.15-.44,2.12,2.12,0,0,0-1.2.31,2,2,0,0,0-.78,1l-7.65,19.88-.08.2a14.17,14.17,0,0,0,4.7,16.38l.06.05,11.63,8.7,5.75,4.35,3.5,2.65a2.36,2.36,0,0,0,2.85,0l3.5-2.65,5.75-4.35,11.69-8.75a14.18,14.18,0,0,0,4.7-16.37Z"/><path class="cls-3" d="M354.68,185.35l-.08-.2a25.92,25.92,0,0,0-10.26,4.61l-16.79,12.68,10.68,8.06,11.69-8.75a14.18,14.18,0,0,0,4.7-16.37Z"/><path class="cls-4" d="M316.91,210.5l5.75,4.35,3.5,2.65a2.36,2.36,0,0,0,2.85,0l3.5-2.65,5.75-4.35-10.71-8.06Z"/><path class="cls-3" d="M310.82,189.76a25.82,25.82,0,0,0-10.27-4.61l-.07.2a14.17,14.17,0,0,0,4.7,16.38l.06.05,11.63,8.7,10.68-8Z"/><path class="cls-5" d="M435.87,267.73H548v.5H435.87Z"/><path class="cls-1" d="M458.64,257l10-14.55h1.62l-10,14.55Zm.91-11.82V246a2.2,2.2,0,0,0,.31,1.18,1.14,1.14,0,0,0,1.08.52,1.12,1.12,0,0,0,1.05-.52,2.29,2.29,0,0,0,.31-1.18v-.77A2.44,2.44,0,0,0,462,244a1.14,1.14,0,0,0-1.06-.53,1.18,1.18,0,0,0-1.08.53,2.17,2.17,0,0,0-.34,1.15Zm-1.45.77v-.77a3.24,3.24,0,0,1,.32-1.46,2.68,2.68,0,0,1,1-1.06,3.12,3.12,0,0,1,3.1,0,2.67,2.67,0,0,1,.94,1.06,3.52,3.52,0,0,1,.32,1.46V246a3.32,3.32,0,0,1-.33,1.46,2.56,2.56,0,0,1-1,1.06,2.76,2.76,0,0,1-1.53.4,2.84,2.84,0,0,1-1.56-.4,2.55,2.55,0,0,1-1-1.06,3.21,3.21,0,0,1-.29-1.46Zm8.69,7.55v.77a2.25,2.25,0,0,0,.31,1.19,1.16,1.16,0,0,0,1.08.51,1.12,1.12,0,0,0,1-.51,2.36,2.36,0,0,0,.32-1.19v-.77a2.44,2.44,0,0,0-.3-1.18,1.15,1.15,0,0,0-1.07-.52,1.18,1.18,0,0,0-1.07.52,2.21,2.21,0,0,0-.3,1.2Zm-1.45.77v-.77a3.05,3.05,0,0,1,.33-1.45,2.64,2.64,0,0,1,1-1.07,2.9,2.9,0,0,1,1.55-.4,2.83,2.83,0,0,1,1.55.4,2.56,2.56,0,0,1,.94,1.07,3.17,3.17,0,0,1,.32,1.45v.77a3.18,3.18,0,0,1-.32,1.46,2.65,2.65,0,0,1-1,1.07,3.18,3.18,0,0,1-3.09,0,2.52,2.52,0,0,1-1-1.07,3.12,3.12,0,0,1-.31-1.44Zm-15.17,1.36a2.73,2.73,0,0,0,2.47-1.53,9,9,0,0,0,.88-4.38,11.26,11.26,0,0,0-.4-3.21,4.63,4.63,0,0,0-1.15-2,2.62,2.62,0,0,0-1.8-.69,2.74,2.74,0,0,0-2.46,1.55,8.74,8.74,0,0,0-.89,4.38,10.94,10.94,0,0,0,.4,3.22,4.23,4.23,0,0,0,1.14,2,2.54,2.54,0,0,0,1.78.68Zm0,1.57a4.25,4.25,0,0,1-2.73-.88,5.28,5.28,0,0,1-1.73-2.55,13.87,13.87,0,0,1,0-8.07,5.5,5.5,0,0,1,1.73-2.56,4.62,4.62,0,0,1,5.45,0,5.5,5.5,0,0,1,1.73,2.56,11.82,11.82,0,0,1,.61,4,12.32,12.32,0,0,1-.6,4,5.42,5.42,0,0,1-1.73,2.55,4.29,4.29,0,0,1-2.76,1Zm-8.93-14.75V257h-1.76v-12.7h-.08l-3.55,2.36v-1.79l3.63-2.42Z"/><path class="cls-2" d="M546.13,152.72l-.16-.4L530.71,112.5a4,4,0,0,0-1.57-1.89,4.09,4.09,0,0,0-1.76-.62,4,4,0,0,0-1.85.24,4.11,4.11,0,0,0-1.54,1,4.16,4.16,0,0,0-.9,1.63l-10.31,31.54H471.09L460.78,113a4.07,4.07,0,0,0-1.35-2,4,4,0,0,0-2.31-.88,4.11,4.11,0,0,0-2.39.63,4,4,0,0,0-1.57,1.89l-15.29,39.77-.15.4a28.35,28.35,0,0,0,9.4,32.76h.05l.14.1L470.56,203l11.5,8.71,7,5.29a4.71,4.71,0,0,0,5.7,0l7-5.29L513.25,203l23.39-17.5h.06a28.34,28.34,0,0,0,9.4-32.75Z"/><path class="cls-3" d="M546.13,152.72l-.16-.4a51.57,51.57,0,0,0-20.52,9.23l-33.51,25.34L513.28,203l23.39-17.5h.06a28.34,28.34,0,0,0,9.4-32.75Z"/><path class="cls-4" d="M470.59,203l11.5,8.71,7,5.29a4.71,4.71,0,0,0,5.7,0l7-5.29L513.28,203,491.94,186.9Z"/><path class="cls-3" d="M458.42,161.55a51.54,51.54,0,0,0-20.55-9.22l-.16.39a28.32,28.32,0,0,0,9.41,32.76h.05l.14.1L470.55,203l21.35-16.12Z"/><path class="cls-1" d="M40,197h1v20H40Z"/><path class="cls-1" d="M37,197h7v1H37Zm0,20h7v1H37Z"/><path class="cls-2" d="M21,204.11V204l-3-7.57a.79.79,0,0,0-.29-.36.76.76,0,0,0-.46-.12.7.7,0,0,0-.44.16.78.78,0,0,0-.25.39l-2,6H6.7l-2-6a.78.78,0,0,0-.25-.39A.72.72,0,0,0,4,196a.74.74,0,0,0-.46.12.73.73,0,0,0-.29.36L.36,204v.08a5.38,5.38,0,0,0,1.78,6.23l4.42,3.31,2.18,1.66,1.33,1a.92.92,0,0,0,1.09,0l1.33-1,2.18-1.66,4.45-3.33A5.38,5.38,0,0,0,21,204.11Z"/><path class="cls-3" d="M21,204.11V204a9.66,9.66,0,0,0-3.9,1.76l-6.37,4.82,4.06,3.07,4.45-3.33A5.39,5.39,0,0,0,21,204.11Z"/><path class="cls-4" d="M6.61,213.68l2.18,1.66,1.33,1a.92.92,0,0,0,1.09,0l1.33-1,2.18-1.66-4.05-3.07Z"/><path class="cls-3" d="M4.3,205.79A9.72,9.72,0,0,0,.4,204v.08a5.42,5.42,0,0,0,1.79,6.23l4.42,3.31,4.06-3.07Z"/><path class="cls-1" d="M212.93,246l2.62,4.46,2.61-4.46h1.93l-3.52,5.45,3.52,5.46h-1.93l-2.61-4.24-2.62,4.22H211l3.47-5.46L211,246Zm-11.34,5.45a6.24,6.24,0,0,0,.36,2.18,3.32,3.32,0,0,0,1.06,1.47,3,3,0,0,0,3.46,0,3.38,3.38,0,0,0,1.07-1.51,5.91,5.91,0,0,0,.36-2.12,5.61,5.61,0,0,0-.36-2.07,3.23,3.23,0,0,0-1-1.47,3.13,3.13,0,0,0-3.49,0,3,3,0,0,0-1,1.44,5.73,5.73,0,0,0-.43,2.08ZM199.93,261V246h1.62v1.73h.2l.51-.72a3,3,0,0,1,1-.8,3.33,3.33,0,0,1,1.67-.32,4.43,4.43,0,0,1,2.43.69,4.57,4.57,0,0,1,1.64,2,6.9,6.9,0,0,1,.59,3,7.18,7.18,0,0,1-.59,3,4.71,4.71,0,0,1-1.64,2,4.3,4.3,0,0,1-2.41.68,3.47,3.47,0,0,1-1.68-.34,3.13,3.13,0,0,1-1-.81c-.23-.3-.4-.55-.53-.75h-.14v5.77Zm-13.4-5.46A2.73,2.73,0,0,0,189,254a9,9,0,0,0,.88-4.38,11.27,11.27,0,0,0-.41-3.21,4.42,4.42,0,0,0-1.15-2,2.53,2.53,0,0,0-1.79-.69,2.74,2.74,0,0,0-2.47,1.55,9,9,0,0,0-.89,4.38,11.65,11.65,0,0,0,.4,3.22,4.41,4.41,0,0,0,1.14,2,2.61,2.61,0,0,0,1.81.66Zm0,1.57a4.3,4.3,0,0,1-2.74-.88,5.33,5.33,0,0,1-1.72-2.55,13.87,13.87,0,0,1,0-8.07A5.5,5.5,0,0,1,183.8,243a4.64,4.64,0,0,1,5.45,0,5.5,5.5,0,0,1,1.73,2.56,11.81,11.81,0,0,1,.6,4,12.05,12.05,0,0,1-.59,4,5.42,5.42,0,0,1-1.73,2.55,4.25,4.25,0,0,1-2.74.95Zm-16.86-.2V255.6l4.8-5.26c.57-.61,1-1.15,1.4-1.6a5.92,5.92,0,0,0,.8-1.29,3.13,3.13,0,0,0,.27-1.28,2.4,2.4,0,0,0-.36-1.33,2.63,2.63,0,0,0-1-.87,3.29,3.29,0,0,0-1.42-.3,2.87,2.87,0,0,0-1.46.35,2.3,2.3,0,0,0-1,1,3.05,3.05,0,0,0-.33,1.45h-1.68a4.2,4.2,0,0,1,.59-2.24,4.15,4.15,0,0,1,1.6-1.51,5,5,0,0,1,2.3-.54,4.68,4.68,0,0,1,2.26.54,4,4,0,0,1,1.55,1.46,3.82,3.82,0,0,1,.56,2,4.41,4.41,0,0,1-.29,1.57,6.85,6.85,0,0,1-1,1.69,24.48,24.48,0,0,1-2,2.28L172,255.21v.12h6.76v1.53ZM148.59,256l-1.1-1.08,4.51-4.5H140.32v-1.53H152l-4.51-4.49,1.1-1.09,6.36,6.36Zm-27.54,1.13a5.11,5.11,0,0,1-2.72-.69,4.65,4.65,0,0,1-1.75-2,6.63,6.63,0,0,1-.61-2.94,6.75,6.75,0,0,1,.61-3,4.83,4.83,0,0,1,1.72-2,4.62,4.62,0,0,1,2.58-.72,5.06,5.06,0,0,1,1.68.28,4.31,4.31,0,0,1,1.52.92,4.54,4.54,0,0,1,1.08,1.68,7.28,7.28,0,0,1,.41,2.57v.71h-8.41v-1.45h6.7a3.62,3.62,0,0,0-.37-1.65,2.82,2.82,0,0,0-1-1.14,2.93,2.93,0,0,0-1.58-.42,3,3,0,0,0-1.73.5,3.3,3.3,0,0,0-1.12,1.28,3.84,3.84,0,0,0-.39,1.69v1a4.6,4.6,0,0,0,.43,2.1,3.07,3.07,0,0,0,1.2,1.3,3.56,3.56,0,0,0,1.78.44,3.45,3.45,0,0,0,1.19-.19,2.64,2.64,0,0,0,.94-.56,2.55,2.55,0,0,0,.6-1l1.62.46a3.57,3.57,0,0,1-.86,1.45,4.17,4.17,0,0,1-1.49,1,5.28,5.28,0,0,1-2,.38Zm-15.4-.24v-1.28l6.19-8v-.11h-6v-1.56H114v1.33l-6,7.9v.12h6.22v1.6Zm-3.58-12.73a1.17,1.17,0,0,1-.85-.33,1.1,1.1,0,0,1,0-1.61,1.21,1.21,0,0,1,.85-.33,1.16,1.16,0,0,1,.83.33,1.05,1.05,0,0,1,.36.8,1.08,1.08,0,0,1-.36.81,1.18,1.18,0,0,1-.83.35Zm-.86,12.73V246h1.72v10.89Zm-2.72-8.47-1.5.43a3,3,0,0,0-.42-.73,2,2,0,0,0-.74-.6,2.62,2.62,0,0,0-1.2-.23,2.91,2.91,0,0,0-1.67.46,1.33,1.33,0,0,0-.66,1.15,1.2,1.2,0,0,0,.45,1,4.08,4.08,0,0,0,1.42.61l1.62.39A4.43,4.43,0,0,1,98,252a2.52,2.52,0,0,1,.72,1.87,2.71,2.71,0,0,1-.54,1.67,3.56,3.56,0,0,1-1.49,1.17,5.53,5.53,0,0,1-2.23.42,4.89,4.89,0,0,1-2.76-.72,3.26,3.26,0,0,1-1.39-2.12l1.59-.39a2.23,2.23,0,0,0,.86,1.32,2.89,2.89,0,0,0,1.67.44,3.13,3.13,0,0,0,1.86-.5,1.46,1.46,0,0,0,.7-1.21,1.27,1.27,0,0,0-.4-.95,2.56,2.56,0,0,0-1.22-.58L93.52,252a4.19,4.19,0,0,1-2.2-1.1,2.65,2.65,0,0,1-.7-1.88,2.73,2.73,0,0,1,.52-1.63,3.5,3.5,0,0,1,1.43-1.12,5,5,0,0,1,2.06-.4,4,4,0,0,1,2.54.71,3.86,3.86,0,0,1,1.32,1.88Zm-30.73,8.47V246h1.62v1.7h.14a2.76,2.76,0,0,1,1.1-1.35,3.26,3.26,0,0,1,1.82-.49,3,3,0,0,1,2.93,1.84h.11a3.19,3.19,0,0,1,1.26-1.34,3.79,3.79,0,0,1,2-.5,3.26,3.26,0,0,1,2.39.91,3.8,3.8,0,0,1,.94,2.84v7.28H80.39v-7.3a2.08,2.08,0,0,0-.66-1.73,2.45,2.45,0,0,0-1.56-.52,2.28,2.28,0,0,0-1.78.7,2.5,2.5,0,0,0-.63,1.75v7.1H74.05v-7.47a2,2,0,0,0-.6-1.5,2.18,2.18,0,0,0-1.56-.58,2.3,2.3,0,0,0-1.22.35,2.73,2.73,0,0,0-.91,1,2.88,2.88,0,0,0-.34,1.41v6.79ZM63,252.4V246h1.68v10.91H63V255h-.08a3.56,3.56,0,0,1-1.2,1.41,3.39,3.39,0,0,1-2,.58,3.61,3.61,0,0,1-1.82-.45,3.16,3.16,0,0,1-1.25-1.36,5.21,5.21,0,0,1-.45-2.31V246h1.67v6.82a2.6,2.6,0,0,0,.67,1.9,2.28,2.28,0,0,0,1.72.71,3,3,0,0,0,1.27-.32,2.63,2.63,0,0,0,1.09-1,3,3,0,0,0,.38-1.64Zm-24.26,4.46V246h1.62v1.7h.14a2.72,2.72,0,0,1,1.11-1.35,3.24,3.24,0,0,1,1.82-.49,3,3,0,0,1,2.93,1.84h.11a3.19,3.19,0,0,1,1.26-1.34,3.79,3.79,0,0,1,2-.5,3.3,3.3,0,0,1,2.39.91,3.83,3.83,0,0,1,.93,2.84v7.28H51.39v-7.3a2.09,2.09,0,0,0-.67-1.73,2.42,2.42,0,0,0-1.55-.52,2.28,2.28,0,0,0-1.78.7,2.51,2.51,0,0,0-.64,1.75v7.1h-1.7v-7.47a2,2,0,0,0-.6-1.5,2.18,2.18,0,0,0-1.56-.58,2.3,2.3,0,0,0-1.22.35,2.58,2.58,0,0,0-.91,1,2.78,2.78,0,0,0-.34,1.41v6.79Zm-3.89-12.73a1.17,1.17,0,0,1-.85-.33,1.07,1.07,0,0,1-.34-.81,1.1,1.1,0,0,1,.34-.8,1.21,1.21,0,0,1,.85-.33,1.15,1.15,0,0,1,.84.33,1.1,1.1,0,0,1,0,1.61,1.15,1.15,0,0,1-.84.35ZM34,256.86V246h1.67v10.89ZM24,250.3v6.56H22.34V246h1.59v1.7h.14a3,3,0,0,1,1.16-1.33,3.69,3.69,0,0,1,2-.51,4.1,4.1,0,0,1,1.94.45,3.14,3.14,0,0,1,1.29,1.36,5.11,5.11,0,0,1,.46,2.31v6.91H29.25v-6.8a2.75,2.75,0,0,0-.67-2,2.33,2.33,0,0,0-1.83-.73,3.12,3.12,0,0,0-1.44.35,2.53,2.53,0,0,0-1,1,3.23,3.23,0,0,0-.33,1.64Zm-5.57-6.17a1.2,1.2,0,0,1-.84-.33,1.1,1.1,0,0,1,0-1.61,1.25,1.25,0,0,1,.84-.33,1.15,1.15,0,0,1,.84.33,1.05,1.05,0,0,1,.36.8,1.08,1.08,0,0,1-.36.81,1.18,1.18,0,0,1-.87.35Zm-.88,12.73V246h1.68v10.89ZM0,242.31H2.1L7,254.39h.17l4.94-12.08h2.11v14.55H12.61v-11h-.14l-4.54,11H6.33l-4.54-11H1.64v11H0Z"/><path class="cls-2" d="M1096.69,85.55l-.31-.8L1065.85,5.1a7.88,7.88,0,0,0-3.13-3.78A8.26,8.26,0,0,0,1059.18,0a8.1,8.1,0,0,0-6.78,2.58,8.3,8.3,0,0,0-1.81,3.27L1030,69H946.61L926,5.93A8,8,0,0,0,918.68,0a8.16,8.16,0,0,0-4.78,1.25,8,8,0,0,0-3.14,3.78L880.24,84.75l-.31.8A56.71,56.71,0,0,0,898.73,151l.11.08.27.2,46.5,34.81,23,17.41,14,10.58a9.44,9.44,0,0,0,11.41,0l14-10.58,23-17.41,46.77-35,.13-.1a56.68,56.68,0,0,0,18.79-65.49Z"/><path class="cls-3" d="M1096.69,85.55l-.31-.8a103.22,103.22,0,0,0-41,18.45l-67,50.69c22.82,17.26,42.69,32.26,42.69,32.26l46.77-35,.13-.09a56.68,56.68,0,0,0,18.79-65.49Z"/><path class="cls-4" d="M945.61,186.15l23,17.41,14,10.58a9.42,9.42,0,0,0,11.4,0l14-10.58,23-17.41s-19.87-15-42.69-32.26Z"/><path class="cls-3" d="M921.27,103.2a103.1,103.1,0,0,0-41-18.45l-.31.8A56.68,56.68,0,0,0,898.73,151l.11.08.27.2,46.5,34.81s19.87-15,42.69-32.26Z"/><polygon class="cls-1" points="901.5 256.96 911.5 242.41 913.12 242.41 903.12 256.96 901.5 256.96"/><path class="cls-1" d="M906.32,243.68a2.53,2.53,0,0,0-.94-1.06,3.12,3.12,0,0,0-3.1,0,2.75,2.75,0,0,0-1,1.06,3.24,3.24,0,0,0-.32,1.46v.77l0,.05a3.18,3.18,0,0,0,.29,1.46,2.69,2.69,0,0,0,1,1.06,2.84,2.84,0,0,0,1.56.4,2.74,2.74,0,0,0,1.53-.4,2.5,2.5,0,0,0,1-1.06,3.19,3.19,0,0,0,.33-1.46v-.82A3.24,3.24,0,0,0,906.32,243.68ZM905.16,246a2.2,2.2,0,0,1-.31,1.18,1.11,1.11,0,0,1-1.05.52,1.14,1.14,0,0,1-1.08-.52,2.3,2.3,0,0,1-.32-1.18v-.82l0,0a2.25,2.25,0,0,1,.35-1.15,1.19,1.19,0,0,1,1.08-.53,1.12,1.12,0,0,1,1.06.53,2.23,2.23,0,0,1,.3,1.18Z"/><path class="cls-1" d="M913.57,252a2.5,2.5,0,0,0-.94-1.07,2.79,2.79,0,0,0-1.55-.4,2.92,2.92,0,0,0-1.55.4,2.71,2.71,0,0,0-1,1.07,3.31,3.31,0,0,0-.33,1.45v.77l0,0a3.25,3.25,0,0,0,.31,1.44,2.52,2.52,0,0,0,1,1.07,2.83,2.83,0,0,0,1.55.4,2.78,2.78,0,0,0,1.54-.4,2.52,2.52,0,0,0,1-1.07,3.18,3.18,0,0,0,.32-1.46v-.77A3.17,3.17,0,0,0,913.57,252Zm-1.22,2.22a2.25,2.25,0,0,1-.31,1.19,1.12,1.12,0,0,1-1,.51,1.17,1.17,0,0,1-1.08-.51,2.25,2.25,0,0,1-.31-1.19v-.77l0,0a2.3,2.3,0,0,1,.3-1.2,1.2,1.2,0,0,1,1.07-.52,1.14,1.14,0,0,1,1.07.52,2.32,2.32,0,0,1,.29,1.18Z"/><path class="cls-1" d="M897.48,245.66a5.35,5.35,0,0,0-1.73-2.56,4.62,4.62,0,0,0-5.45,0,5.5,5.5,0,0,0-1.73,2.56,13.87,13.87,0,0,0,0,8.07,5.42,5.42,0,0,0,1.73,2.55,4.27,4.27,0,0,0,2.73.88l0,0a4.27,4.27,0,0,0,2.76-1,5.28,5.28,0,0,0,1.73-2.55,11.81,11.81,0,0,0,.6-4A11.57,11.57,0,0,0,897.48,245.66Zm-2,8.4a2.73,2.73,0,0,1-2.47,1.53l0,0a2.56,2.56,0,0,1-1.78-.68,4.23,4.23,0,0,1-1.14-2,11.29,11.29,0,0,1-.4-3.22,8.85,8.85,0,0,1,.89-4.38,2.75,2.75,0,0,1,2.46-1.55,2.6,2.6,0,0,1,1.8.69,4.53,4.53,0,0,1,1.15,2,10.92,10.92,0,0,1,.4,3.21A8.84,8.84,0,0,1,895.5,254.06Z"/><path class="cls-1" d="M876.18,257v-1.28l4.8-5.26c.56-.61,1-1.15,1.39-1.6a6.37,6.37,0,0,0,.81-1.29,3.13,3.13,0,0,0,.27-1.28,2.26,2.26,0,0,0-.37-1.33,2.55,2.55,0,0,0-1-.87,3.49,3.49,0,0,0-1.43-.3,3,3,0,0,0-1.46.35,2.47,2.47,0,0,0-1,1,3.18,3.18,0,0,0-.33,1.45H876.2a4.32,4.32,0,0,1,.59-2.24,4.17,4.17,0,0,1,1.61-1.51,5,5,0,0,1,2.29-.54,4.72,4.72,0,0,1,2.27.54,4.1,4.1,0,0,1,1.55,1.46,3.85,3.85,0,0,1,.56,2,4.41,4.41,0,0,1-.29,1.57,6.85,6.85,0,0,1-1,1.69q-.71.93-1.95,2.28l-3.27,3.49v.12h6.76V257Z"/><rect class="cls-5" x="876.18" y="267.73" width="224.26" height="0.5"/><rect class="cls-5" y="267.73" width="220.09" height="0.5"/><rect class="cls-5" x="628.12" y="267.73" width="168.22" height="0.5"/></g></g></svg>