<svg xmlns="http://www.w3.org/2000/svg" id="Layer_2" data-name="Layer 2" viewBox="0 0 1002.02 398.96"><defs><style>.cls-1,.cls-2,.cls-3,.cls-4,.cls-5{stroke-width:0}.cls-2{fill:#a2a1a6}.cls-3{fill:#45424d}.cls-4{fill:#171321}.cls-5{fill:#74717a}</style></defs><g id="LOGO"><path d="M1000.02 75.09h2v-1h-2v1Zm-4 0h2v-1h-2v1Zm-4 0h2v-1h-2v1Zm-4 0h2v-1h-2v1Zm-4 0h2v-1h-2v1Zm-4 0h2v-1h-2v1Zm-4 0h2v-1h-2v1Zm-4 0h2v-1h-2v1Zm-4 0h2v-1h-2v1Zm-4 0h2v-1h-2v1Zm-4 0h2v-1h-2v1Zm-4 0h2v-1h-2v1Zm-4 0h2v-1h-2v1Zm-4 0h2v-1h-2v1Zm-4 0h2v-1h-2v1Zm-4 0h2v-1h-2v1Zm-4 0h2v-1h-2v1Zm-4 0h2v-1h-2v1Zm-4 0h2v-1h-2v1Zm-4 0h2v-1h-2v1Zm-4 0h2v-1h-2v1Zm-4 0h2v-1h-2v1Zm-4 0h2v-1h-2v1Zm-4 0h2v-1h-2v1Zm-4 0h2v-1h-2v1Zm-4 0h2v-1h-2v1Zm-4 0h2v-1h-2v1Zm-4 0h2v-1h-2v1Zm-4 0h2v-1h-2v1Zm-4 0h2v-1h-2v1Zm-4 0h2v-1h-2v1Zm-4 0h2v-1h-2v1Zm-4 0h2v-1h-2v1Zm-4 0h2v-1h-2v1Zm-4 0h2v-1h-2v1Zm-4 0h2v-1h-2v1Zm-4 0h2v-1h-2v1Zm-4 0h2v-1h-2v1Zm-4 0h2v-1h-2v1Zm-4 0h2v-1h-2v1Zm-4 0h2v-1h-2v1Zm-4 0h2v-1h-2v1Zm-4 0h2v-1h-2v1Zm-4 0h2v-1h-2v1Zm-4 0h2v-1h-2v1Zm-4 0h2v-1h-2v1Zm-4 0h2v-1h-2v1Zm-4 0h2v-1h-2v1Zm-4 0h2v-1h-2v1Zm-4 0h2v-1h-2v1Zm-4 0h2v-1h-2v1Zm-4 0h2v-1h-2v1Zm-4 0h2v-1h-2v1Zm-4 0h2v-1h-2v1Zm-4 0h2v-1h-2v1Zm-4 0h2v-1h-2v1Zm-4 0h2v-1h-2v1Zm-4 0h2v-1h-2v1Zm-4 0h2v-1h-2v1Zm-4 0h2v-1h-2v1Zm-4 0h2v-1h-2v1Zm-4 0h2v-1h-2v1Zm-4 0h2v-1h-2v1Zm-4 0h2v-1h-2v1Zm-4 0h2v-1h-2v1Zm-4 0h2v-1h-2v1Zm-4 0h2v-1h-2v1Zm-4 0h2v-1h-2v1Zm-4 0h2v-1h-2v1Zm-4 0h2v-1h-2v1Zm-4 0h2v-1h-2v1Zm-4 0h2v-1h-2v1Zm-4 0h2v-1h-2v1Zm-4 0h2v-1h-2v1Zm-4 0h2v-1h-2v1Zm-4 0h2v-1h-2v1Zm-4 0h2v-1h-2v1Zm-4 0h2v-1h-2v1Zm-4 0h2v-1h-2v1Zm-4 0h2v-1h-2v1Zm-4 0h2v-1h-2v1Zm-4 0h2v-1h-2v1Zm-4 0h2v-1h-2v1Zm-4 0h2v-1h-2v1Zm-4 0h2v-1h-2v1Zm-4 0h2v-1h-2v1Zm-4 0h2v-1h-2v1Zm-4 0h2v-1h-2v1Zm-4 0h2v-1h-2v1Zm-4 0h2v-1h-2v1Zm-4 0h2v-1h-2v1Zm-4 0h2v-1h-2v1Zm-4 0h2v-1h-2v1Zm-4 0h2v-1h-2v1Zm-4 0h2v-1h-2v1Zm-4 0h2v-1h-2v1Zm-4 0h2v-1h-2v1Zm-4 0h2v-1h-2v1Zm-4 0h2v-1h-2v1Zm-4 0h2v-1h-2v1Zm-4 0h2v-1h-2v1Zm-4 0h2v-1h-2v1Zm-4 0h2v-1h-2v1Zm-4 0h2v-1h-2v1Zm-4 0h2v-1h-2v1Zm-4 0h2v-1h-2v1Zm-4 0h2v-1h-2v1Zm-4 0h2v-1h-2v1Zm-4 0h2v-1h-2v1Zm-4 0h2v-1h-2v1Zm-4 0h2v-1h-2v1Zm-4 0h2v-1h-2v1Zm-4 0h2v-1h-2v1Zm-4 0h2v-1h-2v1Zm-4 0h2v-1h-2v1Zm-4 0h2v-1h-2v1Zm-4 0h2v-1h-2v1Zm-4 0h2v-1h-2v1Zm-4 0h2v-1h-2v1Zm-4 0h2v-1h-2v1Zm-4 0h2v-1h-2v1Zm-4 0h2v-1h-2v1Zm-4 0h2v-1h-2v1Zm-4 0h2v-1h-2v1Zm-4 0h2v-1h-2v1Zm-4 0h2v-1h-2v1Zm-4 0h2v-1h-2v1Zm-4 0h2v-1h-2v1Zm-4 0h2v-1h-2v1Zm-4 0h2v-1h-2v1Zm-4 0h2v-1h-2v1Zm-4 0h2v-1h-2v1Zm-4 0h2v-1h-2v1Zm-4 0h2v-1h-2v1Zm-4 0h2v-1h-2v1Zm-4 0h2v-1h-2v1Zm-4 0h2v-1h-2v1Zm-4 0h2v-1h-2v1Zm-4 0h2v-1h-2v1Zm-4 0h2v-1h-2v1Zm-4 0h2v-1h-2v1Zm-4 0h2v-1h-2v1Zm-4 0h2v-1h-2v1Zm-4 0h2v-1h-2v1Zm-4 0h2v-1h-2v1Zm-4 0h2v-1h-2v1Zm-4 0h2v-1h-2v1Zm-4 0h2v-1h-2v1Zm-4 0h2v-1h-2v1Zm-4 0h2v-1h-2v1Zm-4 0h2v-1h-2v1Zm-4 0h2v-1h-2v1Zm-4 0h2v-1h-2v1Zm-4 0h2v-1h-2v1Zm-4 0h2v-1h-2v1Zm-4 0h2v-1h-2v1Zm-4 0h2v-1h-2v1Zm-4 0h2v-1h-2v1Zm-4 0h2v-1h-2v1Zm-4 0h2v-1h-2v1Zm-4 0h2v-1h-2v1Zm-4 0h2v-1h-2v1Zm-4 0h2v-1h-2v1Zm-4 0h2v-1h-2v1Zm-4 0h2v-1h-2v1Zm-4 0h2v-1h-2v1Zm-4 0h2v-1h-2v1Zm-4 0h2v-1h-2v1Zm-4 0h2v-1h-2v1Zm-4 0h2v-1h-2v1Zm-4 0h2v-1h-2v1Zm-4 0h2v-1h-2v1Zm-4 0h2v-1h-2v1Zm-4 0h2v-1h-2v1Zm-4 0h2v-1h-2v1Zm-4 0h2v-1h-2v1Zm-4 0h2v-1h-2v1Zm-4 0h2v-1h-2v1Zm-4 0h2v-1h-2v1Zm-4 0h2v-1h-2v1Zm-4 0h2v-1h-2v1Zm-4 0h2v-1h-2v1Zm-4 0h2v-1h-2v1Zm-4 0h2v-1h-2v1Zm-4 0h2v-1h-2v1Zm-4 0h2v-1h-2v1Zm-4 0h2v-1h-2v1Zm-4 0h2v-1h-2v1Zm-4 0h2v-1h-2v1Zm-4 0h2v-1h-2v1Zm-4 0h2v-1h-2v1Zm-4 0h2v-1h-2v1Zm-4 0h2v-1h-2v1Zm-4 0h2v-1h-2v1Zm-4 0h2v-1h-2v1Zm-4 0h2v-1h-2v1Zm-4 0h2v-1h-2v1Zm-4 0h2v-1h-2v1Zm-4 0h2v-1h-2v1Zm16 0h2v-1h-2v1Zm-4 0h2v-1h-2v1Zm-4 0h2v-1h-2v1Zm-4 0h2v-1h-2v1Zm-4 0h2v-1h-2v1Zm-4 0h2v-1h-2v1Zm-4 0h2v-1h-2v1Zm-4 0h2v-1h-2v1Zm-4 0h2v-1h-2v1Zm-4 0h2v-1h-2v1Zm-4 0h2v-1h-2v1Zm-4 0h2v-1h-2v1Zm-4 0h2v-1h-2v1Zm-4 0h2v-1h-2v1Zm-4 0h2v-1h-2v1Zm-4 0h2v-1h-2v1Zm-4 0h2v-1h-2v1Zm-4 0h2v-1h-2v1Zm-4 0h2v-1h-2v1Zm-4 0h2v-1h-2v1Zm-4 0h2v-1h-2v1Zm-4 0h2v-1h-2v1Zm-4 0h2v-1h-2v1Zm-3 0h1v-1h-1v1ZM1000.02 166.09h2v-1h-2v1Zm-4 0h2v-1h-2v1Zm-4 0h2v-1h-2v1Zm-4 0h2v-1h-2v1Zm-4 0h2v-1h-2v1Zm-4 0h2v-1h-2v1Zm-4 0h2v-1h-2v1Zm-4 0h2v-1h-2v1Zm-4 0h2v-1h-2v1Zm-4 0h2v-1h-2v1Zm-4 0h2v-1h-2v1Zm-4 0h2v-1h-2v1Zm-4 0h2v-1h-2v1Zm-4 0h2v-1h-2v1Zm-4 0h2v-1h-2v1Zm-4 0h2v-1h-2v1Zm-4 0h2v-1h-2v1Zm-4 0h2v-1h-2v1Zm-4 0h2v-1h-2v1Zm-4 0h2v-1h-2v1Zm-4 0h2v-1h-2v1Zm-4 0h2v-1h-2v1Zm-4 0h2v-1h-2v1Zm-4 0h2v-1h-2v1Zm-4 0h2v-1h-2v1Zm-4 0h2v-1h-2v1Zm-4 0h2v-1h-2v1Zm-4 0h2v-1h-2v1Zm-4 0h2v-1h-2v1Zm-4 0h2v-1h-2v1Zm-4 0h2v-1h-2v1Zm-4 0h2v-1h-2v1Zm-4 0h2v-1h-2v1Zm-4 0h2v-1h-2v1Zm-4 0h2v-1h-2v1Zm-4 0h2v-1h-2v1Zm-4 0h2v-1h-2v1Zm-4 0h2v-1h-2v1Zm-4 0h2v-1h-2v1Zm-4 0h2v-1h-2v1Zm-4 0h2v-1h-2v1Zm-4 0h2v-1h-2v1Zm-4 0h2v-1h-2v1Zm-4 0h2v-1h-2v1Zm-4 0h2v-1h-2v1Zm-4 0h2v-1h-2v1Zm-4 0h2v-1h-2v1Zm-4 0h2v-1h-2v1Zm-4 0h2v-1h-2v1Zm-4 0h2v-1h-2v1Zm-4 0h2v-1h-2v1Zm-4 0h2v-1h-2v1Zm-4 0h2v-1h-2v1Zm-4 0h2v-1h-2v1Zm-4 0h2v-1h-2v1Zm-4 0h2v-1h-2v1Zm-4 0h2v-1h-2v1Zm-4 0h2v-1h-2v1Zm-4 0h2v-1h-2v1Zm-4 0h2v-1h-2v1Zm-4 0h2v-1h-2v1Zm-4 0h2v-1h-2v1Zm-4 0h2v-1h-2v1Zm-4 0h2v-1h-2v1Zm-4 0h2v-1h-2v1Zm-4 0h2v-1h-2v1Zm-4 0h2v-1h-2v1Zm-4 0h2v-1h-2v1Zm-4 0h2v-1h-2v1Zm-4 0h2v-1h-2v1Zm-4 0h2v-1h-2v1Zm-4 0h2v-1h-2v1Zm-4 0h2v-1h-2v1Zm-4 0h2v-1h-2v1Zm-4 0h2v-1h-2v1Zm-4 0h2v-1h-2v1Zm-4 0h2v-1h-2v1Zm-4 0h2v-1h-2v1Zm-4 0h2v-1h-2v1Zm-4 0h2v-1h-2v1Zm-4 0h2v-1h-2v1Zm-4 0h2v-1h-2v1Zm-4 0h2v-1h-2v1Zm-4 0h2v-1h-2v1Zm-4 0h2v-1h-2v1Zm-4 0h2v-1h-2v1Zm-4 0h2v-1h-2v1Zm-4 0h2v-1h-2v1Zm-4 0h2v-1h-2v1Zm-4 0h2v-1h-2v1Zm-4 0h2v-1h-2v1Zm-4 0h2v-1h-2v1Zm-4 0h2v-1h-2v1Zm-4 0h2v-1h-2v1Zm-4 0h2v-1h-2v1Zm-4 0h2v-1h-2v1Zm-4 0h2v-1h-2v1Zm-4 0h2v-1h-2v1Zm-4 0h2v-1h-2v1Zm-4 0h2v-1h-2v1Zm-4 0h2v-1h-2v1Zm-4 0h2v-1h-2v1Zm-4 0h2v-1h-2v1Zm-4 0h2v-1h-2v1Zm-4 0h2v-1h-2v1Zm-4 0h2v-1h-2v1Zm-4 0h2v-1h-2v1Zm-4 0h2v-1h-2v1Zm-4 0h2v-1h-2v1Zm-4 0h2v-1h-2v1Zm-4 0h2v-1h-2v1Zm-4 0h2v-1h-2v1Zm-4 0h2v-1h-2v1Zm-4 0h2v-1h-2v1Zm-4 0h2v-1h-2v1Zm-4 0h2v-1h-2v1Zm-4 0h2v-1h-2v1Zm-4 0h2v-1h-2v1Zm-4 0h2v-1h-2v1Zm-4 0h2v-1h-2v1Zm-4 0h2v-1h-2v1Zm-4 0h2v-1h-2v1Zm-4 0h2v-1h-2v1Zm-4 0h2v-1h-2v1Zm-4 0h2v-1h-2v1Zm-4 0h2v-1h-2v1Zm-4 0h2v-1h-2v1Zm-4 0h2v-1h-2v1Zm-4 0h2v-1h-2v1Zm-4 0h2v-1h-2v1Zm-4 0h2v-1h-2v1Zm-4 0h2v-1h-2v1Zm-4 0h2v-1h-2v1Zm-4 0h2v-1h-2v1Zm-4 0h2v-1h-2v1Zm-4 0h2v-1h-2v1Zm-4 0h2v-1h-2v1Zm-4 0h2v-1h-2v1Zm-4 0h2v-1h-2v1Zm-4 0h2v-1h-2v1Zm-4 0h2v-1h-2v1Zm-4 0h2v-1h-2v1Zm-4 0h2v-1h-2v1Zm-4 0h2v-1h-2v1Zm-4 0h2v-1h-2v1Zm-4 0h2v-1h-2v1Zm-4 0h2v-1h-2v1Zm-4 0h2v-1h-2v1Zm-4 0h2v-1h-2v1Zm-4 0h2v-1h-2v1Zm-4 0h2v-1h-2v1Zm-4 0h2v-1h-2v1Zm-4 0h2v-1h-2v1Zm-4 0h2v-1h-2v1Zm-4 0h2v-1h-2v1Zm-4 0h2v-1h-2v1Zm-4 0h2v-1h-2v1Zm-4 0h2v-1h-2v1Zm-4 0h2v-1h-2v1Zm-4 0h2v-1h-2v1Zm-4 0h2v-1h-2v1Zm-4 0h2v-1h-2v1Zm-4 0h2v-1h-2v1Zm-4 0h2v-1h-2v1Zm-4 0h2v-1h-2v1Zm-4 0h2v-1h-2v1Zm-4 0h2v-1h-2v1Zm-4 0h2v-1h-2v1Zm-4 0h2v-1h-2v1Zm-4 0h2v-1h-2v1Zm-4 0h2v-1h-2v1Zm-4 0h2v-1h-2v1Zm-4 0h2v-1h-2v1Zm-4 0h2v-1h-2v1Zm-4 0h2v-1h-2v1Zm-4 0h2v-1h-2v1Zm-4 0h2v-1h-2v1Zm-4 0h2v-1h-2v1Zm-4 0h2v-1h-2v1Zm-4 0h2v-1h-2v1Zm-4 0h2v-1h-2v1Zm-4 0h2v-1h-2v1Zm-4 0h2v-1h-2v1Zm-4 0h2v-1h-2v1Zm-4 0h2v-1h-2v1Zm-4 0h2v-1h-2v1Zm-4 0h2v-1h-2v1Zm-4 0h2v-1h-2v1Zm-4 0h2v-1h-2v1Zm-4 0h2v-1h-2v1Zm-4 0h2v-1h-2v1Zm-4 0h2v-1h-2v1Zm-4 0h2v-1h-2v1Zm-4 0h2v-1h-2v1Zm-4 0h2v-1h-2v1Zm-4 0h2v-1h-2v1Zm-4 0h2v-1h-2v1Zm-4 0h2v-1h-2v1Zm-4 0h2v-1h-2v1Zm16 0h2v-1h-2v1Zm-4 0h2v-1h-2v1Zm-4 0h2v-1h-2v1Zm-4 0h2v-1h-2v1Zm-4 0h2v-1h-2v1Zm-4 0h2v-1h-2v1Zm-4 0h2v-1h-2v1Zm-4 0h2v-1h-2v1Zm-4 0h2v-1h-2v1Zm-4 0h2v-1h-2v1Zm-4 0h2v-1h-2v1Zm-4 0h2v-1h-2v1Zm-4 0h2v-1h-2v1Zm-4 0h2v-1h-2v1Zm-4 0h2v-1h-2v1Zm-4 0h2v-1h-2v1Zm-4 0h2v-1h-2v1Zm-4 0h2v-1h-2v1Zm-4 0h2v-1h-2v1Zm-4 0h2v-1h-2v1Zm-4 0h2v-1h-2v1Zm-4 0h2v-1h-2v1Zm-4 0h2v-1h-2v1Zm-3 0h1v-1h-1v1ZM1000.02 257.09h2v-1h-2v1Zm-4 0h2v-1h-2v1Zm-4 0h2v-1h-2v1Zm-4 0h2v-1h-2v1Zm-4 0h2v-1h-2v1Zm-4 0h2v-1h-2v1Zm-4 0h2v-1h-2v1Zm-4 0h2v-1h-2v1Zm-4 0h2v-1h-2v1Zm-4 0h2v-1h-2v1Zm-4 0h2v-1h-2v1Zm-4 0h2v-1h-2v1Zm-4 0h2v-1h-2v1Zm-4 0h2v-1h-2v1Zm-4 0h2v-1h-2v1Zm-4 0h2v-1h-2v1Zm-4 0h2v-1h-2v1Zm-4 0h2v-1h-2v1Zm-4 0h2v-1h-2v1Zm-4 0h2v-1h-2v1Zm-4 0h2v-1h-2v1Zm-4 0h2v-1h-2v1Zm-4 0h2v-1h-2v1Zm-4 0h2v-1h-2v1Zm-4 0h2v-1h-2v1Zm-4 0h2v-1h-2v1Zm-4 0h2v-1h-2v1Zm-4 0h2v-1h-2v1Zm-4 0h2v-1h-2v1Zm-4 0h2v-1h-2v1Zm-4 0h2v-1h-2v1Zm-4 0h2v-1h-2v1Zm-4 0h2v-1h-2v1Zm-4 0h2v-1h-2v1Zm-4 0h2v-1h-2v1Zm-4 0h2v-1h-2v1Zm-4 0h2v-1h-2v1Zm-4 0h2v-1h-2v1Zm-4 0h2v-1h-2v1Zm-4 0h2v-1h-2v1Zm-4 0h2v-1h-2v1Zm-4 0h2v-1h-2v1Zm-4 0h2v-1h-2v1Zm-4 0h2v-1h-2v1Zm-4 0h2v-1h-2v1Zm-4 0h2v-1h-2v1Zm-4 0h2v-1h-2v1Zm-4 0h2v-1h-2v1Zm-4 0h2v-1h-2v1Zm-4 0h2v-1h-2v1Zm-4 0h2v-1h-2v1Zm-4 0h2v-1h-2v1Zm-4 0h2v-1h-2v1Zm-4 0h2v-1h-2v1Zm-4 0h2v-1h-2v1Zm-4 0h2v-1h-2v1Zm-4 0h2v-1h-2v1Zm-4 0h2v-1h-2v1Zm-4 0h2v-1h-2v1Zm-4 0h2v-1h-2v1Zm-4 0h2v-1h-2v1Zm-4 0h2v-1h-2v1Zm-4 0h2v-1h-2v1Zm-4 0h2v-1h-2v1Zm-4 0h2v-1h-2v1Zm-4 0h2v-1h-2v1Zm-4 0h2v-1h-2v1Zm-4 0h2v-1h-2v1Zm-4 0h2v-1h-2v1Zm-4 0h2v-1h-2v1Zm-4 0h2v-1h-2v1Zm-4 0h2v-1h-2v1Zm-4 0h2v-1h-2v1Zm-4 0h2v-1h-2v1Zm-4 0h2v-1h-2v1Zm-4 0h2v-1h-2v1Zm-4 0h2v-1h-2v1Zm-4 0h2v-1h-2v1Zm-4 0h2v-1h-2v1Zm-4 0h2v-1h-2v1Zm-4 0h2v-1h-2v1Zm-4 0h2v-1h-2v1Zm-4 0h2v-1h-2v1Zm-4 0h2v-1h-2v1Zm-4 0h2v-1h-2v1Zm-4 0h2v-1h-2v1Zm-4 0h2v-1h-2v1Zm-4 0h2v-1h-2v1Zm-4 0h2v-1h-2v1Zm-4 0h2v-1h-2v1Zm-4 0h2v-1h-2v1Zm-4 0h2v-1h-2v1Zm-4 0h2v-1h-2v1Zm-4 0h2v-1h-2v1Zm-4 0h2v-1h-2v1Zm-4 0h2v-1h-2v1Zm-4 0h2v-1h-2v1Zm-4 0h2v-1h-2v1Zm-4 0h2v-1h-2v1Zm-4 0h2v-1h-2v1Zm-4 0h2v-1h-2v1Zm-4 0h2v-1h-2v1Zm-4 0h2v-1h-2v1Zm-4 0h2v-1h-2v1Zm-4 0h2v-1h-2v1Zm-4 0h2v-1h-2v1Zm-4 0h2v-1h-2v1Zm-4 0h2v-1h-2v1Zm-4 0h2v-1h-2v1Zm-4 0h2v-1h-2v1Zm-4 0h2v-1h-2v1Zm-4 0h2v-1h-2v1Zm-4 0h2v-1h-2v1Zm-4 0h2v-1h-2v1Zm-4 0h2v-1h-2v1Zm-4 0h2v-1h-2v1Zm-4 0h2v-1h-2v1Zm-4 0h2v-1h-2v1Zm-4 0h2v-1h-2v1Zm-4 0h2v-1h-2v1Zm-4 0h2v-1h-2v1Zm-4 0h2v-1h-2v1Zm-4 0h2v-1h-2v1Zm-4 0h2v-1h-2v1Zm-4 0h2v-1h-2v1Zm-4 0h2v-1h-2v1Zm-4 0h2v-1h-2v1Zm-4 0h2v-1h-2v1Zm-4 0h2v-1h-2v1Zm-4 0h2v-1h-2v1Zm-4 0h2v-1h-2v1Zm-4 0h2v-1h-2v1Zm-4 0h2v-1h-2v1Zm-4 0h2v-1h-2v1Zm-4 0h2v-1h-2v1Zm-4 0h2v-1h-2v1Zm-4 0h2v-1h-2v1Zm-4 0h2v-1h-2v1Zm-4 0h2v-1h-2v1Zm-4 0h2v-1h-2v1Zm-4 0h2v-1h-2v1Zm-4 0h2v-1h-2v1Zm-4 0h2v-1h-2v1Zm-4 0h2v-1h-2v1Zm-4 0h2v-1h-2v1Zm-4 0h2v-1h-2v1Zm-4 0h2v-1h-2v1Zm-4 0h2v-1h-2v1Zm-4 0h2v-1h-2v1Zm-4 0h2v-1h-2v1Zm-4 0h2v-1h-2v1Zm-4 0h2v-1h-2v1Zm-4 0h2v-1h-2v1Zm-4 0h2v-1h-2v1Zm-4 0h2v-1h-2v1Zm-4 0h2v-1h-2v1Zm-4 0h2v-1h-2v1Zm-4 0h2v-1h-2v1Zm-4 0h2v-1h-2v1Zm-4 0h2v-1h-2v1Zm-4 0h2v-1h-2v1Zm-4 0h2v-1h-2v1Zm-4 0h2v-1h-2v1Zm-4 0h2v-1h-2v1Zm-4 0h2v-1h-2v1Zm-4 0h2v-1h-2v1Zm-4 0h2v-1h-2v1Zm-4 0h2v-1h-2v1Zm-4 0h2v-1h-2v1Zm-4 0h2v-1h-2v1Zm-4 0h2v-1h-2v1Zm-4 0h2v-1h-2v1Zm-4 0h2v-1h-2v1Zm-4 0h2v-1h-2v1Zm-4 0h2v-1h-2v1Zm-4 0h2v-1h-2v1Zm-4 0h2v-1h-2v1Zm-4 0h2v-1h-2v1Zm-4 0h2v-1h-2v1Zm-4 0h2v-1h-2v1Zm-4 0h2v-1h-2v1Zm-4 0h2v-1h-2v1Zm-4 0h2v-1h-2v1Zm-4 0h2v-1h-2v1Zm-4 0h2v-1h-2v1Zm-4 0h2v-1h-2v1Zm-4 0h2v-1h-2v1Zm-4 0h2v-1h-2v1Zm-4 0h2v-1h-2v1Zm-4 0h2v-1h-2v1Zm-4 0h2v-1h-2v1Zm-4 0h2v-1h-2v1Zm-4 0h2v-1h-2v1Zm-4 0h2v-1h-2v1Zm-4 0h2v-1h-2v1Zm-4 0h2v-1h-2v1Zm-4 0h2v-1h-2v1Zm-4 0h2v-1h-2v1Zm-4 0h2v-1h-2v1Zm16 0h2v-1h-2v1Zm-4 0h2v-1h-2v1Zm-4 0h2v-1h-2v1Zm-4 0h2v-1h-2v1Zm-4 0h2v-1h-2v1Zm-4 0h2v-1h-2v1Zm-4 0h2v-1h-2v1Zm-4 0h2v-1h-2v1Zm-4 0h2v-1h-2v1Zm-4 0h2v-1h-2v1Zm-4 0h2v-1h-2v1Zm-4 0h2v-1h-2v1Zm-4 0h2v-1h-2v1Zm-4 0h2v-1h-2v1Zm-4 0h2v-1h-2v1Zm-4 0h2v-1h-2v1Zm-4 0h2v-1h-2v1Zm-4 0h2v-1h-2v1Zm-4 0h2v-1h-2v1Zm-4 0h2v-1h-2v1Zm-4 0h2v-1h-2v1Zm-4 0h2v-1h-2v1Zm-4 0h2v-1h-2v1Zm-3 0h1v-1h-1v1ZM1000.02 93.09h2v-1h-2v1Zm-4 0h2v-1h-2v1Zm-4 0h2v-1h-2v1Zm-4 0h2v-1h-2v1Zm-4 0h2v-1h-2v1Zm-4 0h2v-1h-2v1Zm-4 0h2v-1h-2v1Zm-4 0h2v-1h-2v1Zm-4 0h2v-1h-2v1Zm-4 0h2v-1h-2v1Zm-4 0h2v-1h-2v1Zm-4 0h2v-1h-2v1Zm-4 0h2v-1h-2v1Zm-4 0h2v-1h-2v1Zm-4 0h2v-1h-2v1Zm-4 0h2v-1h-2v1Zm-4 0h2v-1h-2v1Zm-4 0h2v-1h-2v1Zm-4 0h2v-1h-2v1Zm-4 0h2v-1h-2v1Zm-4 0h2v-1h-2v1Zm-4 0h2v-1h-2v1Zm-4 0h2v-1h-2v1Zm-4 0h2v-1h-2v1Zm-4 0h2v-1h-2v1Zm-4 0h2v-1h-2v1Zm-4 0h2v-1h-2v1Zm-4 0h2v-1h-2v1Zm-4 0h2v-1h-2v1Zm-4 0h2v-1h-2v1Zm-4 0h2v-1h-2v1Zm-4 0h2v-1h-2v1Zm-4 0h2v-1h-2v1Zm-4 0h2v-1h-2v1Zm-4 0h2v-1h-2v1Zm-4 0h2v-1h-2v1Zm-4 0h2v-1h-2v1Zm-4 0h2v-1h-2v1Zm-4 0h2v-1h-2v1Zm-4 0h2v-1h-2v1Zm-4 0h2v-1h-2v1Zm-4 0h2v-1h-2v1Zm-4 0h2v-1h-2v1Zm-4 0h2v-1h-2v1Zm-4 0h2v-1h-2v1Zm-4 0h2v-1h-2v1Zm-4 0h2v-1h-2v1Zm-4 0h2v-1h-2v1Zm-4 0h2v-1h-2v1Zm-4 0h2v-1h-2v1Zm-4 0h2v-1h-2v1Zm-4 0h2v-1h-2v1Zm-4 0h2v-1h-2v1Zm-4 0h2v-1h-2v1Zm-4 0h2v-1h-2v1Zm-4 0h2v-1h-2v1Zm-4 0h2v-1h-2v1Zm-4 0h2v-1h-2v1Zm-4 0h2v-1h-2v1Zm-4 0h2v-1h-2v1Zm-4 0h2v-1h-2v1Zm-4 0h2v-1h-2v1Zm-4 0h2v-1h-2v1Zm-4 0h2v-1h-2v1Zm-4 0h2v-1h-2v1Zm-4 0h2v-1h-2v1Zm-4 0h2v-1h-2v1Zm-4 0h2v-1h-2v1Zm-4 0h2v-1h-2v1Zm-4 0h2v-1h-2v1Zm-4 0h2v-1h-2v1Zm-4 0h2v-1h-2v1Zm-4 0h2v-1h-2v1Zm-4 0h2v-1h-2v1Zm-4 0h2v-1h-2v1Zm-4 0h2v-1h-2v1Zm-4 0h2v-1h-2v1Zm-4 0h2v-1h-2v1Zm-4 0h2v-1h-2v1Zm-4 0h2v-1h-2v1Zm-4 0h2v-1h-2v1Zm-4 0h2v-1h-2v1Zm-4 0h2v-1h-2v1Zm-4 0h2v-1h-2v1Zm-4 0h2v-1h-2v1Zm-4 0h2v-1h-2v1Zm-4 0h2v-1h-2v1Zm-4 0h2v-1h-2v1Zm-4 0h2v-1h-2v1Zm-4 0h2v-1h-2v1Zm-4 0h2v-1h-2v1Zm-4 0h2v-1h-2v1Zm-4 0h2v-1h-2v1Zm-4 0h2v-1h-2v1Zm-4 0h2v-1h-2v1Zm-4 0h2v-1h-2v1Zm-4 0h2v-1h-2v1Zm-4 0h2v-1h-2v1Zm-4 0h2v-1h-2v1Zm-4 0h2v-1h-2v1Zm-4 0h2v-1h-2v1Zm-4 0h2v-1h-2v1Zm-4 0h2v-1h-2v1Zm-4 0h2v-1h-2v1Zm-4 0h2v-1h-2v1Zm-4 0h2v-1h-2v1Zm-4 0h2v-1h-2v1Zm-4 0h2v-1h-2v1Zm-4 0h2v-1h-2v1Zm-4 0h2v-1h-2v1Zm-4 0h2v-1h-2v1Zm-4 0h2v-1h-2v1Zm-4 0h2v-1h-2v1Zm-4 0h2v-1h-2v1Zm-4 0h2v-1h-2v1Zm-4 0h2v-1h-2v1Zm-4 0h2v-1h-2v1Zm-4 0h2v-1h-2v1Zm-4 0h2v-1h-2v1Zm-4 0h2v-1h-2v1Zm-4 0h2v-1h-2v1Zm-4 0h2v-1h-2v1Zm-4 0h2v-1h-2v1Zm-4 0h2v-1h-2v1Zm-4 0h2v-1h-2v1Zm-4 0h2v-1h-2v1Zm-4 0h2v-1h-2v1Zm-4 0h2v-1h-2v1Zm-4 0h2v-1h-2v1Zm-4 0h2v-1h-2v1Zm-4 0h2v-1h-2v1Zm-4 0h2v-1h-2v1Zm-4 0h2v-1h-2v1Zm-4 0h2v-1h-2v1Zm-4 0h2v-1h-2v1Zm-4 0h2v-1h-2v1Zm-4 0h2v-1h-2v1Zm-4 0h2v-1h-2v1Zm-4 0h2v-1h-2v1Zm-4 0h2v-1h-2v1Zm-4 0h2v-1h-2v1Zm-4 0h2v-1h-2v1Zm-4 0h2v-1h-2v1Zm-4 0h2v-1h-2v1Zm-4 0h2v-1h-2v1Zm-4 0h2v-1h-2v1Zm-4 0h2v-1h-2v1Zm-4 0h2v-1h-2v1Zm-4 0h2v-1h-2v1Zm-4 0h2v-1h-2v1Zm-4 0h2v-1h-2v1Zm-4 0h2v-1h-2v1Zm-4 0h2v-1h-2v1Zm-4 0h2v-1h-2v1Zm-4 0h2v-1h-2v1Zm-4 0h2v-1h-2v1Zm-4 0h2v-1h-2v1Zm-4 0h2v-1h-2v1Zm-4 0h2v-1h-2v1Zm-4 0h2v-1h-2v1Zm-4 0h2v-1h-2v1Zm-4 0h2v-1h-2v1Zm-4 0h2v-1h-2v1Zm-4 0h2v-1h-2v1Zm-4 0h2v-1h-2v1Zm-4 0h2v-1h-2v1Zm-4 0h2v-1h-2v1Zm-4 0h2v-1h-2v1Zm-4 0h2v-1h-2v1Zm-4 0h2v-1h-2v1Zm-4 0h2v-1h-2v1Zm-4 0h2v-1h-2v1Zm-4 0h2v-1h-2v1Zm-4 0h2v-1h-2v1Zm-4 0h2v-1h-2v1Zm-4 0h2v-1h-2v1Zm-4 0h2v-1h-2v1Zm-4 0h2v-1h-2v1Zm-4 0h2v-1h-2v1Zm-4 0h2v-1h-2v1Zm-4 0h2v-1h-2v1Zm-4 0h2v-1h-2v1Zm-4 0h2v-1h-2v1Zm-4 0h2v-1h-2v1Zm-4 0h2v-1h-2v1Zm-4 0h2v-1h-2v1Zm-4 0h2v-1h-2v1Zm-4 0h2v-1h-2v1Zm-4 0h2v-1h-2v1Zm-4 0h2v-1h-2v1Zm-4 0h2v-1h-2v1Zm-4 0h2v-1h-2v1Zm-4 0h2v-1h-2v1Zm-4 0h2v-1h-2v1Zm-4 0h2v-1h-2v1Zm-4 0h2v-1h-2v1Zm-4 0h2v-1h-2v1Zm-4 0h2v-1h-2v1Zm-4 0h2v-1h-2v1Zm16 0h2v-1h-2v1Zm-4 0h2v-1h-2v1Zm-4 0h2v-1h-2v1Zm-4 0h2v-1h-2v1Zm-4 0h2v-1h-2v1Zm-4 0h2v-1h-2v1Zm-4 0h2v-1h-2v1Zm-4 0h2v-1h-2v1Zm-4 0h2v-1h-2v1Zm-4 0h2v-1h-2v1Zm-4 0h2v-1h-2v1Zm-4 0h2v-1h-2v1Zm-4 0h2v-1h-2v1Zm-4 0h2v-1h-2v1Zm-4 0h2v-1h-2v1Zm-4 0h2v-1h-2v1Zm-4 0h2v-1h-2v1Zm-4 0h2v-1h-2v1Zm-4 0h2v-1h-2v1Zm-4 0h2v-1h-2v1Zm-4 0h2v-1h-2v1Zm-4 0h2v-1h-2v1Zm-4 0h2v-1h-2v1Zm-3 0h1v-1h-1v1ZM1000.02 184.09h2v-1h-2v1Zm-4 0h2v-1h-2v1Zm-4 0h2v-1h-2v1Zm-4 0h2v-1h-2v1Zm-4 0h2v-1h-2v1Zm-4 0h2v-1h-2v1Zm-4 0h2v-1h-2v1Zm-4 0h2v-1h-2v1Zm-4 0h2v-1h-2v1Zm-4 0h2v-1h-2v1Zm-4 0h2v-1h-2v1Zm-4 0h2v-1h-2v1Zm-4 0h2v-1h-2v1Zm-4 0h2v-1h-2v1Zm-4 0h2v-1h-2v1Zm-4 0h2v-1h-2v1Zm-4 0h2v-1h-2v1Zm-4 0h2v-1h-2v1Zm-4 0h2v-1h-2v1Zm-4 0h2v-1h-2v1Zm-4 0h2v-1h-2v1Zm-4 0h2v-1h-2v1Zm-4 0h2v-1h-2v1Zm-4 0h2v-1h-2v1Zm-4 0h2v-1h-2v1Zm-4 0h2v-1h-2v1Zm-4 0h2v-1h-2v1Zm-4 0h2v-1h-2v1Zm-4 0h2v-1h-2v1Zm-4 0h2v-1h-2v1Zm-4 0h2v-1h-2v1Zm-4 0h2v-1h-2v1Zm-4 0h2v-1h-2v1Zm-4 0h2v-1h-2v1Zm-4 0h2v-1h-2v1Zm-4 0h2v-1h-2v1Zm-4 0h2v-1h-2v1Zm-4 0h2v-1h-2v1Zm-4 0h2v-1h-2v1Zm-4 0h2v-1h-2v1Zm-4 0h2v-1h-2v1Zm-4 0h2v-1h-2v1Zm-4 0h2v-1h-2v1Zm-4 0h2v-1h-2v1Zm-4 0h2v-1h-2v1Zm-4 0h2v-1h-2v1Zm-4 0h2v-1h-2v1Zm-4 0h2v-1h-2v1Zm-4 0h2v-1h-2v1Zm-4 0h2v-1h-2v1Zm-4 0h2v-1h-2v1Zm-4 0h2v-1h-2v1Zm-4 0h2v-1h-2v1Zm-4 0h2v-1h-2v1Zm-4 0h2v-1h-2v1Zm-4 0h2v-1h-2v1Zm-4 0h2v-1h-2v1Zm-4 0h2v-1h-2v1Zm-4 0h2v-1h-2v1Zm-4 0h2v-1h-2v1Zm-4 0h2v-1h-2v1Zm-4 0h2v-1h-2v1Zm-4 0h2v-1h-2v1Zm-4 0h2v-1h-2v1Zm-4 0h2v-1h-2v1Zm-4 0h2v-1h-2v1Zm-4 0h2v-1h-2v1Zm-4 0h2v-1h-2v1Zm-4 0h2v-1h-2v1Zm-4 0h2v-1h-2v1Zm-4 0h2v-1h-2v1Zm-4 0h2v-1h-2v1Zm-4 0h2v-1h-2v1Zm-4 0h2v-1h-2v1Zm-4 0h2v-1h-2v1Zm-4 0h2v-1h-2v1Zm-4 0h2v-1h-2v1Zm-4 0h2v-1h-2v1Zm-4 0h2v-1h-2v1Zm-4 0h2v-1h-2v1Zm-4 0h2v-1h-2v1Zm-4 0h2v-1h-2v1Zm-4 0h2v-1h-2v1Zm-4 0h2v-1h-2v1Zm-4 0h2v-1h-2v1Zm-4 0h2v-1h-2v1Zm-4 0h2v-1h-2v1Zm-4 0h2v-1h-2v1Zm-4 0h2v-1h-2v1Zm-4 0h2v-1h-2v1Zm-4 0h2v-1h-2v1Zm-4 0h2v-1h-2v1Zm-4 0h2v-1h-2v1Zm-4 0h2v-1h-2v1Zm-4 0h2v-1h-2v1Zm-4 0h2v-1h-2v1Zm-4 0h2v-1h-2v1Zm-4 0h2v-1h-2v1Zm-4 0h2v-1h-2v1Zm-4 0h2v-1h-2v1Zm-4 0h2v-1h-2v1Zm-4 0h2v-1h-2v1Zm-4 0h2v-1h-2v1Zm-4 0h2v-1h-2v1Zm-4 0h2v-1h-2v1Zm-4 0h2v-1h-2v1Zm-4 0h2v-1h-2v1Zm-4 0h2v-1h-2v1Zm-4 0h2v-1h-2v1Zm-4 0h2v-1h-2v1Zm-4 0h2v-1h-2v1Zm-4 0h2v-1h-2v1Zm-4 0h2v-1h-2v1Zm-4 0h2v-1h-2v1Zm-4 0h2v-1h-2v1Zm-4 0h2v-1h-2v1Zm-4 0h2v-1h-2v1Zm-4 0h2v-1h-2v1Zm-4 0h2v-1h-2v1Zm-4 0h2v-1h-2v1Zm-4 0h2v-1h-2v1Zm-4 0h2v-1h-2v1Zm-4 0h2v-1h-2v1Zm-4 0h2v-1h-2v1Zm-4 0h2v-1h-2v1Zm-4 0h2v-1h-2v1Zm-4 0h2v-1h-2v1Zm-4 0h2v-1h-2v1Zm-4 0h2v-1h-2v1Zm-4 0h2v-1h-2v1Zm-4 0h2v-1h-2v1Zm-4 0h2v-1h-2v1Zm-4 0h2v-1h-2v1Zm-4 0h2v-1h-2v1Zm-4 0h2v-1h-2v1Zm-4 0h2v-1h-2v1Zm-4 0h2v-1h-2v1Zm-4 0h2v-1h-2v1Zm-4 0h2v-1h-2v1Zm-4 0h2v-1h-2v1Zm-4 0h2v-1h-2v1Zm-4 0h2v-1h-2v1Zm-4 0h2v-1h-2v1Zm-4 0h2v-1h-2v1Zm-4 0h2v-1h-2v1Zm-4 0h2v-1h-2v1Zm-4 0h2v-1h-2v1Zm-4 0h2v-1h-2v1Zm-4 0h2v-1h-2v1Zm-4 0h2v-1h-2v1Zm-4 0h2v-1h-2v1Zm-4 0h2v-1h-2v1Zm-4 0h2v-1h-2v1Zm-4 0h2v-1h-2v1Zm-4 0h2v-1h-2v1Zm-4 0h2v-1h-2v1Zm-4 0h2v-1h-2v1Zm-4 0h2v-1h-2v1Zm-4 0h2v-1h-2v1Zm-4 0h2v-1h-2v1Zm-4 0h2v-1h-2v1Zm-4 0h2v-1h-2v1Zm-4 0h2v-1h-2v1Zm-4 0h2v-1h-2v1Zm-4 0h2v-1h-2v1Zm-4 0h2v-1h-2v1Zm-4 0h2v-1h-2v1Zm-4 0h2v-1h-2v1Zm-4 0h2v-1h-2v1Zm-4 0h2v-1h-2v1Zm-4 0h2v-1h-2v1Zm-4 0h2v-1h-2v1Zm-4 0h2v-1h-2v1Zm-4 0h2v-1h-2v1Zm-4 0h2v-1h-2v1Zm-4 0h2v-1h-2v1Zm-4 0h2v-1h-2v1Zm-4 0h2v-1h-2v1Zm-4 0h2v-1h-2v1Zm-4 0h2v-1h-2v1Zm-4 0h2v-1h-2v1Zm-4 0h2v-1h-2v1Zm-4 0h2v-1h-2v1Zm-4 0h2v-1h-2v1Zm-4 0h2v-1h-2v1Zm-4 0h2v-1h-2v1Zm-4 0h2v-1h-2v1Zm-4 0h2v-1h-2v1Zm-4 0h2v-1h-2v1Zm-4 0h2v-1h-2v1Zm-4 0h2v-1h-2v1Zm-4 0h2v-1h-2v1Zm-4 0h2v-1h-2v1Zm-4 0h2v-1h-2v1Zm-4 0h2v-1h-2v1Zm-4 0h2v-1h-2v1Zm-4 0h2v-1h-2v1Zm-4 0h2v-1h-2v1Zm-4 0h2v-1h-2v1Zm16 0h2v-1h-2v1Zm-4 0h2v-1h-2v1Zm-4 0h2v-1h-2v1Zm-4 0h2v-1h-2v1Zm-4 0h2v-1h-2v1Zm-4 0h2v-1h-2v1Zm-4 0h2v-1h-2v1Zm-4 0h2v-1h-2v1Zm-4 0h2v-1h-2v1Zm-4 0h2v-1h-2v1Zm-4 0h2v-1h-2v1Zm-4 0h2v-1h-2v1Zm-4 0h2v-1h-2v1Zm-4 0h2v-1h-2v1Zm-4 0h2v-1h-2v1Zm-4 0h2v-1h-2v1Zm-4 0h2v-1h-2v1Zm-4 0h2v-1h-2v1Zm-4 0h2v-1h-2v1Zm-4 0h2v-1h-2v1Zm-4 0h2v-1h-2v1Zm-4 0h2v-1h-2v1Zm-4 0h2v-1h-2v1Zm-3 0h1v-1h-1v1ZM1000.02 275.09h2v-1h-2v1Zm-4 0h2v-1h-2v1Zm-4 0h2v-1h-2v1Zm-4 0h2v-1h-2v1Zm-4 0h2v-1h-2v1Zm-4 0h2v-1h-2v1Zm-4 0h2v-1h-2v1Zm-4 0h2v-1h-2v1Zm-4 0h2v-1h-2v1Zm-4 0h2v-1h-2v1Zm-4 0h2v-1h-2v1Zm-4 0h2v-1h-2v1Zm-4 0h2v-1h-2v1Zm-4 0h2v-1h-2v1Zm-4 0h2v-1h-2v1Zm-4 0h2v-1h-2v1Zm-4 0h2v-1h-2v1Zm-4 0h2v-1h-2v1Zm-4 0h2v-1h-2v1Zm-4 0h2v-1h-2v1Zm-4 0h2v-1h-2v1Zm-4 0h2v-1h-2v1Zm-4 0h2v-1h-2v1Zm-4 0h2v-1h-2v1Zm-4 0h2v-1h-2v1Zm-4 0h2v-1h-2v1Zm-4 0h2v-1h-2v1Zm-4 0h2v-1h-2v1Zm-4 0h2v-1h-2v1Zm-4 0h2v-1h-2v1Zm-4 0h2v-1h-2v1Zm-4 0h2v-1h-2v1Zm-4 0h2v-1h-2v1Zm-4 0h2v-1h-2v1Zm-4 0h2v-1h-2v1Zm-4 0h2v-1h-2v1Zm-4 0h2v-1h-2v1Zm-4 0h2v-1h-2v1Zm-4 0h2v-1h-2v1Zm-4 0h2v-1h-2v1Zm-4 0h2v-1h-2v1Zm-4 0h2v-1h-2v1Zm-4 0h2v-1h-2v1Zm-4 0h2v-1h-2v1Zm-4 0h2v-1h-2v1Zm-4 0h2v-1h-2v1Zm-4 0h2v-1h-2v1Zm-4 0h2v-1h-2v1Zm-4 0h2v-1h-2v1Zm-4 0h2v-1h-2v1Zm-4 0h2v-1h-2v1Zm-4 0h2v-1h-2v1Zm-4 0h2v-1h-2v1Zm-4 0h2v-1h-2v1Zm-4 0h2v-1h-2v1Zm-4 0h2v-1h-2v1Zm-4 0h2v-1h-2v1Zm-4 0h2v-1h-2v1Zm-4 0h2v-1h-2v1Zm-4 0h2v-1h-2v1Zm-4 0h2v-1h-2v1Zm-4 0h2v-1h-2v1Zm-4 0h2v-1h-2v1Zm-4 0h2v-1h-2v1Zm-4 0h2v-1h-2v1Zm-4 0h2v-1h-2v1Zm-4 0h2v-1h-2v1Zm-4 0h2v-1h-2v1Zm-4 0h2v-1h-2v1Zm-4 0h2v-1h-2v1Zm-4 0h2v-1h-2v1Zm-4 0h2v-1h-2v1Zm-4 0h2v-1h-2v1Zm-4 0h2v-1h-2v1Zm-4 0h2v-1h-2v1Zm-4 0h2v-1h-2v1Zm-4 0h2v-1h-2v1Zm-4 0h2v-1h-2v1Zm-4 0h2v-1h-2v1Zm-4 0h2v-1h-2v1Zm-4 0h2v-1h-2v1Zm-4 0h2v-1h-2v1Zm-4 0h2v-1h-2v1Zm-4 0h2v-1h-2v1Zm-4 0h2v-1h-2v1Zm-4 0h2v-1h-2v1Zm-4 0h2v-1h-2v1Zm-4 0h2v-1h-2v1Zm-4 0h2v-1h-2v1Zm-4 0h2v-1h-2v1Zm-4 0h2v-1h-2v1Zm-4 0h2v-1h-2v1Zm-4 0h2v-1h-2v1Zm-4 0h2v-1h-2v1Zm-4 0h2v-1h-2v1Zm-4 0h2v-1h-2v1Zm-4 0h2v-1h-2v1Zm-4 0h2v-1h-2v1Zm-4 0h2v-1h-2v1Zm-4 0h2v-1h-2v1Zm-4 0h2v-1h-2v1Zm-4 0h2v-1h-2v1Zm-4 0h2v-1h-2v1Zm-4 0h2v-1h-2v1Zm-4 0h2v-1h-2v1Zm-4 0h2v-1h-2v1Zm-4 0h2v-1h-2v1Zm-4 0h2v-1h-2v1Zm-4 0h2v-1h-2v1Zm-4 0h2v-1h-2v1Zm-4 0h2v-1h-2v1Zm-4 0h2v-1h-2v1Zm-4 0h2v-1h-2v1Zm-4 0h2v-1h-2v1Zm-4 0h2v-1h-2v1Zm-4 0h2v-1h-2v1Zm-4 0h2v-1h-2v1Zm-4 0h2v-1h-2v1Zm-4 0h2v-1h-2v1Zm-4 0h2v-1h-2v1Zm-4 0h2v-1h-2v1Zm-4 0h2v-1h-2v1Zm-4 0h2v-1h-2v1Zm-4 0h2v-1h-2v1Zm-4 0h2v-1h-2v1Zm-4 0h2v-1h-2v1Zm-4 0h2v-1h-2v1Zm-4 0h2v-1h-2v1Zm-4 0h2v-1h-2v1Zm-4 0h2v-1h-2v1Zm-4 0h2v-1h-2v1Zm-4 0h2v-1h-2v1Zm-4 0h2v-1h-2v1Zm-4 0h2v-1h-2v1Zm-4 0h2v-1h-2v1Zm-4 0h2v-1h-2v1Zm-4 0h2v-1h-2v1Zm-4 0h2v-1h-2v1Zm-4 0h2v-1h-2v1Zm-4 0h2v-1h-2v1Zm-4 0h2v-1h-2v1Zm-4 0h2v-1h-2v1Zm-4 0h2v-1h-2v1Zm-4 0h2v-1h-2v1Zm-4 0h2v-1h-2v1Zm-4 0h2v-1h-2v1Zm-4 0h2v-1h-2v1Zm-4 0h2v-1h-2v1Zm-4 0h2v-1h-2v1Zm-4 0h2v-1h-2v1Zm-4 0h2v-1h-2v1Zm-4 0h2v-1h-2v1Zm-4 0h2v-1h-2v1Zm-4 0h2v-1h-2v1Zm-4 0h2v-1h-2v1Zm-4 0h2v-1h-2v1Zm-4 0h2v-1h-2v1Zm-4 0h2v-1h-2v1Zm-4 0h2v-1h-2v1Zm-4 0h2v-1h-2v1Zm-4 0h2v-1h-2v1Zm-4 0h2v-1h-2v1Zm-4 0h2v-1h-2v1Zm-4 0h2v-1h-2v1Zm-4 0h2v-1h-2v1Zm-4 0h2v-1h-2v1Zm-4 0h2v-1h-2v1Zm-4 0h2v-1h-2v1Zm-4 0h2v-1h-2v1Zm-4 0h2v-1h-2v1Zm-4 0h2v-1h-2v1Zm-4 0h2v-1h-2v1Zm-4 0h2v-1h-2v1Zm-4 0h2v-1h-2v1Zm-4 0h2v-1h-2v1Zm-4 0h2v-1h-2v1Zm-4 0h2v-1h-2v1Zm-4 0h2v-1h-2v1Zm-4 0h2v-1h-2v1Zm-4 0h2v-1h-2v1Zm-4 0h2v-1h-2v1Zm-4 0h2v-1h-2v1Zm-4 0h2v-1h-2v1Zm-4 0h2v-1h-2v1Zm-4 0h2v-1h-2v1Zm-4 0h2v-1h-2v1Zm-4 0h2v-1h-2v1Zm-4 0h2v-1h-2v1Zm-4 0h2v-1h-2v1Zm-4 0h2v-1h-2v1Zm-4 0h2v-1h-2v1Zm-4 0h2v-1h-2v1Zm-4 0h2v-1h-2v1Zm-4 0h2v-1h-2v1Zm-4 0h2v-1h-2v1Zm-4 0h2v-1h-2v1Zm-4 0h2v-1h-2v1Zm-4 0h2v-1h-2v1Zm-4 0h2v-1h-2v1Zm16 0h2v-1h-2v1Zm-4 0h2v-1h-2v1Zm-4 0h2v-1h-2v1Zm-4 0h2v-1h-2v1Zm-4 0h2v-1h-2v1Zm-4 0h2v-1h-2v1Zm-4 0h2v-1h-2v1Zm-4 0h2v-1h-2v1Zm-4 0h2v-1h-2v1Zm-4 0h2v-1h-2v1Zm-4 0h2v-1h-2v1Zm-4 0h2v-1h-2v1Zm-4 0h2v-1h-2v1Zm-4 0h2v-1h-2v1Zm-4 0h2v-1h-2v1Zm-4 0h2v-1h-2v1Zm-4 0h2v-1h-2v1Zm-4 0h2v-1h-2v1Zm-4 0h2v-1h-2v1Zm-4 0h2v-1h-2v1Zm-4 0h2v-1h-2v1Zm-4 0h2v-1h-2v1Zm-4 0h2v-1h-2v1Zm-3 0h1v-1h-1v1Z" class="cls-1"/><path d="M133.02 75.09h2v-1h-2v1Zm0 18h2v-1h-2v1Zm-.5-18.5v18h1v-18h-1Zm.5 18h-.5v.5h.5v-.5Zm0-18v-.5h-.5v.5h.5ZM133.02 166.09h2v-1h-2v1Zm0 18h2v-1h-2v1Zm-.5-18.5v18h1v-18h-1Zm.5 18h-.5v.5h.5v-.5Zm0-18v-.5h-.5v.5h.5ZM133.02 257.09h2v-1h-2v1Zm0 18h2v-1h-2v1Zm-.5-18.5v18h1v-18h-1Zm.5 18h-.5v.5h.5v-.5Zm0-18v-.5h-.5v.5h.5ZM69.05 347.08h26v1h-26zM101.05 348.08h2v-1h-2v1Zm0 24h2v-1h-2v1Zm-.5-24.5v24h1v-24h-1Zm.5 24h-.5v.5h.5v-.5Zm0-24v-.5h-.5v.5h.5Z" class="cls-1"/><path d="M133.05 275.08h2v-1h-2v1Zm0 97h2v-1h-2v1Zm-.5-97.5v97h1v-97h-1Zm.5 97h-.5v.5h.5v-.5Zm0-97v-.5h-.5v.5h.5Z" class="cls-1"/><path d="M1000.02 372.08h2v-1h-2v1Zm-4 0h2v-1h-2v1Zm-4 0h2v-1h-2v1Zm-4 0h2v-1h-2v1Zm-4 0h2v-1h-2v1Zm-4 0h2v-1h-2v1Zm-4 0h2v-1h-2v1Zm-4 0h2v-1h-2v1Zm-4 0h2v-1h-2v1Zm-4 0h2v-1h-2v1Zm-4 0h2v-1h-2v1Zm-4 0h2v-1h-2v1Zm-4 0h2v-1h-2v1Zm-4 0h2v-1h-2v1Zm-4 0h2v-1h-2v1Zm-4 0h2v-1h-2v1Zm-4 0h2v-1h-2v1Zm-4 0h2v-1h-2v1Zm-4 0h2v-1h-2v1Zm-4 0h2v-1h-2v1Zm-4 0h2v-1h-2v1Zm-4 0h2v-1h-2v1Zm-4 0h2v-1h-2v1Zm-4 0h2v-1h-2v1Zm-4 0h2v-1h-2v1Zm-4 0h2v-1h-2v1Zm-4 0h2v-1h-2v1Zm-4 0h2v-1h-2v1Zm-4 0h2v-1h-2v1Zm-4 0h2v-1h-2v1Zm-4 0h2v-1h-2v1Zm-4 0h2v-1h-2v1Zm-4 0h2v-1h-2v1Zm-4 0h2v-1h-2v1Zm-4 0h2v-1h-2v1Zm-4 0h2v-1h-2v1Zm-4 0h2v-1h-2v1Zm-4 0h2v-1h-2v1Zm-4 0h2v-1h-2v1Zm-4 0h2v-1h-2v1Zm-4 0h2v-1h-2v1Zm-4 0h2v-1h-2v1Zm-4 0h2v-1h-2v1Zm-4 0h2v-1h-2v1Zm-4 0h2v-1h-2v1Zm-4 0h2v-1h-2v1Zm-4 0h2v-1h-2v1Zm-4 0h2v-1h-2v1Zm-4 0h2v-1h-2v1Zm-4 0h2v-1h-2v1Zm-4 0h2v-1h-2v1Zm-4 0h2v-1h-2v1Zm-4 0h2v-1h-2v1Zm-4 0h2v-1h-2v1Zm-4 0h2v-1h-2v1Zm-4 0h2v-1h-2v1Zm-4 0h2v-1h-2v1Zm-4 0h2v-1h-2v1Zm-4 0h2v-1h-2v1Zm-4 0h2v-1h-2v1Zm-4 0h2v-1h-2v1Zm-4 0h2v-1h-2v1Zm-4 0h2v-1h-2v1Zm-4 0h2v-1h-2v1Zm-4 0h2v-1h-2v1Zm-4 0h2v-1h-2v1Zm-4 0h2v-1h-2v1Zm-4 0h2v-1h-2v1Zm-4 0h2v-1h-2v1Zm-4 0h2v-1h-2v1Zm-4 0h2v-1h-2v1Zm-4 0h2v-1h-2v1Zm-4 0h2v-1h-2v1Zm-4 0h2v-1h-2v1Zm-4 0h2v-1h-2v1Zm-4 0h2v-1h-2v1Zm-4 0h2v-1h-2v1Zm-4 0h2v-1h-2v1Zm-4 0h2v-1h-2v1Zm-4 0h2v-1h-2v1Zm-4 0h2v-1h-2v1Zm-4 0h2v-1h-2v1Zm-4 0h2v-1h-2v1Zm-4 0h2v-1h-2v1Zm-4 0h2v-1h-2v1Zm-4 0h2v-1h-2v1Zm-4 0h2v-1h-2v1Zm-4 0h2v-1h-2v1Zm-4 0h2v-1h-2v1Zm-4 0h2v-1h-2v1Zm-4 0h2v-1h-2v1Zm-4 0h2v-1h-2v1Zm-4 0h2v-1h-2v1Zm-4 0h2v-1h-2v1Zm-4 0h2v-1h-2v1Zm-4 0h2v-1h-2v1Zm-4 0h2v-1h-2v1Zm-4 0h2v-1h-2v1Zm-4 0h2v-1h-2v1Zm-4 0h2v-1h-2v1Zm-4 0h2v-1h-2v1Zm-4 0h2v-1h-2v1Zm-4 0h2v-1h-2v1Zm-4 0h2v-1h-2v1Zm-4 0h2v-1h-2v1Zm-4 0h2v-1h-2v1Zm-4 0h2v-1h-2v1Zm-4 0h2v-1h-2v1Zm-4 0h2v-1h-2v1Zm-4 0h2v-1h-2v1Zm-4 0h2v-1h-2v1Zm-4 0h2v-1h-2v1Zm-4 0h2v-1h-2v1Zm-4 0h2v-1h-2v1Zm-4 0h2v-1h-2v1Zm-4 0h2v-1h-2v1Zm-4 0h2v-1h-2v1Zm-4 0h2v-1h-2v1Zm-4 0h2v-1h-2v1Zm-4 0h2v-1h-2v1Zm-4 0h2v-1h-2v1Zm-4 0h2v-1h-2v1Zm-4 0h2v-1h-2v1Zm-4 0h2v-1h-2v1Zm-4 0h2v-1h-2v1Zm-4 0h2v-1h-2v1Zm-4 0h2v-1h-2v1Zm-4 0h2v-1h-2v1Zm-4 0h2v-1h-2v1Zm-4 0h2v-1h-2v1Zm-4 0h2v-1h-2v1Zm-4 0h2v-1h-2v1Zm-4 0h2v-1h-2v1Zm-4 0h2v-1h-2v1Zm-4 0h2v-1h-2v1Zm-4 0h2v-1h-2v1Zm-4 0h2v-1h-2v1Zm-4 0h2v-1h-2v1Zm-4 0h2v-1h-2v1Zm-4 0h2v-1h-2v1Zm-4 0h2v-1h-2v1Zm-4 0h2v-1h-2v1Zm-4 0h2v-1h-2v1Zm-4 0h2v-1h-2v1Zm-4 0h2v-1h-2v1Zm-4 0h2v-1h-2v1Zm-4 0h2v-1h-2v1Zm-4 0h2v-1h-2v1Zm-4 0h2v-1h-2v1Zm-4 0h2v-1h-2v1Zm-4 0h2v-1h-2v1Zm-4 0h2v-1h-2v1Zm-4 0h2v-1h-2v1Zm-4 0h2v-1h-2v1Zm-4 0h2v-1h-2v1Zm-4 0h2v-1h-2v1Zm-4 0h2v-1h-2v1Zm-4 0h2v-1h-2v1Zm-4 0h2v-1h-2v1Zm-4 0h2v-1h-2v1Zm-4 0h2v-1h-2v1Zm-4 0h2v-1h-2v1Zm-4 0h2v-1h-2v1Zm-4 0h2v-1h-2v1Zm-4 0h2v-1h-2v1Zm-4 0h2v-1h-2v1Zm-4 0h2v-1h-2v1Zm-4 0h2v-1h-2v1Zm-4 0h2v-1h-2v1Zm-4 0h2v-1h-2v1Zm-4 0h2v-1h-2v1Zm-4 0h2v-1h-2v1Zm-4 0h2v-1h-2v1Zm-4 0h2v-1h-2v1Zm-4 0h2v-1h-2v1Zm-4 0h2v-1h-2v1Zm-4 0h2v-1h-2v1Zm-4 0h2v-1h-2v1Zm-4 0h2v-1h-2v1Zm-4 0h2v-1h-2v1Zm-4 0h2v-1h-2v1Zm-4 0h2v-1h-2v1Zm-4 0h2v-1h-2v1Zm-4 0h2v-1h-2v1Zm-4 0h2v-1h-2v1Zm-4 0h2v-1h-2v1Zm-4 0h2v-1h-2v1Zm-4 0h2v-1h-2v1Zm-4 0h2v-1h-2v1Zm-4 0h2v-1h-2v1Zm-4 0h2v-1h-2v1Zm-4 0h2v-1h-2v1Zm-4 0h2v-1h-2v1Zm-4 0h2v-1h-2v1Zm-4 0h2v-1h-2v1Zm-4 0h2v-1h-2v1Zm-4 0h2v-1h-2v1Zm-4 0h2v-1h-2v1Zm-4 0h2v-1h-2v1Zm16 0h2v-1h-2v1Zm-4 0h2v-1h-2v1Zm-4 0h2v-1h-2v1Zm-4 0h2v-1h-2v1Zm-4 0h2v-1h-2v1Zm-4 0h2v-1h-2v1Zm-4 0h2v-1h-2v1Zm-4 0h2v-1h-2v1Zm-4 0h2v-1h-2v1Zm-4 0h2v-1h-2v1Zm-4 0h2v-1h-2v1Zm-4 0h2v-1h-2v1Zm-4 0h2v-1h-2v1Zm-4 0h2v-1h-2v1Zm-4 0h2v-1h-2v1Zm-4 0h2v-1h-2v1Zm-4 0h2v-1h-2v1Zm-4 0h2v-1h-2v1Zm-4 0h2v-1h-2v1Zm-4 0h2v-1h-2v1Zm-4 0h2v-1h-2v1Zm-4 0h2v-1h-2v1Zm-4 0h2v-1h-2v1Zm-3 0h1v-1h-1v1ZM1000.02 348.08h2v-1h-2v1Zm-4 0h2v-1h-2v1Zm-4 0h2v-1h-2v1Zm-4 0h2v-1h-2v1Zm-4 0h2v-1h-2v1Zm-4 0h2v-1h-2v1Zm-4 0h2v-1h-2v1Zm-4 0h2v-1h-2v1Zm-4 0h2v-1h-2v1Zm-4 0h2v-1h-2v1Zm-4 0h2v-1h-2v1Zm-4 0h2v-1h-2v1Zm-4 0h2v-1h-2v1Zm-4 0h2v-1h-2v1Zm-4 0h2v-1h-2v1Zm-4 0h2v-1h-2v1Zm-4 0h2v-1h-2v1Zm-4 0h2v-1h-2v1Zm-4 0h2v-1h-2v1Zm-4 0h2v-1h-2v1Zm-4 0h2v-1h-2v1Zm-4 0h2v-1h-2v1Zm-4 0h2v-1h-2v1Zm-4 0h2v-1h-2v1Zm-4 0h2v-1h-2v1Zm-4 0h2v-1h-2v1Zm-4 0h2v-1h-2v1Zm-4 0h2v-1h-2v1Zm-4 0h2v-1h-2v1Zm-4 0h2v-1h-2v1Zm-4 0h2v-1h-2v1Zm-4 0h2v-1h-2v1Zm-4 0h2v-1h-2v1Zm-4 0h2v-1h-2v1Zm-4 0h2v-1h-2v1Zm-4 0h2v-1h-2v1Zm-4 0h2v-1h-2v1Zm-4 0h2v-1h-2v1Zm-4 0h2v-1h-2v1Zm-4 0h2v-1h-2v1Zm-4 0h2v-1h-2v1Zm-4 0h2v-1h-2v1Zm-4 0h2v-1h-2v1Zm-4 0h2v-1h-2v1Zm-4 0h2v-1h-2v1Zm-4 0h2v-1h-2v1Zm-4 0h2v-1h-2v1Zm-4 0h2v-1h-2v1Zm-4 0h2v-1h-2v1Zm-4 0h2v-1h-2v1Zm-4 0h2v-1h-2v1Zm-4 0h2v-1h-2v1Zm-4 0h2v-1h-2v1Zm-4 0h2v-1h-2v1Zm-4 0h2v-1h-2v1Zm-4 0h2v-1h-2v1Zm-4 0h2v-1h-2v1Zm-4 0h2v-1h-2v1Zm-4 0h2v-1h-2v1Zm-4 0h2v-1h-2v1Zm-4 0h2v-1h-2v1Zm-4 0h2v-1h-2v1Zm-4 0h2v-1h-2v1Zm-4 0h2v-1h-2v1Zm-4 0h2v-1h-2v1Zm-4 0h2v-1h-2v1Zm-4 0h2v-1h-2v1Zm-4 0h2v-1h-2v1Zm-4 0h2v-1h-2v1Zm-4 0h2v-1h-2v1Zm-4 0h2v-1h-2v1Zm-4 0h2v-1h-2v1Zm-4 0h2v-1h-2v1Zm-4 0h2v-1h-2v1Zm-4 0h2v-1h-2v1Zm-4 0h2v-1h-2v1Zm-4 0h2v-1h-2v1Zm-4 0h2v-1h-2v1Zm-4 0h2v-1h-2v1Zm-4 0h2v-1h-2v1Zm-4 0h2v-1h-2v1Zm-4 0h2v-1h-2v1Zm-4 0h2v-1h-2v1Zm-4 0h2v-1h-2v1Zm-4 0h2v-1h-2v1Zm-4 0h2v-1h-2v1Zm-4 0h2v-1h-2v1Zm-4 0h2v-1h-2v1Zm-4 0h2v-1h-2v1Zm-4 0h2v-1h-2v1Zm-4 0h2v-1h-2v1Zm-4 0h2v-1h-2v1Zm-4 0h2v-1h-2v1Zm-4 0h2v-1h-2v1Zm-4 0h2v-1h-2v1Zm-4 0h2v-1h-2v1Zm-4 0h2v-1h-2v1Zm-4 0h2v-1h-2v1Zm-4 0h2v-1h-2v1Zm-4 0h2v-1h-2v1Zm-4 0h2v-1h-2v1Zm-4 0h2v-1h-2v1Zm-4 0h2v-1h-2v1Zm-4 0h2v-1h-2v1Zm-4 0h2v-1h-2v1Zm-4 0h2v-1h-2v1Zm-4 0h2v-1h-2v1Zm-4 0h2v-1h-2v1Zm-4 0h2v-1h-2v1Zm-4 0h2v-1h-2v1Zm-4 0h2v-1h-2v1Zm-4 0h2v-1h-2v1Zm-4 0h2v-1h-2v1Zm-4 0h2v-1h-2v1Zm-4 0h2v-1h-2v1Zm-4 0h2v-1h-2v1Zm-4 0h2v-1h-2v1Zm-4 0h2v-1h-2v1Zm-4 0h2v-1h-2v1Zm-4 0h2v-1h-2v1Zm-4 0h2v-1h-2v1Zm-4 0h2v-1h-2v1Zm-4 0h2v-1h-2v1Zm-4 0h2v-1h-2v1Zm-4 0h2v-1h-2v1Zm-4 0h2v-1h-2v1Zm-4 0h2v-1h-2v1Zm-4 0h2v-1h-2v1Zm-4 0h2v-1h-2v1Zm-4 0h2v-1h-2v1Zm-4 0h2v-1h-2v1Zm-4 0h2v-1h-2v1Zm-4 0h2v-1h-2v1Zm-4 0h2v-1h-2v1Zm-4 0h2v-1h-2v1Zm-4 0h2v-1h-2v1Zm-4 0h2v-1h-2v1Zm-4 0h2v-1h-2v1Zm-4 0h2v-1h-2v1Zm-4 0h2v-1h-2v1Zm-4 0h2v-1h-2v1Zm-4 0h2v-1h-2v1Zm-4 0h2v-1h-2v1Zm-4 0h2v-1h-2v1Zm-4 0h2v-1h-2v1Zm-4 0h2v-1h-2v1Zm-4 0h2v-1h-2v1Zm-4 0h2v-1h-2v1Zm-4 0h2v-1h-2v1Zm-4 0h2v-1h-2v1Zm-4 0h2v-1h-2v1Zm-4 0h2v-1h-2v1Zm-4 0h2v-1h-2v1Zm-4 0h2v-1h-2v1Zm-4 0h2v-1h-2v1Zm-4 0h2v-1h-2v1Zm-4 0h2v-1h-2v1Zm-4 0h2v-1h-2v1Zm-4 0h2v-1h-2v1Zm-4 0h2v-1h-2v1Zm-4 0h2v-1h-2v1Zm-4 0h2v-1h-2v1Zm-4 0h2v-1h-2v1Zm-4 0h2v-1h-2v1Zm-4 0h2v-1h-2v1Zm-4 0h2v-1h-2v1Zm-4 0h2v-1h-2v1Zm-4 0h2v-1h-2v1Zm-4 0h2v-1h-2v1Zm-4 0h2v-1h-2v1Zm-4 0h2v-1h-2v1Zm-4 0h2v-1h-2v1Zm-4 0h2v-1h-2v1Zm-4 0h2v-1h-2v1Zm-4 0h2v-1h-2v1Zm-4 0h2v-1h-2v1Zm-4 0h2v-1h-2v1Zm-4 0h2v-1h-2v1Zm-4 0h2v-1h-2v1Zm-4 0h2v-1h-2v1Zm-4 0h2v-1h-2v1Zm-4 0h2v-1h-2v1Zm-4 0h2v-1h-2v1Zm-4 0h2v-1h-2v1Zm-4 0h2v-1h-2v1Zm-4 0h2v-1h-2v1Zm-4 0h2v-1h-2v1Zm-4 0h2v-1h-2v1Zm-4 0h2v-1h-2v1Zm-4 0h2v-1h-2v1Zm-4 0h2v-1h-2v1Zm-4 0h2v-1h-2v1Zm-4 0h2v-1h-2v1Zm-4 0h2v-1h-2v1Zm-4 0h2v-1h-2v1Zm-4 0h2v-1h-2v1Zm-4 0h2v-1h-2v1Zm-4 0h2v-1h-2v1Zm-4 0h2v-1h-2v1Zm16 0h2v-1h-2v1Zm-4 0h2v-1h-2v1Zm-4 0h2v-1h-2v1Zm-4 0h2v-1h-2v1Zm-4 0h2v-1h-2v1Zm-4 0h2v-1h-2v1Zm-4 0h2v-1h-2v1Zm-4 0h2v-1h-2v1Zm-4 0h2v-1h-2v1Zm-4 0h2v-1h-2v1Zm-4 0h2v-1h-2v1Zm-4 0h2v-1h-2v1Zm-4 0h2v-1h-2v1Zm-4 0h2v-1h-2v1Zm-4 0h2v-1h-2v1Zm-4 0h2v-1h-2v1Zm-4 0h2v-1h-2v1Zm-4 0h2v-1h-2v1Zm-4 0h2v-1h-2v1Zm-4 0h2v-1h-2v1Zm-4 0h2v-1h-2v1Zm-4 0h2v-1h-2v1Zm-4 0h2v-1h-2v1Zm-3 0h1v-1h-1v1ZM130.83 347.08h2v1h-2zM126.83 347.08h2v1h-2zM122.83 347.08h2v1h-2zM118.83 347.08h2v1h-2zM114.83 347.08h2v1h-2zM110.83 347.08h2v1h-2z" class="cls-1"/><path d="M122.83 347.08h2v1h-2zM118.83 347.08h2v1h-2zM114.83 347.08h2v1h-2zM110.83 347.08h2v1h-2zM130.83 347.08h2v1h-2zM126.83 347.08h2v1h-2z" class="cls-1"/><path d="M122.83 347.08h2v1h-2zM118.83 347.08h2v1h-2zM114.83 347.08h2v1h-2zM110.83 347.08h2v1h-2zM106.83 347.08h2v1h-2zM103.83 347.08h1v1h-1zM130.83 371.08h2v1h-2zM126.83 371.08h2v1h-2zM122.83 371.08h2v1h-2zM118.83 371.08h2v1h-2zM114.83 371.08h2v1h-2zM110.83 371.08h2v1h-2z" class="cls-1"/><path d="M122.83 371.08h2v1h-2zM118.83 371.08h2v1h-2zM114.83 371.08h2v1h-2zM110.83 371.08h2v1h-2zM130.83 371.08h2v1h-2zM126.83 371.08h2v1h-2z" class="cls-1"/><path d="M122.83 371.08h2v1h-2zM118.83 371.08h2v1h-2zM114.83 371.08h2v1h-2zM110.83 371.08h2v1h-2zM106.83 371.08h2v1h-2zM103.83 371.08h1v1h-1z" class="cls-1"/><path d="M352.59 274.49h-34.57v97.2h34.15c29.79 0 47.93-18.74 47.93-48.66s-18.32-48.54-47.51-48.54Zm-1.48 80.52h-13.34v-63.84h13.56c19.47 0 28.89 11.33 28.89 31.86s-9.28 31.98-29.11 31.98ZM435.81 301.23c-19.76 0-33.73 15.06-33.73 36.07s13.51 35.95 34.37 35.95c16.63 0 29.87-9.51 32.44-23.16h-17.33c-1.75 5.38-6.99 8.91-14.57 8.91-10.19 0-16.1-6.7-16.46-16.97h49.06v-5.1c0-21.02-13.59-35.7-33.79-35.7Zm.37 14.47c8.75 0 14.52 5.39 15.56 14.17h-31.05c1.03-8.78 6.77-14.17 15.49-14.17ZM518.08 302.8l-11.32 34.23c-1.7 5.44-3.29 10.9-4.86 16.35-1.6-5.45-3.23-10.91-4.98-16.35L485.4 302.8h-19.87l25.6 68.89h20.99l25.6-68.89h-19.64ZM585.01 315.58l-9.36-2.06c-12.02-2.64-16.89-6.03-16.89-12.07 0-7.18 7.07-12.23 17.08-12.23 10.53 0 17.45 5.71 18.13 15.06h18.53c-.59-19.54-14.42-31.35-36.75-31.35S539 284.77 539 302.42c0 13.85 9.24 22.74 28.53 26.95l10.25 2.23c12.43 2.74 17.51 6.42 17.51 12.75 0 7.66-7.46 12.65-18.7 12.65-12.61 0-20.18-6.39-20.38-17.16h-19.09c0 21.07 14.53 33.42 39.31 33.42s38.45-11.52 38.45-30.21c0-14.59-9.18-23.07-29.86-27.46ZM650.99 301.23c-19.76 0-33.73 15.06-33.73 36.07s13.51 35.95 34.37 35.95c16.63 0 29.87-9.51 32.44-23.16h-17.33c-1.75 5.38-6.99 8.91-14.57 8.91-10.19 0-16.1-6.7-16.46-16.97h49.06v-5.1c0-21.02-13.59-35.7-33.79-35.7Zm.37 14.47c8.75 0 14.52 5.39 15.56 14.17h-31.05c1.03-8.78 6.77-14.17 15.49-14.17ZM720.88 316.57c7.77 0 12.62 4.78 13.64 11.86h18.34c-1.25-15.96-14.22-27.19-32.25-27.19-20.64 0-34.48 14.73-34.48 36.07s13.8 35.95 34.48 35.95c18.24 0 31.34-11.52 32.25-27.33h-18.44c-1.27 7.3-5.71 11.99-13.54 11.99-9.82 0-15.66-7.97-15.66-20.61s5.83-20.73 15.66-20.73ZM800.28 272.92c-26.17 0-45.76 19.28-45.76 50.23s19.58 50.1 45.76 50.1 45.76-19.24 45.76-50.1-19.65-50.23-45.76-50.23Zm0 82.86c-15.1 0-25.87-11.82-25.87-32.63s10.77-32.76 25.87-32.76 25.87 11.86 25.87 32.76-10.77 32.63-25.87 32.63ZM890.41 301.36c-8.94 0-16.23 3.61-20.47 10.8h-.23v-9.36h-18.63v96.16h18.89v-37.57h.2c4.01 7.76 11.06 11.74 20.1 11.74 18.01 0 29.81-14.38 29.81-35.95s-12.07-35.82-29.67-35.82Zm-4.99 56.33c-9.83 0-16.36-8.07-16.36-20.51s6.53-20.47 16.36-20.47 15.57 7.44 15.57 20.47-6.14 20.51-15.57 20.51ZM963.29 331.82l-12.99-2.54c-5.33-1.12-8.46-3.41-8.46-7.03 0-4.14 4.06-7.38 10.74-7.38s11.6 4.16 11.73 9.74h17.55c-.39-14.34-12.11-23.26-29.81-23.26s-29.02 8.62-29.02 21.65c0 10.62 7.06 17.45 20.39 20.05l12.04 2.34c5.66 1.13 8.98 3.35 8.98 7.01 0 4.33-4.38 7.38-11.63 7.38s-12.04-3.59-12.72-9.67h-18.63c1.15 14.77 13.95 23.26 31.68 23.26s30.43-8.92 30.43-22.66c0-10.12-6.41-16.12-20.26-18.88ZM0 347.78c0-3.51 2.15-6 5.37-6 2.43 0 4.35 1.52 4.78 3.94H8.72c-.37-1.69-1.66-2.63-3.35-2.63-2.45 0-3.96 1.92-3.96 4.69s1.52 4.67 3.96 4.67c1.67 0 2.96-.93 3.36-2.62h1.43c-.42 2.41-2.35 3.92-4.78 3.92-3.21 0-5.37-2.49-5.37-5.98ZM11.8 350.46v-5.11h1.32v5.02c0 1.43.72 2.15 1.95 2.15s2.16-.69 2.16-2.35v-4.81h1.32v8.22h-1.29v-1.99h.37c-.54 1.48-1.52 2.15-2.82 2.15-1.66 0-3.02-1.08-3.02-3.27ZM24.11 346.49h-4.45v-1.14h4.45v1.14Zm-1.67-3.38v8.47c0 .64.23.86.9.86h.76v1.14h-.89c-1.41 0-2.1-.62-2.1-1.85v-8.61h1.32ZM30.79 353.58h-1.32v-11.6h1.32v5.37h-.4c.54-1.48 1.52-2.15 2.82-2.15 1.66 0 3.02 1.08 3.02 3.27v5.11h-1.32v-5.02c0-1.43-.72-2.15-1.95-2.15s-2.16.69-2.16 2.35v4.81ZM37.77 349.48c0-2.5 1.54-4.31 3.72-4.31 2.29 0 3.74 1.76 3.74 4.31v.37h-6.76v-1.14h6.02l-.57.4c0-1.67-.96-2.76-2.43-2.76s-2.41 1.08-2.41 2.76v.56c0 1.71.9 2.9 2.51 2.9 1.17 0 1.93-.59 2.18-1.45h1.32c-.31 1.57-1.71 2.65-3.5 2.65-2.41 0-3.82-1.81-3.82-4.28ZM46.74 345.36H48v1.29h.03c.3-.85.95-1.42 1.98-1.42.24 0 .45.03.56.05v1.32c-.11-.03-.43-.09-.81-.09-.91 0-1.7.62-1.7 2.01v5.06h-1.32v-8.22ZM51.3 349.48c0-2.5 1.54-4.31 3.72-4.31 2.29 0 3.74 1.76 3.74 4.31v.37H52v-1.14h6.02l-.57.4c0-1.67-.96-2.76-2.43-2.76s-2.41 1.08-2.41 2.76v.56c0 1.71.9 2.9 2.51 2.9 1.17 0 1.93-.59 2.18-1.45h1.32c-.31 1.57-1.71 2.65-3.5 2.65-2.41 0-3.82-1.81-3.82-4.28ZM85.41 365.58h-1.36V355.4l-2.9 1.92v-1.44l2.91-1.94h1.36v11.64ZM90.25 360.87v1.02l-3.27-4.55h1.56l1.12 1.62c.45.65.87 1.28 1.3 1.94h-.66c.45-.66.87-1.29 1.32-1.94l1.13-1.62h1.54l-3.27 4.55v-1.03l3.41 4.72h-1.55l-1.31-1.87c-.44-.62-.84-1.23-1.27-1.87h.66c-.43.63-.85 1.24-1.29 1.87l-1.33 1.87h-1.55l3.45-4.72ZM109.92 323.62l5.57-7.67h.86v1.58h-.5l-4.33 5.98v.02h7.47v1.25h-9.07v-1.16Zm5.94.81v-8.48h1.34v11.64h-1.34v-3.15ZM123.08 322.87v1.02l-3.27-4.55h1.56l1.12 1.62c.45.65.87 1.28 1.3 1.94h-.66c.45-.66.87-1.29 1.32-1.94l1.13-1.62h1.54l-3.27 4.55v-1.03l3.41 4.72h-1.55l-1.31-1.87c-.44-.62-.84-1.23-1.27-1.87h.66c-.43.63-.85 1.24-1.29 1.87l-1.33 1.87h-1.55l3.45-4.72ZM99.71 269.75c0-.55.43-.98.98-.98s.98.43.98.98-.43.98-.98.98-.98-.43-.98-.98ZM108.52 260.21h-6.05v-1.25h7.47v1.33l-5.19 10.31h-1.48l5.25-10.38ZM110.79 267.21h1.41c.12 1.32 1.18 2.28 2.6 2.28 1.51 0 2.53-1.14 2.53-2.72s-.98-2.7-2.43-2.7c-1.28 0-2.25.52-2.61 1.52h-1.35l.39-6.64h6.72v1.25h-5.44l-.28 3.77h.02c.73-.79 1.64-1.16 2.73-1.16 2.14 0 3.62 1.65 3.62 3.95s-1.56 3.98-3.89 3.98-3.92-1.52-4.01-3.53ZM123.08 265.87v1.02l-3.27-4.55h1.56l1.12 1.62c.45.65.87 1.28 1.3 1.94h-.66c.45-.66.87-1.29 1.32-1.94l1.13-1.62h1.54l-3.27 4.55v-1.03l3.41 4.73h-1.55l-1.31-1.87c-.44-.62-.84-1.23-1.27-1.87h.66c-.43.63-.85 1.24-1.29 1.87l-1.33 1.87h-1.55l3.45-4.72ZM99.71 88.75c0-.55.43-.98.98-.98s.98.43.98.98-.43.98-.98.98-.98-.43-.98-.98ZM108.52 79.21h-6.05v-1.25h7.47v1.33l-5.19 10.31h-1.48l5.25-10.38ZM110.79 86.21h1.41c.12 1.32 1.18 2.28 2.6 2.28 1.51 0 2.53-1.14 2.53-2.72s-.98-2.7-2.43-2.7c-1.28 0-2.25.52-2.61 1.52h-1.35l.39-6.64h6.72v1.25h-5.44l-.28 3.77h.02c.73-.79 1.64-1.16 2.73-1.16 2.14 0 3.62 1.65 3.62 3.95s-1.56 3.98-3.89 3.98-3.92-1.52-4.01-3.53ZM123.08 84.87v1.02l-3.27-4.55h1.56l1.12 1.62c.45.65.87 1.28 1.3 1.94h-.66c.45-.66.87-1.29 1.32-1.94l1.13-1.62h1.54l-3.27 4.55v-1.03l3.41 4.73h-1.55l-1.31-1.87c-.44-.62-.84-1.23-1.27-1.87h.66c-.43.63-.85 1.24-1.29 1.87l-1.33 1.87h-1.55l3.45-4.72ZM99.71 178.75c0-.55.43-.98.98-.98s.98.43.98.98-.43.98-.98.98-.98-.43-.98-.98ZM108.52 169.21h-6.05v-1.25h7.47v1.33l-5.19 10.31h-1.48l5.25-10.38ZM110.79 176.21h1.41c.12 1.32 1.18 2.28 2.6 2.28 1.51 0 2.53-1.14 2.53-2.72s-.98-2.7-2.43-2.7c-1.28 0-2.25.52-2.61 1.52h-1.35l.39-6.64h6.72v1.25h-5.44l-.28 3.77h.02c.73-.79 1.64-1.16 2.73-1.16 2.14 0 3.62 1.65 3.62 3.95s-1.56 3.98-3.89 3.98-3.92-1.52-4.01-3.53ZM123.08 174.87v1.02l-3.27-4.55h1.56l1.12 1.62c.45.65.87 1.28 1.3 1.94h-.66c.45-.66.87-1.29 1.32-1.94l1.13-1.62h1.54l-3.27 4.55v-1.03l3.41 4.73h-1.55l-1.31-1.87c-.44-.62-.84-1.23-1.27-1.87h.66c-.43.63-.85 1.24-1.29 1.87l-1.33 1.87h-1.55l3.45-4.72Z" class="cls-4"/><path d="M341.37 256.63v-56.42h13.56c19.47 0 28.89 11.33 28.89 31.86 0 10.85-2.58 19.13-7.91 24.56h22.67c3.35-6.94 5.12-15.2 5.12-24.56 0-29.83-18.32-48.54-47.51-48.54h-34.57v73.09h19.75ZM424.98 256.63c-.48-1.7-.76-3.56-.83-5.55h49.06v-5.1c0-21.02-13.59-35.7-33.79-35.7s-33.73 15.06-33.73 36.07c0 3.62.41 7.06 1.19 10.28h18.1Zm14.81-31.89c8.75 0 14.52 5.39 15.56 14.17H424.3c1.03-8.78 6.77-14.17 15.49-14.17ZM524.69 256.63l16.64-44.78h-19.64l-11.32 34.23c-1.1 3.51-2.14 7.03-3.17 10.55h17.49ZM503.78 256.63c-1.05-3.52-2.13-7.04-3.25-10.55l-11.52-34.23h-19.87l16.64 44.78h18ZM571.13 238.4l10.25 2.23c12.43 2.74 17.51 6.42 17.51 12.75 0 1.14-.19 2.22-.51 3.24h19.77c.2-1.46.31-2.97.31-4.54 0-14.59-9.18-23.07-29.86-27.46l-9.36-2.06c-12.02-2.64-16.89-6.03-16.89-12.07 0-7.18 7.07-12.23 17.08-12.23 10.53 0 17.45 5.71 18.13 15.06h18.53c-.59-19.54-14.42-31.35-36.75-31.35s-36.75 11.84-36.75 29.49c0 13.85 9.24 22.74 28.53 26.95ZM561.58 256.63c-1.09-2.24-1.71-4.83-1.77-7.75h-19.09c0 2.73.25 5.32.73 7.75h20.13ZM640.16 256.63c-.48-1.7-.76-3.56-.83-5.55h49.06v-5.1c0-21.02-13.59-35.7-33.79-35.7s-33.73 15.06-33.73 36.07c0 3.62.41 7.06 1.19 10.28h18.1Zm14.81-31.89c8.75 0 14.52 5.39 15.56 14.17h-31.05c1.03-8.78 6.77-14.17 15.49-14.17ZM738.03 254.97c-.1.57-.23 1.12-.36 1.66h18.66c.06-.55.11-1.1.15-1.66h-18.44ZM710.45 256.63c-1.06-2.92-1.62-6.37-1.62-10.28 0-12.73 5.83-20.73 15.66-20.73 7.77 0 12.62 4.79 13.64 11.86h18.34c-1.25-15.96-14.22-27.19-32.25-27.19-20.64 0-34.48 14.73-34.48 36.07 0 3.63.41 7.07 1.18 10.28h19.53ZM785.56 256.63c-4.74-5.56-7.55-13.83-7.55-24.43 0-20.9 10.77-32.76 25.87-32.76s25.87 11.86 25.87 32.76c0 10.6-2.8 18.87-7.55 24.43h22.47c3.18-6.96 4.97-15.17 4.97-24.43 0-30.95-19.65-50.23-45.76-50.23s-45.76 19.28-45.76 50.23c0 9.25 1.78 17.46 4.97 24.43h22.46ZM874.54 256.63c-1.21-2.95-1.88-6.46-1.88-10.41 0-12.4 6.53-20.47 16.36-20.47s15.57 7.44 15.57 20.47c0 4.02-.59 7.5-1.67 10.41h19.74c.66-3.24 1.02-6.71 1.02-10.41 0-21.16-12.07-35.82-29.67-35.82-8.94 0-16.23 3.61-20.47 10.8h-.23v-9.36h-18.63v44.78h19.86ZM947.01 252.08l12.04 2.34c2.54.51 4.6 1.23 6.11 2.21h21.76c-1.24-8.25-7.66-13.3-20.03-15.76l-12.99-2.54c-5.33-1.12-8.46-3.41-8.46-7.03 0-4.14 4.06-7.38 10.74-7.38s11.6 4.16 11.73 9.74h17.55c-.39-14.34-12.1-23.27-29.81-23.27s-29.02 8.62-29.02 21.65c0 10.62 7.06 17.45 20.39 20.05Z" class="cls-3"/><path d="M341.37 165.63v-56.42h13.56c19.47 0 28.89 11.33 28.89 31.86 0 10.85-2.58 19.13-7.91 24.56h22.67c3.35-6.94 5.12-15.2 5.12-24.56 0-29.83-18.32-48.54-47.51-48.54h-34.57v73.09h19.75ZM424.98 165.63c-.48-1.7-.76-3.56-.83-5.55h49.06v-5.1c0-21.02-13.59-35.7-33.79-35.7s-33.73 15.06-33.73 36.07c0 3.62.41 7.06 1.19 10.28h18.1Zm14.81-31.89c8.75 0 14.52 5.39 15.56 14.17H424.3c1.03-8.78 6.77-14.17 15.49-14.17ZM524.69 165.63l16.64-44.78h-19.64l-11.32 34.23c-1.1 3.51-2.14 7.03-3.17 10.55h17.49ZM503.78 165.63c-1.05-3.52-2.13-7.04-3.25-10.55l-11.52-34.23h-19.87l16.64 44.78h18ZM571.13 147.4l10.25 2.23c12.43 2.74 17.51 6.42 17.51 12.75 0 1.14-.19 2.22-.51 3.24h19.77c.2-1.46.31-2.97.31-4.54 0-14.59-9.18-23.07-29.86-27.46l-9.36-2.06c-12.02-2.64-16.89-6.03-16.89-12.07 0-7.18 7.07-12.23 17.08-12.23 10.53 0 17.45 5.71 18.13 15.06h18.53c-.59-19.54-14.42-31.35-36.75-31.35s-36.75 11.84-36.75 29.49c0 13.85 9.24 22.74 28.53 26.95ZM561.58 165.63c-1.09-2.24-1.71-4.83-1.77-7.75h-19.09c0 2.73.25 5.32.73 7.75h20.13ZM640.16 165.63c-.48-1.7-.76-3.56-.83-5.55h49.06v-5.1c0-21.02-13.59-35.7-33.79-35.7s-33.73 15.06-33.73 36.07c0 3.62.41 7.06 1.19 10.28h18.1Zm14.81-31.89c8.75 0 14.52 5.39 15.56 14.17h-31.05c1.03-8.78 6.77-14.17 15.49-14.17ZM738.03 163.97c-.1.57-.23 1.12-.36 1.66h18.66c.06-.55.11-1.1.15-1.66h-18.44ZM710.45 165.63c-1.06-2.92-1.62-6.37-1.62-10.28 0-12.73 5.83-20.73 15.66-20.73 7.77 0 12.62 4.79 13.64 11.86h18.34c-1.25-15.96-14.22-27.19-32.25-27.19-20.64 0-34.48 14.73-34.48 36.07 0 3.63.41 7.07 1.18 10.28h19.53ZM785.56 165.63c-4.74-5.56-7.55-13.83-7.55-24.43 0-20.9 10.77-32.76 25.87-32.76s25.87 11.86 25.87 32.76c0 10.6-2.8 18.87-7.55 24.43h22.47c3.18-6.96 4.97-15.17 4.97-24.43 0-30.95-19.65-50.23-45.76-50.23s-45.76 19.28-45.76 50.23c0 9.25 1.78 17.46 4.97 24.43h22.46ZM874.54 165.63c-1.21-2.95-1.88-6.46-1.88-10.41 0-12.4 6.53-20.47 16.36-20.47s15.57 7.44 15.57 20.47c0 4.02-.59 7.5-1.67 10.41h19.74c.66-3.24 1.02-6.71 1.02-10.41 0-21.16-12.07-35.82-29.67-35.82-8.94 0-16.23 3.61-20.47 10.8h-.23v-9.36h-18.63v44.78h19.86ZM947.01 161.08l12.04 2.34c2.54.51 4.6 1.23 6.11 2.21h21.76c-1.24-8.25-7.66-13.3-20.03-15.76l-12.99-2.54c-5.33-1.12-8.46-3.41-8.46-7.03 0-4.14 4.06-7.38 10.74-7.38s11.6 4.16 11.73 9.74h17.55c-.39-14.34-12.1-23.27-29.81-23.27s-29.02 8.62-29.02 21.65c0 10.62 7.06 17.45 20.39 20.05Z" class="cls-5"/><path d="M341.37 74.66V18.24h13.56c19.47 0 28.89 11.33 28.89 31.86 0 10.85-2.58 19.13-7.91 24.56h22.67c3.35-6.94 5.12-15.2 5.12-24.56 0-29.83-18.32-48.54-47.51-48.54h-34.57v73.09h19.75ZM424.98 74.66c-.48-1.7-.76-3.56-.83-5.55h49.06v-5.1c0-21.02-13.59-35.7-33.79-35.7s-33.73 15.06-33.73 36.07c0 3.62.41 7.06 1.19 10.28h18.1Zm14.81-31.89c8.75 0 14.52 5.39 15.56 14.17H424.3c1.03-8.78 6.77-14.17 15.49-14.17ZM524.69 74.66l16.64-44.78h-19.64l-11.32 34.23c-1.1 3.51-2.14 7.03-3.17 10.55h17.49ZM503.78 74.66c-1.05-3.52-2.13-7.04-3.25-10.55l-11.52-34.23h-19.87l16.64 44.78h18ZM571.13 56.44l10.25 2.23c12.43 2.74 17.51 6.42 17.51 12.75 0 1.14-.19 2.22-.51 3.24h19.77c.2-1.46.31-2.97.31-4.54 0-14.59-9.18-23.07-29.86-27.46l-9.36-2.06c-12.02-2.64-16.89-6.03-16.89-12.07 0-7.18 7.07-12.23 17.08-12.23 10.53 0 17.45 5.71 18.13 15.06h18.53C615.5 11.82 601.67.01 579.34.01s-36.75 11.84-36.75 29.49c0 13.85 9.24 22.74 28.53 26.95ZM561.58 74.66c-1.09-2.24-1.71-4.83-1.77-7.75h-19.09c0 2.73.25 5.32.73 7.75h20.13ZM640.16 74.66c-.48-1.7-.76-3.56-.83-5.55h49.06v-5.1c0-21.02-13.59-35.7-33.79-35.7s-33.73 15.06-33.73 36.07c0 3.62.41 7.06 1.19 10.28h18.1Zm14.81-31.89c8.75 0 14.52 5.39 15.56 14.17h-31.05c1.03-8.78 6.77-14.17 15.49-14.17ZM738.03 73c-.1.57-.23 1.12-.36 1.66h18.66c.06-.55.11-1.1.15-1.66h-18.44ZM710.45 74.66c-1.06-2.92-1.62-6.37-1.62-10.28 0-12.73 5.83-20.73 15.66-20.73 7.77 0 12.62 4.79 13.64 11.86h18.34c-1.25-15.96-14.22-27.19-32.25-27.19-20.64 0-34.48 14.73-34.48 36.07 0 3.63.41 7.07 1.18 10.28h19.53ZM785.56 74.66c-4.74-5.56-7.55-13.83-7.55-24.43 0-20.9 10.77-32.76 25.87-32.76s25.87 11.86 25.87 32.76c0 10.6-2.8 18.87-7.55 24.43h22.47c3.18-6.96 4.97-15.17 4.97-24.43C849.64 19.28 829.99 0 803.88 0s-45.76 19.28-45.76 50.23c0 9.25 1.78 17.46 4.97 24.43h22.46ZM874.54 74.66c-1.21-2.95-1.88-6.46-1.88-10.41 0-12.4 6.53-20.47 16.36-20.47s15.57 7.44 15.57 20.47c0 4.02-.59 7.5-1.67 10.41h19.74c.66-3.24 1.02-6.71 1.02-10.41 0-21.16-12.07-35.82-29.67-35.82-8.94 0-16.23 3.61-20.47 10.8h-.23v-9.36h-18.63v44.78h19.86ZM947.01 70.11l12.04 2.34c2.54.51 4.6 1.23 6.11 2.21h21.76c-1.24-8.25-7.66-13.3-20.03-15.76l-12.99-2.54c-5.33-1.12-8.46-3.41-8.46-7.03 0-4.14 4.06-7.38 10.74-7.38s11.6 4.16 11.73 9.74h17.55c-.39-14.34-12.1-23.27-29.81-23.27s-29.02 8.62-29.02 21.65c0 10.62 7.06 17.45 20.39 20.05Z" class="cls-2"/></g></svg>