<svg xmlns="http://www.w3.org/2000/svg" viewBox="0 0 1007.02 398.96"><defs><style>.cls-1{opacity:0.75;}.cls-2{opacity:0.5;}.cls-3{opacity:0.25;}</style></defs><g id="Layer_2" data-name="Layer 2"><g id="LOGO"><path d="M1005,75.09h2v-1h-2Zm-4,0h2v-1h-2Zm-4,0h2v-1h-2Zm-4,0h2v-1h-2Zm-4,0h2v-1h-2Zm-4,0h2v-1h-2Zm-4,0h2v-1h-2Zm-4,0h2v-1h-2Zm-4,0h2v-1h-2Zm-4,0h2v-1h-2Zm-4,0h2v-1h-2Zm-4,0h2v-1h-2Zm-4,0h2v-1h-2Zm-4,0h2v-1h-2Zm-4,0h2v-1h-2Zm-4,0h2v-1h-2Zm-4,0h2v-1h-2Zm-4,0h2v-1h-2Zm-4,0h2v-1h-2Zm-4,0h2v-1h-2Zm-4,0h2v-1h-2Zm-4,0h2v-1h-2Zm-4,0h2v-1h-2Zm-4,0h2v-1h-2Zm-4,0h2v-1h-2Zm-4,0h2v-1h-2Zm-4,0h2v-1h-2Zm-4,0h2v-1h-2Zm-4,0h2v-1h-2Zm-4,0h2v-1h-2Zm-4,0h2v-1h-2Zm-4,0h2v-1h-2Zm-4,0h2v-1h-2Zm-4,0h2v-1h-2Zm-4,0h2v-1h-2Zm-4,0h2v-1h-2Zm-4,0h2v-1h-2Zm-4,0h2v-1h-2Zm-4,0h2v-1h-2Zm-4,0h2v-1h-2Zm-4,0h2v-1h-2Zm-4,0h2v-1h-2Zm-4,0h2v-1h-2Zm-4,0h2v-1h-2Zm-4,0h2v-1h-2Zm-4,0h2v-1h-2Zm-4,0h2v-1h-2Zm-4,0h2v-1h-2Zm-4,0h2v-1h-2Zm-4,0h2v-1h-2Zm-4,0h2v-1h-2Zm-4,0h2v-1h-2Zm-4,0h2v-1h-2Zm-4,0h2v-1h-2Zm-4,0h2v-1h-2Zm-4,0h2v-1h-2Zm-4,0h2v-1h-2Zm-4,0h2v-1h-2Zm-4,0h2v-1h-2Zm-4,0h2v-1h-2Zm-4,0h2v-1h-2Zm-4,0h2v-1h-2Zm-4,0h2v-1h-2Zm-4,0h2v-1h-2Zm-4,0h2v-1h-2Zm-4,0h2v-1h-2Zm-4,0h2v-1h-2Zm-4,0h2v-1h-2Zm-4,0h2v-1h-2Zm-4,0h2v-1h-2Zm-4,0h2v-1h-2Zm-4,0h2v-1h-2Zm-4,0h2v-1h-2Zm-4,0h2v-1h-2Zm-4,0h2v-1h-2Zm-4,0h2v-1h-2Zm-4,0h2v-1h-2Zm-4,0h2v-1h-2Zm-4,0h2v-1h-2Zm-4,0h2v-1h-2Zm-4,0h2v-1h-2Zm-4,0h2v-1h-2Zm-4,0h2v-1h-2Zm-4,0h2v-1h-2Zm-4,0h2v-1h-2Zm-4,0h2v-1h-2Zm-4,0h2v-1h-2Zm-4,0h2v-1h-2Zm-4,0h2v-1h-2Zm-4,0h2v-1h-2Zm-4,0h2v-1h-2Zm-4,0h2v-1h-2Zm-4,0h2v-1h-2Zm-4,0h2v-1h-2Zm-4,0h2v-1h-2Zm-4,0h2v-1h-2Zm-4,0h2v-1h-2Zm-4,0h2v-1h-2Zm-4,0h2v-1h-2Zm-4,0h2v-1h-2Zm-4,0h2v-1h-2Zm-4,0h2v-1h-2Zm-4,0h2v-1h-2Zm-4,0h2v-1h-2Zm-4,0h2v-1h-2Zm-4,0h2v-1h-2Zm-4,0h2v-1h-2Zm-4,0h2v-1h-2Zm-4,0h2v-1h-2Zm-4,0h2v-1h-2Zm-4,0h2v-1h-2Zm-4,0h2v-1h-2Zm-4,0h2v-1h-2Zm-4,0h2v-1h-2Zm-4,0h2v-1h-2Zm-4,0h2v-1h-2Zm-4,0h2v-1h-2Zm-4,0h2v-1h-2Zm-4,0h2v-1h-2Zm-4,0h2v-1h-2Zm-4,0h2v-1h-2Zm-4,0h2v-1h-2Zm-4,0h2v-1h-2Zm-4,0h2v-1h-2Zm-4,0h2v-1h-2Zm-4,0h2v-1h-2Zm-4,0h2v-1h-2Zm-4,0h2v-1h-2Zm-4,0h2v-1h-2Zm-4,0h2v-1h-2Zm-4,0h2v-1h-2Zm-4,0h2v-1h-2Zm-4,0h2v-1h-2Zm-4,0h2v-1h-2Zm-4,0h2v-1h-2Zm-4,0h2v-1h-2Zm-4,0h2v-1h-2Zm-4,0h2v-1h-2Zm-4,0h2v-1h-2Zm-4,0h2v-1h-2Zm-4,0h2v-1h-2Zm-4,0h2v-1h-2Zm-4,0h2v-1h-2Zm-4,0h2v-1h-2Zm-4,0h2v-1h-2Zm-4,0h2v-1h-2Zm-4,0h2v-1h-2Zm-4,0h2v-1h-2Zm-4,0h2v-1h-2Zm-4,0h2v-1h-2Zm-4,0h2v-1h-2Zm-4,0h2v-1h-2Zm-4,0h2v-1h-2Zm-4,0h2v-1h-2Zm-4,0h2v-1h-2Zm-4,0h2v-1h-2Zm-4,0h2v-1h-2Zm-4,0h2v-1h-2Zm-4,0h2v-1h-2Zm-4,0h2v-1h-2Zm-4,0h2v-1h-2Zm-4,0h2v-1h-2Zm-4,0h2v-1h-2Zm-4,0h2v-1h-2Zm-4,0h2v-1h-2Zm-4,0h2v-1h-2Zm-4,0h2v-1h-2Zm-4,0h2v-1h-2Zm-4,0h2v-1h-2Zm-4,0h2v-1h-2Zm-4,0h2v-1h-2Zm-4,0h2v-1h-2Zm-4,0h2v-1h-2Zm-4,0h2v-1h-2Zm-4,0h2v-1h-2Zm-4,0h2v-1h-2Zm-4,0h2v-1h-2Zm-4,0h2v-1h-2Zm-4,0h2v-1h-2Zm-4,0h2v-1h-2Zm-4,0h2v-1h-2Zm-4,0h2v-1h-2Zm-4,0h2v-1h-2Zm-4,0h2v-1h-2Zm-4,0h2v-1h-2Zm-4,0h2v-1h-2Zm-4,0h2v-1h-2Zm-4,0h2v-1h-2Zm-4,0h2v-1h-2Zm-4,0h2v-1h-2Zm-4,0h2v-1h-2Zm-4,0h2v-1h-2Zm-4,0h2v-1h-2Zm-4,0h2v-1h-2Zm-4,0h2v-1h-2Zm-4,0h2v-1h-2Zm-4,0h2v-1h-2Zm-4,0h2v-1h-2Zm-4,0h2v-1h-2Zm16,0h2v-1h-2Zm-4,0h2v-1h-2Zm-4,0h2v-1h-2Zm-4,0h2v-1h-2Zm-4,0h2v-1h-2Zm-4,0h2v-1h-2Zm-4,0h2v-1h-2Zm-4,0h2v-1h-2Zm-4,0h2v-1h-2Zm-4,0h2v-1h-2Zm-4,0h2v-1h-2Zm-4,0h2v-1h-2Zm-4,0h2v-1h-2Zm-4,0h2v-1h-2Zm-4,0h2v-1h-2Zm-4,0h2v-1h-2Zm-4,0h2v-1h-2Zm-4,0h2v-1h-2Zm-4,0h2v-1h-2Zm-4,0h2v-1h-2Zm-4,0h2v-1h-2Zm-4,0h2v-1h-2Zm-4,0h2v-1h-2Zm-3,0h1v-1h-1Z"/><path d="M1005,166.09h2v-1h-2Zm-4,0h2v-1h-2Zm-4,0h2v-1h-2Zm-4,0h2v-1h-2Zm-4,0h2v-1h-2Zm-4,0h2v-1h-2Zm-4,0h2v-1h-2Zm-4,0h2v-1h-2Zm-4,0h2v-1h-2Zm-4,0h2v-1h-2Zm-4,0h2v-1h-2Zm-4,0h2v-1h-2Zm-4,0h2v-1h-2Zm-4,0h2v-1h-2Zm-4,0h2v-1h-2Zm-4,0h2v-1h-2Zm-4,0h2v-1h-2Zm-4,0h2v-1h-2Zm-4,0h2v-1h-2Zm-4,0h2v-1h-2Zm-4,0h2v-1h-2Zm-4,0h2v-1h-2Zm-4,0h2v-1h-2Zm-4,0h2v-1h-2Zm-4,0h2v-1h-2Zm-4,0h2v-1h-2Zm-4,0h2v-1h-2Zm-4,0h2v-1h-2Zm-4,0h2v-1h-2Zm-4,0h2v-1h-2Zm-4,0h2v-1h-2Zm-4,0h2v-1h-2Zm-4,0h2v-1h-2Zm-4,0h2v-1h-2Zm-4,0h2v-1h-2Zm-4,0h2v-1h-2Zm-4,0h2v-1h-2Zm-4,0h2v-1h-2Zm-4,0h2v-1h-2Zm-4,0h2v-1h-2Zm-4,0h2v-1h-2Zm-4,0h2v-1h-2Zm-4,0h2v-1h-2Zm-4,0h2v-1h-2Zm-4,0h2v-1h-2Zm-4,0h2v-1h-2Zm-4,0h2v-1h-2Zm-4,0h2v-1h-2Zm-4,0h2v-1h-2Zm-4,0h2v-1h-2Zm-4,0h2v-1h-2Zm-4,0h2v-1h-2Zm-4,0h2v-1h-2Zm-4,0h2v-1h-2Zm-4,0h2v-1h-2Zm-4,0h2v-1h-2Zm-4,0h2v-1h-2Zm-4,0h2v-1h-2Zm-4,0h2v-1h-2Zm-4,0h2v-1h-2Zm-4,0h2v-1h-2Zm-4,0h2v-1h-2Zm-4,0h2v-1h-2Zm-4,0h2v-1h-2Zm-4,0h2v-1h-2Zm-4,0h2v-1h-2Zm-4,0h2v-1h-2Zm-4,0h2v-1h-2Zm-4,0h2v-1h-2Zm-4,0h2v-1h-2Zm-4,0h2v-1h-2Zm-4,0h2v-1h-2Zm-4,0h2v-1h-2Zm-4,0h2v-1h-2Zm-4,0h2v-1h-2Zm-4,0h2v-1h-2Zm-4,0h2v-1h-2Zm-4,0h2v-1h-2Zm-4,0h2v-1h-2Zm-4,0h2v-1h-2Zm-4,0h2v-1h-2Zm-4,0h2v-1h-2Zm-4,0h2v-1h-2Zm-4,0h2v-1h-2Zm-4,0h2v-1h-2Zm-4,0h2v-1h-2Zm-4,0h2v-1h-2Zm-4,0h2v-1h-2Zm-4,0h2v-1h-2Zm-4,0h2v-1h-2Zm-4,0h2v-1h-2Zm-4,0h2v-1h-2Zm-4,0h2v-1h-2Zm-4,0h2v-1h-2Zm-4,0h2v-1h-2Zm-4,0h2v-1h-2Zm-4,0h2v-1h-2Zm-4,0h2v-1h-2Zm-4,0h2v-1h-2Zm-4,0h2v-1h-2Zm-4,0h2v-1h-2Zm-4,0h2v-1h-2Zm-4,0h2v-1h-2Zm-4,0h2v-1h-2Zm-4,0h2v-1h-2Zm-4,0h2v-1h-2Zm-4,0h2v-1h-2Zm-4,0h2v-1h-2Zm-4,0h2v-1h-2Zm-4,0h2v-1h-2Zm-4,0h2v-1h-2Zm-4,0h2v-1h-2Zm-4,0h2v-1h-2Zm-4,0h2v-1h-2Zm-4,0h2v-1h-2Zm-4,0h2v-1h-2Zm-4,0h2v-1h-2Zm-4,0h2v-1h-2Zm-4,0h2v-1h-2Zm-4,0h2v-1h-2Zm-4,0h2v-1h-2Zm-4,0h2v-1h-2Zm-4,0h2v-1h-2Zm-4,0h2v-1h-2Zm-4,0h2v-1h-2Zm-4,0h2v-1h-2Zm-4,0h2v-1h-2Zm-4,0h2v-1h-2Zm-4,0h2v-1h-2Zm-4,0h2v-1h-2Zm-4,0h2v-1h-2Zm-4,0h2v-1h-2Zm-4,0h2v-1h-2Zm-4,0h2v-1h-2Zm-4,0h2v-1h-2Zm-4,0h2v-1h-2Zm-4,0h2v-1h-2Zm-4,0h2v-1h-2Zm-4,0h2v-1h-2Zm-4,0h2v-1h-2Zm-4,0h2v-1h-2Zm-4,0h2v-1h-2Zm-4,0h2v-1h-2Zm-4,0h2v-1h-2Zm-4,0h2v-1h-2Zm-4,0h2v-1h-2Zm-4,0h2v-1h-2Zm-4,0h2v-1h-2Zm-4,0h2v-1h-2Zm-4,0h2v-1h-2Zm-4,0h2v-1h-2Zm-4,0h2v-1h-2Zm-4,0h2v-1h-2Zm-4,0h2v-1h-2Zm-4,0h2v-1h-2Zm-4,0h2v-1h-2Zm-4,0h2v-1h-2Zm-4,0h2v-1h-2Zm-4,0h2v-1h-2Zm-4,0h2v-1h-2Zm-4,0h2v-1h-2Zm-4,0h2v-1h-2Zm-4,0h2v-1h-2Zm-4,0h2v-1h-2Zm-4,0h2v-1h-2Zm-4,0h2v-1h-2Zm-4,0h2v-1h-2Zm-4,0h2v-1h-2Zm-4,0h2v-1h-2Zm-4,0h2v-1h-2Zm-4,0h2v-1h-2Zm-4,0h2v-1h-2Zm-4,0h2v-1h-2Zm-4,0h2v-1h-2Zm-4,0h2v-1h-2Zm-4,0h2v-1h-2Zm-4,0h2v-1h-2Zm-4,0h2v-1h-2Zm-4,0h2v-1h-2Zm-4,0h2v-1h-2Zm-4,0h2v-1h-2Zm-4,0h2v-1h-2Zm-4,0h2v-1h-2Zm-4,0h2v-1h-2Zm-4,0h2v-1h-2Zm-4,0h2v-1h-2Zm-4,0h2v-1h-2Zm-4,0h2v-1h-2Zm-4,0h2v-1h-2Zm-4,0h2v-1h-2Zm-4,0h2v-1h-2Zm-4,0h2v-1h-2Zm-4,0h2v-1h-2Zm-4,0h2v-1h-2Zm-4,0h2v-1h-2Zm-4,0h2v-1h-2Zm-4,0h2v-1h-2Zm-4,0h2v-1h-2Zm-4,0h2v-1h-2Zm16,0h2v-1h-2Zm-4,0h2v-1h-2Zm-4,0h2v-1h-2Zm-4,0h2v-1h-2Zm-4,0h2v-1h-2Zm-4,0h2v-1h-2Zm-4,0h2v-1h-2Zm-4,0h2v-1h-2Zm-4,0h2v-1h-2Zm-4,0h2v-1h-2Zm-4,0h2v-1h-2Zm-4,0h2v-1h-2Zm-4,0h2v-1h-2Zm-4,0h2v-1h-2Zm-4,0h2v-1h-2Zm-4,0h2v-1h-2Zm-4,0h2v-1h-2Zm-4,0h2v-1h-2Zm-4,0h2v-1h-2Zm-4,0h2v-1h-2Zm-4,0h2v-1h-2Zm-4,0h2v-1h-2Zm-4,0h2v-1h-2Zm-3,0h1v-1h-1Z"/><path d="M1005,257.09h2v-1h-2Zm-4,0h2v-1h-2Zm-4,0h2v-1h-2Zm-4,0h2v-1h-2Zm-4,0h2v-1h-2Zm-4,0h2v-1h-2Zm-4,0h2v-1h-2Zm-4,0h2v-1h-2Zm-4,0h2v-1h-2Zm-4,0h2v-1h-2Zm-4,0h2v-1h-2Zm-4,0h2v-1h-2Zm-4,0h2v-1h-2Zm-4,0h2v-1h-2Zm-4,0h2v-1h-2Zm-4,0h2v-1h-2Zm-4,0h2v-1h-2Zm-4,0h2v-1h-2Zm-4,0h2v-1h-2Zm-4,0h2v-1h-2Zm-4,0h2v-1h-2Zm-4,0h2v-1h-2Zm-4,0h2v-1h-2Zm-4,0h2v-1h-2Zm-4,0h2v-1h-2Zm-4,0h2v-1h-2Zm-4,0h2v-1h-2Zm-4,0h2v-1h-2Zm-4,0h2v-1h-2Zm-4,0h2v-1h-2Zm-4,0h2v-1h-2Zm-4,0h2v-1h-2Zm-4,0h2v-1h-2Zm-4,0h2v-1h-2Zm-4,0h2v-1h-2Zm-4,0h2v-1h-2Zm-4,0h2v-1h-2Zm-4,0h2v-1h-2Zm-4,0h2v-1h-2Zm-4,0h2v-1h-2Zm-4,0h2v-1h-2Zm-4,0h2v-1h-2Zm-4,0h2v-1h-2Zm-4,0h2v-1h-2Zm-4,0h2v-1h-2Zm-4,0h2v-1h-2Zm-4,0h2v-1h-2Zm-4,0h2v-1h-2Zm-4,0h2v-1h-2Zm-4,0h2v-1h-2Zm-4,0h2v-1h-2Zm-4,0h2v-1h-2Zm-4,0h2v-1h-2Zm-4,0h2v-1h-2Zm-4,0h2v-1h-2Zm-4,0h2v-1h-2Zm-4,0h2v-1h-2Zm-4,0h2v-1h-2Zm-4,0h2v-1h-2Zm-4,0h2v-1h-2Zm-4,0h2v-1h-2Zm-4,0h2v-1h-2Zm-4,0h2v-1h-2Zm-4,0h2v-1h-2Zm-4,0h2v-1h-2Zm-4,0h2v-1h-2Zm-4,0h2v-1h-2Zm-4,0h2v-1h-2Zm-4,0h2v-1h-2Zm-4,0h2v-1h-2Zm-4,0h2v-1h-2Zm-4,0h2v-1h-2Zm-4,0h2v-1h-2Zm-4,0h2v-1h-2Zm-4,0h2v-1h-2Zm-4,0h2v-1h-2Zm-4,0h2v-1h-2Zm-4,0h2v-1h-2Zm-4,0h2v-1h-2Zm-4,0h2v-1h-2Zm-4,0h2v-1h-2Zm-4,0h2v-1h-2Zm-4,0h2v-1h-2Zm-4,0h2v-1h-2Zm-4,0h2v-1h-2Zm-4,0h2v-1h-2Zm-4,0h2v-1h-2Zm-4,0h2v-1h-2Zm-4,0h2v-1h-2Zm-4,0h2v-1h-2Zm-4,0h2v-1h-2Zm-4,0h2v-1h-2Zm-4,0h2v-1h-2Zm-4,0h2v-1h-2Zm-4,0h2v-1h-2Zm-4,0h2v-1h-2Zm-4,0h2v-1h-2Zm-4,0h2v-1h-2Zm-4,0h2v-1h-2Zm-4,0h2v-1h-2Zm-4,0h2v-1h-2Zm-4,0h2v-1h-2Zm-4,0h2v-1h-2Zm-4,0h2v-1h-2Zm-4,0h2v-1h-2Zm-4,0h2v-1h-2Zm-4,0h2v-1h-2Zm-4,0h2v-1h-2Zm-4,0h2v-1h-2Zm-4,0h2v-1h-2Zm-4,0h2v-1h-2Zm-4,0h2v-1h-2Zm-4,0h2v-1h-2Zm-4,0h2v-1h-2Zm-4,0h2v-1h-2Zm-4,0h2v-1h-2Zm-4,0h2v-1h-2Zm-4,0h2v-1h-2Zm-4,0h2v-1h-2Zm-4,0h2v-1h-2Zm-4,0h2v-1h-2Zm-4,0h2v-1h-2Zm-4,0h2v-1h-2Zm-4,0h2v-1h-2Zm-4,0h2v-1h-2Zm-4,0h2v-1h-2Zm-4,0h2v-1h-2Zm-4,0h2v-1h-2Zm-4,0h2v-1h-2Zm-4,0h2v-1h-2Zm-4,0h2v-1h-2Zm-4,0h2v-1h-2Zm-4,0h2v-1h-2Zm-4,0h2v-1h-2Zm-4,0h2v-1h-2Zm-4,0h2v-1h-2Zm-4,0h2v-1h-2Zm-4,0h2v-1h-2Zm-4,0h2v-1h-2Zm-4,0h2v-1h-2Zm-4,0h2v-1h-2Zm-4,0h2v-1h-2Zm-4,0h2v-1h-2Zm-4,0h2v-1h-2Zm-4,0h2v-1h-2Zm-4,0h2v-1h-2Zm-4,0h2v-1h-2Zm-4,0h2v-1h-2Zm-4,0h2v-1h-2Zm-4,0h2v-1h-2Zm-4,0h2v-1h-2Zm-4,0h2v-1h-2Zm-4,0h2v-1h-2Zm-4,0h2v-1h-2Zm-4,0h2v-1h-2Zm-4,0h2v-1h-2Zm-4,0h2v-1h-2Zm-4,0h2v-1h-2Zm-4,0h2v-1h-2Zm-4,0h2v-1h-2Zm-4,0h2v-1h-2Zm-4,0h2v-1h-2Zm-4,0h2v-1h-2Zm-4,0h2v-1h-2Zm-4,0h2v-1h-2Zm-4,0h2v-1h-2Zm-4,0h2v-1h-2Zm-4,0h2v-1h-2Zm-4,0h2v-1h-2Zm-4,0h2v-1h-2Zm-4,0h2v-1h-2Zm-4,0h2v-1h-2Zm-4,0h2v-1h-2Zm-4,0h2v-1h-2Zm-4,0h2v-1h-2Zm-4,0h2v-1h-2Zm-4,0h2v-1h-2Zm-4,0h2v-1h-2Zm-4,0h2v-1h-2Zm-4,0h2v-1h-2Zm-4,0h2v-1h-2Zm-4,0h2v-1h-2Zm-4,0h2v-1h-2Zm-4,0h2v-1h-2Zm-4,0h2v-1h-2Zm-4,0h2v-1h-2Zm-4,0h2v-1h-2Zm-4,0h2v-1h-2Zm-4,0h2v-1h-2Zm-4,0h2v-1h-2Zm-4,0h2v-1h-2Zm-4,0h2v-1h-2Zm-4,0h2v-1h-2Zm-4,0h2v-1h-2Zm-4,0h2v-1h-2Zm-4,0h2v-1h-2Zm-4,0h2v-1h-2Zm-4,0h2v-1h-2Zm-4,0h2v-1h-2Zm16,0h2v-1h-2Zm-4,0h2v-1h-2Zm-4,0h2v-1h-2Zm-4,0h2v-1h-2Zm-4,0h2v-1h-2Zm-4,0h2v-1h-2Zm-4,0h2v-1h-2Zm-4,0h2v-1h-2Zm-4,0h2v-1h-2Zm-4,0h2v-1h-2Zm-4,0h2v-1h-2Zm-4,0h2v-1h-2Zm-4,0h2v-1h-2Zm-4,0h2v-1h-2Zm-4,0h2v-1h-2Zm-4,0h2v-1h-2Zm-4,0h2v-1h-2Zm-4,0h2v-1h-2Zm-4,0h2v-1h-2Zm-4,0h2v-1h-2Zm-4,0h2v-1h-2Zm-4,0h2v-1h-2Zm-4,0h2v-1h-2Zm-3,0h1v-1h-1Z"/><path d="M1005,93.09h2v-1h-2Zm-4,0h2v-1h-2Zm-4,0h2v-1h-2Zm-4,0h2v-1h-2Zm-4,0h2v-1h-2Zm-4,0h2v-1h-2Zm-4,0h2v-1h-2Zm-4,0h2v-1h-2Zm-4,0h2v-1h-2Zm-4,0h2v-1h-2Zm-4,0h2v-1h-2Zm-4,0h2v-1h-2Zm-4,0h2v-1h-2Zm-4,0h2v-1h-2Zm-4,0h2v-1h-2Zm-4,0h2v-1h-2Zm-4,0h2v-1h-2Zm-4,0h2v-1h-2Zm-4,0h2v-1h-2Zm-4,0h2v-1h-2Zm-4,0h2v-1h-2Zm-4,0h2v-1h-2Zm-4,0h2v-1h-2Zm-4,0h2v-1h-2Zm-4,0h2v-1h-2Zm-4,0h2v-1h-2Zm-4,0h2v-1h-2Zm-4,0h2v-1h-2Zm-4,0h2v-1h-2Zm-4,0h2v-1h-2Zm-4,0h2v-1h-2Zm-4,0h2v-1h-2Zm-4,0h2v-1h-2Zm-4,0h2v-1h-2Zm-4,0h2v-1h-2Zm-4,0h2v-1h-2Zm-4,0h2v-1h-2Zm-4,0h2v-1h-2Zm-4,0h2v-1h-2Zm-4,0h2v-1h-2Zm-4,0h2v-1h-2Zm-4,0h2v-1h-2Zm-4,0h2v-1h-2Zm-4,0h2v-1h-2Zm-4,0h2v-1h-2Zm-4,0h2v-1h-2Zm-4,0h2v-1h-2Zm-4,0h2v-1h-2Zm-4,0h2v-1h-2Zm-4,0h2v-1h-2Zm-4,0h2v-1h-2Zm-4,0h2v-1h-2Zm-4,0h2v-1h-2Zm-4,0h2v-1h-2Zm-4,0h2v-1h-2Zm-4,0h2v-1h-2Zm-4,0h2v-1h-2Zm-4,0h2v-1h-2Zm-4,0h2v-1h-2Zm-4,0h2v-1h-2Zm-4,0h2v-1h-2Zm-4,0h2v-1h-2Zm-4,0h2v-1h-2Zm-4,0h2v-1h-2Zm-4,0h2v-1h-2Zm-4,0h2v-1h-2Zm-4,0h2v-1h-2Zm-4,0h2v-1h-2Zm-4,0h2v-1h-2Zm-4,0h2v-1h-2Zm-4,0h2v-1h-2Zm-4,0h2v-1h-2Zm-4,0h2v-1h-2Zm-4,0h2v-1h-2Zm-4,0h2v-1h-2Zm-4,0h2v-1h-2Zm-4,0h2v-1h-2Zm-4,0h2v-1h-2Zm-4,0h2v-1h-2Zm-4,0h2v-1h-2Zm-4,0h2v-1h-2Zm-4,0h2v-1h-2Zm-4,0h2v-1h-2Zm-4,0h2v-1h-2Zm-4,0h2v-1h-2Zm-4,0h2v-1h-2Zm-4,0h2v-1h-2Zm-4,0h2v-1h-2Zm-4,0h2v-1h-2Zm-4,0h2v-1h-2Zm-4,0h2v-1h-2Zm-4,0h2v-1h-2Zm-4,0h2v-1h-2Zm-4,0h2v-1h-2Zm-4,0h2v-1h-2Zm-4,0h2v-1h-2Zm-4,0h2v-1h-2Zm-4,0h2v-1h-2Zm-4,0h2v-1h-2Zm-4,0h2v-1h-2Zm-4,0h2v-1h-2Zm-4,0h2v-1h-2Zm-4,0h2v-1h-2Zm-4,0h2v-1h-2Zm-4,0h2v-1h-2Zm-4,0h2v-1h-2Zm-4,0h2v-1h-2Zm-4,0h2v-1h-2Zm-4,0h2v-1h-2Zm-4,0h2v-1h-2Zm-4,0h2v-1h-2Zm-4,0h2v-1h-2Zm-4,0h2v-1h-2Zm-4,0h2v-1h-2Zm-4,0h2v-1h-2Zm-4,0h2v-1h-2Zm-4,0h2v-1h-2Zm-4,0h2v-1h-2Zm-4,0h2v-1h-2Zm-4,0h2v-1h-2Zm-4,0h2v-1h-2Zm-4,0h2v-1h-2Zm-4,0h2v-1h-2Zm-4,0h2v-1h-2Zm-4,0h2v-1h-2Zm-4,0h2v-1h-2Zm-4,0h2v-1h-2Zm-4,0h2v-1h-2Zm-4,0h2v-1h-2Zm-4,0h2v-1h-2Zm-4,0h2v-1h-2Zm-4,0h2v-1h-2Zm-4,0h2v-1h-2Zm-4,0h2v-1h-2Zm-4,0h2v-1h-2Zm-4,0h2v-1h-2Zm-4,0h2v-1h-2Zm-4,0h2v-1h-2Zm-4,0h2v-1h-2Zm-4,0h2v-1h-2Zm-4,0h2v-1h-2Zm-4,0h2v-1h-2Zm-4,0h2v-1h-2Zm-4,0h2v-1h-2Zm-4,0h2v-1h-2Zm-4,0h2v-1h-2Zm-4,0h2v-1h-2Zm-4,0h2v-1h-2Zm-4,0h2v-1h-2Zm-4,0h2v-1h-2Zm-4,0h2v-1h-2Zm-4,0h2v-1h-2Zm-4,0h2v-1h-2Zm-4,0h2v-1h-2Zm-4,0h2v-1h-2Zm-4,0h2v-1h-2Zm-4,0h2v-1h-2Zm-4,0h2v-1h-2Zm-4,0h2v-1h-2Zm-4,0h2v-1h-2Zm-4,0h2v-1h-2Zm-4,0h2v-1h-2Zm-4,0h2v-1h-2Zm-4,0h2v-1h-2Zm-4,0h2v-1h-2Zm-4,0h2v-1h-2Zm-4,0h2v-1h-2Zm-4,0h2v-1h-2Zm-4,0h2v-1h-2Zm-4,0h2v-1h-2Zm-4,0h2v-1h-2Zm-4,0h2v-1h-2Zm-4,0h2v-1h-2Zm-4,0h2v-1h-2Zm-4,0h2v-1h-2Zm-4,0h2v-1h-2Zm-4,0h2v-1h-2Zm-4,0h2v-1h-2Zm-4,0h2v-1h-2Zm-4,0h2v-1h-2Zm-4,0h2v-1h-2Zm-4,0h2v-1h-2Zm-4,0h2v-1h-2Zm-4,0h2v-1h-2Zm-4,0h2v-1h-2Zm-4,0h2v-1h-2Zm-4,0h2v-1h-2Zm-4,0h2v-1h-2Zm-4,0h2v-1h-2Zm-4,0h2v-1h-2Zm-4,0h2v-1h-2Zm-4,0h2v-1h-2Zm-4,0h2v-1h-2Zm-4,0h2v-1h-2Zm-4,0h2v-1h-2Zm-4,0h2v-1h-2Zm-4,0h2v-1h-2Zm-4,0h2v-1h-2Zm-4,0h2v-1h-2Zm16,0h2v-1h-2Zm-4,0h2v-1h-2Zm-4,0h2v-1h-2Zm-4,0h2v-1h-2Zm-4,0h2v-1h-2Zm-4,0h2v-1h-2Zm-4,0h2v-1h-2Zm-4,0h2v-1h-2Zm-4,0h2v-1h-2Zm-4,0h2v-1h-2Zm-4,0h2v-1h-2Zm-4,0h2v-1h-2Zm-4,0h2v-1h-2Zm-4,0h2v-1h-2Zm-4,0h2v-1h-2Zm-4,0h2v-1h-2Zm-4,0h2v-1h-2Zm-4,0h2v-1h-2Zm-4,0h2v-1h-2Zm-4,0h2v-1h-2Zm-4,0h2v-1h-2Zm-4,0h2v-1h-2Zm-4,0h2v-1h-2Zm-3,0h1v-1h-1Z"/><path d="M1005,184.09h2v-1h-2Zm-4,0h2v-1h-2Zm-4,0h2v-1h-2Zm-4,0h2v-1h-2Zm-4,0h2v-1h-2Zm-4,0h2v-1h-2Zm-4,0h2v-1h-2Zm-4,0h2v-1h-2Zm-4,0h2v-1h-2Zm-4,0h2v-1h-2Zm-4,0h2v-1h-2Zm-4,0h2v-1h-2Zm-4,0h2v-1h-2Zm-4,0h2v-1h-2Zm-4,0h2v-1h-2Zm-4,0h2v-1h-2Zm-4,0h2v-1h-2Zm-4,0h2v-1h-2Zm-4,0h2v-1h-2Zm-4,0h2v-1h-2Zm-4,0h2v-1h-2Zm-4,0h2v-1h-2Zm-4,0h2v-1h-2Zm-4,0h2v-1h-2Zm-4,0h2v-1h-2Zm-4,0h2v-1h-2Zm-4,0h2v-1h-2Zm-4,0h2v-1h-2Zm-4,0h2v-1h-2Zm-4,0h2v-1h-2Zm-4,0h2v-1h-2Zm-4,0h2v-1h-2Zm-4,0h2v-1h-2Zm-4,0h2v-1h-2Zm-4,0h2v-1h-2Zm-4,0h2v-1h-2Zm-4,0h2v-1h-2Zm-4,0h2v-1h-2Zm-4,0h2v-1h-2Zm-4,0h2v-1h-2Zm-4,0h2v-1h-2Zm-4,0h2v-1h-2Zm-4,0h2v-1h-2Zm-4,0h2v-1h-2Zm-4,0h2v-1h-2Zm-4,0h2v-1h-2Zm-4,0h2v-1h-2Zm-4,0h2v-1h-2Zm-4,0h2v-1h-2Zm-4,0h2v-1h-2Zm-4,0h2v-1h-2Zm-4,0h2v-1h-2Zm-4,0h2v-1h-2Zm-4,0h2v-1h-2Zm-4,0h2v-1h-2Zm-4,0h2v-1h-2Zm-4,0h2v-1h-2Zm-4,0h2v-1h-2Zm-4,0h2v-1h-2Zm-4,0h2v-1h-2Zm-4,0h2v-1h-2Zm-4,0h2v-1h-2Zm-4,0h2v-1h-2Zm-4,0h2v-1h-2Zm-4,0h2v-1h-2Zm-4,0h2v-1h-2Zm-4,0h2v-1h-2Zm-4,0h2v-1h-2Zm-4,0h2v-1h-2Zm-4,0h2v-1h-2Zm-4,0h2v-1h-2Zm-4,0h2v-1h-2Zm-4,0h2v-1h-2Zm-4,0h2v-1h-2Zm-4,0h2v-1h-2Zm-4,0h2v-1h-2Zm-4,0h2v-1h-2Zm-4,0h2v-1h-2Zm-4,0h2v-1h-2Zm-4,0h2v-1h-2Zm-4,0h2v-1h-2Zm-4,0h2v-1h-2Zm-4,0h2v-1h-2Zm-4,0h2v-1h-2Zm-4,0h2v-1h-2Zm-4,0h2v-1h-2Zm-4,0h2v-1h-2Zm-4,0h2v-1h-2Zm-4,0h2v-1h-2Zm-4,0h2v-1h-2Zm-4,0h2v-1h-2Zm-4,0h2v-1h-2Zm-4,0h2v-1h-2Zm-4,0h2v-1h-2Zm-4,0h2v-1h-2Zm-4,0h2v-1h-2Zm-4,0h2v-1h-2Zm-4,0h2v-1h-2Zm-4,0h2v-1h-2Zm-4,0h2v-1h-2Zm-4,0h2v-1h-2Zm-4,0h2v-1h-2Zm-4,0h2v-1h-2Zm-4,0h2v-1h-2Zm-4,0h2v-1h-2Zm-4,0h2v-1h-2Zm-4,0h2v-1h-2Zm-4,0h2v-1h-2Zm-4,0h2v-1h-2Zm-4,0h2v-1h-2Zm-4,0h2v-1h-2Zm-4,0h2v-1h-2Zm-4,0h2v-1h-2Zm-4,0h2v-1h-2Zm-4,0h2v-1h-2Zm-4,0h2v-1h-2Zm-4,0h2v-1h-2Zm-4,0h2v-1h-2Zm-4,0h2v-1h-2Zm-4,0h2v-1h-2Zm-4,0h2v-1h-2Zm-4,0h2v-1h-2Zm-4,0h2v-1h-2Zm-4,0h2v-1h-2Zm-4,0h2v-1h-2Zm-4,0h2v-1h-2Zm-4,0h2v-1h-2Zm-4,0h2v-1h-2Zm-4,0h2v-1h-2Zm-4,0h2v-1h-2Zm-4,0h2v-1h-2Zm-4,0h2v-1h-2Zm-4,0h2v-1h-2Zm-4,0h2v-1h-2Zm-4,0h2v-1h-2Zm-4,0h2v-1h-2Zm-4,0h2v-1h-2Zm-4,0h2v-1h-2Zm-4,0h2v-1h-2Zm-4,0h2v-1h-2Zm-4,0h2v-1h-2Zm-4,0h2v-1h-2Zm-4,0h2v-1h-2Zm-4,0h2v-1h-2Zm-4,0h2v-1h-2Zm-4,0h2v-1h-2Zm-4,0h2v-1h-2Zm-4,0h2v-1h-2Zm-4,0h2v-1h-2Zm-4,0h2v-1h-2Zm-4,0h2v-1h-2Zm-4,0h2v-1h-2Zm-4,0h2v-1h-2Zm-4,0h2v-1h-2Zm-4,0h2v-1h-2Zm-4,0h2v-1h-2Zm-4,0h2v-1h-2Zm-4,0h2v-1h-2Zm-4,0h2v-1h-2Zm-4,0h2v-1h-2Zm-4,0h2v-1h-2Zm-4,0h2v-1h-2Zm-4,0h2v-1h-2Zm-4,0h2v-1h-2Zm-4,0h2v-1h-2Zm-4,0h2v-1h-2Zm-4,0h2v-1h-2Zm-4,0h2v-1h-2Zm-4,0h2v-1h-2Zm-4,0h2v-1h-2Zm-4,0h2v-1h-2Zm-4,0h2v-1h-2Zm-4,0h2v-1h-2Zm-4,0h2v-1h-2Zm-4,0h2v-1h-2Zm-4,0h2v-1h-2Zm-4,0h2v-1h-2Zm-4,0h2v-1h-2Zm-4,0h2v-1h-2Zm-4,0h2v-1h-2Zm-4,0h2v-1h-2Zm-4,0h2v-1h-2Zm-4,0h2v-1h-2Zm-4,0h2v-1h-2Zm-4,0h2v-1h-2Zm-4,0h2v-1h-2Zm-4,0h2v-1h-2Zm-4,0h2v-1h-2Zm-4,0h2v-1h-2Zm-4,0h2v-1h-2Zm-4,0h2v-1h-2Zm-4,0h2v-1h-2Zm-4,0h2v-1h-2Zm-4,0h2v-1h-2Zm-4,0h2v-1h-2Zm-4,0h2v-1h-2Zm-4,0h2v-1h-2Zm-4,0h2v-1h-2Zm-4,0h2v-1h-2Zm16,0h2v-1h-2Zm-4,0h2v-1h-2Zm-4,0h2v-1h-2Zm-4,0h2v-1h-2Zm-4,0h2v-1h-2Zm-4,0h2v-1h-2Zm-4,0h2v-1h-2Zm-4,0h2v-1h-2Zm-4,0h2v-1h-2Zm-4,0h2v-1h-2Zm-4,0h2v-1h-2Zm-4,0h2v-1h-2Zm-4,0h2v-1h-2Zm-4,0h2v-1h-2Zm-4,0h2v-1h-2Zm-4,0h2v-1h-2Zm-4,0h2v-1h-2Zm-4,0h2v-1h-2Zm-4,0h2v-1h-2Zm-4,0h2v-1h-2Zm-4,0h2v-1h-2Zm-4,0h2v-1h-2Zm-4,0h2v-1h-2Zm-3,0h1v-1h-1Z"/><path d="M1005,275.09h2v-1h-2Zm-4,0h2v-1h-2Zm-4,0h2v-1h-2Zm-4,0h2v-1h-2Zm-4,0h2v-1h-2Zm-4,0h2v-1h-2Zm-4,0h2v-1h-2Zm-4,0h2v-1h-2Zm-4,0h2v-1h-2Zm-4,0h2v-1h-2Zm-4,0h2v-1h-2Zm-4,0h2v-1h-2Zm-4,0h2v-1h-2Zm-4,0h2v-1h-2Zm-4,0h2v-1h-2Zm-4,0h2v-1h-2Zm-4,0h2v-1h-2Zm-4,0h2v-1h-2Zm-4,0h2v-1h-2Zm-4,0h2v-1h-2Zm-4,0h2v-1h-2Zm-4,0h2v-1h-2Zm-4,0h2v-1h-2Zm-4,0h2v-1h-2Zm-4,0h2v-1h-2Zm-4,0h2v-1h-2Zm-4,0h2v-1h-2Zm-4,0h2v-1h-2Zm-4,0h2v-1h-2Zm-4,0h2v-1h-2Zm-4,0h2v-1h-2Zm-4,0h2v-1h-2Zm-4,0h2v-1h-2Zm-4,0h2v-1h-2Zm-4,0h2v-1h-2Zm-4,0h2v-1h-2Zm-4,0h2v-1h-2Zm-4,0h2v-1h-2Zm-4,0h2v-1h-2Zm-4,0h2v-1h-2Zm-4,0h2v-1h-2Zm-4,0h2v-1h-2Zm-4,0h2v-1h-2Zm-4,0h2v-1h-2Zm-4,0h2v-1h-2Zm-4,0h2v-1h-2Zm-4,0h2v-1h-2Zm-4,0h2v-1h-2Zm-4,0h2v-1h-2Zm-4,0h2v-1h-2Zm-4,0h2v-1h-2Zm-4,0h2v-1h-2Zm-4,0h2v-1h-2Zm-4,0h2v-1h-2Zm-4,0h2v-1h-2Zm-4,0h2v-1h-2Zm-4,0h2v-1h-2Zm-4,0h2v-1h-2Zm-4,0h2v-1h-2Zm-4,0h2v-1h-2Zm-4,0h2v-1h-2Zm-4,0h2v-1h-2Zm-4,0h2v-1h-2Zm-4,0h2v-1h-2Zm-4,0h2v-1h-2Zm-4,0h2v-1h-2Zm-4,0h2v-1h-2Zm-4,0h2v-1h-2Zm-4,0h2v-1h-2Zm-4,0h2v-1h-2Zm-4,0h2v-1h-2Zm-4,0h2v-1h-2Zm-4,0h2v-1h-2Zm-4,0h2v-1h-2Zm-4,0h2v-1h-2Zm-4,0h2v-1h-2Zm-4,0h2v-1h-2Zm-4,0h2v-1h-2Zm-4,0h2v-1h-2Zm-4,0h2v-1h-2Zm-4,0h2v-1h-2Zm-4,0h2v-1h-2Zm-4,0h2v-1h-2Zm-4,0h2v-1h-2Zm-4,0h2v-1h-2Zm-4,0h2v-1h-2Zm-4,0h2v-1h-2Zm-4,0h2v-1h-2Zm-4,0h2v-1h-2Zm-4,0h2v-1h-2Zm-4,0h2v-1h-2Zm-4,0h2v-1h-2Zm-4,0h2v-1h-2Zm-4,0h2v-1h-2Zm-4,0h2v-1h-2Zm-4,0h2v-1h-2Zm-4,0h2v-1h-2Zm-4,0h2v-1h-2Zm-4,0h2v-1h-2Zm-4,0h2v-1h-2Zm-4,0h2v-1h-2Zm-4,0h2v-1h-2Zm-4,0h2v-1h-2Zm-4,0h2v-1h-2Zm-4,0h2v-1h-2Zm-4,0h2v-1h-2Zm-4,0h2v-1h-2Zm-4,0h2v-1h-2Zm-4,0h2v-1h-2Zm-4,0h2v-1h-2Zm-4,0h2v-1h-2Zm-4,0h2v-1h-2Zm-4,0h2v-1h-2Zm-4,0h2v-1h-2Zm-4,0h2v-1h-2Zm-4,0h2v-1h-2Zm-4,0h2v-1h-2Zm-4,0h2v-1h-2Zm-4,0h2v-1h-2Zm-4,0h2v-1h-2Zm-4,0h2v-1h-2Zm-4,0h2v-1h-2Zm-4,0h2v-1h-2Zm-4,0h2v-1h-2Zm-4,0h2v-1h-2Zm-4,0h2v-1h-2Zm-4,0h2v-1h-2Zm-4,0h2v-1h-2Zm-4,0h2v-1h-2Zm-4,0h2v-1h-2Zm-4,0h2v-1h-2Zm-4,0h2v-1h-2Zm-4,0h2v-1h-2Zm-4,0h2v-1h-2Zm-4,0h2v-1h-2Zm-4,0h2v-1h-2Zm-4,0h2v-1h-2Zm-4,0h2v-1h-2Zm-4,0h2v-1h-2Zm-4,0h2v-1h-2Zm-4,0h2v-1h-2Zm-4,0h2v-1h-2Zm-4,0h2v-1h-2Zm-4,0h2v-1h-2Zm-4,0h2v-1h-2Zm-4,0h2v-1h-2Zm-4,0h2v-1h-2Zm-4,0h2v-1h-2Zm-4,0h2v-1h-2Zm-4,0h2v-1h-2Zm-4,0h2v-1h-2Zm-4,0h2v-1h-2Zm-4,0h2v-1h-2Zm-4,0h2v-1h-2Zm-4,0h2v-1h-2Zm-4,0h2v-1h-2Zm-4,0h2v-1h-2Zm-4,0h2v-1h-2Zm-4,0h2v-1h-2Zm-4,0h2v-1h-2Zm-4,0h2v-1h-2Zm-4,0h2v-1h-2Zm-4,0h2v-1h-2Zm-4,0h2v-1h-2Zm-4,0h2v-1h-2Zm-4,0h2v-1h-2Zm-4,0h2v-1h-2Zm-4,0h2v-1h-2Zm-4,0h2v-1h-2Zm-4,0h2v-1h-2Zm-4,0h2v-1h-2Zm-4,0h2v-1h-2Zm-4,0h2v-1h-2Zm-4,0h2v-1h-2Zm-4,0h2v-1h-2Zm-4,0h2v-1h-2Zm-4,0h2v-1h-2Zm-4,0h2v-1h-2Zm-4,0h2v-1h-2Zm-4,0h2v-1h-2Zm-4,0h2v-1h-2Zm-4,0h2v-1h-2Zm-4,0h2v-1h-2Zm-4,0h2v-1h-2Zm-4,0h2v-1h-2Zm-4,0h2v-1h-2Zm-4,0h2v-1h-2Zm-4,0h2v-1h-2Zm-4,0h2v-1h-2Zm-4,0h2v-1h-2Zm-4,0h2v-1h-2Zm-4,0h2v-1h-2Zm-4,0h2v-1h-2Zm-4,0h2v-1h-2Zm-4,0h2v-1h-2Zm-4,0h2v-1h-2Zm-4,0h2v-1h-2Zm-4,0h2v-1h-2Zm-4,0h2v-1h-2Zm16,0h2v-1h-2Zm-4,0h2v-1h-2Zm-4,0h2v-1h-2Zm-4,0h2v-1h-2Zm-4,0h2v-1h-2Zm-4,0h2v-1h-2Zm-4,0h2v-1h-2Zm-4,0h2v-1h-2Zm-4,0h2v-1h-2Zm-4,0h2v-1h-2Zm-4,0h2v-1h-2Zm-4,0h2v-1h-2Zm-4,0h2v-1h-2Zm-4,0h2v-1h-2Zm-4,0h2v-1h-2Zm-4,0h2v-1h-2Zm-4,0h2v-1h-2Zm-4,0h2v-1h-2Zm-4,0h2v-1h-2Zm-4,0h2v-1h-2Zm-4,0h2v-1h-2Zm-4,0h2v-1h-2Zm-4,0h2v-1h-2Zm-3,0h1v-1h-1Z"/><path d="M125.14,80.86l2.09,3.57,2.09-3.57h1.55l-2.82,4.36,2.82,4.37h-1.55l-2.09-3.39-2.09,3.39H123.6l2.77-4.37-2.77-4.36ZM118,89.75a4,4,0,0,1-1.8-.4,3.41,3.41,0,0,1-1.28-1.09,2.93,2.93,0,0,1-.53-1.58h1.36a1.83,1.83,0,0,0,.72,1.3,2.34,2.34,0,0,0,1.53.52,2.43,2.43,0,0,0,1.27-.34,2.39,2.39,0,0,0,.89-.92,2.79,2.79,0,0,0,.32-1.34,2.63,2.63,0,0,0-.34-1.35,2.45,2.45,0,0,0-.91-1,2.5,2.5,0,0,0-1.32-.35,3.57,3.57,0,0,0-1.1.16,2.91,2.91,0,0,0-.92.43l-1.32-.16.7-5.73h6V79.2h-4.86l-.41,3.43h.07a3,3,0,0,1,.89-.47,3.6,3.6,0,0,1,4.35,1.71,4.15,4.15,0,0,1,.48,2,3.87,3.87,0,0,1-.5,2A3.68,3.68,0,0,1,120,89.25,3.94,3.94,0,0,1,118,89.75Zm-12.26-.16L111,79.29V79.2h-6V78h7.45v1.32l-5.18,10.32Zm-3.53.09a1,1,0,0,1-.72-.3,1,1,0,0,1-.3-.73,1,1,0,0,1,2,0,1,1,0,0,1-.14.52,1,1,0,0,1-.37.37A1,1,0,0,1,102.23,89.68Z"/><path d="M125.14,170.86l2.09,3.57,2.09-3.57h1.55l-2.82,4.36,2.82,4.37h-1.55l-2.09-3.39-2.09,3.39H123.6l2.77-4.37-2.77-4.36ZM118,179.75a4,4,0,0,1-1.8-.4,3.41,3.41,0,0,1-1.28-1.09,2.93,2.93,0,0,1-.53-1.58h1.36a1.83,1.83,0,0,0,.72,1.3,2.34,2.34,0,0,0,1.53.52,2.43,2.43,0,0,0,1.27-.34,2.39,2.39,0,0,0,.89-.92,2.79,2.79,0,0,0,.32-1.34,2.63,2.63,0,0,0-.34-1.35,2.45,2.45,0,0,0-.91-1,2.5,2.5,0,0,0-1.32-.35,3.57,3.57,0,0,0-1.1.16,2.91,2.91,0,0,0-.92.43l-1.32-.16.7-5.73h6v1.25h-4.86l-.41,3.43h.07a3,3,0,0,1,.89-.47,3.6,3.6,0,0,1,4.35,1.71,4.15,4.15,0,0,1,.48,2,3.87,3.87,0,0,1-.5,2,3.68,3.68,0,0,1-1.36,1.38A3.94,3.94,0,0,1,118,179.75Zm-12.26-.16,5.21-10.3v-.09h-6V168h7.45v1.32l-5.18,10.32Zm-3.53.09a1,1,0,0,1-.72-.3,1,1,0,0,1-.3-.73,1,1,0,0,1,2,0,1,1,0,0,1-.14.52,1,1,0,0,1-.37.37A1,1,0,0,1,102.23,179.68Z"/><path d="M125.14,261.86l2.09,3.57,2.09-3.57h1.55l-2.82,4.36,2.82,4.37h-1.55l-2.09-3.39-2.09,3.39H123.6l2.77-4.37-2.77-4.36ZM118,270.75a4,4,0,0,1-1.8-.4,3.41,3.41,0,0,1-1.28-1.09,2.93,2.93,0,0,1-.53-1.58h1.36a1.83,1.83,0,0,0,.72,1.3,2.34,2.34,0,0,0,1.53.52,2.43,2.43,0,0,0,1.27-.34,2.39,2.39,0,0,0,.89-.92,2.79,2.79,0,0,0,.32-1.34,2.63,2.63,0,0,0-.34-1.35,2.45,2.45,0,0,0-.91-.95,2.5,2.5,0,0,0-1.32-.35,3.57,3.57,0,0,0-1.1.16,2.91,2.91,0,0,0-.92.43l-1.32-.16.7-5.73h6v1.25h-4.86l-.41,3.43h.07a3,3,0,0,1,.89-.47,3.6,3.6,0,0,1,4.35,1.71,4.15,4.15,0,0,1,.48,2,3.87,3.87,0,0,1-.5,2,3.68,3.68,0,0,1-1.36,1.38A3.94,3.94,0,0,1,118,270.75Zm-12.26-.16,5.21-10.3v-.09h-6V259h7.45v1.32l-5.18,10.32Zm-3.53.09a1,1,0,0,1-.72-.3,1,1,0,0,1-.3-.73,1,1,0,0,1,2,0,1,1,0,0,1-.14.52,1,1,0,0,1-.37.37A1,1,0,0,1,102.23,270.68Z"/><path d="M138,75.09h2v-1h-2Zm0,18h2v-1h-2Zm-.5-18.5v18h1v-18Zm.5,18h-.5v.5h.5Zm0-18v-.5h-.5v.5Z"/><path d="M138,166.09h2v-1h-2Zm0,18h2v-1h-2Zm-.5-18.5v18h1v-18Zm.5,18h-.5v.5h.5Zm0-18v-.5h-.5v.5Z"/><path d="M138,257.09h2v-1h-2Zm0,18h2v-1h-2Zm-.5-18.5v18h1v-18Zm.5,18h-.5v.5h.5Zm0-18v-.5h-.5v.5Z"/><g class="cls-1"><path d="M344.26,256.63V198.55h15q9.89,0,16.56,3.68a23.68,23.68,0,0,1,10.1,11.08q3.4,7.38,3.42,18.56t-3.42,18.6a25.24,25.24,0,0,1-4,6.16h19.89c3.31-7,5-15.25,5-24.76q0-15.17-5.61-26a39.28,39.28,0,0,0-16-16.71q-10.44-5.82-24.93-5.83H326.62v73.34Z"/><path d="M438,256.63a25.72,25.72,0,0,1-1.21-7.79h50.85v-5.28A46.45,46.45,0,0,0,484.93,227a31.49,31.49,0,0,0-7.3-11.48A29,29,0,0,0,467,208.85a37.16,37.16,0,0,0-12.75-2.17A34,34,0,0,0,436,211.46a32.34,32.34,0,0,0-12,13.31,43.46,43.46,0,0,0-4.3,19.79,49.4,49.4,0,0,0,1.41,12.07Zm7.25-34a16.91,16.91,0,0,1,9.26-2.54,16.51,16.51,0,0,1,8.67,2.24,15.65,15.65,0,0,1,5.83,6.11,18.75,18.75,0,0,1,2.14,8.81H436.77a19.07,19.07,0,0,1,2.22-8A17.71,17.71,0,0,1,445.2,222.62Z"/><polygon points="547.75 256.63 565.2 207.63 546.9 207.63 531.7 256.63 547.75 256.63"/><polygon points="527.7 256.63 512.54 207.63 494.2 207.63 511.65 256.63 527.7 256.63"/><path d="M600.08,256.63a30.17,30.17,0,0,1-3.54-6q-3.45-7.63-3.45-18.7t3.45-18.7a26.05,26.05,0,0,1,9.53-11.56,27,27,0,0,1,28,0,26.05,26.05,0,0,1,9.53,11.56q3.45,7.6,3.45,18.7t-3.45,18.7a30.17,30.17,0,0,1-3.54,6H660c3.17-7,4.78-15.21,4.78-24.66q0-15.74-5.87-26.93a41.84,41.84,0,0,0-16-17.13,47.05,47.05,0,0,0-45.77,0,41.89,41.89,0,0,0-16,17.13q-5.88,11.19-5.87,26.93c0,9.45,1.61,17.65,4.81,24.66Z"/><path d="M699.7,256.63l0-.09a39.26,39.26,0,0,1,0-24.71,17.75,17.75,0,0,1,5.83-8.14,16.71,16.71,0,0,1,19,.1,18.16,18.16,0,0,1,5.8,8.26,38.64,38.64,0,0,1,0,24.27l-.12.31h18.36a56.9,56.9,0,0,0,1.27-12.41q0-12.15-4-20.55A29.6,29.6,0,0,0,734.84,211a28.12,28.12,0,0,0-15.28-4.3A22.54,22.54,0,0,0,709,208.85a20.2,20.2,0,0,0-6.56,5.17,32.42,32.42,0,0,0-3.76,5.68h-1V207.63H680.78v49Z"/><path d="M783.72,249.4,796.17,252c3.35.73,5.84,1.77,7.44,3.13a7.25,7.25,0,0,1,1.31,1.48h18.6a16.4,16.4,0,0,0-5-10.55q-5.07-4.85-15.42-7.09l-12.46-2.66c-3.7-.84-6.36-1.94-7.95-3.27a6.31,6.31,0,0,1-2.36-5.19c0-2.47,1.16-4.47,3.59-6a16.41,16.41,0,0,1,9-2.33,16.05,16.05,0,0,1,6.76,1.28,11.89,11.89,0,0,1,4.39,3.38,12.86,12.86,0,0,1,2.31,4.46l15.68-1.71a23,23,0,0,0-9.15-14.77q-7.39-5.46-20.22-5.47a40.5,40.5,0,0,0-15.42,2.73,24,24,0,0,0-10.41,7.7,18.67,18.67,0,0,0-3.68,11.72,18,18,0,0,0,5,13.19Q773.21,247.21,783.72,249.4Z"/></g><g class="cls-2"><path d="M344.26,165.63V107.55h15q9.89,0,16.56,3.68a23.68,23.68,0,0,1,10.1,11.08q3.4,7.38,3.42,18.56t-3.42,18.6a25.24,25.24,0,0,1-4,6.16h19.89c3.31-7,5-15.25,5-24.76q0-15.17-5.61-26a39.33,39.33,0,0,0-16-16.71q-10.44-5.82-24.93-5.82H326.62v73.33Z"/><path d="M438,165.63a25.72,25.72,0,0,1-1.21-7.79h50.85v-5.28A46.45,46.45,0,0,0,484.93,136a31.49,31.49,0,0,0-7.3-11.48A29.15,29.15,0,0,0,467,117.85a37.16,37.16,0,0,0-12.75-2.17A34,34,0,0,0,436,120.46a32.34,32.34,0,0,0-12,13.31,43.46,43.46,0,0,0-4.3,19.79,49.4,49.4,0,0,0,1.41,12.07Zm7.25-34a17,17,0,0,1,9.26-2.53,16.51,16.51,0,0,1,8.67,2.23,15.65,15.65,0,0,1,5.83,6.11,18.75,18.75,0,0,1,2.14,8.81H436.77a19.07,19.07,0,0,1,2.22-8A17.71,17.71,0,0,1,445.2,131.62Z"/><polygon points="547.75 165.63 565.2 116.63 546.9 116.63 531.7 165.63 547.75 165.63"/><polygon points="527.7 165.63 512.54 116.63 494.2 116.63 511.65 165.63 527.7 165.63"/><path d="M600.08,165.63a30.17,30.17,0,0,1-3.54-6q-3.45-7.63-3.45-18.7t3.45-18.7a26.05,26.05,0,0,1,9.53-11.56,27,27,0,0,1,28,0,26.05,26.05,0,0,1,9.53,11.56q3.45,7.61,3.45,18.7t-3.45,18.7a30.17,30.17,0,0,1-3.54,6H660c3.17-7,4.78-15.21,4.78-24.66q0-15.74-5.87-26.93a41.84,41.84,0,0,0-16-17.13,47.05,47.05,0,0,0-45.77,0,41.89,41.89,0,0,0-16,17.13q-5.88,11.2-5.87,26.93c0,9.45,1.61,17.65,4.81,24.66Z"/><path d="M699.7,165.63l0-.09a39.26,39.26,0,0,1,0-24.71,17.75,17.75,0,0,1,5.83-8.14,16.71,16.71,0,0,1,19,.1,18.16,18.16,0,0,1,5.8,8.26,38.64,38.64,0,0,1,0,24.27l-.12.31h18.36a56.9,56.9,0,0,0,1.27-12.41q0-12.15-4-20.55A29.6,29.6,0,0,0,734.84,120a28.12,28.12,0,0,0-15.28-4.3A22.54,22.54,0,0,0,709,117.85a20.33,20.33,0,0,0-6.56,5.17,32.42,32.42,0,0,0-3.76,5.68h-1V116.63H680.78v49Z"/><path d="M783.72,158.4,796.17,161c3.35.73,5.84,1.77,7.44,3.14a7,7,0,0,1,1.31,1.47h18.6a16.42,16.42,0,0,0-5-10.55q-5.07-4.85-15.42-7.09l-12.46-2.65c-3.7-.85-6.36-2-7.95-3.28a6.31,6.31,0,0,1-2.36-5.19c0-2.47,1.16-4.47,3.59-6a16.41,16.41,0,0,1,9-2.33,16.05,16.05,0,0,1,6.76,1.28,11.89,11.89,0,0,1,4.39,3.38,12.82,12.82,0,0,1,2.31,4.47l15.68-1.71a23,23,0,0,0-9.15-14.78q-7.39-5.46-20.22-5.47a40.5,40.5,0,0,0-15.42,2.73,24,24,0,0,0-10.41,7.7,18.67,18.67,0,0,0-3.68,11.72,18,18,0,0,0,5,13.19Q773.21,156.21,783.72,158.4Z"/></g><g class="cls-3"><path d="M344.26,74.66V16.59h15q9.89,0,16.56,3.68a23.61,23.61,0,0,1,10.1,11.07q3.4,7.4,3.42,18.56t-3.42,18.61a25,25,0,0,1-4,6.15h19.89c3.31-7,5-15.24,5-24.76q0-15.15-5.61-26a39.25,39.25,0,0,0-16-16.7q-10.44-5.82-24.93-5.83H326.62V74.66Z"/><path d="M438,74.66a25.72,25.72,0,0,1-1.21-7.79h50.85V61.59A46.49,46.49,0,0,0,484.93,45a31.44,31.44,0,0,0-7.3-11.47A29.17,29.17,0,0,0,467,26.88a37.16,37.16,0,0,0-12.75-2.17A34,34,0,0,0,436,29.49,32.4,32.4,0,0,0,424,42.8a43.52,43.52,0,0,0-4.3,19.79,49.4,49.4,0,0,0,1.41,12.07Zm7.25-34a16.91,16.91,0,0,1,9.26-2.54,16.51,16.51,0,0,1,8.67,2.23A15.65,15.65,0,0,1,469,46.46a18.75,18.75,0,0,1,2.14,8.81H436.77a19.07,19.07,0,0,1,2.22-8A17.76,17.76,0,0,1,445.2,40.66Z"/><polygon points="547.75 74.66 565.2 25.66 546.9 25.66 531.7 74.66 547.75 74.66"/><polygon points="527.7 74.66 512.54 25.66 494.2 25.66 511.65 74.66 527.7 74.66"/><path d="M600.08,74.66a29.88,29.88,0,0,1-3.54-6q-3.45-7.62-3.45-18.7t3.45-18.7a26,26,0,0,1,9.53-11.55,27,27,0,0,1,28,0,26,26,0,0,1,9.53,11.55q3.45,7.62,3.45,18.7t-3.45,18.7a29.88,29.88,0,0,1-3.54,6H660c3.17-7,4.78-15.21,4.78-24.66q0-15.73-5.87-26.92A41.78,41.78,0,0,0,643,6,47,47,0,0,0,597.2,6a41.82,41.82,0,0,0-16,17.13Q575.36,34.27,575.37,50q0,14.18,4.81,24.66Z"/><path d="M699.7,74.66l0-.09a34.82,34.82,0,0,1-2-12.4,34.89,34.89,0,0,1,2-12.31,17.75,17.75,0,0,1,5.83-8.14,16.76,16.76,0,0,1,19,.1,18.19,18.19,0,0,1,5.8,8.27,35,35,0,0,1,1.94,12.08,34.89,34.89,0,0,1-2,12.18l-.12.31h18.36a56.83,56.83,0,0,0,1.27-12.41q0-12.15-4-20.55A29.72,29.72,0,0,0,734.84,29a28.12,28.12,0,0,0-15.28-4.3A22.54,22.54,0,0,0,709,26.88a20.47,20.47,0,0,0-6.56,5.17,32.47,32.47,0,0,0-3.76,5.69h-1V25.66H680.78v49Z"/><path d="M783.72,67.44l12.45,2.61a17.21,17.21,0,0,1,7.44,3.14,7.2,7.2,0,0,1,1.31,1.47h18.6a16.4,16.4,0,0,0-5-10.54q-5.07-4.86-15.42-7.09l-12.46-2.66c-3.7-.85-6.36-1.95-7.95-3.28a6.3,6.3,0,0,1-2.36-5.18c0-2.48,1.16-4.48,3.59-6a16.5,16.5,0,0,1,9-2.33,16,16,0,0,1,6.76,1.29,11.87,11.87,0,0,1,4.39,3.37,12.9,12.9,0,0,1,2.31,4.47L822.07,45a23,23,0,0,0-9.15-14.78q-7.39-5.46-20.22-5.47a40.49,40.49,0,0,0-15.42,2.74,23.84,23.84,0,0,0-10.41,7.7,18.66,18.66,0,0,0-3.68,11.71,18,18,0,0,0,5,13.19Q773.21,65.26,783.72,67.44Z"/></g><path d="M93.71,356.86l2.09,3.56,2.09-3.56h1.55l-2.82,4.36,2.82,4.36H97.89L95.8,362.2l-2.09,3.38H92.16l2.78-4.36-2.78-4.36ZM89.34,354v11.63H87.93V355.42h-.07L85,357.31v-1.43L87.93,354Z"/><path d="M126.54,318.86l2.09,3.56,2.09-3.56h1.55l-2.82,4.36,2.82,4.36h-1.55l-2.09-3.38-2.09,3.38H125l2.78-4.36L125,318.86Zm-6.09,8.72V316h1.35v11.63ZM115,325.2V324l5.11-8.09h.84v1.79h-.57l-3.86,6.12V324h6.89v1.25Z"/><path d="M62,353.77a4.11,4.11,0,0,1-2.18-.56,3.74,3.74,0,0,1-1.4-1.57,5.28,5.28,0,0,1-.49-2.35,5.4,5.4,0,0,1,.49-2.37,3.84,3.84,0,0,1,1.37-1.6,3.74,3.74,0,0,1,2.07-.58,4.25,4.25,0,0,1,1.35.23,3.41,3.41,0,0,1,1.21.74,3.62,3.62,0,0,1,.87,1.34,5.86,5.86,0,0,1,.32,2.06v.56H58.91v-1.15h5.37a2.79,2.79,0,0,0-.3-1.32,2.24,2.24,0,0,0-.83-.92,2.37,2.37,0,0,0-1.26-.33,2.46,2.46,0,0,0-1.39.39,2.77,2.77,0,0,0-.89,1,3,3,0,0,0-.31,1.35v.77a3.73,3.73,0,0,0,.34,1.68,2.48,2.48,0,0,0,1,1,2.86,2.86,0,0,0,1.43.35,2.83,2.83,0,0,0,.95-.15,1.92,1.92,0,0,0,.74-.45,2.21,2.21,0,0,0,.49-.76l1.29.36a2.79,2.79,0,0,1-.68,1.16,3.31,3.31,0,0,1-1.2.77A4.42,4.42,0,0,1,62,353.77Zm-9.35-.19v-8.72H54v1.31h.1a2,2,0,0,1,.86-1.05,2.55,2.55,0,0,1,1.41-.4H57v1.37a1.59,1.59,0,0,0-.31-.05,2.78,2.78,0,0,0-.51,0,2.33,2.33,0,0,0-1.13.26,2.13,2.13,0,0,0-.79.73,2,2,0,0,0-.28,1.05v5.52Zm-5.65.19a4.11,4.11,0,0,1-2.18-.56,3.74,3.74,0,0,1-1.4-1.57,5.28,5.28,0,0,1-.49-2.35,5.4,5.4,0,0,1,.49-2.37,3.84,3.84,0,0,1,1.37-1.6,3.74,3.74,0,0,1,2.07-.58,4.15,4.15,0,0,1,1.34.23,3.37,3.37,0,0,1,1.22.74,3.62,3.62,0,0,1,.87,1.34,5.86,5.86,0,0,1,.32,2.06v.56H43.91v-1.15h5.37a2.79,2.79,0,0,0-.3-1.32,2.24,2.24,0,0,0-.83-.92,2.37,2.37,0,0,0-1.26-.33,2.46,2.46,0,0,0-1.39.39,2.77,2.77,0,0,0-.89,1,3,3,0,0,0-.31,1.35v.77a3.73,3.73,0,0,0,.34,1.68,2.48,2.48,0,0,0,1,1,2.86,2.86,0,0,0,1.43.35,2.83,2.83,0,0,0,.95-.15,1.92,1.92,0,0,0,.74-.45,2.21,2.21,0,0,0,.49-.76l1.29.36a2.79,2.79,0,0,1-.68,1.16,3.31,3.31,0,0,1-1.2.77A4.42,4.42,0,0,1,47,353.77Zm-15.33-.19V342h1.41v5.18h6.21V342h1.41v11.63H39.32v-5.2H33.11v5.2Zm-9.9-10.81h1.34v8.31a1.76,1.76,0,0,0,.17.86.81.81,0,0,0,.43.37,1.73,1.73,0,0,0,.56.09l.36,0,.23-.05.27,1.21a2.48,2.48,0,0,1-.38.1,2.65,2.65,0,0,1-.62.06,2.6,2.6,0,0,1-1.11-.25,2.22,2.22,0,0,1-.9-.74,2.18,2.18,0,0,1-.35-1.26ZM25,344.86V346H20.48v-1.13ZM17.41,350v-5.16h1.34v8.72H17.41v-1.47h-.09a2.84,2.84,0,0,1-.95,1.13,2.81,2.81,0,0,1-1.64.46,2.89,2.89,0,0,1-1.45-.36,2.47,2.47,0,0,1-1-1.09,4.06,4.06,0,0,1-.37-1.85v-5.54h1.34v5.45a2.11,2.11,0,0,0,.54,1.52,1.81,1.81,0,0,0,1.37.57,2.26,2.26,0,0,0,1-.25,2.19,2.19,0,0,0,.87-.79A2.33,2.33,0,0,0,17.41,350Zm-7.59-4.44H8.41a3,3,0,0,0-1.19-1.84,3,3,0,0,0-1-.47,3.77,3.77,0,0,0-1.11-.16,3.51,3.51,0,0,0-1.92.53,3.76,3.76,0,0,0-1.36,1.57,6.78,6.78,0,0,0,0,5.11,3.76,3.76,0,0,0,1.36,1.57,3.51,3.51,0,0,0,1.92.53,4.13,4.13,0,0,0,1.11-.15,3.26,3.26,0,0,0,1-.48A2.89,2.89,0,0,0,8,351,3,3,0,0,0,8.41,350H9.82a4.79,4.79,0,0,1-.58,1.59,4.33,4.33,0,0,1-1.05,1.2,4.39,4.39,0,0,1-1.4.75,5.27,5.27,0,0,1-1.65.25A4.9,4.9,0,0,1,2.49,353,5.13,5.13,0,0,1,.66,351a8,8,0,0,1,0-6.37,5,5,0,0,1,1.83-2.06,4.82,4.82,0,0,1,2.65-.73,5.27,5.27,0,0,1,1.65.25,4.39,4.39,0,0,1,1.4.75A4.33,4.33,0,0,1,9.24,344,4.71,4.71,0,0,1,9.82,345.58Z"/><rect x="74.05" y="347.08" width="26" height="1"/><path d="M106.05,348.08h2v-1h-2Zm0,24h2v-1h-2Zm-.5-24.5v24h1v-24Zm.5,24h-.5v.5h.5Zm0-24v-.5h-.5v.5Z"/><path d="M138.05,275.08h2v-1h-2Zm0,97h2v-1h-2Zm-.5-97.5v97h1v-97Zm.5,97h-.5v.5h.5Zm0-97v-.5h-.5v.5Z"/><path d="M356,371.59H323V274.25h33.65q14.49,0,24.92,5.83a39.22,39.22,0,0,1,16,16.71q5.61,10.88,5.61,26T397.61,349a39.34,39.34,0,0,1-16.21,16.77Q370.83,371.59,356,371.59Zm-15.35-15.26h14.5q10.17,0,17-3.73a23.54,23.54,0,0,0,10.22-11.17q3.42-7.44,3.42-18.6t-3.42-18.56a23.58,23.58,0,0,0-10.1-11.08q-6.68-3.68-16.56-3.68h-15Z"/><path d="M451.52,373q-11,0-18.94-4.58a30.63,30.63,0,0,1-12.23-13q-4.29-8.43-4.28-19.89a43.32,43.32,0,0,1,4.3-19.78,32.31,32.31,0,0,1,12-13.31,34,34,0,0,1,18.21-4.78,37.21,37.21,0,0,1,12.76,2.16A29.05,29.05,0,0,1,474,306.48a31.27,31.27,0,0,1,7.3,11.48A46.21,46.21,0,0,1,484,334.51v5.29H424.15V328.2h43.34a18.63,18.63,0,0,0-2.14-8.81,15.49,15.49,0,0,0-5.82-6.11,16.44,16.44,0,0,0-8.67-2.24,16.92,16.92,0,0,0-9.27,2.54,17.81,17.81,0,0,0-6.2,6.65,19,19,0,0,0-2.26,9v10.12a23.68,23.68,0,0,0,2.33,10.91,16.38,16.38,0,0,0,6.51,6.94,19.33,19.33,0,0,0,9.79,2.4,20.16,20.16,0,0,0,6.79-1.07,14.82,14.82,0,0,0,5.28-3.16,13.26,13.26,0,0,0,3.38-5.18l16.06,1.8a25,25,0,0,1-5.78,11.1,27.89,27.89,0,0,1-10.86,7.32A41.08,41.08,0,0,1,451.52,373Z"/><path d="M561.59,298.58l-26,73h-19l-26-73h18.34l16.77,54.23h.77l16.82-54.23Z"/><path d="M661.21,322.92q0,15.74-5.87,26.93a42,42,0,0,1-16,17.13,47,47,0,0,1-45.77,0,42.14,42.14,0,0,1-16-17.17q-5.86-11.19-5.87-26.87T577.63,296a41.85,41.85,0,0,1,16-17.13,47,47,0,0,1,45.77,0,41.91,41.91,0,0,1,16,17.13Q661.21,307.19,661.21,322.92Zm-17.73,0q0-11.07-3.45-18.7a26,26,0,0,0-9.53-11.55,27,27,0,0,0-28,0,26.09,26.09,0,0,0-9.53,11.55q-3.43,7.62-3.44,18.7t3.44,18.7a26,26,0,0,0,9.53,11.55,27,27,0,0,0,28,0A25.91,25.91,0,0,0,640,341.62Q643.48,334,643.48,322.92Z"/><path d="M677.17,399V298.58h16.92v12.08h1a32.42,32.42,0,0,1,3.76-5.68,20.31,20.31,0,0,1,6.55-5.18A22.62,22.62,0,0,1,716,297.64a28.06,28.06,0,0,1,15.28,4.3,29.67,29.67,0,0,1,10.83,12.69q4,8.39,4,20.55t-4,20.44a30,30,0,0,1-10.74,12.83,27.61,27.61,0,0,1-15.4,4.42,23.05,23.05,0,0,1-10.41-2.09,20.64,20.64,0,0,1-6.62-5.06,31.58,31.58,0,0,1-3.88-5.63h-.71V399ZM694,335.09a35.1,35.1,0,0,0,2,12.41,18.6,18.6,0,0,0,5.85,8.28,14.64,14.64,0,0,0,9.29,3,14.86,14.86,0,0,0,9.55-3.07,18.67,18.67,0,0,0,5.82-8.41,38.45,38.45,0,0,0,0-24.27,18,18,0,0,0-5.8-8.26,16.71,16.71,0,0,0-19-.1,17.68,17.68,0,0,0-5.82,8.13A34.7,34.7,0,0,0,694,335.09Z"/><path d="M818.46,317.88l-15.68,1.71a12.75,12.75,0,0,0-2.3-4.46,11.82,11.82,0,0,0-4.4-3.38,16,16,0,0,0-6.75-1.28,16.37,16.37,0,0,0-9,2.33c-2.43,1.55-3.62,3.56-3.59,6a6.28,6.28,0,0,0,2.35,5.18c1.6,1.33,4.25,2.43,8,3.28L799.5,330q10.37,2.24,15.42,7.09c3.38,3.22,5.08,7.46,5.11,12.69a19.87,19.87,0,0,1-4,12.14,26,26,0,0,1-11,8.19A41.39,41.39,0,0,1,788.86,373q-13.41,0-21.58-5.63a22.45,22.45,0,0,1-9.74-15.7l16.78-1.63a11.74,11.74,0,0,0,4.84,7.46,16.77,16.77,0,0,0,9.65,2.53q6.13,0,9.86-2.53t3.73-6.21a6.53,6.53,0,0,0-2.4-5.19,17,17,0,0,0-7.44-3.13l-12.45-2.62q-10.5-2.19-15.54-7.38a18.07,18.07,0,0,1-5-13.19,18.79,18.79,0,0,1,3.68-11.72,24.05,24.05,0,0,1,10.41-7.7,40.51,40.51,0,0,1,15.43-2.73q12.82,0,20.21,5.46A23,23,0,0,1,818.46,317.88Z"/><path d="M1005,372.08h2v-1h-2Zm-4,0h2v-1h-2Zm-4,0h2v-1h-2Zm-4,0h2v-1h-2Zm-4,0h2v-1h-2Zm-4,0h2v-1h-2Zm-4,0h2v-1h-2Zm-4,0h2v-1h-2Zm-4,0h2v-1h-2Zm-4,0h2v-1h-2Zm-4,0h2v-1h-2Zm-4,0h2v-1h-2Zm-4,0h2v-1h-2Zm-4,0h2v-1h-2Zm-4,0h2v-1h-2Zm-4,0h2v-1h-2Zm-4,0h2v-1h-2Zm-4,0h2v-1h-2Zm-4,0h2v-1h-2Zm-4,0h2v-1h-2Zm-4,0h2v-1h-2Zm-4,0h2v-1h-2Zm-4,0h2v-1h-2Zm-4,0h2v-1h-2Zm-4,0h2v-1h-2Zm-4,0h2v-1h-2Zm-4,0h2v-1h-2Zm-4,0h2v-1h-2Zm-4,0h2v-1h-2Zm-4,0h2v-1h-2Zm-4,0h2v-1h-2Zm-4,0h2v-1h-2Zm-4,0h2v-1h-2Zm-4,0h2v-1h-2Zm-4,0h2v-1h-2Zm-4,0h2v-1h-2Zm-4,0h2v-1h-2Zm-4,0h2v-1h-2Zm-4,0h2v-1h-2Zm-4,0h2v-1h-2Zm-4,0h2v-1h-2Zm-4,0h2v-1h-2Zm-4,0h2v-1h-2Zm-4,0h2v-1h-2Zm-4,0h2v-1h-2Zm-4,0h2v-1h-2Zm-4,0h2v-1h-2Zm-4,0h2v-1h-2Zm-4,0h2v-1h-2Zm-4,0h2v-1h-2Zm-4,0h2v-1h-2Zm-4,0h2v-1h-2Zm-4,0h2v-1h-2Zm-4,0h2v-1h-2Zm-4,0h2v-1h-2Zm-4,0h2v-1h-2Zm-4,0h2v-1h-2Zm-4,0h2v-1h-2Zm-4,0h2v-1h-2Zm-4,0h2v-1h-2Zm-4,0h2v-1h-2Zm-4,0h2v-1h-2Zm-4,0h2v-1h-2Zm-4,0h2v-1h-2Zm-4,0h2v-1h-2Zm-4,0h2v-1h-2Zm-4,0h2v-1h-2Zm-4,0h2v-1h-2Zm-4,0h2v-1h-2Zm-4,0h2v-1h-2Zm-4,0h2v-1h-2Zm-4,0h2v-1h-2Zm-4,0h2v-1h-2Zm-4,0h2v-1h-2Zm-4,0h2v-1h-2Zm-4,0h2v-1h-2Zm-4,0h2v-1h-2Zm-4,0h2v-1h-2Zm-4,0h2v-1h-2Zm-4,0h2v-1h-2Zm-4,0h2v-1h-2Zm-4,0h2v-1h-2Zm-4,0h2v-1h-2Zm-4,0h2v-1h-2Zm-4,0h2v-1h-2Zm-4,0h2v-1h-2Zm-4,0h2v-1h-2Zm-4,0h2v-1h-2Zm-4,0h2v-1h-2Zm-4,0h2v-1h-2Zm-4,0h2v-1h-2Zm-4,0h2v-1h-2Zm-4,0h2v-1h-2Zm-4,0h2v-1h-2Zm-4,0h2v-1h-2Zm-4,0h2v-1h-2Zm-4,0h2v-1h-2Zm-4,0h2v-1h-2Zm-4,0h2v-1h-2Zm-4,0h2v-1h-2Zm-4,0h2v-1h-2Zm-4,0h2v-1h-2Zm-4,0h2v-1h-2Zm-4,0h2v-1h-2Zm-4,0h2v-1h-2Zm-4,0h2v-1h-2Zm-4,0h2v-1h-2Zm-4,0h2v-1h-2Zm-4,0h2v-1h-2Zm-4,0h2v-1h-2Zm-4,0h2v-1h-2Zm-4,0h2v-1h-2Zm-4,0h2v-1h-2Zm-4,0h2v-1h-2Zm-4,0h2v-1h-2Zm-4,0h2v-1h-2Zm-4,0h2v-1h-2Zm-4,0h2v-1h-2Zm-4,0h2v-1h-2Zm-4,0h2v-1h-2Zm-4,0h2v-1h-2Zm-4,0h2v-1h-2Zm-4,0h2v-1h-2Zm-4,0h2v-1h-2Zm-4,0h2v-1h-2Zm-4,0h2v-1h-2Zm-4,0h2v-1h-2Zm-4,0h2v-1h-2Zm-4,0h2v-1h-2Zm-4,0h2v-1h-2Zm-4,0h2v-1h-2Zm-4,0h2v-1h-2Zm-4,0h2v-1h-2Zm-4,0h2v-1h-2Zm-4,0h2v-1h-2Zm-4,0h2v-1h-2Zm-4,0h2v-1h-2Zm-4,0h2v-1h-2Zm-4,0h2v-1h-2Zm-4,0h2v-1h-2Zm-4,0h2v-1h-2Zm-4,0h2v-1h-2Zm-4,0h2v-1h-2Zm-4,0h2v-1h-2Zm-4,0h2v-1h-2Zm-4,0h2v-1h-2Zm-4,0h2v-1h-2Zm-4,0h2v-1h-2Zm-4,0h2v-1h-2Zm-4,0h2v-1h-2Zm-4,0h2v-1h-2Zm-4,0h2v-1h-2Zm-4,0h2v-1h-2Zm-4,0h2v-1h-2Zm-4,0h2v-1h-2Zm-4,0h2v-1h-2Zm-4,0h2v-1h-2Zm-4,0h2v-1h-2Zm-4,0h2v-1h-2Zm-4,0h2v-1h-2Zm-4,0h2v-1h-2Zm-4,0h2v-1h-2Zm-4,0h2v-1h-2Zm-4,0h2v-1h-2Zm-4,0h2v-1h-2Zm-4,0h2v-1h-2Zm-4,0h2v-1h-2Zm-4,0h2v-1h-2Zm-4,0h2v-1h-2Zm-4,0h2v-1h-2Zm-4,0h2v-1h-2Zm-4,0h2v-1h-2Zm-4,0h2v-1h-2Zm-4,0h2v-1h-2Zm-4,0h2v-1h-2Zm-4,0h2v-1h-2Zm-4,0h2v-1h-2Zm-4,0h2v-1h-2Zm-4,0h2v-1h-2Zm-4,0h2v-1h-2Zm-4,0h2v-1h-2Zm-4,0h2v-1h-2Zm-4,0h2v-1h-2Zm-4,0h2v-1h-2Zm-4,0h2v-1h-2Zm-4,0h2v-1h-2Zm-4,0h2v-1h-2Zm-4,0h2v-1h-2Zm-4,0h2v-1h-2Zm-4,0h2v-1h-2Zm-4,0h2v-1h-2Zm-4,0h2v-1h-2Zm-4,0h2v-1h-2Zm-4,0h2v-1h-2Zm-4,0h2v-1h-2Zm-4,0h2v-1h-2Zm-4,0h2v-1h-2Zm-4,0h2v-1h-2Zm-4,0h2v-1h-2Zm16,0h2v-1h-2Zm-4,0h2v-1h-2Zm-4,0h2v-1h-2Zm-4,0h2v-1h-2Zm-4,0h2v-1h-2Zm-4,0h2v-1h-2Zm-4,0h2v-1h-2Zm-4,0h2v-1h-2Zm-4,0h2v-1h-2Zm-4,0h2v-1h-2Zm-4,0h2v-1h-2Zm-4,0h2v-1h-2Zm-4,0h2v-1h-2Zm-4,0h2v-1h-2Zm-4,0h2v-1h-2Zm-4,0h2v-1h-2Zm-4,0h2v-1h-2Zm-4,0h2v-1h-2Zm-4,0h2v-1h-2Zm-4,0h2v-1h-2Zm-4,0h2v-1h-2Zm-4,0h2v-1h-2Zm-4,0h2v-1h-2Zm-3,0h1v-1h-1Z"/><path d="M1005,348.08h2v-1h-2Zm-4,0h2v-1h-2Zm-4,0h2v-1h-2Zm-4,0h2v-1h-2Zm-4,0h2v-1h-2Zm-4,0h2v-1h-2Zm-4,0h2v-1h-2Zm-4,0h2v-1h-2Zm-4,0h2v-1h-2Zm-4,0h2v-1h-2Zm-4,0h2v-1h-2Zm-4,0h2v-1h-2Zm-4,0h2v-1h-2Zm-4,0h2v-1h-2Zm-4,0h2v-1h-2Zm-4,0h2v-1h-2Zm-4,0h2v-1h-2Zm-4,0h2v-1h-2Zm-4,0h2v-1h-2Zm-4,0h2v-1h-2Zm-4,0h2v-1h-2Zm-4,0h2v-1h-2Zm-4,0h2v-1h-2Zm-4,0h2v-1h-2Zm-4,0h2v-1h-2Zm-4,0h2v-1h-2Zm-4,0h2v-1h-2Zm-4,0h2v-1h-2Zm-4,0h2v-1h-2Zm-4,0h2v-1h-2Zm-4,0h2v-1h-2Zm-4,0h2v-1h-2Zm-4,0h2v-1h-2Zm-4,0h2v-1h-2Zm-4,0h2v-1h-2Zm-4,0h2v-1h-2Zm-4,0h2v-1h-2Zm-4,0h2v-1h-2Zm-4,0h2v-1h-2Zm-4,0h2v-1h-2Zm-4,0h2v-1h-2Zm-4,0h2v-1h-2Zm-4,0h2v-1h-2Zm-4,0h2v-1h-2Zm-4,0h2v-1h-2Zm-4,0h2v-1h-2Zm-4,0h2v-1h-2Zm-4,0h2v-1h-2Zm-4,0h2v-1h-2Zm-4,0h2v-1h-2Zm-4,0h2v-1h-2Zm-4,0h2v-1h-2Zm-4,0h2v-1h-2Zm-4,0h2v-1h-2Zm-4,0h2v-1h-2Zm-4,0h2v-1h-2Zm-4,0h2v-1h-2Zm-4,0h2v-1h-2Zm-4,0h2v-1h-2Zm-4,0h2v-1h-2Zm-4,0h2v-1h-2Zm-4,0h2v-1h-2Zm-4,0h2v-1h-2Zm-4,0h2v-1h-2Zm-4,0h2v-1h-2Zm-4,0h2v-1h-2Zm-4,0h2v-1h-2Zm-4,0h2v-1h-2Zm-4,0h2v-1h-2Zm-4,0h2v-1h-2Zm-4,0h2v-1h-2Zm-4,0h2v-1h-2Zm-4,0h2v-1h-2Zm-4,0h2v-1h-2Zm-4,0h2v-1h-2Zm-4,0h2v-1h-2Zm-4,0h2v-1h-2Zm-4,0h2v-1h-2Zm-4,0h2v-1h-2Zm-4,0h2v-1h-2Zm-4,0h2v-1h-2Zm-4,0h2v-1h-2Zm-4,0h2v-1h-2Zm-4,0h2v-1h-2Zm-4,0h2v-1h-2Zm-4,0h2v-1h-2Zm-4,0h2v-1h-2Zm-4,0h2v-1h-2Zm-4,0h2v-1h-2Zm-4,0h2v-1h-2Zm-4,0h2v-1h-2Zm-4,0h2v-1h-2Zm-4,0h2v-1h-2Zm-4,0h2v-1h-2Zm-4,0h2v-1h-2Zm-4,0h2v-1h-2Zm-4,0h2v-1h-2Zm-4,0h2v-1h-2Zm-4,0h2v-1h-2Zm-4,0h2v-1h-2Zm-4,0h2v-1h-2Zm-4,0h2v-1h-2Zm-4,0h2v-1h-2Zm-4,0h2v-1h-2Zm-4,0h2v-1h-2Zm-4,0h2v-1h-2Zm-4,0h2v-1h-2Zm-4,0h2v-1h-2Zm-4,0h2v-1h-2Zm-4,0h2v-1h-2Zm-4,0h2v-1h-2Zm-4,0h2v-1h-2Zm-4,0h2v-1h-2Zm-4,0h2v-1h-2Zm-4,0h2v-1h-2Zm-4,0h2v-1h-2Zm-4,0h2v-1h-2Zm-4,0h2v-1h-2Zm-4,0h2v-1h-2Zm-4,0h2v-1h-2Zm-4,0h2v-1h-2Zm-4,0h2v-1h-2Zm-4,0h2v-1h-2Zm-4,0h2v-1h-2Zm-4,0h2v-1h-2Zm-4,0h2v-1h-2Zm-4,0h2v-1h-2Zm-4,0h2v-1h-2Zm-4,0h2v-1h-2Zm-4,0h2v-1h-2Zm-4,0h2v-1h-2Zm-4,0h2v-1h-2Zm-4,0h2v-1h-2Zm-4,0h2v-1h-2Zm-4,0h2v-1h-2Zm-4,0h2v-1h-2Zm-4,0h2v-1h-2Zm-4,0h2v-1h-2Zm-4,0h2v-1h-2Zm-4,0h2v-1h-2Zm-4,0h2v-1h-2Zm-4,0h2v-1h-2Zm-4,0h2v-1h-2Zm-4,0h2v-1h-2Zm-4,0h2v-1h-2Zm-4,0h2v-1h-2Zm-4,0h2v-1h-2Zm-4,0h2v-1h-2Zm-4,0h2v-1h-2Zm-4,0h2v-1h-2Zm-4,0h2v-1h-2Zm-4,0h2v-1h-2Zm-4,0h2v-1h-2Zm-4,0h2v-1h-2Zm-4,0h2v-1h-2Zm-4,0h2v-1h-2Zm-4,0h2v-1h-2Zm-4,0h2v-1h-2Zm-4,0h2v-1h-2Zm-4,0h2v-1h-2Zm-4,0h2v-1h-2Zm-4,0h2v-1h-2Zm-4,0h2v-1h-2Zm-4,0h2v-1h-2Zm-4,0h2v-1h-2Zm-4,0h2v-1h-2Zm-4,0h2v-1h-2Zm-4,0h2v-1h-2Zm-4,0h2v-1h-2Zm-4,0h2v-1h-2Zm-4,0h2v-1h-2Zm-4,0h2v-1h-2Zm-4,0h2v-1h-2Zm-4,0h2v-1h-2Zm-4,0h2v-1h-2Zm-4,0h2v-1h-2Zm-4,0h2v-1h-2Zm-4,0h2v-1h-2Zm-4,0h2v-1h-2Zm-4,0h2v-1h-2Zm-4,0h2v-1h-2Zm-4,0h2v-1h-2Zm-4,0h2v-1h-2Zm-4,0h2v-1h-2Zm-4,0h2v-1h-2Zm-4,0h2v-1h-2Zm-4,0h2v-1h-2Zm-4,0h2v-1h-2Zm-4,0h2v-1h-2Zm-4,0h2v-1h-2Zm-4,0h2v-1h-2Zm-4,0h2v-1h-2Zm-4,0h2v-1h-2Zm-4,0h2v-1h-2Zm-4,0h2v-1h-2Zm-4,0h2v-1h-2Zm-4,0h2v-1h-2Zm-4,0h2v-1h-2Zm-4,0h2v-1h-2Zm16,0h2v-1h-2Zm-4,0h2v-1h-2Zm-4,0h2v-1h-2Zm-4,0h2v-1h-2Zm-4,0h2v-1h-2Zm-4,0h2v-1h-2Zm-4,0h2v-1h-2Zm-4,0h2v-1h-2Zm-4,0h2v-1h-2Zm-4,0h2v-1h-2Zm-4,0h2v-1h-2Zm-4,0h2v-1h-2Zm-4,0h2v-1h-2Zm-4,0h2v-1h-2Zm-4,0h2v-1h-2Zm-4,0h2v-1h-2Zm-4,0h2v-1h-2Zm-4,0h2v-1h-2Zm-4,0h2v-1h-2Zm-4,0h2v-1h-2Zm-4,0h2v-1h-2Zm-4,0h2v-1h-2Zm-4,0h2v-1h-2Zm-3,0h1v-1h-1Z"/><rect x="135.83" y="347.08" width="2" height="1"/><rect x="131.83" y="347.08" width="2" height="1"/><rect x="127.83" y="347.08" width="2" height="1"/><rect x="123.83" y="347.08" width="2" height="1"/><rect x="119.83" y="347.08" width="2" height="1"/><rect x="115.83" y="347.08" width="2" height="1"/><rect x="127.83" y="347.08" width="2" height="1"/><rect x="123.83" y="347.08" width="2" height="1"/><rect x="119.83" y="347.08" width="2" height="1"/><rect x="115.83" y="347.08" width="2" height="1"/><rect x="135.83" y="347.08" width="2" height="1"/><rect x="131.83" y="347.08" width="2" height="1"/><rect x="127.83" y="347.08" width="2" height="1"/><rect x="123.83" y="347.08" width="2" height="1"/><rect x="119.83" y="347.08" width="2" height="1"/><rect x="115.83" y="347.08" width="2" height="1"/><rect x="111.83" y="347.08" width="2" height="1"/><rect x="108.83" y="347.08" width="1" height="1"/><rect x="135.83" y="371.08" width="2" height="1"/><rect x="131.83" y="371.08" width="2" height="1"/><rect x="127.83" y="371.08" width="2" height="1"/><rect x="123.83" y="371.08" width="2" height="1"/><rect x="119.83" y="371.08" width="2" height="1"/><rect x="115.83" y="371.08" width="2" height="1"/><rect x="127.83" y="371.08" width="2" height="1"/><rect x="123.83" y="371.08" width="2" height="1"/><rect x="119.83" y="371.08" width="2" height="1"/><rect x="115.83" y="371.08" width="2" height="1"/><rect x="135.83" y="371.08" width="2" height="1"/><rect x="131.83" y="371.08" width="2" height="1"/><rect x="127.83" y="371.08" width="2" height="1"/><rect x="123.83" y="371.08" width="2" height="1"/><rect x="119.83" y="371.08" width="2" height="1"/><rect x="115.83" y="371.08" width="2" height="1"/><rect x="111.83" y="371.08" width="2" height="1"/><rect x="108.83" y="371.08" width="1" height="1"/></g></g></svg>