<svg xmlns="http://www.w3.org/2000/svg" viewBox="0 0 978.65 815.03"><g data-name="Layer 2"><path d="M973.05 491.16h2v-1h-2Zm-4 0h2v-1h-2Zm-4 0h2v-1h-2Zm-4 0h2v-1h-2Zm-4 0h2v-1h-2Zm-4 0h2v-1h-2Zm-4 0h2v-1h-2Zm-4 0h2v-1h-2Zm-4 0h2v-1h-2Zm-4 0h2v-1h-2Zm-4 0h2v-1h-2Zm-4 0h2v-1h-2Zm-4 0h2v-1h-2Zm-4 0h2v-1h-2Zm-4 0h2v-1h-2Zm-4 0h2v-1h-2Zm-4 0h2v-1h-2Zm-4 0h2v-1h-2Zm-4 0h2v-1h-2Zm-4 0h2v-1h-2Zm-4 0h2v-1h-2Zm-4 0h2v-1h-2Zm-4 0h2v-1h-2Zm-4 0h2v-1h-2Zm-4 0h2v-1h-2Zm-4 0h2v-1h-2Zm-4 0h2v-1h-2Zm-4 0h2v-1h-2Zm-4 0h2v-1h-2Zm-4 0h2v-1h-2Zm-4 0h2v-1h-2Zm-4 0h2v-1h-2Zm-4 0h2v-1h-2Zm-4 0h2v-1h-2Zm-4 0h2v-1h-2Zm-4 0h2v-1h-2Zm-4 0h2v-1h-2Zm-4 0h2v-1h-2Zm-4 0h2v-1h-2Zm-4 0h2v-1h-2Zm-4 0h2v-1h-2Zm-4 0h2v-1h-2Zm-4 0h2v-1h-2Zm-4 0h2v-1h-2Zm-4 0h2v-1h-2Zm-4 0h2v-1h-2Zm-4 0h2v-1h-2Zm-4 0h2v-1h-2Zm-4 0h2v-1h-2Zm-4 0h2v-1h-2Zm-4 0h2v-1h-2Zm-4 0h2v-1h-2Zm-4 0h2v-1h-2Zm-4 0h2v-1h-2Zm-4 0h2v-1h-2Zm-4 0h2v-1h-2Zm-4 0h2v-1h-2Zm-4 0h2v-1h-2Zm-4 0h2v-1h-2Zm-4 0h2v-1h-2Zm-4 0h2v-1h-2Zm-4 0h2v-1h-2Zm-4 0h2v-1h-2Zm-4 0h2v-1h-2Zm-4 0h2v-1h-2Zm-4 0h2v-1h-2Zm-4 0h2v-1h-2Zm-4 0h2v-1h-2Zm-4 0h2v-1h-2Zm-4 0h2v-1h-2Zm-4 0h2v-1h-2Zm-4 0h2v-1h-2Zm-4 0h2v-1h-2Zm-4 0h2v-1h-2Zm-4 0h2v-1h-2Zm-4 0h2v-1h-2Zm-4 0h2v-1h-2Zm-4 0h2v-1h-2Zm-4 0h2v-1h-2Zm-4 0h2v-1h-2Zm-4 0h2v-1h-2Zm-4 0h2v-1h-2Zm-4 0h2v-1h-2Zm-4 0h2v-1h-2Zm-4 0h2v-1h-2Zm-4 0h2v-1h-2Zm-4 0h2v-1h-2Zm-4 0h2v-1h-2Zm-4 0h2v-1h-2Zm-4 0h2v-1h-2Zm-4 0h2v-1h-2Zm-4 0h2v-1h-2Zm-4 0h2v-1h-2Zm-4 0h2v-1h-2Zm-4 0h2v-1h-2Zm-4 0h2v-1h-2Zm-4 0h2v-1h-2Zm-4 0h2v-1h-2Zm-4 0h2v-1h-2Zm-4 0h2v-1h-2Zm-4 0h2v-1h-2Zm-4 0h2v-1h-2Zm-4 0h2v-1h-2Zm-4 0h2v-1h-2Zm-4 0h2v-1h-2Zm-4 0h2v-1h-2Zm-4 0h2v-1h-2Zm-4 0h2v-1h-2Zm-4 0h2v-1h-2Zm-4 0h2v-1h-2Zm-4 0h2v-1h-2Zm-4 0h2v-1h-2Zm-4 0h2v-1h-2Zm-4 0h2v-1h-2Zm-4 0h2v-1h-2Zm-4 0h2v-1h-2Zm-4 0h2v-1h-2Zm-4 0h2v-1h-2Zm-4 0h2v-1h-2Zm-4 0h2v-1h-2Zm-4 0h2v-1h-2Zm-4 0h2v-1h-2Zm-4 0h2v-1h-2Zm-4 0h2v-1h-2Zm-4 0h2v-1h-2Zm-4 0h2v-1h-2Zm-4 0h2v-1h-2Zm-4 0h2v-1h-2Zm-4 0h2v-1h-2Zm-4 0h2v-1h-2Zm-4 0h2v-1h-2Zm-4 0h2v-1h-2Zm-4 0h2v-1h-2Zm-4 0h2v-1h-2Zm-4 0h2v-1h-2Zm-4 0h2v-1h-2Zm-4 0h2v-1h-2Zm-4 0h2v-1h-2Zm-4 0h2v-1h-2Zm-4 0h2v-1h-2Zm-4 0h2v-1h-2Zm-4 0h2v-1h-2Zm-4 0h2v-1h-2Zm-4 0h2v-1h-2Zm-4 0h2v-1h-2Zm-4 0h2v-1h-2Zm-4 0h2v-1h-2Zm-4 0h2v-1h-2Zm-4 0h2v-1h-2Zm-4 0h2v-1h-2Zm-4 0h2v-1h-2Zm-4 0h2v-1h-2Zm-4 0h2v-1h-2Zm-4 0h2v-1h-2Zm-4 0h2v-1h-2Zm-4 0h2v-1h-2Zm-4 0h2v-1h-2Zm-4 0h2v-1h-2Zm-4 0h2v-1h-2Zm-4 0h2v-1h-2Zm-4 0h2v-1h-2Zm-4 0h2v-1h-2Zm-4 0h2v-1h-2Zm-4 0h2v-1h-2Zm-4 0h2v-1h-2Zm-4 0h2v-1h-2Zm-4 0h2v-1h-2Zm-4 0h2v-1h-2Zm-4 0h2v-1h-2Zm-4 0h2v-1h-2Zm-4 0h2v-1h-2Zm-4 0h2v-1h-2Zm-4 0h2v-1h-2Zm-4 0h2v-1h-2Zm-4 0h2v-1h-2Zm-4 0h2v-1h-2Zm-4 0h2v-1h-2Zm-4 0h2v-1h-2Zm-4 0h2v-1h-2Zm-4 0h2v-1h-2Zm-4 0h2v-1h-2Zm-4 0h2v-1h-2Zm-4 0h2v-1h-2Zm-4 0h2v-1h-2Zm-4 0h2v-1h-2Zm-4 0h2v-1h-2Zm-4 0h2v-1h-2Zm-4 0h2v-1h-2Zm-4 0h2v-1h-2Zm-4 0h2v-1h-2Zm-4 0h2v-1h-2Zm-4 0h2v-1h-2Zm-4 0h2v-1h-2Zm-4 0h2v-1h-2Zm-4 0h2v-1h-2Zm-4 0h2v-1h-2Zm-4 0h2v-1h-2Zm-4 0h2v-1h-2Zm-4 0h2v-1h-2Zm-4 0h2v-1h-2Zm-4 0h2v-1h-2Zm-4 0h2v-1h-2Zm-4 0h2v-1h-2Zm-4 0h2v-1h-2Zm-4 0h2v-1h-2Zm-4 0h2v-1h-2Zm-4 0h2v-1h-2Zm-4 0h2v-1h-2Zm-4 0h2v-1h-2Zm-4 0h2v-1h-2Zm-4 0h2v-1h-2Zm-4 0h2v-1h-2Zm-4 0h2v-1h-2Zm-4 0h2v-1h-2Zm-4 0h2v-1h-2Zm-4 0h2v-1h-2Zm16 0h2v-1h-2Zm-4 0h2v-1h-2Zm-4 0h2v-1h-2Zm-4 0h2v-1h-2Zm-4 0h2v-1h-2Zm-4 0h2v-1h-2Zm-4 0h2v-1h-2Zm-4 0h2v-1h-2Zm-4 0h2v-1h-2Zm-4 0h2v-1h-2Zm-4 0h2v-1h-2Zm-4 0h2v-1h-2Zm-4 0h2v-1h-2Zm-4 0h2v-1h-2Zm-4 0h2v-1h-2Zm-4 0h2v-1h-2Zm-4 0h2v-1h-2Zm-4 0h2v-1h-2Zm-4 0h2v-1h-2Zm-4 0h2v-1h-2Zm-4 0h2v-1h-2Zm-4 0h2v-1h-2Zm-4 0h2v-1h-2Zm-3 0h1v-1h-1ZM973.05 582.16h2v-1h-2Zm-4 0h2v-1h-2Zm-4 0h2v-1h-2Zm-4 0h2v-1h-2Zm-4 0h2v-1h-2Zm-4 0h2v-1h-2Zm-4 0h2v-1h-2Zm-4 0h2v-1h-2Zm-4 0h2v-1h-2Zm-4 0h2v-1h-2Zm-4 0h2v-1h-2Zm-4 0h2v-1h-2Zm-4 0h2v-1h-2Zm-4 0h2v-1h-2Zm-4 0h2v-1h-2Zm-4 0h2v-1h-2Zm-4 0h2v-1h-2Zm-4 0h2v-1h-2Zm-4 0h2v-1h-2Zm-4 0h2v-1h-2Zm-4 0h2v-1h-2Zm-4 0h2v-1h-2Zm-4 0h2v-1h-2Zm-4 0h2v-1h-2Zm-4 0h2v-1h-2Zm-4 0h2v-1h-2Zm-4 0h2v-1h-2Zm-4 0h2v-1h-2Zm-4 0h2v-1h-2Zm-4 0h2v-1h-2Zm-4 0h2v-1h-2Zm-4 0h2v-1h-2Zm-4 0h2v-1h-2Zm-4 0h2v-1h-2Zm-4 0h2v-1h-2Zm-4 0h2v-1h-2Zm-4 0h2v-1h-2Zm-4 0h2v-1h-2Zm-4 0h2v-1h-2Zm-4 0h2v-1h-2Zm-4 0h2v-1h-2Zm-4 0h2v-1h-2Zm-4 0h2v-1h-2Zm-4 0h2v-1h-2Zm-4 0h2v-1h-2Zm-4 0h2v-1h-2Zm-4 0h2v-1h-2Zm-4 0h2v-1h-2Zm-4 0h2v-1h-2Zm-4 0h2v-1h-2Zm-4 0h2v-1h-2Zm-4 0h2v-1h-2Zm-4 0h2v-1h-2Zm-4 0h2v-1h-2Zm-4 0h2v-1h-2Zm-4 0h2v-1h-2Zm-4 0h2v-1h-2Zm-4 0h2v-1h-2Zm-4 0h2v-1h-2Zm-4 0h2v-1h-2Zm-4 0h2v-1h-2Zm-4 0h2v-1h-2Zm-4 0h2v-1h-2Zm-4 0h2v-1h-2Zm-4 0h2v-1h-2Zm-4 0h2v-1h-2Zm-4 0h2v-1h-2Zm-4 0h2v-1h-2Zm-4 0h2v-1h-2Zm-4 0h2v-1h-2Zm-4 0h2v-1h-2Zm-4 0h2v-1h-2Zm-4 0h2v-1h-2Zm-4 0h2v-1h-2Zm-4 0h2v-1h-2Zm-4 0h2v-1h-2Zm-4 0h2v-1h-2Zm-4 0h2v-1h-2Zm-4 0h2v-1h-2Zm-4 0h2v-1h-2Zm-4 0h2v-1h-2Zm-4 0h2v-1h-2Zm-4 0h2v-1h-2Zm-4 0h2v-1h-2Zm-4 0h2v-1h-2Zm-4 0h2v-1h-2Zm-4 0h2v-1h-2Zm-4 0h2v-1h-2Zm-4 0h2v-1h-2Zm-4 0h2v-1h-2Zm-4 0h2v-1h-2Zm-4 0h2v-1h-2Zm-4 0h2v-1h-2Zm-4 0h2v-1h-2Zm-4 0h2v-1h-2Zm-4 0h2v-1h-2Zm-4 0h2v-1h-2Zm-4 0h2v-1h-2Zm-4 0h2v-1h-2Zm-4 0h2v-1h-2Zm-4 0h2v-1h-2Zm-4 0h2v-1h-2Zm-4 0h2v-1h-2Zm-4 0h2v-1h-2Zm-4 0h2v-1h-2Zm-4 0h2v-1h-2Zm-4 0h2v-1h-2Zm-4 0h2v-1h-2Zm-4 0h2v-1h-2Zm-4 0h2v-1h-2Zm-4 0h2v-1h-2Zm-4 0h2v-1h-2Zm-4 0h2v-1h-2Zm-4 0h2v-1h-2Zm-4 0h2v-1h-2Zm-4 0h2v-1h-2Zm-4 0h2v-1h-2Zm-4 0h2v-1h-2Zm-4 0h2v-1h-2Zm-4 0h2v-1h-2Zm-4 0h2v-1h-2Zm-4 0h2v-1h-2Zm-4 0h2v-1h-2Zm-4 0h2v-1h-2Zm-4 0h2v-1h-2Zm-4 0h2v-1h-2Zm-4 0h2v-1h-2Zm-4 0h2v-1h-2Zm-4 0h2v-1h-2Zm-4 0h2v-1h-2Zm-4 0h2v-1h-2Zm-4 0h2v-1h-2Zm-4 0h2v-1h-2Zm-4 0h2v-1h-2Zm-4 0h2v-1h-2Zm-4 0h2v-1h-2Zm-4 0h2v-1h-2Zm-4 0h2v-1h-2Zm-4 0h2v-1h-2Zm-4 0h2v-1h-2Zm-4 0h2v-1h-2Zm-4 0h2v-1h-2Zm-4 0h2v-1h-2Zm-4 0h2v-1h-2Zm-4 0h2v-1h-2Zm-4 0h2v-1h-2Zm-4 0h2v-1h-2Zm-4 0h2v-1h-2Zm-4 0h2v-1h-2Zm-4 0h2v-1h-2Zm-4 0h2v-1h-2Zm-4 0h2v-1h-2Zm-4 0h2v-1h-2Zm-4 0h2v-1h-2Zm-4 0h2v-1h-2Zm-4 0h2v-1h-2Zm-4 0h2v-1h-2Zm-4 0h2v-1h-2Zm-4 0h2v-1h-2Zm-4 0h2v-1h-2Zm-4 0h2v-1h-2Zm-4 0h2v-1h-2Zm-4 0h2v-1h-2Zm-4 0h2v-1h-2Zm-4 0h2v-1h-2Zm-4 0h2v-1h-2Zm-4 0h2v-1h-2Zm-4 0h2v-1h-2Zm-4 0h2v-1h-2Zm-4 0h2v-1h-2Zm-4 0h2v-1h-2Zm-4 0h2v-1h-2Zm-4 0h2v-1h-2Zm-4 0h2v-1h-2Zm-4 0h2v-1h-2Zm-4 0h2v-1h-2Zm-4 0h2v-1h-2Zm-4 0h2v-1h-2Zm-4 0h2v-1h-2Zm-4 0h2v-1h-2Zm-4 0h2v-1h-2Zm-4 0h2v-1h-2Zm-4 0h2v-1h-2Zm-4 0h2v-1h-2Zm-4 0h2v-1h-2Zm-4 0h2v-1h-2Zm-4 0h2v-1h-2Zm-4 0h2v-1h-2Zm-4 0h2v-1h-2Zm-4 0h2v-1h-2Zm-4 0h2v-1h-2Zm-4 0h2v-1h-2Zm-4 0h2v-1h-2Zm-4 0h2v-1h-2Zm-4 0h2v-1h-2Zm-4 0h2v-1h-2Zm-4 0h2v-1h-2Zm-4 0h2v-1h-2Zm-4 0h2v-1h-2Zm-4 0h2v-1h-2Zm-4 0h2v-1h-2Zm-4 0h2v-1h-2Zm-4 0h2v-1h-2Zm-4 0h2v-1h-2Zm-4 0h2v-1h-2Zm-4 0h2v-1h-2Zm-4 0h2v-1h-2Zm-4 0h2v-1h-2Zm-4 0h2v-1h-2Zm-4 0h2v-1h-2Zm-4 0h2v-1h-2Zm-4 0h2v-1h-2Zm-4 0h2v-1h-2Zm-4 0h2v-1h-2Zm-4 0h2v-1h-2Zm-4 0h2v-1h-2Zm16 0h2v-1h-2Zm-4 0h2v-1h-2Zm-4 0h2v-1h-2Zm-4 0h2v-1h-2Zm-4 0h2v-1h-2Zm-4 0h2v-1h-2Zm-4 0h2v-1h-2Zm-4 0h2v-1h-2Zm-4 0h2v-1h-2Zm-4 0h2v-1h-2Zm-4 0h2v-1h-2Zm-4 0h2v-1h-2Zm-4 0h2v-1h-2Zm-4 0h2v-1h-2Zm-4 0h2v-1h-2Zm-4 0h2v-1h-2Zm-4 0h2v-1h-2Zm-4 0h2v-1h-2Zm-4 0h2v-1h-2Zm-4 0h2v-1h-2Zm-4 0h2v-1h-2Zm-4 0h2v-1h-2Zm-4 0h2v-1h-2Zm-3 0h1v-1h-1ZM973.05 673.16h2v-1h-2Zm-4 0h2v-1h-2Zm-4 0h2v-1h-2Zm-4 0h2v-1h-2Zm-4 0h2v-1h-2Zm-4 0h2v-1h-2Zm-4 0h2v-1h-2Zm-4 0h2v-1h-2Zm-4 0h2v-1h-2Zm-4 0h2v-1h-2Zm-4 0h2v-1h-2Zm-4 0h2v-1h-2Zm-4 0h2v-1h-2Zm-4 0h2v-1h-2Zm-4 0h2v-1h-2Zm-4 0h2v-1h-2Zm-4 0h2v-1h-2Zm-4 0h2v-1h-2Zm-4 0h2v-1h-2Zm-4 0h2v-1h-2Zm-4 0h2v-1h-2Zm-4 0h2v-1h-2Zm-4 0h2v-1h-2Zm-4 0h2v-1h-2Zm-4 0h2v-1h-2Zm-4 0h2v-1h-2Zm-4 0h2v-1h-2Zm-4 0h2v-1h-2Zm-4 0h2v-1h-2Zm-4 0h2v-1h-2Zm-4 0h2v-1h-2Zm-4 0h2v-1h-2Zm-4 0h2v-1h-2Zm-4 0h2v-1h-2Zm-4 0h2v-1h-2Zm-4 0h2v-1h-2Zm-4 0h2v-1h-2Zm-4 0h2v-1h-2Zm-4 0h2v-1h-2Zm-4 0h2v-1h-2Zm-4 0h2v-1h-2Zm-4 0h2v-1h-2Zm-4 0h2v-1h-2Zm-4 0h2v-1h-2Zm-4 0h2v-1h-2Zm-4 0h2v-1h-2Zm-4 0h2v-1h-2Zm-4 0h2v-1h-2Zm-4 0h2v-1h-2Zm-4 0h2v-1h-2Zm-4 0h2v-1h-2Zm-4 0h2v-1h-2Zm-4 0h2v-1h-2Zm-4 0h2v-1h-2Zm-4 0h2v-1h-2Zm-4 0h2v-1h-2Zm-4 0h2v-1h-2Zm-4 0h2v-1h-2Zm-4 0h2v-1h-2Zm-4 0h2v-1h-2Zm-4 0h2v-1h-2Zm-4 0h2v-1h-2Zm-4 0h2v-1h-2Zm-4 0h2v-1h-2Zm-4 0h2v-1h-2Zm-4 0h2v-1h-2Zm-4 0h2v-1h-2Zm-4 0h2v-1h-2Zm-4 0h2v-1h-2Zm-4 0h2v-1h-2Zm-4 0h2v-1h-2Zm-4 0h2v-1h-2Zm-4 0h2v-1h-2Zm-4 0h2v-1h-2Zm-4 0h2v-1h-2Zm-4 0h2v-1h-2Zm-4 0h2v-1h-2Zm-4 0h2v-1h-2Zm-4 0h2v-1h-2Zm-4 0h2v-1h-2Zm-4 0h2v-1h-2Zm-4 0h2v-1h-2Zm-4 0h2v-1h-2Zm-4 0h2v-1h-2Zm-4 0h2v-1h-2Zm-4 0h2v-1h-2Zm-4 0h2v-1h-2Zm-4 0h2v-1h-2Zm-4 0h2v-1h-2Zm-4 0h2v-1h-2Zm-4 0h2v-1h-2Zm-4 0h2v-1h-2Zm-4 0h2v-1h-2Zm-4 0h2v-1h-2Zm-4 0h2v-1h-2Zm-4 0h2v-1h-2Zm-4 0h2v-1h-2Zm-4 0h2v-1h-2Zm-4 0h2v-1h-2Zm-4 0h2v-1h-2Zm-4 0h2v-1h-2Zm-4 0h2v-1h-2Zm-4 0h2v-1h-2Zm-4 0h2v-1h-2Zm-4 0h2v-1h-2Zm-4 0h2v-1h-2Zm-4 0h2v-1h-2Zm-4 0h2v-1h-2Zm-4 0h2v-1h-2Zm-4 0h2v-1h-2Zm-4 0h2v-1h-2Zm-4 0h2v-1h-2Zm-4 0h2v-1h-2Zm-4 0h2v-1h-2Zm-4 0h2v-1h-2Zm-4 0h2v-1h-2Zm-4 0h2v-1h-2Zm-4 0h2v-1h-2Zm-4 0h2v-1h-2Zm-4 0h2v-1h-2Zm-4 0h2v-1h-2Zm-4 0h2v-1h-2Zm-4 0h2v-1h-2Zm-4 0h2v-1h-2Zm-4 0h2v-1h-2Zm-4 0h2v-1h-2Zm-4 0h2v-1h-2Zm-4 0h2v-1h-2Zm-4 0h2v-1h-2Zm-4 0h2v-1h-2Zm-4 0h2v-1h-2Zm-4 0h2v-1h-2Zm-4 0h2v-1h-2Zm-4 0h2v-1h-2Zm-4 0h2v-1h-2Zm-4 0h2v-1h-2Zm-4 0h2v-1h-2Zm-4 0h2v-1h-2Zm-4 0h2v-1h-2Zm-4 0h2v-1h-2Zm-4 0h2v-1h-2Zm-4 0h2v-1h-2Zm-4 0h2v-1h-2Zm-4 0h2v-1h-2Zm-4 0h2v-1h-2Zm-4 0h2v-1h-2Zm-4 0h2v-1h-2Zm-4 0h2v-1h-2Zm-4 0h2v-1h-2Zm-4 0h2v-1h-2Zm-4 0h2v-1h-2Zm-4 0h2v-1h-2Zm-4 0h2v-1h-2Zm-4 0h2v-1h-2Zm-4 0h2v-1h-2Zm-4 0h2v-1h-2Zm-4 0h2v-1h-2Zm-4 0h2v-1h-2Zm-4 0h2v-1h-2Zm-4 0h2v-1h-2Zm-4 0h2v-1h-2Zm-4 0h2v-1h-2Zm-4 0h2v-1h-2Zm-4 0h2v-1h-2Zm-4 0h2v-1h-2Zm-4 0h2v-1h-2Zm-4 0h2v-1h-2Zm-4 0h2v-1h-2Zm-4 0h2v-1h-2Zm-4 0h2v-1h-2Zm-4 0h2v-1h-2Zm-4 0h2v-1h-2Zm-4 0h2v-1h-2Zm-4 0h2v-1h-2Zm-4 0h2v-1h-2Zm-4 0h2v-1h-2Zm-4 0h2v-1h-2Zm-4 0h2v-1h-2Zm-4 0h2v-1h-2Zm-4 0h2v-1h-2Zm-4 0h2v-1h-2Zm-4 0h2v-1h-2Zm-4 0h2v-1h-2Zm-4 0h2v-1h-2Zm-4 0h2v-1h-2Zm-4 0h2v-1h-2Zm-4 0h2v-1h-2Zm-4 0h2v-1h-2Zm-4 0h2v-1h-2Zm-4 0h2v-1h-2Zm-4 0h2v-1h-2Zm-4 0h2v-1h-2Zm-4 0h2v-1h-2Zm-4 0h2v-1h-2Zm-4 0h2v-1h-2Zm-4 0h2v-1h-2Zm-4 0h2v-1h-2Zm-4 0h2v-1h-2Zm-4 0h2v-1h-2Zm-4 0h2v-1h-2Zm-4 0h2v-1h-2Zm-4 0h2v-1h-2Zm-4 0h2v-1h-2Zm-4 0h2v-1h-2Zm-4 0h2v-1h-2Zm-4 0h2v-1h-2Zm-4 0h2v-1h-2Zm-4 0h2v-1h-2Zm-4 0h2v-1h-2Zm-4 0h2v-1h-2Zm-4 0h2v-1h-2Zm-4 0h2v-1h-2Zm-4 0h2v-1h-2Zm-4 0h2v-1h-2Zm-4 0h2v-1h-2Zm-4 0h2v-1h-2Zm16 0h2v-1h-2Zm-4 0h2v-1h-2Zm-4 0h2v-1h-2Zm-4 0h2v-1h-2Zm-4 0h2v-1h-2Zm-4 0h2v-1h-2Zm-4 0h2v-1h-2Zm-4 0h2v-1h-2Zm-4 0h2v-1h-2Zm-4 0h2v-1h-2Zm-4 0h2v-1h-2Zm-4 0h2v-1h-2Zm-4 0h2v-1h-2Zm-4 0h2v-1h-2Zm-4 0h2v-1h-2Zm-4 0h2v-1h-2Zm-4 0h2v-1h-2Zm-4 0h2v-1h-2Zm-4 0h2v-1h-2Zm-4 0h2v-1h-2Zm-4 0h2v-1h-2Zm-4 0h2v-1h-2Zm-4 0h2v-1h-2Zm-3 0h1v-1h-1ZM973.05 509.16h2v-1h-2Zm-4 0h2v-1h-2Zm-4 0h2v-1h-2Zm-4 0h2v-1h-2Zm-4 0h2v-1h-2Zm-4 0h2v-1h-2Zm-4 0h2v-1h-2Zm-4 0h2v-1h-2Zm-4 0h2v-1h-2Zm-4 0h2v-1h-2Zm-4 0h2v-1h-2Zm-4 0h2v-1h-2Zm-4 0h2v-1h-2Zm-4 0h2v-1h-2Zm-4 0h2v-1h-2Zm-4 0h2v-1h-2Zm-4 0h2v-1h-2Zm-4 0h2v-1h-2Zm-4 0h2v-1h-2Zm-4 0h2v-1h-2Zm-4 0h2v-1h-2Zm-4 0h2v-1h-2Zm-4 0h2v-1h-2Zm-4 0h2v-1h-2Zm-4 0h2v-1h-2Zm-4 0h2v-1h-2Zm-4 0h2v-1h-2Zm-4 0h2v-1h-2Zm-4 0h2v-1h-2Zm-4 0h2v-1h-2Zm-4 0h2v-1h-2Zm-4 0h2v-1h-2Zm-4 0h2v-1h-2Zm-4 0h2v-1h-2Zm-4 0h2v-1h-2Zm-4 0h2v-1h-2Zm-4 0h2v-1h-2Zm-4 0h2v-1h-2Zm-4 0h2v-1h-2Zm-4 0h2v-1h-2Zm-4 0h2v-1h-2Zm-4 0h2v-1h-2Zm-4 0h2v-1h-2Zm-4 0h2v-1h-2Zm-4 0h2v-1h-2Zm-4 0h2v-1h-2Zm-4 0h2v-1h-2Zm-4 0h2v-1h-2Zm-4 0h2v-1h-2Zm-4 0h2v-1h-2Zm-4 0h2v-1h-2Zm-4 0h2v-1h-2Zm-4 0h2v-1h-2Zm-4 0h2v-1h-2Zm-4 0h2v-1h-2Zm-4 0h2v-1h-2Zm-4 0h2v-1h-2Zm-4 0h2v-1h-2Zm-4 0h2v-1h-2Zm-4 0h2v-1h-2Zm-4 0h2v-1h-2Zm-4 0h2v-1h-2Zm-4 0h2v-1h-2Zm-4 0h2v-1h-2Zm-4 0h2v-1h-2Zm-4 0h2v-1h-2Zm-4 0h2v-1h-2Zm-4 0h2v-1h-2Zm-4 0h2v-1h-2Zm-4 0h2v-1h-2Zm-4 0h2v-1h-2Zm-4 0h2v-1h-2Zm-4 0h2v-1h-2Zm-4 0h2v-1h-2Zm-4 0h2v-1h-2Zm-4 0h2v-1h-2Zm-4 0h2v-1h-2Zm-4 0h2v-1h-2Zm-4 0h2v-1h-2Zm-4 0h2v-1h-2Zm-4 0h2v-1h-2Zm-4 0h2v-1h-2Zm-4 0h2v-1h-2Zm-4 0h2v-1h-2Zm-4 0h2v-1h-2Zm-4 0h2v-1h-2Zm-4 0h2v-1h-2Zm-4 0h2v-1h-2Zm-4 0h2v-1h-2Zm-4 0h2v-1h-2Zm-4 0h2v-1h-2Zm-4 0h2v-1h-2Zm-4 0h2v-1h-2Zm-4 0h2v-1h-2Zm-4 0h2v-1h-2Zm-4 0h2v-1h-2Zm-4 0h2v-1h-2Zm-4 0h2v-1h-2Zm-4 0h2v-1h-2Zm-4 0h2v-1h-2Zm-4 0h2v-1h-2Zm-4 0h2v-1h-2Zm-4 0h2v-1h-2Zm-4 0h2v-1h-2Zm-4 0h2v-1h-2Zm-4 0h2v-1h-2Zm-4 0h2v-1h-2Zm-4 0h2v-1h-2Zm-4 0h2v-1h-2Zm-4 0h2v-1h-2Zm-4 0h2v-1h-2Zm-4 0h2v-1h-2Zm-4 0h2v-1h-2Zm-4 0h2v-1h-2Zm-4 0h2v-1h-2Zm-4 0h2v-1h-2Zm-4 0h2v-1h-2Zm-4 0h2v-1h-2Zm-4 0h2v-1h-2Zm-4 0h2v-1h-2Zm-4 0h2v-1h-2Zm-4 0h2v-1h-2Zm-4 0h2v-1h-2Zm-4 0h2v-1h-2Zm-4 0h2v-1h-2Zm-4 0h2v-1h-2Zm-4 0h2v-1h-2Zm-4 0h2v-1h-2Zm-4 0h2v-1h-2Zm-4 0h2v-1h-2Zm-4 0h2v-1h-2Zm-4 0h2v-1h-2Zm-4 0h2v-1h-2Zm-4 0h2v-1h-2Zm-4 0h2v-1h-2Zm-4 0h2v-1h-2Zm-4 0h2v-1h-2Zm-4 0h2v-1h-2Zm-4 0h2v-1h-2Zm-4 0h2v-1h-2Zm-4 0h2v-1h-2Zm-4 0h2v-1h-2Zm-4 0h2v-1h-2Zm-4 0h2v-1h-2Zm-4 0h2v-1h-2Zm-4 0h2v-1h-2Zm-4 0h2v-1h-2Zm-4 0h2v-1h-2Zm-4 0h2v-1h-2Zm-4 0h2v-1h-2Zm-4 0h2v-1h-2Zm-4 0h2v-1h-2Zm-4 0h2v-1h-2Zm-4 0h2v-1h-2Zm-4 0h2v-1h-2Zm-4 0h2v-1h-2Zm-4 0h2v-1h-2Zm-4 0h2v-1h-2Zm-4 0h2v-1h-2Zm-4 0h2v-1h-2Zm-4 0h2v-1h-2Zm-4 0h2v-1h-2Zm-4 0h2v-1h-2Zm-4 0h2v-1h-2Zm-4 0h2v-1h-2Zm-4 0h2v-1h-2Zm-4 0h2v-1h-2Zm-4 0h2v-1h-2Zm-4 0h2v-1h-2Zm-4 0h2v-1h-2Zm-4 0h2v-1h-2Zm-4 0h2v-1h-2Zm-4 0h2v-1h-2Zm-4 0h2v-1h-2Zm-4 0h2v-1h-2Zm-4 0h2v-1h-2Zm-4 0h2v-1h-2Zm-4 0h2v-1h-2Zm-4 0h2v-1h-2Zm-4 0h2v-1h-2Zm-4 0h2v-1h-2Zm-4 0h2v-1h-2Zm-4 0h2v-1h-2Zm-4 0h2v-1h-2Zm-4 0h2v-1h-2Zm-4 0h2v-1h-2Zm-4 0h2v-1h-2Zm-4 0h2v-1h-2Zm-4 0h2v-1h-2Zm-4 0h2v-1h-2Zm-4 0h2v-1h-2Zm-4 0h2v-1h-2Zm-4 0h2v-1h-2Zm-4 0h2v-1h-2Zm-4 0h2v-1h-2Zm-4 0h2v-1h-2Zm-4 0h2v-1h-2Zm-4 0h2v-1h-2Zm-4 0h2v-1h-2Zm-4 0h2v-1h-2Zm-4 0h2v-1h-2Zm-4 0h2v-1h-2Zm-4 0h2v-1h-2Zm-4 0h2v-1h-2Zm-4 0h2v-1h-2Zm-4 0h2v-1h-2Zm-4 0h2v-1h-2Zm-4 0h2v-1h-2Zm-4 0h2v-1h-2Zm-4 0h2v-1h-2Zm-4 0h2v-1h-2Zm-4 0h2v-1h-2Zm-4 0h2v-1h-2Zm-4 0h2v-1h-2Zm-4 0h2v-1h-2Zm-4 0h2v-1h-2Zm16 0h2v-1h-2Zm-4 0h2v-1h-2Zm-4 0h2v-1h-2Zm-4 0h2v-1h-2Zm-4 0h2v-1h-2Zm-4 0h2v-1h-2Zm-4 0h2v-1h-2Zm-4 0h2v-1h-2Zm-4 0h2v-1h-2Zm-4 0h2v-1h-2Zm-4 0h2v-1h-2Zm-4 0h2v-1h-2Zm-4 0h2v-1h-2Zm-4 0h2v-1h-2Zm-4 0h2v-1h-2Zm-4 0h2v-1h-2Zm-4 0h2v-1h-2Zm-4 0h2v-1h-2Zm-4 0h2v-1h-2Zm-4 0h2v-1h-2Zm-4 0h2v-1h-2Zm-4 0h2v-1h-2Zm-4 0h2v-1h-2Zm-3 0h1v-1h-1ZM973.05 600.16h2v-1h-2Zm-4 0h2v-1h-2Zm-4 0h2v-1h-2Zm-4 0h2v-1h-2Zm-4 0h2v-1h-2Zm-4 0h2v-1h-2Zm-4 0h2v-1h-2Zm-4 0h2v-1h-2Zm-4 0h2v-1h-2Zm-4 0h2v-1h-2Zm-4 0h2v-1h-2Zm-4 0h2v-1h-2Zm-4 0h2v-1h-2Zm-4 0h2v-1h-2Zm-4 0h2v-1h-2Zm-4 0h2v-1h-2Zm-4 0h2v-1h-2Zm-4 0h2v-1h-2Zm-4 0h2v-1h-2Zm-4 0h2v-1h-2Zm-4 0h2v-1h-2Zm-4 0h2v-1h-2Zm-4 0h2v-1h-2Zm-4 0h2v-1h-2Zm-4 0h2v-1h-2Zm-4 0h2v-1h-2Zm-4 0h2v-1h-2Zm-4 0h2v-1h-2Zm-4 0h2v-1h-2Zm-4 0h2v-1h-2Zm-4 0h2v-1h-2Zm-4 0h2v-1h-2Zm-4 0h2v-1h-2Zm-4 0h2v-1h-2Zm-4 0h2v-1h-2Zm-4 0h2v-1h-2Zm-4 0h2v-1h-2Zm-4 0h2v-1h-2Zm-4 0h2v-1h-2Zm-4 0h2v-1h-2Zm-4 0h2v-1h-2Zm-4 0h2v-1h-2Zm-4 0h2v-1h-2Zm-4 0h2v-1h-2Zm-4 0h2v-1h-2Zm-4 0h2v-1h-2Zm-4 0h2v-1h-2Zm-4 0h2v-1h-2Zm-4 0h2v-1h-2Zm-4 0h2v-1h-2Zm-4 0h2v-1h-2Zm-4 0h2v-1h-2Zm-4 0h2v-1h-2Zm-4 0h2v-1h-2Zm-4 0h2v-1h-2Zm-4 0h2v-1h-2Zm-4 0h2v-1h-2Zm-4 0h2v-1h-2Zm-4 0h2v-1h-2Zm-4 0h2v-1h-2Zm-4 0h2v-1h-2Zm-4 0h2v-1h-2Zm-4 0h2v-1h-2Zm-4 0h2v-1h-2Zm-4 0h2v-1h-2Zm-4 0h2v-1h-2Zm-4 0h2v-1h-2Zm-4 0h2v-1h-2Zm-4 0h2v-1h-2Zm-4 0h2v-1h-2Zm-4 0h2v-1h-2Zm-4 0h2v-1h-2Zm-4 0h2v-1h-2Zm-4 0h2v-1h-2Zm-4 0h2v-1h-2Zm-4 0h2v-1h-2Zm-4 0h2v-1h-2Zm-4 0h2v-1h-2Zm-4 0h2v-1h-2Zm-4 0h2v-1h-2Zm-4 0h2v-1h-2Zm-4 0h2v-1h-2Zm-4 0h2v-1h-2Zm-4 0h2v-1h-2Zm-4 0h2v-1h-2Zm-4 0h2v-1h-2Zm-4 0h2v-1h-2Zm-4 0h2v-1h-2Zm-4 0h2v-1h-2Zm-4 0h2v-1h-2Zm-4 0h2v-1h-2Zm-4 0h2v-1h-2Zm-4 0h2v-1h-2Zm-4 0h2v-1h-2Zm-4 0h2v-1h-2Zm-4 0h2v-1h-2Zm-4 0h2v-1h-2Zm-4 0h2v-1h-2Zm-4 0h2v-1h-2Zm-4 0h2v-1h-2Zm-4 0h2v-1h-2Zm-4 0h2v-1h-2Zm-4 0h2v-1h-2Zm-4 0h2v-1h-2Zm-4 0h2v-1h-2Zm-4 0h2v-1h-2Zm-4 0h2v-1h-2Zm-4 0h2v-1h-2Zm-4 0h2v-1h-2Zm-4 0h2v-1h-2Zm-4 0h2v-1h-2Zm-4 0h2v-1h-2Zm-4 0h2v-1h-2Zm-4 0h2v-1h-2Zm-4 0h2v-1h-2Zm-4 0h2v-1h-2Zm-4 0h2v-1h-2Zm-4 0h2v-1h-2Zm-4 0h2v-1h-2Zm-4 0h2v-1h-2Zm-4 0h2v-1h-2Zm-4 0h2v-1h-2Zm-4 0h2v-1h-2Zm-4 0h2v-1h-2Zm-4 0h2v-1h-2Zm-4 0h2v-1h-2Zm-4 0h2v-1h-2Zm-4 0h2v-1h-2Zm-4 0h2v-1h-2Zm-4 0h2v-1h-2Zm-4 0h2v-1h-2Zm-4 0h2v-1h-2Zm-4 0h2v-1h-2Zm-4 0h2v-1h-2Zm-4 0h2v-1h-2Zm-4 0h2v-1h-2Zm-4 0h2v-1h-2Zm-4 0h2v-1h-2Zm-4 0h2v-1h-2Zm-4 0h2v-1h-2Zm-4 0h2v-1h-2Zm-4 0h2v-1h-2Zm-4 0h2v-1h-2Zm-4 0h2v-1h-2Zm-4 0h2v-1h-2Zm-4 0h2v-1h-2Zm-4 0h2v-1h-2Zm-4 0h2v-1h-2Zm-4 0h2v-1h-2Zm-4 0h2v-1h-2Zm-4 0h2v-1h-2Zm-4 0h2v-1h-2Zm-4 0h2v-1h-2Zm-4 0h2v-1h-2Zm-4 0h2v-1h-2Zm-4 0h2v-1h-2Zm-4 0h2v-1h-2Zm-4 0h2v-1h-2Zm-4 0h2v-1h-2Zm-4 0h2v-1h-2Zm-4 0h2v-1h-2Zm-4 0h2v-1h-2Zm-4 0h2v-1h-2Zm-4 0h2v-1h-2Zm-4 0h2v-1h-2Zm-4 0h2v-1h-2Zm-4 0h2v-1h-2Zm-4 0h2v-1h-2Zm-4 0h2v-1h-2Zm-4 0h2v-1h-2Zm-4 0h2v-1h-2Zm-4 0h2v-1h-2Zm-4 0h2v-1h-2Zm-4 0h2v-1h-2Zm-4 0h2v-1h-2Zm-4 0h2v-1h-2Zm-4 0h2v-1h-2Zm-4 0h2v-1h-2Zm-4 0h2v-1h-2Zm-4 0h2v-1h-2Zm-4 0h2v-1h-2Zm-4 0h2v-1h-2Zm-4 0h2v-1h-2Zm-4 0h2v-1h-2Zm-4 0h2v-1h-2Zm-4 0h2v-1h-2Zm-4 0h2v-1h-2Zm-4 0h2v-1h-2Zm-4 0h2v-1h-2Zm-4 0h2v-1h-2Zm-4 0h2v-1h-2Zm-4 0h2v-1h-2Zm-4 0h2v-1h-2Zm-4 0h2v-1h-2Zm-4 0h2v-1h-2Zm-4 0h2v-1h-2Zm-4 0h2v-1h-2Zm-4 0h2v-1h-2Zm-4 0h2v-1h-2Zm-4 0h2v-1h-2Zm-4 0h2v-1h-2Zm-4 0h2v-1h-2Zm-4 0h2v-1h-2Zm-4 0h2v-1h-2Zm-4 0h2v-1h-2Zm-4 0h2v-1h-2Zm-4 0h2v-1h-2Zm-4 0h2v-1h-2Zm-4 0h2v-1h-2Zm-4 0h2v-1h-2Zm-4 0h2v-1h-2Zm-4 0h2v-1h-2Zm-4 0h2v-1h-2Zm-4 0h2v-1h-2Zm-4 0h2v-1h-2Zm-4 0h2v-1h-2Zm16 0h2v-1h-2Zm-4 0h2v-1h-2Zm-4 0h2v-1h-2Zm-4 0h2v-1h-2Zm-4 0h2v-1h-2Zm-4 0h2v-1h-2Zm-4 0h2v-1h-2Zm-4 0h2v-1h-2Zm-4 0h2v-1h-2Zm-4 0h2v-1h-2Zm-4 0h2v-1h-2Zm-4 0h2v-1h-2Zm-4 0h2v-1h-2Zm-4 0h2v-1h-2Zm-4 0h2v-1h-2Zm-4 0h2v-1h-2Zm-4 0h2v-1h-2Zm-4 0h2v-1h-2Zm-4 0h2v-1h-2Zm-4 0h2v-1h-2Zm-4 0h2v-1h-2Zm-4 0h2v-1h-2Zm-4 0h2v-1h-2Zm-3 0h1v-1h-1ZM973.05 691.16h2v-1h-2Zm-4 0h2v-1h-2Zm-4 0h2v-1h-2Zm-4 0h2v-1h-2Zm-4 0h2v-1h-2Zm-4 0h2v-1h-2Zm-4 0h2v-1h-2Zm-4 0h2v-1h-2Zm-4 0h2v-1h-2Zm-4 0h2v-1h-2Zm-4 0h2v-1h-2Zm-4 0h2v-1h-2Zm-4 0h2v-1h-2Zm-4 0h2v-1h-2Zm-4 0h2v-1h-2Zm-4 0h2v-1h-2Zm-4 0h2v-1h-2Zm-4 0h2v-1h-2Zm-4 0h2v-1h-2Zm-4 0h2v-1h-2Zm-4 0h2v-1h-2Zm-4 0h2v-1h-2Zm-4 0h2v-1h-2Zm-4 0h2v-1h-2Zm-4 0h2v-1h-2Zm-4 0h2v-1h-2Zm-4 0h2v-1h-2Zm-4 0h2v-1h-2Zm-4 0h2v-1h-2Zm-4 0h2v-1h-2Zm-4 0h2v-1h-2Zm-4 0h2v-1h-2Zm-4 0h2v-1h-2Zm-4 0h2v-1h-2Zm-4 0h2v-1h-2Zm-4 0h2v-1h-2Zm-4 0h2v-1h-2Zm-4 0h2v-1h-2Zm-4 0h2v-1h-2Zm-4 0h2v-1h-2Zm-4 0h2v-1h-2Zm-4 0h2v-1h-2Zm-4 0h2v-1h-2Zm-4 0h2v-1h-2Zm-4 0h2v-1h-2Zm-4 0h2v-1h-2Zm-4 0h2v-1h-2Zm-4 0h2v-1h-2Zm-4 0h2v-1h-2Zm-4 0h2v-1h-2Zm-4 0h2v-1h-2Zm-4 0h2v-1h-2Zm-4 0h2v-1h-2Zm-4 0h2v-1h-2Zm-4 0h2v-1h-2Zm-4 0h2v-1h-2Zm-4 0h2v-1h-2Zm-4 0h2v-1h-2Zm-4 0h2v-1h-2Zm-4 0h2v-1h-2Zm-4 0h2v-1h-2Zm-4 0h2v-1h-2Zm-4 0h2v-1h-2Zm-4 0h2v-1h-2Zm-4 0h2v-1h-2Zm-4 0h2v-1h-2Zm-4 0h2v-1h-2Zm-4 0h2v-1h-2Zm-4 0h2v-1h-2Zm-4 0h2v-1h-2Zm-4 0h2v-1h-2Zm-4 0h2v-1h-2Zm-4 0h2v-1h-2Zm-4 0h2v-1h-2Zm-4 0h2v-1h-2Zm-4 0h2v-1h-2Zm-4 0h2v-1h-2Zm-4 0h2v-1h-2Zm-4 0h2v-1h-2Zm-4 0h2v-1h-2Zm-4 0h2v-1h-2Zm-4 0h2v-1h-2Zm-4 0h2v-1h-2Zm-4 0h2v-1h-2Zm-4 0h2v-1h-2Zm-4 0h2v-1h-2Zm-4 0h2v-1h-2Zm-4 0h2v-1h-2Zm-4 0h2v-1h-2Zm-4 0h2v-1h-2Zm-4 0h2v-1h-2Zm-4 0h2v-1h-2Zm-4 0h2v-1h-2Zm-4 0h2v-1h-2Zm-4 0h2v-1h-2Zm-4 0h2v-1h-2Zm-4 0h2v-1h-2Zm-4 0h2v-1h-2Zm-4 0h2v-1h-2Zm-4 0h2v-1h-2Zm-4 0h2v-1h-2Zm-4 0h2v-1h-2Zm-4 0h2v-1h-2Zm-4 0h2v-1h-2Zm-4 0h2v-1h-2Zm-4 0h2v-1h-2Zm-4 0h2v-1h-2Zm-4 0h2v-1h-2Zm-4 0h2v-1h-2Zm-4 0h2v-1h-2Zm-4 0h2v-1h-2Zm-4 0h2v-1h-2Zm-4 0h2v-1h-2Zm-4 0h2v-1h-2Zm-4 0h2v-1h-2Zm-4 0h2v-1h-2Zm-4 0h2v-1h-2Zm-4 0h2v-1h-2Zm-4 0h2v-1h-2Zm-4 0h2v-1h-2Zm-4 0h2v-1h-2Zm-4 0h2v-1h-2Zm-4 0h2v-1h-2Zm-4 0h2v-1h-2Zm-4 0h2v-1h-2Zm-4 0h2v-1h-2Zm-4 0h2v-1h-2Zm-4 0h2v-1h-2Zm-4 0h2v-1h-2Zm-4 0h2v-1h-2Zm-4 0h2v-1h-2Zm-4 0h2v-1h-2Zm-4 0h2v-1h-2Zm-4 0h2v-1h-2Zm-4 0h2v-1h-2Zm-4 0h2v-1h-2Zm-4 0h2v-1h-2Zm-4 0h2v-1h-2Zm-4 0h2v-1h-2Zm-4 0h2v-1h-2Zm-4 0h2v-1h-2Zm-4 0h2v-1h-2Zm-4 0h2v-1h-2Zm-4 0h2v-1h-2Zm-4 0h2v-1h-2Zm-4 0h2v-1h-2Zm-4 0h2v-1h-2Zm-4 0h2v-1h-2Zm-4 0h2v-1h-2Zm-4 0h2v-1h-2Zm-4 0h2v-1h-2Zm-4 0h2v-1h-2Zm-4 0h2v-1h-2Zm-4 0h2v-1h-2Zm-4 0h2v-1h-2Zm-4 0h2v-1h-2Zm-4 0h2v-1h-2Zm-4 0h2v-1h-2Zm-4 0h2v-1h-2Zm-4 0h2v-1h-2Zm-4 0h2v-1h-2Zm-4 0h2v-1h-2Zm-4 0h2v-1h-2Zm-4 0h2v-1h-2Zm-4 0h2v-1h-2Zm-4 0h2v-1h-2Zm-4 0h2v-1h-2Zm-4 0h2v-1h-2Zm-4 0h2v-1h-2Zm-4 0h2v-1h-2Zm-4 0h2v-1h-2Zm-4 0h2v-1h-2Zm-4 0h2v-1h-2Zm-4 0h2v-1h-2Zm-4 0h2v-1h-2Zm-4 0h2v-1h-2Zm-4 0h2v-1h-2Zm-4 0h2v-1h-2Zm-4 0h2v-1h-2Zm-4 0h2v-1h-2Zm-4 0h2v-1h-2Zm-4 0h2v-1h-2Zm-4 0h2v-1h-2Zm-4 0h2v-1h-2Zm-4 0h2v-1h-2Zm-4 0h2v-1h-2Zm-4 0h2v-1h-2Zm-4 0h2v-1h-2Zm-4 0h2v-1h-2Zm-4 0h2v-1h-2Zm-4 0h2v-1h-2Zm-4 0h2v-1h-2Zm-4 0h2v-1h-2Zm-4 0h2v-1h-2Zm-4 0h2v-1h-2Zm-4 0h2v-1h-2Zm-4 0h2v-1h-2Zm-4 0h2v-1h-2Zm-4 0h2v-1h-2Zm-4 0h2v-1h-2Zm-4 0h2v-1h-2Zm-4 0h2v-1h-2Zm-4 0h2v-1h-2Zm-4 0h2v-1h-2Zm-4 0h2v-1h-2Zm-4 0h2v-1h-2Zm-4 0h2v-1h-2Zm-4 0h2v-1h-2Zm-4 0h2v-1h-2Zm-4 0h2v-1h-2Zm-4 0h2v-1h-2Zm-4 0h2v-1h-2Zm-4 0h2v-1h-2Zm-4 0h2v-1h-2Zm-4 0h2v-1h-2Zm-4 0h2v-1h-2Zm16 0h2v-1h-2Zm-4 0h2v-1h-2Zm-4 0h2v-1h-2Zm-4 0h2v-1h-2Zm-4 0h2v-1h-2Zm-4 0h2v-1h-2Zm-4 0h2v-1h-2Zm-4 0h2v-1h-2Zm-4 0h2v-1h-2Zm-4 0h2v-1h-2Zm-4 0h2v-1h-2Zm-4 0h2v-1h-2Zm-4 0h2v-1h-2Zm-4 0h2v-1h-2Zm-4 0h2v-1h-2Zm-4 0h2v-1h-2Zm-4 0h2v-1h-2Zm-4 0h2v-1h-2Zm-4 0h2v-1h-2Zm-4 0h2v-1h-2Zm-4 0h2v-1h-2Zm-4 0h2v-1h-2Zm-4 0h2v-1h-2Zm-3 0h1v-1h-1ZM975.83 75.16h2v-1h-2Zm-4 0h2v-1h-2Zm-4 0h2v-1h-2Zm-4 0h2v-1h-2Zm-4 0h2v-1h-2Zm-4 0h2v-1h-2Zm-4 0h2v-1h-2Zm-4 0h2v-1h-2Zm-4 0h2v-1h-2Zm-4 0h2v-1h-2Zm-4 0h2v-1h-2Zm-4 0h2v-1h-2Zm-4 0h2v-1h-2Zm-4 0h2v-1h-2Zm-4 0h2v-1h-2Zm-4 0h2v-1h-2Zm-4 0h2v-1h-2Zm-4 0h2v-1h-2Zm-4 0h2v-1h-2Zm-4 0h2v-1h-2Zm-4 0h2v-1h-2Zm-4 0h2v-1h-2Zm-4 0h2v-1h-2Zm-4 0h2v-1h-2Zm-4 0h2v-1h-2Zm-4 0h2v-1h-2Zm-4 0h2v-1h-2Zm-4 0h2v-1h-2Zm-4 0h2v-1h-2Zm-4 0h2v-1h-2Zm-4 0h2v-1h-2Zm-4 0h2v-1h-2Zm-4 0h2v-1h-2Zm-4 0h2v-1h-2Zm-4 0h2v-1h-2Zm-4 0h2v-1h-2Zm-4 0h2v-1h-2Zm-4 0h2v-1h-2Zm-4 0h2v-1h-2Zm-4 0h2v-1h-2Zm-4 0h2v-1h-2Zm-4 0h2v-1h-2Zm-4 0h2v-1h-2Zm-4 0h2v-1h-2Zm-4 0h2v-1h-2Zm-4 0h2v-1h-2Zm-4 0h2v-1h-2Zm-4 0h2v-1h-2Zm-4 0h2v-1h-2Zm-4 0h2v-1h-2Zm-4 0h2v-1h-2Zm-4 0h2v-1h-2Zm-4 0h2v-1h-2Zm-4 0h2v-1h-2Zm-4 0h2v-1h-2Zm-4 0h2v-1h-2Zm-4 0h2v-1h-2Zm-4 0h2v-1h-2Zm-4 0h2v-1h-2Zm-4 0h2v-1h-2Zm-4 0h2v-1h-2Zm-4 0h2v-1h-2Zm-4 0h2v-1h-2Zm-4 0h2v-1h-2Zm-4 0h2v-1h-2Zm-4 0h2v-1h-2Zm-4 0h2v-1h-2Zm-4 0h2v-1h-2Zm-4 0h2v-1h-2Zm-4 0h2v-1h-2Zm-4 0h2v-1h-2Zm-4 0h2v-1h-2Zm-4 0h2v-1h-2Zm-4 0h2v-1h-2Zm-4 0h2v-1h-2Zm-4 0h2v-1h-2Zm-4 0h2v-1h-2Zm-4 0h2v-1h-2Zm-4 0h2v-1h-2Zm-4 0h2v-1h-2Zm-4 0h2v-1h-2Zm-4 0h2v-1h-2Zm-4 0h2v-1h-2Zm-4 0h2v-1h-2Zm-4 0h2v-1h-2Zm-4 0h2v-1h-2Zm-4 0h2v-1h-2Zm-4 0h2v-1h-2Zm-4 0h2v-1h-2Zm-4 0h2v-1h-2Zm-4 0h2v-1h-2Zm-4 0h2v-1h-2Zm-4 0h2v-1h-2Zm-4 0h2v-1h-2Zm-4 0h2v-1h-2Zm-4 0h2v-1h-2Zm-4 0h2v-1h-2Zm-4 0h2v-1h-2Zm-4 0h2v-1h-2Zm-4 0h2v-1h-2Zm-4 0h2v-1h-2Zm-4 0h2v-1h-2Zm-4 0h2v-1h-2Zm-4 0h2v-1h-2Zm-4 0h2v-1h-2Zm-4 0h2v-1h-2Zm-4 0h2v-1h-2Zm-4 0h2v-1h-2Zm-4 0h2v-1h-2Zm-4 0h2v-1h-2Zm-4 0h2v-1h-2Zm-4 0h2v-1h-2Zm-4 0h2v-1h-2Zm-4 0h2v-1h-2Zm-4 0h2v-1h-2Zm-4 0h2v-1h-2Zm-4 0h2v-1h-2Zm-4 0h2v-1h-2Zm-4 0h2v-1h-2Zm-4 0h2v-1h-2Zm-4 0h2v-1h-2Zm-4 0h2v-1h-2Zm-4 0h2v-1h-2Zm-4 0h2v-1h-2Zm-4 0h2v-1h-2Zm-4 0h2v-1h-2Zm-4 0h2v-1h-2Zm-4 0h2v-1h-2Zm-4 0h2v-1h-2Zm-4 0h2v-1h-2Zm-4 0h2v-1h-2Zm-4 0h2v-1h-2Zm-4 0h2v-1h-2Zm-4 0h2v-1h-2Zm-4 0h2v-1h-2Zm-4 0h2v-1h-2Zm-4 0h2v-1h-2Zm-4 0h2v-1h-2Zm-4 0h2v-1h-2Zm-4 0h2v-1h-2Zm-4 0h2v-1h-2Zm-4 0h2v-1h-2Zm-4 0h2v-1h-2Zm-4 0h2v-1h-2Zm-4 0h2v-1h-2Zm-4 0h2v-1h-2Zm-4 0h2v-1h-2Zm-4 0h2v-1h-2Zm-4 0h2v-1h-2Zm-4 0h2v-1h-2Zm-4 0h2v-1h-2Zm-4 0h2v-1h-2Zm-4 0h2v-1h-2Zm-4 0h2v-1h-2Zm-4 0h2v-1h-2Zm-4 0h2v-1h-2Zm-4 0h2v-1h-2Zm-4 0h2v-1h-2Zm-4 0h2v-1h-2Zm-4 0h2v-1h-2Zm-4 0h2v-1h-2Zm-4 0h2v-1h-2Zm-4 0h2v-1h-2Zm-4 0h2v-1h-2Zm-4 0h2v-1h-2Zm-4 0h2v-1h-2Zm-4 0h2v-1h-2Zm-4 0h2v-1h-2Zm-4 0h2v-1h-2Zm-4 0h2v-1h-2Zm-4 0h2v-1h-2Zm-4 0h2v-1h-2Zm-4 0h2v-1h-2Zm-4 0h2v-1h-2Zm-4 0h2v-1h-2Zm-4 0h2v-1h-2Zm-4 0h2v-1h-2Zm-4 0h2v-1h-2Zm-4 0h2v-1h-2Zm-4 0h2v-1h-2Zm-4 0h2v-1h-2Zm-4 0h2v-1h-2Zm-4 0h2v-1h-2Zm-4 0h2v-1h-2Zm-4 0h2v-1h-2Zm-4 0h2v-1h-2Zm-4 0h2v-1h-2Zm-4 0h2v-1h-2Zm-4 0h2v-1h-2Zm-4 0h2v-1h-2Zm-4 0h2v-1h-2Zm-4 0h2v-1h-2Zm-4 0h2v-1h-2Zm-4 0h2v-1h-2Zm-4 0h2v-1h-2Zm-4 0h2v-1h-2Zm-4 0h2v-1h-2Zm-4 0h2v-1h-2Zm-4 0h2v-1h-2Zm-4 0h2v-1h-2Zm-4 0h2v-1h-2Zm-4 0h2v-1h-2Zm-4 0h2v-1h-2Zm-4 0h2v-1h-2Zm-4 0h2v-1h-2Zm-4 0h2v-1h-2Zm-4 0h2v-1h-2Zm-4 0h2v-1h-2Zm-4 0h2v-1h-2Zm-4 0h2v-1h-2Zm-4 0h2v-1h-2Zm-4 0h2v-1h-2Zm-4 0h2v-1h-2Zm-4 0h2v-1h-2Zm-4 0h2v-1h-2Zm-4 0h2v-1h-2Zm64 0h2v-1h-2Zm-52 0h2v-1h-2Zm-4 0h2v-1h-2Zm-4 0h2v-1h-2Zm-4 0h2v-1h-2Zm64 0h2v-1h-2Zm-4 0h2v-1h-2Zm-4 0h2v-1h-2Zm-4 0h2v-1h-2Zm-4 0h2v-1h-2Zm-4 0h2v-1h-2Zm-4 0h2v-1h-2Zm-4 0h2v-1h-2Zm-4 0h2v-1h-2Zm-4 0h2v-1h-2Zm-4 0h2v-1h-2Zm-4 0h2v-1h-2Zm-4 0h2v-1h-2Zm-4 0h2v-1h-2Zm-4 0h2v-1h-2Zm-4 0h2v-1h-2Zm-4 0h2v-1h-2Zm-4 0h2v-1h-2Zm-3 0h1v-1h-1ZM976.65 2.16h2v-1h-2Zm-4 0h2v-1h-2Zm-4 0h2v-1h-2Zm-4 0h2v-1h-2Zm-4 0h2v-1h-2Zm-4 0h2v-1h-2Zm-4 0h2v-1h-2Zm-4 0h2v-1h-2Zm-4 0h2v-1h-2Zm-4 0h2v-1h-2Zm-4 0h2v-1h-2Zm-4 0h2v-1h-2Zm-4 0h2v-1h-2Zm-4 0h2v-1h-2Zm-4 0h2v-1h-2Zm-4 0h2v-1h-2Zm-4 0h2v-1h-2Zm-4 0h2v-1h-2Zm-4 0h2v-1h-2Zm-4 0h2v-1h-2Zm-4 0h2v-1h-2Zm-4 0h2v-1h-2Zm-4 0h2v-1h-2Zm-4 0h2v-1h-2Zm-4 0h2v-1h-2Zm-4 0h2v-1h-2Zm-4 0h2v-1h-2Zm-4 0h2v-1h-2Zm-4 0h2v-1h-2Zm-4 0h2v-1h-2Zm-4 0h2v-1h-2Zm-4 0h2v-1h-2Zm-4 0h2v-1h-2Zm-4 0h2v-1h-2Zm-4 0h2v-1h-2Zm-4 0h2v-1h-2Zm-4 0h2v-1h-2Zm-4 0h2v-1h-2Zm-4 0h2v-1h-2Zm-4 0h2v-1h-2Zm-4 0h2v-1h-2Zm-4 0h2v-1h-2Zm-4 0h2v-1h-2Zm-4 0h2v-1h-2Zm-4 0h2v-1h-2Zm-4 0h2v-1h-2Zm-4 0h2v-1h-2Zm-4 0h2v-1h-2Zm-4 0h2v-1h-2Zm-4 0h2v-1h-2Zm-4 0h2v-1h-2Zm-4 0h2v-1h-2Zm-4 0h2v-1h-2Zm-4 0h2v-1h-2Zm-4 0h2v-1h-2Zm-4 0h2v-1h-2Zm-4 0h2v-1h-2Zm-4 0h2v-1h-2Zm-4 0h2v-1h-2Zm-4 0h2v-1h-2Zm-4 0h2v-1h-2Zm-4 0h2v-1h-2Zm-4 0h2v-1h-2Zm-4 0h2v-1h-2Zm-4 0h2v-1h-2Zm-4 0h2v-1h-2Zm-4 0h2v-1h-2Zm-4 0h2v-1h-2Zm-4 0h2v-1h-2Zm-4 0h2v-1h-2Zm-4 0h2v-1h-2Zm-4 0h2v-1h-2Zm-4 0h2v-1h-2Zm-4 0h2v-1h-2Zm-4 0h2v-1h-2Zm-4 0h2v-1h-2Zm-4 0h2v-1h-2Zm-4 0h2v-1h-2Zm-4 0h2v-1h-2Zm-4 0h2v-1h-2Zm-4 0h2v-1h-2Zm-4 0h2v-1h-2Zm-4 0h2v-1h-2Zm-4 0h2v-1h-2Zm-4 0h2v-1h-2Zm-4 0h2v-1h-2Zm-4 0h2v-1h-2Zm-4 0h2v-1h-2Zm-4 0h2v-1h-2Zm-4 0h2v-1h-2Zm-4 0h2v-1h-2Zm-4 0h2v-1h-2Zm-4 0h2v-1h-2Zm-4 0h2v-1h-2Zm-4 0h2v-1h-2Zm-4 0h2v-1h-2Zm-4 0h2v-1h-2Zm-4 0h2v-1h-2Zm-4 0h2v-1h-2Zm-4 0h2v-1h-2Zm-4 0h2v-1h-2Zm-4 0h2v-1h-2Zm-4 0h2v-1h-2Zm-4 0h2v-1h-2Zm-4 0h2v-1h-2Zm-4 0h2v-1h-2Zm-4 0h2v-1h-2Zm-4 0h2v-1h-2Zm-4 0h2v-1h-2Zm-4 0h2v-1h-2Zm-4 0h2v-1h-2Zm-4 0h2v-1h-2Zm-4 0h2v-1h-2Zm-4 0h2v-1h-2Zm-4 0h2v-1h-2Zm-4 0h2v-1h-2Zm-4 0h2v-1h-2Zm-4 0h2v-1h-2Zm-4 0h2v-1h-2Zm-4 0h2v-1h-2Zm-4 0h2v-1h-2Zm-4 0h2v-1h-2Zm-4 0h2v-1h-2Zm-4 0h2v-1h-2Zm-4 0h2v-1h-2Zm-4 0h2v-1h-2Zm-4 0h2v-1h-2Zm-4 0h2v-1h-2Zm-4 0h2v-1h-2Zm-4 0h2v-1h-2Zm-4 0h2v-1h-2Zm-4 0h2v-1h-2Zm-4 0h2v-1h-2Zm-4 0h2v-1h-2Zm-4 0h2v-1h-2Zm-4 0h2v-1h-2Zm-4 0h2v-1h-2Zm-4 0h2v-1h-2Zm-4 0h2v-1h-2Zm-4 0h2v-1h-2Zm-4 0h2v-1h-2Zm-4 0h2v-1h-2Zm-4 0h2v-1h-2Zm-4 0h2v-1h-2Zm-4 0h2v-1h-2Zm-4 0h2v-1h-2Zm-4 0h2v-1h-2Zm-4 0h2v-1h-2Zm-4 0h2v-1h-2Zm-4 0h2v-1h-2Zm-4 0h2v-1h-2Zm-4 0h2v-1h-2Zm-4 0h2v-1h-2Zm-4 0h2v-1h-2Zm-4 0h2v-1h-2Zm-4 0h2v-1h-2Zm-4 0h2v-1h-2Zm-4 0h2v-1h-2Zm-4 0h2v-1h-2Zm-4 0h2v-1h-2Zm-4 0h2v-1h-2Zm-4 0h2v-1h-2Zm-4 0h2v-1h-2Zm-4 0h2v-1h-2Zm-4 0h2v-1h-2Zm-4 0h2v-1h-2Zm-4 0h2v-1h-2Zm-4 0h2v-1h-2Zm-4 0h2v-1h-2Zm-4 0h2v-1h-2Zm-4 0h2v-1h-2Zm-4 0h2v-1h-2Zm-4 0h2v-1h-2Zm-4 0h2v-1h-2Zm-4 0h2v-1h-2Zm-4 0h2v-1h-2Zm-4 0h2v-1h-2Zm-4 0h2v-1h-2Zm-4 0h2v-1h-2Zm-4 0h2v-1h-2Zm-4 0h2v-1h-2Zm-4 0h2v-1h-2Zm-4 0h2v-1h-2Zm-4 0h2v-1h-2Zm-4 0h2v-1h-2Zm-4 0h2v-1h-2Zm-4 0h2v-1h-2Zm-4 0h2v-1h-2Zm-4 0h2v-1h-2Zm-4 0h2v-1h-2Zm-4 0h2v-1h-2Zm-4 0h2v-1h-2Zm-4 0h2v-1h-2Zm-4 0h2v-1h-2Zm-4 0h2v-1h-2Zm-4 0h2v-1h-2Zm-4 0h2v-1h-2Zm-4 0h2v-1h-2Zm-4 0h2v-1h-2Zm-4 0h2v-1h-2Zm-4 0h2v-1h-2Zm-4 0h2v-1h-2Zm-4 0h2v-1h-2Zm-4 0h2v-1h-2Zm-4 0h2v-1h-2Zm-4 0h2v-1h-2Zm-4 0h2v-1h-2Zm-4 0h2v-1h-2Zm-4 0h2v-1h-2Zm-4 0h2v-1h-2Zm40 0h2v-1h-2Zm0 0h2v-1h-2Zm-4 0h2v-1h-2Zm-4 0h2v-1h-2Zm-4 0h2v-1h-2Zm-4 0h2v-1h-2Zm-4 0h2v-1h-2Zm-4 0h2v-1h-2Zm-4 0h2v-1h-2Zm-4 0h2v-1h-2Zm-4 0h2v-1h-2Zm-4 0h2v-1h-2Zm-3 0h1v-1h-1ZM975.83 99.16h2v-1h-2Zm-4 0h2v-1h-2Zm-4 0h2v-1h-2Zm-4 0h2v-1h-2Zm-4 0h2v-1h-2Zm-4 0h2v-1h-2Zm-4 0h2v-1h-2Zm-4 0h2v-1h-2Zm-4 0h2v-1h-2Zm-4 0h2v-1h-2Zm-4 0h2v-1h-2Zm-4 0h2v-1h-2Zm-4 0h2v-1h-2Zm-4 0h2v-1h-2Zm-4 0h2v-1h-2Zm-4 0h2v-1h-2Zm-4 0h2v-1h-2Zm-4 0h2v-1h-2Zm-4 0h2v-1h-2Zm-4 0h2v-1h-2Zm-4 0h2v-1h-2Zm-4 0h2v-1h-2Zm-4 0h2v-1h-2Zm-4 0h2v-1h-2Zm-4 0h2v-1h-2Zm-4 0h2v-1h-2Zm-4 0h2v-1h-2Zm-4 0h2v-1h-2Zm-4 0h2v-1h-2Zm-4 0h2v-1h-2Zm-4 0h2v-1h-2Zm-4 0h2v-1h-2Zm-4 0h2v-1h-2Zm-4 0h2v-1h-2Zm-4 0h2v-1h-2Zm-4 0h2v-1h-2Zm-4 0h2v-1h-2Zm-4 0h2v-1h-2Zm-4 0h2v-1h-2Zm-4 0h2v-1h-2Zm-4 0h2v-1h-2Zm-4 0h2v-1h-2Zm-4 0h2v-1h-2Zm-4 0h2v-1h-2Zm-4 0h2v-1h-2Zm-4 0h2v-1h-2Zm-4 0h2v-1h-2Zm-4 0h2v-1h-2Zm-4 0h2v-1h-2Zm-4 0h2v-1h-2Zm-4 0h2v-1h-2Zm-4 0h2v-1h-2Zm-4 0h2v-1h-2Zm-4 0h2v-1h-2Zm-4 0h2v-1h-2Zm-4 0h2v-1h-2Zm-4 0h2v-1h-2Zm-4 0h2v-1h-2Zm-4 0h2v-1h-2Zm-4 0h2v-1h-2Zm-4 0h2v-1h-2Zm-4 0h2v-1h-2Zm-4 0h2v-1h-2Zm-4 0h2v-1h-2Zm-4 0h2v-1h-2Zm-4 0h2v-1h-2Zm-4 0h2v-1h-2Zm-4 0h2v-1h-2Zm-4 0h2v-1h-2Zm-4 0h2v-1h-2Zm-4 0h2v-1h-2Zm-4 0h2v-1h-2Zm-4 0h2v-1h-2Zm-4 0h2v-1h-2Zm-4 0h2v-1h-2Zm-4 0h2v-1h-2Zm-4 0h2v-1h-2Zm-4 0h2v-1h-2Zm-4 0h2v-1h-2Zm-4 0h2v-1h-2Zm-4 0h2v-1h-2Zm-4 0h2v-1h-2Zm-4 0h2v-1h-2Zm-4 0h2v-1h-2Zm-4 0h2v-1h-2Zm-4 0h2v-1h-2Zm-4 0h2v-1h-2Zm-4 0h2v-1h-2Zm-4 0h2v-1h-2Zm-4 0h2v-1h-2Zm-4 0h2v-1h-2Zm-4 0h2v-1h-2Zm-4 0h2v-1h-2Zm-4 0h2v-1h-2Zm-4 0h2v-1h-2Zm-4 0h2v-1h-2Zm-4 0h2v-1h-2Zm-4 0h2v-1h-2Zm-4 0h2v-1h-2Zm-4 0h2v-1h-2Zm-4 0h2v-1h-2Zm-4 0h2v-1h-2Zm-4 0h2v-1h-2Zm-4 0h2v-1h-2Zm-4 0h2v-1h-2Zm-4 0h2v-1h-2Zm-4 0h2v-1h-2Zm-4 0h2v-1h-2Zm-4 0h2v-1h-2Zm-4 0h2v-1h-2Zm-4 0h2v-1h-2Zm-4 0h2v-1h-2Zm-4 0h2v-1h-2Zm-4 0h2v-1h-2Zm-4 0h2v-1h-2Zm-4 0h2v-1h-2Zm-4 0h2v-1h-2Zm-4 0h2v-1h-2Zm-4 0h2v-1h-2Zm-4 0h2v-1h-2Zm-4 0h2v-1h-2Zm-4 0h2v-1h-2Zm-4 0h2v-1h-2Zm-4 0h2v-1h-2Zm-4 0h2v-1h-2Zm-4 0h2v-1h-2Zm-4 0h2v-1h-2Zm-4 0h2v-1h-2Zm-4 0h2v-1h-2Zm-4 0h2v-1h-2Zm-4 0h2v-1h-2Zm-4 0h2v-1h-2Zm-4 0h2v-1h-2Zm-4 0h2v-1h-2Zm-4 0h2v-1h-2Zm-4 0h2v-1h-2Zm-4 0h2v-1h-2Zm-4 0h2v-1h-2Zm-4 0h2v-1h-2Zm-4 0h2v-1h-2Zm-4 0h2v-1h-2Zm-4 0h2v-1h-2Zm-4 0h2v-1h-2Zm-4 0h2v-1h-2Zm-4 0h2v-1h-2Zm-4 0h2v-1h-2Zm-4 0h2v-1h-2Zm-4 0h2v-1h-2Zm-4 0h2v-1h-2Zm-4 0h2v-1h-2Zm-4 0h2v-1h-2Zm-4 0h2v-1h-2Zm-4 0h2v-1h-2Zm-4 0h2v-1h-2Zm-4 0h2v-1h-2Zm-4 0h2v-1h-2Zm-4 0h2v-1h-2Zm-4 0h2v-1h-2Zm-4 0h2v-1h-2Zm-4 0h2v-1h-2Zm-4 0h2v-1h-2Zm-4 0h2v-1h-2Zm-4 0h2v-1h-2Zm-4 0h2v-1h-2Zm-4 0h2v-1h-2Zm-4 0h2v-1h-2Zm-4 0h2v-1h-2Zm-4 0h2v-1h-2Zm-4 0h2v-1h-2Zm-4 0h2v-1h-2Zm-4 0h2v-1h-2Zm-4 0h2v-1h-2Zm-4 0h2v-1h-2Zm-4 0h2v-1h-2Zm-4 0h2v-1h-2Zm-4 0h2v-1h-2Zm-4 0h2v-1h-2Zm-4 0h2v-1h-2Zm-4 0h2v-1h-2Zm-4 0h2v-1h-2Zm-4 0h2v-1h-2Zm-4 0h2v-1h-2Zm-4 0h2v-1h-2Zm-4 0h2v-1h-2Zm-4 0h2v-1h-2Zm-4 0h2v-1h-2Zm-4 0h2v-1h-2Zm-4 0h2v-1h-2Zm-4 0h2v-1h-2Zm-4 0h2v-1h-2Zm-4 0h2v-1h-2Zm-4 0h2v-1h-2Zm-4 0h2v-1h-2Zm-4 0h2v-1h-2Zm-4 0h2v-1h-2Zm-4 0h2v-1h-2Zm-4 0h2v-1h-2Zm-4 0h2v-1h-2Zm-4 0h2v-1h-2Zm-4 0h2v-1h-2Zm-4 0h2v-1h-2Zm-4 0h2v-1h-2Zm-4 0h2v-1h-2Zm-4 0h2v-1h-2Zm-4 0h2v-1h-2Zm-4 0h2v-1h-2Zm-4 0h2v-1h-2Zm-4 0h2v-1h-2Zm-4 0h2v-1h-2Zm-4 0h2v-1h-2Zm-4 0h2v-1h-2Zm-4 0h2v-1h-2Zm-4 0h2v-1h-2Zm-4 0h2v-1h-2Zm-4 0h2v-1h-2Zm-4 0h2v-1h-2Zm64 0h2v-1h-2Zm-52 0h2v-1h-2Zm-4 0h2v-1h-2Zm-4 0h2v-1h-2Zm-4 0h2v-1h-2Zm64 0h2v-1h-2Zm-4 0h2v-1h-2Zm-4 0h2v-1h-2Zm-4 0h2v-1h-2Zm-4 0h2v-1h-2Zm-4 0h2v-1h-2Zm-4 0h2v-1h-2Zm-4 0h2v-1h-2Zm-4 0h2v-1h-2Zm-4 0h2v-1h-2Zm-4 0h2v-1h-2Zm-4 0h2v-1h-2Zm-4 0h2v-1h-2Zm-4 0h2v-1h-2Zm-4 0h2v-1h-2Zm-4 0h2v-1h-2Zm-4 0h2v-1h-2Zm-4 0h2v-1h-2Zm-3 0h1v-1h-1ZM93.71 83.93l2.09 3.57 2.09-3.57h1.55l-2.82 4.37 2.82 4.36h-1.55l-2.09-3.39-2.09 3.39h-1.55l2.78-4.36-2.78-4.37ZM89.34 81v11.66h-1.41V82.5h-.07L85 84.39V83l2.93-2ZM25.16 496.93l2.09 3.57 2.1-3.57h1.54l-2.82 4.37 2.82 4.36h-1.54l-2.1-3.39-2.09 3.39h-1.54l2.77-4.36-2.77-4.37ZM18 505.82a4 4 0 0 1-1.8-.4 3.32 3.32 0 0 1-1.2-1.09 3 3 0 0 1-.53-1.58h1.36a1.89 1.89 0 0 0 .72 1.31 2.56 2.56 0 0 0 2.81.17 2.43 2.43 0 0 0 .88-.92 2.78 2.78 0 0 0 .32-1.33 2.67 2.67 0 0 0-.34-1.36 2.42 2.42 0 0 0-.9-.95 2.56 2.56 0 0 0-1.33-.35 3.84 3.84 0 0 0-1.09.16 3.1 3.1 0 0 0-.93.43l-1.32-.16.71-5.73h6v1.25H16.5l-.41 3.44h.07a3 3 0 0 1 .89-.48 3.74 3.74 0 0 1 3 .33 3.65 3.65 0 0 1 1.32 1.38 4.16 4.16 0 0 1 .48 2 3.84 3.84 0 0 1-.5 2 3.68 3.68 0 0 1-1.35 1.38 3.94 3.94 0 0 1-2 .5Zm-12.25-.16L11 495.37v-.1H5V494h7.45v1.32l-5.19 10.34Zm-3.54.09a1 1 0 0 1-.72-.3 1 1 0 0 1 0-1.44 1 1 0 0 1 .72-.3A1 1 0 0 1 3 504a1 1 0 0 1 .3.72.94.94 0 0 1-.14.51 1 1 0 0 1-.37.38 1 1 0 0 1-.54.14ZM25.16 586.93l2.09 3.57 2.1-3.57h1.54l-2.82 4.37 2.82 4.36h-1.54l-2.1-3.39-2.09 3.39h-1.54l2.77-4.36-2.77-4.37ZM18 595.82a4 4 0 0 1-1.8-.4 3.32 3.32 0 0 1-1.2-1.09 3 3 0 0 1-.53-1.58h1.36a1.89 1.89 0 0 0 .72 1.31 2.56 2.56 0 0 0 2.81.17 2.43 2.43 0 0 0 .88-.92 2.78 2.78 0 0 0 .32-1.33 2.67 2.67 0 0 0-.34-1.36 2.42 2.42 0 0 0-.9-1 2.56 2.56 0 0 0-1.33-.35 3.84 3.84 0 0 0-1.09.16 3.1 3.1 0 0 0-.93.43l-1.32-.16.71-5.73h6v1.25H16.5l-.41 3.44h.07a3 3 0 0 1 .89-.48 3.74 3.74 0 0 1 3 .33 3.65 3.65 0 0 1 1.32 1.38 4.16 4.16 0 0 1 .48 2 3.84 3.84 0 0 1-.5 2 3.68 3.68 0 0 1-1.35 1.43 3.94 3.94 0 0 1-2 .5Zm-12.25-.16L11 585.37v-.1H5V584h7.45v1.32l-5.19 10.34Zm-3.54.09a1 1 0 0 1-.72-.3 1 1 0 0 1 0-1.44 1 1 0 0 1 .72-.3A1 1 0 0 1 3 594a1 1 0 0 1 .3.72.94.94 0 0 1-.14.51 1 1 0 0 1-.37.38 1 1 0 0 1-.54.14ZM25.16 677.93l2.09 3.57 2.1-3.57h1.54l-2.82 4.37 2.82 4.36h-1.54l-2.1-3.39-2.09 3.39h-1.54l2.77-4.36-2.77-4.37ZM18 686.82a4 4 0 0 1-1.8-.4 3.32 3.32 0 0 1-1.2-1.09 3 3 0 0 1-.53-1.58h1.36a1.89 1.89 0 0 0 .72 1.31 2.56 2.56 0 0 0 2.81.17 2.43 2.43 0 0 0 .88-.92 2.78 2.78 0 0 0 .32-1.33 2.67 2.67 0 0 0-.34-1.36 2.42 2.42 0 0 0-.9-1 2.56 2.56 0 0 0-1.33-.35 3.84 3.84 0 0 0-1.09.16 3.1 3.1 0 0 0-.93.43l-1.32-.16.71-5.73h6v1.25H16.5l-.41 3.44h.07a3 3 0 0 1 .89-.48 3.74 3.74 0 0 1 3 .33 3.65 3.65 0 0 1 1.32 1.38 4.16 4.16 0 0 1 .48 2 3.84 3.84 0 0 1-.5 2 3.68 3.68 0 0 1-1.35 1.43 3.94 3.94 0 0 1-2 .5Zm-12.25-.16L11 676.37v-.1H5V675h7.45v1.32l-5.19 10.34Zm-3.54.09a1 1 0 0 1-.72-.3 1 1 0 0 1 0-1.44 1 1 0 0 1 .72-.3A1 1 0 0 1 3 685a1 1 0 0 1 .3.72.94.94 0 0 1-.14.51 1 1 0 0 1-.37.38 1 1 0 0 1-.54.14ZM126.54 45.93l2.09 3.57 2.09-3.57h1.55l-2.82 4.37 2.82 4.36h-1.55l-2.09-3.39-2.09 3.39H125l2.78-4.36-2.78-4.37Zm-6.09 8.73V43h1.35v11.66ZM115 52.27v-1.15l5.11-8.1h.84v1.8h-.57l-3.86 6.11V51h6.89v1.25ZM62 80.84a4.11 4.11 0 0 1-2.18-.55 3.74 3.74 0 0 1-1.4-1.57 5.31 5.31 0 0 1-.42-2.35 5.37 5.37 0 0 1 .45-2.37 3.84 3.84 0 0 1 1.37-1.6 3.66 3.66 0 0 1 2.07-.58 4.25 4.25 0 0 1 1.35.23 3.27 3.27 0 0 1 1.21.74 3.54 3.54 0 0 1 .87 1.34 5.8 5.8 0 0 1 .32 2.05v.57h-6.73v-1.16h5.37a2.85 2.85 0 0 0-.3-1.32 2.21 2.21 0 0 0-.83-.91 2.37 2.37 0 0 0-1.26-.36 2.47 2.47 0 0 0-1.39.4 2.66 2.66 0 0 0-.89 1 3 3 0 0 0-.31 1.36v.77a3.73 3.73 0 0 0 .34 1.68 2.48 2.48 0 0 0 1 1 2.86 2.86 0 0 0 1.43.35 2.83 2.83 0 0 0 .95-.15 1.92 1.92 0 0 0 .74-.45 2.16 2.16 0 0 0 .49-.77l1.29.37a2.85 2.85 0 0 1-.68 1.16 3.44 3.44 0 0 1-1.2.77 4.42 4.42 0 0 1-1.66.35Zm-9.35-.18v-8.73H54v1.32h.1a2 2 0 0 1 .86-1 2.55 2.55 0 0 1 1.41-.4h.7v1.36l-.31-.05a4.06 4.06 0 0 0-.51 0 2.33 2.33 0 0 0-1.13.27 2.05 2.05 0 0 0-.79.73 1.92 1.92 0 0 0-.28 1v5.52Zm-5.65.18a4.11 4.11 0 0 1-2.18-.55 3.74 3.74 0 0 1-1.4-1.57 5.31 5.31 0 0 1-.42-2.35 5.37 5.37 0 0 1 .45-2.37 3.84 3.84 0 0 1 1.37-1.6 3.66 3.66 0 0 1 2.07-.58 4.15 4.15 0 0 1 1.34.23 3.23 3.23 0 0 1 1.22.74 3.54 3.54 0 0 1 .87 1.34 5.8 5.8 0 0 1 .32 2.05v.57h-6.73v-1.16h5.37a2.85 2.85 0 0 0-.3-1.32 2.21 2.21 0 0 0-.83-.91 2.37 2.37 0 0 0-1.26-.36 2.47 2.47 0 0 0-1.39.4 2.66 2.66 0 0 0-.89 1 3 3 0 0 0-.31 1.36v.77a3.73 3.73 0 0 0 .34 1.68 2.48 2.48 0 0 0 1 1 2.86 2.86 0 0 0 1.43.35 2.83 2.83 0 0 0 .95-.15 1.92 1.92 0 0 0 .74-.45 2.16 2.16 0 0 0 .49-.77l1.29.37a2.85 2.85 0 0 1-.68 1.16 3.44 3.44 0 0 1-1.2.77 4.42 4.42 0 0 1-1.66.35Zm-15.3-.18V69h1.41v5.19h6.21V69h1.41v11.66h-1.41v-5.2h-6.21v5.2Zm-9.9-10.82h1.34v8.32a1.72 1.72 0 0 0 .17.85.83.83 0 0 0 .43.38 1.73 1.73 0 0 0 .56.09h.59l.27 1.21-.38.1a3 3 0 0 1-1.73-.19 2.05 2.05 0 0 1-1.25-2Zm3.2 2.09v1.14h-4.52v-1.14Zm-7.6 5.16v-5.16h1.34v8.73h-1.33v-1.48h-.09a2.78 2.78 0 0 1-.95 1.13 2.74 2.74 0 0 1-1.64.46 3 3 0 0 1-1.45-.35 2.52 2.52 0 0 1-1-1.09 4.06 4.06 0 0 1-.37-1.85v-5.55h1.34v5.46a2.12 2.12 0 0 0 .54 1.52 1.81 1.81 0 0 0 1.37.57 2.27 2.27 0 0 0 1-.26 2.16 2.16 0 0 0 .87-.78 2.34 2.34 0 0 0 .38-1.35Zm-7.58-4.43H8.41a2.94 2.94 0 0 0-1.19-1.84 3.26 3.26 0 0 0-1-.48 4.14 4.14 0 0 0-1.11-.16 3.52 3.52 0 0 0-1.92.54 3.7 3.7 0 0 0-1.36 1.57 6.75 6.75 0 0 0 0 5.1A3.73 3.73 0 0 0 3.22 79a3.6 3.6 0 0 0 1.92.53 3.77 3.77 0 0 0 1.11-.16 3 3 0 0 0 1-.47 2.79 2.79 0 0 0 .75-.81A2.85 2.85 0 0 0 8.41 77h1.41a4.76 4.76 0 0 1-.58 1.6 4.37 4.37 0 0 1-2.45 1.94 5.28 5.28 0 0 1-1.65.26 4.82 4.82 0 0 1-2.65-.73A5 5 0 0 1 .66 78a8 8 0 0 1 0-6.36 5.13 5.13 0 0 1 1.83-2.07 4.9 4.9 0 0 1 2.65-.72 5.27 5.27 0 0 1 1.65.25 4.39 4.39 0 0 1 1.4.75 4.29 4.29 0 0 1 1.05 1.19 4.76 4.76 0 0 1 .58 1.62ZM74.05 74.16h26v1h-26zM106.05 75.16h2v-1h-2Zm0 24h2v-1h-2Zm-.5-24.5v24h1v-24Zm.5 24h-.5v.5h.5Zm0-24v-.5h-.5v.5Z"/><path d="M38.05 491.16h2v-1h-2Zm0 18h2v-1h-2Zm-.5-18.5v18h1v-18Zm.5 18h-.5v.5h.5Zm0-18v-.5h-.5v.5ZM38.05 582.16h2v-1h-2Zm0 18h2v-1h-2Zm-.5-18.5v18h1v-18Zm.5 18h-.5v.5h.5Zm0-18v-.5h-.5v.5ZM38.05 673.16h2v-1h-2Zm0 18h2v-1h-2Zm-.5-18.5v18h1v-18Zm.5 18h-.5v.5h.5Zm0-18v-.5h-.5v.5ZM138.05 2.16h2v-1h-2Zm0 97h2v-1h-2Zm-.5-97.5v97h1v-97Zm.5 97h-.5v.5h.5Zm0-97v-.5h-.5v.5ZM259.63 98.66h-33V1.33h33.64q14.49 0 24.93 5.83a39.25 39.25 0 0 1 16 16.7q5.61 10.89 5.61 26T301.23 76A39.15 39.15 0 0 1 285 92.81q-10.54 5.85-25.37 5.85ZM244.28 83.4h14.49q10.17 0 17-3.72A23.58 23.58 0 0 0 286 68.51q3.41-7.44 3.42-18.61T286 31.34a23.56 23.56 0 0 0-10.1-11.07q-6.69-3.68-16.56-3.68h-15ZM355.15 100.09q-11 0-18.94-4.59a30.63 30.63 0 0 1-12.24-13q-4.28-8.43-4.28-19.89A43.39 43.39 0 0 1 324 42.8a32.38 32.38 0 0 1 12-13.31 34 34 0 0 1 18.21-4.78A37.26 37.26 0 0 1 367 26.88a29.22 29.22 0 0 1 10.64 6.68A31.44 31.44 0 0 1 385 45a46.49 46.49 0 0 1 2.66 16.56v5.28h-59.88V55.27h43.34a18.75 18.75 0 0 0-2.12-8.81 15.69 15.69 0 0 0-5.82-6.11 16.56 16.56 0 0 0-8.67-2.23 16.92 16.92 0 0 0-9.27 2.54 17.84 17.84 0 0 0-6.24 6.65 19.28 19.28 0 0 0-2.26 9v10.13a23.59 23.59 0 0 0 2.34 10.91 16.38 16.38 0 0 0 6.51 6.94 19.31 19.31 0 0 0 9.78 2.39 20.47 20.47 0 0 0 6.8-1.06 14.82 14.82 0 0 0 5.28-3.16 13.24 13.24 0 0 0 3.37-5.19l16.07 1.81a25 25 0 0 1-5.78 11.1 28 28 0 0 1-10.86 7.32 41.08 41.08 0 0 1-15.1 2.59ZM465.22 25.66l-26 73h-19l-26-73h18.34l16.78 54.23h.76l16.82-54.23ZM564.83 50q0 15.74-5.87 26.92a42 42 0 0 1-16 17.14 47 47 0 0 1-45.77 0 42 42 0 0 1-16-17.16q-5.81-11.22-5.8-26.9t5.87-26.92A41.78 41.78 0 0 1 497.23 6 47 47 0 0 1 543 6a41.82 41.82 0 0 1 16 17.13q5.83 11.14 5.83 26.87Zm-17.72 0q0-11.07-3.45-18.7a26 26 0 0 0-9.53-11.55 27 27 0 0 0-28 0 26 26 0 0 0-9.53 11.55q-3.45 7.62-3.45 18.7t3.45 18.7a26 26 0 0 0 9.53 11.55 27 27 0 0 0 28 0 26 26 0 0 0 9.53-11.55q3.45-7.62 3.45-18.7ZM580.8 126V25.66h16.92v12.08h1a32.47 32.47 0 0 1 3.76-5.69 20.47 20.47 0 0 1 6.52-5.17 22.54 22.54 0 0 1 10.55-2.17A28.1 28.1 0 0 1 634.86 29a29.72 29.72 0 0 1 10.83 12.7q4 8.4 4 20.55t-4 20.45A30.09 30.09 0 0 1 635 95.53a27.61 27.61 0 0 1-15.4 4.42 23 23 0 0 1-10.41-2.09 20.74 20.74 0 0 1-6.63-5.07 31.39 31.39 0 0 1-3.88-5.63H598V126Zm16.87-63.86a34.82 34.82 0 0 0 2 12.4 18.5 18.5 0 0 0 5.85 8.29 16.2 16.2 0 0 0 18.84-.1 18.64 18.64 0 0 0 5.82-8.41 34.89 34.89 0 0 0 2-12.18 35 35 0 0 0-1.94-12.08 18.19 18.19 0 0 0-5.8-8.27 16.76 16.76 0 0 0-19-.1 17.66 17.66 0 0 0-5.82 8.14 34.66 34.66 0 0 0-1.95 12.34ZM722.09 45l-15.68 1.71a12.73 12.73 0 0 0-2.31-4.47 11.87 11.87 0 0 0-4.39-3.37 16 16 0 0 0-6.71-1.33 16.51 16.51 0 0 0-9 2.33c-2.42 1.56-3.62 3.56-3.58 6a6.27 6.27 0 0 0 2.35 5.18c1.59 1.33 4.25 2.43 7.95 3.28L703.13 57q10.35 2.23 15.42 7.09c3.38 3.22 5.08 7.46 5.11 12.68a19.82 19.82 0 0 1-4 12.15 26 26 0 0 1-11 8.19 41.44 41.44 0 0 1-16.16 3q-13.4 0-21.57-5.63a22.52 22.52 0 0 1-9.75-15.71l16.78-1.62a11.81 11.81 0 0 0 4.85 7.46 16.74 16.74 0 0 0 9.64 2.53q6.14 0 9.87-2.53c2.48-1.68 3.73-3.74 3.73-6.22a6.54 6.54 0 0 0-2.4-5.18 17.15 17.15 0 0 0-7.44-3.14l-12.45-2.61q-10.51-2.19-15.55-7.39a18 18 0 0 1-5-13.19 18.66 18.66 0 0 1 3.68-11.71 23.9 23.9 0 0 1 10.41-7.7 40.49 40.49 0 0 1 15.42-2.74q12.84 0 20.22 5.47a23 23 0 0 1 9.15 14.8ZM259.63 787.66h-33v-97.33h33.64q14.49 0 24.93 5.82a39.33 39.33 0 0 1 16 16.71q5.61 10.88 5.61 26T301.23 765A39.21 39.21 0 0 1 285 781.81q-10.54 5.85-25.37 5.85Zm-15.35-15.26h14.49q10.17 0 17-3.72A23.61 23.61 0 0 0 286 757.5q3.41-7.43 3.42-18.6T286 720.34a23.56 23.56 0 0 0-10.1-11.07q-6.69-3.67-16.56-3.69h-15ZM355.15 789.09q-11 0-18.94-4.59a30.63 30.63 0 0 1-12.24-13q-4.28-8.43-4.28-19.89A43.34 43.34 0 0 1 324 731.8a32.31 32.31 0 0 1 12-13.31 34 34 0 0 1 18.21-4.78 37.26 37.26 0 0 1 12.79 2.17 29.19 29.19 0 0 1 10.64 6.67A31.49 31.49 0 0 1 385 734a46.45 46.45 0 0 1 2.66 16.56v5.28h-59.88v-11.6h43.34a18.75 18.75 0 0 0-2.14-8.81 15.69 15.69 0 0 0-5.82-6.11 16.56 16.56 0 0 0-8.67-2.23 17 17 0 0 0-9.27 2.53 17.79 17.79 0 0 0-6.21 6.66 19.25 19.25 0 0 0-2.26 9v10.11a23.6 23.6 0 0 0 2.34 10.92 16.41 16.41 0 0 0 6.51 6.93 19.22 19.22 0 0 0 9.78 2.4 20.22 20.22 0 0 0 6.8-1.07 14.68 14.68 0 0 0 5.28-3.16 13.13 13.13 0 0 0 3.37-5.18l16.07 1.81a25 25 0 0 1-5.78 11.1 28.18 28.18 0 0 1-10.86 7.32 41.08 41.08 0 0 1-15.11 2.63ZM465.22 714.66l-26 73h-19l-26-73h18.34l16.78 54.22h.76l16.82-54.22ZM564.83 739q0 15.74-5.87 26.92a41.89 41.89 0 0 1-16 17.13 47 47 0 0 1-45.77 0 42 42 0 0 1-16-17.16q-5.88-11.19-5.87-26.87t5.87-26.92a41.87 41.87 0 0 1 16-17.14 47.05 47.05 0 0 1 45.77 0 41.91 41.91 0 0 1 16 17.14q5.87 11.17 5.87 26.9Zm-17.72 0q0-11.09-3.45-18.7a26.05 26.05 0 0 0-9.53-11.56 27 27 0 0 0-28 0 26.05 26.05 0 0 0-9.53 11.56q-3.45 7.61-3.45 18.7t3.45 18.7a26 26 0 0 0 9.53 11.54 27 27 0 0 0 28 0 26 26 0 0 0 9.53-11.54q3.45-7.63 3.45-18.7ZM580.8 815V714.66h16.92v12.08h1a32.11 32.11 0 0 1 3.76-5.69 20.33 20.33 0 0 1 6.56-5.17 22.54 22.54 0 0 1 10.55-2.17 28.1 28.1 0 0 1 15.28 4.3 29.66 29.66 0 0 1 10.83 12.69q4 8.4 4 20.55t-4 20.44a30 30 0 0 1-10.7 12.83 27.54 27.54 0 0 1-15.4 4.43 22.85 22.85 0 0 1-10.41-2.1 20.57 20.57 0 0 1-6.63-5.06 31.75 31.75 0 0 1-3.88-5.63H598V815Zm16.87-63.87a34.84 34.84 0 0 0 2 12.41 18.5 18.5 0 0 0 5.85 8.29 16.2 16.2 0 0 0 18.84-.1 18.75 18.75 0 0 0 5.82-8.41 38.61 38.61 0 0 0 0-24.26 18.14 18.14 0 0 0-5.8-8.27 16.71 16.71 0 0 0-19-.1 17.66 17.66 0 0 0-5.82 8.14 34.64 34.64 0 0 0-1.89 12.33ZM722.09 734l-15.68 1.71a12.65 12.65 0 0 0-2.31-4.47 11.89 11.89 0 0 0-4.39-3.38 16 16 0 0 0-6.75-1.28 16.42 16.42 0 0 0-9 2.33c-2.42 1.56-3.62 3.56-3.58 6a6.27 6.27 0 0 0 2.35 5.19c1.59 1.33 4.25 2.43 7.95 3.28l12.45 2.62q10.35 2.25 15.42 7.09t5.11 12.69a19.82 19.82 0 0 1-4 12.15 26 26 0 0 1-11 8.19 41.44 41.44 0 0 1-16.16 3q-13.4 0-21.57-5.63a22.52 22.52 0 0 1-9.75-15.71l16.78-1.62a11.81 11.81 0 0 0 4.85 7.46 16.74 16.74 0 0 0 9.64 2.53q6.14 0 9.87-2.53c2.48-1.68 3.73-3.75 3.73-6.22a6.54 6.54 0 0 0-2.4-5.18c-1.6-1.37-4.08-2.41-7.44-3.14l-12.45-2.61q-10.51-2.19-15.55-7.39a18 18 0 0 1-5-13.19 18.67 18.67 0 0 1 3.68-11.72 24.05 24.05 0 0 1 10.41-7.7 40.5 40.5 0 0 1 15.42-2.73q12.84 0 20.22 5.47a23 23 0 0 1 9.15 14.79Z"/><g style="opacity:.75"><path d="M244.28 672.7v-58.07h15q9.88 0 16.56 3.68A23.56 23.56 0 0 1 286 629.38q3.41 7.39 3.42 18.56T286 666.55a25.18 25.18 0 0 1-4 6.15h19.9c3.3-7 5-15.24 5-24.76q0-15.15-5.61-26a39.25 39.25 0 0 0-16-16.7q-10.44-5.82-24.93-5.83h-33.71v73.29ZM338 672.7a25.42 25.42 0 0 1-1.2-7.79h50.84v-5.28a46.49 46.49 0 0 0-2.64-16.56 31.44 31.44 0 0 0-7.3-11.47 29.22 29.22 0 0 0-10.7-6.68 37.26 37.26 0 0 0-12.76-2.17 34 34 0 0 0-18.24 4.78 32.38 32.38 0 0 0-12 13.31 43.39 43.39 0 0 0-4.31 19.79 49.4 49.4 0 0 0 1.41 12.07Zm7.25-34a16.92 16.92 0 0 1 9.27-2.54 16.49 16.49 0 0 1 8.66 2.23 15.65 15.65 0 0 1 5.82 6.11 18.75 18.75 0 0 1 2.14 8.81h-34.35a19.07 19.07 0 0 1 2.22-8 17.76 17.76 0 0 1 6.21-6.61ZM447.77 672.7l17.45-49h-18.3l-15.2 49h16.05zM427.72 672.7l-15.16-49h-18.34l17.45 49h16.05zM500.1 672.7a29.88 29.88 0 0 1-3.54-6q-3.45-7.62-3.45-18.7t3.45-18.7a26 26 0 0 1 9.53-11.55 27 27 0 0 1 28 0 26 26 0 0 1 9.53 11.55q3.45 7.62 3.45 18.7t-3.45 18.7a29.88 29.88 0 0 1-3.54 6h19.93c3.17-7 4.78-15.21 4.78-24.66q0-15.74-5.87-26.92A41.82 41.82 0 0 0 543 604a47 47 0 0 0-45.77 0 41.78 41.78 0 0 0-16 17.13q-5.88 11.19-5.87 26.92 0 14.18 4.81 24.66ZM599.73 672.7a.36.36 0 0 1 0-.09 39.16 39.16 0 0 1 0-24.71 17.66 17.66 0 0 1 5.82-8.14 16.76 16.76 0 0 1 19 .1 18.14 18.14 0 0 1 5.8 8.27 38.61 38.61 0 0 1 0 24.26l-.12.31h18.36a56.83 56.83 0 0 0 1.27-12.41q0-12.15-4-20.55a29.66 29.66 0 0 0-10.83-12.69 28.1 28.1 0 0 0-15.28-4.3 22.54 22.54 0 0 0-10.75 2.17 20.47 20.47 0 0 0-6.56 5.17 32.47 32.47 0 0 0-3.76 5.69h-1V623.7H580.8v49ZM683.74 665.48l12.45 2.61a17.15 17.15 0 0 1 7.44 3.14 6.92 6.92 0 0 1 1.31 1.47h18.6a16.35 16.35 0 0 0-5-10.54q-5.07-4.86-15.42-7.09l-12.46-2.66c-3.7-.85-6.36-1.95-7.95-3.28a6.27 6.27 0 0 1-2.35-5.18c0-2.48 1.16-4.48 3.58-6a16.51 16.51 0 0 1 9-2.33 16 16 0 0 1 6.75 1.29 11.87 11.87 0 0 1 4.39 3.37 12.73 12.73 0 0 1 2.31 4.47l15.7-1.75a23 23 0 0 0-9.15-14.78q-7.4-5.46-20.22-5.47a40.49 40.49 0 0 0-15.42 2.74 23.9 23.9 0 0 0-10.41 7.7 18.66 18.66 0 0 0-3.68 11.71 18 18 0 0 0 5 13.19q5.02 5.2 15.53 7.39Z"/></g><g style="opacity:.5"><path d="M244.28 581.7v-58.07h15q9.88 0 16.56 3.68A23.53 23.53 0 0 1 286 538.39q3.41 7.38 3.42 18.55T286 575.55a25 25 0 0 1-4 6.15h19.9c3.3-7 5-15.24 5-24.76q0-15.15-5.61-26a39.25 39.25 0 0 0-16-16.7q-10.44-5.82-24.93-5.83h-33.71v73.29ZM338 581.7a25.42 25.42 0 0 1-1.2-7.79h50.84v-5.28a46.43 46.43 0 0 0-2.64-16.55 31.4 31.4 0 0 0-7.3-11.48 29.22 29.22 0 0 0-10.7-6.68 37.26 37.26 0 0 0-12.76-2.17 34 34 0 0 0-18.24 4.78 32.38 32.38 0 0 0-12 13.31 43.39 43.39 0 0 0-4.31 19.79 49.34 49.34 0 0 0 1.41 12.07Zm7.25-34a16.92 16.92 0 0 1 9.27-2.54 16.49 16.49 0 0 1 8.66 2.23 15.65 15.65 0 0 1 5.82 6.11 18.75 18.75 0 0 1 2.14 8.81h-34.35a19.07 19.07 0 0 1 2.22-8 17.76 17.76 0 0 1 6.21-6.61ZM447.77 581.7l17.45-49h-18.3l-15.2 49h16.05zM427.72 581.7l-15.16-49h-18.34l17.45 49h16.05zM500.1 581.7a29.88 29.88 0 0 1-3.54-6q-3.45-7.62-3.45-18.7t3.45-18.7a26 26 0 0 1 9.53-11.55 27 27 0 0 1 28 0 26 26 0 0 1 9.53 11.55q3.45 7.62 3.45 18.7t-3.45 18.7a29.88 29.88 0 0 1-3.54 6h19.93c3.17-7 4.78-15.2 4.78-24.66q0-15.74-5.87-26.92A41.82 41.82 0 0 0 543 513a47 47 0 0 0-45.77 0 41.78 41.78 0 0 0-16 17.13q-5.88 11.19-5.87 26.92 0 14.18 4.81 24.66ZM599.73 581.7a.36.36 0 0 1 0-.09 39.16 39.16 0 0 1 0-24.71 17.71 17.71 0 0 1 5.82-8.14 16.76 16.76 0 0 1 19 .1 18.19 18.19 0 0 1 5.8 8.27 38.61 38.61 0 0 1 0 24.26l-.12.31h18.36a56.83 56.83 0 0 0 1.27-12.41q0-12.15-4-20.55a29.72 29.72 0 0 0-10.83-12.69 28.1 28.1 0 0 0-15.28-4.3 22.54 22.54 0 0 0-10.75 2.17 20.47 20.47 0 0 0-6.56 5.17 32.47 32.47 0 0 0-3.76 5.69h-1V532.7H580.8v49ZM683.74 574.48l12.45 2.61a17.15 17.15 0 0 1 7.44 3.14 6.92 6.92 0 0 1 1.31 1.47h18.6a16.35 16.35 0 0 0-5-10.54q-5.07-4.86-15.42-7.09l-12.46-2.66c-3.7-.85-6.36-1.95-7.95-3.28a6.27 6.27 0 0 1-2.35-5.18c0-2.48 1.16-4.48 3.58-6a16.51 16.51 0 0 1 9-2.33 16 16 0 0 1 6.75 1.29 11.87 11.87 0 0 1 4.39 3.37 12.73 12.73 0 0 1 2.31 4.47l15.7-1.75a23 23 0 0 0-9.15-14.78q-7.4-5.46-20.22-5.47a40.49 40.49 0 0 0-15.42 2.74 24.05 24.05 0 0 0-10.41 7.7 18.67 18.67 0 0 0-3.68 11.72 18 18 0 0 0 5 13.18q5.02 5.2 15.53 7.39Z"/></g><g style="opacity:.25"><path d="M244.28 490.73v-58.07h15q9.88 0 16.56 3.68A23.58 23.58 0 0 1 286 447.42q3.41 7.38 3.42 18.56t-3.42 18.6a25 25 0 0 1-4 6.15h19.9c3.3-7 5-15.24 5-24.75q0-15.17-5.61-26a39.28 39.28 0 0 0-16-16.71q-10.44-5.82-24.93-5.83h-33.71v73.33ZM338 490.73a25.35 25.35 0 0 1-1.2-7.78h50.84v-5.29a46.43 46.43 0 0 0-2.64-16.55 31.49 31.49 0 0 0-7.3-11.48A29.22 29.22 0 0 0 367 443a37.25 37.25 0 0 0-12.76-2.16 34 34 0 0 0-18.24 4.73 32.31 32.31 0 0 0-12 13.31 43.34 43.34 0 0 0-4.31 19.79 49.32 49.32 0 0 0 1.41 12.06Zm7.25-34a16.92 16.92 0 0 1 9.27-2.54 16.41 16.41 0 0 1 8.66 2.24 15.58 15.58 0 0 1 5.83 6.11 18.75 18.75 0 0 1 2.14 8.81h-34.36a19 19 0 0 1 2.22-8 17.71 17.71 0 0 1 6.21-6.62ZM447.77 490.73l17.45-49h-18.3l-15.2 49h16.05zM427.72 490.73l-15.16-49h-18.34l17.45 49h16.05zM500.1 490.73a30.09 30.09 0 0 1-3.54-6q-3.45-7.63-3.45-18.7t3.45-18.7a26 26 0 0 1 9.53-11.56 27 27 0 0 1 28 0 26 26 0 0 1 9.53 11.56q3.45 7.61 3.45 18.7t-3.45 18.7a30.09 30.09 0 0 1-3.54 6h19.93c3.17-7 4.78-15.2 4.78-24.65q0-15.74-5.87-26.93A41.82 41.82 0 0 0 543 422a47 47 0 0 0-45.77 0 41.78 41.78 0 0 0-16 17.13q-5.88 11.19-5.87 26.93 0 14.16 4.81 24.65ZM599.73 490.73a.3.3 0 0 1 0-.08 39.19 39.19 0 0 1 0-24.72 17.68 17.68 0 0 1 5.82-8.13 16.71 16.71 0 0 1 19 .1 18.11 18.11 0 0 1 5.8 8.26 38.64 38.64 0 0 1 0 24.27l-.12.3h18.36a56.74 56.74 0 0 0 1.27-12.4q0-12.16-4-20.55a29.6 29.6 0 0 0-10.83-12.69 28 28 0 0 0-15.28-4.3A22.55 22.55 0 0 0 609 443a20.35 20.35 0 0 0-6.56 5.18 32.42 32.42 0 0 0-3.76 5.68h-1v-12.13H580.8v49ZM683.74 483.51l12.45 2.62q5 1.1 7.44 3.13a6.92 6.92 0 0 1 1.31 1.47h18.6a16.35 16.35 0 0 0-5-10.54q-5.07-4.85-15.42-7.09l-12.46-2.66c-3.7-.85-6.36-1.95-7.95-3.28a6.25 6.25 0 0 1-2.35-5.18c0-2.47 1.16-4.48 3.58-6a16.42 16.42 0 0 1 9-2.33 16 16 0 0 1 6.75 1.28 11.79 11.79 0 0 1 4.39 3.38 12.61 12.61 0 0 1 2.31 4.46l15.7-1.77a23 23 0 0 0-9.15-14.78q-7.4-5.44-20.22-5.46a40.5 40.5 0 0 0-15.42 2.73 24.05 24.05 0 0 0-10.41 7.7 18.67 18.67 0 0 0-3.68 11.72 18.06 18.06 0 0 0 5 13.19q5.02 5.22 15.53 7.41Z"/></g></g></svg>