<svg xmlns="http://www.w3.org/2000/svg" id="Layer_2" data-name="Layer 2" viewBox="0 0 960 951.2"><defs><style>.cls-2{fill:#fff}.cls-2,.cls-4,.cls-5{stroke-width:0}.cls-5{fill:#171321}.cls-4{fill:#a2a1a6}</style></defs><g id="Layer_1-2" data-name="Layer 1"><g id="LOGO"><path d="M0 401.3h960v1H0zM0 631.3h960v1H0zM0 819.3h960v1H0zM7.4 19.2H5.6V4.7h1.8v14.5Zm-.8 0v-1.6H10c3.6 0 5.3-2.2 5.3-5.7s-1.7-5.7-5.1-5.7H6.5V4.6h3.8c4.2 0 6.8 2.7 6.8 7.2s-2.5 7.3-7 7.3H6.6v.1ZM18.9 5.8c0-.6.5-1.1 1.1-1.1s1.1.5 1.1 1.1-.5 1.1-1.1 1.1-1.1-.5-1.1-1.1Zm.3 3.1h1.7v10.3h-1.7V8.9ZM22.8 16.1h1.6c.1 1.2 1 1.9 2.4 1.9s2.3-.7 2.3-1.6c0-.8-.6-1.2-1.6-1.4l-1.7-.4c-1.9-.4-2.9-1.4-2.9-2.9 0-1.8 1.5-3 3.7-3s3.8 1.3 3.8 3.3h-1.6c0-1.1-.9-1.9-2.2-1.9s-2.1.7-2.1 1.6c0 .8.6 1.2 1.6 1.5l1.7.4c2 .5 2.9 1.4 2.9 2.9 0 1.9-1.7 3-3.9 3-2.1-.1-3.9-1.1-4-3.4ZM32.8 8.9h1.6v1.5c.7-1.2 1.9-1.7 3.3-1.7 2.7 0 4.5 2.2 4.5 5.4s-1.8 5.4-4.5 5.4c-1.3 0-2.5-.6-3.2-1.8v5.6h-1.7V8.9Zm7.7 5.2c0-2.5-1.3-3.9-3-3.9-1.9 0-3.1 1.5-3.1 3.9s1.2 3.9 3.1 3.9c1.7-.1 3-1.4 3-3.9ZM44.1 16.9V4.7h1.7v12.1c0 .9.2 1.1 1.1 1.1h.4v1.4h-.5c-2-.1-2.7-.7-2.7-2.4ZM48.2 16.2c0-2.4 2-2.8 4.1-3.1 2-.3 2.6-.2 2.6-1V12c0-1.1-.8-1.9-2.3-1.9-1.4 0-2.4.8-2.5 1.8h-1.7c.1-1.9 1.8-3.3 4.2-3.3s3.9 1.4 3.9 3.4v7.1h-1.6v-1.5c-.4.7-1.2 1.6-3.1 1.6-2 .2-3.6-.9-3.6-3Zm6.7-.9V14c-.3.2-1.5.4-2.7.6s-2.3.6-2.3 1.7c0 1 .8 1.5 2.1 1.5 2.1.1 2.9-1.1 2.9-2.5ZM59.1 21.8h1c.6 0 1.1-.4 1.4-1.2l.6-1.5-4-10.2h1.8l2.2 5.9c.4 1 .7 2 1.1 3h-.4c.3-1 .7-2 1.1-3l2.2-5.9h1.8l-4.8 12.2c-.5 1.4-1.6 2.2-2.9 2.2h-1v-1.5h-.1ZM75.9 19.2h-1.7V4.7h1.7v6.7h-.5c.7-1.9 1.9-2.7 3.5-2.7 2.1 0 3.8 1.4 3.8 4.1v6.4H81v-6.3c0-1.8-.9-2.7-2.4-2.7s-2.7.9-2.7 2.9v6.1ZM84.7 14.1c0-3.1 1.9-5.4 4.7-5.4s4.7 2.2 4.7 5.4v.5h-8.5v-1.4h7.5l-.7.5c0-2.1-1.2-3.5-3-3.5s-3 1.4-3 3.5v.7c0 2.1 1.1 3.6 3.1 3.6 1.5 0 2.4-.7 2.7-1.8h1.7c-.4 2-2.1 3.3-4.4 3.3-3.1-.1-4.8-2.3-4.8-5.4ZM95.5 16.2c0-2.4 2-2.8 4.1-3.1 2-.3 2.6-.2 2.6-1V12c0-1.1-.8-1.9-2.3-1.9-1.4 0-2.4.8-2.5 1.8h-1.7c.1-1.9 1.8-3.3 4.2-3.3s3.9 1.4 3.9 3.4v7.1h-1.6v-1.5c-.4.7-1.2 1.6-3.1 1.6-2.1.2-3.6-.9-3.6-3Zm6.7-.9V14c-.3.2-1.5.4-2.7.6s-2.3.6-2.3 1.7c0 1 .8 1.5 2.1 1.5 2 .1 2.9-1.1 2.9-2.5ZM105.8 14.1c0-3.2 1.8-5.4 4.5-5.4 1.3 0 2.6.6 3.2 1.7V4.6h1.7v14.6h-1.6v-1.6c-.7 1.2-1.9 1.8-3.3 1.8-2.8 0-4.5-2.2-4.5-5.3Zm7.8 0c0-2.3-1.2-3.9-3.1-3.9-1.8 0-3 1.3-3 3.9s1.3 3.9 3 3.9c1.9-.1 3.1-1.6 3.1-3.9ZM117.6 16.9V4.7h1.7v12.1c0 .9.2 1.1 1.1 1.1h.4v1.4h-.5c-2-.1-2.7-.7-2.7-2.4ZM121.9 5.8c0-.6.5-1.1 1.1-1.1s1.1.5 1.1 1.1-.5 1.1-1.1 1.1-1.1-.5-1.1-1.1Zm.3 3.1h1.7v10.3h-1.7V8.9ZM128 19.2h-1.7V8.9h1.6v2.5h-.5c.7-1.9 1.9-2.7 3.5-2.7 2.1 0 3.8 1.4 3.8 4.1v6.4H133v-6.3c0-1.8-.9-2.7-2.4-2.7s-2.7.9-2.7 2.9v6.1h.1ZM136.7 14.1c0-3.1 1.9-5.4 4.7-5.4s4.7 2.2 4.7 5.4v.5h-8.5v-1.4h7.5l-.7.5c0-2.1-1.2-3.5-3-3.5s-3 1.4-3 3.5v.7c0 2.1 1.1 3.6 3.1 3.6 1.5 0 2.4-.7 2.7-1.8h1.7c-.4 2-2.1 3.3-4.4 3.3-3-.1-4.8-2.3-4.8-5.4ZM147.5 16.1h1.6c.1 1.2 1 1.9 2.4 1.9s2.3-.7 2.3-1.6c0-.8-.6-1.2-1.6-1.4l-1.7-.4c-1.9-.4-2.9-1.4-2.9-2.9 0-1.8 1.5-3 3.7-3s3.8 1.3 3.8 3.3h-1.6c0-1.1-.9-1.9-2.2-1.9s-2.1.7-2.1 1.6c0 .8.6 1.2 1.6 1.5l1.7.4c2 .5 2.9 1.4 2.9 2.9 0 1.9-1.7 3-3.9 3-2.2-.1-3.9-1.1-4-3.4ZM169.9 23.9h-1.4V0h1.4v23.9ZM183 11.9c0-4.4 2.8-7.5 6.7-7.5 3.1 0 5.5 2 6.1 4.9h-1.9c-.4-2-2.1-3.3-4.3-3.3-2.9 0-4.9 2.4-4.9 5.9s2 5.9 4.9 5.9c2.4 0 4.4-1.8 4.4-4.3h.6-4.4v-1.6h5.5v1.6c0 3.4-2.7 5.9-6.1 5.9-3.8 0-6.6-3.1-6.6-7.5ZM197.7 5.8c0-.6.5-1.1 1.1-1.1s1.1.5 1.1 1.1-.5 1.1-1.1 1.1-1.1-.5-1.1-1.1Zm.3 3.1h1.7v10.3H198V8.9ZM206.6 10.3H201V8.9h5.6v1.4Zm-2.1-4.2v10.6c0 .8.3 1.1 1.1 1.1h1v1.4h-1.1c-1.8 0-2.6-.8-2.6-2.3V6.1h1.6ZM208.5 4.7h1.8v13h7v1.6h-8.8V4.7ZM218.6 16.2c0-2.4 2-2.8 4.1-3.1 2-.3 2.6-.2 2.6-1V12c0-1.1-.8-1.9-2.3-1.9-1.4 0-2.4.8-2.5 1.8h-1.7c.1-1.9 1.8-3.3 4.2-3.3s3.9 1.4 3.9 3.4v7.1h-1.6v-1.5c-.4.7-1.2 1.6-3.1 1.6-2.1.2-3.6-.9-3.6-3Zm6.7-.9V14c-.3.2-1.5.4-2.7.6s-2.3.6-2.3 1.7c0 1 .8 1.5 2.1 1.5 2 .1 2.9-1.1 2.9-2.5ZM231 17.6v1.6h-1.6V4.7h1.7v5.8c.7-1.2 1.9-1.7 3.2-1.7 2.7 0 4.5 2.2 4.5 5.4s-1.8 5.4-4.5 5.4c-1.4-.2-2.5-.8-3.3-2Zm6.1-3.5c0-2.5-1.3-3.9-3-3.9-1.9 0-3.1 1.5-3.1 3.9s1.2 3.9 3.1 3.9c1.7-.1 3-1.4 3-3.9ZM245.2 14.5h1.8c0 2.1 1.4 3.3 3.7 3.3 2.1 0 3.5-1 3.5-2.6 0-1.2-.8-1.9-2.9-2.4l-1.6-.4c-3-.7-4.2-1.9-4.2-3.9 0-2.5 2-4.2 5-4.2s5 1.7 5 4.5h-1.7c-.1-1.8-1.4-2.9-3.4-2.9s-3.2 1-3.2 2.5c0 1.1.8 1.8 2.9 2.3l1.7.4c2.8.7 4.2 2 4.2 4 0 2.5-2.1 4.2-5.3 4.2-3.4.1-5.5-1.7-5.5-4.8ZM257.5 16.2c0-2.4 2-2.8 4.1-3.1 2-.3 2.6-.2 2.6-1V12c0-1.1-.8-1.9-2.3-1.9-1.4 0-2.4.8-2.5 1.8h-1.7c.1-1.9 1.8-3.3 4.2-3.3s3.9 1.4 3.9 3.4v7.1h-1.6v-1.5c-.4.7-1.2 1.6-3.1 1.6-2 .2-3.6-.9-3.6-3Zm6.7-.9V14c-.3.2-1.5.4-2.7.6s-2.3.6-2.3 1.7c0 1 .8 1.5 2.1 1.5 2.1.1 2.9-1.1 2.9-2.5ZM270 19.2h-1.7V8.9h1.6v2.5h-.5c.7-1.9 1.9-2.7 3.5-2.7 2.1 0 3.8 1.4 3.8 4.1v6.4H275v-6.3c0-1.8-.9-2.7-2.4-2.7s-2.7.9-2.7 2.9v6.1h.1ZM278.8 16.1h1.6c.1 1.2 1 1.9 2.4 1.9s2.3-.7 2.3-1.6c0-.8-.6-1.2-1.6-1.4l-1.7-.4c-1.9-.4-2.9-1.4-2.9-2.9 0-1.8 1.5-3 3.7-3s3.8 1.3 3.8 3.3h-1.5c0-1.1-.9-1.9-2.2-1.9s-2.1.7-2.1 1.6c0 .8.6 1.2 1.6 1.5l1.7.4c2 .5 2.9 1.4 2.9 2.9 0 1.9-1.7 3-3.9 3-2.3-.1-4-1.1-4.1-3.4ZM294 4.7h5.3c2.9 0 4.7 1.5 4.7 3.9 0 1.7-.9 2.6-2.4 3.1 1.7.3 3 1.4 3 3.4 0 2.5-1.7 4.1-5.2 4.1h-5.3V4.7h-.1Zm5.3 6.3c1.8 0 2.9-.9 2.9-2.4s-1.1-2.4-2.9-2.4h-3.6V11h3.6Zm0 6.6c2.2 0 3.4-.8 3.4-2.5s-1.2-2.6-3.3-2.6h-3.7v5.1h3.6ZM306 14.1c0-3.2 1.9-5.4 4.8-5.4s4.8 2.2 4.8 5.4-1.9 5.4-4.8 5.4-4.8-2.3-4.8-5.4Zm7.9 0c0-2.4-1.2-3.9-3.1-3.9s-3.1 1.5-3.1 3.9 1.2 3.9 3.1 3.9 3.1-1.6 3.1-3.9ZM317.5 16.9V4.7h1.7v12.1c0 .9.2 1.1 1.1 1.1h.4v1.4h-.5c-2-.1-2.7-.7-2.7-2.4ZM321.6 14.1c0-3.2 1.8-5.4 4.5-5.4 1.3 0 2.6.6 3.2 1.7V4.6h1.7v14.6h-1.6v-1.6c-.7 1.2-1.9 1.8-3.3 1.8-2.8 0-4.5-2.2-4.5-5.3Zm7.8 0c0-2.3-1.2-3.9-3.1-3.9-1.8 0-3 1.3-3 3.9s1.3 3.9 3 3.9c1.9-.1 3.1-1.6 3.1-3.9ZM345.8 23.9h-1.4V0h1.4v23.9ZM359.5 4.7h1.8v13h7v1.6h-8.8V4.7ZM369.5 14.1c0-3.1 1.9-5.4 4.7-5.4s4.7 2.2 4.7 5.4v.5h-8.5v-1.4h7.5l-.7.5c0-2.1-1.2-3.5-3-3.5s-3 1.4-3 3.5v.7c0 2.1 1.1 3.6 3.1 3.6 1.5 0 2.4-.7 2.7-1.8h1.7c-.4 2-2.1 3.3-4.4 3.3-3.1-.1-4.8-2.3-4.8-5.4ZM380.3 16.2c0-2.4 2-2.8 4.1-3.1 2-.3 2.6-.2 2.6-1V12c0-1.1-.8-1.9-2.3-1.9-1.4 0-2.4.8-2.5 1.8h-1.7c.1-1.9 1.8-3.3 4.2-3.3s3.9 1.4 3.9 3.4v7.1H387v-1.5c-.4.7-1.2 1.6-3.1 1.6-2.1.2-3.6-.9-3.6-3Zm6.7-.9V14c-.3.2-1.5.4-2.7.6s-2.3.6-2.3 1.7c0 1 .8 1.5 2.1 1.5 2 .1 2.9-1.1 2.9-2.5ZM390.6 14.1c0-3.2 1.8-5.4 4.5-5.4 1.3 0 2.6.6 3.2 1.7V4.6h1.7v14.6h-1.6v-1.6c-.7 1.2-1.9 1.8-3.3 1.8-2.8 0-4.5-2.2-4.5-5.3Zm7.8 0c0-2.3-1.2-3.9-3.1-3.9-1.8 0-3 1.3-3 3.9s1.3 3.9 3 3.9c1.9-.1 3.1-1.6 3.1-3.9ZM402.1 5.8c0-.6.5-1.1 1.1-1.1s1.1.5 1.1 1.1-.4 1.1-1.1 1.1-1.1-.5-1.1-1.1Zm.3 3.1h1.7v10.3h-1.7V8.9ZM408.2 19.2h-1.7V8.9h1.6v2.5h-.5c.7-1.9 1.9-2.7 3.5-2.7 2.1 0 3.8 1.4 3.8 4.1v6.4h-1.7v-6.3c0-1.8-.9-2.7-2.4-2.7s-2.7.9-2.7 2.9v6.1h.1ZM417.4 20.3h1.7c.3 1.1 1.3 1.7 2.6 1.7 1.8 0 2.9-1 2.9-2.8v-1.6c-.8 1.2-1.9 1.8-3.3 1.8-2.7 0-4.5-2.2-4.5-5.4s1.8-5.4 4.5-5.4c1.3 0 2.6.5 3.3 1.8V8.9h1.6v10.3c0 3-2.1 4.2-4.5 4.2s-4-1.1-4.3-3.1Zm7.4-6.2c0-2.3-1.2-3.9-3.1-3.9-1.8 0-3 1.3-3 3.9s1.3 3.9 3 3.9c1.9-.1 3.1-1.6 3.1-3.9ZM428.5 10.5c0-.7.5-1.2 1.2-1.2s1.2.5 1.2 1.2-.5 1.2-1.2 1.2-1.2-.5-1.2-1.2Zm0 7.7c0-.7.5-1.2 1.2-1.2s1.2.5 1.2 1.2-.5 1.2-1.2 1.2-1.2-.6-1.2-1.2ZM442.7 19.2H441V6.5l-3.6 2.4V7.1l3.6-2.4h1.7v14.5ZM445.1 11.9c0-4.6 2-7.5 5.3-7.5s5.3 2.9 5.3 7.5-2 7.5-5.3 7.5-5.3-2.9-5.3-7.5Zm8.8 0c0-3.7-1.4-6-3.6-6s-3.6 2.2-3.6 6 1.4 5.9 3.6 5.9 3.6-2.2 3.6-5.9ZM457.2 15h1.8c.2 1.7 1.5 2.9 3.3 2.9 1.9 0 3.2-1.4 3.2-3.4s-1.2-3.4-3-3.4c-1.6 0-2.8.7-3.3 1.9h-1.7l.5-8.3h8.4v1.6h-6.8l-.4 4.7c.9-1 2.1-1.5 3.4-1.5 2.7 0 4.5 2.1 4.5 4.9s-2 5-4.9 5c-2.8 0-4.9-1.9-5-4.4ZM469.3 7.7c0-1.9 1.2-3.3 3-3.3s3 1.4 3 3.3V8c0 1.9-1.2 3.3-3 3.3s-3-1.4-3-3.3v-.3Zm11.1-3h1.7l-10 14.6h-1.7l10-14.6ZM470.7 8c0 1.3.6 2.1 1.5 2.1s1.5-.8 1.5-2.1v-.3c0-1.3-.6-2.1-1.5-2.1s-1.5.8-1.5 2.1V8Zm6.6 7.8c0-1.9 1.2-3.3 3-3.3s3 1.4 3 3.3v.3c0 1.9-1.2 3.3-3 3.3s-3-1.4-3-3.3v-.3Zm1.5.3c0 1.3.6 2.1 1.5 2.1s1.5-.8 1.5-2.1v-.3c0-1.3-.6-2.1-1.5-2.1s-1.5.8-1.5 2.1v.3ZM498.3 23.9h-1.4V0h1.4v23.9ZM511 4.7h11.2v1.6h-4.7v13h-1.8v-13H511V4.7ZM523.9 8.9h1.6v1.6c.4-1.1 1.2-1.8 2.5-1.8.3 0 .6 0 .7.1v1.7c-.1 0-.5-.1-1-.1-1.1 0-2.1.8-2.1 2.5v6.3h-1.7V8.9ZM529.9 16.2c0-2.4 2-2.8 4.1-3.1 2-.3 2.6-.2 2.6-1V12c0-1.1-.8-1.9-2.3-1.9-1.4 0-2.4.8-2.5 1.8h-1.7c.1-1.9 1.8-3.3 4.2-3.3s3.9 1.4 3.9 3.4v7.1h-1.6v-1.5c-.4.7-1.2 1.6-3.1 1.6-2 .2-3.6-.9-3.6-3Zm6.7-.9V14c-.3.2-1.5.4-2.7.6s-2.3.6-2.3 1.7c0 1 .8 1.5 2.1 1.5 2.1.1 2.9-1.1 2.9-2.5ZM540.2 14.1c0-3.2 1.9-5.4 4.8-5.4 2.3 0 4.1 1.5 4.3 3.6h-1.7c-.2-1.2-1.1-2.1-2.7-2.1-1.9 0-3.1 1.5-3.1 3.9s1.2 3.9 3.1 3.9c1.5 0 2.3-.8 2.6-2.1h1.7c-.3 2-2 3.6-4.3 3.6-2.8-.1-4.7-2.3-4.7-5.4ZM551.2 4.7h1.7v14.6h-1.7V4.7Zm1.6 8.8h.1l4.8-4.6h2.1l-5 4.9h-.2l-1.9 1.7v-2h.1Zm1.1.7 1.2-1.2 5.1 6.2h-2.1l-4.2-5ZM561 5.8c0-.6.5-1.1 1.1-1.1s1.1.5 1.1 1.1-.5 1.1-1.1 1.1-1.1-.5-1.1-1.1Zm.4 3.1h1.7v10.3h-1.7V8.9ZM567.1 19.2h-1.7V8.9h1.6v2.5h-.5c.7-1.9 1.9-2.7 3.5-2.7 2.1 0 3.8 1.4 3.8 4.1v6.4h-1.7v-6.3c0-1.8-.9-2.7-2.4-2.7s-2.7.9-2.7 2.9v6.1h.1ZM576.4 20.3h1.7c.3 1.1 1.3 1.7 2.6 1.7 1.8 0 2.9-1 2.9-2.8v-1.6c-.8 1.2-1.9 1.8-3.3 1.8-2.7 0-4.5-2.2-4.5-5.4s1.8-5.4 4.5-5.4c1.3 0 2.6.5 3.3 1.8V8.9h1.6v10.3c0 3-2.1 4.2-4.5 4.2s-4.1-1.1-4.3-3.1Zm7.3-6.2c0-2.3-1.2-3.9-3.1-3.9-1.8 0-3 1.3-3 3.9s1.3 3.9 3 3.9c1.9-.1 3.1-1.6 3.1-3.9ZM587.5 10.5c0-.7.5-1.2 1.2-1.2s1.2.5 1.2 1.2-.5 1.2-1.2 1.2-1.2-.5-1.2-1.2Zm0 7.7c0-.7.5-1.2 1.2-1.2s1.2.5 1.2 1.2-.5 1.2-1.2 1.2-1.2-.6-1.2-1.2ZM603.4 14.1H597v-1.6h6.4v1.6ZM605 14.3l7-9.6h1.1v2h-.6l-5.4 7.5h9.3v1.6h-11.3v-1.5h-.1Zm7.4 1V4.7h1.7v14.6h-1.7v-4ZM617.6 15h1.8c.2 1.7 1.5 2.9 3.3 2.9 1.9 0 3.2-1.4 3.2-3.4s-1.2-3.4-3-3.4c-1.6 0-2.8.7-3.3 1.9h-1.7l.5-8.3h8.4v1.6h-6.9l-.4 4.7c.9-1 2.1-1.5 3.4-1.5 2.7 0 4.5 2.1 4.5 4.9s-2 5-4.9 5c-2.7 0-4.8-1.9-4.9-4.4ZM4.9 448.6h1.8c0 2.1 1.4 3.3 3.7 3.3 2.1 0 3.5-1 3.5-2.6 0-1.2-.8-1.9-2.9-2.4l-1.6-.4c-3-.7-4.2-1.9-4.2-3.9 0-2.5 2-4.2 5-4.2s5 1.7 5 4.5h-1.7c-.1-1.8-1.4-2.9-3.4-2.9s-3.2 1-3.2 2.5c0 1.1.8 1.8 2.9 2.3l1.7.4c2.8.7 4.2 2 4.2 4 0 2.5-2.1 4.2-5.3 4.2-3.4.1-5.5-1.8-5.5-4.8ZM17.7 449.4V443h1.7v6.3c0 1.8.9 2.7 2.4 2.7s2.7-.9 2.7-2.9v-6h1.7v10.3h-1.6v-2.5h.5c-.7 1.9-1.9 2.7-3.5 2.7-2.2-.1-3.9-1.5-3.9-4.2ZM30.2 451.7v1.6h-1.6v-14.6h1.7v5.8c.7-1.2 1.9-1.7 3.2-1.7 2.7 0 4.5 2.2 4.5 5.4s-1.8 5.4-4.5 5.4c-1.3-.1-2.5-.7-3.3-1.9Zm6.1-3.6c0-2.5-1.3-3.9-3-3.9-1.9 0-3.1 1.5-3.1 3.9s1.2 3.9 3.1 3.9c1.7 0 3-1.3 3-3.9ZM41.6 453.3h-1.7v-14.6h1.7v6.7h-.5c.7-1.9 1.9-2.7 3.5-2.7 2.1 0 3.8 1.4 3.8 4.1v6.4h-1.7v-6.3c0-1.8-.9-2.7-2.4-2.7s-2.7.9-2.7 2.9v6.2ZM50.3 448.2c0-3.1 1.9-5.4 4.7-5.4s4.7 2.2 4.7 5.4v.5h-8.5v-1.4h7.5l-.7.5c0-2.1-1.2-3.5-3-3.5s-3 1.4-3 3.5v.7c0 2.1 1.1 3.6 3.1 3.6 1.5 0 2.4-.7 2.7-1.8h1.7c-.4 2-2.1 3.3-4.4 3.3-3-.1-4.8-2.3-4.8-5.4ZM61.1 450.3c0-2.4 2-2.8 4.1-3.1 2-.3 2.6-.2 2.6-1v-.1c0-1.1-.8-1.9-2.3-1.9-1.4 0-2.4.8-2.5 1.8h-1.7c.1-1.9 1.8-3.3 4.2-3.3s3.9 1.4 3.9 3.4v7.1h-1.6v-1.5c-.4.7-1.2 1.6-3.1 1.6-2 .2-3.6-.9-3.6-3Zm6.7-.9v-1.3c-.3.2-1.5.4-2.7.6-1.2.2-2.3.6-2.3 1.7 0 1 .8 1.5 2.1 1.5 2.1.1 2.9-1.2 2.9-2.5ZM71.4 448.1c0-3.2 1.8-5.4 4.5-5.4 1.3 0 2.6.6 3.2 1.7v-5.8h1.7v14.6h-1.6v-1.6c-.7 1.2-1.9 1.8-3.3 1.8-2.7.1-4.5-2.1-4.5-5.3Zm7.9 0c0-2.3-1.2-3.9-3.1-3.9-1.8 0-3 1.3-3 3.9s1.3 3.9 3 3.9c1.8 0 3.1-1.5 3.1-3.9ZM82.7 448.2c0-3.1 1.9-5.4 4.7-5.4s4.7 2.2 4.7 5.4v.5h-8.5v-1.4h7.5l-.7.5c0-2.1-1.2-3.5-3-3.5s-3 1.4-3 3.5v.7c0 2.1 1.1 3.6 3.1 3.6 1.5 0 2.4-.7 2.7-1.8h1.7c-.4 2-2.1 3.3-4.4 3.3-3-.1-4.8-2.3-4.8-5.4ZM94 443h1.6v1.6c.4-1.1 1.2-1.8 2.5-1.8.3 0 .6 0 .7.1v1.7c-.1 0-.5-.1-1-.1-1.1 0-2.1.8-2.1 2.5v6.3H94V443ZM99.9 450.2h1.6c.1 1.2 1 1.9 2.4 1.9s2.3-.7 2.3-1.6c0-.8-.6-1.2-1.6-1.4l-1.7-.4c-1.9-.4-2.9-1.4-2.9-2.9 0-1.8 1.5-3 3.7-3s3.8 1.3 3.8 3.3h-1.6c0-1.1-.9-1.9-2.2-1.9s-2.1.7-2.1 1.6c0 .8.6 1.2 1.6 1.5l1.7.4c2 .5 2.9 1.4 2.9 2.9 0 1.9-1.7 3-3.9 3-2.1-.1-3.8-1.1-4-3.4ZM114.4 449.4c0-1.8 1.3-2.9 3-4.1l2.1-1.6c.8-.6 1.3-1.1 1.3-2.1 0-.7-.7-1.6-1.8-1.6s-1.9 1-1.9 1.9c0 1 1 2.1 1.9 3.2l6.7 8.1h-2l-5.5-6.6c-1.5-1.9-2.8-3-2.8-4.7 0-2 1.4-3.3 3.5-3.3s3.5 1.4 3.5 3c0 1.4-.8 2.3-1.9 3.2l-2.9 2.2c-1.3 1-1.7 2-1.7 2.4 0 1.4 1.1 2.6 2.9 2.6 2.2 0 4.4-2 4.4-5.1h1.6c0 2.9-1.2 4.1-1.8 4.6-.1.1-.2.3-.3.4-.9 1.1-2.5 1.6-3.9 1.6-2.7 0-4.4-1.7-4.4-4.1ZM131.6 450.2h1.6c.1 1.2 1 1.9 2.4 1.9s2.3-.7 2.3-1.6c0-.8-.6-1.2-1.6-1.4l-1.7-.4c-1.9-.4-2.9-1.4-2.9-2.9 0-1.8 1.5-3 3.7-3s3.8 1.3 3.8 3.3h-1.6c0-1.1-.9-1.9-2.2-1.9s-2.1.7-2.1 1.6c0 .8.6 1.2 1.6 1.5l1.7.4c2 .5 2.9 1.4 2.9 2.9 0 1.9-1.7 3-3.9 3-2.1-.1-3.9-1.1-4-3.4ZM143.2 453.3h-1.7v-14.6h1.7v6.7h-.5c.7-1.9 1.9-2.7 3.5-2.7 2.1 0 3.8 1.4 3.8 4.1v6.4h-1.7v-6.3c0-1.8-.9-2.7-2.4-2.7s-2.7.9-2.7 2.9v6.2ZM152 448.2c0-3.2 1.9-5.4 4.8-5.4s4.8 2.2 4.8 5.4-1.9 5.4-4.8 5.4-4.8-2.3-4.8-5.4Zm7.9 0c0-2.4-1.2-3.9-3.1-3.9s-3.1 1.5-3.1 3.9 1.2 3.9 3.1 3.9 3.1-1.6 3.1-3.9ZM163.5 443h1.6v1.6c.4-1.1 1.2-1.8 2.5-1.8.3 0 .6 0 .7.1v1.7c-.1 0-.5-.1-1-.1-1.1 0-2.1.8-2.1 2.5v6.3h-1.7V443ZM174.4 444.4h-5.6V443h5.6v1.4Zm-2.1-4.2v10.6c0 .8.3 1.1 1.1 1.1h1v1.4h-1.1c-1.8 0-2.6-.8-2.6-2.3v-10.8h1.6ZM181.1 443h1.6v1.5c.7-1.2 1.9-1.7 3.3-1.7 2.7 0 4.5 2.2 4.5 5.4s-1.8 5.4-4.5 5.4c-1.3 0-2.5-.6-3.2-1.8v5.6h-1.7V443Zm7.7 5.1c0-2.5-1.3-3.9-3-3.9-1.9 0-3.1 1.5-3.1 3.9s1.2 3.9 3.1 3.9c1.8 0 3-1.3 3-3.9ZM192 450.3c0-2.4 2-2.8 4.1-3.1 2-.3 2.6-.2 2.6-1v-.1c0-1.1-.8-1.9-2.3-1.9-1.4 0-2.4.8-2.5 1.8h-1.7c.1-1.9 1.8-3.3 4.2-3.3s3.9 1.4 3.9 3.4v7.1h-1.6v-1.5c-.4.7-1.2 1.6-3.1 1.6-2.1.2-3.6-.9-3.6-3Zm6.7-.9v-1.3c-.3.2-1.5.4-2.7.6-1.2.2-2.3.6-2.3 1.7 0 1 .8 1.5 2.1 1.5 2.1.1 2.9-1.2 2.9-2.5ZM202.8 443h1.6v1.6c.4-1.1 1.2-1.8 2.5-1.8.3 0 .6 0 .7.1v1.7c-.1 0-.5-.1-1-.1-1.1 0-2.1.8-2.1 2.5v6.3h-1.7V443ZM208.8 450.3c0-2.4 2-2.8 4.1-3.1 2-.3 2.6-.2 2.6-1v-.1c0-1.1-.8-1.9-2.3-1.9-1.4 0-2.4.8-2.5 1.8H209c.1-1.9 1.8-3.3 4.2-3.3s3.9 1.4 3.9 3.4v7.1h-1.6v-1.5c-.4.7-1.2 1.6-3.1 1.6-2.1.2-3.6-.9-3.6-3Zm6.7-.9v-1.3c-.3.2-1.5.4-2.7.6-1.2.2-2.3.6-2.3 1.7 0 1 .8 1.5 2.1 1.5 2.1.1 2.9-1.2 2.9-2.5ZM219.6 454.4h1.7c.3 1.1 1.3 1.7 2.6 1.7 1.8 0 2.9-1 2.9-2.8v-1.6c-.8 1.2-1.9 1.8-3.3 1.8-2.7 0-4.5-2.2-4.5-5.4s1.8-5.4 4.5-5.4c1.3 0 2.6.5 3.3 1.8v-1.6h1.6v10.3c0 3-2.1 4.2-4.5 4.2-2.3.1-4.1-1-4.3-3Zm7.3-6.3c0-2.3-1.2-3.9-3.1-3.9-1.8 0-3 1.3-3 3.9s1.3 3.9 3 3.9c1.9 0 3.1-1.5 3.1-3.9ZM230.9 443h1.6v1.6c.4-1.1 1.2-1.8 2.5-1.8.3 0 .6 0 .7.1v1.7c-.1 0-.5-.1-1-.1-1.1 0-2.1.8-2.1 2.5v6.3h-1.7V443ZM236.9 450.3c0-2.4 2-2.8 4.1-3.1 2-.3 2.6-.2 2.6-1v-.1c0-1.1-.8-1.9-2.3-1.9-1.4 0-2.4.8-2.5 1.8h-1.7c.1-1.9 1.8-3.3 4.2-3.3s3.9 1.4 3.9 3.4v7.1h-1.6v-1.5c-.4.7-1.2 1.6-3.1 1.6-2.1.2-3.6-.9-3.6-3Zm6.7-.9v-1.3c-.3.2-1.5.4-2.7.6-1.2.2-2.3.6-2.3 1.7 0 1 .8 1.5 2.1 1.5 2.1.1 2.9-1.2 2.9-2.5ZM247.7 443h1.6v1.5c.7-1.2 1.9-1.7 3.3-1.7 2.7 0 4.5 2.2 4.5 5.4s-1.8 5.4-4.5 5.4c-1.3 0-2.5-.6-3.2-1.8v5.6h-1.7V443Zm7.7 5.1c0-2.5-1.3-3.9-3-3.9-1.9 0-3.1 1.5-3.1 3.9s1.2 3.9 3.1 3.9c1.7 0 3-1.3 3-3.9ZM260.7 453.3H259v-14.6h1.7v6.7h-.5c.7-1.9 1.9-2.7 3.5-2.7 2.1 0 3.8 1.4 3.8 4.1v6.4h-1.7v-6.3c0-1.8-.9-2.7-2.4-2.7s-2.7.9-2.7 2.9v6.2ZM269.5 450.2h1.6c.1 1.2 1 1.9 2.4 1.9s2.3-.7 2.3-1.6c0-.8-.6-1.2-1.6-1.4l-1.7-.4c-1.9-.4-2.9-1.4-2.9-2.9 0-1.8 1.5-3 3.7-3s3.8 1.3 3.8 3.3h-1.6c0-1.1-.9-1.9-2.2-1.9s-2.1.7-2.1 1.6c0 .8.6 1.2 1.6 1.5l1.7.4c2 .5 2.9 1.4 2.9 2.9 0 1.9-1.7 3-3.9 3-2.2-.1-3.9-1.1-4-3.4ZM291.9 458h-1.4v-23.9h1.4V458ZM305 446c0-4.4 2.8-7.5 6.7-7.5 3.1 0 5.5 2 6.1 4.9h-1.9c-.4-2-2.1-3.3-4.3-3.3-2.9 0-4.9 2.4-4.9 5.9s2 5.9 4.9 5.9c2.4 0 4.4-1.8 4.4-4.3h.6-4.4V446h5.5v1.6c0 3.4-2.7 5.9-6.1 5.9-3.8 0-6.6-3.1-6.6-7.5ZM319.7 439.8c0-.6.5-1.1 1.1-1.1s1.1.5 1.1 1.1-.5 1.1-1.1 1.1-1.1-.4-1.1-1.1Zm.3 3.2h1.7v10.3H320V443ZM328.6 444.4H323V443h5.6v1.4Zm-2.1-4.2v10.6c0 .8.3 1.1 1.1 1.1h1v1.4h-1.1c-1.8 0-2.6-.8-2.6-2.3v-10.8h1.6ZM330.5 438.7h1.8v13h7v1.6h-8.8v-14.6ZM340.6 450.3c0-2.4 2-2.8 4.1-3.1 2-.3 2.6-.2 2.6-1v-.1c0-1.1-.8-1.9-2.3-1.9-1.4 0-2.4.8-2.5 1.8h-1.7c.1-1.9 1.8-3.3 4.2-3.3s3.9 1.4 3.9 3.4v7.1h-1.6v-1.5c-.4.7-1.2 1.6-3.1 1.6-2.1.2-3.6-.9-3.6-3Zm6.7-.9v-1.3c-.3.2-1.5.4-2.7.6-1.2.2-2.3.6-2.3 1.7 0 1 .8 1.5 2.1 1.5 2 .1 2.9-1.2 2.9-2.5ZM353 451.7v1.6h-1.6v-14.6h1.7v5.8c.7-1.2 1.9-1.7 3.2-1.7 2.7 0 4.5 2.2 4.5 5.4s-1.8 5.4-4.5 5.4c-1.4-.1-2.6-.7-3.3-1.9Zm6.1-3.6c0-2.5-1.3-3.9-3-3.9-1.9 0-3.1 1.5-3.1 3.9s1.2 3.9 3.1 3.9c1.7 0 3-1.3 3-3.9ZM367.2 448.6h1.8c0 2.1 1.4 3.3 3.7 3.3 2.1 0 3.5-1 3.5-2.6 0-1.2-.8-1.9-2.9-2.4l-1.6-.4c-3-.7-4.2-1.9-4.2-3.9 0-2.5 2-4.2 5-4.2s5 1.7 5 4.5h-1.7c-.1-1.8-1.4-2.9-3.4-2.9s-3.2 1-3.2 2.5c0 1.1.8 1.8 2.9 2.3l1.7.4c2.8.7 4.2 2 4.2 4 0 2.5-2.1 4.2-5.3 4.2-3.4.1-5.5-1.8-5.5-4.8ZM379.5 450.3c0-2.4 2-2.8 4.1-3.1 2-.3 2.6-.2 2.6-1v-.1c0-1.1-.8-1.9-2.3-1.9-1.4 0-2.4.8-2.5 1.8h-1.7c.1-1.9 1.8-3.3 4.2-3.3s3.9 1.4 3.9 3.4v7.1h-1.6v-1.5c-.4.7-1.2 1.6-3.1 1.6-2.1.2-3.6-.9-3.6-3Zm6.7-.9v-1.3c-.3.2-1.5.4-2.7.6-1.2.2-2.3.6-2.3 1.7 0 1 .8 1.5 2.1 1.5 2.1.1 2.9-1.2 2.9-2.5ZM392 453.3h-1.7V443h1.6v2.5h-.5c.7-1.9 1.9-2.7 3.5-2.7 2.1 0 3.8 1.4 3.8 4.1v6.4H397V447c0-1.8-.9-2.7-2.4-2.7s-2.7.9-2.7 2.9v6.1h.1ZM400.8 450.2h1.6c.1 1.2 1 1.9 2.4 1.9s2.3-.7 2.3-1.6c0-.8-.6-1.2-1.6-1.4l-1.7-.4c-1.9-.4-2.9-1.4-2.9-2.9 0-1.8 1.5-3 3.7-3s3.8 1.3 3.8 3.3h-1.5c0-1.1-.9-1.9-2.2-1.9s-2.1.7-2.1 1.6c0 .8.6 1.2 1.6 1.5l1.7.4c2 .5 2.9 1.4 2.9 2.9 0 1.9-1.7 3-3.9 3-2.3-.1-4-1.1-4.1-3.4ZM416 438.7h5.4c3 0 4.9 1.7 4.9 4.4s-2.1 4.4-5.1 4.4h-4.3v-1.6h4.4c2 0 3.2-1.1 3.2-2.9s-1.2-2.9-3.3-2.9h-3.6v13h-1.8v-14.4h.2Zm4.9 8.1h2l3.6 6.5h-2.1l-3.5-6.5ZM427.9 448.2c0-3.1 1.9-5.4 4.7-5.4s4.7 2.2 4.7 5.4v.5h-8.5v-1.4h7.5l-.7.5c0-2.1-1.2-3.5-3-3.5s-3 1.4-3 3.5v.7c0 2.1 1.1 3.6 3.1 3.6 1.5 0 2.4-.7 2.7-1.8h1.7c-.4 2-2.1 3.3-4.4 3.3-3.1-.1-4.8-2.3-4.8-5.4ZM439.1 454.4h1.7c.3 1.1 1.3 1.7 2.6 1.7 1.8 0 2.9-1 2.9-2.8v-1.6c-.8 1.2-1.9 1.8-3.3 1.8-2.7 0-4.5-2.2-4.5-5.4s1.8-5.4 4.5-5.4c1.3 0 2.6.5 3.3 1.8v-1.6h1.6v10.3c0 3-2.1 4.2-4.5 4.2-2.3.1-4.1-1-4.3-3Zm7.3-6.3c0-2.3-1.2-3.9-3.1-3.9-1.8 0-3 1.3-3 3.9s1.3 3.9 3 3.9c1.9 0 3.1-1.5 3.1-3.9ZM450.4 449.4V443h1.7v6.3c0 1.8.9 2.7 2.4 2.7s2.7-.9 2.7-2.9v-6h1.7v10.3h-1.6v-2.5h.5c-.7 1.9-1.9 2.7-3.5 2.7-2.2-.1-3.9-1.5-3.9-4.2ZM461.4 451v-12.2h1.7v12.1c0 .9.2 1.1 1.1 1.1h.4v1.4h-.5c-2-.1-2.7-.7-2.7-2.4ZM465.5 450.3c0-2.4 2-2.8 4.1-3.1 2-.3 2.6-.2 2.6-1v-.1c0-1.1-.8-1.9-2.3-1.9-1.4 0-2.4.8-2.5 1.8h-1.7c.1-1.9 1.8-3.3 4.2-3.3s3.9 1.4 3.9 3.4v7.1h-1.6v-1.5c-.4.7-1.2 1.6-3.1 1.6-2.1.2-3.6-.9-3.6-3Zm6.7-.9v-1.3c-.3.2-1.5.4-2.7.6-1.2.2-2.3.6-2.3 1.7 0 1 .8 1.5 2.1 1.5 2.1.1 2.9-1.2 2.9-2.5ZM476.3 443h1.6v1.6c.4-1.1 1.2-1.8 2.5-1.8.3 0 .6 0 .7.1v1.7c-.1 0-.5-.1-1-.1-1.1 0-2.1.8-2.1 2.5v6.3h-1.7V443ZM495.2 458h-1.4v-23.9h1.4V458ZM508.9 438.7h1.8v13h7v1.6h-8.8v-14.6ZM518.8 448.2c0-3.1 1.9-5.4 4.7-5.4s4.7 2.2 4.7 5.4v.5h-8.5v-1.4h7.5l-.7.5c0-2.1-1.2-3.5-3-3.5s-3 1.4-3 3.5v.7c0 2.1 1.1 3.6 3.1 3.6 1.5 0 2.4-.7 2.7-1.8h1.7c-.4 2-2.1 3.3-4.4 3.3-3-.1-4.8-2.3-4.8-5.4ZM529.6 450.3c0-2.4 2-2.8 4.1-3.1 2-.3 2.6-.2 2.6-1v-.1c0-1.1-.8-1.9-2.3-1.9-1.4 0-2.4.8-2.5 1.8h-1.7c.1-1.9 1.8-3.3 4.2-3.3s3.9 1.4 3.9 3.4v7.1h-1.6v-1.5c-.4.7-1.2 1.6-3.1 1.6-2 .2-3.6-.9-3.6-3Zm6.7-.9v-1.3c-.3.2-1.5.4-2.7.6-1.2.2-2.3.6-2.3 1.7 0 1 .8 1.5 2.1 1.5 2.1.1 2.9-1.2 2.9-2.5ZM539.9 448.1c0-3.2 1.8-5.4 4.5-5.4 1.3 0 2.6.6 3.2 1.7v-5.8h1.7v14.6h-1.6v-1.6c-.7 1.2-1.9 1.8-3.3 1.8-2.7.1-4.5-2.1-4.5-5.3Zm7.9 0c0-2.3-1.2-3.9-3.1-3.9-1.8 0-3 1.3-3 3.9s1.3 3.9 3 3.9c1.8 0 3.1-1.5 3.1-3.9ZM551.4 439.8c0-.6.5-1.1 1.1-1.1s1.1.5 1.1 1.1-.5 1.1-1.1 1.1-1.1-.4-1.1-1.1Zm.3 3.2h1.7v10.3h-1.7V443ZM557.5 453.3h-1.6V443h1.6v2.5h-.5c.7-1.9 1.9-2.7 3.5-2.7 2.1 0 3.8 1.4 3.8 4.1v6.4h-1.7V447c0-1.8-.9-2.7-2.4-2.7s-2.7.9-2.7 2.9v6.1ZM566.8 454.4h1.7c.3 1.1 1.3 1.7 2.6 1.7 1.8 0 2.9-1 2.9-2.8v-1.6c-.8 1.2-1.9 1.8-3.3 1.8-2.7 0-4.5-2.2-4.5-5.4s1.8-5.4 4.5-5.4c1.3 0 2.6.5 3.3 1.8v-1.6h1.6v10.3c0 3-2.1 4.2-4.5 4.2-2.3.1-4.1-1-4.3-3Zm7.3-6.3c0-2.3-1.2-3.9-3.1-3.9-1.8 0-3 1.3-3 3.9s1.3 3.9 3 3.9c1.9 0 3.1-1.5 3.1-3.9ZM577.9 444.6c0-.7.5-1.2 1.2-1.2s1.2.5 1.2 1.2-.5 1.2-1.2 1.2-1.2-.5-1.2-1.2Zm0 7.6c0-.7.5-1.2 1.2-1.2s1.2.5 1.2 1.2-.5 1.2-1.2 1.2-1.2-.5-1.2-1.2ZM592.1 453.3h-1.7v-12.7l-3.6 2.4v-1.8l3.6-2.4h1.7v14.5ZM599.3 453.3h-1.7v-12.7L594 443v-1.8l3.6-2.4h1.7v14.5ZM601.6 446c0-4.6 2-7.5 5.3-7.5s5.3 2.9 5.3 7.5-2 7.5-5.3 7.5-5.3-2.9-5.3-7.5Zm8.9 0c0-3.7-1.4-6-3.6-6s-3.6 2.2-3.6 6 1.4 5.9 3.6 5.9 3.6-2.2 3.6-5.9ZM614.3 441.8c0-1.9 1.2-3.3 3-3.3s3 1.4 3 3.3v.3c0 1.9-1.2 3.3-3 3.3s-3-1.4-3-3.3v-.3Zm11.2-3.1h1.7l-10 14.6h-1.7l10-14.6Zm-9.7 3.4c0 1.3.6 2.1 1.5 2.1s1.5-.8 1.5-2.1v-.3c0-1.3-.6-2.1-1.5-2.1s-1.5.8-1.5 2.1v.3Zm6.5 7.8c0-1.9 1.2-3.3 3-3.3s3 1.4 3 3.3v.3c0 1.9-1.2 3.3-3 3.3s-3-1.4-3-3.3v-.3Zm1.5.3c0 1.3.6 2.1 1.5 2.1s1.5-.8 1.5-2.1v-.3c0-1.3-.6-2.1-1.5-2.1s-1.5.8-1.5 2.1v.3ZM643.3 458h-1.4v-23.9h1.4V458ZM657 438.7h1.8v14.6H657v-14.6Zm1.2 8.1c1-1.1 2-2.2 3.1-3.3l4.4-4.7h2.3l-6.2 6.6h-.1l-3.5 3.8v-2.4Zm2.4-1 1.1-1.4 6.3 8.9h-2.1l-5.3-7.5ZM669 448.2c0-3.1 1.9-5.4 4.7-5.4s4.7 2.2 4.7 5.4v.5h-8.5v-1.4h7.5l-.7.5c0-2.1-1.2-3.5-3-3.5s-3 1.4-3 3.5v.7c0 2.1 1.1 3.6 3.1 3.6 1.5 0 2.4-.7 2.7-1.8h1.7c-.4 2-2.1 3.3-4.4 3.3-3.1-.1-4.8-2.3-4.8-5.4ZM680.2 443h1.6v1.6c.4-1.1 1.2-1.8 2.5-1.8.3 0 .6 0 .7.1v1.7c-.1 0-.5-.1-1-.1-1.1 0-2.1.8-2.1 2.5v6.3h-1.7V443ZM688.3 453.3h-1.7V443h1.6v2.5h-.5c.7-1.9 1.9-2.7 3.5-2.7 2.1 0 3.8 1.4 3.8 4.1v6.4h-1.7V447c0-1.8-.9-2.7-2.4-2.7s-2.7.9-2.7 2.9v6.1h.1ZM697.3 439.8c0-.6.5-1.1 1.1-1.1s1.1.5 1.1 1.1-.5 1.1-1.1 1.1-1.1-.4-1.1-1.1Zm.3 3.2h1.7v10.3h-1.7V443ZM703.4 453.3h-1.7V443h1.6v2.5h-.4c.7-1.9 1.9-2.7 3.5-2.7 2.1 0 3.8 1.4 3.8 4.1v6.4h-1.7V447c0-1.8-.9-2.7-2.4-2.7s-2.7.9-2.7 2.9v6.1ZM712.6 454.4h1.7c.3 1.1 1.3 1.7 2.6 1.7 1.8 0 2.9-1 2.9-2.8v-1.6c-.8 1.2-1.9 1.8-3.3 1.8-2.7 0-4.5-2.2-4.5-5.4s1.8-5.4 4.5-5.4c1.3 0 2.6.5 3.3 1.8v-1.6h1.6v10.3c0 3-2.1 4.2-4.5 4.2-2.3.1-4-1-4.3-3Zm7.4-6.3c0-2.3-1.2-3.9-3.1-3.9-1.8 0-3 1.3-3 3.9s1.3 3.9 3 3.9c1.9 0 3.1-1.5 3.1-3.9ZM723.7 444.6c0-.7.5-1.2 1.2-1.2s1.2.5 1.2 1.2-.5 1.2-1.2 1.2-1.2-.5-1.2-1.2Zm0 7.6c0-.7.5-1.2 1.2-1.2s1.2.5 1.2 1.2-.5 1.2-1.2 1.2-1.2-.5-1.2-1.2ZM733 446c0-4.4 2.8-7.5 6.6-7.5s6.6 3.1 6.6 7.5-2.8 7.5-6.6 7.5-6.6-3.1-6.6-7.5Zm11.5 0c0-3.8-2.2-5.9-4.9-5.9s-4.9 2.1-4.9 5.9 2.2 5.9 4.9 5.9 4.9-2.1 4.9-5.9ZM748.3 443h1.6v1.5c.7-1.2 1.9-1.7 3.3-1.7 2.7 0 4.5 2.2 4.5 5.4s-1.8 5.4-4.5 5.4c-1.3 0-2.5-.6-3.2-1.8v5.6h-1.7V443Zm7.7 5.1c0-2.5-1.3-3.9-3-3.9-1.9 0-3.1 1.5-3.1 3.9s1.2 3.9 3.1 3.9c1.8 0 3-1.3 3-3.9ZM764.1 444.4h-5.6V443h5.6v1.4Zm-2-4.2v10.6c0 .8.3 1.1 1.1 1.1h1v1.4h-1.1c-1.8 0-2.6-.8-2.6-2.3v-10.8h1.6ZM765.6 439.8c0-.6.5-1.1 1.1-1.1s1.1.5 1.1 1.1-.5 1.1-1.1 1.1-1.1-.4-1.1-1.1Zm.3 3.2h1.7v10.3h-1.7V443ZM769.5 448.2c0-3.2 1.9-5.4 4.8-5.4 2.3 0 4.1 1.5 4.3 3.6h-1.7c-.2-1.2-1.1-2.1-2.7-2.1-1.9 0-3.1 1.5-3.1 3.9s1.2 3.9 3.1 3.9c1.5 0 2.3-.8 2.6-2.1h1.7c-.3 2-2 3.6-4.3 3.6-2.8-.1-4.7-2.3-4.7-5.4ZM780 450.3c0-2.4 2-2.8 4.1-3.1 2-.3 2.6-.2 2.6-1v-.1c0-1.1-.8-1.9-2.3-1.9-1.4 0-2.4.8-2.5 1.8h-1.7c.1-1.9 1.8-3.3 4.2-3.3s3.9 1.4 3.9 3.4v7.1h-1.6v-1.5c-.4.7-1.2 1.6-3.1 1.6-2.1.2-3.6-.9-3.6-3Zm6.7-.9v-1.3c-.3.2-1.5.4-2.7.6-1.2.2-2.3.6-2.3 1.7 0 1 .8 1.5 2.1 1.5 2.1.1 2.9-1.2 2.9-2.5ZM790.8 451v-12.2h1.7v12.1c0 .9.2 1.1 1.1 1.1h.4v1.4h-.5c-2-.1-2.7-.7-2.7-2.4ZM807.8 458h-1.4v-23.9h1.4V458ZM820.6 438.7h11.2v1.6h-4.7v13h-1.8v-13h-4.7v-1.6ZM833.5 443h1.6v1.6c.4-1.1 1.2-1.8 2.5-1.8.3 0 .6 0 .7.1v1.7c-.1 0-.5-.1-1-.1-1.1 0-2.1.8-2.1 2.5v6.3h-1.7V443ZM839.5 450.3c0-2.4 2-2.8 4.1-3.1 2-.3 2.6-.2 2.6-1v-.1c0-1.1-.8-1.9-2.3-1.9-1.4 0-2.4.8-2.5 1.8h-1.7c.1-1.9 1.8-3.3 4.2-3.3s3.9 1.4 3.9 3.4v7.1h-1.6v-1.5c-.4.7-1.2 1.6-3.1 1.6-2.1.2-3.6-.9-3.6-3Zm6.7-.9v-1.3c-.3.2-1.5.4-2.7.6-1.2.2-2.3.6-2.3 1.7 0 1 .8 1.5 2.1 1.5 2.1.1 2.9-1.2 2.9-2.5ZM849.8 448.2c0-3.2 1.9-5.4 4.8-5.4 2.3 0 4.1 1.5 4.3 3.6h-1.7c-.2-1.2-1.1-2.1-2.7-2.1-1.9 0-3.1 1.5-3.1 3.9s1.2 3.9 3.1 3.9c1.5 0 2.3-.8 2.6-2.1h1.7c-.3 2-2 3.6-4.3 3.6-2.8-.1-4.7-2.3-4.7-5.4ZM860.8 438.7h1.7v14.6h-1.7v-14.6Zm1.5 8.9h.1l4.8-4.6h2.1l-5 4.9h-.2l-1.9 1.7v-2h.1Zm1.1.6 1.2-1.2 5.1 6.2h-2.1l-4.2-5ZM870.6 439.8c0-.6.5-1.1 1.1-1.1s1.1.5 1.1 1.1-.5 1.1-1.1 1.1-1.1-.4-1.1-1.1Zm.3 3.2h1.7v10.3h-1.7V443ZM876.7 453.3H875V443h1.6v2.5h-.5c.7-1.9 1.9-2.7 3.5-2.7 2.1 0 3.8 1.4 3.8 4.1v6.4h-1.7V447c0-1.8-.9-2.7-2.4-2.7s-2.7.9-2.7 2.9v6.1h.1ZM886 454.4h1.7c.3 1.1 1.3 1.7 2.6 1.7 1.8 0 2.9-1 2.9-2.8v-1.6c-.8 1.2-1.9 1.8-3.3 1.8-2.7 0-4.5-2.2-4.5-5.4s1.8-5.4 4.5-5.4c1.3 0 2.6.5 3.3 1.8v-1.6h1.6v10.3c0 3-2.1 4.2-4.5 4.2-2.3.1-4.1-1-4.3-3Zm7.3-6.3c0-2.3-1.2-3.9-3.1-3.9-1.8 0-3 1.3-3 3.9s1.3 3.9 3 3.9c1.9 0 3.1-1.5 3.1-3.9ZM897 444.6c0-.7.5-1.2 1.2-1.2s1.2.5 1.2 1.2-.5 1.2-1.2 1.2-1.2-.5-1.2-1.2Zm0 7.6c0-.7.5-1.2 1.2-1.2s1.2.5 1.2 1.2-.5 1.2-1.2 1.2-1.2-.5-1.2-1.2ZM912.9 448.1h-6.4v-1.6h6.4v1.6ZM914.8 451.8l5.2-4.7c1.8-1.7 2.6-2.6 2.6-4.1 0-1.9-1.1-2.9-3.1-2.9s-3.1 1.3-3.1 3.4h-1.5c0-2.9 1.9-4.9 4.7-4.9s4.7 1.8 4.7 4.4c0 1.8-1 3.3-3.2 5.2l-3.9 3.6h7.2v1.6h-9.6v-1.6ZM926.1 446c0-4.6 2-7.5 5.3-7.5s5.3 2.9 5.3 7.5-2 7.5-5.3 7.5-5.3-2.9-5.3-7.5Zm8.8 0c0-3.7-1.4-6-3.6-6s-3.6 2.2-3.6 6 1.4 5.9 3.6 5.9 3.6-2.2 3.6-5.9ZM5.6 671.6h5.3c2.9 0 4.7 1.5 4.7 3.9 0 1.7-.9 2.6-2.4 3.1 1.7.3 3 1.4 3 3.4 0 2.5-1.7 4.1-5.2 4.1H5.7v-14.5h-.1Zm5.3 6.4c1.8 0 2.9-.9 2.9-2.4s-1.1-2.4-2.9-2.4H7.3v4.8h3.6Zm0 6.6c2.2 0 3.4-.8 3.4-2.5s-1.2-2.6-3.3-2.6H7.3v5.1h3.6ZM17.6 681c0-3.2 1.9-5.4 4.8-5.4s4.8 2.2 4.8 5.4-1.9 5.4-4.8 5.4-4.8-2.2-4.8-5.4Zm7.9 0c0-2.4-1.2-3.9-3.1-3.9s-3.1 1.5-3.1 3.9 1.2 3.9 3.1 3.9c2 0 3.1-1.5 3.1-3.9ZM28.6 681c0-3.2 1.8-5.4 4.5-5.4 1.3 0 2.6.6 3.2 1.7v-5.8H38v14.6h-1.6v-1.6c-.7 1.2-1.9 1.8-3.3 1.8-2.7.1-4.5-2.1-4.5-5.3Zm7.8 0c0-2.3-1.2-3.9-3.1-3.9-1.8 0-3 1.3-3 3.9s1.3 3.9 3 3.9c1.9 0 3.1-1.5 3.1-3.9ZM40.5 688.8h1c.6 0 1.1-.4 1.4-1.2l.6-1.5-4-10.2h1.8l2.2 5.9c.4 1 .7 2 1.1 3h-.4c.3-1 .7-2 1.1-3l2.2-5.9h1.8l-4.8 12.2c-.5 1.4-1.6 2.2-2.9 2.2h-1v-1.5h-.1ZM55.1 681c0-3.2 1.9-5.4 4.8-5.4 2.3 0 4.1 1.5 4.3 3.6h-1.7c-.2-1.2-1.1-2.1-2.7-2.1-1.9 0-3.1 1.5-3.1 3.9s1.2 3.9 3.1 3.9c1.5 0 2.3-.8 2.6-2.1h1.7c-.3 2-2 3.6-4.3 3.6-2.7 0-4.7-2.2-4.7-5.4ZM65.6 681c0-3.2 1.9-5.4 4.8-5.4s4.8 2.2 4.8 5.4-1.9 5.4-4.8 5.4-4.8-2.2-4.8-5.4Zm7.9 0c0-2.4-1.2-3.9-3.1-3.9s-3.1 1.5-3.1 3.9 1.2 3.9 3.1 3.9 3.1-1.5 3.1-3.9ZM77.1 675.9h1.6v1.5c.7-1.2 1.9-1.7 3.3-1.7 2.7 0 4.5 2.2 4.5 5.4s-1.8 5.4-4.5 5.4c-1.3 0-2.5-.6-3.2-1.8v5.6h-1.7v-14.4Zm7.7 5.1c0-2.5-1.3-3.9-3-3.9-1.9 0-3.1 1.5-3.1 3.9s1.2 3.9 3.1 3.9c1.7 0 3-1.4 3-3.9ZM88.5 688.8h1c.6 0 1.1-.4 1.4-1.2l.6-1.5-4-10.2h1.8l2.2 5.9c.4 1 .7 2 1.1 3h-.4c.3-1 .7-2 1.1-3l2.2-5.9h1.8l-4.8 12.2c-.5 1.4-1.6 2.2-2.9 2.2h-1v-1.5h-.1ZM105.3 684.6v1.6h-1.6v-14.6h1.7v5.8c.7-1.2 1.9-1.7 3.2-1.7 2.7 0 4.5 2.2 4.5 5.4s-1.8 5.4-4.5 5.4c-1.4-.1-2.6-.7-3.3-1.9Zm6-3.6c0-2.5-1.3-3.9-3-3.9-1.9 0-3.1 1.5-3.1 3.9s1.2 3.9 3.1 3.9c1.8 0 3-1.4 3-3.9ZM114.4 681c0-3.1 1.9-5.4 4.7-5.4s4.7 2.2 4.7 5.4v.5h-8.5v-1.4h7.5l-.7.5c0-2.1-1.2-3.5-3-3.5s-3 1.4-3 3.5v.7c0 2.1 1.1 3.6 3.1 3.6 1.5 0 2.4-.7 2.7-1.8h1.7c-.4 2-2.1 3.3-4.4 3.3-3 0-4.8-2.3-4.8-5.4ZM125.7 683.9v-12.2h1.7v12.1c0 .9.2 1.1 1.1 1.1h.4v1.4h-.5c-2-.1-2.7-.8-2.7-2.4ZM129.7 681c0-3.2 1.9-5.4 4.8-5.4s4.8 2.2 4.8 5.4-1.9 5.4-4.8 5.4-4.8-2.2-4.8-5.4Zm7.9 0c0-2.4-1.2-3.9-3.1-3.9s-3.1 1.5-3.1 3.9 1.2 3.9 3.1 3.9 3.1-1.5 3.1-3.9ZM140.3 675.9h1.7l1.3 4.5c.4 1.4.8 2.9 1.1 4.3h-.2c.4-1.4.8-2.9 1.2-4.3l1.3-4.5h1.6l1.3 4.5c.4 1.4.8 2.9 1.1 4.3h-.3c.4-1.4.8-2.9 1.2-4.3l1.3-4.5h1.7l-3.2 10.3h-1.7l-1.4-4.7c-.4-1.4-.8-2.9-1.1-4.3h.4c-.4 1.4-.8 2.9-1.2 4.3l-1.4 4.7h-1.7l-3-10.3ZM160.8 684.7l5.2-4.7c1.8-1.7 2.6-2.6 2.6-4.1 0-1.9-1.1-2.9-3.1-2.9s-3.1 1.3-3.1 3.4h-1.5c0-2.9 1.9-4.9 4.7-4.9s4.7 1.8 4.7 4.4c0 1.8-1 3.3-3.2 5.2l-3.9 3.6h7.2v1.6h-9.6v-1.6ZM172.1 678.9c0-4.6 2-7.5 5.3-7.5s5.3 2.9 5.3 7.5-2 7.5-5.3 7.5-5.3-2.9-5.3-7.5Zm8.9 0c0-3.7-1.4-6-3.6-6s-3.6 2.2-3.6 6 1.4 5.9 3.6 5.9 3.6-2.2 3.6-5.9ZM184.7 675.9h1.6v1.5c.7-1.2 1.9-1.7 3.3-1.7 2.7 0 4.5 2.2 4.5 5.4s-1.8 5.4-4.5 5.4c-1.3 0-2.5-.6-3.2-1.8v5.6h-1.7v-14.4Zm7.7 5.1c0-2.5-1.3-3.9-3-3.9-1.9 0-3.1 1.5-3.1 3.9s1.2 3.9 3.1 3.9c1.8 0 3-1.4 3-3.9ZM199.4 680.3v1.3l-4.1-5.7h2l1.4 2c.6.8 1.1 1.6 1.6 2.4h-.9c.6-.8 1.2-1.6 1.7-2.4l1.4-2h1.9l-4.1 5.7v-1.3l4.3 5.9h-1.9l-1.6-2.3c-.5-.8-1.1-1.5-1.6-2.3h.8c-.5.8-1.1 1.6-1.6 2.3l-1.7 2.3h-1.9l4.3-5.9ZM218.6 690.9h-1.4v-24h1.4v24ZM231.8 678.9c0-4.4 2.8-7.5 6.7-7.5 3.1 0 5.5 2 6.1 4.9h-1.8c-.4-2-2.1-3.3-4.3-3.3-2.9 0-4.9 2.4-4.9 5.9s2 5.9 4.9 5.9c2.4 0 4.4-1.8 4.4-4.3h.6-4.4v-1.6h5.5v1.6c0 3.4-2.7 5.9-6.1 5.9-4 0-6.7-3.1-6.7-7.5ZM246.4 672.7c0-.6.5-1.1 1.1-1.1s1.1.5 1.1 1.1-.5 1.1-1.1 1.1-1.1-.5-1.1-1.1Zm.3 3.2h1.7v10.3h-1.7v-10.3ZM255.3 677.3h-5.6v-1.4h5.6v1.4Zm-2.1-4.3v10.6c0 .8.3 1.1 1.1 1.1h1v1.4h-1.1c-1.8 0-2.6-.8-2.6-2.3V673h1.6ZM257.3 671.6h1.8v13h7v1.6h-8.8v-14.6ZM267.3 683.2c0-2.4 2-2.8 4.1-3.1 2-.3 2.6-.2 2.6-1v-.1c0-1.1-.8-1.9-2.3-1.9-1.4 0-2.4.8-2.5 1.8h-1.7c.1-1.9 1.8-3.3 4.2-3.3s3.9 1.4 3.9 3.4v7.1H274v-1.5c-.4.7-1.2 1.6-3.1 1.6-2 .1-3.6-.9-3.6-3Zm6.7-.9V681c-.3.2-1.5.4-2.7.6-1.2.2-2.3.6-2.3 1.7 0 1 .8 1.5 2.1 1.5 2.1 0 2.9-1.2 2.9-2.5ZM279.8 684.6v1.6h-1.6v-14.6h1.7v5.8c.7-1.2 1.9-1.7 3.2-1.7 2.7 0 4.5 2.2 4.5 5.4s-1.8 5.4-4.5 5.4c-1.4-.1-2.6-.7-3.3-1.9Zm6-3.6c0-2.5-1.3-3.9-3-3.9-1.9 0-3.1 1.5-3.1 3.9s1.2 3.9 3.1 3.9c1.7 0 3-1.4 3-3.9ZM293.9 681.5h1.8c0 2.1 1.4 3.3 3.7 3.3 2.1 0 3.5-1 3.5-2.6 0-1.2-.8-1.9-2.9-2.4l-1.6-.4c-3-.7-4.2-1.9-4.2-3.9 0-2.5 2-4.2 5-4.2s5 1.7 5 4.5h-1.7c-.1-1.8-1.4-2.9-3.4-2.9s-3.2 1-3.2 2.5c0 1.1.8 1.8 2.9 2.3l1.7.4c2.8.7 4.2 2 4.2 4 0 2.5-2.1 4.2-5.3 4.2-3.3.1-5.5-1.8-5.5-4.8ZM306.3 683.2c0-2.4 2-2.8 4.1-3.1 2-.3 2.6-.2 2.6-1v-.1c0-1.1-.8-1.9-2.3-1.9-1.4 0-2.4.8-2.5 1.8h-1.7c.1-1.9 1.8-3.3 4.2-3.3s3.9 1.4 3.9 3.4v7.1H313v-1.5c-.4.7-1.2 1.6-3.1 1.6-2.1.1-3.6-.9-3.6-3Zm6.7-.9V681c-.3.2-1.5.4-2.7.6-1.2.2-2.3.6-2.3 1.7 0 1 .8 1.5 2.1 1.5 2 0 2.9-1.2 2.9-2.5ZM318.7 686.2H317v-10.3h1.6v2.5h-.5c.7-1.9 1.9-2.7 3.5-2.7 2.1 0 3.8 1.4 3.8 4.1v6.4h-1.5v-6.3c0-1.8-.9-2.7-2.4-2.7s-2.7.9-2.7 2.9v6.1h-.1ZM327.5 683.1h1.6c.1 1.2 1 1.9 2.4 1.9s2.3-.7 2.3-1.6c0-.8-.6-1.2-1.6-1.4l-1.7-.4c-1.9-.4-2.9-1.4-2.9-2.9 0-1.8 1.5-3 3.7-3s3.8 1.3 3.8 3.3h-1.6c0-1.1-.9-1.9-2.2-1.9s-2.1.7-2.1 1.6c0 .8.6 1.2 1.6 1.5l1.7.4c2 .5 2.9 1.4 2.9 2.9 0 1.9-1.7 3-3.9 3-2.1-.1-3.9-1.2-4-3.4ZM342.7 671.6h5.4c3 0 4.9 1.7 4.9 4.4s-2.1 4.4-5.1 4.4h-4.3v-1.5h4.4c2 0 3.2-1.1 3.2-2.9s-1.2-2.9-3.3-2.9h-3.6v13h-1.8v-14.5h.2Zm5 8h2l3.6 6.5h-2.1l-3.5-6.5ZM354.6 681c0-3.1 1.9-5.4 4.7-5.4s4.7 2.2 4.7 5.4v.5h-8.5v-1.4h7.5l-.7.5c0-2.1-1.2-3.5-3-3.5s-3 1.4-3 3.5v.7c0 2.1 1.1 3.6 3.1 3.6 1.5 0 2.4-.7 2.7-1.8h1.7c-.4 2-2.1 3.3-4.4 3.3-3 0-4.8-2.3-4.8-5.4ZM365.8 687.3h1.7c.3 1.1 1.3 1.7 2.6 1.7 1.8 0 2.9-1 2.9-2.8v-1.6c-.8 1.2-1.9 1.8-3.3 1.8-2.7 0-4.5-2.2-4.5-5.4s1.8-5.4 4.5-5.4c1.3 0 2.6.5 3.3 1.8v-1.5h1.6v10.3c0 3-2.1 4.2-4.5 4.2s-4-1.1-4.3-3.1Zm7.4-6.3c0-2.3-1.2-3.9-3.1-3.9-1.8 0-3 1.3-3 3.9s1.3 3.9 3 3.9c1.9 0 3.1-1.5 3.1-3.9ZM377.2 682.3v-6.4h1.7v6.3c0 1.8.9 2.7 2.4 2.7s2.7-.9 2.7-2.9v-6h1.7v10.3h-1.6v-2.5h.5c-.7 1.9-1.9 2.7-3.5 2.7-2.2-.1-3.9-1.5-3.9-4.2ZM388.1 683.9v-12.2h1.7v12.1c0 .9.2 1.1 1.1 1.1h.4v1.4h-.5c-2-.1-2.7-.8-2.7-2.4ZM392.2 683.2c0-2.4 2-2.8 4.1-3.1 2-.3 2.6-.2 2.6-1v-.1c0-1.1-.8-1.9-2.3-1.9-1.4 0-2.4.8-2.5 1.8h-1.7c.1-1.9 1.8-3.3 4.2-3.3s3.9 1.4 3.9 3.4v7.1h-1.6v-1.5c-.4.7-1.2 1.6-3.1 1.6-2 .1-3.6-.9-3.6-3Zm6.7-.9V681c-.3.2-1.5.4-2.7.6-1.2.2-2.3.6-2.3 1.7 0 1 .8 1.5 2.1 1.5 2.1 0 2.9-1.2 2.9-2.5ZM403 675.9h1.6v1.6c.4-1.1 1.2-1.8 2.5-1.8.3 0 .6 0 .7.1v1.7c-.1 0-.5-.1-1-.1-1.1 0-2.1.8-2.1 2.5v6.3H403v-10.3ZM421.9 690.9h-1.4v-24h1.4v24ZM435.6 671.6h1.8v13h7v1.6h-8.8v-14.6ZM445.6 681c0-3.1 1.9-5.4 4.7-5.4s4.7 2.2 4.7 5.4v.5h-8.5v-1.4h7.5l-.7.5c0-2.1-1.2-3.5-3-3.5s-3 1.4-3 3.5v.7c0 2.1 1.1 3.6 3.1 3.6 1.5 0 2.4-.7 2.7-1.8h1.7c-.4 2-2.1 3.3-4.4 3.3-3.1 0-4.8-2.3-4.8-5.4ZM456.4 683.2c0-2.4 2-2.8 4.1-3.1 2-.3 2.6-.2 2.6-1v-.1c0-1.1-.8-1.9-2.3-1.9-1.4 0-2.4.8-2.5 1.8h-1.7c.1-1.9 1.8-3.3 4.2-3.3s3.9 1.4 3.9 3.4v7.1h-1.6v-1.5c-.4.7-1.2 1.6-3.1 1.6-2.1.1-3.6-.9-3.6-3Zm6.7-.9V681c-.3.2-1.5.4-2.7.6-1.2.2-2.3.6-2.3 1.7 0 1 .8 1.5 2.1 1.5 2 0 2.9-1.2 2.9-2.5ZM466.7 681c0-3.2 1.8-5.4 4.5-5.4 1.3 0 2.6.6 3.2 1.7v-5.8h1.7v14.6h-1.6v-1.6c-.7 1.2-1.9 1.8-3.3 1.8-2.8.1-4.5-2.1-4.5-5.3Zm7.8 0c0-2.3-1.2-3.9-3.1-3.9-1.8 0-3 1.3-3 3.9s1.3 3.9 3 3.9c1.9 0 3.1-1.5 3.1-3.9ZM478.2 672.7c0-.6.5-1.1 1.1-1.1s1.1.5 1.1 1.1-.5 1.1-1.1 1.1-1.1-.5-1.1-1.1Zm.3 3.2h1.7v10.3h-1.7v-10.3ZM484.3 686.2h-1.7v-10.3h1.6v2.5h-.5c.7-1.9 1.9-2.7 3.5-2.7 2.1 0 3.8 1.4 3.8 4.1v6.4h-1.7v-6.3c0-1.8-.9-2.7-2.4-2.7s-2.7.9-2.7 2.9v6.1h.1ZM493.5 687.3h1.7c.3 1.1 1.3 1.7 2.6 1.7 1.8 0 2.9-1 2.9-2.8v-1.6c-.8 1.2-1.9 1.8-3.3 1.8-2.7 0-4.5-2.2-4.5-5.4s1.8-5.4 4.5-5.4c1.3 0 2.6.5 3.3 1.8v-1.5h1.6v10.3c0 3-2.1 4.2-4.5 4.2s-4-1.1-4.3-3.1Zm7.4-6.3c0-2.3-1.2-3.9-3.1-3.9-1.8 0-3 1.3-3 3.9s1.3 3.9 3 3.9c1.9 0 3.1-1.5 3.1-3.9ZM504.6 677.5c0-.7.5-1.2 1.2-1.2s1.2.5 1.2 1.2-.5 1.2-1.2 1.2-1.2-.6-1.2-1.2Zm0 7.6c0-.7.5-1.2 1.2-1.2s1.2.5 1.2 1.2-.5 1.2-1.2 1.2-1.2-.5-1.2-1.2ZM518.8 686.2h-1.7v-12.7l-3.6 2.4v-1.8l3.6-2.4h1.7v14.5ZM521.2 681.6h1.8c0 2.1 1.2 3.3 3.3 3.3s3.4-1.1 3.4-2.8c0-1.6-1.5-2.6-3.6-2.6h-1.2v-1.6h1.2c1.9 0 3.1-.9 3.1-2.4 0-1.6-1.2-2.6-3-2.6-1.9 0-3 1.1-3 2.9h-1.7c0-2.6 1.9-4.5 4.7-4.5s4.7 1.7 4.7 4.1c0 1.5-1 2.7-2.6 3.2 1.9.3 3.1 1.7 3.1 3.4 0 2.5-2.1 4.3-5 4.3-3.1.1-5.2-1.9-5.2-4.7ZM533.1 682h1.8c.2 1.7 1.5 2.9 3.3 2.9 1.9 0 3.2-1.4 3.2-3.4s-1.2-3.4-3-3.4c-1.6 0-2.8.7-3.3 1.9h-1.7l.5-8.3h8.4v1.6h-6.8l-.4 4.7c.9-1 2.1-1.5 3.4-1.5 2.7 0 4.5 2.1 4.5 4.9s-2 5-4.9 5-4.9-1.9-5-4.4ZM545.1 674.7c0-1.9 1.2-3.3 3-3.3s3 1.4 3 3.3v.3c0 1.9-1.2 3.3-3 3.3s-3-1.4-3-3.3v-.3Zm11.2-3.1h1.7l-10 14.6h-1.7l10-14.6Zm-9.7 3.4c0 1.3.6 2.1 1.5 2.1s1.5-.8 1.5-2.1v-.3c0-1.3-.6-2.1-1.5-2.1s-1.5.8-1.5 2.1v.3Zm6.5 7.8c0-1.9 1.2-3.3 3-3.3s3 1.4 3 3.3v.3c0 1.9-1.2 3.3-3 3.3s-3-1.4-3-3.3v-.3Zm1.5.3c0 1.3.6 2.1 1.5 2.1s1.5-.8 1.5-2.1v-.3c0-1.3-.6-2.1-1.5-2.1s-1.5.8-1.5 2.1v.3ZM574.1 690.9h-1.4v-24h1.4v24ZM587.8 671.6h1.8v14.6h-1.8v-14.6Zm1.2 8.1c1-1.1 2-2.2 3.1-3.3l4.4-4.7h2.3l-6.2 6.6h-.1l-3.5 3.8v-2.4Zm2.4-1 1.1-1.4 6.3 8.9h-2.1l-5.3-7.5ZM599.8 681c0-3.1 1.9-5.4 4.7-5.4s4.7 2.2 4.7 5.4v.5h-8.5v-1.4h7.5l-.7.5c0-2.1-1.2-3.5-3-3.5s-3 1.4-3 3.5v.7c0 2.1 1.1 3.6 3.1 3.6 1.5 0 2.4-.7 2.7-1.8h1.7c-.4 2-2.1 3.3-4.4 3.3-3.1 0-4.8-2.3-4.8-5.4ZM611 675.9h1.6v1.6c.4-1.1 1.2-1.8 2.5-1.8.3 0 .6 0 .7.1v1.7c-.1 0-.5-.1-1-.1-1.1 0-2.1.8-2.1 2.5v6.3H611v-10.3ZM619.1 686.2h-1.7v-10.3h1.6v2.5h-.5c.7-1.9 1.9-2.7 3.5-2.7 2.1 0 3.8 1.4 3.8 4.1v6.4h-1.7v-6.3c0-1.8-.9-2.7-2.4-2.7s-2.7.9-2.7 2.9v6.1h.1ZM628.1 672.7c0-.6.5-1.1 1.1-1.1s1.1.5 1.1 1.1-.5 1.1-1.1 1.1-1.1-.5-1.1-1.1Zm.3 3.2h1.7v10.3h-1.7v-10.3ZM634.2 686.2h-1.7v-10.3h1.6v2.5h-.5c.7-1.9 1.9-2.7 3.5-2.7 2.1 0 3.8 1.4 3.8 4.1v6.4h-1.7v-6.3c0-1.8-.9-2.7-2.4-2.7s-2.7.9-2.7 2.9v6.1h.1ZM643.4 687.3h1.7c.3 1.1 1.3 1.7 2.6 1.7 1.8 0 2.9-1 2.9-2.8v-1.6c-.8 1.2-1.9 1.8-3.3 1.8-2.7 0-4.5-2.2-4.5-5.4s1.8-5.4 4.5-5.4c1.3 0 2.6.5 3.3 1.8v-1.5h1.6v10.3c0 3-2.1 4.2-4.5 4.2s-4-1.1-4.3-3.1Zm7.4-6.3c0-2.3-1.2-3.9-3.1-3.9-1.8 0-3 1.3-3 3.9s1.3 3.9 3 3.9c1.9 0 3.1-1.5 3.1-3.9ZM654.5 677.5c0-.7.5-1.2 1.2-1.2s1.2.5 1.2 1.2-.5 1.2-1.2 1.2-1.2-.6-1.2-1.2Zm0 7.6c0-.7.5-1.2 1.2-1.2s1.2.5 1.2 1.2-.5 1.2-1.2 1.2-1.2-.5-1.2-1.2ZM668.5 671.6h2l5.3 14.6h-1.9l-3.1-8.8c-.4-1.2-.9-2.5-1.6-4.9h.5c-.8 2.4-1.2 3.8-1.6 4.9l-3.1 8.8h-1.8l5.3-14.6Zm-2.6 8.9h7.1v1.6h-7.1v-1.6ZM677.2 682.3v-6.4h1.7v6.3c0 1.8.9 2.7 2.4 2.7s2.7-.9 2.7-2.9v-6h1.7v10.3h-1.6v-2.5h.5c-.7 1.9-1.9 2.7-3.5 2.7-2.2-.1-3.9-1.5-3.9-4.2ZM692.7 677.3h-5.6v-1.4h5.6v1.4Zm-2.1-4.3v10.6c0 .8.3 1.1 1.1 1.1h1v1.4h-1.1c-1.8 0-2.6-.8-2.6-2.3V673h1.6ZM693.9 681c0-3.2 1.9-5.4 4.8-5.4s4.8 2.2 4.8 5.4-1.9 5.4-4.8 5.4-4.8-2.2-4.8-5.4Zm7.8 0c0-2.4-1.2-3.9-3.1-3.9s-3.1 1.5-3.1 3.9 1.2 3.9 3.1 3.9 3.1-1.5 3.1-3.9ZM712.8 690.9h-1.4v-24h1.4v24ZM725.5 671.6h11.2v1.6H732v13h-1.8v-13h-4.7v-1.6ZM738.5 675.9h1.6v1.6c.4-1.1 1.2-1.8 2.5-1.8.3 0 .6 0 .7.1v1.7c-.1 0-.5-.1-1-.1-1.1 0-2.1.8-2.1 2.5v6.3h-1.7v-10.3ZM744.5 683.2c0-2.4 2-2.8 4.1-3.1 2-.3 2.6-.2 2.6-1v-.1c0-1.1-.8-1.9-2.3-1.9-1.4 0-2.4.8-2.5 1.8h-1.7c.1-1.9 1.8-3.3 4.2-3.3s3.9 1.4 3.9 3.4v7.1h-1.6v-1.5c-.4.7-1.2 1.6-3.1 1.6-2.1.1-3.6-.9-3.6-3Zm6.7-.9V681c-.3.2-1.5.4-2.7.6-1.2.2-2.3.6-2.3 1.7 0 1 .8 1.5 2.1 1.5 2 0 2.9-1.2 2.9-2.5ZM754.8 681c0-3.2 1.9-5.4 4.8-5.4 2.3 0 4.1 1.5 4.3 3.6h-1.7c-.2-1.2-1.1-2.1-2.7-2.1-1.9 0-3.1 1.5-3.1 3.9s1.2 3.9 3.1 3.9c1.5 0 2.3-.8 2.6-2.1h1.7c-.3 2-2 3.6-4.3 3.6-2.8 0-4.7-2.2-4.7-5.4ZM765.7 671.6h1.7v14.6h-1.7v-14.6Zm1.6 8.9h.1l4.8-4.6h2.1l-5 4.9h-.2l-1.9 1.7v-2h.1Zm1.1.6 1.2-1.2 5.1 6.2h-2.1l-4.2-5ZM775.6 672.7c0-.6.5-1.1 1.1-1.1s1.1.5 1.1 1.1-.5 1.1-1.1 1.1-1.1-.5-1.1-1.1Zm.3 3.2h1.7v10.3h-1.7v-10.3ZM781.7 686.2H780v-10.3h1.6v2.5h-.5c.7-1.9 1.9-2.7 3.5-2.7 2.1 0 3.8 1.4 3.8 4.1v6.4h-1.7v-6.3c0-1.8-.9-2.7-2.4-2.7s-2.7.9-2.7 2.9v6.1h.1ZM790.9 687.3h1.7c.3 1.1 1.3 1.7 2.6 1.7 1.8 0 2.9-1 2.9-2.8v-1.6c-.8 1.2-1.9 1.8-3.3 1.8-2.7 0-4.5-2.2-4.5-5.4s1.8-5.4 4.5-5.4c1.3 0 2.6.5 3.3 1.8v-1.5h1.6v10.3c0 3-2.1 4.2-4.5 4.2s-4-1.1-4.3-3.1Zm7.4-6.3c0-2.3-1.2-3.9-3.1-3.9-1.8 0-3 1.3-3 3.9s1.3 3.9 3 3.9c1.9 0 3.1-1.5 3.1-3.9ZM802 677.5c0-.7.5-1.2 1.2-1.2s1.2.5 1.2 1.2-.5 1.2-1.2 1.2-1.2-.6-1.2-1.2Zm0 7.6c0-.7.5-1.2 1.2-1.2s1.2.5 1.2 1.2-.5 1.2-1.2 1.2-1.2-.5-1.2-1.2ZM811.3 678.9c0-4.6 2-7.5 5.3-7.5s5.3 2.9 5.3 7.5-2 7.5-5.3 7.5-5.3-2.9-5.3-7.5Zm8.8 0c0-3.7-1.4-6-3.6-6s-3.6 2.2-3.6 6 1.4 5.9 3.6 5.9 3.6-2.2 3.6-5.9Z" class="cls-4"/><path d="M20.4 59.2H44v96.1h53v20.3H20.4V59.2ZM98 134.4c0-25.8 16.9-43.2 41.8-43.2s41.8 17.4 41.8 43.2-16.8 43-41.8 43c-25 .1-41.8-17.1-41.8-43Zm60.6 0c0-15.5-7.6-24.8-18.9-24.8s-18.9 9.2-18.9 24.8 7.6 24.6 18.9 24.6 18.9-9.1 18.9-24.6ZM187.1 93.1h21.8v14h.2c3-9.9 9.2-14.6 20.1-14.6 2.7 0 4.9.1 6.8.2v19.4c-1.7-.2-6-.5-9.8-.5-9.5 0-16.5 6.6-16.5 19v44.9h-22.6V93.1ZM235.6 134.4c0-25.2 16.7-43.2 40.4-43.2s40.5 17.6 40.5 42.8v6.1h-72.7v-14.6h61.7l-10.2 3.5c0-12.6-7.3-20.5-18.8-20.5s-18.8 7.9-18.8 20.5v9.9c0 13 7.2 21.5 19.8 21.5 9.1 0 15.4-4.2 17.4-10.7h20.8c-3.1 16.3-18.9 27.7-38.9 27.7-25 .1-41.2-17.9-41.2-43ZM321.7 93.1h21.8v18.5h-1.4c4.3-13.6 14.8-20.2 26.4-20.2 12.6 0 22.9 7.8 24.8 20.2h-2.4c3.1-12.5 14.2-20.2 27.8-20.2 15.8 0 27.7 10.6 27.7 29.6v54.6h-22.6V125c0-10.1-6.2-14.9-14.1-14.9-9.1 0-14.7 6.4-14.7 15.6v49.8h-21.8v-51.2c0-8.6-5.7-14.2-13.8-14.2s-15 6-15 16.7v48.8h-22.6V93.1h-.1ZM481.5 69.6c0-6.8 5.6-12.3 12.7-12.3s12.7 5.4 12.7 12.3-5.6 12.3-12.7 12.3-12.7-5.5-12.7-12.3Zm1.4 23.5h22.6v82.5h-22.6V93.1ZM514.7 93.1H537v11.2h.3c5.1-8.6 13.8-12.9 24.5-12.9 21.1 0 35.5 17.5 35.5 42.9s-14.1 43.1-35.7 43.1c-10.8 0-19.3-4.8-24.1-14.1h-.2v45h-22.6V93.1Zm59.8 41.2c0-15.6-7.4-24.5-18.6-24.5-11.8 0-19.6 9.7-19.6 24.5s7.8 24.6 19.6 24.6c11.3-.1 18.6-9 18.6-24.6ZM599 149.7h22.3c.8 7.3 6.2 11.6 15.2 11.6s13.9-3.6 13.9-8.8c0-4.4-4-7-10.8-8.4l-14.4-2.8c-16-3.1-24.4-11.3-24.4-24 0-15.6 13.4-25.9 34.8-25.9s35.2 10.7 35.7 27.9h-21c-.2-6.7-5.8-11.7-14-11.7s-12.9 3.9-12.9 8.8c0 4.3 3.7 7.1 10.1 8.4l15.6 3c16.6 3.3 24.3 10.5 24.3 22.6 0 16.5-15 27.1-36.4 27.1-21.3.1-36.6-10.1-38-27.8ZM678.6 144.8V93.1h22.6v47.5c0 11.2 5.6 17.1 15.3 17.1s16.4-5.8 16.4-18.7V93.1h22.6v82.5h-22.3v-21.4h3.9c-5.2 14.6-14.7 23.1-29.6 23.1-17.4 0-28.9-11.7-28.9-32.5ZM764.9 93.1h21.8v18.5h-1.4c4.3-13.6 14.8-20.2 26.4-20.2 12.6 0 22.9 7.8 24.8 20.2H834c3.1-12.5 14.2-20.2 27.8-20.2 15.9 0 27.7 10.6 27.7 29.6v54.6h-22.6V125c0-10.1-6.2-14.9-14.1-14.9-9.1 0-14.7 6.4-14.7 15.6v49.8h-21.8v-51.2c0-8.6-5.7-14.2-13.8-14.2s-15 6-15 16.7v48.8h-22.6V93.1ZM16.2 302.3c0-25.3 14.5-42.9 35.5-42.9 10.7 0 19.1 4.2 24.4 13.2h.1v-45.4h22.6v116.4H76.5v-12.7h-.1c-4.8 9.6-13.7 14.4-24.5 14.4-21.6 0-35.7-17.2-35.7-43Zm61.1 0c0-14.9-7.8-24.5-19.6-24.5s-18.6 8.9-18.6 24.5 7.4 24.6 18.6 24.6c11.8-.1 19.6-9.7 19.6-24.6ZM104.4 302.4c0-25.8 16.9-43.2 41.8-43.2s41.8 17.4 41.8 43.2-16.8 43-41.8 43c-25 .1-41.8-17.1-41.8-43Zm60.7 0c0-15.5-7.6-24.8-18.9-24.8s-18.9 9.2-18.9 24.8 7.6 24.6 18.9 24.6 18.9-9.1 18.9-24.6ZM193.5 321.4v-94.2h22.6v92c0 5.2 1.8 7 7.1 7h3.3v17.4h-6.6c-18.7 0-26.4-6.3-26.4-22.2ZM226 302.4c0-25.8 16.9-43.2 41.8-43.2s41.8 17.4 41.8 43.2-16.8 43-41.8 43c-25 .1-41.8-17.1-41.8-43Zm60.7 0c0-15.5-7.6-24.8-18.9-24.8s-18.9 9.2-18.9 24.8 7.6 24.6 18.9 24.6 18.9-9.1 18.9-24.6ZM315.1 261.1h21.8v14h.2c3-9.9 9.2-14.6 20.1-14.6 2.7 0 4.9.1 6.8.2v19.4c-1.7-.2-6-.5-9.8-.5-9.5 0-16.5 6.6-16.5 19v44.9h-22.6v-82.4ZM391.3 320.4c0-18.7 15-23.8 32.2-25.5 15.1-1.5 20.4-2.1 20.4-7.5v-.5c0-6.2-5.1-10.5-13.6-10.5s-14.4 4.4-15 10.9h-21.4c1-17 14.5-27.8 37-27.8s35.4 10.7 35.4 28.2v56h-22.1v-11.6h-.3c-4.3 8-11.4 13-24.1 13-16.5-.1-28.5-8.3-28.5-24.7Zm52.8-7V305c-2.6 1.5-9.2 2.6-16.8 3.8-7.9 1.2-14.3 4.2-14.3 10.9 0 5.9 5.1 9.4 12.9 9.4 11.3.1 18.2-6.7 18.2-15.7ZM475.6 261.1h21.8v18.5H496c4.3-13.6 14.8-20.2 26.4-20.2 12.6 0 22.9 7.8 24.8 20.2h-2.5c3.1-12.5 14.2-20.2 27.8-20.2 15.9 0 27.7 10.6 27.7 29.6v54.6h-22.6V293c0-10.1-6.2-14.9-14.1-14.9-9.1 0-14.7 6.4-14.7 15.6v49.8H527v-51.2c0-8.6-5.7-14.2-13.8-14.2s-15 6-15 16.7v48.8h-22.6v-82.5ZM605.8 302.4c0-25.2 16.7-43.2 40.4-43.2s40.5 17.6 40.5 42.8v6.1H614v-14.6h61.7l-10.2 3.5c0-12.6-7.3-20.5-18.8-20.5s-18.8 7.9-18.8 20.5v9.9c0 13 7.2 21.5 19.8 21.5 9.1 0 15.4-4.2 17.4-10.7h20.8c-3.1 16.3-18.9 27.7-38.9 27.7-25 .1-41.2-17.9-41.2-43ZM738.9 278.9h-53.8v-17.8h53.8v17.8ZM722 238.6v79.7c0 5.6 1.9 7.5 8.1 7.5h8.8v17.8h-13.2c-18 0-26.3-6.9-26.3-21.8v-83.2H722ZM7.8 492.9h4.4v32.5h17.5v3.9H7.8v-36.4ZM31.7 516.4c0-7.9 4.8-13.5 12-13.5s12 5.6 12 13.5-4.8 13.4-12 13.4-12-5.5-12-13.4Zm19.7 0c0-5.9-2.9-9.8-7.8-9.8s-7.8 3.9-7.8 9.8 2.9 9.7 7.8 9.7 7.8-3.8 7.8-9.7ZM59.4 503.5h4v4.1h.1c1-2.7 3-4.4 6.2-4.4.8 0 1.4.1 1.8.1v4.2c-.3-.1-1.3-.3-2.5-.3-2.9 0-5.3 1.9-5.3 6.3v15.9h-4.2v-25.9h-.1ZM73.2 516.4c0-7.8 4.8-13.5 11.7-13.5s11.7 5.5 11.7 13.5v1.1H75.4v-3.6h18.9l-1.8 1.2c0-5.2-3-8.6-7.6-8.6s-7.6 3.4-7.6 8.6v1.8c0 5.3 2.8 9.1 7.9 9.1 3.7 0 6.1-1.9 6.8-4.5h4.2c-1 4.9-5.4 8.3-11 8.3-7.6.1-12-5.6-12-13.4ZM100.4 503.5h4.1v5.3h-.6c1.5-3.7 4.6-5.8 8.2-5.8 4 0 7.1 2.7 7.8 5.8h-.9c1.1-3.2 4.2-5.8 8.6-5.8 4.7 0 8.6 3 8.6 9.4v16.9H132v-16.9c0-4-2.6-5.6-5.6-5.6-3.8 0-6.1 2.6-6.1 6.1v16.4h-4.2v-17.4c0-3.1-2.3-5.1-5.4-5.1s-6.2 2.3-6.2 6.7v15.7h-4.2v-25.7h.1ZM152 495.6c0-1.6 1.3-2.8 2.8-2.8s2.8 1.3 2.8 2.8-1.3 2.8-2.8 2.8-2.8-1.2-2.8-2.8Zm.8 7.9h4.2v25.8h-4.2v-25.8ZM162.1 503.5h4.1v3.8c1.7-2.9 4.8-4.3 8.2-4.3 6.7 0 11.2 5.4 11.2 13.4s-4.5 13.4-11.2 13.4c-3.3 0-6.2-1.4-8.1-4.4v14.1h-4.2v-36Zm19.2 12.9c0-6.3-3.1-9.7-7.6-9.7-4.8 0-7.8 3.8-7.8 9.7s3 9.6 7.8 9.6c4.5 0 7.6-3.3 7.6-9.6ZM188.1 521.6h4.1c.3 3.1 2.4 4.7 6 4.7s5.8-1.7 5.8-4c0-2-1.6-3.1-3.9-3.6l-4.2-1c-4.8-1.1-7.3-3.6-7.3-7.3 0-4.4 3.8-7.5 9.4-7.5s9.4 3.2 9.5 8.3h-4.1c0-2.7-2.2-4.7-5.5-4.7s-5.2 1.8-5.2 4c0 2 1.5 3.1 4 3.7l4.2 1c4.9 1.2 7.2 3.4 7.2 7.2 0 4.8-4.2 7.6-9.9 7.6-5.4-.1-9.7-2.8-10.1-8.4ZM212.1 519.5v-16h4.2v15.7c0 4.5 2.2 6.7 6.1 6.7s6.8-2.2 6.8-7.4v-15.1h4.2v25.8h-4.1V523h1.2c-1.7 4.6-4.8 6.7-8.8 6.7-5.3.1-9.6-3.3-9.6-10.2ZM238.4 503.5h4.1v5.3h-.5c1.5-3.7 4.6-5.8 8.2-5.8 4 0 7.1 2.7 7.8 5.8h-.9c1.1-3.2 4.2-5.8 8.6-5.8 4.7 0 8.6 3 8.6 9.4v16.9h-4.2v-16.9c0-4-2.6-5.6-5.6-5.6-3.8 0-6.1 2.6-6.1 6.1v16.4h-4.2v-17.4c0-3.1-2.3-5.1-5.4-5.1s-6.2 2.3-6.2 6.7v15.7h-4.2v-25.7ZM289.6 516.4c0-8 4.5-13.4 11.2-13.4 3.3 0 6.4 1.4 8.1 4.3v-14.4h4.2v36.4H309v-3.9c-1.9 3-4.8 4.4-8.2 4.4-6.8 0-11.2-5.5-11.2-13.4Zm19.6 0c0-5.8-3-9.7-7.8-9.7-4.5 0-7.6 3.3-7.6 9.7s3.1 9.6 7.6 9.6c4.8 0 7.8-3.8 7.8-9.6ZM316.8 516.4c0-7.9 4.8-13.5 12-13.5s12 5.6 12 13.5-4.8 13.4-12 13.4-12-5.5-12-13.4Zm19.8 0c0-5.9-2.9-9.8-7.8-9.8s-7.8 3.9-7.8 9.8 2.9 9.7 7.8 9.7 7.8-3.8 7.8-9.7ZM344.6 523.5v-30.6h4.2V523c0 2.2.5 2.7 2.6 2.7h1v3.6h-1.2c-4.8 0-6.6-1.6-6.6-5.8ZM353.8 516.4c0-7.9 4.8-13.5 12-13.5s12 5.6 12 13.5-4.8 13.4-12 13.4-12-5.5-12-13.4Zm19.7 0c0-5.9-2.9-9.8-7.8-9.8s-7.8 3.9-7.8 9.8 2.9 9.7 7.8 9.7 7.8-3.8 7.8-9.7ZM381.5 503.5h4v4.1h.1c1-2.7 3-4.4 6.2-4.4.8 0 1.4.1 1.8.1v4.2c-.3-.1-1.3-.3-2.5-.3-2.9 0-5.3 1.9-5.3 6.3v15.9h-4.2v-25.9h-.1ZM406.9 521.6h4.1c.3 3.1 2.4 4.7 6 4.7s5.8-1.7 5.8-4c0-2-1.6-3.1-3.9-3.6l-4.2-1c-4.8-1.1-7.3-3.6-7.3-7.3 0-4.4 3.8-7.5 9.4-7.5s9.4 3.2 9.5 8.3h-4.1c0-2.7-2.2-4.7-5.5-4.7s-5.2 1.8-5.2 4c0 2 1.5 3.1 4 3.7l4.2 1c4.9 1.2 7.2 3.4 7.2 7.2 0 4.8-4.2 7.6-9.9 7.6-5.4-.1-9.8-2.8-10.1-8.4ZM430.1 495.6c0-1.6 1.3-2.8 2.8-2.8s2.8 1.3 2.8 2.8-1.3 2.8-2.8 2.8-2.8-1.2-2.8-2.8Zm.8 7.9h4.2v25.8h-4.2v-25.8ZM451.4 507.1h-14v-3.6h14v3.6Zm-5.2-10.6v26.6c0 2 .7 2.7 2.8 2.7h2.4v3.6h-2.8c-4.4 0-6.6-1.9-6.6-5.8v-27h4.2v-.1ZM465.1 521.9c0-5.9 5.1-7 10.3-7.7 4.9-.7 6.5-.5 6.5-2.4v-.2c0-2.8-2.1-4.8-5.7-4.8s-6.1 2-6.3 4.5h-4.2c.2-4.7 4.4-8.2 10.5-8.2s9.8 3.4 9.8 8.5v17.8h-4.1v-3.7h-.1c-1 1.9-3 4.1-7.7 4.1-5.2-.1-9-2.8-9-7.9Zm16.7-2.4v-3.2c-.6.6-3.7 1-6.7 1.5-3 .4-5.8 1.4-5.8 4.3 0 2.4 2 3.9 5.3 3.9 5.1 0 7.2-3.1 7.2-6.5ZM491.1 503.5h4.1v5.3h-.5c1.5-3.7 4.6-5.8 8.2-5.8 4 0 7.1 2.7 7.8 5.8h-.9c1.1-3.2 4.2-5.8 8.6-5.8 4.7 0 8.6 3 8.6 9.4v16.9h-4.2v-16.9c0-4-2.6-5.6-5.6-5.6-3.8 0-6.1 2.6-6.1 6.1v16.4h-4.2v-17.4c0-3.1-2.3-5.1-5.4-5.1s-6.2 2.3-6.2 6.7v15.7h-4.2v-25.7ZM530.7 516.4c0-7.8 4.8-13.5 11.7-13.5s11.7 5.5 11.7 13.5v1.1h-21.2v-3.6h18.9l-1.8 1.2c0-5.2-3-8.6-7.6-8.6s-7.6 3.4-7.6 8.6v1.8c0 5.3 2.8 9.1 7.9 9.1 3.7 0 6.1-1.9 6.8-4.5h4.2c-1 4.9-5.4 8.3-11 8.3-7.6.1-12-5.6-12-13.4ZM557.8 503.5h4v4.1h.1c1-2.7 3-4.4 6.2-4.4.8 0 1.4.1 1.8.1v4.2c-.3-.1-1.3-.3-2.5-.3-2.9 0-5.3 1.9-5.3 6.3v15.9h-4.2v-25.9h-.1ZM573.4 524.2h4.4l-3.6 11.9h-3l2.2-11.9ZM593.1 516.4c0-7.9 4.8-13.5 12-13.5 5.9 0 10.2 3.8 10.9 9h-4.2c-.6-3-2.9-5.2-6.7-5.2-4.9 0-7.8 3.9-7.8 9.8s2.9 9.7 7.8 9.7c3.9 0 5.8-2.1 6.6-5.2h4.3c-.7 5.1-5.1 9-10.9 9-7.2-.1-12-5.7-12-13.6ZM618.3 516.4c0-7.9 4.8-13.5 12-13.5s12 5.6 12 13.5-4.8 13.4-12 13.4-12-5.5-12-13.4Zm19.7 0c0-5.9-2.9-9.8-7.8-9.8s-7.8 3.9-7.8 9.8 2.9 9.7 7.8 9.7 7.8-3.8 7.8-9.7ZM650.2 529.3H646v-25.8h4.1v6.2h-1.2c1.7-4.6 4.8-6.7 8.8-6.7 5.2 0 9.5 3.4 9.5 10.3v16H663v-15.7c0-4.5-2.2-6.7-6.1-6.7s-6.8 2.2-6.8 7.4v15h.1ZM671.2 521.6h4.1c.3 3.1 2.4 4.7 6 4.7s5.8-1.7 5.8-4c0-2-1.6-3.1-3.9-3.6l-4.2-1c-4.8-1.1-7.3-3.6-7.3-7.3 0-4.4 3.8-7.5 9.4-7.5s9.4 3.2 9.5 8.3h-4.1c0-2.7-2.2-4.7-5.5-4.7s-5.2 1.8-5.2 4c0 2 1.5 3.1 4 3.7l4.2 1c4.9 1.2 7.2 3.4 7.2 7.2 0 4.8-4.2 7.6-9.9 7.6-5.5-.1-9.8-2.8-10.1-8.4ZM693.8 516.4c0-7.8 4.8-13.5 11.7-13.5s11.7 5.5 11.7 13.5v1.1H696v-3.6h18.9l-1.8 1.2c0-5.2-3-8.6-7.6-8.6s-7.6 3.4-7.6 8.6v1.8c0 5.3 2.8 9.1 7.9 9.1 3.7 0 6.1-1.9 6.8-4.5h4.2c-1 4.9-5.4 8.3-11 8.3-7.6.1-12-5.6-12-13.4ZM719.6 516.4c0-7.9 4.8-13.5 12-13.5 5.9 0 10.2 3.8 10.9 9h-4.2c-.6-3-2.9-5.2-6.7-5.2-4.9 0-7.8 3.9-7.8 9.8s2.9 9.7 7.8 9.7c3.9 0 5.8-2.1 6.6-5.2h4.3c-.7 5.1-5.1 9-10.9 9-7.2-.1-12-5.7-12-13.6ZM757.3 507.1h-14v-3.6h14v3.6Zm-5.2-10.6v26.6c0 2 .7 2.7 2.8 2.7h2.4v3.6h-2.8c-4.4 0-6.6-1.9-6.6-5.8v-27h4.2v-.1ZM4.9 558.5h4.5l5.6 14.8c.9 2.5 1.8 5 2.6 7.4h-1c.8-2.5 1.7-5 2.6-7.4l5.5-14.8h4.4l-10 25.8h-4.2l-10-25.8ZM30.5 571.4c0-7.8 4.8-13.5 11.7-13.5s11.7 5.5 11.7 13.5v1.1H32.7v-3.6h18.9l-1.8 1.2c0-5.2-3-8.6-7.6-8.6s-7.6 3.4-7.6 8.6v1.8c0 5.3 2.8 9.1 7.9 9.1 3.7 0 6.1-1.9 6.8-4.5h4.2c-1 4.9-5.4 8.3-11 8.3-7.6.1-12-5.6-12-13.4ZM56.3 571.4c0-8 4.5-13.4 11.2-13.4 3.3 0 6.4 1.4 8.1 4.3v-14.4h4.2v36.4h-4.1v-3.9c-1.9 3-4.8 4.4-8.2 4.4-6.7 0-11.2-5.5-11.2-13.4Zm19.6 0c0-5.8-3-9.7-7.8-9.7-4.5 0-7.6 3.3-7.6 9.7s3.1 9.6 7.6 9.6c4.8 0 7.8-3.8 7.8-9.6ZM84.9 558.5h4v4.1h.1c1-2.7 3-4.4 6.2-4.4.8 0 1.4.1 1.8.1v4.2c-.3-.1-1.3-.3-2.5-.3-2.9 0-5.3 1.9-5.3 6.3v15.9h-4.3v-25.9ZM99.3 550.6c0-1.6 1.3-2.8 2.8-2.8s2.8 1.3 2.8 2.8-1.3 2.8-2.8 2.8-2.8-1.2-2.8-2.8Zm.7 7.9h4.2v25.8H100v-25.8ZM108.2 576.9c0-5.9 5.1-7 10.3-7.7 4.9-.7 6.5-.5 6.5-2.4v-.2c0-2.8-2.1-4.8-5.7-4.8s-6.1 2-6.3 4.5h-4.2c.2-4.7 4.4-8.2 10.5-8.2s9.8 3.4 9.8 8.5v17.8h-4.2v-3.7h-.1c-1 1.9-3 4.1-7.7 4.1-5.1-.1-8.9-2.8-8.9-7.9Zm16.7-2.4v-3.2c-.6.6-3.7 1-6.7 1.5-3 .4-5.8 1.4-5.8 4.3 0 2.4 2 3.9 5.3 3.9 5.1 0 7.2-3.1 7.2-6.5ZM138.3 584.3h-4.2v-25.8h4.1v6.2H137c1.7-4.6 4.8-6.7 8.8-6.7 5.2 0 9.5 3.4 9.5 10.3v16h-4.2v-15.7c0-4.5-2.2-6.7-6.1-6.7s-6.8 2.2-6.8 7.4v15h.1ZM170.7 571.4c0-7.9 4.8-13.5 12-13.5 5.9 0 10.2 3.8 10.9 9h-4.2c-.6-3-2.9-5.2-6.7-5.2-4.9 0-7.8 3.9-7.8 9.8s2.9 9.7 7.8 9.7c3.9 0 5.8-2.1 6.6-5.2h4.3c-.7 5.1-5.1 9-10.9 9-7.2-.1-12-5.7-12-13.6ZM195.9 571.4c0-7.9 4.8-13.5 12-13.5s12 5.6 12 13.5-4.8 13.4-12 13.4-12-5.5-12-13.4Zm19.7 0c0-5.9-2.9-9.8-7.8-9.8s-7.8 3.9-7.8 9.8 2.9 9.7 7.8 9.7 7.8-3.8 7.8-9.7ZM227.8 584.3h-4.2v-25.8h4.1v6.2h-1.2c1.7-4.6 4.8-6.7 8.8-6.7 5.2 0 9.5 3.4 9.5 10.3v16h-4.2v-15.7c0-4.5-2.2-6.7-6.1-6.7s-6.8 2.2-6.8 7.4v15h.1ZM248.7 576.6h4.1c.3 3.1 2.4 4.7 6 4.7s5.8-1.7 5.8-4c0-2-1.6-3.1-3.9-3.6l-4.2-1c-4.8-1.1-7.3-3.6-7.3-7.3 0-4.4 3.8-7.5 9.4-7.5s9.4 3.2 9.5 8.3H264c0-2.7-2.2-4.7-5.5-4.7s-5.2 1.8-5.2 4c0 2 1.5 3.1 4 3.7l4.2 1c4.9 1.2 7.2 3.4 7.2 7.2 0 4.8-4.2 7.6-9.9 7.6-5.4-.1-9.7-2.8-10.1-8.4ZM271.4 571.4c0-7.8 4.8-13.5 11.7-13.5s11.7 5.5 11.7 13.5v1.1h-21.2v-3.6h18.9l-1.8 1.2c0-5.2-3-8.6-7.6-8.6s-7.6 3.4-7.6 8.6v1.8c0 5.3 2.8 9.1 7.9 9.1 3.7 0 6.1-1.9 6.8-4.5h4.2c-1 4.9-5.4 8.3-11 8.3-7.6.1-12-5.6-12-13.4ZM297.2 571.4c0-7.9 4.8-13.5 12-13.5 5.9 0 10.2 3.8 10.9 9h-4.2c-.6-3-2.9-5.2-6.7-5.2-4.9 0-7.8 3.9-7.8 9.8s2.9 9.7 7.8 9.7c3.9 0 5.8-2.1 6.6-5.2h4.3c-.7 5.1-5.1 9-10.9 9-7.2-.1-12-5.7-12-13.6ZM334.9 562.1h-14v-3.6h14v3.6Zm-5.2-10.6v26.6c0 2 .7 2.7 2.8 2.7h2.4v3.6h-2.8c-4.4 0-6.6-1.9-6.6-5.8v-27h4.2v-.1ZM336.9 571.4c0-7.8 4.8-13.5 11.7-13.5s11.7 5.5 11.7 13.5v1.1h-21.2v-3.6H358l-1.8 1.2c0-5.2-3-8.6-7.6-8.6s-7.6 3.4-7.6 8.6v1.8c0 5.3 2.8 9.1 7.9 9.1 3.7 0 6.1-1.9 6.8-4.5h4.2c-1 4.9-5.4 8.3-11 8.3-7.6.1-12-5.6-12-13.4ZM375.3 562.1h-14v-3.6h14v3.6Zm-5.3-10.6v26.6c0 2 .7 2.7 2.8 2.7h2.4v3.6h-2.8c-4.4 0-6.6-1.9-6.6-5.8v-27h4.2v-.1ZM378.6 574.5v-16h4.2v15.7c0 4.5 2.2 6.7 6.1 6.7s6.8-2.2 6.8-7.4v-15.1h4.2v25.8h-4.1V578h1.2c-1.7 4.6-4.8 6.7-8.8 6.7-5.4.1-9.6-3.3-9.6-10.2ZM404.9 558.5h4v4.1h.1c1-2.7 3-4.4 6.2-4.4.8 0 1.4.1 1.8.1v4.2c-.3-.1-1.3-.3-2.5-.3-2.9 0-5.3 1.9-5.3 6.3v15.9h-4.3v-25.9ZM430.4 576.9c0-5.9 5.1-7 10.3-7.7 4.9-.7 6.5-.5 6.5-2.4v-.2c0-2.8-2.1-4.8-5.7-4.8s-6.1 2-6.3 4.5h-4.3c.2-4.7 4.4-8.2 10.5-8.2s9.8 3.4 9.8 8.5v17.8h-4.1v-3.7h-.1c-1 1.9-3 4.1-7.7 4.1-5-.1-8.9-2.8-8.9-7.9Zm16.7-2.4v-3.2c-.6.6-3.7 1-6.7 1.5-3 .4-5.8 1.4-5.8 4.3 0 2.4 2 3.9 5.3 3.9 5.1 0 7.2-3.1 7.2-6.5ZM455.1 571.4c0-8 4.5-13.4 11.2-13.4 3.3 0 6.4 1.4 8.1 4.3v-14.4h4.2v36.4h-4.1v-3.9c-1.9 3-4.8 4.4-8.2 4.4-6.8 0-11.2-5.5-11.2-13.4Zm19.6 0c0-5.8-3-9.7-7.8-9.7-4.5 0-7.6 3.3-7.6 9.7s3.1 9.6 7.6 9.6c4.8 0 7.8-3.8 7.8-9.6ZM482.9 550.6c0-1.6 1.3-2.8 2.8-2.8s2.8 1.3 2.8 2.8-1.3 2.8-2.8 2.8-2.8-1.2-2.8-2.8Zm.8 7.9h4.2v25.8h-4.2v-25.8ZM493 558.5h4.1v3.8c1.7-2.9 4.8-4.3 8.2-4.3 6.7 0 11.2 5.4 11.2 13.4s-4.5 13.4-11.2 13.4c-3.3 0-6.2-1.4-8.1-4.4v14.1H493v-36Zm19.2 12.9c0-6.3-3.1-9.7-7.6-9.7-4.8 0-7.8 3.8-7.8 9.7s3 9.6 7.8 9.6c4.5 0 7.6-3.3 7.6-9.6ZM519.5 550.6c0-1.6 1.3-2.8 2.8-2.8s2.8 1.3 2.8 2.8-1.3 2.8-2.8 2.8-2.8-1.2-2.8-2.8Zm.7 7.9h4.2v25.8h-4.2v-25.8ZM528.3 576.6h4.1c.3 3.1 2.4 4.7 6 4.7s5.8-1.7 5.8-4c0-2-1.6-3.1-3.9-3.6l-4.2-1c-4.8-1.1-7.3-3.6-7.3-7.3 0-4.4 3.8-7.5 9.4-7.5s9.4 3.2 9.5 8.3h-4.1c0-2.7-2.2-4.7-5.5-4.7s-5.2 1.8-5.2 4c0 2 1.5 3.1 4 3.7l4.2 1c4.9 1.2 7.2 3.4 7.2 7.2 0 4.8-4.2 7.6-9.9 7.6-5.4-.1-9.7-2.8-10.1-8.4ZM551 571.4c0-7.9 4.8-13.5 12-13.5 5.9 0 10.2 3.8 10.9 9h-4.2c-.6-3-2.9-5.2-6.7-5.2-4.9 0-7.8 3.9-7.8 9.8s2.9 9.7 7.8 9.7c3.9 0 5.8-2.1 6.6-5.2h4.3c-.7 5.1-5.1 9-10.9 9-7.2-.1-12-5.7-12-13.6ZM576.7 550.6c0-1.6 1.3-2.8 2.8-2.8s2.8 1.3 2.8 2.8-1.3 2.8-2.8 2.8-2.8-1.2-2.8-2.8Zm.7 7.9h4.2v25.8h-4.2v-25.8ZM590.9 584.3h-4.2v-25.8h4.1v6.2h-1.2c1.7-4.6 4.8-6.7 8.8-6.7 5.2 0 9.5 3.4 9.5 10.3v16h-4.2v-15.7c0-4.5-2.2-6.7-6.1-6.7s-6.8 2.2-6.8 7.4v15h.1ZM613 587h4.2c.7 2.8 3.3 4.2 6.6 4.2 4.5 0 7.2-2.5 7.2-6.9v-3.9c-1.9 3-4.7 4.4-8.1 4.4-6.7 0-11.2-5.4-11.2-13.4s4.5-13.4 11.2-13.4c3.3 0 6.4 1.3 8.2 4.5v-4h4.1v25.8c0 7.6-5.3 10.5-11.3 10.5-5.8 0-10.2-2.7-10.9-7.8Zm18.4-15.6c0-5.8-3-9.7-7.8-9.7-4.5 0-7.6 3.3-7.6 9.7s3.1 9.6 7.6 9.6c4.8 0 7.8-3.8 7.8-9.6ZM5.8 733.8h1.8v13h7v1.6H5.8v-14.6ZM15.8 743.2c0-3.2 1.9-5.4 4.8-5.4s4.8 2.2 4.8 5.4-1.9 5.4-4.8 5.4-4.8-2.3-4.8-5.4Zm7.9 0c0-2.4-1.2-3.9-3.1-3.9s-3.1 1.5-3.1 3.9 1.2 3.9 3.1 3.9 3.1-1.6 3.1-3.9ZM27.3 738h1.6v1.6c.4-1.1 1.2-1.8 2.5-1.8.3 0 .6 0 .7.1v1.7c-.1 0-.5-.1-1-.1-1.1 0-2.1.8-2.1 2.5v6.3h-1.7V738ZM33.2 743.2c0-3.1 1.9-5.4 4.7-5.4s4.7 2.2 4.7 5.4v.5h-8.5v-1.4h7.5l-.7.5c0-2.1-1.2-3.5-3-3.5s-3 1.4-3 3.5v.7c0 2.1 1.1 3.6 3.1 3.6 1.5 0 2.4-.7 2.7-1.8h1.7c-.4 2-2.1 3.3-4.4 3.3-3 0-4.8-2.3-4.8-5.4ZM44.5 738h1.6v2.1h-.2c.6-1.5 1.9-2.3 3.3-2.3 1.6 0 2.8 1.1 3.1 2.3h-.4c.4-1.3 1.7-2.3 3.4-2.3 1.9 0 3.4 1.2 3.4 3.8v6.8H57v-6.8c0-1.6-1.1-2.2-2.2-2.2-1.5 0-2.4 1-2.4 2.4v6.6h-1.7v-6.9c0-1.2-.9-2.1-2.2-2.1s-2.5.9-2.5 2.7v6.3h-1.7V738h.2ZM65.9 734.9c0-.6.5-1.1 1.1-1.1s1.1.5 1.1 1.1-.5 1.1-1.1 1.1-1.1-.5-1.1-1.1Zm.3 3.1h1.7v10.3h-1.7V738ZM70.4 738H72v1.5c.7-1.2 1.9-1.7 3.3-1.7 2.7 0 4.5 2.2 4.5 5.4s-1.8 5.4-4.5 5.4c-1.3 0-2.5-.6-3.2-1.8v5.6h-1.7V738Zm7.6 5.2c0-2.5-1.3-3.9-3-3.9-1.9 0-3.1 1.5-3.1 3.9s1.2 3.9 3.1 3.9c1.8-.1 3-1.4 3-3.9ZM81.2 745.2h1.6c.1 1.2 1 1.9 2.4 1.9s2.3-.7 2.3-1.6c0-.8-.6-1.2-1.6-1.4l-1.7-.4c-1.9-.4-2.9-1.4-2.9-2.9 0-1.8 1.5-3 3.7-3s3.8 1.3 3.8 3.3h-1.6c0-1.1-.9-1.9-2.2-1.9s-2.1.7-2.1 1.6c0 .8.6 1.2 1.6 1.5l1.7.4c2 .5 2.9 1.4 2.9 2.9 0 1.9-1.7 3-3.9 3s-3.9-1.1-4-3.4ZM91.2 744.4V738h1.7v6.3c0 1.8.9 2.7 2.4 2.7s2.7-.9 2.7-2.9v-6h1.7v10.3h-1.6v-2.5h.5c-.7 1.9-1.9 2.7-3.5 2.7-2.2-.1-3.9-1.4-3.9-4.2ZM102.1 738h1.6v2.1h-.2c.6-1.5 1.9-2.3 3.3-2.3 1.6 0 2.8 1.1 3.1 2.3h-.3c.4-1.3 1.7-2.3 3.4-2.3 1.9 0 3.4 1.2 3.4 3.8v6.8h-1.7v-6.8c0-1.6-1.1-2.2-2.2-2.2-1.5 0-2.4 1-2.4 2.4v6.6h-1.7v-6.9c0-1.2-.9-2.1-2.2-2.1s-2.5.9-2.5 2.7v6.3H102V738h.1ZM123.3 743.2c0-3.2 1.8-5.4 4.5-5.4 1.3 0 2.6.6 3.2 1.7v-5.8h1.7v14.6h-1.6v-1.6c-.7 1.2-1.9 1.8-3.3 1.8-2.7 0-4.5-2.2-4.5-5.3Zm7.9 0c0-2.3-1.2-3.9-3.1-3.9-1.8 0-3 1.3-3 3.9s1.3 3.9 3 3.9c1.9-.1 3.1-1.6 3.1-3.9ZM134.6 743.2c0-3.2 1.9-5.4 4.8-5.4s4.8 2.2 4.8 5.4-1.9 5.4-4.8 5.4-4.8-2.3-4.8-5.4Zm7.9 0c0-2.4-1.2-3.9-3.1-3.9s-3.1 1.5-3.1 3.9 1.2 3.9 3.1 3.9 3.1-1.6 3.1-3.9ZM146.2 746v-12.2h1.7v12.1c0 .9.2 1.1 1.1 1.1h.4v1.4h-.5c-2-.1-2.7-.7-2.7-2.4ZM150.2 743.2c0-3.2 1.9-5.4 4.8-5.4s4.8 2.2 4.8 5.4-1.9 5.4-4.8 5.4-4.8-2.3-4.8-5.4Zm7.9 0c0-2.4-1.2-3.9-3.1-3.9s-3.1 1.5-3.1 3.9 1.2 3.9 3.1 3.9 3.1-1.6 3.1-3.9ZM161.7 738h1.6v1.6c.4-1.1 1.2-1.8 2.5-1.8.3 0 .6 0 .7.1v1.7c-.1 0-.5-.1-1-.1-1.1 0-2.1.8-2.1 2.5v6.3h-1.7V738ZM172.7 745.2h1.6c.1 1.2 1 1.9 2.4 1.9s2.3-.7 2.3-1.6c0-.8-.6-1.2-1.6-1.4l-1.7-.4c-1.9-.4-2.9-1.4-2.9-2.9 0-1.8 1.5-3 3.7-3s3.8 1.3 3.8 3.3h-1.6c0-1.1-.9-1.9-2.2-1.9s-2.1.7-2.1 1.6c0 .8.6 1.2 1.6 1.5l1.7.4c2 .5 2.9 1.4 2.9 2.9 0 1.9-1.7 3-3.9 3-2.1 0-3.9-1.1-4-3.4ZM182.4 734.9c0-.6.5-1.1 1.1-1.1s1.1.5 1.1 1.1-.5 1.1-1.1 1.1-1.1-.5-1.1-1.1Zm.3 3.1h1.7v10.3h-1.7V738ZM191.3 739.4h-5.6V738h5.6v1.4Zm-2.1-4.2v10.6c0 .8.3 1.1 1.1 1.1h1v1.4h-1.1c-1.8 0-2.6-.8-2.6-2.3v-10.8h1.6ZM197.5 745.4c0-2.4 2-2.8 4.1-3.1 2-.3 2.6-.2 2.6-1v-.1c0-1.1-.8-1.9-2.3-1.9-1.4 0-2.4.8-2.5 1.8h-1.7c.1-1.9 1.8-3.3 4.2-3.3s3.9 1.4 3.9 3.4v7.1h-1.6v-1.4c-.4.7-1.2 1.6-3.1 1.6-2 0-3.6-1.1-3.6-3.1Zm6.7-1v-1.3c-.3.2-1.5.4-2.7.6-1.2.2-2.3.6-2.3 1.7 0 1 .8 1.5 2.1 1.5 2.1.1 2.9-1.1 2.9-2.5ZM208.3 738h1.6v2.1h-.2c.6-1.5 1.9-2.3 3.3-2.3 1.6 0 2.8 1.1 3.1 2.3h-.3c.4-1.3 1.7-2.3 3.4-2.3 1.9 0 3.4 1.2 3.4 3.8v6.8h-1.7v-6.8c0-1.6-1.1-2.2-2.2-2.2-1.5 0-2.4 1-2.4 2.4v6.6h-1.7v-6.9c0-1.2-.9-2.1-2.2-2.1s-2.5.9-2.5 2.7v6.3h-1.7V738h.1ZM224.6 743.2c0-3.1 1.9-5.4 4.7-5.4s4.7 2.2 4.7 5.4v.5h-8.5v-1.4h7.5l-.7.5c0-2.1-1.2-3.5-3-3.5s-3 1.4-3 3.5v.7c0 2.1 1.1 3.6 3.1 3.6 1.5 0 2.4-.7 2.7-1.8h1.7c-.4 2-2.1 3.3-4.4 3.3-3 0-4.8-2.3-4.8-5.4ZM235.8 738h1.6v1.6c.4-1.1 1.2-1.8 2.5-1.8.3 0 .6 0 .7.1v1.7c-.1 0-.5-.1-1-.1-1.1 0-2.1.8-2.1 2.5v6.3h-1.7V738ZM242.5 746.3h1.8l-1.4 4.8h-1.2l.8-4.8ZM251.2 743.2c0-3.2 1.9-5.4 4.8-5.4 2.3 0 4.1 1.5 4.3 3.6h-1.7c-.2-1.2-1.1-2.1-2.7-2.1-1.9 0-3.1 1.5-3.1 3.9s1.2 3.9 3.1 3.9c1.5 0 2.3-.8 2.6-2.1h1.7c-.3 2-2 3.6-4.3 3.6-2.8 0-4.7-2.3-4.7-5.4ZM261.6 743.2c0-3.2 1.9-5.4 4.8-5.4s4.8 2.2 4.8 5.4-1.9 5.4-4.8 5.4-4.8-2.3-4.8-5.4Zm7.9 0c0-2.4-1.2-3.9-3.1-3.9s-3.1 1.5-3.1 3.9 1.2 3.9 3.1 3.9 3.1-1.6 3.1-3.9ZM274.8 748.3h-1.7V738h1.6v2.5h-.5c.7-1.9 1.9-2.7 3.5-2.7 2.1 0 3.8 1.4 3.8 4.1v6.4h-1.6V742c0-1.8-.9-2.7-2.4-2.7s-2.7.9-2.7 2.9v6.1ZM283.6 745.2h1.6c.1 1.2 1 1.9 2.4 1.9s2.3-.7 2.3-1.6c0-.8-.6-1.2-1.6-1.4l-1.7-.4c-1.9-.4-2.9-1.4-2.9-2.9 0-1.8 1.5-3 3.7-3s3.8 1.3 3.8 3.3h-1.6c0-1.1-.9-1.9-2.2-1.9s-2.1.7-2.1 1.6c0 .8.6 1.2 1.6 1.5l1.7.4c2 .5 2.9 1.4 2.9 2.9 0 1.9-1.7 3-3.9 3s-3.9-1.1-4-3.4ZM293 743.2c0-3.1 1.9-5.4 4.7-5.4s4.7 2.2 4.7 5.4v.5h-8.5v-1.4h7.5l-.7.5c0-2.1-1.2-3.5-3-3.5s-3 1.4-3 3.5v.7c0 2.1 1.1 3.6 3.1 3.6 1.5 0 2.4-.7 2.7-1.8h1.7c-.4 2-2.1 3.3-4.4 3.3-3 0-4.8-2.3-4.8-5.4ZM303.8 743.2c0-3.2 1.9-5.4 4.8-5.4 2.3 0 4.1 1.5 4.3 3.6h-1.7c-.2-1.2-1.1-2.1-2.7-2.1-1.9 0-3.1 1.5-3.1 3.9s1.2 3.9 3.1 3.9c1.5 0 2.3-.8 2.6-2.1h1.7c-.3 2-2 3.6-4.3 3.6-2.8 0-4.7-2.3-4.7-5.4ZM319.2 739.4h-5.6V738h5.6v1.4Zm-2.1-4.2v10.6c0 .8.3 1.1 1.1 1.1h1v1.4h-1.1c-1.8 0-2.6-.8-2.6-2.3v-10.8h1.6ZM325 738h1.8l2.2 5.9c.4 1 .7 2 1 3h-.4c.3-1 .7-2 1-3l2.2-5.9h1.8l-4 10.3h-1.7L325 738ZM335.7 743.2c0-3.1 1.9-5.4 4.7-5.4s4.7 2.2 4.7 5.4v.5h-8.5v-1.4h7.5l-.7.5c0-2.1-1.2-3.5-3-3.5s-3 1.4-3 3.5v.7c0 2.1 1.1 3.6 3.1 3.6 1.5 0 2.4-.7 2.7-1.8h1.7c-.4 2-2.1 3.3-4.4 3.3-3.1 0-4.8-2.3-4.8-5.4ZM346.4 743.2c0-3.2 1.8-5.4 4.5-5.4 1.3 0 2.6.6 3.2 1.7v-5.8h1.7v14.6h-1.6v-1.6c-.7 1.2-1.9 1.8-3.3 1.8-2.7 0-4.5-2.2-4.5-5.3Zm7.8 0c0-2.3-1.2-3.9-3.1-3.9-1.8 0-3 1.3-3 3.9s1.3 3.9 3 3.9c1.9-.1 3.1-1.6 3.1-3.9ZM358.2 738h1.6v1.6c.4-1.1 1.2-1.8 2.5-1.8.3 0 .6 0 .7.1v1.7c-.1 0-.5-.1-1-.1-1.1 0-2.1.8-2.1 2.5v6.3h-1.7V738ZM364.4 734.9c0-.6.5-1.1 1.1-1.1s1.1.5 1.1 1.1-.5 1.1-1.1 1.1-1.1-.5-1.1-1.1Zm.3 3.1h1.7v10.3h-1.7V738ZM368.3 745.4c0-2.4 2-2.8 4.1-3.1 2-.3 2.6-.2 2.6-1v-.1c0-1.1-.8-1.9-2.3-1.9-1.4 0-2.4.8-2.5 1.8h-1.7c.1-1.9 1.8-3.3 4.2-3.3s3.9 1.4 3.9 3.4v7.1H375v-1.4c-.4.7-1.2 1.6-3.1 1.6-2 0-3.6-1.1-3.6-3.1Zm6.7-1v-1.3c-.3.2-1.5.4-2.7.6-1.2.2-2.3.6-2.3 1.7 0 1 .8 1.5 2.1 1.5 2.1.1 2.9-1.1 2.9-2.5ZM380.8 748.3h-1.7V738h1.6v2.5h-.5c.7-1.9 1.9-2.7 3.5-2.7 2.1 0 3.8 1.4 3.8 4.1v6.4h-1.7V742c0-1.8-.9-2.7-2.4-2.7s-2.7.9-2.7 2.9v6.1h.1ZM394.6 743.2c0-3.2 1.9-5.4 4.8-5.4 2.3 0 4.1 1.5 4.3 3.6H402c-.2-1.2-1.1-2.1-2.7-2.1-1.9 0-3.1 1.5-3.1 3.9s1.2 3.9 3.1 3.9c1.5 0 2.3-.8 2.6-2.1h1.7c-.3 2-2 3.6-4.3 3.6-2.8 0-4.7-2.3-4.7-5.4ZM405 743.2c0-3.2 1.9-5.4 4.8-5.4s4.8 2.2 4.8 5.4-1.9 5.4-4.8 5.4-4.8-2.3-4.8-5.4Zm7.9 0c0-2.4-1.2-3.9-3.1-3.9s-3.1 1.5-3.1 3.9 1.2 3.9 3.1 3.9 3.1-1.6 3.1-3.9ZM418.2 748.3h-1.7V738h1.6v2.5h-.5c.7-1.9 1.9-2.7 3.5-2.7 2.1 0 3.8 1.4 3.8 4.1v6.4h-1.7V742c0-1.8-.9-2.7-2.4-2.7s-2.7.9-2.7 2.9v6.1h.1ZM427 745.2h1.6c.1 1.2 1 1.9 2.4 1.9s2.3-.7 2.3-1.6c0-.8-.6-1.2-1.6-1.4l-1.7-.4c-1.9-.4-2.9-1.4-2.9-2.9 0-1.8 1.5-3 3.7-3s3.8 1.3 3.8 3.3H433c0-1.1-.9-1.9-2.2-1.9s-2.1.7-2.1 1.6c0 .8.6 1.2 1.6 1.5l1.7.4c2 .5 2.9 1.4 2.9 2.9 0 1.9-1.7 3-3.9 3s-3.9-1.1-4-3.4ZM436.4 743.2c0-3.1 1.9-5.4 4.7-5.4s4.7 2.2 4.7 5.4v.5h-8.5v-1.4h7.5l-.7.5c0-2.1-1.2-3.5-3-3.5s-3 1.4-3 3.5v.7c0 2.1 1.1 3.6 3.1 3.6 1.5 0 2.4-.7 2.7-1.8h1.7c-.4 2-2.1 3.3-4.4 3.3-3 0-4.8-2.3-4.8-5.4ZM447.1 743.2c0-3.2 1.9-5.4 4.8-5.4 2.3 0 4.1 1.5 4.3 3.6h-1.7c-.2-1.2-1.1-2.1-2.7-2.1-1.9 0-3.1 1.5-3.1 3.9s1.2 3.9 3.1 3.9c1.5 0 2.3-.8 2.6-2.1h1.7c-.3 2-2 3.6-4.3 3.6-2.7 0-4.7-2.3-4.7-5.4ZM462.6 739.4H457V738h5.6v1.4Zm-2.1-4.2v10.6c0 .8.3 1.1 1.1 1.1h1v1.4h-1.1c-1.8 0-2.6-.8-2.6-2.3v-10.8h1.6ZM463.8 743.2c0-3.1 1.9-5.4 4.7-5.4s4.7 2.2 4.7 5.4v.5h-8.5v-1.4h7.5l-.7.5c0-2.1-1.2-3.5-3-3.5s-3 1.4-3 3.5v.7c0 2.1 1.1 3.6 3.1 3.6 1.5 0 2.4-.7 2.7-1.8h1.7c-.4 2-2.1 3.3-4.4 3.3-3 0-4.8-2.3-4.8-5.4ZM479.6 739.4H474V738h5.6v1.4Zm-2.1-4.2v10.6c0 .8.3 1.1 1.1 1.1h1v1.4h-1.1c-1.8 0-2.6-.8-2.6-2.3v-10.8h1.6ZM481.3 744.4V738h1.7v6.3c0 1.8.9 2.7 2.4 2.7s2.7-.9 2.7-2.9v-6h1.7v10.3h-1.6v-2.5h.5c-.7 1.9-1.9 2.7-3.5 2.7-2.2-.1-3.9-1.4-3.9-4.2ZM492.2 738h1.6v1.6c.4-1.1 1.2-1.8 2.5-1.8.3 0 .6 0 .7.1v1.7c-.1 0-.5-.1-1-.1-1.1 0-2.1.8-2.1 2.5v6.3h-1.7V738ZM503.2 745.4c0-2.4 2-2.8 4.1-3.1 2-.3 2.6-.2 2.6-1v-.1c0-1.1-.8-1.9-2.3-1.9-1.4 0-2.4.8-2.5 1.8h-1.7c.1-1.9 1.8-3.3 4.2-3.3s3.9 1.4 3.9 3.4v7.1h-1.6v-1.4c-.4.7-1.2 1.6-3.1 1.6-2 0-3.6-1.1-3.6-3.1Zm6.7-1v-1.3c-.3.2-1.5.4-2.7.6-1.2.2-2.3.6-2.3 1.7 0 1 .8 1.5 2.1 1.5 2.1.1 2.9-1.1 2.9-2.5ZM513.5 743.2c0-3.2 1.8-5.4 4.5-5.4 1.3 0 2.6.6 3.2 1.7v-5.8h1.7v14.6h-1.6v-1.6c-.7 1.2-1.9 1.8-3.3 1.8-2.7 0-4.5-2.2-4.5-5.3Zm7.8 0c0-2.3-1.2-3.9-3.1-3.9-1.8 0-3 1.3-3 3.9s1.3 3.9 3 3.9c1.9-.1 3.1-1.6 3.1-3.9ZM525 734.9c0-.6.5-1.1 1.1-1.1s1.1.5 1.1 1.1-.5 1.1-1.1 1.1-1.1-.5-1.1-1.1Zm.3 3.1h1.7v10.3h-1.7V738ZM529.5 738h1.6v1.5c.7-1.2 1.9-1.7 3.3-1.7 2.7 0 4.5 2.2 4.5 5.4s-1.8 5.4-4.5 5.4c-1.3 0-2.5-.6-3.2-1.8v5.6h-1.7V738Zm7.6 5.2c0-2.5-1.3-3.9-3-3.9-1.9 0-3.1 1.5-3.1 3.9s1.2 3.9 3.1 3.9c1.8-.1 3-1.4 3-3.9ZM540.5 734.9c0-.6.5-1.1 1.1-1.1s1.1.5 1.1 1.1-.5 1.1-1.1 1.1-1.1-.5-1.1-1.1Zm.3 3.1h1.7v10.3h-1.7V738ZM544.4 745.2h1.6c.1 1.2 1 1.9 2.4 1.9s2.3-.7 2.3-1.6c0-.8-.6-1.2-1.6-1.4l-1.7-.4c-1.9-.4-2.9-1.4-2.9-2.9 0-1.8 1.5-3 3.7-3s3.8 1.3 3.8 3.3h-1.6c0-1.1-.9-1.9-2.2-1.9s-2.1.7-2.1 1.6c0 .8.6 1.2 1.6 1.5l1.7.4c2 .5 2.9 1.4 2.9 2.9 0 1.9-1.7 3-3.9 3-2.1 0-3.9-1.1-4-3.4ZM553.8 743.2c0-3.2 1.9-5.4 4.8-5.4 2.3 0 4.1 1.5 4.3 3.6h-1.7c-.2-1.2-1.1-2.1-2.7-2.1-1.9 0-3.1 1.5-3.1 3.9s1.2 3.9 3.1 3.9c1.5 0 2.3-.8 2.6-2.1h1.7c-.3 2-2 3.6-4.3 3.6-2.7 0-4.7-2.3-4.7-5.4ZM564.5 734.9c0-.6.5-1.1 1.1-1.1s1.1.5 1.1 1.1-.5 1.1-1.1 1.1-1.1-.5-1.1-1.1Zm.3 3.1h1.7v10.3h-1.7V738ZM570.6 748.3h-1.7V738h1.6v2.5h-.5c.7-1.9 1.9-2.7 3.5-2.7 2.1 0 3.8 1.4 3.8 4.1v6.4h-1.7V742c0-1.8-.9-2.7-2.4-2.7s-2.7.9-2.7 2.9v6.1h.1ZM579.9 749.4h1.7c.3 1.1 1.3 1.7 2.6 1.7 1.8 0 2.9-1 2.9-2.8v-1.6c-.8 1.2-1.9 1.8-3.3 1.8-2.7 0-4.5-2.2-4.5-5.4s1.8-5.4 4.5-5.4c1.3 0 2.6.5 3.3 1.8v-1.6h1.6v10.3c0 3-2.1 4.2-4.5 4.2-2.3.1-4.1-.9-4.3-3Zm7.3-6.2c0-2.3-1.2-3.9-3.1-3.9-1.8 0-3 1.3-3 3.9s1.3 3.9 3 3.9c1.9-.1 3.1-1.6 3.1-3.9ZM595.7 743.2c0-3.1 1.9-5.4 4.7-5.4s4.7 2.2 4.7 5.4v.5h-8.5v-1.4h7.5l-.7.5c0-2.1-1.2-3.5-3-3.5s-3 1.4-3 3.5v.7c0 2.1 1.1 3.6 3.1 3.6 1.5 0 2.4-.7 2.7-1.8h1.7c-.4 2-2.1 3.3-4.4 3.3-3.1 0-4.8-2.3-4.8-5.4ZM606.9 746v-12.2h1.7v12.1c0 .9.2 1.1 1.1 1.1h.4v1.4h-.5c-1.9-.1-2.7-.7-2.7-2.4ZM611.2 734.9c0-.6.5-1.1 1.1-1.1s1.1.5 1.1 1.1-.5 1.1-1.1 1.1-1.1-.5-1.1-1.1Zm.3 3.1h1.7v10.3h-1.7V738ZM620.1 739.4h-5.6V738h5.6v1.4Zm-2.1-4.2v10.6c0 .8.3 1.1 1.1 1.1h1v1.4H619c-1.8 0-2.6-.8-2.6-2.3v-10.8h1.6ZM621.6 747.3c0-.7.5-1.2 1.2-1.2s1.2.5 1.2 1.2-.5 1.2-1.2 1.2-1.2-.5-1.2-1.2ZM5.8 760.8h9.5v1.6H7.6v4.8h7.1v1.6H7.6v5.1h7.7v1.6H5.8v-14.7ZM17.2 776.4h1.7c.3 1.1 1.3 1.7 2.6 1.7 1.8 0 2.9-1 2.9-2.8v-1.6c-.8 1.2-1.9 1.8-3.3 1.8-2.7 0-4.5-2.2-4.5-5.4s1.8-5.4 4.5-5.4c1.3 0 2.6.5 3.3 1.8v-1.6H26v10.3c0 3-2.1 4.2-4.5 4.2-2.3.1-4.1-.9-4.3-3Zm7.3-6.2c0-2.3-1.2-3.9-3.1-3.9-1.8 0-3 1.3-3 3.9s1.3 3.9 3 3.9c1.9-.1 3.1-1.6 3.1-3.9ZM28 770.2c0-3.1 1.9-5.4 4.7-5.4s4.7 2.2 4.7 5.4v.5h-8.5v-1.4h7.5l-.7.5c0-2.1-1.2-3.5-3-3.5s-3 1.4-3 3.5v.7c0 2.1 1.1 3.6 3.1 3.6 1.5 0 2.4-.7 2.7-1.8h1.7c-.4 2-2.1 3.3-4.4 3.3-3.1 0-4.8-2.3-4.8-5.4ZM38.7 772.2h1.6c.1 1.2 1 1.9 2.4 1.9s2.3-.7 2.3-1.6c0-.8-.6-1.2-1.6-1.4l-1.7-.4c-1.9-.4-2.9-1.4-2.9-2.9 0-1.8 1.5-3 3.7-3s3.8 1.3 3.8 3.3h-1.4c0-1.1-.9-1.9-2.2-1.9s-2.1.7-2.1 1.6c0 .8.6 1.2 1.6 1.5l1.7.4c2 .5 2.9 1.4 2.9 2.9 0 1.9-1.7 3-3.9 3-2.3 0-4-1.1-4.2-3.4ZM53.2 766.4h-5.6V765h5.6v1.4Zm-2.1-4.2v10.6c0 .8.3 1.1 1.1 1.1h1v1.4h-1.1c-1.8 0-2.6-.8-2.6-2.3v-10.8h1.6ZM54.5 772.4c0-2.4 2-2.8 4.1-3.1 2-.3 2.6-.2 2.6-1v-.1c0-1.1-.8-1.9-2.3-1.9-1.4 0-2.4.8-2.5 1.8h-1.7c.1-1.9 1.8-3.3 4.2-3.3s3.9 1.4 3.9 3.4v7.1h-1.6v-1.4c-.4.7-1.2 1.6-3.1 1.6-2.1 0-3.6-1.1-3.6-3.1Zm6.7-1v-1.3c-.3.2-1.5.4-2.7.6-1.2.2-2.3.6-2.3 1.7 0 1 .8 1.5 2.1 1.5 2.1.1 2.9-1.1 2.9-2.5ZM64.8 772.2h1.6c.1 1.2 1 1.9 2.4 1.9s2.3-.7 2.3-1.6c0-.8-.6-1.2-1.6-1.4l-1.7-.4c-1.9-.4-2.9-1.4-2.9-2.9 0-1.8 1.5-3 3.7-3s3.8 1.3 3.8 3.3h-1.6c0-1.1-.9-1.9-2.2-1.9s-2.1.7-2.1 1.6c0 .8.6 1.2 1.6 1.5l1.7.4c2 .5 2.9 1.4 2.9 2.9 0 1.9-1.7 3-3.9 3-2.1 0-3.9-1.1-4-3.4ZM79.3 770.2c0-3.2 1.8-5.4 4.5-5.4 1.3 0 2.6.6 3.2 1.7v-5.8h1.7v14.6h-1.6v-1.6c-.7 1.2-1.9 1.8-3.3 1.8-2.8 0-4.5-2.2-4.5-5.3Zm7.8 0c0-2.3-1.2-3.9-3.1-3.9-1.8 0-3 1.3-3 3.9s1.3 3.9 3 3.9c1.9-.1 3.1-1.6 3.1-3.9ZM90.6 770.2c0-3.2 1.9-5.4 4.8-5.4s4.8 2.2 4.8 5.4-1.9 5.4-4.8 5.4-4.8-2.3-4.8-5.4Zm7.9 0c0-2.4-1.2-3.9-3.1-3.9s-3.1 1.5-3.1 3.9 1.2 3.9 3.1 3.9 3.1-1.6 3.1-3.9ZM103.7 775.3H102V765h1.6v2.5h-.5c.7-1.9 1.9-2.7 3.5-2.7 2.1 0 3.8 1.4 3.8 4.1v6.4h-1.5V769c0-1.8-.9-2.7-2.4-2.7s-2.7.9-2.7 2.9v6.1h-.1ZM112.5 770.2c0-3.1 1.9-5.4 4.7-5.4s4.7 2.2 4.7 5.4v.5h-8.5v-1.4h7.5l-.7.5c0-2.1-1.2-3.5-3-3.5s-3 1.4-3 3.5v.7c0 2.1 1.1 3.6 3.1 3.6 1.5 0 2.4-.7 2.7-1.8h1.7c-.4 2-2.1 3.3-4.4 3.3-3.1 0-4.8-2.3-4.8-5.4ZM123.2 770.2c0-3.2 1.9-5.4 4.8-5.4 2.3 0 4.1 1.5 4.3 3.6h-1.7c-.2-1.2-1.1-2.1-2.7-2.1-1.9 0-3.1 1.5-3.1 3.9s1.2 3.9 3.1 3.9c1.5 0 2.3-.8 2.6-2.1h1.7c-.3 2-2 3.6-4.3 3.6-2.8 0-4.7-2.3-4.7-5.4ZM143.7 766.4h-5.6V765h5.6v1.4Zm-2.1-4.2v10.6c0 .8.3 1.1 1.1 1.1h1v1.4h-1.1c-1.8 0-2.6-.8-2.6-2.3v-10.8h1.6ZM145.4 771.4V765h1.7v6.3c0 1.8.9 2.7 2.4 2.7s2.7-.9 2.7-2.9v-6h1.7v10.3h-1.6v-2.5h.5c-.7 1.9-1.9 2.7-3.5 2.7-2.2-.1-3.9-1.4-3.9-4.2ZM156.3 765h1.6v1.6c.4-1.1 1.2-1.8 2.5-1.8.3 0 .6 0 .7.1v1.7c-.1 0-.5-.1-1-.1-1.1 0-2.1.8-2.1 2.5v6.3h-1.7V765ZM162.8 765h1.6v1.5c.7-1.2 1.9-1.7 3.3-1.7 2.7 0 4.5 2.2 4.5 5.4s-1.8 5.4-4.5 5.4c-1.3 0-2.5-.6-3.2-1.8v5.6h-1.7V765Zm7.7 5.2c0-2.5-1.3-3.9-3-3.9-1.9 0-3.1 1.5-3.1 3.9s1.2 3.9 3.1 3.9c1.7-.1 3-1.4 3-3.9ZM173.8 761.9c0-.6.5-1.1 1.1-1.1s1.1.5 1.1 1.1-.5 1.1-1.1 1.1-1.1-.5-1.1-1.1Zm.3 3.1h1.7v10.3h-1.7V765ZM177.7 772.2h1.6c.1 1.2 1 1.9 2.4 1.9s2.3-.7 2.3-1.6c0-.8-.6-1.2-1.6-1.4l-1.7-.4c-1.9-.4-2.9-1.4-2.9-2.9 0-1.8 1.5-3 3.7-3s3.8 1.3 3.8 3.3h-1.4c0-1.1-.9-1.9-2.2-1.9s-2.1.7-2.1 1.6c0 .8.6 1.2 1.6 1.5l1.7.4c2 .5 2.9 1.4 2.9 2.9 0 1.9-1.7 3-3.9 3-2.3 0-4-1.1-4.2-3.4ZM192.2 772.2h1.6c.1 1.2 1 1.9 2.4 1.9s2.3-.7 2.3-1.6c0-.8-.6-1.2-1.6-1.4l-1.7-.4c-1.9-.4-2.9-1.4-2.9-2.9 0-1.8 1.5-3 3.7-3s3.8 1.3 3.8 3.3h-1.6c0-1.1-.9-1.9-2.2-1.9s-2.1.7-2.1 1.6c0 .8.6 1.2 1.6 1.5l1.7.4c2 .5 2.9 1.4 2.9 2.9 0 1.9-1.7 3-3.9 3-2.1 0-3.8-1.1-4-3.4ZM201.7 770.2c0-3.1 1.9-5.4 4.7-5.4s4.7 2.2 4.7 5.4v.5h-8.5v-1.4h7.5l-.7.5c0-2.1-1.2-3.5-3-3.5s-3 1.4-3 3.5v.7c0 2.1 1.1 3.6 3.1 3.6 1.5 0 2.4-.7 2.7-1.8h1.7c-.4 2-2.1 3.3-4.4 3.3-3.1 0-4.8-2.3-4.8-5.4ZM212.4 770.2c0-3.2 1.8-5.4 4.5-5.4 1.3 0 2.6.6 3.2 1.7v-5.8h1.7v14.6h-1.6v-1.6c-.7 1.2-1.9 1.8-3.3 1.8-2.7 0-4.5-2.2-4.5-5.3Zm7.9 0c0-2.3-1.2-3.9-3.1-3.9-1.8 0-3 1.3-3 3.9s1.3 3.9 3 3.9c1.8-.1 3.1-1.6 3.1-3.9ZM233.7 766.4h-5.6V765h5.6v1.4Zm-3.7-3.2c0-1.5 1-2.4 2.7-2.4h1v1.4h-.9c-.9 0-1.2.3-1.2 1.2v11.9h-1.7v-12.1h.1ZM234.9 772.4c0-2.4 2-2.8 4.1-3.1 2-.3 2.6-.2 2.6-1v-.1c0-1.1-.8-1.9-2.3-1.9-1.4 0-2.4.8-2.5 1.8h-1.7c.1-1.9 1.8-3.3 4.2-3.3s3.9 1.4 3.9 3.4v7.1h-1.6v-1.4c-.4.7-1.2 1.6-3.1 1.6-2 0-3.6-1.1-3.6-3.1Zm6.7-1v-1.3c-.3.2-1.5.4-2.7.6-1.2.2-2.3.6-2.3 1.7 0 1 .8 1.5 2.1 1.5 2.1.1 2.9-1.1 2.9-2.5ZM245.2 770.2c0-3.2 1.9-5.4 4.8-5.4 2.3 0 4.1 1.5 4.3 3.6h-1.7c-.2-1.2-1.1-2.1-2.7-2.1-1.9 0-3.1 1.5-3.1 3.9s1.2 3.9 3.1 3.9c1.5 0 2.3-.8 2.6-2.1h1.7c-.3 2-2 3.6-4.3 3.6-2.8 0-4.7-2.3-4.7-5.4ZM255.9 761.9c0-.6.5-1.1 1.1-1.1s1.1.5 1.1 1.1-.5 1.1-1.1 1.1-1.1-.5-1.1-1.1Zm.3 3.1h1.7v10.3h-1.7V765ZM260.3 773v-12.2h1.7v12.1c0 .9.2 1.1 1.1 1.1h.4v1.4h-.5c-2-.1-2.7-.7-2.7-2.4ZM264.6 761.9c0-.6.5-1.1 1.1-1.1s1.1.5 1.1 1.1-.5 1.1-1.1 1.1-1.1-.5-1.1-1.1Zm.3 3.1h1.7v10.3h-1.7V765ZM268.5 772.2h1.6c.1 1.2 1 1.9 2.4 1.9s2.3-.7 2.3-1.6c0-.8-.6-1.2-1.6-1.4l-1.7-.4c-1.9-.4-2.9-1.4-2.9-2.9 0-1.8 1.5-3 3.7-3s3.8 1.3 3.8 3.3h-1.6c0-1.1-.9-1.9-2.2-1.9s-2.1.7-2.1 1.6c0 .8.6 1.2 1.6 1.5l1.7.4c2 .5 2.9 1.4 2.9 2.9 0 1.9-1.7 3-3.9 3-2.1 0-3.8-1.1-4-3.4ZM278.2 761.9c0-.6.5-1.1 1.1-1.1s1.1.5 1.1 1.1-.5 1.1-1.1 1.1-1.1-.5-1.1-1.1Zm.3 3.1h1.7v10.3h-1.7V765ZM282.1 772.2h1.6c.1 1.2 1 1.9 2.4 1.9s2.3-.7 2.3-1.6c0-.8-.6-1.2-1.6-1.4l-1.7-.4c-1.9-.4-2.9-1.4-2.9-2.9 0-1.8 1.5-3 3.7-3s3.8 1.3 3.8 3.3h-1.6c0-1.1-.9-1.9-2.2-1.9s-2.1.7-2.1 1.6c0 .8.6 1.2 1.6 1.5l1.7.4c2 .5 2.9 1.4 2.9 2.9 0 1.9-1.7 3-3.9 3-2.1 0-3.8-1.1-4-3.4ZM291.9 774.3c0-.7.5-1.2 1.2-1.2s1.2.5 1.2 1.2-.5 1.2-1.2 1.2-1.2-.5-1.2-1.2ZM301.7 760.8h2l6 9.5c.4.6 1.2 1.9 1.8 3l-.2.4c0-1-.1-2.9-.1-3.5v-9.4h1.8v14.6h-2l-5.3-8.4c-.4-.7-1.3-2.2-2.5-4.1l.2-.5c.1 2.3.1 3.8.1 4.6v8.4h-1.8v-14.6ZM315.4 761.9c0-.6.5-1.1 1.1-1.1s1.1.5 1.1 1.1-.5 1.1-1.1 1.1-1.1-.5-1.1-1.1Zm.3 3.1h1.7v10.3h-1.7V765ZM321.5 773.8v1.6h-1.6v-14.6h1.7v5.8c.7-1.2 1.9-1.7 3.2-1.7 2.7 0 4.5 2.2 4.5 5.4s-1.8 5.4-4.5 5.4c-1.4-.2-2.6-.7-3.3-1.9Zm6-3.6c0-2.5-1.3-3.9-3-3.9-1.9 0-3.1 1.5-3.1 3.9s1.2 3.9 3.1 3.9c1.8-.1 3-1.4 3-3.9ZM332.8 775.3h-1.7v-14.6h1.7v6.7h-.5c.7-1.9 1.9-2.7 3.5-2.7 2.1 0 3.8 1.4 3.8 4.1v6.4h-1.7v-6.3c0-1.8-.9-2.7-2.4-2.7s-2.7.9-2.7 2.9v6.2ZM346.5 770.2c0-3.1 1.9-5.4 4.7-5.4s4.7 2.2 4.7 5.4v.5h-8.5v-1.4h7.5l-.7.5c0-2.1-1.2-3.5-3-3.5s-3 1.4-3 3.5v.7c0 2.1 1.1 3.6 3.1 3.6 1.5 0 2.4-.7 2.7-1.8h1.7c-.4 2-2.1 3.3-4.4 3.3-3 0-4.8-2.3-4.8-5.4ZM357.8 771.4V765h1.7v6.3c0 1.8.9 2.7 2.4 2.7s2.7-.9 2.7-2.9v-6h1.7v10.3h-1.6v-2.5h.5c-.7 1.9-1.9 2.7-3.5 2.7-2.2-.1-3.9-1.4-3.9-4.2ZM372.8 765h1.8l2.2 5.9c.4 1 .7 2 1 3h-.4c.3-1 .7-2 1-3l2.2-5.9h1.8l-4 10.3h-1.7l-3.9-10.3ZM383.7 761.9c0-.6.5-1.1 1.1-1.1s1.1.5 1.1 1.1-.5 1.1-1.1 1.1-1.1-.5-1.1-1.1Zm.3 3.1h1.7v10.3H384V765ZM387.1 765h1.8l2.2 5.9c.4 1 .7 2 1 3h-.4c.3-1 .7-2 1-3l2.2-5.9h1.8l-4 10.3H391l-3.9-10.3ZM397.9 772.4c0-2.4 2-2.8 4.1-3.1 2-.3 2.6-.2 2.6-1v-.1c0-1.1-.8-1.9-2.3-1.9-1.4 0-2.4.8-2.5 1.8h-1.7c.1-1.9 1.8-3.3 4.2-3.3s3.9 1.4 3.9 3.4v7.1h-1.6v-1.4c-.4.7-1.2 1.6-3.1 1.6-2.1 0-3.6-1.1-3.6-3.1Zm6.7-1v-1.3c-.3.2-1.5.4-2.7.6-1.2.2-2.3.6-2.3 1.7 0 1 .8 1.5 2.1 1.5 2 .1 2.9-1.1 2.9-2.5ZM408.7 765h1.6v2.1h-.2c.6-1.5 1.9-2.3 3.3-2.3 1.6 0 2.8 1.1 3.1 2.3h-.3c.4-1.3 1.7-2.3 3.4-2.3 1.9 0 3.4 1.2 3.4 3.8v6.8h-1.7v-6.8c0-1.6-1.1-2.2-2.2-2.2-1.5 0-2.4 1-2.4 2.4v6.6H415v-6.9c0-1.2-.9-2.1-2.2-2.1s-2.5.9-2.5 2.7v6.3h-1.7V765h.1ZM425.4 771.4V765h1.7v6.3c0 1.8.9 2.7 2.4 2.7s2.7-.9 2.7-2.9v-6h1.7v10.3h-1.6v-2.5h.5c-.7 1.9-1.9 2.7-3.5 2.7-2.1-.1-3.9-1.4-3.9-4.2ZM435.9 772.2h1.6c.1 1.2 1 1.9 2.4 1.9s2.3-.7 2.3-1.6c0-.8-.6-1.2-1.6-1.4l-1.7-.4c-1.9-.4-2.9-1.4-2.9-2.9 0-1.8 1.5-3 3.7-3s3.8 1.3 3.8 3.3h-1.6c0-1.1-.9-1.9-2.2-1.9s-2.1.7-2.1 1.6c0 .8.6 1.2 1.6 1.5l1.7.4c2 .5 2.9 1.4 2.9 2.9 0 1.9-1.7 3-3.9 3-2.1 0-3.9-1.1-4-3.4ZM450.6 761.9c0-.6.5-1.1 1.1-1.1s1.1.5 1.1 1.1-.5 1.1-1.1 1.1-1.1-.5-1.1-1.1Zm.3 3.1h1.7v10.3h-1.7V765ZM456.7 775.3H455V765h1.6v2.5h-.5c.7-1.9 1.9-2.7 3.5-2.7 2.1 0 3.8 1.4 3.8 4.1v6.4h-1.7V769c0-1.8-.9-2.7-2.4-2.7s-2.7.9-2.7 2.9v6.1h.1ZM470.4 772.2h1.6c.1 1.2 1 1.9 2.4 1.9s2.3-.7 2.3-1.6c0-.8-.6-1.2-1.6-1.4l-1.7-.4c-1.9-.4-2.9-1.4-2.9-2.9 0-1.8 1.5-3 3.7-3s3.8 1.3 3.8 3.3h-1.6c0-1.1-.9-1.9-2.2-1.9s-2.1.7-2.1 1.6c0 .8.6 1.2 1.6 1.5l1.7.4c2 .5 2.9 1.4 2.9 2.9 0 1.9-1.7 3-3.9 3-2.1 0-3.8-1.1-4-3.4ZM479.9 770.2c0-3.2 1.9-5.4 4.8-5.4 2.3 0 4.1 1.5 4.3 3.6h-1.7c-.2-1.2-1.1-2.1-2.7-2.1-1.9 0-3.1 1.5-3.1 3.9s1.2 3.9 3.1 3.9c1.5 0 2.3-.8 2.6-2.1h1.7c-.3 2-2 3.6-4.3 3.6-2.8 0-4.7-2.3-4.7-5.4ZM490.4 770.2c0-3.1 1.9-5.4 4.7-5.4s4.7 2.2 4.7 5.4v.5h-8.5v-1.4h7.5l-.7.5c0-2.1-1.2-3.5-3-3.5s-3 1.4-3 3.5v.7c0 2.1 1.1 3.6 3.1 3.6 1.5 0 2.4-.7 2.7-1.8h1.7c-.4 2-2.1 3.3-4.4 3.3-3.1 0-4.8-2.3-4.8-5.4ZM501.6 773v-12.2h1.7v12.1c0 .9.2 1.1 1.1 1.1h.4v1.4h-.5c-2-.1-2.7-.7-2.7-2.4ZM505.7 770.2c0-3.1 1.9-5.4 4.7-5.4s4.7 2.2 4.7 5.4v.5h-8.5v-1.4h7.5l-.7.5c0-2.1-1.2-3.5-3-3.5s-3 1.4-3 3.5v.7c0 2.1 1.1 3.6 3.1 3.6 1.5 0 2.4-.7 2.7-1.8h1.7c-.4 2-2.1 3.3-4.4 3.3-3.1 0-4.8-2.3-4.8-5.4ZM516.9 765h1.6v1.6c.4-1.1 1.2-1.8 2.5-1.8.3 0 .6 0 .7.1v1.7c-.1 0-.5-.1-1-.1-1.1 0-2.1.8-2.1 2.5v6.3h-1.7V765ZM523.1 761.9c0-.6.5-1.1 1.1-1.1s1.1.5 1.1 1.1-.5 1.1-1.1 1.1-1.1-.5-1.1-1.1Zm.3 3.1h1.7v10.3h-1.7V765ZM527 772.2h1.6c.1 1.2 1 1.9 2.4 1.9s2.3-.7 2.3-1.6c0-.8-.6-1.2-1.6-1.4l-1.7-.4c-1.9-.4-2.9-1.4-2.9-2.9 0-1.8 1.5-3 3.7-3s3.8 1.3 3.8 3.3H533c0-1.1-.9-1.9-2.2-1.9s-2.1.7-2.1 1.6c0 .8.6 1.2 1.6 1.5l1.7.4c2 .5 2.9 1.4 2.9 2.9 0 1.9-1.7 3-3.9 3-2.1 0-3.9-1.1-4-3.4ZM544.2 779.4v-5.6c-.7 1.2-1.9 1.8-3.2 1.8-2.7 0-4.5-2.2-4.5-5.4s1.8-5.4 4.5-5.4c1.3 0 2.6.6 3.3 1.7V765h1.6v14.4h-1.7Zm.1-9.2c0-2.3-1.2-3.9-3.1-3.9-1.8 0-3 1.3-3 3.9s1.3 3.9 3 3.9c1.9-.1 3.1-1.6 3.1-3.9ZM548.3 771.4V765h1.7v6.3c0 1.8.9 2.7 2.4 2.7s2.7-.9 2.7-2.9v-6h1.7v10.3h-1.6v-2.5h.5c-.7 1.9-1.9 2.7-3.5 2.7-2.2-.1-3.9-1.4-3.9-4.2ZM558.7 770.2c0-3.1 1.9-5.4 4.7-5.4s4.7 2.2 4.7 5.4v.5h-8.5v-1.4h7.5l-.7.5c0-2.1-1.2-3.5-3-3.5s-3 1.4-3 3.5v.7c0 2.1 1.1 3.6 3.1 3.6 1.5 0 2.4-.7 2.7-1.8h1.7c-.4 2-2.1 3.3-4.4 3.3-3 0-4.8-2.3-4.8-5.4ZM569.7 774.3c0-.7.5-1.2 1.2-1.2s1.2.5 1.2 1.2-.5 1.2-1.2 1.2-1.2-.5-1.2-1.2Z" class="cls-5"/><path d="M7 861.6h5.3c2.9 0 4.7 1.5 4.7 3.9 0 1.7-.9 2.6-2.4 3.1 1.7.3 3 1.4 3 3.4 0 2.5-1.7 4.1-5.2 4.1H7.1v-14.5H7Zm5.4 6.4c1.8 0 2.9-.9 2.9-2.4s-1.1-2.4-2.9-2.4H8.8v4.8h3.6Zm0 6.6c2.2 0 3.4-.8 3.4-2.5s-1.2-2.6-3.3-2.6H8.8v5.1h3.6ZM19.6 872.3v-6.4h1.7v6.3c0 1.8.9 2.7 2.4 2.7s2.7-.9 2.7-2.9v-6h1.7v10.3h-1.6v-2.5h.4c-.7 1.9-1.9 2.7-3.5 2.7-2.1-.1-3.8-1.5-3.8-4.2ZM35 867.3h-5.6v-1.4H35v1.4Zm-2.1-4.2v10.6c0 .8.3 1.1 1.1 1.1h1v1.4h-1.1c-1.8 0-2.6-.8-2.6-2.3v-10.8h1.6ZM41.3 867.3h-5.6v-1.4h5.6v1.4Zm-2.1-4.2v10.6c0 .8.3 1.1 1.1 1.1h1v1.4h-1.1c-1.8 0-2.6-.8-2.6-2.3v-10.8h1.6ZM42.4 871c0-3.2 1.9-5.4 4.8-5.4s4.8 2.2 4.8 5.4-1.9 5.4-4.8 5.4-4.8-2.2-4.8-5.4Zm7.9 0c0-2.4-1.2-3.9-3.1-3.9s-3.1 1.5-3.1 3.9 1.2 3.9 3.1 3.9 3.1-1.5 3.1-3.9ZM55.6 876.2h-1.7v-10.3h1.6v2.5H55c.7-1.9 1.9-2.7 3.5-2.7 2.1 0 3.8 1.4 3.8 4.1v6.4h-1.7v-6.3c0-1.8-.9-2.7-2.4-2.7s-2.7.9-2.7 2.9v6.1h.1ZM64.4 873.1H66c.1 1.2 1 1.9 2.4 1.9s2.3-.7 2.3-1.6c0-.8-.6-1.2-1.6-1.4l-1.7-.4c-1.9-.4-2.9-1.4-2.9-2.9 0-1.8 1.5-3 3.7-3S72 867 72 869h-1.6c0-1.1-.9-1.9-2.2-1.9s-2.1.7-2.1 1.6c0 .8.6 1.2 1.6 1.5l1.7.4c2 .5 2.9 1.4 2.9 2.9 0 1.9-1.7 3-3.9 3-2.1-.1-3.9-1.2-4-3.4ZM86.8 880.9h-1.4v-24h1.4v24ZM99.9 868.9c0-4.4 2.8-7.5 6.7-7.5 3.1 0 5.5 2 6.1 4.9h-1.8c-.4-2-2.1-3.3-4.3-3.3-2.9 0-4.9 2.4-4.9 5.9s2 5.9 4.9 5.9c2.4 0 4.4-1.8 4.4-4.3h.6-4.4v-1.6h5.5v1.6c0 3.4-2.7 5.9-6.1 5.9-3.9 0-6.7-3.1-6.7-7.5ZM114.6 862.7c0-.6.5-1.1 1.1-1.1s1.1.5 1.1 1.1-.5 1.1-1.1 1.1-1.1-.4-1.1-1.1Zm.3 3.2h1.7v10.3h-1.7v-10.3ZM123.5 867.3h-5.6v-1.4h5.6v1.4Zm-2.1-4.2v10.6c0 .8.3 1.1 1.1 1.1h1v1.4h-1.1c-1.8 0-2.6-.8-2.6-2.3v-10.8h1.6ZM125.5 861.6h1.8v13h7v1.6h-8.8v-14.6ZM135.5 873.2c0-2.4 2-2.8 4.1-3.1 2-.3 2.6-.2 2.6-1v-.1c0-1.1-.8-1.9-2.3-1.9-1.4 0-2.4.8-2.5 1.8h-1.7c.1-1.9 1.8-3.3 4.2-3.3s3.9 1.4 3.9 3.4v7.1h-1.6v-1.5c-.4.7-1.2 1.6-3.1 1.6-2.1.1-3.6-.9-3.6-3Zm6.7-.9V871c-.3.2-1.5.4-2.7.6-1.2.2-2.3.6-2.3 1.7 0 1 .8 1.5 2.1 1.5 2.1.1 2.9-1.2 2.9-2.5ZM147.9 874.6v1.6h-1.6v-14.6h1.7v5.8c.7-1.2 1.9-1.7 3.2-1.7 2.7 0 4.5 2.2 4.5 5.4s-1.8 5.4-4.5 5.4c-1.3-.1-2.5-.7-3.3-1.9Zm6.1-3.6c0-2.5-1.3-3.9-3-3.9-1.9 0-3.1 1.5-3.1 3.9s1.2 3.9 3.1 3.9c1.7 0 3-1.3 3-3.9ZM162.1 871.5h1.8c0 2.1 1.4 3.3 3.7 3.3 2.1 0 3.5-1 3.5-2.6 0-1.2-.8-1.9-2.9-2.4l-1.6-.4c-3-.7-4.2-1.9-4.2-3.9 0-2.5 2-4.2 5-4.2s5 1.7 5 4.5h-1.7c-.1-1.8-1.4-2.9-3.4-2.9s-3.2 1-3.2 2.5c0 1.1.8 1.8 2.9 2.3l1.7.4c2.8.7 4.2 2 4.2 4 0 2.5-2.1 4.2-5.3 4.2-3.3.1-5.5-1.8-5.5-4.8ZM174.4 873.2c0-2.4 2-2.8 4.1-3.1 2-.3 2.6-.2 2.6-1v-.1c0-1.1-.8-1.9-2.3-1.9-1.4 0-2.4.8-2.5 1.8h-1.7c.1-1.9 1.8-3.3 4.2-3.3s3.9 1.4 3.9 3.4v7.1h-1.6v-1.5c-.4.7-1.2 1.6-3.1 1.6-2 .1-3.6-.9-3.6-3Zm6.7-.9V871c-.3.2-1.5.4-2.7.6-1.2.2-2.3.6-2.3 1.7 0 1 .8 1.5 2.1 1.5 2.1.1 2.9-1.2 2.9-2.5ZM186.9 876.2h-1.7v-10.3h1.6v2.5h-.5c.7-1.9 1.9-2.7 3.5-2.7 2.1 0 3.8 1.4 3.8 4.1v6.4h-1.7v-6.3c0-1.8-.9-2.7-2.4-2.7s-2.7.9-2.7 2.9v6.1h.1ZM195.7 873.1h1.6c.1 1.2 1 1.9 2.4 1.9s2.3-.7 2.3-1.6c0-.8-.6-1.2-1.6-1.4l-1.7-.4c-1.9-.4-2.9-1.4-2.9-2.9 0-1.8 1.5-3 3.7-3s3.8 1.3 3.8 3.3h-1.4c0-1.1-.9-1.9-2.2-1.9s-2.1.7-2.1 1.6c0 .8.6 1.2 1.6 1.5l1.7.4c2 .5 2.9 1.4 2.9 2.9 0 1.9-1.7 3-3.9 3-2.3-.1-4.1-1.2-4.2-3.4ZM210.2 871.5h1.8c0 2.1 1.4 3.3 3.7 3.3 2.1 0 3.5-1 3.5-2.6 0-1.2-.8-1.9-2.9-2.4l-1.6-.4c-3-.7-4.2-1.9-4.2-3.9 0-2.5 2-4.2 5-4.2s5 1.7 5 4.5h-1.7c-.1-1.8-1.4-2.9-3.4-2.9s-3.2 1-3.2 2.5c0 1.1.8 1.8 2.9 2.3l1.7.4c2.8.7 4.2 2 4.2 4 0 2.5-2.1 4.2-5.3 4.2-3.4.1-5.5-1.8-5.5-4.8ZM222.4 871c0-3.1 1.9-5.4 4.7-5.4s4.7 2.2 4.7 5.4v.5h-8.5v-1.4h7.5l-.7.5c0-2.1-1.2-3.5-3-3.5s-3 1.4-3 3.5v.7c0 2.1 1.1 3.6 3.1 3.6 1.5 0 2.4-.7 2.7-1.8h1.7c-.4 2-2.1 3.3-4.4 3.3-3 0-4.8-2.2-4.8-5.4ZM233.7 865.9h1.6v2.1h-.2c.6-1.5 1.9-2.3 3.3-2.3 1.6 0 2.8 1.1 3.1 2.3h-.3c.4-1.3 1.7-2.3 3.4-2.3 1.9 0 3.4 1.2 3.4 3.8v6.8h-1.7v-6.8c0-1.6-1.1-2.2-2.2-2.2-1.5 0-2.4 1-2.4 2.4v6.6H240v-6.9c0-1.2-.9-2.1-2.2-2.1s-2.5.9-2.5 2.7v6.3h-1.7v-10.4h.1ZM250.2 862.7c0-.6.5-1.1 1.1-1.1s1.1.5 1.1 1.1-.5 1.1-1.1 1.1-1.1-.4-1.1-1.1Zm.3 3.2h1.7v10.3h-1.7v-10.3ZM254.8 861.6h5.3c2.9 0 4.7 1.5 4.7 3.9 0 1.7-.9 2.6-2.4 3.1 1.7.3 3 1.4 3 3.4 0 2.5-1.7 4.1-5.2 4.1h-5.3v-14.5h-.1Zm5.3 6.4c1.8 0 2.9-.9 2.9-2.4s-1.1-2.4-2.9-2.4h-3.6v4.8h3.6Zm0 6.6c2.2 0 3.4-.8 3.4-2.5s-1.2-2.6-3.3-2.6h-3.7v5.1h3.6ZM266.8 871c0-3.2 1.9-5.4 4.8-5.4s4.8 2.2 4.8 5.4-1.9 5.4-4.8 5.4-4.8-2.2-4.8-5.4Zm7.9 0c0-2.4-1.2-3.9-3.1-3.9s-3.1 1.5-3.1 3.9 1.2 3.9 3.1 3.9 3.1-1.5 3.1-3.9ZM278.3 873.9v-12.2h1.7v12.1c0 .9.2 1.1 1.1 1.1h.4v1.4h-.5c-1.9-.1-2.7-.8-2.7-2.4ZM282.4 871c0-3.2 1.8-5.4 4.5-5.4 1.3 0 2.6.6 3.2 1.7v-5.8h1.7v14.6h-1.6v-1.6c-.7 1.2-1.9 1.8-3.3 1.8-2.7.1-4.5-2.1-4.5-5.3Zm7.8 0c0-2.3-1.2-3.9-3.1-3.9-1.8 0-3 1.3-3 3.9s1.3 3.9 3 3.9c1.9 0 3.1-1.5 3.1-3.9Z" class="cls-4"/><path d="M528 919.2c.4-.4 1-.4 1.3 0l9.8 9.8c.4.4.4 1 0 1.3l-9.8 9.8c-.4.4-1 .4-1.3 0-.4-.4-.4-1 0-1.3l9.2-9.2-9.2-9.2c-.4-.2-.4-.8 0-1.2Z" style="fill:#171321;stroke-width:0;fill-rule:evenodd"/><path d="M6 910.7c0-2.2 1.8-4 4-4h141c2.2 0 4 1.8 4 4v36c0 2.2-1.8 4-4 4H10c-2.2 0-4-1.8-4-4v-36Z" style="fill:#fff;stroke:#171321;stroke-miterlimit:10"/><path d="M26 921.6h2.6v12.3h6.7v2.2H26v-14.5ZM36.4 931c0-3.1 2-5.4 4.9-5.4s4.9 2.2 4.9 5.4v.7h-8.9V930H45l-1.1.5c0-1.7-1-2.8-2.6-2.8s-2.6 1.1-2.6 2.8v1.1c0 1.8 1 3 2.7 3 1.2 0 2.1-.6 2.4-1.5h2.3c-.4 2-2.3 3.4-4.7 3.4-3.1-.1-5-2.4-5-5.5ZM47.5 933.2c0-2.3 1.9-2.9 4.1-3.2 1.9-.2 2.6-.2 2.6-.9v-.1c0-.9-.7-1.5-1.9-1.5s-2 .6-2.1 1.5h-2.4c.1-2 1.8-3.4 4.5-3.4s4.3 1.3 4.3 3.5v7h-2.4v-1.5c-.5.9-1.4 1.6-3 1.6-2.2.1-3.7-.9-3.7-3Zm6.6-.8v-1.1c-.3.2-1.3.4-2.3.5-1.1.2-2 .5-2 1.5 0 .8.7 1.3 1.8 1.3 1.7-.1 2.5-1.1 2.5-2.2ZM58.8 925.9h2.4v1.7c.4-1.2 1.2-1.8 2.5-1.8h.8v2.2c-.2 0-.7-.1-1.2-.1-1.2 0-2.1.8-2.1 2.4v5.8h-2.5v-10.2h.1ZM68.3 936.2h-2.4v-10.3h2.4v2.6h-.5c.7-1.8 1.9-2.8 3.7-2.8 2.2 0 3.7 1.4 3.7 4.1v6.4h-2.5v-6c0-1.5-.8-2.3-2.1-2.3s-2.3.8-2.3 2.5v5.8ZM81.8 925.9h2.4v2.2H84c.6-1.6 1.8-2.5 3.3-2.5 1.6 0 2.8 1 3.1 2.5h-.3c.4-1.5 1.8-2.5 3.5-2.5 2 0 3.5 1.3 3.5 3.7v6.8h-2.5v-6.5c0-1.4-.9-2-1.9-2-1.2 0-2 .9-2 2.1v6.3h-2.4v-6.6c0-1.1-.8-1.9-1.9-1.9s-2.1.8-2.1 2.3v6.2h-2.5v-10.1ZM98.7 931c0-3.2 2.1-5.4 5.1-5.4s5.1 2.2 5.1 5.4-2 5.4-5.1 5.4-5.1-2.2-5.1-5.4Zm7.7 0c0-2.1-1-3.3-2.6-3.3s-2.6 1.3-2.6 3.3c0 2.1 1 3.3 2.6 3.3s2.6-1.2 2.6-3.3ZM110.6 925.9h2.4v1.7c.4-1.2 1.2-1.8 2.5-1.8h.8v2.2c-.2 0-.7-.1-1.2-.1-1.2 0-2.1.8-2.1 2.4v5.8h-2.5v-10.2h.1ZM117.3 931c0-3.1 2-5.4 4.9-5.4s4.9 2.2 4.9 5.4v.7h-8.9V930h7.7l-1.1.5c0-1.7-1-2.8-2.6-2.8s-2.6 1.1-2.6 2.8v1.1c0 1.8 1 3 2.7 3 1.2 0 2.1-.6 2.4-1.5h2.3c-.4 2-2.3 3.4-4.7 3.4-3.1-.1-5-2.4-5-5.5ZM401.3 921.6h2.6v12.3h6.7v2.2h-9.3v-14.5ZM411.7 931c0-3.1 2-5.4 4.9-5.4s4.9 2.2 4.9 5.4v.7h-8.9V930h7.7l-1.1.5c0-1.7-1-2.8-2.6-2.8s-2.6 1.1-2.6 2.8v1.1c0 1.8 1 3 2.7 3 1.2 0 2.1-.6 2.4-1.5h2.3c-.4 2-2.3 3.4-4.7 3.4-3.1-.1-5-2.4-5-5.5ZM422.8 933.2c0-2.3 1.9-2.9 4.1-3.2 1.9-.2 2.6-.2 2.6-.9v-.1c0-.9-.7-1.5-1.9-1.5s-2 .6-2.1 1.5h-2.4c.1-2 1.8-3.4 4.5-3.4s4.3 1.3 4.3 3.5v7h-2.4v-1.5c-.5.9-1.4 1.6-3 1.6-2.2.1-3.7-.9-3.7-3Zm6.6-.8v-1.1c-.3.2-1.3.4-2.3.5-1.1.2-2 .5-2 1.5 0 .8.7 1.3 1.8 1.3 1.7-.1 2.5-1.1 2.5-2.2ZM434 925.9h2.4v1.7c.4-1.2 1.2-1.8 2.5-1.8h.8v2.2c-.2 0-.7-.1-1.2-.1-1.2 0-2.1.8-2.1 2.4v5.8h-2.5v-10.2h.1ZM443.6 936.2h-2.5v-10.3h2.4v2.6h-.5c.7-1.8 1.9-2.8 3.7-2.8 2.2 0 3.7 1.4 3.7 4.1v6.4h-2.5v-6c0-1.5-.8-2.3-2.1-2.3s-2.3.8-2.3 2.5v5.8h.1ZM457.1 925.9h2.4v2.2h-.2c.6-1.6 1.8-2.5 3.3-2.5 1.6 0 2.8 1 3.1 2.5h-.3c.4-1.5 1.8-2.5 3.5-2.5 2 0 3.5 1.3 3.5 3.7v6.8h-2.5v-6.5c0-1.4-.9-2-1.9-2-1.2 0-2 .9-2 2.1v6.3h-2.4v-6.6c0-1.1-.8-1.9-1.9-1.9s-2.1.8-2.1 2.3v6.2h-2.5v-10.1ZM474 931c0-3.2 2.1-5.4 5.1-5.4s5.1 2.2 5.1 5.4-2 5.4-5.1 5.4-5.1-2.2-5.1-5.4Zm7.7 0c0-2.1-1-3.3-2.6-3.3s-2.6 1.3-2.6 3.3c0 2.1 1 3.3 2.6 3.3s2.6-1.2 2.6-3.3ZM485.9 925.9h2.4v1.7c.4-1.2 1.2-1.8 2.5-1.8h.8v2.2c-.2 0-.7-.1-1.2-.1-1.2 0-2.1.8-2.1 2.4v5.8h-2.4v-10.2ZM492.5 931c0-3.1 2-5.4 4.9-5.4s4.9 2.2 4.9 5.4v.7h-8.9V930h7.7l-1.1.5c0-1.7-1-2.8-2.6-2.8s-2.6 1.1-2.6 2.8v1.1c0 1.8 1 3 2.7 3 1.2 0 2.1-.6 2.4-1.5h2.3c-.4 2-2.3 3.4-4.7 3.4-3-.1-5-2.4-5-5.5ZM202.6 910.7c0-2.2 1.8-4 4-4h141c2.2 0 4 1.8 4 4v36c0 2.2-1.8 4-4 4h-141c-2.2 0-4-1.8-4-4v-36Z" class="cls-5"/><path d="M222.6 921.6h2.6v12.3h6.7v2.2h-9.3v-14.5ZM233 931c0-3.1 2-5.4 4.9-5.4s4.9 2.2 4.9 5.4v.7h-8.9V930h7.7l-1.1.5c0-1.7-1-2.8-2.6-2.8s-2.6 1.1-2.6 2.8v1.1c0 1.8 1 3 2.7 3 1.2 0 2.1-.6 2.4-1.5h2.3c-.4 2-2.3 3.4-4.7 3.4-3-.1-5-2.4-5-5.5ZM244.2 933.2c0-2.3 1.9-2.9 4.1-3.2 1.9-.2 2.6-.2 2.6-.9v-.1c0-.9-.7-1.5-1.9-1.5s-2 .6-2.1 1.5h-2.4c.1-2 1.8-3.4 4.5-3.4s4.3 1.3 4.3 3.5v7h-2.4v-1.5c-.5.9-1.4 1.6-3 1.6-2.2.1-3.7-.9-3.7-3Zm6.6-.8v-1.1c-.3.2-1.3.4-2.3.5-1.1.2-2 .5-2 1.5 0 .8.7 1.3 1.8 1.3 1.6-.1 2.5-1.1 2.5-2.2ZM255.4 925.9h2.4v1.7c.4-1.2 1.2-1.8 2.5-1.8h.8v2.2c-.2 0-.7-.1-1.2-.1-1.2 0-2.1.8-2.1 2.4v5.8h-2.5v-10.2h.1ZM265 936.2h-2.5v-10.3h2.4v2.6h-.5c.7-1.8 1.9-2.8 3.7-2.8 2.2 0 3.7 1.4 3.7 4.1v6.4h-2.5v-6c0-1.5-.8-2.3-2.1-2.3s-2.3.8-2.3 2.5v5.8h.1ZM278.5 925.9h2.4v2.2h-.2c.6-1.6 1.8-2.5 3.3-2.5 1.6 0 2.8 1 3.1 2.5h-.3c.4-1.5 1.8-2.5 3.5-2.5 2 0 3.5 1.3 3.5 3.7v6.8h-2.5v-6.5c0-1.4-.9-2-1.9-2-1.2 0-2 .9-2 2.1v6.3h-2.5v-6.6c0-1.1-.8-1.9-1.9-1.9s-2.1.8-2.1 2.3v6.2h-2.5v-10.1h.1ZM295.4 931c0-3.2 2.1-5.4 5.1-5.4s5.1 2.2 5.1 5.4-2 5.4-5.1 5.4-5.1-2.2-5.1-5.4Zm7.7 0c0-2.1-1-3.3-2.6-3.3s-2.6 1.3-2.6 3.3c0 2.1 1 3.3 2.6 3.3s2.6-1.2 2.6-3.3ZM307.3 925.9h2.4v1.7c.4-1.2 1.2-1.8 2.5-1.8h.8v2.2c-.2 0-.7-.1-1.2-.1-1.2 0-2.1.8-2.1 2.4v5.8h-2.5v-10.2h.1ZM313.9 931c0-3.1 2-5.4 4.9-5.4s4.9 2.2 4.9 5.4v.7h-8.8V930h7.7l-1.1.5c0-1.7-1-2.8-2.6-2.8s-2.6 1.1-2.6 2.8v1.1c0 1.8 1 3 2.7 3 1.2 0 2.1-.6 2.4-1.5h2.3c-.4 2-2.3 3.4-4.7 3.4-3.2-.1-5.1-2.4-5.1-5.5Z" class="cls-2"/></g></g></svg>